<?xml version="1.0" encoding="utf-8"?>
<!-- Generator: Adobe Illustrator 16.0.0, SVG Export Plug-In . SVG Version: 6.00 Build 0)  -->
<!DOCTYPE svg PUBLIC "-//W3C//DTD SVG 1.1//EN" "http://www.w3.org/Graphics/SVG/1.1/DTD/svg11.dtd">
<svg version="1.1" xmlns="http://www.w3.org/2000/svg" xmlns:xlink="http://www.w3.org/1999/xlink" x="0px" y="0px" width="65px"
	 height="65px" viewBox="0 0 65 65" enable-background="new 0 0 65 65" xml:space="preserve">
<g id="Layer_1">
	<g>
		<g>
			<g>
				<g>
					<g>
						<path fill="#D3D2AF" d="M61.042,60.271c-15.338,0-27.771-12.434-27.771-27.771S45.704,4.729,61.042,4.729"/>
					</g>
					<g>
						<path fill="#E5E3C1" d="M33.271,32.5c0-15.337,12.434-27.771,27.771-27.771"/>
					</g>
					<g>
						<path fill="#FF6700" d="M30.771,32.5c0-16.691,13.58-30.271,30.271-30.271c1.381,0,2.5,1.119,2.5,2.5s-1.119,2.5-2.5,2.5
							c-13.936,0-25.271,11.336-25.271,25.271s11.336,25.271,25.271,25.271c1.381,0,2.5,1.119,2.5,2.5s-1.119,2.5-2.5,2.5
							C44.351,62.771,30.771,49.191,30.771,32.5z"/>
					</g>
				</g>
				<g>
					<g>
						<path fill="#D3D2AF" d="M3.958,4.729c15.338,0,27.771,12.434,27.771,27.77c0,15.338-12.434,27.77-27.771,27.77"/>
					</g>
					<g>
						<path fill="#E5E3C1" d="M31.729,32.499c0,15.338-12.434,27.77-27.771,27.77"/>
					</g>
					<g>
						<path fill="#FF6700" d="M1.458,60.269c0-1.381,1.119-2.5,2.5-2.5c13.936,0,25.271-11.336,25.271-25.27
							S17.894,7.229,3.958,7.229c-1.381,0-2.5-1.119-2.5-2.5s1.119-2.5,2.5-2.5c16.691,0,30.271,13.579,30.271,30.27
							s-13.58,30.27-30.271,30.27C2.577,62.769,1.458,61.649,1.458,60.269z"/>
					</g>
				</g>
			</g>
			<g>
				<g>
					<line fill="#FF6700" x1="15.333" y1="32.5" x2="49.667" y2="32.5"/>
				</g>
				<g>
					<path fill="#FF6700" d="M49.667,35H15.333c-1.381,0-2.5-1.119-2.5-2.5s1.119-2.5,2.5-2.5h34.334c1.381,0,2.5,1.119,2.5,2.5
						S51.048,35,49.667,35z"/>
				</g>
			</g>
		</g>
		<g>
			<g>
				<circle fill="#FF6700" cx="14.495" cy="40.833" r="1.062"/>
			</g>
			<g>
				<circle fill="#FF6700" cx="18.558" cy="40.833" r="1.062"/>
			</g>
			<g>
				<circle fill="#FF6700" cx="22.62" cy="40.833" r="1.062"/>
			</g>
		</g>
	</g>
</g>
<g id="nyt_x5F_exporter_x5F_info" display="none">
</g>
</svg>
