<?xml version="1.0" encoding="utf-8"?>
<!-- Generator: Adobe Illustrator 16.0.0, SVG Export Plug-In . SVG Version: 6.00 Build 0)  -->
<!DOCTYPE svg PUBLIC "-//W3C//DTD SVG 1.1//EN" "http://www.w3.org/Graphics/SVG/1.1/DTD/svg11.dtd">
<svg version="1.1" xmlns="http://www.w3.org/2000/svg" xmlns:xlink="http://www.w3.org/1999/xlink" x="0px" y="0px" width="65px"
	 height="65px" viewBox="0 0 65 65" enable-background="new 0 0 65 65" xml:space="preserve">
<g id="Layer_1">
	<g>
		<g>
			<g>
				<g>
					<polyline fill="#32F9B1" points="16.881,28.281 26.316,18.846 35.75,28.281 					"/>
				</g>
				<g>
					<path fill="#0071AA" d="M35.75,30.781c-0.64,0-1.279-0.244-1.769-0.732l-7.665-7.667l-7.668,7.667
						c-0.978,0.977-2.559,0.977-3.536,0c-0.977-0.977-0.977-2.559,0-3.535l9.436-9.436c0.47-0.469,1.105-0.732,1.769-0.732l0,0
						c0.663,0,1.299,0.264,1.768,0.732l9.434,9.436c0.976,0.977,0.976,2.56,0,3.535C37.028,30.537,36.39,30.781,35.75,30.781z"/>
				</g>
			</g>
			<g>
				<g>
					<polyline fill="#32F9B1" points="35.954,28.281 45.392,18.846 54.824,28.281 61.024,22.081 					"/>
				</g>
				<g>
					<path fill="#0071AA" d="M35.954,30.781c-0.639,0-1.279-0.244-1.767-0.732c-0.978-0.977-0.978-2.559,0-3.535l9.435-9.436
						c0.469-0.469,1.105-0.732,1.77-0.732l0,0c0.662,0,1.297,0.264,1.766,0.732l7.667,7.668l4.434-4.433
						c0.978-0.977,2.559-0.977,3.535,0c0.976,0.977,0.976,2.56,0,3.535l-6.202,6.2c-0.469,0.469-1.104,0.732-1.767,0.732l0,0
						c-0.663,0-1.3-0.264-1.767-0.732l-7.666-7.667l-7.668,7.667C37.235,30.537,36.595,30.781,35.954,30.781z"/>
				</g>
			</g>
		</g>
		<g>
			<g>
				<g>
					<polyline fill="#B1BCB8" points="3.976,46.154 13.409,36.72 22.843,46.154 					"/>
				</g>
				<g>
					<path fill="#0071AA" d="M22.843,48.654c-0.639,0-1.278-0.244-1.767-0.732l-7.667-7.667l-7.668,7.667
						c-0.975,0.977-2.557,0.977-3.535,0c-0.976-0.977-0.976-2.56,0-3.535l9.438-9.435c0.468-0.469,1.104-0.732,1.766-0.732l0,0
						c0.664,0,1.3,0.264,1.769,0.732l9.434,9.435c0.976,0.977,0.976,2.56,0,3.535C24.122,48.41,23.483,48.654,22.843,48.654z"/>
				</g>
			</g>
			<g>
				<g>
					<polyline fill="#B1BCB8" points="23.049,46.154 32.483,36.72 41.918,46.154 48.118,39.954 					"/>
				</g>
				<g>
					<path fill="#0071AA" d="M41.918,48.654c-0.64,0-1.279-0.244-1.769-0.732l-7.666-7.667l-7.667,7.667
						c-0.978,0.977-2.559,0.977-3.535,0c-0.978-0.977-0.978-2.559,0-3.535l9.435-9.435c0.977-0.977,2.559-0.977,3.535,0l7.667,7.667
						l4.434-4.433c0.977-0.977,2.558-0.977,3.535,0c0.977,0.977,0.977,2.56,0,3.535l-6.202,6.2
						C43.197,48.41,42.558,48.654,41.918,48.654z"/>
				</g>
			</g>
		</g>
	</g>
</g>
<g id="nyt_x5F_exporter_x5F_info" display="none">
</g>
</svg>
