<?xml version="1.0" encoding="utf-8"?>
<!-- Generator: Adobe Illustrator 16.0.0, SVG Export Plug-In . SVG Version: 6.00 Build 0)  -->
<!DOCTYPE svg PUBLIC "-//W3C//DTD SVG 1.1//EN" "http://www.w3.org/Graphics/SVG/1.1/DTD/svg11.dtd">
<svg version="1.1" xmlns="http://www.w3.org/2000/svg" xmlns:xlink="http://www.w3.org/1999/xlink" x="0px" y="0px" width="65px"
	 height="65px" viewBox="0 0 65 65" enable-background="new 0 0 65 65" xml:space="preserve">
<g id="Layer_1">
	<g>
		<g>
			<g>
				<path fill="#B1BCB8" d="M3.579,18.306c0-7.557,6.126-13.68,13.68-13.68h1.52c7.555,0,13.68,6.123,13.68,13.68v42.068"/>
			</g>
			<g>
				<path fill="#C7D3CE" d="M3.579,18.306c0-7.557,6.126-13.68,13.68-13.68h1.52c7.555,0,13.68,6.123,13.68,13.68"/>
			</g>
			<g>
				<path fill="#0071AA" d="M32.458,62.874c-1.381,0-2.5-1.119-2.5-2.5V18.306c0-6.164-5.016-11.18-11.18-11.18h-1.52
					c-6.164,0-11.18,5.016-11.18,11.18c0,1.381-1.119,2.5-2.5,2.5s-2.5-1.119-2.5-2.5c0-8.922,7.258-16.18,16.18-16.18h1.52
					c8.923,0,16.18,7.258,16.18,16.18v42.068C34.958,61.755,33.838,62.874,32.458,62.874z"/>
			</g>
		</g>
		<g>
			<g>
				<path fill="#32F9B1" d="M61.421,18.306c0-7.557-6.126-13.68-13.681-13.68h-1.52c-7.553,0-13.68,6.123-13.68,13.68v42.068"/>
			</g>
			<g>
				<path fill="#2FD4EA" d="M61.421,18.306c0-7.557-6.126-13.68-13.681-13.68h-1.52c-7.553,0-13.68,6.123-13.68,13.68"/>
			</g>
			<g>
				<path fill="#0071AA" d="M32.542,62.874c-1.381,0-2.5-1.119-2.5-2.5V18.306c0-8.922,7.258-16.18,16.18-16.18h1.52
					c8.922,0,16.181,7.258,16.181,16.18c0,1.381-1.119,2.5-2.5,2.5s-2.5-1.119-2.5-2.5c0-6.164-5.017-11.18-11.181-11.18h-1.52
					c-6.164,0-11.18,5.016-11.18,11.18v42.068C35.042,61.755,33.922,62.874,32.542,62.874z"/>
			</g>
		</g>
	</g>
</g>
<g id="nyt_x5F_exporter_x5F_info" display="none">
</g>
</svg>
