<?xml version="1.0" encoding="utf-8"?>
<!-- Generator: Adobe Illustrator 16.0.0, SVG Export Plug-In . SVG Version: 6.00 Build 0)  -->
<!DOCTYPE svg PUBLIC "-//W3C//DTD SVG 1.1//EN" "http://www.w3.org/Graphics/SVG/1.1/DTD/svg11.dtd">
<svg version="1.1" xmlns="http://www.w3.org/2000/svg" xmlns:xlink="http://www.w3.org/1999/xlink" x="0px" y="0px" width="65px"
	 height="65px" viewBox="0 0 65 65" enable-background="new 0 0 65 65" xml:space="preserve">
<g id="Layer_1">
	<g>
		<g>
			<g>
				<g>
					<g>
						<polyline fill="#34C9F7" points="9.259,18.872 32.864,5.244 56.47,18.872 						"/>
					</g>
					<g>
						<path fill="#0071AA" d="M56.468,21.372c-0.426,0-0.854-0.107-1.248-0.335L32.864,8.131L10.509,21.037
							c-1.192,0.69-2.724,0.282-3.415-0.915c-0.69-1.195-0.28-2.725,0.915-3.415L31.614,3.079c0.773-0.447,1.727-0.447,2.5,0
							L57.72,16.707c1.195,0.69,1.605,2.22,0.915,3.415C58.171,20.924,57.331,21.372,56.468,21.372z"/>
					</g>
				</g>
				<g>
					<g>
						<polyline fill="#34C9F7" points="56.47,46.127 32.864,59.756 9.259,46.127 						"/>
					</g>
					<g>
						<path fill="#0071AA" d="M32.864,62.256c-0.432,0-0.863-0.111-1.25-0.335L8.009,48.292c-1.195-0.69-1.605-2.22-0.915-3.415
							c0.691-1.195,2.223-1.604,3.415-0.915l22.355,12.907L55.22,43.962c1.193-0.689,2.725-0.28,3.415,0.915s0.28,2.725-0.915,3.415
							L34.114,61.921C33.728,62.145,33.296,62.256,32.864,62.256z"/>
					</g>
				</g>
			</g>
			<g>
				<g>
					<line fill="#34C9F7" x1="3.612" y1="33.049" x2="61.388" y2="33.049"/>
				</g>
				<g>
					<path fill="#0071AA" d="M61.388,35.549H3.612c-1.381,0-2.5-1.119-2.5-2.5s1.119-2.5,2.5-2.5h57.775c1.381,0,2.5,1.119,2.5,2.5
						S62.769,35.549,61.388,35.549z"/>
				</g>
			</g>
			<g>
				<g>
					<path fill="#0071AA" d="M8.618,40.554c-0.64,0-1.279-0.244-1.768-0.731l-5.006-5.004c-0.469-0.469-0.732-1.105-0.732-1.769
						s0.264-1.299,0.732-1.768l5.006-5.007c0.977-0.977,2.559-0.977,3.535,0c0.977,0.976,0.977,2.559,0,3.535l-3.237,3.238
						l3.237,3.236c0.977,0.977,0.977,2.56,0.001,3.536C9.898,40.31,9.258,40.554,8.618,40.554z"/>
				</g>
			</g>
			<g>
				<g>
					<path fill="#0071AA" d="M56.38,40.554c-0.64,0-1.279-0.244-1.769-0.732c-0.976-0.977-0.976-2.56,0.001-3.536l3.238-3.236
						l-3.237-3.234c-0.978-0.976-0.978-2.559-0.002-3.535c0.975-0.979,2.559-0.979,3.535-0.002l5.007,5.003
						c0.471,0.469,0.734,1.104,0.734,1.769c0,0.663-0.264,1.3-0.732,1.769l-5.008,5.005C57.659,40.31,57.02,40.554,56.38,40.554z"/>
				</g>
			</g>
		</g>
		<g>
			<g>
				<circle fill="#34C9F7" cx="28.437" cy="24.666" r="1.063"/>
			</g>
			<g>
				<circle fill="#34C9F7" cx="32.5" cy="24.666" r="1.063"/>
			</g>
			<g>
				<circle fill="#34C9F7" cx="36.562" cy="24.666" r="1.062"/>
			</g>
		</g>
	</g>
</g>
<g id="nyt_x5F_exporter_x5F_info" display="none">
</g>
</svg>
