<?xml version="1.0" encoding="utf-8"?>
<!-- Generator: Adobe Illustrator 16.0.0, SVG Export Plug-In . SVG Version: 6.00 Build 0)  -->
<!DOCTYPE svg PUBLIC "-//W3C//DTD SVG 1.1//EN" "http://www.w3.org/Graphics/SVG/1.1/DTD/svg11.dtd">
<svg version="1.1" xmlns="http://www.w3.org/2000/svg" xmlns:xlink="http://www.w3.org/1999/xlink" x="0px" y="0px" width="65px"
	 height="65px" viewBox="0 0 65 65" enable-background="new 0 0 65 65" xml:space="preserve">
<g id="Layer_1">
	<g>
		<g>
			<g>
				<g>
					<g>
						<g>
							<path fill="#D0D8C0" d="M22.25,14.823c-5.246,0-9.5,4.253-9.5,9.5s4.254,9.5,9.5,9.5v23.083"/>
						</g>
						<g>
							<path fill="#6D3E13" d="M22.25,59.406c-1.381,0-2.5-1.119-2.5-2.5V36.062c-5.421-1.153-9.5-5.979-9.5-11.738
								c0-6.617,5.383-12,12-12c1.381,0,2.5,1.119,2.5,2.5s-1.119,2.5-2.5,2.5c-3.859,0-7,3.141-7,7s3.141,7,7,7
								c1.381,0,2.5,1.119,2.5,2.5v23.083C24.75,58.287,23.631,59.406,22.25,59.406z"/>
						</g>
					</g>
					<g>
						<g>
							<line fill="#D0D8C0" x1="11.5" y1="58.156" x2="31.75" y2="58.156"/>
						</g>
						<g>
							<path fill="#6D3E13" d="M31.75,60.656H11.5c-1.381,0-2.5-1.119-2.5-2.5s1.119-2.5,2.5-2.5h20.25c1.381,0,2.5,1.119,2.5,2.5
								S33.131,60.656,31.75,60.656z"/>
						</g>
					</g>
					<g>
						<g>
							<line fill="#D0D8C0" x1="8.75" y1="53.906" x2="8.75" y2="61.406"/>
						</g>
						<g>
							<path fill="#6D3E13" d="M8.75,63.906c-1.381,0-2.5-1.119-2.5-2.5v-7.5c0-1.381,1.119-2.5,2.5-2.5s2.5,1.119,2.5,2.5v7.5
								C11.25,62.787,10.131,63.906,8.75,63.906z"/>
						</g>
					</g>
				</g>
				<g>
					<g>
						<g>
							<path fill="#D0D8C0" d="M42.75,14.823c5.246,0,9.5,4.253,9.5,9.5s-4.254,9.5-9.5,9.5v23.083"/>
						</g>
						<g>
							<path fill="#6D3E13" d="M42.75,59.406c-1.381,0-2.5-1.119-2.5-2.5V33.823c0-1.381,1.119-2.5,2.5-2.5c3.859,0,7-3.141,7-7
								s-3.141-7-7-7c-1.381,0-2.5-1.119-2.5-2.5s1.119-2.5,2.5-2.5c6.617,0,12,5.383,12,12c0,5.76-4.08,10.585-9.5,11.738v20.845
								C45.25,58.287,44.131,59.406,42.75,59.406z"/>
						</g>
					</g>
					<g>
						<g>
							<line fill="#D0D8C0" x1="53.5" y1="58.156" x2="33.25" y2="58.156"/>
						</g>
						<g>
							<path fill="#6D3E13" d="M53.5,60.656H33.25c-1.381,0-2.5-1.119-2.5-2.5s1.119-2.5,2.5-2.5H53.5c1.381,0,2.5,1.119,2.5,2.5
								S54.881,60.656,53.5,60.656z"/>
						</g>
					</g>
					<g>
						<g>
							<line fill="#D0D8C0" x1="56.25" y1="53.906" x2="56.25" y2="61.406"/>
						</g>
						<g>
							<path fill="#6D3E13" d="M56.25,63.906c-1.381,0-2.5-1.119-2.5-2.5v-7.5c0-1.381,1.119-2.5,2.5-2.5s2.5,1.119,2.5,2.5v7.5
								C58.75,62.787,57.631,63.906,56.25,63.906z"/>
						</g>
					</g>
				</g>
			</g>
			<g>
				<g>
					<line fill="#D0D8C0" x1="32.5" y1="8.157" x2="32.5" y2="56.823"/>
				</g>
				<g>
					<path fill="#6D3E13" d="M32.5,59.323c-1.381,0-2.5-1.119-2.5-2.5V8.157c0-1.381,1.119-2.5,2.5-2.5s2.5,1.119,2.5,2.5v48.666
						C35,58.204,33.881,59.323,32.5,59.323z"/>
				</g>
			</g>
			<g>
				<g>
					<path fill="#6D3E13" d="M38.688,12.281c-0.64,0-1.279-0.244-1.768-0.732l-4.42-4.42l-4.42,4.42
						c-0.977,0.977-2.559,0.977-3.535,0s-0.977-2.559,0-3.535l6.188-6.188c0.977-0.977,2.559-0.977,3.535,0l6.188,6.188
						c0.977,0.977,0.977,2.559,0,3.535C39.967,12.037,39.327,12.281,38.688,12.281z"/>
				</g>
			</g>
		</g>
		<g>
			<g>
				<circle fill="#D0D8C0" cx="49.271" cy="40.293" r="1.063"/>
			</g>
			<g>
				<circle fill="#D0D8C0" cx="52.145" cy="43.166" r="1.063"/>
			</g>
			<g>
				<circle fill="#D0D8C0" cx="55.017" cy="46.039" r="1.062"/>
			</g>
		</g>
	</g>
</g>
<g id="nyt_x5F_exporter_x5F_info" display="none">
</g>
</svg>
