<?xml version="1.0" encoding="utf-8"?>
<!-- Generator: Adobe Illustrator 16.0.0, SVG Export Plug-In . SVG Version: 6.00 Build 0)  -->
<!DOCTYPE svg PUBLIC "-//W3C//DTD SVG 1.1//EN" "http://www.w3.org/Graphics/SVG/1.1/DTD/svg11.dtd">
<svg version="1.1" xmlns="http://www.w3.org/2000/svg" xmlns:xlink="http://www.w3.org/1999/xlink" x="0px" y="0px" width="65px"
	 height="65px" viewBox="0 0 65 65" enable-background="new 0 0 65 65" xml:space="preserve">
<g id="Layer_1">
	<g>
		<g>
			<g>
				<g>
					<polyline fill="#FFB600" points="25.429,23.021 32.5,15.95 39.572,23.021 					"/>
				</g>
				<g>
					<path fill="#2A5E91" d="M39.572,25.521c-0.64,0-1.279-0.244-1.769-0.732L32.5,19.485l-5.303,5.304
						c-0.977,0.977-2.559,0.977-3.536,0c-0.976-0.976-0.976-2.559,0-3.535l7.071-7.071c0.938-0.938,2.598-0.938,3.535,0l7.071,7.071
						c0.978,0.976,0.978,2.559,0,3.535C40.851,25.277,40.211,25.521,39.572,25.521z"/>
				</g>
			</g>
			<g>
				<g>
					<g>
						<g>
							<path fill="#FFB600" d="M13.576,62.021c0-4.126,3.345-7.47,7.471-7.47s7.47,3.344,7.47,7.47"/>
						</g>
						<g>
							<path fill="#2A5E91" d="M28.516,64.521c-1.381,0-2.5-1.119-2.5-2.5c0-2.74-2.229-4.97-4.97-4.97
								c-2.741,0-4.971,2.229-4.971,4.97c0,1.381-1.119,2.5-2.5,2.5c-1.382,0-2.5-1.119-2.5-2.5c0-5.497,4.473-9.97,9.971-9.97
								c5.497,0,9.97,4.473,9.97,9.97C31.016,63.402,29.897,64.521,28.516,64.521z"/>
						</g>
					</g>
					<g>
						<g>
							<path fill="#FFB600" d="M36.484,62.021c0-4.126,3.344-7.47,7.47-7.47s7.471,3.344,7.471,7.47"/>
						</g>
						<g>
							<path fill="#2A5E91" d="M51.424,64.521c-1.381,0-2.5-1.119-2.5-2.5c0-2.74-2.229-4.97-4.971-4.97
								c-2.74,0-4.97,2.229-4.97,4.97c0,1.381-1.119,2.5-2.5,2.5s-2.5-1.119-2.5-2.5c0-5.497,4.473-9.97,9.97-9.97
								c5.498,0,9.971,4.473,9.971,9.97C53.924,63.402,52.805,64.521,51.424,64.521z"/>
						</g>
					</g>
				</g>
				<g>
					<g>
						<path fill="#FFB600" d="M25.031,48.824c0-4.126,3.343-7.47,7.47-7.47c4.125,0,7.47,3.344,7.47,7.47"/>
					</g>
					<g>
						<path fill="#2A5E91" d="M39.97,51.324c-1.381,0-2.5-1.119-2.5-2.5c0-2.74-2.229-4.97-4.97-4.97s-4.97,2.229-4.97,4.97
							c0,1.381-1.12,2.5-2.5,2.5c-1.381,0-2.5-1.119-2.5-2.5c0-5.497,4.473-9.97,9.97-9.97s9.97,4.473,9.97,9.97
							C42.47,50.205,41.351,51.324,39.97,51.324z"/>
					</g>
				</g>
			</g>
			<g>
				<g>
					<line fill="#FFB600" x1="32.5" y1="13.354" x2="32.5" y2="40.021"/>
				</g>
				<g>
					<path fill="#2A5E91" d="M32.5,42.521c-1.381,0-2.5-1.119-2.5-2.5V13.354c0-1.381,1.119-2.5,2.5-2.5s2.5,1.119,2.5,2.5v26.667
						C35,41.402,33.88,42.521,32.5,42.521z"/>
				</g>
			</g>
			<g>
				<g>
					<polyline fill="#FFB600" points="25.429,10.021 32.5,2.95 39.572,10.021 					"/>
				</g>
				<g>
					<path fill="#2A5E91" d="M39.572,12.521c-0.64,0-1.279-0.244-1.769-0.732L32.5,6.485l-5.303,5.304
						c-0.977,0.977-2.559,0.977-3.536,0c-0.976-0.976-0.976-2.559,0-3.535l7.071-7.071c0.938-0.938,2.598-0.938,3.535,0l7.071,7.071
						c0.978,0.976,0.978,2.559,0,3.535C40.851,12.277,40.211,12.521,39.572,12.521z"/>
				</g>
			</g>
		</g>
		<g>
			<g>
				<circle fill="#2A5E91" cx="25.643" cy="29.625" r="1.062"/>
			</g>
			<g>
				<circle fill="#2A5E91" cx="25.643" cy="33.687" r="1.062"/>
			</g>
			<g>
				<circle fill="#2A5E91" cx="25.643" cy="37.75" r="1.062"/>
			</g>
		</g>
	</g>
</g>
<g id="nyt_x5F_exporter_x5F_info" display="none">
</g>
</svg>
