<?xml version="1.0" encoding="utf-8"?>
<!-- Generator: Adobe Illustrator 16.0.0, SVG Export Plug-In . SVG Version: 6.00 Build 0)  -->
<!DOCTYPE svg PUBLIC "-//W3C//DTD SVG 1.1//EN" "http://www.w3.org/Graphics/SVG/1.1/DTD/svg11.dtd">
<svg version="1.1" xmlns="http://www.w3.org/2000/svg" xmlns:xlink="http://www.w3.org/1999/xlink" x="0px" y="0px" width="65px"
	 height="65px" viewBox="0 0 65 65" enable-background="new 0 0 65 65" xml:space="preserve">
<g id="Layer_1">
	<g>
		<g>
			<g>
				<path fill="#B1BCB8" d="M52.403,37.466c4.664,0,8.445,3.782,8.445,8.447c0,4.664-3.781,8.447-8.445,8.447
					c-4.666,0-8.447-3.783-8.447-8.447"/>
			</g>
			<g>
				<path fill="#0071AA" d="M52.403,56.86c-6.036,0-10.947-4.911-10.947-10.947c0-1.381,1.119-2.5,2.5-2.5s2.5,1.119,2.5,2.5
					c0,3.279,2.668,5.947,5.947,5.947s5.945-2.668,5.945-5.947s-2.666-5.947-5.945-5.947c-1.381,0-2.5-1.119-2.5-2.5
					s1.119-2.5,2.5-2.5c6.035,0,10.945,4.911,10.945,10.947S58.438,56.86,52.403,56.86z"/>
			</g>
		</g>
		<g>
			<g>
				<path fill="#B1BCB8" d="M46.946,54.358c0,3.402-2.758,6.16-6.16,6.16"/>
			</g>
			<g>
				<path fill="#0071AA" d="M40.786,63.019c-1.381,0-2.5-1.119-2.5-2.5s1.119-2.5,2.5-2.5c2.018,0,3.66-1.642,3.66-3.66
					c0-1.381,1.119-2.5,2.5-2.5s2.5,1.119,2.5,2.5C49.446,59.134,45.562,63.019,40.786,63.019z"/>
			</g>
		</g>
		<g>
			<g>
				<g>
					<path fill="#32F9B1" d="M20.47,45.269V11.899c0-4.095,3.322-7.418,7.416-7.418h8.627c4.096,0,7.42,3.323,7.42,7.418v33.369"/>
				</g>
				<g>
					<path fill="#2FD4EA" d="M20.47,11.899c0-4.095,3.322-7.418,7.416-7.418h8.627c4.096,0,7.42,3.323,7.42,7.418v33.369"/>
				</g>
				<g>
					<path fill="#0071AA" d="M43.933,47.769c-1.381,0-2.5-1.119-2.5-2.5V11.899c0-2.712-2.207-4.918-4.92-4.918h-8.627
						c-2.711,0-4.916,2.206-4.916,4.918v33.369c0,1.381-1.119,2.5-2.5,2.5s-2.5-1.119-2.5-2.5V11.899
						c0-5.469,4.448-9.918,9.916-9.918h8.627c5.469,0,9.92,4.449,9.92,9.918v33.369C46.433,46.649,45.313,47.769,43.933,47.769z"/>
				</g>
			</g>
			<g>
				<g>
					<path fill="#B1BCB8" d="M4.151,11.899c0-4.095,3.322-7.418,7.416-7.418h1.236c4.094,0,7.416,3.323,7.416,7.418v33.369"/>
				</g>
				<g>
					<path fill="#C7D3CE" d="M4.151,11.899c0-4.095,3.322-7.418,7.416-7.418h1.236c4.094,0,7.416,3.323,7.416,7.418"/>
				</g>
				<g>
					<path fill="#0071AA" d="M20.22,47.769c-1.381,0-2.5-1.119-2.5-2.5V11.899c0-2.712-2.205-4.918-4.916-4.918h-1.236
						c-2.711,0-4.916,2.206-4.916,4.918c0,1.381-1.119,2.5-2.5,2.5s-2.5-1.119-2.5-2.5c0-5.469,4.449-9.918,9.916-9.918h1.236
						c5.468,0,9.916,4.449,9.916,9.918v33.369C22.72,46.649,21.601,47.769,20.22,47.769z"/>
				</g>
			</g>
		</g>
	</g>
</g>
<g id="nyt_x5F_exporter_x5F_info" display="none">
</g>
</svg>
