<?xml version="1.0" encoding="utf-8"?>
<!-- Generator: Adobe Illustrator 16.0.0, SVG Export Plug-In . SVG Version: 6.00 Build 0)  -->
<!DOCTYPE svg PUBLIC "-//W3C//DTD SVG 1.1//EN" "http://www.w3.org/Graphics/SVG/1.1/DTD/svg11.dtd">
<svg version="1.1" xmlns="http://www.w3.org/2000/svg" xmlns:xlink="http://www.w3.org/1999/xlink" x="0px" y="0px" width="65px"
	 height="65px" viewBox="0 0 65 65" enable-background="new 0 0 65 65" xml:space="preserve">
<g id="Layer_1">
	<g>
		<g>
			<g>
				<g>
					<g>
						<g>
							<line fill="#185EC4" x1="45.28" y1="19.719" x2="19.718" y2="45.282"/>
						</g>
						<g>
							<path fill="#0CD3E2" d="M19.718,47.782c-0.641,0-1.279-0.244-1.768-0.732c-0.977-0.976-0.977-2.559,0-3.535l25.562-25.563
								c0.977-0.977,2.559-0.977,3.535,0c0.977,0.976,0.977,2.559,0,3.535L21.485,47.05C20.997,47.538,20.356,47.782,19.718,47.782z
								"/>
						</g>
					</g>
					<g>
						<g>
							<g>
								<circle fill="#185EC4" cx="49.299" cy="15.701" r="7.746"/>
							</g>
							<g>
								<path fill="#0CD3E2" d="M49.299,25.948c-2.736,0-5.31-1.065-7.247-3.002c-3.992-3.994-3.992-10.494,0.002-14.49
									c1.936-1.937,4.509-3.003,7.246-3.003s5.311,1.066,7.245,3.004c3.993,3.996,3.993,10.496-0.001,14.489
									C54.608,24.883,52.034,25.948,49.299,25.948z M49.3,10.453c-1.401,0-2.719,0.546-3.711,1.538
									c-2.045,2.046-2.047,5.375-0.002,7.42c0.993,0.991,2.311,1.537,3.712,1.537c1.399,0,2.719-0.546,3.71-1.537
									c2.045-2.045,2.045-5.373-0.002-7.42C52.018,10.999,50.7,10.453,49.3,10.453z"/>
							</g>
						</g>
						<g>
							<g>
								<circle fill="#185EC4" cx="15.701" cy="49.299" r="7.746"/>
							</g>
							<g>
								<path fill="#0CD3E2" d="M15.701,59.547c-2.739,0-5.312-1.066-7.247-3.004c-3.993-3.994-3.993-10.494,0.002-14.489
									c1.936-1.937,4.508-3.002,7.246-3.002c2.737,0,5.309,1.066,7.244,3.003c1.936,1.934,3.002,4.507,3.002,7.244
									c0,2.736-1.065,5.311-3.002,7.245C21.011,58.48,18.438,59.547,15.701,59.547z M15.702,44.052
									c-1.402,0-2.721,0.546-3.711,1.537c-2.045,2.046-2.045,5.374,0,7.42c0.99,0.992,2.309,1.538,3.71,1.538
									c1.399,0,2.718-0.546,3.708-1.538c0.992-0.991,1.539-2.309,1.539-3.71s-0.547-2.718-1.539-3.709
									C18.419,44.598,17.103,44.052,15.702,44.052z"/>
							</g>
						</g>
					</g>
				</g>
				<g>
					<g>
						<g>
							<line fill="#185EC4" x1="45.282" y1="45.282" x2="19.718" y2="19.719"/>
						</g>
						<g>
							<path fill="#0CD3E2" d="M45.282,47.782c-0.639,0-1.279-0.244-1.768-0.732L17.95,21.486c-0.977-0.976-0.977-2.559,0-3.535
								s2.559-0.977,3.535,0L47.05,43.515c0.977,0.976,0.977,2.559,0,3.535C46.562,47.538,45.922,47.782,45.282,47.782z"/>
						</g>
					</g>
					<g>
						<g>
							<g>
								<circle fill="#185EC4" cx="49.298" cy="49.299" r="7.746"/>
							</g>
							<g>
								<path fill="#0CD3E2" d="M49.298,59.546c-2.738,0-5.311-1.066-7.246-3.002c-1.935-1.936-3-4.509-3-7.245
									c0-2.737,1.066-5.31,3.002-7.244c1.936-1.937,4.51-3.002,7.246-3.002c2.737,0,5.311,1.065,7.244,3.002
									c1.936,1.934,3.002,4.507,3.002,7.244c0,2.736-1.066,5.311-3.002,7.245C54.608,58.479,52.034,59.546,49.298,59.546z
									 M49.3,44.053c-1.401,0-2.719,0.546-3.711,1.537c-0.991,0.991-1.537,2.309-1.537,3.709c0,1.401,0.546,2.719,1.535,3.71
									c0.992,0.991,2.309,1.537,3.711,1.537c1.4,0,2.72-0.546,3.711-1.537c0.99-0.991,1.537-2.309,1.537-3.71
									s-0.547-2.718-1.539-3.709C52.018,44.598,50.701,44.053,49.3,44.053z"/>
							</g>
						</g>
						<g>
							<g>
								<path fill="#185EC4" d="M10.226,21.183c-3.027-3.029-3.027-7.933-0.002-10.959c3.025-3.027,7.93-3.025,10.955,0
									c3.026,3.028,3.026,7.932,0,10.957C18.153,24.206,13.247,24.206,10.226,21.183z"/>
							</g>
							<g>
								<path fill="#0CD3E2" d="M15.7,25.95c-2.736,0-5.309-1.065-7.242-3C4.462,18.953,4.462,12.451,8.454,8.456
									c1.936-1.936,4.508-3.002,7.246-3.002c2.736,0,5.311,1.065,7.246,3.002c3.994,3.998,3.994,10.499,0,14.492
									C21.011,24.884,18.437,25.95,15.7,25.95z M15.7,10.454c-1.401,0-2.719,0.546-3.711,1.537
									c-2.043,2.046-2.043,5.376,0.004,7.424c0.99,0.99,2.307,1.535,3.707,1.535s2.719-0.546,3.711-1.537
									c2.046-2.046,2.045-5.375-0.002-7.422C18.419,11,17.101,10.454,15.7,10.454z"/>
							</g>
						</g>
					</g>
				</g>
			</g>
			<g>
				<g>
					<line fill="#185EC4" x1="61.733" y1="32.499" x2="3.267" y2="32.501"/>
				</g>
				<g>
					<path fill="#0CD3E2" d="M3.267,35.001c-1.381,0-2.5-1.119-2.5-2.5s1.119-2.5,2.5-2.5l58.467-0.002c1.381,0,2.5,1.119,2.5,2.5
						s-1.119,2.5-2.5,2.5L3.267,35.001z"/>
				</g>
			</g>
			<g>
				<g>
					<line fill="#185EC4" x1="32.501" y1="61.733" x2="32.499" y2="3.267"/>
				</g>
				<g>
					<path fill="#0CD3E2" d="M32.501,64.233c-1.381,0-2.5-1.119-2.5-2.5L29.999,3.267c0-1.381,1.119-2.5,2.5-2.5s2.5,1.119,2.5,2.5
						l0.002,58.467C35.001,63.114,33.882,64.233,32.501,64.233z"/>
				</g>
			</g>
		</g>
		<g>
			<g>
				<circle fill="#185EC4" cx="32.5" cy="32.499" r="11.251"/>
			</g>
			<g>
				<path fill="#0CD3E2" d="M32.5,46.25c-7.582,0-13.751-6.169-13.751-13.751s6.169-13.75,13.751-13.75s13.751,6.168,13.751,13.75
					S40.082,46.25,32.5,46.25z M32.5,23.749c-4.825,0-8.751,3.925-8.751,8.75s3.926,8.751,8.751,8.751s8.751-3.926,8.751-8.751
					S37.325,23.749,32.5,23.749z"/>
			</g>
		</g>
	</g>
</g>
<g id="nyt_x5F_exporter_x5F_info" display="none">
</g>
</svg>
