<?xml version="1.0" encoding="utf-8"?>
<!-- Generator: Adobe Illustrator 16.0.0, SVG Export Plug-In . SVG Version: 6.00 Build 0)  -->
<!DOCTYPE svg PUBLIC "-//W3C//DTD SVG 1.1//EN" "http://www.w3.org/Graphics/SVG/1.1/DTD/svg11.dtd">
<svg version="1.1" xmlns="http://www.w3.org/2000/svg" xmlns:xlink="http://www.w3.org/1999/xlink" x="0px" y="0px" width="65px"
	 height="65px" viewBox="0 0 65 65" enable-background="new 0 0 65 65" xml:space="preserve">
<g id="Layer_1">
	<g>
		<g>
			<g>
				<g>
					<line fill="#185EC4" x1="47.607" y1="17.393" x2="17.391" y2="47.609"/>
				</g>
				<g>
					<path fill="#0CD3E2" d="M17.391,50.109c-0.641,0-1.279-0.244-1.768-0.732c-0.977-0.977-0.977-2.559,0-3.535L45.84,15.625
						c0.977-0.977,2.559-0.977,3.535,0s0.977,2.559,0,3.535L19.158,49.377C18.67,49.865,18.031,50.109,17.391,50.109z"/>
				</g>
			</g>
			<g>
				<g>
					<g>
						<circle fill="#185EC4" cx="52.355" cy="12.644" r="9.157"/>
					</g>
					<g>
						<path fill="#0CD3E2" d="M52.355,24.301c-3.113,0-6.039-1.213-8.242-3.414c-4.545-4.545-4.545-11.939,0-16.486
							c2.203-2.201,5.131-3.414,8.242-3.414c3.115,0,6.041,1.213,8.244,3.414c2.201,2.201,3.414,5.129,3.414,8.242
							s-1.213,6.041-3.416,8.244C58.395,23.088,55.469,24.301,52.355,24.301z M52.355,5.986c-1.777,0-3.449,0.691-4.707,1.949
							c-2.594,2.596-2.594,6.82,0,9.416c1.258,1.256,2.928,1.949,4.707,1.949s3.449-0.693,4.707-1.949
							c1.258-1.258,1.951-2.93,1.951-4.709c0-1.777-0.693-3.449-1.951-4.707S54.135,5.986,52.355,5.986z"/>
					</g>
				</g>
				<g>
					<g>
						<path fill="#185EC4" d="M19.117,58.83c-3.576,3.578-9.373,3.578-12.947,0c-3.578-3.576-3.578-9.373,0-12.947
							c3.574-3.578,9.371-3.578,12.947,0C22.695,49.457,22.695,55.254,19.117,58.83z"/>
					</g>
					<g>
						<path fill="#0CD3E2" d="M12.643,64.014c-3.113,0-6.039-1.213-8.242-3.416c-2.201-2.201-3.414-5.129-3.414-8.242
							s1.213-6.039,3.414-8.242c2.203-2.201,5.129-3.414,8.242-3.414s6.041,1.213,8.242,3.416c2.201,2.201,3.414,5.127,3.414,8.24
							s-1.213,6.041-3.414,8.242C18.684,62.801,15.756,64.014,12.643,64.014z M12.643,45.699c-1.777,0-3.447,0.693-4.705,1.951
							c-1.26,1.258-1.951,2.928-1.951,4.705s0.691,3.449,1.949,4.707c1.26,1.258,2.93,1.951,4.707,1.951s3.449-0.693,4.707-1.951
							s1.949-2.93,1.949-4.707s-0.691-3.447-1.949-4.705S14.42,45.699,12.643,45.699z"/>
					</g>
				</g>
			</g>
		</g>
		<g>
			<g>
				<g>
					<line fill="#185EC4" x1="47.607" y1="47.609" x2="17.391" y2="17.393"/>
				</g>
				<g>
					<path fill="#0CD3E2" d="M47.607,50.109c-0.641,0-1.279-0.244-1.768-0.732L15.623,19.16c-0.977-0.977-0.977-2.559,0-3.535
						s2.559-0.977,3.535,0l30.217,30.217c0.977,0.977,0.977,2.559,0,3.535C48.887,49.865,48.246,50.109,47.607,50.109z"/>
				</g>
			</g>
			<g>
				<g>
					<g>
						<circle fill="#185EC4" cx="52.355" cy="52.357" r="9.156"/>
					</g>
					<g>
						<path fill="#0CD3E2" d="M52.355,64.014c-3.111,0-6.039-1.213-8.242-3.414c-2.201-2.203-3.416-5.131-3.416-8.244
							s1.215-6.039,3.416-8.24c2.203-2.203,5.131-3.416,8.242-3.416c3.115,0,6.041,1.213,8.244,3.416
							c2.201,2.201,3.414,5.127,3.414,8.24s-1.213,6.041-3.416,8.244C58.396,62.801,55.471,64.014,52.355,64.014z M52.355,45.699
							c-1.777,0-3.449,0.693-4.707,1.951c-1.256,1.258-1.951,2.928-1.951,4.705c0,1.779,0.695,3.451,1.951,4.709
							c1.258,1.256,2.93,1.949,4.707,1.949c1.779,0,3.449-0.693,4.707-1.949c1.258-1.258,1.951-2.93,1.951-4.709
							c0-1.777-0.693-3.447-1.951-4.705S54.135,45.699,52.355,45.699z"/>
					</g>
				</g>
				<g>
					<g>
						<path fill="#185EC4" d="M6.17,19.119C2.592,15.541,2.592,9.744,6.166,6.168c3.578-3.576,9.375-3.576,12.951,0
							c3.578,3.578,3.578,9.375,0,12.951C15.541,22.695,9.744,22.695,6.17,19.119z"/>
					</g>
					<g>
						<path fill="#0CD3E2" d="M12.643,24.301c-3.113,0-6.039-1.213-8.242-3.414C-0.145,16.342-0.145,8.945,4.4,4.4
							c2.201-2.201,5.129-3.414,8.242-3.414s6.041,1.213,8.244,3.414c4.545,4.547,4.545,11.941,0,16.486
							C18.684,23.088,15.756,24.301,12.643,24.301z M12.643,5.986c-1.777,0-3.451,0.691-4.707,1.949
							c-2.596,2.596-2.594,6.82,0,9.416c1.26,1.256,2.93,1.949,4.707,1.949c1.779,0,3.451-0.693,4.709-1.949
							c2.594-2.596,2.594-6.82,0-9.416C16.094,6.678,14.422,5.986,12.643,5.986z"/>
					</g>
				</g>
			</g>
		</g>
	</g>
</g>
<g id="nyt_x5F_exporter_x5F_info" display="none">
</g>
</svg>
