<?xml version="1.0" encoding="utf-8"?>
<!-- Generator: Adobe Illustrator 16.0.0, SVG Export Plug-In . SVG Version: 6.00 Build 0)  -->
<!DOCTYPE svg PUBLIC "-//W3C//DTD SVG 1.1//EN" "http://www.w3.org/Graphics/SVG/1.1/DTD/svg11.dtd">
<svg version="1.1" xmlns="http://www.w3.org/2000/svg" xmlns:xlink="http://www.w3.org/1999/xlink" x="0px" y="0px" width="65px"
	 height="65px" viewBox="0 0 65 65" enable-background="new 0 0 65 65" xml:space="preserve">
<g id="Layer_1">
	<g>
		<g>
			<g>
				<g>
					<circle fill="#B5FF40" cx="32.501" cy="36.195" r="11.296"/>
				</g>
				<g>
					<path fill="#3EE02D" d="M32.501,24.898c6.239,0,11.297,5.058,11.297,11.297S38.74,47.491,32.501,47.491"/>
				</g>
				<g>
					<path fill="#126889" d="M32.501,49.991c-7.607,0-13.796-6.188-13.796-13.796s6.188-13.797,13.796-13.797
						s13.797,6.189,13.797,13.797S40.108,49.991,32.501,49.991z M32.501,27.398c-4.85,0-8.796,3.946-8.796,8.797
						c0,4.85,3.946,8.796,8.796,8.796c4.851,0,8.797-3.946,8.797-8.796C41.298,31.345,37.352,27.398,32.501,27.398z"/>
				</g>
			</g>
			<g>
				<g>
					<circle fill="#FFC545" cx="32.501" cy="10.333" r="6.75"/>
				</g>
				<g>
					<path fill="#0F7CCE" d="M32.501,19.583c-5.101,0-9.25-4.149-9.25-9.25c0-5.1,4.149-9.249,9.25-9.249
						c5.1,0,9.25,4.149,9.25,9.249C41.751,15.434,37.601,19.583,32.501,19.583z M32.501,6.084c-2.344,0-4.25,1.906-4.25,4.249
						c0,2.344,1.906,4.25,4.25,4.25s4.25-1.906,4.25-4.25C36.751,7.99,34.845,6.084,32.501,6.084z"/>
				</g>
			</g>
			<g>
				<g>
					<g>
						<circle fill="#FFC545" cx="12.323" cy="54.666" r="6.75"/>
					</g>
					<g>
						<path fill="#0F7CCE" d="M12.323,63.916c-5.1,0-9.25-4.149-9.25-9.25c0-5.1,4.15-9.249,9.25-9.249s9.249,4.149,9.249,9.249
							C21.572,59.767,17.423,63.916,12.323,63.916z M12.323,50.417c-2.343,0-4.25,1.906-4.25,4.249c0,2.344,1.907,4.25,4.25,4.25
							s4.249-1.906,4.249-4.25C16.572,52.323,14.666,50.417,12.323,50.417z"/>
					</g>
				</g>
				<g>
					<g>
						<circle fill="#FFC545" cx="52.677" cy="54.666" r="6.75"/>
					</g>
					<g>
						<path fill="#0F7CCE" d="M52.678,63.916c-5.101,0-9.251-4.149-9.251-9.25c0-5.1,4.15-9.249,9.251-9.249
							s9.249,4.149,9.249,9.249C61.927,59.767,57.778,63.916,52.678,63.916z M52.678,50.417c-2.344,0-4.251,1.906-4.251,4.249
							c0,2.344,1.907,4.25,4.251,4.25c2.343,0,4.249-1.906,4.249-4.25C56.927,52.323,55.021,50.417,52.678,50.417z"/>
					</g>
				</g>
			</g>
		</g>
		<g>
			<g>
				<g>
					<circle fill="#0F7CCE" cx="28.439" cy="36.194" r="1.063"/>
				</g>
				<g>
					<circle fill="#0F7CCE" cx="32.501" cy="36.194" r="1.063"/>
				</g>
				<g>
					<circle fill="#0F7CCE" cx="36.564" cy="36.194" r="1.062"/>
				</g>
			</g>
			<g>
				<g>
					<circle fill="#0F7CCE" cx="32.502" cy="32.132" r="1.062"/>
				</g>
				<g>
					<circle fill="#0F7CCE" cx="32.502" cy="36.194" r="1.062"/>
				</g>
				<g>
					<circle fill="#0F7CCE" cx="32.502" cy="40.257" r="1.062"/>
				</g>
			</g>
		</g>
	</g>
</g>
<g id="nyt_x5F_exporter_x5F_info" display="none">
</g>
</svg>
