<?xml version="1.0" encoding="utf-8"?>
<!-- Generator: Adobe Illustrator 16.0.0, SVG Export Plug-In . SVG Version: 6.00 Build 0)  -->
<!DOCTYPE svg PUBLIC "-//W3C//DTD SVG 1.1//EN" "http://www.w3.org/Graphics/SVG/1.1/DTD/svg11.dtd">
<svg version="1.1" xmlns="http://www.w3.org/2000/svg" xmlns:xlink="http://www.w3.org/1999/xlink" x="0px" y="0px" width="65px"
	 height="65px" viewBox="0 0 65 65" enable-background="new 0 0 65 65" xml:space="preserve">
<g id="Layer_1">
	<g>
		<g>
			<g>
				<g>
					<g>
						<polygon fill="#E4E892" points="16.167,10.385 2.935,23.615 19.269,23.615 24.333,18.551 						"/>
					</g>
					<g>
						<path fill="#FF9100" d="M19.269,26.115H2.935c-1.012,0-1.924-0.609-2.31-1.543c-0.388-0.935-0.173-2.01,0.542-2.725
							l13.232-13.23c0.977-0.977,2.559-0.977,3.535,0l8.166,8.166c0.469,0.469,0.732,1.104,0.732,1.768s-0.264,1.299-0.732,1.768
							l-5.064,5.064C20.567,25.852,19.933,26.115,19.269,26.115z M8.971,21.115h9.263l2.564-2.564l-4.631-4.631L8.971,21.115z"/>
					</g>
				</g>
				<g>
					<g>
						<polygon fill="#5BF486" points="32.501,10.385 24.333,18.551 29.399,23.615 35.601,23.615 40.667,18.551 						"/>
					</g>
					<g>
						<path fill="#FF9100" d="M35.601,26.115h-6.201c-0.663,0-1.299-0.264-1.768-0.731l-5.066-5.064
							c-0.469-0.47-0.732-1.105-0.732-1.769s0.264-1.299,0.732-1.768l8.168-8.166c0.977-0.977,2.559-0.977,3.535,0l8.166,8.166
							c0.469,0.469,0.732,1.104,0.732,1.768s-0.264,1.299-0.732,1.769l-5.066,5.064C36.899,25.852,36.264,26.115,35.601,26.115z
							 M30.435,21.115h4.131l2.565-2.564l-4.63-4.631l-4.632,4.631L30.435,21.115z"/>
					</g>
				</g>
				<g>
					<g>
						<polygon fill="#E4E892" points="48.833,10.385 40.667,18.551 45.733,23.615 62.065,23.615 						"/>
					</g>
					<g>
						<path fill="#FF9100" d="M62.065,26.115H45.733c-0.664,0-1.299-0.264-1.768-0.731l-5.066-5.064
							c-0.469-0.47-0.732-1.105-0.732-1.769s0.264-1.299,0.732-1.768l8.166-8.166c0.977-0.977,2.559-0.977,3.535,0l13.232,13.23
							c0.715,0.715,0.929,1.79,0.541,2.725C63.988,25.506,63.076,26.115,62.065,26.115z M46.769,21.115h9.26l-7.195-7.195
							l-4.631,4.631L46.769,21.115z"/>
					</g>
				</g>
			</g>
			<g>
				<g>
					<g>
						<polygon fill="#E4E892" points="48.833,54.615 62.065,41.385 45.733,41.385 40.667,46.449 						"/>
					</g>
					<g>
						<path fill="#FF9100" d="M48.833,57.115c-0.641,0-1.279-0.244-1.768-0.732l-8.166-8.166c-0.469-0.469-0.732-1.104-0.732-1.768
							s0.264-1.299,0.732-1.769l5.066-5.064c0.469-0.468,1.104-0.731,1.768-0.731h16.332c1.011,0,1.923,0.609,2.309,1.543
							c0.388,0.935,0.174,2.01-0.541,2.725l-13.232,13.23C50.112,56.871,49.474,57.115,48.833,57.115z M44.202,46.449l4.631,4.631
							l7.195-7.195h-9.26L44.202,46.449z"/>
					</g>
				</g>
				<g>
					<g>
						<polygon fill="#5BF486" points="32.501,54.615 40.667,46.449 35.601,41.385 29.399,41.385 24.333,46.449 						"/>
					</g>
					<g>
						<path fill="#FF9100" d="M32.501,57.115c-0.641,0-1.279-0.244-1.768-0.732l-8.168-8.166c-0.469-0.469-0.732-1.104-0.732-1.768
							s0.264-1.299,0.732-1.769l5.066-5.064c0.469-0.468,1.104-0.731,1.768-0.731h6.201c0.663,0,1.299,0.264,1.768,0.731
							l5.066,5.064c0.469,0.47,0.732,1.105,0.732,1.769s-0.264,1.299-0.732,1.768l-8.166,8.166
							C33.78,56.871,33.142,57.115,32.501,57.115z M27.869,46.449l4.632,4.631l4.63-4.631l-2.565-2.564h-4.131L27.869,46.449z"/>
					</g>
				</g>
				<g>
					<g>
						<polygon fill="#E4E892" points="16.167,54.615 24.333,46.449 19.269,41.385 2.935,41.385 						"/>
					</g>
					<g>
						<path fill="#FF9100" d="M16.167,57.115c-0.64,0-1.279-0.244-1.768-0.732L1.167,43.152c-0.715-0.715-0.93-1.79-0.542-2.725
							c0.386-0.934,1.298-1.543,2.31-1.543h16.334c0.664,0,1.299,0.264,1.768,0.732l5.064,5.064
							c0.469,0.469,0.732,1.104,0.732,1.768s-0.264,1.299-0.732,1.768l-8.166,8.166C17.446,56.871,16.808,57.115,16.167,57.115z
							 M8.971,43.885l7.196,7.195l4.631-4.631l-2.564-2.564H8.971z"/>
					</g>
				</g>
			</g>
		</g>
		<g>
			<g>
				<line fill="#5BF486" x1="15.333" y1="32.5" x2="49.667" y2="32.5"/>
			</g>
			<g>
				<path fill="#FF9100" d="M49.667,35H15.333c-1.381,0-2.5-1.119-2.5-2.5s1.119-2.5,2.5-2.5h34.334c1.381,0,2.5,1.119,2.5,2.5
					S51.048,35,49.667,35z"/>
			</g>
		</g>
	</g>
</g>
<g id="nyt_x5F_exporter_x5F_info" display="none">
</g>
</svg>
