<?xml version="1.0" encoding="utf-8"?>
<!-- Generator: Adobe Illustrator 16.0.0, SVG Export Plug-In . SVG Version: 6.00 Build 0)  -->
<!DOCTYPE svg PUBLIC "-//W3C//DTD SVG 1.1//EN" "http://www.w3.org/Graphics/SVG/1.1/DTD/svg11.dtd">
<svg version="1.1" xmlns="http://www.w3.org/2000/svg" xmlns:xlink="http://www.w3.org/1999/xlink" x="0px" y="0px" width="65px"
	 height="65px" viewBox="0 0 65 65" enable-background="new 0 0 65 65" xml:space="preserve">
<g id="Layer_1">
	<g>
		<g>
			<g>
				<g>
					<g>
						<g>
							<polyline fill="#FF4382" points="3.427,17.305 9.696,17.305 9.696,8.383 17.441,8.383 17.441,12.723 							"/>
						</g>
						<g>
							<path fill="#59264D" d="M9.696,19.731h-6.27C2.086,19.731,1,18.645,1,17.305s1.086-2.428,2.427-2.428H7.27V8.383
								c0-1.341,1.086-2.428,2.427-2.428h7.745c1.34,0,2.427,1.087,2.427,2.428v4.34c0,1.341-1.087,2.427-2.427,2.427
								c-1.341,0-2.427-1.086-2.427-2.427V10.81h-2.891v6.495C12.123,18.645,11.037,19.731,9.696,19.731z"/>
						</g>
					</g>
					<g>
						<g>
							<polyline fill="#FF4382" points="18.137,17.305 24.406,17.305 24.406,8.383 32.151,8.383 32.151,12.723 							"/>
						</g>
						<g>
							<path fill="#59264D" d="M24.406,19.731h-6.27c-1.34,0-2.426-1.087-2.426-2.427s1.086-2.428,2.426-2.428h3.843V8.383
								c0-1.341,1.086-2.428,2.426-2.428h7.745c1.341,0,2.427,1.087,2.427,2.428v4.34c0,1.341-1.086,2.427-2.427,2.427
								c-1.34,0-2.427-1.086-2.427-2.427V10.81h-2.891v6.495C26.833,18.645,25.747,19.731,24.406,19.731z"/>
						</g>
					</g>
					<g>
						<g>
							<polyline fill="#FF4382" points="32.847,17.305 39.117,17.305 39.117,8.383 46.861,8.383 46.861,12.723 							"/>
						</g>
						<g>
							<path fill="#59264D" d="M39.117,19.731h-6.27c-1.341,0-2.427-1.087-2.427-2.427s1.086-2.428,2.427-2.428h3.843V8.383
								c0-1.341,1.086-2.428,2.427-2.428h7.745c1.34,0,2.427,1.087,2.427,2.428v4.34c0,1.341-1.086,2.427-2.427,2.427
								s-2.427-1.086-2.427-2.427V10.81h-2.891v6.495C41.543,18.645,40.457,19.731,39.117,19.731z"/>
						</g>
					</g>
					<g>
						<g>
							<polyline fill="#FF4382" points="47.557,17.305 53.827,17.305 53.827,8.383 61.572,8.383 61.572,12.723 							"/>
						</g>
						<g>
							<path fill="#59264D" d="M53.827,19.731h-6.27c-1.34,0-2.427-1.087-2.427-2.427s1.086-2.428,2.427-2.428H51.4V8.383
								c0-1.341,1.086-2.428,2.426-2.428h7.746c1.34,0,2.427,1.087,2.427,2.428v4.34c0,1.341-1.086,2.427-2.427,2.427
								s-2.427-1.086-2.427-2.427V10.81h-2.892v6.495C56.253,18.645,55.167,19.731,53.827,19.731z"/>
						</g>
					</g>
				</g>
				<g>
					<g>
						<g>
							<polyline fill="#FF4382" points="61.573,47.695 55.304,47.695 55.304,56.617 47.559,56.617 47.559,52.276 							"/>
						</g>
						<g>
							<path fill="#59264D" d="M55.304,59.045h-7.745c-1.34,0-2.427-1.087-2.427-2.428v-4.341c0-1.341,1.087-2.427,2.427-2.427
								c1.341,0,2.427,1.086,2.427,2.427v1.914h2.891v-6.495c0-1.34,1.086-2.427,2.427-2.427h6.27c1.34,0,2.427,1.087,2.427,2.427
								s-1.086,2.428-2.427,2.428H57.73v6.494C57.73,57.958,56.644,59.045,55.304,59.045z"/>
						</g>
					</g>
					<g>
						<g>
							<polyline fill="#FF4382" points="46.863,47.695 40.594,47.695 40.594,56.617 32.849,56.617 32.849,52.277 							"/>
						</g>
						<g>
							<path fill="#59264D" d="M40.594,59.045h-7.745c-1.341,0-2.427-1.087-2.427-2.428v-4.34c0-1.341,1.086-2.427,2.427-2.427
								c1.34,0,2.427,1.086,2.427,2.427v1.913h2.891v-6.495c0-1.34,1.086-2.427,2.427-2.427h6.27c1.34,0,2.427,1.087,2.427,2.427
								s-1.086,2.428-2.427,2.428H43.02v6.494C43.02,57.958,41.934,59.045,40.594,59.045z"/>
						</g>
					</g>
					<g>
						<g>
							<polyline fill="#FF4382" points="32.153,47.695 25.883,47.695 25.883,56.617 18.139,56.617 18.139,52.277 							"/>
						</g>
						<g>
							<path fill="#59264D" d="M25.883,59.045h-7.745c-1.34,0-2.427-1.087-2.427-2.428v-4.34c0-1.341,1.086-2.427,2.427-2.427
								s2.427,1.086,2.427,2.427v1.913h2.891v-6.495c0-1.34,1.086-2.427,2.427-2.427h6.27c1.341,0,2.427,1.087,2.427,2.427
								s-1.086,2.428-2.427,2.428H28.31v6.494C28.31,57.958,27.224,59.045,25.883,59.045z"/>
						</g>
					</g>
					<g>
						<g>
							<polyline fill="#FF4382" points="17.443,47.695 11.173,47.695 11.173,56.617 3.427,56.617 3.427,52.277 							"/>
						</g>
						<g>
							<path fill="#59264D" d="M11.173,59.045H3.427C2.086,59.045,1,57.958,1,56.617v-4.34c0-1.341,1.086-2.427,2.427-2.427
								s2.427,1.086,2.427,2.427v1.913h2.893v-6.495c0-1.34,1.086-2.427,2.427-2.427h6.27c1.34,0,2.427,1.087,2.427,2.427
								s-1.086,2.428-2.427,2.428H13.6v6.494C13.6,57.958,12.514,59.045,11.173,59.045z"/>
						</g>
					</g>
				</g>
			</g>
		</g>
		<g>
			<g>
				<g>
					<line fill="#45FFE0" x1="7.019" y1="27.404" x2="57.981" y2="27.404"/>
				</g>
				<g>
					<path fill="#59264D" d="M57.981,29.83H7.019c-1.34,0-2.426-1.086-2.426-2.426c0-1.341,1.086-2.428,2.426-2.428h50.962
						c1.34,0,2.426,1.087,2.426,2.428C60.407,28.744,59.321,29.83,57.981,29.83z"/>
				</g>
			</g>
			<g>
				<g>
					<line fill="#45FFE0" x1="7.019" y1="37.596" x2="57.981" y2="37.596"/>
				</g>
				<g>
					<path fill="#59264D" d="M57.981,40.023H7.019c-1.34,0-2.426-1.087-2.426-2.428c0-1.34,1.086-2.426,2.426-2.426h50.962
						c1.34,0,2.426,1.086,2.426,2.426C60.407,38.937,59.321,40.023,57.981,40.023z"/>
				</g>
			</g>
		</g>
	</g>
</g>
<g id="nyt_x5F_exporter_x5F_info" display="none">
</g>
</svg>
