<?xml version="1.0" encoding="utf-8"?>
<!-- Generator: Adobe Illustrator 16.0.0, SVG Export Plug-In . SVG Version: 6.00 Build 0)  -->
<!DOCTYPE svg PUBLIC "-//W3C//DTD SVG 1.1//EN" "http://www.w3.org/Graphics/SVG/1.1/DTD/svg11.dtd">
<svg version="1.1" xmlns="http://www.w3.org/2000/svg" xmlns:xlink="http://www.w3.org/1999/xlink" x="0px" y="0px" width="65px"
	 height="65px" viewBox="0 0 65 65" enable-background="new 0 0 65 65" xml:space="preserve">
<g id="Layer_1">
	<g>
		<g>
			<g>
				<g>
					<polygon fill="#E4E892" points="40.368,27.904 44.962,32.5 53.219,24.247 32.5,3.532 11.781,24.247 20.037,32.501 
						24.635,27.904 					"/>
				</g>
				<g>
					<path fill="#FF9100" d="M20.037,35.001c-0.64,0-1.279-0.244-1.769-0.732l-8.255-8.254c-0.469-0.469-0.732-1.104-0.732-1.768
						s0.264-1.299,0.732-1.768L30.732,1.765c0.977-0.977,2.558-0.977,3.535,0l20.718,20.715c0.469,0.469,0.733,1.104,0.733,1.768
						s-0.265,1.299-0.733,1.769l-8.255,8.253c-0.977,0.975-2.56,0.976-3.535-0.001l-3.863-3.863H25.67l-3.866,3.864
						C21.316,34.757,20.677,35.001,20.037,35.001z M15.317,24.247l4.72,4.719l2.829-2.829c0.469-0.469,1.105-0.732,1.769-0.732
						h15.733c0.662,0,1.298,0.264,1.767,0.732l2.827,2.828l4.721-4.718L32.5,7.067L15.317,24.247z"/>
				</g>
			</g>
			<g>
				<g>
					<polygon fill="#E4E892" points="40.365,37.095 24.633,37.095 20.037,32.501 11.783,40.753 32.5,61.468 53.219,40.753 
						44.962,32.5 					"/>
				</g>
				<g>
					<path fill="#FF9100" d="M32.5,63.968c-0.64,0-1.28-0.244-1.768-0.732L10.017,42.521c-0.47-0.469-0.734-1.104-0.734-1.768
						s0.265-1.299,0.734-1.768l8.252-8.252c0.977-0.977,2.56-0.976,3.535-0.001l3.865,3.862h13.66l3.866-3.863
						c0.976-0.975,2.559-0.975,3.535,0l8.255,8.253c0.469,0.47,0.733,1.105,0.733,1.769s-0.265,1.299-0.733,1.768L34.268,63.235
						C33.779,63.724,33.14,63.968,32.5,63.968z M15.319,40.753L32.5,57.933l17.183-17.18l-4.721-4.719l-2.83,2.829
						c-0.469,0.469-1.104,0.731-1.767,0.731H24.633c-0.663,0-1.299-0.264-1.768-0.731l-2.828-2.827L15.319,40.753z"/>
				</g>
			</g>
			<g>
				<g>
					<polygon fill="#5BF486" points="40.365,37.095 44.962,32.5 40.368,27.904 24.635,27.904 20.037,32.501 24.633,37.095 					"/>
				</g>
				<g>
					<path fill="#FF9100" d="M40.365,39.595H24.633c-0.663,0-1.299-0.264-1.768-0.731l-4.597-4.594
						c-0.467-0.47-0.731-1.105-0.731-1.769s0.265-1.299,0.731-1.768l4.598-4.597c0.469-0.469,1.105-0.732,1.769-0.732h15.733
						c0.662,0,1.298,0.264,1.767,0.732l4.596,4.596c0.469,0.469,0.731,1.104,0.731,1.768c0,0.664-0.263,1.3-0.731,1.769
						l-4.599,4.595C41.663,39.332,41.028,39.595,40.365,39.595z M25.669,34.595h13.66l2.098-2.096l-2.095-2.095H25.67l-2.097,2.097
						L25.669,34.595z"/>
				</g>
			</g>
		</g>
		<g>
			<g>
				<g>
					<line fill="#E4E892" x1="32.5" y1="18" x2="32.5" y2="27"/>
				</g>
				<g>
					<path fill="#FF9100" d="M32.5,29.5c-1.382,0-2.501-1.119-2.501-2.5v-9c0-1.381,1.119-2.5,2.501-2.5
						c1.381,0,2.499,1.119,2.499,2.5v9C34.999,28.381,33.881,29.5,32.5,29.5z"/>
				</g>
			</g>
			<g>
				<g>
					<line fill="#E4E892" x1="32.5" y1="38" x2="32.5" y2="47"/>
				</g>
				<g>
					<path fill="#FF9100" d="M32.5,49.5c-1.382,0-2.501-1.119-2.501-2.5v-9c0-1.381,1.119-2.5,2.501-2.5
						c1.381,0,2.499,1.119,2.499,2.5v9C34.999,48.381,33.881,49.5,32.5,49.5z"/>
				</g>
			</g>
		</g>
	</g>
</g>
<g id="nyt_x5F_exporter_x5F_info" display="none">
</g>
</svg>
