<?xml version="1.0" encoding="utf-8"?>
<!-- Generator: Adobe Illustrator 16.0.0, SVG Export Plug-In . SVG Version: 6.00 Build 0)  -->
<!DOCTYPE svg PUBLIC "-//W3C//DTD SVG 1.1//EN" "http://www.w3.org/Graphics/SVG/1.1/DTD/svg11.dtd">
<svg version="1.1" xmlns="http://www.w3.org/2000/svg" xmlns:xlink="http://www.w3.org/1999/xlink" x="0px" y="0px" width="65px"
	 height="65px" viewBox="0 0 65 65" enable-background="new 0 0 65 65" xml:space="preserve">
<g id="Layer_1">
	<g>
		<g>
			<g>
				<g>
					<path fill="#E8DDAF" d="M61.447,32.501c0,15.987-12.96,28.946-28.947,28.946c-15.986,0-28.948-12.959-28.948-28.946
						C3.552,16.51,16.514,3.553,32.5,3.553C48.487,3.553,61.447,16.51,61.447,32.501z"/>
				</g>
				<g>
					<path fill="#E2D498" d="M32.5,3.553c15.987,0,28.947,12.957,28.947,28.948c0,15.987-12.96,28.946-28.947,28.946"/>
				</g>
				<g>
					<path fill="#FF6510" d="M32.5,63.947c-17.34,0-31.448-14.106-31.448-31.446C1.052,15.16,15.16,1.053,32.5,1.053
						c17.341,0,31.447,14.107,31.447,31.448C63.947,49.841,49.841,63.947,32.5,63.947z M32.5,6.053
						c-14.584,0-26.448,11.864-26.448,26.448c0,14.583,11.864,26.446,26.448,26.446s26.447-11.863,26.447-26.446
						C58.947,17.917,47.084,6.053,32.5,6.053z"/>
				</g>
			</g>
			<g>
				<g>
					<line fill="#27C4CC" x1="32.5" y1="3.005" x2="32.5" y2="61.995"/>
				</g>
				<g>
					<path fill="#FF9D00" d="M34.268,63.764c-0.451,0.452-1.076,0.731-1.768,0.731c-1.381,0-2.5-1.118-2.5-2.499V3.005
						c0-1.381,1.118-2.5,2.5-2.5c1.381,0,2.5,1.119,2.5,2.5v58.99C35,62.687,34.72,63.311,34.268,63.764z"/>
				</g>
			</g>
			<g>
				<g>
					<line fill="#27C4CC" x1="61.995" y1="32.5" x2="3.005" y2="32.5"/>
				</g>
				<g>
					<path fill="#FF9D00" d="M1.236,34.268C0.783,33.815,0.505,33.19,0.505,32.5c0-1.381,1.118-2.5,2.499-2.5h58.991
						c1.381,0,2.5,1.118,2.5,2.5c0,1.381-1.119,2.5-2.5,2.5H3.005C2.314,35,1.689,34.72,1.236,34.268z"/>
				</g>
			</g>
		</g>
		<g>
			<g>
				<circle fill="#E8DDAF" cx="40.252" cy="40.521" r="1.062"/>
			</g>
			<g>
				<circle fill="#E8DDAF" cx="40.252" cy="44.583" r="1.062"/>
			</g>
			<g>
				<circle fill="#E8DDAF" cx="40.252" cy="48.646" r="1.062"/>
			</g>
		</g>
	</g>
</g>
<g id="nyt_x5F_exporter_x5F_info" display="none">
</g>
</svg>
