<?xml version="1.0" encoding="utf-8"?>
<!-- Generator: Adobe Illustrator 16.0.0, SVG Export Plug-In . SVG Version: 6.00 Build 0)  -->
<!DOCTYPE svg PUBLIC "-//W3C//DTD SVG 1.1//EN" "http://www.w3.org/Graphics/SVG/1.1/DTD/svg11.dtd">
<svg version="1.1" xmlns="http://www.w3.org/2000/svg" xmlns:xlink="http://www.w3.org/1999/xlink" x="0px" y="0px" width="65px"
	 height="65px" viewBox="0 0 65 65" enable-background="new 0 0 65 65" xml:space="preserve">
<g id="Layer_1">
	<g>
		<g>
			<g>
				<circle fill="#19CBF4" cx="8.811" cy="41.771" r="1.062"/>
			</g>
			<g>
				<circle fill="#19CBF4" cx="8.811" cy="45.833" r="1.062"/>
			</g>
			<g>
				<circle fill="#19CBF4" cx="8.811" cy="49.896" r="1.062"/>
			</g>
		</g>
		<g>
			<g>
				<g>
					<g>
						<g>
							<path fill="#646B68" d="M32.5,19.77c-9.482,0-17.752,5.121-22.258,12.73c4.506,7.609,12.775,12.73,22.258,12.73
								c9.484,0,17.754-5.121,22.258-12.73C50.254,24.891,41.984,19.77,32.5,19.77z"/>
						</g>
						<g>
							<path fill="#4A5450" d="M10.242,32.5c4.506,7.609,12.775,12.73,22.258,12.73c9.484,0,17.754-5.121,22.258-12.73"/>
						</g>
						<g>
							<path fill="#0F261E" d="M32.5,47.73c-9.959,0-19.312-5.348-24.408-13.957c-0.465-0.785-0.465-1.762,0-2.547
								C13.188,22.617,22.541,17.27,32.5,17.27s19.312,5.348,24.41,13.957c0.465,0.785,0.465,1.762,0,2.547
								C51.812,42.383,42.459,47.73,32.5,47.73z M13.205,32.5c4.336,6.346,11.598,10.23,19.295,10.23
								c7.699,0,14.961-3.885,19.297-10.23C47.461,26.154,40.199,22.27,32.5,22.27C24.803,22.27,17.541,26.154,13.205,32.5z"/>
						</g>
					</g>
					<g>
						<g>
							<g>
								<line fill="#4A5450" x1="2.988" y1="32.5" x2="10.395" y2="32.5"/>
							</g>
							<g>
								<path fill="#0F261E" d="M10.395,35H2.988c-1.381,0-2.5-1.119-2.5-2.5s1.119-2.5,2.5-2.5h7.406c1.381,0,2.5,1.119,2.5,2.5
									S11.775,35,10.395,35z"/>
							</g>
						</g>
						<g>
							<g>
								<line fill="#4A5450" x1="54.604" y1="32.5" x2="62.012" y2="32.5"/>
							</g>
							<g>
								<path fill="#0F261E" d="M62.012,35h-7.408c-1.381,0-2.5-1.119-2.5-2.5s1.119-2.5,2.5-2.5h7.408c1.383,0,2.5,1.119,2.5,2.5
									S63.395,35,62.012,35z"/>
							</g>
						</g>
					</g>
				</g>
				<g>
					<g>
						<g>
							<line fill="#4A5450" x1="27.668" y1="7.833" x2="37.334" y2="7.833"/>
						</g>
						<g>
							<path fill="#0F261E" d="M37.334,10.333h-9.666c-1.381,0-2.5-1.119-2.5-2.5s1.119-2.5,2.5-2.5h9.666
								c1.381,0,2.5,1.119,2.5,2.5S38.715,10.333,37.334,10.333z"/>
						</g>
					</g>
					<g>
						<g>
							<line fill="#4A5450" x1="27.668" y1="57.167" x2="37.334" y2="57.167"/>
						</g>
						<g>
							<path fill="#0F261E" d="M37.334,59.667h-9.666c-1.381,0-2.5-1.119-2.5-2.5s1.119-2.5,2.5-2.5h9.666
								c1.381,0,2.5,1.119,2.5,2.5S38.715,59.667,37.334,59.667z"/>
						</g>
					</g>
				</g>
			</g>
			<g>
				<g>
					<circle fill="#19CBF4" cx="32.501" cy="32.501" r="6.583"/>
				</g>
				<g>
					<path fill="#6CEAFF" d="M39.084,32.501c0,3.635-2.947,6.582-6.582,6.582c-3.637,0-6.584-2.947-6.584-6.582"/>
				</g>
				<g>
					<path fill="#0F261E" d="M32.502,41.583c-5.01,0-9.084-4.074-9.084-9.082c0-5.009,4.074-9.084,9.084-9.084
						c5.008,0,9.082,4.075,9.082,9.084C41.584,37.509,37.51,41.583,32.502,41.583z M32.502,28.417c-2.252,0-4.084,1.832-4.084,4.084
						c0,2.251,1.832,4.082,4.084,4.082c2.25,0,4.082-1.831,4.082-4.082C36.584,30.249,34.752,28.417,32.502,28.417z"/>
				</g>
			</g>
		</g>
	</g>
</g>
<g id="nyt_x5F_exporter_x5F_info" display="none">
</g>
</svg>
