<?xml version="1.0" encoding="utf-8"?>
<!-- Generator: Adobe Illustrator 16.0.0, SVG Export Plug-In . SVG Version: 6.00 Build 0)  -->
<!DOCTYPE svg PUBLIC "-//W3C//DTD SVG 1.1//EN" "http://www.w3.org/Graphics/SVG/1.1/DTD/svg11.dtd">
<svg version="1.1" xmlns="http://www.w3.org/2000/svg" xmlns:xlink="http://www.w3.org/1999/xlink" x="0px" y="0px" width="65px"
	 height="65px" viewBox="0 0 65 65" enable-background="new 0 0 65 65" xml:space="preserve">
<g id="Layer_1">
	<g>
		<g>
			<circle fill="#8C8883" cx="32.5" cy="32.5" r="32"/>
		</g>
		<g>
			<circle fill="#8C8883" cx="32.5" cy="32.5" r="32"/>
		</g>
		<g>
			<path fill="#A8A39E" d="M9.873,55.128c-12.498-12.497-12.497-32.759,0-45.255"/>
		</g>
		<g>
			<path fill="#6D6B69" d="M9.873,9.873c12.496-12.496,32.758-12.497,45.255,0c12.496,12.496,12.496,32.759,0,45.255"/>
		</g>
		<g>
			<path fill="#848280" d="M9.873,9.873c12.496-12.496,32.758-12.497,45.255,0"/>
		</g>
		<g>
			<circle fill="#99948F" cx="13.559" cy="36.083" r="3.25"/>
		</g>
		<g>
			<circle fill="#99948F" cx="13.475" cy="25.833" r="0.5"/>
		</g>
		<g>
			<circle fill="#99948F" cx="29.392" cy="43.749" r="3.083"/>
		</g>
		<g>
			<circle fill="#99948F" cx="24.892" cy="33.416" r="1.083"/>
		</g>
		<g>
			<circle fill="#99948F" cx="19.559" cy="48.083" r="1.75"/>
		</g>
		<g>
			<circle fill="#99948F" cx="41.642" cy="52.666" r="1.167"/>
		</g>
		<g>
			<circle fill="#99948F" cx="19.891" cy="25.916" r="1.25"/>
		</g>
		<g>
			<circle fill="#8C8883" cx="42.058" cy="19.083" r="2.083"/>
		</g>
		<g>
			<circle fill="#8C8883" cx="22.309" cy="12.666" r="1"/>
		</g>
		<g>
			<circle fill="#8C8883" cx="32.059" cy="8.916" r="2.25"/>
		</g>
		<g>
			<circle fill="#8C8883" cx="31.308" cy="19.665" r="0.667"/>
		</g>
		<g>
			<circle fill="#8C8883" cx="47.809" cy="30.833" r="1"/>
		</g>
		<g>
			<circle fill="#8C8883" cx="53.558" cy="18.249" r="1.417"/>
		</g>
		<g>
			<circle fill="#8C8883" cx="41.726" cy="28.916" r="0.917"/>
		</g>
		<g>
			<circle fill="#8C8883" cx="56.725" cy="40.583" r="1.25"/>
		</g>
	</g>
</g>
<g id="nyt_x5F_exporter_x5F_info" display="none">
</g>
</svg>
