<?xml version="1.0" encoding="utf-8"?>
<!-- Generator: Adobe Illustrator 16.0.0, SVG Export Plug-In . SVG Version: 6.00 Build 0)  -->
<!DOCTYPE svg PUBLIC "-//W3C//DTD SVG 1.1//EN" "http://www.w3.org/Graphics/SVG/1.1/DTD/svg11.dtd">
<svg version="1.1" xmlns="http://www.w3.org/2000/svg" xmlns:xlink="http://www.w3.org/1999/xlink" x="0px" y="0px" width="65px"
	 height="65px" viewBox="0 0 65 65" enable-background="new 0 0 65 65" xml:space="preserve">
<g id="Layer_1">
	<g>
		<g>
			<g>
				<g>
					<path fill="#DDDABF" d="M19.502,39.081c0-8.966,7.535-16.235,16.832-16.235s16.832,7.27,16.832,16.235
						c0,8.965-11.335,12.109-6.022,22.794"/>
				</g>
				<g>
					<path fill="#C6C6AB" d="M36.334,22.845c9.297,0,16.832,7.27,16.832,16.235c0,8.965-11.335,12.109-6.022,22.794"/>
				</g>
				<g>
					<path fill="#FF6700" d="M47.146,64.375c-0.919,0-1.804-0.509-2.24-1.388c-3.787-7.617-0.357-12.427,2.398-16.291
						c1.805-2.53,3.362-4.715,3.362-7.616c0-7.573-6.43-13.735-14.332-13.735c-7.901,0-14.332,6.162-14.332,13.735
						c0,1.381-1.119,2.5-2.5,2.5s-2.5-1.119-2.5-2.5c0-10.331,8.672-18.735,19.332-18.735c10.659,0,19.332,8.404,19.332,18.735
						c0,4.501-2.279,7.698-4.292,10.519c-2.58,3.618-4.441,6.232-1.992,11.162c0.615,1.236,0.111,2.737-1.125,3.352
						C47.899,64.291,47.52,64.375,47.146,64.375z"/>
				</g>
			</g>
			<g>
				<g>
					<line fill="#C6C6AB" x1="19.502" y1="6.245" x2="19.502" y2="61.875"/>
				</g>
				<g>
					<path fill="#FF6700" d="M19.502,64.375c-1.381,0-2.5-1.119-2.5-2.5V6.245c0-1.381,1.119-2.5,2.5-2.5s2.5,1.119,2.5,2.5v55.63
						C22.002,63.255,20.883,64.375,19.502,64.375z"/>
				</g>
			</g>
			<g>
				<g>
					<line fill="#C6C6AB" x1="11.834" y1="3.125" x2="27.3" y2="3.125"/>
				</g>
				<g>
					<path fill="#FF6700" d="M27.3,5.625H11.834c-1.381,0-2.5-1.119-2.5-2.5s1.119-2.5,2.5-2.5H27.3c1.383,0,2.501,1.119,2.501,2.5
						S28.683,5.625,27.3,5.625z"/>
				</g>
			</g>
		</g>
		<g>
			<g>
				<path fill="#FF6700" d="M28.808,8.417c0,0.229-0.187,0.416-0.416,0.416h-3.334c-0.23,0-0.416-0.187-0.416-0.416l0,0
					c0-0.23,0.186-0.417,0.416-0.417h3.334C28.621,8,28.808,8.186,28.808,8.417L28.808,8.417z"/>
			</g>
			<g>
				<path fill="#FF6700" d="M28.808,10.917c0,0.229-0.187,0.416-0.416,0.416h-3.334c-0.23,0-0.416-0.187-0.416-0.416l0,0
					c0-0.23,0.186-0.417,0.416-0.417h3.334C28.621,10.5,28.808,10.686,28.808,10.917L28.808,10.917z"/>
			</g>
			<g>
				<path fill="#FF6700" d="M28.808,13.417c0,0.229-0.187,0.416-0.416,0.416h-3.334c-0.23,0-0.416-0.187-0.416-0.416l0,0
					c0-0.23,0.186-0.417,0.416-0.417h3.334C28.621,13,28.808,13.186,28.808,13.417L28.808,13.417z"/>
			</g>
		</g>
	</g>
</g>
<g id="nyt_x5F_exporter_x5F_info" display="none">
</g>
</svg>
