<?xml version="1.0" encoding="utf-8"?>
<!-- Generator: Adobe Illustrator 16.0.0, SVG Export Plug-In . SVG Version: 6.00 Build 0)  -->
<!DOCTYPE svg PUBLIC "-//W3C//DTD SVG 1.1//EN" "http://www.w3.org/Graphics/SVG/1.1/DTD/svg11.dtd">
<svg version="1.1" xmlns="http://www.w3.org/2000/svg" xmlns:xlink="http://www.w3.org/1999/xlink" x="0px" y="0px" width="65px"
	 height="65px" viewBox="0 0 65 65" enable-background="new 0 0 65 65" xml:space="preserve">
<g id="Layer_1">
	<g>
		<g>
			<g>
				<path fill="#B1BCB8" d="M14.268,28.117c0-8.715,7.065-15.779,15.78-15.779s15.779,7.064,15.779,15.779"/>
			</g>
			<g>
				<path fill="#0071AA" d="M45.828,30.617c-1.381,0-2.5-1.119-2.5-2.5c0-7.322-5.958-13.279-13.279-13.279
					c-7.322,0-13.28,5.957-13.28,13.279c0,1.381-1.117,2.5-2.5,2.5c-1.381,0-2.5-1.119-2.5-2.5c0-10.079,8.201-18.279,18.28-18.279
					s18.279,8.2,18.279,18.279C48.328,29.498,47.208,30.617,45.828,30.617z"/>
			</g>
		</g>
		<g>
			<g>
				<path fill="#B1BCB8" d="M61.6,44.163c-8.715,0-15.78-7.064-15.78-15.779"/>
			</g>
			<g>
				<path fill="#0071AA" d="M61.6,46.663c-10.08,0-18.28-8.2-18.28-18.279c0-1.381,1.119-2.5,2.5-2.5s2.5,1.119,2.5,2.5
					c0,7.322,5.956,13.279,13.28,13.279c1.38,0,2.5,1.119,2.5,2.5S62.98,46.663,61.6,46.663z"/>
			</g>
		</g>
		<g>
			<g>
				<circle fill="#32F9B1" cx="14.708" cy="41.354" r="11.309"/>
			</g>
			<g>
				<path fill="#2FD4EA" d="M3.4,41.354c0-6.246,5.062-11.309,11.308-11.309s11.31,5.062,11.31,11.309"/>
			</g>
			<g>
				<path fill="#0071AA" d="M14.708,55.162C7.094,55.162,0.9,48.968,0.9,41.354s6.194-13.809,13.808-13.809
					s13.81,6.194,13.81,13.809S22.321,55.162,14.708,55.162z M14.708,32.545c-4.856,0-8.808,3.951-8.808,8.809
					s3.951,8.809,8.808,8.809c4.857,0,8.81-3.951,8.81-8.809S19.565,32.545,14.708,32.545z"/>
			</g>
		</g>
	</g>
</g>
<g id="nyt_x5F_exporter_x5F_info" display="none">
</g>
</svg>
