<?xml version="1.0" encoding="utf-8"?>
<!-- Generator: Adobe Illustrator 16.0.0, SVG Export Plug-In . SVG Version: 6.00 Build 0)  -->
<!DOCTYPE svg PUBLIC "-//W3C//DTD SVG 1.1//EN" "http://www.w3.org/Graphics/SVG/1.1/DTD/svg11.dtd">
<svg version="1.1" xmlns="http://www.w3.org/2000/svg" xmlns:xlink="http://www.w3.org/1999/xlink" x="0px" y="0px" width="65px"
	 height="65px" viewBox="0 0 65 65" enable-background="new 0 0 65 65" xml:space="preserve">
<g id="Layer_1">
	<g>
		<g>
			<g>
				<g>
					<g>
						<g>
							<path fill="#41E09F" d="M48.503,19.88c6.971,0,12.619,5.65,12.621,12.619c0,6.969-5.65,12.619-12.621,12.619"/>
						</g>
						<g>
							<path fill="#475651" d="M48.503,47.618c-1.381,0-2.5-1.119-2.5-2.5s1.119-2.5,2.5-2.5c5.581,0,10.121-4.539,10.121-10.119
								C58.622,26.92,54.082,22.38,48.503,22.38c-1.381,0-2.5-1.119-2.5-2.5s1.119-2.5,2.5-2.5c8.336,0,15.119,6.782,15.121,15.118
								C63.624,40.836,56.841,47.618,48.503,47.618z"/>
						</g>
					</g>
				</g>
			</g>
			<g>
				<g>
					<g>
						<g>
							<path fill="#41E09F" d="M16.497,45.12c-6.971,0-12.619-5.65-12.621-12.619c0-6.969,5.65-12.619,12.621-12.619"/>
						</g>
						<g>
							<path fill="#475651" d="M16.497,47.62c-8.336,0-15.119-6.782-15.121-15.118c0-8.338,6.783-15.12,15.121-15.12
								c1.381,0,2.5,1.119,2.5,2.5s-1.119,2.5-2.5,2.5c-5.581,0-10.121,4.539-10.121,10.119C6.378,38.08,10.918,42.62,16.497,42.62
								c1.381,0,2.5,1.119,2.5,2.5S17.878,47.62,16.497,47.62z"/>
						</g>
					</g>
				</g>
			</g>
		</g>
		<g>
			<g>
				<g>
					<g>
						<g>
							<g>
								<g>
									<path fill="#9AC1B2" d="M19.88,31.528c0-6.971,5.65-12.619,12.62-12.621c6.968,0,12.618,5.65,12.618,12.621"/>
								</g>
								<g>
									<path fill="#475651" d="M45.118,34.028c-1.379,0-2.5-1.119-2.5-2.5c0-5.581-4.539-10.121-10.118-10.121
										c-5.581,0.002-10.12,4.542-10.12,10.121c0,1.381-1.119,2.5-2.5,2.5s-2.5-1.119-2.5-2.5c0-8.336,6.781-15.119,15.119-15.121
										c8.336,0,15.119,6.783,15.119,15.121C47.618,32.908,46.5,34.028,45.118,34.028z"/>
								</g>
							</g>
							<g>
								<g>
									<g>
										<path fill="#9AC1B2" d="M23.576,14.69c4.927-4.934,12.919-4.93,17.845-0.004"/>
									</g>
									<g>
										<path fill="#475651" d="M23.576,17.19c-0.64,0-1.278-0.244-1.767-0.731c-0.977-0.976-0.979-2.559-0.002-3.535
											c2.854-2.858,6.65-4.433,10.691-4.433c4.038,0,7.835,1.572,10.689,4.428c0.977,0.977,0.977,2.559,0,3.535
											s-2.559,0.977-3.535,0c-1.912-1.91-4.451-2.963-7.154-2.963s-5.244,1.054-7.154,2.966
											C24.856,16.946,24.217,17.19,23.576,17.19z"/>
									</g>
								</g>
								<g>
									<g>
										<line fill="#9AC1B2" x1="32.501" y1="3.325" x2="32.501" y2="10.772"/>
									</g>
									<g>
										<path fill="#475651" d="M32.501,13.272c-1.381,0-2.5-1.119-2.5-2.5V3.325c0-1.381,1.119-2.5,2.5-2.5s2.5,1.119,2.5,2.5
											v7.447C35.001,12.153,33.882,13.272,32.501,13.272z"/>
									</g>
								</g>
							</g>
						</g>
					</g>
					<g>
						<g>
							<path fill="#41E09F" d="M26.706,32.841c0-3.199,2.594-5.793,5.795-5.793c3.196-0.002,5.791,2.592,5.791,5.791"/>
						</g>
						<g>
							<path fill="#475651" d="M26.706,35.341c-1.381,0-2.5-1.119-2.5-2.5c0-4.573,3.721-8.293,8.295-8.293c0.002,0,0.004,0,0.004,0
								c2.211,0,4.292,0.861,5.857,2.427c1.567,1.566,2.43,3.649,2.43,5.864c0,1.381-1.119,2.5-2.5,2.5s-2.5-1.119-2.5-2.5
								c0-0.879-0.343-1.706-0.965-2.328c-0.621-0.621-1.445-0.963-2.322-0.963h-0.002c-1.818,0-3.297,1.478-3.297,3.293
								C29.206,34.222,28.087,35.341,26.706,35.341z"/>
						</g>
					</g>
				</g>
				<g>
					<g>
						<g>
							<path fill="#41E09F" d="M15.319,23.278c0-2.277,1.847-4.123,4.123-4.123"/>
						</g>
						<g>
							<path fill="#475651" d="M15.319,25.778c-1.381,0-2.5-1.119-2.5-2.5c0-3.652,2.971-6.623,6.623-6.623
								c1.381,0,2.5,1.119,2.5,2.5s-1.119,2.5-2.5,2.5c-0.895,0-1.623,0.729-1.623,1.623C17.819,24.659,16.7,25.778,15.319,25.778z"
								/>
						</g>
					</g>
					<g>
						<g>
							<path fill="#41E09F" d="M45.558,19.155c2.275,0,4.121,1.846,4.121,4.123"/>
						</g>
						<g>
							<path fill="#475651" d="M49.679,25.778c-1.38,0-2.5-1.119-2.5-2.5c0-0.895-0.729-1.623-1.621-1.623
								c-1.383,0-2.5-1.119-2.5-2.5s1.117-2.5,2.5-2.5c3.651,0,6.621,2.971,6.621,6.623C52.179,24.659,51.06,25.778,49.679,25.778z"
								/>
						</g>
					</g>
				</g>
			</g>
			<g>
				<g>
					<g>
						<g>
							<g>
								<g>
									<path fill="#9AC1B2" d="M45.12,33.472c0,6.971-5.65,12.619-12.621,12.621c-6.969,0-12.617-5.65-12.619-12.621"/>
								</g>
								<g>
									<path fill="#475651" d="M32.5,48.593c-8.335,0-15.118-6.783-15.12-15.12c0-1.381,1.118-2.501,2.498-2.501h0.002
										c1.381,0,2.5,1.119,2.5,2.499c0.002,5.581,4.541,10.122,10.119,10.122c5.58-0.002,10.121-4.542,10.121-10.121
										c0-1.381,1.119-2.5,2.5-2.5s2.5,1.119,2.5,2.5C47.62,41.808,40.837,48.591,32.5,48.593z"/>
								</g>
							</g>
							<g>
								<g>
									<g>
										<path fill="#9AC1B2" d="M41.423,50.31c-4.928,4.934-12.918,4.93-17.844,0.004"/>
									</g>
									<g>
										<path fill="#475651" d="M32.5,56.509c-4.038,0-7.834-1.572-10.688-4.428c-0.977-0.977-0.977-2.559,0-3.535
											s2.559-0.977,3.535,0c1.911,1.91,4.451,2.963,7.153,2.963s5.244-1.054,7.153-2.966c0.977-0.979,2.559-0.978,3.535-0.002
											c0.978,0.976,0.979,2.559,0.003,3.535C40.337,54.935,36.54,56.509,32.5,56.509z"/>
									</g>
								</g>
								<g>
									<g>
										<line fill="#9AC1B2" x1="32.499" y1="61.675" x2="32.499" y2="54.228"/>
									</g>
									<g>
										<path fill="#475651" d="M32.499,64.175c-1.381,0-2.5-1.119-2.5-2.5v-7.447c0-1.381,1.119-2.5,2.5-2.5s2.5,1.119,2.5,2.5
											v7.447C34.999,63.056,33.88,64.175,32.499,64.175z"/>
									</g>
								</g>
							</g>
						</g>
					</g>
					<g>
						<g>
							<path fill="#41E09F" d="M38.294,32.159c0,3.199-2.596,5.793-5.795,5.793c-3.197,0.002-5.791-2.592-5.791-5.791"/>
						</g>
						<g>
							<path fill="#475651" d="M32.493,40.452c-2.211,0-4.291-0.862-5.857-2.428s-2.428-3.648-2.428-5.863
								c0-1.381,1.119-2.5,2.5-2.5s2.5,1.119,2.5,2.5c0,0.88,0.343,1.706,0.963,2.328c0.622,0.621,1.447,0.963,2.324,0.963h0.002
								c1.818,0,3.297-1.478,3.297-3.293c0-1.381,1.119-2.5,2.5-2.5s2.5,1.119,2.5,2.5c0,4.573-3.721,8.293-8.295,8.293H32.493z"/>
						</g>
					</g>
				</g>
				<g>
					<g>
						<g>
							<path fill="#41E09F" d="M49.681,41.722c0,2.277-1.848,4.123-4.123,4.123"/>
						</g>
						<g>
							<path fill="#475651" d="M45.558,48.345c-1.381,0-2.5-1.119-2.5-2.5s1.119-2.5,2.5-2.5c0.895,0,1.623-0.729,1.623-1.623
								c0-1.381,1.119-2.5,2.5-2.5s2.5,1.119,2.5,2.5C52.181,45.374,49.21,48.345,45.558,48.345z"/>
						</g>
					</g>
					<g>
						<g>
							<path fill="#41E09F" d="M19.442,45.845c-2.275,0-4.123-1.846-4.123-4.123"/>
						</g>
						<g>
							<path fill="#475651" d="M19.442,48.345c-3.652,0-6.623-2.971-6.623-6.623c0-1.381,1.119-2.5,2.5-2.5s2.5,1.119,2.5,2.5
								c0,0.895,0.729,1.623,1.623,1.623c1.381,0,2.5,1.119,2.5,2.5S20.823,48.345,19.442,48.345z"/>
						</g>
					</g>
				</g>
			</g>
		</g>
	</g>
</g>
<g id="nyt_x5F_exporter_x5F_info" display="none">
</g>
</svg>
