<?xml version="1.0" encoding="utf-8"?>
<!-- Generator: Adobe Illustrator 16.0.0, SVG Export Plug-In . SVG Version: 6.00 Build 0)  -->
<!DOCTYPE svg PUBLIC "-//W3C//DTD SVG 1.1//EN" "http://www.w3.org/Graphics/SVG/1.1/DTD/svg11.dtd">
<svg version="1.1" xmlns="http://www.w3.org/2000/svg" xmlns:xlink="http://www.w3.org/1999/xlink" x="0px" y="0px" width="65px"
	 height="65px" viewBox="0 0 65 65" enable-background="new 0 0 65 65" xml:space="preserve">
<g id="Layer_1">
	<g>
		<g>
			<g>
				<g>
					<path fill="#B1BCB8" d="M14.755,3.597c15.964,15.963,15.964,41.844,0,57.807"/>
				</g>
				<g>
					<path fill="#0071AA" d="M14.755,63.903c-0.639,0-1.279-0.244-1.767-0.732c-0.978-0.977-0.978-2.559,0-3.535
						c14.964-14.963,14.964-39.309,0-54.271c-0.978-0.977-0.978-2.559,0-3.535c0.976-0.977,2.558-0.977,3.535,0
						c16.912,16.912,16.912,44.43,0,61.342C16.034,63.659,15.396,63.903,14.755,63.903z"/>
				</g>
			</g>
			<g>
				<g>
					<path fill="#32F9B1" d="M50.244,3.597c-15.963,15.963-15.963,41.844,0,57.807"/>
				</g>
				<g>
					<path fill="#0071AA" d="M50.244,63.903c-0.64,0-1.28-0.244-1.769-0.732c-16.911-16.912-16.911-44.43,0-61.342
						c0.978-0.977,2.559-0.977,3.535,0c0.978,0.977,0.978,2.559,0,3.535c-14.962,14.963-14.962,39.309,0,54.271
						c0.978,0.977,0.978,2.559,0,3.535C51.523,63.659,50.884,63.903,50.244,63.903z"/>
				</g>
			</g>
		</g>
		<g>
			<g>
				<line fill="#B1BCB8" x1="18.833" y1="32.5" x2="46.167" y2="32.5"/>
			</g>
			<g>
				<path fill="#0071AA" d="M46.167,35H18.833c-1.381,0-2.5-1.119-2.5-2.5s1.119-2.5,2.5-2.5h27.334c1.381,0,2.5,1.119,2.5,2.5
					S47.548,35,46.167,35z"/>
			</g>
		</g>
	</g>
</g>
<g id="nyt_x5F_exporter_x5F_info" display="none">
</g>
</svg>
