<?xml version="1.0" encoding="utf-8"?>
<!-- Generator: Adobe Illustrator 16.0.0, SVG Export Plug-In . SVG Version: 6.00 Build 0)  -->
<!DOCTYPE svg PUBLIC "-//W3C//DTD SVG 1.1//EN" "http://www.w3.org/Graphics/SVG/1.1/DTD/svg11.dtd">
<svg version="1.1" xmlns="http://www.w3.org/2000/svg" xmlns:xlink="http://www.w3.org/1999/xlink" x="0px" y="0px" width="65px"
	 height="65px" viewBox="0 0 65 65" enable-background="new 0 0 65 65" xml:space="preserve">
<g id="Layer_1">
	<g>
		<g>
			<g>
				<polygon fill="#FFC200" points="3.312,57.769 32.49,7.231 61.668,57.769 				"/>
			</g>
			<g>
				<polygon fill="#FFB000" points="27.798,57.769 32.49,7.231 61.668,57.769 				"/>
			</g>
			<g>
				<path fill="#FF7900" d="M61.688,60.269c-0.006,0-0.013,0.001-0.02,0H3.312c-0.893,0-1.718-0.477-2.164-1.25
					c-0.447-0.773-0.447-1.727,0-2.5L30.325,5.981c0.446-0.773,1.271-1.25,2.165-1.25s1.719,0.477,2.165,1.25l29.035,50.29
					c0.312,0.418,0.497,0.936,0.497,1.497C64.188,59.149,63.067,60.269,61.688,60.269z M7.643,55.269h49.695L32.49,12.231
					L7.643,55.269z"/>
			</g>
		</g>
		<g>
			<g>
				<polygon fill="#FFE8AE" points="15.581,36.519 32.49,7.231 49.399,36.519 				"/>
			</g>
			<g>
				<polygon fill="#FFDC7B" points="49.399,36.519 32.49,7.231 29.771,36.519 				"/>
			</g>
			<g>
				<path fill="#FF7900" d="M49.419,39.019c0,0-0.012,0.001-0.02,0H15.581c-0.894,0-1.719-0.477-2.165-1.25s-0.446-1.727,0-2.5
					L30.325,5.981c0.446-0.773,1.271-1.25,2.165-1.25s1.719,0.477,2.165,1.25l16.768,29.04c0.312,0.418,0.496,0.936,0.496,1.497
					C51.919,37.899,50.8,39.019,49.419,39.019z M19.911,34.019h25.158L32.49,12.231L19.911,34.019z"/>
			</g>
		</g>
		<g>
			<g>
				<circle fill="#FF7900" cx="28.437" cy="43.5" r="1.063"/>
			</g>
			<g>
				<circle fill="#FF7900" cx="32.5" cy="43.5" r="1.062"/>
			</g>
			<g>
				<circle fill="#FF7900" cx="36.562" cy="43.5" r="1.062"/>
			</g>
		</g>
	</g>
</g>
<g id="nyt_x5F_exporter_x5F_info" display="none">
</g>
</svg>
