<?xml version="1.0" encoding="utf-8"?>
<!-- Generator: Adobe Illustrator 16.0.0, SVG Export Plug-In . SVG Version: 6.00 Build 0)  -->
<!DOCTYPE svg PUBLIC "-//W3C//DTD SVG 1.1//EN" "http://www.w3.org/Graphics/SVG/1.1/DTD/svg11.dtd">
<svg version="1.1" xmlns="http://www.w3.org/2000/svg" xmlns:xlink="http://www.w3.org/1999/xlink" x="0px" y="0px" width="65px"
	 height="65px" viewBox="0 0 65 65" enable-background="new 0 0 65 65" xml:space="preserve">
<g id="Layer_1">
	<g>
		<g>
			<g>
				<circle fill="#59417C" cx="32.5" cy="12.374" r="1.062"/>
			</g>
			<g>
				<circle fill="#59417C" cx="32.5" cy="16.437" r="1.062"/>
			</g>
			<g>
				<circle fill="#59417C" cx="32.5" cy="20.499" r="1.062"/>
			</g>
		</g>
		<g>
			<g>
				<g>
					<g>
						<polygon fill="#85FCFF" points="23.552,21.267 8.241,36.577 26.14,36.577 32.501,30.216 						"/>
					</g>
					<g>
						<path fill="#59417C" d="M26.14,39.077H8.241c-1.011,0-1.924-0.609-2.309-1.543c-0.388-0.934-0.174-2.01,0.541-2.725
							l15.311-15.311c0.977-0.977,2.559-0.977,3.535,0l8.949,8.949c0.469,0.469,0.732,1.105,0.732,1.768
							c0,0.664-0.264,1.299-0.732,1.768l-6.361,6.361C27.438,38.813,26.803,39.077,26.14,39.077z M14.276,34.077h10.828l3.861-3.861
							l-5.414-5.414L14.276,34.077z"/>
					</g>
				</g>
				<g>
					<g>
						<polygon fill="#1FDBEA" points="41.45,21.267 32.501,30.216 38.862,36.577 56.761,36.577 						"/>
					</g>
					<g>
						<path fill="#59417C" d="M56.761,39.077H38.862c-0.663,0-1.299-0.264-1.768-0.732l-6.361-6.361
							c-0.469-0.469-0.732-1.104-0.732-1.768c0-0.662,0.264-1.299,0.732-1.768l8.949-8.949c0.977-0.977,2.559-0.977,3.535,0
							L58.528,34.81c0.715,0.715,0.929,1.791,0.541,2.725C58.685,38.468,57.771,39.077,56.761,39.077z M39.897,34.077h10.828
							l-9.275-9.275l-5.414,5.414L39.897,34.077z"/>
					</g>
				</g>
				<g>
					<g>
						<polygon fill="#1FDBEA" points="26.14,36.577 38.862,36.577 32.501,30.216 						"/>
					</g>
					<g>
						<path fill="#59417C" d="M38.862,39.077H26.14c-1.011,0-1.923-0.609-2.31-1.543s-0.173-2.01,0.542-2.725l6.361-6.361
							c0.977-0.977,2.559-0.977,3.535,0l6.361,6.361c0.715,0.715,0.93,1.791,0.541,2.725C40.785,38.468,39.873,39.077,38.862,39.077
							z M32.175,34.077h0.652l-0.326-0.326L32.175,34.077z"/>
					</g>
				</g>
			</g>
			<g>
				<g>
					<line fill="#1FDBEA" x1="16.911" y1="43.64" x2="48.091" y2="43.64"/>
				</g>
				<g>
					<path fill="#59417C" d="M48.091,46.14h-31.18c-1.381,0-2.5-1.119-2.5-2.5s1.119-2.5,2.5-2.5h31.18c1.381,0,2.5,1.119,2.5,2.5
						S49.472,46.14,48.091,46.14z"/>
				</g>
			</g>
			<g>
				<g>
					<line fill="#1FDBEA" x1="26.698" y1="51.188" x2="38.306" y2="51.188"/>
				</g>
				<g>
					<path fill="#59417C" d="M38.306,53.688H26.698c-1.381,0-2.5-1.119-2.5-2.5s1.119-2.5,2.5-2.5h11.607c1.381,0,2.5,1.119,2.5,2.5
						S39.687,53.688,38.306,53.688z"/>
				</g>
			</g>
			<g>
				<g>
					<line fill="#1FDBEA" x1="3.489" y1="36.577" x2="61.511" y2="36.577"/>
				</g>
				<g>
					<path fill="#59417C" d="M61.511,39.077H3.489c-1.381,0-2.5-1.119-2.5-2.5s1.119-2.5,2.5-2.5h58.021c1.381,0,2.5,1.119,2.5,2.5
						S62.892,39.077,61.511,39.077z"/>
				</g>
			</g>
		</g>
	</g>
</g>
<g id="nyt_x5F_exporter_x5F_info" display="none">
</g>
</svg>
