<?xml version="1.0" encoding="utf-8"?>
<!-- Generator: Adobe Illustrator 16.0.0, SVG Export Plug-In . SVG Version: 6.00 Build 0)  -->
<!DOCTYPE svg PUBLIC "-//W3C//DTD SVG 1.1//EN" "http://www.w3.org/Graphics/SVG/1.1/DTD/svg11.dtd">
<svg version="1.1" xmlns="http://www.w3.org/2000/svg" xmlns:xlink="http://www.w3.org/1999/xlink" x="0px" y="0px" width="65px"
	 height="65px" viewBox="0 0 65 65" enable-background="new 0 0 65 65" xml:space="preserve">
<g id="Layer_1">
	<g>
		<g>
			<g>
				<g>
					<path fill="#32F9B1" d="M18.774,46.284V14.681c0-3.878,3.146-7.025,7.023-7.025h1.17c3.879,0,7.027,3.147,7.027,7.025v31.604"
						/>
				</g>
				<g>
					<path fill="#2FD4EA" d="M18.774,14.681c0-3.878,3.146-7.025,7.023-7.025h1.17c3.879,0,7.027,3.147,7.027,7.025v31.604"/>
				</g>
				<g>
					<path fill="#0071AA" d="M33.995,48.784c-1.381,0-2.5-1.119-2.5-2.5V14.681c0-2.495-2.031-4.525-4.527-4.525h-1.17
						c-2.494,0-4.523,2.03-4.523,4.525v31.604c0,1.381-1.119,2.5-2.5,2.5s-2.5-1.119-2.5-2.5V14.681
						c0-5.252,4.272-9.525,9.523-9.525h1.17c5.252,0,9.527,4.273,9.527,9.525v31.604C36.495,47.665,35.376,48.784,33.995,48.784z"/>
				</g>
			</g>
			<g>
				<g>
					<path fill="#32F9B1" d="M33.995,46.284V14.681c0-3.878,3.143-7.025,7.021-7.025h1.17c3.881,0,7.025,3.147,7.025,7.025v31.604"
						/>
				</g>
				<g>
					<path fill="#2FD4EA" d="M33.995,14.681c0-3.878,3.143-7.025,7.021-7.025h1.17c3.881,0,7.025,3.147,7.025,7.025v31.604"/>
				</g>
				<g>
					<path fill="#0071AA" d="M49.212,48.784c-1.381,0-2.5-1.119-2.5-2.5V14.681c0-2.495-2.029-4.525-4.525-4.525h-1.17
						c-2.493,0-4.521,2.03-4.521,4.525v31.604c0,1.381-1.119,2.5-2.5,2.5s-2.5-1.119-2.5-2.5V14.681
						c0-5.252,4.271-9.525,9.521-9.525h1.17c5.252,0,9.525,4.273,9.525,9.525v31.604C51.712,47.665,50.593,48.784,49.212,48.784z"/>
				</g>
			</g>
			<g>
				<g>
					<path fill="#B1BCB8" d="M57.368,54.249h-1.17c-3.881,0-7.025-3.147-7.025-7.025V15.62"/>
				</g>
				<g>
					<path fill="#0071AA" d="M57.368,56.749h-1.17c-5.252,0-9.525-4.273-9.525-9.525V15.62c0-1.381,1.119-2.5,2.5-2.5
						s2.5,1.119,2.5,2.5v31.604c0,2.495,2.029,4.525,4.525,4.525h1.17c1.381,0,2.5,1.119,2.5,2.5S58.749,56.749,57.368,56.749z"/>
				</g>
			</g>
			<g>
				<g>
					<path fill="#B1BCB8" d="M3.319,14.681c0-3.878,3.146-7.025,7.023-7.025h1.172c3.877,0,7.023,3.147,7.023,7.025v31.604"/>
				</g>
				<g>
					<path fill="#C7D3CE" d="M3.319,14.681c0-3.878,3.146-7.025,7.023-7.025h1.172c3.877,0,7.023,3.147,7.023,7.025"/>
				</g>
				<g>
					<path fill="#0071AA" d="M18.538,48.784c-1.381,0-2.5-1.119-2.5-2.5V14.681c0-2.495-2.029-4.525-4.523-4.525h-1.172
						c-2.494,0-4.523,2.03-4.523,4.525c0,1.381-1.119,2.5-2.5,2.5s-2.5-1.119-2.5-2.5c0-5.252,4.271-9.525,9.523-9.525h1.172
						c5.252,0,9.523,4.273,9.523,9.525v31.604C21.038,47.665,19.919,48.784,18.538,48.784z"/>
				</g>
			</g>
		</g>
		<g>
			<g>
				<polyline fill="#B1BCB8" points="58.351,50.686 61.681,54.016 58.351,57.345 				"/>
			</g>
			<g>
				<path fill="#0071AA" d="M58.351,59.845c-0.641,0-1.281-0.244-1.768-0.732c-0.977-0.977-0.977-2.56,0-3.535l1.561-1.562
					l-1.561-1.562c-0.977-0.977-0.977-2.559,0-3.535s2.559-0.977,3.535,0l3.33,3.33c0.469,0.469,0.732,1.104,0.732,1.768
					s-0.264,1.299-0.732,1.768l-3.33,3.329C59.63,59.601,58.989,59.845,58.351,59.845z"/>
			</g>
		</g>
	</g>
</g>
<g id="nyt_x5F_exporter_x5F_info" display="none">
</g>
</svg>
