<?xml version="1.0" encoding="utf-8"?>
<!-- Generator: Adobe Illustrator 16.0.0, SVG Export Plug-In . SVG Version: 6.00 Build 0)  -->
<!DOCTYPE svg PUBLIC "-//W3C//DTD SVG 1.1//EN" "http://www.w3.org/Graphics/SVG/1.1/DTD/svg11.dtd">
<svg version="1.1" xmlns="http://www.w3.org/2000/svg" xmlns:xlink="http://www.w3.org/1999/xlink" x="0px" y="0px" width="65px"
	 height="65px" viewBox="0 0 65 65" enable-background="new 0 0 65 65" xml:space="preserve">
<g id="Layer_1">
	<g>
		<g>
			<g>
				<g>
					<path fill="#B5FF40" d="M26.753,40.435c-10.346,0-18.734-8.387-18.734-18.733S16.407,2.968,26.753,2.968"/>
				</g>
				<g>
					<path fill="#144763" d="M26.753,42.935c-11.709,0-21.234-9.525-21.234-21.233S15.044,0.468,26.753,0.468
						c1.381,0,2.5,1.119,2.5,2.5s-1.119,2.5-2.5,2.5c-8.951,0-16.234,7.282-16.234,16.233s7.283,16.233,16.234,16.233
						c1.381,0,2.5,1.119,2.5,2.5S28.134,42.935,26.753,42.935z"/>
				</g>
			</g>
			<g>
				<g>
					<path fill="#87EA06" d="M38.247,24.566c10.348,0,18.734,8.386,18.734,18.732c0,10.348-8.387,18.733-18.734,18.733"/>
				</g>
				<g>
					<path fill="#144763" d="M38.247,64.532c-1.381,0-2.5-1.119-2.5-2.5s1.119-2.5,2.5-2.5c8.952,0,16.234-7.282,16.234-16.233
						c0-8.95-7.282-16.232-16.234-16.232c-1.381,0-2.5-1.119-2.5-2.5s1.119-2.5,2.5-2.5c11.709,0,21.234,9.524,21.234,21.232
						S49.956,64.532,38.247,64.532z"/>
				</g>
			</g>
			<g>
				<g>
					<polyline fill="#87EA06" points="34.081,40.414 39.21,40.414 39.21,45.543 					"/>
				</g>
				<g>
					<path fill="#144763" d="M39.21,48.043c-1.381,0-2.5-1.119-2.5-2.5v-2.629h-2.629c-1.381,0-2.5-1.119-2.5-2.5s1.119-2.5,2.5-2.5
						h5.129c1.381,0,2.5,1.119,2.5,2.5v5.129C41.71,46.924,40.591,48.043,39.21,48.043z"/>
				</g>
			</g>
			<g>
				<g>
					<polyline fill="#87EA06" points="30.919,24.586 25.79,24.586 25.79,19.457 					"/>
				</g>
				<g>
					<path fill="#144763" d="M30.919,27.086H25.79c-1.381,0-2.5-1.119-2.5-2.5v-5.129c0-1.381,1.119-2.5,2.5-2.5s2.5,1.119,2.5,2.5
						v2.629h2.629c1.381,0,2.5,1.119,2.5,2.5S32.3,27.086,30.919,27.086z"/>
				</g>
			</g>
		</g>
		<g>
			<g>
				<circle fill="#87EA06" cx="28.437" cy="32.5" r="1.063"/>
			</g>
			<g>
				<circle fill="#87EA06" cx="32.5" cy="32.5" r="1.063"/>
			</g>
			<g>
				<circle fill="#87EA06" cx="36.562" cy="32.5" r="1.062"/>
			</g>
		</g>
	</g>
</g>
<g id="nyt_x5F_exporter_x5F_info" display="none">
</g>
</svg>
