<?xml version="1.0" encoding="utf-8"?>
<!-- Generator: Adobe Illustrator 16.0.0, SVG Export Plug-In . SVG Version: 6.00 Build 0)  -->
<!DOCTYPE svg PUBLIC "-//W3C//DTD SVG 1.1//EN" "http://www.w3.org/Graphics/SVG/1.1/DTD/svg11.dtd">
<svg version="1.1" xmlns="http://www.w3.org/2000/svg" xmlns:xlink="http://www.w3.org/1999/xlink" x="0px" y="0px" width="65px"
	 height="65px" viewBox="0 0 65 65" enable-background="new 0 0 65 65" xml:space="preserve">
<g id="Layer_1">
	<g>
		<g>
			<g>
				<g>
					<circle fill="#CC0D0D" cx="11.625" cy="28.438" r="1.062"/>
				</g>
				<g>
					<circle fill="#CC0D0D" cx="11.625" cy="32.5" r="1.062"/>
				</g>
				<g>
					<circle fill="#CC0D0D" cx="11.625" cy="36.562" r="1.062"/>
				</g>
			</g>
			<g>
				<g>
					<circle fill="#CC0D0D" cx="53.375" cy="28.438" r="1.062"/>
				</g>
				<g>
					<circle fill="#CC0D0D" cx="53.375" cy="32.5" r="1.062"/>
				</g>
				<g>
					<circle fill="#CC0D0D" cx="53.375" cy="36.562" r="1.062"/>
				</g>
			</g>
		</g>
		<g>
			<g>
				<g>
					<polygon fill="#FFDB45" points="42.096,32.502 42.143,32.458 32.5,3 22.861,32.458 22.904,32.5 32.5,22.904 					"/>
				</g>
				<g>
					<polyline fill="#FF8F43" points="32.5,22.904 42.096,32.502 42.143,32.458 32.5,3 					"/>
				</g>
				<g>
					<path fill="#CC0D0D" d="M22.904,35c-0.631,0-1.262-0.237-1.748-0.712c-0.68-0.666-0.967-1.702-0.672-2.607l9.639-29.458
						C30.459,1.195,31.418,0.5,32.5,0.5c1.08,0,2.039,0.694,2.375,1.723l9.643,29.458c0.303,0.923,0.043,1.937-0.666,2.602
						c-0.984,0.922-2.572,0.941-3.523-0.013L32.5,26.44l-7.828,7.827C24.186,34.756,23.543,35,22.904,35z M32.5,20.404L32.5,20.404
						c0.662,0,1.299,0.264,1.768,0.732l2.287,2.287L32.5,11.038L28.449,23.42l2.283-2.283C31.201,20.668,31.836,20.404,32.5,20.404z
						"/>
				</g>
			</g>
			<g>
				<g>
					<polygon fill="#FFDB45" points="32.5,42.099 22.904,32.5 22.859,32.543 32.5,62 42.139,32.543 42.096,32.502 					"/>
				</g>
				<g>
					<polyline fill="#FF8F43" points="32.5,42.099 22.904,32.5 22.859,32.543 32.5,62 					"/>
				</g>
				<g>
					<path fill="#CC0D0D" d="M32.5,64.5c-1.082,0-2.041-0.695-2.377-1.723L20.482,33.32c-0.297-0.914-0.047-1.919,0.648-2.584
						c0.982-0.939,2.58-0.964,3.541-0.004l7.828,7.83l7.828-7.828c0.959-0.959,2.51-0.978,3.494-0.041
						c0.695,0.665,0.992,1.712,0.691,2.627l-9.639,29.457C34.539,63.805,33.58,64.5,32.5,64.5z M28.447,41.581L32.5,53.962
						l4.049-12.378l-2.281,2.282c-0.469,0.469-1.105,0.732-1.768,0.732l0,0c-0.664,0-1.299-0.264-1.768-0.732L28.447,41.581z"/>
				</g>
			</g>
			<g>
				<g>
					
						<rect x="25.714" y="25.716" transform="matrix(0.707 0.7072 -0.7072 0.707 32.5054 -13.4617)" fill="#45FFBC" width="13.572" height="13.57"/>
				</g>
				<g>
					<polyline fill="#15B79F" points="22.904,32.5 32.5,42.099 42.096,32.502 					"/>
				</g>
				<g>
					<path fill="#CC0D0D" d="M32.5,44.599L32.5,44.599c-0.664,0-1.299-0.264-1.768-0.732l-9.596-9.599
						c-0.977-0.977-0.977-2.56,0-3.535l9.596-9.596c0.469-0.469,1.104-0.732,1.768-0.732l0,0c0.662,0,1.299,0.264,1.768,0.732
						l9.596,9.598c0.977,0.977,0.977,2.559,0,3.535l-9.596,9.597C33.799,44.335,33.162,44.599,32.5,44.599z M26.439,32.5
						l6.061,6.062l6.061-6.061L32.5,26.44L26.439,32.5z"/>
				</g>
			</g>
		</g>
	</g>
</g>
<g id="nyt_x5F_exporter_x5F_info" display="none">
</g>
</svg>
