<?xml version="1.0" encoding="utf-8"?>
<!-- Generator: Adobe Illustrator 16.0.0, SVG Export Plug-In . SVG Version: 6.00 Build 0)  -->
<!DOCTYPE svg PUBLIC "-//W3C//DTD SVG 1.1//EN" "http://www.w3.org/Graphics/SVG/1.1/DTD/svg11.dtd">
<svg version="1.1" xmlns="http://www.w3.org/2000/svg" xmlns:xlink="http://www.w3.org/1999/xlink" x="0px" y="0px" width="65px"
	 height="65px" viewBox="0 0 65 65" enable-background="new 0 0 65 65" xml:space="preserve">
<g id="Layer_1">
	<g>
		<g>
			<g>
				<g>
					<circle fill="#71FFFF" cx="32.499" cy="36.414" r="14.583"/>
				</g>
				<g>
					<path fill="#2EE8ED" d="M32.5,21.832c8.055,0,14.582,6.529,14.582,14.582c0,8.055-6.527,14.584-14.582,14.584"/>
				</g>
				<g>
					<path fill="#0092AA" d="M32.5,53.498c-9.42,0-17.084-7.664-17.084-17.084c0-9.419,7.664-17.082,17.084-17.082
						s17.082,7.663,17.082,17.082C49.582,45.834,41.92,53.498,32.5,53.498z M32.5,24.332c-6.662,0-12.084,5.42-12.084,12.082
						c0,6.663,5.422,12.084,12.084,12.084s12.082-5.421,12.082-12.084C44.582,29.752,39.162,24.332,32.5,24.332z"/>
				</g>
			</g>
			<g>
				<g>
					<g>
						<path fill="#2EE8ED" d="M24.801,11.02c0-4.251,3.449-7.698,7.699-7.698c4.252,0,7.697,3.447,7.697,7.698"/>
					</g>
					<g>
						<path fill="#0092AA" d="M40.197,13.52c-1.381,0-2.5-1.119-2.5-2.5c0-2.866-2.33-5.198-5.197-5.198s-5.199,2.332-5.199,5.198
							c0,1.381-1.117,2.5-2.5,2.5c-1.381,0-2.5-1.119-2.5-2.5c0-5.623,4.576-10.198,10.199-10.198S42.697,5.396,42.697,11.02
							C42.697,12.4,41.578,13.52,40.197,13.52z"/>
					</g>
				</g>
				<g>
					<g>
						<g>
							<path fill="#2EE8ED" d="M58.236,48.539c3.006,3.006,3.006,7.88,0,10.885c-3.006,3.008-7.881,3.006-10.885,0"/>
						</g>
						<g>
							<path fill="#0092AA" d="M52.793,64.179L52.793,64.179c-2.725,0-5.285-1.062-7.209-2.988c-0.977-0.977-0.977-2.56,0.002-3.535
								c0.975-0.976,2.559-0.977,3.535,0.002c0.98,0.981,2.285,1.521,3.672,1.521l0,0c1.391,0,2.693-0.54,3.674-1.522
								c0.982-0.981,1.523-2.286,1.523-3.675c0-1.388-0.541-2.693-1.521-3.675c-0.977-0.977-0.977-2.559,0-3.535
								s2.559-0.977,3.535,0c1.926,1.926,2.986,4.486,2.986,7.21c0,2.725-1.061,5.285-2.986,7.21
								C58.078,63.118,55.518,64.179,52.793,64.179z"/>
						</g>
					</g>
					<g>
						<g>
							<path fill="#2EE8ED" d="M6.766,48.539c-3.006,3.006-3.006,7.88,0,10.885c3.006,3.008,7.879,3.006,10.883,0"/>
						</g>
						<g>
							<path fill="#0092AA" d="M12.205,64.179c-2.723,0-5.283-1.061-7.209-2.987c-1.924-1.925-2.986-4.485-2.986-7.21
								c0-2.724,1.062-5.284,2.988-7.21c0.977-0.977,2.559-0.977,3.535,0s0.977,2.559,0,3.535c-0.982,0.981-1.523,2.287-1.523,3.675
								c0,1.389,0.541,2.693,1.523,3.675c0.98,0.982,2.285,1.522,3.672,1.522h0.002c1.387,0,2.691-0.541,3.674-1.522
								c0.977-0.977,2.559-0.977,3.535,0c0.979,0.977,0.979,2.559,0,3.535c-1.926,1.927-4.486,2.987-7.209,2.987H12.205z"/>
						</g>
					</g>
				</g>
			</g>
		</g>
		<g>
			<g>
				<circle fill="#0092AA" cx="28.438" cy="37.166" r="1.062"/>
			</g>
			<g>
				<circle fill="#0092AA" cx="32.5" cy="37.166" r="1.062"/>
			</g>
			<g>
				<circle fill="#0092AA" cx="36.562" cy="37.166" r="1.062"/>
			</g>
		</g>
	</g>
</g>
<g id="nyt_x5F_exporter_x5F_info" display="none">
</g>
</svg>
