<?xml version="1.0" encoding="utf-8"?>
<!-- Generator: Adobe Illustrator 16.0.0, SVG Export Plug-In . SVG Version: 6.00 Build 0)  -->
<!DOCTYPE svg PUBLIC "-//W3C//DTD SVG 1.1//EN" "http://www.w3.org/Graphics/SVG/1.1/DTD/svg11.dtd">
<svg version="1.1" xmlns="http://www.w3.org/2000/svg" xmlns:xlink="http://www.w3.org/1999/xlink" x="0px" y="0px" width="65px"
	 height="65px" viewBox="0 0 65 65" enable-background="new 0 0 65 65" xml:space="preserve">
<g id="Layer_1">
	<g>
		<g>
			<g>
				<g>
					<path fill="#77D0E5" d="M10.667,28.757c-6.955-6.952-6.955-18.229-0.002-25.183"/>
				</g>
				<g>
					<path fill="#FF80CC" d="M10.667,31.257c-0.64,0-1.279-0.244-1.768-0.731C5.063,26.69,2.952,21.591,2.95,16.166
						c0-5.424,2.112-10.523,5.947-14.359c0.977-0.977,2.559-0.977,3.535,0c0.977,0.976,0.977,2.559,0,3.535
						C9.542,8.233,7.95,12.077,7.95,16.166s1.592,7.933,4.484,10.822c0.977,0.977,0.977,2.56,0.001,3.536
						C11.946,31.013,11.308,31.257,10.667,31.257z"/>
				</g>
			</g>
			<g>
				<g>
					<path fill="#77D0E5" d="M54.333,36.242c6.955,6.953,6.955,18.229,0.002,25.184"/>
				</g>
				<g>
					<path fill="#FF80CC" d="M54.335,63.926c-0.64,0-1.279-0.244-1.768-0.732c-0.977-0.976-0.977-2.559,0-3.535
						c5.967-5.97,5.967-15.681-0.002-21.648c-0.977-0.976-0.977-2.559,0-3.535c0.975-0.977,2.559-0.977,3.535,0
						c3.836,3.835,5.948,8.934,5.949,14.358c0,5.425-2.113,10.524-5.947,14.36C55.615,63.682,54.976,63.926,54.335,63.926z"/>
				</g>
			</g>
		</g>
		<g>
			<g>
				<g>
					<polyline fill="#77D0E5" points="16.313,16.323 32.5,32.511 48.687,16.323 31.657,16.323 					"/>
				</g>
				<g>
					<path fill="#FF80CC" d="M32.5,35.011c-0.663,0-1.299-0.264-1.768-0.732L14.546,18.091c-0.977-0.977-0.977-2.56,0-3.535
						c0.977-0.977,2.559-0.977,3.535,0L32.5,28.976l10.151-10.152H31.657c-1.381,0-2.5-1.119-2.5-2.5s1.119-2.5,2.5-2.5h17.029
						c1.011,0,1.922,0.609,2.31,1.543c0.387,0.935,0.173,2.01-0.542,2.725L34.268,34.278C33.799,34.747,33.163,35.011,32.5,35.011z"
						/>
				</g>
			</g>
			<g>
				<g>
					<polyline fill="#77D0E5" points="48.687,48.677 32.499,32.489 16.313,48.677 33.341,48.677 					"/>
				</g>
				<g>
					<path fill="#FF80CC" d="M48.687,51.177c-0.64,0-1.279-0.244-1.768-0.732l-14.42-14.42l-10.15,10.152h10.992
						c1.381,0,2.5,1.119,2.5,2.5s-1.119,2.5-2.5,2.5H16.313c-1.011,0-1.922-0.609-2.311-1.543c-0.386-0.935-0.172-2.01,0.543-2.725
						l16.186-16.188c0.938-0.938,2.598-0.938,3.535,0l16.188,16.188c0.977,0.977,0.977,2.559,0,3.535
						C49.966,50.933,49.325,51.177,48.687,51.177z"/>
				</g>
			</g>
		</g>
	</g>
</g>
<g id="nyt_x5F_exporter_x5F_info" display="none">
</g>
</svg>
