<?xml version="1.0" encoding="utf-8"?>
<!-- Generator: Adobe Illustrator 16.0.0, SVG Export Plug-In . SVG Version: 6.00 Build 0)  -->
<!DOCTYPE svg PUBLIC "-//W3C//DTD SVG 1.1//EN" "http://www.w3.org/Graphics/SVG/1.1/DTD/svg11.dtd">
<svg version="1.1" xmlns="http://www.w3.org/2000/svg" xmlns:xlink="http://www.w3.org/1999/xlink" x="0px" y="0px" width="65px"
	 height="65px" viewBox="0 0 65 65" enable-background="new 0 0 65 65" xml:space="preserve">
<g id="Layer_1">
	<g>
		<g>
			<g>
				<g>
					<polygon fill="#FFDA00" points="61.43,27.404 47.686,3.6 17.313,3.6 3.57,27.404 					"/>
				</g>
				<g>
					<polyline fill="#FFB000" points="3.57,27.404 61.43,27.404 47.686,3.6 					"/>
				</g>
				<g>
					<path fill="#FF7300" d="M61.43,29.904H3.57c-0.894,0-1.719-0.477-2.165-1.25s-0.446-1.727,0-2.5L15.148,2.35
						c0.445-0.773,1.271-1.25,2.165-1.25h30.372c0.895,0,1.72,0.477,2.166,1.25l13.742,23.804c0.447,0.773,0.447,1.727,0,2.5
						C63.148,29.427,62.323,29.904,61.43,29.904z M7.9,24.904H57.1L46.243,6.1H18.757L7.9,24.904z"/>
				</g>
			</g>
			<g>
				<g>
					<line fill="#FFB000" x1="32.5" y1="58.904" x2="32.5" y2="29.571"/>
				</g>
				<g>
					<path fill="#FF7300" d="M32.5,61.404c-1.381,0-2.5-1.119-2.5-2.5V29.571c0-1.381,1.119-2.5,2.5-2.5s2.5,1.119,2.5,2.5v29.333
						C35,60.285,33.881,61.404,32.5,61.404z"/>
				</g>
			</g>
			<g>
				<g>
					<line fill="#FFB000" x1="25" y1="35.904" x2="40" y2="35.904"/>
				</g>
				<g>
					<path fill="#FF7300" d="M40,38.404H25c-1.381,0-2.5-1.119-2.5-2.5s1.119-2.5,2.5-2.5h15c1.381,0,2.5,1.119,2.5,2.5
						S41.381,38.404,40,38.404z"/>
				</g>
			</g>
			<g>
				<g>
					
						<rect x="25.666" y="44.903" transform="matrix(0.7071 0.7071 -0.7071 0.7071 46.1021 -7.8278)" fill="#FFDA00" width="13.667" height="13.667"/>
				</g>
				<g>
					<polyline fill="#FFB000" points="32.5,42.072 42.164,51.736 32.5,61.4 					"/>
				</g>
				<g>
					<path fill="#FF7300" d="M32.5,63.9c-0.641,0-1.279-0.244-1.768-0.732l-9.664-9.664c-0.977-0.977-0.977-2.559,0-3.535
						l9.664-9.664c0.977-0.977,2.559-0.977,3.535,0l9.664,9.664c0.977,0.977,0.977,2.559,0,3.535l-9.664,9.664
						C33.779,63.656,33.14,63.9,32.5,63.9z M26.371,51.736l6.129,6.129l6.129-6.129L32.5,45.607L26.371,51.736z"/>
				</g>
			</g>
		</g>
		<g>
			<g>
				<circle fill="#FFDA00" cx="32.5" cy="11.924" r="1.062"/>
			</g>
			<g>
				<circle fill="#FFDA00" cx="32.5" cy="15.987" r="1.062"/>
			</g>
			<g>
				<circle fill="#FFDA00" cx="32.5" cy="20.049" r="1.062"/>
			</g>
		</g>
	</g>
</g>
<g id="nyt_x5F_exporter_x5F_info" display="none">
</g>
</svg>
