<?xml version="1.0" encoding="utf-8"?>
<!-- Generator: Adobe Illustrator 16.0.0, SVG Export Plug-In . SVG Version: 6.00 Build 0)  -->
<!DOCTYPE svg PUBLIC "-//W3C//DTD SVG 1.1//EN" "http://www.w3.org/Graphics/SVG/1.1/DTD/svg11.dtd">
<svg version="1.1" xmlns="http://www.w3.org/2000/svg" xmlns:xlink="http://www.w3.org/1999/xlink" x="0px" y="0px" width="65px"
	 height="65px" viewBox="0 0 65 65" enable-background="new 0 0 65 65" xml:space="preserve">
<g id="Layer_1">
	<g>
		<g>
			<g>
				<g>
					<path fill="#DEEFCE" d="M38.683,51.977H10.614c0,0,20.426-22.105,20.426-35.2c0-22.617-23.709-9.484-23.709-9.484"/>
				</g>
				<g>
					<path fill="#C5DBB2" d="M57.669,51.977H10.614c0,0,20.426-22.105,20.426-35.2c0-22.617-23.709-9.484-23.709-9.484"/>
				</g>
				<g>
					<path fill="#1BA81E" d="M57.669,54.477H10.614c-0.993,0-1.891-0.588-2.29-1.498c-0.398-0.909-0.22-1.969,0.454-2.698
						c5.496-5.952,19.762-23.575,19.762-33.504c0-5.029-1.253-8.317-3.724-9.773C20.122,4.237,11.478,7.854,8.542,9.479
						c-1.203,0.67-2.728,0.233-3.398-0.976C4.476,7.296,4.911,5.774,6.12,5.105c0.533-0.295,13.148-7.176,21.234-2.41
						c4.104,2.418,6.186,7.156,6.186,14.081c0,10.438-11.384,25.455-17.436,32.7h41.564c1.381,0,2.5,1.119,2.5,2.5
						S59.05,54.477,57.669,54.477z"/>
				</g>
			</g>
			<g>
				<g>
					<line fill="#C5DBB2" x1="47.819" y1="3.5" x2="47.819" y2="61.5"/>
				</g>
				<g>
					<path fill="#1BA81E" d="M47.819,64c-1.381,0-2.5-1.119-2.5-2.5v-58c0-1.381,1.119-2.5,2.5-2.5s2.5,1.119,2.5,2.5v58
						C50.319,62.881,49.2,64,47.819,64z"/>
				</g>
			</g>
		</g>
		<g>
			<g>
				<circle fill="#1BA81E" cx="29.995" cy="43.333" r="1.062"/>
			</g>
			<g>
				<circle fill="#1BA81E" cx="34.058" cy="43.333" r="1.062"/>
			</g>
			<g>
				<circle fill="#1BA81E" cx="38.12" cy="43.333" r="1.062"/>
			</g>
		</g>
	</g>
</g>
<g id="nyt_x5F_exporter_x5F_info" display="none">
</g>
</svg>
