<?xml version="1.0" encoding="utf-8"?>
<!-- Generator: Adobe Illustrator 16.0.0, SVG Export Plug-In . SVG Version: 6.00 Build 0)  -->
<!DOCTYPE svg PUBLIC "-//W3C//DTD SVG 1.1//EN" "http://www.w3.org/Graphics/SVG/1.1/DTD/svg11.dtd">
<svg version="1.1" xmlns="http://www.w3.org/2000/svg" xmlns:xlink="http://www.w3.org/1999/xlink" x="0px" y="0px" width="65px"
	 height="65px" viewBox="0 0 65 65" enable-background="new 0 0 65 65" xml:space="preserve">
<g id="Layer_1">
	<g>
		<g>
			<g>
				<g>
					<polygon fill="#29B9CC" points="54.94,3.614 32.51,42.47 10.077,3.614 					"/>
				</g>
				<g>
					<polygon fill="#27C4CC" points="34.869,3.614 32.51,42.47 10.077,3.614 					"/>
				</g>
				<g>
					<path fill="#A03A61" d="M10.06,1.114c0.005,0,0.01,0,0.018,0H54.94c0.894,0,1.72,0.477,2.164,1.25
						c0.447,0.773,0.447,1.727,0,2.5L34.674,43.72c-0.446,0.773-1.272,1.25-2.164,1.25c-0.895,0-1.72-0.477-2.167-1.25L8.055,5.112
						C7.741,4.694,7.56,4.177,7.56,3.614C7.56,2.233,8.678,1.114,10.06,1.114z M50.611,6.114H14.408L32.51,37.47L50.611,6.114z"/>
				</g>
			</g>
			<g>
				<g>
					<line fill="#C1B584" x1="32.51" y1="41.886" x2="32.51" y2="61.386"/>
				</g>
				<g>
					<path fill="#A03A61" d="M32.51,39.386c1.382,0,2.5,1.119,2.5,2.5v19.5c0,1.381-1.118,2.5-2.5,2.5c-1.381,0-2.5-1.119-2.5-2.5
						v-19.5C30.01,40.505,31.129,39.386,32.51,39.386z"/>
				</g>
			</g>
			<g>
				<g>
					<line fill="#C1B584" x1="41.072" y1="50.095" x2="23.946" y2="50.095"/>
				</g>
				<g>
					<path fill="#A03A61" d="M23.946,47.595h17.126c1.381,0,2.5,1.119,2.5,2.5s-1.119,2.5-2.5,2.5H23.946
						c-1.381,0-2.499-1.119-2.499-2.5S22.565,47.595,23.946,47.595z"/>
				</g>
			</g>
			<g>
				<g>
					<line fill="#C1B584" x1="41.072" y1="57.761" x2="23.946" y2="57.761"/>
				</g>
				<g>
					<path fill="#A03A61" d="M23.946,55.261h17.126c1.381,0,2.5,1.119,2.5,2.5s-1.119,2.5-2.5,2.5H23.946
						c-1.381,0-2.499-1.119-2.499-2.5S22.565,55.261,23.946,55.261z"/>
				</g>
			</g>
		</g>
		<g>
			<g>
				<circle fill="#A03A61" cx="36.562" cy="17.261" r="1.062"/>
			</g>
			<g>
				<circle fill="#A03A61" cx="32.5" cy="17.261" r="1.063"/>
			</g>
			<g>
				<circle fill="#A03A61" cx="28.437" cy="17.261" r="1.063"/>
			</g>
		</g>
	</g>
</g>
<g id="nyt_x5F_exporter_x5F_info" display="none">
</g>
</svg>
