<?xml version="1.0" encoding="utf-8"?>
<!-- Generator: Adobe Illustrator 16.0.0, SVG Export Plug-In . SVG Version: 6.00 Build 0)  -->
<!DOCTYPE svg PUBLIC "-//W3C//DTD SVG 1.1//EN" "http://www.w3.org/Graphics/SVG/1.1/DTD/svg11.dtd">
<svg version="1.1" xmlns="http://www.w3.org/2000/svg" xmlns:xlink="http://www.w3.org/1999/xlink" x="0px" y="0px" width="65px"
	 height="65px" viewBox="0 0 65 65" enable-background="new 0 0 65 65" xml:space="preserve">
<g id="Layer_1">
	<g>
		<g>
			<g>
				<g>
					<g>
						<path fill="#EDCF85" d="M54,4.333c3.131,0,5.668,2.537,5.668,5.666l0,0c0,3.131-2.537,5.668-5.668,5.668H11
							c-3.129,0-5.666-2.537-5.666-5.668l0,0c0-3.129,2.537-5.666,5.666-5.666"/>
					</g>
					<g>
						<path fill="#E02C0E" d="M54,18.167H11c-4.503,0-8.166-3.664-8.166-8.168c0-4.503,3.663-8.166,8.166-8.166
							c1.381,0,2.5,1.119,2.5,2.5s-1.119,2.5-2.5,2.5c-1.746,0-3.166,1.42-3.166,3.166c0,1.747,1.42,3.168,3.166,3.168h43
							c1.747,0,3.168-1.421,3.168-3.168c0-1.746-1.421-3.166-3.168-3.166c-1.381,0-2.5-1.119-2.5-2.5s1.119-2.5,2.5-2.5
							c4.504,0,8.168,3.663,8.168,8.166C62.168,14.503,58.504,18.167,54,18.167z"/>
					</g>
				</g>
				<g>
					<g>
						<g>
							<path fill="#EDCF85" d="M11.334,4.333c2.164,0,3.916,1.752,3.916,3.916"/>
						</g>
						<g>
							<path fill="#E02C0E" d="M15.25,10.749c-1.381,0-2.5-1.119-2.5-2.5c0-0.781-0.635-1.416-1.416-1.416
								c-1.381,0-2.5-1.119-2.5-2.5s1.119-2.5,2.5-2.5c3.538,0,6.416,2.878,6.416,6.416C17.75,9.63,16.631,10.749,15.25,10.749z"/>
						</g>
					</g>
					<g>
						<g>
							<path fill="#EDCF85" d="M49.75,8.249c0-2.164,1.752-3.916,3.916-3.916"/>
						</g>
						<g>
							<path fill="#E02C0E" d="M49.75,10.749c-1.381,0-2.5-1.119-2.5-2.5c0-3.538,2.878-6.416,6.416-6.416
								c1.381,0,2.5,1.119,2.5,2.5s-1.119,2.5-2.5,2.5c-0.781,0-1.416,0.635-1.416,1.416C52.25,9.63,51.131,10.749,49.75,10.749z"/>
						</g>
					</g>
				</g>
			</g>
			<g>
				<g>
					<g>
						<path fill="#EDCF85" d="M11,60.667c-3.131,0-5.668-2.537-5.668-5.666l0,0c0-3.131,2.537-5.668,5.668-5.668h43
							c3.129,0,5.666,2.537,5.666,5.668l0,0c0,3.129-2.537,5.666-5.666,5.666"/>
					</g>
					<g>
						<path fill="#E02C0E" d="M54,63.167c-1.381,0-2.5-1.119-2.5-2.5s1.119-2.5,2.5-2.5c1.746,0,3.166-1.42,3.166-3.166
							c0-1.747-1.42-3.168-3.166-3.168H11c-1.747,0-3.168,1.421-3.168,3.168c0,1.746,1.421,3.166,3.168,3.166
							c1.381,0,2.5,1.119,2.5,2.5s-1.119,2.5-2.5,2.5c-4.504,0-8.168-3.663-8.168-8.166c0-4.504,3.664-8.168,8.168-8.168h43
							c4.502,0,8.166,3.664,8.166,8.168C62.166,59.504,58.502,63.167,54,63.167z"/>
					</g>
				</g>
				<g>
					<g>
						<g>
							<path fill="#EDCF85" d="M53.666,60.667c-2.164,0-3.916-1.752-3.916-3.916"/>
						</g>
						<g>
							<path fill="#E02C0E" d="M53.666,63.167c-3.538,0-6.416-2.878-6.416-6.416c0-1.381,1.119-2.5,2.5-2.5s2.5,1.119,2.5,2.5
								c0,0.781,0.635,1.416,1.416,1.416c1.381,0,2.5,1.119,2.5,2.5S55.047,63.167,53.666,63.167z"/>
						</g>
					</g>
					<g>
						<g>
							<path fill="#EDCF85" d="M15.25,56.751c0,2.164-1.752,3.916-3.916,3.916"/>
						</g>
						<g>
							<path fill="#E02C0E" d="M11.334,63.167c-1.381,0-2.5-1.119-2.5-2.5s1.119-2.5,2.5-2.5c0.781,0,1.416-0.635,1.416-1.416
								c0-1.381,1.119-2.5,2.5-2.5s2.5,1.119,2.5,2.5C17.75,60.289,14.872,63.167,11.334,63.167z"/>
						</g>
					</g>
				</g>
			</g>
		</g>
		<g>
			<g>
				<g>
					<line fill="#EDCF85" x1="16" y1="16" x2="16" y2="49"/>
				</g>
				<g>
					<path fill="#E02C0E" d="M16,51.5c-1.381,0-2.5-1.119-2.5-2.5V16c0-1.381,1.119-2.5,2.5-2.5s2.5,1.119,2.5,2.5v33
						C18.5,50.381,17.381,51.5,16,51.5z"/>
				</g>
			</g>
			<g>
				<g>
					<line fill="#EDCF85" x1="49" y1="16" x2="49" y2="49"/>
				</g>
				<g>
					<path fill="#E02C0E" d="M49,51.5c-1.381,0-2.5-1.119-2.5-2.5V16c0-1.381,1.119-2.5,2.5-2.5s2.5,1.119,2.5,2.5v33
						C51.5,50.381,50.381,51.5,49,51.5z"/>
				</g>
			</g>
		</g>
		<g>
			<g>
				<g>
					<line fill="#EDCF85" x1="25.084" y1="39.917" x2="39.917" y2="25.083"/>
				</g>
				<g>
					<path fill="#E02C0E" d="M25.084,42.417c-0.641,0-1.281-0.244-1.769-0.732c-0.978-0.977-0.978-2.559,0-3.535l14.833-14.834
						c0.977-0.977,2.56-0.977,3.535,0c0.977,0.977,0.977,2.559,0,3.535L26.851,41.685C26.362,42.173,25.723,42.417,25.084,42.417z"
						/>
				</g>
			</g>
			<g>
				<g>
					<line fill="#EDCF85" x1="25.084" y1="25.083" x2="39.917" y2="39.917"/>
				</g>
				<g>
					<path fill="#E02C0E" d="M39.917,42.417c-0.64,0-1.279-0.244-1.769-0.732L23.315,26.851c-0.978-0.977-0.978-2.559,0-3.535
						c0.977-0.977,2.558-0.977,3.535,0l14.833,14.834c0.977,0.977,0.977,2.559,0,3.535C41.196,42.173,40.557,42.417,39.917,42.417z"
						/>
				</g>
			</g>
		</g>
	</g>
</g>
<g id="nyt_x5F_exporter_x5F_info" display="none">
</g>
</svg>
