<?xml version="1.0" encoding="utf-8"?>
<!-- Generator: Adobe Illustrator 16.0.0, SVG Export Plug-In . SVG Version: 6.00 Build 0)  -->
<!DOCTYPE svg PUBLIC "-//W3C//DTD SVG 1.1//EN" "http://www.w3.org/Graphics/SVG/1.1/DTD/svg11.dtd">
<svg version="1.1" xmlns="http://www.w3.org/2000/svg" xmlns:xlink="http://www.w3.org/1999/xlink" x="0px" y="0px" width="65px"
	 height="65px" viewBox="0 0 65 65" enable-background="new 0 0 65 65" xml:space="preserve">
<g id="Layer_1">
	<g>
		<g>
			<g>
				<g>
					<path fill="#27C4CC" d="M19.959,3.417c10.414,0,18.857,8.441,18.857,18.855s-8.443,18.855-18.857,18.855"/>
				</g>
				<g>
					<path fill="#3FE0E0" d="M19.959,3.417c10.414,0,18.857,8.441,18.857,18.855"/>
				</g>
				<g>
					<path fill="#348BC6" d="M19.959,43.628c-1.381,0-2.5-1.119-2.5-2.5s1.119-2.5,2.5-2.5c9.02,0,16.357-7.337,16.357-16.355
						S28.979,5.917,19.959,5.917c-1.381,0-2.5-1.119-2.5-2.5s1.119-2.5,2.5-2.5c11.777,0,21.357,9.58,21.357,21.355
						S31.736,43.628,19.959,43.628z"/>
				</g>
			</g>
			<g>
				<g>
					<path fill="#348BC6" d="M45.041,64.083H19.959c-1.381,0-2.5-1.119-2.5-2.5V3.417c0-1.381,1.119-2.5,2.5-2.5s2.5,1.119,2.5,2.5
						v55.666h22.582c1.381,0,2.5,1.119,2.5,2.5S46.422,64.083,45.041,64.083z"/>
				</g>
			</g>
		</g>
		<g>
			<g>
				<circle fill="#3FE0E0" cx="36.437" cy="50.21" r="1.062"/>
			</g>
			<g>
				<circle fill="#3FE0E0" cx="39.31" cy="53.083" r="1.062"/>
			</g>
			<g>
				<circle fill="#3FE0E0" cx="42.182" cy="55.955" r="1.063"/>
			</g>
		</g>
	</g>
</g>
<g id="nyt_x5F_exporter_x5F_info" display="none">
</g>
</svg>
