<?xml version="1.0" encoding="utf-8"?>
<!-- Generator: Adobe Illustrator 16.0.0, SVG Export Plug-In . SVG Version: 6.00 Build 0)  -->
<!DOCTYPE svg PUBLIC "-//W3C//DTD SVG 1.1//EN" "http://www.w3.org/Graphics/SVG/1.1/DTD/svg11.dtd">
<svg version="1.1" xmlns="http://www.w3.org/2000/svg" xmlns:xlink="http://www.w3.org/1999/xlink" x="0px" y="0px" width="65px"
	 height="65px" viewBox="0 0 65 65" enable-background="new 0 0 65 65" xml:space="preserve">
<g id="Layer_1">
	<g>
		<g>
			<g>
				<g>
					<g>
						<polygon fill="#29CC91" points="61.559,7.334 32.5,57.666 3.441,7.334 						"/>
					</g>
					<g>
						<polygon fill="#089CA0" points="51.559,7.334 32.5,57.666 13.441,7.334 						"/>
					</g>
					<g>
						<path fill="#2D4459" d="M32.5,60.166c-0.893,0-1.719-0.477-2.164-1.25L1.277,8.584c-0.447-0.773-0.447-1.727,0-2.5
							c0.445-0.773,1.271-1.25,2.164-1.25h58.117c0.895,0,1.719,0.477,2.166,1.25c0.445,0.773,0.445,1.727,0,2.5L34.666,58.916
							C34.219,59.689,33.395,60.166,32.5,60.166z M7.771,9.834L32.5,52.666L57.229,9.834H7.771z"/>
					</g>
				</g>
			</g>
			<g>
				<g>
					<path fill="#2D4459" d="M62.977,20.75c0,1.381-1.119,2.5-2.5,2.5h-4.775c-1.381,0-2.5-1.119-2.5-2.5s1.119-2.5,2.5-2.5h4.775
						C61.857,18.25,62.977,19.369,62.977,20.75z"/>
				</g>
			</g>
		</g>
		<g>
			<g>
				<circle fill="#29CC91" cx="10.225" cy="47.083" r="1.062"/>
			</g>
			<g>
				<circle fill="#29CC91" cx="14.289" cy="47.083" r="1.062"/>
			</g>
			<g>
				<circle fill="#29CC91" cx="18.35" cy="47.083" r="1.062"/>
			</g>
		</g>
	</g>
</g>
<g id="nyt_x5F_exporter_x5F_info" display="none">
</g>
</svg>
