<?xml version="1.0" encoding="utf-8"?>
<!-- Generator: Adobe Illustrator 16.0.0, SVG Export Plug-In . SVG Version: 6.00 Build 0)  -->
<!DOCTYPE svg PUBLIC "-//W3C//DTD SVG 1.1//EN" "http://www.w3.org/Graphics/SVG/1.1/DTD/svg11.dtd">
<svg version="1.1" xmlns="http://www.w3.org/2000/svg" xmlns:xlink="http://www.w3.org/1999/xlink" x="0px" y="0px" width="65px"
	 height="65px" viewBox="0 0 65 65" enable-background="new 0 0 65 65" xml:space="preserve">
<g id="Layer_1">
	<g>
		<g>
			<g>
				<g>
					<g>
						<polygon fill="#80CEC8" points="61.56,7.334 32.499,57.666 3.441,7.334 						"/>
					</g>
					<g>
						<polygon fill="#62B5B1" points="61.56,7.334 32.499,57.666 31.808,7.334 						"/>
					</g>
					<g>
						<path fill="#888F99" d="M32.499,60.166c-0.893,0-1.718-0.477-2.164-1.25L1.276,8.584c-0.446-0.773-0.446-1.727,0-2.5
							s1.271-1.25,2.165-1.25H61.56c0.893,0,1.718,0.477,2.164,1.25s0.446,1.727,0,2.5L34.665,58.916
							C34.219,59.689,33.394,60.166,32.499,60.166z M7.771,9.834l24.728,42.832L57.229,9.834H7.771z"/>
					</g>
				</g>
			</g>
			<g>
				<g>
					<line fill="#62B5B1" x1="15.333" y1="40.834" x2="49.667" y2="40.834"/>
				</g>
				<g>
					<path fill="#888F99" d="M49.667,43.334H15.333c-1.381,0-2.5-1.119-2.5-2.5s1.119-2.5,2.5-2.5h34.334c1.381,0,2.5,1.119,2.5,2.5
						S51.048,43.334,49.667,43.334z"/>
				</g>
			</g>
		</g>
		<g>
			<g>
				<circle fill="#80CEC8" cx="37.808" cy="12.771" r="1.062"/>
			</g>
			<g>
				<circle fill="#80CEC8" cx="37.808" cy="16.833" r="1.062"/>
			</g>
			<g>
				<circle fill="#80CEC8" cx="37.808" cy="20.896" r="1.062"/>
			</g>
		</g>
		<g>
			<g>
				<circle fill="#80CEC8" cx="41.308" cy="12.771" r="1.062"/>
			</g>
			<g>
				<circle fill="#80CEC8" cx="41.308" cy="16.833" r="1.062"/>
			</g>
			<g>
				<circle fill="#80CEC8" cx="41.308" cy="20.896" r="1.062"/>
			</g>
		</g>
	</g>
</g>
<g id="nyt_x5F_exporter_x5F_info" display="none">
</g>
</svg>
