<?xml version="1.0" encoding="utf-8"?>
<!-- Generator: Adobe Illustrator 16.0.0, SVG Export Plug-In . SVG Version: 6.00 Build 0)  -->
<!DOCTYPE svg PUBLIC "-//W3C//DTD SVG 1.1//EN" "http://www.w3.org/Graphics/SVG/1.1/DTD/svg11.dtd">
<svg version="1.1" xmlns="http://www.w3.org/2000/svg" xmlns:xlink="http://www.w3.org/1999/xlink" x="0px" y="0px" width="65px"
	 height="65px" viewBox="0 0 65 65" enable-background="new 0 0 65 65" xml:space="preserve">
<g id="Layer_1">
	<g>
		<g>
			<g>
				<g>
					<polygon fill="#F46991" points="61.559,7.334 32.5,57.666 3.441,7.334 					"/>
				</g>
				<g>
					<polygon fill="#E5486E" points="51.559,7.334 32.5,57.666 13.441,7.334 					"/>
				</g>
				<g>
					<path fill="#BC2B71" d="M32.5,60.166c-0.894,0-1.719-0.477-2.166-1.25L1.275,8.584c-0.445-0.773-0.445-1.727,0-2.5
						c0.447-0.773,1.271-1.25,2.166-1.25h58.117c0.894,0,1.719,0.477,2.166,1.25c0.445,0.773,0.445,1.727,0,2.5l-29.06,50.332
						C34.219,59.689,33.394,60.166,32.5,60.166z M7.771,9.834L32.5,52.666L57.229,9.834H7.771z"/>
				</g>
			</g>
		</g>
		<g>
			<g>
				<g>
					<circle fill="#FCACC7" cx="28.438" cy="32.5" r="1.062"/>
				</g>
				<g>
					<circle fill="#FCACC7" cx="32.5" cy="32.5" r="1.062"/>
				</g>
				<g>
					<circle fill="#FCACC7" cx="36.562" cy="32.5" r="1.062"/>
				</g>
			</g>
			<g>
				<g>
					<circle fill="#FCACC7" cx="32.5" cy="28.438" r="1.062"/>
				</g>
				<g>
					<circle fill="#FCACC7" cx="32.5" cy="32.5" r="1.062"/>
				</g>
				<g>
					<circle fill="#FCACC7" cx="32.5" cy="36.562" r="1.062"/>
				</g>
			</g>
		</g>
	</g>
</g>
<g id="nyt_x5F_exporter_x5F_info" display="none">
</g>
</svg>
