<?xml version="1.0" encoding="utf-8"?>
<!-- Generator: Adobe Illustrator 16.0.0, SVG Export Plug-In . SVG Version: 6.00 Build 0)  -->
<!DOCTYPE svg PUBLIC "-//W3C//DTD SVG 1.1//EN" "http://www.w3.org/Graphics/SVG/1.1/DTD/svg11.dtd">
<svg version="1.1" xmlns="http://www.w3.org/2000/svg" xmlns:xlink="http://www.w3.org/1999/xlink" x="0px" y="0px" width="65px"
	 height="65px" viewBox="0 0 65 65" enable-background="new 0 0 65 65" xml:space="preserve">
<g id="Layer_1">
	<g>
		<g>
			<g>
				<g>
					<polygon fill="#3F4444" points="3.432,57.666 32.49,7.334 61.549,57.666 					"/>
				</g>
				<g>
					<polygon fill="#2B3333" points="32.797,57.666 32.49,7.334 61.549,57.666 					"/>
				</g>
				<g>
					<path d="M61.568,60.166c0,0-0.011,0.001-0.02,0H3.432c-0.895,0-1.719-0.477-2.166-1.25c-0.445-0.773-0.445-1.727,0-2.5
						L30.324,6.084c0.446-0.773,1.271-1.25,2.166-1.25c0.893,0,1.718,0.477,2.164,1.25l28.917,50.085
						c0.312,0.418,0.497,0.936,0.497,1.497C64.068,59.047,62.949,60.166,61.568,60.166z M7.762,55.166h49.457L32.49,12.334
						L7.762,55.166z"/>
				</g>
			</g>
			<g>
				<g>
					<g>
						<g>
							<line fill="#2B3333" x1="8.866" y1="14.666" x2="8.866" y2="23.999"/>
						</g>
						<g>
							<path d="M8.866,26.499c-1.381,0-2.5-1.119-2.5-2.5v-9.333c0-1.381,1.119-2.5,2.5-2.5s2.5,1.119,2.5,2.5v9.333
								C11.366,25.38,10.247,26.499,8.866,26.499z"/>
						</g>
					</g>
					<g>
						<g>
							<line fill="#2B3333" x1="24.365" y1="19.335" x2="8.865" y2="19.335"/>
						</g>
						<g>
							<path d="M24.365,21.835h-15.5c-1.381,0-2.5-1.119-2.5-2.5s1.119-2.5,2.5-2.5h15.5c1.381,0,2.5,1.119,2.5,2.5
								S25.746,21.835,24.365,21.835z"/>
						</g>
					</g>
				</g>
				<g>
					<g>
						<g>
							<line fill="#2B3333" x1="56.113" y1="23.999" x2="56.113" y2="14.666"/>
						</g>
						<g>
							<path d="M56.113,26.499c-1.381,0-2.5-1.119-2.5-2.5v-9.333c0-1.381,1.119-2.5,2.5-2.5s2.5,1.119,2.5,2.5v9.333
								C58.613,25.38,57.494,26.499,56.113,26.499z"/>
						</g>
					</g>
					<g>
						<g>
							<line fill="#2B3333" x1="40.615" y1="19.33" x2="56.115" y2="19.33"/>
						</g>
						<g>
							<path d="M56.115,21.83h-15.5c-1.381,0-2.5-1.119-2.5-2.5s1.119-2.5,2.5-2.5h15.5c1.381,0,2.5,1.119,2.5,2.5
								S57.496,21.83,56.115,21.83z"/>
						</g>
					</g>
				</g>
			</g>
		</g>
		<g>
			<g>
				<circle fill="#818C8B" cx="32.5" cy="34.438" r="1.062"/>
			</g>
			<g>
				<circle fill="#818C8B" cx="32.5" cy="38.5" r="1.062"/>
			</g>
			<g>
				<circle fill="#818C8B" cx="32.5" cy="42.562" r="1.062"/>
			</g>
		</g>
	</g>
</g>
<g id="nyt_x5F_exporter_x5F_info" display="none">
</g>
</svg>
