<?xml version="1.0" encoding="utf-8"?>
<!-- Generator: Adobe Illustrator 16.0.0, SVG Export Plug-In . SVG Version: 6.00 Build 0)  -->
<!DOCTYPE svg PUBLIC "-//W3C//DTD SVG 1.1//EN" "http://www.w3.org/Graphics/SVG/1.1/DTD/svg11.dtd">
<svg version="1.1" id="Layer_1" xmlns="http://www.w3.org/2000/svg" xmlns:xlink="http://www.w3.org/1999/xlink" x="0px" y="0px"
	 width="64px" height="64px" viewBox="0 0 64 64" enable-background="new 0 0 64 64" xml:space="preserve">
<g>
	<g>
		<g>
			<g>
				<path fill="#F7910B" d="M62.3,37.5C62.3,50.5,50.4,61,32,61C13.6,61,1.7,50.5,1.7,37.5S13.6,5,32,5C50.4,5,62.3,24.5,62.3,37.5z
					"/>
			</g>
			<g>
				<path fill="#F7910B" d="M62.3,37.5C62.3,50.5,50.4,57,32,57C13.6,57,1.7,50.5,1.7,37.5S13.6,3,32,3C50.4,3,62.3,24.5,62.3,37.5z
					"/>
			</g>
			<g>
				<path fill="#F9A908" d="M32,3c18.4,0,30.3,21.5,30.3,34.5S50.4,57,32,57"/>
			</g>
			<g>
				<path fill="#F9A908" d="M62.3,37.5C62.3,50.5,50.4,57,32,57C13.6,57,1.7,50.5,1.7,37.5S13.6,5,32,5C50.4,5,62.3,24.5,62.3,37.5z
					"/>
			</g>
			<g>
				<path fill="#F9C55D" d="M1.7,37.5C1.7,24.5,13.6,5,32,5"/>
			</g>
			<g>
				<path fill="#F7910B" d="M32,5c18.4,0,30.3,19.5,30.3,32.5S50.4,61,32,61"/>
			</g>
			<g>
				<path fill="#EA7103" d="M32,5c18.4,0,30.3,19.5,30.3,32.5"/>
			</g>
			<g>
				<g>
					<circle fill="#EA7103" cx="21.6" cy="25.7" r="3.2"/>
				</g>
				<g>
					<circle fill="#EA7103" cx="42.4" cy="25.7" r="3.2"/>
				</g>
				<g>
					<circle fill="#1E4784" cx="21.6" cy="24.8" r="3.2"/>
				</g>
				<g>
					<path fill="#00233F" d="M21.6,21.6c1.8,0,3.2,1.4,3.2,3.2s-1.4,3.2-3.2,3.2"/>
				</g>
				<g>
					<circle fill="#1E4784" cx="42.4" cy="24.8" r="3.2"/>
				</g>
				<g>
					<path fill="#00233F" d="M42.4,21.6c1.8,0,3.2,1.4,3.2,3.2s-1.4,3.2-3.2,3.2"/>
				</g>
			</g>
			<g>
				<g>
					<g>
						<g>
							<g>
								<g>
									<path fill="#19BCA4" d="M18.4,16.6c-0.7-1.1,1.5-1.7,3.9-3.2c2.3-1.4,3.9-3.2,4.6-2.1c0.7,1.1-0.6,3.2-2.9,4.6
										C21.6,17.5,19.1,17.7,18.4,16.6z"/>
								</g>
							</g>
						</g>
					</g>
					<g>
						<g>
							<g>
								<g>
									<path fill="#109DA0" d="M18.4,16.6c-0.7-1.1,1.5-1.7,3.9-3.2c2.3-1.4,3.9-3.2,4.6-2.1"/>
								</g>
							</g>
						</g>
					</g>
				</g>
				<g>
					<g>
						<g>
							<g>
								<g>
									<path fill="#19BCA4" d="M45.6,16.6c0.7-1.1-1.5-1.7-3.9-3.2c-2.3-1.4-3.9-3.2-4.6-2.1c-0.7,1.1,0.6,3.2,2.9,4.6
										C42.4,17.5,44.9,17.7,45.6,16.6z"/>
								</g>
							</g>
						</g>
					</g>
					<g>
						<g>
							<g>
								<g>
									<path fill="#109DA0" d="M45.6,16.6c0.7-1.1-1.5-1.7-3.9-3.2c-2.3-1.4-3.9-3.2-4.6-2.1"/>
								</g>
							</g>
						</g>
					</g>
				</g>
			</g>
			<g>
				<g>
					<path fill="#F9C55D" d="M27.8,30.8c0,1.2-3.5,0.7-7.8,0.7c-4.3,0-7.8,0.6-7.8-0.7s3.5-2.2,7.8-2.2
						C24.3,28.6,27.8,29.6,27.8,30.8z"/>
				</g>
				<g>
					<path fill="#F9A908" d="M51.8,30.8c0,1.2-3.5,0.7-7.8,0.7s-7.8,0.6-7.8-0.7s3.5-2.2,7.8-2.2S51.8,29.6,51.8,30.8z"/>
				</g>
			</g>
			<g>
				<path fill="#F7910B" d="M40,35.1c0,4.8-3.6,8.8-8,8.8c-4.4,0-8-3.9-8-8.8"/>
			</g>
			<g>
				<circle fill="#F7910B" cx="10.3" cy="34.5" r="0.6"/>
			</g>
			<g>
				<circle fill="#F7910B" cx="5.8" cy="36.5" r="1.1"/>
			</g>
			<g>
				<circle fill="#F7910B" cx="8.8" cy="32.5" r="0.2"/>
			</g>
			<g>
				<circle fill="#F7910B" cx="13.4" cy="34.3" r="0.2"/>
			</g>
			<g>
				<circle fill="#F9A908" cx="52.6" cy="34.8" r="0.8"/>
			</g>
			<g>
				<circle fill="#F9A908" cx="55.1" cy="36.2" r="0.2"/>
			</g>
			<g>
				<circle fill="#F9A908" cx="49.8" cy="27.4" r="0.3"/>
			</g>
			<g>
				<circle fill="#F9A908" cx="49.3" cy="39" r="1.3"/>
			</g>
			<g>
				<circle fill="#F9A908" cx="56.5" cy="39.1" r="0.6"/>
			</g>
			<g>
				<circle fill="#F7910B" cx="9.3" cy="38.5" r="0.5"/>
			</g>
			<g>
				<circle fill="#F7910B" cx="10.1" cy="30.1" r="0.4"/>
			</g>
			<g>
				<circle fill="#F9A908" cx="4.8" cy="16.3" r="1.1"/>
			</g>
			<g>
				<circle fill="#F9A908" cx="8" cy="12.8" r="0.6"/>
			</g>
			<g>
				<circle fill="#F9A908" cx="59.2" cy="18.7" r="0.2"/>
			</g>
			<g>
				<circle fill="#F9A908" cx="58.4" cy="15.8" r="0.8"/>
			</g>
			<g>
				<path fill="#F9A908" d="M61.5,16.3c0,0.3-0.2,0.5-0.5,0.5c-0.3,0-0.5-0.2-0.5-0.5c0-0.3,0.2-0.5,0.5-0.5
					C61.2,15.8,61.5,16.1,61.5,16.3z"/>
			</g>
			<g>
				<circle fill="#F9A908" cx="6" cy="19.3" r="0.6"/>
			</g>
		</g>
		<g>
			<g>
				<path fill="#99144A" d="M20.5,41.7c0-9.6,5.2-7.2,11.6-7.2c6.4,0,11.6-0.9,11.6,7.2c0,4-5.2-7-11.6-7
					C25.7,34.8,20.5,45.7,20.5,41.7z"/>
			</g>
		</g>
	</g>
	<g>
		<g>
			<path fill="#0EB2CC" d="M46.1,33.5L46.1,33.5l-0.3-5.4l4.1,3.5l0,0c0.2,0.2,0.5,0.5,0.6,0.8c0.6,1.2,0.1,2.6-1,3.1
				c-1.2,0.6-2.6,0.1-3.1-1C46.2,34.2,46.1,33.8,46.1,33.5z"/>
		</g>
		<g>
			<path fill="#19DAF4" d="M49.5,35.5c-1.2,0.6-2.6,0.1-3.1-1c-0.2-0.3-0.2-0.6-0.2-1l0,0l-0.3-5.4"/>
		</g>
	</g>
</g>
</svg>
