<?xml version="1.0" encoding="utf-8"?>
<!-- Generator: Adobe Illustrator 16.0.0, SVG Export Plug-In . SVG Version: 6.00 Build 0)  -->
<!DOCTYPE svg PUBLIC "-//W3C//DTD SVG 1.1//EN" "http://www.w3.org/Graphics/SVG/1.1/DTD/svg11.dtd">
<svg version="1.1" id="Layer_1" xmlns="http://www.w3.org/2000/svg" xmlns:xlink="http://www.w3.org/1999/xlink" x="0px" y="0px"
	 width="64px" height="64px" viewBox="0 0 64 64" enable-background="new 0 0 64 64" xml:space="preserve">
<g>
	<g>
		<g>
			<path fill="#F7910B" d="M62.3,39.9c0,13-11.9,23.5-30.3,23.5c-18.4,0-30.3-10.5-30.3-23.5S13.6,7.4,32,7.4
				C50.4,7.4,62.3,26.9,62.3,39.9z"/>
		</g>
		<g>
			<path fill="#F7910B" d="M62.3,39.9c0,13-11.9,19.5-30.3,19.5c-18.4,0-30.3-6.5-30.3-19.5S13.6,5.4,32,5.4
				C50.4,5.4,62.3,26.9,62.3,39.9z"/>
		</g>
		<g>
			<path fill="#F9A908" d="M32,5.4c18.4,0,30.3,21.5,30.3,34.5S50.4,59.4,32,59.4"/>
		</g>
		<g>
			<path fill="#F9A908" d="M62.3,39.9c0,13-11.9,19.5-30.3,19.5c-18.4,0-30.3-6.5-30.3-19.5S13.6,7.4,32,7.4
				C50.4,7.4,62.3,26.9,62.3,39.9z"/>
		</g>
		<g>
			<path fill="#F9C55D" d="M1.7,39.9c0-13,11.9-32.5,30.3-32.5"/>
		</g>
		<g>
			<path fill="#F7910B" d="M32,7.4c18.4,0,30.3,19.5,30.3,32.5S50.4,63.4,32,63.4"/>
		</g>
		<g>
			<path fill="#EA7103" d="M32,7.4c18.4,0,30.3,19.5,30.3,32.5"/>
		</g>
		<g>
			<g>
				<g>
					<g>
						<path fill="#19BCA4" d="M25.7,23c0.3,0.8-1.2,0.9-2.9,1.5c-1.7,0.6-2.9,1.5-3.2,0.7c-0.3-0.8,0.8-2,2.5-2.6
							C23.7,22,25.4,22.1,25.7,23z"/>
					</g>
				</g>
			</g>
		</g>
		<g>
			<g>
				<g>
					<g>
						<path fill="#19BCA4" d="M38.3,18.4c0,0.9,1.4,0.5,3.3,0.6c1.8,0.1,3.3,0.6,3.3-0.3c0-0.9-1.4-1.6-3.2-1.7
							C39.8,16.9,38.3,17.5,38.3,18.4z"/>
					</g>
				</g>
			</g>
		</g>
		<g>
			<g>
				<g>
					<g>
						<path fill="#109DA0" d="M25.7,23c0.3,0.8-1.2,0.9-2.9,1.5c-1.7,0.6-2.9,1.5-3.2,0.7"/>
					</g>
				</g>
			</g>
		</g>
		<g>
			<g>
				<g>
					<g>
						<path fill="#109DA0" d="M38.3,18.4c0,0.9,1.4,0.5,3.3,0.6c1.8,0.1,3.3,0.6,3.3-0.3"/>
					</g>
				</g>
			</g>
		</g>
		<g>
			<circle fill="#F7910B" cx="10.3" cy="36.9" r="0.6"/>
		</g>
		<g>
			<circle fill="#F7910B" cx="5.8" cy="38.9" r="1.1"/>
		</g>
		<g>
			<circle fill="#F7910B" cx="8.8" cy="34.9" r="0.2"/>
		</g>
		<g>
			<circle fill="#F7910B" cx="13.4" cy="36.7" r="0.2"/>
		</g>
		<g>
			<circle fill="#F9A908" cx="52.6" cy="37.2" r="0.8"/>
		</g>
		<g>
			<circle fill="#F9A908" cx="55.1" cy="38.6" r="0.2"/>
		</g>
		<g>
			<circle fill="#F9A908" cx="49.8" cy="29.8" r="0.3"/>
		</g>
		<g>
			<circle fill="#F9A908" cx="44.9" cy="28.7" r="1.3"/>
		</g>
		<g>
			<circle fill="#F9A908" cx="56.5" cy="41.5" r="0.6"/>
		</g>
		<g>
			<circle fill="#F7910B" cx="9.3" cy="40.9" r="0.5"/>
		</g>
		<g>
			<circle fill="#F7910B" cx="10.1" cy="32.5" r="0.4"/>
		</g>
		<g>
			<circle fill="#F9A908" cx="4.8" cy="18.7" r="1.1"/>
		</g>
		<g>
			<circle fill="#F9A908" cx="8" cy="15.2" r="0.6"/>
		</g>
		<g>
			<circle fill="#F9A908" cx="59.2" cy="21.1" r="0.2"/>
		</g>
		<g>
			<circle fill="#F9A908" cx="58.4" cy="18.2" r="0.8"/>
		</g>
		<g>
			<path fill="#F9A908" d="M61.5,18.7c0,0.3-0.2,0.5-0.5,0.5c-0.3,0-0.5-0.2-0.5-0.5c0-0.3,0.2-0.5,0.5-0.5
				C61.2,18.2,61.5,18.5,61.5,18.7z"/>
		</g>
		<g>
			<circle fill="#F9A908" cx="6" cy="21.7" r="0.6"/>
		</g>
		<g>
			<g>
				<path fill="#CE3674" d="M32,1.3c-12.1,0-21.9,1.4-21.9,3C10.1,6,19.9,9,32,9s21.9-3,21.9-4.7C53.9,2.6,44.1,1.3,32,1.3z M32,5.4
					c-6.8,0-12.3-0.8-12.3-1.7C19.7,2.8,25.2,2,32,2c6.8,0,12.3,0.8,12.3,1.7C44.3,4.6,38.8,5.4,32,5.4z"/>
			</g>
			<g>
				<path fill="#EA5C93" d="M32,0.6c-12.1,0-21.9,1.4-21.9,3c0,1.7,9.8,3,21.9,3s21.9-1.4,21.9-3C53.9,2,44.1,0.6,32,0.6z M32,4.7
					C25.2,4.7,19.7,4,19.7,3c0-0.9,5.5-1.7,12.3-1.7c6.8,0,12.3,0.8,12.3,1.7C44.3,4,38.8,4.7,32,4.7z"/>
			</g>
		</g>
		<g>
			<g>
				<g>
					<path fill="#F9C55D" d="M27.4,42.6c0,1.3-3.8,0.7-8.6,0.7c-4.7,0-8.6,0.6-8.6-0.7c0-1.3,3.8-2.4,8.6-2.4
						C23.6,40.2,27.4,41.3,27.4,42.6z"/>
				</g>
				<g>
					<path fill="#F9A908" d="M53.8,42.6c0,1.3-3.8,0.7-8.6,0.7c-4.7,0-8.6,0.6-8.6-0.7c0-1.3,3.8-2.4,8.6-2.4
						C49.9,40.2,53.8,41.3,53.8,42.6z"/>
				</g>
			</g>
			<g>
				<g>
					<g>
						<g>
							<g>
								<g>
									<path fill="#1E4784" d="M16.7,35.4c0.4,0,0.8,0.2,1.2,0.5c1.4,1.4,3.7,1.4,5.1,0c0.6-0.6,1.7-0.7,2.3,0
										c0.6,0.6,0.7,1.7,0,2.3c-2.7,2.7-7.1,2.7-9.8,0c-0.6-0.6-0.7-1.7,0-2.3C15.9,35.6,16.3,35.4,16.7,35.4z"/>
								</g>
							</g>
							<g>
								<g>
									<path fill="#02243E" d="M15.6,38.2c-0.6-0.6-0.7-1.7,0-2.3c0.3-0.3,0.7-0.5,1.2-0.5c0.4,0,0.8,0.2,1.2,0.5
										c1.4,1.4,3.7,1.4,5.1,0c0.6-0.6,1.7-0.7,2.3,0c0.6,0.6,0.7,1.7,0,2.3"/>
								</g>
							</g>
						</g>
					</g>
				</g>
				<g>
					<g>
						<g>
							<g>
								<g>
									<path fill="#1E4784" d="M47.3,35.4c-0.4,0-0.8,0.2-1.2,0.5c-1.4,1.4-3.7,1.4-5.1,0c-0.6-0.6-1.7-0.7-2.3,0
										c-0.6,0.6-0.7,1.7,0,2.3c2.7,2.7,7.1,2.7,9.8,0c0.6-0.6,0.6-1.7,0-2.3C48.1,35.6,47.7,35.4,47.3,35.4z"/>
								</g>
							</g>
							<g>
								<g>
									<path fill="#02243E" d="M48.4,38.2c0.6-0.6,0.6-1.7,0-2.3c-0.3-0.3-0.7-0.5-1.2-0.5c-0.4,0-0.8,0.2-1.2,0.5
										c-1.4,1.4-3.7,1.4-5.1,0c-0.6-0.6-1.7-0.7-2.3,0c-0.6,0.6-0.7,1.7,0,2.3"/>
								</g>
							</g>
						</g>
					</g>
				</g>
			</g>
		</g>
		<g>
			<g>
				<path fill="#F7910B" d="M39.4,49.1c0,2.6-3.3,7.3-7.4,7.3c-4.1,0-7.4-4.7-7.4-7.3"/>
			</g>
			<g>
				<g>
					<path fill="#02243E" d="M17,47c-0.6,0-1.1-0.5-1.1-1.1s0.5-1.1,1.1-1.1c0.9,0,1.6-0.7,1.6-1.6c0-0.6,0.5-1.1,1.1-1.1
						s1.1,0.5,1.1,1.1C20.7,45.3,19,47,17,47z"/>
				</g>
				<g>
					<path fill="#02243E" d="M47,47c-2.1,0-3.8-1.7-3.8-3.8c0-0.6,0.5-1.1,1.1-1.1s1.1,0.5,1.1,1.1c0,0.9,0.7,1.6,1.6,1.6
						c0.6,0,1.1,0.5,1.1,1.1S47.6,47,47,47z"/>
				</g>
			</g>
			<g>
				<path fill="#02243E" d="M32,51.9c-5,0-10.1-1.9-13.9-5.8c-0.4-0.4-0.4-1.1,0-1.6c0.4-0.4,1.1-0.4,1.6,0c6.8,6.8,17.9,6.8,24.8,0
					c0.4-0.4,1.1-0.4,1.6,0c0.4,0.4,0.4,1.1,0,1.6C42.1,50,37,51.9,32,51.9z"/>
			</g>
		</g>
	</g>
	<g>
		<path fill="#12AD79" d="M6.5,4.9c0-0.4,0.3-0.7,0.7-0.7C7.6,4.2,8,4.5,8,4.9"/>
	</g>
	<g>
		<circle fill="#12AD79" cx="15" cy="9.9" r="1.2"/>
	</g>
	<g>
		<circle fill="#12AD79" cx="7.9" cy="10.5" r="3.2"/>
	</g>
	<g>
		<path fill="#12AD79" d="M47.8,9c0.2,0,0.4,0.2,0.4,0.4c0,0.2-0.2,0.4-0.4,0.4"/>
	</g>
	<g>
		<circle fill="#12AD79" cx="52.5" cy="9.3" r="0.6"/>
	</g>
	<g>
		<path fill="#12AD79" d="M54.1,13c0-0.5,0.4-1,1-1c0.5,0,1,0.4,1,1"/>
	</g>
	<g>
		<circle fill="#12AD79" cx="57.7" cy="7.4" r="1.8"/>
	</g>
	<g>
		<circle fill="#12AD79" cx="59.7" cy="13.5" r="0.8"/>
	</g>
</g>
</svg>
