<?xml version="1.0" encoding="utf-8"?>
<!-- Generator: Adobe Illustrator 16.0.0, SVG Export Plug-In . SVG Version: 6.00 Build 0)  -->
<!DOCTYPE svg PUBLIC "-//W3C//DTD SVG 1.1//EN" "http://www.w3.org/Graphics/SVG/1.1/DTD/svg11.dtd">
<svg version="1.1" id="Layer_1" xmlns="http://www.w3.org/2000/svg" xmlns:xlink="http://www.w3.org/1999/xlink" x="0px" y="0px"
	 width="64px" height="64px" viewBox="0 0 64 64" enable-background="new 0 0 64 64" xml:space="preserve">
<g>
	<g>
		<g>
			<path fill="#F7910B" d="M62.3,37.5C62.3,50.5,50.4,61,32,61C13.6,61,1.7,50.5,1.7,37.5S13.6,5,32,5C50.4,5,62.3,24.5,62.3,37.5z"
				/>
		</g>
		<g>
			<path fill="#F7910B" d="M62.3,37.5C62.3,50.5,50.4,57,32,57C13.6,57,1.7,50.5,1.7,37.5S13.6,3,32,3C50.4,3,62.3,24.5,62.3,37.5z"
				/>
		</g>
		<g>
			<path fill="#F9A908" d="M32,3c18.4,0,30.3,21.5,30.3,34.5S50.4,57,32,57"/>
		</g>
		<g>
			<path fill="#F9A908" d="M62.3,37.5C62.3,50.5,50.4,57,32,57C13.6,57,1.7,50.5,1.7,37.5S13.6,5,32,5C50.4,5,62.3,24.5,62.3,37.5z"
				/>
		</g>
		<g>
			<path fill="#F9C55D" d="M1.7,37.5C1.7,24.5,13.6,5,32,5"/>
		</g>
		<g>
			<path fill="#F7910B" d="M32,5c18.4,0,30.3,19.5,30.3,32.5S50.4,61,32,61"/>
		</g>
		<g>
			<path fill="#EA7103" d="M32,5c18.4,0,30.3,19.5,30.3,32.5"/>
		</g>
		<g>
			<g>
				<g>
					<g>
						<g>
							<g>
								<path fill="#19BCA4" d="M25.6,12.9c0.2,1.3-1.3,0.9-3.1,1.2c-1.8,0.3-3.1,1.2-3.3-0.1c-0.2-1.3,1.1-2.6,2.9-2.8
									C23.8,10.8,25.4,11.6,25.6,12.9z"/>
							</g>
						</g>
					</g>
				</g>
				<g>
					<g>
						<g>
							<g>
								<path fill="#109DA0" d="M25.6,12.9c0.2,1.3-1.3,0.9-3.1,1.2c-1.8,0.3-3.1,1.2-3.3-0.1"/>
							</g>
						</g>
					</g>
				</g>
			</g>
			<g>
				<g>
					<g>
						<g>
							<g>
								<path fill="#19BCA4" d="M38.1,14.9c-0.3,0.8,1.2,0.9,2.9,1.6c1.7,0.6,2.9,1.6,3.2,0.8c0.3-0.8-0.8-2-2.5-2.6
									C40.1,14,38.5,14.1,38.1,14.9z"/>
							</g>
						</g>
					</g>
				</g>
				<g>
					<g>
						<g>
							<g>
								<path fill="#109DA0" d="M38.1,14.9c-0.3,0.8,1.2,0.9,2.9,1.6c1.7,0.6,2.9,1.6,3.2,0.8"/>
							</g>
						</g>
					</g>
				</g>
			</g>
		</g>
		<g>
			<g>
				<path fill="#F9C55D" d="M27.8,30.8c0,1.2-3.5,0.7-7.8,0.7c-4.3,0-7.8,0.6-7.8-0.7c0-1.2,3.5-2.2,7.8-2.2
					C24.3,28.6,27.8,29.6,27.8,30.8z"/>
			</g>
			<g>
				<path fill="#F9A908" d="M51.8,30.8c0,1.2-3.5,0.7-7.8,0.7s-7.8,0.6-7.8-0.7c0-1.2,3.5-2.2,7.8-2.2S51.8,29.6,51.8,30.8z"/>
			</g>
		</g>
		<g>
			<circle fill="#F7910B" cx="10.3" cy="34.5" r="0.6"/>
		</g>
		<g>
			<circle fill="#F7910B" cx="5.8" cy="36.5" r="1.1"/>
		</g>
		<g>
			<circle fill="#F7910B" cx="8.8" cy="32.5" r="0.2"/>
		</g>
		<g>
			<circle fill="#F7910B" cx="13.4" cy="34.3" r="0.2"/>
		</g>
		<g>
			<circle fill="#F9A908" cx="52.6" cy="34.8" r="0.8"/>
		</g>
		<g>
			<circle fill="#F9A908" cx="55.1" cy="36.2" r="0.2"/>
		</g>
		<g>
			<circle fill="#F9A908" cx="49.8" cy="27.4" r="0.3"/>
		</g>
		<g>
			<circle fill="#F9A908" cx="49.3" cy="39" r="1.3"/>
		</g>
		<g>
			<circle fill="#F9A908" cx="56.5" cy="39.1" r="0.6"/>
		</g>
		<g>
			<circle fill="#F7910B" cx="9.3" cy="38.5" r="0.5"/>
		</g>
		<g>
			<circle fill="#F7910B" cx="10.1" cy="30.1" r="0.4"/>
		</g>
		<g>
			<circle fill="#F9A908" cx="4.8" cy="16.3" r="1.1"/>
		</g>
		<g>
			<circle fill="#F9A908" cx="8" cy="12.8" r="0.6"/>
		</g>
		<g>
			<circle fill="#F9A908" cx="59.2" cy="18.7" r="0.2"/>
		</g>
		<g>
			<circle fill="#F9A908" cx="58.4" cy="15.8" r="0.8"/>
		</g>
		<g>
			<circle fill="#F9A908" cx="61" cy="16.3" r="0.5"/>
		</g>
		<g>
			<circle fill="#F9A908" cx="6" cy="19.3" r="0.6"/>
		</g>
		<g>
			<g>
				<g>
					<g>
						<g>
							<path fill="#1E4784" d="M40.2,22.9c0.4,0.1,0.8,0.3,1.1,0.7c1.1,1.6,3.4,2,5,0.9c0.8-0.5,1.8-0.3,2.3,0.4
								c0.5,0.7,0.3,1.8-0.4,2.3c-3.1,2.2-7.4,1.4-9.6-1.8c-0.5-0.7-0.3-1.8,0.4-2.3C39.4,22.9,39.8,22.9,40.2,22.9z"/>
						</g>
					</g>
					<g>
						<g>
							<path fill="#02243E" d="M38.6,25.5c-0.5-0.7-0.3-1.8,0.4-2.3c0.4-0.3,0.8-0.3,1.2-0.3c0.4,0.1,0.8,0.3,1.1,0.7
								c1.1,1.6,3.4,2,5,0.9c0.8-0.5,1.8-0.3,2.3,0.4c0.5,0.7,0.3,1.8-0.4,2.3"/>
						</g>
					</g>
				</g>
			</g>
			<g>
				<g>
					<g>
						<g>
							<path fill="#1E4784" d="M23.9,22.9c-0.4,0.1-0.8,0.3-1.1,0.7c-1.1,1.6-3.4,2-5,0.9c-0.8-0.5-1.8-0.3-2.3,0.4
								c-0.5,0.7-0.3,1.8,0.4,2.3c3.1,2.2,7.4,1.4,9.6-1.8c0.5-0.7,0.3-1.8-0.4-2.3C24.8,22.9,24.4,22.9,23.9,22.9z"/>
						</g>
					</g>
					<g>
						<g>
							<path fill="#02243E" d="M25.6,25.5c0.5-0.7,0.3-1.8-0.4-2.3c-0.4-0.3-0.8-0.3-1.2-0.3c-0.4,0.1-0.8,0.3-1.1,0.7
								c-1.1,1.6-3.4,2-5,0.9c-0.8-0.5-1.8-0.3-2.3,0.4c-0.5,0.7-0.3,1.8,0.4,2.3"/>
						</g>
					</g>
				</g>
			</g>
		</g>
		<g>
			<path fill="#99144A" d="M41.8,37.9c0,2.6-4.4,1.8-9.8,1.8c-5.4,0-9.8,0.9-9.8-1.8c0-2.6,4.4-4.8,9.8-4.8
				C37.4,33.2,41.8,35.3,41.8,37.9z"/>
		</g>
		<g>
			<path fill="#6D0C38" d="M41.8,37.9c0,2.6-4.4,1.8-9.8,1.8c-5.4,0-9.8,0.9-9.8-1.8"/>
		</g>
	</g>
	<g>
		<path fill="#A4D8EA" d="M34.6,30.8c0,0,15.9,0.3,11.9,13.8c-4,13.5,18.4,13.8,15-1.3C57.6,26,34.6,30.8,34.6,30.8z"/>
	</g>
	<g>
		<path fill="#A4D8EA" d="M34.6,30.8c0,0,15.9,0.3,11.9,13.8c-4,13.5,18.4,13.8,15-1.3C57.6,26,34.6,30.8,34.6,30.8z"/>
	</g>
	<g>
		<path fill="#78C7DD" d="M61.5,43.3c-3.6-16-23.6-13.1-26.6-12.6c7,0.3,15.1,0.4,19,9.9c3.7,9.2,0.1,13.5-4,13.3
			C55.3,56.3,63.7,53,61.5,43.3z"/>
	</g>
</g>
</svg>
