<?xml version="1.0" encoding="utf-8"?>
<!-- Generator: Adobe Illustrator 16.0.0, SVG Export Plug-In . SVG Version: 6.00 Build 0)  -->
<!DOCTYPE svg PUBLIC "-//W3C//DTD SVG 1.1//EN" "http://www.w3.org/Graphics/SVG/1.1/DTD/svg11.dtd">
<svg version="1.1" id="Layer_1" xmlns="http://www.w3.org/2000/svg" xmlns:xlink="http://www.w3.org/1999/xlink" x="0px" y="0px"
	 width="64px" height="64px" viewBox="0 0 64 64" enable-background="new 0 0 64 64" xml:space="preserve">
<g>
	<g>
		<g>
			<g>
				<g>
					<g>
						<g>
							<g>
								<g>
									<path fill="#F7910B" d="M62.3,37.5C62.3,50.5,50.4,61,32,61C13.6,61,1.7,50.5,1.7,37.5S13.6,5,32,5
										C50.4,5,62.3,24.5,62.3,37.5z"/>
								</g>
								<g>
									<path fill="#F7910B" d="M62.3,37.5C62.3,50.5,50.4,57,32,57C13.6,57,1.7,50.5,1.7,37.5S13.6,3,32,3
										C50.4,3,62.3,24.5,62.3,37.5z"/>
								</g>
								<g>
									<path fill="#F9A908" d="M32,3c18.4,0,30.3,21.5,30.3,34.5S50.4,57,32,57"/>
								</g>
								<g>
									<path fill="#F9A908" d="M62.3,37.5C62.3,50.5,50.4,57,32,57C13.6,57,1.7,50.5,1.7,37.5S13.6,5,32,5
										C50.4,5,62.3,24.5,62.3,37.5z"/>
								</g>
								<g>
									<path fill="#F9C55D" d="M1.7,37.5C1.7,24.5,13.6,5,32,5"/>
								</g>
								<g>
									<path fill="#F7910B" d="M32,5c18.4,0,30.3,19.5,30.3,32.5S50.4,61,32,61"/>
								</g>
								<g>
									<path fill="#EA7103" d="M32,5c18.4,0,30.3,19.5,30.3,32.5"/>
								</g>
								<g>
									<g>
										<path fill="#F9C55D" d="M27.8,20.6c0,1.2-3.5,0.7-7.8,0.7c-4.3,0-7.8,0.6-7.8-0.7s3.5-2.2,7.8-2.2
											C24.3,18.4,27.8,19.4,27.8,20.6z"/>
									</g>
									<g>
										<path fill="#F9A908" d="M51.8,20.6c0,1.2-3.5,0.7-7.8,0.7s-7.8,0.6-7.8-0.7s3.5-2.2,7.8-2.2S51.8,19.4,51.8,20.6z"/>
									</g>
								</g>
								<g>
									<circle fill="#F7910B" cx="10.3" cy="34.5" r="0.6"/>
								</g>
								<g>
									<circle fill="#F7910B" cx="5.8" cy="36.5" r="1.1"/>
								</g>
								<g>
									<circle fill="#F7910B" cx="8.8" cy="32.5" r="0.2"/>
								</g>
								<g>
									<circle fill="#F7910B" cx="13.4" cy="34.3" r="0.2"/>
								</g>
								<g>
									<circle fill="#F9A908" cx="52.6" cy="34.8" r="0.8"/>
								</g>
								<g>
									<circle fill="#F9A908" cx="55.1" cy="36.2" r="0.2"/>
								</g>
								<g>
									<circle fill="#F9A908" cx="49.8" cy="27.4" r="0.3"/>
								</g>
								<g>
									<circle fill="#F9A908" cx="49.3" cy="39" r="1.3"/>
								</g>
								<g>
									<circle fill="#F9A908" cx="56.5" cy="39.1" r="0.6"/>
								</g>
								<g>
									<circle fill="#F7910B" cx="9.3" cy="38.5" r="0.5"/>
								</g>
								<g>
									<circle fill="#F7910B" cx="10.1" cy="30.1" r="0.4"/>
								</g>
								<g>
									<circle fill="#061C33" cx="4.8" cy="16.3" r="1.1"/>
								</g>
								<g>
									<circle fill="#061C33" cx="8" cy="12.8" r="0.6"/>
								</g>
								<g>
									<circle fill="#061C33" cx="59.2" cy="18.7" r="0.2"/>
								</g>
								<g>
									<circle fill="#061C33" cx="58.4" cy="15.8" r="0.8"/>
								</g>
								<g>
									<circle fill="#061C33" cx="61" cy="16.3" r="0.5"/>
								</g>
								<g>
									<circle fill="#061C33" cx="6" cy="19.3" r="0.6"/>
								</g>
							</g>
						</g>
					</g>
				</g>
				<g>
					<g>
						<g>
							<g>
								<path fill="#037A66" d="M25.6,10.8c0.3,0.9-1.4,0.9-3.3,1.5c-1.9,0.6-3.3,1.5-3.6,0.6c-0.3-0.9,1-2.1,2.9-2.7
									C23.5,9.7,25.3,9.9,25.6,10.8z"/>
							</g>
						</g>
					</g>
					<g>
						<g>
							<g>
								<path fill="#037A66" d="M38.4,10.8c-0.3,0.9,1.4,0.9,3.3,1.5c1.9,0.6,3.3,1.5,3.6,0.6c0.3-0.9-1-2.1-2.9-2.7
									C40.5,9.7,38.7,9.9,38.4,10.8z"/>
							</g>
						</g>
					</g>
				</g>
			</g>
		</g>
		<g>
			<path fill="#F7910B" d="M37.3,27.4c0,0.7-2.4,4-5.3,4c-2.9,0-5.2-3.3-5.2-4c0-0.7,2.4-0.1,5.2-0.1C34.9,27.3,37.3,26.7,37.3,27.4
				z"/>
		</g>
		<g>
			<path fill="#99144A" d="M26.8,27.3c0-0.7,2.4-1.3,5.2-1.3c2.9,0,5.2,0.6,5.2,1.3c0,0.7-2.4,0.1-5.2,0.1
				C29.1,27.4,26.8,28,26.8,27.3z"/>
		</g>
	</g>
	<g>
		<path fill="#02598E" d="M32,3C13.6,3,1.7,24.5,1.7,37.5S13.6,61,32,61c18.4,0,30.3-10.5,30.3-23.5S50.4,3,32,3z M32,36.5
			c-4.9,0-9-3.9-9-8.8c0-4.8,4-5.3,9-5.3s9,0.5,9,5.3C41,32.6,36.9,36.5,32,36.5z"/>
	</g>
	<g>
		<path fill="#061C33" d="M32,5.8c-17.7,0-29.5,20-30.3,33.1C2.5,51.2,14.3,61,32,61c17.7,0,29.5-9.8,30.3-22.1
			C61.5,25.8,49.7,5.8,32,5.8z M41,30.6c0,4.8-4,8.8-9,8.8s-9-3.9-9-8.8c0-0.5,0.1-0.9,0.1-1.4c-0.1-0.5-0.1-1-0.1-1.5
			c0-4.8,4-5.3,9-5.3s9,0.5,9,5.3c0,0.5-0.1,1-0.1,1.5C40.9,29.6,41,30.1,41,30.6z"/>
	</g>
	<g>
		<g>
			<g>
				<g>
					<g>
						<g>
							<path fill="#F8FCFF" d="M47.3,20.8c-0.4,0-0.8-0.2-1.2-0.5c-1.4-1.4-3.7-1.4-5.1,0c-0.6,0.6-1.7,0.7-2.3,0
								c-0.6-0.6-0.7-1.7,0-2.3c2.7-2.7,7.1-2.7,9.8,0c0.6,0.6,0.6,1.7,0,2.3C48.1,20.7,47.7,20.8,47.3,20.8z"/>
						</g>
					</g>
					<g>
						<g>
							<path fill="#E7E8CD" d="M48.4,18c0.6,0.6,0.6,1.7,0,2.3c-0.3,0.3-0.7,0.5-1.2,0.5c-0.4,0-0.8-0.2-1.2-0.5
								c-1.4-1.4-3.7-1.4-5.1,0c-0.6,0.6-1.7,0.7-2.3,0c-0.6-0.6-0.7-1.7,0-2.3"/>
						</g>
					</g>
				</g>
			</g>
		</g>
		<g>
			<g>
				<g>
					<g>
						<g>
							<path fill="#F8FCFF" d="M16.7,20.8c0.4,0,0.8-0.2,1.2-0.5c1.4-1.4,3.7-1.4,5.1,0c0.6,0.6,1.7,0.7,2.3,0
								c0.6-0.6,0.7-1.7,0-2.3c-2.7-2.7-7.1-2.7-9.8,0c-0.6,0.6-0.6,1.7,0,2.3C15.9,20.7,16.3,20.8,16.7,20.8z"/>
						</g>
					</g>
					<g>
						<g>
							<path fill="#E7E8CD" d="M15.6,18c-0.6,0.6-0.6,1.7,0,2.3c0.3,0.3,0.7,0.5,1.2,0.5c0.4,0,0.8-0.2,1.2-0.5
								c1.4-1.4,3.7-1.4,5.1,0c0.6,0.6,1.7,0.7,2.3,0c0.6-0.6,0.7-1.7,0-2.3"/>
						</g>
					</g>
				</g>
			</g>
		</g>
	</g>
	<g>
		<g>
			<g>
				<polygon fill="#02598E" points="7.5,23.3 7.5,3 17.7,13.2 				"/>
			</g>
			<g>
				<polygon fill="#061C33" points="6.5,23.3 11.1,13 7.5,3 17.7,13.2 				"/>
			</g>
		</g>
		<g>
			<g>
				<polygon fill="#02598E" points="56.5,23.3 56.5,3 46.3,13.2 				"/>
			</g>
			<g>
				<polygon fill="#061C33" points="57.5,23.3 52.9,13 56.5,3 46.3,13.2 				"/>
			</g>
		</g>
	</g>
	<g>
		<g>
			<path fill="#02598E" d="M30.5,18l-9.3-5.8c0,0,2-1.9,4.1-1.4C27.4,11.3,30.5,18,30.5,18z"/>
		</g>
		<g>
			<path fill="#02598E" d="M33.5,18l9.2-5.8c0,0-2-1.9-4.1-1.4C36.6,11.3,33.5,18,33.5,18z"/>
		</g>
	</g>
	<g>
		<g>
			<ellipse fill="#02598E" cx="19.9" cy="22.2" rx="5.8" ry="1.1"/>
		</g>
		<g>
			<ellipse fill="#02598E" cx="44.1" cy="22.2" rx="5.8" ry="1.1"/>
		</g>
	</g>
	<g>
		<g>
			<path fill="#F8FCFF" d="M37.9,49.9c0,3.9-2.6,5.1-5.9,5.1s-5.9-1.2-5.9-5.1c0-3.9,2.7-7.1,5.9-7.1S37.9,46,37.9,49.9z"/>
		</g>
		<g>
			<g>
				<polygon fill="#F8FCFF" points="27.1,48.2 22.1,44.2 13.9,49.7 19.8,49 20.4,51.3 22.4,49.3 24.1,51.7 24.6,49.5 27.1,51.3 				
					"/>
			</g>
			<g>
				<polygon fill="#F8FCFF" points="36.9,48.2 41.9,44.2 50.1,49.7 44.2,49 43.6,51.3 41.6,49.3 39.9,51.7 39.4,49.5 36.9,51.3 				
					"/>
			</g>
		</g>
	</g>
</g>
</svg>
