<?xml version="1.0" encoding="utf-8"?>
<!-- Generator: Adobe Illustrator 16.0.0, SVG Export Plug-In . SVG Version: 6.00 Build 0)  -->
<!DOCTYPE svg PUBLIC "-//W3C//DTD SVG 1.1//EN" "http://www.w3.org/Graphics/SVG/1.1/DTD/svg11.dtd">
<svg version="1.1" id="Layer_1" xmlns="http://www.w3.org/2000/svg" xmlns:xlink="http://www.w3.org/1999/xlink" x="0px" y="0px"
	 width="64px" height="64px" viewBox="0 0 64 64" enable-background="new 0 0 64 64" xml:space="preserve">
<g>
	<g>
		<g>
			<g>
				<path fill="#F7910B" d="M62.3,37.5C62.3,50.5,50.4,61,32,61C13.6,61,1.7,50.5,1.7,37.5S13.6,5,32,5C50.4,5,62.3,24.5,62.3,37.5z
					"/>
			</g>
			<g>
				<path fill="#F7910B" d="M62.3,37.5C62.3,50.5,50.4,57,32,57C13.6,57,1.7,50.5,1.7,37.5S13.6,3,32,3C50.4,3,62.3,24.5,62.3,37.5z
					"/>
			</g>
			<g>
				<path fill="#F9A908" d="M32,3c18.4,0,30.3,21.5,30.3,34.5S50.4,57,32,57"/>
			</g>
			<g>
				<path fill="#F9A908" d="M62.3,37.5C62.3,50.5,50.4,57,32,57C13.6,57,1.7,50.5,1.7,37.5S13.6,5,32,5C50.4,5,62.3,24.5,62.3,37.5z
					"/>
			</g>
			<g>
				<path fill="#F9C55D" d="M1.7,37.5C1.7,24.5,13.6,5,32,5"/>
			</g>
			<g>
				<path fill="#F7910B" d="M32,5c18.4,0,30.3,19.5,30.3,32.5S50.4,61,32,61"/>
			</g>
			<g>
				<path fill="#EA7103" d="M32,5c18.4,0,30.3,19.5,30.3,32.5"/>
			</g>
			<g>
				<circle fill="#F7910B" cx="10.3" cy="34.5" r="0.6"/>
			</g>
			<g>
				<circle fill="#F7910B" cx="5.8" cy="36.5" r="1.1"/>
			</g>
			<g>
				<circle fill="#F7910B" cx="8.8" cy="32.5" r="0.2"/>
			</g>
			<g>
				<circle fill="#F7910B" cx="13.4" cy="34.3" r="0.2"/>
			</g>
			<g>
				<circle fill="#F9A908" cx="52.6" cy="34.8" r="0.8"/>
			</g>
			<g>
				<circle fill="#F9A908" cx="55.1" cy="36.2" r="0.2"/>
			</g>
			<g>
				<circle fill="#F9A908" cx="49.8" cy="27.4" r="0.3"/>
			</g>
			<g>
				<circle fill="#F9A908" cx="49.3" cy="39" r="1.3"/>
			</g>
			<g>
				<circle fill="#F9A908" cx="56.5" cy="39.1" r="0.6"/>
			</g>
			<g>
				<circle fill="#F7910B" cx="9.3" cy="38.5" r="0.5"/>
			</g>
			<g>
				<circle fill="#F7910B" cx="10.1" cy="30.1" r="0.4"/>
			</g>
			<g>
				<circle fill="#F9A908" cx="4.8" cy="16.3" r="1.1"/>
			</g>
			<g>
				<circle fill="#F9A908" cx="8" cy="12.8" r="0.6"/>
			</g>
			<g>
				<circle fill="#F9A908" cx="59.2" cy="18.7" r="0.2"/>
			</g>
			<g>
				<circle fill="#F9A908" cx="58.4" cy="15.8" r="0.8"/>
			</g>
			<g>
				<circle fill="#F9A908" cx="61" cy="16.3" r="0.5"/>
			</g>
			<g>
				<circle fill="#F9A908" cx="6" cy="19.3" r="0.6"/>
			</g>
			<g>
				<path fill="#F7910B" d="M39.2,47.9c0,2.6-3.3,7.2-7.4,7.2s-7.4-4.6-7.4-7.2"/>
			</g>
			<g>
				<g>
					<circle fill="#D87703" cx="20.6" cy="26" r="3.5"/>
				</g>
				<g>
					<path fill="#D87703" d="M46.9,26c0,1.9-1.6,3.5-3.5,3.5c-1.9,0-3.5-1.6-3.5-3.5c0-1.9,1.6-3.5,3.5-3.5
						C45.4,22.5,46.9,24.1,46.9,26z"/>
				</g>
				<g>
					<circle fill="#1E4784" cx="20.6" cy="25" r="3.5"/>
				</g>
				<g>
					<path fill="#00233F" d="M20.6,21.5c1.9,0,3.5,1.6,3.5,3.5s-1.6,3.5-3.5,3.5"/>
				</g>
				<g>
					<path fill="#1E4784" d="M46.9,25c0,1.9-1.6,3.5-3.5,3.5c-1.9,0-3.5-1.6-3.5-3.5s1.6-3.5,3.5-3.5C45.4,21.5,46.9,23.1,46.9,25z"
						/>
				</g>
				<g>
					<path fill="#00233F" d="M43.4,21.5c1.9,0,3.5,1.6,3.5,3.5s-1.6,3.5-3.5,3.5"/>
				</g>
				<g>
					<path fill="#F9A908" d="M16.5,24.7c0-2.3,1.8-4.1,4.1-4.1c2.3,0,4.1,1.8,4.1,4.1"/>
				</g>
				<g>
					<path fill="#F7910B" d="M39.3,24.7c0-2.3,1.8-4.1,4.1-4.1c2.3,0,4.1,1.8,4.1,4.1"/>
				</g>
			</g>
			<g>
				<g>
					<path fill="#F9C55D" d="M27.8,30.8c0,1.2-3.5,0.7-7.8,0.7c-4.3,0-7.8,0.6-7.8-0.7c0-1.2,3.5-2.2,7.8-2.2
						C24.3,28.6,27.8,29.6,27.8,30.8z"/>
				</g>
				<g>
					<path fill="#F9A908" d="M51.8,30.8c0,1.2-3.5,0.7-7.8,0.7s-7.8,0.6-7.8-0.7c0-1.2,3.5-2.2,7.8-2.2S51.8,29.6,51.8,30.8z"/>
				</g>
			</g>
		</g>
		<g>
			<g>
				<g>
					<path fill="#19BCA4" d="M23.2,12.5c0,1-0.1,0.5-1.5,0.5s-2.5,0.5-2.5-0.5s1.1-1.7,2.5-1.7S23.2,11.6,23.2,12.5z"/>
				</g>
			</g>
			<g>
				<g>
					<path fill="#19BCA4" d="M40.8,12.5c0,1,0.1,0.5,1.5,0.5c1.4,0,2.5,0.5,2.5-0.5s-1.1-1.7-2.5-1.7C40.9,10.8,40.8,11.6,40.8,12.5
						z"/>
				</g>
			</g>
		</g>
	</g>
	<g>
		<g>
			<g>
				<g>
					<g>
						<path fill="#00233F" d="M9.9,20c-0.1,1-0.2,1.2-0.2,1.8c0,4.5,1.3,8.2,5.8,8.2h7.5c4.5,0,5.8-3.7,5.8-8.2
							c0-0.6-0.1-0.8-0.2-1.8H9.9z"/>
					</g>
					<g>
						<path fill="#00233F" d="M29.4,20.5c0,0.7-0.6,1.5-1.3,1.5H10.5c-0.7,0-1.3-0.8-1.3-1.5l0,0c0-0.7,0.6-1.5,1.3-1.5h17.6
							C28.8,19,29.4,19.8,29.4,20.5L29.4,20.5z"/>
					</g>
				</g>
				<g>
					<path fill="#00233F" d="M19.2,20c0,0.5-0.4,2-0.8,2H6.3c-0.5,0-0.8-1.6-0.8-2l0,0c0-0.5,0.4-1,0.8-1h12.1
						C18.8,19,19.2,19.5,19.2,20L19.2,20z"/>
				</g>
			</g>
			<g>
				<g>
					<g>
						<path fill="#00233F" d="M54.1,20c0.1,1,0.2,1.2,0.2,1.8c0,4.5-1.3,8.2-5.8,8.2h-7.5c-4.5,0-5.8-3.7-5.8-8.2
							c0-0.6,0.1-0.8,0.2-1.8H54.1z"/>
					</g>
					<g>
						<path fill="#00233F" d="M34.6,20.5c0,0.7,0.6,1.5,1.3,1.5h17.6c0.7,0,1.3-0.8,1.3-1.5l0,0c0-0.7-0.6-1.5-1.3-1.5H35.9
							C35.2,19,34.6,19.8,34.6,20.5L34.6,20.5z"/>
					</g>
				</g>
				<g>
					<path fill="#00233F" d="M44.8,20c0,0.5,0.4,2,0.8,2h12.1c0.5,0,0.8-1.6,0.8-2l0,0c0-0.5-0.4-1-0.8-1H45.6
						C45.2,19,44.8,19.5,44.8,20L44.8,20z"/>
				</g>
			</g>
		</g>
		<g>
			<path fill="#00233F" d="M42,20c0,0.6-0.4,1-1,1H24c-0.6,0-1-0.4-1-1l0,0c0-0.6,0.4-1,1-1h17C41.6,19,42,19.4,42,20L42,20z"/>
		</g>
	</g>
	<g>
		<g>
			<path fill="#F7910B" d="M39.4,38.2c0,2.6-3.3,4.7-7.4,4.7c-4.1,0-7.4-2.1-7.4-4.7"/>
		</g>
		<g>
			<g>
				<path fill="#02243E" d="M27.8,40c-3.2,0-6.6-1.9-9.2-4.6c-0.4-0.4-0.4-1.1,0-1.6c0.4-0.4,1.1-0.4,1.6,0
					c2.5,2.5,7.7,5.9,11.1,2.5c0.4-0.4,1.1-0.4,1.6,0c0.4,0.4,0.4,1.1,0,1.6C31.3,39.4,29.6,40,27.8,40z"/>
			</g>
			<g>
				<path fill="#02243E" d="M36.2,40c-1.8,0-3.5-0.6-5-2.1c-0.4-0.4-0.4-1.1,0-1.6c0.4-0.4,1.1-0.4,1.6,0c3.4,3.4,8.6,0,11.1-2.5
					c0.4-0.4,1.1-0.4,1.6,0c0.4,0.4,0.4,1.1,0,1.6C42.8,38.1,39.4,40,36.2,40z"/>
			</g>
		</g>
		<g>
			<g>
				<path fill="#02243E" d="M17,36.1c-0.6,0-1.1-0.5-1.1-1.1s0.5-1.1,1.1-1.1c0.9,0,1.6-0.7,1.6-1.6c0-0.6,0.5-1.1,1.1-1.1
					s1.1,0.5,1.1,1.1C20.7,34.4,19,36.1,17,36.1z"/>
			</g>
			<g>
				<path fill="#02243E" d="M47,36.1c-2.1,0-3.8-1.7-3.8-3.8c0-0.6,0.5-1.1,1.1-1.1s1.1,0.5,1.1,1.1c0,0.9,0.7,1.6,1.6,1.6
					c0.6,0,1.1,0.5,1.1,1.1S47.6,36.1,47,36.1z"/>
			</g>
		</g>
		<g>
			<path fill="#F9C55D" d="M29.4,36.6c-0.2,0.7-2.1,0.6-4.2-0.2c-2.1-0.8-3.5-1.9-3.3-2.6c0.2-0.7,1.9,0,4,0.7
				C28,35.3,29.6,35.9,29.4,36.6z"/>
		</g>
		<g>
			<path fill="#F9A908" d="M34.9,36.6c0.2,0.7,2.1,0.6,4.2-0.2c2.1-0.8,3.5-1.9,3.3-2.6c-0.2-0.7-1.9,0-4,0.7
				C36.3,35.3,34.6,35.9,34.9,36.6z"/>
		</g>
	</g>
</g>
</svg>
