<?xml version="1.0" encoding="utf-8"?>
<!-- Generator: Adobe Illustrator 16.0.0, SVG Export Plug-In . SVG Version: 6.00 Build 0)  -->
<!DOCTYPE svg PUBLIC "-//W3C//DTD SVG 1.1//EN" "http://www.w3.org/Graphics/SVG/1.1/DTD/svg11.dtd">
<svg version="1.1" id="Layer_1" xmlns="http://www.w3.org/2000/svg" xmlns:xlink="http://www.w3.org/1999/xlink" x="0px" y="0px"
	 width="64px" height="64px" viewBox="0 0 64 64" enable-background="new 0 0 64 64" xml:space="preserve">
<g>
	<g>
		<path fill="#F7910B" d="M62.3,37.5C62.3,50.5,50.4,61,32,61C13.6,61,1.7,50.5,1.7,37.5S13.6,5,32,5C50.4,5,62.3,24.5,62.3,37.5z"
			/>
	</g>
	<g>
		<path fill="#F7910B" d="M62.3,37.5C62.3,50.5,50.4,57,32,57C13.6,57,1.7,50.5,1.7,37.5S13.6,3,32,3C50.4,3,62.3,24.5,62.3,37.5z"
			/>
	</g>
	<g>
		<path fill="#F9A908" d="M32,3c18.4,0,30.3,21.5,30.3,34.5S50.4,57,32,57"/>
	</g>
	<g>
		<path fill="#F9A908" d="M62.3,37.5C62.3,50.5,50.4,57,32,57C13.6,57,1.7,50.5,1.7,37.5S13.6,5,32,5C50.4,5,62.3,24.5,62.3,37.5z"
			/>
	</g>
	<g>
		<path fill="#F9C55D" d="M1.7,37.5C1.7,24.5,13.6,5,32,5"/>
	</g>
	<g>
		<path fill="#F7910B" d="M32,5c18.4,0,30.3,19.5,30.3,32.5S50.4,61,32,61"/>
	</g>
	<g>
		<path fill="#EA7103" d="M32,5c18.4,0,30.3,19.5,30.3,32.5"/>
	</g>
	<g>
		<g>
			<circle fill="#EA7103" cx="21.6" cy="25.7" r="3.2"/>
		</g>
		<g>
			<circle fill="#EA7103" cx="42.4" cy="25.7" r="3.2"/>
		</g>
		<g>
			<circle fill="#1E4784" cx="21.6" cy="24.8" r="3.2"/>
		</g>
		<g>
			<path fill="#00233F" d="M21.6,21.6c1.8,0,3.2,1.4,3.2,3.2s-1.4,3.2-3.2,3.2"/>
		</g>
		<g>
			<circle fill="#1E4784" cx="42.4" cy="24.8" r="3.2"/>
		</g>
		<g>
			<path fill="#00233F" d="M42.4,21.6c1.8,0,3.2,1.4,3.2,3.2s-1.4,3.2-3.2,3.2"/>
		</g>
	</g>
	<g>
		<g>
			<path fill="#F9C55D" d="M27.8,30.8c0,1.2-3.5,0.7-7.8,0.7c-4.3,0-7.8,0.6-7.8-0.7c0-1.2,3.5-2.2,7.8-2.2
				C24.3,28.6,27.8,29.6,27.8,30.8z"/>
		</g>
		<g>
			<path fill="#F9A908" d="M51.8,30.8c0,1.2-3.5,0.7-7.8,0.7s-7.8,0.6-7.8-0.7c0-1.2,3.5-2.2,7.8-2.2S51.8,29.6,51.8,30.8z"/>
		</g>
	</g>
	<g>
		<circle fill="#F7910B" cx="10.3" cy="34.5" r="0.6"/>
	</g>
	<g>
		<circle fill="#F7910B" cx="5.8" cy="36.5" r="1.1"/>
	</g>
	<g>
		<circle fill="#F7910B" cx="8.8" cy="32.5" r="0.2"/>
	</g>
	<g>
		<circle fill="#F7910B" cx="13.4" cy="34.3" r="0.2"/>
	</g>
	<g>
		<circle fill="#F9A908" cx="52.6" cy="34.8" r="0.8"/>
	</g>
	<g>
		<circle fill="#F9A908" cx="55.1" cy="36.2" r="0.2"/>
	</g>
	<g>
		<circle fill="#F9A908" cx="49.8" cy="27.4" r="0.3"/>
	</g>
	<g>
		<circle fill="#F9A908" cx="49.3" cy="39" r="1.3"/>
	</g>
	<g>
		<circle fill="#F9A908" cx="56.5" cy="39.1" r="0.6"/>
	</g>
	<g>
		<circle fill="#F7910B" cx="9.3" cy="38.5" r="0.5"/>
	</g>
	<g>
		<circle fill="#F7910B" cx="10.1" cy="30.1" r="0.4"/>
	</g>
	<g>
		<circle fill="#F9A908" cx="4.8" cy="16.3" r="1.1"/>
	</g>
	<g>
		<circle fill="#F9A908" cx="8" cy="12.8" r="0.6"/>
	</g>
	<g>
		<circle fill="#F9A908" cx="59.2" cy="18.7" r="0.2"/>
	</g>
	<g>
		<circle fill="#F9A908" cx="58.4" cy="15.8" r="0.8"/>
	</g>
	<g>
		<path fill="#F9A908" d="M61.5,16.3c0,0.3-0.2,0.5-0.5,0.5c-0.3,0-0.5-0.2-0.5-0.5s0.2-0.5,0.5-0.5C61.2,15.8,61.5,16.1,61.5,16.3z
			"/>
	</g>
	<g>
		<circle fill="#F9A908" cx="6" cy="19.3" r="0.6"/>
	</g>
	<g>
		<g>
			<path fill="#F7910B" d="M39.4,39.9c0,2.6-3.3,4.7-7.4,4.7c-4.1,0-7.4-2.1-7.4-4.7"/>
		</g>
	</g>
	<g>
		<g>
			<g>
				<g>
					<path fill="#F7910B" d="M25.3,27.1c0,0.9-2.1,2.7-4.8,2.7s-4.8-1.8-4.8-2.7c0-0.9,2.1-0.4,4.8-0.4S25.3,26.2,25.3,27.1z"/>
				</g>
				<g>
					<path fill="#CBEBEF" d="M25.3,26.9c0,0.9-2.1,1.6-4.8,1.6s-4.8-0.7-4.8-1.6c0-0.9,2.1-0.4,4.8-0.4S25.3,26,25.3,26.9z"/>
				</g>
				<g>
					<path fill="#89D3DB" d="M20.6,26.5c2.6,0,4.8-0.5,4.8,0.4c0,0.9-2.1,1.6-4.8,1.6"/>
				</g>
			</g>
			<g>
				<g>
					<circle fill="#F7910B" cx="11.9" cy="31.5" r="2.5"/>
				</g>
				<g>
					<circle fill="#CBEBEF" cx="11.9" cy="30.6" r="2.5"/>
				</g>
				<g>
					<path fill="#89D3DB" d="M10.2,28.9c1-1,2.5-1,3.5,0c1,1,1,2.5,0,3.5"/>
				</g>
			</g>
			<g>
				<g>
					<circle fill="#F7910B" cx="11.9" cy="38.5" r="2.5"/>
				</g>
				<g>
					<circle fill="#CBEBEF" cx="11.9" cy="37.6" r="2.5"/>
				</g>
				<g>
					<path fill="#89D3DB" d="M10.2,35.8c1-1,2.5-1,3.5,0c1,1,1,2.5,0,3.5"/>
				</g>
			</g>
			<g>
				<g>
					<circle fill="#F7910B" cx="13.7" cy="26.5" r="1.2"/>
				</g>
				<g>
					<circle fill="#CBEBEF" cx="13.7" cy="26" r="1.2"/>
				</g>
				<g>
					<path fill="#89D3DB" d="M12.9,25.2c0.5-0.5,1.3-0.5,1.8,0c0.5,0.5,0.5,1.3,0,1.8"/>
				</g>
			</g>
			<g>
				<g>
					<circle fill="#F7910B" cx="13.7" cy="43.6" r="1.2"/>
				</g>
				<g>
					<circle fill="#CBEBEF" cx="13.7" cy="43.1" r="1.2"/>
				</g>
				<g>
					<path fill="#89D3DB" d="M12.8,42.2c0.5-0.5,1.3-0.5,1.8,0c0.5,0.5,0.5,1.3,0,1.8"/>
				</g>
			</g>
			<g>
				<g>
					<circle fill="#F7910B" cx="16.1" cy="46.6" r="0.9"/>
				</g>
				<g>
					<circle fill="#CBEBEF" cx="16.1" cy="46.3" r="0.9"/>
				</g>
				<g>
					<path fill="#89D3DB" d="M15.5,45.7c0.3-0.3,0.9-0.3,1.3,0c0.3,0.3,0.3,0.9,0,1.2"/>
				</g>
			</g>
		</g>
		<g>
			<g>
				<g>
					<path fill="#F7910B" d="M38.7,27.1c0,0.9,2.1,2.7,4.8,2.7c2.6,0,4.8-1.8,4.8-2.7c0-0.9-2.1-0.4-4.8-0.4
						C40.8,26.6,38.7,26.2,38.7,27.1z"/>
				</g>
				<g>
					<path fill="#89D3DB" d="M38.7,26.9c0,0.9,2.1,1.6,4.8,1.6c2.6,0,4.8-0.7,4.8-1.6c0-0.9-2.1-0.4-4.8-0.4
						C40.8,26.5,38.7,26,38.7,26.9z"/>
				</g>
				<g>
					<path fill="#CBEBEF" d="M43.4,26.5c-2.6,0-4.8-0.5-4.8,0.4c0,0.9,2.1,1.6,4.8,1.6"/>
				</g>
			</g>
			<g>
				<g>
					<circle fill="#F7910B" cx="52.1" cy="31.5" r="2.5"/>
				</g>
				<g>
					<circle fill="#89D3DB" cx="52.1" cy="30.6" r="2.5"/>
				</g>
				<g>
					<path fill="#CBEBEF" d="M53.8,28.9c-1-1-2.5-1-3.5,0c-1,1-1,2.5,0,3.5"/>
				</g>
			</g>
			<g>
				<g>
					<circle fill="#F7910B" cx="52.1" cy="38.5" r="2.5"/>
				</g>
				<g>
					<circle fill="#89D3DB" cx="52.1" cy="37.6" r="2.5"/>
				</g>
				<g>
					<path fill="#CBEBEF" d="M53.8,35.8c-1-1-2.5-1-3.5,0c-1,1-1,2.5,0,3.5"/>
				</g>
			</g>
			<g>
				<g>
					<circle fill="#F7910B" cx="50.3" cy="26.5" r="1.2"/>
				</g>
				<g>
					<circle fill="#89D3DB" cx="50.3" cy="26" r="1.2"/>
				</g>
				<g>
					<path fill="#CBEBEF" d="M51.1,25.2c-0.5-0.5-1.3-0.5-1.8,0c-0.5,0.5-0.5,1.3,0,1.8"/>
				</g>
			</g>
			<g>
				<g>
					<circle fill="#F7910B" cx="50.3" cy="43.6" r="1.2"/>
				</g>
				<g>
					<circle fill="#89D3DB" cx="50.3" cy="43.1" r="1.2"/>
				</g>
				<g>
					<path fill="#CBEBEF" d="M51.2,42.2c-0.5-0.5-1.3-0.5-1.8,0c-0.5,0.5-0.5,1.3,0,1.8"/>
				</g>
			</g>
			<g>
				<g>
					<circle fill="#F7910B" cx="47.9" cy="46.6" r="0.9"/>
				</g>
				<g>
					<circle fill="#89D3DB" cx="47.9" cy="46.3" r="0.9"/>
				</g>
				<g>
					<path fill="#CBEBEF" d="M48.5,45.7c-0.3-0.3-0.9-0.3-1.2,0c-0.3,0.3-0.3,0.9,0,1.2"/>
				</g>
			</g>
		</g>
	</g>
	<g>
		<g>
			<g>
				<path fill="#19BCA4" d="M20.7,20.3c-0.3-0.4,0.8-0.8,2-1.6c1.2-0.8,2-1.6,2.2-1.2c0.3,0.4-0.5,1.4-1.6,2.1
					C22.2,20.4,21,20.7,20.7,20.3z"/>
			</g>
		</g>
		<g>
			<g>
				<path fill="#19BCA4" d="M43.3,20.3c0.3-0.4-0.8-0.8-2-1.6c-1.2-0.8-2-1.6-2.2-1.2c-0.3,0.4,0.5,1.4,1.6,2.1
					C41.8,20.4,43,20.7,43.3,20.3z"/>
			</g>
		</g>
	</g>
	<g>
		<g>
			<path fill="#F7910B" d="M24.1,36.7c4.4-4.4,11.4-4.4,15.8,0"/>
		</g>
		<g>
			<path fill="#02243E" d="M39.5,39.1c-0.6,0-1.1-0.5-1.1-1.1c0-2.1,1.7-3.8,3.8-3.8c0.6,0,1.1,0.5,1.1,1.1s-0.5,1.1-1.1,1.1
				c-0.9,0-1.6,0.7-1.6,1.6C40.6,38.6,40.1,39.1,39.5,39.1z"/>
		</g>
		<g>
			<path fill="#02243E" d="M24.5,39.1c-0.6,0-1.1-0.5-1.1-1.1c0-0.9-0.7-1.6-1.6-1.6c-0.6,0-1.1-0.5-1.1-1.1s0.5-1.1,1.1-1.1
				c2.1,0,3.8,1.7,3.8,3.8C25.6,38.6,25.1,39.1,24.5,39.1z"/>
		</g>
		<g>
			<path fill="#02243E" d="M39.9,37.1c-0.3,0-0.6-0.1-0.8-0.3c-1.9-1.9-4.4-2.9-7.1-2.9c-2.7,0-5.2,1-7.1,2.9
				c-0.4,0.4-1.1,0.4-1.6,0s-0.4-1.1,0-1.6c2.3-2.3,5.4-3.6,8.7-3.6c3.3,0,6.4,1.3,8.7,3.6c0.4,0.4,0.4,1.1,0,1.6
				C40.5,37,40.2,37.1,39.9,37.1z"/>
		</g>
	</g>
</g>
</svg>
