<?xml version="1.0" encoding="utf-8"?>
<!-- Generator: Adobe Illustrator 16.0.0, SVG Export Plug-In . SVG Version: 6.00 Build 0)  -->
<!DOCTYPE svg PUBLIC "-//W3C//DTD SVG 1.1//EN" "http://www.w3.org/Graphics/SVG/1.1/DTD/svg11.dtd">
<svg version="1.1" id="Layer_1" xmlns="http://www.w3.org/2000/svg" xmlns:xlink="http://www.w3.org/1999/xlink" x="0px" y="0px"
	 width="64px" height="64px" viewBox="0 0 64 64" enable-background="new 0 0 64 64" xml:space="preserve">
<g>
	<g>
		<g>
			<g>
				<path fill="#F7910B" d="M62.3,38.8c0,13-11.9,23.5-30.3,23.5c-18.4,0-30.3-10.5-30.3-23.5S13.6,6.3,32,6.3
					C50.4,6.3,62.3,25.9,62.3,38.8z"/>
			</g>
			<g>
				<path fill="#F7910B" d="M62.3,38.8c0,13-11.9,19.5-30.3,19.5c-18.4,0-30.3-6.5-30.3-19.5S13.6,4.3,32,4.3
					C50.4,4.3,62.3,25.9,62.3,38.8z"/>
			</g>
			<g>
				<path fill="#F9A908" d="M32,4.3c18.4,0,30.3,21.5,30.3,34.5S50.4,58.3,32,58.3"/>
			</g>
			<g>
				<path fill="#F9A908" d="M62.3,38.8c0,13-11.9,19.5-30.3,19.5c-18.4,0-30.3-6.5-30.3-19.5S13.6,6.3,32,6.3
					C50.4,6.3,62.3,25.9,62.3,38.8z"/>
			</g>
			<g>
				<path fill="#F9C55D" d="M1.7,38.8c0-13,11.9-32.5,30.3-32.5"/>
			</g>
			<g>
				<path fill="#F7910B" d="M32,6.3c18.4,0,30.3,19.5,30.3,32.5S50.4,62.3,32,62.3"/>
			</g>
			<g>
				<path fill="#EA7103" d="M32,6.3c18.4,0,30.3,19.5,30.3,32.5"/>
			</g>
			<g>
				<circle fill="#F7910B" cx="10.3" cy="35.8" r="0.6"/>
			</g>
			<g>
				<circle fill="#F7910B" cx="5.8" cy="37.8" r="1.1"/>
			</g>
			<g>
				<circle fill="#F7910B" cx="8.8" cy="33.8" r="0.2"/>
			</g>
			<g>
				<circle fill="#F7910B" cx="13.4" cy="35.6" r="0.2"/>
			</g>
			<g>
				<circle fill="#F9A908" cx="52.6" cy="36.2" r="0.8"/>
			</g>
			<g>
				<circle fill="#F9A908" cx="55.1" cy="37.6" r="0.2"/>
			</g>
			<g>
				<circle fill="#F9A908" cx="49.8" cy="28.7" r="0.3"/>
			</g>
			<g>
				<circle fill="#F9A908" cx="49.3" cy="40.4" r="1.3"/>
			</g>
			<g>
				<circle fill="#F9A908" cx="56.5" cy="40.4" r="0.6"/>
			</g>
			<g>
				<circle fill="#F7910B" cx="9.3" cy="39.8" r="0.5"/>
			</g>
			<g>
				<circle fill="#F7910B" cx="10.1" cy="31.4" r="0.4"/>
			</g>
			<g>
				<circle fill="#F9A908" cx="4.8" cy="17.7" r="1.1"/>
			</g>
			<g>
				<circle fill="#F9A908" cx="8" cy="14.1" r="0.6"/>
			</g>
			<g>
				<circle fill="#F9A908" cx="59.2" cy="20.1" r="0.2"/>
			</g>
			<g>
				<circle fill="#F9A908" cx="58.4" cy="17.1" r="0.8"/>
			</g>
			<g>
				<circle fill="#F9A908" cx="61" cy="17.7" r="0.5"/>
			</g>
			<g>
				<circle fill="#F9A908" cx="6" cy="20.6" r="0.6"/>
			</g>
			<g>
				<g>
					<g>
						<g>
							<g>
								<g>
									<g>
										<path fill="#109DA0" d="M27.6,23.9c-1,1.7-2.6-0.4-5.3-1.9C19.7,20.4,17,20,18,18.4c1-1.7,3.9-1.8,6.5-0.3
											C27.2,19.6,28.5,22.2,27.6,23.9z"/>
									</g>
								</g>
							</g>
						</g>
					</g>
					<g>
						<g>
							<g>
								<g>
									<g>
										<path fill="#109DA0" d="M36.4,23.9c1,1.7,2.6-0.4,5.3-1.9c2.6-1.5,5.3-1.9,4.3-3.6s-3.9-1.8-6.5-0.3
											C36.8,19.6,35.5,22.2,36.4,23.9z"/>
									</g>
								</g>
							</g>
						</g>
					</g>
				</g>
			</g>
		</g>
	</g>
	<g>
		<g>
			<path fill="#F7910B" d="M24.6,45.6c0-2.6,3.3-4.7,7.4-4.7c4.1,0,7.4,2.1,7.4,4.7"/>
		</g>
		<g>
			<g>
				<g>
					<path fill="#02243E" d="M44.4,44.3c-0.6,0-1.1-0.5-1.1-1.1c0-2.1,1.7-3.8,3.8-3.8c0.6,0,1.1,0.5,1.1,1.1s-0.5,1.1-1.1,1.1
						c-0.9,0-1.6,0.7-1.6,1.6C45.5,43.8,45,44.3,44.4,44.3z"/>
				</g>
				<g>
					<path fill="#02243E" d="M19.6,44.3c-0.6,0-1.1-0.5-1.1-1.1c0-0.9-0.7-1.6-1.6-1.6c-0.6,0-1.1-0.5-1.1-1.1s0.5-1.1,1.1-1.1
						c2.1,0,3.8,1.7,3.8,3.8C20.7,43.8,20.2,44.3,19.6,44.3z"/>
				</g>
			</g>
			<g>
				<path fill="#02243E" d="M45.2,42.2c-0.3,0-0.6-0.1-0.8-0.3c-3.3-3.3-7.7-5.1-12.4-5.1s-9.1,1.8-12.4,5.1c-0.4,0.4-1.1,0.4-1.6,0
					s-0.4-1.1,0-1.6c7.7-7.7,20.2-7.7,27.9,0c0.4,0.4,0.4,1.1,0,1.6C45.7,42,45.4,42.2,45.2,42.2z"/>
			</g>
		</g>
	</g>
	<g>
		<g>
			<circle fill="#D87703" cx="20.6" cy="28.1" r="3.5"/>
		</g>
		<g>
			<circle fill="#D87703" cx="43.4" cy="28.1" r="3.5"/>
		</g>
		<g>
			<circle fill="#1E4784" cx="20.6" cy="27.1" r="3.5"/>
		</g>
		<g>
			<path fill="#00233F" d="M20.6,23.6c1.9,0,3.5,1.6,3.5,3.5s-1.6,3.5-3.5,3.5"/>
		</g>
		<g>
			<circle fill="#1E4784" cx="43.4" cy="27.1" r="3.5"/>
		</g>
		<g>
			<path fill="#00233F" d="M43.4,23.6c1.9,0,3.5,1.6,3.5,3.5s-1.6,3.5-3.5,3.5"/>
		</g>
	</g>
	<g>
		<g>
			<path fill="#F9C55D" d="M27.8,32.2c0,1.2-3.5,0.7-7.8,0.7c-4.3,0-7.8,0.6-7.8-0.7c0-1.2,3.5-2.2,7.8-2.2
				C24.3,29.9,27.8,30.9,27.8,32.2z"/>
		</g>
		<g>
			<path fill="#F9A908" d="M51.8,32.2c0,1.2-3.5,0.7-7.8,0.7s-7.8,0.6-7.8-0.7c0-1.2,3.5-2.2,7.8-2.2S51.8,30.9,51.8,32.2z"/>
		</g>
	</g>
	<g>
		<g>
			<polygon fill="#81CCB1" points="57.1,26 54.2,26 51.9,2 59.4,2 			"/>
		</g>
		<g>
			<polygon fill="#109DA0" points="57.1,26 54.2,26 54.6,2 59.4,2 			"/>
		</g>
		<g>
			<rect x="53" y="28" fill="#81CCB1" width="5" height="6"/>
		</g>
		<g>
			<polygon fill="#109DA0" points="58,34 53,34 54.9,30.6 58,28 			"/>
		</g>
	</g>
</g>
</svg>
