<?xml version="1.0" encoding="utf-8"?>
<!-- Generator: Adobe Illustrator 16.0.0, SVG Export Plug-In . SVG Version: 6.00 Build 0)  -->
<!DOCTYPE svg PUBLIC "-//W3C//DTD SVG 1.1//EN" "http://www.w3.org/Graphics/SVG/1.1/DTD/svg11.dtd">
<svg version="1.1" id="Layer_1" xmlns="http://www.w3.org/2000/svg" xmlns:xlink="http://www.w3.org/1999/xlink" x="0px" y="0px"
	 width="64px" height="64px" viewBox="0 0 64 64" enable-background="new 0 0 64 64" xml:space="preserve">
<g>
	<g>
		<g>
			<circle fill="#F7910B" cx="56" cy="24.8" r="7"/>
		</g>
		<g>
			<circle fill="#F7910B" cx="8" cy="24.8" r="7"/>
		</g>
	</g>
	<g>
		<g>
			<g>
				<path fill="#F7910B" d="M62.3,37.5C62.3,50.5,50.4,61,32,61C13.6,61,1.7,50.5,1.7,37.5S13.6,5,32,5C50.4,5,62.3,24.5,62.3,37.5z
					"/>
			</g>
			<g>
				<path fill="#F7910B" d="M62.3,37.5C62.3,50.5,50.4,57,32,57C13.6,57,1.7,50.5,1.7,37.5S13.6,3,32,3C50.4,3,62.3,24.5,62.3,37.5z
					"/>
			</g>
			<g>
				<path fill="#F9A908" d="M32,3c18.4,0,30.3,21.5,30.3,34.5S50.4,57,32,57"/>
			</g>
			<g>
				<path fill="#F9A908" d="M62.3,37.5C62.3,50.5,50.4,57,32,57C13.6,57,1.7,50.5,1.7,37.5S13.6,5,32,5C50.4,5,62.3,24.5,62.3,37.5z
					"/>
			</g>
			<g>
				<path fill="#F9C55D" d="M1.7,37.5C1.7,24.5,13.6,5,32,5"/>
			</g>
			<g>
				<path fill="#F7910B" d="M32,5c18.4,0,30.3,19.5,30.3,32.5S50.4,61,32,61"/>
			</g>
			<g>
				<path fill="#EA7103" d="M32,5c18.4,0,30.3,19.5,30.3,32.5"/>
			</g>
			<g>
				<g>
					<g>
						<g>
							<g>
								<g>
									<path fill="#19BCA4" d="M25.9,14.9c0.3,0.8-1.2,0.9-2.9,1.6c-1.7,0.6-2.9,1.6-3.2,0.8c-0.3-0.8,0.8-2,2.5-2.6
										C23.9,14,25.5,14.1,25.9,14.9z"/>
								</g>
							</g>
						</g>
					</g>
					<g>
						<g>
							<g>
								<g>
									<path fill="#109DA0" d="M25.9,14.9c0.3,0.8-1.2,0.9-2.9,1.6c-1.7,0.6-2.9,1.6-3.2,0.8"/>
								</g>
							</g>
						</g>
					</g>
				</g>
				<g>
					<g>
						<g>
							<g>
								<g>
									<path fill="#19BCA4" d="M38.1,14.9c-0.3,0.8,1.2,0.9,2.9,1.6c1.7,0.6,2.9,1.6,3.2,0.8c0.3-0.8-0.8-2-2.5-2.6
										C40.1,14,38.5,14.1,38.1,14.9z"/>
								</g>
							</g>
						</g>
					</g>
					<g>
						<g>
							<g>
								<g>
									<path fill="#109DA0" d="M38.1,14.9c-0.3,0.8,1.2,0.9,2.9,1.6c1.7,0.6,2.9,1.6,3.2,0.8"/>
								</g>
							</g>
						</g>
					</g>
				</g>
			</g>
			<g>
				<g>
					<path fill="#F9C55D" d="M27.8,30.8c0,1.2-3.5,0.7-7.8,0.7c-4.3,0-7.8,0.6-7.8-0.7c0-1.2,3.5-2.2,7.8-2.2
						C24.3,28.6,27.8,29.6,27.8,30.8z"/>
				</g>
				<g>
					<path fill="#F9A908" d="M51.8,30.8c0,1.2-3.5,0.7-7.8,0.7s-7.8,0.6-7.8-0.7c0-1.2,3.5-2.2,7.8-2.2S51.8,29.6,51.8,30.8z"/>
				</g>
			</g>
			<g>
				<circle fill="#F7910B" cx="10.3" cy="34.5" r="0.6"/>
			</g>
			<g>
				<circle fill="#F7910B" cx="5.8" cy="36.5" r="1.1"/>
			</g>
			<g>
				<circle fill="#F7910B" cx="8.8" cy="32.5" r="0.2"/>
			</g>
			<g>
				<circle fill="#F7910B" cx="13.4" cy="34.3" r="0.2"/>
			</g>
			<g>
				<circle fill="#F9A908" cx="52.6" cy="34.8" r="0.8"/>
			</g>
			<g>
				<circle fill="#F9A908" cx="55.1" cy="36.2" r="0.2"/>
			</g>
			<g>
				<circle fill="#F9A908" cx="49.8" cy="27.4" r="0.3"/>
			</g>
			<g>
				<circle fill="#F9A908" cx="49.3" cy="39" r="1.3"/>
			</g>
			<g>
				<circle fill="#F9A908" cx="56.5" cy="39.1" r="0.6"/>
			</g>
			<g>
				<circle fill="#F7910B" cx="9.3" cy="38.5" r="0.5"/>
			</g>
			<g>
				<circle fill="#F7910B" cx="10.1" cy="30.1" r="0.4"/>
			</g>
			<g>
				<circle fill="#F9A908" cx="4.8" cy="16.3" r="1.1"/>
			</g>
			<g>
				<circle fill="#F9A908" cx="8" cy="12.8" r="0.6"/>
			</g>
			<g>
				<circle fill="#F9A908" cx="59.2" cy="18.7" r="0.2"/>
			</g>
			<g>
				<circle fill="#F9A908" cx="58.4" cy="15.8" r="0.8"/>
			</g>
			<g>
				<circle fill="#F9A908" cx="61" cy="16.3" r="0.5"/>
			</g>
			<g>
				<circle fill="#F9A908" cx="6" cy="19.3" r="0.6"/>
			</g>
			<g>
				<path fill="#F7910B" d="M39.2,45.1c0,2.6-3.3,9.9-7.4,9.9s-7.4-7.3-7.4-9.9"/>
			</g>
			<g>
				<g>
					<path fill="#C42260" d="M46.8,30.3c0,9.1-6.6,16.5-14.8,16.5c-8.2,0-14.8-7.4-14.8-16.5"/>
				</g>
				<g>
					<path fill="#99144A" d="M46.8,30.3c0,3.1-6.6,5.6-14.8,5.6c-8.2,0-14.8-2.5-14.8-5.6"/>
				</g>
				<g>
					<path fill="#E2446E" d="M32,46.9c4.6,0,8.6-2.3,11.3-5.9c-1.7-2.1-4.1-3.4-6.8-3.4c-1.6,0-3.2,0.5-4.5,1.3
						c-1.3-0.9-2.9-1.3-4.5-1.3c-2.7,0-5.1,1.3-6.8,3.4C23.4,44.5,27.4,46.9,32,46.9z"/>
				</g>
			</g>
		</g>
		<g>
			<g>
				<g>
					<g>
						<path fill="#CCF2E3" d="M47.3,7.1c1.8-1.6,6.4,0.8,10.4,5.3c4,4.5,4.1,9.4,2.3,11c-1.8,1.6-4.7-0.8-8.7-5.3
							C47.4,13.5,45.6,8.6,47.3,7.1z"/>
					</g>
					<g>
						<path fill="#CCF2E3" d="M41,23.7c7,1.5,5.5-0.5,5.8-2.5c0.3-2,2.4-3.2-4.6-4.7c-7-1.5-10-0.4-10.4,1.6
							C31.5,20,34,22.2,41,23.7z"/>
					</g>
					<g>
						<path fill="#AAD6C3" d="M31.9,18c-0.3,2,2.2,4.2,9.2,5.6c7,1.5,5.5-0.5,5.8-2.5"/>
					</g>
					<g>
						<path fill="#CCF2E3" d="M43.9,16.8c7,1.5,5.5-0.5,5.8-2.5c0.3-2,3.4-3.1-3.6-4.6c-7-1.5-11-0.5-11.4,1.5
							C34.4,13.1,36.9,15.3,43.9,16.8z"/>
					</g>
					<g>
						<path fill="#AAD6C3" d="M34.7,11.1c-0.3,2,2.2,4.2,9.2,5.6c7,1.5,5.5-0.5,5.8-2.5"/>
					</g>
					<g>
						<path fill="#CCF2E3" d="M42.7,31.5c7,1.5,5.5-0.5,5.8-2.5c0.3-2,2.4-3.2-4.6-4.7c-7-1.5-10.1-0.4-10.4,1.6
							C33.2,27.8,35.7,30,42.7,31.5z"/>
					</g>
					<g>
						<path fill="#AAD6C3" d="M33.5,25.8c-0.3,2,2.2,4.2,9.2,5.6c7,1.5,5.5-0.5,5.8-2.5"/>
					</g>
					<g>
						<path fill="#CCF2E3" d="M47.3,32.5c6.5,1.3,12.5-0.9,13.6-7.4c1.1-6.5-3.2-12.9-9.7-14.2c-6.5-1.3-9.7,3.4-10.8,9.9
							C39.2,27.3,40.8,31.1,47.3,32.5z"/>
					</g>
					<g>
						<path fill="#AAD6C3" d="M47.3,32.5c6.5,1.3,12.5-0.9,13.6-7.4c1.1-6.5-4.3-9.7-10.8-11c-6.5-1.3-7.4-3.6-9.7,6.4
							C38.9,26.9,40.6,31.1,47.3,32.5z"/>
					</g>
				</g>
				<g>
					<path fill="#E7F7EF" d="M34.4,16.5c1-0.2,1.8-0.2,1.9,0.1c0.1,0.3-0.6,0.7-1.6,1c-1,0.2-1.8,0.2-1.9-0.1
						C32.7,17.2,33.5,16.7,34.4,16.5z"/>
				</g>
				<g>
					<path fill="#E7F7EF" d="M37.7,9.6c1-0.2,1.8-0.2,1.9,0.1c0.1,0.3-0.6,0.7-1.6,1c-1,0.2-1.8,0.2-1.9-0.1
						C36,10.2,36.7,9.8,37.7,9.6z"/>
				</g>
				<g>
					<path fill="#E7F7EF" d="M36.2,24.5c1-0.2,1.8-0.2,1.9,0.1c0.1,0.3-0.6,0.7-1.6,1c-1,0.2-1.8,0.2-1.9-0.1
						C34.5,25.2,35.2,24.7,36.2,24.5z"/>
				</g>
				<g>
					<path fill="#E7F7EF" d="M49.1,12.9c2.1,0.5,3.9,0.5,4,0c0.1-0.5-1.6-1.2-3.7-1.7c-2.1-0.5-2.7-0.2-2.8,0.3
						C46.6,11.9,47,12.4,49.1,12.9z"/>
				</g>
				<g>
					<path fill="#E7F7EF" d="M50.3,9.7c2,0.9,3.8,1.2,3.9,0.8C54.4,10.1,53,9,51,8.1c-2-0.9-2.6-0.7-2.8-0.3
						C48,8.3,48.3,8.8,50.3,9.7z"/>
				</g>
			</g>
			<g>
				<g>
					<g>
						<path fill="#CCF2E3" d="M16.7,7.1c-1.8-1.6-6.4,0.8-10.4,5.3c-4,4.5-4.1,9.4-2.3,11c1.8,1.6,4.7-0.8,8.7-5.3
							C16.6,13.5,18.4,8.6,16.7,7.1z"/>
					</g>
					<g>
						<path fill="#CCF2E3" d="M23,23.7c-7,1.5-5.5-0.5-5.8-2.5c-0.3-2-2.4-3.2,4.6-4.7c7-1.5,10-0.4,10.4,1.6
							C32.5,20,30,22.2,23,23.7z"/>
					</g>
					<g>
						<path fill="#AAD6C3" d="M32.1,18c0.3,2-2.2,4.2-9.2,5.6c-7,1.5-5.5-0.5-5.8-2.5"/>
					</g>
					<g>
						<path fill="#CCF2E3" d="M20.1,16.8c-7,1.5-5.5-0.5-5.8-2.5c-0.3-2-3.4-3.1,3.6-4.6c7-1.5,11-0.5,11.4,1.5
							C29.6,13.1,27.1,15.3,20.1,16.8z"/>
					</g>
					<g>
						<path fill="#AAD6C3" d="M29.3,11.1c0.3,2-2.2,4.2-9.2,5.6c-7,1.5-5.5-0.5-5.8-2.5"/>
					</g>
					<g>
						<path fill="#CCF2E3" d="M21.3,31.5c-7,1.5-5.5-0.5-5.8-2.5c-0.3-2-2.4-3.2,4.6-4.7c7-1.5,10.1-0.4,10.4,1.6
							C30.8,27.8,28.3,30,21.3,31.5z"/>
					</g>
					<g>
						<path fill="#AAD6C3" d="M30.5,25.8c0.3,2-2.2,4.2-9.2,5.6c-7,1.5-5.5-0.5-5.8-2.5"/>
					</g>
					<g>
						<path fill="#CCF2E3" d="M16.7,32.5c-6.5,1.3-12.5-0.9-13.6-7.4C2,18.6,6.4,12.2,12.8,10.9c6.5-1.3,9.7,3.4,10.8,9.9
							C24.8,27.3,23.2,31.1,16.7,32.5z"/>
					</g>
					<g>
						<path fill="#AAD6C3" d="M16.7,32.5c-6.5,1.3-12.5-0.9-13.6-7.4C2,18.6,7.4,15.4,13.9,14c6.5-1.3,7.4-3.6,9.7,6.4
							C25.1,26.9,23.4,31.1,16.7,32.5z"/>
					</g>
				</g>
				<g>
					<path fill="#E7F7EF" d="M29.6,16.5c-1-0.2-1.8-0.2-1.9,0.1c-0.1,0.3,0.6,0.7,1.6,1c1,0.2,1.8,0.2,1.9-0.1
						C31.3,17.2,30.5,16.7,29.6,16.5z"/>
				</g>
				<g>
					<path fill="#E7F7EF" d="M26.3,9.6c-1-0.2-1.8-0.2-1.9,0.1c-0.1,0.3,0.6,0.7,1.6,1c1,0.2,1.8,0.2,1.9-0.1
						C28,10.2,27.2,9.8,26.3,9.6z"/>
				</g>
				<g>
					<path fill="#E7F7EF" d="M27.8,24.5c-1-0.2-1.8-0.2-1.9,0.1c-0.1,0.3,0.6,0.7,1.6,1c1,0.2,1.8,0.2,1.9-0.1
						C29.5,25.2,28.8,24.7,27.8,24.5z"/>
				</g>
				<g>
					<path fill="#E7F7EF" d="M14.9,12.9c-2.1,0.5-3.9,0.5-4,0c-0.1-0.5,1.6-1.2,3.7-1.7c2.1-0.5,2.7-0.2,2.8,0.3
						C17.4,11.9,17,12.4,14.9,12.9z"/>
				</g>
				<g>
					<path fill="#E7F7EF" d="M13.7,9.7c-2,0.9-3.8,1.2-3.9,0.8C9.6,10.1,11,9,13,8.1c2-0.9,2.6-0.7,2.8-0.3
						C16,8.3,15.7,8.8,13.7,9.7z"/>
				</g>
			</g>
		</g>
	</g>
</g>
</svg>
