<?xml version="1.0" encoding="utf-8"?>
<!-- Generator: Adobe Illustrator 16.0.0, SVG Export Plug-In . SVG Version: 6.00 Build 0)  -->
<!DOCTYPE svg PUBLIC "-//W3C//DTD SVG 1.1//EN" "http://www.w3.org/Graphics/SVG/1.1/DTD/svg11.dtd">
<svg version="1.1" id="Layer_1" xmlns="http://www.w3.org/2000/svg" xmlns:xlink="http://www.w3.org/1999/xlink" x="0px" y="0px"
	 width="64px" height="64px" viewBox="0 0 64 64" enable-background="new 0 0 64 64" xml:space="preserve">
<g>
	<g>
		<g>
			<path fill="#F7910B" d="M63.4,39.4c0,13-11.9,23.5-30.3,23.5S2.7,52.4,2.7,39.4S14.6,6.9,33.1,6.9S63.4,26.4,63.4,39.4z"/>
		</g>
		<g>
			<path fill="#F7910B" d="M63.4,39.4c0,13-11.9,19.5-30.3,19.5S2.7,52.4,2.7,39.4S14.6,4.9,33.1,4.9S63.4,26.4,63.4,39.4z"/>
		</g>
		<g>
			<path fill="#F9A908" d="M33.1,4.9c18.4,0,30.3,21.5,30.3,34.5S51.5,58.9,33.1,58.9"/>
		</g>
		<g>
			<path fill="#F9A908" d="M63.4,39.4c0,13-11.9,19.5-30.3,19.5S2.7,52.4,2.7,39.4S14.6,6.9,33.1,6.9S63.4,26.4,63.4,39.4z"/>
		</g>
		<g>
			<path fill="#F9C55D" d="M2.7,39.4c0-13,11.9-32.5,30.3-32.5"/>
		</g>
		<g>
			<path fill="#F7910B" d="M33.1,6.9c18.4,0,30.3,19.5,30.3,32.5S51.5,62.9,33.1,62.9"/>
		</g>
		<g>
			<path fill="#EA7103" d="M33.1,6.9c18.4,0,30.3,19.5,30.3,32.5"/>
		</g>
		<g>
			<g>
				<path fill="#ED7E11" d="M50.8,49.1c0,2.6-5.3,4.7-11.9,4.7c-6.6,0-11.9-2.1-11.9-4.7"/>
			</g>
			<g>
				<path fill="#02243E" d="M39.1,50.4c-4.9,0-9.8-0.7-12-2.1c-0.5-0.3-0.7-1-0.4-1.5c0.3-0.5,1-0.7,1.5-0.4c3.8,2.3,18,2.3,21.8,0
					c0.5-0.3,1.2-0.2,1.5,0.4s0.2,1.2-0.4,1.5C48.9,49.7,44,50.4,39.1,50.4z"/>
			</g>
		</g>
		<g>
			<circle fill="#F7910B" cx="11.4" cy="36.4" r="0.6"/>
		</g>
		<g>
			<circle fill="#F7910B" cx="6.9" cy="38.4" r="1.1"/>
		</g>
		<g>
			<circle fill="#F7910B" cx="9.9" cy="34.4" r="0.2"/>
		</g>
		<g>
			<circle fill="#F7910B" cx="14.5" cy="36.2" r="0.2"/>
		</g>
		<g>
			<circle fill="#F9A908" cx="59.6" cy="39.3" r="0.7"/>
		</g>
		<g>
			<circle fill="#F9A908" cx="56.1" cy="38.1" r="0.2"/>
		</g>
		<g>
			<circle fill="#F9A908" cx="60.3" cy="45.1" r="0.3"/>
		</g>
		<g>
			<circle fill="#F9A908" cx="56.5" cy="48.9" r="1.3"/>
		</g>
		<g>
			<circle fill="#F9A908" cx="57.5" cy="41" r="0.6"/>
		</g>
		<g>
			<circle fill="#F7910B" cx="10.4" cy="40.4" r="0.5"/>
		</g>
		<g>
			<circle fill="#F7910B" cx="11.1" cy="32" r="0.4"/>
		</g>
		<g>
			<circle fill="#F9A908" cx="5.9" cy="18.2" r="1.1"/>
		</g>
		<g>
			<circle fill="#F9A908" cx="9.1" cy="14.7" r="0.6"/>
		</g>
		<g>
			<circle fill="#F9A908" cx="60.3" cy="20.6" r="0.2"/>
		</g>
		<g>
			<circle fill="#F9A908" cx="59.5" cy="17.7" r="0.8"/>
		</g>
		<g>
			<circle fill="#F9A908" cx="62" cy="18.2" r="0.5"/>
		</g>
		<g>
			<circle fill="#F9A908" cx="7.1" cy="21.2" r="0.6"/>
		</g>
		<g>
			<g>
				<circle fill="#D87703" cx="29" cy="38.3" r="3.5"/>
			</g>
			<g>
				<circle fill="#D87703" cx="51.8" cy="38.3" r="3.5"/>
			</g>
			<g>
				<circle fill="#1E4784" cx="29" cy="37.3" r="3.5"/>
			</g>
			<g>
				<path fill="#00233F" d="M29,33.8c1.9,0,3.5,1.6,3.5,3.5s-1.6,3.5-3.5,3.5"/>
			</g>
			<g>
				<circle fill="#1E4784" cx="51.8" cy="37.3" r="3.5"/>
			</g>
			<g>
				<path fill="#00233F" d="M51.8,33.8c1.9,0,3.5,1.6,3.5,3.5s-1.6,3.5-3.5,3.5"/>
			</g>
		</g>
		<g>
			<g>
				<path fill="#19BCA4" d="M30.8,16.5c-1.8,0.1-3.2,0.8-3.2,1.7l6.5-0.3C34.1,17,32.6,16.4,30.8,16.5z"/>
			</g>
			<g>
				<path fill="#19BCA4" d="M50.1,16.5c-1.8-0.1-3.3,0.6-3.3,1.4l6.5,0.3C53.4,17.3,51.9,16.5,50.1,16.5z"/>
			</g>
			<g>
				<path fill="#109DA0" d="M30.9,18.5c1.8-0.1,3.3,0.3,3.3-0.6l-6.5,0.3C27.7,19,29.1,18.5,30.9,18.5z"/>
			</g>
			<g>
				<path fill="#109DA0" d="M50,18.5c1.8,0.1,3.3,0.6,3.3-0.3l-6.5-0.3C46.8,18.8,48.2,18.4,50,18.5z"/>
			</g>
			<g>
				<path fill="#F9C55D" d="M28.5,40.2c-4.3,0-7.8,1-7.8,2.2c0,1.2,3.5,0.7,7.8,0.7c4.3,0,7.8,0.6,7.8-0.7
					C36.3,41.2,32.8,40.2,28.5,40.2z"/>
			</g>
			<g>
				<path fill="#F9A908" d="M52.4,40.2c-4.3,0-7.8,1-7.8,2.2c0,1.2,3.5,0.7,7.8,0.7s7.8,0.6,7.8-0.7C60.2,41.2,56.8,40.2,52.4,40.2z
					"/>
			</g>
		</g>
	</g>
	<g>
		<g>
			<g>
				<g>
					<path fill="#FFFFFF" d="M30.3,18.4c0-6-5.8-10.8-12.9-10.8c-7.1,0-12.9,4.8-12.9,10.8c0,1.6,0.4,3.1,1.1,4.5l0,0L11,30h0v3.1
						c0,3,2.9,5.4,6.5,5.4c3.6,0,6.5-2.4,6.5-5.4V30h0l5.2-7.1l0,0C29.9,21.5,30.3,20,30.3,18.4z"/>
				</g>
				<g>
					<path fill="#F9F3DC" d="M17.5,38.5c3.6,0,6.5-2.4,6.5-5.4V30h0l5.2-7.1l0,0c0.7-1.4,1.1-2.9,1.1-4.5c0-6-5.8-10.8-12.9-10.8"/>
				</g>
				<g>
					<path fill="#6D6DB2" d="M12.9,36.3v4.3c0,0.9,0.7,1.7,1.7,1.7h5.8c0.9,0,1.7-0.7,1.7-1.7v-4.3H12.9z"/>
				</g>
				<g>
					<path fill="#4C4C8C" d="M20.4,42.3c0.9,0,1.7-0.7,1.7-1.7v-4.3h-9.1"/>
				</g>
			</g>
			<g>
				<path fill="#7777BF" d="M21.9,37.8c0,0.2-0.1,0.3-0.3,0.3h-8.3c-0.2,0-0.3-0.1-0.3-0.3l0,0c0-0.2,0.1-0.3,0.3-0.3h8.3
					C21.8,37.4,21.9,37.6,21.9,37.8L21.9,37.8z"/>
			</g>
			<g>
				<path fill="#7777BF" d="M21.9,39.3c0,0.2-0.1,0.3-0.3,0.3h-8.3c-0.2,0-0.3-0.1-0.3-0.3l0,0c0-0.2,0.1-0.3,0.3-0.3h8.3
					C21.8,39,21.9,39.2,21.9,39.3L21.9,39.3z"/>
			</g>
			<g>
				<path fill="#7777BF" d="M21.9,40.9c0,0.2-0.1,0.3-0.3,0.3h-8.3c-0.2,0-0.3-0.1-0.3-0.3l0,0c0-0.2,0.1-0.3,0.3-0.3h8.3
					C21.8,40.6,21.9,40.7,21.9,40.9L21.9,40.9z"/>
			</g>
		</g>
		<g>
			<g>
				<circle fill="#F9C55D" cx="12.7" cy="21.1" r="1.2"/>
			</g>
			<g>
				<circle fill="#F9C55D" cx="17.5" cy="21.1" r="1.2"/>
			</g>
			<g>
				<circle fill="#F9C55D" cx="22.3" cy="21.1" r="1.2"/>
			</g>
		</g>
		<g>
			<path fill="#FFFFFF" d="M18.5,4c0,0.6-0.5,1-1,1l0,0c-0.6,0-1-0.5-1-1V2.1c0-0.6,0.5-1,1-1l0,0c0.6,0,1,0.5,1,1V4z"/>
		</g>
		<g>
			<g>
				<g>
					<path fill="#FFFFFF" d="M7.7,6.8c0.4,0.4,0.4,1.1,0,1.5l0,0c-0.4,0.4-1.1,0.4-1.5,0L4.9,6.9c-0.4-0.4-0.4-1.1,0-1.5l0,0
						c0.4-0.4,1.1-0.4,1.5,0L7.7,6.8z"/>
				</g>
				<g>
					<path fill="#FFFFFF" d="M3.8,11.2c0.5,0.2,0.8,0.8,0.6,1.3l0,0c-0.2,0.5-0.8,0.8-1.3,0.6l-1.8-0.6c-0.5-0.2-0.8-0.8-0.6-1.3
						l0,0c0.2-0.5,0.8-0.8,1.3-0.6L3.8,11.2z"/>
				</g>
				<g>
					<path fill="#FFFFFF" d="M13.1,4.3c0.2,0.5,0,1.1-0.6,1.3l0,0c-0.5,0.2-1.1,0-1.3-0.6l-0.7-1.8c-0.2-0.5,0-1.1,0.6-1.3l0,0
						c0.5-0.2,1.1,0,1.3,0.6L13.1,4.3z"/>
				</g>
			</g>
			<g>
				<g>
					<path fill="#FFFFFF" d="M27.3,6.8c-0.4,0.4-0.4,1.1,0,1.5l0,0c0.4,0.4,1.1,0.4,1.5,0l1.4-1.4c0.4-0.4,0.4-1.1,0-1.5l0,0
						c-0.4-0.4-1.1-0.4-1.5,0L27.3,6.8z"/>
				</g>
				<g>
					<path fill="#FFFFFF" d="M31.2,11.2c-0.5,0.2-0.8,0.8-0.6,1.3l0,0c0.2,0.5,0.8,0.8,1.3,0.6l1.8-0.6c0.5-0.2,0.8-0.8,0.6-1.3l0,0
						c-0.2-0.5-0.8-0.8-1.3-0.6L31.2,11.2z"/>
				</g>
				<g>
					<path fill="#FFFFFF" d="M21.8,4.3c-0.2,0.5,0,1.1,0.6,1.3l0,0c0.5,0.2,1.1,0,1.3-0.6l0.7-1.8c0.2-0.5,0-1.1-0.6-1.3l0,0
						c-0.5-0.2-1.1,0-1.3,0.6L21.8,4.3z"/>
				</g>
			</g>
		</g>
	</g>
</g>
</svg>
