<?xml version="1.0" encoding="utf-8"?>
<!-- Generator: Adobe Illustrator 16.0.0, SVG Export Plug-In . SVG Version: 6.00 Build 0)  -->
<!DOCTYPE svg PUBLIC "-//W3C//DTD SVG 1.1//EN" "http://www.w3.org/Graphics/SVG/1.1/DTD/svg11.dtd">
<svg version="1.1" id="Layer_1" xmlns="http://www.w3.org/2000/svg" xmlns:xlink="http://www.w3.org/1999/xlink" x="0px" y="0px"
	 width="64px" height="64px" viewBox="0 0 64 64" enable-background="new 0 0 64 64" xml:space="preserve">
<g>
	<g>
		<g>
			<path fill="#F7910B" d="M62,37.5c0,12.8-11.8,23.2-30,23.2c-18.2,0-30-10.4-30-23.2C2,24.6,13.8,5.4,32,5.4
				C50.2,5.4,62,24.6,62,37.5z"/>
		</g>
		<g>
			<path fill="#F7910B" d="M62,37.5c0,12.8-11.8,19.3-30,19.3c-18.2,0-30-6.4-30-19.3C2,24.6,13.8,3.4,32,3.4
				C50.2,3.4,62,24.6,62,37.5z"/>
		</g>
		<g>
			<path fill="#F9A908" d="M32,3.4c18.2,0,30,21.3,30,34.1c0,12.8-11.8,19.3-30,19.3"/>
		</g>
		<g>
			<path fill="#F9A908" d="M62,37.5c0,12.8-11.8,19.3-30,19.3c-18.2,0-30-6.4-30-19.3C2,24.6,13.8,5.4,32,5.4
				C50.2,5.4,62,24.6,62,37.5z"/>
		</g>
		<g>
			<path fill="#F9C55D" d="M2,37.5C2,24.6,13.8,5.4,32,5.4"/>
		</g>
		<g>
			<path fill="#F7910B" d="M32,5.4c18.2,0,30,19.3,30,32.1c0,12.8-11.8,23.2-30,23.2"/>
		</g>
		<g>
			<path fill="#EA7103" d="M32,5.4c18.2,0,30,19.3,30,32.1"/>
		</g>
		<g>
			<g>
				<g>
					<g>
						<g>
							<g>
								<path fill="#19BCA4" d="M25.3,17.9c-0.4,0.7-1.5-0.3-3-1.2c-1.6-0.9-3-1.2-2.6-2c0.4-0.7,2-0.6,3.6,0.3
									C24.8,15.8,25.7,17.1,25.3,17.9z"/>
							</g>
						</g>
					</g>
				</g>
				<g>
					<g>
						<g>
							<g>
								<path fill="#109DA0" d="M25.3,17.9c-0.4,0.7-1.5-0.3-3-1.2c-1.6-0.9-3-1.2-2.6-2"/>
							</g>
						</g>
					</g>
				</g>
			</g>
			<g>
				<g>
					<g>
						<g>
							<g>
								<path fill="#19BCA4" d="M38.6,19.1c0.4,0.8,1.5-0.3,3-1.2c1.6-0.9,3-1.2,2.6-1.9c-0.4-0.7-2-0.7-3.6,0.2
									C39.1,17,38.1,18.3,38.6,19.1z"/>
							</g>
						</g>
					</g>
				</g>
				<g>
					<g>
						<g>
							<g>
								<path fill="#109DA0" d="M38.6,19.1c0.4,0.8,1.5-0.3,3-1.2c1.6-0.9,3-1.2,2.6-1.9"/>
							</g>
						</g>
					</g>
				</g>
			</g>
		</g>
		<g>
			<g>
				<path fill="#F9C55D" d="M27.9,30.9c0,1.2-3.5,0.6-7.7,0.6c-4.3,0-7.7,0.6-7.7-0.6c0-1.2,3.5-2.2,7.7-2.2
					C24.4,28.7,27.9,29.6,27.9,30.9z"/>
			</g>
			<g>
				<path fill="#F9A908" d="M51.5,30.9c0,1.2-3.5,0.6-7.7,0.6c-4.3,0-7.7,0.6-7.7-0.6c0-1.2,3.4-2.2,7.7-2.2
					C48.1,28.7,51.5,29.6,51.5,30.9z"/>
			</g>
		</g>
		<g>
			<path fill="#F9C55D" d="M26.8,35.7c0-2.3,2.3-4.2,5.2-4.2c2.9,0,5.2,1.9,5.2,4.2"/>
		</g>
		<g>
			<circle fill="#F7910B" cx="10.6" cy="34.5" r="0.6"/>
		</g>
		<g>
			<circle fill="#F7910B" cx="6.2" cy="36.4" r="1.1"/>
		</g>
		<g>
			<circle fill="#F7910B" cx="9.1" cy="32.5" r="0.2"/>
		</g>
		<g>
			<circle fill="#F7910B" cx="13.6" cy="34.3" r="0.2"/>
		</g>
		<g>
			<circle fill="#F9A908" cx="52.3" cy="34.8" r="0.7"/>
		</g>
		<g>
			<circle fill="#F9A908" cx="54.8" cy="36.2" r="0.2"/>
		</g>
		<g>
			<circle fill="#F9A908" cx="49.5" cy="27.5" r="0.3"/>
		</g>
		<g>
			<circle fill="#F9A908" cx="49.1" cy="39" r="1.3"/>
		</g>
		<g>
			<circle fill="#F9A908" cx="56.2" cy="39" r="0.6"/>
		</g>
		<g>
			<circle fill="#F7910B" cx="9.6" cy="38.4" r="0.5"/>
		</g>
		<g>
			<circle fill="#F7910B" cx="10.4" cy="30.1" r="0.4"/>
		</g>
		<g>
			<circle fill="#F9A908" cx="5.2" cy="16.6" r="1.1"/>
		</g>
		<g>
			<circle fill="#F9A908" cx="8.3" cy="13" r="0.6"/>
		</g>
		<g>
			<circle fill="#F9A908" cx="58.9" cy="18.9" r="0.2"/>
		</g>
		<g>
			<circle fill="#F9A908" cx="58.1" cy="16" r="0.8"/>
		</g>
		<g>
			<circle fill="#F9A908" cx="60.6" cy="16.6" r="0.5"/>
		</g>
		<g>
			<circle fill="#F9A908" cx="6.3" cy="19.5" r="0.6"/>
		</g>
		<g>
			<g>
				<g>
					<g>
						<g>
							<g>
								<path fill="#1E4784" d="M25.6,27c-0.4,0-0.8-0.1-1.2-0.4c-1.5-1.2-3.8-1-5,0.5c-0.6,0.7-1.6,0.8-2.3,0.2
									c-0.7-0.6-0.8-1.6-0.2-2.3c2.4-2.9,6.7-3.4,9.6-1c0.7,0.6,0.8,1.6,0.2,2.3C26.4,26.8,26,27,25.6,27z"/>
							</g>
						</g>
						<g>
							<g>
								<path fill="#02243E" d="M26.4,24.2c0.7,0.6,0.8,1.6,0.2,2.3C26.4,26.8,26,27,25.6,27c-0.4,0-0.8-0.1-1.2-0.4
									c-1.5-1.2-3.8-1-5,0.5c-0.6,0.7-1.6,0.8-2.3,0.2c-0.7-0.6-0.8-1.6-0.2-2.3"/>
							</g>
						</g>
					</g>
				</g>
			</g>
			<g>
				<g>
					<g>
						<g>
							<g>
								<path fill="#1E4784" d="M38.4,27c0.4,0,0.8-0.1,1.2-0.4c1.5-1.2,3.8-1,5,0.5c0.6,0.7,1.6,0.8,2.3,0.2
									c0.7-0.6,0.8-1.6,0.2-2.3c-2.4-2.9-6.7-3.4-9.6-1c-0.7,0.6-0.8,1.6-0.2,2.3C37.6,26.8,38,27,38.4,27z"/>
							</g>
						</g>
						<g>
							<g>
								<path fill="#02243E" d="M37.6,24.2c-0.7,0.6-0.8,1.6-0.2,2.3c0.3,0.4,0.7,0.6,1.1,0.6c0.4,0,0.8-0.1,1.2-0.4
									c1.5-1.2,3.8-1,5,0.5c0.6,0.7,1.6,0.8,2.3,0.2c0.7-0.6,0.8-1.6,0.2-2.3"/>
							</g>
						</g>
					</g>
				</g>
			</g>
		</g>
		<g>
			<g>
				<g>
					<g>
						<path fill="#19DAF4" d="M11.3,31.8L11.3,31.8l8.3-3.5l-8.2-3.5l0,0c-0.5-0.2-1-0.3-1.6-0.3c-2.1,0-3.8,1.7-3.8,3.8
							c0,2.1,1.7,3.8,3.8,3.8C10.3,32.2,10.8,32.1,11.3,31.8z"/>
					</g>
					<g>
						<path fill="#0EB2CC" d="M5.9,28.4c0,2.1,1.7,3.8,3.8,3.8c0.6,0,1.1-0.1,1.6-0.3l0,0l8.2-3.5"/>
					</g>
				</g>
				<g>
					<g>
						<path fill="#19DAF4" d="M6.6,41L6.6,41l5.1-6.2l-8,0.7l0,0c-0.5,0-0.9,0.2-1.4,0.4c-1.7,0.9-2.3,3-1.4,4.6
							c0.9,1.7,3,2.3,4.6,1.4C6,41.7,6.3,41.4,6.6,41z"/>
					</g>
					<g>
						<path fill="#0EB2CC" d="M0.9,40.5c0.9,1.7,3,2.3,4.6,1.4C6,41.7,6.3,41.4,6.6,41l0,0l5-6.2"/>
					</g>
				</g>
				<g>
					<g>
						<path fill="#19DAF4" d="M11.7,48.2L11.7,48.2l-1.1-6.9l-4.2,5.6l0,0C6.2,47.2,6,47.6,5.9,48c-0.4,1.6,0.6,3.2,2.2,3.6
							c1.6,0.4,3.2-0.6,3.6-2.2C11.8,49,11.8,48.6,11.7,48.2z"/>
					</g>
					<g>
						<path fill="#0EB2CC" d="M8.1,51.6c1.6,0.4,3.2-0.6,3.6-2.2c0.1-0.4,0.1-0.9,0-1.3l0,0l-1.1-6.9"/>
					</g>
				</g>
			</g>
			<g>
				<g>
					<g>
						<path fill="#0EB2CC" d="M52.7,31.8L52.7,31.8l-8.3-3.5l8.2-3.5l0,0c0.5-0.2,1-0.3,1.6-0.3c2.1,0,3.8,1.7,3.8,3.8
							c0,2.1-1.7,3.8-3.8,3.8C53.7,32.2,53.2,32.1,52.7,31.8z"/>
					</g>
					<g>
						<path fill="#19DAF4" d="M58.1,28.4c0,2.1-1.7,3.8-3.8,3.8c-0.6,0-1.1-0.1-1.6-0.3l0,0l-8.2-3.5"/>
					</g>
				</g>
				<g>
					<g>
						<path fill="#0EB2CC" d="M57.4,41L57.4,41l-5.1-6.2l8,0.7l0,0c0.5,0,0.9,0.2,1.4,0.4c1.7,0.9,2.3,3,1.4,4.6
							c-0.9,1.7-3,2.3-4.6,1.4C58,41.7,57.7,41.4,57.4,41z"/>
					</g>
					<g>
						<path fill="#19DAF4" d="M63.1,40.5c-0.9,1.7-3,2.3-4.6,1.4c-0.4-0.2-0.8-0.6-1.1-0.9l0,0l-5-6.2"/>
					</g>
				</g>
				<g>
					<g>
						<path fill="#0EB2CC" d="M52.3,48.2L52.3,48.2l1.1-6.9l4.2,5.6l0,0c0.3,0.3,0.5,0.7,0.6,1.1c0.4,1.6-0.6,3.2-2.2,3.6
							c-1.6,0.4-3.2-0.6-3.6-2.2C52.2,49,52.2,48.6,52.3,48.2z"/>
					</g>
					<g>
						<path fill="#19DAF4" d="M55.9,51.6c-1.6,0.4-3.2-0.6-3.6-2.2c-0.1-0.4-0.1-0.9,0-1.3l0,0l1.1-6.9"/>
					</g>
				</g>
			</g>
		</g>
		<g>
			<g>
				<path fill="#F7910B" d="M39.3,46.5c0,2.6-3.3,4.6-7.3,4.6c-4,0-7.3-2.1-7.3-4.6"/>
			</g>
			<g>
				<g>
					<path fill="#C42260" d="M17.4,48.2c0-9,6.5-16.3,14.6-16.3c8.1,0,14.6,7.3,14.6,16.3"/>
				</g>
				<g>
					<path fill="#E2446E" d="M17.4,48.2c0-3,6.5-5.5,14.6-5.5c8.1,0,14.6,2.5,14.6,5.5"/>
				</g>
				<g>
					<path fill="#99144A" d="M32,31.8c-4.5,0-8.5,2.3-11.2,5.8c1.7,2.1,4.1,3.4,6.7,3.4c1.6,0,3.1-0.5,4.5-1.3
						c1.3,0.8,2.8,1.3,4.5,1.3c2.7,0,5.1-1.3,6.7-3.4C40.5,34.1,36.5,31.8,32,31.8z"/>
				</g>
			</g>
		</g>
	</g>
	<g>
		<circle fill="#19DAF4" cx="51.6" cy="8.8" r="1.3"/>
	</g>
	<g>
		<circle fill="#19DAF4" cx="54.2" cy="13.3" r="0.4"/>
	</g>
	<g>
		<circle fill="#19DAF4" cx="57.3" cy="5.3" r="2"/>
	</g>
	<g>
		<circle fill="#19DAF4" cx="7.3" cy="9.2" r="2.3"/>
	</g>
	<g>
		<circle fill="#19DAF4" cx="10.8" cy="21.7" r="0.7"/>
	</g>
	<g>
		<circle fill="#19DAF4" cx="11.2" cy="17" r="1.4"/>
	</g>
</g>
</svg>
