<?xml version="1.0" encoding="utf-8"?>
<!-- Generator: Adobe Illustrator 16.0.0, SVG Export Plug-In . SVG Version: 6.00 Build 0)  -->
<!DOCTYPE svg PUBLIC "-//W3C//DTD SVG 1.1//EN" "http://www.w3.org/Graphics/SVG/1.1/DTD/svg11.dtd">
<svg version="1.1" id="Layer_1" xmlns="http://www.w3.org/2000/svg" xmlns:xlink="http://www.w3.org/1999/xlink" x="0px" y="0px"
	 width="64px" height="64px" viewBox="0 0 64 64" enable-background="new 0 0 64 64" xml:space="preserve">
<g>
	<g>
		<g>
			<g>
				<g>
					<g>
						<g>
							<g>
								<path fill="#F7910B" d="M62.3,37.5C62.3,50.5,50.4,61,32,61C13.6,61,1.7,50.5,1.7,37.5S13.6,5,32,5
									C50.4,5,62.3,24.5,62.3,37.5z"/>
							</g>
							<g>
								<path fill="#F7910B" d="M62.3,37.5C62.3,50.5,50.4,57,32,57C13.6,57,1.7,50.5,1.7,37.5S13.6,3,32,3
									C50.4,3,62.3,24.5,62.3,37.5z"/>
							</g>
							<g>
								<path fill="#F9A908" d="M32,3c18.4,0,30.3,21.5,30.3,34.5S50.4,57,32,57"/>
							</g>
							<g>
								<path fill="#F9A908" d="M62.3,37.5C62.3,50.5,50.4,57,32,57C13.6,57,1.7,50.5,1.7,37.5S13.6,5,32,5
									C50.4,5,62.3,24.5,62.3,37.5z"/>
							</g>
							<g>
								<path fill="#F9C55D" d="M1.7,37.5C1.7,24.5,13.6,5,32,5"/>
							</g>
							<g>
								<path fill="#F7910B" d="M32,5c18.4,0,30.3,19.5,30.3,32.5S50.4,61,32,61"/>
							</g>
							<g>
								<path fill="#EA7103" d="M32,5c18.4,0,30.3,19.5,30.3,32.5"/>
							</g>
							<g>
								<g>
									<circle fill="#EA7103" cx="21.6" cy="33.7" r="3.2"/>
								</g>
								<g>
									<circle fill="#EA7103" cx="42.4" cy="33.7" r="3.2"/>
								</g>
								<g>
									<circle fill="#1E4784" cx="21.6" cy="32.8" r="3.2"/>
								</g>
								<g>
									<path fill="#00233F" d="M21.6,29.6c1.8,0,3.2,1.4,3.2,3.2S23.4,36,21.6,36"/>
								</g>
								<g>
									<circle fill="#1E4784" cx="42.4" cy="32.8" r="3.2"/>
								</g>
								<g>
									<path fill="#00233F" d="M42.4,29.6c1.8,0,3.2,1.4,3.2,3.2S44.1,36,42.4,36"/>
								</g>
							</g>
							<g>
								<g>
									<g>
										<g>
											<g>
												<g>
													<path fill="#19BCA4" d="M25.1,28.8c-0.4,0.8-1.5-0.2-3.1-1s-3.1-1-2.8-1.8c0.4-0.8,2-0.8,3.6,0
														C24.5,26.7,25.5,28,25.1,28.8z"/>
												</g>
											</g>
										</g>
									</g>
									<g>
										<g>
											<g>
												<g>
													<path fill="#19BCA4" d="M38.7,30.3c0.3,0.8,1.5-0.1,3.2-0.8c1.7-0.6,3.2-0.8,2.9-1.6c-0.3-0.8-1.9-0.9-3.6-0.3
														C39.5,28.4,38.4,29.5,38.7,30.3z"/>
												</g>
											</g>
										</g>
									</g>
								</g>
								<g>
									<g>
										<g>
											<g>
												<g>
													<path fill="#109DA0" d="M25.1,28.8c-0.4,0.8-1.5-0.2-3.1-1s-3.1-1-2.8-1.8"/>
												</g>
											</g>
										</g>
									</g>
									<g>
										<g>
											<g>
												<g>
													<path fill="#109DA0" d="M38.7,30.3c0.3,0.8,1.5-0.1,3.2-0.8c1.7-0.6,3.2-0.8,2.9-1.6"/>
												</g>
											</g>
										</g>
									</g>
								</g>
							</g>
							<g>
								<g>
									<path fill="#F9C55D" d="M27.8,38.1c0,1.2-3.5,0.7-7.8,0.7c-4.3,0-7.8,0.6-7.8-0.7c0-1.2,3.5-2.2,7.8-2.2
										C24.3,35.9,27.8,36.8,27.8,38.1z"/>
								</g>
								<g>
									<path fill="#F9A908" d="M51.8,38.1c0,1.2-3.5,0.7-7.8,0.7s-7.8,0.6-7.8-0.7c0-1.2,3.5-2.2,7.8-2.2S51.8,36.8,51.8,38.1z"/>
								</g>
							</g>
							<g>
								<circle fill="#F7910B" cx="10.3" cy="34.5" r="0.6"/>
							</g>
							<g>
								<circle fill="#F7910B" cx="5.8" cy="36.5" r="1.1"/>
							</g>
							<g>
								<circle fill="#F7910B" cx="8.8" cy="32.5" r="0.2"/>
							</g>
							<g>
								<circle fill="#F7910B" cx="13.4" cy="34.3" r="0.2"/>
							</g>
							<g>
								<circle fill="#F9A908" cx="52.6" cy="34.8" r="0.8"/>
							</g>
							<g>
								<circle fill="#F9A908" cx="55.1" cy="36.2" r="0.2"/>
							</g>
							<g>
								<circle fill="#F9A908" cx="49.8" cy="27.4" r="0.3"/>
							</g>
							<g>
								<circle fill="#F9A908" cx="49.3" cy="39" r="1.3"/>
							</g>
							<g>
								<circle fill="#F9A908" cx="56.5" cy="39.1" r="0.6"/>
							</g>
							<g>
								<circle fill="#F7910B" cx="9.3" cy="38.5" r="0.5"/>
							</g>
							<g>
								<circle fill="#F7910B" cx="10.1" cy="30.1" r="0.4"/>
							</g>
							<g>
								<circle fill="#25A1D8" cx="4.8" cy="16.3" r="1.1"/>
							</g>
							<g>
								<circle fill="#25A1D8" cx="8" cy="12.8" r="0.6"/>
							</g>
							<g>
								<circle fill="#0767A8" cx="59.2" cy="18.7" r="0.2"/>
							</g>
							<g>
								<circle fill="#0767A8" cx="58.4" cy="15.8" r="0.8"/>
							</g>
							<g>
								<circle fill="#0767A8" cx="61" cy="16.3" r="0.5"/>
							</g>
							<g>
								<circle fill="#25A1D8" cx="6" cy="19.3" r="0.6"/>
							</g>
						</g>
					</g>
				</g>
			</g>
		</g>
	</g>
	<g>
		<path fill="#25A1D8" d="M32,3C13.6,3,1.7,24.5,1.7,37.5S13.6,61,32,61c18.4,0,30.3-10.5,30.3-23.5S50.4,3,32,3z M32,40
			c-13.4,0-24.3-0.8-24.3-9.9c0-9,10.9-5.3,24.3-5.3c13.4,0,24.2-3.8,24.2,5.3C56.2,39.2,45.4,40,32,40z"/>
	</g>
	<g>
		<path fill="#0767A8" d="M62.3,37.5C62.3,24.5,50.4,3,32,3c-6.5,0-12.3,2.7-16.9,6.8c-1.9,4.4-3.1,9.4-3.5,14.8
			c4.3-1.3,11.8,0.3,20.4,0.3c13.4,0,24.2-3.8,24.2,5.3c0,9-10.9,9.9-24.2,9.9c-8.1,0-15.2-0.3-19.6-2.5
			c2.3,11.4,8.5,20.3,16.4,23.4C29.8,61,30.9,61,32,61C50.4,61,62.3,50.5,62.3,37.5z"/>
	</g>
	<g>
		<path fill="#C8D4DB" d="M32,10.2c10.5,0,18.9,0.7,18.9,7.7C50.9,25,42.5,25,32,25c-10.5,0-18.9-0.1-18.9-7.1
			C13.1,10.9,21.5,10.2,32,10.2z"/>
	</g>
	<g>
		<path fill="#E1EAEF" d="M13.1,17.2c0.6,5.3,8.8,5.4,18.9,5.4c10.1,0,18.3-0.1,18.9-5.4c-0.6-6.4-8.8-7-18.9-7
			C21.9,10.2,13.7,10.8,13.1,17.2z"/>
	</g>
	<g>
		<polygon fill="#25A1D8" points="31.7,12 33.1,14.9 36.3,15.4 34,17.6 34.6,20.8 31.7,19.3 28.9,20.8 29.4,17.6 27.1,15.4 
			30.3,14.9 		"/>
	</g>
	<g>
		<polygon fill="#0767A8" points="31.7,12 33.1,14.9 36.3,15.4 34,17.6 34.6,20.8 31.7,19.3 28.9,20.8 30.3,18.5 27.1,15.4 
			31.2,15.7 		"/>
	</g>
</g>
</svg>
