<?xml version="1.0" encoding="utf-8"?>
<!-- Generator: Adobe Illustrator 16.0.0, SVG Export Plug-In . SVG Version: 6.00 Build 0)  -->
<!DOCTYPE svg PUBLIC "-//W3C//DTD SVG 1.1//EN" "http://www.w3.org/Graphics/SVG/1.1/DTD/svg11.dtd">
<svg version="1.1" id="Layer_1" xmlns="http://www.w3.org/2000/svg" xmlns:xlink="http://www.w3.org/1999/xlink" x="0px" y="0px"
	 width="64px" height="64px" viewBox="0 0 64 64" enable-background="new 0 0 64 64" xml:space="preserve">
<g>
	<g>
		<g>
			<g>
				<g>
					<path fill="#F7910B" d="M60.9,34.5c0,12.4-11.4,22.4-28.9,22.4c-17.6,0-28.9-10-28.9-22.4c0-12.4,11.4-31,28.9-31
						C49.6,3.5,60.9,22.1,60.9,34.5z"/>
				</g>
				<g>
					<path fill="#F7910B" d="M60.9,34.5c0,12.4-11.4,18.6-28.9,18.6c-17.6,0-28.9-6.2-28.9-18.6C3.1,22.1,14.4,1.6,32,1.6
						C49.6,1.6,60.9,22.1,60.9,34.5z"/>
				</g>
				<g>
					<path fill="#F9A908" d="M32,1.6c17.6,0,28.9,20.5,28.9,32.9c0,12.4-11.4,18.6-28.9,18.6"/>
				</g>
				<g>
					<path fill="#F9A908" d="M60.9,34.5c0,12.4-11.4,18.6-28.9,18.6c-17.6,0-28.9-6.2-28.9-18.6c0-12.4,11.4-31,28.9-31
						C49.6,3.5,60.9,22.1,60.9,34.5z"/>
				</g>
				<g>
					<path fill="#F9C55D" d="M3.1,34.5c0-12.4,11.4-31,28.9-31"/>
				</g>
				<g>
					<path fill="#F7910B" d="M32,3.5c17.6,0,28.9,18.6,28.9,31c0,12.4-11.4,22.4-28.9,22.4"/>
				</g>
				<g>
					<path fill="#EA7103" d="M32,3.5c17.6,0,28.9,18.6,28.9,31"/>
				</g>
				<g>
					<g>
						<circle fill="#EA7103" cx="22.1" cy="19" r="3"/>
					</g>
					<g>
						<circle fill="#EA7103" cx="41.9" cy="19" r="3"/>
					</g>
					<g>
						<circle fill="#1E4784" cx="22.1" cy="18.2" r="3"/>
					</g>
					<g>
						<path fill="#00233F" d="M22.1,15.1c1.7,0,3,1.4,3,3s-1.4,3-3,3"/>
					</g>
					<g>
						<circle fill="#1E4784" cx="41.9" cy="18.2" r="3"/>
					</g>
					<g>
						<path fill="#00233F" d="M41.9,15.1c1.7,0,3,1.4,3,3s-1.4,3-3,3"/>
					</g>
				</g>
				<g>
					<g>
						<g>
							<g>
								<g>
									<g>
										<path fill="#19BCA4" d="M25.9,8.3c0.3,0.8-1.1,0.9-2.7,1.6c-1.6,0.7-2.7,1.6-3,0.8c-0.3-0.8,0.7-1.9,2.3-2.6
											C24,7.5,25.6,7.5,25.9,8.3z"/>
									</g>
								</g>
							</g>
						</g>
						<g>
							<g>
								<g>
									<g>
										<path fill="#19BCA4" d="M38.1,4.9c-0.3,0.8,1.2,0.9,2.8,1.5c1.6,0.6,2.8,1.5,3.1,0.7c0.3-0.8-0.8-1.9-2.4-2.5
											C39.9,4,38.4,4.1,38.1,4.9z"/>
									</g>
								</g>
							</g>
						</g>
					</g>
					<g>
						<g>
							<g>
								<g>
									<g>
										<path fill="#109DA0" d="M25.9,8.3c0.3,0.8-1.1,0.9-2.7,1.6c-1.6,0.7-2.7,1.6-3,0.8"/>
									</g>
								</g>
							</g>
						</g>
						<g>
							<g>
								<g>
									<g>
										<path fill="#109DA0" d="M38.1,4.9c-0.3,0.8,1.2,0.9,2.8,1.5c1.6,0.6,2.8,1.5,3.1,0.7"/>
									</g>
								</g>
							</g>
						</g>
					</g>
				</g>
				<g>
					<g>
						<path fill="#F9C55D" d="M28,23.9c0,1.2-3.3,0.6-7.4,0.6c-4.1,0-7.4,0.5-7.4-0.6c0-1.2,3.3-2.1,7.4-2.1
							C24.7,21.8,28,22.8,28,23.9z"/>
					</g>
					<g>
						<path fill="#F9A908" d="M50.9,23.9c0,1.2-3.3,0.6-7.4,0.6c-4.1,0-7.4,0.5-7.4-0.6c0-1.2,3.3-2.1,7.4-2.1
							C47.5,21.8,50.9,22.8,50.9,23.9z"/>
					</g>
				</g>
				<g>
					<path fill="#F7910B" d="M11.9,31.6c0,0.3-0.3,0.6-0.6,0.6c-0.3,0-0.6-0.3-0.6-0.6c0-0.3,0.3-0.6,0.6-0.6
						C11.7,31,11.9,31.3,11.9,31.6z"/>
				</g>
				<g>
					<circle fill="#F7910B" cx="7" cy="33.5" r="1.1"/>
				</g>
				<g>
					<circle fill="#F7910B" cx="9.9" cy="29.7" r="0.2"/>
				</g>
				<g>
					<circle fill="#F7910B" cx="14.3" cy="31.4" r="0.2"/>
				</g>
				<g>
					<circle fill="#F9A908" cx="51.6" cy="32" r="0.7"/>
				</g>
				<g>
					<circle fill="#F9A908" cx="54" cy="33.3" r="0.2"/>
				</g>
				<g>
					<circle fill="#F9A908" cx="48.9" cy="24.9" r="0.3"/>
				</g>
				<g>
					<circle fill="#F9A908" cx="48.5" cy="36" r="1.3"/>
				</g>
				<g>
					<circle fill="#F9A908" cx="55.3" cy="36" r="0.6"/>
				</g>
				<g>
					<path fill="#F7910B" d="M10.9,35.5c0,0.3-0.2,0.5-0.5,0.5c-0.3,0-0.5-0.2-0.5-0.5c0-0.3,0.2-0.5,0.5-0.5
						C10.7,35,10.9,35.2,10.9,35.5z"/>
				</g>
				<g>
					<circle fill="#F7910B" cx="11.1" cy="27.4" r="0.4"/>
				</g>
				<g>
					<circle fill="#F9A908" cx="6.1" cy="14.3" r="1.1"/>
				</g>
				<g>
					<circle fill="#F9A908" cx="9.1" cy="10.9" r="0.5"/>
				</g>
				<g>
					<path fill="#F9A908" d="M58.2,16.6c0,0.1-0.1,0.2-0.2,0.2c-0.1,0-0.2-0.1-0.2-0.2c0-0.1,0.1-0.2,0.2-0.2
						C58.1,16.4,58.2,16.5,58.2,16.6z"/>
				</g>
				<g>
					<circle fill="#F9A908" cx="57.2" cy="13.8" r="0.8"/>
				</g>
				<g>
					<path fill="#F9A908" d="M60.1,14.3c0,0.3-0.2,0.5-0.5,0.5c-0.3,0-0.5-0.2-0.5-0.5c0-0.3,0.2-0.5,0.5-0.5
						C59.9,13.8,60.1,14.1,60.1,14.3z"/>
				</g>
				<g>
					<circle fill="#F9A908" cx="7.2" cy="17.1" r="0.5"/>
				</g>
			</g>
		</g>
	</g>
	<g>
		<ellipse fill="#99144A" cx="32" cy="27.8" rx="2.9" ry="5.2"/>
	</g>
	<g>
		<g>
			<path fill="#42BEC1" d="M61.8,42.9c0,5.3-13.7,19.5-30.6,19.5c-16.9,0-30.6-14.2-30.6-19.5c0-5.3,13.7-9.5,30.6-9.5
				C48,33.4,61.8,37.7,61.8,42.9z"/>
		</g>
		<g>
			<path fill="#2DA1AA" d="M31.1,33.4c16.9,0,30.6,4.3,30.6,9.5c0,5.3-13.7,19.5-30.6,19.5"/>
		</g>
		<g>
			<path fill="#424242" d="M60.7,42.4c0,4-13.2,7.3-29.6,7.3c-16.3,0-29.6-3.3-29.6-7.3s13.2-8.3,29.6-8.3
				C47.5,34.1,60.7,38.4,60.7,42.4z"/>
		</g>
		<g>
			<path d="M31.1,34.1c16.3,0,29.6,4.3,29.6,8.3s-13.2,7.3-29.6,7.3"/>
		</g>
		<g>
			<path fill="#FFCD50" d="M4.6,50.2c1.4,1.6,3.2,3.2,5.2,4.7c5.4,1.4,13,2.3,21.4,2.3c8.4,0,16-0.9,21.4-2.3c2-1.5,3.8-3.1,5.2-4.7
				c-4.8,2.4-14.9,4.1-26.6,4.1C19.5,54.3,9.4,52.6,4.6,50.2z"/>
		</g>
		<g>
			<path fill="#FFB31A" d="M31.1,57.1c8.4,0,16-0.9,21.4-2.3c2-1.5,3.8-3.1,5.2-4.7c-4.8,2.4-14.9,4.1-26.6,4.1"/>
		</g>
		<g>
			<path fill="#FFD217" d="M55.6,44.9c0,3.3-10.9,5.1-24.5,5.1c-13.5,0-24.5-1.7-24.5-5.1c0-3.3,11-7.9,24.5-7.9
				C44.6,37,55.6,41.5,55.6,44.9z"/>
		</g>
		<g>
			<path fill="#FFB31A" d="M31.1,37c13.5,0,24.5,4.5,24.5,7.9c0,3.3-10.9,5.1-24.5,5.1"/>
		</g>
		<g>
			<g>
				<g>
					<g>
						<path fill="#F7E98B" d="M11,40.9c-0.3-0.3-0.3-0.7,0-1c2.9-2.8,7.7-2.8,10.7,0c0.3,0.3,0.3,0.7,0,1c-0.3,0.3-0.7,0.3-1,0
							c-2.4-2.3-6.3-2.3-8.6,0C11.8,41.2,11.3,41.2,11,40.9z"/>
					</g>
				</g>
				<g>
					<g>
						<path fill="#F7E98B" d="M31.5,40.4c0.3,0.3,0.3,0.7,0,1c-3,2.7-7.8,2.6-10.6-0.3c-0.3-0.3-0.3-0.7,0-1c0.3-0.3,0.7-0.2,1,0
							c2.3,2.3,6.2,2.5,8.6,0.2C30.7,40.1,31.2,40.1,31.5,40.4z"/>
					</g>
				</g>
			</g>
			<g>
				<g>
					<g>
						<path fill="#F7E98B" d="M11,43.8c-0.3-0.3-0.3-0.7,0-1c2.9-2.8,7.7-2.8,10.7,0c0.3,0.3,0.3,0.7,0,1c-0.3,0.3-0.7,0.3-1,0
							c-2.4-2.3-6.3-2.3-8.6,0C11.8,44.1,11.3,44.1,11,43.8z"/>
					</g>
				</g>
				<g>
					<g>
						<path fill="#F7E98B" d="M31.5,43.2c0.3,0.3,0.3,0.7,0,1c-3,2.7-7.8,2.6-10.6-0.3c-0.3-0.3-0.3-0.7,0-1c0.3-0.3,0.7-0.2,1,0
							c2.3,2.3,6.2,2.5,8.6,0.2C30.7,43,31.2,43,31.5,43.2z"/>
					</g>
				</g>
			</g>
			<g>
				<g>
					<g>
						<path fill="#F7E98B" d="M11,46.7c-0.3-0.3-0.3-0.7,0-1c2.9-2.8,7.7-2.8,10.7,0c0.3,0.3,0.3,0.7,0,1c-0.3,0.3-0.7,0.3-1,0
							c-2.4-2.3-6.3-2.3-8.6,0C11.8,46.9,11.3,46.9,11,46.7z"/>
					</g>
				</g>
				<g>
					<g>
						<path fill="#F7E98B" d="M31.5,46.1c0.3,0.3,0.3,0.7,0,1c-3,2.7-7.8,2.6-10.6-0.3c-0.3-0.3-0.3-0.7,0-1c0.3-0.3,0.7-0.2,1,0
							c2.3,2.3,6.2,2.5,8.6,0.2C30.7,45.8,31.2,45.8,31.5,46.1z"/>
					</g>
				</g>
			</g>
			<g>
				<g>
					<g>
						<path fill="#F7E98B" d="M30.8,40.9c-0.3-0.3-0.3-0.7,0-1c2.9-2.8,7.7-2.8,10.7,0c0.3,0.3,0.3,0.7,0,1c-0.3,0.3-0.7,0.3-1,0
							c-2.4-2.3-6.3-2.3-8.6,0C31.5,41.2,31.1,41.2,30.8,40.9z"/>
					</g>
				</g>
				<g>
					<g>
						<path fill="#F7E98B" d="M51.2,40.4c0.3,0.3,0.3,0.7,0,1c-3,2.7-7.8,2.6-10.6-0.3c-0.3-0.3-0.3-0.7,0-1c0.3-0.3,0.7-0.2,1,0
							c2.3,2.3,6.2,2.5,8.6,0.2C50.5,40.1,51,40.1,51.2,40.4z"/>
					</g>
				</g>
			</g>
			<g>
				<g>
					<g>
						<path fill="#F7E98B" d="M30.8,43.8c-0.3-0.3-0.3-0.7,0-1c2.9-2.8,7.7-2.8,10.7,0c0.3,0.3,0.3,0.7,0,1c-0.3,0.3-0.7,0.3-1,0
							c-2.4-2.3-6.3-2.3-8.6,0C31.5,44.1,31.1,44.1,30.8,43.8z"/>
					</g>
				</g>
				<g>
					<g>
						<path fill="#F7E98B" d="M51.2,43.2c0.3,0.3,0.3,0.7,0,1c-3,2.7-7.8,2.6-10.6-0.3c-0.3-0.3-0.3-0.7,0-1c0.3-0.3,0.7-0.2,1,0
							c2.3,2.3,6.2,2.5,8.6,0.2C50.5,43,51,43,51.2,43.2z"/>
					</g>
				</g>
			</g>
			<g>
				<g>
					<g>
						<path fill="#F7E98B" d="M30.8,46.7c-0.3-0.3-0.3-0.7,0-1c2.9-2.8,7.7-2.8,10.7,0c0.3,0.3,0.3,0.7,0,1c-0.3,0.3-0.7,0.3-1,0
							c-2.4-2.3-6.3-2.3-8.6,0C31.5,46.9,31.1,46.9,30.8,46.7z"/>
					</g>
				</g>
				<g>
					<g>
						<path fill="#F7E98B" d="M51.2,46.1c0.3,0.3,0.3,0.7,0,1c-3,2.7-7.8,2.6-10.6-0.3c-0.3-0.3-0.3-0.7,0-1c0.3-0.3,0.7-0.2,1,0
							c2.3,2.3,6.2,2.5,8.6,0.2C50.5,45.8,51,45.8,51.2,46.1z"/>
					</g>
				</g>
			</g>
		</g>
		<g>
			<g>
				<g>
					<polygon fill="#D63834" points="49.2,42.9 46.6,42.5 50.2,23.5 54.4,24.3 					"/>
				</g>
				<g>
					<polygon fill="#8E0404" points="49.2,42.9 47.7,42.6 52.6,25.5 54.4,24.3 					"/>
				</g>
			</g>
			<g>
				<polygon fill="#ED7777" points="50.4,23.6 52.6,25.5 51.6,29.2 				"/>
			</g>
		</g>
		<g>
			<g>
				<g>
					<polygon fill="#D63834" points="54,44.6 51.6,43.7 59.6,25.8 63.5,27.4 					"/>
				</g>
				<g>
					<polygon fill="#8E0404" points="54,44.6 52.6,44.1 61.5,28.3 63.5,27.4 					"/>
				</g>
			</g>
			<g>
				<polygon fill="#ED7777" points="59.7,26 61.5,28.3 59.5,31.7 				"/>
			</g>
		</g>
		<g>
			<g>
				<path fill="#82C60A" d="M6,29.4L6,29.4L6,29.4L6,29.4c-0.4,5.5-5.3,8.3-2.9,13.9c1.4,3.3,5.2,4.1,9.5,4.9l0-0.1l0.1-0.1h0
					c3-3,5.4-5.9,4.4-9.3C15.4,32.8,9.7,33.6,6,29.4z"/>
			</g>
			<g>
				<path fill="#5EA304" d="M12.6,48.2L12.6,48.2l0.1-0.2h0c3-3,5.4-5.9,4.4-9.3c-1.7-5.8-7.4-5.2-11.1-9.3l0,0l-0.1,0l0,0"/>
			</g>
			<g>
				<g>
					<polygon fill="#74B208" points="8.9,37.7 5.1,36.9 9.3,38.9 11.4,34.8 					"/>
				</g>
				<g>
					<polygon fill="#74B208" points="11.1,44 7.3,43.2 11.5,45.1 13.6,41.1 					"/>
				</g>
				<g>
					<polygon fill="#74B208" points="10,40.8 5.7,39.8 10.5,42.1 12.8,37.5 					"/>
				</g>
			</g>
		</g>
		<g>
			<g>
				<path fill="#F7E98B" d="M35.2,55.5c0,2.2-1.8,3.9-4.1,3.9c-2.3,0-4.1-1.8-4.1-3.9c0-2.2,1.8-3.9,4.1-3.9
					C33.4,51.6,35.2,53.3,35.2,55.5z"/>
			</g>
			<g>
				<path fill="#FFD217" d="M31.1,51.6c2.3,0,4.1,1.8,4.1,3.9c0,2.2-1.8,3.9-4.1,3.9"/>
			</g>
		</g>
		<g>
			<g>
				<path fill="#424242" d="M31.1,57.9c-1.4,0-2.5-1.1-2.5-2.4s1.1-2.4,2.5-2.4c1.4,0,2.5,1.1,2.5,2.4S32.5,57.9,31.1,57.9z"/>
			</g>
			<g>
				<path d="M33.6,55.5c0,1.3-1.1,2.4-2.5,2.4c-1.4,0-2.5-1.1-2.5-2.4"/>
			</g>
		</g>
	</g>
</g>
</svg>
