<?xml version="1.0" encoding="utf-8"?>
<!-- Generator: Adobe Illustrator 16.0.0, SVG Export Plug-In . SVG Version: 6.00 Build 0)  -->
<!DOCTYPE svg PUBLIC "-//W3C//DTD SVG 1.1//EN" "http://www.w3.org/Graphics/SVG/1.1/DTD/svg11.dtd">
<svg version="1.1" id="Layer_1" xmlns="http://www.w3.org/2000/svg" xmlns:xlink="http://www.w3.org/1999/xlink" x="0px" y="0px"
	 width="64px" height="64px" viewBox="0 0 64 64" enable-background="new 0 0 64 64" xml:space="preserve">
<g>
	<g>
		
			<ellipse transform="matrix(0.9618 -0.2738 0.2738 0.9618 -13.8848 5.0808)" fill="#EA7103" cx="11.3" cy="52.3" rx="8.8" ry="8.5"/>
	</g>
	<g>
		<g>
			<path fill="#F7910B" d="M62.3,37.5C62.3,50.5,50.4,61,32,61C13.6,61,1.7,50.5,1.7,37.5S13.6,5,32,5C50.4,5,62.3,24.5,62.3,37.5z"
				/>
		</g>
		<g>
			<path fill="#F7910B" d="M62.3,37.5C62.3,50.5,50.4,57,32,57C13.6,57,1.7,50.5,1.7,37.5S13.6,3,32,3C50.4,3,62.3,24.5,62.3,37.5z"
				/>
		</g>
		<g>
			<path fill="#F9A908" d="M32,3c18.4,0,30.3,21.5,30.3,34.5S50.4,57,32,57"/>
		</g>
		<g>
			<path fill="#F9A908" d="M62.3,37.5C62.3,50.5,50.4,57,32,57C13.6,57,1.7,50.5,1.7,37.5S13.6,5,32,5C50.4,5,62.3,24.5,62.3,37.5z"
				/>
		</g>
		<g>
			<path fill="#F9C55D" d="M1.7,37.5C1.7,24.5,13.6,5,32,5"/>
		</g>
		<g>
			<path fill="#F7910B" d="M32,5c18.4,0,30.3,19.5,30.3,32.5S50.4,61,32,61"/>
		</g>
		<g>
			<path fill="#EA7103" d="M32,5c18.4,0,30.3,19.5,30.3,32.5"/>
		</g>
		<g>
			<g>
				<path fill="#19BCA4" d="M29.8,11.7c-1.8,0.1-3.2,0.8-3.2,1.7l6.5-0.3C33.1,12.3,31.6,11.6,29.8,11.7z"/>
			</g>
			<g>
				<path fill="#19BCA4" d="M49.1,20.7c-1.8-0.1-3.3,0.6-3.3,1.4l6.5,0.3C52.3,21.5,50.9,20.8,49.1,20.7z"/>
			</g>
			<g>
				<path fill="#109DA0" d="M29.8,13.7c1.8-0.1,3.3,0.3,3.3-0.6l-6.5,0.3C26.6,14.3,28,13.8,29.8,13.7z"/>
			</g>
			<g>
				<path fill="#109DA0" d="M49,22.7c1.8,0.1,3.3,0.6,3.3-0.3l-6.5-0.3C45.7,23,47.2,22.6,49,22.7z"/>
			</g>
			<g>
				<path fill="#F9C55D" d="M27.4,38.3c-4.3,0-7.8,1-7.8,2.2c0,1.2,3.5,0.7,7.8,0.7c4.3,0,7.8,0.6,7.8-0.7
					C35.2,39.3,31.8,38.3,27.4,38.3z"/>
			</g>
			<g>
				<path fill="#F9A908" d="M51.4,38.3c-4.3,0-7.8,1-7.8,2.2c0,1.2,3.5,0.7,7.8,0.7c4.3,0,7.8,0.6,7.8-0.7
					C59.2,39.3,55.7,38.3,51.4,38.3z"/>
			</g>
		</g>
		<g>
			<g>
				<g>
					<g>
						<g>
							<g>
								<path fill="#1E4784" d="M26.6,33.6c0.4,0.1,0.8,0.3,1.1,0.6c1.2,1.6,3.5,1.9,5.1,0.6c0.7-0.6,1.8-0.4,2.3,0.3
									c0.6,0.7,0.4,1.8-0.3,2.3c-3,2.3-7.4,1.8-9.7-1.2c-0.6-0.7-0.4-1.8,0.3-2.3C25.7,33.7,26.2,33.6,26.6,33.6z"/>
							</g>
						</g>
						<g>
							<g>
								<path fill="#02243E" d="M25.1,36.3c-0.6-0.7-0.4-1.8,0.3-2.3c0.4-0.3,0.8-0.4,1.2-0.3c0.4,0.1,0.8,0.3,1.1,0.6
									c1.2,1.6,3.5,1.9,5.1,0.6c0.7-0.6,1.8-0.4,2.3,0.3c0.6,0.7,0.4,1.8-0.3,2.3"/>
							</g>
						</g>
					</g>
				</g>
			</g>
			<g>
				<g>
					<g>
						<g>
							<g>
								<path fill="#1E4784" d="M52.2,33.6c-0.4,0.1-0.8,0.3-1.1,0.6c-1.2,1.6-3.5,1.9-5.1,0.6c-0.7-0.6-1.8-0.4-2.3,0.3
									c-0.6,0.7-0.4,1.8,0.3,2.3c3,2.3,7.4,1.8,9.7-1.2c0.6-0.7,0.4-1.8-0.3-2.3C53.1,33.7,52.7,33.6,52.2,33.6z"/>
							</g>
						</g>
						<g>
							<g>
								<path fill="#02243E" d="M53.8,36.3c0.6-0.7,0.4-1.8-0.3-2.3c-0.4-0.3-0.8-0.4-1.2-0.3c-0.4,0.1-0.8,0.3-1.1,0.6
									c-1.2,1.6-3.5,1.9-5.1,0.6c-0.7-0.6-1.8-0.4-2.3,0.3c-0.6,0.7-0.4,1.8,0.3,2.3"/>
							</g>
						</g>
					</g>
				</g>
			</g>
		</g>
		<g>
			<g>
				<path fill="#ED7E11" d="M31.2,47.6c0-2.6,3.3-4.7,7.4-4.7c4.1,0,7.4,2.1,7.4,4.7"/>
			</g>
			<g>
				<path fill="#02243E" d="M45.6,50.4c-0.3,0-0.6-0.1-0.8-0.3c-1-1-3.5-1.6-6.3-1.6s-5.4,0.6-6.3,1.6c-0.4,0.4-1.1,0.4-1.6,0
					c-0.4-0.4-0.4-1.1,0-1.6c1.4-1.4,4.4-2.2,7.9-2.2s6.5,0.8,7.9,2.2c0.4,0.4,0.4,1.1,0,1.6C46.1,50.3,45.8,50.4,45.6,50.4z"/>
			</g>
		</g>
		<g>
			<circle fill="#F7910B" cx="10.3" cy="34.5" r="0.6"/>
		</g>
		<g>
			<circle fill="#F7910B" cx="5.8" cy="36.5" r="1.1"/>
		</g>
		<g>
			<circle fill="#F7910B" cx="8.8" cy="32.5" r="0.2"/>
		</g>
		<g>
			<circle fill="#F7910B" cx="13.4" cy="34.3" r="0.2"/>
		</g>
		<g>
			<circle fill="#F9A908" cx="58.6" cy="37.4" r="0.8"/>
		</g>
		<g>
			<circle fill="#F9A908" cx="55.1" cy="36.2" r="0.2"/>
		</g>
		<g>
			<circle fill="#F9A908" cx="59.2" cy="43.2" r="0.3"/>
		</g>
		<g>
			<circle fill="#F9A908" cx="55.4" cy="47" r="1.3"/>
		</g>
		<g>
			<circle fill="#F9A908" cx="56.5" cy="39.1" r="0.6"/>
		</g>
		<g>
			<circle fill="#F7910B" cx="9.3" cy="38.5" r="0.5"/>
		</g>
		<g>
			<circle fill="#F7910B" cx="10.1" cy="30.1" r="0.4"/>
		</g>
		<g>
			<circle fill="#F9A908" cx="4.8" cy="16.3" r="1.1"/>
		</g>
		<g>
			<circle fill="#F9A908" cx="8" cy="12.8" r="0.6"/>
		</g>
		<g>
			<circle fill="#F9A908" cx="59.2" cy="18.7" r="0.2"/>
		</g>
		<g>
			<circle fill="#F9A908" cx="58.4" cy="15.8" r="0.8"/>
		</g>
		<g>
			<circle fill="#F9A908" cx="61" cy="16.3" r="0.5"/>
		</g>
		<g>
			<circle fill="#F9A908" cx="6" cy="19.3" r="0.6"/>
		</g>
	</g>
	<g>
		<g>
			<g>
				<path fill="#CCF2E3" d="M18.8,38c-0.4,8-2.2,5.9-4.5,5.8c-2.3-0.1-4.3,1.8-3.9-6.2c0.4-8,2.4-11.1,4.7-11
					C17.5,26.7,19.2,30,18.8,38z"/>
			</g>
			<g>
				<path fill="#AAD6C3" d="M15.2,26.6c2.3,0.1,4,3.4,3.6,11.4c-0.4,8-2.2,5.9-4.5,5.8"/>
			</g>
			<g>
				<path fill="#CCF2E3" d="M10.2,42.5c-0.4,8-2.2,5.9-4.5,5.8c-2.3-0.1-4.4,3-4-5.1c0.4-8,2.6-12.2,4.9-12.1
					C8.9,31.2,10.6,34.5,10.2,42.5z"/>
			</g>
			<g>
				<path fill="#AAD6C3" d="M6.6,31.1c2.3,0.1,4,3.4,3.6,11.4c-0.4,8-2.2,5.9-4.5,5.8"/>
			</g>
			<g>
				<path fill="#CCF2E3" d="M26.9,41.7c-0.4,8-2.2,5.9-4.5,5.8c-2.3-0.1-4.3,1.8-3.9-6.2c0.4-8,2.4-11.1,4.7-11
					C25.6,30.4,27.3,33.7,26.9,41.7z"/>
			</g>
			<g>
				<path fill="#AAD6C3" d="M23.3,30.3c2.3,0.1,4,3.4,3.6,11.4c-0.4,8-2.2,5.9-4.5,5.8"/>
			</g>
			<g>
				<path fill="#CCF2E3" d="M26.7,47.1c-0.4,7.4-4.6,13.5-12.1,13.1C7.1,59.8,1.3,53.4,1.7,46c0.4-7.4,6.6-9.8,14.1-9.5
					C23.3,36.9,27,39.6,26.7,47.1z"/>
			</g>
			<g>
				<path fill="#AAD6C3" d="M26.7,47.1c-0.4,7.4-4.6,13.5-12.1,13.1c-7.5-0.4-9.5-7.1-9.1-14.5s-1.9-9,9.9-9.1
					C22.9,36.5,27,39.4,26.7,47.1z"/>
			</g>
			<g>
				<path fill="#CCF2E3" d="M31.5,46.1c1.6,2.2-1.5,7.2-6.9,11c-5.4,3.9-10.9,3.4-12.5,1.2c-1.6-2.2,1.4-5.3,6.8-9.2
					C24.2,45.3,29.9,43.9,31.5,46.1z"/>
			</g>
			<g>
				<path fill="#AAD6C3" d="M31.5,46.1c1.6,2.2-1.5,7.2-6.9,11c-5.4,3.9-10.9,3.4-12.5,1.2"/>
			</g>
		</g>
		<g>
			<path fill="#CCF2E3" d="M22.5,41.5c0.1,0.3-0.1,0.5-0.4,0.6L8.8,45c-0.3,0.1-0.5-0.1-0.6-0.4l0,0c-0.1-0.3,0.1-0.5,0.4-0.6
				l13.3-3C22.2,41,22.5,41.2,22.5,41.5L22.5,41.5z"/>
		</g>
		<g>
			<path fill="#CCF2E3" d="M22.1,44.4c0.1,0.3-0.1,0.5-0.4,0.6l-13.3,3C8.2,48,8,47.8,7.9,47.5l0,0C7.8,47.3,8,47,8.3,47l13.3-3
				C21.8,43.9,22.1,44.1,22.1,44.4L22.1,44.4z"/>
		</g>
		<g>
			
				<ellipse transform="matrix(-0.885 -0.4657 0.4657 -0.885 11.4146 61.4567)" fill="#E7F7EF" cx="13.3" cy="29.3" rx="0.6" ry="2.1"/>
		</g>
		<g>
			<path fill="#E7F7EF" d="M4,34c-0.5,1-0.7,1.9-0.4,2.1c0.3,0.2,1-0.5,1.5-1.5c0.5-1,0.7-1.9,0.4-2.1C5.2,32.3,4.6,33,4,34z"/>
		</g>
		<g>
			
				<ellipse transform="matrix(-0.8846 -0.4663 0.4663 -0.8846 25.2504 72.6736)" fill="#E7F7EF" cx="21.6" cy="33.2" rx="0.6" ry="2.1"/>
		</g>
		<g>
			<path fill="#E7F7EF" d="M4.5,44.2c-0.1,2.4-0.6,4.4-1.1,4.4c-0.5,0-0.9-2-0.8-4.4c0.1-2.4,0.5-3,1.1-3
				C4.2,41.2,4.6,41.8,4.5,44.2z"/>
		</g>
		<g>
			<path fill="#E7F7EF" d="M24.2,47c1.8-0.9,3.5-1.3,3.8-0.8c0.3,0.5-1,1.7-2.9,2.6c-1.8,0.9-2.5,0.8-2.7,0.3
				C22.2,48.5,22.4,47.9,24.2,47z"/>
		</g>
	</g>
</g>
</svg>
