<?xml version="1.0" encoding="utf-8"?>
<!-- Generator: Adobe Illustrator 16.0.0, SVG Export Plug-In . SVG Version: 6.00 Build 0)  -->
<!DOCTYPE svg PUBLIC "-//W3C//DTD SVG 1.1//EN" "http://www.w3.org/Graphics/SVG/1.1/DTD/svg11.dtd">
<svg version="1.1" id="Layer_1" xmlns="http://www.w3.org/2000/svg" xmlns:xlink="http://www.w3.org/1999/xlink" x="0px" y="0px"
	 width="64px" height="64px" viewBox="0 0 64 64" enable-background="new 0 0 64 64" xml:space="preserve">
<g>
	<g>
		<path fill="#F7910B" d="M62.3,37.5C62.3,50.5,50.4,61,32,61C13.6,61,1.7,50.5,1.7,37.5S13.6,5,32,5C50.4,5,62.3,24.5,62.3,37.5z"
			/>
	</g>
	<g>
		<path fill="#F7910B" d="M62.3,37.5C62.3,50.5,50.4,57,32,57C13.6,57,1.7,50.5,1.7,37.5S13.6,3,32,3C50.4,3,62.3,24.5,62.3,37.5z"
			/>
	</g>
	<g>
		<path fill="#F9A908" d="M32,3c18.4,0,30.3,21.5,30.3,34.5S50.4,57,32,57"/>
	</g>
	<g>
		<path fill="#F9A908" d="M62.3,37.5C62.3,50.5,50.4,57,32,57C13.6,57,1.7,50.5,1.7,37.5S13.6,5,32,5C50.4,5,62.3,24.5,62.3,37.5z"
			/>
	</g>
	<g>
		<path fill="#F9C55D" d="M1.7,37.5C1.7,24.5,13.6,5,32,5"/>
	</g>
	<g>
		<path fill="#F7910B" d="M32,5c18.4,0,30.3,19.5,30.3,32.5S50.4,61,32,61"/>
	</g>
	<g>
		<path fill="#EA7103" d="M32,5c18.4,0,30.3,19.5,30.3,32.5"/>
	</g>
	<g>
		<g>
			<circle fill="#EA7103" cx="21.6" cy="25.7" r="3.2"/>
		</g>
		<g>
			<circle fill="#EA7103" cx="42.4" cy="25.7" r="3.2"/>
		</g>
		<g>
			<circle fill="#1E4784" cx="21.6" cy="24.8" r="3.2"/>
		</g>
		<g>
			<path fill="#00233F" d="M21.6,21.6c1.8,0,3.2,1.4,3.2,3.2s-1.4,3.2-3.2,3.2"/>
		</g>
		<g>
			<circle fill="#1E4784" cx="42.4" cy="24.8" r="3.2"/>
		</g>
		<g>
			<path fill="#00233F" d="M42.4,21.6c1.8,0,3.2,1.4,3.2,3.2s-1.4,3.2-3.2,3.2"/>
		</g>
	</g>
	<g>
		<g>
			<g>
				<g>
					<g>
						<g>
							<path fill="#19BCA4" d="M21.5,17c-0.2-0.5,0.8-0.6,2-1.1c1.1-0.5,2-1.2,2.2-0.7c0.2,0.5-0.6,1.2-1.7,1.7
								C22.8,17.4,21.7,17.4,21.5,17z"/>
						</g>
					</g>
				</g>
			</g>
			<g>
				<g>
					<g>
						<g>
							<path fill="#109DA0" d="M21.5,17c-0.2-0.5,0.8-0.6,2-1.1c1.1-0.5,2-1.2,2.2-0.7"/>
						</g>
					</g>
				</g>
			</g>
		</g>
		<g>
			<g>
				<g>
					<g>
						<g>
							<path fill="#19BCA4" d="M42.5,17.3c0.2-0.5-0.8-0.6-2-1.1c-1.1-0.5-2-1.2-2.2-0.7c-0.2,0.5,0.6,1.2,1.7,1.7
								C41.2,17.7,42.3,17.7,42.5,17.3z"/>
						</g>
					</g>
				</g>
			</g>
			<g>
				<g>
					<g>
						<g>
							<path fill="#109DA0" d="M42.5,17.3c0.2-0.5-0.8-0.6-2-1.1c-1.1-0.5-2-1.2-2.2-0.7"/>
						</g>
					</g>
				</g>
			</g>
		</g>
	</g>
	<g>
		<g>
			<path fill="#F9C55D" d="M27.8,30.8c0,1.2-3.5,0.7-7.8,0.7c-4.3,0-7.8,0.6-7.8-0.7c0-1.2,3.5-2.2,7.8-2.2
				C24.3,28.6,27.8,29.6,27.8,30.8z"/>
		</g>
		<g>
			<path fill="#F9A908" d="M51.8,30.8c0,1.2-3.5,0.7-7.8,0.7s-7.8,0.6-7.8-0.7c0-1.2,3.5-2.2,7.8-2.2S51.8,29.6,51.8,30.8z"/>
		</g>
	</g>
	<g>
		<circle fill="#F7910B" cx="10.3" cy="34.5" r="0.6"/>
	</g>
	<g>
		<circle fill="#F7910B" cx="5.8" cy="36.5" r="1.1"/>
	</g>
	<g>
		<circle fill="#F7910B" cx="8.8" cy="32.5" r="0.2"/>
	</g>
	<g>
		<circle fill="#F7910B" cx="13.4" cy="34.3" r="0.2"/>
	</g>
	<g>
		<circle fill="#F9A908" cx="52.6" cy="34.8" r="0.8"/>
	</g>
	<g>
		<circle fill="#F9A908" cx="55.1" cy="36.2" r="0.2"/>
	</g>
	<g>
		<circle fill="#F9A908" cx="49.8" cy="27.4" r="0.3"/>
	</g>
	<g>
		<circle fill="#F9A908" cx="49.3" cy="39" r="1.3"/>
	</g>
	<g>
		<circle fill="#F9A908" cx="56.5" cy="39.1" r="0.6"/>
	</g>
	<g>
		<circle fill="#F7910B" cx="9.3" cy="38.5" r="0.5"/>
	</g>
	<g>
		<circle fill="#F7910B" cx="10.1" cy="30.1" r="0.4"/>
	</g>
	<g>
		<circle fill="#F9A908" cx="4.8" cy="16.3" r="1.1"/>
	</g>
	<g>
		<circle fill="#F9A908" cx="8" cy="12.8" r="0.6"/>
	</g>
	<g>
		<circle fill="#F9A908" cx="59.2" cy="18.7" r="0.2"/>
	</g>
	<g>
		<circle fill="#F9A908" cx="58.4" cy="15.8" r="0.8"/>
	</g>
	<g>
		<circle fill="#F9A908" cx="61" cy="16.3" r="0.5"/>
	</g>
	<g>
		<circle fill="#F9A908" cx="6" cy="19.3" r="0.6"/>
	</g>
	<g>
		<g>
			<path fill="#F7910B" d="M39.4,45.7c0,2.6-3.3,4.7-7.4,4.7c-4.1,0-7.4-2.1-7.4-4.7"/>
		</g>
	</g>
	<g>
		<g>
			<path fill="#ED7E11" d="M24.8,35.3c0-1.5,3.2-2.7,7.2-2.7s7.2,1.2,7.2,2.7"/>
		</g>
		<g>
			<g>
				<g>
					<path fill="#02243E" d="M44.4,40c-0.3,0-0.6-0.1-0.8-0.3c-1.9-1.9-4.8-3.9-7.5-3.9c0,0,0,0,0,0c-1.3,0-2.4,0.5-3.3,1.4
						c-0.4,0.4-1.1,0.4-1.6,0c-0.4-0.4-0.4-1.1,0-1.6c1.4-1.4,3-2.1,4.9-2.1c0,0,0,0,0,0c4.3,0,8,3.5,9.1,4.6c0.4,0.4,0.4,1.1,0,1.6
						C45,39.9,44.7,40,44.4,40z"/>
				</g>
				<g>
					<path fill="#02243E" d="M19.6,40c-0.3,0-0.6-0.1-0.8-0.3c-0.4-0.4-0.4-1.1,0-1.6c1.1-1.1,4.8-4.6,9.1-4.6c0,0,0,0,0,0
						c1.9,0,3.5,0.7,4.9,2.1c0.4,0.4,0.4,1.1,0,1.6c-0.4,0.4-1.1,0.4-1.6,0c-0.9-1-2-1.4-3.3-1.4c0,0,0,0,0,0c-2.7,0-5.7,2-7.5,3.9
						C20.2,39.9,19.9,40,19.6,40z"/>
				</g>
			</g>
			<g>
				<g>
					<path fill="#02243E" d="M44.1,42.3c-0.6,0-1.1-0.5-1.1-1.1c0-2.1,1.7-3.8,3.7-3.8c0.6,0,1.1,0.5,1.1,1.1s-0.5,1.1-1.1,1.1
						c-0.8,0-1.5,0.7-1.5,1.6C45.2,41.8,44.7,42.3,44.1,42.3z"/>
				</g>
				<g>
					<path fill="#02243E" d="M19.9,42.3c-0.6,0-1.1-0.5-1.1-1.1c0-0.9-0.7-1.6-1.5-1.6c-0.6,0-1.1-0.5-1.1-1.1s0.5-1.1,1.1-1.1
						c2,0,3.7,1.7,3.7,3.8C21,41.8,20.5,42.3,19.9,42.3z"/>
				</g>
			</g>
		</g>
		<g>
			<path fill="#F9A908" d="M34.6,36.9c0.2-0.7,2.1-0.6,4.1,0.2c2,0.8,3.4,1.9,3.2,2.6c-0.2,0.7-1.9,0-3.9-0.7
				C36,38.2,34.3,37.6,34.6,36.9z"/>
		</g>
		<g>
			<path fill="#F9C55D" d="M29.2,36.9c-0.2-0.7-2.1-0.6-4.1,0.2c-2,0.8-3.4,1.9-3.2,2.6c0.2,0.7,1.9,0,3.9-0.7
				C27.8,38.2,29.4,37.6,29.2,36.9z"/>
		</g>
	</g>
</g>
</svg>
