<?xml version="1.0" encoding="utf-8"?>
<!-- Generator: Adobe Illustrator 16.0.0, SVG Export Plug-In . SVG Version: 6.00 Build 0)  -->
<!DOCTYPE svg PUBLIC "-//W3C//DTD SVG 1.1//EN" "http://www.w3.org/Graphics/SVG/1.1/DTD/svg11.dtd">
<svg version="1.1" id="Layer_1" xmlns="http://www.w3.org/2000/svg" xmlns:xlink="http://www.w3.org/1999/xlink" x="0px" y="0px"
	 width="64px" height="64px" viewBox="0 0 64 64" enable-background="new 0 0 64 64" xml:space="preserve">
<g>
	<g>
		<ellipse transform="matrix(0.9618 -0.2737 0.2737 0.9618 -13.6372 5.5394)" fill="#EA7103" cx="13" cy="51.6" rx="8.8" ry="8.5"/>
	</g>
	<g>
		<g>
			<g>
				<g>
					<path fill="#F7910B" d="M62.3,37.5C62.3,50.5,50.4,61,32,61C13.6,61,1.7,50.5,1.7,37.5S13.6,5,32,5C50.4,5,62.3,24.5,62.3,37.5
						z"/>
				</g>
				<g>
					<path fill="#F7910B" d="M62.3,37.5C62.3,50.5,50.4,57,32,57C13.6,57,1.7,50.5,1.7,37.5S13.6,3,32,3C50.4,3,62.3,24.5,62.3,37.5
						z"/>
				</g>
				<g>
					<path fill="#F9A908" d="M32,3c18.4,0,30.3,21.5,30.3,34.5S50.4,57,32,57"/>
				</g>
				<g>
					<path fill="#F9A908" d="M62.3,37.5C62.3,50.5,50.4,57,32,57C13.6,57,1.7,50.5,1.7,37.5S13.6,5,32,5C50.4,5,62.3,24.5,62.3,37.5
						z"/>
				</g>
				<g>
					<path fill="#F9C55D" d="M1.7,37.5C1.7,24.5,13.6,5,32,5"/>
				</g>
				<g>
					<path fill="#F7910B" d="M32,5c18.4,0,30.3,19.5,30.3,32.5S50.4,61,32,61"/>
				</g>
				<g>
					<path fill="#EA7103" d="M32,5c18.4,0,30.3,19.5,30.3,32.5"/>
				</g>
				<g>
					<g>
						<path fill="#F9C55D" d="M27.8,35.3c0,1.2-3.5,0.7-7.8,0.7c-4.3,0-7.8,0.6-7.8-0.7c0-1.2,3.5-2.2,7.8-2.2
							C24.3,33.1,27.8,34.1,27.8,35.3z"/>
					</g>
					<g>
						<path fill="#F9A908" d="M51.8,35.3c0,1.2-3.5,0.7-7.8,0.7s-7.8,0.6-7.8-0.7c0-1.2,3.5-2.2,7.8-2.2S51.8,34.1,51.8,35.3z"/>
					</g>
				</g>
				<g>
					<circle fill="#F7910B" cx="10.3" cy="34.5" r="0.6"/>
				</g>
				<g>
					<circle fill="#F7910B" cx="5.8" cy="36.5" r="1.1"/>
				</g>
				<g>
					<circle fill="#F7910B" cx="8.8" cy="32.5" r="0.2"/>
				</g>
				<g>
					<circle fill="#F7910B" cx="13.4" cy="34.3" r="0.2"/>
				</g>
				<g>
					<circle fill="#F9A908" cx="52.6" cy="34.8" r="0.8"/>
				</g>
				<g>
					<circle fill="#F9A908" cx="55.1" cy="36.2" r="0.2"/>
				</g>
				<g>
					<circle fill="#F9A908" cx="49.8" cy="27.4" r="0.3"/>
				</g>
				<g>
					<circle fill="#F9A908" cx="49.3" cy="39" r="1.3"/>
				</g>
				<g>
					<circle fill="#F9A908" cx="56.5" cy="39.1" r="0.6"/>
				</g>
				<g>
					<circle fill="#F7910B" cx="9.3" cy="38.5" r="0.5"/>
				</g>
				<g>
					<circle fill="#F7910B" cx="10.1" cy="30.1" r="0.4"/>
				</g>
				<g>
					<circle fill="#F9A908" cx="4.8" cy="16.3" r="1.1"/>
				</g>
				<g>
					<circle fill="#F9A908" cx="8" cy="12.8" r="0.6"/>
				</g>
				<g>
					<circle fill="#F9A908" cx="59.2" cy="18.7" r="0.2"/>
				</g>
				<g>
					<circle fill="#F9A908" cx="58.4" cy="15.8" r="0.8"/>
				</g>
				<g>
					<circle fill="#F9A908" cx="61" cy="16.3" r="0.5"/>
				</g>
				<g>
					<circle fill="#F9A908" cx="6" cy="19.3" r="0.6"/>
				</g>
			</g>
		</g>
	</g>
	<g>
		<g>
			<g>
				<g>
					<g>
						<g>
							<path fill="#1E4784" d="M47.3,34.1c-0.4,0-0.8-0.2-1.2-0.5c-1.4-1.4-3.7-1.4-5.1,0c-0.6,0.6-1.7,0.7-2.3,0
								c-0.6-0.6-0.7-1.7,0-2.3c2.7-2.7,7.1-2.7,9.8,0c0.6,0.6,0.6,1.7,0,2.3C48.1,33.9,47.7,34.1,47.3,34.1z"/>
						</g>
					</g>
					<g>
						<g>
							<path fill="#02243E" d="M48.4,31.2c0.6,0.6,0.6,1.7,0,2.3c-0.3,0.3-0.7,0.5-1.2,0.5c-0.4,0-0.8-0.2-1.2-0.5
								c-1.4-1.4-3.7-1.4-5.1,0c-0.6,0.6-1.7,0.7-2.3,0c-0.6-0.6-0.7-1.7,0-2.3"/>
						</g>
					</g>
				</g>
			</g>
		</g>
		<g>
			<g>
				<g>
					<g>
						<g>
							<path fill="#1E4784" d="M16.7,34.1c0.4,0,0.8-0.2,1.2-0.5c1.4-1.4,3.7-1.4,5.1,0c0.6,0.6,1.7,0.7,2.3,0
								c0.6-0.6,0.7-1.7,0-2.3c-2.7-2.7-7.1-2.7-9.8,0c-0.6,0.6-0.6,1.7,0,2.3C15.9,33.9,16.3,34.1,16.7,34.1z"/>
						</g>
					</g>
					<g>
						<g>
							<path fill="#02243E" d="M15.6,31.2c-0.6,0.6-0.6,1.7,0,2.3c0.3,0.3,0.7,0.5,1.2,0.5c0.4,0,0.8-0.2,1.2-0.5
								c1.4-1.4,3.7-1.4,5.1,0c0.6,0.6,1.7,0.7,2.3,0c0.6-0.6,0.7-1.7,0-2.3"/>
						</g>
					</g>
				</g>
			</g>
		</g>
	</g>
	<g>
		<path fill="#99144A" d="M40.2,41.1c0,2.8-3.7,5.1-8.2,5.1c-4.6,0-8.3-2.3-8.3-5.1c0-2.8,3.7-0.7,8.3-0.7
			C36.6,40.3,40.2,38.2,40.2,41.1z"/>
	</g>
	<g>
		<path fill="#F7910B" d="M40.2,42.2c0,2.8-3.7,6.8-8.2,6.8c-4.6,0-8.3-4-8.3-6.8"/>
	</g>
	<g>
		<path fill="#72053B" d="M40.2,41.1c0,2.8-3.7,5.1-8.2,5.1c-4.6,0-8.3-2.3-8.3-5.1"/>
	</g>
	<g>
		<g>
			<g>
				<path fill="#037A66" d="M17.6,17.9c0.4,0.7,1.9-0.7,3.9-2s3.9-2,3.5-2.6c-0.4-0.7-3.4-1.7-5.4-0.4
					C17.6,14.1,17.2,17.2,17.6,17.9z"/>
			</g>
		</g>
		<g>
			<g>
				<path fill="#037A66" d="M46.4,17.9c-0.4,0.7-1.9-0.7-3.9-2c-2.1-1.3-3.9-2-3.5-2.6c0.4-0.7,3.4-1.7,5.4-0.4
					C46.4,14.1,46.8,17.2,46.4,17.9z"/>
			</g>
		</g>
	</g>
	<g>
		<g>
			<g>
				<path fill="#CCF2E3" d="M11.5,37c-1.9-0.3-4,3.4-4.7,8.2C6,50,8.1,53.4,10,53.7c1.9,0.3,2.9-2.7,3.6-7.5
					C14.3,41.4,13.3,37.3,11.5,37z"/>
			</g>
			<g>
				<path fill="#CCF2E3" d="M23.1,45.5c-4.1,4.1-4,2.1-5.1,0.9c-1.1-1.2-3.1-1.1,1-5.2c4.1-4.1,6.6-4.7,7.8-3.5
					C28,38.8,27.2,41.4,23.1,45.5z"/>
			</g>
			<g>
				<path fill="#AAD6C3" d="M26.8,37.6c1.1,1.2,0.4,3.8-3.7,7.9c-4.1,4.1-4,2.1-5.1,0.9"/>
			</g>
			<g>
				<path fill="#CCF2E3" d="M18.1,42c-4.1,4.1-4,2.1-5.1,0.9c-1.1-1.2-3.7-0.6,0.4-4.7c4.1-4.1,7.3-5.3,8.4-4.1
					C22.9,35.3,22.2,37.9,18.1,42z"/>
			</g>
			<g>
				<path fill="#AAD6C3" d="M21.8,34.1c1.1,1.2,0.4,3.8-3.7,7.9c-4.1,4.1-4,2.1-5.1,0.9"/>
			</g>
			<g>
				<path fill="#CCF2E3" d="M25.5,51.5c-4.1,4.1-4,2.1-5.1,0.9c-1.1-1.2-3.1-1.1,1-5.2c4.1-4.1,6.6-4.7,7.8-3.5
					C30.3,44.8,29.6,47.4,25.5,51.5z"/>
			</g>
			<g>
				<path fill="#AAD6C3" d="M29.2,43.6c1.1,1.2,0.4,3.8-3.7,7.9c-4.1,4.1-4,2.1-5.1,0.9"/>
			</g>
			<g>
				<path fill="#CCF2E3" d="M22.7,54.2c-3.8,3.8-8.9,4.9-12.5,1c-3.6-3.9-3.5-10.2,0.3-14c3.8-3.8,8.1-2,11.8,1.9
					C25.9,47.1,26.5,50.4,22.7,54.2z"/>
			</g>
			<g>
				<path fill="#AAD6C3" d="M22.7,54.2c-3.8,3.8-8.9,4.9-12.5,1c-3.6-3.9-1.4-8.5,2.4-12.3c3.8-3.8,3.4-5.8,9.4,0
					C26,46.7,26.7,50.3,22.7,54.2z"/>
			</g>
		</g>
		<g>
			<path fill="#E7F7EF" d="M24.4,37.7c-0.8,0.3-1.3,0.7-1.2,0.9c0.1,0.2,0.8,0.2,1.5-0.1c0.8-0.3,1.3-0.7,1.2-0.9
				C25.9,37.4,25.2,37.4,24.4,37.7z"/>
		</g>
		<g>
			<path fill="#E7F7EF" d="M19.1,34.4c-0.8,0.3-1.3,0.7-1.2,0.9c0.1,0.2,0.8,0.2,1.5-0.1c0.8-0.3,1.3-0.7,1.2-0.9
				C20.5,34.1,19.8,34.1,19.1,34.4z"/>
		</g>
		<g>
			<path fill="#E7F7EF" d="M26.8,43.9c-0.8,0.3-1.3,0.7-1.2,0.9c0.1,0.2,0.8,0.2,1.5-0.1c0.8-0.3,1.3-0.7,1.2-0.9
				C28.2,43.6,27.5,43.6,26.8,43.9z"/>
		</g>
		<g>
			<path fill="#E7F7EF" d="M12.8,41.7c-1.2,1.3-2.4,2.1-2.7,1.8c-0.3-0.3,0.5-1.5,1.7-2.8c1.2-1.3,1.7-1.3,2-1
				C14.1,39.9,14.1,40.4,12.8,41.7z"/>
		</g>
		<g>
			<path fill="#E7F7EF" d="M10.6,40.1c-1,1.5-2,2.5-2.3,2.3c-0.3-0.2,0.2-1.6,1.2-3.1c1-1.5,1.4-1.7,1.8-1.4
				C11.5,38.1,11.6,38.6,10.6,40.1z"/>
		</g>
	</g>
</g>
</svg>
