<?xml version="1.0" encoding="utf-8"?>
<!-- Generator: Adobe Illustrator 16.0.0, SVG Export Plug-In . SVG Version: 6.00 Build 0)  -->
<!DOCTYPE svg PUBLIC "-//W3C//DTD SVG 1.1//EN" "http://www.w3.org/Graphics/SVG/1.1/DTD/svg11.dtd">
<svg version="1.1" id="Layer_1" xmlns="http://www.w3.org/2000/svg" xmlns:xlink="http://www.w3.org/1999/xlink" x="0px" y="0px"
	 width="64px" height="64px" viewBox="0 0 64 64" enable-background="new 0 0 64 64" xml:space="preserve">
<g>
	<g>
		<g>
			<path fill="#F7910B" d="M63,37.5C63,50.5,51,61,32.6,61C14.2,61,2.3,50.5,2.3,37.5S14.2,5,32.6,5C51,5,63,24.5,63,37.5z"/>
		</g>
		<g>
			<path fill="#F7910B" d="M63,37.5C63,50.5,51,57,32.6,57C14.2,57,2.3,50.5,2.3,37.5S14.2,3,32.6,3C51,3,63,24.5,63,37.5z"/>
		</g>
		<g>
			<path fill="#F9A908" d="M32.6,3C51,3,63,24.5,63,37.5S51,57,32.6,57"/>
		</g>
		<g>
			<path fill="#F9A908" d="M63,37.5C63,50.5,51,57,32.6,57C14.2,57,2.3,50.5,2.3,37.5S14.2,5,32.6,5C51,5,63,24.5,63,37.5z"/>
		</g>
		<g>
			<path fill="#F9C55D" d="M2.3,37.5C2.3,24.5,14.2,5,32.6,5"/>
		</g>
		<g>
			<path fill="#F7910B" d="M32.6,5C51,5,63,24.5,63,37.5S51,61,32.6,61"/>
		</g>
		<g>
			<path fill="#EA7103" d="M32.6,5C51,5,63,24.5,63,37.5"/>
		</g>
		<g>
			<g>
				<path fill="#19BCA4" d="M29.5,14.8c-1.7,0.6-2.9,1.7-2.6,2.5l6.2-2.1C32.8,14.4,31.2,14.2,29.5,14.8z"/>
			</g>
			<g>
				<g>
					<path fill="#19BCA4" d="M16.9,14.9c-1.8-0.4-3.3-0.1-3.5,0.8l6.4,1.5C19.9,16.3,18.6,15.3,16.9,14.9z"/>
				</g>
				<g>
					<path fill="#109DA0" d="M16.4,16.8c1.8,0.4,3.1,1.2,3.3,0.3l-6.4-1.5C13.1,16.5,14.7,16.4,16.4,16.8z"/>
				</g>
			</g>
			<g>
				<path fill="#109DA0" d="M30.2,16.6c1.7-0.6,3.2-0.6,3-1.5l-6.2,2.1C27.2,18.1,28.4,17.2,30.2,16.6z"/>
			</g>
			<g>
				<path fill="#F9C55D" d="M11.9,27.3c-4.3,0-7.8,1-7.8,2.2c0,1.2,3.5,0.7,7.8,0.7c4.3,0,7.8,0.6,7.8-0.7
					C19.7,28.3,16.2,27.3,11.9,27.3z"/>
			</g>
			<g>
				<path fill="#F9A908" d="M33,27.3c-4.3,0-7.8,1-7.8,2.2c0,1.2,3.5,0.7,7.8,0.7s7.8,0.6,7.8-0.7C40.8,28.3,37.3,27.3,33,27.3z"/>
			</g>
		</g>
		<g>
			<g>
				<g>
					<g>
						<g>
							<g>
								<path fill="#1E4784" d="M11,25.1c0.4-0.2,0.8-0.3,1.3-0.1c1.9,0.6,3.9-0.5,4.5-2.4c0.3-0.9,1.2-1.4,2.1-1.1
									c0.9,0.3,1.4,1.2,1.1,2.1c-1.1,3.6-5,5.7-8.6,4.6c-0.9-0.3-1.4-1.2-1.1-2.1C10.3,25.7,10.6,25.3,11,25.1z"/>
							</g>
						</g>
						<g>
							<g>
								<path fill="#02243E" d="M11.3,28.1c-0.9-0.3-1.4-1.2-1.1-2.1c0.1-0.4,0.4-0.8,0.8-1c0.4-0.2,0.8-0.3,1.3-0.1
									c1.9,0.6,3.9-0.5,4.5-2.4c0.3-0.9,1.2-1.4,2.1-1.1c0.9,0.3,1.4,1.2,1.1,2.1"/>
							</g>
						</g>
					</g>
				</g>
			</g>
			<g>
				<g>
					<g>
						<g>
							<g>
								<path fill="#1E4784" d="M34.6,25.2c-0.4-0.2-0.8-0.3-1.3-0.2c-1.9,0.5-3.9-0.6-4.4-2.5c-0.2-0.9-1.1-1.4-2-1.2
									c-0.9,0.2-1.4,1.1-1.2,2c1,3.7,4.8,5.8,8.5,4.8c0.9-0.2,1.4-1.1,1.2-2C35.3,25.8,35,25.5,34.6,25.2z"/>
							</g>
						</g>
						<g>
							<g>
								<path fill="#02243E" d="M34.3,28.3c0.9-0.2,1.4-1.1,1.2-2c-0.1-0.4-0.4-0.8-0.8-1c-0.4-0.2-0.8-0.3-1.3-0.2
									c-1.9,0.5-3.9-0.6-4.4-2.5c-0.2-0.9-1.1-1.4-2-1.2c-0.9,0.2-1.4,1.1-1.2,2"/>
							</g>
						</g>
					</g>
				</g>
			</g>
		</g>
		<g>
			<circle fill="#F7910B" cx="11" cy="34.5" r="0.6"/>
		</g>
		<g>
			<circle fill="#F7910B" cx="6.5" cy="36.5" r="1.1"/>
		</g>
		<g>
			<circle fill="#F7910B" cx="9.5" cy="32.5" r="0.2"/>
		</g>
		<g>
			<circle fill="#F7910B" cx="14" cy="34.3" r="0.2"/>
		</g>
		<g>
			<circle fill="#F9A908" cx="59.2" cy="37.4" r="0.8"/>
		</g>
		<g>
			<circle fill="#F9A908" cx="55.7" cy="36.2" r="0.2"/>
		</g>
		<g>
			<circle fill="#F9A908" cx="59.8" cy="43.2" r="0.3"/>
		</g>
		<g>
			<circle fill="#F9A908" cx="56.1" cy="47" r="1.3"/>
		</g>
		<g>
			<circle fill="#F9A908" cx="57.1" cy="39.1" r="0.6"/>
		</g>
		<g>
			<circle fill="#F7910B" cx="10" cy="38.5" r="0.5"/>
		</g>
		<g>
			<circle fill="#F7910B" cx="22.8" cy="21.2" r="0.4"/>
		</g>
		<g>
			<circle fill="#F9A908" cx="5.5" cy="16.3" r="1.1"/>
		</g>
		<g>
			<circle fill="#F9A908" cx="8.6" cy="12.8" r="0.6"/>
		</g>
		<g>
			<circle fill="#F9A908" cx="59.8" cy="18.7" r="0.2"/>
		</g>
		<g>
			<circle fill="#F9A908" cx="59" cy="15.8" r="0.8"/>
		</g>
		<g>
			<circle fill="#F9A908" cx="61.6" cy="16.3" r="0.5"/>
		</g>
		<g>
			<circle fill="#F9A908" cx="6.6" cy="19.3" r="0.6"/>
		</g>
	</g>
	<g>
		<g>
			<path fill="#C42260" d="M34,44.6c0.8,7.1-3.9,13.4-9.1,14s-8.7-4.8-9.5-11.9c-0.8-7.1,0.1-13,5.2-13.6
				C25.8,32.6,33.2,37.6,34,44.6z"/>
		</g>
		<g>
			<path fill="#99144A" d="M15.5,46.8c-0.8-7.1,0.1-13,5.2-13.6c5.1-0.6,12.5,4.4,13.3,11.4"/>
		</g>
		<g>
			<path fill="#E2446E" d="M33.5,50.2c-1.1-0.3-2.2-0.5-3.4-0.5c-1.1,0-2.2,0.2-3.2,0.4c-1-0.3-2.1-0.4-3.2-0.4
				c-2.7,0-5.2,0.9-7.1,2.3c1.6,4.3,4.5,7.1,8.3,6.7C28.7,58.2,32.2,54.7,33.5,50.2z"/>
		</g>
	</g>
	<g>
		<g>
			<path fill="#11D389" d="M27.8,41.2c0,0-6.3-4.5-15-4C3.6,37.8-2.1,42.9,3,47.7c0,0-3.5,3.6-1,6.5c4.9,5.6,13.3-7.8,18.1-8.1
				c0,0-3,0.8-2.7,4.5c0.2,3.7,5.1,5.1,7.7-0.3C27.7,45,27.8,41.2,27.8,41.2z"/>
		</g>
		<g>
			<path fill="#12AD79" d="M25.1,50.4c2.6-5.4,2.7-9.1,2.7-9.1s-6.3-4.5-15-4"/>
		</g>
		<g>
			<path fill="#12AD79" d="M3,47.7c0,0-3.5,3.6-1,6.5c4.9,5.6,13.3-7.8,18.1-8.1"/>
		</g>
		<g>
			<path fill="#38E8A0" d="M7.4,42.2c0.1,0.8-0.5,1.5-1.3,1.6c-0.8,0.1-1.5-0.5-1.6-1.3c-0.1-0.8,0.5-1.5,1.3-1.6
				C6.7,40.8,7.4,41.4,7.4,42.2z"/>
		</g>
		<g>
			<circle fill="#38E8A0" cx="8.4" cy="40.3" r="0.3"/>
		</g>
		<g>
			<circle fill="#38E8A0" cx="13.3" cy="44.6" r="0.9"/>
		</g>
		<g>
			<circle fill="#38E8A0" cx="12.1" cy="39.8" r="0.6"/>
		</g>
		<g>
			<circle fill="#38E8A0" cx="4.8" cy="50.5" r="0.9"/>
		</g>
		<g>
			<circle fill="#38E8A0" cx="14.8" cy="42.1" r="0.3"/>
		</g>
		<g>
			<path fill="#11D389" d="M24.4,41.2c0.1,0.9-0.6,1.8-1.5,1.8c-0.9,0.1-1.8-0.6-1.8-1.5c-0.1-0.9,0.6-1.8,1.5-1.8
				C23.5,39.6,24.3,40.2,24.4,41.2z"/>
		</g>
		<g>
			<circle fill="#38E8A0" cx="22.9" cy="34.9" r="0.4"/>
		</g>
		<g>
			<circle fill="#12AD79" cx="26.5" cy="36.2" r="0.7"/>
		</g>
		<g>
			<circle fill="#11D389" cx="23.4" cy="37.6" r="0.6"/>
		</g>
		<g>
			<circle fill="#11D389" cx="18.8" cy="43.2" r="1.2"/>
		</g>
		<g>
			<circle fill="#38E8A0" cx="21.1" cy="49.5" r="0.5"/>
		</g>
	</g>
	<g>
		<g>
			<path fill="#11D389" d="M18.9,46.4c0,0,1.8,3.4,0.9,7.6c-0.9,4.5-3.9,6.9-5.9,4c0,0-2,1.5-3.3,0c-2.4-2.8,4.8-5.9,5.3-8.3
				c0,0-0.6,1.4-2.4,1c-1.8-0.4-2.1-2.8,0.7-3.7C17,46.2,18.9,46.4,18.9,46.4z"/>
		</g>
		<g>
			<path fill="#12AD79" d="M14.2,47.1c2.8-0.9,4.7-0.7,4.7-0.7s1.8,3.4,0.9,7.6"/>
		</g>
		<g>
			<path fill="#12AD79" d="M13.9,58.1c0,0-2,1.5-3.3,0c-2.4-2.8,4.8-5.9,5.3-8.3"/>
		</g>
		<g>
			<path fill="#38E8A0" d="M16.9,56.3c-0.4-0.1-0.8,0.1-0.9,0.5c-0.1,0.4,0.1,0.8,0.5,0.9c0.4,0.1,0.8-0.1,0.9-0.5
				C17.5,56.8,17.3,56.4,16.9,56.3z"/>
		</g>
		<g>
			<circle fill="#38E8A0" cx="17.9" cy="56" r="0.2"/>
		</g>
		<g>
			<circle fill="#38E8A0" cx="16.2" cy="53.3" r="0.4"/>
		</g>
		<g>
			<circle fill="#38E8A0" cx="18.4" cy="54.2" r="0.3"/>
		</g>
		<g>
			<circle fill="#38E8A0" cx="12.6" cy="57" r="0.4"/>
		</g>
		<g>
			<circle fill="#38E8A0" cx="17.5" cy="52.7" r="0.1"/>
		</g>
		<g>
			<path fill="#11D389" d="M18.6,48.1c-0.4-0.1-0.9,0.2-1,0.6c-0.1,0.4,0.2,0.9,0.6,1c0.4,0.1,0.9-0.2,1-0.6
				C19.4,48.7,19.1,48.2,18.6,48.1z"/>
		</g>
		<g>
			<circle fill="#38E8A0" cx="21.6" cy="49.3" r="0.2"/>
		</g>
		<g>
			<circle fill="#12AD79" cx="21.2" cy="47.4" r="0.3"/>
		</g>
		<g>
			<circle fill="#11D389" cx="20.3" cy="48.8" r="0.3"/>
		</g>
		<g>
			<circle fill="#11D389" cx="17.2" cy="50.7" r="0.6"/>
		</g>
		<g>
			<circle fill="#38E8A0" cx="14.3" cy="49.1" r="0.2"/>
		</g>
	</g>
</g>
</svg>
