<?xml version="1.0" encoding="utf-8"?>
<!-- Generator: Adobe Illustrator 16.0.0, SVG Export Plug-In . SVG Version: 6.00 Build 0)  -->
<!DOCTYPE svg PUBLIC "-//W3C//DTD SVG 1.1//EN" "http://www.w3.org/Graphics/SVG/1.1/DTD/svg11.dtd">
<svg version="1.1" id="Layer_1" xmlns="http://www.w3.org/2000/svg" xmlns:xlink="http://www.w3.org/1999/xlink" x="0px" y="0px"
	 width="64px" height="64px" viewBox="0 0 64 64" enable-background="new 0 0 64 64" xml:space="preserve">
<g>
	<g>
		<g>
			<g>
				<g>
					<path fill="#DBD2D5" d="M63,52.2c0,10.4-13.9,11.2-31,11.2c-17.1,0-31-0.7-31-11.2c0-10.4,13.9-18.9,31-18.9
						C49.1,33.3,63,41.7,63,52.2z"/>
				</g>
				<g>
					<path fill="#E53871" d="M32,33.3c15.8,0,28.8,7.2,30.7,16.4c0.2-0.7,0.3-1.4,0.3-2.3C63,37,49.1,16.8,32,16.8
						C14.9,16.8,1,37,1,47.4c0,0.8,0.1,1.6,0.3,2.3C3.2,40.4,16.2,33.3,32,33.3z"/>
				</g>
				<g>
					<path fill="#D32054" d="M32,33.3c15.8,0,28.8,7.2,30.7,16.4c0.2-0.7,0.3-1.4,0.3-2.3c0-10.4-13.9-26-31-26
						c-17.1,0-31,15.5-31,26c0,0.8,0.1,1.6,0.3,2.3C3.2,40.4,16.2,33.3,32,33.3z"/>
				</g>
				<g>
					<path fill="#B51248" d="M32,33.3c15.8,0,28.8,7.2,30.7,16.4c0.2-0.7,0.3-1.4,0.3-2.3C63,37,49.1,28.6,32,28.6
						C14.9,28.6,1,37,1,47.4c0,0.8,0.1,1.6,0.3,2.3C3.2,40.4,16.2,33.3,32,33.3z"/>
				</g>
				<g>
					<path fill="#FFFFFF" d="M63,52.2C63,62.6,49.1,61,32,61c-17.1,0-31,1.6-31-8.8C1,41.7,14.9,38,32,38C49.1,38,63,41.7,63,52.2z"
						/>
				</g>
				<g>
					<path fill="#FF7C76" d="M29.6,16.9v16.4c0.8,0,1.6-0.1,2.4-0.1c0.7,0,1.4,0,2,0.1V16.9c-0.7-0.1-1.3-0.1-2-0.1
						C31.2,16.8,30.4,16.9,29.6,16.9z"/>
				</g>
				<g>
					<g>
						<g>
							<path fill="#FF7C76" d="M18.1,35.3c1.4-0.4,2.9-0.8,4.4-1.1l-2.6-14.1c-1.4,0.8-2.8,1.7-4.1,2.7L18.1,35.3z"/>
						</g>
						<g>
							<path fill="#FF7C76" d="M8.4,39.9c1.2-0.9,2.6-1.7,4.1-2.4l-4.4-6.9C7,32,6,33.5,5.2,34.9L8.4,39.9z"/>
						</g>
					</g>
					<g>
						<g>
							<path fill="#FF7C76" d="M41.2,34.1c1.5,0.3,3,0.6,4.4,1l2.3-12.6c-1.3-1-2.7-1.9-4.1-2.6L41.2,34.1z"/>
						</g>
						<g>
							<path fill="#FF7C76" d="M55.3,39.7l3.3-5.2c-0.9-1.4-1.8-2.9-2.9-4.3l-4.5,7C52.7,38.1,54.1,38.9,55.3,39.7z"/>
						</g>
					</g>
				</g>
				<g>
					<path fill="#DBD2D5" d="M10.2,48.4c0,0.9-0.6,1.6-1.3,1.6c-0.7,0-1.3-0.7-1.3-1.6c0-0.9,0.6-1.6,1.3-1.6
						C9.6,46.8,10.2,47.5,10.2,48.4z"/>
				</g>
				<g>
					<path fill="#DBD2D5" d="M33.3,57.4c0,0.9-0.6,1.6-1.3,1.6c-0.7,0-1.3-0.7-1.3-1.6c0-0.9,0.6-1.6,1.3-1.6
						C32.7,55.8,33.3,56.5,33.3,57.4z"/>
				</g>
				<g>
					<ellipse fill="#DBD2D5" cx="51.2" cy="57" rx="1.3" ry="1.6"/>
				</g>
				<g>
					<ellipse fill="#DBD2D5" cx="54.6" cy="53.6" rx="1.3" ry="1.6"/>
				</g>
				<g>
					<path fill="#DBD2D5" d="M47.2,55.5c0,0.6-0.4,1-0.9,1c-0.5,0-0.9-0.5-0.9-1s0.4-1,0.9-1C46.8,54.5,47.2,54.9,47.2,55.5z"/>
				</g>
				<g>
					<path fill="#DBD2D5" d="M15.2,54.4c0,0.6-0.4,1-0.9,1c-0.5,0-0.9-0.5-0.9-1c0-0.6,0.4-1,0.9-1C14.8,53.4,15.2,53.8,15.2,54.4z"
						/>
				</g>
				<g>
					<path fill="#DBD2D5" d="M7.7,54c0,0.6-0.4,1-0.9,1C6.4,55,6,54.6,6,54s0.4-1,0.9-1C7.3,53,7.7,53.4,7.7,54z"/>
				</g>
				<g>
					<path fill="#DBD2D5" d="M57.2,46c0,0.6-0.4,1-0.9,1c-0.5,0-0.9-0.5-0.9-1c0-0.6,0.4-1,0.9-1C56.8,45,57.2,45.4,57.2,46z"/>
				</g>
				<g>
					<ellipse fill="#DBD2D5" cx="15.6" cy="46.2" rx="0.9" ry="1"/>
				</g>
				<g>
					<path fill="#DBD2D5" d="M22.8,57.4c0,0.9-0.6,1.6-1.3,1.6c-0.7,0-1.3-0.7-1.3-1.6c0-0.9,0.6-1.6,1.3-1.6
						C22.2,55.8,22.8,56.5,22.8,57.4z"/>
				</g>
			</g>
		</g>
	</g>
	<g>
		<g>
			<ellipse fill="#B51212" cx="31.9" cy="18.9" rx="2.9" ry="0.7"/>
		</g>
		<g>
			<path d="M32.7,18.3c0,0.5-0.3,0.5-0.7,0.5l0,0c-0.4,0-0.7,0-0.7-0.5V1.6c0-0.5,0.3-0.9,0.7-0.9l0,0c0.4,0,0.7,0.4,0.7,0.9V18.3z"
				/>
		</g>
		<g>
			<rect x="32.2" y="1.8" fill="#494949" width="13.5" height="8.5"/>
		</g>
		<g>
			<polyline points="32.2,1.8 45.7,1.8 45.7,10.3 			"/>
		</g>
		<g>
			<circle fill="#D32E26" cx="38.9" cy="6.1" r="2.7"/>
		</g>
	</g>
	<g>
		<g>
			<g>
				<circle fill="#DBD2D5" cx="21.6" cy="41.8" r="3.2"/>
			</g>
			<g>
				<circle fill="#DBD2D5" cx="42.4" cy="41.8" r="3.2"/>
			</g>
			<g>
				<circle fill="#1E4784" cx="21.6" cy="40.9" r="3.2"/>
			</g>
			<g>
				<path fill="#00233F" d="M21.6,37.7c1.8,0,3.2,1.4,3.2,3.2s-1.4,3.2-3.2,3.2"/>
			</g>
			<g>
				<circle fill="#1E4784" cx="42.4" cy="40.9" r="3.2"/>
			</g>
			<g>
				<path fill="#00233F" d="M42.4,37.7c1.8,0,3.2,1.4,3.2,3.2s-1.4,3.2-3.2,3.2"/>
			</g>
		</g>
		<g>
			<g>
				<g>
					<g>
						<path fill="#FFFFFF" d="M25.7,28.2c0,0.9-1.4,0.5-3.3,0.6s-3.3,0.6-3.3-0.3c0-0.9,1.4-1.6,3.2-1.7
							C24.2,26.7,25.7,27.4,25.7,28.2z"/>
					</g>
				</g>
				<g>
					<g>
						<path fill="#FFFFFF" d="M38.3,28.2c0,0.9,1.4,0.5,3.3,0.6s3.3,0.6,3.3-0.3c0-0.9-1.4-1.6-3.2-1.7
							C39.8,26.7,38.3,27.4,38.3,28.2z"/>
					</g>
				</g>
			</g>
			<g>
				<g>
					<g>
						<g>
							<g>
								<path fill="#DBD2D5" d="M25.7,28.2c0,0.9-1.4,0.5-3.3,0.6s-3.3,0.6-3.3-0.3"/>
							</g>
						</g>
					</g>
				</g>
				<g>
					<g>
						<g>
							<g>
								<path fill="#DBD2D5" d="M38.3,28.2c0,0.9,1.4,0.5,3.3,0.6s3.3,0.6,3.3-0.3"/>
							</g>
						</g>
					</g>
				</g>
			</g>
		</g>
		<g>
			<g>
				<path fill="#EAE5E7" d="M27.8,47c0,1.2-3.5,0.7-7.8,0.7c-4.3,0-7.8,0.6-7.8-0.7s3.5-2.2,7.8-2.2C24.3,44.8,27.8,45.8,27.8,47z"
					/>
			</g>
			<g>
				<path fill="#EAE5E7" d="M51.8,47c0,1.2-3.5,0.7-7.8,0.7s-7.8,0.6-7.8-0.7s3.5-2.2,7.8-2.2S51.8,45.8,51.8,47z"/>
			</g>
		</g>
	</g>
	<g>
		<path fill="#99144A" d="M37.2,46.8c0,1.9-2.3,3.5-5.2,3.5s-5.3-1.6-5.3-3.5s2.4-0.4,5.3-0.4S37.2,44.9,37.2,46.8z"/>
	</g>
</g>
</svg>
