<?xml version="1.0" encoding="utf-8"?>
<!-- Generator: Adobe Illustrator 16.0.0, SVG Export Plug-In . SVG Version: 6.00 Build 0)  -->
<!DOCTYPE svg PUBLIC "-//W3C//DTD SVG 1.1//EN" "http://www.w3.org/Graphics/SVG/1.1/DTD/svg11.dtd">
<svg version="1.1" id="Layer_1" xmlns="http://www.w3.org/2000/svg" xmlns:xlink="http://www.w3.org/1999/xlink" x="0px" y="0px"
	 width="64px" height="64px" viewBox="0 0 64 64" enable-background="new 0 0 64 64" xml:space="preserve">
<g>
	<g>
		<g>
			<g>
				
					<ellipse transform="matrix(0.9618 -0.2737 0.2737 0.9618 -12.9674 4.564)" fill="#EA7103" cx="9.9" cy="48.7" rx="8.8" ry="8.5"/>
			</g>
			<g>
				<g>
					<g>
						<path fill="#F7910B" d="M62.9,37.5C62.9,50.5,51,61,32.6,61S2.3,50.5,2.3,37.5S14.2,5,32.6,5S62.9,24.5,62.9,37.5z"/>
					</g>
					<g>
						<path fill="#F7910B" d="M62.9,37.5C62.9,50.5,51,57,32.6,57S2.3,50.5,2.3,37.5S14.2,3,32.6,3S62.9,24.5,62.9,37.5z"/>
					</g>
					<g>
						<path fill="#F9A908" d="M32.6,3C51,3,62.9,24.5,62.9,37.5S51,57,32.6,57"/>
					</g>
					<g>
						<path fill="#F9A908" d="M62.9,37.5C62.9,50.5,51,57,32.6,57S2.3,50.5,2.3,37.5S14.2,5,32.6,5S62.9,24.5,62.9,37.5z"/>
					</g>
					<g>
						<path fill="#F9C55D" d="M2.3,37.5C2.3,24.5,14.2,5,32.6,5"/>
					</g>
					<g>
						<path fill="#F7910B" d="M32.6,5C51,5,62.9,24.5,62.9,37.5S51,61,32.6,61"/>
					</g>
					<g>
						<path fill="#EA7103" d="M32.6,5C51,5,62.9,24.5,62.9,37.5"/>
					</g>
					<g>
						<g>
							<circle fill="#EA7103" cx="22.2" cy="25.7" r="3.2"/>
						</g>
						<g>
							<circle fill="#EA7103" cx="43" cy="25.7" r="3.2"/>
						</g>
						<g>
							<circle fill="#1E4784" cx="22.2" cy="24.8" r="3.2"/>
						</g>
						<g>
							<path fill="#00233F" d="M22.2,21.6c1.8,0,3.2,1.4,3.2,3.2s-1.4,3.2-3.2,3.2"/>
						</g>
						<g>
							<circle fill="#1E4784" cx="43" cy="24.8" r="3.2"/>
						</g>
						<g>
							<path fill="#00233F" d="M43,21.6c1.8,0,3.2,1.4,3.2,3.2s-1.4,3.2-3.2,3.2"/>
						</g>
					</g>
					<g>
						<g>
							<g>
								<g>
									<g>
										<g>
											<path fill="#19BCA4" d="M26.2,13.5c0,1.3-1.3,0.6-2.9,0.6c-1.6,0-2.9,0.6-2.9-0.6c0-1.3,1.3-2.3,2.9-2.3
												C24.9,11.2,26.2,12.2,26.2,13.5z"/>
										</g>
									</g>
								</g>
							</g>
						</g>
						<g>
							<g>
								<g>
									<g>
										<g>
											<path fill="#109DA0" d="M26.2,13.5c0,1.3-1.3,0.6-2.9,0.6c-1.6,0-2.9,0.6-2.9-0.6"/>
										</g>
									</g>
								</g>
							</g>
						</g>
					</g>
					<g>
						<g>
							<g>
								<g>
									<g>
										<g>
											<path fill="#19BCA4" d="M39.6,16.5c0,1.3,1.3,0.6,2.9,0.6c1.6,0,2.9,0.6,2.9-0.6c0-1.3-1.3-2.3-2.9-2.3
												C40.9,14.2,39.6,15.2,39.6,16.5z"/>
										</g>
									</g>
								</g>
							</g>
						</g>
						<g>
							<g>
								<g>
									<g>
										<g>
											<path fill="#109DA0" d="M39.6,16.5c0,1.3,1.3,0.6,2.9,0.6c1.6,0,2.9,0.6,2.9-0.6"/>
										</g>
									</g>
								</g>
							</g>
						</g>
					</g>
					<g>
						<g>
							<path fill="#F9C55D" d="M28.4,30.8c0,1.2-3.5,0.7-7.8,0.7c-4.3,0-7.8,0.6-7.8-0.7s3.5-2.2,7.8-2.2
								C24.9,28.6,28.4,29.6,28.4,30.8z"/>
						</g>
						<g>
							<path fill="#F9A908" d="M52.4,30.8c0,1.2-3.5,0.7-7.8,0.7s-7.8,0.6-7.8-0.7s3.5-2.2,7.8-2.2S52.4,29.6,52.4,30.8z"/>
						</g>
					</g>
					<g>
						<circle fill="#F7910B" cx="10.9" cy="34.5" r="0.6"/>
					</g>
					<g>
						<circle fill="#F7910B" cx="6.4" cy="36.5" r="1.1"/>
					</g>
					<g>
						<circle fill="#F7910B" cx="9.4" cy="32.5" r="0.2"/>
					</g>
					<g>
						<circle fill="#F7910B" cx="14" cy="34.3" r="0.2"/>
					</g>
					<g>
						<circle fill="#F9A908" cx="53.2" cy="34.8" r="0.8"/>
					</g>
					<g>
						<circle fill="#F9A908" cx="55.7" cy="36.2" r="0.2"/>
					</g>
					<g>
						<circle fill="#F9A908" cx="50.4" cy="27.4" r="0.3"/>
					</g>
					<g>
						<circle fill="#F9A908" cx="49.9" cy="39" r="1.3"/>
					</g>
					<g>
						<circle fill="#F9A908" cx="57.1" cy="39.1" r="0.6"/>
					</g>
					<g>
						<circle fill="#F7910B" cx="9.9" cy="38.5" r="0.5"/>
					</g>
					<g>
						<circle fill="#F7910B" cx="10.7" cy="30.1" r="0.4"/>
					</g>
					<g>
						<circle fill="#F9A908" cx="5.4" cy="16.3" r="1.1"/>
					</g>
					<g>
						<circle fill="#F9A908" cx="8.6" cy="12.8" r="0.6"/>
					</g>
					<g>
						<circle fill="#F9A908" cx="59.8" cy="18.7" r="0.2"/>
					</g>
					<g>
						<circle fill="#F9A908" cx="59" cy="15.8" r="0.8"/>
					</g>
					<g>
						<circle fill="#F9A908" cx="61.6" cy="16.3" r="0.5"/>
					</g>
					<g>
						<circle fill="#F9A908" cx="6.6" cy="19.3" r="0.6"/>
					</g>
				</g>
			</g>
			<g>
				<g>
					<path fill="#F9C55D" d="M36.5,34.6c0,0.8-1.7,1.5-3.9,1.5c-2.2,0-3.9-0.7-3.9-1.5"/>
				</g>
				<g>
					<g>
						<path fill="#F7910B" d="M38,36.6c0,1.9-2.4,5.4-5.4,5.4c-3,0-5.4-3.5-5.4-5.4"/>
					</g>
					<g>
						<g>
							<path fill="#02243E" d="M21.6,35.3c-0.6,0-1.1-0.5-1.1-1.1s0.5-1.1,1.1-1.1c0.5,0,0.9-0.4,0.9-0.9c0-0.6,0.5-1.1,1.1-1.1
								s1.1,0.5,1.1,1.1C24.6,33.9,23.2,35.3,21.6,35.3z"/>
						</g>
						<g>
							<path fill="#02243E" d="M43.7,35.3c-1.7,0-3.1-1.4-3.1-3.1c0-0.6,0.5-1.1,1.1-1.1s1.1,0.5,1.1,1.1c0,0.5,0.4,0.9,0.9,0.9
								c0.6,0,1.1,0.5,1.1,1.1S44.3,35.3,43.7,35.3z"/>
						</g>
					</g>
					<g>
						<path fill="#02243E" d="M32.6,38.9c-3.8,0-7.6-1.4-10.4-4.3c-0.4-0.4-0.4-1.1,0-1.6s1.1-0.4,1.6,0c4.9,4.9,12.9,4.9,17.8,0
							c0.4-0.4,1.1-0.4,1.6,0c0.4,0.4,0.4,1.1,0,1.6C40.2,37.5,36.4,38.9,32.6,38.9z"/>
					</g>
				</g>
			</g>
		</g>
	</g>
	<g>
		<g>
			<g>
				<path fill="#CCF2E3" d="M12.5,27.1c-2.2-0.7-6.3,6.5-8,12.2C2.7,45,0.7,53,7.6,47.1c1.8-1.5,3.2,1.7,5-4
					C14.3,37.4,14.8,27.8,12.5,27.1z"/>
			</g>
			<g>
				<path fill="#AAD6C3" d="M22.2,53c-7.1,0-5.3-1.7-5.2-3.7c0.1-2-1.7-3.7,5.5-3.7c7.1,0,9.9,1.7,9.8,3.7
					C32.3,51.4,29.4,53,22.2,53z"/>
			</g>
			<g>
				<path fill="#AAD6C3" d="M32.4,49.4c-0.1,2-3,3.7-10.1,3.7c-7.1,0-5.3-1.7-5.2-3.7"/>
			</g>
			<g>
				<path fill="#CCF2E3" d="M20.9,45.6c-7.1,0-5.2-1.6-5.2-3.7c0.1-2-2.7-3.8,4.5-3.7c7.1,0,10.9,1.7,10.8,3.8
					C30.9,44,28,45.7,20.9,45.6z"/>
			</g>
			<g>
				<path fill="#AAD6C3" d="M31,42c-0.1,2-3,3.7-10.1,3.6c-7.1,0-5.2-1.6-5.2-3.7"/>
			</g>
			<g>
				<path fill="#AAD6C3" d="M19,60.3c-7.1,0-5.3-1.7-5.2-3.7c0.1-2-1.7-3.7,5.5-3.7c7.1,0,9.9,1.7,9.8,3.7
					C29.1,58.7,26.2,60.3,19,60.3z"/>
			</g>
			<g>
				<path fill="#AAD6C3" d="M29.1,56.7c-0.1,2-3,3.7-10.1,3.7c-7.1,0-5.3-1.7-5.2-3.7"/>
			</g>
			<g>
				<path fill="#CCF2E3" d="M14.3,60.3c-6.6,0-12-3.4-11.8-10C2.8,43.7,8.4,38.4,15,38.4c6.6,0,8.8,5.3,8.5,11.9
					C23.2,56.9,20.9,60.3,14.3,60.3z"/>
			</g>
			<g>
				<path fill="#AAD6C3" d="M14.3,60.3c-6.6,0-12-3.4-11.8-10c0.2-6.6,6.2-9.2,12.8-8.6c6.8,0.6,8-2.1,8.2,8.2
					C23.6,56.5,21.1,60.3,14.3,60.3z"/>
			</g>
		</g>
		<g>
			<path fill="#E7F7EF" d="M30.2,47.3c-0.9-0.4-1.7-0.5-1.9-0.3c-0.1,0.3,0.5,0.8,1.4,1.3c0.9,0.4,1.7,0.5,1.9,0.3
				C31.7,48.3,31.1,47.8,30.2,47.3z"/>
		</g>
		<g>
			<path fill="#E7F7EF" d="M28.4,39.9c-0.9-0.4-1.7-0.5-1.9-0.3c-0.1,0.3,0.5,0.8,1.4,1.3c0.9,0.4,1.7,0.5,1.9,0.3
				C29.9,40.8,29.3,40.3,28.4,39.9z"/>
		</g>
		<g>
			<path fill="#E7F7EF" d="M26.8,54.8c-0.9-0.4-1.7-0.5-1.9-0.3c-0.1,0.3,0.5,0.8,1.4,1.3c0.9,0.4,1.7,0.5,1.9,0.3
				C28.3,55.8,27.7,55.2,26.8,54.8z"/>
		</g>
		<g>
			<path fill="#E7F7EF" d="M16.6,40.8c-2.2,0-3.9-0.3-3.9-0.8c0-0.5,1.8-0.9,3.9-0.9c2.2,0,2.7,0.4,2.7,0.8
				C19.2,40.4,18.7,40.8,16.6,40.8z"/>
		</g>
		<g>
			<path fill="#E7F7EF" d="M11.8,31.7c-1.4,2.3-3,3.9-3.6,3.5c-0.6-0.4,0-2.6,1.4-4.9c1.4-2.3,2.2-2.5,2.8-2.1
				C13,28.5,13.2,29.4,11.8,31.7z"/>
		</g>
	</g>
</g>
</svg>
