<?xml version="1.0" encoding="utf-8"?>
<!-- Generator: Adobe Illustrator 16.0.0, SVG Export Plug-In . SVG Version: 6.00 Build 0)  -->
<!DOCTYPE svg PUBLIC "-//W3C//DTD SVG 1.1//EN" "http://www.w3.org/Graphics/SVG/1.1/DTD/svg11.dtd">
<svg version="1.1" id="Layer_1" xmlns="http://www.w3.org/2000/svg" xmlns:xlink="http://www.w3.org/1999/xlink" x="0px" y="0px"
	 width="64px" height="64px" viewBox="0 0 64 64" enable-background="new 0 0 64 64" xml:space="preserve">
<g>
	<g>
		<path fill="#F7910B" d="M62.3,37.5C62.3,50.5,50.4,61,32,61C13.6,61,1.7,50.5,1.7,37.5S13.6,5,32,5C50.4,5,62.3,24.5,62.3,37.5z"
			/>
	</g>
	<g>
		<path fill="#F7910B" d="M62.3,37.5C62.3,50.5,50.4,57,32,57C13.6,57,1.7,50.5,1.7,37.5S13.6,3,32,3C50.4,3,62.3,24.5,62.3,37.5z"
			/>
	</g>
	<g>
		<path fill="#F9A908" d="M32,3c18.4,0,30.3,21.5,30.3,34.5S50.4,57,32,57"/>
	</g>
	<g>
		<path fill="#F9A908" d="M62.3,37.5C62.3,50.5,50.4,57,32,57C13.6,57,1.7,50.5,1.7,37.5S13.6,5,32,5C50.4,5,62.3,24.5,62.3,37.5z"
			/>
	</g>
	<g>
		<path fill="#F9C55D" d="M1.7,37.5C1.7,24.5,13.6,5,32,5"/>
	</g>
	<g>
		<path fill="#F7910B" d="M32,5c18.4,0,30.3,19.5,30.3,32.5S50.4,61,32,61"/>
	</g>
	<g>
		<path fill="#EA7103" d="M32,5c18.4,0,30.3,19.5,30.3,32.5"/>
	</g>
	<g>
		<g>
			<g>
				<g>
					<g>
						<g>
							<path fill="#19BCA4" d="M25.9,14.9c0.3,0.8-1.2,0.9-2.9,1.6c-1.7,0.6-2.9,1.6-3.2,0.8c-0.3-0.8,0.8-2,2.5-2.6
								C23.9,14,25.5,14.1,25.9,14.9z"/>
						</g>
					</g>
				</g>
			</g>
			<g>
				<g>
					<g>
						<g>
							<path fill="#109DA0" d="M25.9,14.9c0.3,0.8-1.2,0.9-2.9,1.6c-1.7,0.6-2.9,1.6-3.2,0.8"/>
						</g>
					</g>
				</g>
			</g>
		</g>
		<g>
			<g>
				<g>
					<g>
						<g>
							<path fill="#19BCA4" d="M38.1,14.9c-0.3,0.8,1.2,0.9,2.9,1.6c1.7,0.6,2.9,1.6,3.2,0.8c0.3-0.8-0.8-2-2.5-2.6
								C40.1,14,38.5,14.1,38.1,14.9z"/>
						</g>
					</g>
				</g>
			</g>
			<g>
				<g>
					<g>
						<g>
							<path fill="#109DA0" d="M38.1,14.9c-0.3,0.8,1.2,0.9,2.9,1.6c1.7,0.6,2.9,1.6,3.2,0.8"/>
						</g>
					</g>
				</g>
			</g>
		</g>
	</g>
	<g>
		<g>
			<path fill="#F9C55D" d="M27.8,30.8c0,1.2-3.5,0.7-7.8,0.7c-4.3,0-7.8,0.6-7.8-0.7c0-1.2,3.5-2.2,7.8-2.2
				C24.3,28.6,27.8,29.6,27.8,30.8z"/>
		</g>
		<g>
			<path fill="#F9A908" d="M51.8,30.8c0,1.2-3.5,0.7-7.8,0.7s-7.8,0.6-7.8-0.7c0-1.2,3.5-2.2,7.8-2.2S51.8,29.6,51.8,30.8z"/>
		</g>
	</g>
	<g>
		<circle fill="#F7910B" cx="10.3" cy="34.5" r="0.6"/>
	</g>
	<g>
		<circle fill="#F7910B" cx="5.8" cy="36.5" r="1.1"/>
	</g>
	<g>
		<circle fill="#F7910B" cx="8.8" cy="32.5" r="0.2"/>
	</g>
	<g>
		<circle fill="#F7910B" cx="13.4" cy="34.3" r="0.2"/>
	</g>
	<g>
		<circle fill="#F9A908" cx="52.6" cy="34.8" r="0.8"/>
	</g>
	<g>
		<circle fill="#F9A908" cx="55.1" cy="36.2" r="0.2"/>
	</g>
	<g>
		<circle fill="#F9A908" cx="49.8" cy="27.4" r="0.3"/>
	</g>
	<g>
		<circle fill="#F9A908" cx="49.3" cy="39" r="1.3"/>
	</g>
	<g>
		<circle fill="#F9A908" cx="56.5" cy="39.1" r="0.6"/>
	</g>
	<g>
		<circle fill="#F7910B" cx="9.3" cy="38.5" r="0.5"/>
	</g>
	<g>
		<circle fill="#F7910B" cx="10.1" cy="30.1" r="0.4"/>
	</g>
	<g>
		<circle fill="#F9A908" cx="4.8" cy="16.3" r="1.1"/>
	</g>
	<g>
		<circle fill="#F9A908" cx="8" cy="12.8" r="0.6"/>
	</g>
	<g>
		<circle fill="#F9A908" cx="59.2" cy="18.7" r="0.2"/>
	</g>
	<g>
		<circle fill="#F9A908" cx="58.4" cy="15.8" r="0.8"/>
	</g>
	<g>
		<circle fill="#F9A908" cx="61" cy="16.3" r="0.5"/>
	</g>
	<g>
		<circle fill="#F9A908" cx="6" cy="19.3" r="0.6"/>
	</g>
	<g>
		<g>
			<g>
				<g>
					<g>
						<path fill="#1E4784" d="M23.9,28c-0.4-0.1-0.8-0.3-1.1-0.7c-1.1-1.6-3.4-2-5-0.9C17,26.9,16,26.7,15.5,26
							c-0.5-0.7-0.3-1.8,0.4-2.3c3.1-2.2,7.4-1.4,9.6,1.8c0.5,0.7,0.3,1.8-0.4,2.3C24.7,28,24.3,28,23.9,28z"/>
					</g>
				</g>
				<g>
					<g>
						<path fill="#02243E" d="M25.5,25.4c0.5,0.7,0.3,1.8-0.4,2.3C24.7,28,24.3,28,23.9,28c-0.4-0.1-0.8-0.3-1.1-0.7
							c-1.1-1.6-3.4-2-5-0.9C17,26.9,16,26.7,15.5,26c-0.5-0.7-0.3-1.8,0.4-2.3"/>
					</g>
				</g>
			</g>
		</g>
		<g>
			<g>
				<g>
					<g>
						<path fill="#1E4784" d="M40.1,28c0.4-0.1,0.8-0.3,1.1-0.7c1.1-1.6,3.4-2,5-0.9c0.8,0.5,1.8,0.3,2.3-0.4
							c0.5-0.7,0.3-1.8-0.4-2.3c-3.1-2.2-7.4-1.4-9.6,1.8c-0.5,0.7-0.3,1.8,0.4,2.3C39.3,28,39.7,28,40.1,28z"/>
					</g>
				</g>
				<g>
					<g>
						<path fill="#02243E" d="M38.5,25.4c-0.5,0.7-0.3,1.8,0.4,2.3c0.4,0.3,0.8,0.3,1.2,0.3c0.4-0.1,0.8-0.3,1.1-0.7
							c1.1-1.6,3.4-2,5-0.9c0.8,0.5,1.8,0.3,2.3-0.4c0.5-0.7,0.3-1.8-0.4-2.3"/>
					</g>
				</g>
			</g>
		</g>
	</g>
	<g>
		<g>
			<path fill="#F7910B" d="M39.4,37c0,2.6-3.3,7.3-7.4,7.3c-4.1,0-7.4-4.7-7.4-7.3"/>
		</g>
		<g>
			<g>
				<path fill="#C11664" d="M45.3,34c-0.1-0.3-0.3-0.6-0.4-0.8c-1.6,3.2-6.7,5.7-12.8,5.9c-0.4,0-0.8,0-1.2,0c0.2,0.5,0.3,1,0.5,1.5
					c2.3,5.2,8.3,10.2,12.1,8.4C47.4,47.1,47.6,39.2,45.3,34z"/>
			</g>
			<g>
				<path fill="#99144A" d="M43.6,48.9c3.8-1.8,4.1-9.7,1.8-14.9c-0.1-0.3-0.3-0.6-0.4-0.8c-1.6,3.2-6.7,5.7-12.8,5.9"/>
			</g>
		</g>
		<g>
			<g>
				<path fill="#02243E" d="M17,34.9c-0.6,0-1.1-0.5-1.1-1.1s0.5-1.1,1.1-1.1c0.9,0,1.6-0.7,1.6-1.6c0-0.6,0.5-1.1,1.1-1.1
					s1.1,0.5,1.1,1.1C20.7,33.2,19,34.9,17,34.9z"/>
			</g>
			<g>
				<path fill="#02243E" d="M47,34.9c-2.1,0-3.8-1.7-3.8-3.8c0-0.6,0.5-1.1,1.1-1.1s1.1,0.5,1.1,1.1c0,0.9,0.7,1.6,1.6,1.6
					c0.6,0,1.1,0.5,1.1,1.1S47.6,34.9,47,34.9z"/>
			</g>
		</g>
		<g>
			<path fill="#02243E" d="M32,39.8c-5,0-10.1-1.9-13.9-5.8c-0.4-0.4-0.4-1.1,0-1.6s1.1-0.4,1.6,0c3.3,3.3,7.7,5.1,12.4,5.1
				s9.1-1.8,12.4-5.1c0.4-0.4,1.1-0.4,1.6,0s0.4,1.1,0,1.6C42.1,37.9,37,39.8,32,39.8z"/>
		</g>
		<g>
			<ellipse fill="#C11664" cx="42.1" cy="41.7" rx="1.5" ry="3.5"/>
		</g>
	</g>
</g>
</svg>
