<?xml version="1.0" encoding="utf-8"?>
<!-- Generator: Adobe Illustrator 16.0.0, SVG Export Plug-In . SVG Version: 6.00 Build 0)  -->
<!DOCTYPE svg PUBLIC "-//W3C//DTD SVG 1.1//EN" "http://www.w3.org/Graphics/SVG/1.1/DTD/svg11.dtd">
<svg version="1.1" id="Layer_1" xmlns="http://www.w3.org/2000/svg" xmlns:xlink="http://www.w3.org/1999/xlink" x="0px" y="0px"
	 width="64px" height="64px" viewBox="0 0 64 64" enable-background="new 0 0 64 64" xml:space="preserve">
<g>
	<g>
		<g>
			<path fill="#F7910B" d="M62.8,39.4c0,13-11.9,23.5-30.3,23.5c-18.4,0-30.3-10.5-30.3-23.5S14.1,6.9,32.5,6.9
				C50.9,6.9,62.8,26.4,62.8,39.4z"/>
		</g>
		<g>
			<path fill="#F7910B" d="M62.8,39.4c0,13-11.9,19.5-30.3,19.5c-18.4,0-30.3-6.5-30.3-19.5S14.1,4.9,32.5,4.9
				C50.9,4.9,62.8,26.4,62.8,39.4z"/>
		</g>
		<g>
			<path fill="#F9A908" d="M32.5,4.9c18.4,0,30.3,21.5,30.3,34.5S50.9,58.9,32.5,58.9"/>
		</g>
		<g>
			<path fill="#F9A908" d="M62.8,39.4c0,13-11.9,19.5-30.3,19.5c-18.4,0-30.3-6.5-30.3-19.5S14.1,6.9,32.5,6.9
				C50.9,6.9,62.8,26.4,62.8,39.4z"/>
		</g>
		<g>
			<path fill="#F9C55D" d="M2.2,39.4c0-13,11.9-32.5,30.3-32.5"/>
		</g>
		<g>
			<path fill="#F7910B" d="M32.5,6.9c18.4,0,30.3,19.5,30.3,32.5S50.9,62.9,32.5,62.9"/>
		</g>
		<g>
			<path fill="#EA7103" d="M32.5,6.9c18.4,0,30.3,19.5,30.3,32.5"/>
		</g>
		<g>
			<g>
				<path fill="#F7910B" d="M50.2,53.2c0,2.6-5.3,4.7-11.9,4.7c-6.6,0-11.9-2.1-11.9-4.7"/>
			</g>
			<g>
				<path fill="#02243E" d="M41.8,54.4h-6.7c-0.6,0-1.1-0.5-1.1-1.1s0.5-1.1,1.1-1.1h6.7c0.6,0,1.1,0.5,1.1,1.1S42.4,54.4,41.8,54.4
					z"/>
			</g>
		</g>
		<g>
			<circle fill="#F7910B" cx="10.8" cy="36.3" r="0.6"/>
		</g>
		<g>
			<circle fill="#F7910B" cx="6.3" cy="38.3" r="1.1"/>
		</g>
		<g>
			<circle fill="#F7910B" cx="9.3" cy="34.3" r="0.2"/>
		</g>
		<g>
			<circle fill="#F7910B" cx="13.9" cy="36.2" r="0.2"/>
		</g>
		<g>
			<circle fill="#F9A908" cx="59" cy="39.2" r="0.8"/>
		</g>
		<g>
			<circle fill="#F9A908" cx="55.6" cy="38.1" r="0.2"/>
		</g>
		<g>
			<circle fill="#F9A908" cx="59.7" cy="45.1" r="0.3"/>
		</g>
		<g>
			<circle fill="#F9A908" cx="55.9" cy="48.9" r="1.3"/>
		</g>
		<g>
			<circle fill="#F9A908" cx="57" cy="41" r="0.6"/>
		</g>
		<g>
			<circle fill="#F7910B" cx="9.8" cy="40.4" r="0.5"/>
		</g>
		<g>
			<circle fill="#F7910B" cx="10.6" cy="32" r="0.4"/>
		</g>
		<g>
			<circle fill="#F9A908" cx="5.3" cy="18.2" r="1.1"/>
		</g>
		<g>
			<circle fill="#F9A908" cx="8.5" cy="14.7" r="0.6"/>
		</g>
		<g>
			<circle fill="#F9A908" cx="59.7" cy="20.6" r="0.2"/>
		</g>
		<g>
			<circle fill="#F9A908" cx="56.5" cy="9.7" r="0.8"/>
		</g>
		<g>
			<circle fill="#F9A908" cx="61.5" cy="18.2" r="0.5"/>
		</g>
		<g>
			<circle fill="#F9A908" cx="6.5" cy="21.2" r="0.6"/>
		</g>
		<g>
			<g>
				<circle fill="#D87703" cx="28.4" cy="42" r="3.5"/>
			</g>
			<g>
				<circle fill="#D87703" cx="51.3" cy="42" r="3.5"/>
			</g>
			<g>
				<circle fill="#1E4784" cx="28.4" cy="41" r="3.5"/>
			</g>
			<g>
				<path fill="#00233F" d="M28.4,37.5c1.9,0,3.5,1.6,3.5,3.5s-1.6,3.5-3.5,3.5"/>
			</g>
			<g>
				<circle fill="#1E4784" cx="51.3" cy="41" r="3.5"/>
			</g>
			<g>
				<path fill="#00233F" d="M51.3,37.5c1.9,0,3.5,1.6,3.5,3.5s-1.6,3.5-3.5,3.5"/>
			</g>
		</g>
		<g>
			<g>
				<path fill="#19BCA4" d="M29.8,29c-1.6,0.8-2.7,2-2.3,2.8l5.9-2.8C33.1,28.3,31.5,28.3,29.8,29z"/>
			</g>
			<g>
				<path fill="#19BCA4" d="M49.9,29c-1.7-0.6-3.3-0.4-3.6,0.5l6.2,2.1C52.7,30.7,51.6,29.6,49.9,29z"/>
			</g>
			<g>
				<path fill="#109DA0" d="M30.7,30.8c1.6-0.8,3.1-1,2.8-1.8l-5.9,2.8C27.9,32.6,29.1,31.6,30.7,30.8z"/>
			</g>
			<g>
				<path fill="#109DA0" d="M49.2,30.9c1.7,0.6,3,1.5,3.2,0.6l-6.2-2.1C46,30.3,47.5,30.3,49.2,30.9z"/>
			</g>
			<g>
				<path fill="#F9C55D" d="M27.9,43.8c-4.3,0-7.8,1-7.8,2.2s3.5,0.7,7.8,0.7c4.3,0,7.8,0.6,7.8-0.7S32.2,43.8,27.9,43.8z"/>
			</g>
			<g>
				<path fill="#F9A908" d="M51.9,43.8c-4.3,0-7.8,1-7.8,2.2s3.5,0.7,7.8,0.7c4.3,0,7.8,0.6,7.8-0.7S56.2,43.8,51.9,43.8z"/>
			</g>
		</g>
	</g>
	<g>
		<g>
			<g>
				<circle fill="#E54C3C" cx="18.1" cy="18" r="16.9"/>
			</g>
			<g>
				<path fill="#C12B1B" d="M18.1,1.1C27.4,1.1,35,8.7,35,18c0,9.3-7.6,16.9-16.9,16.9"/>
			</g>
			<g>
				<path fill="#890606" d="M30,6.1c6.6,6.6,6.6,17.3,0,23.9c-6.6,6.6-17.3,6.6-23.9,0"/>
			</g>
			<g>
				<circle fill="#EEFCFF" cx="18.1" cy="18" r="13.8"/>
			</g>
			<g>
				<path fill="#DEF0F9" d="M18.1,4.2c7.6,0,13.8,6.2,13.8,13.8c0,7.6-6.2,13.8-13.8,13.8"/>
			</g>
			<g>
				<circle fill="#19D893" cx="18.1" cy="18" r="1.4"/>
			</g>
			<g>
				<path fill="#04AF76" d="M19,17.1c0.5,0.5,0.5,1.4,0,1.9c-0.5,0.5-1.4,0.5-1.9,0"/>
			</g>
			<g>
				<g>
					<g>
						<path fill="#04AF76" d="M18.3,9.3c0,0.1-0.1,0.3-0.3,0.3l0,0c-0.1,0-0.3-0.1-0.3-0.3v-3c0-0.1,0.1-0.3,0.3-0.3l0,0
							c0.1,0,0.3,0.1,0.3,0.3V9.3z"/>
					</g>
					<g>
						<path fill="#04AF76" d="M18.3,29.7c0,0.1-0.1,0.3-0.3,0.3l0,0c-0.1,0-0.3-0.1-0.3-0.3v-3c0-0.1,0.1-0.3,0.3-0.3l0,0
							c0.1,0,0.3,0.1,0.3,0.3V29.7z"/>
					</g>
				</g>
				<g>
					<g>
						<path fill="#04AF76" d="M26.8,18.3c-0.1,0-0.3-0.1-0.3-0.3l0,0c0-0.1,0.1-0.3,0.3-0.3h3c0.1,0,0.3,0.1,0.3,0.3l0,0
							c0,0.1-0.1,0.3-0.3,0.3H26.8z"/>
					</g>
					<g>
						<path fill="#04AF76" d="M6.4,18.3c-0.1,0-0.3-0.1-0.3-0.3l0,0c0-0.1,0.1-0.3,0.3-0.3h3c0.1,0,0.3,0.1,0.3,0.3l0,0
							c0,0.1-0.1,0.3-0.3,0.3H6.4z"/>
					</g>
				</g>
			</g>
			<g>
				<g>
					<g>
						<path fill="#04AF76" d="M24.4,12c-0.1,0.1-0.3,0.1-0.4,0l0,0c-0.1-0.1-0.1-0.3,0-0.4l2.1-2.1c0.1-0.1,0.3-0.1,0.4,0l0,0
							c0.1,0.1,0.1,0.3,0,0.4L24.4,12z"/>
					</g>
					<g>
						<path fill="#04AF76" d="M10,26.4c-0.1,0.1-0.3,0.1-0.4,0l0,0c-0.1-0.1-0.1-0.3,0-0.4l2.1-2.1c0.1-0.1,0.3-0.1,0.4,0l0,0
							c0.1,0.1,0.1,0.3,0,0.4L10,26.4z"/>
					</g>
				</g>
				<g>
					<g>
						<path fill="#04AF76" d="M24,24.3c-0.1-0.1-0.1-0.3,0-0.4l0,0c0.1-0.1,0.3-0.1,0.4,0l2.1,2.1c0.1,0.1,0.1,0.3,0,0.4l0,0
							c-0.1,0.1-0.3,0.1-0.4,0L24,24.3z"/>
					</g>
					<g>
						<path fill="#04AF76" d="M9.7,10c-0.1-0.1-0.1-0.3,0-0.4l0,0c0.1-0.1,0.3-0.1,0.4,0l2.1,2.1c0.1,0.1,0.1,0.3,0,0.4l0,0
							c-0.1,0.1-0.3,0.1-0.4,0L9.7,10z"/>
					</g>
				</g>
			</g>
			<g>
				<path fill="#19D893" d="M18.5,17.3c0,0.2-0.2,0.4-0.4,0.4l0,0c-0.2,0-0.4-0.2-0.4-0.4V11c0-0.2,0.2-0.4,0.4-0.4l0,0
					c0.2,0,0.4,0.2,0.4,0.4V17.3z"/>
			</g>
			<g>
				<path fill="#04AF76" d="M18.4,18.4c-0.1,0-0.2-0.2-0.2-0.4l0,0c0-0.2,0.1-0.4,0.2-0.4h3.7c0.1,0,0.2,0.2,0.2,0.4l0,0
					c0,0.2-0.1,0.4-0.2,0.4H18.4z"/>
			</g>
		</g>
	</g>
	<g>
		<circle fill="#890606" cx="39.7" cy="18" r="1.1"/>
	</g>
	<g>
		<circle fill="#C12B1B" cx="45.5" cy="18" r="1.1"/>
	</g>
	<g>
		<circle fill="#890606" cx="51.2" cy="18" r="1.1"/>
	</g>
	<g>
		<circle fill="#C12B1B" cx="57" cy="18" r="1.1"/>
	</g>
</g>
</svg>
