<?xml version="1.0" encoding="utf-8"?>
<!-- Generator: Adobe Illustrator 16.0.0, SVG Export Plug-In . SVG Version: 6.00 Build 0)  -->
<!DOCTYPE svg PUBLIC "-//W3C//DTD SVG 1.1//EN" "http://www.w3.org/Graphics/SVG/1.1/DTD/svg11.dtd">
<svg version="1.1" id="Layer_1" xmlns="http://www.w3.org/2000/svg" xmlns:xlink="http://www.w3.org/1999/xlink" x="0px" y="0px"
	 width="64px" height="64px" viewBox="0 0 64 64" enable-background="new 0 0 64 64" xml:space="preserve">
<g>
	<g>
		<g>
			<g>
				<path fill="#F7910B" d="M62.3,37.1c0,13-11.9,23.5-30.3,23.5c-18.4,0-30.3-10.5-30.3-23.5S13.6,4.6,32,4.6
					C50.4,4.6,62.3,24.1,62.3,37.1z"/>
			</g>
			<g>
				<path fill="#F7910B" d="M62.3,37.1c0,13-11.9,19.5-30.3,19.5c-18.4,0-30.3-6.5-30.3-19.5S13.6,2.6,32,2.6
					C50.4,2.6,62.3,24.1,62.3,37.1z"/>
			</g>
			<g>
				<path fill="#F9A908" d="M32,2.6c18.4,0,30.3,21.5,30.3,34.5S50.4,56.6,32,56.6"/>
			</g>
			<g>
				<path fill="#F9A908" d="M62.3,37.1c0,13-11.9,19.5-30.3,19.5c-18.4,0-30.3-6.5-30.3-19.5S13.6,4.6,32,4.6
					C50.4,4.6,62.3,24.1,62.3,37.1z"/>
			</g>
			<g>
				<path fill="#F9C55D" d="M1.7,37.1c0-13,11.9-32.5,30.3-32.5"/>
			</g>
			<g>
				<path fill="#F7910B" d="M32,4.6c18.4,0,30.3,19.5,30.3,32.5S50.4,60.6,32,60.6"/>
			</g>
			<g>
				<path fill="#EA7103" d="M32,4.6c18.4,0,30.3,19.5,30.3,32.5"/>
			</g>
			<g>
				<g>
					<g>
						<g>
							<g>
								<g>
									<path fill="#19BCA4" d="M25.9,11.1c0.2,0.8-1.3,0.8-3,1.3s-3,1.3-3.3,0.5c-0.2-0.8,1-1.9,2.7-2.4
										C24.1,10,25.7,10.3,25.9,11.1z"/>
								</g>
							</g>
						</g>
					</g>
					<g>
						<g>
							<g>
								<g>
									<path fill="#109DA0" d="M25.9,11.1c0.2,0.8-1.3,0.8-3,1.3s-3,1.3-3.3,0.5"/>
								</g>
							</g>
						</g>
					</g>
				</g>
				<g>
					<g>
						<g>
							<g>
								<g>
									<path fill="#19BCA4" d="M38.1,16.5c0.2,0.8,1.5,0.1,3.3-0.4c1.8-0.4,3.3-0.4,3.1-1.2c-0.2-0.8-1.8-1.2-3.6-0.7
										C39.1,14.6,37.9,15.6,38.1,16.5z"/>
								</g>
							</g>
						</g>
					</g>
					<g>
						<g>
							<g>
								<g>
									<path fill="#109DA0" d="M38.1,16.5c0.2,0.8,1.5,0.1,3.3-0.4c1.8-0.4,3.3-0.4,3.1-1.2"/>
								</g>
							</g>
						</g>
					</g>
				</g>
			</g>
			<g>
				<circle fill="#F7910B" cx="10.3" cy="34.1" r="0.6"/>
			</g>
			<g>
				<circle fill="#F7910B" cx="5.8" cy="36.1" r="1.1"/>
			</g>
			<g>
				<circle fill="#F7910B" cx="8.8" cy="32.1" r="0.2"/>
			</g>
			<g>
				<circle fill="#F7910B" cx="13.4" cy="33.9" r="0.2"/>
			</g>
			<g>
				<circle fill="#F9A908" cx="52.6" cy="34.5" r="0.8"/>
			</g>
			<g>
				<circle fill="#F9A908" cx="55.1" cy="35.8" r="0.2"/>
			</g>
			<g>
				<circle fill="#F9A908" cx="49.8" cy="27" r="0.3"/>
			</g>
			<g>
				<circle fill="#F9A908" cx="49.3" cy="38.6" r="1.3"/>
			</g>
			<g>
				<circle fill="#F9A908" cx="56.5" cy="38.7" r="0.6"/>
			</g>
			<g>
				<circle fill="#F7910B" cx="9.3" cy="38.1" r="0.5"/>
			</g>
			<g>
				<circle fill="#F7910B" cx="10.1" cy="29.7" r="0.4"/>
			</g>
			<g>
				<circle fill="#F9A908" cx="4.8" cy="16" r="1.1"/>
			</g>
			<g>
				<circle fill="#F9A908" cx="8" cy="12.4" r="0.6"/>
			</g>
			<g>
				<circle fill="#F9A908" cx="59.2" cy="18.3" r="0.2"/>
			</g>
			<g>
				<g>
					<g>
						<circle fill="#D87703" cx="41.8" cy="25.3" r="3.5"/>
					</g>
					<g>
						<circle fill="#1E4784" cx="41.8" cy="24.3" r="3.5"/>
					</g>
					<g>
						<path fill="#00233F" d="M41.8,20.8c1.9,0,3.5,1.6,3.5,3.5s-1.6,3.5-3.5,3.5"/>
					</g>
				</g>
			</g>
			<g>
				<g>
					<g>
						<circle fill="#D87703" cx="21.9" cy="25.3" r="3.5"/>
					</g>
					<g>
						<circle fill="#1E4784" cx="21.9" cy="24.3" r="3.5"/>
					</g>
					<g>
						<path fill="#00233F" d="M21.9,20.8c1.9,0,3.5,1.6,3.5,3.5s-1.6,3.5-3.5,3.5"/>
					</g>
				</g>
			</g>
			<g>
				<circle fill="#F9A908" cx="58.4" cy="15.4" r="0.8"/>
			</g>
			<g>
				<path fill="#F9A908" d="M61.5,16c0,0.3-0.2,0.5-0.5,0.5c-0.3,0-0.5-0.2-0.5-0.5c0-0.3,0.2-0.5,0.5-0.5
					C61.2,15.5,61.5,15.7,61.5,16z"/>
			</g>
			<g>
				<circle fill="#F9A908" cx="6" cy="18.9" r="0.6"/>
			</g>
			<g>
				<g>
					<path fill="#F9C55D" d="M27.8,30.4c0,1.2-3.5,0.7-7.8,0.7c-4.3,0-7.8,0.6-7.8-0.7c0-1.2,3.5-2.2,7.8-2.2
						C24.3,28.2,27.8,29.2,27.8,30.4z"/>
				</g>
				<g>
					<path fill="#F9A908" d="M51.8,30.4c0,1.2-3.5,0.7-7.8,0.7s-7.8,0.6-7.8-0.7c0-1.2,3.5-2.2,7.8-2.2S51.8,29.2,51.8,30.4z"/>
				</g>
			</g>
			<g>
				<g>
					<path fill="#F7910B" d="M46.4,45.7c0,2.6-3.3,7.3-7.4,7.3c-4.1,0-7.4-4.7-7.4-7.3"/>
				</g>
			</g>
		</g>
		<g>
			<path fill="#02243E" d="M40.7,48.7c-0.4,0-0.8-0.2-1-0.6c-0.3-0.6,0-1.2,0.5-1.5c2.4-1.1,3.3-2.1,3.3-2.6c0-0.6-1-1.3-1.6-1.6
				c-0.4-0.2-0.6-0.5-0.6-0.9c0-0.4,0.1-0.8,0.4-1c0.9-0.7,1.2-1.3,1.1-1.5c-0.1-0.6-1.6-1.3-2.7-1.6c-0.6-0.1-1-0.7-0.8-1.3
				c0.1-0.6,0.7-1,1.3-0.8c0.6,0.1,3.8,1,4.3,3.2c0.2,0.9-0.1,1.8-0.8,2.7c0.8,0.6,1.6,1.5,1.6,2.7c0,1.7-1.5,3.2-4.5,4.6
				C41,48.7,40.9,48.7,40.7,48.7z"/>
		</g>
	</g>
	<g>
		<g>
			<polygon fill="#6965A8" points="27.3,39.6 21.2,40.9 21.2,39.3 27.3,38 			"/>
		</g>
		<g>
			<polygon fill="#4C4C8C" points="21.3,39.7 21.3,50.1 22.7,50.1 22.7,39.4 			"/>
		</g>
		<g>
			<polygon fill="#6965A8" points="19.6,53.1 17.5,51 21.4,47.1 22.7,50 			"/>
		</g>
	</g>
	<g>
		<g>
			<polygon fill="#6965A8" points="31.8,44.6 25.7,45.9 25.7,44.3 31.8,43 			"/>
		</g>
		<g>
			<polygon fill="#4C4C8C" points="25.8,44.7 25.8,55.1 27.2,55.1 27.2,44.4 			"/>
		</g>
		<g>
			<polygon fill="#6965A8" points="24.1,58.1 22,56 25.9,52.1 27.2,55 			"/>
		</g>
	</g>
	<g>
		<g>
			<polygon fill="#6965A8" points="62,43 53.8,44.8 53.8,42.5 62,40.8 			"/>
		</g>
		<g>
			<polygon fill="#4C4C8C" points="53.8,43.1 53.8,57.2 55.8,57.2 55.8,42.7 			"/>
		</g>
		<g>
			<polygon fill="#6965A8" points="51.6,61.4 48.7,58.5 54,53.2 55.8,57.2 			"/>
		</g>
	</g>
</g>
</svg>
