<?xml version="1.0" encoding="utf-8"?>
<!-- Generator: Adobe Illustrator 16.0.0, SVG Export Plug-In . SVG Version: 6.00 Build 0)  -->
<!DOCTYPE svg PUBLIC "-//W3C//DTD SVG 1.1//EN" "http://www.w3.org/Graphics/SVG/1.1/DTD/svg11.dtd">
<svg version="1.1" id="Layer_1" xmlns="http://www.w3.org/2000/svg" xmlns:xlink="http://www.w3.org/1999/xlink" x="0px" y="0px"
	 width="64px" height="64px" viewBox="0 0 64 64" enable-background="new 0 0 64 64" xml:space="preserve">
<g>
	<g>
		<g>
			<g>
				<path fill="#EA7103" d="M21.7,49.4c1.2,4.3-1.4,8.8-5.8,10c-4.4,1.3-9-1.2-10.2-5.5c-1.2-4.3,1.4-8.8,5.8-10
					C15.9,42.7,20.5,45.1,21.7,49.4z"/>
			</g>
			<g>
				<path fill="#EA7103" d="M62.7,20.7c1.2,4.3-1.4,8.8-5.8,10c-4.4,1.3-9-1.2-10.2-5.5c-1.2-4.3,1.4-8.8,5.8-10
					C56.9,13.9,61.5,16.4,62.7,20.7z"/>
			</g>
			<g>
				<g>
					<g>
						<path fill="#F7910B" d="M61.7,36.9c0,12.3-11.3,22.2-28.7,22.2c-17.4,0-28.7-10-28.7-22.2S15.5,6.1,32.9,6.1
							C50.4,6.1,61.7,24.6,61.7,36.9z"/>
					</g>
					<g>
						<path fill="#F7910B" d="M61.7,36.9c0,12.3-11.3,18.5-28.7,18.5c-17.4,0-28.7-6.2-28.7-18.5S15.5,4.3,32.9,4.3
							C50.4,4.3,61.7,24.6,61.7,36.9z"/>
					</g>
					<g>
						<path fill="#F9A908" d="M32.9,4.3c17.4,0,28.7,20.4,28.7,32.7S50.4,55.4,32.9,55.4"/>
					</g>
					<g>
						<path fill="#F9A908" d="M61.7,36.9c0,12.3-11.3,18.5-28.7,18.5c-17.4,0-28.7-6.2-28.7-18.5S15.5,6.1,32.9,6.1
							C50.4,6.1,61.7,24.6,61.7,36.9z"/>
					</g>
					<g>
						<path fill="#F9C55D" d="M4.2,36.9c0-12.3,11.3-30.8,28.7-30.8"/>
					</g>
					<g>
						<path fill="#F7910B" d="M32.9,6.1c17.4,0,28.7,18.5,28.7,30.8S50.4,59.2,32.9,59.2"/>
					</g>
					<g>
						<path fill="#EA7103" d="M32.9,6.1c17.4,0,28.7,18.5,28.7,30.8"/>
					</g>
					<g>
						<g>
							<circle fill="#EA7103" cx="23.1" cy="25.7" r="3"/>
						</g>
						<g>
							<path fill="#EA7103" d="M45.8,25.7c0,1.7-1.4,3-3,3c-1.7,0-3-1.3-3-3c0-1.7,1.3-3,3-3C44.4,22.7,45.8,24.1,45.8,25.7z"/>
						</g>
						<g>
							<circle fill="#1E4784" cx="23.1" cy="24.9" r="3"/>
						</g>
						<g>
							<path fill="#00233F" d="M23.1,21.8c1.7,0,3,1.4,3,3s-1.3,3-3,3"/>
						</g>
						<g>
							<path fill="#1E4784" d="M45.8,24.9c0,1.7-1.4,3-3,3c-1.7,0-3-1.3-3-3s1.3-3,3-3C44.4,21.8,45.8,23.2,45.8,24.9z"/>
						</g>
						<g>
							<path fill="#00233F" d="M42.8,21.8c1.7,0,3,1.4,3,3s-1.4,3-3,3"/>
						</g>
					</g>
					<g>
						<g>
							<g>
								<g>
									<g>
										<g>
											<path fill="#19BCA4" d="M26.7,14.9c0.7,1.3-0.7,1.2-2.1,1.9c-1.3,0.7-2.1,1.9-2.8,0.6c-0.7-1.3-0.2-3,1.2-3.7
												C24.3,13,26,13.6,26.7,14.9z"/>
										</g>
									</g>
								</g>
							</g>
							<g>
								<g>
									<g>
										<g>
											<path fill="#19BCA4" d="M39.3,15.5c0.4,0.7,1.4-0.3,2.9-1.1c1.5-0.8,2.9-1.1,2.5-1.8c-0.4-0.7-1.9-0.7-3.4,0.1
												C39.8,13.6,38.9,14.8,39.3,15.5z"/>
										</g>
									</g>
								</g>
							</g>
						</g>
						<g>
							<g>
								<g>
									<g>
										<g>
											<path fill="#109DA0" d="M26.7,14.9c0.7,1.3-0.7,1.2-2.1,1.9c-1.3,0.7-2.1,1.9-2.8,0.6"/>
										</g>
									</g>
								</g>
							</g>
							<g>
								<g>
									<g>
										<g>
											<path fill="#109DA0" d="M39.3,15.5c0.4,0.7,1.4-0.3,2.9-1.1c1.5-0.8,2.9-1.1,2.5-1.8"/>
										</g>
									</g>
								</g>
							</g>
						</g>
					</g>
					<g>
						<g>
							<path fill="#F9C55D" d="M29,30.6c0,1.2-3.3,0.6-7.4,0.6c-4.1,0-7.4,0.5-7.4-0.6c0-1.2,3.3-2.1,7.4-2.1
								C25.7,28.5,29,29.4,29,30.6z"/>
						</g>
						<g>
							<path fill="#F9A908" d="M51.7,30.6c0,1.2-3.3,0.6-7.4,0.6c-4.1,0-7.4,0.5-7.4-0.6c0-1.2,3.3-2.1,7.4-2.1
								C48.4,28.5,51.7,29.4,51.7,30.6z"/>
						</g>
					</g>
					<g>
						<circle fill="#F7910B" cx="12.4" cy="34" r="0.6"/>
					</g>
					<g>
						<circle fill="#F7910B" cx="8.2" cy="35.9" r="1.1"/>
					</g>
					<g>
						<circle fill="#F7910B" cx="11" cy="32.1" r="0.2"/>
					</g>
					<g>
						<circle fill="#F7910B" cx="15.3" cy="33.9" r="0.2"/>
					</g>
					<g>
						<circle fill="#F9A908" cx="52.4" cy="34.4" r="0.7"/>
					</g>
					<g>
						<circle fill="#F9A908" cx="54.8" cy="35.7" r="0.2"/>
					</g>
					<g>
						<circle fill="#F9A908" cx="49.8" cy="27.4" r="0.3"/>
					</g>
					<g>
						<circle fill="#F9A908" cx="49.3" cy="38.4" r="1.2"/>
					</g>
					<g>
						<circle fill="#F9A908" cx="56.1" cy="38.4" r="0.6"/>
					</g>
					<g>
						<circle fill="#F7910B" cx="11.5" cy="37.9" r="0.5"/>
					</g>
					<g>
						<circle fill="#F7910B" cx="12.2" cy="29.9" r="0.4"/>
					</g>
					<g>
						<circle fill="#F9A908" cx="7.2" cy="16.9" r="1.1"/>
					</g>
					<g>
						<path fill="#F9A908" d="M10.8,13.5c0,0.3-0.2,0.5-0.5,0.5c-0.3,0-0.5-0.2-0.5-0.5S10,13,10.2,13C10.5,13,10.8,13.2,10.8,13.5z
							"/>
					</g>
					<g>
						<circle fill="#F9A908" cx="58.7" cy="19.1" r="0.2"/>
					</g>
					<g>
						<circle fill="#F9A908" cx="57.9" cy="16.3" r="0.8"/>
					</g>
					<g>
						<path fill="#F9A908" d="M60.8,16.9c0,0.3-0.2,0.5-0.5,0.5c-0.3,0-0.5-0.2-0.5-0.5s0.2-0.5,0.5-0.5
							C60.6,16.4,60.8,16.6,60.8,16.9z"/>
					</g>
					<g>
						<circle fill="#F9A908" cx="8.4" cy="19.7" r="0.5"/>
					</g>
				</g>
			</g>
		</g>
		<g>
			<g>
				<path fill="#F7910B" d="M39.9,35.2c0,2.5-3.1,4.4-7,4.4c-3.9,0-7-2-7-4.4"/>
			</g>
			<g>
				<path fill="#02243E" d="M36,36h-6c-0.6,0-1-0.4-1-1s0.4-1,1-1h6c0.6,0,1,0.4,1,1S36.6,36,36,36z"/>
			</g>
		</g>
	</g>
	<g>
		<g>
			<g>
				<path fill="#CCF2E3" d="M45.1,35c1.3,1.8,6.1,0.5,10.7-2.9c4.6-3.4,5.6-7.9,4.3-9.7c-1.3-1.8-4.6-0.2-9.1,3.2
					C46.4,29,43.8,33.2,45.1,35z"/>
			</g>
			<g>
				<path fill="#CCF2E3" d="M42.5,18.4c6.8,0,5,1.6,4.9,3.5c-0.1,1.9,1.6,3.5-5.2,3.5c-6.8,0-9.4-1.6-9.3-3.5
					C33,19.9,35.7,18.4,42.5,18.4z"/>
			</g>
			<g>
				<path fill="#AAD6C3" d="M32.9,21.8c0.1-1.9,2.8-3.5,9.6-3.5c6.8,0,5,1.6,4.9,3.5"/>
			</g>
			<g>
				<path fill="#CCF2E3" d="M43.7,25.4c6.8,0,5,1.6,4.9,3.5c-0.1,1.9,2.5,3.6-4.2,3.5c-6.8,0-10.3-1.6-10.3-3.6
					C34.2,26.9,37,25.3,43.7,25.4z"/>
			</g>
			<g>
				<path fill="#AAD6C3" d="M34.2,28.8c0.1-1.9,2.8-3.5,9.6-3.5c6.8,0,5,1.6,4.9,3.5"/>
			</g>
			<g>
				<path fill="#CCF2E3" d="M45.5,11.5c6.8,0,5,1.6,4.9,3.5c-0.1,1.9,1.6,3.5-5.2,3.5c-6.8,0-9.4-1.6-9.3-3.5
					C36,13,38.8,11.5,45.5,11.5z"/>
			</g>
			<g>
				<path fill="#AAD6C3" d="M35.9,14.9c0.1-1.9,2.8-3.5,9.6-3.5c6.8,0,5,1.6,4.9,3.5"/>
			</g>
			<g>
				<path fill="#CCF2E3" d="M50,11.5c6.3,0,11.4,3.2,11.1,9.5c-0.2,6.2-5.5,11.3-11.8,11.3c-6.2,0-8.3-5.1-8.1-11.3
					C41.5,14.7,43.7,11.5,50,11.5z"/>
			</g>
			<g>
				<path fill="#AAD6C3" d="M50,11.5c6.2,0,11.4,3.2,11.1,9.5c-0.2,6.2-5.9,8.1-12.1,8.1c-6.2,0-7.6,1.9-7.8-7.8
					C41.1,15,43.5,11.5,50,11.5z"/>
			</g>
		</g>
		<g>
			<path fill="#E7F7EF" d="M35,23.7c0.9,0.4,1.6,0.5,1.8,0.2c0.1-0.3-0.4-0.8-1.3-1.2c-0.8-0.4-1.6-0.5-1.8-0.2
				C33.5,22.8,34.1,23.3,35,23.7z"/>
		</g>
		<g>
			<path fill="#E7F7EF" d="M36.7,30.8c0.8,0.4,1.6,0.5,1.8,0.2c0.1-0.3-0.4-0.8-1.3-1.2c-0.8-0.4-1.6-0.5-1.8-0.2
				C35.2,29.9,35.8,30.4,36.7,30.8z"/>
		</g>
		<g>
			<path fill="#E7F7EF" d="M38.2,16.7c0.9,0.4,1.6,0.5,1.8,0.2c0.1-0.3-0.4-0.8-1.3-1.2c-0.9-0.4-1.6-0.5-1.8-0.2
				C36.7,15.7,37.3,16.3,38.2,16.7z"/>
		</g>
		<g>
			<path fill="#E7F7EF" d="M47.9,29.9c2.1,0,3.7,0.3,3.7,0.8c0,0.5-1.7,0.8-3.7,0.9c-2.1,0-2.5-0.3-2.5-0.8
				C45.3,30.4,45.8,30,47.9,29.9z"/>
		</g>
		<g>
			<path fill="#E7F7EF" d="M48.4,33.1c2-0.4,3.7-0.4,3.8,0c0.1,0.4-1.5,1.2-3.5,1.6c-2,0.4-2.6,0.2-2.6-0.3
				C45.9,34,46.3,33.5,48.4,33.1z"/>
		</g>
	</g>
	<g>
		<g>
			<g>
				<path fill="#CCF2E3" d="M15.4,37.9c0.9,7.1-1,5.5-3,5.8C10.4,44,9,46,8,38.9c-0.9-7.1,0.3-10.1,2.4-10.4
					C12.4,28.2,14.5,30.8,15.4,37.9z"/>
			</g>
			<g>
				<path fill="#AAD6C3" d="M10.4,28.5c2-0.3,4.1,2.3,5,9.4c0.9,7.1-1,5.5-3,5.8"/>
			</g>
			<g>
				<path fill="#CCF2E3" d="M8.6,43.2c0.9,7.1-1,5.5-3,5.8c-2,0.3-3.4,3.3-4.3-3.8c-0.9-7.1,0.3-11.1,2.3-11.4
					C5.7,33.5,7.7,36.1,8.6,43.2z"/>
			</g>
			<g>
				<path fill="#AAD6C3" d="M3.6,33.8c2-0.3,4.1,2.3,5,9.4s-1,5.5-3,5.8"/>
			</g>
			<g>
				<path fill="#CCF2E3" d="M23.1,39.9c0.9,7.1-0.9,5.5-3,5.8c-2,0.3-3.5,2.3-4.4-4.8c-0.9-7.1,0.3-10.1,2.4-10.4
					C20.2,30.2,22.2,32.8,23.1,39.9z"/>
			</g>
			<g>
				<path fill="#AAD6C3" d="M18.1,30.4c2-0.3,4.1,2.3,5,9.4c0.9,7.1-0.9,5.5-3,5.8"/>
			</g>
			<g>
				<path fill="#CCF2E3" d="M23.8,44.6c0.9,6.6-1.8,12.5-8.5,13.4C8.7,58.9,2.6,54.3,1.7,47.7C0.9,41.1,5.9,38,12.6,37.1
					C19.2,36.3,22.9,38,23.8,44.6z"/>
			</g>
			<g>
				<path fill="#AAD6C3" d="M23.8,44.6c0.9,6.6-1.8,12.5-8.5,13.4C8.7,58.9,5.9,53.3,5,46.7c-0.9-6.6-3.1-7.6,7.2-9.6
					C18.8,35.9,22.9,37.8,23.8,44.6z"/>
			</g>
			<g>
				<path fill="#CCF2E3" d="M27.9,43c1.8,1.7-0.2,6.5-4.3,10.8c-4.1,4.3-9,4.7-10.8,3c-1.8-1.7,0.3-4.8,4.5-9.1
					C21.4,43.4,26.1,41.3,27.9,43z"/>
			</g>
			<g>
				<path fill="#AAD6C3" d="M27.9,43c1.8,1.7-0.2,6.5-4.3,10.8c-4.1,4.3-9,4.7-10.8,3"/>
			</g>
		</g>
		<g>
			<path fill="#CCF2E3" d="M19.3,40.3c0.1,0.2,0,0.5-0.2,0.6L7.8,45.7c-0.2,0.1-0.5,0-0.6-0.2l0,0c-0.1-0.2,0-0.5,0.2-0.6l11.2-4.8
				C18.9,40,19.2,40.1,19.3,40.3L19.3,40.3z"/>
		</g>
		<g>
			<path fill="#CCF2E3" d="M19.4,42.9c0.1,0.2,0,0.5-0.2,0.6L8,48.3c-0.2,0.1-0.5,0-0.6-0.2l0,0c-0.1-0.2,0-0.5,0.2-0.6l11.2-4.8
				C19.1,42.6,19.3,42.7,19.4,42.9L19.4,42.9z"/>
		</g>
		<g>
			<path fill="#E7F7EF" d="M8.7,31c-0.3,1-0.3,1.8,0,1.9C9,33,9.5,32.3,9.8,31.4c0.3-1,0.3-1.8,0-1.9C9.5,29.4,9,30.1,8.7,31z"/>
		</g>
		<g>
			<path fill="#E7F7EF" d="M1.9,36.8c-0.3,1-0.3,1.8,0,1.9c0.3,0.1,0.8-0.6,1.1-1.6c0.3-1,0.3-1.8,0-1.9C2.6,35.1,2.2,35.8,1.9,36.8
				z"/>
		</g>
		<g>
			<path fill="#E7F7EF" d="M16.6,33.1c-0.3,1-0.3,1.8,0,1.9c0.3,0.1,0.8-0.6,1.1-1.6c0.3-1,0.3-1.8,0-1.9
				C17.4,31.4,16.9,32.1,16.6,33.1z"/>
		</g>
		<g>
			<path fill="#E7F7EF" d="M3.9,45.7c0.3,2.1,0.2,3.9-0.3,4c-0.5,0.1-1.1-1.6-1.5-3.8c-0.3-2.2,0-2.7,0.5-2.8
				C3.1,43.1,3.6,43.5,3.9,45.7z"/>
		</g>
		<g>
			<path fill="#E7F7EF" d="M21.7,44.9c1.5-1.1,2.9-1.7,3.2-1.3c0.3,0.4-0.6,1.6-2.1,2.7c-1.5,1.1-2,1.1-2.3,0.7
				C20.1,46.6,20.2,46,21.7,44.9z"/>
		</g>
	</g>
</g>
</svg>
