<?xml version="1.0" encoding="utf-8"?>
<!-- Generator: Adobe Illustrator 16.0.0, SVG Export Plug-In . SVG Version: 6.00 Build 0)  -->
<!DOCTYPE svg PUBLIC "-//W3C//DTD SVG 1.1//EN" "http://www.w3.org/Graphics/SVG/1.1/DTD/svg11.dtd">
<svg version="1.1" id="Layer_1" xmlns="http://www.w3.org/2000/svg" xmlns:xlink="http://www.w3.org/1999/xlink" x="0px" y="0px"
	 width="64px" height="64px" viewBox="0 0 64 64" enable-background="new 0 0 64 64" xml:space="preserve">
<g>
	<g>
		
			<rect x="2.4" y="11.7" transform="matrix(-0.7067 0.7075 -0.7075 -0.7067 15.5346 19.6114)" fill="#D80303" width="2.6" height="2.6"/>
	</g>
	<g>
		
			<rect x="7.4" y="10.4" transform="matrix(-0.7071 0.7071 -0.7071 -0.7071 21.9487 13.2933)" fill="#D80303" width="1.6" height="1.6"/>
	</g>
	<g>
		<g>
			<g>
				<g>
					<g>
						<path fill="#F7910B" d="M62.3,37.5C62.3,50.5,50.4,61,32,61C13.6,61,1.7,50.5,1.7,37.5S13.6,5,32,5
							C50.4,5,62.3,24.5,62.3,37.5z"/>
					</g>
					<g>
						<path fill="#F7910B" d="M62.3,37.5C62.3,50.5,50.4,57,32,57C13.6,57,1.7,50.5,1.7,37.5S13.6,3,32,3
							C50.4,3,62.3,24.5,62.3,37.5z"/>
					</g>
					<g>
						<path fill="#F9A908" d="M32,3c18.4,0,30.3,21.5,30.3,34.5S50.4,57,32,57"/>
					</g>
					<g>
						<path fill="#F9A908" d="M62.3,37.5C62.3,50.5,50.4,57,32,57C13.6,57,1.7,50.5,1.7,37.5S13.6,5,32,5
							C50.4,5,62.3,24.5,62.3,37.5z"/>
					</g>
					<g>
						<path fill="#F9C55D" d="M1.7,37.5C1.7,24.5,13.6,5,32,5"/>
					</g>
					<g>
						<path fill="#F7910B" d="M32,5c18.4,0,30.3,19.5,30.3,32.5S50.4,61,32,61"/>
					</g>
					<g>
						<path fill="#EA7103" d="M32,5c18.4,0,30.3,19.5,30.3,32.5"/>
					</g>
					<g>
						<circle fill="#F7910B" cx="10.3" cy="34.5" r="0.6"/>
					</g>
					<g>
						<circle fill="#F7910B" cx="5.8" cy="36.5" r="1.1"/>
					</g>
					<g>
						<circle fill="#F7910B" cx="8.8" cy="32.5" r="0.2"/>
					</g>
					<g>
						<circle fill="#F7910B" cx="13.4" cy="34.3" r="0.2"/>
					</g>
					<g>
						<circle fill="#F9A908" cx="52.6" cy="34.8" r="0.8"/>
					</g>
					<g>
						<circle fill="#F9A908" cx="55.1" cy="36.2" r="0.2"/>
					</g>
					<g>
						<circle fill="#F9A908" cx="49.8" cy="27.4" r="0.3"/>
					</g>
					<g>
						<circle fill="#F9A908" cx="49.3" cy="39" r="1.3"/>
					</g>
					<g>
						<circle fill="#F9A908" cx="56.5" cy="39.1" r="0.6"/>
					</g>
					<g>
						<circle fill="#F7910B" cx="9.3" cy="38.5" r="0.5"/>
					</g>
					<g>
						<circle fill="#F7910B" cx="10.1" cy="30.1" r="0.4"/>
					</g>
					<g>
						<circle fill="#F9A908" cx="4.8" cy="16.3" r="1.1"/>
					</g>
					<g>
						<circle fill="#F9A908" cx="8" cy="12.8" r="0.6"/>
					</g>
					<g>
						<circle fill="#F9A908" cx="59.2" cy="18.7" r="0.2"/>
					</g>
					<g>
						<circle fill="#F9A908" cx="58.4" cy="15.8" r="0.8"/>
					</g>
					<g>
						<circle fill="#F9A908" cx="61" cy="16.3" r="0.5"/>
					</g>
					<g>
						<circle fill="#F9A908" cx="6" cy="19.3" r="0.6"/>
					</g>
					<g>
						<g>
							<g>
								<g>
									<g>
										<g>
											<g>
												<path fill="#5E0404" d="M27.6,24c-1,1.7-2.6-0.4-5.3-1.9c-2.6-1.5-5.3-1.9-4.3-3.6c1-1.7,3.9-1.8,6.5-0.3
													C27.2,19.8,28.5,22.3,27.6,24z"/>
											</g>
										</g>
									</g>
								</g>
							</g>
							<g>
								<g>
									<g>
										<g>
											<g>
												<path fill="#5E0404" d="M36.4,19.3c1,1.7,2.6-0.4,5.3-1.9c2.6-1.5,5.3-1.9,4.3-3.6s-3.9-1.8-6.5-0.3
													C36.8,15.1,35.5,17.7,36.4,19.3z"/>
											</g>
										</g>
									</g>
								</g>
							</g>
						</g>
					</g>
				</g>
			</g>
			<g>
				<g>
					<path fill="#F7910B" d="M24.6,44.2c0-2.6,3.3-4.7,7.4-4.7c4.1,0,7.4,2.1,7.4,4.7"/>
				</g>
				<g>
					<g>
						<g>
							<path fill="#02243E" d="M44.4,43c-0.6,0-1.1-0.5-1.1-1.1c0-2.1,1.7-3.8,3.8-3.8c0.6,0,1.1,0.5,1.1,1.1s-0.5,1.1-1.1,1.1
								c-0.9,0-1.6,0.7-1.6,1.6C45.5,42.5,45,43,44.4,43z"/>
						</g>
						<g>
							<path fill="#02243E" d="M19.6,43c-0.6,0-1.1-0.5-1.1-1.1c0-0.9-0.7-1.6-1.6-1.6c-0.6,0-1.1-0.5-1.1-1.1s0.5-1.1,1.1-1.1
								c2.1,0,3.8,1.7,3.8,3.8C20.7,42.5,20.2,43,19.6,43z"/>
						</g>
					</g>
					<g>
						<path fill="#02243E" d="M45.2,40.8c-0.3,0-0.6-0.1-0.8-0.3c-3.3-3.3-7.7-5.1-12.4-5.1s-9.1,1.8-12.4,5.1
							c-0.4,0.4-1.1,0.4-1.6,0s-0.4-1.1,0-1.6c7.7-7.7,20.2-7.7,27.9,0c0.4,0.4,0.4,1.1,0,1.6C45.7,40.7,45.4,40.8,45.2,40.8z"/>
					</g>
				</g>
			</g>
			<g>
				<g>
					<circle fill="#D87703" cx="20.6" cy="26.8" r="3.5"/>
				</g>
				<g>
					<circle fill="#D87703" cx="43.4" cy="26.8" r="3.5"/>
				</g>
				<g>
					<circle fill="#1E4784" cx="20.6" cy="25.8" r="3.5"/>
				</g>
				<g>
					<path fill="#00233F" d="M20.6,22.3c1.9,0,3.5,1.6,3.5,3.5s-1.6,3.5-3.5,3.5"/>
				</g>
				<g>
					<circle fill="#1E4784" cx="43.4" cy="25.8" r="3.5"/>
				</g>
				<g>
					<path fill="#00233F" d="M43.4,22.3c1.9,0,3.5,1.6,3.5,3.5s-1.6,3.5-3.5,3.5"/>
				</g>
			</g>
			<g>
				<g>
					<path fill="#F9C55D" d="M27.8,30.8c0,1.2-3.5,0.7-7.8,0.7c-4.3,0-7.8,0.6-7.8-0.7c0-1.2,3.5-2.2,7.8-2.2
						C24.3,28.6,27.8,29.6,27.8,30.8z"/>
				</g>
				<g>
					<path fill="#F9A908" d="M51.8,30.8c0,1.2-3.5,0.7-7.8,0.7s-7.8,0.6-7.8-0.7c0-1.2,3.5-2.2,7.8-2.2S51.8,29.6,51.8,30.8z"/>
				</g>
			</g>
		</g>
		<g>
			<g>
				<rect x="0.5" y="31" fill="#1E4784" width="63" height="26.3"/>
			</g>
			<g>
				<rect x="0.5" y="34" fill="#00233F" width="63" height="23.3"/>
			</g>
			<g>
				<g>
					<path fill="#FFFFFF" d="M6.8,51.2l0.5-3.3H5.7v-1.7h1.8l0.3-2.1H6.3v-1.7h1.8l0.5-3.2h1.7l-0.5,3.2h1.7l0.5-3.2h1.7l-0.5,3.2
						h1.5v1.7h-1.7l-0.3,2.1h1.5v1.7h-1.8l-0.5,3.3h-1.7l0.5-3.3H8.9l-0.5,3.3H6.8z M10.9,46.1l0.3-2.1H9.5l-0.3,2.1H10.9z"/>
				</g>
				<g>
					<path fill="#F9C55D" d="M23.7,36.8l-2.5,2.9l0,0.1l3.6-0.7v2.3l-3.6-0.6l0,0.1l2.5,2.8l-2,1.2l-1.3-3.5l0,0L19,44.7l-2-1.2
						l2.4-2.8v0l-3.6,0.7V39l3.5,0.7l0,0l-2.4-2.9l2-1.2l1.3,3.5h0l1.3-3.5L23.7,36.8z"/>
				</g>
				<g>
					<path fill="#FFFFFF" d="M26.4,49.7c0-1,0.7-1.7,1.7-1.7c1,0,1.6,0.7,1.7,1.7c0,1-0.7,1.7-1.7,1.7
						C27.1,51.4,26.4,50.7,26.4,49.7z M27,47.1l-0.4-8.4h3l-0.4,8.4H27z"/>
				</g>
				<g>
					<path fill="#FFFFFF" d="M33.1,47.1l0-0.5c-0.1-1,0.3-1.9,1.1-2.9c0.6-0.7,1.1-1.3,1.1-1.9c0-0.6-0.4-1.1-1.4-1.1
						c-0.6,0-1.4,0.2-1.8,0.6l-0.6-2c0.7-0.4,1.8-0.8,3.1-0.8c2.5,0,3.6,1.4,3.6,2.9c0,1.4-0.9,2.3-1.6,3.1c-0.7,0.8-1,1.5-0.9,2.3
						v0.3H33.1z M32.6,49.7c0-1,0.7-1.7,1.7-1.7c1,0,1.7,0.7,1.7,1.7c0,1-0.7,1.7-1.7,1.7C33.3,51.4,32.6,50.7,32.6,49.7z"/>
				</g>
				<g>
					<path fill="#FFFFFF" d="M43,52.8V51c-1.2-0.1-2.5-0.4-3.2-0.8l0.6-2.2c0.8,0.4,1.9,0.8,3.1,0.8c1.1,0,1.8-0.4,1.8-1.2
						c0-0.7-0.6-1.2-2-1.6c-2-0.7-3.3-1.6-3.3-3.4c0-1.6,1.2-2.9,3.1-3.3v-1.8h1.8v1.6c1.2,0.1,2.1,0.3,2.7,0.6L47.1,42
						c-0.5-0.2-1.3-0.6-2.7-0.6c-1.2,0-1.6,0.5-1.6,1c0,0.6,0.7,1,2.2,1.6c2.2,0.8,3.1,1.8,3.1,3.5c0,1.7-1.2,3.1-3.3,3.4v1.9H43z"
						/>
				</g>
				<g>
					<path fill="#ED1841" d="M50,49.7c0-1,0.7-1.7,1.7-1.7c1,0,1.6,0.7,1.7,1.7c0,1-0.7,1.7-1.7,1.7C50.6,51.4,50,50.7,50,49.7z
						 M50.6,47.1l-0.4-8.4h3l-0.4,8.4H50.6z"/>
				</g>
				<g>
					<path fill="#FFFFFF" d="M54.9,49.7c0-1,0.7-1.7,1.7-1.7c1,0,1.6,0.7,1.7,1.7c0,1-0.7,1.7-1.7,1.7
						C55.6,51.4,54.9,50.7,54.9,49.7z M55.6,47.1l-0.4-8.4h3l-0.4,8.4H55.6z"/>
				</g>
			</g>
		</g>
		<g>
			
				<rect x="46.4" y="5.2" transform="matrix(0.707 -0.7072 0.7072 0.707 8.7478 37.2835)" fill="#ED1841" width="5.9" height="5.9"/>
		</g>
		<g>
			<polygon fill="#FC4278" points="58.3,12.9 57.4,12 58.3,11.1 59.2,12 			"/>
		</g>
		<g>
			
				<rect x="56.4" y="5.2" transform="matrix(-0.7078 0.7064 -0.7064 -0.7078 102.5109 -29.8977)" fill="#D80303" width="2" height="2"/>
		</g>
		<g>
			
				<rect x="7.6" y="14.9" transform="matrix(-0.7068 0.7074 -0.7074 -0.7068 32.0696 23.5899)" fill="#D80303" width="7.1" height="7.1"/>
		</g>
		<g>
			
				<rect x="54" y="17.8" transform="matrix(0.7069 -0.7074 0.7074 0.7069 2.4269 45.3093)" fill="#ED1841" width="3.8" height="3.9"/>
		</g>
	</g>
</g>
</svg>
