<?xml version="1.0" encoding="utf-8"?>
<!-- Generator: Adobe Illustrator 16.0.0, SVG Export Plug-In . SVG Version: 6.00 Build 0)  -->
<!DOCTYPE svg PUBLIC "-//W3C//DTD SVG 1.1//EN" "http://www.w3.org/Graphics/SVG/1.1/DTD/svg11.dtd">
<svg version="1.1" id="Layer_1" xmlns="http://www.w3.org/2000/svg" xmlns:xlink="http://www.w3.org/1999/xlink" x="0px" y="0px"
	 width="64px" height="64px" viewBox="0 0 64 64" enable-background="new 0 0 64 64" xml:space="preserve">
<g>
	<path fill="#FFAA22" d="M5.3,49.4c0-14.7,11.9-26.7,26.7-26.7c14.7,0,26.7,11.9,26.7,26.7"/>
	<g>
		<rect x="4" y="46" fill="#D6E9EA" width="56" height="17"/>
		<rect x="20" y="25" fill="#F3FEFF" width="24" height="38"/>
		<rect x="20" y="25" fill="#D6E9EA" width="24" height="6"/>
		<path fill="#FFAA22" d="M28,63v-8.5c0-2.5,1.5-4.4,4-4.4l0,0c2.5,0,4,2,4,4.4V63"/>
		<path fill="#E58B0A" d="M28,54.5c0-2.5,1.5-4.4,4-4.4l0,0c2.5,0,4,2,4,4.4V63"/>
		<g>
			<circle fill="#0DCEBB" cx="32" cy="38.5" r="5"/>
			<path fill="#16B29F" d="M28.5,34.9c1.9-1.9,5.1-1.9,7,0c1.9,1.9,1.9,5.1,0,7"/>
			<rect x="31" y="31" fill="#F3FEFF" width="2" height="15"/>
			<rect x="25" y="37.5" fill="#F3FEFF" width="14" height="2"/>
		</g>
		<g>
			<g>
				<circle fill="#0DCEBB" cx="11.9" cy="54.6" r="3.7"/>
				<path fill="#16B29F" d="M9.3,52c1.4-1.4,3.7-1.4,5.2,0c1.4,1.4,1.4,3.7,0,5.2"/>
				<rect x="11" y="49" fill="#D6E9EA" width="2" height="11"/>
				<rect x="6.5" y="53.5" fill="#D6E9EA" width="11" height="2"/>
			</g>
			<g>
				<circle fill="#0DCEBB" cx="52.1" cy="54.6" r="3.7"/>
				<path fill="#16B29F" d="M49.5,52c1.4-1.4,3.7-1.4,5.2,0c1.4,1.4,1.4,3.7,0,5.2"/>
				<rect x="51.1" y="49" fill="#D6E9EA" width="2" height="11"/>
				<rect x="47" y="53.6" fill="#D6E9EA" width="11" height="2"/>
			</g>
		</g>
		<polygon fill="#956CC4" points="46.6,26.1 32,25.6 17.4,26.1 32,11.5 		"/>
		<polyline fill="#8056A8" points="32,11.5 46.6,26.1 32,25.6 		"/>
		<g>
			<path fill="#FFAA22" d="M35,3h-1V1.6C34,1.1,33.9,1,33.4,1h-2.8C30.2,1,30,1.1,30,1.6V3h-1.5C28.1,3,28,3.2,28,3.7v1.8
				C28,6,28.3,6,28.7,6H30v3.4c0,0.5,0.2,0.6,0.7,0.6h2.8c0.5,0,0.5-0.1,0.5-0.6V6h1c0.4,0,1-0.6,1-1.1V3.4C36,2.9,35.4,3,35,3z"/>
			<path fill="#E58B0A" d="M34,6h1.5C35.8,6,36,6,36,5.5V3.6C36,3.1,35.9,3,35.5,3H34V1.6C34,1.1,33.9,1,33.4,1h-2.8
				C30.2,1,30,1.1,30,1.6V3L34,6z"/>
		</g>
		<circle fill="#D6E9EA" cx="34.5" cy="59.1" r="0.6"/>
	</g>
</g>
</svg>
