<?xml version="1.0" encoding="utf-8"?>
<!-- Generator: Adobe Illustrator 16.0.0, SVG Export Plug-In . SVG Version: 6.00 Build 0)  -->
<!DOCTYPE svg PUBLIC "-//W3C//DTD SVG 1.1//EN" "http://www.w3.org/Graphics/SVG/1.1/DTD/svg11.dtd">
<svg version="1.1" id="Layer_1" xmlns="http://www.w3.org/2000/svg" xmlns:xlink="http://www.w3.org/1999/xlink" x="0px" y="0px"
	 width="64px" height="64px" viewBox="0 0 64 64" enable-background="new 0 0 64 64" xml:space="preserve">
<g>
	<g>
		<g>
			<path fill="#109DA0" d="M62.3,37.5C62.3,50.5,50.4,61,32,61C13.6,61,1.7,50.5,1.7,37.5S13.6,5,32,5C50.4,5,62.3,24.5,62.3,37.5z"
				/>
		</g>
		<g>
			<path fill="#109DA0" d="M62.3,37.5C62.3,50.5,50.4,57,32,57C13.6,57,1.7,50.5,1.7,37.5S13.6,3,32,3C50.4,3,62.3,24.5,62.3,37.5z"
				/>
		</g>
		<g>
			<path fill="#19BCA4" d="M32,3c18.4,0,30.3,21.5,30.3,34.5S50.4,57,32,57"/>
		</g>
		<g>
			<path fill="#19BCA4" d="M62.3,37.5C62.3,50.5,50.4,57,32,57C13.6,57,1.7,50.5,1.7,37.5S13.6,5,32,5C50.4,5,62.3,24.5,62.3,37.5z"
				/>
		</g>
		<g>
			<path fill="#28DDBF" d="M1.7,37.5C1.7,24.5,13.6,5,32,5"/>
		</g>
		<g>
			<path fill="#109DA0" d="M32,5c18.4,0,30.3,19.5,30.3,32.5S50.4,61,32,61"/>
		</g>
		<g>
			<path fill="#0C838C" d="M32,5c18.4,0,30.3,19.5,30.3,32.5"/>
		</g>
		<g>
			<g>
				<g>
					<path fill="#28DDBF" d="M27.4,37.1c0,1.3-3.8,1.8-8.6,1.8c-4.7,0-8.6-0.5-8.6-1.8c0-1.3,3.8-2.4,8.6-2.4
						C23.6,34.7,27.4,35.8,27.4,37.1z"/>
				</g>
				<g>
					<path fill="#19BCA4" d="M53.8,37.1c0,1.3-3.8,1.8-8.6,1.8c-4.7,0-8.6-0.5-8.6-1.8c0-1.3,3.8-2.4,8.6-2.4
						C49.9,34.7,53.8,35.8,53.8,37.1z"/>
				</g>
			</g>
		</g>
		<g>
			<circle fill="#109DA0" cx="10.3" cy="34.5" r="0.6"/>
		</g>
		<g>
			<circle fill="#109DA0" cx="5.8" cy="36.5" r="1.1"/>
		</g>
		<g>
			<circle fill="#109DA0" cx="8.8" cy="32.5" r="0.2"/>
		</g>
		<g>
			<circle fill="#109DA0" cx="13.4" cy="34.3" r="0.2"/>
		</g>
		<g>
			<circle fill="#19BCA4" cx="52.6" cy="34.8" r="0.8"/>
		</g>
		<g>
			<circle fill="#19BCA4" cx="55.1" cy="36.2" r="0.2"/>
		</g>
		<g>
			<circle fill="#19BCA4" cx="56.5" cy="39.1" r="0.6"/>
		</g>
		<g>
			<circle fill="#19BCA4" cx="56.8" cy="32.5" r="0.6"/>
		</g>
		<g>
			<circle fill="#109DA0" cx="9.3" cy="38.5" r="0.5"/>
		</g>
		<g>
			<circle fill="#109DA0" cx="10.1" cy="30.1" r="0.4"/>
		</g>
		<g>
			<circle fill="#19BCA4" cx="4.8" cy="16.3" r="1.1"/>
		</g>
		<g>
			<circle fill="#19BCA4" cx="8" cy="12.8" r="0.6"/>
		</g>
		<g>
			<circle fill="#109DA0" cx="59.2" cy="18.7" r="0.2"/>
		</g>
		<g>
			<circle fill="#19BCA4" cx="58.4" cy="15.8" r="0.8"/>
		</g>
		<g>
			<path fill="#19BCA4" d="M61.5,16.3c0,0.3-0.2,0.5-0.5,0.5c-0.3,0-0.5-0.2-0.5-0.5c0-0.3,0.2-0.5,0.5-0.5
				C61.2,15.8,61.5,16.1,61.5,16.3z"/>
		</g>
		<g>
			<circle fill="#109DA0" cx="6" cy="19.3" r="0.6"/>
		</g>
		<g>
			<g>
				<path fill="#109DA0" d="M39.4,39.8c0,2.6-3.3,8.1-7.4,8.1c-4.1,0-7.4-5.5-7.4-8.1"/>
			</g>
		</g>
	</g>
	<g>
		<path fill="#02243E" d="M35,43h-6c-0.6,0-1-0.4-1-1s0.4-1,1-1h6c0.6,0,1,0.4,1,1S35.6,43,35,43z"/>
	</g>
	<g>
		<g>
			<g>
				<path fill="#109DA0" d="M27.4,34c-2.1,3-7.2,3.1-11.5,0.1c-4.3-2.9-6.1-7.8-4.1-10.8c2.1-3,7.2-3.1,11.6-0.1
					C27.6,26.1,29.4,31,27.4,34z"/>
			</g>
			<g>
				<path fill="#1E4784" d="M28.4,32.4c-2.1,3-7.2,3.1-11.6,0.1c-4.3-2.9-6.1-7.8-4.1-10.8c2.1-3,7.2-3.1,11.5-0.1
					C28.7,24.6,30.5,29.4,28.4,32.4z"/>
			</g>
			<g>
				<path fill="#00233F" d="M24.4,21.6c4.3,2.9,6.1,7.8,4.1,10.8c-2.1,3-7.2,3.1-11.6,0.1"/>
			</g>
		</g>
		<g>
			<g>
				<path fill="#19BCA4" d="M36.6,34c2.1,3,7.2,3.1,11.5,0.1c4.3-2.9,6.1-7.8,4.1-10.8c-2.1-3-7.2-3.1-11.6-0.1
					C36.4,26.1,34.6,31,36.6,34z"/>
			</g>
			<g>
				<path fill="#1E4784" d="M35.6,32.4c2.1,3,7.2,3.1,11.6,0.1c4.3-2.9,6.1-7.8,4.1-10.8c-2.1-3-7.2-3.1-11.6-0.1
					C35.3,24.6,33.5,29.4,35.6,32.4z"/>
			</g>
			<g>
				<path fill="#00233F" d="M39.6,21.6c-4.3,2.9-6.1,7.8-4.1,10.8c2.1,3,7.2,3.1,11.6,0.1"/>
			</g>
		</g>
	</g>
	<g>
		
			<rect x="29.2" y="13.1" transform="matrix(0.7072 0.707 -0.707 0.7072 20.5633 -17.9889)" fill="#28DDBF" width="5.5" height="5.5"/>
	</g>
	<g>
		<g>
			<circle fill="#28DDBF" cx="32" cy="45.4" r="0.9"/>
		</g>
		<g>
			<circle fill="#28DDBF" cx="32" cy="49.5" r="0.9"/>
		</g>
		<g>
			<circle fill="#28DDBF" cx="32" cy="53.5" r="0.9"/>
		</g>
	</g>
</g>
</svg>
