<?xml version="1.0" encoding="utf-8"?>
<!-- Generator: Adobe Illustrator 16.0.0, SVG Export Plug-In . SVG Version: 6.00 Build 0)  -->
<!DOCTYPE svg PUBLIC "-//W3C//DTD SVG 1.1//EN" "http://www.w3.org/Graphics/SVG/1.1/DTD/svg11.dtd">
<svg version="1.1" id="Layer_1" xmlns="http://www.w3.org/2000/svg" xmlns:xlink="http://www.w3.org/1999/xlink" x="0px" y="0px"
	 width="64px" height="64px" viewBox="0 0 64 64" enable-background="new 0 0 64 64" xml:space="preserve">
<g>
	<g>
		<g>
			<g>
				<g>
					<g>
						<g>
							<g>
								<path fill="#F7910B" d="M62,40.4c0,12.8-11.8,23.2-30,23.2c-18.2,0-30-10.4-30-23.2C2,27.6,13.8,8.3,32,8.3
									C50.2,8.3,62,27.6,62,40.4z"/>
							</g>
							<g>
								<path fill="#F7910B" d="M62,40.4c0,12.8-11.8,19.3-30,19.3c-18.2,0-30-6.4-30-19.3C2,27.6,13.8,6.3,32,6.3
									C50.2,6.3,62,27.6,62,40.4z"/>
							</g>
							<g>
								<path fill="#F9A908" d="M32,6.3c18.2,0,30,21.3,30,34.1c0,12.8-11.8,19.3-30,19.3"/>
							</g>
							<g>
								<path fill="#F9A908" d="M62,40.4c0,12.8-11.8,19.3-30,19.3c-18.2,0-30-6.4-30-19.3C2,27.6,13.8,8.3,32,8.3
									C50.2,8.3,62,27.6,62,40.4z"/>
							</g>
							<g>
								<path fill="#F9C55D" d="M2,40.4C2,27.6,13.8,8.3,32,8.3"/>
							</g>
							<g>
								<path fill="#F7910B" d="M32,8.3c18.2,0,30,19.3,30,32.1c0,12.8-11.8,23.2-30,23.2"/>
							</g>
							<g>
								<path fill="#EA7103" d="M32,8.3c18.2,0,30,19.3,30,32.1"/>
							</g>
							<g>
								<g>
									<circle fill="#EA7103" cx="21.7" cy="28.7" r="3.1"/>
								</g>
								<g>
									<circle fill="#EA7103" cx="42.3" cy="28.7" r="3.1"/>
								</g>
								<g>
									<circle fill="#1E4784" cx="21.7" cy="27.8" r="3.1"/>
								</g>
								<g>
									<path fill="#00233F" d="M21.7,24.7c1.7,0,3.1,1.4,3.1,3.1c0,1.7-1.4,3.1-3.1,3.1"/>
								</g>
								<g>
									<circle fill="#1E4784" cx="42.3" cy="27.8" r="3.1"/>
								</g>
								<g>
									<path fill="#00233F" d="M42.3,24.7c1.7,0,3.1,1.4,3.1,3.1c0,1.7-1.4,3.1-3.1,3.1"/>
								</g>
							</g>
							<g>
								<g>
									<g>
										<g>
											<g>
												<g>
													<path fill="#19BCA4" d="M27.3,24.8c-0.4,0.8-1.5-0.3-3.1-1c-1.6-0.8-3.1-1-2.7-1.8c0.4-0.8,2-0.8,3.6,0
														C26.7,22.7,27.7,24,27.3,24.8z"/>
												</g>
											</g>
										</g>
									</g>
									<g>
										<g>
											<g>
												<g>
													<path fill="#19BCA4" d="M37.2,23.3c0.5,0.7,1.4-0.4,2.9-1.4c1.5-1,2.9-1.4,2.5-2.1c-0.5-0.7-2.1-0.5-3.6,0.5
														C37.5,21.2,36.7,22.6,37.2,23.3z"/>
												</g>
											</g>
										</g>
									</g>
								</g>
								<g>
									<g>
										<g>
											<g>
												<g>
													<path fill="#109DA0" d="M27.3,24.8c-0.4,0.8-1.5-0.3-3.1-1c-1.6-0.8-3.1-1-2.7-1.8"/>
												</g>
											</g>
										</g>
									</g>
									<g>
										<g>
											<g>
												<g>
													<path fill="#109DA0" d="M37.2,23.3c0.5,0.7,1.4-0.4,2.9-1.4c1.5-1,2.9-1.4,2.5-2.1"/>
												</g>
											</g>
										</g>
									</g>
								</g>
							</g>
							<g>
								<g>
									<path fill="#F9C55D" d="M27.9,33.8c0,1.2-3.5,0.6-7.7,0.6c-4.3,0-7.7,0.6-7.7-0.6c0-1.2,3.5-2.2,7.7-2.2
										C24.4,31.6,27.9,32.6,27.9,33.8z"/>
								</g>
								<g>
									<path fill="#F9A908" d="M51.6,33.8c0,1.2-3.5,0.6-7.7,0.6c-4.3,0-7.7,0.6-7.7-0.6c0-1.2,3.5-2.2,7.7-2.2
										C48.1,31.6,51.6,32.6,51.6,33.8z"/>
								</g>
							</g>
							<g>
								<circle fill="#F7910B" cx="10.6" cy="37.4" r="0.6"/>
							</g>
							<g>
								<circle fill="#F7910B" cx="6.1" cy="39.4" r="1.1"/>
							</g>
							<g>
								<circle fill="#F7910B" cx="9.1" cy="35.4" r="0.2"/>
							</g>
							<g>
								<circle fill="#F7910B" cx="13.6" cy="37.2" r="0.2"/>
							</g>
							<g>
								<circle fill="#F9A908" cx="52.4" cy="37.8" r="0.7"/>
							</g>
							<g>
								<circle fill="#F9A908" cx="54.8" cy="39.1" r="0.2"/>
							</g>
							<g>
								<circle fill="#F9A908" cx="49.6" cy="30.4" r="0.3"/>
							</g>
							<g>
								<circle fill="#F9A908" cx="49.1" cy="41.9" r="1.3"/>
							</g>
							<g>
								<circle fill="#F9A908" cx="56.2" cy="42" r="0.6"/>
							</g>
							<g>
								<circle fill="#F7910B" cx="9.6" cy="41.4" r="0.5"/>
							</g>
							<g>
								<circle fill="#F7910B" cx="10.3" cy="33.1" r="0.4"/>
							</g>
							<g>
								<circle fill="#F9A908" cx="5.1" cy="19.5" r="1.1"/>
							</g>
							<g>
								<circle fill="#F9A908" cx="8.3" cy="15.9" r="0.6"/>
							</g>
							<g>
								<circle fill="#F9A908" cx="58.9" cy="21.8" r="0.2"/>
							</g>
							<g>
								<circle fill="#F9A908" cx="58.1" cy="18.9" r="0.8"/>
							</g>
							<g>
								<path fill="#F9A908" d="M61.1,19.5c0,0.3-0.2,0.5-0.5,0.5c-0.3,0-0.5-0.2-0.5-0.5s0.2-0.5,0.5-0.5
									C60.9,19,61.1,19.2,61.1,19.5z"/>
							</g>
							<g>
								<path fill="#F9A908" d="M6.9,22.4c0,0.3-0.2,0.6-0.6,0.6c-0.3,0-0.6-0.2-0.6-0.6s0.3-0.6,0.6-0.6
									C6.6,21.8,6.9,22.1,6.9,22.4z"/>
							</g>
							<g>
								<path fill="#1E4784" d="M2,40.9c0.3,12.6,12,22.7,30,22.7c18,0,29.7-10.1,30-22.7H2z"/>
							</g>
							<g>
								<path fill="#00233F" d="M32,63.6c18,0,29.7-10.1,30-22.7H2"/>
							</g>
						</g>
					</g>
				</g>
			</g>
		</g>
		<g>
			<g>
				<path fill="#1E4784" d="M47.3,12c0,3.4-2.7,6.1-6.1,6.1H22.8c-3.4,0-6.1-2.7-6.1-6.1l0,0c0-3.4,2.7-6.1,6.1-6.1h18.4
					C44.6,5.9,47.3,8.7,47.3,12L47.3,12z"/>
			</g>
			<g>
				<path fill="#00233F" d="M47.3,12L47.3,12c0,3.4-2.7,6.1-6.1,6.1H22.8c-3.4,0-6.1-2.7-6.1-6.1l0,0"/>
			</g>
		</g>
		<g>
			<polyline fill="#F7910B" points="37.3,40.2 32,45.5 26.7,40.2 			"/>
		</g>
		<g>
			<g>
				<path fill="#02243E" d="M23.8,39.6c-0.4,0-0.9-0.3-1-0.7c-0.2-0.6,0.1-1.2,0.7-1.4l7.7-2.8c0.6-0.2,1.2,0.1,1.4,0.7
					c0.2,0.6-0.1,1.2-0.7,1.4l-7.7,2.8C24.1,39.5,24,39.6,23.8,39.6z"/>
			</g>
			<g>
				<path fill="#02243E" d="M40.2,39.6c-0.1,0-0.3,0-0.4-0.1L32,36.7c-0.6-0.2-0.9-0.8-0.7-1.4c0.2-0.6,0.8-0.9,1.4-0.7l7.7,2.8
					c0.6,0.2,0.9,0.8,0.7,1.4C41,39.3,40.6,39.6,40.2,39.6z"/>
			</g>
		</g>
	</g>
	<g>
		<polygon fill="#1E4784" points="19.5,12.4 11.7,4.6 32,0.4 52.3,4.6 44.5,12.4 		"/>
	</g>
	<g>
		<polygon fill="#00233F" points="19.5,12.4 11.7,4.6 31.8,2.6 52.3,4.6 44.5,12.4 		"/>
	</g>
	<g>
		<polygon fill="#F9A908" points="32,6 33.4,8.9 36.5,9.3 34.3,11.5 34.8,14.7 32,13.2 29.2,14.7 29.7,11.5 27.5,9.3 30.6,8.9 		"/>
	</g>
	<g>
		<circle fill="#F7910B" cx="32" cy="55.4" r="2.6"/>
	</g>
</g>
</svg>
