<?xml version="1.0" encoding="utf-8"?>
<!-- Generator: Adobe Illustrator 16.0.0, SVG Export Plug-In . SVG Version: 6.00 Build 0)  -->
<!DOCTYPE svg PUBLIC "-//W3C//DTD SVG 1.1//EN" "http://www.w3.org/Graphics/SVG/1.1/DTD/svg11.dtd">
<svg version="1.1" id="Layer_1" xmlns="http://www.w3.org/2000/svg" xmlns:xlink="http://www.w3.org/1999/xlink" x="0px" y="0px"
	 width="64px" height="64px" viewBox="0 0 64 64" enable-background="new 0 0 64 64" xml:space="preserve">
<g>
	<g>
		<g>
			<g>
				<g>
					<g>
						<g>
							<path fill="#F7910B" d="M62.3,39.6c0,13-11.9,23.5-30.3,23.5c-18.4,0-30.3-10.5-30.3-23.5S13.6,7.1,32,7.1
								C50.4,7.1,62.3,26.7,62.3,39.6z"/>
						</g>
						<g>
							<path fill="#F7910B" d="M62.3,39.6c0,13-11.9,19.5-30.3,19.5c-18.4,0-30.3-6.5-30.3-19.5S13.6,5.1,32,5.1
								C50.4,5.1,62.3,26.7,62.3,39.6z"/>
						</g>
						<g>
							<path fill="#F9A908" d="M32,5.1c18.4,0,30.3,21.5,30.3,34.5S50.4,59.1,32,59.1"/>
						</g>
						<g>
							<path fill="#F9A908" d="M62.3,39.6c0,13-11.9,19.5-30.3,19.5c-18.4,0-30.3-6.5-30.3-19.5S13.6,7.1,32,7.1
								C50.4,7.1,62.3,26.7,62.3,39.6z"/>
						</g>
						<g>
							<path fill="#F9C55D" d="M1.7,39.6c0-13,11.9-32.5,30.3-32.5"/>
						</g>
						<g>
							<path fill="#F7910B" d="M32,7.1c18.4,0,30.3,19.5,30.3,32.5S50.4,63.1,32,63.1"/>
						</g>
						<g>
							<path fill="#EA7103" d="M32,7.1c18.4,0,30.3,19.5,30.3,32.5"/>
						</g>
						<g>
							<g>
								<ellipse fill="#EA7103" cx="21.6" cy="28.8" rx="3.2" ry="2"/>
							</g>
							<g>
								<ellipse fill="#EA7103" cx="42.4" cy="28.8" rx="3.2" ry="2"/>
							</g>
							<g>
								<ellipse fill="#1E4784" cx="21.6" cy="28.2" rx="3.2" ry="2"/>
							</g>
							<g>
								<path fill="#00233F" d="M21.6,26.2c1.8,0,3.2,0.9,3.2,2s-1.4,2-3.2,2"/>
							</g>
							<g>
								<ellipse fill="#1E4784" cx="42.4" cy="28.2" rx="3.2" ry="2"/>
							</g>
							<g>
								<path fill="#00233F" d="M42.4,26.2c1.8,0,3.2,0.9,3.2,2s-1.4,2-3.2,2"/>
							</g>
						</g>
						<g>
							<g>
								<g>
									<g>
										<g>
											<g>
												<path fill="#19BCA4" d="M25.2,20.7c-0.3,0.8-1.5-0.2-3.2-0.9c-1.7-0.7-3.2-0.9-2.8-1.7c0.3-0.8,2-0.9,3.6-0.2
													C24.5,18.7,25.5,19.9,25.2,20.7z"/>
											</g>
										</g>
									</g>
								</g>
								<g>
									<g>
										<g>
											<g>
												<path fill="#19BCA4" d="M38.7,17.1c0.4,0.8,1.5-0.3,3.1-1.2c1.6-0.9,3.1-1.2,2.7-1.9c-0.4-0.8-2-0.7-3.6,0.2
													C39.2,15,38.3,16.3,38.7,17.1z"/>
											</g>
										</g>
									</g>
								</g>
							</g>
							<g>
								<g>
									<g>
										<g>
											<g>
												<path fill="#109DA0" d="M25.2,20.7c-0.3,0.8-1.5-0.2-3.2-0.9c-1.7-0.7-3.2-0.9-2.8-1.7"/>
											</g>
										</g>
									</g>
								</g>
								<g>
									<g>
										<g>
											<g>
												<path fill="#109DA0" d="M38.7,17.1c0.4,0.8,1.5-0.3,3.1-1.2c1.6-0.9,3.1-1.2,2.7-1.9"/>
											</g>
										</g>
									</g>
								</g>
							</g>
						</g>
						<g>
							<g>
								<path fill="#F9C55D" d="M27.8,33c0,1.2-3.5,0.7-7.8,0.7c-4.3,0-7.8,0.6-7.8-0.7c0-1.2,3.5-2.2,7.8-2.2
									C24.3,30.7,27.8,31.7,27.8,33z"/>
							</g>
							<g>
								<path fill="#F9A908" d="M51.8,33c0,1.2-3.5,0.7-7.8,0.7s-7.8,0.6-7.8-0.7c0-1.2,3.5-2.2,7.8-2.2S51.8,31.7,51.8,33z"/>
							</g>
						</g>
						<g>
							<circle fill="#F7910B" cx="10.3" cy="36.6" r="0.6"/>
						</g>
						<g>
							<circle fill="#F7910B" cx="5.8" cy="38.6" r="1.1"/>
						</g>
						<g>
							<circle fill="#F7910B" cx="8.8" cy="34.6" r="0.2"/>
						</g>
						<g>
							<circle fill="#F7910B" cx="13.4" cy="36.4" r="0.2"/>
						</g>
						<g>
							<circle fill="#F9A908" cx="52.6" cy="37" r="0.8"/>
						</g>
						<g>
							<circle fill="#F9A908" cx="55.1" cy="38.4" r="0.2"/>
						</g>
						<g>
							<circle fill="#F9A908" cx="49.8" cy="29.5" r="0.3"/>
						</g>
						<g>
							<circle fill="#F9A908" cx="49.3" cy="41.2" r="1.3"/>
						</g>
						<g>
							<circle fill="#F9A908" cx="56.5" cy="41.2" r="0.6"/>
						</g>
						<g>
							<circle fill="#F7910B" cx="9.3" cy="40.6" r="0.5"/>
						</g>
						<g>
							<circle fill="#F7910B" cx="10.1" cy="32.2" r="0.4"/>
						</g>
						<g>
							<circle fill="#F9A908" cx="4.8" cy="18.5" r="1.1"/>
						</g>
						<g>
							<circle fill="#F9A908" cx="8" cy="14.9" r="0.6"/>
						</g>
						<g>
							<circle fill="#F9A908" cx="59.2" cy="20.9" r="0.2"/>
						</g>
						<g>
							<circle fill="#F9A908" cx="58.4" cy="17.9" r="0.8"/>
						</g>
						<g>
							<circle fill="#F9A908" cx="61" cy="18.5" r="0.5"/>
						</g>
						<g>
							<circle fill="#F9A908" cx="6" cy="21.4" r="0.6"/>
						</g>
					</g>
				</g>
			</g>
			<g>
				<g>
					<path fill="#F7910B" d="M39.4,37.8c0,2.6-3.3,4.7-7.4,4.7c-4.1,0-7.4-2.1-7.4-4.7"/>
				</g>
				<g>
					<path fill="#02243E" d="M37,38H27c-0.6,0-1-0.4-1-1s0.4-1,1-1h10c0.6,0,1,0.4,1,1S37.6,38,37,38z"/>
				</g>
			</g>
		</g>
		<g>
			<g>
				<g>
					<polygon fill="#3870B2" points="35.4,21.2 32,24.6 28.6,21.2 32,13 					"/>
				</g>
				<g>
					<polyline fill="#1E4784" points="32,13 35.4,21.2 32,24.6 					"/>
				</g>
			</g>
			<g>
				<g>
					<polygon fill="#3870B2" points="34.3,11.9 32,14.3 29.7,11.9 32,6.2 					"/>
				</g>
				<g>
					<polyline fill="#1E4784" points="32,6.2 34.3,11.9 32,14.3 					"/>
				</g>
			</g>
			<g>
				<g>
					<polygon fill="#3870B2" points="33.4,4.2 32,5.6 30.6,4.2 32,0.9 					"/>
				</g>
				<g>
					<polyline fill="#1E4784" points="32,0.9 33.4,4.2 32,5.6 					"/>
				</g>
			</g>
		</g>
	</g>
	<g>
		<path fill="#75B1C9" d="M1.7,40c0,12.9,12.1,23.1,30.3,23.1C50.2,63.1,62,53,62.3,40H1.7z"/>
	</g>
	<g>
		<path fill="#638FA5" d="M32,63.1c18.2,0,30.3-10,30.3-23.1H2"/>
	</g>
	<g>
		<path fill="#F7910B" d="M39.6,40c0,3.1-3.4,5.7-7.6,5.7c-4.2,0-7.6-2.5-7.6-5.7"/>
	</g>
	<g>
		
			<rect x="30.5" y="48.3" transform="matrix(0.7069 -0.7073 0.7073 0.7069 -25.8546 37.2307)" fill="#75B1C9" width="3" height="3"/>
	</g>
	<g>
		
			<rect x="30.5" y="54.1" transform="matrix(0.7069 -0.7073 0.7073 0.7069 -29.9808 38.9404)" fill="#75B1C9" width="3" height="3"/>
	</g>
	<g>
		<path fill="#02243E" d="M49.5,54.8c-3.4,0-6.1-2.7-6.1-6.1c0-3.4,2.7-6.1,6.1-6.1c3.4,0,6.1,2.7,6.1,6.1
			C55.6,52.1,52.8,54.8,49.5,54.8z M49.5,43.6c-2.8,0-5.1,2.3-5.1,5.1c0,2.8,2.3,5.1,5.1,5.1c2.8,0,5.1-2.3,5.1-5.1
			C54.6,45.9,52.3,43.6,49.5,43.6z"/>
	</g>
	<g>
		<path fill="#02243E" d="M43.9,57c-0.1,0-0.1,0-0.2,0c-0.3-0.1-0.4-0.4-0.3-0.7l6.4-15c0.1-0.2,0.3-0.3,0.5-0.3
			c0.2,0,0.4,0.2,0.4,0.4L53,54.7c0,0.3-0.1,0.5-0.4,0.6c-0.3,0-0.5-0.1-0.6-0.4l-2-11.7l-5.7,13.4C44.3,56.9,44.1,57,43.9,57z"/>
	</g>
	<g>
		<path fill="#02243E" d="M41.5,49.6c-0.3,0-0.5-0.2-0.5-0.4c0-0.3,0.2-0.5,0.4-0.6l17.2-2c0.3,0,0.5,0.2,0.6,0.4s-0.2,0.5-0.4,0.6
			L41.5,49.6C41.5,49.6,41.5,49.6,41.5,49.6z"/>
	</g>
</g>
</svg>
