<?xml version="1.0" encoding="utf-8"?>
<!-- Generator: Adobe Illustrator 16.0.0, SVG Export Plug-In . SVG Version: 6.00 Build 0)  -->
<!DOCTYPE svg PUBLIC "-//W3C//DTD SVG 1.1//EN" "http://www.w3.org/Graphics/SVG/1.1/DTD/svg11.dtd">
<svg version="1.1" id="Layer_1" xmlns="http://www.w3.org/2000/svg" xmlns:xlink="http://www.w3.org/1999/xlink" x="0px" y="0px"
	 width="64px" height="64px" viewBox="0 0 64 64" enable-background="new 0 0 64 64" xml:space="preserve">
<g>
	<path fill="#FF7F00" d="M9.9,29.4c3.7-3.3,12.2-5.6,22.1-5.6s18.4,2.3,22.1,5.6c1.3-1.1,2-2.3,2-3.6c0-5.1-10.8-9.2-24.1-9.2
		S7.9,20.7,7.9,25.8C7.9,27.1,8.6,28.3,9.9,29.4z"/>
	<path fill="#ED7306" d="M32,19.2c-12.1,0-22.2,3.4-23.8,7.9c0.3,0.8,0.9,1.6,1.7,2.3c3.7-3.3,12.2-5.6,22.1-5.6s18.4,2.3,22.1,5.6
		c0.8-0.7,1.4-1.5,1.7-2.3C54.2,22.6,44.1,19.2,32,19.2z"/>
	<path fill="#FFB600" d="M32,14.9c-17.1,0-31,6.5-31,16c0,9.5,6.1,18.2,31,18.2s31-8.7,31-18.2C63,21.4,49.1,14.9,32,14.9z M32,34.6
		c-13.3,0-24.1-3.6-24.1-8.8c0-5.1,10.8-9.2,24.1-9.2s24.1,4.1,24.1,9.2C56.1,30.9,45.3,34.6,32,34.6z"/>
	<g>
		<path fill="#FFDA00" d="M32,35.4c13.3,0,24.1-3.6,24.1-8.8c0-0.1,0-0.3,0-0.4c-0.6,4.9-11.1,8.4-24,8.4S8.5,31.1,8,26.2
			c0,0.1,0,0.3,0,0.4C7.9,31.8,18.7,35.4,32,35.4z"/>
		<path fill="#FFDA00" d="M32,15.8c17,0,30.7,6.4,31,15.7c0-0.2,0-0.4,0-0.6c0-9.5-13.9-16-31-16c-17.1,0-31,6.5-31,16
			c0,0.2,0,0.4,0,0.6C1.3,22.2,15,15.8,32,15.8z"/>
	</g>
	<path fill="#FF9D00" d="M32,44.8c-12.5,0-23.5-2.6-29.6-6.9C5.4,44.3,13.5,49.1,32,49.1s26.6-4.8,29.6-11.2
		C55.5,42.2,44.5,44.8,32,44.8z"/>
	<g opacity="0.2">
		<path fill="#FFFFC7" d="M23.3,44.2C23.3,44.2,23.3,44.2,23.3,44.2c-0.1,0-0.2-0.1-0.2-0.1l-1-1.9l-3,1.9c-0.1,0.1-0.2,0-0.3,0
			l-2.4-2.6l-1.9,1.9c-0.1,0.1-0.1,0.1-0.2,0.1c-0.1,0-0.1-0.1-0.2-0.1l-1.8-4l-0.8,4.1c0,0.1-0.1,0.2-0.2,0.2
			c-0.1,0-0.2-0.1-0.2-0.2l-2.8-7.8l-0.8,2.6c0,0.1-0.1,0.1-0.2,0.2c-0.1,0-0.2,0-0.2-0.1l-3-2.7c-0.1-0.1-0.1-0.2,0-0.3
			c0.1-0.1,0.2-0.1,0.3,0l2.7,2.4l0.9-2.9c0-0.1,0.1-0.2,0.2-0.2c0.1,0,0.2,0.1,0.2,0.2l2.7,7.7l0.8-4c0-0.1,0.1-0.2,0.2-0.2
			c0.1,0,0.2,0,0.2,0.1l1.9,4.4l1.8-1.8c0,0,0.1-0.1,0.2-0.1c0.1,0,0.1,0,0.2,0.1l2.4,2.6l3.1-2c0.1,0,0.1,0,0.2,0
			c0.1,0,0.1,0.1,0.2,0.1l0.9,1.8l1.7-2c0,0,0.1-0.1,0.2-0.1l6.6-0.9c0,0,0.1,0,0.1,0l5,1.5c0.1,0,0.1,0.1,0.2,0.1l0.4,1.1l1.5-0.4
			l7-3.6c0,0,0.1,0,0.1,0h2.1c0.1,0,0.2,0,0.2,0.1l1.2,2.1l1.3-4.7c0-0.1,0.1-0.2,0.2-0.2c0.1,0,0.2,0.1,0.2,0.2
			c0,0.1,0.4,2.8,0.4,3.6c0.2,0.1,1.5-0.4,2.8-1.1l0.7-2.8c0-0.1,0.1-0.2,0.2-0.2l0.7-0.1l1.8-0.4c0.1,0,0.1,0,0.2,0l0.6,0.3
			l0.7-3.4c0-0.1,0.1-0.2,0.3-0.2c0.1,0,0.2,0.2,0.2,0.3l-0.7,3.8c0,0.1-0.1,0.1-0.1,0.2c-0.1,0-0.2,0-0.2,0L58,36.3l-1.7,0.4
			l-0.6,0.1l-0.7,2.8c0,0.1-0.1,0.1-0.1,0.2c-0.8,0.5-2.8,1.5-3.4,1.1c-0.1-0.1-0.2-0.2-0.2-0.4c0-0.5-0.1-1.6-0.3-2.5l-1.2,4.2
			c0,0.1-0.1,0.2-0.2,0.2c-0.1,0-0.2,0-0.2-0.1L48,39.7h-1.9l-7,3.6l-1.7,0.5c-0.1,0-0.3,0-0.3-0.2l-0.4-1.2L31.9,41l-6.5,0.9
			l-1.9,2.2C23.5,44.2,23.4,44.2,23.3,44.2z"/>
	</g>
</g>
</svg>
