<?xml version="1.0" encoding="utf-8"?>
<!-- Generator: Adobe Illustrator 16.0.0, SVG Export Plug-In . SVG Version: 6.00 Build 0)  -->
<!DOCTYPE svg PUBLIC "-//W3C//DTD SVG 1.1//EN" "http://www.w3.org/Graphics/SVG/1.1/DTD/svg11.dtd">
<svg version="1.1" id="Layer_1" xmlns="http://www.w3.org/2000/svg" xmlns:xlink="http://www.w3.org/1999/xlink" x="0px" y="0px"
	 width="64px" height="64px" viewBox="0 0 64 64" enable-background="new 0 0 64 64" xml:space="preserve">
<g>
	<g>
		<g>
			<g>
				<g>
					<g>
						<path fill="#F7910B" d="M62.3,37.5C62.3,50.5,50.4,61,32,61C13.6,61,1.7,50.5,1.7,37.5S13.6,5,32,5
							C50.4,5,62.3,24.5,62.3,37.5z"/>
					</g>
					<g>
						<path fill="#F7910B" d="M62.3,37.5C62.3,50.5,50.4,57,32,57C13.6,57,1.7,50.5,1.7,37.5S13.6,3,32,3
							C50.4,3,62.3,24.5,62.3,37.5z"/>
					</g>
					<g>
						<path fill="#F9A908" d="M32,3c18.4,0,30.3,21.5,30.3,34.5S50.4,57,32,57"/>
					</g>
					<g>
						<path fill="#F9A908" d="M62.3,37.5C62.3,50.5,50.4,57,32,57C13.6,57,1.7,50.5,1.7,37.5S13.6,5,32,5
							C50.4,5,62.3,24.5,62.3,37.5z"/>
					</g>
					<g>
						<path fill="#F9C55D" d="M1.7,37.5C1.7,24.5,13.6,5,32,5"/>
					</g>
					<g>
						<path fill="#F7910B" d="M32,5c18.4,0,30.3,19.5,30.3,32.5S50.4,61,32,61"/>
					</g>
					<g>
						<path fill="#EA7103" d="M32,5c18.4,0,30.3,19.5,30.3,32.5"/>
					</g>
					<g>
						<g>
							<path fill="#F9C55D" d="M27.8,35.3c0,1.2-3.5,0.7-7.8,0.7c-4.3,0-7.8,0.6-7.8-0.7c0-1.2,3.5-2.2,7.8-2.2
								C24.3,33.1,27.8,34.1,27.8,35.3z"/>
						</g>
						<g>
							<path fill="#F9A908" d="M51.8,35.3c0,1.2-3.5,0.7-7.8,0.7s-7.8,0.6-7.8-0.7c0-1.2,3.5-2.2,7.8-2.2S51.8,34.1,51.8,35.3z"/>
						</g>
					</g>
					<g>
						<circle fill="#F7910B" cx="10.3" cy="34.5" r="0.6"/>
					</g>
					<g>
						<circle fill="#F7910B" cx="5.8" cy="36.5" r="1.1"/>
					</g>
					<g>
						<circle fill="#F7910B" cx="8.8" cy="32.5" r="0.2"/>
					</g>
					<g>
						<circle fill="#F7910B" cx="13.4" cy="34.3" r="0.2"/>
					</g>
					<g>
						<circle fill="#F9A908" cx="52.6" cy="34.8" r="0.8"/>
					</g>
					<g>
						<circle fill="#F9A908" cx="55.1" cy="36.2" r="0.2"/>
					</g>
					<g>
						<circle fill="#F9A908" cx="49.8" cy="27.4" r="0.3"/>
					</g>
					<g>
						<circle fill="#F9A908" cx="49.3" cy="39" r="1.3"/>
					</g>
					<g>
						<circle fill="#F9A908" cx="56.5" cy="39.1" r="0.6"/>
					</g>
					<g>
						<circle fill="#F7910B" cx="9.3" cy="38.5" r="0.5"/>
					</g>
					<g>
						<circle fill="#F7910B" cx="10.1" cy="30.1" r="0.4"/>
					</g>
					<g>
						<circle fill="#F9A908" cx="4.8" cy="16.3" r="1.1"/>
					</g>
					<g>
						<circle fill="#F9A908" cx="8" cy="12.8" r="0.6"/>
					</g>
					<g>
						<circle fill="#F9A908" cx="59.2" cy="18.7" r="0.2"/>
					</g>
					<g>
						<circle fill="#F9A908" cx="58.4" cy="15.8" r="0.8"/>
					</g>
					<g>
						<circle fill="#F9A908" cx="61" cy="16.3" r="0.5"/>
					</g>
					<g>
						<circle fill="#F9A908" cx="6" cy="19.3" r="0.6"/>
					</g>
				</g>
			</g>
		</g>
		<g>
			<g>
				<g>
					<circle fill="#FFFFFF" cx="20.7" cy="26.6" r="9.3"/>
					<path fill="#756A49" d="M20.7,37.5c-6.1,0-11-4.9-11-11s4.9-11,11-11c6.1,0,11,4.9,11,11S26.7,37.5,20.7,37.5z M20.7,18.9
						c-4.2,0-7.7,3.4-7.7,7.7s3.4,7.7,7.7,7.7c4.2,0,7.7-3.4,7.7-7.7S24.9,18.9,20.7,18.9z"/>
				</g>
				<g>
					<path fill="#FFFFFF" d="M52.7,26.6c0,5.2-4.2,9.3-9.3,9.3c-5.2,0-9.3-4.2-9.3-9.3s4.2-9.3,9.3-9.3
						C48.5,17.2,52.7,21.4,52.7,26.6z"/>
					<path fill="#756A49" d="M43.3,37.5c-6.1,0-11-4.9-11-11s4.9-11,11-11c6.1,0,11,4.9,11,11S49.4,37.5,43.3,37.5z M43.3,18.9
						c-4.2,0-7.7,3.4-7.7,7.7s3.4,7.7,7.7,7.7c4.2,0,7.7-3.4,7.7-7.7S47.6,18.9,43.3,18.9z"/>
				</g>
			</g>
			<g>
				<g>
					<circle fill="#CECDCC" cx="20.6" cy="27.1" r="3.5"/>
				</g>
				<g>
					<circle fill="#CECDCC" cx="43.4" cy="27.1" r="3.5"/>
				</g>
				<g>
					<circle fill="#1E4784" cx="20.6" cy="26.1" r="3.5"/>
				</g>
				<g>
					<path fill="#00233F" d="M20.6,22.6c1.9,0,3.5,1.6,3.5,3.5s-1.6,3.5-3.5,3.5"/>
				</g>
				<g>
					<circle fill="#1E4784" cx="43.4" cy="26.1" r="3.5"/>
				</g>
				<g>
					<path fill="#00233F" d="M43.4,22.6c1.9,0,3.5,1.6,3.5,3.5s-1.6,3.5-3.5,3.5"/>
				</g>
			</g>
		</g>
	</g>
	<g>
		<g>
			<line fill="#FFFFFF" x1="2" y1="28.5" x2="11" y2="28.5"/>
			<path fill="#756A49" d="M11,30H2c-0.8,0-1.5-0.7-1.5-1.5S1.2,27,2,27h9c0.8,0,1.5,0.7,1.5,1.5S11.8,30,11,30z"/>
		</g>
		<g>
			<line fill="#FFFFFF" x1="53" y1="28.5" x2="62" y2="28.5"/>
			<path fill="#756A49" d="M62,30h-9c-0.8,0-1.5-0.7-1.5-1.5S52.2,27,53,27h9c0.8,0,1.5,0.7,1.5,1.5S62.8,30,62,30z"/>
		</g>
	</g>
	<g>
		<g>
			<g>
				<g>
					<path fill="#109DA0" d="M24,12.9c0,0.6-1.5,0.2-3.2,0c-1.8-0.2-3.2,0-3.2-0.6c0-0.6,0.8-2.3,2.6-2.1
						C21.9,10.4,24.1,12.4,24,12.9z"/>
				</g>
			</g>
		</g>
		<g>
			<g>
				<g>
					<path fill="#109DA0" d="M40,13.7c0,0.6,1.5,0.2,3.2,0c1.8-0.2,3.2,0,3.2-0.6c-0.1-0.6-0.8-2.3-2.6-2.1
						C42.1,11.2,39.9,13.2,40,13.7z"/>
				</g>
			</g>
		</g>
	</g>
	<g>
		<g>
			<path fill="#F7910B" d="M39.4,41c0,2.6-3.3,4.7-7.4,4.7c-4.1,0-7.4-2.1-7.4-4.7"/>
		</g>
		<g>
			<path fill="#02243E" d="M34,41h-4c-0.6,0-1-0.4-1-1s0.4-1,1-1h4c0.6,0,1,0.4,1,1S34.6,41,34,41z"/>
		</g>
	</g>
</g>
</svg>
