<?xml version="1.0" encoding="utf-8"?>
<!-- Generator: Adobe Illustrator 16.0.0, SVG Export Plug-In . SVG Version: 6.00 Build 0)  -->
<!DOCTYPE svg PUBLIC "-//W3C//DTD SVG 1.1//EN" "http://www.w3.org/Graphics/SVG/1.1/DTD/svg11.dtd">
<svg version="1.1" id="Layer_1" xmlns="http://www.w3.org/2000/svg" xmlns:xlink="http://www.w3.org/1999/xlink" x="0px" y="0px"
	 width="65px" height="65px" viewBox="0 0 65 65" enable-background="new 0 0 65 65" xml:space="preserve">
<g>
	<g>
		<g>
			<g>
				<g>
					<path fill="#AF764F" d="M37.258,27.708c1.432-1.273,4.229-0.465,6.25,1.805c2.018,2.27,10.793,14.475,9.365,15.75
						C51.439,46.534,40.34,36.39,38.322,34.12C36.305,31.853,35.828,28.981,37.258,27.708z"/>
					<g>
						<path fill="#AF764F" d="M34.227,29.854c-0.115-1.912-2.664-3.318-5.695-3.143c-3.033,0.178-17.867,2.604-17.76,4.515
							c0.115,1.913,15.137,2.588,18.168,2.41C31.969,33.459,34.336,31.766,34.227,29.854z"/>
					</g>
					<g>
						<path fill="#232728" d="M29.869,46.446c0,2.476-2.008,15.827-4.486,15.827c-2.475,0-4.482-13.352-4.482-15.827
							s2.008-4.484,4.482-4.484C27.861,41.962,29.869,43.971,29.869,46.446z"/>
						<path fill="#232728" d="M44.895,46.446c0,2.476-2.008,15.827-4.486,15.827c-2.475,0-4.482-13.352-4.482-15.827
							s2.008-4.484,4.482-4.484C42.887,41.962,44.895,43.971,44.895,46.446z"/>
					</g>
					<path fill="#C48960" d="M45.672,39.896c0,16.038-5.662,10.697-12.65,10.697c-6.986,0-12.65,5.341-12.65-10.697
						c0-9.17,5.666-16.603,12.65-16.603C40.008,23.294,45.672,30.727,45.672,39.896z"/>
					<g>
						<path fill="#EFA30C" d="M30.43,62.354c0,1.896-2.26,2.146-5.045,2.146s-5.045-0.249-5.045-2.146
							c0-1.897,2.26-4.508,5.045-4.508S30.43,60.457,30.43,62.354z"/>
						<path fill="#D68A05" d="M30.43,62.354c0,1.896-2.26,2.146-5.045,2.146s-5.045-0.249-5.045-2.146"/>
					</g>
					<g>
						<path fill="#EFA30C" d="M45.455,62.354c0,1.896-2.26,2.146-5.045,2.146s-5.045-0.249-5.045-2.146
							c0-1.897,2.26-4.508,5.045-4.508S45.455,60.457,45.455,62.354z"/>
						<path fill="#D68A05" d="M45.455,62.354c0,1.896-2.26,2.146-5.045,2.146s-5.045-0.249-5.045-2.146"/>
					</g>
					<g>
						<path fill="#D8A17C" d="M49.268,16.275c0,7.999-7.33,12.02-16.369,12.02c-9.041,0-16.373-4.021-16.373-12.02
							c0-8.001,7.332-15.775,16.373-15.775C41.938,0.5,49.268,8.274,49.268,16.275z"/>
						<path fill="#C48960" d="M49.268,16.275c0,7.999-7.33,12.02-16.369,12.02c-9.041,0-16.373-4.021-16.373-12.02
							c0-8.001,7.332-14.192,16.373-14.192C41.938,2.083,49.268,8.274,49.268,16.275z"/>
						<path fill="#BC8158" d="M49.268,16.275c0,7.999-7.33,12.02-16.369,12.02c-9.041,0-16.373-4.021-16.373-12.02"/>
					</g>
					<g>
						<g>
							<circle fill="#113E49" cx="27.528" cy="17.987" r="1.464"/>
							<path d="M28.992,17.987c0,0.811-0.656,1.465-1.465,1.465s-1.463-0.654-1.463-1.465"/>
							<g>
								<path fill="#E5A376" d="M30.416,21.041c-0.078,0-0.158-0.028-0.219-0.091c-0.715-0.714-1.664-1.107-2.672-1.107h-0.002
									c-1.008,0-1.955,0.394-2.666,1.106c-0.121,0.121-0.316,0.124-0.436,0.001c-0.121-0.117-0.125-0.312-0.004-0.434
									c0.83-0.831,1.932-1.29,3.105-1.29h0.002c1.176,0,2.279,0.456,3.111,1.288c0.119,0.119,0.119,0.318,0,0.436
									C30.576,21.013,30.498,21.041,30.416,21.041z"/>
							</g>
						</g>
						<g>
							<circle fill="#113E49" cx="43.099" cy="17.987" r="1.464"/>
							<path d="M41.635,17.987c0,0.811,0.654,1.465,1.465,1.465c0.809,0,1.463-0.654,1.463-1.465"/>
							<g>
								<path fill="#E5A376" d="M40.211,21.041c0.076,0,0.156-0.028,0.217-0.091c0.715-0.714,1.664-1.107,2.672-1.107h0.002
									c1.008,0,1.957,0.394,2.668,1.106c0.119,0.121,0.314,0.124,0.436,0.001c0.121-0.117,0.123-0.312,0.002-0.434
									c-0.826-0.831-1.932-1.29-3.105-1.29H43.1c-1.174,0-2.277,0.456-3.111,1.288c-0.117,0.119-0.117,0.318,0,0.436
									C40.051,21.013,40.129,21.041,40.211,21.041z"/>
							</g>
						</g>
					</g>
				</g>
			</g>
			<path fill="#870808" d="M38.549,22.833c0,0.828-1.418-0.333-3.168-0.333c-1.748,0-3.166,1.161-3.166,0.333s1.418-1.5,3.166-1.5
				C37.131,21.333,38.549,22.005,38.549,22.833z"/>
		</g>
	</g>
	<path fill="#232728" d="M20.818,46.208c1.465,8.097,6.371,5.209,12.203,5.209c5.834,0,10.74,2.888,12.203-5.209H20.818z"/>
	<g>
		<path fill="#D1B869" d="M15.133,32.792c0,0.553-0.449,1-1,1l0,0c-0.553,0-1-0.447-1-1v-3.668c0-0.551,0.447-1,1-1l0,0
			c0.551,0,1,0.449,1,1V32.792z"/>
		<g>
			<path fill="#870808" d="M14.131,33.083c0,1.104-0.895,2-2,2H8.756c-1.104,0-2-0.896-2-2v-4.25c0-1.104,0.896-2,2-2h3.375
				c1.105,0,2,0.896,2,2V33.083z"/>
			<path fill="#B70F0F" d="M11.631,33.083v-4.25c0-1.104-0.895-2-2-2H8.756c-1.104,0-2,0.896-2,2v4.25c0,1.104,0.896,2,2,2h0.875
				C10.736,35.083,11.631,34.188,11.631,33.083z"/>
		</g>
	</g>
	<g>
		<path fill="#D1B869" d="M51.529,40.825c0.391-0.391,1.023-0.391,1.414,0l0,0c0.391,0.391,0.391,1.023,0,1.414l-2.594,2.594
			c-0.389,0.39-1.023,0.391-1.414,0l0,0c-0.391-0.391-0.389-1.024,0-1.414L51.529,40.825z"/>
		<g>
			<path fill="#870808" d="M52.443,41.327c0.781-0.781,2.047-0.781,2.828,0l2.387,2.387c0.781,0.781,0.781,2.047,0,2.828
				l-3.006,3.005c-0.781,0.781-2.047,0.781-2.828,0.001l-2.387-2.387c-0.781-0.781-0.781-2.048,0-2.829L52.443,41.327z"/>
			<path fill="#B70F0F" d="M54.211,43.095l-3.006,3.006c-0.779,0.78-0.781,2.047,0,2.828l0.619,0.619
				c0.781,0.78,2.047,0.78,2.828-0.001l3.006-3.005c0.781-0.781,0.781-2.047,0-2.828l-0.619-0.619
				C56.258,42.313,54.992,42.313,54.211,43.095z"/>
		</g>
	</g>
	<ellipse fill="#EFA30C" cx="33.006" cy="45.521" rx="8.875" ry="3.688"/>
	<path fill="#D68A05" d="M33.006,41.833c4.902,0,8.875,1.65,8.875,3.688s-3.973,3.688-8.875,3.688"/>
</g>
</svg>
