<?xml version="1.0" encoding="utf-8"?>
<!-- Generator: Adobe Illustrator 16.0.0, SVG Export Plug-In . SVG Version: 6.00 Build 0)  -->
<!DOCTYPE svg PUBLIC "-//W3C//DTD SVG 1.1//EN" "http://www.w3.org/Graphics/SVG/1.1/DTD/svg11.dtd">
<svg version="1.1" id="Layer_1" xmlns="http://www.w3.org/2000/svg" xmlns:xlink="http://www.w3.org/1999/xlink" x="0px" y="0px"
	 width="64px" height="64px" viewBox="0 0 64 64" enable-background="new 0 0 64 64" xml:space="preserve">
<g>
	<g>
		<g>
			<path fill="#F7910B" d="M62.2,38.8c0,13-11.9,23.5-30.3,23.5c-18.4,0-30.3-10.5-30.3-23.5S13.5,6.3,31.9,6.3
				C50.3,6.3,62.2,25.8,62.2,38.8z"/>
		</g>
		<g>
			<path fill="#F7910B" d="M62.2,38.8c0,13-11.9,19.5-30.3,19.5c-18.4,0-30.3-6.5-30.3-19.5S13.5,4.3,31.9,4.3
				C50.3,4.3,62.2,25.8,62.2,38.8z"/>
		</g>
		<g>
			<path fill="#F9A908" d="M31.9,4.3c18.4,0,30.3,21.5,30.3,34.5S50.3,58.3,31.9,58.3"/>
		</g>
		<g>
			<path fill="#F9A908" d="M62.2,38.8c0,13-11.9,19.5-30.3,19.5c-18.4,0-30.3-6.5-30.3-19.5S13.5,6.3,31.9,6.3
				C50.3,6.3,62.2,25.8,62.2,38.8z"/>
		</g>
		<g>
			<path fill="#F9C55D" d="M1.5,38.8c0-13,11.9-32.5,30.3-32.5"/>
		</g>
		<g>
			<path fill="#F7910B" d="M31.9,6.3c18.4,0,30.3,19.5,30.3,32.5S50.3,62.3,31.9,62.3"/>
		</g>
		<g>
			<path fill="#EA7103" d="M31.9,6.3c18.4,0,30.3,19.5,30.3,32.5"/>
		</g>
		<g>
			<g>
				<g>
					<g>
						<g>
							<g>
								<path fill="#19BCA4" d="M25.8,16.5c0.2,0.8-1.3,0.8-3,1.3c-1.7,0.5-3,1.3-3.3,0.4c-0.2-0.8,1-1.9,2.7-2.4
									C23.9,15.4,25.5,15.7,25.8,16.5z"/>
							</g>
						</g>
					</g>
				</g>
				<g>
					<g>
						<g>
							<g>
								<path fill="#109DA0" d="M25.8,16.5c0.2,0.8-1.3,0.8-3,1.3c-1.7,0.5-3,1.3-3.3,0.4"/>
							</g>
						</g>
					</g>
				</g>
			</g>
			<g>
				<g>
					<g>
						<g>
							<g>
								<path fill="#19BCA4" d="M38.1,13.5c-0.3,0.8,1.2,1,2.8,1.7c1.7,0.7,2.8,1.7,3.2,0.9c0.3-0.8-0.7-2-2.4-2.7
									C40,12.6,38.4,12.7,38.1,13.5z"/>
							</g>
						</g>
					</g>
				</g>
				<g>
					<g>
						<g>
							<g>
								<path fill="#109DA0" d="M38.1,13.5c-0.3,0.8,1.2,1,2.8,1.7c1.7,0.7,2.8,1.7,3.2,0.9"/>
							</g>
						</g>
					</g>
				</g>
			</g>
		</g>
		<g>
			<circle fill="#F7910B" cx="10.2" cy="35.8" r="0.6"/>
		</g>
		<g>
			<circle fill="#F7910B" cx="5.7" cy="37.8" r="1.1"/>
		</g>
		<g>
			<circle fill="#F7910B" cx="8.7" cy="33.8" r="0.2"/>
		</g>
		<g>
			<circle fill="#F7910B" cx="13.3" cy="35.6" r="0.2"/>
		</g>
		<g>
			<circle fill="#F9A908" cx="52.5" cy="36.1" r="0.8"/>
		</g>
		<g>
			<circle fill="#F9A908" cx="55" cy="37.5" r="0.2"/>
		</g>
		<g>
			<circle fill="#F9A908" cx="49.6" cy="28.7" r="0.3"/>
		</g>
		<g>
			<circle fill="#F9A908" cx="49.1" cy="40.3" r="1.3"/>
		</g>
		<g>
			<circle fill="#F9A908" cx="56.3" cy="40.4" r="0.6"/>
		</g>
		<g>
			<circle fill="#F7910B" cx="9.2" cy="39.8" r="0.5"/>
		</g>
		<g>
			<circle fill="#F7910B" cx="10" cy="31.4" r="0.4"/>
		</g>
		<g>
			<circle fill="#F9A908" cx="4.7" cy="17.6" r="1.1"/>
		</g>
		<g>
			<circle fill="#F9A908" cx="7.9" cy="14.1" r="0.6"/>
		</g>
		<g>
			<circle fill="#F9A908" cx="59.1" cy="20" r="0.2"/>
		</g>
		<g>
			<g>
				<g>
					<g>
						<g>
							<g>
								<path fill="#1E4784" d="M23.7,29.3c-0.4-0.1-0.8-0.3-1.1-0.7c-1.1-1.6-3.4-2-5-0.9c-0.8,0.5-1.8,0.3-2.3-0.4
									c-0.5-0.8-0.3-1.8,0.4-2.3c3.1-2.2,7.4-1.4,9.6,1.8c0.5,0.7,0.3,1.8-0.4,2.3C24.6,29.3,24.1,29.3,23.7,29.3z"/>
							</g>
						</g>
						<g>
							<g>
								<path fill="#02243E" d="M25.4,26.7c0.5,0.7,0.3,1.8-0.4,2.3c-0.4,0.3-0.8,0.3-1.2,0.3c-0.4-0.1-0.8-0.3-1.1-0.7
									c-1.1-1.6-3.4-2-5-0.9c-0.8,0.5-1.8,0.3-2.3-0.4c-0.5-0.8-0.3-1.8,0.4-2.3"/>
							</g>
						</g>
					</g>
				</g>
			</g>
			<g>
				<g>
					<circle fill="#D87703" cx="41.6" cy="27" r="3.5"/>
				</g>
				<g>
					<circle fill="#1E4784" cx="41.6" cy="26" r="3.5"/>
				</g>
				<g>
					<path fill="#00233F" d="M41.6,22.5c1.9,0,3.5,1.6,3.5,3.5s-1.6,3.5-3.5,3.5"/>
				</g>
			</g>
		</g>
		<g>
			<circle fill="#F9A908" cx="58.3" cy="17.1" r="0.8"/>
		</g>
		<g>
			<circle fill="#F9A908" cx="60.8" cy="17.6" r="0.5"/>
		</g>
		<g>
			<circle fill="#F9A908" cx="5.9" cy="20.6" r="0.6"/>
		</g>
		<g>
			<g>
				<path fill="#F9C55D" d="M27.7,32.1c0,1.2-3.5,0.7-7.8,0.7c-4.3,0-7.8,0.6-7.8-0.7s3.5-2.2,7.8-2.2
					C24.2,29.9,27.7,30.9,27.7,32.1z"/>
			</g>
			<g>
				<path fill="#F9A908" d="M51.6,32.1c0,1.2-3.5,0.7-7.8,0.7c-4.3,0-7.8,0.6-7.8-0.7s3.5-2.2,7.8-2.2
					C48.2,29.9,51.6,30.9,51.6,32.1z"/>
			</g>
		</g>
		<g>
			<g>
				<path fill="#F9C55D" d="M35.8,34.8c0,0.8-1.7,1.5-3.9,1.5c-2.2,0-3.9-0.7-3.9-1.5"/>
			</g>
			<g>
				<g>
					<path fill="#F7910B" d="M37.3,36.7c0,1.9-2.4,5.4-5.4,5.4s-5.4-3.5-5.4-5.4"/>
				</g>
				<g>
					<g>
						<path fill="#02243E" d="M20.8,35.5c-0.6,0-1.1-0.5-1.1-1.1s0.5-1.1,1.1-1.1c0.5,0,0.9-0.4,0.9-0.9c0-0.6,0.5-1.1,1.1-1.1
							s1.1,0.5,1.1,1.1C23.9,34.1,22.5,35.5,20.8,35.5z"/>
					</g>
					<g>
						<path fill="#02243E" d="M42.9,35.5c-1.7,0-3.1-1.4-3.1-3.1c0-0.6,0.5-1.1,1.1-1.1s1.1,0.5,1.1,1.1c0,0.5,0.4,0.9,0.9,0.9
							c0.6,0,1.1,0.5,1.1,1.1S43.5,35.5,42.9,35.5z"/>
					</g>
				</g>
				<g>
					<path fill="#02243E" d="M31.9,39.1c-3.8,0-7.6-1.4-10.4-4.3c-0.4-0.4-0.4-1.1,0-1.6c0.4-0.4,1.1-0.4,1.6,0
						c4.9,4.9,12.9,4.9,17.8,0c0.4-0.4,1.1-0.4,1.6,0c0.4,0.4,0.4,1.1,0,1.6C39.4,37.7,35.6,39.1,31.9,39.1z"/>
				</g>
			</g>
		</g>
	</g>
	<g>
		<g>
			<path fill="#3CC676" d="M1.5,39.3c0.3,12.7,12.1,23,30.3,23s30-10.3,30.3-23H1.5z"/>
		</g>
		<g>
			<path fill="#12AF6B" d="M31.9,62.3c18.2,0,30-10.3,30.3-23H1.5"/>
		</g>
	</g>
	<g>
		<g>
			<path fill="#D63834" d="M46.4,58.7c-0.8-7.4-7-13.1-14.6-13.1c-7.6,0-13.8,5.7-14.6,13.1H46.4z"/>
		</g>
		<g>
			<path fill="#BC1E1E" d="M17.3,58.7h29.1c-0.8-7.4-7-13.1-14.6-13.1"/>
		</g>
		<g>
			<path fill="#F7DF77" d="M41.6,58.7C41,53.8,36.9,50,31.9,50c-5,0-9.2,3.8-9.7,8.7H41.6z"/>
		</g>
		<g>
			<path fill="#F2C549" d="M22.2,58.7h19.4C41,53.8,36.9,50,31.9,50"/>
		</g>
		<g>
			<path fill="#3CC676" d="M36.9,58.7c-0.3-2.6-2.4-4.6-5.1-4.6c-2.6,0-4.8,2-5.1,4.6H36.9z"/>
		</g>
		<g>
			<path fill="#12AF6B" d="M26.8,58.7h10.2c-0.3-2.6-2.4-4.6-5.1-4.6"/>
		</g>
	</g>
	<g>
		<circle fill="#D63834" cx="12.4" cy="49.5" r="0.8"/>
	</g>
	<g>
		<circle fill="#D63834" cx="19" cy="46.5" r="0.2"/>
	</g>
	<g>
		<circle fill="#D63834" cx="50.8" cy="47.7" r="2.2"/>
	</g>
	<g>
		<circle fill="#D63834" cx="56.9" cy="43.6" r="0.5"/>
	</g>
	<g>
		<circle fill="#D63834" cx="58" cy="48" r="0.4"/>
	</g>
	<g>
		<circle fill="#F7DF77" cx="17.8" cy="42.6" r="0.8"/>
	</g>
	<g>
		<circle fill="#F7DF77" cx="24" cy="41.9" r="0.2"/>
	</g>
	<g>
		<circle fill="#F7DF77" cx="19.3" cy="46.2" r="0.2"/>
	</g>
	<g>
		<circle fill="#F7DF77" cx="41" cy="45" r="1.4"/>
	</g>
	<g>
		<circle fill="#F7DF77" cx="46.4" cy="42.6" r="0.7"/>
	</g>
	<g>
		<circle fill="#F7DF77" cx="52.3" cy="42.8" r="0.2"/>
	</g>
	<g>
		<circle fill="#F7DF77" cx="35.3" cy="42.6" r="0.5"/>
	</g>
	<g>
		<circle fill="#98F4F1" cx="49.9" cy="54.5" r="0.5"/>
	</g>
	<g>
		<circle fill="#98F4F1" cx="14.3" cy="44.8" r="0.5"/>
	</g>
	<g>
		<circle fill="#98F4F1" cx="15.5" cy="53.5" r="1.1"/>
	</g>
	<g>
		<circle fill="#98F4F1" cx="7.4" cy="48.1" r="0.7"/>
	</g>
	<g>
		<circle fill="#98F4F1" cx="45.8" cy="49" r="0.5"/>
	</g>
	<g>
		<circle fill="#98F4F1" cx="54.2" cy="45.2" r="0.2"/>
	</g>
	<g>
		<circle fill="#98F4F1" cx="54.5" cy="51.5" r="0.9"/>
	</g>
	<g>
		<circle fill="#98F4F1" cx="5.4" cy="41.6" r="0.7"/>
	</g>
	<g>
		<circle fill="#D63834" cx="10.5" cy="44.5" r="1.6"/>
	</g>
	<g>
		<path fill="#F7910B" d="M37.6,39.2c0,3.2-2.6,5.8-5.8,5.8s-5.8-2.6-5.8-5.8"/>
	</g>
	<g>
		<path fill="#12AF6B" d="M51.3,11.5c0,0.6-0.4,1-1,1H13.4c-0.6,0-1-0.4-1-1l0,0c0-0.6,0.4-1,1-1h36.8
			C50.8,10.5,51.3,10.9,51.3,11.5L51.3,11.5z"/>
	</g>
	<g>
		<path fill="#3CC676" d="M50.3,10.5c0.6,0,1,0.4,1,1l0,0c0,0.6-0.4,1-1,1H13.4c-0.6,0-1-0.4-1-1l0,0"/>
	</g>
	<g>
		<g>
			<g>
				<g>
					<ellipse fill="#D63834" cx="52.7" cy="6.4" rx="2.7" ry="4.7"/>
				</g>
				<g>
					<path fill="#BC1E1E" d="M52.7,1.7c1.5,0,2.7,2.1,2.7,4.7S54.2,11,52.7,11"/>
				</g>
			</g>
			<g>
				<g>
					<ellipse fill="#D63834" cx="52.7" cy="16.5" rx="2.7" ry="4.7"/>
				</g>
				<g>
					<path fill="#BC1E1E" d="M52.7,11.9c1.5,0,2.7,2.1,2.7,4.7c0,2.6-1.2,4.7-2.7,4.7"/>
				</g>
			</g>
		</g>
		<g>
			<g>
				<g>
					
						<ellipse transform="matrix(0.7071 0.7071 -0.7071 0.7071 22.0482 -37.5141)" fill="#D63834" cx="56.3" cy="7.9" rx="2.7" ry="4.7"/>
				</g>
				<g>
					<path fill="#BC1E1E" d="M59.6,4.6c1.1,1.1,0.4,3.4-1.4,5.2c-1.8,1.8-4.2,2.4-5.2,1.4"/>
				</g>
			</g>
			<g>
				<g>
					
						<ellipse transform="matrix(0.7071 0.7071 -0.7071 0.7071 25.0246 -30.3269)" fill="#D63834" cx="49.1" cy="15" rx="2.7" ry="4.7"/>
				</g>
				<g>
					<path fill="#BC1E1E" d="M52.4,11.7c1.1,1.1,0.4,3.4-1.4,5.2c-1.8,1.8-4.2,2.5-5.2,1.4"/>
				</g>
			</g>
		</g>
		<g>
			<g>
				<g>
					<ellipse fill="#D63834" cx="57.8" cy="11.5" rx="4.7" ry="2.7"/>
				</g>
				<g>
					<path fill="#BC1E1E" d="M62.5,11.5c0,1.5-2.1,2.7-4.7,2.7c-2.6,0-4.7-1.2-4.7-2.7"/>
				</g>
			</g>
			<g>
				<g>
					<ellipse fill="#D63834" cx="47.6" cy="11.5" rx="4.7" ry="2.7"/>
				</g>
				<g>
					<path fill="#BC1E1E" d="M52.3,11.5c0,1.5-2.1,2.7-4.7,2.7c-2.6,0-4.7-1.2-4.7-2.7"/>
				</g>
			</g>
		</g>
		<g>
			<g>
				<g>
					<path fill="#D63834" d="M54.4,16.9c-1.8-1.8-2.5-4.2-1.4-5.2c1.1-1.1,3.4-0.4,5.2,1.4c1.8,1.8,2.5,4.2,1.4,5.2
						C58.6,19.4,56.2,18.8,54.4,16.9z"/>
				</g>
				<g>
					<path fill="#BC1E1E" d="M59.6,18.3c-1,1.1-3.4,0.4-5.2-1.4c-1.8-1.8-2.5-4.2-1.4-5.2"/>
				</g>
			</g>
			<g>
				<g>
					
						<ellipse transform="matrix(-0.7069 0.7073 -0.7073 -0.7069 89.4018 -21.33)" fill="#D63834" cx="49.1" cy="7.9" rx="2.7" ry="4.7"/>
				</g>
				<g>
					<path fill="#BC1E1E" d="M52.4,11.2c-1.1,1.1-3.4,0.4-5.2-1.4c-1.8-1.8-2.5-4.2-1.4-5.2"/>
				</g>
			</g>
		</g>
		<g>
			<g>
				<circle fill="#F9A908" cx="52.7" cy="11.5" r="5.6"/>
			</g>
			<g>
				<path fill="#F7910B" d="M56.6,7.5c2.2,2.2,2.2,5.7,0,7.9c-2.2,2.2-5.7,2.2-7.9,0"/>
			</g>
			<g>
				<path fill="#F9C55D" d="M52.9,7.6c0.5,0.6,0,1.8-1,2.5c-1,0.8-2.2,0.9-2.7,0.3c-0.5-0.6,0-1.8,1-2.5C51.2,7.1,52.4,6.9,52.9,7.6
					z"/>
			</g>
		</g>
	</g>
</g>
</svg>
