<?xml version="1.0" encoding="utf-8"?>
<!-- Generator: Adobe Illustrator 16.0.0, SVG Export Plug-In . SVG Version: 6.00 Build 0)  -->
<!DOCTYPE svg PUBLIC "-//W3C//DTD SVG 1.1//EN" "http://www.w3.org/Graphics/SVG/1.1/DTD/svg11.dtd">
<svg version="1.1" id="Layer_1" xmlns="http://www.w3.org/2000/svg" xmlns:xlink="http://www.w3.org/1999/xlink" x="0px" y="0px"
	 width="65px" height="65px" viewBox="0 0 65 65" enable-background="new 0 0 65 65" xml:space="preserve">
<g>
	<g>
		<g>
			<g>
				<path fill="#232728" d="M50.563,40.521c0,16.037-5.662,10.697-12.65,10.697c-6.987,0-12.65,5.34-12.65-10.697
					c0-9.17,5.666-16.604,12.65-16.604C44.899,23.918,50.563,31.352,50.563,40.521z"/>
				<g>
					<path fill="#232728" d="M34.886,46.445c0,2.477-2.009,15.828-4.486,15.828c-2.475,0-4.482-13.352-4.482-15.828
						c0-2.475,2.008-4.484,4.482-4.484C32.877,41.961,34.886,43.971,34.886,46.445z"/>
					<path fill="#232728" d="M49.91,46.445c0,2.477-2.007,15.828-4.485,15.828c-2.475,0-4.482-13.352-4.482-15.828
						c0-2.475,2.008-4.484,4.482-4.484C47.903,41.961,49.91,43.971,49.91,46.445z"/>
				</g>
				<g>
					<path fill="#383E3F" d="M35.446,62.354c0,1.896-2.26,2.146-5.045,2.146s-5.046-0.25-5.046-2.146s2.261-4.508,5.046-4.508
						S35.446,60.457,35.446,62.354z"/>
					<path fill="#232728" d="M35.446,62.354c0,1.896-2.26,2.146-5.045,2.146s-5.046-0.25-5.046-2.146"/>
				</g>
				<g>
					<path fill="#383E3F" d="M50.472,62.354c0,1.896-2.26,2.146-5.046,2.146c-2.783,0-5.044-0.25-5.044-2.146
						s2.261-4.508,5.044-4.508C48.212,57.846,50.472,60.457,50.472,62.354z"/>
					<path fill="#232728" d="M50.472,62.354c0,1.896-2.26,2.146-5.046,2.146c-2.783,0-5.044-0.25-5.044-2.146"/>
				</g>
				<g>
					<path fill="#232728" d="M36.519,26.369c1.273,1.432,0.465,4.227-1.805,6.248c-2.271,2.018-14.475,10.795-15.75,9.365
						c-1.272-1.434,8.873-12.531,11.143-14.549C32.373,25.414,35.245,24.938,36.519,26.369z"/>
					<path fill="#232728" d="M39.309,26.369c-1.274,1.432-0.467,4.227,1.804,6.248c2.27,2.018,14.475,10.795,15.75,9.365
						c1.271-1.434-8.874-12.531-11.143-14.549C43.452,25.414,40.581,24.938,39.309,26.369z"/>
				</g>
				<rect x="35.288" y="25.832" fill="#E2DED3" width="5.25" height="22.625"/>
				<path fill="#C6BFAF" d="M35.288,30.164c0.857,0.08,1.73,0.131,2.627,0.131c0.894,0,1.769-0.051,2.623-0.131v-4.332h-5.25V30.164
					z"/>
				<polygon fill="#444849" points="38.69,28.248 39.991,41.438 37.913,42.947 35.835,41.438 37.137,28.248 				"/>
				<polyline fill="#232728" points="37.137,28.248 38.69,28.248 39.991,41.438 37.913,42.947 				"/>
				<g>
					<path fill="#422816" d="M54.284,16.275c0,7.998-7.33,12.02-16.369,12.02c-9.042,0-16.374-4.021-16.374-12.02
						c0-8.002,7.332-15.775,16.374-15.775C46.954,0.5,54.284,8.273,54.284,16.275z"/>
					<path fill="#CC8F62" d="M52.284,16.275c0,7.996-7.997,12.02-14.369,12.02c-9.042,0-14.374-4.021-14.374-12.02
						c0-8.002,5.332-3.443,14.374-3.443C46.954,12.832,52.284,8.273,52.284,16.275z"/>
					<path fill="#AF734A" d="M52.284,16.275c0,7.998-5.33,12.02-14.369,12.02c-9.042,0-14.374-4.021-14.374-12.02"/>
				</g>
				<g>
					<g>
						<circle fill="#113E49" cx="30.128" cy="17.82" r="1.463"/>
						<path d="M31.592,17.82c0,0.811-0.655,1.465-1.465,1.465c-0.808,0-1.462-0.654-1.462-1.465"/>
						<g>
							<path fill="#CC8F62" d="M33.018,20.873c-0.079,0-0.159-0.027-0.22-0.09c-0.715-0.715-1.664-1.107-2.673-1.107h-0.001
								c-1.008,0-1.955,0.393-2.667,1.105c-0.12,0.121-0.314,0.125-0.435,0.002c-0.121-0.117-0.125-0.312-0.004-0.434
								c0.831-0.832,1.932-1.291,3.105-1.291h0.001c1.177,0,2.279,0.457,3.112,1.289c0.118,0.119,0.118,0.318,0,0.436
								C33.176,20.846,33.1,20.873,33.018,20.873z"/>
						</g>
					</g>
					<g>
						<circle fill="#113E49" cx="45.699" cy="17.82" r="1.464"/>
						<path d="M44.235,17.82c0,0.811,0.654,1.465,1.465,1.465c0.809,0,1.463-0.654,1.463-1.465"/>
						<g>
							<path fill="#CC8F62" d="M42.812,20.873c0.076,0,0.156-0.027,0.217-0.09c0.714-0.715,1.663-1.107,2.672-1.107h0.002
								c1.007,0,1.957,0.393,2.668,1.105c0.118,0.121,0.314,0.125,0.436,0.002c0.12-0.117,0.123-0.312,0.003-0.434
								c-0.827-0.832-1.933-1.291-3.106-1.291H45.7c-1.175,0-2.278,0.457-3.111,1.289c-0.117,0.119-0.117,0.318,0,0.436
								C42.651,20.846,42.729,20.873,42.812,20.873z"/>
						</g>
					</g>
				</g>
			</g>
			<path fill="#AA1111" d="M34.303,26.182c0-1.303,1.617-2.361,3.609-2.361s3.609,1.059,3.609,2.361
				c0,1.305-1.617,0.525-3.609,0.525S34.303,27.486,34.303,26.182z"/>
		</g>
	</g>
	<g>
		<path fill="#232728" d="M10.557,47.857c0.38,0.381,0.998,0.381,1.378,0l2.987-2.986c0.38-0.381,0.38-0.998,0-1.379l-1.206-1.205
			c-0.381-0.381-0.998-0.381-1.379,0l-2.986,2.986c-0.381,0.381-0.381,0.998,0,1.379L10.557,47.857z"/>
		<path fill="#232728" d="M10.111,46.064c0.136-0.135,0.136-0.354,0-0.49l-1.062-1.061c-0.135-0.137-0.355-0.137-0.49,0L8.13,44.941
			c-0.136,0.137-0.136,0.355,0,0.49l1.062,1.062c0.137,0.135,0.356,0.135,0.492,0L10.111,46.064z"/>
		<path fill="#232728" d="M19.488,43.291c0.381,0.381,0.998,0.381,1.378,0l0.431-0.43c0.381-0.381,0.381-0.998,0-1.379l-1.551-1.551
			c-0.38-0.381-0.997-0.381-1.378,0l-0.432,0.432c-0.38,0.381-0.38,0.998,0,1.377L19.488,43.291z"/>
		<path fill="#232728" d="M19.746,39.932c0.381,0.381,0.381,0.998,0,1.379l-4.997,4.996c-0.38,0.381-0.998,0.381-1.378,0
			l-2.671-2.67c-0.381-0.381-0.381-0.998,0-1.379l4.997-4.998c0.379-0.379,0.996-0.379,1.379,0L19.746,39.932z"/>
		<path fill="#3D4344" d="M10.7,42.258l4.997-4.998c0.379-0.379,0.996-0.379,1.379,0l1.119,1.121c0.381,0.381,0.381,0.998,0,1.379
			l-4.997,4.996c-0.38,0.381-0.998,0.381-1.378,0l-1.12-1.119C10.319,43.256,10.319,42.639,10.7,42.258z"/>
	</g>
</g>
</svg>
