<?xml version="1.0" encoding="utf-8"?>
<!-- Generator: Adobe Illustrator 16.0.0, SVG Export Plug-In . SVG Version: 6.00 Build 0)  -->
<!DOCTYPE svg PUBLIC "-//W3C//DTD SVG 1.1//EN" "http://www.w3.org/Graphics/SVG/1.1/DTD/svg11.dtd">
<svg version="1.1" id="Layer_1" xmlns="http://www.w3.org/2000/svg" xmlns:xlink="http://www.w3.org/1999/xlink" x="0px" y="0px"
	 width="65px" height="65px" viewBox="0 0 65 65" enable-background="new 0 0 65 65" xml:space="preserve">
<g>
	<path fill="#5BC914" d="M30.643,7.166L11.488,18.225c-1.15,0.663-1.857,1.89-1.857,3.216V43.56c0,1.326,0.707,2.553,1.857,3.217
		l19.154,11.06c1.148,0.664,2.564,0.664,3.715,0l19.154-11.06c1.15-0.664,1.857-1.891,1.857-3.217V21.44
		c0-1.326-0.707-2.553-1.857-3.216L34.357,7.166C33.207,6.501,31.791,6.501,30.643,7.166z"/>
	<path fill="#10A077" d="M11.488,46.776l19.154,11.06c1.148,0.664,2.564,0.664,3.715,0l19.154-11.06
		c1.15-0.664,1.857-1.891,1.857-3.217V21.44c0-1.326-0.707-2.553-1.857-3.216L34.357,7.166c-1.15-0.665-2.566-0.665-3.715,0"/>
	<g>
		<g>
			<g>
				<g>
					<path fill="#ABD3DD" d="M38.246,59.529c0,2.746-2.225,4.971-4.969,4.971h-1.555c-2.744,0-4.969-2.225-4.969-4.971V3.296
						c0-2.744,2.225-2.796,4.969-2.796h1.555c2.744,0,4.969,0.052,4.969,2.796V59.529z"/>
					<path fill="#8DC6D3" d="M31.723,0.5h1.555c2.744,0,4.969,0.052,4.969,2.796v56.233c0,2.746-2.225,4.971-4.969,4.971h-1.555"/>
					<path fill="#5B737F" d="M26.754,27.832v31.697c0,2.746,2.225,4.971,4.969,4.971h1.555c2.744,0,4.969-2.225,4.969-4.971V27.832
						H26.754z"/>
					<path fill="#455E68" d="M26.754,59.529c0,2.746,2.225,4.971,4.969,4.971h1.555c2.744,0,4.969-2.225,4.969-4.971V30.082H26.754
						V59.529z"/>
					<path fill="#2C4147" d="M31.723,64.5h1.555c2.744,0,4.969-2.225,4.969-4.971V30.082h-6.523V64.5z"/>
					<path fill="#8DC6D3" d="M37.719,14.078l0.527-0.527V3.296c0-2.744-2.225-2.796-4.969-2.796h-1.555
						c-2.682,0-4.854,0.067-4.951,2.632L37.719,14.078z"/>
					<path fill="#C4E3E8" d="M40.266,1.742c0,0.687-0.555,1.243-1.242,1.243H25.977c-0.688,0-1.242-0.557-1.242-1.243l0,0
						c0-0.685,0.555-1.242,1.242-1.242h13.047C39.711,0.5,40.266,1.058,40.266,1.742L40.266,1.742z"/>
					<path fill="#ABD3DD" d="M40.266,1.742L40.266,1.742c0,0.687-0.555,1.243-1.242,1.243H25.977c-0.688,0-1.242-0.557-1.242-1.243
						l0,0"/>
					<g>
						<path fill="#C4E3E8" d="M33.018,8.397c0,0.173-0.139,0.312-0.309,0.312h-4.143c-0.172,0-0.311-0.139-0.311-0.312l0,0
							c0-0.172,0.139-0.31,0.311-0.31h4.143C32.879,8.088,33.018,8.226,33.018,8.397L33.018,8.397z"/>
						<path fill="#C4E3E8" d="M30.531,10.778c0,0.173-0.137,0.311-0.309,0.311h-1.656c-0.172,0-0.311-0.138-0.311-0.311l0,0
							c0-0.172,0.139-0.31,0.311-0.31h1.656C30.395,10.469,30.531,10.606,30.531,10.778L30.531,10.778z"/>
					</g>
					<g>
						<path fill="#C4E3E8" d="M33.018,13.058c0,0.173-0.139,0.311-0.309,0.311h-4.143c-0.172,0-0.311-0.138-0.311-0.311l0,0
							c0-0.173,0.139-0.311,0.311-0.311h4.143C32.879,12.747,33.018,12.885,33.018,13.058L33.018,13.058z"/>
						<path fill="#C4E3E8" d="M30.531,15.438c0,0.173-0.137,0.312-0.309,0.312h-1.656c-0.172,0-0.311-0.14-0.311-0.312l0,0
							c0-0.172,0.139-0.31,0.311-0.31h1.656C30.395,15.129,30.531,15.267,30.531,15.438L30.531,15.438z"/>
					</g>
					<g>
						<path fill="#C4E3E8" d="M33.018,17.718c0,0.172-0.139,0.312-0.309,0.312h-4.143c-0.172,0-0.311-0.141-0.311-0.312l0,0
							c0-0.172,0.139-0.311,0.311-0.311h4.143C32.879,17.407,33.018,17.546,33.018,17.718L33.018,17.718z"/>
						<path fill="#C4E3E8" d="M30.531,20.099c0,0.175-0.137,0.311-0.309,0.311h-1.656c-0.172,0-0.311-0.136-0.311-0.311l0,0
							c0-0.172,0.139-0.308,0.311-0.308h1.656C30.395,19.791,30.531,19.927,30.531,20.099L30.531,20.099z"/>
					</g>
					<g>
						<path fill="#C4E3E8" d="M33.018,22.378c0,0.174-0.139,0.311-0.309,0.311h-4.143c-0.172,0-0.311-0.137-0.311-0.311l0,0
							c0-0.172,0.139-0.31,0.311-0.31h4.143C32.879,22.068,33.018,22.206,33.018,22.378L33.018,22.378z"/>
						<path fill="#C4E3E8" d="M30.531,24.759c0,0.172-0.137,0.312-0.309,0.312h-1.656c-0.172,0-0.311-0.141-0.311-0.312l0,0
							c0-0.172,0.139-0.311,0.311-0.311h1.656C30.395,24.448,30.531,24.587,30.531,24.759L30.531,24.759z"/>
					</g>
					<g>
						<path fill="#C4E3E8" d="M33.018,27.038c0,0.173-0.139,0.312-0.309,0.312h-4.143c-0.172,0-0.311-0.14-0.311-0.312l0,0
							c0-0.172,0.139-0.311,0.311-0.311h4.143C32.879,26.728,33.018,26.866,33.018,27.038L33.018,27.038z"/>
						<path fill="#C4E3E8" d="M30.531,29.419c0,0.172-0.137,0.312-0.309,0.312h-1.656c-0.172,0-0.311-0.141-0.311-0.312l0,0
							c0-0.169,0.139-0.31,0.311-0.31h1.656C30.395,29.109,30.531,29.25,30.531,29.419L30.531,29.419z"/>
					</g>
					<g>
						<path fill="#C4E3E8" d="M33.018,31.7c0,0.171-0.139,0.311-0.309,0.311h-4.143c-0.172,0-0.311-0.14-0.311-0.311l0,0
							c0-0.173,0.139-0.312,0.311-0.312h4.143C32.879,31.389,33.018,31.527,33.018,31.7L33.018,31.7z"/>
						<path fill="#C4E3E8" d="M30.531,34.079c0,0.173-0.137,0.312-0.309,0.312h-1.656c-0.172,0-0.311-0.14-0.311-0.312l0,0
							c0-0.172,0.139-0.31,0.311-0.31h1.656C30.395,33.77,30.531,33.907,30.531,34.079L30.531,34.079z"/>
					</g>
					<g>
						<path fill="#C4E3E8" d="M33.018,36.358c0,0.173-0.139,0.312-0.309,0.312h-4.143c-0.172,0-0.311-0.139-0.311-0.312l0,0
							c0-0.173,0.139-0.311,0.311-0.311h4.143C32.879,36.048,33.018,36.186,33.018,36.358L33.018,36.358z"/>
						<path fill="#C4E3E8" d="M30.531,38.741c0,0.172-0.137,0.311-0.309,0.311h-1.656c-0.172,0-0.311-0.139-0.311-0.311l0,0
							c0-0.173,0.139-0.312,0.311-0.312h1.656C30.395,38.43,30.531,38.568,30.531,38.741L30.531,38.741z"/>
					</g>
					<g>
						<path fill="#C4E3E8" d="M33.018,41.02c0,0.173-0.139,0.311-0.309,0.311h-4.143c-0.172,0-0.311-0.138-0.311-0.311l0,0
							c0-0.172,0.139-0.311,0.311-0.311h4.143C32.879,40.709,33.018,40.848,33.018,41.02L33.018,41.02z"/>
						<path fill="#C4E3E8" d="M30.531,43.399c0,0.173-0.137,0.312-0.309,0.312h-1.656c-0.172,0-0.311-0.139-0.311-0.312l0,0
							c0-0.173,0.139-0.311,0.311-0.311h1.656C30.395,43.089,30.531,43.227,30.531,43.399L30.531,43.399z"/>
					</g>
					<g>
						<path fill="#C4E3E8" d="M33.018,45.679c0,0.172-0.139,0.312-0.309,0.312h-4.143c-0.172,0-0.311-0.14-0.311-0.312l0,0
							c0-0.171,0.139-0.311,0.311-0.311h4.143C32.879,45.368,33.018,45.508,33.018,45.679L33.018,45.679z"/>
						<path fill="#C4E3E8" d="M30.531,48.061c0,0.173-0.137,0.311-0.309,0.311h-1.656c-0.172,0-0.311-0.138-0.311-0.311l0,0
							c0-0.172,0.139-0.311,0.311-0.311h1.656C30.395,47.75,30.531,47.889,30.531,48.061L30.531,48.061z"/>
					</g>
					<g>
						<path fill="#C4E3E8" d="M33.018,50.34c0,0.172-0.139,0.312-0.309,0.312h-4.143c-0.172,0-0.311-0.14-0.311-0.312l0,0
							c0-0.173,0.139-0.312,0.311-0.312h4.143C32.879,50.028,33.018,50.167,33.018,50.34L33.018,50.34z"/>
						<path fill="#C4E3E8" d="M30.531,52.721c0,0.173-0.137,0.311-0.309,0.311h-1.656c-0.172,0-0.311-0.138-0.311-0.311l0,0
							c0-0.172,0.139-0.311,0.311-0.311h1.656C30.395,52.41,30.531,52.549,30.531,52.721L30.531,52.721z"/>
					</g>
					<g>
						<path fill="#C4E3E8" d="M33.018,55c0,0.172-0.139,0.31-0.309,0.31h-4.143c-0.172,0-0.311-0.138-0.311-0.31l0,0
							c0-0.173,0.139-0.311,0.311-0.311h4.143C32.879,54.689,33.018,54.827,33.018,55L33.018,55z"/>
						<path fill="#C4E3E8" d="M30.531,57.381c0,0.172-0.137,0.312-0.309,0.312h-1.656c-0.172,0-0.311-0.14-0.311-0.312l0,0
							c0-0.172,0.139-0.312,0.311-0.312h1.656C30.395,57.069,30.531,57.209,30.531,57.381L30.531,57.381z"/>
					</g>
				</g>
			</g>
		</g>
	</g>
</g>
</svg>
