<?xml version="1.0" encoding="utf-8"?>
<!-- Generator: Adobe Illustrator 16.0.0, SVG Export Plug-In . SVG Version: 6.00 Build 0)  -->
<!DOCTYPE svg PUBLIC "-//W3C//DTD SVG 1.1//EN" "http://www.w3.org/Graphics/SVG/1.1/DTD/svg11.dtd">
<svg version="1.1" xmlns="http://www.w3.org/2000/svg" xmlns:xlink="http://www.w3.org/1999/xlink" x="0px" y="0px" width="65px"
	 height="65px" viewBox="0 0 65 65" enable-background="new 0 0 65 65" xml:space="preserve">
<g id="Layer_1">
	<g>
		<ellipse fill="#65930C" cx="31.981" cy="62.727" rx="22.692" ry="1.773"/>
		<path fill="#92A5A5" d="M22.053,61.995c0,1.175-0.951,0.731-2.127,0.731l0,0c-1.174,0-2.127,0.443-2.127-0.731V2.627
			c0-1.175,0.953-2.127,2.127-2.127l0,0c1.176,0,2.127,0.952,2.127,2.127V61.995z"/>
		<path fill="#798E8D" d="M19.926,0.5L19.926,0.5c1.176,0,2.127,0.952,2.127,2.127v59.368c0,1.175-0.951,0.731-2.127,0.731l0,0"/>
		<polygon fill="#FF4800" points="21.143,2.861 21.143,29.517 55.711,16.189 		"/>
		<polygon fill="#CC3715" points="21.143,12.333 21.143,29.517 55.711,16.189 		"/>
	</g>
</g>
<g id="nyt_x5F_exporter_x5F_info" display="none">
</g>
</svg>
