<?xml version="1.0" encoding="utf-8"?>
<!-- Generator: Adobe Illustrator 16.0.0, SVG Export Plug-In . SVG Version: 6.00 Build 0)  -->
<!DOCTYPE svg PUBLIC "-//W3C//DTD SVG 1.1//EN" "http://www.w3.org/Graphics/SVG/1.1/DTD/svg11.dtd">
<svg version="1.1" id="Layer_1" xmlns="http://www.w3.org/2000/svg" xmlns:xlink="http://www.w3.org/1999/xlink" x="0px" y="0px"
	 width="64px" height="64px" viewBox="0 0 64 64" enable-background="new 0 0 64 64" xml:space="preserve">
<g>
	<g>
		<g>
			<path fill="#C92B00" d="M62.9,34.7c0,15.5-13.8,25.5-30.9,25.5c-17.1,0-30.9-10-30.9-25.5c0-15.5,13.8-21.6,30.9-21.6
				C49.1,13.1,62.9,19.2,62.9,34.7z"/>
		</g>
		<g>
			<path fill="#A01C02" d="M32,13.1c17.1,0,30.9,6,30.9,21.6c0,15.5-13.8,25.5-30.9,25.5"/>
		</g>
		<g>
			<path fill="#871506" d="M32,13.1c17.1,0,30.9,6,30.9,21.6"/>
		</g>
		<g>
			<ellipse transform="matrix(0.8679 -0.4967 0.4967 0.8679 -9.6011 9.8391)" fill="#EF4220" cx="13.7" cy="23" rx="8.6" ry="3.2"/>
		</g>
		<g>
			<ellipse transform="matrix(0.868 -0.4966 0.4966 0.868 -15.47 7.2624)" fill="#EF4220" cx="5.9" cy="32.7" rx="1.9" ry="2"/>
		</g>
		<g>
			<ellipse fill="#5EA304" cx="32" cy="14.3" rx="13.2" ry="3.8"/>
		</g>
		<g>
			<ellipse fill="#388C02" cx="32" cy="13.2" rx="11.7" ry="2.7"/>
		</g>
		<g>
			<g>
				<polygon fill="#5EA304" points="26.7,17.8 32,23.1 37.3,17.8 				"/>
			</g>
			<g>
				<polygon fill="#388C02" points="31.2,17.8 32,23.1 37.3,17.8 				"/>
			</g>
		</g>
		<g>
			<g>
				<g>
					<polygon fill="#5EA304" points="18.9,14.7 21.7,20.4 27.3,17.5 					"/>
				</g>
				<g>
					<polygon fill="#388C02" points="22.5,15.9 21.7,20.4 27.3,17.5 					"/>
				</g>
			</g>
			<g>
				<g>
					<polygon fill="#388C02" points="45.1,14.7 42.3,20.4 36.7,17.5 					"/>
				</g>
				<g>
					<polygon fill="#5EA304" points="41.5,15.9 42.3,20.4 36.7,17.5 					"/>
				</g>
			</g>
		</g>
		<g>
			<polygon fill="#388C02" points="34.4,12.2 29.6,12.2 30.6,4.2 33.4,4.2 			"/>
		</g>
		<g>
			<polyline fill="#036D2E" points="30.6,4.2 33.4,4.2 34.4,12.2 			"/>
		</g>
		<g>
			<ellipse fill="#5EA304" cx="32" cy="4.3" rx="1.4" ry="0.4"/>
		</g>
		<g>
			
				<ellipse transform="matrix(0.9882 -0.1529 0.1529 0.9882 -1.5881 4.0563)" fill="#5EA304" cx="25.6" cy="12.4" rx="2.9" ry="0.8"/>
		</g>
	</g>
	<g>
		<g>
			<g>
				<ellipse fill="#A01C02" cx="21.6" cy="35.1" rx="3.2" ry="2"/>
			</g>
			<g>
				<ellipse fill="#721104" cx="42.4" cy="35.1" rx="3.2" ry="2"/>
			</g>
			<g>
				<ellipse fill="#F9F080" cx="21.6" cy="34.5" rx="3.2" ry="2"/>
			</g>
			<g>
				<path fill="#F4CF31" d="M21.6,32.6c1.8,0,3.2,0.9,3.2,2s-1.4,2-3.2,2"/>
			</g>
			<g>
				<ellipse fill="#F9F080" cx="42.4" cy="34.5" rx="3.2" ry="2"/>
			</g>
			<g>
				<path fill="#F4CF31" d="M42.4,32.6c1.8,0,3.2,0.9,3.2,2s-1.4,2-3.2,2"/>
			</g>
		</g>
		<g>
			<g>
				<g>
					<g>
						<g>
							<g>
								<path fill="#5EA304" d="M25.2,32.4c-0.3,0.8-1.5-0.2-3.2-0.9c-1.7-0.7-3.2-0.9-2.8-1.7c0.3-0.8,2-0.9,3.6-0.2
									C24.5,30.4,25.5,31.6,25.2,32.4z"/>
							</g>
						</g>
					</g>
				</g>
				<g>
					<g>
						<g>
							<g>
								<path fill="#5EA304" d="M38.7,28.7c0.4,0.8,1.5-0.3,3.1-1.2c1.6-0.9,3.1-1.2,2.7-1.9c-0.4-0.8-2-0.7-3.6,0.2
									C39.2,26.7,38.3,28,38.7,28.7z"/>
							</g>
						</g>
					</g>
				</g>
			</g>
			<g>
				<g>
					<g>
						<g>
							<g>
								<path fill="#388C02" d="M25.2,32.4c-0.3,0.8-1.5-0.2-3.2-0.9c-1.7-0.7-3.2-0.9-2.8-1.7"/>
							</g>
						</g>
					</g>
				</g>
				<g>
					<g>
						<g>
							<g>
								<path fill="#388C02" d="M38.7,28.7c0.4,0.8,1.5-0.3,3.1-1.2c1.6-0.9,3.1-1.2,2.7-1.9"/>
							</g>
						</g>
					</g>
				</g>
			</g>
		</g>
		<g>
			<g>
				<path fill="#EF4220" d="M27.8,38.7c0,1.2-3.5,0.7-7.8,0.7c-4.3,0-7.8,0.6-7.8-0.7c0-1.2,3.5-2.2,7.8-2.2
					C24.3,36.5,27.8,37.5,27.8,38.7z"/>
			</g>
			<g>
				<path fill="#C92B00" d="M51.8,38.7c0,1.2-3.5,0.7-7.8,0.7s-7.8,0.6-7.8-0.7c0-1.2,3.5-2.2,7.8-2.2S51.8,37.5,51.8,38.7z"/>
			</g>
		</g>
	</g>
	<g>
		<g>
			<path fill="#388C02" d="M41.2,40c0,4.6-4.1,8.4-9.2,8.4s-9.2-3.8-9.2-8.4"/>
		</g>
		<g>
			<path fill="#036D2E" d="M41.2,40c0,1.6-4.1,2.8-9.2,2.8s-9.2-1.3-9.2-2.8"/>
		</g>
		<g>
			<path fill="#5EA304" d="M32,48.4c2.8,0,5.4-1.2,7.1-3c-1-1.1-2.6-1.7-4.3-1.7c-1,0-2,0.2-2.8,0.7c-0.8-0.4-1.8-0.7-2.8-0.7
				c-1.7,0-3.2,0.7-4.3,1.7C26.6,47.2,29.2,48.4,32,48.4z"/>
		</g>
	</g>
</g>
</svg>
