<?xml version="1.0" encoding="utf-8"?>
<!-- Generator: Adobe Illustrator 16.0.0, SVG Export Plug-In . SVG Version: 6.00 Build 0)  -->
<!DOCTYPE svg PUBLIC "-//W3C//DTD SVG 1.1//EN" "http://www.w3.org/Graphics/SVG/1.1/DTD/svg11.dtd">
<svg version="1.1" xmlns="http://www.w3.org/2000/svg" xmlns:xlink="http://www.w3.org/1999/xlink" x="0px" y="0px" width="65px"
	 height="65px" viewBox="0 0 65 65" enable-background="new 0 0 65 65" xml:space="preserve">
<g id="Layer_1">
	<g>
		<g>
			<path fill="#63706F" d="M41.083,11.884h-2V6.05c0-1.654-1.346-3-3-3h-7.166c-1.654,0-3,1.346-3,3v5.834h-2V6.05
				c0-2.756,2.243-5,5-5h7.166c2.756,0,5,2.244,5,5V11.884z"/>
		</g>
		<path fill="#6B482E" d="M58.332,4.423c0.392,0.391,0.392,1.023,0,1.414l0,0c-0.392,0.391-1.022,0.391-1.414,0l-3.535-3.535
			c-0.391-0.391-0.391-1.023,0-1.414l0,0c0.39-0.391,1.022-0.391,1.414,0L58.332,4.423z"/>
		<g>
			<g>
				<path fill="#825E40" d="M8.874,62.987c0,0.691-0.559,1.25-1.249,1.25l0,0c-0.69,0-1.251-0.559-1.251-1.25v-57.5
					c0-0.689,0.561-1.25,1.251-1.25l0,0c0.69,0,1.249,0.561,1.249,1.25V62.987z"/>
				<path fill="#6B482E" d="M8.582,4.423c0.392,0.391,0.392,1.023,0,1.414l0,0c-0.391,0.391-1.022,0.391-1.415,0L3.633,2.302
					c-0.392-0.391-0.392-1.023,0-1.414l0,0c0.391-0.391,1.023-0.391,1.413,0L8.582,4.423z"/>
				<path fill="#492D1A" d="M63.688,3.862c0,0.381-0.308,0.688-0.688,0.688h-61c-0.379,0-0.688-0.307-0.688-0.688l0,0
					c0-0.379,0.309-0.688,0.688-0.688h61C63.38,3.175,63.688,3.483,63.688,3.862L63.688,3.862z"/>
				<path fill="#825E40" d="M6.669,4.423c-0.393,0.391-0.393,1.023,0,1.414l0,0c0.391,0.391,1.022,0.391,1.413,0l3.535-3.535
					c0.39-0.391,0.39-1.023,0-1.414l0,0c-0.391-0.391-1.023-0.391-1.415,0L6.669,4.423z"/>
			</g>
			<g>
				<path fill="#825E40" d="M58.625,62.987c0,0.691-0.56,1.25-1.251,1.25l0,0c-0.689,0-1.249-0.559-1.249-1.25v-57.5
					c0-0.689,0.56-1.25,1.249-1.25l0,0c0.691,0,1.251,0.561,1.251,1.25V62.987z"/>
				<path fill="#825E40" d="M56.418,4.423c-0.391,0.391-0.391,1.023,0,1.414l0,0c0.392,0.391,1.022,0.391,1.413,0l3.536-3.535
					c0.391-0.391,0.391-1.023,0-1.414l0,0c-0.392-0.391-1.024-0.391-1.414,0L56.418,4.423z"/>
			</g>
		</g>
		<g>
			<g>
				<path fill="#5E3E27" d="M38.671,62.249l-3.514-9.182h-3.4l3.949,10.318c0.312,0.816,1.23,1.227,2.049,0.914
					C38.575,63.985,38.983,63.069,38.671,62.249z"/>
				<g>
					<path fill="#5E3E27" d="M26.329,62.249l3.514-9.182h3.398l-3.947,10.318c-0.312,0.816-1.23,1.227-2.051,0.914
						C26.425,63.985,26.017,63.069,26.329,62.249z"/>
				</g>
			</g>
			<g>
				<path fill="#A57450" d="M32.53,51.401c0.619,0.621,0.619,1.625,0,2.246L22.292,63.886c-0.621,0.619-1.627,0.619-2.246,0l0,0
					c-0.619-0.621-0.619-1.625,0-2.246l10.238-10.238C30.903,50.782,31.909,50.782,32.53,51.401L32.53,51.401z"/>
				<path fill="#825E40" d="M32.53,51.401L32.53,51.401c0.619,0.621,0.619,1.625,0,2.246L22.292,63.886
					c-0.621,0.619-1.627,0.619-2.246,0l0,0c-0.619-0.621-0.619-1.625,0-2.246"/>
				<path fill="#825E40" d="M32.472,51.401c-0.621,0.621-0.621,1.625,0,2.246l10.236,10.238c0.621,0.619,1.627,0.619,2.246,0l0,0
					c0.619-0.621,0.619-1.625,0-2.246L34.716,51.401C34.095,50.782,33.091,50.782,32.472,51.401L32.472,51.401z"/>
			</g>
			<path fill="#A57450" d="M32.501,50.06c0.875,0,1.586,0.711,1.586,1.588v11.115c0,0.875-0.711,1.588-1.586,1.588l0,0
				c-0.877,0-1.59-0.711-1.59-1.588l0.002-11.115C30.911,50.771,31.624,50.06,32.501,50.06L32.501,50.06z"/>
			<path fill="#825E40" d="M32.501,50.06L32.501,50.06c0.875,0,1.586,0.711,1.586,1.588v11.115c0,0.875-0.711,1.588-1.586,1.588l0,0
				c-0.877,0-1.59-0.711-1.59-1.588"/>
			<g>
				<g>
					<g>
						<path fill="#FF7F00" d="M32.515,37.421c-2.729,0.582-4.826,4.014-4.826,8.174c0,4.158,2.098,5.57,4.826,5.789V37.421z"/>
					</g>
					<path fill="#FF4800" d="M32.487,37.421c2.727,0.582,4.824,4.014,4.824,8.174c0,4.158-2.098,5.57-4.824,5.789V37.421z"/>
				</g>
				<g>
					<g>
						<path fill="#FFBC00" d="M32.511,42.36c-1.766,0.373-3.119,2.592-3.119,5.279c0,2.691,1.354,3.602,3.119,3.744V42.36z"/>
					</g>
					<path fill="#FF7F00" d="M32.493,42.36c1.76,0.373,3.115,2.592,3.115,5.279c0,2.691-1.355,3.602-3.115,3.744V42.36z"/>
				</g>
				<path fill="#B73D13" d="M32.501,50.06c-0.688,0-1.268,0.439-1.488,1.051c0.461,0.141,0.955,0.227,1.475,0.27v0.004
					c0.006-0.002,0.01-0.002,0.01-0.002c0.008,0,0.014,0,0.018,0.002V51.38c0.518-0.043,1.012-0.129,1.473-0.27
					C33.767,50.499,33.187,50.06,32.501,50.06z"/>
			</g>
			<circle fill="#FF7F00" cx="26.884" cy="51.397" r="0.525"/>
			<circle fill="#FF7F00" cx="25.062" cy="45.022" r="1.156"/>
			<circle fill="#FF7F00" cx="26.077" cy="49.12" r="0.49"/>
			<circle fill="#FFBC00" cx="26.604" cy="46.774" r="0.175"/>
			<circle fill="#FFBC00" cx="25.622" cy="40.538" r="0.736"/>
			<circle fill="#FFBC00" cx="39.038" cy="50.241" r="1.051"/>
			<circle fill="#FFBC00" cx="40.159" cy="45.128" r="0.561"/>
			<circle fill="#FFBC00" cx="33.084" cy="33.638" r="1.401"/>
			<circle fill="#FF7F00" cx="38.197" cy="39.942" r="0.7"/>
			<circle fill="#FF7F00" cx="36.551" cy="51.187" r="0.175"/>
			<circle fill="#FFBC00" cx="28.564" cy="37.106" r="0.386"/>
			<circle fill="#FFBC00" cx="37.076" cy="36.651" r="0.14"/>
			<circle fill="#FFBC00" cx="31.297" cy="35.634" r="0.315"/>
			<circle fill="#FFBC00" cx="29.86" cy="32.097" r="0.631"/>
		</g>
		<g>
			<polygon fill="#65930C" points="7.671,64.405 4.086,60.819 0.5,64.405 			"/>
			<polygon fill="#65930C" points="12.042,64.405 8.457,60.819 4.87,64.405 			"/>
			<polygon fill="#65930C" points="16.414,64.405 12.828,60.819 9.241,64.405 			"/>
			<polygon fill="#65930C" points="20.785,64.405 17.201,60.819 13.615,64.405 			"/>
			<polygon fill="#65930C" points="25.156,64.405 21.572,60.819 17.985,64.405 			"/>
			<polygon fill="#65930C" points="29.527,64.405 25.943,60.819 22.356,64.405 			"/>
			<polygon fill="#65930C" points="33.9,64.405 30.314,60.819 26.728,64.405 			"/>
			<polygon fill="#65930C" points="38.271,64.405 34.685,60.819 31.101,64.405 			"/>
			<polygon fill="#65930C" points="42.644,64.405 39.06,60.819 35.474,64.405 			"/>
			<polygon fill="#65930C" points="47.014,64.405 43.43,60.819 39.843,64.405 			"/>
			<polygon fill="#65930C" points="51.384,64.405 47.802,60.819 44.215,64.405 			"/>
			<polygon fill="#65930C" points="55.758,64.405 52.171,60.819 48.586,64.405 			"/>
			<polygon fill="#65930C" points="60.129,64.405 56.542,60.819 52.957,64.405 			"/>
			<polygon fill="#65930C" points="64.5,64.405 60.914,60.819 57.328,64.405 			"/>
		</g>
		<g>
			<path fill="#8A9998" d="M22.513,12.532V24.88c0,2.408,1.951,4.359,4.357,4.359h11.26c2.406,0,4.357-1.951,4.357-4.359V12.532
				H22.513z"/>
			<path fill="#788786" d="M38.13,29.239c2.406,0,4.357-1.951,4.357-4.359V12.532H22.513"/>
		</g>
		<g>
			<path fill="#788786" d="M41.083,11.884h-2V6.05c0-1.654-1.346-3-3-3h-7.166v-2h7.166c2.756,0,5,2.244,5,5V11.884z"/>
		</g>
		<path fill="#8A9998" d="M43.872,11.94c0,0.527-0.428,0.953-0.953,0.953H22.081c-0.527,0-0.953-0.426-0.953-0.953l0,0
			c0-0.525,0.426-0.953,0.953-0.953h20.838C43.444,10.987,43.872,11.415,43.872,11.94L43.872,11.94z"/>
	</g>
</g>
<g id="nyt_x5F_exporter_x5F_info" display="none">
</g>
</svg>
