<?xml version="1.0" encoding="utf-8"?>
<!-- Generator: Adobe Illustrator 16.0.0, SVG Export Plug-In . SVG Version: 6.00 Build 0)  -->
<!DOCTYPE svg PUBLIC "-//W3C//DTD SVG 1.1//EN" "http://www.w3.org/Graphics/SVG/1.1/DTD/svg11.dtd">
<svg version="1.1" xmlns="http://www.w3.org/2000/svg" xmlns:xlink="http://www.w3.org/1999/xlink" x="0px" y="0px" width="65px"
	 height="65px" viewBox="0 0 65 65" enable-background="new 0 0 65 65" xml:space="preserve">
<g id="Layer_1">
	<g>
		<g>
			<g>
				<g>
					<polygon fill="#43FFE4" points="3.019,58.035 32.501,58.035 17.76,32.501 					"/>
				</g>
				<g>
					<path fill="#5A407A" d="M32.501,60.535H3.019c-0.894,0-1.719-0.477-2.165-1.25c-0.447-0.773-0.447-1.727,0-2.5l14.742-25.533
						c0.446-0.773,1.271-1.25,2.164-1.25l0,0c0.895,0,1.72,0.477,2.166,1.25l14.74,25.533c0.446,0.773,0.446,1.727,0,2.5
						S33.395,60.535,32.501,60.535z M7.349,55.535h20.822L17.76,37.501L7.349,55.535z"/>
				</g>
			</g>
			<g>
				<g>
					<polygon fill="#43FFE4" points="47.242,32.5 32.501,58.035 61.985,58.035 					"/>
				</g>
				<g>
					<path fill="#5A407A" d="M61.985,60.535H32.501c-0.894,0-1.719-0.477-2.165-1.25c-0.447-0.773-0.447-1.727,0-2.5L45.078,31.25
						C45.524,30.476,46.35,30,47.242,30c0.895,0,1.72,0.477,2.166,1.25L64.15,56.785c0.445,0.773,0.445,1.727,0,2.5
						C63.703,60.058,62.879,60.535,61.985,60.535z M36.83,55.535h20.824L47.242,37.5L36.83,55.535z"/>
				</g>
			</g>
			<g>
				<g>
					<polygon fill="#43FFE4" points="3.018,6.966 17.76,32.501 32.501,6.966 					"/>
				</g>
				<g>
					<path fill="#5A407A" d="M17.76,35.001c-0.893,0-1.718-0.477-2.164-1.25L0.852,8.216c-0.446-0.773-0.446-1.727,0-2.5
						s1.271-1.25,2.166-1.25h29.483c0.894,0,1.719,0.477,2.165,1.25s0.446,1.727,0,2.5l-14.74,25.535
						C19.479,34.525,18.654,35.001,17.76,35.001z M7.347,9.466L17.76,27.501L28.171,9.466H7.347z"/>
				</g>
			</g>
			<g>
				<g>
					<polygon fill="#43FFE4" points="61.982,6.966 32.501,6.966 47.242,32.5 					"/>
				</g>
				<g>
					<path fill="#5A407A" d="M47.242,35c-0.893,0-1.718-0.477-2.164-1.25L30.336,8.216c-0.447-0.773-0.447-1.727,0-2.5
						c0.446-0.773,1.271-1.25,2.165-1.25h29.481c0.895,0,1.72,0.477,2.166,1.25s0.446,1.727,0,2.5L49.408,33.75
						C48.962,34.523,48.137,35,47.242,35z M36.83,9.466L47.242,27.5L57.653,9.466H36.83z"/>
				</g>
			</g>
			<g>
				<g>
					<polygon fill="#FF64BD" points="32.501,6.966 17.76,32.501 32.501,58.035 47.242,32.5 					"/>
				</g>
				<g>
					<path fill="#5A407A" d="M32.501,60.535L32.501,60.535c-0.894,0-1.719-0.477-2.165-1.25l-14.74-25.533
						c-0.446-0.773-0.446-1.727,0-2.5l14.74-25.535c0.446-0.773,1.271-1.25,2.165-1.25s1.719,0.477,2.165,1.25L49.408,31.25
						c0.445,0.773,0.445,1.727,0,2.5L34.666,59.285C34.22,60.058,33.395,60.535,32.501,60.535z M20.647,32.501l11.854,20.533
						L44.356,32.5L32.501,11.966L20.647,32.501z"/>
				</g>
			</g>
			<g>
				<g>
					<polyline fill="#DD4394" points="32.501,58.035 47.242,32.5 32.501,6.966 					"/>
				</g>
				<g>
					<path fill="#5A407A" d="M32.499,60.535c-0.425,0-0.854-0.107-1.248-0.335c-1.195-0.69-1.606-2.22-0.915-3.415L44.356,32.5
						L30.336,8.216c-0.691-1.195-0.28-2.725,0.915-3.415c1.193-0.69,2.726-0.281,3.415,0.915L49.408,31.25
						c0.445,0.773,0.445,1.727,0,2.5L34.666,59.285C34.203,60.086,33.361,60.535,32.499,60.535z"/>
				</g>
			</g>
		</g>
		<g>
			<g>
				<circle fill="#43FFE4" cx="7.309" cy="28.437" r="1.062"/>
			</g>
			<g>
				<circle fill="#43FFE4" cx="7.309" cy="32.5" r="1.062"/>
			</g>
			<g>
				<circle fill="#43FFE4" cx="7.309" cy="36.562" r="1.062"/>
			</g>
		</g>
	</g>
</g>
<g id="nyt_x5F_exporter_x5F_info" display="none">
</g>
</svg>
