<?xml version="1.0" encoding="utf-8"?>
<!-- Generator: Adobe Illustrator 16.0.0, SVG Export Plug-In . SVG Version: 6.00 Build 0)  -->
<!DOCTYPE svg PUBLIC "-//W3C//DTD SVG 1.1//EN" "http://www.w3.org/Graphics/SVG/1.1/DTD/svg11.dtd">
<svg version="1.1" id="Layer_1" xmlns="http://www.w3.org/2000/svg" xmlns:xlink="http://www.w3.org/1999/xlink" x="0px" y="0px"
	 width="66px" height="66px" viewBox="0 0 66 66" enable-background="new 0 0 66 66" xml:space="preserve">
<g>
	<g>
		<g>
			<path fill="#199B94" d="M8.6,25.7c0,0,0.2-17.5,3-23.4l7.8,21.8L15.3,26L8.6,25.7z"/>
			<path fill="#102D35" d="M12.6,29.7c0,0-3.6-20.9-0.8-28.9c0,0,5.2,7,5.6,10.1l2.8-2.6l0.2,3.1l1.9-2.4l0.2,1.5l2-0.8l0.4,1
				l3.9-0.2l-1,9.6l-9.1,8.5L12.6,29.7z"/>
		</g>
		<g>
			<path fill="#199B94" d="M57.4,25.7c0,0-0.2-17.5-3-23.4l-7.8,21.8l4.1,1.9L57.4,25.7z"/>
			<path fill="#102D35" d="M53.4,29.7c0,0,3.6-20.9,0.8-28.9c0,0-5.2,7-5.6,10.1l-2.8-2.6l-0.2,3.1l-1.9-2.4l-0.2,1.5l-2-0.8l-0.4,1
				l-3.9-0.2l1,9.6l9.1,8.5L53.4,29.7z"/>
		</g>
	</g>
	<g>
		<g>
			<polygon fill="#102D35" points="13.2,35.6 8.6,28.5 7.8,34.4 3.8,34.2 6.9,37.5 2.3,40 13.9,48.1 10.5,52.9 15,50.6 15,53.5 
				17.2,51.9 17.2,53.4 18.6,52.7 20.3,55.1 15.5,39.6 			"/>
			<polygon fill="#102D35" points="12,25 9,17 7,22.7 3.1,21.6 5.4,25.5 0.4,26.9 10,37.3 5.6,41.3 10.4,40 9.7,42.8 12.3,41.7 
				12,43.2 13.6,42.9 14.7,45.6 13.4,29.3 			"/>
		</g>
		<g>
			<polygon fill="#102D35" points="52.8,35.6 57.4,28.5 58.2,34.4 62.2,34.2 59.1,37.5 63.7,40 52.1,48.1 55.5,52.9 51,50.6 
				51,53.5 48.8,51.9 48.8,53.4 47.4,52.7 45.7,55.1 50.5,39.6 			"/>
			<polygon fill="#102D35" points="54,25 57,17 59,22.7 62.9,21.6 60.6,25.5 65.6,26.9 56,37.3 60.4,41.3 55.6,40 56.3,42.8 
				53.7,41.7 54,43.2 52.4,42.9 51.3,45.6 52.6,29.3 			"/>
		</g>
	</g>
	<path fill="#102D35" d="M55.7,29.2C55.7,18.4,45.5,9.6,33,9.6c-12.5,0-22.7,8.8-22.7,19.7c0,5.2,2.3,11.2,6,16.1
		C18.4,55,25.1,65.1,33,65.1c7.9,0,14.6-10.1,16.6-19.8C53.4,40.4,55.7,34.4,55.7,29.2z"/>
	<path fill="#3EC1B1" d="M39,54c0,2.3-2.7,4.1-6,4.1s-6-1.8-6-4.1c0-2.3,2.7-2.1,6-2.1S39,51.7,39,54z"/>
	<path fill="#199B94" d="M39,54c0,2.3-2.7,4.1-6,4.1s-6-1.8-6-4.1"/>
	<g>
		<g>
			<path fill="#E57F23" d="M16.8,30.8L16.8,30.8c-1.2,3.4,0.5,7.2,4,8.4c3.4,1.2,7.2-0.5,8.4-4l0,0L16.8,30.8z"/>
			<path fill="#FF9C39" d="M16.8,30.8L16.8,30.8c-1.2,3.4,1.4,5.2,4.8,6.4c3.4,1.2,6.4,1.5,7.6-1.9l0,0L16.8,30.8z"/>
			<circle fill="#102D35" cx="22.4" cy="35.5" r="1.2"/>
		</g>
		<g>
			<path fill="#E57F23" d="M49.2,30.8L49.2,30.8c1.2,3.4-0.5,7.2-4,8.4c-3.4,1.2-7.2-0.5-8.4-4l0,0L49.2,30.8z"/>
			<path fill="#FF9C39" d="M49.2,30.8L49.2,30.8c1.2,3.4-1.4,5.2-4.8,6.4c-3.4,1.2-6.4,1.5-7.6-1.9l0,0L49.2,30.8z"/>
			<circle fill="#102D35" cx="43.6" cy="35.5" r="1.2"/>
		</g>
	</g>
	<ellipse fill="#194951" cx="33" cy="14.1" rx="7.6" ry="3"/>
	<ellipse fill="#194951" cx="33" cy="47.6" rx="6.7" ry="1.9"/>
	<ellipse fill="#56DBC8" cx="33" cy="52.5" rx="4.3" ry="0.7"/>
	<g>
		<path fill="#194951" d="M30.8,32.2c-0.8,1.3-4.7,0.6-8.8-1.8c-4.1-2.3-6.8-5.3-6.1-6.6c0.8-1.3,3.9,0.8,8,3.2
			C28.1,29.3,31.6,30.8,30.8,32.2z"/>
		<path fill="#194951" d="M35.2,32.2c0.8,1.3,4.7,0.6,8.8-1.8c4.1-2.3,6.8-5.3,6.1-6.6c-0.8-1.3-3.9,0.8-8,3.2
			C37.9,29.3,34.4,30.8,35.2,32.2z"/>
	</g>
	<g>
		<g>
			<polygon fill="#E2F2EF" points="23.4,60 26,65.1 28.6,60 			"/>
			<polygon fill="#9AB2AC" points="25.5,60 26,65.1 28.6,60 			"/>
		</g>
		<g>
			<polygon fill="#E2F2EF" points="37.4,60 40,65.1 42.6,60 			"/>
			<polygon fill="#9AB2AC" points="39.5,60 40,65.1 42.6,60 			"/>
		</g>
	</g>
</g>
</svg>
