<?xml version="1.0" encoding="utf-8"?>
<!-- Generator: Adobe Illustrator 16.0.0, SVG Export Plug-In . SVG Version: 6.00 Build 0)  -->
<!DOCTYPE svg PUBLIC "-//W3C//DTD SVG 1.1//EN" "http://www.w3.org/Graphics/SVG/1.1/DTD/svg11.dtd">
<svg version="1.1" xmlns="http://www.w3.org/2000/svg" xmlns:xlink="http://www.w3.org/1999/xlink" x="0px" y="0px" width="65px"
	 height="65px" viewBox="0 0 65 65" enable-background="new 0 0 65 65" xml:space="preserve">
<g id="Layer_1">
	<g>
		<g>
			<g>
				<path fill="#B2A47D" d="M40.859,14.947H24.143c-1.365,0-2.477-1.11-2.477-2.479V2.978c0-1.366,1.111-2.478,2.477-2.478h16.717
					c1.367,0,2.479,1.111,2.479,2.478v9.491C43.338,13.837,42.227,14.947,40.859,14.947z M24.143,2.978v9.491h16.719l-0.002-9.491
					H24.143z"/>
			</g>
			<path fill="#9E906C" d="M40.859,2.667H24.143c-1.365,0-2.477,1.111-2.477,2.477v7.325c0,1.368,1.111,2.479,2.477,2.479h16.717
				c1.367,0,2.479-1.11,2.479-2.479V5.144C43.338,3.778,42.227,2.667,40.859,2.667z M40.861,14.638H24.143v-2.169V5.144V2.978
				h16.717l0.002,9.491l0,0V14.638z"/>
		</g>
		<g>
			<path fill="#7C400F" d="M20.811,57.046c0,2.159-1.75,3.907-3.91,3.907H5.178c-2.158,0-3.908-1.748-3.908-3.907V32.95
				c0-2.159,1.75-3.909,3.908-3.909H16.9c2.16,0,3.91,1.75,3.91,3.909V57.046z"/>
			<path fill="#7C400F" d="M63.73,57.046c0,2.159-1.748,3.907-3.906,3.907H48.102c-2.158,0-3.908-1.748-3.908-3.907V32.95
				c0-2.159,1.75-3.909,3.908-3.909h11.723c2.158,0,3.906,1.75,3.906,3.909V57.046z"/>
		</g>
		<g>
			<path fill="#AA5F22" d="M16.9,29.041H4.059c-2.158,0-2.789,1.75-2.789,3.909v6.74c0,2.157,1.75,3.907,3.908,3.907H16.9
				c2.16,0,3.91-1.75,3.91-3.907v-6.74C20.811,30.791,19.061,29.041,16.9,29.041z"/>
			<path fill="#AA5F22" d="M60.943,29.041H48.102c-2.158,0-3.908,1.75-3.908,3.909v6.74c0,2.157,1.75,3.907,3.908,3.907h11.723
				c2.158,0,3.906-1.75,3.906-3.907v-6.74C63.73,30.791,63.102,29.041,60.943,29.041z"/>
		</g>
		<path fill="#935116" d="M55.266,59.972c0,2.501-2.027,4.528-4.529,4.528H14.266c-2.502,0-4.529-2.027-4.529-4.528V11.176
			c0-2.501,2.027-4.528,4.529-4.528h36.471c2.502,0,4.529,2.027,4.529,4.528V59.972z"/>
		<path fill="#8E4916" d="M50.736,8.327H14.266c-2.502,0-4.529,2.027-4.529,4.527v17.632c0,2.501,2.027,4.528,4.529,4.528h36.471
			c2.502,0,4.529-2.027,4.529-4.528V12.854C55.266,10.354,53.238,8.327,50.736,8.327z"/>
		<path fill="#AA5F22" d="M50.736,6.647H14.266c-2.502,0-4.529,2.027-4.529,4.528v17.63c0,2.501,2.027,4.528,4.529,4.528h36.471
			c2.502,0,4.529-2.027,4.529-4.528v-17.63C55.266,8.675,53.238,6.647,50.736,6.647z"/>
		<g>
			<path fill="#D18E22" d="M17.529,34.845c-0.318,0-0.617-0.065-0.896-0.175v2.274c0,1.357,1.102,2.457,2.457,2.457h1.639
				c1.357,0,2.457-1.1,2.457-2.457V34.67c-0.277,0.109-0.578,0.175-0.896,0.175H17.529z"/>
			<path fill="#D18E22" d="M22.289,26.092c0.318,0,0.619,0.064,0.896,0.174V7.05c0-1.355-1.1-2.456-2.457-2.456H19.09
				c-1.355,0-2.457,1.101-2.457,2.456v19.215c0.279-0.108,0.578-0.173,0.896-0.173H22.289z"/>
			<path fill="#BBE6EA" d="M22.289,26.092h-4.76c-0.318,0-0.617,0.064-0.896,0.173v8.405c0.279,0.109,0.578,0.175,0.896,0.175h4.76
				c0.318,0,0.619-0.065,0.896-0.175v-8.404C22.908,26.156,22.607,26.092,22.289,26.092z M21.479,33.124v0.231
				c0,0.44-0.357,0.798-0.795,0.798h-1.549c-0.439,0-0.797-0.357-0.797-0.798v-0.231c-0.734-0.078-1.314-0.679-1.314-1.435v-2.29
				c0-0.809,0.656-1.465,1.465-1.465h2.842c0.809,0,1.465,0.656,1.465,1.465v2.29C22.795,32.446,22.213,33.047,21.479,33.124z"/>
			<path fill="#D18E22" d="M21.33,27.935h-2.842c-0.809,0-1.465,0.656-1.465,1.465v2.29c0,0.756,0.58,1.356,1.314,1.435v-1.013
				c0-0.441,0.357-0.799,0.797-0.799h1.549c0.438,0,0.795,0.357,0.795,0.799v1.013c0.734-0.077,1.316-0.678,1.316-1.435v-2.29
				C22.795,28.591,22.139,27.935,21.33,27.935z"/>
			<path fill="#A2B9BC" d="M18.488,33.154c-0.053,0-0.098-0.024-0.15-0.03v0.231c0,0.44,0.357,0.798,0.797,0.798h1.549
				c0.438,0,0.795-0.357,0.795-0.798v-0.231c-0.053,0.007-0.098,0.03-0.148,0.03H18.488z"/>
			<path fill="#BBE6EA" d="M20.684,31.312h-1.549c-0.439,0-0.797,0.357-0.797,0.799v1.013c0.053,0.006,0.098,0.03,0.15,0.03h2.842
				c0.051,0,0.096-0.023,0.148-0.03v-1.013C21.479,31.67,21.121,31.312,20.684,31.312z"/>
			<path fill="#D18E22" d="M42.713,34.845c-0.316,0-0.619-0.065-0.896-0.176v2.275c0,1.357,1.104,2.457,2.459,2.457h1.639
				c1.355,0,2.455-1.1,2.455-2.457V34.67c-0.277,0.109-0.58,0.175-0.896,0.175H42.713z"/>
			<path fill="#D18E22" d="M47.473,26.092c0.316,0,0.619,0.064,0.896,0.174V7.05c0-1.355-1.1-2.456-2.455-2.456h-1.639
				c-1.355,0-2.459,1.101-2.459,2.456v19.216c0.277-0.109,0.58-0.174,0.896-0.174H47.473z"/>
			<path fill="#BBE6EA" d="M47.473,26.092h-4.76c-0.316,0-0.619,0.064-0.896,0.174v8.403c0.277,0.11,0.58,0.176,0.896,0.176h4.76
				c0.316,0,0.619-0.065,0.896-0.175v-8.404C48.092,26.156,47.789,26.092,47.473,26.092z M46.664,33.124v0.231
				c0,0.44-0.355,0.798-0.799,0.798H44.32c-0.441,0-0.797-0.357-0.797-0.798v-0.231c-0.734-0.078-1.314-0.679-1.314-1.435v-2.29
				c0-0.809,0.656-1.465,1.465-1.465h2.842c0.807,0,1.463,0.656,1.463,1.465v2.29C47.979,32.446,47.396,33.047,46.664,33.124z"/>
			<path fill="#D18E22" d="M46.516,27.935h-2.842c-0.809,0-1.465,0.656-1.465,1.465v2.29c0,0.756,0.58,1.356,1.314,1.435v-1.013
				c0-0.441,0.355-0.799,0.797-0.799h1.545c0.443,0,0.799,0.357,0.799,0.799v1.013c0.732-0.077,1.314-0.678,1.314-1.435v-2.29
				C47.979,28.591,47.322,27.935,46.516,27.935z"/>
			<path fill="#A2B9BC" d="M43.674,33.154c-0.053,0-0.098-0.024-0.15-0.03v0.231c0,0.44,0.355,0.798,0.797,0.798h1.545
				c0.443,0,0.799-0.357,0.799-0.798v-0.231c-0.053,0.007-0.098,0.03-0.148,0.03H43.674z"/>
			<path fill="#BBE6EA" d="M45.865,31.312H44.32c-0.441,0-0.797,0.357-0.797,0.799v1.013c0.053,0.006,0.098,0.03,0.15,0.03h2.842
				c0.051,0,0.096-0.023,0.148-0.03v-1.013C46.664,31.67,46.309,31.312,45.865,31.312z"/>
		</g>
		<path fill="#6D350F" d="M50.627,54.843c0,3.71-3.008,6.718-6.719,6.718H21.094c-3.711,0-6.719-3.008-6.719-6.718v-7.979
			c0-3.711,3.008-6.719,6.719-6.719h22.814c3.711,0,6.719,3.008,6.719,6.719V54.843z"/>
		<path fill="#7C3D13" d="M43.908,40.146H21.094c-3.711,0-6.719,3.008-6.719,6.719v0.327c0,3.71,3.008,6.718,6.719,6.718h22.814
			c3.711,0,6.719-3.008,6.719-6.718v-0.327C50.627,43.153,47.619,40.146,43.908,40.146z"/>
		<g>
			<g>
				<g>
					<path fill="#F9AB3A" d="M20.656,8.492c0.109,0.11,0.109,0.287,0,0.397l0,0C20.545,9,20.369,9,20.258,8.89l-1.477-1.477
						c-0.109-0.111-0.109-0.288-0.002-0.396l0,0c0.111-0.112,0.289-0.112,0.4-0.001L20.656,8.492z"/>
					<path fill="#F9AB3A" d="M20.258,7.016c0.111-0.11,0.287-0.111,0.398,0l0,0c0.109,0.109,0.109,0.287,0,0.397L19.18,8.89
						c-0.111,0.11-0.289,0.11-0.4,0l0,0c-0.107-0.11-0.107-0.287,0.002-0.397L20.258,7.016z"/>
				</g>
				<g>
					<path fill="#F9AB3A" d="M20.656,12.133c0.109,0.11,0.109,0.287,0,0.398l0,0c-0.111,0.108-0.287,0.108-0.398,0l-1.477-1.478
						c-0.109-0.11-0.109-0.288-0.002-0.397l0,0c0.111-0.111,0.289-0.111,0.4-0.001L20.656,12.133z"/>
					<path fill="#F9AB3A" d="M20.258,10.655c0.111-0.109,0.287-0.11,0.398,0l0,0c0.109,0.11,0.109,0.289,0,0.398l-1.477,1.478
						c-0.111,0.108-0.289,0.108-0.4,0l0,0c-0.107-0.111-0.107-0.288,0.002-0.398L20.258,10.655z"/>
				</g>
				<g>
					<path fill="#F9AB3A" d="M20.656,15.772c0.109,0.11,0.109,0.288,0,0.398l0,0c-0.111,0.109-0.287,0.109-0.398,0l-1.477-1.478
						c-0.109-0.11-0.109-0.288-0.002-0.396l0,0c0.111-0.111,0.289-0.111,0.4-0.002L20.656,15.772z"/>
					<path fill="#F9AB3A" d="M20.258,14.295c0.111-0.108,0.287-0.109,0.398,0l0,0c0.109,0.11,0.109,0.289,0,0.398l-1.477,1.478
						c-0.111,0.109-0.289,0.109-0.4,0l0,0c-0.107-0.11-0.107-0.288,0.002-0.398L20.258,14.295z"/>
				</g>
				<g>
					<path fill="#F9AB3A" d="M20.656,19.413c0.109,0.11,0.109,0.288,0,0.398l0,0c-0.111,0.108-0.287,0.108-0.398,0l-1.477-1.479
						c-0.109-0.109-0.109-0.286-0.002-0.396l0,0c0.111-0.111,0.289-0.111,0.4-0.001L20.656,19.413z"/>
					<path fill="#F9AB3A" d="M20.258,17.936c0.111-0.109,0.287-0.11,0.398,0l0,0c0.109,0.111,0.109,0.289,0,0.397l-1.477,1.479
						c-0.111,0.108-0.289,0.108-0.4,0l0,0c-0.107-0.11-0.107-0.288,0.002-0.398L20.258,17.936z"/>
				</g>
				<g>
					<path fill="#F9AB3A" d="M20.656,23.053c0.109,0.11,0.109,0.288,0,0.398l0,0c-0.111,0.109-0.287,0.109-0.398,0l-1.477-1.478
						c-0.109-0.11-0.109-0.287-0.002-0.397l0,0c0.111-0.111,0.289-0.111,0.4,0L20.656,23.053z"/>
					<path fill="#F9AB3A" d="M20.258,21.576c0.111-0.109,0.287-0.111,0.398,0l0,0c0.109,0.11,0.109,0.288,0,0.397l-1.477,1.478
						c-0.111,0.109-0.289,0.109-0.4,0l0,0c-0.107-0.11-0.107-0.288,0.002-0.398L20.258,21.576z"/>
				</g>
			</g>
			<g>
				<g>
					<path fill="#F9AB3A" d="M46.221,8.492c0.109,0.11,0.109,0.287,0,0.397l0,0C46.113,9,45.936,9,45.824,8.89l-1.477-1.477
						c-0.109-0.111-0.109-0.288,0-0.396l0,0c0.111-0.112,0.289-0.112,0.398-0.001L46.221,8.492z"/>
					<path fill="#F9AB3A" d="M45.824,7.016c0.111-0.11,0.289-0.111,0.396,0l0,0c0.109,0.109,0.109,0.287,0,0.397L44.746,8.89
						C44.637,9,44.459,9,44.348,8.89l0,0c-0.109-0.11-0.109-0.287,0-0.397L45.824,7.016z"/>
				</g>
				<g>
					<path fill="#F9AB3A" d="M46.221,12.133c0.109,0.11,0.109,0.287,0,0.398l0,0c-0.107,0.108-0.285,0.108-0.396,0l-1.477-1.478
						c-0.109-0.11-0.109-0.288,0-0.397l0,0c0.111-0.111,0.289-0.111,0.398-0.001L46.221,12.133z"/>
					<path fill="#F9AB3A" d="M45.824,10.655c0.111-0.109,0.289-0.11,0.396,0l0,0c0.109,0.11,0.109,0.289,0,0.398l-1.475,1.478
						c-0.109,0.108-0.287,0.108-0.398,0l0,0c-0.109-0.111-0.109-0.288,0-0.398L45.824,10.655z"/>
				</g>
				<g>
					<path fill="#F9AB3A" d="M46.221,15.772c0.109,0.11,0.109,0.288,0,0.398l0,0c-0.107,0.109-0.285,0.109-0.396,0l-1.477-1.478
						c-0.109-0.11-0.109-0.288,0-0.396l0,0c0.111-0.111,0.289-0.111,0.398-0.002L46.221,15.772z"/>
					<path fill="#F9AB3A" d="M45.824,14.295c0.111-0.108,0.289-0.109,0.396,0l0,0c0.109,0.11,0.109,0.289,0,0.398l-1.475,1.478
						c-0.109,0.109-0.287,0.109-0.398,0l0,0c-0.109-0.11-0.109-0.288,0-0.398L45.824,14.295z"/>
				</g>
				<g>
					<path fill="#F9AB3A" d="M46.221,19.413c0.109,0.11,0.109,0.288,0,0.398l0,0c-0.107,0.108-0.285,0.108-0.396,0l-1.477-1.479
						c-0.109-0.109-0.109-0.286,0-0.396l0,0c0.111-0.111,0.289-0.111,0.398-0.001L46.221,19.413z"/>
					<path fill="#F9AB3A" d="M45.824,17.936c0.111-0.109,0.289-0.11,0.396,0l0,0c0.109,0.111,0.109,0.289,0,0.397l-1.475,1.479
						c-0.109,0.108-0.287,0.108-0.398,0l0,0c-0.109-0.11-0.109-0.288,0-0.398L45.824,17.936z"/>
				</g>
				<g>
					<path fill="#F9AB3A" d="M46.221,23.053c0.109,0.11,0.109,0.288,0,0.398l0,0c-0.107,0.109-0.285,0.109-0.396,0l-1.477-1.478
						c-0.109-0.11-0.109-0.287,0-0.397l0,0c0.111-0.111,0.289-0.111,0.398,0L46.221,23.053z"/>
					<path fill="#F9AB3A" d="M45.824,21.576c0.111-0.109,0.289-0.111,0.396,0l0,0c0.109,0.11,0.109,0.288,0,0.397l-1.475,1.478
						c-0.109,0.109-0.287,0.109-0.398,0l0,0c-0.109-0.11-0.109-0.288,0-0.398L45.824,21.576z"/>
				</g>
			</g>
		</g>
	</g>
</g>
<g id="nyt_x5F_exporter_x5F_info" display="none">
</g>
</svg>
