<?xml version="1.0" encoding="utf-8"?>
<!-- Generator: Adobe Illustrator 16.0.0, SVG Export Plug-In . SVG Version: 6.00 Build 0)  -->
<!DOCTYPE svg PUBLIC "-//W3C//DTD SVG 1.1//EN" "http://www.w3.org/Graphics/SVG/1.1/DTD/svg11.dtd">
<svg version="1.1" id="Layer_1" xmlns="http://www.w3.org/2000/svg" xmlns:xlink="http://www.w3.org/1999/xlink" x="0px" y="0px"
	 width="65px" height="65px" viewBox="0 0 65 65" enable-background="new 0 0 65 65" xml:space="preserve">
<g>
	<g>
		<g>
			<path fill="#EF6906" d="M44.498,46.446c0,2.476-2.008,15.827-4.486,15.827c-2.475,0-4.482-13.352-4.482-15.827
				s2.008-4.484,4.482-4.484C42.49,41.962,44.498,43.971,44.498,46.446z"/>
			<path fill="#EF6906" d="M29.473,46.446c0,2.476-2.008,15.827-4.486,15.827c-2.475,0-4.482-13.352-4.482-15.827
				s2.008-4.484,4.482-4.484C27.465,41.962,29.473,43.971,29.473,46.446z"/>
			<g>
				<g>
					<g>
						<path fill="#F7A006" d="M31.105,26.369c1.273,1.432,0.465,4.228-1.805,6.249c-2.27,2.018-14.475,10.794-15.75,9.365
							c-1.271-1.434,8.873-12.532,11.143-14.55C26.961,25.415,29.832,24.938,31.105,26.369z"/>
						<path fill="#F7A006" d="M33.895,26.369c-1.273,1.432-0.465,4.228,1.805,6.249c2.27,2.018,14.475,10.794,15.75,9.365
							c1.271-1.434-8.873-12.532-11.143-14.55C38.039,25.415,35.168,24.938,33.895,26.369z"/>
					</g>
					<path fill="#F9BE03" d="M45.15,40.521c0,16.038-5.662,10.697-12.65,10.697c-6.986,0-12.65,5.341-12.65-10.697
						c0-9.17,5.666-16.603,12.65-16.603C39.486,23.919,45.15,31.352,45.15,40.521z"/>
					<g>
						<path fill="#FF7300" d="M30.033,62.354c0,1.896-2.26,2.146-5.045,2.146s-5.045-0.249-5.045-2.146
							c0-1.897,2.26-4.508,5.045-4.508S30.033,60.457,30.033,62.354z"/>
						<path fill="#EF6906" d="M30.033,62.354c0,1.896-2.26,2.146-5.045,2.146s-5.045-0.249-5.045-2.146"/>
					</g>
					<g>
						<path fill="#FF7300" d="M45.059,62.354c0,1.896-2.26,2.146-5.045,2.146s-5.045-0.249-5.045-2.146
							c0-1.897,2.26-4.508,5.045-4.508S45.059,60.457,45.059,62.354z"/>
						<path fill="#EF6906" d="M45.059,62.354c0,1.896-2.26,2.146-5.045,2.146s-5.045-0.249-5.045-2.146"/>
					</g>
					<g>
						<path fill="#F9BE03" d="M48.871,16.275c0,7.999-7.33,12.02-16.369,12.02c-9.041,0-16.373-4.021-16.373-12.02
							c0-8.001,7.332-15.775,16.373-15.775C41.541,0.5,48.871,8.274,48.871,16.275z"/>
						<path fill="#F7A006" d="M48.871,16.275c0,7.999-7.33,12.02-16.369,12.02c-9.041,0-16.373-4.021-16.373-12.02"/>
					</g>
				</g>
			</g>
		</g>
	</g>
	<g>
		<g>
			<circle fill="#113E49" cx="24.716" cy="11.209" r="1.464"/>
			<path d="M26.18,11.209c0,0.81-0.656,1.464-1.465,1.464s-1.463-0.654-1.463-1.464"/>
			<g>
				<path fill="#FFCE00" d="M27.604,14.262c-0.078,0-0.158-0.028-0.219-0.091c-0.715-0.714-1.664-1.107-2.672-1.107h-0.002
					c-1.008,0-1.955,0.394-2.666,1.106c-0.121,0.121-0.316,0.124-0.436,0.001c-0.121-0.117-0.125-0.312-0.004-0.434
					c0.83-0.831,1.932-1.29,3.105-1.29h0.002c1.176,0,2.279,0.456,3.111,1.288c0.119,0.119,0.119,0.318,0,0.436
					C27.764,14.233,27.686,14.262,27.604,14.262z"/>
			</g>
		</g>
		<g>
			<circle fill="#113E49" cx="40.286" cy="11.209" r="1.464"/>
			<path d="M38.822,11.209c0,0.81,0.654,1.464,1.465,1.464c0.809,0,1.463-0.654,1.463-1.464"/>
			<g>
				<path fill="#FFCE00" d="M37.398,14.262c0.076,0,0.156-0.028,0.217-0.091c0.715-0.714,1.664-1.107,2.672-1.107h0.002
					c1.008,0,1.957,0.394,2.668,1.106c0.119,0.121,0.314,0.124,0.436,0.001c0.121-0.117,0.123-0.312,0.002-0.434
					c-0.826-0.831-1.932-1.29-3.105-1.29h-0.002c-1.174,0-2.277,0.456-3.111,1.288c-0.117,0.119-0.117,0.318,0,0.436
					C37.238,14.233,37.316,14.262,37.398,14.262z"/>
			</g>
		</g>
	</g>
	<path fill="#F9BE03" d="M37.125,14.707c0,0.828-2.07,10.5-4.625,10.5s-4.625-9.672-4.625-10.5s2.07-2.625,4.625-2.625
		S37.125,13.879,37.125,14.707z"/>
	<path fill="#F4E308" d="M37.125,14.707c0,0.828-2.07,7.625-4.625,7.625s-4.625-6.797-4.625-7.625s2.07-2.625,4.625-2.625
		S37.125,13.879,37.125,14.707z"/>
</g>
</svg>
