<?xml version="1.0" encoding="utf-8"?>
<!-- Generator: Adobe Illustrator 16.0.0, SVG Export Plug-In . SVG Version: 6.00 Build 0)  -->
<!DOCTYPE svg PUBLIC "-//W3C//DTD SVG 1.1//EN" "http://www.w3.org/Graphics/SVG/1.1/DTD/svg11.dtd">
<svg version="1.1" id="Layer_1" xmlns="http://www.w3.org/2000/svg" xmlns:xlink="http://www.w3.org/1999/xlink" x="0px" y="0px"
	 width="64px" height="64px" viewBox="0 0 64 64" enable-background="new 0 0 64 64" xml:space="preserve">
<g>
	<g>
		<g>
			<g>
				<g>
					
						<ellipse transform="matrix(0.9618 -0.2737 0.2737 0.9618 -14.0618 6.0119)" fill="#EA7103" cx="14.5" cy="53.4" rx="8.8" ry="8.5"/>
				</g>
				<g>
					<g>
						<g>
							<path fill="#F7910B" d="M62.3,35.9c0,13-11.9,23.5-30.3,23.5c-18.4,0-30.3-10.5-30.3-23.5S13.6,3.4,32,3.4
								C50.4,3.4,62.3,22.9,62.3,35.9z"/>
						</g>
						<g>
							<path fill="#F7910B" d="M62.3,35.9c0,13-11.9,19.5-30.3,19.5c-18.4,0-30.3-6.5-30.3-19.5S13.6,1.4,32,1.4
								C50.4,1.4,62.3,22.9,62.3,35.9z"/>
						</g>
						<g>
							<path fill="#F9A908" d="M32,1.4c18.4,0,30.3,21.5,30.3,34.5S50.4,55.4,32,55.4"/>
						</g>
						<g>
							<path fill="#F9A908" d="M62.3,35.9c0,13-11.9,19.5-30.3,19.5c-18.4,0-30.3-6.5-30.3-19.5S13.6,3.4,32,3.4
								C50.4,3.4,62.3,22.9,62.3,35.9z"/>
						</g>
						<g>
							<path fill="#F9C55D" d="M1.7,35.9c0-13,11.9-32.5,30.3-32.5"/>
						</g>
						<g>
							<path fill="#F7910B" d="M32,3.4c18.4,0,30.3,19.5,30.3,32.5S50.4,59.4,32,59.4"/>
						</g>
						<g>
							<path fill="#EA7103" d="M32,3.4c18.4,0,30.3,19.5,30.3,32.5"/>
						</g>
						<g>
							<g>
								<circle fill="#EA7103" cx="21.6" cy="24.1" r="3.2"/>
							</g>
							<g>
								<circle fill="#EA7103" cx="42.4" cy="24.1" r="3.2"/>
							</g>
							<g>
								<circle fill="#1E4784" cx="21.6" cy="23.2" r="3.2"/>
							</g>
							<g>
								<path fill="#00233F" d="M21.6,20c1.8,0,3.2,1.4,3.2,3.2s-1.4,3.2-3.2,3.2"/>
							</g>
							<g>
								<circle fill="#1E4784" cx="42.4" cy="23.2" r="3.2"/>
							</g>
							<g>
								<path fill="#00233F" d="M42.4,20c1.8,0,3.2,1.4,3.2,3.2s-1.4,3.2-3.2,3.2"/>
							</g>
						</g>
						<g>
							<g>
								<g>
									<g>
										<g>
											<g>
												<path fill="#19BCA4" d="M25.6,11.9c0,1.3-1.3,0.6-2.9,0.6c-1.6,0-2.9,0.6-2.9-0.6c0-1.3,1.3-2.3,2.9-2.3
													C24.3,9.6,25.6,10.6,25.6,11.9z"/>
											</g>
										</g>
									</g>
								</g>
							</g>
							<g>
								<g>
									<g>
										<g>
											<g>
												<path fill="#109DA0" d="M25.6,11.9c0,1.3-1.3,0.6-2.9,0.6c-1.6,0-2.9,0.6-2.9-0.6"/>
											</g>
										</g>
									</g>
								</g>
							</g>
						</g>
						<g>
							<g>
								<g>
									<g>
										<g>
											<g>
												<path fill="#19BCA4" d="M39,14.9c0,1.3,1.3,0.6,2.9,0.6c1.6,0,2.9,0.6,2.9-0.6c0-1.3-1.3-2.3-2.9-2.3
													C40.3,12.6,39,13.6,39,14.9z"/>
											</g>
										</g>
									</g>
								</g>
							</g>
							<g>
								<g>
									<g>
										<g>
											<g>
												<path fill="#109DA0" d="M39,14.9c0,1.3,1.3,0.6,2.9,0.6c1.6,0,2.9,0.6,2.9-0.6"/>
											</g>
										</g>
									</g>
								</g>
							</g>
						</g>
						<g>
							<g>
								<path fill="#F9C55D" d="M27.8,29.2c0,1.2-3.5,0.7-7.8,0.7c-4.3,0-7.8,0.6-7.8-0.7S15.7,27,20,27C24.3,27,27.8,28,27.8,29.2z
									"/>
							</g>
							<g>
								<path fill="#F9A908" d="M51.8,29.2c0,1.2-3.5,0.7-7.8,0.7s-7.8,0.6-7.8-0.7S39.7,27,44,27S51.8,28,51.8,29.2z"/>
							</g>
						</g>
						<g>
							<circle fill="#F7910B" cx="10.3" cy="32.9" r="0.6"/>
						</g>
						<g>
							<circle fill="#F7910B" cx="5.8" cy="34.9" r="1.1"/>
						</g>
						<g>
							<circle fill="#F7910B" cx="8.8" cy="30.9" r="0.2"/>
						</g>
						<g>
							<circle fill="#F7910B" cx="13.4" cy="32.7" r="0.2"/>
						</g>
						<g>
							<circle fill="#F9A908" cx="52.6" cy="33.2" r="0.8"/>
						</g>
						<g>
							<circle fill="#F9A908" cx="55.1" cy="34.6" r="0.2"/>
						</g>
						<g>
							<circle fill="#F9A908" cx="49.8" cy="25.8" r="0.3"/>
						</g>
						<g>
							<circle fill="#F9A908" cx="49.3" cy="37.4" r="1.3"/>
						</g>
						<g>
							<circle fill="#F9A908" cx="56.5" cy="37.5" r="0.6"/>
						</g>
						<g>
							<circle fill="#F7910B" cx="9.3" cy="36.9" r="0.5"/>
						</g>
						<g>
							<circle fill="#F7910B" cx="10.1" cy="28.5" r="0.4"/>
						</g>
						<g>
							<circle fill="#F9A908" cx="4.8" cy="14.7" r="1.1"/>
						</g>
						<g>
							<circle fill="#F9A908" cx="8" cy="11.2" r="0.6"/>
						</g>
						<g>
							<circle fill="#F9A908" cx="59.2" cy="17.1" r="0.3"/>
						</g>
						<g>
							<circle fill="#F9A908" cx="58.4" cy="14.2" r="0.8"/>
						</g>
						<g>
							<path fill="#F9A908" d="M61.5,14.7c0,0.3-0.2,0.5-0.5,0.5c-0.3,0-0.5-0.2-0.5-0.5c0-0.3,0.2-0.5,0.5-0.5
								C61.2,14.2,61.5,14.5,61.5,14.7z"/>
						</g>
						<g>
							<circle fill="#F9A908" cx="6" cy="17.7" r="0.6"/>
						</g>
					</g>
				</g>
				<g>
					<g>
						<path fill="#F9C55D" d="M28.1,35.9c0-0.8,1.7-1.5,3.9-1.5c2.2,0,3.9,0.7,3.9,1.5"/>
					</g>
					<g>
						<g>
							<path fill="#F7910B" d="M26.6,34c0-1.9,2.4-5.4,5.4-5.4c3,0,5.4,3.5,5.4,5.4"/>
						</g>
						<g>
							<g>
								<path fill="#02243E" d="M41.1,39.4c-0.6,0-1.1-0.5-1.1-1.1c0-1.7,1.4-3.1,3.1-3.1c0.6,0,1.1,0.5,1.1,1.1s-0.5,1.1-1.1,1.1
									c-0.5,0-0.9,0.4-0.9,0.9C42.2,38.9,41.7,39.4,41.1,39.4z"/>
							</g>
							<g>
								<path fill="#02243E" d="M22.9,39.4c-0.6,0-1.1-0.5-1.1-1.1c0-0.5-0.4-0.9-0.9-0.9c-0.6,0-1.1-0.5-1.1-1.1s0.5-1.1,1.1-1.1
									c1.7,0,3.1,1.4,3.1,3.1C24,38.9,23.5,39.4,22.9,39.4z"/>
							</g>
						</g>
						<g>
							<path fill="#02243E" d="M41.7,37.8c-0.3,0-0.6-0.1-0.8-0.3c-4.9-4.9-12.9-4.9-17.8,0c-0.4,0.4-1.1,0.4-1.6,0
								c-0.4-0.4-0.4-1.1,0-1.6c5.8-5.8,15.1-5.8,20.9,0c0.4,0.4,0.4,1.1,0,1.6C42.2,37.7,41.9,37.8,41.7,37.8z"/>
						</g>
					</g>
				</g>
			</g>
		</g>
	</g>
	<g>
		<g>
			<g>
				<path fill="#AAD6C3" d="M21,50.5c-7.5-0.6-5.5-2.2-5.3-4.4c0.2-2.2-1.6-4.1,5.9-3.5c7.5,0.6,10.4,2.6,10.2,4.8
					C31.7,49.6,28.5,51.1,21,50.5z"/>
			</g>
			<g>
				<path fill="#AAD6C3" d="M31.8,47.4c-0.2,2.2-3.3,3.7-10.9,3.1c-7.5-0.6-5.5-2.2-5.3-4.4"/>
			</g>
			<g>
				<path fill="#CCF2E3" d="M18.6,42.3c-7.5-0.6-5.5-2.2-5.3-4.4c0.2-2.2-2.7-4.2,4.9-3.6c7.5,0.6,11.5,2.8,11.3,4.9
					C29.3,41.4,26.2,42.9,18.6,42.3z"/>
			</g>
			<g>
				<path fill="#AAD6C3" d="M29.5,39.2c-0.2,2.2-3.3,3.7-10.9,3.1c-7.5-0.6-5.5-2.2-5.3-4.4"/>
			</g>
			<g>
				<path fill="#AAD6C3" d="M17.9,58c-7.5-0.6-5.5-2.2-5.3-4.4c0.2-2.2-1.6-4.1,5.9-3.5c7.5,0.6,10.4,2.6,10.2,4.8
					C28.6,57.1,25.4,58.6,17.9,58z"/>
			</g>
			<g>
				<path fill="#AAD6C3" d="M28.7,55c-0.2,2.2-3.3,3.7-10.9,3.1c-7.5-0.6-5.5-2.2-5.3-4.4"/>
			</g>
			<g>
				<path fill="#CCF2E3" d="M16,57.6C9,57.1,3.5,53,4,45.9c0.6-7,6.7-12.3,13.6-11.8c7,0.6,9.1,6.5,8.5,13.5
					C25.6,54.7,23,58.2,16,57.6z"/>
			</g>
			<g>
				<path fill="#AAD6C3" d="M16,57.6C9,57.1,3.5,53,4,45.9c0.6-7,5.5-8.7,12.4-7.8c11.2,1.3,10-1.9,9.8,9.2
					C26.1,54.4,23.2,58.2,16,57.6z"/>
			</g>
			<g>
				<g>
					<path fill="#AAD6C3" d="M11.1,62.6C8.6,63,5.7,58.3,4.8,52.1c-1-6.2,1.8-10.6,4.4-11c2.5-0.4,3.8,3.4,4.8,9.6
						C14.9,56.8,13.6,62.2,11.1,62.6z"/>
				</g>
				<g>
					<path fill="#CCF2E3" d="M11.1,62.6C8.6,63,5.7,58.3,4.8,52.1c-1-6.2,1.8-10.6,4.4-11"/>
				</g>
			</g>
		</g>
		<g>
			<path fill="#E7F7EF" d="M24.3,38.1c-2.3-0.3-4-1-4-1.6c0.1-0.5,2-0.6,4.2-0.3c2.3,0.4,2.7,0.8,2.7,1.4
				C27.2,38.1,26.6,38.5,24.3,38.1z"/>
		</g>
		<g>
			<path fill="#CCF2E3" d="M25.5,46.1c-2.3-0.1-4.1-0.7-4.1-1.2c0-0.5,1.9-0.8,4.2-0.7c2.3,0.1,2.8,0.6,2.8,1.1
				C28.4,45.8,27.8,46.2,25.5,46.1z"/>
		</g>
		<g>
			<path fill="#CCF2E3" d="M24.1,53.6C21.8,53.5,20,53,20,52.5c0-0.5,1.9-0.8,4.2-0.7c2.3,0.1,2.8,0.6,2.8,1.1
				C26.9,53.4,26.4,53.8,24.1,53.6z"/>
		</g>
		<g>
			<path fill="#E7F7EF" d="M7.1,50.2c0.1,1.9-0.3,3.5-0.8,3.6c-0.5,0-1-1.5-1.1-3.5c-0.1-1.9,0.3-2.4,0.8-2.4
				C6.5,47.8,7,48.2,7.1,50.2z"/>
		</g>
	</g>
</g>
</svg>
