<?xml version="1.0" encoding="utf-8"?>
<!-- Generator: Adobe Illustrator 16.0.0, SVG Export Plug-In . SVG Version: 6.00 Build 0)  -->
<!DOCTYPE svg PUBLIC "-//W3C//DTD SVG 1.1//EN" "http://www.w3.org/Graphics/SVG/1.1/DTD/svg11.dtd">
<svg version="1.1" id="Layer_1" xmlns="http://www.w3.org/2000/svg" xmlns:xlink="http://www.w3.org/1999/xlink" x="0px" y="0px"
	 width="64px" height="64px" viewBox="0 0 64 64" enable-background="new 0 0 64 64" xml:space="preserve">
<g>
	<g>
		<path fill="#F7910B" d="M62.3,37.5C62.3,50.5,50.4,61,32,61C13.6,61,1.7,50.5,1.7,37.5S13.6,5,32,5C50.4,5,62.3,24.5,62.3,37.5z"
			/>
	</g>
	<g>
		<path fill="#F7910B" d="M62.3,37.5C62.3,50.5,50.4,57,32,57C13.6,57,1.7,50.5,1.7,37.5S13.6,3,32,3C50.4,3,62.3,24.5,62.3,37.5z"
			/>
	</g>
	<g>
		<path fill="#F9A908" d="M32,3c18.4,0,30.3,21.5,30.3,34.5S50.4,57,32,57"/>
	</g>
	<g>
		<path fill="#F9A908" d="M62.3,37.5C62.3,50.5,50.4,57,32,57C13.6,57,1.7,50.5,1.7,37.5S13.6,5,32,5C50.4,5,62.3,24.5,62.3,37.5z"
			/>
	</g>
	<g>
		<path fill="#F9C55D" d="M1.7,37.5C1.7,24.5,13.6,5,32,5"/>
	</g>
	<g>
		<path fill="#F7910B" d="M32,5c18.4,0,30.3,19.5,30.3,32.5S50.4,61,32,61"/>
	</g>
	<g>
		<path fill="#EA7103" d="M32,5c18.4,0,30.3,19.5,30.3,32.5"/>
	</g>
	<g>
		<g>
			<path fill="#19BCA4" d="M29.8,14.5c-1.8,0.1-3.2,0.8-3.2,1.7l6.5-0.3C33.1,15.1,31.6,14.5,29.8,14.5z"/>
		</g>
		<g>
			<path fill="#19BCA4" d="M49.1,14.5c-1.8-0.1-3.3,0.6-3.3,1.4l6.5,0.3C52.3,15.4,50.9,14.6,49.1,14.5z"/>
		</g>
		<g>
			<path fill="#109DA0" d="M29.8,16.5c1.8-0.1,3.3,0.3,3.3-0.6l-6.5,0.3C26.6,17.1,28,16.6,29.8,16.5z"/>
		</g>
		<g>
			<path fill="#109DA0" d="M49,16.5c1.8,0.1,3.3,0.6,3.3-0.3L45.7,16C45.7,16.9,47.2,16.5,49,16.5z"/>
		</g>
		<g>
			<path fill="#F9C55D" d="M27.4,38.3c-4.3,0-7.8,1-7.8,2.2c0,1.2,3.5,0.7,7.8,0.7c4.3,0,7.8,0.6,7.8-0.7
				C35.2,39.3,31.8,38.3,27.4,38.3z"/>
		</g>
		<g>
			<path fill="#F9A908" d="M51.4,38.3c-4.3,0-7.8,1-7.8,2.2c0,1.2,3.5,0.7,7.8,0.7c4.3,0,7.8,0.6,7.8-0.7
				C59.2,39.3,55.7,38.3,51.4,38.3z"/>
		</g>
	</g>
	<g>
		<g>
			<g>
				<g>
					<g>
						<g>
							<path fill="#1E4784" d="M26.6,33.6c0.4,0.1,0.8,0.3,1.1,0.6c1.2,1.6,3.5,1.9,5.1,0.6c0.7-0.6,1.8-0.4,2.3,0.3
								c0.6,0.7,0.4,1.8-0.3,2.3c-3,2.3-7.4,1.8-9.7-1.2c-0.6-0.7-0.4-1.8,0.3-2.3C25.7,33.7,26.2,33.6,26.6,33.6z"/>
						</g>
					</g>
					<g>
						<g>
							<path fill="#02243E" d="M25.1,36.3c-0.6-0.7-0.4-1.8,0.3-2.3c0.4-0.3,0.8-0.4,1.2-0.3c0.4,0.1,0.8,0.3,1.1,0.6
								c1.2,1.6,3.5,1.9,5.1,0.6c0.7-0.6,1.8-0.4,2.3,0.3c0.6,0.7,0.4,1.8-0.3,2.3"/>
						</g>
					</g>
				</g>
			</g>
		</g>
		<g>
			<g>
				<g>
					<g>
						<g>
							<path fill="#1E4784" d="M52.2,33.6c-0.4,0.1-0.8,0.3-1.1,0.6c-1.2,1.6-3.5,1.9-5.1,0.6c-0.7-0.6-1.8-0.4-2.3,0.3
								c-0.6,0.7-0.4,1.8,0.3,2.3c3,2.3,7.4,1.8,9.7-1.2c0.6-0.7,0.4-1.8-0.3-2.3C53.1,33.7,52.7,33.6,52.2,33.6z"/>
						</g>
					</g>
					<g>
						<g>
							<path fill="#02243E" d="M53.8,36.3c0.6-0.7,0.4-1.8-0.3-2.3c-0.4-0.3-0.8-0.4-1.2-0.3c-0.4,0.1-0.8,0.3-1.1,0.6
								c-1.2,1.6-3.5,1.9-5.1,0.6c-0.7-0.6-1.8-0.4-2.3,0.3c-0.6,0.7-0.4,1.8,0.3,2.3"/>
						</g>
					</g>
				</g>
			</g>
		</g>
	</g>
	<g>
		<g>
			<path fill="#ED7E11" d="M46,48.6c0,2.6-3.3,4.7-7.4,4.7c-4.1,0-7.4-2.1-7.4-4.7"/>
		</g>
		<g>
			<path fill="#02243E" d="M38.7,50c-3.5,0-6.5-0.8-7.9-2.2c-0.4-0.4-0.4-1.1,0-1.6c0.4-0.4,1.1-0.4,1.6,0c1,1,3.5,1.6,6.3,1.6
				c2.8,0,5.4-0.6,6.3-1.6c0.4-0.4,1.1-0.4,1.6,0s0.4,1.1,0,1.6C45.2,49.1,42.3,50,38.7,50z"/>
		</g>
	</g>
	<g>
		<circle fill="#F7910B" cx="10.3" cy="34.5" r="0.6"/>
	</g>
	<g>
		<circle fill="#F7910B" cx="5.8" cy="36.5" r="1.1"/>
	</g>
	<g>
		<circle fill="#F7910B" cx="8.8" cy="32.5" r="0.2"/>
	</g>
	<g>
		<circle fill="#F7910B" cx="13.4" cy="34.3" r="0.2"/>
	</g>
	<g>
		<circle fill="#F9A908" cx="58.6" cy="37.4" r="0.8"/>
	</g>
	<g>
		<circle fill="#F9A908" cx="55.1" cy="36.2" r="0.2"/>
	</g>
	<g>
		<circle fill="#F9A908" cx="59.2" cy="43.2" r="0.3"/>
	</g>
	<g>
		<circle fill="#F9A908" cx="55.4" cy="47" r="1.3"/>
	</g>
	<g>
		<circle fill="#F9A908" cx="56.5" cy="39.1" r="0.6"/>
	</g>
	<g>
		<circle fill="#F7910B" cx="9.3" cy="38.5" r="0.5"/>
	</g>
	<g>
		<circle fill="#F7910B" cx="10.1" cy="30.1" r="0.4"/>
	</g>
	<g>
		<circle fill="#F9A908" cx="4.8" cy="16.3" r="1.1"/>
	</g>
	<g>
		<circle fill="#F9A908" cx="8" cy="12.8" r="0.6"/>
	</g>
	<g>
		<circle fill="#F9A908" cx="59.2" cy="18.7" r="0.2"/>
	</g>
	<g>
		<circle fill="#F9A908" cx="58.4" cy="15.8" r="0.8"/>
	</g>
	<g>
		<circle fill="#F9A908" cx="61" cy="16.3" r="0.5"/>
	</g>
	<g>
		<circle fill="#F9A908" cx="6" cy="19.3" r="0.6"/>
	</g>
</g>
</svg>
