<?xml version="1.0" encoding="utf-8"?>
<!-- Generator: Adobe Illustrator 16.0.0, SVG Export Plug-In . SVG Version: 6.00 Build 0)  -->
<!DOCTYPE svg PUBLIC "-//W3C//DTD SVG 1.1//EN" "http://www.w3.org/Graphics/SVG/1.1/DTD/svg11.dtd">
<svg version="1.1" id="Layer_1" xmlns="http://www.w3.org/2000/svg" xmlns:xlink="http://www.w3.org/1999/xlink" x="0px" y="0px"
	 width="64px" height="64px" viewBox="0 0 64 64" enable-background="new 0 0 64 64" xml:space="preserve">
<g>
	<g>
		<g>
			<g>
				<g>
					<g>
						<g>
							<circle fill="#FF9100" cx="32" cy="32" r="27.1"/>
							<path fill="#FF7900" d="M12.8,12.9c10.6-10.6,27.7-10.6,38.3,0c10.6,10.6,10.6,27.7,0,38.3"/>
						</g>
					</g>
				</g>
			</g>
		</g>
	</g>
	<g>
		<g>
			<g>
				<polygon fill="#FFFBCA" points="44,24 44,16 21,16 21,50 29,50 29,36 38,36 38,28 29,28 29,24 				"/>
				<circle fill="#FFFBCA" cx="15.5" cy="18.6" r="2.5"/>
			</g>
			<path fill="#E8DD91" d="M21,33.7V50h8V36h9v-8h0C32.3,32,26,33.7,21,33.7z"/>
		</g>
		<path fill="#FFBC00" d="M49,42.5V17.3c0-1.5-0.9-1.7-2-1.7c-1.1,0-2,0.2-2,1.7v25.3c-1,0.7-2.3,2.1-2.3,3.7c0,2.3,1.8,4.2,4.2,4.2
			s4.3-1.9,4.3-4.2C51.1,44.6,50,43.2,49,42.5z"/>
	</g>
</g>
</svg>
