<?xml version="1.0" encoding="utf-8"?>
<!-- Generator: Adobe Illustrator 16.0.0, SVG Export Plug-In . SVG Version: 6.00 Build 0)  -->
<!DOCTYPE svg PUBLIC "-//W3C//DTD SVG 1.1//EN" "http://www.w3.org/Graphics/SVG/1.1/DTD/svg11.dtd">
<svg version="1.1" id="Layer_1" xmlns="http://www.w3.org/2000/svg" xmlns:xlink="http://www.w3.org/1999/xlink" x="0px" y="0px"
	 width="64px" height="64px" viewBox="0 0 64 64" enable-background="new 0 0 64 64" xml:space="preserve">
<g>
	<g>
		<g>
			<circle fill="#FFCE00" cx="32" cy="32" r="17.8"/>
			<path fill="#FF9D00" d="M32,14.2c9.8,0,17.8,8,17.8,17.8c0,9.8-8,17.8-17.8,17.8"/>
			<path fill="#FFBC00" d="M49.8,32c0,9.8-8,16.4-17.8,16.4S14.2,41.8,14.2,32c0-9.8,8-16.4,17.8-16.4S49.8,22.2,49.8,32z"/>
			<path fill="#FFB000" d="M32,15.6c9.8,0,17.8,6.6,17.8,16.4c0,9.8-8,16.4-17.8,16.4S14.2,41.8,14.2,32"/>
			<path fill="#FFBC00" d="M32,15.6c9.8,0,17.8,6.6,17.8,16.4c0,9.8-8,16.4-17.8,16.4"/>
			<path fill="#FFCE00" d="M49.8,32c0,9.8-8,16.4-17.8,16.4"/>
		</g>
		<g>
			<g>
				<g>
					<g>
						<circle fill="#FF9D00" cx="32" cy="8.4" r="1.3"/>
						<polygon fill="#FFCE00" points="33.6,4.1 32,4.6 30.4,4.1 32,1 						"/>
					</g>
					<g>
						<circle fill="#FF9D00" cx="32" cy="55.6" r="1.3"/>
						<polygon fill="#FFCE00" points="30.4,59.9 32,59.4 33.6,59.9 32,63 						"/>
					</g>
				</g>
				<g>
					<g>
						<path fill="#FF9D00" d="M49.6,16.3c-0.5,0.5-1.4,0.5-1.9,0c-0.5-0.5-0.5-1.4,0-1.9c0.5-0.5,1.4-0.5,1.9,0
							C50.1,14.9,50.1,15.8,49.6,16.3z"/>
						<polygon fill="#FFCE00" points="52.9,13.4 51.4,12.6 50.6,11.1 53.9,10.1 						"/>
					</g>
					<g>
						<circle fill="#FF9D00" cx="15.3" cy="48.7" r="1.3"/>
						<polygon fill="#FFCE00" points="11.1,50.6 12.6,51.4 13.4,52.9 10.1,53.9 						"/>
					</g>
				</g>
				<g>
					<g>
						<path fill="#FF9D00" d="M55.6,33.3c-0.7,0-1.3-0.6-1.3-1.3c0-0.7,0.6-1.3,1.3-1.3c0.7,0,1.3,0.6,1.3,1.3
							C56.9,32.7,56.3,33.3,55.6,33.3z"/>
						<polygon fill="#FFCE00" points="59.9,33.6 59.4,32 59.9,30.4 63,32 						"/>
					</g>
					<g>
						<circle fill="#FF9D00" cx="8.4" cy="32" r="1.3"/>
						<polygon fill="#FFCE00" points="4.1,30.4 4.6,32 4.1,33.6 1,32 						"/>
					</g>
				</g>
			</g>
			<g>
				<g>
					<path fill="#FF9D00" d="M47.7,49.6c-0.5-0.5-0.5-1.4,0-1.9c0.5-0.5,1.4-0.5,1.9,0c0.5,0.5,0.5,1.4,0,1.9
						C49.1,50.1,48.2,50.1,47.7,49.6z"/>
					<polygon fill="#FFCE00" points="50.6,52.9 51.4,51.4 52.9,50.6 53.9,53.9 					"/>
				</g>
				<g>
					<path fill="#FF9D00" d="M16.3,14.4c0.5,0.5,0.5,1.4,0,1.9c-0.5,0.5-1.4,0.5-1.9,0c-0.5-0.5-0.5-1.4,0-1.9
						C14.9,13.9,15.8,13.9,16.3,14.4z"/>
					<polygon fill="#FFCE00" points="13.4,11.1 12.6,12.6 11.1,13.4 10.1,10.1 					"/>
				</g>
			</g>
		</g>
		<g>
			<g>
				<g>
					<g>
						<path fill="#FFCE00" d="M42.4,10.8c-0.3,0.7-1.1,1-1.7,0.7c-0.7-0.3-1-1.1-0.7-1.7c0.3-0.7,1.1-1,1.7-0.7
							C42.4,9.4,42.7,10.2,42.4,10.8z"/>
						<polygon fill="#FF9D00" points="44.4,6.9 42.7,6.8 41.5,5.7 44.1,3.5 						"/>
					</g>
					<g>
						<circle fill="#FFCE00" cx="22.8" cy="53.7" r="1.3"/>
						<polygon fill="#FF9D00" points="19.6,57.1 21.3,57.2 22.5,58.3 19.9,60.5 						"/>
					</g>
				</g>
				<g>
					<g>
						<path fill="#FFCE00" d="M54.3,24.4c-0.7,0.3-1.5-0.1-1.7-0.7c-0.3-0.7,0.1-1.5,0.7-1.7c0.7-0.3,1.5,0.1,1.7,0.7
							C55.4,23.4,55,24.1,54.3,24.4z"/>
						<polygon fill="#FF9D00" points="58.5,23 57.4,21.7 57.3,20.1 60.7,20.4 						"/>
					</g>
					<g>
						<path fill="#FFCE00" d="M9.7,39.6c0.7-0.3,1.5,0.1,1.7,0.7c0.3,0.7-0.1,1.5-0.7,1.7C10,42.3,9.2,42,8.9,41.3
							C8.6,40.6,9,39.9,9.7,39.6z"/>
						<polygon fill="#FF9D00" points="5.5,41 6.6,42.3 6.7,43.9 3.3,43.6 						"/>
					</g>
				</g>
				<g>
					<g>
						<path fill="#FFCE00" d="M53.2,42.4c-0.7-0.3-1-1.1-0.7-1.7c0.3-0.7,1.1-1,1.7-0.7c0.7,0.3,1,1.1,0.7,1.7
							C54.6,42.4,53.8,42.7,53.2,42.4z"/>
						<polygon fill="#FF9D00" points="57.1,44.4 57.2,42.7 58.3,41.5 60.5,44.1 						"/>
					</g>
					<g>
						<path fill="#FFCE00" d="M10.8,21.6c0.7,0.3,1,1.1,0.7,1.7c-0.3,0.7-1.1,1-1.7,0.7c-0.7-0.3-1-1.1-0.7-1.7
							C9.4,21.6,10.2,21.3,10.8,21.6z"/>
						<polygon fill="#FF9D00" points="6.9,19.6 6.8,21.3 5.7,22.5 3.5,19.9 						"/>
					</g>
				</g>
			</g>
			<g>
				<g>
					<circle fill="#FFCE00" cx="40.8" cy="53.8" r="1.3"/>
					<polygon fill="#FF9D00" points="41,58.5 42.3,57.4 43.9,57.3 43.6,60.7 					"/>
				</g>
				<g>
					<path fill="#FFCE00" d="M24.4,9.7c0.3,0.7-0.1,1.5-0.7,1.7c-0.7,0.3-1.5-0.1-1.7-0.7C21.7,10,22,9.2,22.7,8.9
						C23.4,8.6,24.1,9,24.4,9.7z"/>
					<polygon fill="#FF9D00" points="23,5.5 21.7,6.6 20.1,6.7 20.4,3.2 					"/>
				</g>
			</g>
		</g>
	</g>
</g>
</svg>
