<?xml version="1.0" encoding="utf-8"?>
<!-- Generator: Adobe Illustrator 16.0.0, SVG Export Plug-In . SVG Version: 6.00 Build 0)  -->
<!DOCTYPE svg PUBLIC "-//W3C//DTD SVG 1.1//EN" "http://www.w3.org/Graphics/SVG/1.1/DTD/svg11.dtd">
<svg version="1.1" id="Layer_1" xmlns="http://www.w3.org/2000/svg" xmlns:xlink="http://www.w3.org/1999/xlink" x="0px" y="0px"
	 width="64px" height="64px" viewBox="0 0 64 64" enable-background="new 0 0 64 64" xml:space="preserve">
<g>
	<g>
		<g>
			<path fill="#FF665A" d="M43.6,11.4c-3.9,0-7.9,1-11.6,2.7c-3.7-1.7-7.7-2.7-11.6-2.7c-11.8,0-17.7,9.2-17.7,20.5
				c0,11.3,12.1,30.9,23.9,30.9c1.9,0,3.7-0.5,5.4-1.5c1.7,0.9,3.5,1.5,5.4,1.5c11.8,0,23.9-19.6,23.9-30.9
				C61.3,20.5,55.4,11.4,43.6,11.4z"/>
		</g>
		<g>
			<path fill="#D6270F" d="M26.6,62.8c1.9,0,3.7-0.5,5.4-1.5c1.7,0.9,3.5,1.5,5.4,1.5c11.8,0,23.9-19.6,23.9-30.9
				c0-11.3-5.9-20.5-17.7-20.5c-3.9,0-7.9,1-11.6,2.7c-3.7-1.7-7.7-2.7-11.6-2.7"/>
		</g>
		<g>
			<path fill="#A50C00" d="M32,61.3c1.7,0.9,3.5,1.5,5.4,1.5c11.8,0,23.9-19.6,23.9-30.9c0-11.3-5.9-20.5-17.7-20.5
				c-3.9,0-7.9,1-11.6,2.7"/>
		</g>
		<g>
			<path fill="#FCF7C5" d="M41.8,16.5c-3.3,0-6.7,0.8-9.8,2.2c-3.1-1.4-6.5-2.2-9.8-2.2c-10,0-15,7.4-15,16.4
				c0,9.1,10.2,24.8,20.2,24.8c1.6,0,3.2-0.4,4.6-1.2c1.4,0.7,2.9,1.2,4.6,1.2c10,0,20.2-15.7,20.2-24.8
				C56.8,23.8,51.8,16.5,41.8,16.5z"/>
		</g>
		<g>
			<path fill="#EADFA0" d="M32,56.5c1.4,0.7,2.9,1.2,4.6,1.2c10,0,20.2-15.7,20.2-24.8c0-9.1-5-16.4-15-16.4c-3.3,0-6.7,0.8-9.8,2.2
				"/>
		</g>
		<g>
			<path fill="#A50C00" d="M32,16.2V2.4c0,0,2.3-1.8,4,0l-2.3,12.8L32,16.2z"/>
		</g>
		<g>
			<g>
				<path fill="#5EA304" d="M30.6,12.4L30.6,12.4L30.6,12.4L30.6,12.4c1-3.2,1.7-6.1-0.3-8.2C26.9,0.6,23,2.9,18.8,1.2l0,0l0,0l0,0"
					/>
			</g>
			<g>
				<path fill="#80C11A" d="M29.7,13.2L29.7,13.2L29.7,13.2L29.7,13.2c-3.5,1-6.5,1.6-8.8-0.2c-3.8-3.2-1.3-6.8-3.1-10.8l0,0l0,0
					l0,0"/>
			</g>
		</g>
	</g>
	<g>
		<g>
			<g>
				<circle fill="#EADFA0" cx="21.6" cy="37.2" r="3.2"/>
			</g>
			<g>
				<circle fill="#FCF7C5" cx="42.4" cy="37.2" r="3.2"/>
			</g>
			<g>
				<circle fill="#1E4784" cx="21.6" cy="36.2" r="3.2"/>
			</g>
			<g>
				<path fill="#00233F" d="M21.6,33.1c1.8,0,3.2,1.4,3.2,3.2s-1.4,3.2-3.2,3.2"/>
			</g>
			<g>
				<circle fill="#1E4784" cx="42.4" cy="36.2" r="3.2"/>
			</g>
			<g>
				<path fill="#00233F" d="M42.4,33.1c1.8,0,3.2,1.4,3.2,3.2s-1.4,3.2-3.2,3.2"/>
			</g>
		</g>
		<g>
			<g>
				<g>
					<g>
						<g>
							<g>
								<path fill="#80C11A" d="M24.9,24.8c0.7,1.5-1,1.4-2.6,2.1c-1.6,0.8-2.6,2.2-3.3,0.7c-0.7-1.5,0.1-3.3,1.7-4.1
									C22.3,22.8,24.2,23.3,24.9,24.8z"/>
							</g>
						</g>
					</g>
				</g>
			</g>
			<g>
				<g>
					<g>
						<g>
							<g>
								<path fill="#5EA304" d="M24.9,24.8c0.7,1.5-1,1.4-2.6,2.1c-1.6,0.8-2.6,2.2-3.3,0.7"/>
							</g>
						</g>
					</g>
				</g>
			</g>
		</g>
		<g>
			<g>
				<g>
					<g>
						<g>
							<g>
								<path fill="#80C11A" d="M39.3,24.8c-0.7,1.5,1,1.4,2.6,2.1c1.6,0.8,2.6,2.2,3.3,0.7c0.7-1.5-0.1-3.3-1.7-4.1
									C41.9,22.8,40.1,23.3,39.3,24.8z"/>
							</g>
						</g>
					</g>
				</g>
			</g>
			<g>
				<g>
					<g>
						<g>
							<g>
								<path fill="#5EA304" d="M39.3,24.8c-0.7,1.5,1,1.4,2.6,2.1c1.6,0.8,2.6,2.2,3.3,0.7"/>
							</g>
						</g>
					</g>
				</g>
			</g>
		</g>
	</g>
	<g>
		<g>
			<g>
				<path fill="#EADFA0" d="M37.6,47.3c0,2.4-2.5,6.6-5.6,6.6c-3.1,0-5.6-4.3-5.6-6.6"/>
			</g>
			<g>
				<g>
					<path fill="#02243E" d="M20.5,45.4c-0.6,0-1-0.4-1-1s0.4-1,1-1c0.6,0,1-0.7,1-1.4c0-0.6,0.4-1,1-1s1,0.4,1,1
						C23.5,43.8,22.2,45.4,20.5,45.4z"/>
				</g>
				<g>
					<path fill="#02243E" d="M43.5,45.4c-1.7,0-3-1.5-3-3.4c0-0.6,0.4-1,1-1s1,0.4,1,1c0,0.8,0.5,1.4,1,1.4c0.6,0,1,0.4,1,1
						S44.1,45.4,43.5,45.4z"/>
				</g>
			</g>
			<g>
				<path fill="#02243E" d="M32,49.9c-4.1,0-7.9-1.9-10.8-5.3c-0.4-0.4-0.3-1.1,0.1-1.4c0.4-0.4,1.1-0.3,1.4,0.1
					c2.5,3,5.8,4.6,9.3,4.6s6.8-1.6,9.3-4.6c0.4-0.4,1-0.5,1.4-0.1c0.4,0.4,0.5,1,0.1,1.4C40,48,36.1,49.9,32,49.9z"/>
			</g>
		</g>
		<g>
			<path fill="#FCF7C5" d="M36.5,44.8c0,1.1-2,2.1-4.5,2.1c-2.5,0-4.5-0.9-4.5-2.1"/>
		</g>
	</g>
</g>
</svg>
