<?xml version="1.0" encoding="utf-8"?>
<!-- Generator: Adobe Illustrator 16.0.0, SVG Export Plug-In . SVG Version: 6.00 Build 0)  -->
<!DOCTYPE svg PUBLIC "-//W3C//DTD SVG 1.1//EN" "http://www.w3.org/Graphics/SVG/1.1/DTD/svg11.dtd">
<svg version="1.1" id="Layer_1" xmlns="http://www.w3.org/2000/svg" xmlns:xlink="http://www.w3.org/1999/xlink" x="0px" y="0px"
	 width="64px" height="64px" viewBox="0 0 64 64" enable-background="new 0 0 64 64" xml:space="preserve">
<g>
	<g>
		<g>
			<g>
				<circle fill="#00A2E2" cx="32" cy="32" r="30"/>
				<path fill="#0090E0" d="M62,32c0,16.6-13.4,30-30,30"/>
				<path fill="#1DCAFF" d="M2,32C2,15.4,15.4,2,32,2"/>
				<path fill="#2F5068" d="M32,63C14.9,63,1,49.1,1,32S14.9,1,32,1s31,13.9,31,31S49.1,63,32,63z M32,3C16,3,3,16,3,32s13,29,29,29
					s29-13,29-29S48,3,32,3z"/>
			</g>
		</g>
	</g>
	<g>
		<polygon fill="#EA789B" points="32,2.2 6.2,46 57.8,46 		"/>
		<polygon fill="#D14E7D" points="23.6,46 57.8,46 40.7,16.9 		"/>
		<path fill="#2F5068" d="M57.8,47H6.2c-0.4,0-0.7,0-0.9-0.3c-0.2-0.3-0.2-0.6,0-0.9L31.2,2c0.4-0.6,1.3-0.6,1.7,0l25.8,43.8
			c0.2,0.3,0.2,0.5,0,0.8C58.4,47,58.1,47,57.8,47z M8,45H56L32,4.1L8,45z"/>
	</g>
	<g>
		<path fill="#2F5068" d="M32,62.7c-0.3,0-0.7-0.2-0.8-0.5L5.4,18.4c-0.2-0.3-0.2-0.6,0-0.9C5.6,17.1,5.9,17,6.2,17h51.5
			c0.4,0,0.7,0.1,0.9,0.4c0.2,0.3,0.2,0.7,0,1L32.8,62.2C32.7,62.5,32.3,62.7,32,62.7z M8,19l24,40.9L56,19H8z"/>
	</g>
</g>
</svg>
