<?xml version="1.0" encoding="utf-8"?>
<!-- Generator: Adobe Illustrator 16.0.0, SVG Export Plug-In . SVG Version: 6.00 Build 0)  -->
<!DOCTYPE svg PUBLIC "-//W3C//DTD SVG 1.1//EN" "http://www.w3.org/Graphics/SVG/1.1/DTD/svg11.dtd">
<svg version="1.1" id="Layer_1" xmlns="http://www.w3.org/2000/svg" xmlns:xlink="http://www.w3.org/1999/xlink" x="0px" y="0px"
	 width="64px" height="64px" viewBox="0 0 64 64" enable-background="new 0 0 64 64" xml:space="preserve">
<g>
	<rect x="2.9" y="46.3" fill="#424A4C" width="4.3" height="11.2"/>
	<rect x="55.8" y="38.9" fill="#424A4C" width="7.2" height="18.6"/>
	<rect x="47.7" y="51.4" fill="#424A4C" width="4.3" height="11.2"/>
	<rect x="6.5" y="50.2" fill="#424A4C" width="4.3" height="11.2"/>
	<rect x="43.9" y="48.9" fill="#424A4C" width="4.3" height="11.2"/>
	<rect x="36.9" y="46.3" fill="#424A4C" width="4.3" height="11.2"/>
	<rect x="40.5" y="50.2" fill="#424A4C" width="4.3" height="11.2"/>
	<rect x="23" y="50.2" fill="#424A4C" width="4.3" height="11.2"/>
	<rect x="9.3" y="53" fill="#424A4C" width="14.8" height="7.9"/>
	<rect x="43.4" y="53" fill="#424A4C" width="14.8" height="7.9"/>
	<rect x="1" y="49.2" fill="#424A4C" width="4.3" height="11.2"/>
	<g>
		<rect x="1" y="55.7" fill="#6CB7D8" width="62" height="7.7"/>
		<rect x="1" y="57.4" fill="#4EABCC" width="62" height="6"/>
		<rect x="1" y="60" fill="#6CB7D8" width="62" height="0.6"/>
		<rect x="1" y="61.4" fill="#6CB7D8" width="62" height="0.6"/>
		<rect x="1" y="62.7" fill="#6CB7D8" width="62" height="0.6"/>
		<g>
			<path fill="#9E735A" d="M36.4,23.1c0,0.4-0.4,0.8-0.8,0.8h-7.5c-0.4,0-0.8-0.4-0.8-0.8V15c0-0.4,0.4-0.8,0.8-0.8h7.5
				c0.4,0,0.8,0.4,0.8,0.8V23.1z"/>
			<path fill="#7F5B42" d="M27.4,15c0-0.4,0.4-0.8,0.8-0.8h7.5c0.4,0,0.8,0.4,0.8,0.8v8.1c0,0.4-0.4,0.8-0.8,0.8"/>
			<path fill="#7F5B42" d="M38.6,50.3c0,0.3-0.3,0.6-0.6,0.6H26c-0.3,0-0.6-0.3-0.6-0.6V19.2c0-0.3,0.3-0.6,0.6-0.6H38
				c0.3,0,0.6,0.3,0.6,0.6V50.3z"/>
			<path fill="#997153" d="M38.6,62.8c0,0.3-0.3,0.6-0.6,0.6H26c-0.3,0-0.6-0.3-0.6-0.6V31.7c0-0.3,0.3-0.6,0.6-0.6H38
				c0.3,0,0.6,0.3,0.6,0.6V62.8z"/>
			<path fill="#845E44" d="M38,31.1c0.3,0,0.6,0.3,0.6,0.6v31.1c0,0.3-0.3,0.6-0.6,0.6"/>
			<path fill="#BC8F71" d="M26,63.4c-0.3,0-0.6-0.3-0.6-0.6V31.7c0-0.3,0.3-0.6,0.6-0.6"/>
			<polygon fill="#7F5B42" points="26,31.1 25.4,31.8 25.4,37.4 38.6,50.7 38.6,36 33.8,31.1 			"/>
			<polygon fill="#70513C" points="38,50.1 38.6,50.7 38.6,36 38,35.4 			"/>
			<g>
				<path fill="#9E7B64" d="M27.3,61.6c0,0.1-0.1,0.2-0.2,0.2l0,0c-0.1,0-0.2-0.1-0.2-0.2V36.9c0-0.1,0.1-0.2,0.2-0.2l0,0
					c0.1,0,0.2,0.1,0.2,0.2V61.6z"/>
				<path fill="#70513C" d="M27.3,39.4v-2.5c0-0.1-0.1-0.2-0.2-0.2s-0.2,0.1-0.2,0.2V39L27.3,39.4z"/>
				<path fill="#9E7B64" d="M28.7,61.6c0,0.1-0.1,0.2-0.2,0.2l0,0c-0.1,0-0.2-0.1-0.2-0.2V36.9c0-0.1,0.1-0.2,0.2-0.2l0,0
					c0.1,0,0.2,0.1,0.2,0.2V61.6z"/>
				<path fill="#9E7B64" d="M28.7,61.6c0,0.1-0.1,0.2-0.2,0.2l0,0c-0.1,0-0.2-0.1-0.2-0.2V36.9c0-0.1,0.1-0.2,0.2-0.2l0,0
					c0.1,0,0.2,0.1,0.2,0.2V61.6z"/>
				<path fill="#9E7B64" d="M30.1,61.6c0,0.1-0.1,0.2-0.2,0.2l0,0c-0.1,0-0.2-0.1-0.2-0.2V36.9c0-0.1,0.1-0.2,0.2-0.2l0,0
					c0.1,0,0.2,0.1,0.2,0.2V61.6z"/>
				<path fill="#70513C" d="M30.1,42.1v-5.3c0-0.1-0.1-0.2-0.2-0.2s-0.2,0.1-0.2,0.2v4.9L30.1,42.1z"/>
				<path fill="#70513C" d="M28.7,40.8v-3.9c0-0.1-0.1-0.2-0.2-0.2c-0.1,0-0.2,0.1-0.2,0.2v3.5L28.7,40.8z"/>
				<path fill="#9E7B64" d="M31.5,61.6c0,0.1-0.1,0.2-0.2,0.2l0,0c-0.1,0-0.2-0.1-0.2-0.2V36.9c0-0.1,0.1-0.2,0.2-0.2l0,0
					c0.1,0,0.2,0.1,0.2,0.2V61.6z"/>
				<path fill="#70513C" d="M31.5,43.5v-6.7c0-0.1-0.1-0.2-0.2-0.2c-0.1,0-0.2,0.1-0.2,0.2v6.3L31.5,43.5z"/>
				<path fill="#9E7B64" d="M32.9,61.6c0,0.1-0.1,0.2-0.2,0.2l0,0c-0.1,0-0.2-0.1-0.2-0.2V36.9c0-0.1,0.1-0.2,0.2-0.2l0,0
					c0.1,0,0.2,0.1,0.2,0.2V61.6z"/>
				<path fill="#70513C" d="M32.9,44.9v-8.1c0-0.1-0.1-0.2-0.2-0.2s-0.2,0.1-0.2,0.2v7.7L32.9,44.9z"/>
				<path fill="#9E7B64" d="M34.3,61.6c0,0.1-0.1,0.2-0.2,0.2l0,0c-0.1,0-0.2-0.1-0.2-0.2V36.9c0-0.1,0.1-0.2,0.2-0.2l0,0
					c0.1,0,0.2,0.1,0.2,0.2V61.6z"/>
				<path fill="#70513C" d="M34.1,36.7c-0.1,0-0.2,0.1-0.2,0.2v9.1l0.4,0.4v-9.4C34.3,36.8,34.2,36.7,34.1,36.7z"/>
				<path fill="#9E7B64" d="M35.7,61.6c0,0.1-0.1,0.2-0.2,0.2l0,0c-0.1,0-0.2-0.1-0.2-0.2V36.9c0-0.1,0.1-0.2,0.2-0.2l0,0
					c0.1,0,0.2,0.1,0.2,0.2V61.6z"/>
				<path fill="#70513C" d="M35.5,36.7c-0.1,0-0.2,0.1-0.2,0.2v10.5l0.4,0.4V36.9C35.7,36.8,35.6,36.7,35.5,36.7z"/>
				<path fill="#9E7B64" d="M37.1,61.6c0,0.1-0.1,0.2-0.2,0.2l0,0c-0.1,0-0.2-0.1-0.2-0.2V36.9c0-0.1,0.1-0.2,0.2-0.2l0,0
					c0.1,0,0.2,0.1,0.2,0.2V61.6z"/>
				<path fill="#70513C" d="M36.9,36.7c-0.1,0-0.2,0.1-0.2,0.2v11.9l0.4,0.4V36.9C37.1,36.8,37,36.7,36.9,36.7z"/>
			</g>
			<g>
				<path fill="#4F3E32" d="M38.9,44.1c0,0.2-0.2,0.4-0.4,0.4h-13c-0.2,0-0.4-0.2-0.4-0.4l0,0c0-0.2,0.2-0.4,0.4-0.4h13
					C38.7,43.7,38.9,43.9,38.9,44.1L38.9,44.1z"/>
				<path fill="#4F3E32" d="M38.9,46c0,0.2-0.2,0.4-0.4,0.4h-13c-0.2,0-0.4-0.2-0.4-0.4l0,0c0-0.2,0.2-0.4,0.4-0.4h13
					C38.7,45.6,38.9,45.8,38.9,46L38.9,46z"/>
			</g>
			<g>
				<path fill="#4F3E32" d="M38.9,55.1c0,0.2-0.2,0.4-0.4,0.4h-13c-0.2,0-0.4-0.2-0.4-0.4l0,0c0-0.2,0.2-0.4,0.4-0.4h13
					C38.7,54.7,38.9,54.8,38.9,55.1L38.9,55.1z"/>
				<path fill="#4F3E32" d="M38.9,56.9c0,0.2-0.2,0.4-0.4,0.4h-13c-0.2,0-0.4-0.2-0.4-0.4l0,0c0-0.2,0.2-0.4,0.4-0.4h13
					C38.7,56.5,38.9,56.7,38.9,56.9L38.9,56.9z"/>
			</g>
			<path fill="#AF8366" d="M40.1,36.6c0,0.5-0.4,0.9-0.9,0.9H24.8c-0.5,0-0.9-0.4-0.9-0.9V22.1c0-0.5,0.4-0.9,0.9-0.9h14.5
				c0.5,0,0.9,0.4,0.9,0.9V36.6z"/>
			<path fill="#9E735A" d="M23.9,22.1c0-0.5,0.4-0.9,0.9-0.9h14.5c0.5,0,0.9,0.4,0.9,0.9v14.5c0,0.5-0.4,0.9-0.9,0.9"/>
			<path fill="#997153" d="M40.1,36.6c0,0.5-0.4,0.9-0.9,0.9H24.8c-0.5,0-0.9-0.4-0.9-0.9"/>
			<g>
				<path fill="#997153" d="M37.7,29.3c0,3.1-2.5,7.7-5.7,7.7c-3.1,0-5.7-4.6-5.7-7.7s2.5-5.7,5.7-5.7
					C35.1,23.7,37.7,26.2,37.7,29.3z"/>
				<circle fill="#EDEADA" cx="32" cy="29.3" r="5.7"/>
				<path fill="#DBD6C1" d="M32,23.7c-1.8,0-3.4,0.8-4.4,2.1l8,8c1.3-1,2.1-2.6,2.1-4.4C37.7,26.2,35.1,23.7,32,23.7z"/>
				<path fill="#F4C647" d="M32,35.5c-3.4,0-6.1-2.7-6.1-6.1c0-3.4,2.7-6.1,6.1-6.1s6.1,2.7,6.1,6.1C38.1,32.7,35.4,35.5,32,35.5z
					 M32,24.1c-2.9,0-5.2,2.3-5.2,5.2s2.3,5.2,5.2,5.2s5.2-2.3,5.2-5.2S34.9,24.1,32,24.1z"/>
			</g>
			<path fill="#4F3E32" d="M39.1,18.8c0,0.1-0.1,0.2-0.2,0.2H25.2c-0.1,0-0.2-0.1-0.2-0.2l0,0c0-0.1,0.1-0.2,0.2-0.2h13.6
				C38.9,18.6,39.1,18.7,39.1,18.8L39.1,18.8z"/>
			<g>
				<path fill="#AF8366" d="M26.5,20.4c0,0.1-0.1,0.2-0.2,0.2l0,0c-0.1,0-0.2-0.1-0.2-0.2v-0.7c0-0.1,0.1-0.2,0.2-0.2l0,0
					c0.1,0,0.2,0.1,0.2,0.2V20.4z"/>
				<path fill="#AF8366" d="M27.7,20.4c0,0.1-0.1,0.2-0.2,0.2l0,0c-0.1,0-0.2-0.1-0.2-0.2v-0.7c0-0.1,0.1-0.2,0.2-0.2l0,0
					c0.1,0,0.2,0.1,0.2,0.2V20.4z"/>
				<path fill="#AF8366" d="M28.8,20.4c0,0.1-0.1,0.2-0.2,0.2l0,0c-0.1,0-0.2-0.1-0.2-0.2v-0.7c0-0.1,0.1-0.2,0.2-0.2l0,0
					c0.1,0,0.2,0.1,0.2,0.2V20.4z"/>
				<path fill="#AF8366" d="M29.9,20.4c0,0.1-0.1,0.2-0.2,0.2l0,0c-0.1,0-0.2-0.1-0.2-0.2v-0.7c0-0.1,0.1-0.2,0.2-0.2l0,0
					c0.1,0,0.2,0.1,0.2,0.2V20.4z"/>
				<path fill="#AF8366" d="M31.1,20.4c0,0.1-0.1,0.2-0.2,0.2l0,0c-0.1,0-0.2-0.1-0.2-0.2v-0.7c0-0.1,0.1-0.2,0.2-0.2l0,0
					c0.1,0,0.2,0.1,0.2,0.2V20.4z"/>
				<path fill="#AF8366" d="M32.2,20.4c0,0.1-0.1,0.2-0.2,0.2l0,0c-0.1,0-0.2-0.1-0.2-0.2v-0.7c0-0.1,0.1-0.2,0.2-0.2l0,0
					c0.1,0,0.2,0.1,0.2,0.2V20.4z"/>
				<path fill="#AF8366" d="M33.3,20.4c0,0.1-0.1,0.2-0.2,0.2l0,0c-0.1,0-0.2-0.1-0.2-0.2v-0.7c0-0.1,0.1-0.2,0.2-0.2l0,0
					c0.1,0,0.2,0.1,0.2,0.2V20.4z"/>
				<path fill="#AF8366" d="M34.4,20.4c0,0.1-0.1,0.2-0.2,0.2l0,0c-0.1,0-0.2-0.1-0.2-0.2v-0.7c0-0.1,0.1-0.2,0.2-0.2l0,0
					c0.1,0,0.2,0.1,0.2,0.2V20.4z"/>
				<path fill="#AF8366" d="M35.6,20.4c0,0.1-0.1,0.2-0.2,0.2l0,0c-0.1,0-0.2-0.1-0.2-0.2v-0.7c0-0.1,0.1-0.2,0.2-0.2l0,0
					c0.1,0,0.2,0.1,0.2,0.2V20.4z"/>
				<path fill="#AF8366" d="M36.7,20.4c0,0.1-0.1,0.2-0.2,0.2l0,0c-0.1,0-0.2-0.1-0.2-0.2v-0.7c0-0.1,0.1-0.2,0.2-0.2l0,0
					c0.1,0,0.2,0.1,0.2,0.2V20.4z"/>
				<path fill="#AF8366" d="M37.8,20.4c0,0.1-0.1,0.2-0.2,0.2l0,0c-0.1,0-0.2-0.1-0.2-0.2v-0.7c0-0.1,0.1-0.2,0.2-0.2l0,0
					c0.1,0,0.2,0.1,0.2,0.2V20.4z"/>
			</g>
			<path fill="#AF8366" d="M32.3,29.1c0,0.2-0.1,0.3-0.3,0.3l0,0c-0.2,0-0.3-0.1-0.3-0.3v-4.2c0-0.2,0.1-0.3,0.3-0.3l0,0
				c0.2,0,0.3,0.1,0.3,0.3V29.1z"/>
			<path fill="#4F3E32" d="M34.9,29.3c0,0.2-0.2,0.4-0.4,0.4h-2.6c-0.2,0-0.4-0.2-0.4-0.4l0,0c0-0.2,0.2-0.4,0.4-0.4h2.6
				C34.7,28.9,34.9,29.1,34.9,29.3L34.9,29.3z"/>
			<circle fill="#997153" cx="32" cy="29.3" r="0.5"/>
			<path fill="#4F3E32" d="M25.3,18.8c0,0.1-0.1,0.2-0.2,0.2l0,0c-0.1,0-0.2-0.1-0.2-0.2v-2c0-0.1,0.1-0.2,0.2-0.2l0,0
				c0.1,0,0.2,0.1,0.2,0.2V18.8z"/>
			<path fill="#4F3E32" d="M25.6,17.9c0,0.1-0.1,0.2-0.2,0.2h-0.8c-0.1,0-0.2-0.1-0.2-0.2l0,0c0-0.1,0.1-0.2,0.2-0.2h0.8
				C25.6,17.8,25.6,17.9,25.6,17.9L25.6,17.9z"/>
			<g>
				<path fill="#4F3E32" d="M39.1,18.8c0,0.1-0.1,0.2-0.2,0.2l0,0c-0.1,0-0.2-0.1-0.2-0.2v-2c0-0.1,0.1-0.2,0.2-0.2l0,0
					c0.1,0,0.2,0.1,0.2,0.2V18.8z"/>
				<path fill="#4F3E32" d="M39.5,17.9c0,0.1-0.1,0.2-0.2,0.2h-0.8c-0.1,0-0.2-0.1-0.2-0.2l0,0c0-0.1,0.1-0.2,0.2-0.2h0.8
					C39.4,17.8,39.5,17.9,39.5,17.9L39.5,17.9z"/>
			</g>
			<g>
				<path fill="#4F3E32" d="M32.1,2.8c0,0.1-0.1,0.2-0.2,0.2l0,0c-0.1,0-0.2-0.1-0.2-0.2v-2c0-0.1,0.1-0.2,0.2-0.2l0,0
					c0.1,0,0.2,0.1,0.2,0.2V2.8z"/>
				<path fill="#4F3E32" d="M32.5,1.9c0,0.1-0.1,0.2-0.2,0.2h-0.8c-0.1,0-0.2-0.1-0.2-0.2l0,0c0-0.1,0.1-0.2,0.2-0.2h0.8
					C32.4,1.8,32.5,1.9,32.5,1.9L32.5,1.9z"/>
			</g>
			<polygon fill="#604533" points="38,15.3 31.9,2.2 25.8,15.3 			"/>
			<polygon fill="#422E20" points="35.3,15.3 31.9,2.2 28.5,15.3 			"/>
			<path fill="#7F5B42" d="M38.4,15.5c0,0.1-0.1,0.1-0.1,0.1H25.5c-0.1,0-0.1-0.1-0.1-0.1l0,0c0-0.1,0.1-0.1,0.1-0.1h12.7
				C38.3,15.3,38.4,15.4,38.4,15.5L38.4,15.5z"/>
		</g>
	</g>
	<g>
		<g>
			<rect x="57.2" y="40" fill="#EBF0F2" width="1" height="1"/>
			<rect x="57.2" y="41.9" fill="#EBF0F2" width="1" height="1"/>
			<rect x="57.2" y="43.9" fill="#EBF0F2" width="1" height="1"/>
			<rect x="57.2" y="45.8" fill="#EBF0F2" width="1" height="1"/>
			<rect x="57.2" y="47.7" fill="#EBF0F2" width="1" height="1"/>
			<rect x="57.2" y="49.6" fill="#EBF0F2" width="1" height="1"/>
			<rect x="57.2" y="51.5" fill="#EBF0F2" width="1" height="1"/>
			<rect x="57.2" y="53.4" fill="#EBF0F2" width="1" height="1"/>
		</g>
		<g>
			<rect x="58.9" y="40" fill="#EBF0F2" width="1" height="1"/>
			<rect x="58.9" y="41.9" fill="#EBF0F2" width="1" height="1"/>
			<rect x="58.9" y="43.9" fill="#EBF0F2" width="1" height="1"/>
			<rect x="58.9" y="45.8" fill="#EBF0F2" width="1" height="1"/>
			<rect x="58.9" y="47.7" fill="#EBF0F2" width="1" height="1"/>
			<rect x="58.9" y="49.6" fill="#EBF0F2" width="1" height="1"/>
			<rect x="58.9" y="51.5" fill="#EBF0F2" width="1" height="1"/>
			<rect x="58.9" y="53.4" fill="#EBF0F2" width="1" height="1"/>
		</g>
		<g>
			<rect x="60.7" y="40" fill="#EBF0F2" width="1" height="1"/>
			<rect x="60.7" y="41.9" fill="#EBF0F2" width="1" height="1"/>
			<rect x="60.7" y="43.9" fill="#EBF0F2" width="1" height="1"/>
			<rect x="60.7" y="45.8" fill="#EBF0F2" width="1" height="1"/>
			<rect x="60.7" y="47.7" fill="#EBF0F2" width="1" height="1"/>
			<rect x="60.7" y="49.6" fill="#EBF0F2" width="1" height="1"/>
			<rect x="60.7" y="51.5" fill="#EBF0F2" width="1" height="1"/>
			<rect x="60.7" y="53.4" fill="#EBF0F2" width="1" height="1"/>
		</g>
	</g>
</g>
</svg>
