<?xml version="1.0" encoding="utf-8"?>
<!-- Generator: Adobe Illustrator 16.0.0, SVG Export Plug-In . SVG Version: 6.00 Build 0)  -->
<!DOCTYPE svg PUBLIC "-//W3C//DTD SVG 1.1//EN" "http://www.w3.org/Graphics/SVG/1.1/DTD/svg11.dtd">
<svg version="1.1" id="Layer_1" xmlns="http://www.w3.org/2000/svg" xmlns:xlink="http://www.w3.org/1999/xlink" x="0px" y="0px"
	 width="64px" height="64px" viewBox="0 0 64 64" enable-background="new 0 0 64 64" xml:space="preserve">
<g>
	<g>
		<g>
			<circle fill="#FCD21D" cx="32" cy="31" r="26.5"/>
			<path fill="#F9B01E" d="M13.3,12.3C23.6,2,40.4,2,50.8,12.3c10.3,10.3,10.3,27.1,0,37.5"/>
		</g>
	</g>
	<g>
		<path fill="#C5EAE7" d="M49.9,16.9c0-9-7.3-16.3-16.3-16.3c-6.3,0-11.8,3.6-14.5,9c-0.6-0.1-1.2-0.2-1.8-0.2
			c-4.3,0-7.7,3.4-7.7,7.7c0,0.2,0,0.3,0,0.5C4,18.2,1,23,1,29v0.8C1,36.1,6.1,41,12.5,41h26C44.8,41,50,36.1,50,29.7v-3.6
			C50,23.2,49.9,19.9,49.9,16.9z"/>
		<path fill="#98D3CD" d="M49.9,19.1c0-9-7.3-16.3-16.3-16.3c-6.3,0-11.8,3.6-14.5,9c-0.6-0.1-1.2-0.2-1.8-0.2
			c-4.3,0-7.7,3.4-7.7,7.7c0,0.2,0,0.3,0,0.5C4,20.3,1,23,1,29v0.8C1,36.1,6.1,41,12.5,41h26C44.8,41,50,36.1,50,29.7v-3.6
			C50,23.2,49.9,22.1,49.9,19.1z"/>
		<path fill="#8BCCC2" d="M12,41h26.4C44.8,41,50,36.1,50,29.7v-3.6c0-2.9-0.1-4-0.1-7"/>
		<path fill="#98D3CD" d="M9.6,19.2"/>
		<path fill="#C5EAE7" d="M26.6,19.3c-0.5-0.1-1-0.2-1.5-0.2c-3,0-5.4,2.4-5.4,5.4c0,0.5,0.1,1,0.2,1.5
			C20.3,22.5,23.1,19.7,26.6,19.3z"/>
		<path fill="#C5EAE7" d="M36,14.3c-0.6-0.3-1.3-0.6-2-0.7c-4-0.7-7.9,1.9-8.7,6c-0.1,0.7-0.1,1.4,0,2.1C26.8,17.1,31.2,14,36,14.3z
			"/>
		<circle fill="#C5EAE7" cx="6.5" cy="28.1" r="0.5"/>
		<circle fill="#C5EAE7" cx="7.9" cy="24" r="0.7"/>
		<circle fill="#C5EAE7" cx="17.3" cy="16.3" r="0.3"/>
		<circle fill="#C5EAE7" cx="24.9" cy="12.1" r="0.8"/>
		<circle fill="#C5EAE7" cx="31.2" cy="5.5" r="0.4"/>
		<circle fill="#C5EAE7" cx="34.9" cy="6.7" r="1.2"/>
	</g>
	<g>
		<path fill="#C5EAE7" d="M28.2,40.3c0-6.3,5.3-11.5,11.6-11.5c4.5,0,8.4,2.6,10.3,6.3c0.4-0.1,0.9-0.2,1.3-0.2c3,0,5.5,2.4,5.5,5.4
			c0,0.1,0,0.2,0,0.4c4,0.4,6.1,3.9,6.1,8.1v0.5c0,4.5-3.6,8.6-8.1,8.6H36.5c-4.5,0-8.5-4.1-8.5-8.6v-2.6
			C28,44.8,28.2,42.5,28.2,40.3z"/>
		<path fill="#98D3CD" d="M28.2,41.9c0-6.3,5.3-11.5,11.6-11.5c4.5,0,8.4,2.6,10.3,6.3c0.4-0.1,0.9-0.2,1.3-0.2c3,0,5.5,2.4,5.5,5.4
			c0,0.1,0,0.2,0,0.4c4,0.4,6.1,2.3,6.1,6.5v0.5c0,4.5-3.6,8.6-8.1,8.6H36.5c-4.5,0-8.5-4.1-8.5-8.6v-2.6C28,44.8,28.2,44,28.2,41.9
			z"/>
		<path fill="#8BCCC2" d="M55,58H36.5c-4.5,0-8.5-4.1-8.5-8.6v-3.6c0-2.1,0.3-2.6,0.3-4.7"/>
		<path fill="#98D3CD" d="M56.9,42"/>
		<path fill="#C5EAE7" d="M44.9,42c0.3-0.1,0.7-0.2,1.1-0.2c2.1,0,3.8,1.7,3.8,3.8c0,0.4-0.1,0.7-0.2,1.1
			C49.4,44.3,47.4,42.3,44.9,42z"/>
		<path fill="#C5EAE7" d="M38.2,38.5c0.4-0.2,0.9-0.4,1.4-0.5c2.9-0.5,5.6,1.4,6.1,4.2c0.1,0.5,0.1,1,0,1.5
			C44.8,40.5,41.7,38.3,38.2,38.5z"/>
		<circle fill="#C5EAE7" cx="59.1" cy="48.3" r="0.4"/>
		<circle fill="#C5EAE7" cx="58.1" cy="45.4" r="0.5"/>
		<circle fill="#C5EAE7" cx="51.5" cy="39.9" r="0.2"/>
		<circle fill="#C5EAE7" cx="46.1" cy="37" r="0.6"/>
		<circle fill="#C5EAE7" cx="41.6" cy="32.3" r="0.3"/>
		<circle fill="#C5EAE7" cx="39" cy="33.1" r="0.9"/>
	</g>
</g>
</svg>
