<?xml version="1.0" encoding="utf-8"?>
<!-- Generator: Adobe Illustrator 16.0.0, SVG Export Plug-In . SVG Version: 6.00 Build 0)  -->
<!DOCTYPE svg PUBLIC "-//W3C//DTD SVG 1.1//EN" "http://www.w3.org/Graphics/SVG/1.1/DTD/svg11.dtd">
<svg version="1.1" id="Layer_1" xmlns="http://www.w3.org/2000/svg" xmlns:xlink="http://www.w3.org/1999/xlink" x="0px" y="0px"
	 width="64px" height="64px" viewBox="0 0 64 64" enable-background="new 0 0 64 64" xml:space="preserve">
<g>
	<g>
		<g>
			<g>
				<path fill="#F7910B" d="M62.3,39.1c0,13-11.9,23.5-30.3,23.5c-18.4,0-30.3-10.5-30.3-23.5S13.6,6.6,32,6.6
					C50.4,6.6,62.3,26.1,62.3,39.1z"/>
			</g>
			<g>
				<path fill="#F7910B" d="M62.3,39.1c0,13-11.9,19.5-30.3,19.5c-18.4,0-30.3-6.5-30.3-19.5S13.6,4.6,32,4.6
					C50.4,4.6,62.3,26.1,62.3,39.1z"/>
			</g>
			<g>
				<path fill="#F9A908" d="M32,4.6c18.4,0,30.3,21.5,30.3,34.5S50.4,58.6,32,58.6"/>
			</g>
			<g>
				<path fill="#F9A908" d="M62.3,39.1c0,13-11.9,19.5-30.3,19.5c-18.4,0-30.3-6.5-30.3-19.5S13.6,6.6,32,6.6
					C50.4,6.6,62.3,26.1,62.3,39.1z"/>
			</g>
			<g>
				<path fill="#F9C55D" d="M1.7,39.1c0-13,11.9-32.5,30.3-32.5"/>
			</g>
			<g>
				<path fill="#F7910B" d="M32,6.6c18.4,0,30.3,19.5,30.3,32.5S50.4,62.6,32,62.6"/>
			</g>
			<g>
				<path fill="#EA7103" d="M32,6.6c18.4,0,30.3,19.5,30.3,32.5"/>
			</g>
			<g>
				<circle fill="#F7910B" cx="10.3" cy="36.1" r="0.6"/>
			</g>
			<g>
				<circle fill="#F7910B" cx="5.8" cy="38.1" r="1.1"/>
			</g>
			<g>
				<circle fill="#F7910B" cx="8.8" cy="34.1" r="0.2"/>
			</g>
			<g>
				<circle fill="#F7910B" cx="13.4" cy="35.9" r="0.2"/>
			</g>
			<g>
				<circle fill="#F9A908" cx="52.6" cy="36.4" r="0.8"/>
			</g>
			<g>
				<circle fill="#F9A908" cx="55.1" cy="37.8" r="0.2"/>
			</g>
			<g>
				<circle fill="#F9A908" cx="49.8" cy="29" r="0.3"/>
			</g>
			<g>
				<circle fill="#F9A908" cx="49.3" cy="40.6" r="1.3"/>
			</g>
			<g>
				<circle fill="#F9A908" cx="56.5" cy="40.7" r="0.6"/>
			</g>
			<g>
				<circle fill="#F7910B" cx="9.3" cy="40.1" r="0.5"/>
			</g>
			<g>
				<circle fill="#F7910B" cx="10.1" cy="31.7" r="0.4"/>
			</g>
			<g>
				<circle fill="#F9A908" cx="4.8" cy="17.9" r="1.1"/>
			</g>
			<g>
				<circle fill="#F9A908" cx="8" cy="14.4" r="0.6"/>
			</g>
			<g>
				<circle fill="#F9A908" cx="59.2" cy="20.3" r="0.2"/>
			</g>
			<g>
				<circle fill="#F9A908" cx="58.4" cy="17.4" r="0.8"/>
			</g>
			<g>
				<circle fill="#F9A908" cx="61" cy="17.9" r="0.5"/>
			</g>
			<g>
				<circle fill="#F9A908" cx="6" cy="20.9" r="0.6"/>
			</g>
			<g>
				<path fill="#F7910B" d="M39.2,49.5c0,2.6-3.3,7.2-7.4,7.2s-7.4-4.6-7.4-7.2"/>
			</g>
			<g>
				<g>
					<circle fill="#D87703" cx="20.6" cy="27.6" r="3.5"/>
				</g>
				<g>
					<path fill="#D87703" d="M46.9,27.6c0,1.9-1.6,3.5-3.5,3.5c-1.9,0-3.5-1.6-3.5-3.5c0-1.9,1.6-3.5,3.5-3.5
						C45.4,24.1,46.9,25.7,46.9,27.6z"/>
				</g>
				<g>
					<circle fill="#1E4784" cx="20.6" cy="26.6" r="3.5"/>
				</g>
				<g>
					<path fill="#00233F" d="M20.6,23.1c1.9,0,3.5,1.6,3.5,3.5s-1.6,3.5-3.5,3.5"/>
				</g>
				<g>
					<path fill="#1E4784" d="M46.9,26.6c0,1.9-1.6,3.5-3.5,3.5c-1.9,0-3.5-1.6-3.5-3.5s1.6-3.5,3.5-3.5
						C45.4,23.1,46.9,24.7,46.9,26.6z"/>
				</g>
				<g>
					<path fill="#00233F" d="M43.4,23.1c1.9,0,3.5,1.6,3.5,3.5s-1.6,3.5-3.5,3.5"/>
				</g>
				<g>
					<path fill="#F9A908" d="M16.5,27.4c0-2.3,1.8-5.1,4.1-5.1c2.3,0,4.1,2.8,4.1,5.1"/>
				</g>
				<g>
					<path fill="#F7910B" d="M39.3,27.4c0-2.3,1.8-5.1,4.1-5.1c2.3,0,4.1,2.8,4.1,5.1"/>
				</g>
			</g>
			<g>
				<g>
					<path fill="#F9C55D" d="M27.8,32.4c0,1.2-3.5,0.7-7.8,0.7c-4.3,0-7.8,0.6-7.8-0.7c0-1.2,3.5-2.2,7.8-2.2
						C24.3,30.2,27.8,31.2,27.8,32.4z"/>
				</g>
				<g>
					<path fill="#F9A908" d="M51.8,32.4c0,1.2-3.5,0.7-7.8,0.7s-7.8,0.6-7.8-0.7c0-1.2,3.5-2.2,7.8-2.2S51.8,31.2,51.8,32.4z"/>
				</g>
			</g>
		</g>
		<g>
			<g>
				<g>
					<path fill="#19BCA4" d="M23.3,23.1c0.2,0.9-0.1,0.5-1.4,0.7c-1.4,0.2-2.4,0.9-2.6,0c-0.2-0.9,0.8-1.9,2.2-2.1
						C22.8,21.4,23.1,22.2,23.3,23.1z"/>
				</g>
			</g>
			<g>
				<g>
					<path fill="#19BCA4" d="M40.8,14.1c0,1,0.1,0.5,1.5,0.5c1.4,0,2.5,0.5,2.5-0.5s-1.1-1.7-2.5-1.7C40.9,12.4,40.8,13.2,40.8,14.1
						z"/>
				</g>
			</g>
		</g>
	</g>
	<g>
		<g>
			<path fill="#24B9ED" d="M50.1,21l0-1c-0.1-2.2,0.6-4.3,2.5-6.6C53.9,11.8,55,10.4,55,9c0-1.5-1-2.4-3.1-2.5
				c-1.4,0-3.1,0.5-4.2,1.3l-1.4-4.6c1.5-0.9,4.1-1.7,7.1-1.7c5.6,0,8.1,3.1,8.1,6.6c0,3.2-1.8,5.3-3.5,7.1c-1.6,1.7-2,3.4-2,5.3V21
				H50.1z M49,27c0-2.2,1.6-3.9,3.8-3.9c2.3,0,3.8,1.6,3.8,3.9c0,2.2-1.5,3.9-3.8,3.9C50.5,30.9,49,29.3,49,27z"/>
		</g>
	</g>
	<g>
		<path fill="#02243E" d="M39,39H25c-0.6,0-1-0.4-1-1s0.4-1,1-1h14c0.6,0,1,0.4,1,1S39.6,39,39,39z"/>
	</g>
	<g>
		<g>
			<path fill="#1491DD" d="M52.7,23.2C52.6,23.2,52.7,23.2,52.7,23.2v7.7c0,0-0.2,0,0,0c2.3,0,3.8-1.7,3.8-3.9
				C56.5,24.8,55,23.2,52.7,23.2z"/>
		</g>
		<g>
			<path fill="#1491DD" d="M53.2,1.4c-0.3,0-0.2,0-1.2,0v5c2,0.2,2.8,1.2,2.8,2.6c0,1.4-0.5,2.2-1.9,3.8c-0.1,0.1-0.3,0.4-1,1.2V21
				h4v-0.6c0-1.9,0.4-3.6,2-5.3c1.6-1.8,3.5-3.9,3.5-7.1C61.5,4.5,58.8,1.4,53.2,1.4z"/>
		</g>
	</g>
</g>
</svg>
