<?xml version="1.0" encoding="utf-8"?>
<!-- Generator: Adobe Illustrator 16.0.0, SVG Export Plug-In . SVG Version: 6.00 Build 0)  -->
<!DOCTYPE svg PUBLIC "-//W3C//DTD SVG 1.1//EN" "http://www.w3.org/Graphics/SVG/1.1/DTD/svg11.dtd">
<svg version="1.1" xmlns="http://www.w3.org/2000/svg" xmlns:xlink="http://www.w3.org/1999/xlink" x="0px" y="0px" width="65px"
	 height="65px" viewBox="0 0 65 65" enable-background="new 0 0 65 65" xml:space="preserve">
<g id="Layer_1">
	<g>
		<g>
			<g>
				<g>
					<path fill="#893210" d="M32.498,50.72c-0.938,0-1.695-0.757-1.695-1.693V31.364c0-0.938,0.758-1.697,1.695-1.697
						s1.695,0.76,1.695,1.697v17.662C34.193,49.963,33.436,50.72,32.498,50.72z"/>
				</g>
				<g>
					<path fill="#561D0B" d="M32.498,44.554c-0.938,0-1.695-0.757-1.695-1.693V25.198c0-0.938,0.758-1.697,1.695-1.697
						s1.695,0.76,1.695,1.697V42.86C34.193,43.797,33.436,44.554,32.498,44.554z"/>
				</g>
				<g>
					<path fill="#9CB75F" d="M38.434,51.145H26.564c-0.469,0-0.848-0.378-0.848-0.847c0-0.471,0.379-0.85,0.848-0.85h11.869
						c0.469,0,0.848,0.379,0.848,0.85C39.281,50.767,38.902,51.145,38.434,51.145z"/>
				</g>
				<g>
					<g>
						<path fill="#9CB75F" d="M31.17,54.112h-3.912c-0.469,0-0.848-0.379-0.848-0.847c0-0.471,0.379-0.849,0.848-0.849h3.912
							c0.469,0,0.848,0.378,0.848,0.849C32.018,53.733,31.639,54.112,31.17,54.112z"/>
					</g>
					<g>
						<path fill="#9CB75F" d="M37.74,54.112h-3.912c-0.467,0-0.848-0.379-0.848-0.847c0-0.471,0.381-0.849,0.848-0.849h3.912
							c0.469,0,0.848,0.378,0.848,0.849C38.588,53.733,38.209,54.112,37.74,54.112z"/>
					</g>
				</g>
			</g>
			<polygon fill="#17AA2B" points="46.492,41.027 32.498,6.277 18.506,41.027 			"/>
			<polygon fill="#28C636" points="27.617,37.027 26,34.541 24.381,37.027 			"/>
			<polygon fill="#28C636" points="29.992,29.652 28.375,27.167 26.756,29.652 			"/>
			<polygon fill="#28C636" points="34.617,35.527 33,33.041 31.381,35.527 			"/>
			<polygon fill="#118927" points="46.492,41.027 32.498,6.277 31.082,41.027 			"/>
			<polygon fill="#28C636" points="35.367,33.527 33.75,31.041 32.131,33.527 			"/>
			<polygon fill="#28C636" points="40.742,38.402 39.125,35.917 37.506,38.402 			"/>
			<polygon fill="#28C636" points="34.117,20.152 32.5,17.667 30.881,20.152 			"/>
			<polygon fill="#28C636" points="38.992,27.152 37.375,24.667 35.756,27.152 			"/>
		</g>
		<g>
			<g>
				<g>
					<g>
						<g>
							<path fill="#893210" d="M5.936,62.167c-0.275,0-0.498-0.223-0.498-0.499v-5.199c0-0.277,0.223-0.5,0.498-0.5
								c0.277,0,0.5,0.223,0.5,0.5v5.199C6.436,61.944,6.213,62.167,5.936,62.167z"/>
						</g>
						<g>
							<path fill="#561D0B" d="M5.936,60.352c-0.275,0-0.498-0.223-0.498-0.498v-5.201c0-0.275,0.223-0.499,0.498-0.499
								c0.277,0,0.5,0.224,0.5,0.499v5.201C6.436,60.129,6.213,60.352,5.936,60.352z"/>
						</g>
						<g>
							<path fill="#9CB75F" d="M7.686,62.293H4.189c-0.139,0-0.25-0.111-0.25-0.25s0.111-0.25,0.25-0.25h3.496
								c0.137,0,0.248,0.111,0.248,0.25S7.822,62.293,7.686,62.293z"/>
						</g>
						<g>
							<g>
								<path fill="#9CB75F" d="M5.545,63.167H4.393c-0.137,0-0.25-0.113-0.25-0.25c0-0.139,0.113-0.25,0.25-0.25h1.152
									c0.139,0,0.25,0.111,0.25,0.25C5.795,63.054,5.684,63.167,5.545,63.167z"/>
							</g>
							<g>
								<path fill="#9CB75F" d="M7.48,63.167H6.328c-0.139,0-0.25-0.113-0.25-0.25c0-0.139,0.111-0.25,0.25-0.25H7.48
									c0.139,0,0.25,0.111,0.25,0.25C7.73,63.054,7.619,63.167,7.48,63.167z"/>
							</g>
						</g>
					</g>
					<polygon fill="#17AA2B" points="10.057,59.314 5.936,49.083 1.818,59.314 					"/>
					<polygon fill="#118927" points="10.057,59.314 5.936,49.083 5.52,59.314 					"/>
				</g>
				<g>
					<g>
						<g>
							<path fill="#893210" d="M18.061,62.167c-0.275,0-0.498-0.223-0.498-0.499v-5.199c0-0.277,0.223-0.5,0.498-0.5
								c0.277,0,0.5,0.223,0.5,0.5v5.199C18.561,61.944,18.338,62.167,18.061,62.167z"/>
						</g>
						<g>
							<path fill="#561D0B" d="M18.061,60.352c-0.275,0-0.498-0.223-0.498-0.498v-5.201c0-0.275,0.223-0.499,0.498-0.499
								c0.277,0,0.5,0.224,0.5,0.499v5.201C18.561,60.129,18.338,60.352,18.061,60.352z"/>
						</g>
						<g>
							<path fill="#9CB75F" d="M19.811,62.293h-3.496c-0.139,0-0.25-0.111-0.25-0.25s0.111-0.25,0.25-0.25h3.496
								c0.137,0,0.248,0.111,0.248,0.25S19.947,62.293,19.811,62.293z"/>
						</g>
						<g>
							<g>
								<path fill="#9CB75F" d="M17.67,63.167h-1.152c-0.137,0-0.25-0.113-0.25-0.25c0-0.139,0.113-0.25,0.25-0.25h1.152
									c0.139,0,0.25,0.111,0.25,0.25C17.92,63.054,17.809,63.167,17.67,63.167z"/>
							</g>
							<g>
								<path fill="#9CB75F" d="M19.605,63.167h-1.152c-0.139,0-0.25-0.113-0.25-0.25c0-0.139,0.111-0.25,0.25-0.25h1.152
									c0.139,0,0.25,0.111,0.25,0.25C19.855,63.054,19.744,63.167,19.605,63.167z"/>
							</g>
						</g>
					</g>
					<polygon fill="#17AA2B" points="22.182,59.314 18.061,49.083 13.943,59.314 					"/>
					<polygon fill="#118927" points="22.182,59.314 18.061,49.083 17.645,59.314 					"/>
				</g>
			</g>
			<g>
				<g>
					<g>
						<path fill="#893210" d="M11.998,47.291c-0.275,0-0.498-0.222-0.498-0.498v-5.199c0-0.277,0.223-0.5,0.498-0.5
							c0.279,0,0.5,0.223,0.5,0.5v5.199C12.498,47.069,12.277,47.291,11.998,47.291z"/>
					</g>
					<g>
						<path fill="#561D0B" d="M11.998,45.477c-0.275,0-0.498-0.223-0.498-0.498v-5.201c0-0.275,0.223-0.499,0.498-0.499
							c0.279,0,0.5,0.224,0.5,0.499v5.201C12.498,45.254,12.277,45.477,11.998,45.477z"/>
					</g>
					<g>
						<path fill="#9CB75F" d="M13.748,47.418h-3.496c-0.139,0-0.25-0.111-0.25-0.25s0.111-0.25,0.25-0.25h3.496
							c0.137,0,0.248,0.111,0.248,0.25S13.885,47.418,13.748,47.418z"/>
					</g>
					<g>
						<g>
							<path fill="#9CB75F" d="M11.609,48.291h-1.154c-0.135,0-0.25-0.112-0.25-0.249c0-0.139,0.115-0.25,0.25-0.25h1.154
								c0.137,0,0.25,0.111,0.25,0.25C11.859,48.179,11.746,48.291,11.609,48.291z"/>
						</g>
						<g>
							<path fill="#9CB75F" d="M13.543,48.291h-1.152c-0.139,0-0.25-0.112-0.25-0.249c0-0.139,0.111-0.25,0.25-0.25h1.152
								c0.139,0,0.25,0.111,0.25,0.25C13.793,48.179,13.682,48.291,13.543,48.291z"/>
						</g>
					</g>
				</g>
				<polygon fill="#17AA2B" points="16.119,44.439 11.998,34.208 7.879,44.439 				"/>
				<polygon fill="#118927" points="16.119,44.439 11.998,34.208 11.582,44.439 				"/>
			</g>
		</g>
		<g>
			<g>
				<g>
					<g>
						<g>
							<path fill="#893210" d="M46.936,62.167c-0.275,0-0.498-0.223-0.498-0.499v-5.199c0-0.277,0.223-0.5,0.498-0.5
								c0.277,0,0.5,0.223,0.5,0.5v5.199C47.436,61.944,47.213,62.167,46.936,62.167z"/>
						</g>
						<g>
							<path fill="#561D0B" d="M46.936,60.352c-0.275,0-0.498-0.223-0.498-0.498v-5.201c0-0.275,0.223-0.499,0.498-0.499
								c0.277,0,0.5,0.224,0.5,0.499v5.201C47.436,60.129,47.213,60.352,46.936,60.352z"/>
						</g>
						<g>
							<path fill="#9CB75F" d="M48.686,62.293h-3.496c-0.139,0-0.25-0.111-0.25-0.25s0.111-0.25,0.25-0.25h3.496
								c0.137,0,0.248,0.111,0.248,0.25S48.822,62.293,48.686,62.293z"/>
						</g>
						<g>
							<g>
								<path fill="#9CB75F" d="M46.545,63.167h-1.152c-0.137,0-0.25-0.113-0.25-0.25c0-0.139,0.113-0.25,0.25-0.25h1.152
									c0.139,0,0.25,0.111,0.25,0.25C46.795,63.054,46.684,63.167,46.545,63.167z"/>
							</g>
							<g>
								<path fill="#9CB75F" d="M48.48,63.167h-1.152c-0.139,0-0.25-0.113-0.25-0.25c0-0.139,0.111-0.25,0.25-0.25h1.152
									c0.139,0,0.25,0.111,0.25,0.25C48.73,63.054,48.619,63.167,48.48,63.167z"/>
							</g>
						</g>
					</g>
					<polygon fill="#17AA2B" points="51.057,59.314 46.936,49.083 42.818,59.314 					"/>
					<polygon fill="#118927" points="51.057,59.314 46.936,49.083 46.52,59.314 					"/>
				</g>
				<g>
					<g>
						<g>
							<path fill="#893210" d="M59.061,62.167c-0.275,0-0.498-0.223-0.498-0.499v-5.199c0-0.277,0.223-0.5,0.498-0.5
								c0.277,0,0.5,0.223,0.5,0.5v5.199C59.561,61.944,59.338,62.167,59.061,62.167z"/>
						</g>
						<g>
							<path fill="#561D0B" d="M59.061,60.352c-0.275,0-0.498-0.223-0.498-0.498v-5.201c0-0.275,0.223-0.499,0.498-0.499
								c0.277,0,0.5,0.224,0.5,0.499v5.201C59.561,60.129,59.338,60.352,59.061,60.352z"/>
						</g>
						<g>
							<path fill="#9CB75F" d="M60.811,62.293h-3.496c-0.139,0-0.25-0.111-0.25-0.25s0.111-0.25,0.25-0.25h3.496
								c0.137,0,0.248,0.111,0.248,0.25S60.947,62.293,60.811,62.293z"/>
						</g>
						<g>
							<g>
								<path fill="#9CB75F" d="M58.67,63.167h-1.152c-0.137,0-0.25-0.113-0.25-0.25c0-0.139,0.113-0.25,0.25-0.25h1.152
									c0.139,0,0.25,0.111,0.25,0.25C58.92,63.054,58.809,63.167,58.67,63.167z"/>
							</g>
							<g>
								<path fill="#9CB75F" d="M60.605,63.167h-1.152c-0.139,0-0.25-0.113-0.25-0.25c0-0.139,0.111-0.25,0.25-0.25h1.152
									c0.139,0,0.25,0.111,0.25,0.25C60.855,63.054,60.744,63.167,60.605,63.167z"/>
							</g>
						</g>
					</g>
					<polygon fill="#17AA2B" points="63.182,59.314 59.061,49.083 54.943,59.314 					"/>
					<polygon fill="#118927" points="63.182,59.314 59.061,49.083 58.645,59.314 					"/>
				</g>
			</g>
			<g>
				<g>
					<g>
						<path fill="#893210" d="M52.998,47.291c-0.275,0-0.498-0.222-0.498-0.498v-5.199c0-0.277,0.223-0.5,0.498-0.5
							c0.279,0,0.5,0.223,0.5,0.5v5.199C53.498,47.069,53.277,47.291,52.998,47.291z"/>
					</g>
					<g>
						<path fill="#561D0B" d="M52.998,45.477c-0.275,0-0.498-0.223-0.498-0.498v-5.201c0-0.275,0.223-0.499,0.498-0.499
							c0.279,0,0.5,0.224,0.5,0.499v5.201C53.498,45.254,53.277,45.477,52.998,45.477z"/>
					</g>
					<g>
						<path fill="#9CB75F" d="M54.748,47.418h-3.496c-0.139,0-0.25-0.111-0.25-0.25s0.111-0.25,0.25-0.25h3.496
							c0.137,0,0.248,0.111,0.248,0.25S54.885,47.418,54.748,47.418z"/>
					</g>
					<g>
						<g>
							<path fill="#9CB75F" d="M52.609,48.291h-1.154c-0.135,0-0.25-0.112-0.25-0.249c0-0.139,0.115-0.25,0.25-0.25h1.154
								c0.137,0,0.25,0.111,0.25,0.25C52.859,48.179,52.746,48.291,52.609,48.291z"/>
						</g>
						<g>
							<path fill="#9CB75F" d="M54.543,48.291h-1.152c-0.139,0-0.25-0.112-0.25-0.249c0-0.139,0.111-0.25,0.25-0.25h1.152
								c0.139,0,0.25,0.111,0.25,0.25C54.793,48.179,54.682,48.291,54.543,48.291z"/>
						</g>
					</g>
				</g>
				<polygon fill="#17AA2B" points="57.119,44.439 52.998,34.208 48.879,44.439 				"/>
				<polygon fill="#118927" points="57.119,44.439 52.998,34.208 52.582,44.439 				"/>
			</g>
		</g>
		<g>
			<g>
				<g>
					<g>
						<g>
							<g>
								<path fill="#893210" d="M5.936,14.917c-0.275,0-0.498-0.223-0.498-0.499V9.219c0-0.277,0.223-0.5,0.498-0.5
									c0.277,0,0.5,0.223,0.5,0.5v5.199C6.436,14.694,6.213,14.917,5.936,14.917z"/>
							</g>
							<g>
								<path fill="#561D0B" d="M5.936,13.102c-0.275,0-0.498-0.223-0.498-0.498V7.402c0-0.275,0.223-0.499,0.498-0.499
									c0.277,0,0.5,0.224,0.5,0.499v5.201C6.436,12.879,6.213,13.102,5.936,13.102z"/>
							</g>
							<g>
								<path fill="#9CB75F" d="M7.686,15.043H4.189c-0.139,0-0.25-0.111-0.25-0.25s0.111-0.25,0.25-0.25h3.496
									c0.137,0,0.248,0.111,0.248,0.25S7.822,15.043,7.686,15.043z"/>
							</g>
							<g>
								<g>
									<path fill="#9CB75F" d="M5.545,15.917H4.393c-0.137,0-0.25-0.113-0.25-0.25c0-0.139,0.113-0.25,0.25-0.25h1.152
										c0.139,0,0.25,0.111,0.25,0.25C5.795,15.804,5.684,15.917,5.545,15.917z"/>
								</g>
								<g>
									<path fill="#9CB75F" d="M7.48,15.917H6.328c-0.139,0-0.25-0.113-0.25-0.25c0-0.139,0.111-0.25,0.25-0.25H7.48
										c0.139,0,0.25,0.111,0.25,0.25C7.73,15.804,7.619,15.917,7.48,15.917z"/>
								</g>
							</g>
						</g>
						<polygon fill="#17AA2B" points="10.057,12.064 5.936,1.833 1.818,12.064 						"/>
						<polygon fill="#118927" points="10.057,12.064 5.936,1.833 5.52,12.064 						"/>
					</g>
					<g>
						<g>
							<g>
								<path fill="#893210" d="M18.061,14.917c-0.275,0-0.498-0.223-0.498-0.499V9.219c0-0.277,0.223-0.5,0.498-0.5
									c0.277,0,0.5,0.223,0.5,0.5v5.199C18.561,14.694,18.338,14.917,18.061,14.917z"/>
							</g>
							<g>
								<path fill="#561D0B" d="M18.061,13.102c-0.275,0-0.498-0.223-0.498-0.498V7.402c0-0.275,0.223-0.499,0.498-0.499
									c0.277,0,0.5,0.224,0.5,0.499v5.201C18.561,12.879,18.338,13.102,18.061,13.102z"/>
							</g>
							<g>
								<path fill="#9CB75F" d="M19.811,15.043h-3.496c-0.139,0-0.25-0.111-0.25-0.25s0.111-0.25,0.25-0.25h3.496
									c0.137,0,0.248,0.111,0.248,0.25S19.947,15.043,19.811,15.043z"/>
							</g>
							<g>
								<g>
									<path fill="#9CB75F" d="M17.67,15.917h-1.152c-0.137,0-0.25-0.113-0.25-0.25c0-0.139,0.113-0.25,0.25-0.25h1.152
										c0.139,0,0.25,0.111,0.25,0.25C17.92,15.804,17.809,15.917,17.67,15.917z"/>
								</g>
								<g>
									<path fill="#9CB75F" d="M19.605,15.917h-1.152c-0.139,0-0.25-0.113-0.25-0.25c0-0.139,0.111-0.25,0.25-0.25h1.152
										c0.139,0,0.25,0.111,0.25,0.25C19.855,15.804,19.744,15.917,19.605,15.917z"/>
								</g>
							</g>
						</g>
						<polygon fill="#17AA2B" points="22.182,12.064 18.061,1.833 13.943,12.064 						"/>
						<polygon fill="#118927" points="22.182,12.064 18.061,1.833 17.645,12.064 						"/>
					</g>
				</g>
				<g>
					<g>
						<g>
							<path fill="#893210" d="M11.998,29.791c-0.275,0-0.498-0.222-0.498-0.498v-5.199c0-0.277,0.223-0.5,0.498-0.5
								c0.279,0,0.5,0.223,0.5,0.5v5.199C12.498,29.569,12.277,29.791,11.998,29.791z"/>
						</g>
						<g>
							<path fill="#561D0B" d="M11.998,27.977c-0.275,0-0.498-0.223-0.498-0.498v-5.201c0-0.275,0.223-0.499,0.498-0.499
								c0.279,0,0.5,0.224,0.5,0.499v5.201C12.498,27.754,12.277,27.977,11.998,27.977z"/>
						</g>
						<g>
							<path fill="#9CB75F" d="M13.748,29.918h-3.496c-0.139,0-0.25-0.111-0.25-0.25s0.111-0.25,0.25-0.25h3.496
								c0.137,0,0.248,0.111,0.248,0.25S13.885,29.918,13.748,29.918z"/>
						</g>
						<g>
							<g>
								<path fill="#9CB75F" d="M11.609,30.791h-1.154c-0.135,0-0.25-0.112-0.25-0.249c0-0.139,0.115-0.25,0.25-0.25h1.154
									c0.137,0,0.25,0.111,0.25,0.25C11.859,30.679,11.746,30.791,11.609,30.791z"/>
							</g>
							<g>
								<path fill="#9CB75F" d="M13.543,30.791h-1.152c-0.139,0-0.25-0.112-0.25-0.249c0-0.139,0.111-0.25,0.25-0.25h1.152
									c0.139,0,0.25,0.111,0.25,0.25C13.793,30.679,13.682,30.791,13.543,30.791z"/>
							</g>
						</g>
					</g>
					<polygon fill="#17AA2B" points="16.119,26.939 11.998,16.708 7.879,26.939 					"/>
					<polygon fill="#118927" points="16.119,26.939 11.998,16.708 11.582,26.939 					"/>
				</g>
			</g>
			<g>
				<g>
					<g>
						<g>
							<g>
								<path fill="#893210" d="M46.936,14.917c-0.275,0-0.498-0.223-0.498-0.499V9.219c0-0.277,0.223-0.5,0.498-0.5
									c0.277,0,0.5,0.223,0.5,0.5v5.199C47.436,14.694,47.213,14.917,46.936,14.917z"/>
							</g>
							<g>
								<path fill="#561D0B" d="M46.936,13.102c-0.275,0-0.498-0.223-0.498-0.498V7.402c0-0.275,0.223-0.499,0.498-0.499
									c0.277,0,0.5,0.224,0.5,0.499v5.201C47.436,12.879,47.213,13.102,46.936,13.102z"/>
							</g>
							<g>
								<path fill="#9CB75F" d="M48.686,15.043h-3.496c-0.139,0-0.25-0.111-0.25-0.25s0.111-0.25,0.25-0.25h3.496
									c0.137,0,0.248,0.111,0.248,0.25S48.822,15.043,48.686,15.043z"/>
							</g>
							<g>
								<g>
									<path fill="#9CB75F" d="M46.545,15.917h-1.152c-0.137,0-0.25-0.113-0.25-0.25c0-0.139,0.113-0.25,0.25-0.25h1.152
										c0.139,0,0.25,0.111,0.25,0.25C46.795,15.804,46.684,15.917,46.545,15.917z"/>
								</g>
								<g>
									<path fill="#9CB75F" d="M48.48,15.917h-1.152c-0.139,0-0.25-0.113-0.25-0.25c0-0.139,0.111-0.25,0.25-0.25h1.152
										c0.139,0,0.25,0.111,0.25,0.25C48.73,15.804,48.619,15.917,48.48,15.917z"/>
								</g>
							</g>
						</g>
						<polygon fill="#17AA2B" points="51.057,12.064 46.936,1.833 42.818,12.064 						"/>
						<polygon fill="#118927" points="51.057,12.064 46.936,1.833 46.52,12.064 						"/>
					</g>
					<g>
						<g>
							<g>
								<path fill="#893210" d="M59.061,14.917c-0.275,0-0.498-0.223-0.498-0.499V9.219c0-0.277,0.223-0.5,0.498-0.5
									c0.277,0,0.5,0.223,0.5,0.5v5.199C59.561,14.694,59.338,14.917,59.061,14.917z"/>
							</g>
							<g>
								<path fill="#561D0B" d="M59.061,13.102c-0.275,0-0.498-0.223-0.498-0.498V7.402c0-0.275,0.223-0.499,0.498-0.499
									c0.277,0,0.5,0.224,0.5,0.499v5.201C59.561,12.879,59.338,13.102,59.061,13.102z"/>
							</g>
							<g>
								<path fill="#9CB75F" d="M60.811,15.043h-3.496c-0.139,0-0.25-0.111-0.25-0.25s0.111-0.25,0.25-0.25h3.496
									c0.137,0,0.248,0.111,0.248,0.25S60.947,15.043,60.811,15.043z"/>
							</g>
							<g>
								<g>
									<path fill="#9CB75F" d="M58.67,15.917h-1.152c-0.137,0-0.25-0.113-0.25-0.25c0-0.139,0.113-0.25,0.25-0.25h1.152
										c0.139,0,0.25,0.111,0.25,0.25C58.92,15.804,58.809,15.917,58.67,15.917z"/>
								</g>
								<g>
									<path fill="#9CB75F" d="M60.605,15.917h-1.152c-0.139,0-0.25-0.113-0.25-0.25c0-0.139,0.111-0.25,0.25-0.25h1.152
										c0.139,0,0.25,0.111,0.25,0.25C60.855,15.804,60.744,15.917,60.605,15.917z"/>
								</g>
							</g>
						</g>
						<polygon fill="#17AA2B" points="63.182,12.064 59.061,1.833 54.943,12.064 						"/>
						<polygon fill="#118927" points="63.182,12.064 59.061,1.833 58.645,12.064 						"/>
					</g>
				</g>
				<g>
					<g>
						<g>
							<path fill="#893210" d="M52.998,29.791c-0.275,0-0.498-0.222-0.498-0.498v-5.199c0-0.277,0.223-0.5,0.498-0.5
								c0.279,0,0.5,0.223,0.5,0.5v5.199C53.498,29.569,53.277,29.791,52.998,29.791z"/>
						</g>
						<g>
							<path fill="#561D0B" d="M52.998,27.977c-0.275,0-0.498-0.223-0.498-0.498v-5.201c0-0.275,0.223-0.499,0.498-0.499
								c0.279,0,0.5,0.224,0.5,0.499v5.201C53.498,27.754,53.277,27.977,52.998,27.977z"/>
						</g>
						<g>
							<path fill="#9CB75F" d="M54.748,29.918h-3.496c-0.139,0-0.25-0.111-0.25-0.25s0.111-0.25,0.25-0.25h3.496
								c0.137,0,0.248,0.111,0.248,0.25S54.885,29.918,54.748,29.918z"/>
						</g>
						<g>
							<g>
								<path fill="#9CB75F" d="M52.609,30.791h-1.154c-0.135,0-0.25-0.112-0.25-0.249c0-0.139,0.115-0.25,0.25-0.25h1.154
									c0.137,0,0.25,0.111,0.25,0.25C52.859,30.679,52.746,30.791,52.609,30.791z"/>
							</g>
							<g>
								<path fill="#9CB75F" d="M54.543,30.791h-1.152c-0.139,0-0.25-0.112-0.25-0.249c0-0.139,0.111-0.25,0.25-0.25h1.152
									c0.139,0,0.25,0.111,0.25,0.25C54.793,30.679,54.682,30.791,54.543,30.791z"/>
							</g>
						</g>
					</g>
					<polygon fill="#17AA2B" points="57.119,26.939 52.998,16.708 48.879,26.939 					"/>
					<polygon fill="#118927" points="57.119,26.939 52.998,16.708 52.582,26.939 					"/>
				</g>
			</g>
		</g>
	</g>
</g>
<g id="nyt_x5F_exporter_x5F_info" display="none">
</g>
</svg>
