<?xml version="1.0" encoding="utf-8"?>
<!-- Generator: Adobe Illustrator 16.0.0, SVG Export Plug-In . SVG Version: 6.00 Build 0)  -->
<!DOCTYPE svg PUBLIC "-//W3C//DTD SVG 1.1//EN" "http://www.w3.org/Graphics/SVG/1.1/DTD/svg11.dtd">
<svg version="1.1" xmlns="http://www.w3.org/2000/svg" xmlns:xlink="http://www.w3.org/1999/xlink" x="0px" y="0px" width="65px"
	 height="65px" viewBox="0 0 65 65" enable-background="new 0 0 65 65" xml:space="preserve">
<g id="Layer_1">
	<g>
		<g>
			<g>
				<g>
					<path fill="#B1BCB8" d="M15.831,11.006c10.335-10.334,27.082-10.336,37.417,0"/>
				</g>
				<g>
					<path fill="#0071AA" d="M15.831,13.506c-0.64,0-1.279-0.244-1.768-0.732c-0.977-0.977-0.977-2.56,0-3.535
						c11.292-11.292,29.665-11.29,40.954,0c0.976,0.977,0.976,2.559,0,3.535c-0.979,0.977-2.56,0.977-3.536,0
						c-9.341-9.341-24.54-9.341-33.883,0C17.109,13.262,16.471,13.506,15.831,13.506z"/>
				</g>
			</g>
			<g>
				<g>
					<circle fill="#32F9B1" cx="44.469" cy="20.648" r="13.026"/>
				</g>
				<g>
					<path fill="#2FD4EA" d="M35.259,29.859c-5.087-5.086-5.087-13.334,0-18.422c5.089-5.088,13.335-5.086,18.421,0"/>
				</g>
				<g>
					<path fill="#0071AA" d="M44.469,36.176c-4.146,0-8.045-1.615-10.979-4.549c-2.932-2.932-4.547-6.83-4.547-10.978
						s1.615-8.047,4.547-10.979c2.934-2.933,6.832-4.548,10.979-4.548c4.147,0,8.047,1.615,10.979,4.548s4.549,6.832,4.548,10.979
						c0,4.147-1.615,8.046-4.549,10.979C52.516,34.56,48.616,36.176,44.469,36.176z M44.469,10.122
						c-2.811,0-5.454,1.095-7.443,3.083c-1.987,1.988-3.082,4.632-3.082,7.444c0,2.812,1.095,5.454,3.082,7.442
						c1.989,1.988,4.633,3.084,7.443,3.084c2.812,0,5.455-1.096,7.443-3.084c1.989-1.989,3.084-4.632,3.084-7.443
						s-1.095-5.455-3.083-7.443C49.924,11.217,47.281,10.122,44.469,10.122z"/>
				</g>
			</g>
		</g>
		<g>
			<g>
				<g>
					<path fill="#B1BCB8" d="M49.171,53.995C38.836,64.328,22.088,64.33,11.752,53.994"/>
				</g>
				<g>
					<path fill="#0071AA" d="M30.462,64.229c-7.416,0-14.831-2.822-20.477-8.468c-0.978-0.977-0.978-2.559,0-3.535
						c0.977-0.977,2.558-0.977,3.535,0c9.341,9.341,24.54,9.34,33.882,0.001c0.977-0.977,2.56-0.977,3.535,0
						c0.978,0.977,0.978,2.56,0,3.535C45.293,61.407,37.877,64.229,30.462,64.229z"/>
				</g>
			</g>
			<g>
				<g>
					<circle fill="#32F9B1" cx="20.532" cy="44.353" r="13.026"/>
				</g>
				<g>
					<path fill="#2FD4EA" d="M29.742,35.141c5.088,5.086,5.088,13.334,0,18.423c-5.088,5.087-13.334,5.085-18.421-0.001"/>
				</g>
				<g>
					<path fill="#0071AA" d="M20.533,59.878c-4.148,0-8.047-1.615-10.98-4.548s-4.549-6.832-4.549-10.979
						c0-4.147,1.617-8.046,4.551-10.979c2.932-2.933,6.83-4.548,10.977-4.548c4.147,0,8.046,1.615,10.979,4.548
						c2.932,2.932,4.549,6.83,4.549,10.978s-1.615,8.047-4.547,10.98C28.578,58.264,24.679,59.878,20.533,59.878z M20.531,33.825
						c-2.811,0-5.453,1.095-7.44,3.084c-1.989,1.988-3.087,4.632-3.087,7.442c0,2.812,1.098,5.454,3.084,7.443
						c1.989,1.988,4.633,3.083,7.445,3.083c2.811,0,5.453-1.095,7.443-3.083c1.986-1.988,3.082-4.632,3.082-7.444
						c0-2.812-1.096-5.454-3.084-7.441C25.986,34.92,23.343,33.825,20.531,33.825z"/>
				</g>
			</g>
		</g>
	</g>
</g>
<g id="nyt_x5F_exporter_x5F_info" display="none">
</g>
</svg>
