<?xml version="1.0" encoding="utf-8"?>
<!-- Generator: Adobe Illustrator 16.0.0, SVG Export Plug-In . SVG Version: 6.00 Build 0)  -->
<!DOCTYPE svg PUBLIC "-//W3C//DTD SVG 1.1//EN" "http://www.w3.org/Graphics/SVG/1.1/DTD/svg11.dtd">
<svg version="1.1" id="Layer_1" xmlns="http://www.w3.org/2000/svg" xmlns:xlink="http://www.w3.org/1999/xlink" x="0px" y="0px"
	 width="64px" height="64px" viewBox="0 0 64 64" enable-background="new 0 0 64 64" xml:space="preserve">
<g>
	<g>
		<path fill="#5E6363" d="M61.2,33.4c0,4.5-13.1-1.5-29.2-1.5c-16.1,0-29.2,6-29.2,1.5c0-4.5,13.1-11.1,29.2-11.1
			C48.1,22.3,61.2,28.9,61.2,33.4z"/>
		<path fill="#4A4F4F" d="M61.2,33.4c0,4.5-13.1-1.5-29.2-1.5c-16.1,0-29.2,6-29.2,1.5c0-4.5,13.1-10.2,29.2-10.2
			C48.1,23.2,61.2,28.9,61.2,33.4z"/>
		<path fill="#323535" d="M32,31.9c14.3,0,26.3,4.7,28.7,2.6c-2.5-4.2-14.4-8.6-28.7-8.6S5.7,30.3,3.3,34.5
			C5.7,36.7,17.7,31.9,32,31.9z"/>
		<path fill="#A5D647" d="M63,59c0,1.2-0.9,2-2.1,2H3.1C1.9,61,1,60.2,1,59l0,0c0-1.2,0.9-2,2.1-2h57.8C62.1,57,63,57.8,63,59L63,59
			z"/>
		<g>
			<g>
				<ellipse fill="#73C42C" cx="9.6" cy="59.9" rx="5.5" ry="0.7"/>
				<ellipse fill="#73C42C" cx="24.7" cy="59.9" rx="5.5" ry="0.7"/>
				<g>
					<path fill="#4A4F4F" d="M16,52.3c0,7.7-2.7,7.3-6.1,7.3c-3.4,0-6.1,0.4-6.1-7.3c0-7.7,2.7-18.6,6.1-18.6
						C13.3,33.7,16,44.6,16,52.3z"/>
					<path fill="#5E6363" d="M3.8,52.3c0-7.7,2.7-18.6,6.1-18.6"/>
					<path fill="#323535" d="M9.9,33.7c3.4,0,6.1,10.9,6.1,18.6c0,7.7-2.7,7.3-6.1,7.3"/>
				</g>
				<g>
					<path fill="#4A4F4F" d="M30.8,51.3c0,8.7-2.7,8.2-6.1,8.2c-3.4,0-6.1,0.5-6.1-8.2s2.7-21.1,6.1-21.1
						C28,30.2,30.8,42.6,30.8,51.3z"/>
					<path fill="#5E6363" d="M18.5,51.3c0-8.7,2.7-21.1,6.1-21.1"/>
					<path fill="#323535" d="M24.7,30.2c3.4,0,6.1,12.4,6.1,21.1s-2.7,8.2-6.1,8.2"/>
				</g>
			</g>
			<g>
				<ellipse fill="#73C42C" cx="54.4" cy="59.9" rx="5.5" ry="0.7"/>
				<ellipse fill="#73C42C" cx="39.3" cy="59.9" rx="5.5" ry="0.7"/>
				<g>
					<path fill="#4A4F4F" d="M48,52.3c0,7.7,2.7,7.3,6.1,7.3c3.4,0,6.1,0.4,6.1-7.3c0-7.7-2.7-18.6-6.1-18.6
						C50.7,33.7,48,44.6,48,52.3z"/>
					<path fill="#5E6363" d="M60.2,52.3c0-7.7-2.7-18.6-6.1-18.6"/>
					<path fill="#323535" d="M54.1,33.7c-3.4,0-6.1,10.9-6.1,18.6c0,7.7,2.7,7.3,6.1,7.3"/>
				</g>
				<g>
					<path fill="#4A4F4F" d="M33.2,51.3c0,8.7,2.7,8.2,6.1,8.2c3.4,0,6.1,0.5,6.1-8.2s-2.7-21.1-6.1-21.1
						C36,30.2,33.2,42.6,33.2,51.3z"/>
					<path fill="#5E6363" d="M45.5,51.3c0-8.7-2.7-21.1-6.1-21.1"/>
					<path fill="#323535" d="M39.3,30.2c-3.4,0-6.1,12.4-6.1,21.1s2.7,8.2,6.1,8.2"/>
				</g>
			</g>
		</g>
	</g>
	<g>
		<ellipse fill="#B3E529" cx="32" cy="6.2" rx="5.2" ry="3.7"/>
		<path fill="#7BE22B" d="M32,2.5c2.9,0,5.2,1.7,5.2,3.7c0,2.1-2.3,3.7-5.2,3.7"/>
		<ellipse fill="#0C91C4" cx="32" cy="8.7" rx="17.8" ry="4.3"/>
		<path fill="#17B5E5" d="M32,4.4c9.8,0,17.8,1.9,17.8,4.3"/>
		<path fill="#17B5E5" d="M14.2,8.7c0-2.4,8-4.3,17.8-4.3"/>
		<path fill="#0977AF" d="M49.8,8.7c0,2.4-8,4.3-17.8,4.3S14.2,11,14.2,8.7"/>
		<g>
			<circle fill="#B3E529" cx="17.7" cy="8.7" r="0.3"/>
			<circle fill="#B3E529" cx="20.9" cy="8.7" r="0.3"/>
			<circle fill="#B3E529" cx="24.1" cy="8.7" r="0.3"/>
			<circle fill="#B3E529" cx="27.2" cy="8.7" r="0.3"/>
			<circle fill="#B3E529" cx="30.4" cy="8.7" r="0.3"/>
			<circle fill="#B3E529" cx="33.6" cy="8.7" r="0.3"/>
			<circle fill="#B3E529" cx="36.8" cy="8.7" r="0.3"/>
			<circle fill="#B3E529" cx="39.9" cy="8.7" r="0.3"/>
			<circle fill="#B3E529" cx="43.1" cy="8.7" r="0.3"/>
			<circle fill="#B3E529" cx="46.3" cy="8.7" r="0.3"/>
		</g>
		<ellipse fill="#B3E529" cx="32" cy="11.9" rx="4.7" ry="0.5"/>
	</g>
</g>
</svg>
