<?xml version="1.0" encoding="utf-8"?>
<!-- Generator: Adobe Illustrator 16.0.0, SVG Export Plug-In . SVG Version: 6.00 Build 0)  -->
<!DOCTYPE svg PUBLIC "-//W3C//DTD SVG 1.1//EN" "http://www.w3.org/Graphics/SVG/1.1/DTD/svg11.dtd">
<svg version="1.1" xmlns="http://www.w3.org/2000/svg" xmlns:xlink="http://www.w3.org/1999/xlink" x="0px" y="0px" width="65px"
	 height="65px" viewBox="0 0 65 65" enable-background="new 0 0 65 65" xml:space="preserve">
<g id="Layer_1">
	<g>
		<g>
			<g>
				<g>
					<polygon fill="#DBD0A2" points="10.058,42.063 32.49,3.208 54.921,42.063 					"/>
				</g>
				<g>
					<polygon fill="#C1B584" points="30.13,42.063 32.49,3.208 54.921,42.063 					"/>
				</g>
				<g>
					<path fill="#897443" d="M54.941,44.563c-0.006,0.001-0.012,0.001-0.012,0.001l-44.871-0.001c-0.895,0-1.719-0.477-2.165-1.25
						s-0.446-1.727,0-2.5L30.324,1.958c0.447-0.773,1.272-1.25,2.166-1.25s1.719,0.477,2.165,1.25l22.288,38.607
						c0.313,0.418,0.498,0.936,0.498,1.497C57.441,43.444,56.322,44.563,54.941,44.563z M14.388,39.563h36.203L32.49,8.208
						L14.388,39.563z"/>
				</g>
			</g>
			<g>
				<g>
					<line fill="#C1B584" x1="32.49" y1="61.792" x2="32.49" y2="42.292"/>
				</g>
				<g>
					<path fill="#897443" d="M32.49,64.292c-1.381,0-2.5-1.119-2.5-2.5v-19.5c0-1.381,1.119-2.5,2.5-2.5s2.5,1.119,2.5,2.5v19.5
						C34.99,63.172,33.871,64.292,32.49,64.292z"/>
				</g>
			</g>
			<g>
				<g>
					<line fill="#C1B584" x1="23.927" y1="53.583" x2="41.052" y2="53.583"/>
				</g>
				<g>
					<path fill="#897443" d="M41.052,56.083H23.927c-1.381,0-2.5-1.119-2.5-2.5s1.119-2.5,2.5-2.5h17.125c1.381,0,2.5,1.119,2.5,2.5
						S42.433,56.083,41.052,56.083z"/>
				</g>
			</g>
		</g>
		<g>
			<g>
				<circle fill="#897443" cx="28.437" cy="28.417" r="1.062"/>
			</g>
			<g>
				<circle fill="#897443" cx="32.5" cy="28.417" r="1.062"/>
			</g>
			<g>
				<circle fill="#897443" cx="36.562" cy="28.417" r="1.062"/>
			</g>
		</g>
	</g>
</g>
<g id="nyt_x5F_exporter_x5F_info" display="none">
</g>
</svg>
