<?xml version="1.0" encoding="utf-8"?>
<!-- Generator: Adobe Illustrator 16.0.0, SVG Export Plug-In . SVG Version: 6.00 Build 0)  -->
<!DOCTYPE svg PUBLIC "-//W3C//DTD SVG 1.1//EN" "http://www.w3.org/Graphics/SVG/1.1/DTD/svg11.dtd">
<svg version="1.1" id="Layer_1" xmlns="http://www.w3.org/2000/svg" xmlns:xlink="http://www.w3.org/1999/xlink" x="0px" y="0px"
	 width="64px" height="64px" viewBox="0 0 64 64" enable-background="new 0 0 64 64" xml:space="preserve">
<g>
	<circle fill="#960E08" cx="32.7" cy="32" r="30.2"/>
	<path fill="#600404" d="M32.7,1.7C49.4,1.7,63,15.3,63,32S49.4,62.2,32.7,62.2"/>
	<path fill="#E9EADF" d="M17.1,27.7"/>
	<path fill="#E9EADF" d="M31.9,27.6c-0.1,0-0.1,0-0.2,0"/>
	<path fill="#E9EADF" d="M46,27.6"/>
	<g>
		<g>
			<path fill="#E9EADF" d="M48.3,16.4c0.4-1.7,0-3.5-1.3-4.8c-1.9-1.9-5.1-1.9-7,0c-1.7,1.7-1.9,4.2-0.7,6.2
				c-0.2,0.1-0.3,0.2-0.4,0.4L29,28c0,0-0.1,0.1-0.1,0.2c-0.1,0-0.1,0.1-0.2,0.1l-9.9,9.9c-0.1,0.1-0.2,0.3-0.4,0.4
				c-1.9-1.2-4.5-1-6.2,0.7c-1.9,1.9-1.9,5.1,0,7c1.3,1.3,3.1,1.7,4.8,1.3c-0.4,1.7,0,3.5,1.3,4.8c1.9,1.9,5.1,1.9,7,0
				c1.7-1.7,1.9-4.2,0.7-6.2c0.1-0.1,0.3-0.2,0.4-0.4l9.9-9.9c0-0.1,0.1-0.1,0.1-0.2c0.1,0,0.1-0.1,0.2-0.1l9.9-9.9
				c0.1-0.1,0.2-0.3,0.4-0.4c1.9,1.2,4.5,1,6.2-0.7c1.9-1.9,1.9-5.1,0-7C51.8,16.4,50,16,48.3,16.4z"/>
			<path fill="#CDCEBC" d="M17.1,47.6c-0.4,1.7,0,3.5,1.3,4.8c1.9,1.9,5.1,1.9,7,0c1.7-1.7,1.9-4.2,0.7-6.2c0.1-0.1,0.3-0.2,0.4-0.4
				l9.9-9.9c0-0.1,0.1-0.1,0.1-0.2c0.1,0,0.1-0.1,0.2-0.1l9.9-9.9c0.1-0.1,0.2-0.3,0.4-0.4c1.9,1.2,4.5,1,6.2-0.7
				c1.9-1.9,1.9-5.1,0-7c-1.3-1.3-3.1-1.7-4.8-1.3"/>
			
				<ellipse transform="matrix(0.7071 -0.7071 0.7071 0.7071 -12.0686 30.1762)" fill="#FFFFFF" cx="30.4" cy="29.7" rx="13.9" ry="0.9"/>
			<g>
				
					<ellipse transform="matrix(0.7068 -0.7074 0.7074 0.7068 -24.5908 21.9831)" fill="#FFFFFF" cx="14.2" cy="40.7" rx="2.7" ry="1.4"/>
				
					<ellipse transform="matrix(0.707 -0.7072 0.7072 0.707 2.5861 33.2268)" fill="#FFFFFF" cx="41.4" cy="13.5" rx="2.7" ry="1.4"/>
			</g>
		</g>
		<g>
			<path fill="#E9EADF" d="M48.3,47.6c0.4,1.7,0,3.5-1.3,4.8c-1.9,1.9-5.1,1.9-7,0c-1.7-1.7-1.9-4.2-0.7-6.2
				c-0.1-0.1-0.3-0.2-0.4-0.4L29.1,36c0-0.1-0.1-0.1-0.1-0.2c-0.1,0-0.1-0.1-0.2-0.1l-9.9-9.9c-0.1-0.1-0.2-0.3-0.4-0.4
				c-1.9,1.2-4.5,1-6.2-0.7c-1.9-1.9-1.9-5.1,0-7c1.3-1.3,3.1-1.7,4.8-1.3c-0.4-1.7,0-3.5,1.3-4.8c1.9-1.9,5.1-1.9,7,0
				c1.7,1.7,1.9,4.2,0.7,6.2c0.1,0.1,0.3,0.2,0.4,0.4l9.9,9.9c0,0,0.1,0.1,0.1,0.2c0.1,0,0.1,0.1,0.2,0.1l9.9,9.9
				c0.1,0.1,0.2,0.3,0.4,0.4c1.9-1.2,4.5-1,6.2,0.7c1.9,1.9,1.9,5.1,0,7C51.8,47.6,50,48,48.3,47.6z"/>
			<path fill="#CDCEBC" d="M17.2,16.4c-0.4-1.7,0-3.5,1.3-4.8c1.9-1.9,5.1-1.9,7,0c1.7,1.7,1.9,4.2,0.7,6.2c0.1,0.1,0.3,0.2,0.4,0.4
				l9.9,9.9c0,0,0.1,0.1,0.1,0.2c0.1,0,0.1,0.1,0.2,0.1l9.9,9.9c0.1,0.1,0.2,0.3,0.4,0.4c1.9-1.2,4.5-1,6.2,0.7c1.9,1.9,1.9,5.1,0,7
				c-1.3,1.3-3.1,1.7-4.8,1.3"/>
			
				<ellipse transform="matrix(0.7072 0.7071 -0.7071 0.7072 33.1699 -11.4411)" fill="#FFFFFF" cx="30.4" cy="34.3" rx="13.9" ry="0.9"/>
			<g>
				
					<ellipse transform="matrix(0.707 0.7072 -0.7072 0.707 20.6618 -3.2323)" fill="#FFFFFF" cx="14.2" cy="23.3" rx="2.7" ry="1.4"/>
				
					<ellipse transform="matrix(0.707 0.7072 -0.7072 0.707 47.8347 -14.4857)" fill="#FFFFFF" cx="41.4" cy="50.5" rx="2.7" ry="1.4"/>
			</g>
		</g>
	</g>
</g>
</svg>
