<?xml version="1.0" encoding="utf-8"?>
<!-- Generator: Adobe Illustrator 16.0.0, SVG Export Plug-In . SVG Version: 6.00 Build 0)  -->
<!DOCTYPE svg PUBLIC "-//W3C//DTD SVG 1.1//EN" "http://www.w3.org/Graphics/SVG/1.1/DTD/svg11.dtd">
<svg version="1.1" id="Layer_1" xmlns="http://www.w3.org/2000/svg" xmlns:xlink="http://www.w3.org/1999/xlink" x="0px" y="0px"
	 width="65px" height="65px" viewBox="0 0 65 65" enable-background="new 0 0 65 65" xml:space="preserve">
<g>
	<g>
		<g>
			<path fill="#FF860D" d="M55.205,16.227c0,2.219-1.799,17.719-4.018,17.719s-4.018-15.5-4.018-17.719s1.799-3.193,4.018-3.193
				S55.205,14.008,55.205,16.227z"/>
			<path fill="#E56107" d="M53.454,16.227c0,2.219-1.015,17.719-2.267,17.719s-2.267-15.5-2.267-17.719s1.015-3.193,2.267-3.193
				S53.454,14.008,53.454,16.227z"/>
			<g>
				<g>
					<g>
						<path fill="#E56107" d="M49.66,16.106c0,0.123-0.1,0.224-0.225,0.224H48.51c-0.123,0-0.223-0.101-0.223-0.224l0,0
							c0-0.123,0.1-0.224,0.223-0.224h0.926C49.561,15.883,49.66,15.983,49.66,16.106L49.66,16.106z"/>
						<path fill="#FF860D" d="M50.861,17.583c0,0.124-0.1,0.224-0.225,0.224h-0.925c-0.124,0-0.224-0.1-0.224-0.224l0,0
							c0-0.123,0.1-0.224,0.224-0.224h0.925C50.762,17.359,50.861,17.46,50.861,17.583L50.861,17.583z"/>
					</g>
					<g>
						<path fill="#E56107" d="M49.66,19.352c0,0.123-0.1,0.223-0.225,0.223H48.51c-0.123,0-0.223-0.1-0.223-0.223l0,0
							c0-0.123,0.1-0.223,0.223-0.223h0.926C49.561,19.129,49.66,19.229,49.66,19.352L49.66,19.352z"/>
						<path fill="#FF860D" d="M50.861,20.828c0,0.123-0.1,0.223-0.225,0.223h-0.925c-0.124,0-0.224-0.1-0.224-0.223l0,0
							c0-0.123,0.1-0.224,0.224-0.224h0.925C50.762,20.604,50.861,20.705,50.861,20.828L50.861,20.828z"/>
					</g>
					<g>
						<path fill="#E56107" d="M49.66,22.597c0,0.123-0.1,0.223-0.225,0.223H48.51c-0.123,0-0.223-0.1-0.223-0.223l0,0
							c0-0.124,0.1-0.224,0.223-0.224h0.926C49.561,22.373,49.66,22.473,49.66,22.597L49.66,22.597z"/>
						<path fill="#FF860D" d="M50.861,24.073c0,0.123-0.1,0.224-0.225,0.224h-0.925c-0.124,0-0.224-0.101-0.224-0.224l0,0
							c0-0.123,0.1-0.224,0.224-0.224h0.925C50.762,23.85,50.861,23.95,50.861,24.073L50.861,24.073z"/>
					</g>
					<g>
						<path fill="#E56107" d="M50.113,26.09c0,0.109-0.088,0.197-0.196,0.197h-0.816c-0.108,0-0.196-0.088-0.196-0.197l0,0
							c0-0.108,0.088-0.196,0.196-0.196h0.816C50.025,25.894,50.113,25.981,50.113,26.09L50.113,26.09z"/>
						<path fill="#FF860D" d="M50.27,27.389c0,0.108-0.088,0.196-0.197,0.196h-0.815c-0.108,0-0.196-0.088-0.196-0.196l0,0
							c0-0.107,0.088-0.196,0.196-0.196h0.815C50.182,27.192,50.27,27.281,50.27,27.389L50.27,27.389z"/>
					</g>
					<g>
						<path fill="#E56107" d="M50.219,29.273c0,0.088-0.07,0.158-0.158,0.158h-0.655c-0.087,0-0.157-0.07-0.157-0.158l0,0
							c0-0.086,0.07-0.157,0.157-0.157h0.655C50.148,29.116,50.219,29.188,50.219,29.273L50.219,29.273z"/>
						<path fill="#FF860D" d="M51.068,30.317c0,0.087-0.07,0.157-0.158,0.157h-0.656c-0.086,0-0.157-0.07-0.157-0.157l0,0
							c0-0.087,0.071-0.158,0.157-0.158h0.656C50.998,30.159,51.068,30.23,51.068,30.317L51.068,30.317z"/>
					</g>
				</g>
				<g>
					<g>
						<path fill="#E56107" d="M52.715,16.106c0,0.123,0.1,0.224,0.225,0.224h0.926c0.123,0,0.223-0.101,0.223-0.224l0,0
							c0-0.123-0.1-0.224-0.223-0.224h-0.926C52.814,15.883,52.715,15.983,52.715,16.106L52.715,16.106z"/>
						<path fill="#FF860D" d="M51.514,17.583c0,0.124,0.1,0.224,0.223,0.224h0.927c0.124,0,0.224-0.1,0.224-0.224l0,0
							c0-0.123-0.1-0.224-0.224-0.224h-0.927C51.613,17.359,51.514,17.46,51.514,17.583L51.514,17.583z"/>
					</g>
					<g>
						<path fill="#E56107" d="M52.715,19.352c0,0.123,0.1,0.223,0.225,0.223h0.926c0.123,0,0.223-0.1,0.223-0.223l0,0
							c0-0.123-0.1-0.223-0.223-0.223h-0.926C52.814,19.129,52.715,19.229,52.715,19.352L52.715,19.352z"/>
						<path fill="#FF860D" d="M51.514,20.828c0,0.123,0.1,0.223,0.223,0.223h0.927c0.124,0,0.224-0.1,0.224-0.223l0,0
							c0-0.123-0.1-0.224-0.224-0.224h-0.927C51.613,20.604,51.514,20.705,51.514,20.828L51.514,20.828z"/>
					</g>
					<g>
						<path fill="#E56107" d="M52.715,22.597c0,0.123,0.1,0.223,0.225,0.223h0.926c0.123,0,0.223-0.1,0.223-0.223l0,0
							c0-0.124-0.1-0.224-0.223-0.224h-0.926C52.814,22.373,52.715,22.473,52.715,22.597L52.715,22.597z"/>
						<path fill="#FF860D" d="M51.514,24.073c0,0.123,0.1,0.224,0.223,0.224h0.927c0.124,0,0.224-0.101,0.224-0.224l0,0
							c0-0.123-0.1-0.224-0.224-0.224h-0.927C51.613,23.85,51.514,23.95,51.514,24.073L51.514,24.073z"/>
					</g>
					<g>
						<path fill="#E56107" d="M52.262,26.09c0,0.109,0.088,0.197,0.196,0.197h0.816c0.108,0,0.196-0.088,0.196-0.197l0,0
							c0-0.108-0.088-0.196-0.196-0.196h-0.816C52.35,25.894,52.262,25.981,52.262,26.09L52.262,26.09z"/>
						<path fill="#FF860D" d="M52.029,27.389c0,0.108,0.086,0.196,0.195,0.196h0.816c0.107,0,0.197-0.088,0.197-0.196l0,0
							c0-0.107-0.09-0.196-0.197-0.196h-0.816C52.115,27.192,52.029,27.281,52.029,27.389L52.029,27.389z"/>
					</g>
					<g>
						<path fill="#E56107" d="M52.156,29.273c0,0.088,0.07,0.158,0.158,0.158h0.655c0.087,0,0.157-0.07,0.157-0.158l0,0
							c0-0.086-0.07-0.157-0.157-0.157h-0.655C52.227,29.116,52.156,29.188,52.156,29.273L52.156,29.273z"/>
						<path fill="#FF860D" d="M51.307,30.317c0,0.087,0.07,0.157,0.158,0.157h0.656c0.086,0,0.156-0.07,0.156-0.157l0,0
							c0-0.087-0.07-0.158-0.156-0.158h-0.656C51.377,30.159,51.307,30.23,51.307,30.317L51.307,30.317z"/>
					</g>
				</g>
			</g>
			<path fill="#FFAF10" d="M54.627,14.381c-0.703-0.923-1.979-1.348-3.439-1.348s-2.736,0.425-3.439,1.348
				c0.203,0.797,1.664,0.552,3.439,0.552S54.424,15.178,54.627,14.381z"/>
			<path fill="#FF860D" d="M51.188,14.933c0.805,0,1.541,0.05,2.129,0.031c-0.314-1.328-1.148-1.931-2.129-1.931
				c-0.981,0-1.814,0.603-2.129,1.931C49.646,14.982,50.383,14.933,51.188,14.933z"/>
		</g>
		<g>
			<g>
				<path fill="#68AD27" d="M49.291,10.029c0.197,0.277,2.225,3.602,1.947,3.799c-0.277,0.198-2.756-2.804-2.955-3.082
					c-0.197-0.277-0.133-0.663,0.146-0.861S49.093,9.752,49.291,10.029z"/>
				<path fill="#5C8729" d="M48.863,11.461c0.207,0.16,2.41,2.14,2.25,2.345c-0.158,0.206-2.622-1.442-2.826-1.602
					c-0.205-0.159-0.244-0.454-0.084-0.66C48.361,11.339,48.658,11.302,48.863,11.461z"/>
				<path fill="#7FCC2E" d="M50.434,9.669c0.11,0.322,1.09,4.089,0.768,4.198c-0.324,0.109-1.828-3.481-1.939-3.805
					c-0.107-0.322,0.066-0.673,0.39-0.783C49.974,9.171,50.325,9.344,50.434,9.669z"/>
			</g>
			<g>
				<path fill="#68AD27" d="M53.084,10.029c-0.198,0.277-2.225,3.602-1.947,3.799c0.277,0.198,2.756-2.804,2.954-3.082
					c0.198-0.277,0.134-0.663-0.144-0.861C53.668,9.687,53.281,9.752,53.084,10.029z"/>
				<path fill="#5C8729" d="M53.51,11.461c-0.205,0.16-2.408,2.14-2.248,2.345c0.158,0.206,2.622-1.442,2.826-1.602
					c0.205-0.159,0.242-0.454,0.084-0.66C54.012,11.339,53.717,11.302,53.51,11.461z"/>
				<path fill="#7FCC2E" d="M51.941,9.669c-0.111,0.322-1.091,4.089-0.768,4.198c0.324,0.109,1.828-3.481,1.939-3.805
					c0.107-0.322-0.066-0.673-0.39-0.783C52.401,9.171,52.05,9.344,51.941,9.669z"/>
			</g>
		</g>
		<path fill="#5C8729" d="M51.857,9.032c0,0.37-0.3,4.859-0.67,4.859s-0.67-4.489-0.67-4.859s0.3-0.67,0.67-0.67
			S51.857,8.662,51.857,9.032z"/>
		<circle fill="#7FCC2E" cx="47.642" cy="10.793" r="0.163"/>
		<circle fill="#7FCC2E" cx="54.312" cy="13.033" r="0.163"/>
		<circle fill="#7FCC2E" cx="47.649" cy="11.367" r="0.087"/>
		<circle fill="#7FCC2E" cx="54.277" cy="11.076" r="0.086"/>
		<circle fill="#7FCC2E" cx="48.749" cy="8.912" r="0.31"/>
		<circle fill="#5C8729" cx="48.487" cy="13.016" r="0.159"/>
		<circle fill="#5C8729" cx="53.591" cy="9.213" r="0.249"/>
	</g>
	<g>
		<g>
			<path fill="#249311" d="M32.688,33.266c1.432,1.273,4.228,0.465,6.249-1.805c2.018-2.27,10.793-14.475,9.365-15.75
				c-1.434-1.271-12.532,8.873-14.55,11.143C31.734,29.121,31.258,31.992,32.688,33.266z"/>
			<g>
				<g>
					<g>
						<path fill="#283526" d="M25.827,46.446c0,2.476-2.007,15.827-4.486,15.827c-2.475,0-4.482-13.352-4.482-15.827
							s2.008-4.484,4.482-4.484C23.82,41.962,25.827,43.971,25.827,46.446z"/>
						<path fill="#283526" d="M40.853,46.446c0,2.476-2.008,15.827-4.486,15.827c-2.475,0-4.482-13.352-4.482-15.827
							s2.008-4.484,4.482-4.484C38.845,41.962,40.853,43.971,40.853,46.446z"/>
					</g>
					<path fill="#32B220" d="M41.505,40.521c0,16.038-5.663,10.697-12.65,10.697c-6.986,0-12.65,5.341-12.65-10.697
						c0-9.17,5.666-16.603,12.65-16.603C35.841,23.919,41.505,31.352,41.505,40.521z"/>
					<g>
						<path fill="#32B220" d="M27.46,26.369c1.273,1.432,0.465,4.228-1.805,6.249c-2.27,2.018-14.476,10.794-15.75,9.365
							c-1.271-1.434,8.874-12.532,11.142-14.55C23.314,25.415,26.187,24.938,27.46,26.369z"/>
					</g>
					
						<rect x="25.688" y="23.667" transform="matrix(0.7071 -0.7071 0.7071 0.7071 -10.5232 28.2627)" fill="#DD9F76" width="6.334" height="6.334"/>
					<path fill="#249311" d="M28.854,46.969c-6.553,0-11.943,4.698-12.586-7.955c-0.043,0.439-0.064,0.939-0.064,1.508
						c0,16.038,5.664,10.697,12.65,10.697c6.987,0,12.65,5.341,12.65-10.697c0-0.568-0.021-1.068-0.064-1.508
						C40.797,51.667,35.409,46.969,28.854,46.969z"/>
					<g>
						<path fill="#B27029" d="M26.388,62.354c0,1.896-2.26,2.146-5.046,2.146c-2.784,0-5.045-0.249-5.045-2.146
							c0-1.897,2.261-4.508,5.045-4.508C24.128,57.847,26.388,60.457,26.388,62.354z"/>
						<path fill="#A05810" d="M26.388,62.354c0,1.896-2.26,2.146-5.046,2.146c-2.784,0-5.045-0.249-5.045-2.146"/>
					</g>
					<g>
						<path fill="#B27029" d="M41.412,62.354c0,1.896-2.258,2.146-5.044,2.146c-2.785,0-5.045-0.249-5.045-2.146
							c0-1.897,2.26-4.508,5.045-4.508C39.154,57.847,41.412,60.457,41.412,62.354z"/>
						<path fill="#A05810" d="M41.412,62.354c0,1.896-2.258,2.146-5.044,2.146c-2.785,0-5.045-0.249-5.045-2.146"/>
					</g>
					<g>
						<path fill="#E8B085" d="M45.226,16.275c0,7.999-7.331,12.02-16.369,12.02c-9.042,0-16.373-4.021-16.373-12.02
							c0-8.001,7.331-15.775,16.373-15.775C37.895,0.5,45.226,8.274,45.226,16.275z"/>
						<path fill="#DD9F76" d="M45.226,16.275c0,7.999-7.331,12.02-16.369,12.02c-9.042,0-16.373-4.021-16.373-12.02"/>
						<path fill="#543722" d="M34.223,21.799c0,2.965-2.402,5.368-5.368,5.368s-5.368-2.403-5.368-5.368v-4.606h-0.758
							c-0.441,0.901-0.707,1.903-0.707,2.975v8.155c2.082,0.586,4.393,0.89,6.835,0.89c2.44,0,4.75-0.304,6.831-0.89v-8.155
							c0-1.071-0.266-2.073-0.707-2.975h-0.758V21.799z"/>
					</g>
					<g>
						<g>
							<circle fill="#113E49" cx="21.07" cy="13.633" r="1.464"/>
							<path d="M22.534,13.633c0,0.811-0.657,1.465-1.464,1.465c-0.81,0-1.464-0.654-1.464-1.465"/>
							<g>
								<path fill="#F4C3A2" d="M23.958,16.687c-0.078,0-0.158-0.028-0.219-0.091c-0.715-0.714-1.664-1.107-2.672-1.107h-0.003
									c-1.007,0-1.953,0.394-2.665,1.106c-0.12,0.121-0.316,0.124-0.437,0.001c-0.121-0.117-0.124-0.312-0.003-0.434
									c0.83-0.831,1.932-1.29,3.104-1.29h0.003c1.176,0,2.278,0.456,3.11,1.288c0.119,0.119,0.119,0.318,0,0.436
									C24.118,16.658,24.04,16.687,23.958,16.687z"/>
							</g>
						</g>
						<g>
							<path fill="#113E49" d="M35.177,13.633c0,0.811,0.653,1.465,1.465,1.465c0.809,0,1.463-0.654,1.463-1.465
								c0-0.808-0.654-1.464-1.463-1.464C35.83,12.169,35.177,12.825,35.177,13.633z"/>
							<path d="M35.177,13.633c0,0.811,0.653,1.465,1.465,1.465c0.809,0,1.463-0.654,1.463-1.465"/>
							<g>
								<path fill="#F4C3A2" d="M33.753,16.687c0.075,0,0.156-0.028,0.217-0.091c0.715-0.714,1.664-1.107,2.672-1.107h0.001
									c1.009,0,1.958,0.394,2.668,1.106c0.119,0.121,0.314,0.124,0.436,0.001c0.122-0.117,0.124-0.312,0.003-0.434
									c-0.826-0.831-1.932-1.29-3.106-1.29h-0.001c-1.174,0-2.278,0.456-3.112,1.288c-0.117,0.119-0.117,0.318,0,0.436
									C33.593,16.658,33.671,16.687,33.753,16.687z"/>
							</g>
						</g>
					</g>
				</g>
				<g>
					<g>
						<path fill="#663F24" d="M29.317,17.636c0,0-1.711-3.682-6.312-0.657c-4.601,3.025-4.996,2.103-4.996,2.103
							s4.864,3.553,10.125,1.318l0.789-0.66L29.317,17.636z"/>
						<path fill="#543722" d="M18.009,19.081c0,0,4.864,3.553,10.125,1.318l0.789-0.66l0.395-2.104"/>
					</g>
					<g>
						<path fill="#663F24" d="M28.394,17.636c0,0,1.709-3.682,6.311-0.657c4.602,3.025,4.996,2.103,4.996,2.103
							s-4.863,3.553-10.124,1.318l-0.79-0.66L28.394,17.636z"/>
						<path fill="#543722" d="M39.7,19.081c0,0-4.863,3.553-10.124,1.318l-0.79-0.66l-0.393-2.104"/>
					</g>
				</g>
			</g>
			<g>
				<g>
					<circle fill="#FFFFFF" cx="28.854" cy="34.583" r="0.834"/>
					<circle fill="#FFFFFF" cx="28.854" cy="40.083" r="0.834"/>
				</g>
			</g>
		</g>
	</g>
	<path fill="#663F24" d="M44.405,12l0.079-0.164C42.408,5.626,36.195,0.5,28.856,0.5c-7.341,0-13.554,5.126-15.632,11.336L13.304,12
		l2.5,2.5V8.167l8.666-4.833l4.353,4.353v0.064l0.032-0.032l0.032,0.032V7.687l4.353-4.353l8.666,4.833V14.5L44.405,12z"/>
</g>
</svg>
