<?xml version="1.0" encoding="utf-8"?>
<!-- Generator: Adobe Illustrator 16.0.0, SVG Export Plug-In . SVG Version: 6.00 Build 0)  -->
<!DOCTYPE svg PUBLIC "-//W3C//DTD SVG 1.1//EN" "http://www.w3.org/Graphics/SVG/1.1/DTD/svg11.dtd">
<svg version="1.1" xmlns="http://www.w3.org/2000/svg" xmlns:xlink="http://www.w3.org/1999/xlink" x="0px" y="0px" width="65px"
	 height="65px" viewBox="0 0 65 65" enable-background="new 0 0 65 65" xml:space="preserve">
<g id="Layer_1">
	<g>
		<g>
			<g>
				<g>
					<path fill="#FF7900" d="M32.5,50.617c-10.006,0.001-18.116-8.11-18.116-18.117c-0.003-10.007,8.11-18.117,18.116-18.117
						c10.008,0,18.118,8.111,18.118,18.117S42.506,50.617,32.5,50.617z"/>
				</g>
				<g>
					<path fill="#FF5500" d="M45.312,19.688c7.077,7.075,7.077,18.548,0,25.623c-7.075,7.077-18.544,7.077-25.622,0"/>
				</g>
			</g>
			<g>
				<g>
					<circle fill="#FFAA00" cx="32.502" cy="32.501" r="8.875"/>
				</g>
				<g>
					<path fill="#FF9700" d="M26.227,26.226c3.466-3.465,9.084-3.465,12.55,0c3.465,3.467,3.465,9.084,0,12.551"/>
				</g>
			</g>
		</g>
		<g>
			<g>
				<g>
					<path fill="#FF9700" d="M33,6.004c0,0.246-0.254,0.445-0.498,0.445l0,0C32.255,6.449,32,6.25,32,6.004V0.947
						C32,0.7,32.255,0.5,32.502,0.5l0,0C32.746,0.5,33,0.7,33,0.947V6.004z"/>
				</g>
				<g>
					<path fill="#FF9700" d="M33,64.055c0,0.246-0.254,0.445-0.498,0.445l0,0C32.255,64.5,32,64.301,32,64.055v-5.057
						c0-0.247,0.255-0.447,0.502-0.447l0,0c0.244,0,0.498,0.2,0.498,0.447V64.055z"/>
				</g>
			</g>
			<g>
				<g>
					<path fill="#FF9700" d="M51.553,14.081c-0.174,0.174-0.457,0.173-0.63,0l0,0c-0.177-0.176-0.177-0.458-0.003-0.632l3.577-3.576
						c0.174-0.175,0.457-0.174,0.632,0l0,0c0.172,0.174,0.174,0.457,0,0.632L51.553,14.081z"/>
				</g>
				<g>
					<path fill="#FF9700" d="M10.504,55.129c-0.173,0.173-0.456,0.173-0.63,0l0,0c-0.175-0.176-0.175-0.459-0.001-0.632l3.575-3.576
						c0.175-0.174,0.458-0.174,0.633,0l0,0c0.173,0.174,0.174,0.458-0.001,0.632L10.504,55.129z"/>
				</g>
			</g>
			<g>
				<g>
					<path fill="#FF9700" d="M58.998,33c-0.247,0-0.447-0.255-0.447-0.5l0,0c0-0.248,0.2-0.5,0.446-0.5h5.058
						c0.246,0,0.445,0.252,0.445,0.5l0,0c0.002,0.245-0.199,0.5-0.445,0.5H58.998z"/>
				</g>
				<g>
					<path fill="#FF9700" d="M0.947,33C0.701,33,0.5,32.772,0.5,32.527l0,0c0.002-0.247,0.201-0.461,0.447-0.459l5.056-0.008
						c0.247,0.002,0.447,0.225,0.448,0.472l0,0C6.451,32.776,6.25,33,6.003,33H0.947z"/>
				</g>
			</g>
			<g>
				<g>
					<path fill="#FF9700" d="M50.92,51.553c-0.174-0.174-0.172-0.458,0-0.632l0,0c0.176-0.175,0.458-0.175,0.632-0.001l3.577,3.577
						c0.175,0.173,0.174,0.456-0.002,0.631l0,0c-0.172,0.174-0.455,0.175-0.63,0.001L50.92,51.553z"/>
				</g>
				<g>
					<path fill="#FF9700" d="M9.873,10.505c-0.174-0.175-0.174-0.458,0-0.632l0,0c0.176-0.174,0.459-0.175,0.631,0l3.576,3.574
						c0.174,0.175,0.174,0.457,0.001,0.634l0,0c-0.175,0.173-0.459,0.174-0.633-0.003L9.873,10.505z"/>
				</g>
			</g>
		</g>
		<g>
			<g>
				<g>
					<path fill="#FF9700" d="M19.641,9.329c0.122,0.214,0.048,0.487-0.164,0.609l0,0c-0.215,0.124-0.49,0.051-0.611-0.162
						l-2.527-4.379c-0.124-0.214-0.051-0.488,0.164-0.611l0,0c0.212-0.123,0.486-0.05,0.609,0.165L19.641,9.329z"/>
				</g>
				<g>
					<path fill="#FF9700" d="M48.666,59.604c0.123,0.212,0.047,0.485-0.164,0.608l0,0c-0.215,0.123-0.488,0.051-0.611-0.162
						l-2.529-4.379c-0.123-0.215-0.049-0.487,0.164-0.61l0,0c0.213-0.123,0.486-0.051,0.611,0.163L48.666,59.604z"/>
				</g>
			</g>
			<g>
				<g>
					<path fill="#FF9700" d="M39.791,7.021C39.727,7.26,39.48,7.4,39.242,7.337l0,0c-0.238-0.064-0.379-0.309-0.315-0.546
						l1.31-4.885c0.063-0.238,0.309-0.38,0.545-0.315l0,0c0.237,0.063,0.381,0.308,0.317,0.546L39.791,7.021z"/>
				</g>
				<g>
					<path fill="#FF9700" d="M24.766,63.095c-0.066,0.237-0.311,0.379-0.547,0.315l0,0c-0.239-0.065-0.381-0.311-0.317-0.547
						l1.31-4.885c0.062-0.237,0.309-0.379,0.548-0.316l0,0c0.235,0.063,0.378,0.31,0.314,0.548L24.766,63.095z"/>
				</g>
			</g>
			<g>
				<g>
					<path fill="#FF9700" d="M55.672,19.638c-0.217,0.125-0.488,0.05-0.611-0.162l0,0c-0.124-0.216-0.05-0.488,0.164-0.61
						l4.379-2.529c0.213-0.125,0.484-0.05,0.61,0.165l0,0c0.122,0.211,0.051,0.484-0.165,0.609L55.672,19.638z"/>
				</g>
				<g>
					<path fill="#FF9700" d="M5.398,48.664c-0.215,0.122-0.488,0.049-0.611-0.163l0,0c-0.121-0.215-0.05-0.49,0.164-0.611
						l4.377-2.529c0.215-0.122,0.488-0.049,0.613,0.165l0,0c0.122,0.213,0.049,0.487-0.165,0.609L5.398,48.664z"/>
				</g>
			</g>
			<g>
				<g>
					<path fill="#FF9700" d="M57.979,39.79c-0.238-0.064-0.377-0.312-0.314-0.549l0,0c0.063-0.238,0.307-0.378,0.545-0.314
						l4.887,1.309c0.236,0.062,0.379,0.308,0.314,0.546l0,0c-0.063,0.238-0.309,0.381-0.547,0.317L57.979,39.79z"/>
				</g>
				<g>
					<path fill="#FF9700" d="M1.906,24.765c-0.238-0.064-0.378-0.31-0.314-0.546l0,0c0.062-0.239,0.309-0.382,0.545-0.316
						l4.885,1.307c0.238,0.065,0.38,0.309,0.316,0.55l0,0c-0.064,0.236-0.309,0.38-0.549,0.313L1.906,24.765z"/>
				</g>
			</g>
		</g>
		<g>
			<g>
				<g>
					<path fill="#FF9700" d="M9.776,18.863c0.213,0.123,0.287,0.397,0.161,0.61l0,0c-0.121,0.214-0.396,0.288-0.609,0.164
						l-4.377-2.528c-0.217-0.124-0.289-0.397-0.165-0.61l0,0c0.124-0.214,0.399-0.288,0.612-0.163L9.776,18.863z"/>
				</g>
				<g>
					<path fill="#FF9700" d="M60.051,47.889c0.214,0.122,0.283,0.398,0.163,0.609l0,0c-0.126,0.214-0.397,0.288-0.61,0.166
						l-4.379-2.529c-0.214-0.124-0.288-0.396-0.164-0.611l0,0c0.121-0.211,0.395-0.286,0.611-0.163L60.051,47.889z"/>
				</g>
			</g>
			<g>
				<g>
					<path fill="#FF9700" d="M26.073,6.789c0.063,0.239-0.079,0.483-0.314,0.547l0,0c-0.239,0.063-0.485-0.077-0.548-0.314
						l-1.31-4.885c-0.063-0.238,0.078-0.483,0.314-0.546l0,0c0.237-0.063,0.483,0.076,0.548,0.314L26.073,6.789z"/>
				</g>
				<g>
					<path fill="#FF9700" d="M41.099,62.862c0.063,0.238-0.08,0.483-0.317,0.547l0,0c-0.238,0.063-0.483-0.078-0.547-0.314
						l-1.308-4.886c-0.063-0.237,0.077-0.482,0.314-0.547l0,0c0.237-0.064,0.485,0.078,0.548,0.316L41.099,62.862z"/>
				</g>
			</g>
			<g>
				<g>
					<path fill="#FF9700" d="M46.135,9.775c-0.123,0.215-0.396,0.287-0.609,0.164l0,0c-0.214-0.124-0.288-0.396-0.164-0.61
						l2.527-4.379c0.122-0.215,0.397-0.287,0.613-0.163l0,0c0.211,0.121,0.284,0.394,0.16,0.61L46.135,9.775z"/>
				</g>
				<g>
					<path fill="#FF9700" d="M17.111,60.049c-0.127,0.214-0.397,0.286-0.609,0.164l0,0c-0.215-0.125-0.291-0.398-0.166-0.61
						l2.525-4.379c0.125-0.214,0.398-0.287,0.615-0.163l0,0c0.212,0.122,0.286,0.396,0.16,0.609L17.111,60.049z"/>
				</g>
			</g>
			<g>
				<g>
					<path fill="#FF9700" d="M58.209,26.073c-0.238,0.063-0.482-0.08-0.547-0.317l0,0c-0.063-0.238,0.076-0.48,0.316-0.545
						l4.885-1.31c0.236-0.064,0.48,0.077,0.545,0.314l0,0c0.066,0.238-0.076,0.484-0.314,0.549L58.209,26.073z"/>
				</g>
				<g>
					<path fill="#FF9700" d="M2.137,41.098c-0.238,0.063-0.482-0.079-0.545-0.316l0,0c-0.063-0.238,0.076-0.483,0.312-0.546
						l4.885-1.311c0.24-0.062,0.483,0.077,0.549,0.317l0,0c0.063,0.237-0.076,0.484-0.318,0.547L2.137,41.098z"/>
				</g>
			</g>
		</g>
		<g>
			<g>
				<g>
					<circle fill="#FFAA00" cx="32.501" cy="11.121" r="0.507"/>
				</g>
				<g>
					<circle fill="#FFAA00" cx="32.501" cy="53.881" r="0.507"/>
				</g>
			</g>
			<g>
				<g>
					<circle fill="#FFAA00" cx="47.619" cy="17.383" r="0.508"/>
				</g>
				<g>
					<circle fill="#FFAA00" cx="17.383" cy="47.62" r="0.508"/>
				</g>
			</g>
			<g>
				<g>
					<circle fill="#FFAA00" cx="53.882" cy="32.502" r="0.507"/>
				</g>
				<g>
					<circle fill="#FFAA00" cx="11.122" cy="32.501" r="0.507"/>
				</g>
			</g>
			<g>
				<g>
					<circle fill="#FFAA00" cx="47.619" cy="47.62" r="0.508"/>
				</g>
				<g>
					<circle fill="#FFAA00" cx="17.383" cy="17.384" r="0.508"/>
				</g>
			</g>
		</g>
		<g>
			<g>
				<g>
					<path fill="#FFAA00" d="M22.251,13.731c0.14,0.242,0.056,0.553-0.186,0.692c-0.243,0.141-0.552,0.058-0.694-0.186
						c-0.138-0.242-0.056-0.552,0.188-0.692C21.799,13.406,22.109,13.489,22.251,13.731z"/>
				</g>
				<g>
					<circle fill="#FFAA00" cx="43.192" cy="51.016" r="0.508"/>
				</g>
			</g>
			<g>
				<g>
					<circle fill="#FFAA00" cx="38.035" cy="11.85" r="0.508"/>
				</g>
				<g>
					<circle fill="#FFAA00" cx="26.969" cy="53.153" r="0.507"/>
				</g>
			</g>
			<g>
				<g>
					<circle fill="#FFAA00" cx="51.02" cy="21.812" r="0.507"/>
				</g>
				<g>
					<path fill="#FFAA00" d="M14.24,43.631c-0.243,0.141-0.555,0.056-0.693-0.186c-0.142-0.244-0.057-0.553,0.185-0.692
						c0.243-0.142,0.552-0.059,0.694,0.186C14.563,43.18,14.483,43.49,14.24,43.631z"/>
				</g>
			</g>
			<g>
				<g>
					<circle fill="#FFAA00" cx="53.152" cy="38.036" r="0.508"/>
				</g>
				<g>
					<circle fill="#FFAA00" cx="11.851" cy="26.968" r="0.507"/>
				</g>
			</g>
		</g>
		<g>
			<g>
				<g>
					<circle fill="#FFAA00" cx="13.985" cy="21.81" r="0.507"/>
				</g>
				<g>
					<circle fill="#FFAA00" cx="51.017" cy="43.19" r="0.507"/>
				</g>
			</g>
			<g>
				<g>
					<path fill="#FFAA00" d="M27.459,11.719c0.072,0.269-0.089,0.547-0.359,0.621c-0.273,0.073-0.549-0.09-0.621-0.359
						c-0.076-0.271,0.087-0.549,0.359-0.62C27.105,11.287,27.385,11.448,27.459,11.719z"/>
				</g>
				<g>
					<path fill="#FFAA00" d="M38.525,53.021c0.07,0.271-0.089,0.548-0.359,0.619c-0.271,0.074-0.549-0.085-0.621-0.356
						c-0.07-0.271,0.089-0.549,0.359-0.622C38.172,52.592,38.453,52.751,38.525,53.021z"/>
				</g>
			</g>
			<g>
				<g>
					<path fill="#FFAA00" d="M43.632,14.238c-0.142,0.242-0.45,0.325-0.691,0.186c-0.245-0.141-0.329-0.45-0.186-0.692
						c0.138-0.243,0.445-0.326,0.69-0.186C43.686,13.686,43.771,13.996,43.632,14.238z"/>
				</g>
				<g>
					<path fill="#FFAA00" d="M22.251,51.27c-0.142,0.243-0.448,0.326-0.692,0.188c-0.246-0.142-0.327-0.451-0.188-0.693
						c0.14-0.244,0.452-0.326,0.697-0.186C22.305,50.718,22.393,51.027,22.251,51.27z"/>
				</g>
			</g>
			<g>
				<g>
					<path fill="#FFAA00" d="M53.286,27.458c-0.272,0.071-0.552-0.089-0.624-0.359c-0.074-0.271,0.09-0.549,0.359-0.621
						c0.271-0.072,0.549,0.088,0.623,0.36C53.715,27.106,53.555,27.384,53.286,27.458z"/>
				</g>
				<g>
					<circle fill="#FFAA00" cx="11.851" cy="38.035" r="0.507"/>
				</g>
			</g>
		</g>
	</g>
</g>
<g id="nyt_x5F_exporter_x5F_info" display="none">
	<text transform="matrix(1 0 0 1 -129 0)" display="inline"><tspan x="0" y="0" font-family="'MyriadPro-Regular'" font-size="12">&lt;nyt_prefs&gt;</tspan><tspan x="0" y="14.4" font-family="'MyriadPro-Regular'" font-size="12">  &lt;nyt_prefix/&gt;</tspan><tspan x="0" y="28.8" font-family="'MyriadPro-Regular'" font-size="12">  &lt;nyt_suffix/&gt;</tspan><tspan x="0" y="43.2" font-family="'MyriadPro-Regular'" font-size="12">  &lt;nyt_base_path&gt;~/Desktop&lt;/nyt_base_path&gt;</tspan><tspan x="0" y="57.6" font-family="'MyriadPro-Regular'" font-size="12">  &lt;nyt_scaling&gt;100%&lt;/nyt_scaling&gt;</tspan><tspan x="0" y="72" font-family="'MyriadPro-Regular'" font-size="12">  &lt;nyt_transparency&gt;true&lt;/nyt_transparency&gt;</tspan><tspan x="0" y="86.4" font-family="'MyriadPro-Regular'" font-size="12">  &lt;nyt_format&gt;PNG 24&lt;/nyt_format&gt;</tspan><tspan x="0" y="100.8" font-family="'MyriadPro-Regular'" font-size="12">  &lt;nyt_export_code&gt;artboards&lt;/nyt_export_code&gt;</tspan><tspan x="0" y="115.2" font-family="'MyriadPro-Regular'" font-size="12">&lt;/nyt_prefs&gt;</tspan></text>
</g>
</svg>
