<?xml version="1.0" encoding="utf-8"?>
<!-- Generator: Adobe Illustrator 16.0.0, SVG Export Plug-In . SVG Version: 6.00 Build 0)  -->
<!DOCTYPE svg PUBLIC "-//W3C//DTD SVG 1.1//EN" "http://www.w3.org/Graphics/SVG/1.1/DTD/svg11.dtd">
<svg version="1.1" id="Layer_1" xmlns="http://www.w3.org/2000/svg" xmlns:xlink="http://www.w3.org/1999/xlink" x="0px" y="0px"
	 width="64px" height="64px" viewBox="0 0 64 64" enable-background="new 0 0 64 64" xml:space="preserve">
<g>
	<g>
		<circle fill="#F15249" cx="32" cy="31.2" r="30.5"/>
		<path fill="#C93131" d="M53.6,9.6c11.9,11.9,11.9,31.2,0,43.1c-11.9,11.9-31.2,11.9-43.1,0"/>
	</g>
	<g>
		<polygon fill="#FCFBE6" points="10.7,10.9 32,2.5 53.3,10.9 48.9,30.1 32,38.5 15.1,30.1 		"/>
		<polygon fill="#EDEBD3" points="51.5,19 53.3,10.9 32,17.4 10.7,10.9 12.6,19 7.1,52.4 32,63.3 56.9,52.4 		"/>
		<polygon fill="#DDDAC0" points="49.4,28.7 53.6,32.3 51.5,19 53.2,11.4 45.3,20.6 39.3,21.5 34.6,27.4 32,37.6 29.4,27.4 
			24.7,21.5 18.7,20.6 10.8,11.3 12.6,19 10.4,32.3 14.6,28.7 32,49 32,49 		"/>
		<path fill="#FCCC32" d="M31.3,39.3"/>
		<polygon fill="#C6C2A7" points="39.6,32.4 31.9,48.8 24.3,32.4 31.9,26.8 		"/>
		<g>
			<polyline fill="#FCCC32" points="31.9,38.9 38.7,31.9 35.8,29.4 31.9,23.4 31.9,23.7 31.9,23.4 28.1,29.4 25.1,31.9 31.3,38.3 
							"/>
			<polyline fill="#EFAE0C" points="31.9,38.9 38.7,31.9 35.8,29.4 31.9,23.4 31.9,23.7 31.9,23.4 			"/>
		</g>
		<path fill="#FCCC32" d="M31.9,39.9"/>
		<path fill="#EDEBD3" d="M30.6,31.4"/>
		<g>
			<g>
				<g>
					<g>
						<polygon fill="#5E6664" points="25,26 19,24.1 19,20.6 25,22.5 						"/>
						<polyline fill="#2F423F" points="25,22.5 25,26 19,24.1 						"/>
					</g>
				</g>
				<ellipse fill="#7FD6EA" cx="21.8" cy="23.3" rx="1.7" ry="1.5"/>
				<path fill="#52C1DB" d="M23,22.2c0.7,0.6,0.7,1.5,0,2.1c-0.7,0.6-1.7,0.6-2.4,0"/>
			</g>
			<g>
				<g>
					<g>
						<polygon fill="#5E6664" points="39,26 45,24.1 45,20.6 39,22.5 						"/>
						<polyline fill="#2F423F" points="39,22.5 39,26 45,24.1 						"/>
					</g>
				</g>
				<g>
					<ellipse fill="#7FD6EA" cx="42.1" cy="23.3" rx="1.7" ry="1.5"/>
					<path fill="#52C1DB" d="M40.9,24.3c0.7,0.6,1.7,0.6,2.4,0c0.7-0.6,0.7-1.5,0-2.1"/>
				</g>
			</g>
		</g>
		<g>
			<polygon fill="#725839" points="7.1,52.4 11,49.8 11.7,53.4 15.2,51.8 16.3,55.3 19.5,53.4 21,57.3 24.3,55 26.1,59.4 29,56.6 
				32,63.3 			"/>
			<polygon fill="#725839" points="56.9,52.4 53,49.8 52.3,53.4 48.8,51.8 47.7,55.3 44.5,53.4 43,57.3 39.7,55 37.9,59.4 35,56.6 
				32,63.3 			"/>
		</g>
	</g>
</g>
</svg>
