<?xml version="1.0" encoding="utf-8"?>
<!-- Generator: Adobe Illustrator 16.0.0, SVG Export Plug-In . SVG Version: 6.00 Build 0)  -->
<!DOCTYPE svg PUBLIC "-//W3C//DTD SVG 1.1//EN" "http://www.w3.org/Graphics/SVG/1.1/DTD/svg11.dtd">
<svg version="1.1" xmlns="http://www.w3.org/2000/svg" xmlns:xlink="http://www.w3.org/1999/xlink" x="0px" y="0px" width="65px"
	 height="65px" viewBox="0 0 65 65" enable-background="new 0 0 65 65" xml:space="preserve">
<g id="Layer_1">
	<g>
		<g>
			<g>
				<g>
					<line fill="#27C4CC" x1="3.083" y1="21.687" x2="61.917" y2="21.687"/>
				</g>
				<g>
					<path fill="#756451" d="M61.917,24.187H3.083c-1.381,0-2.5-1.119-2.5-2.5s1.119-2.5,2.5-2.5h58.834c1.381,0,2.5,1.119,2.5,2.5
						S63.298,24.187,61.917,24.187z"/>
				</g>
			</g>
			<g>
				<g>
					<g>
						<path fill="#27C4CC" d="M3.085,32.562h8.783c0,0,14.99,9.994,20.443,10.752"/>
					</g>
					<g>
						<path fill="#756451" d="M32.313,45.813c-0.113,0-0.23-0.008-0.346-0.023c-5.369-0.746-17.641-8.619-20.852-10.729H3.085
							c-1.381,0-2.5-1.119-2.5-2.5s1.119-2.5,2.5-2.5h8.783c0.492,0,0.975,0.146,1.387,0.42c5.613,3.742,15.844,9.861,19.4,10.355
							c1.367,0.189,2.322,1.453,2.133,2.82C34.614,44.907,33.542,45.813,32.313,45.813z"/>
					</g>
				</g>
				<g>
					<g>
						<path fill="#27C4CC" d="M61.917,32.562h-8.783c0,0-14.992,9.994-20.443,10.752"/>
					</g>
					<g>
						<path fill="#756451" d="M32.687,45.813c-1.229,0-2.299-0.906-2.473-2.156c-0.189-1.367,0.764-2.631,2.131-2.82
							c3.557-0.494,13.789-6.613,19.402-10.355c0.41-0.273,0.893-0.42,1.387-0.42h8.783c1.381,0,2.5,1.119,2.5,2.5
							s-1.119,2.5-2.5,2.5h-8.031c-3.213,2.109-15.486,9.982-20.852,10.729C32.917,45.806,32.802,45.813,32.687,45.813z"/>
					</g>
				</g>
			</g>
		</g>
		<g>
			<g>
				<circle fill="#A8927B" cx="28.437" cy="32.583" r="1.063"/>
			</g>
			<g>
				<circle fill="#A8927B" cx="32.5" cy="32.583" r="1.063"/>
			</g>
			<g>
				<circle fill="#A8927B" cx="36.562" cy="32.583" r="1.062"/>
			</g>
		</g>
	</g>
</g>
<g id="nyt_x5F_exporter_x5F_info" display="none">
</g>
</svg>
