<?xml version="1.0" encoding="utf-8"?>
<!-- Generator: Adobe Illustrator 16.0.0, SVG Export Plug-In . SVG Version: 6.00 Build 0)  -->
<!DOCTYPE svg PUBLIC "-//W3C//DTD SVG 1.1//EN" "http://www.w3.org/Graphics/SVG/1.1/DTD/svg11.dtd">
<svg version="1.1" xmlns="http://www.w3.org/2000/svg" xmlns:xlink="http://www.w3.org/1999/xlink" x="0px" y="0px" width="65px"
	 height="65px" viewBox="0 0 65 65" enable-background="new 0 0 65 65" xml:space="preserve">
<g id="Layer_1">
	<g>
		<path fill="#B50202" d="M64.5,53.301c0,5.303-4.298,9.6-9.6,9.6h-44.8c-5.303,0-9.601-4.297-9.601-9.6V25.922
			c0-5.301,1.098-9.6,6.4-9.6h51.2c5.301,0,6.399,4.299,6.399,9.6V53.301z"/>
		<path fill="#CE0D0D" d="M0.5,25.922c0-5.301,1.098-9.6,6.4-9.6h51.2c5.301,0,6.399,4.299,6.399,9.6v27.379
			c0,5.303-4.298,9.6-9.6,9.6"/>
		<path fill="#A00202" d="M58.101,16.322c5.301,0,6.399,4.299,6.399,9.6v27.379c0,5.303-4.298,9.6-9.6,9.6h-44.8"/>
		<circle fill="#EBF0F2" cx="32.5" cy="39.611" r="12.533"/>
		<path fill="#87BA09" d="M43.462,34.271h-5.621V28.65c0-2.096-1.699-3.795-3.795-3.795h-3.093c-2.094,0-3.794,1.699-3.794,3.795
			v5.621h-5.621c-2.096,0-3.793,1.697-3.793,3.793v3.092c0,2.096,1.697,3.795,3.793,3.795h5.621v5.623
			c0,2.094,1.7,3.793,3.794,3.793h3.093c2.096,0,3.795-1.699,3.795-3.793v-5.623h5.621c2.096,0,3.793-1.699,3.793-3.795v-3.092
			C47.255,35.969,45.558,34.271,43.462,34.271z"/>
		<path fill="#0BB718" d="M27.159,50.574c0,2.094,1.7,3.793,3.794,3.793h3.093c2.096,0,3.795-1.699,3.795-3.793v-5.623h5.621
			c2.096,0,3.793-1.699,3.793-3.795v-3.092c0-2.096-1.697-3.793-3.793-3.793h-3.858L27.159,46.346V50.574z"/>
		<g>
			<path fill="#929393" d="M45.392,22.189c-1.474,0-2.668-1.193-2.668-2.668V9.357c0-0.375-0.305-0.68-0.68-0.68H22.956
				c-0.375,0-0.68,0.305-0.68,0.68v10.164c0,1.475-1.194,2.668-2.668,2.668c-1.473,0-2.666-1.193-2.666-2.668V9.357
				c0-3.314,2.699-6.014,6.014-6.014h19.088c3.315,0,6.014,2.699,6.014,6.014v10.164C48.058,20.996,46.863,22.189,45.392,22.189z"/>
		</g>
		<g>
			<path fill="#0BB718" d="M29.034,9.479c0,0.441-0.359,0.799-0.799,0.799l0,0c-0.442,0-0.801-0.357-0.801-0.799V2.9
				c0-0.443,0.358-0.801,0.801-0.801l0,0c0.439,0,0.799,0.357,0.799,0.801V9.479z"/>
			<path fill="#0BB718" d="M31.878,9.479c0,0.441-0.358,0.799-0.801,0.799l0,0c-0.441,0-0.799-0.357-0.799-0.799V2.9
				c0-0.443,0.357-0.801,0.799-0.801l0,0c0.442,0,0.801,0.357,0.801,0.801V9.479z"/>
			<path fill="#0BB718" d="M34.722,9.479c0,0.441-0.358,0.799-0.8,0.799l0,0c-0.442,0-0.8-0.357-0.8-0.799V2.9
				c0-0.443,0.357-0.801,0.8-0.801l0,0c0.441,0,0.8,0.357,0.8,0.801V9.479z"/>
			<path fill="#0BB718" d="M37.565,9.479c0,0.441-0.359,0.799-0.799,0.799l0,0c-0.442,0-0.801-0.357-0.801-0.799V2.9
				c0-0.443,0.358-0.801,0.801-0.801l0,0c0.439,0,0.799,0.357,0.799,0.801V9.479z"/>
		</g>
	</g>
</g>
<g id="nyt_x5F_exporter_x5F_info" display="none">
</g>
</svg>
