<?xml version="1.0" encoding="utf-8"?>
<!-- Generator: Adobe Illustrator 16.0.0, SVG Export Plug-In . SVG Version: 6.00 Build 0)  -->
<!DOCTYPE svg PUBLIC "-//W3C//DTD SVG 1.1//EN" "http://www.w3.org/Graphics/SVG/1.1/DTD/svg11.dtd">
<svg version="1.1" id="Layer_1" xmlns="http://www.w3.org/2000/svg" xmlns:xlink="http://www.w3.org/1999/xlink" x="0px" y="0px"
	 width="64px" height="64px" viewBox="0 0 64 64" enable-background="new 0 0 64 64" xml:space="preserve">
<g>
	<path fill="#3A2819" d="M37,38.4c0,0.9-0.7,1.6-1.6,1.6h-6.7c-0.9,0-1.6-0.7-1.6-1.6v-9.7c0-0.9,0.7-1.6,1.6-1.6h6.7
		c0.9,0,1.6,0.7,1.6,1.6V38.4z"/>
	<g>
		<path fill="#A09D93" d="M63,59.2c0,1.3-1,2.8-2.3,2.8H3.3C2,62,1,60.5,1,59.2V35.1C1,33.8,2,33,3.3,33h57.4c1.3,0,2.3,0.8,2.3,2.1
			V59.2z"/>
		<path fill="#D8D6CA" d="M63,56.1c0,1.3-1,1.9-2.3,1.9H3.3C2,58,1,57.4,1,56.1V32c0-1.3,1-2,2.3-2h57.4c1.3,0,2.3,0.7,2.3,2V56.1z"
			/>
		<path fill="#C1BDAE" d="M3,30h57.7c1.3,0,2.3,0.7,2.3,2v24.1c0,1.3-1,1.9-2.3,1.9"/>
		<g>
			<g>
				<path fill="#F9A12C" d="M36,42.8c0,0.1-0.1,0.2-0.2,0.2h-7.6c-0.1,0-0.2-0.1-0.2-0.2v-1.6c0-0.1,0.1-0.2,0.2-0.2h7.6
					c0.1,0,0.2,0.1,0.2,0.2V42.8z"/>
				<path fill="#E88813" d="M29,41C29,41,29,41,29,41h7l0,0l0,1.8c0,0.1-0.1,0.2-0.2,0.2"/>
			</g>
		</g>
		<g>
			<g>
				<path fill="#F9A12C" d="M36,47.8c0,0.1-0.1,0.2-0.2,0.2h-7.6c-0.1,0-0.2-0.1-0.2-0.2v-1.6c0-0.1,0.1-0.2,0.2-0.2h7.6
					c0.1,0,0.2,0.1,0.2,0.2V47.8z"/>
				<path fill="#E88813" d="M29,46C29,46,29,46,29,46h7l0,0l0,1.8c0,0.1-0.1,0.2-0.2,0.2"/>
			</g>
		</g>
		<path fill="#3A2819" d="M24,52.1c0,0.9-0.6,1.9-1.5,1.9H6.3C5.4,54,5,53,5,52.1V36c0-0.9,0.4-2,1.3-2h16.1c0.9,0,1.5,1,1.5,2V52.1
			z"/>
		<path fill="#3A2819" d="M59,52.3c0,0.9-0.8,1.7-1.7,1.7H40.7c-0.9,0-1.7-0.8-1.7-1.7V35.7c0-0.9,0.8-1.7,1.7-1.7h16.6
			c0.9,0,1.7,0.8,1.7,1.7V52.3z"/>
		<path fill="#EA1F0A" d="M20,41h-2v-2.6c0-0.7-0.7-1.4-1.3-1.4h-4.5c-0.7,0-1.2,0.7-1.2,1.4V41H8.8C8.1,41,8,41.1,8,41.8v4.5
			C8,47,8.1,48,8.8,48H11v1.7c0,0.7,0.5,1.3,1.2,1.3h4.5c0.7,0,1.3-0.7,1.3-1.3V48h2c0.7,0,1-1,1-1.7v-4.5C21,41.1,20.7,41,20,41z"
			/>
		<path fill="#BC0400" d="M11,48v1.7c0,0.7,0.5,1.3,1.2,1.3h4.5c0.7,0,1.3-0.7,1.3-1.3V48h2c0.7,0,1-1,1-1.7v-4.5
			c0-0.7-0.3-0.8-1-0.8h-2"/>
		<g>
			<path fill="#329908" d="M49.6,40.9c0,2.1-1.7,3.7-3.7,3.7c-2.1,0-3.7-1.7-3.7-3.7c0-2.1,1.7-3.7,3.7-3.7
				C47.9,37.2,49.6,38.9,49.6,40.9z"/>
			<path fill="#236D00" d="M48.5,38.3c1.5,1.5,1.5,3.8,0,5.3c-1.5,1.5-3.8,1.5-5.3,0"/>
		</g>
		<g>
			<path fill="#07BED6" d="M56.6,47.2c0,2.1-1.7,3.7-3.7,3.7c-2.1,0-3.7-1.7-3.7-3.7c0-2.1,1.7-3.7,3.7-3.7
				C54.9,43.4,56.6,45.1,56.6,47.2z"/>
			<path fill="#00A1AD" d="M55.5,44.5c1.5,1.5,1.5,3.8,0,5.3c-1.5,1.5-3.8,1.5-5.3,0"/>
		</g>
		<path fill="#D8D6CA" d="M60.3,32c0,0.4-0.3,1-0.7,1H4.4c-0.4,0-0.7-0.6-0.7-1l0,0c0-0.4,0.3-1,0.7-1h55.2C60,31,60.3,31.6,60.3,32
			L60.3,32z"/>
	</g>
	<g>
		<g>
			<path fill="#4C5254" d="M33,25h-3v-6.9c0-1.8-1.2-3.2-2.9-3.2S24.1,16,24.1,18h-3c0-3,2.5-6.2,5.9-6.2s5.9,2.8,5.9,6.2V25z"/>
		</g>
		<path fill="#2F423F" d="M22.6,16.5c-0.8,0-1.5,0.7-1.5,1.5c0,1.8-1.3,3.2-3.1,3.2S15,19.8,15,18V2h-3v16c0,3.4,2.6,6.2,6.1,6.2
			s6.1-2.8,6.1-6.2C24.2,17.2,23.4,16.5,22.6,16.5z"/>
	</g>
</g>
</svg>
