<?xml version="1.0" encoding="utf-8"?>
<!-- Generator: Adobe Illustrator 16.0.0, SVG Export Plug-In . SVG Version: 6.00 Build 0)  -->
<!DOCTYPE svg PUBLIC "-//W3C//DTD SVG 1.1//EN" "http://www.w3.org/Graphics/SVG/1.1/DTD/svg11.dtd">
<svg version="1.1" id="Layer_1" xmlns="http://www.w3.org/2000/svg" xmlns:xlink="http://www.w3.org/1999/xlink" x="0px" y="0px"
	 width="64px" height="64px" viewBox="0 0 64 64" enable-background="new 0 0 64 64" xml:space="preserve">
<g>
	<g>
		<g>
			<g>
				<g>
					<g>
						<g>
							<path fill="#F7910B" d="M62.3,37.5C62.3,50.5,50.4,61,32,61C13.6,61,1.7,50.5,1.7,37.5S13.6,5,32,5
								C50.4,5,62.3,24.5,62.3,37.5z"/>
						</g>
						<g>
							<path fill="#F7910B" d="M62.3,37.5C62.3,50.5,50.4,57,32,57C13.6,57,1.7,50.5,1.7,37.5S13.6,3,32,3
								C50.4,3,62.3,24.5,62.3,37.5z"/>
						</g>
						<g>
							<path fill="#F9A908" d="M32,3c18.4,0,30.3,21.5,30.3,34.5S50.4,57,32,57"/>
						</g>
						<g>
							<path fill="#F9A908" d="M62.3,37.5C62.3,50.5,50.4,57,32,57C13.6,57,1.7,50.5,1.7,37.5S13.6,5,32,5
								C50.4,5,62.3,24.5,62.3,37.5z"/>
						</g>
						<g>
							<path fill="#F9C55D" d="M1.7,37.5C1.7,24.5,13.6,5,32,5"/>
						</g>
						<g>
							<path fill="#F7910B" d="M32,5c18.4,0,30.3,19.5,30.3,32.5S50.4,61,32,61"/>
						</g>
						<g>
							<path fill="#EA7103" d="M32,5c18.4,0,30.3,19.5,30.3,32.5"/>
						</g>
						<g>
							<g>
								<circle fill="#EA7103" cx="21.6" cy="25.7" r="3.2"/>
							</g>
							<g>
								<circle fill="#EA7103" cx="42.4" cy="25.7" r="3.2"/>
							</g>
							<g>
								<circle fill="#1E4784" cx="21.6" cy="24.8" r="3.2"/>
							</g>
							<g>
								<path fill="#00233F" d="M21.6,21.6c1.8,0,3.2,1.4,3.2,3.2s-1.4,3.2-3.2,3.2"/>
							</g>
							<g>
								<circle fill="#1E4784" cx="42.4" cy="24.8" r="3.2"/>
							</g>
							<g>
								<path fill="#00233F" d="M42.4,21.6c1.8,0,3.2,1.4,3.2,3.2s-1.4,3.2-3.2,3.2"/>
							</g>
						</g>
						<g>
							<g>
								<g>
									<g>
										<g>
											<g>
												<path fill="#19BCA4" d="M25.7,12.1c0,0.9-1.4,0.5-3.3,0.6c-1.8,0.1-3.3,0.6-3.3-0.3c0-0.9,1.4-1.6,3.2-1.7
													C24.2,10.6,25.7,11.2,25.7,12.1z"/>
											</g>
										</g>
									</g>
								</g>
								<g>
									<g>
										<g>
											<g>
												<path fill="#19BCA4" d="M38.3,12.1c0,0.9,1.4,0.5,3.3,0.6c1.8,0.1,3.3,0.6,3.3-0.3c0-0.9-1.4-1.6-3.2-1.7
													C39.8,10.6,38.3,11.2,38.3,12.1z"/>
											</g>
										</g>
									</g>
								</g>
							</g>
							<g>
								<g>
									<g>
										<g>
											<g>
												<path fill="#109DA0" d="M25.7,12.1c0,0.9-1.4,0.5-3.3,0.6c-1.8,0.1-3.3,0.6-3.3-0.3"/>
											</g>
										</g>
									</g>
								</g>
								<g>
									<g>
										<g>
											<g>
												<path fill="#109DA0" d="M38.3,12.1c0,0.9,1.4,0.5,3.3,0.6c1.8,0.1,3.3,0.6,3.3-0.3"/>
											</g>
										</g>
									</g>
								</g>
							</g>
						</g>
						<g>
							<g>
								<path fill="#F9C55D" d="M27.8,30.8c0,1.2-3.5,0.7-7.8,0.7c-4.3,0-7.8,0.6-7.8-0.7s3.5-2.2,7.8-2.2
									C24.3,28.6,27.8,29.6,27.8,30.8z"/>
							</g>
							<g>
								<path fill="#F9A908" d="M51.8,30.8c0,1.2-3.5,0.7-7.8,0.7s-7.8,0.6-7.8-0.7s3.5-2.2,7.8-2.2S51.8,29.6,51.8,30.8z"/>
							</g>
						</g>
						<g>
							<circle fill="#F7910B" cx="10.3" cy="34.5" r="0.6"/>
						</g>
						<g>
							<circle fill="#F7910B" cx="5.8" cy="36.5" r="1.1"/>
						</g>
						<g>
							<circle fill="#F7910B" cx="8.8" cy="32.5" r="0.2"/>
						</g>
						<g>
							<circle fill="#F7910B" cx="13.4" cy="34.3" r="0.2"/>
						</g>
						<g>
							<circle fill="#F9A908" cx="52.6" cy="34.8" r="0.8"/>
						</g>
						<g>
							<circle fill="#F9A908" cx="55.1" cy="36.2" r="0.2"/>
						</g>
						<g>
							<circle fill="#F9A908" cx="49.8" cy="27.4" r="0.3"/>
						</g>
						<g>
							<circle fill="#F9A908" cx="49.3" cy="39" r="1.3"/>
						</g>
						<g>
							<circle fill="#F9A908" cx="56.5" cy="39.1" r="0.6"/>
						</g>
						<g>
							<circle fill="#F7910B" cx="9.3" cy="38.5" r="0.5"/>
						</g>
						<g>
							<circle fill="#F7910B" cx="10.1" cy="30.1" r="0.4"/>
						</g>
						<g>
							<circle fill="#F9A908" cx="4.8" cy="16.3" r="1.1"/>
						</g>
						<g>
							<circle fill="#F9A908" cx="8" cy="12.8" r="0.6"/>
						</g>
						<g>
							<circle fill="#F9A908" cx="59.2" cy="18.7" r="0.2"/>
						</g>
						<g>
							<circle fill="#F9A908" cx="58.4" cy="15.8" r="0.8"/>
						</g>
						<g>
							<circle fill="#F9A908" cx="61" cy="16.3" r="0.5"/>
						</g>
						<g>
							<circle fill="#F9A908" cx="6" cy="19.3" r="0.6"/>
						</g>
					</g>
				</g>
			</g>
			<g>
				<g>
					<path fill="#19BCA4" d="M61.8,42.1c0.3-1.3,0.5-2.7,0.5-4.1H1.7c0,1.4,0.2,2.8,0.5,4.1H61.8z"/>
				</g>
				<g>
					<path fill="#079B82" d="M61.8,42.1c0.3-1.3,0.5-2.7,0.5-4.1H1.7"/>
				</g>
				<g>
					<path fill="#C42260" d="M3.8,46.6c0.7,1.3,1.5,2.6,2.4,3.8h51.6c0.9-1.2,1.7-2.4,2.4-3.8H3.8z"/>
				</g>
				<g>
					<path fill="#930244" d="M57.8,50.3c0.9-1.2,1.7-2.4,2.4-3.8H3.8"/>
				</g>
				<g>
					<path fill="#069ACE" d="M10.9,54.8C16.1,58.7,23.3,61,32,61c8.7,0,15.9-2.3,21.1-6.2H10.9z"/>
				</g>
				<g>
					<path fill="#0477B7" d="M32,61c8.7,0,15.9-2.3,21.1-6.2H10.9"/>
				</g>
			</g>
		</g>
	</g>
	<g>
		<g>
			<g>
				<circle fill="#FFFFFF" cx="6" cy="33.3" r="1.4"/>
			</g>
			<g>
				
					<rect x="9.3" y="31.9" transform="matrix(0.7071 0.7071 -0.7071 0.7071 26.6816 2.1601)" fill="#F9F7A0" width="2.9" height="2.9"/>
			</g>
		</g>
		<g>
			<g>
				<circle fill="#FFFFFF" cx="15.4" cy="33.3" r="1.4"/>
			</g>
			<g>
				
					<rect x="18.6" y="31.9" transform="matrix(0.7071 0.7071 -0.7071 0.7071 29.4092 -4.4249)" fill="#F9F7A0" width="2.9" height="2.9"/>
			</g>
		</g>
		<g>
			<g>
				<circle fill="#FFFFFF" cx="24.7" cy="33.3" r="1.4"/>
			</g>
			<g>
				
					<rect x="27.9" y="31.9" transform="matrix(0.7071 0.7071 -0.7071 0.7071 32.1368 -11.0098)" fill="#F9F7A0" width="2.9" height="2.9"/>
			</g>
		</g>
		<g>
			<g>
				<circle fill="#FFFFFF" cx="34" cy="33.3" r="1.4"/>
			</g>
			<g>
				
					<rect x="37.2" y="31.9" transform="matrix(0.7071 0.7071 -0.7071 0.7071 34.8643 -17.5947)" fill="#F9F7A0" width="2.9" height="2.9"/>
			</g>
		</g>
		<g>
			<g>
				<circle fill="#FFFFFF" cx="43.3" cy="33.3" r="1.4"/>
			</g>
			<g>
				
					<rect x="46.5" y="31.9" transform="matrix(0.7071 0.7071 -0.7071 0.7071 37.5919 -24.1797)" fill="#F9F7A0" width="2.9" height="2.9"/>
			</g>
		</g>
		<g>
			<g>
				<circle fill="#FFFFFF" cx="52.6" cy="33.3" r="1.4"/>
			</g>
			<g>
				
					<rect x="55.9" y="31.9" transform="matrix(0.7071 0.7071 -0.7071 0.7071 40.3195 -30.7646)" fill="#F9F7A0" width="2.9" height="2.9"/>
			</g>
		</g>
	</g>
	<g>
		<g>
			<path fill="#F9F7A0" d="M13.3,18.5c0,0.2-0.2,0.3-0.3,0.3h-2c-0.2,0-0.3-0.1-0.3-0.3l0,0c0-0.2,0.1-0.3,0.3-0.3h2
				C13.2,18.2,13.3,18.3,13.3,18.5L13.3,18.5z"/>
		</g>
		<g>
			<path fill="#F9F7A0" d="M18.3,18.5c0,0.2-0.2,0.3-0.3,0.3h-2c-0.2,0-0.3-0.1-0.3-0.3l0,0c0-0.2,0.1-0.3,0.3-0.3h2
				C18.2,18.2,18.3,18.3,18.3,18.5L18.3,18.5z"/>
		</g>
		<g>
			<path fill="#F9F7A0" d="M23.3,18.5c0,0.2-0.2,0.3-0.3,0.3h-2c-0.2,0-0.3-0.1-0.3-0.3l0,0c0-0.2,0.1-0.3,0.3-0.3h2
				C23.2,18.2,23.3,18.3,23.3,18.5L23.3,18.5z"/>
		</g>
		<g>
			<path fill="#F9F7A0" d="M28.3,18.5c0,0.2-0.2,0.3-0.3,0.3h-2c-0.2,0-0.3-0.1-0.3-0.3l0,0c0-0.2,0.1-0.3,0.3-0.3h2
				C28.2,18.2,28.3,18.3,28.3,18.5L28.3,18.5z"/>
		</g>
		<g>
			<path fill="#F9F7A0" d="M33.3,18.5c0,0.2-0.2,0.3-0.3,0.3h-2c-0.2,0-0.3-0.1-0.3-0.3l0,0c0-0.2,0.1-0.3,0.3-0.3h2
				C33.2,18.2,33.3,18.3,33.3,18.5L33.3,18.5z"/>
		</g>
		<g>
			<path fill="#F9F7A0" d="M38.3,18.5c0,0.2-0.2,0.3-0.3,0.3h-2c-0.2,0-0.3-0.1-0.3-0.3l0,0c0-0.2,0.1-0.3,0.3-0.3h2
				C38.2,18.2,38.3,18.3,38.3,18.5L38.3,18.5z"/>
		</g>
		<g>
			<path fill="#F9F7A0" d="M43.3,18.5c0,0.2-0.2,0.3-0.3,0.3h-2c-0.2,0-0.3-0.1-0.3-0.3l0,0c0-0.2,0.1-0.3,0.3-0.3h2
				C43.2,18.2,43.3,18.3,43.3,18.5L43.3,18.5z"/>
		</g>
		<g>
			<path fill="#F9F7A0" d="M48.3,18.5c0,0.2-0.2,0.3-0.3,0.3h-2c-0.2,0-0.3-0.1-0.3-0.3l0,0c0-0.2,0.1-0.3,0.3-0.3h2
				C48.2,18.2,48.3,18.3,48.3,18.5L48.3,18.5z"/>
		</g>
		<g>
			<path fill="#F9F7A0" d="M53.3,18.5c0,0.2-0.2,0.3-0.3,0.3h-2c-0.2,0-0.3-0.1-0.3-0.3l0,0c0-0.2,0.1-0.3,0.3-0.3h2
				C53.2,18.2,53.3,18.3,53.3,18.5L53.3,18.5z"/>
		</g>
	</g>
	<g>
		<g>
			<circle fill="#C42260" cx="13.7" cy="14.9" r="0.8"/>
		</g>
		<g>
			<circle fill="#069ACE" cx="17.8" cy="14.9" r="0.8"/>
		</g>
		<g>
			<circle fill="#C42260" cx="21.8" cy="14.9" r="0.8"/>
		</g>
		<g>
			<circle fill="#069ACE" cx="25.9" cy="14.9" r="0.8"/>
		</g>
		<g>
			<circle fill="#C42260" cx="30" cy="14.9" r="0.8"/>
		</g>
		<g>
			<circle fill="#069ACE" cx="34" cy="14.9" r="0.8"/>
		</g>
		<g>
			<circle fill="#C42260" cx="38.1" cy="14.9" r="0.8"/>
		</g>
		<g>
			<circle fill="#069ACE" cx="42.2" cy="14.9" r="0.8"/>
		</g>
		<g>
			<circle fill="#C42260" cx="46.2" cy="14.9" r="0.8"/>
		</g>
		<g>
			<circle fill="#069ACE" cx="50.3" cy="14.9" r="0.8"/>
		</g>
	</g>
	<g>
		<path fill="#069ACE" d="M48.1,9.1C43.6,5.4,38.2,3,32,3c-6.2,0-11.6,2.4-16.1,6.1H48.1z"/>
	</g>
	<g>
		<path fill="#0477B7" d="M15.9,9.1h32.2C43.6,5.4,38.2,3,32,3"/>
	</g>
</g>
</svg>
