<?xml version="1.0" encoding="utf-8"?>
<!-- Generator: Adobe Illustrator 16.0.0, SVG Export Plug-In . SVG Version: 6.00 Build 0)  -->
<!DOCTYPE svg PUBLIC "-//W3C//DTD SVG 1.1//EN" "http://www.w3.org/Graphics/SVG/1.1/DTD/svg11.dtd">
<svg version="1.1" id="Layer_1" xmlns="http://www.w3.org/2000/svg" xmlns:xlink="http://www.w3.org/1999/xlink" x="0px" y="0px"
	 width="64px" height="64px" viewBox="0 0 64 64" enable-background="new 0 0 64 64" xml:space="preserve">
<g>
	<path fill="#7EC1B7" d="M28.2,7.5c-11,0-20.8,5.1-27.2,13.1V62h55.7c3.9-5,6.3-12.4,6.3-19.8C63,23,47.4,7.5,28.2,7.5z"/>
	<path fill="#69AFA7" d="M1,32v30h55.7c3.9-5,6.3-12.4,6.3-19.8C63,23,47.4,7.5,28.2,7.5"/>
	<path fill="#4D998E" d="M1,32v30h55.7c3.9-5,6.3-12.6,6.3-20"/>
	<path fill="#347A6E" d="M1,62h55.7c3.9-5,6.3-12.5,6.3-19.9"/>
	<polygon fill="#FFC127" points="51.6,1.9 54.7,8.1 61.5,9.1 56.6,13.9 57.8,20.8 51.6,17.5 45.5,20.8 46.6,13.9 41.7,9.1 48.5,8.1 
			"/>
	<polygon fill="#D38405" points="51.6,1.9 54.7,8.1 61.5,9.1 56.6,13.9 57.8,20.8 51.6,17.5 45.5,20.8 48.2,15.4 41.7,9.1 49.9,9.5 
			"/>
	<g>
		<g>
			<path fill="#FFC127" d="M4.9,54.1c-0.3,0-0.5-0.2-0.5-0.5c0-21.9,17.8-39.7,39.7-39.7c0.3,0,0.5,0.2,0.5,0.5
				c0,0.3-0.2,0.5-0.5,0.5c-21.4,0-38.7,17.4-38.7,38.7C5.4,53.9,5.2,54.1,4.9,54.1z"/>
		</g>
		<g>
			<path fill="#FFC127" d="M13.9,61c-0.2,0-0.4-0.2-0.5-0.4c-2.1-10.4,0-21,5.9-29.8C25.2,22,34.1,16,44.5,13.9
				c0.3-0.1,0.5,0.1,0.6,0.4c0.1,0.3-0.1,0.5-0.4,0.6c-10.1,2-18.9,7.9-24.6,16.5c-5.7,8.6-7.8,18.9-5.8,29.1
				C14.4,60.7,14.2,60.9,13.9,61C13.9,61,13.9,61,13.9,61z"/>
		</g>
		<g>
			<path fill="#FFC127" d="M25.2,60.1c-0.2,0-0.4-0.1-0.5-0.3c-7.2-18.1,1.6-38.7,19.7-45.9c0.2-0.1,0.5,0,0.6,0.3
				c0.1,0.2,0,0.5-0.3,0.6c-17.6,7-26.2,27.1-19.2,44.6c0.1,0.2,0,0.5-0.3,0.6C25.4,60.1,25.3,60.1,25.2,60.1z"/>
		</g>
	</g>
	<polygon fill="#7D57A0" points="63,62 63,45.1 60.5,47.4 49.8,36.7 24.4,62 	"/>
	<polygon fill="#6A4187" points="63,62 63,45.1 60.5,47.4 49.8,36.7 31.5,62 	"/>
	<polygon fill="#D3EAE8" points="49.2,44 51.1,45.9 53,44 54.9,45.9 56.9,44 49.8,36.7 42,44.5 43.5,45.9 45.4,44 47.3,45.9 	"/>
	<polyline fill="#B6D3D1" points="43.5,45.9 45.4,44 47.3,45.9 49.2,44 51.1,45.9 53,44 54.9,45.9 57,43.9 49.8,36.7 	"/>
	<circle fill="#AFE0D9" cx="37.4" cy="30.6" r="0.7"/>
	<circle fill="#AFE0D9" cx="35.7" cy="35.6" r="0.3"/>
	<circle fill="#AFE0D9" cx="45.8" cy="27.3" r="2"/>
	<circle fill="#AFE0D9" cx="43.5" cy="36.6" r="0.5"/>
	<circle fill="#AFE0D9" cx="35.8" cy="42.6" r="0.5"/>
	<circle fill="#AFE0D9" cx="30.2" cy="35.8" r="0.2"/>
	<circle fill="#AFE0D9" cx="11.3" cy="21.5" r="0.9"/>
	<circle fill="#AFE0D9" cx="7.8" cy="28.7" r="0.5"/>
	<ellipse fill="#AFE0D9" cx="23.9" cy="12.6" rx="0.2" ry="0"/>
	<circle fill="#AFE0D9" cx="28.7" cy="47.6" r="0.8"/>
	<circle fill="#AFE0D9" cx="30.3" cy="43.6" r="0.3"/>
	<circle fill="#AFE0D9" cx="32.3" cy="30.1" r="0.9"/>
	<circle fill="#AFE0D9" cx="11.8" cy="25.4" r="0.7"/>
	<circle fill="#AFE0D9" cx="5.2" cy="21.9" r="0.2"/>
	<circle fill="#AFE0D9" cx="14.5" cy="19.8" r="0.3"/>
	<circle fill="#AFE0D9" cx="40.1" cy="24.9" r="0.7"/>
	<circle fill="#AFE0D9" cx="53.1" cy="34.8" r="1.3"/>
	<circle fill="#AFE0D9" cx="58.9" cy="39.1" r="0.2"/>
	<circle fill="#AFE0D9" cx="20.1" cy="15.8" r="1.1"/>
</g>
</svg>
