<?xml version="1.0" encoding="utf-8"?>
<!-- Generator: Adobe Illustrator 16.0.0, SVG Export Plug-In . SVG Version: 6.00 Build 0)  -->
<!DOCTYPE svg PUBLIC "-//W3C//DTD SVG 1.1//EN" "http://www.w3.org/Graphics/SVG/1.1/DTD/svg11.dtd">
<svg version="1.1" id="Layer_1" xmlns="http://www.w3.org/2000/svg" xmlns:xlink="http://www.w3.org/1999/xlink" x="0px" y="0px"
	 width="65px" height="65px" viewBox="0 0 65 65" enable-background="new 0 0 65 65" xml:space="preserve">
<g>
	<g>
		<g>
			<g>
				<g>
					<g>
						<path fill="#63522F" d="M31.833,26.369c1.273,1.432,0.465,4.227-1.805,6.248c-2.27,2.018-14.475,10.795-15.75,9.365
							c-1.271-1.434,8.873-12.531,11.143-14.549C27.688,25.414,30.56,24.938,31.833,26.369z"/>
						<path fill="#63522F" d="M34.622,26.369c-1.273,1.432-0.465,4.227,1.805,6.248c2.27,2.018,14.475,10.795,15.75,9.365
							c1.271-1.434-8.873-12.531-11.143-14.549C38.767,25.414,35.896,24.938,34.622,26.369z"/>
					</g>
					<g>
						<path fill="#5B2F11" d="M30.2,46.445c0,2.477-2.008,15.828-4.486,15.828c-2.475,0-4.482-13.352-4.482-15.828
							c0-2.475,2.008-4.484,4.482-4.484C28.192,41.961,30.2,43.971,30.2,46.445z"/>
						<path fill="#5B2F11" d="M45.226,46.445c0,2.477-2.008,15.828-4.486,15.828c-2.475,0-4.482-13.352-4.482-15.828
							c0-2.475,2.008-4.484,4.482-4.484C43.218,41.961,45.226,43.971,45.226,46.445z"/>
					</g>
					<path fill="#68552E" d="M45.878,40.521c0,16.037-5.662,10.697-12.65,10.697c-6.986,0-12.65,5.34-12.65-10.697
						c0-9.17,5.666-16.604,12.65-16.604C40.214,23.918,45.878,31.352,45.878,40.521z"/>
					<path fill="#776439" d="M33.228,23.918c-6.764,0-12.274,6.977-12.617,15.744c0.447,13.695,5.924,8.807,12.617,8.807
						c6.695,0,12.17,4.889,12.617-8.807C45.502,30.895,39.993,23.918,33.228,23.918z"/>
					<g>
						<path fill="#775437" d="M30.761,62.354c0,1.896-2.26,2.146-5.045,2.146s-5.045-0.25-5.045-2.146s2.26-4.508,5.045-4.508
							S30.761,60.457,30.761,62.354z"/>
						<path fill="#604129" d="M30.761,62.354c0,1.896-2.26,2.146-5.045,2.146s-5.045-0.25-5.045-2.146"/>
					</g>
					<g>
						<path fill="#775437" d="M45.786,62.354c0,1.896-2.26,2.146-5.045,2.146s-5.045-0.25-5.045-2.146s2.26-4.508,5.045-4.508
							S45.786,60.457,45.786,62.354z"/>
						<path fill="#604129" d="M45.786,62.354c0,1.896-2.26,2.146-5.045,2.146s-5.045-0.25-5.045-2.146"/>
					</g>
					<rect x="30.603" y="25.832" fill="#0C87E2" width="5.25" height="22.625"/>
					<path fill="#0C61C6" d="M30.603,30.164c0.857,0.08,1.73,0.131,2.627,0.131c0.895,0,1.768-0.051,2.623-0.131v-4.332h-5.25
						V30.164z"/>
					<g>
						<path fill="#232728" d="M49.599,16.275c0,7.998-7.33,12.02-16.369,12.02c-9.041,0-16.373-4.021-16.373-12.02
							c0-8.002,7.332-15.775,16.373-15.775C42.269,0.5,49.599,8.273,49.599,16.275z"/>
						<path fill="#E4EDEF" d="M47.599,16.275c0,7.996-7.997,12.02-14.369,12.02c-9.041,0-14.373-4.021-14.373-12.02
							c0-8.002,5.332-3.443,14.373-3.443C42.269,12.832,47.599,8.273,47.599,16.275z"/>
						<path fill="#C3D4D8" d="M47.599,16.275c0,7.998-5.33,12.02-14.369,12.02c-9.041,0-14.373-4.021-14.373-12.02"/>
					</g>
					<g>
						<g>
							<circle fill="#113E49" cx="25.443" cy="17.82" r="1.464"/>
							<path d="M26.907,17.82c0,0.811-0.656,1.465-1.465,1.465s-1.463-0.654-1.463-1.465"/>
							<g>
								<path fill="#E4EDEF" d="M28.331,20.873c-0.078,0-0.158-0.027-0.219-0.09c-0.715-0.715-1.664-1.107-2.672-1.107h-0.002
									c-1.008,0-1.955,0.393-2.666,1.105c-0.121,0.121-0.316,0.125-0.436,0.002c-0.121-0.117-0.125-0.312-0.004-0.434
									c0.83-0.832,1.932-1.291,3.105-1.291h0.002c1.176,0,2.279,0.457,3.111,1.289c0.119,0.119,0.119,0.318,0,0.436
									C28.491,20.846,28.413,20.873,28.331,20.873z"/>
							</g>
						</g>
						<g>
							<circle fill="#113E49" cx="41.014" cy="17.82" r="1.464"/>
							<path d="M39.55,17.82c0,0.811,0.654,1.465,1.465,1.465c0.809,0,1.463-0.654,1.463-1.465"/>
							<g>
								<path fill="#E4EDEF" d="M38.126,20.873c0.076,0,0.156-0.027,0.217-0.09c0.715-0.715,1.664-1.107,2.672-1.107h0.002
									c1.008,0,1.957,0.393,2.668,1.105c0.119,0.121,0.314,0.125,0.436,0.002c0.121-0.117,0.123-0.312,0.002-0.434
									c-0.826-0.832-1.932-1.291-3.105-1.291h-0.002c-1.174,0-2.277,0.457-3.111,1.289c-0.117,0.119-0.117,0.318,0,0.436
									C37.966,20.846,38.044,20.873,38.126,20.873z"/>
							</g>
						</g>
					</g>
				</g>
			</g>
		</g>
	</g>
	<g>
		<g>
			<path fill="#68898C" d="M30.163,21.418c0,0.311-0.25,0.561-0.561,0.561c-0.312,0-0.562-0.25-0.562-0.561
				c0-0.312,0.251-0.562,0.562-0.562C29.913,20.855,30.163,21.105,30.163,21.418z"/>
			<path fill="#68898C" d="M30.163,23.918c0,0.311-0.25,0.561-0.561,0.561c-0.312,0-0.562-0.25-0.562-0.561
				c0-0.312,0.251-0.562,0.562-0.562C29.913,23.355,30.163,23.605,30.163,23.918z"/>
		</g>
		<g>
			<path fill="#68898C" d="M32.581,18.918c0,0.311-0.25,0.561-0.562,0.561s-0.562-0.25-0.562-0.561c0-0.312,0.251-0.562,0.562-0.562
				S32.581,18.605,32.581,18.918z"/>
			<path fill="#68898C" d="M32.581,21.418c0,0.311-0.25,0.561-0.562,0.561s-0.562-0.25-0.562-0.561c0-0.312,0.251-0.562,0.562-0.562
				S32.581,21.105,32.581,21.418z"/>
			<path fill="#68898C" d="M32.581,23.918c0,0.311-0.25,0.561-0.562,0.561s-0.562-0.25-0.562-0.561c0-0.312,0.251-0.562,0.562-0.562
				S32.581,23.605,32.581,23.918z"/>
			<path fill="#68898C" d="M32.581,26.418c0,0.311-0.25,0.561-0.562,0.561s-0.562-0.25-0.562-0.561c0-0.312,0.251-0.562,0.562-0.562
				S32.581,26.105,32.581,26.418z"/>
		</g>
		<g>
			<path fill="#68898C" d="M34.997,18.918c0,0.311-0.25,0.561-0.561,0.561c-0.312,0-0.562-0.25-0.562-0.561
				c0-0.312,0.251-0.562,0.562-0.562C34.747,18.355,34.997,18.605,34.997,18.918z"/>
			<path fill="#68898C" d="M34.997,21.418c0,0.311-0.25,0.561-0.561,0.561c-0.312,0-0.562-0.25-0.562-0.561
				c0-0.312,0.251-0.562,0.562-0.562C34.747,20.855,34.997,21.105,34.997,21.418z"/>
			<path fill="#68898C" d="M34.997,23.918c0,0.311-0.25,0.561-0.561,0.561c-0.312,0-0.562-0.25-0.562-0.561
				c0-0.312,0.251-0.562,0.562-0.562C34.747,23.355,34.997,23.605,34.997,23.918z"/>
			<path fill="#68898C" d="M34.997,26.418c0,0.311-0.25,0.561-0.561,0.561c-0.312,0-0.562-0.25-0.562-0.561
				c0-0.312,0.251-0.562,0.562-0.562C34.747,25.855,34.997,26.105,34.997,26.418z"/>
		</g>
		<g>
			<path fill="#68898C" d="M37.415,21.418c0,0.311-0.25,0.561-0.562,0.561s-0.562-0.25-0.562-0.561c0-0.312,0.251-0.562,0.562-0.562
				S37.415,21.105,37.415,21.418z"/>
			<path fill="#68898C" d="M37.415,23.918c0,0.311-0.25,0.561-0.562,0.561s-0.562-0.25-0.562-0.561c0-0.312,0.251-0.562,0.562-0.562
				S37.415,23.605,37.415,23.918z"/>
		</g>
	</g>
	<path fill="#CE1111" d="M38.103,13.52c0,0.932-2.182,1.688-4.875,1.688c-2.692,0-4.875-0.756-4.875-1.688s2.361,0.049,5.055,0.049
		C36.1,13.568,38.103,12.588,38.103,13.52z"/>
	<g>
		<path fill="#232728" d="M14.078,36.457c0.753,0,1.364,0.611,1.364,1.365v6.143c0,0.752-0.611,1.363-1.364,1.363l0,0
			c-0.755,0-1.364-0.611-1.364-1.363v-6.143C12.714,37.068,13.323,36.457,14.078,36.457L14.078,36.457z"/>
		<path fill="#A1B5B4" d="M12.714,62.223c0.232,0.061,0.47,0.104,0.713,0.104c2.758,0,4.994-4.055,4.994-9.059
			c0-5-2.236-9.057-4.994-9.057c-0.243,0-0.48,0.043-0.713,0.104V62.223z"/>
		<path fill="#859E9D" d="M16.62,53.268c0-4.324-1.672-7.936-3.906-8.836v17.674C14.948,61.205,16.62,57.594,16.62,53.268z"/>
	</g>
</g>
</svg>
