<?xml version="1.0" encoding="utf-8"?>
<!-- Generator: Adobe Illustrator 16.0.0, SVG Export Plug-In . SVG Version: 6.00 Build 0)  -->
<!DOCTYPE svg PUBLIC "-//W3C//DTD SVG 1.1//EN" "http://www.w3.org/Graphics/SVG/1.1/DTD/svg11.dtd">
<svg version="1.1" id="Layer_1" xmlns="http://www.w3.org/2000/svg" xmlns:xlink="http://www.w3.org/1999/xlink" x="0px" y="0px"
	 width="64px" height="64px" viewBox="0 0 64 64" enable-background="new 0 0 64 64" xml:space="preserve">
<g>
	<g>
		<g>
			<path fill="#F7910B" d="M62.3,39.9c0,13-11.9,23.5-30.3,23.5c-18.4,0-30.3-10.5-30.3-23.5S13.6,7.4,32,7.4
				C50.4,7.4,62.3,26.9,62.3,39.9z"/>
		</g>
		<g>
			<path fill="#F7910B" d="M62.3,39.9c0,13-11.9,19.5-30.3,19.5c-18.4,0-30.3-6.5-30.3-19.5S13.6,5.4,32,5.4
				C50.4,5.4,62.3,26.9,62.3,39.9z"/>
		</g>
		<g>
			<path fill="#F9A908" d="M32,5.4c18.4,0,30.3,21.5,30.3,34.5S50.4,59.4,32,59.4"/>
		</g>
		<g>
			<path fill="#F9A908" d="M62.3,39.9c0,13-11.9,19.5-30.3,19.5c-18.4,0-30.3-6.5-30.3-19.5S13.6,7.4,32,7.4
				C50.4,7.4,62.3,26.9,62.3,39.9z"/>
		</g>
		<g>
			<path fill="#F9C55D" d="M1.7,39.9c0-13,11.9-32.5,30.3-32.5"/>
		</g>
		<g>
			<path fill="#F7910B" d="M32,7.4c18.4,0,30.3,19.5,30.3,32.5S50.4,63.4,32,63.4"/>
		</g>
		<g>
			<path fill="#EA7103" d="M32,7.4c18.4,0,30.3,19.5,30.3,32.5"/>
		</g>
		<g>
			<g>
				<path fill="#19BCA4" d="M29.8,16.9c-1.8,0.1-3.2,0.8-3.2,1.7l6.5-0.3C33.1,17.5,31.6,16.8,29.8,16.9z"/>
			</g>
			<g>
				<path fill="#19BCA4" d="M49.1,16.9c-1.8-0.1-3.3,0.6-3.3,1.4l6.5,0.3C52.3,17.7,50.9,17,49.1,16.9z"/>
			</g>
			<g>
				<path fill="#109DA0" d="M29.8,18.9c1.8-0.1,3.3,0.3,3.3-0.6l-6.5,0.3C26.6,19.5,28,19,29.8,18.9z"/>
			</g>
			<g>
				<path fill="#109DA0" d="M49,18.9c1.8,0.1,3.3,0.6,3.3-0.3l-6.5-0.3C45.7,19.2,47.2,18.8,49,18.9z"/>
			</g>
			<g>
				<path fill="#F9C55D" d="M27.4,40.6c-4.3,0-7.8,1-7.8,2.2c0,1.2,3.5,0.7,7.8,0.7s7.8,0.6,7.8-0.7C35.2,41.6,31.8,40.6,27.4,40.6z
					"/>
			</g>
			<g>
				<path fill="#F9A908" d="M51.4,40.6c-4.3,0-7.8,1-7.8,2.2c0,1.2,3.5,0.7,7.8,0.7c4.3,0,7.8,0.6,7.8-0.7
					C59.2,41.6,55.7,40.6,51.4,40.6z"/>
			</g>
		</g>
		<g>
			<g>
				<g>
					<g>
						<g>
							<g>
								<path fill="#1E4784" d="M26.6,36c0.4,0.1,0.8,0.3,1.1,0.6c1.2,1.6,3.5,1.9,5.1,0.6c0.7-0.6,1.8-0.4,2.3,0.3
									c0.6,0.7,0.4,1.8-0.3,2.3c-3,2.3-7.4,1.8-9.7-1.2c-0.6-0.7-0.4-1.8,0.3-2.3C25.7,36.1,26.2,36,26.6,36z"/>
							</g>
						</g>
						<g>
							<g>
								<path fill="#02243E" d="M25.1,38.7c-0.6-0.7-0.4-1.8,0.3-2.3c0.4-0.3,0.8-0.4,1.2-0.3c0.4,0.1,0.8,0.3,1.1,0.6
									c1.2,1.6,3.5,1.9,5.1,0.6c0.7-0.6,1.8-0.4,2.3,0.3c0.6,0.7,0.4,1.8-0.3,2.3"/>
							</g>
						</g>
					</g>
				</g>
			</g>
			<g>
				<g>
					<g>
						<g>
							<g>
								<path fill="#1E4784" d="M52.2,36c-0.4,0.1-0.8,0.3-1.1,0.6c-1.2,1.6-3.5,1.9-5.1,0.6c-0.7-0.6-1.8-0.4-2.3,0.3
									c-0.6,0.7-0.4,1.8,0.3,2.3c3,2.3,7.4,1.8,9.7-1.2c0.6-0.7,0.4-1.8-0.3-2.3C53.1,36.1,52.7,36,52.2,36z"/>
							</g>
						</g>
						<g>
							<g>
								<path fill="#02243E" d="M53.8,38.7c0.6-0.7,0.4-1.8-0.3-2.3c-0.4-0.3-0.8-0.4-1.2-0.3c-0.4,0.1-0.8,0.3-1.1,0.6
									c-1.2,1.6-3.5,1.9-5.1,0.6c-0.7-0.6-1.8-0.4-2.3,0.3c-0.6,0.7-0.4,1.8,0.3,2.3"/>
							</g>
						</g>
					</g>
				</g>
			</g>
		</g>
		<g>
			<g>
				<path fill="#F7910B" d="M46.3,52.5c0,3.7-4.7,6.7-10.6,6.7c-5.8,0-10.6-3-10.6-6.7"/>
			</g>
			<g>
				<path fill="#02243E" d="M30.8,54.8c-4.3,0-7.8-3.5-7.8-7.9c0-0.6,0.5-1.1,1.1-1.1s1.1,0.5,1.1,1.1c0,3.1,2.5,5.6,5.7,5.6
					c0.6,0,1.1,0.5,1.1,1.1S31.4,54.8,30.8,54.8z"/>
			</g>
		</g>
		<g>
			<circle fill="#F7910B" cx="10.3" cy="36.8" r="0.6"/>
		</g>
		<g>
			<circle fill="#F7910B" cx="5.8" cy="38.8" r="1.1"/>
		</g>
		<g>
			<circle fill="#F7910B" cx="8.8" cy="34.8" r="0.2"/>
		</g>
		<g>
			<circle fill="#F7910B" cx="13.4" cy="36.6" r="0.2"/>
		</g>
		<g>
			<circle fill="#F9A908" cx="58.6" cy="39.7" r="0.8"/>
		</g>
		<g>
			<circle fill="#F9A908" cx="55.1" cy="38.6" r="0.2"/>
		</g>
		<g>
			<circle fill="#F9A908" cx="59.2" cy="45.6" r="0.3"/>
		</g>
		<g>
			<circle fill="#F9A908" cx="55.4" cy="49.4" r="1.3"/>
		</g>
		<g>
			<circle fill="#F9A908" cx="56.5" cy="41.5" r="0.6"/>
		</g>
		<g>
			<circle fill="#F7910B" cx="9.3" cy="40.9" r="0.5"/>
		</g>
		<g>
			<circle fill="#F7910B" cx="10.1" cy="32.5" r="0.4"/>
		</g>
		<g>
			<circle fill="#F9A908" cx="4.8" cy="18.7" r="1.1"/>
		</g>
		<g>
			<circle fill="#F9A908" cx="8" cy="15.1" r="0.6"/>
		</g>
		<g>
			<circle fill="#F9A908" cx="59.2" cy="21.1" r="0.2"/>
		</g>
		<g>
			<circle fill="#F9A908" cx="58.4" cy="18.1" r="0.8"/>
		</g>
		<g>
			<circle fill="#F9A908" cx="61" cy="18.7" r="0.5"/>
		</g>
		<g>
			<circle fill="#F9A908" cx="6" cy="21.6" r="0.6"/>
		</g>
	</g>
	<g>
		<g>
			<circle fill="#FFFBE1" cx="16.2" cy="15.1" r="14.5"/>
		</g>
		<g>
			<path fill="#EDE5BE" d="M16.2,0.6c8,0,14.5,6.5,14.5,14.5c0,8-6.5,14.5-14.5,14.5"/>
		</g>
		<g>
			<polygon fill="#EDE5BE" points="30.7,30.9 18,25.5 18,18 25.2,18 			"/>
		</g>
		<g>
			<g>
				<path fill="#EFD27F" d="M16.2,3.7C9.9,3.7,4.8,8.8,4.8,15.1c0,6.3,5.1,11.5,11.5,11.5c6.3,0,11.5-5.1,11.5-11.5
					C27.7,8.8,22.6,3.7,16.2,3.7z M16.2,19.2c-2.2,0-4-1.8-4-4c0-2.2,1.8-4,4-4s4,1.8,4,4C20.3,17.4,18.5,19.2,16.2,19.2z"/>
			</g>
			<g>
				<path fill="#E2A050" d="M16.2,4.4c-5.9,0-10.7,4.8-10.7,10.7s4.8,10.7,10.7,10.7c5.9,0,10.7-4.8,10.7-10.7S22.2,4.4,16.2,4.4z
					 M16.2,18.9c-2.1,0-3.8-1.7-3.8-3.8s1.7-3.8,3.8-3.8c2.1,0,3.8,1.7,3.8,3.8S18.3,18.9,16.2,18.9z"/>
			</g>
			<g>
				<g>
					<path fill="#D38939" d="M23.8,7.5l-4.9,4.9c0,0,0,0,0,0c1.4,1.5,1.4,3.8,0,5.3c-1.5,1.5-3.9,1.5-5.4,0l-4.9,4.9
						c4.2,4.2,11,4.2,15.2,0S28,11.7,23.8,7.5z"/>
				</g>
				<g>
					<polygon fill="#D38939" points="13.6,17.8 13.6,17.8 13.6,17.8 					"/>
				</g>
			</g>
			<g>
				<path fill="#EFD27F" d="M11.2,5.7c0.4,0.4-0.2,1.6-1.4,2.8C8.6,9.7,7.3,10.4,6.9,10s0.2-1.7,1.4-2.8C9.5,6,10.8,5.3,11.2,5.7z"
					/>
			</g>
			<g>
				
					<ellipse transform="matrix(0.7024 -0.7118 0.7118 0.7024 -2.7505 8.5622)" fill="#FFEFC7" cx="8.9" cy="7.6" rx="2.3" ry="0.5"/>
			</g>
			<g>
				<g>
					<path fill="#F2498A" d="M24.9,18.2c0.1-0.1,0.2-0.2,0.3-0.2c0.8-0.5,1.3-1.3,1.3-2.3c0-0.3-0.1-0.7-0.2-1
						c-0.2-1.2-0.9-2.2-1.9-2.8c0-0.1-0.1-0.2-0.1-0.2c0-0.2,0-0.3,0-0.5c0-1.7-1.1-3.1-2.6-3.6c-0.7-1.1-1.8-1.8-3.2-1.8
						c-0.5,0-1,0.1-1.4,0.3C16.3,5.5,15.4,5,14.4,5c-1.7,0-3.1,1.1-3.6,2.6C9.5,7.9,8.4,8.9,8,10.2c-1.1,0.6-1.9,1.9-1.9,3.3
						c0,0.9,0.3,1.6,0.8,2.3c0,0.2-0.1,0.4-0.1,0.6c0,0.8,0.2,1.5,0.6,2.1c-0.1,0.2-0.1,0.5-0.1,0.7c0,1.1,0.6,2.1,1.5,2.6
						c0.6,1.3,1.9,2.1,3.4,2.1c0.1,0,0.1,0,0.2,0c0.5,0.4,1.1,0.7,1.8,0.7c0.1,0,0.2,0,0.4,0c0.6,0.4,1.3,0.6,2,0.6
						c0.9,0,1.8-0.3,2.4-0.9c0,0,0.1,0,0.1,0c1.7,0,3.2-1.2,3.6-2.8c1.3-0.2,2.2-1.3,2.2-2.7C25,18.6,24.9,18.4,24.9,18.2z
						 M16.2,19.2c-2.2,0-4-1.8-4-4c0-2.2,1.8-4,4-4s4,1.8,4,4C20.3,17.4,18.5,19.2,16.2,19.2z"/>
				</g>
			</g>
			<g>
				<g>
					<path fill="#D61E69" d="M15.5,23.3c0.1,0.1,0.2,0.1,0.3,0.2c0.6,0.6,1.4,0.8,2.3,0.6c0.3-0.1,0.6-0.2,0.8-0.4
						c1-0.4,1.8-1.3,2-2.3c0.1,0,0.1-0.1,0.2-0.1c0.2,0,0.3,0,0.5-0.1c1.5-0.3,2.5-1.6,2.6-3c0.8-0.8,1.2-2,0.9-3.2
						c-0.1-0.4-0.3-0.8-0.5-1.2c0.4-0.7,0.6-1.6,0.4-2.5c-0.3-1.5-1.6-2.5-3-2.6C21.3,7.7,20.2,7,19,6.9c-0.8-0.9-2-1.3-3.3-1
						c-0.8,0.2-1.4,0.6-1.8,1.1c-0.2,0-0.4,0-0.6,0.1c-0.7,0.2-1.2,0.5-1.7,1c-0.2,0-0.4,0-0.7,0.1c-1,0.2-1.7,1-2,1.9
						c-1,0.8-1.5,2.1-1.2,3.4c0,0.1,0,0.1,0,0.2c-0.3,0.5-0.4,1.1-0.2,1.7c0,0.1,0.1,0.2,0.1,0.3c-0.2,0.6-0.2,1.2-0.1,1.9
						C7.9,18.3,8.3,19,9,19.5c0,0,0,0.1,0,0.1c0.4,1.5,1.7,2.6,3.2,2.6c0.5,1.1,1.6,1.7,2.8,1.4C15.2,23.5,15.4,23.4,15.5,23.3z
						 M12.9,16c-0.5-2,0.7-3.9,2.7-4.4c2-0.5,3.9,0.7,4.4,2.7c0.5,2-0.7,3.9-2.7,4.4C15.3,19.2,13.4,17.9,12.9,16z"/>
				</g>
			</g>
			<g>
				
					<ellipse transform="matrix(0.7827 -0.6224 0.6224 0.7827 -1.1189 9.278)" fill="#FFA1C7" cx="12.7" cy="6.2" rx="1.2" ry="0.4"/>
			</g>
			<g>
				<ellipse transform="matrix(0.4038 -0.9148 0.9148 0.4038 -7.1599 13.8089)" fill="#FFA1C7" cx="7" cy="12.4" rx="1" ry="0.3"/>
			</g>
			<g>
				<path fill="#FFA1C7" d="M7.9,19c0.1,0,0.3,0.3,0.4,0.6c0.1,0.4,0.1,0.7-0.1,0.8c-0.1,0-0.3-0.3-0.4-0.6
					C7.7,19.4,7.8,19.1,7.9,19z"/>
			</g>
			<g>
				
					<ellipse transform="matrix(-0.7807 -0.6249 0.6249 -0.7807 4.369 46.6836)" fill="#FFA1C7" cx="10.4" cy="22.6" rx="1.1" ry="0.4"/>
			</g>
			<g>
				
					<ellipse transform="matrix(-0.3318 -0.9434 0.9434 -0.3318 -4.4255 25.7959)" fill="#FFA1C7" cx="6.9" cy="14.5" rx="0.6" ry="0.2"/>
			</g>
			<g>
				<path fill="#FFEFC7" d="M13,9.6c0,0.4-0.3,0.4-0.5,0.4l0,0C12.3,10,12,9.8,12,9.6V8.4C12,8.2,12.3,8,12.5,8l0,0
					C12.7,8,13,8.2,13,8.4V9.6z"/>
			</g>
			<g>
				<path fill="#A0D128" d="M16.2,9.5c0.2,0.1,0.2,0.3,0.1,0.5l0,0c-0.1,0.1-0.3,0.2-0.5,0.1l-1.4-1c-0.1-0.1-0.2-0.3-0.1-0.5l0,0
					c0.1-0.1,0.3-0.2,0.5-0.1L16.2,9.5z"/>
			</g>
			<g>
				<path fill="#A0D128" d="M11.2,16.1c0.2,0,0.3,0.2,0.3,0.4l0,0c0,0.2-0.2,0.3-0.4,0.3l-1.7-0.2c-0.2,0-0.3-0.2-0.3-0.4l0,0
					c0-0.2,0.2-0.3,0.4-0.3L11.2,16.1z"/>
			</g>
			<g>
				<path fill="#A0D128" d="M16.2,21.2c0.2,0,0.3,0.1,0.4,0.3l0,0c0,0.2-0.1,0.3-0.3,0.4L14.5,22c-0.2,0-0.3-0.1-0.4-0.3l0,0
					c0-0.2,0.1-0.3,0.3-0.4L16.2,21.2z"/>
			</g>
			<g>
				<path fill="#FFEFC7" d="M12,20c-0.2,0.1-0.4,0-0.4-0.2l0,0c-0.1-0.2,0-0.4,0.2-0.4l1.6-0.6c0.2-0.1,0.4,0,0.4,0.2l0,0
					c0.1,0.2,0,0.4-0.2,0.4L12,20z"/>
			</g>
			<g>
				<path fill="#FFEFC7" d="M19.4,10.5c-0.2-0.1-0.2-0.3-0.1-0.4l0,0c0.1-0.2,0.3-0.2,0.4-0.1l1.5,0.8c0.2,0.1,0.2,0.3,0.1,0.4l0,0
					c-0.1,0.2-0.3,0.2-0.4,0.1L19.4,10.5z"/>
			</g>
			<g>
				<path fill="#FFEFC7" d="M10,13.9c-0.1,0.1-0.3,0-0.4-0.1l0,0c-0.1-0.2-0.1-0.3,0.1-0.4l1.2-0.7c0.1-0.1,0.3,0,0.4,0.1l0,0
					c0.1,0.2,0.1,0.3-0.1,0.4L10,13.9z"/>
			</g>
			<g>
				<path fill="#91EDEA" d="M18.4,9.1c0,0.1-0.1,0.3-0.3,0.3l0,0c-0.2,0-0.3-0.1-0.3-0.3l0-1.4c0-0.1,0.1-0.3,0.3-0.3l0,0
					c0.2,0,0.3,0.1,0.3,0.3L18.4,9.1z"/>
			</g>
			<g>
				<path fill="#91EDEA" d="M11,19.1c0,0.1-0.1,0.3-0.3,0.3l0,0c-0.2,0-0.3-0.1-0.3-0.3v-1.4c0-0.1,0.1-0.3,0.3-0.3l0,0
					c0.2,0,0.3,0.1,0.3,0.3L11,19.1z"/>
			</g>
			<g>
				<path fill="#91EDEA" d="M22.3,16c-0.1,0.1-0.3,0-0.4-0.1l0,0c-0.1-0.1-0.1-0.3,0-0.4l1.1-0.8c0.1-0.1,0.3,0,0.4,0.1l0,0
					c0.1,0.1,0.1,0.3,0,0.4L22.3,16z"/>
			</g>
			<g>
				<path fill="#91EDEA" d="M11.3,10.5c0.1,0.1,0.1,0.3,0,0.4l0,0c-0.1,0.1-0.3,0.2-0.4,0.1l-1.1-0.8c-0.1-0.1-0.1-0.3,0-0.4l0,0
					c0.1-0.1,0.3-0.2,0.4-0.1L11.3,10.5z"/>
			</g>
			<g>
				<path fill="#91EDEA" d="M19,19.3c-0.1,0-0.3-0.2-0.3-0.3l0,0c0-0.2,0.1-0.3,0.3-0.3l1.4,0c0.1,0,0.3,0.2,0.3,0.3l0,0
					c0,0.2-0.1,0.3-0.3,0.3L19,19.3z"/>
			</g>
			<g>
				<path fill="#A0D128" d="M21.4,13.7c-0.1,0-0.3-0.2-0.3-0.3l0,0c0-0.2,0.1-0.3,0.3-0.3l1.4,0c0.1,0,0.3,0.2,0.3,0.3l0,0
					c0,0.2-0.1,0.3-0.3,0.3L21.4,13.7z"/>
			</g>
			<g>
				<path fill="#FFEFC7" d="M21.1,17.8c-0.1-0.1-0.1-0.3,0-0.4l0,0c0.1-0.1,0.3-0.2,0.4-0.1l1.1,0.8c0.1,0.1,0.1,0.3,0,0.4l0,0
					c-0.1,0.2-0.3,0.2-0.4,0.1L21.1,17.8z"/>
			</g>
			<g>
				<path fill="#FFEFC7" d="M17.9,20.4c-0.1-0.1,0-0.3,0.1-0.4l0,0c0.2-0.1,0.3-0.1,0.4,0.1l0.7,1.2c0.1,0.1,0,0.3-0.2,0.4l0,0
					c-0.2,0.1-0.3,0.1-0.4-0.1L17.9,20.4z"/>
			</g>
			<g>
				<path fill="#99004D" d="M12.9,16c-0.5-2,0.7-3.9,2.7-4.4c2-0.5,3.9,0.7,4.4,2.7c0,0.1,0,0.1,0,0.2c0-0.3,0-0.5-0.1-0.8
					c-0.6-2.3-2.9-3.8-5.2-3.2c-2.3,0.6-3.8,2.9-3.2,5.2c0.6,2.3,2.9,3.8,5.2,3.2c0.2,0,0.3-0.1,0.5-0.2
					C15.3,19.1,13.3,17.9,12.9,16z"/>
			</g>
			<g>
				<circle fill="#EFD27F" cx="9.5" cy="11.6" r="0.3"/>
			</g>
			<g>
				<circle fill="#EFD27F" cx="21" cy="14.9" r="0.3"/>
			</g>
			<g>
				<path fill="#FFCE00" d="M9.1,14.9c0,0.2-0.1,0.3-0.3,0.3c-0.2,0-0.3-0.1-0.3-0.3c0-0.2,0.1-0.3,0.3-0.3
					C8.9,14.6,9.1,14.7,9.1,14.9z"/>
			</g>
			<g>
				<circle fill="#FFCE00" cx="22.2" cy="19.6" r="0.3"/>
			</g>
			<g>
				<path fill="#FFCE00" d="M12.1,18.1c0,0.1-0.1,0.2-0.2,0.2c-0.1,0-0.2-0.1-0.2-0.2c0-0.1,0.1-0.2,0.2-0.2
					C12.1,17.9,12.1,18,12.1,18.1z"/>
			</g>
			<g>
				<path fill="#FFCE00" d="M23.4,16.5c0,0.1-0.1,0.2-0.2,0.2c-0.1,0-0.2-0.1-0.2-0.2c0-0.1,0.1-0.2,0.2-0.2
					C23.3,16.4,23.4,16.4,23.4,16.5z"/>
			</g>
			<g>
				<path fill="#91EDEA" d="M10.8,14.9c0,0.1-0.1,0.2-0.2,0.2c-0.1,0-0.2-0.1-0.2-0.2c0-0.1,0.1-0.2,0.2-0.2
					C10.7,14.7,10.8,14.8,10.8,14.9z"/>
			</g>
			<g>
				<path fill="#91EDEA" d="M20.4,12.1c0,0.1-0.1,0.2-0.2,0.2c-0.1,0-0.2-0.1-0.2-0.2s0.1-0.2,0.2-0.2C20.3,11.9,20.4,12,20.4,12.1z
					"/>
			</g>
			<g>
				<circle fill="#FFEFC7" cx="9.4" cy="17.8" r="0.2"/>
			</g>
			<g>
				<circle fill="#FFCE00" cx="20" cy="8.8" r="0.3"/>
			</g>
			<g>
				<circle fill="#FFCE00" cx="13.4" cy="20.5" r="0.3"/>
			</g>
			<g>
				<circle fill="#91EDEA" cx="16.2" cy="20" r="0.3"/>
			</g>
			<g>
				<path fill="#FFCE00" d="M20.7,20.4c0,0.2-0.1,0.3-0.3,0.3c-0.2,0-0.3-0.1-0.3-0.3s0.1-0.3,0.3-0.3
					C20.6,20.1,20.7,20.2,20.7,20.4z"/>
			</g>
			<g>
				<circle fill="#EFD27F" cx="16.4" cy="7.5" r="0.3"/>
			</g>
			<g>
				<circle fill="#EFD27F" cx="22.5" cy="11.9" r="0.3"/>
			</g>
		</g>
	</g>
</g>
</svg>
