<?xml version="1.0" encoding="utf-8"?>
<!-- Generator: Adobe Illustrator 16.0.0, SVG Export Plug-In . SVG Version: 6.00 Build 0)  -->
<!DOCTYPE svg PUBLIC "-//W3C//DTD SVG 1.1//EN" "http://www.w3.org/Graphics/SVG/1.1/DTD/svg11.dtd">
<svg version="1.1" id="Layer_1" xmlns="http://www.w3.org/2000/svg" xmlns:xlink="http://www.w3.org/1999/xlink" x="0px" y="0px"
	 width="64px" height="64px" viewBox="0 0 64 64" enable-background="new 0 0 64 64" xml:space="preserve">
<g>
	<path fill="#00233F" d="M55,37.4c0,0.7-0.8,1.3-1.5,1.3l0,0c-0.7,0-1.5-0.6-1.5-1.3V21.6c0-0.7,0.8-1.3,1.5-1.3l0,0
		c0.7,0,1.5,0.6,1.5,1.3V37.4z"/>
	<path fill="#BAC6CC" d="M2.3,35.1c0-12.3,10-22.3,22.3-22.3C37,12.8,47,22.8,47,35.1"/>
	<path fill="#00233F" d="M26,38h-4V4.7C10,5.3,0.8,14.9,0.8,26.6c0,12.1,9.9,22.1,22.3,22.1c3.3,0,6.3-0.8,9.1-1.8H26V38z"/>
	<g>
		<path fill="#0D6799" d="M22,38V4.7c-3,0.2-6,1-9,2.4V39h13v-1H22z"/>
		<path fill="#064977" d="M22,4.7c-3,0.2-6,0.9-9,2.4v31.9l9-23.5V4.7z"/>
	</g>
	<path fill="#F75959" d="M2.4,35C6.8,47,18,55.1,31.3,55.1c13.2,0,24.5-8.1,28.9-20.1H2.4z"/>
	<path fill="#EFA31D" d="M61.4,35c0,0.5-0.4,1-1,1H2.2c-0.6,0-1-0.5-1-1l0,0c0-0.5,0.4-1,1-1h58.1C60.9,34,61.4,34.5,61.4,35
		L61.4,35z"/>
	<path fill="#EFA31D" d="M57.7,37.5l-1.8,1.8l-1.8-1.8l-1.8,1.8l-1.8-1.8l-1.8,1.8l-1.8-1.8l-1.8,1.8l-1.8-1.8l-1.8,1.8l-1.8-1.8
		l-1.8,1.8l-1.8-1.8l-1.8,1.8L33,37.5l-1.8,1.8l-1.8-1.8l-1.8,1.8L26,37.5l-1.8,1.8l-1.8-1.8l-1.8,1.8L19,37.5l-1.8,1.8l-1.8-1.8
		l-1.8,1.8L12,37.5l-1.8,1.8l-1.8-1.8l-1.8,1.8l-1.8-1.8l-1,1c1.1,2.3,2.6,4.3,4.2,6.2l0.4,0.4l1.8-1.8l1.8,1.8l1.8-1.8l1.8,1.8
		l1.8-1.8l1.8,1.8l1.8-1.8l1.8,1.8l1.8-1.8l1.8,1.8l1.8-1.8l1.8,1.8l1.8-1.8l1.8,1.8l1.8-1.8l1.8,1.8l1.8-1.8l1.8,1.8l1.8-1.8
		l1.8,1.8l1.8-1.8l1.8,1.8l1.8-1.8l1.8,1.8l1.8-1.8l1.8,1.8l0.4-0.4c1.6-1.9,3.1-4,4.2-6.2L57.7,37.5z"/>
	<g>
		<path fill="#ED8A20" d="M55.9,39.2l-1.8-1.8l-1.8,1.8l-1.8-1.8l-1.8,1.8l-1.8-1.8l-1.8,1.8l-1.8-1.8l-1.8,1.8l-1.8-1.8l-1.8,1.8
			l-1.8-1.8l-1.8,1.8L33,37.5l-1.8,1.8l-1.8-1.8l-1.8,1.8L26,37.5l-1.8,1.8l-1.8-1.8l-1.8,1.8L19,37.5l-1.8,1.8l-1.8-1.8l-1.8,1.8
			L12,37.5l-1.8,1.8l-1.8-1.8l-1.7,1.7l20.5,4.7l0.5-0.5l0.8,0.8l1.5,0.3l1.2-1.2l1.8,1.8l1.8-1.8l1.8,1.8l1.8-1.8l1.8,1.8l1.8-1.8
			l1.8,1.8l1.8-1.8l1.8,1.8l1.8-1.8l1.8,1.8l1.8-1.8l1.8,1.8l0.4-0.4c1.6-1.9,3.1-4,4.2-6.2l-1-1L55.9,39.2z"/>
		<polygon fill="#ED8A20" points="6.6,39.1 4.9,37.5 3.9,38.5 		"/>
	</g>
	<g>
		<g>
			<circle fill="#0D6799" cx="10.4" cy="14.5" r="0.8"/>
			<circle fill="#0D6799" cx="10.4" cy="18.6" r="0.8"/>
			<circle fill="#0D6799" cx="10.4" cy="22.6" r="0.8"/>
			<circle fill="#0D6799" cx="10.4" cy="26.7" r="0.8"/>
			<circle fill="#0D6799" cx="10.4" cy="30.8" r="0.8"/>
		</g>
		<g>
			<circle fill="#0D6799" cx="7.3" cy="18.6" r="0.8"/>
			<circle fill="#0D6799" cx="7.3" cy="22.6" r="0.8"/>
			<circle fill="#0D6799" cx="7.3" cy="26.7" r="0.8"/>
			<circle fill="#0D6799" cx="7.3" cy="30.8" r="0.8"/>
		</g>
		<g>
			<circle fill="#0D6799" cx="4.2" cy="22.6" r="0.8"/>
			<circle fill="#0D6799" cx="4.2" cy="26.7" r="0.8"/>
			<circle fill="#0D6799" cx="4.2" cy="30.8" r="0.8"/>
		</g>
	</g>
	<path fill="#0D6799" d="M63.3,21.5c0,1.2-1,2.5-2.2,2.5h-8.4c-1.2,0-1.1-1.3-1.1-2.5l0,0c0-1.2,1-2.5,2.2-2.5h7.4
		C62.3,19,63.3,20.3,63.3,21.5L63.3,21.5z"/>
	<path fill="#064977" d="M61,19c1.5,0,2.4,1.3,2.4,2.5l0,0c0,1.2-1,2.5-2.2,2.5h-8.4c-1.2,0-1.1-1.3-1.1-2.5l0,0"/>
	<g>
		<circle fill="#0D6799" cx="8.9" cy="41.3" r="0.9"/>
	</g>
	<g>
		<circle fill="#0D6799" cx="14.3" cy="41.3" r="0.9"/>
	</g>
	<g>
		<circle fill="#0D6799" cx="19.6" cy="41.3" r="0.9"/>
	</g>
	<g>
		<circle fill="#0D6799" cx="24.9" cy="41.3" r="0.9"/>
	</g>
	<g>
		<circle fill="#0D6799" cx="30.3" cy="41.3" r="0.9"/>
	</g>
	<g>
		<circle fill="#0D6799" cx="35.6" cy="41.3" r="0.9"/>
	</g>
	<g>
		<circle fill="#0D6799" cx="41" cy="41.3" r="0.9"/>
	</g>
	<g>
		<circle fill="#0D6799" cx="46.3" cy="41.3" r="0.9"/>
	</g>
	<g>
		<circle fill="#0D6799" cx="51.6" cy="41.3" r="0.9"/>
	</g>
	<path fill="#86979E" d="M42.5,54c0,0.9-0.7,2-1.7,2H21.8c-0.9,0-1.7-1.1-1.7-2l0,0c0-0.9,0.7-2,1.7-2h19.1
		C41.7,52,42.5,53.1,42.5,54L42.5,54z"/>
	<path fill="#6B7E84" d="M42.5,54.1L42.5,54.1c0,0.9-0.7,1.9-1.7,1.9H21.8c-0.9,0-1.7-0.8-1.7-1.8l0,0"/>
	<g>
		<g>
			<circle fill="#064977" cx="18.7" cy="54" r="5.4"/>
			<path fill="#00233F" d="M14.9,50.2c2.1-2.1,5.5-2.1,7.6,0c2.1,2.1,2.1,5.5,0,7.6"/>
			<circle fill="#F2BF1C" cx="18.7" cy="54" r="2.1"/>
			<path fill="#EFA31D" d="M17.2,52.5c0.8-0.8,2.2-0.8,3,0c0.8,0.8,0.8,2.2,0,3"/>
		</g>
		<g>
			<circle fill="#064977" cx="43.9" cy="54" r="5.4"/>
			<path fill="#00233F" d="M40.1,50.2c2.1-2.1,5.5-2.1,7.6,0c2.1,2.1,2.1,5.5,0,7.6"/>
			<circle fill="#F2BF1C" cx="43.9" cy="54" r="2.1"/>
			<path fill="#EFA31D" d="M42.4,52.5c0.8-0.8,2.2-0.8,3,0c0.8,0.8,0.8,2.2,0,3"/>
		</g>
	</g>
</g>
</svg>
