<?xml version="1.0" encoding="utf-8"?>
<!-- Generator: Adobe Illustrator 16.0.0, SVG Export Plug-In . SVG Version: 6.00 Build 0)  -->
<!DOCTYPE svg PUBLIC "-//W3C//DTD SVG 1.1//EN" "http://www.w3.org/Graphics/SVG/1.1/DTD/svg11.dtd">
<svg version="1.1" id="Layer_1" xmlns="http://www.w3.org/2000/svg" xmlns:xlink="http://www.w3.org/1999/xlink" x="0px" y="0px"
	 width="64px" height="64px" viewBox="0 0 64 64" enable-background="new 0 0 64 64" xml:space="preserve">
<g>
	<g>
		<circle fill="#FFA81D" cx="32" cy="32" r="31"/>
		<path fill="#FFB533" d="M32,52.3c-12.6,0-23.7-6.2-30.7-15.7C3.6,51.6,16.5,63,32,63c15.5,0,28.4-11.4,30.7-26.3
			C55.7,46.2,44.6,52.3,32,52.3z"/>
		<path fill="#FFC022" d="M1,32C1,14.9,14.9,1,32,1"/>
		<path fill="#FF8C1A" d="M32,1c17.1,0,31,13.9,31,31S49.1,63,32,63"/>
		<path fill="#FFA31D" d="M34,62.9c0.3,0,0.7,0,1-0.1c0.2,0,0.4,0,0.6-0.1c0.3,0,0.6-0.1,0.9-0.1c0.2,0,0.4-0.1,0.6-0.1
			c0.3,0,0.6-0.1,0.9-0.2c0.2,0,0.4-0.1,0.6-0.1c0.3-0.1,0.6-0.1,0.8-0.2c0.2-0.1,0.4-0.1,0.6-0.2c0.3-0.1,0.5-0.2,0.8-0.2
			c0.2-0.1,0.4-0.1,0.6-0.2c0.3-0.1,0.5-0.2,0.8-0.3c0.2-0.1,0.4-0.1,0.6-0.2c0.3-0.1,0.5-0.2,0.8-0.3c0.2-0.1,0.4-0.1,0.5-0.2
			c0.3-0.1,0.6-0.3,0.9-0.4c0.1-0.1,0.3-0.1,0.4-0.2c0.4-0.2,0.8-0.4,1.3-0.7c0.1-0.1,0.2-0.1,0.3-0.2c0.3-0.2,0.6-0.4,1-0.6
			c0.2-0.1,0.3-0.2,0.5-0.3c0.2-0.2,0.5-0.3,0.7-0.5c0.2-0.1,0.3-0.2,0.5-0.4c0.2-0.2,0.4-0.3,0.7-0.5c0.2-0.1,0.3-0.3,0.5-0.4
			c0.2-0.2,0.4-0.3,0.6-0.5c0.2-0.1,0.3-0.3,0.5-0.4c0.2-0.2,0.4-0.3,0.6-0.5c0.2-0.1,0.3-0.3,0.5-0.4c0.2-0.2,0.4-0.3,0.6-0.5
			c0.2-0.2,0.3-0.3,0.5-0.5c0.2-0.2,0.4-0.4,0.5-0.6c0.2-0.2,0.3-0.3,0.4-0.5c0.2-0.2,0.3-0.4,0.5-0.6c0.1-0.2,0.3-0.3,0.4-0.5
			c0.2-0.2,0.4-0.4,0.5-0.7c0.1-0.2,0.2-0.3,0.3-0.4c0.3-0.4,0.5-0.7,0.8-1.1c0.1-0.2,0.2-0.3,0.3-0.5c0.2-0.2,0.3-0.5,0.5-0.7
			c0.1-0.2,0.2-0.4,0.3-0.6c0.1-0.2,0.3-0.4,0.4-0.7c0.1-0.2,0.2-0.4,0.3-0.6c0.1-0.2,0.2-0.4,0.3-0.7c0.1-0.2,0.2-0.4,0.3-0.6
			c0.1-0.2,0.2-0.4,0.3-0.7c0.1-0.2,0.2-0.4,0.3-0.7c0.1-0.2,0.2-0.5,0.3-0.7c0.1-0.2,0.2-0.4,0.2-0.7c0.1-0.2,0.2-0.5,0.2-0.7
			c0.1-0.2,0.1-0.5,0.2-0.7c0.1-0.2,0.1-0.5,0.2-0.7c0.1-0.2,0.1-0.5,0.2-0.7c0.1-0.2,0.1-0.5,0.2-0.8c0.1-0.2,0.1-0.4,0.1-0.7
			c0.1-0.3,0.1-0.6,0.2-0.8c0-0.2,0.1-0.4,0.1-0.6c0,0,0,0,0,0c-7,9.5-18.1,15.7-30.7,15.7V63c0.5,0,1,0,1.5,0
			C33.7,63,33.9,62.9,34,62.9z"/>
		<path fill="#F47B0F" d="M63,32C63,14.9,49.1,1,32,1"/>
	</g>
	<path fill="#F47B0F" d="M42.3,19.8c-0.1-0.4-0.4-0.6-0.8-0.7l-6-0.9l-2.7-5.4c-0.2-0.3-0.5-0.5-0.9-0.5s-0.7,0.2-0.9,0.5l-2.7,5.4
		l-6,0.9c-0.4,0.1-0.7,0.3-0.8,0.7c-0.1,0.4,0,0.7,0.2,1l4.3,4.2l-1,6c-0.1,0.4,0.1,0.7,0.4,0.9c0.3,0.2,0.7,0.2,1,0.1l5.3-2.8
		l5.3,2.8c0.1,0.1,0.3,0.1,0.5,0.1c0.2,0,0.4-0.1,0.6-0.2c0.3-0.2,0.4-0.6,0.4-0.9l-1-6l4.3-4.2C42.3,20.5,42.4,20.1,42.3,19.8z"/>
	<path fill="#D31160" d="M42.3,18.2c-0.1-0.4-0.4-0.6-0.8-0.7l-6-0.9l-2.7-5.4c-0.2-0.3-0.5-0.5-0.9-0.5s-0.7,0.2-0.9,0.5l-2.7,5.4
		l-6,0.9c-0.4,0.1-0.7,0.3-0.8,0.7c-0.1,0.4,0,0.7,0.2,1l4.3,4.2l-1,6c-0.1,0.4,0.1,0.7,0.4,0.9c0.3,0.2,0.7,0.2,1,0.1l5.3-2.8
		l5.3,2.8c0.1,0.1,0.3,0.1,0.5,0.1c0.2,0,0.4-0.1,0.6-0.2c0.3-0.2,0.4-0.6,0.4-0.9l-1-6l4.3-4.2C42.3,18.9,42.4,18.5,42.3,18.2z"/>
	<path fill="#AD055A" d="M37.3,30.4c0.1,0.1,0.3,0.1,0.5,0.1c0.2,0,0.4-0.1,0.6-0.2c0.3-0.2,0.4-0.6,0.4-0.9l-1-6l4.3-4.2
		c0.3-0.3,0.4-0.6,0.2-1s-0.4-0.6-0.8-0.7l-6-0.9l-2.7-5.4c-0.2-0.3-0.5-0.5-0.9-0.5v16.9L37.3,30.4z"/>
</g>
</svg>
