<?xml version="1.0" encoding="utf-8"?>
<!-- Generator: Adobe Illustrator 16.0.0, SVG Export Plug-In . SVG Version: 6.00 Build 0)  -->
<!DOCTYPE svg PUBLIC "-//W3C//DTD SVG 1.1//EN" "http://www.w3.org/Graphics/SVG/1.1/DTD/svg11.dtd">
<svg version="1.1" xmlns="http://www.w3.org/2000/svg" xmlns:xlink="http://www.w3.org/1999/xlink" x="0px" y="0px" width="65px"
	 height="65px" viewBox="0 0 65 65" enable-background="new 0 0 65 65" xml:space="preserve">
<g id="Layer_1">
	<g>
		<g>
			<g>
				<g>
					<polygon fill="#1DDD6B" points="3.312,57.769 32.489,7.231 61.669,57.769 					"/>
				</g>
				<g>
					<polygon fill="#0DBC82" points="32.464,58.833 32.489,7.231 61.669,57.769 					"/>
				</g>
				<g>
					<path fill="#00AD73" d="M61.688,60.269c0,0-0.013,0.001-0.019,0H3.312c-0.893,0-1.718-0.477-2.164-1.25s-0.446-1.727,0-2.5
						L30.325,5.981c0.446-0.773,1.271-1.25,2.164-1.25c0.895,0,1.72,0.477,2.166,1.25l29.035,50.29
						c0.312,0.418,0.497,0.936,0.497,1.497C64.188,59.149,63.068,60.269,61.688,60.269z M7.644,55.269h49.694L32.489,12.231
						L7.644,55.269z"/>
				</g>
			</g>
			<g>
				<g>
					<polygon fill="#55FF9A" points="22.713,47.019 32.489,30.083 42.269,47.019 					"/>
				</g>
				<g>
					<path fill="#00AD73" d="M42.288,49.519c0,0-0.012,0.001-0.02,0H22.713c-0.894,0-1.72-0.477-2.165-1.25
						c-0.447-0.773-0.447-1.727,0-2.5l9.777-16.936c0.446-0.773,1.271-1.25,2.164-1.25c0.895,0,1.72,0.477,2.166,1.25l9.635,16.688
						c0.313,0.418,0.498,0.936,0.498,1.497C44.788,48.399,43.669,49.519,42.288,49.519z M27.042,44.519h10.896l-5.449-9.436
						L27.042,44.519z"/>
				</g>
			</g>
		</g>
		<g>
			<g>
				<circle fill="#00AD73" cx="28.437" cy="24" r="1.063"/>
			</g>
			<g>
				<circle fill="#00AD73" cx="32.5" cy="24" r="1.063"/>
			</g>
			<g>
				<circle fill="#00AD73" cx="36.562" cy="24" r="1.062"/>
			</g>
		</g>
	</g>
</g>
<g id="nyt_x5F_exporter_x5F_info" display="none">
</g>
</svg>
