<?xml version="1.0" encoding="utf-8"?>
<!-- Generator: Adobe Illustrator 16.0.0, SVG Export Plug-In . SVG Version: 6.00 Build 0)  -->
<!DOCTYPE svg PUBLIC "-//W3C//DTD SVG 1.1//EN" "http://www.w3.org/Graphics/SVG/1.1/DTD/svg11.dtd">
<svg version="1.1" id="Layer_1" xmlns="http://www.w3.org/2000/svg" xmlns:xlink="http://www.w3.org/1999/xlink" x="0px" y="0px"
	 width="64px" height="64px" viewBox="0 0 64 64" enable-background="new 0 0 64 64" xml:space="preserve">
<g>
	<g>
		<path fill="#E5C77F" d="M34,54.4c0,1.2-0.8,2.1-2,2.1l0,0c-1.2,0-2-1-2-2.1v-44c0-1.2,0.8-2.1,2-2.1l0,0c1.2,0,2,1,2,2.1V54.4z"/>
		<path fill="#C4A765" d="M32,8.3c-1.2,0-2,1-2,2.1v26.7c1,0.1,1.3,0.2,2,0.2s1-0.1,2-0.2V10.4C34,9.2,33.2,8.3,32,8.3z"/>
		<circle fill="#F48619" cx="32" cy="16.3" r="15.9"/>
		<path fill="#EA680F" d="M32,0.4c8.8,0,15.9,7.1,15.9,15.9c0,8.8-7.1,15.9-15.9,15.9"/>
		<path fill="#E5C77F" d="M32,53.7c-2.7,0-5,2.2-5,5s2.2,5,5,5s5-2.2,5-5S34.7,53.7,32,53.7z M32,60.4c-1,0-1.8-0.8-1.8-1.8
			s0.8-1.8,1.8-1.8s1.8,0.8,1.8,1.8S33,60.4,32,60.4z"/>
		<path fill="#F2BF1C" d="M16.3,13.7c-0.1,0.8-0.2,1.7-0.2,2.6c0,0.9,0.1,1.8,0.2,2.6c3.6,1,9.3,1.7,15.7,1.7s12.1-0.7,15.7-1.7
			c0.1-0.8,0.2-1.7,0.2-2.6c0-0.9-0.1-1.8-0.2-2.6c-3.6-1-9.3-1.7-15.7-1.7S19.9,12.7,16.3,13.7z"/>
		<path fill="#EFA91D" d="M16.1,16.3c0,0.9,0.1,1.8,0.2,2.6c3.6,1,9.3,1.7,15.7,1.7s12.1-0.7,15.7-1.7c0.1-0.8,0.2-1.7,0.2-2.6"/>
	</g>
	<g>
		
			<rect x="18.2" y="15.4" transform="matrix(0.7074 -0.7068 0.7068 0.7074 -5.9404 18.2932)" fill="#F4E2AE" width="1.8" height="1.7"/>
		
			<rect x="22.5" y="15.4" transform="matrix(0.7068 -0.7074 0.7074 0.7068 -4.6808 21.3484)" fill="#F4E2AE" width="1.7" height="1.8"/>
		
			<rect x="26.8" y="15.4" transform="matrix(0.7074 -0.7068 0.7068 0.7074 -3.4286 24.3606)" fill="#F4E2AE" width="1.8" height="1.7"/>
		
			<rect x="31.1" y="15.4" transform="matrix(0.7068 -0.7074 0.7074 0.7068 -2.1642 27.4206)" fill="#F4E2AE" width="1.7" height="1.8"/>
		
			<rect x="35.4" y="15.4" transform="matrix(0.7074 -0.7068 0.7068 0.7074 -0.9168 30.428)" fill="#F4E2AE" width="1.8" height="1.7"/>
		
			<rect x="39.7" y="15.4" transform="matrix(0.7068 -0.7074 0.7074 0.7068 0.3524 33.4928)" fill="#F4E2AE" width="1.7" height="1.8"/>
		<rect x="44" y="15.4" transform="matrix(0.7074 -0.7068 0.7068 0.7074 1.595 36.4954)" fill="#F4E2AE" width="1.8" height="1.7"/>
	</g>
	<g>
		<g>
			<g>
				<circle fill="#F2BF1C" cx="18.8" cy="21.7" r="0.4"/>
				<circle fill="#F2BF1C" cx="20.7" cy="21.7" r="0.4"/>
				<circle fill="#F2BF1C" cx="22.6" cy="21.7" r="0.4"/>
				<circle fill="#F2BF1C" cx="24.5" cy="21.7" r="0.4"/>
				<circle fill="#F2BF1C" cx="26.3" cy="21.7" r="0.4"/>
				<circle fill="#F2BF1C" cx="28.2" cy="21.7" r="0.4"/>
				<circle fill="#F2BF1C" cx="30.1" cy="21.7" r="0.4"/>
				<circle fill="#F2BF1C" cx="32" cy="21.7" r="0.4"/>
				<circle fill="#F2BF1C" cx="33.9" cy="21.7" r="0.4"/>
				<circle fill="#F2BF1C" cx="35.8" cy="21.7" r="0.4"/>
				<circle fill="#F2BF1C" cx="37.7" cy="21.7" r="0.4"/>
				<circle fill="#F2BF1C" cx="39.5" cy="21.7" r="0.4"/>
				<circle fill="#F2BF1C" cx="41.4" cy="21.7" r="0.4"/>
				<circle fill="#F2BF1C" cx="43.3" cy="21.7" r="0.4"/>
				<circle fill="#F2BF1C" cx="45.2" cy="21.7" r="0.4"/>
			</g>
			<g>
				<circle fill="#F2BF1C" cx="20.7" cy="23.9" r="0.4"/>
				<circle fill="#F2BF1C" cx="22.6" cy="23.9" r="0.4"/>
				<circle fill="#F2BF1C" cx="24.5" cy="23.9" r="0.4"/>
				<circle fill="#F2BF1C" cx="26.3" cy="23.9" r="0.4"/>
				<circle fill="#F2BF1C" cx="28.2" cy="23.9" r="0.4"/>
				<circle fill="#F2BF1C" cx="30.1" cy="23.9" r="0.4"/>
				<circle fill="#F2BF1C" cx="32" cy="23.9" r="0.4"/>
				<circle fill="#F2BF1C" cx="33.9" cy="23.9" r="0.4"/>
				<circle fill="#F2BF1C" cx="35.8" cy="23.9" r="0.4"/>
				<circle fill="#F2BF1C" cx="37.7" cy="23.9" r="0.4"/>
				<circle fill="#F2BF1C" cx="39.5" cy="23.9" r="0.4"/>
				<circle fill="#F2BF1C" cx="41.4" cy="23.9" r="0.4"/>
				<circle fill="#F2BF1C" cx="43.3" cy="23.9" r="0.4"/>
			</g>
			<g>
				<circle fill="#F2BF1C" cx="22.6" cy="26.1" r="0.4"/>
				<circle fill="#F2BF1C" cx="24.5" cy="26.1" r="0.4"/>
				<circle fill="#F2BF1C" cx="26.3" cy="26.1" r="0.4"/>
				<circle fill="#F2BF1C" cx="28.2" cy="26.1" r="0.4"/>
				<circle fill="#F2BF1C" cx="30.1" cy="26.1" r="0.4"/>
				<circle fill="#F2BF1C" cx="32" cy="26.1" r="0.4"/>
				<circle fill="#F2BF1C" cx="33.9" cy="26.1" r="0.4"/>
				<circle fill="#F2BF1C" cx="35.8" cy="26.1" r="0.4"/>
				<circle fill="#F2BF1C" cx="37.7" cy="26.1" r="0.4"/>
				<circle fill="#F2BF1C" cx="39.5" cy="26.1" r="0.4"/>
				<circle fill="#F2BF1C" cx="41.4" cy="26.1" r="0.4"/>
			</g>
			<g>
				<circle fill="#F2BF1C" cx="24.5" cy="28.2" r="0.4"/>
				<circle fill="#F2BF1C" cx="26.3" cy="28.2" r="0.4"/>
				<circle fill="#F2BF1C" cx="28.2" cy="28.2" r="0.4"/>
				<circle fill="#F2BF1C" cx="30.1" cy="28.2" r="0.4"/>
				<circle fill="#F2BF1C" cx="32" cy="28.2" r="0.4"/>
				<circle fill="#F2BF1C" cx="33.9" cy="28.2" r="0.4"/>
				<circle fill="#F2BF1C" cx="35.8" cy="28.2" r="0.4"/>
				<circle fill="#F2BF1C" cx="37.7" cy="28.2" r="0.4"/>
				<circle fill="#F2BF1C" cx="39.5" cy="28.2" r="0.4"/>
			</g>
			<g>
				<circle fill="#F2BF1C" cx="28.2" cy="30.4" r="0.4"/>
				<circle fill="#F2BF1C" cx="30.1" cy="30.4" r="0.4"/>
				<circle fill="#F2BF1C" cx="32" cy="30.4" r="0.4"/>
				<circle fill="#F2BF1C" cx="33.9" cy="30.4" r="0.4"/>
				<circle fill="#F2BF1C" cx="35.8" cy="30.4" r="0.4"/>
			</g>
		</g>
		<g>
			<g>
				<circle fill="#F2BF1C" cx="45.2" cy="10.9" r="0.4"/>
				<circle fill="#F2BF1C" cx="43.3" cy="10.9" r="0.4"/>
				<circle fill="#F2BF1C" cx="41.4" cy="10.9" r="0.4"/>
				<circle fill="#F2BF1C" cx="39.5" cy="10.9" r="0.4"/>
				<circle fill="#F2BF1C" cx="37.7" cy="10.9" r="0.4"/>
				<circle fill="#F2BF1C" cx="35.8" cy="10.9" r="0.4"/>
				<circle fill="#F2BF1C" cx="33.9" cy="10.9" r="0.4"/>
				<circle fill="#F2BF1C" cx="32" cy="10.9" r="0.4"/>
				<circle fill="#F2BF1C" cx="30.1" cy="10.9" r="0.4"/>
				<circle fill="#F2BF1C" cx="28.2" cy="10.9" r="0.4"/>
				<circle fill="#F2BF1C" cx="26.3" cy="10.9" r="0.4"/>
				<circle fill="#F2BF1C" cx="24.5" cy="10.9" r="0.4"/>
				<circle fill="#F2BF1C" cx="22.6" cy="10.9" r="0.4"/>
				<circle fill="#F2BF1C" cx="20.7" cy="10.9" r="0.4"/>
				<circle fill="#F2BF1C" cx="18.8" cy="10.9" r="0.4"/>
			</g>
			<g>
				<circle fill="#F2BF1C" cx="43.3" cy="8.7" r="0.4"/>
				<circle fill="#F2BF1C" cx="41.4" cy="8.7" r="0.4"/>
				<circle fill="#F2BF1C" cx="39.5" cy="8.7" r="0.4"/>
				<circle fill="#F2BF1C" cx="37.7" cy="8.7" r="0.4"/>
				<circle fill="#F2BF1C" cx="35.8" cy="8.7" r="0.4"/>
				<circle fill="#F2BF1C" cx="33.9" cy="8.7" r="0.4"/>
				<circle fill="#F2BF1C" cx="32" cy="8.7" r="0.4"/>
				<circle fill="#F2BF1C" cx="30.1" cy="8.7" r="0.4"/>
				<circle fill="#F2BF1C" cx="28.2" cy="8.7" r="0.4"/>
				<circle fill="#F2BF1C" cx="26.3" cy="8.7" r="0.4"/>
				<circle fill="#F2BF1C" cx="24.5" cy="8.7" r="0.4"/>
				<circle fill="#F2BF1C" cx="22.6" cy="8.7" r="0.4"/>
				<circle fill="#F2BF1C" cx="20.7" cy="8.7" r="0.4"/>
			</g>
			<g>
				<circle fill="#F2BF1C" cx="41.4" cy="6.5" r="0.4"/>
				<circle fill="#F2BF1C" cx="39.5" cy="6.5" r="0.4"/>
				<circle fill="#F2BF1C" cx="37.7" cy="6.5" r="0.4"/>
				<circle fill="#F2BF1C" cx="35.8" cy="6.5" r="0.4"/>
				<circle fill="#F2BF1C" cx="33.9" cy="6.5" r="0.4"/>
				<circle fill="#F2BF1C" cx="32" cy="6.5" r="0.4"/>
				<circle fill="#F2BF1C" cx="30.1" cy="6.5" r="0.4"/>
				<circle fill="#F2BF1C" cx="28.2" cy="6.5" r="0.4"/>
				<circle fill="#F2BF1C" cx="26.3" cy="6.5" r="0.4"/>
				<circle fill="#F2BF1C" cx="24.5" cy="6.5" r="0.4"/>
				<circle fill="#F2BF1C" cx="22.6" cy="6.5" r="0.4"/>
			</g>
			<g>
				<circle fill="#F2BF1C" cx="39.5" cy="4.3" r="0.4"/>
				<circle fill="#F2BF1C" cx="37.7" cy="4.3" r="0.4"/>
				<circle fill="#F2BF1C" cx="35.8" cy="4.3" r="0.4"/>
				<circle fill="#F2BF1C" cx="33.9" cy="4.3" r="0.4"/>
				<circle fill="#F2BF1C" cx="32" cy="4.3" r="0.4"/>
				<circle fill="#F2BF1C" cx="30.1" cy="4.3" r="0.4"/>
				<circle fill="#F2BF1C" cx="28.2" cy="4.3" r="0.4"/>
				<circle fill="#F2BF1C" cx="26.3" cy="4.3" r="0.4"/>
				<circle fill="#F2BF1C" cx="24.5" cy="4.3" r="0.4"/>
			</g>
			<g>
				<circle fill="#F2BF1C" cx="35.8" cy="2.1" r="0.4"/>
				<circle fill="#F2BF1C" cx="33.9" cy="2.1" r="0.4"/>
				<circle fill="#F2BF1C" cx="32" cy="2.1" r="0.4"/>
				<circle fill="#F2BF1C" cx="30.1" cy="2.1" r="0.4"/>
				<circle fill="#F2BF1C" cx="28.2" cy="2.1" r="0.4"/>
			</g>
		</g>
	</g>
</g>
</svg>
