<?xml version="1.0" encoding="utf-8"?>
<!-- Generator: Adobe Illustrator 16.0.0, SVG Export Plug-In . SVG Version: 6.00 Build 0)  -->
<!DOCTYPE svg PUBLIC "-//W3C//DTD SVG 1.1//EN" "http://www.w3.org/Graphics/SVG/1.1/DTD/svg11.dtd">
<svg version="1.1" xmlns="http://www.w3.org/2000/svg" xmlns:xlink="http://www.w3.org/1999/xlink" x="0px" y="0px" width="65px"
	 height="65px" viewBox="0 0 65 65" enable-background="new 0 0 65 65" xml:space="preserve">
<g id="Layer_1">
	<g>
		<path fill="#3B9358" d="M50.604,57.879c0,3.657-2.964,6.621-6.622,6.621H24.397c-3.656,0-6.622-2.964-6.622-6.621V7.121
			c0-3.657,2.966-6.621,6.622-6.621h19.584c3.658,0,6.622,2.964,6.622,6.621V57.879z"/>
		<path fill="#2D7C45" d="M45.763,53.2c0,2.984-2.09,5.401-4.668,5.401H27.284c-2.578,0-4.668-2.417-4.668-5.401V11.8
			c0-2.984,2.09-5.401,4.668-5.401h13.811c2.578,0,4.668,2.417,4.668,5.401V53.2z"/>
		<g>
			<g>
				<path fill="#3B9358" d="M18.087,18.097c-7.501,0-13.605-6.104-13.605-13.605c0-1.88,1.521-3.401,3.401-3.401
					s3.401,1.521,3.401,3.401c0,3.751,3.051,6.803,6.803,6.803c1.88,0,3.401,1.521,3.401,3.402
					C21.488,16.573,19.967,18.097,18.087,18.097z"/>
			</g>
			<g>
				<path fill="#2D7C45" d="M46.912,46.903c7.503,0,13.606,6.104,13.606,13.605c0,1.88-1.521,3.401-3.401,3.401
					c-1.88,0-3.401-1.521-3.401-3.401c0-3.751-3.053-6.803-6.804-6.803c-1.878,0-3.401-1.521-3.401-3.402
					C43.511,48.427,45.034,46.903,46.912,46.903z"/>
			</g>
		</g>
		<g>
			<g>
				<path fill="#2D7C45" d="M60.519,14.804c0,1.954-1.584,3.54-3.539,3.54H8.021c-1.954,0-3.539-1.586-3.539-3.54l0,0
					c0-1.953,1.585-3.539,3.539-3.539h48.959C58.935,11.265,60.519,12.851,60.519,14.804L60.519,14.804z"/>
				<path fill="#3B9358" d="M60.519,21.883c0,1.954-1.584,3.539-3.539,3.539H8.021c-1.954,0-3.539-1.585-3.539-3.539l0,0
					c0-1.954,1.585-3.539,3.539-3.539h48.959C58.935,18.344,60.519,19.929,60.519,21.883L60.519,21.883z"/>
			</g>
			<g>
				<path fill="#2D7C45" d="M60.519,28.961c0,1.954-1.584,3.539-3.539,3.539H8.021c-1.954,0-3.539-1.585-3.539-3.539l0,0
					c0-1.954,1.585-3.539,3.539-3.539h48.959C58.935,25.422,60.519,27.007,60.519,28.961L60.519,28.961z"/>
				<path fill="#3B9358" d="M60.519,36.039c0,1.954-1.584,3.539-3.539,3.539H8.021c-1.954,0-3.539-1.585-3.539-3.539l0,0
					c0-1.954,1.585-3.539,3.539-3.539h48.959C58.935,32.5,60.519,34.085,60.519,36.039L60.519,36.039z"/>
			</g>
			<g>
				<path fill="#2D7C45" d="M60.519,43.117c0,1.954-1.584,3.539-3.539,3.539H8.021c-1.954,0-3.539-1.585-3.539-3.539l0,0
					c0-1.953,1.585-3.539,3.539-3.539h48.959C58.935,39.578,60.519,41.164,60.519,43.117L60.519,43.117z"/>
				<path fill="#3B9358" d="M60.519,50.196c0,1.953-1.584,3.539-3.539,3.539H8.021c-1.954,0-3.539-1.586-3.539-3.539l0,0
					c0-1.954,1.585-3.54,3.539-3.54h48.959C58.935,46.656,60.519,48.242,60.519,50.196L60.519,50.196z"/>
			</g>
		</g>
	</g>
</g>
<g id="nyt_x5F_exporter_x5F_info" display="none">
</g>
</svg>
