<?xml version="1.0" encoding="utf-8"?>
<!-- Generator: Adobe Illustrator 16.0.0, SVG Export Plug-In . SVG Version: 6.00 Build 0)  -->
<!DOCTYPE svg PUBLIC "-//W3C//DTD SVG 1.1//EN" "http://www.w3.org/Graphics/SVG/1.1/DTD/svg11.dtd">
<svg version="1.1" id="Layer_1" xmlns="http://www.w3.org/2000/svg" xmlns:xlink="http://www.w3.org/1999/xlink" x="0px" y="0px"
	 width="64px" height="64px" viewBox="0 0 64 64" enable-background="new 0 0 64 64" xml:space="preserve">
<g>
	<polygon fill="#9CDBD7" points="61.5,57 61.5,54 60.4,54 60.4,52.5 58.1,52.5 58.1,54.6 56.1,54.6 56.1,56.1 49.4,56.1 49.4,54.6 
		47.1,54.6 47.1,56.7 40.7,56.7 40.7,54.7 39.9,54.7 39.9,54.6 38,54.6 38,53.9 38,53.9 38,51.9 36,51.9 36,53.9 35.6,53.9 
		35.6,55.2 33.9,55.2 33.9,54.6 32.7,54.6 32.7,55 31.7,55 31.7,55.1 31.5,55.1 31.5,48.4 27.5,48.4 27.5,55 26.9,55 26.9,55.8 
		23.5,55.8 23.5,55 22.5,55 22.5,53.9 21.3,53.9 21.3,54.7 20.8,54.7 20.8,57 20.6,57 20.6,63.1 63,63.1 63,57 	"/>
	<g>
		<g>
			<path fill="#CBD8D8" d="M61.6,2.8c0,0.6-0.5,1-1,1H3.3c-0.6,0-1-0.5-1-1V2c0-0.6,0.5-1,1-1h57.3c0.6,0,1,0.5,1,1V2.8z"/>
			<path fill="#BAC6C6" d="M60.6,0.9c0.6,0,1,0.5,1,1v0.9c0,0.6-0.5,1-1,1H3.3c-0.6,0-1-0.5-1-1"/>
		</g>
		<path fill="#869392" d="M3.6,5.8v27.1h20.2v-8.6c0-4.4,3.6-8,8-8c4.4,0,8,3.6,8,8v8.6h20.2V5.8H3.6z"/>
		<path fill="#BCC1C1" d="M3.6,5v27.1h20.2v-8.6c0-4.4,3.6-8,8-8c4.4,0,8,3.6,8,8v8.6h20.2V5H3.6z"/>
		<path fill="#A2AAAA" d="M23.9,32.1v-8.6c0-4.4,3.6-8,8-8c4.4,0,8,3.6,8,8v8.6h20.2V5H3.6"/>
		<path fill="#869392" d="M31.9,15.4c4.4,0,8,3.6,8,8v8.6h20.2V5H3.6"/>
		<path fill="#869392" d="M23.9,32.1"/>
		<g>
			<g>
				<rect x="3.5" y="22.1" fill="#A2AAAA" width="20.4" height="35.6"/>
				<polyline fill="#BCC1C1" points="3.5,57.7 3.5,22.1 23.9,22.1 				"/>
				<path fill="#BAC6C6" d="M24.7,58c0,0.2-0.2,0.4-0.4,0.4H3.1c-0.2,0-0.4-0.2-0.4-0.4l0,0c0-0.2,0.2-0.4,0.4-0.4h21.1
					C24.5,57.6,24.7,57.8,24.7,58L24.7,58z"/>
				<path fill="#A0AFAE" d="M25.3,58.8c0,0.3-0.2,0.5-0.5,0.5H2.5c-0.3,0-0.5-0.2-0.5-0.5l0,0c0-0.3,0.2-0.5,0.5-0.5h22.3
					C25.1,58.3,25.3,58.5,25.3,58.8L25.3,58.8z"/>
				<path fill="#869392" d="M22.4,44.8c0,1.4-1.2,2.6-2.6,2.6H7.5c-1.4,0-2.6-1.2-2.6-2.6V26.1c0-1.4,1.2-2.6,2.6-2.6h12.3
					c1.4,0,2.6,1.2,2.6,2.6V44.8z"/>
				<path fill="#A2AAAA" d="M19.8,23.5H7.5c-1.4,0-2.6,1.2-2.6,2.6v18.7c0,1.4,1.2,2.6,2.6,2.6h1.9L22.2,25
					C21.8,24.1,20.9,23.5,19.8,23.5z"/>
				<ellipse fill="#A2AAAA" cx="13.7" cy="35.7" rx="5.7" ry="8.5"/>
				<path fill="#BCC1C1" d="M13.7,27.2C10.5,27.2,8,31,8,35.7c0,3.6,1.5,6.6,3.6,7.9l7-12.2C17.6,28.9,15.8,27.2,13.7,27.2z"/>
				<path fill="#869392" d="M8.6,55.4c0,0.3-0.2,0.5-0.5,0.5H5.4c-0.3,0-0.5-0.2-0.5-0.5v-6.3c0-0.3,0.2-0.5,0.5-0.5h2.8
					c0.3,0,0.5,0.2,0.5,0.5V55.4z"/>
				<path fill="#869392" d="M22.4,55.4c0,0.3-0.2,0.5-0.5,0.5h-2.8c-0.3,0-0.5-0.2-0.5-0.5v-6.3c0-0.3,0.2-0.5,0.5-0.5H22
					c0.3,0,0.5,0.2,0.5,0.5V55.4z"/>
				<path fill="#A2AAAA" d="M8.5,48.9c-0.1-0.1-0.2-0.2-0.4-0.2H5.4c-0.3,0-0.5,0.2-0.5,0.5v6L8.5,48.9z"/>
				<rect x="1.6" y="59.1" fill="#869392" width="24.1" height="3.5"/>
				<polyline fill="#707F7E" points="1.6,59.1 25.7,59.1 25.7,62.6 				"/>
				<path fill="#869392" d="M26.3,62.8c0,0.1-0.1,0.2-0.2,0.2H1.2C1.1,63.1,1,63,1,62.8l0,0c0-0.1,0.1-0.2,0.2-0.2h24.9
					C26.2,62.6,26.3,62.7,26.3,62.8L26.3,62.8z"/>
				<path fill="#CBD8D8" d="M24.6,22.2c0,0.3-0.2,0.5-0.5,0.5H3.2c-0.3,0-0.5-0.2-0.5-0.5l0,0c0-0.3,0.2-0.5,0.5-0.5h20.9
					C24.4,21.7,24.6,21.9,24.6,22.2L24.6,22.2z"/>
			</g>
			<g>
				<rect x="40" y="22.1" fill="#A2AAAA" width="20.4" height="35.6"/>
				<polyline fill="#BCC1C1" points="60.4,57.7 60.4,22.1 40,22.1 				"/>
				<path fill="#BAC6C6" d="M39.2,58c0,0.2,0.2,0.4,0.4,0.4h21.1c0.2,0,0.4-0.2,0.4-0.4l0,0c0-0.2-0.2-0.4-0.4-0.4H39.6
					C39.4,57.6,39.2,57.8,39.2,58L39.2,58z"/>
				<path fill="#A0AFAE" d="M38.6,58.8c0,0.3,0.2,0.5,0.5,0.5h22.3c0.3,0,0.5-0.2,0.5-0.5l0,0c0-0.3-0.2-0.5-0.5-0.5H39
					C38.8,58.3,38.6,58.5,38.6,58.8L38.6,58.8z"/>
				<path fill="#869392" d="M41.4,44.8c0,1.4,1.2,2.6,2.6,2.6h12.3c1.4,0,2.6-1.2,2.6-2.6V26.1c0-1.4-1.2-2.6-2.6-2.6H44
					c-1.4,0-2.6,1.2-2.6,2.6V44.8z"/>
				<path fill="#A2AAAA" d="M44,23.5h12.3c1.4,0,2.6,1.2,2.6,2.6v18.7c0,1.4-1.2,2.6-2.6,2.6h-1.9L41.7,25
					C42.1,24.1,43,23.5,44,23.5z"/>
				<ellipse fill="#A2AAAA" cx="50.2" cy="35.7" rx="5.7" ry="8.5"/>
				<path fill="#BCC1C1" d="M50.2,27.2c3.1,0,5.7,3.8,5.7,8.5c0,3.6-1.5,6.6-3.5,7.9l-7-12.2C46.3,28.9,48.1,27.2,50.2,27.2z"/>
				<path fill="#869392" d="M55.2,55.4c0,0.3,0.2,0.5,0.5,0.5h2.8c0.3,0,0.5-0.2,0.5-0.5v-6.3c0-0.3-0.2-0.5-0.5-0.5h-2.8
					c-0.3,0-0.5,0.2-0.5,0.5V55.4z"/>
				<path fill="#869392" d="M41.4,55.4c0,0.3,0.2,0.5,0.5,0.5h2.8c0.3,0,0.5-0.2,0.5-0.5v-6.3c0-0.3-0.2-0.5-0.5-0.5h-2.8
					c-0.3,0-0.5,0.2-0.5,0.5V55.4z"/>
				<path fill="#A2AAAA" d="M55.3,48.9c0.1-0.1,0.2-0.2,0.4-0.2h2.8c0.3,0,0.5,0.2,0.5,0.5v6L55.3,48.9z"/>
				<rect x="38.1" y="59.1" fill="#869392" width="24.1" height="3.5"/>
				<polyline fill="#707F7E" points="62.2,59.1 38.1,59.1 38.1,62.6 				"/>
				<path fill="#869392" d="M37.5,62.8c0,0.1,0.1,0.2,0.2,0.2h24.9c0.1,0,0.2-0.1,0.2-0.2l0,0c0-0.1-0.1-0.2-0.2-0.2H37.8
					C37.6,62.6,37.5,62.7,37.5,62.8L37.5,62.8z"/>
				<path fill="#CBD8D8" d="M39.2,22.2c0,0.3,0.2,0.5,0.5,0.5h20.9c0.3,0,0.5-0.2,0.5-0.5l0,0c0-0.3-0.2-0.5-0.5-0.5H39.7
					C39.4,21.7,39.2,21.9,39.2,22.2L39.2,22.2z"/>
			</g>
		</g>
		<g>
			<path fill="#CBD8D8" d="M61.6,12.7c0,0.6-0.5,1-1,1H3.3c-0.6,0-1-0.5-1-1v-0.9c0-0.6,0.5-1,1-1h57.3c0.6,0,1,0.5,1,1V12.7z"/>
			<path fill="#BAC6C6" d="M60.6,10.8c0.6,0,1,0.5,1,1v0.9c0,0.6-0.5,1-1,1H3.3c-0.6,0-1-0.5-1-1"/>
		</g>
		<g>
			<path fill="#CBD8D8" d="M61.6,4.5c0,0.6-0.5,1-1,1H3.3c-0.6,0-1-0.5-1-1V3.6c0-0.6,0.5-1,1-1h57.3c0.6,0,1,0.5,1,1V4.5z"/>
			<path fill="#BAC6C6" d="M60.6,2.6c0.6,0,1,0.5,1,1v0.9c0,0.6-0.5,1-1,1H3.3c-0.6,0-1-0.5-1-1"/>
		</g>
	</g>
</g>
</svg>
