<?xml version="1.0" encoding="utf-8"?>
<!-- Generator: Adobe Illustrator 16.0.0, SVG Export Plug-In . SVG Version: 6.00 Build 0)  -->
<!DOCTYPE svg PUBLIC "-//W3C//DTD SVG 1.1//EN" "http://www.w3.org/Graphics/SVG/1.1/DTD/svg11.dtd">
<svg version="1.1" id="Layer_1" xmlns="http://www.w3.org/2000/svg" xmlns:xlink="http://www.w3.org/1999/xlink" x="0px" y="0px"
	 width="64px" height="64px" viewBox="0 0 64 64" enable-background="new 0 0 64 64" xml:space="preserve">
<g>
	<path fill="#1D5A70" d="M53.6,53c3-4,4.8-9.6,4.8-15.4c0-15.2-12.4-27.6-27.6-27.6S3.2,22.3,3.2,37.6C3.2,43.3,4.9,49,7.9,53H53.6z
		"/>
	<path fill="#143E49" d="M50,53c0.9-2,1.3-5.4,1.3-8.4c0-15.2-12.4-27.6-27.6-27.6c-5.8,0-11.2,1.8-15.7,4.9
		C5,26.5,3.2,31.8,3.2,37.6C3.2,43.3,4.9,49,7.9,53H50z"/>
	<g>
		<path fill="#FFB600" d="M20.2,45.9c0,1.1-0.9,1.9-1.9,1.9l-7.8,2.6c-1.1,0-0.5-3.4-0.5-4.5v-7c0-1.1,0.9-1.9,1.9-1.9H14
			c1.1,0,1.8,0.9,2.7,2.8L20.2,45.9z"/>
		<path fill="#FFB600" d="M14,44.2c0,0.3-0.1,2.8-0.3,2.8l-6-1.8c-0.3,0-0.6-0.3-0.6-0.6v-4C7,40.3,7.7,40,8,40h5.9
			c0.3,0,0.2,0.3,0.2,0.6V44.2z"/>
		<path fill="#FFB600" d="M21.9,45.9c0,1.1-2.6,1.9-3.6,1.9l-6.4,2.6c-1.1,0-1.9-3.4-1.9-4.5v-7c0-1.1,0.9-1.9,1.9-1.9H14
			c1.1,0,1.8,0.9,2.7,2.8L21.9,45.9z"/>
		<path fill="#FFB600" d="M33.2,49.5c0,1.9-1.6,3.5-3.5,3.5H15.8c-1.9,0-6.9-1.4-6.9-3.3l1.9-0.3c0-1.9,3.1-3.4,5.1-3.4h13.9
			C31.6,46,33.2,47.6,33.2,49.5L33.2,49.5z"/>
		<path fill="#FFA300" d="M35.1,51.5c0,1.2-1,2.5-2.2,2.5H6.6c-1.2,0-0.5-1.3-0.5-2.5l0,0c0-1.2,1-2.5,2.2-2.5h24.6
			C34.1,49,35.1,50.3,35.1,51.5L35.1,51.5z"/>
		<path fill="#FFA300" d="M32.9,49h-0.8c0,0,0,0.2,0,0.1c0-1.9-1.6-3.1-3.5-3.1h-8.5l-3.4-6c-0.9-1.9-1.7-3-2.7-3h-2.1
			c-0.8,0-1.4,0.5-1.7,1.2C9.5,38.3,9,39,9,39.8V40H8c-0.3,0-1,0.3-1,0.6v3.5c0,0.3,0.5,0.6,0.7,0.6l2.3,0.8v0.4
			c0,0.6,0.3,2,0.7,3.1c0,0.1,0-0.1,0,0l-0.6,0H8.4c-1.2,0-2.2,1.3-2.2,2.5c0,1.2-0.8,2.5,0.5,2.5h26.3c1.2,0,2.2-1.3,2.2-2.5
			C35.1,50.3,34.1,49,32.9,49z"/>
		<path fill="#FFA300" d="M32.9,49h-0.8c0,0,0,0.2,0,0.1c0-1.9-1.6-3.1-3.5-3.1h-8.5l-3.4-6c-0.9-1.9-1.7-3-2.7-3h-2.1
			c-0.8,0-1.4,0.5-1.7,1.2C9.5,38.3,9,39,9,39.8V40H7.5C7.2,40,7,40.3,7,40.6v3.5c0,0.3,0.5,0.6,0.7,0.6l2.3,0.8v0.4
			c0,0.6,0.3,2,0.7,3.1c0,0.1,0-0.1,0,0l-0.6,0H8.4c-1.2,0-2.2,1.3-2.2,2.5c0,1.2-0.8,2.5,0.5,2.5h26.3c1.2,0,2.2-1.3,2.2-2.5
			C35.1,50.3,34.1,49,32.9,49z"/>
		<path fill="#E58B15" d="M35.1,51.5c0-1.2-1-2.5-2.2-2.5h0h-0.8c0,0,0,0.2,0,0.1c0-1.9-1.6-3.1-3.5-3.1h-7.7h-0.8l-3.4-6
			c-0.9-1.9-1.7-3-2.7-3h-1.3c-0.8,0-1.3,0.5-1.6,1.2C10.4,38.3,10,39,10,39.8V40H8.8h0C8.5,40,8,40.3,8,40.6v3.5
			c0,0.3,0.3,0.5,0.7,0.7l2.3,0.8v0.4c0,0.6,0.2,2,0.6,3.1c0,0.1-0.1-0.1-0.1,0l-0.6,0h-0.8h-1c-1.2,0-2.2,1.3-2.2,2.5
			c0,1.2-0.8,2.5,0.5,2.5h25.5C34.1,54,35.1,52.7,35.1,51.5z"/>
		<path fill="#E58B15" d="M35.1,51.5c0-1.2-1-2.5-2.2-2.5h0h-0.8c0,0,0,0.2,0,0.1c0-1.9-1.6-3.1-3.5-3.1h-7.7h-0.8l-3.4-6
			c-0.9-1.9-1.7-3-2.7-3h-1.3c-0.8,0-1.3,0.5-1.6,1.2C10.4,38.3,10,39,10,39.8V40H8.8H8.4C8.2,40,8,40.3,8,40.6v3.5
			c0,0.3,0.4,0.5,0.7,0.7l2.3,0.8v0.4c0,0.6,0.2,2,0.6,3.1c0,0.1-0.1-0.1-0.1,0l-0.6,0h-0.8h-1c-1.2,0-2.2,1.3-2.2,2.5
			c0,1.2-0.8,2.5,0.5,2.5h25.5C34.1,54,35.1,52.7,35.1,51.5z"/>
		<path fill="#D1712A" d="M35.1,51.5c0-1.2-1-2.5-2.2-2.5h0h-0.8c0,0,0,0.2,0,0.1c0-1.9-1.6-3.1-3.5-3.1h-6.5h-0.8h-0.4h-0.8
			l-3.4-6.2C15.8,37.9,15.1,37,14,37h-0.1c-0.8,0-1.4,0.5-1.7,1.2C11.5,38.3,11,39,11,39.8V40h-1H9.5C9.2,40,9,40.3,9,40.6v3.5
			c0,0.3,0.3,0.5,0.7,0.6l2.3,0.8v0.4c0,0.6,0.3,2,0.7,3.1c0,0.1,0-0.1,0,0l-0.6,0h-0.8h-0.4h-0.5c-1.2,0-2.2,1.3-2.2,2.5
			c0,1.2-0.8,2.5,0.5,2.5h24.3C34.1,54,35.1,52.7,35.1,51.5z"/>
		<g>
			<polygon fill="#E87118" points="62.8,53 54,44.1 45.1,53 			"/>
			<polygon fill="#C65E09" points="62.8,53 54,44.1 46.5,53 			"/>
			<polygon fill="#AA5507" points="62.8,53 54,44.1 52.6,53 			"/>
		</g>
		<g>
			<polygon fill="#FFD400" points="57.4,53 46.4,42 35.4,53 			"/>
			<polygon fill="#FFB600" points="57.4,53 46.4,42 37.2,53 			"/>
			<polygon fill="#E58B15" points="57.4,53 46.4,42 44.8,53 			"/>
		</g>
		<path fill="#FFB600" d="M63,53.1c0,0.5-0.4,0.9-0.9,0.9H1.9C1.4,54,1,53.6,1,53.1v-0.2C1,52.4,1.4,52,1.9,52h60.2
			c0.5,0,0.9,0.4,0.9,0.9V53.1z"/>
	</g>
	<path fill="#C3D3D8" d="M13.5,26.8c0-3.1,2.2-5.8,5.1-6.5c-0.5-0.1-1.1-0.2-1.6-0.2c-3.7,0-6.7,3-6.7,6.7s3,6.7,6.7,6.7
		c0.6,0,1.1-0.1,1.6-0.2C15.6,32.5,13.5,29.9,13.5,26.8z"/>
	<path fill="#DAE5E8" d="M17.5,20.1c-3.4,0.4-6,3.2-6,6.7s2.6,6.3,6,6.7c0.4,0,0.7-0.1,1-0.2c-2.9-0.7-5.1-3.4-5.1-6.5
		c0-3.1,2.2-5.8,5.1-6.5C18.2,20.2,17.9,20.1,17.5,20.1z"/>
	<polygon fill="#D1712A" points="9.5,54 38.8,54 34.6,52 6,52 	"/>
	<g>
		<ellipse transform="matrix(0.702 0.7122 -0.7122 0.702 25.0099 -7.2204)" fill="#D1712A" cx="21.1" cy="26.3" rx="0.1" ry="1.7"/>
		
			<ellipse transform="matrix(-0.702 0.7122 -0.7122 -0.702 54.6804 29.6697)" fill="#D1712A" cx="21.1" cy="26.3" rx="0.1" ry="1.7"/>
	</g>
	<g>
		<ellipse fill="#D1712A" cx="29.6" cy="28.7" rx="0.1" ry="1.3"/>
		<ellipse fill="#D1712A" cx="29.6" cy="28.7" rx="1.3" ry="0.1"/>
	</g>
	<g>
		<ellipse fill="#FFB600" cx="40.8" cy="23.8" rx="0.1" ry="1.3"/>
		<ellipse fill="#FFB600" cx="40.8" cy="23.8" rx="1.3" ry="0.1"/>
	</g>
	<g>
		<ellipse fill="#DAE5E8" cx="29" cy="36.6" rx="0" ry="0.7"/>
		<ellipse fill="#DAE5E8" cx="29" cy="36.6" rx="0.7" ry="0"/>
	</g>
	<g>
		
			<ellipse transform="matrix(0.7115 -0.7027 0.7027 0.7115 -18.2013 38.7579)" fill="#DAE5E8" cx="38.1" cy="41.5" rx="0.1" ry="1.5"/>
		
			<ellipse transform="matrix(0.7071 0.7071 -0.7071 0.7071 40.5373 -14.772)" fill="#DAE5E8" cx="38.1" cy="41.5" rx="0.1" ry="1.5"/>
	</g>
</g>
</svg>
