<?xml version="1.0" encoding="utf-8"?>
<!-- Generator: Adobe Illustrator 16.0.0, SVG Export Plug-In . SVG Version: 6.00 Build 0)  -->
<!DOCTYPE svg PUBLIC "-//W3C//DTD SVG 1.1//EN" "http://www.w3.org/Graphics/SVG/1.1/DTD/svg11.dtd">
<svg version="1.1" xmlns="http://www.w3.org/2000/svg" xmlns:xlink="http://www.w3.org/1999/xlink" x="0px" y="0px" width="65px"
	 height="65px" viewBox="0 0 65 65" enable-background="new 0 0 65 65" xml:space="preserve">
<g id="Layer_1">
	<g>
		<g>
			<g>
				<circle fill="#F2D168" cx="32.5" cy="50.833" r="13.167"/>
				<path fill="#E2BE59" d="M45.667,50.833c0,7.273-5.896,13.168-13.167,13.168"/>
				<path fill="#F2D168" d="M39.999,43.833c0,4.143-3.357,7.5-7.499,7.5l0,0c-4.142,0-7.501-3.357-7.501-7.5V8.499
					c0-4.141,3.359-7.5,7.501-7.5l0,0c4.142,0,7.499,3.359,7.499,7.5V43.833z"/>
				<path fill="#EFDA75" d="M24.999,26.583V8.499c0-4.141,3.359-7.5,7.501-7.5l0,0"/>
			</g>
			<circle fill="#16C1A4" cx="32.5" cy="50.833" r="3.75"/>
			<path fill="#17ACBF" d="M36.25,50.833c0,2.072-1.679,3.75-3.75,3.75s-3.75-1.678-3.75-3.75"/>
			<path fill="#16C1A4" d="M33.625,50.208c0,0.621-0.504,1.125-1.125,1.125l0,0c-0.622,0-1.126-0.504-1.126-1.125V8.458
				c0-0.621,0.504-1.125,1.126-1.125l0,0c0.621,0,1.125,0.504,1.125,1.125V50.208z"/>
			<g>
				<path fill="#B79639" d="M38.499,14.749c0,0.139-0.112,0.25-0.25,0.25h-2.333c-0.14,0-0.25-0.111-0.25-0.25l0,0
					c0-0.139,0.11-0.25,0.25-0.25h2.333C38.387,14.499,38.499,14.61,38.499,14.749L38.499,14.749z"/>
				<path fill="#B79639" d="M38.499,16.687c0,0.139-0.112,0.25-0.25,0.25h-0.333c-0.14,0-0.25-0.111-0.25-0.25l0,0
					c0-0.139,0.11-0.25,0.25-0.25h0.333C38.387,16.437,38.499,16.548,38.499,16.687L38.499,16.687z"/>
			</g>
			<g>
				<path fill="#B79639" d="M38.499,18.749c0,0.139-0.112,0.25-0.25,0.25h-2.333c-0.14,0-0.25-0.111-0.25-0.25l0,0
					c0-0.139,0.11-0.25,0.25-0.25h2.333C38.387,18.499,38.499,18.61,38.499,18.749L38.499,18.749z"/>
				<path fill="#B79639" d="M38.499,20.687c0,0.139-0.112,0.25-0.25,0.25h-0.333c-0.14,0-0.25-0.111-0.25-0.25l0,0
					c0-0.139,0.11-0.25,0.25-0.25h0.333C38.387,20.437,38.499,20.548,38.499,20.687L38.499,20.687z"/>
			</g>
			<g>
				<path fill="#B79639" d="M38.499,22.749c0,0.139-0.112,0.25-0.25,0.25h-2.333c-0.14,0-0.25-0.111-0.25-0.25l0,0
					c0-0.139,0.11-0.25,0.25-0.25h2.333C38.387,22.499,38.499,22.61,38.499,22.749L38.499,22.749z"/>
				<path fill="#B79639" d="M38.499,24.687c0,0.139-0.112,0.25-0.25,0.25h-0.333c-0.14,0-0.25-0.111-0.25-0.25l0,0
					c0-0.139,0.11-0.25,0.25-0.25h0.333C38.387,24.437,38.499,24.548,38.499,24.687L38.499,24.687z"/>
			</g>
			<g>
				<path fill="#B79639" d="M38.499,26.749c0,0.139-0.112,0.25-0.25,0.25h-2.333c-0.14,0-0.25-0.111-0.25-0.25l0,0
					c0-0.139,0.11-0.25,0.25-0.25h2.333C38.387,26.499,38.499,26.61,38.499,26.749L38.499,26.749z"/>
				<path fill="#B79639" d="M38.499,28.687c0,0.139-0.112,0.25-0.25,0.25h-0.333c-0.14,0-0.25-0.111-0.25-0.25l0,0
					c0-0.139,0.11-0.25,0.25-0.25h0.333C38.387,28.437,38.499,28.548,38.499,28.687L38.499,28.687z"/>
			</g>
			<g>
				<path fill="#B79639" d="M38.499,30.749c0,0.139-0.112,0.25-0.25,0.25h-2.333c-0.14,0-0.25-0.111-0.25-0.25l0,0
					c0-0.139,0.11-0.25,0.25-0.25h2.333C38.387,30.499,38.499,30.61,38.499,30.749L38.499,30.749z"/>
				<path fill="#B79639" d="M38.499,32.687c0,0.139-0.112,0.25-0.25,0.25h-0.333c-0.14,0-0.25-0.111-0.25-0.25l0,0
					c0-0.139,0.11-0.25,0.25-0.25h0.333C38.387,32.437,38.499,32.548,38.499,32.687L38.499,32.687z"/>
			</g>
			<g>
				<path fill="#B79639" d="M38.499,34.749c0,0.139-0.112,0.25-0.25,0.25h-2.333c-0.14,0-0.25-0.111-0.25-0.25l0,0
					c0-0.139,0.11-0.25,0.25-0.25h2.333C38.387,34.499,38.499,34.61,38.499,34.749L38.499,34.749z"/>
				<path fill="#B79639" d="M38.499,36.687c0,0.139-0.112,0.25-0.25,0.25h-0.333c-0.14,0-0.25-0.111-0.25-0.25l0,0
					c0-0.139,0.11-0.25,0.25-0.25h0.333C38.387,36.437,38.499,36.548,38.499,36.687L38.499,36.687z"/>
			</g>
		</g>
		<path fill="#897440" d="M32.5,7.333c-0.622,0-1.126,0.504-1.126,1.125v31.375h2.251V8.458C33.625,7.837,33.121,7.333,32.5,7.333z"
			/>
	</g>
</g>
<g id="nyt_x5F_exporter_x5F_info" display="none">
</g>
</svg>
