<?xml version="1.0" encoding="utf-8"?>
<!-- Generator: Adobe Illustrator 16.0.0, SVG Export Plug-In . SVG Version: 6.00 Build 0)  -->
<!DOCTYPE svg PUBLIC "-//W3C//DTD SVG 1.1//EN" "http://www.w3.org/Graphics/SVG/1.1/DTD/svg11.dtd">
<svg version="1.1" id="Layer_1" xmlns="http://www.w3.org/2000/svg" xmlns:xlink="http://www.w3.org/1999/xlink" x="0px" y="0px"
	 width="64px" height="64px" viewBox="0 0 64 64" enable-background="new 0 0 64 64" xml:space="preserve">
<g>
	<g>
		<path fill="#16A885" d="M19.2,58.6c0,0-2.4-11.7-9.4-16.6c0,0,4.5,9.3,3.9,13.2l-5.5-5.8l2.6,7l-3.9-1.7l0.9,2.6l-2.2-0.2
			l-2.1-5.7l0.3,7.7l7.2,1l8.6,0.3L19.2,58.6z"/>
		<path fill="#16A885" d="M46.1,58.6c0,0,2.4-11.7,9.4-16.6c0,0-4.5,9.3-3.9,13.2l5.5-5.8l-2.6,7l3.9-1.7l-0.9,2.6l2.2-0.2l2.1-5.7
			l-0.3,7.7l-7.2,1l-8.6,0.3L46.1,58.6z"/>
	</g>
	<path fill="#25D3E5" d="M46.5,8.9l0.1-0.7c0-4.3-3.3-4.9-7.6-5c-1.5-1.4-3.8-1.9-6.4-1.9c-2.6,0-4.9,0.5-6.4,1.9
		c-4.2,0-7.6,0.7-7.6,5l0.1,0.7c-2.4,1.9-3.9,4.8-3.9,8.1l3.1,34.6c0,2.2,0.2,4.2,0.8,5.8h27.9c0.6-1.7,0.8-3.7,0.8-5.8L50.4,17
		C50.4,13.7,48.9,10.8,46.5,8.9z"/>
	<path fill="#17B4CE" d="M17.9,51.6c0,2.2,0.2,4.2,0.8,5.8h27.9c0.6-1.7,0.8-3.7,0.8-5.8L50.4,17c0-3.3-1.5-6.2-3.9-8.1l0.1-0.7
		c0-4.3-3.3-4.9-7.6-5c-1.5-1.4-3.8-1.9-6.4-1.9c-2.6,0-4.9,0.5-6.4,1.9"/>
	<path fill="#0B8AA8" d="M46.5,11.3l0.1-0.7c0-4.3-3.3-4.9-7.6-5c-1.5-1.4-3.8-1.9-6.4-1.9c-2.6,0-4.9,0.5-6.4,1.9
		c-4.2,0-7.6,0.7-7.6,5l0.1,0.7c-2.4,1.9-3.9,4.8-3.9,8.1L17.9,54c0,2.2,0.2,4.2,0.8,5.8h27.9c0.6-1.7,0.8-3.7,0.8-5.8l3.1-34.6
		C50.4,16.1,48.9,13.2,46.5,11.3z"/>
	<path fill="#06718E" d="M18.7,59.9h27.9c0.6-1.7,0.8-3.7,0.8-5.8l3.1-34.6c0-3.3-1.5-6.2-3.9-8.1l0.1-0.7c0-4.3-3.3-4.9-7.6-5
		c-1.5-1.4-3.8-1.9-6.4-1.9c-2.6,0-4.9,0.5-6.4,1.9"/>
	<path fill="#720404" d="M62.6,60.5c0,1.1-0.9,2.1-2.1,2.1H4.9c-1.1,0-2.1-0.9-2.1-2.1l0,0c0-1.1,0.9-2.1,2.1-2.1h55.6
		C61.6,58.5,62.6,59.4,62.6,60.5L62.6,60.5z"/>
	<g>
		<path fill="#FF9C39" d="M24.4,34.2h-1.3V23h2.4c1.3,0,2.4,1.1,2.4,2.4v1.7c0,0.6-0.3,1.2-0.7,1.7c0.5,0.5,0.8,1.1,0.8,1.8v3.7
			h-1.3v-3.7c0-0.6-0.5-1.1-1.1-1.1h-1.1V34.2z M24.4,24.3v3.8h1.1c0.6,0,1-0.5,1-1.1v-1.7c0-0.6-0.5-1.1-1.1-1.1H24.4z"/>
		<path fill="#FF9C39" d="M30.5,34.2h-1.3v-1.5h1.3V34.2z"/>
		<path fill="#FF9C39" d="M33.2,34.2h-1.3V23h1.3V34.2z"/>
		<path fill="#FF9C39" d="M35.9,34.2h-1.3v-1.5h1.3V34.2z"/>
		<path fill="#FF9C39" d="M42,27.1c0,1.3-1.1,2.4-2.4,2.4h-1.1v4.8h-1.3V23h2.4c1.3,0,2.4,1.1,2.4,2.4V27.1z M38.6,24.3v3.8h1.1
			c0.6,0,1.1-0.5,1.1-1.1v-1.7c0-0.6-0.5-1.1-1.1-1.1H38.6z"/>
		<path fill="#FF9C39" d="M42.2,34.2h-1.3v-1.5h1.3V34.2z"/>
	</g>
	<circle fill="#17B4CE" cx="32.6" cy="10.9" r="2"/>
	<circle fill="#FF9C39" cx="32.6" cy="11.6" r="2"/>
	<path fill="#17B4CE" d="M44.1,37.3c0,0.2-0.2,0.4-0.4,0.4H21.6c-0.2,0-0.4-0.2-0.4-0.4l0,0c0-0.2,0.2-0.4,0.4-0.4h22.1
		C43.9,36.9,44.1,37.1,44.1,37.3L44.1,37.3z"/>
	<path fill="#17B4CE" d="M44.1,41.2c0,0.2-0.2,0.4-0.4,0.4H21.6c-0.2,0-0.4-0.2-0.4-0.4l0,0c0-0.2,0.2-0.4,0.4-0.4h22.1
		C43.9,40.7,44.1,40.9,44.1,41.2L44.1,41.2z"/>
	<path fill="#0B8AA8" d="M8.5,8.5c0,0.6-0.5,1.2-1.2,1.2l0,0c-0.6,0-1.2-0.5-1.2-1.2l0,0c0-0.6,0.5-1.2,1.2-1.2l0,0
		C8,7.4,8.5,7.9,8.5,8.5L8.5,8.5z"/>
	<circle fill="#0B8AA8" cx="12.4" cy="7.2" r="2.1"/>
	<circle fill="#0B8AA8" cx="11.5" cy="14.7" r="0.9"/>
	<circle fill="#0B8AA8" cx="9.4" cy="19.1" r="0.6"/>
	<circle fill="#0B8AA8" cx="11.1" cy="26.4" r="1.8"/>
</g>
</svg>
