<?xml version="1.0" encoding="utf-8"?>
<!-- Generator: Adobe Illustrator 16.0.0, SVG Export Plug-In . SVG Version: 6.00 Build 0)  -->
<!DOCTYPE svg PUBLIC "-//W3C//DTD SVG 1.1//EN" "http://www.w3.org/Graphics/SVG/1.1/DTD/svg11.dtd">
<svg version="1.1" id="Layer_1" xmlns="http://www.w3.org/2000/svg" xmlns:xlink="http://www.w3.org/1999/xlink" x="0px" y="0px"
	 width="64px" height="64px" viewBox="0 0 64 64" enable-background="new 0 0 64 64" xml:space="preserve">
<g>
	<g>
		<circle fill="#5E6664" cx="32" cy="31.9" r="31.1"/>
		<path fill="#2F423F" d="M54,9.9C66.1,22,66.1,41.7,54,53.8S22.2,66,10,53.8"/>
	</g>
	<g>
		<polygon fill="#51D687" points="62.7,48.4 32,63.2 1.3,48.4 6.2,22 32,16.3 57.8,22 		"/>
		<polyline fill="#3CC676" points="6.2,22 32,16.3 57.8,22 62.7,48.4 32,63.2 		"/>
		<g>
			<polygon fill="#51D687" points="4.4,13.6 18.6,6.8 32.7,13.6 30.4,25.8 18.6,32.2 6.7,25.8 			"/>
			<polyline fill="#3CC676" points="18.6,6.8 32.7,13.6 30.4,25.8 18.6,32.2 9.5,27.4 			"/>
			<polygon fill="#51D687" points="31.3,13.6 45.4,6.8 59.6,13.6 57.3,25.8 45.4,32.2 33.6,25.8 			"/>
			<polyline fill="#3CC676" points="45.4,6.8 59.6,13.6 57.3,25.8 45.4,32.2 33.6,25.8 			"/>
		</g>
		<g>
			<g>
				<path fill="#5E6664" d="M22.1,20.3c0,1.6-1.4,2.8-3.2,2.8c-1.7,0-3.2-1.3-3.2-2.8c0-1.6,1.4-2.8,3.2-2.8
					C20.7,17.5,22.1,18.8,22.1,20.3z"/>
				<path fill="#2F423F" d="M21.2,18.3c1.2,1.1,1.2,2.9,0,4c-1.2,1.1-3.2,1.1-4.5,0"/>
			</g>
			<g>
				<path fill="#5E6664" d="M48.2,20.3c0,1.6-1.4,2.8-3.2,2.8c-1.7,0-3.2-1.3-3.2-2.8c0-1.6,1.4-2.8,3.2-2.8
					C46.8,17.5,48.2,18.8,48.2,20.3z"/>
				<path fill="#2F423F" d="M47.3,18.3c1.2,1.1,1.2,2.9,0,4c-1.2,1.1-3.2,1.1-4.5,0"/>
			</g>
		</g>
		<polygon fill="#FCCC32" points="55.8,51.7 32,63.2 8.2,51.7 12,31.4 32,26.9 52,31.4 		"/>
		<polyline fill="#EAAC0F" points="32,26.9 52,31.4 55.8,51.7 32,63.2 		"/>
		<polygon fill="#F15249" points="20.2,38 32,45.6 43.8,38 		"/>
		<polygon fill="#C93131" points="30.1,38 32,45.6 43.8,38 		"/>
	</g>
</g>
</svg>
