<?xml version="1.0" encoding="utf-8"?>
<!-- Generator: Adobe Illustrator 16.0.0, SVG Export Plug-In . SVG Version: 6.00 Build 0)  -->
<!DOCTYPE svg PUBLIC "-//W3C//DTD SVG 1.1//EN" "http://www.w3.org/Graphics/SVG/1.1/DTD/svg11.dtd">
<svg version="1.1" id="Layer_1" xmlns="http://www.w3.org/2000/svg" xmlns:xlink="http://www.w3.org/1999/xlink" x="0px" y="0px"
	 width="64px" height="64px" viewBox="0 0 64 64" enable-background="new 0 0 64 64" xml:space="preserve">
<g>
	<g>
		<circle fill="#DD4343" cx="32.7" cy="32" r="31"/>
		<g>
			<path fill="#617F79" d="M19.1,46l-3,11.6c0,4.9,3.9,5.4,8.8,5.4h15.6c4.9,0,8.8-0.6,8.8-5.4l-3-11.6H19.1z"/>
			<path fill="#FFFFFF" d="M59.7,27.5c0-14.9-12.1-26.9-27-26.9S5.5,12.6,5.5,27.5c0,9.7,5.5,18.1,12.5,22.9v8.3
				c0,1.7,2.1,3.4,4.1,3.4h21.2c2,0,3.7-1.7,3.7-3.4v-8.3C55,45.6,59.7,37.1,59.7,27.5z"/>
			<path fill="#E2F2EF" d="M59.7,27.5c0-14.9-12.1-24.7-27-24.7S5.5,12.6,5.5,27.5c0,9.7,5.5,18.1,12.5,22.9v8.3
				c0,1.7,2.1,3.4,4.1,3.4h21.2c2,0,3.7-1.7,3.7-3.4v-8.3C55,45.6,59.7,37.1,59.7,27.5z"/>
			<path fill="#C7E2DD" d="M32.6,61.7l10.7,0c2,0,3.7-1.4,3.7-3.1v-8.3c8-4.8,12.7-13.2,12.7-22.9c0-14.9-12.1-24.8-27-24.8"/>
			<path fill="#617F79" d="M27,60V48.8c0-0.6-0.4-1-1-1s-1,0.4-1,1V60H27z"/>
			<path fill="#617F79" d="M34,60V48.8c0-0.6-0.4-1-1-1s-1,0.4-1,1V60H34z"/>
			<path fill="#617F79" d="M41,60V48.8c0-0.6-0.4-1-1-1s-1,0.4-1,1V60H41z"/>
			<g>
				<path fill="#9CBCB6" d="M25.6,29.3c0,4.1-3.3,10.5-7.5,10.5c-4.1,0-7.5-6.3-7.5-10.5s3.3-8.5,7.5-8.5
					C22.3,20.9,25.6,25.2,25.6,29.3z"/>
				<path fill="#7FA39C" d="M54.7,29.3c0,4.1-3.3,10.5-7.5,10.5c-4.1,0-7.5-6.3-7.5-10.5s3.3-8.5,7.5-8.5
					C51.4,20.9,54.7,25.2,54.7,29.3z"/>
				<circle fill="#660303" cx="18.2" cy="30.6" r="7.5"/>
				<path fill="#960E08" d="M23.4,25.3c2.9,2.9,2.9,7.6,0,10.6s-7.6,2.9-10.6,0"/>
				<circle fill="#660303" cx="47.2" cy="30.6" r="7.5"/>
				<path fill="#960E08" d="M52.5,25.3c2.9,2.9,2.9,7.6,0,10.6c-2.9,2.9-7.6,2.9-10.6,0"/>
			</g>
			<path fill="#8FA8A3" d="M12,39.6c-1.1,0-2.3,0.3-3.2,0.8c2.2,4,6.2,7.4,9.2,9.9v-4.4C18,42.4,15.4,39.6,12,39.6z"/>
			<path fill="#617F79" d="M18,50v-4.1c0-3.5-2.8-6.4-6.2-6.4"/>
			<path fill="#8FA8A3" d="M56.3,40.4c-0.9-0.5-2-0.8-3.1-0.8c-3.5,0-6.2,2.8-6.2,6.2v4.4C51,47.9,54.1,44.5,56.3,40.4z"/>
			<path fill="#617F79" d="M53.2,39.5c-3.5,0-6.2,3-6.2,6.4V50"/>
			<path fill="#E2F2EF" d="M9.5,39c0,1.1-0.9,2-2,2l0,0c-1.1,0-2-0.9-2-2V27.8c0-1.1,0.9-2,2-2l0,0c1.1,0,2,0.9,2,2V39z"/>
			<path fill="#C7E2DD" d="M59.7,38.9c0,1.1-0.9,2-2,2l0,0c-1.1,0-2-0.9-2-2V27.7c0-1.1,0.9-2,2-2l0,0c1.1,0,2,0.9,2,2V38.9z"/>
			<g>
				<g>
					<g>
						<g>
							<path fill="#9CBCB6" d="M35.3,41.5c-1.1,0-2-0.6-2.3-1.5c0-0.1-0.1-0.1-0.2-0.1c-0.1,0-0.2,0-0.2,0.1
								c-0.3,0.9-1.3,1.5-2.3,1.5c-1.4,0-2.5-1-2.5-2.2c0-0.4,0.1-0.9,0.4-1.2c0,0,0,0,0,0c0,0,0,0,0,0l4.6-7.9l4.6,7.9c0,0,0,0,0,0
								c0,0,0,0,0,0c0.3,0.4,0.4,0.8,0.4,1.2C37.7,40.5,36.6,41.5,35.3,41.5z"/>
						</g>
					</g>
					<g>
						<g>
							<path fill="#960E08" d="M35.3,41.9c-1.1,0-2-0.6-2.3-1.5c0-0.1-0.1-0.1-0.2-0.1c-0.1,0-0.2,0-0.2,0.1
								c-0.3,0.9-1.3,1.5-2.3,1.5c-1.4,0-2.5-1-2.5-2.2c0-0.4,0.1-0.9,0.4-1.2l0,0c0,0,0,0,0,0l4.6-5.4l4.6,5.4c0,0,0,0,0,0l0,0
								c0.3,0.4,0.4,0.8,0.4,1.2C37.7,40.9,36.6,41.9,35.3,41.9z"/>
						</g>
					</g>
					<g>
						<g>
							<path fill="#660303" d="M32.7,40.3c-0.1,0-0.2,0-0.2,0.1c-0.3,0.9-1.3,1.5-2.3,1.5c-1.4,0-2.5-1-2.5-2.2
								c0-0.4,0.1-0.9,0.4-1.2l0,0c0,0,0,0,0,0l4.6-5.4 M37.3,38.5"/>
						</g>
					</g>
				</g>
			</g>
			<path fill="#9CBCB6" d="M33,31.5c0,0.3-0.2,0.5-0.5,0.5l0,0c-0.3,0-0.5-0.2-0.5-0.5v-7c0-0.3,0.2-0.5,0.5-0.5l0,0
				c0.3,0,0.5,0.2,0.5,0.5V31.5z"/>
			<path fill="#FFFFFF" d="M8,37.4C8,37.7,7.9,38,7.5,38l0,0C7.1,38,7,37.7,7,37.4v-8.1c0-0.4,0.1-0.7,0.5-0.7l0,0
				c0.4,0,0.5,0.3,0.5,0.7V37.4z"/>
			<circle fill="#FFFFFF" cx="7.4" cy="26.5" r="0.8"/>
			<g>
				<circle fill="#9CBCB6" cx="32.7" cy="8.3" r="1.2"/>
				<path fill="#E2F2EF" d="M32.7,7.1c0.6,0,1.2,0.5,1.2,1.2c0,0.6-0.5,1.2-1.2,1.2"/>
			</g>
			<g>
				<circle fill="#9CBCB6" cx="32.7" cy="13.8" r="1.2"/>
				<path fill="#E2F2EF" d="M32.7,12.7c0.6,0,1.2,0.5,1.2,1.2c0,0.6-0.5,1.2-1.2,1.2"/>
			</g>
			<g>
				<circle fill="#9CBCB6" cx="32.7" cy="19.4" r="1.2"/>
				<path fill="#E2F2EF" d="M32.7,18.2c0.6,0,1.2,0.5,1.2,1.2c0,0.6-0.5,1.2-1.2,1.2"/>
			</g>
			<g>
				<g>
					<path fill="#8FA8A3" d="M27,62V50c0-0.6-0.4-1-1-1s-1,0.4-1,1v12H27z"/>
					<path fill="#76938D" d="M27,62V50c0-0.6-0.6-1-1.2-1s-0.9,0.6-0.9,1.2"/>
				</g>
				<g>
					<path fill="#8FA8A3" d="M34,62V50c0-0.6-0.4-1-1-1s-1,0.4-1,1v12H34z"/>
					<path fill="#76938D" d="M34,62V50c0-0.6-0.6-1-1.1-1s-0.9,0.6-0.9,1.2"/>
				</g>
				<g>
					<path fill="#8FA8A3" d="M41,62V50c0-0.6-0.4-1-1-1s-1,0.4-1,1v12H41z"/>
					<path fill="#76938D" d="M41,62V50c0-0.6-0.6-1-1.1-1s-0.9,0.6-0.9,1.2"/>
				</g>
			</g>
		</g>
	</g>
	<g>
		<polygon fill="#DD4343" points="17.7,14.5 16.7,15.6 18.6,17.6 20.6,15.6 19.5,14.5 18.6,15.4 		"/>
		<polygon fill="#DD4343" points="19.5,12.4 18.6,13.3 17.7,12.4 16.7,13.5 17.7,14.5 18.6,13.6 19.5,14.5 20.6,13.5 		"/>
		<polygon fill="#DD4343" points="19.5,12.4 20.6,11.3 18.6,9.4 16.7,11.3 17.7,12.4 18.6,11.5 		"/>
	</g>
</g>
</svg>
