<?xml version="1.0" encoding="utf-8"?>
<!-- Generator: Adobe Illustrator 16.0.0, SVG Export Plug-In . SVG Version: 6.00 Build 0)  -->
<!DOCTYPE svg PUBLIC "-//W3C//DTD SVG 1.1//EN" "http://www.w3.org/Graphics/SVG/1.1/DTD/svg11.dtd">
<svg version="1.1" id="Layer_1" xmlns="http://www.w3.org/2000/svg" xmlns:xlink="http://www.w3.org/1999/xlink" x="0px" y="0px"
	 width="64px" height="64px" viewBox="0 0 64 64" enable-background="new 0 0 64 64" xml:space="preserve">
<g>
	<path fill="#096814" d="M18.6,63.2c0-2.6,6.3-4.6,14.1-4.6s14.1,2.1,14.1,4.6"/>
	<path fill="#118922" d="M36.1,59.6c0,1.9-1.5,3.4-3.4,3.4l0,0c-1.9,0-3.4-1.5-3.4-3.4v-5.9c0-1.9,1.5-3.4,3.4-3.4l0,0
		c1.9,0,3.4,1.5,3.4,3.4V59.6z"/>
	<path fill="#096814" d="M32.7,50.3L32.7,50.3c1.9,0,3.4,1.5,3.4,3.4v5.9c0,1.9-1.5,3.4-3.4,3.4l0,0"/>
	<g>
		<g>
			<ellipse transform="matrix(0.9278 -0.373 0.373 0.9278 -9.7323 6.1184)" fill="#189B2A" cx="10.9" cy="28.2" rx="5.2" ry="7.5"/>
			
				<ellipse transform="matrix(-0.9278 -0.3731 0.3731 -0.9278 94.5472 74.7162)" fill="#118922" cx="54.5" cy="28.2" rx="5.2" ry="7.5"/>
		</g>
		<path fill="#21B53C" d="M53.7,25.3c0-12.5-9.4-20.3-21-20.3c-11.6,0-21,7.8-21,20.3c0,7.7,3.6,14.6,9.1,18.7v1.4
			c0,6.6,5.3,11.9,11.9,11.9h0.1c6.6,0,11.9-5.3,11.9-11.9V44C50.1,39.9,53.7,33.1,53.7,25.3z"/>
		<path fill="#189B2A" d="M32.7,57.3h0.1c6.6,0,11.9-5.3,11.9-11.9V44c5.5-4.1,9.1-10.9,9.1-18.7c0-12.5-9.4-20.3-21-20.3"/>
		<g>
			<g>
				<path fill="#102D35" d="M17.5,26.9c0.2,3.6,3.1,6.4,6.7,6.4s6.5-2.8,6.7-6.4H17.5z"/>
				<path fill="#118922" d="M17.5,26.9c0.2,3.6,3.1,8,6.7,8s6.5-4.5,6.7-8H17.5z"/>
				<path fill="#102D35" d="M17.5,26.9c0.2,3.6,3.1,6.4,6.7,6.4s6.5-2.8,6.7-6.4H17.5z"/>
				<path fill="#065177" d="M17.6,27.5c0.5,3,3.3,4.1,6.6,4.1c3.4,0,6.1-1.1,6.6-4.1H17.6z"/>
				<g>
					<circle fill="#EAD724" cx="24.3" cy="29.3" r="1"/>
					<circle fill="#F9F8ED" cx="23.9" cy="28.9" r="0.5"/>
				</g>
			</g>
			<g>
				<path fill="#102D35" d="M34.5,26.9c0.2,3.6,3.1,6.4,6.7,6.4s6.5-2.8,6.7-6.4H34.5z"/>
				<path fill="#118922" d="M34.5,26.9c0.2,3.6,3.1,8,6.7,8s6.5-4.5,6.7-8H34.5z"/>
				<path fill="#102D35" d="M34.5,26.9c0.2,3.6,3.1,6.4,6.7,6.4s6.5-2.8,6.7-6.4H34.5z"/>
				<path fill="#065177" d="M34.6,27.5c0.5,3,3.3,4.1,6.6,4.1c3.4,0,6.1-1.1,6.6-4.1H34.6z"/>
				<g>
					<circle fill="#EAD724" cx="41.2" cy="29.3" r="1"/>
					<circle fill="#F9F8ED" cx="40.9" cy="28.9" r="0.5"/>
				</g>
			</g>
		</g>
		<g>
			<circle fill="#102D35" cx="31.1" cy="35.6" r="1.1"/>
			<circle fill="#102D35" cx="34.4" cy="35.6" r="1.1"/>
		</g>
		<path fill="#118922" d="M39.5,46.5c-0.2-3.6-3.1-6.4-6.7-6.4S26.2,43,26,46.5H39.5z"/>
		<path fill="#490707" d="M39.5,47.2c-0.2-3.6-3.1-6.4-6.7-6.4s-6.5,2.8-6.7,6.4H39.5z"/>
		<path fill="#960E08" d="M39.5,47.2c-0.2-0.9-3.1-1.5-6.7-1.5s-6.5,0.7-6.7,1.5H39.5z"/>
		<g>
			<path fill="#102D35" d="M29.9,23.4c0,0.5-0.4,0.8-0.8,0.8H16.6c-0.5,0-0.8-0.4-0.8-0.8l0,0c0-0.5,0.4-0.8,0.8-0.8H29
				C29.5,22.5,29.9,22.9,29.9,23.4L29.9,23.4z"/>
			<path fill="#102D35" d="M49.7,23.4c0,0.5-0.4,0.8-0.8,0.8H36.4c-0.5,0-0.8-0.4-0.8-0.8l0,0c0-0.5,0.4-0.8,0.8-0.8h12.4
				C49.3,22.5,49.7,22.9,49.7,23.4L49.7,23.4z"/>
		</g>
		<g>
			<path fill="#118922" d="M38.8,18.1c0,0.2-0.2,0.4-0.4,0.4H27c-0.2,0-0.4-0.2-0.4-0.4l0,0c0-0.2,0.2-0.4,0.4-0.4h11.4
				C38.6,17.8,38.8,17.9,38.8,18.1L38.8,18.1z"/>
			<path fill="#118922" d="M38.8,15.5c0,0.2-0.2,0.4-0.4,0.4H27c-0.2,0-0.4-0.2-0.4-0.4l0,0c0-0.2,0.2-0.4,0.4-0.4h11.4
				C38.6,15.2,38.8,15.3,38.8,15.5L38.8,15.5z"/>
			<path fill="#118922" d="M38.8,12.9c0,0.2-0.2,0.4-0.4,0.4H27c-0.2,0-0.4-0.2-0.4-0.4l0,0c0-0.2,0.2-0.4,0.4-0.4h11.4
				C38.6,12.6,38.8,12.7,38.8,12.9L38.8,12.9z"/>
		</g>
		<path fill="#EAD724" d="M27.9,17.2l-0.9-0.9l0.9-0.9c0.9-0.9,0.9-2.4,0-3.3c-0.9-0.9-2.4-0.9-3.3,0L23.7,13l-0.9-0.9
			c-0.9-0.9-2.4-0.9-3.3,0c-0.9,0.9-0.9,2.4,0,3.3l0.9,0.9l-0.9,0.9c-0.9,0.9-0.9,2.4,0,3.3c0.9,0.9,2.4,0.9,3.3,0l0.9-0.9l0.9,0.9
			c0.9,0.9,2.4,0.9,3.3,0C28.8,19.6,28.8,18.1,27.9,17.2z"/>
		<path fill="#CCB615" d="M23.7,19.5l0.9,0.9c0.9,0.9,2.4,0.9,3.3,0c0.9-0.9,0.9-2.4,0-3.3l-0.9-0.9l0.9-0.9c0.9-0.9,0.9-2.4,0-3.3
			c-0.9-0.9-2.4-0.9-3.3,0L23.7,13"/>
		<path fill="#EAD724" d="M19.5,15.3"/>
		<path fill="#065177" d="M42.3,4.7c0,2.2-1.8,4-4,4H27.2c-2.2,0-4-1.8-4-4l0,0c0-2.2,1.8-4,4-4h11.1C40.5,0.7,42.3,2.5,42.3,4.7
			L42.3,4.7z"/>
		<path fill="#102D35" d="M42.3,4.7L42.3,4.7c0,2.2-1.8,4-4,4H27.2c-2.2,0-4-1.8-4-4l0,0"/>
	</g>
	
		<ellipse transform="matrix(0.7965 0.6046 -0.6046 0.7965 37.2172 -5.3172)" fill="#2BCC42" cx="26.5" cy="52.6" rx="3.9" ry="1.2"/>
	<path fill="#2BCC42" d="M21,41c-0.9,0.6-3-1.1-4.7-3.8c-1.7-2.7-2.4-5.3-1.5-5.8c0.9-0.6,3,1.1,4.7,3.8C21.3,37.8,21.9,40.4,21,41z
		"/>
	
		<ellipse transform="matrix(-6.667568e-02 0.9978 -0.9978 -6.667568e-02 39.682 13.3636)" fill="#2BCC42" cx="13.6" cy="25.2" rx="3.3" ry="1.1"/>
	<circle fill="#2BCC42" cx="40.6" cy="37.2" r="0.7"/>
	<circle fill="#2BCC42" cx="43.2" cy="35.7" r="0.3"/>
	<circle fill="#2BCC42" cx="26" cy="36.1" r="0.3"/>
	<circle fill="#2BCC42" cx="24.9" cy="39.2" r="0.3"/>
	<circle fill="#2BCC42" cx="27.8" cy="37.4" r="0.7"/>
	<circle fill="#2BCC42" cx="22.2" cy="34.8" r="0.4"/>
	<circle fill="#2BCC42" cx="31.8" cy="32.4" r="0.3"/>
	<circle fill="#2BCC42" cx="43.4" cy="39.2" r="0.4"/>
	<path fill="#2BCC42" d="M36.6,47.4l-0.1,3c0,0,0.2,2.2,1.1,0.8l0.1,3.8c0,0,0.4,1.2,0.9-0.6c0,0,0.5,6.8,0.8,4.4s0-11.5,0-11.5
		L36.6,47.4z"/>
</g>
</svg>
