<?xml version="1.0" encoding="utf-8"?>
<!-- Generator: Adobe Illustrator 16.0.0, SVG Export Plug-In . SVG Version: 6.00 Build 0)  -->
<!DOCTYPE svg PUBLIC "-//W3C//DTD SVG 1.1//EN" "http://www.w3.org/Graphics/SVG/1.1/DTD/svg11.dtd">
<svg version="1.1" id="Layer_1" xmlns="http://www.w3.org/2000/svg" xmlns:xlink="http://www.w3.org/1999/xlink" x="0px" y="0px"
	 width="64px" height="64px" viewBox="0 0 64 64" enable-background="new 0 0 64 64" xml:space="preserve">
<g>
	<g>
		<path fill="#CCCCCC" d="M32,57.3c-0.2,0-0.4-0.1-0.6-0.2l-20.8-12c-0.4-0.2-0.6-0.6-0.6-1.1V20c0-0.4,0.2-0.9,0.6-1.1l20.8-12
			c0.4-0.2,0.9-0.2,1.2,0l20.8,12c0.4,0.2,0.6,0.6,0.6,1.1V44c0,0.4-0.2,0.9-0.6,1.1l-20.8,12C32.4,57.2,32.2,57.3,32,57.3z
			 M12.4,43.3L32,54.6l19.6-11.3V20.7L32,9.4L12.4,20.7V43.3z"/>
	</g>
	<g>
		<path fill="#CCCCCC" d="M32,49.6c-0.2,0-0.4-0.1-0.6-0.2l-14.1-8.2c-0.4-0.2-0.6-0.6-0.6-1.1V23.8c0-0.4,0.2-0.9,0.6-1.1l14.1-8.2
			c0.4-0.2,0.9-0.2,1.2,0l14.1,8.2c0.4,0.2,0.6,0.6,0.6,1.1v16.3c0,0.4-0.2,0.9-0.6,1.1l-14.1,8.2C32.4,49.5,32.2,49.6,32,49.6z
			 M19.1,39.4L32,46.9l12.9-7.4V24.6L32,17.1l-12.9,7.4V39.4z"/>
	</g>
	<g>
		<path fill="#CCCCCC" d="M32,41.3c-0.2,0-0.4-0.1-0.6-0.2L24,36.9c-0.4-0.2-0.6-0.6-0.6-1.1v-8.6c0-0.4,0.2-0.9,0.6-1.1l7.4-4.3
			c0.4-0.2,0.9-0.2,1.2,0l7.4,4.3c0.4,0.2,0.6,0.6,0.6,1.1v8.6c0,0.4-0.2,0.9-0.6,1.1l-7.4,4.3C32.4,41.3,32.2,41.3,32,41.3z
			 M25.8,35.1l6.2,3.6l6.2-3.6v-7.1L32,24.4l-6.2,3.6V35.1z"/>
	</g>
	<g>
		<g>
			<g>
				<path fill="#CCCCCC" d="M32,63c-0.5,0-0.8-0.4-0.8-0.8V1.8C31.2,1.4,31.5,1,32,1c0.5,0,0.8,0.4,0.8,0.8v60.4
					C32.8,62.6,32.5,63,32,63z"/>
			</g>
			<g>
				<path fill="#CCCCCC" d="M62.2,32.8H1.8C1.4,32.8,1,32.5,1,32s0.4-0.8,0.8-0.8h60.3c0.5,0,0.8,0.4,0.8,0.8S62.6,32.8,62.2,32.8z"
					/>
			</g>
		</g>
		<g>
			<g>
				<path fill="#CCCCCC" d="M10.7,54.2c-0.2,0-0.4-0.1-0.6-0.2c-0.3-0.3-0.3-0.8,0-1.2l42.7-42.7c0.3-0.3,0.8-0.3,1.2,0
					c0.3,0.3,0.3,0.8,0,1.2L11.2,53.9C11.1,54.1,10.9,54.2,10.7,54.2z"/>
			</g>
			<g>
				<path fill="#CCCCCC" d="M53.3,54.2c-0.2,0-0.4-0.1-0.6-0.2L10.1,11.2c-0.3-0.3-0.3-0.8,0-1.2c0.3-0.3,0.8-0.3,1.2,0l42.7,42.7
					c0.3,0.3,0.3,0.8,0,1.2C53.8,54.1,53.5,54.2,53.3,54.2z"/>
			</g>
		</g>
	</g>
	<g>
		<g>
			<g>
				<path fill="#CCCCCC" d="M20.2,60.2c-0.1,0-0.1,0-0.2,0c-0.2-0.1-0.3-0.3-0.2-0.5L43.4,4.1c0.1-0.2,0.3-0.3,0.5-0.2
					c0.2,0.1,0.3,0.3,0.2,0.5L20.6,59.9C20.5,60.1,20.3,60.2,20.2,60.2z"/>
			</g>
			<g>
				<path fill="#CCCCCC" d="M59.8,44.2c-0.1,0-0.1,0-0.2,0L4.1,20.6c-0.2-0.1-0.3-0.3-0.2-0.5c0.1-0.2,0.3-0.3,0.5-0.2l55.5,23.6
					c0.2,0.1,0.3,0.3,0.2,0.5C60.1,44.1,59.9,44.2,59.8,44.2z"/>
			</g>
		</g>
		<g>
			<g>
				<path fill="#CCCCCC" d="M4,43.7c-0.2,0-0.3-0.1-0.4-0.3c-0.1-0.2,0-0.5,0.2-0.5l56-22.5c0.2-0.1,0.5,0,0.5,0.2
					c0.1,0.2,0,0.5-0.2,0.5l-56,22.5C4.1,43.7,4.1,43.7,4,43.7z"/>
			</g>
			<g>
				<path fill="#CCCCCC" d="M43.3,60.4c-0.2,0-0.3-0.1-0.4-0.3l-22.5-56c-0.1-0.2,0-0.5,0.2-0.5c0.2-0.1,0.5,0,0.5,0.2l22.5,56
					c0.1,0.2,0,0.5-0.2,0.5C43.4,60.4,43.3,60.4,43.3,60.4z"/>
			</g>
		</g>
	</g>
</g>
</svg>
