<?xml version="1.0" encoding="utf-8"?>
<!-- Generator: Adobe Illustrator 16.0.0, SVG Export Plug-In . SVG Version: 6.00 Build 0)  -->
<!DOCTYPE svg PUBLIC "-//W3C//DTD SVG 1.1//EN" "http://www.w3.org/Graphics/SVG/1.1/DTD/svg11.dtd">
<svg version="1.1" id="Layer_1" xmlns="http://www.w3.org/2000/svg" xmlns:xlink="http://www.w3.org/1999/xlink" x="0px" y="0px"
	 width="64px" height="64px" viewBox="0 0 64 64" enable-background="new 0 0 64 64" xml:space="preserve">
<g>
	<g>
		<g>
			<path fill="#08BF9C" d="M21.9,12.3c0,0-2.5-2.8,0.5-7c3.1-4.2,9.6,7.8,9.6,7.8s-5.7,39.7-13.7,31.8c-9.5-9.3-16.5-1.1-16.5-1.1
				l2.6-4l-3.7-0.3c0,0,6.4-5.4,12.3-2.1c8.5,4.7,11.2,0.9,12.1-4.1c0.9-5,0.5-16,0.5-16s-5.3,3.3-6.1,1c-0.8-2.3-0.6-1.4-0.5-2.8
				C19.1,14,21.9,12.3,21.9,12.3z"/>
			<path fill="#00846B" d="M22.4,5.3c3.1-4.2,9.6,7.8,9.6,7.8s-5.7,39.7-13.7,31.8c-9.5-9.3-16.5-1.1-16.5-1.1l2.6-4l-3.7-0.3
				c0,0,6.4-5.4,12.3-2.1c8.5,4.7,11.2,0.9,12.1-4.1c0.9-5,0.5-16,0.5-16"/>
		</g>
		<g>
			<path fill="#08BF9C" d="M42.1,12.3c0,0,2.5-2.8-0.5-7c-3.1-4.2-9.6,7.8-9.6,7.8s5.7,39.7,13.7,31.8c9.5-9.3,16.5-1.1,16.5-1.1
				l-2.6-4l3.7-0.3c0,0-6.4-5.4-12.3-2.1c-8.5,4.7-11.2,0.9-12.1-4.1c-0.9-5-0.5-16-0.5-16s5.3,3.3,6.1,1c0.8-2.3,0.6-1.4,0.5-2.8
				S42.1,12.3,42.1,12.3z"/>
			<path fill="#00846B" d="M41.6,5.3c-3.1-4.2-9.6,7.8-9.6,7.8s5.7,39.7,13.7,31.8c9.5-9.3,16.5-1.1,16.5-1.1l-2.6-4l3.7-0.3
				c0,0-6.4-5.4-12.3-2.1c-8.5,4.7-11.2,0.9-12.1-4.1c-0.9-5-0.5-16-0.5-16"/>
		</g>
	</g>
	<path fill="#FFD524" d="M48.3,43c0,6.5-8.4,11.8-16.3,11.8l0,0c-7.9,0-16.3-5.3-16.3-11.8l2-18c0-6.5,6.4-11.8,14.3-11.8l0,0
		c7.9,0,14.3,5.3,14.3,11.8L48.3,43z"/>
	<path fill="#EFC40F" d="M32,54.8L32,54.8c7.9,0,16.3-5.3,16.3-11.8l-2-18c0-6.5-6.4-11.8-14.3-11.8l0,0"/>
	<path fill="#FFD524" d="M57.8,50.3c0,4.4-11.6,5-25.8,5c-14.2,0-25.8-0.5-25.8-5S17.7,37.3,32,37.3C46.3,37.3,57.8,45.9,57.8,50.3z
		"/>
	<path fill="#EFC40F" d="M32,37.3c14.3,0,25.8,8.7,25.8,13.1s-11.6,5-25.8,5"/>
	<path fill="#E08E0B" d="M57.1,51.5c0,4.3-11.3,4.8-25.1,4.8c-13.9,0-25.1-0.5-25.1-4.8s11.3-4.8,25.1-4.8
		C45.9,46.7,57.1,47.2,57.1,51.5z"/>
	<path fill="#BC730A" d="M32,56.3c-13.9,0-25.1-0.5-25.1-4.8s11.3-4.8,25.1-4.8"/>
	<circle fill="#FFD524" cx="32" cy="6.6" r="4.5"/>
	<path fill="#EFC40F" d="M28.8,3.4c1.8-1.8,4.6-1.8,6.4,0s1.8,4.6,0,6.4"/>
	<path fill="#FFEB99" d="M29.8,15.8c0.6,0.9-1,2.9-3.6,4.5c-2.5,1.6-5,2.2-5.6,1.3c-0.6-0.9,1-2.9,3.6-4.5
		C26.7,15.5,29.2,14.9,29.8,15.8z"/>
	<g>
		<path fill="#FFEB99" d="M25,39c0,0.6-0.5,1.1-1.1,1.1c-0.6,0-1.1-0.5-1.1-1.1c0-0.6,0.5-1.1,1.1-1.1C24.5,37.9,25,38.4,25,39z"/>
		<circle fill="#FFEB99" cx="29.3" cy="39" r="1.1"/>
		<circle fill="#FFEB99" cx="34.7" cy="39" r="1.1"/>
		<circle fill="#FFEB99" cx="40.1" cy="39" r="1.1"/>
	</g>
	<path fill="#FFD524" d="M35.1,56.7c0,4-0.8,5.2-3.1,5.2c-2.3,0-3.1-1.2-3.1-5.2s0.8-7.2,3.1-7.2C34.3,49.5,35.1,52.8,35.1,56.7z"/>
	<path fill="#EFC40F" d="M32,49.5c2.3,0,3.1,3.2,3.1,7.2s-0.8,5.2-3.1,5.2"/>
</g>
</svg>
