<?xml version="1.0" encoding="utf-8"?>
<!-- Generator: Adobe Illustrator 16.0.0, SVG Export Plug-In . SVG Version: 6.00 Build 0)  -->
<!DOCTYPE svg PUBLIC "-//W3C//DTD SVG 1.1//EN" "http://www.w3.org/Graphics/SVG/1.1/DTD/svg11.dtd">
<svg version="1.1" id="Layer_1" xmlns="http://www.w3.org/2000/svg" xmlns:xlink="http://www.w3.org/1999/xlink" x="0px" y="0px"
	 width="64px" height="64px" viewBox="0 0 64 64" enable-background="new 0 0 64 64" xml:space="preserve">
<g>
	<g>
		<path fill="#F7910B" d="M62.3,37.5C62.3,50.5,50.4,61,32,61C13.6,61,1.7,50.5,1.7,37.5S13.6,5,32,5C50.4,5,62.3,24.5,62.3,37.5z"
			/>
	</g>
	<g>
		<path fill="#F7910B" d="M62.3,37.5C62.3,50.5,50.4,57,32,57C13.6,57,1.7,50.5,1.7,37.5S13.6,3,32,3C50.4,3,62.3,24.5,62.3,37.5z"
			/>
	</g>
	<g>
		<path fill="#F9A908" d="M32,3c18.4,0,30.3,21.5,30.3,34.5S50.4,57,32,57"/>
	</g>
	<g>
		<path fill="#F9A908" d="M62.3,37.5C62.3,50.5,50.4,57,32,57C13.6,57,1.7,50.5,1.7,37.5S13.6,5,32,5C50.4,5,62.3,24.5,62.3,37.5z"
			/>
	</g>
	<g>
		<path fill="#F7910B" d="M39.4,47.2c0,2.6-3.3,7.3-7.4,7.3c-4.1,0-7.4-4.7-7.4-7.3"/>
	</g>
	<g>
		<path fill="#F9C55D" d="M1.7,37.5C1.7,24.5,13.6,5,32,5"/>
	</g>
	<g>
		<path fill="#F7910B" d="M32,5c18.4,0,30.3,19.5,30.3,32.5S50.4,61,32,61"/>
	</g>
	<g>
		<path fill="#EA7103" d="M32,5c18.4,0,30.3,19.5,30.3,32.5"/>
	</g>
	<g>
		<g>
			<g>
				<g>
					<g>
						<g>
							<g>
								<path fill="#19BCA4" d="M24.9,15.3c0.3,0.8-1,0.8-2.4,1.4c-1.4,0.5-2.4,1.4-2.7,0.6c-0.3-0.8,0.6-1.9,2-2.4
									C23.2,14.3,24.6,14.5,24.9,15.3z"/>
							</g>
						</g>
					</g>
				</g>
				<g>
					<g>
						<g>
							<g>
								<path fill="#109DA0" d="M24.9,15.3c0.3,0.8-1,0.8-2.4,1.4c-1.4,0.5-2.4,1.4-2.7,0.6"/>
							</g>
						</g>
					</g>
				</g>
			</g>
		</g>
		<g>
			<g>
				<g>
					<g>
						<g>
							<g>
								<path fill="#19BCA4" d="M39.1,15.3c-0.3,0.8,1,0.8,2.4,1.4c1.4,0.5,2.4,1.4,2.7,0.6c0.3-0.8-0.6-1.9-2-2.4
									C40.8,14.3,39.4,14.5,39.1,15.3z"/>
							</g>
						</g>
					</g>
				</g>
				<g>
					<g>
						<g>
							<g>
								<path fill="#109DA0" d="M39.1,15.3c-0.3,0.8,1,0.8,2.4,1.4c1.4,0.5,2.4,1.4,2.7,0.6"/>
							</g>
						</g>
					</g>
				</g>
			</g>
		</g>
	</g>
	<g>
		<g>
			<path fill="#F9C55D" d="M27.8,30.8c0,1.2-3.5,0.7-7.8,0.7c-4.3,0-7.8,0.6-7.8-0.7c0-1.2,3.5-2.2,7.8-2.2
				C24.3,28.6,27.8,29.6,27.8,30.8z"/>
		</g>
		<g>
			<path fill="#F9A908" d="M51.8,30.8c0,1.2-3.5,0.7-7.8,0.7s-7.8,0.6-7.8-0.7c0-1.2,3.5-2.2,7.8-2.2S51.8,29.6,51.8,30.8z"/>
		</g>
	</g>
	<g>
		<circle fill="#F7910B" cx="10.3" cy="34.5" r="0.6"/>
	</g>
	<g>
		<circle fill="#F7910B" cx="5.8" cy="36.5" r="1.1"/>
	</g>
	<g>
		<circle fill="#F7910B" cx="8.8" cy="32.5" r="0.2"/>
	</g>
	<g>
		<circle fill="#F7910B" cx="13.4" cy="34.3" r="0.2"/>
	</g>
	<g>
		<circle fill="#F9A908" cx="52.6" cy="34.8" r="0.8"/>
	</g>
	<g>
		<circle fill="#F9A908" cx="55.1" cy="36.2" r="0.2"/>
	</g>
	<g>
		<circle fill="#F9A908" cx="49.8" cy="27.4" r="0.3"/>
	</g>
	<g>
		<circle fill="#F9A908" cx="49.3" cy="39" r="1.3"/>
	</g>
	<g>
		<circle fill="#F9A908" cx="56.5" cy="39.1" r="0.6"/>
	</g>
	<g>
		<circle fill="#F7910B" cx="9.3" cy="38.5" r="0.5"/>
	</g>
	<g>
		<circle fill="#F7910B" cx="10.1" cy="30.1" r="0.4"/>
	</g>
	<g>
		<circle fill="#F9A908" cx="4.8" cy="16.3" r="1.1"/>
	</g>
	<g>
		<circle fill="#F9A908" cx="8" cy="12.8" r="0.6"/>
	</g>
	<g>
		<circle fill="#F9A908" cx="59.2" cy="18.7" r="0.2"/>
	</g>
	<g>
		<circle fill="#F9A908" cx="58.4" cy="15.8" r="0.8"/>
	</g>
	<g>
		<path fill="#F9A908" d="M61.5,16.3c0,0.3-0.2,0.5-0.5,0.5c-0.3,0-0.5-0.2-0.5-0.5s0.2-0.5,0.5-0.5C61.2,15.8,61.5,16.1,61.5,16.3z
			"/>
	</g>
	<g>
		<circle fill="#F9A908" cx="6" cy="19.3" r="0.6"/>
	</g>
	<g>
		<g>
			<g>
				<g>
					<g>
						<path fill="#1E4784" d="M23.9,28c-0.4-0.1-0.8-0.3-1.1-0.7c-1.1-1.6-3.4-2-5-0.9C17,26.9,16,26.7,15.5,26
							c-0.5-0.7-0.3-1.8,0.4-2.3c3.1-2.2,7.4-1.4,9.6,1.8c0.5,0.7,0.3,1.8-0.4,2.3C24.7,28,24.3,28,23.9,28z"/>
					</g>
				</g>
				<g>
					<g>
						<path fill="#02243E" d="M25.5,25.4c0.5,0.7,0.3,1.8-0.4,2.3C24.7,28,24.3,28,23.9,28c-0.4-0.1-0.8-0.3-1.1-0.7
							c-1.1-1.6-3.4-2-5-0.9C17,26.9,16,26.7,15.5,26c-0.5-0.7-0.3-1.8,0.4-2.3"/>
					</g>
				</g>
			</g>
		</g>
		<g>
			<g>
				<g>
					<g>
						<path fill="#1E4784" d="M40.1,28c0.4-0.1,0.8-0.3,1.1-0.7c1.1-1.6,3.4-2,5-0.9c0.8,0.5,1.8,0.3,2.3-0.4
							c0.5-0.7,0.3-1.8-0.4-2.3c-3.1-2.2-7.4-1.4-9.6,1.8c-0.5,0.7-0.3,1.8,0.4,2.3C39.3,28,39.7,28,40.1,28z"/>
					</g>
				</g>
				<g>
					<g>
						<path fill="#02243E" d="M38.5,25.4c-0.5,0.7-0.3,1.8,0.4,2.3c0.4,0.3,0.8,0.3,1.2,0.3c0.4-0.1,0.8-0.3,1.1-0.7
							c1.1-1.6,3.4-2,5-0.9c0.8,0.5,1.8,0.3,2.3-0.4c0.5-0.7,0.3-1.8-0.4-2.3"/>
					</g>
				</g>
			</g>
		</g>
	</g>
	<g>
		<g>
			<path fill="#CE1906" d="M16.1,38c0.5,5,7.4,11.6,15.9,11.6S47.4,43,47.9,38H16.1z"/>
		</g>
		<g>
			<path fill="#A80B0B" d="M32,49.6c8.5,0,15.4-6.6,15.9-11.6H32"/>
		</g>
		<g>
			<path fill="#CE1906" d="M36.9,30.1c-2,0-3.7,0.7-4.9,1.9c-1.3-1.2-2.9-1.9-4.9-1.9c-4.3,0-9,2.9-10.9,7.9H29h6h12.6
				C45.7,33,41.3,30.1,36.9,30.1z"/>
		</g>
		<g>
			<path fill="#B51104" d="M35,38h12.9c-1.9-5-6.6-7.9-10.9-7.9c-2,0-3.6,0.7-4.9,1.9"/>
		</g>
		<g>
			<path fill="#E55145" d="M25.7,31.3c0.4,0.4-0.6,1.6-2.2,2.5c-1.6,0.9-3.1,1.3-3.4,0.9c-0.4-0.4,0.6-1.6,2.2-2.5
				C23.9,31.2,25.4,30.8,25.7,31.3z"/>
		</g>
		<g>
			<path fill="#E55145" d="M20.2,41.3c0.6-0.4,2.3,0.4,3.9,1.9c1.6,1.5,2.4,3.1,1.8,3.5c-0.6,0.4-2.3-0.4-3.9-1.9
				C20.4,43.3,19.6,41.7,20.2,41.3z"/>
		</g>
		<g>
			<path fill="#540200" d="M41.3,38c-1.1-1-3.9-1.6-6.4-1.6c-1.2,0-2.1,0.2-2.9,0.4c-0.7-0.3-1.7-0.4-2.9-0.4
				c-2.5,0-5.3,0.6-6.4,1.6h0c0.3,1,4.3,2.4,9.2,2.4C36.9,40.4,40.9,39,41.3,38L41.3,38z"/>
		</g>
		<g>
			<path fill="#300101" d="M41,38h0.3c-1.1-1-3.9-1.6-6.4-1.6c-1.2,0-2.1,0.2-2.9,0.4c-0.7-0.3-1.7-0.4-2.9-0.4
				c-2.5,0-5.3,0.6-6.4,1.6H23"/>
		</g>
	</g>
</g>
</svg>
