<?xml version="1.0" encoding="utf-8"?>
<!-- Generator: Adobe Illustrator 16.0.0, SVG Export Plug-In . SVG Version: 6.00 Build 0)  -->
<!DOCTYPE svg PUBLIC "-//W3C//DTD SVG 1.1//EN" "http://www.w3.org/Graphics/SVG/1.1/DTD/svg11.dtd">
<svg version="1.1" id="Layer_1" xmlns="http://www.w3.org/2000/svg" xmlns:xlink="http://www.w3.org/1999/xlink" x="0px" y="0px"
	 width="65px" height="65px" viewBox="0 0 65 65" enable-background="new 0 0 65 65" xml:space="preserve">
<g>
	<g>
		<g>
			<path fill="#E57A1A" d="M48.8,19.4c0,6.3-7.3,13.4-16.3,13.4c-9,0-16.3-7.1-16.3-13.4S23.5,6,32.5,6C41.5,6,48.8,13.1,48.8,19.4z
				"/>
			<path fill="#C4570C" d="M48.8,19.4c0,6.3-7.3,13.4-16.3,13.4c-9,0-16.3-7.1-16.3-13.4"/>
			<g>
				<path fill="#E57A1A" d="M14.4,19.2C14.4,19.2,14.3,19.2,14.4,19.2c0.4-2.1-1.3-4.7-4.3-6.1c-3.3-1.5-6.8-1-7.8,1.2
					c-0.7,1.5-0.1,3.3,1.4,4.9c-1.5,1.4-2.2,3.1-1.7,4.5c0.8,2.3,4.2,3.1,7.6,1.9C13.1,24.3,15.2,21.5,14.4,19.2z"/>
				<path fill="#C4570C" d="M3.7,19.1c-1.5,1.4-2.2,3.1-1.7,4.5c0.8,2.3,4.2,3.1,7.6,1.9c3.4-1.2,5.5-4.1,4.7-6.3c0,0,0,0,0,0"/>
				<path fill="#E57A1A" d="M50.6,19.1C50.6,19.1,50.6,19.1,50.6,19.1c-0.4,2.1,1.3,4.7,4.3,6.1c3.3,1.5,6.8,1,7.8-1.2
					c0.7-1.5,0.1-3.3-1.4-4.9c1.5-1.4,2.2-3.1,1.7-4.5c-0.8-2.3-4.2-3.1-7.6-1.9C51.9,14,49.8,16.9,50.6,19.1z"/>
				<path fill="#C4570C" d="M50.6,19.1C50.6,19.1,50.6,19.1,50.6,19.1c-0.4,2.1,1.3,4.7,4.3,6.1c3.3,1.5,6.8,1,7.8-1.2
					c0.7-1.5,0.1-3.3-1.4-4.9"/>
			</g>
		</g>
		<g>
			<path fill="#06718E" d="M17.9,14.6L17.5,15c-0.8,1.4-1.3,2.9-1.3,4.5s0.5,3.1,1.3,4.5l0.4,0.4l2.4-2.4l-2.4-2.4l2.4-2.4
				L17.9,14.6z"/>
			<polygon fill="#673BAD" points="25.2,17 22.8,14.6 20.3,17 22.7,19.4 20.3,21.9 22.8,24.3 25.2,21.9 22.8,19.4 			"/>
			<polygon fill="#06718E" points="30.1,17 27.6,14.6 25.2,17 27.6,19.4 25.2,21.9 27.6,24.3 30.1,21.9 27.6,19.4 			"/>
			<polygon fill="#673BAD" points="34.9,17 32.5,14.6 30.1,17 32.5,19.4 30.1,21.9 32.5,24.3 34.9,21.9 32.5,19.4 			"/>
			<polygon fill="#06718E" points="39.8,17 37.4,14.6 34.9,17 37.4,19.4 34.9,21.9 37.4,24.3 39.8,21.9 37.4,19.4 			"/>
			<polygon fill="#673BAD" points="44.7,17 42.3,14.6 39.8,17 42.2,19.4 39.8,21.9 42.3,24.3 44.7,21.9 42.3,19.4 			"/>
			<path fill="#06718E" d="M47.5,15l-0.4-0.4L44.7,17l2.4,2.4l-2.4,2.4l2.4,2.4l0.4-0.4c0.8-1.4,1.3-2.9,1.3-4.5S48.4,16.3,47.5,15z
				"/>
		</g>
		<g>
			<path fill="#06718E" d="M17.9,14.6L17.5,15c-0.8,1.4-1.3,2.9-1.3,4.5s0.5,3.1,1.3,4.5l0.4,0.4l2.4-2.4l-2.4-2.4l2.4-2.4
				L17.9,14.6z"/>
			<polygon fill="#673BAD" points="25.2,17 22.8,14.6 20.3,17 22.7,19.4 20.3,21.9 22.8,24.3 25.2,21.9 22.8,19.4 			"/>
			<polygon fill="#06718E" points="30.1,17 27.6,14.6 25.2,17 27.6,19.4 25.2,21.9 27.6,24.3 30.1,21.9 27.6,19.4 			"/>
			<polygon fill="#673BAD" points="34.9,17 32.5,14.6 30.1,17 32.5,19.4 30.1,21.9 32.5,24.3 34.9,21.9 32.5,19.4 			"/>
			<polygon fill="#06718E" points="39.8,17 37.4,14.6 34.9,17 37.4,19.4 34.9,21.9 37.4,24.3 39.8,21.9 37.4,19.4 			"/>
			<polygon fill="#673BAD" points="44.7,17 42.3,14.6 39.8,17 42.2,19.4 39.8,21.9 42.3,24.3 44.7,21.9 42.3,19.4 			"/>
			<path fill="#06718E" d="M47.5,15l-0.4-0.4L44.7,17l2.4,2.4l-2.4,2.4l2.4,2.4l0.4-0.4c0.8-1.4,1.3-2.9,1.3-4.5S48.4,16.3,47.5,15z
				"/>
		</g>
		<ellipse fill="#F78C34" cx="32.5" cy="10.8" rx="7.3" ry="3.5"/>
	</g>
	<g>
		<g>
			<g>
				<path fill="#13C2EA" d="M9.6,43.1c-2.3-2.3-4.8-3.3-5.8-2.3C3.4,41.2,3.4,42,3.7,43c-1,0-1.7,0.3-2,0.9
					c-0.3,0.7,0.1,1.5,0.9,2.4c-1.2,0.5-2,1.2-2,1.9s0.8,1.5,2,1.9c-0.8,0.9-1.1,1.8-0.9,2.4c0.2,0.6,1,0.9,2,0.9
					c-0.3,0.9-0.3,1.8,0.1,2.2c0.9,1,3.5,0,5.8-2.3c1.8-1.8,2.8-3.9,2.7-5.1C12.4,46.9,11.4,44.9,9.6,43.1z"/>
				<path fill="#059ECE" d="M0.7,48.2c0,0.8,0.8,1.5,2,1.9c-0.8,0.9-1.1,1.8-0.9,2.4c0.2,0.6,1,0.9,2,0.9c-0.3,0.9-0.3,1.8,0.1,2.2
					c0.9,1,3.5,0,5.8-2.3c1.8-1.8,2.8-3.9,2.7-5.1"/>
				<path fill="#86DBF2" d="M10,44.8c-0.2,0.3-1.5-0.3-2.9-1.3c-1.4-1-2.4-2.1-2.3-2.3c0.2-0.3,1.5,0.3,2.9,1.3
					C9.2,43.5,10.2,44.5,10,44.8z"/>
				<path fill="#86DBF2" d="M7.6,45.9c-0.1,0.2-1.1,0-2.4-0.4c-1.3-0.5-2.2-1-2.1-1.2c0.1-0.2,1.1,0,2.4,0.4
					C6.7,45.1,7.6,45.6,7.6,45.9z"/>
			</g>
			<g>
				<path fill="#13C2EA" d="M55.4,43.1c2.3-2.3,4.8-3.3,5.8-2.3c0.4,0.5,0.4,1.3,0.1,2.2c1,0,1.7,0.3,2,0.9c0.3,0.7-0.1,1.5-0.9,2.4
					c1.2,0.5,2,1.2,2,1.9s-0.8,1.5-2,1.9c0.8,0.9,1.1,1.8,0.9,2.4c-0.2,0.6-1,0.9-2,0.9c0.3,0.9,0.3,1.8-0.1,2.2
					c-0.9,1-3.5,0-5.8-2.3c-1.8-1.8-2.8-3.9-2.7-5.1C52.6,46.9,53.6,44.9,55.4,43.1z"/>
				<path fill="#059ECE" d="M64.3,48.2c0,0.8-0.8,1.5-2,1.9c0.8,0.9,1.1,1.8,0.9,2.4c-0.2,0.6-1,0.9-2,0.9c0.3,0.9,0.3,1.8-0.1,2.2
					c-0.9,1-3.5,0-5.8-2.3c-1.8-1.8-2.8-3.9-2.7-5.1"/>
				<path fill="#86DBF2" d="M55,44.8c0.2,0.3,1.5-0.3,2.9-1.3c1.4-1,2.4-2.1,2.3-2.3c-0.2-0.3-1.5,0.3-2.9,1.3
					C55.8,43.5,54.8,44.5,55,44.8z"/>
				<path fill="#86DBF2" d="M57.4,45.9c0.1,0.2,1.1,0,2.4-0.4c1.3-0.5,2.2-1,2.1-1.2c-0.1-0.2-1.1,0-2.4,0.4
					C58.3,45.1,57.4,45.6,57.4,45.9z"/>
			</g>
		</g>
		<g>
			<g>
				<path fill="#CC3BA0" d="M15.1,50.1c0,1.5-1.1,2.6-2.5,2.6l0,0c-1.4,0-2.5-1.2-2.5-2.6v-3.7c0-1.5,1.1-2.6,2.5-2.6l0,0
					c1.4,0,2.5,1.2,2.5,2.6V50.1z"/>
				<path fill="#A0207F" d="M15.1,46.4v3.7c0,1.5-1.1,2.6-2.5,2.6l0,0c-1.4,0-2.5-1.2-2.5-2.6v-3.7"/>
			</g>
			<g>
				<path fill="#CC3BA0" d="M54.9,50.1c0,1.5-1.1,2.6-2.5,2.6l0,0c-1.4,0-2.5-1.2-2.5-2.6v-3.7c0-1.5,1.1-2.6,2.5-2.6l0,0
					c1.4,0,2.5,1.2,2.5,2.6V50.1z"/>
				<path fill="#A0207F" d="M54.9,46.4v3.7c0,1.5-1.1,2.6-2.5,2.6l0,0c-1.4,0-2.5-1.2-2.5-2.6v-3.7"/>
			</g>
		</g>
		<path fill="#13C2EA" d="M52.5,48.7c0,5.6-4.3,10.2-9.7,10.2H22.2c-5.3,0-9.7-4.6-9.7-10.2v-1c0-5.6,4.3-10.2,9.7-10.2h20.6
			c5.3,0,9.7,4.6,9.7,10.2V48.7z"/>
		<path fill="#059ECE" d="M52.5,47.7v1c0,5.6-4.3,10.2-9.7,10.2H22.2c-5.3,0-9.7-4.6-9.7-10.2v-1"/>
		<g>
			<g>
				<ellipse fill="#EF73C3" cx="18" cy="42.8" rx="1.3" ry="1.4"/>
				<ellipse fill="#EACD6E" cx="23.8" cy="42.8" rx="1.3" ry="1.4"/>
				<path fill="#EF73C3" d="M30.9,42.8c0,0.8-0.6,1.4-1.3,1.4c-0.7,0-1.3-0.6-1.3-1.4s0.6-1.4,1.3-1.4C30.3,41.4,30.9,42,30.9,42.8z
					"/>
				<ellipse fill="#EACD6E" cx="35.4" cy="42.8" rx="1.3" ry="1.4"/>
				<ellipse fill="#EF73C3" cx="41.2" cy="42.8" rx="1.3" ry="1.4"/>
				<ellipse fill="#EACD6E" cx="47" cy="42.8" rx="1.3" ry="1.4"/>
			</g>
			<g>
				<ellipse fill="#EACD6E" cx="18" cy="48.2" rx="1.3" ry="1.4"/>
				<ellipse fill="#EF73C3" cx="23.8" cy="48.2" rx="1.3" ry="1.4"/>
				<path fill="#EACD6E" d="M30.9,48.2c0,0.8-0.6,1.4-1.3,1.4c-0.7,0-1.3-0.6-1.3-1.4c0-0.8,0.6-1.4,1.3-1.4
					C30.3,46.9,30.9,47.5,30.9,48.2z"/>
				<ellipse fill="#EF73C3" cx="35.4" cy="48.2" rx="1.3" ry="1.4"/>
				<ellipse fill="#EACD6E" cx="41.2" cy="48.2" rx="1.3" ry="1.4"/>
				<ellipse fill="#EF73C3" cx="47" cy="48.2" rx="1.3" ry="1.4"/>
			</g>
			<g>
				<ellipse fill="#EF73C3" cx="18" cy="53.7" rx="1.3" ry="1.4"/>
				<ellipse fill="#EACD6E" cx="23.8" cy="53.7" rx="1.3" ry="1.4"/>
				<path fill="#EF73C3" d="M30.9,53.7c0,0.8-0.6,1.4-1.3,1.4c-0.7,0-1.3-0.6-1.3-1.4s0.6-1.4,1.3-1.4
					C30.3,52.3,30.9,52.9,30.9,53.7z"/>
				<ellipse fill="#EACD6E" cx="35.4" cy="53.7" rx="1.3" ry="1.4"/>
				<ellipse fill="#EF73C3" cx="41.2" cy="53.7" rx="1.3" ry="1.4"/>
				<ellipse fill="#EACD6E" cx="47" cy="53.7" rx="1.3" ry="1.4"/>
			</g>
		</g>
	</g>
	<path fill="#86DBF2" d="M43.9,41.1c0,0.4-0.3,0.7-0.7,0.7H21.8c-0.4,0-0.7-0.3-0.7-0.7l0,0c0-0.4,0.3-0.7,0.7-0.7h21.5
		C43.6,40.4,43.9,40.7,43.9,41.1L43.9,41.1z"/>
</g>
</svg>
