<?xml version="1.0" encoding="utf-8"?>
<!-- Generator: Adobe Illustrator 16.0.0, SVG Export Plug-In . SVG Version: 6.00 Build 0)  -->
<!DOCTYPE svg PUBLIC "-//W3C//DTD SVG 1.1//EN" "http://www.w3.org/Graphics/SVG/1.1/DTD/svg11.dtd">
<svg version="1.1" xmlns="http://www.w3.org/2000/svg" xmlns:xlink="http://www.w3.org/1999/xlink" x="0px" y="0px" width="65px"
	 height="65px" viewBox="0 0 65 65" enable-background="new 0 0 65 65" xml:space="preserve">
<g id="Layer_1">
	<g>
		<g>
			<g>
				<g>
					<g>
						<g>
							<path fill="#825E40" d="M7.166,15.325c-0.219,0-0.395-0.176-0.395-0.393v-4.107c0-0.219,0.176-0.395,0.395-0.395
								s0.395,0.176,0.395,0.395v4.107C7.561,15.149,7.385,15.325,7.166,15.325z"/>
						</g>
						<g>
							<g>
								<path fill="#0FA88E" d="M5.045,8.427c-0.326,0-0.592-0.264-0.592-0.59c0-0.328,0.266-0.592,0.592-0.592
									c0.844,0,1.527-0.686,1.527-1.529c0-0.324,0.264-0.59,0.592-0.59c0.326,0,0.59,0.266,0.59,0.59
									C7.754,7.212,6.539,8.427,5.045,8.427z"/>
							</g>
							<g>
								<path fill="#04968E" d="M9.287,8.427c-1.496,0-2.711-1.215-2.711-2.711c0-0.324,0.266-0.59,0.592-0.59s0.59,0.266,0.59,0.59
									c0,0.844,0.686,1.529,1.529,1.529c0.326,0,0.59,0.264,0.59,0.592C9.877,8.163,9.613,8.427,9.287,8.427z"/>
							</g>
						</g>
						<g>
							<g>
								<path fill="#0FA88E" d="M4.451,10.669c-0.326,0-0.59-0.266-0.59-0.59c0-0.328,0.264-0.592,0.59-0.592
									c1.172,0,2.121-0.951,2.121-2.119c0-0.326,0.264-0.592,0.59-0.592c0.328,0,0.592,0.266,0.592,0.592
									C7.754,9.188,6.273,10.669,4.451,10.669z"/>
							</g>
							<g>
								<path fill="#04968E" d="M9.879,10.669c-1.82,0-3.303-1.48-3.303-3.301c0-0.326,0.268-0.592,0.592-0.592
									c0.326,0,0.59,0.266,0.59,0.592c0,1.168,0.951,2.119,2.121,2.119c0.328,0,0.592,0.264,0.592,0.592
									C10.471,10.403,10.207,10.669,9.879,10.669z"/>
							</g>
						</g>
						<g>
							<g>
								<path fill="#0FA88E" d="M3.91,13.06c-0.326,0-0.592-0.266-0.592-0.59c0-0.328,0.266-0.594,0.592-0.594
									c1.467,0,2.66-1.193,2.66-2.66c0-0.326,0.266-0.592,0.592-0.592S7.754,8.89,7.754,9.216
									C7.754,11.335,6.029,13.06,3.91,13.06z"/>
							</g>
							<g>
								<path fill="#04968E" d="M10.42,13.06c-2.117,0-3.842-1.725-3.842-3.844c0-0.326,0.266-0.592,0.592-0.592
									c0.324,0,0.592,0.266,0.592,0.592c0,1.467,1.191,2.66,2.658,2.66c0.328,0,0.594,0.266,0.594,0.594
									C11.014,12.794,10.748,13.06,10.42,13.06z"/>
							</g>
						</g>
						<g>
							<path fill="#BA8660" d="M8.545,15.425h-2.76c-0.107,0-0.197-0.088-0.197-0.197s0.09-0.197,0.197-0.197h2.76
								c0.109,0,0.197,0.088,0.197,0.197S8.654,15.425,8.545,15.425z"/>
						</g>
						<g>
							<g>
								<path fill="#BA8660" d="M6.857,16.114H5.945c-0.107,0-0.195-0.088-0.195-0.197c0-0.107,0.088-0.197,0.195-0.197h0.912
									c0.107,0,0.195,0.09,0.195,0.197C7.053,16.026,6.965,16.114,6.857,16.114z"/>
							</g>
							<g>
								<path fill="#BA8660" d="M8.385,16.114H7.477c-0.111,0-0.199-0.088-0.199-0.197c0-0.107,0.088-0.197,0.199-0.197h0.908
									c0.109,0,0.197,0.09,0.197,0.197C8.582,16.026,8.494,16.114,8.385,16.114z"/>
							</g>
						</g>
					</g>
				</g>
			</g>
			<g>
				<g>
					<g>
						<g>
							<path fill="#825E40" d="M20.333,15.325c-0.22,0-0.395-0.176-0.395-0.393v-4.107c0-0.219,0.175-0.395,0.395-0.395
								c0.218,0,0.394,0.176,0.394,0.395v4.107C20.727,15.149,20.551,15.325,20.333,15.325z"/>
						</g>
						<g>
							<g>
								<path fill="#0FA88E" d="M18.212,8.427c-0.326,0-0.592-0.264-0.592-0.59c0-0.328,0.266-0.592,0.592-0.592
									c0.845,0,1.527-0.686,1.527-1.529c0-0.324,0.263-0.59,0.592-0.59c0.325,0,0.59,0.266,0.59,0.59
									C20.921,7.212,19.705,8.427,18.212,8.427z"/>
							</g>
							<g>
								<path fill="#04968E" d="M22.453,8.427c-1.496,0-2.71-1.215-2.71-2.711c0-0.324,0.266-0.59,0.591-0.59
									c0.326,0,0.591,0.266,0.591,0.59c0,0.844,0.686,1.529,1.528,1.529c0.327,0,0.591,0.264,0.591,0.592
									C23.044,8.163,22.78,8.427,22.453,8.427z"/>
							</g>
						</g>
						<g>
							<g>
								<path fill="#0FA88E" d="M17.617,10.669c-0.325,0-0.59-0.266-0.59-0.59c0-0.328,0.265-0.592,0.59-0.592
									c1.172,0,2.122-0.951,2.122-2.119c0-0.326,0.263-0.592,0.59-0.592s0.592,0.266,0.592,0.592
									C20.921,9.188,19.439,10.669,17.617,10.669z"/>
							</g>
							<g>
								<path fill="#04968E" d="M23.046,10.669c-1.82,0-3.303-1.48-3.303-3.301c0-0.326,0.267-0.592,0.591-0.592
									c0.326,0,0.591,0.266,0.591,0.592c0,1.168,0.951,2.119,2.121,2.119c0.327,0,0.592,0.264,0.592,0.592
									C23.638,10.403,23.373,10.669,23.046,10.669z"/>
							</g>
						</g>
						<g>
							<g>
								<path fill="#0FA88E" d="M17.076,13.06c-0.326,0-0.592-0.266-0.592-0.59c0-0.328,0.266-0.594,0.592-0.594
									c1.468,0,2.66-1.193,2.66-2.66c0-0.326,0.266-0.592,0.593-0.592c0.326,0,0.592,0.266,0.592,0.592
									C20.921,11.335,19.196,13.06,17.076,13.06z"/>
							</g>
							<g>
								<path fill="#04968E" d="M23.586,13.06c-2.116,0-3.842-1.725-3.842-3.844c0-0.326,0.266-0.592,0.593-0.592
									c0.323,0,0.592,0.266,0.592,0.592c0,1.467,1.191,2.66,2.657,2.66c0.329,0,0.596,0.266,0.596,0.594
									C24.182,12.794,23.915,13.06,23.586,13.06z"/>
							</g>
						</g>
						<g>
							<path fill="#BA8660" d="M21.712,15.425h-2.76c-0.107,0-0.198-0.088-0.198-0.197s0.091-0.197,0.198-0.197h2.76
								c0.108,0,0.196,0.088,0.196,0.197S21.82,15.425,21.712,15.425z"/>
						</g>
						<g>
							<g>
								<path fill="#BA8660" d="M20.023,16.114h-0.911c-0.107,0-0.195-0.088-0.195-0.197c0-0.107,0.088-0.197,0.195-0.197h0.911
									c0.107,0,0.195,0.09,0.195,0.197C20.219,16.026,20.131,16.114,20.023,16.114z"/>
							</g>
							<g>
								<path fill="#BA8660" d="M21.551,16.114h-0.908c-0.11,0-0.199-0.088-0.199-0.197c0-0.107,0.089-0.197,0.199-0.197h0.908
									c0.109,0,0.198,0.09,0.198,0.197C21.749,16.026,21.66,16.114,21.551,16.114z"/>
							</g>
						</g>
					</g>
				</g>
			</g>
			<g>
				<g>
					<g>
						<g>
							<path fill="#825E40" d="M33.5,15.325c-0.219,0-0.395-0.176-0.395-0.393v-4.107c0-0.219,0.176-0.395,0.395-0.395
								s0.395,0.176,0.395,0.395v4.107C33.895,15.149,33.719,15.325,33.5,15.325z"/>
						</g>
						<g>
							<g>
								<path fill="#0FA88E" d="M31.379,8.427c-0.326,0-0.592-0.264-0.592-0.59c0-0.328,0.266-0.592,0.592-0.592
									c0.844,0,1.527-0.686,1.527-1.529c0-0.324,0.264-0.59,0.592-0.59c0.326,0,0.59,0.266,0.59,0.59
									C34.088,7.212,32.873,8.427,31.379,8.427z"/>
							</g>
							<g>
								<path fill="#04968E" d="M35.621,8.427c-1.496,0-2.711-1.215-2.711-2.711c0-0.324,0.266-0.59,0.592-0.59
									s0.59,0.266,0.59,0.59c0,0.844,0.686,1.529,1.529,1.529c0.326,0,0.59,0.264,0.59,0.592
									C36.211,8.163,35.947,8.427,35.621,8.427z"/>
							</g>
						</g>
						<g>
							<g>
								<path fill="#0FA88E" d="M30.785,10.669c-0.326,0-0.59-0.266-0.59-0.59c0-0.328,0.264-0.592,0.59-0.592
									c1.172,0,2.121-0.951,2.121-2.119c0-0.326,0.264-0.592,0.59-0.592c0.328,0,0.592,0.266,0.592,0.592
									C34.088,9.188,32.607,10.669,30.785,10.669z"/>
							</g>
							<g>
								<path fill="#04968E" d="M36.213,10.669c-1.82,0-3.303-1.48-3.303-3.301c0-0.326,0.268-0.592,0.592-0.592
									c0.326,0,0.59,0.266,0.59,0.592c0,1.168,0.951,2.119,2.121,2.119c0.328,0,0.592,0.264,0.592,0.592
									C36.805,10.403,36.541,10.669,36.213,10.669z"/>
							</g>
						</g>
						<g>
							<g>
								<path fill="#0FA88E" d="M30.244,13.06c-0.326,0-0.592-0.266-0.592-0.59c0-0.328,0.266-0.594,0.592-0.594
									c1.467,0,2.66-1.193,2.66-2.66c0-0.326,0.266-0.592,0.592-0.592s0.592,0.266,0.592,0.592
									C34.088,11.335,32.363,13.06,30.244,13.06z"/>
							</g>
							<g>
								<path fill="#04968E" d="M36.754,13.06c-2.117,0-3.842-1.725-3.842-3.844c0-0.326,0.266-0.592,0.592-0.592
									c0.324,0,0.592,0.266,0.592,0.592c0,1.467,1.191,2.66,2.658,2.66c0.328,0,0.594,0.266,0.594,0.594
									C37.348,12.794,37.082,13.06,36.754,13.06z"/>
							</g>
						</g>
						<g>
							<path fill="#BA8660" d="M34.879,15.425h-2.76c-0.107,0-0.197-0.088-0.197-0.197s0.09-0.197,0.197-0.197h2.76
								c0.109,0,0.197,0.088,0.197,0.197S34.988,15.425,34.879,15.425z"/>
						</g>
						<g>
							<g>
								<path fill="#BA8660" d="M33.191,16.114h-0.912c-0.107,0-0.195-0.088-0.195-0.197c0-0.107,0.088-0.197,0.195-0.197h0.912
									c0.107,0,0.195,0.09,0.195,0.197C33.387,16.026,33.299,16.114,33.191,16.114z"/>
							</g>
							<g>
								<path fill="#BA8660" d="M34.719,16.114h-0.908c-0.111,0-0.199-0.088-0.199-0.197c0-0.107,0.088-0.197,0.199-0.197h0.908
									c0.109,0,0.197,0.09,0.197,0.197C34.916,16.026,34.828,16.114,34.719,16.114z"/>
							</g>
						</g>
					</g>
				</g>
			</g>
			<g>
				<g>
					<g>
						<g>
							<path fill="#825E40" d="M46.668,15.325c-0.22,0-0.396-0.176-0.396-0.393v-4.107c0-0.219,0.177-0.395,0.396-0.395
								c0.218,0,0.394,0.176,0.394,0.395v4.107C47.062,15.149,46.886,15.325,46.668,15.325z"/>
						</g>
						<g>
							<g>
								<path fill="#0FA88E" d="M44.546,8.427c-0.327,0-0.593-0.264-0.593-0.59c0-0.328,0.266-0.592,0.593-0.592
									c0.845,0,1.526-0.686,1.526-1.529c0-0.324,0.265-0.59,0.593-0.59c0.326,0,0.589,0.266,0.589,0.59
									C47.254,7.212,46.04,8.427,44.546,8.427z"/>
							</g>
							<g>
								<path fill="#04968E" d="M48.788,8.427c-1.496,0-2.712-1.215-2.712-2.711c0-0.324,0.266-0.59,0.593-0.59
									c0.326,0,0.589,0.266,0.589,0.59c0,0.844,0.686,1.529,1.53,1.529c0.325,0,0.589,0.264,0.589,0.592
									C49.377,8.163,49.113,8.427,48.788,8.427z"/>
							</g>
						</g>
						<g>
							<g>
								<path fill="#0FA88E" d="M43.952,10.669c-0.327,0-0.59-0.266-0.59-0.59c0-0.328,0.263-0.592,0.59-0.592
									c1.172,0,2.12-0.951,2.12-2.119c0-0.326,0.265-0.592,0.59-0.592c0.329,0,0.592,0.266,0.592,0.592
									C47.254,9.188,45.774,10.669,43.952,10.669z"/>
							</g>
							<g>
								<path fill="#04968E" d="M49.379,10.669c-1.82,0-3.303-1.48-3.303-3.301c0-0.326,0.269-0.592,0.593-0.592
									c0.326,0,0.589,0.266,0.589,0.592c0,1.168,0.951,2.119,2.121,2.119c0.329,0,0.594,0.264,0.594,0.592
									C49.973,10.403,49.708,10.669,49.379,10.669z"/>
							</g>
						</g>
						<g>
							<g>
								<path fill="#0FA88E" d="M43.411,13.06c-0.326,0-0.592-0.266-0.592-0.59c0-0.328,0.266-0.594,0.592-0.594
									c1.466,0,2.66-1.193,2.66-2.66c0-0.326,0.266-0.592,0.591-0.592c0.326,0,0.592,0.266,0.592,0.592
									C47.254,11.335,45.529,13.06,43.411,13.06z"/>
							</g>
							<g>
								<path fill="#04968E" d="M49.921,13.06c-2.118,0-3.842-1.725-3.842-3.844c0-0.326,0.266-0.592,0.591-0.592
									s0.593,0.266,0.593,0.592c0,1.467,1.19,2.66,2.658,2.66c0.328,0,0.595,0.266,0.595,0.594
									C50.516,12.794,50.249,13.06,49.921,13.06z"/>
							</g>
						</g>
						<g>
							<path fill="#BA8660" d="M48.046,15.425h-2.761c-0.106,0-0.196-0.088-0.196-0.197s0.09-0.197,0.196-0.197h2.761
								c0.109,0,0.197,0.088,0.197,0.197S48.155,15.425,48.046,15.425z"/>
						</g>
						<g>
							<g>
								<path fill="#BA8660" d="M46.358,16.114h-0.912c-0.108,0-0.196-0.088-0.196-0.197c0-0.107,0.088-0.197,0.196-0.197h0.912
									c0.107,0,0.195,0.09,0.195,0.197C46.554,16.026,46.466,16.114,46.358,16.114z"/>
							</g>
							<g>
								<path fill="#BA8660" d="M47.886,16.114h-0.908c-0.112,0-0.199-0.088-0.199-0.197c0-0.107,0.087-0.197,0.199-0.197h0.908
									c0.109,0,0.198,0.09,0.198,0.197C48.084,16.026,47.995,16.114,47.886,16.114z"/>
							</g>
						</g>
					</g>
				</g>
			</g>
			<g>
				<g>
					<g>
						<g>
							<path fill="#825E40" d="M59.834,15.325c-0.219,0-0.395-0.176-0.395-0.393v-4.107c0-0.219,0.176-0.395,0.395-0.395
								s0.395,0.176,0.395,0.395v4.107C60.229,15.149,60.053,15.325,59.834,15.325z"/>
						</g>
						<g>
							<g>
								<path fill="#0FA88E" d="M57.713,8.427c-0.326,0-0.592-0.264-0.592-0.59c0-0.328,0.266-0.592,0.592-0.592
									c0.844,0,1.527-0.686,1.527-1.529c0-0.324,0.264-0.59,0.592-0.59c0.326,0,0.59,0.266,0.59,0.59
									C60.422,7.212,59.207,8.427,57.713,8.427z"/>
							</g>
							<g>
								<path fill="#04968E" d="M61.955,8.427c-1.496,0-2.711-1.215-2.711-2.711c0-0.324,0.266-0.59,0.592-0.59
									s0.59,0.266,0.59,0.59c0,0.844,0.686,1.529,1.529,1.529c0.326,0,0.59,0.264,0.59,0.592
									C62.545,8.163,62.281,8.427,61.955,8.427z"/>
							</g>
						</g>
						<g>
							<g>
								<path fill="#0FA88E" d="M57.119,10.669c-0.326,0-0.59-0.266-0.59-0.59c0-0.328,0.264-0.592,0.59-0.592
									c1.172,0,2.121-0.951,2.121-2.119c0-0.326,0.264-0.592,0.59-0.592c0.328,0,0.592,0.266,0.592,0.592
									C60.422,9.188,58.941,10.669,57.119,10.669z"/>
							</g>
							<g>
								<path fill="#04968E" d="M62.547,10.669c-1.82,0-3.303-1.48-3.303-3.301c0-0.326,0.268-0.592,0.592-0.592
									c0.326,0,0.59,0.266,0.59,0.592c0,1.168,0.951,2.119,2.121,2.119c0.328,0,0.592,0.264,0.592,0.592
									C63.139,10.403,62.875,10.669,62.547,10.669z"/>
							</g>
						</g>
						<g>
							<g>
								<path fill="#0FA88E" d="M56.578,13.06c-0.326,0-0.592-0.266-0.592-0.59c0-0.328,0.266-0.594,0.592-0.594
									c1.467,0,2.66-1.193,2.66-2.66c0-0.326,0.266-0.592,0.592-0.592s0.592,0.266,0.592,0.592
									C60.422,11.335,58.697,13.06,56.578,13.06z"/>
							</g>
							<g>
								<path fill="#04968E" d="M63.088,13.06c-2.117,0-3.842-1.725-3.842-3.844c0-0.326,0.266-0.592,0.592-0.592
									c0.324,0,0.592,0.266,0.592,0.592c0,1.467,1.191,2.66,2.658,2.66c0.328,0,0.594,0.266,0.594,0.594
									C63.682,12.794,63.416,13.06,63.088,13.06z"/>
							</g>
						</g>
						<g>
							<path fill="#BA8660" d="M61.213,15.425h-2.76c-0.107,0-0.197-0.088-0.197-0.197s0.09-0.197,0.197-0.197h2.76
								c0.109,0,0.197,0.088,0.197,0.197S61.322,15.425,61.213,15.425z"/>
						</g>
						<g>
							<g>
								<path fill="#BA8660" d="M59.525,16.114h-0.912c-0.107,0-0.195-0.088-0.195-0.197c0-0.107,0.088-0.197,0.195-0.197h0.912
									c0.107,0,0.195,0.09,0.195,0.197C59.721,16.026,59.633,16.114,59.525,16.114z"/>
							</g>
							<g>
								<path fill="#BA8660" d="M61.053,16.114h-0.908c-0.111,0-0.199-0.088-0.199-0.197c0-0.107,0.088-0.197,0.199-0.197h0.908
									c0.109,0,0.197,0.09,0.197,0.197C61.25,16.026,61.162,16.114,61.053,16.114z"/>
							</g>
						</g>
					</g>
				</g>
			</g>
		</g>
		<g>
			<g>
				<g>
					<path fill="#C69E38" d="M27.158,30.887c-0.996-0.729-2.392-0.511-3.121,0.483L4.079,58.652
						c-0.046,0.062-0.078,0.131-0.116,0.196h5.506l18.174-24.841C28.371,33.014,28.152,31.616,27.158,30.887z"/>
					<path fill="#AF8528" d="M27.158,30.887c-0.996-0.729-2.392-0.511-3.121,0.483l-4.298,5.875h5.536l2.367-3.237
						C28.371,33.014,28.152,31.616,27.158,30.887z"/>
					<path fill="#BA8660" d="M11.82,59.276c0,0.33-0.268,0.598-0.598,0.598h-8.71c-0.331,0-0.599-0.268-0.599-0.598l0,0
						c0-0.33,0.268-0.598,0.599-0.598h8.71C11.553,58.679,11.82,58.946,11.82,59.276L11.82,59.276z"/>
				</g>
				<g>
					<path fill="#C69E38" d="M37.84,30.887c0.996-0.729,2.392-0.511,3.12,0.483l19.958,27.282c0.047,0.062,0.079,0.131,0.117,0.196
						h-5.506L37.355,34.008C36.627,33.014,36.845,31.616,37.84,30.887z"/>
					<path fill="#AF8528" d="M37.84,30.887c0.996-0.729,2.392-0.511,3.12,0.483l4.298,5.875h-5.535l-2.367-3.237
						C36.627,33.014,36.845,31.616,37.84,30.887z"/>
					<path fill="#BA8660" d="M53.178,59.276c0,0.33,0.268,0.598,0.598,0.598h8.709c0.332,0,0.6-0.268,0.6-0.598l0,0
						c0-0.33-0.268-0.598-0.6-0.598h-8.709C53.445,58.679,53.178,58.946,53.178,59.276L53.178,59.276z"/>
				</g>
			</g>
			<g>
				<path fill="#543114" d="M50.666,33.026c0,1.15-0.934,2.084-2.084,2.084H16.414c-1.148,0-2.082-0.934-2.082-2.084v-2.662
					c0-1.15,0.934-2.084,2.082-2.084h32.168c1.15,0,2.084,0.934,2.084,2.084V33.026z"/>
				<path fill="#824920" d="M14.332,30.364c0-1.15,0.934-2.084,2.082-2.084h32.168c1.15,0,2.084,0.934,2.084,2.084"/>
				<path fill="#543114" d="M64.5,50.787c0,1.15-0.934,2.084-2.084,2.084H2.582c-1.15,0-2.082-0.934-2.082-2.084v-2.662
					c0-1.15,0.932-2.084,2.082-2.084h59.834c1.15,0,2.084,0.934,2.084,2.084V50.787z"/>
			</g>
			<g>
				<g>
					<path fill="#770B0B" d="M47.113,26.296H44.08c-0.416,0-0.754-0.339-0.754-0.754c0-0.226,0.182-0.408,0.406-0.408
						c0.205,0,0.375,0.15,0.404,0.348h2.917v-4.994H44.08c-0.225,0-0.408-0.183-0.408-0.407c0-0.226,0.184-0.408,0.408-0.408h3.033
						c0.416,0,0.756,0.339,0.756,0.755v5.115C47.869,25.957,47.529,26.296,47.113,26.296z"/>
				</g>
				<path fill="#B50202" d="M45.263,28.47c0,0.226-0.184,0.407-0.408,0.407h-6.929c-0.227,0-0.408-0.182-0.408-0.407V19.57
					c0-0.226,0.182-0.407,0.408-0.407h6.929c0.225,0,0.408,0.182,0.408,0.407V28.47z"/>
				<path fill="#930707" d="M37.518,19.57c0-0.226,0.182-0.407,0.408-0.407h6.929c0.225,0,0.408,0.182,0.408,0.407v8.899
					c0,0.226-0.184,0.407-0.408,0.407"/>
				<path fill="#C9BE6D" d="M45.67,19.358c0,0.183-0.148,0.331-0.332,0.331h-7.896c-0.184,0-0.331-0.148-0.331-0.331l0,0
					c0-0.184,0.147-0.332,0.331-0.332h7.896C45.521,19.026,45.67,19.175,45.67,19.358L45.67,19.358z"/>
				<path fill="#DDD187" d="M37.11,19.358L37.11,19.358c0-0.184,0.147-0.332,0.331-0.332h7.896c0.184,0,0.332,0.148,0.332,0.332l0,0
					"/>
				<path fill="#CE0D0D" d="M38.502,26.771c0,0.17-0.135,0.307-0.306,0.307l0,0c-0.169,0-0.304-0.137-0.304-0.307v-4.823
					c0-0.168,0.135-0.305,0.304-0.305l0,0c0.171,0,0.306,0.137,0.306,0.305V26.771z"/>
			</g>
		</g>
	</g>
</g>
<g id="nyt_x5F_exporter_x5F_info" display="none">
</g>
</svg>
