<?xml version="1.0" encoding="utf-8"?>
<!-- Generator: Adobe Illustrator 16.0.0, SVG Export Plug-In . SVG Version: 6.00 Build 0)  -->
<!DOCTYPE svg PUBLIC "-//W3C//DTD SVG 1.1//EN" "http://www.w3.org/Graphics/SVG/1.1/DTD/svg11.dtd">
<svg version="1.1" xmlns="http://www.w3.org/2000/svg" xmlns:xlink="http://www.w3.org/1999/xlink" x="0px" y="0px" width="65px"
	 height="65px" viewBox="0 0 65 65" enable-background="new 0 0 65 65" xml:space="preserve">
<g id="Layer_1">
	<g>
		<g>
			<path fill="#FF4800" d="M59.305,59.254c-6.246,4.047-16.682,1.526-24.531-6.321c-7.85-7.849-6.555-14.472-1.824-20.032"/>
			<path fill="#6D3007" d="M52.285,63.675c-6.312,0-13.471-3.167-19.279-8.975c-7.736-7.735-8.414-15.834-1.961-23.42
				c0.895-1.053,2.473-1.179,3.524-0.284s1.179,2.473,0.284,3.524c-4.755,5.589-4.234,10.723,1.688,16.645
				c6.871,6.868,16.072,9.443,21.404,5.991c1.159-0.751,2.707-0.42,3.457,0.738c0.751,1.159,0.421,2.707-0.738,3.457
				C58.243,62.921,55.364,63.675,52.285,63.675z"/>
		</g>
		<g>
			<g>
				<g>
					<g>
						<g>
							<g>
								<path fill="#FF7F00" d="M59.307,5.75c-6.252-4.051-16.686-1.53-24.533,6.318c-7.85,7.848-6.557,14.47-1.82,20.035"/>
								<path fill="#6D3007" d="M32.954,34.604c-0.707,0-1.41-0.299-1.905-0.88c-6.457-7.588-5.78-15.688,1.957-23.423
									c8.639-8.642,20.271-11.435,27.66-6.648c1.159,0.75,1.489,2.298,0.738,3.457c-0.751,1.158-2.3,1.489-3.457,0.738
									C52.61,4.393,43.41,6.967,36.541,13.836c-5.923,5.922-6.442,11.056-1.684,16.647c0.895,1.052,0.768,2.629-0.284,3.524
									C34.103,34.408,33.527,34.604,32.954,34.604z"/>
							</g>
						</g>
					</g>
				</g>
				<g>
					<g>
						<g>
							<path fill="#FF4800" d="M5.746,59.305c-4.047-6.248-1.527-16.682,6.322-24.529c7.846-7.849,14.471-6.557,20.033-1.824"/>
							<path fill="#6D3007" d="M5.748,61.805c-0.819,0-1.622-0.402-2.101-1.141c-4.784-7.388-1.986-19.019,6.653-27.656
								c7.735-7.738,15.834-8.415,23.421-1.961c1.052,0.895,1.179,2.473,0.284,3.524c-0.896,1.052-2.473,1.178-3.524,0.284
								c-5.592-4.758-10.727-4.235-16.645,1.688c-6.871,6.868-9.446,16.069-5.992,21.402c0.75,1.159,0.419,2.707-0.739,3.458
								C6.686,61.675,6.214,61.805,5.748,61.805z"/>
						</g>
						<g>
							<g>
								<path fill="#FF7F00" d="M5.695,59.252c6.25,4.051,16.684,1.53,24.531-6.318c7.85-7.848,6.557-14.471,1.82-20.035"/>
								<path fill="#6D3007" d="M12.72,63.675c-3.081,0-5.961-0.755-8.384-2.325c-1.159-0.751-1.489-2.299-0.738-3.457
									c0.751-1.161,2.301-1.489,3.457-0.738c5.334,3.455,14.534,0.883,21.404-5.988c5.924-5.922,6.442-11.057,1.685-16.647
									c-0.896-1.051-0.769-2.629,0.283-3.523c1.049-0.896,2.628-0.769,3.523,0.283c6.459,7.587,5.782,15.687-1.956,23.423
									C26.188,60.508,19.031,63.675,12.72,63.675z"/>
							</g>
						</g>
					</g>
					<g>
						<g>
							<g>
								<path fill="#FFCE55" d="M15.408,49.561c3.947,2.558,10.541,0.967,15.498-3.992c4.961-4.959,4.145-9.145,1.154-12.66"/>
								<path fill="#6D3007" d="M19.833,53.268c-2.119,0-4.107-0.522-5.784-1.609c-1.159-0.75-1.489-2.299-0.738-3.457
									c0.751-1.159,2.299-1.489,3.457-0.738c2.964,1.917,8.397,0.313,12.37-3.662c4.23-4.229,2.989-6.955,1.019-9.272
									c-0.895-1.052-0.768-2.63,0.284-3.524c1.053-0.894,2.631-0.767,3.524,0.284c4.375,5.144,3.916,10.843-1.291,16.049
									C28.833,51.179,24.071,53.268,19.833,53.268z"/>
							</g>
						</g>
					</g>
				</g>
			</g>
			<g>
				<g>
					<g>
						<g>
							<g>
								<path fill="#FF7F00" d="M5.748,5.694c-4.051,6.251-1.529,16.685,6.318,24.532c7.848,7.849,14.471,6.557,20.035,1.82"/>
								<path fill="#6D3007" d="M23.162,38.342c-4.302,0-8.637-2.12-12.863-6.348C1.659,23.354-1.137,11.722,3.65,4.335
									c0.751-1.16,2.3-1.49,3.457-0.738c1.159,0.751,1.489,2.299,0.738,3.457c-3.456,5.333-0.881,14.535,5.988,21.405
									c5.923,5.922,11.057,6.443,16.647,1.685c1.049-0.896,2.629-0.77,3.523,0.283c0.896,1.051,0.769,2.629-0.283,3.523
									C30.28,36.88,26.732,38.342,23.162,38.342z"/>
							</g>
						</g>
						<g>
							<path fill="#FF4800" d="M5.697,5.746c6.246-4.047,16.682-1.526,24.529,6.322c7.85,7.848,6.555,14.471,1.822,20.031"/>
							<path fill="#6D3007" d="M32.048,34.6c-0.573,0-1.148-0.195-1.619-0.596c-1.052-0.896-1.179-2.473-0.284-3.524
								c4.757-5.589,4.237-10.722-1.686-16.644c-6.87-6.87-16.071-9.444-21.402-5.992C5.899,8.597,4.351,8.264,3.6,7.105
								C2.849,5.946,3.179,4.398,4.338,3.648c7.384-4.788,19.017-1.989,27.656,6.652c7.737,7.735,8.415,15.833,1.959,23.419
								C33.458,34.301,32.755,34.6,32.048,34.6z"/>
						</g>
					</g>
					<g>
						<g>
							<g>
								<path fill="#FFCE55" d="M15.439,15.407c-2.557,3.947-0.965,10.542,3.994,15.5c4.959,4.959,9.143,4.144,12.658,1.151"/>
								<path fill="#6D3007" d="M26.455,36.941c-2.963,0.001-5.949-1.427-8.789-4.267c-5.764-5.763-7.583-13.597-4.325-18.627
									c0.751-1.157,2.301-1.487,3.458-0.739c1.158,0.751,1.489,2.299,0.739,3.458c-1.921,2.964-0.312,8.399,3.663,12.373
									c4.229,4.229,6.955,2.986,9.271,1.016c1.049-0.896,2.628-0.769,3.523,0.283c0.896,1.051,0.769,2.629-0.283,3.523
									C31.376,35.951,28.923,36.941,26.455,36.941z"/>
							</g>
						</g>
					</g>
				</g>
				<g>
					<g>
						<g>
							<g>
								<path fill="#FF7F00" d="M59.252,59.306c4.051-6.25,1.531-16.683-6.318-24.532c-7.848-7.848-14.471-6.557-20.035-1.82"/>
								<path fill="#6D3007" d="M59.25,61.806c-0.467,0-0.938-0.13-1.357-0.402c-1.159-0.751-1.489-2.299-0.738-3.457
									c3.456-5.333,0.882-14.535-5.988-21.405c-5.924-5.922-11.057-6.441-16.647-1.685c-1.05,0.894-2.629,0.769-3.523-0.283
									c-0.896-1.051-0.769-2.629,0.283-3.523c7.586-6.458,15.685-5.782,23.423,1.956c8.641,8.64,11.437,20.272,6.648,27.659
									C60.871,61.404,60.068,61.806,59.25,61.806z"/>
							</g>
						</g>
					</g>
					<g>
						<path fill="#FF4800" d="M59.254,5.696c4.047,6.249,1.527,16.683-6.32,24.53c-7.848,7.849-14.473,6.557-20.035,1.824"/>
						<path fill="#6D3007" d="M41.836,38.343c-3.57,0-7.116-1.46-10.558-4.388c-1.052-0.895-1.179-2.473-0.284-3.524
							c0.896-1.053,2.474-1.179,3.524-0.284c5.589,4.755,10.723,4.236,16.647-1.688c6.868-6.869,9.443-16.07,5.989-21.403
							c-0.75-1.159-0.419-2.707,0.739-3.458c1.158-0.75,2.707-0.42,3.458,0.739c4.784,7.388,1.987,19.02-6.651,27.657
							C50.474,36.223,46.138,38.343,41.836,38.343z"/>
					</g>
					<g>
						<g>
							<g>
								<path fill="#FFCE55" d="M49.594,15.441c-3.949-2.56-10.543-0.967-15.502,3.992c-4.957,4.96-4.143,9.145-1.15,12.66"/>
								<path fill="#6D3007" d="M32.942,34.594c-0.707,0-1.41-0.299-1.904-0.88c-4.376-5.141-3.919-10.84,1.285-16.048
									c5.765-5.765,13.602-7.582,18.63-4.322c1.159,0.751,1.489,2.299,0.738,3.457c-0.751,1.161-2.301,1.489-3.457,0.738
									c-2.965-1.921-8.399-0.313-12.375,3.662c-4.227,4.229-2.985,6.956-1.015,9.272c0.896,1.051,0.769,2.629-0.283,3.523
									C34.092,34.397,33.516,34.594,32.942,34.594z"/>
							</g>
						</g>
					</g>
					<g>
						<g>
							<g>
								<path fill="#FFCE55" d="M49.561,49.595c2.559-3.948,0.965-10.543-3.992-15.5c-4.959-4.961-9.145-4.145-12.662-1.152"/>
								<path fill="#6D3007" d="M49.559,52.095c-0.467,0-0.938-0.13-1.357-0.402c-1.159-0.751-1.489-2.299-0.738-3.457
									c1.92-2.964,0.312-8.398-3.662-12.373c-4.229-4.229-6.957-2.987-9.274-1.016c-1.052,0.896-2.63,0.769-3.524-0.284
									c-0.895-1.052-0.768-2.63,0.284-3.524c5.145-4.376,10.844-3.918,16.051,1.289c5.763,5.764,7.581,13.598,4.321,18.627
									C51.18,51.692,50.377,52.095,49.559,52.095z"/>
							</g>
						</g>
					</g>
				</g>
			</g>
			<g>
				<circle fill="#FF7F00" cx="32.5" cy="32.5" r="8.679"/>
				<path fill="#6D3007" d="M32.5,43.679c-2.985,0-5.793-1.163-7.904-3.274c-4.357-4.358-4.357-11.45-0.001-15.81
					c2.113-2.111,4.92-3.273,7.905-3.273c2.986,0,5.794,1.163,7.904,3.274c4.357,4.358,4.357,11.45,0,15.809
					C38.293,42.516,35.485,43.679,32.5,43.679z M32.5,26.321c-1.65,0-3.202,0.643-4.369,1.81c-2.408,2.408-2.408,6.329,0,8.738
					c1.167,1.167,2.719,1.81,4.369,1.81s3.202-0.643,4.369-1.81c2.408-2.409,2.408-6.329,0-8.738
					C35.702,26.964,34.15,26.321,32.5,26.321z"/>
			</g>
		</g>
	</g>
</g>
<g id="nyt_x5F_exporter_x5F_info" display="none">
</g>
</svg>
