<?xml version="1.0" encoding="utf-8"?>
<!-- Generator: Adobe Illustrator 16.0.0, SVG Export Plug-In . SVG Version: 6.00 Build 0)  -->
<!DOCTYPE svg PUBLIC "-//W3C//DTD SVG 1.1//EN" "http://www.w3.org/Graphics/SVG/1.1/DTD/svg11.dtd">
<svg version="1.1" id="Layer_1" xmlns="http://www.w3.org/2000/svg" xmlns:xlink="http://www.w3.org/1999/xlink" x="0px" y="0px"
	 width="65px" height="65px" viewBox="0 0 65 65" enable-background="new 0 0 65 65" xml:space="preserve">
<g>
	<g>
		<g>
			<g>
				<g>
					<path fill="#D3A16A" d="M29.734,36.127c-1.273-1.432-0.466-4.229,1.805-6.25c2.27-2.018,14.475-10.793,15.75-9.365
						c1.271,1.434-8.873,12.533-11.143,14.551C33.879,37.08,31.008,37.557,29.734,36.127z"/>
					<path fill="#D3A16A" d="M26.945,36.127c1.273-1.432,0.465-4.229-1.805-6.25c-2.271-2.018-14.475-10.793-15.75-9.365
						c-1.272,1.434,8.873,12.533,11.143,14.551C22.8,37.08,25.671,37.557,26.945,36.127z"/>
				</g>
				<g>
					<path fill="#0AA0A0" d="M40.337,46.446c0,2.476-2.007,15.827-4.485,15.827c-2.475,0-4.482-13.352-4.482-15.827
						s2.008-4.484,4.482-4.484C38.33,41.962,40.337,43.971,40.337,46.446z"/>
					<path fill="#0AA0A0" d="M25.312,46.446c0,2.476-2.009,15.827-4.486,15.827c-2.475,0-4.482-13.352-4.482-15.827
						s2.008-4.484,4.482-4.484C23.304,41.962,25.312,43.971,25.312,46.446z"/>
					<path fill="#BC8158" d="M17.687,55.416c0.809,3.597,1.917,6.857,3.14,6.857c1.225,0,2.334-3.261,3.144-6.857H17.687z"/>
					<path fill="#BC8158" d="M32.712,55.416c0.809,3.597,1.917,6.857,3.14,6.857c1.225,0,2.333-3.261,3.144-6.857H32.712z"/>
				</g>
				<path fill="#CC7309" d="M40.99,40.521c0,16.038-5.662,10.697-12.65,10.697c-6.987,0-12.65,5.341-12.65-10.697
					c0-9.17,5.665-16.603,12.65-16.603C35.326,23.919,40.99,31.352,40.99,40.521z"/>
				<path fill="#EA8C06" d="M28.34,23.919c-6.563,0-11.961,6.564-12.587,14.967c0.633,12.705,6.026,7.999,12.587,7.999
					c6.562,0,11.954,4.706,12.587-7.999C40.3,30.483,34.905,23.919,28.34,23.919z"/>
				<ellipse fill="#D3A16A" cx="28.34" cy="29.542" rx="5.417" ry="4.791"/>
				<g>
					<path fill="#E8B374" d="M25.873,62.354c0,1.896-2.26,2.146-5.045,2.146s-5.045-0.249-5.045-2.146
						c0-1.897,2.26-4.508,5.045-4.508S25.873,60.457,25.873,62.354z"/>
					<path fill="#13B784" d="M25.873,62.354c0,1.896-2.26,2.146-5.045,2.146s-5.045-0.249-5.045-2.146"/>
				</g>
				<g>
					<path fill="#E8B374" d="M40.898,62.354c0,1.896-2.261,2.146-5.046,2.146c-2.784,0-5.044-0.249-5.044-2.146
						c0-1.897,2.26-4.508,5.044-4.508C38.638,57.847,40.898,60.457,40.898,62.354z"/>
					<path fill="#13B784" d="M40.898,62.354c0,1.896-2.261,2.146-5.046,2.146c-2.784,0-5.044-0.249-5.044-2.146"/>
				</g>
				<g>
					<path fill="#EFC286" d="M44.711,16.275c0,7.999-7.33,12.02-16.369,12.02c-9.042,0-16.374-4.021-16.374-12.02
						C11.968,8.274,19.3,0.5,28.342,0.5C37.381,0.5,44.711,8.274,44.711,16.275z"/>
					<path fill="#E8B374" d="M44.711,16.275c0,7.999-7.33,12.02-16.369,12.02c-9.042,0-16.374-4.021-16.374-12.02"/>
				</g>
				<g>
					<g>
						<g>
							<path fill="#232728" d="M20.61,15.594c-0.078,0-0.158-0.028-0.219-0.091c-0.715-0.714-1.664-1.107-2.672-1.107h-0.002
								c-1.008,0-1.955,0.394-2.666,1.106c-0.121,0.121-0.316,0.124-0.436,0.001c-0.121-0.117-0.125-0.312-0.004-0.434
								c0.83-0.831,1.932-1.29,3.105-1.29h0.002c1.176,0,2.279,0.456,3.111,1.288c0.119,0.119,0.119,0.318,0,0.436
								C20.771,15.565,20.692,15.594,20.61,15.594z"/>
						</g>
					</g>
					<g>
						<g>
							<path fill="#232728" d="M30.405,15.594c0.076,0,0.156-0.028,0.217-0.091c0.715-0.714,1.664-1.107,2.672-1.107h0.002
								c1.008,0,1.957,0.394,2.668,1.106c0.119,0.121,0.314,0.124,0.436,0.001c0.121-0.117,0.123-0.312,0.002-0.434
								c-0.826-0.831-1.932-1.29-3.105-1.29h-0.002c-1.174,0-2.277,0.456-3.111,1.288c-0.117,0.119-0.117,0.318,0,0.436
								C30.245,15.565,30.323,15.594,30.405,15.594z"/>
						</g>
					</g>
				</g>
			</g>
			<path fill="#A7B1B7" d="M30.924,45.298"/>
			<path fill="#870E0E" d="M29.283,17.383c0,2.514-1.617,4.555-3.609,4.555s-3.609-2.041-3.609-4.555
				c0-2.518,1.617-1.014,3.609-1.014S29.283,14.865,29.283,17.383z"/>
			<path fill="#AA1111" d="M25.673,18.258c-1.183,0-2.223,0.729-2.882,1.839c0.659,1.111,1.7,1.841,2.883,1.841
				s2.224-0.729,2.882-1.839C27.897,18.987,26.856,18.258,25.673,18.258z"/>
		</g>
	</g>
	<g>
		<path fill="#0AA0A0" d="M25.623,44.183c0.723,0.662,1.686,1.067,2.743,1.067c0.383,0,0.752-0.055,1.104-0.153
			c-0.351-0.051-0.733-0.146-1.149-0.301C27.193,44.384,26.309,44.218,25.623,44.183z"/>
		<path fill="#0AA0A0" d="M32.416,40.882c-0.553,0.619-1.803,1.496-4.095,0.656c-2.064-0.758-3.323-0.685-4.014-0.493
			c-0.002,0.047-0.004,0.095-0.004,0.143c0,0.415,0.062,0.815,0.178,1.192c0.746-0.398,1.932-0.739,3.404-0.168
			c2.526,0.979,3.518,0.833,4.338,0.251c0.131-0.401,0.205-0.829,0.205-1.275C32.429,41.084,32.424,40.981,32.416,40.882z"/>
		<path fill="#0AA0A0" d="M28.321,43.167c-1.834-0.672-3.029-0.689-3.759-0.552c0.15,0.4,0.362,0.771,0.624,1.099
			c0.709-0.221,1.627-0.288,2.699,0.127c1.232,0.479,2.1,0.688,2.76,0.71c0.625-0.425,1.125-1.021,1.436-1.72
			C31.419,43.374,30.233,43.868,28.321,43.167z"/>
		<path fill="#0AA0A0" d="M27.886,40.583c2.708,1.05,3.651,0.806,4.513,0.118c-0.24-2.015-1.953-3.576-4.032-3.576
			c-2.127,0-3.871,1.635-4.047,3.717C25.049,40.41,26.3,39.968,27.886,40.583z"/>
	</g>
	<g>
		<g>
			<g>
				<g>
					<path fill="#DD300E" d="M43.846,64.5c-6.548,0-11.875-5.327-11.875-11.875S37.298,40.75,43.846,40.75
						S55.72,46.077,55.72,52.625S50.394,64.5,43.846,64.5z M43.846,46.482c-3.387,0-6.144,2.756-6.144,6.143
						s2.757,6.142,6.144,6.142s6.142-2.755,6.142-6.142S47.232,46.482,43.846,46.482z"/>
				</g>
				<path fill="#BC1D08" d="M43.846,44.136c-4.688,0-8.488,3.801-8.488,8.489s3.801,8.489,8.488,8.489s8.488-3.801,8.488-8.489
					S48.533,44.136,43.846,44.136z M43.846,58.767c-3.387,0-6.144-2.755-6.144-6.142s2.757-6.143,6.144-6.143
					s6.142,2.756,6.142,6.143S47.232,58.767,43.846,58.767z"/>
				<g>
					<path fill="#17AACC" d="M37.702,52.625h-5.731c0-6.548,5.327-11.875,11.875-11.875v5.732
						C40.459,46.482,37.702,49.238,37.702,52.625z"/>
				</g>
				<g>
					<path fill="#2DCEE8" d="M31.971,52.625c0-6.548,5.327-11.875,11.875-11.875"/>
				</g>
				<g>
					<path fill="#17AACC" d="M43.846,64.5v-5.733c3.387,0,6.142-2.755,6.142-6.142h5.732C55.72,59.173,50.394,64.5,43.846,64.5z"/>
				</g>
				<g>
					<path fill="#0896BC" d="M55.72,52.625c0,6.548-5.326,11.875-11.874,11.875"/>
				</g>
			</g>
			<path fill="#0896BC" d="M43.846,46.482v-2.347c-4.688,0-8.488,3.801-8.488,8.489h2.345
				C37.702,49.238,40.459,46.482,43.846,46.482z"/>
			<path fill="#0896BC" d="M49.987,52.625c0,3.387-2.755,6.142-6.142,6.142v2.348c4.688,0,8.488-3.801,8.488-8.489H49.987z"/>
		</g>
		<circle fill="#FCD21D" cx="51.123" cy="47.136" r="1.345"/>
		<path fill="#F9A51E" d="M52.468,47.136c0,0.743-0.603,1.346-1.345,1.346c-0.743,0-1.345-0.603-1.345-1.346"/>
	</g>
	<path fill="#D3A16A" d="M28.342,0.5c-4.157,0-7.94,1.655-10.828,4.208h20.399v8.125c0,0,2.338-5.466,5.318-2.78
		C40.653,4.677,34.963,0.5,28.342,0.5z"/>
</g>
</svg>
