<?xml version="1.0" encoding="utf-8"?>
<!-- Generator: Adobe Illustrator 16.0.0, SVG Export Plug-In . SVG Version: 6.00 Build 0)  -->
<!DOCTYPE svg PUBLIC "-//W3C//DTD SVG 1.1//EN" "http://www.w3.org/Graphics/SVG/1.1/DTD/svg11.dtd">
<svg version="1.1" xmlns="http://www.w3.org/2000/svg" xmlns:xlink="http://www.w3.org/1999/xlink" x="0px" y="0px" width="65px"
	 height="65px" viewBox="0 0 65 65" enable-background="new 0 0 65 65" xml:space="preserve">
<g id="Layer_1">
	<g>
		<g>
			<path fill="#182F51" d="M60.126,50.762c1.102,1.103,1.102,2.892,0,3.994l-3.869,3.869c-1.102,1.103-2.891,1.103-3.994,0
				L41.03,47.393c-1.102-1.103-1.102-2.892,0.002-3.994l3.869-3.867c1.102-1.104,2.891-1.104,3.992-0.001L60.126,50.762z"/>
			<path fill="#1D4482" d="M52.478,33.242c0.814,0.817,0.814,2.141,0,2.956L37.7,50.976c-0.816,0.815-2.139,0.815-2.955-0.001
				l-3.201-3.201c-0.816-0.816-0.816-2.14,0-2.956L46.319,30.04c0.816-0.814,2.141-0.814,2.955,0.001L52.478,33.242z"/>
			<line fill="#2D5CA0" x1="52.478" y1="36.198" x2="37.7" y2="50.976"/>
			<path fill="#2D5CA0" d="M31.544,47.773c-0.816-0.816-0.816-2.14,0-2.956L46.319,30.04c0.816-0.814,2.141-0.814,2.955,0.001"/>
			<g>
				<circle fill="#2D5CA0" cx="44.37" cy="48.983" r="0.397"/>
				<circle fill="#2D5CA0" cx="45.898" cy="47.455" r="0.396"/>
				<circle fill="#2D5CA0" cx="47.428" cy="45.926" r="0.397"/>
				<circle fill="#2D5CA0" cx="48.957" cy="44.397" r="0.396"/>
				<circle fill="#2D5CA0" cx="50.485" cy="42.868" r="0.398"/>
			</g>
			<g>
				<circle fill="#2D5CA0" cx="46.616" cy="51.23" r="0.397"/>
				<circle fill="#2D5CA0" cx="48.146" cy="49.702" r="0.397"/>
				<circle fill="#2D5CA0" cx="49.675" cy="48.172" r="0.397"/>
				<circle fill="#2D5CA0" cx="51.203" cy="46.644" r="0.396"/>
				<circle fill="#2D5CA0" cx="52.731" cy="45.115" r="0.397"/>
			</g>
			<g>
				<circle fill="#2D5CA0" cx="48.863" cy="53.477" r="0.397"/>
				<circle fill="#2D5CA0" cx="50.392" cy="51.948" r="0.396"/>
				<circle fill="#2D5CA0" cx="51.921" cy="50.419" r="0.397"/>
				<circle fill="#2D5CA0" cx="53.449" cy="48.89" r="0.397"/>
				<circle fill="#2D5CA0" cx="54.979" cy="47.361" r="0.397"/>
			</g>
			<g>
				<circle fill="#2D5CA0" cx="51.108" cy="55.723" r="0.397"/>
				<circle fill="#2D5CA0" cx="52.638" cy="54.194" r="0.397"/>
				<circle fill="#2D5CA0" cx="54.167" cy="52.666" r="0.397"/>
				<circle fill="#2D5CA0" cx="55.696" cy="51.136" r="0.397"/>
				<circle fill="#2D5CA0" cx="57.224" cy="49.608" r="0.397"/>
			</g>
			<path fill="#2D5CA0" d="M63.931,50.284c0.758,0.758,0.76,1.986,0,2.746l-9.4,9.399c-0.758,0.76-1.986,0.759-2.744,0l0,0
				c-0.76-0.758-0.76-1.985,0-2.745l9.4-9.4C61.944,49.525,63.173,49.526,63.931,50.284L63.931,50.284z"/>
		</g>
		<path fill="#778FAA" d="M12.792,6.562c-3.455,0-8.977-2.879-11.309-4.562c-2.051,2.637-0.805,6.981,2.916,10.7l30.01,30.011
			l9.805-9.805L17.255,5.948C15.86,6.338,14.364,6.562,12.792,6.562z"/>
		<path fill="#97AFC6" d="M10.417,6.221l30.242,30.241l3.555-3.555L17.255,5.948c-1.395,0.39-2.891,0.614-4.463,0.614
			C12.073,6.562,11.265,6.433,10.417,6.221z"/>
		<path fill="#97AFC6" d="M18.036,18.147c0.479,0.479,0.479,1.256,0,1.734l0,0c-0.479,0.479-1.254,0.479-1.732,0l-3.361-3.36
			c-0.479-0.479-0.479-1.255,0-1.733l0,0c0.479-0.479,1.256-0.479,1.734-0.001L18.036,18.147z"/>
		<path fill="#EBF0F2" d="M18.728,18.838c0.479,0.479,0.479,1.257,0,1.734l0,0c-0.48,0.479-1.256,0.479-1.734,0l-3.359-3.36
			c-0.479-0.479-0.479-1.254,0-1.732l0,0c0.479-0.479,1.254-0.48,1.734-0.001L18.728,18.838z"/>
	</g>
</g>
<g id="nyt_x5F_exporter_x5F_info" display="none">
</g>
</svg>
