<?xml version="1.0" encoding="utf-8"?>
<!-- Generator: Adobe Illustrator 16.0.0, SVG Export Plug-In . SVG Version: 6.00 Build 0)  -->
<!DOCTYPE svg PUBLIC "-//W3C//DTD SVG 1.1//EN" "http://www.w3.org/Graphics/SVG/1.1/DTD/svg11.dtd">
<svg version="1.1" id="Layer_1" xmlns="http://www.w3.org/2000/svg" xmlns:xlink="http://www.w3.org/1999/xlink" x="0px" y="0px"
	 width="64px" height="64px" viewBox="0 0 64 64" enable-background="new 0 0 64 64" xml:space="preserve">
<g>
	<g>
		<g>
			<g>
				<path fill="#C3D7DD" d="M51.4,43h-2c-0.3,0-0.5-0.2-0.5-0.5c0-0.3,0.2-0.5,0.5-0.5h2c0.3,0,0.5,0.2,0.5,0.5
					C51.9,42.8,51.7,43,51.4,43z M47.4,43h-2c-0.3,0-0.5-0.2-0.5-0.5c0-0.3,0.2-0.5,0.5-0.5h2c0.3,0,0.5,0.2,0.5,0.5
					C47.9,42.8,47.7,43,47.4,43z M43.4,43h-2c-0.3,0-0.5-0.2-0.5-0.5c0-0.3,0.2-0.5,0.5-0.5h2c0.3,0,0.5,0.2,0.5,0.5
					C43.9,42.8,43.7,43,43.4,43z M39.4,43h-2c-0.3,0-0.5-0.2-0.5-0.5c0-0.3,0.2-0.5,0.5-0.5h2c0.3,0,0.5,0.2,0.5,0.5
					C39.9,42.8,39.7,43,39.4,43z M35.4,43h-2c-0.3,0-0.5-0.2-0.5-0.5c0-0.3,0.2-0.5,0.5-0.5h2c0.3,0,0.5,0.2,0.5,0.5
					C35.9,42.8,35.7,43,35.4,43z M31.4,43h-2c-0.3,0-0.5-0.2-0.5-0.5c0-0.3,0.2-0.5,0.5-0.5h2c0.3,0,0.5,0.2,0.5,0.5
					C31.9,42.8,31.7,43,31.4,43z M27.4,43h-2c-0.3,0-0.5-0.2-0.5-0.5c0-0.3,0.2-0.5,0.5-0.5h2c0.3,0,0.5,0.2,0.5,0.5
					C27.9,42.8,27.7,43,27.4,43z M23.4,43h-2c-0.3,0-0.5-0.2-0.5-0.5c0-0.3,0.2-0.5,0.5-0.5h2c0.3,0,0.5,0.2,0.5,0.5
					C23.9,42.8,23.7,43,23.4,43z M19.4,43h-2c-0.3,0-0.5-0.2-0.5-0.5c0-0.3,0.2-0.5,0.5-0.5h2c0.3,0,0.5,0.2,0.5,0.5
					C19.9,42.8,19.7,43,19.4,43z M15.4,43h-2c-0.3,0-0.5-0.2-0.5-0.5c0-0.3,0.2-0.5,0.5-0.5h2c0.3,0,0.5,0.2,0.5,0.5
					C15.9,42.8,15.7,43,15.4,43z M12.7,42.6c-0.1,0-0.2,0-0.3-0.1c-0.2-0.1-0.3-0.4-0.2-0.7l1-1.7c0.1-0.2,0.4-0.3,0.7-0.2
					c0.2,0.1,0.3,0.4,0.2,0.7l-1,1.7C13.1,42.5,12.9,42.6,12.7,42.6z M50.8,41.9c-0.2,0-0.3-0.1-0.4-0.2l-1-1.7
					c-0.1-0.2-0.1-0.5,0.2-0.7c0.2-0.1,0.5-0.1,0.7,0.2l1,1.7c0.1,0.2,0.1,0.5-0.2,0.7C51,41.9,50.9,41.9,50.8,41.9z M14.8,39.1
					c-0.1,0-0.2,0-0.3-0.1c-0.2-0.1-0.3-0.4-0.2-0.7l1-1.7c0.1-0.2,0.4-0.3,0.7-0.2c0.2,0.1,0.3,0.4,0.2,0.7l-1,1.7
					C15.1,39.1,14.9,39.1,14.8,39.1z M48.8,38.4c-0.2,0-0.3-0.1-0.4-0.2l-1-1.7c-0.1-0.2-0.1-0.5,0.2-0.7c0.2-0.1,0.5-0.1,0.7,0.2
					l1,1.7c0.1,0.2,0.1,0.5-0.2,0.7C49,38.4,48.9,38.4,48.8,38.4z M16.8,35.7c-0.1,0-0.2,0-0.3-0.1c-0.2-0.1-0.3-0.4-0.2-0.7l1-1.7
					c0.1-0.2,0.4-0.3,0.7-0.2c0.2,0.1,0.3,0.4,0.2,0.7l-1,1.7C17.1,35.6,17,35.7,16.8,35.7z M46.8,35c-0.2,0-0.3-0.1-0.4-0.2l-1-1.7
					c-0.1-0.2-0.1-0.5,0.2-0.7c0.2-0.1,0.5-0.1,0.7,0.2l1,1.7c0.1,0.2,0.1,0.5-0.2,0.7C47,35,46.9,35,46.8,35z M18.8,32.2
					c-0.1,0-0.2,0-0.3-0.1c-0.2-0.1-0.3-0.4-0.2-0.7l1-1.7c0.1-0.2,0.4-0.3,0.7-0.2c0.2,0.1,0.3,0.4,0.2,0.7l-1,1.7
					C19.2,32.2,19,32.2,18.8,32.2z M44.8,31.5c-0.2,0-0.3-0.1-0.4-0.2l-1-1.7c-0.1-0.2-0.1-0.5,0.2-0.7c0.2-0.1,0.5-0.1,0.7,0.2
					l1,1.7c0.1,0.2,0.1,0.5-0.2,0.7C44.9,31.5,44.8,31.5,44.8,31.5z M20.9,28.8c-0.1,0-0.2,0-0.3-0.1c-0.2-0.1-0.3-0.4-0.2-0.7
					l1-1.7c0.1-0.2,0.4-0.3,0.7-0.2c0.2,0.1,0.3,0.4,0.2,0.7l-1,1.7C21.2,28.7,21,28.8,20.9,28.8z M42.7,28.1
					c-0.2,0-0.3-0.1-0.4-0.2l-1-1.7c-0.1-0.2-0.1-0.5,0.2-0.7c0.2-0.1,0.5-0.1,0.7,0.2l1,1.7c0.1,0.2,0.1,0.5-0.2,0.7
					C42.9,28.1,42.8,28.1,42.7,28.1z M22.9,25.4c-0.1,0-0.2,0-0.3-0.1c-0.2-0.1-0.3-0.4-0.2-0.7l1-1.7c0.1-0.2,0.4-0.3,0.7-0.2
					c0.2,0.1,0.3,0.4,0.2,0.7l-1,1.7C23.2,25.3,23,25.4,22.9,25.4z M40.7,24.6c-0.2,0-0.3-0.1-0.4-0.2l-1-1.7
					c-0.1-0.2-0.1-0.5,0.2-0.7c0.2-0.1,0.5-0.1,0.7,0.2l1,1.7c0.1,0.2,0.1,0.5-0.2,0.7C40.9,24.6,40.8,24.6,40.7,24.6z M24.9,21.9
					c-0.1,0-0.2,0-0.3-0.1c-0.2-0.1-0.3-0.4-0.2-0.7l1-1.7c0.1-0.2,0.4-0.3,0.7-0.2c0.2,0.1,0.3,0.4,0.2,0.7l-1,1.7
					C25.2,21.8,25.1,21.9,24.9,21.9z M38.7,21.2c-0.2,0-0.3-0.1-0.4-0.2l-1-1.7c-0.1-0.2-0.1-0.5,0.2-0.7c0.2-0.1,0.5-0.1,0.7,0.2
					l1,1.7c0.1,0.2,0.1,0.5-0.2,0.7C38.9,21.2,38.8,21.2,38.7,21.2z M26.9,18.5c-0.1,0-0.2,0-0.3-0.1c-0.2-0.1-0.3-0.4-0.2-0.7
					l1-1.7c0.1-0.2,0.4-0.3,0.7-0.2c0.2,0.1,0.3,0.4,0.2,0.7l-1,1.7C27.3,18.4,27.1,18.5,26.9,18.5z M36.7,17.7
					c-0.2,0-0.3-0.1-0.4-0.2l-1-1.7c-0.1-0.2-0.1-0.5,0.2-0.7c0.2-0.1,0.5-0.1,0.7,0.2l1,1.7c0.1,0.2,0.1,0.5-0.2,0.7
					C36.8,17.7,36.7,17.7,36.7,17.7z M29,15c-0.1,0-0.2,0-0.3-0.1c-0.2-0.1-0.3-0.4-0.2-0.7l1-1.7c0.1-0.2,0.5-0.3,0.7-0.2
					c0.2,0.1,0.3,0.4,0.2,0.7l-1,1.7C29.3,14.9,29.1,15,29,15z M34.6,14.3c-0.2,0-0.3-0.1-0.4-0.2l-1-1.7c-0.1-0.2-0.1-0.5,0.2-0.7
					s0.5-0.1,0.7,0.2l1,1.7c0.1,0.2,0.1,0.5-0.2,0.7C34.8,14.3,34.7,14.3,34.6,14.3z M31,11.6c-0.1,0-0.2,0-0.3-0.1
					c-0.2-0.1-0.3-0.4-0.2-0.7l1-1.7c0.2-0.3,0.7-0.3,0.9,0l0.6,1c0.1,0.2,0.1,0.5-0.2,0.7c-0.2,0.1-0.5,0.1-0.7-0.2L32,10.3l-0.6,1
					C31.3,11.5,31.2,11.6,31,11.6z"/>
			</g>
		</g>
		<g>
			<g>
				<path fill="#C3D7DD" d="M32,54.9c-0.2,0-0.3-0.1-0.4-0.2l-0.6-1c-0.1-0.2-0.1-0.5,0.2-0.7c0.2-0.1,0.5-0.1,0.7,0.2l0.2,0.3
					l0.6-1c0.1-0.2,0.4-0.3,0.7-0.2c0.2,0.1,0.3,0.4,0.2,0.7l-1,1.7C32.3,54.8,32.2,54.9,32,54.9z M30.4,52.1
					c-0.2,0-0.3-0.1-0.4-0.2l-1-1.7c-0.1-0.2-0.1-0.5,0.2-0.7c0.2-0.1,0.5-0.1,0.7,0.2l1,1.7c0.1,0.2,0.1,0.5-0.2,0.7
					C30.6,52.1,30.5,52.1,30.4,52.1z M34,51.4c-0.1,0-0.2,0-0.3-0.1c-0.2-0.1-0.3-0.4-0.2-0.7l1-1.7c0.1-0.2,0.4-0.3,0.7-0.2
					c0.2,0.1,0.3,0.4,0.2,0.7l-1,1.7C34.4,51.3,34.2,51.4,34,51.4z M28.4,48.7c-0.2,0-0.3-0.1-0.4-0.2l-1-1.7
					c-0.1-0.2-0.1-0.5,0.2-0.7c0.2-0.1,0.5-0.1,0.7,0.2l1,1.7c0.1,0.2,0.1,0.5-0.2,0.7C28.5,48.6,28.4,48.7,28.4,48.7z M36.1,48
					c-0.1,0-0.2,0-0.3-0.1c-0.2-0.1-0.3-0.4-0.2-0.7l1-1.7c0.1-0.2,0.5-0.3,0.7-0.2c0.2,0.1,0.3,0.4,0.2,0.7l-1,1.7
					C36.4,47.9,36.2,48,36.1,48z M26.3,45.2c-0.2,0-0.3-0.1-0.4-0.2l-1-1.7c-0.1-0.2-0.1-0.5,0.2-0.7c0.2-0.1,0.5-0.1,0.7,0.2l1,1.7
					c0.1,0.2,0.1,0.5-0.2,0.7C26.5,45.2,26.4,45.2,26.3,45.2z M38.1,44.5c-0.1,0-0.2,0-0.3-0.1c-0.2-0.1-0.3-0.4-0.2-0.7l1-1.7
					c0.1-0.2,0.5-0.3,0.7-0.2c0.2,0.1,0.3,0.4,0.2,0.7l-1,1.7C38.4,44.4,38.3,44.5,38.1,44.5z M24.3,41.8c-0.2,0-0.3-0.1-0.4-0.2
					l-1-1.7c-0.1-0.2-0.1-0.5,0.2-0.7c0.2-0.1,0.5-0.1,0.7,0.2l1,1.7c0.1,0.2,0.1,0.5-0.2,0.7C24.5,41.7,24.4,41.8,24.3,41.8z
					 M40.1,41.1c-0.1,0-0.2,0-0.3-0.1c-0.2-0.1-0.3-0.4-0.2-0.7l1-1.7c0.1-0.2,0.4-0.3,0.7-0.2c0.2,0.1,0.3,0.4,0.2,0.7l-1,1.7
					C40.4,41,40.3,41.1,40.1,41.1z M22.3,38.3c-0.2,0-0.3-0.1-0.4-0.2l-1-1.7c-0.1-0.2-0.1-0.5,0.2-0.7c0.2-0.1,0.5-0.1,0.7,0.2
					l1,1.7c0.1,0.2,0.1,0.5-0.2,0.7C22.5,38.3,22.4,38.3,22.3,38.3z M42.1,37.6c-0.1,0-0.2,0-0.3-0.1c-0.2-0.1-0.3-0.4-0.2-0.7
					l1-1.7c0.1-0.2,0.4-0.3,0.7-0.2c0.2,0.1,0.3,0.4,0.2,0.7l-1,1.7C42.5,37.5,42.3,37.6,42.1,37.6z M20.3,34.9
					c-0.2,0-0.3-0.1-0.4-0.2l-1-1.7c-0.1-0.2-0.1-0.5,0.2-0.7c0.2-0.1,0.5-0.1,0.7,0.2l1,1.7c0.1,0.2,0.1,0.5-0.2,0.7
					C20.4,34.9,20.3,34.9,20.3,34.9z M44.2,34.2c-0.1,0-0.2,0-0.3-0.1c-0.2-0.1-0.3-0.4-0.2-0.7l1-1.7c0.1-0.2,0.4-0.3,0.7-0.2
					c0.2,0.1,0.3,0.4,0.2,0.7l-1,1.7C44.5,34.1,44.3,34.2,44.2,34.2z M18.2,31.4c-0.2,0-0.3-0.1-0.4-0.2l-1-1.7
					c-0.1-0.2-0.1-0.5,0.2-0.7c0.2-0.1,0.5-0.1,0.7,0.2l1,1.7c0.1,0.2,0.1,0.5-0.2,0.7C18.4,31.4,18.3,31.4,18.2,31.4z M46.2,30.7
					c-0.1,0-0.2,0-0.3-0.1c-0.2-0.1-0.3-0.4-0.2-0.7l1-1.7c0.1-0.2,0.4-0.3,0.7-0.2c0.2,0.1,0.3,0.4,0.2,0.7l-1,1.7
					C46.5,30.6,46.4,30.7,46.2,30.7z M16.2,28c-0.2,0-0.3-0.1-0.4-0.2l-1-1.7c-0.1-0.2-0.1-0.5,0.2-0.7c0.2-0.1,0.5-0.1,0.7,0.2
					l1,1.7c0.1,0.2,0.1,0.5-0.2,0.7C16.4,28,16.3,28,16.2,28z M48.2,27.3c-0.1,0-0.2,0-0.3-0.1c-0.2-0.1-0.3-0.4-0.2-0.7l1-1.7
					c0.1-0.2,0.4-0.3,0.7-0.2c0.2,0.1,0.3,0.4,0.2,0.7l-1,1.7C48.6,27.2,48.4,27.3,48.2,27.3z M14.2,24.5c-0.2,0-0.3-0.1-0.4-0.2
					l-1-1.7c-0.1-0.2-0.1-0.5,0.2-0.7c0.2-0.1,0.5-0.1,0.7,0.2l1,1.7c0.1,0.2,0.1,0.5-0.2,0.7C14.3,24.5,14.3,24.5,14.2,24.5z
					 M50.2,23.8c-0.1,0-0.2,0-0.3-0.1c-0.2-0.1-0.3-0.4-0.2-0.7l1-1.7c0.1-0.2,0.4-0.3,0.7-0.2c0.2,0.1,0.3,0.4,0.2,0.7l-1,1.7
					C50.6,23.7,50.4,23.8,50.2,23.8z M50.6,21h-2c-0.3,0-0.5-0.2-0.5-0.5c0-0.3,0.2-0.5,0.5-0.5h2c0.3,0,0.5,0.2,0.5,0.5
					C51.1,20.8,50.9,21,50.6,21z M46.6,21h-2c-0.3,0-0.5-0.2-0.5-0.5c0-0.3,0.2-0.5,0.5-0.5h2c0.3,0,0.5,0.2,0.5,0.5
					C47.1,20.8,46.9,21,46.6,21z M42.6,21h-2c-0.3,0-0.5-0.2-0.5-0.5c0-0.3,0.2-0.5,0.5-0.5h2c0.3,0,0.5,0.2,0.5,0.5
					C43.1,20.8,42.9,21,42.6,21z M38.6,21h-2c-0.3,0-0.5-0.2-0.5-0.5c0-0.3,0.2-0.5,0.5-0.5h2c0.3,0,0.5,0.2,0.5,0.5
					C39.1,20.8,38.9,21,38.6,21z M34.6,21h-2c-0.3,0-0.5-0.2-0.5-0.5c0-0.3,0.2-0.5,0.5-0.5h2c0.3,0,0.5,0.2,0.5,0.5
					C35.1,20.8,34.9,21,34.6,21z M30.6,21h-2c-0.3,0-0.5-0.2-0.5-0.5c0-0.3,0.2-0.5,0.5-0.5h2c0.3,0,0.5,0.2,0.5,0.5
					C31.1,20.8,30.9,21,30.6,21z M26.6,21h-2c-0.3,0-0.5-0.2-0.5-0.5c0-0.3,0.2-0.5,0.5-0.5h2c0.3,0,0.5,0.2,0.5,0.5
					C27.1,20.8,26.9,21,26.6,21z M22.6,21h-2c-0.3,0-0.5-0.2-0.5-0.5c0-0.3,0.2-0.5,0.5-0.5h2c0.3,0,0.5,0.2,0.5,0.5
					C23.1,20.8,22.9,21,22.6,21z M18.6,21h-2c-0.3,0-0.5-0.2-0.5-0.5c0-0.3,0.2-0.5,0.5-0.5h2c0.3,0,0.5,0.2,0.5,0.5
					C19.1,20.8,18.9,21,18.6,21z M14.6,21h-2c-0.3,0-0.5-0.2-0.5-0.5c0-0.3,0.2-0.5,0.5-0.5h2c0.3,0,0.5,0.2,0.5,0.5
					C15.1,20.8,14.9,21,14.6,21z"/>
			</g>
		</g>
		<g>
			<g>
				<path fill="#21CCE8" d="M32,63.5C14.6,63.5,0.5,49.4,0.5,32S14.6,0.5,32,0.5S63.5,14.6,63.5,32S49.4,63.5,32,63.5z M32,2.5
					C15.7,2.5,2.5,15.7,2.5,32c0,16.3,13.2,29.5,29.5,29.5S61.5,48.3,61.5,32C61.5,15.7,48.3,2.5,32,2.5z"/>
			</g>
			<g>
				<g>
					<path fill="#21CCE8" d="M51.7,55H12.3c-0.4,0-0.7,0-0.9-0.3c-0.2-0.3-0.2-0.6,0-0.9l19.7-33.5c0.4-0.6,1.4-0.6,1.7,0l19.7,33.5
						c0.2,0.3,0.2,0.5,0,0.8C52.4,55,52.1,55,51.7,55z M14,53H50L32,22.5L14,53z"/>
				</g>
			</g>
			<g>
				<g>
					<path fill="#21CCE8" d="M32,43.9c-0.4,0-0.7-0.2-0.9-0.5L11.4,9.8c-0.2-0.3-0.2-0.9,0-1.2C11.6,8.4,11.9,8,12.3,8h39.4
						c0.4,0,0.7,0.4,0.9,0.7c0.2,0.3,0.2,0.8,0,1.1L32.9,43.3C32.7,43.6,32.4,43.9,32,43.9z M14,10l18,30.5L50,10H14z"/>
				</g>
			</g>
		</g>
	</g>
	<g>
		<g>
			<g>
				<path fill="#21CCE8" d="M37.8,33c-0.6,0-1-0.4-1-1c0-0.9-2.1-2.8-4.8-2.8c-2.7,0-4.8,1.9-4.8,2.8c0,0.6-0.4,1-1,1s-1-0.4-1-1
					c0-2.2,3-4.8,6.8-4.8c3.8,0,6.8,2.6,6.8,4.8C38.8,32.6,38.3,33,37.8,33z"/>
			</g>
			<g>
				<path fill="#21CCE8" d="M32,36.8c-3.8,0-6.8-2.6-6.8-4.8c0-0.6,0.4-1,1-1s1,0.4,1,1c0,0.9,2.1,2.8,4.8,2.8
					c2.7,0,4.8-1.9,4.8-2.8c0-0.6,0.4-1,1-1s1,0.4,1,1C38.8,34.2,35.8,36.8,32,36.8z"/>
			</g>
		</g>
		<g>
			<path fill="#21CCE8" d="M32,35c-1.7,0-3-1.3-3-3s1.3-3,3-3s3,1.3,3,3S33.7,35,32,35z M32,31c-0.6,0-1,0.4-1,1c0,0.6,0.4,1,1,1
				c0.6,0,1-0.4,1-1C33,31.4,32.6,31,32,31z"/>
		</g>
	</g>
</g>
</svg>
