<?xml version="1.0" encoding="utf-8"?>
<!-- Generator: Adobe Illustrator 16.0.0, SVG Export Plug-In . SVG Version: 6.00 Build 0)  -->
<!DOCTYPE svg PUBLIC "-//W3C//DTD SVG 1.1//EN" "http://www.w3.org/Graphics/SVG/1.1/DTD/svg11.dtd">
<svg version="1.1" id="Layer_1" xmlns="http://www.w3.org/2000/svg" xmlns:xlink="http://www.w3.org/1999/xlink" x="0px" y="0px"
	 width="65px" height="65px" viewBox="0 0 65 65" enable-background="new 0 0 65 65" xml:space="preserve">
<g>
	<g>
		<g>
			<path fill="#232728" d="M51.175,40.521c0,16.038-5.662,10.697-12.65,10.697c-6.986,0-12.65,5.341-12.65-10.697
				c0-9.17,5.666-16.603,12.65-16.603C45.511,23.918,51.175,31.351,51.175,40.521z"/>
			<g>
				<path fill="#232728" d="M35.497,46.445c0,2.476-2.008,15.827-4.486,15.827c-2.475,0-4.482-13.352-4.482-15.827
					s2.008-4.484,4.482-4.484C33.489,41.961,35.497,43.97,35.497,46.445z"/>
				<path fill="#232728" d="M50.522,46.445c0,2.476-2.008,15.827-4.486,15.827c-2.475,0-4.482-13.352-4.482-15.827
					s2.008-4.484,4.482-4.484C48.515,41.961,50.522,43.97,50.522,46.445z"/>
			</g>
			<g>
				<path fill="#8D97A0" d="M36.058,62.354c0,1.896-2.26,2.146-5.045,2.146s-5.045-0.25-5.045-2.146c0-1.897,2.26-4.508,5.045-4.508
					S36.058,60.456,36.058,62.354z"/>
				<path fill="#79848C" d="M36.058,62.354c0,1.896-2.26,2.146-5.045,2.146s-5.045-0.25-5.045-2.146"/>
			</g>
			<g>
				<path fill="#8D97A0" d="M51.083,62.354c0,1.896-2.26,2.146-5.045,2.146s-5.045-0.25-5.045-2.146c0-1.897,2.26-4.508,5.045-4.508
					S51.083,60.456,51.083,62.354z"/>
				<path fill="#79848C" d="M51.083,62.354c0,1.896-2.26,2.146-5.045,2.146s-5.045-0.25-5.045-2.146"/>
			</g>
			<g>
				<path fill="#232728" d="M37.13,26.368c1.273,1.432,0.465,4.228-1.805,6.249c-2.27,2.018-14.475,10.794-15.75,9.365
					c-1.271-1.434,8.873-12.532,11.143-14.55C32.985,25.414,35.856,24.938,37.13,26.368z"/>
				<path fill="#232728" d="M39.919,26.368c-1.273,1.432-0.465,4.228,1.805,6.249c2.27,2.018,14.475,10.794,15.75,9.365
					c1.271-1.434-8.873-12.532-11.143-14.55C44.063,25.414,41.192,24.938,39.919,26.368z"/>
			</g>
			<g>
				<path fill="#232728" d="M54.896,27.957c0,7.999-7.33,12.02-16.369,12.02c-9.041,0-16.373-4.021-16.373-12.02
					c0-8.001,7.332-27.457,16.373-27.457C47.565,0.5,54.896,19.956,54.896,27.957z"/>
			</g>
		</g>
	</g>
	<g>
		<path fill="#FFFFFF" d="M48.151,13.796c0-7.753-4.309-10.188-9.627-10.188s-9.627,2.436-9.627,10.188
			c0,5.622,2.266,10.468,5.537,12.712c0.766,5.103,2.311,9.887,4.09,9.887s3.322-4.784,4.092-9.887
			C45.886,24.266,48.151,19.418,48.151,13.796z"/>
		<path fill="#D3EDEB" d="M38.524,36.395c1.779,0,3.322-4.784,4.092-9.887c3.27-2.242,5.535-7.09,5.535-12.712
			c0-7.753-4.309-10.188-9.627-10.188"/>
		<path fill="#B8D1D1" d="M40.61,25.039c0,4.515-0.934,9.376-2.086,9.376c-1.15,0-2.086-4.861-2.086-9.376
			c0-4.514,0.936-3.725,2.086-3.725C39.677,21.314,40.61,20.525,40.61,25.039z"/>
		<path fill="#065177" d="M40.61,24.317c0,4.514-0.934,8.173-2.086,8.173c-1.15,0-2.086-3.659-2.086-8.173
			c0-4.515,0.936-3.726,2.086-3.726C39.677,20.592,40.61,19.803,40.61,24.317z"/>
		<path fill="#102D35" d="M38.524,20.592c1.152,0,2.086-0.789,2.086,3.726c0,4.514-0.934,8.173-2.086,8.173"/>
		<g>
			<g>
				<path fill="#102D35" d="M36.556,9.482c0.965,0.982,0.432,3.072-1.191,4.67c-1.621,1.594-3.719,2.092-4.684,1.111
					s1.18-1.432,2.803-3.026C35.106,10.641,35.591,8.503,36.556,9.482z"/>
				<path fill="#065177" d="M30.681,15.264c-0.965-0.98,1.18-1.432,2.803-3.026c1.623-1.597,2.107-3.734,3.072-2.755"/>
			</g>
			<g>
				<path fill="#102D35" d="M40.493,9.482c-0.963,0.982-0.432,3.072,1.191,4.67c1.621,1.594,3.721,2.092,4.686,1.111
					c0.963-0.98-1.182-1.432-2.805-3.026C41.944,10.641,41.46,8.503,40.493,9.482z"/>
				<path fill="#065177" d="M46.37,15.264c0.963-0.98-1.182-1.432-2.805-3.026c-1.621-1.597-2.105-3.734-3.072-2.755"/>
			</g>
		</g>
		<g>
			<path fill="#B8D1D1" d="M29.731,19.514c0.939,3.066,2.609,5.552,4.689,6.983c-0.1-1.188-0.537-2.52-1.314-3.784
				C32.179,21.202,30.95,20.086,29.731,19.514z"/>
			<path fill="#B8D1D1" d="M42.63,26.497c2.078-1.432,3.748-3.917,4.686-6.983c-1.217,0.572-2.445,1.688-3.371,3.199
				C43.165,23.978,42.728,25.309,42.63,26.497z"/>
		</g>
		<g>
			<g>
				<g>
					<path fill="#B8D1D1" d="M39.265,17.014c-0.307,0-0.576-0.172-0.672-0.428c-0.01-0.025-0.039-0.039-0.068-0.032
						c-0.029-0.007-0.059,0.007-0.068,0.032c-0.094,0.256-0.363,0.428-0.672,0.428c-0.387,0-0.703-0.277-0.703-0.62
						c0-0.123,0.041-0.244,0.119-0.347l0.002-0.002l0.004-0.004l1.318-2.262l1.316,2.26l0.008,0.006v0.002
						c0.08,0.103,0.119,0.224,0.119,0.347C39.968,16.736,39.653,17.014,39.265,17.014z"/>
				</g>
				<g>
					<path fill="#102D35" d="M39.265,17.127c-0.307,0-0.576-0.172-0.672-0.428c-0.01-0.025-0.039-0.039-0.068-0.031
						c-0.029-0.008-0.059,0.006-0.068,0.031c-0.094,0.256-0.363,0.428-0.672,0.428c-0.387,0-0.703-0.278-0.703-0.62
						c0-0.124,0.041-0.245,0.119-0.347l0.002-0.002c0.004-0.003,0.004-0.004,0.004-0.004l1.318-1.559l1.316,1.557
						c0,0,0.004,0.003,0.008,0.006v0.002c0.08,0.102,0.119,0.223,0.119,0.347C39.968,16.849,39.653,17.127,39.265,17.127z"/>
				</g>
				<g>
					<path fill="#065177" d="M38.524,16.668c-0.029-0.008-0.059,0.006-0.068,0.031c-0.094,0.256-0.363,0.428-0.672,0.428
						c-0.387,0-0.703-0.278-0.703-0.62c0-0.124,0.041-0.245,0.119-0.347l0.002-0.002c0.004-0.003,0.004-0.004,0.004-0.004
						l1.318-1.559"/>
				</g>
			</g>
		</g>
	</g>
	<g>
		<path fill="#90ADAC" d="M8.659,29.108c-0.542,0.541-0.952,1.161-1.242,1.821c2.199-0.971,4.861-0.56,6.662,1.242
			c1.803,1.803,2.213,4.464,1.243,6.663c0.66-0.29,1.28-0.7,1.821-1.241c2.344-2.344,2.344-6.143,0-8.485
			C14.802,26.766,11.001,26.766,8.659,29.108z"/>
		<path fill="#A5C4C2" d="M7.925,30.007c-0.195,0.296-0.369,0.604-0.508,0.923c2.199-0.971,4.861-0.56,6.662,1.242
			c1.803,1.803,2.213,4.464,1.243,6.663c0.319-0.14,0.627-0.312,0.923-0.509c1.555-2.331,1.307-5.511-0.751-7.568
			S10.257,28.451,7.925,30.007z"/>
		<path fill="#232728" d="M22.271,43.045c0.488,0.487,0.488,1.279,0,1.768l0,0c-0.488,0.488-1.279,0.488-1.768,0l-4.773-4.773
			c-0.488-0.488-0.488-1.279,0-1.768l0,0c0.488-0.488,1.279-0.488,1.768,0L22.271,43.045z"/>
	</g>
</g>
</svg>
