<?xml version="1.0" encoding="utf-8"?>
<!-- Generator: Adobe Illustrator 16.0.0, SVG Export Plug-In . SVG Version: 6.00 Build 0)  -->
<!DOCTYPE svg PUBLIC "-//W3C//DTD SVG 1.1//EN" "http://www.w3.org/Graphics/SVG/1.1/DTD/svg11.dtd">
<svg version="1.1" id="Layer_1" xmlns="http://www.w3.org/2000/svg" xmlns:xlink="http://www.w3.org/1999/xlink" x="0px" y="0px"
	 width="64px" height="64px" viewBox="0 0 64 64" enable-background="new 0 0 64 64" xml:space="preserve">
<g>
	<g>
		<g>
			<g>
				<path fill="#AEC9D3" d="M41.1,34.5c-0.3,1-1.3,1.7-2.4,1.4l0,0c-1-0.3-1.7-1.3-1.4-2.4L41.9,16c0.3-1,1.3-1.7,2.4-1.4l0,0
					c1,0.3,1.7,1.3,1.4,2.4L41.1,34.5z"/>
				<path fill="#8DAAB2" d="M41.1,34.5c-0.3,1-1.3,1.7-2.4,1.4l0,0c-1-0.3-1.7-1.3-1.4-2.4L41.9,16c0.3-1,1.3-1.7,2.4-1.4l0,0"/>
				<path fill="#EA2D83" d="M50.1,35.5c0,1.7-1.4,3.5-3.1,3.5h-9.4c-1.7,0-2.1-1.8-2.1-3.5l0,0c0-1.7,1.4-3.5,3.1-3.5h9.4
					C49.7,32,50.1,33.8,50.1,35.5L50.1,35.5z"/>
				<path fill="#A0007A" d="M50.1,35.6L50.1,35.6c0,1.7-1.4,3.4-3.1,3.4h-9.4c-1.7,0-2.1-1.6-2.1-3.4l0,0c0-1.7,1.2-3.6,3.1-3.6"/>
				<path fill="#FFFB76" d="M49,35.6c0,0.4-0.6,0.8-1,0.8l0,0c-0.4,0-1-0.4-1-0.8v-1.2c0-0.4,0.6-0.8,1-0.8l0,0c0.4,0,1,0.4,1,0.8
					V35.6z"/>
			</g>
			<circle fill="#00233F" cx="41.3" cy="16.3" r="7"/>
			<path fill="#00233F" d="M38.4,59.4c0,0.3-0.3,0.6-0.6,0.6l0,0c-0.3,0-0.6-0.3-0.6-0.6l0,0c0-0.3,0.3-0.6,0.6-0.6l0,0
				C38.2,58.8,38.4,59,38.4,59.4L38.4,59.4z"/>
			<g>
				<circle fill="#095589" cx="43.4" cy="59" r="3.8"/>
				<path fill="#00233F" d="M43.4,55.2c2.1,0,3.8,1.7,3.8,3.8s-1.7,3.8-3.8,3.8"/>
				<circle fill="#38ADD6" cx="43.4" cy="59" r="1.6"/>
				<path fill="#0C86BC" d="M44.6,57.8c0.6,0.6,0.6,1.6,0,2.3c-0.6,0.6-1.6,0.6-2.3,0"/>
			</g>
			<g>
				<circle fill="#095589" cx="54.7" cy="59" r="3.8"/>
				<path fill="#00233F" d="M54.7,55.2c2.1,0,3.8,1.7,3.8,3.8s-1.7,3.8-3.8,3.8"/>
				<circle fill="#38ADD6" cx="54.7" cy="59" r="1.6"/>
				<path fill="#0C86BC" d="M55.8,57.8c0.6,0.6,0.6,1.6,0,2.3c-0.6,0.6-1.6,0.6-2.3,0"/>
			</g>
			<path fill="#00233F" d="M35,41.8c0,3.5-2.8,6.2-6.2,6.2h-0.5c-3.5,0-6.2-2.8-6.2-6.2V31.2c0-3.5,2.8-6.2,6.2-6.2h0.5
				c3.5,0,6.2,2.8,6.2,6.2V41.8z"/>
			<path fill="#095589" d="M28,25L28,25c3.5,0,6,2.8,6,6.2v10.5c0,3.5-2.7,6.2-6.1,6.2l0,0"/>
			<path fill="#EA2D83" d="M58,54v-1.4C58,46.3,53.1,41,46.8,41H13.6C7.3,41,6,46.3,6,52.6V54H58z"/>
			<path fill="#EA2D83" d="M44.5,19.5c0,9-7.5,11.2-16.8,11.2c-17.3,0-16.8-2.3-16.8-11.2c0-17-13.8-18.2,16.8-18.2
				C45,1.2,44.5,10.5,44.5,19.5z"/>
			<path fill="#A0007A" d="M10.9,19.5c0,7.5-0.3,10.3,9.7,11c5.2-0.7,5.2-3.1,5.2-10.2c0-8.6,0-17.8-9.3-17.8c-3,0-5.5,0-7.7,0
				C5.7,4.6,10.9,9.1,10.9,19.5z"/>
			<path fill="#A0007A" d="M26.7,41H13.6C7.3,41,6,46.3,6,52.6V54h32v-1.4C38,46.3,33,41,26.7,41z"/>
			<path fill="#AEC9D3" d="M62,55.1c0,1-0.8,1.9-1.9,1.9H5.9c-1,0-1.9-0.8-1.9-1.9v-0.2c0-1,0.8-1.9,1.9-1.9h54.2
				c1,0,1.9,0.8,1.9,1.9V55.1z"/>
			<path fill="#8DAAB2" d="M62,57.1c0,1-0.8,1.9-1.9,1.9H5.9c-1,0-1.9-0.8-1.9-1.9v-0.2c0-1,0.8-1.9,1.9-1.9h54.2
				c1,0,1.9,0.8,1.9,1.9V57.1z"/>
			<g>
				<g>
					<circle fill="#095589" cx="9.7" cy="59" r="3.8"/>
					<path fill="#00233F" d="M9.7,55.2c2.1,0,3.8,1.7,3.8,3.8s-1.7,3.8-3.8,3.8"/>
					<circle fill="#38ADD6" cx="9.7" cy="59" r="1.6"/>
					<path fill="#0C86BC" d="M10.8,57.8c0.6,0.6,0.6,1.6,0,2.3c-0.6,0.6-1.6,0.6-2.3,0"/>
				</g>
				<g>
					<circle fill="#095589" cx="20.9" cy="59" r="3.8"/>
					<path fill="#00233F" d="M20.9,55.2c2.1,0,3.8,1.7,3.8,3.8s-1.7,3.8-3.8,3.8"/>
					<circle fill="#38ADD6" cx="20.9" cy="59" r="1.6"/>
					<path fill="#0C86BC" d="M22.1,57.8c0.6,0.6,0.6,1.6,0,2.3c-0.6,0.6-1.6,0.6-2.3,0"/>
				</g>
				<g>
					<circle fill="#095589" cx="32.2" cy="59" r="3.8"/>
					<path fill="#00233F" d="M32.2,55.2c2.1,0,3.8,1.7,3.8,3.8s-1.7,3.8-3.8,3.8"/>
					<circle fill="#38ADD6" cx="32.2" cy="59" r="1.6"/>
					<path fill="#0C86BC" d="M33.3,57.8c0.6,0.6,0.6,1.6,0,2.3c-0.6,0.6-1.6,0.6-2.3,0"/>
				</g>
			</g>
			<g>
				<path fill="#0C86BC" d="M15.8,59.4c0,0.3-0.3,0.6-0.6,0.6l0,0c-0.3,0-0.6-0.3-0.6-0.6l0,0c0-0.3,0.3-0.6,0.6-0.6l0,0
					C15.5,58.8,15.8,59,15.8,59.4L15.8,59.4z"/>
				<path fill="#0C86BC" d="M27.1,59.4c0,0.3-0.3,0.6-0.6,0.6l0,0c-0.3,0-0.6-0.3-0.6-0.6l0,0c0-0.3,0.3-0.6,0.6-0.6l0,0
					C26.8,58.8,27.1,59,27.1,59.4L27.1,59.4z"/>
			</g>
			<circle fill="#095589" cx="15.1" cy="16.3" r="7"/>
			<path fill="#00233F" d="M22.1,16.3c0,3.9-3.1,7-7,7s-7-3.1-7-7"/>
			<ellipse fill="#EA2D83" cx="11.9" cy="16.3" rx="2.8" ry="4.2"/>
			<path fill="#A0007A" d="M11.9,20.5c-1.5,0-2.8-1.9-2.8-4.2s1.2-4.2,2.8-4.2"/>
			<g>
				<path fill="#AEC9D3" d="M8.6,34.5c-0.3,1-1.3,1.7-2.4,1.4l0,0c-1-0.3-1.7-1.3-1.4-2.4L9.4,16c0.3-1,1.3-1.7,2.4-1.4l0,0
					c1,0.3,1.7,1.3,1.4,2.4L8.6,34.5z"/>
				<path fill="#8DAAB2" d="M8.6,34.5c-0.3,1-1.3,1.7-2.4,1.4l0,0c-1-0.3-1.7-1.3-1.4-2.4L9.4,16c0.3-1,1.3-1.7,2.4-1.4l0,0"/>
				<path fill="#EA2D83" d="M17.6,35.5c0,1.7-1.4,3.5-3.1,3.5H5.1c-1.7,0-2.1-1.8-2.1-3.5l0,0c0-1.7,1.4-3.5,3.1-3.5h9.4
					C17.2,32,17.6,33.8,17.6,35.5L17.6,35.5z"/>
				<path fill="#A0007A" d="M17.6,35.6L17.6,35.6c0,1.7-1.4,3.4-3.1,3.4H5.1c-1.7,0-2.1-1.6-2.1-3.4l0,0c0-1.7,1.2-3.6,3.1-3.6"/>
				<path fill="#FFFB76" d="M16,35.6c0,0.4-0.1,0.8-0.5,0.8l0,0c-0.4,0-0.5-0.4-0.5-0.8v-1.2c0-0.4,0.1-0.8,0.5-0.8l0,0
					c0.4,0,0.5,0.4,0.5,0.8V35.6z"/>
			</g>
			<path fill="#8DAAB2" d="M20.5,14.8c0,0.2-0.1,0.3-0.3,0.3h-2c-0.2,0-0.3-0.1-0.3-0.3l0,0c0-0.2,0.1-0.3,0.3-0.3h2
				C20.3,14.5,20.5,14.6,20.5,14.8L20.5,14.8z"/>
			<path fill="#8DAAB2" d="M19.6,12.9c0,0.2-0.1,0.3-0.3,0.3h-2c-0.2,0-0.3-0.1-0.3-0.3l0,0c0-0.2,0.1-0.3,0.3-0.3h2
				C19.5,12.6,19.6,12.7,19.6,12.9L19.6,12.9z"/>
			<path fill="#AEC9D3" d="M16,45.6c0,0.2-0.2,0.4-0.4,0.4h-4.2c-0.2,0-0.4-0.2-0.4-0.4v-0.2c0-0.2,0.2-0.4,0.4-0.4h4.2
				c0.2,0,0.4,0.2,0.4,0.4V45.6z"/>
			<path fill="#AEC9D3" d="M16,47.6c0,0.2-0.2,0.4-0.4,0.4h-4.2c-0.2,0-0.4-0.2-0.4-0.4v-0.2c0-0.2,0.2-0.4,0.4-0.4h4.2
				c0.2,0,0.4,0.2,0.4,0.4V47.6z"/>
			<path fill="#AEC9D3" d="M16,49.6c0,0.2-0.2,0.4-0.4,0.4h-4.2c-0.2,0-0.4-0.2-0.4-0.4v-0.2c0-0.2,0.2-0.4,0.4-0.4h4.2
				c0.2,0,0.4,0.2,0.4,0.4V49.6z"/>
		</g>
		<g>
			<path fill="#8DAAB2" d="M23,33.8c-0.2,0-0.4-0.2-0.4-0.4l0,0c0-0.2,0.2-0.4,0.4-0.4h10.6c0.2,0,0.4,0.2,0.4,0.4l0,0
				c0,0.2-0.2,0.4-0.4,0.4"/>
			<path fill="#8DAAB2" d="M34,36.6c0,0.2-0.2,0.4-0.4,0.4H23.4c-0.2,0-0.4-0.2-0.4-0.4v-0.2c0-0.2,0.2-0.4,0.4-0.4h10.2
				c0.2,0,0.4,0.2,0.4,0.4V36.6z"/>
			<path fill="#8DAAB2" d="M34,39.6c0,0.2-0.2,0.4-0.4,0.4H23.4c-0.2,0-0.4-0.2-0.4-0.4v-0.2c0-0.2,0.2-0.4,0.4-0.4h10.2
				c0.2,0,0.4,0.2,0.4,0.4V39.6z"/>
		</g>
	</g>
	<ellipse fill="#FFFB76" cx="35.6" cy="10" rx="7.7" ry="1.9"/>
	<path fill="#FFD67B" d="M43.3,10c0,1.1-3.4,1.9-7.7,1.9s-7.7-0.9-7.7-1.9"/>
	<g>
		<ellipse fill="#FFD67B" cx="37.4" cy="16" rx="0.5" ry="0.8"/>
		<ellipse fill="#FFD67B" cx="37.4" cy="19.3" rx="0.5" ry="0.8"/>
		<ellipse fill="#FFD67B" cx="37.4" cy="22.6" rx="0.5" ry="0.8"/>
	</g>
</g>
</svg>
