<?xml version="1.0" encoding="utf-8"?>
<!-- Generator: Adobe Illustrator 16.0.0, SVG Export Plug-In . SVG Version: 6.00 Build 0)  -->
<!DOCTYPE svg PUBLIC "-//W3C//DTD SVG 1.1//EN" "http://www.w3.org/Graphics/SVG/1.1/DTD/svg11.dtd">
<svg version="1.1" id="Layer_1" xmlns="http://www.w3.org/2000/svg" xmlns:xlink="http://www.w3.org/1999/xlink" x="0px" y="0px"
	 width="64px" height="64px" viewBox="0 0 64 64" enable-background="new 0 0 64 64" xml:space="preserve">
<g>
	<path fill="#C92D2D" d="M59.3,25.2c0-18.6-10.7-24.3-23.9-24.3c-13.2,0-23.9,5.7-23.9,24.3c0,2.5,0.2,4.9,0.6,7.2
		c-3.2,0-5.7,1-6.7,2.8c-2.6,4.7,4.1,13.3,15,19.4c7.1,3.9,12.9,5.1,16.8,4.1C49.5,57.5,59.3,43,59.3,25.2z"/>
	<path fill="#A00D0D" d="M20.2,54.6c7.1,3.9,12.9,5.1,16.8,4.1C49.5,57.5,59.3,43,59.3,25.2c0-18.6-10.7-24.3-23.9-24.3"/>
	<path fill="#F7CE6B" d="M52.7,57c0,3.4,0.4,6-3,6H19.5c-3.4,0-3-2.6-3-6l0,0c0-3.4,2.8-4,6.2-4h23.9C49.9,53,52.7,53.6,52.7,57
		L52.7,57z"/>
	<path fill="#EDB53A" d="M52.7,56.9L52.7,56.9c0,3.4,0.4,6.1-3,6.1H19.5c-3.4,0-3-2.7-3-6.1l0,0"/>
	<g>
		<g>
			<path fill="#EAEAEA" d="M36,36.3c0,0.6-0.4,1.1-1,1.1l0,0c-0.6,0-1-0.5-1-1.1V17.8c0-0.6,0.4-1.1,1-1.1l0,0c0.6,0,1,0.5,1,1.1
				V36.3z"/>
			<circle fill="#EAEAEA" cx="35" cy="16.9" r="2.5"/>
			<circle fill="#EAEAEA" cx="35" cy="37.5" r="2.5"/>
		</g>
		<g>
			<path fill="#EAEAEA" d="M29.4,34.5c-0.4,0.4-1.2,0.4-1.6,0l0,0c-0.4-0.4-0.4-1.2,0-1.6l13.1-13.1c0.4-0.4,1.2-0.4,1.6,0l0,0
				c0.4,0.4,0.4,1.2,0,1.6L29.4,34.5z"/>
			<circle fill="#EAEAEA" cx="42.3" cy="19.9" r="2.5"/>
			<circle fill="#EAEAEA" cx="27.7" cy="34.5" r="2.5"/>
		</g>
		<g>
			<path fill="#EAEAEA" d="M25.9,28c-0.6,0-1.1-0.4-1.1-1l0,0c0-0.6,0.5-1,1.1-1h18.5c0.6,0,1.1,0.4,1.1,1l0,0c0,0.6-0.5,1-1.1,1
				H25.9z"/>
			<path fill="#EAEAEA" d="M45.3,29.7c-1.4,0-2.5-1.1-2.5-2.5c0-1.4,1.1-2.5,2.5-2.5c1.4,0,2.5,1.1,2.5,2.5
				C47.8,28.6,46.7,29.7,45.3,29.7z"/>
			<path fill="#EAEAEA" d="M24.7,29.7c-1.4,0-2.5-1.1-2.5-2.5c0-1.4,1.1-2.5,2.5-2.5c1.4,0,2.5,1.1,2.5,2.5
				C27.3,28.6,26.1,29.7,24.7,29.7z"/>
		</g>
		<g>
			<path fill="#EAEAEA" d="M27.7,21.5c-0.4-0.4-0.4-1.2,0-1.6l0,0c0.4-0.4,1.2-0.4,1.6,0L42.4,33c0.4,0.4,0.4,1.2,0,1.6l0,0
				c-0.4,0.4-1.2,0.4-1.6,0L27.7,21.5z"/>
			<circle fill="#EAEAEA" cx="42.3" cy="34.5" r="2.5"/>
			<circle fill="#EAEAEA" cx="27.7" cy="19.9" r="2.5"/>
		</g>
	</g>
	<ellipse transform="matrix(0.7666 -0.6421 0.6421 0.7666 -1.1912 16.3635)" fill="#E56363" cx="21.9" cy="9.8" rx="8.7" ry="2.9"/>
	<ellipse fill="#E56363" cx="11.9" cy="36.2" rx="4.2" ry="1.8"/>
	<ellipse fill="#E56363" cx="19.4" cy="39" rx="1" ry="1.2"/>
</g>
</svg>
