<?xml version="1.0" encoding="utf-8"?>
<!-- Generator: Adobe Illustrator 16.0.0, SVG Export Plug-In . SVG Version: 6.00 Build 0)  -->
<!DOCTYPE svg PUBLIC "-//W3C//DTD SVG 1.1//EN" "http://www.w3.org/Graphics/SVG/1.1/DTD/svg11.dtd">
<svg version="1.1" id="Layer_1" xmlns="http://www.w3.org/2000/svg" xmlns:xlink="http://www.w3.org/1999/xlink" x="0px" y="0px"
	 width="64px" height="64px" viewBox="0 0 64 64" enable-background="new 0 0 64 64" xml:space="preserve">
<g>
	<g>
		<g>
			<ellipse fill="#EA81B8" cx="6.2" cy="31" rx="5.4" ry="7.7"/>
		</g>
		<g>
			<ellipse fill="#EA81B8" cx="57.8" cy="31" rx="5.4" ry="7.7"/>
		</g>
	</g>
	<g>
		<g>
			<g>
				<g>
					<g>
						<g>
							<path fill="#F7910B" d="M62.3,39.8c0,13-11.9,23.5-30.3,23.5c-18.4,0-30.3-10.5-30.3-23.5S13.6,7.3,32,7.3
								C50.4,7.3,62.3,26.9,62.3,39.8z"/>
						</g>
						<g>
							<path fill="#F7910B" d="M62.3,39.8c0,13-11.9,19.5-30.3,19.5c-18.4,0-30.3-6.5-30.3-19.5S13.6,5.3,32,5.3
								C50.4,5.3,62.3,26.9,62.3,39.8z"/>
						</g>
						<g>
							<path fill="#F9A908" d="M32,5.3c18.4,0,30.3,21.5,30.3,34.5S50.4,59.3,32,59.3"/>
						</g>
						<g>
							<path fill="#F9A908" d="M62.3,39.8c0,13-11.9,19.5-30.3,19.5c-18.4,0-30.3-6.5-30.3-19.5S13.6,7.3,32,7.3
								C50.4,7.3,62.3,26.9,62.3,39.8z"/>
						</g>
						<g>
							<path fill="#F9C55D" d="M1.7,39.8c0-13,11.9-32.5,30.3-32.5"/>
						</g>
						<g>
							<path fill="#F7910B" d="M32,7.3c18.4,0,30.3,19.5,30.3,32.5S50.4,63.3,32,63.3"/>
						</g>
						<g>
							<path fill="#EA7103" d="M32,7.3c18.4,0,30.3,19.5,30.3,32.5"/>
						</g>
						<g>
							<g>
								<path fill="#F9C55D" d="M27.8,37.7c0,1.2-3.5,0.7-7.8,0.7c-4.3,0-7.8,0.6-7.8-0.7s3.5-2.2,7.8-2.2
									C24.3,35.4,27.8,36.4,27.8,37.7z"/>
							</g>
							<g>
								<path fill="#F9A908" d="M51.8,37.7c0,1.2-3.5,0.7-7.8,0.7c-4.3,0-7.8,0.6-7.8-0.7s3.5-2.2,7.8-2.2
									C48.3,35.4,51.8,36.4,51.8,37.7z"/>
							</g>
						</g>
						<g>
							<circle fill="#F7910B" cx="10.3" cy="36.8" r="0.6"/>
						</g>
						<g>
							<circle fill="#F7910B" cx="5.8" cy="38.8" r="1.1"/>
						</g>
						<g>
							<circle fill="#F7910B" cx="8.8" cy="34.8" r="0.3"/>
						</g>
						<g>
							<circle fill="#F7910B" cx="13.4" cy="36.6" r="0.2"/>
						</g>
						<g>
							<circle fill="#F9A908" cx="52.6" cy="37.2" r="0.8"/>
						</g>
						<g>
							<circle fill="#F9A908" cx="55.1" cy="38.5" r="0.2"/>
						</g>
						<g>
							<circle fill="#F9A908" cx="49.8" cy="29.7" r="0.3"/>
						</g>
						<g>
							<circle fill="#F9A908" cx="49.3" cy="41.4" r="1.3"/>
						</g>
						<g>
							<circle fill="#F9A908" cx="56.5" cy="41.4" r="0.6"/>
						</g>
						<g>
							<circle fill="#F7910B" cx="9.3" cy="40.8" r="0.5"/>
						</g>
						<g>
							<circle fill="#F7910B" cx="10.1" cy="32.4" r="0.4"/>
						</g>
						<g>
							<circle fill="#F9A908" cx="4.8" cy="18.7" r="1.1"/>
						</g>
						<g>
							<circle fill="#F9A908" cx="8" cy="15.1" r="0.6"/>
						</g>
						<g>
							<circle fill="#F9A908" cx="59.2" cy="21" r="0.2"/>
						</g>
						<g>
							<circle fill="#F9A908" cx="58.4" cy="18.1" r="0.8"/>
						</g>
						<g>
							<circle fill="#F9A908" cx="61" cy="18.7" r="0.5"/>
						</g>
						<g>
							<circle fill="#F9A908" cx="6" cy="21.6" r="0.6"/>
						</g>
					</g>
				</g>
			</g>
			<g>
				<g>
					<g>
						<circle fill="#FFFFFF" cx="20.7" cy="28.9" r="9.3"/>
						<path fill="#756A49" d="M20.7,39.9c-6.1,0-11-4.9-11-11s4.9-11,11-11c6.1,0,11,4.9,11,11S26.7,39.9,20.7,39.9z M20.7,21.2
							c-4.2,0-7.7,3.4-7.7,7.7s3.4,7.7,7.7,7.7c4.2,0,7.7-3.4,7.7-7.7S24.9,21.2,20.7,21.2z"/>
					</g>
					<g>
						<path fill="#FFFFFF" d="M52.7,28.9c0,5.2-4.2,9.3-9.3,9.3c-5.2,0-9.3-4.2-9.3-9.3s4.2-9.3,9.3-9.3
							C48.5,19.6,52.7,23.7,52.7,28.9z"/>
						<path fill="#756A49" d="M43.3,39.9c-6.1,0-11-4.9-11-11s4.9-11,11-11c6.1,0,11,4.9,11,11S49.4,39.9,43.3,39.9z M43.3,21.2
							c-4.2,0-7.7,3.4-7.7,7.7s3.4,7.7,7.7,7.7c4.2,0,7.7-3.4,7.7-7.7S47.6,21.2,43.3,21.2z"/>
					</g>
				</g>
				<g>
					<g>
						<path fill="#CECDCC" d="M24.1,29.4c0,1.9-1.6,3.5-3.5,3.5c-1.9,0-3.5-1.6-3.5-3.5c0-1.9,1.6-3.5,3.5-3.5
							C22.5,25.9,24.1,27.5,24.1,29.4z"/>
					</g>
					<g>
						<circle fill="#CECDCC" cx="43.4" cy="29.4" r="3.5"/>
					</g>
					<g>
						<path fill="#1E4784" d="M24.1,28.4c0,1.9-1.6,3.5-3.5,3.5c-1.9,0-3.5-1.6-3.5-3.5s1.6-3.5,3.5-3.5
							C22.5,24.9,24.1,26.5,24.1,28.4z"/>
					</g>
					<g>
						<path fill="#00233F" d="M20.6,24.9c1.9,0,3.5,1.6,3.5,3.5s-1.6,3.5-3.5,3.5"/>
					</g>
					<g>
						<circle fill="#1E4784" cx="43.4" cy="28.4" r="3.5"/>
					</g>
					<g>
						<path fill="#00233F" d="M43.4,24.9c1.9,0,3.5,1.6,3.5,3.5s-1.6,3.5-3.5,3.5"/>
					</g>
				</g>
			</g>
		</g>
		<g>
			<g>
				<line fill="#FFFFFF" x1="2" y1="30.5" x2="11" y2="30.5"/>
				<path fill="#756A49" d="M11,32H2c-0.8,0-1.5-0.7-1.5-1.5S1.2,29,2,29h9c0.8,0,1.5,0.7,1.5,1.5S11.8,32,11,32z"/>
			</g>
			<g>
				<line fill="#FFFFFF" x1="53" y1="30.5" x2="62" y2="30.5"/>
				<path fill="#756A49" d="M62,32h-9c-0.8,0-1.5-0.7-1.5-1.5S52.2,29,53,29h9c0.8,0,1.5,0.7,1.5,1.5S62.8,32,62,32z"/>
			</g>
		</g>
		<g>
			<g>
				<g>
					<g>
						<path fill="#00233F" d="M24,15.3c0,0.6-1.5,0.2-3.2,0c-1.8-0.2-3.2,0-3.2-0.6c0-0.6,0.8-2.3,2.6-2.1
							C21.9,12.7,24.1,14.7,24,15.3z"/>
					</g>
				</g>
			</g>
			<g>
				<g>
					<g>
						<path fill="#00233F" d="M40,16.1c0,0.6,1.5,0.2,3.2,0c1.8-0.2,3.2,0,3.2-0.6c-0.1-0.6-0.8-2.3-2.6-2.1
							C42.1,13.6,39.9,15.5,40,16.1z"/>
					</g>
				</g>
			</g>
		</g>
		<g>
			<g>
				<path fill="#F7910B" d="M39.4,55.3c0,2.6-3.3,4.7-7.4,4.7c-4.1,0-7.4-2.1-7.4-4.7"/>
			</g>
			<g>
				<path fill="#02243E" d="M34,55h-4c-0.6,0-1-0.4-1-1s0.4-1,1-1h4c0.6,0,1,0.4,1,1S34.6,55,34,55z"/>
			</g>
		</g>
	</g>
	<g>
		<g>
			<polygon fill="#00233F" points="28.6,48 17.4,52.6 32,51.5 31.8,48 			"/>
		</g>
		<g>
			<polygon fill="#00233F" points="35.4,48 46.6,52.6 32,51.5 32.2,48 			"/>
		</g>
	</g>
	<g>
		<path fill="#F9B2DB" d="M38,42c0,7.2-2.7,7.3-6,7.3c-3.3,0-6-0.1-6-7.3c0-7.2,2.7-13,6-13C35.3,29,38,34.9,38,42z"/>
	</g>
	<g>
		<path fill="#EA81B8" d="M32,29c3.3,0,6,5.8,6,13c0,7.2-2.7,7.3-6,7.3"/>
	</g>
	<g>
		<path fill="#00233F" d="M47,7.5C47,8.3,46.3,9,45.5,9h-27C17.7,9,17,8.3,17,7.5l0,0C17,6.7,17.7,6,18.5,6h27C46.3,6,47,6.7,47,7.5
			L47,7.5z"/>
	</g>
	<g>
		<path fill="#00233F" d="M21.2,8.7c0-4.4,4.8-8,10.8-8c6,0,10.8,3.6,10.8,8"/>
	</g>
</g>
</svg>
