<?xml version="1.0" encoding="utf-8"?>
<!-- Generator: Adobe Illustrator 16.0.0, SVG Export Plug-In . SVG Version: 6.00 Build 0)  -->
<!DOCTYPE svg PUBLIC "-//W3C//DTD SVG 1.1//EN" "http://www.w3.org/Graphics/SVG/1.1/DTD/svg11.dtd">
<svg version="1.1" xmlns="http://www.w3.org/2000/svg" xmlns:xlink="http://www.w3.org/1999/xlink" x="0px" y="0px" width="65px"
	 height="65px" viewBox="0 0 65 65" enable-background="new 0 0 65 65" xml:space="preserve">
<g id="Layer_1">
	<g>
		<g>
			<path fill="#D6C77C" d="M31.057,35.195c4.735,13.261,3.584,10.292-5.08,9.609C4.425,43.106,0.641,49.987,5.807,33.195
				c4.141-13.458,17.756-29,25.375-29S22.831,12.158,31.057,35.195z"/>
		</g>
		<path fill="#DDD187" d="M5.807,33.195C3.325,41.263,2.918,43.86,5.545,44.576c2.305-0.079,5.02-0.11,8.176,0.031
			c2.938-0.117,6.596-0.181,11.055,0.115c0.237-1.195-0.707-3.895-2.719-9.527c-5.248-14.697-0.652-23.251,1.387-27.523
			C16.483,13.012,8.75,23.627,5.807,33.195z"/>
		<path fill="#6B3B1A" d="M33.792,50.104c0,1.2-0.523,2.174-1.166,2.174l0,0c-0.645,0-1.168-0.974-1.168-2.174V4.452
			c0-1.2,0.523-2.174,1.168-2.174l0,0c0.643,0,1.166,0.974,1.166,2.174V50.104z"/>
		<g>
			<rect x="0.5" y="53.335" fill="#0DBFD1" width="63.999" height="9.387"/>
			<g>
				<circle fill="#6B3B1A" cx="3.767" cy="53.071" r="3.267"/>
				<circle fill="#9E5B2E" cx="10.3" cy="53.071" r="3.267"/>
				<circle fill="#6B3B1A" cx="16.5" cy="53.071" r="3.267"/>
				<circle fill="#9E5B2E" cx="23.033" cy="53.071" r="3.267"/>
				<circle fill="#6B3B1A" cx="29.232" cy="53.071" r="3.267"/>
				<circle fill="#9E5B2E" cx="35.767" cy="53.071" r="3.267"/>
				<circle fill="#6B3B1A" cx="41.965" cy="53.071" r="3.268"/>
				<circle fill="#9E5B2E" cx="48.5" cy="53.071" r="3.267"/>
				<circle fill="#6B3B1A" cx="54.699" cy="53.071" r="3.267"/>
				<circle fill="#9E5B2E" cx="61.232" cy="53.071" r="3.267"/>
			</g>
		</g>
		<path fill="#9E5B2E" d="M59.25,45.403c0,0.414-0.336,0.75-0.75,0.75H6.5c-0.415,0-0.751-0.336-0.751-0.75l0,0
			c0-0.414,0.336-0.75,0.751-0.75H58.5C58.914,44.653,59.25,44.989,59.25,45.403L59.25,45.403z"/>
		<g>
			<polygon fill="#FF4800" points="33.266,3.199 33.266,10.653 42.932,6.926 			"/>
			<polygon fill="#CC3715" points="33.266,5.848 33.266,10.653 42.932,6.926 			"/>
		</g>
	</g>
</g>
<g id="nyt_x5F_exporter_x5F_info" display="none">
</g>
</svg>
