<?xml version="1.0" encoding="utf-8"?>
<!-- Generator: Adobe Illustrator 16.0.0, SVG Export Plug-In . SVG Version: 6.00 Build 0)  -->
<!DOCTYPE svg PUBLIC "-//W3C//DTD SVG 1.1//EN" "http://www.w3.org/Graphics/SVG/1.1/DTD/svg11.dtd">
<svg version="1.1" id="Layer_1" xmlns="http://www.w3.org/2000/svg" xmlns:xlink="http://www.w3.org/1999/xlink" x="0px" y="0px"
	 width="64px" height="64px" viewBox="0 0 64 64" enable-background="new 0 0 64 64" xml:space="preserve">
<g>
	<g>
		<g>
			
				<rect x="52.2" y="22.4" transform="matrix(0.7071 0.7072 -0.7072 0.7071 35.6176 -32.2262)" fill="#029B40" width="9" height="9"/>
			<polygon fill="#07AA49" points="56.7,33.2 50.3,26.9 56.7,26.9 63.1,26.9 			"/>
		</g>
		<polygon fill="#775E43" points="8,25.6 33.5,14.4 59,25.6 59,35.6 33.5,44.3 8,35.6 		"/>
		<polygon fill="#08B74F" points="8,19.2 33.5,8.1 59,19.2 59,26.8 33.5,41.7 8,26.8 		"/>
		<polyline fill="#17CC60" points="59,20 59,26.8 33.5,41.7 8,26.4 		"/>
		<polyline fill="#07AA49" points="33.5,8.1 59,19.2 59,26.8 33.5,41.7 		"/>
		<polyline fill="#029B40" points="33.9,22.1 59,19.2 59,26.8 33.5,41.7 		"/>
		<polygon fill="#36C670" points="17,15.3 33.5,8.1 50,15.3 50,20.1 33.5,29.6 17,20.1 		"/>
		<polyline fill="#51D687" points="17.2,15.2 33.6,8.1 49.9,15.9 50,20.1 33.6,29.6 		"/>
		<polyline fill="#36C670" points="33.6,8.1 50,15.7 50,20.1 33.6,29.6 		"/>
		<polyline fill="#51D687" points="50,15.3 50,20.1 33.6,29.6 		"/>
		<g>
			<g>
				<polyline fill="#846A4F" points="27,38 13,38 15.9,34.7 				"/>
			</g>
			<g>
				<polyline fill="#846A4F" points="40,38 54.5,38 51.3,34.7 				"/>
			</g>
		</g>
		<g>
			<g>
				<polygon fill="#CCAF89" points="59,52 50.4,52 54.1,36 59,36 				"/>
				<polygon fill="#BC9B73" points="59,52 50.4,52 56.8,45.7 59,36.1 				"/>
				<g>
					<polygon fill="#E8D9B5" points="54.3,52 52.4,50.1 50.5,52 					"/>
					<polygon fill="#E8D9B5" points="55.8,52 53.9,50.1 52.1,52 					"/>
					<polygon fill="#E8D9B5" points="57.3,52 55.5,50.1 53.6,52 					"/>
				</g>
			</g>
			<g>
				<circle fill="#BC9B73" cx="54.8" cy="36" r="4.6"/>
				<path fill="#CCAF89" d="M58.1,32.8c1.8,1.8,1.8,4.7,0,6.5c-1.8,1.8-4.7,1.8-6.5,0"/>
			</g>
		</g>
		<polygon fill="#846A4F" points="8,36 18.7,36 12.7,17.1 8,17 		"/>
		<polygon fill="#775E43" points="8,36 18.7,36 12.7,17.1 11.2,17.5 		"/>
		<g>
			<g>
				<polygon fill="#CCAF89" points="18,52 8.9,52 12.5,36 18,36 				"/>
				<polygon fill="#BC9B73" points="18,52 8.9,52 15.5,45.7 18,36.1 				"/>
				<g>
					<polygon fill="#E8D9B5" points="12.7,52 10.8,50.1 9,52 					"/>
					<polygon fill="#E8D9B5" points="14.2,52 12.4,50.1 10.5,52 					"/>
					<polygon fill="#E8D9B5" points="15.8,52 13.9,50.1 12,52 					"/>
				</g>
			</g>
			<g>
				<path fill="#BC9B73" d="M17.9,36c0,2.5-2.1,4.6-4.6,4.6c-2.5,0-4.6-2.1-4.6-4.6c0-2.5,2.1-4.6,4.6-4.6
					C15.8,31.4,17.9,33.5,17.9,36z"/>
				<path fill="#CCAF89" d="M16.5,32.8c1.8,1.8,1.8,4.7,0,6.5c-1.8,1.8-4.7,1.8-6.5,0"/>
			</g>
		</g>
		<g>
			<polygon fill="#775E43" points="1.8,17.3 12.7,17.4 12,11.3 6.4,10.4 1.2,12.8 			"/>
			<polyline fill="#846A4F" points="1.2,12.8 0.9,18.8 11,17.4 			"/>
		</g>
		<g>
			<polygon fill="#775E43" points="2,17 8,17 8,21.3 2.6,19.4 			"/>
			<polyline fill="#846A4F" points="2.5,19.2 2,17 7,17 			"/>
		</g>
		<g>
			<g>
				<g>
					<circle fill="#029B40" cx="23.1" cy="18.1" r="0.8"/>
				</g>
				<g>
					<circle fill="#029B40" cx="26.7" cy="18.1" r="0.8"/>
				</g>
				<g>
					<circle fill="#029B40" cx="30.3" cy="18.1" r="0.8"/>
				</g>
			</g>
			<g>
				<circle fill="#A4EDC1" cx="37.1" cy="18.1" r="0.8"/>
				<circle fill="#A4EDC1" cx="40.7" cy="18.1" r="0.8"/>
				<circle fill="#A4EDC1" cx="44.3" cy="18.1" r="0.8"/>
			</g>
		</g>
	</g>
	<circle fill="#CCAF89" cx="6.1" cy="14.5" r="0.8"/>
	<polygon fill="#00899B" points="27.4,56 23.5,52 19.5,56 	"/>
	<polygon fill="#19DAF4" points="33.4,56 29.5,52 25.5,56 	"/>
	<polygon fill="#00899B" points="39.4,56 35.5,52 31.5,56 	"/>
	<polygon fill="#19DAF4" points="45.4,56 41.5,52 37.5,56 	"/>
	<polygon fill="#00899B" points="51.4,56 47.5,52 43.5,56 	"/>
</g>
</svg>
