<?xml version="1.0" encoding="utf-8"?>
<!-- Generator: Adobe Illustrator 16.0.0, SVG Export Plug-In . SVG Version: 6.00 Build 0)  -->
<!DOCTYPE svg PUBLIC "-//W3C//DTD SVG 1.1//EN" "http://www.w3.org/Graphics/SVG/1.1/DTD/svg11.dtd">
<svg version="1.1" id="Layer_1" xmlns="http://www.w3.org/2000/svg" xmlns:xlink="http://www.w3.org/1999/xlink" x="0px" y="0px"
	 width="64px" height="64px" viewBox="0 0 64 64" enable-background="new 0 0 64 64" xml:space="preserve">
<g>
	<g>
		<g>
			<path fill="#C16A02" d="M10.7,33.3c-0.4,1.3-1.7,2-2.9,1.6c-1.3-0.4-2-1.7-1.6-2.9"/>
			<g>
				<polygon fill="#603D16" points="35,50.6 36.3,50.1 37.6,50.6 36.5,58 36.3,59.6 35,61.5 				"/>
				<polygon fill="#845629" points="35,44 37.1,43.5 39.3,44 38.2,51.5 37.1,53 35,51.5 				"/>
				<polygon fill="#C16A02" points="38.7,63 35,63 35,60.1 37.7,61.3 				"/>
			</g>
			<g>
				<polygon fill="#603D16" points="5,49 6.4,48.4 7.7,49 6.6,57.5 6.4,59.3 5,61.5 				"/>
				<polygon fill="#845629" points="9.9,41.9 11.3,43.6 12.8,45.3 7.7,50.8 5.9,51.4 5,48.9 				"/>
				<polygon fill="#C16A02" points="8.8,63 5,63 5,60.1 7.7,61.3 				"/>
			</g>
			<polygon fill="#845629" points="42.8,34 32.9,34 38.7,20.8 43,21 			"/>
			<polygon fill="#603D16" points="43,33.1 39.1,34 39.7,21 43,20.8 			"/>
			<path fill="#603D16" d="M25,43H14c-2.8,0-5.1-2.2-5.1-5l0,0c0-2.8,2.3-5,5.1-5h7"/>
			<path fill="#603D16" d="M43,33c0,7-5.6,13-12.7,13c-7.1,0-12.8-6-12.8-13H43z"/>
			<path fill="#603D16" d="M30,33v13c7-0.1,13-6,13-13H30z"/>
			<path fill="#845629" d="M30,33v9c5,0,9.1-4,9.1-9H30z"/>
			<path fill="#603D16" d="M30,33v5.8c3,0,5.9-2.8,5.9-5.8H30z"/>
			<path fill="#C16A02" d="M38,15h-4.1c0,2,2.1,3.9,4.1,3.9V15z"/>
			<g>
				<path fill="#FCCC32" d="M37.3,9.4l1.2,0.9c1.5-2,0.7-5.2-1.2-6.8l-0.6,0.7C37.9,5.7,38.2,7.7,37.3,9.4z"/>
				<path fill="#FCCC32" d="M41.9,14.8C41.7,10.9,37,7.8,34,7.8v1.5c2,0.5,4.5,2.3,5.4,4.8L41.9,14.8z"/>
				<path fill="#FCCC32" d="M33.6,9.3L35,9.7c0.6-2.4-1.4-5.1-3.9-5.7l-0.2,0.9C32.6,5.7,33.7,7.4,33.6,9.3z"/>
				<path fill="#FCCC32" d="M38,5.5l0.2,1.2c1.9-0.4,3-2.7,2.6-4.6l-0.7,0.2C40.2,3.6,39.3,5,38,5.5z"/>
				<path fill="#FCCC32" d="M33.4,5.7l1,0.7c1.1-1.6,0.4-4.1-1.2-5.2l-0.4,0.6C33.7,2.8,34,4.3,33.4,5.7z"/>
				<path fill="#FCCC32" d="M38.2,11.8l1.1,1c-1.8,1.9-5.1,1.6-7-0.2L33,12C34.6,13,36.7,12.9,38.2,11.8z"/>
			</g>
			<circle fill="#603D16" cx="36.9" cy="42.9" r="3.3"/>
			<path fill="#845629" d="M39.3,40.6c1.3,1.3,1.3,3.4,0,4.7c-1.3,1.3-3.4,1.3-4.7,0"/>
			<circle fill="#603D16" cx="11.9" cy="42.9" r="3.3"/>
			<path fill="#845629" d="M14.3,40.6c1.3,1.3,1.3,3.4,0,4.7c-1.3,1.3-3.4,1.3-4.7,0"/>
			<g>
				<circle fill="#F4EFDC" cx="20.6" cy="38.3" r="0.8"/>
				<circle fill="#F4EFDC" cx="24.1" cy="38.3" r="0.8"/>
				<circle fill="#F4EFDC" cx="27.6" cy="38.3" r="0.8"/>
			</g>
			<polygon fill="#845629" points="49.7,21 38.6,21 38.8,15.4 48.4,17.9 			"/>
			<polyline fill="#603D16" points="48.4,17.9 49.7,21 40,21 			"/>
		</g>
	</g>
	<g>
		<g>
			<polygon fill="#51D687" points="55.9,5.8 59,12.9 55.9,16.7 52.7,12.9 			"/>
			<polyline fill="#2CAF61" points="55.9,16.7 52.7,12.9 55.9,5.8 			"/>
		</g>
		<g>
			<polygon fill="#51D687" points="55.9,17.2 59,24.2 55.9,28 52.7,24.2 			"/>
			<polyline fill="#2CAF61" points="55.9,28 52.7,24.2 55.9,17.2 			"/>
		</g>
		<g>
			<polygon fill="#51D687" points="55.9,28.5 59,35.6 55.9,39.4 52.7,35.6 			"/>
			<polyline fill="#2CAF61" points="55.9,39.4 52.7,35.6 55.9,28.5 			"/>
		</g>
	</g>
</g>
</svg>
