<?xml version="1.0" encoding="utf-8"?>
<!-- Generator: Adobe Illustrator 16.0.0, SVG Export Plug-In . SVG Version: 6.00 Build 0)  -->
<!DOCTYPE svg PUBLIC "-//W3C//DTD SVG 1.1//EN" "http://www.w3.org/Graphics/SVG/1.1/DTD/svg11.dtd">
<svg version="1.1" id="Layer_1" xmlns="http://www.w3.org/2000/svg" xmlns:xlink="http://www.w3.org/1999/xlink" x="0px" y="0px"
	 width="64px" height="64px" viewBox="0 0 64 64" enable-background="new 0 0 64 64" xml:space="preserve">
<g>
	<g>
		<circle fill="#FF9700" cx="32" cy="32" r="30"/>
		<path fill="#FF6D00" d="M62,32c0,16.6-13.4,30-30,30"/>
		<path fill="#FFC200" d="M2,32C2,15.4,15.4,2,32,2"/>
		<path fill="#2F5068" d="M32,63C14.9,63,1,49.1,1,32S14.9,1,32,1s31,13.9,31,31S49.1,63,32,63z M32,3C16,3,3,16,3,32s13,29,29,29
			s29-13,29-29S48,3,32,3z"/>
	</g>
	<g>
		<polygon fill="#707A7F" points="32,2.1 6.2,46 57.8,46 		"/>
		<polygon fill="#4D5B60" points="38.4,13 32,2.1 6.2,46 19.1,46 		"/>
		<path fill="#2F5068" d="M57.8,47H6.2c-0.4,0-0.7-0.3-0.9-0.6c-0.2-0.3-0.2-0.7,0-1L31.2,1.5c0.4-0.6,1.3-0.6,1.7,0l25.8,43.9
			c0.2,0.3,0.2,0.7,0,1.1C58.5,46.7,58.2,47,57.8,47z M7.9,45h48.2L32,4L7.9,45z"/>
	</g>
	<g>
		<polygon fill="#FFC200" points="32,45.8 44.8,24 19.2,24 		"/>
		<polygon fill="#FF9700" points="32,45.8 44.8,24 28,24 		"/>
		<path fill="#2F5068" d="M32,46.9c-0.3,0-0.7-0.2-0.8-0.5L18.4,24.6c-0.2-0.3-0.2-0.8,0-1.1c0.2-0.3,0.5-0.6,0.9-0.6h25.6
			c0.4,0,0.7,0.3,0.9,0.6c0.2,0.3,0.2,0.7,0,1L32.8,46.4C32.7,46.7,32.3,46.9,32,46.9z M20.9,25L32,43.8L43.1,25H20.9z"/>
	</g>
</g>
</svg>
