<?xml version="1.0" encoding="utf-8"?>
<!-- Generator: Adobe Illustrator 16.0.0, SVG Export Plug-In . SVG Version: 6.00 Build 0)  -->
<!DOCTYPE svg PUBLIC "-//W3C//DTD SVG 1.1//EN" "http://www.w3.org/Graphics/SVG/1.1/DTD/svg11.dtd">
<svg version="1.1" id="Layer_1" xmlns="http://www.w3.org/2000/svg" xmlns:xlink="http://www.w3.org/1999/xlink" x="0px" y="0px"
	 width="65px" height="65px" viewBox="0 0 65 65" enable-background="new 0 0 65 65" xml:space="preserve">
<g>
	<g>
		<g>
			<path fill="#070E11" d="M60.129,25.572c-1.043,1.039-2.729,1.039-3.768,0l-6.436-6.436c-1.041-1.04-1.041-2.728,0-3.767l0,0
				c1.04-1.042,2.727-1.042,3.767,0l6.437,6.435C61.168,22.844,61.168,24.531,60.129,25.572L60.129,25.572z"/>
			<path fill="#222E33" d="M50.389,19.39c-9.047,6.406-20.375,16.006-22.1,17.729c-2.785,2.785-2.785,7.304,0,10.091
				c2.786,2.783,7.303,2.783,10.089-0.002C40.1,45.483,49.7,34.153,56.106,25.108L50.389,19.39z"/>
			<path fill="#070E11" d="M28.289,47.209c2.786,2.783,7.303,2.783,10.089-0.002C40.1,45.483,49.7,34.153,56.106,25.108
				l-5.718-5.719"/>
		</g>
		<path fill="#3D4E56" d="M3.15,37.15v10.077c0,7.859,6.371,14.231,14.229,14.231h30.237c7.861,0,14.232-6.372,14.232-14.231V37.15
			H3.15z"/>
		<path fill="#222E33" d="M17.38,61.459h30.237c7.861,0,14.232-6.372,14.232-14.231V37.15H3.15"/>
		<path fill="#3D4E56" d="M64.5,36.771c0,1.062-0.859,1.921-1.92,1.921H2.42c-1.061,0-1.92-0.858-1.92-1.921l0,0
			c0-1.061,0.859-1.92,1.92-1.92h60.16C63.641,34.852,64.5,35.711,64.5,36.771L64.5,36.771z"/>
		<path fill="#4E636B" d="M0.5,36.771L0.5,36.771c0-1.061,0.859-1.92,1.92-1.92h60.16c1.061,0,1.92,0.859,1.92,1.92l0,0"/>
		<path fill="#3D4E56" d="M58.814,43.903c0,0.303-0.244,0.549-0.548,0.549H16.574c-0.305,0-0.549-0.246-0.549-0.549l0,0
			c0-0.303,0.244-0.549,0.549-0.549h41.692C58.57,43.354,58.814,43.601,58.814,43.903L58.814,43.903z"/>
		<path fill="#3D4E56" d="M58.814,48.018c0,0.304-0.244,0.549-0.548,0.549H16.574c-0.305,0-0.549-0.245-0.549-0.549l0,0
			c0-0.303,0.244-0.548,0.549-0.548h41.692C58.57,47.47,58.814,47.715,58.814,48.018L58.814,48.018z"/>
		<path fill="#3D4E56" d="M58.814,52.132c0,0.304-0.244,0.549-0.548,0.549H16.574c-0.305,0-0.549-0.245-0.549-0.549l0,0
			c0-0.303,0.244-0.548,0.549-0.548h41.692C58.57,51.584,58.814,51.829,58.814,52.132L58.814,52.132z"/>
	</g>
	<circle fill="#899DA5" cx="16.109" cy="8.416" r="4.875"/>
	<circle fill="#899DA5" cx="21.609" cy="19.166" r="2.125"/>
	<circle fill="#899DA5" cx="27.984" cy="13.291" r="3.625"/>
	<circle fill="#899DA5" cx="12.484" cy="21.416" r="0.625"/>
	<circle fill="#899DA5" cx="18.109" cy="25.291" r="2.25"/>
	<circle fill="#899DA5" cx="26.984" cy="27.166" r="3"/>
	<circle fill="#899DA5" cx="26.547" cy="20.604" r="1.312"/>
</g>
</svg>
