<?xml version="1.0" encoding="utf-8"?>
<!-- Generator: Adobe Illustrator 16.0.0, SVG Export Plug-In . SVG Version: 6.00 Build 0)  -->
<!DOCTYPE svg PUBLIC "-//W3C//DTD SVG 1.1//EN" "http://www.w3.org/Graphics/SVG/1.1/DTD/svg11.dtd">
<svg version="1.1" id="Layer_1" xmlns="http://www.w3.org/2000/svg" xmlns:xlink="http://www.w3.org/1999/xlink" x="0px" y="0px"
	 width="64px" height="64px" viewBox="0 0 64 64" enable-background="new 0 0 64 64" xml:space="preserve">
<g>
	<g>
		<g>
			<path fill="#F7910B" d="M62.3,37.5C62.3,50.5,50.4,61,32,61C13.6,61,1.7,50.5,1.7,37.5S13.6,5,32,5C50.4,5,62.3,24.5,62.3,37.5z"
				/>
		</g>
		<g>
			<path fill="#F7910B" d="M62.3,37.5C62.3,50.5,50.4,57,32,57C13.6,57,1.7,50.5,1.7,37.5S13.6,3,32,3C50.4,3,62.3,24.5,62.3,37.5z"
				/>
		</g>
		<g>
			<path fill="#F9A908" d="M32,3c18.4,0,30.3,21.5,30.3,34.5S50.4,57,32,57"/>
		</g>
		<g>
			<path fill="#F9A908" d="M62.3,37.5C62.3,50.5,50.4,57,32,57C13.6,57,1.7,50.5,1.7,37.5S13.6,5,32,5C50.4,5,62.3,24.5,62.3,37.5z"
				/>
		</g>
		<g>
			<path fill="#F9C55D" d="M1.7,37.5C1.7,24.5,13.6,5,32,5"/>
		</g>
		<g>
			<path fill="#F7910B" d="M32,5c18.4,0,30.3,19.5,30.3,32.5S50.4,61,32,61"/>
		</g>
		<g>
			<path fill="#EA7103" d="M32,5c18.4,0,30.3,19.5,30.3,32.5"/>
		</g>
		<g>
			<g>
				<g>
					<circle fill="#EA7103" cx="21.6" cy="33.8" r="3.2"/>
				</g>
				<g>
					<circle fill="#EA7103" cx="42.4" cy="33.8" r="3.2"/>
				</g>
			</g>
			<g>
				<circle fill="#1E4784" cx="21.6" cy="32.9" r="3.2"/>
			</g>
			<g>
				<path fill="#00233F" d="M21.6,29.7c1.8,0,3.2,1.4,3.2,3.2s-1.4,3.2-3.2,3.2"/>
			</g>
			<g>
				<circle fill="#1E4784" cx="42.4" cy="32.9" r="3.2"/>
			</g>
			<g>
				<path fill="#00233F" d="M42.4,29.7c1.8,0,3.2,1.4,3.2,3.2s-1.4,3.2-3.2,3.2"/>
			</g>
			<g>
				<g>
					<path fill="#FF4200" d="M27.4,39.9c0,1.3-3.8,1.8-8.6,1.8c-4.7,0-8.6-0.5-8.6-1.8c0-1.3,3.8-2.4,8.6-2.4
						C23.6,37.5,27.4,38.6,27.4,39.9z"/>
				</g>
				<g>
					<path fill="#FF4200" d="M53.8,39.9c0,1.3-3.8,1.8-8.6,1.8s-8.6-0.5-8.6-1.8c0-1.3,3.8-2.4,8.6-2.4S53.8,38.6,53.8,39.9z"/>
				</g>
			</g>
		</g>
		<g>
			<g>
				<g>
					<g>
						<g>
							<path fill="#19BCA4" d="M25.9,12c0.3,0.8-1.2,0.9-2.9,1.6c-1.7,0.6-2.9,1.6-3.2,0.8c-0.3-0.8,0.8-2,2.5-2.6
								C24,11.1,25.6,11.2,25.9,12z"/>
						</g>
					</g>
				</g>
			</g>
			<g>
				<g>
					<g>
						<g>
							<path fill="#19BCA4" d="M38.5,15.7c-0.4,0.8,1.1,1,2.7,1.9c1.6,0.8,2.7,1.9,3.1,1.1c0.4-0.8-0.6-2.1-2.2-2.9
								C40.5,15,38.9,15,38.5,15.7z"/>
						</g>
					</g>
				</g>
			</g>
		</g>
		<g>
			<circle fill="#F7910B" cx="10.3" cy="34.5" r="0.6"/>
		</g>
		<g>
			<circle fill="#F7910B" cx="5.8" cy="36.5" r="1.1"/>
		</g>
		<g>
			<circle fill="#F7910B" cx="8.8" cy="32.5" r="0.2"/>
		</g>
		<g>
			<circle fill="#F7910B" cx="13.4" cy="34.3" r="0.2"/>
		</g>
		<g>
			<circle fill="#F9A908" cx="52.6" cy="34.8" r="0.8"/>
		</g>
		<g>
			<circle fill="#F9A908" cx="55.1" cy="36.2" r="0.2"/>
		</g>
		<g>
			<circle fill="#F9A908" cx="49.8" cy="27.4" r="0.3"/>
		</g>
		<g>
			<circle fill="#F9A908" cx="44.9" cy="26.3" r="1.3"/>
		</g>
		<g>
			<circle fill="#F9A908" cx="56.5" cy="39.1" r="0.6"/>
		</g>
		<g>
			<circle fill="#F7910B" cx="9.3" cy="38.5" r="0.5"/>
		</g>
		<g>
			<circle fill="#F7910B" cx="10.1" cy="30.1" r="0.4"/>
		</g>
		<g>
			<circle fill="#F9A908" cx="4.8" cy="16.3" r="1.1"/>
		</g>
		<g>
			<circle fill="#F9A908" cx="8" cy="12.8" r="0.6"/>
		</g>
		<g>
			<circle fill="#F9A908" cx="59.2" cy="18.7" r="0.2"/>
		</g>
		<g>
			<circle fill="#F9A908" cx="58.4" cy="15.8" r="0.8"/>
		</g>
		<g>
			<circle fill="#F9A908" cx="61" cy="16.3" r="0.5"/>
		</g>
		<g>
			<circle fill="#F9A908" cx="6" cy="19.3" r="0.6"/>
		</g>
		<g>
			<g>
				<path fill="#F7910B" d="M40.5,44.7c0,2.6-3.8,8.1-8.5,8.1c-4.7,0-8.5-5.5-8.5-8.1"/>
			</g>
		</g>
		<g>
			<path fill="#02243E" d="M32,46.2c-3.6,0-7.3-0.7-8.9-2.2c-0.5-0.4-0.5-1.1-0.1-1.6c0.4-0.5,1.1-0.5,1.6-0.1
				c2.5,2.2,12.5,2.2,15,0c0.5-0.4,1.2-0.3,1.6,0.1c0.4,0.5,0.3,1.2-0.1,1.6C39.3,45.5,35.6,46.2,32,46.2z"/>
		</g>
	</g>
	<g>
		<g>
			<path fill="#2E7201" d="M14.4,59.8c0,0.6-0.5,1.2-1.2,1.2l0,0c-0.6,0-1.2-0.5-1.2-1.2V47c0-0.6,0.5-1.2,1.2-1.2l0,0
				c0.6,0,1.2,0.5,1.2,1.2V59.8z"/>
		</g>
		<g>
			<g>
				<g>
					<g>
						<ellipse fill="#5EA304" cx="13.3" cy="33.9" rx="3.2" ry="5.6"/>
					</g>
					<g>
						<path fill="#3A8E03" d="M13.3,28.4c1.8,0,3.2,2.5,3.2,5.6c0,3.1-1.4,5.6-3.2,5.6"/>
					</g>
				</g>
				<g>
					<g>
						<ellipse fill="#5EA304" cx="13.3" cy="46" rx="3.2" ry="5.6"/>
					</g>
					<g>
						<path fill="#3A8E03" d="M13.3,40.5c1.8,0,3.2,2.5,3.2,5.6c0,3.1-1.4,5.6-3.2,5.6"/>
					</g>
				</g>
			</g>
			<g>
				<g>
					<g>
						
							<ellipse transform="matrix(0.7071 0.7071 -0.7071 0.7071 30.3982 -1.9717)" fill="#5EA304" cx="17.6" cy="35.7" rx="3.2" ry="5.6"/>
					</g>
					<g>
						<path fill="#3A8E03" d="M21.5,31.8c1.3,1.3,0.5,4-1.7,6.2c-2.2,2.2-5,2.9-6.2,1.7"/>
					</g>
				</g>
				<g>
					<g>
						<ellipse transform="matrix(0.7073 0.707 -0.707 0.7073 33.9382 6.5917)" fill="#5EA304" cx="9" cy="44.3" rx="3.2" ry="5.6"/>
					</g>
					<g>
						<path fill="#3A8E03" d="M12.9,40.3c1.3,1.3,0.5,4-1.7,6.2c-2.2,2.2-5,2.9-6.2,1.7"/>
					</g>
				</g>
			</g>
			<g>
				<g>
					<g>
						<ellipse fill="#5EA304" cx="19.4" cy="40" rx="5.6" ry="3.2"/>
					</g>
					<g>
						<path fill="#3A8E03" d="M24.9,40c0,1.8-2.5,3.2-5.6,3.2c-3.1,0-5.6-1.4-5.6-3.2"/>
					</g>
				</g>
				<g>
					<g>
						<ellipse fill="#5EA304" cx="7.2" cy="40" rx="5.6" ry="3.2"/>
					</g>
					<g>
						<path fill="#3A8E03" d="M12.8,40c0,1.8-2.5,3.2-5.6,3.2S1.7,41.8,1.7,40"/>
					</g>
				</g>
			</g>
			<g>
				<g>
					<g>
						
							<ellipse transform="matrix(-0.7073 0.707 -0.707 -0.7073 61.3128 63.1619)" fill="#5EA304" cx="17.6" cy="44.3" rx="3.2" ry="5.6"/>
					</g>
					<g>
						<path fill="#3A8E03" d="M21.5,48.2c-1.3,1.3-4,0.5-6.2-1.7c-2.2-2.2-2.9-5-1.7-6.2"/>
					</g>
				</g>
				<g>
					<g>
						
							<ellipse transform="matrix(-0.7071 0.7071 -0.7071 -0.7071 40.63 54.5865)" fill="#5EA304" cx="9" cy="35.7" rx="3.2" ry="5.6"/>
					</g>
					<g>
						<path fill="#3A8E03" d="M12.9,39.6c-1.3,1.3-4,0.5-6.2-1.7s-2.9-5-1.7-6.2"/>
					</g>
				</g>
			</g>
			<g>
				<g>
					<circle fill="#F9A908" cx="13.3" cy="40" r="6.6"/>
				</g>
				<g>
					<path fill="#F7910B" d="M18,35.3c2.6,2.6,2.6,6.8,0,9.4c-2.6,2.6-6.8,2.6-9.4,0"/>
				</g>
				<g>
					
						<ellipse transform="matrix(0.798 -0.6027 0.6027 0.798 -20.0416 14.2987)" fill="#F9C55D" cx="11.3" cy="37" rx="2.8" ry="1.7"/>
				</g>
			</g>
		</g>
		<g>
			<g>
				<g>
					<g>
						
							<ellipse transform="matrix(0.3939 -0.9192 0.9192 0.3939 -46.8231 41.2635)" fill="#5EA304" cx="7.9" cy="56.1" rx="3.2" ry="5.6"/>
					</g>
					<g>
						<path fill="#3A8E03" d="M2.8,53.9c0.7-1.6,3.6-2,6.4-0.8c2.8,1.2,4.6,3.5,3.9,5.1"/>
					</g>
				</g>
			</g>
			<g>
				<g>
					<g>
						
							<ellipse transform="matrix(-0.3939 -0.9192 0.9192 -0.3939 -25.5133 95.4454)" fill="#5EA304" cx="18.7" cy="56.1" rx="3.2" ry="5.6"/>
					</g>
					<g>
						<path fill="#3A8E03" d="M23.8,53.9c-0.7-1.6-3.6-2-6.4-0.8s-4.6,3.5-3.9,5.1"/>
					</g>
				</g>
			</g>
		</g>
	</g>
</g>
</svg>
