<?xml version="1.0" encoding="utf-8"?>
<!-- Generator: Adobe Illustrator 16.0.0, SVG Export Plug-In . SVG Version: 6.00 Build 0)  -->
<!DOCTYPE svg PUBLIC "-//W3C//DTD SVG 1.1//EN" "http://www.w3.org/Graphics/SVG/1.1/DTD/svg11.dtd">
<svg version="1.1" id="Layer_1" xmlns="http://www.w3.org/2000/svg" xmlns:xlink="http://www.w3.org/1999/xlink" x="0px" y="0px"
	 width="64px" height="64px" viewBox="0 0 64 64" enable-background="new 0 0 64 64" xml:space="preserve">
<g>
	<g>
		<g>
			<g>
				<g>
					<g>
						<g>
							<path fill="#F7910B" d="M62.3,38.7c0,13-11.9,23.5-30.3,23.5c-18.4,0-30.3-10.5-30.3-23.5S13.6,6.2,32,6.2
								C50.4,6.2,62.3,25.7,62.3,38.7z"/>
						</g>
						<g>
							<path fill="#F7910B" d="M62.3,38.7c0,13-11.9,19.5-30.3,19.5c-18.4,0-30.3-6.5-30.3-19.5S13.6,4.2,32,4.2
								C50.4,4.2,62.3,25.7,62.3,38.7z"/>
						</g>
						<g>
							<path fill="#F9A908" d="M32,4.2c18.4,0,30.3,21.5,30.3,34.5S50.4,58.2,32,58.2"/>
						</g>
						<g>
							<path fill="#F9A908" d="M62.3,38.7c0,13-11.9,19.5-30.3,19.5c-18.4,0-30.3-6.5-30.3-19.5S13.6,6.2,32,6.2
								C50.4,6.2,62.3,25.7,62.3,38.7z"/>
						</g>
						<g>
							<path fill="#F9C55D" d="M1.7,38.7c0-13,11.9-32.5,30.3-32.5"/>
						</g>
						<g>
							<path fill="#F7910B" d="M32,6.2c18.4,0,30.3,19.5,30.3,32.5S50.4,62.2,32,62.2"/>
						</g>
						<g>
							<path fill="#EA7103" d="M32,6.2c18.4,0,30.3,19.5,30.3,32.5"/>
						</g>
						<g>
							<g>
								<path fill="#F9C55D" d="M27.8,45c0,1.2-3.5,0.7-7.8,0.7c-4.3,0-7.8,0.6-7.8-0.7s3.5-2.2,7.8-2.2
									C24.3,42.8,27.8,43.8,27.8,45z"/>
							</g>
							<g>
								<path fill="#F9A908" d="M51.8,45c0,1.2-3.5,0.7-7.8,0.7s-7.8,0.6-7.8-0.7s3.5-2.2,7.8-2.2S51.8,43.8,51.8,45z"/>
							</g>
						</g>
						<g>
							<circle fill="#F7910B" cx="10.3" cy="35.6" r="0.6"/>
						</g>
						<g>
							<circle fill="#F7910B" cx="5.8" cy="37.6" r="1.1"/>
						</g>
						<g>
							<circle fill="#F7910B" cx="8.8" cy="33.6" r="0.2"/>
						</g>
						<g>
							<circle fill="#F7910B" cx="13.4" cy="35.5" r="0.2"/>
						</g>
						<g>
							<circle fill="#F9A908" cx="52.6" cy="36" r="0.8"/>
						</g>
						<g>
							<circle fill="#F9A908" cx="55.1" cy="37.4" r="0.2"/>
						</g>
						<g>
							<circle fill="#F9A908" cx="49.8" cy="28.6" r="0.3"/>
						</g>
						<g>
							<circle fill="#F9A908" cx="49.3" cy="40.2" r="1.3"/>
						</g>
						<g>
							<circle fill="#F9A908" cx="56.5" cy="40.3" r="0.6"/>
						</g>
						<g>
							<circle fill="#F7910B" cx="9.3" cy="39.7" r="0.5"/>
						</g>
						<g>
							<circle fill="#F7910B" cx="10.1" cy="31.3" r="0.4"/>
						</g>
						<g>
							<circle fill="#F9A908" cx="4.8" cy="17.5" r="1.1"/>
						</g>
						<g>
							<circle fill="#F9A908" cx="8" cy="14" r="0.6"/>
						</g>
						<g>
							<circle fill="#F9A908" cx="59.2" cy="19.9" r="0.2"/>
						</g>
						<g>
							<circle fill="#F9A908" cx="58.4" cy="17" r="0.8"/>
						</g>
						<g>
							<path fill="#F9A908" d="M61.5,17.5c0,0.3-0.2,0.5-0.5,0.5c-0.3,0-0.5-0.2-0.5-0.5c0-0.3,0.2-0.5,0.5-0.5
								C61.2,17,61.5,17.2,61.5,17.5z"/>
						</g>
						<g>
							<circle fill="#F9A908" cx="6" cy="20.5" r="0.6"/>
						</g>
					</g>
				</g>
			</g>
			<g>
				<g>
					<g>
						<g>
							<g>
								<g>
									<path fill="#1E4784" d="M47.3,43c-0.4,0-0.8-0.2-1.2-0.5c-1.4-1.4-3.7-1.4-5.1,0c-0.6,0.6-1.7,0.7-2.3,0
										c-0.6-0.6-0.7-1.7,0-2.3c2.7-2.7,7.1-2.7,9.8,0c0.6,0.6,0.6,1.7,0,2.3C48.1,42.8,47.7,43,47.3,43z"/>
								</g>
							</g>
							<g>
								<g>
									<path fill="#02243E" d="M48.4,40.2c0.6,0.6,0.6,1.7,0,2.3c-0.3,0.3-0.7,0.5-1.2,0.5c-0.4,0-0.8-0.2-1.2-0.5
										c-1.4-1.4-3.7-1.4-5.1,0c-0.6,0.6-1.7,0.7-2.3,0c-0.6-0.6-0.7-1.7,0-2.3"/>
								</g>
							</g>
						</g>
					</g>
				</g>
				<g>
					<g>
						<g>
							<g>
								<g>
									<path fill="#1E4784" d="M16.7,43c0.4,0,0.8-0.2,1.2-0.5c1.4-1.4,3.7-1.4,5.1,0c0.6,0.6,1.7,0.7,2.3,0
										c0.6-0.6,0.7-1.7,0-2.3c-2.7-2.7-7.1-2.7-9.8,0c-0.6,0.6-0.6,1.7,0,2.3C15.9,42.8,16.3,43,16.7,43z"/>
								</g>
							</g>
							<g>
								<g>
									<path fill="#02243E" d="M15.6,40.2c-0.6,0.6-0.6,1.7,0,2.3c0.3,0.3,0.7,0.5,1.2,0.5c0.4,0,0.8-0.2,1.2-0.5
										c1.4-1.4,3.7-1.4,5.1,0c0.6,0.6,1.7,0.7,2.3,0c0.6-0.6,0.7-1.7,0-2.3"/>
								</g>
							</g>
						</g>
					</g>
				</g>
			</g>
			<g>
				<path fill="#F7910B" d="M40.2,52.4c0,2.8-3.7,6.8-8.2,6.8c-4.6,0-8.3-4-8.3-6.8"/>
			</g>
		</g>
		<g>
			<g>
				<g>
					<g>
						<path fill="#037A66" d="M25.6,32c0.3,0.9-1.4,0.9-3.3,1.5c-1.9,0.6-3.3,1.5-3.6,0.6c-0.3-0.9,1-2.1,2.9-2.7
							C23.5,30.8,25.3,31.1,25.6,32z"/>
					</g>
				</g>
			</g>
			<g>
				<g>
					<g>
						<path fill="#037A66" d="M38.4,32c-0.3,0.9,1.4,0.9,3.3,1.5c1.9,0.6,3.3,1.5,3.6,0.6c0.3-0.9-1-2.1-2.9-2.7
							C40.5,30.8,38.7,31.1,38.4,32z"/>
					</g>
				</g>
			</g>
		</g>
		<g>
			<path fill="#99144A" d="M34.7,51.4c0,2.2-1.2,2.9-2.7,2.9s-2.8-0.7-2.8-2.9c0-2.2,1.2-4,2.8-4S34.7,49.2,34.7,51.4z"/>
		</g>
	</g>
	<g>
		<polygon fill="#EA3D84" points="47.6,22.9 16.4,22.9 13.4,5.2 50.6,5.2 		"/>
	</g>
	<g>
		<polygon fill="#F7549E" points="16.4,1.8 47.6,1.8 50.6,5.3 13.4,5.3 		"/>
	</g>
	<g>
		<polygon fill="#C42260" points="47.6,22.9 16.4,22.9 32.2,12.2 50.6,5.2 		"/>
	</g>
	<g>
		<g>
			<rect x="29.2" y="8.6" fill="#E2F2EF" width="5.5" height="9.5"/>
		</g>
		<g>
			<rect x="27.2" y="10.6" fill="#E2F2EF" width="9.5" height="5.5"/>
		</g>
	</g>
</g>
</svg>
