<?xml version="1.0" encoding="utf-8"?>
<!-- Generator: Adobe Illustrator 16.0.0, SVG Export Plug-In . SVG Version: 6.00 Build 0)  -->
<!DOCTYPE svg PUBLIC "-//W3C//DTD SVG 1.1//EN" "http://www.w3.org/Graphics/SVG/1.1/DTD/svg11.dtd">
<svg version="1.1" id="Layer_1" xmlns="http://www.w3.org/2000/svg" xmlns:xlink="http://www.w3.org/1999/xlink" x="0px" y="0px"
	 width="64px" height="64px" viewBox="0 0 64 64" enable-background="new 0 0 64 64" xml:space="preserve">
<g>
	<g>
		<g>
			<g>
				<g>
					<g>
						<g>
							<path fill="#F7910B" d="M62.3,38.6c0,13-11.9,23.5-30.3,23.5c-18.4,0-30.3-10.5-30.3-23.5c0-13,11.9-32.5,30.3-32.5
								C50.4,6.1,62.3,25.6,62.3,38.6z"/>
						</g>
						<g>
							<path fill="#F7910B" d="M62.3,38.6c0,13-11.9,19.5-30.3,19.5c-18.4,0-30.3-6.5-30.3-19.5c0-13,11.9-34.5,30.3-34.5
								C50.4,4.1,62.3,25.6,62.3,38.6z"/>
						</g>
						<g>
							<path fill="#F9A908" d="M32,4.1c18.4,0,30.3,21.5,30.3,34.5c0,13-11.9,19.5-30.3,19.5"/>
						</g>
						<g>
							<path fill="#F9A908" d="M62.3,38.6c0,13-11.9,19.5-30.3,19.5c-18.4,0-30.3-6.5-30.3-19.5c0-13,11.9-32.5,30.3-32.5
								C50.4,6.1,62.3,25.6,62.3,38.6z"/>
						</g>
						<g>
							<path fill="#F9C55D" d="M1.7,38.6c0-13,11.9-32.5,30.3-32.5"/>
						</g>
						<g>
							<path fill="#F7910B" d="M32,6.1c18.4,0,30.3,19.5,30.3,32.5c0,13-11.9,23.5-30.3,23.5"/>
						</g>
						<g>
							<path fill="#EA7103" d="M32,6.1c18.4,0,30.3,19.5,30.3,32.5"/>
						</g>
						<g>
							<g>
								<ellipse fill="#EA7103" cx="21.6" cy="27.7" rx="3.2" ry="2"/>
							</g>
							<g>
								<ellipse fill="#EA7103" cx="42.4" cy="27.7" rx="3.2" ry="2"/>
							</g>
							<g>
								<ellipse fill="#1E4784" cx="21.6" cy="27.1" rx="3.2" ry="2"/>
							</g>
							<g>
								<path fill="#00233F" d="M21.6,25.2c1.8,0,3.2,0.9,3.2,2c0,1.1-1.4,2-3.2,2"/>
							</g>
							<g>
								<ellipse fill="#1E4784" cx="42.4" cy="27.1" rx="3.2" ry="2"/>
							</g>
							<g>
								<path fill="#00233F" d="M42.4,25.2c1.8,0,3.2,0.9,3.2,2c0,1.1-1.4,2-3.2,2"/>
							</g>
						</g>
						<g>
							<g>
								<g>
									<g>
										<g>
											<g>
												<path fill="#19BCA4" d="M25.6,17c0.4,0.8-1.2,1-2.8,1.7c-1.6,0.8-2.8,1.8-3.2,1c-0.4-0.8,0.7-2,2.3-2.8
													C23.6,16.2,25.2,16.2,25.6,17z"/>
											</g>
										</g>
									</g>
								</g>
								<g>
									<g>
										<g>
											<g>
												<path fill="#19BCA4" d="M38.2,13.2c-0.3,0.8,1.2,1,2.8,1.7c1.7,0.7,2.8,1.7,3.2,0.9c0.3-0.8-0.7-2-2.4-2.7
													C40.1,12.4,38.5,12.4,38.2,13.2z"/>
											</g>
										</g>
									</g>
								</g>
							</g>
							<g>
								<g>
									<g>
										<g>
											<g>
												<path fill="#109DA0" d="M25.6,17c0.4,0.8-1.2,1-2.8,1.7c-1.6,0.8-2.8,1.8-3.2,1"/>
											</g>
										</g>
									</g>
								</g>
								<g>
									<g>
										<g>
											<g>
												<path fill="#109DA0" d="M38.2,13.2c-0.3,0.8,1.2,1,2.8,1.7c1.7,0.7,2.8,1.7,3.2,0.9"/>
											</g>
										</g>
									</g>
								</g>
							</g>
						</g>
						<g>
							<g>
								<path fill="#F9C55D" d="M27.8,31.9c0,1.2-3.5,0.6-7.8,0.6c-4.3,0-7.8,0.6-7.8-0.6c0-1.2,3.5-2.2,7.8-2.2
									C24.3,29.7,27.8,30.7,27.8,31.9z"/>
							</g>
							<g>
								<path fill="#F9A908" d="M51.8,31.9c0,1.2-3.5,0.6-7.8,0.6s-7.8,0.6-7.8-0.6c0-1.2,3.5-2.2,7.8-2.2S51.8,30.7,51.8,31.9z"/>
							</g>
						</g>
						<g>
							<circle fill="#F7910B" cx="10.3" cy="35.5" r="0.6"/>
						</g>
						<g>
							<circle fill="#F7910B" cx="5.8" cy="37.5" r="1.1"/>
						</g>
						<g>
							<circle fill="#F7910B" cx="8.8" cy="33.5" r="0.2"/>
						</g>
						<g>
							<circle fill="#F7910B" cx="13.4" cy="35.4" r="0.2"/>
						</g>
						<g>
							<circle fill="#F9A908" cx="52.6" cy="35.9" r="0.8"/>
						</g>
						<g>
							<circle fill="#F9A908" cx="55.1" cy="37.3" r="0.2"/>
						</g>
						<g>
							<circle fill="#F9A908" cx="49.8" cy="28.5" r="0.3"/>
						</g>
						<g>
							<circle fill="#F9A908" cx="49.3" cy="40.1" r="1.3"/>
						</g>
						<g>
							<circle fill="#F9A908" cx="56.5" cy="40.2" r="0.6"/>
						</g>
						<g>
							<circle fill="#F7910B" cx="9.3" cy="39.6" r="0.5"/>
						</g>
						<g>
							<circle fill="#F7910B" cx="10.1" cy="31.2" r="0.4"/>
						</g>
						<g>
							<circle fill="#F9A908" cx="4.8" cy="17.4" r="1.1"/>
						</g>
						<g>
							<circle fill="#F9A908" cx="8" cy="13.9" r="0.6"/>
						</g>
						<g>
							<circle fill="#F9A908" cx="59.2" cy="19.8" r="0.2"/>
						</g>
						<g>
							<circle fill="#F9A908" cx="58.4" cy="16.9" r="0.8"/>
						</g>
						<g>
							<circle fill="#F9A908" cx="61" cy="17.4" r="0.5"/>
						</g>
						<g>
							<circle fill="#F9A908" cx="6" cy="20.4" r="0.6"/>
						</g>
						<g>
							<g>
								<path fill="#28C1EA" d="M1.7,39C2,52,13.8,62,32,62c18.2,0,30-10,30.3-23H1.7z"/>
							</g>
							<g>
								<path fill="#069ACE" d="M32.2,62C50.3,62,62,52,62.3,39H2"/>
							</g>
							<g>
								<path fill="#0767A8" d="M32,62.1c18.2,0,30-10.3,30.3-23"/>
							</g>
						</g>
					</g>
				</g>
			</g>
			<g>
				<g>
					<path fill="#F7910B" d="M39.4,36.7c0,2.6-3.3,4.7-7.4,4.7c-4.1,0-7.4-2.1-7.4-4.7"/>
				</g>
				<g>
					<path fill="#02243E" d="M37,37H27c-0.6,0-1-0.4-1-1s0.4-1,1-1h10c0.6,0,1,0.4,1,1S37.6,37,37,37z"/>
				</g>
			</g>
		</g>
		<g>
			<path fill="#19BCA4" d="M4.6,16.6c0,0.6,0.2,1.1,0.6,1.5c-0.1,0-0.3,0-0.4,0c-1.1,0-2,0.9-2,2c0,0.6,0.3,1.1,0.7,1.5"/>
		</g>
		<g>
			<g>
				<g>
					<g>
						<path fill="#19BCA4" d="M14.8,24c0-1.6-0.9-2.9-2.2-3.6c0-0.1,0-0.3,0-0.4c0-1.5-0.8-2.8-2.1-3.5c0.2-0.3,0.3-0.7,0.3-1.1
							c0-1.1-0.9-2-2-2c-0.9,0-1.6,0.6-1.9,1.3c-0.2-0.1-0.5-0.2-0.8-0.2c-1.1,0-2,0.9-2,2c0,0.6,0.2,1.1,0.6,1.5
							c-0.1,0-0.3,0-0.4,0c-1.1,0-2,0.9-2,2c0,0.6,0.3,1.1,0.7,1.5c-0.6,0.7-1,1.6-1,2.7c0,0.6,0.1,1.1,0.4,1.6
							c-1.1,0.7-1.9,1.9-1.9,3.4c0,1,0.4,1.9,1,2.6C1.2,32.1,1,32.6,1,33.2c0,1.1,0.9,2,2,2c1.1,0,2-0.9,2-2c0,0,0,0,0,0
							c0.8-0.1,1.6-0.4,2.2-0.9c0.4,0.2,0.9,0.3,1.4,0.3c1.7,0,3.2-1.1,3.8-2.7c0,0,0,0,0.1,0c1.1,0,2-0.9,2-2c0-0.5-0.2-1-0.5-1.4
							C14.5,25.8,14.8,24.9,14.8,24z"/>
					</g>
					<g>
						<path fill="#109DA0" d="M10.9,15.4c0-1.1-0.9-2-2-2"/>
					</g>
					<g>
						<path fill="#109DA0" d="M1.6,31.7C1.2,32.1,1,32.6,1,33.2c0,1.1,0.9,2,2,2c1.1,0,2-0.9,2-2c0,0,0,0,0,0
							c0.8-0.1,1.6-0.4,2.2-0.9c0.4,0.2,0.9,0.3,1.4,0.3c1.7,0,3.2-1.1,3.8-2.7c0,0,0,0,0.1,0c1.1,0,2-0.9,2-2c0-0.5-0.2-1-0.5-1.4
							c0.5-0.7,0.9-1.5,0.9-2.5c0-1.6-0.9-2.9-2.2-3.6c0-0.1,0-0.3,0-0.4"/>
					</g>
				</g>
				<g>
					<g>
						<circle fill="#109DA0" cx="7.5" cy="18.8" r="1"/>
					</g>
					<g>
						<circle fill="#109DA0" cx="6.3" cy="21.3" r="0.3"/>
					</g>
					<g>
						<circle fill="#109DA0" cx="5" cy="24.6" r="0.8"/>
					</g>
					<g>
						<circle fill="#109DA0" cx="9.8" cy="21" r="0.4"/>
					</g>
					<g>
						<circle fill="#109DA0" cx="9.8" cy="17.2" r="0.2"/>
					</g>
					<g>
						<circle fill="#109DA0" cx="7" cy="16.5" r="0.8"/>
					</g>
					<g>
						<circle fill="#109DA0" cx="4.9" cy="18.5" r="0.2"/>
					</g>
					<g>
						<circle fill="#109DA0" cx="3.7" cy="30.2" r="1.8"/>
					</g>
					<g>
						<circle fill="#109DA0" cx="6.5" cy="27.3" r="0.9"/>
					</g>
					<g>
						<circle fill="#109DA0" cx="9.5" cy="24.4" r="1.7"/>
					</g>
					<g>
						<circle fill="#109DA0" cx="11.7" cy="21.8" r="0.7"/>
					</g>
				</g>
				<g>
					<g>
						<circle fill="#19BCA4" cx="8.9" cy="28.2" r="0.8"/>
					</g>
					<g>
						<circle fill="#19BCA4" cx="10.7" cy="26" r="0.3"/>
					</g>
					<g>
						<circle fill="#19BCA4" cx="11.8" cy="27.9" r="0.3"/>
					</g>
					<g>
						<circle fill="#19BCA4" cx="12.5" cy="22.5" r="0.5"/>
					</g>
					<g>
						<circle fill="#19BCA4" cx="7.1" cy="30.5" r="0.6"/>
					</g>
				</g>
			</g>
			<g>
				<g>
					<g>
						<path fill="#19BCA4" d="M49.2,24c0-1.6,0.9-2.9,2.2-3.6c0-0.1,0-0.3,0-0.4c0-1.5,0.8-2.8,2.1-3.5c-0.2-0.3-0.3-0.7-0.3-1.1
							c0-1.1,0.9-2,2-2c0.9,0,1.6,0.6,1.9,1.3c0.2-0.1,0.5-0.2,0.8-0.2c1.1,0,2,0.9,2,2c0,0.6-0.2,1.1-0.6,1.5c0.1,0,0.3,0,0.4,0
							c1.1,0,2,0.9,2,2c0,0.6-0.3,1.1-0.7,1.5c0.6,0.7,1,1.6,1,2.7c0,0.6-0.1,1.1-0.4,1.6c1.1,0.7,1.9,1.9,1.9,3.4
							c0,1-0.4,1.9-1,2.6c0.4,0.4,0.6,0.9,0.6,1.4c0,1.1-0.9,2-2,2c-1.1,0-2-0.9-2-2c0,0,0,0,0,0c-0.8-0.1-1.6-0.4-2.2-0.9
							c-0.4,0.2-0.9,0.3-1.4,0.3c-1.7,0-3.2-1.1-3.8-2.7c0,0,0,0-0.1,0c-1.1,0-2-0.9-2-2c0-0.5,0.2-1,0.5-1.4
							C49.5,25.8,49.2,24.9,49.2,24z"/>
					</g>
					<g>
						<path fill="#109DA0" d="M53.1,15.4c0-1.1,0.9-2,2-2"/>
					</g>
					<g>
						<path fill="#109DA0" d="M62.4,31.7c0.4,0.4,0.6,0.9,0.6,1.4c0,1.1-0.9,2-2,2c-1.1,0-2-0.9-2-2c0,0,0,0,0,0
							c-0.8-0.1-1.6-0.4-2.2-0.9c-0.4,0.2-0.9,0.3-1.4,0.3c-1.7,0-3.2-1.1-3.8-2.7c0,0,0,0-0.1,0c-1.1,0-2-0.9-2-2
							c0-0.5,0.2-1,0.5-1.4c-0.5-0.7-0.9-1.5-0.9-2.5c0-1.6,0.9-2.9,2.2-3.6c0-0.1,0-0.3,0-0.4"/>
					</g>
				</g>
				<g>
					<g>
						<circle fill="#109DA0" cx="56.5" cy="18.8" r="1"/>
					</g>
					<g>
						<circle fill="#109DA0" cx="57.7" cy="21.3" r="0.3"/>
					</g>
					<g>
						<circle fill="#109DA0" cx="59" cy="24.6" r="0.8"/>
					</g>
					<g>
						<circle fill="#109DA0" cx="54.2" cy="21" r="0.4"/>
					</g>
					<g>
						<circle fill="#109DA0" cx="54.2" cy="17.2" r="0.2"/>
					</g>
					<g>
						<circle fill="#109DA0" cx="57" cy="16.5" r="0.8"/>
					</g>
					<g>
						<circle fill="#109DA0" cx="59.1" cy="18.5" r="0.2"/>
					</g>
					<g>
						<circle fill="#109DA0" cx="60.3" cy="30.2" r="1.8"/>
					</g>
					<g>
						<circle fill="#109DA0" cx="57.5" cy="27.3" r="0.9"/>
					</g>
					<g>
						<circle fill="#109DA0" cx="54.5" cy="24.4" r="1.7"/>
					</g>
					<g>
						<circle fill="#109DA0" cx="52.3" cy="21.8" r="0.7"/>
					</g>
				</g>
				<g>
					<g>
						<circle fill="#19BCA4" cx="55.1" cy="28.2" r="0.8"/>
					</g>
					<g>
						<circle fill="#19BCA4" cx="53.3" cy="26" r="0.3"/>
					</g>
					<g>
						<circle fill="#19BCA4" cx="52.2" cy="27.9" r="0.3"/>
					</g>
					<g>
						<circle fill="#19BCA4" cx="51.5" cy="22.5" r="0.5"/>
					</g>
					<g>
						<circle fill="#19BCA4" cx="56.9" cy="30.5" r="0.6"/>
					</g>
				</g>
			</g>
		</g>
		<g>
			<g>
				<path fill="#DB4340" d="M48.5,37.3c0,7-7.4,12.6-16.5,12.6c-9.1,0-16.5-5.6-16.5-12.6c0-7,7.4-3.8,16.5-3.8
					C41.1,33.5,48.5,30.3,48.5,37.3z"/>
			</g>
			<g>
				<path fill="#B51504" d="M32,33.5c9.1,0,16.5-3.1,16.5,3.8c0,7-7.4,12.6-16.5,12.6"/>
			</g>
			<g>
				<path fill="#DAEDEA" d="M43.4,39c0,4.8-5.1,8.7-11.4,8.7c-6.3,0-11.4-3.9-11.4-8.7c0-4.8,5.1-2.6,11.4-2.6
					C38.3,36.4,43.4,34.2,43.4,39z"/>
			</g>
			<g>
				<ellipse fill="#F7549E" cx="32" cy="30.1" rx="7.1" ry="6.5"/>
			</g>
			<g>
				<path fill="#E0388D" d="M32,23.5c3.9,0,7.1,2.9,7.1,6.5c0,3.6-3.2,6.5-7.1,6.5"/>
			</g>
			<g>
				<ellipse fill="#F99DCB" cx="28.8" cy="28.2" rx="2.6" ry="2.4"/>
			</g>
			<g>
				<path fill="#A7C6C0" d="M21.3,42c1.6,3.4,5.9,5.7,10.7,5.7c4.8,0,9-2.2,10.7-5.7H21.3z"/>
			</g>
		</g>
		<g>
			<path fill="#28C1EA" d="M25.9,8c0-3.4,2.7-6.1,6.1-6.1c3.4,0,6.1,2.7,6.1,6.1H25.9z"/>
		</g>
		<g>
			<path fill="#069ACE" d="M32,1.9c3.4,0,6,2.7,6,6.1H26"/>
		</g>
	</g>
	<g>
		<g>
			<circle fill="#DB4340" cx="32" cy="52.9" r="1.2"/>
		</g>
		<g>
			<circle fill="#DB4340" cx="32" cy="57.9" r="1.2"/>
		</g>
	</g>
</g>
</svg>
