<?xml version="1.0" encoding="utf-8"?>
<!-- Generator: Adobe Illustrator 16.0.0, SVG Export Plug-In . SVG Version: 6.00 Build 0)  -->
<!DOCTYPE svg PUBLIC "-//W3C//DTD SVG 1.1//EN" "http://www.w3.org/Graphics/SVG/1.1/DTD/svg11.dtd">
<svg version="1.1" id="Layer_1" xmlns="http://www.w3.org/2000/svg" xmlns:xlink="http://www.w3.org/1999/xlink" x="0px" y="0px"
	 width="64px" height="64px" viewBox="0 0 64 64" enable-background="new 0 0 64 64" xml:space="preserve">
<g>
	<g>
		<g>
			<g>
				<g>
					<g>
						<g>
							<circle fill="#063F66" cx="32" cy="32" r="27.1"/>
							<path fill="#022730" d="M12.8,12.9c10.6-10.6,27.7-10.6,38.3,0c10.6,10.6,10.6,27.7,0,38.3"/>
						</g>
					</g>
				</g>
			</g>
		</g>
		<g>
			<ellipse fill="#DCF9F6" cx="19.5" cy="51" rx="0.2" ry="2.3"/>
			<ellipse fill="#DCF9F6" cx="19.5" cy="51" rx="2.3" ry="0.2"/>
		</g>
		<g>
			
				<ellipse transform="matrix(0.7071 0.7071 -0.7071 0.7071 30.0186 -29.9253)" fill="#DCF9F6" cx="51.1" cy="21.3" rx="0.2" ry="2.3"/>
			
				<ellipse transform="matrix(-0.7071 0.7071 -0.7071 -0.7071 102.3306 0.1592)" fill="#DCF9F6" cx="51.1" cy="21.3" rx="0.2" ry="2.3"/>
		</g>
		<g>
			<ellipse fill="#DCF9F6" cx="44.6" cy="14.1" rx="0.1" ry="1"/>
			<ellipse fill="#DCF9F6" cx="44.6" cy="14.1" rx="1" ry="0.1"/>
		</g>
		<g>
			<ellipse transform="matrix(0.705 -0.7092 0.7092 0.705 -4.223 21.9705)" fill="#DCF9F6" cx="24.3" cy="16.1" rx="0.1" ry="1.1"/>
			
				<ellipse transform="matrix(0.705 0.7092 -0.7092 0.705 18.5587 -12.4944)" fill="#DCF9F6" cx="24.3" cy="16.1" rx="0.1" ry="1.1"/>
		</g>
		<g>
			
				<ellipse transform="matrix(0.705 -0.7092 0.7092 0.705 -27.0141 24.1033)" fill="#DCF9F6" cx="15.5" cy="44.5" rx="0.1" ry="1.1"/>
			<ellipse transform="matrix(0.705 0.7092 -0.7092 0.705 36.1392 2.1661)" fill="#DCF9F6" cx="15.5" cy="44.5" rx="0.1" ry="1.1"/>
		</g>
		<g>
			
				<ellipse transform="matrix(0.7113 0.7029 -0.7029 0.7113 20.0888 -22.8108)" fill="#DCF9F6" cx="37.8" cy="13" rx="0.1" ry="0.5"/>
			
				<ellipse transform="matrix(-0.7113 0.7029 -0.7029 -0.7113 73.8779 -4.2488)" fill="#DCF9F6" cx="37.8" cy="13" rx="0.1" ry="0.5"/>
		</g>
		<g>
			
				<ellipse transform="matrix(0.7113 0.7029 -0.7029 0.7113 45.676 -4.4861)" fill="#DCF9F6" cx="28.3" cy="53.4" rx="0.1" ry="0.5"/>
			
				<ellipse transform="matrix(-0.7113 0.7029 -0.7029 -0.7113 85.9327 71.4179)" fill="#DCF9F6" cx="28.3" cy="53.4" rx="0.1" ry="0.5"/>
		</g>
	</g>
	<g>
		<g>
			<g>
				<path fill="#5EE0EA" d="M24.8,8.2c-1,1-2.7,0.9-3.7-0.1c-1-1-1.1-2.7-0.1-3.7c1-1,4.9-3.2,5.9-2.1C28,3.3,25.8,7.2,24.8,8.2z"/>
				<path fill="#30B9D8" d="M26.9,2.2c1.1,1.1-1.1,4.9-2.1,5.9c-1,1-2.7,0.9-3.7-0.1"/>
			</g>
			<g>
				<path fill="#5EE0EA" d="M33.5,16.9c-1,1-2.7,0.9-3.7-0.1c-1-1-1.1-2.7-0.1-3.7s4.9-3.2,5.9-2.1C36.7,12,34.5,15.9,33.5,16.9z"/>
				<path fill="#30B9D8" d="M35.6,10.9c1.1,1.1-1.1,4.9-2.1,5.9c-1,1-2.7,0.9-3.7-0.1"/>
			</g>
			<g>
				<path fill="#5EE0EA" d="M42.2,25.6c-1,1-2.7,0.9-3.7-0.1c-1-1-1.1-2.7-0.1-3.7c1-1,4.9-3.2,5.9-2.1
					C45.4,20.7,43.2,24.6,42.2,25.6z"/>
				<path fill="#30B9D8" d="M44.3,19.7c1.1,1-1.1,4.9-2.1,5.9c-1,1-2.7,0.9-3.7-0.1"/>
			</g>
			<g>
				<path fill="#5EE0EA" d="M50.9,34.3c-1,1-2.7,0.9-3.7-0.1c-1.1-1.1-1.1-2.7-0.1-3.7c1-1,4.9-3.2,5.9-2.1
					C54.1,29.4,51.9,33.3,50.9,34.3z"/>
				<path fill="#30B9D8" d="M53,28.4c1.1,1.1-1.1,4.9-2.1,5.9c-1,1-2.7,0.9-3.7-0.1"/>
			</g>
			<g>
				<path fill="#5EE0EA" d="M59.6,43c-1,1-2.6,0.9-3.7-0.1c-1.1-1.1-1.1-2.7-0.1-3.7c1-1,4.9-3.2,5.9-2.1C62.8,38.1,60.6,42,59.6,43
					z"/>
				<path fill="#30B9D8" d="M61.8,37.1c1.1,1.1-1.1,4.9-2.1,5.9c-1,1-2.6,0.9-3.7-0.1"/>
			</g>
		</g>
		<g>
			<g>
				<path fill="#5EE0EA" d="M19.4,21.1c-1,1-2.7,0.9-3.7-0.1c-1-1-1.1-2.7-0.1-3.7c1-1,4.9-3.2,5.9-2.1
					C22.6,16.2,20.4,20.1,19.4,21.1z"/>
				<path fill="#30B9D8" d="M21.5,15.2c1.1,1.1-1.1,4.9-2.1,5.9c-1,1-2.7,0.9-3.7-0.1"/>
			</g>
			<g>
				<path fill="#5EE0EA" d="M11.4,13.1c-1,1-2.7,0.9-3.7-0.1c-1-1-1.1-2.7-0.1-3.7c1-1,4.9-3.2,5.9-2.1
					C14.6,8.2,12.4,12.1,11.4,13.1z"/>
				<path fill="#30B9D8" d="M13.5,7.2c1.1,1.1-1.1,4.9-2.1,5.9c-1,1-2.7,0.9-3.7-0.1"/>
			</g>
			<g>
				<path fill="#5EE0EA" d="M28.1,29.8c-1,1-2.7,0.9-3.7-0.1c-1.1-1.1-1.1-2.7-0.1-3.7c1-1,4.9-3.2,5.9-2.1
					C31.3,25,29.1,28.8,28.1,29.8z"/>
				<path fill="#30B9D8" d="M30.2,23.9c1.1,1.1-1.1,4.9-2.1,5.9c-1,1-2.7,0.9-3.7-0.1"/>
			</g>
			<g>
				<path fill="#5EE0EA" d="M36.8,38.5c-1,1-2.7,0.9-3.7-0.1c-1-1.1-1.1-2.7-0.1-3.7c1-1,4.9-3.2,5.9-2.1
					C40,33.7,37.8,37.5,36.8,38.5z"/>
				<path fill="#30B9D8" d="M39,32.6c1.1,1.1-1.1,4.9-2.1,5.9c-1,1-2.7,0.9-3.7-0.1"/>
			</g>
			<g>
				<path fill="#5EE0EA" d="M45.6,47.2c-1,1-2.7,0.9-3.7-0.1s-1.1-2.7-0.1-3.7c1-1,4.9-3.2,5.9-2.1C48.7,42.4,46.5,46.2,45.6,47.2z"
					/>
				<path fill="#30B9D8" d="M47.7,41.3c1.1,1-1.1,4.9-2.1,5.9c-1,1-2.7,0.9-3.7-0.1"/>
			</g>
			<g>
				<path fill="#5EE0EA" d="M54.3,55.9c-1,1-2.7,1-3.7-0.1c-1.1-1-1.1-2.7-0.1-3.7c1-1,4.9-3.2,5.9-2.1
					C57.4,51.1,55.2,54.9,54.3,55.9z"/>
				<path fill="#30B9D8" d="M56.4,50c1.1,1.1-1.1,4.9-2.1,5.9c-1,1-2.7,1-3.7-0.1"/>
			</g>
		</g>
		<g>
			<g>
				<path fill="#5EE0EA" d="M6.5,26.5c-1,1-2.7,0.9-3.7-0.1c-1-1.1-1.1-2.7-0.1-3.7c1-1,4.9-3.2,5.9-2.1C9.7,21.6,7.5,25.5,6.5,26.5
					z"/>
				<path fill="#30B9D8" d="M8.6,20.6c1.1,1.1-1.1,4.9-2.1,5.9c-1,1-2.7,0.9-3.7-0.1"/>
			</g>
			<g>
				<path fill="#5EE0EA" d="M15.2,35.2c-1,1-2.7,0.9-3.7-0.1c-1.1-1.1-1.1-2.7-0.1-3.7c1-1,4.9-3.2,5.9-2.1
					C18.4,30.3,16.2,34.2,15.2,35.2z"/>
				<path fill="#30B9D8" d="M17.3,29.3c1.1,1.1-1.1,4.9-2.1,5.9c-1,1-2.7,0.9-3.7-0.1"/>
			</g>
			<g>
				<path fill="#5EE0EA" d="M23.9,43.9c-1,1-2.7,0.9-3.7-0.1c-1.1-1-1.1-2.7-0.1-3.7S25,36.9,26,38C27.1,39,24.9,42.9,23.9,43.9z"/>
				<path fill="#30B9D8" d="M26,38c1.1,1.1-1.1,4.9-2.1,5.9c-1,1-2.7,0.9-3.7-0.1"/>
			</g>
			<g>
				<path fill="#5EE0EA" d="M32.6,52.6c-1,1-2.7,0.9-3.7-0.1c-1.1-1.1-1.1-2.7-0.1-3.7s4.9-3.2,5.9-2.1
					C35.8,47.7,33.6,51.6,32.6,52.6z"/>
				<path fill="#30B9D8" d="M34.7,46.7c1.1,1.1-1.1,4.9-2.1,5.9c-1,1-2.7,0.9-3.7-0.1"/>
			</g>
			<g>
				<path fill="#5EE0EA" d="M41.3,61.3c-1,1-2.7,1-3.7-0.1c-1-1-1.1-2.7-0.1-3.7s4.9-3.2,5.9-2.1C44.5,56.5,42.3,60.3,41.3,61.3z"/>
				<path fill="#30B9D8" d="M43.4,55.4c1.1,1.1-1.1,4.9-2.1,5.9c-1,1-2.7,1-3.7-0.1"/>
			</g>
		</g>
	</g>
</g>
</svg>
