<?xml version="1.0" encoding="utf-8"?>
<!-- Generator: Adobe Illustrator 16.0.0, SVG Export Plug-In . SVG Version: 6.00 Build 0)  -->
<!DOCTYPE svg PUBLIC "-//W3C//DTD SVG 1.1//EN" "http://www.w3.org/Graphics/SVG/1.1/DTD/svg11.dtd">
<svg version="1.1" id="Layer_1" xmlns="http://www.w3.org/2000/svg" xmlns:xlink="http://www.w3.org/1999/xlink" x="0px" y="0px"
	 width="64px" height="64px" viewBox="0 0 64 64" enable-background="new 0 0 64 64" xml:space="preserve">
<g>
	<g>
		<g>
			<g>
				<path fill="#F7910B" d="M61.5,37.5c0,12.6-11.6,22.9-29.5,22.9c-17.9,0-29.5-10.2-29.5-22.9S14.1,5.9,32,5.9
					C49.9,5.9,61.5,24.9,61.5,37.5z"/>
			</g>
			<g>
				<path fill="#F7910B" d="M61.5,37.5c0,12.6-11.6,19-29.5,19c-17.9,0-29.5-6.3-29.5-19S14.1,4,32,4C49.9,4,61.5,24.9,61.5,37.5z"
					/>
			</g>
			<g>
				<path fill="#F9A908" d="M32,4c17.9,0,29.5,20.9,29.5,33.6s-11.6,19-29.5,19"/>
			</g>
			<g>
				<path fill="#F9A908" d="M61.5,37.5c0,12.6-11.6,19-29.5,19c-17.9,0-29.5-6.3-29.5-19S14.1,5.9,32,5.9
					C49.9,5.9,61.5,24.9,61.5,37.5z"/>
			</g>
			<g>
				<path fill="#F9C55D" d="M2.5,37.5C2.5,24.9,14.1,5.9,32,5.9"/>
			</g>
			<g>
				<path fill="#F7910B" d="M32,5.9c17.9,0,29.5,19,29.5,31.6S49.9,60.4,32,60.4"/>
			</g>
			<g>
				<path fill="#EA7103" d="M32,5.9c17.9,0,29.5,19,29.5,31.6"/>
			</g>
			<g>
				<g>
					<g>
						<g>
							<g>
								<g>
									<path fill="#19BCA4" d="M26.1,15.9c0.2,0.8-1.3,0.8-3,1.2c-1.7,0.5-3,1.2-3.2,0.4c-0.2-0.8,1-1.9,2.7-2.3
										C24.3,14.8,25.9,15.1,26.1,15.9z"/>
								</g>
							</g>
						</g>
					</g>
					<g>
						<g>
							<g>
								<g>
									<path fill="#109DA0" d="M26.1,15.9c0.2,0.8-1.3,0.8-3,1.2c-1.7,0.5-3,1.2-3.2,0.4"/>
								</g>
							</g>
						</g>
					</g>
				</g>
				<g>
					<g>
						<g>
							<g>
								<g>
									<path fill="#19BCA4" d="M38,12.9c-0.3,0.8,1.1,0.9,2.8,1.6c1.6,0.7,2.8,1.7,3.1,0.9c0.3-0.8-0.7-2-2.3-2.7
										C39.9,12.1,38.4,12.2,38,12.9z"/>
								</g>
							</g>
						</g>
					</g>
					<g>
						<g>
							<g>
								<g>
									<path fill="#109DA0" d="M38,12.9c-0.3,0.8,1.1,0.9,2.8,1.6c1.6,0.7,2.8,1.7,3.1,0.9"/>
								</g>
							</g>
						</g>
					</g>
				</g>
			</g>
			<g>
				<circle fill="#F7910B" cx="10.9" cy="34.6" r="0.6"/>
			</g>
			<g>
				<circle fill="#F7910B" cx="6.6" cy="36.5" r="1.1"/>
			</g>
			<g>
				<circle fill="#F7910B" cx="9.5" cy="32.6" r="0.2"/>
			</g>
			<g>
				<circle fill="#F7910B" cx="13.9" cy="34.4" r="0.2"/>
			</g>
			<g>
				<circle fill="#F9A908" cx="52" cy="34.9" r="0.7"/>
			</g>
			<g>
				<circle fill="#F9A908" cx="54.4" cy="36.3" r="0.2"/>
			</g>
			<g>
				<circle fill="#F9A908" cx="49.3" cy="27.7" r="0.3"/>
			</g>
			<g>
				<circle fill="#F9A908" cx="48.8" cy="39" r="1.3"/>
			</g>
			<g>
				<circle fill="#F9A908" cx="55.8" cy="39.1" r="0.6"/>
			</g>
			<g>
				<circle fill="#F7910B" cx="10" cy="38.5" r="0.5"/>
			</g>
			<g>
				<circle fill="#F7910B" cx="10.7" cy="30.3" r="0.4"/>
			</g>
			<g>
				<circle fill="#F9A908" cx="5.6" cy="17" r="1.1"/>
			</g>
			<g>
				<circle fill="#F9A908" cx="8.7" cy="13.5" r="0.5"/>
			</g>
			<g>
				<circle fill="#F9A908" cx="58.5" cy="19.3" r="0.2"/>
			</g>
			<g>
				<g>
					<g>
						<path fill="#D87703" d="M44.9,26.1c0,1.9-1.5,3.4-3.4,3.4c-1.9,0-3.4-1.5-3.4-3.4s1.5-3.4,3.4-3.4
							C43.4,22.7,44.9,24.2,44.9,26.1z"/>
					</g>
					<g>
						<path fill="#1E4784" d="M44.9,25.1c0,1.9-1.5,3.4-3.4,3.4c-1.9,0-3.4-1.5-3.4-3.4c0-1.9,1.5-3.4,3.4-3.4
							C43.4,21.7,44.9,23.2,44.9,25.1z"/>
					</g>
					<g>
						<path fill="#00233F" d="M41.5,21.7c1.9,0,3.4,1.5,3.4,3.4c0,1.9-1.5,3.4-3.4,3.4"/>
					</g>
				</g>
			</g>
			<g>
				<g>
					<g>
						<circle fill="#D87703" cx="22.9" cy="26.1" r="3.4"/>
					</g>
					<g>
						<circle fill="#1E4784" cx="22.9" cy="25.1" r="3.4"/>
					</g>
					<g>
						<path fill="#00233F" d="M22.9,21.7c1.9,0,3.4,1.5,3.4,3.4c0,1.9-1.5,3.4-3.4,3.4"/>
					</g>
				</g>
			</g>
			<g>
				<circle fill="#F9A908" cx="57.7" cy="16.4" r="0.8"/>
			</g>
			<g>
				<circle fill="#F9A908" cx="60.2" cy="17" r="0.5"/>
			</g>
			<g>
				<circle fill="#F9A908" cx="6.7" cy="19.8" r="0.5"/>
			</g>
			<g>
				<g>
					<path fill="#F9C55D" d="M27.9,31c0,1.2-3.4,0.6-7.6,0.6c-4.2,0-7.6,0.6-7.6-0.6c0-1.2,3.4-2.2,7.6-2.2
						C24.5,28.9,27.9,29.8,27.9,31z"/>
				</g>
				<g>
					<path fill="#F9A908" d="M51.2,31c0,1.2-3.4,0.6-7.6,0.6c-4.2,0-7.6,0.6-7.6-0.6c0-1.2,3.4-2.2,7.6-2.2
						C47.8,28.9,51.2,29.8,51.2,31z"/>
				</g>
			</g>
		</g>
		<g>
			<g>
				<path fill="#1E4784" d="M2.5,38C2.8,50.7,14.3,60.4,32,60.4S61.2,50,61.5,38H2.5z"/>
			</g>
			<g>
				<path fill="#00233F" d="M32.2,60.4c17.7,0,29.1-10.2,29.2-22.4H3"/>
			</g>
			<g>
				<path fill="#FFFBEE" d="M32,60.4c3.1,0,6-0.1,8.6-0.6l-4-19.8h-9.2l-4,19.8C26,60.3,28.9,60.4,32,60.4z"/>
			</g>
		</g>
	</g>
	<g>
		
			<rect x="27.3" y="33.3" transform="matrix(0.707 -0.7072 0.7072 0.707 -17.4527 33.7476)" fill="#F7910B" width="9.4" height="9.4"/>
	</g>
	<g>
		<path fill="#02243E" d="M36,37h-8c-0.6,0-1-0.4-1-1s0.4-1,1-1h8c0.6,0,1,0.4,1,1S36.6,37,36,37z"/>
	</g>
	<g>
		<path fill="#FFFBEE" d="M54,45c0,0.5-0.4,1-1,1H45c-0.5,0-1-0.4-1-1V45c0-0.5,0.4-1,1-1H53C53.6,44,54,44.4,54,45L54,45z"/>
	</g>
	<g>
		<g>
			<polygon fill="#0C537A" points="29.5,42.3 30.8,44.3 28.8,60.4 31.1,63 32,63 32,40.8 			"/>
		</g>
		<g>
			<polygon fill="#00233F" points="34.5,42.3 33.2,44.3 35.2,60.4 32.9,63 32,63 32,40.8 			"/>
		</g>
	</g>
	<g>
		<polygon fill="#00233F" points="37,8 27,8 27,0.6 29.4,3 37,3 		"/>
	</g>
</g>
</svg>
