<?xml version="1.0" encoding="utf-8"?>
<!-- Generator: Adobe Illustrator 16.0.0, SVG Export Plug-In . SVG Version: 6.00 Build 0)  -->
<!DOCTYPE svg PUBLIC "-//W3C//DTD SVG 1.1//EN" "http://www.w3.org/Graphics/SVG/1.1/DTD/svg11.dtd">
<svg version="1.1" id="Layer_1" xmlns="http://www.w3.org/2000/svg" xmlns:xlink="http://www.w3.org/1999/xlink" x="0px" y="0px"
	 width="64px" height="64px" viewBox="0 0 64 64" enable-background="new 0 0 64 64" xml:space="preserve">
<g>
	<g>
		<polygon fill="#EF683F" points="51.4,22 63.5,34.3 32,62.1 0.5,34.3 12.6,22 		"/>
		<polygon fill="#EF683F" points="51.4,22 63.5,34.3 32,62.1 0.5,34.3 12.6,22 		"/>
		<polyline fill="#E84621" points="63.5,34.2 32,62.1 0.5,34.2 		"/>
		<polygon fill="#EF683F" points="51.4,22 50.5,34.3 32,62.1 14.5,34.3 12.6,22 		"/>
		<polygon fill="#EA1F0A" points="51.4,22 50.5,34.3 32,22 14.5,34.3 12.6,22 		"/>
		<polyline fill="#AA2011" points="50.5,34.2 32,62.1 14.5,34.2 		"/>
		<g>
			<polyline fill="#EDA785" points="6.8,34.2 32,62.1 0.5,34.3 12.6,22 			"/>
			<polyline fill="#AA2011" points="57.2,34.2 32,62.1 63.4,34.2 51.4,22 			"/>
		</g>
	</g>
	<g>
		<polyline fill="#E84621" points="27.5,13.8 32.1,1.9 36.5,13.8 		"/>
		<polyline fill="#AA2011" points="31.6,13.8 32.1,1.9 36.5,13.8 		"/>
	</g>
	<g>
		<g>
			<polyline fill="#E84621" points="14.8,19.3 12.4,6.8 22.4,14.5 			"/>
			<polyline fill="#AA2011" points="18.3,17.1 12.4,6.8 22.4,14.5 			"/>
		</g>
		<g>
			<polyline fill="#E84621" points="49.2,19.3 51.6,6.8 41.6,14.5 			"/>
			<polyline fill="#AA2011" points="45.7,17.1 51.6,6.8 41.6,14.5 			"/>
		</g>
	</g>
</g>
</svg>
