<?xml version="1.0" encoding="utf-8"?>
<!-- Generator: Adobe Illustrator 16.0.0, SVG Export Plug-In . SVG Version: 6.00 Build 0)  -->
<!DOCTYPE svg PUBLIC "-//W3C//DTD SVG 1.1//EN" "http://www.w3.org/Graphics/SVG/1.1/DTD/svg11.dtd">
<svg version="1.1" xmlns="http://www.w3.org/2000/svg" xmlns:xlink="http://www.w3.org/1999/xlink" x="0px" y="0px" width="65px"
	 height="65px" viewBox="0 0 65 65" enable-background="new 0 0 65 65" xml:space="preserve">
<g id="Layer_1">
	<g>
		<g>
			<g>
				<g>
					<circle fill="#398284" cx="39.748" cy="11.501" r="1.062"/>
				</g>
				<g>
					<circle fill="#398284" cx="36.875" cy="14.375" r="1.062"/>
				</g>
				<g>
					<circle fill="#398284" cx="34.002" cy="17.247" r="1.062"/>
				</g>
			</g>
			<g>
				<g>
					<circle fill="#398284" cx="30.998" cy="47.752" r="1.062"/>
				</g>
				<g>
					<circle fill="#398284" cx="28.126" cy="50.625" r="1.063"/>
				</g>
				<g>
					<circle fill="#398284" cx="25.254" cy="53.498" r="1.062"/>
				</g>
			</g>
		</g>
		<g>
			<g>
				<g>
					<g>
						<path fill="#E6ED9D" d="M3.751,32.499c0-15.875,12.873-28.748,28.748-28.748"/>
					</g>
					<g>
						<path fill="#398284" d="M3.751,34.999c-1.381,0-2.5-1.119-2.5-2.5c0-17.23,14.018-31.248,31.248-31.248
							c1.381,0,2.5,1.119,2.5,2.5s-1.119,2.5-2.5,2.5c-14.475,0-26.248,11.774-26.248,26.248C6.251,33.88,5.132,34.999,3.751,34.999
							z"/>
					</g>
				</g>
				<g>
					<g>
						<path fill="#E6ED9D" d="M61.249,32.499c0,15.877-12.871,28.75-28.75,28.75"/>
					</g>
					<g>
						<path fill="#398284" d="M32.499,63.749c-1.381,0-2.5-1.119-2.5-2.5s1.119-2.5,2.5-2.5c14.475,0,26.25-11.775,26.25-26.25
							c0-1.381,1.119-2.5,2.5-2.5s2.5,1.119,2.5,2.5C63.749,49.73,49.73,63.749,32.499,63.749z"/>
					</g>
				</g>
			</g>
			<g>
				<g>
					<line fill="#E6ED9D" x1="5.636" y1="59.364" x2="59.364" y2="5.638"/>
				</g>
				<g>
					<path fill="#398284" d="M5.636,61.864c-0.64,0-1.279-0.244-1.768-0.732c-0.977-0.977-0.977-2.56,0-3.535L57.597,3.87
						c0.977-0.977,2.559-0.977,3.535,0s0.977,2.56,0,3.535L7.403,61.132C6.915,61.62,6.275,61.864,5.636,61.864z"/>
				</g>
			</g>
		</g>
	</g>
</g>
<g id="nyt_x5F_exporter_x5F_info" display="none">
</g>
</svg>
