<?xml version="1.0" encoding="utf-8"?>
<!-- Generator: Adobe Illustrator 16.0.0, SVG Export Plug-In . SVG Version: 6.00 Build 0)  -->
<!DOCTYPE svg PUBLIC "-//W3C//DTD SVG 1.1//EN" "http://www.w3.org/Graphics/SVG/1.1/DTD/svg11.dtd">
<svg version="1.1" id="Layer_1" xmlns="http://www.w3.org/2000/svg" xmlns:xlink="http://www.w3.org/1999/xlink" x="0px" y="0px"
	 width="64px" height="64px" viewBox="0 0 64 64" enable-background="new 0 0 64 64" xml:space="preserve">
<g>
	<path fill="#7FD819" d="M35.7,2h-7.3C18.2,2,10,10.2,10,20.3v33.6c0,10.1,8.2,9.1,18.3,9.1h7.3C45.8,63,54,64.1,54,53.9V20.3
		C54,10.2,45.8,2,35.7,2z M32,27.5c-7.5,0-13.6-2.2-13.6-9.7S24.5,4.2,32,4.2c7.5,0,13.6,6.1,13.6,13.6S39.5,27.5,32,27.5z"/>
	<path fill="#6ACE09" d="M10,20v33.9c0,10.1,8.2,9.1,18.3,9.1h7.3C45.8,63,54,64.1,54,53.9V20.3C54,10.2,45.8,2,35.7,2H28 M32,27.5
		c-7.5,0-13.6-2.2-13.6-9.7S24.5,4.2,32,4.2c7.5,0,13.6,6.1,13.6,13.6S39.5,27.5,32,27.5z"/>
	<path fill="#43BA04" d="M35.7,2H32v2.2c8,0,13.6,6.1,13.6,13.6c0,7.5-5.6,9.7-13.6,9.7V63h3.7C45.8,63,54,64.1,54,53.9V20.3
		C54,10.2,45.8,2,35.7,2z"/>
	<circle fill="#FFB93E" cx="32" cy="3.4" r="2.5"/>
	<path fill="#E5980E" d="M32,0.9c1.4,0,2.5,1.1,2.5,2.5c0,1.4-1.1,2.5-2.5,2.5"/>
	<polygon fill="#43BA04" points="46,57.9 33.9,62 22.7,45.9 46,41.8 	"/>
	<g>
		<g>
			<path fill="#D81665" d="M32,39c-1-1.8-3-3-5.2-3c-3.2,0-5.8,2.5-5.8,5.7c0,1.1,0.3,2.2,1,3.2l0,0c0,0,0,0,0.1,0.1l10,10.8V39z"/>
			<path fill="#A3024B" d="M32,39c1-1.8,3-3,5.2-3c3.2,0,5.8,2.5,5.8,5.7c0,1.1-0.3,2.2-1,3.2l0,0c0,0,0,0-0.1,0.1L32,55.7V39z"/>
		</g>
		
			<ellipse transform="matrix(0.8416 -0.5402 0.5402 0.8416 -16.8437 19.4714)" fill="#F973B7" cx="24.8" cy="38.4" rx="3.1" ry="1.2"/>
		<circle fill="#F973B7" cx="22.5" cy="41.9" r="0.7"/>
	</g>
</g>
</svg>
