<?xml version="1.0" encoding="utf-8"?>
<!-- Generator: Adobe Illustrator 16.0.0, SVG Export Plug-In . SVG Version: 6.00 Build 0)  -->
<!DOCTYPE svg PUBLIC "-//W3C//DTD SVG 1.1//EN" "http://www.w3.org/Graphics/SVG/1.1/DTD/svg11.dtd">
<svg version="1.1" id="Layer_1" xmlns="http://www.w3.org/2000/svg" xmlns:xlink="http://www.w3.org/1999/xlink" x="0px" y="0px"
	 width="65px" height="65px" viewBox="0 0 65 65" enable-background="new 0 0 65 65" xml:space="preserve">
<g>
	<g>
		<g>
			<g>
				<g>
					<path fill="#578C19" d="M31.105,26.369c1.273,1.432,0.465,4.228-1.805,6.249c-2.27,2.018-14.475,10.794-15.75,9.365
						c-1.271-1.434,8.873-12.532,11.143-14.55C26.961,25.415,29.832,24.938,31.105,26.369z"/>
					<path fill="#578C19" d="M33.895,26.369c-1.273,1.432-0.465,4.228,1.805,6.249c2.27,2.018,14.475,10.794,15.75,9.365
						c1.271-1.434-8.873-12.532-11.143-14.55C38.039,25.415,35.168,24.938,33.895,26.369z"/>
				</g>
				<g>
					<g>
						<g>
							<g>
								<g>
									<path fill="#271654" d="M44.498,46.446c0,2.476-2.008,15.827-4.486,15.827c-2.475,0-4.482-13.352-4.482-15.827
										s2.008-4.484,4.482-4.484C42.49,41.962,44.498,43.971,44.498,46.446z"/>
									<path fill="#271654" d="M29.473,46.446c0,2.476-2.008,15.827-4.486,15.827c-2.475,0-4.482-13.352-4.482-15.827
										s2.008-4.484,4.482-4.484C27.465,41.962,29.473,43.971,29.473,46.446z"/>
									<g>
										<g>
											<path fill="#65A027" d="M45.15,40.521c0,16.038-5.662,10.697-12.65,10.697c-6.986,0-12.65,5.341-12.65-10.697
												c0-9.17,5.666-16.603,12.65-16.603C39.486,23.919,45.15,31.352,45.15,40.521z"/>
											<g>
												<path fill="#65A027" d="M21.562,54.085c0.699,3.466,1.691,6.945,2.814,7.916h1.219c1.125-0.971,2.119-4.45,2.817-7.916
													H21.562z"/>
												<path fill="#65A027" d="M36.588,54.085c0.699,3.466,1.691,6.945,2.814,7.916h1.219c1.126-0.971,2.119-4.45,2.816-7.916
													H36.588z"/>
											</g>
											<g>
												<path fill="#578C19" d="M30.033,62.354c0,1.896-2.26,2.146-5.045,2.146s-5.045-0.249-5.045-2.146
													c0-1.897,2.26-4.508,5.045-4.508S30.033,60.457,30.033,62.354z"/>
												<path fill="#46750A" d="M30.033,62.354c0,1.896-2.26,2.146-5.045,2.146s-5.045-0.249-5.045-2.146"/>
											</g>
											<g>
												<path fill="#578C19" d="M45.059,62.354c0,1.896-2.26,2.146-5.045,2.146s-5.045-0.249-5.045-2.146
													c0-1.897,2.26-4.508,5.045-4.508S45.059,60.457,45.059,62.354z"/>
												<path fill="#46750A" d="M45.059,62.354c0,1.896-2.26,2.146-5.045,2.146s-5.045-0.249-5.045-2.146"/>
											</g>
											<g>
												<path fill="#65A027" d="M48.871,16.275c0,7.999-7.33,12.02-16.369,12.02c-9.041,0-16.373-4.021-16.373-12.02
													c0-8.001,7.332-15.775,16.373-15.775C41.541,0.5,48.871,8.274,48.871,16.275z"/>
												<path fill="#578C19" d="M48.871,16.275c0,7.999-7.33,12.745-16.369,12.745c-9.041,0-16.373-4.746-16.373-12.745"/>
											</g>
										</g>
									</g>
								</g>
							</g>
						</g>
					</g>
				</g>
			</g>
		</g>
		<g>
			<g>
				<circle fill="#113E49" cx="24.716" cy="15.917" r="1.464"/>
				<path d="M26.18,15.917c0,0.811-0.656,1.465-1.465,1.465s-1.463-0.654-1.463-1.465"/>
				<g>
					<path fill="#65A027" d="M27.604,18.971c-0.078,0-0.158-0.028-0.219-0.091c-0.715-0.714-1.664-1.107-2.672-1.107h-0.002
						c-1.008,0-1.955,0.394-2.666,1.106c-0.121,0.121-0.316,0.124-0.436,0.001c-0.121-0.117-0.125-0.312-0.004-0.434
						c0.83-0.831,1.932-1.29,3.105-1.29h0.002c1.176,0,2.279,0.456,3.111,1.288c0.119,0.119,0.119,0.318,0,0.436
						C27.764,18.942,27.686,18.971,27.604,18.971z"/>
				</g>
			</g>
			<g>
				<circle fill="#113E49" cx="40.286" cy="15.917" r="1.464"/>
				<path d="M38.822,15.917c0,0.811,0.654,1.465,1.465,1.465c0.809,0,1.463-0.654,1.463-1.465"/>
				<g>
					<path fill="#65A027" d="M37.398,18.971c0.076,0,0.156-0.028,0.217-0.091c0.715-0.714,1.664-1.107,2.672-1.107h0.002
						c1.008,0,1.957,0.394,2.668,1.106c0.119,0.121,0.314,0.124,0.436,0.001c0.121-0.117,0.123-0.312,0.002-0.434
						c-0.826-0.831-1.932-1.29-3.105-1.29h-0.002c-1.174,0-2.277,0.456-3.111,1.288c-0.117,0.119-0.117,0.318,0,0.436
						C37.238,18.942,37.316,18.971,37.398,18.971z"/>
				</g>
			</g>
		</g>
	</g>
	<path fill="#660A27" d="M36.375,25.458c0,1.104-0.896,2-2,2h-3.75c-1.105,0-2-0.896-2-2v-6.625c0-1.104,0.895-2,2-2h3.75
		c1.104,0,2,0.896,2,2V25.458z"/>
	<path fill="#890628" d="M34.375,21.083h-3.75c-1.105,0-2,0.896-2,2v2.375c0,1.104,0.895,2,2,2h3.75c1.104,0,2-0.896,2-2v-2.375
		C36.375,21.979,35.479,21.083,34.375,21.083z"/>
	<path fill="#35157C" d="M32.502,0.5c-5.418,0-10.207,2.801-13.188,6.761l5.309-1.303l0.25,1.125l2.5-1.125l1.5,1.875l1.375-2.5
		l4.125,4.75l-0.875-5.25l4.625,3.25l0.125-1.875l4.875,2.5l-0.5-2.625l3.818,2.268C43.562,3.822,38.404,0.5,32.502,0.5z"/>
	<path fill="#35157C" d="M19.977,44.208c0.865,11.458,6.141,7.011,12.523,7.011c6.385,0,11.659,4.447,12.523-7.011H19.977z"/>
</g>
</svg>
