<?xml version="1.0" encoding="utf-8"?>
<!-- Generator: Adobe Illustrator 16.0.0, SVG Export Plug-In . SVG Version: 6.00 Build 0)  -->
<!DOCTYPE svg PUBLIC "-//W3C//DTD SVG 1.1//EN" "http://www.w3.org/Graphics/SVG/1.1/DTD/svg11.dtd">
<svg version="1.1" id="Layer_1" xmlns="http://www.w3.org/2000/svg" xmlns:xlink="http://www.w3.org/1999/xlink" x="0px" y="0px"
	 width="64px" height="64px" viewBox="0 0 64 64" enable-background="new 0 0 64 64" xml:space="preserve">
<g>
	<polygon fill="#FF9906" points="57,26.2 52,16.8 47,26.2 42,16.8 38,26.2 32,9.8 26,26.2 22,16.8 17,26.2 12,16.8 7,26.2 1,14.9 
		1,52 62.9,52.2 63,14.9 	"/>
	<polygon fill="#EF880C" points="57,32.7 52,17.7 47,32.7 42,17.7 38,32.7 32,10.5 26,32.7 22,17.7 17,32.7 12,17.7 7,32.7 1,15.2 
		0.9,52.2 62.9,52 63,15.2 	"/>
	<polyline fill="#ED6E0F" points="32,52 62.9,52.2 63,15.3 57,32.7 52,17.7 47,32.7 42,17.7 38,32.7 31.9,10.4 	"/>
	<polygon fill="#DD600B" points="36.3,37.6 30.1,43.8 38.4,52 51,52 	"/>
	<polygon fill="#DD600B" points="52.3,36.4 48.1,40.6 59.6,52 62.9,52.2 62.9,47.2 	"/>
	<polygon fill="#ED690F" points="31.9,52.1 16,36.4 11.9,40.5 23.4,52 31.8,52 	"/>
	<polygon fill="#EA1F0A" points="37.9,40 32,45.9 26.1,40 32,31.4 	"/>
	<polygon fill="#FF5512" points="37.9,40 32,37.1 26.1,40 32,31.4 	"/>
	<polyline fill="#C61109" points="32,31.4 37.9,40 32,45.9 	"/>
	<g>
		<g>
			<path fill="#329908" d="M16.9,38.5c0,1.7-1.4,3-3,3c-1.7,0-3-1.4-3-3c0-1.7,1.4-3,3-3C15.6,35.5,16.9,36.9,16.9,38.5z"/>
			<path fill="#236D00" d="M16,36.4c1.2,1.2,1.2,3.1,0,4.3c-1.2,1.2-3.1,1.2-4.3,0"/>
		</g>
		<g>
			<path fill="#329908" d="M53.2,38.5c0,1.7-1.4,3-3,3c-1.7,0-3-1.4-3-3c0-1.7,1.4-3,3-3C51.8,35.5,53.2,36.9,53.2,38.5z"/>
			<path fill="#236D00" d="M52.3,36.4c1.2,1.2,1.2,3.1,0,4.3c-1.2,1.2-3.1,1.2-4.3,0"/>
		</g>
	</g>
	<path fill="#683C02" d="M62.9,52.2c0,1.1-13.9,1.9-30.9,1.9c-17.1,0-31.1-0.9-31.1-1.9c0-1.1,14-1.9,31.1-1.9
		C49.1,50.3,62.9,51.2,62.9,52.2z"/>
	<path fill="#4C2A02" d="M32,50.3c17.1,0,30.9,0.9,30.9,1.9c0,1.1-13.9,1.9-30.9,1.9"/>
</g>
</svg>
