<?xml version="1.0" encoding="utf-8"?>
<!-- Generator: Adobe Illustrator 16.0.0, SVG Export Plug-In . SVG Version: 6.00 Build 0)  -->
<!DOCTYPE svg PUBLIC "-//W3C//DTD SVG 1.1//EN" "http://www.w3.org/Graphics/SVG/1.1/DTD/svg11.dtd">
<svg version="1.1" id="Layer_1" xmlns="http://www.w3.org/2000/svg" xmlns:xlink="http://www.w3.org/1999/xlink" x="0px" y="0px"
	 width="65px" height="65px" viewBox="0 0 65 65" enable-background="new 0 0 65 65" xml:space="preserve">
<g>
	<g>
		<g>
			<g>
				<g>
					<g>
						<path fill="#49BF11" d="M33.072,31.341c-0.109,1.881-2.614,3.262-5.601,3.091c-2.981-0.177-17.579-2.561-17.471-4.442
							c0.113-1.881,14.891-2.545,17.872-2.368C30.854,27.794,33.183,29.459,33.072,31.341z"/>
					</g>
					<g>
						<path fill="#49BF11" d="M31.927,30.564c0.109-1.881,2.615-3.263,5.603-3.092c2.98,0.177,17.577,2.562,17.47,4.442
							c-0.111,1.881-14.889,2.546-17.872,2.369C34.146,34.111,31.816,32.445,31.927,30.564z"/>
					</g>
					<g>
						<path fill="#21367C" d="M29.672,46.671c0,2.435-1.976,15.569-4.414,15.569c-2.434,0-4.409-13.135-4.409-15.569
							c0-2.437,1.976-4.411,4.409-4.411C27.696,42.26,29.672,44.234,29.672,46.671z"/>
						<path fill="#21367C" d="M44.453,46.671c0,2.435-1.976,15.569-4.414,15.569c-2.434,0-4.409-13.135-4.409-15.569
							c0-2.437,1.976-4.411,4.409-4.411C42.478,42.26,44.453,44.234,44.453,46.671z"/>
					</g>
					<path fill="#49BF11" d="M45.095,40.842c0,15.778-5.57,10.523-12.445,10.523c-6.872,0-12.444,5.255-12.444-10.523
						c0-9.021,5.574-16.332,12.444-16.332C39.522,24.51,45.095,31.82,45.095,40.842z"/>
					<path fill="#1AAA0B" d="M23.381,29.971c2.623,1.191,5.816,1.794,9.271,1.794c3.453,0,6.645-0.603,9.268-1.794
						c-2.279-3.346-5.582-5.461-9.27-5.461C28.963,24.51,25.662,26.625,23.381,29.971z"/>
					<g>
						<path fill="#232221" d="M30.224,62.321c0,1.865-2.224,2.109-4.964,2.109c-2.739,0-4.963-0.244-4.963-2.109
							c0-1.868,2.224-4.435,4.963-4.435C28,57.887,30.224,60.453,30.224,62.321z"/>
						<path fill="#0F0E0D" d="M30.224,62.321c0,1.865-2.224,2.109-4.964,2.109c-2.739,0-4.963-0.244-4.963-2.109"/>
					</g>
					<g>
						<path fill="#232221" d="M45.004,62.321c0,1.865-2.223,2.109-4.963,2.109c-2.739,0-4.963-0.244-4.963-2.109
							c0-1.868,2.224-4.435,4.963-4.435C42.781,57.887,45.004,60.453,45.004,62.321z"/>
						<path fill="#0F0E0D" d="M45.004,62.321c0,1.865-2.223,2.109-4.963,2.109c-2.739,0-4.963-0.244-4.963-2.109"/>
					</g>
					<g>
						<path fill="#F9A9A0" d="M48.755,16.989c0,7.87-7.211,11.824-16.104,11.824c-8.894,0-16.106-3.954-16.106-11.824
							c0-7.869,7.213-15.519,16.106-15.519C41.544,1.471,48.755,9.12,48.755,16.989z"/>
						<path fill="#F9A9A0" d="M48.755,16.989c0,7.87-7.211,11.824-16.104,11.824c-8.894,0-16.106-3.954-16.106-11.824
							c0-7.869,7.213-9.042,16.106-9.042C41.544,7.947,48.755,9.12,48.755,16.989z"/>
						<path fill="#FF9997" d="M48.755,16.989c0,7.87-7.211,11.824-16.104,11.824c-8.894,0-16.106-3.954-16.106-11.824"/>
					</g>
					<g>
						<g>
							<circle fill="#113E49" cx="24.295" cy="15.559" r="1.44"/>
							<path d="M25.735,15.559c0,0.797-0.646,1.44-1.44,1.44c-0.796,0-1.439-0.644-1.439-1.44"/>
							<g>
								<path fill="#FFD3C5" d="M27.137,18.563c-0.077,0-0.156-0.029-0.216-0.091c-0.703-0.701-1.637-1.089-2.628-1.089H24.29
									c-0.99,0-1.923,0.388-2.622,1.089c-0.119,0.119-0.312,0.121-0.43,0c-0.118-0.115-0.121-0.308-0.002-0.427
									c0.816-0.816,1.899-1.268,3.054-1.268h0.003c1.156,0,2.241,0.447,3.06,1.267c0.117,0.117,0.117,0.312,0,0.428
									C27.294,18.534,27.217,18.563,27.137,18.563z"/>
							</g>
						</g>
						<g>
							<path fill="#113E49" d="M38.173,15.559c0,0.797,0.643,1.44,1.441,1.44c0.795,0,1.438-0.644,1.438-1.44
								c0-0.794-0.644-1.439-1.438-1.439C38.815,14.119,38.173,14.765,38.173,15.559z"/>
							<path d="M38.173,15.559c0,0.797,0.643,1.44,1.441,1.44c0.795,0,1.438-0.644,1.438-1.44"/>
							<g>
								<path fill="#FFD3C5" d="M36.772,18.563c0.073,0,0.152-0.029,0.213-0.091c0.703-0.701,1.637-1.089,2.629-1.089h0.003
									c0.99,0,1.924,0.388,2.624,1.089c0.115,0.119,0.308,0.121,0.427,0c0.12-0.115,0.122-0.308,0.003-0.427
									c-0.812-0.816-1.9-1.268-3.054-1.268h-0.003c-1.155,0-2.241,0.447-3.062,1.267c-0.115,0.117-0.115,0.312,0,0.428
									C36.614,18.534,36.691,18.563,36.772,18.563z"/>
							</g>
						</g>
					</g>
				</g>
			</g>
		</g>
	</g>
	<polygon fill="#232221" points="33.218,29.385 34.705,44.466 32.329,46.19 29.952,44.466 31.442,29.385 	"/>
	<polyline fill="#0F0E0D" points="31.442,29.385 33.218,29.385 34.705,44.466 32.329,46.19 	"/>
	<g>
		<g>
			<g>
				<g>
					<path fill="#824323" d="M24.568,21.352c-3.253,0-5.902-2.648-5.902-5.903s2.649-5.902,5.902-5.902
						c3.257,0,5.902,2.647,5.902,5.902S27.825,21.352,24.568,21.352z M24.568,11.514c-2.169,0-3.935,1.764-3.935,3.935
						c0,2.17,1.766,3.936,3.935,3.936c2.171,0,3.936-1.766,3.936-3.936C28.504,13.277,26.739,11.514,24.568,11.514z"/>
				</g>
				<g>
					<path fill="#824323" d="M19.528,16.433H16.66c-0.544,0-0.983-0.44-0.983-0.984c0-0.543,0.439-0.983,0.983-0.983h2.868
						c0.544,0,0.984,0.44,0.984,0.983C20.513,15.992,20.072,16.433,19.528,16.433z"/>
				</g>
			</g>
			<g>
				<g>
					<path fill="#824323" d="M39.778,21.352c-3.257,0-5.902-2.648-5.902-5.903s2.646-5.902,5.902-5.902
						c3.253,0,5.902,2.647,5.902,5.902S43.031,21.352,39.778,21.352z M39.778,11.514c-2.171,0-3.936,1.764-3.936,3.935
						c0,2.17,1.765,3.936,3.936,3.936c2.169,0,3.935-1.766,3.935-3.936C43.713,13.277,41.947,11.514,39.778,11.514z"/>
				</g>
				<g>
					<path fill="#824323" d="M48.425,16.433h-2.869c-0.544,0-0.983-0.44-0.983-0.984c0-0.543,0.439-0.983,0.983-0.983h2.869
						c0.545,0,0.983,0.44,0.983,0.983C49.408,15.992,48.97,16.433,48.425,16.433z"/>
				</g>
			</g>
		</g>
		<g>
			<rect x="29.453" y="14.096" fill="#824323" width="5.902" height="1.968"/>
		</g>
	</g>
	<g>
		<path fill="#706561" d="M29.349,5.673c0,0.238-0.191,0.431-0.43,0.431l0,0c-0.238,0-0.431-0.192-0.431-0.431V1.983
			c0-0.238,0.192-0.431,0.431-0.431l0,0c0.238,0,0.43,0.192,0.43,0.431V5.673z"/>
		<path fill="#706561" d="M31.215,5.181c0,0.238-0.192,0.431-0.431,0.431l0,0c-0.238,0-0.431-0.192-0.431-0.431V1.492
			c0-0.238,0.192-0.431,0.431-0.431l0,0c0.238,0,0.431,0.192,0.431,0.431V5.181z"/>
		<path fill="#706561" d="M33.08,4.688c0,0.238-0.192,0.431-0.431,0.431l0,0c-0.238,0-0.43-0.192-0.43-0.431V1
			c0-0.238,0.191-0.431,0.43-0.431l0,0c0.238,0,0.431,0.192,0.431,0.431V4.688z"/>
		<path fill="#706561" d="M34.946,5.181c0,0.238-0.192,0.431-0.431,0.431l0,0c-0.238,0-0.431-0.192-0.431-0.431V1.492
			c0-0.238,0.192-0.431,0.431-0.431l0,0c0.238,0,0.431,0.192,0.431,0.431V5.181z"/>
		<path fill="#706561" d="M36.812,5.673c0,0.238-0.192,0.431-0.431,0.431l0,0c-0.238,0-0.43-0.192-0.43-0.431V1.983
			c0-0.238,0.191-0.431,0.43-0.431l0,0c0.238,0,0.431,0.192,0.431,0.431V5.673z"/>
	</g>
</g>
</svg>
