<?xml version="1.0" encoding="utf-8"?>
<!-- Generator: Adobe Illustrator 16.0.0, SVG Export Plug-In . SVG Version: 6.00 Build 0)  -->
<!DOCTYPE svg PUBLIC "-//W3C//DTD SVG 1.1//EN" "http://www.w3.org/Graphics/SVG/1.1/DTD/svg11.dtd">
<svg version="1.1" xmlns="http://www.w3.org/2000/svg" xmlns:xlink="http://www.w3.org/1999/xlink" x="0px" y="0px" width="65px"
	 height="65px" viewBox="0 0 65 65" enable-background="new 0 0 65 65" xml:space="preserve">
<g id="Layer_1">
	<g>
		<g>
			<g>
				<g>
					
						<rect x="11.533" y="11.532" transform="matrix(0.7071 -0.7071 0.7071 0.7071 -13.4613 32.4997)" fill="#535959" width="41.935" height="41.933"/>
				</g>
				<g>
					<polyline fill="#3F4444" points="32.499,2.849 62.151,32.499 32.499,62.151 					"/>
				</g>
				<g>
					<path fill="#181C1C" d="M32.499,64.651L32.499,64.651c-0.664,0-1.299-0.264-1.768-0.732L1.081,34.267
						c-0.977-0.977-0.977-2.559,0-3.535l29.65-29.65c0.977-0.977,2.559-0.977,3.535,0l29.652,29.65
						c0.469,0.469,0.732,1.104,0.732,1.768s-0.264,1.299-0.732,1.768L34.267,63.919C33.798,64.388,33.161,64.651,32.499,64.651z
						 M6.384,32.499l26.115,26.117l26.117-26.117L32.499,6.384L6.384,32.499z"/>
				</g>
			</g>
			<g>
				<g>
					
						<rect x="21.538" y="21.538" transform="matrix(0.7071 -0.7071 0.7071 0.7071 -13.4613 32.4997)" fill="#535959" width="21.923" height="21.922"/>
				</g>
				<g>
					<polyline fill="#3F4444" points="32.499,48.001 16.999,32.499 32.499,16.999 					"/>
				</g>
				<g>
					<path fill="#181C1C" d="M32.499,50.501L32.499,50.501c-0.664,0-1.299-0.264-1.768-0.732l-15.5-15.502
						c-0.977-0.977-0.977-2.559,0-3.535l15.5-15.5c0.977-0.977,2.559-0.977,3.535,0l15.502,15.5
						c0.469,0.469,0.732,1.104,0.732,1.768s-0.264,1.299-0.732,1.768L34.267,49.769C33.798,50.237,33.161,50.501,32.499,50.501z
						 M20.534,32.499l11.965,11.966l11.966-11.966L32.499,20.534L20.534,32.499z"/>
				</g>
			</g>
		</g>
		<g>
			<g>
				<circle fill="#3F4444" cx="35.644" cy="28.438" r="1.062"/>
			</g>
			<g>
				<circle fill="#3F4444" cx="35.644" cy="32.5" r="1.062"/>
			</g>
			<g>
				<circle fill="#3F4444" cx="35.644" cy="36.562" r="1.062"/>
			</g>
		</g>
	</g>
</g>
<g id="nyt_x5F_exporter_x5F_info" display="none">
</g>
</svg>
