<?xml version="1.0" encoding="utf-8"?>
<!-- Generator: Adobe Illustrator 16.0.0, SVG Export Plug-In . SVG Version: 6.00 Build 0)  -->
<!DOCTYPE svg PUBLIC "-//W3C//DTD SVG 1.1//EN" "http://www.w3.org/Graphics/SVG/1.1/DTD/svg11.dtd">
<svg version="1.1" id="Layer_1" xmlns="http://www.w3.org/2000/svg" xmlns:xlink="http://www.w3.org/1999/xlink" x="0px" y="0px"
	 width="64px" height="64px" viewBox="0 0 64 64" enable-background="new 0 0 64 64" xml:space="preserve">
<g>
	<g>
		<path fill="#F7910B" d="M62.3,37.5C62.3,50.5,50.4,61,32,61C13.6,61,1.7,50.5,1.7,37.5S13.6,5,32,5C50.4,5,62.3,24.5,62.3,37.5z"
			/>
	</g>
	<g>
		<path fill="#F7910B" d="M62.3,37.5C62.3,50.5,50.4,57,32,57C13.6,57,1.7,50.5,1.7,37.5S13.6,3,32,3C50.4,3,62.3,24.5,62.3,37.5z"
			/>
	</g>
	<g>
		<path fill="#F9A908" d="M32,3c18.4,0,30.3,21.5,30.3,34.5S50.4,57,32,57"/>
	</g>
	<g>
		<path fill="#F9A908" d="M62.3,37.5C62.3,50.5,50.4,57,32,57C13.6,57,1.7,50.5,1.7,37.5S13.6,5,32,5C50.4,5,62.3,24.5,62.3,37.5z"
			/>
	</g>
	<g>
		<path fill="#F9C55D" d="M1.7,37.5C1.7,24.5,13.6,5,32,5"/>
	</g>
	<g>
		<path fill="#F7910B" d="M32,5c18.4,0,30.3,19.5,30.3,32.5S50.4,61,32,61"/>
	</g>
	<g>
		<path fill="#EA7103" d="M32,5c18.4,0,30.3,19.5,30.3,32.5"/>
	</g>
	<g>
		<g>
			<g>
				<g>
					<g>
						<g>
							<path fill="#19BCA4" d="M25.8,21.1c-0.6,0.7-1.4-0.6-2.8-1.8c-1.4-1.2-2.8-1.8-2.2-2.4c0.6-0.7,2.1-0.3,3.5,0.9
								C25.7,18.9,26.3,20.4,25.8,21.1z"/>
						</g>
					</g>
				</g>
			</g>
			<g>
				<g>
					<g>
						<g>
							<path fill="#109DA0" d="M25.8,21.1c-0.6,0.7-1.4-0.6-2.8-1.8c-1.4-1.2-2.8-1.8-2.2-2.4"/>
						</g>
					</g>
				</g>
			</g>
		</g>
		<g>
			<g>
				<g>
					<g>
						<g>
							<path fill="#19BCA4" d="M38.1,16.9c0.2,0.8,1.5,0.1,3.3-0.4c1.8-0.4,3.3-0.4,3.1-1.2c-0.2-0.8-1.8-1.2-3.6-0.7
								C39.1,15,37.9,16,38.1,16.9z"/>
						</g>
					</g>
				</g>
			</g>
			<g>
				<g>
					<g>
						<g>
							<path fill="#109DA0" d="M38.1,16.9c0.2,0.8,1.5,0.1,3.3-0.4c1.8-0.4,3.3-0.4,3.1-1.2"/>
						</g>
					</g>
				</g>
			</g>
		</g>
	</g>
	<g>
		<circle fill="#F7910B" cx="10.3" cy="34.5" r="0.6"/>
	</g>
	<g>
		<circle fill="#F7910B" cx="5.8" cy="36.5" r="1.1"/>
	</g>
	<g>
		<circle fill="#F7910B" cx="8.8" cy="32.5" r="0.2"/>
	</g>
	<g>
		<circle fill="#F7910B" cx="13.4" cy="34.3" r="0.2"/>
	</g>
	<g>
		<circle fill="#F9A908" cx="52.6" cy="34.8" r="0.8"/>
	</g>
	<g>
		<circle fill="#F9A908" cx="55.1" cy="36.2" r="0.2"/>
	</g>
	<g>
		<circle fill="#F9A908" cx="49.8" cy="27.4" r="0.3"/>
	</g>
	<g>
		<circle fill="#F9A908" cx="49.3" cy="39" r="1.3"/>
	</g>
	<g>
		<circle fill="#F9A908" cx="56.5" cy="39.1" r="0.6"/>
	</g>
	<g>
		<circle fill="#F7910B" cx="9.3" cy="38.5" r="0.5"/>
	</g>
	<g>
		<circle fill="#F7910B" cx="10.1" cy="30.1" r="0.4"/>
	</g>
	<g>
		<circle fill="#F9A908" cx="4.8" cy="16.3" r="1.1"/>
	</g>
	<g>
		<circle fill="#F9A908" cx="8" cy="12.8" r="0.6"/>
	</g>
	<g>
		<circle fill="#F9A908" cx="59.2" cy="18.7" r="0.2"/>
	</g>
	<g>
		<g>
			<g>
				<g>
					<g>
						<g>
							<path fill="#1E4784" d="M23.9,28c-0.4-0.1-0.8-0.3-1.1-0.7c-1.1-1.6-3.4-2-5-0.9C17,26.9,16,26.7,15.5,26
								c-0.5-0.7-0.3-1.8,0.4-2.3c3.1-2.2,7.4-1.4,9.6,1.8c0.5,0.7,0.3,1.8-0.4,2.3C24.7,28,24.3,28,23.9,28z"/>
						</g>
					</g>
					<g>
						<g>
							<path fill="#02243E" d="M25.5,25.4c0.5,0.7,0.3,1.8-0.4,2.3C24.7,28,24.3,28,23.9,28c-0.4-0.1-0.8-0.3-1.1-0.7
								c-1.1-1.6-3.4-2-5-0.9C17,26.9,16,26.7,15.5,26c-0.5-0.7-0.3-1.8,0.4-2.3"/>
						</g>
					</g>
				</g>
			</g>
		</g>
		<g>
			<g>
				<circle fill="#D87703" cx="41.8" cy="25.7" r="3.5"/>
			</g>
			<g>
				<circle fill="#1E4784" cx="41.8" cy="24.7" r="3.5"/>
			</g>
			<g>
				<path fill="#00233F" d="M41.8,21.2c1.9,0,3.5,1.6,3.5,3.5s-1.6,3.5-3.5,3.5"/>
			</g>
		</g>
	</g>
	<g>
		<circle fill="#F9A908" cx="58.4" cy="15.8" r="0.8"/>
	</g>
	<g>
		<circle fill="#F9A908" cx="61" cy="16.3" r="0.5"/>
	</g>
	<g>
		<circle fill="#F9A908" cx="6" cy="19.3" r="0.6"/>
	</g>
	<g>
		<g>
			<path fill="#F9C55D" d="M27.8,30.8c0,1.2-3.5,0.7-7.8,0.7c-4.3,0-7.8,0.6-7.8-0.7c0-1.2,3.5-2.2,7.8-2.2
				C24.3,28.6,27.8,29.6,27.8,30.8z"/>
		</g>
		<g>
			<path fill="#F9A908" d="M51.8,30.8c0,1.2-3.5,0.7-7.8,0.7s-7.8,0.6-7.8-0.7c0-1.2,3.5-2.2,7.8-2.2S51.8,29.6,51.8,30.8z"/>
		</g>
	</g>
	<g>
		<g>
			<g>
				<path fill="#F7910B" d="M39.4,46.8c0,2.6-6.1,12.6-10.2,12.6c-4.1,0-4.5-10-4.5-12.6"/>
			</g>
			<g>
				<path fill="#C42260" d="M43.9,32.9c0,6.8-5.3,12.3-11.9,12.3c-6.6,0-11.9-5.5-11.9-12.3"/>
			</g>
			<g>
				<path fill="#99144A" d="M43.9,32.9c0,2.3-5.3,4.1-11.9,4.1c-6.6,0-11.9-1.8-11.9-4.1"/>
			</g>
			<g>
				<path fill="#E2446E" d="M32,45.2c3.7,0,6.9-1.7,9.1-4.4c-1.4-1.5-3.3-2.5-5.5-2.5c-1.3,0-2.6,0.4-3.6,1c-1.1-0.6-2.3-1-3.6-1
					c-2.2,0-4.1,1-5.5,2.5C25.1,43.4,28.3,45.2,32,45.2z"/>
			</g>
		</g>
		<g>
			<path fill="#E2446E" d="M40.8,40.9c0,2.1-3.9,16.3-8.8,16.3S23.2,43,23.2,40.9c0-2.1,3.9-0.6,8.8-0.6S40.8,38.9,40.8,40.9z"/>
		</g>
		<g>
			<path fill="#EF86AE" d="M27,48.6c-0.4,0.1-1.1-1.4-1.6-3.3c-0.5-1.9-0.5-3.5-0.2-3.7c0.4-0.2,0.7-0.3,1.2,1.6
				C26.9,45.1,27.4,48.5,27,48.6z"/>
		</g>
		<g>
			<path fill="#EF86AE" d="M33.1,48.2c-0.4,0-0.7-1.6-0.7-3.6c0-2,0.3-3.5,0.7-3.6c0.5-0.1,0.8-0.1,0.8,1.8
				C33.8,44.8,33.5,48.2,33.1,48.2z"/>
		</g>
	</g>
</g>
</svg>
