<?xml version="1.0" encoding="utf-8"?>
<!-- Generator: Adobe Illustrator 16.0.0, SVG Export Plug-In . SVG Version: 6.00 Build 0)  -->
<!DOCTYPE svg PUBLIC "-//W3C//DTD SVG 1.1//EN" "http://www.w3.org/Graphics/SVG/1.1/DTD/svg11.dtd">
<svg version="1.1" id="Layer_1" xmlns="http://www.w3.org/2000/svg" xmlns:xlink="http://www.w3.org/1999/xlink" x="0px" y="0px"
	 width="65px" height="65px" viewBox="0 0 65 65" enable-background="new 0 0 65 65" xml:space="preserve">
<g>
	<g>
		<g>
			<g>
				<path fill="#D62B2B" d="M31.105,26.369c1.273,1.432,0.465,4.228-1.805,6.249c-2.27,2.018-14.475,10.794-15.75,9.365
					c-1.271-1.434,8.873-12.532,11.143-14.55C26.961,25.415,29.832,24.938,31.105,26.369z"/>
				<path fill="#D62B2B" d="M33.895,26.369c-1.273,1.432-0.465,4.228,1.805,6.249c2.27,2.018,14.475,10.794,15.75,9.365
					c1.271-1.434-8.873-12.532-11.143-14.55C38.039,25.415,35.168,24.938,33.895,26.369z"/>
			</g>
			<g>
				<path fill="#97A0A0" d="M29.473,46.446c0,2.476-2.008,15.827-4.486,15.827c-2.475,0-4.482-13.352-4.482-15.827
					s2.008-4.484,4.482-4.484C27.465,41.962,29.473,43.971,29.473,46.446z"/>
				<path fill="#97A0A0" d="M44.498,46.446c0,2.476-2.008,15.827-4.486,15.827c-2.475,0-4.482-13.352-4.482-15.827
					s2.008-4.484,4.482-4.484C42.49,41.962,44.498,43.971,44.498,46.446z"/>
			</g>
			<path fill="#AEB7B7" d="M45.15,40.521c0,16.038-5.662,10.697-12.65,10.697c-6.986,0-12.65,5.341-12.65-10.697
				c0-9.17,5.666-16.603,12.65-16.603C39.486,23.919,45.15,31.352,45.15,40.521z"/>
			<path fill="#D62B2B" d="M32.5,23.919c-3.326,0-6.344,1.699-8.604,4.455c-0.171,0.576-0.271,1.174-0.271,1.793
				c0,4.096,3.974,9.418,8.875,9.418c4.902,0,8.875-5.322,8.875-9.418c0-0.619-0.102-1.219-0.272-1.794
				C38.844,25.617,35.826,23.919,32.5,23.919z"/>
			<g>
				<path fill="#AEB7B7" d="M30.033,62.354c0,1.896-2.26,2.146-5.045,2.146s-5.045-0.249-5.045-2.146
					c0-1.897,2.26-4.508,5.045-4.508S30.033,60.457,30.033,62.354z"/>
				<path fill="#97A0A0" d="M30.033,62.354c0,1.896-2.26,2.146-5.045,2.146s-5.045-0.249-5.045-2.146"/>
			</g>
			<g>
				<path fill="#AEB7B7" d="M45.059,62.354c0,1.896-2.26,2.146-5.045,2.146s-5.045-0.249-5.045-2.146
					c0-1.897,2.26-4.508,5.045-4.508S45.059,60.457,45.059,62.354z"/>
				<path fill="#97A0A0" d="M45.059,62.354c0,1.896-2.26,2.146-5.045,2.146s-5.045-0.249-5.045-2.146"/>
			</g>
			<g>
				<path fill="#AEB7B7" d="M48.871,16.275c0,7.999-7.33,12.02-16.369,12.02c-9.041,0-16.373-4.021-16.373-12.02
					c0-8.001,7.332-15.775,16.373-15.775C41.541,0.5,48.871,8.274,48.871,16.275z"/>
				<path fill="#97A0A0" d="M48.871,16.275c0,7.999-7.33,12.02-16.369,12.02c-9.041,0-16.373-4.021-16.373-12.02"/>
			</g>
		</g>
		<path fill="#AA1111" d="M36.109,21.909c0,1.303-1.617,2.361-3.609,2.361s-3.609-1.059-3.609-2.361
			c0-1.305,1.617-0.525,3.609-0.525S36.109,20.604,36.109,21.909z"/>
		<path fill="#D62B2B" d="M29.539,23.255c0.652,0.612,1.734,1.016,2.961,1.016s2.309-0.403,2.961-1.016
			c-0.652-0.613-1.734-1.017-2.961-1.017S30.191,22.642,29.539,23.255z"/>
	</g>
	<g>
		<g>
			<path fill="#808E8D" d="M27.865,9.594c2.018,1.848,3.574,6.282,1.725,8.3c-1.848,2.018-6.875,2.227-8.893,0.377
				c-2.02-1.848-1.682-6.351,0.166-8.369C22.713,7.884,25.846,7.745,27.865,9.594z"/>
			<path fill="#FFC200" d="M27.865,9.594c2.018,1.848,3.574,6.282,1.725,8.3c-1.848,2.018-6.4,0.857-8.418-0.992
				c-2.02-1.848-2.156-4.981-0.309-7C22.713,7.884,25.846,7.745,27.865,9.594z"/>
			<path fill="#FF9D00" d="M20.863,9.901c1.85-2.018,4.982-2.156,7.002-0.308c2.018,1.848,3.574,6.282,1.725,8.3"/>
		</g>
		<g>
			<path fill="#808E8D" d="M37.135,9.594c-2.018,1.848-3.574,6.282-1.725,8.3c1.848,2.018,6.875,2.227,8.893,0.377
				c2.02-1.848,1.682-6.351-0.166-8.369C42.287,7.884,39.154,7.745,37.135,9.594z"/>
			<path fill="#FFC200" d="M37.135,9.594c-2.018,1.848-3.574,6.282-1.725,8.3c1.848,2.018,6.4,0.857,8.418-0.992
				c2.02-1.848,2.156-4.981,0.309-7C42.287,7.884,39.154,7.745,37.135,9.594z"/>
			<path fill="#FF9D00" d="M44.137,9.901c-1.85-2.018-4.982-2.156-7.002-0.308c-2.018,1.848-3.574,6.282-1.725,8.3"/>
		</g>
	</g>
	<g>
		<path fill="#FFC200" d="M34.958,33.21c0,1.355-1.101,2.456-2.46,2.456c-1.354,0-2.456-1.101-2.456-2.456
			c0-1.359,1.102-2.46,2.456-2.46C33.857,30.75,34.958,31.851,34.958,33.21z"/>
		<path fill="#FF9D00" d="M32.498,30.75c1.359,0,2.46,1.101,2.46,2.46c0,1.355-1.101,2.456-2.46,2.456"/>
		<path fill="#4A5151" d="M32.498,36.166c-1.63,0-2.956-1.326-2.956-2.956c0-1.633,1.326-2.96,2.956-2.96
			c1.633,0,2.96,1.327,2.96,2.96C35.458,34.84,34.131,36.166,32.498,36.166z M32.498,31.25c-1.078,0-1.956,0.879-1.956,1.96
			c0,1.078,0.878,1.956,1.956,1.956c1.081,0,1.96-0.878,1.96-1.956C34.458,32.129,33.579,31.25,32.498,31.25z"/>
	</g>
	<g>
		<path fill="#D62B2B" d="M35.084,41.751c0,0.276-0.225,0.5-0.5,0.5h-4.168c-0.275,0-0.5-0.224-0.5-0.5l0,0
			c0-0.276,0.225-0.5,0.5-0.5h4.168C34.859,41.251,35.084,41.475,35.084,41.751L35.084,41.751z"/>
		<path fill="#D62B2B" d="M35.084,43.501c0,0.276-0.225,0.5-0.5,0.5h-4.168c-0.275,0-0.5-0.224-0.5-0.5l0,0
			c0-0.276,0.225-0.5,0.5-0.5h4.168C34.859,43.001,35.084,43.225,35.084,43.501L35.084,43.501z"/>
		<path fill="#D62B2B" d="M35.084,45.251c0,0.276-0.225,0.5-0.5,0.5h-4.168c-0.275,0-0.5-0.224-0.5-0.5l0,0
			c0-0.276,0.225-0.5,0.5-0.5h4.168C34.859,44.751,35.084,44.975,35.084,45.251L35.084,45.251z"/>
	</g>
	<path fill="#B21B1B" d="M34.5,5.396V0.642C33.844,0.558,33.18,0.5,32.502,0.5c-0.68,0-1.345,0.058-2.002,0.142v4.754
		c0,1.104,0.896,2,2,2S34.5,6.5,34.5,5.396z"/>
	<path fill="#D62B2B" d="M30.5,0.642v3.087c0,1.104,0.896,2,2,2s2-0.896,2-2V0.642C33.844,0.558,33.18,0.5,32.502,0.5
		C31.822,0.5,31.157,0.558,30.5,0.642z"/>
	<path fill="#B21B1B" d="M22.079,56.403h5.817c0.182-0.738,0.352-1.501,0.506-2.266h-6.828
		C21.729,54.902,21.897,55.665,22.079,56.403z"/>
	<path fill="#B21B1B" d="M37.104,56.403h5.817c0.182-0.738,0.352-1.501,0.506-2.266H36.6C36.754,54.902,36.923,55.665,37.104,56.403
		z"/>
</g>
</svg>
