<?xml version="1.0" encoding="utf-8"?>
<!-- Generator: Adobe Illustrator 16.0.0, SVG Export Plug-In . SVG Version: 6.00 Build 0)  -->
<!DOCTYPE svg PUBLIC "-//W3C//DTD SVG 1.1//EN" "http://www.w3.org/Graphics/SVG/1.1/DTD/svg11.dtd">
<svg version="1.1" xmlns="http://www.w3.org/2000/svg" xmlns:xlink="http://www.w3.org/1999/xlink" x="0px" y="0px" width="65px"
	 height="65px" viewBox="0 0 65 65" enable-background="new 0 0 65 65" xml:space="preserve">
<g id="Layer_1">
	<g>
		<g>
			<g>
				<circle fill="#32F9B1" cx="32.5" cy="37.834" r="23.5"/>
			</g>
			<g>
				<path fill="#2FD4EA" d="M32.5,14.334c12.979,0,23.5,10.521,23.5,23.5s-10.521,23.5-23.5,23.5"/>
			</g>
			<g>
				<path fill="#0071AA" d="M32.5,63.834c-14.337,0-26-11.664-26-26c0-14.338,11.663-26,26-26s26,11.662,26,26
					C58.5,52.17,46.837,63.834,32.5,63.834z M32.5,16.834c-11.579,0-21,9.42-21,21c0,11.578,9.421,21,21,21s21-9.422,21-21
					C53.5,26.254,44.079,16.834,32.5,16.834z"/>
			</g>
		</g>
		<g>
			<g>
				<g>
					<path fill="#32F9B1" d="M36.891,14.17c0-5.801,4.699-10.504,10.502-10.504"/>
				</g>
				<g>
					<path fill="#0071AA" d="M36.891,16.67c-1.382,0-2.5-1.119-2.5-2.5c0-3.475,1.352-6.74,3.807-9.195s5.721-3.809,9.193-3.809
						c0.002,0,0.002,0,0.002,0c1.381,0,2.5,1.121,2.5,2.5c0,1.381-1.119,2.5-2.5,2.5l0,0c0,0,0,0-0.002,0
						c-2.138,0-4.146,0.832-5.658,2.344c-1.51,1.512-2.342,3.521-2.342,5.66C39.391,15.551,38.271,16.67,36.891,16.67z"/>
				</g>
			</g>
			<g>
				<g>
					<path fill="#32F9B1" d="M28.227,14.17c0-5.801-4.7-10.504-10.502-10.504"/>
				</g>
				<g>
					<path fill="#0071AA" d="M28.227,16.67c-1.381,0-2.5-1.119-2.5-2.5c0-2.139-0.832-4.148-2.344-5.66
						c-1.511-1.512-3.52-2.344-5.657-2.344h-0.001c-1.381,0-2.5-1.119-2.5-2.5c0-1.379,1.117-2.5,2.5-2.5h0.001
						c3.474,0,6.738,1.354,9.192,3.809c2.455,2.455,3.809,5.721,3.809,9.195C30.727,15.551,29.607,16.67,28.227,16.67z"/>
				</g>
			</g>
		</g>
	</g>
</g>
<g id="nyt_x5F_exporter_x5F_info" display="none">
</g>
</svg>
