<?xml version="1.0" encoding="utf-8"?>
<!-- Generator: Adobe Illustrator 16.0.0, SVG Export Plug-In . SVG Version: 6.00 Build 0)  -->
<!DOCTYPE svg PUBLIC "-//W3C//DTD SVG 1.1//EN" "http://www.w3.org/Graphics/SVG/1.1/DTD/svg11.dtd">
<svg version="1.1" xmlns="http://www.w3.org/2000/svg" xmlns:xlink="http://www.w3.org/1999/xlink" x="0px" y="0px" width="65px"
	 height="65px" viewBox="0 0 65 65" enable-background="new 0 0 65 65" xml:space="preserve">
<g id="Layer_1">
	<g>
		<path fill="#2D5CA0" d="M57.431,46.02c1.172,1.172,1.172,3.073,0,4.246l-1.328,1.327c-1.172,1.173-3.072,1.173-4.246,0
			L24.521,24.255c-1.174-1.173-1.174-3.074,0-4.246l1.326-1.328c1.174-1.172,3.074-1.172,4.246,0.001L57.431,46.02z"/>
		<path fill="#4078BC" d="M56.103,51.593c-1.172,1.173-3.072,1.173-4.246,0L24.521,24.255c-1.174-1.173-1.174-3.074,0-4.246"/>
		<path fill="#0E203A" d="M63.05,49.248c1.172,1.172,1.172,3.073,0,4.246l-3.717,3.716c-1.172,1.172-3.074,1.173-4.248,0
			L40.577,42.701c-1.172-1.173-1.172-3.074,0-4.247l3.717-3.715c1.172-1.173,3.072-1.173,4.246-0.001L63.05,49.248z"/>
		<path fill="#233A63" d="M59.333,57.21c-1.172,1.172-3.074,1.173-4.248,0L40.577,42.701c-1.172-1.173-1.172-3.074,0-4.247"/>
		<path fill="#2D5CA0" d="M64.243,52.831c0.342,0.342,0.342,0.896,0,1.237l-4.336,4.337c-0.342,0.342-0.896,0.342-1.236,0l0,0
			c-0.344-0.343-0.344-0.896-0.002-1.238l4.336-4.336C63.347,52.489,63.901,52.489,64.243,52.831L64.243,52.831z"/>
		<path fill="#233A63" d="M46.771,37.658c0.172,0.171,0.17,0.448,0,0.619l-4.158,4.158c-0.172,0.17-0.447,0.171-0.619,0l0,0
			c-0.17-0.171-0.17-0.448,0.002-0.619l4.156-4.158C46.323,37.487,46.599,37.487,46.771,37.658L46.771,37.658z"/>
		<path fill="#233A63" d="M48.894,39.781c0.172,0.171,0.172,0.448,0,0.619l-4.158,4.158c-0.17,0.171-0.447,0.172-0.617,0l0,0
			c-0.172-0.171-0.172-0.448,0-0.618l4.156-4.158C48.446,39.61,48.724,39.61,48.894,39.781L48.894,39.781z"/>
		<path fill="#233A63" d="M51.017,41.905c0.172,0.171,0.172,0.447,0,0.618l-4.158,4.158c-0.17,0.171-0.447,0.172-0.617,0l0,0
			c-0.172-0.171-0.172-0.447,0-0.618l4.158-4.158C50.569,41.734,50.847,41.733,51.017,41.905L51.017,41.905z"/>
		<path fill="#233A63" d="M53.142,44.028c0.17,0.171,0.17,0.448-0.002,0.618l-4.158,4.158c-0.17,0.172-0.447,0.172-0.617,0.001l0,0
			c-0.172-0.171-0.172-0.448,0-0.619l4.158-4.158C52.692,43.857,52.97,43.856,53.142,44.028L53.142,44.028z"/>
		<path fill="#233A63" d="M55.265,46.151c0.17,0.172,0.17,0.448,0,0.619l-4.158,4.158c-0.172,0.171-0.449,0.171-0.619,0l0,0
			c-0.172-0.171-0.172-0.448,0-0.619l4.158-4.158C54.815,45.981,55.093,45.98,55.265,46.151L55.265,46.151z"/>
		<path fill="#233A63" d="M57.388,48.274c0.172,0.172,0.17,0.448,0,0.619l-4.158,4.158c-0.172,0.171-0.449,0.172-0.619,0.001l0,0
			c-0.172-0.172-0.172-0.448,0-0.619l4.158-4.158C56.938,48.104,57.216,48.104,57.388,48.274L57.388,48.274z"/>
		<path fill="#233A63" d="M59.511,50.398c0.172,0.171,0.17,0.447,0,0.619l-4.158,4.158c-0.172,0.17-0.449,0.171-0.619,0l0,0
			c-0.172-0.172-0.172-0.448,0-0.619l4.158-4.158C59.062,50.228,59.339,50.228,59.511,50.398L59.511,50.398z"/>
		<polygon fill="#97AFC6" points="31.288,15.099 18.813,37.128 0.501,18.813 22.528,6.339 		"/>
		<polyline fill="#BFD2E2" points="0.501,18.813 22.528,6.339 31.288,15.099 		"/>
		<polygon fill="#728DA3" points="21.212,32.891 31.288,15.099 22.528,6.339 4.737,16.415 		"/>
		<polyline fill="#658296" points="21.212,32.891 31.288,15.099 22.528,6.339 		"/>
	</g>
</g>
<g id="nyt_x5F_exporter_x5F_info" display="none">
</g>
</svg>
