<?xml version="1.0" encoding="utf-8"?>
<!-- Generator: Adobe Illustrator 16.0.0, SVG Export Plug-In . SVG Version: 6.00 Build 0)  -->
<!DOCTYPE svg PUBLIC "-//W3C//DTD SVG 1.1//EN" "http://www.w3.org/Graphics/SVG/1.1/DTD/svg11.dtd">
<svg version="1.1" id="Layer_1" xmlns="http://www.w3.org/2000/svg" xmlns:xlink="http://www.w3.org/1999/xlink" x="0px" y="0px"
	 width="64px" height="64px" viewBox="0 0 64 64" enable-background="new 0 0 64 64" xml:space="preserve">
<g>
	<ellipse fill="#2CBF7F" cx="32" cy="49" rx="15.5" ry="13.1"/>
	<path fill="#199974" d="M32,35.9c8.6,0,15.5,5.8,15.5,13.1c0,7.2-6.9,13.1-15.5,13.1"/>
	<path fill="#B7794F" d="M53.5,28c0,13.6-9.6,30.8-21.5,30.8S10.5,41.6,10.5,28c0-13.6,9.6-18.5,21.5-18.5S53.5,14.4,53.5,28z"/>
	<polygon fill="#A86D45" points="35.8,27.4 32,41 16,25 19.8,21.2 	"/>
	<path fill="#A86D45" d="M32,9.5c11.9,0,21.5,4.9,21.5,18.5c0,13.6-9.6,30.8-21.5,30.8"/>
	<g>
		<g>
			<g>
				<g>
					<g>
						<path fill="#3DE09D" d="M22.9,31.1c-1.5,0.1-2.7,0.8-2.7,1.5l5.5-0.4C25.7,31.5,24.4,31,22.9,31.1z"/>
					</g>
				</g>
				<g>
					<g>
						<path fill="#3DE09D" d="M41.1,31.1c1.5,0.1,2.7,0.8,2.7,1.5l-5.5-0.4C38.3,31.5,39.6,31,41.1,31.1z"/>
					</g>
				</g>
			</g>
			<path fill="#CC8758" d="M21.9,43.3c-3.6,0-6.6,0.8-6.6,1.9c0,1,3,0.5,6.6,0.5c3.6,0,6.6,0.5,6.6-0.5
				C28.5,44.1,25.5,43.3,21.9,43.3z"/>
			<path fill="#CC8758" d="M42.1,43.3c-3.6,0-6.6,0.8-6.6,1.9c0,1,3,0.5,6.6,0.5c3.6,0,6.6,0.5,6.6-0.5
				C48.7,44.1,45.8,43.3,42.1,43.3z"/>
			<g>
				<path fill="#89522C" d="M26.1,41.9c0,1.5-1.2,2.7-2.7,2.7c-1.5,0-2.7-1.2-2.7-2.7c0-1.5,1.2-2.7,2.7-2.7
					C24.9,39.3,26.1,40.5,26.1,41.9z"/>
				<circle fill="#89522C" cx="40.9" cy="41.9" r="2.7"/>
				<path fill="#1E4784" d="M26.1,41.2c0,1.5-1.2,2.7-2.7,2.7c-1.5,0-2.7-1.2-2.7-2.7c0-1.5,1.2-2.7,2.7-2.7
					C24.9,38.5,26.1,39.7,26.1,41.2z"/>
				<path fill="#00233F" d="M23.4,38.5c1.5,0,2.7,1.2,2.7,2.7c0,1.5-1.2,2.7-2.7,2.7"/>
				<path fill="#1E4784" d="M43.6,41.2c0,1.5-1.2,2.7-2.7,2.7c-1.5,0-2.7-1.2-2.7-2.7c0-1.5,1.2-2.7,2.7-2.7
					C42.4,38.5,43.6,39.7,43.6,41.2z"/>
				<path fill="#00233F" d="M40.9,38.5c1.5,0,2.7,1.2,2.7,2.7c0,1.5-1.2,2.7-2.7,2.7"/>
			</g>
		</g>
	</g>
	<g>
		<path fill="#3DE09D" d="M37.7,47.4c0,2.1-2.6,5.8-5.7,5.8s-5.7-3.6-5.7-5.8c0-2.1,2.6-2,5.7-2S37.7,45.2,37.7,47.4z"/>
		<path fill="#2CBF7F" d="M37.7,47.4c0,2.1-2.6,5.8-5.7,5.8s-5.7-3.6-5.7-5.8"/>
		<path fill="#199974" d="M37.7,47.4c0,2.1-2.6,5.8-5.7,5.8"/>
		<path fill="#3ACC86" d="M32,53.1c-3.1,0-5.7-3.6-5.7-5.8"/>
	</g>
	<ellipse transform="matrix(0.9318 -0.3631 0.3631 0.9318 -3.7503 9.0076)" fill="#CC8758" cx="22.1" cy="14.5" rx="7.2" ry="2"/>
	<g>
		<g>
			<g>
				<path fill="#3DE09D" d="M21.9,23.2c0.3,1.1-0.9,0.5-2,0.8l0,0c-1.1,0.3-2.1,0.6-2.4-0.6L13.3,8.2c-0.3-1.1,0.3-2.3,1.5-2.6l0,0
					c1.1-0.3,2.3,0.3,2.6,1.5L21.9,23.2z"/>
				<path fill="#2CBF7F" d="M14.8,5.6c1.1-0.3,2.3,0.3,2.6,1.5l4.5,16.1c0.3,1.1-0.9,0.5-2,0.8l0,0c-1.1,0.3-2.1,0.6-2.4-0.6"/>
				<path fill="#3DE09D" d="M18.4,14.7c0.8,0.4,1.1,1.4,0.6,2.2l0,0c-0.4,0.8-1.4,1.1-2.2,0.6l-10-5.6C6,11.5,5.8,10.5,6.2,9.7l0,0
					c0.4-0.8,1.5-1.1,2.2-0.6L18.4,14.7z"/>
				<path fill="#2CBF7F" d="M18.4,14.7c0.8,0.4,1.1,1.4,0.6,2.2l0,0c-0.4,0.8-1.4,1.1-2.2,0.6l-10-5.6C6,11.5,5.8,10.5,6.2,9.7l0,0"
					/>
				<path fill="#3DE09D" d="M12.5,12.2c0.2,0.6-0.2,1.2-0.8,1.3l0,0c-0.6,0.2-1.2-0.2-1.3-0.8l-2-7.3C8.2,4.9,8.6,4.3,9.1,4.1l0,0
					c0.6-0.2,1.2,0.2,1.3,0.8L12.5,12.2z"/>
				<path fill="#2CBF7F" d="M9.1,4.1L9.1,4.1c0.6-0.2,1.2,0.2,1.3,0.8l2,7.3c0.2,0.6-0.2,1.2-0.8,1.3l0,0c-0.6,0.2-1.2-0.2-1.3-0.8"
					/>
				<path fill="#3DE09D" d="M13.1,13.6c0.6-0.2,1.2,0.2,1.3,0.8l0,0c0.2,0.6-0.2,1.2-0.8,1.3l-7.3,2c-0.6,0.2-1.2-0.2-1.3-0.8l0,0
					c-0.2-0.6,0.2-1.2,0.8-1.3L13.1,13.6z"/>
				<path fill="#2CBF7F" d="M5.1,17L5.1,17c-0.2-0.6,0.2-1.2,0.8-1.3l7.3-2c0.6-0.2,1.2,0.2,1.3,0.8l0,0c0.2,0.6-0.2,1.2-0.8,1.3"/>
				<path fill="#2CBF7F" d="M10.2,15.5c0.2-0.3,0.6-0.4,0.9-0.3l0,0c0.3,0.2,0.4,0.6,0.3,0.9l-2.3,4.1c-0.2,0.3-0.6,0.4-0.9,0.3l0,0
					c-0.3-0.2-0.4-0.6-0.3-0.9L10.2,15.5z"/>
			</g>
			<circle fill="#2CBF7F" cx="5.2" cy="6.5" r="0.6"/>
			<circle fill="#2CBF7F" cx="4.6" cy="10.7" r="0.1"/>
			<circle fill="#2CBF7F" cx="4.3" cy="13.9" r="0.9"/>
			<circle fill="#2CBF7F" cx="5.9" cy="3.3" r="0.6"/>
			<circle fill="#2CBF7F" cx="7.7" cy="6.7" r="0.4"/>
			<circle fill="#2CBF7F" cx="4.8" cy="8.7" r="0.3"/>
			<circle fill="#2CBF7F" cx="3.8" cy="3.8" r="0.6"/>
			<circle fill="#2CBF7F" cx="6.2" cy="13.2" r="0.3"/>
			<circle fill="#2CBF7F" cx="13.2" cy="2.6" r="0.7"/>
			<circle fill="#2CBF7F" cx="15" cy="3.7" r="0.3"/>
			<circle fill="#2CBF7F" cx="5.3" cy="10.7" r="1.2"/>
		</g>
		<g>
			<g>
				<path fill="#3DE09D" d="M42.1,23.2c-0.3,1.1,0.9,0.5,2,0.8l0,0c1.1,0.3,2.1,0.6,2.4-0.6l4.2-15.2c0.3-1.1-0.3-2.3-1.5-2.6l0,0
					c-1.1-0.3-2.3,0.3-2.6,1.5L42.1,23.2z"/>
				<path fill="#2CBF7F" d="M49.2,5.6c-1.1-0.3-2.3,0.3-2.6,1.5l-4.5,16.1c-0.3,1.1,0.9,0.5,2,0.8l0,0c1.1,0.3,2.1,0.6,2.4-0.6"/>
				<path fill="#3DE09D" d="M45.6,14.7c-0.8,0.4-1.1,1.4-0.6,2.2l0,0c0.4,0.8,1.5,1.1,2.2,0.6l10-5.6c0.8-0.4,1.1-1.5,0.6-2.2l0,0
					c-0.4-0.8-1.5-1.1-2.2-0.6L45.6,14.7z"/>
				<path fill="#2CBF7F" d="M45.6,14.7c-0.8,0.4-1.1,1.4-0.6,2.2l0,0c0.4,0.8,1.5,1.1,2.2,0.6l10-5.6c0.8-0.4,1.1-1.5,0.6-2.2l0,0"
					/>
				<path fill="#3DE09D" d="M51.5,12.2c-0.2,0.6,0.2,1.2,0.8,1.3l0,0c0.6,0.2,1.2-0.2,1.3-0.8l2-7.3c0.2-0.6-0.2-1.2-0.8-1.3l0,0
					c-0.6-0.2-1.2,0.2-1.3,0.8L51.5,12.2z"/>
				<path fill="#2CBF7F" d="M54.9,4.1L54.9,4.1c-0.6-0.2-1.2,0.2-1.3,0.8l-2,7.3c-0.2,0.6,0.2,1.2,0.8,1.3l0,0
					c0.6,0.2,1.2-0.2,1.3-0.8"/>
				<path fill="#3DE09D" d="M50.9,13.6c-0.6-0.2-1.2,0.2-1.3,0.8l0,0c-0.2,0.6,0.2,1.2,0.8,1.3l7.3,2c0.6,0.2,1.2-0.2,1.3-0.8l0,0
					c0.2-0.6-0.2-1.2-0.8-1.3L50.9,13.6z"/>
				<path fill="#2CBF7F" d="M58.9,17L58.9,17c0.2-0.6-0.2-1.2-0.8-1.3l-7.3-2c-0.6-0.2-1.2,0.2-1.3,0.8l0,0
					c-0.2,0.6,0.2,1.2,0.8,1.3"/>
				<path fill="#2CBF7F" d="M53.8,15.5c-0.2-0.3-0.6-0.4-0.9-0.3l0,0c-0.3,0.2-0.4,0.6-0.3,0.9l2.3,4.1c0.2,0.3,0.6,0.4,0.9,0.3l0,0
					c0.3-0.2,0.4-0.6,0.3-0.9L53.8,15.5z"/>
			</g>
			<circle fill="#2CBF7F" cx="58.8" cy="6.5" r="0.6"/>
			<circle fill="#2CBF7F" cx="59.4" cy="10.7" r="0.1"/>
			<circle fill="#2CBF7F" cx="59.7" cy="13.9" r="0.9"/>
			<circle fill="#2CBF7F" cx="58.1" cy="3.3" r="0.6"/>
			<circle fill="#2CBF7F" cx="56.3" cy="6.7" r="0.4"/>
			<circle fill="#2CBF7F" cx="59.2" cy="8.7" r="0.3"/>
			<circle fill="#2CBF7F" cx="60.2" cy="3.8" r="0.6"/>
			<circle fill="#2CBF7F" cx="57.8" cy="13.2" r="0.3"/>
			<circle fill="#2CBF7F" cx="50.8" cy="2.6" r="0.7"/>
			<circle fill="#2CBF7F" cx="49" cy="3.7" r="0.3"/>
			<circle fill="#2CBF7F" cx="58.7" cy="10.7" r="1.2"/>
		</g>
	</g>
	<g>
		<path fill="#CC8758" d="M17.9,22.4c2.1,2.5-3.1,12-7.8,15.9c-4.7,3.9-7,0.6-9.1-1.9c-2.1-2.5,2.5-4.7,7.1-8.6
			C12.8,23.9,15.8,19.8,17.9,22.4z"/>
		<path fill="#B7794F" d="M17.9,22.4c2.1,2.5-3.1,12-7.8,15.9c-4.7,3.9-7,0.6-9.1-1.9"/>
		<path fill="#B7794F" d="M46.1,22.4c-2.1,2.5,3.1,12,7.8,15.9c4.7,3.9,7,0.6,9.1-1.9c2.1-2.5-2.5-4.7-7.1-8.6
			C51.2,23.9,48.2,19.8,46.1,22.4z"/>
		<path fill="#A86D45" d="M63,36.4c2.1-2.5-2.5-4.7-7.1-8.6c-4.7-3.9-7.6-8-9.7-5.5"/>
	</g>
</g>
</svg>
