<?xml version="1.0" encoding="utf-8"?>
<!-- Generator: Adobe Illustrator 16.0.0, SVG Export Plug-In . SVG Version: 6.00 Build 0)  -->
<!DOCTYPE svg PUBLIC "-//W3C//DTD SVG 1.1//EN" "http://www.w3.org/Graphics/SVG/1.1/DTD/svg11.dtd">
<svg version="1.1" xmlns="http://www.w3.org/2000/svg" xmlns:xlink="http://www.w3.org/1999/xlink" x="0px" y="0px" width="65px"
	 height="65px" viewBox="0 0 65 65" enable-background="new 0 0 65 65" xml:space="preserve">
<g id="Layer_1">
	<g>
		<g>
			<g>
				<g>
					<g>
						<path fill="#9AC1B2" d="M21.591,19.062c6.725-6.723,17.623-6.723,24.348,0c6.723,6.723,6.723,17.623-0.002,24.348"/>
					</g>
					<g>
						<path fill="#475651" d="M45.937,45.909c-0.64,0-1.279-0.244-1.768-0.732c-0.977-0.977-0.977-2.559,0-3.535
							c5.738-5.738,5.739-15.075,0.002-20.812c-5.738-5.734-15.074-5.736-20.812,0c-0.977,0.977-2.561,0.977-3.535,0
							c-0.977-0.977-0.977-2.56,0-3.535c7.688-7.686,20.195-7.686,27.883,0c7.688,7.687,7.688,20.195-0.002,27.883
							C47.216,45.665,46.576,45.909,45.937,45.909z"/>
					</g>
				</g>
				<g>
					<g>
						<g>
							<path fill="#9AC1B2" d="M41.399,6.384c9.512-0.004,17.217,7.707,17.217,17.213"/>
						</g>
						<g>
							<path fill="#475651" d="M58.616,26.097c-1.381,0-2.5-1.119-2.5-2.5c0-3.931-1.53-7.626-4.309-10.405
								c-2.779-2.777-6.473-4.308-10.402-4.308H41.4h-0.001c-1.38,0-2.499-1.118-2.5-2.499s1.118-2.5,2.498-2.501h0.008
								c5.266,0,10.215,2.05,13.938,5.772c3.723,3.724,5.773,8.675,5.773,13.94C61.116,24.978,59.997,26.097,58.616,26.097z"/>
						</g>
					</g>
					<g>
						<g>
							<line fill="#9AC1B2" x1="60.97" y1="4.03" x2="53.786" y2="11.214"/>
						</g>
						<g>
							<path fill="#475651" d="M53.786,13.714c-0.64,0-1.279-0.244-1.768-0.732c-0.977-0.977-0.977-2.559,0-3.535l7.184-7.184
								c0.977-0.977,2.559-0.977,3.535,0s0.977,2.559,0,3.535l-7.184,7.184C55.065,13.47,54.426,13.714,53.786,13.714z"/>
						</g>
					</g>
				</g>
			</g>
			<g>
				<g>
					<g>
						<path fill="#9AC1B2" d="M43.409,45.937c-6.725,6.725-17.625,6.723-24.346,0c-6.725-6.723-6.725-17.623,0-24.346"/>
					</g>
					<g>
						<path fill="#475651" d="M31.236,53.479L31.236,53.479c-5.269-0.001-10.218-2.052-13.94-5.775
							c-3.725-3.724-5.775-8.674-5.775-13.94s2.051-10.218,5.775-13.94c0.977-0.977,2.561-0.977,3.535,0
							c0.977,0.977,0.977,2.56,0,3.535c-2.78,2.779-4.311,6.475-4.311,10.405s1.53,7.626,4.311,10.405
							c2.779,2.779,6.473,4.311,10.404,4.311h0.001c3.93,0,7.624-1.531,10.405-4.311c0.977-0.977,2.559-0.977,3.535,0
							s0.977,2.559,0,3.535C41.453,51.428,36.502,53.479,31.236,53.479z"/>
					</g>
				</g>
				<g>
					<g>
						<g>
							<path fill="#9AC1B2" d="M23.599,58.616c-9.51,0.002-17.217-7.709-17.217-17.217"/>
						</g>
						<g>
							<path fill="#475651" d="M23.595,61.116c-5.266,0-10.215-2.051-13.938-5.774c-3.724-3.725-5.774-8.676-5.774-13.942
								c0-1.381,1.119-2.5,2.5-2.5s2.5,1.119,2.5,2.5c0,3.931,1.53,7.627,4.311,10.407c2.778,2.779,6.473,4.31,10.402,4.31h0.004
								c1.381,0,2.5,1.119,2.5,2.499c0,1.381-1.119,2.501-2.498,2.501H23.595z"/>
						</g>
					</g>
					<g>
						<g>
							<line fill="#9AC1B2" x1="4.03" y1="60.97" x2="11.214" y2="53.786"/>
						</g>
						<g>
							<path fill="#475651" d="M4.03,63.47c-0.639,0-1.279-0.244-1.768-0.732c-0.977-0.977-0.977-2.559,0-3.535l7.184-7.184
								c0.977-0.977,2.559-0.977,3.535,0s0.977,2.559,0,3.535l-7.184,7.184C5.31,63.226,4.67,63.47,4.03,63.47z"/>
						</g>
					</g>
				</g>
			</g>
		</g>
		<g>
			<g>
				<circle fill="#41E09F" cx="32.499" cy="32.5" r="7.902"/>
			</g>
			<g>
				<path fill="#475651" d="M32.499,42.903c-2.779,0-5.392-1.083-7.355-3.049c-1.965-1.965-3.047-4.577-3.047-7.355
					s1.082-5.391,3.047-7.354s4.576-3.046,7.355-3.046l0,0c2.777,0,5.391,1.082,7.355,3.047c1.965,1.963,3.047,4.575,3.047,7.354
					s-1.082,5.391-3.047,7.355C37.892,41.82,35.278,42.903,32.499,42.903z M32.499,27.099c-1.443,0-2.801,0.562-3.82,1.582
					c-1.021,1.021-1.582,2.376-1.582,3.818c0,1.443,0.561,2.8,1.582,3.82c1.02,1.021,2.379,1.584,3.82,1.584s2.8-0.562,3.818-1.584
					c1.021-1.021,1.584-2.377,1.584-3.82c0-1.442-0.562-2.798-1.582-3.817C35.299,27.66,33.942,27.099,32.499,27.099z"/>
			</g>
		</g>
	</g>
</g>
<g id="nyt_x5F_exporter_x5F_info" display="none">
</g>
</svg>
