<?xml version="1.0" encoding="utf-8"?>
<!-- Generator: Adobe Illustrator 16.0.0, SVG Export Plug-In . SVG Version: 6.00 Build 0)  -->
<!DOCTYPE svg PUBLIC "-//W3C//DTD SVG 1.1//EN" "http://www.w3.org/Graphics/SVG/1.1/DTD/svg11.dtd">
<svg version="1.1" id="Layer_1" xmlns="http://www.w3.org/2000/svg" xmlns:xlink="http://www.w3.org/1999/xlink" x="0px" y="0px"
	 width="64px" height="64px" viewBox="0 0 64 64" enable-background="new 0 0 64 64" xml:space="preserve">
<g>
	<g>
		<path fill="#8A5FC4" d="M63.5,49.5c0,3-14.1,5.5-31.5,5.5S0.5,52.6,0.5,49.5s14.1-1.2,31.5-1.2S63.5,46.5,63.5,49.5z"/>
		<path fill="#704D96" d="M32,48.3c17.4,0,31.5-1.8,31.5,1.2S49.4,55,32,55"/>
		<path fill="#8A5FC4" d="M32,44.9c4.1,0,8-0.1,11.6-0.2l-9.3-34.4c-1.8-1.8-2.8-1.8-4.6,0l-9.3,34.4C24,44.8,27.9,44.9,32,44.9z"/>
		<path fill="#704D96" d="M32,44.9c4.1,0,8-0.1,11.6-0.2l-9.3-34.4"/>
	</g>
	<path fill="#704D96" d="M6.8,52.8c4.9,1.1,14.9,2.4,25.2,2.4s19.4-1,25.1-2.3L6.8,52.8z"/>
	<polygon fill="#FCC03A" points="32,31.3 33.3,34 36.3,34.4 34.2,36.5 34.7,39.5 32,38.1 29.3,39.5 29.8,36.5 27.7,34.4 30.7,34 	
		"/>
</g>
</svg>
