<?xml version="1.0" encoding="utf-8"?>
<!-- Generator: Adobe Illustrator 16.0.0, SVG Export Plug-In . SVG Version: 6.00 Build 0)  -->
<!DOCTYPE svg PUBLIC "-//W3C//DTD SVG 1.1//EN" "http://www.w3.org/Graphics/SVG/1.1/DTD/svg11.dtd">
<svg version="1.1" id="Layer_1" xmlns="http://www.w3.org/2000/svg" xmlns:xlink="http://www.w3.org/1999/xlink" x="0px" y="0px"
	 width="65px" height="65px" viewBox="0 0 65 65" enable-background="new 0 0 65 65" xml:space="preserve">
<g>
	<circle fill="#D64505" cx="32.5" cy="32.5" r="29"/>
	<g>
		<g>
			<path fill="#F0F7F7" d="M31.105,27.482c1.273,1.432,0.465,4.227-1.805,6.248c-2.27,2.018-14.475,10.795-15.75,9.365
				c-1.271-1.434,8.873-12.531,11.143-14.549C26.961,26.527,29.832,26.051,31.105,27.482z"/>
			<path fill="#F0F7F7" d="M33.895,27.482c-1.273,1.432-0.465,4.227,1.805,6.248c2.27,2.018,14.475,10.795,15.75,9.365
				c1.271-1.434-8.873-12.531-11.143-14.549C38.039,26.527,35.168,26.051,33.895,27.482z"/>
			<g>
				<g>
					<g>
						<g>
							<path fill="#FFFFFF" d="M44.748,47.184c0,2.477-2.008,15.828-4.486,15.828c-2.475,0-4.482-13.352-4.482-15.828
								c0-2.475,2.008-4.484,4.482-4.484C42.74,42.699,44.748,44.709,44.748,47.184z"/>
							<path fill="#FFFFFF" d="M29.473,47.559c0,2.477-2.008,15.828-4.486,15.828c-2.475,0-4.482-13.352-4.482-15.828
								c0-2.475,2.008-4.484,4.482-4.484C27.465,43.074,29.473,45.084,29.473,47.559z"/>
							<g>
								<g>
									<path fill="#CE1111" d="M45.15,41.635c0,16.037-5.662,10.697-12.65,10.697c-6.986,0-12.65,5.34-12.65-10.697
										c0-9.17,5.666-16.604,12.65-16.604C39.486,25.031,45.15,32.465,45.15,41.635z"/>
									<path fill="#F0F7F7" d="M46.15,41.635c0,16.037-6.662,15.697-13.65,15.697c-6.986,0-13.65,0.34-13.65-15.697
										c0-9.17,6.666-16.604,13.65-16.604C39.486,25.031,46.15,32.465,46.15,41.635z"/>
									<path fill="#FFFFFF" d="M32.5,25.031c-6.764,0-12.274,6.977-12.617,15.744c0.446,13.695,5.923,8.807,12.617,8.807
										c6.696,0,12.17,4.889,12.617-8.807C44.774,32.008,39.265,25.031,32.5,25.031z"/>
									<g>
										<path fill="#FFFFFF" d="M48.871,17.389c0,7.998-7.33,12.02-16.369,12.02c-9.041,0-16.373-4.021-16.373-12.02
											c0-8.002,7.332-15.775,16.373-15.775C41.541,1.613,48.871,9.387,48.871,17.389z"/>
										<rect x="24.984" y="12.986" fill="#113E49" width="16.125" height="0.584"/>
										<path fill="#F0F7F7" d="M48.871,17.389c0,7.998-7.33,12.02-16.369,12.02c-9.041,0-16.373-4.021-16.373-12.02"/>
									</g>
								</g>
							</g>
						</g>
					</g>
				</g>
				<g>
					<g>
						<circle fill="#113E49" cx="24.716" cy="13.319" r="1.464"/>
						<path d="M26.18,13.319c0,0.811-0.656,1.465-1.465,1.465s-1.463-0.654-1.463-1.465"/>
						<g>
							<path fill="#F0F7F7" d="M27.604,16.374c-0.078,0-0.158-0.028-0.219-0.092c-0.715-0.713-1.664-1.107-2.672-1.107h-0.002
								c-1.008,0-1.955,0.395-2.666,1.107c-0.121,0.121-0.316,0.123-0.436,0c-0.121-0.117-0.125-0.312-0.004-0.434
								c0.83-0.83,1.932-1.289,3.105-1.289h0.002c1.176,0,2.279,0.455,3.111,1.287c0.119,0.119,0.119,0.318,0,0.436
								C27.764,16.346,27.686,16.374,27.604,16.374z"/>
						</g>
					</g>
					<g>
						<circle fill="#113E49" cx="40.286" cy="13.319" r="1.464"/>
						<path d="M38.822,13.319c0,0.811,0.654,1.465,1.465,1.465c0.809,0,1.463-0.654,1.463-1.465"/>
						<g>
							<path fill="#F0F7F7" d="M37.398,16.374c0.076,0,0.156-0.028,0.217-0.092c0.715-0.713,1.664-1.107,2.672-1.107h0.002
								c1.008,0,1.957,0.395,2.668,1.107c0.119,0.121,0.314,0.123,0.436,0c0.121-0.117,0.123-0.312,0.002-0.434
								c-0.826-0.83-1.932-1.289-3.105-1.289h-0.002c-1.174,0-2.277,0.455-3.111,1.287c-0.117,0.119-0.117,0.318,0,0.436
								C37.238,16.346,37.316,16.374,37.398,16.374z"/>
						</g>
					</g>
				</g>
			</g>
		</g>
	</g>
</g>
</svg>
