<?xml version="1.0" encoding="utf-8"?>
<!-- Generator: Adobe Illustrator 16.0.0, SVG Export Plug-In . SVG Version: 6.00 Build 0)  -->
<!DOCTYPE svg PUBLIC "-//W3C//DTD SVG 1.1//EN" "http://www.w3.org/Graphics/SVG/1.1/DTD/svg11.dtd">
<svg version="1.1" xmlns="http://www.w3.org/2000/svg" xmlns:xlink="http://www.w3.org/1999/xlink" x="0px" y="0px" width="65px"
	 height="65px" viewBox="0 0 65 65" enable-background="new 0 0 65 65" xml:space="preserve">
<g id="Layer_1">
	<g>
		<g>
			<g>
				<g>
					<path fill="#BFD1D0" d="M61.448,32.501c0,15.987-12.961,28.946-28.947,28.946S3.552,48.488,3.552,32.501
						c0-15.991,12.963-28.948,28.949-28.948S61.448,16.51,61.448,32.501z"/>
				</g>
				<g>
					<path fill="#A6BCBC" d="M32.501,3.553c15.986,0,28.947,12.957,28.947,28.948c0,15.987-12.961,28.946-28.947,28.946"/>
				</g>
				<g>
					<path fill="#313D44" d="M32.501,63.947c-17.341,0-31.449-14.106-31.449-31.446c0-17.341,14.108-31.448,31.449-31.448
						c17.34,0,31.447,14.107,31.447,31.448C63.948,49.841,49.841,63.947,32.501,63.947z M32.501,6.053
						c-14.584,0-26.449,11.864-26.449,26.448c0,14.583,11.865,26.446,26.449,26.446s26.447-11.863,26.447-26.446
						C58.948,17.917,47.085,6.053,32.501,6.053z"/>
				</g>
			</g>
			<g>
				<g>
					<line fill="#27C4CC" x1="53.356" y1="11.644" x2="11.644" y2="53.356"/>
				</g>
				<g>
					<path fill="#FF9D00" d="M11.644,55.856c-0.641,0-1.279-0.244-1.768-0.732c-0.977-0.977-0.977-2.559,0-3.535L51.589,9.876
						c0.977-0.977,2.559-0.977,3.535,0s0.977,2.559,0,3.535L13.411,55.124C12.923,55.612,12.282,55.856,11.644,55.856z"/>
				</g>
			</g>
		</g>
		<g>
			<g>
				<circle fill="#313D44" cx="24.434" cy="28.208" r="1.062"/>
			</g>
			<g>
				<circle fill="#313D44" cx="27.306" cy="25.335" r="1.063"/>
			</g>
			<g>
				<circle fill="#313D44" cx="30.178" cy="22.462" r="1.063"/>
			</g>
		</g>
	</g>
</g>
<g id="nyt_x5F_exporter_x5F_info" display="none">
</g>
</svg>
