<?xml version="1.0" encoding="utf-8"?>
<!-- Generator: Adobe Illustrator 16.0.0, SVG Export Plug-In . SVG Version: 6.00 Build 0)  -->
<!DOCTYPE svg PUBLIC "-//W3C//DTD SVG 1.1//EN" "http://www.w3.org/Graphics/SVG/1.1/DTD/svg11.dtd">
<svg version="1.1" id="Layer_1" xmlns="http://www.w3.org/2000/svg" xmlns:xlink="http://www.w3.org/1999/xlink" x="0px" y="0px"
	 width="64px" height="64px" viewBox="0 0 64 64" enable-background="new 0 0 64 64" xml:space="preserve">
<g>
	<g>
		<g>
			<g>
				<g>
					<g>
						<g>
							<path fill="#F7910B" d="M62.3,39.4c0,13-11.9,23.5-30.3,23.5c-18.4,0-30.3-10.5-30.3-23.5S13.6,6.9,32,6.9
								C50.4,6.9,62.3,26.4,62.3,39.4z"/>
						</g>
						<g>
							<path fill="#F7910B" d="M62.3,39.4c0,13-11.9,19.5-30.3,19.5c-18.4,0-30.3-6.5-30.3-19.5S13.6,4.9,32,4.9
								C50.4,4.9,62.3,26.4,62.3,39.4z"/>
						</g>
						<g>
							<path fill="#F9A908" d="M32,4.9c18.4,0,30.3,21.5,30.3,34.5S50.4,58.9,32,58.9"/>
						</g>
						<g>
							<path fill="#F9A908" d="M62.3,39.4c0,13-11.9,19.5-30.3,19.5c-18.4,0-30.3-6.5-30.3-19.5S13.6,6.9,32,6.9
								C50.4,6.9,62.3,26.4,62.3,39.4z"/>
						</g>
						<g>
							<path fill="#F9C55D" d="M1.7,39.4c0-13,11.9-32.5,30.3-32.5"/>
						</g>
						<g>
							<path fill="#F7910B" d="M32,6.9c18.4,0,30.3,19.5,30.3,32.5S50.4,62.9,32,62.9"/>
						</g>
						<g>
							<path fill="#EA7103" d="M32,6.9c18.4,0,30.3,19.5,30.3,32.5"/>
						</g>
						<g>
							<g>
								<path fill="#F9C55D" d="M27.8,37.2c0,1.2-3.5,0.7-7.8,0.7c-4.3,0-7.8,0.6-7.8-0.7c0-1.2,3.5-2.2,7.8-2.2
									C24.3,35,27.8,36,27.8,37.2z"/>
							</g>
							<g>
								<path fill="#F9A908" d="M51.8,37.2c0,1.2-3.5,0.7-7.8,0.7s-7.8,0.6-7.8-0.7c0-1.2,3.5-2.2,7.8-2.2S51.8,36,51.8,37.2z"/>
							</g>
						</g>
						<g>
							<circle fill="#F7910B" cx="10.3" cy="36.4" r="0.6"/>
						</g>
						<g>
							<circle fill="#F7910B" cx="5.8" cy="38.4" r="1.1"/>
						</g>
						<g>
							<circle fill="#F7910B" cx="8.8" cy="34.4" r="0.2"/>
						</g>
						<g>
							<circle fill="#F7910B" cx="13.4" cy="36.2" r="0.2"/>
						</g>
						<g>
							<circle fill="#F9A908" cx="52.6" cy="36.7" r="0.8"/>
						</g>
						<g>
							<circle fill="#F9A908" cx="55.1" cy="38.1" r="0.2"/>
						</g>
						<g>
							<circle fill="#F9A908" cx="49.8" cy="29.3" r="0.3"/>
						</g>
						<g>
							<circle fill="#F9A908" cx="49.3" cy="40.9" r="1.3"/>
						</g>
						<g>
							<circle fill="#F9A908" cx="56.5" cy="41" r="0.6"/>
						</g>
						<g>
							<circle fill="#F7910B" cx="9.3" cy="40.4" r="0.5"/>
						</g>
						<g>
							<circle fill="#F7910B" cx="10.1" cy="32" r="0.4"/>
						</g>
						<g>
							<circle fill="#F9A908" cx="4.8" cy="18.2" r="1.1"/>
						</g>
						<g>
							<circle fill="#F9A908" cx="8" cy="14.7" r="0.6"/>
						</g>
						<g>
							<circle fill="#F9A908" cx="59.2" cy="20.6" r="0.2"/>
						</g>
						<g>
							<circle fill="#F9A908" cx="58.4" cy="17.7" r="0.8"/>
						</g>
						<g>
							<path fill="#F9A908" d="M61.5,18.2c0,0.3-0.2,0.5-0.5,0.5c-0.3,0-0.5-0.2-0.5-0.5c0-0.3,0.2-0.5,0.5-0.5
								C61.2,17.7,61.5,18,61.5,18.2z"/>
						</g>
						<g>
							<circle fill="#F9A908" cx="6" cy="21.2" r="0.6"/>
						</g>
					</g>
				</g>
			</g>
			<g>
				<g>
					<g>
						<circle fill="#FFFFFF" cx="20.7" cy="40.7" r="9.3"/>
						<path fill="#756A49" d="M20.7,51.7c-6.1,0-11-4.9-11-11s4.9-11,11-11c6.1,0,11,4.9,11,11S26.7,51.7,20.7,51.7z M20.7,33
							c-4.2,0-7.7,3.4-7.7,7.7s3.4,7.7,7.7,7.7c4.2,0,7.7-3.4,7.7-7.7S24.9,33,20.7,33z"/>
					</g>
					<g>
						<path fill="#FFFFFF" d="M52.7,40.7c0,5.2-4.2,9.3-9.3,9.3c-5.2,0-9.3-4.2-9.3-9.3s4.2-9.3,9.3-9.3
							C48.5,31.4,52.7,35.6,52.7,40.7z"/>
						<path fill="#756A49" d="M43.3,51.7c-6.1,0-11-4.9-11-11s4.9-11,11-11c6.1,0,11,4.9,11,11S49.4,51.7,43.3,51.7z M43.3,33
							c-4.2,0-7.7,3.4-7.7,7.7s3.4,7.7,7.7,7.7c4.2,0,7.7-3.4,7.7-7.7S47.6,33,43.3,33z"/>
					</g>
				</g>
				<g>
					<g>
						<circle fill="#CECDCC" cx="20.6" cy="41.2" r="3.5"/>
					</g>
					<g>
						<circle fill="#CECDCC" cx="43.4" cy="41.2" r="3.5"/>
					</g>
					<g>
						<circle fill="#1E4784" cx="20.6" cy="40.2" r="3.5"/>
					</g>
					<g>
						<path fill="#00233F" d="M20.6,36.7c1.9,0,3.5,1.6,3.5,3.5s-1.6,3.5-3.5,3.5"/>
					</g>
					<g>
						<circle fill="#1E4784" cx="43.4" cy="40.2" r="3.5"/>
					</g>
					<g>
						<path fill="#00233F" d="M43.4,36.7c1.9,0,3.5,1.6,3.5,3.5s-1.6,3.5-3.5,3.5"/>
					</g>
				</g>
			</g>
		</g>
		<g>
			<g>
				<line fill="#FFFFFF" x1="2" y1="38.5" x2="11" y2="38.5"/>
				<path fill="#756A49" d="M11,40H2c-0.8,0-1.5-0.7-1.5-1.5S1.2,37,2,37h9c0.8,0,1.5,0.7,1.5,1.5S11.8,40,11,40z"/>
			</g>
			<g>
				<line fill="#FFFFFF" x1="53" y1="38.5" x2="62" y2="38.5"/>
				<path fill="#756A49" d="M62,40h-9c-0.8,0-1.5-0.7-1.5-1.5S52.2,37,53,37h9c0.8,0,1.5,0.7,1.5,1.5S62.8,40,62,40z"/>
			</g>
		</g>
		<g>
			<g>
				<g>
					<g>
						<path fill="#109DA0" d="M24,20.1c0,0.6-1.5,0.2-3.2,0c-1.8-0.2-3.2,0-3.2-0.6c0-0.6,0.8-2.3,2.6-2.1
							C21.9,17.6,24.1,19.5,24,20.1z"/>
					</g>
				</g>
			</g>
			<g>
				<g>
					<g>
						<path fill="#109DA0" d="M40,20.9c0,0.6,1.5,0.2,3.2,0c1.8-0.2,3.2,0,3.2-0.6c-0.1-0.6-0.8-2.3-2.6-2.1
							C42.1,18.4,39.9,20.4,40,20.9z"/>
					</g>
				</g>
			</g>
		</g>
	</g>
	<g>
		<g>
			<path fill="#641E82" d="M42.8,7.2c0,0-1.4,12.3-23,14.4l0.6-3c0,0-6.8,3.4-6.9,8c0,0-2-13.4,1.3-19.2C19.2-0.2,27.5,0,38.3,3.2
				L42.8,7.2z"/>
		</g>
		<g>
			<path fill="#00233F" d="M38.3,3.2l4.5,3.9c0,0-1.4,12.3-23,14.4l0.6-3c0,0-6.8,3.4-6.9,8c0,0-2-13.4,1.3-19.2"/>
		</g>
		<g>
			<path fill="#00233F" d="M38.8,4.7c0,0,3.6,8.5,11.8,15.1c0,0,3.7-16.6-9.1-16.8l-4.8,0.1L38.8,4.7z"/>
		</g>
		<g>
			<path fill="#641E82" d="M41.5,3l-4.8,0.1l2.1,1.6c0,0,3.6,8.5,11.8,15.1"/>
		</g>
	</g>
	<g>
		<polygon fill="#FCF492" points="21.2,22.8 17.8,26 20.6,26 16.9,30 24.5,30 28.3,26 25.2,26 28.6,22.6 		"/>
	</g>
	<g>
		<polygon fill="#FCF492" points="12.5,48.1 10.1,53.4 14.3,49.6 		"/>
	</g>
	<g>
		<g>
			<g>
				<path fill="#F7910B" d="M39.4,54.6c0,2.6-3.3,8.1-7.4,8.1c-4.1,0-7.4-5.5-7.4-8.1"/>
			</g>
		</g>
		<g>
			<path fill="#02243E" d="M32,56.1c-3.5,0-6.5-0.8-7.9-2.2c-0.4-0.4-0.4-1.1,0-1.6s1.1-0.4,1.6,0c1,1,3.5,1.6,6.3,1.6
				s5.4-0.6,6.3-1.6c0.4-0.4,1.1-0.4,1.6,0c0.4,0.4,0.4,1.1,0,1.6C38.5,55.3,35.5,56.1,32,56.1z"/>
		</g>
	</g>
</g>
</svg>
