<?xml version="1.0" encoding="utf-8"?>
<!-- Generator: Adobe Illustrator 16.0.0, SVG Export Plug-In . SVG Version: 6.00 Build 0)  -->
<!DOCTYPE svg PUBLIC "-//W3C//DTD SVG 1.1//EN" "http://www.w3.org/Graphics/SVG/1.1/DTD/svg11.dtd">
<svg version="1.1" id="Layer_1" xmlns="http://www.w3.org/2000/svg" xmlns:xlink="http://www.w3.org/1999/xlink" x="0px" y="0px"
	 width="65px" height="65px" viewBox="0 0 65 65" enable-background="new 0 0 65 65" xml:space="preserve">
<g>
	<g>
		<g>
			<g>
				<g>
					<g>
						<path fill="#F2860F" d="M33.082,30.862c-0.111,1.912-2.658,3.317-5.693,3.143c-3.031-0.179-17.869-2.603-17.76-4.515
							c0.115-1.913,15.137-2.588,18.168-2.409C30.826,27.257,33.194,28.95,33.082,30.862z"/>
					</g>
					<g>
						<path fill="#F2860F" d="M31.917,30.074c0.111-1.912,2.659-3.316,5.695-3.143c3.03,0.18,17.867,2.604,17.759,4.516
							c-0.113,1.912-15.135,2.588-18.168,2.408C34.174,33.68,31.805,31.986,31.917,30.074z"/>
					</g>
					<g>
						<path fill="#104956" d="M29.625,46.446c0,2.476-2.008,15.827-4.486,15.827c-2.475,0-4.482-13.352-4.482-15.827
							s2.008-4.484,4.482-4.484C27.617,41.962,29.625,43.971,29.625,46.446z"/>
						<path fill="#104956" d="M44.65,46.446c0,2.476-2.008,15.827-4.486,15.827c-2.475,0-4.482-13.352-4.482-15.827
							s2.008-4.484,4.482-4.484C42.643,41.962,44.65,43.971,44.65,46.446z"/>
					</g>
					<path fill="#F2860F" d="M45.303,40.521c0,16.038-5.662,10.697-12.65,10.697c-6.986,0-12.65,5.341-12.65-10.697
						c0-9.17,5.666-16.603,12.65-16.603C39.639,23.919,45.303,31.352,45.303,40.521z"/>
					<path fill="#D36C05" d="M23.23,29.47c2.666,1.211,5.912,1.825,9.424,1.825c3.51,0,6.754-0.614,9.42-1.824
						c-2.316-3.4-5.674-5.552-9.422-5.552S25.549,26.07,23.23,29.47z"/>
					<g>
						<path fill="#F45188" d="M30.186,62.354c0,1.896-2.26,2.146-5.045,2.146s-5.045-0.249-5.045-2.146
							c0-1.897,2.26-4.508,5.045-4.508S30.186,60.457,30.186,62.354z"/>
						<path fill="#D83573" d="M30.186,62.354c0,1.896-2.26,2.146-5.045,2.146s-5.045-0.249-5.045-2.146"/>
					</g>
					<g>
						<path fill="#F45188" d="M45.211,62.354c0,1.896-2.26,2.146-5.045,2.146s-5.045-0.249-5.045-2.146
							c0-1.897,2.26-4.508,5.045-4.508S45.211,60.457,45.211,62.354z"/>
						<path fill="#D83573" d="M45.211,62.354c0,1.896-2.26,2.146-5.045,2.146s-5.045-0.249-5.045-2.146"/>
					</g>
					<g>
						<path fill="#CE5715" d="M49.023,16.275c0,7.999-7.33,12.02-16.369,12.02c-9.041,0-16.373-4.021-16.373-12.02
							c0-8.001,7.332-15.775,16.373-15.775C41.693,0.5,49.023,8.274,49.023,16.275z"/>
						<path fill="#F9A9A0" d="M49.023,16.275c0,7.999-7.33,12.02-16.369,12.02c-9.041,0-16.373-4.021-16.373-12.02
							c0-8.001,5.016-10.775,14.057-10.775C39.377,5.5,49.023,8.274,49.023,16.275z"/>
						<path fill="#FF9997" d="M49.023,16.275c0,7.999-7.33,12.02-16.369,12.02c-9.041,0-16.373-4.021-16.373-12.02"/>
					</g>
					<g>
						<g>
							<circle fill="#113E49" cx="22.493" cy="11.154" r="1.464"/>
							<path d="M23.957,11.154c0,0.811-0.656,1.465-1.465,1.465s-1.463-0.654-1.463-1.465"/>
							<g>
								<path fill="#FFD3C5" d="M25.381,14.208c-0.078,0-0.158-0.028-0.219-0.091c-0.715-0.714-1.664-1.107-2.672-1.107h-0.002
									c-1.008,0-1.955,0.394-2.666,1.106c-0.121,0.121-0.316,0.124-0.436,0.001c-0.121-0.117-0.125-0.312-0.004-0.434
									c0.83-0.831,1.932-1.29,3.105-1.29h0.002c1.176,0,2.279,0.456,3.111,1.288c0.119,0.119,0.119,0.318,0,0.436
									C25.541,14.18,25.463,14.208,25.381,14.208z"/>
							</g>
						</g>
						<g>
							<circle fill="#113E49" cx="38.063" cy="11.154" r="1.464"/>
							<path d="M36.6,11.154c0,0.811,0.654,1.465,1.465,1.465c0.809,0,1.463-0.654,1.463-1.465"/>
							<g>
								<path fill="#FFD3C5" d="M35.176,14.208c0.076,0,0.156-0.028,0.217-0.091c0.715-0.714,1.664-1.107,2.672-1.107h0.002
									c1.008,0,1.957,0.394,2.668,1.106c0.119,0.121,0.314,0.124,0.436,0.001c0.121-0.117,0.123-0.312,0.002-0.434
									c-0.826-0.831-1.932-1.29-3.105-1.29h-0.002c-1.174,0-2.277,0.456-3.111,1.288c-0.117,0.119-0.117,0.318,0,0.436
									C35.016,14.18,35.094,14.208,35.176,14.208z"/>
							</g>
						</g>
					</g>
				</g>
			</g>
		</g>
	</g>
	<path fill="#3E7A09" d="M39.261,41.702L39.261,41.702L39.261,41.702c-0.004-0.005-0.724-0.976-2.361-1.578
		c1.505-2.309,1.191-4.211,1.191-4.211s-1.701-0.279-3.837,0.961c-0.42-4.193-2.808-5.908-2.818-5.915v-0.001l0,0l0,0v0.001
		c-0.011,0.007-2.396,1.722-2.818,5.915c-2.136-1.24-3.837-0.961-3.837-0.961l0.002,0.002c-0.003,0.016-0.309,1.909,1.188,4.209
		c-1.637,0.604-2.354,1.573-2.357,1.577h-0.001v0.001l0,0h0.001c0.004,0.006,1.422,1.992,4.957,2.047
		c1.603,0.025,2.434-0.566,2.865-1.121c0.432,0.555,1.265,1.146,2.866,1.121C37.838,43.694,39.256,41.708,39.261,41.702
		L39.261,41.702L39.261,41.702z"/>
</g>
</svg>
