<?xml version="1.0" encoding="utf-8"?>
<!-- Generator: Adobe Illustrator 16.0.0, SVG Export Plug-In . SVG Version: 6.00 Build 0)  -->
<!DOCTYPE svg PUBLIC "-//W3C//DTD SVG 1.1//EN" "http://www.w3.org/Graphics/SVG/1.1/DTD/svg11.dtd">
<svg version="1.1" id="Layer_1" xmlns="http://www.w3.org/2000/svg" xmlns:xlink="http://www.w3.org/1999/xlink" x="0px" y="0px"
	 width="64px" height="64px" viewBox="0 0 64 64" enable-background="new 0 0 64 64" xml:space="preserve">
<g>
	<path fill="#F4CF31" d="M62,56.2c0,3.5-3,6.8-6.5,6.8h-47C5,63,2,59.7,2,56.2V12.1C2,8.6,5,6,8.5,6h47C59,6,62,8.6,62,12.1V56.2z"
		/>
	<path fill="#F2B233" d="M2.2,12.2C2.2,8.7,5,6,8.5,6h47C59,6,62,8.6,62,12.1v44.1c0,3.5-3,6.8-6.5,6.8"/>
	<path fill="#00233F" d="M55.5,6h-47C5,6,2,8.6,2,12.1V18h60v-5.9C62,8.6,59,6,55.5,6z"/>
	<path fill="#104C75" d="M62,18v-5.9C62,8.6,59,6,55.5,6H9"/>
	<g>
		<circle fill="#024651" cx="12.5" cy="27.8" r="1.6"/>
		<circle fill="#024651" cx="22.3" cy="27.8" r="1.6"/>
		<circle fill="#024651" cx="32" cy="27.8" r="1.6"/>
		<circle fill="#024651" cx="41.7" cy="27.8" r="1.6"/>
	</g>
	<g>
		<circle fill="#024651" cx="12.5" cy="36.2" r="1.6"/>
		<circle fill="#024651" cx="22.3" cy="36.2" r="1.6"/>
		<circle fill="#024651" cx="32" cy="36.2" r="1.6"/>
		<circle fill="#024651" cx="41.7" cy="36.2" r="1.6"/>
		<circle fill="#024651" cx="51.5" cy="36.2" r="1.6"/>
	</g>
	<g>
		<circle fill="#024651" cx="12.5" cy="44.6" r="1.6"/>
		<circle fill="#024651" cx="22.3" cy="44.6" r="1.6"/>
		<circle fill="#024651" cx="32" cy="44.6" r="1.6"/>
		<circle fill="#024651" cx="41.7" cy="44.6" r="1.6"/>
		<circle fill="#024651" cx="51.5" cy="44.6" r="1.6"/>
	</g>
	<g>
		<circle fill="#024651" cx="12.5" cy="53" r="1.6"/>
		<circle fill="#024651" cx="22.3" cy="53" r="1.6"/>
		<circle fill="#024651" cx="32" cy="53" r="1.6"/>
		<circle fill="#024651" cx="41.7" cy="53" r="1.6"/>
		<circle fill="#024651" cx="51.5" cy="53" r="1.6"/>
	</g>
	<g>
		<path fill="#D81665" d="M53,22.8c0-0.9-1.6-1.5-2.8-1.5c-1.8,0-3.2,1.3-3.2,2.8c0,0.6,0.2,1.2,0.6,1.6c0,0,0,0,0,0c0,0,0,0,0,0
			l5.4,5.4V22.8z"/>
		<path fill="#A3024B" d="M53,22.8c0-1,1.7-1.5,2.9-1.5c1.8,0,3.1,1.4,3.1,2.8c0,0.6-0.2,1.3-0.6,1.6c0,0,0,0,0,0l0,0L53,31.1V22.8z
			"/>
	</g>
	<g>
		<g>
			<path fill="#F4CF31" d="M19,7.3c0,1.2-0.8,2.1-2,2.1l0,0c-1.2,0-2-1-2-2.1V3.6c0-1.2,0.8-2.1,2-2.1l0,0c1.2,0,2,1,2,2.1V7.3z"/>
			<path fill="#F2B233" d="M17.1,1.5L17.1,1.5c1.2,0,1.9,1,1.9,2.1v3.7c0,1.2-0.8,2.1-2,2.1l0,0"/>
		</g>
		<g>
			<path fill="#F4CF31" d="M49,7.3c0,1.2-0.8,2.1-2,2.1l0,0c-1.2,0-2-1-2-2.1V3.6c0-1.2,0.8-2.1,2-2.1l0,0c1.2,0,2,1,2,2.1V7.3z"/>
			<path fill="#F2B233" d="M46.8,1.5L46.8,1.5c1.2,0,2.2,1,2.2,2.1v3.7c0,1.2-1,2.1-2.2,2.1l0,0"/>
		</g>
	</g>
</g>
</svg>
