<?xml version="1.0" encoding="utf-8"?>
<!-- Generator: Adobe Illustrator 16.0.0, SVG Export Plug-In . SVG Version: 6.00 Build 0)  -->
<!DOCTYPE svg PUBLIC "-//W3C//DTD SVG 1.1//EN" "http://www.w3.org/Graphics/SVG/1.1/DTD/svg11.dtd">
<svg version="1.1" xmlns="http://www.w3.org/2000/svg" xmlns:xlink="http://www.w3.org/1999/xlink" x="0px" y="0px" width="65px"
	 height="65px" viewBox="0 0 65 65" enable-background="new 0 0 65 65" xml:space="preserve">
<g id="Layer_1">
	<g>
		<g>
			<g>
				<g>
					<g>
						<path fill="#FF7F00" d="M17.592,35.767c-5.287,1.127-9.352,7.775-9.352,15.838c0,8.057,4.064,10.791,9.352,11.215V35.767z"/>
					</g>
					<path fill="#FF4800" d="M17.538,35.767c5.283,1.127,9.347,7.775,9.347,15.838c0,8.057-4.063,10.791-9.347,11.215V35.767z"/>
				</g>
				<g>
					<g>
						<path fill="#FFBC00" d="M17.584,45.337c-3.422,0.723-6.043,5.021-6.043,10.229c0,5.215,2.621,6.979,6.043,7.254V45.337z"/>
					</g>
					<path fill="#FF7F00" d="M17.549,45.337c3.41,0.723,6.038,5.021,6.038,10.229c0,5.215-2.628,6.979-6.038,7.254V45.337z"/>
				</g>
				<path fill="#B73D13" d="M17.565,60.253c-1.331,0-2.457,0.854-2.882,2.037c0.891,0.273,1.848,0.439,2.854,0.523v0.006
					c0.011-0.004,0.021-0.004,0.027-0.004c0.008,0,0.019,0,0.026,0.004v-0.006c1.002-0.084,1.961-0.25,2.853-0.523
					C20.018,61.106,18.895,60.253,17.565,60.253z"/>
			</g>
			<path fill="#FF7F00" d="M7.699,62.847c0,0.564-0.457,1.018-1.016,1.018c-0.565,0-1.02-0.453-1.02-1.018
				c0-0.562,0.454-1.018,1.02-1.018C7.242,61.829,7.699,62.284,7.699,62.847z"/>
			<path fill="#FF7F00" d="M5.393,50.495c0,1.232-1.004,2.24-2.242,2.24c-1.236,0-2.24-1.008-2.24-2.24
				c0-1.238,1.004-2.24,2.24-2.24C4.389,48.255,5.393,49.257,5.393,50.495z"/>
			<path fill="#FF7F00" d="M6.068,58.435c0,0.525-0.424,0.949-0.949,0.949c-0.527,0-0.949-0.424-0.949-0.949
				c0-0.523,0.422-0.949,0.949-0.949C5.645,57.485,6.068,57.911,6.068,58.435z"/>
			<path fill="#FFBC00" d="M6.477,53.89c0,0.186-0.15,0.34-0.34,0.34c-0.184,0-0.336-0.154-0.336-0.34
				c0-0.189,0.152-0.34,0.336-0.34C6.326,53.55,6.477,53.7,6.477,53.89z"/>
			<circle fill="#FFBC00" cx="4.237" cy="41.808" r="1.427"/>
			<circle fill="#FFBC00" cx="30.231" cy="60.606" r="2.036"/>
			<path fill="#FFBC00" d="M33.489,50.7c0,0.596-0.489,1.084-1.087,1.084c-0.6,0-1.085-0.488-1.085-1.084
				c0-0.604,0.485-1.088,1.085-1.088C33,49.612,33.489,50.097,33.489,50.7z"/>
			<path fill="#FF7F00" d="M29.959,40.651c0,0.75-0.61,1.359-1.354,1.359c-0.751,0-1.359-0.609-1.359-1.359
				c0-0.748,0.608-1.354,1.359-1.354C29.349,39.298,29.959,39.903,29.959,40.651z"/>
			<path fill="#FF7F00" d="M25.751,62.437c0,0.189-0.151,0.342-0.341,0.342c-0.186,0-0.337-0.152-0.337-0.342
				c0-0.184,0.151-0.336,0.337-0.336C25.6,62.101,25.751,62.253,25.751,62.437z"/>
			<path fill="#FFBC00" d="M10.686,35.157c0,0.412-0.333,0.744-0.75,0.744c-0.408,0-0.744-0.332-0.744-0.744s0.336-0.75,0.744-0.75
				C10.353,34.407,10.686,34.745,10.686,35.157z"/>
			<path fill="#FFBC00" d="M26.699,34.276c0,0.146-0.115,0.268-0.268,0.268c-0.151,0-0.273-0.121-0.273-0.268
				c0-0.152,0.122-0.273,0.273-0.273C26.584,34.003,26.699,34.124,26.699,34.276z"/>
			<path fill="#FFBC00" d="M15.843,32.304c0,0.342-0.272,0.613-0.612,0.613c-0.336,0-0.609-0.271-0.609-0.613
				c0-0.336,0.273-0.609,0.609-0.609C15.57,31.694,15.843,31.968,15.843,32.304z"/>
			<path fill="#FFBC00" d="M13.671,25.45c0,0.674-0.548,1.223-1.223,1.223c-0.672,0-1.222-0.549-1.222-1.223s0.55-1.221,1.222-1.221
				C13.123,24.229,13.671,24.776,13.671,25.45z"/>
		</g>
		<g>
			<path fill="#9E7343" d="M63.546,54.298c0.726,0.727,0.726,1.902,0,2.627l0,0c-0.726,0.727-1.903,0.727-2.628,0L8.941,4.952
				c-0.725-0.727-0.725-1.904,0-2.629l0,0c0.727-0.727,1.902-0.727,2.628,0L63.546,54.298z"/>
			<g>
				<g>
					<path fill="#D6D3A5" d="M25.354,6.483c1.202,1.203,1.202,3.154,0,4.355l-7.895,7.895c-1.203,1.203-3.152,1.203-4.354,0
						l-4.447-4.445c-1.202-1.203-1.202-3.154,0-4.355l7.896-7.895c1.201-1.203,3.152-1.203,4.355,0L25.354,6.483z"/>
					<path fill="#C1BC8B" d="M20.908,2.038l4.445,4.445c1.202,1.203,1.202,3.154,0,4.355l-7.895,7.895
						c-1.203,1.203-3.152,1.203-4.354,0"/>
					
						<ellipse transform="matrix(0.7072 -0.707 0.707 0.7072 -0.6349 10.8909)" fill="#9E7343" cx="12.831" cy="6.212" rx="6.351" ry="1.027"/>
					
						<ellipse transform="matrix(0.7072 -0.707 0.707 0.7072 -4.0877 19.2255)" fill="#C1BC8B" cx="21.167" cy="14.548" rx="6.351" ry="1.028"/>
				</g>
				<g>
					<path fill="#D6D3A5" d="M36.512,17.644c1.203,1.203,1.205,3.152,0.002,4.355l-7.895,7.895c-1.203,1.203-3.153,1.201-4.355,0
						l-4.446-4.447c-1.204-1.203-1.204-3.152,0-4.354l7.894-7.895c1.204-1.203,3.153-1.203,4.355,0L36.512,17.644z"/>
					<path fill="#C1BC8B" d="M32.066,13.198l4.445,4.445c1.203,1.203,1.205,3.152,0.002,4.355l-7.895,7.895
						c-1.203,1.203-3.153,1.201-4.355,0"/>
					<path fill="#9E7343" d="M28.482,12.882c0.401,0.398-1.283,2.734-3.766,5.215c-2.479,2.482-4.816,4.166-5.215,3.766
						c-0.403-0.4,1.283-2.734,3.764-5.217C25.746,14.165,28.082,12.479,28.482,12.882z"/>
					<path fill="#C1BC8B" d="M36.818,21.218c0.401,0.398-1.285,2.734-3.764,5.217c-2.482,2.48-4.817,4.166-5.219,3.764
						c-0.4-0.398,1.285-2.734,3.766-5.217C34.082,22.501,36.419,20.815,36.818,21.218z"/>
				</g>
				<g>
					<path fill="#D6D3A5" d="M47.672,28.802c1.203,1.203,1.203,3.154,0,4.355l-7.895,7.896c-1.201,1.201-3.152,1.201-4.354,0
						l-4.446-4.447c-1.201-1.203-1.201-3.152,0-4.355l7.895-7.895c1.203-1.201,3.153-1.201,4.355,0L47.672,28.802z"/>
					<path fill="#C1BC8B" d="M43.227,24.356l4.445,4.445c1.203,1.203,1.203,3.154,0,4.355l-7.895,7.896
						c-1.201,1.201-3.152,1.201-4.354,0"/>
					
						<ellipse transform="matrix(0.7072 -0.707 0.707 0.7072 -9.8793 33.2082)" fill="#9E7343" cx="35.152" cy="28.531" rx="6.352" ry="1.025"/>
					
						<ellipse transform="matrix(0.7071 -0.7071 0.7071 0.7071 -13.3319 41.5483)" fill="#C1BC8B" cx="43.487" cy="36.867" rx="6.352" ry="1.026"/>
				</g>
			</g>
			<path fill="#9E7343" d="M54.477,45.292c0,0.535-0.435,0.967-0.969,0.967l0,0c-0.535,0-0.969-0.432-0.969-0.967v-7.328
				c0.003-0.531,0.436-0.967,0.969-0.967l0,0c0.534,0,0.969,0.434,0.969,0.969V45.292z"/>
			<path fill="#9E7343" d="M48.776,42.632c0.535,0,0.969,0.434,0.969,0.969l0,0c0,0.533-0.434,0.965-0.968,0.967H41.45
				c-0.534,0-0.967-0.434-0.967-0.967l0,0c0-0.535,0.433-0.969,0.968-0.969H48.776z"/>
			<path fill="#9E7343" d="M55.955,40.829c0.16,0,0.29,0.129,0.29,0.289l0,0c0,0.158-0.13,0.289-0.29,0.289h-2.188
				c-0.16,0-0.289-0.129-0.289-0.289l0,0c0-0.16,0.129-0.289,0.289-0.289H55.955z"/>
		</g>
	</g>
</g>
<g id="nyt_x5F_exporter_x5F_info" display="none">
</g>
</svg>
