<?xml version="1.0" encoding="utf-8"?>
<!-- Generator: Adobe Illustrator 16.0.0, SVG Export Plug-In . SVG Version: 6.00 Build 0)  -->
<!DOCTYPE svg PUBLIC "-//W3C//DTD SVG 1.1//EN" "http://www.w3.org/Graphics/SVG/1.1/DTD/svg11.dtd">
<svg version="1.1" id="Layer_1" xmlns="http://www.w3.org/2000/svg" xmlns:xlink="http://www.w3.org/1999/xlink" x="0px" y="0px"
	 width="64px" height="64px" viewBox="0 0 64 64" enable-background="new 0 0 64 64" xml:space="preserve">
<g>
	<g>
		<g>
			<g>
				<path fill="#F7910B" d="M62.3,38.9c0,13-11.9,23.5-30.3,23.5c-18.4,0-30.3-10.5-30.3-23.5c0-13,11.9-32.5,30.3-32.5
					C50.4,6.4,62.3,25.9,62.3,38.9z"/>
			</g>
			<g>
				<path fill="#F7910B" d="M62.3,38.9c0,13-11.9,19.5-30.3,19.5c-18.4,0-30.3-6.5-30.3-19.5c0-13,11.9-34.5,30.3-34.5
					C50.4,4.4,62.3,25.9,62.3,38.9z"/>
			</g>
			<g>
				<path fill="#F9A908" d="M32,4.4c18.4,0,30.3,21.5,30.3,34.5c0,13-11.9,19.5-30.3,19.5"/>
			</g>
			<g>
				<path fill="#F9A908" d="M62.3,38.9c0,13-11.9,19.5-30.3,19.5c-18.4,0-30.3-6.5-30.3-19.5c0-13,11.9-32.5,30.3-32.5
					C50.4,6.4,62.3,25.9,62.3,38.9z"/>
			</g>
			<g>
				<path fill="#F9C55D" d="M1.7,38.9c0-13,11.9-32.5,30.3-32.5"/>
			</g>
			<g>
				<path fill="#F7910B" d="M32,6.4c18.4,0,30.3,19.5,30.3,32.5c0,13-11.9,23.5-30.3,23.5"/>
			</g>
			<g>
				<path fill="#EA7103" d="M32,6.4c18.4,0,30.3,19.5,30.3,32.5"/>
			</g>
			<g>
				<g>
					<path fill="#F9C55D" d="M27.8,32.2c0,1.2-3.5,0.7-7.8,0.7c-4.3,0-7.8,0.6-7.8-0.7c0-1.2,3.5-2.2,7.8-2.2
						C24.3,30,27.8,31,27.8,32.2z"/>
				</g>
				<g>
					<path fill="#F9A908" d="M51.8,32.2c0,1.2-3.5,0.7-7.8,0.7s-7.8,0.6-7.8-0.7c0-1.2,3.5-2.2,7.8-2.2S51.8,31,51.8,32.2z"/>
				</g>
			</g>
			<g>
				<circle fill="#F7910B" cx="10.3" cy="35.9" r="0.6"/>
			</g>
			<g>
				<circle fill="#F7910B" cx="5.8" cy="37.9" r="1.1"/>
			</g>
			<g>
				<circle fill="#F7910B" cx="8.8" cy="33.9" r="0.2"/>
			</g>
			<g>
				<circle fill="#F7910B" cx="13.4" cy="35.7" r="0.2"/>
			</g>
			<g>
				<circle fill="#F9A908" cx="52.6" cy="36.2" r="0.8"/>
			</g>
			<g>
				<circle fill="#F9A908" cx="55.1" cy="37.6" r="0.2"/>
			</g>
			<g>
				<circle fill="#F9A908" cx="49.8" cy="28.8" r="0.3"/>
			</g>
			<g>
				<circle fill="#F9A908" cx="49.3" cy="40.4" r="1.3"/>
			</g>
			<g>
				<circle fill="#F9A908" cx="56.5" cy="40.5" r="0.6"/>
			</g>
			<g>
				<circle fill="#F7910B" cx="9.3" cy="39.9" r="0.5"/>
			</g>
			<g>
				<circle fill="#F7910B" cx="10.1" cy="31.5" r="0.4"/>
			</g>
			<g>
				<circle fill="#F9A908" cx="4.8" cy="17.7" r="1.1"/>
			</g>
			<g>
				<path fill="#FFFFFF" d="M53.2,20.7c0-7-9.5-14.8-21.2-14.8s-21.3,7.8-21.3,14.8c0,0.7,0.1,1.7,0.3,2.9
					C10.9,30.1,12.8,38,13.8,40c0.5,1,1.4,1.7,2.6,2.2c3.9,9.9,9.5,19.3,15.6,19.3c6.2,0,11.8-9.4,15.6-19.3
					c1.2-0.5,2.1-1.2,2.6-2.2c1-2,2.9-10,2.8-16.4C53.1,22.4,53.2,21.4,53.2,20.7z"/>
			</g>
			<g>
				<path fill="#EA7103" d="M35.7,62.2c5.6,0,10.6-9.1,14.2-18.6c1.1-0.5,1.9-1.2,2.3-2.1c0.9-1.9,2.6-9.6,2.5-15.8
					c0.2-1.1,0.3-2.1,0.3-2.8c0-6.7-8.6-14.3-19.3-14.3"/>
			</g>
			<g>
				<path fill="#E5E5E5" d="M32,61.6c6.2,0,11.8-9.4,15.6-19.3c1.2-0.5,2.1-1.2,2.6-2.2c1-2,2.9-10,2.8-16.4
					c0.2-1.2,0.3-2.2,0.3-2.9c0-7-9.5-14.8-21.2-14.8"/>
			</g>
			<g>
				<circle fill="#F9A908" cx="8" cy="14.2" r="0.6"/>
			</g>
			<g>
				<circle fill="#F9A908" cx="59.2" cy="20.1" r="0.2"/>
			</g>
			<g>
				<circle fill="#F9A908" cx="58.4" cy="17.2" r="0.8"/>
			</g>
			<g>
				<circle fill="#F9A908" cx="61" cy="17.7" r="0.5"/>
			</g>
			<g>
				<circle fill="#F9A908" cx="6" cy="20.7" r="0.6"/>
			</g>
			<g>
				<g>
					<g>
						<g>
							<g>
								<path fill="#1E4784" d="M25,29.4c-0.4-0.1-0.8-0.3-1.1-0.7c-1.1-1.6-3.4-2-5-0.9c-0.7,0.5-1.8,0.3-2.3-0.4
									c-0.5-0.7-0.3-1.8,0.4-2.3c3.1-2.2,7.4-1.4,9.6,1.8c0.5,0.7,0.3,1.8-0.4,2.3C25.9,29.4,25.5,29.5,25,29.4z"/>
							</g>
						</g>
						<g>
							<g>
								<path fill="#02243E" d="M26.7,26.8c0.5,0.7,0.3,1.8-0.4,2.3c-0.4,0.3-0.8,0.3-1.2,0.3c-0.4-0.1-0.8-0.3-1.1-0.7
									c-1.1-1.6-3.4-2-5-0.9c-0.7,0.5-1.8,0.3-2.3-0.4c-0.5-0.7-0.3-1.8,0.4-2.3"/>
							</g>
						</g>
					</g>
				</g>
				<g>
					<g>
						<g>
							<g>
								<path fill="#1E4784" d="M39,29.4c0.4-0.1,0.8-0.3,1.1-0.7c1.1-1.6,3.4-2,5-0.9c0.8,0.5,1.8,0.3,2.3-0.4
									c0.5-0.7,0.3-1.8-0.4-2.3c-3.1-2.2-7.4-1.4-9.6,1.8c-0.5,0.7-0.3,1.8,0.4,2.3C38.1,29.4,38.5,29.5,39,29.4z"/>
							</g>
						</g>
						<g>
							<g>
								<path fill="#02243E" d="M37.3,26.8c-0.5,0.7-0.3,1.8,0.4,2.3c0.4,0.3,0.8,0.3,1.2,0.3c0.4-0.1,0.8-0.3,1.1-0.7
									c1.1-1.6,3.4-2,5-0.9c0.8,0.5,1.8,0.3,2.3-0.4c0.5-0.7,0.3-1.8-0.4-2.3"/>
							</g>
						</g>
					</g>
				</g>
			</g>
			<g>
				<g>
					<g>
						<g>
							<g>
								<g>
									<g>
										<path fill="#19BCA4" d="M27.7,20.9c-0.6,0.7-1.9-1-3.8-2.7c-2-1.7-3.8-2.7-3.3-3.3c0.6-0.7,2.6,0.1,4.6,1.8
											C27.1,18.4,28.3,20.3,27.7,20.9z"/>
									</g>
								</g>
							</g>
						</g>
						<g>
							<g>
								<g>
									<g>
										<path fill="#109DA0" d="M27.7,20.9c-0.6,0.7-1.9-1-3.8-2.7c-2-1.7-3.8-2.7-3.3-3.3"/>
									</g>
								</g>
							</g>
						</g>
					</g>
				</g>
				<g>
					<g>
						<g>
							<g>
								<g>
									<g>
										<path fill="#19BCA4" d="M36.3,20.9c0.6,0.7,1.9-1,3.8-2.7c2-1.7,3.8-2.7,3.3-3.3c-0.6-0.7-2.6,0.1-4.6,1.8
											C36.9,18.4,35.7,20.3,36.3,20.9z"/>
									</g>
								</g>
							</g>
						</g>
						<g>
							<g>
								<g>
									<g>
										<path fill="#109DA0" d="M36.3,20.9c0.6,0.7,1.9-1,3.8-2.7c2-1.7,3.8-2.7,3.3-3.3"/>
									</g>
								</g>
							</g>
						</g>
					</g>
				</g>
			</g>
		</g>
		<g>
			<polygon fill="#1E4784" points="35.1,61.4 32,62.5 28.9,61.4 32,51.3 			"/>
		</g>
		<g>
			<polygon fill="#02243E" points="35.1,61.4 32,62.5 32.7,60.3 32,51.3 			"/>
		</g>
		<g>
			<polygon fill="#C6C6C2" points="35.3,43 28.7,43 27.7,40 36.3,40 			"/>
		</g>
		<g>
			<polygon fill="#C6C6C2" points="35.3,49 28.7,49 27.7,48 36.3,48 			"/>
		</g>
		<g>
			<g>
				<polygon fill="#1E4784" points="19.5,37.2 23.5,44 32,44 32,46 22.7,46 				"/>
			</g>
			<g>
				<polygon fill="#02243E" points="44.5,37.2 40.5,44 32,44 32,46 41.3,46 				"/>
			</g>
		</g>
		<g>
			<polygon fill="#E5E5E5" points="16.6,35 25.6,35 27.2,38.9 			"/>
		</g>
		<g>
			<polygon fill="#FFFFFF" points="47.4,35 38.4,35 36.8,38.9 			"/>
		</g>
	</g>
	<g>
		<circle fill="#F7910B" cx="12.1" cy="6" r="3.3"/>
	</g>
	<g>
		<circle fill="#F7910B" cx="40.6" cy="2.7" r="1"/>
	</g>
	<g>
		<circle fill="#F7910B" cx="54.7" cy="6.2" r="2.8"/>
	</g>
	<g>
		<circle fill="#F7910B" cx="23.8" cy="2.1" r="0.6"/>
	</g>
</g>
</svg>
