<?xml version="1.0" encoding="utf-8"?>
<!-- Generator: Adobe Illustrator 16.0.0, SVG Export Plug-In . SVG Version: 6.00 Build 0)  -->
<!DOCTYPE svg PUBLIC "-//W3C//DTD SVG 1.1//EN" "http://www.w3.org/Graphics/SVG/1.1/DTD/svg11.dtd">
<svg version="1.1" id="Layer_1" xmlns="http://www.w3.org/2000/svg" xmlns:xlink="http://www.w3.org/1999/xlink" x="0px" y="0px"
	 width="65px" height="65px" viewBox="0 0 65 65" enable-background="new 0 0 65 65" xml:space="preserve">
<g>
	<g>
		<g>
			<g>
				<g>
					<path fill="#824323" d="M33.083,30.862c-0.11,1.912-2.661,3.317-5.694,3.143c-3.031-0.179-17.868-2.603-17.76-4.515
						c0.115-1.913,15.137-2.588,18.168-2.409C30.827,27.257,33.194,28.95,33.083,30.862z"/>
				</g>
				<g>
					<path fill="#824323" d="M31.917,30.074c0.111-1.912,2.66-3.316,5.695-3.143c3.031,0.18,17.867,2.604,17.759,4.516
						c-0.115,1.912-15.137,2.588-18.168,2.408C34.172,33.68,31.805,31.986,31.917,30.074z"/>
				</g>
				<g>
					<path fill="#70683A" d="M29.625,46.446c0,2.476-2.008,15.827-4.486,15.827c-2.475,0-4.482-13.352-4.482-15.827
						s2.008-4.484,4.482-4.484C27.617,41.962,29.625,43.971,29.625,46.446z"/>
					<path fill="#70683A" d="M44.65,46.446c0,2.476-2.008,15.827-4.486,15.827c-2.475,0-4.482-13.352-4.482-15.827
						s2.008-4.484,4.482-4.484C42.643,41.962,44.65,43.971,44.65,46.446z"/>
				</g>
				<path fill="#824323" d="M45.303,40.521c0,16.038-5.662,10.697-12.65,10.697c-6.986,0-12.65,5.341-12.65-10.697
					c0-9.17,5.666-16.603,12.65-16.603C39.639,23.919,45.303,31.352,45.303,40.521z"/>
				<path fill="#60311D" d="M23.23,29.47c2.666,1.211,5.912,1.825,9.424,1.825c3.51,0,6.755-0.614,9.42-1.824
					c-2.316-3.4-5.674-5.552-9.422-5.552C28.905,23.919,25.548,26.07,23.23,29.47z"/>
				<g>
					<path fill="#A1C11E" d="M30.186,62.354c0,1.896-2.26,2.146-5.045,2.146s-5.045-0.249-5.045-2.146
						c0-1.897,2.26-4.508,5.045-4.508S30.186,60.457,30.186,62.354z"/>
					<path fill="#93AA0F" d="M30.186,62.354c0,1.896-2.26,2.146-5.045,2.146s-5.045-0.249-5.045-2.146"/>
				</g>
				<g>
					<path fill="#A1C11E" d="M45.211,62.354c0,1.896-2.26,2.146-5.045,2.146s-5.045-0.249-5.045-2.146
						c0-1.897,2.26-4.508,5.045-4.508S45.211,60.457,45.211,62.354z"/>
					<path fill="#93AA0F" d="M45.211,62.354c0,1.896-2.26,2.146-5.045,2.146s-5.045-0.249-5.045-2.146"/>
				</g>
				<g>
					<path fill="#CE5715" d="M49.023,16.275c0,7.999-7.33,12.02-16.369,12.02c-9.041,0-16.373-4.021-16.373-12.02
						c0-8.001,7.332-15.775,16.373-15.775C41.693,0.5,49.023,8.274,49.023,16.275z"/>
					<path fill="#F9A9A0" d="M49.023,16.275c0,7.999-7.33,12.02-16.369,12.02c-9.041,0-16.373-4.021-16.373-12.02
						c0-8.001,7.332-9.192,16.373-9.192C41.693,7.083,49.023,8.274,49.023,16.275z"/>
					<path fill="#FF9997" d="M49.023,16.275c0,7.999-7.33,12.02-16.369,12.02c-9.041,0-16.373-4.021-16.373-12.02"/>
				</g>
				<g>
					<g>
						<circle fill="#113E49" cx="24.868" cy="20.07" r="1.464"/>
						<path d="M26.332,20.07c0,0.811-0.656,1.465-1.465,1.465s-1.463-0.654-1.463-1.465"/>
						<g>
							<path fill="#FFD3C5" d="M27.756,23.124c-0.078,0-0.158-0.028-0.219-0.091c-0.715-0.714-1.664-1.107-2.672-1.107h-0.002
								c-1.008,0-1.955,0.394-2.666,1.106c-0.121,0.121-0.316,0.124-0.436,0.001c-0.121-0.117-0.125-0.312-0.004-0.434
								c0.83-0.831,1.932-1.29,3.105-1.29h0.002c1.176,0,2.279,0.456,3.111,1.288c0.119,0.119,0.119,0.318,0,0.436
								C27.916,23.096,27.838,23.124,27.756,23.124z"/>
						</g>
					</g>
					<g>
						<circle fill="#113E49" cx="40.438" cy="20.07" r="1.464"/>
						<path d="M38.975,20.07c0,0.811,0.654,1.465,1.465,1.465c0.809,0,1.463-0.654,1.463-1.465"/>
						<g>
							<path fill="#FFD3C5" d="M37.551,23.124c0.076,0,0.156-0.028,0.217-0.091c0.715-0.714,1.664-1.107,2.672-1.107h0.002
								c1.008,0,1.957,0.394,2.668,1.106c0.119,0.121,0.314,0.124,0.436,0.001c0.121-0.117,0.123-0.312,0.002-0.434
								c-0.826-0.831-1.932-1.29-3.105-1.29h-0.002c-1.174,0-2.277,0.456-3.111,1.288c-0.117,0.119-0.117,0.318,0,0.436
								C37.391,23.096,37.469,23.124,37.551,23.124z"/>
						</g>
					</g>
				</g>
			</g>
			<path fill="#870E0E" d="M34.637,22.169c0,1.754-0.889,3.182-1.984,3.182c-1.094,0-1.984-1.428-1.984-3.182
				c0-1.758,0.891-0.709,1.984-0.709C33.748,21.46,34.637,20.411,34.637,22.169z"/>
			<path fill="#AA1111" d="M32.65,22.483c-0.691,0-1.299,0.57-1.654,1.43c0.355,0.864,0.965,1.438,1.656,1.438
				s1.299-0.57,1.654-1.43C33.951,23.057,33.342,22.483,32.65,22.483z"/>
		</g>
	</g>
	<polygon fill="#CE5715" points="44.775,7.457 42.463,5.145 40.502,7.106 38.539,5.145 36.576,7.106 34.615,5.145 32.652,7.106 
		30.691,5.145 28.729,7.106 26.766,5.145 24.805,7.106 22.842,5.145 20.529,7.457 22.842,9.77 24.805,7.808 26.766,9.77 
		28.729,7.808 30.691,9.77 32.652,7.808 34.615,9.77 36.576,7.808 38.539,9.77 40.502,7.808 42.463,9.77 	"/>
	<g>
		<g>
			<g>
				<g>
					<path fill="#824323" d="M24.922,24.833c-3.308,0-6-2.691-6-6s2.692-6,6-6c3.31,0,6,2.691,6,6S28.231,24.833,24.922,24.833z
						 M24.922,14.833c-2.205,0-4,1.794-4,4s1.795,4,4,4c2.207,0,4-1.794,4-4S27.129,14.833,24.922,14.833z"/>
				</g>
				<g>
					<path fill="#824323" d="M19.549,19.833h-2.917c-0.553,0-1-0.447-1-1s0.447-1,1-1h2.917c0.553,0,1,0.447,1,1
						S20.102,19.833,19.549,19.833z"/>
				</g>
			</g>
			<g>
				<g>
					<path fill="#824323" d="M40.382,24.833c-3.31,0-6-2.691-6-6s2.69-6,6-6c3.308,0,6,2.691,6,6S43.689,24.833,40.382,24.833z
						 M40.382,14.833c-2.206,0-4,1.794-4,4s1.794,4,4,4s4-1.794,4-4S42.588,14.833,40.382,14.833z"/>
				</g>
				<g>
					<path fill="#824323" d="M48.672,19.833h-2.917c-0.553,0-1-0.447-1-1s0.447-1,1-1h2.917c0.554,0,1,0.447,1,1
						S49.226,19.833,48.672,19.833z"/>
				</g>
			</g>
		</g>
		<g>
			<rect x="30.012" y="15.583" fill="#824323" width="6" height="2"/>
		</g>
	</g>
	<g>
		<circle fill="#A1C11E" cx="26.329" cy="40.566" r="0.181"/>
		<circle fill="#A1C11E" cx="26.683" cy="41.111" r="0.117"/>
		<circle fill="#A1C11E" cx="26.553" cy="39.919" r="0.104"/>
		<circle fill="#A1C11E" cx="26.074" cy="41.978" r="0.297"/>
		<circle fill="#A1C11E" cx="25.677" cy="38.663" r="0.401"/>
		<path fill="#A1C11E" d="M37.168,40.908c-0.16-0.154-0.316-0.293-0.475-0.423c0.322-0.213,0.655-0.483,0.998-0.837
			c2.928-3.021,2.461-5.886,2.456-5.911l0.002-0.001h-0.002v-0.002l-0.001,0.002c-0.025-0.005-2.891-0.472-5.912,2.456
			c-0.645,0.626-1.031,1.223-1.249,1.767c-0.116-0.173-0.272-0.303-0.446-0.303c-0.172,0-0.329,0.13-0.443,0.304
			c-0.22-0.545-0.607-1.142-1.25-1.768c-3.025-2.933-5.895-2.46-5.912-2.456l-0.002-0.002v0.002l0,0l0,0
			c-0.002,0.02-0.477,2.888,2.457,5.912c0.344,0.354,0.676,0.624,0.998,0.837c-0.156,0.13-0.316,0.269-0.475,0.423
			c-1.906,1.849-0.803,3.371-0.796,3.38l0,0h0.001v0.001l0,0c0.008,0.006,1.531,1.108,3.38-0.797
			c0.352-0.363,0.632-0.722,0.864-1.07c0.006,0.028,0.012,0.062,0.02,0.09c0.001-0.005,0.004-0.009,0.004-0.009
			c0.043,0.16,0.088,0.313,0.141,0.455c0,0-0.004,0.005-0.006,0.009c0.022,0.058,0.047,0.104,0.068,0.157
			c0.038,0.087,0.072,0.172,0.11,0.249c0.011,0.021,0.019,0.046,0.029,0.066c0,0,0.003-0.003,0.004-0.005
			c0.102,0.195,0.205,0.361,0.307,0.498l-0.004,0.002c0.018,0.023,0.032,0.04,0.05,0.062c0.035,0.047,0.068,0.088,0.102,0.127
			c0.037,0.043,0.069,0.079,0.102,0.114c0.03,0.03,0.055,0.058,0.08,0.082c0.035,0.034,0.062,0.058,0.087,0.08
			c0.015,0.013,0.027,0.025,0.038,0.034c0.028,0.024,0.047,0.037,0.047,0.037l0.002,0.002v-0.001c0,0,0.019-0.014,0.047-0.038
			c0.012-0.009,0.023-0.021,0.039-0.034c0.025-0.022,0.051-0.046,0.086-0.08c0.025-0.024,0.051-0.052,0.078-0.081
			c0.033-0.035,0.067-0.073,0.105-0.118c0.033-0.037,0.062-0.075,0.097-0.12c0.019-0.023,0.035-0.041,0.054-0.066l-0.004-0.002
			c0.102-0.137,0.203-0.303,0.305-0.498c0,0,0.003,0.003,0.005,0.005c0.009-0.018,0.015-0.04,0.024-0.058
			c0.043-0.085,0.081-0.179,0.121-0.275c0.02-0.049,0.043-0.088,0.062-0.14l-0.005-0.008c0.053-0.143,0.098-0.295,0.139-0.46
			l0.007,0.013c0.007-0.028,0.012-0.062,0.019-0.09c0.232,0.349,0.513,0.708,0.865,1.07c1.848,1.905,3.371,0.803,3.38,0.797l0,0
			l0.001-0.001l0,0l0,0C37.971,44.279,39.072,42.757,37.168,40.908z M32.734,39.199c-0.018-0.006-0.034-0.013-0.049-0.018
			c0.017-0.004,0.035-0.005,0.051-0.011C32.734,39.179,32.734,39.19,32.734,39.199z M32.348,39.198
			c-0.001-0.008-0.002-0.02-0.002-0.027c0.016,0.006,0.033,0.007,0.049,0.011C32.38,39.187,32.363,39.192,32.348,39.198z"/>
		<circle fill="#A1C11E" cx="38.751" cy="40.567" r="0.181"/>
		<circle fill="#A1C11E" cx="38.396" cy="41.111" r="0.117"/>
		<circle fill="#A1C11E" cx="38.527" cy="39.919" r="0.104"/>
		<circle fill="#A1C11E" cx="39.006" cy="41.978" r="0.297"/>
		<circle fill="#A1C11E" cx="39.402" cy="38.663" r="0.401"/>
	</g>
</g>
</svg>
