<?xml version="1.0" encoding="utf-8"?>
<!-- Generator: Adobe Illustrator 16.0.0, SVG Export Plug-In . SVG Version: 6.00 Build 0)  -->
<!DOCTYPE svg PUBLIC "-//W3C//DTD SVG 1.1//EN" "http://www.w3.org/Graphics/SVG/1.1/DTD/svg11.dtd">
<svg version="1.1" xmlns="http://www.w3.org/2000/svg" xmlns:xlink="http://www.w3.org/1999/xlink" x="0px" y="0px" width="65px"
	 height="65px" viewBox="0 0 65 65" enable-background="new 0 0 65 65" xml:space="preserve">
<g id="Layer_1">
	<g>
		<g>
			<g>
				<g>
					<circle fill="#FF6510" cx="23.883" cy="32.5" r="18.957"/>
				</g>
				<g>
					<path fill="#FF240D" d="M23.883,13.544c10.468,0,18.957,8.486,18.957,18.956c0,10.468-8.489,18.956-18.957,18.956"/>
				</g>
				<g>
					<path fill="#7C180B" d="M23.883,53.913c-11.807,0-21.414-9.605-21.414-21.413s9.607-21.413,21.414-21.413
						S45.297,20.693,45.297,32.5S35.689,53.913,23.883,53.913z M23.883,16.001c-9.098,0-16.499,7.401-16.499,16.499
						s7.401,16.499,16.499,16.499s16.5-7.401,16.5-16.499S32.98,16.001,23.883,16.001z"/>
				</g>
			</g>
			<g>
				<g>
					<line fill="#FF240D" x1="62.043" y1="32.5" x2="42.84" y2="32.5"/>
				</g>
				<g>
					<path fill="#7C180B" d="M62.043,34.957H42.84c-1.357,0-2.457-1.1-2.457-2.457s1.1-2.457,2.457-2.457h19.203
						c1.356,0,2.457,1.1,2.457,2.457S63.399,34.957,62.043,34.957z"/>
				</g>
			</g>
			<g>
				<g>
					<line fill="#FF240D" x1="54.656" y1="26.222" x2="54.656" y2="38.778"/>
				</g>
				<g>
					<path fill="#7C180B" d="M54.656,41.235c-1.357,0-2.457-1.1-2.457-2.457V26.222c0-1.357,1.1-2.457,2.457-2.457
						s2.457,1.1,2.457,2.457v12.556C57.113,40.135,56.014,41.235,54.656,41.235z"/>
				</g>
			</g>
			<g>
				<g>
					<g>
						<path fill="#FF240D" d="M8.62,19.699c-3.128,0-5.663-2.536-5.663-5.663"/>
					</g>
					<g>
						<path fill="#7C180B" d="M8.62,22.155c-4.477,0-8.12-3.642-8.12-8.12c0-1.357,1.1-2.457,2.457-2.457s2.457,1.1,2.457,2.457
							c0,1.768,1.438,3.206,3.206,3.206c1.356,0,2.457,1.1,2.457,2.458C11.077,21.056,9.977,22.155,8.62,22.155z"/>
					</g>
				</g>
				<g>
					<g>
						<path fill="#FF240D" d="M2.957,50.963c0-3.128,2.535-5.663,5.663-5.663"/>
					</g>
					<g>
						<path fill="#7C180B" d="M2.957,53.42c-1.357,0-2.457-1.1-2.457-2.457c0-4.478,3.644-8.12,8.12-8.12
							c1.356,0,2.457,1.1,2.457,2.457c0,1.357-1.101,2.458-2.457,2.458c-1.768,0-3.206,1.438-3.206,3.206
							C5.414,52.32,4.314,53.42,2.957,53.42z"/>
					</g>
				</g>
			</g>
		</g>
		<g>
			<g>
				<circle fill="#FF6510" cx="29.239" cy="32.5" r="1.044"/>
			</g>
			<g>
				<circle fill="#FF6510" cx="33.233" cy="32.5" r="1.044"/>
			</g>
			<g>
				<circle fill="#FF6510" cx="37.225" cy="32.5" r="1.044"/>
			</g>
		</g>
	</g>
</g>
<g id="nyt_x5F_exporter_x5F_info" display="none">
</g>
</svg>
