<?xml version="1.0" encoding="utf-8"?>
<!-- Generator: Adobe Illustrator 16.0.0, SVG Export Plug-In . SVG Version: 6.00 Build 0)  -->
<!DOCTYPE svg PUBLIC "-//W3C//DTD SVG 1.1//EN" "http://www.w3.org/Graphics/SVG/1.1/DTD/svg11.dtd">
<svg version="1.1" xmlns="http://www.w3.org/2000/svg" xmlns:xlink="http://www.w3.org/1999/xlink" x="0px" y="0px" width="65px"
	 height="65px" viewBox="0 0 65 65" enable-background="new 0 0 65 65" xml:space="preserve">
<g id="Layer_1">
	<g>
		<g>
			<g>
				<g>
					<path fill="#CC52A0" d="M32.498,52.99c-0.937,0-1.695-0.758-1.695-1.693V33.635c0-0.938,0.759-1.697,1.695-1.697
						c0.938,0,1.696,0.76,1.696,1.697v17.662C34.194,52.232,33.436,52.99,32.498,52.99z"/>
				</g>
				<g>
					<path fill="#CC1571" d="M32.498,46.824c-0.937,0-1.695-0.758-1.695-1.693V27.469c0-0.938,0.759-1.697,1.695-1.697
						c0.938,0,1.696,0.76,1.696,1.697v17.662C34.194,46.066,33.436,46.824,32.498,46.824z"/>
				</g>
				<g>
					<path fill="#1ED4E2" d="M38.435,53.414H26.565c-0.469,0-0.848-0.377-0.848-0.846c0-0.471,0.379-0.85,0.848-0.85h11.869
						c0.468,0,0.848,0.379,0.848,0.85C39.282,53.037,38.902,53.414,38.435,53.414z"/>
				</g>
				<g>
					<g>
						<path fill="#1ED4E2" d="M31.17,56.383h-3.911c-0.469,0-0.848-0.379-0.848-0.848c0-0.471,0.379-0.848,0.848-0.848h3.911
							c0.47,0,0.849,0.377,0.849,0.848C32.019,56.004,31.64,56.383,31.17,56.383z"/>
					</g>
					<g>
						<path fill="#1ED4E2" d="M37.741,56.383h-3.912c-0.468,0-0.848-0.379-0.848-0.848c0-0.471,0.38-0.848,0.848-0.848h3.912
							c0.469,0,0.848,0.377,0.848,0.848C38.589,56.004,38.21,56.383,37.741,56.383z"/>
					</g>
				</g>
			</g>
			<rect x="21.125" y="17.331" fill="#159DCC" width="22.749" height="22.748"/>
			<polyline fill="#1790CC" points="43.875,17.33 43.874,40.078 21.125,40.08 			"/>
			
				<rect x="21.125" y="17.33" transform="matrix(0.7071 -0.7071 0.7071 0.7071 -10.7787 31.3881)" fill="#13B8CE" width="22.749" height="22.75"/>
			<polyline fill="#05ABC6" points="32.5,12.617 48.586,28.705 32.5,44.791 			"/>
			
				<rect x="23.624" y="26.33" transform="matrix(-0.7074 0.7068 -0.7068 -0.7074 61.2112 29.1938)" fill="#1ED4E2" width="1.876" height="1.875"/>
			
				<rect x="29.624" y="22.33" transform="matrix(-0.7074 0.7068 -0.7068 -0.7074 68.628 18.1233)" fill="#1ED4E2" width="1.876" height="1.875"/>
			
				<rect x="31.251" y="29.33" transform="matrix(-0.7068 0.7074 -0.7074 -0.7068 76.3502 28.8934)" fill="#1ED4E2" width="1.875" height="1.875"/>
			
				<rect x="36.063" y="25.643" transform="matrix(-0.7071 0.7071 -0.7071 -0.7071 81.9587 19.2117)" fill="#1ED4E2" width="1.875" height="1.875"/>
			
				<rect x="34.187" y="18.643" transform="matrix(-0.7074 0.7068 -0.7068 -0.7074 73.8114 8.6024)" fill="#1ED4E2" width="1.876" height="1.875"/>
			
				<rect x="23.687" y="19.018" transform="matrix(-0.7074 0.7068 -0.7068 -0.7074 56.1491 16.6646)" fill="#1ED4E2" width="1.876" height="1.875"/>
			
				<rect x="36.687" y="33.643" transform="matrix(-0.7074 0.7068 -0.7068 -0.7074 88.6825 32.4458)" fill="#1ED4E2" width="1.876" height="1.875"/>
			
				<rect x="40.938" y="35.268" transform="matrix(-0.7071 0.7071 -0.7071 -0.7071 97.0868 32.1955)" fill="#1ED4E2" width="1.875" height="1.875"/>
			
				<rect x="31.938" y="35.393" transform="matrix(-0.7071 0.7071 -0.7071 -0.7071 81.8112 38.7728)" fill="#1ED4E2" width="1.875" height="1.875"/>
			
				<rect x="25.562" y="31.594" transform="matrix(-0.7071 0.7071 -0.7071 -0.7071 68.2406 36.7963)" fill="#1ED4E2" width="1.875" height="1.875"/>
			
				<rect x="23.187" y="36.143" transform="matrix(-0.7074 0.7068 -0.7068 -0.7074 67.4002 46.2566)" fill="#1ED4E2" width="1.876" height="1.875"/>
			
				<rect x="39.938" y="21.143" transform="matrix(-0.7071 0.7071 -0.7071 -0.7071 85.3918 8.7897)" fill="#1ED4E2" width="1.875" height="1.875"/>
			
				<rect x="41.063" y="27.268" transform="matrix(-0.7071 0.7071 -0.7071 -0.7071 91.6433 18.4503)" fill="#1ED4E2" width="1.875" height="1.875"/>
		</g>
		<g>
			<g>
				<g>
					<g>
						<g>
							<g>
								<path fill="#CC52A0" d="M6.154,13.838c-0.266,0-0.479-0.213-0.479-0.477v-4.98c0-0.264,0.213-0.479,0.479-0.479
									c0.264,0,0.479,0.215,0.479,0.479v4.98C6.633,13.625,6.418,13.838,6.154,13.838z"/>
							</g>
							<g>
								<path fill="#CC1571" d="M6.154,12.098c-0.266,0-0.479-0.211-0.479-0.477V6.643c0-0.264,0.213-0.479,0.479-0.479
									c0.264,0,0.479,0.215,0.479,0.479v4.979C6.633,11.887,6.418,12.098,6.154,12.098z"/>
							</g>
							<g>
								<path fill="#1ED4E2" d="M7.826,13.957H4.48c-0.133,0-0.238-0.105-0.238-0.24c0-0.131,0.105-0.238,0.238-0.238h3.346
									c0.131,0,0.238,0.107,0.238,0.238C8.064,13.852,7.957,13.957,7.826,13.957z"/>
							</g>
							<g>
								<g>
									<path fill="#1ED4E2" d="M5.779,14.793H4.676c-0.131,0-0.238-0.105-0.238-0.238s0.107-0.238,0.238-0.238h1.104
										c0.131,0,0.238,0.105,0.238,0.238S5.91,14.793,5.779,14.793z"/>
								</g>
								<g>
									<path fill="#1ED4E2" d="M7.631,14.793H6.527c-0.131,0-0.238-0.105-0.238-0.238s0.107-0.238,0.238-0.238h1.104
										c0.133,0,0.238,0.105,0.238,0.238S7.764,14.793,7.631,14.793z"/>
								</g>
							</g>
						</g>
						<rect x="2.947" y="3.785" fill="#159DCC" width="6.412" height="6.412"/>
						<polyline fill="#1790CC" points="9.359,3.785 9.359,10.197 2.947,10.197 						"/>
						
							<rect x="2.948" y="3.786" transform="matrix(0.7073 -0.707 0.707 0.7073 -3.1415 6.3977)" fill="#13B8CE" width="6.412" height="6.412"/>
						<polyline fill="#05ABC6" points="6.154,2.457 10.689,6.992 6.154,11.525 						"/>
					</g>
					<g>
						<g>
							<g>
								<path fill="#CC52A0" d="M18.154,13.838c-0.266,0-0.479-0.213-0.479-0.477v-4.98c0-0.264,0.213-0.479,0.479-0.479
									c0.264,0,0.479,0.215,0.479,0.479v4.98C18.633,13.625,18.418,13.838,18.154,13.838z"/>
							</g>
							<g>
								<path fill="#CC1571" d="M18.154,12.098c-0.266,0-0.479-0.211-0.479-0.477V6.643c0-0.264,0.213-0.479,0.479-0.479
									c0.264,0,0.479,0.215,0.479,0.479v4.979C18.633,11.887,18.418,12.098,18.154,12.098z"/>
							</g>
							<g>
								<path fill="#1ED4E2" d="M19.826,13.957H16.48c-0.133,0-0.238-0.105-0.238-0.24c0-0.131,0.105-0.238,0.238-0.238h3.346
									c0.131,0,0.238,0.107,0.238,0.238C20.064,13.852,19.957,13.957,19.826,13.957z"/>
							</g>
							<g>
								<g>
									<path fill="#1ED4E2" d="M17.779,14.793h-1.104c-0.131,0-0.238-0.105-0.238-0.238s0.107-0.238,0.238-0.238h1.104
										c0.131,0,0.238,0.105,0.238,0.238S17.91,14.793,17.779,14.793z"/>
								</g>
								<g>
									<path fill="#1ED4E2" d="M19.631,14.793h-1.104c-0.131,0-0.238-0.105-0.238-0.238s0.107-0.238,0.238-0.238h1.104
										c0.133,0,0.238,0.105,0.238,0.238S19.764,14.793,19.631,14.793z"/>
								</g>
							</g>
						</g>
						<rect x="14.947" y="3.785" fill="#159DCC" width="6.412" height="6.412"/>
						<polyline fill="#1790CC" points="21.359,3.785 21.359,10.197 14.947,10.197 						"/>
						
							<rect x="14.948" y="3.786" transform="matrix(0.7073 -0.707 0.707 0.7073 0.3713 14.8812)" fill="#13B8CE" width="6.412" height="6.412"/>
						<polyline fill="#05ABC6" points="18.154,2.457 22.689,6.992 18.154,11.525 						"/>
					</g>
				</g>
				<g>
					<g>
						<g>
							<path fill="#CC52A0" d="M12.154,25.838c-0.266,0-0.479-0.213-0.479-0.477v-4.98c0-0.264,0.213-0.479,0.479-0.479
								c0.264,0,0.479,0.215,0.479,0.479v4.98C12.633,25.625,12.418,25.838,12.154,25.838z"/>
						</g>
						<g>
							<path fill="#CC1571" d="M12.154,24.098c-0.266,0-0.479-0.211-0.479-0.477v-4.979c0-0.264,0.213-0.479,0.479-0.479
								c0.264,0,0.479,0.215,0.479,0.479v4.979C12.633,23.887,12.418,24.098,12.154,24.098z"/>
						</g>
						<g>
							<path fill="#1ED4E2" d="M13.826,25.957H10.48c-0.133,0-0.238-0.105-0.238-0.24c0-0.131,0.105-0.238,0.238-0.238h3.346
								c0.131,0,0.238,0.107,0.238,0.238C14.064,25.852,13.957,25.957,13.826,25.957z"/>
						</g>
						<g>
							<g>
								<path fill="#1ED4E2" d="M11.779,26.793h-1.104c-0.131,0-0.238-0.105-0.238-0.238s0.107-0.238,0.238-0.238h1.104
									c0.131,0,0.238,0.105,0.238,0.238S11.91,26.793,11.779,26.793z"/>
							</g>
							<g>
								<path fill="#1ED4E2" d="M13.631,26.793h-1.104c-0.131,0-0.238-0.105-0.238-0.238s0.107-0.238,0.238-0.238h1.104
									c0.133,0,0.238,0.105,0.238,0.238S13.764,26.793,13.631,26.793z"/>
							</g>
						</g>
					</g>
					<rect x="8.947" y="15.785" fill="#159DCC" width="6.412" height="6.412"/>
					<polyline fill="#1790CC" points="15.359,15.785 15.359,22.197 8.947,22.197 					"/>
					
						<rect x="8.948" y="15.786" transform="matrix(0.7073 -0.707 0.707 0.7073 -9.8686 14.1523)" fill="#13B8CE" width="6.412" height="6.412"/>
					<polyline fill="#05ABC6" points="12.154,14.457 16.689,18.992 12.154,23.525 					"/>
				</g>
			</g>
			<g>
				<g>
					<g>
						<g>
							<g>
								<path fill="#CC52A0" d="M6.154,61.588c-0.266,0-0.479-0.213-0.479-0.477v-4.98c0-0.264,0.213-0.479,0.479-0.479
									c0.264,0,0.479,0.215,0.479,0.479v4.98C6.633,61.375,6.418,61.588,6.154,61.588z"/>
							</g>
							<g>
								<path fill="#CC1571" d="M6.154,59.848c-0.266,0-0.479-0.211-0.479-0.477v-4.979c0-0.264,0.213-0.479,0.479-0.479
									c0.264,0,0.479,0.215,0.479,0.479v4.979C6.633,59.637,6.418,59.848,6.154,59.848z"/>
							</g>
							<g>
								<path fill="#1ED4E2" d="M7.826,61.707H4.48c-0.133,0-0.238-0.105-0.238-0.24c0-0.131,0.105-0.238,0.238-0.238h3.346
									c0.131,0,0.238,0.107,0.238,0.238C8.064,61.602,7.957,61.707,7.826,61.707z"/>
							</g>
							<g>
								<g>
									<path fill="#1ED4E2" d="M5.779,62.543H4.676c-0.131,0-0.238-0.105-0.238-0.238s0.107-0.238,0.238-0.238h1.104
										c0.131,0,0.238,0.105,0.238,0.238S5.91,62.543,5.779,62.543z"/>
								</g>
								<g>
									<path fill="#1ED4E2" d="M7.631,62.543H6.527c-0.131,0-0.238-0.105-0.238-0.238s0.107-0.238,0.238-0.238h1.104
										c0.133,0,0.238,0.105,0.238,0.238S7.764,62.543,7.631,62.543z"/>
								</g>
							</g>
						</g>
						<rect x="2.947" y="51.535" fill="#159DCC" width="6.412" height="6.412"/>
						<polyline fill="#1790CC" points="9.359,51.535 9.359,57.947 2.947,57.947 						"/>
						
							<rect x="2.948" y="51.536" transform="matrix(0.7073 -0.707 0.707 0.7073 -36.8986 20.3761)" fill="#13B8CE" width="6.412" height="6.412"/>
						<polyline fill="#05ABC6" points="6.154,50.207 10.689,54.742 6.154,59.275 						"/>
					</g>
					<g>
						<g>
							<g>
								<path fill="#CC52A0" d="M18.154,61.588c-0.266,0-0.479-0.213-0.479-0.477v-4.98c0-0.264,0.213-0.479,0.479-0.479
									c0.264,0,0.479,0.215,0.479,0.479v4.98C18.633,61.375,18.418,61.588,18.154,61.588z"/>
							</g>
							<g>
								<path fill="#CC1571" d="M18.154,59.848c-0.266,0-0.479-0.211-0.479-0.477v-4.979c0-0.264,0.213-0.479,0.479-0.479
									c0.264,0,0.479,0.215,0.479,0.479v4.979C18.633,59.637,18.418,59.848,18.154,59.848z"/>
							</g>
							<g>
								<path fill="#1ED4E2" d="M19.826,61.707H16.48c-0.133,0-0.238-0.105-0.238-0.24c0-0.131,0.105-0.238,0.238-0.238h3.346
									c0.131,0,0.238,0.107,0.238,0.238C20.064,61.602,19.957,61.707,19.826,61.707z"/>
							</g>
							<g>
								<g>
									<path fill="#1ED4E2" d="M17.779,62.543h-1.104c-0.131,0-0.238-0.105-0.238-0.238s0.107-0.238,0.238-0.238h1.104
										c0.131,0,0.238,0.105,0.238,0.238S17.91,62.543,17.779,62.543z"/>
								</g>
								<g>
									<path fill="#1ED4E2" d="M19.631,62.543h-1.104c-0.131,0-0.238-0.105-0.238-0.238s0.107-0.238,0.238-0.238h1.104
										c0.133,0,0.238,0.105,0.238,0.238S19.764,62.543,19.631,62.543z"/>
								</g>
							</g>
						</g>
						<rect x="14.947" y="51.535" fill="#159DCC" width="6.412" height="6.412"/>
						<polyline fill="#1790CC" points="21.359,51.535 21.359,57.947 14.947,57.947 						"/>
						
							<rect x="14.948" y="51.536" transform="matrix(0.7073 -0.707 0.707 0.7073 -33.3857 28.8595)" fill="#13B8CE" width="6.412" height="6.412"/>
						<polyline fill="#05ABC6" points="18.154,50.207 22.689,54.742 18.154,59.275 						"/>
					</g>
				</g>
				<g>
					<g>
						<g>
							<path fill="#CC52A0" d="M12.154,48.838c-0.266,0-0.479-0.213-0.479-0.477v-4.98c0-0.264,0.213-0.479,0.479-0.479
								c0.264,0,0.479,0.215,0.479,0.479v4.98C12.633,48.625,12.418,48.838,12.154,48.838z"/>
						</g>
						<g>
							<path fill="#CC1571" d="M12.154,47.098c-0.266,0-0.479-0.211-0.479-0.477v-4.979c0-0.264,0.213-0.479,0.479-0.479
								c0.264,0,0.479,0.215,0.479,0.479v4.979C12.633,46.887,12.418,47.098,12.154,47.098z"/>
						</g>
						<g>
							<path fill="#1ED4E2" d="M13.826,48.957H10.48c-0.133,0-0.238-0.105-0.238-0.24c0-0.131,0.105-0.238,0.238-0.238h3.346
								c0.131,0,0.238,0.107,0.238,0.238C14.064,48.852,13.957,48.957,13.826,48.957z"/>
						</g>
						<g>
							<g>
								<path fill="#1ED4E2" d="M11.779,49.793h-1.104c-0.131,0-0.238-0.105-0.238-0.238s0.107-0.238,0.238-0.238h1.104
									c0.131,0,0.238,0.105,0.238,0.238S11.91,49.793,11.779,49.793z"/>
							</g>
							<g>
								<path fill="#1ED4E2" d="M13.631,49.793h-1.104c-0.131,0-0.238-0.105-0.238-0.238s0.107-0.238,0.238-0.238h1.104
									c0.133,0,0.238,0.105,0.238,0.238S13.764,49.793,13.631,49.793z"/>
							</g>
						</g>
					</g>
					<rect x="8.947" y="38.785" fill="#159DCC" width="6.412" height="6.412"/>
					<polyline fill="#1790CC" points="15.359,38.785 15.359,45.197 8.947,45.197 					"/>
					
						<rect x="8.948" y="38.786" transform="matrix(0.7073 -0.707 0.707 0.7073 -26.1285 20.8854)" fill="#13B8CE" width="6.412" height="6.412"/>
					<polyline fill="#05ABC6" points="12.154,37.457 16.689,41.992 12.154,46.525 					"/>
				</g>
			</g>
			<g>
				<g>
					<g>
						<g>
							<g>
								<path fill="#CC52A0" d="M46.846,61.588c-0.264,0-0.479-0.213-0.479-0.477v-4.98c0-0.264,0.215-0.479,0.479-0.479
									c0.266,0,0.479,0.215,0.479,0.479v4.98C47.324,61.375,47.111,61.588,46.846,61.588z"/>
							</g>
							<g>
								<path fill="#CC1571" d="M46.846,59.848c-0.264,0-0.479-0.211-0.479-0.477v-4.979c0-0.264,0.215-0.479,0.479-0.479
									c0.266,0,0.479,0.215,0.479,0.479v4.979C47.324,59.637,47.111,59.848,46.846,59.848z"/>
							</g>
							<g>
								<path fill="#1ED4E2" d="M48.52,61.707h-3.346c-0.133,0-0.238-0.105-0.238-0.24c0-0.131,0.105-0.238,0.238-0.238h3.346
									c0.131,0,0.238,0.107,0.238,0.238C48.758,61.602,48.65,61.707,48.52,61.707z"/>
							</g>
							<g>
								<g>
									<path fill="#1ED4E2" d="M46.473,62.543h-1.104c-0.133,0-0.238-0.105-0.238-0.238s0.105-0.238,0.238-0.238h1.104
										c0.131,0,0.238,0.105,0.238,0.238S46.604,62.543,46.473,62.543z"/>
								</g>
								<g>
									<path fill="#1ED4E2" d="M48.324,62.543h-1.104c-0.133,0-0.238-0.105-0.238-0.238s0.105-0.238,0.238-0.238h1.104
										c0.131,0,0.238,0.105,0.238,0.238S48.455,62.543,48.324,62.543z"/>
								</g>
							</g>
						</g>
						<rect x="43.641" y="51.535" fill="#159DCC" width="6.412" height="6.412"/>
						<polyline fill="#1790CC" points="50.053,51.535 50.053,57.947 43.641,57.947 						"/>
						
							<rect x="43.64" y="51.536" transform="matrix(0.7073 -0.707 0.707 0.7073 -24.9866 49.1431)" fill="#13B8CE" width="6.412" height="6.412"/>
						<polyline fill="#05ABC6" points="46.846,50.207 51.381,54.742 46.846,59.275 						"/>
					</g>
					<g>
						<g>
							<g>
								<path fill="#CC52A0" d="M58.846,61.588c-0.264,0-0.479-0.213-0.479-0.477v-4.98c0-0.264,0.215-0.479,0.479-0.479
									c0.266,0,0.479,0.215,0.479,0.479v4.98C59.324,61.375,59.111,61.588,58.846,61.588z"/>
							</g>
							<g>
								<path fill="#CC1571" d="M58.846,59.848c-0.264,0-0.479-0.211-0.479-0.477v-4.979c0-0.264,0.215-0.479,0.479-0.479
									c0.266,0,0.479,0.215,0.479,0.479v4.979C59.324,59.637,59.111,59.848,58.846,59.848z"/>
							</g>
							<g>
								<path fill="#1ED4E2" d="M60.52,61.707h-3.346c-0.133,0-0.238-0.105-0.238-0.24c0-0.131,0.105-0.238,0.238-0.238h3.346
									c0.131,0,0.238,0.107,0.238,0.238C60.758,61.602,60.65,61.707,60.52,61.707z"/>
							</g>
							<g>
								<g>
									<path fill="#1ED4E2" d="M58.473,62.543h-1.104c-0.133,0-0.238-0.105-0.238-0.238s0.105-0.238,0.238-0.238h1.104
										c0.131,0,0.238,0.105,0.238,0.238S58.604,62.543,58.473,62.543z"/>
								</g>
								<g>
									<path fill="#1ED4E2" d="M60.324,62.543h-1.104c-0.133,0-0.238-0.105-0.238-0.238s0.105-0.238,0.238-0.238h1.104
										c0.131,0,0.238,0.105,0.238,0.238S60.455,62.543,60.324,62.543z"/>
								</g>
							</g>
						</g>
						<rect x="55.641" y="51.535" fill="#159DCC" width="6.412" height="6.412"/>
						<polyline fill="#1790CC" points="62.053,51.535 62.053,57.947 55.641,57.947 						"/>
						
							<rect x="55.64" y="51.536" transform="matrix(0.7073 -0.707 0.707 0.7073 -21.4737 57.6265)" fill="#13B8CE" width="6.412" height="6.412"/>
						<polyline fill="#05ABC6" points="58.846,50.207 63.381,54.742 58.846,59.275 						"/>
					</g>
				</g>
				<g>
					<g>
						<g>
							<path fill="#CC52A0" d="M52.846,48.838c-0.264,0-0.479-0.213-0.479-0.477v-4.98c0-0.264,0.215-0.479,0.479-0.479
								c0.266,0,0.479,0.215,0.479,0.479v4.98C53.324,48.625,53.111,48.838,52.846,48.838z"/>
						</g>
						<g>
							<path fill="#CC1571" d="M52.846,47.098c-0.264,0-0.479-0.211-0.479-0.477v-4.979c0-0.264,0.215-0.479,0.479-0.479
								c0.266,0,0.479,0.215,0.479,0.479v4.979C53.324,46.887,53.111,47.098,52.846,47.098z"/>
						</g>
						<g>
							<path fill="#1ED4E2" d="M54.52,48.957h-3.346c-0.133,0-0.238-0.105-0.238-0.24c0-0.131,0.105-0.238,0.238-0.238h3.346
								c0.131,0,0.238,0.107,0.238,0.238C54.758,48.852,54.65,48.957,54.52,48.957z"/>
						</g>
						<g>
							<g>
								<path fill="#1ED4E2" d="M52.473,49.793h-1.104c-0.133,0-0.238-0.105-0.238-0.238s0.105-0.238,0.238-0.238h1.104
									c0.131,0,0.238,0.105,0.238,0.238S52.604,49.793,52.473,49.793z"/>
							</g>
							<g>
								<path fill="#1ED4E2" d="M54.324,49.793h-1.104c-0.133,0-0.238-0.105-0.238-0.238s0.105-0.238,0.238-0.238h1.104
									c0.131,0,0.238,0.105,0.238,0.238S54.455,49.793,54.324,49.793z"/>
							</g>
						</g>
					</g>
					<rect x="49.641" y="38.785" fill="#159DCC" width="6.412" height="6.412"/>
					<polyline fill="#1790CC" points="56.053,38.785 56.053,45.197 49.641,45.197 					"/>
					
						<rect x="49.64" y="38.786" transform="matrix(0.7073 -0.707 0.707 0.7073 -14.2165 49.6523)" fill="#13B8CE" width="6.412" height="6.412"/>
					<polyline fill="#05ABC6" points="52.846,37.457 57.381,41.992 52.846,46.525 					"/>
				</g>
			</g>
			<g>
				<g>
					<g>
						<g>
							<g>
								<path fill="#CC52A0" d="M46.846,13.838c-0.264,0-0.479-0.213-0.479-0.477v-4.98c0-0.264,0.215-0.479,0.479-0.479
									c0.266,0,0.479,0.215,0.479,0.479v4.98C47.324,13.625,47.111,13.838,46.846,13.838z"/>
							</g>
							<g>
								<path fill="#CC1571" d="M46.846,12.098c-0.264,0-0.479-0.211-0.479-0.477V6.643c0-0.264,0.215-0.479,0.479-0.479
									c0.266,0,0.479,0.215,0.479,0.479v4.979C47.324,11.887,47.111,12.098,46.846,12.098z"/>
							</g>
							<g>
								<path fill="#1ED4E2" d="M48.52,13.957h-3.346c-0.133,0-0.238-0.105-0.238-0.24c0-0.131,0.105-0.238,0.238-0.238h3.346
									c0.131,0,0.238,0.107,0.238,0.238C48.758,13.852,48.65,13.957,48.52,13.957z"/>
							</g>
							<g>
								<g>
									<path fill="#1ED4E2" d="M46.473,14.793h-1.104c-0.133,0-0.238-0.105-0.238-0.238s0.105-0.238,0.238-0.238h1.104
										c0.131,0,0.238,0.105,0.238,0.238S46.604,14.793,46.473,14.793z"/>
								</g>
								<g>
									<path fill="#1ED4E2" d="M48.324,14.793h-1.104c-0.133,0-0.238-0.105-0.238-0.238s0.105-0.238,0.238-0.238h1.104
										c0.131,0,0.238,0.105,0.238,0.238S48.455,14.793,48.324,14.793z"/>
								</g>
							</g>
						</g>
						<rect x="43.641" y="3.785" fill="#159DCC" width="6.412" height="6.412"/>
						<polyline fill="#1790CC" points="50.053,3.785 50.053,10.197 43.641,10.197 						"/>
						
							<rect x="43.64" y="3.786" transform="matrix(0.7073 -0.707 0.707 0.7073 8.7705 35.1647)" fill="#13B8CE" width="6.412" height="6.412"/>
						<polyline fill="#05ABC6" points="46.846,2.457 51.381,6.992 46.846,11.525 						"/>
					</g>
					<g>
						<g>
							<g>
								<path fill="#CC52A0" d="M58.846,13.838c-0.264,0-0.479-0.213-0.479-0.477v-4.98c0-0.264,0.215-0.479,0.479-0.479
									c0.266,0,0.479,0.215,0.479,0.479v4.98C59.324,13.625,59.111,13.838,58.846,13.838z"/>
							</g>
							<g>
								<path fill="#CC1571" d="M58.846,12.098c-0.264,0-0.479-0.211-0.479-0.477V6.643c0-0.264,0.215-0.479,0.479-0.479
									c0.266,0,0.479,0.215,0.479,0.479v4.979C59.324,11.887,59.111,12.098,58.846,12.098z"/>
							</g>
							<g>
								<path fill="#1ED4E2" d="M60.52,13.957h-3.346c-0.133,0-0.238-0.105-0.238-0.24c0-0.131,0.105-0.238,0.238-0.238h3.346
									c0.131,0,0.238,0.107,0.238,0.238C60.758,13.852,60.65,13.957,60.52,13.957z"/>
							</g>
							<g>
								<g>
									<path fill="#1ED4E2" d="M58.473,14.793h-1.104c-0.133,0-0.238-0.105-0.238-0.238s0.105-0.238,0.238-0.238h1.104
										c0.131,0,0.238,0.105,0.238,0.238S58.604,14.793,58.473,14.793z"/>
								</g>
								<g>
									<path fill="#1ED4E2" d="M60.324,14.793h-1.104c-0.133,0-0.238-0.105-0.238-0.238s0.105-0.238,0.238-0.238h1.104
										c0.131,0,0.238,0.105,0.238,0.238S60.455,14.793,60.324,14.793z"/>
								</g>
							</g>
						</g>
						<rect x="55.641" y="3.785" fill="#159DCC" width="6.412" height="6.412"/>
						<polyline fill="#1790CC" points="62.053,3.785 62.053,10.197 55.641,10.197 						"/>
						
							<rect x="55.64" y="3.786" transform="matrix(0.7073 -0.707 0.707 0.7073 12.2834 43.6481)" fill="#13B8CE" width="6.412" height="6.412"/>
						<polyline fill="#05ABC6" points="58.846,2.457 63.381,6.992 58.846,11.525 						"/>
					</g>
				</g>
				<g>
					<g>
						<g>
							<path fill="#CC52A0" d="M52.846,25.838c-0.264,0-0.479-0.213-0.479-0.477v-4.98c0-0.264,0.215-0.479,0.479-0.479
								c0.266,0,0.479,0.215,0.479,0.479v4.98C53.324,25.625,53.111,25.838,52.846,25.838z"/>
						</g>
						<g>
							<path fill="#CC1571" d="M52.846,24.098c-0.264,0-0.479-0.211-0.479-0.477v-4.979c0-0.264,0.215-0.479,0.479-0.479
								c0.266,0,0.479,0.215,0.479,0.479v4.979C53.324,23.887,53.111,24.098,52.846,24.098z"/>
						</g>
						<g>
							<path fill="#1ED4E2" d="M54.52,25.957h-3.346c-0.133,0-0.238-0.105-0.238-0.24c0-0.131,0.105-0.238,0.238-0.238h3.346
								c0.131,0,0.238,0.107,0.238,0.238C54.758,25.852,54.65,25.957,54.52,25.957z"/>
						</g>
						<g>
							<g>
								<path fill="#1ED4E2" d="M52.473,26.793h-1.104c-0.133,0-0.238-0.105-0.238-0.238s0.105-0.238,0.238-0.238h1.104
									c0.131,0,0.238,0.105,0.238,0.238S52.604,26.793,52.473,26.793z"/>
							</g>
							<g>
								<path fill="#1ED4E2" d="M54.324,26.793h-1.104c-0.133,0-0.238-0.105-0.238-0.238s0.105-0.238,0.238-0.238h1.104
									c0.131,0,0.238,0.105,0.238,0.238S54.455,26.793,54.324,26.793z"/>
							</g>
						</g>
					</g>
					<rect x="49.641" y="15.785" fill="#159DCC" width="6.412" height="6.412"/>
					<polyline fill="#1790CC" points="56.053,15.785 56.053,22.197 49.641,22.197 					"/>
					
						<rect x="49.64" y="15.786" transform="matrix(0.7073 -0.707 0.707 0.7073 2.0435 42.9193)" fill="#13B8CE" width="6.412" height="6.412"/>
					<polyline fill="#05ABC6" points="52.846,14.457 57.381,18.992 52.846,23.525 					"/>
				</g>
			</g>
		</g>
	</g>
</g>
<g id="nyt_x5F_exporter_x5F_info" display="none">
</g>
</svg>
