<?xml version="1.0" encoding="utf-8"?>
<!-- Generator: Adobe Illustrator 16.0.0, SVG Export Plug-In . SVG Version: 6.00 Build 0)  -->
<!DOCTYPE svg PUBLIC "-//W3C//DTD SVG 1.1//EN" "http://www.w3.org/Graphics/SVG/1.1/DTD/svg11.dtd">
<svg version="1.1" xmlns="http://www.w3.org/2000/svg" xmlns:xlink="http://www.w3.org/1999/xlink" x="0px" y="0px" width="65px"
	 height="65px" viewBox="0 0 65 65" enable-background="new 0 0 65 65" xml:space="preserve">
<g id="Layer_1">
	<g>
		<g>
			<g>
				<g>
					<polyline fill="#F4BA27" points="44.244,8.799 56.193,8.799 56.195,20.75 					"/>
				</g>
				<g>
					<path fill="#E88707" d="M56.195,23.25c-1.38,0-2.5-1.119-2.5-2.5l-0.002-9.451h-9.449c-1.381,0-2.5-1.119-2.5-2.5
						s1.119-2.5,2.5-2.5h11.949c1.381,0,2.5,1.119,2.5,2.5l0.002,11.951C58.695,22.13,57.576,23.25,56.195,23.25z"/>
				</g>
			</g>
			<g>
				<g>
					<circle fill="#F4BA27" cx="28.189" cy="36.805" r="19.396"/>
				</g>
				<g>
					<path fill="#FF9406" d="M41.903,23.091c7.573,7.574,7.575,19.854,0.001,27.429c-7.576,7.574-19.854,7.573-27.429-0.001"/>
				</g>
				<g>
					<path fill="#E88707" d="M28.19,58.701c-5.849,0-11.347-2.278-15.481-6.414C4.17,43.75,4.17,29.859,12.707,21.323
						c4.135-4.135,9.633-6.412,15.48-6.412c5.85,0,11.348,2.277,15.482,6.413c8.539,8.536,8.539,22.427,0.002,30.964
						C39.536,56.423,34.037,58.7,28.19,58.701z M28.188,19.911c-4.513,0-8.756,1.757-11.945,4.947
						c-6.587,6.587-6.587,17.306,0.001,23.894c3.191,3.191,7.435,4.949,11.947,4.949c4.511,0,8.755-1.758,11.946-4.948
						c6.587-6.588,6.586-17.306-0.002-23.894C36.944,21.667,32.701,19.911,28.188,19.911z"/>
				</g>
			</g>
			<g>
				<g>
					<line fill="#F4BA27" x1="53.543" y1="11.452" x2="41.903" y2="23.091"/>
				</g>
				<g>
					<path fill="#E88707" d="M41.903,25.591c-0.64,0-1.279-0.244-1.769-0.732c-0.977-0.977-0.977-2.559,0-3.535l11.641-11.64
						c0.977-0.977,2.559-0.977,3.535,0s0.977,2.559,0,3.535L43.67,24.859C43.183,25.347,42.543,25.591,41.903,25.591z"/>
				</g>
			</g>
			<g>
				<g>
					<circle fill="#FFB600" cx="28.19" cy="36.805" r="7.967"/>
				</g>
			</g>
			<g>
				<g>
					<path fill="#FFD400" d="M28.191,44.77c-4.401,0.002-7.969-3.564-7.967-7.967c-0.002-4.397,3.564-7.964,7.965-7.965"/>
				</g>
			</g>
		</g>
		<g>
			<g>
				<path fill="#F4BA27" d="M15.805,13.382c0,0.414-0.336,0.75-0.75,0.75l0,0c-0.414,0-0.75-0.336-0.75-0.75V7.049
					c0-0.414,0.336-0.75,0.75-0.75l0,0c0.414,0,0.75,0.336,0.75,0.75V13.382z"/>
			</g>
			<g>
				<path fill="#F4BA27" d="M11.805,13.382c0,0.414-0.336,0.75-0.75,0.75l0,0c-0.414,0-0.75-0.336-0.75-0.75V7.049
					c0-0.414,0.336-0.75,0.75-0.75l0,0c0.414,0,0.75,0.336,0.75,0.75V13.382z"/>
			</g>
			<g>
				<path fill="#F4BA27" d="M7.805,13.382c0,0.414-0.336,0.75-0.75,0.75l0,0c-0.414,0-0.75-0.336-0.75-0.75V7.049
					c0-0.414,0.336-0.75,0.75-0.75l0,0c0.414,0,0.75,0.336,0.75,0.75V13.382z"/>
			</g>
		</g>
	</g>
</g>
<g id="nyt_x5F_exporter_x5F_info" display="none">
</g>
</svg>
