<?xml version="1.0" encoding="utf-8"?>
<!-- Generator: Adobe Illustrator 16.0.0, SVG Export Plug-In . SVG Version: 6.00 Build 0)  -->
<!DOCTYPE svg PUBLIC "-//W3C//DTD SVG 1.1//EN" "http://www.w3.org/Graphics/SVG/1.1/DTD/svg11.dtd">
<svg version="1.1" xmlns="http://www.w3.org/2000/svg" xmlns:xlink="http://www.w3.org/1999/xlink" x="0px" y="0px" width="65px"
	 height="65px" viewBox="0 0 65 65" enable-background="new 0 0 65 65" xml:space="preserve">
<g id="Layer_1">
	<g>
		<g>
			<g>
				<circle fill="#32F9B1" cx="25.142" cy="18" r="1.062"/>
			</g>
			<g>
				<circle fill="#32F9B1" cx="25.142" cy="22.062" r="1.062"/>
			</g>
			<g>
				<circle fill="#32F9B1" cx="25.142" cy="26.125" r="1.062"/>
			</g>
		</g>
		<g>
			<g>
				<g>
					<circle fill="#97FFE6" cx="11.715" cy="32.5" r="7.25"/>
				</g>
				<g>
					<path fill="#32F9B1" d="M11.715,25.25c4.004,0,7.249,3.246,7.249,7.25s-3.245,7.25-7.249,7.25"/>
				</g>
				<g>
					<path fill="#00AD73" d="M11.715,42.25c-5.376,0-9.751-4.374-9.751-9.75s4.375-9.75,9.751-9.75s9.75,4.374,9.75,9.75
						S17.091,42.25,11.715,42.25z M11.715,27.75c-2.62,0-4.751,2.131-4.751,4.75s2.131,4.75,4.751,4.75
						c2.619,0,4.75-2.131,4.75-4.75S14.334,27.75,11.715,27.75z"/>
				</g>
			</g>
			<g>
				<g>
					<line fill="#32F9B1" x1="57.465" y1="32.5" x2="18.964" y2="32.5"/>
				</g>
				<g>
					<path fill="#00AD73" d="M57.465,35H18.964c-1.381,0-2.499-1.119-2.499-2.5s1.118-2.5,2.499-2.5h38.501
						c1.381,0,2.499,1.119,2.499,2.5S58.846,35,57.465,35z"/>
				</g>
			</g>
			<g>
				<g>
					<line fill="#32F9B1" x1="35.798" y1="11.5" x2="35.798" y2="53.5"/>
				</g>
				<g>
					<path fill="#00AD73" d="M35.798,56c-1.381,0-2.5-1.119-2.5-2.5v-42c0-1.381,1.119-2.5,2.5-2.5s2.5,1.119,2.5,2.5v42
						C38.298,54.881,37.179,56,35.798,56z"/>
				</g>
			</g>
			<g>
				<g>
					<g>
						<path fill="#00AD73" d="M30.06,14.333c-0.641,0-1.28-0.244-1.768-0.732c-0.977-0.977-0.977-2.56,0-3.535l5.738-5.736
							c0.977-0.977,2.559-0.977,3.535,0l5.737,5.736c0.977,0.976,0.977,2.559,0,3.535c-0.975,0.977-2.559,0.977-3.535,0l-3.97-3.969
							l-3.971,3.969C31.339,14.089,30.699,14.333,30.06,14.333z"/>
					</g>
				</g>
				<g>
					<g>
						<path fill="#00AD73" d="M35.797,61.403c-0.64,0-1.279-0.244-1.769-0.732l-5.735-5.736c-0.977-0.977-0.977-2.559,0-3.535
							c0.976-0.977,2.559-0.977,3.535,0l3.969,3.969l3.971-3.969c0.977-0.977,2.561-0.977,3.535,0c0.977,0.977,0.977,2.56,0,3.535
							l-5.738,5.736C37.077,61.159,36.437,61.403,35.797,61.403z"/>
					</g>
				</g>
			</g>
			<g>
				<g>
					<g>
						<line fill="#32F9B1" x1="57.464" y1="21.26" x2="57.464" y2="43.74"/>
					</g>
					<g>
						<path fill="#00AD73" d="M57.464,46.24c-1.381,0-2.5-1.119-2.5-2.5V21.26c0-1.381,1.119-2.5,2.5-2.5s2.5,1.119,2.5,2.5v22.48
							C59.964,45.121,58.845,46.24,57.464,46.24z"/>
					</g>
				</g>
				<g>
					<g>
						<g>
							<path fill="#00AD73" d="M60.535,23.938c-0.639,0-1.279-0.244-1.767-0.732l-1.304-1.303l-1.304,1.303
								c-0.976,0.977-2.56,0.977-3.535,0c-0.977-0.977-0.977-2.56,0-3.535l3.071-3.07c0.977-0.977,2.559-0.977,3.535,0l3.071,3.07
								c0.977,0.976,0.977,2.559,0,3.535C61.816,23.693,61.175,23.938,60.535,23.938z"/>
						</g>
					</g>
					<g>
						<g>
							<path fill="#00AD73" d="M57.464,49.133c-0.64,0-1.279-0.244-1.768-0.732l-3.07-3.07c-0.977-0.977-0.977-2.559,0-3.535
								s2.559-0.977,3.535,0l1.303,1.303l1.304-1.303c0.977-0.977,2.561-0.977,3.535,0c0.977,0.977,0.977,2.56,0,3.535l-3.071,3.07
								C58.744,48.889,58.104,49.133,57.464,49.133z"/>
						</g>
					</g>
				</g>
			</g>
		</g>
	</g>
</g>
<g id="nyt_x5F_exporter_x5F_info" display="none">
</g>
</svg>
