<?xml version="1.0" encoding="utf-8"?>
<!-- Generator: Adobe Illustrator 16.0.0, SVG Export Plug-In . SVG Version: 6.00 Build 0)  -->
<!DOCTYPE svg PUBLIC "-//W3C//DTD SVG 1.1//EN" "http://www.w3.org/Graphics/SVG/1.1/DTD/svg11.dtd">
<svg version="1.1" id="Layer_1" xmlns="http://www.w3.org/2000/svg" xmlns:xlink="http://www.w3.org/1999/xlink" x="0px" y="0px"
	 width="64px" height="64px" viewBox="0 0 64 64" enable-background="new 0 0 64 64" xml:space="preserve">
<g>
	<g>
		<g>
			<g>
				<g>
					<path fill="#F7910B" d="M62.3,38.6c0,13-11.9,23.5-30.3,23.5c-18.4,0-30.3-10.5-30.3-23.5S13.6,6.1,32,6.1
						C50.4,6.1,62.3,25.7,62.3,38.6z"/>
				</g>
				<g>
					<path fill="#F7910B" d="M62.3,38.6c0,13-11.9,19.5-30.3,19.5c-18.4,0-30.3-6.5-30.3-19.5S13.6,4.1,32,4.1
						C50.4,4.1,62.3,25.7,62.3,38.6z"/>
				</g>
				<g>
					<path fill="#F9A908" d="M32,4.1c18.4,0,30.3,21.5,30.3,34.5S50.4,58.1,32,58.1"/>
				</g>
				<g>
					<path fill="#F9A908" d="M62.3,38.6c0,13-11.9,19.5-30.3,19.5c-18.4,0-30.3-6.5-30.3-19.5S13.6,6.1,32,6.1
						C50.4,6.1,62.3,25.7,62.3,38.6z"/>
				</g>
				<g>
					<path fill="#F9C55D" d="M1.7,38.6c0-13,11.9-32.5,30.3-32.5"/>
				</g>
				<g>
					<path fill="#F7910B" d="M32,6.1c18.4,0,30.3,19.5,30.3,32.5S50.4,62.1,32,62.1"/>
				</g>
				<g>
					<path fill="#EA7103" d="M32,6.1c18.4,0,30.3,19.5,30.3,32.5"/>
				</g>
				<g>
					<g>
						<circle fill="#EA7103" cx="21.6" cy="42.1" r="3.2"/>
					</g>
					<g>
						<circle fill="#EA7103" cx="42.4" cy="42.1" r="3.2"/>
					</g>
					<g>
						<circle fill="#1E4784" cx="21.6" cy="41.2" r="3.2"/>
					</g>
					<g>
						<path fill="#00233F" d="M21.6,38c1.8,0,3.2,1.4,3.2,3.2s-1.4,3.2-3.2,3.2"/>
					</g>
					<g>
						<circle fill="#1E4784" cx="42.4" cy="41.2" r="3.2"/>
					</g>
					<g>
						<path fill="#00233F" d="M42.4,38c1.8,0,3.2,1.4,3.2,3.2s-1.4,3.2-3.2,3.2"/>
					</g>
				</g>
				<g>
					<g>
						<g>
							<g>
								<g>
									<g>
										<path fill="#19BCA4" d="M25.6,26.4c0.3,0.8-1.2,1-2.9,1.7c-1.7,0.7-2.8,1.7-3.2,0.9c-0.3-0.8,0.8-2,2.4-2.7
											C23.7,25.5,25.3,25.6,25.6,26.4z"/>
									</g>
								</g>
							</g>
						</g>
						<g>
							<g>
								<g>
									<g>
										<path fill="#19BCA4" d="M38.4,30.9c-0.3,0.8,1.2,0.9,2.9,1.6c1.7,0.6,2.9,1.6,3.2,0.8c0.3-0.8-0.8-2-2.5-2.6
											C40.3,30,38.7,30.1,38.4,30.9z"/>
									</g>
								</g>
							</g>
						</g>
					</g>
					<g>
						<g>
							<g>
								<g>
									<g>
										<path fill="#109DA0" d="M25.6,26.4c0.3,0.8-1.2,1-2.9,1.7c-1.7,0.7-2.8,1.7-3.2,0.9"/>
									</g>
								</g>
							</g>
						</g>
						<g>
							<g>
								<g>
									<g>
										<path fill="#109DA0" d="M38.4,30.9c-0.3,0.8,1.2,0.9,2.9,1.6c1.7,0.6,2.9,1.6,3.2,0.8"/>
									</g>
								</g>
							</g>
						</g>
					</g>
				</g>
				<g>
					<g>
						<path fill="#F9C55D" d="M27.8,47.2c0,1.2-3.5,0.7-7.8,0.7c-4.3,0-7.8,0.6-7.8-0.7c0-1.2,3.5-2.2,7.8-2.2
							C24.3,45,27.8,46,27.8,47.2z"/>
					</g>
					<g>
						<path fill="#F9A908" d="M51.8,47.2c0,1.2-3.5,0.7-7.8,0.7s-7.8,0.6-7.8-0.7c0-1.2,3.5-2.2,7.8-2.2S51.8,46,51.8,47.2z"/>
					</g>
				</g>
				<g>
					<circle fill="#F7910B" cx="10.3" cy="35.6" r="0.6"/>
				</g>
				<g>
					<circle fill="#F7910B" cx="5.8" cy="37.6" r="1.1"/>
				</g>
				<g>
					<circle fill="#F7910B" cx="8.8" cy="33.6" r="0.2"/>
				</g>
				<g>
					<circle fill="#F7910B" cx="13.4" cy="35.4" r="0.2"/>
				</g>
				<g>
					<circle fill="#F9A908" cx="52.6" cy="36" r="0.8"/>
				</g>
				<g>
					<circle fill="#F9A908" cx="55.1" cy="37.4" r="0.2"/>
				</g>
				<g>
					<circle fill="#F9A908" cx="49.8" cy="28.5" r="0.3"/>
				</g>
				<g>
					<circle fill="#F9A908" cx="49.3" cy="40.2" r="1.3"/>
				</g>
				<g>
					<circle fill="#F9A908" cx="56.5" cy="40.2" r="0.6"/>
				</g>
				<g>
					<circle fill="#F7910B" cx="9.3" cy="39.6" r="0.5"/>
				</g>
				<g>
					<circle fill="#F7910B" cx="10.1" cy="31.2" r="0.4"/>
				</g>
				<g>
					<circle fill="#F9A908" cx="4.8" cy="17.5" r="1.1"/>
				</g>
				<g>
					<circle fill="#F9A908" cx="8" cy="13.9" r="0.6"/>
				</g>
				<g>
					<circle fill="#F9A908" cx="59.2" cy="19.9" r="0.2"/>
				</g>
				<g>
					<circle fill="#F9A908" cx="58.4" cy="16.9" r="0.8"/>
				</g>
				<g>
					<circle fill="#F9A908" cx="61" cy="17.5" r="0.5"/>
				</g>
				<g>
					<circle fill="#F9A908" cx="6" cy="20.4" r="0.6"/>
				</g>
				<g>
					<g>
						<g>
							<path fill="#F7910B" d="M37.6,53c0,2.4-2.5,6.6-5.6,6.6c-3.1,0-5.6-4.3-5.6-6.6"/>
						</g>
						<g>
							<g>
								<path fill="#02243E" d="M20.5,51c-0.6,0-1-0.4-1-1s0.4-1,1-1c0.6,0,1-0.7,1-1.4c0-0.6,0.4-1,1-1s1,0.4,1,1
									C23.5,49.5,22.2,51,20.5,51z"/>
							</g>
							<g>
								<path fill="#02243E" d="M43.5,51c-1.7,0-3-1.5-3-3.4c0-0.6,0.4-1,1-1s1,0.4,1,1c0,0.8,0.5,1.4,1,1.4c0.6,0,1,0.4,1,1
									S44.1,51,43.5,51z"/>
							</g>
						</g>
						<g>
							<path fill="#02243E" d="M32,55.5c-4.1,0-7.9-1.9-10.8-5.3c-0.4-0.4-0.3-1.1,0.1-1.4c0.4-0.4,1.1-0.3,1.4,0.1
								c2.5,3,5.8,4.6,9.3,4.6s6.8-1.6,9.3-4.6c0.4-0.4,1-0.5,1.4-0.1c0.4,0.4,0.5,1,0.1,1.4C39.9,53.7,36.1,55.5,32,55.5z"/>
						</g>
					</g>
					<g>
						<path fill="#F9C55D" d="M36.5,50.5c0,1.1-2,2.1-4.5,2.1c-2.5,0-4.5-0.9-4.5-2.1"/>
					</g>
				</g>
			</g>
		</g>
	</g>
	<g>
		<g>
			<g>
				<path fill="#E07CA4" d="M18.6,14.3c0,0-3.5-11.5-9.8-12.4C2.6,1-0.8,18.9,4.8,19.1c5.6,0.1,7.3-9.8,7.3-9.8s4.4,7.2,5,10.8
					c0.6,3.5,2,3.9,2.5,0.8C20,17.7,18.6,14.3,18.6,14.3z"/>
			</g>
			<g>
				<path fill="#BF4B75" d="M4.8,19.1c5.6,0.1,7.3-9.8,7.3-9.8s4.4,7.2,5,10.8c0.6,3.5,2,3.9,2.5,0.8c0.5-3.2-0.9-6.5-0.9-6.5
					S15.1,2.8,8.9,1.9"/>
			</g>
			<g>
				<g>
					<path fill="#7C2D51" d="M6.8,18.7c2.5-1.1,4-4.5,4.7-6.9C10.4,14.8,8.7,17.3,6.8,18.7z"/>
				</g>
				<g>
					<path fill="#7C2D51" d="M18.6,14.3c0,0-2.2-7.2-6.2-10.7c0.3,1.7,0.2,3.7-0.2,5.8c0.5,0.9,4.4,7.4,4.9,10.6
						c0.6,3.5,2,3.9,2.5,0.8C20,17.7,18.6,14.3,18.6,14.3z"/>
				</g>
			</g>
		</g>
		<g>
			<g>
				<path fill="#E07CA4" d="M45.4,14.3c0,0,3.5-11.5,9.7-12.4c6.3-0.9,9.7,17.1,4,17.2c-5.6,0.1-7.3-9.8-7.3-9.8s-4.4,7.2-5,10.8
					c-0.6,3.5-2,3.9-2.5,0.8C44,17.7,45.4,14.3,45.4,14.3z"/>
			</g>
			<g>
				<path fill="#BF4B75" d="M59.2,19.1c-5.6,0.1-7.3-9.8-7.3-9.8s-4.4,7.2-5,10.8c-0.6,3.5-2,3.9-2.5,0.8c-0.5-3.2,0.9-6.5,0.9-6.5
					s3.5-11.5,9.7-12.4"/>
			</g>
			<g>
				<g>
					<path fill="#7C2D51" d="M57.2,18.7c-2.5-1.1-4-4.5-4.7-6.9C53.6,14.8,55.3,17.3,57.2,18.7z"/>
				</g>
				<g>
					<path fill="#7C2D51" d="M45.4,14.3c0,0,2.2-7.2,6.2-10.7c-0.3,1.7-0.2,3.7,0.2,5.8c-0.5,0.9-4.4,7.4-4.9,10.6
						c-0.6,3.5-2,3.9-2.5,0.8C44,17.7,45.4,14.3,45.4,14.3z"/>
				</g>
			</g>
		</g>
	</g>
	<g>
		<path fill="#BF4B75" d="M35.2,48.9c0,1-1.4,2.9-3.2,2.9s-3.2-1.8-3.2-2.9S30.2,48,32,48S35.2,47.9,35.2,48.9z"/>
	</g>
	<g>
		<path fill="#7C2D51" d="M32,48c1.8,0,3.2-0.2,3.2,0.9s-1.4,2.9-3.2,2.9"/>
	</g>
</g>
</svg>
