<?xml version="1.0" encoding="utf-8"?>
<!-- Generator: Adobe Illustrator 16.0.0, SVG Export Plug-In . SVG Version: 6.00 Build 0)  -->
<!DOCTYPE svg PUBLIC "-//W3C//DTD SVG 1.1//EN" "http://www.w3.org/Graphics/SVG/1.1/DTD/svg11.dtd">
<svg version="1.1" id="Layer_1" xmlns="http://www.w3.org/2000/svg" xmlns:xlink="http://www.w3.org/1999/xlink" x="0px" y="0px"
	 width="64px" height="64px" viewBox="0 0 64 64" enable-background="new 0 0 64 64" xml:space="preserve">
<g>
	<path fill="#EA9D15" d="M62.4,41.9c0,10.7-15.9,19.4-33,19.4c-17.1,0-28.9-8.7-28.9-19.4c0-10.7,13.9-19.4,31-19.4
		C48.5,22.5,62.4,31.2,62.4,41.9z"/>
	<path fill="#E08E0B" d="M62.4,41.9c0-10.7-13.9-19.4-31-19.4c-4.6,0-9,0.6-12.9,1.8l-8.8,8.8l27.5,27.5
		C51,58.5,62.4,50.9,62.4,41.9z"/>
	<path fill="#EDB914" d="M46.8,20.4c0,9.7-12,17.2-23.8,17.2c-11.7,0-18.8-7.5-18.8-17.2c0-9.7,9.5-17.6,21.3-17.6
		C37.2,2.8,46.8,10.7,46.8,20.4z"/>
	<path fill="#E8AA10" d="M25.5,2.8c11.7,0,21.3,7.9,21.3,17.6c0,9.7-12,17.2-23.8,17.2"/>
	<g>
		<g>
			<g>
				<g>
					<g>
						<path fill="#00233F" d="M13.4,10.6c-1.3,0.1-2.3,0.7-2.3,1.3l4.7-0.3C15.8,10.9,14.7,10.5,13.4,10.6z"/>
					</g>
				</g>
				<g>
					<g>
						<path fill="#00233F" d="M29,10.6c1.3,0.1,2.3,0.7,2.3,1.3l-4.7-0.3C26.6,10.9,27.7,10.5,29,10.6z"/>
					</g>
				</g>
			</g>
			<path fill="#EFD53A" d="M12.6,21.1c-3.1,0-5.7,0.7-5.7,1.6c0,0.9,2.5,0.5,5.7,0.5c3.1,0,5.7,0.4,5.7-0.5
				C18.2,21.8,15.7,21.1,12.6,21.1z"/>
			<path fill="#EDB914" d="M29.9,21.1c-3.1,0-5.7,0.7-5.7,1.6c0,0.9,2.5,0.5,5.7,0.5c3.1,0,5.7,0.4,5.7-0.5
				C35.6,21.8,33,21.1,29.9,21.1z"/>
			<g>
				<path fill="#EFD53A" d="M16.1,19.9c0,1.3-1,2.3-2.3,2.3c-1.3,0-2.3-1-2.3-2.3s1-2.3,2.3-2.3C15.1,17.6,16.1,18.6,16.1,19.9z"/>
				<path fill="#EDB914" d="M31.2,19.9c0,1.3-1,2.3-2.3,2.3c-1.3,0-2.3-1-2.3-2.3s1-2.3,2.3-2.3C30.2,17.6,31.2,18.6,31.2,19.9z"/>
				<path fill="#1E4784" d="M16.1,19.2c0,1.3-1,2.3-2.3,2.3c-1.3,0-2.3-1-2.3-2.3c0-1.3,1-2.3,2.3-2.3C15.1,16.9,16.1,18,16.1,19.2z
					"/>
				<path fill="#00233F" d="M13.8,16.9c1.3,0,2.3,1,2.3,2.3c0,1.3-1,2.3-2.3,2.3"/>
				<path fill="#1E4784" d="M31.2,19.2c0,1.3-1,2.3-2.3,2.3c-1.3,0-2.3-1-2.3-2.3c0-1.3,1-2.3,2.3-2.3C30.2,16.9,31.2,18,31.2,19.2z
					"/>
				<path fill="#00233F" d="M28.9,16.9c1.3,0,2.3,1,2.3,2.3c0,1.3-1,2.3-2.3,2.3"/>
			</g>
		</g>
	</g>
	<path fill="#E25B00" d="M11.1,25.9c0-1.3,3.9-2.5,8.7-2.6c4.8-0.1,8.7,0.9,8.8,2.2c0,1.3-1.8,4.1-6.6,4.2
		C17.1,29.9,11.2,27.3,11.1,25.9z"/>
	<path fill="#FF6700" d="M28.6,25.2c0,1.3-3.8,1.5-8.7,1.6c-4.8,0.1-8.7,0.1-8.8-1.2c0-1.3,3.8-4.1,8.6-4.2
		C24.6,21.3,28.6,23.9,28.6,25.2z"/>
	<ellipse transform="matrix(0.9681 0.2508 -0.2508 0.9681 12.228 -13.2177)" fill="#E08E0B" cx="58" cy="41.4" rx="5.2" ry="9.2"/>
</g>
</svg>
