<?xml version="1.0" encoding="utf-8"?>
<!-- Generator: Adobe Illustrator 16.0.0, SVG Export Plug-In . SVG Version: 6.00 Build 0)  -->
<!DOCTYPE svg PUBLIC "-//W3C//DTD SVG 1.1//EN" "http://www.w3.org/Graphics/SVG/1.1/DTD/svg11.dtd">
<svg version="1.1" xmlns="http://www.w3.org/2000/svg" xmlns:xlink="http://www.w3.org/1999/xlink" x="0px" y="0px" width="65px"
	 height="65px" viewBox="0 0 65 65" enable-background="new 0 0 65 65" xml:space="preserve">
<g id="Layer_1">
	<g>
		<g>
			<g>
				<g>
					<line fill="#27C4CC" x1="32.5" y1="3.042" x2="32.5" y2="61.958"/>
				</g>
				<g>
					<path fill="#348BC6" d="M32.5,64.458c-1.382,0-2.501-1.119-2.501-2.5V3.042c0-1.381,1.119-2.5,2.501-2.5
						c1.381,0,2.499,1.119,2.499,2.5v58.916C34.999,63.339,33.881,64.458,32.5,64.458z"/>
				</g>
			</g>
			<g>
				<g>
					<line fill="#27C4CC" x1="3.042" y1="32.5" x2="61.958" y2="32.5"/>
				</g>
				<g>
					<path fill="#348BC6" d="M61.958,35H3.042c-1.381,0-2.5-1.119-2.5-2.5s1.119-2.5,2.5-2.5h58.916c1.381,0,2.5,1.119,2.5,2.5
						S63.339,35,61.958,35z"/>
				</g>
			</g>
		</g>
		<g>
			<g>
				<g>
					<circle fill="#27C4CC" cx="22.624" cy="22.625" r="2.75"/>
				</g>
			</g>
			<g>
				<g>
					<circle fill="#27C4CC" cx="42.375" cy="42.375" r="2.75"/>
				</g>
			</g>
		</g>
		<g>
			<g>
				<g>
					<circle fill="#27C4CC" cx="22.625" cy="42.375" r="2.75"/>
				</g>
			</g>
			<g>
				<g>
					<circle fill="#27C4CC" cx="42.374" cy="22.625" r="2.75"/>
				</g>
			</g>
		</g>
	</g>
</g>
<g id="nyt_x5F_exporter_x5F_info" display="none">
</g>
</svg>
