<?xml version="1.0" encoding="utf-8"?>
<!-- Generator: Adobe Illustrator 16.0.0, SVG Export Plug-In . SVG Version: 6.00 Build 0)  -->
<!DOCTYPE svg PUBLIC "-//W3C//DTD SVG 1.1//EN" "http://www.w3.org/Graphics/SVG/1.1/DTD/svg11.dtd">
<svg version="1.1" xmlns="http://www.w3.org/2000/svg" xmlns:xlink="http://www.w3.org/1999/xlink" x="0px" y="0px" width="65px"
	 height="65px" viewBox="0 0 65 65" enable-background="new 0 0 65 65" xml:space="preserve">
<g id="Layer_1">
	<g>
		<g>
			<g>
				<path fill="#0AA06E" d="M37.922,44.988V20.906c0-2.994-2.428-5.422-5.422-5.422s-5.422,2.428-5.422,5.422v24.082H37.922z"/>
				<path fill="#078457" d="M32.717,44.988h5.205V20.906c0-2.994-2.428-5.422-5.422-5.422"/>
				
					<rect x="29.496" y="29.575" transform="matrix(0.7068 -0.7074 0.7074 0.7068 -15.6049 32.3438)" fill="#078457" width="3.443" height="10.847"/>
				<g>
					<g>
						<path fill="#0AA06E" d="M25.592,32.043v-5.498c0-1.395-1.131-2.525-2.525-2.525s-2.527,1.131-2.527,2.525v5.498H25.592z"/>
						<path fill="#078457" d="M23.096,24.023v8.02h2.496v-5.498C25.592,25.16,24.477,24.039,23.096,24.023z"/>
						<path fill="#0AA06E" d="M28.564,29.732h-5.498c-1.395,0-2.527,1.131-2.527,2.525s1.133,2.525,2.527,2.525h5.498V29.732z"/>
					</g>
					<g>
						<path fill="#078457" d="M39.408,39.965v-5.498c0-1.396,1.131-2.525,2.525-2.525s2.525,1.129,2.525,2.525v5.498H39.408z"/>
						<path fill="#0AA06E" d="M41.902,31.943v8.021h-2.494v-5.498C39.408,33.082,40.521,31.961,41.902,31.943z"/>
						<path fill="#078457" d="M36.436,37.652h5.498c1.395,0,2.525,1.131,2.525,2.527c0,1.395-1.131,2.525-2.525,2.525h-5.498V37.652
							z"/>
					</g>
				</g>
				<ellipse fill="#0AA06E" cx="28.596" cy="32.35" rx="0.678" ry="2.393"/>
				<g>
					<g>
						<g>
							<polyline fill="#078457" points="27.107,23.943 25.637,22.473 27.107,21 							"/>
							<polyline fill="#078457" points="30.139,26.973 28.666,25.502 30.139,24.031 							"/>
						</g>
						<g>
							<g>
								<g>
									<polyline fill="#078457" points="20.57,30.705 19.1,29.234 20.57,27.762 									"/>
								</g>
								<g>
									<polyline fill="#078457" points="23.602,33.734 22.129,32.264 23.602,30.793 									"/>
								</g>
							</g>
						</g>
						<g>
							<polyline fill="#078457" points="27.107,38.881 25.637,37.408 27.107,35.938 							"/>
							<polyline fill="#078457" points="30.139,41.91 28.666,40.439 30.139,38.969 							"/>
						</g>
					</g>
					<g>
						<g>
							<g>
								<g>
									<g>
										<polyline fill="#0AA06E" points="37.893,23.943 39.363,22.473 37.893,21 										"/>
									</g>
									<g>
										<polyline fill="#0AA06E" points="34.861,26.973 36.334,25.502 34.861,24.031 										"/>
									</g>
								</g>
							</g>
							<g>
								<g>
									<polyline fill="#0AA06E" points="44.43,38.625 45.9,37.154 44.43,35.684 									"/>
								</g>
								<g>
									<polyline fill="#0AA06E" points="41.398,41.654 42.871,40.184 41.398,38.713 									"/>
								</g>
							</g>
							<g>
								<g>
									<polyline fill="#0AA06E" points="37.893,31.65 39.363,30.18 37.893,28.709 									"/>
								</g>
								<g>
									<polyline fill="#0AA06E" points="34.861,34.682 36.334,33.209 34.861,31.738 									"/>
								</g>
							</g>
						</g>
					</g>
				</g>
			</g>
			<g>
				<g>
					<path fill="#CC9A48" d="M38.434,46.547H26.564c-0.469,0-0.848-0.377-0.848-0.846c0-0.471,0.379-0.85,0.848-0.85h11.869
						c0.467,0,0.848,0.379,0.848,0.85C39.281,46.17,38.9,46.547,38.434,46.547z"/>
				</g>
				<g>
					<g>
						<path fill="#CC9A48" d="M31.17,49.516h-3.912c-0.469,0-0.848-0.379-0.848-0.848c0-0.471,0.379-0.848,0.848-0.848h3.912
							c0.469,0,0.848,0.377,0.848,0.848C32.018,49.137,31.639,49.516,31.17,49.516z"/>
					</g>
					<g>
						<path fill="#CC9A48" d="M37.74,49.516h-3.912c-0.469,0-0.848-0.379-0.848-0.848c0-0.471,0.379-0.848,0.848-0.848h3.912
							c0.469,0,0.848,0.377,0.848,0.848C38.588,49.137,38.209,49.516,37.74,49.516z"/>
					</g>
				</g>
			</g>
		</g>
		<g>
			<g>
				<g>
					<g>
						<g>
							<path fill="#0AA06E" d="M8.277,12.738V2.987c0-1.212-0.982-2.194-2.195-2.194S3.887,1.775,3.887,2.987v9.751H8.277z"/>
							<path fill="#078457" d="M6.17,12.738h2.107V2.987c0-1.212-0.982-2.194-2.195-2.194"/>
							
								<rect x="4.866" y="6.497" transform="matrix(0.7071 -0.7071 0.7071 0.7071 -4.5176 6.4802)" fill="#078457" width="1.395" height="4.392"/>
							<g>
								<g>
									<path fill="#0AA06E" d="M3.285,7.496V5.271c0-0.564-0.459-1.022-1.023-1.022S1.24,4.706,1.24,5.271v2.226H3.285z"/>
									<path fill="#078457" d="M2.275,4.25v3.246h1.01V5.271C3.285,4.711,2.834,4.256,2.275,4.25z"/>
									<path fill="#0AA06E" d="M4.488,6.562H2.262c-0.564,0-1.021,0.458-1.021,1.022s0.457,1.022,1.021,1.022h2.227V6.562z"/>
								</g>
								<g>
									<path fill="#078457" d="M8.879,10.704V8.478c0-0.564,0.457-1.022,1.023-1.022c0.564,0,1.021,0.458,1.021,1.022v2.227H8.879
										z"/>
									<path fill="#0AA06E" d="M9.891,7.456v3.248H8.879V8.478C8.879,7.918,9.33,7.464,9.891,7.456z"/>
									<path fill="#078457" d="M7.676,9.769h2.227c0.564,0,1.021,0.457,1.021,1.022c0,0.564-0.457,1.022-1.021,1.022H7.676V9.769z
										"/>
								</g>
							</g>
							<ellipse fill="#0AA06E" cx="4.501" cy="7.62" rx="0.274" ry="0.969"/>
							<g>
								<g>
									<g>
										<polyline fill="#078457" points="3.898,4.218 3.303,3.622 3.898,3.025 										"/>
										<polyline fill="#078457" points="5.127,5.444 4.529,4.849 5.127,4.253 										"/>
									</g>
									<g>
										<g>
											<g>
												<polyline fill="#078457" points="1.252,6.955 0.656,6.359 1.252,5.763 												"/>
											</g>
											<g>
												<polyline fill="#078457" points="2.479,8.181 1.883,7.585 2.479,6.99 												"/>
											</g>
										</g>
									</g>
									<g>
										<polyline fill="#078457" points="3.898,10.266 3.303,9.669 3.898,9.074 										"/>
										<polyline fill="#078457" points="5.127,11.491 4.529,10.896 5.127,10.301 										"/>
									</g>
								</g>
								<g>
									<g>
										<g>
											<g>
												<g>
													<polyline fill="#0AA06E" points="8.266,4.218 8.861,3.622 8.266,3.025 													"/>
												</g>
												<g>
													<polyline fill="#0AA06E" points="7.037,5.444 7.633,4.849 7.037,4.253 													"/>
												</g>
											</g>
										</g>
										<g>
											<g>
												<polyline fill="#0AA06E" points="10.912,10.161 11.508,9.565 10.912,8.97 												"/>
											</g>
											<g>
												<polyline fill="#0AA06E" points="9.686,11.388 10.281,10.793 9.686,10.197 												"/>
											</g>
										</g>
										<g>
											<g>
												<polyline fill="#0AA06E" points="8.266,7.337 8.861,6.742 8.266,6.147 												"/>
											</g>
											<g>
												<polyline fill="#0AA06E" points="7.037,8.565 7.633,7.97 7.037,7.372 												"/>
											</g>
										</g>
									</g>
								</g>
							</g>
						</g>
						<g>
							<g>
								<path fill="#CC9A48" d="M8.484,13.37H3.68c-0.189,0-0.344-0.154-0.344-0.344s0.154-0.344,0.344-0.344h4.805
									c0.189,0,0.344,0.154,0.344,0.344S8.674,13.37,8.484,13.37z"/>
							</g>
							<g>
								<g>
									<path fill="#CC9A48" d="M5.545,14.571H3.959c-0.189,0-0.344-0.153-0.344-0.344c0-0.189,0.154-0.343,0.344-0.343h1.586
										c0.189,0,0.342,0.153,0.342,0.343C5.887,14.418,5.734,14.571,5.545,14.571z"/>
								</g>
								<g>
									<path fill="#CC9A48" d="M8.203,14.571H6.619c-0.189,0-0.342-0.153-0.342-0.344c0-0.189,0.152-0.343,0.342-0.343h1.584
										c0.189,0,0.344,0.153,0.344,0.343C8.547,14.418,8.393,14.571,8.203,14.571z"/>
								</g>
							</g>
						</g>
					</g>
					<g>
						<g>
							<path fill="#0AA06E" d="M23.277,12.738V2.987c0-1.212-0.982-2.194-2.195-2.194s-2.195,0.982-2.195,2.194v9.751H23.277z"/>
							<path fill="#078457" d="M21.17,12.738h2.107V2.987c0-1.212-0.982-2.194-2.195-2.194"/>
							
								<rect x="19.866" y="6.497" transform="matrix(0.7071 -0.7071 0.7071 0.7071 -0.1242 17.0868)" fill="#078457" width="1.395" height="4.392"/>
							<g>
								<g>
									<path fill="#0AA06E" d="M18.285,7.496V5.271c0-0.564-0.459-1.022-1.023-1.022S16.24,4.706,16.24,5.271v2.226H18.285z"/>
									<path fill="#078457" d="M17.275,4.25v3.246h1.01V5.271C18.285,4.711,17.834,4.256,17.275,4.25z"/>
									<path fill="#0AA06E" d="M19.488,6.562h-2.227c-0.564,0-1.021,0.458-1.021,1.022s0.457,1.022,1.021,1.022h2.227V6.562z"/>
								</g>
								<g>
									<path fill="#078457" d="M23.879,10.704V8.478c0-0.564,0.457-1.022,1.023-1.022c0.564,0,1.021,0.458,1.021,1.022v2.227
										H23.879z"/>
									<path fill="#0AA06E" d="M24.891,7.456v3.248h-1.012V8.478C23.879,7.918,24.33,7.464,24.891,7.456z"/>
									<path fill="#078457" d="M22.676,9.769h2.227c0.564,0,1.021,0.457,1.021,1.022c0,0.564-0.457,1.022-1.021,1.022h-2.227
										V9.769z"/>
								</g>
							</g>
							<ellipse fill="#0AA06E" cx="19.501" cy="7.62" rx="0.274" ry="0.969"/>
							<g>
								<g>
									<g>
										<polyline fill="#078457" points="18.898,4.218 18.303,3.622 18.898,3.025 										"/>
										<polyline fill="#078457" points="20.127,5.444 19.529,4.849 20.127,4.253 										"/>
									</g>
									<g>
										<g>
											<g>
												<polyline fill="#078457" points="16.252,6.955 15.656,6.359 16.252,5.763 												"/>
											</g>
											<g>
												<polyline fill="#078457" points="17.479,8.181 16.883,7.585 17.479,6.99 												"/>
											</g>
										</g>
									</g>
									<g>
										<polyline fill="#078457" points="18.898,10.266 18.303,9.669 18.898,9.074 										"/>
										<polyline fill="#078457" points="20.127,11.491 19.529,10.896 20.127,10.301 										"/>
									</g>
								</g>
								<g>
									<g>
										<g>
											<g>
												<g>
													<polyline fill="#0AA06E" points="23.266,4.218 23.861,3.622 23.266,3.025 													"/>
												</g>
												<g>
													<polyline fill="#0AA06E" points="22.037,5.444 22.633,4.849 22.037,4.253 													"/>
												</g>
											</g>
										</g>
										<g>
											<g>
												<polyline fill="#0AA06E" points="25.912,10.161 26.508,9.565 25.912,8.97 												"/>
											</g>
											<g>
												<polyline fill="#0AA06E" points="24.686,11.388 25.281,10.793 24.686,10.197 												"/>
											</g>
										</g>
										<g>
											<g>
												<polyline fill="#0AA06E" points="23.266,7.337 23.861,6.742 23.266,6.147 												"/>
											</g>
											<g>
												<polyline fill="#0AA06E" points="22.037,8.565 22.633,7.97 22.037,7.372 												"/>
											</g>
										</g>
									</g>
								</g>
							</g>
						</g>
						<g>
							<g>
								<path fill="#CC9A48" d="M23.484,13.37H18.68c-0.189,0-0.344-0.154-0.344-0.344s0.154-0.344,0.344-0.344h4.805
									c0.189,0,0.344,0.154,0.344,0.344S23.674,13.37,23.484,13.37z"/>
							</g>
							<g>
								<g>
									<path fill="#CC9A48" d="M20.545,14.571h-1.586c-0.189,0-0.344-0.153-0.344-0.344c0-0.189,0.154-0.343,0.344-0.343h1.586
										c0.189,0,0.342,0.153,0.342,0.343C20.887,14.418,20.734,14.571,20.545,14.571z"/>
								</g>
								<g>
									<path fill="#CC9A48" d="M23.203,14.571h-1.584c-0.189,0-0.342-0.153-0.342-0.344c0-0.189,0.152-0.343,0.342-0.343h1.584
										c0.189,0,0.344,0.153,0.344,0.343C23.547,14.418,23.393,14.571,23.203,14.571z"/>
								</g>
							</g>
						</g>
					</g>
				</g>
				<g>
					<g>
						<path fill="#0AA06E" d="M15.777,25.693v-9.751c0-1.212-0.982-2.195-2.195-2.195s-2.195,0.983-2.195,2.195v9.751H15.777z"/>
						<path fill="#078457" d="M13.67,25.693h2.107v-9.751c0-1.212-0.982-2.195-2.195-2.195"/>
						
							<rect x="12.366" y="19.453" transform="matrix(0.7075 -0.7068 0.7068 0.7075 -11.4789 15.5659)" fill="#078457" width="1.394" height="4.392"/>
						<g>
							<g>
								<path fill="#0AA06E" d="M10.785,20.451v-2.226c0-0.564-0.459-1.022-1.023-1.022S8.74,17.661,8.74,18.226v2.226H10.785z"/>
								<path fill="#078457" d="M9.775,17.205v3.246h1.01v-2.226C10.785,17.665,10.334,17.211,9.775,17.205z"/>
								<path fill="#0AA06E" d="M11.988,19.517H9.762c-0.564,0-1.021,0.458-1.021,1.022s0.457,1.022,1.021,1.022h2.227V19.517z"/>
							</g>
							<g>
								<path fill="#078457" d="M16.379,23.659v-2.227c0-0.564,0.457-1.022,1.023-1.022c0.564,0,1.021,0.458,1.021,1.022v2.227
									H16.379z"/>
								<path fill="#0AA06E" d="M17.391,20.411v3.248h-1.012v-2.227C16.379,20.872,16.83,20.419,17.391,20.411z"/>
								<path fill="#078457" d="M15.176,22.724h2.227c0.564,0,1.021,0.457,1.021,1.022c0,0.564-0.457,1.022-1.021,1.022h-2.227
									V22.724z"/>
							</g>
						</g>
						<ellipse fill="#0AA06E" cx="12.001" cy="20.575" rx="0.274" ry="0.969"/>
						<g>
							<g>
								<g>
									<polyline fill="#078457" points="11.398,17.173 10.803,16.577 11.398,15.98 									"/>
									<polyline fill="#078457" points="12.627,18.399 12.029,17.804 12.627,17.209 									"/>
								</g>
								<g>
									<g>
										<g>
											<polyline fill="#078457" points="8.752,19.91 8.156,19.314 8.752,18.718 											"/>
										</g>
										<g>
											<polyline fill="#078457" points="9.979,21.136 9.383,20.541 9.979,19.945 											"/>
										</g>
									</g>
								</g>
								<g>
									<polyline fill="#078457" points="11.398,23.221 10.803,22.625 11.398,22.029 									"/>
									<polyline fill="#078457" points="12.627,24.446 12.029,23.852 12.627,23.256 									"/>
								</g>
							</g>
							<g>
								<g>
									<g>
										<g>
											<g>
												<polyline fill="#0AA06E" points="15.766,17.173 16.361,16.577 15.766,15.98 												"/>
											</g>
											<g>
												<polyline fill="#0AA06E" points="14.537,18.399 15.133,17.804 14.537,17.209 												"/>
											</g>
										</g>
									</g>
									<g>
										<g>
											<polyline fill="#0AA06E" points="18.412,23.116 19.008,22.521 18.412,21.925 											"/>
										</g>
										<g>
											<polyline fill="#0AA06E" points="17.186,24.343 17.781,23.747 17.186,23.152 											"/>
										</g>
									</g>
									<g>
										<g>
											<polyline fill="#0AA06E" points="15.766,20.293 16.361,19.697 15.766,19.103 											"/>
										</g>
										<g>
											<polyline fill="#0AA06E" points="14.537,21.521 15.133,20.925 14.537,20.327 											"/>
										</g>
									</g>
								</g>
							</g>
						</g>
					</g>
					<g>
						<g>
							<path fill="#CC9A48" d="M15.984,26.325H11.18c-0.189,0-0.344-0.154-0.344-0.344c0-0.188,0.154-0.344,0.344-0.344h4.805
								c0.189,0,0.344,0.155,0.344,0.344C16.328,26.171,16.174,26.325,15.984,26.325z"/>
						</g>
						<g>
							<g>
								<path fill="#CC9A48" d="M13.045,27.526h-1.586c-0.189,0-0.344-0.154-0.344-0.344s0.154-0.343,0.344-0.343h1.586
									c0.189,0,0.342,0.153,0.342,0.343S13.234,27.526,13.045,27.526z"/>
							</g>
							<g>
								<path fill="#CC9A48" d="M15.703,27.526h-1.584c-0.189,0-0.342-0.154-0.342-0.344s0.152-0.343,0.342-0.343h1.584
									c0.189,0,0.344,0.153,0.344,0.343S15.893,27.526,15.703,27.526z"/>
							</g>
						</g>
					</g>
				</g>
			</g>
			<g>
				<g>
					<g>
						<g>
							<path fill="#0AA06E" d="M8.277,62.375v-9.752c0-1.212-0.982-2.195-2.195-2.195s-2.195,0.983-2.195,2.195v9.752H8.277z"/>
							<path fill="#078457" d="M6.17,62.375h2.107v-9.752c0-1.212-0.982-2.195-2.195-2.195"/>
							
								<rect x="4.866" y="56.133" transform="matrix(0.7071 -0.7071 0.7071 0.7071 -39.6154 21.0182)" fill="#078457" width="1.395" height="4.392"/>
							<g>
								<g>
									<path fill="#0AA06E" d="M3.285,57.132v-2.226c0-0.564-0.459-1.022-1.023-1.022S1.24,54.342,1.24,54.906v2.226H3.285z"/>
									<path fill="#078457" d="M2.275,53.886v3.246h1.01v-2.226C3.285,54.346,2.834,53.892,2.275,53.886z"/>
									<path fill="#0AA06E" d="M4.488,56.197H2.262c-0.564,0-1.021,0.458-1.021,1.022s0.457,1.022,1.021,1.022h2.227V56.197z"/>
								</g>
								<g>
									<path fill="#078457" d="M8.879,60.34v-2.227c0-0.564,0.457-1.022,1.023-1.022c0.564,0,1.021,0.458,1.021,1.022v2.227H8.879
										z"/>
									<path fill="#0AA06E" d="M9.891,57.092v3.248H8.879v-2.227C8.879,57.553,9.33,57.1,9.891,57.092z"/>
									<path fill="#078457" d="M7.676,59.404h2.227c0.564,0,1.021,0.457,1.021,1.022c0,0.564-0.457,1.022-1.021,1.022H7.676
										V59.404z"/>
								</g>
							</g>
							<ellipse fill="#0AA06E" cx="4.501" cy="57.256" rx="0.274" ry="0.969"/>
							<g>
								<g>
									<g>
										<polyline fill="#078457" points="3.898,53.854 3.303,53.258 3.898,52.661 										"/>
										<polyline fill="#078457" points="5.127,55.08 4.529,54.484 5.127,53.889 										"/>
									</g>
									<g>
										<g>
											<g>
												<polyline fill="#078457" points="1.252,56.591 0.656,55.995 1.252,55.398 												"/>
											</g>
											<g>
												<polyline fill="#078457" points="2.479,57.816 1.883,57.221 2.479,56.627 												"/>
											</g>
										</g>
									</g>
									<g>
										<polyline fill="#078457" points="3.898,59.901 3.303,59.305 3.898,58.711 										"/>
										<polyline fill="#078457" points="5.127,61.127 4.529,60.532 5.127,59.937 										"/>
									</g>
								</g>
								<g>
									<g>
										<g>
											<g>
												<g>
													<polyline fill="#0AA06E" points="8.266,53.854 8.861,53.258 8.266,52.661 													"/>
												</g>
												<g>
													<polyline fill="#0AA06E" points="7.037,55.08 7.633,54.484 7.037,53.889 													"/>
												</g>
											</g>
										</g>
										<g>
											<g>
												<polyline fill="#0AA06E" points="10.912,59.797 11.508,59.201 10.912,58.605 												"/>
											</g>
											<g>
												<polyline fill="#0AA06E" points="9.686,61.023 10.281,60.428 9.686,59.834 												"/>
											</g>
										</g>
										<g>
											<g>
												<polyline fill="#0AA06E" points="8.266,56.973 8.861,56.378 8.266,55.783 												"/>
											</g>
											<g>
												<polyline fill="#0AA06E" points="7.037,58.201 7.633,57.605 7.037,57.008 												"/>
											</g>
										</g>
									</g>
								</g>
							</g>
						</g>
						<g>
							<g>
								<path fill="#CC9A48" d="M8.484,63.006H3.68c-0.189,0-0.344-0.154-0.344-0.344s0.154-0.344,0.344-0.344h4.805
									c0.189,0,0.344,0.154,0.344,0.344S8.674,63.006,8.484,63.006z"/>
							</g>
							<g>
								<g>
									<path fill="#CC9A48" d="M5.545,64.207H3.959c-0.189,0-0.344-0.154-0.344-0.344s0.154-0.343,0.344-0.343h1.586
										c0.189,0,0.342,0.153,0.342,0.343S5.734,64.207,5.545,64.207z"/>
								</g>
								<g>
									<path fill="#CC9A48" d="M8.203,64.207H6.619c-0.189,0-0.342-0.154-0.342-0.344s0.152-0.343,0.342-0.343h1.584
										c0.189,0,0.344,0.153,0.344,0.343S8.393,64.207,8.203,64.207z"/>
								</g>
							</g>
						</g>
					</g>
					<g>
						<g>
							<path fill="#0AA06E" d="M23.277,62.375v-9.752c0-1.212-0.982-2.195-2.195-2.195s-2.195,0.983-2.195,2.195v9.752H23.277z"/>
							<path fill="#078457" d="M21.17,62.375h2.107v-9.752c0-1.212-0.982-2.195-2.195-2.195"/>
							
								<rect x="19.866" y="56.133" transform="matrix(0.7071 -0.7071 0.7071 0.7071 -35.222 31.6248)" fill="#078457" width="1.395" height="4.392"/>
							<g>
								<g>
									<path fill="#0AA06E" d="M18.285,57.132v-2.226c0-0.564-0.459-1.022-1.023-1.022s-1.021,0.458-1.021,1.022v2.226H18.285z"/>
									<path fill="#078457" d="M17.275,53.886v3.246h1.01v-2.226C18.285,54.346,17.834,53.892,17.275,53.886z"/>
									<path fill="#0AA06E" d="M19.488,56.197h-2.227c-0.564,0-1.021,0.458-1.021,1.022s0.457,1.022,1.021,1.022h2.227V56.197z"/>
								</g>
								<g>
									<path fill="#078457" d="M23.879,60.34v-2.227c0-0.564,0.457-1.022,1.023-1.022c0.564,0,1.021,0.458,1.021,1.022v2.227
										H23.879z"/>
									<path fill="#0AA06E" d="M24.891,57.092v3.248h-1.012v-2.227C23.879,57.553,24.33,57.1,24.891,57.092z"/>
									<path fill="#078457" d="M22.676,59.404h2.227c0.564,0,1.021,0.457,1.021,1.022c0,0.564-0.457,1.022-1.021,1.022h-2.227
										V59.404z"/>
								</g>
							</g>
							<ellipse fill="#0AA06E" cx="19.501" cy="57.256" rx="0.274" ry="0.969"/>
							<g>
								<g>
									<g>
										<polyline fill="#078457" points="18.898,53.854 18.303,53.258 18.898,52.661 										"/>
										<polyline fill="#078457" points="20.127,55.08 19.529,54.484 20.127,53.889 										"/>
									</g>
									<g>
										<g>
											<g>
												<polyline fill="#078457" points="16.252,56.591 15.656,55.995 16.252,55.398 												"/>
											</g>
											<g>
												<polyline fill="#078457" points="17.479,57.816 16.883,57.221 17.479,56.627 												"/>
											</g>
										</g>
									</g>
									<g>
										<polyline fill="#078457" points="18.898,59.901 18.303,59.305 18.898,58.711 										"/>
										<polyline fill="#078457" points="20.127,61.127 19.529,60.532 20.127,59.937 										"/>
									</g>
								</g>
								<g>
									<g>
										<g>
											<g>
												<g>
													<polyline fill="#0AA06E" points="23.266,53.854 23.861,53.258 23.266,52.661 													"/>
												</g>
												<g>
													<polyline fill="#0AA06E" points="22.037,55.08 22.633,54.484 22.037,53.889 													"/>
												</g>
											</g>
										</g>
										<g>
											<g>
												<polyline fill="#0AA06E" points="25.912,59.797 26.508,59.201 25.912,58.605 												"/>
											</g>
											<g>
												<polyline fill="#0AA06E" points="24.686,61.023 25.281,60.428 24.686,59.834 												"/>
											</g>
										</g>
										<g>
											<g>
												<polyline fill="#0AA06E" points="23.266,56.973 23.861,56.378 23.266,55.783 												"/>
											</g>
											<g>
												<polyline fill="#0AA06E" points="22.037,58.201 22.633,57.605 22.037,57.008 												"/>
											</g>
										</g>
									</g>
								</g>
							</g>
						</g>
						<g>
							<g>
								<path fill="#CC9A48" d="M23.484,63.006H18.68c-0.189,0-0.344-0.154-0.344-0.344s0.154-0.344,0.344-0.344h4.805
									c0.189,0,0.344,0.154,0.344,0.344S23.674,63.006,23.484,63.006z"/>
							</g>
							<g>
								<g>
									<path fill="#CC9A48" d="M20.545,64.207h-1.586c-0.189,0-0.344-0.154-0.344-0.344s0.154-0.343,0.344-0.343h1.586
										c0.189,0,0.342,0.153,0.342,0.343S20.734,64.207,20.545,64.207z"/>
								</g>
								<g>
									<path fill="#CC9A48" d="M23.203,64.207h-1.584c-0.189,0-0.342-0.154-0.342-0.344s0.152-0.343,0.342-0.343h1.584
										c0.189,0,0.344,0.153,0.344,0.343S23.393,64.207,23.203,64.207z"/>
								</g>
							</g>
						</g>
					</g>
				</g>
				<g>
					<g>
						<path fill="#0AA06E" d="M15.777,50.875v-9.752c0-1.212-0.982-2.195-2.195-2.195s-2.195,0.983-2.195,2.195v9.752H15.777z"/>
						<path fill="#078457" d="M13.67,50.875h2.107v-9.752c0-1.212-0.982-2.195-2.195-2.195"/>
						
							<rect x="12.366" y="44.633" transform="matrix(0.7071 -0.7071 0.7071 0.7071 -29.287 22.9532)" fill="#078457" width="1.395" height="4.392"/>
						<g>
							<g>
								<path fill="#0AA06E" d="M10.785,45.632v-2.226c0-0.564-0.459-1.022-1.023-1.022S8.74,42.842,8.74,43.406v2.226H10.785z"/>
								<path fill="#078457" d="M9.775,42.386v3.246h1.01v-2.226C10.785,42.846,10.334,42.392,9.775,42.386z"/>
								<path fill="#0AA06E" d="M11.988,44.697H9.762c-0.564,0-1.021,0.458-1.021,1.022s0.457,1.022,1.021,1.022h2.227V44.697z"/>
							</g>
							<g>
								<path fill="#078457" d="M16.379,48.84v-2.227c0-0.564,0.457-1.022,1.023-1.022c0.564,0,1.021,0.458,1.021,1.022v2.227
									H16.379z"/>
								<path fill="#0AA06E" d="M17.391,45.592v3.248h-1.012v-2.227C16.379,46.053,16.83,45.6,17.391,45.592z"/>
								<path fill="#078457" d="M15.176,47.904h2.227c0.564,0,1.021,0.457,1.021,1.022c0,0.564-0.457,1.022-1.021,1.022h-2.227
									V47.904z"/>
							</g>
						</g>
						<ellipse fill="#0AA06E" cx="12.001" cy="45.756" rx="0.274" ry="0.969"/>
						<g>
							<g>
								<g>
									<polyline fill="#078457" points="11.398,42.354 10.803,41.758 11.398,41.161 									"/>
									<polyline fill="#078457" points="12.627,43.58 12.029,42.984 12.627,42.389 									"/>
								</g>
								<g>
									<g>
										<g>
											<polyline fill="#078457" points="8.752,45.091 8.156,44.495 8.752,43.898 											"/>
										</g>
										<g>
											<polyline fill="#078457" points="9.979,46.316 9.383,45.721 9.979,45.127 											"/>
										</g>
									</g>
								</g>
								<g>
									<polyline fill="#078457" points="11.398,48.401 10.803,47.805 11.398,47.211 									"/>
									<polyline fill="#078457" points="12.627,49.627 12.029,49.032 12.627,48.437 									"/>
								</g>
							</g>
							<g>
								<g>
									<g>
										<g>
											<g>
												<polyline fill="#0AA06E" points="15.766,42.354 16.361,41.758 15.766,41.161 												"/>
											</g>
											<g>
												<polyline fill="#0AA06E" points="14.537,43.58 15.133,42.984 14.537,42.389 												"/>
											</g>
										</g>
									</g>
									<g>
										<g>
											<polyline fill="#0AA06E" points="18.412,48.297 19.008,47.701 18.412,47.105 											"/>
										</g>
										<g>
											<polyline fill="#0AA06E" points="17.186,49.523 17.781,48.928 17.186,48.334 											"/>
										</g>
									</g>
									<g>
										<g>
											<polyline fill="#0AA06E" points="15.766,45.473 16.361,44.878 15.766,44.283 											"/>
										</g>
										<g>
											<polyline fill="#0AA06E" points="14.537,46.701 15.133,46.105 14.537,45.508 											"/>
										</g>
									</g>
								</g>
							</g>
						</g>
					</g>
					<g>
						<g>
							<path fill="#CC9A48" d="M15.984,51.506H11.18c-0.189,0-0.344-0.154-0.344-0.344s0.154-0.344,0.344-0.344h4.805
								c0.189,0,0.344,0.154,0.344,0.344S16.174,51.506,15.984,51.506z"/>
						</g>
						<g>
							<g>
								<path fill="#CC9A48" d="M13.045,52.707h-1.586c-0.189,0-0.344-0.154-0.344-0.344s0.154-0.343,0.344-0.343h1.586
									c0.189,0,0.342,0.153,0.342,0.343S13.234,52.707,13.045,52.707z"/>
							</g>
							<g>
								<path fill="#CC9A48" d="M15.703,52.707h-1.584c-0.189,0-0.342-0.154-0.342-0.344s0.152-0.343,0.342-0.343h1.584
									c0.189,0,0.344,0.153,0.344,0.343S15.893,52.707,15.703,52.707z"/>
							</g>
						</g>
					</g>
				</g>
			</g>
			<g>
				<g>
					<g>
						<g>
							<path fill="#0AA06E" d="M46.113,62.375v-9.752c0-1.212-0.982-2.195-2.197-2.195c-1.211,0-2.193,0.983-2.193,2.195v9.752
								H46.113z"/>
							<path fill="#078457" d="M44.006,62.375h2.107v-9.752c0-1.212-0.982-2.195-2.197-2.195"/>
							
								<rect x="42.701" y="56.133" transform="matrix(0.7064 -0.7078 0.7078 0.7064 -28.5445 47.8421)" fill="#078457" width="1.393" height="4.393"/>
							<g>
								<g>
									<path fill="#0AA06E" d="M41.119,57.132v-2.226c0-0.564-0.457-1.022-1.021-1.022c-0.566,0-1.021,0.458-1.021,1.022v2.226
										H41.119z"/>
									<path fill="#078457" d="M40.109,53.886v3.246h1.01v-2.226C41.119,54.346,40.668,53.892,40.109,53.886z"/>
									<path fill="#0AA06E" d="M42.324,56.197h-2.227c-0.566,0-1.021,0.458-1.021,1.022s0.455,1.022,1.021,1.022h2.227V56.197z"/>
								</g>
								<g>
									<path fill="#078457" d="M46.715,60.34v-2.227c0-0.564,0.457-1.022,1.021-1.022s1.023,0.458,1.023,1.022v2.227H46.715z"/>
									<path fill="#0AA06E" d="M47.725,57.092v3.248h-1.01v-2.227C46.715,57.553,47.164,57.1,47.725,57.092z"/>
									<path fill="#078457" d="M45.512,59.404h2.225c0.564,0,1.023,0.457,1.023,1.022c0,0.564-0.459,1.022-1.023,1.022h-2.225
										V59.404z"/>
								</g>
							</g>
							<ellipse fill="#0AA06E" cx="42.337" cy="57.256" rx="0.274" ry="0.969"/>
							<g>
								<g>
									<g>
										<polyline fill="#078457" points="41.734,53.854 41.139,53.258 41.734,52.661 										"/>
										<polyline fill="#078457" points="42.961,55.08 42.365,54.484 42.961,53.889 										"/>
									</g>
									<g>
										<g>
											<g>
												<polyline fill="#078457" points="39.086,56.591 38.492,55.995 39.086,55.398 												"/>
											</g>
											<g>
												<polyline fill="#078457" points="40.314,57.816 39.717,57.221 40.314,56.627 												"/>
											</g>
										</g>
									</g>
									<g>
										<polyline fill="#078457" points="41.734,59.901 41.139,59.305 41.734,58.711 										"/>
										<polyline fill="#078457" points="42.961,61.127 42.365,60.532 42.961,59.937 										"/>
									</g>
								</g>
								<g>
									<g>
										<g>
											<g>
												<g>
													<polyline fill="#0AA06E" points="46.102,53.854 46.697,53.258 46.102,52.661 													"/>
												</g>
												<g>
													<polyline fill="#0AA06E" points="44.873,55.08 45.469,54.484 44.873,53.889 													"/>
												</g>
											</g>
										</g>
										<g>
											<g>
												<polyline fill="#0AA06E" points="48.748,59.797 49.344,59.201 48.748,58.605 												"/>
											</g>
											<g>
												<polyline fill="#0AA06E" points="47.52,61.023 48.115,60.428 47.52,59.834 												"/>
											</g>
										</g>
										<g>
											<g>
												<polyline fill="#0AA06E" points="46.102,56.973 46.697,56.378 46.102,55.783 												"/>
											</g>
											<g>
												<polyline fill="#0AA06E" points="44.873,58.201 45.469,57.605 44.873,57.008 												"/>
											</g>
										</g>
									</g>
								</g>
							</g>
						</g>
						<g>
							<g>
								<path fill="#CC9A48" d="M46.318,63.006h-4.805c-0.189,0-0.342-0.154-0.342-0.344s0.152-0.344,0.342-0.344h4.805
									c0.191,0,0.346,0.154,0.346,0.344S46.51,63.006,46.318,63.006z"/>
							</g>
							<g>
								<g>
									<path fill="#CC9A48" d="M43.379,64.207h-1.584c-0.189,0-0.344-0.154-0.344-0.344s0.154-0.343,0.344-0.343h1.584
										c0.189,0,0.344,0.153,0.344,0.343S43.568,64.207,43.379,64.207z"/>
								</g>
								<g>
									<path fill="#CC9A48" d="M46.039,64.207h-1.584c-0.189,0-0.342-0.154-0.342-0.344s0.152-0.343,0.342-0.343h1.584
										c0.189,0,0.342,0.153,0.342,0.343S46.229,64.207,46.039,64.207z"/>
								</g>
							</g>
						</g>
					</g>
					<g>
						<g>
							<path fill="#0AA06E" d="M61.113,62.375v-9.752c0-1.212-0.982-2.195-2.197-2.195c-1.213,0-2.193,0.983-2.193,2.195v9.752
								H61.113z"/>
							<path fill="#078457" d="M59.006,62.375h2.107v-9.752c0-1.212-0.982-2.195-2.197-2.195"/>
							
								<rect x="57.701" y="56.133" transform="matrix(0.7064 -0.7078 0.7078 0.7064 -24.1406 58.4592)" fill="#078457" width="1.393" height="4.393"/>
							<g>
								<g>
									<path fill="#0AA06E" d="M56.119,57.132v-2.226c0-0.564-0.457-1.022-1.021-1.022c-0.566,0-1.021,0.458-1.021,1.022v2.226
										H56.119z"/>
									<path fill="#078457" d="M55.109,53.886v3.246h1.01v-2.226C56.119,54.346,55.668,53.892,55.109,53.886z"/>
									<path fill="#0AA06E" d="M57.324,56.197h-2.227c-0.566,0-1.021,0.458-1.021,1.022s0.455,1.022,1.021,1.022h2.227V56.197z"/>
								</g>
								<g>
									<path fill="#078457" d="M61.715,60.34v-2.227c0-0.564,0.457-1.022,1.021-1.022s1.023,0.458,1.023,1.022v2.227H61.715z"/>
									<path fill="#0AA06E" d="M62.725,57.092v3.248h-1.01v-2.227C61.715,57.553,62.164,57.1,62.725,57.092z"/>
									<path fill="#078457" d="M60.512,59.404h2.225c0.564,0,1.023,0.457,1.023,1.022c0,0.564-0.459,1.022-1.023,1.022h-2.225
										V59.404z"/>
								</g>
							</g>
							<ellipse fill="#0AA06E" cx="57.337" cy="57.256" rx="0.274" ry="0.969"/>
							<g>
								<g>
									<g>
										<polyline fill="#078457" points="56.734,53.854 56.139,53.258 56.734,52.661 										"/>
										<polyline fill="#078457" points="57.961,55.08 57.365,54.484 57.961,53.889 										"/>
									</g>
									<g>
										<g>
											<g>
												<polyline fill="#078457" points="54.086,56.591 53.492,55.995 54.086,55.398 												"/>
											</g>
											<g>
												<polyline fill="#078457" points="55.314,57.816 54.717,57.221 55.314,56.627 												"/>
											</g>
										</g>
									</g>
									<g>
										<polyline fill="#078457" points="56.734,59.901 56.139,59.305 56.734,58.711 										"/>
										<polyline fill="#078457" points="57.961,61.127 57.365,60.532 57.961,59.937 										"/>
									</g>
								</g>
								<g>
									<g>
										<g>
											<g>
												<g>
													<polyline fill="#0AA06E" points="61.102,53.854 61.697,53.258 61.102,52.661 													"/>
												</g>
												<g>
													<polyline fill="#0AA06E" points="59.873,55.08 60.469,54.484 59.873,53.889 													"/>
												</g>
											</g>
										</g>
										<g>
											<g>
												<polyline fill="#0AA06E" points="63.748,59.797 64.344,59.201 63.748,58.605 												"/>
											</g>
											<g>
												<polyline fill="#0AA06E" points="62.52,61.023 63.115,60.428 62.52,59.834 												"/>
											</g>
										</g>
										<g>
											<g>
												<polyline fill="#0AA06E" points="61.102,56.973 61.697,56.378 61.102,55.783 												"/>
											</g>
											<g>
												<polyline fill="#0AA06E" points="59.873,58.201 60.469,57.605 59.873,57.008 												"/>
											</g>
										</g>
									</g>
								</g>
							</g>
						</g>
						<g>
							<g>
								<path fill="#CC9A48" d="M61.318,63.006h-4.805c-0.189,0-0.342-0.154-0.342-0.344s0.152-0.344,0.342-0.344h4.805
									c0.191,0,0.346,0.154,0.346,0.344S61.51,63.006,61.318,63.006z"/>
							</g>
							<g>
								<g>
									<path fill="#CC9A48" d="M58.379,64.207h-1.584c-0.189,0-0.344-0.154-0.344-0.344s0.154-0.343,0.344-0.343h1.584
										c0.189,0,0.344,0.153,0.344,0.343S58.568,64.207,58.379,64.207z"/>
								</g>
								<g>
									<path fill="#CC9A48" d="M61.039,64.207h-1.584c-0.189,0-0.342-0.154-0.342-0.344s0.152-0.343,0.342-0.343h1.584
										c0.189,0,0.342,0.153,0.342,0.343S61.229,64.207,61.039,64.207z"/>
								</g>
							</g>
						</g>
					</g>
				</g>
				<g>
					<g>
						<path fill="#0AA06E" d="M53.613,50.875v-9.752c0-1.212-0.982-2.195-2.197-2.195c-1.213,0-2.193,0.983-2.193,2.195v9.752
							H53.613z"/>
						<path fill="#078457" d="M51.506,50.875h2.107v-9.752c0-1.212-0.982-2.195-2.197-2.195"/>
						
							<rect x="50.201" y="44.633" transform="matrix(0.7064 -0.7078 0.7078 0.7064 -18.2028 49.7744)" fill="#078457" width="1.393" height="4.393"/>
						<g>
							<g>
								<path fill="#0AA06E" d="M48.619,45.632v-2.226c0-0.564-0.457-1.022-1.021-1.022c-0.566,0-1.021,0.458-1.021,1.022v2.226
									H48.619z"/>
								<path fill="#078457" d="M47.609,42.386v3.246h1.01v-2.226C48.619,42.846,48.168,42.392,47.609,42.386z"/>
								<path fill="#0AA06E" d="M49.824,44.697h-2.227c-0.566,0-1.021,0.458-1.021,1.022s0.455,1.022,1.021,1.022h2.227V44.697z"/>
							</g>
							<g>
								<path fill="#078457" d="M54.215,48.84v-2.227c0-0.564,0.457-1.022,1.021-1.022s1.023,0.458,1.023,1.022v2.227H54.215z"/>
								<path fill="#0AA06E" d="M55.225,45.592v3.248h-1.01v-2.227C54.215,46.053,54.664,45.6,55.225,45.592z"/>
								<path fill="#078457" d="M53.012,47.904h2.225c0.564,0,1.023,0.457,1.023,1.022c0,0.564-0.459,1.022-1.023,1.022h-2.225
									V47.904z"/>
							</g>
						</g>
						<ellipse fill="#0AA06E" cx="49.837" cy="45.756" rx="0.274" ry="0.969"/>
						<g>
							<g>
								<g>
									<polyline fill="#078457" points="49.234,42.354 48.639,41.758 49.234,41.161 									"/>
									<polyline fill="#078457" points="50.461,43.58 49.865,42.984 50.461,42.389 									"/>
								</g>
								<g>
									<g>
										<g>
											<polyline fill="#078457" points="46.586,45.091 45.992,44.495 46.586,43.898 											"/>
										</g>
										<g>
											<polyline fill="#078457" points="47.814,46.316 47.217,45.721 47.814,45.127 											"/>
										</g>
									</g>
								</g>
								<g>
									<polyline fill="#078457" points="49.234,48.401 48.639,47.805 49.234,47.211 									"/>
									<polyline fill="#078457" points="50.461,49.627 49.865,49.032 50.461,48.437 									"/>
								</g>
							</g>
							<g>
								<g>
									<g>
										<g>
											<g>
												<polyline fill="#0AA06E" points="53.602,42.354 54.197,41.758 53.602,41.161 												"/>
											</g>
											<g>
												<polyline fill="#0AA06E" points="52.373,43.58 52.969,42.984 52.373,42.389 												"/>
											</g>
										</g>
									</g>
									<g>
										<g>
											<polyline fill="#0AA06E" points="56.248,48.297 56.844,47.701 56.248,47.105 											"/>
										</g>
										<g>
											<polyline fill="#0AA06E" points="55.02,49.523 55.615,48.928 55.02,48.334 											"/>
										</g>
									</g>
									<g>
										<g>
											<polyline fill="#0AA06E" points="53.602,45.473 54.197,44.878 53.602,44.283 											"/>
										</g>
										<g>
											<polyline fill="#0AA06E" points="52.373,46.701 52.969,46.105 52.373,45.508 											"/>
										</g>
									</g>
								</g>
							</g>
						</g>
					</g>
					<g>
						<g>
							<path fill="#CC9A48" d="M53.818,51.506h-4.805c-0.189,0-0.342-0.154-0.342-0.344s0.152-0.344,0.342-0.344h4.805
								c0.191,0,0.346,0.154,0.346,0.344S54.01,51.506,53.818,51.506z"/>
						</g>
						<g>
							<g>
								<path fill="#CC9A48" d="M50.879,52.707h-1.584c-0.189,0-0.344-0.154-0.344-0.344s0.154-0.343,0.344-0.343h1.584
									c0.189,0,0.344,0.153,0.344,0.343S51.068,52.707,50.879,52.707z"/>
							</g>
							<g>
								<path fill="#CC9A48" d="M53.539,52.707h-1.584c-0.189,0-0.342-0.154-0.342-0.344s0.152-0.343,0.342-0.343h1.584
									c0.189,0,0.342,0.153,0.342,0.343S53.729,52.707,53.539,52.707z"/>
							</g>
						</g>
					</g>
				</g>
			</g>
			<g>
				<g>
					<g>
						<g>
							<path fill="#0AA06E" d="M46.113,12.738V2.987c0-1.212-0.982-2.194-2.197-2.194c-1.211,0-2.193,0.982-2.193,2.194v9.751
								H46.113z"/>
							<path fill="#078457" d="M44.006,12.738h2.107V2.987c0-1.212-0.982-2.194-2.197-2.194"/>
							
								<rect x="42.701" y="6.497" transform="matrix(0.7064 -0.7078 0.7078 0.7064 6.588 33.2694)" fill="#078457" width="1.393" height="4.393"/>
							<g>
								<g>
									<path fill="#0AA06E" d="M41.119,7.496V5.271c0-0.564-0.457-1.022-1.021-1.022c-0.566,0-1.021,0.458-1.021,1.022v2.226
										H41.119z"/>
									<path fill="#078457" d="M40.109,4.25v3.246h1.01V5.271C41.119,4.711,40.668,4.256,40.109,4.25z"/>
									<path fill="#0AA06E" d="M42.324,6.562h-2.227c-0.566,0-1.021,0.458-1.021,1.022s0.455,1.022,1.021,1.022h2.227V6.562z"/>
								</g>
								<g>
									<path fill="#078457" d="M46.715,10.704V8.478c0-0.564,0.457-1.022,1.021-1.022s1.023,0.458,1.023,1.022v2.227H46.715z"/>
									<path fill="#0AA06E" d="M47.725,7.456v3.248h-1.01V8.478C46.715,7.918,47.164,7.464,47.725,7.456z"/>
									<path fill="#078457" d="M45.512,9.769h2.225c0.564,0,1.023,0.457,1.023,1.022c0,0.564-0.459,1.022-1.023,1.022h-2.225
										V9.769z"/>
								</g>
							</g>
							<ellipse fill="#0AA06E" cx="42.337" cy="7.62" rx="0.274" ry="0.969"/>
							<g>
								<g>
									<g>
										<polyline fill="#078457" points="41.734,4.218 41.139,3.622 41.734,3.025 										"/>
										<polyline fill="#078457" points="42.961,5.444 42.365,4.849 42.961,4.253 										"/>
									</g>
									<g>
										<g>
											<g>
												<polyline fill="#078457" points="39.086,6.955 38.492,6.359 39.086,5.763 												"/>
											</g>
											<g>
												<polyline fill="#078457" points="40.314,8.181 39.717,7.585 40.314,6.99 												"/>
											</g>
										</g>
									</g>
									<g>
										<polyline fill="#078457" points="41.734,10.266 41.139,9.669 41.734,9.074 										"/>
										<polyline fill="#078457" points="42.961,11.491 42.365,10.896 42.961,10.301 										"/>
									</g>
								</g>
								<g>
									<g>
										<g>
											<g>
												<g>
													<polyline fill="#0AA06E" points="46.102,4.218 46.697,3.622 46.102,3.025 													"/>
												</g>
												<g>
													<polyline fill="#0AA06E" points="44.873,5.444 45.469,4.849 44.873,4.253 													"/>
												</g>
											</g>
										</g>
										<g>
											<g>
												<polyline fill="#0AA06E" points="48.748,10.161 49.344,9.565 48.748,8.97 												"/>
											</g>
											<g>
												<polyline fill="#0AA06E" points="47.52,11.388 48.115,10.793 47.52,10.197 												"/>
											</g>
										</g>
										<g>
											<g>
												<polyline fill="#0AA06E" points="46.102,7.337 46.697,6.742 46.102,6.147 												"/>
											</g>
											<g>
												<polyline fill="#0AA06E" points="44.873,8.565 45.469,7.97 44.873,7.372 												"/>
											</g>
										</g>
									</g>
								</g>
							</g>
						</g>
						<g>
							<g>
								<path fill="#CC9A48" d="M46.318,13.37h-4.805c-0.189,0-0.342-0.154-0.342-0.344s0.152-0.344,0.342-0.344h4.805
									c0.191,0,0.346,0.154,0.346,0.344S46.51,13.37,46.318,13.37z"/>
							</g>
							<g>
								<g>
									<path fill="#CC9A48" d="M43.379,14.571h-1.584c-0.189,0-0.344-0.153-0.344-0.344c0-0.189,0.154-0.343,0.344-0.343h1.584
										c0.189,0,0.344,0.153,0.344,0.343C43.723,14.418,43.568,14.571,43.379,14.571z"/>
								</g>
								<g>
									<path fill="#CC9A48" d="M46.039,14.571h-1.584c-0.189,0-0.342-0.153-0.342-0.344c0-0.189,0.152-0.343,0.342-0.343h1.584
										c0.189,0,0.342,0.153,0.342,0.343C46.381,14.418,46.229,14.571,46.039,14.571z"/>
								</g>
							</g>
						</g>
					</g>
					<g>
						<g>
							<path fill="#0AA06E" d="M61.113,12.738V2.987c0-1.212-0.982-2.194-2.197-2.194c-1.213,0-2.193,0.982-2.193,2.194v9.751
								H61.113z"/>
							<path fill="#078457" d="M59.006,12.738h2.107V2.987c0-1.212-0.982-2.194-2.197-2.194"/>
							
								<rect x="57.701" y="6.497" transform="matrix(0.7064 -0.7078 0.7078 0.7064 10.9919 43.8865)" fill="#078457" width="1.393" height="4.393"/>
							<g>
								<g>
									<path fill="#0AA06E" d="M56.119,7.496V5.271c0-0.564-0.457-1.022-1.021-1.022c-0.566,0-1.021,0.458-1.021,1.022v2.226
										H56.119z"/>
									<path fill="#078457" d="M55.109,4.25v3.246h1.01V5.271C56.119,4.711,55.668,4.256,55.109,4.25z"/>
									<path fill="#0AA06E" d="M57.324,6.562h-2.227c-0.566,0-1.021,0.458-1.021,1.022s0.455,1.022,1.021,1.022h2.227V6.562z"/>
								</g>
								<g>
									<path fill="#078457" d="M61.715,10.704V8.478c0-0.564,0.457-1.022,1.021-1.022s1.023,0.458,1.023,1.022v2.227H61.715z"/>
									<path fill="#0AA06E" d="M62.725,7.456v3.248h-1.01V8.478C61.715,7.918,62.164,7.464,62.725,7.456z"/>
									<path fill="#078457" d="M60.512,9.769h2.225c0.564,0,1.023,0.457,1.023,1.022c0,0.564-0.459,1.022-1.023,1.022h-2.225
										V9.769z"/>
								</g>
							</g>
							<ellipse fill="#0AA06E" cx="57.337" cy="7.62" rx="0.274" ry="0.969"/>
							<g>
								<g>
									<g>
										<polyline fill="#078457" points="56.734,4.218 56.139,3.622 56.734,3.025 										"/>
										<polyline fill="#078457" points="57.961,5.444 57.365,4.849 57.961,4.253 										"/>
									</g>
									<g>
										<g>
											<g>
												<polyline fill="#078457" points="54.086,6.955 53.492,6.359 54.086,5.763 												"/>
											</g>
											<g>
												<polyline fill="#078457" points="55.314,8.181 54.717,7.585 55.314,6.99 												"/>
											</g>
										</g>
									</g>
									<g>
										<polyline fill="#078457" points="56.734,10.266 56.139,9.669 56.734,9.074 										"/>
										<polyline fill="#078457" points="57.961,11.491 57.365,10.896 57.961,10.301 										"/>
									</g>
								</g>
								<g>
									<g>
										<g>
											<g>
												<g>
													<polyline fill="#0AA06E" points="61.102,4.218 61.697,3.622 61.102,3.025 													"/>
												</g>
												<g>
													<polyline fill="#0AA06E" points="59.873,5.444 60.469,4.849 59.873,4.253 													"/>
												</g>
											</g>
										</g>
										<g>
											<g>
												<polyline fill="#0AA06E" points="63.748,10.161 64.344,9.565 63.748,8.97 												"/>
											</g>
											<g>
												<polyline fill="#0AA06E" points="62.52,11.388 63.115,10.793 62.52,10.197 												"/>
											</g>
										</g>
										<g>
											<g>
												<polyline fill="#0AA06E" points="61.102,7.337 61.697,6.742 61.102,6.147 												"/>
											</g>
											<g>
												<polyline fill="#0AA06E" points="59.873,8.565 60.469,7.97 59.873,7.372 												"/>
											</g>
										</g>
									</g>
								</g>
							</g>
						</g>
						<g>
							<g>
								<path fill="#CC9A48" d="M61.318,13.37h-4.805c-0.189,0-0.342-0.154-0.342-0.344s0.152-0.344,0.342-0.344h4.805
									c0.191,0,0.346,0.154,0.346,0.344S61.51,13.37,61.318,13.37z"/>
							</g>
							<g>
								<g>
									<path fill="#CC9A48" d="M58.379,14.571h-1.584c-0.189,0-0.344-0.153-0.344-0.344c0-0.189,0.154-0.343,0.344-0.343h1.584
										c0.189,0,0.344,0.153,0.344,0.343C58.723,14.418,58.568,14.571,58.379,14.571z"/>
								</g>
								<g>
									<path fill="#CC9A48" d="M61.039,14.571h-1.584c-0.189,0-0.342-0.153-0.342-0.344c0-0.189,0.152-0.343,0.342-0.343h1.584
										c0.189,0,0.342,0.153,0.342,0.343C61.381,14.418,61.229,14.571,61.039,14.571z"/>
								</g>
							</g>
						</g>
					</g>
				</g>
				<g>
					<g>
						<path fill="#0AA06E" d="M53.613,25.693v-9.751c0-1.212-0.982-2.195-2.197-2.195c-1.213,0-2.193,0.983-2.193,2.195v9.751
							H53.613z"/>
						<path fill="#078457" d="M51.506,25.693h2.107v-9.751c0-1.212-0.982-2.195-2.197-2.195"/>
						
							<rect x="50.201" y="19.452" transform="matrix(0.7068 -0.7075 0.7075 0.7068 -0.3903 42.3562)" fill="#078457" width="1.393" height="4.393"/>
						<g>
							<g>
								<path fill="#0AA06E" d="M48.619,20.451v-2.226c0-0.564-0.457-1.022-1.021-1.022c-0.566,0-1.021,0.458-1.021,1.022v2.226
									H48.619z"/>
								<path fill="#078457" d="M47.609,17.205v3.246h1.01v-2.226C48.619,17.665,48.168,17.211,47.609,17.205z"/>
								<path fill="#0AA06E" d="M49.824,19.517h-2.227c-0.566,0-1.021,0.458-1.021,1.022s0.455,1.022,1.021,1.022h2.227V19.517z"/>
							</g>
							<g>
								<path fill="#078457" d="M54.215,23.659v-2.227c0-0.564,0.457-1.022,1.021-1.022s1.023,0.458,1.023,1.022v2.227H54.215z"/>
								<path fill="#0AA06E" d="M55.225,20.411v3.248h-1.01v-2.227C54.215,20.872,54.664,20.419,55.225,20.411z"/>
								<path fill="#078457" d="M53.012,22.724h2.225c0.564,0,1.023,0.457,1.023,1.022c0,0.564-0.459,1.022-1.023,1.022h-2.225
									V22.724z"/>
							</g>
						</g>
						<ellipse fill="#0AA06E" cx="49.837" cy="20.575" rx="0.274" ry="0.969"/>
						<g>
							<g>
								<g>
									<polyline fill="#078457" points="49.234,17.173 48.639,16.577 49.234,15.98 									"/>
									<polyline fill="#078457" points="50.461,18.399 49.865,17.804 50.461,17.209 									"/>
								</g>
								<g>
									<g>
										<g>
											<polyline fill="#078457" points="46.586,19.91 45.992,19.314 46.586,18.718 											"/>
										</g>
										<g>
											<polyline fill="#078457" points="47.814,21.136 47.217,20.541 47.814,19.945 											"/>
										</g>
									</g>
								</g>
								<g>
									<polyline fill="#078457" points="49.234,23.221 48.639,22.625 49.234,22.029 									"/>
									<polyline fill="#078457" points="50.461,24.446 49.865,23.852 50.461,23.256 									"/>
								</g>
							</g>
							<g>
								<g>
									<g>
										<g>
											<g>
												<polyline fill="#0AA06E" points="53.602,17.173 54.197,16.577 53.602,15.98 												"/>
											</g>
											<g>
												<polyline fill="#0AA06E" points="52.373,18.399 52.969,17.804 52.373,17.209 												"/>
											</g>
										</g>
									</g>
									<g>
										<g>
											<polyline fill="#0AA06E" points="56.248,23.116 56.844,22.521 56.248,21.925 											"/>
										</g>
										<g>
											<polyline fill="#0AA06E" points="55.02,24.343 55.615,23.747 55.02,23.152 											"/>
										</g>
									</g>
									<g>
										<g>
											<polyline fill="#0AA06E" points="53.602,20.293 54.197,19.697 53.602,19.103 											"/>
										</g>
										<g>
											<polyline fill="#0AA06E" points="52.373,21.521 52.969,20.925 52.373,20.327 											"/>
										</g>
									</g>
								</g>
							</g>
						</g>
					</g>
					<g>
						<g>
							<path fill="#CC9A48" d="M53.818,26.325h-4.805c-0.189,0-0.342-0.154-0.342-0.344c0-0.188,0.152-0.344,0.342-0.344h4.805
								c0.191,0,0.346,0.155,0.346,0.344C54.164,26.171,54.01,26.325,53.818,26.325z"/>
						</g>
						<g>
							<g>
								<path fill="#CC9A48" d="M50.879,27.526h-1.584c-0.189,0-0.344-0.154-0.344-0.344s0.154-0.343,0.344-0.343h1.584
									c0.189,0,0.344,0.153,0.344,0.343S51.068,27.526,50.879,27.526z"/>
							</g>
							<g>
								<path fill="#CC9A48" d="M53.539,27.526h-1.584c-0.189,0-0.342-0.154-0.342-0.344s0.152-0.343,0.342-0.343h1.584
									c0.189,0,0.342,0.153,0.342,0.343S53.729,27.526,53.539,27.526z"/>
							</g>
						</g>
					</g>
				</g>
			</g>
		</g>
	</g>
</g>
<g id="nyt_x5F_exporter_x5F_info" display="none">
</g>
</svg>
