<?xml version="1.0" encoding="utf-8"?>
<!-- Generator: Adobe Illustrator 16.0.0, SVG Export Plug-In . SVG Version: 6.00 Build 0)  -->
<!DOCTYPE svg PUBLIC "-//W3C//DTD SVG 1.1//EN" "http://www.w3.org/Graphics/SVG/1.1/DTD/svg11.dtd">
<svg version="1.1" id="Layer_1" xmlns="http://www.w3.org/2000/svg" xmlns:xlink="http://www.w3.org/1999/xlink" x="0px" y="0px"
	 width="64px" height="64px" viewBox="0 0 64 64" enable-background="new 0 0 64 64" xml:space="preserve">
<g>
	<g>
		<g>
			<g>
				<g>
					<g>
						<path fill="#F7910B" d="M62.3,39.3c0,13-11.9,23.5-30.3,23.5c-18.4,0-30.3-10.5-30.3-23.5S13.6,6.8,32,6.8
							C50.4,6.8,62.3,26.3,62.3,39.3z"/>
					</g>
					<g>
						<path fill="#F7910B" d="M62.3,39.3c0,13-11.9,19.5-30.3,19.5c-18.4,0-30.3-6.5-30.3-19.5S13.6,4.8,32,4.8
							C50.4,4.8,62.3,26.3,62.3,39.3z"/>
					</g>
					<g>
						<path fill="#F9A908" d="M32,4.8c18.4,0,30.3,21.5,30.3,34.5S50.4,58.8,32,58.8"/>
					</g>
					<g>
						<path fill="#F9A908" d="M62.3,39.3c0,13-11.9,19.5-30.3,19.5c-18.4,0-30.3-6.5-30.3-19.5S13.6,6.8,32,6.8
							C50.4,6.8,62.3,26.3,62.3,39.3z"/>
					</g>
					<g>
						<path fill="#F9C55D" d="M1.7,39.3c0-13,11.9-32.5,30.3-32.5"/>
					</g>
					<g>
						<path fill="#F7910B" d="M32,6.8c18.4,0,30.3,19.5,30.3,32.5S50.4,62.8,32,62.8"/>
					</g>
					<g>
						<path fill="#EA7103" d="M32,6.8c18.4,0,30.3,19.5,30.3,32.5"/>
					</g>
					<g>
						<circle fill="#F7910B" cx="10.3" cy="36.3" r="0.6"/>
					</g>
					<g>
						<circle fill="#F7910B" cx="5.8" cy="38.3" r="1.1"/>
					</g>
					<g>
						<circle fill="#F7910B" cx="8.8" cy="34.3" r="0.2"/>
					</g>
					<g>
						<circle fill="#F7910B" cx="13.4" cy="36.1" r="0.2"/>
					</g>
					<g>
						<circle fill="#F9A908" cx="52.6" cy="36.7" r="0.8"/>
					</g>
					<g>
						<circle fill="#F9A908" cx="55.1" cy="38" r="0.2"/>
					</g>
					<g>
						<circle fill="#F9A908" cx="49.8" cy="29.2" r="0.3"/>
					</g>
					<g>
						<circle fill="#F9A908" cx="49.3" cy="40.8" r="1.3"/>
					</g>
					<g>
						<circle fill="#F9A908" cx="56.5" cy="40.9" r="0.6"/>
					</g>
					<g>
						<circle fill="#F7910B" cx="9.3" cy="40.3" r="0.5"/>
					</g>
					<g>
						<circle fill="#F7910B" cx="10.1" cy="31.9" r="0.4"/>
					</g>
					<g>
						<circle fill="#F9A908" cx="4.8" cy="18.2" r="1.1"/>
					</g>
					<g>
						<circle fill="#F9A908" cx="8" cy="14.6" r="0.6"/>
					</g>
					<g>
						<circle fill="#F9A908" cx="59.2" cy="20.5" r="0.2"/>
					</g>
					<g>
						<circle fill="#F9A908" cx="58.4" cy="17.6" r="0.8"/>
					</g>
					<g>
						<path fill="#F9A908" d="M61.5,18.2c0,0.3-0.2,0.5-0.5,0.5c-0.3,0-0.5-0.2-0.5-0.5s0.2-0.5,0.5-0.5
							C61.2,17.7,61.5,17.9,61.5,18.2z"/>
					</g>
					<g>
						<circle fill="#F9A908" cx="6" cy="21.1" r="0.6"/>
					</g>
					<g>
						<g>
							<circle fill="#D87703" cx="20.6" cy="40.8" r="3.5"/>
						</g>
						<g>
							<path fill="#D87703" d="M46.9,40.8c0,1.9-1.6,3.5-3.5,3.5c-1.9,0-3.5-1.6-3.5-3.5c0-1.9,1.6-3.5,3.5-3.5
								C45.4,37.3,46.9,38.9,46.9,40.8z"/>
						</g>
						<g>
							<circle fill="#1E4784" cx="20.6" cy="39.8" r="3.5"/>
						</g>
						<g>
							<path fill="#00233F" d="M20.6,36.3c1.9,0,3.5,1.6,3.5,3.5s-1.6,3.5-3.5,3.5"/>
						</g>
						<g>
							<path fill="#1E4784" d="M46.9,39.8c0,1.9-1.6,3.5-3.5,3.5c-1.9,0-3.5-1.6-3.5-3.5s1.6-3.5,3.5-3.5
								C45.4,36.3,46.9,37.9,46.9,39.8z"/>
						</g>
						<g>
							<path fill="#00233F" d="M43.4,36.3c1.9,0,3.5,1.6,3.5,3.5s-1.6,3.5-3.5,3.5"/>
						</g>
						<g>
							<path fill="#F9A908" d="M16.5,39.1c0-2.3,1.8-5.1,4.1-5.1c2.3,0,4.1,2.8,4.1,5.1"/>
						</g>
						<g>
							<path fill="#F7910B" d="M39.3,39.1c0-2.3,1.8-5.1,4.1-5.1c2.2,0,4.1,2.8,4.1,5.1"/>
						</g>
					</g>
					<g>
						<g>
							<path fill="#F9C55D" d="M27.8,45.6c0,1.2-3.5,0.7-7.8,0.7c-4.3,0-7.8,0.6-7.8-0.7c0-1.2,3.5-2.2,7.8-2.2
								C24.3,43.4,27.8,44.4,27.8,45.6z"/>
						</g>
						<g>
							<path fill="#F9A908" d="M51.8,45.6c0,1.2-3.5,0.7-7.8,0.7s-7.8,0.6-7.8-0.7c0-1.2,3.5-2.2,7.8-2.2S51.8,44.4,51.8,45.6z"/>
						</g>
					</g>
					<g>
						<g>
							<g>
								<g>
									<path fill="#641E82" d="M39.1,27.4c-0.1,1.2,1.6,0.7,3.7,0.9c2.1,0.1,3.7,0.9,3.7-0.4c0.1-1.2-1.6-2.4-3.6-2.5
										C40.8,25.3,39.1,26.2,39.1,27.4z"/>
								</g>
							</g>
						</g>
					</g>
				</g>
			</g>
		</g>
		<g>
			<g>
				<path fill="#F7910B" d="M39.4,51c0,2.6-3.3,4.7-7.4,4.7c-4.1,0-7.4-2.1-7.4-4.7"/>
			</g>
			<g>
				<path fill="#02243E" d="M35,51h-6c-0.6,0-1-0.4-1-1s0.4-1,1-1h6c0.6,0,1,0.4,1,1S35.6,51,35,51z"/>
			</g>
		</g>
	</g>
	<g>
		<g>
			<path fill="#641E82" d="M48.7,10.6c0,0-2.1,19-35.6,22.3l0.9-4.7c0,0-10.5,5.2-10.6,12.4c0,0-3.2-20.7,2.1-29.8
				C12.1-0.8,25-0.6,41.7,4.5L48.7,10.6z"/>
		</g>
		<g>
			<path fill="#00233F" d="M41.7,4.5l7,6.1c0,0-2.1,19-35.6,22.3l0.9-4.7c0,0-10.5,5.2-10.6,12.4c0,0-3.2-20.7,2.1-29.8"/>
		</g>
		<g>
			<path fill="#00233F" d="M42.6,6.8c0,0,5.5,13.2,18.2,23.4c0,0,5.7-25.8-14.1-26.1l-7.4,0.2L42.6,6.8z"/>
		</g>
		<g>
			<path fill="#641E82" d="M46.7,4.1l-7.4,0.2l3.3,2.5c0,0,5.5,13.2,18.2,23.4"/>
		</g>
	</g>
</g>
</svg>
