<?xml version="1.0" encoding="utf-8"?>
<!-- Generator: Adobe Illustrator 16.0.0, SVG Export Plug-In . SVG Version: 6.00 Build 0)  -->
<!DOCTYPE svg PUBLIC "-//W3C//DTD SVG 1.1//EN" "http://www.w3.org/Graphics/SVG/1.1/DTD/svg11.dtd">
<svg version="1.1" id="Layer_1" xmlns="http://www.w3.org/2000/svg" xmlns:xlink="http://www.w3.org/1999/xlink" x="0px" y="0px"
	 width="64px" height="64px" viewBox="0 0 64 64" enable-background="new 0 0 64 64" xml:space="preserve">
<g>
	<g>
		<g>
			<g>
				<path fill="#00233F" d="M7.6,25.2c0,0-8.5-4.5-5.4-13.2c3.1-8.7,0.4-11,0.4-11S17,4.3,18.6,15.5L7.6,25.2z"/>
			</g>
			<g>
				<path fill="#F44ADC" d="M7.6,25.2c0,0-8.5-4.5-5.4-13.2c3.1-8.7,0.4-11,0.4-11s8.6,5.6,10.2,16.8L7.6,25.2z"/>
			</g>
			<g>
				<path fill="#DB1DB3" d="M2.6,1.1c0,0,8.6,5.6,10.2,16.8"/>
			</g>
		</g>
		<g>
			<g>
				<path fill="#00233F" d="M56.4,25.2c0,0,8.5-4.5,5.4-13.2c-3.1-8.7-0.4-11-0.4-11S47,4.3,45.4,15.5L56.4,25.2z"/>
			</g>
			<g>
				<path fill="#F44ADC" d="M56.4,25.2c0,0,8.5-4.5,5.4-13.2c-3.1-8.7-0.4-11-0.4-11s-8.6,5.6-10.2,16.8L56.4,25.2z"/>
			</g>
			<g>
				<path fill="#DB1DB3" d="M61.4,1.1c0,0-8.6,5.6-10.2,16.8"/>
			</g>
		</g>
	</g>
	<g>
		<g>
			<g>
				<g>
					<path fill="#F7910B" d="M62.3,39.4c0,13-11.9,23.5-30.3,23.5c-18.4,0-30.3-10.5-30.3-23.5S13.6,6.9,32,6.9
						C50.4,6.9,62.3,26.5,62.3,39.4z"/>
				</g>
				<g>
					<path fill="#F7910B" d="M62.3,39.4c0,13-11.9,19.5-30.3,19.5c-18.4,0-30.3-6.5-30.3-19.5S13.6,4.9,32,4.9
						C50.4,4.9,62.3,26.5,62.3,39.4z"/>
				</g>
				<g>
					<path fill="#F9A908" d="M32,4.9c18.4,0,30.3,21.5,30.3,34.5S50.4,58.9,32,58.9"/>
				</g>
				<g>
					<path fill="#F9A908" d="M62.3,39.4c0,13-11.9,19.5-30.3,19.5c-18.4,0-30.3-6.5-30.3-19.5S13.6,6.9,32,6.9
						C50.4,6.9,62.3,26.5,62.3,39.4z"/>
				</g>
				<g>
					<path fill="#F9C55D" d="M1.7,39.4c0-13,11.9-32.5,30.3-32.5"/>
				</g>
				<g>
					<path fill="#F7910B" d="M32,6.9c18.4,0,30.3,19.5,30.3,32.5S50.4,62.9,32,62.9"/>
				</g>
				<g>
					<path fill="#EA7103" d="M32,6.9c18.4,0,30.3,19.5,30.3,32.5"/>
				</g>
				<g>
					<circle fill="#F7910B" cx="10.3" cy="36.4" r="0.6"/>
				</g>
				<g>
					<circle fill="#F7910B" cx="5.8" cy="38.4" r="1.1"/>
				</g>
				<g>
					<circle fill="#F7910B" cx="8.8" cy="34.4" r="0.2"/>
				</g>
				<g>
					<circle fill="#F7910B" cx="13.4" cy="36.2" r="0.2"/>
				</g>
				<g>
					<circle fill="#F9A908" cx="52.6" cy="36.8" r="0.8"/>
				</g>
				<g>
					<circle fill="#F9A908" cx="55.1" cy="38.1" r="0.2"/>
				</g>
				<g>
					<circle fill="#F9A908" cx="49.8" cy="29.3" r="0.3"/>
				</g>
				<g>
					<circle fill="#F9A908" cx="49.3" cy="41" r="1.3"/>
				</g>
				<g>
					<circle fill="#F9A908" cx="56.5" cy="41" r="0.6"/>
				</g>
				<g>
					<circle fill="#F7910B" cx="9.3" cy="40.4" r="0.5"/>
				</g>
				<g>
					<circle fill="#F7910B" cx="10.1" cy="32" r="0.4"/>
				</g>
				<g>
					<circle fill="#F9A908" cx="4.8" cy="18.3" r="1.1"/>
				</g>
				<g>
					<circle fill="#F9A908" cx="8" cy="14.7" r="0.6"/>
				</g>
				<g>
					<circle fill="#F9A908" cx="59.2" cy="20.6" r="0.2"/>
				</g>
				<g>
					<circle fill="#F9A908" cx="58.4" cy="17.7" r="0.8"/>
				</g>
				<g>
					<path fill="#F9A908" d="M61.5,18.3c0,0.3-0.2,0.5-0.5,0.5c-0.3,0-0.5-0.2-0.5-0.5s0.2-0.5,0.5-0.5C61.2,17.8,61.5,18,61.5,18.3
						z"/>
				</g>
				<g>
					<circle fill="#F9A908" cx="6" cy="21.2" r="0.6"/>
				</g>
				<g>
					<g>
						<circle fill="#D87703" cx="20.6" cy="40.9" r="3.5"/>
					</g>
					<g>
						<path fill="#D87703" d="M46.9,40.9c0,1.9-1.6,3.5-3.5,3.5c-1.9,0-3.5-1.6-3.5-3.5c0-1.9,1.6-3.5,3.5-3.5
							C45.4,37.4,46.9,39,46.9,40.9z"/>
					</g>
					<g>
						<circle fill="#1E4784" cx="20.6" cy="39.9" r="3.5"/>
					</g>
					<g>
						<path fill="#00233F" d="M20.6,36.4c1.9,0,3.5,1.6,3.5,3.5s-1.6,3.5-3.5,3.5"/>
					</g>
					<g>
						<path fill="#1E4784" d="M46.9,39.9c0,1.9-1.6,3.5-3.5,3.5c-1.9,0-3.5-1.6-3.5-3.5s1.6-3.5,3.5-3.5
							C45.4,36.4,46.9,38,46.9,39.9z"/>
					</g>
					<g>
						<path fill="#00233F" d="M43.4,36.4c1.9,0,3.5,1.6,3.5,3.5s-1.6,3.5-3.5,3.5"/>
					</g>
					<g>
						<path fill="#F9A908" d="M16.5,39.2c0-2.3,1.8-5.1,4.1-5.1c2.3,0,4.1,2.8,4.1,5.1"/>
					</g>
					<g>
						<path fill="#F7910B" d="M39.3,39.2c0-2.3,1.8-5.1,4.1-5.1c2.2,0,4.1,2.8,4.1,5.1"/>
					</g>
				</g>
				<g>
					<g>
						<path fill="#F9C55D" d="M27.8,45.7c0,1.2-3.5,0.7-7.8,0.7c-4.3,0-7.8,0.6-7.8-0.7c0-1.2,3.5-2.2,7.8-2.2
							C24.3,43.5,27.8,44.5,27.8,45.7z"/>
					</g>
					<g>
						<path fill="#F9A908" d="M51.8,45.7c0,1.2-3.5,0.7-7.8,0.7s-7.8,0.6-7.8-0.7c0-1.2,3.5-2.2,7.8-2.2S51.8,44.5,51.8,45.7z"/>
					</g>
				</g>
				<g>
					<g>
						<g>
							<g>
								<path fill="#109DA0" d="M26.1,24.5c-0.7,1.5-2.4-0.2-5-1.4c-2.5-1.2-5-1.4-4.3-2.9c0.7-1.5,3.4-1.8,5.9-0.6
									C25.3,20.8,26.8,23,26.1,24.5z"/>
							</g>
						</g>
					</g>
					<g>
						<g>
							<g>
								<path fill="#109DA0" d="M37.9,24.5c0.7,1.5,2.4-0.2,5-1.4c2.5-1.2,5-1.4,4.3-2.9c-0.7-1.5-3.4-1.8-5.9-0.6
									C38.7,20.8,37.2,23,37.9,24.5z"/>
							</g>
						</g>
					</g>
				</g>
				<g>
					<g>
						<g>
							<path fill="#F7910B" d="M39.4,52.6c0,2.2-3.3,6.2-7.4,6.2s-7.4-4-7.4-6.2"/>
						</g>
						<g>
							<g>
								<path fill="#02243E" d="M27.8,54.3c-3.1,0-6.5-1.6-9.2-3.8c-0.5-0.4-0.5-1.1-0.1-1.5c0.4-0.5,1.1-0.5,1.5-0.1
									c2.4,2,7.8,5,11.3,2.1c0.5-0.4,1.2-0.3,1.5,0.1c0.4,0.5,0.3,1.2-0.1,1.5C31.2,53.8,29.5,54.3,27.8,54.3z"/>
							</g>
							<g>
								<path fill="#02243E" d="M36.2,54.3c-1.8,0-3.5-0.5-4.9-1.7c-0.5-0.4-0.5-1.1-0.1-1.5c0.4-0.5,1.1-0.5,1.5-0.1
									c3.5,2.9,8.9-0.1,11.3-2.1c0.5-0.4,1.2-0.3,1.5,0.1c0.4,0.5,0.3,1.2-0.1,1.5C42.8,52.7,39.4,54.3,36.2,54.3z"/>
							</g>
						</g>
						<g>
							<path fill="#F9C55D" d="M29.4,51.3c-0.2,0.5-2.1,0.5-4.2-0.2c-2.1-0.6-3.5-1.6-3.3-2.1c0.2-0.5,1.9,0,4,0.6
								C28,50.2,29.6,50.7,29.4,51.3z"/>
						</g>
						<g>
							<path fill="#F9A908" d="M34.9,51.3c0.2,0.5,2.1,0.5,4.2-0.2c2.1-0.6,3.5-1.6,3.3-2.1c-0.2-0.5-1.9,0-4,0.6
								C36.3,50.2,34.6,50.7,34.9,51.3z"/>
						</g>
					</g>
					<g>
						<ellipse fill="#00233F" cx="26" cy="46.5" rx="0.6" ry="0.5"/>
					</g>
					<g>
						<ellipse fill="#00233F" cx="23.6" cy="47.2" rx="0.7" ry="0.6"/>
					</g>
					<g>
						<ellipse fill="#00233F" cx="26.3" cy="48.6" rx="0.3" ry="0.3"/>
					</g>
					<g>
						<ellipse fill="#00233F" cx="39.4" cy="47.1" rx="0.7" ry="0.6"/>
					</g>
					<g>
						<ellipse fill="#00233F" cx="38.6" cy="49.3" rx="0.3" ry="0.3"/>
					</g>
					<g>
						<ellipse fill="#00233F" cx="42.2" cy="47.3" rx="0.6" ry="0.5"/>
					</g>
				</g>
			</g>
		</g>
	</g>
</g>
</svg>
