<?xml version="1.0" encoding="utf-8"?>
<!-- Generator: Adobe Illustrator 16.0.0, SVG Export Plug-In . SVG Version: 6.00 Build 0)  -->
<!DOCTYPE svg PUBLIC "-//W3C//DTD SVG 1.1//EN" "http://www.w3.org/Graphics/SVG/1.1/DTD/svg11.dtd">
<svg version="1.1" id="Layer_1" xmlns="http://www.w3.org/2000/svg" xmlns:xlink="http://www.w3.org/1999/xlink" x="0px" y="0px"
	 width="64px" height="64px" viewBox="0 0 64 64" enable-background="new 0 0 64 64" xml:space="preserve">
<g>
	<g>
		<g>
			<g>
				<circle fill="#76E83A" cx="32" cy="32" r="30.5"/>
				<path fill="#AAFC7A" d="M1.5,32C1.5,15.2,15.2,1.5,32,1.5"/>
				<path fill="#62D122" d="M53.6,10.4c11.9,11.9,11.9,31.2,0,43.1c-11.9,11.9-31.2,11.9-43.1,0"/>
				<path fill="#2F5068" d="M32,63.5C14.6,63.5,0.5,49.4,0.5,32S14.6,0.5,32,0.5S63.5,14.6,63.5,32S49.4,63.5,32,63.5z M32,2.5
					C15.7,2.5,2.5,15.7,2.5,32S15.7,61.5,32,61.5c16.3,0,29.5-13.2,29.5-29.5S48.3,2.5,32,2.5z"/>
			</g>
		</g>
	</g>
	<g>
		<g>
			<polygon fill="#FF9100" points="32,31.5 5.8,46.6 32,2.1 32,31.2 			"/>
			<path fill="#2F5068" d="M5.8,47.6c-0.3,0-0.5-0.1-0.7-0.3C4.8,47,4.7,46.5,5,46.1L31.1,1.6c0.2-0.4,0.7-0.6,1.1-0.5
				c0.4,0.1,0.7,0.5,0.7,1v29.4c0,0.4-0.2,0.7-0.5,0.9L6.3,47.5C6.2,47.6,6,47.6,5.8,47.6z M31,5.8L8.6,43.9L31,30.9V5.8z"/>
		</g>
		<g>
			<polygon fill="#FFBC00" points="32,31.5 58.2,46.6 32,2.1 32,31.2 			"/>
			<polygon fill="#FF9100" points="32.3,31.7 58.2,46.6 43.1,20.9 			"/>
			<path fill="#2F5068" d="M58.2,47.6c-0.2,0-0.3,0-0.5-0.1L31.5,32.4c-0.3-0.2-0.5-0.5-0.5-0.9V2.1c0-0.5,0.3-0.8,0.7-1
				c0.4-0.1,0.9,0.1,1.1,0.5L59,46.1c0.2,0.4,0.2,0.9-0.2,1.2C58.7,47.5,58.4,47.6,58.2,47.6z M33,30.9l22.4,12.9L33,5.8V30.9z"/>
		</g>
		<g>
			<polygon fill="#FFBC00" points="5.8,47 32,31.9 58.2,47 			"/>
			<path fill="#2F5068" d="M58.2,48C58.2,48,58.2,48,58.2,48H5.8c-0.5,0-0.8-0.5-1-0.9s0.1-1,0.5-1.2l26.2-15.2c0.3-0.2,0.7-0.2,1,0
				l26.1,15c0.4,0.1,0.6,0.7,0.6,1.1C59.2,47.4,58.8,48,58.2,48z M9.5,46h44.9L32,33L9.5,46z"/>
		</g>
	</g>
	<g>
		<g>
			<polygon fill="#FFDA00" points="32,31.6 19.2,38.9 32,17.2 32,31.4 			"/>
			<path fill="#2F5068" d="M19.2,39.9c-0.3,0-0.5-0.1-0.7-0.3c-0.3-0.3-0.4-0.8-0.2-1.2l12.8-21.7c0.2-0.4,0.7-0.6,1.1-0.5
				c0.4,0.1,0.7,0.5,0.7,1v14.4c0,0.4-0.2,0.7-0.5,0.9l-12.8,7.4C19.6,39.9,19.4,39.9,19.2,39.9z M31,20.9l-9,15.3l9-5.2V20.9z"/>
		</g>
		<g>
			<polygon fill="#FFBC00" points="32,31.6 44.8,38.9 32,17.2 32,31.4 			"/>
			<path fill="#2F5068" d="M44.8,39.9c-0.2,0-0.3,0-0.5-0.1l-12.8-7.4c-0.3-0.2-0.5-0.5-0.5-0.9V17.2c0-0.5,0.3-0.8,0.7-1
				c0.4-0.1,0.9,0.1,1.1,0.5l12.8,21.7c0.2,0.4,0.2,0.9-0.2,1.2C45.3,39.8,45,39.9,44.8,39.9z M33,31l9,5.2l-9-15.3V31z"/>
		</g>
		<g>
			<polygon fill="#FF9100" points="19.2,39 32,31.6 44.8,39 			"/>
			<path fill="#2F5068" d="M44.8,40C44.8,40,44.8,40,44.8,40H19.2c-0.5,0-0.8-0.3-1-0.8s0.1-0.9,0.5-1.1l12.8-7.4
				c0.3-0.2,0.7-0.2,1,0L45.2,38c0.4,0.1,0.6,0.5,0.6,1C45.8,39.5,45.3,40,44.8,40z M23,38H41l-9-5.2L23,38z"/>
		</g>
	</g>
	<g>
		<path fill="#2F5068" d="M32,63.2c-0.4,0-0.7-0.2-0.9-0.5L5,18.1c-0.2-0.3-0.2-0.5,0-0.8C5.1,17,5.5,17,5.8,17h52.4
			c0.4,0,0.7,0,0.9,0.3c0.2,0.3,0.2,0.6,0,0.9L32.9,62.7C32.7,63,32.4,63.2,32,63.2z M7.6,19L32,60.6L56.4,19H7.6z"/>
	</g>
</g>
</svg>
