<?xml version="1.0" encoding="utf-8"?>
<!-- Generator: Adobe Illustrator 16.0.0, SVG Export Plug-In . SVG Version: 6.00 Build 0)  -->
<!DOCTYPE svg PUBLIC "-//W3C//DTD SVG 1.1//EN" "http://www.w3.org/Graphics/SVG/1.1/DTD/svg11.dtd">
<svg version="1.1" id="Layer_1" xmlns="http://www.w3.org/2000/svg" xmlns:xlink="http://www.w3.org/1999/xlink" x="0px" y="0px"
	 width="64px" height="64px" viewBox="0 0 64 64" enable-background="new 0 0 64 64" xml:space="preserve">
<g>
	<g>
		<rect x="1" y="53.2" fill="#A3481F" width="24.4" height="8.2"/>
		<rect x="1" y="51.6" fill="#7F7269" width="24.4" height="1.9"/>
		<rect x="1" y="50.9" fill="#9B948F" width="24.4" height="1"/>
		<rect x="1" y="55.5" fill="#7C361A" width="24.4" height="5.8"/>
		<g>
			<polygon fill="#9B948F" points="21.6,59 11.2,59 18.2,15.5 21.6,15.5 			"/>
			<polygon fill="#7F7269" points="24.9,59 17.2,59 21.5,15.5 24.9,15.5 			"/>
			<g>
				<g>
					<path fill="#E56730" d="M25.4,24.6c0,0.2-0.2,0.4-0.4,0.4H13.8c-0.2,0-0.4-0.2-0.4-0.4v-1.1c0-0.2,0.2-0.4,0.4-0.4h11.2
						c0.2,0,0.4,0.2,0.4,0.4V24.6z"/>
					<path fill="#BF471D" d="M25.4,24.6v-1.1c0-0.2-0.2-0.4-0.4-0.4h-6c-0.2,0-0.4,0.2-0.4,0.4v1.1c0,0.2,0.2,0.4,0.4,0.4h6
						C25.3,25,25.4,24.8,25.4,24.6z"/>
				</g>
				<g>
					<polygon fill="#C1673A" points="18,18.5 14.7,23.4 24.9,23.4 24.9,18.5 					"/>
					<polygon fill="#A3481F" points="21.2,18.5 19.5,23.4 24.9,23.4 24.9,18.5 					"/>
				</g>
			</g>
			<g>
				<g>
					<path fill="#E56730" d="M25.4,34.9c0,0.2-0.2,0.4-0.4,0.4H11.5c-0.2,0-0.4-0.2-0.4-0.4v-1.3c0-0.2,0.2-0.4,0.4-0.4H25
						c0.2,0,0.4,0.2,0.4,0.4V34.9z"/>
					<path fill="#BF471D" d="M25.4,34.9v-1.3c0-0.2-0.2-0.4-0.4-0.4h-7.2c-0.2,0-0.4,0.2-0.4,0.4v1.3c0,0.2,0.2,0.4,0.4,0.4H25
						C25.2,35.3,25.4,35.1,25.4,34.9z"/>
				</g>
				<g>
					<polygon fill="#C1673A" points="16.5,27.5 12.6,33.4 24.8,33.4 24.8,27.5 					"/>
					<polygon fill="#A3481F" points="20.4,27.5 18.3,33.4 24.8,33.4 24.8,27.5 					"/>
				</g>
			</g>
			<g>
				<g>
					<path fill="#E56730" d="M25.4,46.7c0,0.3-0.2,0.5-0.5,0.5H8.7c-0.3,0-0.5-0.2-0.5-0.5v-1.6c0-0.3,0.2-0.5,0.5-0.5h16.2
						c0.3,0,0.5,0.2,0.5,0.5V46.7z"/>
					<path fill="#BF471D" d="M25.4,46.7v-1.6c0-0.3-0.2-0.5-0.5-0.5h-8.7c-0.3,0-0.5,0.2-0.5,0.5v1.6c0,0.3,0.2,0.5,0.5,0.5h8.7
						C25.2,47.2,25.4,47,25.4,46.7z"/>
				</g>
				<g>
					<polygon fill="#C1673A" points="14.7,37.8 10,44.9 24.7,44.9 24.7,37.8 					"/>
					<polygon fill="#A3481F" points="19.4,37.8 16.8,44.9 24.7,44.9 24.7,37.8 					"/>
				</g>
			</g>
			<g>
				<g>
					<path fill="#E56730" d="M25.4,60.8c0,0.3-0.3,0.6-0.6,0.6H5.4c-0.3,0-0.6-0.3-0.6-0.6v-1.9c0-0.3,0.3-0.6,0.6-0.6h19.4
						c0.3,0,0.6,0.3,0.6,0.6V60.8z"/>
					<path fill="#BF471D" d="M25.4,60.8v-1.9c0-0.3-0.3-0.6-0.6-0.6H14.4c-0.3,0-0.6,0.3-0.6,0.6v1.9c0,0.3,0.3,0.6,0.6,0.6h10.4
						C25.2,61.4,25.4,61.1,25.4,60.8z"/>
				</g>
				<g>
					<polygon fill="#C1673A" points="12.6,50.1 6.9,58.7 24.5,58.7 24.5,50.1 					"/>
					<polygon fill="#A3481F" points="18.1,50.1 15.1,58.7 24.5,58.7 24.5,50.1 					"/>
				</g>
			</g>
			<g>
				<polygon fill="#C1673A" points="16.5,15.5 25,15.5 25,2.6 				"/>
				<polygon fill="#A3481F" points="20.5,15.5 25,15.5 25,2.6 				"/>
				<path fill="#E56730" d="M25.4,16.5c0,0.2-0.1,0.3-0.3,0.3h-9.4c-0.2,0-0.3-0.1-0.3-0.3v-0.9c0-0.2,0.1-0.3,0.3-0.3h9.4
					c0.2,0,0.3,0.1,0.3,0.3V16.5z"/>
				<path fill="#BF471D" d="M25.4,16.5v-0.9c0-0.2-0.1-0.3-0.3-0.3h-5c-0.2,0-0.3,0.1-0.3,0.3v0.9c0,0.2,0.1,0.3,0.3,0.3h5
					C25.3,16.8,25.4,16.7,25.4,16.5z"/>
			</g>
			<path fill="#604533" d="M25.4,60.9c0,0.2-0.2,0.4-0.4,0.4l0,0c-0.2,0-0.4-0.2-0.4-0.4V3.2c0-0.2,0.2-0.4,0.4-0.4l0,0
				c0.2,0,0.4,0.2,0.4,0.4V60.9z"/>
		</g>
	</g>
	<g>
		<rect x="38.6" y="53.2" fill="#A3481F" width="24.4" height="8.2"/>
		<rect x="38.6" y="51.6" fill="#7F7269" width="24.4" height="1.9"/>
		<rect x="38.6" y="50.9" fill="#9B948F" width="24.4" height="1"/>
		<rect x="38.6" y="55.5" fill="#7C361A" width="24.4" height="5.8"/>
		<g>
			<polygon fill="#9B948F" points="42.4,59 52.8,59 45.8,15.5 42.4,15.5 			"/>
			<polygon fill="#7F7269" points="39.1,59 46.8,59 42.5,15.5 39.1,15.5 			"/>
			<g>
				<g>
					<path fill="#E56730" d="M38.6,24.6c0,0.2,0.2,0.4,0.4,0.4h11.2c0.2,0,0.4-0.2,0.4-0.4v-1.1c0-0.2-0.2-0.4-0.4-0.4H38.9
						c-0.2,0-0.4,0.2-0.4,0.4V24.6z"/>
					<path fill="#BF471D" d="M38.6,24.6v-1.1c0-0.2,0.2-0.4,0.4-0.4h6c0.2,0,0.4,0.2,0.4,0.4v1.1c0,0.2-0.2,0.4-0.4,0.4h-6
						C38.7,25,38.6,24.8,38.6,24.6z"/>
				</g>
				<g>
					<polygon fill="#C1673A" points="46,18.5 49.3,23.4 39.1,23.4 39.1,18.5 					"/>
					<polygon fill="#A3481F" points="42.8,18.5 44.5,23.4 39.1,23.4 39.1,18.5 					"/>
				</g>
			</g>
			<g>
				<g>
					<path fill="#E56730" d="M38.6,34.9c0,0.2,0.2,0.4,0.4,0.4h13.5c0.2,0,0.4-0.2,0.4-0.4v-1.3c0-0.2-0.2-0.4-0.4-0.4H39
						c-0.2,0-0.4,0.2-0.4,0.4V34.9z"/>
					<path fill="#BF471D" d="M38.6,34.9v-1.3c0-0.2,0.2-0.4,0.4-0.4h7.2c0.2,0,0.4,0.2,0.4,0.4v1.3c0,0.2-0.2,0.4-0.4,0.4H39
						C38.8,35.3,38.6,35.1,38.6,34.9z"/>
				</g>
				<g>
					<polygon fill="#C1673A" points="47.5,27.5 51.4,33.4 39.2,33.4 39.2,27.5 					"/>
					<polygon fill="#A3481F" points="43.6,27.5 45.7,33.4 39.2,33.4 39.2,27.5 					"/>
				</g>
			</g>
			<g>
				<g>
					<path fill="#E56730" d="M38.6,46.7c0,0.3,0.2,0.5,0.5,0.5h16.2c0.3,0,0.5-0.2,0.5-0.5v-1.6c0-0.3-0.2-0.5-0.5-0.5H39.1
						c-0.3,0-0.5,0.2-0.5,0.5V46.7z"/>
					<path fill="#BF471D" d="M38.6,46.7v-1.6c0-0.3,0.2-0.5,0.5-0.5h8.7c0.3,0,0.5,0.2,0.5,0.5v1.6c0,0.3-0.2,0.5-0.5,0.5h-8.7
						C38.8,47.2,38.6,47,38.6,46.7z"/>
				</g>
				<g>
					<polygon fill="#C1673A" points="49.3,37.8 54,44.9 39.3,44.9 39.3,37.8 					"/>
					<polygon fill="#A3481F" points="44.6,37.8 47.2,44.9 39.3,44.9 39.3,37.8 					"/>
				</g>
			</g>
			<g>
				<g>
					<path fill="#E56730" d="M38.6,60.8c0,0.3,0.3,0.6,0.6,0.6h19.4c0.3,0,0.6-0.3,0.6-0.6v-1.9c0-0.3-0.3-0.6-0.6-0.6H39.2
						c-0.3,0-0.6,0.3-0.6,0.6V60.8z"/>
					<path fill="#BF471D" d="M38.6,60.8v-1.9c0-0.3,0.3-0.6,0.6-0.6h10.4c0.3,0,0.6,0.3,0.6,0.6v1.9c0,0.3-0.3,0.6-0.6,0.6H39.2
						C38.8,61.4,38.6,61.1,38.6,60.8z"/>
				</g>
				<g>
					<polygon fill="#C1673A" points="51.4,50.1 57.1,58.7 39.5,58.7 39.5,50.1 					"/>
					<polygon fill="#A3481F" points="45.9,50.1 48.9,58.7 39.5,58.7 39.5,50.1 					"/>
				</g>
			</g>
			<g>
				<polygon fill="#C1673A" points="47.5,15.5 39,15.5 39,2.6 				"/>
				<polygon fill="#A3481F" points="43.5,15.5 39,15.5 39,2.6 				"/>
				<path fill="#E56730" d="M38.6,16.5c0,0.2,0.1,0.3,0.3,0.3h9.4c0.2,0,0.3-0.1,0.3-0.3v-0.9c0-0.2-0.1-0.3-0.3-0.3h-9.4
					c-0.2,0-0.3,0.1-0.3,0.3V16.5z"/>
				<path fill="#BF471D" d="M38.6,16.5v-0.9c0-0.2,0.1-0.3,0.3-0.3h5c0.2,0,0.3,0.1,0.3,0.3v0.9c0,0.2-0.1,0.3-0.3,0.3h-5
					C38.7,16.8,38.6,16.7,38.6,16.5z"/>
			</g>
			<path fill="#604533" d="M38.6,60.9c0,0.2,0.2,0.4,0.4,0.4l0,0c0.2,0,0.4-0.2,0.4-0.4V3.2c0-0.2-0.2-0.4-0.4-0.4l0,0
				c-0.2,0-0.4,0.2-0.4,0.4V60.9z"/>
		</g>
	</g>
</g>
</svg>
