<?xml version="1.0" encoding="utf-8"?>
<!-- Generator: Adobe Illustrator 16.0.0, SVG Export Plug-In . SVG Version: 6.00 Build 0)  -->
<!DOCTYPE svg PUBLIC "-//W3C//DTD SVG 1.1//EN" "http://www.w3.org/Graphics/SVG/1.1/DTD/svg11.dtd">
<svg version="1.1" xmlns="http://www.w3.org/2000/svg" xmlns:xlink="http://www.w3.org/1999/xlink" x="0px" y="0px" width="65px"
	 height="65px" viewBox="0 0 65 65" enable-background="new 0 0 65 65" xml:space="preserve">
<g id="Layer_1">
	<g>
		<g>
			<g>
				<path fill="#32F9B1" d="M45.167,52.161c0,2.834-2.687,5.131-6,5.131H25.834c-3.314,0-6-2.297-6-5.131V12.837
					c0-2.832,2.686-5.129,6-5.129h13.333c3.313,0,6,2.297,6,5.129V52.161z"/>
			</g>
			<g>
				<path fill="#2FD4EA" d="M45.167,12.837v39.324c0,2.834-2.687,5.131-6,5.131H25.834c-3.314,0-6-2.297-6-5.131"/>
			</g>
			<g>
				<path fill="#0071AA" d="M39.167,59.792H25.834c-4.687,0-8.5-3.423-8.5-7.631V12.837c0-4.207,3.813-7.629,8.5-7.629h13.333
					c4.688,0,8.502,3.422,8.502,7.629v39.324C47.669,56.369,43.854,59.792,39.167,59.792z M25.834,10.208
					c-1.897,0-3.5,1.204-3.5,2.629v39.324c0,1.426,1.603,2.631,3.5,2.631h13.333c1.898,0,3.502-1.205,3.502-2.631V12.837
					c0-1.425-1.604-2.629-3.502-2.629H25.834z"/>
			</g>
		</g>
		<g>
			<g>
				<g>
					<path fill="#B1BCB8" d="M50.007,4.667c-9.669,9.666-25.346,9.666-35.014-0.002"/>
				</g>
				<g>
					<path fill="#0071AA" d="M32.501,14.403c-6.981,0-13.963-2.656-19.275-7.971c-0.977-0.977-0.977-2.559,0-3.535
						s2.559-0.977,3.535,0c8.678,8.678,22.799,8.679,31.479,0.002c0.977-0.977,2.561-0.977,3.535,0c0.977,0.977,0.977,2.56,0,3.535
						C46.461,11.747,39.48,14.403,32.501,14.403z"/>
				</g>
			</g>
			<g>
				<g>
					<path fill="#B1BCB8" d="M14.993,60.333c9.668-9.666,25.346-9.666,35.014,0.002"/>
				</g>
				<g>
					<path fill="#0071AA" d="M50.007,62.835c-0.639,0-1.279-0.244-1.767-0.732c-8.678-8.678-22.8-8.678-31.479-0.002
						c-0.977,0.977-2.56,0.977-3.535,0c-0.977-0.977-0.977-2.56,0-3.535c10.628-10.627,27.921-10.627,38.549,0.002
						c0.976,0.977,0.976,2.559,0,3.535C51.286,62.591,50.647,62.835,50.007,62.835z"/>
				</g>
			</g>
		</g>
	</g>
</g>
<g id="nyt_x5F_exporter_x5F_info" display="none">
</g>
</svg>
