<?xml version="1.0" encoding="utf-8"?>
<!-- Generator: Adobe Illustrator 16.0.0, SVG Export Plug-In . SVG Version: 6.00 Build 0)  -->
<!DOCTYPE svg PUBLIC "-//W3C//DTD SVG 1.1//EN" "http://www.w3.org/Graphics/SVG/1.1/DTD/svg11.dtd">
<svg version="1.1" id="Layer_1" xmlns="http://www.w3.org/2000/svg" xmlns:xlink="http://www.w3.org/1999/xlink" x="0px" y="0px"
	 width="64px" height="64px" viewBox="0 0 64 64" enable-background="new 0 0 64 64" xml:space="preserve">
<g>
	<g>
		<path fill="#C3D7DD" d="M46.5,58.3c-0.3,0-0.5-0.2-0.5-0.5v-2c0-0.3,0.2-0.5,0.5-0.5s0.5,0.2,0.5,0.5v2
			C47,58.1,46.8,58.3,46.5,58.3z M44.6,57.8c-0.1,0-0.2,0-0.3-0.1l-1.7-1c-0.2-0.1-0.3-0.4-0.2-0.7c0.1-0.2,0.4-0.3,0.7-0.2l1.7,1
			c0.2,0.1,0.3,0.4,0.2,0.7C45,57.7,44.8,57.8,44.6,57.8z M41.2,55.8c-0.1,0-0.2,0-0.3-0.1l-1.7-1C39,54.6,38.9,54.3,39,54
			c0.1-0.2,0.4-0.3,0.7-0.2l1.7,1c0.2,0.1,0.3,0.4,0.2,0.7C41.5,55.7,41.4,55.8,41.2,55.8z M46.5,54.3c-0.3,0-0.5-0.2-0.5-0.5v-2
			c0-0.3,0.2-0.5,0.5-0.5s0.5,0.2,0.5,0.5v2C47,54.1,46.8,54.3,46.5,54.3z M37.8,53.8c-0.1,0-0.2,0-0.3-0.1l-1.7-1
			c-0.2-0.1-0.3-0.4-0.2-0.7c0.1-0.2,0.4-0.3,0.7-0.2l1.7,1c0.2,0.1,0.3,0.4,0.2,0.7C38.1,53.7,37.9,53.8,37.8,53.8z M34.3,51.8
			c-0.1,0-0.2,0-0.3-0.1l-1.7-1c-0.2-0.1-0.3-0.4-0.2-0.7c0.1-0.2,0.5-0.3,0.7-0.2l1.7,1c0.2,0.1,0.3,0.4,0.2,0.7
			C34.6,51.7,34.5,51.8,34.3,51.8z M46.5,50.3c-0.3,0-0.5-0.2-0.5-0.5v-2c0-0.3,0.2-0.5,0.5-0.5s0.5,0.2,0.5,0.5v2
			C47,50.1,46.8,50.3,46.5,50.3z M30.9,49.7c-0.1,0-0.2,0-0.3-0.1l-1.7-1c-0.2-0.1-0.3-0.4-0.2-0.7c0.1-0.2,0.4-0.3,0.7-0.2l1.7,1
			c0.2,0.1,0.3,0.4,0.2,0.7C31.2,49.6,31,49.7,30.9,49.7z M27.4,47.7c-0.1,0-0.2,0-0.3-0.1l-1.7-1c-0.2-0.1-0.3-0.4-0.2-0.7
			c0.1-0.2,0.4-0.3,0.7-0.2l1.7,1c0.2,0.1,0.3,0.4,0.2,0.7C27.7,47.6,27.6,47.7,27.4,47.7z M46.5,46.3c-0.3,0-0.5-0.2-0.5-0.5v-2
			c0-0.3,0.2-0.5,0.5-0.5s0.5,0.2,0.5,0.5v2C47,46.1,46.8,46.3,46.5,46.3z M24,45.7c-0.1,0-0.2,0-0.3-0.1l-1.7-1
			c-0.2-0.1-0.3-0.4-0.2-0.7c0.1-0.2,0.4-0.3,0.7-0.2l1.7,1c0.2,0.1,0.3,0.4,0.2,0.7C24.3,45.6,24.1,45.7,24,45.7z M20.5,43.6
			c-0.1,0-0.2,0-0.3-0.1l-1.7-1c-0.2-0.1-0.3-0.4-0.2-0.7c0.1-0.2,0.4-0.3,0.7-0.2l1.7,1c0.2,0.1,0.3,0.4,0.2,0.7
			C20.8,43.6,20.7,43.6,20.5,43.6z M46.5,42.3c-0.3,0-0.5-0.2-0.5-0.5v-2c0-0.3,0.2-0.5,0.5-0.5s0.5,0.2,0.5,0.5v2
			C47,42.1,46.8,42.3,46.5,42.3z M17.1,41.6c-0.1,0-0.2,0-0.3-0.1l-1.7-1c-0.2-0.1-0.3-0.4-0.2-0.7c0.1-0.2,0.5-0.3,0.7-0.2l1.7,1
			c0.2,0.1,0.3,0.4,0.2,0.7C17.4,41.5,17.2,41.6,17.1,41.6z M13.6,39.6c-0.1,0-0.2,0-0.3-0.1l-1.7-1c-0.2-0.1-0.3-0.4-0.2-0.7
			c0.1-0.2,0.4-0.3,0.7-0.2l1.7,1c0.2,0.1,0.3,0.4,0.2,0.7C13.9,39.5,13.8,39.6,13.6,39.6z M46.5,38.3c-0.3,0-0.5-0.2-0.5-0.5v-2
			c0-0.3,0.2-0.5,0.5-0.5s0.5,0.2,0.5,0.5v2C47,38.1,46.8,38.3,46.5,38.3z M10.2,37.6c-0.1,0-0.2,0-0.3-0.1l-1.7-1
			C7.9,36.3,7.9,36,8,35.8c0.1-0.2,0.5-0.3,0.7-0.2l1.7,1c0.2,0.1,0.3,0.4,0.2,0.7C10.5,37.5,10.3,37.6,10.2,37.6z M6.7,35.5
			c-0.1,0-0.2,0-0.3-0.1l-1.7-1c-0.2-0.1-0.3-0.4-0.2-0.7c0.1-0.2,0.4-0.3,0.7-0.2l1.7,1c0.2,0.1,0.3,0.4,0.2,0.7
			C7.1,35.5,6.9,35.5,6.7,35.5z M46.5,34.3c-0.3,0-0.5-0.2-0.5-0.5v-2c0-0.3,0.2-0.5,0.5-0.5s0.5,0.2,0.5,0.5v2
			C47,34.1,46.8,34.3,46.5,34.3z M3.3,33.5c-0.1,0-0.2,0-0.3-0.1l-1.7-1C1.1,32.3,1,32,1.1,31.7c0.1-0.2,0.4-0.3,0.7-0.2l1.7,1
			c0.2,0.1,0.3,0.4,0.2,0.7C3.6,33.4,3.4,33.5,3.3,33.5z M3,31.6c-0.2,0-0.3-0.1-0.4-0.2c-0.1-0.2-0.1-0.5,0.2-0.7l1.7-1
			c0.2-0.1,0.5-0.1,0.7,0.2c0.1,0.2,0.1,0.5-0.2,0.7l-1.7,1C3.2,31.6,3.1,31.6,3,31.6z M46.5,30.3c-0.3,0-0.5-0.2-0.5-0.5v-2
			c0-0.3,0.2-0.5,0.5-0.5s0.5,0.2,0.5,0.5v2C47,30.1,46.8,30.3,46.5,30.3z M6.5,29.6c-0.2,0-0.3-0.1-0.4-0.2
			c-0.1-0.2-0.1-0.5,0.2-0.7l1.7-1c0.2-0.1,0.5-0.1,0.7,0.2c0.1,0.2,0.1,0.5-0.2,0.7l-1.7,1C6.6,29.6,6.5,29.6,6.5,29.6z M9.9,27.6
			c-0.2,0-0.3-0.1-0.4-0.2c-0.1-0.2-0.1-0.5,0.2-0.7l1.7-1c0.2-0.1,0.5-0.1,0.7,0.2c0.1,0.2,0.1,0.5-0.2,0.7l-1.7,1
			C10.1,27.6,10,27.6,9.9,27.6z M46.5,26.3c-0.3,0-0.5-0.2-0.5-0.5v-2c0-0.3,0.2-0.5,0.5-0.5s0.5,0.2,0.5,0.5v2
			C47,26.1,46.8,26.3,46.5,26.3z M13.3,25.6c-0.2,0-0.3-0.1-0.4-0.2c-0.1-0.2-0.1-0.5,0.2-0.7l1.7-1c0.2-0.1,0.5-0.1,0.7,0.2
			c0.1,0.2,0.1,0.5-0.2,0.7l-1.7,1C13.5,25.5,13.4,25.6,13.3,25.6z M16.8,23.5c-0.2,0-0.3-0.1-0.4-0.2c-0.1-0.2-0.1-0.5,0.2-0.7
			l1.7-1c0.2-0.1,0.5-0.1,0.7,0.2c0.1,0.2,0.1,0.5-0.2,0.7l-1.7,1C17,23.5,16.9,23.5,16.8,23.5z M46.5,22.3c-0.3,0-0.5-0.2-0.5-0.5
			v-2c0-0.3,0.2-0.5,0.5-0.5s0.5,0.2,0.5,0.5v2C47,22.1,46.8,22.3,46.5,22.3z M20.2,21.5c-0.2,0-0.3-0.1-0.4-0.2
			c-0.1-0.2-0.1-0.5,0.2-0.7l1.7-1c0.2-0.1,0.5-0.1,0.7,0.2c0.1,0.2,0.1,0.5-0.2,0.7l-1.7,1C20.4,21.5,20.3,21.5,20.2,21.5z
			 M23.7,19.5c-0.2,0-0.3-0.1-0.4-0.2c-0.1-0.2-0.1-0.5,0.2-0.7l1.7-1c0.2-0.1,0.5-0.1,0.7,0.2c0.1,0.2,0.1,0.5-0.2,0.7l-1.7,1
			C23.9,19.5,23.8,19.5,23.7,19.5z M46.5,18.3c-0.3,0-0.5-0.2-0.5-0.5v-2c0-0.3,0.2-0.5,0.5-0.5s0.5,0.2,0.5,0.5v2
			C47,18.1,46.8,18.3,46.5,18.3z M27.1,17.5c-0.2,0-0.3-0.1-0.4-0.2c-0.1-0.2-0.1-0.5,0.2-0.7l1.7-1c0.2-0.1,0.5-0.1,0.7,0.2
			c0.1,0.2,0.1,0.5-0.2,0.7l-1.7,1C27.3,17.4,27.2,17.5,27.1,17.5z M30.6,15.4c-0.2,0-0.3-0.1-0.4-0.2c-0.1-0.2-0.1-0.5,0.2-0.7
			l1.7-1c0.2-0.1,0.5-0.1,0.7,0.2c0.1,0.2,0.1,0.5-0.2,0.7l-1.7,1C30.8,15.4,30.7,15.4,30.6,15.4z M46.5,14.3
			c-0.3,0-0.5-0.2-0.5-0.5v-2c0-0.3,0.2-0.5,0.5-0.5s0.5,0.2,0.5,0.5v2C47,14.1,46.8,14.3,46.5,14.3z M34,13.4
			c-0.2,0-0.3-0.1-0.4-0.2c-0.1-0.2-0.1-0.5,0.2-0.7l1.7-1c0.2-0.1,0.5-0.1,0.7,0.2s0.1,0.5-0.2,0.7l-1.7,1
			C34.2,13.4,34.1,13.4,34,13.4z M37.5,11.4c-0.2,0-0.3-0.1-0.4-0.2c-0.1-0.2-0.1-0.5,0.2-0.7l1.7-1c0.2-0.1,0.5-0.1,0.7,0.2
			c0.1,0.2,0.1,0.5-0.2,0.7l-1.7,1C37.7,11.3,37.6,11.4,37.5,11.4z M46.5,10.3c-0.3,0-0.5-0.2-0.5-0.5v-2c0-0.3,0.2-0.5,0.5-0.5
			S47,7.6,47,7.8v2C47,10.1,46.8,10.3,46.5,10.3z M40.9,9.3c-0.2,0-0.3-0.1-0.4-0.2c-0.1-0.2-0.1-0.5,0.2-0.7l1.7-1
			c0.2-0.1,0.5-0.1,0.7,0.2c0.1,0.2,0.1,0.5-0.2,0.7l-1.7,1C41.1,9.3,41,9.3,40.9,9.3z M44.4,7.3c-0.2,0-0.3-0.1-0.4-0.2
			c-0.1-0.2-0.1-0.5,0.2-0.7l1.7-1c0.2-0.1,0.3-0.1,0.5,0c0.2,0.1,0.3,0.3,0.3,0.4c0,0.2-0.1,0.4-0.3,0.5l-1.6,0.9
			C44.6,7.3,44.5,7.3,44.4,7.3z"/>
	</g>
	<g>
		<path fill="#C3D7DD" d="M17.9,58.7c-0.1,0-0.2,0-0.2-0.1c-0.2-0.1-0.3-0.3-0.3-0.4c0-0.2,0.1-0.4,0.3-0.5l1.6-0.9
			c0.2-0.1,0.5-0.1,0.7,0.2c0.1,0.2,0.1,0.5-0.2,0.7l-1.7,1C18.1,58.7,18,58.7,17.9,58.7z M21.3,56.7c-0.2,0-0.3-0.1-0.4-0.2
			c-0.1-0.2-0.1-0.5,0.2-0.7l1.7-1c0.2-0.1,0.5-0.1,0.7,0.2c0.1,0.2,0.1,0.5-0.2,0.7l-1.7,1C21.5,56.6,21.4,56.7,21.3,56.7z
			 M17.5,56.7c-0.3,0-0.5-0.2-0.5-0.5v-2c0-0.3,0.2-0.5,0.5-0.5s0.5,0.2,0.5,0.5v2C18,56.4,17.8,56.7,17.5,56.7z M24.8,54.6
			c-0.2,0-0.3-0.1-0.4-0.2c-0.1-0.2-0.1-0.5,0.2-0.7l1.7-1c0.2-0.1,0.5-0.1,0.7,0.2c0.1,0.2,0.1,0.5-0.2,0.7l-1.7,1
			C25,54.6,24.9,54.6,24.8,54.6z M17.5,52.7c-0.3,0-0.5-0.2-0.5-0.5v-2c0-0.3,0.2-0.5,0.5-0.5s0.5,0.2,0.5,0.5v2
			C18,52.4,17.8,52.7,17.5,52.7z M28.2,52.6c-0.2,0-0.3-0.1-0.4-0.2c-0.1-0.2-0.1-0.5,0.2-0.7l1.7-1c0.2-0.1,0.5-0.1,0.7,0.2
			c0.1,0.2,0.1,0.5-0.2,0.7l-1.7,1C28.4,52.6,28.3,52.6,28.2,52.6z M31.7,50.6c-0.2,0-0.3-0.1-0.4-0.2c-0.1-0.2-0.1-0.5,0.2-0.7
			l1.7-1c0.2-0.1,0.5-0.1,0.7,0.2c0.1,0.2,0.1,0.5-0.2,0.7l-1.7,1C31.9,50.6,31.8,50.6,31.7,50.6z M17.5,48.7
			c-0.3,0-0.5-0.2-0.5-0.5v-2c0-0.3,0.2-0.5,0.5-0.5s0.5,0.2,0.5,0.5v2C18,48.4,17.8,48.7,17.5,48.7z M35.1,48.6
			c-0.2,0-0.3-0.1-0.4-0.2c-0.1-0.2-0.1-0.5,0.2-0.7l1.7-1c0.2-0.1,0.5-0.1,0.7,0.2s0.1,0.5-0.2,0.7l-1.7,1
			C35.3,48.5,35.2,48.6,35.1,48.6z M38.6,46.5c-0.2,0-0.3-0.1-0.4-0.2c-0.1-0.2-0.1-0.5,0.2-0.7l1.7-1c0.2-0.1,0.5-0.1,0.7,0.2
			c0.1,0.2,0.1,0.5-0.2,0.7l-1.7,1C38.8,46.5,38.7,46.5,38.6,46.5z M17.5,44.7c-0.3,0-0.5-0.2-0.5-0.5v-2c0-0.3,0.2-0.5,0.5-0.5
			s0.5,0.2,0.5,0.5v2C18,44.4,17.8,44.7,17.5,44.7z M42,44.5c-0.2,0-0.3-0.1-0.4-0.2c-0.1-0.2-0.1-0.5,0.2-0.7l1.7-1
			c0.2-0.1,0.5-0.1,0.7,0.2c0.1,0.2,0.1,0.5-0.2,0.7l-1.7,1C42.2,44.5,42.1,44.5,42,44.5z M45.5,42.5c-0.2,0-0.3-0.1-0.4-0.2
			c-0.1-0.2-0.1-0.5,0.2-0.7l1.7-1c0.2-0.1,0.5-0.1,0.7,0.2c0.1,0.2,0.1,0.5-0.2,0.7l-1.7,1C45.7,42.5,45.6,42.5,45.5,42.5z
			 M17.5,40.7c-0.3,0-0.5-0.2-0.5-0.5v-2c0-0.3,0.2-0.5,0.5-0.5s0.5,0.2,0.5,0.5v2C18,40.4,17.8,40.7,17.5,40.7z M48.9,40.5
			c-0.2,0-0.3-0.1-0.4-0.2c-0.1-0.2-0.1-0.5,0.2-0.7l1.7-1c0.2-0.1,0.5-0.1,0.7,0.2c0.1,0.2,0.1,0.5-0.2,0.7l-1.7,1
			C49.1,40.4,49,40.5,48.9,40.5z M52.4,38.4c-0.2,0-0.3-0.1-0.4-0.2c-0.1-0.2-0.1-0.5,0.2-0.7l1.7-1c0.2-0.1,0.5-0.1,0.7,0.2
			c0.1,0.2,0.1,0.5-0.2,0.7l-1.7,1C52.5,38.4,52.5,38.4,52.4,38.4z M17.5,36.7c-0.3,0-0.5-0.2-0.5-0.5v-2c0-0.3,0.2-0.5,0.5-0.5
			s0.5,0.2,0.5,0.5v2C18,36.4,17.8,36.7,17.5,36.7z M55.8,36.4c-0.2,0-0.3-0.1-0.4-0.2c-0.1-0.2-0.1-0.5,0.2-0.7l1.7-1
			c0.2-0.1,0.5-0.1,0.7,0.2s0.1,0.5-0.2,0.7l-1.7,1C56,36.4,55.9,36.4,55.8,36.4z M59.3,34.4c-0.2,0-0.3-0.1-0.4-0.2
			c-0.1-0.2-0.1-0.5,0.2-0.7l1.7-1c0.2-0.1,0.5-0.1,0.7,0.2c0.1,0.2,0.1,0.5-0.2,0.7l-1.7,1C59.4,34.3,59.4,34.4,59.3,34.4z
			 M17.5,32.7c-0.3,0-0.5-0.2-0.5-0.5v-2c0-0.3,0.2-0.5,0.5-0.5s0.5,0.2,0.5,0.5v2C18,32.4,17.8,32.7,17.5,32.7z M62.5,32.5
			c-0.1,0-0.2,0-0.3-0.1l-1.7-1c-0.2-0.1-0.3-0.4-0.2-0.7c0.1-0.2,0.4-0.3,0.7-0.2l1.7,1c0.2,0.1,0.3,0.4,0.2,0.7
			C62.8,32.4,62.6,32.5,62.5,32.5z M59,30.5c-0.1,0-0.2,0-0.3-0.1l-1.7-1c-0.2-0.1-0.3-0.4-0.2-0.7c0.1-0.2,0.4-0.3,0.7-0.2l1.7,1
			c0.2,0.1,0.3,0.4,0.2,0.7C59.3,30.4,59.2,30.5,59,30.5z M17.5,28.7c-0.3,0-0.5-0.2-0.5-0.5v-2c0-0.3,0.2-0.5,0.5-0.5
			s0.5,0.2,0.5,0.5v2C18,28.4,17.8,28.7,17.5,28.7z M55.6,28.4c-0.1,0-0.2,0-0.3-0.1l-1.7-1c-0.2-0.1-0.3-0.4-0.2-0.7
			c0.1-0.2,0.4-0.3,0.7-0.2l1.7,1c0.2,0.1,0.3,0.4,0.2,0.7C55.9,28.4,55.7,28.4,55.6,28.4z M52.1,26.4c-0.1,0-0.2,0-0.3-0.1l-1.7-1
			c-0.2-0.1-0.3-0.4-0.2-0.7c0.1-0.2,0.4-0.3,0.7-0.2l1.7,1c0.2,0.1,0.3,0.4,0.2,0.7C52.5,26.3,52.3,26.4,52.1,26.4z M17.5,24.7
			c-0.3,0-0.5-0.2-0.5-0.5v-2c0-0.3,0.2-0.5,0.5-0.5s0.5,0.2,0.5,0.5v2C18,24.4,17.8,24.7,17.5,24.7z M48.7,24.4
			c-0.1,0-0.2,0-0.3-0.1l-1.7-1c-0.2-0.1-0.3-0.4-0.2-0.7c0.1-0.2,0.4-0.3,0.7-0.2l1.7,1c0.2,0.1,0.3,0.4,0.2,0.7
			C49,24.3,48.8,24.4,48.7,24.4z M45.2,22.4c-0.1,0-0.2,0-0.3-0.1l-1.7-1c-0.2-0.1-0.3-0.4-0.2-0.7s0.4-0.3,0.7-0.2l1.7,1
			c0.2,0.1,0.3,0.4,0.2,0.7C45.6,22.3,45.4,22.4,45.2,22.4z M17.5,20.7c-0.3,0-0.5-0.2-0.5-0.5v-2c0-0.3,0.2-0.5,0.5-0.5
			s0.5,0.2,0.5,0.5v2C18,20.4,17.8,20.7,17.5,20.7z M41.8,20.3c-0.1,0-0.2,0-0.3-0.1l-1.7-1c-0.2-0.1-0.3-0.4-0.2-0.7
			c0.1-0.2,0.4-0.3,0.7-0.2l1.7,1c0.2,0.1,0.3,0.4,0.2,0.7C42.1,20.2,41.9,20.3,41.8,20.3z M38.3,18.3c-0.1,0-0.2,0-0.3-0.1l-1.7-1
			c-0.2-0.1-0.3-0.4-0.2-0.7c0.1-0.2,0.5-0.3,0.7-0.2l1.7,1c0.2,0.1,0.3,0.4,0.2,0.7C38.7,18.2,38.5,18.3,38.3,18.3z M17.5,16.7
			c-0.3,0-0.5-0.2-0.5-0.5v-2c0-0.3,0.2-0.5,0.5-0.5s0.5,0.2,0.5,0.5v2C18,16.4,17.8,16.7,17.5,16.7z M34.9,16.3
			c-0.1,0-0.2,0-0.3-0.1l-1.7-1c-0.2-0.1-0.3-0.4-0.2-0.7c0.1-0.2,0.4-0.3,0.7-0.2l1.7,1c0.2,0.1,0.3,0.4,0.2,0.7
			C35.2,16.2,35,16.3,34.9,16.3z M31.4,14.3c-0.1,0-0.2,0-0.3-0.1l-1.7-1c-0.2-0.1-0.3-0.4-0.2-0.7c0.1-0.2,0.4-0.3,0.7-0.2l1.7,1
			c0.2,0.1,0.3,0.4,0.2,0.7C31.8,14.2,31.6,14.3,31.4,14.3z M17.5,12.7c-0.3,0-0.5-0.2-0.5-0.5v-2c0-0.3,0.2-0.5,0.5-0.5
			S18,9.9,18,10.2v2C18,12.4,17.8,12.7,17.5,12.7z M28,12.2c-0.1,0-0.2,0-0.3-0.1l-1.7-1c-0.2-0.1-0.3-0.4-0.2-0.7
			c0.1-0.2,0.4-0.3,0.7-0.2l1.7,1c0.2,0.1,0.3,0.4,0.2,0.7C28.3,12.1,28.1,12.2,28,12.2z M24.5,10.2c-0.1,0-0.2,0-0.3-0.1l-1.7-1
			c-0.2-0.1-0.3-0.4-0.2-0.7c0.1-0.2,0.4-0.3,0.7-0.2l1.7,1C25,9.4,25.1,9.7,25,10C24.9,10.1,24.7,10.2,24.5,10.2z M17.5,8.7
			c-0.3,0-0.5-0.2-0.5-0.5v-2c0-0.3,0.2-0.5,0.5-0.5S18,5.9,18,6.2v2C18,8.4,17.8,8.7,17.5,8.7z M21.1,8.2c-0.1,0-0.2,0-0.3-0.1
			l-1.7-1c-0.2-0.1-0.3-0.4-0.2-0.7c0.1-0.2,0.5-0.3,0.7-0.2l1.7,1c0.2,0.1,0.3,0.4,0.2,0.7C21.4,8.1,21.2,8.2,21.1,8.2z"/>
	</g>
	<g>
		<g>
			<g>
				<path fill="#FF9700" d="M47.2,59H16.8c-0.4,0-0.7,0-0.9-0.3L0.7,32.4c-0.2-0.3-0.2-0.6,0-1L15.9,5.3C16.1,5,16.4,5,16.8,5h30.5
					c0.4,0,0.7,0,0.9,0.3l15.2,26.3c0.2,0.3,0.2,0.6,0,1L48.1,58.7C47.9,59,47.6,59,47.2,59z M17.3,57h29.3l14.7-25L46.7,7H17.3
					L2.7,32L17.3,57z"/>
			</g>
		</g>
		<g>
			<path fill="#FF9700" d="M46.1,41H17.9c-0.4,0-0.7-0.1-0.9-0.5c-0.2-0.3-0.2-0.7,0-1l14.1-23.9c0.4-0.6,1.4-0.6,1.7,0l14.1,23.9
				c0.2,0.3,0.2,0.6,0,1C46.8,40.9,46.4,41,46.1,41z M19.7,39h24.6L32,18.1L19.7,39z"/>
		</g>
		<g>
			<path fill="#FF9700" d="M32,40c-4.3,0-7.8-3.5-7.8-7.8c0-4.3,3.5-7.8,7.8-7.8s7.8,3.5,7.8,7.8C39.8,36.5,36.3,40,32,40z M32,26.4
				c-3.2,0-5.8,2.6-5.8,5.8S28.8,38,32,38s5.8-2.6,5.8-5.8S35.2,26.4,32,26.4z"/>
		</g>
	</g>
</g>
</svg>
