<?xml version="1.0" encoding="utf-8"?>
<!-- Generator: Adobe Illustrator 16.0.0, SVG Export Plug-In . SVG Version: 6.00 Build 0)  -->
<!DOCTYPE svg PUBLIC "-//W3C//DTD SVG 1.1//EN" "http://www.w3.org/Graphics/SVG/1.1/DTD/svg11.dtd">
<svg version="1.1" id="Layer_1" xmlns="http://www.w3.org/2000/svg" xmlns:xlink="http://www.w3.org/1999/xlink" x="0px" y="0px"
	 width="64px" height="64px" viewBox="0 0 64 64" enable-background="new 0 0 64 64" xml:space="preserve">
<g>
	<g>
		<g>
			<path fill="#F7910B" d="M62.3,37.1c0,13-11.9,23.5-30.3,23.5c-18.4,0-30.3-10.5-30.3-23.5S13.6,4.6,32,4.6
				C50.4,4.6,62.3,24.2,62.3,37.1z"/>
		</g>
		<g>
			<path fill="#F7910B" d="M62.3,37.1c0,13-11.9,19.5-30.3,19.5c-18.4,0-30.3-6.5-30.3-19.5S13.6,2.6,32,2.6
				C50.4,2.6,62.3,24.2,62.3,37.1z"/>
		</g>
		<g>
			<path fill="#F9A908" d="M32,2.6c18.4,0,30.3,21.5,30.3,34.5S50.4,56.6,32,56.6"/>
		</g>
		<g>
			<path fill="#F9A908" d="M62.3,37.1c0,13-11.9,19.5-30.3,19.5c-18.4,0-30.3-6.5-30.3-19.5S13.6,4.6,32,4.6
				C50.4,4.6,62.3,24.2,62.3,37.1z"/>
		</g>
		<g>
			<path fill="#F9C55D" d="M1.7,37.1c0-13,11.9-32.5,30.3-32.5"/>
		</g>
		<g>
			<path fill="#F7910B" d="M32,4.6c18.4,0,30.3,19.5,30.3,32.5S50.4,60.6,32,60.6"/>
		</g>
		<g>
			<path fill="#EA7103" d="M32,4.6c18.4,0,30.3,19.5,30.3,32.5"/>
		</g>
		<g>
			<g>
				<circle fill="#EA7103" cx="21.6" cy="25.3" r="3.2"/>
			</g>
			<g>
				<circle fill="#EA7103" cx="42.4" cy="25.3" r="3.2"/>
			</g>
			<g>
				<circle fill="#1E4784" cx="21.6" cy="24.4" r="3.2"/>
			</g>
			<g>
				<path fill="#00233F" d="M21.6,21.2c1.8,0,3.2,1.4,3.2,3.2s-1.4,3.2-3.2,3.2"/>
			</g>
			<g>
				<circle fill="#1E4784" cx="42.4" cy="24.4" r="3.2"/>
			</g>
			<g>
				<path fill="#00233F" d="M42.4,21.2c1.8,0,3.2,1.4,3.2,3.2s-1.4,3.2-3.2,3.2"/>
			</g>
		</g>
		<g>
			<g>
				<g>
					<g>
						<g>
							<path fill="#19BCA4" d="M25.4,8.1c0.5,0.7-1,1.2-2.4,2.2c-1.5,1-2.4,2.2-2.9,1.5c-0.5-0.7,0.3-2.1,1.8-3.2
								C23.3,7.7,24.9,7.4,25.4,8.1z"/>
						</g>
					</g>
				</g>
			</g>
			<g>
				<g>
					<g>
						<g>
							<path fill="#109DA0" d="M25.4,8.1c0.5,0.7-1,1.2-2.4,2.2c-1.5,1-2.4,2.2-2.9,1.5"/>
						</g>
					</g>
				</g>
			</g>
		</g>
		<g>
			<g>
				<g>
					<g>
						<g>
							<path fill="#19BCA4" d="M38.4,9c-0.3,0.8,1.2,0.9,2.9,1.5s2.9,1.5,3.2,0.7c0.3-0.8-0.8-2-2.5-2.6C40.3,8,38.7,8.1,38.4,9z"/>
						</g>
					</g>
				</g>
			</g>
			<g>
				<g>
					<g>
						<g>
							<path fill="#109DA0" d="M38.4,9c-0.3,0.8,1.2,0.9,2.9,1.5s2.9,1.5,3.2,0.7"/>
						</g>
					</g>
				</g>
			</g>
		</g>
		<g>
			<g>
				<path fill="#F9C55D" d="M27.8,30.5c0,1.2-3.5,0.7-7.8,0.7c-4.3,0-7.8,0.6-7.8-0.7c0-1.2,3.5-2.2,7.8-2.2
					C24.3,28.2,27.8,29.2,27.8,30.5z"/>
			</g>
			<g>
				<path fill="#F9A908" d="M51.8,30.5c0,1.2-3.5,0.7-7.8,0.7s-7.8,0.6-7.8-0.7c0-1.2,3.5-2.2,7.8-2.2S51.8,29.2,51.8,30.5z"/>
			</g>
		</g>
		<g>
			<circle fill="#F7910B" cx="10.3" cy="34.1" r="0.6"/>
		</g>
		<g>
			<circle fill="#F7910B" cx="5.8" cy="36.1" r="1.1"/>
		</g>
		<g>
			<circle fill="#F7910B" cx="8.8" cy="32.1" r="0.2"/>
		</g>
		<g>
			<circle fill="#F7910B" cx="13.4" cy="33.9" r="0.2"/>
		</g>
		<g>
			<circle fill="#F9A908" cx="52.6" cy="34.5" r="0.8"/>
		</g>
		<g>
			<circle fill="#F9A908" cx="55.1" cy="35.9" r="0.2"/>
		</g>
		<g>
			<circle fill="#F9A908" cx="49.8" cy="27" r="0.3"/>
		</g>
		<g>
			<circle fill="#F9A908" cx="49.3" cy="38.7" r="1.3"/>
		</g>
		<g>
			<circle fill="#F9A908" cx="56.5" cy="38.7" r="0.6"/>
		</g>
		<g>
			<circle fill="#F7910B" cx="9.3" cy="38.1" r="0.5"/>
		</g>
		<g>
			<circle fill="#F7910B" cx="10.1" cy="29.7" r="0.4"/>
		</g>
		<g>
			<circle fill="#F9A908" cx="4.8" cy="16" r="1.1"/>
		</g>
		<g>
			<circle fill="#F9A908" cx="8" cy="12.4" r="0.6"/>
		</g>
		<g>
			<circle fill="#F9A908" cx="59.2" cy="18.4" r="0.2"/>
		</g>
		<g>
			<circle fill="#F9A908" cx="58.4" cy="15.4" r="0.8"/>
		</g>
		<g>
			<path fill="#F9A908" d="M61.5,16c0,0.3-0.2,0.5-0.5,0.5c-0.3,0-0.5-0.2-0.5-0.5s0.2-0.5,0.5-0.5C61.2,15.5,61.5,15.7,61.5,16z"/>
		</g>
		<g>
			<circle fill="#F9A908" cx="6" cy="18.9" r="0.6"/>
		</g>
		<g>
			<g>
				<g>
					<path fill="#E2C591" d="M25,60.4c-5.5,2.4-12-0.1-14.4-5.6l0,0c-2.4-5.5,0.1-12,5.6-14.4l22.8-10c5.5-2.4,12,0.1,14.4,5.6l0,0
						c2.4,5.5-0.1,12-5.6,14.4L25,60.4z"/>
				</g>
				<g>
					<path fill="#C4A676" d="M25.6,57.5c-4.8,2.1-10.2,0.3-12.1-4l0,0c-1.9-4.3,0.5-9.5,5.2-11.6l19.7-8.6c4.8-2.1,10.2-0.3,12.1,4
						l0,0c1.9,4.3-0.5,9.5-5.3,11.6L25.6,57.5z"/>
				</g>
				<g>
					<g>
						<g>
							<g>
								<path fill="#F4E1B8" d="M43.2,37.2c-0.7,0.3-1.5,0-1.8-0.7c-0.3-0.7,0-1.5,0.7-1.8c0.7-0.3,1.5,0,1.8,0.7
									C44.2,36.1,43.8,36.9,43.2,37.2z"/>
							</g>
							<g>
								<circle fill="#F4E1B8" cx="44.4" cy="40" r="1.4"/>
							</g>
							<g>
								<path fill="#F4E1B8" d="M46.7,45.3c-0.7,0.3-1.5,0-1.8-0.7c-0.3-0.7,0-1.5,0.7-1.8c0.7-0.3,1.5,0,1.8,0.7
									C47.7,44.2,47.4,45,46.7,45.3z"/>
							</g>
						</g>
						<g>
							<g>
								<path fill="#F4E1B8" d="M38.9,39.1c-0.7,0.3-1.5,0-1.8-0.7s0-1.5,0.7-1.8c0.7-0.3,1.5,0,1.8,0.7
									C39.9,38,39.6,38.8,38.9,39.1z"/>
							</g>
							<g>
								<path fill="#F4E1B8" d="M40.6,43.1c-0.7,0.3-1.5,0-1.8-0.7c-0.3-0.7,0-1.5,0.7-1.8c0.7-0.3,1.5,0,1.8,0.7
									C41.7,42,41.3,42.8,40.6,43.1z"/>
							</g>
							<g>
								<path fill="#F4E1B8" d="M42.4,47.1c-0.7,0.3-1.5,0-1.8-0.7c-0.3-0.7,0-1.5,0.7-1.8c0.7-0.3,1.5,0,1.8,0.7
									C43.4,46,43.1,46.8,42.4,47.1z"/>
							</g>
						</g>
					</g>
					<g>
						<g>
							<g>
								<path fill="#F4E1B8" d="M22.7,46.2c-0.7,0.3-1.5,0-1.8-0.7c-0.3-0.7,0-1.5,0.7-1.8c0.7-0.3,1.5,0,1.8,0.7
									C23.7,45.1,23.4,45.9,22.7,46.2z"/>
							</g>
							<g>
								<path fill="#F4E1B8" d="M24.5,50.2c-0.7,0.3-1.5,0-1.8-0.7c-0.3-0.7,0-1.5,0.7-1.8s1.5,0,1.8,0.7
									C25.5,49.1,25.2,49.9,24.5,50.2z"/>
							</g>
							<g>
								<path fill="#F4E1B8" d="M26.2,54.2c-0.7,0.3-1.5,0-1.8-0.7c-0.3-0.7,0-1.5,0.7-1.8s1.5,0,1.8,0.7
									C27.2,53.1,26.9,53.9,26.2,54.2z"/>
							</g>
						</g>
						<g>
							<g>
								<path fill="#F4E1B8" d="M18.4,48c-0.7,0.3-1.5,0-1.8-0.7c-0.3-0.7,0-1.5,0.7-1.8c0.7-0.3,1.5,0,1.8,0.7
									C19.4,46.9,19.1,47.7,18.4,48z"/>
							</g>
							<g>
								<path fill="#F4E1B8" d="M20.2,52.1c-0.7,0.3-1.5,0-1.8-0.7c-0.3-0.7,0-1.5,0.7-1.8c0.7-0.3,1.5,0,1.8,0.7
									C21.2,51,20.9,51.8,20.2,52.1z"/>
							</g>
							<g>
								<path fill="#F4E1B8" d="M22,56.1c-0.7,0.3-1.5,0-1.8-0.7s0-1.5,0.7-1.8c0.7-0.3,1.5,0,1.8,0.7C23,55,22.6,55.8,22,56.1z"/>
							</g>
						</g>
					</g>
				</g>
				<g>
					<path fill="#F4E1B8" d="M34.6,50.8c-2.4,1-5.1,0-6.2-2.4l-1-2.4c-1-2.4,0-5.1,2.4-6.2l0,0c2.4-1,5.1,0,6.2,2.4l1,2.4
						C38,47,37,49.7,34.6,50.8L34.6,50.8z"/>
				</g>
			</g>
			<g>
				<g>
					<path fill="#F4E1B8" d="M39,60.4c5.5,2.4,12-0.1,14.4-5.6l0,0c2.4-5.5-0.1-12-5.6-14.4L25,30.4c-5.5-2.4-12,0.1-14.4,5.6l0,0
						c-2.4,5.5,0.1,12,5.6,14.4L39,60.4z"/>
				</g>
				<g>
					<path fill="#E2C591" d="M38.4,57.5c4.8,2.1,10.2,0.3,12.1-4l0,0c1.9-4.3-0.5-9.5-5.3-11.6l-19.7-8.6c-4.8-2.1-10.2-0.3-12.1,4
						l0,0c-1.9,4.3,0.5,9.5,5.3,11.6L38.4,57.5z"/>
				</g>
				<g>
					<g>
						<g>
							<g>
								<path fill="#F4E1B8" d="M20.8,37.2c0.7,0.3,1.5,0,1.8-0.7c0.3-0.7,0-1.5-0.7-1.8c-0.7-0.3-1.5,0-1.8,0.7
									C19.8,36.1,20.2,36.9,20.8,37.2z"/>
							</g>
							<g>
								<path fill="#F4E1B8" d="M19.1,41.3c0.7,0.3,1.5,0,1.8-0.7c0.3-0.7,0-1.5-0.7-1.8c-0.7-0.3-1.5,0-1.8,0.7
									C18.1,40.1,18.4,40.9,19.1,41.3z"/>
							</g>
							<g>
								<path fill="#F4E1B8" d="M17.3,45.3c0.7,0.3,1.5,0,1.8-0.7c0.3-0.7,0-1.5-0.7-1.8c-0.7-0.3-1.5,0-1.8,0.7
									C16.3,44.2,16.6,45,17.3,45.3z"/>
							</g>
						</g>
						<g>
							<g>
								<path fill="#F4E1B8" d="M25.1,39.1c0.7,0.3,1.5,0,1.8-0.7c0.3-0.7,0-1.5-0.7-1.8c-0.7-0.3-1.5,0-1.8,0.7
									C24.1,38,24.4,38.8,25.1,39.1z"/>
							</g>
							<g>
								<path fill="#F4E1B8" d="M23.4,43.1c0.7,0.3,1.5,0,1.8-0.7c0.3-0.7,0-1.5-0.7-1.8c-0.7-0.3-1.5,0-1.8,0.7
									C22.3,42,22.7,42.8,23.4,43.1z"/>
							</g>
							<g>
								<path fill="#F4E1B8" d="M21.6,47.1c0.7,0.3,1.5,0,1.8-0.7c0.3-0.7,0-1.5-0.7-1.8c-0.7-0.3-1.5,0-1.8,0.7
									C20.6,46,20.9,46.8,21.6,47.1z"/>
							</g>
						</g>
					</g>
					<g>
						<g>
							<g>
								<path fill="#F4E1B8" d="M41.3,46.2c0.7,0.3,1.5,0,1.8-0.7c0.3-0.7,0-1.5-0.7-1.8c-0.7-0.3-1.5,0-1.8,0.7
									C40.3,45.1,40.6,45.9,41.3,46.2z"/>
							</g>
							<g>
								<path fill="#F4E1B8" d="M39.5,50.2c0.7,0.3,1.5,0,1.8-0.7c0.3-0.7,0-1.5-0.7-1.8c-0.7-0.3-1.5,0-1.8,0.7
									C38.5,49.1,38.8,49.9,39.5,50.2z"/>
							</g>
							<g>
								<path fill="#F4E1B8" d="M37.8,54.2c0.7,0.3,1.5,0,1.8-0.7c0.3-0.7,0-1.5-0.7-1.8c-0.7-0.3-1.5,0-1.8,0.7
									C36.8,53.1,37.1,53.9,37.8,54.2z"/>
							</g>
						</g>
						<g>
							<g>
								<path fill="#F4E1B8" d="M45.6,48c0.7,0.3,1.5,0,1.8-0.7c0.3-0.7,0-1.5-0.7-1.8c-0.7-0.3-1.5,0-1.8,0.7
									C44.6,46.9,44.9,47.7,45.6,48z"/>
							</g>
							<g>
								<path fill="#F4E1B8" d="M43.8,52.1c0.7,0.3,1.5,0,1.8-0.7c0.3-0.7,0-1.5-0.7-1.8s-1.5,0-1.8,0.7
									C42.8,51,43.1,51.8,43.8,52.1z"/>
							</g>
							<g>
								<path fill="#F4E1B8" d="M42,56.1c0.7,0.3,1.5,0,1.8-0.7c0.3-0.7,0-1.5-0.7-1.8c-0.7-0.3-1.5,0-1.8,0.7
									C41,55,41.4,55.8,42,56.1z"/>
							</g>
						</g>
					</g>
				</g>
				<g>
					<path fill="#F4E1B8" d="M29.4,50.8c2.4,1,5.1,0,6.2-2.4l1-2.4c1-2.4,0-5.1-2.4-6.2l0,0c-2.4-1-5.1,0-6.2,2.4l-1,2.4
						C26,47,27,49.7,29.4,50.8L29.4,50.8z"/>
				</g>
			</g>
		</g>
	</g>
</g>
</svg>
