<?xml version="1.0" encoding="utf-8"?>
<!-- Generator: Adobe Illustrator 16.0.0, SVG Export Plug-In . SVG Version: 6.00 Build 0)  -->
<!DOCTYPE svg PUBLIC "-//W3C//DTD SVG 1.1//EN" "http://www.w3.org/Graphics/SVG/1.1/DTD/svg11.dtd">
<svg version="1.1" id="Layer_1" xmlns="http://www.w3.org/2000/svg" xmlns:xlink="http://www.w3.org/1999/xlink" x="0px" y="0px"
	 width="64px" height="64px" viewBox="0 0 64 64" enable-background="new 0 0 64 64" xml:space="preserve">
<g>
	<g>
		<g>
			<g>
				<g>
					<path fill="#102D35" d="M31.5,41.5c0,0.7-0.6,1.5-1.3,1.5H20.1c-0.7,0-1.3-0.8-1.3-1.5l0,0c0-0.7,0.6-1.5,1.3-1.5h10.1
						C30.9,40,31.5,40.8,31.5,41.5L31.5,41.5z"/>
					<path fill="#102D35" d="M20.8,40.7c0.5,0.5,0.5,1.3,0,1.8l-7.2,7.2c-0.5,0.5-1.3,0.5-1.8,0l0,0c-0.5-0.5-0.5-1.3,0-1.8l7.2-7.2
						C19.5,40.2,20.3,40.2,20.8,40.7L20.8,40.7z"/>
					<path fill="#102D35" d="M20.8,56.8c-0.5,0.5-1.3,0.5-1.8,0l-7.2-7.2c-0.5-0.5-0.5-1.3,0-1.8l0,0c0.5-0.5,1.3-0.5,1.8,0l7.2,7.2
						C21.3,55.4,21.3,56.3,20.8,56.8L20.8,56.8z"/>
				</g>
				<g>
					<path fill="#065177" d="M22.9,41.5c0,0.7-0.6,1.5-1.3,1.5H11.5c-0.7,0-1.3-0.8-1.3-1.5l0,0c0-0.7,0.6-1.5,1.3-1.5h10.1
						C22.3,40,22.9,40.8,22.9,41.5L22.9,41.5z"/>
					<path fill="#065177" d="M12.2,40.7c0.5,0.5,0.5,1.3,0,1.8L5,49.7c-0.5,0.5-1.3,0.5-1.8,0l0,0c-0.5-0.5-0.5-1.3,0-1.8l7.2-7.2
						C10.9,40.2,11.7,40.2,12.2,40.7L12.2,40.7z"/>
					<path fill="#065177" d="M12.2,56.8c-0.5,0.5-1.3,0.5-1.8,0l-7.2-7.2c-0.5-0.5-0.5-1.3,0-1.8l0,0c0.5-0.5,1.3-0.5,1.8,0l7.2,7.2
						C12.7,55.4,12.7,56.3,12.2,56.8L12.2,56.8z"/>
				</g>
			</g>
			<g>
				<g>
					<path fill="#102D35" d="M29.1,36.5c0-0.7-0.6-1.5-1.3-1.5H17.7c-0.7,0-1.3,0.8-1.3,1.5l0,0c0,0.7,0.6,1.5,1.3,1.5h10.1
						C28.5,38,29.1,37.2,29.1,36.5L29.1,36.5z"/>
					<path fill="#102D35" d="M18.4,37.6c0.5-0.5,0.5-1.3,0-1.8l-7.2-7.2c-0.5-0.5-1.3-0.5-1.8,0l0,0c-0.5,0.5-0.5,1.3,0,1.8l7.2,7.2
						C17.1,38.1,17.9,38.1,18.4,37.6L18.4,37.6z"/>
					<path fill="#102D35" d="M18.4,21.5c-0.5-0.5-1.3-0.5-1.8,0l-7.2,7.2c-0.5,0.5-0.5,1.3,0,1.8l0,0c0.5,0.5,1.3,0.5,1.8,0l7.2-7.2
						C18.9,22.9,18.9,22,18.4,21.5L18.4,21.5z"/>
				</g>
				<g>
					<path fill="#065177" d="M20.5,36.5c0-0.7-0.6-1.5-1.3-1.5H9.1c-0.7,0-1.3,0.8-1.3,1.5l0,0c0,0.7,0.6,1.5,1.3,1.5h10.1
						C19.9,38,20.5,37.2,20.5,36.5L20.5,36.5z"/>
					<path fill="#065177" d="M9.8,37.6c0.5-0.5,0.5-1.3,0-1.8l-7.2-7.2c-0.5-0.5-1.3-0.5-1.8,0l0,0c-0.5,0.5-0.5,1.3,0,1.8L8,37.6
						C8.5,38.1,9.3,38.1,9.8,37.6L9.8,37.6z"/>
					<path fill="#065177" d="M9.8,21.5C9.3,21,8.5,21,8,21.5l-7.2,7.2c-0.5,0.5-0.5,1.3,0,1.8l0,0c0.5,0.5,1.3,0.5,1.8,0l7.2-7.2
						C10.3,22.9,10.3,22,9.8,21.5L9.8,21.5z"/>
				</g>
			</g>
			<g>
				<g>
					<path fill="#102D35" d="M20.6,29.8c0.5-0.5,0.5-1.3,0-1.8l-7.2-7.2c-0.5-0.5-1.3-0.5-1.8,0l0,0c-0.5,0.5-0.5,1.3,0,1.8l7.2,7.2
						C19.3,30.3,20.1,30.3,20.6,29.8L20.6,29.8z"/>
					<path fill="#102D35" d="M12.5,22.8c0.7,0,1.5-0.6,1.5-1.3V11.4c0-0.7-0.8-1.3-1.5-1.3l0,0c-0.7,0-1.5,0.6-1.5,1.3v10.1
						C11,22.2,11.8,22.8,12.5,22.8L12.5,22.8z"/>
					<path fill="#102D35" d="M23.8,11.6c0-0.7-0.6-1.4-1.3-1.4l-10.1,0c-0.7,0-1.3,0.7-1.3,1.4l0,0c0,0.7,0.6,1.4,1.3,1.4h10.1
						C23.2,13,23.8,12.3,23.8,11.6L23.8,11.6z"/>
				</g>
				<g>
					<path fill="#065177" d="M14.5,23.6c0.5-0.5,0.5-1.3,0-1.8l-7.2-7.2c-0.5-0.5-1.3-0.5-1.8,0l0,0C5,15.2,5,16,5.5,16.5l7.2,7.2
						C13.2,24.1,14,24.1,14.5,23.6L14.5,23.6z"/>
					<path fill="#065177" d="M6.5,16.7c0.7,0,1.5-0.6,1.5-1.3V5.3C8,4.6,7.2,4,6.5,4l0,0C5.8,4,5,4.6,5,5.3v10.1
						C5,16.1,5.8,16.7,6.5,16.7L6.5,16.7z"/>
					<path fill="#065177" d="M17.7,5.5c0-0.7-0.6-1.4-1.3-1.4l-10.1,0C5.5,4.1,5,4.8,5,5.6l0,0C5,6.3,5.5,7,6.3,7h10.1
						C17.1,7,17.7,6.2,17.7,5.5L17.7,5.5z"/>
				</g>
			</g>
		</g>
		<g>
			<g>
				<g>
					<path fill="#102D35" d="M32.5,41.5c0,0.7,0.6,1.5,1.3,1.5h10.1c0.7,0,1.3-0.8,1.3-1.5l0,0c0-0.7-0.6-1.5-1.3-1.5H33.8
						C33.1,40,32.5,40.8,32.5,41.5L32.5,41.5z"/>
					<path fill="#102D35" d="M43.2,40.7c-0.5,0.5-0.5,1.3,0,1.8l7.2,7.2c0.5,0.5,1.3,0.5,1.8,0l0,0c0.5-0.5,0.5-1.3,0-1.8L45,40.7
						C44.5,40.2,43.7,40.2,43.2,40.7L43.2,40.7z"/>
					<path fill="#102D35" d="M43.2,56.8c0.5,0.5,1.3,0.5,1.8,0l7.2-7.2c0.5-0.5,0.5-1.3,0-1.8l0,0c-0.5-0.5-1.3-0.5-1.8,0l-7.2,7.2
						C42.7,55.4,42.7,56.3,43.2,56.8L43.2,56.8z"/>
				</g>
				<g>
					<path fill="#065177" d="M41.1,41.5c0,0.7,0.6,1.5,1.3,1.5h10.1c0.7,0,1.3-0.8,1.3-1.5l0,0c0-0.7-0.6-1.5-1.3-1.5H42.4
						C41.7,40,41.1,40.8,41.1,41.5L41.1,41.5z"/>
					<path fill="#065177" d="M51.8,40.7c-0.5,0.5-0.5,1.3,0,1.8l7.2,7.2c0.5,0.5,1.3,0.5,1.8,0l0,0c0.5-0.5,0.5-1.3,0-1.8l-7.2-7.2
						C53.1,40.2,52.3,40.2,51.8,40.7L51.8,40.7z"/>
					<path fill="#065177" d="M51.8,56.8c0.5,0.5,1.3,0.5,1.8,0l7.2-7.2c0.5-0.5,0.5-1.3,0-1.8l0,0c-0.5-0.5-1.3-0.5-1.8,0l-7.2,7.2
						C51.3,55.4,51.3,56.3,51.8,56.8L51.8,56.8z"/>
				</g>
			</g>
			<g>
				<g>
					<path fill="#102D35" d="M34.9,36.5c0-0.7,0.6-1.5,1.3-1.5h10.1c0.7,0,1.3,0.8,1.3,1.5l0,0c0,0.7-0.6,1.5-1.3,1.5H36.2
						C35.5,38,34.9,37.2,34.9,36.5L34.9,36.5z"/>
					<path fill="#102D35" d="M45.6,37.6c-0.5-0.5-0.5-1.3,0-1.8l7.2-7.2c0.5-0.5,1.3-0.5,1.8,0l0,0c0.5,0.5,0.5,1.3,0,1.8l-7.2,7.2
						C46.9,38.1,46.1,38.1,45.6,37.6L45.6,37.6z"/>
					<path fill="#102D35" d="M45.6,21.5c0.5-0.5,1.3-0.5,1.8,0l7.2,7.2c0.5,0.5,0.5,1.3,0,1.8l0,0c-0.5,0.5-1.3,0.5-1.8,0l-7.2-7.2
						C45.1,22.9,45.1,22,45.6,21.5L45.6,21.5z"/>
				</g>
				<g>
					<path fill="#065177" d="M43.5,36.5c0-0.7,0.6-1.5,1.3-1.5h10.1c0.7,0,1.3,0.8,1.3,1.5l0,0c0,0.7-0.6,1.5-1.3,1.5H44.8
						C44.1,38,43.5,37.2,43.5,36.5L43.5,36.5z"/>
					<path fill="#065177" d="M54.2,37.6c-0.5-0.5-0.5-1.3,0-1.8l7.2-7.2c0.5-0.5,1.3-0.5,1.8,0l0,0c0.5,0.5,0.5,1.3,0,1.8L56,37.6
						C55.5,38.1,54.7,38.1,54.2,37.6L54.2,37.6z"/>
					<path fill="#065177" d="M54.2,21.5c0.5-0.5,1.3-0.5,1.8,0l7.2,7.2c0.5,0.5,0.5,1.3,0,1.8l0,0c-0.5,0.5-1.3,0.5-1.8,0l-7.2-7.2
						C53.7,22.9,53.7,22,54.2,21.5L54.2,21.5z"/>
				</g>
			</g>
			<g>
				<g>
					<path fill="#102D35" d="M43.4,29.8c-0.5-0.5-0.5-1.3,0-1.8l7.2-7.2c0.5-0.5,1.3-0.5,1.8,0l0,0c0.5,0.5,0.5,1.3,0,1.8l-7.2,7.2
						C44.7,30.3,43.9,30.3,43.4,29.8L43.4,29.8z"/>
					<path fill="#102D35" d="M51.5,22.8c-0.7,0-1.5-0.6-1.5-1.3V11.4c0-0.7,0.8-1.3,1.5-1.3l0,0c0.7,0,1.5,0.6,1.5,1.3v10.1
						C53,22.2,52.2,22.8,51.5,22.8L51.5,22.8z"/>
					<path fill="#102D35" d="M40.2,11.6c0-0.7,0.6-1.4,1.3-1.4l10.1,0c0.7,0,1.3,0.7,1.3,1.4l0,0c0,0.7-0.6,1.4-1.3,1.4H41.5
						C40.8,13,40.2,12.3,40.2,11.6L40.2,11.6z"/>
				</g>
				<g>
					<path fill="#065177" d="M49.5,23.6c-0.5-0.5-0.5-1.3,0-1.8l7.2-7.2c0.5-0.5,1.3-0.5,1.8,0l0,0c0.5,0.5,0.5,1.3,0,1.8l-7.2,7.2
						C50.8,24.1,50,24.1,49.5,23.6L49.5,23.6z"/>
					<path fill="#065177" d="M57.5,16.7c-0.7,0-1.5-0.6-1.5-1.3V5.3C56,4.6,56.8,4,57.5,4l0,0C58.2,4,59,4.6,59,5.3v10.1
						C59,16.1,58.2,16.7,57.5,16.7L57.5,16.7z"/>
					<path fill="#065177" d="M46.3,5.5c0-0.7,0.6-1.4,1.3-1.4l10.1,0c0.7,0,1.3,0.7,1.3,1.5l0,0C59,6.3,58.5,7,57.7,7H47.6
						C46.9,7,46.3,6.2,46.3,5.5L46.3,5.5z"/>
				</g>
			</g>
		</g>
	</g>
	<g>
		<path fill="#065177" d="M48.6,25.7c0,9.7-7.4,19.7-16.6,19.7s-16.6-9.9-16.6-19.7S22.8,8.1,32,8.1S48.6,16,48.6,25.7z"/>
		<path fill="#102D35" d="M32,8.1c9.2,0,16.6,7.9,16.6,17.6S41.2,45.3,32,45.3"/>
		<g>
			<path fill="#102D35" d="M24,51.5c0-4.7,3.6-9.5,8-9.5c4.4,0,8,4.8,8,9.5c0,4.7-3.6,8.5-8,8.5C27.6,60,24,56.2,24,51.5z"/>
			<path fill="#065177" d="M32,60c-4.4,0-8-3.8-8-8.5c0-4.7,3.6-9.5,8-9.5"/>
		</g>
	</g>
	<g>
		<circle fill="#DD4343" cx="32" cy="15.2" r="2.9"/>
		<path fill="#AF2E2E" d="M32,12.3c1.6,0,2.9,1.3,2.9,2.9s-1.3,2.9-2.9,2.9"/>
	</g>
	<g>
		<circle fill="#DD4343" cx="32" cy="23.8" r="1.5"/>
		<path fill="#AF2E2E" d="M32,22.3c0.8,0,1.5,0.7,1.5,1.5s-0.7,1.5-1.5,1.5"/>
	</g>
	<g>
		<circle fill="#DD4343" cx="32" cy="31" r="0.8"/>
		<path fill="#AF2E2E" d="M32,30.2c0.4,0,0.8,0.3,0.8,0.8s-0.3,0.8-0.8,0.8"/>
	</g>
	<g>
		<circle fill="#DD4343" cx="32" cy="34.6" r="0.8"/>
		<path fill="#AF2E2E" d="M32,33.8c0.4,0,0.8,0.3,0.8,0.8s-0.3,0.8-0.8,0.8"/>
	</g>
	<g>
		<circle fill="#DD4343" cx="32" cy="38.2" r="0.8"/>
		<path fill="#AF2E2E" d="M32,37.5c0.4,0,0.8,0.3,0.8,0.8S32.4,39,32,39"/>
	</g>
	<g>
		<g>
			<path fill="#EAEAEA" d="M38.6,52c-1-2-3.5-3.8-6.5-3.8c-3,0-5.5,1.8-6.5,3.8H38.6z"/>
			<path fill="#C4C4C4" d="M25.6,52c1,2,3.5,3.8,6.5,3.8c3,0,5.5-1.8,6.5-3.8H25.6z"/>
		</g>
		<g>
			<circle fill="#0AA06E" cx="32.1" cy="52.1" r="3.4"/>
			<path fill="#007C56" d="M32.1,48.7c1.9,0,3.4,1.5,3.4,3.4c0,1.9-1.5,3.4-3.4,3.4"/>
			<circle fill="#5E6664" cx="32.1" cy="52.1" r="1.5"/>
			<path fill="#2F423F" d="M33.1,51c0.6,0.6,0.6,1.5,0,2.1s-1.5,0.6-2.1,0"/>
			<circle fill="#FFFFFF" cx="31.2" cy="51" r="0.8"/>
			<circle fill="#FFFFFF" cx="33.2" cy="53" r="0.3"/>
		</g>
	</g>
	
		<ellipse transform="matrix(-0.8793 -0.4762 0.4762 -0.8793 32.9541 48.0208)" fill="#227CA0" cx="22.6" cy="19.8" rx="3.4" ry="7.3"/>
</g>
</svg>
