<?xml version="1.0" encoding="utf-8"?>
<!-- Generator: Adobe Illustrator 16.0.0, SVG Export Plug-In . SVG Version: 6.00 Build 0)  -->
<!DOCTYPE svg PUBLIC "-//W3C//DTD SVG 1.1//EN" "http://www.w3.org/Graphics/SVG/1.1/DTD/svg11.dtd">
<svg version="1.1" id="Layer_1" xmlns="http://www.w3.org/2000/svg" xmlns:xlink="http://www.w3.org/1999/xlink" x="0px" y="0px"
	 width="64px" height="64px" viewBox="0 0 64 64" enable-background="new 0 0 64 64" xml:space="preserve">
<g>
	<g>
		<polygon fill="#0F913D" points="33.1,6 30.9,6 29.9,1 34.1,1 		"/>
		<ellipse fill="#3AAF19" cx="32" cy="17.7" rx="14.9" ry="12.3"/>
		<path fill="#0F913D" d="M32,5.3c8.2,0,14.9,5.5,14.9,12.3C46.9,24.5,40.2,30,32,30"/>
		<g>
			<path fill="#E87B18" d="M51.6,16.4c-0.1,0-0.3,0-0.4,0c-2.6-3.5-5.7-5.6-8.7-5.6c-1.2,0-2.4,0.4-3.4,1.1c-2.1-1.9-4.6-3-7.1-3
				c-2.6,0-5,1.1-7.1,3c-1-0.7-2.2-1.1-3.4-1.1c-3,0-6.1,2.1-8.7,5.6c-0.1,0-0.2,0-0.4,0C7,16.4,1.1,25.2,1.1,36.1s6,19.7,11.3,19.7
				c0.1,0,0.2,0,0.4,0c2.6,3.5,5.7,5.6,8.7,5.6c1.3,0,2.4-0.4,3.4-1.1c2.1,1.9,4.6,3,7.1,3c2.6,0,5-1.1,7.1-3c1,0.7,2.2,1.1,3.4,1.1
				c3,0,6.1-2.1,8.7-5.6c0.1,0,0.2,0,0.4,0c5.4,0,11.3-8.8,11.3-19.7S56.9,16.4,51.6,16.4z"/>
			<path fill="#D1640B" d="M51.6,50.7c-0.1,0-0.3,0-0.4,0c-2.6,3.5-5.7,5.6-8.7,5.6c-1.2,0-2.4-0.4-3.4-1.1c-2.1,1.9-4.6,3-7.1,3
				c-2.6,0-5-1.1-7.1-3c-1,0.7-2.2,1.1-3.4,1.1c-3,0-6.1-2.1-8.7-5.6c-0.1,0-0.2,0-0.4,0C7.5,50.7,2,43.2,1.2,33.6
				c-0.1,0.8-0.1,1.7-0.1,2.5c0,10.9,6,19.7,11.3,19.7c0.1,0,0.2,0,0.4,0c2.6,3.5,5.7,5.6,8.7,5.6c1.3,0,2.4-0.4,3.4-1.1
				c2.1,1.9,4.6,3,7.1,3c2.6,0,5-1.1,7.1-3c1,0.7,2.2,1.1,3.4,1.1c3,0,6.1-2.1,8.7-5.6c0.1,0,0.2,0,0.4,0c5.4,0,11.3-8.8,11.3-19.7
				c0-0.9,0-1.7-0.1-2.5C62,43.2,56.5,50.7,51.6,50.7z"/>
			<path fill="#E87B18" d="M51.2,16.5"/>
			<path fill="#F47E27" d="M12.4,16.4"/>
			<path fill="#F47E27" d="M12.4,55.8"/>
			<path fill="#DD6E12" d="M12.4,16.4"/>
			<path fill="#DD6E12" d="M21.5,10.9"/>
			<path fill="#DD6E12" d="M12.4,55.8"/>
			<g>
				<g>
					<polygon fill="#FF9C39" points="13,32 19.3,19.1 25.5,32 					"/>
					<polygon fill="#B74E06" points="13,32 19.3,21.2 25.5,32 					"/>
					<polygon fill="#490101" points="15.6,31 19.3,24.7 23,31 					"/>
					<polygon fill="#960E08" points="19.2,31 19.3,24.7 23,31 					"/>
				</g>
				<g>
					<polygon fill="#FF9C39" points="38.4,32 44.7,19.1 51,32 					"/>
					<polygon fill="#B74E06" points="38.4,32 44.7,21.2 51,32 					"/>
					<polygon fill="#490101" points="41,31 44.7,24.7 48.4,31 					"/>
					<polygon fill="#960E08" points="44.6,31 44.7,24.7 48.4,31 					"/>
				</g>
			</g>
			<polygon fill="#FF9C39" points="50.2,38.7 44.4,39.6 41.9,41.5 39.4,39.6 36.9,41.5 34.5,39.6 32,41.5 29.5,39.6 27.1,41.5 
				24.6,39.6 22.1,41.5 19.6,39.6 13.8,38.7 19.6,50.7 22.1,48.8 24.6,50.7 27.1,48.8 29.5,50.7 32,48.8 34.5,50.7 36.9,48.8 
				39.4,50.7 41.9,48.8 44.4,50.7 			"/>
			<polygon fill="#960E08" points="50.2,38.7 44.4,40.6 41.9,42.5 39.4,40.6 36.9,42.5 34.5,40.6 32,42.5 29.5,40.6 27.1,42.5 
				24.6,40.6 22.1,42.5 19.6,40.6 13.8,38.7 19.6,49.7 22.1,47.7 24.6,49.7 27.1,47.7 29.5,49.7 32,47.7 34.5,49.7 36.9,47.7 
				39.4,49.7 41.9,47.7 44.4,49.7 			"/>
			<polygon fill="#490101" points="19.6,44.1 22.1,46.1 24.6,44.1 27.1,46.1 29.5,44.1 32,46.1 34.5,44.1 36.9,46.1 39.4,44.1 
				41.9,46.1 44.4,44.1 47.9,43 50.2,38.7 44.4,40.6 41.9,42.5 39.4,40.6 36.9,42.5 34.5,40.6 32,42.5 29.5,40.6 27.1,42.5 
				24.6,40.6 22.1,42.5 19.6,40.6 13.8,38.7 16.1,43 			"/>
			<path fill="#FF9C39" d="M36.3,12c0,0.8-1.9,1.5-4.3,1.5s-4.3-0.7-4.3-1.5s1.9-1.8,4.3-1.8S36.3,11.2,36.3,12z"/>
			<path fill="#FF9C39" d="M22.1,12.2c0.3,0.5-1.1,2-3.1,3.2c-2,1.2-3.9,1.8-4.2,1.2c-0.3-0.5,1-2.1,3-3.3
				C19.8,12.1,21.8,11.7,22.1,12.2z"/>
			<g>
				<path fill="#FF9C39" d="M12.4,17.7c0.4,0.5-0.6,2.1-2.4,3.7c-1.7,1.6-3.5,2.5-3.9,2.1c-0.4-0.5,0.5-2.3,2.2-3.9
					C10.1,18.1,12,17.3,12.4,17.7z"/>
				<path fill="#FF9C39" d="M51.6,17.7c-0.4,0.5,0.6,2.1,2.4,3.7c1.7,1.6,3.5,2.5,3.9,2.1c0.4-0.5-0.5-2.3-2.2-3.9
					C53.9,18.1,52,17.3,51.6,17.7z"/>
			</g>
			<path fill="#FF9C39" d="M41.7,12.2c-0.3,0.5,1.1,2,3.1,3.2c2,1.2,3.9,1.8,4.2,1.2s-1-2.1-3-3.3C44.1,12.1,42.1,11.7,41.7,12.2z"
				/>
			<g>
				<g>
					<path fill="#FF9C39" d="M27.7,33.2c0,0.5-4,0.7-8.9,0.3c-4.9-0.3-8.8-1-8.8-1.6c0-0.5,4-0.7,8.9-0.3
						C23.8,32,27.7,32.7,27.7,33.2z"/>
				</g>
				<g>
					<path fill="#FF9C39" d="M36.3,33.2c0,0.5,4,0.7,8.9,0.3c4.9-0.3,8.8-1,8.8-1.6c0-0.5-4-0.7-8.9-0.3
						C40.2,32,36.3,32.7,36.3,33.2z"/>
				</g>
			</g>
			<g>
				<path fill="#FF9C39" d="M32.8,17.4c0,0.4-0.3,0.8-0.8,0.8l0,0c-0.4,0-0.8-0.3-0.8-0.8l0,0c0-0.4,0.3-0.8,0.8-0.8l0,0
					C32.4,16.7,32.8,17,32.8,17.4L32.8,17.4z"/>
				<path fill="#FF9C39" d="M32.8,22.5c0,0.4-0.3,0.8-0.8,0.8l0,0c-0.4,0-0.8-0.3-0.8-0.8l0,0c0-0.4,0.3-0.8,0.8-0.8l0,0
					C32.4,21.7,32.8,22.1,32.8,22.5L32.8,22.5z"/>
				<path fill="#FF9C39" d="M32.8,27.6c0,0.4-0.3,0.8-0.8,0.8l0,0c-0.4,0-0.8-0.3-0.8-0.8l0,0c0-0.4,0.3-0.8,0.8-0.8l0,0
					C32.4,26.8,32.8,27.2,32.8,27.6L32.8,27.6z"/>
				<path fill="#FF9C39" d="M32.8,32.6c0,0.4-0.3,0.8-0.8,0.8l0,0c-0.4,0-0.8-0.3-0.8-0.8l0,0c0-0.4,0.3-0.8,0.8-0.8l0,0
					C32.4,31.9,32.8,32.2,32.8,32.6L32.8,32.6z"/>
			</g>
			<ellipse fill="#FF9C39" cx="7.5" cy="34.6" rx="1.2" ry="0.7"/>
			<ellipse fill="#FF9C39" cx="9.7" cy="36.8" rx="0.9" ry="0.5"/>
			<ellipse fill="#FF9C39" cx="54.1" cy="35.5" rx="0.9" ry="0.5"/>
			<ellipse fill="#FF9C39" cx="58.8" cy="33.9" rx="0.9" ry="0.5"/>
			<ellipse fill="#FF9C39" cx="6.8" cy="38.9" rx="1.2" ry="0.7"/>
			<ellipse fill="#FF9C39" cx="56.7" cy="38" rx="1" ry="0.6"/>
		</g>
	</g>
	<circle fill="#E87B18" cx="8" cy="9.2" r="2.8"/>
	<polygon fill="#E87B18" points="11.2,5 12.6,2.6 13.9,5 	"/>
	<rect x="13.9" y="8.8" fill="#E87B18" width="2" height="2"/>
</g>
</svg>
