<?xml version="1.0" encoding="utf-8"?>
<!-- Generator: Adobe Illustrator 16.0.0, SVG Export Plug-In . SVG Version: 6.00 Build 0)  -->
<!DOCTYPE svg PUBLIC "-//W3C//DTD SVG 1.1//EN" "http://www.w3.org/Graphics/SVG/1.1/DTD/svg11.dtd">
<svg version="1.1" id="Layer_1" xmlns="http://www.w3.org/2000/svg" xmlns:xlink="http://www.w3.org/1999/xlink" x="0px" y="0px"
	 width="64px" height="64px" viewBox="0 0 64 64" enable-background="new 0 0 64 64" xml:space="preserve">
<g>
	<path fill="#2FA0F4" d="M56.5,47.3c1.5-3.3,2.3-7,2.3-10.8c0-14.8-12-26.8-26.8-26.8S5.2,21.6,5.2,36.4c0,3.9,0.8,7.5,2.3,10.8
		H56.5z"/>
	<path fill="#1077DD" d="M56.5,47.3c1.5-3.3,2.3-7,2.3-10.8c0-14.8-12-26.8-26.8-26.8"/>
	<path fill="#4DBBFF" d="M32,9.6c-14.8,0-26.8,12-26.8,26.8c0,3.9,0.8,7.5,2.3,10.8"/>
	<g>
		<rect x="27.4" y="22.7" fill="#798E86" width="9.2" height="5.4"/>
		<polyline fill="#677A72" points="36.6,28.1 36.6,22.7 27.4,22.7 		"/>
		<g>
			<path fill="#2A302D" d="M29.8,27.9c0,0.4-0.3,0.7-0.7,0.7l0,0c-0.4,0-0.7-0.3-0.7-0.7v-2.3c0-0.4,0.3-0.7,0.7-0.7l0,0
				c0.4,0,0.7,0.3,0.7,0.7V27.9z"/>
			<path fill="#2A302D" d="M32.7,27.9c0,0.4-0.3,0.7-0.7,0.7l0,0c-0.4,0-0.7-0.3-0.7-0.7v-2.3c0-0.4,0.3-0.7,0.7-0.7l0,0
				c0.4,0,0.7,0.3,0.7,0.7V27.9z"/>
			<path fill="#2A302D" d="M35.6,27.9c0,0.4-0.3,0.7-0.7,0.7l0,0c-0.4,0-0.7-0.3-0.7-0.7v-2.3c0-0.4,0.3-0.7,0.7-0.7l0,0
				c0.4,0,0.7,0.3,0.7,0.7V27.9z"/>
		</g>
		<rect x="22.6" y="27.6" fill="#BADBCA" width="18.9" height="4.2"/>
		<polyline fill="#CFE5D8" points="41.4,27.6 22.6,27.6 22.6,31.8 		"/>
		<rect x="20.2" y="31.2" fill="#A4C1B2" width="23.6" height="4.2"/>
		<polyline fill="#AFCEBF" points="43.8,31.2 20.2,31.2 20.2,35.4 		"/>
		<rect x="17.3" y="34.9" fill="#97B7A7" width="29.5" height="4.2"/>
		<polyline fill="#A5C4B6" points="46.7,34.9 17.3,34.9 17.3,39.1 		"/>
		<rect x="13.6" y="38.6" fill="#8DAA9D" width="36.8" height="4.2"/>
		<polyline fill="#9AB7AB" points="50.4,38.6 13.6,38.6 13.6,42.8 		"/>
		<rect x="9" y="42.3" fill="#7E998E" width="46" height="4.2"/>
		<polyline fill="#8CA59B" points="55,42.3 9,42.3 9,46.5 		"/>
		<rect x="4.6" y="45.9" fill="#697F76" width="54.8" height="4.2"/>
		<polyline fill="#798E86" points="59.4,45.9 4.6,45.9 4.6,50.1 		"/>
		<path fill="#30423B" d="M63,53.6c0,0.4-0.4,0.8-0.8,0.8H1.8C1.4,54.4,1,54,1,53.6v-2.7c0-0.4,0.4-0.8,0.8-0.8h60.4
			c0.4,0,0.8,0.3,0.8,0.8V53.6z"/>
		<path fill="#3D514A" d="M1.8,54.4C1.4,54.4,1,54,1,53.6v-2.7c0-0.4,0.4-0.8,0.8-0.8h60.4c0.4,0,0.8,0.3,0.8,0.8"/>
		<g>
			<g>
				<path fill="#5C7068" d="M24.1,53.9v-3c0-0.3,0.1-1.1,0.5-1.1h0.5v-4.1h1.3V42h1.3v-3.7h1.1v-3.7h0.9v-3.7h0.7v-3.4h3.4v3.4h0.7
					v3.7h0.9v3.7h1.1V42h1.3v3.7h1.3v4.1h0.5c0.5,0,0.5,0.8,0.5,1.1v3H24.1z"/>
				<path fill="#5C7068" d="M24.1,53.9v-3c0-0.3,0.1-1.1,0.5-1.1h0.5v-4.1h1.3V42h1.3v-3.7h1.1v-3.7h0.9v-3.7h0.7v-3h3.4v3h0.7v3.7
					h0.9v3.7h1.1V42h1.3v3.7h1.3v4.1h0.5c0.5,0,0.5,0.8,0.5,1.1v3H24.1z"/>
				<path fill="#141916" d="M24.1,53.9v-3c0-0.3,0.1-1.1,0.5-1.1h0.5v-4.1h1.3V42h1.3v-3.7h1.1v-3.7h0.9v-3.7h0.7v-2.4h3.4v2.4h0.7
					v3.7h0.9v3.7h1.1V42h1.3v3.7h1.3v4.1h0.5c0.5,0,0.5,0.8,0.5,1.1v3H24.1z"/>
				<path fill="#2A302D" d="M24.1,53.9v-3c0-0.3,0.1-1.1,0.5-1.1h0.5v-4.1h1.3V42h1.3v-3.7h1.1v-3.7h0.9v-3.7h0.7v-2.4h3.4v2.4h0.7
					v3.7h0.9v3.7h1.1V42h1.3v3.7h1.3v4.1h0.5c0.5,0,0.5,0.8,0.5,1.1"/>
				<polygon fill="#5C7068" points="30.4,27.6 30.4,30.9 29.7,30.9 29.7,31.8 34.4,31.8 34.4,30.9 33.7,30.9 33.7,27.6 				"/>
				<polyline fill="#657C72" points="33.7,27.6 30.4,27.6 30.4,30.9 29.7,30.9 				"/>
				<polygon fill="#495B53" points="29.7,31.2 29.7,34.6 28.8,34.6 28.8,35.4 35.3,35.4 35.3,34.6 34.4,34.6 34.4,31.2 				"/>
				<polyline fill="#586B62" points="34.4,31.2 29.7,31.2 29.7,34.6 28.8,34.6 28.8,35.4 				"/>
				<polygon fill="#405149" points="28.8,34.9 28.8,38.3 27.8,38.3 27.8,39.1 36.3,39.1 36.3,38.3 35.3,38.3 35.3,34.9 				"/>
				<polyline fill="#526059" points="35.3,34.9 28.8,34.9 28.8,38.3 27.8,38.3 27.8,39.1 				"/>
				<polygon fill="#35423B" points="27.8,38.6 27.8,42 26.4,42 26.4,42.8 37.7,42.8 37.7,42 36.3,42 36.3,38.6 				"/>
				<polyline fill="#404C45" points="36.3,38.6 27.8,38.6 27.8,42 26.4,42 26.4,42.8 				"/>
				<polygon fill="#242D28" points="26.4,42.3 26.4,45.6 25.2,45.6 25.2,46.5 38.9,46.5 38.9,45.6 37.7,45.6 37.7,42.3 				"/>
				<polyline fill="#3D4741" points="37.7,42.3 26.4,42.3 26.4,45.6 25.2,45.6 25.2,46.5 				"/>
				<path fill="#171E1A" d="M25.2,45.9v3.8h-0.5c-0.2,0-0.4,0.2-0.4,0.4h15.7c-0.1-0.2-0.2-0.4-0.4-0.4h-0.5v-3.8H25.2z"/>
				<path fill="#2B332E" d="M38.9,45.9H25.2v3.8h-0.5c-0.2,0-0.4,0.2-0.4,0.4"/>
			</g>
		</g>
		<path fill="#8CA59B" d="M37.5,22.5c0,0.2-0.1,0.3-0.3,0.3H26.9c-0.2,0-0.3-0.1-0.3-0.3l0,0c0-0.2,0.1-0.3,0.3-0.3h10.3
			C37.3,22.2,37.5,22.3,37.5,22.5L37.5,22.5z"/>
		<g>
			<path fill="#B1C4BC" d="M30.7,26.9L30.7,26.9h-0.6v0.6v3.1H30h-0.6v0.6v3.1h-0.2h-0.6v0.6V38h-0.4h-0.6v0.6v3.1h-0.7h-0.6v0.6
				v3.1h-0.6h-0.6v0.6v3.5h-0.2c-0.3,0-0.8,0.1-0.8,1.4v2.7v0.6h0.6h0v-0.6h0v-2.7c0-0.4,0.1-0.8,0.2-0.8h0.8v-4.1h1.3v-3.7h1.3
				v-3.7h1.1v-3.7H30v-3.7h0.7v-3.7h0V26.9z"/>
			<path fill="#B1C4BC" d="M39.4,49.4h-0.2v-3.5v-0.6h-0.6H38v-3.1v-0.6h-0.6h-0.7v-3.1V38H36h-0.4v-3.1v-0.6H35h-0.2v-3.1v-0.6
				h-0.6H34v-3.1v-0.6h-0.6h0v0.6h0v3.7h0.7v3.7H35v3.7H36v3.7h1.3v3.7h1.3v4.1h0.8c0.1,0,0.2,0.3,0.2,0.8v2.7h0v0.6h0h0.6v-0.6
				v-2.7C40.3,49.6,39.7,49.4,39.4,49.4z"/>
		</g>
	</g>
</g>
</svg>
