<?xml version="1.0" encoding="utf-8"?>
<!-- Generator: Adobe Illustrator 16.0.0, SVG Export Plug-In . SVG Version: 6.00 Build 0)  -->
<!DOCTYPE svg PUBLIC "-//W3C//DTD SVG 1.1//EN" "http://www.w3.org/Graphics/SVG/1.1/DTD/svg11.dtd">
<svg version="1.1" id="Layer_1" xmlns="http://www.w3.org/2000/svg" xmlns:xlink="http://www.w3.org/1999/xlink" x="0px" y="0px"
	 width="65px" height="65px" viewBox="0 0 65 65" enable-background="new 0 0 65 65" xml:space="preserve">
<g>
	<g>
		<g>
			<g>
				<path fill="#4F340E" d="M32.15,46.446c0,2.476-2.008,15.827-4.486,15.827c-2.475,0-4.482-13.352-4.482-15.827
					s2.008-4.484,4.482-4.484C30.143,41.962,32.15,43.971,32.15,46.446z"/>
				<path fill="#4F340E" d="M47.176,46.446c0,2.476-2.008,15.827-4.486,15.827c-2.475,0-4.482-13.352-4.482-15.827
					s2.008-4.484,4.482-4.484C45.168,41.962,47.176,43.971,47.176,46.446z"/>
			</g>
			<path fill="#684713" d="M47.828,40.521c0,16.038-5.662,10.697-12.65,10.697c-6.986,0-12.65,5.341-12.65-10.697
				c0-9.17,5.666-16.604,12.65-16.604C42.164,23.918,47.828,31.352,47.828,40.521z"/>
			<g>
				<path fill="#B7530F" d="M32.711,62.354c0,1.896-2.26,2.146-5.045,2.146s-5.045-0.249-5.045-2.146
					c0-1.897,2.26-4.508,5.045-4.508S32.711,60.457,32.711,62.354z"/>
				<path fill="#9B4308" d="M32.711,62.354c0,1.896-2.26,2.146-5.045,2.146s-5.045-0.249-5.045-2.146"/>
			</g>
			<g>
				<path fill="#B7530F" d="M47.736,62.354c0,1.896-2.26,2.146-5.045,2.146s-5.045-0.249-5.045-2.146
					c0-1.897,2.26-4.508,5.045-4.508S47.736,60.457,47.736,62.354z"/>
				<path fill="#9B4308" d="M47.736,62.354c0,1.896-2.26,2.146-5.045,2.146s-5.045-0.249-5.045-2.146"/>
			</g>
			<g>
				<path fill="#684713" d="M33.783,26.369c1.273,1.432,0.465,4.228-1.805,6.249c-2.27,2.018-14.475,10.794-15.75,9.365
					c-1.271-1.434,8.873-12.532,11.143-14.55C29.639,25.415,32.51,24.938,33.783,26.369z"/>
				<path fill="#684713" d="M36.572,26.369c-1.273,1.432-0.465,4.228,1.805,6.249c2.27,2.018,14.475,10.794,15.75,9.365
					c1.271-1.434-8.873-12.532-11.143-14.55C40.717,25.415,37.846,24.938,36.572,26.369z"/>
			</g>
			<rect x="32.553" y="25.833" fill="#E2DED3" width="5.25" height="17.917"/>
			<path fill="#C6BFAF" d="M32.553,30.165c0.857,0.079,1.73,0.13,2.627,0.13c0.895,0,1.768-0.051,2.623-0.13v-4.332h-5.25V30.165z"
				/>
			<polygon fill="#D62B2B" points="35.955,28.249 37.256,41.438 35.178,42.948 33.1,41.438 34.4,28.249 			"/>
			<polyline fill="#AA1111" points="34.4,28.249 35.955,28.249 37.256,41.438 35.178,42.948 			"/>
			<g>
				<path fill="#F9C1AC" d="M51.549,16.275c0,7.999-7.33,12.02-16.369,12.02c-9.041,0-16.373-4.021-16.373-12.02
					C18.807,8.274,26.139,0.5,35.18,0.5C44.219,0.5,51.549,8.274,51.549,16.275z"/>
				<path fill="#F2B09C" d="M51.549,16.275c0,7.999-7.33,12.02-16.369,12.02c-9.041,0-16.373-4.021-16.373-12.02"/>
			</g>
			<g>
				<g>
					<circle fill="#113E49" cx="27.394" cy="17.82" r="1.464"/>
					<path d="M28.857,17.82c0,0.811-0.656,1.465-1.465,1.465s-1.463-0.654-1.463-1.465"/>
					<g>
						<path fill="#FFD3C5" d="M30.281,20.874c-0.078,0-0.158-0.028-0.219-0.091c-0.715-0.714-1.664-1.107-2.672-1.107h-0.002
							c-1.008,0-1.955,0.394-2.666,1.106c-0.121,0.121-0.316,0.124-0.436,0.001c-0.121-0.117-0.125-0.312-0.004-0.434
							c0.83-0.831,1.932-1.29,3.105-1.29h0.002c1.176,0,2.279,0.456,3.111,1.288c0.119,0.119,0.119,0.318,0,0.436
							C30.441,20.846,30.363,20.874,30.281,20.874z"/>
					</g>
				</g>
				<g>
					<circle fill="#113E49" cx="42.964" cy="17.82" r="1.464"/>
					<path d="M41.5,17.82c0,0.811,0.654,1.465,1.465,1.465c0.809,0,1.463-0.654,1.463-1.465"/>
					<g>
						<path fill="#FFD3C5" d="M40.076,20.874c0.076,0,0.156-0.028,0.217-0.091c0.715-0.714,1.664-1.107,2.672-1.107h0.002
							c1.008,0,1.957,0.394,2.668,1.106c0.119,0.121,0.314,0.124,0.436,0.001c0.121-0.117,0.123-0.312,0.002-0.434
							c-0.826-0.831-1.932-1.29-3.105-1.29h-0.002c-1.174,0-2.277,0.456-3.111,1.288c-0.117,0.119-0.117,0.318,0,0.436
							C39.916,20.846,39.994,20.874,40.076,20.874z"/>
					</g>
				</g>
			</g>
		</g>
		<path fill="#A54B08" d="M35.18,0.5c-0.227,0-0.445,0.026-0.669,0.036c-0.114,0.15-0.208,0.31-0.265,0.484
			c-0.774,2.388,4.188,6.139,11.083,8.372c1.739,0.563,3.435,0.976,5.011,1.241C47.904,4.979,42.039,0.5,35.18,0.5z"/>
		<path fill="#BC5806" d="M42.469,2.294C40.271,1.169,37.801,0.5,35.18,0.5c-6.9,0-12.793,4.532-15.203,10.233
			c2.581,0.587,6.879,0.152,11.488-1.341C37.229,7.525,41.63,4.599,42.469,2.294z"/>
		<path fill="#CE910B" d="M37.828,45.626c0,0.667-0.541,1.208-1.209,1.208h-2.832c-0.668,0-1.209-0.541-1.209-1.208l0,0
			c0-0.668,0.541-1.209,1.209-1.209h2.832C37.287,44.417,37.828,44.958,37.828,45.626L37.828,45.626z"/>
		<path fill="#E5AA15" d="M36.619,44.417h-2.832c-0.553,0-0.998,0.376-1.143,0.881c0.145,0.504,0.59,0.88,1.143,0.88h2.832
			c0.552,0,0.998-0.376,1.143-0.88C37.617,44.793,37.171,44.417,36.619,44.417z"/>
		<path fill="#AA1111" d="M36.762,21.485c0,0.57-0.711,1.035-1.584,1.035c-0.874,0-1.583-0.465-1.583-1.035
			c0-0.573,0.709-0.23,1.583-0.23C36.051,21.255,36.762,20.912,36.762,21.485z"/>
		<path fill="#D62B2B" d="M33.879,22.075c0.286,0.269,0.761,0.445,1.299,0.445c0.537,0,1.013-0.177,1.299-0.445
			c-0.286-0.27-0.762-0.446-1.299-0.446C34.64,21.629,34.165,21.806,33.879,22.075z"/>
		<path fill="#E5AA15" d="M43.245,34.334c0,0.185-0.149,0.333-0.333,0.333h-3.25c-0.184,0-0.333-0.148-0.333-0.333l0,0
			c0-0.185,0.149-0.333,0.333-0.333h3.25C43.096,34.001,43.245,34.149,43.245,34.334L43.245,34.334z"/>
	</g>
	<g>
		<path fill="#E5AA15" d="M17.658,42.077c-0.357,0.357-6.52,5.939-6.878,5.581s5.224-6.521,5.581-6.878
			c0.358-0.358,0.939-0.359,1.298-0.001S18.016,41.719,17.658,42.077z"/>
		<path fill="#C98E0A" d="M17.659,40.779c0.358,0.358,0.356,0.939-0.001,1.298c-0.357,0.357-6.52,5.939-6.878,5.581"/>
	</g>
	<g>
		<g>
			<circle fill="#6BCDDD" cx="31.123" cy="19.087" r="2.268"/>
			<path fill="#426877" d="M31.123,21.854c-1.527,0-2.769-1.241-2.769-2.768s1.241-2.768,2.769-2.768
				c1.525,0,2.768,1.241,2.768,2.768S32.648,21.854,31.123,21.854z M31.123,17.319c-0.976,0-1.769,0.793-1.769,1.768
				s0.793,1.768,1.769,1.768c0.975,0,1.768-0.793,1.768-1.768S32.098,17.319,31.123,17.319z"/>
		</g>
		<g>
			<circle fill="#6BCDDD" cx="39.232" cy="19.087" r="2.268"/>
			<path fill="#426877" d="M39.232,21.854c-1.525,0-2.768-1.241-2.768-2.768s1.242-2.768,2.768-2.768
				c1.527,0,2.768,1.241,2.768,2.768S40.76,21.854,39.232,21.854z M39.232,17.319c-0.975,0-1.768,0.793-1.768,1.768
				s0.793,1.768,1.768,1.768c0.976,0,1.768-0.793,1.768-1.768S40.208,17.319,39.232,17.319z"/>
		</g>
		<g>
			<line fill="#6BCDDD" x1="37.141" y1="19.087" x2="33.391" y2="19.087"/>
			<rect x="33.391" y="18.587" fill="#426877" width="3.75" height="1"/>
		</g>
	</g>
</g>
</svg>
