<?xml version="1.0" encoding="utf-8"?>
<!-- Generator: Adobe Illustrator 16.0.0, SVG Export Plug-In . SVG Version: 6.00 Build 0)  -->
<!DOCTYPE svg PUBLIC "-//W3C//DTD SVG 1.1//EN" "http://www.w3.org/Graphics/SVG/1.1/DTD/svg11.dtd">
<svg version="1.1" id="Layer_1" xmlns="http://www.w3.org/2000/svg" xmlns:xlink="http://www.w3.org/1999/xlink" x="0px" y="0px"
	 width="65px" height="64px" viewBox="0 0 65 64" enable-background="new 0 0 65 64" xml:space="preserve">
<g>
	<g>
		<rect x="1.5" y="9" fill="#DDD8B1" width="62" height="46"/>
		<polyline fill="#CCC59A" points="1.5,9 63.5,9 63.5,55 		"/>
		<polyline fill="#CCC59A" points="1.5,36 63.5,36 63.5,43 		"/>
	</g>
	<g>
		<rect x="1.5" y="9" fill="#E8E3C4" width="62" height="46"/>
		<polyline fill="#DDD8B1" points="1.5,9 63.5,9 63.5,55 27.5,55 		"/>
		<polyline fill="#CCC59A" points="1.5,9 63.5,9 63.5,55 		"/>
		<polyline fill="#CCC59A" points="1.5,36 63.5,36 63.5,43 		"/>
	</g>
	<rect x="35.5" y="23" fill="#CCC59A" width="6" height="32"/>
	<rect x="1.5" y="53" fill="#C1B98E" width="62" height="2"/>
	<g>
		<rect x="27.5" y="8" fill="#EA4798" width="10" height="48"/>
		<polyline fill="#D81665" points="27.5,8 37.5,8 37.5,56 		"/>
	</g>
	<g>
		<rect x="0.5" y="27" fill="#D81665" width="64" height="10"/>
		<polyline fill="#EA4798" points="0.5,37 0.5,27 64.5,27 		"/>
	</g>
	<g>
		<g>
			<path fill="#F7991C" d="M32.5,28.9c0,0-0.8-10.1-8.5-13.1S5.9,30.6,31.4,33.4c0,0-17.2-4-9.2-12.9c6.4-7.2,10.4,8.9,10.4,8.9"/>
			<g>
				<path fill="#F4CB1E" d="M28.1,20c2.8,2.9,4.4,9.4,4.4,9.4v-0.5c0,0-0.3-3.5-2.1-7C29.7,21,28.9,20.3,28.1,20z"/>
				<path fill="#F4CB1E" d="M25.8,17c0.4,0.2,0.8,0.4,1.2,0.6c-0.9-0.7-1.8-1.3-3-1.7c-6.2-2.4-14.1,8.6-3.8,14.5
					C12.6,24.2,19.9,14.7,25.8,17z"/>
				<path fill="#F4CB1E" d="M24.4,30.7c1.2,0.9,2.6,1.7,3.9,2.2c1,0.2,2,0.3,3.1,0.5C31.4,33.4,27.6,32.6,24.4,30.7z"/>
			</g>
			<path fill="#F7991C" d="M9.9,45.9c0,0,14.1,1.7,11.4-4.7s10.1-7.8,10.1-7.8s-8.8,2.3-6.8,5.8s7.3,12.5-9.2,12.7L8,52.2l4.6-3
				l-5.9-3.8L9.9,45.9z"/>
			<g>
				<path fill="#F4CB1E" d="M22,43.4c-1.1-2.5,0.3-4.3,2.4-5.5c0.3-2.8,7-4.5,7-4.5s-12.8,1.4-10.1,7.8S9.9,45.9,9.9,45.9l-3.2-0.5
					l5.9,3.8C14.9,49.4,24.4,49.1,22,43.4z"/>
				<polygon fill="#F4CB1E" points="12.6,49.2 11.2,50.1 8,52.2 12.4,52 				"/>
			</g>
		</g>
		<g>
			<path fill="#F7991C" d="M32.5,28.9c0,0,0.8-10.1,8.5-13.1s18.1,14.8-7.4,17.6c0,0,17.2-4,9.2-12.9c-6.4-7.2-10.4,8.9-10.4,8.9"/>
			<g>
				<path fill="#F4CB1E" d="M36.9,20c-2.8,2.9-4.4,9.4-4.4,9.4v-0.5c0,0,0.3-3.5,2.1-7C35.3,21,36.1,20.3,36.9,20z"/>
				<path fill="#F4CB1E" d="M39.2,17c-0.4,0.2-0.8,0.4-1.2,0.6c0.9-0.7,1.8-1.3,3-1.7c6.2-2.4,14.1,8.6,3.8,14.5
					C52.4,24.2,45.1,14.7,39.2,17z"/>
				<path fill="#F4CB1E" d="M40.6,30.7c-1.2,0.9-2.6,1.7-3.9,2.2c-1,0.2-2,0.3-3.1,0.5C33.6,33.4,37.4,32.6,40.6,30.7z"/>
			</g>
			<path fill="#F7991C" d="M55.1,45.9c0,0-14.1,1.7-11.4-4.7s-10.1-7.8-10.1-7.8s8.8,2.3,6.8,5.8S33,51.7,49.5,51.9l7.5,0.3l-4.6-3
				l5.9-3.8L55.1,45.9z"/>
			<g>
				<path fill="#F4CB1E" d="M43,43.4c1.1-2.5-0.3-4.3-2.4-5.5c-0.3-2.8-7-4.5-7-4.5s12.8,1.4,10.1,7.8s11.4,4.7,11.4,4.7l3.2-0.5
					l-5.9,3.8C50.1,49.4,40.6,49.1,43,43.4z"/>
				<polygon fill="#F4CB1E" points="52.4,49.2 53.8,50.1 57,52.2 52.6,52 				"/>
			</g>
		</g>
	</g>
	<g>
		<circle fill="#F4CB1E" cx="32.5" cy="32" r="1.7"/>
		<path fill="#F7991C" d="M32.5,30.3c0.9,0,1.7,0.8,1.7,1.7s-0.8,1.7-1.7,1.7"/>
	</g>
	<g>
		<g>
			<circle fill="#F4CB1E" cx="32.5" cy="40.8" r="0.6"/>
			<path fill="#F7991C" d="M32.5,40.2c0.3,0,0.6,0.3,0.6,0.6c0,0.3-0.3,0.6-0.6,0.6"/>
		</g>
		<g>
			<circle fill="#F4CB1E" cx="32.5" cy="44.3" r="0.6"/>
			<path fill="#F7991C" d="M32.5,43.7c0.3,0,0.6,0.3,0.6,0.6c0,0.3-0.3,0.6-0.6,0.6"/>
		</g>
		<g>
			<circle fill="#F4CB1E" cx="32.5" cy="47.7" r="0.6"/>
			<path fill="#F7991C" d="M32.5,47.1c0.3,0,0.6,0.3,0.6,0.6s-0.3,0.6-0.6,0.6"/>
		</g>
	</g>
	<g>
		<g>
			<g>
				<g>
					<path fill="#D81665" d="M52.7,13.7c1,0.3,1.7,1,1.8,1.9c0,0.1,0.1,0.2,0.2,0.2c0.1,0,0.2,0,0.2,0c0.5-0.7,1.5-1.1,2.5-0.8
						c1.2,0.3,2,1.5,1.7,2.6c-0.1,0.4-0.7,0.7-0.7,1v0c0,0,0,0,0,0L53,22.4l-2.9-6c0,0,0,0,0,0l0,0c-0.2-0.4-0.2-0.8-0.1-1.2
						C50.3,14,51.5,13.4,52.7,13.7z"/>
				</g>
			</g>
			<g>
				<path fill="#B20B5F" d="M54.7,15.8c0.1,0,0.2,0,0.2,0c0.5-0.7,1.5-1.1,2.5-0.8c1.2,0.3,2,1.5,1.7,2.6c-0.1,0.4-0.4,0.8-0.7,1v0
					c0,0,0,0,0,0L53,22.4"/>
			</g>
		</g>
	</g>
</g>
</svg>
