<?xml version="1.0" encoding="utf-8"?>
<!-- Generator: Adobe Illustrator 16.0.0, SVG Export Plug-In . SVG Version: 6.00 Build 0)  -->
<!DOCTYPE svg PUBLIC "-//W3C//DTD SVG 1.1//EN" "http://www.w3.org/Graphics/SVG/1.1/DTD/svg11.dtd">
<svg version="1.1" id="Layer_1" xmlns="http://www.w3.org/2000/svg" xmlns:xlink="http://www.w3.org/1999/xlink" x="0px" y="0px"
	 width="65px" height="65px" viewBox="0 0 65 65" enable-background="new 0 0 65 65" xml:space="preserve">
<g>
	<g>
		<g>
			<g>
				<path fill="#FCA883" d="M40.488,64.351l1.028-0.534c0.65-0.338,0.904-1.141,0.564-1.788l-2.577-5.664l7.039,7.261
					c0.509,0.584,1.395,0.645,1.98,0.136l0.922-0.806c0.584-0.51,0.645-1.396,0.137-1.979l-7.146-9.134l8.902,8.007
					c0.549,0.549,1.438,0.549,1.986,0l0.865-0.867c0.549-0.548,0.549-1.436,0-1.984l-7.358-8.182l7.887,4.205
					c0.663,0.4,1.526,0.188,1.926-0.475l0.634-1.05c0.399-0.663,0.188-1.528-0.476-1.927l-12.199-8.27l-0.532-0.572l6.645-1.98
					c0.775-0.005,1.402-0.635,1.397-1.407l-0.001-1.227c-0.002-0.775-0.633-1.403-1.407-1.399L37.85,34.072L26.169,21.576
					c-0.663-0.662-2.737-0.264-3.4,0.4l-9.503,9.504c-0.663,0.662-1.265,2.537-0.602,3.2l16.708,14.708l9.329,14.396
					C39.039,64.437,39.842,64.688,40.488,64.351z"/>
			</g>
			<path fill="#F99A70" d="M26.169,21.576c-0.663-0.662-2.737-0.264-3.4,0.4l-9.503,9.504c-0.498,0.498-0.961,1.68-0.879,2.52
				h25.395L26.169,21.576z"/>
			<path fill="#FFCCA9" d="M41.517,63.816c0.65-0.338,0.904-1.141,0.564-1.788l-2.577-5.664l7.039,7.261
				c0.509,0.584,1.395,0.645,1.98,0.136l0.922-0.806c0.584-0.51,0.645-1.396,0.137-1.979l-7.146-9.134l8.902,8.007
				c0.549,0.549,1.438,0.549,1.986,0l0.865-0.867c0.549-0.548,0.549-1.436,0-1.984l-7.358-8.182l7.887,4.205
				c0.663,0.4,1.526,0.188,1.926-0.475l0.634-1.05c0.399-0.663,0.188-1.528-0.476-1.927l-12.199-8.27l-0.532-0.572l6.645-1.98
				c0.775-0.005,1.402-0.635,1.397-1.407l-0.001-1.227c-0.002-0.775-0.633-1.403-1.407-1.399L37.85,34.072l-0.104-0.11v28.351
				l0.955,1.473c0.338,0.651,1.141,0.902,1.787,0.565L41.517,63.816z"/>
			<path fill="#F99A70" d="M41.183,63.721c0.65-0.341,0.903-1.142,0.564-1.789l-2.243-5.567l7.039,7.261
				c0.509,0.584,1.395,0.645,1.98,0.136l0.528-0.657c0.584-0.51,0.646-1.395,0.138-1.979l-6.754-9.282l8.902,8.007
				c0.549,0.549,1.438,0.549,1.986,0l0.514-0.71c0.548-0.549,0.548-1.437,0-1.985l-7.007-8.338l7.887,4.205
				c0.663,0.4,1.526,0.188,1.926-0.475l0.189-0.572c0.399-0.664,0.188-1.528-0.476-1.928l-11.755-8.746l-0.532-0.572l6.645-1.98
				c0.775-0.005,1.402-0.635,1.397-1.407l-0.001-0.413c-0.002-0.775-0.633-1.402-1.407-1.396L37.85,34.072l-0.104-0.11v28.351
				l0.955,1.473c0.338,0.651,1.141,0.902,1.787,0.565L41.183,63.721z"/>
		</g>
		<polygon fill="#FFAA00" points="5.787,0.5 5.787,29.33 12.136,35.678 26.55,21.264 		"/>
		<polygon fill="#FF8500" points="5.787,0.5 12.176,31.89 12.136,35.678 26.55,21.264 		"/>
		<path fill="#FF6700" d="M30.021,21.443c0.536,0.536,0.536,1.406,0,1.941L14.037,39.369c-0.536,0.537-1.406,0.537-1.943,0
			l-2.629-2.631c-0.536-0.536-0.536-1.404,0-1.941l15.983-15.984c0.536-0.536,1.405-0.536,1.941,0L30.021,21.443z"/>
	</g>
	<path fill="#48B6ED" d="M59.213,27.058c0,2.176-1.765,3.942-3.942,3.942c-2.177,0-3.942-1.767-3.942-3.942
		c0-2.178,1.766-7.99,3.942-7.99C57.448,19.067,59.213,24.88,59.213,27.058z"/>
	<path fill="#3D9DD8" d="M55.271,19.067c2.178,0,3.942,5.812,3.942,7.99c0,2.176-1.765,3.942-3.942,3.942"/>
	<path fill="#48B6ED" d="M57.67,11.182c0,1.325-1.074,2.4-2.399,2.4s-2.401-1.075-2.401-2.4s1.076-4.864,2.401-4.864
		S57.67,9.856,57.67,11.182z"/>
	<path fill="#3D9DD8" d="M55.271,6.317c1.325,0,2.399,3.539,2.399,4.864s-1.074,2.4-2.399,2.4"/>
</g>
</svg>
