<?xml version="1.0" encoding="utf-8"?>
<!-- Generator: Adobe Illustrator 16.0.0, SVG Export Plug-In . SVG Version: 6.00 Build 0)  -->
<!DOCTYPE svg PUBLIC "-//W3C//DTD SVG 1.1//EN" "http://www.w3.org/Graphics/SVG/1.1/DTD/svg11.dtd">
<svg version="1.1" xmlns="http://www.w3.org/2000/svg" xmlns:xlink="http://www.w3.org/1999/xlink" x="0px" y="0px" width="65px"
	 height="65px" viewBox="0 0 65 65" enable-background="new 0 0 65 65" xml:space="preserve">
<g id="Layer_1">
	<g>
		<path fill="#445066" d="M44.836,20.652c0.622,0.621,0.622,1.628,0,2.249l0,0c-0.621,0.621-1.627,0.621-2.248,0L42.1,22.413
			c-0.622-0.622-0.622-1.629-0.001-2.249l0,0c0.62-0.621,1.628-0.621,2.249,0L44.836,20.652z"/>
		<path fill="#3E5260" d="M62.949,47.565c1.922,1.921,2.079,4.88,0.35,6.608L54.174,63.3c-1.729,1.729-4.688,1.571-6.607-0.35
			L2.051,17.434c-1.922-1.922-2.079-4.881-0.352-6.607l9.127-9.127c1.727-1.729,4.686-1.57,6.607,0.352L62.949,47.565z"/>
		<path fill="#324554" d="M1.699,10.826l9.127-9.127c1.727-1.729,4.686-1.57,6.607,0.352l45.516,45.515
			c1.922,1.921,2.079,4.88,0.35,6.608L54.174,63.3"/>
		<g>
			<g>
				<g>
					<g>
						<path fill="#142133" d="M3.02,13.678c-0.107,0.108-0.283,0.108-0.39,0l-0.783-0.782c-0.107-0.108-0.108-0.283,0-0.391
							c0.106-0.108,0.284-0.108,0.39,0l0.783,0.782C3.128,13.395,3.128,13.57,3.02,13.678z"/>
					</g>
					<g>
						<path fill="#142133" d="M14.58,25.238c-0.108,0.107-0.283,0.106-0.392,0l-1.445-1.445c-0.108-0.107-0.108-0.283,0-0.392
							c0.108-0.106,0.284-0.106,0.392,0l1.445,1.445C14.688,24.954,14.688,25.131,14.58,25.238z M11.69,22.349
							c-0.108,0.108-0.284,0.108-0.392,0l-1.445-1.446c-0.107-0.107-0.108-0.282,0-0.391c0.107-0.108,0.283-0.108,0.391,0
							l1.446,1.445C11.797,22.065,11.797,22.24,11.69,22.349z M8.799,19.459c-0.105,0.107-0.281,0.106-0.39,0l-1.445-1.446
							c-0.108-0.106-0.108-0.283,0-0.391c0.106-0.107,0.283-0.107,0.39,0l1.445,1.445C8.908,19.175,8.908,19.352,8.799,19.459z
							 M5.91,16.568c-0.107,0.108-0.284,0.108-0.391,0l-1.445-1.445c-0.107-0.107-0.108-0.283,0-0.391
							c0.106-0.107,0.284-0.107,0.391,0l1.445,1.445C6.018,16.285,6.018,16.461,5.91,16.568z"/>
					</g>
					<g>
						<path fill="#142133" d="M16.807,27.465c-0.108,0.107-0.283,0.107-0.392,0l-0.782-0.782c-0.105-0.108-0.107-0.283,0-0.392
							c0.107-0.107,0.284-0.107,0.392,0l0.782,0.782C16.914,27.182,16.913,27.356,16.807,27.465z"/>
					</g>
				</g>
				<g>
					<g>
						<path fill="#142133" d="M13.678,3.021c-0.107,0.108-0.284,0.107-0.391,0l-0.783-0.783c-0.107-0.107-0.107-0.283,0-0.391
							s0.283-0.107,0.391,0l0.783,0.783C13.785,2.736,13.785,2.912,13.678,3.021z"/>
					</g>
					<g>
						<path fill="#142133" d="M25.238,14.582c-0.108,0.105-0.285,0.105-0.392,0l-1.444-1.446c-0.108-0.108-0.108-0.284,0-0.392
							c0.106-0.107,0.281-0.107,0.391,0l1.445,1.445C25.345,14.297,25.345,14.473,25.238,14.582z M22.348,11.69
							c-0.107,0.107-0.283,0.107-0.392,0l-1.445-1.446c-0.108-0.106-0.108-0.282,0-0.391c0.108-0.107,0.284-0.107,0.392,0
							l1.445,1.445C22.455,11.407,22.455,11.584,22.348,11.69z M19.459,8.801c-0.108,0.107-0.284,0.107-0.391,0l-1.446-1.445
							c-0.108-0.107-0.108-0.284,0-0.391c0.106-0.108,0.283-0.108,0.391,0l1.446,1.445C19.565,8.518,19.565,8.693,19.459,8.801z
							 M16.568,5.91c-0.107,0.108-0.284,0.108-0.392,0l-1.445-1.445c-0.107-0.106-0.107-0.283,0-0.391s0.284-0.107,0.391,0
							l1.446,1.445C16.676,5.627,16.676,5.804,16.568,5.91z"/>
					</g>
					<g>
						<path fill="#142133" d="M27.464,16.807c-0.107,0.107-0.283,0.107-0.392,0l-0.782-0.782c-0.106-0.106-0.106-0.283,0-0.392
							c0.108-0.106,0.284-0.106,0.392,0l0.782,0.783C27.57,16.523,27.57,16.699,27.464,16.807z"/>
					</g>
				</g>
			</g>
			<g>
				<g>
					<g>
						<path fill="#142133" d="M38.71,49.367c-0.108,0.107-0.284,0.107-0.392,0l-0.782-0.782c-0.107-0.108-0.108-0.283-0.001-0.392
							c0.107-0.107,0.285-0.107,0.393,0l0.782,0.782C38.816,49.084,38.816,49.26,38.71,49.367z"/>
					</g>
					<g>
						<path fill="#142133" d="M50.268,60.927c-0.106,0.108-0.281,0.107-0.39,0l-1.446-1.445c-0.107-0.106-0.107-0.283,0-0.391
							c0.108-0.107,0.283-0.107,0.392,0l1.444,1.445C50.377,60.643,50.377,60.82,50.268,60.927z M47.379,58.037
							c-0.107,0.108-0.284,0.108-0.391,0l-1.445-1.445c-0.107-0.108-0.108-0.283,0-0.391c0.106-0.108,0.283-0.108,0.391,0
							l1.445,1.445C47.486,57.754,47.486,57.93,47.379,58.037z M44.489,55.147c-0.108,0.108-0.283,0.107-0.392,0l-1.445-1.445
							c-0.107-0.107-0.107-0.283,0-0.392c0.108-0.106,0.283-0.106,0.392,0l1.445,1.446C44.598,54.863,44.598,55.041,44.489,55.147z
							 M41.6,52.258c-0.108,0.107-0.284,0.107-0.392,0l-1.445-1.445c-0.106-0.108-0.107-0.283,0-0.392
							c0.106-0.107,0.284-0.107,0.392,0l1.445,1.445C41.706,51.975,41.706,52.149,41.6,52.258z"/>
					</g>
					<g>
						<path fill="#142133" d="M52.495,63.153c-0.108,0.108-0.283,0.108-0.392,0l-0.781-0.782c-0.107-0.107-0.108-0.282,0-0.391
							c0.106-0.108,0.284-0.108,0.391,0l0.782,0.782C52.604,62.871,52.603,63.046,52.495,63.153z"/>
					</g>
				</g>
				<g>
					<g>
						<path fill="#142133" d="M49.367,38.71c-0.108,0.107-0.285,0.106-0.392,0l-0.782-0.782c-0.107-0.108-0.107-0.284,0-0.393
							c0.107-0.106,0.283-0.106,0.392,0.001l0.782,0.782C49.474,38.426,49.475,38.602,49.367,38.71z"/>
					</g>
					<g>
						<path fill="#142133" d="M60.927,50.27c-0.106,0.107-0.284,0.107-0.391,0l-1.445-1.445c-0.108-0.107-0.108-0.283,0-0.391
							c0.106-0.108,0.283-0.108,0.391,0l1.445,1.445C61.033,49.985,61.033,50.162,60.927,50.27z M58.036,47.379
							c-0.106,0.108-0.283,0.108-0.391,0L56.2,45.934c-0.107-0.107-0.107-0.283,0-0.391s0.284-0.107,0.391,0l1.445,1.445
							C58.145,47.096,58.145,47.272,58.036,47.379z M55.147,44.49c-0.108,0.107-0.284,0.107-0.391,0l-1.446-1.445
							c-0.107-0.108-0.107-0.284,0-0.392s0.283-0.107,0.391,0l1.446,1.446C55.254,44.207,55.254,44.382,55.147,44.49z M52.257,41.6
							c-0.107,0.107-0.283,0.107-0.392,0l-1.445-1.445c-0.106-0.107-0.106-0.283,0-0.392c0.108-0.106,0.283-0.106,0.392,0
							l1.445,1.446C52.364,41.316,52.364,41.492,52.257,41.6z"/>
					</g>
					<g>
						<path fill="#142133" d="M63.152,52.495c-0.106,0.108-0.283,0.108-0.391,0l-0.782-0.782c-0.107-0.106-0.107-0.283,0-0.391
							c0.108-0.107,0.284-0.107,0.39,0l0.783,0.782C63.261,52.212,63.261,52.389,63.152,52.495z"/>
					</g>
				</g>
			</g>
		</g>
		<path fill="#324554" d="M43.548,21.451c6.104,6.102,6.104,15.996,0.002,22.098c-6.104,6.104-15.999,6.104-22.101,0
			c-6.101-6.102-6.101-15.996,0-22.098C27.551,15.35,37.446,15.35,43.548,21.451z"/>
		<path fill="#142133" d="M21.449,21.451c6.102-6.102,15.997-6.102,22.099,0c6.104,6.102,6.104,15.996,0.002,22.098"/>
		<circle fill="#142133" cx="32.5" cy="32.5" r="12.262"/>
		<path fill="#1B3049" d="M23.829,23.83c4.788-4.787,12.553-4.787,17.341,0c4.788,4.788,4.788,12.553,0,17.341"/>
		<path fill="#324554" d="M45.229,21.825c1.024,1.026,2.688,1.026,3.715,0l0,0c1.025-1.026,1.025-2.689,0-3.715l-2.054-2.054
			c-1.026-1.026-2.69-1.026-3.715,0l0,0c-1.026,1.027-1.026,2.689,0,3.716L45.229,21.825z"/>
		<path fill="#142133" d="M43.175,16.057L43.175,16.057c-1.026,1.027-1.026,2.689,0,3.716l2.054,2.053
			c1.024,1.026,2.688,1.026,3.715,0l0,0"/>
		<g>
			<g>
				<path fill="#6B7D96" d="M27.04,26.779c0.071,0.071,0.072,0.189,0,0.262l0,0c-0.071,0.071-0.188,0.071-0.262,0l-1.759-1.76
					c-0.072-0.072-0.072-0.189,0-0.262l0,0c0.071-0.071,0.188-0.072,0.262,0.001L27.04,26.779z"/>
				<path fill="#6B7D96" d="M39.98,39.72c0.07,0.071,0.07,0.188,0,0.26l0,0c-0.073,0.073-0.189,0.073-0.262,0.002l-1.759-1.76
					c-0.073-0.073-0.073-0.189,0-0.262l0,0c0.071-0.071,0.188-0.072,0.262,0.001L39.98,39.72z"/>
			</g>
			<g>
				<path fill="#6B7D96" d="M32.684,24.596c0,0.102-0.082,0.185-0.186,0.185l0,0c-0.1,0-0.184-0.083-0.184-0.185v-2.489
					c0.001-0.102,0.083-0.184,0.186-0.185l0,0c0.1,0.001,0.184,0.083,0.184,0.186V24.596z"/>
				<path fill="#6B7D96" d="M32.684,42.895c0,0.102-0.084,0.185-0.184,0.184l0,0c-0.103,0.001-0.185-0.082-0.186-0.184l0.001-2.488
					c-0.001-0.103,0.082-0.185,0.185-0.185l0,0c0.1,0,0.184,0.082,0.184,0.185V42.895z"/>
			</g>
			<g>
				<path fill="#6B7D96" d="M38.221,27.041c-0.073,0.072-0.19,0.072-0.263,0l0,0c-0.071-0.071-0.071-0.188,0-0.262l1.761-1.759
					c0.072-0.072,0.188-0.072,0.262-0.001l0,0c0.07,0.072,0.07,0.19-0.002,0.263L38.221,27.041z"/>
				<path fill="#6B7D96" d="M25.279,39.981c-0.071,0.071-0.188,0.071-0.26-0.002l0,0c-0.072-0.071-0.072-0.188-0.002-0.26
					l1.761-1.759c0.071-0.073,0.188-0.072,0.261,0l0,0c0.072,0.071,0.072,0.188,0,0.262L25.279,39.981z"/>
			</g>
			<g>
				<path fill="#6B7D96" d="M40.405,32.685c-0.104,0.001-0.187-0.082-0.187-0.185l0,0c0-0.101,0.084-0.183,0.184-0.185l2.49,0.001
					c0.103,0,0.185,0.083,0.186,0.184l0,0c-0.001,0.103-0.084,0.186-0.187,0.186L40.405,32.685z"/>
				<path fill="#6B7D96" d="M22.105,32.684c-0.104,0.001-0.186-0.081-0.184-0.184l0,0c-0.002-0.101,0.082-0.184,0.184-0.186
					l2.487,0.002c0.102-0.001,0.185,0.082,0.186,0.185l0,0c0,0.101-0.084,0.184-0.186,0.185L22.105,32.684z"/>
			</g>
		</g>
		<g>
			<g>
				<path fill="#142133" d="M12.274,9.832c0.438,0.437,0.438,1.144,0.003,1.58l-0.864,0.863c-0.438,0.437-1.146,0.438-1.582,0
					l-0.862-0.861c-0.437-0.438-0.437-1.146,0-1.582l0.864-0.864c0.437-0.437,1.143-0.435,1.58,0.002L12.274,9.832z"/>
				<path fill="#142133" d="M17.75,15.307c0.438,0.437,0.439,1.145,0.002,1.582l-0.862,0.862c-0.438,0.438-1.146,0.438-1.584,0.001
					l-0.86-0.862c-0.438-0.437-0.438-1.146,0-1.583l0.862-0.863c0.437-0.437,1.145-0.435,1.582,0.001L17.75,15.307z"/>
			</g>
			<g>
				<path fill="#142133" d="M50.555,48.111c0.438,0.437,0.439,1.145,0.002,1.582l-0.862,0.861c-0.438,0.438-1.146,0.438-1.583,0.002
					l-0.862-0.862c-0.438-0.437-0.438-1.146,0-1.583l0.863-0.863c0.437-0.437,1.145-0.436,1.582,0.002L50.555,48.111z"/>
				<path fill="#142133" d="M56.031,53.587c0.436,0.438,0.438,1.145,0.001,1.581l-0.863,0.863c-0.437,0.438-1.146,0.438-1.583,0
					l-0.861-0.861c-0.438-0.438-0.438-1.146,0.001-1.583l0.862-0.862c0.438-0.438,1.145-0.437,1.581,0.001L56.031,53.587z"/>
			</g>
		</g>
		<g>
			<polygon fill="#ED660A" points="32.498,29.95 40.899,32.501 32.498,35.051 24.1,32.501 			"/>
			<polyline fill="#EA2B0C" points="24.1,32.501 32.498,29.95 40.899,32.501 			"/>
		</g>
	</g>
</g>
<g id="nyt_x5F_exporter_x5F_info" display="none">
</g>
</svg>
