<?xml version="1.0" encoding="utf-8"?>
<!-- Generator: Adobe Illustrator 16.0.0, SVG Export Plug-In . SVG Version: 6.00 Build 0)  -->
<!DOCTYPE svg PUBLIC "-//W3C//DTD SVG 1.1//EN" "http://www.w3.org/Graphics/SVG/1.1/DTD/svg11.dtd">
<svg version="1.1" id="Layer_1" xmlns="http://www.w3.org/2000/svg" xmlns:xlink="http://www.w3.org/1999/xlink" x="0px" y="0px"
	 width="64px" height="64px" viewBox="0 0 64 64" enable-background="new 0 0 64 64" xml:space="preserve">
<g>
	<circle fill="#F7860B" cx="32" cy="30.3" r="22.9"/>
	<g>
		<g>
			<g>
				<path fill="#F7D74F" d="M27,38c0,0-6.2-15.4-9-15.8c-2.8-0.4-18.7,9.6-14.9,12.5c3.8,2.9,6.5-1.4,6.5-1.4s-4,4.5-0.7,6.1
					c3.3,1.6,4.3-3.2,4.3-3.2s-0.8,3.9,1.7,4.2c2.5,0.3,2.3-3.4,2.3-3.4s-0.3,1.6,1.4,1.9c1.8,0.4,5,0.3,5,0.3L27,38z"/>
				<g>
					<path fill="#FFEB97" d="M10.4,39.4c-2.5-1.2-0.9-3.9,0.1-5.3c-0.5,0.6-1.4,1.3-2.5,1.6c-0.6,1.3-0.7,2.8,0.9,3.6
						c0.7,0.3,1.3,0.4,1.8,0.2C10.6,39.5,10.5,39.5,10.4,39.4z"/>
					<path fill="#FFEB97" d="M4.6,34.8c-3.5-2.7,9.6-11.3,13.9-12.4c-0.2-0.1-0.4-0.2-0.6-0.2c-2.8-0.4-18.7,9.6-14.9,12.5
						c1.2,0.9,2.2,1.1,3.1,1C5.7,35.5,5.1,35.2,4.6,34.8z"/>
					<path fill="#FFEB97" d="M20.1,39c-1.1-0.2-1.4-0.9-1.4-1.4c0,0.3-0.1,0.8-0.2,1.2c0.1,0,0.1,0,0.1,0c0.6,0.1,1.4,0.2,2.2,0.2
						C20.6,39.1,20.3,39,20.1,39z"/>
					<path fill="#FFEB97" d="M14.7,36.3c0,0-0.3,1.7-1.4,2.7c0.2,0.7,0.7,1.2,1.6,1.3c0.3,0,0.6,0,0.9-0.1
						C14,39.4,14.7,36.3,14.7,36.3z"/>
				</g>
			</g>
			<g>
				<path fill="#F7D74F" d="M37,38c0,0,6.2-15.4,9-15.8c2.8-0.4,18.7,9.6,14.9,12.5c-3.8,2.9-6.5-1.4-6.5-1.4s4,4.5,0.7,6.1
					c-3.3,1.6-4.3-3.2-4.3-3.2s0.8,3.9-1.7,4.2c-2.5,0.3-2.3-3.4-2.3-3.4s0.3,1.6-1.4,1.9c-1.8,0.4-5,0.3-5,0.3L37,38z"/>
				<g>
					<path fill="#FFEB97" d="M53.6,39.4c2.5-1.2,0.9-3.9-0.1-5.3c0.5,0.6,1.4,1.3,2.5,1.6c0.6,1.3,0.7,2.8-0.9,3.6
						c-0.7,0.3-1.3,0.4-1.8,0.2C53.4,39.5,53.5,39.5,53.6,39.4z"/>
					<path fill="#FFEB97" d="M59.4,34.8c3.5-2.7-9.6-11.3-13.9-12.4c0.2-0.1,0.4-0.2,0.6-0.2c2.8-0.4,18.7,9.6,14.9,12.5
						c-1.2,0.9-2.2,1.1-3.1,1C58.3,35.5,58.9,35.2,59.4,34.8z"/>
					<path fill="#FFEB97" d="M43.9,39c1.1-0.2,1.4-0.9,1.4-1.4c0,0.3,0.1,0.8,0.2,1.2c-0.1,0-0.1,0-0.1,0c-0.6,0.1-1.4,0.2-2.2,0.2
						C43.4,39.1,43.7,39,43.9,39z"/>
					<path fill="#FFEB97" d="M49.3,36.3c0,0,0.4,1.7,1.4,2.7c-0.2,0.7-0.7,1.2-1.6,1.3c-0.3,0-0.6,0-0.9-0.1
						C50,39.4,49.3,36.3,49.3,36.3z"/>
				</g>
			</g>
		</g>
		<path fill="#1AB0D3" d="M48.2,63c-1-29-7.8-43-16.2-43c-8.3,0-15.2,14-16.2,43H48.2z"/>
		<path fill="#69CFE0" d="M32,20.2c-8.3,0-15.2,13.7-16.2,43"/>
		<path fill="#0F8BBC" d="M48.2,63c-1-29.3-7.8-42.8-16.2-42.8"/>
		<g>
			
				<rect x="30.6" y="37.7" transform="matrix(0.7068 -0.7075 0.7075 0.7068 -18.3064 34.1165)" fill="#FFEB97" width="2.8" height="2.8"/>
			
				<rect x="30.6" y="43.1" transform="matrix(0.7071 -0.7071 0.7071 0.7071 -22.0935 35.6615)" fill="#FFEB97" width="2.8" height="2.8"/>
			
				<rect x="30.6" y="48.5" transform="matrix(0.7071 -0.7071 0.7071 0.7071 -25.8818 37.2307)" fill="#FFEB97" width="2.8" height="2.8"/>
		</g>
		<path fill="#FFEB97" d="M41.2,16c0,6.9-4.1,11.2-9.2,11.2c-5.1,0-9.3-4.2-9.3-11.2c0-6.9,4.1-9.8,9.3-9.8
			C37.1,6.2,41.2,9.1,41.2,16z"/>
		<path fill="#F7D74F" d="M32,6.2c5.1,0,9.2,2.8,9.2,9.8c0,6.9-4.1,11.2-9.2,11.2"/>
		<ellipse fill="#F9A908" cx="32" cy="2.4" rx="9" ry="1.6"/>
		<path fill="#F7860B" d="M32,0.8c5,0,9,0.7,9,1.6C41,3.3,37,4,32,4"/>
	</g>
</g>
</svg>
