<?xml version="1.0" encoding="utf-8"?>
<!-- Generator: Adobe Illustrator 16.0.0, SVG Export Plug-In . SVG Version: 6.00 Build 0)  -->
<!DOCTYPE svg PUBLIC "-//W3C//DTD SVG 1.1//EN" "http://www.w3.org/Graphics/SVG/1.1/DTD/svg11.dtd">
<svg version="1.1" id="Layer_1" xmlns="http://www.w3.org/2000/svg" xmlns:xlink="http://www.w3.org/1999/xlink" x="0px" y="0px"
	 width="65px" height="65px" viewBox="0 0 65 65" enable-background="new 0 0 65 65" xml:space="preserve">
<g>
	<g>
		<g>
			<path fill="#4C6E7F" d="M62.575,64.5H2.425c-1.062,0-1.925-0.861-1.925-1.924V24.4c0-1.062,0.862-1.924,1.925-1.924h60.15
				c1.062,0,1.925,0.861,1.925,1.924v38.176C64.5,63.639,63.637,64.5,62.575,64.5z M4.35,60.65H60.65V26.326H4.35V60.65z"/>
		</g>
		<path fill="#405E70" d="M62.575,24.24H2.425c-1.062,0-1.925,0.861-1.925,1.925v36.411c0,1.062,0.862,1.924,1.925,1.924h60.15
			c1.062,0,1.925-0.861,1.925-1.924V26.165C64.5,25.102,63.637,24.24,62.575,24.24z M60.65,28.09V60.65v1.765H4.35V60.65V28.09
			v-1.764H60.65V28.09z"/>
	</g>
	<g>
		<g>
			<g>
				<path fill="#ABD3DD" d="M18.514,51.997c0,2.396-1.941,4.337-4.336,4.337h-1.355c-2.395,0-4.336-1.941-4.336-4.337V2.939
					c0-2.395,1.941-2.439,4.336-2.439h1.355c2.395,0,4.336,0.045,4.336,2.439V51.997z"/>
				<path fill="#8DC6D3" d="M12.822,0.5h1.355c2.395,0,4.336,0.045,4.336,2.439v49.058c0,2.396-1.941,4.337-4.336,4.337h-1.355"/>
				<path fill="#8DC6D3" d="M18.053,12.346l0.461-0.461V2.939c0-2.395-1.941-2.439-4.336-2.439h-1.355
					c-2.34,0-4.234,0.059-4.32,2.295L18.053,12.346z"/>
				<path fill="#C4E3E8" d="M20.275,1.584c0,0.598-0.484,1.084-1.084,1.084H7.809c-0.6,0-1.084-0.486-1.084-1.084l0,0
					c0-0.598,0.484-1.084,1.084-1.084h11.383C19.791,0.5,20.275,0.986,20.275,1.584L20.275,1.584z"/>
				<path fill="#ABD3DD" d="M20.275,1.584L20.275,1.584c0,0.598-0.484,1.084-1.084,1.084H7.809c-0.6,0-1.084-0.486-1.084-1.084l0,0"
					/>
				<g>
					<path fill="#C4E3E8" d="M13.951,7.391c0,0.15-0.121,0.271-0.27,0.271h-3.613c-0.15,0-0.271-0.12-0.271-0.271l0,0
						c0-0.15,0.121-0.271,0.271-0.271h3.613C13.83,7.119,13.951,7.24,13.951,7.391L13.951,7.391z"/>
					<path fill="#C4E3E8" d="M11.783,9.467c0,0.15-0.121,0.271-0.27,0.271h-1.445c-0.15,0-0.271-0.121-0.271-0.271l0,0
						c0-0.15,0.121-0.271,0.271-0.271h1.445C11.662,9.196,11.783,9.316,11.783,9.467L11.783,9.467z"/>
				</g>
				<g>
					<path fill="#C4E3E8" d="M13.951,11.455c0,0.15-0.121,0.271-0.27,0.271h-3.613c-0.15,0-0.271-0.121-0.271-0.271l0,0
						c0-0.15,0.121-0.271,0.271-0.271h3.613C13.83,11.185,13.951,11.305,13.951,11.455L13.951,11.455z"/>
					<path fill="#C4E3E8" d="M11.783,13.533c0,0.15-0.121,0.271-0.27,0.271h-1.445c-0.15,0-0.271-0.121-0.271-0.271l0,0
						c0-0.15,0.121-0.271,0.271-0.271h1.445C11.662,13.262,11.783,13.383,11.783,13.533L11.783,13.533z"/>
				</g>
				<g>
					<path fill="#C4E3E8" d="M13.951,15.521c0,0.15-0.121,0.271-0.27,0.271h-3.613c-0.15,0-0.271-0.121-0.271-0.271l0,0
						c0-0.15,0.121-0.271,0.271-0.271h3.613C13.83,15.25,13.951,15.371,13.951,15.521L13.951,15.521z"/>
					<path fill="#C4E3E8" d="M11.783,17.599c0,0.151-0.121,0.271-0.27,0.271h-1.445c-0.15,0-0.271-0.119-0.271-0.271l0,0
						c0-0.15,0.121-0.271,0.271-0.271h1.445C11.662,17.328,11.783,17.448,11.783,17.599L11.783,17.599z"/>
				</g>
				<g>
					<path fill="#C4E3E8" d="M13.951,19.587c0,0.15-0.121,0.271-0.27,0.271h-3.613c-0.15,0-0.271-0.12-0.271-0.271l0,0
						c0-0.15,0.121-0.271,0.271-0.271h3.613C13.83,19.316,13.951,19.437,13.951,19.587L13.951,19.587z"/>
					<path fill="#C4E3E8" d="M11.783,21.664c0,0.15-0.121,0.271-0.27,0.271h-1.445c-0.15,0-0.271-0.121-0.271-0.271l0,0
						c0-0.15,0.121-0.271,0.271-0.271h1.445C11.662,21.393,11.783,21.514,11.783,21.664L11.783,21.664z"/>
				</g>
				<g>
					<path fill="#C4E3E8" d="M13.951,23.652c0,0.15-0.121,0.271-0.27,0.271h-3.613c-0.15,0-0.271-0.121-0.271-0.271l0,0
						c0-0.15,0.121-0.271,0.271-0.271h3.613C13.83,23.381,13.951,23.502,13.951,23.652L13.951,23.652z"/>
					<path fill="#C4E3E8" d="M11.783,25.729c0,0.15-0.121,0.271-0.27,0.271h-1.445c-0.15,0-0.271-0.121-0.271-0.271l0,0
						c0-0.149,0.121-0.271,0.271-0.271h1.445C11.662,25.459,11.783,25.58,11.783,25.729L11.783,25.729z"/>
				</g>
				<g>
					<path fill="#C4E3E8" d="M13.951,27.719c0,0.149-0.121,0.271-0.27,0.271h-3.613c-0.15,0-0.271-0.121-0.271-0.271l0,0
						c0-0.15,0.121-0.271,0.271-0.271h3.613C13.83,27.447,13.951,27.568,13.951,27.719L13.951,27.719z"/>
					<path fill="#C4E3E8" d="M11.783,29.795c0,0.15-0.121,0.271-0.27,0.271h-1.445c-0.15,0-0.271-0.121-0.271-0.271l0,0
						c0-0.15,0.121-0.271,0.271-0.271h1.445C11.662,29.524,11.783,29.645,11.783,29.795L11.783,29.795z"/>
				</g>
				<g>
					<path fill="#C4E3E8" d="M13.951,31.783c0,0.15-0.121,0.271-0.27,0.271h-3.613c-0.15,0-0.271-0.121-0.271-0.271l0,0
						c0-0.15,0.121-0.271,0.271-0.271h3.613C13.83,31.513,13.951,31.633,13.951,31.783L13.951,31.783z"/>
					<path fill="#C4E3E8" d="M11.783,33.861c0,0.15-0.121,0.271-0.27,0.271h-1.445c-0.15,0-0.271-0.12-0.271-0.271l0,0
						c0-0.15,0.121-0.271,0.271-0.271h1.445C11.662,33.59,11.783,33.711,11.783,33.861L11.783,33.861z"/>
				</g>
				<g>
					<path fill="#C4E3E8" d="M13.951,35.85c0,0.15-0.121,0.271-0.27,0.271h-3.613c-0.15,0-0.271-0.12-0.271-0.271l0,0
						c0-0.15,0.121-0.271,0.271-0.271h3.613C13.83,35.578,13.951,35.699,13.951,35.85L13.951,35.85z"/>
					<path fill="#C4E3E8" d="M11.783,37.926c0,0.15-0.121,0.271-0.27,0.271h-1.445c-0.15,0-0.271-0.121-0.271-0.271l0,0
						c0-0.15,0.121-0.271,0.271-0.271h1.445C11.662,37.655,11.783,37.775,11.783,37.926L11.783,37.926z"/>
				</g>
				<g>
					<path fill="#C4E3E8" d="M13.951,39.914c0,0.15-0.121,0.271-0.27,0.271h-3.613c-0.15,0-0.271-0.121-0.271-0.271l0,0
						c0-0.149,0.121-0.271,0.271-0.271h3.613C13.83,39.644,13.951,39.765,13.951,39.914L13.951,39.914z"/>
					<path fill="#C4E3E8" d="M11.783,41.992c0,0.15-0.121,0.271-0.27,0.271h-1.445c-0.15,0-0.271-0.121-0.271-0.271l0,0
						c0-0.15,0.121-0.271,0.271-0.271h1.445C11.662,41.721,11.783,41.842,11.783,41.992L11.783,41.992z"/>
				</g>
				<g>
					<path fill="#C4E3E8" d="M13.951,43.98c0,0.15-0.121,0.271-0.27,0.271h-3.613c-0.15,0-0.271-0.121-0.271-0.271l0,0
						c0-0.15,0.121-0.271,0.271-0.271h3.613C13.83,43.709,13.951,43.83,13.951,43.98L13.951,43.98z"/>
					<path fill="#C4E3E8" d="M11.783,46.058c0,0.151-0.121,0.271-0.27,0.271h-1.445c-0.15,0-0.271-0.119-0.271-0.271l0,0
						c0-0.15,0.121-0.271,0.271-0.271h1.445C11.662,45.787,11.783,45.907,11.783,46.058L11.783,46.058z"/>
				</g>
				<g>
					<path fill="#C4E3E8" d="M13.951,48.046c0,0.15-0.121,0.271-0.27,0.271h-3.613c-0.15,0-0.271-0.12-0.271-0.271l0,0
						c0-0.15,0.121-0.271,0.271-0.271h3.613C13.83,47.775,13.951,47.896,13.951,48.046L13.951,48.046z"/>
					<path fill="#C4E3E8" d="M11.783,50.123c0,0.15-0.121,0.271-0.27,0.271h-1.445c-0.15,0-0.271-0.121-0.271-0.271l0,0
						c0-0.15,0.121-0.271,0.271-0.271h1.445C11.662,49.852,11.783,49.973,11.783,50.123L11.783,50.123z"/>
				</g>
			</g>
			<g>
				<path fill="#ABD3DD" d="M37.514,51.997c0,2.396-1.941,4.337-4.336,4.337h-1.355c-2.395,0-4.336-1.941-4.336-4.337V2.939
					c0-2.395,1.941-2.439,4.336-2.439h1.355c2.395,0,4.336,0.045,4.336,2.439V51.997z"/>
				<path fill="#8DC6D3" d="M31.822,0.5h1.355c2.395,0,4.336,0.045,4.336,2.439v49.058c0,2.396-1.941,4.337-4.336,4.337h-1.355"/>
				<path fill="#8DC6D3" d="M37.053,12.346l0.461-0.461V2.939c0-2.395-1.941-2.439-4.336-2.439h-1.355
					c-2.34,0-4.234,0.059-4.32,2.295L37.053,12.346z"/>
				<path fill="#C4E3E8" d="M39.275,1.584c0,0.598-0.484,1.084-1.084,1.084H26.809c-0.6,0-1.084-0.486-1.084-1.084l0,0
					c0-0.598,0.484-1.084,1.084-1.084h11.383C38.791,0.5,39.275,0.986,39.275,1.584L39.275,1.584z"/>
				<path fill="#ABD3DD" d="M39.275,1.584L39.275,1.584c0,0.598-0.484,1.084-1.084,1.084H26.809c-0.6,0-1.084-0.486-1.084-1.084l0,0
					"/>
				<g>
					<path fill="#C4E3E8" d="M32.951,7.391c0,0.15-0.121,0.271-0.27,0.271h-3.613c-0.15,0-0.271-0.12-0.271-0.271l0,0
						c0-0.15,0.121-0.271,0.271-0.271h3.613C32.83,7.119,32.951,7.24,32.951,7.391L32.951,7.391z"/>
					<path fill="#C4E3E8" d="M30.783,9.467c0,0.15-0.121,0.271-0.27,0.271h-1.445c-0.15,0-0.271-0.121-0.271-0.271l0,0
						c0-0.15,0.121-0.271,0.271-0.271h1.445C30.662,9.196,30.783,9.316,30.783,9.467L30.783,9.467z"/>
				</g>
				<g>
					<path fill="#C4E3E8" d="M32.951,11.455c0,0.15-0.121,0.271-0.27,0.271h-3.613c-0.15,0-0.271-0.121-0.271-0.271l0,0
						c0-0.15,0.121-0.271,0.271-0.271h3.613C32.83,11.185,32.951,11.305,32.951,11.455L32.951,11.455z"/>
					<path fill="#C4E3E8" d="M30.783,13.533c0,0.15-0.121,0.271-0.27,0.271h-1.445c-0.15,0-0.271-0.121-0.271-0.271l0,0
						c0-0.15,0.121-0.271,0.271-0.271h1.445C30.662,13.262,30.783,13.383,30.783,13.533L30.783,13.533z"/>
				</g>
				<g>
					<path fill="#C4E3E8" d="M32.951,15.521c0,0.15-0.121,0.271-0.27,0.271h-3.613c-0.15,0-0.271-0.121-0.271-0.271l0,0
						c0-0.15,0.121-0.271,0.271-0.271h3.613C32.83,15.25,32.951,15.371,32.951,15.521L32.951,15.521z"/>
					<path fill="#C4E3E8" d="M30.783,17.599c0,0.151-0.121,0.271-0.27,0.271h-1.445c-0.15,0-0.271-0.119-0.271-0.271l0,0
						c0-0.15,0.121-0.271,0.271-0.271h1.445C30.662,17.328,30.783,17.448,30.783,17.599L30.783,17.599z"/>
				</g>
				<g>
					<path fill="#C4E3E8" d="M32.951,19.587c0,0.15-0.121,0.271-0.27,0.271h-3.613c-0.15,0-0.271-0.12-0.271-0.271l0,0
						c0-0.15,0.121-0.271,0.271-0.271h3.613C32.83,19.316,32.951,19.437,32.951,19.587L32.951,19.587z"/>
					<path fill="#C4E3E8" d="M30.783,21.664c0,0.15-0.121,0.271-0.27,0.271h-1.445c-0.15,0-0.271-0.121-0.271-0.271l0,0
						c0-0.15,0.121-0.271,0.271-0.271h1.445C30.662,21.393,30.783,21.514,30.783,21.664L30.783,21.664z"/>
				</g>
				<g>
					<path fill="#C4E3E8" d="M32.951,23.652c0,0.15-0.121,0.271-0.27,0.271h-3.613c-0.15,0-0.271-0.121-0.271-0.271l0,0
						c0-0.15,0.121-0.271,0.271-0.271h3.613C32.83,23.381,32.951,23.502,32.951,23.652L32.951,23.652z"/>
					<path fill="#C4E3E8" d="M30.783,25.729c0,0.15-0.121,0.271-0.27,0.271h-1.445c-0.15,0-0.271-0.121-0.271-0.271l0,0
						c0-0.149,0.121-0.271,0.271-0.271h1.445C30.662,25.459,30.783,25.58,30.783,25.729L30.783,25.729z"/>
				</g>
				<g>
					<path fill="#C4E3E8" d="M32.951,27.719c0,0.149-0.121,0.271-0.27,0.271h-3.613c-0.15,0-0.271-0.121-0.271-0.271l0,0
						c0-0.15,0.121-0.271,0.271-0.271h3.613C32.83,27.447,32.951,27.568,32.951,27.719L32.951,27.719z"/>
					<path fill="#C4E3E8" d="M30.783,29.795c0,0.15-0.121,0.271-0.27,0.271h-1.445c-0.15,0-0.271-0.121-0.271-0.271l0,0
						c0-0.15,0.121-0.271,0.271-0.271h1.445C30.662,29.524,30.783,29.645,30.783,29.795L30.783,29.795z"/>
				</g>
				<g>
					<path fill="#C4E3E8" d="M32.951,31.783c0,0.15-0.121,0.271-0.27,0.271h-3.613c-0.15,0-0.271-0.121-0.271-0.271l0,0
						c0-0.15,0.121-0.271,0.271-0.271h3.613C32.83,31.513,32.951,31.633,32.951,31.783L32.951,31.783z"/>
					<path fill="#C4E3E8" d="M30.783,33.861c0,0.15-0.121,0.271-0.27,0.271h-1.445c-0.15,0-0.271-0.12-0.271-0.271l0,0
						c0-0.15,0.121-0.271,0.271-0.271h1.445C30.662,33.59,30.783,33.711,30.783,33.861L30.783,33.861z"/>
				</g>
				<g>
					<path fill="#C4E3E8" d="M32.951,35.85c0,0.15-0.121,0.271-0.27,0.271h-3.613c-0.15,0-0.271-0.12-0.271-0.271l0,0
						c0-0.15,0.121-0.271,0.271-0.271h3.613C32.83,35.578,32.951,35.699,32.951,35.85L32.951,35.85z"/>
					<path fill="#C4E3E8" d="M30.783,37.926c0,0.15-0.121,0.271-0.27,0.271h-1.445c-0.15,0-0.271-0.121-0.271-0.271l0,0
						c0-0.15,0.121-0.271,0.271-0.271h1.445C30.662,37.655,30.783,37.775,30.783,37.926L30.783,37.926z"/>
				</g>
				<g>
					<path fill="#C4E3E8" d="M32.951,39.914c0,0.15-0.121,0.271-0.27,0.271h-3.613c-0.15,0-0.271-0.121-0.271-0.271l0,0
						c0-0.149,0.121-0.271,0.271-0.271h3.613C32.83,39.644,32.951,39.765,32.951,39.914L32.951,39.914z"/>
					<path fill="#C4E3E8" d="M30.783,41.992c0,0.15-0.121,0.271-0.27,0.271h-1.445c-0.15,0-0.271-0.121-0.271-0.271l0,0
						c0-0.15,0.121-0.271,0.271-0.271h1.445C30.662,41.721,30.783,41.842,30.783,41.992L30.783,41.992z"/>
				</g>
				<g>
					<path fill="#C4E3E8" d="M32.951,43.98c0,0.15-0.121,0.271-0.27,0.271h-3.613c-0.15,0-0.271-0.121-0.271-0.271l0,0
						c0-0.15,0.121-0.271,0.271-0.271h3.613C32.83,43.709,32.951,43.83,32.951,43.98L32.951,43.98z"/>
					<path fill="#C4E3E8" d="M30.783,46.058c0,0.151-0.121,0.271-0.27,0.271h-1.445c-0.15,0-0.271-0.119-0.271-0.271l0,0
						c0-0.15,0.121-0.271,0.271-0.271h1.445C30.662,45.787,30.783,45.907,30.783,46.058L30.783,46.058z"/>
				</g>
				<g>
					<path fill="#C4E3E8" d="M32.951,48.046c0,0.15-0.121,0.271-0.27,0.271h-3.613c-0.15,0-0.271-0.12-0.271-0.271l0,0
						c0-0.15,0.121-0.271,0.271-0.271h3.613C32.83,47.775,32.951,47.896,32.951,48.046L32.951,48.046z"/>
					<path fill="#C4E3E8" d="M30.783,50.123c0,0.15-0.121,0.271-0.27,0.271h-1.445c-0.15,0-0.271-0.121-0.271-0.271l0,0
						c0-0.15,0.121-0.271,0.271-0.271h1.445C30.662,49.852,30.783,49.973,30.783,50.123L30.783,50.123z"/>
				</g>
			</g>
			<g>
				<path fill="#ABD3DD" d="M56.514,51.997c0,2.396-1.941,4.337-4.336,4.337h-1.355c-2.395,0-4.336-1.941-4.336-4.337V2.939
					c0-2.395,1.941-2.439,4.336-2.439h1.355c2.395,0,4.336,0.045,4.336,2.439V51.997z"/>
				<path fill="#8DC6D3" d="M50.822,0.5h1.355c2.395,0,4.336,0.045,4.336,2.439v49.058c0,2.396-1.941,4.337-4.336,4.337h-1.355"/>
				<path fill="#8DC6D3" d="M56.053,12.346l0.461-0.461V2.939c0-2.395-1.941-2.439-4.336-2.439h-1.355
					c-2.34,0-4.234,0.059-4.32,2.295L56.053,12.346z"/>
				<path fill="#C4E3E8" d="M58.275,1.584c0,0.598-0.484,1.084-1.084,1.084H45.809c-0.6,0-1.084-0.486-1.084-1.084l0,0
					c0-0.598,0.484-1.084,1.084-1.084h11.383C57.791,0.5,58.275,0.986,58.275,1.584L58.275,1.584z"/>
				<path fill="#ABD3DD" d="M58.275,1.584L58.275,1.584c0,0.598-0.484,1.084-1.084,1.084H45.809c-0.6,0-1.084-0.486-1.084-1.084l0,0
					"/>
				<g>
					<path fill="#C4E3E8" d="M51.951,7.391c0,0.15-0.121,0.271-0.27,0.271h-3.613c-0.15,0-0.271-0.12-0.271-0.271l0,0
						c0-0.15,0.121-0.271,0.271-0.271h3.613C51.83,7.119,51.951,7.24,51.951,7.391L51.951,7.391z"/>
					<path fill="#C4E3E8" d="M49.783,9.467c0,0.15-0.121,0.271-0.27,0.271h-1.445c-0.15,0-0.271-0.121-0.271-0.271l0,0
						c0-0.15,0.121-0.271,0.271-0.271h1.445C49.662,9.196,49.783,9.316,49.783,9.467L49.783,9.467z"/>
				</g>
				<g>
					<path fill="#C4E3E8" d="M51.951,11.455c0,0.15-0.121,0.271-0.27,0.271h-3.613c-0.15,0-0.271-0.121-0.271-0.271l0,0
						c0-0.15,0.121-0.271,0.271-0.271h3.613C51.83,11.185,51.951,11.305,51.951,11.455L51.951,11.455z"/>
					<path fill="#C4E3E8" d="M49.783,13.533c0,0.15-0.121,0.271-0.27,0.271h-1.445c-0.15,0-0.271-0.121-0.271-0.271l0,0
						c0-0.15,0.121-0.271,0.271-0.271h1.445C49.662,13.262,49.783,13.383,49.783,13.533L49.783,13.533z"/>
				</g>
				<g>
					<path fill="#C4E3E8" d="M51.951,15.521c0,0.15-0.121,0.271-0.27,0.271h-3.613c-0.15,0-0.271-0.121-0.271-0.271l0,0
						c0-0.15,0.121-0.271,0.271-0.271h3.613C51.83,15.25,51.951,15.371,51.951,15.521L51.951,15.521z"/>
					<path fill="#C4E3E8" d="M49.783,17.599c0,0.151-0.121,0.271-0.27,0.271h-1.445c-0.15,0-0.271-0.119-0.271-0.271l0,0
						c0-0.15,0.121-0.271,0.271-0.271h1.445C49.662,17.328,49.783,17.448,49.783,17.599L49.783,17.599z"/>
				</g>
				<g>
					<path fill="#C4E3E8" d="M51.951,19.587c0,0.15-0.121,0.271-0.27,0.271h-3.613c-0.15,0-0.271-0.12-0.271-0.271l0,0
						c0-0.15,0.121-0.271,0.271-0.271h3.613C51.83,19.316,51.951,19.437,51.951,19.587L51.951,19.587z"/>
					<path fill="#C4E3E8" d="M49.783,21.664c0,0.15-0.121,0.271-0.27,0.271h-1.445c-0.15,0-0.271-0.121-0.271-0.271l0,0
						c0-0.15,0.121-0.271,0.271-0.271h1.445C49.662,21.393,49.783,21.514,49.783,21.664L49.783,21.664z"/>
				</g>
				<g>
					<path fill="#C4E3E8" d="M51.951,23.652c0,0.15-0.121,0.271-0.27,0.271h-3.613c-0.15,0-0.271-0.121-0.271-0.271l0,0
						c0-0.15,0.121-0.271,0.271-0.271h3.613C51.83,23.381,51.951,23.502,51.951,23.652L51.951,23.652z"/>
					<path fill="#C4E3E8" d="M49.783,25.729c0,0.15-0.121,0.271-0.27,0.271h-1.445c-0.15,0-0.271-0.121-0.271-0.271l0,0
						c0-0.149,0.121-0.271,0.271-0.271h1.445C49.662,25.459,49.783,25.58,49.783,25.729L49.783,25.729z"/>
				</g>
				<g>
					<path fill="#C4E3E8" d="M51.951,27.719c0,0.149-0.121,0.271-0.27,0.271h-3.613c-0.15,0-0.271-0.121-0.271-0.271l0,0
						c0-0.15,0.121-0.271,0.271-0.271h3.613C51.83,27.447,51.951,27.568,51.951,27.719L51.951,27.719z"/>
					<path fill="#C4E3E8" d="M49.783,29.795c0,0.15-0.121,0.271-0.27,0.271h-1.445c-0.15,0-0.271-0.121-0.271-0.271l0,0
						c0-0.15,0.121-0.271,0.271-0.271h1.445C49.662,29.524,49.783,29.645,49.783,29.795L49.783,29.795z"/>
				</g>
				<g>
					<path fill="#C4E3E8" d="M51.951,31.783c0,0.15-0.121,0.271-0.27,0.271h-3.613c-0.15,0-0.271-0.121-0.271-0.271l0,0
						c0-0.15,0.121-0.271,0.271-0.271h3.613C51.83,31.513,51.951,31.633,51.951,31.783L51.951,31.783z"/>
					<path fill="#C4E3E8" d="M49.783,33.861c0,0.15-0.121,0.271-0.27,0.271h-1.445c-0.15,0-0.271-0.12-0.271-0.271l0,0
						c0-0.15,0.121-0.271,0.271-0.271h1.445C49.662,33.59,49.783,33.711,49.783,33.861L49.783,33.861z"/>
				</g>
				<g>
					<path fill="#C4E3E8" d="M51.951,35.85c0,0.15-0.121,0.271-0.27,0.271h-3.613c-0.15,0-0.271-0.12-0.271-0.271l0,0
						c0-0.15,0.121-0.271,0.271-0.271h3.613C51.83,35.578,51.951,35.699,51.951,35.85L51.951,35.85z"/>
					<path fill="#C4E3E8" d="M49.783,37.926c0,0.15-0.121,0.271-0.27,0.271h-1.445c-0.15,0-0.271-0.121-0.271-0.271l0,0
						c0-0.15,0.121-0.271,0.271-0.271h1.445C49.662,37.655,49.783,37.775,49.783,37.926L49.783,37.926z"/>
				</g>
				<g>
					<path fill="#C4E3E8" d="M51.951,39.914c0,0.15-0.121,0.271-0.27,0.271h-3.613c-0.15,0-0.271-0.121-0.271-0.271l0,0
						c0-0.149,0.121-0.271,0.271-0.271h3.613C51.83,39.644,51.951,39.765,51.951,39.914L51.951,39.914z"/>
					<path fill="#C4E3E8" d="M49.783,41.992c0,0.15-0.121,0.271-0.27,0.271h-1.445c-0.15,0-0.271-0.121-0.271-0.271l0,0
						c0-0.15,0.121-0.271,0.271-0.271h1.445C49.662,41.721,49.783,41.842,49.783,41.992L49.783,41.992z"/>
				</g>
				<g>
					<path fill="#C4E3E8" d="M51.951,43.98c0,0.15-0.121,0.271-0.27,0.271h-3.613c-0.15,0-0.271-0.121-0.271-0.271l0,0
						c0-0.15,0.121-0.271,0.271-0.271h3.613C51.83,43.709,51.951,43.83,51.951,43.98L51.951,43.98z"/>
					<path fill="#C4E3E8" d="M49.783,46.058c0,0.151-0.121,0.271-0.27,0.271h-1.445c-0.15,0-0.271-0.119-0.271-0.271l0,0
						c0-0.15,0.121-0.271,0.271-0.271h1.445C49.662,45.787,49.783,45.907,49.783,46.058L49.783,46.058z"/>
				</g>
				<g>
					<path fill="#C4E3E8" d="M51.951,48.046c0,0.15-0.121,0.271-0.27,0.271h-3.613c-0.15,0-0.271-0.12-0.271-0.271l0,0
						c0-0.15,0.121-0.271,0.271-0.271h3.613C51.83,47.775,51.951,47.896,51.951,48.046L51.951,48.046z"/>
					<path fill="#C4E3E8" d="M49.783,50.123c0,0.15-0.121,0.271-0.27,0.271h-1.445c-0.15,0-0.271-0.121-0.271-0.271l0,0
						c0-0.15,0.121-0.271,0.271-0.271h1.445C49.662,49.852,49.783,49.973,49.783,50.123L49.783,50.123z"/>
				</g>
			</g>
		</g>
		<g>
			<g>
				<path fill="#4C6E7F" d="M21,24.334c0,1.656-1.343,3-3,3H9.5c-1.657,0-3-1.344-3-3l0,0c0-1.658,1.343-3,3-3H18
					C19.657,21.334,21,22.676,21,24.334L21,24.334z"/>
				<path fill="#557E8E" d="M6.5,24.334L6.5,24.334c0-1.658,1.343-3,3-3H18c1.657,0,3,1.342,3,3l0,0"/>
			</g>
			<g>
				<path fill="#4C6E7F" d="M39.75,24.334c0,1.656-1.343,3-3,3h-8.5c-1.657,0-3-1.344-3-3l0,0c0-1.658,1.343-3,3-3h8.5
					C38.407,21.334,39.75,22.676,39.75,24.334L39.75,24.334z"/>
				<path fill="#557E8E" d="M25.25,24.334L25.25,24.334c0-1.658,1.343-3,3-3h8.5c1.657,0,3,1.342,3,3l0,0"/>
			</g>
			<g>
				<path fill="#4C6E7F" d="M58.5,24.334c0,1.656-1.343,3-3,3H47c-1.657,0-3-1.344-3-3l0,0c0-1.658,1.343-3,3-3h8.5
					C57.157,21.334,58.5,22.676,58.5,24.334L58.5,24.334z"/>
				<path fill="#557E8E" d="M44,24.334L44,24.334c0-1.658,1.343-3,3-3h8.5c1.657,0,3,1.342,3,3l0,0"/>
			</g>
		</g>
	</g>
</g>
</svg>
