<?xml version="1.0" encoding="utf-8"?>
<!-- Generator: Adobe Illustrator 16.0.0, SVG Export Plug-In . SVG Version: 6.00 Build 0)  -->
<!DOCTYPE svg PUBLIC "-//W3C//DTD SVG 1.1//EN" "http://www.w3.org/Graphics/SVG/1.1/DTD/svg11.dtd">
<svg version="1.1" id="Layer_1" xmlns="http://www.w3.org/2000/svg" xmlns:xlink="http://www.w3.org/1999/xlink" x="0px" y="0px"
	 width="65px" height="65px" viewBox="0 0 65 65" enable-background="new 0 0 65 65" xml:space="preserve">
<g>
	<g>
		<g>
			<g>
				<g>
					<path fill="#0C0A07" d="M29.473,46.446c0,2.476-2.008,15.827-4.486,15.827c-2.475,0-4.482-13.352-4.482-15.827
						s2.008-4.484,4.482-4.484C27.465,41.962,29.473,43.971,29.473,46.446z"/>
					<path fill="#0C0A07" d="M44.498,46.446c0,2.476-2.008,15.827-4.486,15.827c-2.475,0-4.482-13.352-4.482-15.827
						s2.008-4.484,4.482-4.484C42.49,41.962,44.498,43.971,44.498,46.446z"/>
				</g>
				<path fill="#262626" d="M45.15,40.521c0,16.038-5.662,10.697-12.65,10.697c-6.986,0-12.65,5.341-12.65-10.697
					c0-9.17,5.666-16.603,12.65-16.603C39.486,23.919,45.15,31.352,45.15,40.521z"/>
				<g>
					<path fill="#B7530F" d="M30.033,62.354c0,1.896-2.26,2.146-5.045,2.146s-5.045-0.249-5.045-2.146
						c0-1.897,2.26-4.508,5.045-4.508S30.033,60.457,30.033,62.354z"/>
					<path fill="#9B4308" d="M30.033,62.354c0,1.896-2.26,2.146-5.045,2.146s-5.045-0.249-5.045-2.146"/>
				</g>
				<g>
					<path fill="#B7530F" d="M45.059,62.354c0,1.896-2.26,2.146-5.045,2.146s-5.045-0.249-5.045-2.146
						c0-1.897,2.26-4.508,5.045-4.508S45.059,60.457,45.059,62.354z"/>
					<path fill="#9B4308" d="M45.059,62.354c0,1.896-2.26,2.146-5.045,2.146s-5.045-0.249-5.045-2.146"/>
				</g>
				<g>
					<path fill="#262626" d="M31.105,26.369c1.273,1.432,0.465,4.228-1.805,6.249c-2.27,2.018-14.475,10.794-15.75,9.365
						c-1.271-1.434,8.873-12.532,11.143-14.55C26.961,25.415,29.832,24.938,31.105,26.369z"/>
					<path fill="#262626" d="M33.895,26.369c-1.273,1.432-0.465,4.228,1.805,6.249c2.27,2.018,14.475,10.794,15.75,9.365
						c1.271-1.434-8.873-12.532-11.143-14.55C38.039,25.415,35.168,24.938,33.895,26.369z"/>
				</g>
				<path fill="#FFFCF5" d="M29.875,30.165c0.857,0.079,1.73,0.13,2.627,0.13c0.895,0,1.768-0.051,2.623-0.13v-4.332h-5.25V30.165z"
					/>
				<g>
					<path fill="#F9C1AC" d="M48.871,16.275c0,7.999-7.33,12.02-16.369,12.02c-9.041,0-16.373-4.021-16.373-12.02
						c0-8.001,7.332-15.775,16.373-15.775C41.541,0.5,48.871,8.274,48.871,16.275z"/>
					<path fill="#F2B09C" d="M48.871,16.275c0,7.999-7.33,12.02-16.369,12.02c-9.041,0-16.373-4.021-16.373-12.02"/>
				</g>
				<g>
					<g>
						<circle fill="#113E49" cx="24.716" cy="17.82" r="1.464"/>
						<path d="M26.18,17.82c0,0.811-0.656,1.465-1.465,1.465s-1.463-0.654-1.463-1.465"/>
						<g>
							<path fill="#FFD3C5" d="M27.604,20.874c-0.078,0-0.158-0.028-0.219-0.091c-0.715-0.714-1.664-1.107-2.672-1.107h-0.002
								c-1.008,0-1.955,0.394-2.666,1.106c-0.121,0.121-0.316,0.124-0.436,0.001c-0.121-0.117-0.125-0.312-0.004-0.434
								c0.83-0.831,1.932-1.29,3.105-1.29h0.002c1.176,0,2.279,0.456,3.111,1.288c0.119,0.119,0.119,0.318,0,0.436
								C27.764,20.846,27.686,20.874,27.604,20.874z"/>
						</g>
					</g>
					<g>
						<circle fill="#113E49" cx="40.286" cy="17.82" r="1.464"/>
						<path d="M38.822,17.82c0,0.811,0.654,1.465,1.465,1.465c0.809,0,1.463-0.654,1.463-1.465"/>
						<g>
							<path fill="#FFD3C5" d="M37.398,20.874c0.076,0,0.156-0.028,0.217-0.091c0.715-0.714,1.664-1.107,2.672-1.107h0.002
								c1.008,0,1.957,0.394,2.668,1.106c0.119,0.121,0.314,0.124,0.436,0.001c0.121-0.117,0.123-0.312,0.002-0.434
								c-0.826-0.831-1.932-1.29-3.105-1.29h-0.002c-1.174,0-2.277,0.456-3.111,1.288c-0.117,0.119-0.117,0.318,0,0.436
								C37.238,20.846,37.316,20.874,37.398,20.874z"/>
						</g>
					</g>
				</g>
			</g>
			<path fill="#A54B08" d="M32.502,0.5c-0.227,0-0.445,0.026-0.669,0.036c-0.114,0.15-0.208,0.31-0.265,0.484
				c-0.774,2.388,4.188,6.139,11.084,8.372c1.738,0.563,3.434,0.976,5.01,1.241C45.227,4.979,39.361,0.5,32.502,0.5z"/>
			<path fill="#BC5806" d="M39.791,2.294C37.594,1.169,35.123,0.5,32.502,0.5c-6.9,0-12.793,4.532-15.203,10.233
				c2.581,0.587,6.879,0.152,11.488-1.341C34.551,7.525,38.952,4.599,39.791,2.294z"/>
			<path fill="#AA1111" d="M34.084,21.485c0,0.57-0.711,1.035-1.584,1.035c-0.874,0-1.583-0.465-1.583-1.035
				c0-0.573,0.709-0.23,1.583-0.23C33.373,21.255,34.084,20.912,34.084,21.485z"/>
			<path fill="#D62B2B" d="M31.201,22.075c0.285,0.269,0.761,0.445,1.299,0.445c0.537,0,1.013-0.177,1.299-0.445
				c-0.286-0.27-0.762-0.446-1.299-0.446C31.962,21.629,31.486,21.806,31.201,22.075z"/>
		</g>
		<g>
			<g>
				<circle fill="#6BCDDD" cx="24.747" cy="19.11" r="4.337"/>
				<path fill="#426877" d="M24.748,24.402c-2.92,0-5.293-2.373-5.293-5.292c0-2.918,2.373-5.291,5.293-5.291
					c2.916,0,5.291,2.373,5.291,5.291C30.039,22.029,27.664,24.402,24.748,24.402z M24.748,15.73c-1.865,0-3.381,1.517-3.381,3.38
					s1.516,3.38,3.381,3.38c1.863,0,3.381-1.517,3.381-3.38S26.611,15.73,24.748,15.73z"/>
			</g>
			<g>
				<circle fill="#6BCDDD" cx="40.253" cy="19.11" r="4.335"/>
				<path fill="#426877" d="M40.254,24.402c-2.918,0-5.293-2.373-5.293-5.292c0-2.918,2.375-5.291,5.293-5.291
					c2.92,0,5.291,2.373,5.291,5.291C45.545,22.029,43.174,24.402,40.254,24.402z M40.254,15.73c-1.863,0-3.381,1.517-3.381,3.38
					s1.518,3.38,3.381,3.38c1.865,0,3.379-1.517,3.379-3.38S42.119,15.73,40.254,15.73z"/>
			</g>
			<g>
				<line fill="#6BCDDD" x1="36.254" y1="19.11" x2="29.084" y2="19.11"/>
				<rect x="29.084" y="18.154" fill="#426877" width="7.17" height="1.912"/>
			</g>
		</g>
	</g>
	<g>
		<circle fill="#C6BFAF" cx="32.5" cy="36.665" r="0.666"/>
		<circle fill="#C6BFAF" cx="32.5" cy="39.458" r="0.666"/>
		<circle fill="#C6BFAF" cx="32.5" cy="42.251" r="0.666"/>
		<circle fill="#C6BFAF" cx="32.5" cy="45.044" r="0.666"/>
	</g>
	<g>
		<rect x="31.656" y="29.271" fill="#F7A603" width="1.688" height="4.688"/>
		<rect x="30.625" y="30.208" fill="#F7A603" width="3.75" height="1.688"/>
	</g>
</g>
</svg>
