<?xml version="1.0" encoding="utf-8"?>
<!-- Generator: Adobe Illustrator 16.0.0, SVG Export Plug-In . SVG Version: 6.00 Build 0)  -->
<!DOCTYPE svg PUBLIC "-//W3C//DTD SVG 1.1//EN" "http://www.w3.org/Graphics/SVG/1.1/DTD/svg11.dtd">
<svg version="1.1" id="Layer_1" xmlns="http://www.w3.org/2000/svg" xmlns:xlink="http://www.w3.org/1999/xlink" x="0px" y="0px"
	 width="65px" height="65px" viewBox="0 0 65 65" enable-background="new 0 0 65 65" xml:space="preserve">
<g>
	<g>
		<g>
			<g>
				<path fill="#094168" d="M34.612,46.446c0,2.476-2.008,15.827-4.486,15.827c-2.475,0-4.482-13.352-4.482-15.827
					s2.008-4.484,4.482-4.484C32.604,41.962,34.612,43.971,34.612,46.446z"/>
				<path fill="#094168" d="M49.638,46.446c0,2.476-2.008,15.827-4.486,15.827c-2.475,0-4.482-13.352-4.482-15.827
					s2.008-4.484,4.482-4.484C47.63,41.962,49.638,43.971,49.638,46.446z"/>
			</g>
			<path fill="#0F4F84" d="M50.29,40.521c0,16.038-5.662,10.697-12.65,10.697c-6.986,0-12.65,5.341-12.65-10.697
				c0-9.17,5.666-16.603,12.65-16.603C44.626,23.919,50.29,31.352,50.29,40.521z"/>
			<g>
				<path fill="#9B5013" d="M35.173,62.354c0,1.896-2.26,2.146-5.045,2.146s-5.045-0.249-5.045-2.146
					c0-1.897,2.26-4.508,5.045-4.508S35.173,60.457,35.173,62.354z"/>
				<path fill="#7C4412" d="M35.173,62.354c0,1.896-2.26,2.146-5.045,2.146s-5.045-0.249-5.045-2.146"/>
			</g>
			<g>
				<path fill="#9B5013" d="M50.198,62.354c0,1.896-2.26,2.146-5.045,2.146s-5.045-0.249-5.045-2.146
					c0-1.897,2.26-4.508,5.045-4.508S50.198,60.457,50.198,62.354z"/>
				<path fill="#7C4412" d="M50.198,62.354c0,1.896-2.26,2.146-5.045,2.146s-5.045-0.249-5.045-2.146"/>
			</g>
			<g>
				<path fill="#0F4F84" d="M36.245,26.369c1.273,1.432,0.465,4.228-1.805,6.249c-2.27,2.018-14.475,10.794-15.75,9.365
					c-1.271-1.434,8.873-12.532,11.143-14.55C32.101,25.415,34.972,24.938,36.245,26.369z"/>
				<path fill="#0F4F84" d="M39.034,26.369c-1.273,1.432-0.465,4.228,1.805,6.249c2.27,2.018,14.475,10.794,15.75,9.365
					c1.271-1.434-8.873-12.532-11.143-14.55C43.179,25.415,40.308,24.938,39.034,26.369z"/>
			</g>
			<rect x="35.015" y="25.833" fill="#E2DED3" width="5.25" height="17.917"/>
			<path fill="#C6BFAF" d="M35.015,30.165c0.857,0.079,1.73,0.13,2.627,0.13c0.895,0,1.768-0.051,2.623-0.13v-4.332h-5.25V30.165z"
				/>
			<polygon fill="#9B5013" points="38.417,28.249 39.718,41.438 37.64,42.948 35.562,41.438 36.863,28.249 			"/>
			<polyline fill="#7C4412" points="36.863,28.249 38.417,28.249 39.718,41.438 37.64,42.948 			"/>
			<g>
				<path fill="#F9C1AC" d="M54.011,16.275c0,7.999-7.33,12.02-16.369,12.02c-9.041,0-16.373-4.021-16.373-12.02
					c0-8.001,7.332-15.775,16.373-15.775C46.681,0.5,54.011,8.274,54.011,16.275z"/>
				<path fill="#F2B09C" d="M54.011,16.275c0,7.999-7.33,12.02-16.369,12.02c-9.041,0-16.373-4.021-16.373-12.02"/>
			</g>
			<g>
				<g>
					<circle fill="#113E49" cx="29.855" cy="13.695" r="1.464"/>
					<path d="M31.319,13.695c0,0.811-0.656,1.465-1.465,1.465s-1.463-0.654-1.463-1.465"/>
					<g>
						<path fill="#FFD3C5" d="M32.743,16.749c-0.078,0-0.158-0.028-0.219-0.091c-0.715-0.714-1.664-1.107-2.672-1.107h-0.002
							c-1.008,0-1.955,0.394-2.666,1.106c-0.121,0.121-0.316,0.124-0.436,0.001c-0.121-0.117-0.125-0.312-0.004-0.434
							c0.83-0.831,1.932-1.29,3.105-1.29h0.002c1.176,0,2.279,0.456,3.111,1.288c0.119,0.119,0.119,0.318,0,0.436
							C32.903,16.721,32.825,16.749,32.743,16.749z"/>
					</g>
				</g>
				<g>
					<circle fill="#113E49" cx="45.426" cy="13.695" r="1.464"/>
					<path d="M43.962,13.695c0,0.811,0.654,1.465,1.465,1.465c0.809,0,1.463-0.654,1.463-1.465"/>
					<g>
						<path fill="#FFD3C5" d="M42.538,16.749c0.076,0,0.156-0.028,0.217-0.091c0.715-0.714,1.664-1.107,2.672-1.107h0.002
							c1.008,0,1.957,0.394,2.668,1.106c0.119,0.121,0.314,0.124,0.436,0.001c0.121-0.117,0.123-0.312,0.002-0.434
							c-0.826-0.831-1.932-1.29-3.105-1.29h-0.002c-1.174,0-2.277,0.456-3.111,1.288c-0.117,0.119-0.117,0.318,0,0.436
							C42.378,16.721,42.456,16.749,42.538,16.749z"/>
					</g>
				</g>
			</g>
		</g>
		<path fill="#8D97A0" d="M40.29,45.626c0,0.667-0.541,1.208-1.209,1.208h-2.832c-0.668,0-1.209-0.541-1.209-1.208l0,0
			c0-0.668,0.541-1.209,1.209-1.209h2.832C39.749,44.417,40.29,44.958,40.29,45.626L40.29,45.626z"/>
		<path fill="#A7B1B7" d="M39.081,44.417h-2.832c-0.552,0-0.998,0.376-1.143,0.881c0.145,0.504,0.591,0.88,1.143,0.88h2.832
			c0.552,0,0.998-0.376,1.143-0.88C40.079,44.793,39.633,44.417,39.081,44.417z"/>
		<path fill="#E2DED3" d="M45.707,34.334c0,0.185-0.149,0.333-0.333,0.333h-3.25c-0.184,0-0.332-0.148-0.332-0.333l0,0
			c0-0.185,0.148-0.333,0.332-0.333h3.25C45.558,34.001,45.707,34.149,45.707,34.334L45.707,34.334z"/>
		<circle fill="#B20F0F" cx="40.624" cy="18.521" r="1.125"/>
	</g>
	<polygon fill="#E2DED3" points="42.124,34.001 43.281,32.844 44.073,33.636 44.501,33.209 45.427,34.136 42.521,34.136 	"/>
	<path fill="#A7B1B7" d="M53.646,13.187C52.071,6.387,45.507,0.5,37.642,0.5c-8.239,0-15.04,6.46-16.185,13.661
		c0.521,0.055,1.519-0.14,2.001-2.245c0.668-2.917,3.084-3.833,3.084-3.833c-4.75,2.834-1.5,5.5-1.5,5.5
		c-0.25-1.25-1.666-3.75,9.5-4.417c11.165-0.667,12.334-3.125,12.334-3.125s1.707-0.249,2.207,3.417
		C49.373,11.587,52.46,12.771,53.646,13.187z"/>
	<g>
		<path fill="#9B5013" d="M25.073,54.699c0,0.888-0.721,1.606-1.608,1.606H9.907c-0.888,0-1.606-0.719-1.606-1.606v-9.44
			c0-0.889,0.719-1.607,1.606-1.607h13.558c0.888,0,1.608,0.719,1.608,1.607V54.699z"/>
		<path fill="#BC601B" d="M23.465,43.651H9.907c-0.888,0-1.606,0.719-1.606,1.607v3.662c0,0.887,0.719,1.605,1.606,1.605h13.558
			c0.888,0,1.608-0.719,1.608-1.605v-3.662C25.073,44.37,24.353,43.651,23.465,43.651z"/>
		<path fill="#A7B1B7" d="M17.861,52.344c0,0.649-0.524,1.175-1.175,1.175l0,0c-0.649,0-1.175-0.525-1.175-1.175V49.62
			c0-0.65,0.525-1.176,1.175-1.176l0,0c0.65,0,1.175,0.525,1.175,1.176V52.344z"/>
		<path fill="#C8D5DB" d="M16.687,48.444c-0.649,0-1.175,0.525-1.175,1.176v0.563c0,0.649,0.525,1.175,1.175,1.175
			c0.65,0,1.175-0.525,1.175-1.175V49.62C17.861,48.97,17.337,48.444,16.687,48.444z"/>
		<g>
			<path fill="#754719" d="M20.598,43.37H19.47c0-0.777-0.632-1.41-1.41-1.41h-2.747c-0.777,0-1.409,0.633-1.409,1.41h-1.129
				c0-1.398,1.14-2.537,2.538-2.537h2.747C19.46,40.833,20.598,41.972,20.598,43.37z"/>
		</g>
	</g>
</g>
</svg>
