<?xml version="1.0" encoding="utf-8"?>
<!-- Generator: Adobe Illustrator 16.0.0, SVG Export Plug-In . SVG Version: 6.00 Build 0)  -->
<!DOCTYPE svg PUBLIC "-//W3C//DTD SVG 1.1//EN" "http://www.w3.org/Graphics/SVG/1.1/DTD/svg11.dtd">
<svg version="1.1" id="Layer_1" xmlns="http://www.w3.org/2000/svg" xmlns:xlink="http://www.w3.org/1999/xlink" x="0px" y="0px"
	 width="64px" height="64px" viewBox="0 0 64 64" enable-background="new 0 0 64 64" xml:space="preserve">
<g>
	<g>
		<path fill="#C3D7DD" d="M31.4,48C31.4,48,31.4,48,31.4,48c-0.7,0-1.4-0.3-2.1-0.4c-0.3,0-0.5-0.4-0.4-0.7c0-0.3,0.3-0.5,0.6-0.5
			c0.6,0.1,1.3,0.2,1.9,0.2c0.3,0,0.5,0.4,0.5,0.7C31.9,47.6,31.6,48,31.4,48z M33.4,47.5c-0.3,0-0.5-0.2-0.5-0.5
			c0-0.3,0.2-0.5,0.5-0.5c0.6-0.1,1.3-0.2,1.9-0.3c0.3-0.1,0.5,0.1,0.6,0.4c0.1,0.3-0.1,0.5-0.4,0.6C34.8,47.3,34.1,47.5,33.4,47.5
			C33.4,47.5,33.4,47.5,33.4,47.5z M27.5,46.9c-0.1,0-0.1,0-0.2,0c-0.7-0.2-1.3-0.5-1.9-0.8c-0.2-0.1-0.4-0.4-0.2-0.7
			c0.1-0.2,0.4-0.4,0.7-0.2c0.6,0.3,1.2,0.5,1.8,0.7c0.3,0.1,0.4,0.4,0.3,0.6C27.9,46.7,27.7,46.9,27.5,46.9z M37.3,46.6
			c-0.2,0-0.4-0.1-0.5-0.3c-0.1-0.3,0-0.5,0.3-0.6c0.6-0.2,1.2-0.5,1.8-0.8c0.2-0.1,0.5,0,0.7,0.2c0.1,0.2,0,0.5-0.2,0.7
			c-0.6,0.3-1.2,0.6-1.9,0.9C37.4,46.6,37.3,46.6,37.3,46.6z M23.9,45.2c-0.1,0-0.2,0-0.3-0.1c-0.6-0.4-1.1-0.8-1.6-1.2
			c-0.2-0.2-0.2-0.5-0.1-0.7c0.2-0.2,0.5-0.2,0.7-0.1c0.5,0.4,1,0.8,1.5,1.2c0.2,0.2,0.3,0.5,0.1,0.7C24.2,45.1,24,45.2,23.9,45.2z
			 M40.8,44.7c-0.2,0-0.3-0.1-0.4-0.2c-0.2-0.2-0.1-0.5,0.1-0.7c0.5-0.4,1-0.8,1.5-1.2c0.2-0.2,0.5-0.2,0.7,0c0.2,0.2,0.2,0.5,0,0.7
			c-0.5,0.5-1,0.9-1.6,1.3C41,44.7,40.9,44.7,40.8,44.7z M20.8,42.5c-0.1,0-0.3-0.1-0.4-0.2c-0.5-0.5-0.9-1.1-1.3-1.6
			c-0.2-0.2-0.1-0.5,0.1-0.7c0.2-0.2,0.5-0.1,0.7,0.1c0.4,0.5,0.8,1.1,1.2,1.5c0.2,0.2,0.2,0.5,0,0.7C21.1,42.5,21,42.5,20.8,42.5z
			 M43.6,42c-0.1,0-0.2,0-0.3-0.1c-0.2-0.2-0.3-0.5-0.1-0.7c0.4-0.5,0.8-1,1.1-1.6c0.1-0.2,0.4-0.3,0.7-0.2c0.2,0.1,0.3,0.4,0.2,0.7
			c-0.4,0.6-0.7,1.2-1.2,1.7C43.9,41.9,43.8,42,43.6,42z M18.6,39.2c-0.2,0-0.4-0.1-0.4-0.3c-0.3-0.6-0.6-1.3-0.8-1.9
			c-0.1-0.3,0.1-0.5,0.3-0.6c0.3-0.1,0.5,0.1,0.6,0.3c0.2,0.6,0.4,1.2,0.7,1.8c0.1,0.2,0,0.5-0.2,0.7C18.8,39.2,18.7,39.2,18.6,39.2
			z M45.7,38.5c-0.1,0-0.1,0-0.2,0c-0.3-0.1-0.4-0.4-0.3-0.7c0.3-0.6,0.5-1.2,0.6-1.8c0.1-0.3,0.3-0.4,0.6-0.3
			c0.3,0.1,0.4,0.3,0.3,0.6c-0.2,0.7-0.4,1.3-0.7,2C46.1,38.4,45.9,38.5,45.7,38.5z M17.4,35.4c-0.2,0-0.4-0.2-0.5-0.4
			c-0.1-0.7-0.2-1.4-0.2-2c0-0.3,0.2-0.5,0.5-0.5c0.3,0,0.5,0.2,0.5,0.5c0,0.6,0.1,1.3,0.2,1.9C17.9,35.1,17.7,35.4,17.4,35.4
			C17.4,35.4,17.4,35.4,17.4,35.4z M46.7,34.7C46.7,34.7,46.7,34.7,46.7,34.7c-0.3,0-0.5-0.3-0.5-0.6c0.1-0.6,0.1-1.3,0.1-1.9
			c0-0.5,0-1-0.1-1.4c0-0.3,0.2-0.5,0.4-0.5c0.3,0,0.5,0.2,0.5,0.4c0.1,0.5,0.1,1,0.1,1.5c0,0.7,0,1.4-0.1,2.1
			C47.2,34.5,47,34.7,46.7,34.7z M17.2,31.5C17.2,31.5,17.1,31.5,17.2,31.5c-0.3,0-0.5-0.3-0.5-0.5c0.1-0.7,0.2-1.4,0.3-2
			c0.1-0.3,0.3-0.4,0.6-0.4c0.3,0.1,0.4,0.3,0.4,0.6c-0.1,0.6-0.2,1.3-0.3,1.9C17.7,31.3,17.4,31.5,17.2,31.5z M46.5,29.2
			c-0.2,0-0.4-0.2-0.5-0.4c-0.1-0.6-0.3-1.2-0.6-1.8c-0.1-0.3,0-0.5,0.3-0.6c0.3-0.1,0.5,0,0.6,0.3c0.2,0.6,0.5,1.3,0.6,2
			c0.1,0.3-0.1,0.5-0.4,0.6C46.5,29.2,46.5,29.2,46.5,29.2z M18,27.6c-0.1,0-0.1,0-0.2,0c-0.3-0.1-0.4-0.4-0.3-0.6
			c0.2-0.6,0.5-1.3,0.8-1.9c0.1-0.2,0.4-0.3,0.7-0.2c0.2,0.1,0.3,0.4,0.2,0.7c-0.3,0.6-0.6,1.2-0.8,1.8C18.4,27.4,18.2,27.6,18,27.6
			z M45,25.5c-0.2,0-0.3-0.1-0.4-0.3c-0.3-0.6-0.7-1.1-1-1.6c-0.2-0.2-0.1-0.5,0.1-0.7c0.2-0.2,0.5-0.1,0.7,0.1
			c0.4,0.6,0.8,1.1,1.1,1.7c0.1,0.2,0,0.5-0.2,0.7C45.2,25.5,45.1,25.5,45,25.5z M19.9,24c-0.1,0-0.2,0-0.3-0.1
			c-0.2-0.2-0.3-0.5-0.1-0.7c0.4-0.6,0.8-1.1,1.3-1.6c0.2-0.2,0.5-0.2,0.7,0c0.2,0.2,0.2,0.5,0,0.7c-0.4,0.5-0.9,1-1.2,1.5
			C20.2,24,20.1,24,19.9,24z M42.7,22.3c-0.1,0-0.3-0.1-0.4-0.2c-0.4-0.5-0.9-0.9-1.4-1.3c-0.2-0.2-0.3-0.5-0.1-0.7s0.5-0.3,0.7-0.1
			c0.5,0.4,1.1,0.9,1.5,1.4c0.2,0.2,0.2,0.5,0,0.7C42.9,22.3,42.8,22.3,42.7,22.3z M22.6,21.1c-0.1,0-0.3-0.1-0.4-0.2
			c-0.2-0.2-0.1-0.5,0.1-0.7c0.5-0.4,1.1-0.8,1.7-1.2c0.2-0.1,0.5-0.1,0.7,0.2c0.1,0.2,0.1,0.5-0.2,0.7C24,20.3,23.5,20.6,23,21
			C22.9,21.1,22.8,21.1,22.6,21.1z M39.5,19.9c-0.1,0-0.2,0-0.3-0.1c-0.6-0.3-1.1-0.6-1.7-0.9c-0.3-0.1-0.4-0.4-0.3-0.7
			c0.1-0.3,0.4-0.4,0.7-0.3c0.6,0.3,1.3,0.6,1.8,0.9c0.2,0.1,0.3,0.4,0.2,0.7C39.9,19.8,39.7,19.9,39.5,19.9z M26,19.1
			c-0.2,0-0.4-0.1-0.5-0.3c-0.1-0.3,0-0.5,0.3-0.7c0.6-0.3,1.3-0.5,1.9-0.7c0.3-0.1,0.5,0.1,0.6,0.3c0.1,0.3-0.1,0.5-0.3,0.6
			c-0.6,0.2-1.2,0.4-1.8,0.7C26.2,19.1,26.1,19.1,26,19.1z M35.8,18.3c0,0-0.1,0-0.1,0c-0.6-0.2-1.3-0.3-1.9-0.4
			c-0.3,0-0.5-0.3-0.4-0.6c0-0.3,0.3-0.5,0.6-0.4c0.7,0.1,1.4,0.2,2,0.4c0.3,0.1,0.4,0.3,0.4,0.6C36.3,18.2,36.1,18.3,35.8,18.3z
			 M29.9,18c-0.2,0-0.5-0.2-0.5-0.4c0-0.3,0.2-0.4,0.4-0.5c0.7-0.1,1.4-0.1,2.1-0.1h0c0.3,0,0.5,0.1,0.5,0.4s-0.2,0.5-0.5,0.5
			C31.2,17.9,30.6,17.9,29.9,18C29.9,18,29.9,18,29.9,18z"/>
	</g>
	<g>
		<g>
			<path fill="#50CE06" d="M32,63.5c-0.2,0-0.3,0-0.5-0.1L5.3,48.1C5,47.9,5,47.6,5,47.2V16.8c0-0.4,0-0.7,0.3-0.9L31.6,0.7
				c0.3-0.2,0.6-0.2,1,0l26.2,15.2c0.3,0.2,0.3,0.5,0.3,0.9v30.5c0,0.4,0,0.7-0.3,0.9L32.4,63.3C32.3,63.4,32.2,63.5,32,63.5z
				 M7,46.7l25,14.7l25-14.7V17.3L32,2.7L7,17.3V46.7z"/>
		</g>
		<g>
			<g>
				<path fill="#50CE06" d="M5.8,48.1c-0.3,0-0.1-0.2-0.3-0.4c-0.3-0.3-0.5-1.3-0.2-1.7L31.1,2c0.2-0.4,0.7-0.6,1.1-0.5
					c0.4,0.1,0.7,0.5,0.7,1V32c0,0.4-0.2,0.7-0.5,0.9L6.3,47.9C6.2,48,6,48.1,5.8,48.1z M31,6.2L8.6,44.3L31,31.4V6.2z"/>
			</g>
			<g>
				<path fill="#50CE06" d="M58.2,48.1c-0.2,0-0.3,0-0.5-0.1L31.5,32.8C31.2,32.7,31,32.3,31,32V2.5c0-0.5,0.3-0.8,0.7-1
					c0.4-0.1,0.9,0.1,1.1,0.5l25.7,43.7c0.2,0.4,0.3,1.7,0,2C58.3,47.9,58.4,48.1,58.2,48.1z M33,31.4l22.4,12.9L33,6.2V31.4z"/>
			</g>
			<g>
				<path fill="#50CE06" d="M58.2,48C58.2,48,58.2,48,58.2,48H5.8c-0.5,0-0.1-0.3-0.2-0.8c-0.1-0.4-0.2-1.2,0.2-1.4l25.6-14.8
					c0.3-0.2,0.7-0.2,1,0L58,45.8c0.4,0.1,0.6,0.8,0.6,1.3C58.6,47.6,58.8,48,58.2,48z M9.5,46h44.9L32,33L9.5,46z"/>
			</g>
		</g>
	</g>
</g>
</svg>
