<?xml version="1.0" encoding="utf-8"?>
<!-- Generator: Adobe Illustrator 16.0.0, SVG Export Plug-In . SVG Version: 6.00 Build 0)  -->
<!DOCTYPE svg PUBLIC "-//W3C//DTD SVG 1.1//EN" "http://www.w3.org/Graphics/SVG/1.1/DTD/svg11.dtd">
<svg version="1.1" id="Layer_1" xmlns="http://www.w3.org/2000/svg" xmlns:xlink="http://www.w3.org/1999/xlink" x="0px" y="0px"
	 width="65px" height="65px" viewBox="0 0 65 65" enable-background="new 0 0 65 65" xml:space="preserve">
<g>
	<g>
		<g>
			<g>
				<g>
					<path fill="#139BD1" d="M32.931,30.862c-0.11,1.912-2.661,3.317-5.694,3.143c-3.031-0.179-17.868-2.603-17.76-4.515
						c0.115-1.913,15.137-2.588,18.168-2.409C30.675,27.257,33.042,28.95,32.931,30.862z"/>
				</g>
				<g>
					<path fill="#139BD1" d="M31.765,30.074c0.111-1.912,2.66-3.316,5.695-3.143c3.031,0.18,17.867,2.604,17.759,4.516
						c-0.115,1.912-15.137,2.588-18.168,2.408C34.02,33.68,31.652,31.986,31.765,30.074z"/>
				</g>
				<g>
					<path fill="#7C672C" d="M29.473,46.446c0,2.476-2.008,15.827-4.486,15.827c-2.475,0-4.482-13.352-4.482-15.827
						s2.008-4.484,4.482-4.484C27.465,41.962,29.473,43.971,29.473,46.446z"/>
					<path fill="#7C672C" d="M44.498,46.446c0,2.476-2.008,15.827-4.486,15.827c-2.475,0-4.482-13.352-4.482-15.827
						s2.008-4.484,4.482-4.484C42.49,41.962,44.498,43.971,44.498,46.446z"/>
				</g>
				<path fill="#139BD1" d="M45.15,40.521c0,16.038-5.662,10.697-12.65,10.697c-6.986,0-12.65,5.341-12.65-10.697
					c0-9.17,5.666-16.603,12.65-16.603C39.486,23.919,45.15,31.352,45.15,40.521z"/>
				<path fill="#0C71BC" d="M23.078,29.47c2.666,1.211,5.912,1.825,9.424,1.825c3.51,0,6.755-0.614,9.42-1.824
					c-2.316-3.4-5.674-5.552-9.422-5.552C28.753,23.919,25.396,26.07,23.078,29.47z"/>
				<g>
					<path fill="#8D97A0" d="M30.033,62.354c0,1.896-2.26,2.146-5.045,2.146s-5.045-0.249-5.045-2.146
						c0-1.897,2.26-4.508,5.045-4.508S30.033,60.457,30.033,62.354z"/>
					<path fill="#79848C" d="M30.033,62.354c0,1.896-2.26,2.146-5.045,2.146s-5.045-0.249-5.045-2.146"/>
				</g>
				<g>
					<path fill="#8D97A0" d="M45.059,62.354c0,1.896-2.26,2.146-5.045,2.146s-5.045-0.249-5.045-2.146
						c0-1.897,2.26-4.508,5.045-4.508S45.059,60.457,45.059,62.354z"/>
					<path fill="#79848C" d="M45.059,62.354c0,1.896-2.26,2.146-5.045,2.146s-5.045-0.249-5.045-2.146"/>
				</g>
				<g>
					<path fill="#CE5715" d="M48.871,16.275c0,7.999-7.33,12.02-16.369,12.02c-9.041,0-16.373-4.021-16.373-12.02
						c0-8.001,7.332-15.775,16.373-15.775C41.541,0.5,48.871,8.274,48.871,16.275z"/>
					<path fill="#F9A9A0" d="M48.871,16.275c0,7.999-7.33,12.02-16.369,12.02c-9.041,0-16.373-4.021-16.373-12.02
						c0-8.001,7.332-9.192,16.373-9.192C41.541,7.083,48.871,8.274,48.871,16.275z"/>
					<path fill="#FF9997" d="M48.871,16.275c0,7.999-7.33,12.02-16.369,12.02c-9.041,0-16.373-4.021-16.373-12.02"/>
				</g>
				<g>
					<g>
						<circle fill="#113E49" cx="24.716" cy="14.351" r="1.464"/>
						<path d="M26.18,14.351c0,0.811-0.656,1.465-1.465,1.465s-1.463-0.654-1.463-1.465"/>
						<g>
							<path fill="#FFD3C5" d="M27.604,17.404c-0.078,0-0.158-0.028-0.219-0.091c-0.715-0.714-1.664-1.107-2.672-1.107h-0.002
								c-1.008,0-1.955,0.394-2.666,1.106c-0.121,0.121-0.316,0.124-0.436,0.001c-0.121-0.117-0.125-0.312-0.004-0.434
								c0.83-0.831,1.932-1.29,3.105-1.29h0.002c1.176,0,2.279,0.456,3.111,1.288c0.119,0.119,0.119,0.318,0,0.436
								C27.764,17.376,27.686,17.404,27.604,17.404z"/>
						</g>
					</g>
					<g>
						<circle fill="#113E49" cx="40.286" cy="14.351" r="1.464"/>
						<path d="M38.822,14.351c0,0.811,0.654,1.465,1.465,1.465c0.809,0,1.463-0.654,1.463-1.465"/>
						<g>
							<path fill="#FFD3C5" d="M37.398,17.404c0.076,0,0.156-0.028,0.217-0.091c0.715-0.714,1.664-1.107,2.672-1.107h0.002
								c1.008,0,1.957,0.394,2.668,1.106c0.119,0.121,0.314,0.124,0.436,0.001c0.121-0.117,0.123-0.312,0.002-0.434
								c-0.826-0.831-1.932-1.29-3.105-1.29h-0.002c-1.174,0-2.277,0.456-3.111,1.288c-0.117,0.119-0.117,0.318,0,0.436
								C37.238,17.376,37.316,17.404,37.398,17.404z"/>
						</g>
					</g>
				</g>
			</g>
			<path fill="#870E0E" d="M29.184,21.897c0-2.93,1.484-5.314,3.314-5.314c1.826,0,3.314,2.385,3.314,5.314
				c0,2.937-1.488,1.185-3.314,1.185C30.668,23.082,29.184,24.834,29.184,21.897z"/>
		</g>
		<path fill="#CE5715" d="M27.771,5.827c0.215-0.229,0.447-0.443,0.677-0.661h-2.62c-0.229,0.219-0.465,0.431-0.682,0.661
			c0.738,2.322,2.911,4.006,5.479,4.006h2.625C30.683,9.833,28.51,8.149,27.771,5.827z"/>
		<path fill="#CE5715" d="M33.021,5.827c0.215-0.228,0.438-0.445,0.664-0.661h-1.821l-1.468,0.661
			c0.738,2.322,2.911,4.006,5.479,4.006H38.5C35.932,9.833,33.76,8.149,33.021,5.827z"/>
	</g>
	<path fill="#05B8C1" d="M20.369,35.833h24.262c-0.086-0.383-0.188-0.754-0.293-1.125H20.663
		C20.557,35.079,20.455,35.45,20.369,35.833z"/>
	<path fill="#05B8C1" d="M19.914,38.833h25.172c-0.029-0.381-0.082-0.752-0.131-1.125h-24.91
		C19.996,38.081,19.943,38.452,19.914,38.833z"/>
	<path fill="#05B8C1" d="M19.865,41.833h25.27c0.008-0.361,0.012-0.738,0.014-1.125H19.852
		C19.854,41.095,19.857,41.472,19.865,41.833z"/>
	<path fill="#05B8C1" d="M20.03,44.833H44.97c0.034-0.357,0.063-0.733,0.087-1.125H19.943C19.967,44.1,19.996,44.476,20.03,44.833z"
		/>
	<g>
		<g>
			<path fill="#43A52F" d="M10.97,37.41h-0.072l-0.98,0.264L8.936,37.41H8.864c0,0-0.381,0.289-0.29,0.58L8.9,37.898l0.254,0.436
				l0.145-0.254l0.234,0.163l0.11-0.199l0.248,0.248l0.011,0.042l0.015-0.016l0.015,0.016l0.012-0.042l0.247-0.248l0.108,0.199
				l0.234-0.163l0.146,0.254l0.254-0.436l0.325,0.092C11.351,37.699,10.97,37.41,10.97,37.41z"/>
			<path fill="#43A52F" d="M9.896,29.513c0,0,0.362-1.829-0.271-3.931c0,0,0.09,1.521-0.054,2.102
				c-0.146,0.58,0.071,0.688,0.126,0.996C9.75,28.988,9.896,29.513,9.896,29.513z"/>
			<path fill="#43A52F" d="M10.048,29.703c0,0-0.689-0.453-0.707-2.102s-0.416-3.133-0.416-3.133s0.524,1.086,0.634,1.848
				c0.107,0.76,0.145,2.082,0.145,2.082l0.254,0.508L10.048,29.703z"/>
			<path fill="#43A52F" d="M9.959,29.885c0,0-0.489-1.277,0.163-2.799s1.576-1.658,1.576-1.658s-1.359,0.625-1.413,2.663
				c0,0-0.108,0.489-0.163,0.896C10.068,29.395,9.959,29.885,9.959,29.885z"/>
			<g>
				<g>
					<path fill="#D84A81" d="M7.791,37.673c0.884,0,1.662-0.445,2.126-1.123c0.464,0.678,1.242,1.123,2.126,1.123
						c1.421,0,2.626-1.153,2.574-2.573c-0.095-2.639-3.416-2.719-4.545-5.594c-0.057-0.146-0.108-0.205-0.155-0.2
						c-0.048-0.005-0.099,0.054-0.155,0.2c-1.128,2.875-4.45,2.955-4.545,5.594C5.165,36.52,6.369,37.673,7.791,37.673z"/>
					<path fill="#C63C74" d="M9.917,33.978c-1.709,0-3.265-0.056-4.424,0.022c-0.16,0.314-0.261,0.674-0.276,1.1
						c-0.023,0.662,0.228,1.264,0.645,1.721c0.246,0.07,0.507,0.135,0.781,0.191C6.761,37.023,6.88,37.029,7,37.029
						c1.212,0,2.28-0.61,2.917-1.541c0.636,0.931,1.705,1.541,2.917,1.541c0.119,0,0.239-0.006,0.357-0.018
						c0.274-0.057,0.534-0.121,0.781-0.191c0.417-0.457,0.669-1.059,0.645-1.721c-0.016-0.426-0.116-0.785-0.276-1.1
						C13.181,33.922,11.626,33.978,9.917,33.978z"/>
					<path fill="#A82D65" d="M9.917,35.449c-2.231,0-4.102-0.133-4.605,0.406c0.211,0.721,0.754,1.307,1.449,1.604
						c0.236,0.075,0.494,0.142,0.77,0.2c0.086,0.009,0.173,0.013,0.261,0.013c0.884,0,1.662-0.445,2.126-1.123
						c0.464,0.678,1.242,1.123,2.126,1.123c0.088,0,0.175-0.004,0.26-0.013c0.276-0.058,0.533-0.125,0.771-0.199
						c0.694-0.299,1.238-0.885,1.449-1.605C14.018,35.316,12.147,35.449,9.917,35.449z"/>
				</g>
				<ellipse fill="#A82D65" cx="9.916" cy="36.894" rx="2.051" ry="1.032"/>
			</g>
		</g>
		<g>
			<path fill="#43A52F" d="M56.135,37.41h-0.071l-0.981,0.264l-0.979-0.264H54.03c0,0-0.381,0.289-0.29,0.58l0.326-0.092
				l0.254,0.436l0.145-0.254l0.235,0.163l0.109-0.199l0.248,0.248l0.011,0.042l0.014-0.016l0.017,0.016l0.01-0.042l0.248-0.248
				l0.109,0.199L55.7,38.08l0.146,0.254l0.254-0.436l0.325,0.092C56.516,37.699,56.135,37.41,56.135,37.41z"/>
			<path fill="#43A52F" d="M55.062,29.513c0,0,0.362-1.829-0.271-3.931c0,0,0.09,1.521-0.054,2.102
				c-0.146,0.58,0.071,0.688,0.126,0.996S55.062,29.513,55.062,29.513z"/>
			<path fill="#43A52F" d="M55.214,29.703c0,0-0.689-0.453-0.707-2.102s-0.416-3.133-0.416-3.133s0.525,1.086,0.634,1.848
				c0.108,0.76,0.145,2.082,0.145,2.082l0.254,0.508L55.214,29.703z"/>
			<path fill="#43A52F" d="M55.125,29.885c0,0-0.49-1.277,0.162-2.799c0.653-1.521,1.577-1.658,1.577-1.658s-1.36,0.625-1.413,2.663
				c0,0-0.108,0.489-0.164,0.896C55.233,29.395,55.125,29.885,55.125,29.885z"/>
			<g>
				<g>
					<path fill="#D84A81" d="M52.957,37.673c0.884,0,1.662-0.445,2.125-1.123c0.465,0.678,1.243,1.123,2.127,1.123
						c1.421,0,2.625-1.153,2.574-2.573c-0.095-2.639-3.416-2.719-4.545-5.594c-0.057-0.146-0.108-0.205-0.156-0.2
						c-0.046-0.005-0.098,0.054-0.154,0.2c-1.129,2.875-4.45,2.955-4.545,5.594C50.331,36.52,51.535,37.673,52.957,37.673z"/>
					<path fill="#C63C74" d="M55.082,33.978c-1.708,0-3.262-0.056-4.423,0.022c-0.161,0.314-0.261,0.674-0.276,1.1
						c-0.023,0.662,0.229,1.264,0.645,1.721c0.246,0.07,0.506,0.135,0.781,0.191c0.118,0.012,0.237,0.018,0.357,0.018
						c1.212,0,2.28-0.61,2.916-1.541c0.637,0.931,1.705,1.541,2.919,1.541c0.118,0,0.238-0.006,0.356-0.018
						c0.274-0.057,0.534-0.121,0.781-0.191c0.417-0.457,0.669-1.059,0.645-1.721c-0.016-0.426-0.117-0.785-0.276-1.1
						C58.347,33.922,56.792,33.978,55.082,33.978z"/>
					<path fill="#A82D65" d="M55.082,35.449c-2.23,0-4.101-0.133-4.604,0.406c0.211,0.721,0.754,1.307,1.449,1.604
						c0.236,0.075,0.493,0.142,0.77,0.2c0.086,0.009,0.173,0.013,0.261,0.013c0.884,0,1.662-0.445,2.125-1.123
						c0.465,0.678,1.243,1.123,2.127,1.123c0.088,0,0.174-0.004,0.261-0.013c0.275-0.058,0.532-0.125,0.77-0.199
						c0.694-0.299,1.238-0.885,1.449-1.605C59.184,35.316,57.313,35.449,55.082,35.449z"/>
				</g>
				<ellipse fill="#A82D65" cx="55.083" cy="36.894" rx="2.051" ry="1.032"/>
			</g>
		</g>
	</g>
</g>
</svg>
