<?xml version="1.0" encoding="utf-8"?>
<!-- Generator: Adobe Illustrator 16.0.0, SVG Export Plug-In . SVG Version: 6.00 Build 0)  -->
<!DOCTYPE svg PUBLIC "-//W3C//DTD SVG 1.1//EN" "http://www.w3.org/Graphics/SVG/1.1/DTD/svg11.dtd">
<svg version="1.1" id="Layer_1" xmlns="http://www.w3.org/2000/svg" xmlns:xlink="http://www.w3.org/1999/xlink" x="0px" y="0px"
	 width="64px" height="64px" viewBox="0 0 64 64" enable-background="new 0 0 64 64" xml:space="preserve">
<g>
	<g>
		<rect x="30" y="13" fill="#239B02" width="4" height="14"/>
		<g>
			<g>
				<path fill="#239B02" d="M38.8,2.6C43.9,0.2,51-0.4,54.3,2l0,0c0,0,0,0,0,0c0,0,0,0,0,0l0,0c-0.2,4.1-5.1,9.2-10.2,11.7
					c-5.1,2.5-9,1.5-12.4-0.9l0,0c0,0,0,0,0,0c0,0,0,0,0,0l0,0C31.9,8.8,33.6,5.1,38.8,2.6z"/>
				<path fill="#34B515" d="M31.8,12.9L31.8,12.9C31.7,12.9,31.7,12.9,31.8,12.9C31.7,12.9,31.7,12.9,31.8,12.9L31.8,12.9
					c0.2-4.1,1.9-7.8,7-10.3C43.9,0.2,51-0.4,54.3,2l0,0c0,0,0,0,0,0c0,0,0,0,0,0l0,0"/>
			</g>
			<g>
				<path fill="#239B02" d="M25.2,2.6C20.1,0.2,13-0.4,9.7,2l0,0c0,0,0,0,0,0c0,0,0,0,0,0l0,0c0.2,4.1,5.1,9.2,10.2,11.7
					c5.1,2.5,9,1.5,12.4-0.9l0,0c0,0,0,0,0,0c0,0,0,0,0,0l0,0C32.1,8.8,30.4,5.1,25.2,2.6z"/>
				<path fill="#34B515" d="M32.2,12.9L32.2,12.9C32.3,12.9,32.3,12.9,32.2,12.9C32.3,12.9,32.3,12.9,32.2,12.9L32.2,12.9
					c-0.2-4.1-1.9-7.8-7-10.3C20.1,0.2,13-0.4,9.7,2l0,0c0,0,0,0,0,0c0,0,0,0,0,0l0,0"/>
			</g>
		</g>
	</g>
	<g>
		<path fill="#252828" d="M32,34.1c1.3,0,2.3-1,2.3-2.3c0-2.7,2.1-5,4.9-5c2.7,0,4.9,2.2,4.9,5V42h5V31.7c0-5.3-4.4-9.6-9.7-9.6
			c-5.3,0-9.7,4.3-9.7,9.6C29.7,33,30.7,34.1,32,34.1z"/>
		<path fill="#252828" d="M32,34.1c-1.3,0-2.3-1-2.3-2.3c0-2.7-2.1-5-4.9-5c-2.7,0-4.9,2.2-4.9,5V42h-5V31.7c0-5.3,4.4-9.6,9.7-9.6
			c5.3,0,9.7,4.3,9.7,9.6C34.3,33,33.3,34.1,32,34.1z"/>
	</g>
	<g>
		<g>
			<circle fill="#FF5512" cx="18.6" cy="52.1" r="11.4"/>
			
				<ellipse transform="matrix(0.7638 0.6454 -0.6454 0.7638 32.9442 2.5904)" fill="#FFCDBD" cx="12.9" cy="46.3" rx="1.6" ry="4.4"/>
			<path fill="#CC3006" d="M26.7,44c4.5,4.5,4.5,11.7,0,16.2c-4.5,4.5-11.7,4.5-16.2,0"/>
		</g>
		<g>
			<circle fill="#FF5512" cx="45.4" cy="52.1" r="11.4"/>
			<path fill="#FFCDBD" d="M40.9,47.3c-1.6,1.9-3.4,2.9-4,2.4c-0.7-0.6,0.1-2.5,1.7-4.4c1.6-1.9,3.4-2.9,4-2.4
				C43.3,43.5,42.5,45.4,40.9,47.3z"/>
			<path fill="#CC3006" d="M53.5,44c4.5,4.5,4.5,11.7,0,16.2c-4.5,4.5-11.7,4.5-16.2,0"/>
		</g>
	</g>
</g>
</svg>
