<?xml version="1.0" encoding="utf-8"?>
<!-- Generator: Adobe Illustrator 16.0.0, SVG Export Plug-In . SVG Version: 6.00 Build 0)  -->
<!DOCTYPE svg PUBLIC "-//W3C//DTD SVG 1.1//EN" "http://www.w3.org/Graphics/SVG/1.1/DTD/svg11.dtd">
<svg version="1.1" xmlns="http://www.w3.org/2000/svg" xmlns:xlink="http://www.w3.org/1999/xlink" x="0px" y="0px" width="65px"
	 height="65px" viewBox="0 0 65 65" enable-background="new 0 0 65 65" xml:space="preserve">
<g id="Layer_1">
	<g>
		<g>
			<g>
				<g>
					<path fill="#167F9B" d="M32.498,50.988c-0.937,0-1.695-0.757-1.695-1.693V31.633c0-0.938,0.759-1.697,1.695-1.697
						c0.938,0,1.696,0.76,1.696,1.697v17.662C34.194,50.231,33.436,50.988,32.498,50.988z"/>
				</g>
				<path fill="#0F6C82" d="M32.498,29.936c-0.937,0-1.695,0.76-1.695,1.697v9.291c0.559,0.066,1.122,0.112,1.697,0.112
					c0.574,0,1.137-0.045,1.694-0.112v-9.291C34.194,30.695,33.436,29.936,32.498,29.936z"/>
				<g>
					<path fill="#8CC4D1" d="M38.435,51.413H26.565c-0.469,0-0.848-0.378-0.848-0.847c0-0.471,0.379-0.85,0.848-0.85h11.869
						c0.468,0,0.848,0.379,0.848,0.85C39.282,51.035,38.902,51.413,38.435,51.413z"/>
				</g>
				<g>
					<g>
						<path fill="#8CC4D1" d="M31.17,54.381h-3.911c-0.469,0-0.848-0.379-0.848-0.847c0-0.471,0.379-0.849,0.848-0.849h3.911
							c0.47,0,0.849,0.378,0.849,0.849C32.019,54.002,31.64,54.381,31.17,54.381z"/>
					</g>
					<g>
						<path fill="#8CC4D1" d="M37.741,54.381h-3.912c-0.468,0-0.848-0.379-0.848-0.847c0-0.471,0.38-0.849,0.848-0.849h3.912
							c0.469,0,0.848,0.378,0.848,0.849C38.589,54.002,38.21,54.381,37.741,54.381z"/>
					</g>
				</g>
			</g>
			<circle fill="#EA2F73" cx="32.5" cy="24.619" r="14"/>
			<path fill="#BC1972" d="M32.5,10.619c7.732,0,14,6.268,14,14s-6.268,14-14,14"/>
			<path fill="#FF6C8F" d="M27.418,18.442c0.594,0,1.092,0.392,1.266,0.927c0.043-0.131,0.072-0.268,0.072-0.412
				c0-0.738-0.6-1.338-1.338-1.338c-0.74,0-1.339,0.6-1.339,1.338c0,0.145,0.029,0.281,0.071,0.412
				C26.324,18.834,26.823,18.442,27.418,18.442z"/>
			<path fill="#FF6C8F" d="M23.418,20.192c0.594,0,1.092,0.392,1.266,0.927c0.043-0.131,0.072-0.268,0.072-0.412
				c0-0.738-0.6-1.338-1.338-1.338c-0.74,0-1.339,0.6-1.339,1.338c0,0.145,0.029,0.281,0.071,0.412
				C22.324,20.584,22.823,20.192,23.418,20.192z"/>
			<path fill="#FF6C8F" d="M30.168,34.776c0.594,0,1.092,0.392,1.267,0.927c0.042-0.131,0.071-0.268,0.071-0.412
				c0-0.738-0.6-1.338-1.338-1.338c-0.74,0-1.339,0.6-1.339,1.338c0,0.145,0.029,0.281,0.071,0.412
				C29.074,35.168,29.573,34.776,30.168,34.776z"/>
			<path fill="#FF6C8F" d="M28.917,14.859c0.594,0,1.092,0.391,1.267,0.927c0.042-0.131,0.07-0.268,0.07-0.411
				c0-0.739-0.599-1.339-1.337-1.339c-0.74,0-1.339,0.6-1.339,1.339c0,0.144,0.029,0.28,0.071,0.411
				C27.823,15.25,28.322,14.859,28.917,14.859z"/>
			<path fill="#FF6C8F" d="M30.418,23.358c0.594,0,1.092,0.392,1.266,0.927c0.043-0.131,0.072-0.268,0.072-0.412
				c0-0.738-0.6-1.338-1.338-1.338c-0.74,0-1.339,0.6-1.339,1.338c0,0.145,0.029,0.281,0.071,0.412
				C29.324,23.75,29.823,23.358,30.418,23.358z"/>
			<path fill="#FF6C8F" d="M32.252,29.191c0.594,0,1.092,0.391,1.267,0.927c0.042-0.131,0.071-0.268,0.071-0.411
				c0-0.739-0.6-1.339-1.338-1.339c-0.74,0-1.339,0.6-1.339,1.339c0,0.144,0.03,0.28,0.071,0.411
				C31.158,29.582,31.657,29.191,32.252,29.191z"/>
			<path fill="#FF6C8F" d="M27.086,29.441c0.594,0,1.092,0.391,1.266,0.927c0.043-0.131,0.072-0.268,0.072-0.411
				c0-0.739-0.6-1.339-1.338-1.339c-0.74,0-1.339,0.6-1.339,1.339c0,0.144,0.03,0.28,0.071,0.411
				C25.992,29.832,26.491,29.441,27.086,29.441z"/>
			<path fill="#EA2F73" d="M37.586,22.441c0.594,0,1.092,0.391,1.266,0.927c0.043-0.131,0.072-0.268,0.072-0.411
				c0-0.739-0.6-1.339-1.338-1.339c-0.74,0-1.339,0.6-1.339,1.339c0,0.144,0.03,0.28,0.071,0.411
				C36.492,22.832,36.991,22.441,37.586,22.441z"/>
			<path fill="#EA2F73" d="M35.169,13.107c0.594,0,1.092,0.391,1.267,0.927c0.042-0.131,0.071-0.268,0.071-0.412
				c0-0.738-0.6-1.338-1.338-1.338c-0.74,0-1.339,0.6-1.339,1.338c0,0.145,0.029,0.281,0.072,0.412
				C34.075,13.498,34.574,13.107,35.169,13.107z"/>
			<path fill="#EA2F73" d="M42.584,24.275c0.594,0,1.092,0.391,1.267,0.927c0.042-0.131,0.071-0.268,0.071-0.411
				c0-0.739-0.6-1.339-1.338-1.339c-0.74,0-1.339,0.6-1.339,1.339c0,0.144,0.029,0.28,0.071,0.411
				C41.49,24.666,41.989,24.275,42.584,24.275z"/>
			<path fill="#EA2F73" d="M37.501,29.119c0.594,0,1.092,0.391,1.267,0.927c0.042-0.13,0.071-0.268,0.071-0.412
				c0-0.738-0.6-1.338-1.338-1.338c-0.74,0-1.339,0.6-1.339,1.338c0,0.145,0.029,0.282,0.071,0.412
				C36.407,29.51,36.906,29.119,37.501,29.119z"/>
			<path fill="#EA2F73" d="M41.584,28.285c0.594,0,1.092,0.391,1.267,0.927c0.042-0.13,0.071-0.268,0.071-0.412
				c0-0.738-0.6-1.338-1.338-1.338c-0.74,0-1.339,0.6-1.339,1.338c0,0.145,0.029,0.282,0.071,0.412
				C40.49,28.676,40.989,28.285,41.584,28.285z"/>
			<path fill="#EA2F73" d="M35.501,35.119c0.594,0,1.092,0.391,1.267,0.927c0.042-0.13,0.071-0.268,0.071-0.412
				c0-0.738-0.6-1.338-1.338-1.338c-0.74,0-1.339,0.6-1.339,1.338c0,0.145,0.029,0.282,0.071,0.412
				C34.407,35.51,34.906,35.119,35.501,35.119z"/>
			<path fill="#EA2F73" d="M35.336,16.607c0.594,0,1.092,0.391,1.267,0.927c0.042-0.131,0.071-0.268,0.071-0.412
				c0-0.738-0.6-1.338-1.338-1.338c-0.74,0-1.339,0.6-1.339,1.338c0,0.145,0.03,0.281,0.071,0.412
				C34.242,16.998,34.741,16.607,35.336,16.607z"/>
			<path fill="#EA2F73" d="M40.502,18.857c0.594,0,1.092,0.391,1.266,0.927c0.043-0.131,0.072-0.268,0.072-0.412
				c0-0.738-0.6-1.338-1.338-1.338c-0.74,0-1.339,0.6-1.339,1.338c0,0.145,0.03,0.281,0.071,0.412
				C39.408,19.248,39.907,18.857,40.502,18.857z"/>
			<path fill="#FF6C8F" d="M23.418,24.108c0.594,0,1.092,0.392,1.266,0.927c0.043-0.131,0.072-0.268,0.072-0.412
				c0-0.738-0.6-1.338-1.338-1.338c-0.74,0-1.339,0.6-1.339,1.338c0,0.145,0.029,0.281,0.071,0.412
				C22.324,24.5,22.823,24.108,23.418,24.108z"/>
			<g>
				<path fill="#167F9B" d="M34.146,46.313c-0.366,0.366-0.961,0.366-1.326,0l0,0c-0.365-0.366-0.365-0.96,0-1.325l2.564-2.564
					c0.365-0.365,0.959-0.365,1.325,0.001l0,0c0.366,0.366,0.366,0.96,0,1.325L34.146,46.313z"/>
				<path fill="#167F9B" d="M32.18,42.957c0.365,0.367,0.365,0.961,0,1.326l0,0c-0.367,0.365-0.961,0.365-1.326,0l-2.564-2.564
					c-0.365-0.365-0.365-0.959,0.002-1.324l0,0c0.365-0.367,0.959-0.367,1.324,0L32.18,42.957z"/>
			</g>
		</g>
		<g>
			<g>
				<g>
					<g>
						<g>
							<g>
								<path fill="#167F9B" d="M9.998,23.289c-0.22,0-0.399-0.18-0.399-0.4v-4.172c0-0.223,0.18-0.402,0.399-0.402
									c0.223,0,0.401,0.18,0.401,0.402v4.172C10.399,23.109,10.221,23.289,9.998,23.289z"/>
							</g>
							<path fill="#0F6C82" d="M9.998,18.314c-0.22,0-0.399,0.18-0.399,0.402v2.193c0.132,0.018,0.265,0.027,0.399,0.027
								c0.137,0,0.27-0.01,0.401-0.027v-2.193C10.399,18.494,10.221,18.314,9.998,18.314z"/>
							<g>
								<path fill="#8CC4D1" d="M11.402,23.389H8.598c-0.111,0-0.201-0.09-0.201-0.199c0-0.111,0.09-0.201,0.201-0.201h2.805
									c0.109,0,0.199,0.09,0.199,0.201C11.602,23.299,11.512,23.389,11.402,23.389z"/>
							</g>
							<g>
								<g>
									<path fill="#8CC4D1" d="M9.686,24.09H8.762c-0.109,0-0.2-0.09-0.2-0.199c0-0.111,0.091-0.201,0.2-0.201h0.924
										c0.11,0,0.2,0.09,0.2,0.201C9.886,24,9.796,24.09,9.686,24.09z"/>
								</g>
								<g>
									<path fill="#8CC4D1" d="M11.236,24.09h-0.923c-0.11,0-0.201-0.09-0.201-0.199c0-0.111,0.091-0.201,0.201-0.201h0.923
										c0.112,0,0.201,0.09,0.201,0.201C11.438,24,11.349,24.09,11.236,24.09z"/>
								</g>
							</g>
						</g>
						<circle fill="#EA2F73" cx="10" cy="17.059" r="3.307"/>
						<path fill="#BC1972" d="M9.998,13.752c1.828,0,3.309,1.48,3.309,3.307c0,1.828-1.48,3.309-3.309,3.309"/>
						<g>
							<path fill="#167F9B" d="M10.387,22.184c-0.085,0.088-0.226,0.088-0.312,0l0,0c-0.086-0.086-0.086-0.227,0-0.312l0.605-0.605
								c0.086-0.086,0.227-0.086,0.312,0l0,0c0.087,0.086,0.087,0.227,0,0.312L10.387,22.184z"/>
							<path fill="#167F9B" d="M9.924,21.391c0.085,0.088,0.085,0.229,0,0.314l0,0c-0.088,0.086-0.228,0.086-0.312,0l-0.607-0.607
								c-0.086-0.086-0.086-0.225,0-0.312l0,0c0.088-0.086,0.228-0.086,0.314,0L9.924,21.391z"/>
						</g>
					</g>
					<g>
						<g>
							<g>
								<g>
									<path fill="#167F9B" d="M4.631,11.998c-0.221,0-0.4-0.18-0.4-0.4V7.426c0-0.223,0.18-0.402,0.4-0.402s0.4,0.18,0.4,0.402
										v4.172C5.031,11.818,4.852,11.998,4.631,11.998z"/>
								</g>
								<path fill="#0F6C82" d="M4.631,7.023c-0.221,0-0.4,0.18-0.4,0.402v2.193c0.132,0.018,0.265,0.027,0.4,0.027
									c0.137,0,0.27-0.01,0.4-0.027V7.426C5.031,7.203,4.852,7.023,4.631,7.023z"/>
								<g>
									<path fill="#8CC4D1" d="M6.033,12.098H3.229c-0.11,0-0.201-0.09-0.201-0.199c0-0.111,0.091-0.201,0.201-0.201h2.804
										c0.11,0,0.2,0.09,0.2,0.201C6.233,12.008,6.144,12.098,6.033,12.098z"/>
								</g>
								<g>
									<g>
										<path fill="#8CC4D1" d="M4.318,12.799H3.394c-0.11,0-0.2-0.09-0.2-0.199c0-0.111,0.09-0.201,0.2-0.201h0.925
											c0.109,0,0.199,0.09,0.199,0.201C4.518,12.709,4.428,12.799,4.318,12.799z"/>
									</g>
									<g>
										<path fill="#8CC4D1" d="M5.869,12.799H4.945c-0.111,0-0.201-0.09-0.201-0.199c0-0.111,0.09-0.201,0.201-0.201h0.924
											c0.111,0,0.201,0.09,0.201,0.201C6.07,12.709,5.98,12.799,5.869,12.799z"/>
									</g>
								</g>
							</g>
							<circle fill="#EA2F73" cx="4.631" cy="5.768" r="3.307"/>
							<path fill="#BC1972" d="M4.631,2.461c1.827,0,3.308,1.48,3.308,3.307c0,1.828-1.48,3.309-3.308,3.309"/>
							<g>
								<path fill="#167F9B" d="M5.02,10.893c-0.086,0.088-0.227,0.088-0.312,0l0,0c-0.086-0.086-0.086-0.227,0-0.312l0.605-0.605
									c0.086-0.086,0.227-0.086,0.312,0l0,0c0.087,0.086,0.087,0.227,0,0.312L5.02,10.893z"/>
								<path fill="#167F9B" d="M4.556,10.1c0.085,0.088,0.085,0.229,0,0.314l0,0c-0.087,0.086-0.228,0.086-0.313,0L3.637,9.807
									c-0.086-0.086-0.086-0.225,0-0.312l0,0c0.087-0.086,0.227-0.086,0.312,0L4.556,10.1z"/>
							</g>
						</g>
						<g>
							<g>
								<g>
									<path fill="#167F9B" d="M15.367,11.998c-0.221,0-0.4-0.18-0.4-0.4V7.426c0-0.223,0.18-0.402,0.4-0.402
										c0.222,0,0.4,0.18,0.4,0.402v4.172C15.768,11.818,15.589,11.998,15.367,11.998z"/>
								</g>
								<path fill="#0F6C82" d="M15.367,7.023c-0.221,0-0.4,0.18-0.4,0.402v2.193c0.132,0.018,0.265,0.027,0.4,0.027
									c0.137,0,0.27-0.01,0.4-0.027V7.426C15.768,7.203,15.589,7.023,15.367,7.023z"/>
								<g>
									<path fill="#8CC4D1" d="M16.77,12.098h-2.804c-0.11,0-0.201-0.09-0.201-0.199c0-0.111,0.091-0.201,0.201-0.201h2.804
										c0.11,0,0.2,0.09,0.2,0.201C16.97,12.008,16.88,12.098,16.77,12.098z"/>
								</g>
								<g>
									<g>
										<path fill="#8CC4D1" d="M15.053,12.799H14.13c-0.11,0-0.2-0.09-0.2-0.199c0-0.111,0.09-0.201,0.2-0.201h0.923
											c0.111,0,0.201,0.09,0.201,0.201C15.254,12.709,15.164,12.799,15.053,12.799z"/>
									</g>
									<g>
										<path fill="#8CC4D1" d="M16.605,12.799h-0.924c-0.111,0-0.201-0.09-0.201-0.199c0-0.111,0.09-0.201,0.201-0.201h0.924
											c0.111,0,0.2,0.09,0.2,0.201C16.806,12.709,16.717,12.799,16.605,12.799z"/>
									</g>
								</g>
							</g>
							<circle fill="#EA2F73" cx="15.368" cy="5.768" r="3.307"/>
							<path fill="#BC1972" d="M15.367,2.461c1.827,0,3.308,1.48,3.308,3.307c0,1.828-1.48,3.309-3.308,3.309"/>
							<g>
								<path fill="#167F9B" d="M15.756,10.893c-0.086,0.088-0.227,0.088-0.312,0l0,0c-0.086-0.086-0.086-0.227,0-0.312l0.605-0.605
									c0.086-0.086,0.227-0.086,0.312,0l0,0c0.087,0.086,0.087,0.227,0,0.312L15.756,10.893z"/>
								<path fill="#167F9B" d="M15.292,10.1c0.085,0.088,0.085,0.229,0,0.314l0,0c-0.087,0.086-0.228,0.086-0.313,0l-0.605-0.607
									c-0.086-0.086-0.086-0.225,0-0.312l0,0c0.087-0.086,0.227-0.086,0.312,0L15.292,10.1z"/>
							</g>
						</g>
					</g>
				</g>
				<g>
					<g>
						<g>
							<g>
								<path fill="#167F9B" d="M55,23.289c-0.221,0-0.4-0.18-0.4-0.4v-4.172c0-0.223,0.18-0.402,0.4-0.402s0.4,0.18,0.4,0.402
									v4.172C55.4,23.109,55.221,23.289,55,23.289z"/>
							</g>
							<path fill="#0F6C82" d="M55,18.314c-0.221,0-0.4,0.18-0.4,0.402v2.193c0.132,0.018,0.265,0.027,0.4,0.027
								c0.137,0,0.27-0.01,0.4-0.027v-2.193C55.4,18.494,55.221,18.314,55,18.314z"/>
							<g>
								<path fill="#8CC4D1" d="M56.402,23.389h-2.804c-0.11,0-0.201-0.09-0.201-0.199c0-0.111,0.091-0.201,0.201-0.201h2.804
									c0.11,0,0.2,0.09,0.2,0.201C56.603,23.299,56.513,23.389,56.402,23.389z"/>
							</g>
							<g>
								<g>
									<path fill="#8CC4D1" d="M54.686,24.09h-0.923c-0.11,0-0.2-0.09-0.2-0.199c0-0.111,0.09-0.201,0.2-0.201h0.923
										c0.111,0,0.201,0.09,0.201,0.201C54.887,24,54.797,24.09,54.686,24.09z"/>
								</g>
								<g>
									<path fill="#8CC4D1" d="M56.238,24.09h-0.924c-0.111,0-0.201-0.09-0.201-0.199c0-0.111,0.09-0.201,0.201-0.201h0.924
										c0.111,0,0.2,0.09,0.2,0.201C56.438,24,56.35,24.09,56.238,24.09z"/>
								</g>
							</g>
						</g>
						<circle fill="#EA2F73" cx="55" cy="17.059" r="3.307"/>
						<path fill="#BC1972" d="M55,13.752c1.827,0,3.308,1.48,3.308,3.307c0,1.828-1.48,3.309-3.308,3.309"/>
						<g>
							<path fill="#167F9B" d="M55.389,22.184c-0.086,0.088-0.227,0.088-0.312,0l0,0c-0.086-0.086-0.086-0.227,0-0.312l0.605-0.605
								c0.086-0.086,0.227-0.086,0.312,0l0,0c0.087,0.086,0.087,0.227,0,0.312L55.389,22.184z"/>
							<path fill="#167F9B" d="M54.925,21.391c0.085,0.088,0.085,0.229,0,0.314l0,0c-0.087,0.086-0.228,0.086-0.313,0l-0.605-0.607
								c-0.086-0.086-0.086-0.225,0-0.312l0,0c0.087-0.086,0.227-0.086,0.312,0L54.925,21.391z"/>
						</g>
					</g>
					<g>
						<g>
							<g>
								<g>
									<path fill="#167F9B" d="M49.632,11.998c-0.221,0-0.4-0.18-0.4-0.4V7.426c0-0.223,0.18-0.402,0.4-0.402
										c0.222,0,0.4,0.18,0.4,0.402v4.172C50.032,11.818,49.854,11.998,49.632,11.998z"/>
								</g>
								<path fill="#0F6C82" d="M49.632,7.023c-0.221,0-0.4,0.18-0.4,0.402v2.193c0.132,0.018,0.265,0.027,0.4,0.027
									s0.271-0.01,0.4-0.027V7.426C50.032,7.203,49.854,7.023,49.632,7.023z"/>
								<g>
									<path fill="#8CC4D1" d="M51.033,12.098H48.23c-0.111,0-0.201-0.09-0.201-0.199c0-0.111,0.09-0.201,0.201-0.201h2.803
										c0.111,0,0.201,0.09,0.201,0.201C51.234,12.008,51.145,12.098,51.033,12.098z"/>
								</g>
								<g>
									<g>
										<path fill="#8CC4D1" d="M49.318,12.799h-0.924c-0.11,0-0.2-0.09-0.2-0.199c0-0.111,0.09-0.201,0.2-0.201h0.924
											c0.11,0,0.2,0.09,0.2,0.201C49.519,12.709,49.429,12.799,49.318,12.799z"/>
									</g>
									<g>
										<path fill="#8CC4D1" d="M50.869,12.799h-0.923c-0.11,0-0.201-0.09-0.201-0.199c0-0.111,0.091-0.201,0.201-0.201h0.923
											c0.112,0,0.201,0.09,0.201,0.201C51.07,12.709,50.981,12.799,50.869,12.799z"/>
									</g>
								</g>
							</g>
							<circle fill="#EA2F73" cx="49.632" cy="5.768" r="3.307"/>
							<path fill="#BC1972" d="M49.632,2.461c1.827,0,3.308,1.48,3.308,3.307c0,1.828-1.48,3.309-3.308,3.309"/>
							<g>
								<path fill="#167F9B" d="M50.02,10.893c-0.085,0.088-0.226,0.088-0.312,0l0,0c-0.086-0.086-0.086-0.227,0-0.312l0.605-0.605
									c0.086-0.086,0.227-0.086,0.312,0l0,0c0.087,0.086,0.087,0.227,0,0.312L50.02,10.893z"/>
								<path fill="#167F9B" d="M49.557,10.1c0.085,0.088,0.085,0.229,0,0.314l0,0c-0.087,0.086-0.228,0.086-0.313,0l-0.606-0.607
									c-0.086-0.086-0.086-0.225,0-0.312l0,0c0.088-0.086,0.228-0.086,0.312,0L49.557,10.1z"/>
							</g>
						</g>
						<g>
							<g>
								<g>
									<path fill="#167F9B" d="M60.368,11.998c-0.221,0-0.401-0.18-0.401-0.4V7.426c0-0.223,0.181-0.402,0.401-0.402
										c0.222,0,0.399,0.18,0.399,0.402v4.172C60.768,11.818,60.59,11.998,60.368,11.998z"/>
								</g>
								<path fill="#0F6C82" d="M60.368,7.023c-0.221,0-0.401,0.18-0.401,0.402v2.193c0.133,0.018,0.266,0.027,0.401,0.027
									s0.269-0.01,0.399-0.027V7.426C60.768,7.203,60.59,7.023,60.368,7.023z"/>
								<g>
									<path fill="#8CC4D1" d="M61.77,12.098h-2.803c-0.11,0-0.201-0.09-0.201-0.199c0-0.111,0.091-0.201,0.201-0.201h2.803
										c0.111,0,0.201,0.09,0.201,0.201C61.971,12.008,61.881,12.098,61.77,12.098z"/>
								</g>
								<g>
									<g>
										<path fill="#8CC4D1" d="M60.055,12.799h-0.924c-0.111,0-0.2-0.09-0.2-0.199c0-0.111,0.089-0.201,0.2-0.201h0.924
											c0.11,0,0.199,0.09,0.199,0.201C60.254,12.709,60.165,12.799,60.055,12.799z"/>
									</g>
									<g>
										<path fill="#8CC4D1" d="M61.606,12.799h-0.924c-0.11,0-0.201-0.09-0.201-0.199c0-0.111,0.091-0.201,0.201-0.201h0.924
											c0.111,0,0.2,0.09,0.2,0.201C61.807,12.709,61.718,12.799,61.606,12.799z"/>
									</g>
								</g>
							</g>
							<circle fill="#EA2F73" cx="60.369" cy="5.768" r="3.307"/>
							<path fill="#BC1972" d="M60.368,2.461c1.827,0,3.308,1.48,3.308,3.307c0,1.828-1.48,3.309-3.308,3.309"/>
							<g>
								<path fill="#167F9B" d="M60.757,10.893c-0.087,0.088-0.227,0.088-0.312,0l0,0c-0.086-0.086-0.086-0.227,0-0.312l0.605-0.605
									c0.085-0.086,0.228-0.086,0.312,0l0,0c0.087,0.086,0.087,0.227,0,0.312L60.757,10.893z"/>
								<path fill="#167F9B" d="M60.293,10.1c0.085,0.088,0.085,0.229,0,0.314l0,0c-0.087,0.086-0.228,0.086-0.313,0l-0.605-0.607
									c-0.087-0.086-0.087-0.225,0-0.312l0,0c0.087-0.086,0.226-0.086,0.312,0L60.293,10.1z"/>
							</g>
						</g>
					</g>
				</g>
			</g>
			<g>
				<g>
					<g>
						<g>
							<g>
								<path fill="#167F9B" d="M10.095,50.029c-0.221,0-0.4-0.18-0.4-0.4v-4.174c0-0.221,0.18-0.4,0.4-0.4
									c0.222,0,0.4,0.18,0.4,0.4v4.174C10.495,49.85,10.316,50.029,10.095,50.029z"/>
							</g>
							<path fill="#0F6C82" d="M10.095,45.055c-0.221,0-0.4,0.18-0.4,0.4v2.195c0.132,0.016,0.265,0.027,0.4,0.027
								c0.137,0,0.27-0.012,0.4-0.027v-2.195C10.495,45.234,10.316,45.055,10.095,45.055z"/>
							<g>
								<path fill="#8CC4D1" d="M11.497,50.129H8.693c-0.111,0-0.201-0.09-0.201-0.201s0.09-0.199,0.201-0.199h2.804
									c0.11,0,0.2,0.088,0.2,0.199S11.607,50.129,11.497,50.129z"/>
							</g>
							<g>
								<g>
									<path fill="#8CC4D1" d="M9.781,50.83H8.857c-0.11,0-0.2-0.09-0.2-0.201c0-0.109,0.09-0.201,0.2-0.201h0.924
										c0.11,0,0.2,0.092,0.2,0.201C9.981,50.74,9.892,50.83,9.781,50.83z"/>
								</g>
								<g>
									<path fill="#8CC4D1" d="M11.333,50.83h-0.924c-0.11,0-0.201-0.09-0.201-0.201c0-0.109,0.091-0.201,0.201-0.201h0.924
										c0.111,0,0.2,0.092,0.2,0.201C11.533,50.74,11.444,50.83,11.333,50.83z"/>
								</g>
							</g>
						</g>
						<circle fill="#EA2F73" cx="10.095" cy="43.799" r="3.308"/>
						<path fill="#BC1972" d="M10.095,40.492c1.827,0,3.308,1.48,3.308,3.307s-1.48,3.307-3.308,3.307"/>
						<g>
							<path fill="#167F9B" d="M10.483,48.924c-0.086,0.088-0.227,0.088-0.313,0l0,0c-0.085-0.086-0.085-0.227,0-0.312l0.607-0.605
								c0.085-0.086,0.225-0.086,0.312,0l0,0c0.087,0.086,0.087,0.227,0,0.312L10.483,48.924z"/>
							<path fill="#167F9B" d="M10.02,48.131c0.084,0.086,0.084,0.227,0,0.314l0,0c-0.088,0.086-0.228,0.086-0.313,0L9.1,47.838
								c-0.085-0.086-0.085-0.227,0-0.312l0,0c0.088-0.086,0.228-0.086,0.313,0L10.02,48.131z"/>
						</g>
					</g>
					<g>
						<g>
							<g>
								<g>
									<path fill="#167F9B" d="M4.727,61.738c-0.221,0-0.4-0.18-0.4-0.4v-4.174c0-0.221,0.18-0.4,0.4-0.4
										c0.222,0,0.4,0.18,0.4,0.4v4.174C5.127,61.559,4.948,61.738,4.727,61.738z"/>
								</g>
								<path fill="#0F6C82" d="M4.727,56.764c-0.221,0-0.4,0.18-0.4,0.4v2.195c0.132,0.016,0.265,0.027,0.4,0.027
									c0.137,0,0.27-0.012,0.4-0.027v-2.195C5.127,56.943,4.948,56.764,4.727,56.764z"/>
								<g>
									<path fill="#8CC4D1" d="M6.129,61.838H3.325c-0.11,0-0.201-0.09-0.201-0.201s0.091-0.199,0.201-0.199h2.804
										c0.11,0,0.2,0.088,0.2,0.199S6.239,61.838,6.129,61.838z"/>
								</g>
								<g>
									<g>
										<path fill="#8CC4D1" d="M4.413,62.539H3.489c-0.11,0-0.2-0.09-0.2-0.201c0-0.109,0.09-0.201,0.2-0.201h0.924
											c0.11,0,0.2,0.092,0.2,0.201C4.613,62.449,4.523,62.539,4.413,62.539z"/>
									</g>
									<g>
										<path fill="#8CC4D1" d="M5.965,62.539H5.041c-0.11,0-0.201-0.09-0.201-0.201c0-0.109,0.091-0.201,0.201-0.201h0.924
											c0.111,0,0.2,0.092,0.2,0.201C6.165,62.449,6.076,62.539,5.965,62.539z"/>
									</g>
								</g>
							</g>
							<circle fill="#EA2F73" cx="4.727" cy="55.508" r="3.307"/>
							<path fill="#BC1972" d="M4.727,52.201c1.826,0,3.307,1.48,3.307,3.307s-1.48,3.307-3.307,3.307"/>
							<g>
								<path fill="#167F9B" d="M5.115,60.633c-0.086,0.088-0.227,0.088-0.312,0l0,0c-0.086-0.086-0.086-0.227,0-0.312l0.605-0.605
									c0.086-0.086,0.227-0.086,0.312,0l0,0c0.087,0.086,0.087,0.227,0,0.312L5.115,60.633z"/>
								<path fill="#167F9B" d="M4.652,59.84c0.084,0.086,0.084,0.227,0,0.314l0,0c-0.088,0.086-0.229,0.086-0.314,0l-0.605-0.607
									c-0.086-0.086-0.086-0.227,0-0.312l0,0c0.088-0.086,0.227-0.086,0.312,0L4.652,59.84z"/>
							</g>
						</g>
						<g>
							<g>
								<g>
									<path fill="#167F9B" d="M15.463,61.738c-0.221,0-0.4-0.18-0.4-0.4v-4.174c0-0.221,0.18-0.4,0.4-0.4s0.4,0.18,0.4,0.4v4.174
										C15.863,61.559,15.684,61.738,15.463,61.738z"/>
								</g>
								<path fill="#0F6C82" d="M15.463,56.764c-0.221,0-0.4,0.18-0.4,0.4v2.195c0.132,0.016,0.265,0.027,0.4,0.027
									c0.137,0,0.27-0.012,0.4-0.027v-2.195C15.863,56.943,15.684,56.764,15.463,56.764z"/>
								<g>
									<path fill="#8CC4D1" d="M16.865,61.838h-2.804c-0.11,0-0.2-0.09-0.2-0.201s0.09-0.199,0.2-0.199h2.804
										c0.11,0,0.2,0.088,0.2,0.199S16.976,61.838,16.865,61.838z"/>
								</g>
								<g>
									<g>
										<path fill="#8CC4D1" d="M15.149,62.539h-0.924c-0.11,0-0.2-0.09-0.2-0.201c0-0.109,0.09-0.201,0.2-0.201h0.924
											c0.11,0,0.2,0.092,0.2,0.201C15.35,62.449,15.26,62.539,15.149,62.539z"/>
									</g>
									<g>
										<path fill="#8CC4D1" d="M16.701,62.539h-0.924c-0.111,0-0.201-0.09-0.201-0.201c0-0.109,0.09-0.201,0.201-0.201h0.924
											c0.111,0,0.201,0.092,0.201,0.201C16.902,62.449,16.812,62.539,16.701,62.539z"/>
									</g>
								</g>
							</g>
							<circle fill="#EA2F73" cx="15.463" cy="55.508" r="3.307"/>
							<path fill="#BC1972" d="M15.463,52.201c1.827,0,3.307,1.48,3.307,3.307s-1.479,3.307-3.307,3.307"/>
							<g>
								<path fill="#167F9B" d="M15.852,60.633c-0.086,0.088-0.227,0.088-0.312,0l0,0c-0.086-0.086-0.086-0.227,0-0.312l0.605-0.605
									c0.086-0.086,0.227-0.086,0.312,0l0,0c0.087,0.086,0.087,0.227,0,0.312L15.852,60.633z"/>
								<path fill="#167F9B" d="M15.387,59.84c0.086,0.086,0.086,0.227,0,0.314l0,0c-0.086,0.086-0.227,0.086-0.312,0l-0.605-0.607
									c-0.086-0.086-0.086-0.227,0-0.312l0,0c0.087-0.086,0.227-0.086,0.312,0L15.387,59.84z"/>
							</g>
						</g>
					</g>
				</g>
				<g>
					<g>
						<g>
							<g>
								<path fill="#167F9B" d="M54.904,50.029c-0.221,0-0.4-0.18-0.4-0.4v-4.174c0-0.221,0.18-0.4,0.4-0.4
									c0.222,0,0.4,0.18,0.4,0.4v4.174C55.305,49.85,55.126,50.029,54.904,50.029z"/>
							</g>
							<path fill="#0F6C82" d="M54.904,45.055c-0.221,0-0.4,0.18-0.4,0.4v2.195c0.131,0.016,0.264,0.027,0.4,0.027
								s0.27-0.012,0.4-0.027v-2.195C55.305,45.234,55.126,45.055,54.904,45.055z"/>
							<g>
								<path fill="#8CC4D1" d="M56.307,50.129h-2.805c-0.109,0-0.2-0.09-0.2-0.201s0.091-0.199,0.2-0.199h2.805
									c0.11,0,0.2,0.088,0.2,0.199S56.417,50.129,56.307,50.129z"/>
							</g>
							<g>
								<g>
									<path fill="#8CC4D1" d="M54.591,50.83h-0.925c-0.109,0-0.199-0.09-0.199-0.201c0-0.109,0.09-0.201,0.199-0.201h0.925
										c0.11,0,0.2,0.092,0.2,0.201C54.791,50.74,54.701,50.83,54.591,50.83z"/>
								</g>
								<g>
									<path fill="#8CC4D1" d="M56.143,50.83h-0.924c-0.11,0-0.201-0.09-0.201-0.201c0-0.109,0.091-0.201,0.201-0.201h0.924
										c0.111,0,0.2,0.092,0.2,0.201C56.343,50.74,56.254,50.83,56.143,50.83z"/>
								</g>
							</g>
						</g>
						<circle fill="#EA2F73" cx="54.905" cy="43.799" r="3.307"/>
						<path fill="#BC1972" d="M54.904,40.492c1.827,0,3.308,1.48,3.308,3.307s-1.48,3.307-3.308,3.307"/>
						<g>
							<path fill="#167F9B" d="M55.293,48.924c-0.086,0.088-0.227,0.088-0.312,0l0,0c-0.086-0.086-0.086-0.227,0-0.312l0.605-0.605
								c0.086-0.086,0.227-0.086,0.312,0l0,0c0.088,0.086,0.088,0.227,0,0.312L55.293,48.924z"/>
							<path fill="#167F9B" d="M54.829,48.131c0.085,0.086,0.085,0.227,0,0.314l0,0c-0.087,0.086-0.228,0.086-0.313,0l-0.605-0.607
								c-0.086-0.086-0.086-0.227,0-0.312l0,0c0.087-0.086,0.227-0.086,0.312,0L54.829,48.131z"/>
						</g>
					</g>
					<g>
						<g>
							<g>
								<g>
									<path fill="#167F9B" d="M49.536,61.738c-0.221,0-0.401-0.18-0.401-0.4v-4.174c0-0.221,0.181-0.4,0.401-0.4
										c0.222,0,0.399,0.18,0.399,0.4v4.174C49.936,61.559,49.758,61.738,49.536,61.738z"/>
								</g>
								<path fill="#0F6C82" d="M49.536,56.764c-0.221,0-0.401,0.18-0.401,0.4v2.195c0.133,0.016,0.266,0.027,0.401,0.027
									c0.137,0,0.27-0.012,0.399-0.027v-2.195C49.936,56.943,49.758,56.764,49.536,56.764z"/>
								<g>
									<path fill="#8CC4D1" d="M50.938,61.838h-2.804c-0.11,0-0.201-0.09-0.201-0.201s0.091-0.199,0.201-0.199h2.804
										c0.11,0,0.2,0.088,0.2,0.199S51.049,61.838,50.938,61.838z"/>
								</g>
								<g>
									<g>
										<path fill="#8CC4D1" d="M49.223,62.539h-0.924c-0.11,0-0.2-0.09-0.2-0.201c0-0.109,0.09-0.201,0.2-0.201h0.924
											c0.11,0,0.2,0.092,0.2,0.201C49.423,62.449,49.333,62.539,49.223,62.539z"/>
									</g>
									<g>
										<path fill="#8CC4D1" d="M50.774,62.539h-0.924c-0.11,0-0.201-0.09-0.201-0.201c0-0.109,0.091-0.201,0.201-0.201h0.924
											c0.111,0,0.2,0.092,0.2,0.201C50.975,62.449,50.886,62.539,50.774,62.539z"/>
									</g>
								</g>
							</g>
							<circle fill="#EA2F73" cx="49.537" cy="55.508" r="3.307"/>
							<path fill="#BC1972" d="M49.536,52.201c1.827,0,3.308,1.48,3.308,3.307s-1.48,3.307-3.308,3.307"/>
							<g>
								<path fill="#167F9B" d="M49.925,60.633c-0.086,0.088-0.227,0.088-0.312,0l0,0c-0.085-0.086-0.085-0.227,0-0.312l0.605-0.605
									c0.085-0.086,0.227-0.086,0.312,0l0,0c0.087,0.086,0.087,0.227,0,0.312L49.925,60.633z"/>
								<path fill="#167F9B" d="M49.461,59.84c0.085,0.086,0.085,0.227,0,0.314l0,0c-0.087,0.086-0.228,0.086-0.313,0l-0.605-0.607
									c-0.086-0.086-0.086-0.227,0-0.312l0,0c0.087-0.086,0.226-0.086,0.312,0L49.461,59.84z"/>
							</g>
						</g>
						<g>
							<g>
								<g>
									<path fill="#167F9B" d="M60.272,61.738c-0.222,0-0.4-0.18-0.4-0.4v-4.174c0-0.221,0.179-0.4,0.4-0.4s0.4,0.18,0.4,0.4
										v4.174C60.673,61.559,60.494,61.738,60.272,61.738z"/>
								</g>
								<path fill="#0F6C82" d="M60.272,56.764c-0.222,0-0.4,0.18-0.4,0.4v2.195c0.132,0.016,0.265,0.027,0.4,0.027
									c0.137,0,0.27-0.012,0.4-0.027v-2.195C60.673,56.943,60.494,56.764,60.272,56.764z"/>
								<g>
									<path fill="#8CC4D1" d="M61.675,61.838h-2.804c-0.11,0-0.201-0.09-0.201-0.201s0.091-0.199,0.201-0.199h2.804
										c0.11,0,0.2,0.088,0.2,0.199S61.785,61.838,61.675,61.838z"/>
								</g>
								<g>
									<g>
										<path fill="#8CC4D1" d="M59.959,62.539h-0.924c-0.11,0-0.201-0.09-0.201-0.201c0-0.109,0.091-0.201,0.201-0.201h0.924
											c0.111,0,0.2,0.092,0.2,0.201C60.159,62.449,60.07,62.539,59.959,62.539z"/>
									</g>
									<g>
										<path fill="#8CC4D1" d="M61.511,62.539h-0.925c-0.109,0-0.2-0.09-0.2-0.201c0-0.109,0.091-0.201,0.2-0.201h0.925
											c0.111,0,0.2,0.092,0.2,0.201C61.711,62.449,61.622,62.539,61.511,62.539z"/>
									</g>
								</g>
							</g>
							<circle fill="#EA2F73" cx="60.273" cy="55.508" r="3.307"/>
							<path fill="#BC1972" d="M60.272,52.201c1.827,0,3.308,1.48,3.308,3.307s-1.48,3.307-3.308,3.307"/>
							<g>
								<path fill="#167F9B" d="M60.661,60.633c-0.086,0.088-0.227,0.088-0.312,0l0,0c-0.086-0.086-0.086-0.227,0-0.312l0.604-0.605
									c0.087-0.086,0.228-0.086,0.313,0l0,0c0.087,0.086,0.087,0.227,0,0.312L60.661,60.633z"/>
								<path fill="#167F9B" d="M60.197,59.84c0.085,0.086,0.085,0.227,0,0.314l0,0c-0.086,0.086-0.228,0.086-0.314,0l-0.604-0.607
									c-0.085-0.086-0.085-0.227,0-0.312l0,0c0.087-0.086,0.226-0.086,0.312,0L60.197,59.84z"/>
							</g>
						</g>
					</g>
				</g>
			</g>
		</g>
	</g>
</g>
<g id="nyt_x5F_exporter_x5F_info" display="none">
</g>
</svg>
