<?xml version="1.0" encoding="utf-8"?>
<!-- Generator: Adobe Illustrator 16.0.0, SVG Export Plug-In . SVG Version: 6.00 Build 0)  -->
<!DOCTYPE svg PUBLIC "-//W3C//DTD SVG 1.1//EN" "http://www.w3.org/Graphics/SVG/1.1/DTD/svg11.dtd">
<svg version="1.1" id="Layer_1" xmlns="http://www.w3.org/2000/svg" xmlns:xlink="http://www.w3.org/1999/xlink" x="0px" y="0px"
	 width="65px" height="65px" viewBox="0 0 65 65" enable-background="new 0 0 65 65" xml:space="preserve">
<g>
	<path fill="#B9D4DB" d="M64.5,60.459c0,2.231-1.811,4.041-4.043,4.041H4.542C2.31,64.5,0.5,62.69,0.5,60.459V4.543
		C0.5,2.311,2.31,0.5,4.542,0.5h55.915c2.232,0,4.043,1.811,4.043,4.043V60.459z"/>
	<path fill="#A5C4CE" d="M60.457,0.5c2.232,0,4.043,1.811,4.043,4.043v55.916c0,2.231-1.811,4.041-4.043,4.041H4.542
		C2.31,64.5,0.5,62.69,0.5,60.459"/>
	<path fill="#133F7F" d="M57.362,13.197L45.551,6.378c-0.772-0.447-1.726-0.447-2.5,0L32.5,12.471L21.948,6.378
		c-0.773-0.447-1.727-0.447-2.5,0L7.637,13.197c-0.772,0.446-1.25,1.271-1.25,2.165V29c0,0.894,0.478,1.719,1.25,2.166l10.554,6.093
		v12.378c0,0.893,0.476,1.718,1.25,2.165l11.809,6.82c0.386,0.224,0.818,0.335,1.249,0.335c0.433,0,0.864-0.111,1.251-0.335
		l11.812-6.82c0.773-0.446,1.25-1.271,1.25-2.165V37.258l10.552-6.092c0.772-0.447,1.25-1.272,1.25-2.166V15.362
		C58.612,14.469,58.135,13.644,57.362,13.197z M11.387,16.806l9.312-5.376l9.293,5.365v10.772l-9.293,5.366l-9.312-5.377V16.806z
		 M41.811,48.193l-9.312,5.377l-9.308-5.377V37.442l9.308-5.376l9.312,5.376V48.193z M53.612,27.557l-9.311,5.377l-9.292-5.366
		V16.795l9.292-5.365l9.311,5.376V27.557z"/>
	<path fill="#0D2A4C" d="M53.612,16.806v10.751l-9.311,5.377l-9.292-5.366v-1.619l-11.049,11.05l8.537-4.932l9.312,5.376v10.751
		l-9.312,5.377l-9.308-5.377V37.768l-5,5v6.869c0,0.893,0.476,1.718,1.25,2.165l11.809,6.82c0.386,0.224,0.818,0.335,1.249,0.335
		c0.433,0,0.864-0.111,1.251-0.335l11.812-6.82c0.773-0.446,1.25-1.271,1.25-2.165V37.258l10.552-6.092
		c0.772-0.447,1.25-1.272,1.25-2.166V15.362c0-0.894-0.478-1.719-1.25-2.165l-6.087-3.515l-3.66,3.66L53.612,16.806z"/>
</g>
</svg>
