<?xml version="1.0" encoding="utf-8"?>
<!-- Generator: Adobe Illustrator 16.0.0, SVG Export Plug-In . SVG Version: 6.00 Build 0)  -->
<!DOCTYPE svg PUBLIC "-//W3C//DTD SVG 1.1//EN" "http://www.w3.org/Graphics/SVG/1.1/DTD/svg11.dtd">
<svg version="1.1" id="Layer_1" xmlns="http://www.w3.org/2000/svg" xmlns:xlink="http://www.w3.org/1999/xlink" x="0px" y="0px"
	 width="65px" height="65px" viewBox="0 0 65 65" enable-background="new 0 0 65 65" xml:space="preserve">
<g>
	<g>
		<g>
			<g>
				<g>
					<g>
						<path fill="#87915A" d="M33.895,36.127c-1.273-1.432-0.465-4.229,1.805-6.25c2.27-2.018,14.475-10.792,15.75-9.365
							c1.271,1.434-8.873,12.533-11.143,14.551C38.039,37.08,35.168,37.557,33.895,36.127z"/>
						<path fill="#656B43" d="M31.105,36.127c1.273-1.432,0.465-4.229-1.805-6.25c-2.27-2.018-14.475-10.792-15.75-9.365
							c-1.271,1.434,8.873,12.533,11.143,14.551C26.961,37.08,29.832,37.557,31.105,36.127z"/>
					</g>
					<g>
						<path fill="#3D7034" d="M29.473,46.446c0,2.476-2.008,15.827-4.486,15.827c-2.475,0-4.482-13.352-4.482-15.827
							s2.008-4.484,4.482-4.484C27.465,41.962,29.473,43.971,29.473,46.446z"/>
						<path fill="#3D7034" d="M44.498,46.446c0,2.476-2.008,15.827-4.486,15.827c-2.475,0-4.482-13.352-4.482-15.827
							s2.008-4.484,4.482-4.484C42.49,41.962,44.498,43.971,44.498,46.446z"/>
					</g>
					<path fill="#87915A" d="M45.15,40.521c0,16.038-5.662,10.697-12.65,10.697c-6.986,0-12.65,5.341-12.65-10.697
						c0-9.17,5.666-16.603,12.65-16.603C39.486,23.919,45.15,31.352,45.15,40.521z"/>
					<polygon fill="#363B7F" points="33.905,29.021 29.547,35.083 27.188,29.021 30.547,25.661 					"/>
					<g>
						<path fill="#3D3C39" d="M30.033,62.354c0,1.896-2.26,2.146-5.045,2.146s-5.045-0.249-5.045-2.146
							c0-1.897,2.26-4.508,5.045-4.508S30.033,60.457,30.033,62.354z"/>
						<path fill="#1C1B1A" d="M30.033,62.354c0,1.896-2.26,2.146-5.045,2.146s-5.045-0.249-5.045-2.146"/>
					</g>
					<g>
						<path fill="#3D3C39" d="M45.059,62.354c0,1.896-2.26,2.146-5.045,2.146s-5.045-0.249-5.045-2.146
							c0-1.897,2.26-4.508,5.045-4.508S45.059,60.457,45.059,62.354z"/>
						<path fill="#1C1B1A" d="M45.059,62.354c0,1.896-2.26,2.146-5.045,2.146s-5.045-0.249-5.045-2.146"/>
					</g>
					<g>
						<path fill="#EFC286" d="M48.871,16.275c0,7.999-7.33,12.02-16.369,12.02c-9.041,0-16.373-4.021-16.373-12.02
							c0-8.001,7.332-15.775,16.373-15.775C41.541,0.5,48.871,8.274,48.871,16.275z"/>
						<path fill="#E8B374" d="M48.871,16.275c0,7.999-7.33,12.02-16.369,12.02c-9.041,0-16.373-4.021-16.373-12.02"/>
					</g>
					<g>
						<g>
							<g>
								<path fill="#232728" d="M25.498,18.281c-0.076,0-0.157-0.028-0.219-0.091c-0.714-0.714-1.664-1.107-2.67-1.107h-0.003
									c-1.009,0-1.954,0.394-2.666,1.106c-0.12,0.121-0.316,0.124-0.435,0.001c-0.123-0.117-0.125-0.312-0.006-0.434
									c0.831-0.831,1.932-1.29,3.106-1.29h0.003c1.174,0,2.277,0.456,3.109,1.288c0.121,0.119,0.121,0.318,0,0.436
									C25.659,18.253,25.58,18.281,25.498,18.281z"/>
							</g>
						</g>
						<g>
							<g>
								<path fill="#232728" d="M35.294,18.281c0.075,0,0.155-0.028,0.217-0.091c0.715-0.714,1.664-1.107,2.671-1.107h0.002
									c1.01,0,1.958,0.394,2.668,1.106c0.119,0.121,0.314,0.124,0.436,0.001c0.122-0.117,0.124-0.312,0.003-0.434
									c-0.825-0.831-1.931-1.29-3.106-1.29h-0.002c-1.173,0-2.276,0.456-3.111,1.288c-0.117,0.119-0.117,0.318,0,0.436
									C35.133,18.253,35.212,18.281,35.294,18.281z"/>
							</g>
						</g>
					</g>
				</g>
				<path fill="#A7B1B7" d="M35.084,45.298"/>
			</g>
		</g>
	</g>
	<g>
		<path fill="#59472E" d="M30.068,30c10.125,0.291,18.803-5.726,18.803-13.725c0-3.533-1.434-7.019-3.807-9.813l-3.393,0.496
			c0,0,1.5,9.75,4.5,10.375c0,0,0.438,5.5-3.188,7.5s-5.312,3.063-11.437,2.813l-1.313-2.063l-1.5,2c0,0-2.207,0.458-7.146-1.833
			c0.836,0.251,0.659,1.631,1.729,1.958C24.902,28.895,28.229,29.947,30.068,30z"/>
	</g>
	<path fill="#A50C59" d="M19.131,7.5h26.738c-2.963-4.087-7.841-7-13.367-7C26.975,0.5,22.096,3.413,19.131,7.5z"/>
	<path fill="#C11162" d="M32.502,0.5c-4.572,0-8.699,1.997-11.668,5h23.332C41.199,2.497,37.074,0.5,32.502,0.5z"/>
	<g>
		<path fill="#59472E" d="M29.955,21.396c0,0-2.39,0.08-3.402,0.324c-1.012,0.242-0.972,2.186-0.972,2.551
			c0,0,0.446-1.701,1.741-1.498c1.295,0.202,2.188,0.485,2.592-0.203C30.318,21.882,29.955,21.396,29.955,21.396z"/>
		<path fill="#59472E" d="M29.944,21.396c0,0,2.39,0.08,3.401,0.324c1.012,0.242,0.973,2.186,0.973,2.551
			c0,0-0.446-1.701-1.742-1.498c-1.295,0.202-2.187,0.485-2.592-0.203C29.58,21.882,29.944,21.396,29.944,21.396z"/>
	</g>
</g>
</svg>
