<?xml version="1.0" encoding="utf-8"?>
<!-- Generator: Adobe Illustrator 16.0.0, SVG Export Plug-In . SVG Version: 6.00 Build 0)  -->
<!DOCTYPE svg PUBLIC "-//W3C//DTD SVG 1.1//EN" "http://www.w3.org/Graphics/SVG/1.1/DTD/svg11.dtd">
<svg version="1.1" id="Layer_1" xmlns="http://www.w3.org/2000/svg" xmlns:xlink="http://www.w3.org/1999/xlink" x="0px" y="0px"
	 width="64px" height="64px" viewBox="0 0 64 64" enable-background="new 0 0 64 64" xml:space="preserve">
<g>
	<path fill="#525959" d="M37.2,19.2c0,0.5-0.4,0.8-0.9,0.8h-9.4c-0.5,0-0.9-0.3-0.9-0.8L28.6,2c0-0.5,0.4-1,0.9-1h3.8
		c0.5,0,0.9,0.5,0.9,1L37.2,19.2z"/>
	<path fill="#212828" d="M33.4,1c0.5,0,0.9,0.5,0.9,1l2.8,17.3c0,0.5-0.4,0.9-0.9,0.9"/>
	<path fill="#646D6D" d="M26.8,20.3c-0.5,0-0.9-0.4-0.9-0.9L28.6,2c0-0.5,0.4-1,0.9-1"/>
	<path fill="#646D6D" d="M57.2,47.2c0,13.9-11.3,11.6-25.2,11.6S6.8,61.1,6.8,47.2c0-13.9,11.3-25.7,25.2-25.7S57.2,33.3,57.2,47.2z
		"/>
	<path fill="#707A7A" d="M6.8,47.2c0-13.9,11.3-25.7,25.2-25.7"/>
	<path fill="#5F6666" d="M32,21.5c13.9,0,25.2,11.8,25.2,25.7c0,13.9-11.3,11.6-25.2,11.6"/>
	<path fill="#525959" d="M32,21.5c13.9,0,25.2,11.8,25.2,25.7"/>
	<polygon fill="#5F6666" points="62.2,57 1.8,57 5.7,50 58.3,50 	"/>
	<polyline fill="#4F5656" points="6,50 58.3,50 62.3,57.1 	"/>
	<path fill="#757A7A" d="M63,58.8c0,2.2-0.8,4.2-2.9,4.2H3.9C1.8,63,1,60.9,1,58.8V58c0-2.2,1.7-4,3.9-4h54.2c2.2,0,3.9,1.9,3.9,4
		V58.8z"/>
	<path fill="#5F6666" d="M63,58v0.8c0,2.2-0.8,4.2-2.9,4.2H3.9C1.8,63,1,60.9,1,58.8V58"/>
	<path fill="#757A7A" d="M59.1,48.5c0,0.4-0.3,0.5-0.6,0.5H5.7C5.3,49,5,48.9,5,48.5l0,0C5,48.1,5.3,48,5.7,48h52.8
		C58.8,48,59.1,48.1,59.1,48.5L59.1,48.5z"/>
	<path fill="#5F6666" d="M59.1,49.5c0,0.4-0.3,0.5-0.6,0.5H5.7C5.3,50,5,49.9,5,49.5l0,0C5,49.1,5.3,49,5.7,49h52.8
		C58.8,49,59.1,49.1,59.1,49.5L59.1,49.5z"/>
	<path fill="#687272" d="M39.8,21c0,1.3,0.9,2-0.4,2H24.6c-1.3,0-0.4-0.7-0.4-2l0,0c0-1.3,1-2,2.3-2h11C38.8,19,39.8,19.7,39.8,21
		L39.8,21z"/>
	<path fill="#8D9393" d="M24.2,21.2L24.2,21.2c-0.1-1.4,1-2.2,2.3-2.2h11c1.3,0,2.4,0.7,2.3,2.2l0,0"/>
	<g>
		<g>
			<g>
				<polygon fill="#646D6D" points="43.1,26.7 41.4,29.5 39.7,26.7 41.4,25 				"/>
				<polygon fill="#7E8787" points="43.1,26.7 41.4,28.4 39.7,26.7 41.4,24.7 				"/>
				
					<rect x="40.2" y="25.5" transform="matrix(0.7067 -0.7075 0.7075 0.7067 -6.7443 37.1395)" fill="#383F3F" width="2.4" height="2.4"/>
				
					<rect x="40.5" y="26" transform="matrix(-0.7069 -0.7074 0.7074 -0.7069 51.5937 75.4109)" fill="#212828" width="1.9" height="1.9"/>
			</g>
			<g>
				<g>
					<polygon fill="#646D6D" points="24.3,26.7 22.6,29.5 20.9,26.7 22.6,25 					"/>
					<polygon fill="#7E8787" points="24.3,26.7 22.6,28.4 20.9,26.7 22.6,24.7 					"/>
					
						<rect x="21.4" y="25.5" transform="matrix(0.7069 -0.7073 0.7073 0.7069 -12.2707 23.7964)" fill="#383F3F" width="2.4" height="2.4"/>
					
						<rect x="21.6" y="26" transform="matrix(-0.7069 -0.7074 0.7074 -0.7069 19.4269 62.0802)" fill="#212828" width="1.9" height="1.9"/>
				</g>
				<g>
					<polygon fill="#646D6D" points="30.5,26.7 28.9,29.5 27.2,26.7 28.9,25 					"/>
					<polygon fill="#7E8787" points="30.5,26.7 28.9,28.4 27.2,26.7 28.9,24.7 					"/>
					
						<rect x="27.7" y="25.5" transform="matrix(0.7067 -0.7075 0.7075 0.7067 -10.4292 28.2506)" fill="#383F3F" width="2.4" height="2.4"/>
					
						<rect x="27.9" y="26" transform="matrix(-0.7069 -0.7074 0.7074 -0.7069 30.1497 66.524)" fill="#212828" width="1.9" height="1.9"/>
				</g>
				<g>
					<polygon fill="#646D6D" points="36.8,26.7 35.1,29.5 33.5,26.7 35.1,25 					"/>
					<polygon fill="#7E8787" points="36.8,26.7 35.1,28.4 33.5,26.7 35.1,24.7 					"/>
					
						<rect x="34" y="25.5" transform="matrix(0.7069 -0.7073 0.7073 0.7069 -8.5883 32.6827)" fill="#383F3F" width="2.4" height="2.4"/>
					
						<rect x="34.2" y="26" transform="matrix(-0.7069 -0.7074 0.7074 -0.7069 40.8709 70.9671)" fill="#212828" width="1.9" height="1.9"/>
				</g>
			</g>
		</g>
		<g>
			<g>
				<polygon fill="#646D6D" points="43.1,32.6 41.4,35.3 39.7,32.6 41.4,30.9 				"/>
				<polygon fill="#7E8787" points="43.1,32.6 41.4,34.2 39.7,32.6 41.4,30.5 				"/>
				
					<rect x="40.2" y="31.4" transform="matrix(0.7071 -0.7071 0.7071 0.7071 -10.8852 38.8242)" fill="#383F3F" width="2.4" height="2.4"/>
				
					<rect x="40.5" y="31.9" transform="matrix(-0.7074 -0.7069 0.7069 -0.7074 47.4948 85.3877)" fill="#212828" width="1.9" height="1.9"/>
			</g>
			<g>
				<g>
					<polygon fill="#646D6D" points="18,32.6 16.3,35.3 14.6,32.6 16.3,30.9 					"/>
					<polygon fill="#7E8787" points="18,32.6 16.3,34.2 14.6,32.6 16.3,30.5 					"/>
					
						<rect x="15.1" y="31.4" transform="matrix(0.7071 -0.7071 0.7071 0.7071 -18.2448 21.0568)" fill="#383F3F" width="2.4" height="2.4"/>
					
						<rect x="15.3" y="31.9" transform="matrix(-0.7074 -0.7069 0.7069 -0.7074 4.5941 67.6266)" fill="#212828" width="1.9" height="1.9"/>
				</g>
				<g>
					<polygon fill="#646D6D" points="24.3,32.6 22.6,35.3 20.9,32.6 22.6,30.9 					"/>
					<polygon fill="#7E8787" points="24.3,32.6 22.6,34.2 20.9,32.6 22.6,30.5 					"/>
					
						<rect x="21.4" y="31.4" transform="matrix(0.7073 -0.7069 0.7069 0.7073 -16.4027 25.4876)" fill="#383F3F" width="2.4" height="2.4"/>
					
						<rect x="21.6" y="31.9" transform="matrix(-0.7074 -0.7069 0.7069 -0.7074 15.3184 72.0665)" fill="#212828" width="1.9" height="1.9"/>
				</g>
				<g>
					<polygon fill="#646D6D" points="30.5,32.6 28.9,35.3 27.2,32.6 28.9,30.9 					"/>
					<polygon fill="#7E8787" points="30.5,32.6 28.9,34.2 27.2,32.6 28.9,30.5 					"/>
					
						<rect x="27.7" y="31.4" transform="matrix(0.7071 -0.7071 0.7071 0.7071 -14.565 29.9405)" fill="#383F3F" width="2.4" height="2.4"/>
					
						<rect x="27.9" y="31.9" transform="matrix(-0.7074 -0.7069 0.7069 -0.7074 26.0445 76.5071)" fill="#212828" width="1.9" height="1.9"/>
				</g>
				<g>
					<polygon fill="#646D6D" points="36.8,32.6 35.1,35.3 33.5,32.6 35.1,30.9 					"/>
					<polygon fill="#7E8787" points="36.8,32.6 35.1,34.2 33.5,32.6 35.1,30.5 					"/>
					
						<rect x="34" y="31.4" transform="matrix(0.7073 -0.7069 0.7069 0.7073 -12.7255 34.3688)" fill="#383F3F" width="2.4" height="2.4"/>
					
						<rect x="34.2" y="31.9" transform="matrix(-0.7074 -0.7069 0.7069 -0.7074 36.7688 80.9471)" fill="#212828" width="1.9" height="1.9"/>
				</g>
				<g>
					<polygon fill="#646D6D" points="49.4,32.6 47.7,35.3 46,32.6 47.7,30.9 					"/>
					<polygon fill="#7E8787" points="49.4,32.6 47.7,34.2 46,32.6 47.7,30.5 					"/>
					
						<rect x="46.5" y="31.4" transform="matrix(0.7073 -0.7069 0.7069 0.7073 -9.0483 43.2499)" fill="#383F3F" width="2.4" height="2.4"/>
					
						<rect x="46.7" y="31.9" transform="matrix(-0.7074 -0.7069 0.7069 -0.7074 58.2192 89.8276)" fill="#212828" width="1.9" height="1.9"/>
				</g>
			</g>
		</g>
		<g>
			<g>
				<polygon fill="#646D6D" points="46.2,38.4 44.6,41.2 42.9,38.4 44.6,36.7 				"/>
				<polygon fill="#7E8787" points="46.2,38.4 44.6,40.1 42.9,38.4 44.6,36.4 				"/>
				
					<rect x="43.4" y="37.2" transform="matrix(0.7065 -0.7077 0.7077 0.7065 -14.0949 42.8086)" fill="#383F3F" width="2.4" height="2.4"/>
				
					<rect x="43.6" y="37.7" transform="matrix(-0.7069 -0.7074 0.7074 -0.7069 48.6815 97.5947)" fill="#212828" width="1.9" height="1.9"/>
			</g>
			<g>
				<g>
					<polygon fill="#646D6D" points="14.8,38.4 13.2,41.2 11.5,38.4 13.2,36.7 					"/>
					<polygon fill="#7E8787" points="14.8,38.4 13.2,40.1 11.5,38.4 13.2,36.4 					"/>
					
						<rect x="12" y="37.2" transform="matrix(0.7064 -0.7078 0.7078 0.7064 -23.3163 20.5853)" fill="#383F3F" width="2.4" height="2.4"/>
					
						<rect x="12.2" y="37.7" transform="matrix(-0.7067 -0.7075 0.7075 -0.7067 -4.9351 75.3742)" fill="#212828" width="1.9" height="1.9"/>
				</g>
				<g>
					<polygon fill="#646D6D" points="21.1,38.4 19.4,41.2 17.8,38.4 19.4,36.7 					"/>
					<polygon fill="#7E8787" points="21.1,38.4 19.4,40.1 17.8,38.4 19.4,36.4 					"/>
					
						<rect x="18.2" y="37.2" transform="matrix(0.7065 -0.7077 0.7077 0.7065 -21.47 25.0257)" fill="#383F3F" width="2.4" height="2.4"/>
					
						<rect x="18.5" y="37.7" transform="matrix(-0.7069 -0.7074 0.7074 -0.7069 5.7935 79.8209)" fill="#212828" width="1.9" height="1.9"/>
				</g>
				<g>
					<polygon fill="#646D6D" points="27.4,38.4 25.7,41.2 24,38.4 25.7,36.7 					"/>
					<polygon fill="#7E8787" points="27.4,38.4 25.7,40.1 24,38.4 25.7,36.4 					"/>
					
						<rect x="24.5" y="37.2" transform="matrix(0.7064 -0.7078 0.7078 0.7064 -19.6275 29.478)" fill="#383F3F" width="2.4" height="2.4"/>
					
						<rect x="24.8" y="37.7" transform="matrix(-0.7067 -0.7075 0.7075 -0.7067 16.5074 84.2627)" fill="#212828" width="1.9" height="1.9"/>
				</g>
				<g>
					<polygon fill="#646D6D" points="33.7,38.4 32,41.2 30.3,38.4 32,36.7 					"/>
					<polygon fill="#7E8787" points="33.7,38.4 32,40.1 30.3,38.4 32,36.4 					"/>
					
						<rect x="30.8" y="37.2" transform="matrix(0.7065 -0.7077 0.7077 0.7065 -17.7824 33.9172)" fill="#383F3F" width="2.4" height="2.4"/>
					
						<rect x="31" y="37.7" transform="matrix(-0.7069 -0.7074 0.7074 -0.7069 27.2375 88.7078)" fill="#212828" width="1.9" height="1.9"/>
				</g>
				<g>
					<polygon fill="#646D6D" points="40,38.4 38.3,41.2 36.6,38.4 38.3,36.7 					"/>
					<polygon fill="#7E8787" points="40,38.4 38.3,40.1 36.6,38.4 38.3,36.4 					"/>
					
						<rect x="37.1" y="37.2" transform="matrix(0.7064 -0.7078 0.7078 0.7064 -15.9387 38.3708)" fill="#383F3F" width="2.4" height="2.4"/>
					
						<rect x="37.3" y="37.7" transform="matrix(-0.7067 -0.7075 0.7075 -0.7067 37.9498 93.1511)" fill="#212828" width="1.9" height="1.9"/>
				</g>
				<g>
					<polygon fill="#646D6D" points="52.5,38.4 50.8,41.2 49.2,38.4 50.8,36.7 					"/>
					<polygon fill="#7E8787" points="52.5,38.4 50.8,40.1 49.2,38.4 50.8,36.4 					"/>
					
						<rect x="49.7" y="37.2" transform="matrix(0.7064 -0.7078 0.7078 0.7064 -12.2499 47.2635)" fill="#383F3F" width="2.4" height="2.4"/>
					
						<rect x="49.9" y="37.7" transform="matrix(-0.7067 -0.7075 0.7075 -0.7067 59.3922 102.0396)" fill="#212828" width="1.9" height="1.9"/>
				</g>
			</g>
		</g>
		<g>
			<g>
				<polygon fill="#646D6D" points="46.2,44.2 44.6,47 42.9,44.2 44.6,42.6 				"/>
				<polygon fill="#7E8787" points="46.2,44.2 44.6,45.9 42.9,44.2 44.6,42.2 				"/>
				
					<rect x="43.4" y="43.1" transform="matrix(0.7069 -0.7073 0.7073 0.7069 -18.2336 44.4885)" fill="#383F3F" width="2.4" height="2.4"/>
				
					<rect x="43.6" y="43.6" transform="matrix(-0.7074 -0.7069 0.7069 -0.7074 44.5901 107.5757)" fill="#212828" width="1.9" height="1.9"/>
			</g>
			<g>
				<g>
					<polygon fill="#646D6D" points="14.8,44.2 13.2,47 11.5,44.2 13.2,42.6 					"/>
					<polygon fill="#7E8787" points="14.8,44.2 13.2,45.9 11.5,44.2 13.2,42.2 					"/>
					
						<rect x="12" y="43.1" transform="matrix(0.7068 -0.7074 0.7074 0.7068 -27.4427 22.2786)" fill="#383F3F" width="2.4" height="2.4"/>
					
						<rect x="12.2" y="43.6" transform="matrix(-0.7072 -0.707 0.707 -0.7072 -9.0431 85.3704)" fill="#212828" width="1.9" height="1.9"/>
				</g>
				<g>
					<polygon fill="#646D6D" points="21.1,44.2 19.4,47 17.8,44.2 19.4,42.6 					"/>
					<polygon fill="#7E8787" points="21.1,44.2 19.4,45.9 17.8,44.2 19.4,42.2 					"/>
					
						<rect x="18.2" y="43.1" transform="matrix(0.7069 -0.7073 0.7073 0.7069 -25.5983 26.7159)" fill="#383F3F" width="2.4" height="2.4"/>
					
						<rect x="18.5" y="43.6" transform="matrix(-0.7074 -0.7069 0.7069 -0.7074 1.6894 89.8147)" fill="#212828" width="1.9" height="1.9"/>
				</g>
				<g>
					<polygon fill="#646D6D" points="27.4,44.2 25.7,47 24,44.2 25.7,42.6 					"/>
					<polygon fill="#7E8787" points="27.4,44.2 25.7,45.9 24,44.2 25.7,42.2 					"/>
					
						<rect x="24.5" y="43.1" transform="matrix(0.7068 -0.7074 0.7074 0.7068 -23.759 31.1662)" fill="#383F3F" width="2.4" height="2.4"/>
					
						<rect x="24.8" y="43.6" transform="matrix(-0.7072 -0.707 0.707 -0.7072 12.4057 94.2525)" fill="#212828" width="1.9" height="1.9"/>
				</g>
				<g>
					<polygon fill="#646D6D" points="33.7,44.2 32,47 30.3,44.2 32,42.6 					"/>
					<polygon fill="#7E8787" points="33.7,44.2 32,45.9 30.3,44.2 32,42.2 					"/>
					
						<rect x="30.8" y="43.1" transform="matrix(0.7069 -0.7073 0.7073 0.7069 -21.916 35.6022)" fill="#383F3F" width="2.4" height="2.4"/>
					
						<rect x="31" y="43.6" transform="matrix(-0.7074 -0.7069 0.7069 -0.7074 23.1397 98.6952)" fill="#212828" width="1.9" height="1.9"/>
				</g>
				<g>
					<polygon fill="#646D6D" points="40,44.2 38.3,47 36.6,44.2 38.3,42.6 					"/>
					<polygon fill="#7E8787" points="40,44.2 38.3,45.9 36.6,44.2 38.3,42.2 					"/>
					
						<rect x="37.1" y="43.1" transform="matrix(0.7068 -0.7074 0.7074 0.7068 -20.0754 40.0538)" fill="#383F3F" width="2.4" height="2.4"/>
					
						<rect x="37.3" y="43.6" transform="matrix(-0.7072 -0.707 0.707 -0.7072 33.8545 103.1347)" fill="#212828" width="1.9" height="1.9"/>
				</g>
				<g>
					<polygon fill="#646D6D" points="52.5,44.2 50.8,47 49.2,44.2 50.8,42.6 					"/>
					<polygon fill="#7E8787" points="52.5,44.2 50.8,45.9 49.2,44.2 50.8,42.2 					"/>
					
						<rect x="49.7" y="43.1" transform="matrix(0.7068 -0.7074 0.7074 0.7068 -16.3918 48.9414)" fill="#383F3F" width="2.4" height="2.4"/>
					
						<rect x="49.9" y="43.6" transform="matrix(-0.7072 -0.707 0.707 -0.7072 55.3033 112.0168)" fill="#212828" width="1.9" height="1.9"/>
				</g>
			</g>
		</g>
	</g>
</g>
</svg>
