<?xml version="1.0" encoding="utf-8"?>
<!-- Generator: Adobe Illustrator 16.0.0, SVG Export Plug-In . SVG Version: 6.00 Build 0)  -->
<!DOCTYPE svg PUBLIC "-//W3C//DTD SVG 1.1//EN" "http://www.w3.org/Graphics/SVG/1.1/DTD/svg11.dtd">
<svg version="1.1" id="Layer_1" xmlns="http://www.w3.org/2000/svg" xmlns:xlink="http://www.w3.org/1999/xlink" x="0px" y="0px"
	 width="64px" height="64px" viewBox="0 0 64 64" enable-background="new 0 0 64 64" xml:space="preserve">
<g>
	<g>
		<g>
			<g>
				<g>
					<g>
						<g>
							<path fill="#F7910B" d="M62.3,37.7c0,13-11.9,23.5-30.3,23.5c-18.4,0-30.3-10.5-30.3-23.5S13.6,5.2,32,5.2
								C50.4,5.2,62.3,24.7,62.3,37.7z"/>
						</g>
						<g>
							<path fill="#F7910B" d="M62.3,37.7c0,13-11.9,19.5-30.3,19.5c-18.4,0-30.3-6.5-30.3-19.5S13.6,3.2,32,3.2
								C50.4,3.2,62.3,24.7,62.3,37.7z"/>
						</g>
						<g>
							<path fill="#F9A908" d="M32,3.2c18.4,0,30.3,21.5,30.3,34.5S50.4,57.2,32,57.2"/>
						</g>
						<g>
							<path fill="#F9A908" d="M62.3,37.7c0,13-11.9,19.5-30.3,19.5c-18.4,0-30.3-6.5-30.3-19.5S13.6,5.2,32,5.2
								C50.4,5.2,62.3,24.7,62.3,37.7z"/>
						</g>
						<g>
							<path fill="#F9C55D" d="M1.7,37.7c0-13,11.9-32.5,30.3-32.5"/>
						</g>
						<g>
							<path fill="#F7910B" d="M32,5.2c18.4,0,30.3,19.5,30.3,32.5S50.4,61.2,32,61.2"/>
						</g>
						<g>
							<path fill="#00233F" d="M38,34.2c0,2.3-2.8,4.2-6.2,4.2c-3.4,0-6.2-1.9-6.2-4.2c0-2.3,2.8-4.2,6.2-4.2
								C35.2,30,38,31.9,38,34.2z"/>
						</g>
						<g>
							<path fill="#EA7103" d="M32,5.2c18.4,0,30.3,19.5,30.3,32.5"/>
						</g>
						<g>
							<circle fill="#F7910B" cx="10.3" cy="34.6" r="0.6"/>
						</g>
						<g>
							<circle fill="#F7910B" cx="5.8" cy="36.6" r="1.1"/>
						</g>
						<g>
							<circle fill="#F7910B" cx="8.8" cy="32.6" r="0.2"/>
						</g>
						<g>
							<circle fill="#F7910B" cx="13.4" cy="34.5" r="0.2"/>
						</g>
						<g>
							<circle fill="#F9A908" cx="52.6" cy="35" r="0.8"/>
						</g>
						<g>
							<circle fill="#F9A908" cx="55.1" cy="36.4" r="0.2"/>
						</g>
						<g>
							<circle fill="#F9A908" cx="49.8" cy="27.6" r="0.3"/>
						</g>
						<g>
							<circle fill="#F9A908" cx="49.3" cy="39.2" r="1.3"/>
						</g>
						<g>
							<circle fill="#F9A908" cx="56.5" cy="39.3" r="0.6"/>
						</g>
						<g>
							<circle fill="#F7910B" cx="9.3" cy="38.7" r="0.5"/>
						</g>
						<g>
							<circle fill="#F7910B" cx="10.1" cy="30.3" r="0.4"/>
						</g>
						<g>
							<circle fill="#F9A908" cx="4.8" cy="16.5" r="1.1"/>
						</g>
						<g>
							<circle fill="#F9A908" cx="8" cy="13" r="0.6"/>
						</g>
						<g>
							<circle fill="#F9A908" cx="59.2" cy="18.9" r="0.2"/>
						</g>
						<g>
							<circle fill="#F9A908" cx="58.4" cy="16" r="0.8"/>
						</g>
						<g>
							<path fill="#F9A908" d="M61.5,16.5c0,0.3-0.2,0.5-0.5,0.5c-0.3,0-0.5-0.2-0.5-0.5c0-0.3,0.2-0.5,0.5-0.5
								C61.2,16,61.5,16.2,61.5,16.5z"/>
						</g>
						<g>
							<circle fill="#F9A908" cx="6" cy="19.5" r="0.6"/>
						</g>
						<g>
							<path fill="#F7910B" d="M39.4,35.2c0,2.6-3.3,7.2-7.4,7.2c-4.1,0-7.4-4.6-7.4-7.2"/>
						</g>
						<g>
							<g>
								<circle fill="#D87703" cx="20.6" cy="21.5" r="3.5"/>
							</g>
							<g>
								<path fill="#D87703" d="M46.9,21.5c0,1.9-1.6,3.5-3.5,3.5c-1.9,0-3.5-1.6-3.5-3.5c0-1.9,1.6-3.5,3.5-3.5
									C45.4,18,46.9,19.6,46.9,21.5z"/>
							</g>
							<g>
								<circle fill="#1E4784" cx="20.6" cy="20.5" r="3.5"/>
							</g>
							<g>
								<path fill="#00233F" d="M20.6,17c1.9,0,3.5,1.6,3.5,3.5S22.5,24,20.6,24"/>
							</g>
							<g>
								<path fill="#1E4784" d="M46.9,20.5c0,1.9-1.6,3.5-3.5,3.5c-1.9,0-3.5-1.6-3.5-3.5s1.6-3.5,3.5-3.5
									C45.4,17,46.9,18.6,46.9,20.5z"/>
							</g>
							<g>
								<path fill="#00233F" d="M43.4,17c1.9,0,3.5,1.6,3.5,3.5S45.4,24,43.4,24"/>
							</g>
							<g>
								<path fill="#F9A908" d="M16.5,19.8c0-2.3,1.8-5.1,4.1-5.1c2.3,0,4.1,2.8,4.1,5.1"/>
							</g>
							<g>
								<path fill="#F7910B" d="M39.3,19.8c0-2.3,1.8-5.1,4.1-5.1c2.2,0,4.1,2.8,4.1,5.1"/>
							</g>
						</g>
						<g>
							<g>
								<path fill="#F9C55D" d="M27.8,26.3c0,1.2-3.5,0.7-7.8,0.7c-4.3,0-7.8,0.6-7.8-0.7s3.5-2.2,7.8-2.2
									C24.3,24.1,27.8,25.1,27.8,26.3z"/>
							</g>
							<g>
								<path fill="#F9A908" d="M51.8,26.3c0,1.2-3.5,0.7-7.8,0.7s-7.8,0.6-7.8-0.7s3.5-2.2,7.8-2.2S51.8,25.1,51.8,26.3z"/>
							</g>
						</g>
						<g>
							<g>
								<g>
									<g>
										<g>
											<path fill="#19BCA4" d="M26.2,16.7c0,1.1-2.3,0.5-5.1,0.4c-2.8-0.1-5.1,0.4-5.1-0.7c0-1.1,2.3-2,5.1-1.9
												C24,14.6,26.3,15.6,26.2,16.7z"/>
										</g>
									</g>
								</g>
							</g>
							<g>
								<g>
									<g>
										<g>
											<path fill="#19BCA4" d="M37.8,16.7c0,1.1,2.3,0.5,5.1,0.4c2.8-0.1,5.1,0.4,5.1-0.7c0-1.1-2.3-2-5.1-1.9
												C40,14.6,37.7,15.6,37.8,16.7z"/>
										</g>
									</g>
								</g>
							</g>
						</g>
					</g>
				</g>
			</g>
		</g>
	</g>
	<g>
		<g>
			<g>
				<path fill="#FFFFFF" d="M58.9,28.4C58.9,13.5,46.9,1.4,32,1.4C17.1,1.4,5.1,13.5,5.1,28.4c0,9.7,5.1,18.1,12.7,22.9v8.3
					c0,1.7,1.6,3.1,3.6,3.1h21.2c2,0,3.6-1.4,3.6-3.1v-8.3C53.9,46.5,58.9,38,58.9,28.4z"/>
			</g>
			<g>
				<path fill="#E2F2EF" d="M58.9,28.4C58.9,13.5,46.9,3.6,32,3.6c-14.9,0-26.9,9.9-26.9,24.7c0,9.7,5.1,18.1,12.7,22.9v8.3
					c0,1.7,1.6,3.1,3.6,3.1h21.2c2,0,3.6-1.4,3.6-3.1v-8.3C53.9,46.5,58.9,38,58.9,28.4z"/>
			</g>
			<g>
				<path fill="#C7E2DD" d="M31.9,62.6l10.7,0c2,0,3.6-1.4,3.6-3.1v-8.3c7.6-4.8,12.7-13.2,12.7-22.9C58.9,13.5,46.9,3.5,32,3.5"/>
			</g>
			<g>
				<path fill="#617F79" d="M25.9,61.4V49.7c0-0.6-0.4-1-1-1s-1,0.4-1,1v11.6H25.9z"/>
			</g>
			<g>
				<path fill="#617F79" d="M33,61.4V49.7c0-0.6-0.4-1-1-1s-1,0.4-1,1v11.6H33z"/>
			</g>
			<g>
				<path fill="#617F79" d="M40.1,61.4V49.7c0-0.6-0.4-1-1-1s-1,0.4-1,1v11.6H40.1z"/>
			</g>
			<g>
				<g>
					<path fill="#9CBCB6" d="M24.9,30.2c0,4.1-3.3,10.5-7.5,10.5c-4.1,0-7.5-6.3-7.5-10.5s3.3-8.5,7.5-8.5
						C21.6,21.7,24.9,26.1,24.9,30.2z"/>
				</g>
				<g>
					<path fill="#7FA39C" d="M54,30.2c0,4.1-3.3,10.5-7.5,10.5c-4.1,0-7.5-6.3-7.5-10.5s3.3-8.5,7.5-8.5C50.7,21.7,54,26.1,54,30.2z
						"/>
				</g>
				<g>
					<path fill="#F7910B" d="M24.9,31.5c0,4.1-3.3,7.5-7.5,7.5c-4.1,0-7.5-3.3-7.5-7.5s3.3-7.5,7.5-7.5C21.6,24,24.9,27.3,24.9,31.5
						z"/>
				</g>
				<g>
					<path fill="#F9A908" d="M22.7,26.2c2.9,2.9,2.9,7.6,0,10.6c-2.9,2.9-7.6,2.9-10.5,0"/>
				</g>
				<g>
					<circle fill="#F7910B" cx="46.5" cy="31.5" r="7.5"/>
				</g>
				<g>
					<path fill="#F9A908" d="M51.8,26.2c2.9,2.9,2.9,7.6,0,10.6c-2.9,2.9-7.6,2.9-10.6,0"/>
				</g>
			</g>
			<g>
				<path fill="#8FA8A3" d="M11.5,40.5c-1.1,0-2.2,0.3-3.1,0.8c2.2,4,5.4,7.4,9.3,9.9v-4.4C17.8,43.3,15,40.5,11.5,40.5z"/>
			</g>
			<g>
				<path fill="#617F79" d="M17.8,51.2v-4.4c0-3.5-2.8-6.2-6.2-6.2"/>
			</g>
			<g>
				<path fill="#8FA8A3" d="M55.6,41.3c-0.9-0.5-2-0.8-3.1-0.8c-3.5,0-6.2,2.8-6.2,6.2v4.4C50.1,48.8,53.4,45.4,55.6,41.3z"/>
			</g>
			<g>
				<path fill="#617F79" d="M52.5,40.5c-3.5,0-6.2,2.8-6.2,6.2v4.4"/>
			</g>
			<g>
				<path fill="#E2F2EF" d="M9.1,39.9c0,1.1-0.9,2-2,2l0,0c-1.1,0-2-0.9-2-2V28.7c0-1.1,0.9-2,2-2l0,0c1.1,0,2,0.9,2,2V39.9z"/>
			</g>
			<g>
				<path fill="#C7E2DD" d="M58.9,39.9c0,1.1-0.9,2-2,2l0,0c-1.1,0-2-0.9-2-2V28.7c0-1.1,0.9-2,2-2l0,0c1.1,0,2,0.9,2,2V39.9z"/>
			</g>
			<g>
				<g>
					<g>
						<g>
							<g>
								<path fill="#9CBCB6" d="M34.6,42.4c-1.1,0-2-0.6-2.3-1.5c0-0.1-0.1-0.1-0.2-0.1c-0.1,0-0.2,0-0.2,0.1
									c-0.3,0.9-1.3,1.5-2.3,1.5c-1.4,0-2.5-1-2.5-2.2c0-0.4,0.1-0.9,0.4-1.2c0,0,0,0,0,0c0,0,0,0,0,0l4.6-7.9l4.6,7.9
									c0,0,0,0,0,0c0,0,0,0,0,0c0.3,0.4,0.4,0.8,0.4,1.2C37,41.4,35.9,42.4,34.6,42.4z"/>
							</g>
						</g>
					</g>
					<g>
						<g>
							<g>
								<path fill="#F9A908" d="M34.6,42.8c-1.1,0-2-0.6-2.3-1.5c0-0.1-0.1-0.1-0.2-0.1c-0.1,0-0.2,0-0.2,0.1
									c-0.3,0.9-1.3,1.5-2.3,1.5c-1.4,0-2.5-1-2.5-2.2c0-0.4,0.1-0.9,0.4-1.2l0,0c0,0,0,0,0,0l4.6-5.4l4.6,5.4c0,0,0,0,0,0l0,0
									c0.3,0.4,0.4,0.8,0.4,1.2C37,41.8,35.9,42.8,34.6,42.8z"/>
							</g>
						</g>
					</g>
					<g>
						<g>
							<g>
								<path fill="#EA7103" d="M32,41.2c-0.1,0-0.2,0-0.2,0.1c-0.3,0.9-1.3,1.5-2.3,1.5c-1.4,0-2.5-1-2.5-2.2
									c0-0.4,0.1-0.9,0.4-1.2l0,0c0,0,0,0,0,0l4.6-5.4"/>
							</g>
						</g>
					</g>
				</g>
			</g>
			<g>
				<path fill="#9CBCB6" d="M32.6,32.2c0,0.3-0.3,0.6-0.6,0.6l0,0c-0.3,0-0.6-0.3-0.6-0.6v-6.6c0-0.3,0.3-0.6,0.6-0.6l0,0
					c0.3,0,0.6,0.3,0.6,0.6V32.2z"/>
			</g>
			<g>
				<path fill="#FFFFFF" d="M7.3,38.3c0,0.4-0.3,0.7-0.7,0.7l0,0c-0.4,0-0.7-0.3-0.7-0.7v-8.1c0-0.4,0.3-0.7,0.7-0.7l0,0
					c0.4,0,0.7,0.3,0.7,0.7V38.3z"/>
			</g>
			<g>
				<circle fill="#FFFFFF" cx="6.7" cy="27.4" r="0.8"/>
			</g>
			<g>
				<g>
					<circle fill="#9CBCB6" cx="32" cy="9.2" r="1.2"/>
				</g>
				<g>
					<path fill="#E2F2EF" d="M32,8c0.6,0,1.2,0.5,1.2,1.2c0,0.6-0.5,1.2-1.2,1.2"/>
				</g>
			</g>
			<g>
				<g>
					<circle fill="#9CBCB6" cx="32" cy="14.7" r="1.2"/>
				</g>
				<g>
					<path fill="#E2F2EF" d="M32,13.6c0.6,0,1.2,0.5,1.2,1.2c0,0.6-0.5,1.2-1.2,1.2"/>
				</g>
			</g>
			<g>
				<g>
					<circle fill="#9CBCB6" cx="32" cy="20.3" r="1.2"/>
				</g>
				<g>
					<path fill="#E2F2EF" d="M32,19.1c0.6,0,1.2,0.5,1.2,1.2c0,0.6-0.5,1.2-1.2,1.2"/>
				</g>
			</g>
			<g>
				<g>
					<g>
						<path fill="#8FA8A3" d="M25.9,62.5V50.9c0-0.6-0.4-1-1-1s-1,0.4-1,1v11.6H25.9z"/>
					</g>
					<g>
						<path fill="#76938D" d="M25.9,62.5V50.9c0-0.6-0.4-1-1-1s-1,0.4-1,1"/>
					</g>
				</g>
				<g>
					<g>
						<path fill="#8FA8A3" d="M33,62.5V50.9c0-0.6-0.4-1-1-1s-1,0.4-1,1v11.6H33z"/>
					</g>
					<g>
						<path fill="#76938D" d="M33,62.5V50.9c0-0.6-0.4-1-1-1s-1,0.4-1,1"/>
					</g>
				</g>
				<g>
					<g>
						<path fill="#8FA8A3" d="M40.1,62.5V50.9c0-0.6-0.4-1-1-1s-1,0.4-1,1v11.6H40.1z"/>
					</g>
					<g>
						<path fill="#76938D" d="M40.1,62.5V50.9c0-0.6-0.4-1-1-1s-1,0.4-1,1"/>
					</g>
				</g>
			</g>
		</g>
	</g>
	<g>
		<g>
			<g>
				<circle fill="#D87703" cx="20.6" cy="32.2" r="3.5"/>
			</g>
			<g>
				<path fill="#D87703" d="M46.9,32.2c0,1.9-1.6,3.5-3.5,3.5c-1.9,0-3.5-1.6-3.5-3.5c0-1.9,1.6-3.5,3.5-3.5
					C45.4,28.7,46.9,30.3,46.9,32.2z"/>
			</g>
			<g>
				<circle fill="#1E4784" cx="20.6" cy="31.2" r="3.5"/>
			</g>
			<g>
				<path fill="#00233F" d="M20.6,27.7c1.9,0,3.5,1.6,3.5,3.5c0,1.9-1.6,3.5-3.5,3.5"/>
			</g>
			<g>
				<path fill="#1E4784" d="M46.9,31.2c0,1.9-1.6,3.5-3.5,3.5c-1.9,0-3.5-1.6-3.5-3.5c0-1.9,1.6-3.5,3.5-3.5
					C45.4,27.7,46.9,29.3,46.9,31.2z"/>
			</g>
			<g>
				<path fill="#00233F" d="M43.4,27.7c1.9,0,3.5,1.6,3.5,3.5c0,1.9-1.6,3.5-3.5,3.5"/>
			</g>
			<g>
				<path fill="#F9A908" d="M16.5,30.5c0-2.3,1.8-5.1,4.1-5.1c2.3,0,4.1,2.8,4.1,5.1"/>
			</g>
			<g>
				<path fill="#F7910B" d="M39.3,30.5c0-2.3,1.8-5.1,4.1-5.1c2.2,0,4.1,2.8,4.1,5.1"/>
			</g>
		</g>
		<g>
			<g>
				<g>
					<g>
						<g>
							<path fill="#19BCA4" d="M26.2,19.3c0,1.1-2.3,0.5-5.1,0.4c-2.8-0.1-5.1,0.4-5.1-0.7c0-1.1,2.3-2,5.1-1.9
								C24,17.2,26.3,18.2,26.2,19.3z"/>
						</g>
					</g>
				</g>
			</g>
			<g>
				<g>
					<g>
						<g>
							<path fill="#19BCA4" d="M37.8,19.3c0,1.1,2.3,0.5,5.1,0.4c2.8-0.1,5.1,0.4,5.1-0.7c0-1.1-2.3-2-5.1-1.9
								C40,17.2,37.7,18.2,37.8,19.3z"/>
						</g>
					</g>
				</g>
			</g>
		</g>
	</g>
</g>
</svg>
