<?xml version="1.0" encoding="utf-8"?>
<!-- Generator: Adobe Illustrator 16.0.0, SVG Export Plug-In . SVG Version: 6.00 Build 0)  -->
<!DOCTYPE svg PUBLIC "-//W3C//DTD SVG 1.1//EN" "http://www.w3.org/Graphics/SVG/1.1/DTD/svg11.dtd">
<svg version="1.1" id="Layer_1" xmlns="http://www.w3.org/2000/svg" xmlns:xlink="http://www.w3.org/1999/xlink" x="0px" y="0px"
	 width="65px" height="65px" viewBox="0 0 65 65" enable-background="new 0 0 65 65" xml:space="preserve">
<g>
	<g>
		<g>
			<g>
				<path fill="#6B411C" d="M44.498,46.445c0,2.477-2.008,15.828-4.486,15.828c-2.475,0-4.482-13.352-4.482-15.828
					c0-2.475,2.008-4.484,4.482-4.484C42.49,41.961,44.498,43.971,44.498,46.445z"/>
				<path fill="#6B411C" d="M29.473,46.445c0,2.477-2.008,15.828-4.486,15.828c-2.475,0-4.482-13.352-4.482-15.828
					c0-2.475,2.008-4.484,4.482-4.484C27.465,41.961,29.473,43.971,29.473,46.445z"/>
				<g>
					<g>
						<path fill="#CE1111" d="M45.15,40.521c0,16.037-5.662,10.697-12.65,10.697c-6.986,0-12.65,5.34-12.65-10.697
							c0-9.17,5.666-16.604,12.65-16.604C39.486,23.918,45.15,31.352,45.15,40.521z"/>
						<path fill="#CE1111" d="M45.15,40.521c0,16.037-5.662,10.697-12.65,10.697c-6.986,0-12.65,5.34-12.65-10.697
							c0-9.17,5.666-16.604,12.65-16.604C39.486,23.918,45.15,31.352,45.15,40.521z"/>
						<g>
							<path fill="#9B4E1B" d="M30.033,62.354c0,1.896-2.26,2.146-5.045,2.146s-5.045-0.25-5.045-2.146s2.26-4.508,5.045-4.508
								S30.033,60.457,30.033,62.354z"/>
							<path fill="#82370D" d="M30.033,62.354c0,1.896-2.26,2.146-5.045,2.146s-5.045-0.25-5.045-2.146"/>
						</g>
						<g>
							<path fill="#9B4E1B" d="M45.059,62.354c0,1.896-2.26,2.146-5.045,2.146s-5.045-0.25-5.045-2.146s2.26-4.508,5.045-4.508
								S45.059,60.457,45.059,62.354z"/>
							<path fill="#82370D" d="M45.059,62.354c0,1.896-2.26,2.146-5.045,2.146s-5.045-0.25-5.045-2.146"/>
						</g>
						<g>
							<path fill="#CE1111" d="M31.105,26.369c1.273,1.432,0.465,4.227-1.805,6.248c-2.27,2.018-14.475,10.795-15.75,9.365
								c-1.271-1.434,8.873-12.531,11.143-14.549C26.961,25.414,29.832,24.938,31.105,26.369z"/>
							<path fill="#CE1111" d="M33.895,26.369c-1.273,1.432-0.465,4.227,1.805,6.248c2.27,2.018,14.475,10.795,15.75,9.365
								c1.271-1.434-8.873-12.531-11.143-14.549C38.039,25.414,35.168,24.938,33.895,26.369z"/>
							<path fill="#AA0909" d="M22.475,30.426c2.771,1.404,6.244,2.119,10.027,2.119c3.781,0,7.254-0.715,10.025-2.119
								c-2.312-3.949-5.938-6.508-10.027-6.508C28.412,23.918,24.785,26.475,22.475,30.426z"/>
						</g>
						<g>
							<path fill="#F9A88F" d="M48.871,16.275c0,7.998-7.33,12.02-16.369,12.02c-9.041,0-16.373-4.021-16.373-12.02
								c0-8.002,7.332-15.775,16.373-15.775C41.541,0.5,48.871,8.273,48.871,16.275z"/>
							<path fill="#ED927A" d="M48.871,16.275c0,7.998-7.33,12.02-16.369,12.02c-9.041,0-16.373-4.021-16.373-12.02"/>
						</g>
					</g>
				</g>
			</g>
		</g>
	</g>
	<path fill="#232628" d="M20.418,35.582h24.164c-0.385-1.623-0.959-3.133-1.682-4.5H22.1C21.379,32.449,20.803,33.959,20.418,35.582
		z"/>
	<path fill="#232628" d="M19.85,40.521c0,0.641,0.012,1.236,0.031,1.811h25.238c0.02-0.574,0.031-1.17,0.031-1.811
		c0-0.918-0.07-1.812-0.18-2.689H20.031C19.92,38.709,19.85,39.604,19.85,40.521z"/>
	<path fill="#232628" d="M20.895,49.082h23.211c0.42-1.093,0.723-2.555,0.891-4.5H20.004C20.174,46.527,20.477,47.989,20.895,49.082
		z"/>
	<g>
		<g>
			<polygon fill="#232628" points="14.578,40.055 15.605,40.055 15.605,41.082 8.799,46.86 			"/>
			<polygon fill="#232628" points="14.934,41.308 15.742,40.992 16.057,41.8 12.477,48.434 			"/>
			<polygon fill="#232628" points="14.303,39.564 15.098,39.914 14.748,40.707 7.527,42.867 			"/>
			<polygon fill="#232628" points="14.869,39.125 15.504,39.717 14.912,40.35 7.383,40.005 			"/>
		</g>
		<g>
			<polygon fill="#232628" points="50.422,40.055 49.395,40.055 49.395,41.082 56.201,46.86 			"/>
			<polygon fill="#232628" points="50.066,41.308 49.258,40.992 48.943,41.8 52.523,48.434 			"/>
			<polygon fill="#232628" points="50.697,39.564 49.902,39.914 50.252,40.707 57.475,42.867 			"/>
			<polygon fill="#232628" points="50.133,39.125 49.496,39.717 50.088,40.35 57.617,40.005 			"/>
		</g>
	</g>
	<g>
		<g>
			<circle fill="#113E49" cx="24.716" cy="13" r="1.464"/>
			<path d="M26.18,13c0,0.81-0.656,1.464-1.465,1.464S23.252,13.81,23.252,13"/>
			<g>
				<path fill="#FFD3C5" d="M27.604,16.053c-0.078,0-0.158-0.028-0.219-0.091c-0.715-0.714-1.664-1.107-2.672-1.107h-0.002
					c-1.008,0-1.955,0.394-2.666,1.106c-0.121,0.121-0.316,0.124-0.436,0.001c-0.121-0.117-0.125-0.312-0.004-0.434
					c0.83-0.831,1.932-1.29,3.105-1.29h0.002c1.176,0,2.279,0.456,3.111,1.288c0.119,0.119,0.119,0.318,0,0.436
					C27.764,16.024,27.686,16.053,27.604,16.053z"/>
			</g>
		</g>
		<g>
			<circle fill="#113E49" cx="40.286" cy="13" r="1.464"/>
			<path d="M38.822,13c0,0.81,0.654,1.464,1.465,1.464c0.809,0,1.463-0.654,1.463-1.464"/>
			<g>
				<path fill="#FFD3C5" d="M37.398,16.053c0.076,0,0.156-0.028,0.217-0.091c0.715-0.714,1.664-1.107,2.672-1.107h0.002
					c1.008,0,1.957,0.394,2.668,1.106c0.119,0.121,0.314,0.124,0.436,0.001c0.121-0.117,0.123-0.312,0.002-0.434
					c-0.826-0.831-1.932-1.29-3.105-1.29h-0.002c-1.174,0-2.277,0.456-3.111,1.288c-0.117,0.119-0.117,0.318,0,0.436
					C37.238,16.024,37.316,16.053,37.398,16.053z"/>
			</g>
		</g>
	</g>
	<path fill="#232628" d="M46.641,8.666C43.803,3.977,38.541,0.5,32.502,0.5S21.197,3.977,18.359,8.666H46.641z"/>
	<path fill="#232628" d="M52.834,9.25c0,0.689-9.104,1.25-20.334,1.25S12.166,9.939,12.166,9.25c0-0.691,9.104-3.416,20.334-3.416
		S52.834,8.559,52.834,9.25z"/>
	<path fill="#870808" d="M38.666,21.166c0,1.656-1.344,3-3,3h-6.332c-1.658,0-3-1.344-3-3v-2.832c0-1.658,1.342-3,3-3h6.332
		c1.656,0,3,1.342,3,3V21.166z"/>
	<path fill="#AA0909" d="M29.334,21.084c-1.125,0-2.094,0.625-2.605,1.541c0.512,0.914,1.48,1.541,2.605,1.541h6.332
		c1.125,0,2.092-0.627,2.607-1.541c-0.516-0.916-1.482-1.541-2.607-1.541H29.334z"/>
</g>
</svg>
