<?xml version="1.0" encoding="utf-8"?>
<!-- Generator: Adobe Illustrator 16.0.0, SVG Export Plug-In . SVG Version: 6.00 Build 0)  -->
<!DOCTYPE svg PUBLIC "-//W3C//DTD SVG 1.1//EN" "http://www.w3.org/Graphics/SVG/1.1/DTD/svg11.dtd">
<svg version="1.1" xmlns="http://www.w3.org/2000/svg" xmlns:xlink="http://www.w3.org/1999/xlink" x="0px" y="0px" width="65px"
	 height="65px" viewBox="0 0 65 65" enable-background="new 0 0 65 65" xml:space="preserve">
<g id="Layer_1">
	<g>
		<path fill="#A1B7AA" d="M41.328,55.462h4.047c-0.266,2.75-2.578,4.91-5.396,4.91c-2.932,0-5.324-2.346-5.41-5.258
			c0-0.055,0.008-0.109,0.008-0.164v-5.324c0.889,0.63,1.971,1.005,3.141,1.005c2.9,0,5.283-2.284,5.434-5.149h0.004v-4.582
			l-4.67,4.582h2.307c-0.148,1.567-1.469,2.798-3.074,2.798c-1.703,0-3.088-1.387-3.088-3.089V20.404
			c4.531-0.98,7.939-5.017,7.939-9.837C42.568,5.016,38.051,0.5,32.5,0.5S22.434,5.016,22.434,10.567
			c0,4.84,3.434,8.891,7.992,9.851V54.95c0,0.055,0.008,0.109,0.008,0.164c-0.088,2.912-2.479,5.258-5.412,5.258
			c-2.816,0-5.129-2.16-5.396-4.91h4.049l-8.197-8.042v8.042h0.008c0.266,5.029,4.449,9.038,9.537,9.038
			c3.029,0,5.727-1.421,7.479-3.626c1.752,2.205,4.451,3.626,7.479,3.626c5.09,0,9.273-4.009,9.539-9.038h0.006V47.42L41.328,55.462
			z M27.365,10.567c0-2.832,2.305-5.136,5.135-5.136c2.832,0,5.137,2.304,5.137,5.136c0,2.833-2.305,5.137-5.137,5.137
			C29.67,15.704,27.365,13.4,27.365,10.567z"/>
		<g>
			<path fill="#8AA093" d="M42.031,59.962h3.344c-0.168,1.739-1.156,3.238-2.572,4.107c3.734-1.158,6.5-4.549,6.715-8.607h0.006
				V51.92l-4.273,4.193C44.861,57.858,43.652,59.294,42.031,59.962z"/>
			<path fill="#8AA093" d="M32.5,60.874c1.182,1.486,2.797,2.603,4.65,3.182c-1.502-0.93-2.525-2.562-2.582-4.441
				c0-0.055,0.008-0.109,0.008-0.164v-4.275c-0.002-0.021-0.008-0.04-0.008-0.061c0-0.055,0.008-0.109,0.008-0.164v-0.824v-4.5
				c0.018,0.012,0.037,0.021,0.053,0.032V45.19V24.904v-4.5c3.805-0.823,6.807-3.803,7.676-7.589C41.279,8.347,37.277,5,32.5,5
				c-4.775,0-8.777,3.347-9.805,7.815c0.873,3.805,3.9,6.796,7.73,7.603v4.5V54.95c0,0.055,0.008,0.109,0.008,0.164
				c0,0.021-0.008,0.04-0.008,0.061v4.275c0,0.055,0.008,0.109,0.008,0.164c-0.057,1.879-1.08,3.512-2.582,4.441
				C29.703,63.477,31.32,62.36,32.5,60.874z M27.365,15.067c0-0.811,0.205-1.567,0.541-2.25c-0.336-0.682-0.541-1.439-0.541-2.25
				c0-2.832,2.305-5.136,5.135-5.136c2.832,0,5.137,2.304,5.137,5.136c0,0.811-0.205,1.568-0.541,2.25
				c0.336,0.683,0.541,1.439,0.541,2.25c0,2.833-2.305,5.137-5.137,5.137C29.67,20.204,27.365,17.9,27.365,15.067z"/>
			<path fill="#8AA093" d="M38.484,49.981h1.758c1.645-0.871,2.805-2.539,2.908-4.5h0.004v-0.082L38.484,49.981z"/>
			<path fill="#8AA093" d="M22.199,64.069c-1.416-0.869-2.406-2.368-2.574-4.107h3.344c-1.619-0.668-2.828-2.104-3.217-3.849
				l-4.275-4.193v3.542h0.008C15.699,59.521,18.465,62.911,22.199,64.069z"/>
		</g>
	</g>
</g>
<g id="nyt_x5F_exporter_x5F_info" display="none">
</g>
</svg>
