<?xml version="1.0" encoding="utf-8"?>
<!-- Generator: Adobe Illustrator 16.0.0, SVG Export Plug-In . SVG Version: 6.00 Build 0)  -->
<!DOCTYPE svg PUBLIC "-//W3C//DTD SVG 1.1//EN" "http://www.w3.org/Graphics/SVG/1.1/DTD/svg11.dtd">
<svg version="1.1" id="Layer_1" xmlns="http://www.w3.org/2000/svg" xmlns:xlink="http://www.w3.org/1999/xlink" x="0px" y="0px"
	 width="64px" height="64px" viewBox="0 0 64 64" enable-background="new 0 0 64 64" xml:space="preserve">
<g>
	<g>
		<path fill="#E56505" d="M12,36.9c0-17.6,9.5-36.3,20-36.3s20,18.6,20,36.3s-9.5,21.6-20,21.6S12,54.5,12,36.9z"/>
		<path fill="#F97906" d="M32,58.5c-10.4,0-20-4-20-21.6S21.6,0.6,32,0.6s20,18.6,20,36.3"/>
		<path fill="#FF9100" d="M32,58.5c-10.4,0-20-4-20-21.6S21.6,0.6,32,0.6"/>
		<ellipse fill="#EAD7A7" cx="32" cy="61.9" rx="13" ry="1.5"/>
		<g>
			<g>
				<polyline fill="#FFBC00" points="12,40 19.2,40 23.7,44.4 24,44.4 24,44.4 30,44.3 30,44.3 24.1,43.7 20,39.4 20,39.4 				"/>
			</g>
			<g>
				<polyline fill="#FFBC00" points="52,40 44.8,40 40.3,44.4 40,44.4 40,44.4 34,44.3 34,44.3 39.9,43.7 44,39.4 44,39.4 				"/>
			</g>
		</g>
		<g>
			<path fill="#FFBC00" d="M51.9,37L51.9,37c0.1-0.1,0.2-0.1,0.2-0.2c0-11.7-4-23.1-10-29.9v26.5l3.8,3.7H51.9z"/>
			<path fill="#E56505" d="M51.9,37.1L51.9,37.1C52,37,52,36.9,52,36.8c0-11.7-4-23.7-10-30.5V33"/>
		</g>
		<g>
			<path fill="#E56505" d="M12.2,37L12.2,37c-0.1-0.1-0.2-0.1-0.2-0.2c0-11.7,4-22.2,10-29.1v25.6L18.3,37H12.2z"/>
			<path fill="#FFBC00" d="M12.1,37.1L12.1,37.1c0-0.1-0.1-0.2-0.1-0.3c0-11.7,4-23.7,10-30.5L22,33"/>
		</g>
		<g>
			<circle fill="#E56505" cx="57.4" cy="20.3" r="5.1"/>
			<path fill="#F97906" d="M57.4,25.4c-2.8,0-5.1-2.3-5.1-5.1c0-2.8,2.3-5.1,5.1-5.1"/>
			<circle fill="#F97906" cx="57.4" cy="27.6" r="1.2"/>
			<polyline fill="#FFBC00" points="57,29 57,34 54,34 54,38 52,38 			"/>
			
				<ellipse transform="matrix(-0.9969 7.895484e-02 -7.895484e-02 -0.9969 105.4437 60.3973)" fill="#FF9100" cx="51.5" cy="32.3" rx="1.7" ry="5"/>
			
				<ellipse transform="matrix(-0.9969 7.879964e-02 -7.879964e-02 -0.9969 106.5622 60.3027)" fill="#FFBC00" cx="52.1" cy="32.3" rx="0.7" ry="3"/>
			<circle fill="#FCE6F1" cx="47.8" cy="32.1" r="0.4"/>
			<circle fill="#FCE6F1" cx="46.2" cy="32.6" r="0.4"/>
			<circle fill="#FCE6F1" cx="44.6" cy="33" r="0.4"/>
			<path fill="#FFBC00" d="M60,18.5c0,0.3-0.2,0.5-0.5,0.5h-4c-0.3,0-0.5-0.2-0.5-0.5l0,0c0-0.3,0.2-0.5,0.5-0.5h4
				C59.8,18,60,18.2,60,18.5L60,18.5z"/>
		</g>
		<g>
			<circle fill="#F97906" cx="6.6" cy="20.3" r="5.1"/>
			<path fill="#E56505" d="M6.6,25.4c2.8,0,5.1-2.3,5.1-5.1c0-2.8-2.3-5.1-5.1-5.1"/>
			<circle fill="#F97906" cx="6.6" cy="27.6" r="1.2"/>
			<polyline fill="#FFBC00" points="7,29 7,34 10,34 10,38 12,38 			"/>
			
				<ellipse transform="matrix(0.9969 7.895486e-02 -7.895486e-02 0.9969 2.5879 -0.884)" fill="#F97906" cx="12.5" cy="32.3" rx="1.7" ry="5"/>
			
				<ellipse transform="matrix(0.9969 7.879969e-02 -7.879969e-02 0.9969 2.5786 -0.8381)" fill="#FFBC00" cx="11.9" cy="32.3" rx="0.7" ry="3"/>
			<circle fill="#E5337C" cx="16.2" cy="32.1" r="0.4"/>
			<circle fill="#E5337C" cx="17.8" cy="32.6" r="0.4"/>
			<circle fill="#E5337C" cx="19.4" cy="33" r="0.4"/>
			<path fill="#FFBC00" d="M9,18.5C9,18.2,8.8,18,8.5,18h-4C4.2,18,4,18.2,4,18.5l0,0C4,18.8,4.2,19,4.5,19h4C8.8,19,9,18.8,9,18.5
				L9,18.5z"/>
		</g>
		<g>
			<g>
				<g>
					<path fill="#FFBC00" d="M27.2,16.3c0,1.8-1.4,4.4-3.2,4.4c-1.7,0-3.2-2.6-3.2-4.4c0-1.7,1.4-3.2,3.2-3.2
						C25.8,13.1,27.2,14.5,27.2,16.3z"/>
					<circle fill="#E5337C" cx="24.1" cy="16.3" r="3.2"/>
					<path fill="#9B0B4D" d="M21.8,14c1.2-1.2,3.2-1.2,4.5,0s1.2,3.2,0,4.5"/>
				</g>
				<g>
					<circle fill="#00FFF2" cx="24.1" cy="16.3" r="1.8"/>
					<path fill="#16D8D8" d="M24.1,18.1c-1,0-1.8-0.8-1.8-1.8c0-1,0.8-1.8,1.8-1.8"/>
				</g>
				<circle fill="#FCE6F1" cx="22.7" cy="14.9" r="1.1"/>
				<circle fill="#FCE6F1" cx="25.9" cy="17.9" r="0.5"/>
			</g>
			<g>
				<g>
					<path fill="#FFBC00" d="M43.1,16.3c0,1.8-1.4,4.4-3.2,4.4c-1.7,0-3.2-2.6-3.2-4.4c0-1.7,1.4-3.2,3.2-3.2
						C41.7,13.1,43.1,14.5,43.1,16.3z"/>
					<circle fill="#E5337C" cx="39.9" cy="16.3" r="3.2"/>
					<path fill="#9B0B4D" d="M37.7,14c1.2-1.2,3.2-1.2,4.5,0c1.2,1.2,1.2,3.2,0,4.5"/>
				</g>
				<g>
					<circle fill="#00FFF2" cx="39.9" cy="16.3" r="1.8"/>
					<path fill="#16D8D8" d="M39.9,18.1c-1,0-1.8-0.8-1.8-1.8c0-1,0.8-1.8,1.8-1.8"/>
				</g>
				<circle fill="#FCE6F1" cx="38.5" cy="14.9" r="1.1"/>
				<circle fill="#FCE6F1" cx="41.7" cy="17.9" r="0.5"/>
			</g>
		</g>
	</g>
	<polygon fill="#9B0B4D" points="34,20.7 32,22.7 30,20.7 32,20.6 	"/>
	<g>
		<circle fill="#9B0B4D" cx="32" cy="2.4" r="0.4"/>
		<circle fill="#9B0B4D" cx="32" cy="4.2" r="0.4"/>
		<circle fill="#9B0B4D" cx="32" cy="6.1" r="0.4"/>
		<circle fill="#9B0B4D" cx="32" cy="7.9" r="0.4"/>
		<circle fill="#9B0B4D" cx="32" cy="9.7" r="0.4"/>
	</g>
</g>
</svg>
