<?xml version="1.0" encoding="utf-8"?>
<!-- Generator: Adobe Illustrator 16.0.0, SVG Export Plug-In . SVG Version: 6.00 Build 0)  -->
<!DOCTYPE svg PUBLIC "-//W3C//DTD SVG 1.1//EN" "http://www.w3.org/Graphics/SVG/1.1/DTD/svg11.dtd">
<svg version="1.1" id="Layer_1" xmlns="http://www.w3.org/2000/svg" xmlns:xlink="http://www.w3.org/1999/xlink" x="0px" y="0px"
	 width="64px" height="64px" viewBox="0 0 64 64" enable-background="new 0 0 64 64" xml:space="preserve">
<g>
	<g>
		<path fill="#EA7103" d="M21,51.1c0,5-8,8.5-13,8.5s-4-3.2-4-8.2s3-9.3,8-9.3C16.9,42.1,21,46.1,21,51.1z"/>
	</g>
	<g>
		<g>
			<path fill="#F7910B" d="M61.8,36.8c0,13-11.9,23.5-30.3,23.5c-18.4,0-30.3-10.5-30.3-23.5S13.1,4.3,31.5,4.3
				C49.9,4.3,61.8,23.8,61.8,36.8z"/>
		</g>
		<g>
			<path fill="#F7910B" d="M61.8,36.8c0,13-11.9,19.5-30.3,19.5c-18.4,0-30.3-6.5-30.3-19.5S13.1,2.3,31.5,2.3
				C49.9,2.3,61.8,23.8,61.8,36.8z"/>
		</g>
		<g>
			<path fill="#F9A908" d="M31.5,2.3c18.4,0,30.3,21.5,30.3,34.5S49.9,56.3,31.5,56.3"/>
		</g>
		<g>
			<path fill="#F9A908" d="M61.8,36.8c0,13-11.9,19.5-30.3,19.5c-18.4,0-30.3-6.5-30.3-19.5S13.1,4.3,31.5,4.3
				C49.9,4.3,61.8,23.8,61.8,36.8z"/>
		</g>
		<g>
			<path fill="#F9C55D" d="M1.2,36.8c0-13,11.9-32.5,30.3-32.5"/>
		</g>
		<g>
			<path fill="#F7910B" d="M31.5,4.3c18.4,0,30.3,19.5,30.3,32.5S49.9,60.3,31.5,60.3"/>
		</g>
		<g>
			<path fill="#EA7103" d="M31.5,4.3c18.4,0,30.3,19.5,30.3,32.5"/>
		</g>
		<g>
			<g>
				<g>
					<g>
						<g>
							<g>
								<path fill="#19BCA4" d="M36.8,13.5c0,0.9-1.4,0.5-3.3,0.6c-1.8,0.1-3.3,0.6-3.3-0.3c0-0.9,1.4-1.6,3.2-1.7
									C35.3,12,36.8,12.6,36.8,13.5z"/>
							</g>
						</g>
					</g>
				</g>
				<g>
					<g>
						<g>
							<g>
								<path fill="#19BCA4" d="M49.4,13.5c0,0.9,1.4,0.5,3.3,0.6c1.8,0.1,3.3,0.6,3.3-0.3c0-0.9-1.4-1.6-3.2-1.7
									C51,12,49.5,12.6,49.4,13.5z"/>
							</g>
						</g>
					</g>
				</g>
			</g>
			<g>
				<g>
					<g>
						<g>
							<g>
								<path fill="#109DA0" d="M36.8,13.5c0,0.9-1.4,0.5-3.3,0.6c-1.8,0.1-3.3,0.6-3.3-0.3"/>
							</g>
						</g>
					</g>
				</g>
				<g>
					<g>
						<g>
							<g>
								<path fill="#109DA0" d="M49.4,13.5c0,0.9,1.4,0.5,3.3,0.6c1.8,0.1,3.3,0.6,3.3-0.3"/>
							</g>
						</g>
					</g>
				</g>
			</g>
		</g>
		<g>
			<g>
				<path fill="#F9C55D" d="M34.8,32c0,1.2-3.5,0.7-7.8,0.7c-4.3,0-7.8,0.6-7.8-0.7s3.5-2.2,7.8-2.2C31.3,29.8,34.8,30.7,34.8,32z"
					/>
			</g>
			<g>
				<path fill="#F9A908" d="M58.8,32c0,1.2-3.5,0.7-7.8,0.7c-4.3,0-7.8,0.6-7.8-0.7s3.5-2.2,7.8-2.2C55.3,29.8,58.8,30.7,58.8,32z"
					/>
			</g>
		</g>
		<g>
			<circle fill="#F7910B" cx="9.8" cy="33.7" r="0.6"/>
		</g>
		<g>
			<circle fill="#F7910B" cx="5.3" cy="35.7" r="1.1"/>
		</g>
		<g>
			<circle fill="#F7910B" cx="8.3" cy="31.7" r="0.2"/>
		</g>
		<g>
			<circle fill="#F7910B" cx="12.9" cy="33.6" r="0.2"/>
		</g>
		<g>
			<circle fill="#F9A908" cx="52.1" cy="34.1" r="0.7"/>
		</g>
		<g>
			<circle fill="#F9A908" cx="54.6" cy="35.5" r="0.2"/>
		</g>
		<g>
			<circle fill="#F9A908" cx="49.3" cy="26.7" r="0.3"/>
		</g>
		<g>
			<circle fill="#F9A908" cx="48.8" cy="38.3" r="1.3"/>
		</g>
		<g>
			<circle fill="#F9A908" cx="56" cy="38.4" r="0.6"/>
		</g>
		<g>
			<circle fill="#F7910B" cx="8.8" cy="37.8" r="0.5"/>
		</g>
		<g>
			<circle fill="#F7910B" cx="9.6" cy="29.4" r="0.4"/>
		</g>
		<g>
			<circle fill="#F9A908" cx="4.3" cy="15.6" r="1.1"/>
		</g>
		<g>
			<circle fill="#F9A908" cx="7.5" cy="12.1" r="0.6"/>
		</g>
		<g>
			<circle fill="#F9A908" cx="58.7" cy="18" r="0.2"/>
		</g>
		<g>
			<circle fill="#F9A908" cx="57.9" cy="15.1" r="0.8"/>
		</g>
		<g>
			<circle fill="#F9A908" cx="60.5" cy="15.6" r="0.5"/>
		</g>
		<g>
			<circle fill="#F9A908" cx="5.5" cy="18.6" r="0.6"/>
		</g>
	</g>
	<g>
		<g>
			<path fill="#454949" d="M10.8,59.6c0,1.2-1,2.1-2.1,2.1H5.1c-1.2,0-2.1-1-2.1-2.1L5.7,49c0-1.2,1-2.1,2.1-2.1h3.6
				c1.2,0,2.1,1,2.1,2.1L10.8,59.6z"/>
		</g>
		<g>
			<path fill="#454949" d="M32.4,44.8H5.7v4.3L3,59.6c0,1.2,1,2.1,2.1,2.1h3.6c1.2,0,2.1-1,2.1-2.1l1.5-5.7h7c1.2,0,1.5-1,1.5-2.1
				v-2.7h11.6V44.8z M18.4,50.7c0,0.9-0.2,1.7-1.1,1.7h-4.6l0.9-3.3h4.8V50.7z"/>
		</g>
		<g>
			<path fill="#252828" d="M12.3,53.9h7c1.2,0,1.5-1,1.5-2.1v-2.7h11.6v-4.3H5.7v4.3 M18.4,50.7c0,0.9-0.2,1.7-1.1,1.7h-4.6l0.9-3.3
				h4.8V50.7z"/>
		</g>
		<g>
			<polygon fill="#2ABA9E" points="16.1,52 15.1,52 14.4,49.4 16.1,49.4 			"/>
		</g>
		<g>
			<polyline fill="#1A9992" points="14.4,49.4 16.1,49.4 16.1,52 			"/>
		</g>
		<g>
			<polygon fill="#2ABA9E" points="34.5,36.7 33.8,39.2 6.9,39.2 5.7,44 35.5,44 35.5,39.3 35.5,39.2 35.5,36.7 			"/>
		</g>
		<g>
			<g>
				<path fill="#2ABA9E" d="M8.3,51H5.2L5,51.9h3.3c0.2,0,0.4-0.2,0.4-0.4C8.7,51.2,8.5,51,8.3,51z"/>
			</g>
			<g>
				<path fill="#2ABA9E" d="M7.9,53.2H4.6l-0.2,0.9h3.5c0.2,0,0.4-0.2,0.4-0.4S8.2,53.2,7.9,53.2z"/>
			</g>
			<g>
				<path fill="#2ABA9E" d="M3.8,56.3h3.4c0.2,0,0.4-0.2,0.4-0.4c0-0.2-0.2-0.4-0.4-0.4H4.1L3.8,56.3z"/>
			</g>
		</g>
		<g>
			<path fill="#252828" d="M33.2,48.4c0,0.4-0.3,0.7-0.7,0.7l0,0c-0.4,0-0.7-0.3-0.7-0.7v-2.9c0-0.4,0.3-0.7,0.7-0.7l0,0
				c0.4,0,0.7,0.3,0.7,0.7V48.4z"/>
		</g>
		<g>
			<polygon fill="#1A9992" points="6.5,41 5.7,44 35.5,44 35.5,41 			"/>
		</g>
		<g>
			<path fill="#2ABA9E" d="M35.5,43.5c0,0.3-0.2,0.5-0.5,0.5l0,0c-0.3,0-0.5-0.2-0.5-0.5v-2.1c0-0.3,0.2-0.5,0.5-0.5l0,0
				c0.3,0,0.5,0.2,0.5,0.5V43.5z"/>
		</g>
		<g>
			<circle fill="#2ABA9E" cx="19.9" cy="46.8" r="0.6"/>
		</g>
		<g>
			<circle fill="#2ABA9E" cx="22.8" cy="46.8" r="0.6"/>
		</g>
		<g>
			<path fill="#2ABA9E" d="M26.4,46.8c0,0.3-0.3,0.6-0.6,0.6c-0.3,0-0.6-0.3-0.6-0.6s0.3-0.6,0.6-0.6C26.2,46.2,26.4,46.5,26.4,46.8
				z"/>
		</g>
		<g>
			<path fill="#EA1F0A" d="M36.2,49.2c-1.3,0-2.4-1.1-2.4-2.4s1.1-2.4,2.4-2.4"/>
		</g>
		<g>
			<path fill="#FF5512" d="M63,46.3H37.3c-1.3,0-2.4,0.2-2.4,0.5s1.1,0.5,2.4,0.5H63V46.3z"/>
		</g>
	</g>
	<g>
		<g>
			<g>
				<g>
					<g>
						<path fill="#00233F" d="M22.6,21.1c-0.1,0.6-0.2,1.1-0.2,1.7c0,4.5,1.3,8.2,5.8,8.2h7.5c4.5,0,5.8-3.7,5.8-8.2
							c0-0.6-0.1-1.2-0.2-1.7H22.6z"/>
					</g>
					<g>
						<path fill="#00233F" d="M42.1,20.8c0,0.7-0.6,1.3-1.3,1.3H23.2c-0.7,0-1.3-0.6-1.3-1.3l0,0c0-0.7,0.6-1.3,1.3-1.3h17.6
							C41.6,19.5,42.1,20.1,42.1,20.8L42.1,20.8z"/>
					</g>
				</g>
				<g>
					<path fill="#00233F" d="M32,20.4c0,0.5-0.4,1.9-0.8,1.9H1.3c-0.5,0-0.8-1.5-0.8-1.9l0,0c0-0.5,0.4-0.8,0.8-0.8h29.8
						C31.6,19.5,32,19.9,32,20.4L32,20.4z"/>
				</g>
			</g>
			<g>
				<g>
					<g>
						<path fill="#00233F" d="M60.5,21.1c0.1,0.6,0.1,1.1,0.1,1.7c0,4.5-0.9,8.2-3.9,8.2h-5.1c-3.1,0-3.9-3.7-3.9-8.2
							c0-0.6,0-1.2,0.1-1.7H60.5z"/>
					</g>
					<g>
						<path fill="#00233F" d="M47.4,20.8c0,0.7,0.4,1.3,0.9,1.3h11.9c0.5,0,0.9-0.6,0.9-1.3l0,0c0-0.7-0.4-1.3-0.9-1.3H48.2
							C47.7,19.5,47.4,20.1,47.4,20.8L47.4,20.8z"/>
					</g>
				</g>
				<g>
					<path fill="#00233F" d="M54.2,20.4c0,0.5,0.2,1.9,0.6,1.9H63c0.3,0,0.6-1.5,0.6-1.9l0,0c0-0.5-0.2-0.8-0.6-0.8h-8.2
						C54.5,19.5,54.2,19.9,54.2,20.4L54.2,20.4z"/>
				</g>
			</g>
		</g>
		<g>
			<path fill="#00233F" d="M54.1,20.6c0,0.6-0.5,1.1-1.1,1.1H36.4c-0.6,0-1.1-0.5-1.1-1.1l0,0c0-0.6,0.5-1.1,1.1-1.1h16.7
				C53.7,19.5,54.1,20,54.1,20.6L54.1,20.6z"/>
		</g>
	</g>
	<g>
		<path fill="#02243E" d="M46.6,36.5h-3c-0.6,0-1.1-0.5-1.1-1.1s0.5-1.1,1.1-1.1h3c0.6,0,1.1,0.5,1.1,1.1S47.2,36.5,46.6,36.5z"/>
	</g>
</g>
</svg>
