<?xml version="1.0" encoding="utf-8"?>
<!-- Generator: Adobe Illustrator 16.0.0, SVG Export Plug-In . SVG Version: 6.00 Build 0)  -->
<!DOCTYPE svg PUBLIC "-//W3C//DTD SVG 1.1//EN" "http://www.w3.org/Graphics/SVG/1.1/DTD/svg11.dtd">
<svg version="1.1" id="Layer_1" xmlns="http://www.w3.org/2000/svg" xmlns:xlink="http://www.w3.org/1999/xlink" x="0px" y="0px"
	 width="64px" height="64px" viewBox="0 0 64 64" enable-background="new 0 0 64 64" xml:space="preserve">
<g>
	<g>
		<g>
			<path fill="#770606" d="M32.5,4.2c0,0.3-0.2,0.5-0.5,0.5l0,0c-0.3,0-0.5-0.2-0.5-0.5v-3c0-0.3,0.2-0.5,0.5-0.5l0,0
				c0.3,0,0.5,0.2,0.5,0.5V4.2z"/>
			<path fill="#CE1906" d="M62,63c-0.4-3-3.4-6-7-6H9c-3.6,0-6.5,3-7,6H62z"/>
			<path fill="#770606" d="M62,63c-0.4-3.5-3.4-6-7-6H9"/>
			<g>
				<g>
					<g>
						<circle fill="#CE1906" cx="23.7" cy="16.9" r="3.7"/>
						<path fill="#770606" d="M27.3,16.9c0,2-1.6,3.7-3.7,3.7c-2,0-3.7-1.6-3.7-3.7"/>
						<path fill="#FF4133" d="M22.6,15.3c0,0.1-0.1,0.2-0.2,0.2h-0.7c-0.1,0-0.2-0.1-0.2-0.2l0,0c0-0.1,0.1-0.2,0.2-0.2h0.7
							C22.5,15.1,22.6,15.2,22.6,15.3L22.6,15.3z"/>
						<path fill="#00FFF2" d="M22.6,18.4c0,0.1-0.1,0.2-0.2,0.2h-0.7c-0.1,0-0.2-0.1-0.2-0.2l0,0c0-0.1,0.1-0.2,0.2-0.2h0.7
							C22.5,18.3,22.6,18.3,22.6,18.4L22.6,18.4z"/>
						<path fill="#FF4133" d="M22.6,16.2c0,0.1-0.1,0.2-0.2,0.2h-0.7c-0.1,0-0.2-0.1-0.2-0.2l0,0c0-0.1,0.1-0.2,0.2-0.2h0.7
							C22.5,16,22.6,16.1,22.6,16.2L22.6,16.2z"/>
					</g>
					<g>
						<circle fill="#CE1906" cx="40.3" cy="16.9" r="3.7"/>
						<path fill="#770606" d="M36.7,16.9c0,2,1.6,3.7,3.7,3.7c2,0,3.7-1.6,3.7-3.7"/>
						<path fill="#FF4133" d="M41.4,15.3c0,0.1,0.1,0.2,0.2,0.2h0.7c0.1,0,0.2-0.1,0.2-0.2l0,0c0-0.1-0.1-0.2-0.2-0.2h-0.7
							C41.5,15.1,41.4,15.2,41.4,15.3L41.4,15.3z"/>
						<path fill="#00FFF2" d="M41.4,18.4c0,0.1,0.1,0.2,0.2,0.2h0.7c0.1,0,0.2-0.1,0.2-0.2l0,0c0-0.1-0.1-0.2-0.2-0.2h-0.7
							C41.5,18.3,41.4,18.3,41.4,18.4L41.4,18.4z"/>
						<path fill="#FF4133" d="M41.4,16.2c0,0.1,0.1,0.2,0.2,0.2h0.7c0.1,0,0.2-0.1,0.2-0.2l0,0c0-0.1-0.1-0.2-0.2-0.2h-0.7
							C41.5,16,41.4,16.1,41.4,16.2L41.4,16.2z"/>
					</g>
				</g>
				<path fill="#CE1906" d="M41,55.8c0,4.7-4.3,6.6-9,6.6l0,0c-4.7,0-9-1.8-9-6.6V12.4c0-4.7,4.3-8.6,9-8.6l0,0c4.7,0,9,3.8,9,8.6
					V55.8z"/>
				<path fill="#770606" d="M32.2,3.8L32.2,3.8c4.7,0,8.8,3.8,8.8,8.6v43.4c0,4.7-3.9,6.6-8.7,6.6l0,0"/>
				<ellipse transform="matrix(0.7962 -0.605 0.605 0.7962 1.4957 18.1897)" fill="#FF4133" cx="27.7" cy="6.9" rx="3.2" ry="1.1"/>
				<circle fill="#FF4133" cx="24.9" cy="10.5" r="0.4"/>
				<circle fill="#FF4133" cx="24.7" cy="11.9" r="0.3"/>
				<path fill="#FF4133" d="M25,26.8c0,0.2-0.3,0.4-0.5,0.4l0,0c-0.2,0-0.5-0.2-0.5-0.4V15.5c0-0.2,0.3-0.4,0.5-0.4l0,0
					c0.2,0,0.5,0.2,0.5,0.4V26.8z"/>
				<path fill="#FF4133" d="M25,49.2c0,0.2-0.3,0.4-0.5,0.4l0,0c-0.2,0-0.5-0.2-0.5-0.4V38c0-0.2,0.3-0.4,0.5-0.4l0,0
					c0.2,0,0.5,0.2,0.5,0.4V49.2z"/>
				<circle fill="#FF4133" cx="32" cy="6.5" r="0.6"/>
				<path fill="#770606" d="M45.7,57c0,3.3-0.7,6-4,6H22.3c-3.3,0-4-2.7-4-6l0,0c0-3.3,2.7-6,6.1-6h15.4C43,51,45.7,53.7,45.7,57
					L45.7,57z"/>
				<path fill="#590606" d="M45.7,57L45.7,57c0,3.3-0.7,6-4,6H22.3c-3.3,0-4-2.7-4-6l0,0"/>
			</g>
			<path fill="#00FFF2" d="M34,4c0,0.5-0.4,1-0.8,1h-2.4C30.3,5,30,4.5,30,4l0,0c0-0.5,0.4-1,0.8-1h2.4C33.7,3,34,3.5,34,4L34,4z"/>
			<path fill="#07E5D5" d="M31,3h2.2C33.7,3,34,3.5,34,3.9l0,0c0,0.5-0.3,0.8-0.7,0.8"/>
			
				<ellipse transform="matrix(0.8094 -0.5872 0.5872 0.8094 -27.3835 23.0767)" fill="#CE1906" cx="21.9" cy="53.7" rx="2.5" ry="1.1"/>
			<circle fill="#CE1906" cx="32" cy="57.4" r="1.8"/>
		</g>
		<g>
			<path fill="#770606" d="M29.1,10.6c0,0.2-0.1,0.3-0.3,0.3h-1.4c-0.2,0-0.3-0.1-0.3-0.3l0,0c0-0.2,0.1-0.3,0.3-0.3h1.4
				C28.9,10.2,29.1,10.4,29.1,10.6L29.1,10.6z"/>
			<path fill="#CE1906" d="M37,10.6c0,0.2-0.1,0.3-0.3,0.3h-1.4c-0.2,0-0.3-0.1-0.3-0.3l0,0c0-0.2,0.1-0.3,0.3-0.3h1.4
				C36.9,10.2,37,10.4,37,10.6L37,10.6z"/>
		</g>
	</g>
	<g>
		<g>
			<path fill="#00FFF2" d="M38,16.1c0,1.6-1.3,2.9-2.9,2.9h-6.3c-1.6,0-2.9-1.3-2.9-2.9v-0.3c0-1.6,1.3-2.9,2.9-2.9h6.3
				c1.6,0,2.9,1.3,2.9,2.9V16.1z"/>
			<path fill="#07E5D5" d="M37.9,16.2L37.9,16.2c0,1.6-1.3,2.8-2.9,2.8H29c-1.6,0-2.9-1.2-2.9-2.8l0,0"/>
			<path fill="#C3D8D7" d="M39.2,32c0,2.2-0.8,4-2.9,4h-8.6c-2.2,0-2.9-1.8-2.9-4l0,0c0-2.2,1.8-4,4-4h6.6
				C37.5,28,39.2,29.8,39.2,32L39.2,32z"/>
			<path fill="#770606" d="M39.2,32.5c0,1.9-0.8,5.5-2.9,5.5h-8.6c-2.2,0-2.9-3.5-2.9-5.5l0,0c0-2,1.8-3.5,4-3.5h6.6
				C37.5,29,39.2,30.6,39.2,32.5L39.2,32.5z"/>
			<path fill="#EDF9F9" d="M39.2,32.5c0,1.9-0.8,3.5-2.9,3.5h-8.6c-2.2,0-2.9-1.6-2.9-3.5l0,0c0-2,1.8-3.5,4-3.5h6.6
				C37.5,29,39.2,30.5,39.2,32.5L39.2,32.5z"/>
			<g>
				<g>
					<circle fill="#10998C" cx="28.8" cy="16.4" r="0.8"/>
					<circle fill="#D7F4EF" cx="28.6" cy="16" r="0.3"/>
				</g>
				<g>
					<circle fill="#10998C" cx="35.2" cy="16.4" r="0.8"/>
					<circle fill="#D7F4EF" cx="34.9" cy="16" r="0.3"/>
				</g>
			</g>
			<path fill="#C3D8D7" d="M38,32c0,0-0.2,0-0.4,0H26.4c-0.2,0-0.4,0-0.4,0l0,0c0,0,0.2,0,0.4,0h11.2C37.8,32,38,32,38,32L38,32z"/>
		</g>
	</g>
</g>
</svg>
