<?xml version="1.0" encoding="utf-8"?>
<!-- Generator: Adobe Illustrator 16.0.0, SVG Export Plug-In . SVG Version: 6.00 Build 0)  -->
<!DOCTYPE svg PUBLIC "-//W3C//DTD SVG 1.1//EN" "http://www.w3.org/Graphics/SVG/1.1/DTD/svg11.dtd">
<svg version="1.1" id="Layer_1" xmlns="http://www.w3.org/2000/svg" xmlns:xlink="http://www.w3.org/1999/xlink" x="0px" y="0px"
	 width="64px" height="64px" viewBox="0 0 64 64" enable-background="new 0 0 64 64" xml:space="preserve">
<g>
	<g>
		<rect x="56.9" y="47" fill="#285443" width="4.3" height="13.5"/>
		<rect x="0.9" y="39.6" fill="#285443" width="7.2" height="22"/>
		<rect x="11.9" y="52.1" fill="#285443" width="4.3" height="11.2"/>
		<rect x="53.3" y="50.9" fill="#285443" width="4.3" height="11.2"/>
		<rect x="15.7" y="49.6" fill="#285443" width="4.3" height="11.2"/>
		<rect x="20.8" y="51.1" fill="#424A4C" width="4.3" height="11.2"/>
		<rect x="19.2" y="50.9" fill="#285443" width="4.3" height="11.2"/>
		<rect x="36.7" y="50.9" fill="#285443" width="4.3" height="11.2"/>
		<rect x="39.8" y="53.7" fill="#285443" width="14.9" height="7.9"/>
		<rect x="23.5" y="54.7" fill="#285443" width="14.9" height="7.9"/>
		<rect x="5.7" y="53.7" fill="#285443" width="14.9" height="7.9"/>
		<rect x="58.8" y="49.9" fill="#285443" width="4.3" height="11.2"/>
		<g>
			<g>
				<rect x="5.8" y="40.8" fill="#EBF0F2" width="1" height="1"/>
				<rect x="5.8" y="42.7" fill="#EBF0F2" width="1" height="1"/>
				<rect x="5.8" y="44.6" fill="#EBF0F2" width="1" height="1"/>
				<rect x="5.8" y="46.5" fill="#EBF0F2" width="1" height="1"/>
				<rect x="5.8" y="48.4" fill="#EBF0F2" width="1" height="1"/>
				<rect x="5.8" y="50.3" fill="#EBF0F2" width="1" height="1"/>
				<rect x="5.8" y="52.2" fill="#EBF0F2" width="1" height="1"/>
				<rect x="5.8" y="54.1" fill="#EBF0F2" width="1" height="1"/>
			</g>
			<g>
				<rect x="4" y="40.8" fill="#EBF0F2" width="1" height="1"/>
				<rect x="4" y="42.7" fill="#EBF0F2" width="1" height="1"/>
				<rect x="4" y="44.6" fill="#EBF0F2" width="1" height="1"/>
				<rect x="4" y="46.5" fill="#EBF0F2" width="1" height="1"/>
				<rect x="4" y="48.4" fill="#EBF0F2" width="1" height="1"/>
				<rect x="4" y="50.3" fill="#EBF0F2" width="1" height="1"/>
				<rect x="4" y="52.2" fill="#EBF0F2" width="1" height="1"/>
				<rect x="4" y="54.1" fill="#EBF0F2" width="1" height="1"/>
			</g>
			<g>
				<rect x="2.2" y="40.8" fill="#EBF0F2" width="1" height="1"/>
				<rect x="2.2" y="42.7" fill="#EBF0F2" width="1" height="1"/>
				<rect x="2.2" y="44.6" fill="#EBF0F2" width="1" height="1"/>
				<rect x="2.2" y="46.5" fill="#EBF0F2" width="1" height="1"/>
				<rect x="2.2" y="48.4" fill="#EBF0F2" width="1" height="1"/>
				<rect x="2.2" y="50.3" fill="#EBF0F2" width="1" height="1"/>
				<rect x="2.2" y="52.2" fill="#EBF0F2" width="1" height="1"/>
				<rect x="2.2" y="54.1" fill="#EBF0F2" width="1" height="1"/>
			</g>
		</g>
	</g>
	<g>
		<g>
			<path fill="#3D514A" d="M32.2,6.4c0,0.1-0.1,0.2-0.2,0.2l0,0c-0.1,0-0.2-0.1-0.2-0.2V1.8c0-0.1,0.1-0.2,0.2-0.2l0,0
				c0.1,0,0.2,0.1,0.2,0.2V6.4z"/>
			<path fill="#5B726B" d="M33.1,6.9c0,0.4-0.3,0.7-0.7,0.7h-0.8c-0.4,0-0.7-0.3-0.7-0.7l0,0c0-0.4,0.3-0.7,0.7-0.7h0.8
				C32.8,6.1,33.1,6.5,33.1,6.9L33.1,6.9z"/>
			<g>
				<path fill="#40514B" d="M42.3,61.7h-2.1c0-4.4-3.7-7.9-8.2-7.9s-8.2,3.5-8.2,7.9h-2.1c0-5.5,4.6-10,10.3-10S42.3,56.2,42.3,61.7
					z"/>
			</g>
			<path fill="#2F3A36" d="M32,52.8c-5.3,0-9.7,3.9-10.2,8.9h2c0-4.4,3.7-7.9,8.2-7.9s8.2,3.5,8.2,7.9h2
				C41.7,56.7,37.3,52.8,32,52.8z"/>
			<path fill="#5B726B" d="M49.3,60.6c-4.2,0-15.9-20.9-15.9-49.8c0-1.4-0.3-3.9-1.3-3.9l0,0l0,0l0,0l0,0c-1,0-1.3,2.5-1.3,3.9
				c0,28.9-11.8,49.8-15.9,49.8c-1.1,0-1,0.8-1,2.2s4.3-0.3,5.4-0.3c3.6,0,10.6-16.4,12.9-36.3c2.3,19.8,9.3,36.3,12.9,36.3
				c1.1,0,5.4,1.7,5.4,0.3S50.3,60.6,49.3,60.6z"/>
			<path fill="#658278" d="M33.3,10.8c0-1.4-0.3-3.9-1.3-3.9l0,0l0,0l0,0l0,0c-1,0-1.3,2.5-1.3,3.9c0,28.9-11.8,49.8-15.9,49.8
				c-0.1,0-0.2,0-0.3,0c1.2,0.2,3.9-0.8,4.7-0.8c3.6,0,10.6-16.4,12.9-36.3c2.3,19.8,9.3,36.3,12.9,36.3c0.8,0,3.5,1,4.7,0.8
				c-0.1,0-0.2,0-0.3,0C45.1,60.6,33.3,39.7,33.3,10.8z"/>
			<g>
				<path fill="#40514B" d="M40.4,48.2h-3.7c0.4,1.2,0.8,2.3,1.2,3.4H42C41.4,50.6,40.9,49.4,40.4,48.2z"/>
				<path fill="#40514B" d="M27.3,48.2h-3.7c-0.5,1.2-1,2.3-1.6,3.4h4.1C26.5,50.6,26.9,49.4,27.3,48.2z"/>
			</g>
			
				<line fill="#5B736C" stroke="#5B726B" stroke-width="0.5143" stroke-linecap="round" stroke-miterlimit="10" x1="32" y1="25.9" x2="32" y2="49.1"/>
			<g>
				<g>
					<g>
						<path fill="#658278" d="M41.9,52.3H22.1c-0.3,0-0.5-0.2-0.5-0.5c0-0.3,0.2-0.5,0.5-0.5h19.8c0.3,0,0.5,0.2,0.5,0.5
							C42.4,52.1,42.2,52.3,41.9,52.3z"/>
					</g>
					<path fill="#5B726B" d="M41.9,51.8H22.1c-0.2,0-0.3,0.1-0.4,0.2c0.1,0.1,0.2,0.2,0.4,0.2h19.8c0.2,0,0.3-0.1,0.4-0.2
						C42.2,51.9,42.1,51.8,41.9,51.8z"/>
					<path fill="#658278" d="M42.8,47.8l-0.2-0.2h-21l-0.3,0l-0.1,0.2c-0.2,0.3-0.1,0.7,0.1,1.3c0.1,0.2,0.1,0.4,0.2,0.5
						c0,0.6,0.5,1.1,1.1,1.1h18.9c0.6,0,1.1-0.5,1.1-1.1c0-0.1,0.1-0.3,0.2-0.5C42.9,48.6,43,48.1,42.8,47.8z"/>
					<path fill="#5B726B" d="M21.6,48.9l-0.3,0L21.3,49c0,0,0,0.1,0,0.1c0.1,0.2,0.1,0.4,0.2,0.5c0,0.6,0.5,1.1,1.1,1.1h18.9
						c0.6,0,1.1-0.5,1.1-1.1c0-0.1,0.1-0.3,0.2-0.5c0,0,0-0.1,0-0.1l-0.1-0.1H21.6z"/>
					<g>
						<g>
							
								<rect x="23.4" y="48.6" transform="matrix(0.7078 -0.7064 0.7064 0.7078 -27.7248 31.2586)" fill="#2F3A36" width="1" height="1"/>
							<polyline fill="#101412" points="24.6,49.1 23.9,49.8 23.2,49.1 							"/>
							<path fill="#7D918A" d="M23.9,50.1L23,49.1l0.9-0.9l0.9,0.9L23.9,50.1z M23.4,49.1l0.5,0.5l0.5-0.5l-0.5-0.5L23.4,49.1z"/>
						</g>
						<g>
							
								<rect x="26.1" y="48.6" transform="matrix(0.7069 -0.7074 0.7074 0.7069 -26.9608 33.2339)" fill="#2F3A36" width="1" height="1"/>
							<polyline fill="#101412" points="27.3,49.1 26.6,49.8 25.9,49.1 							"/>
							<path fill="#7D918A" d="M26.6,50.1l-0.9-0.9l0.9-0.9l0.9,0.9L26.6,50.1z M26.1,49.1l0.5,0.5l0.5-0.5l-0.5-0.5L26.1,49.1z"/>
						</g>
						<g>
							
								<rect x="28.8" y="48.6" transform="matrix(0.7069 -0.7074 0.7074 0.7069 -26.1719 35.1377)" fill="#2F3A36" width="1" height="1"/>
							<polyline fill="#101412" points="30,49.1 29.3,49.8 28.6,49.1 							"/>
							<path fill="#7D918A" d="M29.3,50.1l-0.9-0.9l0.9-0.9l0.9,0.9L29.3,50.1z M28.8,49.1l0.5,0.5l0.5-0.5l-0.5-0.5L28.8,49.1z"/>
						</g>
						<g>
							
								<rect x="31.5" y="48.6" transform="matrix(0.7074 -0.7069 0.7069 0.7074 -25.3743 37.0018)" fill="#2F3A36" width="1" height="1"/>
							<polyline fill="#101412" points="32.7,49.1 32,49.8 31.3,49.1 							"/>
							<path fill="#7D918A" d="M32,50.1l-0.9-0.9l0.9-0.9l0.9,0.9L32,50.1z M31.5,49.1l0.5,0.5l0.5-0.5L32,48.7L31.5,49.1z"/>
						</g>
						<g>
							
								<rect x="34.2" y="48.6" transform="matrix(0.7083 -0.7059 0.7059 0.7083 -24.572 38.823)" fill="#2F3A36" width="1" height="1"/>
							<polyline fill="#101412" points="35.4,49.1 34.7,49.8 34,49.1 							"/>
							<path fill="#7D918A" d="M34.7,50.1l-0.9-0.9l0.9-0.9l0.9,0.9L34.7,50.1z M34.2,49.1l0.5,0.5l0.5-0.5l-0.5-0.5L34.2,49.1z"/>
						</g>
						<g>
							
								<rect x="36.9" y="48.6" transform="matrix(0.7074 -0.7069 0.7069 0.7074 -23.7989 40.8071)" fill="#2F3A36" width="1" height="1"/>
							<polyline fill="#101412" points="38.1,49.1 37.4,49.8 36.7,49.1 							"/>
							<path fill="#7D918A" d="M37.4,50.1l-0.9-0.9l0.9-0.9l0.9,0.9L37.4,50.1z M36.9,49.1l0.5,0.5l0.5-0.5l-0.5-0.5L36.9,49.1z"/>
						</g>
						<g>
							
								<rect x="39.6" y="48.6" transform="matrix(0.7069 -0.7074 0.7074 0.7069 -23.0152 42.7548)" fill="#2F3A36" width="1" height="1"/>
							<polyline fill="#101412" points="40.8,49.1 40.1,49.8 39.4,49.1 							"/>
							<path fill="#7D918A" d="M40.1,50.1l-0.9-0.9l0.9-0.9l0.9,0.9L40.1,50.1z M39.6,49.1l0.5,0.5l0.5-0.5l-0.5-0.5L39.6,49.1z"/>
						</g>
					</g>
				</g>
				<path fill="#5B726B" d="M42.8,47.6c0,0.1-0.1,0.2-0.2,0.2h-21c-0.1,0-0.2-0.1-0.2-0.2l0,0c0-0.1,0.1-0.2,0.2-0.2h21
					C42.7,47.3,42.8,47.4,42.8,47.6L42.8,47.6z"/>
			</g>
			<g>
				<g>
					<g>
						<path fill="#658278" d="M34.9,25.9h-5.8c-0.1,0-0.1-0.1-0.1-0.1s0.1-0.1,0.1-0.1h5.8c0.1,0,0.1,0.1,0.1,0.1S35,25.9,34.9,25.9
							z"/>
					</g>
					<path fill="#5B726B" d="M34.9,25.8h-5.8c-0.1,0-0.1,0-0.1,0.1c0,0,0.1,0.1,0.1,0.1h5.8c0.1,0,0.1,0,0.1-0.1
						C35,25.8,35,25.8,34.9,25.8z"/>
					<path fill="#658278" d="M35.2,24.6L35.2,24.6L29,24.6l-0.1,0l0,0.1c-0.1,0.1,0,0.2,0,0.4c0,0,0,0.1,0,0.1
						c0,0.2,0.1,0.3,0.3,0.3h5.6c0.2,0,0.3-0.1,0.3-0.3c0,0,0-0.1,0-0.1C35.2,24.8,35.2,24.7,35.2,24.6z"/>
					<path fill="#5B726B" d="M29,24.9L29,24.9l-0.1,0C28.9,25,28.9,25,29,24.9c-0.1,0.1,0,0.2,0,0.2c0,0.2,0.1,0.3,0.3,0.3h5.6
						c0.2,0,0.3-0.1,0.3-0.3c0,0,0-0.1,0-0.1c0,0,0,0,0,0l0,0H29z"/>
					<g>
						<g>
							
								<rect x="29.5" y="24.9" transform="matrix(0.7037 -0.7105 0.7105 0.7037 -8.987 28.4631)" fill="#2F3A36" width="0.3" height="0.3"/>
							<polyline fill="#101412" points="29.8,25 29.6,25.2 29.4,25 							"/>
							<path fill="#7D918A" d="M29.6,25.3L29.4,25l0.3-0.3l0.3,0.3L29.6,25.3z M29.5,25l0.1,0.1l0.1-0.1l-0.1-0.1L29.5,25z"/>
						</g>
						<g>
							
								<rect x="30.3" y="24.9" transform="matrix(0.7105 -0.7037 0.7037 0.7105 -8.7894 28.6511)" fill="#2F3A36" width="0.3" height="0.3"/>
							<polyline fill="#101412" points="30.6,25 30.4,25.2 30.2,25 							"/>
							<path fill="#7D918A" d="M30.4,25.3L30.2,25l0.3-0.3l0.3,0.3L30.4,25.3z M30.3,25l0.1,0.1l0.1-0.1l-0.1-0.1L30.3,25z"/>
						</g>
						<g>
							
								<rect x="31.1" y="24.9" transform="matrix(0.7071 -0.7071 0.7071 0.7071 -8.5409 29.3941)" fill="#2F3A36" width="0.3" height="0.3"/>
							<polyline fill="#101412" points="31.4,25 31.2,25.2 31,25 							"/>
							<path fill="#7D918A" d="M31.2,25.3L30.9,25l0.3-0.3l0.3,0.3L31.2,25.3z M31.1,25l0.1,0.1l0.1-0.1l-0.1-0.1L31.1,25z"/>
						</g>
						<g>
							
								<rect x="31.9" y="24.9" transform="matrix(0.7105 -0.7037 0.7037 0.7105 -8.3333 29.7596)" fill="#2F3A36" width="0.3" height="0.3"/>
							<polyline fill="#101412" points="32.2,25 32,25.2 31.8,25 							"/>
							<path fill="#7D918A" d="M32,25.3L31.7,25l0.3-0.3l0.3,0.3L32,25.3z M31.9,25l0.1,0.1l0.1-0.1L32,24.9L31.9,25z"/>
						</g>
						<g>
							
								<rect x="32.6" y="24.9" transform="matrix(0.7088 -0.7054 0.7054 0.7088 -8.092 30.4119)" fill="#2F3A36" width="0.3" height="0.3"/>
							<polyline fill="#101412" points="33,25 32.8,25.2 32.6,25 							"/>
							<path fill="#7D918A" d="M32.8,25.3L32.5,25l0.3-0.3l0.3,0.3L32.8,25.3z M32.6,25l0.1,0.1l0.1-0.1l-0.1-0.1L32.6,25z"/>
						</g>
						<g>
							
								<rect x="33.4" y="24.9" transform="matrix(0.7071 -0.7071 0.7071 0.7071 -7.8481 31.0666)" fill="#2F3A36" width="0.3" height="0.3"/>
							<polyline fill="#101412" points="33.8,25 33.6,25.2 33.4,25 							"/>
							<path fill="#7D918A" d="M33.6,25.3L33.3,25l0.3-0.3l0.3,0.3L33.6,25.3z M33.4,25l0.1,0.1l0.1-0.1l-0.1-0.1L33.4,25z"/>
						</g>
						<g>
							
								<rect x="34.2" y="24.9" transform="matrix(0.7071 -0.7071 0.7071 0.7071 -7.6173 31.6239)" fill="#2F3A36" width="0.3" height="0.3"/>
							<polyline fill="#101412" points="34.6,25 34.4,25.2 34.2,25 							"/>
							<path fill="#7D918A" d="M34.4,25.3L34.1,25l0.3-0.3l0.3,0.3L34.4,25.3z M34.2,25l0.1,0.1l0.1-0.1l-0.1-0.1L34.2,25z"/>
						</g>
					</g>
				</g>
				<path fill="#5B726B" d="M35.2,24.5C35.2,24.6,35.1,24.6,35.2,24.5l-6.2,0.1c0,0-0.1,0-0.1-0.1l0,0c0,0,0-0.1,0.1-0.1L35.2,24.5
					C35.1,24.5,35.2,24.5,35.2,24.5L35.2,24.5z"/>
			</g>
			<g>
				<g>
					<g>
						<path fill="#658278" d="M34,9.4h-4c-0.1,0-0.1-0.1-0.1-0.2s0-0.2,0.1-0.2h4c0.1,0,0.1,0.1,0.1,0.2S34.1,9.4,34,9.4z"/>
					</g>
					<path fill="#5B726B" d="M34,9.2h-4c0,0-0.1,0.1-0.1,0.1c0,0.1,0,0.1,0.1,0.1h4c0,0,0.1-0.1,0.1-0.1C34.1,9.2,34,9.2,34,9.2z"/>
					<path fill="#658278" d="M34.2,7.1l0-0.1h-4.2l-0.1,0l0,0.1c0,0.2,0,0.4,0,0.6c0,0.1,0,0.2,0,0.2c0,0.3,0.1,0.5,0.2,0.5h3.8
						c0.1,0,0.2-0.2,0.2-0.5c0,0,0-0.2,0-0.3C34.2,7.5,34.2,7.3,34.2,7.1z"/>
					<path fill="#5B726B" d="M29.9,7.7L29.9,7.7L29.9,7.7c-0.1,0.1-0.1,0.1-0.1,0.1c0,0.1,0,0.2,0,0.2c0,0.3,0.1,0.5,0.2,0.5h3.8
						c0.1,0,0.2-0.2,0.2-0.5c0,0,0-0.2,0-0.3c0,0,0,0,0-0.1l0-0.1H29.9z"/>
				</g>
				<path fill="#5B726B" d="M34.2,7c0,0.1,0,0.1-0.1,0.1h-4.3c0,0-0.1-0.1-0.1-0.1l0,0c0-0.1,0-0.1,0.1-0.1h4.3
					C34.2,6.9,34.2,6.9,34.2,7L34.2,7z"/>
			</g>
			<g>
				<g>
					<g>
						<path fill="#658278" d="M37.2,39.2H26.8c-0.1,0-0.2-0.1-0.2-0.2c0-0.1,0.1-0.2,0.2-0.2h10.5c0.1,0,0.2,0.1,0.2,0.2
							C37.5,39.1,37.4,39.2,37.2,39.2z"/>
					</g>
					<path fill="#5B726B" d="M37.2,39H26.8c-0.1,0-0.2,0.1-0.2,0.1c0,0.1,0.1,0.1,0.2,0.1h10.5c0.1,0,0.2-0.1,0.2-0.1
						C37.4,39,37.3,39,37.2,39z"/>
					<path fill="#658278" d="M37.7,36.9l-0.1-0.1H26.5l-0.2,0l-0.1,0.1c-0.1,0.2,0,0.4,0.1,0.7c0,0.1,0.1,0.2,0.1,0.3
						c0,0.3,0.3,0.6,0.6,0.6h10c0.3,0,0.6-0.3,0.6-0.6c0,0,0.1-0.2,0.1-0.3C37.7,37.3,37.8,37,37.7,36.9z"/>
					<path fill="#5B726B" d="M26.5,37.4l-0.2,0l0,0c0,0,0,0,0,0.1c0,0.1,0.1,0.2,0.1,0.3c0,0.3,0.3,0.6,0.6,0.6h10
						c0.3,0,0.6-0.3,0.6-0.6c0,0,0.1-0.2,0.1-0.3c0,0,0,0,0-0.1l-0.1-0.1H26.5z"/>
					<g>
						<g>
							
								<rect x="27.5" y="37.3" transform="matrix(0.7071 -0.7071 0.7071 0.7071 -18.4379 30.6139)" fill="#2F3A36" width="0.5" height="0.5"/>
							<polyline fill="#101412" points="28.1,37.6 27.7,37.9 27.4,37.6 							"/>
							<path fill="#7D918A" d="M27.7,38l-0.5-0.5l0.5-0.5l0.5,0.5L27.7,38z M27.5,37.6l0.3,0.3l0.3-0.3l-0.3-0.3L27.5,37.6z"/>
						</g>
						<g>
							
								<rect x="28.9" y="37.3" transform="matrix(0.709 -0.7052 0.7052 0.709 -18.0056 31.4949)" fill="#2F3A36" width="0.5" height="0.5"/>
							<polyline fill="#101412" points="29.5,37.6 29.2,37.9 28.8,37.6 							"/>
							<path fill="#7D918A" d="M29.2,38l-0.5-0.5l0.5-0.5l0.5,0.5L29.2,38z M28.9,37.6l0.3,0.3l0.3-0.3l-0.3-0.3L28.9,37.6z"/>
						</g>
						<g>
							<polygon fill="#2F3A36" points="31,37.6 30.6,37.9 30.2,37.6 30.6,37.2 							"/>
							<polyline fill="#101412" points="31,37.6 30.6,37.9 30.2,37.6 							"/>
							<path fill="#7D918A" d="M30.6,38l-0.5-0.5l0.5-0.5l0.5,0.5L30.6,38z M30.3,37.6l0.3,0.3l0.3-0.3l-0.3-0.3L30.3,37.6z"/>
						</g>
						<g>
							
								<rect x="31.7" y="37.3" transform="matrix(0.7099 -0.7043 0.7043 0.7099 -17.173 33.4348)" fill="#2F3A36" width="0.5" height="0.5"/>
							<polyline fill="#101412" points="32.4,37.6 32,37.9 31.6,37.6 							"/>
							<path fill="#7D918A" d="M32,38l-0.5-0.5l0.5-0.5l0.5,0.5L32,38z M31.7,37.6l0.3,0.3l0.3-0.3L32,37.3L31.7,37.6z"/>
						</g>
						<g>
							
								<rect x="33.2" y="37.3" transform="matrix(0.709 -0.7052 0.7052 0.709 -16.7647 34.5018)" fill="#2F3A36" width="0.5" height="0.5"/>
							<polyline fill="#101412" points="33.8,37.6 33.4,37.9 33,37.6 							"/>
							<path fill="#7D918A" d="M33.4,38l-0.5-0.5l0.5-0.5l0.5,0.5L33.4,38z M33.2,37.6l0.3,0.3l0.3-0.3l-0.3-0.3L33.2,37.6z"/>
						</g>
						<g>
							<polygon fill="#2F3A36" points="35.2,37.6 34.8,37.9 34.5,37.6 34.8,37.2 							"/>
							<polyline fill="#101412" points="35.2,37.6 34.8,37.9 34.5,37.6 							"/>
							<path fill="#7D918A" d="M34.8,38l-0.5-0.5l0.5-0.5l0.5,0.5L34.8,38z M34.6,37.6l0.3,0.3l0.3-0.3l-0.3-0.3L34.6,37.6z"/>
						</g>
						<g>
							
								<rect x="36" y="37.3" transform="matrix(0.709 -0.7052 0.7052 0.709 -15.9371 36.5073)" fill="#2F3A36" width="0.5" height="0.5"/>
							<polyline fill="#101412" points="36.6,37.6 36.3,37.9 35.9,37.6 							"/>
							<path fill="#7D918A" d="M36.3,38l-0.5-0.5l0.5-0.5l0.5,0.5L36.3,38z M36,37.6l0.3,0.3l0.3-0.3l-0.3-0.3L36,37.6z"/>
						</g>
					</g>
				</g>
				<path fill="#5B726B" d="M37.7,36.7c0,0.1-0.1,0.1-0.1,0.1H26.4c-0.1,0-0.1-0.1-0.1-0.1l0,0c0-0.1,0.1-0.1,0.1-0.1h11.1
					C37.6,36.6,37.7,36.7,37.7,36.7L37.7,36.7z"/>
			</g>
			<g>
				<g>
					<g>
						<path fill="#5B726B" d="M30.4,42.2c-0.1,0-0.1,0-0.1-0.1l-1.4-1.4c-0.1-0.1-0.1-0.2,0-0.3l1.4-1.4c0.1-0.1,0.2-0.1,0.3,0
							l1.4,1.4c0.1,0.1,0.1,0.2,0,0.3l-1.4,1.4C30.5,42.2,30.5,42.2,30.4,42.2z M29.3,40.6l1.1,1.1l1.1-1.1l-1.1-1.1L29.3,40.6z"/>
					</g>
					<g>
						<path fill="#5B726B" d="M30.4,44.9c-0.1,0-0.1,0-0.1-0.1l-1.4-1.4c-0.1-0.1-0.1-0.2,0-0.3l1.4-1.4c0.1-0.1,0.2-0.1,0.3,0
							l1.4,1.4c0.1,0.1,0.1,0.2,0,0.3l-1.4,1.4C30.5,44.9,30.5,44.9,30.4,44.9z M29.3,43.3l1.1,1.1l1.1-1.1l-1.1-1.1L29.3,43.3z"/>
					</g>
					<g>
						<path fill="#5B726B" d="M30.4,47.6c-0.1,0-0.1,0-0.1-0.1l-1.4-1.4c-0.1-0.1-0.1-0.2,0-0.3l1.4-1.4c0.1-0.1,0.2-0.1,0.3,0
							l1.4,1.4c0.1,0.1,0.1,0.2,0,0.3l-1.4,1.4C30.5,47.6,30.5,47.6,30.4,47.6z M29.3,46l1.1,1.1l1.1-1.1l-1.1-1.1L29.3,46z"/>
					</g>
				</g>
				<g>
					<g>
						<path fill="#5B726B" d="M33.6,42.2c-0.1,0-0.1,0-0.1-0.1l-1.4-1.4c-0.1-0.1-0.1-0.2,0-0.3l1.4-1.4c0.1-0.1,0.2-0.1,0.3,0
							l1.4,1.4c0.1,0.1,0.1,0.2,0,0.3l-1.4,1.4C33.7,42.2,33.7,42.2,33.6,42.2z M32.5,40.6l1.1,1.1l1.1-1.1l-1.1-1.1L32.5,40.6z"/>
					</g>
					<g>
						<path fill="#5B726B" d="M33.6,44.9c-0.1,0-0.1,0-0.1-0.1l-1.4-1.4c-0.1-0.1-0.1-0.2,0-0.3l1.4-1.4c0.1-0.1,0.2-0.1,0.3,0
							l1.4,1.4c0.1,0.1,0.1,0.2,0,0.3l-1.4,1.4C33.7,44.9,33.7,44.9,33.6,44.9z M32.5,43.3l1.1,1.1l1.1-1.1l-1.1-1.1L32.5,43.3z"/>
					</g>
					<g>
						<path fill="#5B726B" d="M33.6,47.6c-0.1,0-0.1,0-0.1-0.1l-1.4-1.4c-0.1-0.1-0.1-0.2,0-0.3l1.4-1.4c0.1-0.1,0.2-0.1,0.3,0
							l1.4,1.4c0.1,0.1,0.1,0.2,0,0.3l-1.4,1.4C33.7,47.6,33.7,47.6,33.6,47.6z M32.5,46l1.1,1.1l1.1-1.1l-1.1-1.1L32.5,46z"/>
					</g>
				</g>
			</g>
			<path fill="#5B726B" d="M32.8,6c0,0.1-0.1,0.2-0.2,0.2h-1.2c-0.1,0-0.2-0.1-0.2-0.2l0,0c0-0.1,0.1-0.2,0.2-0.2h1.2
				C32.7,5.8,32.8,5.9,32.8,6L32.8,6z"/>
			<path fill="#3D514A" d="M32.7,1.3C32.7,1.7,32.4,2,32,2l0,0c-0.4,0-0.7-0.3-0.7-0.7l0,0c0-0.4,0.3-0.7,0.7-0.7l0,0
				C32.4,0.7,32.7,1,32.7,1.3L32.7,1.3z"/>
		</g>
		<path fill="#86B51F" d="M63.5,62.3c0,0.5-0.4,1-1,1h-61c-0.6,0-1-0.4-1-1v-1c0-0.6,0.4-1,1-1h61c0.5,0,1,0.4,1,1V62.3z"/>
	</g>
</g>
</svg>
