<?xml version="1.0" encoding="utf-8"?>
<!-- Generator: Adobe Illustrator 16.0.0, SVG Export Plug-In . SVG Version: 6.00 Build 0)  -->
<!DOCTYPE svg PUBLIC "-//W3C//DTD SVG 1.1//EN" "http://www.w3.org/Graphics/SVG/1.1/DTD/svg11.dtd">
<svg version="1.1" xmlns="http://www.w3.org/2000/svg" xmlns:xlink="http://www.w3.org/1999/xlink" x="0px" y="0px" width="65px"
	 height="65px" viewBox="0 0 65 65" enable-background="new 0 0 65 65" xml:space="preserve">
<g id="Layer_1">
	<g>
		<g>
			<g>
				<g>
					<g>
						<g>
							<circle fill="#27C4CC" cx="12.833" cy="32.644" r="9.875"/>
						</g>
						<g>
							<path fill="#36EAEA" d="M12.833,22.769c5.453,0,9.875,4.421,9.875,9.875s-4.422,9.874-9.875,9.874"/>
						</g>
						<g>
							<path fill="#348BC6" d="M12.833,45.018c-6.822,0-12.375-5.551-12.375-12.374s5.553-12.375,12.375-12.375
								c6.824,0,12.375,5.552,12.375,12.375S19.657,45.018,12.833,45.018z M12.833,25.269c-4.066,0-7.375,3.309-7.375,7.375
								s3.309,7.374,7.375,7.374s7.375-3.308,7.375-7.374S16.899,25.269,12.833,25.269z"/>
						</g>
					</g>
					<g>
						<g>
							<circle fill="#27C4CC" cx="52.167" cy="32.644" r="9.875"/>
						</g>
						<g>
							<path fill="#36EAEA" d="M52.167,42.518c-5.453,0-9.875-4.42-9.875-9.874s4.422-9.875,9.875-9.875"/>
						</g>
						<g>
							<path fill="#348BC6" d="M52.167,45.018c-6.822,0-12.375-5.551-12.375-12.374s5.553-12.375,12.375-12.375
								c6.824,0,12.375,5.552,12.375,12.375S58.991,45.018,52.167,45.018z M52.167,25.269c-4.066,0-7.375,3.309-7.375,7.375
								s3.309,7.374,7.375,7.374s7.375-3.308,7.375-7.374S56.233,25.269,52.167,25.269z"/>
						</g>
					</g>
				</g>
			</g>
			<g>
				<g>
					<path fill="#27C4CC" d="M56.751,28.646h-5c0-10.614-8.637-19.25-19.25-19.25c-10.615,0-19.25,8.636-19.25,19.25h-5
						c0-13.371,10.879-24.25,24.25-24.25S56.751,15.275,56.751,28.646z"/>
				</g>
			</g>
		</g>
		<g>
			<g>
				<circle fill="#36EAEA" cx="32.5" cy="51.416" r="1.062"/>
			</g>
			<g>
				<circle fill="#36EAEA" cx="32.5" cy="55.479" r="1.062"/>
			</g>
			<g>
				<circle fill="#36EAEA" cx="32.5" cy="59.541" r="1.062"/>
			</g>
		</g>
	</g>
</g>
<g id="nyt_x5F_exporter_x5F_info" display="none">
</g>
</svg>
