<?xml version="1.0" encoding="utf-8"?>
<!-- Generator: Adobe Illustrator 16.0.0, SVG Export Plug-In . SVG Version: 6.00 Build 0)  -->
<!DOCTYPE svg PUBLIC "-//W3C//DTD SVG 1.1//EN" "http://www.w3.org/Graphics/SVG/1.1/DTD/svg11.dtd">
<svg version="1.1" id="Layer_1" xmlns="http://www.w3.org/2000/svg" xmlns:xlink="http://www.w3.org/1999/xlink" x="0px" y="0px"
	 width="64px" height="64px" viewBox="0 0 64 64" enable-background="new 0 0 64 64" xml:space="preserve">
<g>
	<path fill="#B0CACC" d="M61.6,61.1c0,0.8-1.5,1.5-8.2,1.5S26,62,26,61.1s20.6-1.5,27.3-1.5S61.6,60.3,61.6,61.1z"/>
	<g>
		<circle fill="#F26119" cx="32.4" cy="32.7" r="27.1"/>
		<path fill="#D84707" d="M13.2,13.6C23.8,3,40.9,3,51.5,13.6c10.6,10.6,10.6,27.7,0,38.3"/>
	</g>
	<g>
		<path fill="#BABA35" d="M45.4,14c-0.1,0-0.2-0.2-0.2-0.3c0-0.1,0.1-0.3,0.2-0.3l13.8-1.1c0.2,0,0.3,0.1,0.3,0.2s-0.1,0.4-0.2,0.4
			L45.4,14C45.4,14,45.4,14,45.4,14z"/>
	</g>
	<path fill="#67E59A" d="M51.4,15.6c0,7.6-2,13.8-11.9,13.8c-9.9,0-37.2-6.2-37.2-13.8S29.7,1.9,39.6,1.9
		C49.4,1.9,51.4,8.1,51.4,15.6z"/>
	<path fill="#1DDD98" d="M39.6,1.9c9.9,0,11.9,6.2,11.9,13.8s-2,13.8-11.9,13.8c-9.9,0-37.2-6.2-37.2-13.8"/>
	<path fill="#0EC192" d="M51.4,15.6c0,7.6-2,13.8-11.9,13.8c-9.9,0-37.2-6.2-37.2-13.8"/>
	<path fill="#022730" d="M62,60.4c0,0.7-0.8,1.2-1.5,1.2l0,0c-0.7,0-1.5-0.6-1.5-1.2V5.6c0-0.7,0.8-1.2,1.5-1.2l0,0
		C61.2,4.4,62,5,62,5.6V60.4z"/>
	<path fill="#66FFAB" d="M32.7,14.4c0,5.5-0.6,10.5-1.7,14.2c1.5,0.2,3,0.4,4.3,0.6c1.2-3.8,1.9-9,1.9-14.7c0-4.6-0.5-8.9-1.2-12.3
		c-1.3,0.1-2.8,0.3-4.4,0.6C32.2,6,32.7,10,32.7,14.4z"/>
	<path fill="#52EF95" d="M32.7,14.4c0,5.5-0.6,10.5-1.7,14.2c1.5,0.2,3,0.4,4.3,0.6c1.2-3.8,1.9-9,1.9-14.7c0-4.6-0.5-8.9-1.2-12.3"
		/>
	<path fill="#66FFAB" d="M21.3,14.4c0,4.4-0.4,8.5-1.1,11.8c1.4,0.4,2.8,0.7,4.3,1.1c0.9-3.5,1.4-8,1.4-12.9c0-3.8-0.3-7.4-0.9-10.5
		c-1.4,0.3-2.9,0.7-4.3,1.1C21.1,7.8,21.3,11,21.3,14.4z"/>
	<path fill="#52EF95" d="M21.3,14.4c0,4.4-0.4,8.5-1.1,11.8c1.4,0.4,2.8,0.7,4.3,1.1c0.9-3.5,1.4-8,1.4-12.9c0-3.8-0.3-7.4-0.9-10.5
		"/>
	<path fill="#66FFAB" d="M10,14.4c0,2.9-0.2,5.6-0.5,8c1.3,0.6,2.7,1.2,4.2,1.8c0.5-2.9,0.7-6.3,0.7-9.8c0-2.6-0.2-5.1-0.4-7.4
		c-1.5,0.6-3,1.1-4.3,1.8C9.9,10.5,10,12.4,10,14.4z"/>
	<path fill="#52EF95" d="M10,14.4c0,2.9-0.2,5.6-0.5,8c1.3,0.6,2.7,1.2,4.2,1.8c0.5-2.9,0.7-6.3,0.7-9.8c0-2.6-0.2-5.1-0.4-7.4"/>
	<g>
		<path fill="#66FFAB" d="M45.5,28.7c0,0.7-0.6,1.2-1.2,1.2c-0.7,0-1.2-0.6-1.2-1.2c0-0.7,0.6-1.2,1.2-1.2
			C44.9,27.4,45.5,28,45.5,28.7z"/>
		<path fill="#66FFAB" d="M45.5,2.6c0,0.7-0.6,1.2-1.2,1.2c-0.7,0-1.2-0.6-1.2-1.2c0-0.7,0.6-1.2,1.2-1.2
			C44.9,1.4,45.5,1.9,45.5,2.6z"/>
	</g>
	<g>
		<path fill="#E6ED54" d="M59.7,11.6c0,0-0.1,0-0.1,0L45.4,3.4c-0.1-0.1-0.2-0.2-0.1-0.3c0.1-0.1,0.2-0.2,0.3-0.1l14.1,8.2
			c0.1,0.1,0.2,0.2,0.1,0.3C59.8,11.6,59.7,11.6,59.7,11.6z"/>
	</g>
	<g>
		<path fill="#E6ED54" d="M45.5,28.2c-0.1,0-0.1,0-0.2-0.1c-0.1-0.1-0.1-0.3,0-0.4l14.1-14.3c0.1-0.1,0.3-0.1,0.4,0
			c0.1,0.1,0.1,0.3,0,0.4L45.7,28.1C45.7,28.2,45.6,28.2,45.5,28.2z"/>
	</g>
	<g>
		<g>
			<path fill="#8FEFDC" d="M47.2,51.5c0-0.2,0.2-0.5,0.4-0.5H56c0.2,0,0.4,0.3,0.4,0.5l0,0c0,0.2-0.2,0.5-0.4,0.5h-8.4
				C47.4,52,47.2,51.7,47.2,51.5L47.2,51.5z"/>
		</g>
		<g>
			<g>
				<g>
					<g>
						<path fill="#8FEFDC" d="M42.6,61.6c2.7,0.1,5-2.1,5.1-4.8c0.1-2.2-1.7-4.1-3.9-4.2c-1.8-0.1-3.4,1.4-3.4,3.2
							c0,1.5,1.2,2.8,2.7,2.8c1.3,0,2.3-1,2.4-2.2c0-0.3-0.2-0.5-0.4-0.5s-0.5,0.2-0.5,0.5c0,0.8-0.7,1.4-1.4,1.3
							c-1,0-1.8-0.9-1.8-1.9c0-1.3,1.1-2.4,2.5-2.3c1.7,0,3.1,1.5,3,3.2c-0.1,2.2-1.9,4-4.1,3.9c-2.8-0.1-5.1-2.4-5-5.3
							c0.1-3.6,2.9-6.5,6.5-6.4c0.3,0,0.7-0.2,0.7-0.4c0-0.3-0.4-0.6-0.7-0.6c-4.1-0.1-7.3,3.2-7.4,7.4
							C36.6,58.7,39.2,61.5,42.6,61.6z"/>
					</g>
					<path fill="#8FEFDC" d="M43.7,48.5c0,0.3,0.2,0.5,0.5,0.5H55c0.3,0,0.5-0.2,0.5-0.5l0,0c0-0.3-0.2-0.5-0.5-0.5H44.1
						C43.9,48,43.7,48.2,43.7,48.5L43.7,48.5z"/>
				</g>
				<g>
					<g>
						<path fill="#DCF9F6" d="M42.6,31.9c2.7-0.1,5,2.1,5.1,4.8c0.1,2.2-1.7,4.1-3.9,4.2c-1.8,0.1-3.4-1.4-3.4-3.2
							c0-1.5,1.2-2.8,2.7-2.8c1.3,0,2.3,1,2.4,2.2c0,0.3-0.2,0.5-0.4,0.5s-0.5-0.2-0.5-0.5c0-0.8-0.7-1.4-1.4-1.3
							c-1,0-1.8,0.9-1.8,1.9c0,1.3,1.1,2.4,2.5,2.3c1.7,0,3.1-1.5,3-3.2c-0.1-2.2-1.9-4-4.1-3.9c-2.8,0.1-5.1,2.4-5,5.3
							c0.1,3.6,3.3,6,6.9,5.9c0.3,0,0.4,0.2,0.4,0.5c0,0.3-0.2,0.5-0.4,0.5c-4.1,0.1-7.7-2.8-7.8-6.9C36.6,34.8,39.2,32,42.6,31.9z"
							/>
					</g>
					<path fill="#DCF9F6" d="M56,44.5c0,0.3-0.2,0.5-0.5,0.5H44.5c-0.3,0-0.5-0.2-0.5-0.5v-0.1c0-0.3,0.2-0.5,0.5-0.5h11.1
						C55.8,44,56,44.2,56,44.5L56,44.5z"/>
				</g>
			</g>
			<g>
				<circle fill="#DCF9F6" cx="49.6" cy="39.2" r="0.4"/>
				<circle fill="#8FEFDC" cx="49.6" cy="54.2" r="0.4"/>
			</g>
			<circle fill="#DCF9F6" cx="39.5" cy="46.7" r="0.4"/>
		</g>
	</g>
	<g>
		<g>
			<path fill="#8FEFDC" d="M26.9,51.5c0-0.2,0.2-0.5,0.4-0.5h8.4c0.2,0,0.4,0.3,0.4,0.5l0,0c0,0.2-0.2,0.5-0.4,0.5h-8.4
				C27.1,52,26.9,51.7,26.9,51.5L26.9,51.5z"/>
		</g>
		<g>
			<g>
				<g>
					<g>
						<path fill="#8FEFDC" d="M22.2,61.6c2.7,0.1,5-2.1,5.1-4.8c0.1-2.2-1.7-4.1-3.9-4.2C21.6,52.6,20,54,20,55.9
							c0,1.5,1.2,2.8,2.7,2.8c1.3,0,2.3-1,2.4-2.2c0-0.3-0.2-0.5-0.4-0.5s-0.5,0.2-0.5,0.5c0,0.8-0.7,1.4-1.4,1.3
							c-1,0-1.8-0.9-1.8-1.9c0-1.3,1.1-2.4,2.5-2.3c1.7,0,3.1,1.5,3,3.2c-0.1,2.2-1.9,4-4.1,3.9c-2.8-0.1-5.1-2.4-5-5.3
							c0.1-3.6,2.9-6.5,6.5-6.4c0.3,0,0.7-0.2,0.7-0.4c0-0.3-0.4-0.6-0.7-0.6c-4.1-0.1-7.3,3.2-7.4,7.4
							C16.2,58.7,18.9,61.5,22.2,61.6z"/>
					</g>
					<path fill="#8FEFDC" d="M23.3,48.5c0,0.3,0.2,0.5,0.5,0.5h10.9c0.3,0,0.5-0.2,0.5-0.5l0,0c0-0.3-0.2-0.5-0.5-0.5H23.8
						C23.5,48,23.3,48.2,23.3,48.5L23.3,48.5z"/>
				</g>
				<g>
					<g>
						<path fill="#DCF9F6" d="M22.2,31.9c2.7-0.1,5,2.1,5.1,4.8c0.1,2.2-1.7,4.1-3.9,4.2c-1.8,0.1-3.4-1.4-3.4-3.2
							c0-1.5,1.2-2.8,2.7-2.8c1.3,0,2.3,1,2.4,2.2c0,0.3-0.2,0.5-0.4,0.5s-0.5-0.2-0.5-0.5c0-0.8-0.7-1.4-1.4-1.3
							c-1,0-1.8,0.9-1.8,1.9c0,1.3,1.1,2.4,2.5,2.3c1.7,0,3.1-1.5,3-3.2c-0.1-2.2-1.9-4-4.1-3.9c-2.8,0.1-5.1,2.4-5,5.3
							c0.1,3.6,2.9,6,6.5,5.9c0.3,0,0.7,0.6,0.7,0.9c0,0.3-0.4,0.1-0.7,0.1c-4.1,0.1-7.3-2.8-7.4-6.9C16.2,34.8,18.9,32,22.2,31.9z"
							/>
					</g>
					<path fill="#DCF9F6" d="M23.3,44.5c0-0.3,0.2-0.5,0.5-0.5h10.9c0.3,0,0.5,0.2,0.5,0.5l0,0c0,0.3-0.2,0.5-0.5,0.5H23.8
						C23.5,45,23.3,44.8,23.3,44.5L23.3,44.5z"/>
					<path fill="#DCF9F6" d="M26.3,41.5c0-0.3,0.2-0.5,0.5-0.5h9.7c0.3,0,0.5,0.1,0.5,0.5c0,0,0,0,0,0c0,0.3-0.3,0.5-0.5,0.5h-9.7
						C26.5,42,26.3,41.8,26.3,41.5L26.3,41.5z"/>
					<path fill="#DCF9F6" d="M47.3,41.5c0-0.3,0.2-0.5,0.5-0.5h9.7c0.3,0,0.5,0.1,0.5,0.5c0,0,0,0,0,0c0,0.3-0.3,0.5-0.5,0.5h-9.7
						C47.5,42,47.3,41.8,47.3,41.5L47.3,41.5z"/>
				</g>
			</g>
			<g>
				<circle fill="#DCF9F6" cx="29.3" cy="39.2" r="0.4"/>
				<circle fill="#8FEFDC" cx="29.3" cy="54.2" r="0.4"/>
			</g>
			<circle fill="#DCF9F6" cx="19.2" cy="46.7" r="0.4"/>
		</g>
	</g>
</g>
</svg>
