<?xml version="1.0" encoding="utf-8"?>
<!-- Generator: Adobe Illustrator 16.0.0, SVG Export Plug-In . SVG Version: 6.00 Build 0)  -->
<!DOCTYPE svg PUBLIC "-//W3C//DTD SVG 1.1//EN" "http://www.w3.org/Graphics/SVG/1.1/DTD/svg11.dtd">
<svg version="1.1" xmlns="http://www.w3.org/2000/svg" xmlns:xlink="http://www.w3.org/1999/xlink" x="0px" y="0px" width="65px"
	 height="65px" viewBox="0 0 65 65" enable-background="new 0 0 65 65" xml:space="preserve">
<g id="Layer_1">
	<g>
		<g>
			<g>
				<g>
					<path fill="#FFCE45" d="M61.333,32.499c0,15.927-12.909,28.834-28.83,28.834c-15.927,0-28.833-12.907-28.833-28.834
						c0-15.922,12.906-28.832,28.833-28.832C48.424,3.667,61.333,16.577,61.333,32.499z"/>
				</g>
				<g>
					<path fill="#FFB448" d="M32.503,3.667c15.921,0,28.83,12.91,28.83,28.832c0,15.927-12.909,28.834-28.83,28.834"/>
				</g>
				<g>
					<path fill="#91366A" d="M32.503,63.833c-17.276,0-31.335-14.057-31.335-31.334c0-17.276,14.059-31.332,31.335-31.332
						c17.274,0,31.329,14.056,31.329,31.332C63.832,49.776,49.777,63.833,32.503,63.833z M32.503,6.167
						c-14.521,0-26.335,11.812-26.335,26.332c0,14.521,11.814,26.334,26.335,26.334c14.519,0,26.329-11.813,26.329-26.334
						C58.832,17.979,47.021,6.167,32.503,6.167z"/>
				</g>
			</g>
			<g>
				<g>
					<circle fill="#FFF148" cx="32.501" cy="42.666" r="18.666"/>
				</g>
				<g>
					<path fill="#FFCE45" d="M32.502,24c10.309,0,18.665,8.358,18.665,18.666c0,10.311-8.356,18.667-18.665,18.667"/>
				</g>
				<g>
					<path fill="#91366A" d="M32.502,63.833c-11.672,0-21.167-9.495-21.167-21.167c0-11.671,9.495-21.166,21.167-21.166
						c11.67,0,21.165,9.495,21.165,21.166C53.667,54.338,44.172,63.833,32.502,63.833z M32.502,26.5
						c-8.914,0-16.167,7.252-16.167,16.166s7.253,16.167,16.167,16.167c8.913,0,16.165-7.253,16.165-16.167S41.415,26.5,32.502,26.5
						z"/>
				</g>
			</g>
		</g>
		<g>
			<g>
				<circle fill="#91366A" cx="32.501" cy="10.104" r="1.062"/>
			</g>
			<g>
				<circle fill="#91366A" cx="32.501" cy="14.166" r="1.062"/>
			</g>
			<g>
				<circle fill="#91366A" cx="32.501" cy="18.229" r="1.062"/>
			</g>
		</g>
	</g>
</g>
<g id="nyt_x5F_exporter_x5F_info" display="none">
</g>
</svg>
