<?xml version="1.0" encoding="utf-8"?>
<!-- Generator: Adobe Illustrator 16.0.0, SVG Export Plug-In . SVG Version: 6.00 Build 0)  -->
<!DOCTYPE svg PUBLIC "-//W3C//DTD SVG 1.1//EN" "http://www.w3.org/Graphics/SVG/1.1/DTD/svg11.dtd">
<svg version="1.1" xmlns="http://www.w3.org/2000/svg" xmlns:xlink="http://www.w3.org/1999/xlink" x="0px" y="0px" width="65px"
	 height="65px" viewBox="0 0 65 65" enable-background="new 0 0 65 65" xml:space="preserve">
<g id="Layer_1">
	<g>
		<g>
			<g>
				<g>
					<path fill="#B0D6D6" d="M60.271,3.958c0,15.338-12.434,27.771-27.771,27.771S4.729,19.296,4.729,3.958"/>
				</g>
				<g>
					<path fill="#C8E8E6" d="M32.5,31.729c-15.337,0-27.771-12.434-27.771-27.771"/>
				</g>
				<g>
					<path fill="#348BC6" d="M32.5,34.229c-16.69,0-30.271-13.58-30.271-30.271c0-1.381,1.119-2.5,2.5-2.5s2.5,1.119,2.5,2.5
						c0,13.935,11.336,25.271,25.271,25.271S57.771,17.893,57.771,3.958c0-1.381,1.119-2.5,2.5-2.5s2.5,1.119,2.5,2.5
						C62.771,20.649,49.191,34.229,32.5,34.229z"/>
				</g>
			</g>
			<g>
				<g>
					<path fill="#B0D6D6" d="M4.729,61.042c0-15.338,12.434-27.771,27.77-27.771c15.338,0,27.77,12.434,27.77,27.771"/>
				</g>
				<g>
					<path fill="#C8E8E6" d="M32.499,33.271c15.338,0,27.77,12.434,27.77,27.771"/>
				</g>
				<g>
					<path fill="#348BC6" d="M60.269,63.542c-1.381,0-2.5-1.119-2.5-2.5c0-13.935-11.336-25.271-25.27-25.271
						S7.229,47.107,7.229,61.042c0,1.381-1.119,2.5-2.5,2.5s-2.5-1.119-2.5-2.5c0-16.691,13.58-30.271,30.27-30.271
						s30.27,13.58,30.27,30.271C62.769,62.423,61.649,63.542,60.269,63.542z"/>
				</g>
			</g>
		</g>
		<g>
			<g>
				<circle fill="#C8E8E6" cx="28.437" cy="23.021" r="1.063"/>
			</g>
			<g>
				<circle fill="#C8E8E6" cx="32.5" cy="23.021" r="1.063"/>
			</g>
			<g>
				<circle fill="#C8E8E6" cx="36.562" cy="23.021" r="1.062"/>
			</g>
		</g>
	</g>
</g>
<g id="nyt_x5F_exporter_x5F_info" display="none">
</g>
</svg>
