<?xml version="1.0" encoding="utf-8"?>
<!-- Generator: Adobe Illustrator 16.0.0, SVG Export Plug-In . SVG Version: 6.00 Build 0)  -->
<!DOCTYPE svg PUBLIC "-//W3C//DTD SVG 1.1//EN" "http://www.w3.org/Graphics/SVG/1.1/DTD/svg11.dtd">
<svg version="1.1" id="Layer_1" xmlns="http://www.w3.org/2000/svg" xmlns:xlink="http://www.w3.org/1999/xlink" x="0px" y="0px"
	 width="64px" height="64px" viewBox="0 0 64 64" enable-background="new 0 0 64 64" xml:space="preserve">
<g>
	<g>
		<circle fill="#E6EDEC" cx="32" cy="32" r="30.5"/>
		<path fill="#C9D1CF" d="M53.6,10.4c11.9,11.9,11.9,31.2,0,43.1c-11.9,11.9-31.2,11.9-43.1,0"/>
	</g>
	<g>
		<g>
			<rect x="15" y="1" fill="#51D687" width="34" height="19"/>
			<polyline fill="#2CAF61" points="15,1 49,1 49,20 			"/>
			
				<rect x="17.6" y="15.7" transform="matrix(0.5935 0.8048 -0.8048 0.5935 27.7384 -10.9655)" fill="#51D687" width="14.2" height="12.5"/>
			
				<rect x="32.1" y="15.7" transform="matrix(-0.5935 0.8049 -0.8049 -0.5935 80.2266 3.4319)" fill="#09915D" width="14.2" height="12.5"/>
			<g>
				<polygon fill="#3CC676" points="43.3,61.7 32,63.1 20.7,61.7 23.8,45.5 32,43 40.2,46.8 				"/>
				<polygon fill="#51D687" points="18.7,5.1 32,1.1 45.3,5.1 41.2,52 32,61.1 22.5,52 				"/>
				<polygon fill="#3CC676" points="18.7,5.1 32,1.1 45.3,5.1 41.2,52 32,61.1 26,43.2 				"/>
				<polyline fill="#2CAF61" points="32,1.1 45.3,5.1 41.2,52 32,61.1 				"/>
				<polyline fill="#2CAF61" points="32,43 40.2,46.8 43.3,61.7 32,63.1 				"/>
				<polygon fill="#51D687" points="48.5,19.9 32,31.3 15.5,19.9 18.5,4.6 32,1.1 45.5,4.8 				"/>
				<polyline fill="#3CC676" points="18.5,4.6 32,1.1 45.5,4.8 48.5,19.9 32,31.3 				"/>
				<polyline fill="#2CAF61" points="26,30 38,30 38,33 				"/>
				<polygon fill="#2CAF61" points="32,21.8 16.5,14.9 15.5,19.9 32,31.3 48.5,19.9 47.5,14.9 				"/>
				<polygon fill="#09915D" points="32,31 43.1,31 44.1,19.4 34.7,20.3 				"/>
				<polyline fill="#2CAF61" points="32,1.1 45.5,4.8 48.5,19.9 32,31.3 				"/>
				<polyline fill="#28A566" points="15.5,19.9 32,31.3 48.5,19.9 47.5,14.9 32,21.8 				"/>
				<g>
					<g>
						<polygon fill="#5E6664" points="28,27.9 23,26.3 23,23.3 28,24.9 						"/>
						<polyline fill="#2F423F" points="28,25 28,27.9 23,26.3 						"/>
					</g>
					<g>
						<g>
							<polygon fill="#5E6664" points="36,27.9 41,26.3 41,23.3 36,24.9 							"/>
						</g>
						<g>
							<polyline fill="#2F423F" points="36,27.9 41,26.3 41,23.3 							"/>
						</g>
					</g>
				</g>
				<polyline fill="#2CAF61" points="26,33 38,33 38,36 				"/>
				<polyline fill="#2CAF61" points="26,36 38,36 38,39 				"/>
				<polyline fill="#2CAF61" points="26,39 38,39 38,41 				"/>
				<polyline fill="#2CAF61" points="26,42 38,42 38,44 				"/>
				<polyline fill="#2CAF61" points="26,45 38,45 38,47 				"/>
				<polyline fill="#2CAF61" points="26,48 38,48 38,50 				"/>
				<polyline fill="#2CAF61" points="26,51 38,51 38,53 				"/>
				<g>
					<g>
						<polygon fill="#2CAF61" points="30,59.8 30,59.8 28.7,56 25.9,56.9 25.9,56.9 						"/>
					</g>
					<g>
						<polygon fill="#3CC676" points="34,60 34,60 35.2,56.1 38,56.9 38,57 						"/>
					</g>
				</g>
			</g>
		</g>
		<g>
			<g>
				<polygon fill="#3CC676" points="11.7,48 4,48 4,1 13.6,1 				"/>
				<polyline fill="#28A566" points="4,1 13.6,1 11.6,48.1 				"/>
				<g>
					<polygon fill="#3CC676" points="6.2,51.6 4.1,48.1 6.2,45.9 8.4,48.1 					"/>
					<polygon fill="#3CC676" points="7.9,51.6 5.7,48.1 7.9,45.9 10,48.1 					"/>
					<polygon fill="#3CC676" points="9.5,51.6 7.4,48.1 9.5,45.9 11.7,48.1 					"/>
				</g>
			</g>
			<g>
				<polygon fill="#3CC676" points="52.3,48 60,48 60,1 50.4,1 				"/>
				<polyline fill="#28A566" points="60,1 50.4,1 52.4,48.1 				"/>
				<g>
					<polygon fill="#3CC676" points="57.8,51.6 59.9,48.1 57.8,45.9 55.6,48.1 					"/>
					<polygon fill="#3CC676" points="56.1,51.6 58.3,48.1 56.1,45.9 54,48.1 					"/>
					<polygon fill="#3CC676" points="54.5,51.6 56.6,48.1 54.5,45.9 52.3,48.1 					"/>
				</g>
			</g>
		</g>
	</g>
</g>
</svg>
