<?xml version="1.0" encoding="utf-8"?>
<!-- Generator: Adobe Illustrator 16.0.0, SVG Export Plug-In . SVG Version: 6.00 Build 0)  -->
<!DOCTYPE svg PUBLIC "-//W3C//DTD SVG 1.1//EN" "http://www.w3.org/Graphics/SVG/1.1/DTD/svg11.dtd">
<svg version="1.1" xmlns="http://www.w3.org/2000/svg" xmlns:xlink="http://www.w3.org/1999/xlink" x="0px" y="0px" width="65px"
	 height="65px" viewBox="0 0 65 65" enable-background="new 0 0 65 65" xml:space="preserve">
<g id="Layer_1">
	<g>
		<g>
			<path fill="#CE1800" d="M37.015,14.441h-5.312V7.404c0-0.879-0.715-1.593-1.592-1.593H17.363c-0.879,0-1.594,0.714-1.594,1.593
				v7.037h-5.311V7.404c0-3.807,3.097-6.904,6.904-6.904h12.748c3.806,0,6.903,3.098,6.903,6.904V14.441z"/>
		</g>
		<path fill="#AD0C00" d="M30.111,5.413H17.363c-3.808,0-6.904,3.098-6.904,6.904v2.124h5.311v-2.124V7.404
			c0-0.879,0.715-1.593,1.594-1.593h12.748c0.877,0,1.592,0.714,1.592,1.593v4.913v2.124h5.312v-2.124
			C37.015,8.511,33.917,5.413,30.111,5.413z"/>
		<path fill="#82100D" d="M52.815,14.84c0,2.347-1.902,4.25-4.249,4.25h-3.984c-2.346,0-4.248-1.903-4.248-4.25v-4.248
			c0-2.347,0.84-4.25,3.186-4.25h6.109c2.346,0,3.187,1.903,3.187,4.25V14.84z"/>
		<path fill="#AD0C00" d="M56.002,60.251c0,2.347-1.902,4.249-4.249,4.249H13.247c-2.347,0-4.249-1.902-4.249-4.249V15.637
			c0-2.346,1.902-4.249,4.249-4.249h38.506c2.347,0,4.249,1.903,4.249,4.249V60.251z"/>
		<line fill="#CE1800" x1="51.753" y1="64.5" x2="13.247" y2="64.5"/>
		<path fill="#CE1800" d="M8.998,15.637c0-2.346,1.902-4.249,4.249-4.249h38.506c2.347,0,4.249,1.903,4.249,4.249"/>
		<path fill="#82100D" d="M40.6,41.795c0,2.346-1.902,4.249-4.249,4.249h-7.701c-2.347,0-4.249-1.903-4.249-4.249v-7.701
			c0-2.346,1.902-4.249,4.249-4.249h7.701c2.347,0,4.249,1.903,4.249,4.249V41.795z"/>
		<g>
			<path fill="#82100D" d="M45.833,49.213c0.569,0.57,0.569,1.494,0,2.064l0,0c-0.57,0.571-1.494,0.57-2.065,0L19.169,26.679
				c-0.57-0.571-0.571-1.495,0-2.065l0,0c0.57-0.57,1.494-0.57,2.065,0L45.833,49.213z"/>
			<path fill="#82100D" d="M43.767,24.611c0.569-0.57,1.494-0.57,2.064,0l0,0c0.571,0.57,0.571,1.493,0,2.064l-24.597,24.6
				c-0.573,0.57-1.498,0.572-2.068,0l0,0c-0.569-0.571-0.569-1.494,0-2.064L43.767,24.611z"/>
		</g>
		<path fill="#069360" d="M53.265,6.487c0,0.653-0.53,1.183-1.184,1.183H41.068c-0.654,0-1.184-0.529-1.184-1.183V1.683
			c0-0.653,0.529-1.183,1.184-1.183h11.013c0.653,0,1.184,0.529,1.184,1.183V6.487z"/>
		<path fill="#5BC914" d="M52.081,0.5H41.068c-0.654,0-1.184,0.529-1.184,1.183v0.379c0,0.653,0.529,1.183,1.184,1.183h11.013
			c0.653,0,1.184-0.529,1.184-1.183V1.683C53.265,1.029,52.734,0.5,52.081,0.5z"/>
	</g>
</g>
<g id="nyt_x5F_exporter_x5F_info" display="none">
</g>
</svg>
