<?xml version="1.0" encoding="utf-8"?>
<!-- Generator: Adobe Illustrator 16.0.0, SVG Export Plug-In . SVG Version: 6.00 Build 0)  -->
<!DOCTYPE svg PUBLIC "-//W3C//DTD SVG 1.1//EN" "http://www.w3.org/Graphics/SVG/1.1/DTD/svg11.dtd">
<svg version="1.1" id="Layer_1" xmlns="http://www.w3.org/2000/svg" xmlns:xlink="http://www.w3.org/1999/xlink" x="0px" y="0px"
	 width="64px" height="64px" viewBox="0 0 64 64" enable-background="new 0 0 64 64" xml:space="preserve">
<g>
	<path fill="#AF2E2E" d="M55,25.9C54.7,15.3,45,6.6,32.6,6.6c-12.4,0-22.4,8.5-22.6,19.2c0,0,0,0.1,0,0.1v23.3
		c0,1.2,1.3,2.2,2.5,2.2c1.2,0,2.5-1,2.5-2.2V49c0-0.1,0-0.2,0-0.3v1.2c0,1.2,1.3,2.2,2.5,2.2c1.2,0,2.5-1,2.5-2.2v-3.8
		c0,0,0.4,0,0.5,0c0.1,0-0.5,0,0.5,0V47c0,1.2,0.8,2.2,2,2.2c0.5,0,1-0.1,1-0.4v1.4c0,1.2,1.1,2.2,2.3,2.2c0.2,0,0.7,0,0.7-0.1v3.4
		c0,1.2,0.8,2.2,2,2.2c0.5,0,1-0.1,1-0.4v0.6c0,1.2,1.4,2.2,2.6,2.2c0.9,0,1.4-0.5,2.4-1.3v1.6c0,1.2,0.8,2.2,2,2.2c1.2,0,2-1,2-2.2
		v-7.7c1-0.4,1-1,1-1.7v-1c0,0.6,1.1,1,1.9,1c0.3,0,0.7-0.1,0.9-0.2c0.3,0.9,1.1,1.6,2.2,1.6c1.2,0,2.2-0.9,2.2-2.1
		c0.1,0,0.4,0,0.5,0c1.2,0,2.3-1,2.3-2.2v-1.4c0-0.2,1-0.5,1-0.9v2.9c0,1.2,0.8,2.2,2,2.2s2-1,2-2.2V25.9C55,25.9,55,26,55,25.9z"/>
	<path fill="#891D1D" d="M55,21.6C54.7,11,45,2.3,32.6,2.3c-12.4,0-22.4,8.5-22.6,19.2c0,0,0,0.1,0,0.1v23.3c0,1.2,1.3,2.2,2.5,2.2
		c1.2,0,2.5-1,2.5-2.2v-0.2c0-0.1,0-0.2,0-0.3v1.2c0,1.2,1.3,2.2,2.5,2.2c1.2,0,2.5-1,2.5-2.2v-3.8c0,0,0.4,0,0.5,0
		c0.1,0-0.5,0,0.5,0v0.9c0,1.2,0.8,2.2,2,2.2c0.5,0,1-0.1,1-0.4V46c0,1.2,1.1,2.2,2.3,2.2c0.2,0,0.7,0,0.7-0.1v3.4
		c0,1.2,0.8,2.2,2,2.2c0.5,0,1-0.1,1-0.4V54c0,1.2,1.4,2.2,2.6,2.2c0.9,0,1.4-0.5,2.4-1.3v1.6c0,1.2,0.8,2.2,2,2.2c1.2,0,2-1,2-2.2
		v-7.7c1-0.4,1-1,1-1.7v-1c0,0.6,1.1,1,1.9,1c0.3,0,0.7-0.1,0.9-0.2c0.3,0.9,1.1,1.6,2.2,1.6c1.2,0,2.2-0.9,2.2-2.1
		c0.1,0,0.4,0,0.5,0c1.2,0,2.3-1,2.3-2.2v-1.4c0-0.2,1-0.5,1-0.9v2.9c0,1.2,0.8,2.2,2,2.2s2-1,2-2.2V21.6C55,21.6,55,21.6,55,21.6z"
		/>
	<circle fill="#FFFFFF" cx="32.7" cy="22.3" r="21.4"/>
	<path fill="#E4EAE8" d="M32.7,0.9c11.8,0,21.4,9.6,21.4,21.4c0,11.8-9.6,21.4-21.4,21.4"/>
	<g>
		<path fill="#0AA06E" d="M43.9,14c0,6.2-5,11.2-11.1,11.2c-6.2,0-11.2-5-11.2-11.2c0-6.2,5-11.1,11.2-11.1
			C38.9,2.9,43.9,7.8,43.9,14z"/>
		<path fill="#007C56" d="M32.7,2.9c6.2,0,11.1,5,11.1,11.1c0,6.2-5,11.2-11.1,11.2"/>
		<path fill="#5E6664" d="M37.6,14c0,2.7-2.2,4.9-4.9,4.9c-2.7,0-4.9-2.2-4.9-4.9c0-2.7,2.2-4.9,4.9-4.9C35.4,9.1,37.6,11.3,37.6,14
			z"/>
		<path fill="#2F423F" d="M36.2,10.5c1.9,1.9,1.9,5,0,6.9c-1.9,1.9-5,1.9-6.9,0"/>
		<path fill="#FFFFFF" d="M32.1,10.4c0,1.4-1.1,2.5-2.5,2.5c-1.4,0-2.5-1.1-2.5-2.5c0-1.4,1.1-2.5,2.5-2.5C31,8,32.1,9.1,32.1,10.4z
			"/>
		<path fill="#FFFFFF" d="M37.4,17.3c0,0.6-0.5,1.1-1.1,1.1c-0.6,0-1.1-0.5-1.1-1.1c0-0.6,0.5-1.1,1.1-1.1
			C36.9,16.1,37.4,16.6,37.4,17.3z"/>
	</g>
</g>
</svg>
