<?xml version="1.0" encoding="utf-8"?>
<!-- Generator: Adobe Illustrator 16.0.0, SVG Export Plug-In . SVG Version: 6.00 Build 0)  -->
<!DOCTYPE svg PUBLIC "-//W3C//DTD SVG 1.1//EN" "http://www.w3.org/Graphics/SVG/1.1/DTD/svg11.dtd">
<svg version="1.1" id="Layer_1" xmlns="http://www.w3.org/2000/svg" xmlns:xlink="http://www.w3.org/1999/xlink" x="0px" y="0px"
	 width="64px" height="64px" viewBox="0 0 64 64" enable-background="new 0 0 64 64" xml:space="preserve">
<g>
	<g>
		<g>
			<g>
				<path fill="#00899B" d="M26.5,58c0.2,0.1,0.3,0.3,0.5,0.4c3.5,2.3,8.3,1.3,10.6-2.2c2.3-3.5,1.3-8.3-2.2-10.6
					c-0.2-0.1-0.4-0.2-0.6-0.3L26.5,58z"/>
				<path fill="#0CA6BF" d="M26.1,0.6c-0.4,0.4-0.8,0.7-1.2,1.1c-7.6,7.6-7.6,20,0,27.7c7.6,7.6,20,7.6,27.7,0
					c0.4-0.4,0.8-0.8,1.1-1.2L26.1,0.6z"/>
				<path fill="#0FBCD3" d="M30.7,5.2c-0.3,0.2-0.6,0.5-0.8,0.7c-5.1,5.1-5.1,13.4,0,18.5c5.1,5.1,13.4,5.1,18.4,0
					c0.3-0.3,0.5-0.5,0.7-0.8L30.7,5.2z"/>
				<path fill="#19DAF4" d="M34.3,8.8c-0.2,0.1-0.3,0.3-0.5,0.5c-3.1,3.1-3.1,8.2,0,11.3c3.1,3.1,8.2,3.1,11.3,0
					c0.2-0.2,0.3-0.3,0.5-0.5L34.3,8.8z"/>
				<path fill="#0CA6BF" d="M8.5,6.5C8.1,7.1,7.7,7.7,7.4,8.3C0.6,20.6,5.1,36,17.4,42.7c12.3,6.7,27.7,2.2,34.4-10.1
					c0.4-0.6,0.7-1.3,0.9-2L8.5,6.5z"/>
				<path fill="#19DAF4" d="M7.8,7.6c-0.4,0.5-0.7,1.1-1,1.7c-6.1,11.1-2,25,9.1,31.1c11.1,6.1,25,2,31.1-9.1
					c0.3-0.6,0.6-1.2,0.9-1.8L7.8,7.6z"/>
				<path fill="#0FBCD3" d="M16.9,11.1c-0.2,0.4-0.5,0.7-0.7,1.1c-4.2,7.6-1.4,17.2,6.3,21.4c7.6,4.2,17.2,1.4,21.4-6.3
					c0.2-0.4,0.4-0.8,0.6-1.2L16.9,11.1z"/>
				<path fill="#0CA6BF" d="M22.5,14.1c-0.1,0.2-0.3,0.4-0.4,0.7c-2.5,4.5-0.8,10.2,3.7,12.7c4.5,2.5,10.2,0.8,12.7-3.7
					c0.1-0.2,0.2-0.5,0.4-0.7L22.5,14.1z"/>
				<path fill="#0CA6BF" d="M60,22.6c-0.1-0.2-0.2-0.4-0.4-0.5c-2.6-3.3-7.4-3.9-10.7-1.2c-3.3,2.6-3.9,7.4-1.2,10.7
					c0.1,0.2,0.3,0.3,0.4,0.5L60,22.6z"/>
				<path fill="#00899B" d="M48.8,28.6c0.1,0.1,0.1,0.2,0.2,0.3c1.5,2,4.3,2.4,6.3,0.9c2-1.5,2.4-4.3,0.9-6.3
					c-0.1-0.1-0.2-0.2-0.2-0.3L48.8,28.6z"/>
				<path fill="#0CA6BF" d="M21.8,60.6c0.2,0.1,0.3,0.3,0.5,0.4c3.5,2.3,8.3,1.3,10.6-2.2c2.3-3.5,1.3-8.3-2.2-10.6
					c-0.2-0.1-0.4-0.2-0.6-0.3L21.8,60.6z"/>
				<path fill="#0FBCD3" d="M32.9,58.7c2.3-3.5,1.3-8.3-2.2-10.6c-0.2-0.1-0.4-0.2-0.6-0.3l-8.3,12.8"/>
				<path fill="#0CA6BF" d="M28.6,50.1c0.4,0.3,0.8,0.6,1.2,0.8c7.8,5.1,18.3,2.9,23.4-5c5.1-7.8,2.9-18.3-5-23.4"/>
				<path fill="#00899B" d="M44.5,26.8L28.6,50.1c0.4,0.3,0.8,0.6,1.2,0.8c7.8,5.1,18.3,2.9,23.4-5"/>
				<path fill="#0FBCD3" d="M31.4,45.8c0.3,0.2,0.5,0.4,0.8,0.6c5.5,3.6,12.8,2,16.4-3.5c3.6-5.5,2-12.8-3.5-16.4
					c-0.3-0.2-0.6-0.3-0.9-0.5L31.4,45.8z"/>
				<path fill="#19DAF4" d="M33.9,42c0.2,0.1,0.3,0.2,0.5,0.4c3.4,2.2,7.9,1.2,10-2.1c2.2-3.4,1.2-7.9-2.1-10
					c-0.2-0.1-0.4-0.2-0.5-0.3L33.9,42z"/>
			</g>
			<rect x="15" y="52" fill="#51D687" width="5" height="5"/>
			<polyline fill="#67F9A2" points="15,50.4 11.9,47.2 15,44.1 			"/>
			<polyline fill="#08B74F" points="15,60 12,60 12,58 			"/>
			<polyline fill="#67F9A2" points="10.7,63.4 8.8,63.4 8.8,61.4 			"/>
			<polyline fill="#A5F9C7" points="24.3,49.8 22.4,49.8 22.4,47.9 			"/>
		</g>
		<circle fill="#FFFFFF" cx="53.7" cy="21.9" r="0.8"/>
	</g>
	<g>
		<circle fill="#00899B" cx="36.7" cy="38.9" r="0.7"/>
		<circle fill="#00899B" cx="39" cy="36.6" r="0.7"/>
		<circle fill="#00899B" cx="41.3" cy="34.3" r="0.7"/>
	</g>
</g>
</svg>
