<?xml version="1.0" encoding="utf-8"?>
<!-- Generator: Adobe Illustrator 16.0.0, SVG Export Plug-In . SVG Version: 6.00 Build 0)  -->
<!DOCTYPE svg PUBLIC "-//W3C//DTD SVG 1.1//EN" "http://www.w3.org/Graphics/SVG/1.1/DTD/svg11.dtd">
<svg version="1.1" id="Layer_1" xmlns="http://www.w3.org/2000/svg" xmlns:xlink="http://www.w3.org/1999/xlink" x="0px" y="0px"
	 width="64px" height="64px" viewBox="0 0 64 64" enable-background="new 0 0 64 64" xml:space="preserve">
<g>
	<g>
		<g>
			<path fill="#F7910B" d="M62.3,38.2c0,13-11.9,23.5-30.3,23.5c-18.4,0-30.3-10.5-30.3-23.5S13.6,5.7,32,5.7
				C50.4,5.7,62.3,25.2,62.3,38.2z"/>
		</g>
		<g>
			<path fill="#F7910B" d="M62.3,38.2c0,13-11.9,19.5-30.3,19.5c-18.4,0-30.3-6.5-30.3-19.5S13.6,3.7,32,3.7
				C50.4,3.7,62.3,25.2,62.3,38.2z"/>
		</g>
		<g>
			<path fill="#F9A908" d="M32,3.7c18.4,0,30.3,21.5,30.3,34.5S50.4,57.7,32,57.7"/>
		</g>
		<g>
			<path fill="#F9A908" d="M62.3,38.2c0,13-11.9,19.5-30.3,19.5c-18.4,0-30.3-6.5-30.3-19.5S13.6,5.7,32,5.7
				C50.4,5.7,62.3,25.2,62.3,38.2z"/>
		</g>
		<g>
			<path fill="#F9C55D" d="M1.7,38.2c0-13,11.9-32.5,30.3-32.5"/>
		</g>
		<g>
			<path fill="#F7910B" d="M32,5.7c18.4,0,30.3,19.5,30.3,32.5S50.4,61.7,32,61.7"/>
		</g>
		<g>
			<path fill="#EA7103" d="M32,5.7c18.4,0,30.3,19.5,30.3,32.5"/>
		</g>
		<g>
			<circle fill="#F7910B" cx="10.3" cy="35.1" r="0.6"/>
		</g>
		<g>
			<circle fill="#F7910B" cx="5.8" cy="37.1" r="1.1"/>
		</g>
		<g>
			<circle fill="#F7910B" cx="8.8" cy="33.1" r="0.2"/>
		</g>
		<g>
			<circle fill="#F7910B" cx="13.4" cy="35" r="0.2"/>
		</g>
		<g>
			<circle fill="#F9A908" cx="52.6" cy="35.5" r="0.8"/>
		</g>
		<g>
			<circle fill="#F9A908" cx="55.1" cy="36.9" r="0.2"/>
		</g>
		<g>
			<circle fill="#F9A908" cx="49.8" cy="28.1" r="0.3"/>
		</g>
		<g>
			<circle fill="#F9A908" cx="49.3" cy="39.7" r="1.3"/>
		</g>
		<g>
			<circle fill="#F9A908" cx="56.5" cy="39.8" r="0.6"/>
		</g>
		<g>
			<circle fill="#F7910B" cx="9.3" cy="39.2" r="0.5"/>
		</g>
		<g>
			<circle fill="#F7910B" cx="10.1" cy="30.8" r="0.4"/>
		</g>
		<g>
			<circle fill="#F9A908" cx="4.8" cy="17" r="1.1"/>
		</g>
		<g>
			<circle fill="#F9A908" cx="8" cy="13.5" r="0.6"/>
		</g>
		<g>
			<circle fill="#F9A908" cx="59.2" cy="19.4" r="0.2"/>
		</g>
		<g>
			<circle fill="#F9A908" cx="58.4" cy="16.5" r="0.8"/>
		</g>
		<g>
			<circle fill="#F9A908" cx="61" cy="17" r="0.5"/>
		</g>
		<g>
			<circle fill="#F9A908" cx="6" cy="20" r="0.6"/>
		</g>
		<g>
			<path fill="#F7910B" d="M39.2,48.6c0,2.6-3.3,7.2-7.4,7.2s-7.4-4.6-7.4-7.2"/>
		</g>
		<g>
			<g>
				<circle fill="#D87703" cx="20.6" cy="26.7" r="3.5"/>
			</g>
			<g>
				<path fill="#D87703" d="M46.9,26.7c0,1.9-1.6,3.5-3.5,3.5c-1.9,0-3.5-1.6-3.5-3.5c0-1.9,1.6-3.5,3.5-3.5
					C45.4,23.2,46.9,24.8,46.9,26.7z"/>
			</g>
			<g>
				<circle fill="#1E4784" cx="20.6" cy="25.7" r="3.5"/>
			</g>
			<g>
				<path fill="#00233F" d="M20.6,22.2c1.9,0,3.5,1.6,3.5,3.5s-1.6,3.5-3.5,3.5"/>
			</g>
			<g>
				<path fill="#1E4784" d="M46.9,25.7c0,1.9-1.6,3.5-3.5,3.5c-1.9,0-3.5-1.6-3.5-3.5s1.6-3.5,3.5-3.5
					C45.4,22.2,46.9,23.8,46.9,25.7z"/>
			</g>
			<g>
				<path fill="#00233F" d="M43.4,22.2c1.9,0,3.5,1.6,3.5,3.5s-1.6,3.5-3.5,3.5"/>
			</g>
			<g>
				<path fill="#F9A908" d="M16.5,25.3c0-2.3,1.8-4.1,4.1-4.1c2.3,0,4.1,1.8,4.1,4.1"/>
			</g>
			<g>
				<path fill="#F7910B" d="M39.3,25.3c0-2.3,1.8-4.1,4.1-4.1c2.3,0,4.1,1.8,4.1,4.1"/>
			</g>
		</g>
		<g>
			<g>
				<path fill="#F9C55D" d="M27.8,31.5c0,1.2-3.5,0.7-7.8,0.7c-4.3,0-7.8,0.6-7.8-0.7c0-1.2,3.5-2.2,7.8-2.2
					C24.3,29.3,27.8,30.3,27.8,31.5z"/>
			</g>
			<g>
				<path fill="#F9A908" d="M51.8,31.5c0,1.2-3.5,0.7-7.8,0.7s-7.8,0.6-7.8-0.7c0-1.2,3.5-2.2,7.8-2.2S51.8,30.3,51.8,31.5z"/>
			</g>
		</g>
	</g>
	<g>
		<g>
			<path fill="#C42260" d="M39.6,46.8c0,3.8-3.4,5.3-7.6,5.3s-7.6-1.5-7.6-5.3c0-3.8,3.4-5.8,7.6-5.8S39.6,43,39.6,46.8z"/>
		</g>
		<g>
			<path fill="#E2446E" d="M39.5,47.9c-0.9-0.2-1.9-0.3-3-0.3c-1.6,0-3.2,0.2-4.5,0.7c-1.3-0.4-2.9-0.7-4.5-0.7c-1,0-2,0.1-3,0.3
				c0.6,3,3.7,4.3,7.5,4.3C35.8,52.1,38.9,50.9,39.5,47.9z"/>
		</g>
		<g>
			<path fill="#99144A" d="M39.3,45c-0.9-3-3.8-4-7.3-4s-6.4,1-7.3,4H39.3z"/>
		</g>
	</g>
	<g>
		<g>
			<path fill="#19DAF4" d="M58.2,14.1L58.2,14.1l-5-11.7l-5,11.7l0,0c-0.3,0.7-0.5,1.4-0.5,2.2c0,3,2.4,5.4,5.4,5.4
				c3,0,5.4-2.4,5.4-5.4C58.6,15.5,58.5,14.7,58.2,14.1z"/>
		</g>
		<g>
			<path fill="#0EB2CC" d="M53.2,21.7c3,0,5.4-2.4,5.4-5.4c0-0.8-0.2-1.6-0.5-2.2l0,0l-5-11.7"/>
		</g>
	</g>
	<g>
		<g>
			<path fill="#19DAF4" d="M57.4,31L57.4,31l-4.2-9.9L49,31l0,0c-0.3,0.6-0.4,1.2-0.4,1.9c0,2.5,2,4.6,4.6,4.6c2.5,0,4.6-2,4.6-4.6
				C57.8,32.2,57.6,31.6,57.4,31z"/>
		</g>
		<g>
			<path fill="#0EB2CC" d="M53.2,37.5c2.5,0,4.6-2,4.6-4.6c0-0.7-0.1-1.3-0.4-1.9l0,0l-4.2-9.8"/>
		</g>
	</g>
	<g>
		<g>
			<path fill="#92CFDD" d="M6,13.2c0,0.2-0.3,0.5-0.5,0.5l0,0c-0.3,0-0.5-0.2-0.5-0.5V6.9c0-0.2,0.2-0.5,0.5-0.5l0,0
				C5.7,6.4,6,6.6,6,6.9V13.2z"/>
		</g>
		<g>
			<path fill="#92CFDD" d="M9,10.5c0,0.2-0.2,0.5-0.5,0.5l0,0c-0.3,0-0.5-0.2-0.5-0.5V4.1c0-0.2,0.2-0.5,0.5-0.5l0,0
				C8.8,3.7,9,3.9,9,4.1V10.5z"/>
		</g>
		<g>
			<path fill="#92CFDD" d="M12,9.6c0,0.2-0.2,0.5-0.5,0.5l0,0C11.2,10,11,9.8,11,9.6V3.2c0-0.2,0.2-0.5,0.5-0.5l0,0
				C11.8,2.8,12,3,12,3.2V9.6z"/>
		</g>
	</g>
	<g>
		<g>
			<g>
				<path fill="#19BCA4" d="M24.2,13.2c0,1-1.1,0.5-2.5,0.5s-2.5,0.5-2.5-0.5s1.1-1.7,2.5-1.7S24.2,12.2,24.2,13.2z"/>
			</g>
		</g>
		<g>
			<g>
				<path fill="#19BCA4" d="M39.8,13.2c0,1,1.1,0.5,2.5,0.5c1.4,0,2.5,0.5,2.5-0.5s-1.1-1.7-2.5-1.7C40.9,11.5,39.8,12.2,39.8,13.2z
					"/>
			</g>
		</g>
	</g>
</g>
</svg>
