<?xml version="1.0" encoding="utf-8"?>
<!-- Generator: Adobe Illustrator 16.0.0, SVG Export Plug-In . SVG Version: 6.00 Build 0)  -->
<!DOCTYPE svg PUBLIC "-//W3C//DTD SVG 1.1//EN" "http://www.w3.org/Graphics/SVG/1.1/DTD/svg11.dtd">
<svg version="1.1" id="Layer_1" xmlns="http://www.w3.org/2000/svg" xmlns:xlink="http://www.w3.org/1999/xlink" x="0px" y="0px"
	 width="64px" height="64px" viewBox="0 0 64 64" enable-background="new 0 0 64 64" xml:space="preserve">
<g>
	<rect x="21.7" y="51.2" fill="#E88813" width="20.7" height="2.3"/>
	<path fill="#07BED6" d="M51,63v-1.2c0-4.5-3.9-7.8-8.4-7.8H21.4c-4.5,0-8.4,3.3-8.4,7.8V63H51z"/>
	<path fill="#049CBF" d="M51,63v-1.2c0-4.5-3.9-7.8-8.4-7.8H21"/>
	<ellipse fill="#E88813" cx="32" cy="53.5" rx="10.3" ry="2"/>
	<ellipse fill="#F9B843" cx="32" cy="51.2" rx="10.3" ry="2"/>
	<rect x="29" y="23" fill="#4C5254" width="6" height="28"/>
	<polyline fill="#202D2A" points="29,23 35,23 35,51 	"/>
	<circle fill="#EA1F0A" cx="32" cy="10.9" r="10.2"/>
	<ellipse transform="matrix(0.7071 -0.7071 0.7071 0.7071 4.3549 20.8505)" fill="#EF683F" cx="27.3" cy="5.2" rx="3.7" ry="1.7"/>
	<path fill="#AA2011" d="M39.2,3.7c4,4,4,10.4,0,14.4c-4,4-10.4,4-14.4,0"/>
	<path fill="#F9B843" d="M39,22c0,1.1-0.9,2-2,2H27c-1.1,0-2-0.9-2-2l0,0c0-1.1,0.9-2,2-2h10C38.1,20,39,20.9,39,22L39,22z"/>
	<path fill="#E88813" d="M39,22L39,22c0,1.2-0.8,2-2,2H27c-1.2,0-2-0.8-2-2l0,0"/>
	<path fill="#4C5254" d="M35,50.9c0,0.4-1.3,0.8-3,0.8s-3-0.3-3-0.8s1.3-0.8,3-0.8S35,50.5,35,50.9z"/>
</g>
</svg>
