<?xml version="1.0" encoding="utf-8"?>
<!-- Generator: Adobe Illustrator 16.0.0, SVG Export Plug-In . SVG Version: 6.00 Build 0)  -->
<!DOCTYPE svg PUBLIC "-//W3C//DTD SVG 1.1//EN" "http://www.w3.org/Graphics/SVG/1.1/DTD/svg11.dtd">
<svg version="1.1" xmlns="http://www.w3.org/2000/svg" xmlns:xlink="http://www.w3.org/1999/xlink" x="0px" y="0px" width="65px"
	 height="65px" viewBox="0 0 65 65" enable-background="new 0 0 65 65" xml:space="preserve">
<g id="Layer_1">
	<g>
		<path fill="#FF9700" d="M21.327,13.918c1.692,1.692,1.691,4.438,0,6.132l-1.279,1.276c-1.691,1.692-4.437,1.693-6.131,0.001
			l-0.894-0.895c-1.693-1.692-1.692-4.438,0-6.131l1.277-1.277c1.693-1.692,4.439-1.694,6.131,0L21.327,13.918z"/>
		<path fill="#FF6D00" d="M23.114,15.707c1.693,1.692,1.693,4.438,0,6.13l-1.278,1.278c-1.691,1.692-4.438,1.692-6.13-0.001
			l-0.894-0.894c-1.693-1.692-1.693-4.438,0-6.132l1.276-1.277c1.694-1.692,4.438-1.692,6.132,0.001L23.114,15.707z"/>
		<g>
			<circle fill="#324554" cx="37.007" cy="37.007" r="24.186"/>
			<path fill="#142133" d="M19.906,19.906c9.444-9.445,24.758-9.446,34.203-0.001s9.445,24.761,0,34.204"/>
			<path fill="#6C9296" d="M56.456,56.457c-10.723,10.724-28.175,10.725-38.897,0c-10.725-10.724-10.725-28.174,0-38.898
				c10.726-10.725,28.175-10.724,38.897,0C67.182,28.282,67.182,45.732,56.456,56.457z M22.253,22.253
				c-8.136,8.136-8.136,21.374-0.001,29.51s21.374,8.135,29.511,0c8.136-8.137,8.136-21.374,0-29.511
				C43.626,14.117,30.391,14.117,22.253,22.253z"/>
			<path fill="#8BBABC" d="M17.559,22.218v-4.659c-10.725,10.725-10.725,28.175,0,38.898v-4.658
				C11.825,42.812,11.825,31.203,17.559,22.218z"/>
		</g>
		<g>
			<circle fill="#8BBABC" cx="25.478" cy="25.478" r="1.355"/>
			<circle fill="#8BBABC" cx="48.537" cy="48.537" r="1.355"/>
		</g>
		<g>
			<circle fill="#8BBABC" cx="37.008" cy="20.703" r="1.355"/>
			<circle fill="#8BBABC" cx="37.008" cy="53.313" r="1.355"/>
		</g>
		<g>
			<circle fill="#8BBABC" cx="48.537" cy="25.479" r="1.355"/>
			<circle fill="#8BBABC" cx="25.478" cy="48.538" r="1.355"/>
		</g>
		<g>
			<circle fill="#8BBABC" cx="53.312" cy="37.008" r="1.355"/>
			<circle fill="#8BBABC" cx="20.701" cy="37.008" r="1.355"/>
		</g>
		<polygon fill="#0797EF" points="39.553,34.462 45.396,45.396 34.462,39.554 28.619,28.62 		"/>
		<polyline fill="#1C67D3" points="28.619,28.62 39.553,34.462 45.396,45.396 		"/>
		<g>
			<path fill="#6C9296" d="M20.959,12.815l-1.533-1.533c1.269-1.267,1.269-3.331,0.001-4.598l-3.065-3.066
				c-1.27-1.269-3.331-1.268-4.6,0l-8.145,8.144c-1.267,1.269-1.268,3.331,0,4.599l3.068,3.066c1.266,1.268,3.33,1.268,4.598,0
				l1.533,1.533c-2.113,2.113-5.553,2.113-7.664,0l-3.067-3.066c-2.113-2.113-2.113-5.552,0-7.664l8.145-8.145
				c2.112-2.113,5.551-2.113,7.663,0l3.067,3.066C23.072,7.265,23.07,10.702,20.959,12.815z"/>
		</g>
	</g>
</g>
<g id="nyt_x5F_exporter_x5F_info" display="none">
</g>
</svg>
