<?xml version="1.0" encoding="utf-8"?>
<!-- Generator: Adobe Illustrator 16.0.0, SVG Export Plug-In . SVG Version: 6.00 Build 0)  -->
<!DOCTYPE svg PUBLIC "-//W3C//DTD SVG 1.1//EN" "http://www.w3.org/Graphics/SVG/1.1/DTD/svg11.dtd">
<svg version="1.1" xmlns="http://www.w3.org/2000/svg" xmlns:xlink="http://www.w3.org/1999/xlink" x="0px" y="0px" width="65px"
	 height="65px" viewBox="0 0 65 65" enable-background="new 0 0 65 65" xml:space="preserve">
<g id="Layer_1">
	<g>
		<g>
			<g>
				<g>
					<path fill="#F4D576" d="M49.618,34.346v20.07c0,3.912-3.172,7.084-7.084,7.084H22.466c-3.914,0-7.086-3.172-7.086-7.084v-20.07
						"/>
				</g>
				<g>
					<path fill="#FC8300" d="M42.534,64H22.466c-5.285,0-9.585-4.3-9.585-9.584v-20.07c0-1.381,1.118-2.5,2.499-2.5
						c1.382,0,2.501,1.119,2.501,2.5v20.07c0,2.527,2.056,4.584,4.585,4.584h20.068c2.527,0,4.584-2.057,4.584-4.584v-20.07
						c0-1.381,1.119-2.5,2.5-2.5s2.5,1.119,2.5,2.5v20.07C52.118,59.7,47.817,64,42.534,64z"/>
				</g>
			</g>
			<g>
				<g>
					<polyline fill="#F4D576" points="10.253,25.747 32.5,3.5 54.747,25.747 					"/>
				</g>
				<g>
					<path fill="#FC8300" d="M54.747,28.247c-0.64,0-1.279-0.244-1.768-0.732L32.5,7.035L12.021,27.515
						c-0.977,0.977-2.559,0.977-3.535,0s-0.977-2.559,0-3.535L30.732,1.732c0.977-0.977,2.558-0.977,3.535,0l22.247,22.247
						c0.977,0.977,0.977,2.559,0,3.535C56.026,28.003,55.387,28.247,54.747,28.247z"/>
				</g>
			</g>
			<g>
				<g>
					<polyline fill="#FFEAB0" points="15.331,33.92 32.501,16.751 49.669,33.92 					"/>
				</g>
				<g>
					<path fill="#FC8300" d="M49.669,36.42c-0.641,0-1.279-0.244-1.768-0.732l-15.4-15.401L17.099,35.688
						c-0.977,0.977-2.559,0.977-3.535,0s-0.977-2.56,0-3.535l17.17-17.169c0.469-0.469,1.104-0.732,1.768-0.732l0,0
						c0.663,0,1.299,0.264,1.768,0.732l17.168,17.169c0.977,0.977,0.977,2.56,0,3.535C50.948,36.176,50.31,36.42,49.669,36.42z"/>
				</g>
			</g>
		</g>
		<g>
			<g>
				<circle fill="#FC8300" cx="32.5" cy="41.564" r="1.062"/>
			</g>
			<g>
				<circle fill="#FC8300" cx="32.5" cy="45.627" r="1.062"/>
			</g>
			<g>
				<circle fill="#FC8300" cx="32.5" cy="49.689" r="1.062"/>
			</g>
		</g>
	</g>
</g>
<g id="nyt_x5F_exporter_x5F_info" display="none">
</g>
</svg>
