<?xml version="1.0" encoding="utf-8"?>
<!-- Generator: Adobe Illustrator 16.0.0, SVG Export Plug-In . SVG Version: 6.00 Build 0)  -->
<!DOCTYPE svg PUBLIC "-//W3C//DTD SVG 1.1//EN" "http://www.w3.org/Graphics/SVG/1.1/DTD/svg11.dtd">
<svg version="1.1" id="Layer_1" xmlns="http://www.w3.org/2000/svg" xmlns:xlink="http://www.w3.org/1999/xlink" x="0px" y="0px"
	 width="64px" height="64px" viewBox="0 0 64 64" enable-background="new 0 0 64 64" xml:space="preserve">
<g>
	<path fill="#FCC772" d="M61.6,35.4c0.2-1.4,0.3-2.8,0.3-4.3C61.9,14.6,48.5,1.3,32,1.3C15.5,1.3,2.1,14.6,2.1,31.1
		c0,1.4,0.1,2.9,0.3,4.3H61.6z"/>
	<path fill="#FF9C39" d="M61.8,30.7c-1-15.6-13.9-28-29.8-28C15.5,2.8,2.1,16.1,2.1,32.6c0,1.4,0.1,2.9,0.3,4.3H25v23.5h36.9
		L61.8,30.7L61.8,30.7z"/>
	<polyline fill="#E57A1A" points="2.4,36.9 25,36.9 25,60.5 61.9,60.5 61.9,30.7 61.8,30.7 	"/>
	<path fill="#065177" d="M36.2,30.1c-1.4,0-2.6,1.1-2.6,2.6v2h-1.4v-1.8h-1.8v1.8h-1.2v-1.8h-1.8v1.8h-1.2v-1.8h-1.8v1.8h-2V17.3
		l1-1l-6.9-6.9V6.7H20c0.4,0,0.7-0.3,0.7-0.7S20.4,5.2,20,5.2h-3.4V1.8c0-0.4-0.3-0.7-0.7-0.7s-0.7,0.3-0.7,0.7v3.4h-3.4
		C11.3,5.2,11,5.6,11,6s0.3,0.7,0.7,0.7h3.4v2.6l-6.9,6.9l1,1v15l-2.5-2.5l-3.3,3.3V21.2c0-0.7-0.6-1.3-1.3-1.3
		c-0.7,0-1.3,0.6-1.3,1.3v13.4V36v20.5h8.4v0.2h13.2v-0.2h11.1c0,1.4,1.2,2.5,2.5,2.5c1.4,0,2.6-1.1,2.6-2.6V32.6
		C38.7,31.2,37.6,30.1,36.2,30.1z"/>
	<rect x="0.8" y="55.6" fill="#102D35" width="62.3" height="7.3"/>
	<rect x="3.9" y="32.6" fill="#102D35" width="5.8" height="23.3"/>
	<polyline fill="#102D35" points="26.2,32.8 24.5,32.8 24.5,34.6 	"/>
	<polyline fill="#102D35" points="29.2,32.8 27.5,32.8 27.5,34.6 	"/>
	<polyline fill="#102D35" points="32.2,32.8 30.5,32.8 30.5,34.6 	"/>
	<path fill="#102D35" d="M33.6,34.6"/>
	<path fill="#102D35" d="M16.6,9.3V6.7H20c0.4,0,0.7-0.3,0.7-0.7S20.4,5.2,20,5.2h-3.4V1.8c0-0.4-0.3-0.7-0.7-0.7s-0.7,0.3-0.7,0.7
		v3.4h-3.4C11.3,5.2,11,5.6,11,6s0.3,0.7,0.7,0.7h3.4v2.6l-6.9,6.9l1,1v15l-2.5-2.5l-3.3,3.3V21.2c0-0.7-0.6-1.3-1.3-1.3
		c-0.7,0-1.3,0.6-1.3,1.3v13.4V36v20.5h8.4v0.2h13.2l5.9-0.2"/>
	<path fill="#102D35" d="M20.8,23.9v-2.8c0-0.7-0.6-1.3-1.3-1.3s-1.3,0.6-1.3,1.3v2.8H20.8z"/>
	<path fill="#FF9C39" d="M20.1,23.9v-2.8c0-0.7-0.6-1.3-1.3-1.3s-1.3,0.6-1.3,1.3v2.8H20.1z"/>
	<path fill="#102D35" d="M20.8,32.1v-2.8c0-0.7-0.6-1.3-1.3-1.3s-1.3,0.6-1.3,1.3v2.8H20.8z"/>
	<path fill="#FF9C39" d="M20.1,32.1v-2.8c0-0.7-0.6-1.3-1.3-1.3s-1.3,0.6-1.3,1.3v2.8H20.1z"/>
	<path fill="#102D35" d="M36.2,56.7v-7.7c0-2-1.6-3.7-3.7-3.7c-2,0-3.7,1.6-3.7,3.7v7.7H36.2z"/>
	<polygon fill="#102D35" points="38.4,56.1 45.7,49.6 45.8,46 43.8,43.5 46.4,40.2 44.8,37.5 41.8,34.7 41.2,30.6 36.3,26.7 
		41.8,30 42.8,33 46,30.7 43.6,34 45.8,35.5 47.1,37.2 50.6,31.7 52.8,32.6 53.1,28.9 51,25.4 46.8,23.1 51.7,24.8 52.5,26.1 
		53.8,27.6 55.3,25.6 56.8,23.9 55.6,26.4 54.2,29.4 54.2,32.5 53.1,34.1 51,33.9 49.7,36.7 50.5,38.4 49.8,39.9 51.6,40.6 
		53.5,38.5 54.6,39 57.1,38.4 57,35.9 58.5,34.7 60.2,35.5 61.6,35.4 59.6,31.6 62.8,35.5 62.1,36.6 60,36.7 58.3,36.1 58.7,38.9 
		57.1,39.9 54.8,41.1 53.5,43.1 49.6,42.1 48.9,43.7 51.8,45.7 51.8,49.1 54,50.5 54,52.2 56.1,52.6 58.3,48.4 58.3,51.7 61,49.1 
		61,53.2 62.3,51.9 63.2,55.6 	"/>
	<g>
		<polygon fill="#065177" points="54,50.5 52.5,49.6 52.5,50 54,50.9 		"/>
		<polygon fill="#065177" points="58.3,50.5 58.3,48.4 56.1,52.6 54.6,52.4 54.6,53.1 56.8,53.5 		"/>
		<polygon fill="#065177" points="61,49.1 59,51.1 59,52.6 61,50.6 		"/>
		<polygon fill="#065177" points="45.5,38.3 45.1,38 46.4,40.2 43.8,43.5 44.5,44.3 47.1,41.1 		"/>
		<polygon fill="#065177" points="62.3,51.9 61.6,52.6 61.6,54.1 62.6,53.1 		"/>
		<polygon fill="#065177" points="51.8,45.7 49.7,44.3 49.6,44.6 51.8,46.1 		"/>
		<polygon fill="#065177" points="47.8,38.1 51.3,32.6 53.5,33.5 53.8,29.7 51.6,26.2 51.4,26.1 53.1,28.9 52.8,32.6 50.6,31.7 
			47.1,37.2 		"/>
		<polygon fill="#065177" points="42,30.5 41.8,30 36.3,26.7 38.5,28.5 		"/>
		<polygon fill="#065177" points="41.8,34.7 42.5,35.3 41.9,31.5 41.3,31 		"/>
		<polygon fill="#065177" points="46.3,50.5 46.5,46.8 45.8,46 45.7,49.6 38.4,56.1 40,56.1 		"/>
		<polygon fill="#065177" points="43.5,33.8 43.9,33.5 46,30.7 43.2,32.8 		"/>
		<polygon fill="#065177" points="58.5,34.7 57,35.9 57.1,38.4 54.6,39 53.5,38.5 51.6,40.6 50.7,40.2 50.5,40.7 52.3,41.5 
			54.1,39.3 55.3,39.8 57.8,39.2 57.6,36.7 58.4,36.2 58.3,36.1 58.4,36.1 59.1,35.6 60.9,36.3 62.2,36.2 60.3,32.5 62.8,35.5 
			62.8,35.5 59.6,31.6 61.6,35.4 60.2,35.5 		"/>
		<polygon fill="#065177" points="46.4,36.2 45.8,35.5 44.5,34.6 44.3,34.8 		"/>
		<polygon fill="#065177" points="52.2,25.6 51.7,24.8 46.8,23.1 49.9,24.8 		"/>
		<polygon fill="#065177" points="53.1,27 54.5,28.5 54.8,28 55.6,26.4 56.8,23.9 55.3,25.6 53.8,27.6 53,26.7 		"/>
	</g>
	<rect x="14.4" y="16.2" fill="#102D35" width="9.1" height="1.1"/>
	<polygon fill="#102D35" points="39.6,28.7 40.5,25.7 40.3,29.1 	"/>
	<polygon fill="#102D35" points="50,24.3 50.8,21.3 50.7,24.6 	"/>
	<polygon fill="#102D35" points="54.8,26.5 54,23.4 55.6,26.4 	"/>
	<polygon fill="#102D35" points="61,33.8 62.2,30.9 61.8,34.1 	"/>
	<circle fill="#FCC772" cx="29.5" cy="7.1" r="1"/>
	<circle fill="#FCC772" cx="28.3" cy="13.7" r="1"/>
	<circle fill="#FCC772" cx="33.5" cy="6.8" r="0.7"/>
	<circle fill="#FCC772" cx="43.6" cy="10.2" r="3.7"/>
	<circle fill="#FCC772" cx="20.3" cy="9" r="0.5"/>
	<circle fill="#FCC772" cx="29.3" cy="22.6" r="2.4"/>
	<circle fill="#FCC772" cx="34.5" cy="11.2" r="0.4"/>
	<circle fill="#FCC772" cx="23.5" cy="5.3" r="1.2"/>
	<circle fill="#FCC772" cx="7.2" cy="21.4" r="0.7"/>
	<circle fill="#FCC772" cx="7.7" cy="24.5" r="0.1"/>
	<circle fill="#FCC772" cx="24.6" cy="10.7" r="0.4"/>
	<path fill="#102D35" d="M22.6,39.2c0,0.4-0.3,0.7-0.7,0.7h-2.8c-0.4,0-0.7-0.3-0.7-0.7l0,0c0-0.4,0.3-0.7,0.7-0.7H22
		C22.3,38.5,22.6,38.8,22.6,39.2L22.6,39.2z"/>
	<path fill="#102D35" d="M28,39.2c0,0.4-0.3,0.7-0.7,0.7h-2.8c-0.4,0-0.7-0.3-0.7-0.7l0,0c0-0.4,0.3-0.7,0.7-0.7h2.8
		C27.7,38.5,28,38.8,28,39.2L28,39.2z"/>
	<path fill="#102D35" d="M33.3,39.2c0,0.4-0.3,0.7-0.7,0.7h-2.8c-0.4,0-0.7-0.3-0.7-0.7l0,0c0-0.4,0.3-0.7,0.7-0.7h2.8
		C33,38.5,33.3,38.8,33.3,39.2L33.3,39.2z"/>
	<path fill="#102D35" d="M26.2,41.6c0,0.4-0.3,0.7-0.7,0.7h-2.8c-0.4,0-0.7-0.3-0.7-0.7l0,0c0-0.4,0.3-0.7,0.7-0.7h2.8
		C25.9,40.9,26.2,41.2,26.2,41.6L26.2,41.6z"/>
	<path fill="#102D35" d="M31.6,41.6c0,0.4-0.3,0.7-0.7,0.7h-2.8c-0.4,0-0.7-0.3-0.7-0.7l0,0c0-0.4,0.3-0.7,0.7-0.7h2.8
		C31.3,40.9,31.6,41.2,31.6,41.6L31.6,41.6z"/>
	<path fill="#102D35" d="M36.9,41.6c0,0.4-0.3,0.7-0.7,0.7h-2.8c-0.4,0-0.7-0.3-0.7-0.7l0,0c0-0.4,0.3-0.7,0.7-0.7h2.8
		C36.6,40.9,36.9,41.2,36.9,41.6L36.9,41.6z"/>
	<path fill="#102D35" d="M16.8,44.2c0,0.4-0.3,0.7-0.7,0.7h-2.8c-0.4,0-0.7-0.3-0.7-0.7l0,0c0-0.4,0.3-0.7,0.7-0.7h2.8
		C16.5,43.5,16.8,43.8,16.8,44.2L16.8,44.2z"/>
	<path fill="#102D35" d="M22.1,44.2c0,0.4-0.3,0.7-0.7,0.7h-2.8c-0.4,0-0.7-0.3-0.7-0.7l0,0c0-0.4,0.3-0.7,0.7-0.7h2.8
		C21.8,43.5,22.1,43.8,22.1,44.2L22.1,44.2z"/>
	<path fill="#102D35" d="M27.5,44.2c0,0.4-0.3,0.7-0.7,0.7h-2.8c-0.4,0-0.7-0.3-0.7-0.7l0,0c0-0.4,0.3-0.7,0.7-0.7h2.8
		C27.2,43.5,27.5,43.8,27.5,44.2L27.5,44.2z"/>
	<path fill="#102D35" d="M23.8,46.8c0,0.4-0.3,0.7-0.7,0.7h-2.8c-0.4,0-0.7-0.3-0.7-0.7l0,0c0-0.4,0.3-0.7,0.7-0.7h2.8
		C23.5,46.2,23.8,46.5,23.8,46.8L23.8,46.8z"/>
	<path fill="#102D35" d="M34.5,46.8c0,0.4-0.3,0.7-0.7,0.7h-2.8c-0.4,0-0.7-0.3-0.7-0.7l0,0c0-0.4,0.3-0.7,0.7-0.7h2.8
		C34.2,46.2,34.5,46.5,34.5,46.8L34.5,46.8z"/>
	<circle fill="#102D35" cx="54.5" cy="13.6" r="2.4"/>
	<path fill="#102D35" d="M58.5,13.7c0.6-0.9,0.5-2.1-0.3-2.9c-0.4-0.4-0.9-0.6-1.4-0.7c-0.2-1.7-1.7-3-3.5-3c-1.1,0-2,0.5-2.7,1.3
		c-0.1,0-0.1,0-0.2,0c-1.8,0-3.3,1.4-3.5,3.2c-0.9,0.3-1.5,1.2-1.5,2.2c0,0,0,0,0,0c-1.1,0.2-1.9,1.1-1.9,2.3c0,0.3,0.1,0.6,0.2,0.9
		l-4.3,1.4h6.4h1.2H58c1.3,0,2.3-1,2.3-2.3C60.3,14.8,59.5,13.9,58.5,13.7z"/>
	<g>
		<path fill="#065177" d="M57.9,11.3c0.3,0,0.6,0.1,0.8,0.3c-0.1-0.3-0.3-0.6-0.5-0.8c-0.2-0.2-0.4-0.3-0.6-0.5
			C57.7,10.6,57.8,10.9,57.9,11.3z"/>
		<path fill="#065177" d="M59.8,14.4c-0.1,0.2-0.1,0.3-0.2,0.5c0.2,0,0.5,0.1,0.7,0.2C60.1,14.9,60,14.6,59.8,14.4z"/>
		<path fill="#065177" d="M44.5,18.2l0.4-0.1c-0.1-0.3-0.2-0.6-0.2-0.9c0-1.1,0.8-2.1,1.9-2.3c0,0,0,0,0,0c0-1,0.6-1.9,1.5-2.2
			c0.2-1.8,1.6-3.2,3.5-3.2c0.1,0,0.1,0,0.2,0c0.6-0.8,1.6-1.3,2.7-1.3c0.8,0,1.4,0.3,2,0.7C55.9,7.8,54.7,7,53.3,7
			c-1.1,0-2,0.5-2.7,1.3c-0.1,0-0.1,0-0.2,0c-1.8,0-3.3,1.4-3.5,3.2c-0.9,0.3-1.5,1.2-1.5,2.2c0,0,0,0,0,0c-1.1,0.2-1.9,1.1-1.9,2.3
			c0,0.3,0.1,0.6,0.2,0.9l-4.3,1.4H44.5z"/>
	</g>
</g>
</svg>
