<?xml version="1.0" encoding="utf-8"?>
<!-- Generator: Adobe Illustrator 16.0.0, SVG Export Plug-In . SVG Version: 6.00 Build 0)  -->
<!DOCTYPE svg PUBLIC "-//W3C//DTD SVG 1.1//EN" "http://www.w3.org/Graphics/SVG/1.1/DTD/svg11.dtd">
<svg version="1.1" xmlns="http://www.w3.org/2000/svg" xmlns:xlink="http://www.w3.org/1999/xlink" x="0px" y="0px" width="65px"
	 height="65px" viewBox="0 0 65 65" enable-background="new 0 0 65 65" xml:space="preserve">
<g id="Layer_1">
	<g>
		<g>
			<polygon fill="#E2D3B7" points="22.18,52.96 1.5,61.76 1.5,12.04 22.18,3.24 			"/>
			<polyline fill="#CCBD9F" points="22.18,3.24 22.18,52.96 1.5,61.76 			"/>
			<polygon fill="#E2D3B7" points="63.5,52.96 42.82,61.76 42.82,12.04 63.5,3.24 			"/>
			<polyline fill="#CCBD9F" points="42.82,61.76 42.82,12.04 63.5,3.24 			"/>
			<polygon fill="#AA9572" points="22.138,52.96 42.82,61.76 42.82,12.04 22.138,3.24 			"/>
		</g>
		<g>
			<path fill="#FF4800" d="M10.405,21.054c-0.002,0.473-0.387,0.856-0.855,0.857l0,0c-0.475-0.002-0.857-0.385-0.857-0.857
				l0.001-4.877c0-0.475,0.384-0.856,0.856-0.855l0,0c0.474,0,0.855,0.382,0.854,0.855L10.405,21.054z"/>
			<path fill="#FF4800" d="M7.513,20.157c-0.473-0.001-0.854-0.382-0.854-0.855l0,0c-0.001-0.472,0.382-0.856,0.856-0.856
				l4.005-1.614c0.471-0.004,0.853,0.379,0.854,0.854l0,0c0,0.47-0.383,0.853-0.854,0.855L7.513,20.157z"/>
		</g>
		<g>
			<path fill="#87BA09" d="M55.452,52.457c-0.002,0.473-0.387,0.856-0.855,0.856l0,0c-0.475-0.001-0.857-0.385-0.857-0.856
				l0.001-4.877c0-0.475,0.384-0.856,0.856-0.855l0,0c0.474,0,0.855,0.382,0.854,0.855L55.452,52.457z"/>
			<path fill="#87BA09" d="M52.56,51.56c-0.473-0.001-0.854-0.381-0.854-0.854l0,0c-0.001-0.473,0.382-0.856,0.856-0.856
				l4.005-1.615c0.471-0.004,0.853,0.38,0.854,0.855l0,0c0,0.47-0.383,0.853-0.854,0.855L52.56,51.56z"/>
		</g>
		<g>
			<g>
				<path fill="#918167" d="M9.669,26.041c-0.268,0-0.484-0.216-0.484-0.484v-1.453c0-0.268,0.217-0.484,0.484-0.484
					c0.269,0,0.484,0.217,0.484,0.484v1.453C10.153,25.825,9.938,26.041,9.669,26.041z"/>
			</g>
			<g>
				<path fill="#918167" d="M9.669,47.03c-0.268,0-0.484-0.217-0.484-0.484v-2.623c0-0.268,0.217-0.484,0.484-0.484
					c0.269,0,0.484,0.217,0.484,0.484v2.623C10.153,46.813,9.938,47.03,9.669,47.03z M9.669,41.783
					c-0.268,0-0.484-0.216-0.484-0.484v-2.624c0-0.268,0.217-0.484,0.484-0.484c0.269,0,0.484,0.217,0.484,0.484v2.624
					C10.153,41.567,9.938,41.783,9.669,41.783z M9.669,36.536c-0.268,0-0.484-0.217-0.484-0.484v-2.624
					c0-0.268,0.217-0.484,0.484-0.484c0.269,0,0.484,0.217,0.484,0.484v2.624C10.153,36.319,9.938,36.536,9.669,36.536z
					 M9.669,31.288c-0.268,0-0.484-0.217-0.484-0.484v-2.623c0-0.268,0.217-0.484,0.484-0.484c0.269,0,0.484,0.217,0.484,0.484
					v2.623C10.153,31.071,9.938,31.288,9.669,31.288z"/>
			</g>
			<g>
				<path fill="#918167" d="M9.829,51.08l-0.645-0.457V49.17c0-0.268,0.217-0.484,0.484-0.484c0.269,0,0.484,0.217,0.484,0.484v0.77
					l0.725-0.256c0.255-0.088,0.528,0.044,0.617,0.297c0.088,0.252-0.043,0.528-0.295,0.617L9.829,51.08z"/>
			</g>
			<g>
				<path fill="#918167" d="M30.481,49.768c-0.059,0-0.117-0.011-0.175-0.033l-2.414-0.936c-0.251-0.097-0.374-0.377-0.276-0.627
					c0.096-0.249,0.376-0.375,0.625-0.276l2.415,0.937c0.25,0.096,0.374,0.376,0.277,0.626C30.86,49.65,30.676,49.768,30.481,49.768
					z M13.481,49.765c-0.201,0-0.387-0.124-0.457-0.324c-0.09-0.251,0.043-0.528,0.297-0.617l2.441-0.861
					c0.254-0.089,0.529,0.045,0.617,0.296c0.09,0.252-0.043,0.529-0.296,0.618l-2.442,0.861
					C13.589,49.756,13.534,49.765,13.481,49.765z M18.364,48.044c-0.197,0-0.385-0.124-0.455-0.324
					c-0.09-0.251,0.043-0.528,0.296-0.617l2.442-0.861c0.256-0.091,0.529,0.044,0.617,0.296s-0.045,0.529-0.297,0.618l-2.44,0.86
					C18.474,48.035,18.419,48.044,18.364,48.044z M25.655,47.895c-0.06,0-0.119-0.01-0.176-0.032l-2.414-0.937
					c-0.25-0.096-0.375-0.376-0.277-0.626c0.096-0.251,0.377-0.374,0.627-0.276l2.414,0.936c0.25,0.097,0.373,0.377,0.277,0.627
					C26.032,47.777,25.849,47.895,25.655,47.895z"/>
			</g>
			<g>
				<path fill="#918167" d="M34.075,51.195l-1.355-0.524c-0.249-0.097-0.371-0.377-0.274-0.627c0.095-0.25,0.376-0.373,0.627-0.275
					l0.694,0.269v-0.746c0-0.268,0.217-0.484,0.484-0.484s0.484,0.217,0.484,0.484v1.453L34.075,51.195z"/>
			</g>
			<g>
				<path fill="#918167" d="M34.251,46.385c-0.268,0-0.484-0.216-0.484-0.484V42.51c0-0.268,0.217-0.484,0.484-0.484
					s0.484,0.217,0.484,0.484V45.9C34.735,46.168,34.519,46.385,34.251,46.385z"/>
			</g>
			<g>
				<path fill="#918167" d="M34.251,39.604c-0.268,0-0.484-0.216-0.484-0.484v-1.453l0.668-0.448l1.346,0.55
					c0.248,0.102,0.365,0.384,0.264,0.632c-0.101,0.248-0.385,0.364-0.631,0.265l-0.678-0.276v0.731
					C34.735,39.387,34.519,39.604,34.251,39.604z"/>
			</g>
			<g>
				<path fill="#918167" d="M42.995,41.608c-0.197,0-0.383-0.121-0.455-0.316c-0.092-0.251,0.037-0.53,0.286-0.622l2.499-0.92
					c0.249-0.094,0.529,0.034,0.621,0.286c0.092,0.251-0.035,0.53-0.285,0.622l-2.499,0.92
					C43.107,41.599,43.052,41.608,42.995,41.608z M40.526,40.714c-0.061,0-0.123-0.012-0.184-0.036l-2.465-1.007
					c-0.247-0.102-0.366-0.384-0.264-0.632c0.101-0.248,0.379-0.368,0.631-0.265l2.465,1.006c0.247,0.101,0.365,0.384,0.266,0.632
					C40.898,40.6,40.718,40.714,40.526,40.714z M47.991,39.768c-0.197,0-0.383-0.121-0.453-0.317
					c-0.094-0.25,0.035-0.529,0.285-0.621l2.501-0.921c0.247-0.094,0.528,0.035,0.62,0.287c0.094,0.251-0.035,0.529-0.286,0.621
					l-2.501,0.921C48.104,39.758,48.046,39.768,47.991,39.768z"/>
			</g>
			<g>
				<path fill="#918167" d="M54.353,38.877c-0.268,0-0.484-0.216-0.484-0.484v-0.759l-0.713,0.263
					c-0.248,0.095-0.528-0.035-0.621-0.287c-0.092-0.25,0.037-0.529,0.285-0.621l1.365-0.503l0.652,0.454v1.453
					C54.837,38.661,54.621,38.877,54.353,38.877z"/>
			</g>
			<g>
				<path fill="#918167" d="M54.353,42.35c-0.268,0-0.484-0.217-0.484-0.484v-1.736c0-0.268,0.217-0.484,0.484-0.484
					c0.269,0,0.484,0.217,0.484,0.484v1.736C54.837,42.133,54.621,42.35,54.353,42.35z"/>
			</g>
			<g>
				<path fill="#918167" d="M54.353,45.537c-0.268,0-0.484-0.216-0.484-0.484V43.6c0-0.268,0.217-0.484,0.484-0.484
					c0.269,0,0.484,0.217,0.484,0.484v1.453C54.837,45.321,54.621,45.537,54.353,45.537z"/>
			</g>
		</g>
	</g>
</g>
<g id="nyt_x5F_exporter_x5F_info" display="none">
</g>
</svg>
