<?xml version="1.0" encoding="utf-8"?>
<!-- Generator: Adobe Illustrator 16.0.0, SVG Export Plug-In . SVG Version: 6.00 Build 0)  -->
<!DOCTYPE svg PUBLIC "-//W3C//DTD SVG 1.1//EN" "http://www.w3.org/Graphics/SVG/1.1/DTD/svg11.dtd">
<svg version="1.1" id="Layer_1" xmlns="http://www.w3.org/2000/svg" xmlns:xlink="http://www.w3.org/1999/xlink" x="0px" y="0px"
	 width="64px" height="64px" viewBox="0 0 64 64" enable-background="new 0 0 64 64" xml:space="preserve">
<g>
	<path fill="#0D9B2E" d="M32,0.8C16.6,0.8,4.2,13.3,4.2,28.6C4.2,44,16.6,56.4,32,56.4c15.4,0,27.8-12.5,27.8-27.8
		C59.8,13.3,47.4,0.8,32,0.8z M32,46.4c-9.8,0-17.8-8-17.8-17.8c0-9.8,8-17.8,17.8-17.8s17.8,8,17.8,17.8
		C49.8,38.4,41.8,46.4,32,46.4z"/>
	<path fill="#0A7C38" d="M4.2,28.6C4.2,44,16.6,56.4,32,56.4c15.4,0,27.8-12.5,27.8-27.8C59.8,13.3,47.4,0.8,32,0.8 M32,46.4
		c-9.8,0-17.8-8-17.8-17.8c0-9.8,8-17.8,17.8-17.8s17.8,8,17.8,17.8C49.8,38.4,41.8,46.4,32,46.4z"/>
	<path fill="#036632" d="M32,0.8v10.1c10,0.1,17.6,8,17.6,17.8c0,9.7-7.6,17.6-17.6,17.8v10.1c15-0.1,27.6-12.5,27.6-27.8
		C59.6,13.3,47,0.9,32,0.8z"/>
	<g>
		<g>
			<g>
				<path fill="#0D9B2E" d="M12,1.7c-1,0.9-2.4,2.8-2.4,5c0,2.2,1.4,4.1,2.4,5V1.7z"/>
				<path fill="#0A7C38" d="M12,1.7c2,0.9,2.4,2.8,2.4,5c0,2.2-0.4,4.1-2.4,5V1.7z"/>
			</g>
			<g>
				<path fill="#0D9B2E" d="M17.4,32.7c0.4-1.6-0.3-3.7-1.8-5.3c-1.6-1.6-3.6-2.2-5.3-1.8L17.4,32.7z"/>
				<path fill="#0A7C38" d="M17.4,32.7c-1.6,0.4-3.7-0.2-5.3-1.8c-1.6-1.6-2.2-3.6-1.8-5.3L17.4,32.7z"/>
			</g>
			<g>
				<path fill="#0D9B2E" d="M9.6,17.1c-1.6-0.4-3.7,0.3-5.3,1.8c-1.6,1.6-2.2,3.6-1.8,5.3L9.6,17.1z"/>
				<path fill="#0A7C38" d="M9.6,17.1c0.4,1.6-0.2,3.7-1.8,5.3c-1.6,1.6-3.6,2.2-5.3,1.8L9.6,17.1z"/>
			</g>
			<g>
				<path fill="#0D9B2E" d="M12.1,35.9c-1.6-0.4-3.7,0.3-5.3,1.8C5.3,39.3,4.6,41.4,5,43L12.1,35.9z"/>
				<path fill="#0A7C38" d="M12.1,35.9c0.4,1.6-0.2,3.7-1.8,5.3C8.7,42.7,6.7,43.4,5,43L12.1,35.9z"/>
			</g>
			<g>
				<path fill="#0D9B2E" d="M9.8,32.6c-1.6-0.4-3.7,0.2-5.3,1.8c-1.6,1.6-2.2,3.6-1.8,5.3L9.8,32.6z"/>
				<path fill="#0A7C38" d="M9.8,32.6c0.4,1.6-0.3,3.7-1.8,5.3c-1.6,1.6-3.6,2.2-5.3,1.8L9.8,32.6z"/>
			</g>
			<g>
				<path fill="#0D9B2E" d="M12,30.6c-0.9-1.4-2.8-2.4-5-2.4c-2.2,0-4.1,1-5,2.4L12,30.6z"/>
				<path fill="#0A7C38" d="M12,30.6C11.1,32,9.2,33,7,33c-2.2,0-4.1-1-5-2.4L12,30.6z"/>
			</g>
			<g>
				<path fill="#0D9B2E" d="M17,2.2c-1,0.9-2.4,2.8-2.4,5c0,2.2,1.4,4.1,2.4,5V2.2z"/>
				<path fill="#0A7C38" d="M17,2.2c1,0.9,2.4,2.8,2.4,5c0,2.2-1.4,4.1-2.4,5V2.2z"/>
			</g>
			<g>
				<path fill="#0D9B2E" d="M6.5,8.8C6.3,9.8,6.8,11,7.8,12c1,0.9,2.3,1.3,3.3,1L6.5,8.8z"/>
				<path fill="#0A7C38" d="M6.5,8.8c1-0.3,2.3,0.1,3.3,1c1,0.9,1.4,2.2,1.2,3.2L6.5,8.8z"/>
			</g>
			<g>
				<path fill="#0A7C38" d="M1.5,27.1c0.6,0.9,1.8,1.4,3.1,1.4c1.4,0,2.5-0.7,3-1.6L1.5,27.1z"/>
				<path fill="#0D9B2E" d="M1.5,27.1c0.5-0.9,1.7-1.6,3-1.6c1.4,0,2.6,0.5,3.1,1.4L1.5,27.1z"/>
			</g>
			<g>
				<path fill="#0D9B2E" d="M20,21c-0.6-0.9-1.8-1.4-3.1-1.4c-1.4,0-2.5,0.7-3,1.6L20,21z"/>
				<path fill="#0A7C38" d="M20,21c-0.5,0.9-1.7,1.6-3,1.6c-1.4,0-2.6-0.5-3.1-1.4L20,21z"/>
			</g>
			<g>
				<path fill="#0A7C38" d="M22.3,39.7c0.2-1-0.2-2.3-1.2-3.2c-1-0.9-2.3-1.3-3.3-1L22.3,39.7z"/>
				<path fill="#0D9B2E" d="M22.3,39.7c-1,0.3-2.3-0.1-3.3-1c-1-0.9-1.4-2.2-1.2-3.2L22.3,39.7z"/>
			</g>
			<g>
				<path fill="#0D9B2E" d="M8.2,16c-0.6-0.9-1.8-1.4-3.1-1.4c-1.4,0-2.5,0.7-3,1.6L8.2,16z"/>
				<path fill="#0A7C38" d="M8.2,16c-0.5,0.9-1.7,1.6-3,1.6c-1.4,0-2.6-0.5-3.1-1.4L8.2,16z"/>
			</g>
			<g>
				<path fill="#0D9B2E" d="M5.2,4.4C5.1,4.9,5.4,5.6,5.9,6.1c0.5,0.5,1.2,0.7,1.7,0.5L5.2,4.4z"/>
				<path fill="#0A7C38" d="M5.2,4.4c0.5-0.1,1.2,0,1.7,0.5c0.5,0.5,0.8,1.1,0.6,1.7L5.2,4.4z"/>
			</g>
			<g>
				<path fill="#0D9B2E" d="M6.5,12.1c-0.3-0.5-0.9-0.8-1.6-0.7c-0.7,0-1.3,0.4-1.6,0.8L6.5,12.1z"/>
				<path fill="#0D9B2E" d="M6.5,12.1C6.2,12.6,5.6,13,4.9,13c-0.7,0-1.3-0.3-1.6-0.7L6.5,12.1z"/>
			</g>
			<g>
				<path fill="#0D9B2E" d="M8.6,45.1c-0.5-0.1-1.2,0.1-1.7,0.6c-0.5,0.5-0.7,1.2-0.5,1.7L8.6,45.1z"/>
				<path fill="#0A7C38" d="M8.6,45.1c0.1,0.5,0,1.2-0.5,1.7c-0.5,0.5-1.1,0.8-1.7,0.6L8.6,45.1z"/>
			</g>
			<g>
				<path fill="#0D9B2E" d="M16.1,24.4c-0.1,0.5,0.1,1.2,0.6,1.7c0.5,0.5,1.2,0.7,1.7,0.5L16.1,24.4z"/>
				<path fill="#0D9B2E" d="M16.1,24.4c0.5-0.1,1.2,0,1.7,0.5c0.5,0.5,0.8,1.1,0.6,1.7L16.1,24.4z"/>
			</g>
			<g>
				<path fill="#0A7C38" d="M19.3,18.5c0.5,0.1,1.2-0.1,1.7-0.6c0.5-0.5,0.7-1.2,0.5-1.7L19.3,18.5z"/>
				<path fill="#0D9B2E" d="M19.3,18.5c-0.1-0.5,0-1.2,0.5-1.7c0.5-0.5,1.1-0.8,1.7-0.6L19.3,18.5z"/>
			</g>
		</g>
		<g>
			<g>
				<path fill="#0A7C38" d="M52,1.7c1,0.9,2.4,2.8,2.4,5c0,2.2-1.4,4.1-2.4,5V1.7z"/>
				<path fill="#0D9B2E" d="M52,1.7c-2,0.9-2.4,2.8-2.4,5c0,2.2,0.4,4.1,2.4,5V1.7z"/>
			</g>
			<g>
				<path fill="#0D9B2E" d="M46.6,32.7c-0.4-1.6,0.3-3.7,1.8-5.3c1.6-1.6,3.6-2.2,5.3-1.8L46.6,32.7z"/>
				<path fill="#0A7C38" d="M46.6,32.7c1.6,0.4,3.7-0.2,5.3-1.8c1.6-1.6,2.2-3.6,1.8-5.3L46.6,32.7z"/>
			</g>
			<g>
				<path fill="#0D9B2E" d="M54.4,17.1c1.6-0.4,3.7,0.3,5.3,1.8c1.6,1.6,2.2,3.6,1.8,5.3L54.4,17.1z"/>
				<path fill="#0A7C38" d="M54.4,17.1c-0.4,1.6,0.2,3.7,1.8,5.3c1.6,1.6,3.6,2.2,5.3,1.8L54.4,17.1z"/>
			</g>
			<g>
				<path fill="#0D9B2E" d="M51.9,35.9c1.6-0.4,3.7,0.3,5.3,1.8c1.6,1.6,2.2,3.6,1.8,5.3L51.9,35.9z"/>
				<path fill="#0A7C38" d="M51.9,35.9c-0.4,1.6,0.2,3.7,1.8,5.3c1.6,1.6,3.6,2.2,5.3,1.8L51.9,35.9z"/>
			</g>
			<g>
				<path fill="#0D9B2E" d="M54.2,32.6c1.6-0.4,3.7,0.2,5.3,1.8c1.6,1.6,2.2,3.6,1.8,5.3L54.2,32.6z"/>
				<path fill="#0A7C38" d="M54.2,32.6c-0.4,1.6,0.3,3.7,1.8,5.3c1.6,1.6,3.6,2.2,5.3,1.8L54.2,32.6z"/>
			</g>
			<g>
				<path fill="#0A7C38" d="M52,30.6c0.9-1.4,2.8-2.4,5-2.4c2.2,0,4.1,1,5,2.4L52,30.6z"/>
				<path fill="#0D9B2E" d="M52,30.6c0.9,1.4,2.8,2.4,5,2.4c2.2,0,4.1-1,5-2.4L52,30.6z"/>
			</g>
			<g>
				<path fill="#0A7C38" d="M47,2.2c1,0.9,2.4,2.8,2.4,5c0,2.2-1.4,4.1-2.4,5V2.2z"/>
				<path fill="#0D9B2E" d="M47,2.2c-1,0.9-2.4,2.8-2.4,5c0,2.2,1.4,4.1,2.4,5V2.2z"/>
			</g>
			<g>
				<path fill="#0A7C38" d="M57.5,8.8c0.2,1-0.2,2.3-1.2,3.2c-1,0.9-2.3,1.3-3.3,1L57.5,8.8z"/>
				<path fill="#0D9B2E" d="M57.5,8.8c-1-0.3-2.3,0.1-3.3,1c-1,0.9-1.4,2.2-1.2,3.2L57.5,8.8z"/>
			</g>
			<g>
				<path fill="#0D9B2E" d="M62.5,27.1c-0.6,0.9-1.8,1.4-3.1,1.4c-1.4,0-2.5-0.7-3-1.6L62.5,27.1z"/>
				<path fill="#0A7C38" d="M62.5,27.1c-0.5-0.9-1.7-1.6-3-1.6c-1.4,0-2.6,0.5-3.1,1.4L62.5,27.1z"/>
			</g>
			<g>
				<path fill="#0D9B2E" d="M44,21c0.6-0.9,1.8-1.4,3.1-1.4c1.4,0,2.5,0.7,3,1.6L44,21z"/>
				<path fill="#0A7C38" d="M44,21c0.5,0.9,1.7,1.6,3,1.6c1.4,0,2.6-0.5,3.1-1.4L44,21z"/>
			</g>
			<g>
				<path fill="#0D9B2E" d="M41.7,39.7c-0.2-1,0.2-2.3,1.2-3.2c1-0.9,2.3-1.3,3.3-1L41.7,39.7z"/>
				<path fill="#0A7C38" d="M41.7,39.7c1,0.3,2.3-0.1,3.3-1c1-0.9,1.4-2.2,1.2-3.2L41.7,39.7z"/>
			</g>
			<g>
				<path fill="#0D9B2E" d="M55.8,16c0.6-0.9,1.8-1.4,3.1-1.4c1.4,0,2.5,0.7,3,1.6L55.8,16z"/>
				<path fill="#0A7C38" d="M55.8,16c0.5,0.9,1.7,1.6,3,1.6c1.4,0,2.6-0.5,3.1-1.4L55.8,16z"/>
			</g>
			<g>
				<path fill="#0D9B2E" d="M58.8,4.4c0.1,0.5-0.1,1.2-0.6,1.7c-0.5,0.5-1.2,0.7-1.7,0.5L58.8,4.4z"/>
				<path fill="#0D9B2E" d="M58.8,4.4c-0.5-0.1-1.2,0-1.7,0.5c-0.5,0.5-0.8,1.1-0.6,1.7L58.8,4.4z"/>
			</g>
			<g>
				<path fill="#0D9B2E" d="M57.5,12.1c0.3-0.5,0.9-0.8,1.6-0.7c0.7,0,1.3,0.4,1.6,0.8L57.5,12.1z"/>
				<path fill="#0D9B2E" d="M57.5,12.1c0.3,0.5,0.9,0.8,1.6,0.8c0.7,0,1.3-0.3,1.6-0.7L57.5,12.1z"/>
			</g>
			<g>
				<path fill="#0D9B2E" d="M55.4,45.1c0.5-0.1,1.2,0.1,1.7,0.6c0.5,0.5,0.7,1.2,0.5,1.7L55.4,45.1z"/>
				<path fill="#0A7C38" d="M55.4,45.1c-0.1,0.5,0,1.2,0.5,1.7c0.5,0.5,1.1,0.8,1.7,0.6L55.4,45.1z"/>
			</g>
			<g>
				<path fill="#0D9B2E" d="M47.9,24.4c0.1,0.5-0.1,1.2-0.6,1.7c-0.5,0.5-1.2,0.7-1.7,0.5L47.9,24.4z"/>
				<path fill="#0A7C38" d="M47.9,24.4c-0.5-0.1-1.2,0-1.7,0.5c-0.5,0.5-0.8,1.1-0.6,1.7L47.9,24.4z"/>
			</g>
			<g>
				<path fill="#0D9B2E" d="M44.7,18.5c-0.5,0.1-1.2-0.1-1.7-0.6c-0.5-0.5-0.7-1.2-0.5-1.7L44.7,18.5z"/>
				<path fill="#0D9B2E" d="M44.7,18.5c0.1-0.5,0-1.2-0.5-1.7c-0.5-0.5-1.1-0.8-1.7-0.6L44.7,18.5z"/>
			</g>
		</g>
	</g>
	<g>
		<g>
			<path fill="#C92D2D" d="M28.9,43.1c-0.7-3.2-4.9-7.8-10.9,1.7C11.8,54.2,6.6,52.9,3.8,49c0,0,0.5,4.7,3.7,6.3c0,0-4,2.3-5.3,2
				c0,0,3.9,6.5,12.4,1.7c7.5-4.3,9.4-18.2,13.3-15.8l1.4,1.4L28.9,43.1z"/>
			<g>
				<path fill="#C92D2D" d="M28.9,43.1c-0.7-3.2-4.9-7.8-10.9,1.7C11.8,54.2,6.6,52.9,3.8,49c0,0,0.5,4.7,3.7,6.3c0,0-4,2.3-5.3,2
					c0,0,3.9,6.5,12.4,1.7c7.5-4.3,9.4-18.2,13.3-15.8l1.4,1.4L28.9,43.1z"/>
				<g>
					<path fill="#A01515" d="M6.4,54.6C6.6,54.7,6.8,54.9,7,55L6.4,54.6z"/>
					<path fill="#A01515" d="M28.7,42.5l-1,0.6c0,0,0.1,0,0.1,0.1l1.4,1.4l-0.4-1.5C28.8,42.9,28.8,42.7,28.7,42.5z"/>
					<path fill="#A01515" d="M7.4,55.3L7.4,55.3c-0.5,0.3-4,2.2-5.2,2c0,0,3.9,6.5,12.4,1.7c5.1-2.9,7.6-10.2,9.9-13.9L7.4,55.3z"/>
				</g>
				
					<ellipse transform="matrix(0.8773 -0.4799 0.4799 0.8773 -16.9303 16.3311)" fill="#EF4343" cx="23.5" cy="41.3" rx="2.4" ry="0.9"/>
				
					<ellipse transform="matrix(0.8777 -0.4792 0.4792 0.8777 -18.3516 15.3509)" fill="#EF4343" cx="20.9" cy="43.6" rx="0.6" ry="0.4"/>
			</g>
		</g>
		<g>
			<path fill="#C92D2D" d="M35.1,43.1c0.7-3.2,4.9-7.8,10.9,1.7c6.1,9.5,11.3,8.1,14.1,4.3c0,0-0.5,4.7-3.7,6.3c0,0,4,2.3,5.3,2
				c0,0-3.9,6.5-12.4,1.7c-7.5-4.3-9.4-18.2-13.3-15.8l-1.4,1.4L35.1,43.1z"/>
			<g>
				<path fill="#C92D2D" d="M35.1,43.1c0.7-3.2,4.9-7.8,10.9,1.7c6.1,9.5,11.3,8.1,14.1,4.3c0,0-0.5,4.7-3.7,6.3c0,0,4,2.3,5.3,2
					c0,0-3.9,6.5-12.4,1.7c-7.5-4.3-9.4-18.2-13.3-15.8l-1.4,1.4L35.1,43.1z"/>
				<g>
					<path fill="#A01515" d="M57.6,54.6c-0.2,0.2-0.4,0.3-0.6,0.4L57.6,54.6z"/>
					<path fill="#A01515" d="M35.3,42.5l1,0.6c0,0-0.1,0-0.1,0.1l-1.4,1.4l0.4-1.5C35.2,42.9,35.2,42.7,35.3,42.5z"/>
					<path fill="#A01515" d="M56.6,55.3L56.6,55.3c0.5,0.3,4,2.2,5.2,2c0,0-3.9,6.5-12.4,1.7c-5.1-2.9-7.6-10.2-9.9-13.9L56.6,55.3z
						"/>
				</g>
				
					<ellipse transform="matrix(-0.8773 -0.4799 0.4799 -0.8773 56.267 96.9403)" fill="#EF4343" cx="40.5" cy="41.3" rx="2.4" ry="0.9"/>
				
					<ellipse transform="matrix(-0.8777 -0.4792 0.4792 -0.8777 60.0248 102.5754)" fill="#EF4343" cx="43.1" cy="43.6" rx="0.6" ry="0.4"/>
			</g>
		</g>
	</g>
	<g>
		<g>
			<g>
				<path fill="#08BF9C" d="M25.4,30.7c0,0-1.7-1.8,0.3-4.6c2-2.7,6.3,5.1,6.3,5.1s-3.7,26-9,20.8c-6.2-6.1-10.8-0.8-10.8-0.8
					l1.7-2.6l-2.4-0.2c0,0,4.2-3.5,8.1-1.4c5.6,3.1,7.3,0.6,7.9-2.7c0.6-3.2,0.3-10.5,0.3-10.5s-3.5,2.2-4,0.7s-0.4-0.9-0.3-1.8
					C23.5,31.8,25.4,30.7,25.4,30.7z"/>
			</g>
			<g>
				<path fill="#08BF9C" d="M38.6,30.7c0,0,1.7-1.8-0.3-4.6c-2-2.7-6.3,5.1-6.3,5.1s3.7,26,9,20.8c6.2-6.1,10.8-0.8,10.8-0.8
					l-1.7-2.6l2.4-0.2c0,0-4.2-3.5-8.1-1.4c-5.6,3.1-7.3,0.6-7.9-2.7s-0.3-10.5-0.3-10.5s3.5,2.2,4,0.7c0.5-1.5,0.4-0.9,0.3-1.8
					C40.5,31.8,38.6,30.7,38.6,30.7z"/>
			</g>
		</g>
		<path fill="#FFD524" d="M42.7,50.8c0,4.3-5.5,7.7-10.7,7.7l0,0c-5.2,0-10.7-3.5-10.7-7.7L22.6,39c0-4.3,4.2-7.7,9.3-7.7l0,0
			c5.2,0,9.4,3.5,9.4,7.7L42.7,50.8z"/>
		<path fill="#EFC40F" d="M32,58.5L32,58.5c5.2,0,10.7-3.5,10.7-7.7L41.3,39c0-4.3-4.2-7.7-9.4-7.7l0,0"/>
		<path fill="#FFD524" d="M48.9,55.6c0,2.9-7.6,3.2-16.9,3.2c-9.3,0-16.9-0.4-16.9-3.2S22.7,47,32,47C41.3,47,48.9,52.7,48.9,55.6z"
			/>
		<path fill="#EFC40F" d="M32,47c9.3,0,16.9,5.7,16.9,8.6s-7.6,3.2-16.9,3.2"/>
		<path fill="#895811" d="M48.5,56.4c0,2.8-7.4,3.2-16.5,3.2c-9.1,0-16.5-0.3-16.5-3.2c0-2.8,7.4-3.2,16.5-3.2
			C41.1,53.2,48.5,53.6,48.5,56.4z"/>
		<path fill="#BC730A" d="M32,59.5c-9.1,0-16.5-0.3-16.5-3.2c0-2.8,7.4-3.2,16.5-3.2"/>
		<circle fill="#FFD524" cx="32" cy="27" r="2.9"/>
		<path fill="#EFC40F" d="M29.9,24.9c1.2-1.1,3-1.1,4.2,0c1.1,1.1,1.1,3,0,4.2"/>
		
			<ellipse transform="matrix(0.8426 -0.5385 0.5385 0.8426 -14.4569 20.3193)" fill="#FFEB99" cx="27.5" cy="34.9" rx="3.6" ry="1.2"/>
		<g>
			<path fill="#FFEB99" d="M27.4,48.2c0,0.4-0.3,0.7-0.7,0.7c-0.4,0-0.7-0.3-0.7-0.7c0-0.4,0.3-0.7,0.7-0.7
				C27.1,47.5,27.4,47.8,27.4,48.2z"/>
			<circle fill="#FFEB99" cx="30.2" cy="48.2" r="0.7"/>
			<circle fill="#FFEB99" cx="33.8" cy="48.2" r="0.7"/>
			<circle fill="#FFEB99" cx="37.3" cy="48.2" r="0.7"/>
		</g>
		<path fill="#FFD524" d="M34.1,59.8c0,2.6-0.6,3.4-2.1,3.4c-1.5,0-2.1-0.8-2.1-3.4s0.6-4.7,2.1-4.7C33.5,55.1,34.1,57.2,34.1,59.8z
			"/>
		<path fill="#EFC40F" d="M32,55.1c1.5,0,2.1,2.1,2.1,4.7s-0.6,3.4-2.1,3.4"/>
	</g>
</g>
</svg>
