<?xml version="1.0" encoding="utf-8"?>
<!-- Generator: Adobe Illustrator 16.0.0, SVG Export Plug-In . SVG Version: 6.00 Build 0)  -->
<!DOCTYPE svg PUBLIC "-//W3C//DTD SVG 1.1//EN" "http://www.w3.org/Graphics/SVG/1.1/DTD/svg11.dtd">
<svg version="1.1" id="Layer_1" xmlns="http://www.w3.org/2000/svg" xmlns:xlink="http://www.w3.org/1999/xlink" x="0px" y="0px"
	 width="64px" height="64px" viewBox="0 0 64 64" enable-background="new 0 0 64 64" xml:space="preserve">
<g>
	<g>
		<g>
			<g>
				<path fill="#D61E69" d="M3.5,40c2,11,14,19.6,28.5,19.6S58.5,51.1,60.5,40H3.5z"/>
			</g>
		</g>
		<g>
			<g>
				<path fill="#FFD96E" d="M57.9,33.8c0,13.8-11.6,18.4-25.9,18.4S6.1,47.6,6.1,33.8C6.1,20.1,17.7,4.4,32,4.4S57.9,20.1,57.9,33.8
					z"/>
			</g>
			<g>
				<path fill="#F7C937" d="M32,4.4c14.3,0,25.9,15.7,25.9,29.4c0,13.8-11.6,18.4-25.9,18.4"/>
			</g>
			<g>
				<path fill="#F7EFAA" d="M11.8,33.8c-2.2-0.3-2.5-4.5-0.9-9.4c1.7-4.9,4.8-8.6,7-8.3"/>
			</g>
			<g>
				<path fill="#F7EFAA" d="M19.2,15c-1.2-0.3-1.7-1.5-1-2.8c0.7-1.3,2.2-2.1,3.4-1.9"/>
			</g>
			<g>
				<polygon fill="#F7C937" points="45.2,44.6 11.1,50.1 7.8,41.6 41.9,36 				"/>
			</g>
		</g>
		<g>
			<path fill="#AF045A" d="M14.1,54.6h35.8c5.6-3.5,9.5-8.7,10.6-14.6h-57C4.6,45.9,8.5,51,14.1,54.6z"/>
		</g>
		<g>
			<path fill="#F77FC7" d="M63.5,40.1c0,1-1.1,1.8-2.5,1.8H3c-1.4,0-2.5-0.8-2.5-1.8l0,0c0-1,1.1-1.8,2.5-1.8h58
				C62.4,38.3,63.5,39.1,63.5,40.1L63.5,40.1z"/>
		</g>
		<g>
			<path fill="#E252AF" d="M3,38.3h58c1.4,0,2.5,0.8,2.5,1.8l0,0c0,1-1.1,1.8-2.5,1.8"/>
		</g>
		<g>
			<g>
				<g>
					<path fill="#F77FC7" d="M15.4,48.3c-2.3,1.7-4.5,2.8-5,2.5c-0.4-0.3,1.1-1.9,3.4-3.6c2.3-1.7,4.5-2.8,5-2.5
						C19.2,45,17.7,46.6,15.4,48.3z"/>
				</g>
				<g>
					<path fill="#F77FC7" d="M13.8,48.3c2.3,1.7,4.5,2.8,5,2.5c0.4-0.3-1.1-1.9-3.4-3.6c-2.3-1.7-4.5-2.8-5-2.5
						C10,45,11.5,46.6,13.8,48.3z"/>
				</g>
			</g>
			<g>
				<g>
					<path fill="#F77FC7" d="M27,48.3c-2.3,1.7-4.5,2.8-5,2.5c-0.4-0.3,1.1-1.9,3.4-3.6c2.3-1.7,4.5-2.8,5-2.5
						C30.8,45,29.3,46.6,27,48.3z"/>
				</g>
				<g>
					<path fill="#F77FC7" d="M25.4,48.3c2.3,1.7,4.5,2.8,5,2.5c0.4-0.3-1.1-1.9-3.4-3.6c-2.3-1.7-4.5-2.8-5-2.5S23.1,46.6,25.4,48.3
						z"/>
				</g>
			</g>
			<g>
				<g>
					<path fill="#F77FC7" d="M38.6,48.3c-2.3,1.7-4.5,2.8-5,2.5c-0.4-0.3,1.1-1.9,3.4-3.6c2.3-1.7,4.5-2.8,5-2.5
						C42.4,45,40.9,46.6,38.6,48.3z"/>
				</g>
				<g>
					<path fill="#F77FC7" d="M37,48.3c2.3,1.7,4.5,2.8,5,2.5c0.4-0.3-1.1-1.9-3.4-3.6c-2.3-1.7-4.5-2.8-5-2.5
						C33.2,45,34.7,46.6,37,48.3z"/>
				</g>
			</g>
			<g>
				<g>
					<path fill="#F77FC7" d="M50.2,48.3c-2.3,1.7-4.5,2.8-5,2.5c-0.4-0.3,1.1-1.9,3.4-3.6c2.3-1.7,4.5-2.8,5-2.5
						C54,45,52.5,46.6,50.2,48.3z"/>
				</g>
				<g>
					<path fill="#F77FC7" d="M48.6,48.3c2.3,1.7,4.5,2.8,5,2.5c0.4-0.3-1.1-1.9-3.4-3.6c-2.3-1.7-4.5-2.8-5-2.5
						C44.8,45,46.3,46.6,48.6,48.3z"/>
				</g>
			</g>
		</g>
		<g>
			<path fill="#F77FC7" d="M18.9,57.1c3.9,1.6,8.4,2.5,13.1,2.5c4.7,0,9.2-0.9,13.1-2.5H18.9z"/>
		</g>
		<g>
			<path fill="#FFCCED" d="M15.7,39.9c0,0.5-0.6,0.9-1.2,0.9H3c-0.7,0-1.2-0.4-1.2-0.9l0,0C1.8,39.4,2.4,39,3,39h11.4
				C15.1,39,15.7,39.4,15.7,39.9L15.7,39.9z"/>
		</g>
		<g>
			<g>
				<ellipse fill="#FFCCED" cx="20.4" cy="47.6" rx="0.7" ry="0.5"/>
			</g>
			<g>
				<ellipse fill="#FFCCED" cx="32" cy="47.6" rx="0.7" ry="0.5"/>
			</g>
			<g>
				<path fill="#FFCCED" d="M44.3,47.6c0,0.3-0.3,0.5-0.7,0.5c-0.4,0-0.7-0.2-0.7-0.5s0.3-0.5,0.7-0.5C44,47.1,44.3,47.3,44.3,47.6z
					"/>
			</g>
		</g>
	</g>
	<g>
		<g>
			<g>
				<circle fill="#F7C937" cx="21.7" cy="29.1" r="3.2"/>
			</g>
			<g>
				<circle fill="#FFD96E" cx="42.3" cy="29.1" r="3.2"/>
			</g>
			<g>
				<circle fill="#1E4784" cx="21.7" cy="28.2" r="3.2"/>
			</g>
			<g>
				<path fill="#00233F" d="M21.7,25.1c1.7,0,3.2,1.4,3.2,3.2s-1.4,3.2-3.2,3.2"/>
			</g>
			<g>
				<circle fill="#1E4784" cx="42.3" cy="28.2" r="3.2"/>
			</g>
			<g>
				<path fill="#00233F" d="M42.3,25.1c1.7,0,3.2,1.4,3.2,3.2s-1.4,3.2-3.2,3.2"/>
			</g>
		</g>
		<g>
			<g>
				<g>
					<g>
						<g>
							<g>
								<path fill="#AF045A" d="M24.7,21.2c-0.3,1.2-1.5,0.3-3.3,0c-1.8-0.4-3.3,0-3-1.3c0.3-1.2,1.9-2,3.6-1.6
									C23.7,18.7,25,20,24.7,21.2z"/>
							</g>
						</g>
					</g>
				</g>
			</g>
		</g>
		<g>
			<g>
				<g>
					<g>
						<g>
							<g>
								<path fill="#AF045A" d="M39.1,23.6c0.3,1.2,1.5,0.3,3.3,0c1.8-0.4,3.3,0,3-1.3c-0.3-1.2-1.9-2-3.6-1.6
									C40,21,38.8,22.3,39.1,23.6z"/>
							</g>
						</g>
					</g>
				</g>
			</g>
		</g>
		<g>
			<g>
				<path fill="#F7C937" d="M27.9,34.2c0,1.2-3.5,0.6-7.7,0.6c-4.3,0-7.7,0.6-7.7-0.6c0-1.2,3.5-2.2,7.7-2.2
					C24.4,32,27.9,33,27.9,34.2z"/>
			</g>
			<g>
				<path fill="#FFD96E" d="M51.6,34.2c0,1.2-3.5,0.6-7.7,0.6s-7.7,0.6-7.7-0.6c0-1.2,3.5-2.2,7.7-2.2S51.6,33,51.6,34.2z"/>
			</g>
		</g>
	</g>
</g>
</svg>
