<?xml version="1.0" encoding="utf-8"?>
<!-- Generator: Adobe Illustrator 16.0.0, SVG Export Plug-In . SVG Version: 6.00 Build 0)  -->
<!DOCTYPE svg PUBLIC "-//W3C//DTD SVG 1.1//EN" "http://www.w3.org/Graphics/SVG/1.1/DTD/svg11.dtd">
<svg version="1.1" id="Layer_1" xmlns="http://www.w3.org/2000/svg" xmlns:xlink="http://www.w3.org/1999/xlink" x="0px" y="0px"
	 width="64px" height="64px" viewBox="0 0 64 64" enable-background="new 0 0 64 64" xml:space="preserve">
<g>
	<path fill="#FCC03A" d="M58.7,34.7c1.7,0,3.3,0.6,4.3,1.6v-12c0-2.9-2.3-5.3-5.1-5.3H46.1c0.9-1,1.4-2.5,1.4-4
		c0-3.6-2.9-6.4-6.5-6.4s-6.5,2.8-6.5,6.4c0,1.5,0.5,3,1.4,4H24.2c-2.9,0-5.2,2.4-5.2,5.3v12.5c-1-1.3-2.9-2.1-4.8-2.1
		c-3.6,0-6.4,2.9-6.4,6.5s2.9,6.5,6.4,6.5c1.9,0,3.8-0.8,4.8-2.1v12.5c0,2.9,2.4,5.1,5.2,5.1h12.3c-1.2-1-1.9-2.7-1.9-4.5
		c0-3.6,2.9-6.4,6.5-6.4s6.5,2.8,6.5,6.4c0,1.8-0.7,3.5-1.9,4.5h12.3c2.9,0,5.1-2.2,5.1-5.1v-12c-1,1-2.6,1.6-4.3,1.6
		c-3.6,0-6.5-2.9-6.5-6.5S55.2,34.7,58.7,34.7z"/>
	<path fill="#EAAA0A" d="M19,45v12.9c0,2.9,2.4,5.1,5.2,5.1h12.3c-1.2-1-1.9-2.7-1.9-4.5c0-3.6,2.9-6.4,6.5-6.4s6.5,2.8,6.5,6.4
		c0,1.8-0.7,3.5-1.9,4.5h12.3c2.9,0,5.1-2.2,5.1-5.1v-12c-1,1-2.6,1.6-4.3,1.6c-3.6,0-6.4-2.9-6.4-6.5s2.9-6.5,6.4-6.5
		c1.7,0,3.3,0.6,4.3,1.6v-12c0-2.9-2.3-5.3-5.1-5.3H46"/>
	<path fill="#E8930C" d="M24,63h12.5c-1.2-1-1.9-2.7-1.9-4.5c0-3.6,2.9-6.4,6.5-6.4s6.5,2.8,6.5,6.4c0,1.8-0.7,3.5-1.9,4.5h12.3
		c2.9,0,5.1-2.2,5.1-5.1v-12c-1,1-2.6,1.6-4.3,1.6c-3.6,0-6.4-2.9-6.4-6.5s2.9-6.5,6.4-6.5c1.7,0,3.3,0.6,4.3,1.6V24"/>
	<g>
		<g>
			<g>
				<path fill="#DBD8C3" d="M28,16c0,0.4-0.4,0.6-1,0.6l0,0c-0.6,0-1-0.3-1-0.6V8.3c0-0.4,0.4-0.6,1-0.6l0,0c0.6,0,1,0.3,1,0.6V16z"
					/>
				<path fill="#DBD8C3" d="M23,9.2c0,0.4-0.4,0.6-1,0.6l0,0c-0.6,0-1-0.3-1-0.6V1.5c0-0.4,0.4-0.6,1-0.6l0,0c0.6,0,1,0.3,1,0.6V9.2
					z"/>
			</g>
			<g>
				<path fill="#DBD8C3" d="M59,16c0,0.4-0.4,0.6-1,0.6l0,0c-0.6,0-1-0.3-1-0.6V8.3c0-0.4,0.4-0.6,1-0.6l0,0c0.6,0,1,0.3,1,0.6V16z"
					/>
				<path fill="#DBD8C3" d="M54,9.2c0,0.4-0.4,0.6-1,0.6l0,0c-0.6,0-1-0.3-1-0.6V1.5c0-0.4,0.4-0.6,1-0.6l0,0c0.6,0,1,0.3,1,0.6V9.2
					z"/>
			</g>
		</g>
		<g>
			<g>
				<path fill="#DBD8C3" d="M16.1,53c0.4,0,0.6,0.4,0.6,1l0,0c0,0.6-0.3,1-0.6,1H8.4c-0.4,0-0.6-0.4-0.6-1l0,0c0-0.6,0.3-1,0.6-1
					H16.1z"/>
				<path fill="#DBD8C3" d="M9.2,57c0.4,0,0.6,0.4,0.6,1l0,0c0,0.6-0.3,1-0.6,1H1.6C1.2,59,1,58.6,1,58l0,0c0-0.6,0.3-1,0.6-1H9.2z"
					/>
			</g>
			<g>
				<path fill="#DBD8C3" d="M16.1,22c0.4,0,0.6,0.4,0.6,1l0,0c0,0.6-0.3,1-0.6,1H8.4c-0.4,0-0.6-0.4-0.6-1l0,0c0-0.6,0.3-1,0.6-1
					H16.1z"/>
				<path fill="#DBD8C3" d="M9.2,27c0.4,0,0.6,0.4,0.6,1l0,0c0,0.6-0.3,1-0.6,1H1.6C1.2,29,1,28.6,1,28l0,0c0-0.6,0.3-1,0.6-1H9.2z"
					/>
			</g>
		</g>
	</g>
</g>
</svg>
