<?xml version="1.0" encoding="utf-8"?>
<!-- Generator: Adobe Illustrator 16.0.0, SVG Export Plug-In . SVG Version: 6.00 Build 0)  -->
<!DOCTYPE svg PUBLIC "-//W3C//DTD SVG 1.1//EN" "http://www.w3.org/Graphics/SVG/1.1/DTD/svg11.dtd">
<svg version="1.1" id="Layer_1" xmlns="http://www.w3.org/2000/svg" xmlns:xlink="http://www.w3.org/1999/xlink" x="0px" y="0px"
	 width="65px" height="65px" viewBox="0 0 65 65" enable-background="new 0 0 65 65" xml:space="preserve">
<g>
	<g>
		<g>
			<path fill="#41A500" d="M44.498,46.446c0,2.476-2.008,15.827-4.486,15.827c-2.475,0-4.482-13.352-4.482-15.827
				s2.008-4.484,4.482-4.484C42.49,41.962,44.498,43.971,44.498,46.446z"/>
			<path fill="#41A500" d="M29.473,46.446c0,2.476-2.008,15.827-4.486,15.827c-2.475,0-4.482-13.352-4.482-15.827
				s2.008-4.484,4.482-4.484C27.465,41.962,29.473,43.971,29.473,46.446z"/>
			<g>
				<g>
					<path fill="#54C911" d="M45.15,40.521c0,16.038-5.662,10.697-12.65,10.697c-6.986,0-12.65,5.341-12.65-10.697
						c0-9.17,5.666-16.603,12.65-16.603C39.486,23.919,45.15,31.352,45.15,40.521z"/>
					<g>
						<path fill="#A8B2BA" d="M21.562,54.085c0.699,3.466,1.691,6.945,2.814,7.916h1.219c1.126-0.971,2.119-4.45,2.817-7.916H21.562
							z"/>
						<path fill="#A8B2BA" d="M36.588,54.085c0.699,3.466,1.691,6.945,2.814,7.916h1.219c1.126-0.971,2.119-4.45,2.817-7.916H36.588
							z"/>
					</g>
					<g>
						<path fill="#8D97A0" d="M30.033,62.354c0,1.896-2.26,2.146-5.045,2.146s-5.045-0.249-5.045-2.146
							c0-1.897,2.26-4.508,5.045-4.508S30.033,60.457,30.033,62.354z"/>
						<path fill="#79848C" d="M30.033,62.354c0,1.896-2.26,2.146-5.045,2.146s-5.045-0.249-5.045-2.146"/>
					</g>
					<g>
						<path fill="#8D97A0" d="M45.059,62.354c0,1.896-2.26,2.146-5.045,2.146s-5.045-0.249-5.045-2.146
							c0-1.897,2.26-4.508,5.045-4.508S45.059,60.457,45.059,62.354z"/>
						<path fill="#79848C" d="M45.059,62.354c0,1.896-2.26,2.146-5.045,2.146s-5.045-0.249-5.045-2.146"/>
					</g>
					<g>
						<path fill="#54C911" d="M31.105,26.369c1.273,1.432,0.465,4.228-1.805,6.249c-2.27,2.018-14.475,10.794-15.75,9.365
							c-1.271-1.434,8.873-12.532,11.143-14.55C26.961,25.415,29.832,24.938,31.105,26.369z"/>
						<path fill="#54C911" d="M33.895,26.369c-1.273,1.432-0.465,4.228,1.805,6.249c2.27,2.018,14.475,10.794,15.75,9.365
							c1.271-1.434-8.873-12.532-11.143-14.55C38.039,25.415,35.168,24.938,33.895,26.369z"/>
						<path fill="#41A500" d="M22.474,30.427c2.772,1.404,6.245,2.118,10.028,2.118c3.781,0,7.254-0.714,10.025-2.118
							c-2.312-3.95-5.938-6.508-10.027-6.508C28.412,23.919,24.785,26.476,22.474,30.427z"/>
						<path fill="#8D97A0" d="M32.5,23.919c-3.457,0-6.58,1.833-8.861,4.787c2.555,1.053,5.592,1.589,8.863,1.589
							c3.27,0,6.307-0.536,8.861-1.589C39.082,25.753,35.959,23.919,32.5,23.919z"/>
					</g>
					<g>
						<path fill="#54C911" d="M48.871,16.275c0,7.999-7.33,12.02-16.369,12.02c-9.041,0-16.373-4.021-16.373-12.02
							c0-8.001,7.332-15.775,16.373-15.775C41.541,0.5,48.871,8.274,48.871,16.275z"/>
						<path fill="#41A500" d="M48.871,16.275c0,7.999-7.33,12.02-16.369,12.02c-9.041,0-16.373-4.021-16.373-12.02"/>
					</g>
				</g>
			</g>
			<path fill="#B6C3CC" d="M36,4.835V0.903C34.872,0.646,33.703,0.5,32.502,0.5c-1.203,0-2.373,0.146-3.502,0.403v3.932
				c0,1.104,0.896,2,2,2h3C35.104,6.835,36,5.938,36,4.835z"/>
			<path fill="#A8B2BA" d="M29,4.835c0,1.104,0.896,2,2,2h3c1.104,0,2-0.896,2-2V0.903C34.872,0.646,33.703,0.5,32.502,0.5"/>
			<path fill="#B6C3CC" d="M16.113,37.03c-1.823,2.377-3.057,4.396-2.562,4.953c0.485,0.544,2.557-0.393,5.059-1.871l0.293-0.293
				L16.113,37.03z"/>
			<path fill="#B6C3CC" d="M46.004,39.882c2.674,1.609,4.936,2.674,5.445,2.102c0.496-0.559-0.746-2.587-2.576-4.971L46.004,39.882z
				"/>
		</g>
	</g>
	
		<rect x="26.25" y="10.916" transform="matrix(0.7071 -0.7071 0.7071 0.7071 -2.6192 28.0088)" fill="#363B3F" width="12.5" height="12.5"/>
	
		<rect x="28.394" y="35.905" transform="matrix(0.7072 -0.707 0.707 0.7072 -18.7717 34.6919)" fill="#41A500" width="8.213" height="8.212"/>
	<polygon fill="#171A1C" points="23.661,17.166 32.5,26.005 41.339,17.166 40.448,16.275 24.551,16.275 	"/>
</g>
</svg>
