<?xml version="1.0" encoding="utf-8"?>
<!-- Generator: Adobe Illustrator 16.0.0, SVG Export Plug-In . SVG Version: 6.00 Build 0)  -->
<!DOCTYPE svg PUBLIC "-//W3C//DTD SVG 1.1//EN" "http://www.w3.org/Graphics/SVG/1.1/DTD/svg11.dtd">
<svg version="1.1" xmlns="http://www.w3.org/2000/svg" xmlns:xlink="http://www.w3.org/1999/xlink" x="0px" y="0px" width="65px"
	 height="65px" viewBox="0 0 65 65" enable-background="new 0 0 65 65" xml:space="preserve">
<g id="Layer_1">
	<g>
		<g>
			<g>
				<line fill="#B1BCB8" x1="4.167" y1="60.833" x2="46.667" y2="18.335"/>
			</g>
			<g>
				<path fill="#0071AA" d="M4.167,63.333c-0.64,0-1.279-0.244-1.768-0.732c-0.977-0.977-0.977-2.56,0-3.535l42.5-42.498
					c0.977-0.977,2.559-0.977,3.535,0s0.977,2.56,0,3.535l-42.5,42.498C5.446,63.089,4.808,63.333,4.167,63.333z"/>
			</g>
		</g>
		<g>
			<g>
				<polyline fill="#32F9B1" points="33.245,4.167 60.833,4.167 60.833,31.755 				"/>
			</g>
			<g>
				<polyline fill="#2FD4EA" points="48.86,19.781 60.833,4.167 60.833,31.755 				"/>
			</g>
			<g>
				<path fill="#0071AA" d="M60.833,34.255c-1.381,0-2.5-1.119-2.5-2.5V6.667H33.245c-1.38,0-2.5-1.119-2.5-2.5s1.12-2.5,2.5-2.5
					h27.588c1.381,0,2.5,1.119,2.5,2.5v27.588C63.333,33.136,62.214,34.255,60.833,34.255z"/>
			</g>
		</g>
		<g>
			<g>
				<line fill="#32F9B1" x1="19.288" y1="25.72" x2="39.279" y2="45.712"/>
			</g>
			<g>
				<path fill="#0071AA" d="M39.279,48.212c-0.64,0-1.28-0.244-1.769-0.732l-19.99-19.992c-0.977-0.977-0.977-2.56,0-3.535
					c0.977-0.977,2.559-0.977,3.535,0l19.99,19.992c0.978,0.977,0.978,2.56,0,3.535C40.56,47.968,39.919,48.212,39.279,48.212z"/>
			</g>
		</g>
	</g>
</g>
<g id="nyt_x5F_exporter_x5F_info" display="none">
</g>
</svg>
