<?xml version="1.0" encoding="utf-8"?>
<!-- Generator: Adobe Illustrator 16.0.0, SVG Export Plug-In . SVG Version: 6.00 Build 0)  -->
<!DOCTYPE svg PUBLIC "-//W3C//DTD SVG 1.1//EN" "http://www.w3.org/Graphics/SVG/1.1/DTD/svg11.dtd">
<svg version="1.1" id="Layer_1" xmlns="http://www.w3.org/2000/svg" xmlns:xlink="http://www.w3.org/1999/xlink" x="0px" y="0px"
	 width="64px" height="64px" viewBox="0 0 64 64" enable-background="new 0 0 64 64" xml:space="preserve">
<g>
	<g>
		<circle fill="#CE1906" cx="32" cy="32" r="30.5"/>
		<path fill="#770606" d="M8.1,13.1C8.1,13.1,8.2,13.1,8.1,13.1C5,17,2.8,21.7,2,26.9L21,28l6.2-0.2l-0.1-1.7
			C27.2,26.2-0.1,26.6,8.1,13.1z"/>
		<path fill="#770606" d="M32,1.5c16.8,0,30.5,13.6,30.5,30.5c0,16.8-13.6,30.5-30.5,30.5"/>
		<path fill="#CE1906" d="M55.9,13.1C55.8,13.1,55.8,13.1,55.9,13.1C59,17,61.2,21.7,62,26.9L42.9,28l-6.2-0.2l0.1-1.7
			C36.8,26.2,64.1,26.6,55.9,13.1z"/>
		<path fill="#CE1906" d="M36.5,31.1c0,2.8-1.6,4.9-4.4,4.9l0,0c-2.8,0-5.2-2.2-5.2-5V20c0-2.8,2.4-5,5.2-5l0,0
			c2.8,0,4.5,2.4,4.5,5.2L36.5,31.1z"/>
		<path fill="#770606" d="M32,14.6L32,14.6c2.8,0,5,2.6,5,5.4v11c0,2.8-2,5.3-5,5.5l0,0"/>
		<g>
			<path fill="#0A6293" d="M31.5,59c-13.3,0-24-10.8-24-24"/>
			<path fill="#CE1906" d="M32.5,59c13.3,0,24-10.8,24-24"/>
		</g>
	</g>
	<g>
		<g>
			<path fill="#F2F2B8" d="M57.8,26.4c-5.4,0.3-14.9,0.5-25.8,0.5s-20.4-0.2-25.8-0.5c-3,0.2-4.7,0.4-4.7,0.6
				c0,0.6,13.6,1.1,30.5,1.1s30.5-0.5,30.5-1.1C62.5,26.8,60.7,26.6,57.8,26.4z"/>
			<path fill="#F2F2B8" d="M57.8,33.2c-5.4,0.3-14.9,0.5-25.8,0.5s-20.4-0.2-25.8-0.5c-3,0.2-4.7,0.4-4.7,0.6
				c0,0.6,13.6,1.1,30.5,1.1s30.5-0.5,30.5-1.1C62.5,33.5,60.7,33.3,57.8,33.2z"/>
			<g>
				<path fill="#FFFDE1" d="M18,5v13.5c0,2.9,2.1,5.2,5,5.2c2.9,0,5-2.4,5-5.2V1.8C25,2.2,21,3.3,18,5z"/>
				<path fill="#F2F2B8" d="M18,18.4c0,2.9,2.1,5.2,5,5.2c2.9,0,5-2.4,5-5.2V2"/>
				<path fill="#FFFDE1" d="M36,1.8v16.7c0,2.9,2.1,5.2,5,5.2c2.9,0,5-2.4,5-5.2V5C43,3.3,39,2.2,36,1.8z"/>
				<path fill="#F2F2B8" d="M36,2v16.4c0,2.9,2.1,5.2,5,5.2c2.9,0,5-2.4,5-5.2"/>
			</g>
			<g>
				<g>
					<circle fill="#F2F2B8" cx="9.7" cy="30.5" r="0.6"/>
					<circle fill="#F2F2B8" cx="14.2" cy="30.5" r="0.6"/>
					<circle fill="#F2F2B8" cx="18.7" cy="30.5" r="0.6"/>
				</g>
				<g>
					<circle fill="#F2F2B8" cx="45.3" cy="30.5" r="0.6"/>
					<circle fill="#F2F2B8" cx="49.8" cy="30.5" r="0.6"/>
					<circle fill="#F2F2B8" cx="54.3" cy="30.5" r="0.6"/>
				</g>
			</g>
			<g>
				<path fill="#F78A5E" d="M31.5,59c-13.3,0-24-10.8-24-24"/>
			</g>
		</g>
		<circle fill="#F2F2B8" cx="32" cy="27.9" r="3.4"/>
		<path fill="#D1CF93" d="M28.6,27.9c0-1.9,1.5-3.4,3.4-3.4s3.4,1.5,3.4,3.4"/>
	</g>
	<g>
		<circle fill="#770606" cx="23.2" cy="18.1" r="2.1"/>
		<circle fill="#770606" cx="40.8" cy="18.1" r="2.1"/>
	</g>
</g>
</svg>
