<?xml version="1.0" encoding="utf-8"?>
<!-- Generator: Adobe Illustrator 16.0.0, SVG Export Plug-In . SVG Version: 6.00 Build 0)  -->
<!DOCTYPE svg PUBLIC "-//W3C//DTD SVG 1.1//EN" "http://www.w3.org/Graphics/SVG/1.1/DTD/svg11.dtd">
<svg version="1.1" id="Layer_1" xmlns="http://www.w3.org/2000/svg" xmlns:xlink="http://www.w3.org/1999/xlink" x="0px" y="0px"
	 width="64px" height="64px" viewBox="0 0 64 64" enable-background="new 0 0 64 64" xml:space="preserve">
<g>
	<g>
		<g>
			<g>
				<path fill="#F7910B" d="M62.3,37.5C62.3,50.5,50.4,61,32,61C13.6,61,1.7,50.5,1.7,37.5S13.6,5,32,5C50.4,5,62.3,24.5,62.3,37.5z
					"/>
			</g>
			<g>
				<path fill="#F7910B" d="M62.3,37.5C62.3,50.5,50.4,57,32,57C13.6,57,1.7,50.5,1.7,37.5S13.6,3,32,3C50.4,3,62.3,24.5,62.3,37.5z
					"/>
			</g>
			<g>
				<path fill="#F9A908" d="M32,3c18.4,0,30.3,21.5,30.3,34.5S50.4,57,32,57"/>
			</g>
			<g>
				<path fill="#F9A908" d="M62.3,37.5C62.3,50.5,50.4,57,32,57C13.6,57,1.7,50.5,1.7,37.5S13.6,5,32,5C50.4,5,62.3,24.5,62.3,37.5z
					"/>
			</g>
			<g>
				<path fill="#F9C55D" d="M1.7,37.5C1.7,24.5,13.6,5,32,5"/>
			</g>
			<g>
				<path fill="#F7910B" d="M32,5c18.4,0,30.3,19.5,30.3,32.5S50.4,61,32,61"/>
			</g>
			<g>
				<path fill="#EA7103" d="M32,5c18.4,0,30.3,19.5,30.3,32.5"/>
			</g>
			<g>
				<circle fill="#F7910B" cx="10.3" cy="34.5" r="0.6"/>
			</g>
			<g>
				<circle fill="#F7910B" cx="5.8" cy="36.5" r="1.1"/>
			</g>
			<g>
				<circle fill="#F7910B" cx="8.8" cy="32.5" r="0.2"/>
			</g>
			<g>
				<circle fill="#F7910B" cx="13.4" cy="34.3" r="0.2"/>
			</g>
			<g>
				<circle fill="#F9A908" cx="52.6" cy="34.8" r="0.8"/>
			</g>
			<g>
				<circle fill="#F9A908" cx="55.1" cy="36.2" r="0.2"/>
			</g>
			<g>
				<circle fill="#F9A908" cx="49.8" cy="27.4" r="0.3"/>
			</g>
			<g>
				<circle fill="#F9A908" cx="49.3" cy="39" r="1.3"/>
			</g>
			<g>
				<circle fill="#F9A908" cx="56.5" cy="39.1" r="0.6"/>
			</g>
			<g>
				<circle fill="#F7910B" cx="9.3" cy="38.5" r="0.5"/>
			</g>
			<g>
				<circle fill="#F7910B" cx="10.1" cy="30.1" r="0.4"/>
			</g>
			<g>
				<circle fill="#F9A908" cx="4.8" cy="16.3" r="1.1"/>
			</g>
			<g>
				<circle fill="#F9A908" cx="8" cy="12.8" r="0.6"/>
			</g>
			<g>
				<circle fill="#F9A908" cx="59.2" cy="18.7" r="0.2"/>
			</g>
			<g>
				<circle fill="#F9A908" cx="58.4" cy="15.8" r="0.8"/>
			</g>
			<g>
				<circle fill="#F9A908" cx="61" cy="16.3" r="0.5"/>
			</g>
			<g>
				<circle fill="#F9A908" cx="6" cy="19.3" r="0.6"/>
			</g>
			<g>
				<path fill="#F7910B" d="M39.4,47.7c0,2.6-3.3,7.2-7.4,7.2c-4.1,0-7.4-4.6-7.4-7.2"/>
			</g>
			<g>
				<g>
					<circle fill="#D87703" cx="20.6" cy="21.3" r="3.5"/>
				</g>
				<g>
					<path fill="#D87703" d="M46.9,21.3c0,1.9-1.6,3.5-3.5,3.5c-1.9,0-3.5-1.6-3.5-3.5c0-1.9,1.6-3.5,3.5-3.5
						C45.4,17.8,46.9,19.4,46.9,21.3z"/>
				</g>
				<g>
					<circle fill="#1E4784" cx="20.6" cy="20.3" r="3.5"/>
				</g>
				<g>
					<path fill="#00233F" d="M20.6,16.8c1.9,0,3.5,1.6,3.5,3.5s-1.6,3.5-3.5,3.5"/>
				</g>
				<g>
					<path fill="#1E4784" d="M46.9,20.3c0,1.9-1.6,3.5-3.5,3.5c-1.9,0-3.5-1.6-3.5-3.5s1.6-3.5,3.5-3.5
						C45.4,16.8,46.9,18.4,46.9,20.3z"/>
				</g>
				<g>
					<path fill="#00233F" d="M43.4,16.8c1.9,0,3.5,1.6,3.5,3.5s-1.6,3.5-3.5,3.5"/>
				</g>
				<g>
					<path fill="#F9A908" d="M16.5,19.6c0-2.3,1.8-5.1,4.1-5.1c2.3,0,4.1,2.8,4.1,5.1"/>
				</g>
				<g>
					<path fill="#F7910B" d="M39.3,19.6c0-2.3,1.8-5.1,4.1-5.1c2.3,0,4.1,2.8,4.1,5.1"/>
				</g>
			</g>
			<g>
				<g>
					<path fill="#F9C55D" d="M27.8,26.1c0,1.2-3.5,0.7-7.8,0.7c-4.3,0-7.8,0.6-7.8-0.7s3.5-2.2,7.8-2.2
						C24.3,23.9,27.8,24.9,27.8,26.1z"/>
				</g>
				<g>
					<path fill="#F9A908" d="M51.8,26.1c0,1.2-3.5,0.7-7.8,0.7s-7.8,0.6-7.8-0.7s3.5-2.2,7.8-2.2S51.8,24.9,51.8,26.1z"/>
				</g>
			</g>
			<g>
				<g>
					<g>
						<g>
							<g>
								<path fill="#19BCA4" d="M26.2,16.5c0,1.1-2.3,0.5-5.1,0.4c-2.8-0.1-5.1,0.4-5.1-0.7c0-1.1,2.3-2,5.1-1.9
									C24,14.4,26.3,15.4,26.2,16.5z"/>
							</g>
						</g>
					</g>
				</g>
				<g>
					<g>
						<g>
							<g>
								<path fill="#19BCA4" d="M37.8,16.5c0,1.1,2.3,0.5,5.1,0.4c2.8-0.1,5.1,0.4,5.1-0.7c0-1.1-2.3-2-5.1-1.9
									C40,14.4,37.7,15.4,37.8,16.5z"/>
							</g>
						</g>
					</g>
				</g>
			</g>
		</g>
	</g>
	<g>
		<path fill="#02243E" d="M34,48h-4c-0.6,0-1-0.4-1-1s0.4-1,1-1h4c0.6,0,1,0.4,1,1S34.6,48,34,48z"/>
	</g>
</g>
</svg>
