<?xml version="1.0" encoding="utf-8"?>
<!-- Generator: Adobe Illustrator 16.0.0, SVG Export Plug-In . SVG Version: 6.00 Build 0)  -->
<!DOCTYPE svg PUBLIC "-//W3C//DTD SVG 1.1//EN" "http://www.w3.org/Graphics/SVG/1.1/DTD/svg11.dtd">
<svg version="1.1" id="Layer_1" xmlns="http://www.w3.org/2000/svg" xmlns:xlink="http://www.w3.org/1999/xlink" x="0px" y="0px"
	 width="64px" height="64px" viewBox="0 0 64 64" enable-background="new 0 0 64 64" xml:space="preserve">
<g>
	<g>
		<g>
			<path fill="#F7910B" d="M62.3,39.3c0,13-11.9,23.5-30.3,23.5c-18.4,0-30.3-10.5-30.3-23.5S13.6,6.8,32,6.8
				C50.4,6.8,62.3,26.3,62.3,39.3z"/>
		</g>
		<g>
			<path fill="#F7910B" d="M62.3,39.3c0,13-11.9,19.5-30.3,19.5c-18.4,0-30.3-6.5-30.3-19.5S13.6,4.8,32,4.8
				C50.4,4.8,62.3,26.3,62.3,39.3z"/>
		</g>
		<g>
			<path fill="#F9A908" d="M32,4.8c18.4,0,30.3,21.5,30.3,34.5S50.4,58.8,32,58.8"/>
		</g>
		<g>
			<path fill="#F9A908" d="M62.3,39.3c0,13-11.9,19.5-30.3,19.5c-18.4,0-30.3-6.5-30.3-19.5S13.6,6.8,32,6.8
				C50.4,6.8,62.3,26.3,62.3,39.3z"/>
		</g>
		<g>
			<path fill="#F9C55D" d="M1.7,39.3c0-13,11.9-32.5,30.3-32.5"/>
		</g>
		<g>
			<path fill="#F7910B" d="M32,6.8c18.4,0,30.3,19.5,30.3,32.5S50.4,62.8,32,62.8"/>
		</g>
		<g>
			<path fill="#EA7103" d="M32,6.8c18.4,0,30.3,19.5,30.3,32.5"/>
		</g>
		<g>
			<g>
				<path fill="#F9C55D" d="M27.8,32.6c0,1.2-3.5,0.7-7.8,0.7c-4.3,0-7.8,0.6-7.8-0.7c0-1.2,3.5-2.2,7.8-2.2
					C24.3,30.4,27.8,31.4,27.8,32.6z"/>
			</g>
			<g>
				<path fill="#F9A908" d="M51.8,32.6c0,1.2-3.5,0.7-7.8,0.7s-7.8,0.6-7.8-0.7c0-1.2,3.5-2.2,7.8-2.2S51.8,31.4,51.8,32.6z"/>
			</g>
		</g>
		<g>
			<circle fill="#F7910B" cx="10.3" cy="36.3" r="0.6"/>
		</g>
		<g>
			<circle fill="#F7910B" cx="5.8" cy="38.3" r="1.1"/>
		</g>
		<g>
			<circle fill="#F7910B" cx="8.8" cy="34.3" r="0.2"/>
		</g>
		<g>
			<circle fill="#F7910B" cx="13.4" cy="36.1" r="0.2"/>
		</g>
		<g>
			<circle fill="#F9A908" cx="52.6" cy="36.7" r="0.8"/>
		</g>
		<g>
			<circle fill="#F9A908" cx="55.1" cy="38" r="0.2"/>
		</g>
		<g>
			<circle fill="#F9A908" cx="49.8" cy="29.2" r="0.3"/>
		</g>
		<g>
			<circle fill="#F9A908" cx="49.3" cy="40.8" r="1.3"/>
		</g>
		<g>
			<circle fill="#F9A908" cx="56.5" cy="40.9" r="0.6"/>
		</g>
		<g>
			<circle fill="#F7910B" cx="9.3" cy="40.3" r="0.5"/>
		</g>
		<g>
			<circle fill="#F7910B" cx="10.1" cy="31.9" r="0.4"/>
		</g>
		<g>
			<circle fill="#F9A908" cx="4.8" cy="18.2" r="1.1"/>
		</g>
		<g>
			<circle fill="#F9A908" cx="8" cy="14.6" r="0.6"/>
		</g>
		<g>
			<circle fill="#F9A908" cx="59.2" cy="20.5" r="0.2"/>
		</g>
		<g>
			<circle fill="#F9A908" cx="58.4" cy="17.6" r="0.8"/>
		</g>
		<g>
			<circle fill="#F9A908" cx="61" cy="18.2" r="0.5"/>
		</g>
		<g>
			<circle fill="#F9A908" cx="6" cy="21.1" r="0.6"/>
		</g>
		<g>
			<g>
				<path fill="#F7910B" d="M41.5,49.8c0,2.6-4.2,4.7-9.5,4.7c-5.2,0-9.5-2.1-9.5-4.7"/>
			</g>
			<g>
				<g>
					<path fill="#C42260" d="M43.7,43.3c0,6.7-5.2,9.3-11.7,9.3c-6.5,0-11.7-2.6-11.7-9.3c0-6.7,5.2-10.2,11.7-10.2
						C38.5,33.2,43.7,36.7,43.7,43.3z"/>
				</g>
				<g>
					<path fill="#E2446E" d="M43.5,45.2c-1.4-0.3-3-0.5-4.6-0.5c-2.5,0-4.9,0.4-7,1.2c-2.1-0.7-4.4-1.2-7-1.2
						c-1.6,0-3.1,0.2-4.6,0.5c0.9,5.3,5.7,7.4,11.5,7.4C37.8,52.6,42.6,50.5,43.5,45.2z"/>
				</g>
				<g>
					<path fill="#99144A" d="M43.2,40c-1.2-4.1-5.9-7-11.2-7c-5.4,0-10,3-11.2,7H43.2z"/>
				</g>
			</g>
		</g>
		<g>
			<g>
				<g>
					<g>
						<g>
							<g>
								<g>
									<g>
										<path fill="#1E4784" d="M24.5,31.3c-0.4-0.2-0.7-0.5-0.9-0.9c-0.7-1.9-2.8-2.8-4.7-2.1c-0.8,0.3-1.8-0.1-2.1-1
											c-0.3-0.8,0.1-1.8,0.9-2.1c3.6-1.4,7.6,0.4,8.9,4c0.3,0.9-0.1,1.8-1,2.1C25.3,31.5,24.8,31.5,24.5,31.3z"/>
									</g>
								</g>
								<g>
									<g>
										<path fill="#02243E" d="M26.7,29.2c0.3,0.9-0.1,1.8-1,2.1c-0.4,0.2-0.9,0.1-1.3,0c-0.4-0.2-0.7-0.5-0.9-0.9
											c-0.7-1.9-2.8-2.8-4.7-2.1c-0.8,0.3-1.8-0.1-2.1-1c-0.3-0.8,0.1-1.8,0.9-2.1"/>
									</g>
								</g>
							</g>
						</g>
					</g>
				</g>
				<g>
					<g>
						<g>
							<g>
								<g>
									<g>
										<path fill="#1E4784" d="M39.5,31.3c0.4-0.2,0.7-0.5,0.9-0.9c0.7-1.9,2.8-2.8,4.7-2.1c0.8,0.3,1.8-0.1,2.1-1
											c0.3-0.8-0.1-1.8-0.9-2.1c-3.6-1.4-7.6,0.4-8.9,4c-0.3,0.9,0.1,1.8,1,2.1C38.7,31.5,39.2,31.5,39.5,31.3z"/>
									</g>
								</g>
								<g>
									<g>
										<path fill="#02243E" d="M37.3,29.2c-0.3,0.9,0.1,1.8,1,2.1c0.4,0.2,0.9,0.1,1.3,0c0.4-0.2,0.7-0.5,0.9-0.9
											c0.7-1.9,2.8-2.8,4.7-2.1c0.8,0.3,1.8-0.1,2.1-1c0.3-0.8-0.1-1.8-0.9-2.1"/>
									</g>
								</g>
							</g>
						</g>
					</g>
				</g>
			</g>
			<g>
				<g>
					<g>
						<g>
							<g>
								<g>
									<path fill="#109DA0" d="M27.6,24.3c-1,1.7-2.6-0.4-5.3-1.9c-2.6-1.5-5.3-1.9-4.3-3.6c1-1.7,3.9-1.8,6.5-0.3
										C27.2,20.1,28.5,22.7,27.6,24.3z"/>
								</g>
							</g>
						</g>
					</g>
				</g>
				<g>
					<g>
						<g>
							<g>
								<g>
									<path fill="#109DA0" d="M36.4,24.3c1,1.7,2.6-0.4,5.3-1.9c2.6-1.5,5.3-1.9,4.3-3.6s-3.9-1.8-6.5-0.3
										C36.8,20.1,35.5,22.7,36.4,24.3z"/>
								</g>
							</g>
						</g>
					</g>
				</g>
			</g>
		</g>
	</g>
	<g>
		<polygon fill="#B20644" points="57,11.8 61.5,15.9 55.4,15.6 55.7,21.7 51.6,17.1 47.6,21.7 47.9,15.6 41.8,15.9 46.3,11.8 
			41.8,7.7 47.9,8.1 47.6,2 51.6,6.5 55.7,2 55.4,8.1 61.5,7.7 		"/>
	</g>
	<g>
		<polygon fill="#FF004F" points="56.6,9.8 62.3,12 56.5,13.9 59.1,19.4 53.6,16.8 51.5,22.5 49.5,16.7 44,19.3 46.7,13.8 41,11.7 
			46.8,9.7 44.2,4.2 49.7,6.9 51.8,1.2 53.7,6.9 59.3,4.4 		"/>
	</g>
</g>
</svg>
