<?xml version="1.0" encoding="utf-8"?>
<!-- Generator: Adobe Illustrator 16.0.0, SVG Export Plug-In . SVG Version: 6.00 Build 0)  -->
<!DOCTYPE svg PUBLIC "-//W3C//DTD SVG 1.1//EN" "http://www.w3.org/Graphics/SVG/1.1/DTD/svg11.dtd">
<svg version="1.1" id="Layer_1" xmlns="http://www.w3.org/2000/svg" xmlns:xlink="http://www.w3.org/1999/xlink" x="0px" y="0px"
	 width="64px" height="64px" viewBox="0 0 64 64" enable-background="new 0 0 64 64" xml:space="preserve">
<g>
	<g>
		<g>
			<g>
				<circle fill="#063F66" cx="32" cy="31.8" r="27.1"/>
				<path fill="#022730" d="M12.8,12.7c10.6-10.6,27.7-10.6,38.3,0c10.6,10.6,10.6,27.7,0,38.3"/>
			</g>
		</g>
	</g>
	<g>
		<path fill="#A3B5B1" d="M59,17.4c0-9.2-7.4-16.6-16.6-16.6c-6.5,0-12.1,3.7-14.8,9.2c-0.6-0.1-1.2-0.2-1.9-0.2
			c-4.3,0-7.9,3.5-7.9,7.9c0,0.2,0,0.4,0,0.5C12.1,18.7,9,23.6,9,29.7v0.8C9,37,14.3,42,20.8,42h26.6C53.8,42,59,37,59,30.5v-3.7
			C59,23.8,59,20.5,59,17.4z"/>
		<path fill="#7F938F" d="M59,19.6C59,10.4,51.6,3,42.4,3c-6.5,0-12.1,3.7-14.8,9.2c-0.6-0.1-1.2-0.2-1.9-0.2
			c-4.3,0-7.9,3.5-7.9,7.9c0,0.2,0,0.4,0,0.5C12.1,20.9,9,23.6,9,29.7v0.8C9,37,14.3,42,20.8,42h26.6C53.8,42,59,37,59,30.5v-3.7
			C59,23.8,59,22.7,59,19.6z"/>
		<path fill="#788785" d="M21,42h26.3C53.8,42,59,37,59,30.5v-3.7c0-3,0-5.1,0-8.2"/>
		<path fill="#98D3CD" d="M17.8,19.8"/>
		<path fill="#A3B5B1" d="M35.2,19.8c-0.5-0.1-1-0.2-1.6-0.2c-3.1,0-5.6,2.5-5.6,5.6c0,0.5,0.1,1.1,0.2,1.6
			C28.8,23.1,31.6,20.2,35.2,19.8z"/>
		<path fill="#A3B5B1" d="M44.8,14.7c-0.6-0.3-1.3-0.6-2-0.7c-4.1-0.8-8.1,2-8.9,6.1c-0.1,0.7-0.1,1.4,0,2.2
			C35.4,17.5,39.9,14.4,44.8,14.7z"/>
		<circle fill="#A3B5B1" cx="14.7" cy="28.9" r="0.6"/>
		<circle fill="#A3B5B1" cx="16.1" cy="24.6" r="0.8"/>
		<circle fill="#A3B5B1" cx="25.7" cy="16.7" r="0.3"/>
		<circle fill="#A3B5B1" cx="33.4" cy="12.5" r="0.8"/>
		<circle fill="#A3B5B1" cx="39.9" cy="5.7" r="0.4"/>
		<circle fill="#A3B5B1" cx="43.7" cy="6.9" r="1.2"/>
	</g>
	<g>
		<polygon fill="#FFAA00" points="42.3,43 32.5,43 26.6,52 30.6,52 25.7,63.4 41.9,49 37.9,49 		"/>
		<polygon fill="#FFBC00" points="42.3,43 34.5,49.1 26.6,52 33,52 25.7,63.4 41.9,49 37.9,49 		"/>
		<polygon fill="#FFF200" points="38,43 32.5,43 26.6,52 35.5,52 25.7,63.4 41.9,49 33.2,49 		"/>
		<polygon fill="#FFDA00" points="38,43 33.6,44 26.6,52 35.5,52 25.7,63.4 41.9,49 32,50.3 		"/>
	</g>
	<g>
		<polygon fill="#FFAA00" points="49,43 44.2,43 41.3,47 43.2,47 40.9,52.8 48.8,46 46.8,46 		"/>
		<polygon fill="#FFBC00" points="49,43 45.2,45.8 41.3,47 44.5,47 40.9,52.8 48.8,46 46.8,46 		"/>
		<polygon fill="#FFF200" points="46.9,43 44.2,43 41.3,47 45.7,47 40.9,52.8 48.8,46 44.6,46 		"/>
		<polygon fill="#FFDA00" points="46.9,43 44.8,43.3 41.3,47 45.7,47 40.9,52.8 48.8,46 43.9,46.6 		"/>
	</g>
</g>
</svg>
