<?xml version="1.0" encoding="utf-8"?>
<!-- Generator: Adobe Illustrator 16.0.0, SVG Export Plug-In . SVG Version: 6.00 Build 0)  -->
<!DOCTYPE svg PUBLIC "-//W3C//DTD SVG 1.1//EN" "http://www.w3.org/Graphics/SVG/1.1/DTD/svg11.dtd">
<svg version="1.1" xmlns="http://www.w3.org/2000/svg" xmlns:xlink="http://www.w3.org/1999/xlink" x="0px" y="0px" width="65px"
	 height="65px" viewBox="0 0 65 65" enable-background="new 0 0 65 65" xml:space="preserve">
<g id="Layer_1">
	<g>
		<g>
			<g>
				<g>
					<path fill="#C6FC68" d="M32.564,2.755c-7.055,4.349-12.399,23.919-12.399,33.26c0,9.345,5.345,8.688,12.399,10.343"/>
				</g>
				<g>
					<path fill="#07A595" d="M32.566,48.858c-0.188,0-0.381-0.022-0.573-0.067c-1.04-0.244-2.044-0.436-2.995-0.618
						C23.426,47.104,17.664,46,17.664,36.015c0-9.275,5.291-30.274,13.588-35.388c1.172-0.722,2.715-0.359,3.44,0.816
						c0.724,1.175,0.359,2.715-0.817,3.439c-4.223,2.604-11.211,18.231-11.211,31.132c0,5.854,1.834,6.204,7.275,7.248
						c1.018,0.195,2.07,0.396,3.196,0.661c1.344,0.315,2.177,1.66,1.862,3.005C34.728,48.081,33.701,48.858,32.566,48.858z"/>
				</g>
			</g>
			<g>
				<g>
					<path fill="#A7D613" d="M32.441,2.755c7.057,4.349,12.395,23.919,12.395,33.26c0,9.345-5.346,8.688-12.395,10.343"/>
				</g>
				<g>
					<path fill="#07A595" d="M32.44,48.858c-1.136,0-2.161-0.777-2.433-1.93c-0.314-1.344,0.518-2.689,1.863-3.005
						c1.125-0.265,2.178-0.467,3.195-0.662c5.438-1.043,7.27-1.395,7.27-7.247c0-12.902-6.983-28.529-11.205-31.132
						c-1.176-0.725-1.541-2.265-0.816-3.439c0.724-1.177,2.264-1.54,3.439-0.816c8.293,5.111,13.582,26.111,13.582,35.388
						c0,9.984-5.758,11.09-11.328,12.158c-0.951,0.183-1.953,0.374-2.994,0.618C32.821,48.836,32.63,48.858,32.44,48.858z"/>
				</g>
			</g>
		</g>
		<g>
			<g>
				<line fill="#63EF54" x1="32.5" y1="39.484" x2="32.5" y2="62.245"/>
			</g>
			<g>
				<path fill="#07A595" d="M32.5,64.745c-1.381,0-2.5-1.119-2.5-2.5V39.484c0-1.381,1.119-2.5,2.5-2.5s2.5,1.119,2.5,2.5v22.761
					C35,63.626,33.881,64.745,32.5,64.745z"/>
			</g>
		</g>
	</g>
</g>
<g id="nyt_x5F_exporter_x5F_info" display="none">
</g>
</svg>
