<?xml version="1.0" encoding="utf-8"?>
<!-- Generator: Adobe Illustrator 16.0.0, SVG Export Plug-In . SVG Version: 6.00 Build 0)  -->
<!DOCTYPE svg PUBLIC "-//W3C//DTD SVG 1.1//EN" "http://www.w3.org/Graphics/SVG/1.1/DTD/svg11.dtd">
<svg version="1.1" xmlns="http://www.w3.org/2000/svg" xmlns:xlink="http://www.w3.org/1999/xlink" x="0px" y="0px" width="65px"
	 height="65px" viewBox="0 0 65 65" enable-background="new 0 0 65 65" xml:space="preserve">
<g id="Layer_1">
	<g>
		<g>
			<g>
				<g>
					<g>
						<circle fill="#A35F96" cx="32.5" cy="24.049" r="21.05"/>
					</g>
					<g>
						<path fill="#914D87" d="M32.499,3C44.124,3,53.55,12.423,53.55,24.049s-9.426,21.049-21.051,21.049"/>
					</g>
					<g>
						<path fill="#754587" d="M32.499,47.598c-12.985,0-23.549-10.563-23.549-23.549S19.514,0.5,32.499,0.5
							c12.986,0,23.551,10.563,23.551,23.549S45.485,47.598,32.499,47.598z M32.499,5.5c-10.228,0-18.549,8.321-18.549,18.549
							s8.321,18.549,18.549,18.549c10.229,0,18.551-8.321,18.551-18.549S42.728,5.5,32.499,5.5z"/>
					</g>
				</g>
				<g>
					<g>
						<path fill="#85D6BD" d="M44.183,24.049c0,6.451-5.23,11.682-11.684,11.682c-6.45,0-11.683-5.23-11.683-11.682"/>
					</g>
					<g>
						<path fill="#57C1B2" d="M32.499,35.73c6.453,0,11.684-5.23,11.684-11.682H32.499V35.73z"/>
					</g>
					<g>
						<path fill="#754587" d="M32.499,38.23c-7.82,0-14.183-6.362-14.183-14.182c0-1.381,1.119-2.5,2.5-2.5s2.5,1.119,2.5,2.5
							c0,5.062,4.119,9.182,9.183,9.182s9.184-4.119,9.184-9.182c0-1.381,1.119-2.5,2.5-2.5s2.5,1.119,2.5,2.5
							C46.683,31.868,40.32,38.23,32.499,38.23z"/>
					</g>
				</g>
				<g>
					<g>
						<line fill="#E25286" x1="32.499" y1="62" x2="32.499" y2="44.969"/>
					</g>
					<g>
						<path fill="#754587" d="M32.499,64.5c-1.381,0-2.5-1.119-2.5-2.5V44.969c0-1.381,1.119-2.5,2.5-2.5s2.5,1.119,2.5,2.5V62
							C34.999,63.381,33.88,64.5,32.499,64.5z"/>
					</g>
				</g>
				<g>
					<g>
						<line fill="#E25286" x1="39.399" y1="55.274" x2="25.601" y2="55.274"/>
					</g>
					<g>
						<path fill="#754587" d="M39.399,57.774H25.601c-1.382,0-2.5-1.119-2.5-2.5s1.118-2.5,2.5-2.5h13.799
							c1.381,0,2.5,1.119,2.5,2.5S40.78,57.774,39.399,57.774z"/>
					</g>
				</g>
			</g>
			<g>
				<g>
					<g>
						<line fill="#D8CE84" x1="10.062" y1="7.333" x2="14.312" y2="11.583"/>
					</g>
					<g>
						<path fill="#754587" d="M14.312,14.083c-0.639,0-1.278-0.244-1.767-0.732l-4.251-4.25c-0.977-0.977-0.977-2.559,0-3.535
							c0.978-0.977,2.559-0.977,3.535,0l4.251,4.25c0.978,0.977,0.978,2.559,0,3.535C15.591,13.839,14.952,14.083,14.312,14.083z"/>
					</g>
				</g>
				<g>
					<g>
						<line fill="#D8CE84" x1="54.937" y1="7.333" x2="50.688" y2="11.583"/>
					</g>
					<g>
						<path fill="#754587" d="M50.688,14.083c-0.64,0-1.279-0.244-1.769-0.732c-0.976-0.977-0.976-2.559,0-3.535l4.251-4.25
							c0.977-0.977,2.558-0.977,3.535,0s0.978,2.559,0,3.535l-4.251,4.25C51.967,13.839,51.327,14.083,50.688,14.083z"/>
					</g>
				</g>
			</g>
		</g>
		<g>
			<g>
				<circle fill="#A35F96" cx="48.249" cy="54.833" r="1.062"/>
			</g>
			<g>
				<circle fill="#A35F96" cx="52.312" cy="54.833" r="1.062"/>
			</g>
			<g>
				<circle fill="#A35F96" cx="56.374" cy="54.833" r="1.062"/>
			</g>
		</g>
	</g>
</g>
<g id="nyt_x5F_exporter_x5F_info" display="none">
</g>
</svg>
