<?xml version="1.0" encoding="utf-8"?>
<!-- Generator: Adobe Illustrator 16.0.0, SVG Export Plug-In . SVG Version: 6.00 Build 0)  -->
<!DOCTYPE svg PUBLIC "-//W3C//DTD SVG 1.1//EN" "http://www.w3.org/Graphics/SVG/1.1/DTD/svg11.dtd">
<svg version="1.1" id="Layer_1" xmlns="http://www.w3.org/2000/svg" xmlns:xlink="http://www.w3.org/1999/xlink" x="0px" y="0px"
	 width="64px" height="64px" viewBox="0 0 64 64" enable-background="new 0 0 64 64" xml:space="preserve">
<g>
	<g>
		<path fill="#FFD41F" d="M30,32l19.7-19.7c-5-5-12-8.1-19.7-8.1C14.7,4.2,2.2,16.6,2.2,32c0,15.4,12.5,27.8,27.8,27.8
			c7.7,0,14.6-3.1,19.7-8.1L30,32z"/>
		<path fill="#FFC41D" d="M2.2,32c0,15.4,12.5,27.8,27.8,27.8c7.7,0,14.6-3.1,19.7-8.1L30,32l19.7-19.7"/>
		<path fill="#EAAA0A" d="M30,32L10.3,51.7c0.7,0.7,1.3,1.3,2,1.9c0.3,0.2,0.6,0.4,0.9,0.7c0.4,0.3,0.9,0.7,1.3,1
			c0.4,0.2,0.8,0.5,1.1,0.7c0.4,0.2,0.8,0.5,1.2,0.7c0.4,0.2,0.8,0.4,1.2,0.6c0.4,0.2,0.8,0.4,1.3,0.6c0.4,0.2,0.8,0.3,1.2,0.4
			c0.5,0.2,0.9,0.3,1.4,0.5c0.4,0.1,0.8,0.2,1.2,0.3c0.5,0.1,0.9,0.3,1.4,0.3c0.5,0.1,0.9,0.1,1.4,0.2c0.4,0.1,0.9,0.1,1.3,0.2
			c0.9,0.1,1.7,0.1,2.6,0.1c0.1,0,0.2,0,0.3,0c0.9,0,1.7,0,2.6-0.1c0.4,0,0.9-0.1,1.3-0.2c0.5-0.1,1-0.1,1.4-0.2
			c0.5-0.1,0.9-0.2,1.4-0.3c0.4-0.1,0.8-0.2,1.2-0.3c0.5-0.1,0.9-0.3,1.3-0.5c0.4-0.1,0.8-0.3,1.2-0.5c0.4-0.2,0.8-0.4,1.2-0.6
			c0.4-0.2,0.8-0.4,1.3-0.6c0.4-0.2,0.7-0.4,1.1-0.7c0.4-0.2,0.8-0.5,1.2-0.7c0.4-0.3,0.8-0.6,1.2-0.9c0.3-0.2,0.7-0.5,1-0.7
			c0.7-0.6,1.4-1.2,2-1.8L30,32z"/>
		<path fill="#3E4242" d="M29.4,12.9c-0.6,0-1.2,0.2-1.6,0.6c0.5,0.1,0.9,0.5,0.9,1c0,0.5-0.4,1-1,1c-0.2,0-0.4-0.1-0.6-0.2
			c0.1,1.2,1,2.1,2.3,2.1c1.3,0,2.3-1,2.3-2.3C31.6,14,30.6,12.9,29.4,12.9z"/>
		<path fill="#212626" d="M27.7,15.5c-0.2,0-0.4-0.1-0.6-0.2c0.1,1.2,1,2.1,2.3,2.1c1.3,0,2.3-1,2.3-2.3"/>
	</g>
	<g>
		<circle fill="#329908" cx="42.8" cy="32" r="2.2"/>
		<path fill="#236D00" d="M44.4,30.4c0.9,0.9,0.9,2.3,0,3.2c-0.9,0.9-2.3,0.9-3.2,0"/>
	</g>
	<g>
		<circle fill="#329908" cx="51.2" cy="32" r="2.2"/>
		<path fill="#236D00" d="M52.8,30.4c0.9,0.9,0.9,2.3,0,3.2c-0.9,0.9-2.3,0.9-3.2,0"/>
	</g>
	<g>
		<circle fill="#329908" cx="59.6" cy="32" r="2.2"/>
		<path fill="#236D00" d="M61.2,30.4c0.9,0.9,0.9,2.3,0,3.2c-0.9,0.9-2.3,0.9-3.2,0"/>
	</g>
</g>
</svg>
