<?xml version="1.0" encoding="utf-8"?>
<!-- Generator: Adobe Illustrator 16.0.0, SVG Export Plug-In . SVG Version: 6.00 Build 0)  -->
<!DOCTYPE svg PUBLIC "-//W3C//DTD SVG 1.1//EN" "http://www.w3.org/Graphics/SVG/1.1/DTD/svg11.dtd">
<svg version="1.1" xmlns="http://www.w3.org/2000/svg" xmlns:xlink="http://www.w3.org/1999/xlink" x="0px" y="0px" width="65px"
	 height="65px" viewBox="0 0 65 65" enable-background="new 0 0 65 65" xml:space="preserve">
<g id="Layer_1">
	<g>
		<g>
			<g>
				<g>
					<path fill="#788786" d="M19.507,11.949c-2.387,0-4.33-1.942-4.33-4.329V7.143l2.021-2.022V1.654
						c0-0.638,0.517-1.154,1.154-1.154c0.637,0,1.154,0.517,1.154,1.154v4.422l-1.975,1.976c0.199,0.906,1.01,1.587,1.975,1.587
						c0.639,0,1.154,0.517,1.154,1.156C20.661,11.433,20.146,11.949,19.507,11.949z"/>
				</g>
				<g>
					<path fill="#98A5A4" d="M16.332,15.509c-0.64,0-1.155-0.517-1.155-1.154c0-0.639,0.516-1.155,1.155-1.155
						c1.114,0,2.021-0.905,2.021-2.02c0-0.639,0.517-1.155,1.154-1.155c0.639,0,1.154,0.517,1.154,1.155
						C20.661,13.566,18.718,15.509,16.332,15.509z"/>
				</g>
			</g>
			<g>
				<g>
					<path fill="#788786" d="M19.507,18.781c-2.387,0-4.33-1.943-4.33-4.331c0-0.638,0.516-1.152,1.155-1.152
						c0.639,0,1.155,0.515,1.155,1.152c0,1.114,0.906,2.022,2.02,2.022c0.639,0,1.154,0.517,1.154,1.154
						S20.146,18.781,19.507,18.781z"/>
				</g>
				<g>
					<path fill="#98A5A4" d="M16.332,22.341c-0.64,0-1.155-0.517-1.155-1.154s0.516-1.154,1.155-1.154
						c1.114,0,2.021-0.908,2.021-2.021c0-0.638,0.517-1.154,1.154-1.154c0.639,0,1.154,0.517,1.154,1.154
						C20.661,20.398,18.718,22.341,16.332,22.341z"/>
				</g>
			</g>
			<g>
				<g>
					<path fill="#788786" d="M19.507,25.613c-2.387,0-4.33-1.943-4.33-4.329c0-0.64,0.516-1.156,1.155-1.156
						c0.639,0,1.155,0.517,1.155,1.156c0,1.113,0.906,2.021,2.02,2.021c0.639,0,1.154,0.515,1.154,1.154
						C20.661,25.098,20.146,25.613,19.507,25.613z"/>
				</g>
				<g>
					<path fill="#98A5A4" d="M16.332,29.173c-0.64,0-1.155-0.517-1.155-1.154c0-0.639,0.516-1.156,1.155-1.156
						c1.114,0,2.021-0.904,2.021-2.019c0-0.639,0.517-1.155,1.154-1.155c0.639,0,1.154,0.517,1.154,1.155
						C20.661,27.23,18.718,29.173,16.332,29.173z"/>
				</g>
			</g>
		</g>
		<g>
			<path fill="#788786" d="M49.183,41.766c0.066-0.146,0.146-0.28,0.197-0.436c0.86-2.551-0.511-5.316-3.062-6.177l-19.74-6.658
				c-2.549-0.86-5.316,0.509-6.176,3.06c-0.053,0.155-0.069,0.312-0.107,0.469L49.183,41.766z"/>
			<path fill="#93A09F" d="M21.026,30.354l28.584,9.641c0.096-2.118-1.184-4.131-3.293-4.842l-19.74-6.658
				C24.472,27.784,22.231,28.611,21.026,30.354z"/>
			<path fill="#ACBFBE" d="M44.062,36.762c-0.093,0.275-0.392,0.423-0.666,0.33l-2.173-0.733c-0.274-0.093-0.424-0.391-0.33-0.666
				l0,0c0.091-0.274,0.392-0.422,0.666-0.33l2.173,0.733C44.007,36.188,44.155,36.487,44.062,36.762L44.062,36.762z"/>
		</g>
		<path fill="#788786" d="M15.191,29.915c0,0.536,0.105,1.042,0.258,1.527h1.761l1.038-2.101l1.039,2.101h0.215l1.039-2.101
			l1.04,2.101h0.215l1.039-2.101l1.039,2.101h0.216l1.038-2.101l1.04,2.101h0.215l1.04-2.101l1.039,2.101h0.215l1.039-2.101
			l1.039,2.101h0.216l1.038-2.101l1.041,2.101h0.215l1.039-2.101l1.039,2.101h0.215l1.04-2.101l1.039,2.101h0.215l1.04-2.101
			l1.039,2.101h0.215l1.039-2.101l1.041,2.101h0.214l1.039-2.101l1.039,2.101h0.216l1.039-2.101l1.038,2.101h5.204
			c0.152-0.485,0.258-0.991,0.258-1.527c0-2.816-2.281-5.098-5.098-5.098H20.287C17.474,24.817,15.191,27.099,15.191,29.915z"/>
		<path fill="#93A09F" d="M16.044,27.096h35.375c-0.913-1.372-2.473-2.278-4.244-2.278H20.287
			C18.517,24.817,16.957,25.724,16.044,27.096z"/>
		<path fill="#D60000" d="M43.353,45.406c2.389,2.39,2.389,6.264,0,8.651l-1.443,1.44c-2.385,2.39-6.259,2.39-8.648,0l-18.742-18.74
			c-2.388-2.39-2.388-6.264,0-8.652l1.441-1.439c2.391-2.39,6.264-2.39,8.65,0L43.353,45.406z"/>
		<path fill="#B50202" d="M14.519,28.105l1.441-1.439c2.391-2.39,6.264-2.39,8.65,0l18.742,18.74c2.389,2.39,2.389,6.264,0,8.651
			l-1.443,1.44"/>
		<g>
			<path fill="#DEFFFE" d="M23.026,33.922c0.344,0.347,0.344,0.906,0,1.25l0,0c-0.347,0.345-0.905,0.345-1.25,0l-3.559-3.561
				c-0.347-0.347-0.345-0.905,0-1.248l0,0c0.347-0.347,0.903-0.347,1.248,0L23.026,33.922z"/>
			<path fill="#DEFFFE" d="M19.466,35.172c-0.345,0.345-0.901,0.345-1.248,0l0,0c-0.345-0.344-0.347-0.903,0-1.249l3.561-3.56
				c0.343-0.347,0.901-0.347,1.248,0l0,0c0.344,0.343,0.344,0.901,0,1.248L19.466,35.172z"/>
		</g>
		<path fill="#788786" d="M48.547,54.171c-0.448-0.448-1.174-0.448-1.622,0c-0.447,0.448-0.447,1.174,0,1.622
			c1.465,1.466,1.465,3.85,0,5.315c-1.463,1.464-3.848,1.467-5.314,0c-1.465-1.465-1.467-3.85-0.002-5.315
			c0.096-0.098,0.162-0.211,0.217-0.327l-1.514-1.512c-0.115,0.054-0.229,0.12-0.324,0.217c-2.359,2.36-2.359,6.2,0.001,8.56
			c1.179,1.18,2.728,1.77,4.278,1.77s3.102-0.59,4.28-1.77C50.905,60.371,50.905,56.53,48.547,54.171z"/>
	</g>
</g>
<g id="nyt_x5F_exporter_x5F_info" display="none">
</g>
</svg>
