<?xml version="1.0" encoding="utf-8"?>
<!-- Generator: Adobe Illustrator 16.0.0, SVG Export Plug-In . SVG Version: 6.00 Build 0)  -->
<!DOCTYPE svg PUBLIC "-//W3C//DTD SVG 1.1//EN" "http://www.w3.org/Graphics/SVG/1.1/DTD/svg11.dtd">
<svg version="1.1" id="Layer_1" xmlns="http://www.w3.org/2000/svg" xmlns:xlink="http://www.w3.org/1999/xlink" x="0px" y="0px"
	 width="64px" height="64px" viewBox="0 0 64 64" enable-background="new 0 0 64 64" xml:space="preserve">
<g>
	<g>
		<g>
			<g>
				<g>
					<g>
						<g>
							<circle fill="#06C67C" cx="32" cy="32" r="28.3"/>
							<path fill="#0FB57E" d="M12,12C23,0.9,41,0.9,52,12C63.1,23,63.1,41,52,52"/>
						</g>
					</g>
				</g>
			</g>
		</g>
	</g>
	<g>
		<g>
			<g>
				<g>
					<path fill="#FFFBCA" d="M33,49.3c-9,0-17.3-7.8-17.3-17.3S24,14.7,33,14.7v8c-5,0-9.3,4.2-9.3,9.3s4.3,9.3,9.3,9.3V49.3z"/>
				</g>
				<circle fill="#FFFBCA" cx="14.7" cy="17.2" r="2.5"/>
			</g>
			<path fill="#E8DD91" d="M23.7,32c0-0.7,0.1-1.4,0.2-2.1c-2.7,1.5-5.5,2.6-8.2,3.2C16.3,42.2,24,49.3,33,49.3v-8
				C28,41.3,23.7,37.1,23.7,32z"/>
		</g>
		<path fill="#1DDD98" d="M41,41.8V16.5c0-1.5-0.9-1.7-2-1.7c-1.1,0-2,0.2-2,1.7v25.3c-1,0.7-2.1,2.1-2.1,3.7c0,2.3,2,4.2,4.3,4.2
			s4.1-1.9,4.1-4.2C43.3,43.9,42,42.3,41,41.8z"/>
	</g>
</g>
</svg>
