<?xml version="1.0" encoding="utf-8"?>
<!-- Generator: Adobe Illustrator 16.0.0, SVG Export Plug-In . SVG Version: 6.00 Build 0)  -->
<!DOCTYPE svg PUBLIC "-//W3C//DTD SVG 1.1//EN" "http://www.w3.org/Graphics/SVG/1.1/DTD/svg11.dtd">
<svg version="1.1" id="Layer_1" xmlns="http://www.w3.org/2000/svg" xmlns:xlink="http://www.w3.org/1999/xlink" x="0px" y="0px"
	 width="64px" height="64px" viewBox="0 0 64 64" enable-background="new 0 0 64 64" xml:space="preserve">
<g>
	<g>
		<g>
			<path fill="#C3D7DD" d="M32,55.7c-0.5,0-1,0-1.6,0c-0.3,0-0.5-0.3-0.5-0.5c0-0.3,0.3-0.5,0.5-0.5c0.5,0,1,0.2,1.5,0.2l0.5,0.1
				c0,0,0,0,0,0c0.3,0,0.5,0.1,0.5,0.3c0,0.3-0.2,0.4-0.5,0.4L32,55.7z M34.5,55.6c-0.3,0-0.5-0.2-0.5-0.4c0-0.3,0.2-0.5,0.4-0.5
				c0.7-0.1,1.3-0.2,1.9-0.3c0.3,0,0.5,0.1,0.6,0.4c0.1,0.3-0.1,0.5-0.4,0.6C35.9,55.4,35.2,55.5,34.5,55.6
				C34.5,55.6,34.5,55.6,34.5,55.6z M28.5,55.4C28.5,55.4,28.4,55.4,28.5,55.4c-0.7-0.1-1.4-0.2-2.1-0.4C26.1,55,26,54.7,26,54.4
				c0.1-0.3,0.3-0.4,0.6-0.4c0.6,0.2,1.3,0.3,1.9,0.4c0.3,0,0.5,0.3,0.4,0.6C28.9,55.3,28.7,55.4,28.5,55.4z M38.4,54.8
				c-0.2,0-0.4-0.1-0.5-0.4c-0.1-0.3,0.1-0.5,0.3-0.6c0.6-0.2,1.3-0.4,1.9-0.6c0.3-0.1,0.5,0,0.6,0.3s0,0.5-0.3,0.6
				c-0.6,0.2-1.3,0.5-1.9,0.6C38.5,54.8,38.4,54.8,38.4,54.8z M24.6,54.5c-0.1,0-0.1,0-0.2,0c-0.6-0.2-1.3-0.5-1.9-0.7
				c-0.3-0.1-0.4-0.4-0.3-0.7c0.1-0.3,0.4-0.4,0.7-0.3c0.6,0.3,1.2,0.5,1.8,0.7c0.3,0.1,0.4,0.4,0.3,0.6
				C25,54.4,24.8,54.5,24.6,54.5z M42.1,53.4c-0.2,0-0.4-0.1-0.4-0.3c-0.1-0.2,0-0.5,0.2-0.7c0.6-0.3,1.2-0.6,1.7-0.9
				c0.2-0.1,0.5-0.1,0.7,0.2c0.1,0.2,0.1,0.5-0.2,0.7c-0.6,0.3-1.2,0.7-1.8,1C42.3,53.4,42.2,53.4,42.1,53.4z M20.9,52.9
				c-0.1,0-0.2,0-0.2-0.1c-0.6-0.3-1.2-0.7-1.8-1.1c-0.2-0.2-0.3-0.5-0.1-0.7c0.2-0.2,0.5-0.3,0.7-0.1c0.5,0.4,1.1,0.7,1.7,1
				c0.2,0.1,0.3,0.4,0.2,0.7C21.3,52.8,21.1,52.9,20.9,52.9z M45.5,51.3c-0.2,0-0.3-0.1-0.4-0.2c-0.2-0.2-0.1-0.5,0.1-0.7
				c0.5-0.4,1-0.8,1.5-1.2c0.2-0.2,0.5-0.2,0.7,0.1c0.2,0.2,0.2,0.5-0.1,0.7c-0.5,0.4-1.1,0.9-1.6,1.3
				C45.7,51.3,45.6,51.3,45.5,51.3z M17.6,50.7c-0.1,0-0.2,0-0.3-0.1c-0.5-0.4-1.1-0.9-1.5-1.3c-0.2-0.2-0.2-0.5,0-0.7
				c0.2-0.2,0.5-0.2,0.7,0c0.5,0.4,1,0.9,1.5,1.3c0.2,0.2,0.3,0.5,0.1,0.7C17.9,50.6,17.8,50.7,17.6,50.7z M48.6,48.7
				c-0.1,0-0.3,0-0.3-0.1c-0.2-0.2-0.2-0.5,0-0.7c0.5-0.5,0.9-1,1.3-1.5c0.2-0.2,0.5-0.2,0.7-0.1c0.2,0.2,0.2,0.5,0.1,0.7
				c-0.4,0.5-0.9,1-1.4,1.5C48.8,48.7,48.7,48.7,48.6,48.7z M14.7,48c-0.1,0-0.3-0.1-0.4-0.2c-0.5-0.5-0.9-1-1.3-1.6
				c-0.2-0.2-0.1-0.5,0.1-0.7c0.2-0.2,0.5-0.1,0.7,0.1c0.4,0.5,0.8,1,1.2,1.5c0.2,0.2,0.2,0.5,0,0.7C14.9,47.9,14.8,48,14.7,48z
				 M51.1,45.7c-0.1,0-0.2,0-0.3-0.1c-0.2-0.2-0.3-0.5-0.1-0.7c0.4-0.5,0.7-1.1,1-1.7c0.1-0.2,0.4-0.3,0.7-0.2
				c0.2,0.1,0.3,0.4,0.2,0.7c-0.3,0.6-0.7,1.2-1.1,1.7C51.4,45.6,51.3,45.7,51.1,45.7z M12.3,44.8c-0.2,0-0.3-0.1-0.4-0.2
				c-0.4-0.6-0.7-1.2-1-1.8c-0.1-0.2,0-0.5,0.2-0.7c0.2-0.1,0.5,0,0.7,0.2c0.3,0.6,0.6,1.1,1,1.7c0.1,0.2,0.1,0.5-0.2,0.7
				C12.5,44.8,12.4,44.8,12.3,44.8z M53.1,42.2c-0.1,0-0.1,0-0.2,0c-0.3-0.1-0.4-0.4-0.2-0.7c0.3-0.6,0.5-1.2,0.7-1.8
				c0.1-0.3,0.4-0.4,0.6-0.3c0.3,0.1,0.4,0.4,0.3,0.6c-0.2,0.6-0.5,1.3-0.8,1.9C53.5,42.1,53.3,42.2,53.1,42.2z M10.5,41.2
				c-0.2,0-0.4-0.1-0.5-0.3c-0.3-0.6-0.5-1.3-0.7-1.9c-0.1-0.3,0.1-0.5,0.3-0.6c0.3-0.1,0.5,0.1,0.6,0.3c0.2,0.6,0.4,1.2,0.7,1.8
				c0.1,0.3,0,0.5-0.3,0.7C10.6,41.2,10.5,41.2,10.5,41.2z M54.4,38.4c0,0-0.1,0-0.1,0c-0.3-0.1-0.4-0.3-0.4-0.6
				c0.2-0.6,0.3-1.3,0.4-1.9c0-0.3,0.3-0.5,0.6-0.4c0.3,0,0.5,0.3,0.4,0.6c-0.1,0.7-0.3,1.3-0.4,2C54.9,38.3,54.7,38.4,54.4,38.4z
				 M9.3,37.4c-0.2,0-0.4-0.2-0.5-0.4c-0.1-0.7-0.3-1.3-0.3-2c0-0.3,0.2-0.5,0.4-0.6c0.3,0,0.5,0.2,0.6,0.4c0.1,0.6,0.2,1.3,0.3,1.9
				c0.1,0.3-0.1,0.5-0.4,0.6C9.4,37.4,9.3,37.4,9.3,37.4z M55.1,34.5C55.1,34.5,55.1,34.5,55.1,34.5c-0.3,0-0.5-0.3-0.5-0.5
				c0.1-0.6,0.1-1.3,0.1-2c0-0.6,0-1.2-0.1-1.8c0-0.3,0.2-0.5,0.5-0.5c0.3,0,0.5,0.2,0.5,0.5c0.1,0.6,0.1,1.3,0.1,1.9
				c0,0.7,0,1.4-0.1,2C55.6,34.3,55.4,34.5,55.1,34.5z M8.8,33c-0.3,0-0.5,0-0.5-0.3c0-0.3,0-0.5,0-0.9c0-0.4,0-0.7,0-1
				c0-0.3,0.2-0.5,0.5-0.4c0.3,0,0.5,0.3,0.5,0.5c0,0.3,0,0.7,0,1c0,0.3,0,0.4,0,0.7C9.3,33,9.1,33,8.8,33C8.8,33,8.8,33,8.8,33z
				 M9,29.5C9,29.5,8.9,29.5,9,29.5c-0.3,0-0.5-0.3-0.5-0.6c0.1-0.7,0.2-1.4,0.4-2c0.1-0.3,0.3-0.4,0.6-0.4c0.3,0.1,0.4,0.3,0.4,0.6
				c-0.1,0.6-0.3,1.3-0.3,1.9C9.5,29.3,9.2,29.5,9,29.5z M54.9,28.6c-0.2,0-0.5-0.2-0.5-0.4c-0.1-0.6-0.2-1.3-0.4-1.9
				c-0.1-0.3,0.1-0.5,0.4-0.6c0.3-0.1,0.5,0.1,0.6,0.4c0.2,0.7,0.3,1.3,0.4,2C55.4,28.3,55.2,28.6,54.9,28.6
				C54.9,28.6,54.9,28.6,54.9,28.6z M9.8,25.6c0,0-0.1,0-0.1,0c-0.3-0.1-0.4-0.4-0.3-0.6c0.2-0.6,0.4-1.3,0.7-1.9
				c0.1-0.3,0.4-0.4,0.7-0.3c0.3,0.1,0.4,0.4,0.3,0.7c-0.2,0.6-0.5,1.2-0.7,1.8C10.3,25.4,10.1,25.6,9.8,25.6z M53.9,24.8
				c-0.2,0-0.4-0.1-0.5-0.3c-0.2-0.6-0.5-1.2-0.7-1.8c-0.1-0.3,0-0.5,0.2-0.7c0.3-0.1,0.5,0,0.7,0.2c0.3,0.6,0.5,1.2,0.8,1.9
				c0.1,0.3,0,0.5-0.3,0.6C54,24.8,53.9,24.8,53.9,24.8z M11.4,21.9c-0.1,0-0.2,0-0.2-0.1c-0.2-0.1-0.3-0.4-0.2-0.7
				c0.3-0.6,0.7-1.2,1-1.8c0.1-0.2,0.5-0.3,0.7-0.2c0.2,0.1,0.3,0.5,0.2,0.7c-0.3,0.6-0.7,1.1-1,1.7C11.7,21.8,11.5,21.9,11.4,21.9z
				 M52.2,21.1c-0.2,0-0.3-0.1-0.4-0.3c-0.3-0.6-0.7-1.1-1-1.7c-0.2-0.2-0.1-0.5,0.1-0.7c0.2-0.2,0.5-0.1,0.7,0.1
				c0.4,0.6,0.7,1.2,1.1,1.7c0.1,0.2,0,0.5-0.2,0.7C52.4,21.1,52.3,21.1,52.2,21.1z M13.5,18.5c-0.1,0-0.2,0-0.3-0.1
				c-0.2-0.2-0.3-0.5-0.1-0.7c0.4-0.5,0.8-1.1,1.3-1.6c0.2-0.2,0.5-0.2,0.7,0c0.2,0.2,0.2,0.5,0,0.7c-0.4,0.5-0.9,1-1.2,1.5
				C13.8,18.4,13.7,18.5,13.5,18.5z M50,17.8c-0.1,0-0.3-0.1-0.4-0.2c-0.4-0.5-0.9-1-1.3-1.5c-0.2-0.2-0.2-0.5,0-0.7
				c0.2-0.2,0.5-0.2,0.7,0c0.5,0.5,0.9,1,1.4,1.5c0.2,0.2,0.1,0.5-0.1,0.7C50.2,17.8,50.1,17.8,50,17.8z M16.2,15.5
				c-0.1,0-0.3-0.1-0.4-0.2c-0.2-0.2-0.2-0.5,0-0.7c0.5-0.5,1-0.9,1.6-1.3c0.2-0.2,0.5-0.1,0.7,0.1c0.2,0.2,0.1,0.5-0.1,0.7
				c-0.5,0.4-1,0.8-1.5,1.3C16.4,15.5,16.3,15.5,16.2,15.5z M47.2,15c-0.1,0-0.2,0-0.3-0.1c-0.5-0.4-1-0.8-1.5-1.2
				c-0.2-0.2-0.3-0.5-0.1-0.7c0.2-0.2,0.5-0.3,0.7-0.1c0.6,0.4,1.1,0.8,1.6,1.3c0.2,0.2,0.2,0.5,0,0.7C47.5,14.9,47.3,15,47.2,15z
				 M19.3,13.1c-0.2,0-0.3-0.1-0.4-0.2c-0.2-0.2-0.1-0.5,0.1-0.7c0.6-0.4,1.2-0.7,1.8-1c0.2-0.1,0.5,0,0.7,0.2
				c0.1,0.2,0,0.5-0.2,0.7c-0.6,0.3-1.1,0.6-1.7,1C19.5,13,19.4,13.1,19.3,13.1z M44,12.6c-0.1,0-0.2,0-0.3-0.1
				c-0.5-0.3-1.1-0.6-1.7-0.9c-0.2-0.1-0.3-0.4-0.2-0.7c0.1-0.2,0.4-0.3,0.7-0.2c0.6,0.3,1.2,0.6,1.8,1c0.2,0.1,0.3,0.4,0.2,0.7
				C44.3,12.5,44.1,12.6,44,12.6z M22.8,11.2c-0.2,0-0.4-0.1-0.5-0.3c-0.1-0.3,0-0.5,0.3-0.7c0.6-0.3,1.3-0.5,1.9-0.7
				c0.3-0.1,0.5,0.1,0.6,0.3s-0.1,0.5-0.3,0.6c-0.6,0.2-1.2,0.4-1.8,0.7C23,11.2,22.9,11.2,22.8,11.2z M40.4,10.9
				c-0.1,0-0.1,0-0.2,0c-0.6-0.2-1.2-0.4-1.9-0.6c-0.3-0.1-0.4-0.4-0.3-0.6s0.4-0.4,0.6-0.3c0.7,0.2,1.3,0.4,1.9,0.7
				c0.3,0.1,0.4,0.4,0.3,0.6C40.8,10.7,40.6,10.9,40.4,10.9z M26.6,9.9c-0.2,0-0.4-0.2-0.5-0.4c-0.1-0.3,0.1-0.5,0.4-0.6
				c0.7-0.2,1.3-0.3,2-0.4c0.3,0,0.5,0.2,0.6,0.4c0,0.3-0.1,0.5-0.4,0.6c-0.6,0.1-1.3,0.2-1.9,0.4C26.7,9.9,26.7,9.9,26.6,9.9z
				 M36.6,9.7C36.5,9.7,36.5,9.7,36.6,9.7c-0.7-0.1-1.4-0.2-2-0.3c-0.3,0-0.5-0.3-0.4-0.6s0.3-0.5,0.6-0.4c0.7,0.1,1.4,0.2,2,0.3
				c0.3,0.1,0.4,0.3,0.4,0.6C37,9.6,36.8,9.7,36.6,9.7z M30.6,9c-0.3,0-0.5,0-0.5-0.3c0-0.3,0.2-0.4,0.5-0.4c0.7,0,1.4,0,2,0
				c0.3,0,0.5,0.3,0.5,0.5s-0.3,0.3-0.5,0.3C31.9,9.1,31.3,9,30.6,9C30.6,9,30.6,9,30.6,9z"/>
		</g>
		<g>
			<path fill="#C3D7DD" d="M32,46.6c-0.2,0-0.3-0.1-0.4-0.2l-0.6-1.1c-0.1-0.2-0.1-0.5,0.2-0.7c0.2-0.1,0.5-0.1,0.7,0.2l0.2,0.4
				l0.6-1c0.1-0.2,0.5-0.3,0.7-0.2c0.2,0.1,0.3,0.4,0.2,0.7l-1,1.7C32.3,46.5,32.2,46.6,32,46.6z M30.3,43.8c-0.2,0-0.3-0.1-0.4-0.2
				l-1-1.7c-0.1-0.2-0.1-0.5,0.2-0.7c0.2-0.1,0.5-0.1,0.7,0.2l1,1.7c0.1,0.2,0.1,0.5-0.2,0.7C30.5,43.8,30.4,43.8,30.3,43.8z
				 M34,43.2c-0.1,0-0.2,0-0.3-0.1c-0.2-0.1-0.3-0.4-0.2-0.7l1-1.7c0.1-0.2,0.4-0.3,0.7-0.2c0.2,0.1,0.3,0.4,0.2,0.7l-1,1.7
				C34.4,43.1,34.2,43.2,34,43.2z M28.3,40.3c-0.2,0-0.3-0.1-0.4-0.2l-1-1.7c-0.1-0.2-0.1-0.5,0.2-0.7c0.2-0.1,0.5-0.1,0.7,0.2
				l1,1.7c0.1,0.2,0.1,0.5-0.2,0.7C28.5,40.3,28.4,40.3,28.3,40.3z M36.1,39.7c-0.1,0-0.2,0-0.3-0.1c-0.2-0.1-0.3-0.4-0.2-0.7l1-1.7
				c0.1-0.2,0.4-0.3,0.7-0.2c0.2,0.1,0.3,0.4,0.2,0.7l-1,1.7C36.4,39.6,36.2,39.7,36.1,39.7z M26.3,36.9c-0.2,0-0.3-0.1-0.4-0.2
				l-1-1.7c-0.1-0.2-0.1-0.5,0.2-0.7c0.2-0.1,0.5-0.1,0.7,0.2l1,1.7c0.1,0.2,0.1,0.5-0.2,0.7C26.5,36.9,26.4,36.9,26.3,36.9z
				 M38.1,36.3c-0.1,0-0.2,0-0.3-0.1c-0.2-0.1-0.3-0.4-0.2-0.7l1-1.7c0.1-0.2,0.4-0.3,0.7-0.2c0.2,0.1,0.3,0.4,0.2,0.7l-1,1.7
				C38.4,36.2,38.3,36.3,38.1,36.3z M24.3,33.4c-0.2,0-0.3-0.1-0.4-0.2l-1-1.7c-0.1-0.2-0.1-0.5,0.2-0.7c0.2-0.1,0.5-0.1,0.7,0.2
				l1,1.7c0.1,0.2,0.1,0.5-0.2,0.7C24.4,33.4,24.3,33.4,24.3,33.4z M40.1,32.8c-0.1,0-0.2,0-0.3-0.1c-0.2-0.1-0.3-0.4-0.2-0.7l1-1.7
				c0.1-0.2,0.4-0.3,0.7-0.2c0.2,0.1,0.3,0.4,0.2,0.7l-1,1.7C40.4,32.7,40.3,32.8,40.1,32.8z M22.2,30c-0.2,0-0.3-0.1-0.4-0.2
				l-1-1.7c-0.1-0.2-0.1-0.5,0.2-0.7c0.2-0.1,0.5-0.1,0.7,0.2l1,1.7c0.1,0.2,0.1,0.5-0.2,0.7C22.4,30,22.3,30,22.2,30z M42.1,29.4
				c-0.1,0-0.2,0-0.3-0.1c-0.2-0.1-0.3-0.4-0.2-0.7l1-1.7c0.1-0.2,0.4-0.3,0.7-0.2c0.2,0.1,0.3,0.4,0.2,0.7l-1,1.7
				C42.5,29.3,42.3,29.4,42.1,29.4z M20.2,26.5c-0.2,0-0.3-0.1-0.4-0.2l-1-1.7c-0.1-0.2-0.1-0.5,0.2-0.7c0.2-0.1,0.5-0.1,0.7,0.2
				l1,1.7c0.1,0.2,0.1,0.5-0.2,0.7C20.4,26.5,20.3,26.5,20.2,26.5z M44.2,25.9c-0.1,0-0.2,0-0.3-0.1c-0.2-0.1-0.3-0.4-0.2-0.7
				l0.5-0.9c-0.1-0.1-0.1-0.4-0.1-0.5c0-0.3,0.2-0.7,0.5-0.7H45c0.2,0,0.3,0.3,0.4,0.5c0.1,0.2,0.1,0.5,0,0.6l-0.8,1.5
				C44.5,25.8,44.3,25.9,44.2,25.9z M42.6,24h-2c-0.3,0-0.5-0.2-0.5-0.5c0-0.3,0.2-0.5,0.5-0.5h2c0.3,0,0.5,0.2,0.5,0.5
				C43.1,23.8,42.9,24,42.6,24z M38.6,24h-2c-0.3,0-0.5-0.2-0.5-0.5c0-0.3,0.2-0.5,0.5-0.5h2c0.3,0,0.5,0.2,0.5,0.5
				C39.1,23.8,38.9,24,38.6,24z M34.6,24h-2c-0.3,0-0.5-0.2-0.5-0.5c0-0.3,0.2-0.5,0.5-0.5h2c0.3,0,0.5,0.2,0.5,0.5
				C35.1,23.8,34.9,24,34.6,24z M30.6,24h-2c-0.3,0-0.5-0.2-0.5-0.5c0-0.3,0.2-0.5,0.5-0.5h2c0.3,0,0.5,0.2,0.5,0.5
				C31.1,23.8,30.9,24,30.6,24z M26.6,24h-2c-0.3,0-0.5-0.2-0.5-0.5c0-0.3,0.2-0.5,0.5-0.5h2c0.3,0,0.5,0.2,0.5,0.5
				C27.1,23.8,26.9,24,26.6,24z M22.6,24h-2c-0.3,0-0.5-0.2-0.5-0.5c0-0.3,0.2-0.5,0.5-0.5h2c0.3,0,0.5,0.2,0.5,0.5
				C23.1,23.8,22.9,24,22.6,24z"/>
		</g>
	</g>
	<g>
		<g>
			<path fill="#FF9700" d="M32,63.5C14.6,63.5,0.5,49.4,0.5,32S14.6,0.5,32,0.5S63.5,14.6,63.5,32S49.4,63.5,32,63.5z M32,2.5
				C15.7,2.5,2.5,15.7,2.5,32c0,16.3,13.2,29.5,29.5,29.5S61.5,48.3,61.5,32C61.5,15.7,48.3,2.5,32,2.5z"/>
		</g>
		<g>
			<path fill="#FF9700" d="M58.2,47H5.8c-0.4,0-0.7-0.1-0.9-0.5c-0.2-0.3-0.2-0.7,0-1L31.1,1c0.4-0.6,1.4-0.6,1.7,0l26.2,44.6
				c0.2,0.3,0.2,0.6,0,1C58.9,46.9,58.6,47,58.2,47z M7.5,45h48.9L32,3.4L7.5,45z"/>
		</g>
	</g>
</g>
</svg>
