<?xml version="1.0" encoding="utf-8"?>
<!-- Generator: Adobe Illustrator 16.0.0, SVG Export Plug-In . SVG Version: 6.00 Build 0)  -->
<!DOCTYPE svg PUBLIC "-//W3C//DTD SVG 1.1//EN" "http://www.w3.org/Graphics/SVG/1.1/DTD/svg11.dtd">
<svg version="1.1" xmlns="http://www.w3.org/2000/svg" xmlns:xlink="http://www.w3.org/1999/xlink" x="0px" y="0px" width="65px"
	 height="65px" viewBox="0 0 65 65" enable-background="new 0 0 65 65" xml:space="preserve">
<g id="Layer_1">
	<g>
		<g>
			<path fill="#445066" d="M20.387,44.207c-0.513-0.514-0.511-1.346,0-1.857l0,0c0.514-0.514,1.348-0.514,1.859-0.002l0.404,0.405
				c0.513,0.513,0.513,1.345,0.002,1.859l0,0c-0.516,0.513-1.347,0.513-1.86,0L20.387,44.207z"/>
			<path fill="#5BC914" d="M20.064,43.236c-0.848-0.848-2.223-0.848-3.071,0l0,0c-0.847,0.852-0.848,2.225,0.001,3.072l1.696,1.697
				c0.847,0.849,2.226,0.849,3.07,0l0,0c0.849-0.849,0.849-2.224,0.001-3.072L20.064,43.236z"/>
			<path fill="#069360" d="M21.761,48.006L21.761,48.006c0.849-0.849,0.849-2.224,0.001-3.072l-1.697-1.697
				c-0.848-0.848-2.223-0.848-3.071,0l0,0"/>
		</g>
		<g>
			<g>
				<g>
					<path fill="#445066" d="M34.677,15.658c0.726,0.001,1.313,0.59,1.313,1.313l0,0c0,0.728-0.588,1.315-1.313,1.315h-0.573
						c-0.726-0.001-1.312-0.59-1.314-1.314l0,0c0.002-0.725,0.59-1.313,1.314-1.314H34.677z"/>
					<path fill="#5BC914" d="M35.59,16.116c1.199,0,2.172-0.973,2.172-2.171l0,0c-0.002-1.202-0.973-2.174-2.171-2.172h-2.4
						c-1.199-0.002-2.173,0.971-2.172,2.17l0,0c0,1.2,0.972,2.173,2.173,2.173H35.59z"/>
					<path fill="#069360" d="M31.019,13.943L31.019,13.943c0,1.2,0.972,2.173,2.173,2.173h2.398c1.199,0,2.172-0.973,2.172-2.171
						l0,0"/>
				</g>
				<g>
					<path fill="#445066" d="M49.343,30.896c-0.001,0.727-0.59,1.314-1.313,1.314l0,0c-0.729,0-1.315-0.588-1.315-1.314v-0.572
						c0.001-0.727,0.589-1.313,1.313-1.313l0,0c0.726,0.001,1.313,0.59,1.314,1.314L49.343,30.896z"/>
					<path fill="#5BC914" d="M48.885,31.811c0,1.199,0.973,2.172,2.172,2.172l0,0c1.199,0,2.171-0.973,2.171-2.172v-2.4
						c0.002-1.199-0.971-2.172-2.171-2.172l0,0c-1.2,0.002-2.172,0.973-2.172,2.174V31.811z"/>
					<path fill="#069360" d="M51.057,27.238L51.057,27.238c-1.2,0.002-2.172,0.973-2.172,2.174v2.398
						c0,1.199,0.973,2.172,2.172,2.172l0,0"/>
				</g>
			</g>
			<path fill="#FF9700" d="M62.949,47.566c1.922,1.92,2.079,4.879,0.352,6.606l-9.127,9.126c-1.729,1.729-4.688,1.572-6.607-0.348
				L2.051,17.434c-1.922-1.922-2.08-4.881-0.352-6.607l9.127-9.127c1.729-1.727,4.686-1.57,6.607,0.352L62.949,47.566z"/>
			<path fill="#ED660A" d="M1.699,10.826l9.127-9.127c1.729-1.727,4.686-1.57,6.607,0.352l45.516,45.516
				c1.922,1.92,2.079,4.879,0.352,6.606l-9.127,9.126"/>
			<g>
				<g>
					<path fill="#CE4109" d="M12.847,7.664c0.323,0.324,0.323,0.852-0.001,1.175l-4.008,4.009c-0.324,0.323-0.85,0.323-1.173,0l0,0
						c-0.324-0.324-0.324-0.85-0.001-1.174l4.009-4.01C11.997,7.341,12.523,7.341,12.847,7.664L12.847,7.664z"/>
					<path fill="#CE4109" d="M16.758,11.576c0.324,0.323,0.323,0.85-0.001,1.174l-4.008,4.008c-0.324,0.324-0.85,0.324-1.174,0l0,0
						c-0.323-0.323-0.323-0.85,0-1.174l4.009-4.008C15.907,11.252,16.434,11.252,16.758,11.576L16.758,11.576z"/>
					<path fill="#CE4109" d="M20.669,15.487c0.323,0.324,0.323,0.849,0,1.173l-4.01,4.01c-0.325,0.322-0.849,0.324-1.173,0l0,0
						c-0.324-0.324-0.324-0.851,0-1.174l4.009-4.009C19.82,15.163,20.345,15.163,20.669,15.487L20.669,15.487z"/>
				</g>
				<g>
					<path fill="#CE4109" d="M49.514,44.332c0.322,0.323,0.324,0.849,0,1.172l-4.01,4.01c-0.323,0.324-0.85,0.324-1.173,0l0,0
						c-0.323-0.324-0.323-0.85,0-1.174l4.01-4.008C48.665,44.008,49.189,44.008,49.514,44.332L49.514,44.332z"/>
					<path fill="#CE4109" d="M53.425,48.243c0.323,0.323,0.323,0.849,0,1.173l-4.01,4.01c-0.322,0.324-0.849,0.322-1.173,0l0,0
						c-0.324-0.324-0.324-0.851,0-1.175l4.008-4.009C52.575,47.918,53.1,47.919,53.425,48.243L53.425,48.243z"/>
					<path fill="#CE4109" d="M57.334,52.154c0.325,0.324,0.325,0.849,0,1.173l-4.008,4.009c-0.324,0.324-0.85,0.324-1.174,0l0,0
						c-0.322-0.324-0.322-0.85,0-1.173l4.01-4.009C56.486,51.83,57.012,51.83,57.334,52.154L57.334,52.154z"/>
				</g>
			</g>
			<circle fill="#069360" cx="32.499" cy="32.5" r="15.626"/>
			<path fill="#5BC914" d="M21.449,21.451c6.104-6.102,15.997-6.102,22.099,0c6.103,6.102,6.103,15.996,0.001,22.098"/>
			<circle fill="#2E3F3F" cx="32.5" cy="32.5" r="12.261"/>
			<path fill="#3B4C4B" d="M23.829,23.83c4.788-4.787,12.553-4.787,17.341,0c4.788,4.788,4.788,12.553,0,17.34"/>
			<g>
				<g>
					<g>
						<g>
							<path d="M27.04,26.779c0.072,0.072,0.072,0.189,0,0.262l0,0c-0.071,0.071-0.188,0.071-0.262,0l-1.759-1.76
								c-0.072-0.072-0.072-0.189,0-0.262l0,0c0.071-0.07,0.189-0.07,0.261,0L27.04,26.779z"/>
							<path d="M39.98,39.72c0.072,0.072,0.07,0.188,0,0.261l0,0c-0.073,0.072-0.189,0.072-0.262,0l-1.759-1.76
								c-0.073-0.072-0.073-0.188,0-0.261l0,0c0.071-0.071,0.188-0.073,0.261,0L39.98,39.72z"/>
						</g>
						<g>
							<path d="M32.684,24.596c0,0.102-0.082,0.185-0.186,0.185l0,0c-0.1,0-0.183-0.085-0.184-0.185l0.001-2.488
								c0-0.103,0.082-0.185,0.185-0.186l0,0c0.1,0.001,0.184,0.083,0.184,0.186V24.596z"/>
							<path d="M32.684,42.895c0,0.102-0.084,0.185-0.184,0.184l0,0c-0.103,0.001-0.185-0.082-0.186-0.184l0.001-2.488
								c-0.001-0.102,0.082-0.185,0.185-0.185l0,0c0.1,0,0.184,0.083,0.184,0.185V42.895z"/>
						</g>
						<g>
							<path d="M38.221,27.041c-0.073,0.072-0.19,0.072-0.263,0l0,0c-0.071-0.071-0.071-0.189,0-0.262l1.761-1.758
								c0.072-0.072,0.188-0.072,0.262-0.002l0,0c0.07,0.072,0.07,0.19-0.002,0.263L38.221,27.041z"/>
							<path d="M25.28,39.98c-0.071,0.072-0.189,0.072-0.261,0l0,0c-0.072-0.072-0.072-0.188-0.001-0.262l1.76-1.758
								c0.071-0.074,0.188-0.072,0.261,0l0,0c0.072,0.071,0.072,0.188,0,0.262L25.28,39.98z"/>
						</g>
						<g>
							<path d="M40.405,32.685c-0.104,0.001-0.187-0.082-0.187-0.185l0,0c0-0.101,0.084-0.183,0.184-0.186l2.49,0.002
								c0.103,0,0.185,0.083,0.186,0.184l0,0c-0.001,0.103-0.084,0.186-0.187,0.186L40.405,32.685z"/>
							<path d="M22.105,32.684c-0.104,0.002-0.186-0.081-0.184-0.184l0,0c-0.002-0.101,0.082-0.184,0.184-0.186l2.488,0.002
								c0.101-0.002,0.184,0.082,0.186,0.184l0,0c-0.001,0.102-0.085,0.185-0.186,0.186L22.105,32.684z"/>
						</g>
					</g>
					<g>
						<g>
							<path d="M24.911,30.277c0.098,0.023,0.157,0.127,0.132,0.227l0,0c-0.028,0.097-0.128,0.155-0.228,0.129l-2.403-0.643
								c-0.1-0.025-0.156-0.129-0.13-0.229l0,0c0.025-0.096,0.126-0.154,0.225-0.129L24.911,30.277z"/>
							<path d="M42.586,35.013c0.098,0.026,0.157,0.13,0.133,0.226l0,0c-0.027,0.1-0.13,0.159-0.227,0.131l-2.404-0.643
								c-0.1-0.025-0.156-0.129-0.131-0.227l0,0c0.026-0.099,0.127-0.157,0.227-0.131L42.586,35.013z"/>
						</g>
						<g>
							<path d="M28.707,25.562c0.052,0.088,0.021,0.201-0.067,0.254l0,0c-0.089,0.049-0.204,0.018-0.253-0.068l-1.244-2.155
								c-0.052-0.087-0.021-0.2,0.068-0.253l0,0c0.088-0.051,0.202-0.021,0.254,0.066L28.707,25.562z"/>
							<path d="M37.856,41.41c0.052,0.09,0.021,0.201-0.069,0.253l0,0c-0.087,0.05-0.201,0.02-0.25-0.067l-1.244-2.156
								c-0.053-0.088-0.021-0.201,0.065-0.25l0,0c0.09-0.051,0.202-0.021,0.254,0.066L37.856,41.41z"/>
						</g>
						<g>
							<path d="M34.724,24.913c-0.025,0.099-0.127,0.156-0.227,0.13l0,0c-0.098-0.024-0.156-0.127-0.13-0.225l0.645-2.404
								c0.025-0.1,0.127-0.156,0.225-0.132l0,0c0.1,0.028,0.159,0.13,0.132,0.229L34.724,24.913z"/>
							<path d="M29.988,42.59c-0.027,0.099-0.129,0.156-0.227,0.127l0,0c-0.098-0.023-0.158-0.126-0.132-0.222l0.646-2.405
								c0.023-0.098,0.127-0.156,0.225-0.129l0,0c0.099,0.024,0.158,0.127,0.132,0.227L29.988,42.59z"/>
						</g>
						<g>
							<path d="M39.438,28.709c-0.089,0.051-0.204,0.021-0.255-0.066l0,0c-0.052-0.088-0.019-0.201,0.069-0.254l2.155-1.242
								c0.089-0.053,0.203-0.021,0.253,0.065l0,0c0.05,0.089,0.02,0.204-0.069,0.255L39.438,28.709z"/>
							<path d="M23.589,37.858c-0.089,0.053-0.202,0.019-0.251-0.067l0,0c-0.053-0.088-0.02-0.201,0.064-0.252l2.156-1.242
								c0.088-0.054,0.202-0.023,0.256,0.064l0,0c0.049,0.088,0.019,0.203-0.068,0.254L23.589,37.858z"/>
						</g>
					</g>
					<g>
						<g>
							<path d="M24.816,34.37c0.097-0.027,0.199,0.032,0.227,0.13l0,0c0.025,0.1-0.033,0.199-0.131,0.227l-2.405,0.646
								c-0.098,0.025-0.199-0.036-0.224-0.133l0,0c-0.029-0.097,0.028-0.198,0.129-0.227L24.816,34.37z"/>
							<path d="M42.49,29.634c0.099-0.024,0.203,0.034,0.229,0.13l0,0c0.025,0.1-0.031,0.201-0.131,0.227l-2.402,0.645
								c-0.101,0.029-0.201-0.033-0.229-0.131l0,0c-0.025-0.099,0.033-0.199,0.129-0.225L42.49,29.634z"/>
						</g>
						<g>
							<path d="M25.746,28.391c0.09,0.049,0.119,0.164,0.068,0.252l0,0c-0.053,0.087-0.166,0.117-0.253,0.066l-2.154-1.243
								c-0.089-0.052-0.12-0.162-0.069-0.253l0,0c0.052-0.088,0.164-0.119,0.254-0.069L25.746,28.391z"/>
							<path d="M41.593,37.539c0.091,0.051,0.119,0.164,0.067,0.254l0,0c-0.049,0.087-0.164,0.117-0.251,0.066l-2.155-1.244
								c-0.09-0.051-0.119-0.162-0.066-0.251l0,0c0.051-0.09,0.163-0.118,0.251-0.068L41.593,37.539z"/>
						</g>
						<g>
							<path d="M30.632,24.818c0.028,0.098-0.032,0.199-0.131,0.227l0,0c-0.099,0.027-0.199-0.033-0.227-0.129l-0.644-2.404
								c-0.027-0.1,0.033-0.201,0.132-0.229l0,0c0.097-0.023,0.199,0.036,0.228,0.134L30.632,24.818z"/>
							<path d="M35.368,42.495c0.027,0.099-0.032,0.2-0.13,0.224l0,0c-0.098,0.027-0.202-0.03-0.228-0.127l-0.643-2.404
								c-0.028-0.098,0.032-0.201,0.129-0.225l0,0c0.099-0.028,0.2,0.031,0.229,0.129L35.368,42.495z"/>
						</g>
						<g>
							<path d="M36.612,25.748c-0.052,0.088-0.165,0.121-0.251,0.07l0,0c-0.09-0.053-0.118-0.166-0.07-0.254l1.246-2.154
								c0.052-0.091,0.163-0.119,0.253-0.068l0,0c0.087,0.053,0.117,0.164,0.068,0.253L36.612,25.748z"/>
							<path d="M27.461,41.598c-0.051,0.09-0.162,0.117-0.25,0.066l0,0c-0.09-0.05-0.119-0.164-0.071-0.252l1.247-2.152
								c0.049-0.092,0.164-0.121,0.253-0.072l0,0c0.087,0.051,0.118,0.167,0.067,0.254L27.461,41.598z"/>
						</g>
					</g>
				</g>
				<g>
					<g>
						<g>
							<path d="M28.876,28.701c0.047,0.049,0.047,0.128,0,0.174l0,0c-0.048,0.048-0.127,0.049-0.176,0.002l-1.167-1.17
								c-0.049-0.047-0.047-0.125,0-0.174l0,0c0.047-0.047,0.126-0.048,0.174,0L28.876,28.701z"/>
							<path d="M37.466,37.293c0.048,0.048,0.048,0.127,0.001,0.174l0,0c-0.047,0.048-0.127,0.048-0.175,0l-1.168-1.168
								c-0.047-0.049-0.046-0.126,0.001-0.174l0,0c0.047-0.047,0.125-0.049,0.174,0L37.466,37.293z"/>
						</g>
						<g>
							<path d="M32.622,27.25c0.001,0.068-0.054,0.125-0.124,0.125l0,0c-0.067,0-0.122-0.055-0.122-0.122l0.001-1.653
								c-0.001-0.068,0.055-0.121,0.124-0.124l0,0c0.067,0.003,0.121,0.056,0.123,0.124L32.622,27.25z"/>
							<path d="M32.622,39.402c0,0.068-0.057,0.121-0.124,0.121l0,0c-0.066,0-0.121-0.053-0.121-0.121l0.001-1.652
								c-0.002-0.068,0.054-0.123,0.122-0.122l0,0c0.068,0,0.121,0.054,0.122,0.122V39.402z"/>
						</g>
						<g>
							<path d="M36.297,28.875c-0.047,0.049-0.127,0.049-0.174,0.002l0,0c-0.046-0.048-0.046-0.127,0-0.174l1.169-1.17
								c0.048-0.047,0.128-0.047,0.174,0l0,0c0.048,0.049,0.048,0.127,0.001,0.174L36.297,28.875z"/>
							<path d="M27.707,37.466c-0.048,0.051-0.127,0.049-0.174,0.001l0,0c-0.047-0.047-0.049-0.125,0-0.174l1.167-1.168
								c0.049-0.049,0.126-0.047,0.175,0l0,0c0.047,0.048,0.048,0.125,0,0.176L27.707,37.466z"/>
						</g>
						<g>
							<path d="M37.749,32.623c-0.069,0-0.124-0.055-0.125-0.122l0,0c0-0.067,0.056-0.121,0.124-0.124l1.652,0.002
								c0.066,0,0.121,0.055,0.124,0.121l0,0c-0.001,0.068-0.058,0.123-0.124,0.123H37.749z"/>
							<path d="M25.598,32.623c-0.067,0-0.122-0.055-0.122-0.122l0,0c-0.001-0.067,0.056-0.122,0.123-0.124l1.651,0.002
								c0.068-0.001,0.122,0.055,0.122,0.121l0,0c0.001,0.068-0.054,0.123-0.122,0.123H25.598z"/>
						</g>
					</g>
					<g>
						<g>
							<path d="M27.461,31.024c0.066,0.017,0.105,0.084,0.086,0.151l0,0c-0.018,0.064-0.082,0.102-0.149,0.085l-1.597-0.427
								c-0.064-0.018-0.104-0.086-0.084-0.151l0,0c0.015-0.064,0.082-0.104,0.148-0.087L27.461,31.024z"/>
							<path d="M39.197,34.168c0.064,0.02,0.104,0.086,0.087,0.151l0,0c-0.019,0.064-0.085,0.104-0.15,0.085l-1.597-0.426
								c-0.064-0.016-0.104-0.085-0.086-0.15l0,0c0.018-0.064,0.082-0.104,0.148-0.086L39.197,34.168z"/>
						</g>
						<g>
							<path d="M29.98,27.895c0.035,0.06,0.015,0.133-0.045,0.17l0,0c-0.058,0.029-0.133,0.011-0.166-0.048l-0.826-1.429
								c-0.035-0.061-0.014-0.136,0.045-0.17l0,0c0.058-0.033,0.135-0.014,0.168,0.045L29.98,27.895z"/>
							<path d="M36.058,38.416c0.033,0.059,0.013,0.133-0.047,0.168l0,0c-0.058,0.033-0.133,0.014-0.166-0.043l-0.827-1.433
								c-0.034-0.06-0.014-0.133,0.044-0.167l0,0c0.061-0.033,0.135-0.016,0.171,0.044L36.058,38.416z"/>
						</g>
						<g>
							<path d="M33.977,27.463c-0.016,0.066-0.085,0.104-0.151,0.087l0,0c-0.064-0.017-0.104-0.084-0.085-0.149l0.426-1.596
								c0.02-0.067,0.086-0.104,0.152-0.088l0,0c0.064,0.018,0.104,0.086,0.086,0.15L33.977,27.463z"/>
							<path d="M30.832,39.199c-0.019,0.065-0.085,0.104-0.149,0.085l0,0c-0.065-0.017-0.105-0.083-0.087-0.149l0.427-1.594
								c0.017-0.066,0.085-0.105,0.147-0.087l0,0c0.066,0.018,0.107,0.083,0.09,0.149L30.832,39.199z"/>
						</g>
						<g>
							<path d="M37.107,29.982c-0.061,0.035-0.135,0.016-0.17-0.044l0,0c-0.033-0.06-0.013-0.132,0.047-0.167l1.43-0.826
								c0.06-0.035,0.135-0.015,0.168,0.043l0,0c0.033,0.061,0.014,0.137-0.047,0.172L37.107,29.982z"/>
							<path d="M26.582,36.059c-0.058,0.033-0.133,0.013-0.165-0.043l0,0c-0.035-0.061-0.013-0.137,0.042-0.169l1.434-0.825
								c0.056-0.035,0.133-0.017,0.167,0.043l0,0c0.034,0.059,0.014,0.135-0.045,0.168L26.582,36.059z"/>
						</g>
					</g>
					<g>
						<g>
							<path d="M27.398,33.742c0.064-0.018,0.132,0.021,0.15,0.086l0,0c0.017,0.065-0.021,0.133-0.088,0.15l-1.596,0.428
								c-0.066,0.02-0.131-0.022-0.148-0.088l0,0c-0.02-0.062,0.02-0.131,0.085-0.149L27.398,33.742z"/>
							<path d="M39.134,30.596c0.064-0.014,0.132,0.024,0.15,0.088l0,0c0.018,0.066-0.021,0.133-0.087,0.15l-1.595,0.428
								c-0.065,0.018-0.133-0.021-0.151-0.086l0,0c-0.018-0.066,0.022-0.133,0.085-0.149L39.134,30.596z"/>
						</g>
						<g>
							<path d="M28.016,29.771c0.06,0.033,0.08,0.109,0.044,0.168l0,0c-0.032,0.059-0.108,0.078-0.167,0.045l-1.431-0.827
								c-0.058-0.032-0.08-0.105-0.045-0.166l0,0c0.034-0.061,0.108-0.081,0.168-0.046L28.016,29.771z"/>
							<path d="M38.537,35.847c0.062,0.032,0.078,0.108,0.044,0.169l0,0c-0.032,0.056-0.11,0.076-0.166,0.044l-1.429-0.827
								c-0.062-0.033-0.081-0.107-0.047-0.166l0,0c0.034-0.061,0.107-0.078,0.168-0.045L38.537,35.847z"/>
						</g>
						<g>
							<path d="M31.259,27.4c0.02,0.065-0.02,0.133-0.084,0.149l0,0c-0.067,0.02-0.135-0.021-0.152-0.084l-0.427-1.597
								c-0.019-0.066,0.021-0.135,0.086-0.152l0,0c0.066-0.016,0.133,0.023,0.151,0.088L31.259,27.4z"/>
							<path d="M34.404,39.135c0.019,0.067-0.021,0.135-0.086,0.149l0,0c-0.066,0.02-0.135-0.019-0.152-0.085l-0.426-1.596
								c-0.02-0.062,0.021-0.132,0.086-0.149l0,0c0.065-0.017,0.133,0.021,0.15,0.087L34.404,39.135z"/>
						</g>
						<g>
							<path d="M35.229,28.017c-0.034,0.061-0.107,0.08-0.166,0.048l0,0c-0.06-0.035-0.079-0.109-0.046-0.17l0.827-1.43
								c0.034-0.061,0.108-0.078,0.167-0.046l0,0c0.059,0.036,0.078,0.11,0.045,0.169L35.229,28.017z"/>
							<path d="M29.154,38.541c-0.033,0.06-0.108,0.078-0.166,0.045l0,0c-0.059-0.034-0.079-0.109-0.047-0.168l0.828-1.431
								c0.032-0.06,0.108-0.077,0.166-0.046l0,0c0.06,0.033,0.079,0.109,0.045,0.168L29.154,38.541z"/>
						</g>
					</g>
				</g>
			</g>
		</g>
		<g>
			<g>
				<g>
					<g>
						<path fill="#5BC914" d="M26.719,37.272c0.143,0.144,0.143,0.372,0,0.515l0,0c-0.143,0.141-0.371,0.141-0.514,0l-2.797-2.799
							c-0.141-0.14-0.141-0.369,0.001-0.512l0,0c0.142-0.141,0.372-0.141,0.511-0.001L26.719,37.272z"/>
						<path fill="#5BC914" d="M29.429,34.563c0.142,0.142,0.142,0.37,0,0.513l0,0c-0.142,0.142-0.372,0.142-0.513,0l-2.797-2.797
							c-0.141-0.141-0.141-0.371,0-0.512l0,0c0.144-0.143,0.372-0.143,0.513-0.002L29.429,34.563z"/>
					</g>
					<path fill="#5BC914" d="M25.088,31.791c0.142-0.143,0.372-0.143,0.515,0l0,0c0.143,0.141,0.14,0.371-0.001,0.514l-1.654,1.654
						c-0.142,0.141-0.372,0.143-0.516,0l0,0c-0.141-0.143-0.141-0.372,0-0.514L25.088,31.791z"/>
					<path fill="#233535" d="M28.891,35.594c0.142-0.143,0.374-0.143,0.515-0.001l0,0c0.143,0.142,0.143,0.374,0,0.515l-1.655,1.656
						c-0.141,0.141-0.372,0.141-0.514-0.003l0,0c-0.141-0.14-0.143-0.372,0-0.513L28.891,35.594z"/>
					<g>
						<path fill="#5BC914" d="M30.523,41.078c0.141,0.143,0.141,0.371,0,0.513l0,0c-0.142,0.142-0.371,0.143-0.514,0l-2.798-2.797
							c-0.142-0.141-0.142-0.372,0-0.515l0,0c0.142-0.141,0.374-0.141,0.515,0L30.523,41.078z"/>
						<path fill="#5BC914" d="M33.233,38.367c0.142,0.143,0.142,0.371,0,0.514l0,0c-0.142,0.141-0.371,0.143-0.515,0l-2.797-2.797
							c-0.14-0.141-0.141-0.373,0-0.514l0,0c0.144-0.143,0.373-0.141,0.514,0L33.233,38.367z"/>
					</g>
					<path fill="#5BC914" d="M32.694,39.397c0.142-0.142,0.374-0.142,0.515-0.001l0,0c0.142,0.143,0.143,0.374,0.001,0.517
						l-1.655,1.653c-0.142,0.143-0.373,0.141-0.515,0l0,0c-0.14-0.141-0.141-0.373,0-0.515L32.694,39.397z"/>
				</g>
				<g>
					<g>
						<path fill="#233535" d="M31.033,32.959c0.144,0.142,0.143,0.371,0,0.514l0,0c-0.142,0.141-0.371,0.141-0.514-0.002
							l-2.797-2.797c-0.141-0.141-0.141-0.369,0.001-0.511l0,0c0.142-0.143,0.372-0.144,0.513-0.003L31.033,32.959z"/>
						<path fill="#5BC914" d="M33.743,30.248c0.143,0.143,0.143,0.372,0.001,0.513l0,0c-0.143,0.143-0.372,0.144-0.514,0.001
							l-2.799-2.797c-0.14-0.141-0.139-0.371,0.004-0.514l0,0c0.141-0.141,0.369-0.141,0.51,0L33.743,30.248z"/>
					</g>
					<path fill="#5BC914" d="M29.402,27.476c0.142-0.142,0.372-0.142,0.515,0.001l0,0c0.142,0.142,0.141,0.371,0,0.512l-1.655,1.655
						c-0.143,0.143-0.371,0.143-0.513,0l0,0c-0.143-0.142-0.143-0.372-0.001-0.515L29.402,27.476z"/>
					<path fill="#233535" d="M33.205,31.277c0.142-0.141,0.373-0.14,0.514,0.002l0,0c0.143,0.142,0.144,0.373,0.002,0.514
						l-1.654,1.655c-0.143,0.142-0.373,0.141-0.516-0.002l0,0c-0.141-0.141-0.142-0.372,0-0.515L33.205,31.277z"/>
					<g>
						<path fill="#233535" d="M34.839,36.763c0.142,0.142,0.141,0.372-0.003,0.515l0,0c-0.14,0.141-0.369,0.141-0.512-0.002
							l-2.797-2.797c-0.141-0.141-0.143-0.371,0-0.513l0,0c0.142-0.143,0.373-0.142,0.514-0.001L34.839,36.763z"/>
						<path fill="#5BC914" d="M37.548,34.053c0.142,0.143,0.142,0.371,0,0.513l0,0c-0.143,0.144-0.371,0.144-0.515,0.001
							l-2.797-2.798c-0.14-0.141-0.141-0.372,0.002-0.515l0,0c0.141-0.141,0.371-0.139,0.512,0.002L37.548,34.053z"/>
					</g>
					<path fill="#233535" d="M37.01,35.082c0.141-0.141,0.372-0.141,0.513,0l0,0c0.143,0.143,0.144,0.373,0.002,0.516l-1.655,1.653
						c-0.142,0.143-0.372,0.142-0.514-0.001l0,0c-0.141-0.141-0.143-0.371,0-0.514L37.01,35.082z"/>
				</g>
			</g>
			<g>
				<g>
					<g>
						<path fill="#233535" d="M37.748,31.203c0.066,0.065,0.064,0.17,0,0.234l0,0c-0.064,0.065-0.17,0.066-0.234,0l-1.277-1.276
							c-0.064-0.065-0.064-0.17,0.002-0.234l0,0c0.064-0.065,0.168-0.065,0.231,0L37.748,31.203z"/>
						<path fill="#5BC914" d="M38.986,29.965c0.064,0.065,0.064,0.17,0,0.234l0,0c-0.066,0.065-0.17,0.066-0.234,0l-1.277-1.277
							c-0.064-0.063-0.063-0.168,0-0.232l0,0c0.065-0.064,0.17-0.066,0.233-0.001L38.986,29.965z"/>
					</g>
					<path fill="#5BC914" d="M37.002,28.701c0.066-0.066,0.173-0.065,0.234-0.003l0,0c0.066,0.065,0.065,0.171,0,0.235l-0.756,0.756
						c-0.063,0.064-0.168,0.066-0.235,0l0,0c-0.062-0.062-0.062-0.169,0.003-0.234L37.002,28.701z"/>
					<path fill="#5BC914" d="M38.74,30.438c0.065-0.066,0.169-0.066,0.234-0.002l0,0c0.064,0.066,0.065,0.172,0.001,0.236
						l-0.755,0.756c-0.065,0.064-0.172,0.064-0.238-0.002l0,0c-0.064-0.063-0.062-0.168,0.002-0.232L38.74,30.438z"/>
					<g>
						<path fill="#5BC914" d="M39.484,32.94c0.066,0.065,0.065,0.17,0.002,0.235l0,0c-0.066,0.064-0.171,0.065-0.236,0l-1.277-1.277
							c-0.063-0.064-0.063-0.17,0.002-0.234l0,0c0.065-0.064,0.169-0.064,0.232,0L39.484,32.94z"/>
						<path fill="#233535" d="M40.723,31.703c0.066,0.064,0.064,0.169,0.001,0.234l0,0c-0.065,0.064-0.171,0.065-0.234-0.002
							l-1.277-1.276c-0.064-0.063-0.063-0.169,0-0.232l0,0c0.065-0.065,0.17-0.065,0.233-0.001L40.723,31.703z"/>
					</g>
					<path fill="#5BC914" d="M40.477,32.175c0.066-0.065,0.172-0.065,0.236,0l0,0c0.064,0.063,0.064,0.169,0,0.234l-0.756,0.757
						c-0.064,0.062-0.172,0.062-0.236,0l0,0c-0.063-0.065-0.063-0.172,0-0.236L40.477,32.175z"/>
				</g>
				<g>
					<g>
						<path fill="#5BC914" d="M39.719,29.232c0.065,0.065,0.064,0.17,0,0.234l0,0c-0.063,0.064-0.169,0.065-0.234,0l-1.277-1.277
							c-0.064-0.063-0.063-0.168,0-0.232l0,0c0.065-0.066,0.17-0.066,0.234-0.002L39.719,29.232z"/>
						<path fill="#5BC914" d="M40.957,27.995c0.064,0.065,0.064,0.169-0.002,0.235l0,0c-0.063,0.064-0.168,0.064-0.232-0.001
							l-1.278-1.276c-0.063-0.065-0.063-0.17,0.001-0.234l0,0c0.065-0.065,0.17-0.065,0.233,0L40.957,27.995z"/>
					</g>
					<path fill="#5BC914" d="M38.975,26.729c0.064-0.064,0.17-0.062,0.233,0l0,0c0.065,0.065,0.064,0.17,0.001,0.234l-0.757,0.756
						c-0.065,0.064-0.169,0.064-0.234,0l0,0c-0.062-0.062-0.065-0.169,0-0.233L38.975,26.729z"/>
					<path fill="#5BC914" d="M40.711,28.466c0.066-0.064,0.169-0.064,0.233-0.001l0,0c0.065,0.066,0.066,0.172,0.003,0.236
						l-0.757,0.756c-0.064,0.064-0.171,0.063-0.235-0.002l0,0c-0.064-0.064-0.064-0.168,0-0.232L40.711,28.466z"/>
					<g>
						<path fill="#5BC914" d="M41.456,30.969c0.065,0.066,0.063,0.171,0,0.236l0,0c-0.064,0.063-0.169,0.064-0.235-0.002
							l-1.276-1.276c-0.064-0.063-0.063-0.169,0-0.232l0,0c0.064-0.065,0.17-0.065,0.234-0.002L41.456,30.969z"/>
						<path fill="#5BC914" d="M42.693,29.732c0.065,0.065,0.065,0.17,0,0.235l0,0c-0.064,0.063-0.169,0.065-0.235-0.001
							l-1.276-1.277c-0.064-0.064-0.064-0.17,0.001-0.232l0,0c0.065-0.066,0.169-0.066,0.233-0.002L42.693,29.732z"/>
					</g>
					<path fill="#5BC914" d="M42.448,30.203c0.065-0.064,0.171-0.063,0.235,0l0,0c0.063,0.064,0.064,0.172,0,0.234l-0.756,0.756
						c-0.064,0.065-0.171,0.064-0.234,0l0,0c-0.063-0.063-0.065-0.169,0-0.234L42.448,30.203z"/>
				</g>
			</g>
			<path fill="#5BC914" d="M36.894,23.989c0.104,0.104,0.104,0.271,0,0.375l-3.011,3.011c-0.103,0.104-0.271,0.103-0.375,0
				l-1.813-1.814c-0.106-0.105-0.105-0.273,0-0.377l3.009-3.01c0.105-0.104,0.271-0.104,0.376,0L36.894,23.989z"/>
			<g>
				<path fill="#3A5051" d="M34.76,25.535l-1.684-0.826c-0.025-0.012-0.049-0.007-0.069,0.013l-0.194,0.194
					c-0.02,0.02-0.023,0.045-0.012,0.069l0.829,1.681c0.007,0.017,0.025,0.03,0.043,0.031c0.019,0.004,0.038-0.003,0.051-0.016
					l0.168-0.169c0.019-0.019,0.023-0.044,0.011-0.069l-0.244-0.484l0.385-0.385l0.49,0.242c0.022,0.012,0.049,0.005,0.066-0.012
					l0.174-0.174c0.014-0.015,0.021-0.033,0.018-0.051C34.789,25.561,34.777,25.543,34.76,25.535z M33.77,25.425l-0.26,0.261
					l-0.205-0.413c-0.018-0.034-0.037-0.069-0.057-0.108c0.036,0.021,0.072,0.041,0.113,0.061L33.77,25.425z"/>
				<path fill="#3A5051" d="M36.183,24.109l-1.32-1.166c-0.023-0.021-0.058-0.02-0.081,0.004l-0.206,0.206
					c-0.02,0.019-0.024,0.045-0.013,0.067l0.383,0.83c0.073,0.15,0.136,0.274,0.191,0.379c-0.106-0.057-0.227-0.121-0.376-0.194
					l-0.817-0.392c-0.025-0.012-0.052-0.007-0.07,0.012l-0.205,0.205c-0.023,0.023-0.025,0.059-0.005,0.083l1.166,1.343
					c0.013,0.012,0.028,0.019,0.046,0.02c0.016,0,0.029-0.006,0.043-0.02l0.154-0.152c0.021-0.023,0.023-0.059,0.003-0.08
					l-0.505-0.573c-0.09-0.104-0.186-0.208-0.276-0.306c0.093,0.049,0.192,0.101,0.312,0.158l0.8,0.396
					c0.023,0.01,0.051,0.007,0.07-0.012l0.123-0.124c0.017-0.017,0.021-0.046,0.013-0.065l-0.389-0.832
					c-0.057-0.119-0.108-0.229-0.16-0.333c0.105,0.1,0.216,0.196,0.312,0.284l0.583,0.52c0.023,0.021,0.058,0.021,0.081-0.002
					l0.159-0.158c0,0,0-0.002,0.002-0.003c0.022-0.022,0.023-0.06-0.002-0.083L36.183,24.109z"/>
			</g>
			<g>
				<path fill="#233535" d="M34.938,27.014c-0.112,0.113-0.21,0.225-0.294,0.342c-0.016,0.023-0.014,0.057,0.008,0.078l1.238,1.238
					c0.023,0.023,0.062,0.024,0.086,0l0.162-0.162c0.023-0.023,0.022-0.062,0-0.085l-0.453-0.451
					c0.032-0.027,0.062-0.056,0.092-0.085c0.176-0.177,0.27-0.377,0.264-0.564c-0.004-0.146-0.066-0.283-0.191-0.406
					c-0.118-0.121-0.269-0.182-0.418-0.17C35.27,26.756,35.106,26.845,34.938,27.014z M35.566,27.669
					c-0.036,0.036-0.069,0.065-0.098,0.087l-0.418-0.419c0.022-0.028,0.057-0.065,0.105-0.114c0.116-0.115,0.287-0.219,0.455-0.051
					C35.808,27.369,35.666,27.567,35.566,27.669z"/>
				<path fill="#233535" d="M36.773,25.195l-0.205,0.207c-0.02,0.019-0.024,0.045-0.014,0.066l0.385,0.832
					c0.07,0.149,0.131,0.272,0.19,0.381c-0.107-0.06-0.228-0.123-0.376-0.195l-0.82-0.395c-0.024-0.012-0.051-0.006-0.068,0.013
					l-0.206,0.206c-0.024,0.023-0.024,0.058-0.004,0.082l1.167,1.342c0.011,0.012,0.027,0.02,0.043,0.021
					c0.017,0,0.034-0.006,0.046-0.018l0.154-0.154c0.022-0.023,0.022-0.061,0.003-0.082l-0.504-0.572
					c-0.091-0.102-0.188-0.207-0.277-0.307c0.092,0.05,0.193,0.103,0.309,0.16l0.803,0.395c0.021,0.01,0.051,0.007,0.068-0.012
					l0.124-0.123c0.017-0.018,0.022-0.043,0.012-0.066l-0.388-0.831c-0.057-0.118-0.109-0.229-0.162-0.333
					c0.106,0.098,0.217,0.197,0.316,0.285l0.583,0.52c0.021,0.021,0.059,0.021,0.08,0l0.161-0.16
					c0.01-0.012,0.014-0.028,0.015-0.043c-0.001-0.018-0.007-0.033-0.021-0.045l-1.332-1.176
					C36.833,25.174,36.795,25.174,36.773,25.195z"/>
			</g>
			<g>
				<path fill="#5BC914" d="M35.608,30.412c0.088,0.09,0.087,0.23,0,0.318l0,0c-0.089,0.088-0.23,0.09-0.319,0.001l0,0
					c-0.088-0.089-0.088-0.229,0.001-0.319l0,0C35.378,30.325,35.52,30.324,35.608,30.412L35.608,30.412z"/>
				<path fill="#5BC914" d="M36.473,31.277c0.088,0.088,0.088,0.23,0,0.317l0,0c-0.09,0.089-0.229,0.089-0.318,0.001l0,0
					c-0.088-0.088-0.088-0.23,0-0.318l0,0C36.243,31.189,36.383,31.188,36.473,31.277L36.473,31.277z"/>
			</g>
		</g>
	</g>
</g>
<g id="nyt_x5F_exporter_x5F_info" display="none">
</g>
</svg>
