<?xml version="1.0" encoding="utf-8"?>
<!-- Generator: Adobe Illustrator 16.0.0, SVG Export Plug-In . SVG Version: 6.00 Build 0)  -->
<!DOCTYPE svg PUBLIC "-//W3C//DTD SVG 1.1//EN" "http://www.w3.org/Graphics/SVG/1.1/DTD/svg11.dtd">
<svg version="1.1" id="Layer_1" xmlns="http://www.w3.org/2000/svg" xmlns:xlink="http://www.w3.org/1999/xlink" x="0px" y="0px"
	 width="65px" height="65px" viewBox="0 0 65 65" enable-background="new 0 0 65 65" xml:space="preserve">
<g>
	<path fill="#5A7882" d="M27.068,13.795c0.8,0.801,0.8,2.1,0,2.901l-3.99,3.989c-0.801,0.801-2.101,0.801-2.901,0L7.482,7.992
		c-0.801-0.802-0.801-2.1,0-2.902l3.99-3.989c0.801-0.801,2.1-0.801,2.901,0L27.068,13.795z"/>
	<path fill="#445F66" d="M28.434,15.161c0.801,0.8,0.801,2.1,0,2.901l-3.989,3.989c-0.802,0.801-2.102,0.801-2.901,0L8.849,9.358
		c-0.801-0.802-0.801-2.101,0-2.902l3.99-3.989c0.8-0.801,2.1-0.801,2.901,0L28.434,15.161z"/>
	<path fill="#445F66" d="M42.67,29.398c0.803,0.8,0.803,2.1,0,2.9l-3.988,3.99c-0.801,0.801-2.101,0.801-2.901,0L23.086,23.596
		c-0.801-0.802-0.801-2.101,0-2.902l3.99-3.989c0.801-0.801,2.101-0.801,2.901,0L42.67,29.398z"/>
	<path fill="#06385E" d="M42.81,24.834c1.348,1.348,1.348,3.533,0,4.882l-6.711,6.711c-1.349,1.349-3.534,1.349-4.882,0
		L9.861,15.071c-1.349-1.349-1.349-3.533,0-4.882l6.711-6.712c1.348-1.347,3.533-1.347,4.881,0L42.81,24.834z"/>
	<path fill="#012338" d="M9.861,10.189l6.711-6.712c1.348-1.347,3.533-1.347,4.881,0L42.81,24.834c1.348,1.348,1.348,3.533,0,4.882
		l-6.711,6.711c-1.349,1.349-3.534,1.349-4.882,0"/>
	<g>
		<path fill="#5A7882" d="M33.191,59.11c-5.414,0-10.828-2.062-14.949-6.183c-8.244-8.242-8.244-21.654,0-29.898
			c0.842-0.842,2.207-0.842,3.05,0s0.843,2.208,0,3.051c-6.561,6.562-6.561,17.236,0,23.797c6.562,6.561,17.236,6.561,23.798,0
			c0.842-0.843,2.208-0.843,3.051,0c0.842,0.843,0.842,2.208,0,3.051C44.019,57.049,38.605,59.11,33.191,59.11z"/>
	</g>
	<path fill="#476168" d="M18.242,23.029c-7.758,7.758-8.209,20.091-1.365,28.387c3.889,3.209,8.66,4.818,13.438,4.818
		c5.415,0,10.828-2.062,14.949-6.184c0.172-0.172,0.301-0.368,0.401-0.576c-0.206,0.104-0.403,0.23-0.575,0.402
		c-6.562,6.561-17.236,6.561-23.798,0c-0.487-0.488-0.927-1.004-1.343-1.533c-0.529-0.416-1.047-0.855-1.533-1.343
		c-6.561-6.561-6.561-17.235,0-23.797c0.172-0.172,0.299-0.369,0.402-0.575C18.611,22.729,18.414,22.857,18.242,23.029z"/>
	<circle fill="#5BC914" cx="21.138" cy="23.459" r="4.692"/>
	<path fill="#439B0A" d="M17.82,20.141c1.832-1.833,4.803-1.833,6.636,0c1.831,1.832,1.831,4.802,0,6.635"/>
	<path fill="#476168" d="M58.117,49.5c0,1.391-1.126,2.5-2.518,2.5H38.917c-1.39,0-2.517-1.109-2.517-2.5l0,0
		c0-1.39,1.127-2.5,2.517-2.5H55.6C56.991,47,58.117,48.11,58.117,49.5L58.117,49.5z"/>
	<path fill="#5F7D84" d="M36.407,49.68L36.407,49.68C36.4,47.969,37.527,47,38.917,47H55.6c1.392,0,2.518,0.891,2.518,2.622l0,0"/>
	<path fill="#5F7D84" d="M33,61.084C33,61.59,32.59,62,32.083,62h-0.166C31.41,62,31,61.59,31,61.084v-2.168
		C31,58.41,31.41,58,31.917,58h0.166C32.59,58,33,58.41,33,58.916V61.084z"/>
	<path fill="#476168" d="M47,62.5c0,0.828-0.672,1.5-1.5,1.5h-27c-0.828,0-1.5-0.672-1.5-1.5l0,0c0-0.828,0.672-1.5,1.5-1.5h27
		C46.328,61,47,61.672,47,62.5L47,62.5z"/>
</g>
</svg>
