<?xml version="1.0" encoding="utf-8"?>
<!-- Generator: Adobe Illustrator 16.0.0, SVG Export Plug-In . SVG Version: 6.00 Build 0)  -->
<!DOCTYPE svg PUBLIC "-//W3C//DTD SVG 1.1//EN" "http://www.w3.org/Graphics/SVG/1.1/DTD/svg11.dtd">
<svg version="1.1" id="Layer_1" xmlns="http://www.w3.org/2000/svg" xmlns:xlink="http://www.w3.org/1999/xlink" x="0px" y="0px"
	 width="64px" height="64px" viewBox="0 0 64 64" enable-background="new 0 0 64 64" xml:space="preserve">
<g>
	<g>
		<g>
			<g>
				<path fill="#C3D7DD" d="M21.4,36.9c-0.3,0-0.6,0-0.9,0c-0.3,0-0.5-0.2-0.5-0.5c0-0.3,0.2-0.5,0.5-0.4c0.6,0,1.2,0,1.8,0
					c0.2,0,0.5,0.2,0.5,0.4c0,0.3-0.2,0.5-0.4,0.5C22.1,36.9,21.7,36.9,21.4,36.9z M18.6,36.6C18.6,36.6,18.6,36.6,18.6,36.6
					c-0.7-0.1-1.4-0.3-2-0.5c-0.2-0.1-0.4-0.4-0.3-0.6c0.1-0.2,0.3-0.4,0.6-0.3c0.6,0.2,1.2,0.3,1.8,0.4c0.3,0,0.4,0.3,0.4,0.6
					C19.1,36.5,18.9,36.6,18.6,36.6z M24.3,36.6c-0.2,0-0.4-0.2-0.5-0.4c-0.1-0.3,0.1-0.5,0.4-0.6c0.6-0.1,1.2-0.3,1.8-0.5
					c0.2-0.1,0.5,0.1,0.6,0.3s0,0.5-0.3,0.6C25.7,36.3,25.1,36.5,24.3,36.6C24.4,36.6,24.4,36.6,24.3,36.6z M15,35.5
					c-0.1,0-0.1,0-0.2,0c-0.6-0.3-1.2-0.6-1.7-0.9c-0.2-0.1-0.3-0.4-0.1-0.7c0.1-0.2,0.4-0.3,0.7-0.1c0.5,0.3,1.1,0.6,1.6,0.9
					c0.2,0.1,0.3,0.4,0.2,0.6C15.4,35.4,15.2,35.5,15,35.5z M27.9,35.4c-0.2,0-0.3-0.1-0.4-0.3c-0.1-0.2,0-0.5,0.2-0.6
					c0.5-0.3,1.1-0.6,1.6-0.9c0.2-0.1,0.5-0.1,0.7,0.1c0.1,0.2,0.1,0.5-0.1,0.7c-0.5,0.4-1.1,0.7-1.7,1C28.1,35.4,28,35.4,27.9,35.4
					z M11.8,33.4c-0.1,0-0.2,0-0.3-0.1c-0.4-0.3-0.7-0.6-1.1-1c-0.1-0.1-0.2-0.2-0.3-0.4c-0.2-0.2-0.2-0.5,0-0.7
					c0.2-0.2,0.5-0.2,0.7,0c0.1,0.1,0.2,0.2,0.3,0.3c0.3,0.3,0.7,0.6,1,0.9c0.2,0.2,0.2,0.5,0.1,0.7C12.1,33.4,11.9,33.4,11.8,33.4z
					 M31.1,33.3c-0.1,0-0.3-0.1-0.4-0.2c-0.2-0.2-0.1-0.5,0.1-0.7c0.3-0.2,0.6-0.5,0.9-0.8c0.2-0.2,0.3-0.3,0.5-0.5
					c0.2-0.2,0.5-0.2,0.7,0s0.2,0.5,0,0.7c-0.2,0.2-0.3,0.4-0.5,0.5c-0.3,0.3-0.6,0.6-0.9,0.8C31.3,33.3,31.2,33.3,31.1,33.3z
					 M9.2,30.7c-0.1,0-0.3-0.1-0.4-0.2c-0.4-0.5-0.7-1.1-1.1-1.7c-0.1-0.2,0-0.5,0.2-0.6c0.2-0.1,0.5,0,0.6,0.2
					c0.3,0.5,0.6,1.1,1,1.6c0.2,0.2,0.1,0.5-0.1,0.7C9.4,30.6,9.3,30.7,9.2,30.7z M33.7,30.5c-0.1,0-0.2,0-0.3-0.1
					c-0.2-0.2-0.3-0.5-0.1-0.7c0.4-0.5,0.7-1,1-1.6c0.1-0.2,0.4-0.3,0.6-0.2c0.2,0.1,0.3,0.4,0.2,0.6c-0.3,0.6-0.7,1.1-1,1.7
					C34,30.4,33.8,30.5,33.7,30.5z M7.4,27.3c-0.2,0-0.4-0.1-0.4-0.3c-0.2-0.6-0.4-1.2-0.6-1.9c-0.1-0.3,0.1-0.5,0.3-0.6
					c0.3-0.1,0.5,0.1,0.6,0.3c0.1,0.6,0.3,1.2,0.6,1.8c0.1,0.2,0,0.5-0.3,0.6C7.5,27.3,7.4,27.3,7.4,27.3z M35.5,27.1
					c-0.1,0-0.1,0-0.2,0C35,27,34.9,26.7,35,26.5c0.2-0.6,0.4-1.2,0.5-1.8c0.1-0.3,0.3-0.4,0.6-0.4c0.3,0.1,0.4,0.3,0.4,0.6
					c-0.1,0.6-0.3,1.3-0.6,1.9C35.8,27,35.7,27.1,35.5,27.1z M6.5,23.6c-0.2,0-0.4-0.2-0.4-0.4C6,22.6,6,22,6,21.4v-0.1
					c0-0.3,0.2-0.5,0.5-0.5C6.8,20.8,7,21,7,21.3v0.1c0,0.6-0.1,1.1,0,1.7C7,23.4,6.8,23.6,6.5,23.6C6.5,23.6,6.5,23.6,6.5,23.6z
					 M36.3,23.4C36.3,23.4,36.3,23.4,36.3,23.4c-0.3,0-0.5-0.3-0.5-0.5c0.1-0.5,0.1-1,0.1-1.5l0-0.3c0-0.3,0.2-0.5,0.5-0.5
					c0.3,0,0.5,0.2,0.5,0.5l0,0.4c0,0.5,0,1.1-0.1,1.6C36.8,23.2,36.6,23.4,36.3,23.4z M6.5,19.8C6.5,19.8,6.4,19.8,6.5,19.8
					c-0.3,0-0.5-0.3-0.5-0.5c0.1-0.6,0.2-1.3,0.4-1.9C6.5,17.1,6.7,16.9,7,17c0.3,0.1,0.4,0.3,0.3,0.6C7.2,18.2,7,18.8,7,19.4
					C6.9,19.6,6.7,19.8,6.5,19.8z M36.2,19.6c-0.2,0-0.4-0.2-0.5-0.4c-0.1-0.6-0.2-1.2-0.4-1.8c-0.1-0.3,0.1-0.5,0.3-0.6
					c0.3-0.1,0.5,0.1,0.6,0.3c0.2,0.6,0.3,1.3,0.4,1.9C36.7,19.3,36.6,19.6,36.2,19.6C36.3,19.6,36.3,19.6,36.2,19.6z M7.5,16.1
					c-0.1,0-0.1,0-0.2,0C7.1,16,6.9,15.7,7,15.5c0.2-0.6,0.5-1.2,0.9-1.8c0.1-0.2,0.4-0.3,0.7-0.2c0.2,0.1,0.3,0.4,0.2,0.7
					c-0.3,0.5-0.6,1.1-0.8,1.7C7.8,16,7.7,16.1,7.5,16.1z M35.2,15.9c-0.2,0-0.4-0.1-0.4-0.3c-0.2-0.6-0.5-1.1-0.8-1.6
					c-0.1-0.2-0.1-0.5,0.2-0.7c0.2-0.1,0.5-0.1,0.7,0.2c0.3,0.6,0.6,1.2,0.9,1.8c0.1,0.2,0,0.5-0.3,0.6
					C35.3,15.9,35.3,15.9,35.2,15.9z M9.4,12.8c-0.1,0-0.2,0-0.3-0.1c-0.2-0.2-0.3-0.5-0.1-0.7c0.4-0.5,0.8-1,1.3-1.5
					c0.2-0.2,0.5-0.2,0.7,0c0.2,0.2,0.2,0.5,0,0.7c-0.4,0.4-0.8,0.9-1.2,1.4C9.6,12.8,9.5,12.8,9.4,12.8z M33.3,12.7
					c-0.1,0-0.3-0.1-0.4-0.2c-0.4-0.5-0.8-0.9-1.2-1.4c-0.2-0.2-0.2-0.4-0.1-0.6c-0.2,0.1-0.4,0.1-0.6,0c-0.5-0.4-0.9-0.8-1.5-1.1
					c-0.2-0.1-0.3-0.4-0.1-0.7c0.1-0.2,0.4-0.3,0.7-0.1c0.5,0.4,1.1,0.8,1.6,1.2c0.2,0.2,0.2,0.4,0.1,0.6c0.2-0.1,0.4-0.1,0.6,0.1
					c0.5,0.5,0.9,1,1.3,1.5c0.2,0.2,0.1,0.5-0.1,0.7C33.5,12.6,33.4,12.7,33.3,12.7z M12,10.1c-0.1,0-0.3-0.1-0.4-0.2
					c-0.2-0.2-0.1-0.5,0.1-0.7c0.5-0.4,1.1-0.8,1.6-1.1C13.5,8,13.8,8.1,14,8.3c0.1,0.2,0.1,0.5-0.2,0.7c-0.5,0.3-1,0.7-1.5,1.1
					C12.2,10.1,12.1,10.1,12,10.1z M28.2,8.5c-0.1,0-0.1,0-0.2,0c-0.5-0.3-1.1-0.5-1.7-0.7C26,7.6,25.9,7.3,26,7.1
					c0.1-0.2,0.4-0.4,0.6-0.3c0.6,0.2,1.2,0.5,1.8,0.8c0.2,0.1,0.3,0.4,0.2,0.6C28.5,8.4,28.4,8.5,28.2,8.5z M15.3,8.1
					c-0.2,0-0.4-0.1-0.4-0.3c-0.1-0.2,0-0.5,0.2-0.6c0.6-0.3,1.2-0.5,1.8-0.7c0.3-0.1,0.5,0.1,0.6,0.3c0.1,0.3-0.1,0.5-0.3,0.6
					c-0.6,0.2-1.2,0.4-1.7,0.6C15.4,8.1,15.3,8.1,15.3,8.1z M24.6,7.2c0,0-0.1,0-0.1,0c-0.6-0.1-1.2-0.2-1.8-0.3
					c-0.3,0-0.5-0.3-0.4-0.5c0-0.3,0.3-0.4,0.5-0.4c0.7,0.1,1.3,0.2,1.9,0.3c0.3,0.1,0.4,0.3,0.4,0.6C25,7,24.8,7.2,24.6,7.2z
					 M18.9,7c-0.2,0-0.4-0.2-0.5-0.4c0-0.3,0.1-0.5,0.4-0.5c0.6-0.1,1.3-0.2,2-0.2c0.3,0,0.5,0.2,0.5,0.5c0,0.3-0.2,0.5-0.5,0.5
					C20.2,6.9,19.6,6.9,18.9,7C19,7,18.9,7,18.9,7z"/>
			</g>
			<g>
				<path fill="#C3D7DD" d="M42.6,58.1c-0.3,0-0.6,0-0.9,0c-0.3,0-0.5-0.2-0.5-0.5c0-0.3,0.2-0.5,0.5-0.4c0.6,0,1.2,0,1.8,0
					c0.2,0,0.5,0.2,0.5,0.4c0,0.3-0.2,0.5-0.4,0.5C43.4,58.1,43,58.1,42.6,58.1z M39.9,57.9C39.9,57.9,39.8,57.9,39.9,57.9
					c-0.7-0.1-1.4-0.3-2-0.5c-0.3-0.1-0.4-0.4-0.3-0.6c0.1-0.3,0.4-0.4,0.6-0.3c0.6,0.2,1.2,0.3,1.8,0.4c0.3,0,0.4,0.3,0.4,0.6
					C40.3,57.7,40.1,57.9,39.9,57.9z M45.6,57.8c-0.2,0-0.4-0.2-0.5-0.4c-0.1-0.3,0.1-0.5,0.4-0.6c0.6-0.1,1.2-0.3,1.8-0.5
					c0.3-0.1,0.5,0,0.6,0.3c0.1,0.2,0,0.5-0.3,0.6C46.9,57.5,46.3,57.7,45.6,57.8C45.6,57.8,45.6,57.8,45.6,57.8z M36.3,56.7
					c-0.1,0-0.1,0-0.2,0c-0.6-0.3-1.2-0.6-1.7-0.9c-0.2-0.1-0.3-0.4-0.1-0.7c0.1-0.2,0.4-0.3,0.7-0.2c0.5,0.3,1.1,0.6,1.6,0.9
					c0.2,0.1,0.3,0.4,0.2,0.6C36.6,56.6,36.4,56.7,36.3,56.7z M49.2,56.6c-0.2,0-0.3-0.1-0.4-0.3c-0.1-0.2,0-0.5,0.2-0.6
					c0.6-0.3,1.1-0.6,1.6-0.9c0.2-0.1,0.5-0.1,0.7,0.1c0.1,0.2,0.1,0.5-0.1,0.7c-0.5,0.4-1.1,0.7-1.7,1
					C49.3,56.6,49.2,56.6,49.2,56.6z M33,54.7c-0.1,0-0.2,0-0.3-0.1c-0.4-0.3-0.7-0.6-1.1-1c-0.1-0.1-0.2-0.2-0.4-0.4
					c-0.2-0.2-0.2-0.5,0-0.7c0.2-0.2,0.5-0.2,0.7,0c0.1,0.1,0.2,0.2,0.3,0.3c0.3,0.3,0.7,0.6,1,0.9c0.2,0.2,0.2,0.5,0.1,0.7
					C33.3,54.6,33.2,54.7,33,54.7z M52.4,54.5c-0.1,0-0.3-0.1-0.4-0.2c-0.2-0.2-0.1-0.5,0.1-0.7c0.3-0.2,0.6-0.5,0.9-0.8
					c0.2-0.2,0.3-0.3,0.5-0.5c0.2-0.2,0.5-0.2,0.7,0c0.2,0.2,0.2,0.5,0,0.7c-0.2,0.2-0.3,0.4-0.5,0.5c-0.3,0.3-0.6,0.6-0.9,0.8
					C52.6,54.5,52.5,54.5,52.4,54.5z M30.4,51.9c-0.1,0-0.3-0.1-0.4-0.2c-0.4-0.5-0.7-1.1-1.1-1.7c-0.1-0.2,0-0.5,0.2-0.6
					c0.2-0.1,0.5,0,0.6,0.2c0.3,0.5,0.6,1.1,1,1.6c0.2,0.2,0.1,0.5-0.1,0.7C30.6,51.9,30.5,51.9,30.4,51.9z M54.9,51.7
					c-0.1,0-0.2,0-0.3-0.1c-0.2-0.2-0.3-0.5-0.1-0.7c0.4-0.5,0.7-1,1-1.6c0.1-0.2,0.4-0.3,0.6-0.2c0.2,0.1,0.3,0.4,0.2,0.6
					c-0.3,0.6-0.6,1.1-1,1.7C55.2,51.7,55.1,51.7,54.9,51.7z M28.6,48.6c-0.2,0-0.4-0.1-0.4-0.3c-0.2-0.6-0.4-1.2-0.6-1.9
					c-0.1-0.3,0.1-0.5,0.3-0.6c0.3-0.1,0.5,0.1,0.6,0.3c0.1,0.6,0.3,1.2,0.6,1.8c0.1,0.2,0,0.5-0.3,0.6
					C28.7,48.5,28.7,48.6,28.6,48.6z M56.7,48.4c-0.1,0-0.1,0-0.2,0c-0.2-0.1-0.4-0.4-0.3-0.6c0.2-0.6,0.4-1.2,0.5-1.8
					c0.1-0.3,0.3-0.4,0.6-0.4c0.3,0.1,0.4,0.3,0.4,0.6c-0.1,0.6-0.3,1.3-0.6,1.9C57.1,48.2,56.9,48.4,56.7,48.4z M27.7,44.9
					c-0.2,0-0.5-0.2-0.5-0.4c-0.1-0.6-0.2-1.2-0.2-1.8v-0.1c0-0.3,0.3-0.5,0.5-0.5c0.3,0,0.5,0.2,0.5,0.5v0.1c0,0.6,0.1,1.1,0.1,1.7
					C28.2,44.6,28,44.8,27.7,44.9C27.7,44.9,27.7,44.9,27.7,44.9z M57.6,44.7C57.6,44.7,57.5,44.7,57.6,44.7c-0.3,0-0.5-0.3-0.5-0.5
					c0.1-0.5,0.1-1,0.1-1.5l0-0.2c0-0.3,0.2-0.4,0.5-0.4c0,0,0,0,0,0c0.3,0,0.5,0.1,0.5,0.4l0,0.3c0,0.5,0,1-0.1,1.6
					C58,44.5,57.8,44.7,57.6,44.7z M27.7,41.1C27.7,41.1,27.7,41.1,27.7,41.1c-0.3,0-0.5-0.3-0.5-0.5c0.1-0.6,0.2-1.3,0.4-1.9
					c0.1-0.3,0.3-0.4,0.6-0.3c0.3,0.1,0.4,0.3,0.3,0.6c-0.2,0.6-0.3,1.2-0.4,1.8C28.2,40.9,28,41.1,27.7,41.1z M57.5,40.8
					c-0.2,0-0.4-0.2-0.5-0.4c-0.1-0.6-0.2-1.2-0.4-1.8c-0.1-0.3,0.1-0.5,0.3-0.6s0.5,0.1,0.6,0.3c0.2,0.6,0.3,1.3,0.4,1.9
					C58,40.6,57.8,40.8,57.5,40.8C57.5,40.8,57.5,40.8,57.5,40.8z M28.7,37.4c-0.1,0-0.1,0-0.2,0c-0.2-0.1-0.4-0.4-0.3-0.6
					c0.2-0.6,0.5-1.2,0.9-1.8c0.1-0.2,0.4-0.3,0.6-0.2c0.2,0.1,0.3,0.4,0.2,0.6c-0.3,0.5-0.6,1.1-0.8,1.7
					C29.1,37.3,28.9,37.4,28.7,37.4z M56.4,37.2c-0.2,0-0.4-0.1-0.4-0.3c-0.2-0.6-0.5-1.1-0.8-1.6c-0.1-0.2-0.1-0.5,0.2-0.7
					c0.2-0.1,0.5-0.1,0.7,0.2c0.3,0.6,0.6,1.2,0.9,1.8c0.1,0.2,0,0.5-0.3,0.6C56.6,37.2,56.5,37.2,56.4,37.2z M30.6,34.1
					c-0.1,0-0.2,0-0.3-0.1c-0.2-0.2-0.3-0.5-0.1-0.7c0.4-0.5,0.8-1,1.3-1.5c0.2-0.2,0.5-0.2,0.7,0c0.2,0.2,0.2,0.5,0,0.7
					c-0.4,0.4-0.8,0.9-1.2,1.4C30.9,34,30.7,34.1,30.6,34.1z M54.5,33.9c-0.1,0-0.3-0.1-0.4-0.2c-0.4-0.5-0.8-1-1.2-1.4
					c-0.2-0.2-0.2-0.4-0.1-0.6c-0.2,0.1-0.4,0.1-0.6,0c-0.5-0.4-0.9-0.8-1.5-1.1c-0.2-0.1-0.3-0.4-0.1-0.7c0.2-0.2,0.4-0.3,0.7-0.1
					c0.5,0.4,1.1,0.8,1.6,1.2c0.2,0.2,0.2,0.4,0.1,0.6c0.2-0.1,0.4-0.1,0.6,0.1c0.5,0.5,0.9,1,1.3,1.5c0.2,0.2,0.1,0.5-0.1,0.7
					C54.7,33.9,54.6,33.9,54.5,33.9z M33.3,31.3c-0.1,0-0.3-0.1-0.4-0.2c-0.2-0.2-0.1-0.5,0.1-0.7c0.5-0.4,1.1-0.8,1.6-1.1
					c0.2-0.1,0.5-0.1,0.7,0.2c0.1,0.2,0.1,0.5-0.2,0.7c-0.5,0.3-1,0.7-1.5,1.1C33.5,31.3,33.4,31.3,33.3,31.3z M49.4,29.7
					c-0.1,0-0.1,0-0.2-0.1c-0.5-0.3-1.1-0.5-1.7-0.7c-0.2-0.1-0.4-0.4-0.3-0.6c0.1-0.2,0.4-0.4,0.6-0.3c0.6,0.2,1.2,0.5,1.8,0.8
					c0.2,0.1,0.3,0.4,0.2,0.6C49.8,29.6,49.6,29.7,49.4,29.7z M36.5,29.4c-0.2,0-0.4-0.1-0.4-0.3c-0.1-0.2,0-0.5,0.2-0.6
					c0.6-0.3,1.2-0.5,1.8-0.7c0.3-0.1,0.5,0.1,0.6,0.3c0.1,0.3-0.1,0.5-0.3,0.6c-0.6,0.2-1.2,0.4-1.7,0.6
					C36.6,29.4,36.6,29.4,36.5,29.4z M45.8,28.4c0,0-0.1,0-0.1,0c-0.6-0.1-1.2-0.2-1.8-0.3c-0.3,0-0.5-0.3-0.4-0.5
					c0-0.3,0.3-0.5,0.5-0.4c0.7,0.1,1.3,0.2,1.9,0.3c0.3,0.1,0.4,0.3,0.4,0.6C46.3,28.3,46.1,28.4,45.8,28.4z M40.1,28.3
					c-0.2,0-0.4-0.2-0.5-0.4c0-0.3,0.1-0.5,0.4-0.5c0.6-0.1,1.3-0.2,2-0.2c0.3,0,0.5,0.2,0.5,0.5c0,0.3-0.2,0.5-0.5,0.5
					C41.5,28.1,40.8,28.2,40.1,28.3C40.2,28.3,40.2,28.3,40.1,28.3z"/>
			</g>
		</g>
		<g>
			<g>
				<path fill="#C3D7DD" d="M21.4,58h-0.1c-0.3,0-0.5-0.2-0.5-0.5c0-0.3,0.2-0.5,0.5-0.5h0.1c0.6,0,1.1,0.1,1.7,0
					c0.3,0,0.5,0.2,0.5,0.5c0,0.3-0.2,0.5-0.4,0.5C22.6,58,22,58,21.4,58z M19.3,58C19.3,58,19.3,58,19.3,58c-0.7-0.1-1.4-0.2-2-0.4
					c-0.3-0.1-0.4-0.3-0.3-0.6c0.1-0.3,0.3-0.4,0.6-0.3c0.6,0.2,1.2,0.3,1.8,0.4c0.3,0,0.4,0.3,0.4,0.5C19.8,57.8,19.6,58,19.3,58z
					 M25,57.7c-0.2,0-0.4-0.1-0.5-0.4c-0.1-0.3,0.1-0.5,0.3-0.6c0.6-0.1,1.2-0.3,1.8-0.6c0.2-0.1,0.5,0,0.6,0.3
					c0.1,0.2,0,0.5-0.3,0.6c-0.6,0.2-1.2,0.4-1.9,0.6C25.1,57.7,25.1,57.7,25,57.7z M15.7,57c-0.1,0-0.1,0-0.2,0
					c-0.6-0.2-1.2-0.5-1.8-0.9c-0.2-0.1-0.3-0.4-0.2-0.6c0.1-0.2,0.4-0.3,0.7-0.2c0.5,0.3,1.1,0.6,1.7,0.8c0.2,0.1,0.4,0.4,0.3,0.6
					C16,56.9,15.9,57,15.7,57z M28.6,56.3c-0.2,0-0.3-0.1-0.4-0.2c-0.1-0.2,0-0.5,0.2-0.6c0.5-0.3,1.1-0.6,1.6-1
					c0.2-0.2,0.5-0.1,0.7,0.1c0.2,0.2,0.1,0.5-0.1,0.7c-0.5,0.4-1.1,0.7-1.7,1C28.7,56.3,28.6,56.3,28.6,56.3z M12.4,55.1
					c-0.1,0-0.2,0-0.3-0.1c-0.5-0.4-1-0.8-1.5-1.3c-0.2-0.2-0.2-0.5,0-0.7c0.2-0.2,0.5-0.2,0.7,0c0.4,0.4,0.9,0.8,1.4,1.2
					c0.2,0.2,0.3,0.5,0.1,0.7C12.6,55,12.5,55.1,12.4,55.1z M31.7,54.1c-0.1,0-0.3-0.1-0.3-0.2c-0.2-0.2-0.2-0.5,0-0.7
					c0.1-0.1,0.2-0.2,0.3-0.3c0.3-0.3,0.6-0.7,0.9-1c0.2-0.2,0.5-0.2,0.7-0.1c0.2,0.2,0.2,0.5,0.1,0.7c-0.3,0.4-0.6,0.7-1,1.1
					c-0.1,0.1-0.2,0.2-0.4,0.4C31.9,54,31.8,54.1,31.7,54.1z M9.6,52.5c-0.1,0-0.3-0.1-0.4-0.2c-0.4-0.5-0.8-1.1-1.1-1.6
					C8,50.4,8.1,50.2,8.3,50c0.2-0.1,0.5-0.1,0.7,0.2c0.3,0.5,0.7,1,1.1,1.5c0.2,0.2,0.1,0.5-0.1,0.7C9.8,52.4,9.7,52.5,9.6,52.5z
					 M34.1,51.1c-0.1,0-0.2,0-0.3-0.1c-0.2-0.1-0.3-0.4-0.1-0.7c0.3-0.5,0.6-1.1,0.9-1.6c0.1-0.2,0.4-0.3,0.6-0.2
					c0.2,0.1,0.3,0.4,0.2,0.6c-0.3,0.6-0.6,1.2-0.9,1.7C34.4,51.1,34.2,51.1,34.1,51.1z M7.7,49.2c-0.2,0-0.4-0.1-0.4-0.3
					c-0.3-0.6-0.5-1.2-0.7-1.8c-0.1-0.3,0.1-0.5,0.3-0.6c0.3-0.1,0.5,0.1,0.6,0.3c0.2,0.6,0.4,1.2,0.6,1.7c0.1,0.2,0,0.5-0.2,0.6
					C7.8,49.2,7.7,49.2,7.7,49.2z M35.7,47.7c0,0-0.1,0-0.1,0c-0.2-0.1-0.4-0.3-0.3-0.6c0.2-0.6,0.3-1.2,0.5-1.8
					c0-0.3,0.3-0.4,0.6-0.4c0.3,0,0.4,0.3,0.4,0.6c-0.1,0.6-0.3,1.3-0.5,1.9C36.1,47.6,35.9,47.7,35.7,47.7z M6.6,45.6
					c-0.2,0-0.4-0.2-0.5-0.4c-0.1-0.7-0.2-1.3-0.2-2c0-0.3,0.2-0.5,0.5-0.5c0.3,0,0.5,0.2,0.5,0.5c0,0.6,0.1,1.2,0.2,1.8
					C7.1,45.3,6.9,45.5,6.6,45.6C6.6,45.6,6.6,45.6,6.6,45.6z M36.4,43.9C36.4,43.9,36.4,43.9,36.4,43.9c-0.3,0-0.5-0.2-0.5-0.5
					c0-0.3,0-0.5,0-0.8c0-0.3,0-0.7,0-1c0-0.3,0.2-0.5,0.4-0.5c0.2,0,0.5,0.2,0.5,0.4c0,0.4,0,0.7,0,1.1c0,0.3,0,0.6,0,0.9
					C36.8,43.8,36.6,43.9,36.4,43.9z M6.4,41.8C6.4,41.8,6.4,41.8,6.4,41.8c-0.3,0-0.5-0.3-0.5-0.5c0.1-0.7,0.2-1.3,0.3-1.9
					c0.1-0.3,0.3-0.4,0.6-0.4c0.3,0.1,0.4,0.3,0.4,0.6c-0.1,0.6-0.2,1.2-0.3,1.8C6.9,41.6,6.7,41.8,6.4,41.8z M36.1,40.1
					c-0.2,0-0.4-0.2-0.5-0.4c-0.1-0.6-0.3-1.2-0.5-1.8c-0.1-0.2,0.1-0.5,0.3-0.6c0.2-0.1,0.5,0,0.6,0.3c0.2,0.6,0.4,1.3,0.5,1.9
					C36.6,39.8,36.5,40.1,36.1,40.1C36.2,40.1,36.1,40.1,36.1,40.1z M7.2,38c-0.1,0-0.1,0-0.2,0c-0.2-0.1-0.4-0.4-0.3-0.6
					c0.2-0.6,0.5-1.2,0.8-1.8c0.1-0.2,0.4-0.3,0.6-0.2c0.2,0.1,0.3,0.4,0.2,0.6c-0.3,0.5-0.5,1.1-0.7,1.7C7.6,37.9,7.4,38,7.2,38z
					 M34.9,36.5c-0.2,0-0.3-0.1-0.4-0.3c-0.3-0.6-0.6-1.1-0.9-1.6c-0.1-0.2-0.1-0.5,0.1-0.7c0.2-0.1,0.5-0.1,0.7,0.1
					c0.4,0.5,0.7,1.1,1,1.7c0.1,0.2,0,0.5-0.2,0.6C35,36.5,35,36.5,34.9,36.5z M9,34.7c-0.1,0-0.2,0-0.3-0.1
					c-0.2-0.1-0.3-0.4-0.1-0.7c0.4-0.5,0.8-1.1,1.2-1.6c0.2-0.2,0.4-0.2,0.6-0.1c-0.1-0.2-0.1-0.4,0.1-0.6c0.5-0.5,1-0.9,1.5-1.3
					c0.2-0.2,0.5-0.1,0.7,0.1c0.2,0.2,0.1,0.5-0.1,0.7c-0.5,0.4-1,0.8-1.4,1.2c-0.2,0.2-0.4,0.2-0.6,0.1c0.1,0.2,0.1,0.4,0,0.6
					c-0.4,0.5-0.8,0.9-1.1,1.5C9.3,34.6,9.1,34.7,9,34.7z M32.8,33.4c-0.1,0-0.3-0.1-0.4-0.2c-0.2-0.3-0.5-0.6-0.8-0.9
					c-0.2-0.2-0.3-0.3-0.5-0.5c-0.2-0.2-0.2-0.5,0-0.7c0.2-0.2,0.5-0.2,0.7,0c0.2,0.2,0.4,0.3,0.5,0.5c0.3,0.3,0.6,0.6,0.8,0.9
					c0.2,0.2,0.1,0.5-0.1,0.7C33,33.3,32.9,33.4,32.8,33.4z M30,30.8c-0.1,0-0.2,0-0.3-0.1c-0.5-0.4-1-0.7-1.6-1
					c-0.2-0.1-0.3-0.4-0.2-0.6c0.1-0.2,0.4-0.3,0.6-0.2c0.6,0.3,1.1,0.6,1.7,1c0.2,0.2,0.3,0.4,0.1,0.7C30.3,30.7,30.2,30.8,30,30.8
					z M13.8,30.1c-0.2,0-0.3-0.1-0.4-0.2c-0.1-0.2-0.1-0.5,0.2-0.7c0.6-0.3,1.2-0.6,1.8-0.9c0.2-0.1,0.5,0,0.6,0.3
					c0.1,0.2,0,0.5-0.3,0.6c-0.6,0.2-1.1,0.5-1.6,0.8C13.9,30.1,13.8,30.1,13.8,30.1z M26.6,29c-0.1,0-0.1,0-0.2,0
					c-0.6-0.2-1.2-0.4-1.8-0.5c-0.3-0.1-0.4-0.3-0.4-0.6c0.1-0.3,0.3-0.4,0.6-0.4c0.6,0.1,1.3,0.3,1.9,0.6c0.2,0.1,0.4,0.4,0.3,0.6
					C27,28.9,26.8,29,26.6,29z M17.3,28.6c-0.2,0-0.4-0.1-0.5-0.3c-0.1-0.3,0.1-0.5,0.3-0.6c0.6-0.2,1.3-0.3,1.9-0.4
					c0.3,0,0.5,0.1,0.5,0.4c0,0.3-0.1,0.5-0.4,0.5c-0.6,0.1-1.2,0.2-1.8,0.4C17.4,28.6,17.3,28.6,17.3,28.6z M22.9,28.2
					C22.9,28.2,22.9,28.2,22.9,28.2c-0.6-0.1-1.1-0.1-1.6-0.1l-0.3,0c-0.2,0-0.5-0.2-0.5-0.5c0-0.3,0.2-0.5,0.5-0.5l0.4,0
					c0.5,0,1.1,0,1.6,0.1c0.3,0,0.5,0.3,0.4,0.5C23.4,28,23.2,28.2,22.9,28.2z"/>
			</g>
			<g>
				<path fill="#C3D7DD" d="M42.6,36.9l-0.1,0c-0.3,0-0.5-0.2-0.5-0.5c0-0.3,0.2-0.5,0.5-0.5l0.1,0c0.6,0,1.1,0,1.7-0.1
					c0.3,0,0.5,0.2,0.5,0.4c0,0.3-0.2,0.5-0.4,0.5C43.8,36.8,43.2,36.9,42.6,36.9z M40.6,36.7C40.6,36.7,40.5,36.7,40.6,36.7
					c-0.7-0.1-1.4-0.2-2-0.4c-0.3-0.1-0.4-0.3-0.3-0.6c0.1-0.3,0.3-0.4,0.6-0.3c0.6,0.2,1.2,0.3,1.8,0.4c0.3,0,0.4,0.3,0.4,0.5
					C41,36.6,40.8,36.7,40.6,36.7z M46.3,36.4c-0.2,0-0.4-0.1-0.5-0.4c-0.1-0.3,0.1-0.5,0.3-0.6c0.6-0.1,1.2-0.3,1.8-0.6
					c0.2-0.1,0.5,0,0.6,0.3c0.1,0.2,0,0.5-0.3,0.6c-0.6,0.2-1.2,0.4-1.9,0.6C46.3,36.4,46.3,36.4,46.3,36.4z M36.9,35.8
					c-0.1,0-0.1,0-0.2,0c-0.6-0.2-1.2-0.5-1.8-0.9c-0.2-0.1-0.3-0.4-0.2-0.7c0.1-0.2,0.4-0.3,0.6-0.2c0.5,0.3,1.1,0.6,1.7,0.8
					c0.2,0.1,0.4,0.4,0.3,0.6C37.3,35.6,37.1,35.8,36.9,35.8z M49.8,35.1c-0.2,0-0.3-0.1-0.4-0.2c-0.1-0.2,0-0.5,0.2-0.6
					c0.5-0.3,1.1-0.6,1.6-1c0.2-0.2,0.5-0.1,0.7,0.1c0.2,0.2,0.1,0.5-0.1,0.7c-0.5,0.4-1.1,0.7-1.7,1C50,35,49.9,35.1,49.8,35.1z
					 M33.6,33.9c-0.1,0-0.2,0-0.3-0.1c-0.5-0.4-1-0.8-1.5-1.3c-0.2-0.2-0.2-0.5,0-0.7c0.2-0.2,0.5-0.2,0.7,0
					c0.4,0.4,0.9,0.8,1.4,1.2c0.2,0.2,0.3,0.5,0.1,0.7C33.9,33.8,33.7,33.9,33.6,33.9z M52.9,32.8c-0.1,0-0.3-0.1-0.3-0.2
					c-0.2-0.2-0.2-0.5,0-0.7c0.1-0.1,0.2-0.2,0.3-0.3c0.3-0.3,0.6-0.7,0.9-1c0.2-0.2,0.5-0.2,0.7-0.1c0.2,0.2,0.2,0.5,0.1,0.7
					c-0.3,0.4-0.6,0.7-1,1.1c-0.1,0.1-0.2,0.2-0.4,0.4C53.1,32.8,53,32.8,52.9,32.8z M30.9,31.2c-0.1,0-0.3-0.1-0.4-0.2
					c-0.4-0.5-0.8-1.1-1.1-1.6c-0.1-0.2-0.1-0.5,0.2-0.7c0.2-0.1,0.5-0.1,0.7,0.2c0.3,0.5,0.7,1,1.1,1.5c0.2,0.2,0.1,0.5-0.1,0.7
					C31.1,31.2,31,31.2,30.9,31.2z M55.3,29.9c-0.1,0-0.2,0-0.3-0.1c-0.2-0.1-0.3-0.4-0.2-0.7c0.3-0.5,0.6-1.1,0.9-1.6
					c0.1-0.2,0.4-0.3,0.6-0.2c0.2,0.1,0.3,0.4,0.2,0.6c-0.3,0.6-0.6,1.2-0.9,1.7C55.6,29.8,55.5,29.9,55.3,29.9z M28.9,28
					c-0.2,0-0.4-0.1-0.4-0.3c-0.3-0.6-0.5-1.2-0.7-1.8c-0.1-0.3,0.1-0.5,0.3-0.6c0.3-0.1,0.5,0.1,0.6,0.3c0.2,0.6,0.4,1.2,0.6,1.7
					c0.1,0.2,0,0.5-0.2,0.6C29,28,29,28,28.9,28z M56.9,26.4c0,0-0.1,0-0.1,0c-0.3-0.1-0.4-0.3-0.3-0.6c0.2-0.6,0.3-1.2,0.5-1.8
					c0-0.3,0.3-0.4,0.6-0.4c0.3,0,0.4,0.3,0.4,0.6c-0.1,0.6-0.3,1.3-0.5,1.9C57.3,26.3,57.1,26.4,56.9,26.4z M27.8,24.3
					c-0.2,0-0.4-0.2-0.5-0.4c-0.1-0.6-0.2-1.5-0.2-2.2c0-0.3,0.2-0.7,0.5-0.7c0,0,0,0,0,0c0.3,0,0.5,0.4,0.5,0.7
					c0,0.6,0.1,1.3,0.2,2C28.3,23.9,28.1,24.2,27.8,24.3C27.9,24.3,27.8,24.3,27.8,24.3z M57.6,23C57.6,23,57.6,23,57.6,23
					c-0.3,0-0.5-0.4-0.5-0.7c0-0.3,0-0.6,0-0.9c0-0.3,0-0.7,0-1.1c0-0.3,0.2-0.5,0.4-0.5c0.2,0,0.5,0.2,0.5,0.4c0,0.4,0,0.7,0,1.1
					c0,0.3,0,0.7,0,1C58.1,22.7,57.9,23,57.6,23z M27.7,20.5C27.6,20.5,27.6,20.5,27.7,20.5c-0.3,0-0.5-0.3-0.5-0.5
					c0.1-0.7,0.2-1.3,0.3-1.9c0.1-0.3,0.3-0.4,0.6-0.4c0.3,0.1,0.4,0.3,0.4,0.6c-0.1,0.6-0.2,1.2-0.3,1.8
					C28.1,20.3,27.9,20.5,27.7,20.5z M57.4,18.9c-0.2,0-0.4-0.2-0.5-0.4c-0.1-0.6-0.3-1.2-0.5-1.8c-0.1-0.2,0-0.5,0.3-0.6
					c0.3-0.1,0.5,0,0.6,0.3c0.2,0.6,0.4,1.3,0.5,1.9C57.9,18.6,57.7,18.8,57.4,18.9C57.4,18.9,57.4,18.9,57.4,18.9z M28.5,16.8
					c-0.1,0-0.1,0-0.2,0c-0.2-0.1-0.4-0.4-0.3-0.6c0.2-0.6,0.5-1.2,0.8-1.8c0.1-0.2,0.4-0.3,0.6-0.2c0.2,0.1,0.3,0.4,0.2,0.6
					c-0.3,0.5-0.5,1.1-0.7,1.7C28.8,16.7,28.7,16.8,28.5,16.8z M56.1,15.3c-0.2,0-0.3-0.1-0.4-0.3c-0.3-0.6-0.6-1.1-0.9-1.6
					c-0.1-0.2-0.1-0.5,0.1-0.7c0.2-0.1,0.5-0.1,0.7,0.1c0.4,0.5,0.7,1.1,1,1.7c0.1,0.2,0,0.5-0.2,0.6C56.3,15.3,56.2,15.3,56.1,15.3
					z M30.2,13.4c-0.1,0-0.2,0-0.3-0.1c-0.2-0.1-0.3-0.4-0.1-0.7c0.4-0.5,0.8-1.1,1.2-1.6c0.2-0.2,0.4-0.2,0.6-0.1
					c-0.1-0.2-0.1-0.4,0.1-0.6c0.5-0.5,1-0.9,1.5-1.3C33.3,9,33.6,9,33.8,9.2c0.2,0.2,0.1,0.5-0.1,0.7c-0.5,0.4-1,0.8-1.4,1.2
					c-0.2,0.2-0.4,0.2-0.6,0.1c0.1,0.2,0.1,0.4,0,0.6c-0.4,0.5-0.8,0.9-1.1,1.5C30.5,13.3,30.3,13.4,30.2,13.4z M54.1,12.1
					c-0.1,0-0.3-0.1-0.4-0.2c-0.3-0.3-0.5-0.6-0.8-0.9c-0.2-0.2-0.3-0.3-0.5-0.5c-0.2-0.2-0.2-0.5,0-0.7c0.2-0.2,0.5-0.2,0.7,0
					c0.2,0.2,0.4,0.3,0.5,0.5c0.3,0.3,0.6,0.6,0.8,0.9c0.2,0.2,0.1,0.5-0.1,0.7C54.3,12.1,54.2,12.1,54.1,12.1z M51.2,9.5
					c-0.1,0-0.2,0-0.3-0.1c-0.5-0.4-1-0.7-1.6-1c-0.2-0.1-0.3-0.4-0.2-0.6c0.1-0.2,0.4-0.3,0.6-0.2c0.6,0.3,1.1,0.6,1.7,1
					c0.2,0.2,0.3,0.5,0.1,0.7C51.5,9.5,51.4,9.5,51.2,9.5z M35,8.9c-0.2,0-0.3-0.1-0.4-0.2c-0.1-0.2-0.1-0.5,0.2-0.7
					c0.6-0.3,1.2-0.6,1.8-0.9c0.2-0.1,0.5,0,0.6,0.3c0.1,0.2,0,0.5-0.3,0.6c-0.6,0.2-1.1,0.5-1.6,0.8C35.2,8.9,35.1,8.9,35,8.9z
					 M47.9,7.8c-0.1,0-0.1,0-0.2,0c-0.6-0.2-1.2-0.4-1.8-0.5c-0.3-0.1-0.4-0.3-0.4-0.6c0.1-0.3,0.3-0.4,0.6-0.4
					c0.6,0.1,1.3,0.3,1.9,0.6c0.2,0.1,0.4,0.4,0.3,0.6C48.3,7.7,48.1,7.8,47.9,7.8z M38.5,7.4c-0.2,0-0.4-0.1-0.5-0.3
					c-0.1-0.3,0.1-0.5,0.3-0.6c0.6-0.2,1.3-0.3,1.9-0.4c0.3,0,0.5,0.1,0.5,0.4c0,0.3-0.1,0.5-0.4,0.5c-0.6,0.1-1.2,0.2-1.8,0.4
					C38.6,7.4,38.6,7.4,38.5,7.4z M44.2,6.9C44.2,6.9,44.1,6.9,44.2,6.9c-0.6-0.1-1.1-0.1-1.6-0.1l-0.3,0c-0.3,0-0.5-0.2-0.5-0.5
					c0-0.3,0.2-0.5,0.5-0.5l0.4,0c0.5,0,1.1,0,1.6,0.1c0.3,0,0.5,0.3,0.4,0.5C44.6,6.7,44.4,6.9,44.2,6.9z"/>
			</g>
		</g>
		<g>
			<g>
				<g>
					<path fill="#50CE06" d="M32,33c-8.8,0-16-7.2-16-16c0-8.8,7.2-16,16-16c8.8,0,16,7.2,16,16C48,25.8,40.8,33,32,33z M32,2.9
						c-7.8,0-14.1,6.3-14.1,14.1S24.2,31.1,32,31.1c7.8,0,14.1-6.3,14.1-14.1S39.8,2.9,32,2.9z"/>
				</g>
				<g>
					<path fill="#50CE06" d="M32,63c-8.8,0-16-7.2-16-16s7.2-16,16-16c8.8,0,16,7.2,16,16S40.8,63,32,63z M32,32.9
						c-7.8,0-14.1,6.3-14.1,14.1S24.2,61.1,32,61.1c7.8,0,14.1-6.3,14.1-14.1S39.8,32.9,32,32.9z"/>
				</g>
			</g>
			<g>
				<g>
					<path fill="#50CE06" d="M17,48L17,48C8.2,48,1,40.8,1,32c0-8.8,7.2-16,16-16c8.8,0,16,7.2,16,16C33,40.8,25.8,48,17,48z
						 M17,17.9C9.2,17.9,2.9,24.2,2.9,32c0,7.8,6.3,14.1,14.1,14.1S31.1,39.8,31.1,32S24.7,17.9,17,17.9z"/>
				</g>
				<g>
					<path fill="#50CE06" d="M47,48L47,48c-8.8,0-16-7.2-16-16c0-8.8,7.2-16,16-16c8.8,0,16,7.2,16,16C63,40.8,55.8,48,47,48z
						 M47,17.9c-7.8,0-14.1,6.3-14.1,14.1c0,7.8,6.3,14.1,14.1,14.1c7.8,0,14.1-6.3,14.1-14.1S54.8,17.9,47,17.9z"/>
				</g>
			</g>
		</g>
	</g>
</g>
</svg>
