<?xml version="1.0" encoding="utf-8"?>
<!-- Generator: Adobe Illustrator 16.0.0, SVG Export Plug-In . SVG Version: 6.00 Build 0)  -->
<!DOCTYPE svg PUBLIC "-//W3C//DTD SVG 1.1//EN" "http://www.w3.org/Graphics/SVG/1.1/DTD/svg11.dtd">
<svg version="1.1" id="Layer_1" xmlns="http://www.w3.org/2000/svg" xmlns:xlink="http://www.w3.org/1999/xlink" x="0px" y="0px"
	 width="64px" height="64px" viewBox="0 0 64 64" enable-background="new 0 0 64 64" xml:space="preserve">
<g>
	<polygon fill="#34B515" points="40,42.3 32,43.9 24,42.3 24,62.8 32,54.9 40,62.8 	"/>
	<polyline fill="#329908" points="32,54.9 40,62.8 40,42.3 32,43.9 24.1,42.3 	"/>
	<path fill="#E57C0A" d="M51.3,28.1l3.8-3.8l-3.9-3.9l1.9-5l-5.1-2V8h-5.1l-2.1-5l-5,2.1L32,1.2l-3.9,3.9l-5-2.1l-2,5H16v5.4
		l-5.2,2.1l2,5L9,24.3l3.8,3.9l-1.9,5l5.1,2V41h5.1l2.1,4.8l5-2.2l3.8,3.7l3.9-3.9l5,2.3l2-4.8H48v-5.9l5.2-2.1L51.3,28.1z M34,27.7
		l-0.9-0.4l-0.4,1.1L32,27.6l-0.8,0.8l-0.3-1L30,27.8V27h-1.4l0.4-1.3l-1.1-0.5l0.8-0.9l-0.8-0.8l1-0.4L28.5,22H30v-1.2l0.9,0.4
		l0.4-1.1L32,21l0.8-0.8l0.3,1l0.9-0.4V22h1.4L35,23l1.1,0.4l-0.8,0.8l0.8,0.8l-1,0.6l0.4,1.3H34V27.7z"/>
	<path fill="#D16800" d="M15.7,13.4 M21.1,8 M28.1,5.1 M35.8,5 M16,35v6h5.1l2.1,4.8l5-2.2l3.8,3.7l3.9-3.9l5,2.3l2-4.8H48v-5.9
		l5.2-2.1l-2-5l3.8-3.8l-3.8-3.9l1.9-5l-5.1-2V8h-5 M12.7,20.5 M34,27.7l-0.9-0.4l-0.4,1.1L32,27.6l-0.8,0.8l-0.3-1L30,27.8V27h-1.4
		l0.4-1.3l-1.1-0.5l0.8-0.9l-0.8-0.8l1-0.4L28.5,22H30v-1.2l0.9,0.4l0.4-1.1L32,21l0.8-0.8l0.3,1l0.9-0.4V22h1.4L35,23l1.1,0.4
		l-0.8,0.8l0.8,0.8l-1,0.6l0.4,1.3H34V27.7z"/>
	<circle fill="#FFC41D" cx="32" cy="24.3" r="14.2"/>
	<path fill="#F4A211" d="M42.1,14.2c5.6,5.6,5.6,14.6,0,20.2s-14.6,5.6-20.2,0"/>
	<g>
		<path fill="#353A3A" d="M30,19h-0.1l-3.7,1.6l-0.7-3.3l5.1-2.3H34v19h-4V19z"/>
	</g>
	<g>
		<path fill="#1A1E1E" d="M34,15v19h-4v-7.6l0,0"/>
	</g>
</g>
</svg>
