<?xml version="1.0" encoding="utf-8"?>
<!-- Generator: Adobe Illustrator 16.0.0, SVG Export Plug-In . SVG Version: 6.00 Build 0)  -->
<!DOCTYPE svg PUBLIC "-//W3C//DTD SVG 1.1//EN" "http://www.w3.org/Graphics/SVG/1.1/DTD/svg11.dtd">
<svg version="1.1" xmlns="http://www.w3.org/2000/svg" xmlns:xlink="http://www.w3.org/1999/xlink" x="0px" y="0px" width="65px"
	 height="65px" viewBox="0 0 65 65" enable-background="new 0 0 65 65" xml:space="preserve">
<g id="Layer_1">
	<g>
		<g>
			<g>
				<line fill="#348BC6" x1="53.096" y1="11.905" x2="11.906" y2="53.095"/>
			</g>
			<g>
				<path fill="#27C4CC" d="M11.906,55.595c-0.639,0-1.279-0.244-1.768-0.732c-0.977-0.977-0.977-2.559,0-3.535l41.189-41.189
					c0.977-0.977,2.559-0.977,3.535,0s0.977,2.559,0,3.535L13.674,54.862C13.186,55.351,12.545,55.595,11.906,55.595z"/>
			</g>
		</g>
		<g>
			<g>
				<line fill="#348BC6" x1="61.625" y1="32.499" x2="3.375" y2="32.501"/>
			</g>
			<g>
				<path fill="#27C4CC" d="M3.375,35.001c-1.381,0-2.5-1.119-2.5-2.5s1.119-2.5,2.5-2.5l58.25-0.002c1.381,0,2.5,1.119,2.5,2.5
					s-1.119,2.5-2.5,2.5L3.375,35.001z"/>
			</g>
		</g>
		<g>
			<g>
				<line fill="#348BC6" x1="53.096" y1="53.095" x2="11.906" y2="11.907"/>
			</g>
			<g>
				<path fill="#27C4CC" d="M53.096,55.595c-0.639,0-1.279-0.244-1.768-0.732L10.139,13.675c-0.977-0.976-0.977-2.559,0-3.535
					s2.559-0.977,3.535,0l41.189,41.188c0.977,0.976,0.977,2.559,0,3.535C54.375,55.351,53.736,55.595,53.096,55.595z"/>
			</g>
		</g>
		<g>
			<g>
				<circle fill="#348BC6" cx="32.501" cy="32.501" r="10.542"/>
			</g>
			<g>
				<path fill="#27C4CC" d="M32.5,45.542c-7.189,0-13.041-5.851-13.041-13.041c0-7.192,5.852-13.043,13.041-13.043
					c7.191,0,13.043,5.851,13.043,13.043C45.543,39.691,39.691,45.542,32.5,45.542z M32.5,24.458c-4.434,0-8.041,3.608-8.041,8.043
					c0,4.434,3.607,8.041,8.041,8.041c4.436,0,8.043-3.607,8.043-8.041C40.543,28.066,36.936,24.458,32.5,24.458z"/>
			</g>
		</g>
		<g>
			<g>
				<line fill="#348BC6" x1="32.5" y1="3.375" x2="32.5" y2="61.625"/>
			</g>
			<g>
				<path fill="#27C4CC" d="M32.5,64.125c-1.381,0-2.5-1.119-2.5-2.5V3.375c0-1.381,1.119-2.5,2.5-2.5s2.5,1.119,2.5,2.5v58.25
					C35,63.006,33.881,64.125,32.5,64.125z"/>
			</g>
		</g>
	</g>
</g>
<g id="nyt_x5F_exporter_x5F_info" display="none">
</g>
</svg>
