<?xml version="1.0" encoding="utf-8"?>
<!-- Generator: Adobe Illustrator 16.0.0, SVG Export Plug-In . SVG Version: 6.00 Build 0)  -->
<!DOCTYPE svg PUBLIC "-//W3C//DTD SVG 1.1//EN" "http://www.w3.org/Graphics/SVG/1.1/DTD/svg11.dtd">
<svg version="1.1" id="Layer_1" xmlns="http://www.w3.org/2000/svg" xmlns:xlink="http://www.w3.org/1999/xlink" x="0px" y="0px"
	 width="65px" height="65px" viewBox="0 0 65 65" enable-background="new 0 0 65 65" xml:space="preserve">
<g>
	<g>
		<g>
			<path fill="#9AB7AF" d="M16.499,31.22c0.294-0.001,0.533,0.238,0.532,0.532l0,0c0,0.295-0.238,0.533-0.532,0.533h-9.23
				c-0.293,0-0.529-0.238-0.529-0.533l0,0c-0.002-0.294,0.237-0.533,0.529-0.532H16.499z"/>
			<rect x="10.347" y="31.22" fill="#86A39A" width="2.514" height="1.065"/>
			<path fill="#86A39A" d="M7.269,32.285l0.909-0.001V31.22H7.269c-0.103,0-0.192,0.036-0.274,0.088v0.889
				C7.076,32.247,7.167,32.284,7.269,32.285z"/>
			<path fill="#B1C9C2" d="M6.915,30.539c0.327,0,0.59,0.266,0.592,0.592v1.242c0,0.327-0.265,0.592-0.592,0.592l0,0
				c-0.326,0-0.592-0.266-0.592-0.592v-1.242C6.323,30.804,6.587,30.539,6.915,30.539L6.915,30.539z"/>
			<path fill="#9AB7AF" d="M6.915,30.539L6.915,30.539c0.327,0,0.59,0.266,0.592,0.592v1.242c0,0.327-0.265,0.592-0.592,0.592l0,0"
				/>
		</g>
		<g>
			<path fill="#9AB7AF" d="M16.499,27.877c0.294,0,0.532,0.238,0.533,0.532l0,0c-0.001,0.295-0.239,0.532-0.533,0.532h-9.23
				c-0.292,0-0.529-0.238-0.531-0.532l0,0c0.002-0.294,0.238-0.532,0.531-0.532H16.499z"/>
			<rect x="10.346" y="27.877" fill="#86A39A" width="2.516" height="1.064"/>
			<path fill="#86A39A" d="M7.269,28.941h0.909v-1.064H7.269c-0.103,0-0.192,0.037-0.274,0.088v0.889
				C7.076,28.904,7.166,28.941,7.269,28.941z"/>
			<path fill="#B1C9C2" d="M6.915,27.197c0.327-0.001,0.592,0.264,0.592,0.592v1.241c0,0.327-0.265,0.592-0.592,0.593l0,0
				c-0.328,0-0.592-0.266-0.592-0.593v-1.241C6.323,27.461,6.587,27.196,6.915,27.197L6.915,27.197z"/>
			<path fill="#9AB7AF" d="M6.915,27.197L6.915,27.197c0.327-0.001,0.592,0.264,0.592,0.592v1.241c0,0.327-0.265,0.592-0.592,0.593
				l0,0"/>
		</g>
		<g>
			<path fill="#9AB7AF" d="M16.499,24.535c0.294-0.001,0.532,0.238,0.532,0.531l0,0c0.001,0.295-0.238,0.533-0.532,0.533h-9.23
				c-0.293,0-0.531-0.238-0.529-0.533l0,0c0-0.293,0.237-0.532,0.529-0.532L16.499,24.535z"/>
			<rect x="10.346" y="24.535" fill="#86A39A" width="2.515" height="1.064"/>
			<path fill="#86A39A" d="M7.269,25.6h0.909v-1.064l-0.909-0.001c-0.102,0.001-0.193,0.037-0.274,0.089v0.889
				C7.076,25.562,7.166,25.6,7.269,25.6z"/>
			<path fill="#B1C9C2" d="M6.915,23.854c0.327-0.001,0.592,0.265,0.59,0.591l0.002,1.242c0,0.327-0.265,0.592-0.592,0.592l0,0
				c-0.326,0-0.592-0.265-0.592-0.591v-1.243C6.323,24.119,6.589,23.854,6.915,23.854L6.915,23.854z"/>
			<path fill="#9AB7AF" d="M6.915,23.854L6.915,23.854c0.327-0.001,0.592,0.265,0.59,0.591l0.002,1.242
				c0,0.327-0.265,0.592-0.592,0.592l0,0"/>
		</g>
		<path fill="#D18D05" d="M10.524,22.371c0-0.356,0.288-0.646,0.646-0.646h2.849c0.356,0,0.646,0.289,0.646,0.646l-0.001,11.938
			c0,0.356-0.289,0.645-0.646,0.646l-2.849-0.001c-0.357,0-0.647-0.288-0.647-0.645L10.524,22.371 M9.104,22.371v11.938
			c0,1.139,0.928,2.064,2.066,2.064h2.85c1.139,0,2.064-0.926,2.064-2.064V22.371c0.001-1.14-0.926-2.064-2.064-2.065h-2.85
			C10.031,20.306,9.104,21.232,9.104,22.371L9.104,22.371z"/>
		<g>
			<path fill="#CE7406" d="M11.17,21.726h1.807l0.055-1.419l-1.861-0.001c-0.248,0-0.482,0.051-0.703,0.132l0.07,1.805
				C10.597,21.947,10.856,21.726,11.17,21.726z"/>
			<path fill="#CE7406" d="M12.465,34.953H11.17c-0.05,0-0.097-0.006-0.142-0.016l0.055,1.428c0.029,0,0.057,0.008,0.087,0.008
				h1.239L12.465,34.953z"/>
		</g>
		<path fill="#FFC112" d="M5.315,14.833l2.161,3.509c0,0.334,0.202,0.621,0.491,0.746l0.82,21.164c0,0.522,0.424,0.946,0.946,0.945
			h0.475c0.522,0,0.946-0.424,0.946-0.946l0.819-21.163c0.29-0.124,0.493-0.412,0.493-0.746l2.161-3.508
			c0-0.447-0.362-0.811-0.81-0.811H6.125C5.678,14.023,5.314,14.387,5.315,14.833z"/>
		<path fill="#EAAE1B" d="M5.315,14.833l2.486,3.292c0.001,0.335,0.282,0.744,0.572,0.868l0.414,21.259
			c0,0.522,0.424,0.946,0.946,0.945h0.475c0.522,0,0.946-0.424,0.946-0.946l0.819-21.163c0.29-0.124,0.493-0.412,0.493-0.746
			l2.161-3.508c0-0.447-0.362-0.811-0.81-0.811H6.125C5.678,14.023,5.314,14.387,5.315,14.833z"/>
		<path fill="#E2A00E" d="M6.655,14.834l2.162,3.508c-0.001,0.334,0.202,0.621,0.493,0.746l0.819,21.163
			c-0.001,0.366,0.209,0.679,0.513,0.838c0.304-0.159,0.513-0.472,0.513-0.838l0.819-21.163c0.29-0.124,0.493-0.412,0.493-0.746
			l2.161-3.508c0-0.447-0.362-0.811-0.81-0.811H7.465C7.018,14.023,6.655,14.386,6.655,14.834z"/>
		<path fill="#D18D05" d="M11.155,40.39c0.31,0,0.562,0.251,0.562,0.562l0,0c0,0.312-0.252,0.562-0.562,0.562H8.788
			c-0.31,0-0.562-0.252-0.562-0.562l0,0c0-0.311,0.252-0.562,0.562-0.562L11.155,40.39z"/>
	</g>
	<g>
		<g>
			<g>
				<g>
					<path fill="#C11043" d="M37.396,30.862c-0.111,1.912-2.659,3.317-5.694,3.143c-3.031-0.179-17.868-2.603-17.76-4.515
						c0.115-1.913,15.137-2.588,18.168-2.409C35.14,27.257,37.508,28.95,37.396,30.862z"/>
				</g>
				<g>
					<path fill="#C11043" d="M36.23,30.074c0.111-1.912,2.659-3.316,5.695-3.143c3.03,0.18,17.867,2.604,17.759,4.516
						c-0.113,1.912-15.136,2.588-18.167,2.408C38.487,33.68,36.118,31.986,36.23,30.074z"/>
				</g>
				<g>
					<path fill="#104956" d="M33.938,46.446c0,2.476-2.008,15.827-4.486,15.827c-2.475,0-4.482-13.352-4.482-15.827
						s2.008-4.484,4.482-4.484C31.931,41.962,33.938,43.971,33.938,46.446z"/>
					<path fill="#104956" d="M48.964,46.446c0,2.476-2.008,15.827-4.486,15.827c-2.475,0-4.482-13.352-4.482-15.827
						s2.008-4.484,4.482-4.484C46.956,41.962,48.964,43.971,48.964,46.446z"/>
				</g>
				<path fill="#C11043" d="M49.616,40.521c0,16.038-5.662,10.697-12.65,10.697c-6.986,0-12.65,5.341-12.65-10.697
					c0-9.17,5.666-16.604,12.65-16.604C43.952,23.918,49.616,31.352,49.616,40.521z"/>
				<path fill="#A30A3D" d="M27.544,29.47c2.666,1.211,5.912,1.825,9.424,1.825c3.51,0,6.754-0.614,9.42-1.824
					c-2.316-3.4-5.674-5.553-9.422-5.553C33.219,23.918,29.862,26.07,27.544,29.47z"/>
				<g>
					<path fill="#F45188" d="M34.499,62.354c0,1.896-2.26,2.146-5.045,2.146s-5.045-0.249-5.045-2.146
						c0-1.897,2.26-4.508,5.045-4.508S34.499,60.457,34.499,62.354z"/>
					<path fill="#D83573" d="M34.499,62.354c0,1.896-2.26,2.146-5.045,2.146s-5.045-0.249-5.045-2.146"/>
				</g>
				<g>
					<path fill="#F45188" d="M49.524,62.354c0,1.896-2.26,2.146-5.045,2.146s-5.045-0.249-5.045-2.146
						c0-1.897,2.26-4.508,5.045-4.508S49.524,60.457,49.524,62.354z"/>
					<path fill="#D83573" d="M49.524,62.354c0,1.896-2.26,2.146-5.045,2.146s-5.045-0.249-5.045-2.146"/>
				</g>
				<g>
					<path fill="#CE5715" d="M53.337,16.275c0,7.999-7.33,12.02-16.369,12.02c-9.041,0-16.373-4.021-16.373-12.02
						c0-8.001,7.332-15.775,16.373-15.775C46.007,0.5,53.337,8.274,53.337,16.275z"/>
					<path fill="#F9A9A0" d="M53.337,16.275c0,7.999-7.33,12.02-16.369,12.02c-9.041,0-16.373-4.021-16.373-12.02
						c0-8.001,7.332-9.192,16.373-9.192C46.007,7.083,53.337,8.274,53.337,16.275z"/>
					<path fill="#FF9997" d="M53.337,16.275c0,7.999-7.33,12.02-16.369,12.02c-9.041,0-16.373-4.021-16.373-12.02"/>
				</g>
				<g>
					<g>
						<circle fill="#113E49" cx="26.807" cy="18.32" r="1.464"/>
						<path d="M28.271,18.32c0,0.811-0.656,1.465-1.465,1.465s-1.463-0.654-1.463-1.465"/>
						<g>
							<path fill="#FFD3C5" d="M29.694,21.374c-0.078,0-0.158-0.028-0.219-0.091c-0.715-0.714-1.664-1.107-2.672-1.107h-0.002
								c-1.008,0-1.955,0.394-2.666,1.106c-0.121,0.121-0.316,0.124-0.436,0.001c-0.121-0.117-0.125-0.312-0.004-0.434
								c0.83-0.831,1.932-1.29,3.105-1.29h0.002c1.176,0,2.279,0.456,3.111,1.288c0.119,0.119,0.119,0.318,0,0.436
								C29.854,21.346,29.776,21.374,29.694,21.374z"/>
						</g>
					</g>
					<g>
						<circle fill="#113E49" cx="42.377" cy="18.32" r="1.464"/>
						<path d="M40.913,18.32c0,0.811,0.654,1.465,1.465,1.465c0.809,0,1.463-0.654,1.463-1.465"/>
						<g>
							<path fill="#FFD3C5" d="M39.489,21.374c0.076,0,0.156-0.028,0.217-0.091c0.715-0.714,1.664-1.107,2.672-1.107h0.002
								c1.008,0,1.957,0.394,2.668,1.106c0.119,0.121,0.314,0.124,0.436,0.001c0.121-0.117,0.123-0.312,0.002-0.434
								c-0.826-0.831-1.932-1.29-3.105-1.29h-0.002c-1.174,0-2.277,0.456-3.111,1.288c-0.117,0.119-0.117,0.318,0,0.436
								C39.329,21.346,39.407,21.374,39.489,21.374z"/>
						</g>
					</g>
				</g>
			</g>
		</g>
	</g>
	<g>
		<path fill="#F45188" d="M39.921,36.583c-0.789,0.043-1.566,0.223-2.311,0.51c-0.325-0.73-0.748-1.407-1.275-1.995
			c-0.525,0.588-0.948,1.265-1.273,1.995c-0.745-0.287-1.523-0.467-2.311-0.51c0.043,0.788,0.223,1.565,0.51,2.312
			c-0.73,0.324-1.408,0.746-1.995,1.273c0.587,0.527,1.265,0.95,1.995,1.274c-0.287,0.746-0.467,1.523-0.51,2.311
			c0.789-0.043,1.566-0.224,2.312-0.51c0.324,0.729,0.747,1.406,1.272,1.994c0.527-0.588,0.95-1.264,1.274-1.994
			c0.745,0.287,1.523,0.467,2.312,0.51c-0.043-0.787-0.223-1.564-0.51-2.311c0.73-0.324,1.408-0.747,1.994-1.275
			c-0.586-0.527-1.264-0.949-1.994-1.273C39.698,38.148,39.878,37.371,39.921,36.583z M38.285,40.168
			c0,0.267-0.021,0.528-0.05,0.787c-0.162,0.203-0.332,0.402-0.521,0.591c-0.189,0.189-0.389,0.359-0.592,0.521
			c-0.258,0.029-0.52,0.049-0.787,0.05c-0.266,0-0.527-0.021-0.785-0.049c-0.204-0.163-0.404-0.333-0.594-0.522
			c-0.188-0.188-0.357-0.387-0.52-0.59c-0.029-0.26-0.05-0.521-0.05-0.788s0.021-0.528,0.05-0.788
			c0.162-0.203,0.332-0.401,0.52-0.59c0.189-0.188,0.39-0.359,0.593-0.521c0.259-0.029,0.521-0.05,0.786-0.05
			c0.268,0,0.528,0.021,0.786,0.049c0.204,0.163,0.403,0.333,0.593,0.522c0.189,0.188,0.359,0.388,0.521,0.591
			C38.265,39.64,38.285,39.901,38.285,40.168z"/>
		<path fill="#F45188" d="M43.43,37.229c0.086-0.227,0.159-0.461,0.226-0.697c-0.479-0.713-1.033-1.391-1.662-2.021
			c-0.631-0.63-1.309-1.184-2.021-1.664c-0.237,0.066-0.471,0.141-0.699,0.228c0.495,1.111,0.712,2.315,0.648,3.509
			C41.114,36.519,42.319,36.735,43.43,37.229z"/>
		<path fill="#F45188" d="M29.243,43.106c-0.088,0.228-0.162,0.461-0.229,0.697c0.481,0.713,1.034,1.392,1.665,2.021
			s1.308,1.184,2.021,1.664c0.236-0.066,0.47-0.141,0.698-0.228c-0.493-1.111-0.712-2.315-0.647-3.509
			C31.558,43.817,30.353,43.6,29.243,43.106z"/>
		<path fill="#F45188" d="M39.274,47.261c0.228,0.088,0.46,0.162,0.696,0.228c0.713-0.479,1.392-1.033,2.022-1.663
			c0.629-0.63,1.183-1.309,1.662-2.021c-0.063-0.236-0.14-0.471-0.226-0.697c-1.11,0.493-2.315,0.711-3.509,0.646
			C39.984,44.946,39.768,46.15,39.274,47.261z"/>
		<path fill="#F45188" d="M33.396,33.074c-0.227-0.087-0.46-0.161-0.696-0.227c-0.713,0.479-1.39,1.033-2.021,1.663
			c-0.631,0.631-1.185,1.31-1.665,2.021c0.065,0.236,0.141,0.471,0.229,0.697c1.109-0.494,2.312-0.711,3.508-0.646
			C32.687,35.389,32.905,34.186,33.396,33.074z"/>
		<path fill="#F45188" d="M44.335,40.167c0-0.891-0.087-1.762-0.251-2.604c-0.215-0.121-0.433-0.233-0.654-0.333
			c-0.437,1.135-1.135,2.14-2.024,2.938c0.89,0.799,1.588,1.805,2.024,2.939c0.222-0.099,0.439-0.211,0.653-0.333
			C44.248,41.931,44.335,41.06,44.335,40.167z"/>
		<path fill="#F45188" d="M29.243,37.229c-0.224,0.1-0.44,0.212-0.656,0.333c-0.164,0.843-0.252,1.714-0.252,2.605
			s0.088,1.763,0.252,2.606c0.216,0.121,0.433,0.233,0.656,0.332c0.437-1.135,1.134-2.141,2.022-2.938
			C30.377,39.369,29.68,38.365,29.243,37.229z"/>
		<path fill="#F45188" d="M33.398,47.262c0.098,0.222,0.211,0.439,0.332,0.653c0.843,0.165,1.714,0.253,2.604,0.253
			c0.893,0,1.763-0.088,2.606-0.253c0.121-0.214,0.234-0.432,0.333-0.654c-1.135-0.436-2.14-1.133-2.939-2.023
			C35.537,46.128,34.532,46.825,33.398,47.262z"/>
		<path fill="#F45188" d="M39.272,33.074c-0.098-0.222-0.21-0.439-0.332-0.654c-0.843-0.164-1.713-0.252-2.605-0.252
			c-0.891,0-1.762,0.088-2.604,0.252c-0.122,0.215-0.234,0.433-0.334,0.654c1.136,0.437,2.142,1.135,2.938,2.023
			C37.135,34.209,38.139,33.511,39.272,33.074z"/>
	</g>
</g>
</svg>
