<?xml version="1.0" encoding="utf-8"?>
<!-- Generator: Adobe Illustrator 16.0.0, SVG Export Plug-In . SVG Version: 6.00 Build 0)  -->
<!DOCTYPE svg PUBLIC "-//W3C//DTD SVG 1.1//EN" "http://www.w3.org/Graphics/SVG/1.1/DTD/svg11.dtd">
<svg version="1.1" id="Layer_1" xmlns="http://www.w3.org/2000/svg" xmlns:xlink="http://www.w3.org/1999/xlink" x="0px" y="0px"
	 width="64px" height="64px" viewBox="0 0 64 64" enable-background="new 0 0 64 64" xml:space="preserve">
<g>
	<g>
		<g>
			<g>
				<g>
					<g>
						<path fill="#F7910B" d="M62.3,37.5C62.3,50.5,50.4,61,32,61C13.6,61,1.7,50.5,1.7,37.5S13.6,5,32,5
							C50.4,5,62.3,24.5,62.3,37.5z"/>
					</g>
					<g>
						<path fill="#F7910B" d="M62.3,37.5C62.3,50.5,50.4,57,32,57C13.6,57,1.7,50.5,1.7,37.5S13.6,3,32,3
							C50.4,3,62.3,24.5,62.3,37.5z"/>
					</g>
					<g>
						<path fill="#F9A908" d="M32,3c18.4,0,30.3,21.5,30.3,34.5S50.4,57,32,57"/>
					</g>
					<g>
						<path fill="#F9A908" d="M62.3,37.5C62.3,50.5,50.4,57,32,57C13.6,57,1.7,50.5,1.7,37.5S13.6,5,32,5
							C50.4,5,62.3,24.5,62.3,37.5z"/>
					</g>
					<g>
						<path fill="#F9C55D" d="M1.7,37.5C1.7,24.5,13.6,5,32,5"/>
					</g>
					<g>
						<path fill="#F7910B" d="M32,5c18.4,0,30.3,19.5,30.3,32.5S50.4,61,32,61"/>
					</g>
					<g>
						<path fill="#EA7103" d="M32,5c18.4,0,30.3,19.5,30.3,32.5"/>
					</g>
					<g>
						<g>
							<path fill="#F9C55D" d="M27.8,29.4c0,1.2-3.5,0.7-7.8,0.7c-4.3,0-7.8,0.6-7.8-0.7c0-1.2,3.5-2.2,7.8-2.2
								C24.3,27.2,27.8,28.2,27.8,29.4z"/>
						</g>
						<g>
							<path fill="#F9A908" d="M51.8,29.4c0,1.2-3.5,0.7-7.8,0.7s-7.8,0.6-7.8-0.7c0-1.2,3.5-2.2,7.8-2.2S51.8,28.2,51.8,29.4z"/>
						</g>
					</g>
					<g>
						<circle fill="#F7910B" cx="10.3" cy="34.5" r="0.6"/>
					</g>
					<g>
						<circle fill="#F7910B" cx="5.8" cy="36.5" r="1.1"/>
					</g>
					<g>
						<circle fill="#F7910B" cx="8.8" cy="32.5" r="0.2"/>
					</g>
					<g>
						<circle fill="#F7910B" cx="13.4" cy="34.3" r="0.2"/>
					</g>
					<g>
						<circle fill="#F9A908" cx="52.6" cy="34.8" r="0.8"/>
					</g>
					<g>
						<circle fill="#F9A908" cx="55.1" cy="36.2" r="0.2"/>
					</g>
					<g>
						<circle fill="#F9A908" cx="49.8" cy="27.4" r="0.3"/>
					</g>
					<g>
						<circle fill="#F9A908" cx="49.3" cy="39" r="1.3"/>
					</g>
					<g>
						<circle fill="#F9A908" cx="56.5" cy="39.1" r="0.6"/>
					</g>
					<g>
						<circle fill="#F7910B" cx="9.3" cy="38.5" r="0.5"/>
					</g>
					<g>
						<circle fill="#F7910B" cx="10.1" cy="30.1" r="0.4"/>
					</g>
					<g>
						<circle fill="#F9A908" cx="4.8" cy="16.3" r="1.1"/>
					</g>
					<g>
						<circle fill="#F9A908" cx="8" cy="12.8" r="0.6"/>
					</g>
					<g>
						<circle fill="#F9A908" cx="59.2" cy="18.7" r="0.2"/>
					</g>
					<g>
						<circle fill="#F9A908" cx="58.4" cy="15.8" r="0.8"/>
					</g>
					<g>
						<circle fill="#F9A908" cx="61" cy="16.3" r="0.5"/>
					</g>
					<g>
						<circle fill="#F9A908" cx="6" cy="19.3" r="0.6"/>
					</g>
				</g>
			</g>
		</g>
		<g>
			<g>
				<g>
					<g>
						<g>
							<path fill="#19BCA4" d="M29.2,23.3c-0.8,1.5-2.5,1.3-5.5-2.2c-2.3-2.6-6.5-2.3-5.7-3.8c0.8-1.5,4-1.4,7.1,0.3
								C28.1,19.2,30,21.8,29.2,23.3z"/>
						</g>
					</g>
				</g>
			</g>
			<g>
				<g>
					<g>
						<g>
							<path fill="#19BCA4" d="M34.8,23.3c0.8,1.5,2.5,1.3,5.5-2.2c2.3-2.6,6.5-2.3,5.7-3.8c-0.8-1.5-4-1.4-7.1,0.3
								C35.9,19.2,34,21.8,34.8,23.3z"/>
						</g>
					</g>
				</g>
			</g>
		</g>
		<g>
			<g>
				<g>
					<g>
						<g>
							<g>
								<path fill="#1E4784" d="M16.7,23.8c0.4,0,0.8,0.2,1.2,0.5c1.4,1.4,3.7,1.4,5.1,0c0.6-0.6,1.7-0.7,2.3,0
									c0.6,0.6,0.7,1.7,0,2.3c-2.7,2.7-7.1,2.7-9.8,0c-0.6-0.6-0.6-1.7,0-2.3C15.9,24,16.3,23.8,16.7,23.8z"/>
							</g>
						</g>
						<g>
							<g>
								<path fill="#02243E" d="M15.6,26.6c-0.6-0.6-0.6-1.7,0-2.3c0.3-0.3,0.7-0.5,1.2-0.5c0.4,0,0.8,0.2,1.2,0.5
									c1.4,1.4,3.7,1.4,5.1,0c0.6-0.6,1.7-0.7,2.3,0c0.6,0.6,0.7,1.7,0,2.3"/>
							</g>
						</g>
					</g>
				</g>
			</g>
			<g>
				<g>
					<g>
						<g>
							<g>
								<path fill="#1E4784" d="M47.3,23.8c-0.4,0-0.8,0.2-1.2,0.5c-1.4,1.4-3.7,1.4-5.1,0c-0.6-0.6-1.7-0.7-2.3,0
									c-0.6,0.6-0.7,1.7,0,2.3c2.7,2.7,7.1,2.7,9.8,0c0.6-0.6,0.6-1.7,0-2.3C48.1,24,47.7,23.8,47.3,23.8z"/>
							</g>
						</g>
						<g>
							<g>
								<path fill="#02243E" d="M48.4,26.6c0.6-0.6,0.6-1.7,0-2.3c-0.3-0.3-0.7-0.5-1.2-0.5c-0.4,0-0.8,0.2-1.2,0.5
									c-1.4,1.4-3.7,1.4-5.1,0c-0.6-0.6-1.7-0.7-2.3,0c-0.6,0.6-0.7,1.7,0,2.3"/>
							</g>
						</g>
					</g>
				</g>
			</g>
		</g>
		<g>
			<path fill="#F7910B" d="M23.7,47.6c0-4.8,3.7-11.6,8.2-11.6c4.6,0,8.2,6.8,8.2,11.6"/>
		</g>
		<g>
			
				<ellipse transform="matrix(0.9618 -0.2738 0.2738 0.9618 -13.4551 5.1601)" fill="#EA7103" cx="11.8" cy="50.8" rx="8.8" ry="8.5"/>
		</g>
	</g>
	<g>
		<g>
			<path fill="#F7910B" d="M39.4,36.1c0,2.6-3.3,4.7-7.4,4.7c-4.1,0-7.4-2.1-7.4-4.7"/>
		</g>
		<g>
			<g>
				<g>
					<path fill="#02243E" d="M41.7,41.1c-0.6,0-1.1-0.5-1.1-1.1c0-2.1,1.4-3.8,3.2-3.8c0.6,0,1.1,0.5,1.1,1.1s-0.5,1.1-1.1,1.1
						c-0.5,0-1,0.6-1,1.6C42.8,40.6,42.3,41.1,41.7,41.1z"/>
				</g>
				<g>
					<path fill="#02243E" d="M22.3,41.1c-0.6,0-1.1-0.5-1.1-1.1c0-0.9-0.5-1.6-1-1.6c-0.6,0-1.1-0.5-1.1-1.1s0.5-1.1,1.1-1.1
						c1.8,0,3.2,1.7,3.2,3.8C23.4,40.6,22.9,41.1,22.3,41.1z"/>
				</g>
			</g>
			<g>
				<path fill="#02243E" d="M42.3,39c-0.3,0-0.6-0.1-0.9-0.4c-2.5-3.2-5.9-5-9.5-5c0,0,0,0,0,0c-3.6,0-6.9,1.8-9.5,5
					c-0.4,0.5-1.1,0.6-1.5,0.2c-0.5-0.4-0.6-1.1-0.2-1.5c3-3.8,6.9-5.9,11.2-5.9c0,0,0,0,0,0c4.2,0,8.2,2.1,11.2,5.9
					c0.4,0.5,0.3,1.2-0.2,1.5C42.8,38.9,42.6,39,42.3,39z"/>
			</g>
		</g>
	</g>
	<g>
		<g>
			<g>
				<path fill="#CCF2E3" d="M6.6,29.5C4,29.6,1.9,35,2.1,41.5C2.3,48,6,52,8.7,52c2.7-0.1,3.3-4.2,3.1-10.7
					C11.6,34.7,9.3,29.4,6.6,29.5z"/>
			</g>
			<g>
				<path fill="#CCF2E3" d="M24.7,38c-4.7,6.4-5,3.7-6.8,2.3c-1.8-1.3-4.5-0.8,0.2-7.2c4.7-6.4,8-7.8,9.8-6.5
					C29.8,28,29.4,31.7,24.7,38z"/>
			</g>
			<g>
				<path fill="#AAD6C3" d="M28,26.7c1.8,1.3,1.5,5-3.2,11.3c-4.7,6.4-5,3.7-6.8,2.3"/>
			</g>
			<g>
				<path fill="#CCF2E3" d="M17,34.6c-4.7,6.4-5,3.7-6.8,2.3c-1.8-1.3-5.2,0-0.6-6.3c4.7-6.4,8.7-8.7,10.5-7.3
					C22,24.6,21.7,28.3,17,34.6z"/>
			</g>
			<g>
				<path fill="#AAD6C3" d="M20.2,23.3c1.8,1.3,1.5,5-3.2,11.3c-4.7,6.4-5,3.7-6.8,2.3"/>
			</g>
			<g>
				<path fill="#CCF2E3" d="M29.4,45.5c-4.7,6.4-5,3.7-6.8,2.3c-1.8-1.3-4.5-0.8,0.2-7.2c4.7-6.4,8-7.8,9.8-6.5
					C34.5,35.5,34.1,39.1,29.4,45.5z"/>
			</g>
			<g>
				<path fill="#AAD6C3" d="M32.6,34.2c1.8,1.3,1.5,5-3.2,11.3c-4.7,6.4-5,3.7-6.8,2.3"/>
			</g>
			<g>
				<path fill="#CCF2E3" d="M26.3,49.7c-4.3,5.9-11,8.6-16.9,4.2c-5.9-4.4-7.3-12.7-3-18.5c4.3-5.9,10.7-4.5,16.7-0.2
					C29,39.6,30.6,43.8,26.3,49.7z"/>
			</g>
			<g>
				<path fill="#AAD6C3" d="M26.3,49.7c-4.3,5.9-11,8.6-16.9,4.2C3.4,49.6,5.4,43,9.7,37.1c4.3-5.9,3.3-8.4,13-2.1
					C28.9,39,30.8,43.6,26.3,49.7z"/>
			</g>
		</g>
		<g>
			<path fill="#E7F7EF" d="M24.6,27.4c-1,0.5-1.6,1.2-1.5,1.5c0.2,0.3,1.1,0.1,2.1-0.4c1-0.5,1.6-1.2,1.5-1.5
				C26.5,26.7,25.6,26.9,24.6,27.4z"/>
		</g>
		<g>
			<path fill="#E7F7EF" d="M16.5,24.3c-1,0.5-1.6,1.2-1.5,1.5c0.2,0.3,1.1,0.1,2.1-0.4c1-0.5,1.6-1.2,1.5-1.5
				C18.4,23.6,17.5,23.8,16.5,24.3z"/>
		</g>
		<g>
			<path fill="#E7F7EF" d="M29.4,35.1c-1,0.5-1.6,1.2-1.5,1.5c0.2,0.3,1.1,0.1,2.1-0.4c1-0.5,1.6-1.2,1.5-1.5
				C31.3,34.4,30.3,34.6,29.4,35.1z"/>
		</g>
		<g>
			<path fill="#E7F7EF" d="M9.7,35.5c-1.4,2-2.9,3.3-3.3,3c-0.4-0.3,0.3-2.1,1.7-4.1c1.4-2,2.1-2.2,2.5-1.9
				C11,32.8,11.1,33.5,9.7,35.5z"/>
		</g>
		<g>
			<path fill="#E7F7EF" d="M6.2,33.8c-1,2.2-2.2,3.8-2.6,3.6c-0.5-0.2-0.1-2.2,0.9-4.4c1-2.2,1.6-2.5,2.1-2.3
				C7,31,7.2,31.7,6.2,33.8z"/>
		</g>
	</g>
</g>
</svg>
