<?xml version="1.0" encoding="utf-8"?>
<!-- Generator: Adobe Illustrator 16.0.0, SVG Export Plug-In . SVG Version: 6.00 Build 0)  -->
<!DOCTYPE svg PUBLIC "-//W3C//DTD SVG 1.1//EN" "http://www.w3.org/Graphics/SVG/1.1/DTD/svg11.dtd">
<svg version="1.1" id="Layer_1" xmlns="http://www.w3.org/2000/svg" xmlns:xlink="http://www.w3.org/1999/xlink" x="0px" y="0px"
	 width="65px" height="65px" viewBox="0 0 65 65" enable-background="new 0 0 65 65" xml:space="preserve">
<g>
	<g>
		<path fill="#FF6B3E" d="M57.715,21.255c0,11.463-11.289,8.404-25.215,8.404S7.285,32.719,7.285,21.255
			C7.285,9.792,18.575,0.5,32.5,0.5S57.715,9.792,57.715,21.255z"/>
		<path fill="#AD3100" d="M57.715,21.255c0,11.463-11.289,8.404-25.215,8.404S7.285,32.719,7.285,21.255
			C7.285,9.792,18.575,4.23,32.5,4.23S57.715,9.792,57.715,21.255z"/>
		<path fill="#D64505" d="M57.715,21.255c0,11.463-11.289,4.719-25.215,4.719S7.285,32.719,7.285,21.255
			C7.285,9.792,18.575,4.23,32.5,4.23S57.715,9.792,57.715,21.255z"/>
		<path fill="#D64505" d="M45.104,33.068c0,9.529-5.644,9.754-12.604,9.754c-6.959,0-12.604-0.225-12.604-9.754
			c0-9.528,5.645-17.256,12.604-17.256C39.46,15.812,45.104,23.541,45.104,33.068z"/>
		<path fill="#AD3100" d="M32.5,41.668c-6.572,0-11.967-1.973-12.547-10.024c-0.036,0.404-0.057,0.872-0.057,1.424
			c0,9.529,5.645,9.754,12.604,9.754c6.96,0,12.604-0.225,12.604-9.754c0-0.553-0.021-1.02-0.057-1.424
			C44.467,39.695,39.075,41.668,32.5,41.668z"/>
		<g>
			<g>
				<path fill="#FF6B3E" d="M28.662,19.24c0,3.602-2.918,6.518-6.519,6.518s-6.517-2.916-6.517-6.518c0-3.6,2.916-8.576,6.517-8.576
					S28.662,15.64,28.662,19.24z"/>
				<circle fill="#223A60" cx="22.144" cy="19.24" r="6.518"/>
				<path fill="#1A273F" d="M17.534,14.63c2.547-2.545,6.674-2.545,9.219,0c2.547,2.545,2.545,6.674,0,9.219"/>
			</g>
			<g>
				<path fill="#FF6B3E" d="M49.375,18.21c0,3.602-2.918,6.518-6.519,6.518c-3.602,0-6.517-2.916-6.517-6.518
					c0-3.6,2.915-7.547,6.517-7.547C46.457,10.664,49.375,14.611,49.375,18.21z"/>
				<circle fill="#223A60" cx="42.857" cy="19.24" r="6.518"/>
				<path fill="#1A273F" d="M38.247,14.63c2.547-2.545,6.674-2.545,9.219,0c2.547,2.545,2.545,6.674,0,9.219"/>
			</g>
		</g>
		<path fill="#FF6B3E" d="M35.356,27.027c0,1.576-1.278,0.053-2.854,0.053c-1.578,0-2.856,1.523-2.856-0.053
			c0-1.578,1.278-3.799,2.856-3.799C34.078,23.228,35.356,25.449,35.356,27.027z"/>
		<path fill="#1A273F" d="M35.356,27.027c0,1.576-1.278,0.053-2.854,0.053c-1.578,0-2.856,1.523-2.856-0.053
			c0-1.578,1.278-2.855,2.856-2.855C34.078,24.171,35.356,25.449,35.356,27.027z"/>
	</g>
	<g>
		<g>
			<path fill="#0B1423" d="M39.93,59.533c-0.637,1.006-1.965,1.307-2.972,0.668l-11.215-7.08c-1.007-0.637-1.305-1.969-0.671-2.975
				l0,0c0.637-1.006,1.965-1.307,2.973-0.67l11.214,7.082C40.265,57.193,40.566,58.525,39.93,59.533L39.93,59.533z"/>
			<g>
				<path fill="#0B1423" d="M27.653,51.775c-1.339,2.119-4.137,2.748-6.25,1.41c-2.118-1.334,0.709-1.949,2.043-4.066
					c1.339-2.115,0.678-4.932,2.795-3.596C28.357,46.859,28.987,49.658,27.653,51.775z"/>
				<path fill="#0B1423" d="M37.351,57.902c1.335-2.115,4.134-2.75,6.248-1.412c2.119,1.338-0.708,1.951-2.044,4.066
					c-1.337,2.117-0.678,4.934-2.795,3.598C36.644,62.814,36.015,60.02,37.351,57.902z"/>
			</g>
			<path fill="#3D5A84" d="M35.737,55.512c-0.163,0.258-2.061-0.648-4.244-2.025c-2.18-1.379-3.815-2.707-3.654-2.963
				c0.166-0.258,2.064,0.65,4.244,2.027C34.264,53.926,35.899,55.252,35.737,55.512z"/>
			<path fill="#3D5A84" d="M36.962,56.414c-0.106,0.168-0.327,0.219-0.495,0.113c-0.169-0.107-0.219-0.326-0.115-0.494
				c0.107-0.17,0.331-0.219,0.499-0.111C37.016,56.025,37.069,56.246,36.962,56.414z"/>
			<g>
				<path fill="#3D5A84" d="M27.639,48.934c-0.29,0.174-0.912-0.33-1.396-1.127c-0.48-0.799-0.64-1.586-0.35-1.758
					c0.285-0.174,0.909,0.332,1.392,1.129C27.767,47.973,27.924,48.762,27.639,48.934z"/>
				
					<ellipse transform="matrix(-0.995 -0.1002 0.1002 -0.995 77.2931 117.6037)" fill="#3D5A84" cx="41.601" cy="56.86" rx="1.686" ry="0.609"/>
			</g>
		</g>
		<g>
			<path fill="#223A60" d="M25.071,59.533c0.637,1.006,1.965,1.307,2.972,0.668l11.217-7.08c1.006-0.637,1.305-1.969,0.671-2.975
				l0,0c-0.639-1.006-1.968-1.307-2.975-0.67l-11.212,7.082C24.734,57.193,24.436,58.525,25.071,59.533L25.071,59.533z"/>
			<g>
				<path fill="#223A60" d="M37.348,51.775c1.338,2.119,4.137,2.748,6.251,1.41c2.116-1.334-0.708-1.949-2.044-4.066
					c-1.337-2.115-0.678-4.932-2.795-3.596C36.644,46.859,36.015,49.658,37.348,51.775z"/>
				<path fill="#223A60" d="M27.65,57.902c-1.336-2.115-4.136-2.75-6.247-1.412c-2.118,1.338,0.709,1.951,2.043,4.066
					c1.339,2.117,0.678,4.934,2.795,3.598C28.357,62.814,28.987,60.02,27.65,57.902z"/>
			</g>
			
				<ellipse transform="matrix(-0.8454 0.5341 -0.5341 -0.8454 89.6049 80.1034)" fill="#3D5A84" cx="33.211" cy="53.018" rx="4.67" ry="0.555"/>
			<path fill="#3D5A84" d="M28.037,56.414c0.109,0.168,0.327,0.219,0.497,0.113c0.168-0.107,0.219-0.326,0.112-0.494
				c-0.108-0.17-0.327-0.219-0.493-0.111C27.985,56.025,27.934,56.246,28.037,56.414z"/>
			<g>
				<path fill="#3D5A84" d="M37.362,48.934c0.291,0.174,0.912-0.33,1.396-1.127c0.482-0.799,0.637-1.586,0.35-1.758
					c-0.286-0.174-0.908,0.332-1.393,1.129C37.234,47.973,37.077,48.762,37.362,48.934z"/>
				
					<ellipse transform="matrix(0.995 -0.1002 0.1002 0.995 -5.5808 2.6315)" fill="#3D5A84" cx="23.4" cy="56.86" rx="1.686" ry="0.609"/>
			</g>
		</g>
	</g>
</g>
</svg>
