<?xml version="1.0" encoding="utf-8"?>
<!-- Generator: Adobe Illustrator 16.0.0, SVG Export Plug-In . SVG Version: 6.00 Build 0)  -->
<!DOCTYPE svg PUBLIC "-//W3C//DTD SVG 1.1//EN" "http://www.w3.org/Graphics/SVG/1.1/DTD/svg11.dtd">
<svg version="1.1" id="Layer_1" xmlns="http://www.w3.org/2000/svg" xmlns:xlink="http://www.w3.org/1999/xlink" x="0px" y="0px"
	 width="64px" height="64px" viewBox="0 0 64 64" enable-background="new 0 0 64 64" xml:space="preserve">
<g>
	<path fill="#264066" d="M52.4,62.9C51.9,52,43,43.3,32,43.3c-11,0-19.9,8.7-20.4,19.5H52.4z"/>
	<rect x="1" y="58.9" fill="#264066" width="62" height="4.1"/>
	<g>
		<g>
			<g>
				<g>
					<path fill="#E28B50" d="M21,62.3c0-2.3,1.8-4.1,4.1-4.1s4.1,1.8,4.1,4.1"/>
					<path fill="#EFA573" d="M21,62.3c0-2.3,1.8-4.1,4.1-4.1"/>
					<path fill="#D36D29" d="M22.1,62.3c0-1.6,1.3-2.9,2.9-2.9c1.6,0,2.9,1.3,2.9,2.9"/>
					<path fill="#D8D0AD" d="M22.8,62.3c0-1.2,1-2.3,2.3-2.3c1.2,0,2.3,1,2.3,2.3"/>
					<path fill="#EDE6C5" d="M22.8,62.3c0-1.2,1-1.8,2.3-1.8c1.2,0,2.3,0.5,2.3,1.8"/>
				</g>
				<g>
					<path fill="#E28B50" d="M34.9,62.3c0-2.3,1.8-4.1,4.1-4.1s4.1,1.8,4.1,4.1"/>
					<path fill="#EFA573" d="M34.9,62.3c0-2.3,1.8-4.1,4.1-4.1"/>
					<path fill="#D36D29" d="M36,62.3c0-1.6,1.3-2.9,2.9-2.9c1.6,0,2.9,1.3,2.9,2.9"/>
					<path fill="#D8D0AD" d="M36.7,62.3c0-1.2,1-2.3,2.3-2.3s2.3,1,2.3,2.3"/>
					<path fill="#EDE6C5" d="M36.7,62.3c0-1.2,1-1.8,2.3-1.8s2.3,0.5,2.3,1.8"/>
				</g>
			</g>
			<path fill="#1077DD" d="M45.7,34c0-8.3-11.8-14.7-13.7-20.8v-0.1c0,0,0,0,0,0c0,0,0,0,0,0v0.1C30.1,19.3,18.3,25.8,18.3,34
				c0,8.6,6.1,8.9,13.7,9l0,0c0,0,0,0,0,0c0,0,0,0,0,0l0,0C39.6,42.9,45.7,42.6,45.7,34z"/>
			<path fill="#2F9AF2" d="M32,13.2C32,13.2,32,13.2,32,13.2L32,13.2c-1.6,5.4-10.9,11-13.2,17.9h26.4C42.9,24.2,33.6,18.6,32,13.2
				L32,13.2C32,13.2,32,13.2,32,13.2z"/>
			<path fill="#2F9AF2" d="M32,13.2C32,13.2,32,13.2,32,13.2L32,13.2c-1.6,5.4-10.9,11-13.2,17.9h26.4C42.9,24.2,33.6,18.6,32,13.2
				L32,13.2C32,13.2,32,13.2,32,13.2z"/>
			<path fill="#EDE6C5" d="M41.1,34c0-8.3-7.9-14.7-9.1-20.8v-0.1c0,0,0,0,0,0c0,0,0,0,0,0v0.1c-1.2,6.1-9.1,12.5-9.1,20.8
				c0,8.6,4.1,8.9,9.1,9l0,0c0,0,0,0,0,0h0l0,0C37.1,42.9,41.1,42.6,41.1,34z"/>
			<path fill="#F4EFDC" d="M32,13.2C32,13.2,32,13.2,32,13.2L32,13.2c-1.1,5.4-7.3,11-8.8,17.9h17.6C39.3,24.2,33.1,18.6,32,13.2
				L32,13.2C32,13.2,32,13.2,32,13.2z"/>
			<path fill="#1077DD" d="M35.7,34c0-8.3-3.2-14.7-3.7-20.8v-0.1c0,0,0,0,0,0c0,0,0,0,0,0v0.1c-0.5,6.1-3.7,12.5-3.7,20.8
				c0,8.6,1.7,8.9,3.7,9l0,0c0,0,0,0,0,0h0l0,0C34.1,42.9,35.7,42.6,35.7,34z"/>
			<path fill="#2F9AF2" d="M32,13.2C32,13.2,32,13.2,32,13.2L32,13.2c-0.4,5.4-3,11-3.6,17.9h7.2C35,24.2,32.4,18.6,32,13.2L32,13.2
				C32,13.2,32,13.2,32,13.2z"/>
			<path fill="#196B5B" d="M42,41.9c0,0.2-0.1,0.3-0.3,0.3H22.3c-0.2,0-0.3-0.1-0.3-0.3l0,0c0-0.2,0.1-0.3,0.3-0.3h19.5
				C41.9,41.6,42,41.7,42,41.9L42,41.9z"/>
			<rect x="23.6" y="45.7" fill="#D36D29" width="16.9" height="16.6"/>
			<polygon fill="#D36D29" points="40.4,45.8 23.6,45.8 22.5,42.3 41.5,42.3 			"/>
			<polygon fill="#BC5319" points="36.9,45.8 27.1,45.8 26.6,42.3 37.4,42.3 			"/>
			<rect x="27.2" y="45.7" fill="#E5844E" width="9.7" height="16.6"/>
			<path fill="#0E4C40" d="M44.2,62.7c0,0.2-0.1,0.3-0.3,0.3H19.7c-0.2,0-0.3-0.1-0.3-0.3l0,0c0-0.2,0.1-0.3,0.3-0.3h24.2
				C44,62.4,44.2,62.6,44.2,62.7L44.2,62.7z"/>
			<g>
				<g>
					<path fill="#E28B50" d="M27.8,62.3c0-2.3,1.8-4.1,4.1-4.1c2.3,0,4.1,1.8,4.1,4.1"/>
					<path fill="#EFA573" d="M27.8,62.3c0-2.3,1.8-4.1,4.1-4.1"/>
					<path fill="#D36D29" d="M28.9,62.3c0-1.6,1.3-2.9,2.9-2.9c1.6,0,2.9,1.3,2.9,2.9"/>
					<path fill="#D8D0AD" d="M29.6,62.3c0-1.2,1-2.3,2.3-2.3s2.3,1,2.3,2.3"/>
					<path fill="#EDE6C5" d="M29.6,62.3c0-1.2,1-1.8,2.3-1.8s2.3,0.5,2.3,1.8"/>
				</g>
			</g>
			<path fill="#196B5B" d="M45,62.4c0,0.1-0.1,0.2-0.2,0.2H19.2c-0.1,0-0.2-0.1-0.2-0.2l0,0c0-0.1,0.1-0.2,0.2-0.2h25.6
				C44.9,62.2,45,62.3,45,62.4L45,62.4z"/>
			<path fill="#EDE6C5" d="M40.7,45.8c0,0.1-0.1,0.2-0.2,0.2H23.4c-0.1,0-0.2-0.1-0.2-0.2l0,0c0-0.1,0.1-0.2,0.2-0.2h17.1
				C40.7,45.6,40.7,45.7,40.7,45.8L40.7,45.8z"/>
			<path fill="#EDE6C5" d="M41.7,42.3c0,0.1-0.1,0.2-0.2,0.2h-19c-0.1,0-0.2-0.1-0.2-0.2l0,0c0-0.1,0.1-0.2,0.2-0.2h19
				C41.6,42.1,41.7,42.2,41.7,42.3L41.7,42.3z"/>
			<g>
				<g>
					<path fill="#BC5319" d="M26,57c0,0.3-0.3,0.6-0.6,0.6h-0.1c-0.3,0-0.6-0.3-0.6-0.6v-7.3c0-0.3,0.3-0.6,0.6-0.6h0.1
						c0.3,0,0.6,0.3,0.6,0.6V57z"/>
					<path fill="#EDD7AB" d="M25.4,57.9h-0.1c-0.5,0-0.8-0.4-0.8-0.8v-7.3c0-0.5,0.4-0.8,0.8-0.8h0.1c0.5,0,0.8,0.4,0.8,0.8V57
						C26.3,57.5,25.9,57.9,25.4,57.9z M25.3,49.4c-0.2,0-0.3,0.1-0.3,0.3V57c0,0.2,0.1,0.3,0.3,0.3h0.1c0.2,0,0.3-0.1,0.3-0.3v-7.3
						c0-0.2-0.1-0.3-0.3-0.3H25.3z"/>
				</g>
				<g>
					<path fill="#BC5319" d="M30.4,57c0,0.3-0.3,0.6-0.6,0.6h-0.1c-0.3,0-0.6-0.3-0.6-0.6v-7.3c0-0.3,0.3-0.6,0.6-0.6h0.1
						c0.3,0,0.6,0.3,0.6,0.6V57z"/>
					<path fill="#EDD7AB" d="M29.9,57.9h-0.1c-0.5,0-0.8-0.4-0.8-0.8v-7.3c0-0.5,0.4-0.8,0.8-0.8h0.1c0.5,0,0.8,0.4,0.8,0.8V57
						C30.7,57.5,30.3,57.9,29.9,57.9z M29.7,49.4c-0.2,0-0.3,0.1-0.3,0.3V57c0,0.2,0.1,0.3,0.3,0.3h0.1c0.2,0,0.3-0.1,0.3-0.3v-7.3
						c0-0.2-0.1-0.3-0.3-0.3H29.7z"/>
				</g>
				<g>
					<path fill="#BC5319" d="M34.9,57c0,0.3-0.3,0.6-0.6,0.6h-0.1c-0.3,0-0.6-0.3-0.6-0.6v-7.3c0-0.3,0.3-0.6,0.6-0.6h0.1
						c0.3,0,0.6,0.3,0.6,0.6V57z"/>
					<path fill="#EDD7AB" d="M34.3,57.9h-0.1c-0.5,0-0.8-0.4-0.8-0.8v-7.3c0-0.5,0.4-0.8,0.8-0.8h0.1c0.5,0,0.8,0.4,0.8,0.8V57
						C35.1,57.5,34.7,57.9,34.3,57.9z M34.1,49.4c-0.2,0-0.3,0.1-0.3,0.3V57c0,0.2,0.1,0.3,0.3,0.3h0.1c0.2,0,0.3-0.1,0.3-0.3v-7.3
						c0-0.2-0.1-0.3-0.3-0.3H34.1z"/>
				</g>
				<g>
					<path fill="#BC5319" d="M39.3,57c0,0.3-0.3,0.6-0.6,0.6h-0.1c-0.3,0-0.6-0.3-0.6-0.6v-7.3c0-0.3,0.3-0.6,0.6-0.6h0.1
						c0.3,0,0.6,0.3,0.6,0.6V57z"/>
					<path fill="#EDD7AB" d="M38.7,57.9h-0.1c-0.5,0-0.8-0.4-0.8-0.8v-7.3c0-0.5,0.4-0.8,0.8-0.8h0.1c0.5,0,0.8,0.4,0.8,0.8V57
						C39.5,57.5,39.2,57.9,38.7,57.9z M38.6,49.4c-0.2,0-0.3,0.1-0.3,0.3V57c0,0.2,0.1,0.3,0.3,0.3h0.1c0.2,0,0.3-0.1,0.3-0.3v-7.3
						c0-0.2-0.1-0.3-0.3-0.3H38.6z"/>
				</g>
			</g>
			<g>
				<circle fill="#BC5319" cx="24.9" cy="47.3" r="0.4"/>
				<path fill="#BC5319" d="M27.3,47.3c0,0.2-0.2,0.4-0.4,0.4c-0.2,0-0.4-0.2-0.4-0.4s0.2-0.4,0.4-0.4
					C27.1,46.9,27.3,47.1,27.3,47.3z"/>
				<circle fill="#BC5319" cx="29" cy="47.3" r="0.4"/>
				<circle fill="#BC5319" cx="31" cy="47.3" r="0.4"/>
				<circle fill="#BC5319" cx="33" cy="47.3" r="0.4"/>
				<circle fill="#BC5319" cx="35" cy="47.3" r="0.4"/>
				<path fill="#BC5319" d="M37.4,47.3c0,0.2-0.2,0.4-0.4,0.4c-0.2,0-0.4-0.2-0.4-0.4s0.2-0.4,0.4-0.4
					C37.3,46.9,37.4,47.1,37.4,47.3z"/>
				<circle fill="#BC5319" cx="39.1" cy="47.3" r="0.4"/>
			</g>
			<polygon fill="#E5844E" points="41.1,43.5 41.2,43.2 22.8,43.2 22.9,43.5 			"/>
			<polygon fill="#E5844E" points="40.9,44.2 41,44 23,44 23.1,44.2 			"/>
			<polygon fill="#E5844E" points="40.7,45 40.7,44.8 23.3,44.8 23.3,45 			"/>
			<polyline fill="#6BC2FC" points="32,43.1 32,43.1 32,43.1 32,43.1 			"/>
			<g>
				<path fill="#6BC2FC" d="M31.1,15.1c0-0.1,0.1-0.1,0.1-0.2C31.2,15,31.2,15,31.1,15.1z"/>
				<path fill="#6BC2FC" d="M31.7,14c0-0.1,0.1-0.1,0.1-0.2C31.8,13.9,31.7,13.9,31.7,14z"/>
				<path fill="#6BC2FC" d="M31.4,14.5c0-0.1,0.1-0.1,0.1-0.2C31.5,14.4,31.5,14.5,31.4,14.5z"/>
				<polygon fill="#6BC2FC" points="28.6,18.5 28.6,18.5 28.6,18.5 				"/>
				<path fill="#6BC2FC" d="M30.4,16.2c0.1-0.1,0.1-0.1,0.1-0.2C30.5,16.1,30.5,16.1,30.4,16.2z"/>
				<path fill="#6BC2FC" d="M32,13.3L32,13.3C32,13.2,32,13.2,32,13.3C32,13.2,32,13.2,32,13.3L32,13.3C32,13.3,32,13.3,32,13.3
					L32,13.3z"/>
				<path fill="#6BC2FC" d="M30.8,15.7c0-0.1,0.1-0.1,0.1-0.2C30.9,15.5,30.8,15.6,30.8,15.7z"/>
				<path fill="#6BC2FC" d="M29,18c0,0,0.1-0.1,0.1-0.1C29.1,17.9,29,18,29,18z"/>
				<path fill="#6BC2FC" d="M30,16.8c0-0.1,0.1-0.1,0.1-0.2C30.1,16.6,30.1,16.7,30,16.8z"/>
			</g>
			<polygon fill="#EDD7AB" points="33,14.2 32,15.2 31,14.2 32,7.6 			"/>
			<polyline fill="#E2C28A" points="32,7.6 33,14.2 32,15.2 			"/>
			<path fill="#E2C28A" d="M33.4,14.7c0,0.3-0.2,0.5-0.5,0.5h-1.8c-0.3,0-0.5-0.2-0.5-0.5v-0.3c0-0.3,0.2-0.5,0.5-0.5h1.8
				c0.3,0,0.5,0.2,0.5,0.5V14.7z"/>
			<path fill="#E2C28A" d="M33.6,7.1c0,0.9-0.7,1.6-1.6,1.6c-0.9,0-1.6-0.7-1.6-1.6c0-0.9,0.7-1.6,1.6-1.6
				C32.9,5.5,33.6,6.2,33.6,7.1z"/>
			<circle fill="#EDD7AB" cx="31.5" cy="6.5" r="0.6"/>
			<circle fill="#EDD7AB" cx="31.3" cy="7.8" r="0.3"/>
		</g>
		<g>
			<path fill="#C6A877" d="M32.3,5.6c0,0.2-0.1,0.3-0.3,0.3l0,0c-0.2,0-0.3-0.1-0.3-0.3V1.3C31.7,1.1,31.8,1,32,1l0,0
				c0.2,0,0.3,0.1,0.3,0.3V5.6z"/>
			<path fill="#C6A877" d="M33.1,1.9c0.1,0,0.2,0.1,0.2,0.3l0,0c0,0.2-0.1,0.3-0.2,0.3h-2.1c-0.1,0-0.2-0.1-0.2-0.3l0,0
				c0-0.2,0.1-0.3,0.2-0.3H33.1z"/>
		</g>
	</g>
	<g>
		<path fill="#264066" d="M17.2,59.4h-0.9c0-0.8-0.5-1.5-1.2-1.8v-6.1h0.1c0.1,0,0.1,0,0.1-0.1s0-0.1-0.1-0.1h0l0.1-0.3l0,0l0-0.1
			l0.1-0.3l0-0.1h0l0.1-0.3l0,0l0-0.1h0l0.1-0.4h0c0,0,0.1,0,0.1-0.1c0,0,0,0,0,0h0c0.1,0,0.2-0.1,0.2-0.2c0-0.1,0-0.1-0.1-0.1
			c1.1-0.6,1.8-1.6,1.8-3.7c0-0.5-0.1-1-0.2-1.4h0c0,0,0,0,0,0c0,0,0,0,0,0c-0.1-0.2-0.2-0.4-0.3-0.6c0-0.1-0.1-0.1-0.1-0.2
			c-0.1-0.1-0.2-0.3-0.2-0.4c0-0.1-0.1-0.2-0.2-0.2c-0.1-0.1-0.2-0.3-0.3-0.4c-0.1-0.1-0.1-0.2-0.2-0.2c-0.1-0.1-0.2-0.3-0.3-0.4
			c-0.1-0.1-0.1-0.2-0.2-0.2c-0.1-0.1-0.2-0.3-0.3-0.4c-0.1-0.1-0.1-0.1-0.2-0.2c-0.1-0.1-0.3-0.3-0.4-0.4c0-0.1-0.1-0.1-0.1-0.2
			c-0.4-0.5-0.9-0.9-1.3-1.4c-0.1-0.1-0.2-0.2-0.3-0.3c-0.1-0.1-0.2-0.2-0.2-0.2c-0.1-0.1-0.2-0.2-0.3-0.3c-0.1-0.1-0.1-0.2-0.2-0.2
			c-0.1-0.1-0.2-0.2-0.3-0.3c-0.1-0.1-0.1-0.2-0.2-0.2c-0.1-0.1-0.2-0.2-0.2-0.3c-0.1-0.1-0.1-0.1-0.2-0.2c0,0,0-0.1-0.1-0.1
			c0.1,0,0.2-0.1,0.2-0.2v-0.1c0-0.1-0.1-0.2-0.2-0.2l-0.4-2.6c0.4,0,0.7-0.3,0.7-0.7c0-0.4-0.3-0.7-0.6-0.7c0,0,0,0,0,0v-1.5h0.4
			c0,0,0.1-0.1,0.1-0.2s0-0.2-0.1-0.2h-0.4v-0.3c0-0.1-0.1-0.2-0.2-0.2s-0.2,0.1-0.2,0.2v0.3h-0.4c0,0-0.1,0.1-0.1,0.2
			s0,0.2,0.1,0.2h0.4v1.5c0,0,0,0,0,0c-0.3,0.1-0.6,0.4-0.6,0.7c0,0.4,0.3,0.7,0.7,0.7L10.5,36c-0.1,0-0.2,0.1-0.2,0.2v0.1
			c0,0.1,0.1,0.2,0.2,0.2c0,0,0,0.1-0.1,0.1c0,0.1-0.1,0.1-0.1,0.2c-0.1,0.1-0.2,0.2-0.2,0.3c-0.1,0.1-0.1,0.1-0.2,0.2
			c-0.1,0.1-0.2,0.2-0.3,0.3c-0.1,0.1-0.1,0.1-0.2,0.2c-0.1,0.1-0.2,0.2-0.3,0.4c-0.1,0.1-0.1,0.1-0.2,0.2c-0.1,0.1-0.3,0.3-0.4,0.4
			c0,0-0.1,0.1-0.1,0.1c-0.2,0.2-0.5,0.5-0.7,0.7c-0.1,0.1-0.3,0.3-0.4,0.4c-0.1,0.1-0.1,0.1-0.2,0.2c-0.1,0.1-0.2,0.2-0.3,0.4
			c-0.1,0.1-0.1,0.2-0.2,0.2c-0.1,0.1-0.2,0.2-0.3,0.4c-0.1,0.1-0.1,0.2-0.2,0.3C6,41.8,5.9,41.9,5.8,42c-0.1,0.1-0.1,0.2-0.2,0.3
			c-0.1,0.1-0.2,0.3-0.3,0.4c-0.1,0.1-0.1,0.2-0.2,0.3c-0.1,0.1-0.2,0.3-0.2,0.4c0,0.1-0.1,0.2-0.1,0.2c-0.1,0.2-0.2,0.4-0.2,0.5
			c0,0,0,0.1,0,0.1c0,0,0,0,0,0h0c-0.2,0.5-0.2,0.9-0.2,1.4c0,2,0.7,3.1,1.8,3.7c0,0-0.1,0.1-0.1,0.1c0,0.1,0.1,0.2,0.2,0.2h0
			c0,0,0,0,0,0c0,0,0,0.1,0.1,0.1h0l0.1,0.4l0,0l0,0L6.8,51l0,0l0,0l0.1,0.3h0c-0.1,0-0.1,0-0.1,0.1s0,0.1,0.1,0.1h0.1v6.1
			c-0.7,0.3-1.2,1-1.2,1.8H4.8c0,0-0.1,0-0.1,0.1c0,0,0,0.1,0.1,0.1h0.1c0,0,0,0,0,0.1c0,0.1,0.1,0.1,0.1,0.1h11.7
			c0.1,0,0.1-0.1,0.1-0.1c0,0,0-0.1,0-0.1h0.3C17.3,59.5,17.3,59.5,17.2,59.4C17.3,59.4,17.3,59.4,17.2,59.4z"/>
		<path fill="#264066" d="M59.2,59.4h-0.9c0-0.8-0.5-1.5-1.2-1.8v-6.1h0.1c0.1,0,0.1,0,0.1-0.1s0-0.1-0.1-0.1h0l0.1-0.3l0,0l0-0.1
			l0.1-0.3l0-0.1h0l0.1-0.3h0l0-0.1l0,0l0.1-0.4h0c0,0,0.1,0,0.1-0.1c0,0,0,0,0,0h0c0.1,0,0.2-0.1,0.2-0.2c0-0.1,0-0.1-0.1-0.1
			c1.1-0.6,1.9-1.6,1.9-3.7c0-0.5-0.1-1-0.2-1.4h0c0,0,0,0,0,0c0,0,0,0,0,0c-0.1-0.2-0.2-0.4-0.3-0.6c0-0.1-0.1-0.1-0.1-0.2
			c-0.1-0.1-0.2-0.3-0.2-0.4c0-0.1-0.1-0.2-0.2-0.2c-0.1-0.1-0.2-0.3-0.3-0.4c-0.1-0.1-0.1-0.2-0.2-0.2c-0.1-0.1-0.2-0.3-0.3-0.4
			c-0.1-0.1-0.1-0.2-0.2-0.2c-0.1-0.1-0.2-0.3-0.3-0.4c-0.1-0.1-0.1-0.1-0.2-0.2c-0.1-0.1-0.3-0.3-0.4-0.4c0-0.1-0.1-0.1-0.1-0.2
			c-0.4-0.5-0.9-0.9-1.3-1.4c-0.1-0.1-0.2-0.2-0.3-0.3c-0.1-0.1-0.2-0.2-0.2-0.2c-0.1-0.1-0.2-0.2-0.3-0.3c-0.1-0.1-0.1-0.2-0.2-0.2
			c-0.1-0.1-0.2-0.2-0.3-0.3c-0.1-0.1-0.1-0.2-0.2-0.2c-0.1-0.1-0.2-0.2-0.2-0.3c-0.1-0.1-0.1-0.1-0.1-0.2c0,0,0-0.1-0.1-0.1
			c0.1,0,0.2-0.1,0.2-0.2v-0.1c0-0.1-0.1-0.2-0.2-0.2l-0.4-2.6c0.4,0,0.7-0.3,0.7-0.7c0-0.4-0.3-0.7-0.6-0.7c0,0,0,0,0,0v-1.5h0.4
			c0,0,0.1-0.1,0.1-0.2s0-0.2-0.1-0.2h-0.4v-0.3c0-0.1-0.1-0.2-0.2-0.2c-0.1,0-0.2,0.1-0.2,0.2v0.3h-0.4c0,0-0.1,0.1-0.1,0.2
			s0,0.2,0.1,0.2h0.4v1.5c0,0,0,0,0,0c-0.3,0.1-0.6,0.4-0.6,0.7c0,0.4,0.3,0.7,0.7,0.7L52.5,36c-0.1,0-0.2,0.1-0.2,0.2v0.1
			c0,0.1,0.1,0.2,0.2,0.2c0,0,0,0.1-0.1,0.1c0,0.1-0.1,0.1-0.1,0.2c-0.1,0.1-0.2,0.2-0.2,0.3c-0.1,0.1-0.1,0.1-0.2,0.2
			c-0.1,0.1-0.2,0.2-0.3,0.3c-0.1,0.1-0.1,0.1-0.2,0.2c-0.1,0.1-0.2,0.2-0.3,0.4c-0.1,0.1-0.1,0.1-0.2,0.2c-0.1,0.1-0.3,0.3-0.4,0.4
			c0,0-0.1,0.1-0.1,0.1c-0.2,0.2-0.5,0.5-0.7,0.7c-0.1,0.1-0.3,0.3-0.4,0.4c-0.1,0.1-0.1,0.1-0.2,0.2c-0.1,0.1-0.2,0.2-0.3,0.4
			c-0.1,0.1-0.1,0.2-0.2,0.2c-0.1,0.1-0.2,0.2-0.3,0.4c-0.1,0.1-0.1,0.2-0.2,0.3c-0.1,0.1-0.2,0.2-0.3,0.4c-0.1,0.1-0.1,0.2-0.2,0.3
			c-0.1,0.1-0.2,0.3-0.3,0.4c-0.1,0.1-0.1,0.2-0.2,0.3c-0.1,0.1-0.2,0.3-0.2,0.4c0,0.1-0.1,0.2-0.1,0.2c-0.1,0.2-0.2,0.4-0.2,0.5
			c0,0,0,0.1,0,0.1c0,0,0,0,0,0h0c-0.2,0.5-0.2,0.9-0.2,1.4c0,2,0.7,3.1,1.8,3.7c0,0-0.1,0.1-0.1,0.1c0,0.1,0.1,0.2,0.2,0.2h0
			c0,0,0,0,0,0c0,0,0,0.1,0.1,0.1h0l0.1,0.4l0,0l0,0l0.2,0.8l0,0l0,0l0.1,0.3h0c-0.1,0-0.1,0-0.1,0.1s0,0.1,0.1,0.1h0.1v6.1
			c-0.7,0.3-1.2,1-1.2,1.8h-0.9c0,0-0.1,0-0.1,0.1c0,0,0,0.1,0.1,0.1h0.1c0,0,0,0,0,0.1c0,0.1,0.1,0.1,0.1,0.1h11.7
			c0.1,0,0.1-0.1,0.1-0.1c0,0,0-0.1,0-0.1h0.3C59.2,59.5,59.3,59.5,59.2,59.4C59.3,59.4,59.2,59.4,59.2,59.4z"/>
	</g>
</g>
</svg>
