<?xml version="1.0" encoding="utf-8"?>
<!-- Generator: Adobe Illustrator 16.0.0, SVG Export Plug-In . SVG Version: 6.00 Build 0)  -->
<!DOCTYPE svg PUBLIC "-//W3C//DTD SVG 1.1//EN" "http://www.w3.org/Graphics/SVG/1.1/DTD/svg11.dtd">
<svg version="1.1" id="Layer_1" xmlns="http://www.w3.org/2000/svg" xmlns:xlink="http://www.w3.org/1999/xlink" x="0px" y="0px"
	 width="64px" height="64px" viewBox="0 0 64 64" enable-background="new 0 0 64 64" xml:space="preserve">
<g>
	<g>
		<path fill="#7A8899" d="M8.1,63.2c-2.3,0-4.1-0.7-5.4-1.9c-3-3-2.5-8.8,1.4-16.6c3.6-7.2,9.9-15.4,17.5-23.1
			C34.1,9.1,47.9,0.7,55.9,0.7c2.3,0,4.1,0.7,5.4,1.9c3,3,2.5,8.8-1.4,16.6c-3.6,7.2-9.9,15.4-17.5,23.1
			C29.9,54.8,16.1,63.2,8.1,63.2z M55.9,3.6c-7.2,0-20.4,8.2-32.2,20C16.3,31.1,10.2,39,6.7,46c-3.2,6.3-3.9,11.2-1.9,13.2
			c0.7,0.7,1.8,1.1,3.3,1.1c7.2,0,20.4-8.2,32.2-20c7.4-7.4,13.5-15.4,17-22.3c3.2-6.3,3.9-11.2,1.9-13.2C58.5,4,57.4,3.6,55.9,3.6z
			"/>
	</g>
	<path fill="#8E97A0" d="M46.8,17.1c2.8,2.8,5.2,5.8,7.3,8.9C61,15.9,63.7,7.2,60.2,3.7C56.8,0.2,48,2.9,37.9,9.8
		C41,11.9,44,14.3,46.8,17.1z"/>
	<path fill="#747F87" d="M46.8,17.1c2.8,2.8,5.2,5.8,7.3,8.9C61,15.9,63.7,7.2,60.2,3.7"/>
	<g>
		<path fill="#7A8899" d="M8.1,63.3c-2,0-4-0.8-5.5-2.3c-0.6-0.6-0.6-1.5,0-2.1s1.5-0.6,2.1,0c1.9,1.9,5,1.9,6.9,0
			c1.9-1.9,1.9-5,0-6.9c-0.6-0.6-0.6-1.5,0-2.1s1.5-0.6,2.1,0c3,3,3,8,0,11C12.1,62.5,10.1,63.3,8.1,63.3z"/>
	</g>
	<circle fill="#FFFFFF" cx="53" cy="10.9" r="2.4"/>
</g>
</svg>
