<?xml version="1.0" encoding="utf-8"?>
<!-- Generator: Adobe Illustrator 16.0.0, SVG Export Plug-In . SVG Version: 6.00 Build 0)  -->
<!DOCTYPE svg PUBLIC "-//W3C//DTD SVG 1.1//EN" "http://www.w3.org/Graphics/SVG/1.1/DTD/svg11.dtd">
<svg version="1.1" id="Layer_1" xmlns="http://www.w3.org/2000/svg" xmlns:xlink="http://www.w3.org/1999/xlink" x="0px" y="0px"
	 width="64px" height="64.9px" viewBox="0 0 64 64.9" enable-background="new 0 0 64 64.9" xml:space="preserve">
<g>
	<g>
		<path fill="#960E08" d="M47,12.9l-4.4-4.4l-4.4,4.4l2.4,2.4v10.1h-6.2V8.6l3.3-3.3l-5.2-5.2l-5.2,5.2l3.3,3.3v16.8h-6.2V15.3
			l2.4-2.4l-4.4-4.4l-4.4,4.4l2.4,2.4v13.3c0,0.2,0.2,0.3,0.5,0.4c0.1,0.1,0.2,0.2,0.4,0.2h9.1v4.9h-1.2c-0.6,0-1,0.6-1,1.4
			s0.4,1.4,1,1.4h1.2v1.6h-1.2c-0.6,0-1,0.6-1,1.4s0.4,1.4,1,1.4h1.2v19.1c0,1.3,0.9,2.3,1.9,2.3c1.1,0,1.9-1,1.9-2.3V41.5h1.2
			c0.6,0,1-0.6,1-1.4s-0.4-1.4-1-1.4h-1.2V37h1.2c0.6,0,1-0.6,1-1.4s-0.4-1.4-1-1.4h-1.2v-4.9h9.1c0.1,0,0.3-0.1,0.4-0.2
			c0.3-0.1,0.5-0.2,0.5-0.4V15.3L47,12.9z"/>
		<path fill="#960E08" d="M47,12.9l-4.4-4.4l-4.4,4.4l2.4,2.4v10.1h-6.2V8.6l3.3-3.3l-5.2-5.2l-5.2,5.2l3.3,3.3v16.8h-6.2V15.3
			l2.4-2.4l-4.4-4.4l-4.4,4.4l2.4,2.4v13.3c0,0.2,0.2,0.3,0.5,0.4c0.1,0.1,0.2,0.2,0.4,0.2h9.1v4.9h-1.2c-0.6,0-1,0.6-1,1.4
			s0.4,1.4,1,1.4h1.2v1.6h-1.2c-0.6,0-1,0.6-1,1.4s0.4,1.4,1,1.4h1.2v19.1c0,1.3,0.9,2.3,1.9,2.3c1.1,0,1.9-1,1.9-2.3V41.5h1.2
			c0.6,0,1-0.6,1-1.4s-0.4-1.4-1-1.4h-1.2V37h1.2c0.6,0,1-0.6,1-1.4s-0.4-1.4-1-1.4h-1.2v-4.9h9.1c0.1,0,0.3-0.1,0.4-0.2
			c0.3-0.1,0.5-0.2,0.5-0.4V15.3L47,12.9z"/>
		<path fill="#5E0000" d="M42.6,8.6l-4.4,4.4l2.4,2.4v10.1h-6.2V8.6l3.3-3.3l-5.2-5.2l-0.2,0.2V63c0.1,0,0.1,0,0.2,0
			c1.1,0,1.9-1,1.9-2.3V41.5h1.2c0.6,0,1-0.6,1-1.4s-0.4-1.4-1-1.4h-1.2V37h1.2c0.6,0,1-0.6,1-1.4s-0.4-1.4-1-1.4h-1.2v-4.9h9.1
			c0.1,0,0.3-0.1,0.4-0.2c0.3-0.1,0.5-0.2,0.5-0.4V15.3l2.4-2.4L42.6,8.6z"/>
	</g>
	<path fill="#E06E10" d="M48.1,64c0.1-1,0.1-0.9,0.1-1.4c0-1.5,0.8-3.2,0.8-3.2c-1.1-0.4-3.1,1.8-3.1,1.8c1.8-3.4-1.4-8.3-1.4-8.3
		c-1.6,7-7.8,8.1-8.6,6.4s0.2-2.8,0.2-2.8c-5.1,0.5-7.6,4.9-7.6,4.9c4.4-8-0.2-12.3-0.2-12.3c1.5,4.5-5.5,7.5-6.2,5s1.8-3.5,1.8-3.5
		s-7.8-1.8-11,6.4C11,61.3,7.9,63,5.2,64H48.1z"/>
	<g>
		<path fill="#EDB151" d="M33.6,62.4c-1.6,0.2-2.9,0.7-3.9,1.3H33C33.1,62.9,33.6,62.4,33.6,62.4z"/>
		<path fill="#EDB151" d="M10.2,62.9C10.1,63.3,9.9,63,9.8,64h17.6c1.5-6-1.7-8.8-1.7-8.8c1.5,4.5-5.5,7.4-6.2,4.9s1.8-3.5,1.8-3.5
			S13.4,54.7,10.2,62.9z"/>
		<path fill="#EDB151" d="M39.4,63.7h4.4c-0.3-2.6-1.8-4.9-1.8-4.9C41.4,61,40.5,62.6,39.4,63.7z"/>
	</g>
	<circle fill="#EDB151" cx="47.2" cy="35.1" r="1.4"/>
	<circle fill="#EDB151" cx="45.5" cy="44.2" r="0.4"/>
	<circle fill="#E06E10" cx="57.5" cy="43.2" r="1.8"/>
	<circle fill="#E06E10" cx="55.4" cy="34.7" r="0.4"/>
	<circle fill="#E06E10" cx="39.4" cy="47.2" r="0.6"/>
	<circle fill="#E06E10" cx="51.4" cy="41.4" r="0.8"/>
	<circle fill="#E06E10" cx="54.1" cy="52.2" r="3.2"/>
</g>
</svg>
