<?xml version="1.0" encoding="utf-8"?>
<!-- Generator: Adobe Illustrator 16.0.0, SVG Export Plug-In . SVG Version: 6.00 Build 0)  -->
<!DOCTYPE svg PUBLIC "-//W3C//DTD SVG 1.1//EN" "http://www.w3.org/Graphics/SVG/1.1/DTD/svg11.dtd">
<svg version="1.1" id="Layer_1" xmlns="http://www.w3.org/2000/svg" xmlns:xlink="http://www.w3.org/1999/xlink" x="0px" y="0px"
	 width="65px" height="65px" viewBox="0 0 65 65" enable-background="new 0 0 65 65" xml:space="preserve">
<g>
	<g>
		<path fill="#232728" d="M45.15,40.521c0,16.037-5.662,10.697-12.65,10.697c-6.986,0-12.65,5.34-12.65-10.697
			c0-9.17,5.666-16.604,12.65-16.604C39.486,23.918,45.15,31.352,45.15,40.521z"/>
		<g>
			<path fill="#232728" d="M29.473,46.445c0,2.477-2.008,15.828-4.486,15.828c-2.475,0-4.482-13.352-4.482-15.828
				c0-2.475,2.008-4.484,4.482-4.484C27.465,41.961,29.473,43.971,29.473,46.445z"/>
			<path fill="#232728" d="M44.498,46.445c0,2.477-2.008,15.828-4.486,15.828c-2.475,0-4.482-13.352-4.482-15.828
				c0-2.475,2.008-4.484,4.482-4.484C42.49,41.961,44.498,43.971,44.498,46.445z"/>
		</g>
		<g>
			<path fill="#3E4142" d="M30.033,62.354c0,1.896-2.26,2.146-5.045,2.146s-5.045-0.25-5.045-2.146s2.26-4.508,5.045-4.508
				S30.033,60.457,30.033,62.354z"/>
			<path fill="#232728" d="M30.033,62.354c0,1.896-2.26,2.146-5.045,2.146s-5.045-0.25-5.045-2.146"/>
		</g>
		<g>
			<path fill="#3E4142" d="M45.059,62.354c0,1.896-2.26,2.146-5.045,2.146s-5.045-0.25-5.045-2.146s2.26-4.508,5.045-4.508
				S45.059,60.457,45.059,62.354z"/>
			<path fill="#232728" d="M45.059,62.354c0,1.896-2.26,2.146-5.045,2.146s-5.045-0.25-5.045-2.146"/>
		</g>
		<g>
			<path fill="#232728" d="M31.105,26.369c1.273,1.432,0.465,4.227-1.805,6.248c-2.27,2.018-14.475,10.795-15.75,9.365
				c-1.271-1.434,8.873-12.531,11.143-14.549C26.961,25.414,29.832,24.938,31.105,26.369z"/>
			<path fill="#232728" d="M33.895,26.369c-1.273,1.432-0.465,4.227,1.805,6.248c2.27,2.018,14.475,10.795,15.75,9.365
				c1.271-1.434-8.873-12.531-11.143-14.549C38.039,25.414,35.168,24.938,33.895,26.369z"/>
		</g>
		<polygon fill="#E2DED3" points="33.125,41.75 31.875,41.75 29.875,25.832 35.125,25.832 		"/>
		<polygon fill="#444849" points="33.277,28.248 34.578,41.438 32.5,42.947 30.422,41.438 31.724,28.248 		"/>
		<polyline fill="#232728" points="31.724,28.248 33.277,28.248 34.578,41.438 32.5,42.947 		"/>
		<g>
			<path fill="#FFFFFF" d="M48.871,16.275c0,7.998-7.33,12.02-16.369,12.02c-9.041,0-16.373-4.021-16.373-12.02
				c0-8.002,7.332-15.775,16.373-15.775C41.541,0.5,48.871,8.273,48.871,16.275z"/>
			<path fill="#DFEFEF" d="M48.871,16.275c0,7.998-7.33,12.02-16.369,12.02c-9.041,0-16.373-4.021-16.373-12.02"/>
		</g>
		<g>
			<g>
				<circle fill="#113E49" cx="24.716" cy="17.82" r="1.464"/>
				<path d="M26.18,17.82c0,0.811-0.656,1.465-1.465,1.465s-1.463-0.654-1.463-1.465"/>
				<g>
					<path fill="#FFFFFF" d="M27.604,20.873c-0.078,0-0.158-0.027-0.219-0.09c-0.715-0.715-1.664-1.107-2.672-1.107h-0.002
						c-1.008,0-1.955,0.393-2.666,1.105c-0.121,0.121-0.316,0.125-0.436,0.002c-0.121-0.117-0.125-0.312-0.004-0.434
						c0.83-0.832,1.932-1.291,3.105-1.291h0.002c1.176,0,2.279,0.457,3.111,1.289c0.119,0.119,0.119,0.318,0,0.436
						C27.764,20.846,27.686,20.873,27.604,20.873z"/>
				</g>
			</g>
			<g>
				<circle fill="#113E49" cx="40.286" cy="17.82" r="1.464"/>
				<path d="M38.822,17.82c0,0.811,0.654,1.465,1.465,1.465c0.809,0,1.463-0.654,1.463-1.465"/>
				<g>
					<path fill="#FFFFFF" d="M37.398,20.873c0.076,0,0.156-0.027,0.217-0.09c0.715-0.715,1.664-1.107,2.672-1.107h0.002
						c1.008,0,1.957,0.393,2.668,1.105c0.119,0.121,0.314,0.125,0.436,0.002c0.121-0.117,0.123-0.312,0.002-0.434
						c-0.826-0.832-1.932-1.291-3.105-1.291h-0.002c-1.174,0-2.277,0.457-3.111,1.289c-0.117,0.119-0.117,0.318,0,0.436
						C37.238,20.846,37.316,20.873,37.398,20.873z"/>
				</g>
			</g>
		</g>
	</g>
</g>
</svg>
