<?xml version="1.0" encoding="utf-8"?>
<!-- Generator: Adobe Illustrator 16.0.0, SVG Export Plug-In . SVG Version: 6.00 Build 0)  -->
<!DOCTYPE svg PUBLIC "-//W3C//DTD SVG 1.1//EN" "http://www.w3.org/Graphics/SVG/1.1/DTD/svg11.dtd">
<svg version="1.1" id="Layer_1" xmlns="http://www.w3.org/2000/svg" xmlns:xlink="http://www.w3.org/1999/xlink" x="0px" y="0px"
	 width="64px" height="64px" viewBox="0 0 64 64" enable-background="new 0 0 64 64" xml:space="preserve">
<g>
	<g>
		<circle fill="#E28FAF" cx="32" cy="32" r="30.7"/>
		<path fill="#C97396" d="M53.7,10.3c12,12,12,31.5,0,43.5c-12,12-31.5,12-43.5,0"/>
	</g>
	<g>
		<polygon fill="#E6EDEC" points="55.5,19.6 53.8,15 32,5.8 10.2,15 9.3,18.2 9.1,18.3 0.5,37.4 32,60.7 63.5,37.4 		"/>
		<polyline fill="#C9D1CF" points="0.5,37.4 32,60.7 36.9,50.6 		"/>
		<path fill="#E6EDEC" d="M9.3,18.2"/>
		<path fill="#E6EDEC" d="M9.1,18.3"/>
		<polyline fill="#C9D1CF" points="32,60.7 63.5,37.4 55.5,19.6 53.8,15 32,5.8 		"/>
		<polygon fill="#C9D1CF" points="25.9,11.8 9.2,18.4 32,37.1 56,22.3 55,18.6 32,14.4 		"/>
		<g>
			<g>
				<g>
					<polygon fill="#2F423F" points="25.9,11.8 18.6,18 9.1,18.3 8.1,9.1 13,3.7 20.3,4.3 					"/>
				</g>
				<g>
					<polygon fill="#F2ADC5" points="23.9,13.6 18.7,18 11.9,18.3 11.2,11.7 14.7,7.8 19.9,8.3 					"/>
				</g>
				<g>
					<polyline fill="#D88BA9" points="19.9,8.3 23.9,13.6 18.7,18 11.9,18.3 					"/>
				</g>
			</g>
			<g>
				<g>
					<polygon fill="#2F423F" points="38.1,11.8 45.4,18 54.9,18.3 55.9,9.1 51,3.7 43.7,4.3 					"/>
				</g>
				<g>
					<polygon fill="#F2ADC5" points="40.1,13.6 45.3,18 52.1,18.3 52.8,11.7 49.3,7.8 44.1,8.3 					"/>
				</g>
				<g>
					<polyline fill="#D88BA9" points="44.1,8.3 40.1,13.6 45.3,18 52.1,18.3 					"/>
				</g>
			</g>
		</g>
		<polygon fill="#C9D1CF" points="27.5,37.5 32.3,42.2 36,38.5 36,36.9 		"/>
		<polygon fill="#3F5450" points="36.6,38 27.4,38 26.4,33 37.6,33 		"/>
		<polygon fill="#2F423F" points="34.5,38 29.5,38 26.4,33 37.6,33 		"/>
		<polygon fill="#3F5450" points="34.5,34 29.5,34 26.4,33 37.6,33 		"/>
		<g>
			<path fill="#2F423F" d="M38.4,42l-3.8-0.2l-2.3-1.4c-0.1-0.1-0.2-0.1-0.3-0.1c-0.1,0-0.2,0-0.3,0.1l-2.3,1.4L25.6,42
				c-0.4,0-0.7,0.4-0.7,1c0,0.6,0.3,0.9,0.7,0.9c0,0,0,0,0,0l3.9-0.2c0.1,0,0.2,0,0.2,0l2.2-1.3l2.2,1.4c0.1,0,0.2,0,0.2,0l3.9,0.2
				c0,0,0,0,0,0c0.4,0,0.7-0.4,0.7-0.9C39.1,42.5,38.8,42.1,38.4,42z"/>
			<path fill="#2F423F" d="M32,42.5l2.2,1.3l0,0l4.1,0.1c0,0,0,0,0,0c0.4,0,0.7-0.4,0.7-0.9c0-0.6-0.3-1-0.7-1.1l-3.8-0.2l-2.3-1.4
				c-0.1-0.1-0.2-0.1-0.3-0.1"/>
		</g>
		<g>
			<g>
				<g>
					<polygon fill="#2F423F" points="31.9,25.2 24.9,31.3 15.2,31.8 14.2,22.5 21.4,21.7 26.3,17.8 					"/>
				</g>
				<g>
					<polyline fill="#3F5450" points="21.4,21.7 26.3,17.8 31.9,25.2 24.9,31.3 15.2,31.8 					"/>
				</g>
			</g>
			<g>
				<g>
					<polygon fill="#2F423F" points="32.1,25.2 39.1,31.3 48.8,31.8 49.8,22.5 42.6,21.7 37.7,17.8 					"/>
				</g>
				<g>
					<polyline fill="#3F5450" points="42.6,21.7 37.7,17.8 32.1,25.2 39.1,31.3 48.8,31.8 					"/>
				</g>
			</g>
		</g>
		<g>
			<g>
				<path fill="#89DBEF" d="M24.9,25.9c0,1.1-1,2-2.2,2c-1.2,0-2.3-0.9-2.3-2s1-2,2.3-2C23.9,23.9,24.9,24.8,24.9,25.9z"/>
				<path fill="#16AFC4" d="M24.3,24.5c0.9,0.8,0.9,2.1,0,2.8c-0.9,0.8-2.3,0.8-3.2,0"/>
			</g>
			<g>
				<path fill="#89DBEF" d="M43.6,25.9c0,1.1-1,2-2.3,2c-1.2,0-2.3-0.9-2.3-2s1-2,2.3-2C42.6,23.9,43.6,24.8,43.6,25.9z"/>
				<path fill="#16AFC4" d="M42.9,24.5c0.9,0.8,0.9,2.1,0,2.8c-0.9,0.8-2.3,0.8-3.2,0"/>
			</g>
		</g>
		<polygon fill="#2F423F" points="20.3,52 32,60.7 43.7,52 		"/>
	</g>
</g>
</svg>
