<?xml version="1.0" encoding="utf-8"?>
<!-- Generator: Adobe Illustrator 16.0.0, SVG Export Plug-In . SVG Version: 6.00 Build 0)  -->
<!DOCTYPE svg PUBLIC "-//W3C//DTD SVG 1.1//EN" "http://www.w3.org/Graphics/SVG/1.1/DTD/svg11.dtd">
<svg version="1.1" id="Layer_1" xmlns="http://www.w3.org/2000/svg" xmlns:xlink="http://www.w3.org/1999/xlink" x="0px" y="0px"
	 width="65px" height="65px" viewBox="0 0 65 65" enable-background="new 0 0 65 65" xml:space="preserve">
<g>
	<g>
		<path fill="#D64505" d="M37.897,62.811H27.099C12.432,62.811,0.5,50.877,0.5,36.209V2.189h18.642v34.02
			c0,4.389,3.57,7.961,7.957,7.961h10.799c4.39,0,7.962-3.572,7.962-7.961V2.189H64.5v34.02
			C64.5,50.877,52.564,62.811,37.897,62.811z"/>
	</g>
	<path fill="#B73400" d="M45.859,17.709v18.5c0,4.389-3.572,7.961-7.962,7.961H27.099c-4.387,0-7.957-3.572-7.957-7.961v-18.5V2.189
		H0.5v15.52c0,14.668,11.932,26.602,26.599,26.602h10.799c14.667,0,26.603-11.934,26.603-26.602V2.189H45.859V17.709z"/>
	<path fill="#09C0CE" d="M32.652,44.17h-5.554c-4.387,0-7.957-3.572-7.957-7.961V2.189H0.5v34.02
		c0,14.668,11.932,26.602,26.599,26.602h5.554V44.17z"/>
	<path fill="#0793D1" d="M27.099,44.311h5.554V44.17h-5.554c-4.387,0-7.957-3.572-7.957-7.961v-18.5V2.189H0.5v15.52
		C0.5,32.377,12.432,44.311,27.099,44.311z"/>
	<g>
		<rect x="0.5" y="2.189" fill="#CCE2E2" width="18.642" height="9.477"/>
		<polygon fill="#AFC8C9" points="19.142,11.666 19.142,2.189 0.5,5.415 0.5,11.666 		"/>
		<rect x="0.5" y="5.439" fill="#86A8A7" width="18.642" height="6.227"/>
	</g>
	<g>
		<rect x="45.858" y="2.189" fill="#CCE2E2" width="18.642" height="9.477"/>
		<polygon fill="#AFC8C9" points="64.5,11.666 64.5,2.189 45.858,5.415 45.858,11.666 		"/>
		<rect x="45.858" y="5.439" fill="#86A8A7" width="18.642" height="6.227"/>
	</g>
</g>
</svg>
