<?xml version="1.0" encoding="utf-8"?>
<!-- Generator: Adobe Illustrator 16.0.0, SVG Export Plug-In . SVG Version: 6.00 Build 0)  -->
<!DOCTYPE svg PUBLIC "-//W3C//DTD SVG 1.1//EN" "http://www.w3.org/Graphics/SVG/1.1/DTD/svg11.dtd">
<svg version="1.1" id="Layer_1" xmlns="http://www.w3.org/2000/svg" xmlns:xlink="http://www.w3.org/1999/xlink" x="0px" y="0px"
	 width="65px" height="65px" viewBox="0 0 65 65" enable-background="new 0 0 65 65" xml:space="preserve">
<g>
	<g>
		<g>
			<g>
				<g>
					<path fill="#AA1111" d="M31.799,30.862c-0.109,1.912-2.66,3.317-5.693,3.143c-3.031-0.179-17.869-2.603-17.76-4.515
						c0.115-1.913,15.137-2.588,18.168-2.409C29.544,27.257,31.911,28.95,31.799,30.862z"/>
				</g>
				<g>
					<path fill="#AA1111" d="M30.634,30.074c0.111-1.912,2.66-3.316,5.695-3.143c3.032,0.18,17.867,2.604,17.759,4.516
						c-0.115,1.912-15.137,2.588-18.168,2.408C32.889,33.68,30.521,31.986,30.634,30.074z"/>
				</g>
				<g>
					<path fill="#232728" d="M28.342,46.446c0,2.476-2.008,15.827-4.486,15.827c-2.475,0-4.482-13.352-4.482-15.827
						s2.008-4.484,4.482-4.484C26.334,41.962,28.342,43.971,28.342,46.446z"/>
					<path fill="#232728" d="M43.367,46.446c0,2.476-2.008,15.827-4.486,15.827c-2.475,0-4.482-13.352-4.482-15.827
						s2.008-4.484,4.482-4.484C41.359,41.962,43.367,43.971,43.367,46.446z"/>
				</g>
				<path fill="#AA1111" d="M44.02,40.521c0,16.038-5.662,10.697-12.65,10.697c-6.986,0-12.65,5.341-12.65-10.697
					c0-9.17,5.666-16.603,12.65-16.603C38.355,23.919,44.02,31.352,44.02,40.521z"/>
				<path fill="#8E1010" d="M21.947,29.47c2.666,1.211,5.912,1.825,9.424,1.825c3.51,0,6.755-0.614,9.42-1.824
					c-2.316-3.4-5.674-5.552-9.422-5.552C27.622,23.919,24.265,26.07,21.947,29.47z"/>
				<g>
					<path fill="#8D97A0" d="M28.902,62.354c0,1.896-2.26,2.146-5.045,2.146s-5.045-0.249-5.045-2.146
						c0-1.897,2.26-4.508,5.045-4.508S28.902,60.457,28.902,62.354z"/>
					<path fill="#79848C" d="M28.902,62.354c0,1.896-2.26,2.146-5.045,2.146s-5.045-0.249-5.045-2.146"/>
				</g>
				<g>
					<path fill="#8D97A0" d="M43.928,62.354c0,1.896-2.26,2.146-5.045,2.146s-5.045-0.249-5.045-2.146
						c0-1.897,2.26-4.508,5.045-4.508S43.928,60.457,43.928,62.354z"/>
					<path fill="#79848C" d="M43.928,62.354c0,1.896-2.26,2.146-5.045,2.146s-5.045-0.249-5.045-2.146"/>
				</g>
				<g>
					<path fill="#CE5715" d="M47.74,16.275c0,7.999-7.33,12.02-16.369,12.02c-9.041,0-16.373-4.021-16.373-12.02
						C14.998,8.274,22.33,0.5,31.371,0.5C40.41,0.5,47.74,8.274,47.74,16.275z"/>
					<path fill="#F9A9A0" d="M47.74,16.275c0,7.999-7.33,12.02-16.369,12.02c-9.041,0-16.373-4.021-16.373-12.02
						c0-8.001,7.332-9.192,16.373-9.192C40.41,7.083,47.74,8.274,47.74,16.275z"/>
					<path fill="#FF9997" d="M47.74,16.275c0,7.999-7.33,12.02-16.369,12.02c-9.041,0-16.373-4.021-16.373-12.02"/>
				</g>
				<g>
					<g>
						<circle fill="#113E49" cx="25.751" cy="19.152" r="1.464"/>
						<path d="M27.215,19.152c0,0.811-0.655,1.465-1.465,1.465c-0.807,0-1.463-0.654-1.463-1.465"/>
						<g>
							<path fill="#FFD3C5" d="M28.64,22.206c-0.078,0-0.158-0.028-0.22-0.091c-0.714-0.714-1.663-1.107-2.671-1.107h-0.002
								c-1.008,0-1.955,0.394-2.666,1.106c-0.121,0.121-0.316,0.124-0.436,0.001c-0.121-0.117-0.126-0.312-0.004-0.434
								c0.83-0.831,1.932-1.29,3.105-1.29h0.002c1.176,0,2.279,0.456,3.112,1.288c0.118,0.119,0.118,0.318,0,0.436
								C28.799,22.178,28.722,22.206,28.64,22.206z"/>
						</g>
					</g>
					<g>
						<circle fill="#113E49" cx="41.322" cy="19.152" r="1.463"/>
						<path d="M39.858,19.152c0,0.811,0.654,1.465,1.465,1.465c0.809,0,1.462-0.654,1.462-1.465"/>
						<g>
							<path fill="#FFD3C5" d="M38.435,22.206c0.076,0,0.156-0.028,0.218-0.091c0.713-0.714,1.663-1.107,2.671-1.107h0.002
								c1.008,0,1.957,0.394,2.668,1.106c0.119,0.121,0.314,0.124,0.436,0.001c0.121-0.117,0.122-0.312,0.002-0.434
								c-0.827-0.831-1.933-1.29-3.105-1.29h-0.002c-1.174,0-2.277,0.456-3.111,1.288c-0.117,0.119-0.117,0.318,0,0.436
								C38.274,22.178,38.352,22.206,38.435,22.206z"/>
						</g>
					</g>
				</g>
			</g>
		</g>
		<path fill="#CE5715" d="M31.371,0.5c-4.736,0-8.991,2.145-11.98,5.327c0.738,2.322,2.91,4.006,5.479,4.006h13
			c2.568,0,4.742-1.684,5.479-4.008C40.359,2.644,36.105,0.5,31.371,0.5z"/>
	</g>
	<path fill="#AA1111" d="M27.74,3.102c1.056,1.4-1.822,3.038-5.376,5.712c-3.556,2.673-6.444,5.367-7.499,3.966
		c-1.052-1.401,0.146-5.808,3.703-8.479C22.123,1.628,26.689,1.701,27.74,3.102z"/>
	<path fill="#8E1010" d="M27.74,3.102c1.056,1.4-1.822,3.038-5.376,5.712c-3.556,2.673-6.444,5.367-7.499,3.966
		c-1.052-1.401,1.979-3.974,5.535-6.646S26.689,1.701,27.74,3.102z"/>
	<circle fill="#DD9412" cx="18.473" cy="4" r="1.375"/>
	<path fill="#CE5715" d="M36.604,21.406c-1.144-1.133-2.316-0.678-3.053-0.161c-0.735-0.517-1.909-0.972-3.053,0.161
		c-3.062,3.031-7.031,3.094-7.197,1.344c0,0,0.426,4.177,6.697,0.75c0,0,2.531-1.562,3.094-0.812l0.004,0.004
		c0.117,0.194,0.27,0.34,0.455,0.326c0.186,0.014,0.338-0.132,0.455-0.326c0,0,0.002-0.002,0.004-0.004
		c0.562-0.75,3.094,0.812,3.094,0.812c6.271,3.427,6.697-0.75,6.697-0.75C43.633,24.5,39.666,24.438,36.604,21.406z"/>
	<ellipse fill="#8D97A0" cx="7.701" cy="27.271" rx="1.5" ry="8.312"/>
	<path fill="#E5AC0E" d="M6.398,23.167h2.605c-0.258-2.512-0.744-4.209-1.303-4.209S6.656,20.655,6.398,23.167z"/>
	<path d="M9.492,17.792c0,0.988-0.801,1.791-1.791,1.791c-0.988,0-1.791-0.803-1.791-1.791c0-0.99,0.803-4.459,1.791-4.459
		C8.691,13.333,9.492,16.802,9.492,17.792z"/>
	<g>
		<circle fill="#10E2C8" cx="31.592" cy="38.34" r="0.221"/>
		<circle fill="#10E2C8" cx="31.592" cy="37.63" r="0.221"/>
		<circle fill="#10E2C8" cx="31.592" cy="36.92" r="0.221"/>
		<circle fill="#10E2C8" cx="31.592" cy="42.66" r="0.221"/>
		<circle fill="#10E2C8" cx="31.592" cy="43.37" r="0.221"/>
		<circle fill="#10E2C8" cx="31.592" cy="44.081" r="0.221"/>
		<circle fill="#10E2C8" cx="33.119" cy="38.974" r="0.221"/>
		<circle fill="#10E2C8" cx="33.621" cy="38.471" r="0.221"/>
		<circle fill="#10E2C8" cx="34.123" cy="37.968" r="0.221"/>
		<circle fill="#10E2C8" cx="30.065" cy="42.027" r="0.221"/>
		<circle fill="#10E2C8" cx="29.562" cy="42.529" r="0.221"/>
		<circle fill="#10E2C8" cx="29.061" cy="43.032" r="0.221"/>
		<path fill="#10E2C8" d="M36.862,39.806c0.274-0.159,0.423-0.486,0.336-0.809c-0.086-0.321-0.376-0.531-0.694-0.532
			c0.224-0.226,0.281-0.578,0.113-0.867c-0.166-0.288-0.5-0.415-0.808-0.334c0.157-0.276,0.122-0.632-0.114-0.868
			c-0.234-0.235-0.592-0.271-0.866-0.113c0.08-0.308-0.047-0.643-0.336-0.809c-0.288-0.167-0.642-0.109-0.867,0.115
			c-0.001-0.318-0.21-0.609-0.532-0.695c-0.321-0.086-0.648,0.061-0.809,0.336c-0.084-0.307-0.36-0.533-0.693-0.533
			s-0.611,0.226-0.694,0.532c-0.161-0.274-0.487-0.421-0.809-0.335s-0.53,0.377-0.532,0.695c-0.225-0.225-0.578-0.281-0.867-0.115
			c-0.287,0.166-0.416,0.502-0.334,0.809c-0.275-0.157-0.633-0.122-0.867,0.114c-0.236,0.235-0.271,0.591-0.114,0.867
			c-0.308-0.081-0.642,0.046-0.809,0.334c-0.166,0.289-0.109,0.643,0.114,0.868c-0.317,0.001-0.607,0.211-0.693,0.532
			c-0.088,0.321,0.061,0.648,0.334,0.809c-0.307,0.083-0.533,0.36-0.533,0.694c0,0.332,0.227,0.609,0.533,0.693
			c-0.274,0.16-0.422,0.486-0.334,0.808c0.084,0.321,0.376,0.531,0.694,0.533c-0.225,0.226-0.281,0.578-0.115,0.867
			c0.167,0.288,0.501,0.415,0.81,0.334c-0.158,0.276-0.123,0.632,0.113,0.868c0.234,0.235,0.592,0.271,0.867,0.113
			c-0.081,0.308,0.047,0.643,0.334,0.809c0.288,0.167,0.643,0.109,0.868-0.114c0.001,0.318,0.21,0.608,0.531,0.694
			s0.649-0.061,0.81-0.336c0.083,0.307,0.36,0.533,0.693,0.533s0.609-0.227,0.693-0.533c0.16,0.275,0.488,0.422,0.81,0.336
			s0.53-0.376,0.532-0.694c0.225,0.224,0.578,0.281,0.867,0.114c0.288-0.166,0.416-0.501,0.334-0.809
			c0.275,0.158,0.633,0.122,0.868-0.114c0.235-0.234,0.271-0.591,0.113-0.867c0.308,0.081,0.642-0.046,0.808-0.334
			c0.168-0.289,0.11-0.642-0.113-0.868c0.316,0,0.608-0.211,0.694-0.532c0.087-0.321-0.062-0.648-0.335-0.808
			c0.307-0.084,0.533-0.361,0.533-0.694S37.17,39.89,36.862,39.806z M36.312,41.121c-0.239,0.065-0.438,0.251-0.509,0.507
			c-0.068,0.258,0.014,0.518,0.188,0.694c-0.249,0.001-0.49,0.127-0.623,0.357c-0.134,0.231-0.122,0.503,0.001,0.719
			c-0.24-0.063-0.506-0.003-0.694,0.185c-0.188,0.188-0.247,0.454-0.185,0.693c-0.216-0.122-0.488-0.134-0.719-0.001
			c-0.23,0.134-0.356,0.375-0.357,0.623c-0.178-0.175-0.437-0.256-0.693-0.187c-0.258,0.068-0.442,0.269-0.508,0.508
			c-0.125-0.214-0.355-0.359-0.621-0.359s-0.496,0.146-0.621,0.359c-0.065-0.239-0.25-0.439-0.508-0.508
			c-0.257-0.069-0.516,0.012-0.693,0.187c-0.002-0.248-0.127-0.489-0.357-0.622c-0.23-0.134-0.503-0.122-0.718,0
			c0.062-0.239,0.003-0.505-0.185-0.693c-0.189-0.188-0.455-0.248-0.695-0.185c0.123-0.216,0.135-0.487,0.002-0.718
			c-0.134-0.231-0.373-0.357-0.623-0.358c0.175-0.177,0.256-0.437,0.187-0.693s-0.269-0.442-0.508-0.507
			c0.214-0.126,0.36-0.355,0.36-0.621c0-0.268-0.146-0.497-0.361-0.622c0.24-0.065,0.439-0.251,0.509-0.508
			s-0.012-0.517-0.187-0.692c0.248-0.002,0.489-0.128,0.622-0.357c0.134-0.231,0.122-0.503-0.001-0.72
			c0.24,0.063,0.506,0.004,0.694-0.185c0.188-0.188,0.247-0.453,0.185-0.693c0.216,0.122,0.487,0.134,0.718,0.001
			c0.231-0.134,0.356-0.375,0.358-0.623c0.177,0.175,0.436,0.256,0.693,0.188c0.258-0.069,0.441-0.27,0.508-0.509
			c0.125,0.215,0.354,0.359,0.621,0.359c0.266,0,0.496-0.146,0.621-0.36c0.065,0.24,0.25,0.44,0.508,0.51
			c0.257,0.068,0.516-0.013,0.693-0.188c0.001,0.248,0.128,0.489,0.357,0.623c0.23,0.133,0.503,0.121,0.718-0.001
			c-0.062,0.24-0.003,0.506,0.185,0.693c0.189,0.188,0.455,0.248,0.695,0.185c-0.123,0.216-0.133,0.487-0.002,0.719
			c0.134,0.23,0.375,0.356,0.623,0.358c-0.175,0.176-0.256,0.436-0.188,0.692c0.069,0.257,0.271,0.442,0.51,0.507
			c-0.215,0.126-0.36,0.355-0.361,0.622C35.951,40.767,36.098,40.995,36.312,41.121z"/>
		<circle fill="#10E2C8" cx="33.75" cy="40.5" r="0.221"/>
		<circle fill="#10E2C8" cx="34.462" cy="40.5" r="0.222"/>
		<circle fill="#10E2C8" cx="35.172" cy="40.5" r="0.221"/>
		<circle fill="#10E2C8" cx="29.432" cy="40.501" r="0.221"/>
		<circle fill="#10E2C8" cx="28.722" cy="40.501" r="0.222"/>
		<circle fill="#10E2C8" cx="28.011" cy="40.501" r="0.221"/>
		<circle fill="#10E2C8" cx="33.119" cy="42.027" r="0.221"/>
		<circle fill="#10E2C8" cx="33.622" cy="42.529" r="0.221"/>
		<circle fill="#10E2C8" cx="34.124" cy="43.032" r="0.222"/>
		<circle fill="#10E2C8" cx="30.064" cy="38.974" r="0.221"/>
		<circle fill="#10E2C8" cx="29.562" cy="38.471" r="0.222"/>
		<circle fill="#10E2C8" cx="29.061" cy="37.969" r="0.221"/>
		<circle fill="#10E2C8" cx="30.512" cy="38.63" r="0.221"/>
		<circle fill="#10E2C8" cx="30.157" cy="38.015" r="0.221"/>
		<circle fill="#10E2C8" cx="29.802" cy="37.4" r="0.221"/>
		<circle fill="#10E2C8" cx="32.672" cy="42.37" r="0.221"/>
		<circle fill="#10E2C8" cx="33.026" cy="42.985" r="0.222"/>
		<circle fill="#10E2C8" cx="33.382" cy="43.601" r="0.221"/>
		<circle fill="#10E2C8" cx="32.15" cy="38.414" r="0.221"/>
		<circle fill="#10E2C8" cx="32.334" cy="37.728" r="0.221"/>
		<circle fill="#10E2C8" cx="32.518" cy="37.042" r="0.221"/>
		<circle fill="#10E2C8" cx="31.034" cy="42.586" r="0.221"/>
		<circle fill="#10E2C8" cx="30.85" cy="43.272" r="0.221"/>
		<circle fill="#10E2C8" cx="30.666" cy="43.958" r="0.221"/>
		<circle fill="#10E2C8" cx="33.461" cy="39.42" r="0.222"/>
		<circle fill="#10E2C8" cx="34.077" cy="39.065" r="0.221"/>
		<circle fill="#10E2C8" cx="34.692" cy="38.71" r="0.221"/>
		<circle fill="#10E2C8" cx="29.722" cy="41.58" r="0.221"/>
		<circle fill="#10E2C8" cx="29.107" cy="41.936" r="0.221"/>
		<circle fill="#10E2C8" cx="28.492" cy="42.29" r="0.221"/>
		<path fill="#10E2C8" d="M39.652,41.561c0.406-0.182,0.689-0.587,0.689-1.061s-0.283-0.879-0.689-1.062
			c0.345-0.281,0.514-0.746,0.391-1.203c-0.123-0.458-0.501-0.776-0.94-0.847c0.261-0.36,0.304-0.854,0.066-1.264
			s-0.686-0.62-1.128-0.574c0.159-0.416,0.072-0.903-0.262-1.238c-0.335-0.335-0.822-0.421-1.238-0.263
			c0.045-0.442-0.164-0.891-0.574-1.127c-0.41-0.238-0.904-0.195-1.264,0.066c-0.071-0.439-0.39-0.818-0.847-0.941
			c-0.458-0.123-0.923,0.047-1.204,0.393c-0.182-0.406-0.587-0.69-1.061-0.69c-0.475,0-0.88,0.284-1.062,0.69
			c-0.281-0.346-0.746-0.516-1.203-0.393c-0.458,0.123-0.776,0.502-0.847,0.941c-0.361-0.261-0.854-0.303-1.264-0.066
			s-0.62,0.685-0.574,1.128c-0.416-0.158-0.903-0.072-1.238,0.263c-0.334,0.335-0.421,0.822-0.262,1.237
			c-0.443-0.045-0.893,0.165-1.129,0.575s-0.193,0.902,0.067,1.264c-0.439,0.07-0.817,0.389-0.94,0.846s0.045,0.923,0.391,1.204
			c-0.406,0.182-0.689,0.587-0.689,1.062c0,0.473,0.283,0.879,0.689,1.061c-0.346,0.281-0.514,0.746-0.391,1.203
			c0.122,0.457,0.501,0.776,0.94,0.847c-0.261,0.36-0.304,0.854-0.067,1.265s0.687,0.619,1.129,0.573
			c-0.159,0.416-0.072,0.903,0.262,1.238c0.335,0.335,0.823,0.421,1.239,0.263c-0.046,0.442,0.164,0.891,0.573,1.128
			c0.41,0.236,0.904,0.194,1.264-0.067c0.07,0.439,0.389,0.818,0.847,0.941s0.923-0.047,1.204-0.392
			c0.182,0.406,0.586,0.689,1.061,0.689c0.474,0,0.88-0.283,1.061-0.69c0.281,0.346,0.746,0.515,1.204,0.393
			c0.457-0.123,0.776-0.502,0.847-0.941c0.36,0.261,0.854,0.304,1.264,0.067c0.41-0.237,0.619-0.686,0.574-1.128
			c0.416,0.158,0.903,0.072,1.238-0.263c0.334-0.336,0.421-0.823,0.263-1.238c0.442,0.046,0.89-0.164,1.128-0.574
			c0.236-0.41,0.193-0.903-0.067-1.264c0.439-0.071,0.817-0.39,0.94-0.847S39.998,41.841,39.652,41.561z M37.794,42.162
			c-0.094,0.354-0.011,0.711,0.189,0.985c-0.336,0.053-0.647,0.246-0.831,0.563c-0.183,0.317-0.194,0.684-0.071,1.001
			c-0.338-0.037-0.688,0.069-0.948,0.329c-0.259,0.259-0.365,0.61-0.33,0.948c-0.316-0.123-0.682-0.111-1,0.072
			s-0.511,0.494-0.563,0.83c-0.274-0.201-0.631-0.283-0.985-0.189c-0.354,0.096-0.621,0.346-0.759,0.657
			c-0.214-0.265-0.537-0.438-0.903-0.438s-0.689,0.174-0.903,0.438c-0.138-0.312-0.404-0.562-0.758-0.657
			c-0.354-0.094-0.712-0.012-0.985,0.19c-0.053-0.337-0.246-0.647-0.563-0.831c-0.318-0.184-0.685-0.195-1.002-0.072
			c0.037-0.338-0.069-0.689-0.329-0.948c-0.259-0.259-0.609-0.365-0.947-0.329c0.122-0.317,0.11-0.684-0.072-1.001
			c-0.184-0.317-0.495-0.511-0.831-0.563c0.2-0.274,0.284-0.631,0.19-0.985c-0.096-0.354-0.347-0.622-0.658-0.759
			c0.266-0.213,0.438-0.536,0.438-0.902c0-0.367-0.173-0.69-0.438-0.903c0.312-0.138,0.562-0.405,0.657-0.759
			c0.095-0.354,0.011-0.711-0.189-0.986c0.336-0.052,0.647-0.246,0.831-0.562c0.183-0.317,0.194-0.685,0.071-1.001
			c0.339,0.036,0.688-0.07,0.948-0.329c0.26-0.26,0.366-0.61,0.329-0.948c0.317,0.123,0.683,0.11,1-0.072
			c0.318-0.184,0.512-0.495,0.564-0.831c0.274,0.201,0.631,0.284,0.985,0.189c0.354-0.096,0.621-0.346,0.759-0.656
			c0.214,0.264,0.536,0.438,0.903,0.438c0.366,0,0.689-0.174,0.902-0.438c0.139,0.312,0.405,0.562,0.76,0.657
			c0.354,0.095,0.711,0.012,0.984-0.189c0.054,0.336,0.248,0.647,0.564,0.83c0.316,0.184,0.684,0.195,1,0.073
			c-0.036,0.338,0.07,0.688,0.33,0.947c0.259,0.259,0.609,0.365,0.947,0.329c-0.122,0.317-0.11,0.684,0.072,1.001
			c0.184,0.317,0.495,0.511,0.831,0.563c-0.2,0.274-0.283,0.632-0.189,0.986c0.096,0.353,0.346,0.62,0.657,0.758
			c-0.266,0.213-0.438,0.536-0.438,0.903c0,0.366,0.172,0.689,0.438,0.903C38.141,41.54,37.89,41.808,37.794,42.162z"/>
		<circle fill="#10E2C8" cx="33.679" cy="41.059" r="0.221"/>
		<circle fill="#10E2C8" cx="34.364" cy="41.243" r="0.221"/>
		<circle fill="#10E2C8" cx="35.05" cy="41.426" r="0.221"/>
		<circle fill="#10E2C8" cx="29.506" cy="39.941" r="0.221"/>
		<circle fill="#10E2C8" cx="28.819" cy="39.757" r="0.221"/>
		<circle fill="#10E2C8" cx="28.134" cy="39.574" r="0.221"/>
		<circle fill="#10E2C8" cx="29.722" cy="39.42" r="0.221"/>
		<circle fill="#10E2C8" cx="29.106" cy="39.065" r="0.221"/>
		<circle fill="#10E2C8" cx="28.492" cy="38.71" r="0.221"/>
		<circle fill="#10E2C8" cx="33.463" cy="41.58" r="0.221"/>
		<circle fill="#10E2C8" cx="34.077" cy="41.935" r="0.222"/>
		<circle fill="#10E2C8" cx="34.692" cy="42.29" r="0.221"/>
		<circle fill="#10E2C8" cx="31.033" cy="38.414" r="0.221"/>
		<circle fill="#10E2C8" cx="30.849" cy="37.728" r="0.221"/>
		<circle fill="#10E2C8" cx="30.665" cy="37.042" r="0.221"/>
		<circle fill="#10E2C8" cx="32.151" cy="42.586" r="0.221"/>
		<circle fill="#10E2C8" cx="32.335" cy="43.271" r="0.221"/>
		<circle fill="#10E2C8" cx="32.519" cy="43.958" r="0.221"/>
		<circle fill="#10E2C8" cx="32.672" cy="38.63" r="0.221"/>
		<circle fill="#10E2C8" cx="33.026" cy="38.015" r="0.221"/>
		<circle fill="#10E2C8" cx="33.382" cy="37.399" r="0.221"/>
		<circle fill="#10E2C8" cx="30.512" cy="42.371" r="0.221"/>
		<circle fill="#10E2C8" cx="30.157" cy="42.985" r="0.221"/>
		<circle fill="#10E2C8" cx="29.802" cy="43.601" r="0.221"/>
		<path fill="#10E2C8" d="M33.621,39.728c-0.119,0.031-0.189,0.152-0.157,0.271s0.153,0.188,0.272,0.156
			c0.115-0.032,0.187-0.152,0.156-0.271C33.861,39.765,33.738,39.695,33.621,39.728z"/>
		<circle fill="#10E2C8" cx="34.364" cy="39.757" r="0.221"/>
		<circle fill="#10E2C8" cx="35.05" cy="39.573" r="0.221"/>
		<circle fill="#10E2C8" cx="29.506" cy="41.059" r="0.221"/>
		<circle fill="#10E2C8" cx="28.82" cy="41.243" r="0.221"/>
		<circle fill="#10E2C8" cx="28.134" cy="41.427" r="0.221"/>
	</g>
	<path fill="#10E2C8" d="M58.493,30.792c0,4.371,2.163,8-1.749,8s-7.084-3.545-7.084-7.916c0-4.373,3.172-7.917,7.084-7.917
		S58.493,26.419,58.493,30.792z"/>
	<path fill="#0AC4A9" d="M56.744,22.959c3.912,0,1.749,3.46,1.749,7.833c0,4.371,2.163,8-1.749,8"/>
</g>
</svg>
