<?xml version="1.0" encoding="utf-8"?>
<!-- Generator: Adobe Illustrator 16.0.0, SVG Export Plug-In . SVG Version: 6.00 Build 0)  -->
<!DOCTYPE svg PUBLIC "-//W3C//DTD SVG 1.1//EN" "http://www.w3.org/Graphics/SVG/1.1/DTD/svg11.dtd">
<svg version="1.1" xmlns="http://www.w3.org/2000/svg" xmlns:xlink="http://www.w3.org/1999/xlink" x="0px" y="0px" width="65px"
	 height="65px" viewBox="0 0 65 65" enable-background="new 0 0 65 65" xml:space="preserve">
<g id="Layer_1">
	<g>
		<g>
			<g>
				<g>
					<g>
						<path fill="#C12B7A" d="M32.5,42.393c-8.981,0-16.29-7.308-16.29-16.289c0-1.381,1.12-2.5,2.5-2.5c1.381,0,2.5,1.119,2.5,2.5
							c0,6.225,5.065,11.289,11.29,11.289c6.226,0,11.29-5.064,11.29-11.289c0-1.381,1.119-2.5,2.5-2.5s2.5,1.119,2.5,2.5
							C48.79,35.085,41.482,42.393,32.5,42.393z"/>
					</g>
				</g>
				<g>
					<g>
						<polyline fill="#A3C4B7" points="15.601,20.023 32.5,3.125 49.397,20.023 						"/>
					</g>
					<g>
						<path fill="#C12B7A" d="M49.397,22.523c-0.639,0-1.279-0.244-1.767-0.732L32.5,6.66L17.369,21.791
							c-0.976,0.977-2.559,0.977-3.535,0c-0.978-0.977-0.978-2.559,0-3.535L30.732,1.357c0.977-0.977,2.558-0.977,3.535,0
							l16.898,16.898c0.978,0.977,0.978,2.559,0,3.535C50.678,22.279,50.038,22.523,49.397,22.523z"/>
					</g>
				</g>
			</g>
			<g>
				<g>
					<g>
						<path fill="#C12B7A" d="M46.289,41.396c-1.381,0-2.5-1.119-2.5-2.5c0-6.225-5.063-11.289-11.289-11.289
							s-11.291,5.064-11.291,11.289c0,1.381-1.119,2.5-2.5,2.5s-2.5-1.119-2.5-2.5c0-8.981,7.309-16.289,16.291-16.289
							c8.981,0,16.289,7.308,16.289,16.289C48.789,40.277,47.67,41.396,46.289,41.396z"/>
					</g>
				</g>
				<g>
					<g>
						<polyline fill="#A3C4B7" points="49.397,44.978 32.5,61.875 15.601,44.978 						"/>
					</g>
					<g>
						<path fill="#C12B7A" d="M32.5,64.375c-0.64,0-1.28-0.244-1.768-0.732L13.834,46.746c-0.978-0.976-0.978-2.559,0-3.535
							c0.977-0.977,2.56-0.977,3.535,0L32.5,58.34l15.131-15.13c0.977-0.977,2.558-0.977,3.535,0s0.978,2.56,0,3.535L34.268,63.643
							C33.779,64.131,33.14,64.375,32.5,64.375z"/>
					</g>
				</g>
			</g>
		</g>
		<g>
			<g>
				<circle fill="#C12B7A" cx="28.437" cy="32.5" r="1.063"/>
			</g>
			<g>
				<circle fill="#C12B7A" cx="32.5" cy="32.5" r="1.063"/>
			</g>
			<g>
				<circle fill="#C12B7A" cx="36.562" cy="32.5" r="1.062"/>
			</g>
		</g>
	</g>
</g>
<g id="nyt_x5F_exporter_x5F_info" display="none">
</g>
</svg>
