<?xml version="1.0" encoding="utf-8"?>
<!-- Generator: Adobe Illustrator 16.0.0, SVG Export Plug-In . SVG Version: 6.00 Build 0)  -->
<!DOCTYPE svg PUBLIC "-//W3C//DTD SVG 1.1//EN" "http://www.w3.org/Graphics/SVG/1.1/DTD/svg11.dtd">
<svg version="1.1" id="Layer_1" xmlns="http://www.w3.org/2000/svg" xmlns:xlink="http://www.w3.org/1999/xlink" x="0px" y="0px"
	 width="64px" height="64px" viewBox="0 0 64 64" enable-background="new 0 0 64 64" xml:space="preserve">
<g>
	<polygon fill="#EA1F0A" points="6,18.5 31,32.9 31,61.8 6,47.4 	"/>
	<polyline fill="#D81107" points="6.1,18.8 31,32.9 31,61 	"/>
	<polygon fill="#EF683F" points="32,30.9 7.2,16.6 32,2.2 56.8,16.6 	"/>
	<polyline fill="#E24F2D" points="32,2.2 56.8,16.6 32,30.9 	"/>
	<g>
		<ellipse fill="#FFFFFF" cx="32" cy="16.6" rx="5.5" ry="3.8"/>
		<path fill="#E5E5E5" d="M32,12.8c3,0,5.5,1.7,5.5,3.8S35,20.3,32,20.3"/>
	</g>
	<polygon fill="#AA2011" points="33,32.9 58,18.5 58,47.4 33,61.8 	"/>
	<polyline fill="#99170D" points="33,61 33,32.9 57.9,18.6 	"/>
	<g>
		<g>
			<ellipse fill="#FFFFFF" cx="52.3" cy="30.1" rx="2.5" ry="3.6"/>
			<path fill="#E5E5E5" d="M49.9,30.1c0-2,1.1-3.6,2.5-3.6c1.4,0,2.5,1.6,2.5,3.6"/>
		</g>
		<g>
			<ellipse fill="#FFFFFF" cx="46.3" cy="39.8" rx="2.5" ry="3.6"/>
			<path fill="#E5E5E5" d="M43.8,39.8c0-2,1.1-3.6,2.5-3.6c1.4,0,2.5,1.6,2.5,3.6"/>
		</g>
		<g>
			<ellipse fill="#FFFFFF" cx="40.2" cy="49.5" rx="2.5" ry="3.6"/>
			<path fill="#E5E5E5" d="M37.8,49.5c0-2,1.1-3.6,2.5-3.6c1.4,0,2.5,1.6,2.5,3.6"/>
		</g>
	</g>
	<g>
		<g>
			<ellipse fill="#FFFFFF" cx="14" cy="33.4" rx="2.6" ry="3.8"/>
			<path fill="#E5E5E5" d="M11.4,33.4c0-2.1,1.1-3.8,2.6-3.8s2.6,1.7,2.6,3.8"/>
		</g>
		<g>
			<ellipse fill="#FFFFFF" cx="21.8" cy="46.2" rx="2.6" ry="3.8"/>
			<path fill="#E5E5E5" d="M19.2,46.2c0-2.1,1.1-3.8,2.6-3.8s2.6,1.7,2.6,3.8"/>
		</g>
	</g>
</g>
</svg>
