<?xml version="1.0" encoding="utf-8"?>
<!-- Generator: Adobe Illustrator 16.0.0, SVG Export Plug-In . SVG Version: 6.00 Build 0)  -->
<!DOCTYPE svg PUBLIC "-//W3C//DTD SVG 1.1//EN" "http://www.w3.org/Graphics/SVG/1.1/DTD/svg11.dtd">
<svg version="1.1" xmlns="http://www.w3.org/2000/svg" xmlns:xlink="http://www.w3.org/1999/xlink" x="0px" y="0px" width="65px"
	 height="65px" viewBox="0 0 65 65" enable-background="new 0 0 65 65" xml:space="preserve">
<g id="Layer_1">
	<g>
		<g>
			<g>
				<line fill="#B1BCB8" x1="3.333" y1="45.417" x2="61.667" y2="45.417"/>
			</g>
			<g>
				<path fill="#0071AA" d="M61.667,47.917H3.333c-1.381,0-2.5-1.119-2.5-2.5s1.119-2.5,2.5-2.5h58.334c1.381,0,2.5,1.119,2.5,2.5
					S63.048,47.917,61.667,47.917z"/>
			</g>
		</g>
		<g>
			<g>
				<line fill="#B1BCB8" x1="3.333" y1="33.75" x2="61.667" y2="33.75"/>
			</g>
			<g>
				<path fill="#0071AA" d="M61.667,36.25H3.333c-1.381,0-2.5-1.119-2.5-2.5s1.119-2.5,2.5-2.5h58.334c1.381,0,2.5,1.119,2.5,2.5
					S63.048,36.25,61.667,36.25z"/>
			</g>
		</g>
		<g>
			<g>
				<g>
					<path fill="#32F9B1" d="M48.29,36.25c0.016-0.277,0.043-0.553,0.043-0.834c0-8.744-7.088-15.833-15.834-15.833
						c-8.744,0-15.832,7.089-15.832,15.833c0,0.281,0.027,0.557,0.042,0.834"/>
				</g>
				<g>
					<path fill="#2FD4EA" d="M16.709,36.25"/>
				</g>
				<g>
					<path fill="#2FD4EA" d="M48.29,36.25c0.016-0.277,0.043-0.553,0.043-0.834c0-8.744-7.088-15.833-15.834-15.833"/>
				</g>
				<g>
					<path fill="#0071AA" d="M48.293,38.75c-0.044,0-0.089-0.001-0.134-0.004c-1.379-0.072-2.438-1.249-2.365-2.628l0.02-0.299
						c0.008-0.134,0.02-0.268,0.02-0.403c0-7.352-5.981-13.333-13.334-13.333c-7.352,0-13.332,5.981-13.332,13.333
						c0,0.136,0.011,0.27,0.02,0.403l0.019,0.299c0.073,1.379-0.985,2.556-2.364,2.628c-1.374,0.106-2.556-0.985-2.628-2.364
						l-0.015-0.227c-0.016-0.245-0.031-0.49-0.031-0.739c0-10.108,8.225-18.333,18.332-18.333c10.109,0,18.334,8.225,18.334,18.333
						c0,0.249-0.016,0.494-0.031,0.739l-0.016,0.227C50.716,37.716,49.612,38.75,48.293,38.75z"/>
				</g>
			</g>
		</g>
	</g>
</g>
<g id="nyt_x5F_exporter_x5F_info" display="none">
</g>
</svg>
