<?xml version="1.0" encoding="utf-8"?>
<!-- Generator: Adobe Illustrator 16.0.0, SVG Export Plug-In . SVG Version: 6.00 Build 0)  -->
<!DOCTYPE svg PUBLIC "-//W3C//DTD SVG 1.1//EN" "http://www.w3.org/Graphics/SVG/1.1/DTD/svg11.dtd">
<svg version="1.1" xmlns="http://www.w3.org/2000/svg" xmlns:xlink="http://www.w3.org/1999/xlink" x="0px" y="0px" width="65px"
	 height="65px" viewBox="0 0 65 65" enable-background="new 0 0 65 65" xml:space="preserve">
<g id="Layer_1">
	<g>
		<path fill="#98A8A5" d="M64.5,53.965c0,1.689-1.37,3.061-3.059,3.061H21.42c-1.692,0-3.061-1.371-3.061-3.061V20.825
			c0-1.688,1.368-3.057,3.061-3.057h40.021c1.688,0,3.059,1.369,3.059,3.057V53.965z"/>
		<path fill="#ADBCB9" d="M64.5,45.792L46.741,57.026h14.7c1.688,0,3.059-1.371,3.059-3.061V45.792z"/>
		<path fill="#748481" d="M64.5,44.171c0,1.69-1.37,3.062-3.059,3.062H21.42c-1.692,0-3.061-1.371-3.061-3.062v-33.14
			c0-1.688,1.368-3.058,3.061-3.058h40.021c1.688,0,3.059,1.37,3.059,3.058V44.171z"/>
		<path fill="#586865" d="M61.441,7.974H21.42c-1.692,0-3.061,1.37-3.061,3.058v3.182c0,1.689,1.368,3.061,3.061,3.061h40.021
			c1.688,0,3.059-1.371,3.059-3.061v-3.182C64.5,9.344,63.13,7.974,61.441,7.974z"/>
		<g>
			<path fill="#AD4831" d="M28.986,18.454c-0.864,0-1.564-0.7-1.564-1.564l0,0c0-0.863,0.699-1.562,1.564-1.562h25.566
				c0.863,0.001,1.563,0.701,1.563,1.562l0,0c-0.001,0.865-0.701,1.565-1.565,1.563L28.986,18.454z"/>
			<path fill="#893210" d="M56.116,16.888L56.116,16.888c-0.001,0.865-0.701,1.565-1.565,1.563l-25.564,0.002
				c-0.864,0-1.564-0.7-1.564-1.564l0,0"/>
			<path fill="#3D3D3D" d="M57.789,13.318c2.098,0,3.797,1.599,3.797,3.572s-1.699,3.573-3.797,3.571
				c-2.096,0.002-5.247-1.598-5.247-3.572C52.542,14.917,55.694,13.318,57.789,13.318z"/>
			<path d="M52.542,16.889c0-1.973,3.152-3.571,5.247-3.571c2.098,0,3.797,1.599,3.797,3.572"/>
		</g>
		<g>
			<path fill="#AD4831" d="M28.986,26.709c-0.864,0-1.564-0.699-1.564-1.563l0,0c0-0.862,0.699-1.563,1.564-1.563h25.566
				c0.863,0.002,1.563,0.701,1.563,1.562l0,0c-0.001,0.865-0.701,1.564-1.565,1.564H28.986z"/>
			<path fill="#893210" d="M56.116,25.145L56.116,25.145c-0.001,0.865-0.701,1.564-1.565,1.564H28.986
				c-0.864,0-1.564-0.699-1.564-1.563l0,0"/>
			<path fill="#3D3D3D" d="M57.789,21.575c2.098,0,3.797,1.599,3.797,3.572s-1.699,3.572-3.797,3.572
				c-2.096,0-5.247-1.599-5.247-3.573C52.542,23.173,55.694,21.575,57.789,21.575z"/>
			<path d="M52.542,25.146c0-1.973,3.152-3.571,5.247-3.571c2.098,0,3.797,1.599,3.797,3.572"/>
		</g>
		<g>
			<path fill="#AD4831" d="M28.986,34.967c-0.864,0-1.564-0.7-1.564-1.564l0,0c0-0.863,0.699-1.562,1.564-1.562h25.566
				c0.863,0.001,1.563,0.701,1.563,1.562l0,0c-0.001,0.865-0.701,1.565-1.565,1.563L28.986,34.967z"/>
			<path fill="#893210" d="M56.116,33.402L56.116,33.402c-0.001,0.865-0.701,1.565-1.565,1.563l-25.564,0.002
				c-0.864,0-1.564-0.7-1.564-1.564l0,0"/>
			<path fill="#3D3D3D" d="M57.789,29.832c2.098,0,3.797,1.599,3.797,3.572s-1.699,3.573-3.797,3.571
				c-2.096,0.002-5.247-1.598-5.247-3.572C52.542,31.43,55.694,29.832,57.789,29.832z"/>
			<path d="M52.542,33.403c0-1.973,3.152-3.571,5.247-3.571c2.098,0,3.797,1.599,3.797,3.572"/>
		</g>
		<g>
			<path fill="#AD4831" d="M28.986,43.223c-0.864,0-1.564-0.699-1.564-1.563l0,0c0-0.862,0.699-1.563,1.564-1.563h25.566
				c0.863,0.002,1.563,0.701,1.563,1.562l0,0c-0.001,0.865-0.701,1.564-1.565,1.564H28.986z"/>
			<path fill="#893210" d="M56.116,41.659L56.116,41.659c-0.001,0.865-0.701,1.564-1.565,1.564H28.986
				c-0.864,0-1.564-0.699-1.564-1.563l0,0"/>
			<path fill="#3D3D3D" d="M57.789,38.088c2.098,0,3.797,1.599,3.797,3.572s-1.699,3.572-3.797,3.572
				c-2.096,0-5.247-1.599-5.247-3.573C52.542,39.687,55.694,38.088,57.789,38.088z"/>
			<path d="M52.542,41.66c0-1.973,3.152-3.571,5.247-3.571c2.098,0,3.797,1.599,3.797,3.572"/>
		</g>
		<path fill="#195146" d="M46.641,53.965c0,1.689,0.459,3.061-1.229,3.061H3.561c-1.692,0-3.061-1.371-3.061-3.061V20.825
			c0-1.688,1.368-3.057,3.061-3.057h40.021c1.688,0,3.059,1.369,3.059,3.057V53.965z"/>
		<path fill="#20CEAC" d="M46.641,44.171c0,1.69,0.388,3.062-1.3,3.062H3.561c-1.692,0-3.061-1.371-3.061-3.062v-33.14
			c0-1.688,1.368-3.058,3.061-3.058h41.684c1.688,0,1.396,1.37,1.396,3.058V44.171z"/>
		<path fill="#0FA88E" d="M45.244,7.974c1.688,0,1.396,1.37,1.396,3.058v33.14c0,1.69,0.388,3.062-1.3,3.062H3.561
			c-1.692,0-3.061-1.371-3.061-3.062"/>
		<path fill="#29665A" d="M9.146,53.807l-1.18-1.18l1.18-1.178c0.233-0.233,0.233-0.613,0-0.85c-0.236-0.236-0.617-0.234-0.851,0
			l-1.179,1.176L5.939,50.6c-0.234-0.234-0.614-0.234-0.849,0c-0.235,0.234-0.235,0.613,0,0.85l1.177,1.178l-1.177,1.18
			c-0.235,0.233-0.235,0.615,0,0.849c0.117,0.118,0.271,0.177,0.424,0.177c0.154-0.001,0.309-0.059,0.427-0.177l1.176-1.178
			l1.181,1.178c0.116,0.118,0.271,0.177,0.423,0.176c0.154,0,0.309-0.058,0.426-0.176C9.382,54.422,9.382,54.041,9.146,53.807z"/>
		<path fill="#29665A" d="M14.523,53.807l-1.179-1.18l1.179-1.178c0.234-0.233,0.234-0.613,0-0.85c-0.236-0.236-0.616-0.234-0.851,0
			l-1.178,1.176L11.316,50.6c-0.234-0.234-0.615-0.234-0.85,0c-0.232,0.234-0.232,0.613,0,0.85l1.179,1.178l-1.179,1.18
			c-0.232,0.233-0.232,0.615,0,0.849c0.118,0.118,0.271,0.177,0.426,0.177c0.154-0.001,0.309-0.059,0.428-0.177l1.176-1.178
			l1.179,1.178c0.116,0.118,0.271,0.177,0.425,0.176c0.153,0,0.307-0.058,0.424-0.176C14.759,54.422,14.759,54.041,14.523,53.807z"
			/>
		<path fill="#29665A" d="M19.902,53.807l-1.182-1.18l1.182-1.178c0.232-0.233,0.232-0.613,0-0.85c-0.237-0.236-0.618-0.234-0.853,0
			l-1.178,1.176L16.694,50.6c-0.234-0.234-0.614-0.234-0.849,0s-0.234,0.613,0,0.85l1.177,1.178l-1.177,1.18
			c-0.234,0.233-0.234,0.615,0,0.849c0.117,0.118,0.271,0.177,0.424,0.177c0.154-0.001,0.309-0.059,0.427-0.177l1.177-1.178
			l1.18,1.178c0.116,0.118,0.27,0.177,0.424,0.176c0.153,0,0.308-0.058,0.426-0.176C20.135,54.422,20.135,54.041,19.902,53.807z"/>
		<path fill="#29665A" d="M25.278,53.807l-1.18-1.18l1.18-1.178c0.234-0.233,0.234-0.613,0-0.85c-0.236-0.236-0.616-0.234-0.851,0
			l-1.178,1.176L22.07,50.6c-0.232-0.234-0.613-0.234-0.847,0c-0.235,0.234-0.235,0.613,0,0.85l1.177,1.178l-1.177,1.18
			c-0.235,0.233-0.235,0.615,0,0.849c0.116,0.118,0.27,0.177,0.424,0.177c0.154-0.001,0.309-0.059,0.426-0.177l1.177-1.178
			l1.18,1.178c0.116,0.118,0.271,0.177,0.424,0.176c0.153,0,0.308-0.058,0.425-0.176C25.514,54.422,25.514,54.041,25.278,53.807z"/>
		<path fill="#29665A" d="M30.654,53.807l-1.178-1.18l1.178-1.178c0.235-0.233,0.235-0.613,0-0.85c-0.234-0.236-0.615-0.234-0.849,0
			l-1.179,1.176L27.449,50.6c-0.234-0.234-0.615-0.234-0.85,0s-0.234,0.613,0,0.85l1.178,1.178l-1.178,1.18
			c-0.234,0.233-0.234,0.615,0,0.849c0.118,0.118,0.27,0.177,0.425,0.177c0.154-0.001,0.309-0.059,0.427-0.177l1.177-1.178
			l1.18,1.178c0.115,0.118,0.27,0.177,0.424,0.176c0.153,0,0.308-0.058,0.423-0.176C30.891,54.422,30.891,54.041,30.654,53.807z"/>
		<path fill="#29665A" d="M36.033,53.807l-1.18-1.18l1.18-1.178c0.234-0.233,0.234-0.613,0-0.85c-0.236-0.236-0.616-0.234-0.851,0
			l-1.179,1.176L32.826,50.6c-0.233-0.234-0.614-0.234-0.849,0s-0.234,0.613,0,0.85l1.177,1.178l-1.177,1.18
			c-0.234,0.233-0.234,0.615,0,0.849c0.117,0.118,0.271,0.177,0.425,0.177c0.154-0.001,0.308-0.059,0.427-0.177l1.177-1.178
			l1.178,1.178c0.117,0.118,0.271,0.177,0.426,0.176c0.152,0,0.307-0.058,0.424-0.176C36.268,54.422,36.268,54.041,36.033,53.807z"
			/>
		<path fill="#29665A" d="M41.411,53.807l-1.18-1.18l1.18-1.178c0.233-0.233,0.233-0.613,0-0.85c-0.236-0.236-0.617-0.234-0.852,0
			l-1.178,1.176L38.203,50.6c-0.233-0.234-0.614-0.234-0.848,0c-0.236,0.234-0.236,0.613,0,0.85l1.177,1.178l-1.177,1.18
			c-0.236,0.233-0.236,0.615,0,0.849c0.117,0.118,0.27,0.177,0.424,0.177c0.154-0.001,0.309-0.059,0.427-0.177l1.177-1.178
			l1.18,1.178c0.115,0.118,0.27,0.177,0.424,0.176c0.153,0,0.308-0.058,0.425-0.176C41.646,54.422,41.646,54.041,41.411,53.807z"/>
		<circle fill="#7558AF" cx="23.59" cy="27.604" r="12.604"/>
		<path fill="#654596" d="M23.59,40.206c6.96,0,12.604-5.642,12.604-12.602c0-3.597-1.515-6.833-3.931-9.129L12.852,34.178
			C15.07,37.79,19.041,40.206,23.59,40.206z"/>
	</g>
</g>
<g id="nyt_x5F_exporter_x5F_info" display="none">
</g>
</svg>
