<?xml version="1.0" encoding="utf-8"?>
<!-- Generator: Adobe Illustrator 16.0.0, SVG Export Plug-In . SVG Version: 6.00 Build 0)  -->
<!DOCTYPE svg PUBLIC "-//W3C//DTD SVG 1.1//EN" "http://www.w3.org/Graphics/SVG/1.1/DTD/svg11.dtd">
<svg version="1.1" id="Layer_1" xmlns="http://www.w3.org/2000/svg" xmlns:xlink="http://www.w3.org/1999/xlink" x="0px" y="0px"
	 width="64px" height="64px" viewBox="0 0 64 64" enable-background="new 0 0 64 64" xml:space="preserve">
<g>
	<g>
		<circle fill="#343A3A" cx="32" cy="40.3" r="22.4"/>
		<path fill="#777777" d="M13.7,39c-0.5-7.6,5.3-14.1,12.8-14.5"/>
		<path fill="#1E2323" d="M47.8,24.4c8.8,8.8,8.8,22.9,0,31.7c-8.8,8.8-22.9,8.8-31.7,0"/>
		<path fill="#343A3A" d="M43,20c0,2.2-1.8,4-4,4H25c-2.2,0-4-1.8-4-4l0,0c0-2.2,1.8-4,4-4h14C41.2,16,43,17.8,43,20L43,20z"/>
		<path fill="#1E2323" d="M43,20L43,20c0,2.3-1.7,4-4,4H25c-2.3,0-4-1.7-4-4l0,0"/>
		<g>
			<g>
				<g>
					<path fill="#E88813" d="M33,15h-3V7.6c0-1.8-1.4-3.1-3.1-3.1c-1.8,0-3.1,1.4-3.1,3.4h-3.1c0-4,2.7-6.5,6.2-6.5
						c3.5,0,6.2,2.6,6.2,6.1V15z"/>
				</g>
				<g>
					<path fill="#BC5E00" d="M26.8,1.5c3.5,0,6.2,2.6,6.2,6.1V15h-3V7.6c0-1.8-1.4-3.1-3.1-3.1"/>
				</g>
			</g>
			<circle fill="#E88813" cx="22.2" cy="9.5" r="2.5"/>
			<path fill="#BC5E00" d="M23.9,7.8c1,1,1,2.5,0,3.5c-1,1-2.5,1-3.5,0"/>
		</g>
	</g>
	<g>
		<path fill="#CEE0C7" d="M18.1,10.5c0,0.3-0.2,0.6-0.5,0.6L12.3,12c-0.3,0-0.6-0.2-0.6-0.5l0,0c0-0.3,0.2-0.6,0.5-0.6l5.3-0.8
			C17.8,10,18.1,10.2,18.1,10.5L18.1,10.5z"/>
		<g>
			<path fill="#CEE0C7" d="M18.9,7c-0.2,0.2-0.5,0.3-0.8,0.1L13.8,4c-0.2-0.2-0.3-0.5-0.1-0.8l0,0c0.2-0.3,0.5-0.3,0.8-0.1l4.3,3.2
				C19,6.4,19.1,6.8,18.9,7L18.9,7z"/>
			<path fill="#CEE0C7" d="M19.9,13.6c-0.2-0.2-0.6-0.1-0.8,0.1l-3.2,4.3c-0.2,0.2-0.1,0.6,0.1,0.8l0,0c0.2,0.2,0.6,0.1,0.8-0.1
				l3.2-4.3C20.2,14.2,20.1,13.8,19.9,13.6L19.9,13.6z"/>
		</g>
	</g>
</g>
</svg>
