<?xml version="1.0" encoding="utf-8"?>
<!-- Generator: Adobe Illustrator 16.0.0, SVG Export Plug-In . SVG Version: 6.00 Build 0)  -->
<!DOCTYPE svg PUBLIC "-//W3C//DTD SVG 1.1//EN" "http://www.w3.org/Graphics/SVG/1.1/DTD/svg11.dtd">
<svg version="1.1" id="Layer_1" xmlns="http://www.w3.org/2000/svg" xmlns:xlink="http://www.w3.org/1999/xlink" x="0px" y="0px"
	 width="64px" height="64px" viewBox="0 0 64 64" enable-background="new 0 0 64 64" xml:space="preserve">
<g>
	<path fill="#00233F" d="M51.5,51.2c0,0,8,9,11,6c3-3-2.8-7.8-7.9-8.6C49.6,47.7,51.5,51.2,51.5,51.2z"/>
	<path fill="#1E4784" d="M30,62.1c0,0.3-0.6,0.5-1,0.5l0,0c-0.4,0-1-0.2-1-0.5v-8.2c0-0.3,0.5-0.7,1-0.7l0,0c0.6,0,1,0.5,1,0.8V62.1
		z"/>
	<path fill="#1E4784" d="M26.5,63c-0.4,0-0.7-0.1-0.7-0.5l0,0c0-0.4,0.3-0.5,0.7-0.5H37c0.4,0,0.7,0.1,0.7,0.5l0,0
		c0,0.4-0.3,0.5-0.7,0.5H26.5z"/>
	<path fill="#1AB0D3" d="M59.5,49.1c-6.8,9.4-26.6,11.8-41.3,1.2C3.6,39.7,5.3,29.2,5.6,17.6C6.3-5.7,50.5-7.8,42.7,31.6
		C37.8,56.2,66.3,39.7,59.5,49.1z"/>
	<path fill="#1C9ED1" d="M42.7,31.6c-4.9,24.6,23.6,8.2,16.8,17.5c-6.8,9.4-26.6,11.8-41.3,1.2"/>
	<g>
		<path fill="#00233F" d="M16.3,8.8c1.6,0,2.9,0.6,2.9,1.4l-5.8-0.1C13.4,9.4,14.7,8.7,16.3,8.8z"/>
		<path fill="#63D3E5" d="M17.7,23.5c-3.8,0-6.9,0.9-6.9,2c0,1.1,3.1,0.6,6.9,0.6c3.8,0,6.9,0.5,6.9-0.6
			C24.6,24.3,21.5,23.5,17.7,23.5z"/>
		<circle fill="#098CAF" cx="16.5" cy="22" r="2.8"/>
		<circle fill="#1E4784" cx="16.5" cy="21.2" r="2.8"/>
		<path fill="#00233F" d="M16.5,18.4c1.6,0,2.8,1.3,2.8,2.8S18,24,16.5,24"/>
	</g>
	<rect x="2.1" y="21.5" transform="matrix(0.7072 -0.707 0.707 0.7072 -16.0389 11.2703)" fill="#F4B20C" width="7" height="7"/>
	<polygon fill="#F7910B" points="10.5,25 5.6,29.9 0.6,25 7,27.3 	"/>
	<path fill="#55C5D8" d="M32.1,5.2C32.1,6.7,29,6,24.8,6c-4.1,0-7.6,0.7-7.6-0.8c0-1.5,3.3-2.7,7.5-2.7S32.1,3.7,32.1,5.2z"/>
	<path fill="#1E4784" d="M36,62.1c0,0.3-0.6,0.5-1,0.5l0,0c-0.4,0-1-0.2-1-0.5v-8.2c0-0.3,0.5-0.7,1-0.7l0,0c0.6,0,1,0.5,1,0.8V62.1
		z"/>
	<path fill="#1E4784" d="M32.6,37.2c0,0,15.6-1.3,12.6,5.1c-3,6.4-7.3,1.2-7.3,1.2s3.8,4.8-0.1,6.2C31.9,51.7,32.6,37.2,32.6,37.2z"
		/>
	<path fill="#1E4784" d="M52.6,47.9c0,0-1-15.7,4.6-15.7c5.6,0,4.6,9.8,0.7,15.2C54,52.9,52.6,47.9,52.6,47.9z"/>
	
		<ellipse transform="matrix(-0.6623 0.7493 -0.7493 -0.6623 61.8106 60.2865)" fill="#55C5D8" cx="17.3" cy="44.1" rx="4.3" ry="11.7"/>
</g>
</svg>
