<?xml version="1.0" encoding="utf-8"?>
<!-- Generator: Adobe Illustrator 16.0.0, SVG Export Plug-In . SVG Version: 6.00 Build 0)  -->
<!DOCTYPE svg PUBLIC "-//W3C//DTD SVG 1.1//EN" "http://www.w3.org/Graphics/SVG/1.1/DTD/svg11.dtd">
<svg version="1.1" id="Layer_1" xmlns="http://www.w3.org/2000/svg" xmlns:xlink="http://www.w3.org/1999/xlink" x="0px" y="0px"
	 width="64px" height="64px" viewBox="0 0 64 64" enable-background="new 0 0 64 64" xml:space="preserve">
<g>
	<polygon fill="#5EE5CF" points="61,63 3,63 22.9,17 41.1,17 	"/>
	<g>
		<g>
			<path fill="#EA1F0A" d="M38.7,19.8c0,3-3,5.3-6.7,5.3s-6.7-2.4-6.7-5.3c0-3,3-5.3,6.7-5.3S38.7,16.8,38.7,19.8z"/>
			<path fill="#C61109" d="M36.7,16c2.6,2.1,2.6,5.5,0,7.6c-2.6,2.1-6.8,2.1-9.5,0"/>
		</g>
		<g>
			<g>
				<path fill="#EA1F0A" d="M24.6,17.8c0,3-3,5.3-6.7,5.3s-6.7-2.4-6.7-5.3c0-3,3-5.3,6.7-5.3S24.6,14.9,24.6,17.8z"/>
				<path fill="#C61109" d="M22.6,14c2.6,2.1,2.6,5.5,0,7.6c-2.6,2.1-6.8,2.1-9.5,0"/>
			</g>
			<g>
				<path fill="#EA1F0A" d="M52.8,17.8c0,3-3,5.3-6.7,5.3c-3.7,0-6.7-2.4-6.7-5.3c0-3,3-5.3,6.7-5.3C49.8,12.5,52.8,14.9,52.8,17.8z
					"/>
				<path fill="#C61109" d="M50.8,14c2.6,2.1,2.6,5.5,0,7.6c-2.6,2.1-6.8,2.1-9.5,0"/>
			</g>
		</g>
		<path fill="#343A3A" d="M47.6,10.4C46.8,6.1,40.1,0.6,32,0.6s-14.8,5.5-15.6,9.8c-8.4,0.9-13.9,2.5-13.9,4.3c0,2.8,13.2,5,29.5,5
			s29.5-2.3,29.5-5C61.5,12.9,55.9,11.3,47.6,10.4z"/>
		<path fill="#1E2323" d="M32,19.7c16.3,0,29.5-2.3,29.5-5c0-1.8-5.6-3.4-13.9-4.3C46.8,6.1,40.1,0.6,32,0.6"/>
		<g>
			<g>
				<circle fill="#FFC41D" cx="24.3" cy="10.5" r="1.9"/>
				<path fill="#F4A211" d="M25.6,9.2c0.7,0.7,0.7,1.9,0,2.7c-0.7,0.7-1.9,0.7-2.7,0"/>
			</g>
			<g>
				<circle fill="#FFC41D" cx="32" cy="10.5" r="1.9"/>
				<path fill="#F4A211" d="M33.3,9.2c0.7,0.7,0.7,1.9,0,2.7c-0.7,0.7-1.9,0.7-2.7,0"/>
			</g>
			<g>
				<circle fill="#FFC41D" cx="39.7" cy="10.5" r="1.9"/>
				<path fill="#F4A211" d="M41.1,9.2c0.7,0.7,0.7,1.9,0,2.7c-0.7,0.7-1.9,0.7-2.7,0"/>
			</g>
		</g>
	</g>
	<polygon fill="#39C9AD" points="54.4,47.8 47.6,54.6 43.4,50.4 39.4,54.3 25.5,40.4 14.8,51.2 10.2,46.3 3,63 61,63 54.4,47.8 	"/>
	<polygon fill="#2ABA9E" points="54.4,47.8 47.6,56.6 43.4,50.4 39.4,57.3 25.5,40.4 14.8,56.1 10.2,46.3 3,63 61,63 54.4,47.8 	"/>
	<g>
		<path fill="#39C9AD" d="M44.1,33.8c-0.2,0-0.4,0-0.6,0.1c-0.4-0.4-0.9-0.6-1.5-0.6c0,0-0.1,0-0.1,0c-0.1-1.1-1-2-2.1-2
			c-0.9,0-1.6,0.6-1.9,1.3c-0.1,0-0.2,0-0.3,0c-0.8,0-1.6,0.5-1.9,1.2c-0.3-0.1-0.5-0.2-0.8-0.2c-1.2,0-2.1,0.9-2.1,2.1
			s0.9,2.1,2.1,2.1c0.1,0,0.2,0,0.3,0c0.4,0.6,1,1.1,1.8,1.1c0.5,0,0.9-0.2,1.2-0.4c0.4,0.5,1,0.8,1.6,0.8c0.6,0,1.1-0.2,1.5-0.6
			c0.2,0.1,0.4,0.1,0.6,0.1c0.7,0,1.3-0.3,1.7-0.8c0.2,0,0.3,0.1,0.5,0.1c1.2,0,2.1-0.9,2.1-2.1S45.2,33.8,44.1,33.8z"/>
		<path fill="#2ABA9E" d="M44,34.5c-0.2,0-0.4,0-0.5,0.1c-0.4-0.3-0.9-0.4-1.5-0.4c0,0-0.1,0-0.1,0c-0.1-0.7-1-1.3-2.1-1.3
			c-0.9,0-1.6,0.4-1.9,0.9c-0.1,0-0.2,0-0.3,0c-0.8,0-1.6,0.3-1.9,0.8c-0.3-0.1-0.5-0.1-0.8-0.1c-1.1,0-2.1,0.6-2.1,1.4
			c0,0.8,0.9,1.4,2.1,1.4c0.1,0,0.2,0,0.3,0c0.4,0.4,1,0.7,1.8,0.7c0.5,0,0.9-0.1,1.2-0.3c0.4,0.3,1,0.5,1.6,0.5
			c0.6,0,1.1-0.2,1.5-0.4c0.2,0,0.4,0.1,0.6,0.1c0.7,0,1.3-0.2,1.7-0.6c0.2,0,0.3,0,0.5,0c1.1,0,2.1-0.6,2.1-1.4
			C46,35.2,45.1,34.5,44,34.5z"/>
	</g>
	<g>
		<path fill="#39C9AD" d="M21.3,31.8c0.2,0,0.3,0,0.4,0.1c0.3-0.3,0.7-0.5,1.2-0.5c0,0,0.1,0,0.1,0c0-0.9,0.8-1.6,1.7-1.6
			c0.7,0,1.3,0.4,1.6,1.1c0.1,0,0.1,0,0.2,0c0.7,0,1.3,0.4,1.5,1c0.2-0.1,0.4-0.1,0.7-0.1c0.9,0,1.7,0.8,1.7,1.7
			c0,0.9-0.7,1.7-1.7,1.7c-0.1,0-0.1,0-0.2,0c-0.3,0.5-0.8,0.9-1.5,0.9c-0.4,0-0.7-0.1-1-0.3c-0.3,0.4-0.8,0.6-1.3,0.6
			c-0.5,0-0.9-0.2-1.2-0.5c-0.2,0-0.3,0.1-0.5,0.1c-0.6,0-1-0.3-1.3-0.7c-0.1,0-0.3,0.1-0.4,0.1c-0.9,0-1.7-0.8-1.7-1.7
			C19.6,32.6,20.3,31.8,21.3,31.8z"/>
		<path fill="#2ABA9E" d="M21.3,32.4c0.2,0,0.3,0,0.4,0c0.3-0.2,0.7-0.3,1.2-0.3c0,0,0.1,0,0.1,0c0-0.6,0.8-1.1,1.7-1.1
			c0.7,0,1.3,0.3,1.5,0.7c0.1,0,0.1,0,0.2,0c0.7,0,1.2,0.3,1.5,0.7c0.2-0.1,0.4-0.1,0.7-0.1c0.9,0,1.7,0.5,1.7,1.1
			c0,0.6-0.7,1.1-1.7,1.1c-0.1,0-0.1,0-0.2,0c-0.3,0.3-0.8,0.6-1.4,0.6c-0.4,0-0.7-0.1-1-0.2c-0.3,0.3-0.8,0.4-1.3,0.4
			c-0.5,0-0.9-0.1-1.2-0.3c-0.2,0-0.3,0.1-0.5,0.1c-0.5,0-1-0.2-1.3-0.5c-0.1,0-0.3,0-0.4,0c-0.9,0-1.7-0.5-1.7-1.1
			C19.7,32.9,20.4,32.4,21.3,32.4z"/>
	</g>
</g>
</svg>
