<?xml version="1.0" encoding="utf-8"?>
<!-- Generator: Adobe Illustrator 16.0.0, SVG Export Plug-In . SVG Version: 6.00 Build 0)  -->
<!DOCTYPE svg PUBLIC "-//W3C//DTD SVG 1.1//EN" "http://www.w3.org/Graphics/SVG/1.1/DTD/svg11.dtd">
<svg version="1.1" xmlns="http://www.w3.org/2000/svg" xmlns:xlink="http://www.w3.org/1999/xlink" x="0px" y="0px" width="65px"
	 height="65px" viewBox="0 0 65 65" enable-background="new 0 0 65 65" xml:space="preserve">
<g id="Layer_1">
	<g>
		<g>
			<g>
				<g>
					<g>
						<line fill="#185EC4" x1="32.5" y1="16.032" x2="32.5" y2="48.971"/>
					</g>
					<g>
						<path fill="#0CD3E2" d="M32.5,51.471c-1.381,0-2.5-1.119-2.5-2.5V16.032c0-1.381,1.119-2.5,2.5-2.5s2.5,1.119,2.5,2.5v32.938
							C35,50.352,33.881,51.471,32.5,51.471z"/>
					</g>
				</g>
				<g>
					<g>
						<g>
							<circle fill="#185EC4" cx="32.502" cy="10.856" r="7.059"/>
						</g>
						<g>
							<path fill="#0CD3E2" d="M32.502,20.414H32.5c-5.268,0-9.557-4.288-9.557-9.558c0-5.271,4.287-9.559,9.555-9.559
								c5.271,0,9.562,4.288,9.562,9.559C42.059,16.126,37.77,20.413,32.502,20.414z M32.5,6.298c-1.217,0-2.361,0.474-3.223,1.335
								c-0.861,0.86-1.334,2.005-1.334,3.223c0,2.514,2.045,4.559,4.557,4.559c2.514-0.001,4.559-2.046,4.561-4.559
								C37.061,8.343,35.014,6.298,32.5,6.298z"/>
						</g>
					</g>
					<g>
						<g>
							<circle fill="#185EC4" cx="32.502" cy="54.146" r="7.059"/>
						</g>
						<g>
							<path fill="#0CD3E2" d="M32.504,63.702H32.5c-2.553,0-4.953-0.994-6.758-2.799s-2.799-4.205-2.799-6.759
								c0-2.552,0.994-4.951,2.799-6.757s4.203-2.8,6.756-2.8c5.273,0,9.562,4.287,9.562,9.558
								C42.061,59.415,37.773,63.701,32.504,63.702z M32.504,49.588c-1.223,0-2.365,0.474-3.227,1.335
								c-0.859,0.86-1.334,2.005-1.334,3.222c0,1.219,0.475,2.363,1.334,3.224s2.004,1.334,3.221,1.334l0.006,2.5v-2.5
								c2.512,0,4.557-2.044,4.557-4.557S35.016,49.588,32.504,49.588z"/>
						</g>
					</g>
				</g>
			</g>
			<g>
				<g>
					<g>
						<line fill="#185EC4" x1="48.971" y1="32.501" x2="16.031" y2="32.501"/>
					</g>
					<g>
						<path fill="#0CD3E2" d="M48.971,35.001H16.031c-1.381,0-2.5-1.119-2.5-2.5s1.119-2.5,2.5-2.5h32.939
							c1.381,0,2.5,1.119,2.5,2.5S50.352,35.001,48.971,35.001z"/>
					</g>
				</g>
				<g>
					<g>
						<g>
							<circle fill="#185EC4" cx="54.145" cy="32.501" r="7.058"/>
						</g>
						<g>
							<path fill="#0CD3E2" d="M54.145,42.059c-5.27,0-9.557-4.287-9.557-9.558s4.285-9.558,9.555-9.558
								c2.557,0,4.957,0.994,6.762,2.799s2.799,4.205,2.799,6.759C63.703,37.771,59.416,42.059,54.145,42.059z M54.146,27.943
								c-2.516,0-4.559,2.045-4.559,4.558s2.045,4.558,4.557,4.558c2.514,0,4.559-2.045,4.559-4.558S56.66,27.943,54.146,27.943z"/>
						</g>
					</g>
					<g>
						<g>
							<circle fill="#185EC4" cx="10.856" cy="32.5" r="7.058"/>
						</g>
						<g>
							<path fill="#0CD3E2" d="M10.859,42.059c-5.271,0-9.561-4.287-9.562-9.557c0-5.271,4.289-9.56,9.559-9.56
								c5.271,0.001,9.559,4.289,9.559,9.559C20.414,37.771,16.129,42.059,10.859,42.059z M10.855,27.942
								c-2.514,0-4.559,2.045-4.559,4.559c0.002,2.513,2.047,4.558,4.561,4.558h0.002c2.512,0,4.555-2.045,4.555-4.558
								S13.369,27.943,10.855,27.942z"/>
						</g>
					</g>
				</g>
			</g>
		</g>
		<g>
			<g>
				<line fill="#185EC4" x1="51.334" y1="13.666" x2="13.668" y2="51.334"/>
			</g>
			<g>
				<path fill="#0CD3E2" d="M13.668,53.834c-0.641,0-1.279-0.244-1.768-0.732c-0.977-0.976-0.977-2.559,0-3.535l37.666-37.668
					c0.977-0.977,2.559-0.977,3.535,0c0.977,0.976,0.977,2.559,0,3.535L15.436,53.102C14.947,53.59,14.309,53.834,13.668,53.834z"/>
			</g>
		</g>
		<g>
			<g>
				<line fill="#185EC4" x1="51.334" y1="51.333" x2="13.666" y2="13.667"/>
			</g>
			<g>
				<path fill="#0CD3E2" d="M51.334,53.833c-0.639,0-1.279-0.244-1.768-0.732L11.898,15.435c-0.977-0.976-0.977-2.559,0-3.535
					s2.559-0.977,3.537,0l37.666,37.666c0.977,0.976,0.977,2.559,0,3.535C52.613,53.589,51.975,53.833,51.334,53.833z"/>
			</g>
		</g>
	</g>
</g>
<g id="nyt_x5F_exporter_x5F_info" display="none">
</g>
</svg>
