<?xml version="1.0" encoding="utf-8"?>
<!-- Generator: Adobe Illustrator 16.0.0, SVG Export Plug-In . SVG Version: 6.00 Build 0)  -->
<!DOCTYPE svg PUBLIC "-//W3C//DTD SVG 1.1//EN" "http://www.w3.org/Graphics/SVG/1.1/DTD/svg11.dtd">
<svg version="1.1" id="Layer_1" xmlns="http://www.w3.org/2000/svg" xmlns:xlink="http://www.w3.org/1999/xlink" x="0px" y="0px"
	 width="64px" height="64px" viewBox="0 0 64 64" enable-background="new 0 0 64 64" xml:space="preserve">
<g>
	<polygon fill="#768E87" points="61.4,46.3 58.4,43.3 54.6,47.1 53.3,47.1 51.4,49 48.2,49 44,53.2 23.7,53.2 21.6,51 19,51 16,48 
		13.3,50.7 8.4,45.7 1.5,52.6 1.5,62.5 62.5,62.5 62.5,45.2 	"/>
	<polygon fill="#5B726B" points="58.4,47.2 54.6,51.1 53.3,51.1 51.4,53 49.9,59.2 44,57.1 23.7,57.1 21.6,55 19,55 16,59.9 
		13.3,54.6 8.4,49.7 1.5,56.5 1.5,62.5 62.5,62.5 62.5,49.1 61.4,50.2 	"/>
	<circle fill="#FFB600" cx="32" cy="23.3" r="21.8"/>
	<g>
		<circle fill="#FFB600" cx="32" cy="23.3" r="21.8"/>
		<path fill="#FF9700" d="M16.6,7.9c8.5-8.5,22.3-8.5,30.8,0c8.5,8.5,8.5,22.3,0,30.8"/>
		<g>
			<path fill="#616D6A" d="M37.5,62.5V45.1c0-1.9-1.6-3.5-3.5-3.5H30c-1.9,0-3.5,1.6-3.5,3.5v17.4H37.5z"/>
			<path fill="#454C4A" d="M26.5,62.5h11V45.1c0-1.9-1.6-3.5-3.5-3.5H30"/>
			<path fill="#393D3C" d="M34,41.6H30c-0.6,0-1.2,0.2-1.7,0.5l9.3,9.3v-6.3C37.5,43.1,35.9,41.6,34,41.6z"/>
			<g>
				<path fill="#4C8973" d="M35.9,41.9c0,0.1-0.1,0.3-0.3,0.3h-7.2c-0.1,0-0.3-0.1-0.3-0.3l0,0c0-0.1,0.1-0.8,0.3-0.8h7.2
					C35.8,41.1,35.9,41.7,35.9,41.9L35.9,41.9z"/>
				<path fill="#599B85" d="M35.5,10.6c0,0.6-1.7,1.2-2.3,1.2h-2.4c-0.6,0-2.3-0.5-2.3-1.2l1.2-7.9c0-0.6,0.5-1.2,1.2-1.2h2.4
					c0.6,0,1.2,0.5,1.2,1.2L35.5,10.6z"/>
				<path fill="#518E78" d="M29.6,2.7c0-0.6,0.5-1.2,1.2-1.2h2.4c0.6,0,1.2,0.5,1.2,1.2l1.2,7.9c0,0.6-1.7,1.2-2.3,1.2"/>
				<path fill="#599B85" d="M37,40.4c0,0.6-0.5,1.2-1.2,1.2h-7.6c-0.6,0-1.2-0.5-1.2-1.2V29.8c0-0.6,0.5-1.2,1.2-1.2h7.6
					c0.6,0,1.2,0.5,1.2,1.2V40.4z"/>
				<path fill="#4C8973" d="M27,29.8c0-0.6,0.5-1.2,1.2-1.2h7.6c0.6,0,1.2,0.5,1.2,1.2v10.7c0,0.6-0.5,1.2-1.2,1.2"/>
				<g>
					<path fill="#6AAD98" d="M28.7,40.6c0,0.1,0,0.1-0.1,0.1l0,0c-0.1,0-0.1-0.1-0.1-0.1V29.3c0-0.1,0-0.1,0.1-0.1l0,0
						c0.1,0,0.1,0,0.1,0.1V40.6z"/>
					<path fill="#6AAD98" d="M30.4,40.6c0,0.1,0,0.1-0.1,0.1l0,0c-0.1,0-0.1-0.1-0.1-0.1V29.3c0-0.1,0.1-0.1,0.1-0.1l0,0
						c0.1,0,0.1,0,0.1,0.1V40.6z"/>
					<path fill="#6AAD98" d="M32.1,40.6c0,0.1,0,0.1-0.1,0.1l0,0c-0.1,0-0.1-0.1-0.1-0.1V29.3c0-0.1,0-0.1,0.1-0.1l0,0
						c0.1,0,0.1,0,0.1,0.1V40.6z"/>
					<path fill="#6AAD98" d="M33.8,40.6c0,0.1-0.1,0.1-0.1,0.1l0,0c-0.1,0-0.1-0.1-0.1-0.1V29.3c0-0.1,0-0.1,0.1-0.1l0,0
						c0.1,0,0.1,0,0.1,0.1V40.6z"/>
					<path fill="#6AAD98" d="M35.5,40.6c0,0.1,0,0.1-0.1,0.1l0,0c-0.1,0-0.1-0.1-0.1-0.1V29.3c0-0.1,0-0.1,0.1-0.1l0,0
						c0.1,0,0.1,0,0.1,0.1V40.6z"/>
				</g>
				<path fill="#6AAD98" d="M37.9,30.1c0,0.6-0.5,1.2-1.2,1.2l-9.4-1.2c-0.6,0-1.2-0.5-1.2-1.2l1.2-20.5c0-0.6,0.5-1.2,1.2-1.2h7.1
					c0.6,0,1.2,0.5,1.2,1.2L37.9,30.1z"/>
				<path fill="#518E78" d="M36.8,8.4l1.2,21.6c0,0.6-0.5,1.2-1.2,1.2l-9.4-1.2c-0.6,0-1.2-0.5-1.2-1.2"/>
				<path fill="#599B85" d="M27.3,8.4c0-0.6,0.5-1.2,1.2-1.2h7.1c0.6,0,1.2,0.5,1.2,1.2l1.2,21.6c0,0.6-0.5,1.2-1.2,1.2"/>
				<path fill="#4C8973" d="M36.8,8.4l-5.2,10.1l5.2,12.7c0.6,0,1.2-0.5,1.2-1.2L36.8,8.4z"/>
				<g>
					<g>
						<path fill="#599B85" d="M24.2,8.1c0,0.5-0.4,0.8-0.8,0.8h-6c-0.5,0-0.8-0.4-0.8-0.8l0,0c0-0.5,0.4-0.8,0.8-0.8h6
							C23.8,7.3,24.2,7.7,24.2,8.1L24.2,8.1z"/>
						<g>
							<path fill="#599B85" d="M18.3,8.7c0,0.2-0.8,0.9-1,0.9h-2.6c-0.2,0-0.4-0.2-0.4-0.4V7.7c0-0.2,0.2-0.4,0.4-0.4h2.6
								c0.2,0,0.4,0.2,0.4,0.4L18.3,8.7z"/>
							<path fill="#599B85" d="M17.7,9c0,0.1-0.1,0.3-0.3,0.3h-3.2C14.1,9.2,14,9.1,14,9V7.9c0-0.1,0.1-0.3,0.3-0.3h3.2
								c0.1,0,0.3,0.1,0.3,0.3V9z"/>
						</g>
					</g>
					<g>
						<path fill="#5D9182" d="M39.8,8.1c0,0.5,0.4,0.8,0.8,0.8h6c0.5,0,0.8-0.4,0.8-0.8l0,0c0-0.5-0.4-0.8-0.8-0.8h-6
							C40.2,7.3,39.8,7.7,39.8,8.1L39.8,8.1z"/>
						<path fill="#6AAD98" d="M44.7,7.3H32.5h-1H19.3C18.9,7.3,19,7.6,19,8v1.7c0,0.4,0.3,0.7,0.7,0.7l11.5,1.7
							c0.1,0.1,0.2,0.2,0.2,0.2l0.5-0.1l0.5,0.1c0.1,0,0.2-0.1,0.2-0.2l11.5-1.7c0.4,0,0.7-0.3,0.7-0.7V8C45,7.6,45.1,7.3,44.7,7.3z
							"/>
						<path fill="#599B85" d="M19.7,10.4l11.5,1.7c0.1,0.1,0.2,0.2,0.2,0.2l0.5-0.1l0.5,0.1c0.1,0,0.2-0.1,0.2-0.2l11.5-1.7
							c0.4,0,0.7-0.3,0.7-0.7V8c0-0.4,0.1-0.7-0.3-0.7H32.5h-1"/>
						<path fill="#4C8973" d="M32.7,12.1l11.5-1.7c0.4,0,0.7-0.3,0.7-0.7V8c0-0.4,0.1-0.7-0.3-0.7H32.5"/>
						<line fill="#4C8973" x1="31.5" y1="12.3" x2="32" y2="12.2"/>
						<g>
							<path fill="#599B85" d="M45.7,8.7c0,0.2,0.8,0.9,1,0.9h2.6c0.2,0,0.4-0.2,0.4-0.4V7.7c0-0.2-0.2-0.4-0.4-0.4h-2.6
								c-0.2,0-0.4,0.2-0.4,0.4L45.7,8.7z"/>
							<path fill="#599B85" d="M46.3,9c0,0.1,0.1,0.3,0.3,0.3h3.2C49.9,9.2,50,9.1,50,9V7.9c0-0.1-0.1-0.3-0.3-0.3h-3.2
								c-0.1,0-0.3,0.1-0.3,0.3V9z"/>
						</g>
					</g>
				</g>
			</g>
			<path fill="#292D2C" d="M39,62.3c0,0.1-0.1,0.2-0.2,0.2H25.3c-0.1,0-0.2-0.1-0.2-0.2l0,0c0-0.1,0.1-0.2,0.2-0.2h13.5
				C38.9,62,39,62.1,39,62.3L39,62.3z"/>
		</g>
	</g>
</g>
</svg>
