<?xml version="1.0" encoding="utf-8"?>
<!-- Generator: Adobe Illustrator 16.0.0, SVG Export Plug-In . SVG Version: 6.00 Build 0)  -->
<!DOCTYPE svg PUBLIC "-//W3C//DTD SVG 1.1//EN" "http://www.w3.org/Graphics/SVG/1.1/DTD/svg11.dtd">
<svg version="1.1" id="Layer_1" xmlns="http://www.w3.org/2000/svg" xmlns:xlink="http://www.w3.org/1999/xlink" x="0px" y="0px"
	 width="65px" height="65px" viewBox="0 0 65 65" enable-background="new 0 0 65 65" xml:space="preserve">
<g>
	<g>
		<path fill="#83B7B6" d="M36.062,33.266c1.432,1.273,4.228,0.465,6.249-1.805c2.018-2.27,10.793-14.475,9.365-15.75
			c-1.434-1.271-12.532,8.873-14.55,11.143C35.107,29.121,34.631,31.992,36.062,33.266z"/>
		<g>
			<g>
				<g>
					<path fill="#5E4719" d="M29.2,46.446c0,2.476-2.007,15.827-4.486,15.827c-2.475,0-4.482-13.352-4.482-15.827
						s2.008-4.484,4.482-4.484C27.193,41.962,29.2,43.971,29.2,46.446z"/>
					<path fill="#5E4719" d="M44.226,46.446c0,2.476-2.008,15.827-4.486,15.827c-2.475,0-4.482-13.352-4.482-15.827
						s2.008-4.484,4.482-4.484C42.218,41.962,44.226,43.971,44.226,46.446z"/>
				</g>
				<path fill="#9FD1D1" d="M44.878,40.521c0,16.038-5.663,10.697-12.65,10.697c-6.986,0-12.65,5.341-12.65-10.697
					c0-9.17,5.666-16.604,12.65-16.604C39.214,23.918,44.878,31.352,44.878,40.521z"/>
				<g>
					<path fill="#9FD1D1" d="M30.833,26.369c1.273,1.432,0.465,4.228-1.805,6.249c-2.27,2.018-14.476,10.794-15.75,9.365
						c-1.271-1.434,8.874-12.532,11.142-14.55C26.688,25.415,29.56,24.938,30.833,26.369z"/>
				</g>
				
					<rect x="29.061" y="23.667" transform="matrix(0.7071 -0.7071 0.7071 0.7071 -9.5353 30.6478)" fill="#DD9F76" width="6.334" height="6.334"/>
				<path fill="#83B7B6" d="M32.228,46.969c-6.553,0-11.943,4.698-12.586-7.955c-0.043,0.439-0.064,0.939-0.064,1.508
					c0,16.038,5.664,10.697,12.65,10.697c6.987,0,12.65,5.341,12.65-10.697c0-0.568-0.021-1.068-0.064-1.508
					C44.17,51.667,38.782,46.969,32.228,46.969z"/>
				<g>
					<path fill="#B27029" d="M29.761,62.354c0,1.896-2.26,2.146-5.046,2.146c-2.784,0-5.045-0.249-5.045-2.146
						c0-1.897,2.261-4.508,5.045-4.508C27.501,57.847,29.761,60.457,29.761,62.354z"/>
					<path fill="#A05810" d="M29.761,62.354c0,1.896-2.26,2.146-5.046,2.146c-2.784,0-5.045-0.249-5.045-2.146"/>
				</g>
				<g>
					<path fill="#B27029" d="M44.785,62.354c0,1.896-2.258,2.146-5.044,2.146c-2.785,0-5.045-0.249-5.045-2.146
						c0-1.897,2.26-4.508,5.045-4.508C42.527,57.847,44.785,60.457,44.785,62.354z"/>
					<path fill="#A05810" d="M44.785,62.354c0,1.896-2.258,2.146-5.044,2.146c-2.785,0-5.045-0.249-5.045-2.146"/>
				</g>
				<g>
					<path fill="#E8B085" d="M48.599,16.275c0,7.999-7.331,12.02-16.369,12.02c-9.042,0-16.373-4.021-16.373-12.02
						c0-8.001,7.331-15.775,16.373-15.775C41.268,0.5,48.599,8.274,48.599,16.275z"/>
					<path fill="#DD9F76" d="M48.599,16.275c0,7.999-7.331,12.02-16.369,12.02c-9.042,0-16.373-4.021-16.373-12.02"/>
					<path fill="#543722" d="M37.596,21.799c0,2.965-2.402,5.368-5.368,5.368s-5.368-2.403-5.368-5.368v-4.606h-0.758
						c-0.441,0.901-0.707,1.903-0.707,2.975v8.155c2.082,0.586,4.393,0.89,6.835,0.89c2.44,0,4.75-0.304,6.831-0.89v-8.155
						c0-1.071-0.266-2.073-0.707-2.975h-0.758V21.799z"/>
				</g>
				<g>
					<g>
						<circle fill="#113E49" cx="24.443" cy="13.633" r="1.464"/>
						<path d="M25.907,13.633c0,0.811-0.657,1.465-1.464,1.465c-0.81,0-1.464-0.654-1.464-1.465"/>
						<g>
							<path fill="#F4C3A2" d="M27.331,16.687c-0.078,0-0.158-0.028-0.219-0.091c-0.715-0.714-1.664-1.107-2.672-1.107h-0.003
								c-1.007,0-1.953,0.394-2.665,1.106c-0.12,0.121-0.316,0.124-0.437,0.001c-0.121-0.117-0.124-0.312-0.003-0.434
								c0.83-0.831,1.932-1.29,3.104-1.29h0.003c1.176,0,2.278,0.456,3.11,1.288c0.119,0.119,0.119,0.318,0,0.436
								C27.491,16.658,27.413,16.687,27.331,16.687z"/>
						</g>
					</g>
					<g>
						<path fill="#113E49" d="M38.55,13.633c0,0.811,0.653,1.465,1.465,1.465c0.809,0,1.463-0.654,1.463-1.465
							c0-0.808-0.654-1.464-1.463-1.464C39.203,12.169,38.55,12.825,38.55,13.633z"/>
						<path d="M38.55,13.633c0,0.811,0.653,1.465,1.465,1.465c0.809,0,1.463-0.654,1.463-1.465"/>
						<g>
							<path fill="#F4C3A2" d="M37.126,16.687c0.075,0,0.156-0.028,0.217-0.091c0.715-0.714,1.664-1.107,2.672-1.107h0.001
								c1.009,0,1.958,0.394,2.668,1.106c0.119,0.121,0.314,0.124,0.436,0.001c0.122-0.117,0.124-0.312,0.003-0.434
								c-0.826-0.831-1.932-1.29-3.106-1.29h-0.001c-1.174,0-2.278,0.456-3.112,1.288c-0.117,0.119-0.117,0.318,0,0.436
								C36.966,16.658,37.044,16.687,37.126,16.687z"/>
						</g>
					</g>
				</g>
			</g>
			<path fill="#543722" d="M24.953,2.294C27.15,1.169,29.619,0.5,32.242,0.5c6.9,0,12.793,4.532,15.203,10.233
				c-2.581,0.587-6.879,0.152-11.488-1.341C30.193,7.525,25.792,4.599,24.953,2.294z"/>
			<path fill="#663F24" d="M39.519,2.294C37.32,1.169,34.852,0.5,32.229,0.5c-6.9,0-12.794,4.532-15.202,10.233
				c2.58,0.587,6.877,0.152,11.487-1.341C34.279,7.525,38.68,4.599,39.519,2.294z"/>
			<g>
				<g>
					<path fill="#663F24" d="M32.69,17.636c0,0-1.711-3.682-6.312-0.657c-4.601,3.025-4.996,2.103-4.996,2.103
						s4.864,3.553,10.125,1.318l0.789-0.66L32.69,17.636z"/>
					<path fill="#543722" d="M21.382,19.081c0,0,4.864,3.553,10.125,1.318l0.789-0.66l0.395-2.104"/>
				</g>
				<g>
					<path fill="#663F24" d="M31.767,17.636c0,0,1.709-3.682,6.311-0.657c4.602,3.025,4.996,2.103,4.996,2.103
						s-4.863,3.553-10.124,1.318l-0.79-0.66L31.767,17.636z"/>
					<path fill="#543722" d="M43.073,19.081c0,0-4.863,3.553-10.124,1.318l-0.79-0.66l-0.393-2.104"/>
				</g>
			</g>
		</g>
		<g>
			<g>
				<circle fill="#FFFFFF" cx="32.228" cy="33.249" r="0.834"/>
				<circle fill="#FFFFFF" cx="32.228" cy="38.749" r="0.834"/>
				<circle fill="#FFFFFF" cx="32.228" cy="44.249" r="0.834"/>
			</g>
		</g>
	</g>
</g>
</svg>
