<?xml version="1.0" encoding="utf-8"?>
<!-- Generator: Adobe Illustrator 16.0.0, SVG Export Plug-In . SVG Version: 6.00 Build 0)  -->
<!DOCTYPE svg PUBLIC "-//W3C//DTD SVG 1.1//EN" "http://www.w3.org/Graphics/SVG/1.1/DTD/svg11.dtd">
<svg version="1.1" id="Layer_1" xmlns="http://www.w3.org/2000/svg" xmlns:xlink="http://www.w3.org/1999/xlink" x="0px" y="0px"
	 width="65px" height="65px" viewBox="0 0 65 65" enable-background="new 0 0 65 65" xml:space="preserve">
<g>
	<g>
		<g>
			<g>
				<ellipse fill="#0CBC64" cx="18.497" cy="16.542" rx="4.792" ry="4.292"/>
				<path fill="#089B78" d="M23.289,16.542c0,2.371-2.145,4.292-4.791,4.292c-2.647,0-4.793-1.921-4.793-4.292"/>
			</g>
			<g>
				<ellipse fill="#0CBC64" cx="48.497" cy="16.542" rx="4.792" ry="4.292"/>
				<path fill="#089B78" d="M53.289,16.542c0,2.371-2.145,4.292-4.791,4.292c-2.647,0-4.793-1.921-4.793-4.292"/>
			</g>
		</g>
		<g>
			<g>
				<g>
					<path fill="#232728" d="M30.47,46.446c0,2.476-2.008,15.827-4.486,15.827c-2.475,0-4.482-13.352-4.482-15.827
						s2.008-4.484,4.482-4.484C28.462,41.962,30.47,43.971,30.47,46.446z"/>
					<path fill="#232728" d="M45.495,46.446c0,2.476-2.008,15.827-4.486,15.827c-2.475,0-4.482-13.352-4.482-15.827
						s2.008-4.484,4.482-4.484C43.487,41.962,45.495,43.971,45.495,46.446z"/>
				</g>
				<path fill="#0CBC64" d="M46.147,40.521c0,16.038-5.662,10.697-12.65,10.697c-6.986,0-12.65,5.341-12.65-10.697
					c0-9.17,5.666-16.604,12.65-16.604C40.483,23.918,46.147,31.352,46.147,40.521z"/>
				<path fill="#0CBC64" d="M37.858,27.708c1.432-1.273,4.229-0.465,6.25,1.805c2.018,2.27,10.793,14.475,9.365,15.75
					C52.04,46.534,40.94,36.39,38.923,34.12C36.905,31.853,36.429,28.981,37.858,27.708z"/>
				<g>
					<path fill="#778785" d="M38.669,44.616c-0.276,0-0.5-0.224-0.5-0.5s0.224-0.5,0.5-0.5c1.562,0,2.833-1.271,2.833-2.833V28.562
						c0-0.276,0.224-0.5,0.5-0.5s0.5,0.224,0.5,0.5v12.221C42.502,42.896,40.782,44.616,38.669,44.616z"/>
				</g>
				<path fill="#089B78" d="M33.497,44.719c-6.291,0-11.507,4.321-12.484-6.524c-0.107,0.648-0.166,1.414-0.166,2.327
					c0,16.038,5.664,10.697,12.65,10.697c6.988,0,12.65,5.341,12.65-10.697c0-0.913-0.059-1.679-0.166-2.327
					C45.005,49.04,39.79,44.719,33.497,44.719z"/>
				<g>
					<path fill="#EFA30C" d="M31.03,62.354c0,1.896-2.26,2.146-5.045,2.146s-5.045-0.249-5.045-2.146
						c0-1.897,2.26-4.508,5.045-4.508S31.03,60.457,31.03,62.354z"/>
					<path fill="#D68A05" d="M31.03,62.354c0,1.896-2.26,2.146-5.045,2.146s-5.045-0.249-5.045-2.146"/>
				</g>
				<g>
					<path fill="#EFA30C" d="M46.056,62.354c0,1.896-2.26,2.146-5.045,2.146s-5.045-0.249-5.045-2.146
						c0-1.897,2.26-4.508,5.045-4.508S46.056,60.457,46.056,62.354z"/>
					<path fill="#D68A05" d="M46.056,62.354c0,1.896-2.26,2.146-5.045,2.146s-5.045-0.249-5.045-2.146"/>
				</g>
				<g>
					<path fill="#0CBC64" d="M34.826,29.854c-0.114-1.912-2.663-3.318-5.695-3.143c-3.032,0.178-17.867,2.604-17.76,4.515
						c0.115,1.913,15.137,2.588,18.168,2.41C32.568,33.459,34.936,31.766,34.826,29.854z"/>
				</g>
				<circle fill="#A56B44" cx="33.497" cy="27.333" r="3.375"/>
				<g>
					<path fill="#D8A17C" d="M49.868,16.275c0,7.999-7.33,12.02-16.369,12.02c-9.041,0-16.373-4.021-16.373-12.02
						c0-8.001,7.332-15.775,16.373-15.775C42.538,0.5,49.868,8.274,49.868,16.275z"/>
					<path fill="#C48960" d="M49.868,16.275c0,7.999-7.33,12.02-16.369,12.02c-9.041,0-16.373-4.021-16.373-12.02
						c0-8.001,7.332-14.192,16.373-14.192C42.538,2.083,49.868,8.274,49.868,16.275z"/>
					<path fill="#BC8158" d="M49.868,16.275c0,7.999-7.33,12.02-16.369,12.02c-9.041,0-16.373-4.021-16.373-12.02"/>
				</g>
				<g>
					<g>
						<circle fill="#113E49" cx="25.713" cy="12.57" r="1.464"/>
						<path d="M27.177,12.57c0,0.811-0.656,1.465-1.465,1.465s-1.463-0.654-1.463-1.465"/>
						<g>
							<path fill="#E5A376" d="M28.601,15.624c-0.078,0-0.158-0.028-0.219-0.091c-0.715-0.714-1.664-1.107-2.672-1.107h-0.002
								c-1.008,0-1.955,0.394-2.666,1.106c-0.121,0.121-0.316,0.124-0.436,0.001c-0.121-0.117-0.125-0.312-0.004-0.434
								c0.83-0.831,1.932-1.29,3.105-1.29h0.002c1.176,0,2.279,0.456,3.111,1.288c0.119,0.119,0.119,0.318,0,0.436
								C28.761,15.596,28.683,15.624,28.601,15.624z"/>
						</g>
					</g>
					<g>
						<circle fill="#113E49" cx="41.283" cy="12.57" r="1.464"/>
						<path d="M39.819,12.57c0,0.811,0.654,1.465,1.465,1.465c0.809,0,1.463-0.654,1.463-1.465"/>
						<g>
							<path fill="#E5A376" d="M38.396,15.624c0.076,0,0.156-0.028,0.217-0.091c0.715-0.714,1.664-1.107,2.672-1.107h0.002
								c1.008,0,1.957,0.394,2.668,1.106c0.119,0.121,0.314,0.124,0.436,0.001c0.121-0.117,0.123-0.312,0.002-0.434
								c-0.826-0.831-1.932-1.29-3.105-1.29h-0.002c-1.174,0-2.277,0.456-3.111,1.288c-0.117,0.119-0.117,0.318,0,0.436
								C38.235,15.596,38.313,15.624,38.396,15.624z"/>
						</g>
					</g>
				</g>
			</g>
		</g>
		<ellipse fill="#AA1111" cx="33.497" cy="16.313" rx="0.791" ry="1.958"/>
		<path fill="#870E0E" d="M32.706,16.313c0-1.082,0.354-1.959,0.791-1.959s0.791,0.877,0.791,1.959"/>
		<g>
			<path fill="#8DA3A1" d="M42.31,28.583H24.685c-4.515,0-8.188-3.673-8.188-8.188c0-0.276,0.224-0.5,0.5-0.5
				c0.277,0,0.5,0.224,0.5,0.5c0,3.963,3.225,7.188,7.188,7.188H42.31c3.963,0,7.188-3.225,7.188-7.188c0-0.276,0.224-0.5,0.5-0.5
				c0.277,0,0.5,0.224,0.5,0.5C50.497,24.91,46.824,28.583,42.31,28.583z"/>
		</g>
		<g>
			<path fill="#EFA30C" d="M29.56,38.521c0,0.311-0.252,0.562-0.562,0.562l0,0c-0.311,0-0.562-0.252-0.562-0.562v-3.75
				c0-0.311,0.252-0.562,0.562-0.562l0,0c0.311,0,0.562,0.252,0.562,0.562V38.521z"/>
			<path fill="#EFA30C" d="M31.81,38.521c0,0.311-0.252,0.562-0.562,0.562l0,0c-0.311,0-0.562-0.252-0.562-0.562v-3.75
				c0-0.311,0.252-0.562,0.562-0.562l0,0c0.311,0,0.562,0.252,0.562,0.562V38.521z"/>
			<path fill="#EFA30C" d="M34.06,38.521c0,0.311-0.252,0.562-0.562,0.562l0,0c-0.311,0-0.562-0.252-0.562-0.562v-3.75
				c0-0.311,0.252-0.562,0.562-0.562l0,0c0.311,0,0.562,0.252,0.562,0.562V38.521z"/>
			<path fill="#EFA30C" d="M36.31,38.521c0,0.311-0.252,0.562-0.562,0.562l0,0c-0.311,0-0.562-0.252-0.562-0.562v-3.75
				c0-0.311,0.252-0.562,0.562-0.562l0,0c0.311,0,0.562,0.252,0.562,0.562V38.521z"/>
			<path fill="#EFA30C" d="M38.56,38.521c0,0.311-0.252,0.562-0.562,0.562l0,0c-0.311,0-0.562-0.252-0.562-0.562v-3.75
				c0-0.311,0.252-0.562,0.562-0.562l0,0c0.311,0,0.562,0.252,0.562,0.562V38.521z"/>
		</g>
		<path fill="#089B78" d="M40.778,45.705c0.195,0.195,0.195,0.512,0,0.707l0,0c-0.195,0.195-0.512,0.195-0.707,0l-3.139-3.138
			c-0.194-0.195-0.194-0.512,0-0.707l0,0c0.196-0.195,0.513-0.195,0.708,0L40.778,45.705z"/>
	</g>
	<path fill="#EFA30C" d="M39.904,35.61c0.008,0.044-0.024,0.088-0.068,0.095l-12.014,1.922c-0.047,0.007-0.089-0.024-0.097-0.069
		l0,0c-0.007-0.046,0.024-0.089,0.069-0.096l12.014-1.922C39.854,35.533,39.896,35.563,39.904,35.61L39.904,35.61z"/>
</g>
</svg>
