<?xml version="1.0" encoding="utf-8"?>
<!-- Generator: Adobe Illustrator 16.0.0, SVG Export Plug-In . SVG Version: 6.00 Build 0)  -->
<!DOCTYPE svg PUBLIC "-//W3C//DTD SVG 1.1//EN" "http://www.w3.org/Graphics/SVG/1.1/DTD/svg11.dtd">
<svg version="1.1" id="Layer_1" xmlns="http://www.w3.org/2000/svg" xmlns:xlink="http://www.w3.org/1999/xlink" x="0px" y="0px"
	 width="64px" height="64px" viewBox="0 0 64 64" enable-background="new 0 0 64 64" xml:space="preserve">
<g>
	<g>
		<g>
			<g>
				<path fill="#C3D7DD" d="M17,47.5c-0.2,0-0.3,0-0.5,0c-0.3,0-0.5-0.2-0.5-0.5c0-0.3,0.2-0.5,0.5-0.5c0.6,0,1.2,0,1.8-0.1
					c0.3,0,0.5,0.2,0.5,0.4c0,0.3-0.2,0.5-0.4,0.5C18,47.5,17.5,47.5,17,47.5z M14.6,47.3C14.6,47.3,14.6,47.3,14.6,47.3
					c-0.7-0.1-1.4-0.3-2-0.4c-0.3-0.1-0.4-0.3-0.3-0.6c0.1-0.2,0.3-0.4,0.6-0.3c0.6,0.2,1.2,0.3,1.8,0.4c0.3,0,0.4,0.3,0.4,0.5
					C15,47.1,14.8,47.3,14.6,47.3z M20.3,47.1c-0.2,0-0.4-0.1-0.5-0.4c-0.1-0.3,0.1-0.5,0.4-0.6c0.6-0.1,1.2-0.3,1.8-0.5
					c0.2-0.1,0.5,0,0.6,0.3c0.1,0.2,0,0.5-0.3,0.6c-0.6,0.2-1.2,0.4-1.9,0.6C20.4,47.1,20.3,47.1,20.3,47.1z M11,46.2
					c-0.1,0-0.1,0-0.2,0c-0.6-0.3-1.2-0.6-1.7-0.9c-0.2-0.1-0.3-0.4-0.2-0.7c0.1-0.2,0.4-0.3,0.7-0.2c0.5,0.3,1.1,0.6,1.6,0.8
					c0.2,0.1,0.4,0.4,0.2,0.6C11.3,46.1,11.1,46.2,11,46.2z M23.9,45.8c-0.2,0-0.3-0.1-0.4-0.3c-0.1-0.2,0-0.5,0.2-0.6
					c0.6-0.3,1.1-0.6,1.6-1c0.2-0.1,0.5-0.1,0.7,0.1c0.1,0.2,0.1,0.5-0.1,0.7c-0.5,0.4-1.1,0.7-1.7,1C24,45.8,23.9,45.8,23.9,45.8z
					 M7.7,44.3c-0.1,0-0.2,0-0.3-0.1c-0.5-0.4-1-0.8-1.5-1.3c-0.2-0.2-0.2-0.5,0-0.7c0.2-0.2,0.5-0.2,0.7,0C7.1,42.6,7.5,43,8,43.4
					c0.2,0.2,0.2,0.5,0.1,0.7C8,44.2,7.8,44.3,7.7,44.3z M27,43.7c-0.1,0-0.3-0.1-0.4-0.2c-0.2-0.2-0.2-0.5,0-0.7
					c0.5-0.4,0.9-0.9,1.3-1.3c0.2-0.2,0.5-0.2,0.7,0c0.2,0.2,0.2,0.5,0,0.7c-0.4,0.5-0.9,1-1.4,1.4C27.2,43.6,27.1,43.7,27,43.7z
					 M5,41.6c-0.1,0-0.3-0.1-0.4-0.2c-0.4-0.5-0.8-1.1-1.1-1.6c-0.1-0.2-0.1-0.5,0.2-0.7C4,39,4.3,39,4.4,39.3c0.3,0.5,0.7,1,1,1.5
					c0.2,0.2,0.1,0.5-0.1,0.7C5.2,41.5,5.1,41.6,5,41.6z M29.5,40.8c-0.1,0-0.2,0-0.3-0.1c-0.2-0.1-0.3-0.4-0.1-0.7
					c0.3-0.5,0.7-1,0.9-1.6c0.1-0.2,0.4-0.3,0.6-0.2c0.2,0.1,0.3,0.4,0.2,0.6c-0.3,0.6-0.6,1.2-1,1.7C29.8,40.7,29.6,40.8,29.5,40.8
					z M3.1,38.3c-0.2,0-0.4-0.1-0.4-0.3c-0.3-0.6-0.5-1.2-0.6-1.9c-0.1-0.3,0.1-0.5,0.3-0.6c0.3-0.1,0.5,0.1,0.6,0.3
					c0.2,0.6,0.4,1.2,0.6,1.7c0.1,0.2,0,0.5-0.3,0.6C3.3,38.3,3.2,38.3,3.1,38.3z M31.2,37.4c-0.1,0-0.1,0-0.2,0
					c-0.2-0.1-0.4-0.4-0.3-0.6c0.2-0.6,0.4-1.2,0.5-1.8c0.1-0.3,0.3-0.4,0.6-0.4c0.3,0.1,0.4,0.3,0.4,0.6c-0.1,0.6-0.3,1.3-0.5,1.9
					C31.6,37.3,31.4,37.4,31.2,37.4z M2.1,34.6c-0.2,0-0.4-0.2-0.5-0.4c-0.1-0.6-0.1-1.2-0.2-1.8C1.5,32.1,1.7,32,2,32c0,0,0,0,0,0
					c0.3,0,0.5,0.1,0.5,0.3c0,0.6,0.1,1.2,0.1,1.8C2.6,34.4,2.5,34.6,2.1,34.6C2.2,34.6,2.1,34.6,2.1,34.6z M32,33.7
					C31.9,33.7,31.9,33.7,32,33.7c-0.3,0-0.5-0.3-0.5-0.5c0-0.4,0-0.8,0-1.2c0-0.2,0-0.5,0-0.7c0-0.3,0.2-0.5,0.5-0.5
					c0.3,0,0.5,0.2,0.5,0.5c0,0.2,0,0.5,0,0.7c0,0.4,0,0.8,0,1.2C32.4,33.5,32.2,33.7,32,33.7z M2.1,30.8C2.1,30.8,2,30.8,2.1,30.8
					c-0.3,0-0.5-0.3-0.5-0.5c0.1-0.7,0.2-1.3,0.3-1.9C2,28.1,2.3,27.9,2.5,28c0.3,0.1,0.4,0.3,0.4,0.6c-0.1,0.6-0.3,1.2-0.3,1.8
					C2.5,30.6,2.3,30.8,2.1,30.8z M31.8,29.9c-0.2,0-0.4-0.2-0.5-0.4c-0.1-0.6-0.3-1.2-0.4-1.8c-0.1-0.2,0.1-0.5,0.3-0.6
					c0.3-0.1,0.5,0.1,0.6,0.3c0.2,0.6,0.3,1.3,0.5,1.9C32.3,29.6,32.1,29.8,31.8,29.9C31.8,29.9,31.8,29.9,31.8,29.9z M3,27.1
					c-0.1,0-0.1,0-0.2,0c-0.2-0.1-0.4-0.4-0.3-0.6c0.2-0.6,0.5-1.2,0.8-1.8c0.1-0.2,0.4-0.3,0.6-0.2c0.2,0.1,0.3,0.4,0.2,0.6
					c-0.3,0.5-0.5,1.1-0.8,1.7C3.3,27,3.2,27.1,3,27.1z M30.7,26.2c-0.2,0-0.4-0.1-0.4-0.3c-0.3-0.6-0.6-1.1-0.9-1.6
					c-0.1-0.2-0.1-0.5,0.2-0.7c0.2-0.1,0.5-0.1,0.7,0.2c0.3,0.6,0.7,1.1,0.9,1.7c0.1,0.2,0,0.5-0.2,0.6
					C30.8,26.2,30.7,26.2,30.7,26.2z M4.8,23.8c-0.1,0-0.2,0-0.3-0.1c-0.2-0.2-0.3-0.5-0.1-0.7c0.4-0.5,0.8-1,1.2-1.5
					c0.2-0.2,0.5-0.2,0.7,0c0.2,0.2,0.2,0.5,0,0.7c-0.4,0.5-0.8,0.9-1.2,1.4C5.1,23.7,4.9,23.8,4.8,23.8z M28.6,23
					c-0.1,0-0.3-0.1-0.4-0.2c-0.4-0.5-0.8-0.9-1.2-1.4c-0.2-0.2-0.2-0.5,0-0.7c0.2-0.2,0.5-0.2,0.7,0c0.5,0.5,0.9,0.9,1.3,1.4
					c0.2,0.2,0.1,0.5-0.1,0.7C28.9,23,28.8,23,28.6,23z M7.3,21c-0.1,0-0.3-0.1-0.4-0.2c-0.2-0.2-0.1-0.5,0.1-0.7
					c0.5-0.4,1-0.8,1.6-1.2c0.2-0.1,0.5-0.1,0.7,0.1c0.1,0.2,0.1,0.5-0.1,0.7c-0.5,0.3-1,0.7-1.5,1.1C7.6,20.9,7.5,21,7.3,21z
					 M25.9,20.4c-0.1,0-0.2,0-0.3-0.1c-0.5-0.4-1-0.7-1.6-1c-0.2-0.1-0.3-0.4-0.2-0.6c0.1-0.2,0.4-0.3,0.6-0.2
					c0.6,0.3,1.1,0.7,1.7,1.1c0.2,0.2,0.3,0.5,0.1,0.7C26.2,20.3,26,20.4,25.9,20.4z M10.5,18.9c-0.2,0-0.3-0.1-0.4-0.3
					c-0.1-0.2,0-0.5,0.2-0.6c0.6-0.3,1.2-0.5,1.8-0.7c0.2-0.1,0.5,0.1,0.6,0.3c0.1,0.3-0.1,0.5-0.3,0.6c-0.6,0.2-1.2,0.4-1.7,0.7
					C10.7,18.9,10.6,18.9,10.5,18.9z M22.6,18.5c-0.1,0-0.1,0-0.2,0c-0.6-0.2-1.2-0.4-1.8-0.6c-0.3-0.1-0.4-0.3-0.3-0.6
					c0.1-0.3,0.3-0.4,0.6-0.3c0.6,0.2,1.3,0.4,1.9,0.6c0.2,0.1,0.4,0.4,0.3,0.6C22.9,18.4,22.8,18.5,22.6,18.5z M14.2,17.7
					c-0.2,0-0.4-0.2-0.5-0.4c0-0.3,0.1-0.5,0.4-0.6c0.6-0.1,1.3-0.2,1.9-0.2c0.2,0,0.5,0.2,0.5,0.4c0-0.2,0.2-0.4,0.5-0.4
					c0.7,0,1.3,0,2,0.1c0.3,0,0.4,0.3,0.4,0.5c0,0.3-0.3,0.4-0.5,0.4c-0.6-0.1-1.2-0.1-1.8-0.1c-0.2,0-0.4-0.2-0.5-0.4
					c0,0.2-0.2,0.4-0.4,0.4C15.5,17.5,14.8,17.6,14.2,17.7C14.2,17.7,14.2,17.7,14.2,17.7z"/>
			</g>
			<g>
				<path fill="#C3D7DD" d="M47,47.5c-0.2,0-0.3,0-0.5,0c-0.3,0-0.5-0.2-0.5-0.5c0-0.3,0.2-0.5,0.5-0.5c0.6,0,1.2,0,1.8-0.1
					c0.3,0,0.5,0.2,0.5,0.4c0,0.3-0.2,0.5-0.4,0.5C48,47.5,47.5,47.5,47,47.5z M44.6,47.3C44.6,47.3,44.6,47.3,44.6,47.3
					c-0.7-0.1-1.4-0.3-2-0.4c-0.2-0.1-0.4-0.3-0.3-0.6c0.1-0.2,0.3-0.4,0.6-0.3c0.6,0.2,1.2,0.3,1.8,0.4c0.3,0,0.4,0.3,0.4,0.5
					C45.1,47.1,44.9,47.3,44.6,47.3z M50.3,47.1c-0.2,0-0.4-0.2-0.5-0.4c-0.1-0.3,0.1-0.5,0.4-0.6c0.6-0.1,1.2-0.3,1.8-0.5
					c0.2-0.1,0.5,0,0.6,0.3c0.1,0.2,0,0.5-0.3,0.6c-0.6,0.2-1.3,0.4-1.9,0.6C50.4,47.1,50.3,47.1,50.3,47.1z M41,46.2
					c-0.1,0-0.1,0-0.2,0c-0.6-0.3-1.2-0.6-1.7-0.9c-0.2-0.1-0.3-0.4-0.2-0.7c0.1-0.2,0.4-0.3,0.7-0.2c0.5,0.3,1.1,0.6,1.6,0.8
					c0.2,0.1,0.3,0.4,0.2,0.6C41.3,46.1,41.2,46.2,41,46.2z M53.9,45.8c-0.2,0-0.3-0.1-0.4-0.3c-0.1-0.2,0-0.5,0.2-0.6
					c0.5-0.3,1.1-0.6,1.6-1c0.2-0.1,0.5-0.1,0.7,0.1c0.1,0.2,0.1,0.5-0.1,0.7c-0.5,0.4-1.1,0.7-1.7,1C54,45.8,54,45.8,53.9,45.8z
					 M37.7,44.3c-0.1,0-0.2,0-0.3-0.1c-0.5-0.4-1-0.8-1.5-1.3c-0.2-0.2-0.2-0.5,0-0.7c0.2-0.2,0.5-0.2,0.7,0
					c0.4,0.4,0.9,0.8,1.4,1.2c0.2,0.2,0.2,0.5,0.1,0.7C38,44.2,37.9,44.3,37.7,44.3z M57,43.7c-0.1,0-0.3-0.1-0.4-0.2
					c-0.2-0.2-0.2-0.5,0-0.7c0.5-0.4,0.9-0.9,1.3-1.3c0.2-0.2,0.5-0.2,0.7,0c0.2,0.2,0.2,0.5,0,0.7c-0.4,0.5-0.9,1-1.4,1.4
					C57.2,43.6,57.1,43.7,57,43.7z M35.1,41.6c-0.1,0-0.3-0.1-0.4-0.2c-0.4-0.5-0.8-1.1-1.1-1.6c-0.1-0.2-0.1-0.5,0.2-0.7
					c0.2-0.1,0.5-0.1,0.7,0.2c0.3,0.5,0.7,1,1,1.5c0.2,0.2,0.1,0.5-0.1,0.7C35.3,41.5,35.2,41.6,35.1,41.6z M59.5,40.8
					c-0.1,0-0.2,0-0.3-0.1c-0.2-0.1-0.3-0.4-0.1-0.7c0.3-0.5,0.7-1,0.9-1.6c0.1-0.2,0.4-0.3,0.6-0.2c0.2,0.1,0.3,0.4,0.2,0.6
					c-0.3,0.6-0.6,1.2-1,1.7C59.8,40.7,59.7,40.8,59.5,40.8z M33.2,38.3c-0.2,0-0.4-0.1-0.4-0.3c-0.3-0.6-0.5-1.2-0.6-1.9
					c-0.1-0.3,0.1-0.5,0.3-0.6c0.3-0.1,0.5,0.1,0.6,0.3c0.2,0.6,0.4,1.2,0.6,1.7c0.1,0.2,0,0.5-0.3,0.6
					C33.3,38.3,33.2,38.3,33.2,38.3z M61.2,37.4c-0.1,0-0.1,0-0.2,0c-0.2-0.1-0.4-0.4-0.3-0.6c0.2-0.6,0.4-1.2,0.5-1.8
					c0.1-0.3,0.3-0.4,0.6-0.4c0.3,0.1,0.4,0.3,0.4,0.6c-0.1,0.6-0.3,1.3-0.5,1.9C61.6,37.3,61.4,37.4,61.2,37.4z M32.1,34.6
					c-0.2,0-0.4-0.2-0.5-0.4c-0.1-0.6-0.1-1.2-0.2-1.8c0-0.3,0.2-0.4,0.5-0.4h0c0.3,0,0.5,0.1,0.5,0.3c0,0.6,0.1,1.2,0.1,1.8
					C32.7,34.4,32.5,34.6,32.1,34.6C32.2,34.6,32.2,34.6,32.1,34.6z M62,33.7C62,33.7,62,33.7,62,33.7c-0.3,0-0.5-0.3-0.5-0.5
					c0-0.4,0-0.8,0-1.2c0-0.2,0-0.5,0-0.7c0-0.3,0.2-0.5,0.5-0.5c0.3,0,0.5,0.2,0.5,0.5c0,0.2,0,0.5,0,0.7c0,0.4,0,0.8,0,1.2
					C62.4,33.5,62.2,33.7,62,33.7z M32.1,30.8C32.1,30.8,32.1,30.8,32.1,30.8c-0.3,0-0.5-0.3-0.5-0.5c0.1-0.7,0.2-1.3,0.3-1.9
					c0.1-0.3,0.3-0.4,0.6-0.4c0.3,0.1,0.4,0.3,0.4,0.6c-0.1,0.6-0.3,1.2-0.3,1.8C32.5,30.6,32.3,30.8,32.1,30.8z M61.8,29.9
					c-0.2,0-0.4-0.2-0.5-0.4c-0.1-0.6-0.3-1.2-0.4-1.8c-0.1-0.2,0.1-0.5,0.3-0.6c0.3-0.1,0.5,0.1,0.6,0.3c0.2,0.6,0.3,1.3,0.5,1.9
					C62.3,29.6,62.1,29.8,61.8,29.9C61.9,29.9,61.8,29.9,61.8,29.9z M33,27.1c-0.1,0-0.1,0-0.2,0c-0.2-0.1-0.4-0.4-0.3-0.6
					c0.2-0.6,0.5-1.2,0.8-1.8c0.1-0.2,0.4-0.3,0.6-0.2c0.2,0.1,0.3,0.4,0.2,0.6c-0.3,0.5-0.5,1.1-0.8,1.7C33.4,27,33.2,27.1,33,27.1
					z M60.7,26.2c-0.2,0-0.4-0.1-0.4-0.3c-0.3-0.6-0.5-1.1-0.9-1.6c-0.1-0.2-0.1-0.5,0.2-0.7c0.2-0.1,0.5-0.1,0.7,0.2
					c0.3,0.6,0.7,1.1,0.9,1.7c0.1,0.2,0,0.5-0.2,0.6C60.8,26.2,60.7,26.2,60.7,26.2z M34.8,23.8c-0.1,0-0.2,0-0.3-0.1
					c-0.2-0.2-0.3-0.5-0.1-0.7c0.4-0.5,0.8-1,1.2-1.5c0.2-0.2,0.5-0.2,0.7,0c0.2,0.2,0.2,0.5,0,0.7c-0.4,0.5-0.8,0.9-1.2,1.4
					C35.1,23.7,34.9,23.8,34.8,23.8z M58.7,23c-0.1,0-0.3-0.1-0.4-0.2c-0.4-0.5-0.8-0.9-1.3-1.4c-0.2-0.2-0.2-0.5,0-0.7
					c0.2-0.2,0.5-0.2,0.7,0c0.5,0.5,0.9,0.9,1.3,1.4c0.2,0.2,0.1,0.5-0.1,0.7C58.9,23,58.8,23,58.7,23z M37.4,21
					c-0.1,0-0.3-0.1-0.4-0.2c-0.2-0.2-0.1-0.5,0.1-0.7c0.5-0.4,1-0.8,1.6-1.2c0.2-0.1,0.5-0.1,0.7,0.1c0.1,0.2,0.1,0.5-0.1,0.7
					c-0.5,0.3-1,0.7-1.5,1.1C37.6,20.9,37.5,21,37.4,21z M55.9,20.4c-0.1,0-0.2,0-0.3-0.1c-0.5-0.4-1-0.7-1.6-1
					c-0.2-0.1-0.3-0.4-0.2-0.7c0.1-0.2,0.4-0.3,0.7-0.2c0.6,0.3,1.1,0.7,1.7,1.1c0.2,0.2,0.3,0.5,0.1,0.7
					C56.2,20.3,56.1,20.4,55.9,20.4z M40.6,18.9c-0.2,0-0.3-0.1-0.4-0.3c-0.1-0.2,0-0.5,0.2-0.6c0.6-0.3,1.2-0.5,1.8-0.7
					c0.3-0.1,0.5,0.1,0.6,0.3c0.1,0.3-0.1,0.5-0.3,0.6c-0.6,0.2-1.2,0.4-1.7,0.7C40.7,18.9,40.6,18.9,40.6,18.9z M52.6,18.5
					c-0.1,0-0.1,0-0.2,0c-0.6-0.2-1.2-0.4-1.8-0.6c-0.3-0.1-0.4-0.3-0.3-0.6c0.1-0.3,0.3-0.4,0.6-0.3c0.6,0.2,1.3,0.4,1.9,0.6
					c0.2,0.1,0.4,0.4,0.3,0.6C53,18.4,52.8,18.5,52.6,18.5z M44.2,17.7c-0.2,0-0.4-0.2-0.5-0.4c0-0.3,0.1-0.5,0.4-0.6
					c0.6-0.1,1.3-0.2,1.9-0.2c0.2,0,0.5,0.2,0.5,0.4c0-0.2,0.2-0.4,0.5-0.4c0.7,0,1.3,0,2,0.1c0.3,0,0.4,0.3,0.4,0.5
					c0,0.3-0.3,0.4-0.5,0.4c-0.6-0.1-1.2-0.1-1.8-0.1c-0.2,0-0.4-0.2-0.5-0.4c0,0.2-0.2,0.4-0.4,0.4C45.5,17.5,44.9,17.6,44.2,17.7
					C44.2,17.7,44.2,17.7,44.2,17.7z"/>
			</g>
		</g>
		<g>
			<g>
				<g>
					<path fill="#C3D7DD" d="M24.5,34.5c-0.3,0-0.7,0-1,0c-0.3,0-0.5-0.2-0.4-0.5c0-0.3,0.3-0.5,0.5-0.4c0.6,0,1.2,0,1.8,0
						c0.3,0,0.5,0.2,0.5,0.4c0,0.3-0.2,0.5-0.4,0.5C25.1,34.5,24.8,34.5,24.5,34.5z M27.3,34.2c-0.2,0-0.4-0.2-0.5-0.4
						c0-0.3,0.1-0.5,0.4-0.6c0.6-0.1,1.2-0.3,1.8-0.5c0.2-0.1,0.5,0.1,0.6,0.3c0.1,0.3-0.1,0.5-0.3,0.6
						C28.7,33.9,28.1,34.1,27.3,34.2C27.4,34.2,27.4,34.2,27.3,34.2z M21.6,34.2C21.6,34.2,21.6,34.2,21.6,34.2
						c-0.7-0.1-1.4-0.3-2-0.5c-0.2-0.1-0.4-0.4-0.3-0.6s0.4-0.4,0.6-0.3c0.6,0.2,1.2,0.3,1.8,0.5c0.3,0,0.4,0.3,0.4,0.6
						C22.1,34.1,21.9,34.2,21.6,34.2z M30.9,33c-0.2,0-0.3-0.1-0.4-0.3c-0.1-0.2,0-0.5,0.2-0.6c0.3-0.2,0.7-0.3,1-0.5
						c0.2-0.1,0.4-0.2,0.6-0.4c0.2-0.1,0.5-0.1,0.7,0.1c0.1,0.2,0.1,0.5-0.1,0.7c-0.2,0.1-0.4,0.3-0.6,0.4c-0.4,0.2-0.7,0.4-1.1,0.6
						C31.1,33,31,33,30.9,33z M18,33c-0.1,0-0.1,0-0.2,0c-0.6-0.3-1.2-0.6-1.7-1c-0.2-0.1-0.3-0.4-0.1-0.7c0.1-0.2,0.4-0.3,0.7-0.1
						c0.5,0.3,1.1,0.6,1.6,0.9c0.2,0.1,0.3,0.4,0.2,0.6C18.4,32.9,18.2,33,18,33z M34.1,31c-0.1,0-0.3-0.1-0.4-0.2
						c-0.2-0.2-0.1-0.5,0.1-0.7c0.5-0.4,0.9-0.8,1.3-1.3c0.2-0.2,0.5-0.2,0.7,0c0.2,0.2,0.2,0.5,0,0.7c-0.4,0.5-0.9,0.9-1.4,1.4
						C34.4,31,34.2,31,34.1,31z M14.8,31c-0.1,0-0.2,0-0.3-0.1c-0.5-0.4-1-0.9-1.4-1.4c-0.2-0.2-0.2-0.5,0-0.7
						c0.2-0.2,0.5-0.2,0.7,0c0.4,0.5,0.9,0.9,1.3,1.3c0.2,0.2,0.2,0.5,0.1,0.7C15.1,30.9,15,31,14.8,31z M36.7,28.2
						c-0.1,0-0.2,0-0.3-0.1c-0.2-0.2-0.3-0.4-0.1-0.7c0.4-0.5,0.7-1,1-1.6c0.1-0.2,0.4-0.3,0.6-0.2c0.2,0.1,0.3,0.4,0.2,0.6
						c-0.3,0.6-0.7,1.1-1,1.7C37,28.1,36.9,28.2,36.7,28.2z M12.3,28.2c-0.1,0-0.3-0.1-0.4-0.2c-0.3-0.4-0.5-0.8-0.8-1.2
						c-0.1-0.1-0.2-0.3-0.2-0.4c-0.1-0.2,0-0.5,0.2-0.6c0.2-0.1,0.5,0,0.6,0.2c0.1,0.1,0.2,0.3,0.2,0.4c0.2,0.4,0.5,0.8,0.7,1.2
						c0.2,0.2,0.1,0.5-0.1,0.7C12.4,28.2,12.4,28.2,12.3,28.2z M38.5,24.8c-0.1,0-0.1,0-0.2,0c-0.2-0.1-0.4-0.4-0.3-0.6
						c0.2-0.6,0.4-1.2,0.5-1.8c0.1-0.3,0.3-0.4,0.6-0.4c0.3,0.1,0.4,0.3,0.4,0.6c-0.2,0.6-0.4,1.3-0.6,1.9
						C38.9,24.7,38.7,24.8,38.5,24.8z M10.5,24.8c-0.2,0-0.4-0.1-0.4-0.3c-0.2-0.6-0.4-1.2-0.6-1.9c-0.1-0.3,0.1-0.5,0.3-0.6
						c0.3-0.1,0.5,0.1,0.6,0.3c0.1,0.6,0.3,1.2,0.5,1.8c0.1,0.2,0,0.5-0.3,0.6C10.6,24.8,10.5,24.8,10.5,24.8z M39.4,21.1
						C39.4,21.1,39.4,21.1,39.4,21.1c-0.3,0-0.5-0.3-0.5-0.5C39,20.1,39,19.5,39,19l0-0.4c0-0.3,0.2-0.6,0.5-0.6c0,0,0,0,0,0
						c0.3,0,0.5,0.4,0.5,0.6l0,0.3c0,0.6,0,1.2-0.1,1.8C39.9,20.9,39.7,21.1,39.4,21.1z M9.6,21c-0.2,0-0.4-0.1-0.5-0.4
						C9,20.1,9,19.5,9,19l0-0.4C9,18.3,9.2,18,9.5,18h0c0.3,0,0.5,0.4,0.5,0.6l0,0.3c0,0.5,0,1,0.1,1.6C10.1,20.8,9.9,21,9.6,21
						C9.6,21,9.6,21,9.6,21z M39.4,17.3c-0.2,0-0.4-0.2-0.5-0.4c-0.1-0.6-0.2-1.2-0.4-1.8c-0.1-0.3,0.1-0.5,0.3-0.6
						c0.3-0.1,0.5,0.1,0.6,0.3c0.2,0.6,0.3,1.3,0.4,1.9C39.9,17.1,39.7,17.3,39.4,17.3C39.4,17.3,39.4,17.3,39.4,17.3z M9.6,17.3
						C9.6,17.3,9.6,17.3,9.6,17.3c-0.3,0-0.5-0.3-0.5-0.5c0.1-0.6,0.2-1.3,0.4-1.9c0.1-0.3,0.3-0.4,0.6-0.3c0.3,0.1,0.4,0.3,0.3,0.6
						c-0.2,0.6-0.3,1.2-0.4,1.8C10.1,17.2,9.9,17.3,9.6,17.3z M38.3,13.7c-0.2,0-0.4-0.1-0.4-0.3c-0.2-0.6-0.5-1.1-0.8-1.7
						c-0.1-0.2-0.1-0.4,0.1-0.6c-0.2,0.1-0.4,0-0.5-0.2c-0.3-0.5-0.7-1-1.1-1.5c-0.2-0.2-0.1-0.5,0-0.7c0.2-0.2,0.5-0.1,0.7,0
						c0.4,0.5,0.8,1,1.2,1.6c0.1,0.2,0.1,0.4-0.1,0.6c0.2-0.1,0.5,0,0.6,0.2c0.3,0.6,0.6,1.2,0.9,1.8c0.1,0.2,0,0.5-0.3,0.6
						C38.5,13.7,38.4,13.7,38.3,13.7z M10.7,13.7c-0.1,0-0.1,0-0.2,0c-0.2-0.1-0.4-0.4-0.3-0.6c0.3-0.6,0.5-1.2,0.9-1.8
						c0.1-0.2,0.4-0.3,0.7-0.2c0.2,0.1,0.3,0.4,0.2,0.7c-0.3,0.5-0.6,1.1-0.8,1.7C11,13.6,10.8,13.7,10.7,13.7z M12.6,10.4
						c-0.1,0-0.2,0-0.3-0.1c-0.2-0.2-0.2-0.5-0.1-0.7c0.4-0.5,0.8-1,1.3-1.5c0.2-0.2,0.5-0.2,0.7,0c0.2,0.2,0.2,0.5,0,0.7
						c-0.4,0.4-0.8,0.9-1.2,1.4C12.8,10.3,12.7,10.4,12.6,10.4z M34.5,8.3c-0.1,0-0.2,0-0.3-0.1c-0.5-0.4-0.9-0.8-1.4-1.1
						c-0.2-0.2-0.3-0.4-0.1-0.7c0.2-0.2,0.4-0.3,0.7-0.1c0.5,0.4,1.1,0.8,1.5,1.2c0.2,0.2,0.2,0.5,0,0.7C34.8,8.2,34.7,8.3,34.5,8.3
						z M15.2,7.7c-0.1,0-0.3-0.1-0.4-0.2c-0.2-0.2-0.1-0.5,0.1-0.7C15.4,6.4,16,6,16.6,5.7c0.2-0.1,0.5-0.1,0.7,0.2
						c0.1,0.2,0.1,0.5-0.2,0.7c-0.5,0.3-1,0.7-1.5,1C15.4,7.6,15.3,7.7,15.2,7.7z M31.4,6.1c-0.1,0-0.1,0-0.2-0.1
						c-0.5-0.3-1.1-0.5-1.7-0.7c-0.2-0.1-0.4-0.4-0.3-0.6c0.1-0.2,0.4-0.4,0.6-0.3c0.6,0.2,1.2,0.5,1.8,0.8c0.2,0.1,0.3,0.4,0.2,0.6
						C31.7,6,31.6,6.1,31.4,6.1z M18.5,5.7c-0.2,0-0.4-0.1-0.4-0.3c-0.1-0.2,0-0.5,0.2-0.6c0.6-0.3,1.2-0.5,1.8-0.7
						c0.3-0.1,0.5,0.1,0.6,0.3C20.8,4.7,20.7,5,20.4,5c-0.6,0.2-1.2,0.4-1.7,0.6C18.6,5.7,18.6,5.7,18.5,5.7z M27.8,4.8
						c0,0-0.1,0-0.1,0c-0.6-0.1-1.2-0.2-1.8-0.3c-0.3,0-0.5-0.3-0.4-0.5c0-0.3,0.3-0.4,0.5-0.4c0.6,0.1,1.3,0.2,1.9,0.3
						c0.3,0.1,0.4,0.3,0.4,0.6C28.2,4.7,28,4.8,27.8,4.8z M22.1,4.6c-0.2,0-0.4-0.2-0.5-0.4c0-0.3,0.1-0.5,0.4-0.5
						c0.6-0.1,1.3-0.2,2-0.2c0.2,0,0.5,0.2,0.5,0.5c0,0.3-0.2,0.5-0.5,0.5C23.4,4.5,22.8,4.5,22.1,4.6C22.2,4.6,22.2,4.6,22.1,4.6z"
						/>
				</g>
				<g>
					<path fill="#C3D7DD" d="M39.5,60.5c-0.3,0-0.7,0-1,0c-0.3,0-0.5-0.2-0.4-0.5c0-0.3,0.2-0.5,0.5-0.4c0.6,0,1.2,0,1.8,0
						c0.3,0,0.5,0.2,0.5,0.4c0,0.3-0.2,0.5-0.4,0.5C40.2,60.5,39.8,60.5,39.5,60.5z M42.3,60.2c-0.2,0-0.4-0.2-0.5-0.4
						c0-0.3,0.1-0.5,0.4-0.6c0.6-0.1,1.2-0.3,1.8-0.5c0.2-0.1,0.5,0.1,0.6,0.3c0.1,0.3-0.1,0.5-0.3,0.6
						C43.7,59.9,43.1,60.1,42.3,60.2C42.4,60.2,42.4,60.2,42.3,60.2z M36.7,60.2C36.6,60.2,36.6,60.2,36.7,60.2
						c-0.7-0.1-1.4-0.3-2-0.5c-0.2-0.1-0.4-0.4-0.3-0.6c0.1-0.2,0.4-0.4,0.6-0.3c0.6,0.2,1.2,0.3,1.8,0.5c0.3,0,0.4,0.3,0.4,0.6
						C37.1,60.1,36.9,60.2,36.7,60.2z M46,59c-0.2,0-0.3-0.1-0.4-0.3c-0.1-0.2,0-0.5,0.2-0.6c0.3-0.2,0.7-0.3,1-0.5
						c0.2-0.1,0.4-0.2,0.6-0.4c0.2-0.1,0.5-0.1,0.7,0.1c0.1,0.2,0.1,0.5-0.1,0.7c-0.2,0.1-0.4,0.3-0.6,0.4c-0.4,0.2-0.7,0.4-1.1,0.6
						C46.1,59,46,59,46,59z M33,59c-0.1,0-0.1,0-0.2,0c-0.6-0.3-1.2-0.6-1.7-1c-0.2-0.1-0.3-0.4-0.1-0.7c0.1-0.2,0.4-0.3,0.7-0.1
						c0.5,0.3,1.1,0.6,1.6,0.9c0.2,0.1,0.3,0.4,0.2,0.6C33.4,58.9,33.2,59,33,59z M49.2,57c-0.1,0-0.3-0.1-0.4-0.2
						c-0.2-0.2-0.1-0.5,0.1-0.7c0.5-0.4,0.9-0.8,1.3-1.3c0.2-0.2,0.5-0.2,0.7,0c0.2,0.2,0.2,0.5,0,0.7c-0.4,0.5-0.9,0.9-1.4,1.4
						C49.4,56.9,49.3,57,49.2,57z M29.8,57c-0.1,0-0.2,0-0.3-0.1c-0.5-0.4-1-0.9-1.4-1.4c-0.2-0.2-0.2-0.5,0-0.7
						c0.2-0.2,0.5-0.2,0.7,0c0.4,0.5,0.9,0.9,1.3,1.3c0.2,0.2,0.2,0.5,0.1,0.7C30.1,56.9,30,57,29.8,57z M51.7,54.2
						c-0.1,0-0.2,0-0.3-0.1c-0.2-0.2-0.3-0.5-0.1-0.7c0.4-0.5,0.7-1,1-1.6c0.1-0.2,0.4-0.3,0.6-0.2c0.2,0.1,0.3,0.4,0.2,0.6
						c-0.3,0.6-0.7,1.1-1,1.7C52,54.1,51.9,54.2,51.7,54.2z M27.3,54.2c-0.1,0-0.3-0.1-0.4-0.2c-0.3-0.4-0.5-0.8-0.8-1.2
						c-0.1-0.2-0.2-0.3-0.2-0.4c-0.1-0.2,0-0.5,0.2-0.6c0.2-0.1,0.5,0,0.6,0.2c0.1,0.1,0.2,0.3,0.2,0.4c0.2,0.4,0.5,0.8,0.7,1.2
						c0.2,0.2,0.1,0.5-0.1,0.7C27.5,54.1,27.4,54.2,27.3,54.2z M53.5,50.8c-0.1,0-0.1,0-0.2,0c-0.2-0.1-0.4-0.4-0.3-0.6
						c0.2-0.6,0.4-1.2,0.5-1.8c0.1-0.3,0.3-0.4,0.6-0.3c0.3,0.1,0.4,0.3,0.3,0.6c-0.2,0.6-0.3,1.3-0.6,1.9
						C53.9,50.7,53.7,50.8,53.5,50.8z M25.5,50.8c-0.2,0-0.4-0.1-0.4-0.3c-0.2-0.6-0.4-1.2-0.6-1.9c-0.1-0.3,0.1-0.5,0.4-0.6
						c0.3-0.1,0.5,0.1,0.6,0.4c0.1,0.6,0.3,1.2,0.5,1.8c0.1,0.2,0,0.5-0.3,0.6C25.6,50.8,25.5,50.8,25.5,50.8z M54.4,47.1
						C54.4,47.1,54.4,47.1,54.4,47.1c-0.3,0-0.5-0.3-0.5-0.5C54,46.1,54,45.5,54,45l0-0.4c0-0.3,0.2-0.6,0.5-0.6h0
						c0.3,0,0.5,0.4,0.5,0.6l0,0.3c0,0.6,0,1.2-0.1,1.8C54.9,46.9,54.7,47.1,54.4,47.1z M24.6,47.1c-0.2,0-0.4-0.2-0.5-0.4
						C24,46.1,24,45.6,24,45l0-0.4c0-0.3,0.2-0.6,0.5-0.6c0,0,0,0,0,0c0.3,0,0.5,0.4,0.5,0.6l0,0.3c0,0.5,0,1.1,0.1,1.6
						C25.1,46.8,24.9,47.1,24.6,47.1C24.6,47.1,24.6,47.1,24.6,47.1z M54.4,43.3c-0.2,0-0.4-0.2-0.5-0.4c-0.1-0.6-0.2-1.2-0.4-1.8
						c-0.1-0.3,0.1-0.5,0.3-0.6c0.3-0.1,0.5,0.1,0.6,0.3c0.2,0.6,0.3,1.3,0.4,1.9C54.9,43.1,54.7,43.3,54.4,43.3
						C54.4,43.3,54.4,43.3,54.4,43.3z M24.6,43.3C24.6,43.3,24.6,43.3,24.6,43.3c-0.3,0-0.5-0.3-0.5-0.5c0.1-0.6,0.2-1.3,0.4-1.9
						c0.1-0.3,0.3-0.4,0.6-0.3c0.3,0.1,0.4,0.3,0.3,0.6c-0.2,0.6-0.3,1.2-0.4,1.8C25.1,43.2,24.9,43.3,24.6,43.3z M53.4,39.7
						c-0.2,0-0.4-0.1-0.4-0.3c-0.2-0.6-0.5-1.1-0.8-1.7c-0.1-0.2-0.1-0.4,0.1-0.6c-0.2,0.1-0.4,0-0.5-0.2c-0.3-0.5-0.7-1-1.1-1.5
						c-0.2-0.2-0.1-0.5,0-0.7c0.2-0.2,0.5-0.2,0.7,0.1c0.4,0.5,0.8,1,1.2,1.6c0.1,0.2,0.1,0.4-0.1,0.6c0.2-0.1,0.4,0,0.6,0.2
						c0.3,0.6,0.6,1.2,0.9,1.8c0.1,0.2,0,0.5-0.3,0.6C53.5,39.7,53.4,39.7,53.4,39.7z M25.7,39.7c-0.1,0-0.1,0-0.2,0
						c-0.2-0.1-0.4-0.4-0.3-0.6c0.3-0.6,0.5-1.2,0.9-1.8c0.1-0.2,0.4-0.3,0.7-0.2c0.2,0.1,0.3,0.4,0.2,0.7c-0.3,0.5-0.6,1.1-0.8,1.7
						C26,39.5,25.8,39.7,25.7,39.7z M27.6,36.4c-0.1,0-0.2,0-0.3-0.1c-0.2-0.2-0.2-0.5-0.1-0.7c0.4-0.5,0.8-1,1.3-1.5
						c0.2-0.2,0.5-0.2,0.7,0c0.2,0.2,0.2,0.5,0,0.7c-0.4,0.4-0.8,0.9-1.2,1.4C27.8,36.3,27.7,36.4,27.6,36.4z M49.5,34.3
						c-0.1,0-0.2,0-0.3-0.1c-0.5-0.4-0.9-0.8-1.4-1.1c-0.2-0.2-0.3-0.4-0.1-0.7c0.1-0.2,0.4-0.3,0.7-0.1c0.5,0.4,1.1,0.8,1.5,1.2
						c0.2,0.2,0.2,0.5,0,0.7C49.8,34.2,49.7,34.3,49.5,34.3z M30.2,33.7c-0.1,0-0.3-0.1-0.4-0.2c-0.2-0.2-0.1-0.5,0.1-0.7
						c0.5-0.4,1.1-0.8,1.6-1.1c0.2-0.1,0.5-0.1,0.7,0.2c0.1,0.2,0.1,0.5-0.2,0.7c-0.5,0.3-1,0.7-1.5,1
						C30.4,33.6,30.3,33.7,30.2,33.7z M46.4,32.1c-0.1,0-0.1,0-0.2-0.1c-0.5-0.3-1.1-0.5-1.7-0.7c-0.2-0.1-0.4-0.4-0.3-0.6
						c0.1-0.2,0.4-0.4,0.6-0.3c0.6,0.2,1.2,0.5,1.8,0.8c0.2,0.1,0.3,0.4,0.2,0.6C46.7,32,46.6,32.1,46.4,32.1z M33.5,31.7
						c-0.2,0-0.4-0.1-0.4-0.3c-0.1-0.2,0-0.5,0.2-0.6c0.6-0.3,1.2-0.5,1.8-0.7c0.3-0.1,0.5,0.1,0.6,0.3c0.1,0.3-0.1,0.5-0.3,0.6
						c-0.6,0.2-1.2,0.4-1.7,0.6C33.6,31.7,33.6,31.7,33.5,31.7z M42.8,30.8c0,0-0.1,0-0.1,0c-0.6-0.1-1.2-0.2-1.8-0.3
						c-0.3,0-0.5-0.3-0.4-0.5c0-0.3,0.3-0.4,0.5-0.4c0.6,0.1,1.3,0.2,1.9,0.3c0.3,0.1,0.4,0.3,0.4,0.6
						C43.2,30.7,43.1,30.8,42.8,30.8z M37.2,30.6c-0.2,0-0.4-0.2-0.5-0.4c0-0.3,0.1-0.5,0.4-0.5c0.6-0.1,1.3-0.2,2-0.2
						c0.2,0,0.5,0.2,0.5,0.5c0,0.3-0.2,0.5-0.5,0.5C38.5,30.5,37.8,30.5,37.2,30.6C37.2,30.6,37.2,30.6,37.2,30.6z"/>
				</g>
			</g>
			<g>
				<g>
					<path fill="#C3D7DD" d="M24.5,60.5c-0.3,0-0.5-0.2-0.5-0.5c0-0.3,0.2-0.5,0.5-0.5c0.6,0,1.2,0,1.8-0.1c0.3,0,0.5,0.1,0.5,0.4
						c0,0.3-0.2,0.5-0.4,0.5C25.8,60.5,25.1,60.5,24.5,60.5z M22.6,60.4C22.6,60.4,22.5,60.4,22.6,60.4c-0.7-0.1-1.4-0.2-2-0.4
						c-0.3-0.1-0.4-0.3-0.3-0.6s0.3-0.4,0.6-0.3c0.6,0.2,1.2,0.3,1.8,0.4c0.3,0,0.4,0.3,0.4,0.5C23,60.2,22.8,60.4,22.6,60.4z
						 M28.3,60c-0.2,0-0.4-0.1-0.5-0.4c-0.1-0.3,0.1-0.5,0.3-0.6c0.6-0.2,1.2-0.3,1.8-0.6c0.2-0.1,0.5,0,0.6,0.3
						c0.1,0.2,0,0.5-0.3,0.6c-0.6,0.2-1.2,0.4-1.9,0.6C28.3,60,28.3,60,28.3,60z M18.9,59.4c-0.1,0-0.1,0-0.2,0
						c-0.6-0.2-1.2-0.5-1.8-0.8c-0.2-0.1-0.3-0.4-0.2-0.6c0.1-0.2,0.4-0.3,0.6-0.2c0.5,0.3,1.1,0.6,1.7,0.8c0.2,0.1,0.4,0.4,0.3,0.6
						C19.3,59.3,19.1,59.4,18.9,59.4z M31.8,58.6c-0.2,0-0.3-0.1-0.4-0.2c-0.1-0.2,0-0.5,0.2-0.6c0.5-0.3,1.1-0.6,1.6-1
						c0.2-0.2,0.5-0.1,0.7,0.1c0.2,0.2,0.1,0.5-0.1,0.7c-0.5,0.4-1.1,0.7-1.7,1.1C31.9,58.6,31.9,58.6,31.8,58.6z M15.6,57.6
						c-0.1,0-0.2,0-0.3-0.1c-0.5-0.4-1-0.8-1.5-1.3c-0.2-0.2-0.2-0.5,0-0.7c0.2-0.2,0.5-0.2,0.7,0c0.4,0.4,0.9,0.8,1.4,1.2
						c0.2,0.2,0.3,0.5,0.1,0.7C15.9,57.5,15.7,57.6,15.6,57.6z M34.9,56.4c-0.1,0-0.3,0-0.3-0.1c-0.2-0.2-0.2-0.5,0-0.7
						c0.4-0.4,0.9-0.9,1.3-1.4c0.2-0.2,0.5-0.2,0.7-0.1c0.2,0.2,0.2,0.5,0.1,0.7c-0.4,0.5-0.9,1-1.3,1.4
						C35.1,56.3,35,56.4,34.9,56.4z M12.8,54.9c-0.1,0-0.3-0.1-0.4-0.2c-0.4-0.5-0.8-1-1.1-1.6c-0.1-0.2-0.1-0.5,0.2-0.7
						c0.2-0.1,0.5-0.1,0.7,0.2c0.3,0.5,0.7,1,1.1,1.5c0.2,0.2,0.1,0.5-0.1,0.7C13,54.9,12.9,54.9,12.8,54.9z M37.2,53.4
						c-0.1,0-0.2,0-0.2-0.1c-0.2-0.1-0.3-0.4-0.2-0.7c0.1-0.1,0.2-0.3,0.2-0.4c0.2-0.4,0.4-0.8,0.6-1.2c0.1-0.2,0.4-0.3,0.6-0.2
						c0.2,0.1,0.3,0.4,0.2,0.6c-0.2,0.4-0.4,0.9-0.7,1.3c-0.1,0.1-0.2,0.3-0.3,0.4C37.6,53.3,37.4,53.4,37.2,53.4z M10.8,51.7
						c-0.2,0-0.4-0.1-0.4-0.3c-0.3-0.6-0.5-1.2-0.7-1.8C9.6,49.3,9.8,49.1,10,49c0.3-0.1,0.5,0.1,0.6,0.3c0.2,0.6,0.4,1.2,0.7,1.7
						c0.1,0.2,0,0.5-0.2,0.6C11,51.7,10.9,51.7,10.8,51.7z M38.8,49.9c0,0-0.1,0-0.1,0c-0.3-0.1-0.4-0.3-0.3-0.6
						c0.2-0.6,0.3-1.2,0.4-1.8c0-0.3,0.3-0.4,0.5-0.4c0.3,0,0.4,0.3,0.4,0.5c-0.1,0.6-0.3,1.3-0.5,1.9C39.2,49.8,39,49.9,38.8,49.9z
						 M9.7,48.1c-0.2,0-0.4-0.2-0.5-0.4C9.1,47,9,46.4,9,45.7c0-0.3,0.2-0.5,0.5-0.5c0.2,0,0.5,0.2,0.5,0.5c0,0.6,0.1,1.2,0.2,1.8
						C10.2,47.8,10,48,9.7,48.1C9.8,48.1,9.7,48.1,9.7,48.1z M39.5,46.2C39.5,46.2,39.5,46.2,39.5,46.2c-0.3,0-0.5-0.2-0.5-0.5
						c0-0.2,0-0.5,0-0.7c0-0.4,0-0.8,0-1.2c0-0.3,0.2-0.5,0.4-0.5c0.3,0,0.5,0.2,0.5,0.4c0,0.4,0,0.8,0,1.2c0,0.2,0,0.5,0,0.7
						C40,46,39.8,46.2,39.5,46.2z M9.5,44.3C9.5,44.3,9.5,44.3,9.5,44.3c-0.3,0-0.5-0.3-0.5-0.5c0.1-0.6,0.1-1.3,0.3-1.9
						c0.1-0.3,0.3-0.4,0.6-0.4c0.3,0.1,0.4,0.3,0.4,0.6c-0.1,0.6-0.2,1.2-0.3,1.8C10,44.1,9.8,44.3,9.5,44.3z M39.2,42.4
						c-0.2,0-0.4-0.2-0.5-0.4c-0.1-0.6-0.3-1.2-0.5-1.8c-0.1-0.2,0-0.5,0.3-0.6c0.2-0.1,0.5,0,0.6,0.3c0.2,0.6,0.4,1.3,0.5,1.9
						C39.7,42.1,39.5,42.3,39.2,42.4C39.3,42.4,39.2,42.4,39.2,42.4z M10.3,40.5c-0.1,0-0.1,0-0.2,0c-0.2-0.1-0.4-0.4-0.3-0.6
						c0.2-0.6,0.5-1.2,0.8-1.8c0.1-0.2,0.3-0.3,0.5-0.2c-0.2-0.1-0.2-0.4-0.1-0.6c0.3-0.6,0.7-1.1,1.1-1.6c0.2-0.2,0.5-0.3,0.7-0.1
						c0.2,0.2,0.3,0.5,0.1,0.7c-0.4,0.5-0.7,1-1,1.5c-0.1,0.2-0.3,0.3-0.5,0.2c0.2,0.1,0.2,0.4,0.1,0.6c-0.3,0.6-0.5,1.1-0.7,1.7
						C10.7,40.4,10.5,40.5,10.3,40.5z M38,38.8c-0.2,0-0.3-0.1-0.4-0.3c-0.3-0.6-0.6-1.1-0.9-1.6c-0.1-0.2-0.1-0.5,0.1-0.7
						c0.2-0.1,0.5-0.1,0.7,0.1c0.4,0.5,0.7,1.1,1,1.7c0.1,0.2,0,0.5-0.2,0.6C38.1,38.8,38,38.8,38,38.8z M35.9,35.6
						c-0.1,0-0.3-0.1-0.4-0.2c-0.4-0.5-0.8-0.9-1.3-1.3c-0.2-0.2-0.2-0.5,0-0.7c0.2-0.2,0.5-0.2,0.7,0c0.5,0.4,1,0.9,1.4,1.4
						c0.2,0.2,0.2,0.5,0,0.7C36.1,35.6,36,35.6,35.9,35.6z M13.8,34.9c-0.1,0-0.2,0-0.3-0.1c-0.2-0.2-0.2-0.5,0-0.7
						c0.5-0.5,1-0.9,1.5-1.3c0.2-0.2,0.5-0.1,0.7,0.1c0.2,0.2,0.1,0.5-0.1,0.7c-0.5,0.4-0.9,0.8-1.4,1.2
						C14,34.9,13.9,34.9,13.8,34.9z M33,33.1c-0.1,0-0.2,0-0.3-0.1c-0.3-0.2-0.6-0.4-1-0.6c-0.2-0.1-0.4-0.2-0.6-0.3
						c-0.2-0.1-0.3-0.4-0.2-0.6c0.1-0.2,0.4-0.3,0.6-0.2c0.2,0.1,0.4,0.2,0.6,0.3c0.4,0.2,0.7,0.4,1,0.7c0.2,0.2,0.3,0.4,0.1,0.7
						C33.3,33,33.2,33.1,33,33.1z M16.8,32.6c-0.2,0-0.3-0.1-0.4-0.2c-0.1-0.2-0.1-0.5,0.2-0.7c0.6-0.3,1.1-0.6,1.7-0.9
						c0.2-0.1,0.5,0,0.6,0.2c0.1,0.2,0,0.5-0.2,0.6c-0.6,0.2-1.1,0.5-1.6,0.8C17,32.6,16.9,32.6,16.8,32.6z M29.6,31.4
						c-0.1,0-0.1,0-0.2,0c-0.6-0.2-1.2-0.4-1.8-0.5c-0.3-0.1-0.4-0.3-0.4-0.6c0.1-0.3,0.3-0.4,0.6-0.4c0.6,0.1,1.3,0.3,1.9,0.6
						c0.2,0.1,0.4,0.4,0.3,0.6C30,31.2,29.8,31.4,29.6,31.4z M20.3,31.1c-0.2,0-0.4-0.1-0.5-0.3c-0.1-0.2,0.1-0.5,0.3-0.6
						c0.6-0.2,1.3-0.3,1.9-0.4c0.3,0,0.5,0.1,0.5,0.4c0,0.3-0.1,0.5-0.4,0.5c-0.6,0.1-1.2,0.2-1.8,0.4
						C20.4,31.1,20.3,31.1,20.3,31.1z M25.9,30.5C25.9,30.5,25.9,30.5,25.9,30.5c-0.7-0.1-1.3-0.1-1.9-0.1c-0.3,0-0.5-0.2-0.5-0.5
						c0-0.3,0.2-0.5,0.5-0.5c0.6,0,1.3,0,2,0.1c0.3,0,0.5,0.3,0.4,0.5C26.4,30.3,26.2,30.5,25.9,30.5z"/>
				</g>
				<g>
					<path fill="#C3D7DD" d="M39.5,34.5c-0.2,0-0.5,0-0.5-0.3c0-0.3,0.2-0.2,0.5-0.2c0,0,0,0,0,0c0.6,0,1.2-0.3,1.8-0.3
						c0.3,0,0.5,0,0.5,0.3c0,0.3-0.2,0.4-0.4,0.5C40.8,34.5,40.2,34.5,39.5,34.5z M37.6,34.4C37.6,34.4,37.5,34.4,37.6,34.4
						c-0.7-0.1-1.4-0.2-2-0.4c-0.3-0.1-0.4-0.3-0.3-0.6c0.1-0.3,0.3-0.4,0.6-0.3c0.6,0.2,1.2,0.3,1.8,0.4c0.3,0,0.4,0.3,0.4,0.5
						C38,34.2,37.8,34.4,37.6,34.4z M43.3,34c-0.2,0-0.4-0.1-0.5-0.4c-0.1-0.3,0.1-0.5,0.3-0.6c0.6-0.2,1.2-0.3,1.8-0.6
						c0.2-0.1,0.5,0,0.6,0.3c0.1,0.2,0,0.5-0.3,0.6c-0.6,0.2-1.2,0.4-1.9,0.6C43.3,34,43.3,34,43.3,34z M33.9,33.4
						c-0.1,0-0.1,0-0.2,0c-0.6-0.2-1.2-0.5-1.8-0.8c-0.2-0.1-0.3-0.4-0.2-0.6c0.1-0.2,0.4-0.3,0.6-0.2c0.5,0.3,1.1,0.6,1.7,0.8
						c0.2,0.1,0.4,0.4,0.3,0.6C34.3,33.3,34.1,33.4,33.9,33.4z M46.8,32.6c-0.2,0-0.3-0.1-0.4-0.2c-0.1-0.2,0-0.5,0.2-0.6
						c0.5-0.3,1.1-0.6,1.6-1c0.2-0.2,0.5-0.1,0.7,0.1c0.2,0.2,0.1,0.5-0.1,0.7c-0.5,0.4-1.1,0.7-1.7,1.1
						C47,32.6,46.9,32.6,46.8,32.6z M30.6,31.6c-0.1,0-0.2,0-0.3-0.1c-0.5-0.4-1-0.8-1.5-1.3c-0.2-0.2-0.2-0.5,0-0.7
						c0.2-0.2,0.5-0.2,0.7,0c0.4,0.4,0.9,0.8,1.4,1.2c0.2,0.2,0.3,0.5,0.1,0.7C30.9,31.5,30.7,31.6,30.6,31.6z M49.9,30.4
						c-0.1,0-0.3,0-0.3-0.1c-0.2-0.2-0.2-0.5,0-0.7c0.4-0.4,0.9-0.9,1.3-1.4c0.2-0.2,0.5-0.2,0.7-0.1c0.2,0.2,0.2,0.5,0.1,0.7
						c-0.4,0.5-0.9,1-1.3,1.4C50.1,30.3,50,30.4,49.9,30.4z M27.8,28.9c-0.1,0-0.3-0.1-0.4-0.2c-0.4-0.5-0.8-1-1.1-1.6
						c-0.1-0.2-0.1-0.5,0.2-0.7c0.2-0.1,0.5-0.1,0.7,0.2c0.3,0.5,0.7,1,1.1,1.5c0.2,0.2,0.1,0.5-0.1,0.7
						C28,28.9,27.9,28.9,27.8,28.9z M52.3,27.4c-0.1,0-0.2,0-0.2-0.1c-0.2-0.1-0.3-0.4-0.2-0.7c0.1-0.1,0.2-0.3,0.2-0.4
						c0.2-0.4,0.4-0.8,0.6-1.2c0.1-0.2,0.4-0.3,0.6-0.2c0.2,0.1,0.3,0.4,0.2,0.6c-0.2,0.4-0.4,0.9-0.7,1.3c-0.1,0.1-0.2,0.3-0.3,0.4
						C52.6,27.3,52.4,27.4,52.3,27.4z M25.8,25.7c-0.2,0-0.4-0.1-0.4-0.3c-0.3-0.6-0.5-1.2-0.7-1.8c-0.1-0.2,0.1-0.5,0.3-0.6
						c0.3-0.1,0.5,0.1,0.6,0.3c0.2,0.6,0.4,1.2,0.7,1.7c0.1,0.2,0,0.5-0.2,0.6C26,25.7,25.9,25.7,25.8,25.7z M53.8,24
						c0,0-0.1,0-0.1,0c-0.3-0.1-0.4-0.3-0.3-0.6c0.2-0.6,0.3-1.2,0.4-1.8c0-0.3,0.3-0.4,0.5-0.4c0.3,0,0.4,0.3,0.4,0.6
						c-0.1,0.6-0.3,1.3-0.5,1.9C54.2,23.8,54,24,53.8,24z M24.7,22.1c-0.2,0-0.4-0.2-0.5-0.4c-0.1-0.6-0.2-1.3-0.2-2
						c0-0.3,0.2-0.5,0.5-0.5c0,0,0,0,0,0c0.3,0,0.5,0.2,0.5,0.5c0,0.6,0.1,1.2,0.2,1.8C25.2,21.8,25.1,22,24.7,22.1
						C24.8,22.1,24.7,22.1,24.7,22.1z M54.5,20.2C54.5,20.2,54.5,20.2,54.5,20.2c-0.3,0-0.5-0.2-0.5-0.5c0-0.2,0-0.5,0-0.7
						c0-0.4,0-0.8,0-1.2c0-0.3,0.2-0.5,0.4-0.5c0.3,0,0.5,0.2,0.5,0.4c0,0.4,0,0.8,0,1.2c0,0.2,0,0.5,0,0.7
						C55,20,54.8,20.2,54.5,20.2z M24.5,18.3C24.5,18.3,24.5,18.3,24.5,18.3c-0.3,0-0.5-0.3-0.5-0.5c0.1-0.6,0.1-1.3,0.3-1.9
						c0.1-0.3,0.3-0.4,0.6-0.4c0.3,0.1,0.4,0.3,0.4,0.6c-0.1,0.6-0.2,1.2-0.3,1.8C25,18.1,24.8,18.3,24.5,18.3z M54.2,16.4
						c-0.2,0-0.4-0.2-0.5-0.4c-0.1-0.6-0.3-1.2-0.5-1.8c-0.1-0.2,0-0.5,0.3-0.6c0.2-0.1,0.5,0,0.6,0.3c0.2,0.6,0.4,1.3,0.5,1.9
						C54.7,16.1,54.6,16.4,54.2,16.4C54.3,16.4,54.2,16.4,54.2,16.4z M25.3,14.5c-0.1,0-0.1,0-0.2,0c-0.2-0.1-0.4-0.4-0.3-0.6
						c0.2-0.6,0.5-1.2,0.8-1.8c0.1-0.2,0.3-0.3,0.6-0.2c-0.2-0.1-0.2-0.4-0.1-0.6c0.3-0.6,0.7-1.1,1.1-1.6c0.2-0.2,0.5-0.3,0.7-0.1
						c0.2,0.2,0.2,0.5,0.1,0.7c-0.4,0.5-0.7,1-1,1.5c-0.1,0.2-0.3,0.3-0.5,0.2c0.2,0.1,0.2,0.4,0.1,0.6c-0.3,0.5-0.5,1.1-0.7,1.7
						C25.7,14.4,25.5,14.5,25.3,14.5z M53,12.8c-0.2,0-0.3-0.1-0.4-0.3C52.3,12,52,11.5,51.6,11c-0.1-0.2-0.1-0.5,0.1-0.7
						c0.2-0.1,0.5-0.1,0.7,0.1c0.4,0.5,0.7,1.1,1,1.7c0.1,0.2,0,0.5-0.2,0.6C53.1,12.8,53,12.8,53,12.8z M50.9,9.6
						c-0.1,0-0.3-0.1-0.4-0.2c-0.4-0.5-0.8-0.9-1.3-1.3C49,8,49,7.7,49.2,7.5c0.2-0.2,0.5-0.2,0.7,0c0.5,0.4,1,0.9,1.4,1.4
						c0.2,0.2,0.2,0.5,0,0.7C51.1,9.6,51,9.6,50.9,9.6z M28.8,8.9c-0.1,0-0.2,0-0.3-0.1c-0.2-0.2-0.2-0.5,0-0.7
						c0.5-0.5,1-0.9,1.5-1.3c0.2-0.2,0.5-0.1,0.7,0.1c0.2,0.2,0.1,0.5-0.1,0.7C30,8,29.6,8.4,29.1,8.8C29.1,8.9,28.9,8.9,28.8,8.9z
						 M48,7.1c-0.1,0-0.2,0-0.3-0.1c-0.3-0.2-0.6-0.4-1-0.6c-0.2-0.1-0.4-0.2-0.6-0.3C45.9,6,45.8,5.7,46,5.4
						c0.1-0.2,0.4-0.3,0.6-0.2c0.2,0.1,0.4,0.2,0.6,0.4c0.4,0.2,0.7,0.4,1,0.7c0.2,0.2,0.3,0.4,0.1,0.7C48.3,7,48.2,7.1,48,7.1z
						 M31.8,6.6c-0.2,0-0.3-0.1-0.4-0.2c-0.1-0.2-0.1-0.5,0.2-0.7c0.6-0.3,1.1-0.6,1.7-0.9c0.2-0.1,0.5,0,0.6,0.2
						c0.1,0.2,0,0.5-0.2,0.6c-0.6,0.2-1.1,0.5-1.6,0.8C32,6.6,31.9,6.6,31.8,6.6z M44.6,5.4c-0.1,0-0.1,0-0.2,0
						c-0.6-0.2-1.2-0.4-1.8-0.5c-0.3-0.1-0.4-0.3-0.4-0.6c0.1-0.3,0.3-0.4,0.6-0.4c0.6,0.1,1.3,0.3,1.9,0.6c0.2,0.1,0.4,0.4,0.3,0.6
						C45,5.2,44.8,5.4,44.6,5.4z M35.3,5.1c-0.2,0-0.4-0.1-0.5-0.3c-0.1-0.3,0.1-0.5,0.3-0.6c0.6-0.2,1.3-0.3,1.9-0.4
						c0.3,0,0.5,0.1,0.5,0.4c0,0.3-0.1,0.5-0.4,0.5c-0.6,0.1-1.2,0.2-1.8,0.4C35.4,5.1,35.3,5.1,35.3,5.1z M40.9,4.5
						C40.9,4.5,40.9,4.5,40.9,4.5c-0.7-0.1-1.3-0.1-1.9-0.1c-0.3,0-0.5-0.2-0.5-0.5c0-0.3,0.2-0.5,0.5-0.5c0.7,0,1.3,0,2,0.1
						c0.3,0,0.5,0.3,0.4,0.5C41.4,4.3,41.2,4.5,40.9,4.5z"/>
				</g>
			</g>
		</g>
	</g>
	<g>
		<g>
			<g>
				<path fill="#21CCE8" d="M19,40.5c-2.8,0-5.5-0.7-8-2.1C3.4,33.9,0.8,24.1,5.2,16.5c2.8-4.9,8.2-8,13.8-8c2.8,0,5.5,0.7,8,2.1
					c7.6,4.4,10.2,14.2,5.8,21.8C30,37.4,24.7,40.5,19,40.5z M19,10.4c-5,0-9.7,2.7-12.2,7C2.9,24.2,5.3,32.8,12,36.7
					c2.1,1.2,4.6,1.9,7,1.9c5,0,9.7-2.7,12.2-7c3.9-6.7,1.6-15.3-5.1-19.2C23.9,11.1,21.5,10.4,19,10.4z"/>
			</g>
			<g>
				<path fill="#21CCE8" d="M45,55.5c-2.8,0-5.5-0.7-8-2.1c-3.7-2.1-6.3-5.6-7.4-9.7c-1.1-4.1-0.5-8.4,1.6-12.1
					c2.8-4.9,8.1-8,13.8-8c2.8,0,5.5,0.7,8,2.1c7.6,4.4,10.2,14.2,5.8,21.8C56,52.4,50.7,55.5,45,55.5z M45,25.4
					c-5,0-9.7,2.7-12.2,7c-1.9,3.3-2.4,7-1.4,10.7s3.3,6.7,6.6,8.5c2.1,1.2,4.6,1.9,7,1.9c5,0,9.7-2.7,12.2-7
					c3.9-6.7,1.6-15.3-5.1-19.2C49.9,26.1,47.5,25.4,45,25.4z"/>
			</g>
		</g>
		<g>
			<g>
				<g>
					<path fill="#21CCE8" d="M32,33c-8.8,0-16-7.2-16-16c0-8.8,7.2-16,16-16c8.8,0,16,7.2,16,16C48,25.8,40.8,33,32,33z M32,2.9
						c-7.8,0-14.1,6.3-14.1,14.1c0,7.8,6.3,14.1,14.1,14.1c7.8,0,14.1-6.3,14.1-14.1C46.1,9.2,39.8,2.9,32,2.9z"/>
				</g>
				<g>
					<path fill="#21CCE8" d="M32,63c-8.8,0-16-7.2-16-16c0-8.8,7.2-16,16-16c8.8,0,16,7.2,16,16C48,55.8,40.8,63,32,63z M32,32.9
						c-7.8,0-14.1,6.3-14.1,14.1c0,7.8,6.3,14.1,14.1,14.1c7.8,0,14.1-6.3,14.1-14.1C46.1,39.3,39.8,32.9,32,32.9z"/>
				</g>
			</g>
			<g>
				<g>
					<path fill="#21CCE8" d="M19,55.5c-5.7,0-11-3.1-13.8-8C0.8,39.9,3.4,30.1,11,25.7c2.4-1.4,5.2-2.1,8-2.1c5.7,0,11,3.1,13.8,8
						c4.4,7.6,1.8,17.4-5.8,21.8C24.6,54.7,21.8,55.5,19,55.5z M19,25.4c-2.5,0-4.9,0.7-7,1.9c-6.7,3.9-9,12.5-5.1,19.2
						c2.5,4.3,7.2,7,12.2,7c2.5,0,4.9-0.7,7-1.9c6.7-3.9,9-12.5,5.1-19.2C28.7,28.1,24,25.4,19,25.4z"/>
				</g>
				<g>
					<path fill="#21CCE8" d="M45,40.5c-5.7,0-11-3.1-13.8-8c-2.1-3.7-2.7-8-1.6-12.1c1.1-4.1,3.7-7.6,7.4-9.7c2.4-1.4,5.2-2.1,8-2.1
						c5.7,0,11,3.1,13.8,8c2.1,3.7,2.7,8,1.6,12.1c-1.1,4.1-3.7,7.6-7.4,9.7C50.6,39.7,47.8,40.5,45,40.5z M45,10.4
						c-2.5,0-4.9,0.7-7,1.9c-3.3,1.9-5.6,4.9-6.6,8.5c-1,3.6-0.5,7.4,1.4,10.7c2.5,4.3,7.2,7,12.2,7c2.5,0,4.9-0.7,7-1.9
						c3.3-1.9,5.6-4.9,6.6-8.5c1-3.6,0.5-7.4-1.4-10.7C54.7,13.1,50,10.4,45,10.4z"/>
				</g>
			</g>
		</g>
	</g>
</g>
</svg>
