<?xml version="1.0" encoding="utf-8"?>
<!-- Generator: Adobe Illustrator 16.0.0, SVG Export Plug-In . SVG Version: 6.00 Build 0)  -->
<!DOCTYPE svg PUBLIC "-//W3C//DTD SVG 1.1//EN" "http://www.w3.org/Graphics/SVG/1.1/DTD/svg11.dtd">
<svg version="1.1" id="Layer_1" xmlns="http://www.w3.org/2000/svg" xmlns:xlink="http://www.w3.org/1999/xlink" x="0px" y="0px"
	 width="64px" height="64px" viewBox="0 0 64 64" enable-background="new 0 0 64 64" xml:space="preserve">
<g>
	<path fill="#C4BA9D" d="M63,50.2c0,1-0.8,1.8-1.8,1.8H2.8c-1,0-1.8-0.8-1.8-1.8V14.8c0-1,0.8-1.8,1.8-1.8h58.3c1,0,1.8,0.8,1.8,1.8
		V50.2z"/>
	<path fill="#FFF8EB" d="M63,49.2c0,1-0.8,1.8-1.8,1.8H2.8c-1,0-1.8-0.8-1.8-1.8V13.8c0-1,0.8-1.8,1.8-1.8h58.3c1,0,1.8,0.8,1.8,1.8
		V49.2z"/>
	<path fill="#F4EED7" d="M1,13.8c0-1,0.8-1.8,1.8-1.8h58.3c1,0,1.8,0.8,1.8,1.8v35.3c0,1-0.8,1.8-1.8,1.8"/>
	<rect x="49" y="17" fill="#FFB40D" width="9" height="9"/>
	<g>
		<path fill="#CEC5AA" d="M57,39.5c0,0.3-0.2,0.5-0.5,0.5h-23c-0.3,0-0.5-0.2-0.5-0.5l0,0c0-0.3,0.2-0.5,0.5-0.5h23
			C56.8,39,57,39.2,57,39.5L57,39.5z"/>
		<path fill="#CEC5AA" d="M57,43.5c0,0.3-0.2,0.5-0.5,0.5h-23c-0.3,0-0.5-0.2-0.5-0.5l0,0c0-0.3,0.2-0.5,0.5-0.5h23
			C56.8,43,57,43.2,57,43.5L57,43.5z"/>
		<path fill="#CEC5AA" d="M57,47.5c0,0.3-0.2,0.5-0.5,0.5h-23c-0.3,0-0.5-0.2-0.5-0.5l0,0c0-0.3,0.2-0.5,0.5-0.5h23
			C56.8,47,57,47.2,57,47.5L57,47.5z"/>
	</g>
	<g>
		<g>
			<g>
				<g>
					<g>
						<path fill="#D81665" d="M17.9,35c1.4,0.4,2.5,1.5,2.6,2.9c0,0.1,0.1,0.2,0.3,0.2c0.1,0.1,0.3,0,0.4-0.1
							c0.8-1.1,2.2-1.5,3.7-1.1c1.8,0.5,2.9,2.2,2.5,3.8c-0.2,0.6-0.5,1.1-1,1.5l0,0c0,0,0,0,0,0l-8.1,5.5L14,38.8c0,0,0,0,0,0
							c0,0,0,0,0,0c-0.2-0.6-0.3-1.2-0.1-1.8C14.3,35.4,16.1,34.5,17.9,35z"/>
					</g>
				</g>
				<g>
					<path fill="#B20B5F" d="M20.8,38.1c0.1,0.1,0.3,0,0.4-0.1c0.8-1.1,2.2-1.5,3.7-1.1c1.8,0.5,2.9,2.2,2.5,3.8
						c-0.2,0.6-0.5,1.1-1,1.5l0,0c0,0,0,0,0,0l-8.1,5.5"/>
				</g>
			</g>
		</g>
		<g>
			<g>
				<g>
					<g>
						<path fill="#D81665" d="M21.9,26.4c0.8,0.4,1.4,1.2,1.3,2.1c0,0.1,0.1,0.2,0.1,0.2c0.1,0.1,0.2,0.1,0.2,0
							c0.6-0.6,1.6-0.7,2.4-0.3c1.1,0.5,1.6,1.7,1.2,2.6c-0.2,0.3-0.4,0.6-0.8,0.8l0,0c0,0,0,0,0,0l-5.7,2.6l-1.6-6c0,0,0,0,0,0
							c0,0,0,0,0,0c-0.1-0.4,0-0.8,0.1-1.1C19.6,26.3,20.9,25.9,21.9,26.4z"/>
					</g>
				</g>
				<g>
					<path fill="#B20B5F" d="M23.4,28.6c0.1,0.1,0.2,0.1,0.2,0c0.6-0.6,1.6-0.7,2.4-0.3c1.1,0.5,1.6,1.7,1.2,2.6
						c-0.2,0.3-0.4,0.6-0.8,0.8l0,0c0,0,0,0,0,0l-5.7,2.6"/>
				</g>
			</g>
		</g>
		<g>
			<g>
				<g>
					<g>
						<path fill="#D81665" d="M6.7,24c1.2-0.6,2.6-0.5,3.5,0.3c0.1,0.1,0.2,0.1,0.3,0c0.1,0,0.2-0.1,0.2-0.3c-0.1-1.2,0.5-2.4,1.7-3
							c1.5-0.8,3.3-0.3,4,1c0.3,0.5,0.3,1,0.2,1.6l0,0c0,0,0,0,0,0l-2,8.7L6.5,29c0,0,0,0,0,0c0,0,0,0,0,0c-0.5-0.2-0.9-0.6-1.2-1.1
							C4.5,26.5,5.2,24.8,6.7,24z"/>
					</g>
				</g>
				<g>
					<path fill="#B20B5F" d="M10.5,24.3c0.1,0,0.2-0.1,0.2-0.3c-0.1-1.2,0.5-2.4,1.7-3c1.5-0.8,3.3-0.3,4,1c0.3,0.5,0.3,1,0.2,1.6
						l0,0c0,0,0,0,0,0l-2,8.7"/>
				</g>
			</g>
		</g>
		<circle fill="#B20B5F" cx="12.9" cy="45.9" r="0.7"/>
		<circle fill="#B20B5F" cx="20.1" cy="23.2" r="1"/>
		<circle fill="#B20B5F" cx="16.9" cy="17.2" r="1.1"/>
		<path fill="#B20B5F" d="M11.7,38.5c0,1.7-1.4,3-3,3c-1.7,0-3-1.4-3-3c0-1.7,1.4-3,3-3C10.4,35.5,11.7,36.8,11.7,38.5z"/>
	</g>
	<path fill="#CEC5AA" d="M11,16.1c0,0.5-0.4,0.9-0.9,0.9H4.9C4.4,17,4,16.6,4,16.1v-0.1C4,15.4,4.4,15,4.9,15h5.1
		c0.5,0,0.9,0.4,0.9,0.9V16.1z"/>
	<circle opacity="0.6" fill="#3EDDDD" cx="48.6" cy="25.7" r="6.9"/>
	<rect x="33" y="34" fill="#CEC5AA" width="6" height="2"/>
</g>
</svg>
