<?xml version="1.0" encoding="utf-8"?>
<!-- Generator: Adobe Illustrator 16.0.0, SVG Export Plug-In . SVG Version: 6.00 Build 0)  -->
<!DOCTYPE svg PUBLIC "-//W3C//DTD SVG 1.1//EN" "http://www.w3.org/Graphics/SVG/1.1/DTD/svg11.dtd">
<svg version="1.1" xmlns="http://www.w3.org/2000/svg" xmlns:xlink="http://www.w3.org/1999/xlink" x="0px" y="0px" width="65px"
	 height="65px" viewBox="0 0 65 65" enable-background="new 0 0 65 65" xml:space="preserve">
<g id="Layer_1">
	<g>
		<g>
			<path fill="#B2A47D" d="M48.45,28.906h-31.9c-2.606,0-4.727-2.119-4.727-4.727V6.064c0-2.607,2.12-4.727,4.727-4.727h31.9
				c2.607,0,4.727,2.119,4.727,4.727V24.18C53.177,26.787,51.058,28.906,48.45,28.906z M16.55,6.064V24.18h31.904L48.45,6.064H16.55
				z"/>
		</g>
		<path fill="#9E906C" d="M48.45,5.473h-31.9c-2.606,0-4.727,2.121-4.727,4.727v13.98c0,2.607,2.12,4.727,4.727,4.727h31.9
			c2.607,0,4.727-2.119,4.727-4.727v-13.98C53.177,7.594,51.058,5.473,48.45,5.473z M48.454,28.316H16.55V24.18v-13.98V6.064h31.9
			l0.004,18.115h-0.001L48.454,28.316z"/>
		<path fill="#935116" d="M59.527,61.299c0,1.305-1.06,2.363-2.363,2.363H7.835c-1.305,0-2.361-1.059-2.361-2.363l-4.727-35.15
			c0-1.305,1.057-2.363,2.363-2.363H61.89c1.306,0,2.363,1.059,2.363,2.363L59.527,61.299z"/>
		<path fill="#7C400F" d="M0.747,26.148c0-1.305,1.057-2.363,2.363-2.363H61.89c1.306,0,2.363,1.059,2.363,2.363l-4.726,35.15
			c0,1.305-1.06,2.363-2.363,2.363"/>
		<path fill="#A85E22" d="M64.5,21.816c0,1.307-1.06,2.363-2.364,2.363H2.863c-1.304,0-2.363-1.057-2.363-2.363v-2.559
			c0-1.305,1.06-2.363,2.363-2.363h59.272c1.305,0,2.364,1.059,2.364,2.363V21.816z"/>
		<line fill="#C47337" x1="62.136" y1="24.18" x2="2.863" y2="24.18"/>
		<path fill="#C47337" d="M0.5,19.258c0-1.305,1.06-2.363,2.363-2.363h59.272c1.305,0,2.364,1.059,2.364,2.363"/>
		<g>
			<path fill="#B26328" d="M6.653,30.283c0,0.477-0.386,0.861-0.86,0.861H2.349c-0.477,0-0.863-0.385-0.863-0.861l0,0
				c0-0.477,0.387-0.861,0.863-0.861h3.444C6.268,29.422,6.653,29.807,6.653,30.283L6.653,30.283z"/>
			<path fill="#B26328" d="M14.776,30.283c0,0.477-0.385,0.861-0.861,0.861h-3.443c-0.477,0-0.863-0.385-0.863-0.861l0,0
				c0-0.477,0.387-0.861,0.863-0.861h3.443C14.392,29.422,14.776,29.807,14.776,30.283L14.776,30.283z"/>
			<path fill="#B26328" d="M22.899,30.283c0,0.477-0.386,0.861-0.861,0.861h-3.444c-0.477,0-0.861-0.385-0.861-0.861l0,0
				c0-0.477,0.385-0.861,0.861-0.861h3.444C22.514,29.422,22.899,29.807,22.899,30.283L22.899,30.283z"/>
			<path fill="#B26328" d="M31.021,30.283c0,0.477-0.385,0.861-0.859,0.861h-3.445c-0.476,0-0.86-0.385-0.86-0.861l0,0
				c0-0.477,0.385-0.861,0.86-0.861h3.445C30.636,29.422,31.021,29.807,31.021,30.283L31.021,30.283z"/>
			<path fill="#B26328" d="M39.144,30.283c0,0.477-0.385,0.861-0.859,0.861h-3.445c-0.476,0-0.86-0.385-0.86-0.861l0,0
				c0-0.477,0.385-0.861,0.86-0.861h3.445C38.759,29.422,39.144,29.807,39.144,30.283L39.144,30.283z"/>
			<path fill="#B26328" d="M47.268,30.283c0,0.477-0.385,0.861-0.86,0.861h-3.445c-0.477,0-0.861-0.385-0.861-0.861l0,0
				c0-0.477,0.385-0.861,0.861-0.861h3.445C46.883,29.422,47.268,29.807,47.268,30.283L47.268,30.283z"/>
			<path fill="#B26328" d="M55.392,30.283c0,0.477-0.387,0.861-0.861,0.861h-3.444c-0.478,0-0.862-0.385-0.862-0.861l0,0
				c0-0.477,0.385-0.861,0.862-0.861h3.444C55.005,29.422,55.392,29.807,55.392,30.283L55.392,30.283z"/>
			<path fill="#B26328" d="M63.514,30.283c0,0.477-0.386,0.861-0.861,0.861h-3.443c-0.477,0-0.862-0.385-0.862-0.861l0,0
				c0-0.477,0.386-0.861,0.862-0.861h3.443C63.128,29.422,63.514,29.807,63.514,30.283L63.514,30.283z"/>
		</g>
		<g>
			<path fill="#B26328" d="M10.715,35.01c0,0.477-0.386,0.861-0.862,0.861H6.409c-0.475,0-0.861-0.385-0.861-0.861l0,0
				c0-0.477,0.387-0.861,0.861-0.861h3.443C10.329,34.148,10.715,34.533,10.715,35.01L10.715,35.01z"/>
			<path fill="#B26328" d="M18.838,35.01c0,0.477-0.386,0.861-0.862,0.861h-3.442c-0.476,0-0.862-0.385-0.862-0.861l0,0
				c0-0.477,0.387-0.861,0.862-0.861h3.442C18.452,34.148,18.838,34.533,18.838,35.01L18.838,35.01z"/>
			<path fill="#B26328" d="M26.961,35.01c0,0.477-0.386,0.861-0.86,0.861h-3.445c-0.477,0-0.861-0.385-0.861-0.861l0,0
				c0-0.477,0.385-0.861,0.861-0.861h3.445C26.575,34.148,26.961,34.533,26.961,35.01L26.961,35.01z"/>
			<path fill="#B26328" d="M35.083,35.01c0,0.477-0.385,0.861-0.859,0.861h-3.445c-0.477,0-0.861-0.385-0.861-0.861l0,0
				c0-0.477,0.385-0.861,0.861-0.861h3.445C34.698,34.148,35.083,34.533,35.083,35.01L35.083,35.01z"/>
			<path fill="#B26328" d="M43.206,35.01c0,0.477-0.385,0.861-0.86,0.861h-3.444c-0.477,0-0.863-0.385-0.863-0.861l0,0
				c0-0.477,0.387-0.861,0.863-0.861h3.444C42.821,34.148,43.206,34.533,43.206,35.01L43.206,35.01z"/>
			<path fill="#B26328" d="M51.329,35.01c0,0.477-0.386,0.861-0.861,0.861h-3.443c-0.477,0-0.863-0.385-0.863-0.861l0,0
				c0-0.477,0.387-0.861,0.863-0.861h3.443C50.943,34.148,51.329,34.533,51.329,35.01L51.329,35.01z"/>
			<path fill="#B26328" d="M59.452,35.01c0,0.477-0.386,0.861-0.861,0.861h-3.443c-0.477,0-0.862-0.385-0.862-0.861l0,0
				c0-0.477,0.386-0.861,0.862-0.861h3.443C59.066,34.148,59.452,34.533,59.452,35.01L59.452,35.01z"/>
		</g>
		<g>
			<path fill="#B26328" d="M14.776,39.734c0,0.477-0.385,0.863-0.861,0.863h-3.443c-0.477,0-0.863-0.387-0.863-0.863l0,0
				c0-0.475,0.387-0.859,0.863-0.859h3.443C14.392,38.875,14.776,39.26,14.776,39.734L14.776,39.734z"/>
			<path fill="#B26328" d="M22.899,39.734c0,0.477-0.386,0.863-0.861,0.863h-3.444c-0.477,0-0.861-0.387-0.861-0.863l0,0
				c0-0.475,0.385-0.859,0.861-0.859h3.444C22.514,38.875,22.899,39.26,22.899,39.734L22.899,39.734z"/>
			<path fill="#B26328" d="M31.021,39.734c0,0.477-0.385,0.863-0.859,0.863h-3.445c-0.476,0-0.86-0.387-0.86-0.863l0,0
				c0-0.475,0.385-0.859,0.86-0.859h3.445C30.636,38.875,31.021,39.26,31.021,39.734L31.021,39.734z"/>
			<path fill="#B26328" d="M39.144,39.734c0,0.477-0.385,0.863-0.859,0.863h-3.445c-0.476,0-0.86-0.387-0.86-0.863l0,0
				c0-0.475,0.385-0.859,0.86-0.859h3.445C38.759,38.875,39.144,39.26,39.144,39.734L39.144,39.734z"/>
			<path fill="#B26328" d="M47.268,39.734c0,0.477-0.385,0.863-0.86,0.863h-3.445c-0.477,0-0.861-0.387-0.861-0.863l0,0
				c0-0.475,0.385-0.859,0.861-0.859h3.445C46.883,38.875,47.268,39.26,47.268,39.734L47.268,39.734z"/>
			<path fill="#B26328" d="M55.392,39.734c0,0.477-0.387,0.863-0.861,0.863h-3.444c-0.478,0-0.862-0.387-0.862-0.863l0,0
				c0-0.475,0.385-0.859,0.862-0.859h3.444C55.005,38.875,55.392,39.26,55.392,39.734L55.392,39.734z"/>
		</g>
		<g>
			<path fill="#B26328" d="M18.838,44.461c0,0.477-0.386,0.861-0.862,0.861h-3.442c-0.476,0-0.862-0.385-0.862-0.861l0,0
				c0-0.475,0.387-0.861,0.862-0.861h3.442C18.452,43.6,18.838,43.986,18.838,44.461L18.838,44.461z"/>
			<path fill="#B26328" d="M26.961,44.461c0,0.477-0.386,0.861-0.86,0.861h-3.445c-0.477,0-0.861-0.385-0.861-0.861l0,0
				c0-0.475,0.385-0.861,0.861-0.861h3.445C26.575,43.6,26.961,43.986,26.961,44.461L26.961,44.461z"/>
			<path fill="#B26328" d="M35.083,44.461c0,0.477-0.385,0.861-0.859,0.861h-3.445c-0.477,0-0.861-0.385-0.861-0.861l0,0
				c0-0.475,0.385-0.861,0.861-0.861h3.445C34.698,43.6,35.083,43.986,35.083,44.461L35.083,44.461z"/>
			<path fill="#B26328" d="M43.206,44.461c0,0.477-0.385,0.861-0.86,0.861h-3.444c-0.477,0-0.863-0.385-0.863-0.861l0,0
				c0-0.475,0.387-0.861,0.863-0.861h3.444C42.821,43.6,43.206,43.986,43.206,44.461L43.206,44.461z"/>
			<path fill="#B26328" d="M51.329,44.461c0,0.477-0.386,0.861-0.861,0.861h-3.443c-0.477,0-0.863-0.385-0.863-0.861l0,0
				c0-0.475,0.387-0.861,0.863-0.861h3.443C50.943,43.6,51.329,43.986,51.329,44.461L51.329,44.461z"/>
		</g>
		<g>
			<path fill="#B26328" d="M22.899,49.188c0,0.477-0.386,0.861-0.861,0.861h-3.444c-0.477,0-0.861-0.385-0.861-0.861l0,0
				c0-0.477,0.385-0.861,0.861-0.861h3.444C22.514,48.326,22.899,48.711,22.899,49.188L22.899,49.188z"/>
			<path fill="#B26328" d="M31.021,49.188c0,0.477-0.385,0.861-0.859,0.861h-3.445c-0.476,0-0.86-0.385-0.86-0.861l0,0
				c0-0.477,0.385-0.861,0.86-0.861h3.445C30.636,48.326,31.021,48.711,31.021,49.188L31.021,49.188z"/>
			<path fill="#B26328" d="M39.144,49.188c0,0.477-0.385,0.861-0.859,0.861h-3.445c-0.476,0-0.86-0.385-0.86-0.861l0,0
				c0-0.477,0.385-0.861,0.86-0.861h3.445C38.759,48.326,39.144,48.711,39.144,49.188L39.144,49.188z"/>
			<path fill="#B26328" d="M47.268,49.188c0,0.477-0.385,0.861-0.86,0.861h-3.445c-0.477,0-0.861-0.385-0.861-0.861l0,0
				c0-0.477,0.385-0.861,0.861-0.861h3.445C46.883,48.326,47.268,48.711,47.268,49.188L47.268,49.188z"/>
		</g>
		<g>
			<path fill="#B26328" d="M26.961,53.914c0,0.477-0.386,0.861-0.86,0.861h-3.445c-0.477,0-0.861-0.385-0.861-0.861l0,0
				c0-0.477,0.385-0.861,0.861-0.861h3.445C26.575,53.053,26.961,53.438,26.961,53.914L26.961,53.914z"/>
			<path fill="#B26328" d="M35.083,53.914c0,0.477-0.385,0.861-0.859,0.861h-3.445c-0.477,0-0.861-0.385-0.861-0.861l0,0
				c0-0.477,0.385-0.861,0.861-0.861h3.445C34.698,53.053,35.083,53.438,35.083,53.914L35.083,53.914z"/>
			<path fill="#B26328" d="M43.206,53.914c0,0.477-0.385,0.861-0.86,0.861h-3.444c-0.477,0-0.863-0.385-0.863-0.861l0,0
				c0-0.477,0.387-0.861,0.863-0.861h3.444C42.821,53.053,43.206,53.438,43.206,53.914L43.206,53.914z"/>
		</g>
		<g>
			<path fill="#B26328" d="M31.021,58.639c0,0.477-0.385,0.863-0.859,0.863h-3.445c-0.476,0-0.86-0.387-0.86-0.863l0,0
				c0-0.475,0.385-0.859,0.86-0.859h3.445C30.636,57.779,31.021,58.164,31.021,58.639L31.021,58.639z"/>
			<path fill="#B26328" d="M39.144,58.639c0,0.477-0.385,0.863-0.859,0.863h-3.445c-0.476,0-0.86-0.387-0.86-0.863l0,0
				c0-0.475,0.385-0.859,0.86-0.859h3.445C38.759,57.779,39.144,58.164,39.144,58.639L39.144,58.639z"/>
		</g>
		<path fill="#C47337" d="M39.302,33.32c0,1.477-1.199,2.676-2.676,2.676h-8.252c-1.477,0-2.676-1.199-2.676-2.676v-9.812
			c0-1.479,1.199-2.676,2.676-2.676h8.252c1.477,0,2.676,1.197,2.676,2.676V33.32z"/>
		<path fill="#D17F47" d="M36.626,20.832h-8.252c-1.477,0-2.676,1.197-2.676,2.676v6.07c0,1.479,1.199,2.676,2.676,2.676h8.252
			c1.477,0,2.676-1.197,2.676-2.676v-6.07C39.302,22.029,38.103,20.832,36.626,20.832z"/>
		<circle fill="#C6BA95" cx="32.499" cy="26.148" r="3.102"/>
		<path fill="#B2A47D" d="M30.308,23.957c1.209-1.213,3.176-1.213,4.385,0c1.212,1.209,1.212,3.176,0,4.385"/>
		<g>
			<g>
				<path fill="#D17F47" d="M4.194,22.309c0,0.109-0.088,0.197-0.196,0.197l0,0c-0.108,0-0.195-0.088-0.195-0.197v-3.545
					c0-0.107,0.087-0.195,0.195-0.195l0,0c0.108,0,0.196,0.088,0.196,0.195V22.309z"/>
				<path fill="#D17F47" d="M5.771,22.309c0,0.109-0.088,0.197-0.197,0.197l0,0c-0.107,0-0.197-0.088-0.197-0.197v-3.545
					c0-0.107,0.09-0.195,0.197-0.195l0,0c0.109,0,0.197,0.088,0.197,0.195V22.309z"/>
				<path fill="#D17F47" d="M7.345,22.309c0,0.109-0.088,0.197-0.196,0.197l0,0c-0.108,0-0.196-0.088-0.196-0.197v-3.545
					c0-0.107,0.088-0.195,0.196-0.195l0,0c0.108,0,0.196,0.088,0.196,0.195V22.309z"/>
				<path fill="#D17F47" d="M8.921,22.309c0,0.109-0.088,0.197-0.195,0.197l0,0c-0.109,0-0.199-0.088-0.199-0.197v-3.545
					c0-0.107,0.09-0.195,0.199-0.195l0,0c0.107,0,0.195,0.088,0.195,0.195V22.309z"/>
				<path fill="#D17F47" d="M10.493,22.309c0,0.109-0.088,0.197-0.195,0.197l0,0c-0.109,0-0.195-0.088-0.195-0.197v-3.545
					c0-0.107,0.086-0.195,0.195-0.195l0,0c0.107,0,0.195,0.088,0.195,0.195V22.309z"/>
				<path fill="#D17F47" d="M12.069,22.309c0,0.109-0.088,0.197-0.195,0.197l0,0c-0.107,0-0.199-0.088-0.199-0.197v-3.545
					c0-0.107,0.092-0.195,0.199-0.195l0,0c0.107,0,0.195,0.088,0.195,0.195V22.309z"/>
				<path fill="#D17F47" d="M13.644,22.309c0,0.109-0.086,0.197-0.195,0.197l0,0c-0.109,0-0.197-0.088-0.197-0.197v-3.545
					c0-0.107,0.088-0.195,0.197-0.195l0,0c0.109,0,0.195,0.088,0.195,0.195V22.309z"/>
				<path fill="#D17F47" d="M15.22,22.309c0,0.109-0.088,0.197-0.195,0.197l0,0c-0.108,0-0.199-0.088-0.199-0.197v-3.545
					c0-0.107,0.091-0.195,0.199-0.195l0,0c0.107,0,0.195,0.088,0.195,0.195V22.309z"/>
				<path fill="#D17F47" d="M16.794,22.309c0,0.109-0.088,0.197-0.196,0.197l0,0c-0.108,0-0.196-0.088-0.196-0.197v-3.545
					c0-0.107,0.088-0.195,0.196-0.195l0,0c0.108,0,0.196,0.088,0.196,0.195V22.309z"/>
				<path fill="#D17F47" d="M18.37,22.309c0,0.109-0.088,0.197-0.196,0.197l0,0c-0.108,0-0.198-0.088-0.198-0.197v-3.545
					c0-0.107,0.09-0.195,0.198-0.195l0,0c0.108,0,0.196,0.088,0.196,0.195V22.309z"/>
				<path fill="#D17F47" d="M19.944,22.309c0,0.109-0.088,0.197-0.196,0.197l0,0c-0.108,0-0.196-0.088-0.196-0.197v-3.545
					c0-0.107,0.088-0.195,0.196-0.195l0,0c0.108,0,0.196,0.088,0.196,0.195V22.309z"/>
				<path fill="#D17F47" d="M21.521,22.309c0,0.109-0.088,0.197-0.196,0.197l0,0c-0.108,0-0.198-0.088-0.198-0.197v-3.545
					c0-0.107,0.09-0.195,0.198-0.195l0,0c0.108,0,0.196,0.088,0.196,0.195V22.309z"/>
				<path fill="#D17F47" d="M23.094,22.309c0,0.109-0.087,0.197-0.195,0.197l0,0c-0.109,0-0.196-0.088-0.196-0.197v-3.545
					c0-0.107,0.087-0.195,0.196-0.195l0,0c0.108,0,0.195,0.088,0.195,0.195V22.309z"/>
			</g>
			<g>
				<path fill="#D17F47" d="M42.298,22.309c0,0.109-0.088,0.197-0.195,0.197l0,0c-0.109,0-0.197-0.088-0.197-0.197v-3.545
					c0-0.107,0.088-0.195,0.197-0.195l0,0c0.107,0,0.195,0.088,0.195,0.195V22.309z"/>
				<path fill="#D17F47" d="M43.874,22.309c0,0.109-0.088,0.197-0.196,0.197l0,0c-0.108,0-0.198-0.088-0.198-0.197v-3.545
					c0-0.107,0.09-0.195,0.198-0.195l0,0c0.108,0,0.196,0.088,0.196,0.195V22.309z"/>
				<path fill="#D17F47" d="M45.448,22.309c0,0.109-0.088,0.197-0.197,0.197l0,0c-0.107,0-0.195-0.088-0.195-0.197v-3.545
					c0-0.107,0.088-0.195,0.195-0.195l0,0c0.109,0,0.197,0.088,0.197,0.195V22.309z"/>
				<path fill="#D17F47" d="M47.024,22.309c0,0.109-0.088,0.197-0.196,0.197l0,0c-0.108,0-0.198-0.088-0.198-0.197v-3.545
					c0-0.107,0.09-0.195,0.198-0.195l0,0c0.108,0,0.196,0.088,0.196,0.195V22.309z"/>
				<path fill="#D17F47" d="M48.598,22.309c0,0.109-0.087,0.197-0.196,0.197l0,0c-0.107,0-0.195-0.088-0.195-0.197v-3.545
					c0-0.107,0.088-0.195,0.195-0.195l0,0c0.109,0,0.196,0.088,0.196,0.195V22.309z"/>
				<path fill="#D17F47" d="M50.174,22.309c0,0.109-0.087,0.197-0.195,0.197l0,0c-0.109,0-0.199-0.088-0.199-0.197v-3.545
					c0-0.107,0.09-0.195,0.199-0.195l0,0c0.108,0,0.195,0.088,0.195,0.195V22.309z"/>
				<path fill="#D17F47" d="M51.748,22.309c0,0.109-0.088,0.197-0.196,0.197l0,0c-0.108,0-0.196-0.088-0.196-0.197v-3.545
					c0-0.107,0.088-0.195,0.196-0.195l0,0c0.108,0,0.196,0.088,0.196,0.195V22.309z"/>
				<path fill="#D17F47" d="M53.324,22.309c0,0.109-0.088,0.197-0.196,0.197l0,0c-0.108,0-0.198-0.088-0.198-0.197v-3.545
					c0-0.107,0.09-0.195,0.198-0.195l0,0c0.108,0,0.196,0.088,0.196,0.195V22.309z"/>
				<path fill="#D17F47" d="M54.898,22.309c0,0.109-0.088,0.197-0.196,0.197l0,0c-0.108,0-0.196-0.088-0.196-0.197v-3.545
					c0-0.107,0.088-0.195,0.196-0.195l0,0c0.108,0,0.196,0.088,0.196,0.195V22.309z"/>
				<path fill="#D17F47" d="M56.474,22.309c0,0.109-0.087,0.197-0.195,0.197l0,0c-0.108,0-0.199-0.088-0.199-0.197v-3.545
					c0-0.107,0.091-0.195,0.199-0.195l0,0c0.108,0,0.195,0.088,0.195,0.195V22.309z"/>
				<path fill="#D17F47" d="M58.048,22.309c0,0.109-0.088,0.197-0.196,0.197l0,0c-0.108,0-0.196-0.088-0.196-0.197v-3.545
					c0-0.107,0.088-0.195,0.196-0.195l0,0c0.108,0,0.196,0.088,0.196,0.195V22.309z"/>
				<path fill="#D17F47" d="M59.624,22.309c0,0.109-0.088,0.197-0.197,0.197l0,0c-0.107,0-0.197-0.088-0.197-0.197v-3.545
					c0-0.107,0.09-0.195,0.197-0.195l0,0c0.109,0,0.197,0.088,0.197,0.195V22.309z"/>
				<path fill="#D17F47" d="M61.198,22.309c0,0.109-0.088,0.197-0.196,0.197l0,0c-0.108,0-0.196-0.088-0.196-0.197v-3.545
					c0-0.107,0.088-0.195,0.196-0.195l0,0c0.108,0,0.196,0.088,0.196,0.195V22.309z"/>
			</g>
		</g>
	</g>
</g>
<g id="nyt_x5F_exporter_x5F_info" display="none">
</g>
</svg>
