<?xml version="1.0" encoding="utf-8"?>
<!-- Generator: Adobe Illustrator 16.0.0, SVG Export Plug-In . SVG Version: 6.00 Build 0)  -->
<!DOCTYPE svg PUBLIC "-//W3C//DTD SVG 1.1//EN" "http://www.w3.org/Graphics/SVG/1.1/DTD/svg11.dtd">
<svg version="1.1" id="Layer_1" xmlns="http://www.w3.org/2000/svg" xmlns:xlink="http://www.w3.org/1999/xlink" x="0px" y="0px"
	 width="64px" height="64px" viewBox="0 0 64 64" enable-background="new 0 0 64 64" xml:space="preserve">
<g>
	<polygon fill="#68D1EA" points="3.5,57.9 24.9,36.5 34.7,46.4 37.1,44 51,57.9 55.9,53 61.2,58.4 58.2,59.9 5.7,59.4 	"/>
	<polygon fill="#27A0D6" points="3.5,57.9 24.9,36.5 30.9,50.3 37.1,44 48.9,60.6 55.9,53 57.5,58.4 58.2,59.9 5.7,59.4 	"/>
	<g>
		<path fill="#272B2B" d="M33.4,27.9c0,0.6-0.4,1-1,1h-0.8c-0.6,0-1-0.4-1-1v-4.4c0-0.6,0.4-1,1-1h0.8c0.6,0,1,0.4,1,1V27.9z"/>
		<path fill="#4A4F4F" d="M33.4,24.8c0,0.6-0.4,1-1,1h-0.8c-0.6,0-1-0.4-1-1v-4.4c0-0.6,0.4-1,1-1h0.8c0.6,0,1,0.4,1,1V24.8z"/>
		<g>
			<g>
				<path fill="#AF083F" d="M23.8,57.7c0,0.6-0.4,1-1,1h-3.6c-0.6,0-1-0.4-1-1l1-36.5c0-0.6,0.4-1,1-1h1.6c0.6,0,1,0.4,1,1
					L23.8,57.7z"/>
				<path fill="#930035" d="M19.2,21.2c0-0.6,0.4-1,1-1h1.6c0.6,0,1,0.4,1,1l1,36.5c0,0.6-0.4,1-1,1"/>
				<path fill="#AF083F" d="M19.7,56c0,0.3-0.3,0.6-0.6,0.6h-3.4c-0.3,0-0.6-0.3-0.6-0.6l0,0c0-0.3,0.3-0.6,0.6-0.6h3.4
					C19.4,55.4,19.7,55.7,19.7,56L19.7,56z"/>
				<g>
					<path fill="#272B2B" d="M15.7,38.9c0.2,0.2,0.2,0.4,0,0.6L15,40.2c-0.2,0.2-0.4,0.2-0.6,0l-0.7-0.7c-0.2-0.2-0.2-0.4,0-0.6
						l0.7-0.7c0.2-0.2,0.4-0.2,0.6,0L15.7,38.9z"/>
					<path fill="#272B2B" d="M16.2,41.4c0,0.4-0.3,0.7-0.7,0.7h-1.6c-0.4,0-0.7-0.3-0.7-0.7v-1.6c0-0.4,0.3-0.7,0.7-0.7h1.6
						c0.4,0,0.7,0.3,0.7,0.7V41.4z"/>
					<g>
						<path fill="#AF083F" d="M16.1,58.4c0,0.2-0.1,0.3-0.3,0.3h-2.1c-0.2,0-0.3-0.1-0.3-0.3V42.5c0-0.2,0.1-0.3,0.3-0.3h2.1
							c0.2,0,0.3,0.1,0.3,0.3V58.4z"/>
						<path fill="#930035" d="M13.3,42.5c0-0.2,0.1-0.3,0.3-0.3h2.1c0.2,0,0.3,0.1,0.3,0.3v15.8c0,0.2-0.1,0.3-0.3,0.3"/>
						<path fill="#AF083F" d="M17,42.1c0,0.2-0.2,0.3-0.3,0.3h-3.8c-0.2,0-0.3-0.2-0.3-0.3l0,0c0-0.2,0.2-0.3,0.3-0.3h3.8
							C16.8,41.8,17,41.9,17,42.1L17,42.1z"/>
					</g>
					<path fill="#AF083F" d="M19.7,45.1c0,0.3-0.3,0.6-0.6,0.6h-3.4c-0.3,0-0.6-0.3-0.6-0.6l0,0c0-0.3,0.3-0.6,0.6-0.6h3.4
						C19.4,44.4,19.7,44.7,19.7,45.1L19.7,45.1z"/>
					<path fill="#272B2B" d="M16.5,39.2c0,0.1-0.1,0.2-0.2,0.2h-3.1c-0.1,0-0.2-0.1-0.2-0.2l0,0c0-0.1,0.1-0.2,0.2-0.2h3.1
						C16.4,38.9,16.5,39,16.5,39.2L16.5,39.2z"/>
				</g>
			</g>
			<g>
				<path fill="#AF083F" d="M40.2,57.7c0,0.6,0.4,1,1,1h3.6c0.6,0,1-0.4,1-1l-1-36.5c0-0.6-0.4-1-1-1h-1.6c-0.6,0-1,0.4-1,1
					L40.2,57.7z"/>
				<path fill="#930035" d="M44.8,21.2c0-0.6-0.4-1-1-1h-1.6c-0.6,0-1,0.4-1,1l-1,36.5c0,0.6,0.4,1,1,1"/>
				<path fill="#AF083F" d="M44.3,56c0,0.3,0.3,0.6,0.6,0.6h3.4c0.3,0,0.6-0.3,0.6-0.6l0,0c0-0.3-0.3-0.6-0.6-0.6h-3.4
					C44.6,55.4,44.3,55.7,44.3,56L44.3,56z"/>
				<g>
					<path fill="#272B2B" d="M48.3,38.9c-0.2,0.2-0.2,0.4,0,0.6l0.7,0.7c0.2,0.2,0.4,0.2,0.6,0l0.7-0.7c0.2-0.2,0.2-0.4,0-0.6
						l-0.7-0.7c-0.2-0.2-0.4-0.2-0.6,0L48.3,38.9z"/>
					<path fill="#272B2B" d="M47.8,41.4c0,0.4,0.3,0.7,0.7,0.7h1.6c0.4,0,0.7-0.3,0.7-0.7v-1.6c0-0.4-0.3-0.7-0.7-0.7h-1.6
						c-0.4,0-0.7,0.3-0.7,0.7V41.4z"/>
					<g>
						<path fill="#AF083F" d="M47.9,58.4c0,0.2,0.1,0.3,0.3,0.3h2.1c0.2,0,0.3-0.1,0.3-0.3V42.5c0-0.2-0.2-0.3-0.3-0.3h-2.1
							c-0.2,0-0.3,0.1-0.3,0.3V58.4z"/>
						<path fill="#930035" d="M50.7,42.5c0-0.2-0.2-0.3-0.3-0.3h-2.1c-0.2,0-0.3,0.1-0.3,0.3v15.8c0,0.2,0.1,0.3,0.3,0.3"/>
						<path fill="#AF083F" d="M47,42.1c0,0.2,0.2,0.3,0.3,0.3h3.8c0.2,0,0.3-0.2,0.3-0.3l0,0c0-0.2-0.2-0.3-0.3-0.3h-3.8
							C47.2,41.8,47,41.9,47,42.1L47,42.1z"/>
					</g>
					<path fill="#AF083F" d="M44.3,45.1c0,0.3,0.3,0.6,0.6,0.6h3.4c0.3,0,0.6-0.3,0.6-0.6l0,0c0-0.3-0.3-0.6-0.6-0.6h-3.4
						C44.6,44.4,44.3,44.7,44.3,45.1L44.3,45.1z"/>
					<path fill="#272B2B" d="M47.5,39.2c0,0.1,0.1,0.2,0.2,0.2h3.1c0.1,0,0.2-0.1,0.2-0.2l0,0c0-0.1-0.1-0.2-0.2-0.2h-3.1
						C47.6,38.9,47.5,39,47.5,39.2L47.5,39.2z"/>
				</g>
			</g>
		</g>
		<g>
			<path fill="#D8164E" d="M32,24.1C32,24.1,32,24.1,32,24.1c-10.8,0-21-4.2-28.7-11.9l3.4-3.4c6.7,6.7,15.7,10.5,25.3,10.5
				c9.5,0,18.5-3.7,25.3-10.5l3.4,3.4C53,19.9,42.8,24.1,32,24.1z"/>
		</g>
		<path fill="#AF083F" d="M32,19.2c-9.5,0-18.5-3.7-25.3-10.5L4.5,11C12,18,21.7,21.8,32,21.8c0,0,0,0,0,0c10.3,0,20-3.8,27.5-10.8
			l-2.3-2.3C50.5,15.5,41.5,19.2,32,19.2z"/>
		<g>
			<g>
				<path fill="#272B2B" d="M32,19.7C32,19.7,32,19.7,32,19.7c-11.9,0-23.1-4.6-31.5-13l3.8-3.8c7.4,7.4,17.3,11.5,27.7,11.5
					c10.5,0,20.3-4.1,27.7-11.5l3.8,3.8C55.1,15.1,43.9,19.7,32,19.7z"/>
			</g>
			<path fill="#4A4F4F" d="M32,14.4c-10.5,0-20.3-4.1-27.7-11.5L1.8,5.4C10,13,20.7,17.2,32,17.2c0,0,0,0,0,0
				c11.3,0,22-4.2,30.2-11.8l-2.5-2.5C52.3,10.3,42.5,14.4,32,14.4z"/>
		</g>
		<g>
			<path fill="#AF083F" d="M50.5,28.2c0,0.6-0.4,1-1,1h-35c-0.6,0-1-0.4-1-1v-0.5c0-0.6,0.4-1,1-1h35c0.6,0,1,0.4,1,1V28.2z"/>
			<path fill="#D8164E" d="M14.5,26.7c-0.5,0-0.8,0.3-0.9,0.7c0.1,0.4,0.5,0.7,0.9,0.7h35c0.5,0,0.8-0.3,0.9-0.7
				c-0.1-0.4-0.5-0.7-0.9-0.7H14.5z"/>
		</g>
		<g>
			<path fill="#AF083F" d="M50.5,33.8c0,0.6-0.4,1-1,1h-35c-0.6,0-1-0.4-1-1v-0.5c0-0.6,0.4-1,1-1h35c0.6,0,1,0.4,1,1V33.8z"/>
			<path fill="#D8164E" d="M14.5,32.3c-0.5,0-0.8,0.3-0.9,0.7c0.1,0.4,0.5,0.7,0.9,0.7h35c0.5,0,0.8-0.3,0.9-0.7
				c-0.1-0.4-0.5-0.7-0.9-0.7H14.5z"/>
		</g>
		<path fill="#6FAF00" d="M62.7,60.1c0,0.6-0.4,1-1,1H2.3c-0.6,0-1-0.4-1-1v-1.1c0-0.6,0.4-1,1-1h59.4c0.6,0,1,0.4,1,1V60.1z"/>
	</g>
</g>
</svg>
