<?xml version="1.0" encoding="utf-8"?>
<!-- Generator: Adobe Illustrator 16.0.0, SVG Export Plug-In . SVG Version: 6.00 Build 0)  -->
<!DOCTYPE svg PUBLIC "-//W3C//DTD SVG 1.1//EN" "http://www.w3.org/Graphics/SVG/1.1/DTD/svg11.dtd">
<svg version="1.1" id="Layer_1" xmlns="http://www.w3.org/2000/svg" xmlns:xlink="http://www.w3.org/1999/xlink" x="0px" y="0px"
	 width="64px" height="64px" viewBox="0 0 64 64" enable-background="new 0 0 64 64" xml:space="preserve">
<g>
	<g>
		<path fill="#EA7103" d="M63.6,25.6c-0.3-1-1.2-1.8-2.3-1.9L42.8,21L34.5,4.2c-0.5-1-1.5-1.6-2.5-1.6c-1.1,0-2,0.6-2.5,1.6L21.2,21
			L2.7,23.6c-1.1,0.2-1.9,0.9-2.3,1.9c-0.3,1-0.1,2.1,0.7,2.9l13.4,13.1l-3.2,18.4c-0.2,1.1,0.3,2.1,1.1,2.8c0.9,0.6,2,0.7,3,0.2
			L32,54.2l16.6,8.7c0.4,0.2,0.9,0.3,1.3,0.3c0.6,0,1.2-0.2,1.7-0.5c0.9-0.6,1.3-1.7,1.1-2.8l-3.2-18.4l13.4-13.1
			C63.6,27.7,63.9,26.6,63.6,25.6z"/>
	</g>
	<g>
		<path fill="#F9A908" d="M63.6,23.7c-0.3-1-1.2-1.8-2.3-1.9l-18.5-2.7L34.5,2.4c-0.5-1-1.5-1.6-2.5-1.6c-1.1,0-2,0.6-2.5,1.6
			l-8.3,16.8L2.7,21.8c-1.1,0.2-1.9,0.9-2.3,1.9c-0.3,1-0.1,2.1,0.7,2.9l13.4,13.1l-3.2,18.4c-0.2,1.1,0.3,2.1,1.1,2.8
			c0.9,0.6,2,0.7,3,0.2L32,52.4l16.6,8.7c0.4,0.2,0.9,0.3,1.3,0.3c0.6,0,1.2-0.2,1.7-0.5c0.9-0.6,1.3-1.7,1.1-2.8l-3.2-18.4
			l13.4-13.1C63.6,25.9,63.9,24.7,63.6,23.7z"/>
	</g>
	<g>
		<path fill="#F7910B" d="M63.6,23.7c-0.3-1-1.2-1.8-2.3-1.9l-18.5-2.7L34.5,2.4c-0.5-1-1.4-1.6-2.5-1.6c0,0-0.1,0-0.1,0v51.6
			l0.1-0.1l16.5,8.7c0.4,0.2,0.8,0.3,1.3,0.3c0.6,0,1.2-0.2,1.6-0.5c0.9-0.6,1.3-1.7,1.1-2.8l-3.2-18.4l13.4-13.1
			C63.6,25.9,63.9,24.7,63.6,23.7z"/>
	</g>
	<g>
		<g>
			<g>
				<g>
					<g>
						<path fill="#1E4784" d="M25.9,33.1c-0.3-0.1-0.6-0.2-0.8-0.5c-0.8-1.2-2.5-1.5-3.7-0.7c-0.6,0.4-1.3,0.2-1.7-0.3
							c-0.4-0.6-0.2-1.3,0.3-1.7c2.3-1.6,5.5-1,7.1,1.3c0.4,0.6,0.2,1.3-0.3,1.7C26.6,33.1,26.2,33.2,25.9,33.1z"/>
					</g>
				</g>
				<g>
					<g>
						<path fill="#02243E" d="M27.2,31.2c0.4,0.6,0.2,1.3-0.3,1.7c-0.3,0.2-0.6,0.3-0.9,0.2c-0.3-0.1-0.6-0.2-0.8-0.5
							c-0.8-1.2-2.5-1.5-3.7-0.7c-0.6,0.4-1.3,0.2-1.7-0.3c-0.4-0.6-0.2-1.3,0.3-1.7"/>
					</g>
				</g>
			</g>
		</g>
		<g>
			<g>
				<g>
					<g>
						<path fill="#1E4784" d="M38.1,33.1c0.3-0.1,0.6-0.2,0.8-0.5c0.8-1.2,2.5-1.5,3.7-0.7c0.6,0.4,1.3,0.2,1.7-0.3
							c0.4-0.6,0.2-1.3-0.3-1.7c-2.3-1.6-5.5-1-7.1,1.3c-0.4,0.6-0.2,1.3,0.3,1.7C37.4,33.1,37.8,33.2,38.1,33.1z"/>
					</g>
				</g>
				<g>
					<g>
						<path fill="#02243E" d="M36.8,31.2c-0.4,0.6-0.2,1.3,0.3,1.7c0.3,0.2,0.6,0.3,0.9,0.2s0.6-0.2,0.8-0.5
							c0.8-1.2,2.5-1.5,3.7-0.7c0.6,0.4,1.3,0.2,1.7-0.3c0.4-0.6,0.2-1.3-0.3-1.7"/>
					</g>
				</g>
			</g>
		</g>
	</g>
	<g>
		<g>
			<path fill="#C42260" d="M40.2,36.7c0,5.1-3.7,9.2-8.2,9.2s-8.2-4.1-8.2-9.2"/>
		</g>
		<g>
			<path fill="#99144A" d="M40.2,36.7c0,1.7-3.7,3.1-8.2,3.1s-8.2-1.4-8.2-3.1"/>
		</g>
		<g>
			<path fill="#E2446E" d="M32,45.9c2.5,0,4.8-1.3,6.3-3.3c-0.9-1.2-2.3-1.9-3.8-1.9c-0.9,0-1.8,0.3-2.5,0.7
				c-0.7-0.5-1.6-0.7-2.5-0.7c-1.5,0-2.9,0.7-3.8,1.9C27.2,44.6,29.5,45.9,32,45.9z"/>
		</g>
	</g>
	<g>
		<circle fill="#F7910B" cx="9.7" cy="24.9" r="1.7"/>
	</g>
	<g>
		<circle fill="#F7910B" cx="15.9" cy="23.4" r="0.3"/>
	</g>
	<g>
		<circle fill="#F7910B" cx="24.9" cy="21.1" r="0.3"/>
	</g>
	<g>
		<circle fill="#F7910B" cx="29.6" cy="9.7" r="1.6"/>
	</g>
	<g>
		<circle fill="#F7910B" cx="16.1" cy="31.7" r="0.6"/>
	</g>
	<g>
		<circle fill="#F7910B" cx="28.3" cy="25.3" r="1.4"/>
	</g>
	<g>
		<circle fill="#F7910B" cx="18.7" cy="44.4" r="0.7"/>
	</g>
	<g>
		<circle fill="#F7910B" cx="20.5" cy="52.8" r="1.2"/>
	</g>
	<g>
		<circle fill="#F7910B" cx="23.2" cy="48.8" r="0.7"/>
	</g>
	<g>
		<circle fill="#F7910B" cx="28.6" cy="49.6" r="0.3"/>
	</g>
	<g>
		<circle fill="#F7910B" cx="14.6" cy="57.3" r="0.4"/>
	</g>
	<g>
		<circle fill="#F9A908" cx="36.6" cy="21.8" r="1.7"/>
	</g>
	<g>
		<circle fill="#F9A908" cx="44.4" cy="25.1" r="0.5"/>
	</g>
	<g>
		<circle fill="#F9A908" cx="53.1" cy="25.8" r="0.8"/>
	</g>
	<g>
		<circle fill="#F9A908" cx="50.8" cy="30.3" r="1.1"/>
	</g>
	<g>
		<circle fill="#F9A908" cx="45.9" cy="37.2" r="0.7"/>
	</g>
	<g>
		<circle fill="#F9A908" cx="41.1" cy="50" r="2.1"/>
	</g>
	<g>
		<circle fill="#F9A908" cx="44.6" cy="43.3" r="0.6"/>
	</g>
	<g>
		<ellipse fill="#F9A908" cx="47.9" cy="55.2" rx="0" ry="0.2"/>
	</g>
	<g>
		<circle fill="#F9A908" cx="35.4" cy="12.9" r="0.8"/>
	</g>
	<g>
		<circle fill="#F9A908" cx="38" cy="15.7" r="0.2"/>
	</g>
</g>
</svg>
