<?xml version="1.0" encoding="utf-8"?>
<!-- Generator: Adobe Illustrator 16.0.0, SVG Export Plug-In . SVG Version: 6.00 Build 0)  -->
<!DOCTYPE svg PUBLIC "-//W3C//DTD SVG 1.1//EN" "http://www.w3.org/Graphics/SVG/1.1/DTD/svg11.dtd">
<svg version="1.1" id="Layer_1" xmlns="http://www.w3.org/2000/svg" xmlns:xlink="http://www.w3.org/1999/xlink" x="0px" y="0px"
	 width="64px" height="64px" viewBox="0 0 64 64" enable-background="new 0 0 64 64" xml:space="preserve">
<g>
	<path fill="#FFFFFF" d="M61.1,25.5c0,13.7-13,25.7-29.1,25.7S2.9,39.2,2.9,25.5c0-13.7,13-12.6,29.1-12.6S61.1,11.8,61.1,25.5z"/>
	<path fill="#F2F7F6" d="M61.1,25.5c0,13.7-13,25.7-29.1,25.7S2.9,39.2,2.9,25.5"/>
	<path fill="#E4EDEB" d="M32,12.8c16,0,29.1-1,29.1,12.6c0,13.7-13,25.7-29.1,25.7"/>
	<g>
		<path fill="#BDD1D0" d="M27.5,50.8c-1.3-4.9-6.4-11-13.7-15.9c-3.5-2.3-7-4-10.3-5.1C5.5,40.3,15.2,49.1,27.5,50.8z"/>
		<path fill="#A6BAB9" d="M27.5,50.8c-1.3-4.9-6.4-11-13.7-15.9c-3.5-2.3-7-4-10.3-5.1"/>
		<path fill="#BDD1D0" d="M60.6,29.8c-3.3,1.1-6.9,2.8-10.3,5.1c-7.3,4.9-12.4,11-13.7,15.9C48.8,49.1,58.5,40.3,60.6,29.8z"/>
		<path fill="#A6BAB9" d="M60.6,29.8c-3.3,1.1-6.9,2.8-10.3,5.1c-7.3,4.9-12.4,11-13.7,15.9"/>
	</g>
	<ellipse fill="#D3DDDC" cx="32" cy="15.6" rx="19.4" ry="1.9"/>
	<path fill="#CAD8D7" d="M51.4,15.6c0,1-8.7,1.9-19.4,1.9s-19.4-0.8-19.4-1.9"/>
	<g>
		<g>
			<circle fill="#DFE8E7" cx="29.1" cy="40.7" r="0.8"/>
			<circle fill="#DFE8E7" cx="29.1" cy="44.5" r="0.8"/>
			<circle fill="#DFE8E7" cx="29.1" cy="48.3" r="0.8"/>
		</g>
		<g>
			<circle fill="#FFFFFF" cx="34.9" cy="40.7" r="0.8"/>
			<circle fill="#FFFFFF" cx="34.9" cy="44.5" r="0.8"/>
			<circle fill="#FFFFFF" cx="34.9" cy="48.3" r="0.8"/>
		</g>
	</g>
</g>
</svg>
