<?xml version="1.0" encoding="utf-8"?>
<!-- Generator: Adobe Illustrator 16.0.0, SVG Export Plug-In . SVG Version: 6.00 Build 0)  -->
<!DOCTYPE svg PUBLIC "-//W3C//DTD SVG 1.1//EN" "http://www.w3.org/Graphics/SVG/1.1/DTD/svg11.dtd">
<svg version="1.1" id="Layer_1" xmlns="http://www.w3.org/2000/svg" xmlns:xlink="http://www.w3.org/1999/xlink" x="0px" y="0px"
	 width="64px" height="64px" viewBox="0 0 64 64" enable-background="new 0 0 64 64" xml:space="preserve">
<g>
	<g>
		<circle fill="#E28FAF" cx="32" cy="32" r="31.1"/>
		<path fill="#C97396" d="M54,10C66.1,22.2,66.1,41.8,54,54C41.8,66.1,22.2,66.1,10,54"/>
	</g>
	<g>
		<g>
			<polygon fill="#52C1DB" points="58.1,44.2 32,59.5 5.9,44.2 11.4,27.9 32,19.4 52.6,27.9 			"/>
			<polyline fill="#02AFCC" points="11.4,27.9 32,19.4 52.6,27.9 58.1,44.2 32,59.5 			"/>
			<polyline fill="#009AAF" points="56.4,39 58.1,44.2 43.7,52.6 			"/>
			<polygon fill="#CCD6D6" points="58.1,36.5 32,58.9 5.9,36.5 11.4,20.3 32,11.7 52.6,20.3 			"/>
			<polygon fill="#A1B7B6" points="58.1,36.5 32,58.9 5.9,36.5 11.4,20.3 32,11.7 52.6,20.3 			"/>
			<polygon fill="#CAD8D8" points="58.1,26.7 32,61.1 5.9,26.7 11.4,10.4 32,1.9 52.6,10.4 			"/>
			<polyline fill="#EBF2F2" points="11.4,10.4 32,1.9 52.6,10.4 58.1,26.7 32,61.1 			"/>
			<polyline fill="#DDE8E8" points="32,1.9 52.6,10.4 58.1,26.7 32,61.1 			"/>
			<polyline fill="#CAD8D8" points="52.6,10.4 58.1,26.7 32,61.1 			"/>
			<polyline fill="#BACCCB" points="45.8,31.7 58.1,26.7 32,61.1 			"/>
			<polygon fill="#F7F7F7" points="15.8,13.8 32,6 48.2,13.8 43.7,35 32,44.2 20.3,35 			"/>
			<polygon fill="#5E6664" points="15.8,13.8 32,25.4 48.2,13.8 43.7,54.4 32,63.6 20.3,54.4 			"/>
			<polyline fill="#2F423F" points="15.8,13.8 32,25.4 48.2,13.8 43.7,54.4 32,63.6 			"/>
			<polygon fill="#DCE2E2" points="15.8,13.8 32,19.6 48.2,13.8 44.8,31.7 32,31.8 19.2,31.7 			"/>
			<polyline fill="#EDEDED" points="32,31.8 19.2,31.7 15.8,13.8 25.7,24.9 			"/>
			<polyline fill="#CCD6D6" points="32,19.6 48.2,13.8 44.8,31.7 32,31.8 			"/>
			<polyline fill="#B9C6C6" points="41.9,21 48.2,13.8 44.8,31.7 32,31.8 			"/>
			<polygon fill="#EDEDED" points="23.2,30.8 32,29.4 40.8,30.8 38.4,44.1 32,47.6 25.6,44.1 			"/>
			<polyline fill="#DCE2E2" points="32,29.4 40.8,30.8 38.4,44.1 32,47.6 25.6,44.1 			"/>
			<polygon fill="#CCD6D6" points="31.9,43.1 32,29.4 40.8,30.8 38.4,44.1 32,47.6 25.6,44.1 			"/>
			<polygon fill="#5E6664" points="34.6,44 29.4,44 28.1,40 35.9,40 			"/>
			<polyline fill="#2F423F" points="35.9,40 34.6,44 29.4,44 			"/>
			<g>
				<g>
					<g>
						<g>
							<polygon fill="#5E6664" points="27,25.5 22,23.9 22,21 27,22.6 							"/>
							<polyline fill="#2F423F" points="27,22.6 27,25.5 22,23.9 							"/>
						</g>
					</g>
					<circle fill="#52C1DB" cx="24.3" cy="23.2" r="1.3"/>
					<path fill="#02AFCC" d="M25.2,22.3c0.5,0.5,0.5,1.3,0,1.8c-0.5,0.5-1.3,0.5-1.8,0"/>
				</g>
				<g>
					<g>
						<g>
							<polygon fill="#5E6664" points="37,25.5 42,23.9 42,21 37,22.6 							"/>
							<polyline fill="#2F423F" points="37,22.6 37,25.5 42,23.9 							"/>
						</g>
					</g>
					<circle fill="#52C1DB" cx="39.7" cy="23.2" r="1.3"/>
					<path fill="#02AFCC" d="M38.8,22.3c-0.5,0.5-0.5,1.3,0,1.8c0.5,0.5,1.3,0.5,1.8,0"/>
				</g>
			</g>
			<g>
				<g>
					<polygon fill="#5E6664" points="23.9,9 15,9 15,0.4 19.8,4.3 					"/>
					<polyline fill="#2F423F" points="19.8,4.2 23.9,9 15,9 					"/>
					<polygon fill="#52C1DB" points="15,0.4 25.3,5.4 23.9,9 					"/>
				</g>
				<g>
					<polygon fill="#5E6664" points="40.1,9 49,9 49,0.4 44.2,4.3 					"/>
					<polyline fill="#2F423F" points="44.2,4.2 40.1,9 49,9 					"/>
					<polygon fill="#7FD6EA" points="49,0.4 38.7,5.4 40.1,9 					"/>
				</g>
			</g>
		</g>
	</g>
</g>
</svg>
