<?xml version="1.0" encoding="utf-8"?>
<!-- Generator: Adobe Illustrator 16.0.0, SVG Export Plug-In . SVG Version: 6.00 Build 0)  -->
<!DOCTYPE svg PUBLIC "-//W3C//DTD SVG 1.1//EN" "http://www.w3.org/Graphics/SVG/1.1/DTD/svg11.dtd">
<svg version="1.1" id="Layer_1" xmlns="http://www.w3.org/2000/svg" xmlns:xlink="http://www.w3.org/1999/xlink" x="0px" y="0px"
	 width="64px" height="64px" viewBox="0 0 64 64" enable-background="new 0 0 64 64" xml:space="preserve">
<g>
	<g>
		<path fill="#004472" d="M10,27.7C10,23.3,17.5,3,23,3h17.7C46.2,3,54,23.3,54,27.7v6.2c0,4.5-4.8,8.1-10.3,12.1H20.3
			C14.8,42,10,38.4,10,33.9V27.7z"/>
		<path fill="#00233F" d="M23,3h17.7C46.2,3,54,23.3,54,27.7v6.2c0,4.5-4.8,8.1-10.3,12.1H20"/>
		<path fill="#004472" d="M63.3,61c-1.9-10-15.2-8-31.3-8c-16.1,0-29.4-2-31.3,8H63.3z"/>
		<path fill="#00233F" d="M43.2,18.3c0,3-5,10.6-11.2,10.6c-6.2,0-11.2-7.7-11.2-10.6c0-3,5-2.9,11.2-2.9
			C38.2,15.4,43.2,15.3,43.2,18.3z"/>
		<g>
			<g>
				<path fill="#004472" d="M21,56.6c0,1-1,1.4-2.4,1.4h-2.1c-1.4,0-7.9-0.8-7.9-1.7l5.1-6.8c0-1,1.4-1.4,2.8-1.4h2.1
					c1.4,0,2.4,0.5,2.4,1.5V56.6z"/>
				<path fill="#00233F" d="M13.6,49.4c0-1,1.4-1.4,2.8-1.4h2.1c1.4,0,2.4,0.5,2.4,1.5v7.1c0,1-1,1.4-2.4,1.4H16"/>
			</g>
			<g>
				<path fill="#004472" d="M43,56.6c0,1,0.8,1.4,2.2,1.4h2.1c1.4,0,7.6-0.6,7.6-1.6l-5-6.9c0-1-1.2-1.5-2.6-1.5h-2.1
					c-1.4,0-2.2,0.5-2.2,1.5V56.6z"/>
				<path fill="#00233F" d="M49.9,49.5c0-1-1.2-1.5-2.6-1.5h-2.1c-1.4,0-2.2,0.5-2.2,1.5v7.1c0,1,0.8,1.4,2.2,1.4H47"/>
			</g>
		</g>
		<g>
			<path fill="#306582" d="M35,30.5c0-0.3-0.2-0.5-0.5-0.5h-6c-0.3,0-0.5,0.2-0.5,0.5l0,0c0,0.3,0.2,0.5,0.5,0.5h6
				C34.8,31,35,30.8,35,30.5L35,30.5z"/>
			<path fill="#306582" d="M35,32.5c0-0.3-0.2-0.5-0.5-0.5h-6c-0.3,0-0.5,0.2-0.5,0.5l0,0c0,0.3,0.2,0.5,0.5,0.5h6
				C34.8,33,35,32.8,35,32.5L35,32.5z"/>
			<path fill="#306582" d="M35,34.5c0-0.3-0.2-0.5-0.5-0.5h-6c-0.3,0-0.5,0.2-0.5,0.5l0,0c0,0.3,0.2,0.5,0.5,0.5h6
				C34.8,35,35,34.8,35,34.5L35,34.5z"/>
		</g>
		<g>
			<circle fill="#306582" cx="26.1" cy="42.7" r="0.8"/>
			<circle fill="#306582" cx="30" cy="42.7" r="0.8"/>
			<circle fill="#306582" cx="34" cy="42.7" r="0.8"/>
			<circle fill="#306582" cx="37.9" cy="42.7" r="0.8"/>
		</g>
		<path fill="#F7B93C" d="M42,6.9V3.6C42,3.3,41.2,3,40.7,3H23.3c-0.5,0-1.6,0.3-1.6,0.3v3.5l10.3,6L42,6.9z"/>
		<path fill="#CC7211" d="M32,12.8l10-5.9V3.4c0,0-0.6-0.4-1.3-0.4H23.3c-0.5,0-1.1,0-1.6,0.3"/>
		<path fill="#00233F" d="M2.6,57c-0.9,1-1.5,3-1.9,4h62.6c-0.3-1-1-3-1.9-4H2.6z"/>
		<g>
			<path fill="#EA382A" d="M43.2,17.9c0,3-5,5.4-11.2,5.4c-6.2,0-11.2-2.4-11.2-5.4c0-3,5-2.9,11.2-2.9C38.2,15,43.2,14.9,43.2,17.9
				z"/>
			<g>
				<path fill="#CE1906" d="M43.2,17.9c0,3-5,5.4-11.2,5.4c-6.2,0-11.2-2.4-11.2-5.4"/>
			</g>
			<g>
				<circle fill="#004472" cx="32" cy="19.1" r="3.2"/>
				<path fill="#00233F" d="M32,22.4c-1.8,0-3.2-1.5-3.2-3.2s1.5-3.2,3.2-3.2"/>
			</g>
		</g>
	</g>
	<g>
		<path fill="#CE1906" d="M41.1,50c0,1.2,0,2-1.2,2H24.1c-1.2,0-1.2-0.8-1.2-2l0,0c0-1.2,1-2,2.2-2h13.8C40.1,48,41.1,48.8,41.1,50
			L41.1,50z"/>
		<path fill="#770606" d="M41.1,50L41.1,50c0,1.2,0,2-1.2,2H24.1c-1.2,0-1.2-0.8-1.2-2l0,0"/>
	</g>
</g>
</svg>
