<?xml version="1.0" encoding="utf-8"?>
<!-- Generator: Adobe Illustrator 16.0.0, SVG Export Plug-In . SVG Version: 6.00 Build 0)  -->
<!DOCTYPE svg PUBLIC "-//W3C//DTD SVG 1.1//EN" "http://www.w3.org/Graphics/SVG/1.1/DTD/svg11.dtd">
<svg version="1.1" id="Layer_1" xmlns="http://www.w3.org/2000/svg" xmlns:xlink="http://www.w3.org/1999/xlink" x="0px" y="0px"
	 width="65px" height="65px" viewBox="0 0 65 65" enable-background="new 0 0 65 65" xml:space="preserve">
<g>
	<g>
		<g>
			<g>
				<path fill="#ABD3DD" d="M59.125,59.529c0,2.746-2.227,4.971-4.969,4.971h-1.555c-2.745,0-4.971-2.225-4.971-4.971V3.296
					c0-2.744,2.226-2.796,4.971-2.796h1.555c2.742,0,4.969,0.052,4.969,2.796V59.529z"/>
				<path fill="#8DC6D3" d="M52.602,0.5h1.555c2.742,0,4.969,0.052,4.969,2.796v56.233c0,2.746-2.227,4.971-4.969,4.971h-1.555"/>
				<path fill="#FFB000" d="M47.631,27.832v31.697c0,2.746,2.226,4.971,4.971,4.971h1.555c2.742,0,4.969-2.225,4.969-4.971V27.832
					H47.631z"/>
				<path fill="#FF8206" d="M47.631,59.529c0,2.746,2.226,4.971,4.971,4.971h1.555c2.742,0,4.969-2.225,4.969-4.971V30.082H47.631
					V59.529z"/>
				<path fill="#FF4A03" d="M52.602,64.5h1.555c2.742,0,4.969-2.225,4.969-4.971V30.082h-6.523V64.5z"/>
				<path fill="#8DC6D3" d="M58.598,14.078l0.527-0.527V3.296c0-2.744-2.227-2.796-4.969-2.796h-1.555
					c-2.682,0-4.854,0.067-4.953,2.632L58.598,14.078z"/>
				<path fill="#C4E3E8" d="M61.145,1.742c0,0.687-0.555,1.243-1.242,1.243H46.854c-0.687,0-1.241-0.557-1.241-1.243l0,0
					c0-0.685,0.555-1.242,1.241-1.242h13.048C60.59,0.5,61.145,1.058,61.145,1.742L61.145,1.742z"/>
				<path fill="#ABD3DD" d="M61.145,1.742L61.145,1.742c0,0.687-0.555,1.243-1.242,1.243H46.854c-0.687,0-1.241-0.557-1.241-1.243
					l0,0"/>
				<g>
					<path fill="#C4E3E8" d="M53.895,8.397c0,0.173-0.137,0.312-0.308,0.312h-4.142c-0.173,0-0.312-0.139-0.312-0.312l0,0
						c0-0.172,0.139-0.31,0.312-0.31h4.142C53.758,8.088,53.895,8.226,53.895,8.397L53.895,8.397z"/>
					<path fill="#C4E3E8" d="M51.41,10.778c0,0.173-0.138,0.311-0.309,0.311h-1.656c-0.173,0-0.312-0.138-0.312-0.311l0,0
						c0-0.172,0.139-0.31,0.312-0.31h1.656C51.272,10.469,51.41,10.606,51.41,10.778L51.41,10.778z"/>
				</g>
				<g>
					<path fill="#C4E3E8" d="M53.895,13.058c0,0.173-0.137,0.311-0.308,0.311h-4.142c-0.173,0-0.312-0.138-0.312-0.311l0,0
						c0-0.173,0.139-0.311,0.312-0.311h4.142C53.758,12.747,53.895,12.885,53.895,13.058L53.895,13.058z"/>
					<path fill="#C4E3E8" d="M51.41,15.438c0,0.173-0.138,0.312-0.309,0.312h-1.656c-0.173,0-0.312-0.14-0.312-0.312l0,0
						c0-0.172,0.139-0.31,0.312-0.31h1.656C51.272,15.129,51.41,15.267,51.41,15.438L51.41,15.438z"/>
				</g>
				<g>
					<path fill="#C4E3E8" d="M53.895,17.718c0,0.172-0.137,0.312-0.308,0.312h-4.142c-0.173,0-0.312-0.141-0.312-0.312l0,0
						c0-0.172,0.139-0.311,0.312-0.311h4.142C53.758,17.407,53.895,17.546,53.895,17.718L53.895,17.718z"/>
					<path fill="#C4E3E8" d="M51.41,20.099c0,0.175-0.138,0.311-0.309,0.311h-1.656c-0.173,0-0.312-0.136-0.312-0.311l0,0
						c0-0.172,0.139-0.308,0.312-0.308h1.656C51.272,19.791,51.41,19.927,51.41,20.099L51.41,20.099z"/>
				</g>
				<g>
					<path fill="#C4E3E8" d="M53.895,22.378c0,0.174-0.137,0.311-0.308,0.311h-4.142c-0.173,0-0.312-0.137-0.312-0.311l0,0
						c0-0.172,0.139-0.31,0.312-0.31h4.142C53.758,22.068,53.895,22.206,53.895,22.378L53.895,22.378z"/>
					<path fill="#C4E3E8" d="M51.41,24.759c0,0.172-0.138,0.312-0.309,0.312h-1.656c-0.173,0-0.312-0.141-0.312-0.312l0,0
						c0-0.172,0.139-0.311,0.312-0.311h1.656C51.272,24.448,51.41,24.587,51.41,24.759L51.41,24.759z"/>
				</g>
				<g>
					<path fill="#C4E3E8" d="M53.895,27.038c0,0.173-0.137,0.312-0.308,0.312h-4.142c-0.173,0-0.312-0.14-0.312-0.312l0,0
						c0-0.172,0.139-0.311,0.312-0.311h4.142C53.758,26.728,53.895,26.866,53.895,27.038L53.895,27.038z"/>
					<path fill="#C4E3E8" d="M51.41,29.419c0,0.172-0.138,0.312-0.309,0.312h-1.656c-0.173,0-0.312-0.141-0.312-0.312l0,0
						c0-0.169,0.139-0.31,0.312-0.31h1.656C51.272,29.109,51.41,29.25,51.41,29.419L51.41,29.419z"/>
				</g>
				<g>
					<path fill="#C4E3E8" d="M53.895,31.7c0,0.171-0.137,0.311-0.308,0.311h-4.142c-0.173,0-0.312-0.14-0.312-0.311l0,0
						c0-0.173,0.139-0.312,0.312-0.312h4.142C53.758,31.389,53.895,31.527,53.895,31.7L53.895,31.7z"/>
					<path fill="#C4E3E8" d="M51.41,34.079c0,0.173-0.138,0.312-0.309,0.312h-1.656c-0.173,0-0.312-0.14-0.312-0.312l0,0
						c0-0.172,0.139-0.31,0.312-0.31h1.656C51.272,33.77,51.41,33.907,51.41,34.079L51.41,34.079z"/>
				</g>
				<g>
					<path fill="#C4E3E8" d="M53.895,36.358c0,0.173-0.137,0.312-0.308,0.312h-4.142c-0.173,0-0.312-0.139-0.312-0.312l0,0
						c0-0.173,0.139-0.311,0.312-0.311h4.142C53.758,36.048,53.895,36.186,53.895,36.358L53.895,36.358z"/>
					<path fill="#C4E3E8" d="M51.41,38.741c0,0.172-0.138,0.311-0.309,0.311h-1.656c-0.173,0-0.312-0.139-0.312-0.311l0,0
						c0-0.173,0.139-0.312,0.312-0.312h1.656C51.272,38.43,51.41,38.568,51.41,38.741L51.41,38.741z"/>
				</g>
				<g>
					<path fill="#C4E3E8" d="M53.895,41.02c0,0.173-0.137,0.311-0.308,0.311h-4.142c-0.173,0-0.312-0.138-0.312-0.311l0,0
						c0-0.172,0.139-0.311,0.312-0.311h4.142C53.758,40.709,53.895,40.848,53.895,41.02L53.895,41.02z"/>
					<path fill="#C4E3E8" d="M51.41,43.399c0,0.173-0.138,0.312-0.309,0.312h-1.656c-0.173,0-0.312-0.139-0.312-0.312l0,0
						c0-0.173,0.139-0.311,0.312-0.311h1.656C51.272,43.089,51.41,43.227,51.41,43.399L51.41,43.399z"/>
				</g>
				<g>
					<path fill="#C4E3E8" d="M53.895,45.679c0,0.172-0.137,0.312-0.308,0.312h-4.142c-0.173,0-0.312-0.14-0.312-0.312l0,0
						c0-0.171,0.139-0.311,0.312-0.311h4.142C53.758,45.368,53.895,45.508,53.895,45.679L53.895,45.679z"/>
					<path fill="#C4E3E8" d="M51.41,48.061c0,0.173-0.138,0.311-0.309,0.311h-1.656c-0.173,0-0.312-0.138-0.312-0.311l0,0
						c0-0.172,0.139-0.311,0.312-0.311h1.656C51.272,47.75,51.41,47.889,51.41,48.061L51.41,48.061z"/>
				</g>
				<g>
					<path fill="#C4E3E8" d="M53.895,50.34c0,0.172-0.137,0.312-0.308,0.312h-4.142c-0.173,0-0.312-0.14-0.312-0.312l0,0
						c0-0.172,0.139-0.312,0.312-0.312h4.142C53.758,50.028,53.895,50.168,53.895,50.34L53.895,50.34z"/>
					<path fill="#C4E3E8" d="M51.41,52.721c0,0.173-0.138,0.311-0.309,0.311h-1.656c-0.173,0-0.312-0.138-0.312-0.311l0,0
						c0-0.172,0.139-0.311,0.312-0.311h1.656C51.272,52.41,51.41,52.549,51.41,52.721L51.41,52.721z"/>
				</g>
				<g>
					<path fill="#C4E3E8" d="M53.895,55c0,0.172-0.137,0.31-0.308,0.31h-4.142c-0.173,0-0.312-0.138-0.312-0.31l0,0
						c0-0.173,0.139-0.311,0.312-0.311h4.142C53.758,54.689,53.895,54.827,53.895,55L53.895,55z"/>
					<path fill="#C4E3E8" d="M51.41,57.381c0,0.172-0.138,0.312-0.309,0.312h-1.656c-0.173,0-0.312-0.14-0.312-0.312l0,0
						c0-0.172,0.139-0.312,0.312-0.312h1.656C51.272,57.069,51.41,57.209,51.41,57.381L51.41,57.381z"/>
				</g>
			</g>
		</g>
	</g>
	<path fill="#FFB000" d="M44.262,10.22l-7.91-4.566c-0.518-0.3-1.156-0.3-1.674,0l-7.066,4.08l-7.066-4.08
		c-0.518-0.3-1.156-0.3-1.674,0l-7.91,4.566c-0.518,0.299-0.837,0.852-0.837,1.45v9.133c0,0.599,0.319,1.151,0.837,1.45l7.068,4.081
		v8.289c0,0.598,0.318,1.15,0.836,1.45l7.908,4.567c0.258,0.15,0.549,0.225,0.837,0.225s0.578-0.074,0.837-0.225l7.91-4.567
		c0.519-0.299,0.838-0.852,0.838-1.45v-8.289l7.066-4.081c0.518-0.299,0.836-0.852,0.836-1.45V11.67
		C45.098,11.071,44.779,10.519,44.262,10.22z M13.473,12.637l6.235-3.601l6.224,3.593v7.215l-6.224,3.594l-6.235-3.601V12.637z
		 M33.846,33.657l-6.235,3.601l-6.233-3.601v-7.2l6.233-3.601l6.235,3.601V33.657z M41.75,19.837l-6.236,3.601l-6.222-3.594v-7.215
		l6.222-3.593l6.236,3.601V19.837z"/>
	<path fill="#FFB000" d="M16.317,45.262L13.57,46.85l-2.744-1.584v-3.18l2.744-1.584l2.747,1.587V45.262z M7.338,35.998l2.749-1.587
		l2.747,1.587v3.174l-2.747,1.587l-2.749-1.587V35.998z M3.855,42.089l2.748-1.587l2.742,1.584v3.18L6.604,46.85l-2.748-1.588
		V42.089z"/>
	<path fill="#FFB000" d="M25.498,55.828l3.486,2.013c0.229,0.132,0.51,0.132,0.738,0l3.113-1.799l3.115,1.799
		c0.229,0.132,0.51,0.132,0.736,0l3.487-2.013c0.228-0.133,0.368-0.375,0.368-0.639v-4.025c0-0.264-0.141-0.508-0.368-0.639
		l-3.115-1.799v-3.653c0-0.265-0.141-0.507-0.368-0.64l-3.486-2.013c-0.113-0.065-0.24-0.099-0.368-0.099s-0.255,0.033-0.369,0.099
		l-3.485,2.013c-0.229,0.132-0.369,0.375-0.369,0.64v3.653l-3.115,1.799c-0.228,0.131-0.369,0.375-0.369,0.639v4.025
		C25.129,55.453,25.271,55.695,25.498,55.828z"/>
</g>
</svg>
