<?xml version="1.0" encoding="utf-8"?>
<!-- Generator: Adobe Illustrator 16.0.0, SVG Export Plug-In . SVG Version: 6.00 Build 0)  -->
<!DOCTYPE svg PUBLIC "-//W3C//DTD SVG 1.1//EN" "http://www.w3.org/Graphics/SVG/1.1/DTD/svg11.dtd">
<svg version="1.1" id="Layer_1" xmlns="http://www.w3.org/2000/svg" xmlns:xlink="http://www.w3.org/1999/xlink" x="0px" y="0px"
	 width="64px" height="64px" viewBox="0 0 64 64" enable-background="new 0 0 64 64" xml:space="preserve">
<g>
	<g>
		<g>
			<path fill="#51D687" d="M20.5,18.9c1.3,0,2.3,1.1,2.3,2.1l0,0c0-5-4.4-10-10-10C7.2,11,2.6,15.6,2.6,21.2c0,1.3,1,2.4,2.4,2.4
				c1.3,0,2.4-1.1,2.4-2.4c0-2.9,2.4-5.3,5.3-5.3c2.9,0,5.3,2.4,5.3,5.3c0,0.1,0.1,0,0.1,0.1C18,20,19.2,18.9,20.5,18.9z"/>
			<path fill="#2CAF61" d="M35.8,19c-1.3,0-2.4,1.1-2.4,2.4c0,2.9-2.4,5.3-5.3,5.3c-2.9,0-5.3-2.4-5.3-5.3c0-0.1,0-0.1,0-0.1
				c0,1.3-1,2.4-2.4,2.4c-1.3,0-2.4-1-2.4-2.3c0,0,0,0,0,0c0,5.6,4.5,10.1,10.1,10.1c5.6,0,10.1-4.5,10.1-10.1
				C38.2,20.1,37.1,19,35.8,19z"/>
		</g>
		<g>
			<path fill="#51D687" d="M43.6,19c1.3,0,2.4,1,2.4,2.3v0c0-5.6-4.5-10.1-10.1-10.1c-5.6,0-10.1,4.5-10.1,10.1
				c0,1.3,1.1,2.4,2.4,2.4c1.3,0,2.4-1.1,2.4-2.4c0-2.9,2.4-5.3,5.3-5.3c2.9,0,5.3,2.4,5.3,5.3c0,0.1,0,0.1,0,0.1
				C41.3,20.1,42.3,19,43.6,19z"/>
			<path fill="#2CAF61" d="M59.1,19c-1.3,0-2.4,1.1-2.4,2.4c0,2.9-2.4,5.3-5.3,5.3s-5.3-2.4-5.3-5.3c0-0.1,0-0.1,0-0.1
				c0,1.3-1.1,2.4-2.4,2.4c-1.3,0-2.4-0.7-2.4-2.7l0,0c0,6,4.3,10.1,9.9,10.1c5.6,0,10.2-4.3,10.2-9.9C61.4,19.9,60.4,19,59.1,19z"
				/>
		</g>
	</g>
	<g>
		<g>
			<path fill="#51D687" d="M20.5,40.3c1.3,0,2.3,1,2.3,2.3l0,0c0-5.6-4.4-10.1-10-10.1C7.2,32.5,2.6,37,2.6,42.6
				c0,1.3,1,2.4,2.4,2.4c1.3,0,2.4-1.1,2.4-2.4c0-2.9,2.4-5.3,5.3-5.3c2.9,0,5.3,2.4,5.3,5.3c0,0.1,0.1,0.1,0.1,0.1
				C18,41.4,19.2,40.3,20.5,40.3z"/>
			<path fill="#2CAF61" d="M35.8,40.3c-1.3,0-2.4,1.1-2.4,2.4c0,2.9-2.4,5.3-5.3,5.3c-2.9,0-5.3-2.4-5.3-5.3c0-0.1,0-0.1,0-0.1
				c0,1.3-1,2.4-2.4,2.4c-1.3,0-2.4-1-2.4-2.2c0,0,0,0,0,0c0,5.6,4.5,10.1,10.1,10.1c5.6,0,10.1-4.5,10.1-10.1
				C38.2,41.4,37.1,40.3,35.8,40.3z"/>
		</g>
		<g>
			<path fill="#51D687" d="M43.6,40.3c1.3,0,2.4,1,2.4,2.3v0c0-5.6-4.5-10.1-10.1-10.1c-5.6,0-10.1,4.5-10.1,10.1
				c0,1.3,1.1,2.4,2.4,2.4c1.3,0,2.4-1.1,2.4-2.4c0-2.9,2.4-5.3,5.3-5.3c2.9,0,5.3,2.4,5.3,5.3c0,0.1,0,0.1,0,0.1
				C41.3,41.4,42.3,40.3,43.6,40.3z"/>
			<path fill="#2CAF61" d="M59.1,40.3c-1.3,0-2.4,1.1-2.4,2.4c0,2.9-2.4,5.3-5.3,5.3s-5.3-2.4-5.3-5.3c0-0.1,0-0.1,0-0.1
				c0,1.3-1.2,2.5-2.5,2.5c-1.3,0-2.3-1.1-2.3-2.1l0,0c0,5,4.4,10,10,10c5.6,0,10.2-4.6,10.2-10.2C61.4,41.5,60.4,40.3,59.1,40.3z"
				/>
		</g>
	</g>
</g>
</svg>
