<?xml version="1.0" encoding="utf-8"?>
<!-- Generator: Adobe Illustrator 16.0.0, SVG Export Plug-In . SVG Version: 6.00 Build 0)  -->
<!DOCTYPE svg PUBLIC "-//W3C//DTD SVG 1.1//EN" "http://www.w3.org/Graphics/SVG/1.1/DTD/svg11.dtd">
<svg version="1.1" xmlns="http://www.w3.org/2000/svg" xmlns:xlink="http://www.w3.org/1999/xlink" x="0px" y="0px" width="65px"
	 height="65px" viewBox="0 0 65 65" enable-background="new 0 0 65 65" xml:space="preserve">
<g id="Layer_1">
	<g>
		<path fill="#7FDDD6" d="M64.5,61.354V33.931c0-2.444-1.303-4.697-3.418-5.921L35.915,13.477c-2.114-1.217-4.721-1.217-6.834,0
			L3.918,28.01C1.803,29.234,0.5,31.487,0.5,33.931v27.423H64.5z"/>
		<path fill="#9AE8E1" d="M29.081,13.477L3.918,28.01C1.803,29.234,0.5,31.487,0.5,33.931v27.423"/>
		<g>
			<g>
				<polygon fill="#6DBFB5" points="30.91,61.354 22.806,43.186 14.701,61.354 				"/>
				<polygon fill="#53AAA1" points="22.303,61.354 13.306,41.186 4.309,61.354 				"/>
			</g>
			<polygon fill="#70513D" points="64.5,61.354 41.973,10.854 19.445,61.354 			"/>
			<polygon fill="#563A2B" points="64.5,61.354 41.973,10.854 32.234,61.354 			"/>
			<g>
				<g>
					<rect x="50.84" y="57.708" fill="#897342" width="0.887" height="3.646"/>
					<polygon fill="#74AA17" points="54.375,58.48 52.902,55.179 53.957,55.179 52.463,51.829 53.298,51.829 51.283,47.311 
						49.268,51.829 50.104,51.829 48.609,55.179 49.664,55.179 48.191,58.48 					"/>
					<polygon fill="#0B8213" points="54.375,58.48 52.902,55.179 53.957,55.179 52.463,51.829 53.298,51.829 51.283,47.311 
						50.057,51.829 50.826,51.829 49.596,55.179 50.678,55.179 49.375,58.48 					"/>
				</g>
				<g>
					<rect x="54.215" y="57.708" fill="#897342" width="0.887" height="3.646"/>
					<polygon fill="#74AA17" points="57.75,58.48 56.277,55.179 57.332,55.179 55.838,51.829 56.673,51.829 54.658,47.311 
						52.644,51.829 53.479,51.829 51.984,55.179 53.039,55.179 51.566,58.48 					"/>
					<polygon fill="#0B8213" points="57.75,58.48 56.277,55.179 57.332,55.179 55.838,51.829 56.673,51.829 54.658,47.311 
						53.432,51.829 54.201,51.829 52.971,55.179 54.053,55.179 52.75,58.48 					"/>
				</g>
				<g>
					<rect x="57.59" y="57.708" fill="#897342" width="0.887" height="3.646"/>
					<polygon fill="#74AA17" points="61.125,58.48 59.652,55.179 60.707,55.179 59.213,51.829 60.048,51.829 58.033,47.311 
						56.019,51.829 56.854,51.829 55.359,55.179 56.414,55.179 54.941,58.48 					"/>
					<polygon fill="#0B8213" points="61.125,58.48 59.652,55.179 60.707,55.179 59.213,51.829 60.048,51.829 58.033,47.311 
						56.807,51.829 57.576,51.829 56.346,55.179 57.428,55.179 56.125,58.48 					"/>
				</g>
				<g>
					<rect x="60.965" y="57.708" fill="#897342" width="0.887" height="3.646"/>
					<polygon fill="#74AA17" points="64.5,58.48 63.027,55.179 64.082,55.179 62.588,51.829 63.423,51.829 61.408,47.311 
						59.394,51.829 60.229,51.829 58.734,55.179 59.789,55.179 58.316,58.48 					"/>
					<polygon fill="#0B8213" points="64.5,58.48 63.027,55.179 64.082,55.179 62.588,51.829 63.423,51.829 61.408,47.311 
						60.182,51.829 60.951,51.829 59.721,55.179 60.803,55.179 59.5,58.48 					"/>
				</g>
			</g>
			<polygon fill="#C6B07F" points="44.731,25.633 47.49,28.874 49.145,26.93 41.973,10.854 34.801,26.931 36.455,28.874 
				39.213,25.633 41.973,28.874 			"/>
			<polygon fill="#AF9C69" points="39.213,25.633 41.973,28.874 44.731,25.633 47.49,28.874 49.145,26.93 41.973,10.854 
				39.096,25.77 			"/>
			<g>
				<path fill="#8EC426" d="M7.022,61.354c-0.296-1.532-1.642-2.691-3.261-2.691S0.796,59.822,0.5,61.354H7.022z"/>
				<path fill="#8EC426" d="M12.248,61.354c-0.296-1.532-1.643-2.691-3.262-2.691s-2.965,1.159-3.261,2.691H12.248z"/>
				<path fill="#8EC426" d="M17.474,61.354c-0.297-1.532-1.643-2.691-3.262-2.691s-2.965,1.159-3.263,2.691H17.474z"/>
				<path fill="#8EC426" d="M22.698,61.354c-0.296-1.532-1.642-2.691-3.261-2.691c-1.62,0-2.966,1.159-3.262,2.691H22.698z"/>
				<path fill="#8EC426" d="M27.924,61.354c-0.297-1.532-1.643-2.691-3.262-2.691s-2.965,1.159-3.262,2.691H27.924z"/>
				<path fill="#8EC426" d="M33.148,61.354c-0.297-1.532-1.642-2.691-3.262-2.691c-1.619,0-2.965,1.159-3.261,2.691H33.148z"/>
				<path fill="#8EC426" d="M38.374,61.354c-0.296-1.532-1.643-2.691-3.262-2.691s-2.965,1.159-3.261,2.691H38.374z"/>
				<path fill="#8EC426" d="M43.6,61.354c-0.297-1.532-1.643-2.691-3.262-2.691s-2.965,1.159-3.262,2.691H43.6z"/>
				<path fill="#8EC426" d="M48.824,61.354c-0.296-1.532-1.642-2.691-3.262-2.691c-1.619,0-2.965,1.159-3.261,2.691H48.824z"/>
				<path fill="#8EC426" d="M54.05,61.354c-0.297-1.532-1.643-2.691-3.262-2.691s-2.965,1.159-3.261,2.691H54.05z"/>
				<path fill="#8EC426" d="M59.274,61.354c-0.296-1.532-1.642-2.691-3.261-2.691s-2.966,1.159-3.262,2.691H59.274z"/>
				<path fill="#8EC426" d="M64.5,61.354c-0.297-1.532-1.643-2.691-3.262-2.691s-2.965,1.159-3.261,2.691H64.5z"/>
			</g>
			<g>
				<rect x="43.199" y="54.993" fill="#897342" width="1.548" height="6.361"/>
				<polygon fill="#74AA17" points="49.367,56.34 46.798,50.581 48.639,50.581 46.031,44.735 47.488,44.735 43.973,36.854 
					40.458,44.735 41.914,44.735 39.308,50.581 41.148,50.581 38.578,56.34 				"/>
				<polygon fill="#0B8213" points="49.367,56.34 46.798,50.581 48.639,50.581 46.031,44.735 47.488,44.735 43.973,36.854 
					41.834,44.735 43.174,44.735 41.027,50.581 42.916,50.581 40.643,56.34 				"/>
			</g>
			<g>
				<path fill="#F2B303" d="M29.917,13.283l-4.901-8.484c-0.412-0.713-1.171-1.152-1.996-1.152h-9.796
					c-0.823,0-1.584,0.439-1.995,1.152l-4.9,8.484c-0.411,0.713-0.411,1.592,0,2.305l4.9,8.485c0.411,0.713,1.172,1.152,1.995,1.152
					h9.796c0.825,0,1.584-0.439,1.996-1.152l4.901-8.485C30.327,14.875,30.327,13.996,29.917,13.283z"/>
				<path fill="#FFC022" d="M21.887,3.646h-8.663c-0.823,0-1.584,0.439-1.995,1.152l-4.9,8.484c-0.411,0.713-0.411,1.592,0,2.305
					l2.197,3.805h8.662c0.824,0,1.584-0.439,1.996-1.152l4.9-8.485c0.41-0.713,0.41-1.592,0-2.305L21.887,3.646z"/>
			</g>
		</g>
		<path fill="#B7EDE7" d="M16.538,34.967l-0.978-1.693c-0.082-0.143-0.233-0.23-0.398-0.23h-1.088L13.05,31.27
			c-0.123-0.213-0.349-0.344-0.595-0.344H9.539c-0.245,0-0.472,0.131-0.594,0.344l-0.682,1.179H7.072
			c-0.135,0-0.26,0.071-0.326,0.188l-0.801,1.387c-0.066,0.117-0.066,0.26,0,0.377l0.801,1.387c0.066,0.115,0.191,0.188,0.326,0.188
			H8.35l0.596,1.032c0.122,0.212,0.349,0.343,0.594,0.343h2.916c0.159,0,0.298-0.07,0.418-0.166
			c0.086,0.098,0.201,0.166,0.334,0.166h1.955c0.165,0,0.316-0.088,0.398-0.229l0.978-1.693
			C16.621,35.285,16.621,35.11,16.538,34.967z"/>
		<path fill="#B7EDE7" d="M20.553,32.985l0.498-0.862c0.042-0.072,0.119-0.117,0.203-0.117h0.555l0.521-0.903
			c0.062-0.109,0.178-0.176,0.303-0.176h1.486c0.125,0,0.24,0.066,0.303,0.176l0.346,0.6h0.608c0.068,0,0.132,0.037,0.166,0.097
			l0.407,0.706c0.035,0.061,0.035,0.133,0,0.192l-0.407,0.707c-0.034,0.059-0.098,0.095-0.166,0.095h-0.651l-0.303,0.526
			c-0.062,0.108-0.178,0.175-0.303,0.175h-1.486c-0.082,0-0.151-0.036-0.213-0.085c-0.043,0.05-0.103,0.085-0.17,0.085h-0.996
			c-0.084,0-0.161-0.045-0.203-0.117l-0.498-0.863C20.51,33.147,20.51,33.058,20.553,32.985z"/>
	</g>
</g>
<g id="nyt_x5F_exporter_x5F_info" display="none">
	<text transform="matrix(1 0 0 1 -129 0)" display="inline"><tspan x="0" y="0" font-family="'MyriadPro-Regular'" font-size="12">&lt;nyt_prefs&gt;</tspan><tspan x="0" y="14.4" font-family="'MyriadPro-Regular'" font-size="12">  &lt;nyt_prefix/&gt;</tspan><tspan x="0" y="28.8" font-family="'MyriadPro-Regular'" font-size="12">  &lt;nyt_suffix/&gt;</tspan><tspan x="0" y="43.2" font-family="'MyriadPro-Regular'" font-size="12">  &lt;nyt_base_path&gt;~/Desktop&lt;/nyt_base_path&gt;</tspan><tspan x="0" y="57.6" font-family="'MyriadPro-Regular'" font-size="12">  &lt;nyt_scaling&gt;100%&lt;/nyt_scaling&gt;</tspan><tspan x="0" y="72" font-family="'MyriadPro-Regular'" font-size="12">  &lt;nyt_transparency&gt;true&lt;/nyt_transparency&gt;</tspan><tspan x="0" y="86.4" font-family="'MyriadPro-Regular'" font-size="12">  &lt;nyt_format&gt;PNG 24&lt;/nyt_format&gt;</tspan><tspan x="0" y="100.8" font-family="'MyriadPro-Regular'" font-size="12">  &lt;nyt_export_code&gt;artboards&lt;/nyt_export_code&gt;</tspan><tspan x="0" y="115.2" font-family="'MyriadPro-Regular'" font-size="12">&lt;/nyt_prefs&gt;</tspan></text>
</g>
</svg>
