<?xml version="1.0" encoding="utf-8"?>
<!-- Generator: Adobe Illustrator 16.0.0, SVG Export Plug-In . SVG Version: 6.00 Build 0)  -->
<!DOCTYPE svg PUBLIC "-//W3C//DTD SVG 1.1//EN" "http://www.w3.org/Graphics/SVG/1.1/DTD/svg11.dtd">
<svg version="1.1" id="Layer_1" xmlns="http://www.w3.org/2000/svg" xmlns:xlink="http://www.w3.org/1999/xlink" x="0px" y="0px"
	 width="64px" height="64px" viewBox="0 0 64 64" enable-background="new 0 0 64 64" xml:space="preserve">
<g>
	<circle fill="#0C86BC" cx="32" cy="33.3" r="28.6"/>
	<path fill="#086DA0" d="M32,4.7c15.8,0,28.6,12.8,28.6,28.6c0,15.8-12.8,28.6-28.6,28.6"/>
	<path fill="#6293A0" d="M44.9,55.6c0,2.7-2.2,4.9-4.9,4.9H23.9c-2.7,0-4.9-2.2-4.9-4.9l0,0c0-2.7,2.2-4.9,4.9-4.9h16.1
		C42.8,50.8,44.9,52.9,44.9,55.6L44.9,55.6z"/>
	<path fill="#BDD5DB" d="M62,63c-0.4-5-4.6-9-9.8-9H11.8c-5.2,0-9.4,4-9.8,9H62z"/>
	<path fill="#87B6C1" d="M2,63h60c-0.4-5-4.6-9-9.8-9H12"/>
	<path fill="#0B6382" d="M38,56.8c0,1.7-1.6,3.2-3.3,3.2h-5.3c-1.7,0-3.3-1.5-3.3-3.2V22.2c0-1.7,1.6-3.2,3.3-3.2h5.3
		c1.7,0,3.3,1.5,3.3,3.2V56.8z"/>
	<path fill="#00233F" d="M26,22.2c0-1.7,1.6-3.2,3.3-3.2h5.3c1.7,0,3.3,1.5,3.3,3.2v34.6c0,1.7-1.6,3.2-3.3,3.2H29"/>
	<g>
		<g>
			<ellipse fill="#0B6382" cx="14.2" cy="27.2" rx="6.3" ry="6.8"/>
			<ellipse fill="#00233F" cx="14.8" cy="27.2" rx="5.7" ry="6.8"/>
			<circle fill="#00FFF2" cx="10.5" cy="27.2" r="0.5"/>
			<polygon fill="#87B6C1" points="12,30.1 10.1,29 12,27.9 			"/>
		</g>
		<g>
			<ellipse fill="#0B6382" cx="49.8" cy="27.2" rx="6.3" ry="6.8"/>
			<ellipse fill="#00233F" cx="49.2" cy="27.2" rx="5.7" ry="6.8"/>
			<circle fill="#00FFF2" cx="53.5" cy="27.2" r="0.5"/>
			<polygon fill="#87B6C1" points="52,30.1 53.9,29 52,27.9 			"/>
		</g>
	</g>
	<g>
		<path fill="#BDD5DB" d="M52,39c0,5.8-1.5,10-7.2,10H20.1c-5.8,0-8.1-4.2-8.1-10V11.4C12,5.6,16.9,1,22.6,1h18.8
			C47.1,1,52,5.6,52,11.4V39z"/>
		<path fill="#87B6C1" d="M23,1h18.4C47.1,1,52,5.6,52,11.4V39c0,5.8-1.5,10-7.2,10H20"/>
		<path fill="#6293A0" d="M41.5,1C47.2,1,52,5.6,52,11.4V39c0,5.8-1.5,10-7.2,10"/>
		<g>
			<g>
				<g>
					<g>
						<circle fill="#6293A0" cx="20.7" cy="31.8" r="5.4"/>
						<circle fill="#0B6382" cx="20.7" cy="30.6" r="5.4"/>
						<path fill="#00233F" d="M17,26.8c2.1-2.1,5.5-2.1,7.6,0c2.1,2.1,2.1,5.5,0,7.6"/>
						<g>
							<circle fill="#13D1BA" cx="20.7" cy="30.6" r="3.7"/>
							<path fill="#0FAAA6" d="M20.7,26.9c2,0,3.7,1.7,3.7,3.7c0,2-1.7,3.7-3.7,3.7"/>
						</g>
						<g opacity="0.6">
							<circle fill="#13D1BA" cx="20.7" cy="30.6" r="2.4"/>
							<path fill="#0FAAA6" d="M19.1,32.3c-0.9-0.9-0.9-2.4,0-3.4c0.9-0.9,2.4-0.9,3.4,0"/>
						</g>
						<g opacity="0.6">
							<path fill="#13D1BA" d="M19.1,32.3c-0.9-0.9-0.9-2.4,0-3.4c0.9-0.9,2.4-0.9,3.4,0c0.9,0.9,0.9,2.4,0,3.4
								C21.5,33.2,20,33.2,19.1,32.3z"/>
							<path fill="#0FAAA6" d="M22.4,32.3c-0.9,0.9-2.4,0.9-3.4,0c-0.9-0.9-0.9-2.4,0-3.4"/>
						</g>
						<circle fill="#F0FFFD" cx="19.8" cy="29.6" r="0.8"/>
						<circle fill="#F0FFFD" cx="21.4" cy="31.1" r="0.1"/>
						<circle fill="#F0FFFD" cx="22.1" cy="31.9" r="0.3"/>
					</g>
					<g>
						<g>
							<circle fill="#F2F4DC" cx="20.1" cy="26.2" r="0.1"/>
							<circle fill="#F2F4DC" cx="20.7" cy="26.2" r="0.1"/>
							<circle fill="#F2F4DC" cx="21.4" cy="26.2" r="0.1"/>
						</g>
						<g>
							<circle fill="#F2F4DC" cx="20.1" cy="35.4" r="0.1"/>
							<circle fill="#F2F4DC" cx="20.7" cy="35.4" r="0.1"/>
							<circle fill="#F2F4DC" cx="21.4" cy="35.4" r="0.1"/>
						</g>
					</g>
				</g>
				<g>
					<polygon fill="#6293A0" points="25,19.4 20.5,22.7 16,19.4 16,16.9 25,18.7 					"/>
					<polygon fill="#0B6382" points="25,19 16,19 16,16.7 25,18.7 					"/>
					<polyline fill="#00233F" points="16,16.7 25,18.7 25,19 21,19 					"/>
				</g>
			</g>
			<g>
				<g>
					<g>
						<circle fill="#BDD5DB" cx="43.3" cy="31.8" r="5.4"/>
						<circle fill="#0B6382" cx="43.3" cy="30.6" r="5.4"/>
						<path fill="#00233F" d="M47,26.8c-2.1-2.1-5.5-2.1-7.6,0c-2.1,2.1-2.1,5.5,0,7.6"/>
						<g>
							<circle fill="#13D1BA" cx="43.3" cy="30.6" r="3.7"/>
							<path fill="#0FAAA6" d="M43.3,26.9c-2,0-3.7,1.7-3.7,3.7c0,2,1.7,3.7,3.7,3.7"/>
						</g>
						<g opacity="0.6">
							<circle fill="#13D1BA" cx="43.3" cy="30.6" r="2.4"/>
							<path fill="#0FAAA6" d="M44.9,32.3c0.9-0.9,0.9-2.4,0-3.4c-0.9-0.9-2.4-0.9-3.4,0"/>
						</g>
						<g opacity="0.6">
							<path fill="#13D1BA" d="M44.9,32.3c0.9-0.9,0.9-2.4,0-3.4c-0.9-0.9-2.4-0.9-3.4,0c-0.9,0.9-0.9,2.4,0,3.4
								C42.5,33.2,44,33.2,44.9,32.3z"/>
							<path fill="#0FAAA6" d="M41.6,32.3c0.9,0.9,2.4,0.9,3.4,0c0.9-0.9,0.9-2.4,0-3.4"/>
						</g>
						<circle fill="#F0FFFD" cx="44.2" cy="29.6" r="0.8"/>
						<circle fill="#F0FFFD" cx="42.6" cy="31.1" r="0.1"/>
						<circle fill="#F0FFFD" cx="41.9" cy="31.9" r="0.3"/>
					</g>
					<g>
						<g>
							<circle fill="#F2F4DC" cx="43.9" cy="26.2" r="0.1"/>
							<circle fill="#F2F4DC" cx="43.3" cy="26.2" r="0.1"/>
							<circle fill="#F2F4DC" cx="42.6" cy="26.2" r="0.1"/>
						</g>
						<g>
							<circle fill="#F2F4DC" cx="43.9" cy="35.4" r="0.1"/>
							<circle fill="#F2F4DC" cx="43.3" cy="35.4" r="0.1"/>
							<circle fill="#F2F4DC" cx="42.6" cy="35.4" r="0.1"/>
						</g>
					</g>
				</g>
				<g>
					<polygon fill="#6293A0" points="39,19.4 43.5,22.7 48,19.4 48,16.9 39,18.7 					"/>
					<polygon fill="#0B6382" points="39,19 48,19 48,16.7 39,18.7 					"/>
					<polyline fill="#00233F" points="48,16.7 39,18.7 39,19 43,19 					"/>
				</g>
			</g>
		</g>
	</g>
	<path fill="#6293A0" d="M36.8,41c0,1.1-0.9,2-2,3h-5.7c-1.1-1-2-1.9-2-3l0,0c0-1.1,0.9-2,2-3h5.7C35.9,39,36.8,39.9,36.8,41
		L36.8,41z"/>
	<path fill="#00FFF2" d="M37,41c0,1.1-0.9,2-2,2H29c-1.1,0-2-0.9-2-2V41c0-1.1,0.9-2,2-2H35C36.1,39,37,39.9,37,41L37,41z"/>
	<g>
		<rect x="31" y="12" fill="#00FFF2" width="2" height="2"/>
		<path fill="#00FFF2" d="M33,6V3.8c0-0.4-0.6-0.7-1-0.7s-1,0.3-1,0.7V6H33z"/>
		<rect x="31" y="8" fill="#00FFF2" width="2" height="2"/>
		<rect x="31" y="16" fill="#00FFF2" width="2" height="2"/>
	</g>
	<path fill="#00D8DD" d="M37,41c0-1-0.5-2-2-2H29c-1.3,0-1.9,1-2,2H37z"/>
	<g>
		<path fill="#BDD5DB" d="M26.2,37.5c0,0.9-0.7,1.5-1.6,1.5h-7.5c-0.9,0-1.6-0.6-1.6-1.5l0,0c0-0.9,0.7-1.5,1.6-1.5h7.5
			C25.5,36,26.2,36.6,26.2,37.5L26.2,37.5z"/>
		<path fill="#6293A0" d="M48.5,37.5c0,0.9-0.7,1.5-1.6,1.5h-7.5c-0.9,0-1.6-0.6-1.6-1.5l0,0c0-0.9,0.7-1.5,1.6-1.5h7.5
			C47.8,36,48.5,36.6,48.5,37.5L48.5,37.5z"/>
	</g>
	<g>
		<rect x="31" y="19" fill="#00FFF2" width="2" height="4"/>
		<path fill="#00FFF2" d="M31,26v-1.3c0-0.4,0.6-0.7,1-0.7s1,0.3,1,0.7V26h2.3L32,22.3L28.7,26H31z"/>
	</g>
	<polygon fill="#BDD5DB" points="24.3,36 31.9,28.5 26,38.2 	"/>
	<polygon fill="#6293A0" points="39.6,36 32.1,28.5 38,38.2 	"/>
	<path fill="#87B6C1" d="M37.5,51.5c0,0.1-0.1,0.2-0.2,0.2H26.7c-0.1,0-0.2-0.1-0.2-0.2l0,0c0-0.1,0.1-0.2,0.2-0.2h10.6
		C37.4,51.2,37.5,51.3,37.5,51.5L37.5,51.5z"/>
	<path fill="#87B6C1" d="M37.5,54.2c0,0.1-0.1,0.2-0.2,0.2H26.7c-0.1,0-0.2-0.1-0.2-0.2l0,0c0-0.1,0.1-0.2,0.2-0.2h10.6
		C37.4,54,37.5,54,37.5,54.2L37.5,54.2z"/>
	<path fill="#87B6C1" d="M37.5,56.9c0,0.1-0.1,0.2-0.2,0.2H26.7c-0.1,0-0.2-0.1-0.2-0.2l0,0c0-0.1,0.1-0.2,0.2-0.2h10.6
		C37.4,56.7,37.5,56.7,37.5,56.9L37.5,56.9z"/>
	<g>
		<g>
			<g>
				<path fill="#00FFF2" d="M25.1,56.5c0,0.3-0.2,0.5-0.5,0.5h-8.1c-0.3,0-0.5-0.2-0.5-0.5l0,0c0-0.3,0.2-0.5,0.5-0.5h8.1
					C24.9,56,25.1,56.2,25.1,56.5L25.1,56.5z"/>
				<path fill="#00FFF2" d="M16.7,56.2c0.2,0.2,0.3,0.4,0.2,0.5L14,59.7c-0.1,0.1-0.3,0-0.5-0.2l0,0c-0.2-0.2-0.3-0.4-0.2-0.5
					l2.9-2.9C16.3,56,16.6,56.1,16.7,56.2L16.7,56.2z"/>
			</g>
			<circle fill="#00FFF2" cx="12.2" cy="61" r="0.9"/>
		</g>
		<g>
			<g>
				<path fill="#00FFF2" d="M48,56.5c0-0.3-0.2-0.5-0.5-0.5h-8c-0.3,0-0.5,0.2-0.5,0.5l0,0c0,0.3,0.2,0.5,0.5,0.5h8
					C47.8,57,48,56.8,48,56.5L48,56.5z"/>
				<path fill="#00FFF2" d="M47.3,56.2c-0.2,0.2-0.3,0.4-0.2,0.5l2.9,2.9c0.1,0.1,0.3,0,0.5-0.2l0,0c0.2-0.2,0.3-0.4,0.2-0.5
					l-2.9-2.9C47.7,56,47.4,56.1,47.3,56.2L47.3,56.2z"/>
			</g>
			<circle fill="#00FFF2" cx="51.8" cy="61" r="0.9"/>
		</g>
	</g>
</g>
</svg>
