<?xml version="1.0" encoding="utf-8"?>
<!-- Generator: Adobe Illustrator 16.0.0, SVG Export Plug-In . SVG Version: 6.00 Build 0)  -->
<!DOCTYPE svg PUBLIC "-//W3C//DTD SVG 1.1//EN" "http://www.w3.org/Graphics/SVG/1.1/DTD/svg11.dtd">
<svg version="1.1" id="Layer_1" xmlns="http://www.w3.org/2000/svg" xmlns:xlink="http://www.w3.org/1999/xlink" x="0px" y="0px"
	 width="65px" height="65px" viewBox="0 0 65 65" enable-background="new 0 0 65 65" xml:space="preserve">
<g>
	<g>
		<g>
			<g>
				<g>
					<g>
						<path fill="#2E4449" d="M37.064,30.862c-0.111,1.912-2.661,3.317-5.694,3.143c-3.031-0.179-17.868-2.603-17.76-4.515
							c0.115-1.913,15.137-2.588,18.168-2.409C34.809,27.257,37.176,28.95,37.064,30.862z"/>
					</g>
					<g>
						<path fill="#2E4449" d="M35.898,30.074c0.111-1.912,2.66-3.316,5.695-3.143c3.031,0.18,17.867,2.604,17.759,4.516
							c-0.115,1.912-15.137,2.588-18.168,2.408C38.153,33.68,35.786,31.986,35.898,30.074z"/>
					</g>
					<g>
						<path fill="#107889" d="M33.606,46.446c0,2.476-2.008,15.827-4.486,15.827c-2.475,0-4.482-13.352-4.482-15.827
							s2.008-4.484,4.482-4.484C31.599,41.962,33.606,43.971,33.606,46.446z"/>
						<path fill="#107889" d="M48.632,46.446c0,2.476-2.008,15.827-4.486,15.827c-2.475,0-4.482-13.352-4.482-15.827
							s2.008-4.484,4.482-4.484C46.624,41.962,48.632,43.971,48.632,46.446z"/>
					</g>
					<path fill="#2E4449" d="M49.284,40.521c0,16.038-5.662,10.697-12.65,10.697c-6.986,0-12.65,5.341-12.65-10.697
						c0-9.17,5.666-16.603,12.65-16.603C43.62,23.919,49.284,31.352,49.284,40.521z"/>
					<g>
						<path fill="#BAAEB3" d="M34.167,62.354c0,1.896-2.26,2.146-5.045,2.146s-5.045-0.249-5.045-2.146
							c0-1.897,2.26-4.508,5.045-4.508S34.167,60.457,34.167,62.354z"/>
						<path fill="#9E9297" d="M34.167,62.354c0,1.896-2.26,2.146-5.045,2.146s-5.045-0.249-5.045-2.146"/>
					</g>
					<g>
						<path fill="#BAAEB3" d="M49.192,62.354c0,1.896-2.26,2.146-5.045,2.146s-5.045-0.249-5.045-2.146
							c0-1.897,2.26-4.508,5.045-4.508S49.192,60.457,49.192,62.354z"/>
						<path fill="#9E9297" d="M49.192,62.354c0,1.896-2.26,2.146-5.045,2.146s-5.045-0.249-5.045-2.146"/>
					</g>
					<g>
						<path fill="#CE5715" d="M53.005,16.275c0,7.999-7.33,12.02-16.369,12.02c-9.041,0-16.373-4.021-16.373-12.02
							c0-8.001,7.332-15.775,16.373-15.775C45.675,0.5,53.005,8.274,53.005,16.275z"/>
						<path fill="#F9A9A0" d="M53.005,16.275c0,7.999-7.33,12.02-16.369,12.02c-9.041,0-16.373-4.021-16.373-12.02
							c0-8.001,5.143-11.942,14.184-11.942C43.485,4.333,53.005,8.274,53.005,16.275z"/>
						<path fill="#FF9997" d="M53.005,16.275c0,7.999-7.33,12.02-16.369,12.02c-9.041,0-16.373-4.021-16.373-12.02"/>
					</g>
					<g>
						<g>
							<circle fill="#113E49" cx="26.475" cy="18.32" r="1.464"/>
							<path d="M27.938,18.32c0,0.811-0.656,1.465-1.465,1.465s-1.463-0.654-1.463-1.465"/>
							<g>
								<path fill="#FFD3C5" d="M29.362,21.374c-0.078,0-0.158-0.028-0.219-0.091c-0.715-0.714-1.664-1.107-2.672-1.107H26.47
									c-1.008,0-1.955,0.394-2.666,1.106c-0.121,0.121-0.316,0.124-0.436,0.001c-0.121-0.117-0.125-0.312-0.004-0.434
									c0.83-0.831,1.932-1.29,3.105-1.29h0.002c1.176,0,2.279,0.456,3.111,1.288c0.119,0.119,0.119,0.318,0,0.436
									C29.522,21.346,29.444,21.374,29.362,21.374z"/>
							</g>
						</g>
						<g>
							<circle fill="#113E49" cx="42.045" cy="18.32" r="1.464"/>
							<path d="M40.581,18.32c0,0.811,0.654,1.465,1.465,1.465c0.809,0,1.463-0.654,1.463-1.465"/>
							<g>
								<path fill="#FFD3C5" d="M39.157,21.374c0.076,0,0.156-0.028,0.217-0.091c0.715-0.714,1.664-1.107,2.672-1.107h0.002
									c1.008,0,1.957,0.394,2.668,1.106c0.119,0.121,0.314,0.124,0.436,0.001c0.121-0.117,0.123-0.312,0.002-0.434
									c-0.826-0.831-1.932-1.29-3.105-1.29h-0.002c-1.174,0-2.277,0.456-3.111,1.288c-0.117,0.119-0.117,0.318,0,0.436
									C38.997,21.346,39.075,21.374,39.157,21.374z"/>
							</g>
						</g>
					</g>
				</g>
			</g>
		</g>
	</g>
	<g>
		<g>
			<ellipse fill="#E87118" cx="14.076" cy="45.852" rx="8.429" ry="6.079"/>
		</g>
		<path fill="#F29C11" d="M14.077,31.009c-3.621,0-6.557,2.117-6.557,4.729c0,0.521,0.123,1.023,0.34,1.493
			c0.133,0.649,0.299,1.39,0.299,2.173c-0.002,0.855-0.416,1.549-0.848,2.095c-0.307,0.298-0.574,0.614-0.801,0.949
			c-0.029,0.04-0.057,0.079-0.078,0.116c-0.5,0.776-0.785,1.639-0.785,2.55c0,3.358,3.773,6.081,8.43,6.079
			c4.655,0,8.428-2.721,8.428-6.079c0-0.913-0.287-1.776-0.787-2.553c-0.021-0.034-0.045-0.07-0.071-0.108
			c-0.229-0.338-0.499-0.657-0.808-0.955c-0.43-0.547-0.845-1.24-0.845-2.094c0-0.783,0.164-1.52,0.298-2.17
			c0.219-0.471,0.341-0.972,0.341-1.496C20.633,33.126,17.698,31.009,14.077,31.009z"/>
		<path fill="#F29C11" d="M14.077,31.009c-3.621,0-6.557,2.117-6.557,4.729c0,0.521,0.123,1.023,0.34,1.493
			c0.133,0.649,0.299,1.39,0.299,2.173c-0.002,0.855-0.416,1.549-0.848,2.095c-0.307,0.298-0.574,0.614-0.801,0.949
			c-0.029,0.04-0.057,0.079-0.078,0.116c-0.5,0.776-0.785,1.639-0.785,2.55c0,3.358,3.773,6.081,8.43,6.079
			c4.655,0,8.428-2.721,8.428-6.079c0-0.913-0.287-1.776-0.787-2.553c-0.021-0.034-0.045-0.07-0.071-0.108
			c-0.229-0.338-0.499-0.657-0.808-0.955c-0.43-0.547-0.845-1.24-0.845-2.094c0-0.783,0.164-1.52,0.298-2.17
			c0.219-0.471,0.341-0.972,0.341-1.496C20.633,33.126,17.698,31.009,14.077,31.009z"/>
		<path fill="#F4B831" d="M7.521,35.737c0,0.521,0.123,1.023,0.34,1.493c0.133,0.649,0.299,1.39,0.299,2.173
			c-0.002,0.855-0.416,1.549-0.848,2.095c-0.307,0.298-0.574,0.614-0.801,0.949c-0.029,0.04-0.057,0.079-0.078,0.116
			c-0.5,0.776-0.785,1.639-0.785,2.55c0,1.523,0.781,2.911,2.063,3.978l12.885-12.885c0.022-0.154,0.037-0.311,0.037-0.469
			c0-2.611-2.935-4.729-6.556-4.729S7.521,33.126,7.521,35.737z"/>
		<g>
			<path d="M16.11,34.89c-0.002,0.72-1.233,0.651-1.953,0.651h-0.162c-0.72,0-1.951,0.067-1.951-0.651l0.65-15.778
				c0-0.72,0.582-1.302,1.301-1.302h0.164c0.718,0,1.3,0.582,1.3,1.302L16.11,34.89z"/>
			<path d="M16.136,18.27c0,0.718-0.582,1.302-1.299,1.302h-1.52c-0.719,0-1.301-0.582-1.301-1.302v-3.253
				c0-0.718,0.581-1.301,1.301-1.301h1.518c0.719,0,1.301,0.583,1.301,1.303V18.27z"/>
		</g>
		<g>
			<path fill="#3A382D" d="M16.11,34.208c0,0.719-1.232,0.652-1.953,0.652h-0.162c-0.72,0-1.951,0.066-1.951-0.652l0.65-15.777
				c0-0.719,0.582-1.302,1.301-1.302h0.162c0.72,0,1.302,0.583,1.302,1.302L16.11,34.208z"/>
			<path fill="#3A382D" d="M16.136,17.589c0,0.72-0.582,1.302-1.299,1.302h-1.52c-0.719,0-1.302-0.582-1.301-1.302v-3.252
				c-0.001-0.72,0.582-1.303,1.301-1.303h1.52c0.717,0,1.299,0.583,1.299,1.301V17.589z"/>
		</g>
		<circle fill="#895B19" cx="14.077" cy="39.259" r="2.725"/>
		<path fill="#6D450F" d="M14.077,37.442c1.348,0,2.461,0.983,2.678,2.27c0.025-0.148,0.045-0.298,0.047-0.453
			c-0.002-1.506-1.221-2.725-2.725-2.725c-1.506,0-2.726,1.219-2.726,2.725c0,0.155,0.022,0.305,0.046,0.454
			C11.614,38.426,12.728,37.442,14.077,37.442z"/>
		<path fill="#442909" d="M17.12,45.503c0,0.458,0.31,0.83-0.148,0.83h-5.79c-0.458,0-0.149-0.372-0.149-0.83l0,0
			c0-0.459,0.371-0.83,0.83-0.83h4.428C16.749,44.673,17.12,45.044,17.12,45.503L17.12,45.503z"/>
		<path fill="#6D450F" d="M17.12,45.169c0,0.459,0.31,0.832-0.148,0.832l-5.791-0.002c-0.459,0.002-0.148-0.371-0.148-0.83l0,0
			c0-0.459,0.373-0.83,0.83-0.83h4.428C16.749,44.339,17.12,44.71,17.12,45.169L17.12,45.169z"/>
		<g>
			<g>
				<path fill="#E87118" d="M11.649,14.185c0,0.188-0.152,0.34-0.34,0.34l0,0c-0.189,0-0.342-0.152-0.342-0.34v-0.229
					c0-0.188,0.152-0.34,0.342-0.34l0,0c0.188,0,0.34,0.152,0.34,0.34V14.185z"/>
				<path fill="#E87118" d="M11.649,15.547c0,0.187-0.152,0.339-0.34,0.339l0,0c-0.189,0-0.342-0.152-0.342-0.339v-0.229
					c0-0.187,0.154-0.34,0.342-0.34l0,0c0.188,0,0.34,0.153,0.34,0.341V15.547z"/>
				<path fill="#E87118" d="M11.649,16.908c0,0.188-0.152,0.341-0.34,0.341l0,0c-0.189,0-0.342-0.152-0.342-0.341v-0.228
					c0-0.188,0.152-0.34,0.342-0.341l0,0c0.188,0,0.34,0.153,0.342,0.341L11.649,16.908z"/>
			</g>
			<g>
				<path fill="#E87118" d="M17.185,14.185c0,0.188-0.153,0.34-0.342,0.34l0,0c-0.188,0-0.34-0.152-0.34-0.342v-0.226
					c0-0.189,0.152-0.341,0.34-0.341l0,0c0.188,0,0.342,0.151,0.342,0.341V14.185z"/>
				<path fill="#E87118" d="M17.185,15.546c0,0.188-0.152,0.34-0.34,0.34l0,0c-0.189,0-0.342-0.152-0.342-0.34v-0.227
					c0-0.188,0.152-0.341,0.34-0.341l0,0c0.188,0,0.342,0.153,0.342,0.341V15.546z"/>
				<path fill="#E87118" d="M17.185,16.907c0,0.189-0.152,0.342-0.342,0.342l0,0c-0.188,0-0.34-0.152-0.34-0.341v-0.228
					c0-0.188,0.152-0.34,0.34-0.341l0,0c0.188,0.001,0.342,0.153,0.342,0.341V16.907z"/>
			</g>
		</g>
		<path fill="#F29C11" d="M14.991,18.817c0.001,0.059-0.047,0.105-0.107,0.105h-1.617c-0.059,0-0.104-0.047-0.105-0.105l0,0
			c0-0.059,0.047-0.107,0.107-0.107h1.615C14.942,18.71,14.991,18.759,14.991,18.817L14.991,18.817z"/>
		<circle fill="#DDD3C3" cx="14.076" cy="21.052" r="0.212"/>
		<circle fill="#DDD3C3" cx="14.076" cy="23.989" r="0.212"/>
		<path fill="#DDD3C3" d="M14.288,30.12c0,0.117-0.094,0.213-0.211,0.213c-0.117-0.002-0.213-0.096-0.213-0.215
			c-0.002-0.115,0.096-0.211,0.213-0.212C14.194,29.907,14.288,30.003,14.288,30.12z"/>
		<g>
			<circle fill="#DDD3C3" cx="13.629" cy="26.8" r="0.213"/>
			<circle fill="#DDD3C3" cx="14.523" cy="26.8" r="0.214"/>
		</g>
	</g>
	<g>
		<path fill="#107889" d="M41.706,37.111c-0.514,0-0.986,0.169-1.369,0.451c0.289-0.321,0.671-0.565,1.12-0.686
			c1.015-0.271,2.056,0.175,2.579,1.029c0.004-0.217-0.021-0.438-0.08-0.658c-0.331-1.237-1.602-1.971-2.839-1.639
			c-0.497,0.132-0.91,0.418-1.208,0.791c0.195-0.386,0.502-0.722,0.905-0.954c0.911-0.526,2.032-0.363,2.757,0.327
			c-0.051-0.211-0.133-0.418-0.246-0.615c-0.641-1.109-2.059-1.489-3.167-0.85c-0.435,0.251-0.755,0.621-0.948,1.044
			c0.094-0.411,0.293-0.802,0.614-1.122c0.745-0.744,1.868-0.877,2.747-0.397c-0.104-0.19-0.236-0.37-0.396-0.531
			c-0.906-0.905-2.375-0.905-3.279,0c-0.363,0.362-0.578,0.816-0.649,1.287c-0.022-0.431,0.075-0.874,0.308-1.276
			c0.525-0.911,1.578-1.33,2.551-1.096c-0.15-0.156-0.324-0.295-0.521-0.41c-1.109-0.64-2.526-0.26-3.167,0.85
			c-0.257,0.444-0.347,0.938-0.294,1.413c-0.135-0.411-0.155-0.865-0.035-1.315c0.273-1.016,1.18-1.692,2.182-1.717
			c-0.186-0.113-0.39-0.203-0.609-0.262c-1.238-0.332-2.51,0.402-2.84,1.639c-0.135,0.497-0.092,0.998,0.082,1.442
			c-0.236-0.363-0.373-0.796-0.373-1.262c0-1.052,0.7-1.94,1.66-2.224c-0.207-0.062-0.428-0.095-0.656-0.095
			c-1.281,0-2.318,1.038-2.318,2.318c0,0.514,0.169,0.986,0.451,1.37c-0.321-0.289-0.565-0.671-0.686-1.12
			c-0.272-1.017,0.176-2.056,1.03-2.578c-0.218-0.005-0.438,0.019-0.659,0.078c-1.236,0.331-1.971,1.603-1.64,2.841
			c0.134,0.496,0.419,0.909,0.792,1.207c-0.386-0.196-0.722-0.502-0.955-0.906c-0.525-0.911-0.363-2.031,0.328-2.757
			c-0.211,0.051-0.419,0.132-0.615,0.246c-1.109,0.641-1.49,2.059-0.85,3.167c0.251,0.435,0.621,0.755,1.045,0.948
			c-0.411-0.094-0.803-0.294-1.123-0.614c-0.744-0.744-0.877-1.867-0.397-2.747c-0.19,0.104-0.37,0.235-0.532,0.396
			c-0.904,0.905-0.904,2.374,0,3.28c0.364,0.363,0.818,0.578,1.291,0.649c-0.433,0.022-0.877-0.075-1.279-0.308
			c-0.912-0.525-1.33-1.578-1.094-2.551c-0.158,0.148-0.298,0.323-0.412,0.521c-0.641,1.108-0.26,2.526,0.849,3.167
			c0.444,0.257,0.939,0.347,1.413,0.294c-0.411,0.134-0.864,0.154-1.313,0.034c-1.017-0.272-1.694-1.18-1.718-2.181
			c-0.113,0.186-0.203,0.39-0.262,0.609c-0.332,1.236,0.402,2.508,1.639,2.84c0.496,0.133,0.996,0.092,1.441-0.081
			c-0.363,0.235-0.796,0.372-1.261,0.372c-1.052,0-1.94-0.701-2.224-1.662c-0.062,0.209-0.096,0.429-0.096,0.657
			c0,1.28,1.039,2.318,2.319,2.318c0.515,0,0.987-0.17,1.374-0.453c-0.291,0.322-0.674,0.567-1.124,0.688
			c-1.017,0.272-2.056-0.176-2.578-1.029c-0.005,0.217,0.021,0.438,0.079,0.658c0.33,1.236,1.602,1.971,2.84,1.64
			c0.495-0.134,0.908-0.418,1.205-0.79c-0.195,0.385-0.502,0.72-0.904,0.952c-0.911,0.526-2.031,0.362-2.757-0.327
			c0.052,0.211,0.133,0.418,0.247,0.615c0.64,1.109,2.057,1.489,3.167,0.85c0.434-0.251,0.753-0.62,0.946-1.043
			c-0.094,0.41-0.293,0.801-0.613,1.121c-0.744,0.744-1.867,0.876-2.748,0.396c0.104,0.191,0.236,0.371,0.397,0.531
			c0.905,0.906,2.374,0.906,3.279,0c0.364-0.363,0.579-0.818,0.65-1.29c0.023,0.433-0.075,0.876-0.308,1.28
			c-0.525,0.912-1.577,1.33-2.551,1.095c0.15,0.157,0.324,0.296,0.521,0.41c1.108,0.641,2.527,0.261,3.166-0.849
			c0.258-0.444,0.348-0.938,0.296-1.412c0.133,0.411,0.153,0.865,0.033,1.313c-0.272,1.017-1.181,1.693-2.181,1.718
			c0.186,0.113,0.389,0.203,0.609,0.262c1.236,0.331,2.509-0.402,2.84-1.64c0.133-0.496,0.092-0.997-0.082-1.441
			c0.236,0.362,0.373,0.796,0.373,1.261c0,1.053-0.701,1.941-1.662,2.224c0.209,0.062,0.429,0.095,0.656,0.095
			c1.281,0,2.318-1.037,2.318-2.318c0-0.514-0.168-0.987-0.451-1.371c0.322,0.289,0.566,0.672,0.688,1.122
			c0.271,1.017-0.175,2.056-1.029,2.578c0.217,0.005,0.438-0.02,0.658-0.079c1.236-0.331,1.971-1.603,1.641-2.839
			c-0.135-0.497-0.42-0.909-0.793-1.208c0.387,0.197,0.721,0.503,0.953,0.906c0.527,0.911,0.364,2.03-0.326,2.756
			c0.211-0.05,0.418-0.132,0.615-0.246c1.109-0.64,1.489-2.059,0.85-3.167c-0.251-0.435-0.621-0.755-1.045-0.948
			c0.412,0.094,0.803,0.295,1.123,0.614c0.743,0.744,0.876,1.868,0.396,2.748c0.191-0.104,0.369-0.236,0.531-0.397
			c0.906-0.906,0.906-2.373,0-3.279c-0.363-0.363-0.816-0.578-1.287-0.649c0.432-0.022,0.875,0.075,1.277,0.308
			c0.912,0.525,1.33,1.576,1.094,2.551c0.159-0.15,0.297-0.324,0.412-0.521c0.64-1.109,0.26-2.527-0.85-3.167
			c-0.445-0.257-0.939-0.347-1.414-0.294c0.412-0.135,0.865-0.155,1.315-0.035c1.016,0.273,1.692,1.18,1.718,2.182
			c0.113-0.186,0.203-0.39,0.262-0.609c0.332-1.237-0.402-2.508-1.64-2.84c-0.497-0.134-0.999-0.092-1.442,0.082
			c0.363-0.236,0.796-0.374,1.262-0.374c1.053,0,1.94,0.701,2.224,1.662c0.062-0.208,0.095-0.429,0.095-0.656
			C44.024,38.149,42.987,37.111,41.706,37.111z M39.4,39.611c-0.157,0.22-0.28,0.469-0.354,0.744
			c-0.017,0.061-0.023,0.119-0.034,0.179c-0.209,0.172-0.391,0.38-0.534,0.628c-0.03,0.053-0.053,0.107-0.079,0.162
			c-0.246,0.111-0.477,0.266-0.68,0.469c-0.043,0.043-0.079,0.092-0.119,0.137c-0.266,0.045-0.529,0.135-0.775,0.277
			c-0.053,0.03-0.1,0.066-0.149,0.102c-0.269-0.026-0.546-0.008-0.821,0.066c-0.06,0.016-0.115,0.039-0.172,0.059
			c-0.253-0.095-0.525-0.148-0.812-0.148c-0.061,0-0.119,0.008-0.18,0.013c-0.22-0.157-0.469-0.28-0.744-0.354
			c-0.06-0.016-0.119-0.022-0.179-0.034c-0.171-0.208-0.38-0.391-0.628-0.534c-0.053-0.03-0.108-0.054-0.163-0.079
			c-0.112-0.246-0.266-0.477-0.468-0.679c-0.044-0.044-0.092-0.079-0.139-0.119c-0.043-0.267-0.133-0.528-0.275-0.776
			c-0.031-0.053-0.066-0.1-0.102-0.149c0.026-0.269,0.008-0.546-0.066-0.823c-0.016-0.059-0.039-0.114-0.061-0.171
			c0.096-0.253,0.15-0.524,0.15-0.811c0-0.062-0.009-0.12-0.014-0.181c0.157-0.22,0.28-0.469,0.354-0.745
			c0.016-0.06,0.023-0.118,0.034-0.178c0.209-0.171,0.393-0.381,0.535-0.628c0.03-0.054,0.053-0.109,0.079-0.163
			c0.246-0.112,0.477-0.267,0.678-0.468c0.044-0.044,0.08-0.092,0.119-0.137c0.266-0.045,0.529-0.135,0.777-0.277
			c0.053-0.031,0.1-0.067,0.149-0.102c0.269,0.025,0.546,0.008,0.823-0.066c0.059-0.016,0.113-0.039,0.17-0.059
			c0.253,0.094,0.525,0.148,0.811,0.148c0.062,0,0.121-0.009,0.182-0.014c0.219,0.157,0.469,0.28,0.744,0.354
			c0.059,0.017,0.119,0.023,0.178,0.035c0.172,0.208,0.381,0.392,0.629,0.534c0.053,0.03,0.107,0.053,0.162,0.079
			c0.111,0.246,0.268,0.477,0.469,0.678c0.043,0.044,0.092,0.08,0.137,0.119c0.045,0.267,0.134,0.529,0.277,0.777
			c0.03,0.053,0.066,0.1,0.102,0.149c-0.027,0.269-0.008,0.546,0.065,0.822c0.017,0.06,0.04,0.114,0.06,0.171
			c-0.095,0.253-0.148,0.525-0.148,0.812C39.388,39.492,39.396,39.551,39.4,39.611z"/>
		<path fill="#107889" d="M35.702,36.419c-1.121,0-2.029,0.909-2.029,2.03c0,0.051,0.003,0.101,0.007,0.15
			c-0.004,0.05-0.007,0.1-0.007,0.15c0,1.121,0.908,2.029,2.029,2.029s2.029-0.908,2.029-2.029c0-0.051-0.002-0.101-0.006-0.15
			c0.004-0.05,0.006-0.1,0.006-0.15C37.731,37.328,36.823,36.419,35.702,36.419z M35.702,40.113c-0.941,0-1.732-0.643-1.961-1.514
			c0.229-0.871,1.02-1.514,1.961-1.514c0.942,0,1.732,0.643,1.961,1.514C37.435,39.471,36.645,40.113,35.702,40.113z"/>
	</g>
</g>
</svg>
