<?xml version="1.0" encoding="utf-8"?>
<!-- Generator: Adobe Illustrator 16.0.0, SVG Export Plug-In . SVG Version: 6.00 Build 0)  -->
<!DOCTYPE svg PUBLIC "-//W3C//DTD SVG 1.1//EN" "http://www.w3.org/Graphics/SVG/1.1/DTD/svg11.dtd">
<svg version="1.1" id="Layer_1" xmlns="http://www.w3.org/2000/svg" xmlns:xlink="http://www.w3.org/1999/xlink" x="0px" y="0px"
	 width="65px" height="65px" viewBox="0 0 65 65" enable-background="new 0 0 65 65" xml:space="preserve">
<g>
	<path fill="#0058AF" d="M31.105,26.369c1.273,1.432,0.465,4.228-1.805,6.249c-2.27,2.018-14.475,10.794-15.75,9.365
		c-1.271-1.434,8.873-12.532,11.143-14.55C26.961,25.415,29.832,24.938,31.105,26.369z"/>
	<path fill="#0058AF" d="M33.895,26.369c-1.273,1.432-0.465,4.228,1.805,6.249c2.27,2.018,14.475,10.794,15.75,9.365
		c1.271-1.434-8.873-12.532-11.143-14.55C38.039,25.415,35.168,24.938,33.895,26.369z"/>
	<g>
		<g>
			<path fill="#0058AF" d="M44.498,46.446c0,2.476-2.008,15.827-4.486,15.827c-2.475,0-4.482-13.352-4.482-15.827
				s2.008-4.484,4.482-4.484C42.49,41.962,44.498,43.971,44.498,46.446z"/>
			<path fill="#0058AF" d="M29.473,46.446c0,2.476-2.008,15.827-4.486,15.827c-2.475,0-4.482-13.352-4.482-15.827
				s2.008-4.484,4.482-4.484C27.465,41.962,29.473,43.971,29.473,46.446z"/>
			<g>
				<g>
					<path fill="#1267CC" d="M45.15,40.521c0,16.038-5.662,10.697-12.65,10.697c-6.986,0-12.65,5.341-12.65-10.697
						c0-9.17,5.666-16.603,12.65-16.603C39.486,23.919,45.15,31.352,45.15,40.521z"/>
					<path fill="#F9BE03" d="M43.484,45.75c0,1.104-0.896,2-2,2l0,0c-1.104,0-2-0.896-2-2V28.418c0-1.105,0.896-1.834,2-1.834
						l1.25,0.875c1.104,0,0.75,1.687,0.75,2.791V45.75z"/>
					<path fill="#F9BE03" d="M42.211,40.242c0.93,0.93,1.048,2.316,0.268,3.096l0,0c-0.781,0.781-2.168,0.662-3.097-0.268
						L24.803,28.492c-0.929-0.93-0.909-2.176-0.127-2.957l1.619-0.148c0.781-0.78,1.95,0.889,2.878,1.818L42.211,40.242z"/>
					<g>
						<path fill="#F7A006" d="M21.562,54.085c0.699,3.466,1.691,6.945,2.814,7.916h1.219c1.125-0.971,2.119-4.45,2.817-7.916H21.562
							z"/>
						<path fill="#F7A006" d="M36.588,54.085c0.699,3.466,1.691,6.945,2.814,7.916h1.219c1.126-0.971,2.119-4.45,2.816-7.916H36.588
							z"/>
					</g>
					<g>
						<path fill="#F9BE03" d="M30.033,62.354c0,1.896-2.26,2.146-5.045,2.146s-5.045-0.249-5.045-2.146
							c0-1.897,2.26-4.508,5.045-4.508S30.033,60.457,30.033,62.354z"/>
						<path fill="#F7A006" d="M30.033,62.354c0,1.896-2.26,2.146-5.045,2.146s-5.045-0.249-5.045-2.146"/>
					</g>
					<g>
						<path fill="#F9BE03" d="M45.059,62.354c0,1.896-2.26,2.146-5.045,2.146s-5.045-0.249-5.045-2.146
							c0-1.897,2.26-4.508,5.045-4.508S45.059,60.457,45.059,62.354z"/>
						<path fill="#F7A006" d="M45.059,62.354c0,1.896-2.26,2.146-5.045,2.146s-5.045-0.249-5.045-2.146"/>
					</g>
					<g>
						<path fill="#F9A88F" d="M48.871,16.275c0,7.999-7.33,12.02-16.369,12.02c-9.041,0-16.373-4.021-16.373-12.02
							c0-8.001,7.332-15.775,16.373-15.775C41.541,0.5,48.871,8.274,48.871,16.275z"/>
						<path fill="#0058AF" d="M48.871,16.275c0,7.999-7.33,12.02-16.369,12.02c-9.041,0-16.373-4.021-16.373-12.02"/>
					</g>
				</g>
			</g>
			<path fill="#F9BE03" d="M16.113,37.03c-1.823,2.377-3.057,4.396-2.562,4.953c0.485,0.544,2.557-0.393,5.059-1.871l0.293-0.293
				L16.113,37.03z"/>
			<path fill="#F9BE03" d="M46.004,39.882c2.674,1.609,4.936,2.674,5.445,2.102c0.496-0.559-0.746-2.587-2.576-4.971L46.004,39.882z
				"/>
		</g>
		<path fill="#F9A88F" d="M39.875,20.334c0,1.655-1.344,3-3,3h-8.75c-1.656,0-3-1.345-3-3v-5.25c0-1.657,1.344-3,3-3h8.75
			c1.656,0,3,1.343,3,3V20.334z"/>
	</g>
	<path fill="#A53719" d="M20.361,6.001h24.279C41.645,2.723,37.323,0.5,32.502,0.5C27.68,0.5,23.357,2.723,20.361,6.001z"/>
	<g>
		<g>
			<path fill="#FF0000" d="M46,13.001c0,1.104-0.896,2-2,2H21c-1.104,0-2-0.896-2-2v-1.667c0-1.105,0.896-2,2-2h23
				c1.104,0,2,0.895,2,2V13.001z"/>
			<path fill="#CE0000" d="M19,12.441v0.56c0,1.104,0.896,2,2,2h23c1.104,0,2-0.896,2-2v-0.56H19z"/>
			<path fill="#FFE000" d="M44,16.501H21c-1.93,0-3.5-1.57-3.5-3.5v-1.667c0-1.931,1.57-3.5,3.5-3.5h23c1.93,0,3.5,1.569,3.5,3.5
				v1.667C47.5,14.931,45.93,16.501,44,16.501z M21,10.834c-0.275,0-0.5,0.224-0.5,0.5v1.667c0,0.275,0.225,0.5,0.5,0.5h23
				c0.275,0,0.5-0.225,0.5-0.5v-1.667c0-0.276-0.225-0.5-0.5-0.5H21z"/>
		</g>
	</g>
	<path fill="#F7A006" d="M45.833,47.418c0,0.874-0.708,1.582-1.583,1.582h-23.5c-0.875,0-1.584-0.708-1.584-1.582l0,0
		c0-0.876,0.709-1.584,1.584-1.584h23.5C45.125,45.834,45.833,46.542,45.833,47.418L45.833,47.418z"/>
	<g>
		<path fill="#890628" d="M35.688,19.195c0,1.76-1.428,3.188-3.188,3.188s-3.188-1.428-3.188-3.188s1.428-1.562,3.188-1.562
			S35.688,17.436,35.688,19.195z"/>
		<path fill="#B50B30" d="M30.033,21.191c0.584,0.721,1.467,1.191,2.467,1.191s1.882-0.471,2.467-1.191
			C34.382,20.471,33.5,20,32.5,20S30.617,20.471,30.033,21.191z"/>
	</g>
	<path fill="#FFE000" d="M35.75,47.5c0,1.657-1.343,3-3,3h-0.5c-1.657,0-3-1.343-3-3V47c0-1.657,1.343-3,3-3h0.5
		c1.657,0,3,1.343,3,3V47.5z"/>
	<path fill="#FF0000" d="M42.318,35.362c0,0.168-0.137,0.304-0.304,0.304h-1.062c-0.168,0-0.303-0.136-0.303-0.304v-1.061
		c0-0.167,0.135-0.302,0.303-0.302h1.062c0.167,0,0.304,0.135,0.304,0.302V35.362z"/>
</g>
</svg>
