<?xml version="1.0" encoding="utf-8"?>
<!-- Generator: Adobe Illustrator 16.0.0, SVG Export Plug-In . SVG Version: 6.00 Build 0)  -->
<!DOCTYPE svg PUBLIC "-//W3C//DTD SVG 1.1//EN" "http://www.w3.org/Graphics/SVG/1.1/DTD/svg11.dtd">
<svg version="1.1" id="Layer_1" xmlns="http://www.w3.org/2000/svg" xmlns:xlink="http://www.w3.org/1999/xlink" x="0px" y="0px"
	 width="64px" height="64px" viewBox="0 0 64 64" enable-background="new 0 0 64 64" xml:space="preserve">
<g>
	<g>
		<g>
			<path fill="#F7910B" d="M62.3,37.8c0,13-11.9,23.5-30.3,23.5c-18.4,0-30.3-10.5-30.3-23.5S13.6,5.3,32,5.3
				C50.4,5.3,62.3,24.8,62.3,37.8z"/>
		</g>
		<g>
			<path fill="#F7910B" d="M62.3,37.8c0,13-11.9,19.5-30.3,19.5c-18.4,0-30.3-6.5-30.3-19.5S13.6,3.3,32,3.3
				C50.4,3.3,62.3,24.8,62.3,37.8z"/>
		</g>
		<g>
			<path fill="#F9A908" d="M32,3.3c18.4,0,30.3,21.5,30.3,34.5S50.4,57.3,32,57.3"/>
		</g>
		<g>
			<path fill="#F9A908" d="M62.3,37.8c0,13-11.9,19.5-30.3,19.5c-18.4,0-30.3-6.5-30.3-19.5S13.6,5.3,32,5.3
				C50.4,5.3,62.3,24.8,62.3,37.8z"/>
		</g>
		<g>
			<path fill="#F9C55D" d="M1.7,37.8c0-13,11.9-32.5,30.3-32.5"/>
		</g>
		<g>
			<path fill="#F7910B" d="M32,5.3c18.4,0,30.3,19.5,30.3,32.5S50.4,61.3,32,61.3"/>
		</g>
		<g>
			<path fill="#EA7103" d="M32,5.3c18.4,0,30.3,19.5,30.3,32.5"/>
		</g>
		<g>
			<g>
				<g>
					<g>
						<g>
							<g>
								<path fill="#19BCA4" d="M25.9,15.2c0.3,0.8-1.2,0.9-2.9,1.6c-1.7,0.6-2.9,1.6-3.2,0.8c-0.3-0.8,0.8-2,2.5-2.6
									C23.9,14.2,25.5,14.4,25.9,15.2z"/>
							</g>
						</g>
					</g>
				</g>
				<g>
					<g>
						<g>
							<g>
								<path fill="#109DA0" d="M25.9,15.2c0.3,0.8-1.2,0.9-2.9,1.6c-1.7,0.6-2.9,1.6-3.2,0.8"/>
							</g>
						</g>
					</g>
				</g>
			</g>
			<g>
				<g>
					<g>
						<g>
							<g>
								<path fill="#19BCA4" d="M38.1,15.2c-0.3,0.8,1.2,0.9,2.9,1.6c1.7,0.6,2.9,1.6,3.2,0.8c0.3-0.8-0.8-2-2.5-2.6
									C40.1,14.2,38.5,14.4,38.1,15.2z"/>
							</g>
						</g>
					</g>
				</g>
				<g>
					<g>
						<g>
							<g>
								<path fill="#109DA0" d="M38.1,15.2c-0.3,0.8,1.2,0.9,2.9,1.6c1.7,0.6,2.9,1.6,3.2,0.8"/>
							</g>
						</g>
					</g>
				</g>
			</g>
		</g>
		<g>
			<g>
				<path fill="#F9C55D" d="M27.8,31.1c0,1.2-3.5,0.7-7.8,0.7c-4.3,0-7.8,0.6-7.8-0.7c0-1.2,3.5-2.2,7.8-2.2
					C24.3,28.9,27.8,29.8,27.8,31.1z"/>
			</g>
			<g>
				<path fill="#F9A908" d="M51.8,31.1c0,1.2-3.5,0.7-7.8,0.7s-7.8,0.6-7.8-0.7c0-1.2,3.5-2.2,7.8-2.2S51.8,29.8,51.8,31.1z"/>
			</g>
		</g>
		<g>
			<circle fill="#F7910B" cx="10.3" cy="34.7" r="0.6"/>
		</g>
		<g>
			<circle fill="#F7910B" cx="5.8" cy="36.7" r="1.1"/>
		</g>
		<g>
			<circle fill="#F7910B" cx="8.8" cy="32.7" r="0.2"/>
		</g>
		<g>
			<circle fill="#F7910B" cx="13.4" cy="34.5" r="0.2"/>
		</g>
		<g>
			<circle fill="#F9A908" cx="52.6" cy="35.1" r="0.8"/>
		</g>
		<g>
			<circle fill="#F9A908" cx="55.1" cy="36.5" r="0.2"/>
		</g>
		<g>
			<circle fill="#F9A908" cx="49.8" cy="27.6" r="0.3"/>
		</g>
		<g>
			<circle fill="#F9A908" cx="49.3" cy="39.3" r="1.3"/>
		</g>
		<g>
			<circle fill="#F9A908" cx="56.5" cy="39.3" r="0.6"/>
		</g>
		<g>
			<circle fill="#F7910B" cx="9.3" cy="38.8" r="0.5"/>
		</g>
		<g>
			<circle fill="#F7910B" cx="10.1" cy="30.3" r="0.4"/>
		</g>
		<g>
			<circle fill="#F9A908" cx="4.8" cy="16.6" r="1.1"/>
		</g>
		<g>
			<circle fill="#F9A908" cx="8" cy="13" r="0.6"/>
		</g>
		<g>
			<circle fill="#F9A908" cx="59.2" cy="19" r="0.2"/>
		</g>
		<g>
			<circle fill="#F9A908" cx="58.4" cy="16" r="0.8"/>
		</g>
		<g>
			<circle fill="#F9A908" cx="61" cy="16.6" r="0.5"/>
		</g>
		<g>
			<circle fill="#F9A908" cx="6" cy="19.5" r="0.6"/>
		</g>
		<g>
			<g>
				<g>
					<g>
						<g>
							<path fill="#1E4784" d="M40.2,21.9c0.4,0.1,0.8,0.3,1.1,0.7c1.1,1.6,3.4,2,5,0.9c0.8-0.5,1.8-0.3,2.3,0.4
								c0.5,0.7,0.3,1.8-0.4,2.3c-3.1,2.2-7.4,1.4-9.6-1.8c-0.5-0.7-0.3-1.8,0.4-2.3C39.4,21.9,39.8,21.8,40.2,21.9z"/>
						</g>
					</g>
					<g>
						<g>
							<path fill="#02243E" d="M38.6,24.4c-0.5-0.7-0.3-1.8,0.4-2.3c0.4-0.3,0.8-0.3,1.2-0.3c0.4,0.1,0.8,0.3,1.1,0.7
								c1.1,1.6,3.4,2,5,0.9c0.8-0.5,1.8-0.3,2.3,0.4c0.5,0.7,0.3,1.8-0.4,2.3"/>
						</g>
					</g>
				</g>
			</g>
			<g>
				<g>
					<g>
						<g>
							<path fill="#1E4784" d="M23.9,21.9c-0.4,0.1-0.8,0.3-1.1,0.7c-1.1,1.6-3.4,2-5,0.9c-0.8-0.5-1.8-0.3-2.3,0.4
								c-0.5,0.7-0.3,1.8,0.4,2.3c3.1,2.2,7.4,1.4,9.6-1.8c0.5-0.7,0.3-1.8-0.4-2.3C24.8,21.9,24.4,21.8,23.9,21.9z"/>
						</g>
					</g>
					<g>
						<g>
							<path fill="#02243E" d="M25.6,24.4c0.5-0.7,0.3-1.8-0.4-2.3c-0.4-0.3-0.8-0.3-1.2-0.3c-0.4,0.1-0.8,0.3-1.1,0.7
								c-1.1,1.6-3.4,2-5,0.9c-0.8-0.5-1.8-0.3-2.3,0.4c-0.5,0.7-0.3,1.8,0.4,2.3"/>
						</g>
					</g>
				</g>
			</g>
		</g>
	</g>
	<g>
		<g>
			<path fill="#9011BF" d="M49.2,15.6l6.6-9.5V6.1h-6V3.5h10v1.8l-6.4,9.3v0.1h6.5v2.6H49.2V15.6z"/>
		</g>
	</g>
	<g>
		<g>
			<path fill="#BD45F4" d="M41.1,10.7l3.4-4.8v0h-3V4.5h5.1v0.9l-3.3,4.8v0h3.3v1.3h-5.5V10.7z"/>
		</g>
	</g>
	<g>
		<g>
			<path fill="#BD45F4" d="M5.8,10.9l4.4-6.4V4.5h-4V2.7H13V4l-4.3,6.3v0.1H13v1.7H5.8V10.9z"/>
		</g>
	</g>
	<g>
		<g>
			<path fill="#9011BF" d="M11,19.9l2.6-3.8v0h-2.4v-1h4v0.7l-2.6,3.7v0h2.6v1H11V19.9z"/>
		</g>
	</g>
	<g>
		<g>
			<path fill="#F7910B" d="M39.4,34.4c0,2.6-3.3,4.7-7.4,4.7c-4.1,0-7.4-2.1-7.4-4.7"/>
		</g>
		<g>
			<g>
				<path fill="#C42260" d="M39.7,33.1c0,2.3-3.4,3.2-7.6,3.2s-7.6-0.9-7.6-3.2s3.4-3.5,7.6-3.5S39.7,30.7,39.7,33.1z"/>
			</g>
			<g>
				<path fill="#E2446E" d="M39.5,33.7c-0.9-0.1-1.9-0.2-3-0.2c-1.6,0-3.2,0.2-4.5,0.4c-1.3-0.3-2.9-0.4-4.5-0.4c-1,0-2,0.1-3,0.2
					c0.6,1.8,3.7,2.6,7.5,2.6C35.8,36.3,39,35.5,39.5,33.7z"/>
			</g>
			<g>
				<path fill="#99144A" d="M39.4,32c-0.9-1.6-3.8-2.4-7.3-2.4s-6.4,0.8-7.3,2.4H39.4z"/>
			</g>
		</g>
		<g>
			<path fill="#5DD6E2" d="M34.3,36.2c0,0,3.3-2.7,4.9-2.2c0,0,1.4,0.3,1.3,2.8v10.5c0,0,0.2,2.6-1.4,2.3
				c-1.7-0.4-1.4-10.4-1.4-10.4s-1.3,1.6-1.4,0.2C36.2,37,34.3,36.2,34.3,36.2z"/>
		</g>
		<g>
			<path fill="#0EB2CC" d="M39.2,34c0,0,1.4,0.3,1.3,2.8v10.5c0,0,0.2,2.6-1.4,2.3"/>
		</g>
	</g>
</g>
</svg>
