<?xml version="1.0" encoding="utf-8"?>
<!-- Generator: Adobe Illustrator 16.0.0, SVG Export Plug-In . SVG Version: 6.00 Build 0)  -->
<!DOCTYPE svg PUBLIC "-//W3C//DTD SVG 1.1//EN" "http://www.w3.org/Graphics/SVG/1.1/DTD/svg11.dtd">
<svg version="1.1" id="Layer_1" xmlns="http://www.w3.org/2000/svg" xmlns:xlink="http://www.w3.org/1999/xlink" x="0px" y="0px"
	 width="64px" height="64px" viewBox="0 0 64 64" enable-background="new 0 0 64 64" xml:space="preserve">
<g>
	<g>
		<circle fill="#1ABCE8" cx="32" cy="34.1" r="26"/>
		<path fill="#1881EA" d="M6,34.1c0-14.4,11.6-26,26-26s26,11.6,26,26"/>
	</g>
	<g>
		<circle fill="#1C91F2" cx="32" cy="34.1" r="22.8"/>
		<path fill="#1881EA" d="M15.9,18c8.9-8.9,23.3-8.9,32.2,0c8.9,8.9,8.9,23.3,0,32.2"/>
	</g>
	<g>
		<g>
			<path fill="#D81A71" d="M37.9,61.2c0,1-2.6,1.8-5.9,1.8s-5.9-0.8-5.9-1.8s2.6-6.9,5.9-6.9S37.9,60.2,37.9,61.2z"/>
			<path fill="#FF50A8" d="M14.7,23.4c0-8.7,7.8-19.3,17.3-19.3c9.6,0,17.3,10.5,17.3,19.3S41.6,41.8,32,41.8
				C22.4,41.8,14.7,32.1,14.7,23.4z"/>
			<path fill="#EF337F" d="M14.7,23.4c0-8.7,7.8-16.9,17.3-16.9c9.6,0,17.3,8.2,17.3,16.9S41.6,41.8,32,41.8
				C22.4,41.8,14.7,32.1,14.7,23.4z"/>
			<path fill="#D81A71" d="M47.2,34.7c0,6.4-8.2,28-15.2,28s-15.2-21.6-15.2-28S25,21.4,32,21.4S47.2,28.4,47.2,34.7z"/>
			<path fill="#D81A71" d="M39.5,22c0,6.7-4.1,4.4-7.5,4.4c-3.4,0-7.5,2.3-7.5-4.4S28.6,7.4,32,7.4C35.4,7.4,39.5,15.4,39.5,22z"/>
			<g>
				<path fill="#EF337F" d="M25.9,33.1c0,3.3-0.1,7.2-3.3,7.2c-3.3,0-8.5-3.9-8.5-7.2s2.6-7.8,5.9-7.8S25.9,29.9,25.9,33.1z"/>
				<path fill="#D81A71" d="M25.9,33.1c0,3.3-0.1,7.2-3.3,7.2c-3.3,0-8.5-3.9-8.5-7.2s2.9-2.4,6.2-2.4
					C23.5,30.7,25.9,29.9,25.9,33.1z"/>
				<path fill="#EF337F" d="M49.9,33.1c0,3.3-5.2,7.2-8.5,7.2c-3.3,0-3.3-3.9-3.3-7.2s2.6-7.8,5.9-7.8S49.9,29.9,49.9,33.1z"/>
				<path fill="#D81A71" d="M49.9,33.1c0,3.3-5.2,7.2-8.5,7.2c-3.3,0-3.3-3.9-3.3-7.2s2.6-2,5.9-2S49.9,29.9,49.9,33.1z"/>
			</g>
			<g>
				<path fill="#C4126B" d="M30.2,32.5c0,1.5,1,5.6,0.3,5.6s-2.2-3.1-2.2-4.6s0.5-1.4,1.2-1.4S30.2,31.1,30.2,32.5z"/>
				<path fill="#C4126B" d="M33.8,32.5c0,1.5-1,5.6-0.3,5.6c0.7,0,2.2-3.1,2.2-4.6s-0.5-1.4-1.2-1.4S33.8,31.1,33.8,32.5z"/>
			</g>
			<path fill="#C4126B" d="M36.5,39.9c0,0.8-2.7,5.4-4.5,5.4c-1.8,0-4.5-4.5-4.5-5.4s2.7,1.7,4.5,1.7C33.8,41.6,36.5,39.1,36.5,39.9
				z"/>
			<path fill="#AD0B64" d="M36.5,39.9c0,0.8-2.7,3.3-4.5,3.3c-1.8,0-4.5-2.5-4.5-3.3s2.7,2,4.5,2C33.8,41.9,36.5,39.1,36.5,39.9z"/>
			<g>
				<path fill="#EF337F" d="M29.1,38c0.1-0.1,0.3-0.1,0.4-0.2c-0.1,0-0.3-0.1-0.5-0.1c-1,0-1.8,0.7-1.8,1.6c0,0.1,0,0.2,0.1,0.4
					C27.5,39,28.2,38.4,29.1,38z"/>
				<path fill="#EF337F" d="M34.9,38c-0.1-0.1-0.3-0.1-0.4-0.2c0.1,0,0.3-0.1,0.5-0.1c1,0,1.8,0.7,1.8,1.6c0,0.1,0,0.2-0.1,0.4
					C36.5,39,35.8,38.4,34.9,38z"/>
			</g>
			<path fill="#B20D67" d="M36,33.1c0,1-1.8-0.7-4-0.7c-2.2,0-4,1.7-4,0.7c0-1,1.8-3.1,4-3.1C34.2,29.9,36,32,36,33.1z"/>
			<g>
				<g>
					<path fill="#EF337F" d="M24.7,30.7c2.6,0.9,5.5-0.1,4.9,1.3c-0.6,1.4-3.1,3-5.7,2.1c-2.6-0.9-5-4.8-4.1-6
						C21.2,26,22.1,29.8,24.7,30.7z"/>
					<path fill="#B20D67" d="M24.7,31c2.6,0.9,5.5-0.4,4.9,1c-0.6,1.4-3.5,4-6,3.1c-2.6-0.9-3.8-4.9-3.2-6.3
						C20.9,27.5,22.1,30.1,24.7,31z"/>
					<path fill="#591035" d="M24.7,31c2.6,0.9,5.5-0.4,4.9,1c-0.6,1.4-3.1,3-5.7,2.1c-2.6-0.9-4.2-3.9-3.6-5.2
						C20.9,27.5,22.1,30.1,24.7,31z"/>
					<path fill="#1E0313" d="M24.5,33.2c2,0.7,4-0.1,5.1-1.2c0.5-1.3-2.4-0.1-4.9-1c-2-0.7-3.1-2.4-3.9-2.5
						C20.8,30,22.3,32.4,24.5,33.2z"/>
				</g>
				<g>
					<path fill="#EF337F" d="M39.3,30.7c-2.6,0.9-5.5-0.1-4.9,1.3c0.6,1.4,3.1,3,5.7,2.1c2.6-0.9,5-4.8,4.1-6
						C42.8,26,41.9,29.8,39.3,30.7z"/>
					<path fill="#B20D67" d="M39.3,31c-2.6,0.9-5.5-0.4-4.9,1c0.6,1.4,3.5,4,6,3.1c2.6-0.9,3.8-4.9,3.2-6.3
						C43.1,27.5,41.9,30.1,39.3,31z"/>
					<path fill="#591035" d="M39.3,31c-2.6,0.9-5.5-0.4-4.9,1c0.6,1.4,3.1,3,5.7,2.1c2.6-0.9,4.2-3.9,3.6-5.2
						C43.1,27.5,41.9,30.1,39.3,31z"/>
					<path fill="#1E0313" d="M39.5,33.2c-2,0.7-4-0.1-5.1-1.2c-0.5-1.3,2.4-0.1,4.9-1c2-0.7,3.1-2.4,3.9-2.5
						C43.2,30,41.7,32.4,39.5,33.2z"/>
				</g>
			</g>
			<path fill="#EF337F" d="M32,25.3c-3.2,0-5.8-3.4-6.1-7.8c0,0.2,0,0.4,0,0.7c0,4.7,2.7,8.4,6.1,8.4c3.4,0,6.1-3.8,6.1-8.4
				c0-0.2,0-0.4,0-0.7C37.8,21.9,35.2,25.3,32,25.3z"/>
			<path fill="#EF337F" d="M32,28.3c-3.2,0-5.8-3.4-6.1-7.8c0,0.2,0,0.4,0,0.7c0,4.7,2.7,8.4,6.1,8.4c3.4,0,6.1-3.8,6.1-8.4
				c0-0.2,0-0.4,0-0.7C37.8,24.9,35.2,28.3,32,28.3z"/>
			<path fill="#D3B524" d="M28.1,54.4c0,0,0.1-4.3-1.6-6.3c0,0,3.5,2,2.8,7.5c0,0-0.2,0.2-0.8,0.1C28,55.5,28.1,54.4,28.1,54.4z"/>
			<g>
				<g>
					<path fill="#C4126B" d="M23.3,42.6c0,0-0.8,3.5-2,6.5c0.3,0.6,0.6,1.3,1,1.9c1.2-1.2,2.5-3.2,3.8-6.3c0,0-1.8-1.6-2.2-1.8
						C23.4,42.6,23.3,42.6,23.3,42.6z"/>
					<g>
						<path fill="#C4126B" d="M40.7,42.6c0,0,0.8,3.5,2,6.5c-0.3,0.6-0.6,1.3-1,1.9c-1.2-1.2-2.6-3.2-3.8-6.3c0,0,1.8-1.6,2.2-1.8
							C40.6,42.6,40.7,42.6,40.7,42.6z"/>
						<path fill="#B20D67" d="M17.3,38.1c0.7,3.1,2.2,7.1,4,11c0.9-2.2,0.6-5.1-0.9-7.7C19.5,39.9,18.4,38.8,17.3,38.1z"/>
						<path fill="#EF337F" d="M32,45.1c-0.8,0-3.7-1.3-7.2-4.3c-3.9-3.3-5.4-1.7-5.4-1.7s5.3,6.8,7.2,13.3c1.2,4.2-0.1,6.4,3.2,6.1
							c1.8-0.2,1.9-0.8,2.2-0.8V45.1z"/>
						<path fill="#EF337F" d="M32,45.1c0.8,0,3.7-1.3,7.2-4.3c3.9-3.3,5.4-1.7,5.4-1.7s-5.3,6.8-7.2,13.3c-1.2,4.2,0.1,6.4-3.2,6.1
							c-1.8-0.2-1.9-0.8-2.2-0.8V45.1z"/>
						<path fill="#1E0313" d="M38.6,41.9c-3.5,3-5.8,3.2-6.6,3.2c-0.8,0-3.1-0.2-6.6-3.2c-3.9-3.3-4.6-2.1-4.6-2.1s4.1,6.1,5.9,12.6
							c1.2,4.2,0.9,5.3,4.1,5.3c0.5,0,0.9,0,1.2,0l0,0h0h0l0,0c0.3,0,0.7,0,1.3,0c3.3-0.1,2.9-1.1,4.1-5.3
							c1.8-6.5,5.9-12.6,5.9-12.6S42.5,38.6,38.6,41.9z"/>
						<path fill="#591035" d="M38.6,41.9c-3.5,3-5.8,3.2-6.6,3.2c-0.8,0-3.1-0.2-6.6-3.2c-1.3-1.1-2.2-1.7-2.9-2
							c1.3,2.3,3.5,6.4,4.7,10.7c1.2,4.2,0.9,5.3,4.1,5.3c0.3,0,0.5,0,0.7,0l0,0h0h0l0,0c0.2,0,0.4,0,0.7,0c3.3-0.1,2.9-1.1,4.1-5.3
							c1.2-4.3,3.4-8.4,4.7-10.7C40.9,40.2,39.9,40.8,38.6,41.9z"/>
						<path fill="#7C154E" d="M38.6,41.9c-3.5,3-5.8,3.2-6.6,3.2c-0.8,0-3.1-0.2-6.6-3.2c-0.1,0-0.1-0.1-0.2-0.1
							c0.8,1.8,1.6,3.7,2.1,5.7c1.2,4.2,0.9,5.3,4.1,5.3c0.2,0,0.4,0,0.5,0l0,0h0h0l0,0c0.2,0,0.3,0,0.5,0c3.3-0.1,2.9-1.1,4.1-5.3
							c0.6-2,1.3-4,2.1-5.7C38.7,41.9,38.7,41.9,38.6,41.9z"/>
						<path fill="#C4A41A" d="M23,40.2c0,0-2.3,9.6-4.7,10.5c0,0,4-0.1,7.4-8.4c0,0-1.8-1.6-2.2-1.8C23.1,40.2,23,40.2,23,40.2z"/>
						<path fill="#EFC618" d="M23,40.2c0,0-1.1,4.6-2.6,7.7c1.3-0.9,3.1-2.6,4.7-6.2c-0.6-0.5-1.3-1.2-1.6-1.3
							C23.1,40.2,23,40.2,23,40.2z"/>
						<path fill="#EFC618" d="M27.8,45.4c0.2,1.3,0.7,1.8,1.7,1.7c0.6-0.1,0.5-1.5,0.3-2.4c-0.8-0.3-1.8-0.8-2.9-1.6
							C27.2,43.8,27.6,44.8,27.8,45.4z"/>
						<path fill="#C4A41A" d="M29.7,44.7c-0.8-0.3-1.8-0.8-2.9-1.6c0.4,0.8,0.8,1.7,0.9,2.3"/>
						<path fill="#EFC618" d="M32,48.3v-3.2c-0.4,0-1.2,0-2.3-0.5c0.1,0.7,0.3,1.7,0.3,2.5c0,1.2,1.1,2.2,1.9,1.4
							C31.9,48.5,32,48.4,32,48.3z"/>
						<path fill="#C4A41A" d="M28.2,54.4c0,0,0.1-4.3-1.6-6.3c0,0,3.5,2,2.8,7.5c0,0-0.2,0.2-0.8,0.1C28.1,55.5,28.2,54.4,28.2,54.4
							z"/>
						<path fill="#D3B524" d="M26.9,48.2c-0.2-0.1-0.3-0.2-0.3-0.2c1.7,2,1.6,6.3,1.6,6.3s0,0.4,0,0.7C29,51.4,27.7,49.2,26.9,48.2z
							"/>
						<path fill="#D3B524" d="M30.9,55.6c0,0.5-0.4,0.9-0.9,0.9l0,0c-0.5,0-0.9-0.4-0.9-0.9v-0.4c0-0.5,0.4-0.9,0.9-0.9l0,0
							c0.5,0,0.9,0.4,0.9,0.9V55.6z"/>
						<path fill="#D3B524" d="M32,54.5c-0.1,0-0.2-0.1-0.3-0.1c-0.6,0-1.2,0.5-1.2,1.2v0.5c0,0.6,0.5,1.2,1.2,1.2
							c0.1,0,0.2,0,0.3-0.1V54.5z"/>
					</g>
				</g>
				<g>
					<g>
						<path fill="#B20D67" d="M46.7,38.1c-0.7,3.1-2.2,7.1-4,11c-0.9-2.2-0.6-5.1,0.9-7.7C44.5,39.9,45.6,38.8,46.7,38.1z"/>
						<path fill="#C4A41A" d="M41,40.2c0,0,2.3,9.6,4.7,10.5c0,0-4-0.1-7.4-8.4c0,0,1.8-1.6,2.2-1.8C40.9,40.2,41,40.2,41,40.2z"/>
						<path fill="#EFC618" d="M41,40.2c0,0,1.1,4.6,2.6,7.7c-1.3-0.9-3.1-2.6-4.7-6.2c0.6-0.5,1.3-1.2,1.6-1.3
							C40.9,40.2,41,40.2,41,40.2z"/>
						<path fill="#EFC618" d="M36.2,45.4c-0.2,1.3-0.7,1.8-1.7,1.7c-0.6-0.1-0.5-1.5-0.3-2.4c0.8-0.3,1.8-0.8,2.9-1.6
							C36.8,43.8,36.4,44.8,36.2,45.4z"/>
						<path fill="#C4A41A" d="M34.3,44.7c0.8-0.3,1.8-0.8,2.9-1.6c-0.4,0.8-0.8,1.7-0.9,2.3"/>
						<path fill="#EFC618" d="M32,48.3v-3.2c0.4,0,1.2,0,2.3-0.5c-0.1,0.7-0.3,1.7-0.3,2.5c0,1.2-1.1,2.2-1.9,1.4
							C32.1,48.5,32,48.4,32,48.3z"/>
						<path fill="#C4A41A" d="M34.3,44.7c-1.1,0.4-1.9,0.5-2.3,0.5c-0.4,0-1.2,0-2.3-0.5c0.1,0.7,0.3,1.7,0.3,2.5l2,1.2v0l0,0l0,0v0
							l2-1.2C34,46.4,34.2,45.4,34.3,44.7z"/>
						<path fill="#C4A41A" d="M35.8,54.4c0,0-0.1-4.3,1.6-6.3c0,0-3.5,2-2.8,7.5c0,0,0.2,0.2,0.8,0.1C35.9,55.5,35.8,54.4,35.8,54.4
							z"/>
						<path fill="#D3B524" d="M37.1,48.2c0.2-0.1,0.3-0.2,0.3-0.2c-1.7,2-1.6,6.3-1.6,6.3s0,0.4,0,0.7C35,51.4,36.3,49.2,37.1,48.2z
							"/>
						<path fill="#D3B524" d="M33.1,55.6c0,0.5,0.4,0.9,0.9,0.9l0,0c0.5,0,0.9-0.4,0.9-0.9v-0.4c0-0.5-0.4-0.9-0.9-0.9l0,0
							c-0.5,0-0.9,0.4-0.9,0.9V55.6z"/>
						<path fill="#D3B524" d="M32,54.5c0.1,0,0.2-0.1,0.3-0.1c0.6,0,1.2,0.5,1.2,1.2v0.5c0,0.6-0.5,1.2-1.2,1.2
							c-0.1,0-0.2,0-0.3-0.1V54.5z"/>
					</g>
				</g>
			</g>
			<path fill="#EF337F" d="M33.6,41.3c0,0.4-0.7,1.8-1.6,1.8c-0.9,0-1.6-1.4-1.6-1.8s0.7,0.3,1.6,0.3C32.9,41.6,33.6,40.9,33.6,41.3
				z"/>
			<g>
				<path fill="#EF337F" d="M22,35.2c1.8,0.9,3.6,0.9,3.4,1.3c-0.2,0.4-1.9,0-3.7-0.9c-1.8-0.9-3.1-2-2.8-2.5
					C19.2,32.7,20.2,34.2,22,35.2z"/>
				<path fill="#EF337F" d="M42,35.2c-1.8,0.9-3.6,0.9-3.4,1.3s1.9,0,3.7-0.9c1.8-0.9,3.1-2,2.8-2.5C44.8,32.7,43.8,34.2,42,35.2z"
					/>
			</g>
			<path fill="#EF337F" d="M36,60.7c0,0.3-1.8-0.7-4-0.7c-2.2,0-4,1-4,0.7s1.8-1.9,4-1.9C34.2,58.9,36,60.4,36,60.7z"/>
		</g>
		<g>
			<g>
				<path fill="#D81A71" d="M18,18l-3.2,3.2c-0.1,0.7-0.2,1.5-0.2,2.2c0,1.2,0.1,2.3,0.4,3.5L21,21L18,18z"/>
				<path fill="#C4A41A" d="M22.9,17.9c-4.5,0-8.2-4.7-8.2-10.5c0-2.4,0.6-4.6,1.7-6.4c-2.4,1.5-4.1,5.3-4.1,9.7
					c0,5.8,1.4,12.5,5,12.5c1.8,0,4.9-3.3,6.1-5.3C23.3,17.9,23.1,17.9,22.9,17.9z"/>
				<path fill="#EFC618" d="M19.2,20.9c1,0,2.4-1,3.6-2.2c0.2-0.3,0.4-0.6,0.5-0.8c-0.2,0-0.3,0-0.5,0c-4.5,0-8.2-4.7-8.2-10.5
					c0-2.4,0.6-4.6,1.7-6.4c-0.1,0.1-0.3,0.2-0.4,0.3c-1.1,1.9-1.8,4.4-1.8,7.2C14.2,14.3,15.7,20.9,19.2,20.9z"/>
			</g>
			<g>
				<path fill="#D81A71" d="M46,18l3.2,3.2c0.1,0.7,0.2,1.5,0.2,2.2c0,1.2-0.1,2.3-0.4,3.5L43,21L46,18z"/>
				<path fill="#C4A41A" d="M41.1,17.9c4.5,0,8.2-4.7,8.2-10.5c0-2.4-0.6-4.6-1.7-6.4c2.4,1.5,4.1,5.3,4.1,9.7
					c0,5.8-1.4,12.5-5,12.5c-1.8,0-4.9-3.3-6.1-5.3C40.7,17.9,40.9,17.9,41.1,17.9z"/>
				<path fill="#EFC618" d="M44.8,20.9c-1,0-2.4-1-3.6-2.2c-0.2-0.3-0.4-0.6-0.5-0.8c0.2,0,0.3,0,0.5,0c4.5,0,8.2-4.7,8.2-10.5
					c0-2.4-0.6-4.6-1.7-6.4c0.1,0.1,0.3,0.2,0.4,0.3c1.1,1.9,1.8,4.4,1.8,7.2C49.8,14.3,48.3,20.9,44.8,20.9z"/>
			</g>
		</g>
		<g>
			<path fill="#FF50A8" d="M18.4,25.4c1.1-1.2,3.7-0.6,5.9,1.4c0.9,0.8,1.5,1.6,1.9,2.5c-0.3-1.2-1.1-2.5-2.4-3.6
				c-2.2-2-4.8-2.6-5.9-1.4c-0.7,0.7-0.6,2,0.1,3.3C17.9,26.6,18,25.9,18.4,25.4z"/>
			<path fill="#FF50A8" d="M45.6,25.4c-1.1-1.2-3.7-0.6-5.9,1.4c-0.9,0.8-1.5,1.6-1.9,2.5c0.3-1.2,1.1-2.5,2.4-3.6
				c2.2-2,4.8-2.6,5.9-1.4c0.7,0.7,0.6,2-0.1,3.3C46.1,26.6,46,25.9,45.6,25.4z"/>
		</g>
	</g>
</g>
</svg>
