<?xml version="1.0" encoding="utf-8"?>
<!-- Generator: Adobe Illustrator 16.0.0, SVG Export Plug-In . SVG Version: 6.00 Build 0)  -->
<!DOCTYPE svg PUBLIC "-//W3C//DTD SVG 1.1//EN" "http://www.w3.org/Graphics/SVG/1.1/DTD/svg11.dtd">
<svg version="1.1" id="Layer_1" xmlns="http://www.w3.org/2000/svg" xmlns:xlink="http://www.w3.org/1999/xlink" x="0px" y="0px"
	 width="64px" height="64px" viewBox="0 0 64 64" enable-background="new 0 0 64 64" xml:space="preserve">
<g>
	<g>
		<path fill="#E3FCF7" d="M53,57V20.4C53,10.8,45.3,3,35.7,3h-7.5C18.7,3,11,10.8,11,20.4V57H53z"/>
		<path fill="#B7F7F7" d="M35.7,3h-7.5C26.3,3,25,3.3,23,3.8V57h30V20.4C53,10.8,45.2,3,35.7,3z"/>
		<path fill="#97E7EF" d="M53,57V20.4C53,10.8,45.2,3,35.7,3h-7.5c-1.9,0-3.5,0.3-5.2,0.8"/>
		<path fill="#97E7EF" d="M43.4,24.3c0,6.4-5.2,11.5-11.5,11.5c-6.4,0-11.5-5.2-11.5-11.5c0-6.4,5.2-11.5,11.5-11.5
			C38.3,12.8,43.4,18,43.4,24.3z"/>
		<path fill="#6CC4D8" d="M39,36.6c0,3.8-3.2,6.9-7,6.9l0,0c-3.8,0-7-3.1-7-6.9V23.1c0-3.8,3.2-6.9,7-6.9l0,0c3.8,0,7,3.1,7,6.9
			V36.6z"/>
		<rect x="29" y="22" fill="#6CC4D8" width="6" height="35"/>
		<path fill="#00233F" d="M47,22.5c0,2.5-2,4.5-4.5,4.5h-22C18,27,16,25,16,22.5l0,0c0-2.5,2-4.5,4.5-4.5h22C45,18,47,20,47,22.5
			L47,22.5z"/>
		<path fill="#0B6382" d="M47,22.5c0,2.5-2,4.5-4.5,4.5h-22C18,27,16,25,16,22.5l0,0c0-2.5,2-4.5,4.5-4.5h22C45,18,47,20,47,22.5
			L47,22.5z"/>
		<path fill="#00233F" d="M42.9,19h-22c-2.3,0-4.9,1.1-4.9,3.5c0,2.3,1.7,4.5,4.9,4.5h22c2.3,0,4.1-1.9,4.1-4.2
			C47,20.5,45.3,19,42.9,19z"/>
		<g>
			<g>
				<path fill="#0B6382" d="M43.4,21.7c0,6.4-5.2,11.5-11.5,11.5c-6.4,0-11.5-5.2-11.5-11.5c0-6.4,5.2-11.5,11.5-11.5
					C38.3,10.2,43.4,15.3,43.4,21.7z"/>
				<path fill="#00233F" d="M23.8,13.6c4.5-4.5,11.8-4.5,16.3,0c4.5,4.5,4.5,11.8,0,16.3"/>
				<g>
					<path fill="#13D1BA" d="M39.9,21.7c0,4.4-3.5,7.9-7.9,7.9c-4.4,0-7.9-3.5-7.9-7.9s3.6-7.9,7.9-7.9
						C36.3,13.8,39.9,17.3,39.9,21.7z"/>
					<path fill="#0FAAA6" d="M31.9,13.8c4.4,0,7.9,3.5,7.9,7.9s-3.5,7.9-7.9,7.9"/>
				</g>
				<g opacity="0.6">
					<path fill="#13D1BA" d="M28.3,18.1c2-2,5.2-2,7.2,0c2,2,2,5.2,0,7.2c-2,2-5.2,2-7.2,0C26.3,23.3,26.3,20.1,28.3,18.1z"/>
					<path fill="#0FAAA6" d="M28.3,25.3c-2-2-2-5.2,0-7.2c2-2,5.2-2,7.2,0"/>
				</g>
				<g opacity="0.6">
					<path fill="#13D1BA" d="M28.3,25.3c-2-2-2-5.2,0-7.2c2-2,5.2-2,7.2,0c2,2,2,5.2,0,7.2C33.5,27.3,30.3,27.3,28.3,25.3z"/>
					<path fill="#0FAAA6" d="M35.5,25.3c-2,2-5.2,2-7.2,0c-2-2-2-5.2,0-7.2"/>
				</g>
				<path fill="#F0FFFD" d="M31.5,19.6c0,0.9-0.7,1.7-1.7,1.7c-0.9,0-1.7-0.7-1.7-1.7S29,18,29.9,18C30.8,18,31.5,18.7,31.5,19.6z"
					/>
				<path fill="#F0FFFD" d="M33.6,22.8c0,0.1-0.1,0.2-0.2,0.2c-0.1,0-0.2-0.1-0.2-0.2s0.1-0.2,0.2-0.2
					C33.5,22.5,33.6,22.7,33.6,22.8z"/>
				<path fill="#F0FFFD" d="M35.4,24.4c0,0.4-0.3,0.7-0.7,0.7c-0.4,0-0.7-0.3-0.7-0.7c0-0.4,0.3-0.7,0.7-0.7
					C35.1,23.7,35.4,24,35.4,24.4z"/>
			</g>
			<g>
				<g>
					<path fill="#F2F4DC" d="M30.8,12.2c0,0.2-0.1,0.3-0.3,0.3c-0.2,0-0.3-0.1-0.3-0.3c0-0.2,0.1-0.3,0.3-0.3
						C30.7,11.9,30.8,12.1,30.8,12.2z"/>
					<path fill="#F2F4DC" d="M32.2,12.2c0,0.2-0.1,0.3-0.3,0.3c-0.2,0-0.3-0.1-0.3-0.3c0-0.2,0.1-0.3,0.3-0.3
						C32.1,11.9,32.2,12.1,32.2,12.2z"/>
					<path fill="#F2F4DC" d="M33.7,12.2c0,0.2-0.1,0.3-0.3,0.3c-0.2,0-0.3-0.1-0.3-0.3c0-0.2,0.1-0.3,0.3-0.3
						C33.5,11.9,33.7,12.1,33.7,12.2z"/>
				</g>
				<g>
					<path fill="#F2F4DC" d="M30.8,31.9c0,0.2-0.1,0.3-0.3,0.3c-0.2,0-0.3-0.1-0.3-0.3c0-0.2,0.1-0.3,0.3-0.3
						C30.7,31.6,30.8,31.8,30.8,31.9z"/>
					<circle fill="#F2F4DC" cx="31.9" cy="31.9" r="0.3"/>
					<circle fill="#F2F4DC" cx="33.4" cy="31.9" r="0.3"/>
				</g>
			</g>
		</g>
		<path fill="#F9A5AF" d="M62.6,58c0,1.8,1.6,3-0.2,3H1.6c-1.8,0-0.2-1.2-0.2-3l0,0c0-1.8,1.4-3,3.2-3h54.8
			C61.1,55,62.6,56.2,62.6,58L62.6,58z"/>
		<path fill="#EA8B9B" d="M62.5,58H1.5c0,0,0-0.1,0,0c0,1.8-1.6,3,0.2,3h60.8C64.1,61,62.6,59.8,62.5,58C62.6,57.9,62.5,58,62.5,58z
			"/>
		<path fill="#E3FCF7" d="M18,57.5c0,0.3-0.2,0.5-0.5,0.5h-4c-0.3,0-0.5-0.2-0.5-0.5l0,0c0-0.3,0.2-0.5,0.5-0.5h4
			C17.8,57,18,57.2,18,57.5L18,57.5z"/>
		<circle fill="#E3FCF7" cx="47" cy="57.4" r="0.8"/>
		<circle fill="#E3FCF7" cx="50.1" cy="57.4" r="0.8"/>
	</g>
	<g>
		<path fill="#960E08" d="M17.9,42c0.4,3,6.6,7.6,14.1,7.6S45.6,45,46.1,42H17.9z"/>
		<path fill="#770606" d="M32,49.6c7.5,0,13.7-4.6,14.1-7.6H32"/>
		<path fill="#CE1906" d="M36.4,36.9c-1.8,0-3.2,0.5-4.4,1.3c-1.1-0.8-2.6-1.3-4.4-1.3c-3.8,0-8.1,2.1-9.7,5.1h11.5h5.3h11.5
			C44.4,39,40.2,36.9,36.4,36.9z"/>
		<path fill="#B51104" d="M35,42h11.1c-1.7-3-5.9-5.1-9.7-5.1c-1.8,0-3.1,0.5-4.2,1.3"/>
		<path fill="#E55145" d="M26.4,37.6c0.3,0.3-0.6,1-1.9,1.6c-1.4,0.6-2.7,0.9-3.1,0.6c-0.3-0.3,0.6-1,1.9-1.6
			C24.8,37.6,26.1,37.3,26.4,37.6z"/>
		<path fill="#CE1906" d="M21.5,44.1c0.5-0.3,2,0.3,3.4,1.2c1.4,1,2.1,2,1.6,2.3c-0.5,0.3-2-0.3-3.4-1.2
			C21.8,45.5,21,44.4,21.5,44.1z"/>
		<path fill="#540200" d="M37.3,42c-0.6-1-2.2-1-3.7-1c-0.7,0-1.2,0.1-1.7,0.3c-0.4-0.2-1-0.3-1.7-0.3c-1.5,0-3,0-3.7,1h0
			c0.2,1,2.5,1.6,5.3,1.6C34.8,43.6,37.1,43,37.3,42L37.3,42z"/>
	</g>
	<path fill="#0B6382" d="M32.4,7.5c0,0.3-0.2,0.5-0.5,0.5l0,0c-0.3,0-0.5-0.2-0.5-0.5v-3c0-0.3,0.2-0.5,0.5-0.5l0,0
		c0.3,0,0.5,0.2,0.5,0.5V7.5z"/>
	<g>
		<g>
			<path fill="#0B6382" d="M26.5,10c0.2,0.2,0.2,0.5,0,0.7l0,0c-0.2,0.2-0.5,0.2-0.7,0l-2.4-2.4c-0.2-0.2-0.2-0.5,0-0.7l0,0
				c0.2-0.2,0.5-0.2,0.7,0L26.5,10z"/>
			<path fill="#0B6382" d="M29.1,8.5c0.1,0.3-0.1,0.5-0.3,0.6l0,0c-0.3,0.1-0.5-0.1-0.6-0.3l-1-3.2c-0.1-0.3,0.1-0.5,0.3-0.6l0,0
				c0.3-0.1,0.5,0.1,0.6,0.3L29.1,8.5z"/>
		</g>
		<g>
			<path fill="#0B6382" d="M37.5,10c-0.2,0.2-0.2,0.5,0,0.7l0,0c0.2,0.2,0.5,0.2,0.7,0l2.4-2.4c0.2-0.2,0.2-0.5,0-0.7l0,0
				c-0.2-0.2-0.5-0.2-0.7,0L37.5,10z"/>
			<path fill="#0B6382" d="M34.9,8.5c-0.1,0.3,0.1,0.5,0.3,0.6l0,0c0.3,0.1,0.5-0.1,0.6-0.3l1-3.2c0.1-0.3-0.1-0.5-0.3-0.6l0,0
				c-0.3-0.1-0.5,0.1-0.6,0.3L34.9,8.5z"/>
		</g>
	</g>
</g>
</svg>
