<?xml version="1.0" encoding="utf-8"?>
<!-- Generator: Adobe Illustrator 16.0.0, SVG Export Plug-In . SVG Version: 6.00 Build 0)  -->
<!DOCTYPE svg PUBLIC "-//W3C//DTD SVG 1.1//EN" "http://www.w3.org/Graphics/SVG/1.1/DTD/svg11.dtd">
<svg version="1.1" id="Layer_1" xmlns="http://www.w3.org/2000/svg" xmlns:xlink="http://www.w3.org/1999/xlink" x="0px" y="0px"
	 width="64px" height="64px" viewBox="0 0 64 64" enable-background="new 0 0 64 64" xml:space="preserve">
<g>
	<g>
		<g>
			<g>
				<g>
					<g>
						<g>
							<g>
								<circle fill="#45AEDD" cx="32" cy="32" r="28"/>
								<path fill="#4698DB" d="M12.2,12.2c10.9-10.9,28.7-10.9,39.6,0c10.9,10.9,10.9,28.7,0,39.6"/>
							</g>
						</g>
					</g>
				</g>
			</g>
		</g>
	</g>
	<g>
		<g>
			<path fill="#C7F4FF" d="M58.7,45.6l-5-2.9l2.7-0.7c0.8-0.2,1.3-1,1-1.8c-0.2-0.8-1-1.3-1.8-1l-5.5,1.5c0,0-0.3,0-0.3,0L47,39.2
				V24.8l2.8-1.5c0,0,0.1,0,0.2,0l5.6,1.5c0.1,0,0.3,0.1,0.4,0.1c0.7,0,1.3-0.4,1.4-1.1c0.2-0.8-0.2-1.6-1-1.8l-2.7-0.7l5-2.9
				c0.7-0.4,1-1.3,0.5-2c-0.4-0.7-1.3-1-2-0.5l-5,2.9l0.7-2.7c0.2-0.8-0.3-1.6-1-1.8c-0.8-0.2-1.6,0.3-1.8,1l-1.5,5.5c0,0,0,0,0,0
				l-2.8,1.5L33,15v-3c0,0,0.3,0,0.3,0L37.5,8c0.6-0.6,0.6-1.5,0.1-2.1c-0.6-0.6-1.7-0.6-2.3,0l-2.2,2V2.1c0-0.8-0.2-1.5-1-1.5
				c-0.8,0-1,0.7-1,1.5v5.8l-2.2-2c-0.6-0.6-1.6-0.6-2.2,0C26,6.4,25.9,7.4,26.5,8l4.7,4.5c0,0-0.2-0.4-0.2-0.4v3l-12.8,7.2
				l-2.7-1.5c0,0-0.1,0-0.1,0L14,15.2c-0.2-0.8-1-1.2-1.8-1c-0.8,0.2-1.3,1-1,1.8l0.7,2.7l-5-2.9c-0.7-0.4-1.6-0.2-2,0.5
				c-0.4,0.7-0.2,1.6,0.5,2l5,2.9L7.6,22c-0.8,0.2-1.3,1-1,1.8c0.2,0.7,0.8,1.1,1.4,1.1c0.1,0,0.3,0,0.4-0.1l5.5-1.5
				c0,0,0.3,0,0.3,0l2.8,1.5v14.4l-2.8,1.5c0,0-0.1,0-0.2,0l-5.6-1.5c-0.8-0.2-1.6,0.3-1.8,1c-0.2,0.8,0.2,1.6,1,1.8l2.7,0.7l-5,2.9
				c-0.7,0.4-1,1.3-0.5,2c0.3,0.5,0.8,0.7,1.3,0.7c0.2,0,0.5-0.1,0.7-0.2l5-2.9L11.1,48c-0.2,0.8,0.3,1.6,1,1.8
				c0.1,0,0.3,0.1,0.4,0.1c0.7,0,1.2-0.4,1.4-1.1l1.5-5.5c0,0,0,0,0,0l2.8-1.5L31,49v3c0,0,0-0.3,0-0.2l-4.4,4.3
				c-0.6,0.6-0.6,1.5-0.1,2.1c0.3,0.3,0.6,0.4,1,0.4c0.4,0,1-0.1,1.3-0.4l2.2-2v5.8c0,0.8,0.2,1.5,1,1.5c0.8,0,1-0.7,1-1.5v-5.8
				l2.2,2c0.3,0.3,0.8,0.4,1.2,0.4c0.4,0,0.8-0.1,1.1-0.4c0.6-0.6,0.6-1.5,0-2.1L33.3,52c0,0-0.3,0-0.3,0v-3l12.8-7.2l2.7,1.5
				c0,0,0.1,0,0.1,0l1.5,5.5c0.2,0.7,0.8,1.1,1.4,1.1c0.1,0,0.3,0,0.4-0.1c0.8-0.2,1.3-1,1-1.8l-0.7-2.7l5,2.9
				c0.2,0.1,0.5,0.2,0.7,0.2c0.5,0,1-0.3,1.3-0.7C59.6,46.9,59.4,46,58.7,45.6z M45,37.5L35.4,32l9.6-5.5V37.5z M42.6,23.9L33,29.4
				v-11L42.6,23.9z M31,18.4v11l-9.6-5.5L31,18.4z M19,26.5l9.6,5.5L19,37.5V26.5z M21.4,40.1l9.6-5.5v11L21.4,40.1z M33,45.6v-11
				l9.6,5.5L33,45.6z"/>
		</g>
		<path fill="#61CCF2" d="M58.7,45.6l-5-2.9l2.7-0.7c0.8-0.2,1.3-1,1-1.8c-0.2-0.8-1-1.3-1.8-1l-5.5,1.5c0,0-0.3,0-0.3,0L47,39.2
			V24.8l2.8-1.5c0,0,0.1,0,0.2,0l5.6,1.5c0.1,0,0.3,0.1,0.4,0.1c0.7,0,1.3-0.4,1.4-1.1c0.2-0.8-0.2-1.6-1-1.8l-2.7-0.7l5-2.9
			c0.7-0.4,1-1.3,0.5-2c-0.4-0.7-1.3-1-2-0.5l-5,2.9l0.7-2.7c0.2-0.8-0.3-1.6-1-1.8c-0.8-0.2-1.6,0.3-1.8,1l-1.5,5.5c0,0,0,0,0,0
			l-2.8,1.5L33,15v-3c0,0-0.1,0.3-0.1,0.3L37.5,8c0.6-0.6,0.6-1.5,0.1-2.1c-0.6-0.6-1.7-0.6-2.3,0l-2.2,2V2.1c0-0.8-0.4-1.5-1.2-1.5
			c0,0,0.2,0,0.2,0v62.8c0,0-0.2,0-0.2,0c0.8,0,1.2-0.7,1.2-1.5v-5.8l2.2,2c0.3,0.3,0.8,0.4,1.2,0.4c0.4,0,0.8-0.1,1.1-0.4
			c0.6-0.6,0.6-1.5,0-2.1L33,51.7c0,0,0,0.3,0,0.3v-3l12.8-7.2l2.7,1.5c0,0,0.1,0,0.1,0l1.5,5.5c0.2,0.7,0.8,1.1,1.4,1.1
			c0.1,0,0.3,0,0.4-0.1c0.8-0.2,1.3-1,1-1.8l-0.7-2.7l5,2.9c0.2,0.1,0.5,0.2,0.7,0.2c0.5,0,1-0.3,1.3-0.7
			C59.6,46.9,59.4,46,58.7,45.6z M33,18.4l9.6,5.5L33,29.4V18.4z M33,45.6v-11l9.6,5.5L33,45.6z M45,37.5L35.4,32l9.6-5.5V37.5z"/>
	</g>
</g>
</svg>
