<?xml version="1.0" encoding="utf-8"?>
<!-- Generator: Adobe Illustrator 16.0.0, SVG Export Plug-In . SVG Version: 6.00 Build 0)  -->
<!DOCTYPE svg PUBLIC "-//W3C//DTD SVG 1.1//EN" "http://www.w3.org/Graphics/SVG/1.1/DTD/svg11.dtd">
<svg version="1.1" id="Layer_1" xmlns="http://www.w3.org/2000/svg" xmlns:xlink="http://www.w3.org/1999/xlink" x="0px" y="0px"
	 width="64px" height="64px" viewBox="0 0 64 64" enable-background="new 0 0 64 64" xml:space="preserve">
<g>
	<ellipse fill="#8D8D8E" cx="32" cy="60.9" rx="29.5" ry="2.2"/>
	<g>
		<path fill="#F7C90B" d="M31.7,21.9c0,0-10.8-1.9-3.2-11.3c6.6-8.2,4.3-9.8,4.3-9.8s2.7,1.4,0.6,8.7c-2.1,7.3,3,5.2,2.7,3.7
			c0,0,2,1.2,2.2,4.1C38.5,22,31.7,21.9,31.7,21.9z"/>
		<path fill="#F9A908" d="M28.4,12.7c-1.6,1.9-2.3,3.5-2.6,4.9c0.8,3.5,5.8,4.4,5.8,4.4s5.6,0.1,6.4-3.3c-0.5-2.3-2.1-3.3-2.1-3.3
			c0.2,1.3-3.8,3.2-3.1-1.8c-0.2-0.8-0.1-2,0.4-3.9c0.4-1.5,0.7-2.8,0.7-3.8c-0.2-1.6-0.8-2.4-1.1-2.7c0,0,0,0.1,0,0.1
			C33.3,4,33.5,6.4,28.4,12.7z"/>
		<path fill="#F78B0B" d="M25.8,17.5c0.8,3.5,5.8,4.4,5.8,4.4s5.6,0.1,6.4-3.3"/>
		<path fill="#A675CC" d="M46,54.9c0,5.8-4.2,6.1-10,6.1h-8c-5.8,0-10-0.3-10-6.1V35.4C18,29.6,22.2,25,28,25h8
			c5.8,0,10,4.6,10,10.4V54.9z"/>
		<path fill="#B791E2" d="M18,35c0-5.8,4.2-10,10-10h8"/>
		<path fill="#8056A8" d="M46,35v19.9c0,5.8-4.2,6.1-10,6.1h-8c-5.8,0-10-0.3-10-6.1V35"/>
		<path fill="#603D89" d="M46,54.9c0,5.8-4.2,6.1-10,6.1h-8c-5.8,0-10-0.4-10-6.2"/>
		<path fill="#603D89" d="M33,26.2c0,0.4-0.4,0.8-0.8,0.8h-0.4c-0.4,0-0.8-0.4-0.8-0.8v-4.4c0-0.4,0.4-0.8,0.8-0.8h0.4
			c0.4,0,0.8,0.4,0.8,0.8V26.2z"/>
		<g>
			
				<rect x="30.9" y="38.3" transform="matrix(0.7071 -0.7071 0.7071 0.7071 -18.4736 34.1625)" fill="#B791E2" width="2.2" height="2.2"/>
			
				<rect x="30.9" y="44.1" transform="matrix(0.7071 -0.7071 0.7071 0.7071 -22.5484 35.8503)" fill="#B791E2" width="2.2" height="2.2"/>
			
				<rect x="30.9" y="49.8" transform="matrix(0.7071 -0.7071 0.7071 0.7071 -26.6233 37.5382)" fill="#B791E2" width="2.2" height="2.2"/>
		</g>
	</g>
</g>
</svg>
