<?xml version="1.0" encoding="utf-8"?>
<!-- Generator: Adobe Illustrator 16.0.0, SVG Export Plug-In . SVG Version: 6.00 Build 0)  -->
<!DOCTYPE svg PUBLIC "-//W3C//DTD SVG 1.1//EN" "http://www.w3.org/Graphics/SVG/1.1/DTD/svg11.dtd">
<svg version="1.1" id="Layer_1" xmlns="http://www.w3.org/2000/svg" xmlns:xlink="http://www.w3.org/1999/xlink" x="0px" y="0px"
	 width="64px" height="64px" viewBox="0 0 64 64" enable-background="new 0 0 64 64" xml:space="preserve">
<g>
	<g>
		<circle fill="#5E6664" cx="32" cy="31.8" r="31"/>
		<path fill="#2F423F" d="M53.9,9.9C66,22,66,41.6,53.9,53.7s-31.7,12.1-43.8,0"/>
	</g>
	<g>
		<g>
			<polygon fill="#FFB81A" points="62.8,48.9 32,63.7 1.2,48.9 6.2,22.5 32,8.4 57.8,22.5 			"/>
			<polygon fill="#FFAB17" points="62.8,48.9 32,63.7 1.2,48.9 6.2,22.5 32,27.9 57.8,22.5 			"/>
			<polyline fill="#FF8A15" points="32,8.4 57.8,22.5 62.8,48.9 32,63.7 			"/>
			<g>
				<g>
					<path fill="#5E6664" d="M23.3,29.1c0,1.4-1.2,2.5-2.8,2.5c-1.5,0-2.8-1.1-2.8-2.5s1.2-2.5,2.8-2.5
						C22.1,26.7,23.3,27.8,23.3,29.1z"/>
					<path fill="#2F423F" d="M22.5,27.4c1.1,1,1.1,2.5,0,3.5c-1.1,1-2.8,1-3.9,0"/>
				</g>
				<g>
					<path fill="#5E6664" d="M46.2,29.1c0,1.4-1.2,2.5-2.8,2.5c-1.5,0-2.8-1.1-2.8-2.5s1.2-2.5,2.8-2.5C45,26.7,46.2,27.8,46.2,29.1
						z"/>
					<path fill="#2F423F" d="M45.4,27.4c1.1,1,1.1,2.5,0,3.5c-1.1,1-2.8,1-3.9,0"/>
				</g>
			</g>
			<polygon fill="#FF8A15" points="24.8,36.8 32.7,59.4 41.4,44.3 34.3,35.6 			"/>
			<g>
				<polyline fill="#FFEE1A" points="32,44.3 39.2,36.8 36.1,34.2 32,27.9 32,28.1 32,27.9 27.9,34.2 24.8,36.8 31.4,43.7 				"/>
				<polyline fill="#EACE00" points="32,44.3 39.2,36.8 36.1,34.2 32,27.9 32,28.1 32,27.9 				"/>
			</g>
		</g>
		<polygon fill="#F15249" points="32,23.2 40.2,7 33.3,0.4 32,0.3 32,0.3 32,0.3 32,0.3 32,0.3 30.7,0.4 23.8,7 32,23.2 32,23.4 
			32,23.3 32,23.4 		"/>
		<polyline fill="#C93131" points="32,23 32,23.4 32,23.3 32,23.4 32,23.2 40.2,7 33.3,0.4 32,0.3 		"/>
	</g>
</g>
</svg>
