<?xml version="1.0" encoding="utf-8"?>
<!-- Generator: Adobe Illustrator 16.0.0, SVG Export Plug-In . SVG Version: 6.00 Build 0)  -->
<!DOCTYPE svg PUBLIC "-//W3C//DTD SVG 1.1//EN" "http://www.w3.org/Graphics/SVG/1.1/DTD/svg11.dtd">
<svg version="1.1" id="Layer_1" xmlns="http://www.w3.org/2000/svg" xmlns:xlink="http://www.w3.org/1999/xlink" x="0px" y="0px"
	 width="65px" height="65px" viewBox="0 0 65 65" enable-background="new 0 0 65 65" xml:space="preserve">
<g>
	<g>
		<path fill="#890628" d="M29.015,26.333c0,0-1,2.375-10.375,4s-10.5,5.125-7.125,6.875s-4.375,0.75,0,5.625s11.125,1.75,10.5,4.375
			s9.125,5.75,12.75,2.25s15-2.625,15.125,0.375s6.125-21.5-8.625-22.875S29.015,26.333,29.015,26.333z"/>
		<g>
			<g>
				<g>
					<path fill="#0C87E2" d="M34.769,26.369c1.273,1.432,0.465,4.228-1.805,6.249c-2.27,2.018-14.475,10.794-15.75,9.365
						c-1.271-1.434,8.873-12.532,11.143-14.55C30.624,25.415,33.495,24.938,34.769,26.369z"/>
					<path fill="#0C87E2" d="M37.558,26.369c-1.273,1.432-0.465,4.228,1.805,6.249c2.27,2.018,14.475,10.794,15.75,9.365
						c1.271-1.434-8.873-12.532-11.143-14.55C41.702,25.415,38.831,24.938,37.558,26.369z"/>
				</g>
				<g>
					<g>
						<g>
							<g>
								<g>
									<path fill="#0265B7" d="M48.161,46.446c0,2.476-2.008,15.827-4.486,15.827c-2.475,0-4.482-13.352-4.482-15.827
										s2.008-4.484,4.482-4.484C46.153,41.962,48.161,43.971,48.161,46.446z"/>
									<path fill="#0265B7" d="M33.136,46.446c0,2.476-2.008,15.827-4.486,15.827c-2.475,0-4.482-13.352-4.482-15.827
										s2.008-4.484,4.482-4.484C31.128,41.962,33.136,43.971,33.136,46.446z"/>
									<g>
										<g>
											<path fill="#0C87E2" d="M48.813,40.521c0,16.038-5.662,10.697-12.65,10.697c-6.986,0-12.65,5.341-12.65-10.697
												c0-9.17,5.666-16.603,12.65-16.603C43.149,23.919,48.813,31.352,48.813,40.521z"/>
											<path fill="#0265B7" d="M27.282,28.705c2.561,1.054,5.605,1.59,8.883,1.59c3.275,0,6.32-0.536,8.879-1.589
												c-2.285-2.958-5.42-4.787-8.881-4.787S29.567,25.747,27.282,28.705z"/>
											<g>
												<path fill="#CE1332" d="M25.226,54.085c0.699,3.466,1.691,6.945,2.814,7.916h1.219c1.126-0.971,2.119-4.45,2.816-7.916
													H25.226z"/>
												<path fill="#CE1332" d="M40.251,54.085c0.699,3.466,1.691,6.945,2.814,7.916h1.219c1.125-0.971,2.119-4.45,2.817-7.916
													H40.251z"/>
											</g>
											<g>
												<path fill="#B50B30" d="M33.696,62.354c0,1.896-2.26,2.146-5.045,2.146s-5.045-0.249-5.045-2.146
													c0-1.897,2.26-4.508,5.045-4.508S33.696,60.457,33.696,62.354z"/>
												<path fill="#99082E" d="M33.696,62.354c0,1.896-2.26,2.146-5.045,2.146s-5.045-0.249-5.045-2.146"/>
											</g>
											<g>
												<path fill="#B50B30" d="M48.722,62.354c0,1.896-2.26,2.146-5.045,2.146s-5.045-0.249-5.045-2.146
													c0-1.897,2.26-4.508,5.045-4.508S48.722,60.457,48.722,62.354z"/>
												<path fill="#99082E" d="M48.722,62.354c0,1.896-2.26,2.146-5.045,2.146s-5.045-0.249-5.045-2.146"/>
											</g>
											<g>
												<path fill="#F9D49D" d="M52.534,16.275c0,7.999-7.33,12.02-16.369,12.02c-9.041,0-16.373-4.021-16.373-12.02
													c0-8.001,7.332-15.775,16.373-15.775C45.204,0.5,52.534,8.274,52.534,16.275z"/>
												<path fill="#F4CB89" d="M52.534,16.275c0,7.999-7.33,12.745-16.369,12.745c-9.041,0-16.373-4.746-16.373-12.745"/>
											</g>
										</g>
									</g>
									<path fill="#F4CB89" d="M19.776,37.03c-1.823,2.377-3.057,4.396-2.562,4.953c0.485,0.544,2.557-0.393,5.059-1.871
										l0.293-0.293L19.776,37.03z"/>
									<path fill="#F4CB89" d="M49.667,39.882c2.674,1.609,4.936,2.674,5.445,2.102c0.496-0.559-0.746-2.587-2.576-4.971
										L49.667,39.882z"/>
								</g>
							</g>
						</g>
					</g>
				</g>
				<path fill="#EFC206" d="M24.153,47.749h24.02c0.209-0.859,0.369-1.876,0.477-3.083H23.677
					C23.784,45.873,23.944,46.89,24.153,47.749z"/>
			</g>
		</g>
		<g>
			<g>
				<circle fill="#113E49" cx="28.379" cy="15.917" r="1.464"/>
				<path d="M29.843,15.917c0,0.811-0.656,1.465-1.465,1.465s-1.463-0.654-1.463-1.465"/>
				<g>
					<path fill="#F9D49D" d="M31.267,18.971c-0.078,0-0.158-0.028-0.219-0.091c-0.715-0.714-1.664-1.107-2.672-1.107h-0.002
						c-1.008,0-1.955,0.394-2.666,1.106c-0.121,0.121-0.316,0.124-0.436,0.001c-0.121-0.117-0.125-0.312-0.004-0.434
						c0.83-0.831,1.932-1.29,3.105-1.29h0.002c1.176,0,2.279,0.456,3.111,1.288c0.119,0.119,0.119,0.318,0,0.436
						C31.427,18.942,31.349,18.971,31.267,18.971z"/>
				</g>
			</g>
			<g>
				<circle fill="#113E49" cx="43.949" cy="15.917" r="1.464"/>
				<path d="M42.485,15.917c0,0.811,0.654,1.465,1.465,1.465c0.809,0,1.463-0.654,1.463-1.465"/>
				<g>
					<path fill="#F9D49D" d="M41.062,18.971c0.076,0,0.156-0.028,0.217-0.091c0.715-0.714,1.664-1.107,2.672-1.107h0.002
						c1.008,0,1.957,0.394,2.668,1.106c0.119,0.121,0.314,0.124,0.436,0.001c0.121-0.117,0.123-0.312,0.002-0.434
						c-0.826-0.831-1.932-1.29-3.105-1.29H43.95c-1.174,0-2.277,0.456-3.111,1.288c-0.117,0.119-0.117,0.318,0,0.436
						C40.901,18.942,40.979,18.971,41.062,18.971z"/>
				</g>
			</g>
		</g>
		<polygon fill="#F41E4C" points="40.22,31.009 42.743,38.771 36.14,43.569 29.536,38.771 32.058,31.009 		"/>
		<polyline fill="#CE1332" points="32.058,31.009 40.22,31.009 42.743,38.771 36.14,43.569 		"/>
		<path fill="#890628" d="M39.351,19.521c0,1.76-1.428,3.188-3.188,3.188s-3.188-1.428-3.188-3.188s1.428-1.562,3.188-1.562
			S39.351,17.761,39.351,19.521z"/>
		<path fill="#B50B30" d="M33.696,21.517c0.585,0.721,1.467,1.191,2.467,1.191s1.882-0.471,2.467-1.191
			c-0.585-0.721-1.467-1.191-2.467-1.191S34.281,20.796,33.696,21.517z"/>
		<path d="M36.165,0.5c-4.863,0-9.218,2.259-12.217,5.583H34.89c0,0-2.5,2.375,0.5,3.25s2.5-1.375,2.5-1.375
			s-0.438,0.812-1.312,0.438s0.875-2.75,3.625-2s3.75-1.312,3.75-1.312s1.062,1.938,3.188,1.938c0.564,0,1.117-0.21,1.629-0.514
			C45.767,2.946,41.235,0.5,36.165,0.5z"/>
	</g>
	<path fill="#CE1332" d="M23.781,45.667c1.199,9.613,6.286,5.552,12.382,5.552s11.184,4.062,12.382-5.552H23.781z"/>
</g>
</svg>
