<?xml version="1.0" encoding="utf-8"?>
<!-- Generator: Adobe Illustrator 16.0.0, SVG Export Plug-In . SVG Version: 6.00 Build 0)  -->
<!DOCTYPE svg PUBLIC "-//W3C//DTD SVG 1.1//EN" "http://www.w3.org/Graphics/SVG/1.1/DTD/svg11.dtd">
<svg version="1.1" id="Layer_1" xmlns="http://www.w3.org/2000/svg" xmlns:xlink="http://www.w3.org/1999/xlink" x="0px" y="0px"
	 width="64px" height="64px" viewBox="0 0 64 64" enable-background="new 0 0 64 64" xml:space="preserve">
<g>
	<g>
		<g>
			<circle fill="#F9A908" cx="32" cy="32" r="22.5"/>
		</g>
		<g>
			<path fill="#F7910B" d="M47.9,16.1c8.8,8.8,8.8,23,0,31.8c-8.8,8.8-23,8.8-31.8,0"/>
		</g>
		<g>
			<path fill="#F9C55D" d="M32.8,16.3c1.9,2.5,0.1,7.1-4.1,10.3c-4.2,3.2-9.1,3.7-11,1.1c-1.9-2.5-0.1-7.1,4.1-10.3
				C26,14.2,30.9,13.7,32.8,16.3z"/>
		</g>
	</g>
	<g>
		<g>
			<g>
				<g>
					<g>
						<g>
							<g>
								<path fill="#1E4784" d="M43.2,33.5c-0.3,0-0.6-0.1-0.9-0.4c-1-1-2.7-1-3.7,0c-0.5,0.5-1.2,0.5-1.7,0c-0.5-0.5-0.5-1.2,0-1.7
									c2-2,5.2-2,7.2,0c0.5,0.5,0.5,1.2,0,1.7C43.8,33.4,43.5,33.5,43.2,33.5z"/>
							</g>
						</g>
						<g>
							<g>
								<path fill="#02243E" d="M44,31.5c0.5,0.5,0.5,1.2,0,1.7c-0.2,0.2-0.5,0.4-0.9,0.4c-0.3,0-0.6-0.1-0.9-0.4c-1-1-2.7-1-3.7,0
									c-0.5,0.5-1.2,0.5-1.7,0c-0.5-0.5-0.5-1.2,0-1.7"/>
							</g>
						</g>
					</g>
				</g>
			</g>
			<g>
				<g>
					<g>
						<g>
							<g>
								<path fill="#1E4784" d="M20.8,33.5c0.3,0,0.6-0.1,0.9-0.4c1-1,2.7-1,3.7,0c0.5,0.5,1.2,0.5,1.7,0c0.5-0.5,0.5-1.2,0-1.7
									c-2-2-5.2-2-7.2,0c-0.5,0.5-0.5,1.2,0,1.7C20.2,33.4,20.5,33.5,20.8,33.5z"/>
							</g>
						</g>
						<g>
							<g>
								<path fill="#02243E" d="M20,31.5c-0.5,0.5-0.5,1.2,0,1.7c0.2,0.2,0.5,0.4,0.9,0.4c0.3,0,0.6-0.1,0.9-0.4c1-1,2.7-1,3.7,0
									c0.5,0.5,1.2,0.5,1.7,0c0.5-0.5,0.5-1.2,0-1.7"/>
							</g>
						</g>
					</g>
				</g>
			</g>
		</g>
		<g>
			<g>
				<g>
					<path fill="#037A66" d="M21.4,21.7c0.3,0.5,1.4-0.5,2.9-1.4s2.9-1.4,2.6-1.9c-0.3-0.5-2.5-1.3-4-0.3
						C21.4,18.9,21.1,21.2,21.4,21.7z"/>
				</g>
			</g>
			<g>
				<g>
					<path fill="#037A66" d="M42.6,21.7c-0.3,0.5-1.4-0.5-2.9-1.4c-1.5-0.9-2.9-1.4-2.6-1.9c0.3-0.5,2.5-1.3,4-0.3
						C42.6,18.9,42.9,21.2,42.6,21.7z"/>
				</g>
			</g>
		</g>
	</g>
	<g>
		<path fill="#990B0B" d="M38.8,37.7c0,1.2-3,2.2-6.8,2.2c-3.7,0-6.8-1-6.8-2.2c0-1.2,3-0.3,6.8-0.3C35.7,37.4,38.8,36.5,38.8,37.7z
			"/>
	</g>
	<g>
		<g>
			<g>
				<circle fill="#F7910B" cx="32" cy="6.3" r="1.8"/>
			</g>
			<g>
				<circle fill="#F7910B" cx="32" cy="57.7" r="1.8"/>
			</g>
		</g>
		<g>
			<g>
				<circle fill="#F7910B" cx="57.7" cy="32" r="1.8"/>
			</g>
			<g>
				<circle fill="#F7910B" cx="6.3" cy="32" r="1.8"/>
			</g>
		</g>
		<g>
			<g>
				<g>
					<polygon fill="#F9A908" points="50.4,10.9 54.1,9.9 53.1,13.6 					"/>
				</g>
				<g>
					<polygon fill="#F9A908" points="13.6,53.1 9.9,54.1 10.9,50.4 					"/>
				</g>
			</g>
			<g>
				<g>
					<polygon fill="#F9A908" points="53.1,50.4 54.1,54.1 50.4,53.1 					"/>
				</g>
				<g>
					<polygon fill="#F9A908" points="10.9,13.6 9.9,9.9 13.6,10.9 					"/>
				</g>
			</g>
		</g>
	</g>
	<g>
		<g>
			<g>
				<circle fill="#F7910B" cx="50.1" cy="13.9" r="1.8"/>
			</g>
			<g>
				<circle fill="#F7910B" cx="13.9" cy="50.1" r="1.8"/>
			</g>
		</g>
		<g>
			<g>
				<circle fill="#F7910B" cx="50.1" cy="50.1" r="1.8"/>
			</g>
			<g>
				<circle fill="#F7910B" cx="13.9" cy="13.9" r="1.8"/>
			</g>
		</g>
		<g>
			<g>
				<g>
					<polygon fill="#F9A908" points="60,30.1 63.3,32 60,33.9 					"/>
				</g>
				<g>
					<polygon fill="#F9A908" points="4,33.9 0.7,32 4,30.1 					"/>
				</g>
			</g>
			<g>
				<g>
					<polygon fill="#F9A908" points="33.9,60 32,63.3 30.1,60 					"/>
				</g>
				<g>
					<polygon fill="#F9A908" points="30.1,4 32,0.7 33.9,4 					"/>
				</g>
			</g>
		</g>
	</g>
</g>
</svg>
