<?xml version="1.0" encoding="utf-8"?>
<!-- Generator: Adobe Illustrator 16.0.0, SVG Export Plug-In . SVG Version: 6.00 Build 0)  -->
<!DOCTYPE svg PUBLIC "-//W3C//DTD SVG 1.1//EN" "http://www.w3.org/Graphics/SVG/1.1/DTD/svg11.dtd">
<svg version="1.1" xmlns="http://www.w3.org/2000/svg" xmlns:xlink="http://www.w3.org/1999/xlink" x="0px" y="0px" width="65px"
	 height="65px" viewBox="0 0 65 65" enable-background="new 0 0 65 65" xml:space="preserve">
<g id="Layer_1">
	<g>
		<g>
			<g>
				<path fill="#B1BCB8" d="M44.378,35.978c0-6.318,3.818-11.439,8.527-11.439c4.711,0,8.529,5.121,8.529,11.439
					c0,6.316-3.818,11.438-8.529,11.438"/>
			</g>
			<g>
				<path fill="#C7D3CE" d="M52.905,24.538c4.711,0,8.529,5.121,8.529,11.439c0,6.316-3.818,11.438-8.529,11.438"/>
			</g>
			<g>
				<path fill="#0071AA" d="M52.905,49.915c-1.381,0-2.5-1.119-2.5-2.5s1.119-2.5,2.5-2.5c3.269,0,6.029-4.093,6.029-8.938
					c0-4.846-2.761-8.939-6.029-8.939c-3.268,0-6.027,4.094-6.027,8.939c0,1.381-1.119,2.5-2.5,2.5s-2.5-1.119-2.5-2.5
					c0-7.687,4.947-13.939,11.027-13.939c6.082,0,11.029,6.253,11.029,13.939C63.935,43.663,58.987,49.915,52.905,49.915z"/>
			</g>
		</g>
		<g>
			<g>
				<path fill="#32F9B1" d="M17.31,49.677V21.571c0-3.449,2.799-6.248,6.246-6.248h1.041c3.449,0,6.248,2.799,6.248,6.248v28.105"/>
			</g>
			<g>
				<path fill="#2FD4EA" d="M17.31,21.571c0-3.449,2.799-6.248,6.246-6.248h1.041c3.449,0,6.248,2.799,6.248,6.248v28.105"/>
			</g>
			<g>
				<path fill="#0071AA" d="M30.845,52.177c-1.381,0-2.5-1.119-2.5-2.5V21.571c0-2.066-1.682-3.748-3.748-3.748h-1.041
					c-2.066,0-3.746,1.682-3.746,3.748v28.105c0,1.381-1.119,2.5-2.5,2.5s-2.5-1.119-2.5-2.5V21.571
					c0-4.823,3.924-8.748,8.746-8.748h1.041c4.822,0,8.748,3.925,8.748,8.748v28.105C33.345,51.058,32.226,52.177,30.845,52.177z"/>
			</g>
		</g>
		<g>
			<g>
				<path fill="#32F9B1" d="M30.845,49.677V21.571c0-3.449,2.795-6.248,6.244-6.248h1.041c3.451,0,6.248,2.799,6.248,6.248v28.105"
					/>
			</g>
			<g>
				<path fill="#2FD4EA" d="M30.845,21.571c0-3.449,2.795-6.248,6.244-6.248h1.041c3.451,0,6.248,2.799,6.248,6.248v28.105"/>
			</g>
			<g>
				<path fill="#0071AA" d="M44.378,52.177c-1.381,0-2.5-1.119-2.5-2.5V21.571c0-2.066-1.682-3.748-3.748-3.748h-1.041
					c-2.064,0-3.744,1.682-3.744,3.748v28.105c0,1.381-1.119,2.5-2.5,2.5s-2.5-1.119-2.5-2.5V21.571
					c0-4.823,3.923-8.748,8.744-8.748h1.041c4.823,0,8.748,3.925,8.748,8.748v28.105C46.878,51.058,45.759,52.177,44.378,52.177z"/>
			</g>
		</g>
		<g>
			<g>
				<path fill="#B1BCB8" d="M3.565,21.571c0-3.449,2.797-6.248,6.246-6.248h1.041c3.449,0,6.246,2.799,6.246,6.248v28.105"/>
			</g>
			<g>
				<path fill="#C7D3CE" d="M3.565,21.571c0-3.449,2.797-6.248,6.246-6.248h1.041c3.449,0,6.246,2.799,6.246,6.248"/>
			</g>
			<g>
				<path fill="#0071AA" d="M17.099,52.177c-1.381,0-2.5-1.119-2.5-2.5V21.571c0-2.066-1.681-3.748-3.746-3.748H9.812
					c-2.066,0-3.746,1.682-3.746,3.748c0,1.381-1.119,2.5-2.5,2.5s-2.5-1.119-2.5-2.5c0-4.823,3.924-8.748,8.746-8.748h1.041
					c4.822,0,8.746,3.925,8.746,8.748v28.105C19.599,51.058,18.479,52.177,17.099,52.177z"/>
			</g>
		</g>
	</g>
</g>
<g id="nyt_x5F_exporter_x5F_info" display="none">
</g>
</svg>
