<?xml version="1.0" encoding="utf-8"?>
<!-- Generator: Adobe Illustrator 16.0.0, SVG Export Plug-In . SVG Version: 6.00 Build 0)  -->
<!DOCTYPE svg PUBLIC "-//W3C//DTD SVG 1.1//EN" "http://www.w3.org/Graphics/SVG/1.1/DTD/svg11.dtd">
<svg version="1.1" id="Layer_1" xmlns="http://www.w3.org/2000/svg" xmlns:xlink="http://www.w3.org/1999/xlink" x="0px" y="0px"
	 width="64px" height="64px" viewBox="0 0 64 64" enable-background="new 0 0 64 64" xml:space="preserve">
<g>
	<g>
		<circle fill="#FFFEFA" cx="20.7" cy="45.8" r="5.1"/>
	</g>
	<g>
		<g>
			<g>
				<path fill="#F7910B" d="M62.3,37.5C62.3,50.5,50.4,61,32,61C13.6,61,1.7,50.5,1.7,37.5S13.6,5,32,5C50.4,5,62.3,24.5,62.3,37.5z
					"/>
			</g>
			<g>
				<path fill="#F7910B" d="M62.3,37.5C62.3,50.5,50.4,57,32,57C13.6,57,1.7,50.5,1.7,37.5S13.6,3,32,3C50.4,3,62.3,24.5,62.3,37.5z
					"/>
			</g>
			<g>
				<path fill="#F9A908" d="M32,3c18.4,0,30.3,21.5,30.3,34.5S50.4,57,32,57"/>
			</g>
			<g>
				<path fill="#F9A908" d="M62.3,37.5C62.3,50.5,50.4,57,32,57C13.6,57,1.7,50.5,1.7,37.5S13.6,5,32,5C50.4,5,62.3,24.5,62.3,37.5z
					"/>
			</g>
			<g>
				<path fill="#F9C55D" d="M1.7,37.5C1.7,24.5,13.6,5,32,5"/>
			</g>
			<g>
				<path fill="#F7910B" d="M32,5c18.4,0,30.3,19.5,30.3,32.5S50.4,61,32,61"/>
			</g>
			<g>
				<path fill="#EA7103" d="M32,5c18.4,0,30.3,19.5,30.3,32.5"/>
			</g>
			<g>
				<g>
					<g>
						<g>
							<g>
								<g>
									<g>
										<path fill="#19BCA4" d="M27.2,18c-0.8,1-1.7-0.6-3.4-2c-1.6-1.4-3.4-2-2.6-3c0.8-1,2.8-0.7,4.5,0.7
											C27.4,15.1,28,17,27.2,18z"/>
									</g>
								</g>
							</g>
						</g>
						<g>
							<g>
								<g>
									<g>
										<path fill="#109DA0" d="M27.2,18c-0.8,1-1.7-0.6-3.4-2c-1.6-1.4-3.4-2-2.6-3"/>
									</g>
								</g>
							</g>
						</g>
					</g>
				</g>
				<g>
					<g>
						<g>
							<g>
								<g>
									<g>
										<path fill="#19BCA4" d="M36.8,18c0.8,1,1.7-0.6,3.4-2c1.6-1.4,3.4-2,2.6-3c-0.8-1-2.8-0.7-4.5,0.7
											C36.6,15.1,36,17,36.8,18z"/>
									</g>
								</g>
							</g>
						</g>
						<g>
							<g>
								<g>
									<g>
										<path fill="#109DA0" d="M36.8,18c0.8,1,1.7-0.6,3.4-2c1.6-1.4,3.4-2,2.6-3"/>
									</g>
								</g>
							</g>
						</g>
					</g>
				</g>
			</g>
			<g>
				<g>
					<path fill="#F9C55D" d="M27.8,30.8c0,1.2-3.5,0.7-7.8,0.7c-4.3,0-7.8,0.6-7.8-0.7c0-1.2,3.5-2.2,7.8-2.2
						C24.3,28.6,27.8,29.6,27.8,30.8z"/>
				</g>
				<g>
					<path fill="#F9A908" d="M51.8,30.8c0,1.2-3.5,0.7-7.8,0.7s-7.8,0.6-7.8-0.7c0-1.2,3.5-2.2,7.8-2.2S51.8,29.6,51.8,30.8z"/>
				</g>
			</g>
			<g>
				<circle fill="#F7910B" cx="10.3" cy="34.5" r="0.6"/>
			</g>
			<g>
				<circle fill="#F7910B" cx="5.8" cy="36.5" r="1.1"/>
			</g>
			<g>
				<circle fill="#F7910B" cx="8.8" cy="32.5" r="0.2"/>
			</g>
			<g>
				<circle fill="#F7910B" cx="13.4" cy="34.3" r="0.2"/>
			</g>
			<g>
				<circle fill="#F9A908" cx="52.6" cy="34.8" r="0.8"/>
			</g>
			<g>
				<circle fill="#F9A908" cx="55.1" cy="36.2" r="0.2"/>
			</g>
			<g>
				<circle fill="#F9A908" cx="49.8" cy="27.4" r="0.3"/>
			</g>
			<g>
				<circle fill="#F9A908" cx="49.3" cy="39" r="1.3"/>
			</g>
			<g>
				<circle fill="#F9A908" cx="56.5" cy="39.1" r="0.6"/>
			</g>
			<g>
				<circle fill="#F7910B" cx="9.3" cy="38.5" r="0.5"/>
			</g>
			<g>
				<circle fill="#F7910B" cx="10.1" cy="30.1" r="0.4"/>
			</g>
			<g>
				<circle fill="#F9A908" cx="4.8" cy="16.3" r="1.1"/>
			</g>
			<g>
				<circle fill="#F9A908" cx="8" cy="12.8" r="0.6"/>
			</g>
			<g>
				<circle fill="#F9A908" cx="59.2" cy="18.7" r="0.2"/>
			</g>
			<g>
				<circle fill="#F9A908" cx="58.4" cy="15.8" r="0.8"/>
			</g>
			<g>
				<path fill="#F9A908" d="M61.5,16.3c0,0.3-0.2,0.5-0.5,0.5c-0.3,0-0.5-0.2-0.5-0.5c0-0.3,0.2-0.5,0.5-0.5
					C61.2,15.8,61.5,16.1,61.5,16.3z"/>
			</g>
			<g>
				<circle fill="#F9A908" cx="6" cy="19.3" r="0.6"/>
			</g>
			<g>
				<g>
					<g>
						<g>
							<g>
								<g>
									<path fill="#1E4784" d="M18.2,21.4c0.4,0.1,0.7,0.4,0.9,0.8c0.9,1.8,3,2.5,4.8,1.7c0.8-0.4,1.8,0,2.2,0.8
										c0.4,0.8,0,1.8-0.8,2.2c-3.4,1.6-7.6,0.2-9.2-3.2c-0.4-0.8,0-1.8,0.8-2.2C17.4,21.3,17.8,21.3,18.2,21.4z"/>
								</g>
							</g>
							<g>
								<g>
									<path fill="#02243E" d="M16.2,23.7c-0.4-0.8,0-1.8,0.8-2.2c0.4-0.2,0.9-0.2,1.3-0.1c0.4,0.1,0.7,0.4,0.9,0.8
										c0.9,1.8,3,2.5,4.8,1.7c0.8-0.4,1.8,0,2.2,0.8c0.4,0.8,0,1.8-0.8,2.2"/>
								</g>
							</g>
						</g>
					</g>
				</g>
				<g>
					<g>
						<g>
							<g>
								<g>
									<path fill="#1E4784" d="M45.8,21.4c-0.4,0.1-0.7,0.4-0.9,0.8c-0.9,1.8-3,2.5-4.8,1.7c-0.8-0.4-1.8,0-2.2,0.8
										c-0.4,0.8,0,1.8,0.8,2.2c3.4,1.6,7.6,0.2,9.2-3.2c0.4-0.8,0-1.8-0.8-2.2C46.6,21.3,46.2,21.3,45.8,21.4z"/>
								</g>
							</g>
							<g>
								<g>
									<path fill="#02243E" d="M47.8,23.7c0.4-0.8,0-1.8-0.8-2.2c-0.4-0.2-0.9-0.2-1.3-0.1c-0.4,0.1-0.7,0.4-0.9,0.8
										c-0.9,1.8-3,2.5-4.8,1.7c-0.8-0.4-1.8,0-2.2,0.8c-0.4,0.8,0,1.8,0.8,2.2"/>
								</g>
							</g>
						</g>
					</g>
				</g>
			</g>
		</g>
		<g>
			<g>
				<path fill="#F7910B" d="M24.6,41.9c0-2.6,3.3-4.7,7.4-4.7c4.1,0,7.4,2.1,7.4,4.7"/>
			</g>
			<g>
				<g>
					<g>
						<path fill="#02243E" d="M44.4,40.6c-0.6,0-1.1-0.5-1.1-1.1c0-2.1,1.7-3.8,3.8-3.8c0.6,0,1.1,0.5,1.1,1.1S47.6,38,47,38
							c-0.9,0-1.6,0.7-1.6,1.6C45.5,40.1,45,40.6,44.4,40.6z"/>
					</g>
					<g>
						<path fill="#02243E" d="M19.6,40.6c-0.6,0-1.1-0.5-1.1-1.1c0-0.9-0.7-1.6-1.6-1.6c-0.6,0-1.1-0.5-1.1-1.1s0.5-1.1,1.1-1.1
							c2.1,0,3.8,1.7,3.8,3.8C20.7,40.1,20.2,40.6,19.6,40.6z"/>
					</g>
				</g>
				<g>
					<path fill="#02243E" d="M45.2,38.5c-0.3,0-0.6-0.1-0.8-0.3C41.1,34.8,36.7,33,32,33s-9.1,1.8-12.4,5.1c-0.4,0.4-1.1,0.4-1.6,0
						c-0.4-0.4-0.4-1.1,0-1.6c3.7-3.7,8.7-5.8,13.9-5.8s10.2,2.1,13.9,5.8c0.4,0.4,0.4,1.1,0,1.6C45.7,38.4,45.4,38.5,45.2,38.5z"/>
				</g>
			</g>
		</g>
		<g>
			<g>
				<path fill="#FFFEFA" d="M25.3,44.5l3.5-14L20,39.2c-0.4-0.1-0.8-0.1-1.2-0.1c-1.2,0-2.3,0.4-3.2,1.1c-0.7-0.3-1.4-0.4-2.2-0.4
					c-3.2,0-5.9,2.6-5.9,5.9c0,1.5,0.6,2.9,1.6,4c-0.7,1-1.2,2.2-1.2,3.5c0,3.2,2.6,5.9,5.9,5.9c1.3,0,2.5-0.5,3.5-1.2
					c0.9,0.7,2,1.1,3.2,1.1c2.8,0,5-2.1,5.3-4.7c1.6-0.9,2.8-2.7,2.8-4.7C28.6,47.2,27.2,45.3,25.3,44.5z"/>
			</g>
			<g>
				<path fill="#EDE5CE" d="M38.7,44.5l-3.5-14l8.7,8.7c0.4-0.1,0.8-0.1,1.2-0.1c1.2,0,2.3,0.4,3.2,1.1c0.7-0.3,1.4-0.4,2.2-0.4
					c3.2,0,5.9,2.6,5.9,5.9c0,1.5-0.6,2.9-1.6,4c0.7,1,1.2,2.2,1.2,3.5c0,3.2-2.6,5.9-5.9,5.9c-1.3,0-2.5-0.5-3.5-1.2
					c-0.9,0.7-2,1.1-3.2,1.1c-2.8,0-5-2.1-5.3-4.7c-1.6-0.9-2.8-2.7-2.8-4.7C35.4,47.2,36.8,45.3,38.7,44.5z"/>
			</g>
		</g>
	</g>
</g>
</svg>
