<?xml version="1.0" encoding="utf-8"?>
<!-- Generator: Adobe Illustrator 16.0.0, SVG Export Plug-In . SVG Version: 6.00 Build 0)  -->
<!DOCTYPE svg PUBLIC "-//W3C//DTD SVG 1.1//EN" "http://www.w3.org/Graphics/SVG/1.1/DTD/svg11.dtd">
<svg version="1.1" id="Layer_1" xmlns="http://www.w3.org/2000/svg" xmlns:xlink="http://www.w3.org/1999/xlink" x="0px" y="0px"
	 width="64px" height="64px" viewBox="0 0 64 64" enable-background="new 0 0 64 64" xml:space="preserve">
<g>
	<g>
		<g>
			<g>
				<g>
					<g>
						<g>
							<path fill="#F7910B" d="M61.2,40.4c0,12.4-11.4,22.4-29,22.4c-17.6,0-29-10-29-22.4c0-12.4,11.4-31,29-31
								C49.8,9.4,61.2,28,61.2,40.4z"/>
						</g>
						<g>
							<path fill="#F7910B" d="M61.2,40.4c0,12.4-11.4,18.6-29,18.6c-17.6,0-29-6.2-29-18.6c0-12.4,11.4-32.9,29-32.9
								C49.8,7.5,61.2,28,61.2,40.4z"/>
						</g>
						<g>
							<path fill="#F9A908" d="M32.2,7.5c17.6,0,29,20.6,29,32.9c0,12.4-11.4,18.6-29,18.6"/>
						</g>
						<g>
							<path fill="#F9A908" d="M61.2,40.4c0,12.4-11.4,18.6-29,18.6c-17.6,0-29-6.2-29-18.6c0-12.4,11.4-31,29-31
								C49.8,9.4,61.2,28,61.2,40.4z"/>
						</g>
						<g>
							<path fill="#F9C55D" d="M3.2,40.4c0-12.4,11.4-31,29-31"/>
						</g>
						<g>
							<path fill="#F7910B" d="M32.2,9.4c17.6,0,29,18.6,29,31c0,12.4-11.4,22.4-29,22.4"/>
						</g>
						<g>
							<path fill="#EA7103" d="M32.2,9.4c17.6,0,29,18.6,29,31"/>
						</g>
						<g>
							<g>
								<circle fill="#EA7103" cx="22.3" cy="29.1" r="3"/>
							</g>
							<g>
								<circle fill="#EA7103" cx="42.1" cy="29.1" r="3"/>
							</g>
							<g>
								<circle fill="#1E4784" cx="22.3" cy="28.3" r="3"/>
							</g>
							<g>
								<path fill="#00233F" d="M22.3,25.2c1.7,0,3,1.4,3,3s-1.4,3-3,3"/>
							</g>
							<g>
								<circle fill="#1E4784" cx="42.1" cy="28.3" r="3"/>
							</g>
							<g>
								<path fill="#00233F" d="M42.1,25.2c1.7,0,3,1.4,3,3s-1.4,3-3,3"/>
							</g>
						</g>
						<g>
							<g>
								<g>
									<g>
										<g>
											<g>
												<path fill="#19BCA4" d="M26.2,22.2c0,0.8-1.4,0.5-3.1,0.5c-1.7,0.1-3.1,0.5-3.1-0.3c0-0.8,1.3-1.6,3.1-1.6
													C24.7,20.8,26.2,21.4,26.2,22.2z"/>
											</g>
										</g>
									</g>
								</g>
								<g>
									<g>
										<g>
											<g>
												<path fill="#19BCA4" d="M38.2,22.2c0,0.8,1.4,0.5,3.1,0.5c1.7,0.1,3.1,0.5,3.1-0.3c0-0.8-1.3-1.6-3.1-1.6
													C39.7,20.8,38.3,21.4,38.2,22.2z"/>
											</g>
										</g>
									</g>
								</g>
							</g>
							<g>
								<g>
									<g>
										<g>
											<g>
												<path fill="#109DA0" d="M26.2,22.2c0,0.8-1.4,0.5-3.1,0.5c-1.7,0.1-3.1,0.5-3.1-0.3"/>
											</g>
										</g>
									</g>
								</g>
								<g>
									<g>
										<g>
											<g>
												<path fill="#109DA0" d="M38.2,22.2c0,0.8,1.4,0.5,3.1,0.5c1.7,0.1,3.1,0.5,3.1-0.3"/>
											</g>
										</g>
									</g>
								</g>
							</g>
						</g>
						<g>
							<g>
								<path fill="#F9C55D" d="M28.2,34c0,1.2-3.3,0.6-7.5,0.6c-4.1,0-7.5,0.5-7.5-0.6s3.3-2.1,7.5-2.1
									C24.9,31.9,28.2,32.9,28.2,34z"/>
							</g>
							<g>
								<path fill="#F9A908" d="M51.1,34c0,1.2-3.3,0.6-7.5,0.6c-4.1,0-7.5,0.5-7.5-0.6s3.3-2.1,7.5-2.1
									C47.8,31.9,51.1,32.9,51.1,34z"/>
							</g>
						</g>
						<g>
							<circle fill="#F7910B" cx="11.5" cy="37.5" r="0.6"/>
						</g>
						<g>
							<circle fill="#F7910B" cx="7.2" cy="39.4" r="1.1"/>
						</g>
						<g>
							<circle fill="#F7910B" cx="10.1" cy="35.6" r="0.2"/>
						</g>
						<g>
							<circle fill="#F7910B" cx="14.4" cy="37.3" r="0.2"/>
						</g>
						<g>
							<circle fill="#F9A908" cx="51.9" cy="37.9" r="0.7"/>
						</g>
						<g>
							<circle fill="#F9A908" cx="54.3" cy="39.2" r="0.2"/>
						</g>
						<g>
							<circle fill="#F9A908" cx="49.2" cy="30.8" r="0.3"/>
						</g>
						<g>
							<circle fill="#F9A908" cx="48.7" cy="41.9" r="1.3"/>
						</g>
						<g>
							<circle fill="#F9A908" cx="55.6" cy="41.9" r="0.6"/>
						</g>
						<g>
							<circle fill="#F7910B" cx="10.6" cy="41.4" r="0.5"/>
						</g>
						<g>
							<circle fill="#F7910B" cx="11.3" cy="33.3" r="0.4"/>
						</g>
						<g>
							<circle fill="#F9A908" cx="6.3" cy="20.2" r="1.1"/>
						</g>
						<g>
							<circle fill="#F9A908" cx="9.3" cy="16.8" r="0.5"/>
						</g>
						<g>
							<circle fill="#F9A908" cx="58.2" cy="22.5" r="0.2"/>
						</g>
						<g>
							<circle fill="#F9A908" cx="57.4" cy="19.7" r="0.8"/>
						</g>
						<g>
							<circle fill="#F9A908" cx="59.9" cy="20.2" r="0.5"/>
						</g>
						<g>
							<circle fill="#F9A908" cx="7.4" cy="23" r="0.5"/>
						</g>
						<g>
							<path fill="#8E6649" d="M3.3,41c0.3,12,11.6,22,29,22c17.4,0,28.7-10,29-22H3.3z"/>
						</g>
						<g>
							<path fill="#774313" d="M32.1,63c17.4,0,28.8-10,29.1-22H3"/>
						</g>
					</g>
				</g>
			</g>
		</g>
		<g>
			<path fill="#E8650C" d="M56,46.1c0,0.5-0.4,0.9-0.9,0.9h-6.2c-0.5,0-0.9-0.4-0.9-0.9v-0.2c0-0.5,0.4-0.9,0.9-0.9h6.2
				c0.5,0,0.9,0.4,0.9,0.9V46.1z"/>
		</g>
		<g>
			<path fill="#E8650C" d="M56,50.1c0,0.5-0.4,0.9-0.9,0.9h-6.2c-0.5,0-0.9-0.4-0.9-0.9v-0.2c0-0.5,0.4-0.9,0.9-0.9h6.2
				c0.5,0,0.9,0.4,0.9,0.9V50.1z"/>
		</g>
	</g>
	<g>
		<g>
			<path fill="#D3A95F" d="M14.4,19c-4.5,7-5.9,14.2-9.5,11.8c-3.7-2.4-3-10,1.6-17c4.5-7,10.1-12.3,14.8-8.4
				C29,11.9,18.9,12,14.4,19z"/>
		</g>
		<g>
			<path fill="#B58C39" d="M21.3,5.5C29,11.9,18.9,12,14.4,19c-4.5,7-5.9,14.2-9.5,11.8"/>
		</g>
	</g>
	<g>
		<g>
			<path fill="#B58C39" d="M49.6,19c4.5,7,5.9,14.2,9.5,11.8c3.7-2.4,3-10-1.6-17c-4.5-7-10.1-12.3-14.8-8.4
				C35,11.9,45.1,12,49.6,19z"/>
		</g>
		<g>
			<path fill="#D3A95F" d="M42.7,5.5C35,11.9,45.1,12,49.6,19c4.5,7,5.9,14.2,9.5,11.8"/>
		</g>
	</g>
	<g>
		<path fill="#8E6649" d="M51.1,8.5c0,4.2-3.4,7.5-7.5,7.5H20.9c-4.2,0-7.5-3.3-7.5-7.5l0,0c0-4.2,3.4-7.5,7.5-7.5h22.7
			C47.7,1,51.1,4.3,51.1,8.5L51.1,8.5z"/>
	</g>
	<g>
		<path fill="#A58168" d="M13.4,8.5L13.4,8.5c0-4.2,3.4-7.5,7.5-7.5H44"/>
	</g>
	<g>
		<path fill="#774313" d="M51.1,8.6L51.1,8.6c0,4.2-3.4,7.4-7.5,7.4H20.9c-4.2,0-7.5-3.3-7.5-7.5l0,0"/>
	</g>
	<g>
		<polygon fill="#F9A908" points="32.2,49.4 33.6,52.1 36.6,52.6 34.4,54.7 34.9,57.7 32.2,56.3 29.5,57.7 30,54.7 27.8,52.6 
			30.9,52.1 		"/>
	</g>
	<g>
		<g>
			<g>
				<circle fill="#A37A3E" cx="22.9" cy="12.8" r="7.8"/>
			</g>
			<g>
				<circle fill="#9EC6C1" cx="22.9" cy="12.8" r="5.9"/>
			</g>
			<g>
				<path fill="#C1DBD8" d="M28.8,13.2c0,2.9-2.4,5.3-5.3,5.3c-2.9,0-5.3-2.4-5.3-5.3c0-2.9,2.4-5.3,5.3-5.3
					C26.4,7.9,28.8,10.3,28.8,13.2z"/>
			</g>
			<g>
				<path fill="#D8EAE7" d="M27.2,9.5c2.1,2.1,2.1,5.4,0,7.4c-2.1,2.1-5.4,2.1-7.4,0"/>
			</g>
		</g>
		<g>
			<g>
				<circle fill="#A37A3E" cx="41.5" cy="12.8" r="7.8"/>
			</g>
			<g>
				<circle fill="#9EC6C1" cx="41.5" cy="12.8" r="5.9"/>
			</g>
			<g>
				<path fill="#C1DBD8" d="M47.4,13.2c0,2.9-2.4,5.3-5.3,5.3c-2.9,0-5.3-2.4-5.3-5.3c0-2.9,2.4-5.3,5.3-5.3
					C45,7.9,47.4,10.3,47.4,13.2z"/>
			</g>
			<g>
				<path fill="#D8EAE7" d="M45.8,9.5c2.1,2.1,2.1,5.4,0,7.4c-2.1,2.1-5.4,2.1-7.4,0"/>
			</g>
		</g>
	</g>
	<g>
		<path fill="#02243E" d="M36,40h-8c-0.6,0-1-0.4-1-1s0.4-1,1-1h8c0.6,0,1,0.4,1,1S36.6,40,36,40z"/>
	</g>
	<g>
		<polyline fill="#F7910B" points="37.3,40.7 32.2,45.8 27.1,40.7 		"/>
	</g>
	<g>
		<path fill="#E5BD7F" d="M9.2,11.1c-2.1,3-3.5,5.6-3.2,5.9c0.4,0.3,2.4-1.9,4.6-4.9c2.1-3,1.9-3.3,1.5-3.6
			C11.8,8.3,11.4,8.1,9.2,11.1z"/>
	</g>
</g>
</svg>
