<?xml version="1.0" encoding="utf-8"?>
<!-- Generator: Adobe Illustrator 16.0.0, SVG Export Plug-In . SVG Version: 6.00 Build 0)  -->
<!DOCTYPE svg PUBLIC "-//W3C//DTD SVG 1.1//EN" "http://www.w3.org/Graphics/SVG/1.1/DTD/svg11.dtd">
<svg version="1.1" id="Layer_1" xmlns="http://www.w3.org/2000/svg" xmlns:xlink="http://www.w3.org/1999/xlink" x="0px" y="0px"
	 width="64px" height="64px" viewBox="0 0 64 64" enable-background="new 0 0 64 64" xml:space="preserve">
<g>
	<path fill="#2C5E99" d="M55.4,1c-1.9,2-3.9,3.5-5.9,5.5C37.8,18.2,30,29.4,32.1,31.5c2.1,2.1,13.3-5.8,25.1-17.5
		c2.1-2.1,3.8-4.2,5.8-6.2V1H55.4z"/>
	<path fill="#1E4784" d="M55.4,1c-1.9,2-3.9,3.5-5.9,5.5C37.8,18.2,30,29.5,32.1,31.6L62.8,1H55.4z"/>
	<g>
		<path fill="#F9A908" d="M41.6,40.1c0,16.4-9.1,23-20.3,23c-11.2,0-20.3-6.6-20.3-23S10,7.5,21.2,7.5C32.5,7.5,41.6,23.7,41.6,40.1
			z"/>
		<path fill="#F7910B" d="M21.2,7.5c11.2,0,20.3,16.2,20.3,32.7s-9.1,23-20.3,23"/>
		<g>
			<path opacity="0.7" fill="#F3FEFF" d="M13.1,19.2c-2.4,3.6-5.2,5.8-6.5,5s-0.3-4.4,2.1-7.9s5.2-5.8,6.5-5
				C16.4,12,15.5,15.6,13.1,19.2z"/>
			
				<ellipse transform="matrix(0.8356 0.5493 -0.5493 0.8356 11.1287 -2.7459)" opacity="0.6" fill="#F3FEFF" cx="10.2" cy="17.2" rx="1.7" ry="5"/>
			
				<ellipse transform="matrix(0.9677 0.2522 -0.2522 0.9677 7.8294 -0.1721)" opacity="0.7" fill="#F3FEFF" cx="4.6" cy="30.5" rx="1.2" ry="3.5"/>
			<path opacity="0.3" fill="#757575" d="M21.2,7.5c12.3,0,20.3,17.8,20.3,32.7c0,16.4-9.1,23-20.3,23"/>
		</g>
	</g>
	<path fill="#F9A0D5" d="M22.9,36.9c0,0-6.3,0.4-6.3,8.9l0.1,5.8c0,0,0.3,3.6,1.3,3.9v5.9c0,0,0.2,1.2,0.8,0.8s0.9-2.9,1.6-2.6
		s0.9-0.3,1.7-3.5s0.2-3.1,2.3-5.4s-0.4-7,1.8-8.5c11.7-7.7,0.3-5.2-0.5-5.1S22.9,36.9,22.9,36.9z"/>
	<path fill="#EF78C5" d="M16.7,51.5c0,0,0.3,3.6,1.3,3.9v5.9c0,0,0.2,1.2,0.8,0.8s0.9-2.9,1.6-2.6s0.9-0.3,1.7-3.5s0.2-3.1,2.3-5.4
		s-0.4-7,1.8-8.5c11.7-7.7,0.3-5.2-0.5-5.1s-3-0.1-3-0.1"/>
	<g>
		<path fill="#1AB0D3" d="M43,13.4c-7.9,8.9-12.6,16.4-10.9,18.1c1.7,1.7,9.1-3,18.1-10.8L43,13.4z"/>
		<path fill="#49D1E8" d="M32.1,31.5c1.7,1.7,9.1-3,18.1-10.8"/>
		<path fill="#0F8EB5" d="M43,13.4c-7.9,8.9-12.6,16.4-10.9,18.1"/>
		<path fill="#1E4784" d="M37,27.7c0,0,3.7,7.1-7.1,11.5c-10.8,4.4-7.8,7-7.8,7s-3.6-2.1-0.5-8.4c3-6.4,7.5-13.9,14.5-10.9L37,27.7z
			"/>
		<path fill="#0E3666" d="M21.6,37.7c3-6.4,7.5-13.9,14.5-10.9l0.9,0.8"/>
	</g>
</g>
</svg>
