<?xml version="1.0" encoding="utf-8"?>
<!-- Generator: Adobe Illustrator 16.0.0, SVG Export Plug-In . SVG Version: 6.00 Build 0)  -->
<!DOCTYPE svg PUBLIC "-//W3C//DTD SVG 1.1//EN" "http://www.w3.org/Graphics/SVG/1.1/DTD/svg11.dtd">
<svg version="1.1" id="Layer_1" xmlns="http://www.w3.org/2000/svg" xmlns:xlink="http://www.w3.org/1999/xlink" x="0px" y="0px"
	 width="64px" height="64px" viewBox="0 0 64 64" enable-background="new 0 0 64 64" xml:space="preserve">
<g>
	<g>
		<g>
			<path fill="#F7910B" d="M60.5,42.1c0,11.6-10.7,21-27.1,21c-16.5,0-27.1-9.4-27.1-21S16.9,13,33.4,13
				C49.8,13,60.5,30.5,60.5,42.1z"/>
		</g>
		<g>
			<path fill="#F7910B" d="M60.5,42.1c0,11.6-10.7,17.4-27.1,17.4c-16.5,0-27.1-5.8-27.1-17.4s10.7-30.9,27.1-30.9
				C49.8,11.2,60.5,30.5,60.5,42.1z"/>
		</g>
		<g>
			<path fill="#F9A908" d="M33.4,11.2c16.5,0,27.1,19.3,27.1,30.9S49.8,59.5,33.4,59.5"/>
		</g>
		<g>
			<path fill="#F9A908" d="M60.5,42.1c0,11.6-10.7,17.4-27.1,17.4c-16.5,0-27.1-5.8-27.1-17.4S16.9,13,33.4,13
				C49.8,13,60.5,30.5,60.5,42.1z"/>
		</g>
		<g>
			<path fill="#F9C55D" d="M6.2,42.1C6.2,30.5,16.9,13,33.4,13"/>
		</g>
		<g>
			<path fill="#F7910B" d="M33.4,13c16.5,0,27.1,17.5,27.1,29.1s-10.7,21-27.1,21"/>
		</g>
		<g>
			<path fill="#EA7103" d="M33.4,13c16.5,0,27.1,17.5,27.1,29.1"/>
		</g>
		<g>
			<g>
				<g>
					<g>
						<g>
							<g>
								<path fill="#19BCA4" d="M27.9,31c0.3,0.7-1.1,0.8-2.6,1.4c-1.5,0.6-2.6,1.4-2.9,0.7c-0.3-0.7,0.7-1.8,2.2-2.4
									C26.1,30.2,27.6,30.3,27.9,31z"/>
							</g>
						</g>
					</g>
				</g>
				<g>
					<g>
						<g>
							<g>
								<path fill="#109DA0" d="M27.9,31c0.3,0.7-1.1,0.8-2.6,1.4c-1.5,0.6-2.6,1.4-2.9,0.7"/>
							</g>
						</g>
					</g>
				</g>
			</g>
			<g>
				<g>
					<g>
						<g>
							<g>
								<path fill="#19BCA4" d="M38.9,31c-0.3,0.7,1.1,0.8,2.6,1.4c1.5,0.6,2.6,1.4,2.9,0.7c0.3-0.7-0.7-1.8-2.2-2.4
									C40.6,30.2,39.1,30.3,38.9,31z"/>
							</g>
						</g>
					</g>
				</g>
				<g>
					<g>
						<g>
							<g>
								<path fill="#109DA0" d="M38.9,31c-0.3,0.7,1.1,0.8,2.6,1.4c1.5,0.6,2.6,1.4,2.9,0.7"/>
							</g>
						</g>
					</g>
				</g>
			</g>
		</g>
		<g>
			<g>
				<path fill="#F9C55D" d="M29.6,45c0,1.1-3.1,0.6-7,0.6c-3.9,0-7,0.5-7-0.6c0-1.1,3.1-2,7-2C26.5,43.1,29.6,43.9,29.6,45z"/>
			</g>
			<g>
				<path fill="#F9A908" d="M51.1,45c0,1.1-3.1,0.6-7,0.6c-3.9,0-7,0.5-7-0.6c0-1.1,3.1-2,7-2C47.9,43.1,51.1,43.9,51.1,45z"/>
			</g>
		</g>
		<g>
			<circle fill="#F7910B" cx="14" cy="39.3" r="0.6"/>
		</g>
		<g>
			<circle fill="#F7910B" cx="9.9" cy="41.1" r="1"/>
		</g>
		<g>
			<circle fill="#F7910B" cx="12.6" cy="37.6" r="0.2"/>
		</g>
		<g>
			<circle fill="#F7910B" cx="16.7" cy="39.2" r="0.2"/>
		</g>
		<g>
			<circle fill="#F9A908" cx="51.8" cy="39.7" r="0.7"/>
		</g>
		<g>
			<circle fill="#F9A908" cx="54" cy="40.9" r="0.2"/>
		</g>
		<g>
			<circle fill="#F9A908" cx="49.3" cy="33" r="0.3"/>
		</g>
		<g>
			<circle fill="#F9A908" cx="48.8" cy="43.4" r="1.2"/>
		</g>
		<g>
			<circle fill="#F9A908" cx="55.2" cy="43.5" r="0.6"/>
		</g>
		<g>
			<circle fill="#F7910B" cx="13.1" cy="43" r="0.4"/>
		</g>
		<g>
			<circle fill="#F7910B" cx="13.8" cy="35.4" r="0.4"/>
		</g>
		<g>
			<circle fill="#F9A908" cx="9.1" cy="23.1" r="1"/>
		</g>
		<g>
			<circle fill="#F9A908" cx="11.9" cy="19.9" r="0.5"/>
		</g>
		<g>
			<circle fill="#F9A908" cx="57.7" cy="25.3" r="0.2"/>
		</g>
		<g>
			<circle fill="#F9A908" cx="57" cy="22.6" r="0.7"/>
		</g>
		<g>
			<circle fill="#F9A908" cx="59.3" cy="23.1" r="0.4"/>
		</g>
		<g>
			<circle fill="#F9A908" cx="10.1" cy="25.8" r="0.5"/>
		</g>
		<g>
			<g>
				<g>
					<g>
						<g>
							<path fill="#1E4784" d="M26.1,42.5c-0.4-0.1-0.7-0.3-1-0.6c-1-1.5-3-1.8-4.5-0.8c-0.7,0.5-1.6,0.3-2.1-0.4
								c-0.5-0.7-0.3-1.6,0.4-2.1c2.8-1.9,6.7-1.2,8.6,1.6c0.5,0.7,0.3,1.6-0.4,2.1C26.8,42.5,26.4,42.6,26.1,42.5z"/>
						</g>
					</g>
					<g>
						<g>
							<path fill="#02243E" d="M27.6,40.2c0.5,0.7,0.3,1.6-0.4,2.1c-0.3,0.2-0.7,0.3-1.1,0.2c-0.4-0.1-0.7-0.3-1-0.6
								c-1-1.5-3-1.8-4.5-0.8c-0.7,0.5-1.6,0.3-2.1-0.4c-0.5-0.7-0.3-1.6,0.4-2.1"/>
						</g>
					</g>
				</g>
			</g>
			<g>
				<g>
					<g>
						<g>
							<path fill="#1E4784" d="M40.6,42.5c0.4-0.1,0.7-0.3,1-0.6c1-1.5,3-1.8,4.5-0.8c0.7,0.5,1.6,0.3,2.1-0.4
								c0.5-0.7,0.3-1.6-0.4-2.1c-2.8-1.9-6.7-1.2-8.6,1.6c-0.5,0.7-0.3,1.6,0.4,2.1C39.9,42.5,40.3,42.6,40.6,42.5z"/>
						</g>
					</g>
					<g>
						<g>
							<path fill="#02243E" d="M39.2,40.2c-0.5,0.7-0.3,1.6,0.4,2.1c0.3,0.2,0.7,0.3,1.1,0.2c0.4-0.1,0.7-0.3,1-0.6
								c1-1.5,3-1.8,4.5-0.8c0.7,0.5,1.6,0.3,2.1-0.4c0.5-0.7,0.3-1.6-0.4-2.1"/>
						</g>
					</g>
				</g>
			</g>
		</g>
	</g>
	<g>
		<g>
			<g>
				<polygon fill="#1E4784" points="49.9,22.9 38.1,25.2 29.7,17.4 46.3,0.9 				"/>
			</g>
			<g>
				<polyline fill="#00233F" points="46.3,0.9 49.9,22.9 38.1,25.2 				"/>
			</g>
			<g>
				<polygon fill="#ED6992" points="42.1,5 47.6,8.8 47.1,5.8 43.7,3.5 				"/>
			</g>
			<g>
				<polyline fill="#E2446E" points="47.6,8.8 47.1,5.8 43.7,3.5 				"/>
			</g>
			<g>
				<polygon fill="#ED6992" points="37.7,9.5 49,17.3 48.5,14.2 39.3,7.9 				"/>
			</g>
			<g>
				<polyline fill="#E2446E" points="49,17.3 48.5,14.2 39.3,7.9 				"/>
			</g>
			<g>
				<polygon fill="#ED6992" points="33.2,13.9 47.1,23.4 49.9,22.9 49.9,22.7 34.8,12.3 				"/>
			</g>
			<g>
				<polyline fill="#E2446E" points="47.1,23.4 49.9,22.9 49.9,22.7 34.8,12.3 				"/>
			</g>
			<g>
				<polygon fill="#ED6992" points="41.6,24.5 30.4,16.8 29.7,17.4 38,25.3 38.6,25.1 				"/>
			</g>
			<g>
				<polyline fill="#E2446E" points="38.6,25.1 41.6,24.5 30.4,16.8 				"/>
			</g>
		</g>
		<g>
			<circle fill="#E2446E" cx="17.5" cy="21.9" r="3"/>
		</g>
		<g>
			<path fill="#E2446E" d="M26.8,21.7c0,0.9-0.7,1.6-1.6,1.6s-1.6-0.7-1.6-1.6c0-0.9,0.7-1.6,1.6-1.6S26.8,20.9,26.8,21.7z"/>
		</g>
		<g>
			<circle fill="#A2CC2E" cx="16.9" cy="13.9" r="2.1"/>
		</g>
		<g>
			<path fill="#A2CC2E" d="M56.9,26c0,2.2-1.8,4.1-4.1,4.1c-2.2,0-4.1-1.8-4.1-4.1c0-2.2,1.8-4.1,4.1-4.1C55,22,56.9,23.8,56.9,26z"
				/>
		</g>
		<g>
			<circle fill="#E2446E" cx="52.6" cy="34.1" r="1.1"/>
		</g>
		<g>
			<circle fill="#A2CC2E" cx="24.8" cy="12.2" r="1.3"/>
		</g>
	</g>
	<g>
		<ellipse fill="#02243E" cx="30" cy="52.5" rx="2" ry="2.5"/>
	</g>
	<g>
		<ellipse fill="#F9A908" cx="34.8" cy="52.9" rx="2.5" ry="4.1"/>
	</g>
	<g>
		<g>
			<path fill="#E2446E" d="M15,54.5c-1.7,0-3.5-0.6-5.1-1.2c-3-1.2-5.2-3.4-6-5.8c-0.7-2.1-0.5-4.3,0.5-6.2c1-1.9,2.6-3.4,4.7-4.1
				c3.5-1.2,7.3,0.7,8.5,4.2c1,2.9-0.6,6.1-3.5,7c-1.2,0.4-2.4,0.3-3.6-0.3c-1.1-0.6-1.9-1.5-2.3-2.7c-0.3-1-0.3-2.1,0.2-3
				c0.5-0.9,1.3-1.6,2.3-2c0.5-0.2,1.1,0.1,1.2,0.6c0.2,0.5-0.1,1.1-0.6,1.2c-0.5,0.2-0.9,0.5-1.1,1c-0.2,0.5-0.3,1-0.1,1.5
				c0.2,0.7,0.7,1.2,1.3,1.6c0.6,0.3,1.4,0.4,2.1,0.1c1.9-0.6,2.9-2.7,2.3-4.5c-0.8-2.5-3.5-3.8-6-3c-1.6,0.5-2.8,1.6-3.6,3.1
				c-0.7,1.5-0.9,3.1-0.3,4.7c0.6,1.9,2.4,3.6,4.9,4.6c2.4,1,5.1,1.5,7.1,0.8c0.1,0,0.2-0.1,0.3-0.1h11.6c0.5,0,1,0.5,1,1
				c0,0.5-0.4,1-1,1H18.2C17.2,54.2,16.1,54.5,15,54.5z"/>
		</g>
	</g>
</g>
</svg>
