<?xml version="1.0" encoding="utf-8"?>
<!-- Generator: Adobe Illustrator 16.0.0, SVG Export Plug-In . SVG Version: 6.00 Build 0)  -->
<!DOCTYPE svg PUBLIC "-//W3C//DTD SVG 1.1//EN" "http://www.w3.org/Graphics/SVG/1.1/DTD/svg11.dtd">
<svg version="1.1" xmlns="http://www.w3.org/2000/svg" xmlns:xlink="http://www.w3.org/1999/xlink" x="0px" y="0px" width="65px"
	 height="65px" viewBox="0 0 65 65" enable-background="new 0 0 65 65" xml:space="preserve">
<g id="Layer_1">
	<g>
		<path fill="#381F0B" d="M50.294,40.668c-1.059,1.058-2.773,1.059-3.832,0l0,0c-1.059-1.059-1.057-2.773,0-3.832l13.412-13.411
			c1.061-1.06,2.775-1.061,3.834-0.002l0,0c1.059,1.059,1.056,2.772-0.003,3.831L50.294,40.668z"/>
		<path fill="#381F0B" d="M42.587,37.238c-1.151-0.002-2.086-0.934-2.086-2.088l0,0c0-1.152,0.935-2.086,2.086-2.087L57.2,33.064
			c1.152,0,2.086,0.934,2.086,2.086l0,0c0,1.154-0.934,2.086-2.086,2.088H42.587z"/>
		<path fill="#381F0B" d="M59.094,21.292c0-0.418,0.339-0.758,0.757-0.757l0,0c0.416,0,0.754,0.338,0.754,0.756v5.289
			c0,0.417-0.338,0.756-0.754,0.756l0,0c-0.418,0-0.756-0.339-0.757-0.757V21.292z"/>
		<path fill="#6D4116" d="M50.215,7.453H16.817c-2.838,0-5.139,1.257-5.139,4.094v42.068c0,1.89,1.031,2.993,2.552,3.529
			c2.786,1.17,10.356,2.01,19.286,2.01c8.928,0,16.5-0.84,19.285-2.009c1.52-0.537,2.551-1.641,2.551-3.53V11.546
			C55.353,8.709,53.052,7.453,50.215,7.453z"/>
		<path fill="#59320F" d="M11.679,53.615c0,1.89,1.031,2.993,2.552,3.529c2.786,1.17,10.356,2.01,19.286,2.01
			c8.928,0,16.5-0.84,19.285-2.009c1.52-0.537,2.551-1.641,2.551-3.53V11.546c0-2.837-2.301-4.094-5.138-4.094"/>
		<ellipse fill="#B27747" cx="33.516" cy="8.843" rx="20.446" ry="2.997"/>
		<path fill="#C18753" d="M53.962,8.843c0,1.656-9.152,2.997-20.445,2.997S13.069,10.5,13.069,8.843"/>
		<path fill="#59320F" d="M17.567,27.509l-9.779-9.781c-1.025-1.021-2.686-1.021-3.711,0c-1.022,1.025-4.4-0.69-3.379,0.33
			l15.744,15.746c0.325,0.323,0.714,0.533,1.125,0.652V27.509z"/>
		<ellipse fill="#B27747" cx="4.073" cy="17.676" rx="3.573" ry="1.013"/>
		<path fill="#C18753" d="M7.646,17.676c0,0.559-1.6,1.013-3.574,1.013c-1.974,0-3.572-0.454-3.572-1.013"/>
		<path fill="#59320F" d="M10.395,23.723c0,0.532-0.433,0.964-0.962,0.964H4.187c-0.533,0-0.963-0.432-0.963-0.964l0,0
			c0-0.531,0.43-0.963,0.963-0.963h5.246C9.962,22.76,10.395,23.192,10.395,23.723L10.395,23.723z"/>
		<path fill="#7A4D25" d="M23.775,24.901c0,0.297-0.239,0.536-0.535,0.536l0,0c-0.297,0-0.536-0.239-0.536-0.536v-8.884
			c0-0.296,0.239-0.535,0.536-0.535l0,0c0.296,0,0.535,0.239,0.535,0.535V24.901z"/>
		<path fill="#7A4D25" d="M21.101,26.4c0,0.297-0.24,0.536-0.536,0.536l0,0c-0.296,0-0.536-0.239-0.536-0.536v-8.884
			c0-0.296,0.24-0.535,0.536-0.535l0,0c0.296,0,0.536,0.239,0.536,0.535V26.4z"/>
		<path fill="#7A4D25" d="M26.666,32.501c0,0.297-0.24,0.536-0.536,0.536l0,0c-0.296,0-0.535-0.239-0.535-0.536v-8.884
			c0-0.296,0.239-0.535,0.535-0.535l0,0c0.296,0,0.536,0.239,0.536,0.535V32.501z"/>
		<path fill="#6D4116" d="M47.646,34.588c0,0.296-0.241,0.535-0.536,0.535l0,0c-0.297,0-0.535-0.239-0.535-0.535v-8.884
			c0-0.297,0.238-0.536,0.535-0.536l0,0c0.295,0,0.536,0.239,0.536,0.536V34.588z"/>
		<path fill="#6D4116" d="M50.856,41.01c0,0.297-0.238,0.536-0.535,0.536l0,0c-0.297,0-0.535-0.239-0.535-0.536v-8.884
			c0-0.296,0.238-0.535,0.535-0.535l0,0c0.297,0,0.535,0.239,0.535,0.535V41.01z"/>
		<path fill="#6D4116" d="M32.339,55.14c0,0.297-0.238,0.536-0.535,0.536l0,0c-0.297,0-0.535-0.239-0.535-0.536v-8.884
			c0-0.296,0.238-0.535,0.535-0.535l0,0c0.297,0,0.535,0.239,0.535,0.535V55.14z"/>
		<path fill="#6D4116" d="M44.22,40.262c0,0.296-0.239,0.535-0.535,0.535l0,0c-0.297,0-0.536-0.239-0.536-0.535v-8.885
			c0-0.296,0.239-0.535,0.536-0.535l0,0c0.296,0,0.535,0.239,0.535,0.535V40.262z"/>
	</g>
</g>
<g id="nyt_x5F_exporter_x5F_info" display="none">
</g>
</svg>
