<?xml version="1.0" encoding="utf-8"?>
<!-- Generator: Adobe Illustrator 16.0.0, SVG Export Plug-In . SVG Version: 6.00 Build 0)  -->
<!DOCTYPE svg PUBLIC "-//W3C//DTD SVG 1.1//EN" "http://www.w3.org/Graphics/SVG/1.1/DTD/svg11.dtd">
<svg version="1.1" id="Layer_1" xmlns="http://www.w3.org/2000/svg" xmlns:xlink="http://www.w3.org/1999/xlink" x="0px" y="0px"
	 width="64px" height="64px" viewBox="0 0 64 64" enable-background="new 0 0 64 64" xml:space="preserve">
<g>
	<g>
		<g>
			<g>
				<path fill="#F7910B" d="M62.3,39.8c0,13-11.9,23.5-30.3,23.5c-18.4,0-30.3-10.5-30.3-23.5S13.6,7.3,32,7.3
					C50.4,7.3,62.3,26.9,62.3,39.8z"/>
			</g>
			<g>
				<path fill="#F7910B" d="M62.3,39.8c0,13-11.9,19.5-30.3,19.5c-18.4,0-30.3-6.5-30.3-19.5S13.6,5.3,32,5.3
					C50.4,5.3,62.3,26.9,62.3,39.8z"/>
			</g>
			<g>
				<path fill="#F9A908" d="M32,5.3c18.4,0,30.3,21.5,30.3,34.5S50.4,59.3,32,59.3"/>
			</g>
			<g>
				<path fill="#F9A908" d="M62.3,39.8c0,13-11.9,19.5-30.3,19.5c-18.4,0-30.3-6.5-30.3-19.5S13.6,7.3,32,7.3
					C50.4,7.3,62.3,26.9,62.3,39.8z"/>
			</g>
			<g>
				<path fill="#F9C55D" d="M1.7,39.8c0-13,11.9-32.5,30.3-32.5"/>
			</g>
			<g>
				<path fill="#F7910B" d="M32,7.3c18.4,0,30.3,19.5,30.3,32.5S50.4,63.3,32,63.3"/>
			</g>
			<g>
				<path fill="#EA7103" d="M32,7.3c18.4,0,30.3,19.5,30.3,32.5"/>
			</g>
			<g>
				<g>
					<g>
						<g>
							<path fill="#19BCA4" d="M25.7,1.4c0.3,0.8-1.2,0.9-2.9,1.5c-1.7,0.6-2.9,1.5-3.2,0.7c-0.3-0.8,0.8-2,2.5-2.6
								C23.7,0.4,25.4,0.6,25.7,1.4z"/>
						</g>
					</g>
				</g>
			</g>
			<g>
				<g>
					<g>
						<g>
							<path fill="#19BCA4" d="M38.3,2.7c0,0.9,1.4,0.5,3.3,0.6c1.8,0.1,3.3,0.6,3.3-0.3c0-0.9-1.4-1.6-3.2-1.7
								C39.8,1.1,38.3,1.8,38.3,2.7z"/>
						</g>
					</g>
				</g>
			</g>
			<g>
				<g>
					<g>
						<g>
							<path fill="#109DA0" d="M25.7,1.4c0.3,0.8-1.2,0.9-2.9,1.5c-1.7,0.6-2.9,1.5-3.2,0.7"/>
						</g>
					</g>
				</g>
			</g>
			<g>
				<g>
					<g>
						<g>
							<path fill="#109DA0" d="M38.3,2.7c0,0.9,1.4,0.5,3.3,0.6c1.8,0.1,3.3,0.6,3.3-0.3"/>
						</g>
					</g>
				</g>
			</g>
			<g>
				<circle fill="#F7910B" cx="10.3" cy="36.8" r="0.6"/>
			</g>
			<g>
				<circle fill="#F7910B" cx="5.8" cy="38.8" r="1.1"/>
			</g>
			<g>
				<circle fill="#F7910B" cx="8.8" cy="34.8" r="0.2"/>
			</g>
			<g>
				<circle fill="#F7910B" cx="13.4" cy="36.6" r="0.2"/>
			</g>
			<g>
				<circle fill="#F9A908" cx="52.6" cy="37.2" r="0.8"/>
			</g>
			<g>
				<circle fill="#F9A908" cx="55.1" cy="38.6" r="0.2"/>
			</g>
			<g>
				<circle fill="#F9A908" cx="49.8" cy="29.7" r="0.3"/>
			</g>
			<g>
				<circle fill="#F9A908" cx="44.9" cy="28.7" r="1.3"/>
			</g>
			<g>
				<circle fill="#F9A908" cx="56.5" cy="41.4" r="0.6"/>
			</g>
			<g>
				<circle fill="#F7910B" cx="9.3" cy="40.8" r="0.5"/>
			</g>
			<g>
				<circle fill="#F7910B" cx="10.1" cy="32.4" r="0.4"/>
			</g>
			<g>
				<circle fill="#F9A908" cx="4.8" cy="18.7" r="1.1"/>
			</g>
			<g>
				<circle fill="#F9A908" cx="8" cy="15.1" r="0.6"/>
			</g>
			<g>
				<circle fill="#F9A908" cx="59.2" cy="21.1" r="0.2"/>
			</g>
			<g>
				<circle fill="#F9A908" cx="58.4" cy="18.1" r="0.8"/>
			</g>
			<g>
				<path fill="#F9A908" d="M61.5,18.7c0,0.3-0.2,0.5-0.5,0.5c-0.3,0-0.5-0.2-0.5-0.5c0-0.3,0.2-0.5,0.5-0.5
					C61.2,18.2,61.5,18.4,61.5,18.7z"/>
			</g>
			<g>
				<circle fill="#F9A908" cx="6" cy="21.6" r="0.6"/>
			</g>
			<g>
				<g>
					<g>
						<path fill="#F9C55D" d="M27.4,26.9c0,1.3-3.8,0.7-8.6,0.7c-4.7,0-8.6,0.6-8.6-0.7c0-1.3,3.8-2.4,8.6-2.4
							C23.6,24.4,27.4,25.5,27.4,26.9z"/>
					</g>
					<g>
						<path fill="#F9A908" d="M53.8,26.9c0,1.3-3.8,0.7-8.6,0.7c-4.7,0-8.6,0.6-8.6-0.7c0-1.3,3.8-2.4,8.6-2.4
							C49.9,24.4,53.8,25.5,53.8,26.9z"/>
					</g>
				</g>
				<g>
					<g>
						<g>
							<g>
								<g>
									<g>
										<path fill="#1E4784" d="M16.7,19.7c0.4,0,0.8,0.2,1.2,0.5c1.4,1.4,3.7,1.4,5.1,0c0.6-0.6,1.7-0.7,2.3,0
											c0.6,0.6,0.7,1.7,0,2.3c-2.7,2.7-7.1,2.7-9.8,0c-0.6-0.6-0.7-1.7,0-2.3C15.9,19.8,16.3,19.7,16.7,19.7z"/>
									</g>
								</g>
								<g>
									<g>
										<path fill="#02243E" d="M15.6,22.5c-0.6-0.6-0.7-1.7,0-2.3c0.3-0.3,0.7-0.5,1.2-0.5c0.4,0,0.8,0.2,1.2,0.5
											c1.4,1.4,3.7,1.4,5.1,0c0.6-0.6,1.7-0.7,2.3,0c0.6,0.6,0.7,1.7,0,2.3"/>
									</g>
								</g>
							</g>
						</g>
					</g>
					<g>
						<g>
							<g>
								<g>
									<g>
										<path fill="#1E4784" d="M47.3,19.7c-0.4,0-0.8,0.2-1.2,0.5c-1.4,1.4-3.7,1.4-5.1,0c-0.6-0.6-1.7-0.7-2.3,0
											c-0.6,0.6-0.7,1.7,0,2.3c2.7,2.7,7.1,2.7,9.8,0c0.6-0.6,0.6-1.7,0-2.3C48.1,19.8,47.7,19.7,47.3,19.7z"/>
									</g>
								</g>
								<g>
									<g>
										<path fill="#02243E" d="M48.4,22.5c0.6-0.6,0.6-1.7,0-2.3c-0.3-0.3-0.7-0.5-1.2-0.5c-0.4,0-0.8,0.2-1.2,0.5
											c-1.4,1.4-3.7,1.4-5.1,0c-0.6-0.6-1.7-0.7-2.3,0c-0.6,0.6-0.7,1.7,0,2.3"/>
									</g>
								</g>
							</g>
						</g>
					</g>
				</g>
			</g>
			<g>
				<g>
					<path fill="#F7910B" d="M39.4,33.4c0,2.6-3.3,7.3-7.4,7.3c-4.1,0-7.4-4.7-7.4-7.3"/>
				</g>
				<g>
					<g>
						<path fill="#02243E" d="M17,31.3c-0.6,0-1.1-0.5-1.1-1.1s0.5-1.1,1.1-1.1c0.9,0,1.6-0.7,1.6-1.6c0-0.6,0.5-1.1,1.1-1.1
							s1.1,0.5,1.1,1.1C20.7,29.6,19,31.3,17,31.3z"/>
					</g>
					<g>
						<path fill="#02243E" d="M47,31.3c-2.1,0-3.8-1.7-3.8-3.8c0-0.6,0.5-1.1,1.1-1.1s1.1,0.5,1.1,1.1c0,0.9,0.7,1.6,1.6,1.6
							c0.6,0,1.1,0.5,1.1,1.1S47.6,31.3,47,31.3z"/>
					</g>
				</g>
				<g>
					<path fill="#02243E" d="M32,36.2c-5,0-10.1-1.9-13.9-5.8c-0.4-0.4-0.4-1.1,0-1.6c0.4-0.4,1.1-0.4,1.6,0
						c6.8,6.8,17.9,6.8,24.8,0c0.4-0.4,1.1-0.4,1.6,0c0.4,0.4,0.4,1.1,0,1.6C42.1,34.3,37,36.2,32,36.2z"/>
				</g>
			</g>
		</g>
		<g>
			<circle fill="#F9A908" cx="15" cy="9.8" r="1.2"/>
		</g>
		<g>
			<circle fill="#F9A908" cx="7.9" cy="10.5" r="3.2"/>
		</g>
		<g>
			<path fill="#F9A908" d="M47.8,9c0.2,0,0.4,0.2,0.4,0.4c0,0.2-0.2,0.4-0.4,0.4"/>
		</g>
		<g>
			<circle fill="#F9A908" cx="52.5" cy="9.2" r="0.6"/>
		</g>
		<g>
			<path fill="#F9A908" d="M54.1,13c0-0.5,0.4-1,1-1c0.5,0,1,0.4,1,1"/>
		</g>
		<g>
			<circle fill="#F9A908" cx="57.7" cy="7.3" r="1.8"/>
		</g>
		<g>
			<circle fill="#F9A908" cx="59.7" cy="13.4" r="0.8"/>
		</g>
	</g>
	<g>
		<path fill="#8E6649" d="M1.7,40C2,53.5,13.8,63.3,32,63.3c18.2,0,30-9.8,30.3-23.3H1.7z"/>
	</g>
	<g>
		<path fill="#774313" d="M32,63.3c18.2,0,30.1-9.8,30.3-23.3H2"/>
	</g>
	<g>
		<g>
			<polygon fill="#774313" points="16.1,42.2 20.2,38 31.8,40.6 			"/>
		</g>
		<g>
			<polygon fill="#774313" points="47.9,42.2 43.7,38 32.2,40.6 			"/>
		</g>
	</g>
	<g>
		<g>
			<path fill="#FFEBC7" d="M38,42.5c0,0.3-0.2,0.5-0.5,0.5h-11c-0.3,0-0.5-0.2-0.5-0.5l0,0c0-0.3,0.2-0.5,0.5-0.5h11
				C37.8,42,38,42.2,38,42.5L38,42.5z"/>
		</g>
		<g>
			<g>
				<circle fill="#F9C55D" cx="22.8" cy="42.7" r="0.8"/>
			</g>
			<g>
				<circle fill="#F9C55D" cx="41.2" cy="42.7" r="0.8"/>
			</g>
		</g>
	</g>
	<g>
		<g>
			<circle fill="#FFEBC7" cx="31.8" cy="49.6" r="1.4"/>
		</g>
		<g>
			<path fill="#FFEBC7" d="M32,45.5c-4.4,0-8,3.6-8,8c0,4.4,3.6,8,8,8c4.4,0,8-3.6,8-8C40,49.1,36.4,45.5,32,45.5z M31.8,59.1
				c-0.8,0-1.4-0.6-1.4-1.4c0-0.8,0.6-1.4,1.4-1.4c0.7,0,1.4,0.6,1.4,1.4C33.1,58.4,32.5,59.1,31.8,59.1z M32,53.5
				c-1.8,0.6-3.6,1.1-3.6,3.6c0,2,1.6,3.6,3.6,3.6c-4,0-7.3-3.2-7.3-7.3c0-4,3.3-7.3,7.3-7.3c2,0,3.6,1.6,3.6,3.6
				C35.6,52.4,33.8,52.9,32,53.5z"/>
		</g>
	</g>
	<g>
		<g>
			<circle fill="#F9C55D" cx="33.9" cy="12.6" r="0.7"/>
		</g>
		<g>
			<path fill="#F9C55D" d="M36,12.7c0-2.2-1.8-4-4-4s-4,1.8-4,4s1.8,4,4,4S36,14.9,36,12.7z M29.2,12.6c0-0.4,0.3-0.7,0.7-0.7
				s0.7,0.3,0.7,0.7c0,0.4-0.3,0.7-0.7,0.7S29.2,12.9,29.2,12.6z M32,12.7c-0.3-0.9-0.6-1.8-1.8-1.8c-1,0-1.8,0.8-1.8,1.8
				c0-2,1.6-3.6,3.6-3.6s3.6,1.6,3.6,3.6c0,1-0.8,1.8-1.8,1.8C32.6,14.5,32.3,13.6,32,12.7z"/>
		</g>
	</g>
</g>
</svg>
