<?xml version="1.0" encoding="utf-8"?>
<!-- Generator: Adobe Illustrator 16.0.0, SVG Export Plug-In . SVG Version: 6.00 Build 0)  -->
<!DOCTYPE svg PUBLIC "-//W3C//DTD SVG 1.1//EN" "http://www.w3.org/Graphics/SVG/1.1/DTD/svg11.dtd">
<svg version="1.1" id="Layer_1" xmlns="http://www.w3.org/2000/svg" xmlns:xlink="http://www.w3.org/1999/xlink" x="0px" y="0px"
	 width="64px" height="64px" viewBox="0 0 64 64" enable-background="new 0 0 64 64" xml:space="preserve">
<g>
	<g>
		<g>
			<g>
				<path fill="#ED1841" d="M19.6,21.7c-0.1,0-0.1,0-0.2,0c-4.8-0.3-9.2-5.3-9.9-11.2c-0.2-1.9,0-3.6,0.5-5.1
					C7.9,6.9,6.2,9.2,5.5,12C4,17.6,6.6,23.1,11.3,24.4C14.3,25.1,17.4,24,19.6,21.7z"/>
			</g>
		</g>
		<g>
			<g>
				<path fill="#C1053A" d="M44.4,21.7c0.1,0,0.1,0,0.2,0c4.8-0.3,9.2-5.3,9.9-11.2c0.2-1.9,0-3.6-0.5-5.1c2.1,1.4,3.8,3.7,4.5,6.6
					c1.5,5.6-1.2,11.1-5.9,12.3C49.7,25.1,46.6,24,44.4,21.7z"/>
			</g>
		</g>
	</g>
	<g>
		<g>
			<path fill="#ED1841" d="M62.3,37.5C62.3,50.5,50.4,61,32,61C13.6,61,1.7,50.5,1.7,37.5S13.6,5,32,5C50.4,5,62.3,24.5,62.3,37.5z"
				/>
		</g>
		<g>
			<path fill="#ED1841" d="M62.3,37.5C62.3,50.5,50.4,57,32,57C13.6,57,1.7,50.5,1.7,37.5S13.6,3,32,3C50.4,3,62.3,24.5,62.3,37.5z"
				/>
		</g>
		<g>
			<path fill="#FC4777" d="M32,3c18.4,0,30.3,21.5,30.3,34.5S50.4,57,32,57"/>
		</g>
		<g>
			<path fill="#FC4777" d="M62.3,37.5C62.3,50.5,50.4,57,32,57C13.6,57,1.7,50.5,1.7,37.5S13.6,5,32,5C50.4,5,62.3,24.5,62.3,37.5z"
				/>
		</g>
		<g>
			<path fill="#F98A9F" d="M1.7,37.5C1.7,24.5,13.6,5,32,5"/>
		</g>
		<g>
			<path fill="#ED1841" d="M32,5c18.4,0,30.3,19.5,30.3,32.5S50.4,61,32,61"/>
		</g>
		<g>
			<path fill="#C1053A" d="M32,5c18.4,0,30.3,19.5,30.3,32.5"/>
		</g>
		<g>
			<g>
				<g>
					<circle fill="#C1053A" cx="21.6" cy="33.8" r="3.2"/>
				</g>
				<g>
					<circle fill="#C1053A" cx="42.4" cy="33.8" r="3.2"/>
				</g>
			</g>
			<g>
				<circle fill="#1E4784" cx="21.6" cy="32.9" r="3.2"/>
			</g>
			<g>
				<path fill="#00233F" d="M21.6,29.7c1.8,0,3.2,1.4,3.2,3.2s-1.4,3.2-3.2,3.2"/>
			</g>
			<g>
				<circle fill="#1E4784" cx="42.4" cy="32.9" r="3.2"/>
			</g>
			<g>
				<path fill="#00233F" d="M42.4,29.7c1.8,0,3.2,1.4,3.2,3.2s-1.4,3.2-3.2,3.2"/>
			</g>
			<g>
				<g>
					<path fill="#F98A9F" d="M27.4,39.1c0,1.3-3.8,0.8-8.6,0.8c-4.7,0-8.6,0.5-8.6-0.8c0-1.3,3.8-2.4,8.6-2.4
						C23.6,36.7,27.4,37.8,27.4,39.1z"/>
				</g>
				<g>
					<path fill="#FF5069" d="M53.8,39.1c0,1.3-3.8,0.8-8.6,0.8s-8.6,0.5-8.6-0.8c0-1.3,3.8-2.4,8.6-2.4S53.8,37.8,53.8,39.1z"/>
				</g>
			</g>
		</g>
		<g>
			<circle fill="#F98A9F" cx="10.3" cy="34.5" r="0.6"/>
		</g>
		<g>
			<circle fill="#F98A9F" cx="5.8" cy="36.5" r="1.1"/>
		</g>
		<g>
			<circle fill="#F98A9F" cx="8.8" cy="32.5" r="0.2"/>
		</g>
		<g>
			<circle fill="#F98A9F" cx="13.4" cy="34.3" r="0.2"/>
		</g>
		<g>
			<circle fill="#FC4777" cx="52.6" cy="34.8" r="0.8"/>
		</g>
		<g>
			<circle fill="#FC4777" cx="55.1" cy="36.2" r="0.2"/>
		</g>
		<g>
			<circle fill="#FC4777" cx="49.8" cy="27.4" r="0.3"/>
		</g>
		<g>
			<circle fill="#FC4777" cx="44.9" cy="26.3" r="1.3"/>
		</g>
		<g>
			<circle fill="#FC4777" cx="56.5" cy="39.1" r="0.6"/>
		</g>
		<g>
			<circle fill="#F98A9F" cx="9.3" cy="38.5" r="0.5"/>
		</g>
		<g>
			<circle fill="#F98A9F" cx="10.1" cy="30.1" r="0.4"/>
		</g>
		<g>
			<circle fill="#FC4777" cx="4.8" cy="7" r="1.1"/>
		</g>
		<g>
			<circle fill="#FC4777" cx="12.1" cy="8.7" r="0.6"/>
		</g>
		<g>
			<circle fill="#ED1841" cx="59.2" cy="18.7" r="0.2"/>
		</g>
		<g>
			<circle fill="#ED1841" cx="49.4" cy="6" r="0.8"/>
		</g>
		<g>
			<circle fill="#ED1841" cx="58.1" cy="5.1" r="0.5"/>
		</g>
		<g>
			<circle fill="#FC4777" cx="12.3" cy="3.6" r="0.6"/>
		</g>
		<g>
			<g>
				<path fill="#ED1841" d="M39.4,50.4c0,2.6-3.3,7.3-7.4,7.3c-4.1,0-7.4-4.7-7.4-7.3"/>
			</g>
			<g>
				<g>
					<path fill="#1E4784" d="M43.9,41.5c0,6.8-5.3,12.3-11.9,12.3s-11.9-5.5-11.9-12.3"/>
				</g>
				<g>
					<path fill="#00233F" d="M43.9,41.5c0,2.3-5.3,4.1-11.9,4.1s-11.9-1.8-11.9-4.1"/>
				</g>
				<g>
					<path fill="#F98A9F" d="M32,53.8c3.7,0,6.9-1.7,9.1-4.4c-1.3-1.5-3.3-2.5-5.5-2.5c-1.3,0-2.6,0.4-3.6,1c-1.1-0.6-2.3-1-3.6-1
						c-2.2,0-4.1,1-5.5,2.5C25.1,52.1,28.3,53.8,32,53.8z"/>
				</g>
			</g>
		</g>
		<g>
			<g>
				<g>
					<g>
						<path fill="#7A0B0B" d="M18.5,24.7c-0.7,1.5,1.4,2.1,3.5,3.7c2.1,1.7,3.5,3.8,4.2,2.2c0.7-1.5-0.4-4.1-2.6-5.8
							C21.6,23.3,19.2,23.2,18.5,24.7z"/>
					</g>
				</g>
			</g>
			<g>
				<g>
					<g>
						<path fill="#7A0B0B" d="M45.5,24.7c0.7,1.5-1.4,2.1-3.5,3.7c-2.1,1.7-3.5,3.8-4.2,2.2c-0.7-1.5,0.4-4.1,2.6-5.8
							C42.4,23.3,44.8,23.2,45.5,24.7z"/>
					</g>
				</g>
			</g>
		</g>
	</g>
</g>
</svg>
