<?xml version="1.0" encoding="utf-8"?>
<!-- Generator: Adobe Illustrator 16.0.0, SVG Export Plug-In . SVG Version: 6.00 Build 0)  -->
<!DOCTYPE svg PUBLIC "-//W3C//DTD SVG 1.1//EN" "http://www.w3.org/Graphics/SVG/1.1/DTD/svg11.dtd">
<svg version="1.1" id="Layer_1" xmlns="http://www.w3.org/2000/svg" xmlns:xlink="http://www.w3.org/1999/xlink" x="0px" y="0px"
	 width="64px" height="64px" viewBox="0 0 64 64" enable-background="new 0 0 64 64" xml:space="preserve">
<g>
	<g>
		<g>
			<g>
				<g>
					<g>
						<g>
							<g>
								<circle fill="#063F66" cx="32" cy="32" r="31.2"/>
								<path fill="#022730" d="M9.9,9.9c12.2-12.2,32-12.2,44.2,0c12.2,12.2,12.2,32,0,44.2"/>
							</g>
						</g>
					</g>
				</g>
			</g>
			<g>
				<ellipse fill="#DCF9F6" cx="17.5" cy="53.9" rx="0.3" ry="2.7"/>
				<ellipse fill="#DCF9F6" cx="17.5" cy="54" rx="2.7" ry="0.3"/>
			</g>
			<g>
				
					<ellipse transform="matrix(0.7088 0.7054 -0.7054 0.7088 29.5892 -32.4316)" fill="#DCF9F6" cx="54.1" cy="19.6" rx="0.3" ry="2.7"/>
				
					<ellipse transform="matrix(-0.7088 0.7054 -0.7054 -0.7088 106.2477 -4.614)" fill="#DCF9F6" cx="54.1" cy="19.6" rx="0.3" ry="2.7"/>
			</g>
			<g>
				<ellipse fill="#DCF9F6" cx="46.6" cy="11.3" rx="0.1" ry="1.2"/>
				<ellipse fill="#DCF9F6" cx="46.6" cy="11.3" rx="1.2" ry="0.1"/>
			</g>
			<g>
				
					<ellipse transform="matrix(0.7035 -0.7107 0.7107 0.7035 -2.8185 20.4634)" fill="#DCF9F6" cx="23.1" cy="13.6" rx="0.1" ry="1.3"/>
				
					<ellipse transform="matrix(0.7035 0.7107 -0.7107 0.7035 16.5265 -12.3923)" fill="#DCF9F6" cx="23.1" cy="13.6" rx="0.1" ry="1.3"/>
			</g>
			<g>
				
					<ellipse transform="matrix(0.7053 -0.7089 0.7089 0.7053 -29.1213 22.8493)" fill="#DCF9F6" cx="12.9" cy="46.4" rx="0.1" ry="1.3"/>
				
					<ellipse transform="matrix(0.7053 0.7089 -0.7089 0.7053 36.7372 4.5294)" fill="#DCF9F6" cx="12.9" cy="46.4" rx="0.1" ry="1.3"/>
			</g>
			<g>
				
					<ellipse transform="matrix(0.7143 0.6999 -0.6999 0.7143 18.1509 -24.1937)" fill="#DCF9F6" cx="38.7" cy="10.1" rx="0.1" ry="0.6"/>
				
					<ellipse transform="matrix(-0.7143 0.6999 -0.6999 -0.7143 73.4459 -9.7176)" fill="#DCF9F6" cx="38.7" cy="10.1" rx="0.1" ry="0.6"/>
			</g>
			<g>
				
					<ellipse transform="matrix(0.7107 0.7035 -0.7035 0.7107 47.8676 -3.1217)" fill="#DCF9F6" cx="27.7" cy="56.6" rx="0.1" ry="0.6"/>
				
					<ellipse transform="matrix(-0.7107 0.7035 -0.7035 -0.7107 87.2836 77.3921)" fill="#DCF9F6" cx="27.7" cy="56.6" rx="0.1" ry="0.6"/>
			</g>
		</g>
	</g>
	<g>
		<circle fill="#DCF9F6" cx="32" cy="32" r="20"/>
		<path fill="#95BFB9" d="M32,52c-11,0-20-9-20-20c0-11,9-20,20-20"/>
		<circle fill="#78A8A0" cx="18.1" cy="21.4" r="1.2"/>
		<circle fill="#78A8A0" cx="16.4" cy="25.9" r="0.2"/>
		<circle fill="#78A8A0" cx="24.5" cy="28.5" r="3.7"/>
		<circle fill="#78A8A0" cx="26.1" cy="20.4" r="1"/>
		<circle fill="#78A8A0" cx="33" cy="19.9" r="0.3"/>
		<circle fill="#78A8A0" cx="35.6" cy="16.5" r="0.3"/>
		<circle fill="#78A8A0" cx="26" cy="16.7" r="0.5"/>
		<circle fill="#78A8A0" cx="30" cy="15" r="0.2"/>
		<circle fill="#78A8A0" cx="34.6" cy="26.5" r="0.8"/>
		<circle fill="#78A8A0" cx="40.6" cy="26" r="0.5"/>
		<circle fill="#95BFB9" cx="41.9" cy="20.3" r="0.8"/>
		<circle fill="#78A8A0" cx="38.4" cy="36.4" r="2.2"/>
		<circle fill="#78A8A0" cx="20.3" cy="37.7" r="0.7"/>
		<circle fill="#78A8A0" cx="27.5" cy="34.7" r="0.3"/>
		<circle fill="#78A8A0" cx="31" cy="42.2" r="1.2"/>
		<circle fill="#78A8A0" cx="16.4" cy="32.6" r="0.8"/>
		<circle fill="#78A8A0" cx="34.2" cy="32.1" r="0.2"/>
		<circle fill="#95BFB9" cx="43.8" cy="32.5" r="0.5"/>
		<circle fill="#78A8A0" cx="22.6" cy="43.2" r="1.2"/>
		<circle fill="#78A8A0" cx="25" cy="38.9" r="0.4"/>
		<circle fill="#78A8A0" cx="37.4" cy="43.6" r="0.4"/>
		<circle fill="#78A8A0" cx="31" cy="46.9" r="0.3"/>
		<circle fill="#78A8A0" cx="26" cy="46.4" r="0.2"/>
		<circle fill="#95BFB9" cx="42.4" cy="41.8" r="0.8"/>
		<circle fill="#78A8A0" cx="36.3" cy="47.7" r="0.5"/>
		<circle fill="#78A8A0" cx="31.5" cy="36.9" r="0.4"/>
		<circle fill="#95BFB9" cx="45" cy="38.3" r="0.8"/>
		<circle fill="#78A8A0" cx="17.6" cy="41.2" r="0.7"/>
		<circle fill="#78A8A0" cx="39.5" cy="30.9" r="0.9"/>
	</g>
</g>
</svg>
