<?xml version="1.0" encoding="utf-8"?>
<!-- Generator: Adobe Illustrator 16.0.0, SVG Export Plug-In . SVG Version: 6.00 Build 0)  -->
<!DOCTYPE svg PUBLIC "-//W3C//DTD SVG 1.1//EN" "http://www.w3.org/Graphics/SVG/1.1/DTD/svg11.dtd">
<svg version="1.1" id="Layer_1" xmlns="http://www.w3.org/2000/svg" xmlns:xlink="http://www.w3.org/1999/xlink" x="0px" y="0px"
	 width="64px" height="64px" viewBox="0 0 64 64" enable-background="new 0 0 64 64" xml:space="preserve">
<g>
	<g>
		<g>
			<g>
				<g>
					<g>
						<circle fill="#93358A" cx="32" cy="32" r="26.5"/>
						<path fill="#601660" d="M13.3,13.3c10.3-10.3,27.1-10.3,37.5,0c10.3,10.3,10.3,27.1,0,37.5"/>
					</g>
				</g>
			</g>
		</g>
	</g>
	<g>
		<polygon fill="#FFAA00" points="57.6,1 27.2,1 9.3,28 21.3,28 6.4,62.8 56.2,18 44,18 		"/>
		<polygon fill="#FFBC00" points="57.6,1 33.6,19.1 9.3,28 28.9,28 6.4,62.8 56.2,18 44,18 		"/>
		<polygon fill="#FFF200" points="44.4,1 27.2,1 9.3,28 36.6,28 6.4,62.8 56.2,18 29.5,18 		"/>
		<polygon fill="#FFDA00" points="44.4,1 30.9,3.4 9.3,28 36.6,28 6.4,62.8 56.2,18 25.7,22.9 		"/>
	</g>
</g>
</svg>
