<?xml version="1.0" encoding="utf-8"?>
<!-- Generator: Adobe Illustrator 16.0.0, SVG Export Plug-In . SVG Version: 6.00 Build 0)  -->
<!DOCTYPE svg PUBLIC "-//W3C//DTD SVG 1.1//EN" "http://www.w3.org/Graphics/SVG/1.1/DTD/svg11.dtd">
<svg version="1.1" id="Layer_1" xmlns="http://www.w3.org/2000/svg" xmlns:xlink="http://www.w3.org/1999/xlink" x="0px" y="0px"
	 width="64px" height="64px" viewBox="0 0 64 64" enable-background="new 0 0 64 64" xml:space="preserve">
<g>
	<g>
		<circle fill="#19AFBF" cx="33.8" cy="32.1" r="27.1"/>
		<path fill="#0E94AA" d="M14.6,12.9c10.6-10.6,27.7-10.6,38.3,0s10.6,27.7,0,38.3"/>
	</g>
	<g>
		<g>
			<circle fill="#FFCE00" cx="23.1" cy="20.7" r="11.4"/>
			<path fill="#FF9D00" d="M23.1,9.3c6.3,0,11.4,5.1,11.4,11.4s-5.1,11.4-11.4,11.4"/>
			<path fill="#FFBC00" d="M34.5,20.7c0,6.3-5.1,10.6-11.4,10.6c-6.3,0-11.4-4.2-11.4-10.6s5.1-10.6,11.4-10.6
				C29.4,10.2,34.5,14.4,34.5,20.7z"/>
			<path fill="#FFB000" d="M23.1,10.2c6.3,0,11.4,4.2,11.4,10.6s-5.1,10.6-11.4,10.6c-6.3,0-11.4-4.2-11.4-10.6"/>
			<path fill="#FFBC00" d="M23.1,10.2c6.3,0,11.4,4.2,11.4,10.6s-5.1,10.6-11.4,10.6"/>
			<path fill="#FFCE00" d="M34.5,20.7c0,6.3-5.1,10.6-11.4,10.6"/>
		</g>
		<g>
			<g>
				<g>
					<g>
						<circle fill="#FF9D00" cx="23.1" cy="5.6" r="0.9"/>
						<polygon fill="#FFCE00" points="24.1,2.7 23.1,3.1 22.1,2.7 23.1,0.8 						"/>
					</g>
					<g>
						<circle fill="#FF9D00" cx="23.1" cy="35.9" r="0.9"/>
						<polygon fill="#FFCE00" points="22.1,38.7 23.1,38.4 24.1,38.7 23.1,40.7 						"/>
					</g>
				</g>
				<g>
					<g>
						<circle fill="#FF9D00" cx="33.8" cy="10" r="0.9"/>
						<polygon fill="#FFCE00" points="36.5,8.7 35.6,8.2 35.1,7.3 37.2,6.6 						"/>
					</g>
					<g>
						<circle fill="#FF9D00" cx="12.4" cy="31.4" r="0.9"/>
						<polygon fill="#FFCE00" points="9.7,32.7 10.6,33.2 11.1,34.1 9,34.8 						"/>
					</g>
				</g>
				<g>
					<g>
						<circle fill="#FF9D00" cx="38.3" cy="20.7" r="0.9"/>
						<polygon fill="#FFCE00" points="41.1,21.7 40.7,20.7 41.1,19.7 43,20.7 						"/>
					</g>
					<g>
						<circle fill="#FF9D00" cx="7.9" cy="20.7" r="0.9"/>
						<polygon fill="#FFCE00" points="5.1,19.7 5.4,20.7 5.1,21.7 3.1,20.7 						"/>
					</g>
				</g>
			</g>
			<g>
				<g>
					<circle fill="#FF9D00" cx="33.8" cy="31.4" r="0.9"/>
					<polygon fill="#FFCE00" points="35.1,34.1 35.6,33.2 36.5,32.7 37.2,34.8 					"/>
				</g>
				<g>
					<circle fill="#FF9D00" cx="12.4" cy="10" r="0.9"/>
					<polygon fill="#FFCE00" points="11.1,7.3 10.6,8.2 9.7,8.7 9,6.6 					"/>
				</g>
			</g>
		</g>
		<g>
			<g>
				<g>
					<g>
						<circle fill="#FFCE00" cx="29" cy="6.8" r="0.9"/>
						<polygon fill="#FF9D00" points="31,4.6 30,4.5 29.2,3.8 30.9,2.3 						"/>
					</g>
					<g>
						<circle fill="#FFCE00" cx="17.2" cy="34.7" r="0.9"/>
						<polygon fill="#FF9D00" points="15.1,36.9 16.2,37 17,37.7 15.3,39.1 						"/>
					</g>
				</g>
				<g>
					<g>
						<circle fill="#FFCE00" cx="37.2" cy="15" r="0.9"/>
						<polygon fill="#FF9D00" points="40.1,14.9 39.5,14.1 39.4,13 41.6,13.2 						"/>
					</g>
					<g>
						<circle fill="#FFCE00" cx="9" cy="26.4" r="0.9"/>
						<polygon fill="#FF9D00" points="6,26.5 6.7,27.3 6.8,28.4 4.6,28.2 						"/>
					</g>
				</g>
				<g>
					<g>
						<circle fill="#FFCE00" cx="37" cy="26.6" r="0.9"/>
						<polygon fill="#FF9D00" points="39.2,28.7 39.3,27.6 40,26.8 41.5,28.5 						"/>
					</g>
					<g>
						<circle fill="#FFCE00" cx="9.1" cy="14.8" r="0.9"/>
						<polygon fill="#FF9D00" points="6.9,12.8 6.8,13.8 6.1,14.6 4.7,12.9 						"/>
					</g>
				</g>
			</g>
			<g>
				<g>
					<circle fill="#FFCE00" cx="28.8" cy="34.8" r="0.9"/>
					<polygon fill="#FF9D00" points="28.9,37.8 29.7,37.1 30.8,37 30.6,39.2 					"/>
				</g>
				<g>
					<circle fill="#FFCE00" cx="17.4" cy="6.7" r="0.9"/>
					<polygon fill="#FF9D00" points="17.3,3.7 16.5,4.4 15.4,4.4 15.6,2.2 					"/>
				</g>
			</g>
		</g>
	</g>
	<g>
		<path fill="#C5EAE7" d="M60.9,38.4c0-9.2-7.5-16.6-16.7-16.6c-6.5,0-12.1,3.7-14.9,9.2c-0.6-0.1-1.2-0.2-1.9-0.2
			c-4.3,0-7.9,3.5-7.9,7.9c0,0.2,0.1,0.4,0.1,0.5C14,39.7,11,44.7,11,50.7v0.8C11,58,16.1,63,22.5,63h26.6C55.6,63,61,58,61,51.5
			v-3.7C61,44.8,60.9,41.5,60.9,38.4z"/>
		<path fill="#98D3CD" d="M60.9,40.6c0-9.2-7.5-16.6-16.7-16.6c-6.5,0-12.1,3.7-14.9,9.2c-0.6-0.1-1.2-0.2-1.9-0.2
			c-4.3,0-7.9,3.5-7.9,7.9c0,0.2,0.1,0.4,0.1,0.5C14,41.9,11,44.7,11,50.7v0.8C11,58,16.1,63,22.5,63h26.6C55.6,63,61,58,61,51.5
			v-3.7C61,44.8,60.9,43.7,60.9,40.6z"/>
		<path fill="#8BCCC2" d="M23,63h26.1C55.6,63,61,58,61,51.5v-3.7c0-3-0.1-4.1-0.1-7.2"/>
		<path fill="#98D3CD" d="M19.6,40.8"/>
		<path fill="#C5EAE7" d="M37,40.8c-0.5-0.1-1-0.2-1.6-0.2c-3.1,0-5.6,2.5-5.6,5.6c0,0.5,0.1,1.1,0.2,1.6
			C30.6,44.1,33.4,41.3,37,40.8z"/>
		<path fill="#C5EAE7" d="M46.6,35.7c-0.6-0.3-1.3-0.6-2-0.7c-4.1-0.8-8.1,2-8.9,6.1c-0.1,0.7-0.1,1.5,0,2.2
			C37.2,38.6,41.7,35.4,46.6,35.7z"/>
		<circle fill="#C5EAE7" cx="16.5" cy="49.9" r="0.6"/>
		<circle fill="#C5EAE7" cx="17.9" cy="45.7" r="0.8"/>
		<circle fill="#C5EAE7" cx="27.5" cy="37.7" r="0.3"/>
		<circle fill="#C5EAE7" cx="35.2" cy="33.5" r="0.8"/>
		<circle fill="#C5EAE7" cx="41.7" cy="26.7" r="0.4"/>
		<circle fill="#C5EAE7" cx="45.5" cy="27.9" r="1.2"/>
	</g>
</g>
</svg>
