<?xml version="1.0" encoding="utf-8"?>
<!-- Generator: Adobe Illustrator 16.0.0, SVG Export Plug-In . SVG Version: 6.00 Build 0)  -->
<!DOCTYPE svg PUBLIC "-//W3C//DTD SVG 1.1//EN" "http://www.w3.org/Graphics/SVG/1.1/DTD/svg11.dtd">
<svg version="1.1" id="Layer_1" xmlns="http://www.w3.org/2000/svg" xmlns:xlink="http://www.w3.org/1999/xlink" x="0px" y="0px"
	 width="64px" height="64px" viewBox="0 0 64 64" enable-background="new 0 0 64 64" xml:space="preserve">
<g>
	<g>
		<g>
			<g>
				<g>
					<circle fill="#19AFBF" cx="32.2" cy="32.4" r="27.1"/>
					<path fill="#0E94AA" d="M13.1,13.2c10.6-10.6,27.7-10.6,38.3,0s10.6,27.7,0,38.3"/>
				</g>
			</g>
		</g>
	</g>
	<g>
		<g>
			<g>
				<path fill="#5EE0EA" d="M23.8,52.5c0,0.5-0.5,1-1,1c-0.6,0-1-0.4-1-1s0.5-2.1,1-2.1C23.4,50.4,23.8,52,23.8,52.5z"/>
				<path fill="#30B9D8" d="M22.8,50.4c0.6,0,1,1.6,1,2.1s-0.5,1-1,1"/>
			</g>
			<g>
				<path fill="#5EE0EA" d="M28.4,52.5c0,0.5-0.5,1-1,1c-0.6,0-1-0.4-1-1s0.5-2.1,1-2.1C28,50.4,28.4,52,28.4,52.5z"/>
				<path fill="#30B9D8" d="M27.4,50.4c0.6,0,1,1.6,1,2.1s-0.5,1-1,1"/>
			</g>
			<g>
				<path fill="#5EE0EA" d="M33,52.5c0,0.5-0.5,1-1,1c-0.6,0-1-0.4-1-1s0.5-2.1,1-2.1C32.6,50.4,33,52,33,52.5z"/>
				<path fill="#30B9D8" d="M32,50.4c0.6,0,1,1.6,1,2.1s-0.5,1-1,1"/>
			</g>
			<g>
				<path fill="#5EE0EA" d="M37.6,52.5c0,0.5-0.5,1-1,1c-0.6,0-1-0.4-1-1s0.5-2.1,1-2.1C37.2,50.4,37.6,52,37.6,52.5z"/>
				<path fill="#30B9D8" d="M36.6,50.4c0.6,0,1,1.6,1,2.1s-0.5,1-1,1"/>
			</g>
			<g>
				<path fill="#5EE0EA" d="M42.2,52.5c0,0.5-0.5,1-1,1c-0.6,0-1-0.4-1-1s0.5-2.1,1-2.1C41.8,50.4,42.2,52,42.2,52.5z"/>
				<path fill="#30B9D8" d="M41.2,50.4c0.6,0,1,1.6,1,2.1s-0.5,1-1,1"/>
			</g>
		</g>
		<g>
			<g>
				<path fill="#5EE0EA" d="M23.8,57.4c0,0.5-0.5,1-1,1c-0.6,0-1-0.4-1-1c0-0.5,0.5-2.1,1-2.1C23.4,55.3,23.8,56.9,23.8,57.4z"/>
				<path fill="#30B9D8" d="M22.8,55.3c0.6,0,1,1.6,1,2.1c0,0.5-0.5,1-1,1"/>
			</g>
			<g>
				<path fill="#5EE0EA" d="M28.4,57.4c0,0.5-0.5,1-1,1c-0.6,0-1-0.4-1-1c0-0.5,0.5-2.1,1-2.1C28,55.3,28.4,56.9,28.4,57.4z"/>
				<path fill="#30B9D8" d="M27.4,55.3c0.6,0,1,1.6,1,2.1c0,0.5-0.5,1-1,1"/>
			</g>
			<g>
				<path fill="#5EE0EA" d="M33,57.4c0,0.5-0.5,1-1,1c-0.6,0-1-0.4-1-1c0-0.5,0.5-2.1,1-2.1C32.6,55.3,33,56.9,33,57.4z"/>
				<path fill="#30B9D8" d="M32,55.3c0.6,0,1,1.6,1,2.1c0,0.5-0.5,1-1,1"/>
			</g>
			<g>
				<path fill="#5EE0EA" d="M37.6,57.4c0,0.5-0.5,1-1,1c-0.6,0-1-0.4-1-1c0-0.5,0.5-2.1,1-2.1C37.2,55.3,37.6,56.9,37.6,57.4z"/>
				<path fill="#30B9D8" d="M36.6,55.3c0.6,0,1,1.6,1,2.1c0,0.5-0.5,1-1,1"/>
			</g>
			<g>
				<path fill="#5EE0EA" d="M42.2,57.4c0,0.5-0.5,1-1,1c-0.6,0-1-0.4-1-1c0-0.5,0.5-2.1,1-2.1C41.8,55.3,42.2,56.9,42.2,57.4z"/>
				<path fill="#30B9D8" d="M41.2,55.3c0.6,0,1,1.6,1,2.1c0,0.5-0.5,1-1,1"/>
			</g>
		</g>
		<g>
			<g>
				<path fill="#5EE0EA" d="M23.8,62.2c0,0.5-0.5,1-1,1c-0.6,0-1-0.4-1-1c0-0.5,0.5-2.1,1-2.1C23.4,60.1,23.8,61.7,23.8,62.2z"/>
				<path fill="#30B9D8" d="M22.8,60.1c0.6,0,1,1.6,1,2.1c0,0.5-0.5,1-1,1"/>
			</g>
			<g>
				<path fill="#5EE0EA" d="M28.4,62.2c0,0.5-0.5,1-1,1c-0.6,0-1-0.4-1-1c0-0.5,0.5-2.1,1-2.1C28,60.1,28.4,61.7,28.4,62.2z"/>
				<path fill="#30B9D8" d="M27.4,60.1c0.6,0,1,1.6,1,2.1c0,0.5-0.5,1-1,1"/>
			</g>
			<g>
				<path fill="#5EE0EA" d="M33,62.2c0,0.5-0.5,1-1,1c-0.6,0-1-0.4-1-1c0-0.5,0.5-2.1,1-2.1C32.6,60.1,33,61.7,33,62.2z"/>
				<path fill="#30B9D8" d="M32,60.1c0.6,0,1,1.6,1,2.1c0,0.5-0.5,1-1,1"/>
			</g>
			<g>
				<path fill="#5EE0EA" d="M37.6,62.2c0,0.5-0.5,1-1,1c-0.6,0-1-0.4-1-1c0-0.5,0.5-2.1,1-2.1C37.2,60.1,37.6,61.7,37.6,62.2z"/>
				<path fill="#30B9D8" d="M36.6,60.1c0.6,0,1,1.6,1,2.1c0,0.5-0.5,1-1,1"/>
			</g>
			<g>
				<path fill="#5EE0EA" d="M42.2,62.2c0,0.5-0.5,1-1,1c-0.6,0-1-0.4-1-1c0-0.5,0.5-2.1,1-2.1C41.8,60.1,42.2,61.7,42.2,62.2z"/>
				<path fill="#30B9D8" d="M41.2,60.1c0.6,0,1,1.6,1,2.1c0,0.5-0.5,1-1,1"/>
			</g>
		</g>
	</g>
	<g>
		<g>
			<circle fill="#FFCE00" cx="21.8" cy="17.8" r="9.8"/>
			<path fill="#FF9D00" d="M21.8,8.1c5.4,0,9.8,4.4,9.8,9.8s-4.4,9.8-9.8,9.8"/>
			<path fill="#FFBC00" d="M31.5,17.8c0,5.4-4.4,9-9.8,9c-5.4,0-9.8-3.6-9.8-9s4.4-9,9.8-9C27.1,8.8,31.5,12.4,31.5,17.8z"/>
			<path fill="#FFB000" d="M21.8,8.8c5.4,0,9.8,3.6,9.8,9s-4.4,9-9.8,9c-5.4,0-9.8-3.6-9.8-9"/>
			<path fill="#FFBC00" d="M21.8,8.8c5.4,0,9.8,3.6,9.8,9s-4.4,9-9.8,9"/>
			<path fill="#FFCE00" d="M31.5,17.8c0,5.4-4.4,9-9.8,9"/>
		</g>
		<g>
			<g>
				<g>
					<g>
						<circle fill="#FF9D00" cx="21.8" cy="4.9" r="0.7"/>
						<polygon fill="#FFCE00" points="22.6,2.5 21.8,2.8 20.9,2.5 21.8,0.8 						"/>
					</g>
					<g>
						<path fill="#FF9D00" d="M21,30.8c0-0.4,0.3-0.7,0.7-0.7s0.7,0.3,0.7,0.7c0,0.4-0.3,0.7-0.7,0.7S21,31.2,21,30.8z"/>
						<polygon fill="#FFCE00" points="20.9,33.2 21.8,32.9 22.6,33.2 21.8,34.9 						"/>
					</g>
				</g>
				<g>
					<g>
						<circle fill="#FF9D00" cx="30.9" cy="8.7" r="0.7"/>
						<polygon fill="#FFCE00" points="33.2,7.6 32.4,7.2 32,6.4 33.8,5.8 						"/>
					</g>
					<g>
						<circle fill="#FF9D00" cx="12.6" cy="27" r="0.7"/>
						<polygon fill="#FFCE00" points="10.3,28.1 11.1,28.5 11.5,29.3 9.7,29.9 						"/>
					</g>
				</g>
				<g>
					<g>
						<circle fill="#FF9D00" cx="34.7" cy="17.8" r="0.7"/>
						<polygon fill="#FFCE00" points="37.1,18.7 36.8,17.8 37.1,17 38.8,17.8 						"/>
					</g>
					<g>
						<circle fill="#FF9D00" cx="8.8" cy="17.8" r="0.7"/>
						<polygon fill="#FFCE00" points="6.4,17 6.7,17.8 6.4,18.7 4.7,17.8 						"/>
					</g>
				</g>
			</g>
			<g>
				<g>
					<circle fill="#FF9D00" cx="30.9" cy="27" r="0.7"/>
					<polygon fill="#FFCE00" points="32,29.3 32.4,28.5 33.2,28.1 33.8,29.9 					"/>
				</g>
				<g>
					<circle fill="#FF9D00" cx="12.6" cy="8.7" r="0.7"/>
					<polygon fill="#FFCE00" points="11.5,6.4 11.1,7.2 10.3,7.6 9.7,5.8 					"/>
				</g>
			</g>
		</g>
		<g>
			<g>
				<g>
					<g>
						<circle fill="#FFCE00" cx="26.8" cy="5.9" r="0.7"/>
						<polygon fill="#FF9D00" points="28.6,4.1 27.6,4 27,3.4 28.4,2.2 						"/>
					</g>
					<g>
						<circle fill="#FFCE00" cx="16.7" cy="29.8" r="0.7"/>
						<polygon fill="#FF9D00" points="15,31.6 15.9,31.7 16.6,32.3 15.1,33.5 						"/>
					</g>
				</g>
				<g>
					<g>
						<circle fill="#FFCE00" cx="33.8" cy="13" r="0.7"/>
						<polygon fill="#FF9D00" points="36.3,12.9 35.7,12.2 35.7,11.3 37.6,11.5 						"/>
					</g>
					<g>
						<circle fill="#FFCE00" cx="9.7" cy="22.7" r="0.7"/>
						<polygon fill="#FF9D00" points="7.2,22.8 7.8,23.5 7.9,24.4 6,24.2 						"/>
					</g>
				</g>
				<g>
					<g>
						<circle fill="#FFCE00" cx="33.7" cy="22.9" r="0.7"/>
						<polygon fill="#FF9D00" points="35.5,24.6 35.6,23.7 36.2,23 37.4,24.5 						"/>
					</g>
					<g>
						<circle fill="#FFCE00" cx="9.8" cy="12.8" r="0.7"/>
						<polygon fill="#FF9D00" points="8,11 7.9,11.9 7.3,12.6 6.1,11.2 						"/>
					</g>
				</g>
			</g>
			<g>
				<g>
					<path fill="#FFCE00" d="M25.9,30.1c-0.2-0.4,0-0.8,0.4-1c0.4-0.2,0.8,0,0.9,0.4c0.2,0.4,0,0.8-0.4,1
						C26.5,30.7,26.1,30.5,25.9,30.1z"/>
					<polygon fill="#FF9D00" points="26.7,32.4 27.4,31.8 28.3,31.7 28.1,33.6 					"/>
				</g>
				<g>
					<circle fill="#FFCE00" cx="16.9" cy="5.8" r="0.7"/>
					<polygon fill="#FF9D00" points="16.8,3.3 16.1,3.9 15.2,3.9 15.4,2 					"/>
				</g>
			</g>
		</g>
	</g>
	<g>
		<path fill="#DCF9F6" d="M51.1,30.3c0-6.9-5.5-12.4-12.3-12.4c-4.8,0-9,2.8-11,6.8c-0.5-0.1-0.9-0.2-1.4-0.2
			c-3.2,0-5.9,2.6-5.9,5.9c0,0.1,0.1,0.3,0.1,0.4C16.3,31.3,14,35,14,39.6v0.6c0,4.8,3.8,8.9,8.7,8.9h19.8c4.8,0,8.5-4,8.5-8.9v-2.8
			C51,35.1,51.1,32.6,51.1,30.3z"/>
		<path fill="#BDE5E1" d="M51.1,32c0-6.9-5.5-12.4-12.3-12.4c-4.8,0-9,2.8-11,6.8c-0.5-0.1-0.9-0.2-1.4-0.2c-3.2,0-5.9,2.6-5.9,5.9
			c0,0.1,0.1,0.3,0.1,0.4C16.3,33,14,35,14,39.6v0.6c0,4.8,3.8,8.9,8.7,8.9h19.8c4.8,0,8.5-4,8.5-8.9v-2.8
			C51,35.1,51.1,34.3,51.1,32z"/>
		<path fill="#B1DDD9" d="M23,49h19.5c4.8,0,8.5-4,8.5-8.9v-2.8c0-2.2,0.1-3.5,0.1-5.9"/>
		<path fill="#98D3CD" d="M20.5,32.1"/>
		<path fill="#DCF9F6" d="M33.5,32.1C33.1,32,32.7,32,32.3,32c-2.3,0-4.1,1.9-4.1,4.2c0,0.4,0.1,0.8,0.2,1.2
			C28.6,34.6,30.8,32.5,33.5,32.1z"/>
		<path fill="#DCF9F6" d="M40.6,28.3c-0.5-0.2-1-0.4-1.5-0.5c-3.1-0.6-6,1.5-6.6,4.6c-0.1,0.5-0.1,1.1,0,1.6
			C33.6,30.4,37,28.1,40.6,28.3z"/>
		<circle fill="#B1DDD9" cx="18.1" cy="38.9" r="0.4"/>
		<circle fill="#B1DDD9" cx="19.2" cy="35.7" r="0.6"/>
		<circle fill="#B1DDD9" cx="26.4" cy="29.8" r="0.3"/>
		<circle fill="#DCF9F6" cx="32.1" cy="26.7" r="0.6"/>
		<circle fill="#DCF9F6" cx="37" cy="21.6" r="0.3"/>
		<circle fill="#DCF9F6" cx="39.8" cy="22.5" r="0.9"/>
	</g>
</g>
</svg>
