<?xml version="1.0" encoding="utf-8"?>
<!-- Generator: Adobe Illustrator 16.0.0, SVG Export Plug-In . SVG Version: 6.00 Build 0)  -->
<!DOCTYPE svg PUBLIC "-//W3C//DTD SVG 1.1//EN" "http://www.w3.org/Graphics/SVG/1.1/DTD/svg11.dtd">
<svg version="1.1" id="Layer_1" xmlns="http://www.w3.org/2000/svg" xmlns:xlink="http://www.w3.org/1999/xlink" x="0px" y="0px"
	 width="64px" height="64px" viewBox="0 0 64 64" enable-background="new 0 0 64 64" xml:space="preserve">
<g>
	<g>
		<circle fill="#F2AD51" cx="32" cy="27.6" r="26.7"/>
		<path fill="#FFC166" d="M50.9,46.5c-10.4,10.4-27.4,10.4-37.8,0C2.7,36.1,2.7,19.1,13.1,8.7"/>
	</g>
	<g>
		<path fill="#6CAD27" d="M63,63.1c-4.6-9.8-17.8-6.9-31-6.9S5.6,53.3,1,63.1H63z"/>
		<path fill="#A0E252" d="M56.7,63.1C52.8,53.3,43.2,46.3,32,46.3S11.2,53.3,7.3,63.1H56.7z"/>
		<path fill="#7DC431" d="M56.7,63.1C52.8,53.3,43.2,49.3,32,49.3s-20.8,4-24.7,13.8H56.7z"/>
		<polygon fill="#6FAF25" points="40.1,63.1 23.9,63.1 27.8,53.4 36.2,53.4 		"/>
	</g>
	<g>
		<g>
			<g>
				<polygon fill="#D65483" points="19.8,40.1 16.8,37 11.5,42.3 16.8,47.6 19.8,44.6 				"/>
				
					<rect x="9.1" y="38.6" transform="matrix(0.7069 -0.7073 0.7073 0.7069 -26.1808 21.4768)" fill="#D65483" width="7.5" height="7.5"/>
				<polygon fill="#D65483" points="8.9,37 5.8,40.1 5.8,44.5 8.9,47.6 14.2,42.3 				"/>
			</g>
			<rect x="12" y="47.6" fill="#028952" width="1.7" height="12.7"/>
			<polyline fill="#036D3F" points="12,47.6 13.6,47.6 13.6,60.3 			"/>
			<g>
				<path fill="#EA7D9F" d="M18.5,41.2l-1.9-1.9l-1.9,1.9l-1.9-1.9l-1.9,1.9L9,39.3l-1.9,1.9l-1.3-1.3v4.4c0,3.7,3,6.7,6.7,6.7h0.6
					c3.7,0,6.7-3,6.7-6.7v-4.4L18.5,41.2z"/>
			</g>
			<g>
				<path fill="#EA7D9F" d="M18.5,41.2l-1.9-1.9l-1.9,1.9l-1.9-1.9l-1.9,1.9L9,39.3l-1.9,1.9l-1.3-1.3v4.4c0,3.7,3,6.7,6.7,6.7h0.6
					c3.7,0,6.7-3,6.7-6.7v-4.4L18.5,41.2z"/>
			</g>
			<g>
				
					<rect x="15.2" y="39.9" transform="matrix(-0.7066 0.7076 -0.7076 -0.7066 56.0737 57.2)" fill="#F4AEC7" width="2" height="0.7"/>
				
					<rect x="11.4" y="39.9" transform="matrix(-0.7066 0.7076 -0.7076 -0.7066 49.5472 59.906)" fill="#F4AEC7" width="2" height="0.7"/>
				<polygon fill="#F4AEC7" points="19.5,41.2 19.8,40.9 19.8,39.9 19,40.7 				"/>
				<path fill="#F4AEC7" d="M6.8,44.3v-3.4l-1-1v4.4c0,3.7,3,6.7,6.7,6.7h0.6c0.1,0,0.1,0,0.2,0C9.7,50.9,6.8,47.9,6.8,44.3z"/>
				
					<rect x="7.5" y="39.9" transform="matrix(-0.7071 0.7071 -0.7071 -0.7071 43.0052 62.6359)" fill="#F4AEC7" width="2" height="0.7"/>
			</g>
		</g>
		<g>
			<g>
				<polygon fill="#D65483" points="58.2,40.1 55.1,37 49.8,42.3 55.1,47.6 58.2,44.6 				"/>
				
					<rect x="47.5" y="38.6" transform="matrix(0.707 -0.7072 0.7072 0.707 -14.9316 48.6149)" fill="#D65483" width="7.5" height="7.5"/>
				<polygon fill="#D65483" points="47.3,37 44.2,40.1 44.2,44.5 47.3,47.6 52.6,42.3 				"/>
			</g>
			<rect x="50.4" y="47.6" fill="#028952" width="1.7" height="12.7"/>
			<polyline fill="#036D3F" points="50.4,47.6 52,47.6 52,60.3 			"/>
			<g>
				<path fill="#EA7D9F" d="M56.9,41.2L55,39.3l-1.9,1.9l-1.9-1.9l-1.9,1.9l-1.9-1.9l-1.9,1.9l-1.3-1.3v4.4c0,3.7,3,6.7,6.7,6.7h0.6
					c3.7,0,6.7-3,6.7-6.7v-4.4L56.9,41.2z"/>
			</g>
			<g>
				<path fill="#EA7D9F" d="M56.9,41.2L55,39.3l-1.9,1.9l-1.9-1.9l-1.9,1.9l-1.9-1.9l-1.9,1.9l-1.3-1.3v4.4c0,3.7,3,6.7,6.7,6.7h0.6
					c3.7,0,6.7-3,6.7-6.7v-4.4L56.9,41.2z"/>
			</g>
			<g>
				
					<rect x="53.6" y="39.9" transform="matrix(-0.7071 0.7071 -0.7071 -0.7071 121.5888 30.0855)" fill="#F4AEC7" width="2" height="0.7"/>
				
					<rect x="49.7" y="39.9" transform="matrix(-0.7066 0.7076 -0.7076 -0.7066 115.0586 32.7436)" fill="#F4AEC7" width="2" height="0.7"/>
				<polygon fill="#F4AEC7" points="57.9,41.2 58.2,40.9 58.2,39.9 57.4,40.7 				"/>
				<path fill="#F4AEC7" d="M45.2,44.3v-3.4l-1-1v4.4c0,3.7,3,6.7,6.7,6.7h0.6c0.1,0,0.1,0,0.2,0C48.1,50.9,45.2,47.9,45.2,44.3z"/>
				
					<rect x="45.9" y="39.9" transform="matrix(-0.7069 0.7074 -0.7074 -0.7069 108.5329 35.4714)" fill="#F4AEC7" width="2" height="0.7"/>
			</g>
		</g>
	</g>
	<path fill="#036D3F" d="M32.7,58.7c0,0.5-0.4,0.9-0.9,0.9l0,0c-0.5,0-0.9-0.4-0.9-0.9V19.5c0-0.5,0.4-0.9,0.9-0.9l0,0
		c0.5,0,0.9,0.4,0.9,0.9V58.7z"/>
	<g>
		<g>
			<g>
				<g>
					<path fill="#F283B1" d="M35.4,6.1c0,4.6-1.6,9.6-3.6,9.6c-2,0-3.6-5-3.6-9.6c0-4.6,1.6-5.2,3.6-5.2C33.8,1,35.4,1.5,35.4,6.1z"
						/>
					<path fill="#EF6597" d="M31.8,1c2,0,3.6,0.6,3.6,5.2c0,4.6-1.6,9.6-3.6,9.6"/>
				</g>
				<g>
					<path fill="#F283B1" d="M28.2,34.5c0-4.6,1.6-9.6,3.6-9.6c2,0,3.6,5,3.6,9.6c0,4.6-1.6,5.2-3.6,5.2
						C29.8,39.7,28.2,39.1,28.2,34.5z"/>
					<path fill="#EF6597" d="M31.8,39.7c-2,0-3.6-0.6-3.6-5.2c0-4.6,1.6-9.6,3.6-9.6"/>
				</g>
			</g>
			<g>
				<g>
					<path fill="#F283B1" d="M46,23.9c-4.6,0-9.6-1.6-9.6-3.6c0-2,5-3.6,9.6-3.6c4.6,0,5.2,1.6,5.2,3.6C51.2,22.3,50.6,23.9,46,23.9
						z"/>
					<path fill="#EF6597" d="M51.2,20.3c0,2-0.6,3.6-5.2,3.6c-4.6,0-9.6-1.6-9.6-3.6"/>
				</g>
				<g>
					<path fill="#F283B1" d="M17.6,16.8c4.6,0,9.6,1.6,9.6,3.6c0,2-5,3.6-9.6,3.6c-4.6,0-5.2-1.6-5.2-3.6
						C12.4,18.4,13,16.8,17.6,16.8z"/>
					<path fill="#EF6597" d="M12.4,20.3c0-2,0.6-3.6,5.2-3.6c4.6,0,9.6,1.6,9.6,3.6"/>
				</g>
			</g>
		</g>
		<g>
			<g>
				<g>
					<path fill="#F283B1" d="M44.4,12.8c-3.3,3.2-7.9,5.7-9.3,4.3c-1.4-1.4,1-6.1,4.3-9.3c3.2-3.2,4.8-2.5,6.2-1.1
						C46.9,8,47.6,9.5,44.4,12.8z"/>
					<path fill="#EF6597" d="M45.5,6.6c1.4,1.4,2.1,2.9-1.1,6.2c-3.3,3.2-7.9,5.7-9.3,4.3"/>
				</g>
				<g>
					<path fill="#F283B1" d="M19.2,27.9c3.3-3.2,7.9-5.7,9.3-4.3c1.4,1.4-1,6.1-4.3,9.3c-3.3,3.2-4.8,2.5-6.2,1.1
						C16.7,32.6,16,31.1,19.2,27.9z"/>
					<path fill="#EF6597" d="M18.1,34c-1.4-1.4-2.1-2.9,1.1-6.2c3.3-3.2,7.9-5.7,9.3-4.3"/>
				</g>
			</g>
			<g>
				<g>
					<path fill="#F283B1" d="M39.3,32.9c-3.2-3.3-5.7-7.9-4.3-9.3c1.4-1.4,6.1,1,9.3,4.3s2.5,4.8,1.1,6.2
						C44.1,35.4,42.6,36.2,39.3,32.9z"/>
					<path fill="#EF6597" d="M45.5,34c-1.4,1.4-2.9,2.1-6.2-1.1c-3.2-3.3-5.7-7.9-4.3-9.3"/>
				</g>
				<g>
					<path fill="#F283B1" d="M24.3,7.8c3.2,3.2,5.7,7.9,4.3,9.3c-1.4,1.4-6.1-1-9.3-4.3C16,9.5,16.7,8,18.1,6.6
						C19.5,5.2,21,4.5,24.3,7.8z"/>
					<path fill="#EF6597" d="M18.1,6.6c1.4-1.4,2.9-2.1,6.2,1.1c3.2,3.2,5.7,7.9,4.3,9.3"/>
				</g>
			</g>
		</g>
		<g>
			<circle fill="#F7C90B" cx="31.8" cy="20.3" r="6"/>
			<path fill="#F9A908" d="M36.1,16.1c2.3,2.4,2.3,6.2,0,8.5c-2.4,2.4-6.2,2.4-8.5,0"/>
		</g>
	</g>
	<g>
		<path fill="#036D3F" d="M32.4,51.1c0,0-1.6-6.6-5.8-8.1c-4.2-1.5-3.7-4.9-3.7-4.9s-4.8,10,2.4,17.1c5.7,5.6,6.6,3,6.6,3L32.4,51.1
			z"/>
		<path fill="#036D3F" d="M31.2,51.1c0,0,1.6-6.6,5.8-8.1s3.7-4.9,3.7-4.9s4.8,10-2.4,17.1c-5.7,5.6-6.6,3-6.6,3L31.2,51.1z"/>
	</g>
</g>
</svg>
