<?xml version="1.0" encoding="utf-8"?>
<!-- Generator: Adobe Illustrator 16.0.0, SVG Export Plug-In . SVG Version: 6.00 Build 0)  -->
<!DOCTYPE svg PUBLIC "-//W3C//DTD SVG 1.1//EN" "http://www.w3.org/Graphics/SVG/1.1/DTD/svg11.dtd">
<svg version="1.1" id="Layer_1" xmlns="http://www.w3.org/2000/svg" xmlns:xlink="http://www.w3.org/1999/xlink" x="0px" y="0px"
	 width="64px" height="64px" viewBox="0 0 64 64" enable-background="new 0 0 64 64" xml:space="preserve">
<g>
	<path fill="#3FCAD1" d="M62.5,63C58,53,45,56.2,32,56.2C19,56.2,6,53,1.5,63H62.5z"/>
	<g>
		<g>
			<g>
				<g>
					<g>
						<g>
							<circle fill="#FF9100" cx="32" cy="28.3" r="26.3"/>
							<path fill="#FF7900" d="M50.6,46.9c-10.3,10.3-26.9,10.3-37.2,0C3.1,36.7,3.1,20,13.4,9.8"/>
							<g>
								<g>
									<g>
										<circle fill="#FFCE00" cx="11.5" cy="11.2" r="5.4"/>
										<path fill="#FF9D00" d="M11.5,5.8c3,0,5.4,2.4,5.4,5.4c0,3-2.4,5.4-5.4,5.4"/>
										<path fill="#FFBC00" d="M16.9,11.2c0,3-2.4,5-5.4,5s-5.4-2-5.4-5c0-3,2.4-5,5.4-5S16.9,8.2,16.9,11.2z"/>
										<path fill="#FFB000" d="M11.5,6.2c3,0,5.4,2,5.4,5c0,3-2.4,5-5.4,5s-5.4-2-5.4-5"/>
										<path fill="#FFBC00" d="M11.5,6.2c3,0,5.4,2,5.4,5c0,3-2.4,5-5.4,5"/>
										<path fill="#FFCE00" d="M16.9,11.2c0,3-2.4,5-5.4,5"/>
									</g>
									<g>
										<g>
											<g>
												<g>
													<circle fill="#FF9D00" cx="11.5" cy="4" r="0.4"/>
													<polygon fill="#FFCE00" points="12,2.7 11.5,2.8 11.1,2.7 11.5,1.7 													"/>
												</g>
												<g>
													<circle fill="#FF9D00" cx="11.5" cy="18.3" r="0.4"/>
													<polygon fill="#FFCE00" points="11.1,19.7 11.5,19.5 12,19.7 11.5,20.6 													"/>
												</g>
											</g>
											<g>
												<g>
													<circle fill="#FF9D00" cx="16.6" cy="6.1" r="0.4"/>
													<polygon fill="#FFCE00" points="17.9,5.5 17.4,5.3 17.2,4.8 18.2,4.5 													"/>
												</g>
												<g>
													<circle fill="#FF9D00" cx="6.5" cy="16.2" r="0.4"/>
													<polygon fill="#FFCE00" points="5.2,16.8 5.6,17.1 5.9,17.5 4.9,17.8 													"/>
												</g>
											</g>
											<g>
												<g>
													<circle fill="#FF9D00" cx="18.7" cy="11.2" r="0.4"/>
													<polygon fill="#FFCE00" points="20,11.7 19.9,11.2 20,10.7 21,11.2 													"/>
												</g>
												<g>
													<circle fill="#FF9D00" cx="4.4" cy="11.2" r="0.4"/>
													<polygon fill="#FFCE00" points="3,10.7 3.2,11.2 3,11.7 2.1,11.2 													"/>
												</g>
											</g>
										</g>
										<g>
											<g>
												<circle fill="#FF9D00" cx="16.6" cy="16.2" r="0.4"/>
												<polygon fill="#FFCE00" points="17.2,17.5 17.4,17.1 17.9,16.8 18.2,17.8 												"/>
											</g>
											<g>
												<circle fill="#FF9D00" cx="6.5" cy="6.1" r="0.4"/>
												<polygon fill="#FFCE00" points="5.9,4.8 5.6,5.3 5.2,5.5 4.9,4.5 												"/>
											</g>
										</g>
									</g>
									<g>
										<g>
											<g>
												<g>
													<circle fill="#FFCE00" cx="14.3" cy="4.6" r="0.4"/>
													<polygon fill="#FF9D00" points="15.3,3.5 14.8,3.5 14.4,3.2 15.2,2.5 													"/>
												</g>
												<g>
													<circle fill="#FFCE00" cx="8.7" cy="17.8" r="0.4"/>
													<polygon fill="#FF9D00" points="7.8,18.8 8.3,18.8 8.7,19.2 7.9,19.8 													"/>
												</g>
											</g>
											<g>
												<g>
													<circle fill="#FFCE00" cx="18.2" cy="8.5" r="0.4"/>
													<polygon fill="#FF9D00" points="19.6,8.4 19.3,8.1 19.2,7.6 20.3,7.6 													"/>
												</g>
												<g>
													<circle fill="#FFCE00" cx="4.9" cy="13.9" r="0.4"/>
													<polygon fill="#FF9D00" points="3.5,13.9 3.8,14.3 3.8,14.8 2.8,14.7 													"/>
												</g>
											</g>
											<g>
												<g>
													<circle fill="#FFCE00" cx="18.1" cy="14" r="0.4"/>
													<polygon fill="#FF9D00" points="19.2,14.9 19.2,14.4 19.5,14.1 20.2,14.9 													"/>
												</g>
												<g>
													<circle fill="#FFCE00" cx="4.9" cy="8.4" r="0.4"/>
													<polygon fill="#FF9D00" points="3.9,7.4 3.9,7.9 3.5,8.3 2.9,7.5 													"/>
												</g>
											</g>
										</g>
										<g>
											<g>
												<circle fill="#FFCE00" cx="14.2" cy="17.8" r="0.4"/>
												<polygon fill="#FF9D00" points="14.3,19.2 14.7,18.9 15.2,18.9 15.1,19.9 												"/>
											</g>
											<g>
												<circle fill="#FFCE00" cx="8.9" cy="4.5" r="0.4"/>
												<polygon fill="#FF9D00" points="8.8,3.1 8.4,3.4 7.9,3.5 8,2.4 												"/>
											</g>
										</g>
									</g>
								</g>
							</g>
						</g>
					</g>
				</g>
			</g>
		</g>
	</g>
	<path fill="#FFE000" d="M56.3,63C52.5,53,43,46.5,32,46.5C21,46.5,11.5,53,7.7,63H56.3z"/>
	<path fill="#EFC100" d="M56.3,63C52.5,53,43,49.4,32,49.4C21,49.4,11.5,53,7.7,63H56.3z"/>
	<g>
		<path fill="#BC6C15" d="M36.5,47.7c0,13.7-2,8.5-4.5,8.5c-2.5,0-4.5,5.1-4.5-8.5c0-13.7,2-24.7,4.5-24.7
			C34.5,23,36.5,34.1,36.5,47.7z"/>
		<g>
			<path fill="#3CC676" d="M29,0.8c3.4,0,6.1,4.7,6.1,10.3c0,5.6-3.1,10.3-6.1,10.3V1"/>
			<path fill="#0AA06E" d="M35.1,11.1c0,5.6-3.1,10.3-6.1,10.3V7"/>
		</g>
		<g>
			<g>
				<g>
					<path fill="#3CC676" d="M16.9,8.8c2.4-2.4,7.5-1.1,11.5,2.9s5.3,9.2,2.9,11.5L17.1,9"/>
					<path fill="#0AA06E" d="M28.4,11.7c4,4,5.3,9.2,2.9,11.5L21.2,13.2"/>
				</g>
				<g>
					<path fill="#3CC676" d="M11.9,24.1c0-3.4,4.7-6.1,10.3-6.1c5.6,0,10.3,3,10.3,6H12"/>
					<path fill="#0AA06E" d="M22.2,17.9c5.6,0,10.4,3.1,10.4,6.1H18"/>
				</g>
				<g>
					<path fill="#3CC676" d="M20.4,40.8c-2.8-1.8-2.7-7.1,0.3-11.9c3-4.8,7.8-7.2,10.6-5.4l-10.8,17"/>
					<path fill="#0AA06E" d="M20.7,28.9c3-4.8,7.8-7.2,10.6-5.4l-7.6,12"/>
				</g>
			</g>
			<g>
				<g>
					<path fill="#3CC676" d="M47.1,8.8c-2.4-2.4-7.5-1.1-11.5,2.9s-5.3,9.2-2.9,11.5L46.9,9"/>
					<path fill="#0AA06E" d="M35.6,11.7c-4,4-5.3,9.2-2.9,11.5l10.1-10.1"/>
				</g>
				<g>
					<path fill="#3CC676" d="M52.1,24.1c0-3.4-4.7-6.1-10.3-6.1c-5.6,0-10.3,3-10.3,6H52"/>
					<path fill="#0AA06E" d="M41.8,17.9c-5.6,0-10.4,3.1-10.4,6.1H46"/>
				</g>
				<g>
					<path fill="#3CC676" d="M43.6,40.8c2.8-1.8,2.7-7.1-0.3-11.9c-3-4.8-7.8-7.2-10.6-5.4l10.8,17"/>
					<path fill="#0AA06E" d="M43.3,28.9c-3-4.8-7.8-7.2-10.6-5.4l7.6,12"/>
				</g>
			</g>
		</g>
		<path fill="#965011" d="M32,23c2.5,0,4.5,11.1,4.5,24.7c0,13.7-2,8.5-4.5,8.5"/>
		<g>
			<g>
				<g>
					<circle fill="#FFC114" cx="28.2" cy="26.2" r="3.7"/>
					<path fill="#FF8A15" d="M30.9,23.6c1.5,1.5,1.5,3.8,0,5.3c-1.5,1.5-3.8,1.5-5.3,0"/>
				</g>
				<g>
					<circle fill="#FFC114" cx="35.8" cy="26.2" r="3.7"/>
					<path fill="#FF8A15" d="M38.4,23.6c1.5,1.5,1.5,3.8,0,5.3c-1.5,1.5-3.8,1.5-5.3,0"/>
				</g>
			</g>
			<g>
				<circle fill="#FFC114" cx="32" cy="19.7" r="3.7"/>
				<path fill="#FF8A15" d="M32,16c2.1,0,3.7,1.7,3.7,3.7c0,2.1-1.7,3.7-3.7,3.7"/>
			</g>
		</g>
	</g>
	<path fill="#D88532" d="M34.7,31.5c0,0.2-0.2,0.5-0.5,0.5h-4.4c-0.3,0-0.5-0.3-0.5-0.5l0,0c0-0.2,0.2-0.5,0.5-0.5h4.4
		C34.5,31,34.7,31.3,34.7,31.5L34.7,31.5z"/>
	<path fill="#D88532" d="M34.7,34.5c0,0.2-0.2,0.5-0.5,0.5h-4.4c-0.3,0-0.5-0.3-0.5-0.5l0,0c0-0.2,0.2-0.5,0.5-0.5h4.4
		C34.5,34,34.7,34.3,34.7,34.5L34.7,34.5z"/>
	<path fill="#D88532" d="M34.7,37.5c0,0.2-0.2,0.5-0.5,0.5h-4.4c-0.3,0-0.5-0.3-0.5-0.5l0,0c0-0.2,0.2-0.5,0.5-0.5h4.4
		C34.5,37,34.7,37.3,34.7,37.5L34.7,37.5z"/>
	<path fill="#D88532" d="M34.7,40.5c0,0.2-0.2,0.5-0.5,0.5h-4.4c-0.3,0-0.5-0.3-0.5-0.5l0,0c0-0.2,0.2-0.5,0.5-0.5h4.4
		C34.5,40,34.7,40.3,34.7,40.5L34.7,40.5z"/>
	<path fill="#D88532" d="M34.7,43.5c0,0.2-0.2,0.5-0.5,0.5h-4.4c-0.3,0-0.5-0.3-0.5-0.5l0,0c0-0.2,0.2-0.5,0.5-0.5h4.4
		C34.5,43,34.7,43.3,34.7,43.5L34.7,43.5z"/>
	<path fill="#D88532" d="M34.7,46.5c0,0.2-0.2,0.5-0.5,0.5h-4.4c-0.3,0-0.5-0.3-0.5-0.5l0,0c0-0.2,0.2-0.5,0.5-0.5h4.4
		C34.5,46,34.7,46.3,34.7,46.5L34.7,46.5z"/>
	<path fill="#D88532" d="M34.7,49.5c0,0.2-0.2,0.5-0.5,0.5h-4.4c-0.3,0-0.5-0.3-0.5-0.5l0,0c0-0.2,0.2-0.5,0.5-0.5h4.4
		C34.5,49,34.7,49.3,34.7,49.5L34.7,49.5z"/>
	<polygon fill="#C69705" points="40,63 24,63 27.9,53 36.1,53 	"/>
</g>
</svg>
