<?xml version="1.0" encoding="utf-8"?>
<!-- Generator: Adobe Illustrator 16.0.0, SVG Export Plug-In . SVG Version: 6.00 Build 0)  -->
<!DOCTYPE svg PUBLIC "-//W3C//DTD SVG 1.1//EN" "http://www.w3.org/Graphics/SVG/1.1/DTD/svg11.dtd">
<svg version="1.1" id="Layer_1" xmlns="http://www.w3.org/2000/svg" xmlns:xlink="http://www.w3.org/1999/xlink" x="0px" y="0px"
	 width="64px" height="64px" viewBox="0 0 64 64" enable-background="new 0 0 64 64" xml:space="preserve">
<g>
	<g>
		<g>
			<g>
				<g>
					<g>
						<circle fill="#063F66" cx="32" cy="27.6" r="26.7"/>
						<path fill="#022730" d="M50.9,46.5c-10.4,10.4-27.4,10.4-37.8,0C2.7,36.1,2.7,19.1,13.1,8.7"/>
					</g>
				</g>
			</g>
		</g>
	</g>
	<g>
		<path fill="#3E9904" d="M63,63c-4.6-10-17.8-6.9-31-6.9C18.8,56.1,5.6,53,1,63H63z"/>
		<path fill="#82C60A" d="M56.7,63C52.8,53,43.2,46.2,32,46.2C20.8,46.2,11.2,53,7.3,63H56.7z"/>
		<path fill="#74B208" d="M56.7,63C52.8,53,43.2,49.2,32,49.2C20.8,49.2,11.2,53,7.3,63H56.7z"/>
	</g>
	<g>
		<g>
			
				<rect x="34.6" y="28.3" transform="matrix(0.8563 0.5164 -0.5164 0.8563 25.4368 -18.7591)" fill="#DDDAC3" width="23.6" height="16"/>
			<polyline fill="#C9C5AD" points="40.5,23.4 60.7,35.6 52.4,49.3 			"/>
			<path fill="#FCA12A" d="M41.6,42l5.7-9.5c0.3-0.4,0.1-1-0.3-1.3l-4.7-2.9c-0.4-0.3-1-0.1-1.3,0.3l-5.7,9.5L41.6,42z"/>
			<path fill="#E58613" d="M44.4,37.4l2.9-4.9c0.3-0.4,0.1-1-0.3-1.3l-4.7-2.9c-0.4-0.3-1-0.1-1.3,0.3"/>
			<circle fill="#DB5435" cx="43" cy="35.9" r="1"/>
			<path fill="#C43D27" d="M44,35.6c0.1,0.5-0.2,1-0.7,1.2s-1-0.2-1.2-0.7"/>
			<g>
				<path fill="#008AAA" d="M51.4,37.7l2.8,1.7l1.2-2c0.3-0.4,0.1-1-0.3-1.3l-2-1.2L51.4,37.7z"/>
				<path fill="#00A1AD" d="M50.6,37.2l1.7-2.8l-2-1.2c-0.4-0.3-1-0.1-1.3,0.3l-1.2,2L50.6,37.2z"/>
				<path fill="#008AAA" d="M50.1,38l-2.8-1.7l-1.2,2c-0.3,0.4-0.1,1,0.3,1.3l2,1.2L50.1,38z"/>
				<path fill="#00A1AD" d="M50.9,38.5l-1.7,2.8l2,1.2c0.4,0.3,1,0.1,1.3-0.3l1.2-2L50.9,38.5z"/>
			</g>
		</g>
		<g>
			<polygon fill="#C43D27" points="59.1,40.5 62,20.6 43.4,13 			"/>
			<polygon fill="#AA1E0F" points="59.1,40.5 62,20.6 47.2,19.7 			"/>
			<polygon fill="#C43D27" points="48.6,15.1 59.9,34.9 60.1,33.4 50,15.7 			"/>
			<polygon fill="#C43D27" points="54.2,17.4 60.8,29 61,27.5 55.6,18 			"/>
		</g>
	</g>
	<g>
		<path fill="#82C60A" d="M35.5,5.4L35.5,5.4L35.5,5.4L35.5,5.4C33.4,6.9,31,6,29.6,8.6c-0.8,1.5,0,3,1,4.8l0,0l0,0v0
			c2,0.1,3.8,0,4.7-1.3C37,9.7,35.1,7.9,35.5,5.4z"/>
		<path fill="#5EA304" d="M30.6,13.3L30.6,13.3L30.6,13.3L30.6,13.3c2,0.1,3.8,0,4.7-1.3c1.6-2.4-0.3-4.1,0.1-6.7l0,0l0,0l0,0"/>
		<g>
			<polygon fill="#74B208" points="33.3,8.9 32.6,7.3 33.1,9.4 35.1,8.9 			"/>
			<polygon fill="#74B208" points="31.7,11.6 30.9,10 31.4,12 33.5,11.5 			"/>
			<polygon fill="#74B208" points="32.6,10.2 31.7,8.4 32.2,10.7 34.6,10.2 			"/>
		</g>
	</g>
	<g>
		<path fill="#82C60A" d="M39.6,17.2L39.6,17.2l0-0.2h0c-1.4,0-2-1.7-3.6-1.5c-0.9,0.1-1,1.1-2,2.1l0,0v0l0.1,0
			c0.6,0.9,1.3,1.7,2.2,1.7C38,19.3,38.3,17.8,39.6,17.2z"/>
		<path fill="#5EA304" d="M34,17.6L34,17.6L34,17.6l0.1,0c0.6,0.9,1.3,1.7,2.2,1.7c1.6,0,1.8-1.5,3.1-2.1l0-0.1l0-0.1H40"/>
		<g>
			<polygon fill="#74B208" points="37.2,17.4 37.7,16.5 36.9,17.4 37.8,18.2 			"/>
			<polygon fill="#74B208" points="35.5,17.5 35.9,16.6 35.2,17.5 36.1,18.3 			"/>
			<polygon fill="#74B208" points="36.4,17.4 36.9,16.4 36,17.5 37,18.3 			"/>
		</g>
	</g>
	<g>
		<path fill="#82C60A" d="M28.8,36L28.8,36L28.8,36L28.8,36c0.9,1,0.4,2.4,1.9,3.2c0.8,0.4,1.7-0.1,2.7-0.6l0,0l0,0v0
			c0-1.1,0-2-0.8-2.5C31.2,35,30.2,36,28.8,36z"/>
		<path fill="#5EA304" d="M33.4,38.6L33.4,38.6L33.4,38.6L33.4,38.6c0-1.2-0.1-2.1-0.9-2.6C31.2,35,30.2,36,28.8,36h0h0H29"/>
		<g>
			<polygon fill="#74B208" points="30.8,37 29.9,37.4 31.1,37.1 30.8,36 			"/>
			<polygon fill="#74B208" points="32.3,37.9 31.4,38.3 32.6,38 32.3,36.9 			"/>
			<polygon fill="#74B208" points="31.6,37.4 30.6,37.9 31.9,37.6 31.5,36.3 			"/>
		</g>
	</g>
	<g>
		<path fill="#82C60A" d="M29,42.5L29,42.5L29,42.5L29,42.5c0,0.6-1.2,0.4-1.6,1.3c-0.2,0.5,0.2,1,0.6,1.5l0,0l0,0l0,0
			c0.6-0.1,1.1-0.2,1.3-0.7C29.8,43.8,29,43.4,29,42.5z"/>
		<path fill="#5EA304" d="M28,45.6L28,45.6l0.1-0.1l0,0c0.6-0.1,1.1-0.2,1.3-0.7c0.4-0.8-0.4-1.4-0.4-2.2v0v0V43"/>
		<g>
			<polygon fill="#74B208" points="28.8,43.8 28.5,43.3 28.7,43.9 29.4,43.7 			"/>
			<polygon fill="#74B208" points="28.4,44.7 28.1,44.2 28.4,44.9 29,44.6 			"/>
			<polygon fill="#74B208" points="28.6,44.2 28.3,43.7 28.5,44.4 29.3,44.1 			"/>
		</g>
	</g>
	<g>
		<path fill="#82C60A" d="M23,13.1L23,13.1L23,13.1L23,13.1c0,0.6-1.3,0.4-1.6,1.3c-0.2,0.5,0.2,1,0.6,1.5l0,0l0,0l0,0
			c0.6-0.1,1.1-0.2,1.3-0.7C23.8,14.4,23,13.9,23,13.1z"/>
		<path fill="#5EA304" d="M21.9,15.8L21.9,15.8L21.9,15.8L21.9,15.8c0.7-0.1,1.2-0.1,1.4-0.6c0.4-0.8-0.4-1.3-0.4-2.1v0v0V13"/>
		<g>
			<polygon fill="#74B208" points="22.7,14.3 22.4,13.8 22.6,14.5 23.3,14.2 			"/>
			<polygon fill="#74B208" points="22.3,15.2 22,14.8 22.2,15.4 22.9,15.2 			"/>
			<polygon fill="#74B208" points="22.5,14.8 22.1,14.2 22.4,15 23.1,14.7 			"/>
		</g>
	</g>
	<g>
		<g>
			<rect x="4" y="16" fill="#5EE0EA" width="33" height="2"/>
			<polygon fill="#30B9D8" points="32,18.5 7.9,20.5 7.6,18.6 31.7,16.6 			"/>
			<polygon fill="#30B9D8" points="32.7,21.9 11.2,23.7 10.9,22 32.5,20.2 			"/>
			<polygon fill="#30B9D8" points="32.4,24.6 12,26.3 11.7,24.7 32.1,23 			"/>
			<polygon fill="#30B9D8" points="9.8,21.7 34,20.7 33.9,18.9 9.6,19.9 			"/>
			<polygon fill="#30B9D8" points="12.5,24.5 34.9,23.5 34.7,21.8 12.4,22.7 			"/>
		</g>
		<g>
			<rect x="12" y="27" fill="#5EE0EA" width="22" height="2"/>
			<polygon fill="#30B9D8" points="15.2,28.9 31,30.2 31.2,29 15.4,27.7 			"/>
			<polygon fill="#5EE0EA" points="14.7,31.1 28.8,32.3 29,31.2 14.9,30 			"/>
			<polygon fill="#5EE0EA" points="14.9,32.8 28.3,33.9 28.5,32.9 15.1,31.8 			"/>
			<polygon fill="#30B9D8" points="29.8,31 13.8,30.4 13.9,29.1 29.9,29.8 			"/>
			<polygon fill="#5EE0EA" points="28,32.8 13.3,32.2 13.4,31 28,31.6 			"/>
		</g>
		<g>
			
				<rect x="13.8" y="35.3" transform="matrix(0.9957 -9.312957e-02 9.312957e-02 0.9957 -3.2563 2.1334)" fill="#30B9D8" width="14.9" height="1.4"/>
			<polygon fill="#5EE0EA" points="26.5,36.3 15.7,38.4 15.5,37.4 26.2,35.3 			"/>
			<polygon fill="#30B9D8" points="26.9,38.1 17.4,39.9 17.2,39.1 26.7,37.2 			"/>
			<polygon fill="#30B9D8" points="26.9,39.5 17.8,41.3 17.7,40.5 26.7,38.7 			"/>
			<polygon fill="#5EE0EA" points="16.6,39 27.5,37.4 27.3,36.4 16.5,38 			"/>
			<polygon fill="#30B9D8" points="18,40.3 28,38.9 27.8,38 17.9,39.4 			"/>
		</g>
		<g>
			
				<rect x="17.9" y="42.1" transform="matrix(-0.9956 -9.322026e-02 9.322026e-02 -0.9956 42.0281 87.057)" fill="#5EE0EA" width="10.3" height="0.9"/>
			<polygon fill="#5EE0EA" points="19.4,42.8 26.9,44.2 27,43.5 19.6,42.1 			"/>
			<polygon fill="#5EE0EA" points="19.1,44 25.7,45.3 25.9,44.7 19.2,43.4 			"/>
			<polygon fill="#5EE0EA" points="19.1,45 25.4,46.2 25.5,45.7 19.3,44.4 			"/>
			<polygon fill="#30B9D8" points="26.2,44.6 18.7,43.6 18.8,42.9 26.3,43.9 			"/>
			<polygon fill="#30B9D8" points="25.3,45.6 18.4,44.6 18.5,43.9 25.4,44.9 			"/>
		</g>
		<polygon fill="#30B9D8" points="24.4,47.2 20,46.8 20.9,47.5 22.1,47.8 21.3,48.6 22.5,50.9 22.7,49.5 23.8,48.3 22.7,47.9 		"/>
	</g>
	<polygon fill="#3F9B04" points="32.7,63 22.2,50.9 11.6,63 	"/>
</g>
</svg>
