<?xml version="1.0" encoding="utf-8"?>
<!-- Generator: Adobe Illustrator 16.0.0, SVG Export Plug-In . SVG Version: 6.00 Build 0)  -->
<!DOCTYPE svg PUBLIC "-//W3C//DTD SVG 1.1//EN" "http://www.w3.org/Graphics/SVG/1.1/DTD/svg11.dtd">
<svg version="1.1" id="Layer_1" xmlns="http://www.w3.org/2000/svg" xmlns:xlink="http://www.w3.org/1999/xlink" x="0px" y="0px"
	 width="64px" height="64px" viewBox="0 0 64 64" enable-background="new 0 0 64 64" xml:space="preserve">
<g>
	<g>
		<g>
			<g>
				<g>
					<g>
						<g>
							<circle fill="#06C67C" cx="32" cy="28.7" r="28"/>
							<path fill="#0FB57E" d="M51.8,48.5c-10.9,10.9-28.6,10.9-39.5,0C1.3,37.6,1.3,19.9,12.2,8.9"/>
						</g>
					</g>
				</g>
			</g>
		</g>
	</g>
	<g>
		<path fill="#3FCAD1" d="M63,63.2c-4.6-9.8-17.8-6.9-31-6.9S5.6,53.4,1,63.2H63z"/>
		<path fill="#BEF4F2" d="M56.7,63.2C52.8,53.4,43.2,46.5,32,46.5S11.2,53.4,7.3,63.2H56.7z"/>
		<path fill="#8CE5E5" d="M56.7,63.2C52.8,53.4,43.2,49.4,32,49.4s-20.8,4-24.7,13.8H56.7z"/>
		<polygon fill="#72D3D1" points="40.1,63.2 23.9,63.2 27.8,53.5 36.2,53.5 		"/>
	</g>
	<g>
		<g>
			<ellipse fill="#ED751B" cx="26.4" cy="53.5" rx="1.6" ry="2.9"/>
			<ellipse fill="#ED751B" cx="37.6" cy="53.5" rx="1.6" ry="2.9"/>
		</g>
		<g>
			<g>
				<path fill="#1E4784" d="M12.1,29.4c2.8-5,5.3-6.8,6.6-6.1c1.3,0.8,1,3.8-1.9,8.8c-2.8,5-7.3,10.3-8.6,9.5
					C7,40.9,9.3,34.4,12.1,29.4z"/>
				<path fill="#00233F" d="M18.8,23.3c1.3,0.8,1,3.8-1.9,8.8c-2.8,5-7.3,10.3-8.6,9.5"/>
				<path fill="#00233F" d="M51.9,29.4c-2.8-5-5.3-6.8-6.6-6.1c-1.3,0.8-1,3.8,1.9,8.8c2.8,5,7.3,10.3,8.6,9.5
					C57,40.9,54.7,34.4,51.9,29.4z"/>
				<path fill="#1E4784" d="M45.2,23.3c-1.3,0.8-1,3.8,1.9,8.8c2.8,5,7.3,10.3,8.6,9.5"/>
			</g>
			<path fill="#2264B2" d="M50.9,36.2c0,12.6-8.5,18.9-18.9,18.9c-10.5,0-18.9-6.3-18.9-18.9S21.5,8.6,32,8.6
				C42.5,8.6,50.9,23.5,50.9,36.2z"/>
			<path fill="#1E4784" d="M13.1,36.2c0-12.6,8.5-27.6,18.9-27.6c10.5,0,18.9,15,18.9,27.6S42.5,55.1,32,55.1"/>
			<path fill="#00233F" d="M32,8.6c10.5,0,18.9,15,18.9,27.6S42.5,55.1,32,55.1"/>
			<path fill="#FFFFFF" d="M17,32.8c0-8.8,6.7-13.2,15-13.2c8.3,0,15,4.4,15,13.2c0,8.8-6.7,19.2-15,19.2C23.7,51.9,17,41.5,17,32.8
				z"/>
			<path fill="#E5F2F9" d="M17,32.8c0-8.8,6.7-13.2,15-13.2c8.3,0,15,4.4,15,13.2c0,8.8-6.7,19.2-15,19.2"/>
			<path fill="#CADDEA" d="M32,19.6c8.3,0,15,4.4,15,13.2c0,8.8-6.7,19.2-15,19.2"/>
			<g>
				<circle fill="#FFFFFF" cx="26.2" cy="20.4" r="5.8"/>
				<path fill="#E5F2F9" d="M26.2,14.6c3.2,0,5.8,2.6,5.8,5.8c0,3.2-2.6,5.8-5.8,5.8s-5.8-2.6-5.8-5.8"/>
				<circle fill="#CADDEA" cx="37.8" cy="20.4" r="5.8"/>
			</g>
			<g>
				<g>
					<g>
						<g>
							<g>
								<path fill="#3DE09D" d="M26.2,12.5c-1,0.1-1.7,0.5-1.7,1l3.5-0.2C28,12.8,27.2,12.4,26.2,12.5z"/>
							</g>
						</g>
						<g>
							<g>
								<path fill="#3DE09D" d="M37.8,12.5c1,0.1,1.7,0.5,1.7,1L36,13.2C36,12.8,36.8,12.4,37.8,12.5z"/>
							</g>
						</g>
					</g>
					<path fill="#FFFFFF" d="M25.5,20.3c-2.3,0-4.2,0.5-4.2,1.2c0,0.7,1.9,0.4,4.2,0.4c2.3,0,4.2,0.3,4.2-0.4
						C29.7,20.8,27.9,20.3,25.5,20.3z"/>
					<path fill="#FFFFFF" d="M38.5,20.3c-2.3,0-4.2,0.5-4.2,1.2c0,0.7,1.9,0.4,4.2,0.4c2.3,0,4.2,0.3,4.2-0.4
						C42.7,20.8,40.8,20.3,38.5,20.3z"/>
					<g>
						<path fill="#CADDEA" d="M28.2,19.4c0,1-0.8,1.7-1.7,1.7c-0.9,0-1.7-0.8-1.7-1.7s0.8-1.7,1.7-1.7
							C27.4,17.7,28.2,18.5,28.2,19.4z"/>
						<path fill="#CADDEA" d="M39.4,19.4c0,1-0.8,1.7-1.7,1.7c-0.9,0-1.7-0.8-1.7-1.7s0.8-1.7,1.7-1.7
							C38.7,17.7,39.4,18.5,39.4,19.4z"/>
						<path fill="#1E4784" d="M28.2,18.9c0,0.9-0.8,1.7-1.7,1.7c-0.9,0-1.7-0.8-1.7-1.7c0-1,0.8-1.7,1.7-1.7
							C27.4,17.2,28.2,18,28.2,18.9z"/>
						<path fill="#00233F" d="M26.5,17.2c1,0,1.7,0.8,1.7,1.7c0,0.9-0.8,1.7-1.7,1.7"/>
						<path fill="#1E4784" d="M39.4,18.9c0,0.9-0.8,1.7-1.7,1.7c-0.9,0-1.7-0.8-1.7-1.7c0-1,0.8-1.7,1.7-1.7
							C38.7,17.2,39.4,18,39.4,18.9z"/>
						<path fill="#00233F" d="M37.7,17.2c1,0,1.7,0.8,1.7,1.7c0,0.9-0.8,1.7-1.7,1.7"/>
					</g>
				</g>
			</g>
			<polygon fill="#EF9D18" points="35.3,22 32,24.4 28.7,22 32,20.3 			"/>
			<polygon fill="#ED751B" points="35.3,22 32,24.4 28.7,22 32,23 			"/>
			<g>
				<circle fill="#FFFFFF" cx="32" cy="28.7" r="0.7"/>
				<circle fill="#FFFFFF" cx="32" cy="32.7" r="0.7"/>
				<circle fill="#FFFFFF" cx="32" cy="36.8" r="0.7"/>
				<circle fill="#FFFFFF" cx="32" cy="40.8" r="0.7"/>
			</g>
			<path fill="#2264B2" d="M31.3,9.7c0.1,0.4-1,1.1-2.5,1.6c-1.5,0.5-2.9,0.6-3,0.2c-0.1-0.4,1-1.1,2.5-1.6
				C29.8,9.4,31.2,9.3,31.3,9.7z"/>
			
				<ellipse transform="matrix(0.6313 -0.7755 0.7755 0.6313 -15.2647 22.0912)" fill="#2264B2" cx="15.6" cy="27.1" rx="2.3" ry="1"/>
		</g>
	</g>
	<g>
		<g>
			<path fill="#C7F4FF" d="M20,17.2l-1.5-0.9l0.8-0.2c0.2-0.1,0.4-0.3,0.3-0.5c-0.1-0.2-0.3-0.4-0.5-0.3l-1.6,0.4l0,0l-0.8-0.4V11
				l0.8-0.4l0,0l1.6,0.4c0,0,0.1,0,0.1,0c0.2,0,0.4-0.1,0.4-0.3c0.1-0.2-0.1-0.5-0.3-0.5L18.5,10L20,9.1c0.2-0.1,0.3-0.4,0.2-0.6
				c-0.1-0.2-0.4-0.3-0.6-0.2l-1.5,0.9l0.2-0.8c0.1-0.2-0.1-0.5-0.3-0.5c-0.2-0.1-0.5,0.1-0.5,0.3L17,9.8c0,0,0,0,0,0l-0.8,0.4
				l-3.7-2.2V7.2l0,0L13.8,6c0.2-0.2,0.2-0.4,0-0.6s-0.4-0.2-0.6,0L12.5,6V4.3c0-0.2-0.2-0.4-0.4-0.4c-0.2,0-0.4,0.2-0.4,0.4V6
				l-0.6-0.6c-0.2-0.2-0.4-0.2-0.6,0s-0.2,0.4,0,0.6l1.2,1.2c0,0,0,0,0,0l0,0.9l-3.7,2.2L7.2,9.8c0,0,0,0,0,0L6.7,8.2
				C6.7,7.9,6.4,7.8,6.2,7.9C6,7.9,5.8,8.2,5.9,8.4l0.2,0.8L4.6,8.3C4.4,8.2,4.1,8.3,4,8.5C3.9,8.7,4,9,4.2,9.1L5.7,10l-0.8,0.2
				c-0.2,0.1-0.4,0.3-0.3,0.5C4.6,10.9,4.8,11,5,11c0,0,0.1,0,0.1,0l1.6-0.4l0,0L7.5,11v4.3l-0.8,0.4l0,0l-1.6-0.4
				c-0.2-0.1-0.5,0.1-0.5,0.3c-0.1,0.2,0.1,0.5,0.3,0.5l0.8,0.2l-1.5,0.9C4,17.3,3.9,17.6,4,17.8C4.1,17.9,4.3,18,4.4,18
				c0.1,0,0.1,0,0.2-0.1l1.5-0.9l-0.2,0.8c-0.1,0.2,0.1,0.5,0.3,0.5c0,0,0.1,0,0.1,0c0.2,0,0.4-0.1,0.4-0.3l0.4-1.6l0,0L7.9,16
				l3.7,2.2v0.9c0,0,0,0,0,0l-1.2,1.2c-0.2,0.2-0.2,0.4,0,0.6c0.1,0.1,0.2,0.1,0.3,0.1s0.2,0,0.3-0.1l0.6-0.6V22
				c0,0.2,0.2,0.4,0.4,0.4c0.2,0,0.4-0.2,0.4-0.4v-1.7l0.6,0.6c0.1,0.1,0.2,0.1,0.3,0.1c0.1,0,0.2,0,0.3-0.1c0.2-0.2,0.2-0.4,0-0.6
				l-1.2-1.2l0,0v-0.9l3.7-2.2l0.8,0.4l0,0l0.4,1.6c0.1,0.2,0.2,0.3,0.4,0.3c0,0,0.1,0,0.1,0c0.2-0.1,0.4-0.3,0.3-0.5l-0.2-0.8
				l1.5,0.9c0.1,0,0.1,0.1,0.2,0.1c0.2,0,0.3-0.1,0.4-0.2C20.3,17.6,20.2,17.3,20,17.2z M15.8,14.8L13,13.2l2.8-1.6V14.8z
				 M15.4,10.8l-2.8,1.6V9.1L15.4,10.8z M11.7,9.1v3.3l-2.8-1.6L11.7,9.1z M8.4,11.5l2.8,1.6l-2.8,1.6V11.5z M8.8,15.5l2.8-1.6v3.3
				L8.8,15.5z M12.5,17.2v-3.3l2.8,1.6L12.5,17.2z"/>
		</g>
		<path fill="#61CCF2" d="M20,17.2l-1.5-0.9l0.8-0.2c0.2-0.1,0.4-0.3,0.3-0.5c-0.1-0.2-0.3-0.4-0.5-0.3l-1.6,0.4l0,0l-0.8-0.4V11
			l0.8-0.4l0,0l1.6,0.4c0,0,0.1,0,0.1,0c0.2,0,0.4-0.1,0.4-0.3c0.1-0.2-0.1-0.5-0.3-0.5L18.5,10L20,9.1c0.2-0.1,0.3-0.4,0.2-0.6
			c-0.1-0.2-0.4-0.3-0.6-0.2l-1.5,0.9l0.2-0.8c0.1-0.2-0.1-0.5-0.3-0.5c-0.2-0.1-0.5,0.1-0.5,0.3L17,9.8c0,0,0,0,0,0l-0.8,0.4
			l-3.7-2.2V7.2l0,0L13.8,6c0.2-0.2,0.2-0.4,0-0.6s-0.4-0.2-0.6,0L12.5,6V4.3c0-0.2-0.2-0.4-0.4-0.4c0,0,0,0,0,0v18.6c0,0,0,0,0,0
			c0.2,0,0.4-0.2,0.4-0.4v-1.7l0.6,0.6c0.1,0.1,0.2,0.1,0.3,0.1c0.1,0,0.2,0,0.3-0.1c0.2-0.2,0.2-0.4,0-0.6l-1.2-1.2l0,0v-0.9
			l3.7-2.2l0.8,0.4l0,0l0.4,1.6c0.1,0.2,0.2,0.3,0.4,0.3c0,0,0.1,0,0.1,0c0.2-0.1,0.4-0.3,0.3-0.5l-0.2-0.8l1.5,0.9
			c0.1,0,0.1,0.1,0.2,0.1c0.2,0,0.3-0.1,0.4-0.2C20.3,17.6,20.2,17.3,20,17.2z M12.5,9.1l2.8,1.6l-2.8,1.6V9.1z M12.5,17.2v-3.3
			l2.8,1.6L12.5,17.2z M15.8,14.8L13,13.2l2.8-1.6V14.8z"/>
	</g>
</g>
</svg>
