<?xml version="1.0" encoding="utf-8"?>
<!-- Generator: Adobe Illustrator 16.0.0, SVG Export Plug-In . SVG Version: 6.00 Build 0)  -->
<!DOCTYPE svg PUBLIC "-//W3C//DTD SVG 1.1//EN" "http://www.w3.org/Graphics/SVG/1.1/DTD/svg11.dtd">
<svg version="1.1" id="Layer_1" xmlns="http://www.w3.org/2000/svg" xmlns:xlink="http://www.w3.org/1999/xlink" x="0px" y="0px"
	 width="64px" height="64px" viewBox="0 0 64 64" enable-background="new 0 0 64 64" xml:space="preserve">
<g>
	<g>
		<g>
			<path fill="#600830" d="M57.9,45.7c0,0.1,0.1,0.3,0.3,0.3l0,0c0.1,0,0.3-0.1,0.3-0.3V32.4c0-0.2-0.1-0.3-0.3-0.3l0,0
				c-0.2,0-0.3,0.1-0.3,0.3V45.7z"/>
			<path fill="#600830" d="M54.9,45.9c0,0.2,0.1,0.3,0.3,0.3l0,0c0.1,0,0.3-0.1,0.3-0.3V31.7c0-0.2-0.1-0.3-0.3-0.3l0,0
				c-0.2,0-0.3,0.1-0.3,0.3V45.9z"/>
			<path fill="#600830" d="M51.8,45.9c0,0.2,0.1,0.3,0.3,0.3l0,0c0.2,0,0.3-0.1,0.3-0.3v-15c0-0.2-0.1-0.3-0.3-0.3l0,0
				c-0.1,0-0.3,0.1-0.3,0.3V45.9z"/>
			<path fill="#600830" d="M48.7,45.9c0,0.2,0.1,0.3,0.3,0.3l0,0c0.2,0,0.3-0.1,0.3-0.3V28.2c0-0.2-0.1-0.3-0.3-0.3l0,0
				c-0.1,0-0.3,0.1-0.3,0.3V45.9z"/>
			<path fill="#600830" d="M45.6,45.9c0,0.2,0.1,0.3,0.3,0.3l0,0c0.1,0,0.3-0.1,0.3-0.3V23c0-0.2-0.1-0.3-0.3-0.3l0,0
				c-0.2,0-0.3,0.1-0.3,0.3V45.9z"/>
			<g>
				<path fill="#600830" d="M61.2,45.9c0,0.2-0.1,0.3-0.3,0.3l0,0c-0.2,0-0.3-0.1-0.3-0.3V31.7c0-0.2,0.1-0.3,0.3-0.3l0,0
					c0.1,0,0.3,0.1,0.3,0.3V45.9z"/>
			</g>
		</g>
		<g>
			<g>
				<path fill="#600830" d="M27.5,32.6c-8.4,0-15.3-9.6-15.3-21.3c0-0.2,0.2-0.4,0.4-0.4s0.4,0.2,0.4,0.4c0,11.3,6.5,20.4,14.4,20.4
					c8,0,14.4-9.2,14.4-20.4c0-0.2,0.2-0.4,0.4-0.4c0.2,0,0.4,0.2,0.4,0.4C42.8,23.1,35.9,32.6,27.5,32.6z"/>
			</g>
			<path fill="#600830" d="M27.2,45.7c0,0.1,0.1,0.3,0.3,0.3l0,0c0.1,0,0.3-0.1,0.3-0.3V32.4c0-0.2-0.1-0.3-0.3-0.3l0,0
				c-0.2,0-0.3,0.1-0.3,0.3V45.7z"/>
			<path fill="#600830" d="M24.3,45.9c0,0.2,0.1,0.3,0.3,0.3l0,0c0.2,0,0.3-0.1,0.3-0.3V31.7c0-0.2-0.1-0.3-0.3-0.3l0,0
				c-0.1,0-0.3,0.1-0.3,0.3V45.9z"/>
			<path fill="#600830" d="M21.1,45.9c0,0.2,0.1,0.3,0.3,0.3l0,0c0.2,0,0.3-0.1,0.3-0.3v-15c0-0.2-0.1-0.3-0.3-0.3l0,0
				c-0.1,0-0.3,0.1-0.3,0.3V45.9z"/>
			<path fill="#600830" d="M18,45.9c0,0.2,0.1,0.3,0.3,0.3l0,0c0.1,0,0.3-0.1,0.3-0.3V28.2c0-0.2-0.1-0.3-0.3-0.3l0,0
				c-0.2,0-0.3,0.1-0.3,0.3V45.9z"/>
			<path fill="#600830" d="M14.9,45.9c0,0.2,0.1,0.3,0.3,0.3l0,0c0.1,0,0.3-0.1,0.3-0.3V23c0-0.2-0.1-0.3-0.3-0.3l0,0
				c-0.2,0-0.3,0.1-0.3,0.3V45.9z"/>
			<g>
				<path fill="#600830" d="M30.5,45.9c0,0.2-0.1,0.3-0.3,0.3l0,0c-0.1,0-0.3-0.1-0.3-0.3V31.7c0-0.2,0.1-0.3,0.3-0.3l0,0
					c0.2,0,0.3,0.1,0.3,0.3V45.9z"/>
				<path fill="#600830" d="M33.7,45.9c0,0.2-0.1,0.3-0.3,0.3l0,0c-0.2,0-0.3-0.1-0.3-0.3v-15c0-0.2,0.1-0.3,0.3-0.3l0,0
					c0.1,0,0.3,0.1,0.3,0.3V45.9z"/>
				<path fill="#600830" d="M36.8,45.9c0,0.2-0.1,0.3-0.3,0.3l0,0c-0.1,0-0.3-0.1-0.3-0.3V28.2c0-0.2,0.1-0.3,0.3-0.3l0,0
					c0.1,0,0.3,0.1,0.3,0.3V45.9z"/>
				<path fill="#600830" d="M39.9,45.9c0,0.2-0.1,0.3-0.3,0.3l0,0c-0.1,0-0.3-0.1-0.3-0.3V23c0-0.2,0.1-0.3,0.3-0.3l0,0
					c0.2,0,0.3,0.1,0.3,0.3V45.9z"/>
			</g>
		</g>
		<g>
			<path fill="#E20A48" d="M43.8,52.2c0,0.5-0.4,0.9-0.9,0.9h-0.3c-0.5,0-0.9-0.4-0.9-0.9V6.3c0-0.5,0.4-0.9,0.9-0.9h0.3
				c0.5,0,0.9,0.4,0.9,0.9V52.2z"/>
			<path fill="#AA0B48" d="M43.8,6.3v45.9c0,0.5-0.4,0.9-0.9,0.9h-0.3c-0.5,0-0.9-0.4-0.9-0.9"/>
			<path fill="#EF114B" d="M44.2,5.8c0,0.5-0.4,0.8-0.8,0.8h-1.3c-0.5,0-0.8-0.4-0.8-0.8l0,0c0-0.5,0.4-0.8,0.8-0.8h1.3
				C43.8,4.9,44.2,5.3,44.2,5.8L44.2,5.8z"/>
			<path fill="#AA0B48" d="M44.1,56.9v-4.1c0-0.5-0.4-0.9-0.9-0.9h-0.9c-0.5,0-0.9,0.4-0.9,0.9v4.1H44.1z"/>
		</g>
		<g>
			<path fill="#E20A48" d="M13.1,52.2c0,0.5-0.4,0.9-0.9,0.9h-0.3c-0.5,0-0.9-0.4-0.9-0.9V6.3c0-0.5,0.4-0.9,0.9-0.9h0.3
				c0.5,0,0.9,0.4,0.9,0.9V52.2z"/>
			<path fill="#AA0B48" d="M13.1,6.3v45.9c0,0.5-0.4,0.9-0.9,0.9h-0.3c-0.5,0-0.9-0.4-0.9-0.9"/>
			<path fill="#EF114B" d="M13.6,5.8c0,0.5-0.4,0.8-0.8,0.8h-1.3c-0.5,0-0.8-0.4-0.8-0.8l0,0c0-0.5,0.4-0.8,0.8-0.8h1.3
				C13.2,4.9,13.6,5.3,13.6,5.8L13.6,5.8z"/>
			<path fill="#AA0B48" d="M13.4,56.9v-4.1c0-0.5-0.4-0.9-0.9-0.9h-0.9c-0.5,0-0.9,0.4-0.9,0.9v4.1H13.4z"/>
		</g>
		<g>
			<path fill="#600830" d="M51.5,46.8c0,0.5-0.4,0.9-0.9,0.9H1.4c-0.5,0-0.9-0.4-0.9-0.9v-1.3c0-0.5,0.4-0.9,0.9-0.9h49.3
				c0.5,0,0.9,0.4,0.9,0.9V46.8z"/>
			<path fill="#600830" d="M63.5,46.8c0,0.5-0.4,0.9-0.9,0.9H13.4c-0.5,0-0.9-0.4-0.9-0.9v-1.3c0-0.5,0.4-0.9,0.9-0.9h49.3
				c0.5,0,0.9,0.4,0.9,0.9V46.8z"/>
		</g>
		<path fill="#AA0B48" d="M22.6,10.2c0,0.4-0.3,0.7-0.7,0.7h-8.8c-0.4,0-0.7-0.3-0.7-0.7l0,0c0-0.4,0.3-0.7,0.7-0.7h8.8
			C22.3,9.5,22.6,9.8,22.6,10.2L22.6,10.2z"/>
		<path fill="#AA0B48" d="M22.6,16.9c0,0.4-0.3,0.7-0.7,0.7h-8.8c-0.4,0-0.7-0.3-0.7-0.7l0,0c0-0.4,0.3-0.7,0.7-0.7h8.8
			C22.3,16.2,22.6,16.5,22.6,16.9L22.6,16.9z"/>
		<path fill="#AA0B48" d="M22.6,23.5c0,0.4-0.3,0.7-0.7,0.7h-8.8c-0.4,0-0.7-0.3-0.7-0.7l0,0c0-0.4,0.3-0.7,0.7-0.7h8.8
			C22.3,22.8,22.6,23.1,22.6,23.5L22.6,23.5z"/>
		<path fill="#AA0B48" d="M53.3,10.2c0,0.4-0.3,0.7-0.7,0.7h-8.8c-0.4,0-0.7-0.3-0.7-0.7l0,0c0-0.4,0.3-0.7,0.7-0.7h8.8
			C52.9,9.5,53.3,9.8,53.3,10.2L53.3,10.2z"/>
		<path fill="#AA0B48" d="M53.3,16.9c0,0.4-0.3,0.7-0.7,0.7h-8.8c-0.4,0-0.7-0.3-0.7-0.7l0,0c0-0.4,0.3-0.7,0.7-0.7h8.8
			C52.9,16.2,53.3,16.5,53.3,16.9L53.3,16.9z"/>
		<g>
			<path fill="#FC8697" d="M62.5,45.9c0,0.2,0.1,0.3,0.3,0.3l0,0c0.2,0,0.3-0.1,0.3-0.3v-15c0-0.2-0.1-0.3-0.3-0.3l0,0
				c-0.1,0-0.3,0.1-0.3,0.3V45.9z"/>
			<path fill="#FC8697" d="M59.4,45.9c0,0.2,0.1,0.3,0.3,0.3l0,0c0.1,0,0.3-0.1,0.3-0.3V28.2c0-0.2-0.1-0.3-0.3-0.3l0,0
				c-0.2,0-0.3,0.1-0.3,0.3V45.9z"/>
			<path fill="#FC8697" d="M56.3,45.9c0,0.2,0.1,0.3,0.3,0.3l0,0c0.2,0,0.3-0.1,0.3-0.3V23c0-0.2-0.1-0.3-0.3-0.3l0,0
				c-0.2,0-0.3,0.1-0.3,0.3V45.9z"/>
		</g>
		<path fill="#AA0B48" d="M53.3,23.5c0,0.4-0.3,0.7-0.7,0.7h-8.8c-0.4,0-0.7-0.3-0.7-0.7l0,0c0-0.4,0.3-0.7,0.7-0.7h8.8
			C52.9,22.8,53.3,23.1,53.3,23.5L53.3,23.5z"/>
		<g>
			<path fill="#E20A48" d="M54.5,52.2c0,0.5-0.4,0.9-0.9,0.9h-0.3c-0.5,0-0.9-0.4-0.9-0.9V6.3c0-0.5,0.4-0.9,0.9-0.9h0.3
				c0.5,0,0.9,0.4,0.9,0.9V52.2z"/>
			<path fill="#FF103E" d="M54.5,6.3v45.9c0,0.5-0.4,0.9-0.9,0.9h-0.3c-0.5,0-0.9-0.4-0.9-0.9"/>
			<path fill="#EF114B" d="M55,5.8c0,0.5-0.4,0.8-0.8,0.8h-1.3c-0.5,0-0.8-0.4-0.8-0.8l0,0c0-0.5,0.4-0.8,0.8-0.8h1.3
				C54.6,4.9,55,5.3,55,5.8L55,5.8z"/>
			<path fill="#FF103E" d="M54.8,56.9v-4.1c0-0.5-0.4-0.9-0.9-0.9H53c-0.5,0-0.9,0.4-0.9,0.9v4.1H54.8z"/>
		</g>
		<rect x="2.2" y="56.5" fill="#56ABD6" width="60.7" height="2.6"/>
		<rect x="2.2" y="57.6" fill="#2D97C1" width="60.7" height="1.5"/>
		<g>
			<g>
				<path fill="#FC8697" d="M38.2,32.6c-8.4,0-15.3-9.6-15.3-21.3c0-0.2,0.2-0.4,0.4-0.4c0.2,0,0.4,0.2,0.4,0.4
					c0,11.3,6.5,20.4,14.4,20.4s14.4-9.2,14.4-20.4c0-0.2,0.2-0.4,0.4-0.4c0.2,0,0.4,0.2,0.4,0.4C53.5,23.1,46.6,32.6,38.2,32.6z"/>
			</g>
			<path fill="#FC8697" d="M37.9,45.7c0,0.1,0.1,0.3,0.3,0.3l0,0c0.2,0,0.3-0.1,0.3-0.3V32.4c0-0.2-0.1-0.3-0.3-0.3l0,0
				c-0.1,0-0.3,0.1-0.3,0.3V45.7z"/>
			<path fill="#FC8697" d="M35,45.9c0,0.2,0.1,0.3,0.3,0.3l0,0c0.2,0,0.3-0.1,0.3-0.3V31.7c0-0.2-0.1-0.3-0.3-0.3l0,0
				c-0.1,0-0.3,0.1-0.3,0.3V45.9z"/>
			<path fill="#FC8697" d="M31.9,45.9c0,0.2,0.1,0.3,0.3,0.3l0,0c0.1,0,0.3-0.1,0.3-0.3v-15c0-0.2-0.1-0.3-0.3-0.3l0,0
				c-0.1,0-0.3,0.1-0.3,0.3V45.9z"/>
			<path fill="#FC8697" d="M28.7,45.9c0,0.2,0.1,0.3,0.3,0.3l0,0c0.2,0,0.3-0.1,0.3-0.3V28.2c0-0.2-0.1-0.3-0.3-0.3l0,0
				c-0.2,0-0.3,0.1-0.3,0.3V45.9z"/>
			<path fill="#FC8697" d="M25.6,45.9c0,0.2,0.1,0.3,0.3,0.3l0,0c0.2,0,0.3-0.1,0.3-0.3V23c0-0.2-0.1-0.3-0.3-0.3l0,0
				c-0.1,0-0.3,0.1-0.3,0.3V45.9z"/>
			<g>
				<path fill="#FC8697" d="M41.3,45.9c0,0.2-0.1,0.3-0.3,0.3l0,0c-0.2,0-0.3-0.1-0.3-0.3V31.7c0-0.2,0.1-0.3,0.3-0.3l0,0
					c0.1,0,0.3,0.1,0.3,0.3V45.9z"/>
				<path fill="#FC8697" d="M44.4,45.9c0,0.2-0.1,0.3-0.3,0.3l0,0c-0.2,0-0.3-0.1-0.3-0.3v-15c0-0.2,0.1-0.3,0.3-0.3l0,0
					c0.2,0,0.3,0.1,0.3,0.3V45.9z"/>
				<path fill="#FC8697" d="M47.5,45.9c0,0.2-0.1,0.3-0.3,0.3l0,0c-0.1,0-0.3-0.1-0.3-0.3V28.2c0-0.2,0.1-0.3,0.3-0.3l0,0
					c0.2,0,0.3,0.1,0.3,0.3V45.9z"/>
				<path fill="#FC8697" d="M50.6,45.9c0,0.2-0.1,0.3-0.3,0.3l0,0c-0.1,0-0.3-0.1-0.3-0.3V23c0-0.2,0.1-0.3,0.3-0.3l0,0
					c0.2,0,0.3,0.1,0.3,0.3V45.9z"/>
			</g>
		</g>
		<g>
			<path fill="#600830" d="M3.2,45.9c0,0.2-0.1,0.3-0.3,0.3l0,0c-0.2,0-0.3-0.1-0.3-0.3v-15c0-0.2,0.1-0.3,0.3-0.3l0,0
				c0.1,0,0.3,0.1,0.3,0.3V45.9z"/>
			<path fill="#600830" d="M6.3,45.9c0,0.2-0.1,0.3-0.3,0.3l0,0c-0.1,0-0.3-0.1-0.3-0.3V28.2c0-0.2,0.1-0.3,0.3-0.3l0,0
				c0.1,0,0.3,0.1,0.3,0.3V45.9z"/>
			<path fill="#600830" d="M9.4,45.9c0,0.2-0.1,0.3-0.3,0.3l0,0c-0.1,0-0.3-0.1-0.3-0.3V23c0-0.2,0.1-0.3,0.3-0.3l0,0
				c0.2,0,0.3,0.1,0.3,0.3V45.9z"/>
		</g>
		<g>
			<path fill="#FC8697" d="M7.4,45.7c0,0.1,0.1,0.3,0.3,0.3l0,0C7.8,46,8,45.8,8,45.7V32.4c0-0.2-0.1-0.3-0.3-0.3l0,0
				c-0.1,0-0.3,0.1-0.3,0.3V45.7z"/>
			<path fill="#FC8697" d="M4.5,45.9c0,0.2,0.1,0.3,0.3,0.3l0,0C4.9,46.1,5,46,5,45.9V31.7c0-0.2-0.1-0.3-0.3-0.3l0,0
				c-0.1,0-0.3,0.1-0.3,0.3V45.9z"/>
			<g>
				<path fill="#FC8697" d="M10.8,45.9c0,0.2-0.1,0.3-0.3,0.3l0,0c-0.2,0-0.3-0.1-0.3-0.3V31.7c0-0.2,0.1-0.3,0.3-0.3l0,0
					c0.1,0,0.3,0.1,0.3,0.3V45.9z"/>
				<path fill="#FC8697" d="M13.9,45.9c0,0.2-0.1,0.3-0.3,0.3l0,0c-0.2,0-0.3-0.1-0.3-0.3v-15c0-0.2,0.1-0.3,0.3-0.3l0,0
					c0.2,0,0.3,0.1,0.3,0.3V45.9z"/>
				<path fill="#FC8697" d="M17,45.9c0,0.2-0.1,0.3-0.3,0.3l0,0c-0.1,0-0.3-0.1-0.3-0.3V28.2c0-0.2,0.1-0.3,0.3-0.3l0,0
					c0.2,0,0.3,0.1,0.3,0.3V45.9z"/>
				<path fill="#FC8697" d="M20.1,45.9c0,0.2-0.1,0.3-0.3,0.3l0,0c-0.1,0-0.3-0.1-0.3-0.3V23c0-0.2,0.1-0.3,0.3-0.3l0,0
					c0.2,0,0.3,0.1,0.3,0.3V45.9z"/>
			</g>
		</g>
		<g>
			<path fill="#E20A48" d="M23.9,52.2c0,0.5-0.4,0.9-0.9,0.9h-0.3c-0.5,0-0.9-0.4-0.9-0.9V6.3c0-0.5,0.4-0.9,0.9-0.9H23
				c0.5,0,0.9,0.4,0.9,0.9V52.2z"/>
			<path fill="#FF103E" d="M23.9,6.3v45.9c0,0.5-0.4,0.9-0.9,0.9h-0.3c-0.5,0-0.9-0.4-0.9-0.9"/>
			<path fill="#EF114B" d="M24.3,5.8c0,0.5-0.4,0.8-0.8,0.8h-1.3c-0.5,0-0.8-0.4-0.8-0.8l0,0c0-0.5,0.4-0.8,0.8-0.8h1.3
				C23.9,4.9,24.3,5.3,24.3,5.8L24.3,5.8z"/>
			<path fill="#FF103E" d="M24.2,56.9v-4.1c0-0.5-0.4-0.9-0.9-0.9h-0.9c-0.5,0-0.9,0.4-0.9,0.9v4.1H24.2z"/>
		</g>
	</g>
	<path fill="#600830" d="M11.8,10.9c-0.2,0-0.4,0.2-0.4,0.4c0,9.5-4.6,17.4-10.8,19.7V32c6.7-2.3,11.6-10.7,11.6-20.7
		C12.3,11.1,12.1,10.9,11.8,10.9z"/>
	<path fill="#FC8697" d="M22.6,10.9c-0.2,0-0.4,0.2-0.4,0.4c0,11.3-6.5,20.4-14.4,20.4c-2.6,0-5-1-7-2.6v1.1c2.1,1.5,4.5,2.4,7,2.4
		c8.4,0,15.3-9.6,15.3-21.3C23,11.1,22.8,10.9,22.6,10.9z"/>
	<path fill="#600830" d="M62.8,30.6c-1.5,0.7-3,1.1-4.7,1.1c-8,0-14.4-9.2-14.4-20.4c0-0.2-0.2-0.4-0.4-0.4c-0.2,0-0.4,0.2-0.4,0.4
		c0,11.7,6.9,21.3,15.3,21.3c1.6,0,3.2-0.4,4.7-1V30.6z"/>
	<path fill="#FC8697" d="M62.8,29.8c-4.9-3.3-8.4-10.3-8.4-18.5c0-0.2-0.2-0.4-0.4-0.4c-0.2,0-0.4,0.2-0.4,0.4
		c0,8.7,3.8,16.3,9.2,19.5V29.8z"/>
</g>
</svg>
