<?xml version="1.0" encoding="utf-8"?>
<!-- Generator: Adobe Illustrator 16.0.0, SVG Export Plug-In . SVG Version: 6.00 Build 0)  -->
<!DOCTYPE svg PUBLIC "-//W3C//DTD SVG 1.1//EN" "http://www.w3.org/Graphics/SVG/1.1/DTD/svg11.dtd">
<svg version="1.1" id="Layer_1" xmlns="http://www.w3.org/2000/svg" xmlns:xlink="http://www.w3.org/1999/xlink" x="0px" y="0px"
	 width="64px" height="64px" viewBox="0 0 64 64" enable-background="new 0 0 64 64" xml:space="preserve">
<g>
	<polygon fill="#C2D39F" points="38.8,38.9 42.4,42.6 47.6,37.4 50.8,35.7 63,35.9 63,63.2 35.9,63.2 	"/>
	<polygon fill="#A4B776" points="38.8,38.9 42.4,42.6 45.1,46.5 50.8,35.7 63,35.9 63,63.2 35.9,63.2 	"/>
	<polygon fill="#8DA053" points="38.8,38.9 42.4,42.6 51,55.4 50.8,35.7 63,35.9 63,63.2 35.9,63.2 	"/>
	<g>
		<g>
			<polygon fill="#667F73" points="52,22.9 52,25.2 49.7,25.2 49.7,22.9 48.1,22.9 48.1,25.2 45.8,25.2 45.8,22.9 44.2,22.9 
				44.2,25.2 41.9,25.2 41.9,22.9 33.5,22.9 33.5,34.2 53.2,34.2 53.2,22.9 			"/>
			<rect x="10.1" y="23.8" fill="#667F73" width="23.3" height="21.3"/>
			<polyline fill="#495E54" points="10.1,23.8 33.4,23.8 33.4,45.1 			"/>
			<polygon fill="#B7CEC3" points="29,0.8 29,11.7 27,11.7 27,0.8 16.3,0.8 16.3,11.7 14.3,11.7 14.3,0.8 3.5,0.8 3.5,60.5 
				14.3,50.5 14.3,29 16.3,29 27,29 29,29 29,50.5 39.8,60.5 39.8,0.8 			"/>
			<polygon fill="#9AB7AB" points="29,11.7 29,13.2 27,13.2 27,11.7 27,2.3 16.3,2.3 16.3,11.7 16.3,13.2 14.3,13.2 14.3,11.7 
				14.3,2.3 3.5,2.3 3.5,60.5 14.3,50.5 14.3,30.5 14.3,29 16.3,29 27,29 29,29 29,30.5 29,50.5 39.8,60.5 39.8,2.3 29,2.3 			"/>
			<polyline fill="#8FAA9E" points="14.3,50.5 14.3,30.5 14.3,29 16.3,29 27,29 29,29 29,30.5 29,50.5 39.8,60.5 39.8,2.3 29,2.3 
				29,11.7 29,13.2 27,13.2 27,11.7 27,2.3 16.3,2.3 16.3,11.7 16.3,13.2 14.3,13.2 14.3,11.7 14.3,2.3 3.5,2.3 			"/>
			<polygon fill="#B8D1C6" points="42.4,63.2 1,63.2 14.1,40.6 29.4,40.6 			"/>
			<polygon fill="#9EBAAD" points="35.8,63.2 7.7,63.2 16.6,40.6 26.9,40.6 			"/>
			<polygon fill="#B8D1C6" points="29.8,63.2 13.6,63.2 18.7,40.6 24.7,40.6 			"/>
			<polyline fill="#C1D3C9" points="24.7,40.6 29.8,63.2 13.6,63.2 			"/>
			<rect x="16.8" y="39.6" fill="#667F73" width="9.8" height="8.8"/>
			<polygon fill="#667F73" points="62.2,34.5 62.2,17.2 62.2,16.7 58.9,16.7 58.9,17.2 58.9,20.1 58.3,20.1 58.3,17.2 58.3,16.7 
				54.9,16.7 54.9,17.2 54.9,20.1 54.3,20.1 54.3,17.2 54.3,16.7 51,16.7 51,17.2 51,34.6 50.3,35.9 52.3,35.9 54.1,35.9 59.1,35.9 
				60.9,35.9 63,35.9 			"/>
		</g>
		<g>
			<path fill="#9EBAAD" d="M11.4,16.3C11.4,16.4,11.4,16.4,11.4,16.3l-5.7,0.1c-0.1,0-0.1,0-0.1-0.1v-1.8c0-0.1,0-0.1,0.1-0.1h5.6
				c0.1,0,0.1,0,0.1,0.1V16.3z"/>
			<path fill="#9EBAAD" d="M18,16.3C18,16.4,17.9,16.4,18,16.3l-5.7,0.1c-0.1,0-0.1,0-0.1-0.1v-1.8c0-0.1,0-0.1,0.1-0.1h5.6
				c0.1,0,0.1,0,0.1,0.1V16.3z"/>
			<path fill="#9EBAAD" d="M24.5,16.3C24.5,16.4,24.5,16.4,24.5,16.3l-5.7,0.1c-0.1,0-0.1,0-0.1-0.1v-1.8c0-0.1,0-0.1,0.1-0.1h5.6
				c0.1,0,0.1,0,0.1,0.1V16.3z"/>
			<path fill="#9EBAAD" d="M31.1,16.3C31.1,16.4,31,16.4,31.1,16.3l-5.7,0.1c-0.1,0-0.1,0-0.1-0.1v-1.8c0-0.1,0-0.1,0.1-0.1H31
				c0.1,0,0.1,0,0.1,0.1V16.3z"/>
			<path fill="#9EBAAD" d="M37.6,16.3C37.6,16.4,37.6,16.4,37.6,16.3l-5.7,0.1c-0.1,0-0.1,0-0.1-0.1v-1.8c0-0.1,0-0.1,0.1-0.1h5.6
				c0.1,0,0.1,0,0.1,0.1V16.3z"/>
		</g>
		<g>
			<path fill="#9EBAAD" d="M14.7,19.1C14.7,19.2,14.7,19.2,14.7,19.1L9,19.2c-0.1,0-0.1,0-0.1-0.1v-1.8c0-0.1,0-0.1,0.1-0.1h5.6
				c0.1,0,0.1,0,0.1,0.1V19.1z"/>
			<path fill="#9EBAAD" d="M21.2,19.1C21.2,19.2,21.2,19.2,21.2,19.1l-5.7,0.1c-0.1,0-0.1,0-0.1-0.1v-1.8c0-0.1,0-0.1,0.1-0.1h5.6
				c0.1,0,0.1,0,0.1,0.1V19.1z"/>
			<path fill="#9EBAAD" d="M27.8,19.1C27.8,19.2,27.7,19.2,27.8,19.1l-5.7,0.1c-0.1,0-0.1,0-0.1-0.1v-1.8c0-0.1,0-0.1,0.1-0.1h5.6
				c0.1,0,0.1,0,0.1,0.1V19.1z"/>
			<path fill="#9EBAAD" d="M34.3,19.1C34.3,19.2,34.3,19.2,34.3,19.1l-5.7,0.1c-0.1,0-0.1,0-0.1-0.1v-1.8c0-0.1,0-0.1,0.1-0.1h5.6
				c0.1,0,0.1,0,0.1,0.1V19.1z"/>
		</g>
		<g>
			<path fill="#9EBAAD" d="M11.4,22.1C11.4,22.2,11.4,22.2,11.4,22.1l-5.7,0.1c-0.1,0-0.1,0-0.1-0.1v-1.8c0-0.1,0-0.1,0.1-0.1h5.6
				c0.1,0,0.1,0,0.1,0.1V22.1z"/>
			<path fill="#9EBAAD" d="M18,22.1C18,22.2,17.9,22.2,18,22.1l-5.7,0.1c-0.1,0-0.1,0-0.1-0.1v-1.8c0-0.1,0-0.1,0.1-0.1h5.6
				c0.1,0,0.1,0,0.1,0.1V22.1z"/>
			<path fill="#9EBAAD" d="M24.5,22.1C24.5,22.2,24.5,22.2,24.5,22.1l-5.7,0.1c-0.1,0-0.1,0-0.1-0.1v-1.8c0-0.1,0-0.1,0.1-0.1h5.6
				c0.1,0,0.1,0,0.1,0.1V22.1z"/>
			<path fill="#9EBAAD" d="M31.1,22.1C31.1,22.2,31,22.2,31.1,22.1l-5.7,0.1c-0.1,0-0.1,0-0.1-0.1v-1.8c0-0.1,0-0.1,0.1-0.1H31
				c0.1,0,0.1,0,0.1,0.1V22.1z"/>
			<path fill="#9EBAAD" d="M37.6,22.1C37.6,22.2,37.6,22.2,37.6,22.1l-5.7,0.1c-0.1,0-0.1,0-0.1-0.1v-1.8c0-0.1,0-0.1,0.1-0.1h5.6
				c0.1,0,0.1,0,0.1,0.1V22.1z"/>
		</g>
		<g>
			<path fill="#9EBAAD" d="M14.7,24.9C14.7,25,14.7,25,14.7,24.9L9,25C9,25,9,25,9,24.9v-1.8C9,23.1,9,23,9,23h5.6
				c0.1,0,0.1,0,0.1,0.1V24.9z"/>
			<path fill="#9EBAAD" d="M21.2,24.9C21.2,25,21.2,25,21.2,24.9L15.6,25c-0.1,0-0.1,0-0.1-0.1v-1.8c0-0.1,0-0.1,0.1-0.1h5.6
				c0.1,0,0.1,0,0.1,0.1V24.9z"/>
			<path fill="#9EBAAD" d="M27.8,24.9C27.8,25,27.7,25,27.8,24.9L22.1,25c-0.1,0-0.1,0-0.1-0.1v-1.8c0-0.1,0-0.1,0.1-0.1h5.6
				c0.1,0,0.1,0,0.1,0.1V24.9z"/>
		</g>
		<g>
			<path fill="#9EBAAD" d="M11.4,27.9C11.4,28,11.4,28,11.4,27.9L5.8,28c-0.1,0-0.1,0-0.1-0.1v-1.8c0-0.1,0-0.1,0.1-0.1h5.6
				c0.1,0,0.1,0,0.1,0.1V27.9z"/>
			<path fill="#9EBAAD" d="M18,27.9C18,28,17.9,28,18,27.9L12.3,28c-0.1,0-0.1,0-0.1-0.1v-1.8c0-0.1,0-0.1,0.1-0.1h5.6
				c0.1,0,0.1,0,0.1,0.1V27.9z"/>
			<path fill="#9EBAAD" d="M24.5,27.9C24.5,28,24.5,28,24.5,27.9L18.9,28c-0.1,0-0.1,0-0.1-0.1v-1.8c0-0.1,0-0.1,0.1-0.1h5.6
				c0.1,0,0.1,0,0.1,0.1V27.9z"/>
			<path fill="#9EBAAD" d="M31.1,27.9C31.1,28,31,28,31.1,27.9L25.4,28c-0.1,0-0.1,0-0.1-0.1v-1.8c0-0.1,0-0.1,0.1-0.1H31
				c0.1,0,0.1,0,0.1,0.1V27.9z"/>
			<path fill="#9EBAAD" d="M37.6,27.9C37.6,28,37.6,28,37.6,27.9L31.9,28c-0.1,0-0.1,0-0.1-0.1v-1.8c0-0.1,0-0.1,0.1-0.1h5.6
				c0.1,0,0.1,0,0.1,0.1V27.9z"/>
		</g>
	</g>
</g>
</svg>
