<?xml version="1.0" encoding="utf-8"?>
<!-- Generator: Adobe Illustrator 16.0.0, SVG Export Plug-In . SVG Version: 6.00 Build 0)  -->
<!DOCTYPE svg PUBLIC "-//W3C//DTD SVG 1.1//EN" "http://www.w3.org/Graphics/SVG/1.1/DTD/svg11.dtd">
<svg version="1.1" id="Layer_1" xmlns="http://www.w3.org/2000/svg" xmlns:xlink="http://www.w3.org/1999/xlink" x="0px" y="0px"
	 width="64px" height="64px" viewBox="0 0 64 64" enable-background="new 0 0 64 64" xml:space="preserve">
<g>
	<polygon fill="#C4E8F7" points="62,54 62,52 61.3,52 61.3,51 59.8,51 59.8,52.4 58.5,52.4 58.5,53.4 54.1,53.4 54.1,52.4 
		52.5,52.4 52.5,53.8 48.3,53.8 48.3,52.5 47.7,52.5 47.7,52.4 46.5,52.4 46.5,51.9 46.5,51.9 46.5,50.6 45.2,50.6 45.2,51.9 
		45,51.9 45,52.8 43.8,52.8 43.8,52.5 43,52.5 43,52.7 42.4,52.7 42.4,52.7 42.2,52.7 42.2,48.3 39.6,48.3 39.6,52.7 39.2,52.7 
		39.2,53.2 37,53.2 37,52.7 36.3,52.7 36.3,52 35.5,52 35.5,52.5 35.2,52.5 35.2,54 35.1,54 35.1,58 63,58 63,54 	"/>
	<g>
		<rect x="1" y="56.8" fill="#4DBBFF" width="62" height="6.2"/>
		<rect x="1" y="57.5" fill="#80D5FF" width="62" height="0.6"/>
		<rect x="1" y="59.3" fill="#80D5FF" width="62" height="0.6"/>
		<rect x="1" y="61.1" fill="#80D5FF" width="62" height="0.6"/>
		<g>
			<path fill="#057A5E" d="M38.1,60.4c0,0.5-0.4,1-1,1H26.8c-0.5,0-1-0.4-1-1v-5.7c0-0.5,0.4-1,1-1h10.3c0.5,0,1,0.4,1,1V60.4z"/>
			<path fill="#085B45" d="M25.9,54.7c0-0.5,0.4-1,1-1h10.3c0.5,0,1,0.4,1,1v5.7c0,0.5-0.4,1-1,1"/>
			<g>
				<path fill="#0EAD9A" d="M34.5,16.5c0,2.3-1.2,1.8-2.6,1.8c-1.4,0-2.6,0.5-2.6-1.8s1.2-4.1,2.6-4.1
					C33.4,12.4,34.5,14.2,34.5,16.5z"/>
				<g>
					<path fill="#15CE87" d="M26.9,6.4V1c-0.9,0.2-1.5,1.7-1.5,3.5c0,0.7,0.1,1.3,0.3,1.9H26.9z"/>
					<path fill="#13BC9C" d="M26.8,6.4V1c0.9,0.2,1.5,1.7,1.5,3.5c0,0.7-0.1,1.3-0.3,1.9H26.8z"/>
				</g>
				
					<rect x="34" y="22.4" transform="matrix(0.9082 0.4186 -0.4186 0.9082 14.1828 -12.8422)" fill="#3AE8A6" width="4.7" height="7"/>
				<polygon fill="#0EC196" points="37,30.1 32.8,28.1 35.7,21.7 39.1,23.8 				"/>
				<g>
					<path fill="#1DD894" d="M36.1,19.1c0,0,1.1,1.6,2.8,2.8c0.1,0.1,1.9,1.2,0.5,1.7c-0.4,0.1-0.5,0.7,0,1.2c1.4,1.5-1,1.7-1.8,2.3
						c-0.8,0.7,0.2,1.2-0.6,1.8c-0.8,0.5-2.2-1.2-2.2-1.2l0.9-8.2L36.1,19.1z"/>
					<path fill="#15CE87" d="M39.3,23.6c-0.4,0.1-0.5,0.7,0,1.2c1.4,1.5-1,1.7-1.8,2.3c-0.8,0.7,0.2,1.2-0.6,1.8
						c-0.8,0.5-2.2-1.2-2.2-1.2l0.9-8.2l0.5-0.4"/>
					<path fill="#0EC196" d="M37.5,27.1c-0.8,0.7,0.2,1.2-0.6,1.8c-0.8,0.5-2.2-1.2-2.2-1.2l0.9-8.2l0.5-0.4"/>
					
						<rect x="34" y="22.4" transform="matrix(0.9082 0.4186 -0.4186 0.9082 14.1828 -12.8422)" fill="#3AE8A6" width="4.7" height="7"/>
					<polygon fill="#15CE87" points="37,30.1 32.8,28.1 35.7,21.7 39.1,23.8 					"/>
				</g>
				<polygon fill="#13BC9C" points="33.6,20.4 30.3,20.4 31.1,16.6 32.8,16.6 				"/>
				<path fill="#1DD894" d="M38.9,26.8c0.1,0.1,0.2,0.2,0.1,0.4l-0.7,1.5c-0.1,0.1-0.2,0.2-0.4,0.1l-0.8-0.4
					c-0.1-0.1-0.2-0.2-0.1-0.4l0.7-1.5c0.1-0.1,0.3-0.2,0.4-0.1L38.9,26.8z"/>
				<path fill="#13BC9C" d="M28.4,23.1c0,0.5-0.4,0.9-0.9,0.9l-1,0c-0.5,0-0.9-0.4-0.9-0.9l-0.2-6.6c0-0.5,0.4-0.9,0.9-0.9l1,0
					c0.5,0,0.9,0.4,0.9,0.9L28.4,23.1z"/>
				<g>
					<path fill="#1DD894" d="M27.8,19.1c0,0-1.1,1.6-2.8,2.8c-0.1,0.1-1.9,1.2-0.5,1.7c0.4,0.1,0.5,0.7,0,1.2
						c-1.4,1.5,1,1.7,1.8,2.3c0.8,0.7-0.2,1.2,0.6,1.8c0.8,0.5,2.2-1.2,2.2-1.2l-0.9-8.2L27.8,19.1z"/>
					<path fill="#15CE87" d="M24.6,23.6c0.4,0.1,0.5,0.7,0,1.2c-1.4,1.5,1,1.7,1.8,2.3c0.8,0.7-0.2,1.2,0.6,1.8
						c0.8,0.5,2.2-1.2,2.2-1.2l-0.9-8.2l-0.5-0.4"/>
					<path fill="#0EC196" d="M26.4,27.1c0.8,0.7-0.2,1.2,0.6,1.8c0.8,0.5,2.2-1.2,2.2-1.2l-0.9-8.2l-0.5-0.4"/>
				</g>
				<path fill="#0EC196" d="M37.7,53.9c0,0.4-0.3,0.7-0.7,0.7H26.9c-0.4,0-0.7-0.3-0.7-0.7l1.4-25.5c0-0.4,0.3-0.7,0.7-0.7h7.3
					c0.4,0,0.7,0.3,0.7,0.7L37.7,53.9z"/>
				<path fill="#0FB293" d="M26.7,43.2l-0.4,6.8l4.5,4.5H37c0.4,0,0.7-0.3,0.7-0.7l-0.3-5.3l-8-8L26.7,43.2z"/>
				<path fill="#13BC9C" d="M27.6,28.4c0-0.4,0.3-0.7,0.7-0.7h7.3c0.4,0,0.7,0.3,0.7,0.7l1.4,25.5c0,0.4-0.3,0.7-0.7,0.7"/>
				<path fill="#1DD894" d="M38.7,49.3c0,0.5-0.4,0.8-0.8,0.8H26c-0.5,0-0.8-0.4-0.8-0.8l2.5-29.8c0-0.5,0.4-0.8,0.8-0.8h6.9
					c0.5,0,0.8,0.4,0.8,0.8L38.7,49.3z"/>
				<path fill="#15CE87" d="M27.7,19.6c0-0.5,0.4-0.8,0.8-0.8h6.9c0.5,0,0.8,0.4,0.8,0.8l2.5,29.8c0,0.5-0.4,0.8-0.8,0.8h-6.4"/>
				<path fill="#79F2C1" d="M26,50.1c-0.5,0-0.8-0.4-0.8-0.8l2.5-29.8c0-0.5,0.4-0.8,0.8-0.8h6.9"/>
				<path fill="#3AE8A6" d="M35.4,18.7h-6.9c-0.5,0-0.8,0.4-0.8,0.8l2.2,17.6L35.4,18.7z"/>
				<path fill="#0EC196" d="M28.5,18.7h6.9c0.5,0,0.8,0.4,0.8,0.8l2.5,29.8c0,0.5-0.4,0.8-0.8,0.8"/>
				<polygon fill="#15CE87" points="35.4,18.7 28.5,18.7 31.9,30.2 				"/>
				<path fill="#1DD894" d="M28.2,16.3c0,0.7-0.6,1.3-1.4,1.3l0,0c-0.8,0-1.4-0.6-1.4-1.3l1-7.8c0-0.7-0.4-1.3,0.4-1.3l0,0
					c0.8,0,0.4,0.6,0.4,1.3L28.2,16.3z"/>
				<path fill="#15CE87" d="M26.4,8.4c0-0.7-0.4-1.3,0.4-1.3l0,0c0.8,0,0.4,0.6,0.4,1.3l1,7.8c0,0.7-0.6,1.3-1.4,1.3l0,0"/>
				<path fill="#3AE8A6" d="M27.9,8.3c0,0.4-0.3,0.8-0.8,0.8h-0.5c-0.4,0-0.8-0.3-0.8-0.8V7.2c0-0.4,0.3-0.8,0.8-0.8h0.5
					c0.4,0,0.8,0.3,0.8,0.8V8.3z"/>
				<path fill="#13BC9C" d="M25.8,7.2c0-0.4,0.3-0.8,0.8-0.8h0.5c0.4,0,0.8,0.3,0.8,0.8v1.2c0,0.4-0.3,0.8-0.8,0.8h-0.5"/>
				<path fill="#1DD894" d="M28.8,6.5c0,0.2-0.2,0.4-0.4,0.4h-2.9c-0.2,0-0.4-0.2-0.4-0.4l0,0c0-0.2,0.2-0.4,0.4-0.4h2.9
					C28.6,6.1,28.8,6.3,28.8,6.5L28.8,6.5z"/>
				<path fill="#1DD894" d="M34.1,14.5c0,1.1-1,3.5-2.1,3.5c-1.2,0-2.1-2.5-2.1-3.5c0-1,1-0.5,2.1-0.5C33.1,14,34.1,13.5,34.1,14.5z
					"/>
				<path fill="#15CE87" d="M29.8,14.5c0-1,1-0.5,2.1-0.5c1.2,0,2.1-0.5,2.1,0.5"/>
				<path fill="#13BC9C" d="M31.9,14c1.2,0,2.1-0.5,2.1,0.5c0,1.1-1,3.5-2.1,3.5"/>
				<g>
					<path fill="#13BC9C" d="M34.4,13.9c0,0.2-0.1,0.3-0.3,0.3h-4.3c-0.2,0-0.3-0.1-0.3-0.3l0,0c0-0.2,0.1-0.3,0.3-0.3h4.3
						C34.3,13.6,34.4,13.8,34.4,13.9L34.4,13.9z"/>
					<g>
						<g>
							<g>
								<g>
									<polygon fill="#1DD894" points="30.2,13.2 30.2,13.8 29.5,13.8 28.5,12.1 									"/>
									<polyline fill="#13BC9C" points="28.5,12.1 30.2,13.2 30.2,13.8 									"/>
								</g>
								<g>
									<polygon fill="#1DD894" points="31.2,13.1 31,14 30.2,13.8 29.3,11.4 									"/>
									<polyline fill="#13BC9C" points="29.3,11.4 31.2,13.1 31,14 									"/>
								</g>
								<g>
									<polygon fill="#1DD894" points="32,13.1 31.6,13.9 30.8,13.5 30.7,11 									"/>
									<polyline fill="#13BC9C" points="30.7,11 32,13.1 31.6,13.9 									"/>
								</g>
							</g>
							<g>
								<g>
									<polygon fill="#1DD894" points="33.7,13.2 33.7,13.8 34.4,13.8 35.4,12.1 									"/>
									<polyline fill="#13BC9C" points="35.4,12.1 33.7,13.2 33.7,13.8 									"/>
								</g>
								<g>
									<polygon fill="#1DD894" points="32.7,13.1 32.9,14 33.7,13.8 34.6,11.4 									"/>
									<polyline fill="#13BC9C" points="34.6,11.4 32.7,13.1 32.9,14 									"/>
								</g>
								<g>
									<polygon fill="#1DD894" points="31.9,13.1 32.3,13.9 33.1,13.5 33.2,11 									"/>
									<polyline fill="#13BC9C" points="33.2,11 31.9,13.1 32.3,13.9 									"/>
								</g>
							</g>
						</g>
						<g>
							<polygon fill="#1DD894" points="32.5,13.4 31.9,14 31.3,13.4 31.9,10.9 							"/>
							<polyline fill="#13BC9C" points="31.9,10.9 32.5,13.4 31.9,14 							"/>
						</g>
					</g>
				</g>
				<path fill="#15CE87" d="M38.8,54.4c0,0.2-0.2,0.4-0.4,0.4H25.5c-0.2,0-0.4-0.2-0.4-0.4l0,0c0-0.2,0.2-0.4,0.4-0.4h12.9
					C38.6,54,38.8,54.2,38.8,54.4L38.8,54.4z"/>
			</g>
			<path fill="#085B45" d="M45.6,62c0,0.5-0.4,1-1,1H19.4c-0.5,0-1-0.4-1-1v-0.8c0-0.5,0.4-1,1-1h25.2c0.6,0,1,0.4,1,1V62z"/>
		</g>
	</g>
	<g>
		<path fill="#219352" d="M20.7,54c0,0.2-0.1,0.3-0.3,0.3h-5.7c-0.2,0-0.3-0.1-0.3-0.3v-3.2c0-0.2,0.1-0.3,0.3-0.3h5.7
			c0.2,0,0.3,0.1,0.3,0.3V54z"/>
		<path fill="#42B779" d="M18.6,54v-3.2c0-0.2-0.1-0.3-0.3-0.3h-3.6c-0.2,0-0.3,0.1-0.3,0.3V54c0,0.2,0.1,0.3,0.3,0.3h3.6
			C18.5,54.3,18.6,54.2,18.6,54z"/>
		<path fill="#143647" d="M10,47.6c0,0.1-0.1,0.1-0.1,0.1l0,0c-0.1,0-0.1,0-0.1-0.1v-4.1c0-0.1,0-0.1,0.1-0.1l0,0
			c0.1,0,0.1,0,0.1,0.1V47.6z"/>
		<path fill="#143647" d="M10.5,49.4c0,0.2-0.1,0.3-0.3,0.3H9.6c-0.2,0-0.3-0.1-0.3-0.3v-2.5c0-0.2,0.1-0.3,0.3-0.3h0.7
			c0.2,0,0.3,0.1,0.3,0.3V49.4z"/>
		<path fill="#143647" d="M11.4,53.6c0,0.1-0.1,0.2-0.2,0.2H8.7c-0.1,0-0.2-0.1-0.2-0.2v-6.2c0-0.1,0.1-0.2,0.2-0.2h2.6
			c0.1,0,0.2,0.1,0.2,0.2V53.6z"/>
		<path fill="#1C4859" d="M10.2,53.6v-6.2c0-0.1-0.1-0.2-0.2-0.2H8.7c-0.1,0-0.2,0.1-0.2,0.2v6.2c0,0.1,0.1,0.2,0.2,0.2H10
			C10.1,53.8,10.2,53.7,10.2,53.6z"/>
		<path fill="#92A0A5" d="M13,53.7c0,0.2-0.1,0.3-0.3,0.3H7.2c-0.2,0-0.3-0.1-0.3-0.3v-2.9c0-0.2,0.1-0.3,0.3-0.3h5.4
			c0.2,0,0.3,0.1,0.3,0.3V53.7z"/>
		<path fill="#ACB8BC" d="M7.2,50.5c-0.2,0-0.3,0.1-0.3,0.3v2.8h4.3c0.2,0,0.3-0.1,0.3-0.3v-2.8H7.2z"/>
		<path fill="#458599" d="M11.1,53.3c0,0.2-0.1,0.3-0.3,0.3h-0.3c-0.2,0-0.3-0.1-0.3-0.3v-1.8c0-0.2,0.1-0.3,0.3-0.3h0.3
			c0.2,0,0.3,0.1,0.3,0.3V53.3z"/>
		<g>
			<path fill="#143647" d="M23.1,53.4c-0.1-0.1-0.2-0.2-0.3-0.2H4.9c-0.1,0-0.2,0-0.3,0.1c-0.1,0.1-0.1,0.2-0.1,0.3l1,3.2
				c0,0.1,0.2,0.2,0.3,0.2h15.3c0.1,0,0.2-0.1,0.3-0.2l1.6-3.2C23.1,53.6,23.1,53.5,23.1,53.4z"/>
			<path fill="#0B232D" d="M5.5,56.8c0,0.1,0.2,0.2,0.3,0.2h15.3c0.1,0,0.2-0.1,0.3-0.2l1-1.9H5L5.5,56.8z"/>
			<polygon fill="#E00E0E" points="4.8,54.5 22.7,54.5 22.9,54 4.7,54 			"/>
			<circle fill="#0C91C4" cx="7.2" cy="55.3" r="0.3"/>
			<circle fill="#0C91C4" cx="9.6" cy="55.3" r="0.3"/>
			<circle fill="#0C91C4" cx="12.1" cy="55.3" r="0.3"/>
			<circle fill="#0C91C4" cx="14.5" cy="55.3" r="0.3"/>
			<circle fill="#0C91C4" cx="16.9" cy="55.3" r="0.3"/>
			<circle fill="#0C91C4" cx="19.3" cy="55.3" r="0.3"/>
		</g>
		<path fill="#0C91C4" d="M8,51.8C8,51.8,8,51.8,8,51.8l-0.5,0c0,0,0,0,0,0v-0.5c0,0,0,0,0,0h0.5c0,0,0,0,0,0V51.8z"/>
		<path fill="#0C91C4" d="M8.9,51.8C8.9,51.8,8.9,51.8,8.9,51.8l-0.5,0c0,0,0,0,0,0v-0.5c0,0,0,0,0,0h0.5c0,0,0,0,0,0V51.8z"/>
		<path fill="#0C91C4" d="M9.8,51.8C9.8,51.8,9.8,51.8,9.8,51.8l-0.5,0c0,0,0,0,0,0v-0.5c0,0,0,0,0,0h0.5c0,0,0,0,0,0V51.8z"/>
		<path fill="#143647" d="M11.2,44.5c0,0.1-0.1,0.1-0.1,0.1H8.8c-0.1,0-0.1-0.1-0.1-0.1l0,0c0-0.1,0.1-0.1,0.1-0.1h2.3
			C11.1,44.4,11.2,44.4,11.2,44.5L11.2,44.5z"/>
		<path fill="#143647" d="M11.2,45c0,0.1-0.1,0.1-0.1,0.1H8.8c-0.1,0-0.1-0.1-0.1-0.1l0,0c0-0.1,0.1-0.1,0.1-0.1h2.3
			C11.1,44.9,11.2,44.9,11.2,45L11.2,45z"/>
		<path fill="#143647" d="M11.2,45.4c0,0.1-0.1,0.1-0.1,0.1H8.8c-0.1,0-0.1-0.1-0.1-0.1l0,0c0-0.1,0.1-0.1,0.1-0.1h2.3
			C11.1,45.3,11.2,45.4,11.2,45.4L11.2,45.4z"/>
	</g>
</g>
</svg>
