<?xml version="1.0" encoding="utf-8"?>
<!-- Generator: Adobe Illustrator 16.0.0, SVG Export Plug-In . SVG Version: 6.00 Build 0)  -->
<!DOCTYPE svg PUBLIC "-//W3C//DTD SVG 1.1//EN" "http://www.w3.org/Graphics/SVG/1.1/DTD/svg11.dtd">
<svg version="1.1" id="Layer_1" xmlns="http://www.w3.org/2000/svg" xmlns:xlink="http://www.w3.org/1999/xlink" x="0px" y="0px"
	 width="64px" height="64px" viewBox="0 0 64 64" enable-background="new 0 0 64 64" xml:space="preserve">
<g>
	<polygon fill="#AFCCD3" points="60.8,54.2 60.8,49.8 59.3,49.8 59.3,47.5 55.8,47.5 55.8,50.6 53,50.6 53,52.8 43.1,52.8 
		43.1,50.6 39.7,50.6 39.7,53.6 30.4,53.6 30.4,50.7 29.2,50.7 29.2,50.6 26.4,50.6 26.4,49.5 26.4,49.5 26.4,46.6 23.5,46.6 
		23.5,49.5 23,49.5 23,51.5 20.4,51.5 20.4,50.7 18.7,50.7 18.7,51.2 17.3,51.2 17.3,51.3 16.9,51.3 16.9,41.5 11.1,41.5 11.1,51.2 
		10.2,51.2 10.2,52.4 5.2,52.4 5.2,51.2 3.8,51.2 3.8,49.6 2.1,49.6 2.1,50.8 1.3,50.8 1.3,54.2 1,54.2 1,63 63,63 63,54.2 	"/>
	<g>
		<rect x="25.8" y="38.5" fill="#4A6B75" width="12.4" height="2.8"/>
		<rect x="25.8" y="39.8" fill="#3B555B" width="12.4" height="1.6"/>
		<g>
			<g>
				<g>
					<path fill="#132021" d="M22,7.9c0,0.2-0.1,0.3-0.3,0.3l0,0c-0.2,0-0.3-0.1-0.3-0.3V1.3c0-0.2,0.1-0.3,0.3-0.3l0,0
						C21.9,1,22,1.1,22,1.3V7.9z"/>
					<polygon fill="#31484C" points="17.9,8.2 21.7,6 25.5,8.2 25.5,16.3 21.7,18.5 17.9,16.3 					"/>
					<polyline fill="#426366" points="17.9,16.3 17.9,8.2 21.7,6 					"/>
					<polyline fill="#1F3133" points="21.7,6 25.5,8.2 25.5,16.3 21.7,18.5 					"/>
					<polyline fill="#132021" points="21.7,6 25.5,8.2 25.5,16.3 					"/>
					<g>
						<rect x="17.2" y="13.2" fill="#405F66" width="9.1" height="7.5"/>
						<polyline fill="#31484C" points="17.2,20.6 17.2,13.2 26.3,13.2 						"/>
						<path fill="#638491" d="M26.4,13c0,0.1-0.1,0.2-0.2,0.2h-9c-0.1,0-0.2-0.1-0.2-0.2l0,0c0-0.1,0.1-0.2,0.2-0.2h9
							C26.3,12.8,26.4,12.9,26.4,13L26.4,13z"/>
						<g>
							<path fill="#4A6B75" d="M25.3,14.4c0,0.1-0.1,0.2-0.2,0.2h-6.9c-0.1,0-0.2-0.1-0.2-0.2l0,0c0-0.1,0.1-0.2,0.2-0.2h6.9
								C25.3,14.3,25.3,14.3,25.3,14.4L25.3,14.4z"/>
							<path fill="#4A6B75" d="M25.3,15.9c0,0.1-0.1,0.2-0.2,0.2h-6.9c-0.1,0-0.2-0.1-0.2-0.2l0,0c0-0.1,0.1-0.2,0.2-0.2h6.9
								C25.3,15.7,25.3,15.8,25.3,15.9L25.3,15.9z"/>
							<path fill="#4A6B75" d="M25.3,17.3c0,0.1-0.1,0.2-0.2,0.2h-6.9c-0.1,0-0.2-0.1-0.2-0.2l0,0c0-0.1,0.1-0.2,0.2-0.2h6.9
								C25.3,17.2,25.3,17.3,25.3,17.3L25.3,17.3z"/>
						</g>
					</g>
					<g>
						<rect x="16.4" y="18.8" fill="#3B555B" width="10.6" height="8.7"/>
						<polyline fill="#405F66" points="16.4,27.5 16.4,18.8 27,18.8 						"/>
						<path fill="#638491" d="M27.2,18.6c0,0.1-0.1,0.2-0.2,0.2H16.5c-0.1,0-0.2-0.1-0.2-0.2l0,0c0-0.1,0.1-0.2,0.2-0.2H27
							C27.1,18.4,27.2,18.5,27.2,18.6L27.2,18.6z"/>
						<g>
							<path fill="#4A6B75" d="M25.9,20.2c0,0.1-0.1,0.2-0.2,0.2h-8c-0.1,0-0.2-0.1-0.2-0.2l0,0c0-0.1,0.1-0.2,0.2-0.2h8
								C25.8,20,25.9,20.1,25.9,20.2L25.9,20.2z"/>
							<path fill="#4A6B75" d="M25.9,21.9c0,0.1-0.1,0.2-0.2,0.2h-8c-0.1,0-0.2-0.1-0.2-0.2l0,0c0-0.1,0.1-0.2,0.2-0.2h8
								C25.8,21.7,25.9,21.8,25.9,21.9L25.9,21.9z"/>
							<path fill="#4A6B75" d="M25.9,23.6c0,0.1-0.1,0.2-0.2,0.2h-8c-0.1,0-0.2-0.1-0.2-0.2l0,0c0-0.1,0.1-0.2,0.2-0.2h8
								C25.8,23.4,25.9,23.5,25.9,23.6L25.9,23.6z"/>
						</g>
					</g>
					<rect x="15.6" y="25.4" fill="#638491" width="12.2" height="37.3"/>
					<polyline fill="#4A6B75" points="15.6,25.4 27.8,25.4 27.8,62.7 					"/>
					<path fill="#638491" d="M28.2,25.3c0,0.1-0.1,0.2-0.2,0.2H15.5c-0.1,0-0.2-0.1-0.2-0.2l0,0c0-0.1,0.1-0.2,0.2-0.2h12.4
						C28.1,25,28.2,25.2,28.2,25.3L28.2,25.3z"/>
					<path fill="#6A8E99" d="M27.4,27.1c0,0.1-0.1,0.2-0.2,0.2h-11c-0.1,0-0.2-0.1-0.2-0.2l0,0c0-0.1,0.1-0.2,0.2-0.2h11
						C27.3,26.9,27.4,27,27.4,27.1L27.4,27.1z"/>
					<path fill="#6A8E99" d="M27.4,29.6c0,0.1-0.1,0.2-0.2,0.2h-11c-0.1,0-0.2-0.1-0.2-0.2l0,0c0-0.1,0.1-0.2,0.2-0.2h11
						C27.3,29.4,27.4,29.5,27.4,29.6L27.4,29.6z"/>
					<path fill="#6A8E99" d="M27.4,32.2c0,0.1-0.1,0.2-0.2,0.2h-11c-0.1,0-0.2-0.1-0.2-0.2l0,0c0-0.1,0.1-0.2,0.2-0.2h11
						C27.3,32,27.4,32.1,27.4,32.2L27.4,32.2z"/>
					<path fill="#6A8E99" d="M27.4,34.7c0,0.1-0.1,0.2-0.2,0.2h-11c-0.1,0-0.2-0.1-0.2-0.2l0,0c0-0.1,0.1-0.2,0.2-0.2h11
						C27.3,34.6,27.4,34.6,27.4,34.7L27.4,34.7z"/>
					<path fill="#6A8E99" d="M27.4,37.3c0,0.1-0.1,0.2-0.2,0.2h-11c-0.1,0-0.2-0.1-0.2-0.2l0,0c0-0.1,0.1-0.2,0.2-0.2h11
						C27.3,37.1,27.4,37.2,27.4,37.3L27.4,37.3z"/>
					<path fill="#6A8E99" d="M27.4,39.9c0,0.1-0.1,0.2-0.2,0.2h-11c-0.1,0-0.2-0.1-0.2-0.2l0,0c0-0.1,0.1-0.2,0.2-0.2h11
						C27.3,39.7,27.4,39.8,27.4,39.9L27.4,39.9z"/>
					<path fill="#6A8E99" d="M27.4,42.4c0,0.1-0.1,0.2-0.2,0.2h-11c-0.1,0-0.2-0.1-0.2-0.2l0,0c0-0.1,0.1-0.2,0.2-0.2h11
						C27.3,42.2,27.4,42.3,27.4,42.4L27.4,42.4z"/>
					<path fill="#6A8E99" d="M27.4,45c0,0.1-0.1,0.2-0.2,0.2h-11c-0.1,0-0.2-0.1-0.2-0.2l0,0c0-0.1,0.1-0.2,0.2-0.2h11
						C27.3,44.8,27.4,44.9,27.4,45L27.4,45z"/>
					<path fill="#6A8E99" d="M27.4,47.5c0,0.1-0.1,0.2-0.2,0.2h-11c-0.1,0-0.2-0.1-0.2-0.2l0,0c0-0.1,0.1-0.2,0.2-0.2h11
						C27.3,47.4,27.4,47.4,27.4,47.5L27.4,47.5z"/>
					<path fill="#6A8E99" d="M27.4,50.1c0,0.1-0.1,0.2-0.2,0.2h-11c-0.1,0-0.2-0.1-0.2-0.2l0,0c0-0.1,0.1-0.2,0.2-0.2h11
						C27.3,49.9,27.4,50,27.4,50.1L27.4,50.1z"/>
					<path fill="#6A8E99" d="M27.4,52.7c0,0.1-0.1,0.2-0.2,0.2h-11c-0.1,0-0.2-0.1-0.2-0.2l0,0c0-0.1,0.1-0.2,0.2-0.2h11
						C27.3,52.5,27.4,52.6,27.4,52.7L27.4,52.7z"/>
					<path fill="#6A8E99" d="M27.4,55.2c0,0.1-0.1,0.2-0.2,0.2h-11c-0.1,0-0.2-0.1-0.2-0.2l0,0c0-0.1,0.1-0.2,0.2-0.2h11
						C27.3,55,27.4,55.1,27.4,55.2L27.4,55.2z"/>
					<path fill="#6A8E99" d="M27.4,57.8c0,0.1-0.1,0.2-0.2,0.2h-11c-0.1,0-0.2-0.1-0.2-0.2l0,0c0-0.1,0.1-0.2,0.2-0.2h11
						C27.3,57.6,27.4,57.7,27.4,57.8L27.4,57.8z"/>
					<path fill="#6A8E99" d="M27.4,60.3c0,0.1-0.1,0.2-0.2,0.2h-11c-0.1,0-0.2-0.1-0.2-0.2l0,0c0-0.1,0.1-0.2,0.2-0.2h11
						C27.3,60.1,27.4,60.2,27.4,60.3L27.4,60.3z"/>
				</g>
				<g>
					<path fill="#132021" d="M42,7.9c0,0.2,0.1,0.3,0.3,0.3l0,0c0.2,0,0.3-0.1,0.3-0.3V1.3c0-0.2-0.1-0.3-0.3-0.3l0,0
						C42.1,1,42,1.1,42,1.3V7.9z"/>
					<polygon fill="#31484C" points="46.1,8.2 42.3,6 38.5,8.2 38.5,16.3 42.3,18.5 46.1,16.3 					"/>
					<polyline fill="#426366" points="46.1,16.3 46.1,8.2 42.3,6 					"/>
					<polyline fill="#1F3133" points="42.3,6 38.5,8.2 38.5,16.3 42.3,18.5 					"/>
					<polyline fill="#132021" points="42.3,6 38.5,8.2 38.5,16.3 					"/>
					<g>
						<rect x="37.7" y="13.2" fill="#405F66" width="9.1" height="7.5"/>
						<polyline fill="#31484C" points="46.8,20.6 46.8,13.2 37.7,13.2 						"/>
						<path fill="#638491" d="M37.6,13c0,0.1,0.1,0.2,0.2,0.2h9c0.1,0,0.2-0.1,0.2-0.2l0,0c0-0.1-0.1-0.2-0.2-0.2h-9
							C37.7,12.8,37.6,12.9,37.6,13L37.6,13z"/>
						<g>
							<path fill="#4A6B75" d="M38.7,14.4c0,0.1,0.1,0.2,0.2,0.2h6.9c0.1,0,0.2-0.1,0.2-0.2l0,0c0-0.1-0.1-0.2-0.2-0.2h-6.9
								C38.7,14.3,38.7,14.3,38.7,14.4L38.7,14.4z"/>
							<path fill="#4A6B75" d="M38.7,15.9c0,0.1,0.1,0.2,0.2,0.2h6.9c0.1,0,0.2-0.1,0.2-0.2l0,0c0-0.1-0.1-0.2-0.2-0.2h-6.9
								C38.7,15.7,38.7,15.8,38.7,15.9L38.7,15.9z"/>
							<path fill="#4A6B75" d="M38.7,17.3c0,0.1,0.1,0.2,0.2,0.2h6.9c0.1,0,0.2-0.1,0.2-0.2l0,0c0-0.1-0.1-0.2-0.2-0.2h-6.9
								C38.7,17.2,38.7,17.3,38.7,17.3L38.7,17.3z"/>
						</g>
					</g>
					<g>
						<rect x="37" y="18.8" fill="#3B555B" width="10.6" height="8.7"/>
						<polyline fill="#405F66" points="47.6,27.5 47.6,18.8 37,18.8 						"/>
						<path fill="#638491" d="M36.8,18.6c0,0.1,0.1,0.2,0.2,0.2h10.5c0.1,0,0.2-0.1,0.2-0.2l0,0c0-0.1-0.1-0.2-0.2-0.2H37
							C36.9,18.4,36.8,18.5,36.8,18.6L36.8,18.6z"/>
						<g>
							<path fill="#4A6B75" d="M38.1,20.2c0,0.1,0.1,0.2,0.2,0.2h8c0.1,0,0.2-0.1,0.2-0.2l0,0c0-0.1-0.1-0.2-0.2-0.2h-8
								C38.2,20,38.1,20.1,38.1,20.2L38.1,20.2z"/>
							<path fill="#4A6B75" d="M38.1,21.9c0,0.1,0.1,0.2,0.2,0.2h8c0.1,0,0.2-0.1,0.2-0.2l0,0c0-0.1-0.1-0.2-0.2-0.2h-8
								C38.2,21.7,38.1,21.8,38.1,21.9L38.1,21.9z"/>
							<path fill="#4A6B75" d="M38.1,23.6c0,0.1,0.1,0.2,0.2,0.2h8c0.1,0,0.2-0.1,0.2-0.2l0,0c0-0.1-0.1-0.2-0.2-0.2h-8
								C38.2,23.4,38.1,23.5,38.1,23.6L38.1,23.6z"/>
						</g>
					</g>
					<rect x="36.2" y="25.4" fill="#638491" width="12.2" height="37.3"/>
					<polyline fill="#4A6B75" points="48.4,25.4 36.2,25.4 36.2,62.7 					"/>
					<path fill="#638491" d="M35.8,25.3c0,0.1,0.1,0.2,0.2,0.2h12.4c0.1,0,0.2-0.1,0.2-0.2l0,0c0-0.1-0.1-0.2-0.2-0.2H36.1
						C35.9,25,35.8,25.2,35.8,25.3L35.8,25.3z"/>
					<path fill="#6A8E99" d="M36.6,27.1c0,0.1,0.1,0.2,0.2,0.2h11c0.1,0,0.2-0.1,0.2-0.2l0,0c0-0.1-0.1-0.2-0.2-0.2h-11
						C36.7,26.9,36.6,27,36.6,27.1L36.6,27.1z"/>
					<path fill="#6A8E99" d="M36.6,29.6c0,0.1,0.1,0.2,0.2,0.2h11c0.1,0,0.2-0.1,0.2-0.2l0,0c0-0.1-0.1-0.2-0.2-0.2h-11
						C36.7,29.4,36.6,29.5,36.6,29.6L36.6,29.6z"/>
					<path fill="#6A8E99" d="M36.6,32.2c0,0.1,0.1,0.2,0.2,0.2h11c0.1,0,0.2-0.1,0.2-0.2l0,0c0-0.1-0.1-0.2-0.2-0.2h-11
						C36.7,32,36.6,32.1,36.6,32.2L36.6,32.2z"/>
					<path fill="#6A8E99" d="M36.6,34.7c0,0.1,0.1,0.2,0.2,0.2h11c0.1,0,0.2-0.1,0.2-0.2l0,0c0-0.1-0.1-0.2-0.2-0.2h-11
						C36.7,34.6,36.6,34.6,36.6,34.7L36.6,34.7z"/>
					<path fill="#6A8E99" d="M36.6,37.3c0,0.1,0.1,0.2,0.2,0.2h11c0.1,0,0.2-0.1,0.2-0.2l0,0c0-0.1-0.1-0.2-0.2-0.2h-11
						C36.7,37.1,36.6,37.2,36.6,37.3L36.6,37.3z"/>
					<path fill="#6A8E99" d="M36.6,39.9c0,0.1,0.1,0.2,0.2,0.2h11c0.1,0,0.2-0.1,0.2-0.2l0,0c0-0.1-0.1-0.2-0.2-0.2h-11
						C36.7,39.7,36.6,39.8,36.6,39.9L36.6,39.9z"/>
					<path fill="#6A8E99" d="M36.6,42.4c0,0.1,0.1,0.2,0.2,0.2h11c0.1,0,0.2-0.1,0.2-0.2l0,0c0-0.1-0.1-0.2-0.2-0.2h-11
						C36.7,42.2,36.6,42.3,36.6,42.4L36.6,42.4z"/>
					<path fill="#6A8E99" d="M36.6,45c0,0.1,0.1,0.2,0.2,0.2h11c0.1,0,0.2-0.1,0.2-0.2l0,0c0-0.1-0.1-0.2-0.2-0.2h-11
						C36.7,44.8,36.6,44.9,36.6,45L36.6,45z"/>
					<path fill="#6A8E99" d="M36.6,47.5c0,0.1,0.1,0.2,0.2,0.2h11c0.1,0,0.2-0.1,0.2-0.2l0,0c0-0.1-0.1-0.2-0.2-0.2h-11
						C36.7,47.4,36.6,47.4,36.6,47.5L36.6,47.5z"/>
					<path fill="#6A8E99" d="M36.6,50.1c0,0.1,0.1,0.2,0.2,0.2h11c0.1,0,0.2-0.1,0.2-0.2l0,0c0-0.1-0.1-0.2-0.2-0.2h-11
						C36.7,49.9,36.6,50,36.6,50.1L36.6,50.1z"/>
					<path fill="#6A8E99" d="M36.6,52.7c0,0.1,0.1,0.2,0.2,0.2h11c0.1,0,0.2-0.1,0.2-0.2l0,0c0-0.1-0.1-0.2-0.2-0.2h-11
						C36.7,52.5,36.6,52.6,36.6,52.7L36.6,52.7z"/>
					<path fill="#6A8E99" d="M36.6,55.2c0,0.1,0.1,0.2,0.2,0.2h11c0.1,0,0.2-0.1,0.2-0.2l0,0c0-0.1-0.1-0.2-0.2-0.2h-11
						C36.7,55,36.6,55.1,36.6,55.2L36.6,55.2z"/>
					<path fill="#6A8E99" d="M36.6,57.8c0,0.1,0.1,0.2,0.2,0.2h11c0.1,0,0.2-0.1,0.2-0.2l0,0c0-0.1-0.1-0.2-0.2-0.2h-11
						C36.7,57.6,36.6,57.7,36.6,57.8L36.6,57.8z"/>
					<path fill="#6A8E99" d="M36.6,60.3c0,0.1,0.1,0.2,0.2,0.2h11c0.1,0,0.2-0.1,0.2-0.2l0,0c0-0.1-0.1-0.2-0.2-0.2h-11
						C36.7,60.1,36.6,60.2,36.6,60.3L36.6,60.3z"/>
				</g>
			</g>
			<path fill="#132021" d="M51.5,62.7c0,0.2-0.1,0.3-0.3,0.3H12.8c-0.2,0-0.3-0.1-0.3-0.3l0,0c0-0.2,0.1-0.3,0.3-0.3h38.4
				C51.4,62.4,51.5,62.5,51.5,62.7L51.5,62.7z"/>
		</g>
		<g>
			<polygon fill="#4A6B75" points="27.4,51.7 27,51.5 32,39.3 37,51.5 36.6,51.7 32,40.6 			"/>
		</g>
	</g>
</g>
</svg>
