<?xml version="1.0" encoding="utf-8"?>
<!-- Generator: Adobe Illustrator 16.0.0, SVG Export Plug-In . SVG Version: 6.00 Build 0)  -->
<!DOCTYPE svg PUBLIC "-//W3C//DTD SVG 1.1//EN" "http://www.w3.org/Graphics/SVG/1.1/DTD/svg11.dtd">
<svg version="1.1" id="Layer_1" xmlns="http://www.w3.org/2000/svg" xmlns:xlink="http://www.w3.org/1999/xlink" x="0px" y="0px"
	 width="64px" height="64px" viewBox="0 0 64 64" enable-background="new 0 0 64 64" xml:space="preserve">
<g>
	<polygon fill="#506263" points="38.7,55.6 37,57.3 36.1,56.2 35.1,57 34.3,57 33.6,58 26.9,58 25.5,57 24.5,57 23.9,56 23.4,56 
		22.2,54.8 21.2,55.8 21,55.6 21,55.5 21,55.5 21,55.5 21,55.6 20.7,55.8 19.7,54.8 18.4,56 18,56 17.4,57 16.3,57 15,58 8.3,58 
		7.6,57 6.7,57 5.7,56.2 4.9,57.2 3.3,55.6 1,57.9 1,59.2 1,63 20.8,63 21,63 41,63 41,59.2 41,57.9 	"/>
	<g>
		<polygon fill="#506263" points="62,59 62,57 61,57 61,56 60,56 60,57 58,57 58,58 54,58 54,57 52,57 52,59 48,59 48,57 47,57 
			47,57 46,57 46,57 46,57 46,55 44,55 44,57 44,57 44,58 43,58 43,57 42,57 42,57 41,57 41,57 41,57 41,53 38,53 38,57 38,57 
			38,58 36,58 36,57 35,57 35,57 34,57 34,57 34,57 34,59 34,59 34,63 63,63 63,59 		"/>
		<g>
			<g>
				<path fill="#B4CFD1" d="M35.9,62l1.4-8c0.1-0.4-0.2-0.9-0.7-1l-20.1-3.7c-0.4-0.1-0.9,0.2-0.9,0.6l-2.1,11.8c0,0,0,0.2,0,0.2
					H35.9z"/>
			</g>
			<g>
				<path fill="#506263" d="M34.1,11.2c0,0.2-0.2,0.3-0.4,0.2l0,0c-0.2,0-0.3-0.2-0.2-0.4l1.8-9.9c0-0.2,0.2-0.3,0.4-0.2l0,0
					c0.2,0,0.3,0.2,0.2,0.4L34.1,11.2z"/>
				<path fill="#A3BCBF" d="M38.2,20.9c0,0.1-0.2,0.2-0.3,0.2l-11.5-2.1c-0.1,0-0.2-0.2-0.2-0.3l2.1-11.5c0-0.1,0.2-0.2,0.3-0.2
					l11.5,2.1c0.1,0,0.2,0.2,0.2,0.3L38.2,20.9z"/>
				<path fill="#95ACAD" d="M35.3,20.4c0,0.1-0.1,0.3-0.2,0.2l-5.9-1.1c-0.1,0-0.1-0.1-0.1-0.3l2.1-11.5c0-0.1,0.1-0.3,0.2-0.2
					l5.9,1.1c0.1,0,0.1,0.1,0.1,0.3L35.3,20.4z"/>
				<g>
					<path fill="#B4CFD1" d="M39.9,21.1c-0.1,0.3,0.2,0.6-0.1,0.6l-15.3-2.8c-0.3-0.1,0-0.3,0.1-0.6l1.5-8.2
						c0.1-0.3,0.4-0.5,0.7-0.5l14.2,2.6c0.3,0.1,0.5,0.4,0.5,0.7L39.9,21.1z"/>
					<path fill="#A3BCBF" d="M40.6,17.3l-15.3-2.8l-0.7,3.8c-0.1,0.3-0.4,0.5-0.1,0.6l15.3,2.8c0.3,0.1,0-0.3,0.1-0.6L40.6,17.3z"/>
					<g>
						<g>
							<path fill="#D6E5E5" d="M30.7,12.5c-0.7-0.1-1.3,0.3-1.5,1l-0.9,4.9l2.5,0.4l0.9-4.9C31.8,13.3,31.3,12.6,30.7,12.5z"/>
							<path fill="#506263" d="M30.6,12.6c-0.7-0.1-1.3,0.3-1.5,1l-0.9,4.8l2.5,0.4l0.9-4.8C31.8,13.4,31.3,12.8,30.6,12.6z"/>
							<path fill="#394747" d="M30.5,13.5c-0.7-0.1-1.3,0.3-1.5,1l-0.7,3.9l2.5,0.4l0.7-3.9C31.6,14.3,31.1,13.6,30.5,13.5z"/>
						</g>
						<g>
							<path fill="#D6E5E5" d="M36.3,13.5c-0.7-0.1-1.3,0.3-1.5,1l-0.9,4.9l2.5,0.4l0.9-4.9C37.4,14.3,36.9,13.6,36.3,13.5z"/>
							<path fill="#506263" d="M36.2,13.6c-0.7-0.1-1.3,0.3-1.5,1l-0.9,4.8l2.5,0.4l0.9-4.8C37.4,14.4,36.9,13.8,36.2,13.6z"/>
							<path fill="#394747" d="M36.1,14.5c-0.7-0.1-1.3,0.3-1.5,1l-0.7,3.9l2.5,0.4l0.7-3.9C37.2,15.3,36.7,14.6,36.1,14.5z"/>
						</g>
					</g>
					<path fill="#A3BCBF" d="M40.9,12.2L26.7,9.7c-0.3-0.1-0.6,0.2-0.7,0.5l-0.2,1.3l15.3,2.8l0.2-1.3
						C41.4,12.6,41.2,12.3,40.9,12.2z"/>
					<path fill="#B4CFD1" d="M42,12.5c0,0.1-0.1,0.1-0.1,0.1l-16-2.9c-0.1,0-0.1-0.1-0.1-0.1l0,0c0-0.1,0.1-0.1,0.1-0.1l16,2.9
						C41.9,12.4,42,12.4,42,12.5L42,12.5z"/>
					<path fill="#A3BCBF" d="M41.9,12.7c0,0.1-0.1,0.1-0.1,0.1l-16-2.9c-0.1,0-0.1-0.1-0.1-0.1l0,0c0-0.1,0.1-0.1,0.1-0.1l16,2.9
						C41.9,12.6,41.9,12.7,41.9,12.7L41.9,12.7z"/>
				</g>
				<g>
					<g>
						<path fill="#B4CFD1" d="M42.1,27.5c-0.1,0.4,0.3,0.9-0.1,0.8l-21.7-3.9c-0.4-0.1,0.1-0.4,0.1-0.8l1.2-6.8
							c0.1-0.4,0.5-0.7,1-0.7l20.1,3.6c0.4,0.1,0.7,0.5,0.7,0.9L42.1,27.5z"/>
						<path fill="#A3BCBF" d="M42.3,26.2l-21.7-3.9l-0.2,1.3c-0.1,0.4-0.6,0.7-0.1,0.8l21.7,3.9c0.4,0.1,0.1-0.4,0.1-0.8L42.3,26.2z
							"/>
						<path fill="#A3BCBF" d="M42.6,19.7l-20.1-3.6c-0.4-0.1-0.9,0.2-1,0.7l-0.3,1.9L43,22.6l0.3-1.9C43.4,20.2,43.1,19.8,42.6,19.7
							z"/>
						<path fill="#B4CFD1" d="M44.1,20.1c0,0.1-0.1,0.2-0.2,0.1l-22.7-4.1C21,16.2,21,16.1,21,16l0,0c0-0.1,0.1-0.2,0.2-0.1
							l22.7,4.1C44,19.9,44.1,20,44.1,20.1L44.1,20.1z"/>
						<path fill="#A3BCBF" d="M44,20.5c0,0.1-0.1,0.2-0.2,0.1l-22.7-4.1c-0.1,0-0.2-0.1-0.1-0.2l0,0c0-0.1,0.1-0.2,0.2-0.1l22.7,4.1
							C44,20.3,44,20.4,44,20.5L44,20.5z"/>
					</g>
					<g>
						<g>
							<path fill="#D6E5E5" d="M24.3,18.9c-0.7-0.1-1.3,0.3-1.4,1L22,24.8l2.4,0.4l0.9-4.8C25.5,19.7,25,19.1,24.3,18.9z"/>
							<path fill="#506263" d="M24.3,19.1c-0.7-0.1-1.3,0.3-1.4,1L22,24.8l2.4,0.4l0.8-4.7C25.4,19.8,25,19.2,24.3,19.1z"/>
							<path fill="#394747" d="M24.2,20c-0.7-0.1-1.3,0.3-1.4,1L22,24.8l2.4,0.4l0.7-3.8C25.3,20.7,24.8,20.1,24.2,20z"/>
						</g>
						<g>
							<path fill="#D6E5E5" d="M28.2,19.6c-0.7-0.1-1.3,0.3-1.4,1l-0.9,4.8l2.4,0.4l0.9-4.8C29.3,20.4,28.9,19.8,28.2,19.6z"/>
							<path fill="#506263" d="M28.2,19.8c-0.7-0.1-1.3,0.3-1.4,1l-0.8,4.7l2.4,0.4l0.8-4.7C29.3,20.5,28.9,19.9,28.2,19.8z"/>
							<path fill="#394747" d="M28.1,20.7c-0.7-0.1-1.3,0.3-1.4,1l-0.7,3.8l2.4,0.4l0.7-3.8C29.2,21.4,28.7,20.8,28.1,20.7z"/>
						</g>
						<g>
							<path fill="#D6E5E5" d="M32.1,20.3c-0.7-0.1-1.3,0.3-1.4,1l-0.9,4.8l2.4,0.4l0.9-4.8C33.2,21.1,32.8,20.5,32.1,20.3z"/>
							<path fill="#506263" d="M32.1,20.5c-0.7-0.1-1.3,0.3-1.4,1l-0.8,4.7l2.4,0.4l0.8-4.7C33.2,21.2,32.8,20.6,32.1,20.5z"/>
							<path fill="#394747" d="M31.9,21.4c-0.7-0.1-1.3,0.3-1.4,1l-0.7,3.8l2.4,0.4l0.7-3.8C33.1,22.1,32.6,21.5,31.9,21.4z"/>
						</g>
						<g>
							<path fill="#D6E5E5" d="M36,21c-0.7-0.1-1.3,0.3-1.4,1l-0.9,4.8l2.4,0.4l0.9-4.8C37.1,21.8,36.7,21.2,36,21z"/>
							<path fill="#506263" d="M36,21.2c-0.7-0.1-1.3,0.3-1.4,1l-0.8,4.7l2.4,0.4l0.8-4.7C37.1,21.9,36.7,21.3,36,21.2z"/>
							<path fill="#394747" d="M35.8,22.1c-0.7-0.1-1.3,0.3-1.4,1l-0.7,3.8l2.4,0.4l0.7-3.8C36.9,22.8,36.5,22.2,35.8,22.1z"/>
						</g>
						<g>
							<path fill="#D6E5E5" d="M39.9,21.8c-0.7-0.1-1.3,0.3-1.4,1l-0.9,4.8L40,28l0.9-4.8C41,22.5,40.6,21.9,39.9,21.8z"/>
							<path fill="#506263" d="M39.9,21.9c-0.7-0.1-1.3,0.3-1.4,1l-0.8,4.7L40,28l0.8-4.7C41,22.6,40.6,22,39.9,21.9z"/>
							<path fill="#394747" d="M39.7,22.8c-0.7-0.1-1.3,0.3-1.4,1l-0.7,3.8L40,28l0.7-3.8C40.8,23.5,40.4,22.9,39.7,22.8z"/>
						</g>
					</g>
				</g>
				<g>
					<g>
						<path fill="#B4CFD1" d="M40.6,35.9c-0.1,0.4,0.3,0.9-0.1,0.8l-21.7-3.9c-0.4-0.1,0.1-0.4,0.1-0.8l1.2-6.8
							c0.1-0.4,0.5-0.7,1-0.7l20.1,3.6c0.4,0.1,0.7,0.5,0.7,1L40.6,35.9z"/>
						<path fill="#A3BCBF" d="M40.8,34.6L19,30.7L18.8,32c-0.1,0.4-0.6,0.7-0.1,0.8l21.7,3.9c0.4,0.1,0.1-0.4,0.1-0.8L40.8,34.6z"/>
						<path fill="#A3BCBF" d="M41.1,28.1L21,24.5c-0.4-0.1-0.9,0.2-1,0.7L19.7,27l21.7,3.9l0.3-1.9C41.9,28.6,41.6,28.2,41.1,28.1z"
							/>
						<path fill="#B4CFD1" d="M42.6,28.5c0,0.1-0.1,0.2-0.2,0.1l-22.7-4.1c-0.1,0-0.2-0.1-0.1-0.2l0,0c0-0.1,0.1-0.2,0.2-0.1
							l22.7,4.1C42.5,28.3,42.6,28.4,42.6,28.5L42.6,28.5z"/>
						<path fill="#A3BCBF" d="M42.5,28.8c0,0.1-0.1,0.2-0.2,0.1l-22.7-4.1c-0.1,0-0.2-0.1-0.1-0.2l0,0c0-0.1,0.1-0.2,0.2-0.1
							l22.7,4.1C42.5,28.7,42.5,28.7,42.5,28.8L42.5,28.8z"/>
					</g>
					<g>
						<g>
							<path fill="#D6E5E5" d="M22.8,27.3c-0.7-0.1-1.3,0.3-1.4,1l-0.9,4.8l2.4,0.4l0.9-4.8C24,28.1,23.5,27.4,22.8,27.3z"/>
							<path fill="#506263" d="M22.8,27.4c-0.7-0.1-1.3,0.3-1.4,1l-0.8,4.7l2.4,0.4l0.8-4.7C23.9,28.2,23.5,27.6,22.8,27.4z"/>
							<path fill="#394747" d="M22.7,28.3c-0.7-0.1-1.3,0.3-1.4,1l-0.7,3.8l2.4,0.4l0.7-3.8C23.8,29.1,23.3,28.4,22.7,28.3z"/>
						</g>
						<g>
							<path fill="#D6E5E5" d="M26.7,28c-0.7-0.1-1.3,0.3-1.4,1l-0.9,4.8l2.4,0.4l0.9-4.8C27.8,28.8,27.4,28.1,26.7,28z"/>
							<path fill="#506263" d="M26.7,28.1c-0.7-0.1-1.3,0.3-1.4,1l-0.8,4.7l2.4,0.4l0.8-4.7C27.8,28.9,27.4,28.3,26.7,28.1z"/>
							<path fill="#394747" d="M26.5,29c-0.7-0.1-1.3,0.3-1.4,1l-0.7,3.8l2.4,0.4l0.7-3.8C27.7,29.8,27.2,29.1,26.5,29z"/>
						</g>
						<g>
							<path fill="#D6E5E5" d="M30.6,28.7c-0.7-0.1-1.3,0.3-1.4,1l-0.9,4.8l2.4,0.4l0.9-4.8C31.7,29.5,31.3,28.8,30.6,28.7z"/>
							<path fill="#506263" d="M30.6,28.8c-0.7-0.1-1.3,0.3-1.4,1l-0.8,4.7l2.4,0.4l0.8-4.7C31.7,29.6,31.3,29,30.6,28.8z"/>
							<path fill="#394747" d="M30.4,29.7c-0.7-0.1-1.3,0.3-1.4,1l-0.7,3.8l2.4,0.4l0.7-3.8C31.6,30.5,31.1,29.8,30.4,29.7z"/>
						</g>
						<g>
							<path fill="#D6E5E5" d="M34.5,29.4c-0.7-0.1-1.3,0.3-1.4,1l-0.9,4.8l2.4,0.4l0.9-4.8C35.6,30.2,35.2,29.5,34.5,29.4z"/>
							<path fill="#506263" d="M34.5,29.5c-0.7-0.1-1.3,0.3-1.4,1l-0.8,4.7l2.4,0.4l0.8-4.7C35.6,30.3,35.2,29.7,34.5,29.5z"/>
							<path fill="#394747" d="M34.3,30.4c-0.7-0.1-1.3,0.3-1.4,1l-0.7,3.8l2.4,0.4l0.7-3.8C35.4,31.2,35,30.5,34.3,30.4z"/>
						</g>
						<g>
							<path fill="#D6E5E5" d="M38.4,30.1c-0.7-0.1-1.3,0.3-1.4,1l-0.9,4.8l2.4,0.4l0.9-4.8C39.5,30.9,39.1,30.2,38.4,30.1z"/>
							<path fill="#506263" d="M38.4,30.2c-0.7-0.1-1.3,0.3-1.4,1l-0.8,4.7l2.4,0.4l0.8-4.7C39.5,31,39.1,30.4,38.4,30.2z"/>
							<path fill="#394747" d="M38.2,31.1c-0.7-0.1-1.3,0.3-1.4,1l-0.7,3.8l2.4,0.4l0.7-3.8C39.3,31.9,38.9,31.2,38.2,31.1z"/>
						</g>
					</g>
				</g>
				<g>
					<g>
						<path fill="#B4CFD1" d="M39,44.2c-0.1,0.4,0.3,0.9-0.1,0.8l-21.7-3.9c-0.4-0.1,0.1-0.4,0.1-0.8l1.2-6.8c0.1-0.4,0.5-0.7,1-0.7
							l20.1,3.6c0.4,0.1,0.7,0.5,0.7,1L39,44.2z"/>
						<path fill="#A3BCBF" d="M39.3,42.9L17.5,39l-0.2,1.3c-0.1,0.4-0.6,0.7-0.1,0.8l21.7,3.9c0.4,0.1,0.1-0.4,0.1-0.8L39.3,42.9z"
							/>
						<path fill="#A3BCBF" d="M39.6,36.5l-20.1-3.6c-0.4-0.1-0.9,0.2-1,0.7l-0.3,1.9l21.7,3.9l0.3-1.9C40.4,37,40.1,36.5,39.6,36.5z
							"/>
						<path fill="#B4CFD1" d="M41.1,36.8c0,0.1-0.1,0.2-0.2,0.1l-22.7-4.1c-0.1,0-0.2-0.1-0.1-0.2l0,0c0-0.1,0.1-0.2,0.2-0.1
							l22.7,4.1C41,36.7,41.1,36.7,41.1,36.8L41.1,36.8z"/>
						<path fill="#A3BCBF" d="M41,37.2c0,0.1-0.1,0.2-0.2,0.1l-22.7-4.1c-0.1,0-0.2-0.1-0.1-0.2l0,0c0-0.1,0.1-0.2,0.2-0.1L40.9,37
							C41,37,41,37.1,41,37.2L41,37.2z"/>
					</g>
					<g>
						<g>
							<path fill="#D6E5E5" d="M21.3,35.7c-0.7-0.1-1.3,0.3-1.4,1L19,41.5l2.4,0.4l0.9-4.8C22.4,36.4,22,35.8,21.3,35.7z"/>
							<path fill="#506263" d="M21.3,35.8c-0.7-0.1-1.3,0.3-1.4,1L19,41.5l2.4,0.4l0.8-4.7C22.4,36.5,22,35.9,21.3,35.8z"/>
							<path fill="#394747" d="M21.2,36.7c-0.7-0.1-1.3,0.3-1.4,1L19,41.5l2.4,0.4l0.7-3.8C22.3,37.4,21.8,36.8,21.2,36.7z"/>
						</g>
						<g>
							<path fill="#D6E5E5" d="M25.2,36.4c-0.7-0.1-1.3,0.3-1.4,1l-0.9,4.8l2.4,0.4l0.9-4.8C26.3,37.1,25.9,36.5,25.2,36.4z"/>
							<path fill="#506263" d="M25.2,36.5c-0.7-0.1-1.3,0.3-1.4,1l-0.8,4.7l2.4,0.4l0.8-4.7C26.3,37.3,25.9,36.6,25.2,36.5z"/>
							<path fill="#394747" d="M25,37.4c-0.7-0.1-1.3,0.3-1.4,1l-0.7,3.8l2.4,0.4l0.7-3.8C26.2,38.1,25.7,37.5,25,37.4z"/>
						</g>
						<g>
							<path fill="#D6E5E5" d="M29.1,37.1c-0.7-0.1-1.3,0.3-1.4,1l-0.9,4.8l2.4,0.4l0.9-4.8C30.2,37.8,29.8,37.2,29.1,37.1z"/>
							<path fill="#506263" d="M29.1,37.2c-0.7-0.1-1.3,0.3-1.4,1l-0.8,4.7l2.4,0.4l0.8-4.7C30.2,38,29.8,37.3,29.1,37.2z"/>
							<path fill="#394747" d="M28.9,38.1c-0.7-0.1-1.3,0.3-1.4,1l-0.7,3.8l2.4,0.4l0.7-3.8C30,38.8,29.6,38.2,28.9,38.1z"/>
						</g>
						<g>
							<path fill="#D6E5E5" d="M33,37.8c-0.7-0.1-1.3,0.3-1.4,1l-0.9,4.8l2.4,0.4l0.9-4.8C34.1,38.5,33.7,37.9,33,37.8z"/>
							<path fill="#506263" d="M33,37.9c-0.7-0.1-1.3,0.3-1.4,1l-0.8,4.7l2.4,0.4l0.8-4.7C34.1,38.7,33.7,38,33,37.9z"/>
							<path fill="#394747" d="M32.8,38.8c-0.7-0.1-1.3,0.3-1.4,1l-0.7,3.8l2.4,0.4l0.7-3.8C33.9,39.5,33.5,38.9,32.8,38.8z"/>
						</g>
						<g>
							<path fill="#D6E5E5" d="M36.9,38.5c-0.7-0.1-1.3,0.3-1.4,1l-0.9,4.8l2.4,0.4l0.9-4.8C38,39.2,37.6,38.6,36.9,38.5z"/>
							<path fill="#506263" d="M36.9,38.6c-0.7-0.1-1.3,0.3-1.4,1l-0.8,4.7l2.4,0.4l0.8-4.7C38,39.4,37.5,38.7,36.9,38.6z"/>
							<path fill="#394747" d="M36.7,39.5c-0.7-0.1-1.3,0.3-1.4,1l-0.7,3.8l2.4,0.4l0.7-3.8C37.8,40.2,37.4,39.6,36.7,39.5z"/>
						</g>
					</g>
				</g>
				<g>
					<g>
						<path fill="#B4CFD1" d="M37.5,52.6c-0.1,0.4,0.3,0.9-0.1,0.8l-21.7-3.9c-0.4-0.1,0.1-0.4,0.1-0.8l1.2-6.8
							c0.1-0.4,0.5-0.7,1-0.7l20.1,3.6c0.4,0.1,0.7,0.5,0.7,1L37.5,52.6z"/>
						<path fill="#A3BCBF" d="M37.8,51.3L16,47.4l-0.2,1.3c-0.1,0.4-0.6,0.7-0.1,0.8l21.7,3.9c0.4,0.1,0.1-0.4,0.1-0.8L37.8,51.3z"
							/>
						<path fill="#A3BCBF" d="M38.1,44.8L18,41.2c-0.4-0.1-0.9,0.2-1,0.7l-0.3,1.9l21.7,3.9l0.3-1.9C38.9,45.3,38.6,44.9,38.1,44.8z
							"/>
						<path fill="#B4CFD1" d="M39.6,45.2c0,0.1-0.1,0.2-0.2,0.1l-22.7-4.1c-0.1,0-0.2-0.1-0.1-0.2l0,0c0-0.1,0.1-0.2,0.2-0.1
							L39.4,45C39.5,45,39.6,45.1,39.6,45.2L39.6,45.2z"/>
						<path fill="#A3BCBF" d="M39.5,45.5c0,0.1-0.1,0.2-0.2,0.1l-22.7-4.1c-0.1,0-0.2-0.1-0.1-0.2l0,0c0-0.1,0.1-0.2,0.2-0.1
							l22.7,4.1C39.5,45.4,39.5,45.5,39.5,45.5L39.5,45.5z"/>
					</g>
					<g>
						<g>
							<path fill="#D6E5E5" d="M19.8,44c-0.7-0.1-1.3,0.3-1.4,1l-0.9,4.8l2.4,0.4l0.9-4.8C20.9,44.8,20.5,44.1,19.8,44z"/>
							<path fill="#506263" d="M19.8,44.1c-0.7-0.1-1.3,0.3-1.4,1l-0.8,4.7l2.4,0.4l0.8-4.7C20.9,44.9,20.5,44.3,19.8,44.1z"/>
							<path fill="#394747" d="M19.7,45c-0.7-0.1-1.3,0.3-1.4,1l-0.7,3.8l2.4,0.4l0.7-3.8C20.8,45.8,20.3,45.1,19.7,45z"/>
						</g>
						<g>
							<path fill="#D6E5E5" d="M23.7,44.7c-0.7-0.1-1.3,0.3-1.4,1l-0.9,4.8l2.4,0.4l0.9-4.8C24.8,45.5,24.4,44.8,23.7,44.7z"/>
							<path fill="#506263" d="M23.7,44.8c-0.7-0.1-1.3,0.3-1.4,1l-0.8,4.7l2.4,0.4l0.8-4.7C24.8,45.6,24.4,45,23.7,44.8z"/>
							<path fill="#394747" d="M23.5,45.7c-0.7-0.1-1.3,0.3-1.4,1l-0.7,3.8l2.4,0.4l0.7-3.8C24.7,46.5,24.2,45.8,23.5,45.7z"/>
						</g>
						<g>
							<path fill="#D6E5E5" d="M27.6,45.4c-0.7-0.1-1.3,0.3-1.4,1l-0.9,4.8l2.4,0.4l0.9-4.8C28.7,46.2,28.3,45.5,27.6,45.4z"/>
							<path fill="#506263" d="M27.6,45.5c-0.7-0.1-1.3,0.3-1.4,1l-0.8,4.7l2.4,0.4l0.8-4.7C28.7,46.3,28.3,45.7,27.6,45.5z"/>
							<path fill="#394747" d="M27.4,46.4c-0.7-0.1-1.3,0.3-1.4,1l-0.7,3.8l2.4,0.4l0.7-3.8C28.5,47.2,28.1,46.5,27.4,46.4z"/>
						</g>
						<g>
							<path fill="#D6E5E5" d="M31.5,46.1c-0.7-0.1-1.3,0.3-1.4,1l-0.9,4.8l2.4,0.4l0.9-4.8C32.6,46.9,32.2,46.2,31.5,46.1z"/>
							<path fill="#506263" d="M31.5,46.2c-0.7-0.1-1.3,0.3-1.4,1l-0.8,4.7l2.4,0.4l0.8-4.7C32.6,47,32.2,46.4,31.5,46.2z"/>
							<path fill="#394747" d="M31.3,47.1c-0.7-0.1-1.3,0.3-1.4,1l-0.7,3.8l2.4,0.4l0.7-3.8C32.4,47.9,32,47.2,31.3,47.1z"/>
						</g>
						<g>
							<path fill="#D6E5E5" d="M35.4,46.8c-0.7-0.1-1.3,0.3-1.4,1l-0.9,4.8l2.4,0.4l0.9-4.8C36.5,47.6,36.1,46.9,35.4,46.8z"/>
							<path fill="#506263" d="M35.4,46.9c-0.7-0.1-1.3,0.3-1.4,1l-0.8,4.7l2.4,0.4l0.8-4.7C36.5,47.7,36,47.1,35.4,46.9z"/>
							<path fill="#394747" d="M35.2,47.8c-0.7-0.1-1.3,0.3-1.4,1l-0.7,3.8l2.4,0.4l0.7-3.8C36.3,48.6,35.9,47.9,35.2,47.8z"/>
						</g>
					</g>
				</g>
				<g>
					<g>
						<path fill="#A3BCBF" d="M35.9,62l0.3-1.6l-21.7-4l-1,5.4c0,0,0,0.2,0,0.2H35.9z"/>
					</g>
					<path fill="#A3BCBF" d="M36.6,53l-20.1-3.6c-0.4-0.1-0.9,0.2-0.9,0.7l-0.3,1.9L37,55.8l0.3-1.9C37.4,53.5,37.1,53.1,36.6,53z"
						/>
					<path fill="#B4CFD1" d="M38.1,53.4c0,0.1-0.1,0.2-0.2,0.1l-22.7-4.1c-0.1,0-0.2-0.1-0.1-0.2l0,0c0-0.1,0.1-0.2,0.2-0.1L38,53.2
						C38.1,53.2,38.1,53.3,38.1,53.4L38.1,53.4z"/>
					<path fill="#A3BCBF" d="M38,53.7c0,0.1-0.1,0.2-0.2,0.1l-22.7-4.1c-0.1,0-0.2-0.1-0.1-0.2l0,0c0-0.1,0.1-0.2,0.2-0.1l22.7,4.1
						C38,53.5,38.1,53.6,38,53.7L38,53.7z"/>
				</g>
				<path fill="#95ACAD" d="M40.8,9.2c0,0.2-0.2,0.3-0.4,0.3L28.1,7.2c-0.2,0-0.3-0.2-0.3-0.4l0,0c0-0.2,0.2-0.3,0.4-0.3l12.3,2.2
					C40.8,8.8,40.9,9,40.8,9.2L40.8,9.2z"/>
			</g>
			<path fill="#506263" d="M53.6,62.5c0,0.3-0.3,0.5-0.6,0.5H10.7c-0.3,0-0.6-0.2-0.6-0.5l0,0c0-0.3,0.3-0.5,0.6-0.5H53
				C53.4,62,53.6,62.2,53.6,62.5L53.6,62.5z"/>
			<g>
				<path fill="#D6E5E5" d="M20.2,62l0.9-5.2c0.2-1-0.5-1.9-1.4-2.1c-1-0.2-1.9,0.5-2.1,1.5l-1,5.8H20.2z"/>
			</g>
			<g>
				<path fill="#506263" d="M20.2,62l0.9-5c0.2-1-0.5-1.9-1.4-2.1c-1-0.2-1.9,0.5-2.1,1.5l-1,5.6H20.2z"/>
			</g>
			<g>
				<path fill="#394747" d="M20.2,62l0.7-3.7c0.2-1-0.5-1.9-1.4-2.1c-1-0.2-1.9,0.5-2.1,1.5L16.6,62H20.2z"/>
			</g>
			<g>
				<path fill="#D6E5E5" d="M26.5,62l0.7-4.1c0.2-1-0.5-1.9-1.4-2.1c-1-0.2-1.9,0.5-2.1,1.5L22.9,62H26.5z"/>
			</g>
			<g>
				<path fill="#506263" d="M26.5,62l0.7-3.9c0.2-1-0.5-1.9-1.4-2.1c-1-0.2-1.9,0.5-2.1,1.5L22.9,62H26.5z"/>
			</g>
			<g>
				<path fill="#394747" d="M26.5,62l0.5-2.7c0.2-1-0.5-1.9-1.4-2.1c-1-0.2-1.9,0.5-2.1,1.5L22.9,62H26.5z"/>
			</g>
			<g>
				<path fill="#D6E5E5" d="M32.7,62l0.5-3c0.2-1-0.5-1.9-1.4-2.1c-1-0.2-1.9,0.5-2.1,1.5L29.1,62H32.7z"/>
			</g>
			<g>
				<path fill="#506263" d="M32.7,62l0.5-2.8c0.2-1-0.5-1.9-1.4-2.1c-1-0.2-1.9,0.5-2.1,1.5L29.1,62H32.7z"/>
			</g>
			<g>
				<path fill="#394747" d="M32.7,62l0.3-1.6c0.2-1-0.5-1.9-1.4-2.1c-1-0.2-1.9,0.5-2.1,1.5L29.1,62H32.7z"/>
			</g>
		</g>
	</g>
</g>
</svg>
