<?xml version="1.0" encoding="utf-8"?>
<!-- Generator: Adobe Illustrator 16.0.0, SVG Export Plug-In . SVG Version: 6.00 Build 0)  -->
<!DOCTYPE svg PUBLIC "-//W3C//DTD SVG 1.1//EN" "http://www.w3.org/Graphics/SVG/1.1/DTD/svg11.dtd">
<svg version="1.1" id="Layer_1" xmlns="http://www.w3.org/2000/svg" xmlns:xlink="http://www.w3.org/1999/xlink" x="0px" y="0px"
	 width="64px" height="64px" viewBox="0 0 64 64" enable-background="new 0 0 64 64" xml:space="preserve">
<g>
	<g>
		<circle fill="#9AE8E4" cx="32" cy="31.8" r="27.4"/>
		<path fill="#85DDD6" d="M32,4.3c15.2,0,27.4,12.3,27.4,27.4S47.2,59.2,32,59.2"/>
		<g>
			<g>
				<g>
					<rect x="39.7" y="42.2" fill="#6C9193" width="13.9" height="5.6"/>
					<g>
						<path fill="#97B6B7" d="M49.7,45.3c-0.8-1.2-1.8-4.2,0.2-5.6c2.2-1.5,7.1-1,8.6-0.3L49.7,45.3z"/>
						<path fill="#8BACAF" d="M58.5,39.4l-8.7,5.8c-1.7-4,0.6-1.6,2.3-2.9C54.1,40.9,56.3,38.9,58.5,39.4z"/>
					</g>
					<g>
						<path fill="#97B6B7" d="M47.9,45.3c0.8-1.2,1.8-4.2-0.2-5.6c-2.2-1.5-7.1-1-8.6-0.3L47.9,45.3z"/>
						<path fill="#8BACAF" d="M39.1,39.4l8.7,5.8c1.7-4-0.6-1.6-2.3-2.9C43.6,40.9,41.4,38.9,39.1,39.4z"/>
					</g>
					<polygon fill="#847536" points="41.5,46.7 9.2,46.7 9.2,37.5 37.6,37.5 					"/>
					<polygon fill="#A3924B" points="41.5,46.7 9.2,46.7 9.2,37.5 21.7,46 					"/>
					<polygon fill="#9DB8BA" points="22.2,45.1 28,43.2 30.9,44.4 41.3,45.6 40,39.1 28.2,36.6 23.5,37.3 21.4,43.5 					"/>
					<g>
						<path fill="#C0DCE2" d="M22.2,45.1c1.5-2.7,3.2-8.8-1.3-11.5c-4.7-2.9-14.6-1.2-17.7,0.5L22.2,45.1z"/>
						<path fill="#D0EBEF" d="M21,33.6c-4.7-2.9-14.6-1.2-17.7,0.5"/>
						<path fill="#ABCACE" d="M3.4,34.2l18.6,10.8c2.9-8.5-1.5-3.3-5.2-5.6C12.8,36.8,8,32.9,3.4,34.2z"/>
						<path fill="#55797C" d="M6.7,35.2c5.1,3,0.6,0.9,0.4,1.2c-0.2,0.4,0.5,1.1-1.1,0.1c-1.7-1-2.9-2.1-2.7-2.4
							C3.5,33.8,5,34.2,6.7,35.2z"/>
					</g>
					<g>
						<path fill="#C0DCE2" d="M28,43.2c2-2.4,4.7-8.1,0.8-11.6C24.7,28,14.7,27.9,11.3,29L28,43.2z"/>
						<path fill="#D0EBEF" d="M28.8,31.7C24.7,28,14.7,27.9,11.3,29"/>
						<path fill="#ABCACE" d="M11.4,29.1L27.8,43c4.3-7.8-0.9-3.5-4.1-6.4C20.2,33.4,16.2,28.7,11.4,29.1z"/>
						<path fill="#55797C" d="M14.5,30.8c4.5,3.9,0.8,1.2,0.1,1.2c-0.4,0-1.1,0-1.1-0.1c-1.4-1.3-2.5-2.5-2.2-2.9
							C11.6,28.8,13,29.5,14.5,30.8z"/>
					</g>
					<g>
						<path fill="#C0DCE2" d="M30.9,44.4c3-0.7,8.6-3.7,7.5-8.9c-1.2-5.4-9.2-11.4-12.6-12.5L30.9,44.4z"/>
						<path fill="#D0EBEF" d="M38.4,35.5c-1.2-5.4-9.2-11.4-12.6-12.5"/>
						<path fill="#ABCACE" d="M25.8,23.2l5,20.9c8.1-3.8,1.3-3.4,0.5-7.6C30.4,31.8,29.9,25.6,25.8,23.2z"/>
						<path fill="#55797C" d="M27.4,26.3c2.4,7-0.3,4.4-0.8,3.9c-0.6-0.6-0.7-3.4-0.7-3.5c0-2.7-0.5-3.5-0.1-3.6
							C26.2,23,26.7,24.5,27.4,26.3z"/>
					</g>
					<g>
						<path fill="#C0DCE2" d="M41.2,45.9c-1.8-1.8-4.7-6.2-1.7-9.5c3.1-3.4,11.3-4.4,14.2-3.8L41.2,45.9z"/>
						<path fill="#ABCACE" d="M53.6,32.7l-12.2,13c-4.3-6,0.4-3,2.8-5.7C46.8,37,49.6,32.8,53.6,32.7z"/>
					</g>
					<polygon fill="#C9B871" points="9.5,45.6 6.6,45.6 6.6,35.7 9.5,36.7 					"/>
					<polyline fill="#B2A15B" points="6.6,45.6 6.6,35.7 9.5,36.7 					"/>
				</g>
				<rect x="3" y="47.9" fill="#496066" width="4.6" height="1.9"/>
				<rect x="3.9" y="47.1" fill="#496066" width="4.6" height="1.9"/>
				<rect x="4.8" y="46.3" fill="#496066" width="4.6" height="1.9"/>
				<polygon fill="#647A82" points="57.7,49.9 51.8,49.9 51.8,47.6 55.9,47.6 				"/>
				<rect x="6.2" y="45.6" fill="#647A82" width="42.3" height="8.1"/>
				<polygon fill="#496066" points="52,53.7 48.5,53.7 48.5,45.6 52,47.6 				"/>
			</g>
			<rect x="1" y="48.7" fill="#6CB7D8" width="62" height="11"/>
			<rect x="1" y="53.7" fill="#36A3C9" width="62" height="6"/>
			<path fill="#94D4EA" d="M20,50.9c0,0.3-0.2,0.5-0.5,0.5H3.7c-0.3,0-0.5-0.2-0.5-0.5l0,0c0-0.3,0.2-0.5,0.5-0.5h15.7
				C19.7,50.3,20,50.6,20,50.9L20,50.9z"/>
			<path fill="#94D4EA" d="M60.8,50.9c0,0.3-0.2,0.5-0.5,0.5H44.5c-0.3,0-0.5-0.2-0.5-0.5l0,0c0-0.3,0.2-0.5,0.5-0.5h15.7
				C60.6,50.3,60.8,50.6,60.8,50.9L60.8,50.9z"/>
			<path fill="#94D4EA" d="M24.8,50.9c0,0.3-0.2,0.5-0.5,0.5h-2.2c-0.3,0-0.5-0.2-0.5-0.5l0,0c0-0.3,0.2-0.5,0.5-0.5h2.2
				C24.6,50.3,24.8,50.6,24.8,50.9L24.8,50.9z"/>
			<path fill="#94D4EA" d="M41.7,50.9c0,0.3-0.2,0.5-0.5,0.5H39c-0.3,0-0.5-0.2-0.5-0.5l0,0c0-0.3,0.2-0.5,0.5-0.5h2.2
				C41.4,50.3,41.7,50.6,41.7,50.9L41.7,50.9z"/>
			<path fill="#94D4EA" d="M30.2,50.9c0,0.3-0.2,0.5-0.5,0.5h-0.2c-0.3,0-0.5-0.2-0.5-0.5l0,0c0-0.3,0.2-0.5,0.5-0.5h0.2
				C30,50.3,30.2,50.6,30.2,50.9L30.2,50.9z"/>
			<path fill="#94D4EA" d="M35.3,50.9c0,0.3-0.2,0.5-0.5,0.5h-0.2c-0.3,0-0.5-0.2-0.5-0.5l0,0c0-0.3,0.2-0.5,0.5-0.5h0.2
				C35.1,50.3,35.3,50.6,35.3,50.9L35.3,50.9z"/>
		</g>
	</g>
	<g>
		<path fill="#E9F4F2" d="M26.6,14.1c-0.1-0.1-0.2-0.1-0.3-0.2c0-0.1,0-0.1,0-0.2c0-1.4-1.1-2.5-2.5-2.5c-1,0-1.8,0.6-2.2,1.4
			c-0.1,0-0.2,0-0.3,0c-0.3,0-0.5,0.1-0.8,0.2c-0.2-0.1-0.4-0.2-0.6-0.2c-0.7,0-1.2,0.6-1.2,1.2c0,0,0,0.1,0,0.1
			c-0.5,0.1-0.9,0.6-0.9,1.2c0,0.7,0.6,1.2,1.2,1.2c0.4,0,0.8-0.2,1-0.5c0.2,0.2,0.5,0.4,0.9,0.4c0.1,1,0.8,1.7,1.8,1.7
			c0.8,0,1.4-0.5,1.7-1.1c0.3,0.5,0.9,0.9,1.6,0.9c1,0,1.8-0.8,1.8-1.8C27.8,15.1,27.3,14.4,26.6,14.1z"/>
		<path fill="#E9F4F2" d="M54.2,12c-0.1-0.1-0.2-0.1-0.3-0.2c0-0.1,0-0.1,0-0.2c0-1.4-1.1-2.5-2.5-2.5c-1,0-1.8,0.6-2.2,1.4
			c-0.1,0-0.2,0-0.3,0c-0.3,0-0.5,0.1-0.8,0.2c-0.2-0.1-0.4-0.2-0.6-0.2c-0.7,0-1.2,0.6-1.2,1.2c0,0,0,0.1,0,0.1
			c-0.5,0.1-0.9,0.6-0.9,1.2c0,0.7,0.6,1.2,1.2,1.2c0.4,0,0.8-0.2,1-0.5c0.2,0.2,0.5,0.4,0.9,0.4c0.1,1,0.8,1.7,1.8,1.7
			c0.8,0,1.4-0.5,1.7-1.1c0.3,0.5,0.9,0.9,1.6,0.9c1,0,1.8-0.8,1.8-1.8C55.4,12.9,54.9,12.2,54.2,12z"/>
		<path fill="#E9F4F2" d="M39.3,20.1c0.1,0,0.1-0.1,0.2-0.1c0,0,0-0.1,0-0.1c0.2-0.8,1-1.4,1.9-1.2c0.6,0.1,1,0.6,1.2,1.1
			c0.1,0,0.1,0,0.2,0c0.2,0,0.3,0.1,0.4,0.2c0.1,0,0.2-0.1,0.4,0c0.4,0.1,0.7,0.5,0.6,0.9c0,0,0,0,0,0.1c0.3,0.2,0.5,0.5,0.4,0.8
			c-0.1,0.4-0.5,0.7-0.9,0.6c-0.3-0.1-0.4-0.2-0.5-0.5c-0.2,0.1-0.4,0.2-0.6,0.2c-0.2,0.6-0.7,0.9-1.3,0.8c-0.5-0.1-0.8-0.5-0.9-0.9
			c-0.3,0.3-0.7,0.4-1.1,0.3c-0.6-0.1-1-0.7-0.9-1.4C38.4,20.5,38.8,20.1,39.3,20.1z"/>
	</g>
</g>
</svg>
