<?xml version="1.0" encoding="utf-8"?>
<!-- Generator: Adobe Illustrator 16.0.0, SVG Export Plug-In . SVG Version: 6.00 Build 0)  -->
<!DOCTYPE svg PUBLIC "-//W3C//DTD SVG 1.1//EN" "http://www.w3.org/Graphics/SVG/1.1/DTD/svg11.dtd">
<svg version="1.1" id="Layer_1" xmlns="http://www.w3.org/2000/svg" xmlns:xlink="http://www.w3.org/1999/xlink" x="0px" y="0px"
	 width="64px" height="64px" viewBox="0 0 64 64" enable-background="new 0 0 64 64" xml:space="preserve">
<g>
	<path fill="#DBD0C1" d="M32.2,15.9c0,0.1-0.1,0.2-0.2,0.2l0,0c-0.1,0-0.2-0.1-0.2-0.2V9.2C31.8,9.1,31.9,9,32,9l0,0
		c0.1,0,0.2,0.1,0.2,0.2V15.9z"/>
	<g>
		<path fill="#E2D9CF" d="M32.1,14.8c-3.5,2.8-9.2,8-9.2,12c0,4.1,3.8,7.8,9.2,8.1V14.8z"/>
		<path fill="#EFE6DC" d="M32.1,14.8c-3.5,2.8-9.2,8-9.2,12"/>
		<path fill="#DBD0C1" d="M31.9,14.8c3.5,2.8,9.2,8,9.2,12c0,4.1-3.8,7.8-9.2,8.1V14.8z"/>
		<path fill="#CEC1B2" d="M31.9,14.8c3.5,2.8,9.2,8,9.2,12"/>
	</g>
	<path fill="#FF9700" d="M58.6,54.3C56.9,41.1,45.7,30.9,32,30.9S7.1,41.1,5.4,54.3H58.6z"/>
	<path fill="#FF7900" d="M58.6,54.3C56.9,41.1,45.7,30.9,32,30.9"/>
	<path fill="#FFBC00" d="M32,30.9c-13.7,0-24.9,10.2-26.6,23.5"/>
	<g>
		<path fill="#A59486" d="M43.6,28.5L43.6,28.5C43.6,28.4,43.6,28.4,43.6,28.5C43.6,28.4,43.6,28.4,43.6,28.5L43.6,28.5
			c-0.9,0.7-2.2,1.2-2.3,2.2V31v3.2h0.5v-1.9c0-0.4,0.3-0.8,0.8-0.8c0.4,0,0.8,0.3,0.8,0.8v1.9h0.4v-1.9c0-0.4,0.3-0.8,0.8-0.8
			s0.8,0.3,0.8,0.8v1.9h0.5V31v-0.4C45.8,29.7,44.5,29.1,43.6,28.5z"/>
		<path fill="#A59486" d="M20.4,28.5L20.4,28.5C20.4,28.4,20.4,28.4,20.4,28.5C20.4,28.4,20.4,28.4,20.4,28.5L20.4,28.5
			c-0.9,0.7-2.2,1.2-2.3,2.2V31v3.2h0.5v-1.9c0-0.4,0.3-0.8,0.8-0.8c0.4,0,0.8,0.3,0.8,0.8v1.9h0.4v-1.9c0-0.4,0.3-0.8,0.8-0.8
			s0.8,0.3,0.8,0.8v1.9h0.5V31v-0.4C22.6,29.7,21.3,29.1,20.4,28.5z"/>
	</g>
	<path fill="#D1C4B4" d="M47.2,53.1c0,0.2-0.1,0.3-0.3,0.3H17.1c-0.2,0-0.3-0.1-0.3-0.3V34.3c0-0.2,0.1-0.3,0.3-0.3h29.7
		c0.2,0,0.3,0.1,0.3,0.3V53.1z"/>
	<path fill="#DBD0C1" d="M43.8,53.1c0,0.2-0.1,0.3-0.2,0.3h-23c-0.1,0-0.2-0.1-0.2-0.3V34.3c0-0.2,0.1-0.3,0.2-0.3h23
		c0.1,0,0.2,0.1,0.2,0.3V53.1z"/>
	<path fill="#C9BCAD" d="M16.8,34.3c0-0.2,0.1-0.3,0.3-0.3h29.7c0.2,0,0.3,0.1,0.3,0.3v18.8c0,0.2-0.1,0.3-0.3,0.3"/>
	<path fill="#D6C7B9" d="M20.2,34.3v2.2l23.5,15V34.3c0-0.2-0.1-0.3-0.2-0.3h-23C20.3,34,20.2,34.1,20.2,34.3z"/>
	<g>
		<g>
			<path fill="#BCAEA2" d="M23.1,41.8c0-0.9-1.3-1.4-2.1-2v0c0,0,0,0,0,0c0,0,0,0,0,0v0c-0.8,0.6-2.1,1.1-2.1,2c0,0.1,0,0.1,0,0.2
				v10.8h4.1V42C23.1,42,23.1,41.9,23.1,41.8z"/>
			<path fill="#A59486" d="M21,40.6L21,40.6C21,40.6,21,40.6,21,40.6C21,40.6,21,40.6,21,40.6L21,40.6c-0.8,0.6-2,1.1-2.1,1.9v0.3
				v10h4.1v-10v-0.3C23,41.7,21.8,41.2,21,40.6z"/>
			<path fill="#7F7166" d="M21.9,52.8v-2.9c0-0.5-0.4-0.9-0.9-0.9H21c-0.5,0-0.9,0.4-0.9,0.9v2.9H21.9z"/>
			<path fill="#7F7166" d="M21.9,47v-2.9c0-0.5-0.4-0.9-0.9-0.9H21c-0.5,0-0.9,0.4-0.9,0.9V47H21.9z"/>
			<rect x="17.5" y="46.9" fill="#E8DED1" width="7.1" height="0.6"/>
		</g>
		<g>
			<path fill="#BCAEA2" d="M45,41.8c0-0.9-1.3-1.4-2.1-2v0c0,0,0,0,0,0c0,0,0,0,0,0v0c-0.8,0.6-2.1,1.1-2.1,2c0,0.1,0,0.1,0,0.2
				v10.8H45V42C45,42,45,41.9,45,41.8z"/>
			<path fill="#A59486" d="M42.9,40.6L42.9,40.6C42.9,40.6,42.9,40.6,42.9,40.6C42.9,40.6,42.9,40.6,42.9,40.6L42.9,40.6
				c-0.8,0.6-2,1.1-2.1,1.9v0.3v10H45v-10v-0.3C44.9,41.7,43.7,41.2,42.9,40.6z"/>
			<path fill="#7F7166" d="M43.8,52.8v-2.9c0-0.5-0.4-0.9-0.9-0.9h-0.1c-0.5,0-0.9,0.4-0.9,0.9v2.9H43.8z"/>
			<path fill="#7F7166" d="M43.8,47v-2.9c0-0.5-0.4-0.9-0.9-0.9h-0.1c-0.5,0-0.9,0.4-0.9,0.9V47H43.8z"/>
			<rect x="39.4" y="46.9" fill="#E8DED1" width="7.1" height="0.6"/>
		</g>
	</g>
	<path fill="#E8DED1" d="M39.5,52.4c0,0.5-0.4,1-1,1h-13c-0.5,0-1-0.4-1-1V31.8c0-0.5,0.4-1,1-1h13c0.5,0,1,0.4,1,1V52.4z"/>
	<path fill="#EFE7DC" d="M24.5,52.4V31.8c0-0.5,0.4-1,1-1"/>
	<path fill="#E2D9CF" d="M24.5,31.8c0-0.5,0.4-1,1-1h13c0.5,0,1,0.4,1,1v20.6c0,0.5-0.4,1-1,1"/>
	<rect x="28.6" y="36.2" fill="#BCAEA2" width="6.4" height="17.8"/>
	<rect x="28.6" y="37.1" fill="#D3C3B4" width="6.4" height="17.8"/>
	<path fill="#BCAEA2" d="M34.1,40.6c0-1-1.4-1.5-2.3-2.3v0c0,0,0,0,0,0c0,0,0,0,0,0v0c-0.9,0.7-2.3,1.3-2.3,2.3c0,0.1,0,0.2,0,0.2
		v12h4.6v-12C34.1,40.7,34.1,40.7,34.1,40.6z"/>
	<path fill="#A59486" d="M31.8,39.2L31.8,39.2C31.8,39.2,31.8,39.2,31.8,39.2C31.8,39.2,31.8,39.2,31.8,39.2L31.8,39.2
		c-0.9,0.7-2.2,1.2-2.3,2.2v0.3v11.1h4.6V41.7v-0.3C34,40.5,32.7,39.9,31.8,39.2z"/>
	<path fill="#7F7166" d="M32.8,52.8v-3.3c0-0.5-0.4-1-1-1h-0.1c-0.5,0-1,0.4-1,1v3.3H32.8z"/>
	<path fill="#7F7166" d="M32.8,46.4v-3.3c0-0.5-0.4-1-1-1h-0.1c-0.5,0-1,0.4-1,1v3.3H32.8z"/>
	<g>
		<path fill="#DBD0C1" d="M37.6,54.1H26V33.6h11.6V54.1z M27,53.1h9.7V34.6H27V53.1z"/>
	</g>
	<g>
		<g>
			<g>
				<path fill="#DBD0C1" d="M8.4,53.6c0,0.5-2.4,0.9-2.8,0.9l0,0c-0.5,0-2.8-0.4-2.8-0.9l2-33.5c0-0.5,0.4-0.9,0.9-0.9l0,0
					c0.5,0,0.9,0.4,0.9,0.9L8.4,53.6z"/>
				<path fill="#C4B8AB" d="M5.6,19.3L5.6,19.3c0.5,0,0.9,0.4,0.9,0.9l2,33.5c0,0.5-2.4,0.9-2.8,0.9l0,0"/>
				<path fill="#DBD0C1" d="M6.6,19.3c0,0.2-0.1,0.3-0.3,0.3H4.9c-0.2,0-0.3-0.1-0.3-0.3l0,0c0-0.2,0.1-0.3,0.3-0.3h1.3
					C6.4,19,6.6,19.1,6.6,19.3L6.6,19.3z"/>
				<path fill="#DBD0C1" d="M5,19.5V18c0-0.3,0.3-0.6,0.6-0.6c0.3,0,0.6,0.3,0.6,0.6v1.5h0.5v-2.6c0-0.5-0.4-1-1-1H5.5
					c-0.5,0-1,0.4-1,1v2.6H5z"/>
				<g>
					<path fill="#E8DED1" d="M8.4,42.9c0,0.1-0.1,0.3-0.3,0.3H3.1c-0.1,0-0.3-0.1-0.3-0.3l0,0c0-0.1,0.1-0.3,0.3-0.3h5.1
						C8.3,42.7,8.4,42.8,8.4,42.9L8.4,42.9z"/>
					<path fill="#F2EAE2" d="M8.4,42.9"/>
					<path fill="#F2EAE2" d="M3.1,43.2c-0.1,0-0.3-0.1-0.3-0.3l0,0c0-0.1,0.1-0.3,0.3-0.3h5.1"/>
				</g>
				<g>
					<path fill="#E8DED1" d="M8.4,34.7c0,0.1-0.1,0.3-0.3,0.3H3.1c-0.1,0-0.3-0.1-0.3-0.3l0,0c0-0.1,0.1-0.3,0.3-0.3h5.1
						C8.3,34.5,8.4,34.6,8.4,34.7L8.4,34.7z"/>
					<path fill="#F2EAE2" d="M8.4,34.7"/>
					<path fill="#F2EAE2" d="M3.1,35c-0.1,0-0.3-0.1-0.3-0.3l0,0c0-0.1,0.1-0.3,0.3-0.3h5.1"/>
				</g>
				<g>
					<path fill="#E8DED1" d="M8.4,26.6c0,0.1-0.1,0.3-0.3,0.3H3.1c-0.1,0-0.3-0.1-0.3-0.3l0,0c0-0.1,0.1-0.3,0.3-0.3h5.1
						C8.3,26.3,8.4,26.4,8.4,26.6L8.4,26.6z"/>
					<path fill="#F2EAE2" d="M8.4,26.6"/>
					<path fill="#F2EAE2" d="M3.1,26.8c-0.1,0-0.3-0.1-0.3-0.3l0,0c0-0.1,0.1-0.3,0.3-0.3h5.1"/>
				</g>
				<g>
					<path fill="#E8DED1" d="M6.9,19.6c0,0.1-0.1,0.3-0.3,0.3H4.5c-0.1,0-0.3-0.1-0.3-0.3l0,0c0-0.1,0.1-0.3,0.3-0.3h2.1
						C6.8,19.3,6.9,19.5,6.9,19.6L6.9,19.6z"/>
					<path fill="#F2EAE2" d="M6.9,19.6"/>
					<path fill="#F2EAE2" d="M4.5,19.9c-0.1,0-0.3-0.1-0.3-0.3l0,0c0-0.1,0.1-0.3,0.3-0.3h2.1"/>
				</g>
				<path fill="#E8DED1" d="M6.9,16.8c0,0.1,0,0.1-0.1,0.1H4.4c-0.1,0-0.1,0-0.1-0.1l0,0c0-0.1,0-0.1,0.1-0.1h2.4
					C6.9,16.7,6.9,16.7,6.9,16.8L6.9,16.8z"/>
				<path fill="#E8DED1" d="M5.9,15.7c0,0.2-0.1,0.3-0.3,0.3l0,0c-0.2,0-0.3-0.1-0.3-0.3l0,0c0-0.2,0.1-0.3,0.3-0.3l0,0
					C5.8,15.4,5.9,15.5,5.9,15.7L5.9,15.7z"/>
				<path fill="#DBD0C1" d="M5.7,15.6C5.7,15.6,5.6,15.7,5.7,15.6L5.7,15.6c-0.1,0.1-0.2,0.1-0.2,0v-2.1c0-0.1,0-0.1,0.1-0.1l0,0
					c0.1,0,0.1,0,0.1,0.1V15.6z"/>
			</g>
			<path fill="#8E7C69" d="M15,45.2h0.3c0.1,0,0.2-0.1,0.2-0.2c0-0.1-0.1-0.2-0.2-0.2h-0.3l-0.4-6.3h0.7c0.1,0,0.2-0.1,0.2-0.2
				S15.3,38,15.2,38h-0.7l-0.4-6.3h1.1c0.1,0,0.2-0.1,0.2-0.2s-0.1-0.2-0.2-0.2h-1.1l-0.3-5.1c0-0.1,0-0.1,0-0.2H14
				c0.1,0,0.2-0.1,0.2-0.2c0-0.1-0.1-0.2-0.2-0.2v-2h0.1c0,0,0.1,0,0.1-0.1c0,0,0-0.1-0.1-0.1H14c-0.1-0.4-0.4-0.6-0.8-0.6h0
				c0.1,0,0.2-0.1,0.2-0.2c0-0.1-0.1-0.2-0.2-0.2v-1.5c0,0,0-0.1-0.1-0.1c0,0-0.1,0-0.1,0.1v1.5c-0.1,0-0.2,0.1-0.2,0.2
				c0,0.1,0.1,0.2,0.2,0.2h0c-0.4,0-0.7,0.3-0.8,0.6h-0.1c0,0-0.1,0-0.1,0.1c0,0,0,0.1,0.1,0.1h0.1v2c-0.1,0-0.2,0.1-0.2,0.2
				c0,0.1,0.1,0.2,0.2,0.2h0.2c0,0.1,0,0.1,0,0.2l-0.3,5.1H11c-0.1,0-0.2,0.1-0.2,0.2s0.1,0.2,0.2,0.2h1.1L11.7,38H11
				c-0.1,0-0.2,0.1-0.2,0.2s0.1,0.2,0.2,0.2h0.7l-0.4,6.3H11c-0.1,0-0.2,0.1-0.2,0.2c0,0.1,0.1,0.2,0.2,0.2h0.3l-0.5,8.6
				c0,0.4,1.9,0.7,2.3,0.7c0.4,0,2.3-0.3,2.3-0.7L15,45.2z M13.6,25.1h-1v-0.8c0-0.3,0.2-0.5,0.5-0.5c0.3,0,0.5,0.2,0.5,0.5V25.1z"
				/>
		</g>
		<g>
			<g>
				<path fill="#DBD0C1" d="M55.6,53.6c0,0.5,2.4,0.9,2.8,0.9l0,0c0.5,0,2.8-0.4,2.8-0.9l-2-33.5c0-0.5-0.4-0.9-0.9-0.9l0,0
					c-0.5,0-0.9,0.4-0.9,0.9L55.6,53.6z"/>
				<path fill="#C4B8AB" d="M58.4,19.3L58.4,19.3c-0.5,0-0.9,0.4-0.9,0.9l-2,33.5c0,0.5,2.4,0.9,2.8,0.9l0,0"/>
				<path fill="#DBD0C1" d="M57.4,19.3c0,0.2,0.1,0.3,0.3,0.3h1.3c0.2,0,0.3-0.1,0.3-0.3l0,0c0-0.2-0.1-0.3-0.3-0.3h-1.3
					C57.6,19,57.4,19.1,57.4,19.3L57.4,19.3z"/>
				<path fill="#DBD0C1" d="M59,19.5V18c0-0.3-0.3-0.6-0.6-0.6c-0.3,0-0.6,0.3-0.6,0.6v1.5h-0.5v-2.6c0-0.5,0.4-1,1-1h0.2
					c0.5,0,1,0.4,1,1v2.6H59z"/>
				<g>
					<path fill="#E8DED1" d="M55.6,42.9c0,0.1,0.1,0.3,0.3,0.3h5.1c0.1,0,0.3-0.1,0.3-0.3l0,0c0-0.1-0.1-0.3-0.3-0.3h-5.1
						C55.7,42.7,55.6,42.8,55.6,42.9L55.6,42.9z"/>
					<path fill="#F2EAE2" d="M55.6,42.9"/>
					<path fill="#F2EAE2" d="M60.9,43.2c0.1,0,0.3-0.1,0.3-0.3l0,0c0-0.1-0.1-0.3-0.3-0.3h-5.1"/>
				</g>
				<g>
					<path fill="#E8DED1" d="M55.6,34.7c0,0.1,0.1,0.3,0.3,0.3h5.1c0.1,0,0.3-0.1,0.3-0.3l0,0c0-0.1-0.1-0.3-0.3-0.3h-5.1
						C55.7,34.5,55.6,34.6,55.6,34.7L55.6,34.7z"/>
					<path fill="#F2EAE2" d="M55.6,34.7"/>
					<path fill="#F2EAE2" d="M60.9,35c0.1,0,0.3-0.1,0.3-0.3l0,0c0-0.1-0.1-0.3-0.3-0.3h-5.1"/>
				</g>
				<g>
					<path fill="#E8DED1" d="M55.6,26.6c0,0.1,0.1,0.3,0.3,0.3h5.1c0.1,0,0.3-0.1,0.3-0.3l0,0c0-0.1-0.1-0.3-0.3-0.3h-5.1
						C55.7,26.3,55.6,26.4,55.6,26.6L55.6,26.6z"/>
					<path fill="#F2EAE2" d="M55.6,26.6"/>
					<path fill="#F2EAE2" d="M60.9,26.8c0.1,0,0.3-0.1,0.3-0.3l0,0c0-0.1-0.1-0.3-0.3-0.3h-5.1"/>
				</g>
				<g>
					<path fill="#E8DED1" d="M57.1,19.6c0,0.1,0.1,0.3,0.3,0.3h2.1c0.1,0,0.3-0.1,0.3-0.3l0,0c0-0.1-0.1-0.3-0.3-0.3h-2.1
						C57.2,19.3,57.1,19.5,57.1,19.6L57.1,19.6z"/>
					<path fill="#F2EAE2" d="M57.1,19.6"/>
					<path fill="#F2EAE2" d="M59.5,19.9c0.1,0,0.3-0.1,0.3-0.3l0,0c0-0.1-0.1-0.3-0.3-0.3h-2.1"/>
				</g>
				<path fill="#E8DED1" d="M57.1,16.8c0,0.1,0,0.1,0.1,0.1h2.4c0.1,0,0.1,0,0.1-0.1l0,0c0-0.1,0-0.1-0.1-0.1h-2.4
					C57.1,16.7,57.1,16.7,57.1,16.8L57.1,16.8z"/>
				<path fill="#E8DED1" d="M58.1,15.7c0,0.2,0.1,0.3,0.3,0.3l0,0c0.2,0,0.3-0.1,0.3-0.3l0,0c0-0.2-0.1-0.3-0.3-0.3l0,0
					C58.2,15.4,58.1,15.5,58.1,15.7L58.1,15.7z"/>
				<path fill="#DBD0C1" d="M58.3,15.6C58.3,15.6,58.4,15.7,58.3,15.6L58.3,15.6c0.1,0.1,0.2,0.1,0.2,0v-2.1c0-0.1,0-0.1-0.1-0.1
					l0,0c-0.1,0-0.1,0-0.1,0.1V15.6z"/>
			</g>
			<path fill="#8E7C69" d="M48.5,53.7c0,0.4,1.9,0.7,2.3,0.7c0.4,0,2.3-0.3,2.3-0.7l-0.5-8.6H53c0.1,0,0.2-0.1,0.2-0.2
				c0-0.1-0.1-0.2-0.2-0.2h-0.3l-0.4-6.3H53c0.1,0,0.2-0.1,0.2-0.2S53.1,38,53,38h-0.7l-0.4-6.3H53c0.1,0,0.2-0.1,0.2-0.2
				s-0.1-0.2-0.2-0.2h-1.1l-0.3-5.1c0-0.1,0-0.1,0-0.2h0.2c0.1,0,0.2-0.1,0.2-0.2c0-0.1-0.1-0.2-0.2-0.2v-2h0.1c0,0,0.1,0,0.1-0.1
				c0,0,0-0.1-0.1-0.1h-0.1c-0.1-0.4-0.4-0.6-0.8-0.6h0c0.1,0,0.2-0.1,0.2-0.2c0-0.1-0.1-0.2-0.2-0.2v-1.5c0,0,0-0.1-0.1-0.1
				c0,0-0.1,0-0.1,0.1v1.5c-0.1,0-0.2,0.1-0.2,0.2c0,0.1,0.1,0.2,0.2,0.2h0c-0.4,0-0.7,0.3-0.8,0.6h-0.1c0,0-0.1,0-0.1,0.1
				c0,0,0,0.1,0.1,0.1H50v2c-0.1,0-0.2,0.1-0.2,0.2c0,0.1,0.1,0.2,0.2,0.2h0.2c0,0.1,0,0.1,0,0.2l-0.3,5.1h-1.1
				c-0.1,0-0.2,0.1-0.2,0.2s0.1,0.2,0.2,0.2h1.1L49.5,38h-0.7c-0.1,0-0.2,0.1-0.2,0.2s0.1,0.2,0.2,0.2h0.7l-0.4,6.3h-0.3
				c-0.1,0-0.2,0.1-0.2,0.2c0,0.1,0.1,0.2,0.2,0.2H49L48.5,53.7z M50.4,24.3c0-0.3,0.2-0.5,0.5-0.5c0.3,0,0.5,0.2,0.5,0.5v0.8h-1
				V24.3z"/>
		</g>
	</g>
	<path fill="#7F7F7F" d="M63.5,53.7c0,0.6-0.4,1-1,1h-61c-0.6,0-1-0.4-1-1l0,0c0-0.6,0.4-1,1-1h61C63.1,52.7,63.5,53.1,63.5,53.7
		L63.5,53.7z"/>
	<path fill="#E8DED1" d="M40.6,30.7c0,0.2-0.2,0.4-0.4,0.4H23.8c-0.2,0-0.4-0.2-0.4-0.4l0,0c0-0.2,0.2-0.4,0.4-0.4h16.4
		C40.4,30.4,40.6,30.5,40.6,30.7L40.6,30.7z"/>
	<path fill="#E2D9CF" d="M34.7,17.1c-1-0.9-1.9-1.7-2.7-2.3v2.3H34.7z"/>
	<path fill="#DBD0C1" d="M34.7,17.1L34.7,17.1c-1-0.9-1.9-1.7-2.7-2.3l1.8,2.3H34.7z"/>
	<path fill="#DBD0C1" d="M32.1,17.1v-2.3c-0.8,0.7-1.8,1.4-2.7,2.3H32.1z"/>
	<path fill="#E2D9CF" d="M30.3,17.1l1.8-2.3c-0.8,0.7-1.8,1.4-2.7,2.3l0,0H30.3z"/>
	<path fill="#DBD0C1" d="M32.8,15c0,0.1-0.1,0.2-0.2,0.2h-1c-0.1,0-0.2-0.1-0.2-0.2l0,0c0-0.1,0.1-0.2,0.2-0.2h1
		C32.7,14.7,32.8,14.8,32.8,15L32.8,15z"/>
	<rect x="28.1" y="46.2" fill="#E8DED1" width="7.9" height="0.7"/>
	<g>
		<path fill="#A59486" d="M23,30.9c0,0.1-0.1,0.2-0.2,0.2H18c-0.1,0-0.2-0.1-0.2-0.2l0,0c0-0.1,0.1-0.2,0.2-0.2h4.8
			C22.9,30.8,23,30.8,23,30.9L23,30.9z"/>
		<path fill="#A59486" d="M46.2,30.9c0,0.1-0.1,0.2-0.2,0.2h-4.8c-0.1,0-0.2-0.1-0.2-0.2l0,0c0-0.1,0.1-0.2,0.2-0.2H46
			C46.1,30.8,46.2,30.8,46.2,30.9L46.2,30.9z"/>
	</g>
	<path fill="#DBD0C1" d="M32.1,27.3h-9.1c0.3,3.2,2.8,6,6.6,7.1h2.6V27.3z"/>
	<path fill="#CEC1B2" d="M31.9,27.3v7.1h2.6c3.7-1.1,6.3-3.9,6.6-7.1H31.9z"/>
</g>
</svg>
