<?xml version="1.0" encoding="utf-8"?>
<!-- Generator: Adobe Illustrator 16.0.0, SVG Export Plug-In . SVG Version: 6.00 Build 0)  -->
<!DOCTYPE svg PUBLIC "-//W3C//DTD SVG 1.1//EN" "http://www.w3.org/Graphics/SVG/1.1/DTD/svg11.dtd">
<svg version="1.1" id="Layer_1" xmlns="http://www.w3.org/2000/svg" xmlns:xlink="http://www.w3.org/1999/xlink" x="0px" y="0px"
	 width="64px" height="64px" viewBox="0 0 64 64" enable-background="new 0 0 64 64" xml:space="preserve">
<g>
	<polygon fill="#03605B" points="59.5,51.5 57,54.1 55.6,52.7 54.1,54.2 52.7,54.2 51.7,55.3 41.3,55.3 39.2,53.2 37.5,53.2 
		36.6,52.2 35.9,52.2 34,50.3 32.4,51.8 32.1,51.5 32.1,51.2 32,51.4 31.9,51.2 31.9,51.5 31.6,51.8 30,50.3 28.1,52.2 27.4,52.2 
		26.5,53.2 24.8,53.2 22.7,55.3 12.3,55.3 11.3,54.2 9.9,54.2 8.4,52.7 7,54.1 4.5,51.5 1,55 1,57.1 1,63 31.9,63 32.1,63 63,63 
		63,57.1 63,55 	"/>
	<g>
		<g>
			<g>
				<path fill="#F2A50A" d="M38.5,45.5c0,2,2.9,13.7,0.9,13.7H24.6c-2,0,0.9-11.7,0.9-13.7L20,30c0-2,1.6-3.6,3.6-3.6h16.7
					c2,0,3.6,1.6,3.6,3.6L38.5,45.5z"/>
				<path fill="#EF980C" d="M40.4,26.4c2,0,3.6,1.6,3.6,3.6l-5.5,15.5c0,2,2.9,13.7,0.9,13.7H24.6c-2,0,0.9-11.7,0.9-13.7"/>
				<path fill="#EF8E0C" d="M44,30l-5.5,15.5c0,2,2.9,13.7,0.9,13.7H24.6c-2,0,0.9-11.7,0.9-13.7"/>
				<path fill="#AF083F" d="M52.6,61c0,1.1-0.9,2-2,2H13.4c-1.1,0-2-0.9-2-2v-2.7c0-1.1,0.9-2,2-2h37.2c1.1,0,2,0.9,2,2V61z"/>
				<path fill="#C60047" d="M11.4,58.3c0-1.1,0.9-2,2-2h37.2c1.1,0,2,0.9,2,2"/>
				<path fill="#F2A50A" d="M35.7,34.2c0,1.2-1.7,2.3-3,2.3h-1.4c-1.2,0-3-1-3-2.3L29,23.4c0-1.2,1-2.3,2.3-2.3h1.4
					c1.3,0,2.3,1,2.3,2.3L35.7,34.2z"/>
				<path fill="#EF8E0C" d="M29,23.4c0-1.2,1-2.3,2.3-2.3h1.4c1.3,0,2.3,1,2.3,2.3l0.7,10.8c0,1.2-1.7,2.3-3,2.3"/>
				<path fill="#F2A50A" d="M37.8,14.3c0.1-0.1,0.2-0.3,0.2-0.5c0-0.5-0.4-0.9-0.9-0.9h-0.4c0-0.5-0.2-1-0.6-1.4l-3.8-9.9
					c-0.8-0.8-0.2-0.8-1,0l-3.8,9.9c-0.4,0.4-0.6,0.9-0.6,1.4c-0.5,0-0.8,0.4-0.8,0.9c0,0.2,0.1,0.3,0.2,0.5
					c-0.5,0.2-0.8,0.7-0.8,1.3v3.1c0,0.8,0.6,1.4,1.3,1.4c1,2.5,2.9,4.9,5.2,4.9s4.2-2.4,5.2-4.9c0.7,0,1.3-0.7,1.3-1.4v-3.1
					C38.6,15,38.2,14.6,37.8,14.3z"/>
				<path fill="#F2A50A" d="M26.1,13.8"/>
				<path fill="#EF980C" d="M32,25c2.3,0,4.2-2.4,5.2-4.9c0.7,0,1.3-0.7,1.3-1.4v-3.1c0-0.6-0.3-1-0.8-1.3c0.1-0.1,0.2-0.3,0.2-0.5
					c0-0.5-0.4-0.9-0.9-0.9h-0.4c0-0.5-0.2-1-0.6-1.4l-3.8-9.9c-0.8-0.8-0.2-0.8-1,0"/>
				<g>
					<path fill="#F7B90D" d="M22.6,59.1c0.3,2.4,20.3,2.4,22.7,2.1c2.4-0.3,4.2-2.4,4-4.9c-0.3-2.4-2.4-4.2-4.9-4
						C41.9,52.7,22.3,56.7,22.6,59.1z"/>
					<path fill="#F2A50A" d="M22.6,59.1c0.3,2.4,20.3,2.4,22.7,2.1c2.4-0.3,4.2-2.4,4-4.9"/>
					<path fill="#FFDB06" d="M41.4,59.1c-0.3,2.4-20.3,2.4-22.7,2.1c-2.4-0.3-4.2-2.4-4-4.9c0.3-2.4,2.4-4.2,4.9-4
						C22.1,52.7,41.7,56.7,41.4,59.1z"/>
					<path fill="#F9CB0B" d="M41.4,59.1c-0.3,2.4-20.3,2.4-22.7,2.1c-2.4-0.3-4.2-2.4-4-4.9"/>
				</g>
				<g>
					<g>
						<path fill="#F7B90D" d="M21.7,26.8c1.4,0,2.5,1.1,2.5,2.5l0,11c0,1.4-1.1,2.5-2.5,2.5l0,0c-1.4,0-2.5-1.1-2.5-2.5v-11
							C19.1,27.9,20.3,26.8,21.7,26.8L21.7,26.8z"/>
						<path fill="#F2A50A" d="M21.7,26.8L21.7,26.8c1.4,0,2.5,1.1,2.5,2.5l0,11c0,1.4-1.1,2.5-2.5,2.5l0,0c-1.4,0-2.5-1.1-2.5-2.5"
							/>
						<path fill="#F9CB0B" d="M20.7,38.2c1.3-0.5,11.8-3.8,12.4-2.5s-9.2,6.6-10.4,7.1s-2.7-0.1-3.3-1.3S19.5,38.8,20.7,38.2z"/>
						<path fill="#F7B90D" d="M33.1,35.7c0.5,1.3-9.2,6.6-10.4,7.1s-2.7-0.1-3.3-1.3"/>
					</g>
					<g>
						<path fill="#F2A50A" d="M42.3,26.8c-1.4,0-2.5,1.1-2.5,2.5l0,11c0,1.4,1.1,2.5,2.5,2.5l0,0c1.4,0,2.5-1.1,2.5-2.5l0-11
							C44.9,27.9,43.7,26.8,42.3,26.8L42.3,26.8z"/>
						<path fill="#EF980C" d="M42.3,26.8L42.3,26.8c-1.4,0-2.5,1.1-2.5,2.5l0,11c0,1.4,1.1,2.5,2.5,2.5l0,0c1.4,0,2.5-1.1,2.5-2.5"
							/>
						<path fill="#F9CB0B" d="M43.3,38.2c-1.3-0.5-11.8-3.8-12.4-2.5c-0.5,1.3,9.2,6.6,10.4,7.1c1.3,0.5,2.7-0.1,3.3-1.3
							S44.5,38.8,43.3,38.2z"/>
						<path fill="#F7B90D" d="M30.9,35.7c-0.5,1.3,9.2,6.6,10.4,7.1c1.3,0.5,2.7-0.1,3.3-1.3"/>
					</g>
				</g>
				<path fill="#F9CB0B" d="M34.6,35.3c0,1.5-1.2,0.6-2.6,0.6s-2.6,0.9-2.6-0.6c0-1.5,1.2-7.1,2.6-7.1S34.6,33.9,34.6,35.3z"/>
				<g>
					<circle fill="#F7B90D" cx="26.2" cy="21.4" r="0.9"/>
					<circle fill="#F7B90D" cx="37.8" cy="21.4" r="0.9"/>
				</g>
			</g>
			<path fill="#8E0939" d="M62.4,62c0,0.6-0.5,1-1,1H2.6c-0.6,0-1-0.5-1-1l0,0c0-0.6,0.5-1,1-1h58.7C61.9,60.9,62.4,61.4,62.4,62
				L62.4,62z"/>
		</g>
		<circle fill="#F7B90D" cx="31.8" cy="13.4" r="0.8"/>
		<g>
			<circle fill="#F7B90D" cx="31.8" cy="6.3" r="0.3"/>
			<circle fill="#F7B90D" cx="31.8" cy="8.6" r="0.3"/>
			<circle fill="#F7B90D" cx="31.8" cy="11" r="0.3"/>
		</g>
	</g>
</g>
</svg>
