<?xml version="1.0" encoding="utf-8"?>
<!-- Generator: Adobe Illustrator 16.0.0, SVG Export Plug-In . SVG Version: 6.00 Build 0)  -->
<!DOCTYPE svg PUBLIC "-//W3C//DTD SVG 1.1//EN" "http://www.w3.org/Graphics/SVG/1.1/DTD/svg11.dtd">
<svg version="1.1" id="Layer_1" xmlns="http://www.w3.org/2000/svg" xmlns:xlink="http://www.w3.org/1999/xlink" x="0px" y="0px"
	 width="64px" height="64px" viewBox="0 0 64 64" enable-background="new 0 0 64 64" xml:space="preserve">
<g>
	<g>
		<path fill="#1AC4FF" d="M58,17c-2.8-4.8-7.8-7.5-13-7.5C42.4,5,37.6,1.9,32,1.9S21.6,5,19,9.5c-5.2,0-10.2,2.7-13,7.5
			c-2.8,4.8-2.6,10.5,0,15c-2.6,4.5-2.8,10.2,0,15c2.8,4.8,7.8,7.5,13,7.5c2.6,4.5,7.4,7.5,13,7.5s10.4-3,13-7.5
			c5.2,0,10.2-2.7,13-7.5c2.8-4.8,2.6-10.5,0-15C60.6,27.5,60.8,21.8,58,17z"/>
	</g>
	<g>
		<g>
			<g>
				<path fill="#2F5068" d="M19,40.5c-2.8,0-5.5-0.7-8-2.1C3.4,33.9,0.7,24.1,5.1,16.5c2.8-4.9,8.2-8,13.9-8c2.8,0,5.5,0.7,8,2.1
					c7.6,4.4,10.3,14.2,5.9,21.8C30,37.4,24.7,40.5,19,40.5z M19,10.4c-5,0-9.7,2.7-12.2,7c-3.9,6.7-1.6,15.3,5.2,19.2
					c2.1,1.2,4.6,1.9,7,1.9c5,0,9.7-2.7,12.2-7c3.9-6.7,1.6-15.4-5.2-19.2C23.9,11.1,21.5,10.4,19,10.4z"/>
			</g>
			<g>
				<path fill="#2F5068" d="M45,55.5c-2.8,0-5.5-0.7-8-2.1c-3.7-2.1-6.3-5.6-7.4-9.7c-1.1-4.1-0.5-8.4,1.6-12.1
					c2.8-4.9,8.2-8,13.9-8c2.8,0,5.5,0.7,8,2.1c3.7,2.1,6.3,5.6,7.4,9.7c1.1,4.1,0.5,8.4-1.6,12.1C56,52.4,50.7,55.5,45,55.5z
					 M45,25.4c-5,0-9.7,2.7-12.2,7c-1.9,3.3-2.4,7-1.4,10.7c1,3.6,3.3,6.7,6.6,8.5c2.1,1.2,4.6,1.9,7,1.9c5,0,9.7-2.7,12.2-7
					c1.9-3.3,2.4-7,1.4-10.7c-1-3.6-3.3-6.7-6.6-8.5C49.9,26.1,47.5,25.4,45,25.4z"/>
			</g>
		</g>
		<g>
			<g>
				<g>
					<path fill="#2F5068" d="M32,33c-8.8,0-16-7.2-16-16c0-8.8,7.2-16,16-16c8.8,0,16,7.2,16,16C48,25.8,40.8,33,32,33z M32,2.9
						c-7.8,0-14.1,6.3-14.1,14.1S24.2,31.1,32,31.1c7.8,0,14.1-6.3,14.1-14.1S39.8,2.9,32,2.9z"/>
				</g>
				<g>
					<path fill="#2F5068" d="M32,63c-8.8,0-16-7.2-16-16c0-8.8,7.2-16,16-16c8.8,0,16,7.2,16,16C48,55.8,40.8,63,32,63z M32,32.9
						c-7.8,0-14.1,6.3-14.1,14.1S24.2,61.1,32,61.1c7.8,0,14.1-6.3,14.1-14.1S39.8,32.9,32,32.9z"/>
				</g>
			</g>
			<g>
				<g>
					<path fill="#2F5068" d="M19,55.5c-5.7,0-11-3.1-13.9-8C0.7,39.9,3.4,30.1,11,25.7c2.4-1.4,5.2-2.1,8-2.1c5.7,0,11,3.1,13.9,8
						c4.4,7.6,1.8,17.4-5.9,21.8C24.5,54.8,21.8,55.5,19,55.5z M19,25.4c-2.5,0-4.9,0.7-7,1.9c-6.7,3.9-9,12.5-5.2,19.2
						c2.5,4.3,7.2,7,12.2,7c2.5,0,4.9-0.7,7-1.9c6.7-3.9,9-12.5,5.2-19.2C28.7,28.1,24,25.4,19,25.4z"/>
				</g>
				<g>
					<path fill="#2F5068" d="M45,40.5c-5.7,0-11-3.1-13.9-8c-2.1-3.7-2.7-8-1.6-12.1s3.8-7.6,7.4-9.7c2.4-1.4,5.2-2.1,8-2.1
						c5.7,0,11,3.1,13.9,8c2.1,3.7,2.7,8,1.6,12.1c-1.1,4.1-3.8,7.6-7.5,9.7C50.6,39.7,47.8,40.5,45,40.5z M45,10.4
						c-2.5,0-4.9,0.7-7,1.9c-3.3,1.9-5.6,4.9-6.6,8.5c-1,3.6-0.5,7.4,1.4,10.7c2.5,4.3,7.2,7,12.2,7c2.5,0,4.9-0.7,7-1.9
						c3.3-1.9,5.6-4.9,6.6-8.5c1-3.6,0.5-7.4-1.4-10.7C54.7,13.1,50,10.4,45,10.4z"/>
				</g>
			</g>
		</g>
	</g>
	<g>
		<path fill="#EA789B" d="M46.1,17c0-2.4-0.6-4.6-1.6-6.5c-2.3,0.1-4.5,0.7-6.5,1.9c-2,1.2-3.7,2.8-4.9,4.7
			c1.7,3.1,2.2,6.8,1.6,10.3c2.7-2.3,6.1-3.6,9.7-3.8C45.5,21.6,46.1,19.3,46.1,17z"/>
		<path fill="#1DFAFF" d="M27,10.6c2.1,1.2,3.7,2.8,5,4.6c1.3-1.8,3-3.4,5-4.6c1.9-1.1,4.1-1.8,6.3-2C40.7,5.1,36.6,2.9,32,2.9
			c-4.6,0-8.7,2.3-11.3,5.7C22.9,8.8,25,9.5,27,10.6z"/>
		<path fill="#1AC4FF" d="M20.7,8.6c2.2,0.2,4.3,0.9,6.3,2c2.1,1.2,3.7,2.8,5,4.6c1.3-1.8,3-3.4,5-4.6c1.9-1.1,4.1-1.8,6.3-2"/>
		<path fill="#FF9100" d="M43.1,25.6c-3.7,0.5-7,2.4-9.3,5.3C37.6,30.4,40.9,28.4,43.1,25.6z"/>
		<path fill="#EA789B" d="M26.6,32c-3.4-1.2-6.2-3.5-8.1-6.5c-2.3,0.1-4.5,0.7-6.5,1.9c-2,1.2-3.7,2.8-4.9,4.7
			c1.2,1.9,2.8,3.5,4.9,4.7c2,1.2,4.2,1.8,6.5,1.9C20.4,35.5,23.2,33.2,26.6,32z"/>
		<path fill="#1DFAFF" d="M6.8,17.5c-2.3,4-2.4,8.7-0.7,12.6c1.3-1.7,2.9-3.3,4.9-4.4c2-1.1,4.2-1.8,6.5-2.1c-0.9-2-1.5-4.3-1.5-6.6
			c0-2.3,0.5-4.5,1.4-6.5C13,11,9,13.6,6.8,17.5z"/>
		<path fill="#1AC4FF" d="M6.1,30.1c1.3-1.7,2.9-3.3,4.9-4.4c2-1.1,4.2-1.8,6.5-2.1c-0.9-2-1.5-4.3-1.5-6.6c0-2.3,0.5-4.5,1.4-6.5"
			/>
		<path fill="#FFE600" d="M43.1,38.4c-2.2-2.9-5.5-4.8-9.3-5.4C36.1,36,39.5,37.9,43.1,38.4z"/>
		<path fill="#1DFAFF" d="M37,53.4c-2-1.2-3.7-2.7-5-4.6c-1.3,1.8-3,3.4-5,4.6c-1.9,1.1-4.1,1.8-6.3,2c2.6,3.5,6.7,5.7,11.3,5.7
			c4.6,0,8.7-2.3,11.3-5.7C41.1,55.2,38.9,54.5,37,53.4z"/>
		<path fill="#1AC4FF" d="M43.3,55.4c-2.2-0.2-4.3-0.9-6.3-2c-2-1.2-3.7-2.7-5-4.6c-1.3,1.8-3,3.4-5,4.6c-1.9,1.1-4.1,1.8-6.3,2"/>
		<path fill="#1DFAFF" d="M11,38.3c-2-1.1-3.6-2.7-4.9-4.4c-1.7,4-1.6,8.6,0.7,12.6C9,50.4,13,53,17.4,53.5c-0.9-2-1.4-4.2-1.4-6.5
			c0-2.4,0.5-4.6,1.5-6.6C15.2,40.2,13,39.5,11,38.3z"/>
		<path fill="#1AC4FF" d="M17.4,53.5c-0.9-2-1.4-4.2-1.4-6.5c0-2.4,0.5-4.6,1.5-6.6c-2.3-0.2-4.5-0.9-6.5-2.1
			c-2-1.1-3.6-2.7-4.9-4.4"/>
		<path fill="#1DFAFF" d="M57.2,46.6c1.9-3.3,2.4-7,1.4-10.7c-0.2-0.7-0.4-1.3-0.7-2c-1.3,1.8-2.9,3.3-4.9,4.4
			c-2,1.1-4.2,1.8-6.5,2.1c0.9,2,1.5,4.3,1.5,6.6c0,2.3-0.5,4.5-1.4,6.5C51,53,55,50.4,57.2,46.6z"/>
		<path fill="#1AC4FF" d="M57.9,33.9c-1.3,1.8-2.9,3.3-4.9,4.4c-2,1.1-4.2,1.8-6.5,2.1c0.9,2,1.5,4.3,1.5,6.6c0,2.3-0.5,4.5-1.4,6.5
			"/>
		<path fill="#FFA9C8" d="M56.9,32c-1.2-1.9-2.9-3.5-4.9-4.7c-2-1.2-4.2-1.8-6.5-1.9c-1.9,3-4.7,5.3-8.1,6.5
			c3.4,1.2,6.2,3.5,8.1,6.6c2.3-0.1,4.5-0.7,6.5-1.9C54.1,35.5,55.7,33.9,56.9,32z"/>
		<path fill="#EA789B" d="M46.1,47c0-2.4-0.6-4.6-1.6-6.6c-3.6-0.1-7-1.5-9.7-3.8c0.6,3.5,0,7.2-1.6,10.3c1.2,1.9,2.9,3.5,4.9,4.7
			c2,1.1,4.2,1.8,6.5,1.9C45.5,51.6,46.1,49.4,46.1,47z"/>
		<path fill="#FFA9C8" d="M26,51.7c2.1-1.2,3.7-2.8,4.9-4.7c-0.6-1.1-1-2.2-1.3-3.3c-0.6-2.3-0.7-4.7-0.3-7
			c-2.7,2.3-6.1,3.6-9.7,3.8c-1,2-1.6,4.2-1.6,6.6c0,2.4,0.6,4.6,1.6,6.6C21.8,53.5,24,52.8,26,51.7z"/>
		<path fill="#1DFAFF" d="M53,25.7c2,1.1,3.6,2.6,4.9,4.4c0.3-0.6,0.5-1.3,0.7-2c1-3.6,0.5-7.4-1.4-10.7C55,13.6,51,11,46.6,10.5
			c0.9,2,1.4,4.2,1.4,6.5c0,2.4-0.5,4.6-1.5,6.6C48.8,23.8,51,24.5,53,25.7z"/>
		<path fill="#1AC4FF" d="M46.6,10.5c0.9,2,1.4,4.2,1.4,6.5c0,2.4-0.5,4.6-1.5,6.6c2.3,0.2,4.5,0.9,6.5,2.1c2,1.1,3.6,2.6,4.9,4.4"
			/>
		<path fill="#FFE600" d="M20.9,38.4c3.7-0.5,7-2.4,9.3-5.4C26.4,33.6,23.1,35.6,20.9,38.4z"/>
		<path fill="#FFE600" d="M32,19.2c-0.2,0.5-0.4,1.1-0.6,1.7c-0.8,3-0.6,6.1,0.6,9C33.4,26.3,33.4,22.5,32,19.2z"/>
		<path fill="#FFA9C8" d="M17.9,17c0,2.4,0.6,4.6,1.6,6.6c3.6,0.1,7,1.5,9.7,3.8c-0.4-2.3-0.3-4.6,0.3-7c0.3-1.2,0.8-2.3,1.3-3.3
			c-1.2-1.9-2.8-3.5-4.9-4.7c-2-1.1-4.2-1.8-6.5-1.9C18.5,12.4,17.9,14.6,17.9,17z"/>
		<path fill="#FF9100" d="M31.4,43.2c0.2,0.6,0.4,1.1,0.6,1.7c1.4-3.3,1.4-7.2,0-10.7C30.8,37,30.6,40.1,31.4,43.2z"/>
		<path fill="#FF9100" d="M20.9,25.6c2.2,2.9,5.5,4.8,9.3,5.3C27.9,28,24.5,26.1,20.9,25.6z"/>
	</g>
</g>
</svg>
