<?xml version="1.0" encoding="utf-8"?>
<!-- Generator: Adobe Illustrator 16.0.0, SVG Export Plug-In . SVG Version: 6.00 Build 0)  -->
<!DOCTYPE svg PUBLIC "-//W3C//DTD SVG 1.1//EN" "http://www.w3.org/Graphics/SVG/1.1/DTD/svg11.dtd">
<svg version="1.1" id="Layer_1" xmlns="http://www.w3.org/2000/svg" xmlns:xlink="http://www.w3.org/1999/xlink" x="0px" y="0px"
	 width="64px" height="64px" viewBox="0 0 64 64" enable-background="new 0 0 64 64" xml:space="preserve">
<g>
	<g>
		<g>
			<g>
				<polygon fill="#4BF9F4" points="58,47.2 32,62.5 6,47.2 6,16.8 32,1.5 58,16.8 				"/>
				<polygon fill="#4DBFF7" points="32,62.5 58.1,47.4 32,32.4 5.9,47.4 				"/>
				<polyline fill="#CCFFFF" points="6,47 6,16.8 32.4,1.4 				"/>
				<polyline fill="#2FD1DD" points="31.8,1.5 58,16.8 58,47.2 31.7,62.5 				"/>
				<polygon fill="#0090E0" points="32,32.4 32,62.5 58.1,47.4 				"/>
				<polyline fill="#20B6CE" points="58,17 58,47.2 31.6,62.6 				"/>
				<polygon fill="#0074DD" points="44.9,39.6 31.7,62.5 58.1,47.4 				"/>
				<path fill="#2F5068" d="M32,63.5c-0.2,0-0.3,0-0.5-0.1L5.3,48.1C5,47.9,5,47.6,5,47.2V16.8c0-0.4,0-0.7,0.3-0.9L31.6,0.7
					c0.3-0.2,0.6-0.2,1,0l26.2,15.2c0.3,0.2,0.3,0.5,0.3,0.9v30.5c0,0.4,0,0.7-0.3,0.9L32.4,63.3C32.3,63.4,32.2,63.5,32,63.5z
					 M7,46.7l25,14.7l25-14.7V17.3L32,2.7L7,17.3V46.7z"/>
			</g>
		</g>
	</g>
	<g>
		<g>
			<path fill="#2F5068" d="M58.1,47.7c-0.2,0-0.6,0-0.7-0.1L32,33L6.4,47.8c-0.5,0.3-0.5,0-0.8-0.5S5.5,46,5.9,45.7L31.5,31
				c0.3-0.2,0.7-0.2,1,0l25.6,14.8c0.5,0.3,0.8,0.8,0.5,1.3C58.4,47.3,58.4,47.7,58.1,47.7z"/>
		</g>
		<g>
			<line fill="#EA789B" x1="32" y1="32" x2="32" y2="2"/>
			<path fill="#2F5068" d="M32,33c-0.6,0-1-0.4-1-1V2.1c0-0.6,0.4-1,1-1s1,0.4,1,1V32C33,32.6,32.6,33,32,33z"/>
		</g>
	</g>
	<g>
		<g>
			<path fill="#2F5068" d="M32,32.9c-0.2,0-0.3,0-0.5-0.1L6,18.1c-0.5-0.3-0.8-1.1-0.5-1.6s0.8-0.5,1.3-0.3L32,30.8l25.4-14.7
				c0.5-0.3,1,0,1.2,0.4c0.3,0.5-0.1,1.2-0.6,1.5L32.5,32.8C32.3,32.9,32.2,32.9,32,32.9z"/>
		</g>
		<g>
			<line fill="#76E83A" x1="32" y1="32" x2="32" y2="62"/>
			<path fill="#2F5068" d="M32,62.7c-0.6,0-1-0.4-1-1V31.8c0-0.6,0.4-1,1-1s1,0.4,1,1v29.9C33,62.2,32.6,62.7,32,62.7z"/>
		</g>
	</g>
</g>
</svg>
