<?xml version="1.0" encoding="utf-8"?>
<!-- Generator: Adobe Illustrator 16.0.0, SVG Export Plug-In . SVG Version: 6.00 Build 0)  -->
<!DOCTYPE svg PUBLIC "-//W3C//DTD SVG 1.1//EN" "http://www.w3.org/Graphics/SVG/1.1/DTD/svg11.dtd">
<svg version="1.1" id="Layer_1" xmlns="http://www.w3.org/2000/svg" xmlns:xlink="http://www.w3.org/1999/xlink" x="0px" y="0px"
	 width="64px" height="64px" viewBox="0 0 64 64" enable-background="new 0 0 64 64" xml:space="preserve">
<g>
	<g>
		<g>
			<path fill="#C3D7DD" d="M32.9,39.7c-0.2,0-0.5-0.2-0.5-0.4c0-0.3,0.2-0.5,0.4-0.6c0.6-0.1,1.2-0.2,1.8-0.5c0.2-0.1,0.5,0,0.7,0.3
				c0.1,0.3,0,0.5-0.3,0.7C34.3,39.4,33.6,39.6,32.9,39.7C32.9,39.7,32.9,39.7,32.9,39.7z M30.9,39.6C30.8,39.6,30.8,39.6,30.9,39.6
				c-0.8-0.1-1.5-0.3-2.1-0.7c-0.2-0.1-0.4-0.4-0.2-0.7s0.4-0.3,0.7-0.2c0.6,0.3,1.1,0.5,1.8,0.6c0.3,0,0.5,0.3,0.4,0.6
				C31.3,39.4,31.1,39.6,30.9,39.6z M36.5,38.1c-0.1,0-0.3-0.1-0.4-0.2c-0.2-0.2-0.2-0.5,0.1-0.7c0.5-0.4,0.9-0.9,1.2-1.4
				c0.2-0.2,0.5-0.3,0.7-0.1c0.2,0.2,0.3,0.5,0.1,0.7c-0.4,0.6-0.9,1.1-1.4,1.6C36.7,38,36.6,38.1,36.5,38.1z M27.3,37.9
				c-0.1,0-0.2,0-0.3-0.1c-0.5-0.5-1-1-1.4-1.7c-0.1-0.2-0.1-0.5,0.2-0.7c0.2-0.1,0.5-0.1,0.7,0.2c0.3,0.5,0.7,1,1.2,1.4
				c0.2,0.2,0.2,0.5,0,0.7C27.6,37.8,27.5,37.9,27.3,37.9z M38.6,34.8c0,0-0.1,0-0.1,0c-0.3-0.1-0.4-0.4-0.3-0.6
				c0.2-0.6,0.3-1.2,0.3-1.8c0-0.3,0.2-0.5,0.5-0.5c0.3,0,0.5,0.2,0.5,0.5c0,0.7-0.1,1.4-0.3,2.1C39,34.6,38.8,34.8,38.6,34.8z
				 M25.3,34.5c-0.2,0-0.4-0.2-0.5-0.4c-0.2-0.6-0.2-1.2-0.2-1.8l0-0.3c0-0.3,0.2-0.5,0.5-0.5c0.3,0,0.5,0.2,0.5,0.5l0,0.2
				c0,0.5,0.1,1.1,0.2,1.6c0.1,0.3-0.1,0.5-0.4,0.6C25.4,34.5,25.3,34.5,25.3,34.5z M38.8,31.3c-0.2,0-0.4-0.2-0.5-0.4
				c-0.1-0.6-0.3-1.2-0.6-1.7c-0.1-0.2,0-0.5,0.2-0.7c0.2-0.1,0.5,0,0.7,0.2c0.3,0.6,0.6,1.3,0.7,2c0.1,0.3-0.1,0.5-0.4,0.6
				C38.8,31.3,38.8,31.3,38.8,31.3z M25.4,30.6c-0.1,0-0.1,0-0.2,0c-0.3-0.1-0.4-0.4-0.3-0.6c0.2-0.7,0.6-1.3,1-1.9
				c0.2-0.2,0.5-0.3,0.7-0.1c0.2,0.2,0.3,0.5,0.1,0.7c-0.4,0.5-0.6,1.1-0.8,1.6C25.9,30.4,25.7,30.6,25.4,30.6z M36.9,27.9
				c-0.1,0-0.3,0-0.4-0.1c-0.4-0.4-0.9-0.8-1.5-1.1c-0.2-0.1-0.3-0.4-0.2-0.7c0.1-0.2,0.4-0.3,0.7-0.2c0.6,0.3,1.2,0.8,1.7,1.3
				c0.2,0.2,0.2,0.5,0,0.7C37.1,27.8,37,27.9,36.9,27.9z M27.7,27.3c-0.1,0-0.3-0.1-0.4-0.2c-0.2-0.2-0.1-0.5,0.1-0.7
				c0.6-0.4,1.2-0.8,1.8-1.1c0.3-0.1,0.5,0,0.7,0.3c0.1,0.3,0,0.5-0.3,0.7c-0.6,0.2-1.1,0.5-1.6,0.9C27.9,27.3,27.8,27.3,27.7,27.3z
				 M33.4,26c0,0-0.1,0-0.1,0c-0.4-0.1-0.9-0.1-1.3-0.1c-0.2,0-0.4,0-0.5,0c-0.3,0-0.5-0.2-0.5-0.5c0-0.3,0.2-0.5,0.5-0.5
				c0.2,0,0.4,0,0.7,0c0.5,0,1,0,1.5,0.1c0.3,0.1,0.4,0.3,0.4,0.6C33.8,25.8,33.6,26,33.4,26z"/>
		</g>
		<g>
			<path fill="#C3D7DD" d="M58.2,47.6c-0.2,0-0.4-0.1-0.5-0.3l-0.9-1.6c-0.1-0.2-0.1-0.5,0.2-0.7c0.2-0.1,0.5-0.1,0.7,0.2l1,1.7
				c0.1,0.2,0.1,0.3,0,0.5C58.5,47.5,58.4,47.6,58.2,47.6z M56.2,48h-2c-0.3,0-0.5-0.2-0.5-0.5c0-0.3,0.2-0.5,0.5-0.5h2
				c0.3,0,0.5,0.2,0.5,0.5C56.7,47.8,56.4,48,56.2,48z M52.2,48h-2c-0.3,0-0.5-0.2-0.5-0.5c0-0.3,0.2-0.5,0.5-0.5h2
				c0.3,0,0.5,0.2,0.5,0.5C52.7,47.8,52.4,48,52.2,48z M48.2,48h-2c-0.3,0-0.5-0.2-0.5-0.5c0-0.3,0.2-0.5,0.5-0.5h2
				c0.3,0,0.5,0.2,0.5,0.5C48.7,47.8,48.4,48,48.2,48z M44.2,48h-2c-0.3,0-0.5-0.2-0.5-0.5c0-0.3,0.2-0.5,0.5-0.5h2
				c0.3,0,0.5,0.2,0.5,0.5C44.7,47.8,44.4,48,44.2,48z M40.2,48h-2c-0.3,0-0.5-0.2-0.5-0.5c0-0.3,0.2-0.5,0.5-0.5h2
				c0.3,0,0.5,0.2,0.5,0.5C40.7,47.8,40.4,48,40.2,48z M36.2,48h-2c-0.3,0-0.5-0.2-0.5-0.5c0-0.3,0.2-0.5,0.5-0.5h2
				c0.3,0,0.5,0.2,0.5,0.5C36.7,47.8,36.4,48,36.2,48z M32.2,48h-2c-0.3,0-0.5-0.2-0.5-0.5c0-0.3,0.2-0.5,0.5-0.5h2
				c0.3,0,0.5,0.2,0.5,0.5C32.7,47.8,32.4,48,32.2,48z M28.2,48h-2c-0.3,0-0.5-0.2-0.5-0.5c0-0.3,0.2-0.5,0.5-0.5h2
				c0.3,0,0.5,0.2,0.5,0.5C28.7,47.8,28.4,48,28.2,48z M24.2,48h-2c-0.3,0-0.5-0.2-0.5-0.5c0-0.3,0.2-0.5,0.5-0.5h2
				c0.3,0,0.5,0.2,0.5,0.5C24.7,47.8,24.4,48,24.2,48z M20.2,48h-2c-0.3,0-0.5-0.2-0.5-0.5c0-0.3,0.2-0.5,0.5-0.5h2
				c0.3,0,0.5,0.2,0.5,0.5C20.7,47.8,20.4,48,20.2,48z M16.2,48h-2c-0.3,0-0.5-0.2-0.5-0.5c0-0.3,0.2-0.5,0.5-0.5h2
				c0.3,0,0.5,0.2,0.5,0.5C16.7,47.8,16.4,48,16.2,48z M12.2,48h-2c-0.3,0-0.5-0.2-0.5-0.5c0-0.3,0.2-0.5,0.5-0.5h2
				c0.3,0,0.5,0.2,0.5,0.5C12.7,47.8,12.4,48,12.2,48z M8.2,48h-2c-0.3,0-0.5-0.2-0.5-0.5c0-0.3,0.2-0.5,0.5-0.5h2
				c0.3,0,0.5,0.2,0.5,0.5C8.7,47.8,8.4,48,8.2,48z M6.7,46.1c-0.1,0-0.2,0-0.3-0.1c-0.2-0.1-0.3-0.4-0.2-0.7l1-1.7
				c0.1-0.2,0.4-0.3,0.7-0.2c0.2,0.1,0.3,0.4,0.2,0.7l-1,1.7C7,46.1,6.8,46.1,6.7,46.1z M56.2,44.2c-0.2,0-0.3-0.1-0.4-0.2l-1-1.7
				c-0.1-0.2-0.1-0.5,0.2-0.7c0.2-0.1,0.5-0.1,0.7,0.2l1,1.7c0.1,0.2,0.1,0.5-0.2,0.7C56.3,44.1,56.3,44.2,56.2,44.2z M8.7,42.7
				c-0.1,0-0.2,0-0.3-0.1c-0.2-0.1-0.3-0.4-0.2-0.7l1-1.7C9.4,40,9.7,39.9,10,40c0.2,0.1,0.3,0.4,0.2,0.7l-1,1.7
				C9,42.6,8.9,42.7,8.7,42.7z M54.1,40.7c-0.2,0-0.3-0.1-0.4-0.2l-1-1.7c-0.1-0.2-0.1-0.5,0.2-0.7c0.2-0.1,0.5-0.1,0.7,0.2l1,1.7
				c0.1,0.2,0.1,0.5-0.2,0.7C54.3,40.7,54.2,40.7,54.1,40.7z M10.7,39.2c-0.1,0-0.2,0-0.3-0.1c-0.2-0.1-0.3-0.4-0.2-0.7l1-1.7
				c0.1-0.2,0.4-0.3,0.7-0.2c0.2,0.1,0.3,0.4,0.2,0.7l-1,1.7C11.1,39.2,10.9,39.2,10.7,39.2z M52.1,37.3c-0.2,0-0.3-0.1-0.4-0.2
				l-1-1.7c-0.1-0.2-0.1-0.5,0.2-0.7c0.2-0.1,0.5-0.1,0.7,0.2l1,1.7c0.1,0.2,0.1,0.5-0.2,0.7C52.3,37.2,52.2,37.3,52.1,37.3z
				 M12.7,35.8c-0.1,0-0.2,0-0.3-0.1c-0.2-0.1-0.3-0.4-0.2-0.7l1-1.7c0.1-0.2,0.5-0.3,0.7-0.2c0.2,0.1,0.3,0.4,0.2,0.7l-1,1.7
				C13.1,35.7,12.9,35.8,12.7,35.8z M50.1,33.8c-0.2,0-0.3-0.1-0.4-0.2l-1-1.7c-0.1-0.2-0.1-0.5,0.2-0.7c0.2-0.1,0.5-0.1,0.7,0.2
				l1,1.7c0.1,0.2,0.1,0.5-0.2,0.7C50.3,33.8,50.2,33.8,50.1,33.8z M14.8,32.4c-0.1,0-0.2,0-0.3-0.1c-0.2-0.1-0.3-0.4-0.2-0.7l1-1.7
				c0.1-0.2,0.4-0.3,0.7-0.2c0.2,0.1,0.3,0.4,0.2,0.7l-1,1.7C15.1,32.3,14.9,32.4,14.8,32.4z M48.1,30.4c-0.2,0-0.3-0.1-0.4-0.2
				l-1-1.7c-0.1-0.2-0.1-0.5,0.2-0.7c0.2-0.1,0.5-0.1,0.7,0.2l1,1.7c0.1,0.2,0.1,0.5-0.2,0.7C48.2,30.3,48.1,30.4,48.1,30.4z
				 M16.8,28.9c-0.1,0-0.2,0-0.3-0.1c-0.2-0.1-0.3-0.4-0.2-0.7l1-1.7c0.1-0.2,0.4-0.3,0.7-0.2c0.2,0.1,0.3,0.4,0.2,0.7l-1,1.7
				C17.1,28.8,17,28.9,16.8,28.9z M46,26.9c-0.2,0-0.3-0.1-0.4-0.2l-1-1.7c-0.1-0.2-0.1-0.5,0.2-0.7c0.2-0.1,0.5-0.1,0.7,0.2l1,1.7
				c0.1,0.2,0.1,0.5-0.2,0.7C46.2,26.9,46.1,26.9,46,26.9z M18.8,25.5c-0.1,0-0.2,0-0.3-0.1c-0.2-0.1-0.3-0.4-0.2-0.7l1-1.7
				c0.1-0.2,0.4-0.3,0.7-0.2c0.2,0.1,0.3,0.4,0.2,0.7l-1,1.7C19.2,25.4,19,25.5,18.8,25.5z M44,23.5c-0.2,0-0.3-0.1-0.4-0.2l-1-1.7
				c-0.1-0.2-0.1-0.5,0.2-0.7c0.2-0.1,0.5-0.1,0.7,0.2l1,1.7c0.1,0.2,0.1,0.5-0.2,0.7C44.2,23.4,44.1,23.5,44,23.5z M20.9,22
				c-0.1,0-0.2,0-0.3-0.1c-0.2-0.1-0.3-0.4-0.2-0.7l1-1.7c0.1-0.2,0.4-0.3,0.7-0.2c0.2,0.1,0.3,0.4,0.2,0.7l-1,1.7
				C21.2,21.9,21,22,20.9,22z M42,20c-0.2,0-0.3-0.1-0.4-0.2l-1-1.7c-0.1-0.2-0.1-0.5,0.2-0.7c0.2-0.1,0.5-0.1,0.7,0.2l1,1.7
				c0.1,0.2,0.1,0.5-0.2,0.7C42.2,20,42.1,20,42,20z M22.9,18.6c-0.1,0-0.2,0-0.3-0.1c-0.2-0.1-0.3-0.4-0.2-0.7l1-1.7
				c0.1-0.2,0.4-0.3,0.7-0.2c0.2,0.1,0.3,0.4,0.2,0.7l-1,1.7C23.2,18.5,23.1,18.6,22.9,18.6z M40,16.6c-0.2,0-0.3-0.1-0.4-0.2
				l-1-1.7c-0.1-0.2-0.1-0.5,0.2-0.7c0.2-0.1,0.5-0.1,0.7,0.2l1,1.7c0.1,0.2,0.1,0.5-0.2,0.7C40.1,16.6,40,16.6,40,16.6z M24.9,15.1
				c-0.1,0-0.2,0-0.3-0.1c-0.2-0.1-0.3-0.4-0.2-0.7l1-1.7c0.1-0.2,0.4-0.3,0.7-0.2c0.2,0.1,0.3,0.4,0.2,0.7l-1,1.7
				C25.2,15,25.1,15.1,24.9,15.1z M37.9,13.1c-0.2,0-0.3-0.1-0.4-0.2l-1-1.7c-0.1-0.2-0.1-0.5,0.2-0.7c0.2-0.1,0.5-0.1,0.7,0.2
				l1,1.7c0.1,0.2,0.1,0.5-0.2,0.7C38.1,13.1,38,13.1,37.9,13.1z M26.9,11.7c-0.1,0-0.2,0-0.3-0.1c-0.2-0.1-0.3-0.4-0.2-0.7l1-1.7
				C27.7,8.9,28,8.9,28.2,9c0.2,0.1,0.3,0.4,0.2,0.7l-1,1.7C27.3,11.6,27.1,11.7,26.9,11.7z M35.9,9.7c-0.2,0-0.3-0.1-0.4-0.2
				l-1-1.7c-0.1-0.2-0.1-0.5,0.2-0.7c0.2-0.1,0.5-0.1,0.7,0.2l1,1.7c0.1,0.2,0.1,0.5-0.2,0.7C36.1,9.7,36,9.7,35.9,9.7z M29,8.2
				c-0.1,0-0.2,0-0.3-0.1c-0.2-0.1-0.3-0.4-0.2-0.7l1-1.7c0.1-0.2,0.4-0.3,0.7-0.2c0.2,0.1,0.3,0.4,0.2,0.7l-1,1.7
				C29.3,8.1,29.1,8.2,29,8.2z M33.9,6.2c-0.2,0-0.3-0.1-0.4-0.2l-1-1.7c-0.1-0.2-0.1-0.5,0.2-0.7c0.2-0.1,0.5-0.1,0.7,0.2l1,1.7
				c0.1,0.2,0.1,0.5-0.2,0.7C34,6.2,34,6.2,33.9,6.2z M31,4.8c-0.1,0-0.2,0-0.3-0.1c-0.2-0.1-0.3-0.4-0.2-0.7l1-1.7
				C31.7,2,32,2,32.3,2.1c0.2,0.1,0.3,0.4,0.2,0.7l-1,1.7C31.3,4.7,31.2,4.8,31,4.8z"/>
		</g>
	</g>
	<g>
		<g>
			<path fill="#EA789B" d="M32,62.7c-0.6,0-1-0.4-1-1V31.8c0-0.6,0.4-1,1-1s1,0.4,1,1v29.9C33,62.2,32.6,62.7,32,62.7z"/>
		</g>
		<g>
			<path fill="#EA789B" d="M32,63.5c-0.2,0-0.3,0-0.5-0.1L5.3,48.1C5,47.9,5,47.6,5,47.2V16.8c0-0.4,0-0.7,0.3-0.9L31.6,0.7
				c0.3-0.2,0.6-0.2,1,0l26.2,15.2c0.3,0.2,0.3,0.5,0.3,0.9v30.5c0,0.4,0,0.7-0.3,0.9L32.4,63.3C32.3,63.4,32.2,63.5,32,63.5z
				 M7,46.7l25,14.7l25-14.7V17.3L32,2.7L7,17.3V46.7z"/>
		</g>
		<g>
			<path fill="#EA789B" d="M32,48.1c-0.2,0-0.3,0-0.5-0.1l-12.9-7.4C18.3,40.4,18,40,18,39.7V24.9c0-0.4,0.3-0.7,0.6-0.9l12.9-7.4
				c0.3-0.2,0.7-0.2,1,0L45.4,24c0.3,0.2,0.6,0.5,0.6,0.9v14.8c0,0.4-0.3,0.7-0.6,0.9l-12.9,7.4C32.4,48,32.2,48.1,32,48.1z
				 M20,39.1l12,6.8l12-6.8V25.5l-12-6.8l-12,6.8V39.1z"/>
		</g>
		<g>
			<path fill="#EA789B" d="M32,32.9c-0.2,0-0.3,0-0.5-0.1L5.4,17.7c-0.5-0.3,0.2-0.8,0.5-1.2c0.3-0.5,0.4-0.6,0.9-0.3L32,30.8
				l25.5-14.7c0.5-0.3,1-0.2,1.3,0.3c0.3,0.5,0.1,1.2-0.4,1.5l-25.9,15C32.3,32.9,32.2,32.9,32,32.9z"/>
		</g>
	</g>
</g>
</svg>
