<?xml version="1.0" encoding="utf-8"?>
<!-- Generator: Adobe Illustrator 16.0.0, SVG Export Plug-In . SVG Version: 6.00 Build 0)  -->
<!DOCTYPE svg PUBLIC "-//W3C//DTD SVG 1.1//EN" "http://www.w3.org/Graphics/SVG/1.1/DTD/svg11.dtd">
<svg version="1.1" id="Layer_1" xmlns="http://www.w3.org/2000/svg" xmlns:xlink="http://www.w3.org/1999/xlink" x="0px" y="0px"
	 width="64px" height="64px" viewBox="0 0 64 64" enable-background="new 0 0 64 64" xml:space="preserve">
<g>
	<g>
		<g>
			<path fill="#C3D7DD" d="M6,47c-0.2,0-0.3-0.1-0.4-0.2c-0.1-0.2-0.1-0.5,0.2-0.7l0.8-0.5c-0.1,0-0.1,0-0.1-0.1
				c-0.2-0.1-0.3-0.4-0.2-0.7l1-1.7c0.1-0.2,0.4-0.3,0.7-0.2c0.2,0.1,0.3,0.4,0.2,0.7l-0.9,1.6l0.3-0.2C7.7,44.9,8,45,8.2,45.3
				c0.1,0.2,0.1,0.5-0.2,0.7l-1.7,1C6.2,47,6.1,47,6,47z M9.5,45c-0.2,0-0.3-0.1-0.4-0.2c-0.1-0.2-0.1-0.5,0.2-0.7l1.7-1
				c0.2-0.1,0.5-0.1,0.7,0.2c0.1,0.2,0.1,0.5-0.2,0.7l-1.7,1C9.7,45,9.6,45,9.5,45z M12.9,43c-0.2,0-0.3-0.1-0.4-0.2
				c-0.1-0.2-0.1-0.5,0.2-0.7l1.7-1c0.2-0.1,0.5-0.1,0.7,0.2c0.1,0.2,0.1,0.5-0.2,0.7l-1.7,1C13.1,43,13,43,12.9,43z M8.7,42.2
				c-0.1,0-0.2,0-0.3-0.1c-0.2-0.1-0.3-0.4-0.2-0.7l1-1.7c0.1-0.2,0.4-0.3,0.7-0.2c0.2,0.1,0.3,0.4,0.2,0.7l-1,1.7
				C9.1,42.1,8.9,42.2,8.7,42.2z M16.4,41c-0.2,0-0.3-0.1-0.4-0.2c-0.1-0.2-0.1-0.5,0.2-0.7l1.7-1c0.2-0.1,0.5-0.1,0.7,0.2
				c0.1,0.2,0.1,0.5-0.2,0.7l-1.7,1C16.6,41,16.5,41,16.4,41z M19.9,39c-0.2,0-0.3-0.1-0.4-0.2c-0.1-0.2-0.1-0.5,0.2-0.7l1.7-1
				c0.2-0.1,0.5-0.1,0.7,0.2c0.1,0.2,0.1,0.5-0.2,0.7l-1.7,1C20,39,20,39,19.9,39z M10.8,38.7c-0.1,0-0.2,0-0.3-0.1
				c-0.2-0.1-0.3-0.4-0.2-0.7l1-1.7c0.1-0.2,0.4-0.3,0.7-0.2c0.2,0.1,0.3,0.4,0.2,0.7l-1,1.7C11.1,38.6,10.9,38.7,10.8,38.7z
				 M23.3,37c-0.2,0-0.3-0.1-0.4-0.2c-0.1-0.2-0.1-0.5,0.2-0.7l1.7-1c0.2-0.1,0.5-0.1,0.7,0.2c0.1,0.2,0.1,0.5-0.2,0.7l-1.7,1
				C23.5,37,23.4,37,23.3,37z M12.8,35.3c-0.1,0-0.2,0-0.3-0.1c-0.2-0.1-0.3-0.4-0.2-0.7l1-1.7c0.1-0.2,0.4-0.3,0.7-0.2
				s0.3,0.4,0.2,0.7l-1,1.7C13.1,35.2,13,35.3,12.8,35.3z M26.8,35c-0.2,0-0.3-0.1-0.4-0.2c-0.1-0.2-0.1-0.5,0.2-0.7l1.7-1
				c0.2-0.1,0.5-0.1,0.7,0.2c0.1,0.2,0.1,0.5-0.2,0.7l-1.7,1C27,35,26.9,35,26.8,35z M30.3,33c-0.2,0-0.3-0.1-0.4-0.2
				c-0.1-0.2-0.1-0.5,0.2-0.7l1.7-1c0.2-0.1,0.5-0.1,0.7,0.2c0.1,0.2,0.1,0.5-0.2,0.7l-1.7,1C30.4,33,30.4,33,30.3,33z M14.8,31.8
				c-0.1,0-0.2,0-0.3-0.1c-0.2-0.1-0.3-0.4-0.2-0.7l1-1.7c0.1-0.2,0.4-0.3,0.7-0.2c0.2,0.1,0.3,0.4,0.2,0.7l-1,1.7
				C15.2,31.7,15,31.8,14.8,31.8z M32,30.7c-0.3,0-0.5-0.2-0.5-0.5v-2c0-0.3,0.2-0.5,0.5-0.5c0.3,0,0.5,0.2,0.5,0.5v2
				C32.5,30.5,32.3,30.7,32,30.7z M16.8,28.4c-0.1,0-0.2,0-0.3-0.1c-0.2-0.1-0.3-0.4-0.2-0.7l1-1.7c0.1-0.2,0.4-0.3,0.7-0.2
				c0.2,0.1,0.3,0.4,0.2,0.7l-1,1.7C17.2,28.3,17,28.4,16.8,28.4z M32,26.7c-0.3,0-0.5-0.2-0.5-0.5v-2c0-0.3,0.2-0.5,0.5-0.5
				c0.3,0,0.5,0.2,0.5,0.5v2C32.5,26.5,32.3,26.7,32,26.7z M18.9,24.9c-0.1,0-0.2,0-0.3-0.1c-0.2-0.1-0.3-0.4-0.2-0.7l1-1.7
				c0.1-0.2,0.5-0.3,0.7-0.2c0.2,0.1,0.3,0.4,0.2,0.7l-1,1.7C19.2,24.8,19,24.9,18.9,24.9z M32,22.7c-0.3,0-0.5-0.2-0.5-0.5v-2
				c0-0.3,0.2-0.5,0.5-0.5c0.3,0,0.5,0.2,0.5,0.5v2C32.5,22.5,32.3,22.7,32,22.7z M20.9,21.5c-0.1,0-0.2,0-0.3-0.1
				c-0.2-0.1-0.3-0.4-0.2-0.7l1-1.7c0.1-0.2,0.4-0.3,0.7-0.2c0.2,0.1,0.3,0.4,0.2,0.7l-1,1.7C21.2,21.4,21.1,21.5,20.9,21.5z
				 M32,18.7c-0.3,0-0.5-0.2-0.5-0.5v-2c0-0.3,0.2-0.5,0.5-0.5c0.3,0,0.5,0.2,0.5,0.5v2C32.5,18.5,32.3,18.7,32,18.7z M22.9,18
				c-0.1,0-0.2,0-0.3-0.1c-0.2-0.1-0.3-0.4-0.2-0.7l1-1.7c0.1-0.2,0.4-0.3,0.7-0.2c0.2,0.1,0.3,0.4,0.2,0.7l-1,1.7
				C23.3,17.9,23.1,18,22.9,18z M32,14.7c-0.3,0-0.5-0.2-0.5-0.5v-2c0-0.3,0.2-0.5,0.5-0.5c0.3,0,0.5,0.2,0.5,0.5v2
				C32.5,14.5,32.3,14.7,32,14.7z M25,14.6c-0.1,0-0.2,0-0.3-0.1c-0.2-0.1-0.3-0.4-0.2-0.7l1-1.7c0.1-0.2,0.4-0.3,0.7-0.2
				c0.2,0.1,0.3,0.4,0.2,0.7l-1,1.7C25.3,14.5,25.1,14.6,25,14.6z M27,11.1c-0.1,0-0.2,0-0.3-0.1c-0.2-0.1-0.3-0.4-0.2-0.7l1-1.7
				c0.1-0.2,0.5-0.3,0.7-0.2c0.2,0.1,0.3,0.4,0.2,0.7l-1,1.7C27.3,11,27.2,11.1,27,11.1z M32,10.7c-0.3,0-0.5-0.2-0.5-0.5v-2
				c0-0.3,0.2-0.5,0.5-0.5c0.3,0,0.5,0.2,0.5,0.5v2C32.5,10.5,32.3,10.7,32,10.7z M29,7.7c-0.1,0-0.2,0-0.3-0.1
				c-0.2-0.1-0.3-0.4-0.2-0.7l1-1.7C29.7,5,30,4.9,30.3,5c0.2,0.1,0.3,0.4,0.2,0.7l-1,1.7C29.3,7.6,29.2,7.7,29,7.7z M32,6.7
				c-0.3,0-0.5-0.2-0.5-0.5v-2c0-0.3,0.2-0.5,0.5-0.5c0.3,0,0.5,0.2,0.5,0.5v2C32.5,6.5,32.3,6.7,32,6.7z M31,4.2
				c-0.1,0-0.2,0-0.3-0.1c-0.2-0.1-0.3-0.4-0.2-0.7l1-1.6c0.1-0.2,0.3-0.3,0.6-0.2c0.2,0.1,0.4,0.3,0.4,0.5v0.1
				c0,0.2-0.1,0.3-0.2,0.4L31.5,4C31.4,4.1,31.2,4.2,31,4.2z"/>
		</g>
		<g>
			<path fill="#C3D7DD" d="M58,47c-0.1,0-0.2,0-0.2-0.1l-1.7-1c-0.2-0.1-0.3-0.4-0.2-0.7c0.1-0.2,0.4-0.3,0.7-0.2l0.3,0.2l-0.9-1.6
				c-0.1-0.2-0.1-0.5,0.2-0.7c0.2-0.1,0.5-0.1,0.7,0.2l1,1.7c0.1,0.2,0.1,0.5-0.2,0.7c0,0-0.1,0-0.1,0.1l0.8,0.5
				c0.2,0.1,0.3,0.4,0.2,0.7C58.3,46.9,58.2,47,58,47z M54.5,45c-0.1,0-0.2,0-0.2-0.1l-1.7-1c-0.2-0.1-0.3-0.4-0.2-0.7
				c0.1-0.2,0.4-0.3,0.7-0.2l1.7,1c0.2,0.1,0.3,0.4,0.2,0.7C54.9,44.9,54.7,45,54.5,45z M51.1,43c-0.1,0-0.2,0-0.2-0.1l-1.7-1
				c-0.2-0.1-0.3-0.4-0.2-0.7c0.1-0.2,0.4-0.3,0.7-0.2l1.7,1c0.2,0.1,0.3,0.4,0.2,0.7C51.4,42.9,51.2,43,51.1,43z M55.3,42.2
				c-0.2,0-0.3-0.1-0.4-0.2l-1-1.7c-0.1-0.2-0.1-0.5,0.2-0.7c0.2-0.1,0.5-0.1,0.7,0.2l1,1.7c0.1,0.2,0.1,0.5-0.2,0.7
				C55.4,42.1,55.3,42.2,55.3,42.2z M47.6,41c-0.1,0-0.2,0-0.2-0.1l-1.7-1c-0.2-0.1-0.3-0.4-0.2-0.7c0.1-0.2,0.4-0.3,0.7-0.2l1.7,1
				c0.2,0.1,0.3,0.4,0.2,0.7C47.9,40.9,47.8,41,47.6,41z M44.1,39c-0.1,0-0.2,0-0.2-0.1l-1.7-1c-0.2-0.1-0.3-0.4-0.2-0.7
				c0.1-0.2,0.4-0.3,0.7-0.2l1.7,1c0.2,0.1,0.3,0.4,0.2,0.7C44.5,38.9,44.3,39,44.1,39z M53.2,38.7c-0.2,0-0.3-0.1-0.4-0.2l-1-1.7
				c-0.1-0.2-0.1-0.5,0.2-0.7c0.2-0.1,0.5-0.1,0.7,0.2l1,1.7c0.1,0.2,0.1,0.5-0.2,0.7C53.4,38.7,53.3,38.7,53.2,38.7z M40.7,37
				c-0.1,0-0.2,0-0.2-0.1l-1.7-1c-0.2-0.1-0.3-0.4-0.2-0.7c0.1-0.2,0.4-0.3,0.7-0.2l1.7,1c0.2,0.1,0.3,0.4,0.2,0.7
				C41,36.9,40.8,37,40.7,37z M51.2,35.3c-0.2,0-0.3-0.1-0.4-0.2l-1-1.7c-0.1-0.2-0.1-0.5,0.2-0.7c0.2-0.1,0.5-0.1,0.7,0.2l1,1.7
				c0.1,0.2,0.1,0.5-0.2,0.7C51.4,35.2,51.3,35.3,51.2,35.3z M37.2,35c-0.1,0-0.2,0-0.2-0.1l-1.7-1c-0.2-0.1-0.3-0.4-0.2-0.7
				c0.1-0.2,0.4-0.3,0.7-0.2l1.7,1c0.2,0.1,0.3,0.4,0.2,0.7C37.5,34.9,37.4,35,37.2,35z M33.7,33c-0.1,0-0.2,0-0.2-0.1l-1.7-1
				c-0.2-0.1-0.3-0.4-0.2-0.7c0.1-0.2,0.4-0.3,0.7-0.2l1.7,1c0.2,0.1,0.3,0.4,0.2,0.7C34.1,32.9,33.9,33,33.7,33z M49.2,31.8
				c-0.2,0-0.3-0.1-0.4-0.2l-1-1.7c-0.1-0.2-0.1-0.5,0.2-0.7c0.2-0.1,0.5-0.1,0.7,0.2l1,1.7c0.1,0.2,0.1,0.5-0.2,0.7
				C49.4,31.8,49.3,31.8,49.2,31.8z M32,30.7c-0.3,0-0.5-0.2-0.5-0.5v-2c0-0.3,0.2-0.5,0.5-0.5c0.3,0,0.5,0.2,0.5,0.5v2
				C32.5,30.5,32.3,30.7,32,30.7z M47.2,28.4c-0.2,0-0.3-0.1-0.4-0.2l-1-1.7c-0.1-0.2-0.1-0.5,0.2-0.7c0.2-0.1,0.5-0.1,0.7,0.2
				l1,1.7c0.1,0.2,0.1,0.5-0.2,0.7C47.3,28.3,47.2,28.4,47.2,28.4z M32,26.7c-0.3,0-0.5-0.2-0.5-0.5v-2c0-0.3,0.2-0.5,0.5-0.5
				c0.3,0,0.5,0.2,0.5,0.5v2C32.5,26.5,32.3,26.7,32,26.7z M45.1,24.9c-0.2,0-0.3-0.1-0.4-0.2l-1-1.7c-0.1-0.2-0.1-0.5,0.2-0.7
				c0.2-0.1,0.5-0.1,0.7,0.2l1,1.7c0.1,0.2,0.1,0.5-0.2,0.7C45.3,24.9,45.2,24.9,45.1,24.9z M32,22.7c-0.3,0-0.5-0.2-0.5-0.5v-2
				c0-0.3,0.2-0.5,0.5-0.5c0.3,0,0.5,0.2,0.5,0.5v2C32.5,22.5,32.3,22.7,32,22.7z M43.1,21.5c-0.2,0-0.3-0.1-0.4-0.2l-1-1.7
				c-0.1-0.2-0.1-0.5,0.2-0.7c0.2-0.1,0.5-0.1,0.7,0.2l1,1.7c0.1,0.2,0.1,0.5-0.2,0.7C43.3,21.4,43.2,21.5,43.1,21.5z M32,18.7
				c-0.3,0-0.5-0.2-0.5-0.5v-2c0-0.3,0.2-0.5,0.5-0.5c0.3,0,0.5,0.2,0.5,0.5v2C32.5,18.5,32.3,18.7,32,18.7z M41.1,18
				c-0.2,0-0.3-0.1-0.4-0.2l-1-1.7c-0.1-0.2-0.1-0.5,0.2-0.7c0.2-0.1,0.5-0.1,0.7,0.2l1,1.7c0.1,0.2,0.1,0.5-0.2,0.7
				C41.2,18,41.2,18,41.1,18z M32,14.7c-0.3,0-0.5-0.2-0.5-0.5v-2c0-0.3,0.2-0.5,0.5-0.5c0.3,0,0.5,0.2,0.5,0.5v2
				C32.5,14.5,32.3,14.7,32,14.7z M39,14.6c-0.2,0-0.3-0.1-0.4-0.2l-1-1.7c-0.1-0.2-0.1-0.5,0.2-0.7c0.2-0.1,0.5-0.1,0.7,0.2l1,1.7
				c0.1,0.2,0.1,0.5-0.2,0.7C39.2,14.5,39.1,14.6,39,14.6z M37,11.1c-0.2,0-0.3-0.1-0.4-0.2l-1-1.7c-0.1-0.2-0.1-0.5,0.2-0.7
				c0.2-0.1,0.5-0.1,0.7,0.2l1,1.7c0.1,0.2,0.1,0.5-0.2,0.7C37.2,11.1,37.1,11.1,37,11.1z M32,10.7c-0.3,0-0.5-0.2-0.5-0.5v-2
				c0-0.3,0.2-0.5,0.5-0.5c0.3,0,0.5,0.2,0.5,0.5v2C32.5,10.5,32.3,10.7,32,10.7z M35,7.7c-0.2,0-0.3-0.1-0.4-0.2l-1-1.7
				c-0.1-0.2-0.1-0.5,0.2-0.7C34,4.9,34.3,5,34.4,5.2l1,1.7c0.1,0.2,0.1,0.5-0.2,0.7C35.2,7.6,35.1,7.7,35,7.7z M32,6.7
				c-0.3,0-0.5-0.2-0.5-0.5v-2c0-0.3,0.2-0.5,0.5-0.5c0.3,0,0.5,0.2,0.5,0.5v2C32.5,6.5,32.3,6.7,32,6.7z M33,4.2
				c-0.2,0-0.3-0.1-0.4-0.2l-0.8-1.4c-0.1-0.1-0.2-0.2-0.2-0.4V2.1c0-0.2,0.2-0.4,0.4-0.5c0.2-0.1,0.4,0,0.6,0.2l1,1.6
				c0.1,0.2,0.1,0.5-0.2,0.7C33.1,4.2,33,4.2,33,4.2z"/>
		</g>
		<g>
			<path fill="#C3D7DD" d="M58.2,47.1h-1.5c-0.3,0-0.5-0.2-0.5-0.5c0-0.3,0.2-0.5,0.5-0.5h0.7c0.1-0.2,0.4-0.3,0.7-0.2l0.4,0.2
				c0.2,0.1,0.3,0.3,0.2,0.6C58.6,47,58.4,47.1,58.2,47.1z M54.6,47.1h-2c-0.3,0-0.5-0.2-0.5-0.5c0-0.3,0.2-0.5,0.5-0.5h2
				c0.3,0,0.5,0.2,0.5,0.5C55.1,46.9,54.9,47.1,54.6,47.1z M50.6,47.1h-2c-0.3,0-0.5-0.2-0.5-0.5c0-0.3,0.2-0.5,0.5-0.5h2
				c0.3,0,0.5,0.2,0.5,0.5C51.1,46.9,50.9,47.1,50.6,47.1z M46.6,47.1h-2c-0.3,0-0.5-0.2-0.5-0.5c0-0.3,0.2-0.5,0.5-0.5h2
				c0.3,0,0.5,0.2,0.5,0.5C47.1,46.9,46.9,47.1,46.6,47.1z M42.6,47.1h-2c-0.3,0-0.5-0.2-0.5-0.5c0-0.3,0.2-0.5,0.5-0.5h2
				c0.3,0,0.5,0.2,0.5,0.5C43.1,46.9,42.9,47.1,42.6,47.1z M38.6,47.1h-2c-0.3,0-0.5-0.2-0.5-0.5c0-0.3,0.2-0.5,0.5-0.5h2
				c0.3,0,0.5,0.2,0.5,0.5C39.1,46.9,38.9,47.1,38.6,47.1z M34.6,47.1h-2c-0.3,0-0.5-0.2-0.5-0.5c0-0.3,0.2-0.5,0.5-0.5h2
				c0.3,0,0.5,0.2,0.5,0.5C35.1,46.9,34.9,47.1,34.6,47.1z M30.6,47.1h-2c-0.3,0-0.5-0.2-0.5-0.5c0-0.3,0.2-0.5,0.5-0.5h2
				c0.3,0,0.5,0.2,0.5,0.5C31.1,46.9,30.9,47.1,30.6,47.1z M26.6,47.1h-2c-0.3,0-0.5-0.2-0.5-0.5c0-0.3,0.2-0.5,0.5-0.5h2
				c0.3,0,0.5,0.2,0.5,0.5C27.1,46.9,26.9,47.1,26.6,47.1z M22.6,47.1h-2c-0.3,0-0.5-0.2-0.5-0.5c0-0.3,0.2-0.5,0.5-0.5h2
				c0.3,0,0.5,0.2,0.5,0.5C23.1,46.9,22.9,47.1,22.6,47.1z M18.6,47.1h-2c-0.3,0-0.5-0.2-0.5-0.5c0-0.3,0.2-0.5,0.5-0.5h2
				c0.3,0,0.5,0.2,0.5,0.5C19.1,46.9,18.9,47.1,18.6,47.1z M14.6,47.1h-2c-0.3,0-0.5-0.2-0.5-0.5c0-0.3,0.2-0.5,0.5-0.5h2
				c0.3,0,0.5,0.2,0.5,0.5C15.1,46.9,14.9,47.1,14.6,47.1z M10.6,47.1h-2c-0.3,0-0.5-0.2-0.5-0.5c0-0.3,0.2-0.5,0.5-0.5h2
				c0.3,0,0.5,0.2,0.5,0.5C11.1,46.9,10.9,47.1,10.6,47.1z M6.6,47.1H5.8c-0.2,0-0.4-0.2-0.5-0.4s0-0.4,0.2-0.6l1.7-1
				c0.2-0.1,0.5-0.1,0.7,0.2c0.1,0.2,0.1,0.5-0.2,0.7l-0.7,0.4c0,0.1,0,0.1,0,0.2C7.1,46.9,6.9,47.1,6.6,47.1z M56,45.9
				c-0.1,0-0.2,0-0.2-0.1l-1.7-1c-0.2-0.1-0.3-0.4-0.2-0.7c0.1-0.2,0.4-0.3,0.7-0.2l1.7,1c0.2,0.1,0.3,0.4,0.2,0.7
				C56.4,45.8,56.2,45.9,56,45.9z M9.3,45.1c-0.2,0-0.3-0.1-0.4-0.2c-0.1-0.2-0.1-0.5,0.2-0.7l1.7-1c0.2-0.1,0.5-0.1,0.7,0.2
				c0.1,0.2,0.1,0.5-0.2,0.7l-1.7,1C9.5,45.1,9.4,45.1,9.3,45.1z M52.6,43.9c-0.1,0-0.2,0-0.2-0.1l-1.7-1c-0.2-0.1-0.3-0.4-0.2-0.7
				c0.1-0.2,0.4-0.3,0.7-0.2l1.7,1c0.2,0.1,0.3,0.4,0.2,0.7C52.9,43.8,52.8,43.9,52.6,43.9z M12.7,43.1c-0.2,0-0.3-0.1-0.4-0.2
				c-0.1-0.2-0.1-0.5,0.2-0.7l1.7-1c0.2-0.1,0.5-0.1,0.7,0.2c0.1,0.2,0.1,0.5-0.2,0.7l-1.7,1C12.9,43.1,12.8,43.1,12.7,43.1z
				 M49.1,41.9c-0.1,0-0.2,0-0.2-0.1l-1.7-1c-0.2-0.1-0.3-0.4-0.2-0.7c0.1-0.2,0.4-0.3,0.7-0.2l1.7,1c0.2,0.1,0.3,0.4,0.2,0.7
				C49.5,41.8,49.3,41.9,49.1,41.9z M16.2,41.1c-0.2,0-0.3-0.1-0.4-0.2c-0.1-0.2-0.1-0.5,0.2-0.7l1.7-1c0.2-0.1,0.5-0.1,0.7,0.2
				c0.1,0.2,0.1,0.5-0.2,0.7l-1.7,1C16.4,41.1,16.3,41.1,16.2,41.1z M45.7,39.9c-0.1,0-0.2,0-0.2-0.1l-1.7-1
				c-0.2-0.1-0.3-0.4-0.2-0.7c0.1-0.2,0.4-0.3,0.7-0.2l1.7,1c0.2,0.1,0.3,0.4,0.2,0.7C46,39.8,45.8,39.9,45.7,39.9z M19.7,39.1
				c-0.2,0-0.3-0.1-0.4-0.2c-0.1-0.2-0.1-0.5,0.2-0.7l1.7-1c0.2-0.1,0.5-0.1,0.7,0.2c0.1,0.2,0.1,0.5-0.2,0.7l-1.7,1
				C19.8,39.1,19.8,39.1,19.7,39.1z M42.2,37.9c-0.1,0-0.2,0-0.2-0.1l-1.7-1c-0.2-0.1-0.3-0.4-0.2-0.7c0.1-0.2,0.4-0.3,0.7-0.2
				l1.7,1c0.2,0.1,0.3,0.4,0.2,0.7C42.5,37.8,42.4,37.9,42.2,37.9z M23.1,37.1c-0.2,0-0.3-0.1-0.4-0.2c-0.1-0.2-0.1-0.5,0.2-0.7
				l1.7-1c0.2-0.1,0.5-0.1,0.7,0.2c0.1,0.2,0.1,0.5-0.2,0.7l-1.7,1C23.3,37.1,23.2,37.1,23.1,37.1z M38.7,35.9c-0.1,0-0.2,0-0.2-0.1
				l-1.7-1c-0.2-0.1-0.3-0.4-0.2-0.7c0.1-0.2,0.4-0.3,0.7-0.2l1.7,1c0.2,0.1,0.3,0.4,0.2,0.7C39.1,35.8,38.9,35.9,38.7,35.9z
				 M26.6,35.1c-0.2,0-0.3-0.1-0.4-0.2c-0.1-0.2-0.1-0.5,0.2-0.7l1.7-1c0.2-0.1,0.5-0.1,0.7,0.2c0.1,0.2,0.1,0.5-0.2,0.7l-1.7,1
				C26.8,35.1,26.7,35.1,26.6,35.1z M35.3,33.9c-0.1,0-0.2,0-0.2-0.1l-1.7-1c-0.2-0.1-0.3-0.4-0.2-0.7c0.1-0.2,0.4-0.3,0.7-0.2
				l1.7,1c0.2,0.1,0.3,0.4,0.2,0.7C35.6,33.8,35.4,33.9,35.3,33.9z M30.1,33.1c-0.2,0-0.3-0.1-0.4-0.2c-0.1-0.2-0.1-0.5,0.2-0.7
				l1.7-1c0.2-0.1,0.5-0.1,0.7,0.2c0.1,0.2,0.1,0.5-0.2,0.7l-1.7,1C30.2,33.1,30.2,33.1,30.1,33.1z"/>
		</g>
	</g>
	<g>
		<g>
			<g>
				<g>
					<path fill="#973FBC" d="M32,63.5C14.6,63.5,0.5,49.4,0.5,32S14.6,0.5,32,0.5S63.5,14.6,63.5,32S49.4,63.5,32,63.5z M32,2.5
						C15.7,2.5,2.5,15.7,2.5,32c0,16.3,13.2,29.5,29.5,29.5S61.5,48.3,61.5,32C61.5,15.7,48.3,2.5,32,2.5z"/>
				</g>
			</g>
		</g>
		<g>
			<g>
				<path fill="#973FBC" d="M19.2,40.3c-0.3,0-0.5-0.1-0.7-0.3c-0.3-0.3-0.4-0.8-0.2-1.2L31.1,17c0.2-0.4,0.7,0.1,1.1,0.2
					c0.4,0.1,0.7-0.1,0.7,0.3v14.4c0,0.4-0.2,0.7-0.5,0.9l-12.8,7.4C19.6,40.2,19.4,40.3,19.2,40.3z M31,21.2l-9,15.3l9-5.2V21.2z"
					/>
			</g>
			<g>
				<path fill="#973FBC" d="M44.8,40.3c-0.2,0-0.3,0-0.5-0.1l-12.8-7.4c-0.3-0.2-0.5-0.5-0.5-0.9V17.6c0-0.5,0.3-0.5,0.7-0.6
					c0.4-0.1,0.9-0.3,1.1,0.1l12.8,21.7c0.2,0.4,0.2,0.9-0.2,1.2C45.3,40.2,45,40.3,44.8,40.3z M33,31.3l9,5.2l-9-15.3V31.3z"/>
			</g>
			<g>
				<path fill="#973FBC" d="M44.8,40.3C44.8,40.3,44.8,40.3,44.8,40.3H19.2c-0.5,0-0.8-0.3-1-0.7s0.1-0.9,0.5-1.1L31.5,31
					c0.3-0.2,0.7-0.2,1,0l12.7,7.3c0.4,0.1,0.6,0.5,0.6,0.9C45.8,39.8,45.3,40.3,44.8,40.3z M23,38.3H41l-9-5.2L23,38.3z"/>
			</g>
		</g>
		<g>
			<path fill="#973FBC" d="M32,63.2c-0.4,0-0.7-0.2-0.9-0.5L5,18.1c-0.2-0.3-0.2-0.7,0-1c0.2-0.3,0.5-0.5,0.9-0.5h52.4
				c0.4,0,0.7,0.2,0.9,0.5c0.2,0.3,0.2,0.7,0,1L32.9,62.7C32.7,63,32.4,63.2,32,63.2z M7.6,18.6L32,60.2l24.4-41.6H7.6z"/>
		</g>
	</g>
</g>
</svg>
