<?xml version="1.0" encoding="utf-8"?>
<!-- Generator: Adobe Illustrator 16.0.0, SVG Export Plug-In . SVG Version: 6.00 Build 0)  -->
<!DOCTYPE svg PUBLIC "-//W3C//DTD SVG 1.1//EN" "http://www.w3.org/Graphics/SVG/1.1/DTD/svg11.dtd">
<svg version="1.1" id="Layer_1" xmlns="http://www.w3.org/2000/svg" xmlns:xlink="http://www.w3.org/1999/xlink" x="0px" y="0px"
	 width="64px" height="64px" viewBox="0 0 64 64" enable-background="new 0 0 64 64" xml:space="preserve">
<g>
	<g>
		<g>
			<g>
				<path fill="#C3D7DD" d="M32,25.2c-0.3,0-0.5-0.2-0.5-0.5v-1c0-0.2,0.1-0.3,0.2-0.4l0.9-0.5c0.2-0.1,0.5-0.1,0.7,0.2
					c0.1,0.2,0.1,0.5-0.2,0.7L32.5,24v0.7C32.5,24.9,32.3,25.2,32,25.2z"/>
			</g>
			<g>
				<path fill="#C3D7DD" d="M34.5,22.7c-0.2,0-0.3-0.1-0.4-0.2c-0.1-0.2-0.1-0.5,0.2-0.7l1.7-1c0.2-0.1,0.5-0.1,0.7,0.2
					c0.1,0.2,0.1,0.5-0.2,0.7l-1.7,1C34.7,22.7,34.6,22.7,34.5,22.7z M37.9,20.7c-0.2,0-0.3-0.1-0.4-0.2c-0.1-0.2-0.1-0.5,0.2-0.7
					l1.7-1c0.2-0.1,0.5-0.1,0.7,0.2c0.1,0.2,0.1,0.5-0.2,0.7l-1.7,1C38.1,20.7,38,20.7,37.9,20.7z M41.3,18.8
					c-0.2,0-0.3-0.1-0.4-0.2c-0.1-0.2-0.1-0.5,0.2-0.7l1.7-1c0.2-0.1,0.5-0.1,0.7,0.2c0.1,0.2,0.1,0.5-0.2,0.7l-1.7,1
					C41.5,18.8,41.4,18.8,41.3,18.8z M44.7,16.8c-0.2,0-0.3-0.1-0.4-0.2c-0.1-0.2-0.1-0.5,0.2-0.7l1.7-1c0.2-0.1,0.5-0.1,0.7,0.2
					c0.1,0.2,0.1,0.5-0.2,0.7l-1.7,1C44.9,16.8,44.8,16.8,44.7,16.8z M48.1,14.9c-0.2,0-0.3-0.1-0.4-0.2c-0.1-0.2-0.1-0.5,0.2-0.7
					l1.7-1c0.2-0.1,0.5-0.1,0.7,0.2c0.1,0.2,0.1,0.5-0.2,0.7l-1.7,1C48.3,14.8,48.2,14.9,48.1,14.9z M51.5,12.9
					c-0.2,0-0.3-0.1-0.4-0.2c-0.1-0.2-0.1-0.5,0.2-0.7l1.7-1c0.2-0.1,0.5-0.1,0.7,0.2c0.1,0.2,0.1,0.5-0.2,0.7l-1.7,1
					C51.6,12.9,51.6,12.9,51.5,12.9z M54.9,11c-0.2,0-0.3-0.1-0.4-0.2c-0.1-0.2-0.1-0.5,0.2-0.7l1.7-1C56.5,8.9,56.8,9,57,9.2
					c0.1,0.2,0.1,0.5-0.2,0.7l-1.7,1C55,10.9,54.9,11,54.9,11z M58.2,9c-0.2,0-0.3-0.1-0.4-0.2c-0.1-0.2-0.1-0.5,0.2-0.7l1.7-1
					C59.9,7,60.2,7,60.4,7.3c0.1,0.2,0.1,0.5-0.2,0.7l-1.7,1C58.4,9,58.3,9,58.2,9z"/>
			</g>
			<g>
				<path fill="#C3D7DD" d="M62,7.4c-0.1,0-0.2,0-0.3-0.1c-0.1-0.1-0.2-0.2-0.2-0.3c-0.1,0-0.2-0.1-0.3-0.2
					c-0.1-0.2-0.1-0.5,0.2-0.7l0.9-0.5c0.2-0.1,0.4-0.1,0.6,0.1C63,5.9,63,6.1,62.9,6.3l-0.5,0.9C62.3,7.3,62.2,7.4,62,7.4z"/>
			</g>
			<g>
				<path fill="#C3D7DD" d="M33.5,55.9c-0.1,0-0.2,0-0.3-0.1c-0.2-0.1-0.3-0.4-0.2-0.7l1-1.7c0.1-0.2,0.4-0.3,0.7-0.2
					c0.2,0.1,0.3,0.4,0.2,0.7l-1,1.7C33.8,55.8,33.7,55.9,33.5,55.9z M35.5,52.4c-0.1,0-0.2,0-0.3-0.1c-0.2-0.1-0.3-0.4-0.2-0.7
					l1-1.7c0.1-0.2,0.4-0.3,0.7-0.2c0.2,0.1,0.3,0.4,0.2,0.7l-1,1.7C35.9,52.3,35.7,52.4,35.5,52.4z M37.6,48.9
					c-0.1,0-0.2,0-0.3-0.1c-0.2-0.1-0.3-0.4-0.2-0.7l1-1.7c0.1-0.2,0.4-0.3,0.7-0.2c0.2,0.1,0.3,0.4,0.2,0.7l-1,1.7
					C37.9,48.8,37.7,48.9,37.6,48.9z M39.6,45.5c-0.1,0-0.2,0-0.3-0.1c-0.2-0.1-0.3-0.4-0.2-0.7l1-1.7c0.1-0.2,0.4-0.3,0.7-0.2
					c0.2,0.1,0.3,0.4,0.2,0.7l-1,1.7C39.9,45.4,39.8,45.5,39.6,45.5z M41.6,42c-0.1,0-0.2,0-0.3-0.1c-0.2-0.1-0.3-0.4-0.2-0.7l1-1.7
					c0.1-0.2,0.4-0.3,0.7-0.2c0.2,0.1,0.3,0.4,0.2,0.7l-1,1.7C42,41.9,41.8,42,41.6,42z M43.7,38.6c-0.1,0-0.2,0-0.3-0.1
					c-0.2-0.1-0.3-0.4-0.2-0.7l1-1.7c0.1-0.2,0.4-0.3,0.7-0.2c0.2,0.1,0.3,0.4,0.2,0.7l-1,1.7C44,38.5,43.8,38.6,43.7,38.6z
					 M45.7,35.1c-0.1,0-0.2,0-0.3-0.1c-0.2-0.1-0.3-0.4-0.2-0.7l1-1.7c0.1-0.2,0.4-0.3,0.7-0.2c0.2,0.1,0.3,0.4,0.2,0.7l-1,1.7
					C46,35,45.9,35.1,45.7,35.1z M47.7,31.6c-0.1,0-0.2,0-0.3-0.1c-0.2-0.1-0.3-0.4-0.2-0.7l1-1.7c0.1-0.2,0.4-0.3,0.7-0.2
					c0.2,0.1,0.3,0.4,0.2,0.7l-1,1.7C48.1,31.5,47.9,31.6,47.7,31.6z M49.8,28.2c-0.1,0-0.2,0-0.3-0.1c-0.2-0.1-0.3-0.4-0.2-0.7
					l1-1.7c0.1-0.2,0.4-0.3,0.7-0.2c0.2,0.1,0.3,0.4,0.2,0.7l-1,1.7C50.1,28.1,50,28.2,49.8,28.2z M51.8,24.7c-0.1,0-0.2,0-0.3-0.1
					c-0.2-0.1-0.3-0.4-0.2-0.7l1-1.7c0.1-0.2,0.4-0.3,0.7-0.2c0.2,0.1,0.3,0.4,0.2,0.7l-1,1.7C52.2,24.6,52,24.7,51.8,24.7z
					 M53.9,21.2c-0.1,0-0.2,0-0.3-0.1c-0.2-0.1-0.3-0.4-0.2-0.7l1-1.7c0.1-0.2,0.4-0.3,0.7-0.2c0.2,0.1,0.3,0.4,0.2,0.7l-1,1.7
					C54.2,21.2,54,21.2,53.9,21.2z M55.9,17.8c-0.1,0-0.2,0-0.2-0.1c-0.2-0.1-0.3-0.4-0.2-0.7l1-1.7c0.1-0.2,0.4-0.3,0.7-0.2
					c0.2,0.1,0.3,0.4,0.2,0.7l-1,1.7C56.2,17.7,56.1,17.8,55.9,17.8z M57.9,14.3c-0.1,0-0.2,0-0.3-0.1c-0.2-0.1-0.3-0.4-0.2-0.7
					l1-1.7c0.1-0.2,0.4-0.3,0.7-0.2c0.2,0.1,0.3,0.4,0.2,0.7l-1,1.7C58.3,14.2,58.1,14.3,57.9,14.3z M60,10.9c-0.1,0-0.2,0-0.3-0.1
					c-0.2-0.1-0.3-0.4-0.2-0.7l1-1.7c0.1-0.2,0.4-0.3,0.7-0.2c0.2,0.1,0.3,0.4,0.2,0.7l-1,1.7C60.3,10.8,60.1,10.9,60,10.9z"/>
			</g>
			<g>
				<path fill="#C3D7DD" d="M32,58.4c0,0-0.1,0-0.1,0c-0.2-0.1-0.4-0.3-0.4-0.5v-1c0-0.3,0.2-0.5,0.5-0.5c0.1,0,0.3,0.1,0.4,0.2
					c0.1,0,0.3,0,0.4,0c0.2,0.1,0.3,0.4,0.2,0.7l-0.5,0.9C32.3,58.3,32.2,58.4,32,58.4z"/>
			</g>
			<g>
				<path fill="#C3D7DD" d="M32,55.5c-0.3,0-0.5-0.2-0.5-0.5v-1.9c0-0.3,0.2-0.5,0.5-0.5s0.5,0.2,0.5,0.5v1.9
					C32.5,55.3,32.3,55.5,32,55.5z M32,51.7c-0.3,0-0.5-0.2-0.5-0.5v-1.9c0-0.3,0.2-0.5,0.5-0.5s0.5,0.2,0.5,0.5v1.9
					C32.5,51.5,32.3,51.7,32,51.7z M32,47.9c-0.3,0-0.5-0.2-0.5-0.5v-1.9c0-0.3,0.2-0.5,0.5-0.5s0.5,0.2,0.5,0.5v1.9
					C32.5,47.7,32.3,47.9,32,47.9z M32,44.2c-0.3,0-0.5-0.2-0.5-0.5v-1.9c0-0.3,0.2-0.5,0.5-0.5s0.5,0.2,0.5,0.5v1.9
					C32.5,43.9,32.3,44.2,32,44.2z M32,40.3c-0.3,0-0.5-0.2-0.5-0.5V38c0-0.3,0.2-0.5,0.5-0.5s0.5,0.2,0.5,0.5v1.9
					C32.5,40.1,32.3,40.3,32,40.3z M32,36.6c-0.3,0-0.5-0.2-0.5-0.5v-1.9c0-0.3,0.2-0.5,0.5-0.5s0.5,0.2,0.5,0.5v1.9
					C32.5,36.3,32.3,36.6,32,36.6z M32,32.8c-0.3,0-0.5-0.2-0.5-0.5v-1.9c0-0.3,0.2-0.5,0.5-0.5s0.5,0.2,0.5,0.5v1.9
					C32.5,32.5,32.3,32.8,32,32.8z M32,29c-0.3,0-0.5-0.2-0.5-0.5v-1.9c0-0.3,0.2-0.5,0.5-0.5s0.5,0.2,0.5,0.5v1.9
					C32.5,28.7,32.3,29,32,29z"/>
			</g>
		</g>
		<g>
			<g>
				<path fill="#C3D7DD" d="M32,25.2c-0.3,0-0.5-0.2-0.5-0.5V24l-0.6-0.4c-0.2-0.1-0.3-0.4-0.2-0.7c0.1-0.2,0.4-0.3,0.7-0.2l0.9,0.5
					c0.2,0.1,0.2,0.3,0.2,0.4v1C32.5,24.9,32.3,25.2,32,25.2z"/>
			</g>
			<g>
				<path fill="#C3D7DD" d="M29.4,22.7c-0.1,0-0.2,0-0.2-0.1l-1.7-1c-0.2-0.1-0.3-0.4-0.2-0.7c0.1-0.2,0.4-0.3,0.7-0.2l1.7,1
					c0.2,0.1,0.3,0.4,0.2,0.7C29.8,22.6,29.6,22.7,29.4,22.7z M26.1,20.7c-0.1,0-0.2,0-0.2-0.1l-1.7-1c-0.2-0.1-0.3-0.4-0.2-0.7
					c0.1-0.2,0.4-0.3,0.7-0.2l1.7,1c0.2,0.1,0.3,0.4,0.2,0.7C26.4,20.6,26.2,20.7,26.1,20.7z M22.7,18.8c-0.1,0-0.2,0-0.2-0.1
					l-1.7-1c-0.2-0.1-0.3-0.4-0.2-0.7c0.1-0.2,0.4-0.3,0.7-0.2l1.7,1c0.2,0.1,0.3,0.4,0.2,0.7C23,18.7,22.8,18.8,22.7,18.8z
					 M19.3,16.8c-0.1,0-0.2,0-0.2-0.1l-1.7-1c-0.2-0.1-0.3-0.4-0.2-0.7c0.1-0.2,0.4-0.3,0.7-0.2l1.7,1c0.2,0.1,0.3,0.4,0.2,0.7
					C19.6,16.7,19.5,16.8,19.3,16.8z M15.9,14.9c-0.1,0-0.2,0-0.2-0.1l-1.7-1c-0.2-0.1-0.3-0.4-0.2-0.7c0.1-0.2,0.4-0.3,0.7-0.2
					l1.7,1c0.2,0.1,0.3,0.4,0.2,0.7C16.2,14.8,16.1,14.9,15.9,14.9z M12.5,12.9c-0.1,0-0.2,0-0.2-0.1l-1.7-1
					c-0.2-0.1-0.3-0.4-0.2-0.7c0.1-0.2,0.4-0.3,0.7-0.2l1.7,1c0.2,0.1,0.3,0.4,0.2,0.7C12.8,12.8,12.7,12.9,12.5,12.9z M9.1,11
					c-0.1,0-0.2,0-0.2-0.1l-1.7-1C6.9,9.8,6.9,9.5,7,9.2C7.1,9,7.4,8.9,7.7,9.1l1.7,1c0.2,0.1,0.3,0.4,0.2,0.7
					C9.5,10.9,9.3,11,9.1,11z M5.7,9C5.7,9,5.6,9,5.5,8.9L3.8,8C3.6,7.8,3.5,7.5,3.6,7.3C3.7,7,4.1,7,4.3,7.1l1.7,1
					c0.2,0.1,0.3,0.4,0.2,0.7C6.1,8.9,5.9,9,5.7,9z"/>
			</g>
			<g>
				<path fill="#C3D7DD" d="M2,7.4c-0.2,0-0.3-0.1-0.4-0.2L1.1,6.3C0.9,6.1,1,5.9,1.1,5.7c0.2-0.2,0.4-0.2,0.6-0.1l0.9,0.5
					c0.2,0.1,0.3,0.4,0.2,0.7C2.7,6.9,2.6,7,2.5,7c0,0.1-0.1,0.2-0.2,0.3C2.2,7.4,2.1,7.4,2,7.4z"/>
			</g>
			<g>
				<path fill="#C3D7DD" d="M30.5,55.9c-0.2,0-0.3-0.1-0.4-0.2l-1-1.7c-0.1-0.2-0.1-0.5,0.2-0.7c0.2-0.1,0.5-0.1,0.7,0.2l1,1.7
					c0.1,0.2,0.1,0.5-0.2,0.7C30.6,55.8,30.6,55.9,30.5,55.9z M28.4,52.4c-0.2,0-0.3-0.1-0.4-0.2l-1-1.7c-0.1-0.2-0.1-0.5,0.2-0.7
					c0.2-0.1,0.5-0.1,0.7,0.2l1,1.7c0.1,0.2,0.1,0.5-0.2,0.7C28.6,52.4,28.5,52.4,28.4,52.4z M26.4,48.9c-0.2,0-0.3-0.1-0.4-0.2
					L25,47c-0.1-0.2-0.1-0.5,0.2-0.7c0.2-0.1,0.5-0.1,0.7,0.2l1,1.7c0.1,0.2,0.1,0.5-0.2,0.7C26.6,48.9,26.5,48.9,26.4,48.9z
					 M24.4,45.5c-0.2,0-0.3-0.1-0.4-0.2l-1-1.7c-0.1-0.2-0.1-0.5,0.2-0.7c0.2-0.1,0.5-0.1,0.7,0.2l1,1.7c0.1,0.2,0.1,0.5-0.2,0.7
					C24.5,45.4,24.5,45.5,24.4,45.5z M22.3,42c-0.2,0-0.3-0.1-0.4-0.2l-1-1.7c-0.1-0.2-0.1-0.5,0.2-0.7c0.2-0.1,0.5-0.1,0.7,0.2
					l1,1.7c0.1,0.2,0.1,0.5-0.2,0.7C22.5,42,22.4,42,22.3,42z M20.3,38.6c-0.2,0-0.3-0.1-0.4-0.2l-1-1.7c-0.1-0.2-0.1-0.5,0.2-0.7
					c0.2-0.1,0.5-0.1,0.7,0.2l1,1.7c0.1,0.2,0.1,0.5-0.2,0.7C20.5,38.5,20.4,38.6,20.3,38.6z M18.3,35.1c-0.2,0-0.3-0.1-0.4-0.2
					l-1-1.7c-0.1-0.2-0.1-0.5,0.2-0.7c0.2-0.1,0.5-0.1,0.7,0.2l1,1.7c0.1,0.2,0.1,0.5-0.2,0.7C18.4,35.1,18.4,35.1,18.3,35.1z
					 M16.2,31.6c-0.2,0-0.3-0.1-0.4-0.2l-1-1.7c-0.1-0.2-0.1-0.5,0.2-0.7c0.2-0.1,0.5-0.1,0.7,0.2l1,1.7c0.1,0.2,0.1,0.5-0.2,0.7
					C16.4,31.6,16.3,31.6,16.2,31.6z M14.2,28.2c-0.2,0-0.3-0.1-0.4-0.2l-1-1.7c-0.1-0.2-0.1-0.5,0.2-0.7c0.2-0.1,0.5-0.1,0.7,0.2
					l1,1.7c0.1,0.2,0.1,0.5-0.2,0.7C14.4,28.1,14.3,28.2,14.2,28.2z M12.2,24.7c-0.2,0-0.3-0.1-0.4-0.2l-1-1.7
					c-0.1-0.2-0.1-0.5,0.2-0.7c0.2-0.1,0.5-0.1,0.7,0.2l1,1.7c0.1,0.2,0.1,0.5-0.2,0.7C12.3,24.7,12.3,24.7,12.2,24.7z M10.1,21.2
					c-0.2,0-0.3-0.1-0.4-0.2l-1-1.7c-0.1-0.2-0.1-0.5,0.2-0.7c0.2-0.1,0.5-0.1,0.7,0.2l1,1.7c0.1,0.2,0.1,0.5-0.2,0.7
					C10.3,21.2,10.2,21.2,10.1,21.2z M8.1,17.8c-0.2,0-0.3-0.1-0.4-0.2l-1-1.7c-0.1-0.2-0.1-0.5,0.2-0.7c0.2-0.1,0.5-0.1,0.7,0.2
					l1,1.7c0.1,0.2,0.1,0.5-0.2,0.7C8.3,17.8,8.2,17.8,8.1,17.8z M6.1,14.3c-0.2,0-0.3-0.1-0.4-0.2l-1-1.7c-0.1-0.2-0.1-0.5,0.2-0.7
					c0.2-0.1,0.5-0.1,0.7,0.2l1,1.7c0.1,0.2,0.1,0.5-0.2,0.7C6.2,14.3,6.1,14.3,6.1,14.3z M4,10.9c-0.2,0-0.3-0.1-0.4-0.2l-1-1.7
					C2.4,8.7,2.5,8.4,2.8,8.2C3,8.1,3.3,8.2,3.4,8.4l1,1.7c0.1,0.2,0.1,0.5-0.2,0.7C4.2,10.8,4.1,10.9,4,10.9z"/>
			</g>
			<g>
				<path fill="#C3D7DD" d="M32,58.4c-0.2,0-0.3-0.1-0.4-0.2l-0.5-0.9c-0.1-0.2-0.1-0.5,0.2-0.7c0.1-0.1,0.3-0.1,0.4,0
					c0.1-0.1,0.2-0.2,0.4-0.2c0.3,0,0.5,0.2,0.5,0.5v1c0,0.2-0.1,0.4-0.4,0.5C32.1,58.4,32,58.4,32,58.4z"/>
			</g>
			<g>
				<path fill="#C3D7DD" d="M32,55.5c-0.3,0-0.5-0.2-0.5-0.5v-1.9c0-0.3,0.2-0.5,0.5-0.5s0.5,0.2,0.5,0.5v1.9
					C32.5,55.3,32.3,55.5,32,55.5z M32,51.7c-0.3,0-0.5-0.2-0.5-0.5v-1.9c0-0.3,0.2-0.5,0.5-0.5s0.5,0.2,0.5,0.5v1.9
					C32.5,51.5,32.3,51.7,32,51.7z M32,47.9c-0.3,0-0.5-0.2-0.5-0.5v-1.9c0-0.3,0.2-0.5,0.5-0.5s0.5,0.2,0.5,0.5v1.9
					C32.5,47.7,32.3,47.9,32,47.9z M32,44.2c-0.3,0-0.5-0.2-0.5-0.5v-1.9c0-0.3,0.2-0.5,0.5-0.5s0.5,0.2,0.5,0.5v1.9
					C32.5,43.9,32.3,44.2,32,44.2z M32,40.3c-0.3,0-0.5-0.2-0.5-0.5V38c0-0.3,0.2-0.5,0.5-0.5s0.5,0.2,0.5,0.5v1.9
					C32.5,40.1,32.3,40.3,32,40.3z M32,36.6c-0.3,0-0.5-0.2-0.5-0.5v-1.9c0-0.3,0.2-0.5,0.5-0.5s0.5,0.2,0.5,0.5v1.9
					C32.5,36.3,32.3,36.6,32,36.6z M32,32.8c-0.3,0-0.5-0.2-0.5-0.5v-1.9c0-0.3,0.2-0.5,0.5-0.5s0.5,0.2,0.5,0.5v1.9
					C32.5,32.5,32.3,32.8,32,32.8z M32,29c-0.3,0-0.5-0.2-0.5-0.5v-1.9c0-0.3,0.2-0.5,0.5-0.5s0.5,0.2,0.5,0.5v1.9
					C32.5,28.7,32.3,29,32,29z"/>
			</g>
		</g>
		<g>
			<g>
				<path fill="#C3D7DD" d="M61.6,7c-0.2,0-0.3-0.1-0.4-0.2c-0.1-0.1-0.1-0.3,0-0.4C61.1,6.3,61,6.2,61,6.1c0-0.3,0.2-0.5,0.5-0.5h1
					c0.2,0,0.4,0.2,0.5,0.4s0,0.4-0.2,0.6L61.9,7C61.8,7,61.7,7,61.6,7z"/>
			</g>
			<g>
				<path fill="#C3D7DD" d="M34.5,22.7c-0.2,0-0.3-0.1-0.4-0.2c-0.1-0.2-0.1-0.5,0.2-0.7l1.7-1c0.2-0.1,0.5-0.1,0.7,0.2
					c0.1,0.2,0.1,0.5-0.2,0.7l-1.7,1C34.7,22.7,34.6,22.7,34.5,22.7z M37.9,20.7c-0.2,0-0.3-0.1-0.4-0.2c-0.1-0.2-0.1-0.5,0.2-0.7
					l1.7-1c0.2-0.1,0.5-0.1,0.7,0.2c0.1,0.2,0.1,0.5-0.2,0.7l-1.7,1C38.1,20.7,38,20.7,37.9,20.7z M41.3,18.8
					c-0.2,0-0.3-0.1-0.4-0.2c-0.1-0.2-0.1-0.5,0.2-0.7l1.7-1c0.2-0.1,0.5-0.1,0.7,0.2c0.1,0.2,0.1,0.5-0.2,0.7l-1.7,1
					C41.5,18.8,41.4,18.8,41.3,18.8z M44.7,16.8c-0.2,0-0.3-0.1-0.4-0.2c-0.1-0.2-0.1-0.5,0.2-0.7l1.7-1c0.2-0.1,0.5-0.1,0.7,0.2
					c0.1,0.2,0.1,0.5-0.2,0.7l-1.7,1C44.9,16.8,44.8,16.8,44.7,16.8z M48.1,14.9c-0.2,0-0.3-0.1-0.4-0.2c-0.1-0.2-0.1-0.5,0.2-0.7
					l1.7-1c0.2-0.1,0.5-0.1,0.7,0.2c0.1,0.2,0.1,0.5-0.2,0.7l-1.7,1C48.3,14.8,48.2,14.9,48.1,14.9z M51.5,12.9
					c-0.2,0-0.3-0.1-0.4-0.2c-0.1-0.2-0.1-0.5,0.2-0.7l1.7-1c0.2-0.1,0.5-0.1,0.7,0.2c0.1,0.2,0.1,0.5-0.2,0.7l-1.7,1
					C51.6,12.9,51.6,12.9,51.5,12.9z M54.9,11c-0.2,0-0.3-0.1-0.4-0.2c-0.1-0.2-0.1-0.5,0.2-0.7l1.7-1C56.5,8.9,56.8,9,57,9.2
					c0.1,0.2,0.1,0.5-0.2,0.7l-1.7,1C55,10.9,54.9,11,54.9,11z M58.2,9c-0.2,0-0.3-0.1-0.4-0.2c-0.1-0.2-0.1-0.5,0.2-0.7l1.7-1
					C59.9,7,60.2,7,60.4,7.3c0.1,0.2,0.1,0.5-0.2,0.7l-1.7,1C58.4,9,58.3,9,58.2,9z"/>
			</g>
			<g>
				<path fill="#C3D7DD" d="M32,24.2c-0.1,0-0.2,0-0.2-0.1l-0.9-0.5c-0.2-0.1-0.3-0.4-0.2-0.7c0.1-0.2,0.4-0.3,0.7-0.2l0.6,0.4
					l0.6-0.4c0.2-0.1,0.5-0.1,0.7,0.2c0.1,0.2,0.1,0.5-0.2,0.7l-0.9,0.5C32.2,24.1,32.1,24.2,32,24.2z"/>
			</g>
			<g>
				<path fill="#C3D7DD" d="M29.4,22.7c-0.1,0-0.2,0-0.2-0.1l-1.7-1c-0.2-0.1-0.3-0.4-0.2-0.7c0.1-0.2,0.4-0.3,0.7-0.2l1.7,1
					c0.2,0.1,0.3,0.4,0.2,0.7C29.8,22.6,29.6,22.7,29.4,22.7z M26.1,20.7c-0.1,0-0.2,0-0.2-0.1l-1.7-1c-0.2-0.1-0.3-0.4-0.2-0.7
					c0.1-0.2,0.4-0.3,0.7-0.2l1.7,1c0.2,0.1,0.3,0.4,0.2,0.7C26.4,20.6,26.2,20.7,26.1,20.7z M22.7,18.8c-0.1,0-0.2,0-0.2-0.1
					l-1.7-1c-0.2-0.1-0.3-0.4-0.2-0.7c0.1-0.2,0.4-0.3,0.7-0.2l1.7,1c0.2,0.1,0.3,0.4,0.2,0.7C23,18.7,22.8,18.8,22.7,18.8z
					 M19.3,16.8c-0.1,0-0.2,0-0.2-0.1l-1.7-1c-0.2-0.1-0.3-0.4-0.2-0.7c0.1-0.2,0.4-0.3,0.7-0.2l1.7,1c0.2,0.1,0.3,0.4,0.2,0.7
					C19.6,16.7,19.5,16.8,19.3,16.8z M15.9,14.9c-0.1,0-0.2,0-0.2-0.1l-1.7-1c-0.2-0.1-0.3-0.4-0.2-0.7c0.1-0.2,0.4-0.3,0.7-0.2
					l1.7,1c0.2,0.1,0.3,0.4,0.2,0.7C16.2,14.8,16.1,14.9,15.9,14.9z M12.5,12.9c-0.1,0-0.2,0-0.2-0.1l-1.7-1
					c-0.2-0.1-0.3-0.4-0.2-0.7c0.1-0.2,0.4-0.3,0.7-0.2l1.7,1c0.2,0.1,0.3,0.4,0.2,0.7C12.8,12.8,12.7,12.9,12.5,12.9z M9.1,11
					c-0.1,0-0.2,0-0.2-0.1l-1.7-1C6.9,9.8,6.9,9.5,7,9.2C7.1,9,7.4,8.9,7.7,9.1l1.7,1c0.2,0.1,0.3,0.4,0.2,0.7
					C9.5,10.9,9.3,11,9.1,11z M5.7,9C5.7,9,5.6,9,5.5,8.9L3.8,8C3.6,7.8,3.5,7.5,3.6,7.3C3.7,7,4.1,7,4.3,7.1l1.7,1
					c0.2,0.1,0.3,0.4,0.2,0.7C6.1,8.9,5.9,9,5.7,9z"/>
			</g>
			<g>
				<path fill="#C3D7DD" d="M2.3,7C2.3,7,2.2,7,2.1,7L1.2,6.5C1,6.4,1,6.1,1,5.9c0.1-0.2,0.3-0.4,0.5-0.4h1C2.8,5.6,3,5.8,3,6.1
					c0,0.1-0.1,0.3-0.2,0.4c0,0.1,0,0.3,0,0.4C2.7,7,2.5,7,2.3,7z"/>
			</g>
			<g>
				<path fill="#C3D7DD" d="M59.5,6.6h-2c-0.3,0-0.5-0.2-0.5-0.5c0-0.3,0.2-0.5,0.5-0.5h2c0.3,0,0.5,0.2,0.5,0.5
					C60,6.3,59.7,6.6,59.5,6.6z M55.4,6.6h-2c-0.3,0-0.5-0.2-0.5-0.5c0-0.3,0.2-0.5,0.5-0.5h2c0.3,0,0.5,0.2,0.5,0.5
					C55.9,6.3,55.7,6.6,55.4,6.6z M51.3,6.6h-2c-0.3,0-0.5-0.2-0.5-0.5c0-0.3,0.2-0.5,0.5-0.5h2c0.3,0,0.5,0.2,0.5,0.5
					C51.8,6.3,51.6,6.6,51.3,6.6z M47.3,6.6h-2c-0.3,0-0.5-0.2-0.5-0.5c0-0.3,0.2-0.5,0.5-0.5h2c0.3,0,0.5,0.2,0.5,0.5
					C47.7,6.3,47.5,6.6,47.3,6.6z M43.2,6.6h-2c-0.3,0-0.5-0.2-0.5-0.5c0-0.3,0.2-0.5,0.5-0.5h2c0.3,0,0.5,0.2,0.5,0.5
					C43.7,6.3,43.5,6.6,43.2,6.6z M39.1,6.6h-2c-0.3,0-0.5-0.2-0.5-0.5c0-0.3,0.2-0.5,0.5-0.5h2c0.3,0,0.5,0.2,0.5,0.5
					C39.6,6.3,39.4,6.6,39.1,6.6z M35,6.6h-2c-0.3,0-0.5-0.2-0.5-0.5c0-0.3,0.2-0.5,0.5-0.5h2c0.3,0,0.5,0.2,0.5,0.5
					C35.5,6.3,35.3,6.6,35,6.6z M31,6.6h-2c-0.3,0-0.5-0.2-0.5-0.5c0-0.3,0.2-0.5,0.5-0.5h2c0.3,0,0.5,0.2,0.5,0.5
					C31.5,6.3,31.2,6.6,31,6.6z M26.9,6.6h-2c-0.3,0-0.5-0.2-0.5-0.5c0-0.3,0.2-0.5,0.5-0.5h2c0.3,0,0.5,0.2,0.5,0.5
					C27.4,6.3,27.2,6.6,26.9,6.6z M22.8,6.6h-2c-0.3,0-0.5-0.2-0.5-0.5c0-0.3,0.2-0.5,0.5-0.5h2c0.3,0,0.5,0.2,0.5,0.5
					C23.3,6.3,23.1,6.6,22.8,6.6z M18.8,6.6h-2c-0.3,0-0.5-0.2-0.5-0.5c0-0.3,0.2-0.5,0.5-0.5h2c0.3,0,0.5,0.2,0.5,0.5
					C19.3,6.3,19,6.6,18.8,6.6z M14.7,6.6h-2c-0.3,0-0.5-0.2-0.5-0.5c0-0.3,0.2-0.5,0.5-0.5h2c0.3,0,0.5,0.2,0.5,0.5
					C15.2,6.3,15,6.6,14.7,6.6z M10.6,6.6h-2c-0.3,0-0.5-0.2-0.5-0.5c0-0.3,0.2-0.5,0.5-0.5h2c0.3,0,0.5,0.2,0.5,0.5
					C11.1,6.3,10.9,6.6,10.6,6.6z M6.6,6.6h-2C4.2,6.6,4,6.3,4,6.1c0-0.3,0.2-0.5,0.5-0.5h2C6.8,5.6,7,5.8,7,6.1
					C7,6.3,6.8,6.6,6.6,6.6z"/>
			</g>
		</g>
	</g>
	<g>
		<g>
			<path fill="#1AC4FF" d="M1.5,58.9c-0.3,0-0.5-0.1-0.7-0.3c-0.3-0.3-0.4-0.8-0.2-1.2L31.1,5.6c0.2-0.4,0.7-0.6,1.1-0.5
				c0.4,0.1,0.7,0.5,0.7,1v34.3c0,0.4-0.2,0.7-0.5,0.9L2,58.8C1.8,58.9,1.7,58.9,1.5,58.9z M31,9.7L4.2,55.2L31,39.8V9.7z"/>
		</g>
		<g>
			<path fill="#1AC4FF" d="M62.5,58.9c-0.2,0-0.3,0-0.5-0.1L31.5,41.2C31.2,41,31,40.7,31,40.3V6.1c0-0.4,0.3-0.8,0.7-1
				c0.4-0.1,0.9,0.1,1.1,0.5l30.5,51.9c0.2,0.4,0.2,0.9-0.2,1.2C63,58.8,62.7,58.9,62.5,58.9z M33,39.8l26.7,15.4L33,9.7V39.8z"/>
		</g>
		<g>
			<path fill="#1AC4FF" d="M62.5,58.9C62.5,58.9,62.5,58.9,62.5,58.9h-61c-0.4,0-0.8-0.3-1-0.7s0.1-0.9,0.5-1.1l30.5-17.6
				c0.3-0.2,0.7-0.2,1,0L62.9,57c0.4,0.1,0.6,0.5,0.6,0.9C63.5,58.5,63.1,58.9,62.5,58.9z M5.2,57h53.6L32,41.5L5.2,57z"/>
		</g>
	</g>
</g>
</svg>
