<?xml version="1.0" encoding="utf-8"?>
<!-- Generator: Adobe Illustrator 16.0.0, SVG Export Plug-In . SVG Version: 6.00 Build 0)  -->
<!DOCTYPE svg PUBLIC "-//W3C//DTD SVG 1.1//EN" "http://www.w3.org/Graphics/SVG/1.1/DTD/svg11.dtd">
<svg version="1.1" id="Layer_1" xmlns="http://www.w3.org/2000/svg" xmlns:xlink="http://www.w3.org/1999/xlink" x="0px" y="0px"
	 width="64px" height="64px" viewBox="0 0 64 64" enable-background="new 0 0 64 64" xml:space="preserve">
<g>
	<g>
		<g>
			<polygon fill="#FF7F00" points="16.8,58 1.5,32 16.8,6 47.2,6 62.5,32 47.2,58 			"/>
			<polyline fill="#FF9700" points="47,58 16.8,58 1.5,31.8 16.7,5.3 			"/>
			<polyline fill="#FF3600" points="62.6,31.6 47.2,58 17,58 			"/>
			<polygon fill="#FF5B00" points="16.8,58 47.2,58 39.6,44.8 			"/>
			<polyline fill="#FF9700" points="1.4,32.4 16.8,6 47,6 			"/>
			<polygon fill="#FFC200" points="16.8,5.6 1.5,32 24.4,18.8 			"/>
			<path fill="#2F5068" d="M47.2,59H16.8c-0.4,0-0.7,0-0.9-0.3L0.7,32.4c-0.2-0.3-0.2-0.6,0-1L15.9,5.3C16.1,5,16.4,5,16.8,5h30.5
				c0.4,0,0.7,0,0.9,0.3l15.2,26.3c0.2,0.3,0.2,0.6,0,1L48.1,58.7C47.9,59,47.6,59,47.2,59z M17.3,57h29.3l14.7-25L46.7,7H17.3
				L2.7,32L17.3,57z"/>
		</g>
	</g>
	<g>
		<path fill="#2F5068" d="M46.1,58.8c-0.2,0-1.1-0.1-1.2-0.2L1,32.9c-0.3-0.2-0.5-0.5-0.5-0.9s0.2-0.7,0.5-0.9L44.4,5.6
			c0.3-0.2,1.7-0.2,2,0c0.3,0.2,0.6,0.6,0.6,0.9L47,57.3c0,0.4-0.1,1-0.5,1.2C46.4,58.6,46.2,58.8,46.1,58.8z M3.4,32L45,56.4V7.6
			L3.4,32z"/>
	</g>
	<g>
		<path fill="#2F5068" d="M17.9,58.6c-0.2,0-0.2-0.2-0.4-0.3c-0.3-0.2-0.6-0.5-0.6-0.9V6.7c0-0.4,0.3-0.9,0.6-1.1
			c0.3-0.2,1.2-0.5,1.5-0.3L63,31.1c0.3,0.2,0.5,0.5,0.5,0.9s-0.2,0.7-0.5,0.9L19.5,58.4C19.4,58.5,18.1,58.6,17.9,58.6z M19,7.6
			v48.9L60.6,32L19,7.6z"/>
	</g>
	<g>
		<polygon fill="#87C2CC" points="32,16.1 17.9,40 46.1,40 		"/>
		<polygon fill="#639FA5" points="32,20.7 17.9,40 46.1,40 		"/>
		<path fill="#2F5068" d="M46.1,41H17.9c-0.4,0-0.7-0.1-0.9-0.5c-0.2-0.3-0.2-0.7,0-1l14.1-23.9c0.4-0.6,1.4-0.6,1.7,0l14.1,23.9
			c0.2,0.3,0.2,0.6,0,1C46.8,40.9,46.4,41,46.1,41z M19.7,39h24.6L32,18.1L19.7,39z"/>
	</g>
	<g>
		<circle fill="#4BF9F4" cx="32" cy="32.2" r="6.8"/>
		<path fill="#BBFFFC" d="M25.2,32.2c0-3.8,3.1-6.8,6.8-6.8"/>
		<path fill="#33DAE2" d="M32,25.4c3.8,0,6.8,3,6.8,6.8S35.8,39,32,39"/>
		<path fill="#34C7E0" d="M38.8,32.2c0,3.8-3.1,6.8-6.8,6.8"/>
		<path fill="#2F5068" d="M32,40c-4.3,0-7.8-3.5-7.8-7.8s3.5-7.8,7.8-7.8s7.8,3.5,7.8,7.8S36.3,40,32,40z M32,26.4
			c-3.2,0-5.8,2.6-5.8,5.8S28.8,38,32,38s5.8-2.6,5.8-5.8S35.2,26.4,32,26.4z"/>
	</g>
</g>
</svg>
