<?xml version="1.0" encoding="utf-8"?>
<!-- Generator: Adobe Illustrator 16.0.0, SVG Export Plug-In . SVG Version: 6.00 Build 0)  -->
<!DOCTYPE svg PUBLIC "-//W3C//DTD SVG 1.1//EN" "http://www.w3.org/Graphics/SVG/1.1/DTD/svg11.dtd">
<svg version="1.1" id="Layer_1" xmlns="http://www.w3.org/2000/svg" xmlns:xlink="http://www.w3.org/1999/xlink" x="0px" y="0px"
	 width="64px" height="64px" viewBox="0 0 64 64" enable-background="new 0 0 64 64" xml:space="preserve">
<g>
	<g>
		<polygon fill="#76E83A" points="58,47.2 32,62.5 6,47.2 6,16.8 32,1.5 58,16.8 		"/>
		<polyline fill="#5CCC1B" points="58.6,47.3 32.3,62.5 6,47.2 6,17 		"/>
		<polyline fill="#ACFF7B" points="6,47 6,16.8 32.4,1.4 		"/>
		<path fill="#2F5068" d="M32,63.5c-0.2,0-0.3,0-0.5-0.1L5.3,48.1C5,47.9,5,47.6,5,47.2V16.8c0-0.4,0-0.7,0.3-0.9L31.6,0.7
			c0.3-0.2,0.6-0.2,1,0l26.2,15.2c0.3,0.2,0.3,0.5,0.3,0.9v30.5c0,0.4,0,0.7-0.3,0.9L32.4,63.3C32.3,63.4,32.2,63.5,32,63.5z
			 M7,46.7l25,14.7l25-14.7V17.3L32,2.7L7,17.3V46.7z"/>
	</g>
	<g>
		<g>
			<polygon fill="#B4D0D8" points="32,32 5.8,47.1 32,2.5 32,31.7 			"/>
			<path fill="#D2EAC3" d="M16.5,29c-0.2,1-0.3,2.1-0.3,3.2c0,2.8,0.7,5.5,2,7.8L32,32v-0.3V16.3c-4,0-7.6,1.5-10.4,3.9L16.5,29z"/>
			<path fill="#EDFCE3" d="M32,16.3c-4,0-7.6,1.5-10.4,3.9L16.5,29c-0.2,1-0.3,2.1-0.3,3.2c0,2.8,0.7,5.5,2,7.8"/>
			<path fill="#2F5068" d="M5.8,48.1c-0.3,0-0.3-0.3-0.5-0.5C5,47.3,5,46.5,5.2,46.1L31.1,2c0.2-0.4,0.7-0.6,1.1-0.5
				c0.4,0.1,0.7,0.5,0.7,1V32c0,0.4-0.2,0.7-0.5,0.9L6.3,47.9C6.2,48,6,48.1,5.8,48.1z M31,6.2L8.6,44.3L31,31.4V6.2z"/>
		</g>
		<g>
			<polygon fill="#A0B8C1" points="32,32 58.2,47.1 32,2.5 32,31.7 			"/>
			<path fill="#ADDB91" d="M32,32l13.8,8c1.3-2.3,2-4.9,2-7.8c0-1.1-0.1-2.2-0.3-3.2l-5.1-8.7c-2.8-2.4-6.4-3.9-10.4-3.9v15.3V32z"
				/>
			<path fill="#D2EAC3" d="M45.8,40c1.3-2.3,2-4.9,2-7.8c0-1.1-0.1-2.2-0.3-3.2l-5.1-8.7c-2.8-2.4-6.4-3.9-10.4-3.9"/>
			<path fill="#2F5068" d="M58.2,48.1c-0.2,0-0.3,0-0.5-0.1L31.5,32.8C31.2,32.7,31,32.3,31,32V2.5c0-0.5,0.3-0.8,0.7-1
				c0.4-0.1,0.9,0.1,1.1,0.5l25.9,44.1c0.2,0.4,0.2,1.4-0.2,1.7C58.4,48,58.4,48.1,58.2,48.1z M33,31.4l22.4,12.9L33,6.2V31.4z"/>
		</g>
		<g>
			<polygon fill="#678389" points="5.8,47 32,31.9 58.2,47 			"/>
			<path fill="#94C474" d="M45.8,39.9l-13.8-8l-13.8,8c1.8,3.3,5.1,6.1,8.7,7.1l10.2,0C40.6,46,44,43.2,45.8,39.9z"/>
			<path fill="#ADDB91" d="M18.2,39.9c1.8,3.3,5.5,6.1,9.1,7.1l9.8,0c3.6-1,6.9-3.8,8.8-7.1"/>
			<path fill="#2F5068" d="M58.2,48C58.2,48,58.2,48,58.2,48H5.8c-0.5,0-0.5-0.2-0.6-0.6c-0.1-0.4-0.3-0.9,0.1-1.2l26.2-15.1
				c0.3-0.2,0.7-0.2,1,0l26.1,15.1c0.4,0.1,0.1,0.5,0.1,0.9C58.7,47.6,58.8,48,58.2,48z M9.5,46h44.9L32,33L9.5,46z"/>
		</g>
	</g>
	<g>
		<path fill="#2F5068" d="M32,48.1c-8.8,0-15.9-7.1-15.9-15.9S23.2,16.3,32,16.3s15.9,7.1,15.9,15.9S40.8,48.1,32,48.1z M32,18.3
			c-7.7,0-13.9,6.2-13.9,13.9S24.3,46.1,32,46.1s13.9-6.2,13.9-13.9S39.7,18.3,32,18.3z"/>
	</g>
</g>
</svg>
