<?xml version="1.0" encoding="utf-8"?>
<!-- Generator: Adobe Illustrator 16.0.0, SVG Export Plug-In . SVG Version: 6.00 Build 0)  -->
<!DOCTYPE svg PUBLIC "-//W3C//DTD SVG 1.1//EN" "http://www.w3.org/Graphics/SVG/1.1/DTD/svg11.dtd">
<svg version="1.1" id="Layer_1" xmlns="http://www.w3.org/2000/svg" xmlns:xlink="http://www.w3.org/1999/xlink" x="0px" y="0px"
	 width="64px" height="64px" viewBox="0 0 64 64" enable-background="new 0 0 64 64" xml:space="preserve">
<g>
	<g>
		<path fill="#4BF9F4" d="M57.6,42.6C60.4,39.9,62,36.1,62,32c0-4.1-1.7-7.9-4.4-10.6c0-3.8-1.5-7.7-4.4-10.6
			c-2.9-2.9-6.8-4.4-10.6-4.4C39.9,3.6,36.1,2,32,2s-7.9,1.7-10.6,4.4c-3.8,0-7.7,1.5-10.6,4.4c-2.9,2.9-4.4,6.8-4.4,10.6
			C3.6,24.1,2,27.9,2,32c0,4.1,1.7,7.9,4.4,10.6c0,3.8,1.5,7.7,4.4,10.6c2.9,2.9,6.8,4.4,10.6,4.4C24.1,60.4,27.9,62,32,62
			s7.9-1.7,10.6-4.4c3.8,0,7.7-1.5,10.6-4.4C56.2,50.3,57.6,46.5,57.6,42.6z"/>
		<path fill="#2F5068" d="M32,63c-4.1,0-8-1.6-11-4.4c-4.1-0.1-8-1.8-10.9-4.7C7.2,51,5.5,47.1,5.4,43C2.6,40,1,36.1,1,32
			c0-4.1,1.6-8,4.4-11c0.1-4.1,1.8-8,4.7-10.9C13,7.2,16.9,5.5,21,5.4C24,2.6,27.9,1,32,1s8,1.6,11,4.4c4.1,0.1,8,1.8,10.9,4.7
			s4.6,6.8,4.7,10.9c2.8,3,4.4,6.9,4.4,11c0,4.1-1.6,8-4.4,11c-0.1,4.1-1.8,8-4.7,10.9c-2.9,2.9-6.8,4.6-10.9,4.7
			C40,61.4,36.1,63,32,63z M32,2.9c-3.8,0-7.3,1.5-9.9,4.1c-0.2,0.2-0.4,0.3-0.7,0.3c-3.8,0-7.3,1.5-9.9,4.1
			c-2.7,2.7-4.1,6.2-4.1,9.9c0,0.3-0.1,0.5-0.3,0.7c-2.7,2.7-4.1,6.2-4.1,9.9c0,3.8,1.5,7.3,4.1,9.9c0.2,0.2,0.3,0.4,0.3,0.7
			c0,3.8,1.5,7.3,4.1,9.9c2.7,2.7,6.2,4.1,9.9,4.1c0.3,0,0.5,0.1,0.7,0.3c2.7,2.7,6.2,4.1,9.9,4.1s7.3-1.5,9.9-4.1
			c0.2-0.2,0.4-0.3,0.7-0.3c3.8,0,7.3-1.5,9.9-4.1c2.7-2.7,4.1-6.2,4.1-9.9c0-0.3,0.1-0.5,0.3-0.7c2.7-2.7,4.1-6.2,4.1-9.9
			c0-3.8-1.5-7.3-4.1-9.9c-0.2-0.2-0.3-0.4-0.3-0.7c0-3.8-1.5-7.3-4.1-9.9c-2.7-2.7-6.2-4.1-9.9-4.1c-0.3,0-0.5-0.1-0.7-0.3
			C39.3,4.4,35.8,2.9,32,2.9z"/>
	</g>
	<g>
		<g>
			<g>
				<path fill="#2F5068" d="M32,33c-8.8,0-16-7.2-16-16c0-8.8,7.2-16,16-16c8.8,0,16,7.2,16,16C48,25.8,40.8,33,32,33z M32,2.9
					c-7.8,0-14.1,6.3-14.1,14.1c0,7.8,6.3,14.1,14.1,14.1c7.8,0,14.1-6.3,14.1-14.1C46.1,9.2,39.8,2.9,32,2.9z"/>
			</g>
			<g>
				<path fill="#2F5068" d="M32,63c-8.8,0-16-7.2-16-16c0-8.8,7.2-16,16-16c8.8,0,16,7.2,16,16C48,55.8,40.8,63,32,63z M32,32.9
					c-7.8,0-14.1,6.3-14.1,14.1c0,7.8,6.3,14.1,14.1,14.1c7.8,0,14.1-6.3,14.1-14.1C46.1,39.3,39.8,32.9,32,32.9z"/>
			</g>
		</g>
		<g>
			<g>
				<path fill="#2F5068" d="M17,48L17,48C8.2,48,1,40.8,1,32c0-8.8,7.2-16,16-16c8.8,0,16,7.2,16,16C33,40.8,25.8,48,17,48z
					 M17,17.9C9.2,17.9,2.9,24.2,2.9,32c0,7.8,6.3,14.1,14.1,14.1c7.8,0,14.1-6.3,14.1-14.1C31.1,24.2,24.7,17.9,17,17.9z"/>
			</g>
			<g>
				<path fill="#2F5068" d="M47,48L47,48c-8.8,0-16-7.2-16-16c0-8.8,7.2-16,16-16c8.8,0,16,7.2,16,16C63,40.8,55.8,48,47,48z
					 M47,17.9c-7.8,0-14.1,6.3-14.1,14.1c0,7.8,6.3,14.1,14.1,14.1c7.8,0,14.1-6.3,14.1-14.1C61.1,24.2,54.8,17.9,47,17.9z"/>
			</g>
		</g>
		<g>
			<g>
				<path fill="#2F5068" d="M21.4,58.6c-4.3,0-8.3-1.7-11.3-4.7c-3-3-4.7-7-4.7-11.3c0-4.3,1.7-8.3,4.7-11.3c3-3,7-4.7,11.3-4.7h0
					c4.3,0,8.3,1.7,11.3,4.7c6.2,6.2,6.2,16.4,0,22.6C29.7,56.9,25.6,58.6,21.4,58.6z M21.4,28.5c-3.8,0-7.3,1.5-9.9,4.1
					c-2.7,2.7-4.1,6.2-4.1,10c0,3.8,1.5,7.3,4.1,9.9c2.7,2.7,6.2,4.1,10,4.1c3.8,0,7.3-1.5,10-4.1c5.5-5.5,5.5-14.4,0-19.9
					C28.7,30,25.1,28.5,21.4,28.5z"/>
			</g>
			<g>
				<path fill="#2F5068" d="M42.6,37.4c-4.3,0-8.3-1.7-11.3-4.7c-3-3-4.7-7-4.7-11.3c0-4.3,1.7-8.3,4.7-11.3c3-3,7-4.7,11.3-4.7
					c4.3,0,8.3,1.7,11.3,4.7c6.2,6.2,6.2,16.4,0,22.6C50.9,35.7,46.9,37.4,42.6,37.4z M42.6,7.3c-3.8,0-7.3,1.5-10,4.1
					c-2.7,2.7-4.1,6.2-4.1,10c0,3.8,1.5,7.3,4.1,10c2.7,2.7,6.2,4.1,10,4.1c3.8,0,7.3-1.5,9.9-4.1c5.5-5.5,5.5-14.4,0-19.9
					C49.9,8.8,46.4,7.3,42.6,7.3z"/>
			</g>
		</g>
		<g>
			<g>
				<path fill="#2F5068" d="M21.4,37.4c-4.3,0-8.3-1.7-11.3-4.7c-6.2-6.2-6.2-16.4,0-22.6c3-3,7-4.7,11.3-4.7
					c4.3,0,8.3,1.7,11.3,4.7c6.2,6.2,6.2,16.4,0,22.6C29.7,35.7,25.6,37.4,21.4,37.4z M21.4,7.3c-3.8,0-7.3,1.5-9.9,4.1
					c-5.5,5.5-5.5,14.4,0,19.9c2.7,2.7,6.2,4.1,10,4.1s7.3-1.5,10-4.1c5.5-5.5,5.5-14.4,0-19.9C28.7,8.8,25.1,7.3,21.4,7.3z"/>
			</g>
			<g>
				<path fill="#2F5068" d="M42.6,58.6c-4.3,0-8.3-1.7-11.3-4.7s-4.7-7-4.7-11.3c0-4.3,1.7-8.3,4.7-11.3c3-3,7-4.7,11.3-4.7h0
					c4.3,0,8.3,1.7,11.3,4.7c6.2,6.2,6.2,16.4,0,22.6C50.9,56.9,46.9,58.6,42.6,58.6z M42.6,28.5c-3.8,0-7.3,1.5-10,4.1
					c-2.7,2.7-4.1,6.2-4.1,10c0,3.8,1.5,7.3,4.1,9.9c2.7,2.7,6.2,4.1,10,4.1c3.8,0,7.3-1.5,10-4.1c5.5-5.5,5.5-14.4,0-19.9
					C49.9,30,46.4,28.5,42.6,28.5z"/>
			</g>
		</g>
	</g>
	<g>
		<path fill="#FFBC00" d="M18,18c0.2,3.4,1.6,6.4,3.8,8.7c2.2,0.1,4.4,0.6,6.4,1.5c-0.9-2-1.4-4.1-1.5-6.4
			C24.4,19.6,21.3,18.2,18,18z"/>
		<path fill="#FF5B00" d="M21,35.4c1.6-1.5,3.5-2.7,5.6-3.4c-2.1-0.8-4-1.9-5.6-3.4c-3.3,0.1-6.4,1.3-8.9,3.4
			C14.6,34.1,17.7,35.4,21,35.4z"/>
		<path fill="#FFBC00" d="M26.7,42.2c0.1-2.2,0.6-4.4,1.5-6.4c-2,0.9-4.1,1.4-6.3,1.5c-2.2,2.3-3.6,5.3-3.8,8.7
			C21.3,45.8,24.4,44.4,26.7,42.2z"/>
		<path fill="#4BF9F4" d="M24.6,35.1c1.5-0.3,2.9-0.9,4.2-1.7C27.3,33.7,25.9,34.3,24.6,35.1z"/>
		<path fill="#FFBC00" d="M46,46c-0.2-3.4-1.6-6.4-3.8-8.7c-2.2-0.1-4.4-0.6-6.4-1.5c0.9,2,1.4,4.2,1.5,6.3
			C39.6,44.4,42.7,45.8,46,46z"/>
		<path fill="#4BF9F4" d="M28.8,30.7c-1.3-0.8-2.7-1.4-4.2-1.7C25.9,29.7,27.3,30.3,28.8,30.7z"/>
		<path fill="#4BF9F4" d="M35.2,33.3c1.3,0.8,2.7,1.4,4.2,1.7C38.1,34.3,36.7,33.7,35.2,33.3z"/>
		<path fill="#FF5B00" d="M35.4,43c-1.5-1.6-2.7-3.5-3.4-5.6c-0.8,2.1-1.9,4-3.4,5.6c0.1,3.3,1.3,6.4,3.4,8.9
			C34.2,49.3,35.4,46.1,35.4,43z"/>
		<path fill="#FFBC00" d="M46,18c-3.4,0.2-6.4,1.7-8.7,3.8c-0.1,2.2-0.6,4.3-1.5,6.3c2-0.9,4.1-1.4,6.4-1.5
			C44.4,24.4,45.8,21.3,46,18z"/>
		<path fill="#FF5B00" d="M43,28.6c-1.6,1.5-3.5,2.7-5.6,3.4c2.1,0.8,4,1.9,5.6,3.4c3.3-0.1,6.4-1.3,8.9-3.4
			C49.4,29.9,46.3,28.6,43,28.6z"/>
		<path fill="#4BF9F4" d="M30.7,28.8c-0.4-1.5-0.9-2.9-1.7-4.2C29.3,26.1,29.9,27.5,30.7,28.8z"/>
		<path fill="#FF5B00" d="M28.6,21c1.5,1.6,2.7,3.5,3.4,5.6c0.8-2.1,1.9-4,3.4-5.6c-0.1-3.2-1.2-6.3-3.4-8.9
			C29.9,14.6,28.6,17.7,28.6,21z"/>
		<path fill="#4BF9F4" d="M39.4,28.9c-1.5,0.3-2.9,0.9-4.2,1.7C36.7,30.3,38.1,29.7,39.4,28.9z"/>
		<path fill="#4BF9F4" d="M33.3,28.8c0.8-1.3,1.4-2.7,1.7-4.1C34.3,25.9,33.7,27.3,33.3,28.8z"/>
		<path fill="#4BF9F4" d="M30.7,35.2c-0.8,1.3-1.4,2.7-1.7,4.2C29.7,38.1,30.3,36.7,30.7,35.2z"/>
		<path fill="#4BF9F4" d="M33.3,35.2c0.3,1.5,0.9,2.9,1.7,4.1C34.7,37.9,34.1,36.5,33.3,35.2z"/>
		<path fill="#1AC4FF" d="M19.4,37.2c-3.2-0.4-6.2-1.7-8.6-3.9c-2.2,2.5-3.4,5.6-3.5,8.9c2.3,2.2,5.4,3.6,8.7,3.8
			C16.3,42.7,17.5,39.7,19.4,37.2z"/>
		<path fill="#FF9100" d="M40.2,58.4c-3.1-0.5-5.9-1.8-8.2-3.9c-2.3,2.1-5.2,3.4-8.2,3.9c2.3,1.7,5.2,2.7,8.2,2.7
			C35.1,61.1,37.9,60.1,40.2,58.4z"/>
		<path fill="#1AC4FF" d="M37.2,44.6c-0.4,3.1-1.7,6.1-3.9,8.6c2.5,2.2,5.6,3.4,8.9,3.5c2.2-2.3,3.6-5.4,3.8-8.7
			C42.7,47.7,39.7,46.5,37.2,44.6z"/>
		<path fill="#4BF9F4" d="M30.7,53.2c-2.1-2.4-3.5-5.4-3.9-8.6c-2.5,1.9-5.5,3.1-8.8,3.3c0.2,3.4,1.6,6.4,3.8,8.7
			C25.1,56.6,28.2,55.4,30.7,53.2z"/>
		<path fill="#FF6D00" d="M56.5,44.8c-2.4,1.8-5.4,2.9-8.6,3.1c-0.2,3.2-1.3,6.1-3.1,8.6c2.9-0.5,5.6-1.8,7.7-3.9
			C54.8,50.4,56,47.7,56.5,44.8z"/>
		<path fill="#FF6D00" d="M19.2,56.5c-1.8-2.4-2.9-5.4-3.1-8.6c-3.2-0.2-6.1-1.3-8.6-3.1c0.5,2.9,1.8,5.6,3.9,7.7
			C13.6,54.7,16.3,56,19.2,56.5z"/>
		<path fill="#FF9100" d="M61.1,32c0-3.1-1-5.9-2.7-8.2c-0.4,3-1.7,5.9-3.9,8.2c2.1,2.4,3.4,5.3,3.9,8.2
			C60.1,37.9,61.1,35.1,61.1,32z"/>
		<path fill="#4BF9F4" d="M53.2,33.3c-2.4,2.1-5.4,3.5-8.6,3.9c1.9,2.5,3.1,5.5,3.3,8.8c3.4-0.2,6.4-1.6,8.7-3.8
			C56.6,39,55.4,35.9,53.2,33.3z"/>
		<path fill="#FF6D00" d="M44.8,7.5c1.8,2.4,2.9,5.4,3.1,8.6c3.2,0.2,6.1,1.3,8.6,3.1c-0.4-2.8-1.7-5.6-3.9-7.7
			C50.4,9.3,47.8,8,44.8,7.5z"/>
		<path fill="#4BF9F4" d="M33.3,10.8c2.2,2.5,3.5,5.5,3.9,8.6c2.5-1.9,5.5-3.1,8.8-3.3c-0.2-3.4-1.6-6.4-3.8-8.7
			C38.9,7.4,35.8,8.6,33.3,10.8z"/>
		<path fill="#FF9100" d="M23.8,5.6c3.1,0.5,5.9,1.8,8.2,3.9c2.3-2.1,5.2-3.4,8.2-3.9c-2.3-1.7-5.2-2.7-8.2-2.7
			C28.9,2.9,26.1,3.9,23.8,5.6z"/>
		<path fill="#1AC4FF" d="M56.7,21.8c-2.3-2.2-5.4-3.6-8.7-3.8c-0.2,3.3-1.4,6.3-3.3,8.8c3.2,0.4,6.2,1.7,8.6,3.9
			C55.4,28.1,56.6,25,56.7,21.8z"/>
		<path fill="#FF9100" d="M2.9,32c0,3.1,1,5.9,2.7,8.2c0.5-3.1,1.8-5.9,3.9-8.2c-2.1-2.4-3.4-5.3-3.9-8.2C3.9,26.1,2.9,28.9,2.9,32z
			"/>
		<path fill="#1AC4FF" d="M26.8,19.4c0.4-3.2,1.7-6.2,3.9-8.6c-2.5-2.2-5.6-3.4-8.9-3.5c-2.2,2.3-3.6,5.4-3.8,8.7
			C21.3,16.3,24.3,17.5,26.8,19.4z"/>
		<path fill="#4BF9F4" d="M10.8,30.7c2.4-2.1,5.4-3.5,8.6-3.9c-1.9-2.5-3.1-5.5-3.3-8.8c-3.4,0.2-6.4,1.6-8.7,3.8
			C7.4,25,8.6,28.1,10.8,30.7z"/>
		<path fill="#FF6D00" d="M7.5,19.2c2.4-1.8,5.4-2.9,8.6-3.1c0.2-3.2,1.3-6.1,3.1-8.6c-2.9,0.5-5.6,1.8-7.7,3.9
			C9.3,13.6,8,16.3,7.5,19.2z"/>
	</g>
</g>
</svg>
