<?xml version="1.0" encoding="utf-8"?>
<!-- Generator: Adobe Illustrator 16.0.0, SVG Export Plug-In . SVG Version: 6.00 Build 0)  -->
<!DOCTYPE svg PUBLIC "-//W3C//DTD SVG 1.1//EN" "http://www.w3.org/Graphics/SVG/1.1/DTD/svg11.dtd">
<svg version="1.1" id="Layer_1" xmlns="http://www.w3.org/2000/svg" xmlns:xlink="http://www.w3.org/1999/xlink" x="0px" y="0px"
	 width="64px" height="64px" viewBox="0 0 64 64" enable-background="new 0 0 64 64" xml:space="preserve">
<g>
	<g>
		<g>
			<circle fill="#B8E6E8" cx="32" cy="32" r="30.5"/>
			<path fill="#CCF2F1" d="M1.5,32C1.5,15.2,15.2,1.5,32,1.5"/>
			<path fill="#87C2CC" d="M32,1.5c16.8,0,30.5,13.7,30.5,30.5S48.8,62.5,32,62.5"/>
			<path fill="#EA789B" d="M32,43.9c-0.4,0-0.7-0.2-0.9-0.5L11.4,9.8c-0.2-0.3-0.2-0.9,0-1.2C11.6,8.4,11.9,8,12.3,8h39.4
				c0.4,0,0.7,0.4,0.9,0.7c0.2,0.3,0.2,0.8,0,1.1L32.9,43.3C32.7,43.6,32.4,43.9,32,43.9z"/>
			<path fill="#EF9EBB" d="M12.8,8c-0.5,1-1,1-1.4,1.4c0,0.1,0.1,0.3,0.1,0.3l4.5,7.6L25.2,8H12.8z"/>
			<path fill="#CE93CE" d="M51.2,8H32v35.9c0.4,0,0.7-0.2,0.9-0.5L52.1,9.8c0-0.1,0.6-0.3,0.6-0.4C52.2,9,51.7,9,51.2,8z"/>
			<path fill="#6CB0B7" d="M62.5,32c0,16.8-13.7,30.5-30.5,30.5"/>
			<path fill="#CE93CE" d="M51.7,55H12.3c-0.4,0-0.7,0-0.9-0.3c-0.2-0.3-0.2-0.6,0-0.9l19.7-33.5c0.4-0.6,1.4-0.6,1.7,0l19.7,33.5
				c0.2,0.3,0.2,0.5,0,0.8C52.4,55,52.1,55,51.7,55z"/>
			<path fill="#EA789B" d="M51.6,55c0.4,0,0.7-0.5,1.1-0.8c0-0.2-0.2-0.1-0.3-0.2L32.9,20.3c-0.2-0.3-0.5-0.4-0.9-0.4V55H51.6z"/>
			<path fill="#D65C88" d="M51.6,55c0.4,0,0.7-0.5,1.1-0.8c0-0.2-0.2-0.1-0.3-0.2L48,46.3L39.1,55H51.6z"/>
			<path fill="#2F5068" d="M32,63.5C14.6,63.5,0.5,49.4,0.5,32S14.6,0.5,32,0.5S63.5,14.6,63.5,32S49.4,63.5,32,63.5z M32,2.5
				C15.7,2.5,2.5,15.7,2.5,32S15.7,61.5,32,61.5S61.5,48.3,61.5,32S48.3,2.5,32,2.5z"/>
		</g>
		<g>
			<g>
				<path fill="#2F5068" d="M51.7,55H12.3c-0.4,0-0.7,0-0.9-0.3c-0.2-0.3-0.2-0.6,0-0.9l19.7-33.5c0.4-0.6,1.4-0.6,1.7,0l19.7,33.5
					c0.2,0.3,0.2,0.5,0,0.8C52.4,55,52.1,55,51.7,55z M14,53H50L32,22.5L14,53z"/>
			</g>
		</g>
		<g>
			<g>
				<path fill="#2F5068" d="M51.7,44H12.3c-0.4,0-0.7-0.3-0.9-0.6c-0.2-0.3-0.2-0.7,0-1L31.1,8.8c0.4-0.6,1.4-0.6,1.7,0l19.7,33.5
					c0.2,0.3,0.2,0.8,0,1.1C52.4,43.7,52.1,44,51.7,44z M14,42H50L32,11.5L14,42z"/>
			</g>
		</g>
		<g>
			<g>
				<path fill="#2F5068" d="M32,43.9c-0.4,0-0.7-0.2-0.9-0.5L11.4,9.8c-0.2-0.3-0.2-0.9,0-1.2C11.6,8.4,11.9,8,12.3,8h39.4
					c0.4,0,0.7,0.4,0.9,0.7c0.2,0.3,0.2,0.8,0,1.1L32.9,43.3C32.7,43.6,32.4,43.9,32,43.9z M14,10l18,30.5L50,10H14z"/>
			</g>
		</g>
		<g>
			<g>
				<path fill="#2F5068" d="M32,54.4c-0.4,0-0.7-0.2-0.9-0.5L11.4,20.3c-0.2-0.3-0.2-0.6,0-0.9c0.2-0.3,0.5-0.4,0.9-0.4h39.4
					c0.4,0,0.7,0.1,0.9,0.4c0.2,0.3,0.2,0.7,0,1L32.9,53.9C32.7,54.2,32.4,54.4,32,54.4z M14,21l18,30.5L50,21H14z"/>
			</g>
		</g>
	</g>
	<g>
		<g>
			<path fill="#E2C23D" d="M26.2,32c0-1.6,2.6-3.8,5.8-3.8c3.2,0,5.8,2.2,5.8,3.8"/>
			<path fill="#2F5068" d="M37.8,33c-0.6,0-1-0.4-1-1c0-0.9-2.1-2.8-4.8-2.8c-2.7,0-4.8,1.9-4.8,2.8c0,0.6-0.4,1-1,1s-1-0.4-1-1
				c0-2.2,3-4.8,6.8-4.8c3.8,0,6.8,2.6,6.8,4.8C38.8,32.6,38.3,33,37.8,33z"/>
		</g>
		<g>
			<path fill="#EAAC1F" d="M37.8,32c0,1.6-2.6,3.8-5.8,3.8c-3.2,0-5.8-2.2-5.8-3.8"/>
			<path fill="#2F5068" d="M32,36.8c-3.8,0-6.8-2.6-6.8-4.8c0-0.6,0.4-1,1-1s1,0.4,1,1c0,0.9,2.1,2.8,4.8,2.8c2.7,0,4.8-1.9,4.8-2.8
				c0-0.6,0.4-1,1-1s1,0.4,1,1C38.8,34.2,35.8,36.8,32,36.8z"/>
		</g>
	</g>
	<g>
		<circle fill="#2F5068" cx="32" cy="32" r="2"/>
	</g>
</g>
</svg>
