<?xml version="1.0" encoding="utf-8"?>
<!-- Generator: Adobe Illustrator 16.0.0, SVG Export Plug-In . SVG Version: 6.00 Build 0)  -->
<!DOCTYPE svg PUBLIC "-//W3C//DTD SVG 1.1//EN" "http://www.w3.org/Graphics/SVG/1.1/DTD/svg11.dtd">
<svg version="1.1" id="Layer_1" xmlns="http://www.w3.org/2000/svg" xmlns:xlink="http://www.w3.org/1999/xlink" x="0px" y="0px"
	 width="64px" height="64px" viewBox="0 0 64 64" enable-background="new 0 0 64 64" xml:space="preserve">
<g>
	<g>
		<polygon fill="#1DEFFF" points="32,40.3 1.5,57.9 32,6.1 32,40 		"/>
		<polygon fill="#1AC4FF" points="32,40.3 1.5,57.9 32,14.9 32,40 		"/>
		<path fill="#2F5068" d="M1.5,58.9c-0.3,0-0.5-0.1-0.7-0.3c-0.3-0.3-0.4-0.8-0.2-1.2L31.1,5.6c0.2-0.4,0.7-0.6,1.1-0.5
			c0.4,0.1,0.7,0.5,0.7,1v34.3c0,0.4-0.2,0.7-0.5,0.9L2,58.8C1.8,58.9,1.7,58.9,1.5,58.9z M31,9.7L4.3,55.2L31,39.8V9.7z"/>
	</g>
	<g>
		<polygon fill="#128AC6" points="32,40.3 62.5,57.9 32,6.1 32,40 		"/>
		<polygon fill="#00A2E2" points="35,36.9 62.3,57.9 31.6,6.1 35,36.5 		"/>
		<path fill="#2F5068" d="M62.5,58.9c-0.2,0-0.3,0-0.5-0.1L31.5,41.2C31.2,41,31,40.7,31,40.3V6.1c0-0.4,0.3-0.8,0.7-1
			c0.4-0.1,0.9,0.1,1.1,0.5l30.5,51.9c0.2,0.4,0.2,0.9-0.2,1.2C63,58.8,62.7,58.9,62.5,58.9z M33,39.8l26.7,15.4L33,9.7V39.8z"/>
	</g>
	<g>
		<polygon fill="#086FB5" points="1.5,58 32,40.4 62.5,58 		"/>
		<polygon fill="#128AC6" points="1.5,58 32,46.3 62.5,58 		"/>
		<path fill="#2F5068" d="M62.5,59C62.5,59,62.5,59,62.5,59h-61c-0.4,0-0.8-0.3-1-0.8s0.1-0.9,0.5-1.1l30.5-17.6
			c0.3-0.2,0.7-0.2,1,0L62.9,57c0.4,0.1,0.6,0.5,0.6,1C63.5,58.5,63.1,59,62.5,59z M5.2,57h53.6L32,41.5L5.2,57z"/>
	</g>
</g>
</svg>
