<?xml version="1.0" encoding="utf-8"?>
<!-- Generator: Adobe Illustrator 16.0.0, SVG Export Plug-In . SVG Version: 6.00 Build 0)  -->
<!DOCTYPE svg PUBLIC "-//W3C//DTD SVG 1.1//EN" "http://www.w3.org/Graphics/SVG/1.1/DTD/svg11.dtd">
<svg version="1.1" xmlns="http://www.w3.org/2000/svg" xmlns:xlink="http://www.w3.org/1999/xlink" x="0px" y="0px" width="65px"
	 height="65px" viewBox="0 0 65 65" enable-background="new 0 0 65 65" xml:space="preserve">
<g id="Layer_1">
	<g>
		<g>
			<g>
				<g>
					<path fill="#11A5EF" d="M10.103,8.702c0,2.06-1.668,3.729-3.728,3.729l0,0c-2.06,0-3.729-1.669-3.729-3.729V4.229
						c0-2.06,1.669-3.729,3.729-3.729l0,0c2.06,0,3.728,1.669,3.728,3.729V8.702z"/>
					<path fill="#1F4C9B" d="M7.567,52.196c0,0.896-0.534,1.621-1.192,1.621l0,0c-0.66,0-1.192-0.726-1.192-1.621V10.472
						c0-0.896,0.532-1.621,1.192-1.621l0,0c0.658,0,1.192,0.726,1.192,1.621V52.196z"/>
					<path fill="#11A5EF" d="M10.359,61.24c0,1.799-2.186,3.26-3.984,3.26l0,0c-1.8,0-3.985-1.461-3.985-3.26l0.727-12.497
						c0-1.799,1.459-3.259,3.259-3.259l0,0c1.799,0,3.259,1.46,3.259,3.259L10.359,61.24z"/>
					<path fill="#2EC4FF" d="M2.39,61.24l0.727-12.497c0-1.799,1.459-3.259,3.259-3.259l0,0c1.799,0,3.259,1.46,3.259,3.259"/>
				</g>
				<g>
					<path fill="#11A5EF" d="M54.897,56.298c0-2.06,1.667-3.729,3.729-3.729l0,0c2.058,0,3.725,1.669,3.725,3.729v4.474
						c0,2.06-1.667,3.729-3.725,3.729l0,0c-2.062,0-3.729-1.669-3.729-3.729V56.298z"/>
					<path fill="#1F4C9B" d="M57.432,12.804c0-0.896,0.534-1.621,1.195-1.621l0,0c0.657,0,1.19,0.726,1.19,1.621v41.725
						c0,0.896-0.533,1.621-1.19,1.621l0,0c-0.661,0-1.195-0.726-1.195-1.621V12.804z"/>
					<path fill="#11A5EF" d="M54.639,3.76c0-1.799,2.186-3.26,3.988-3.26l0,0c1.798,0,3.983,1.461,3.983,3.26l-0.728,12.497
						c0,1.799-1.458,3.259-3.256,3.259l0,0c-1.803,0-3.261-1.46-3.261-3.259L54.639,3.76z"/>
					<path fill="#2EC4FF" d="M55.366,16.257L54.639,3.76c0-1.799,2.186-3.26,3.988-3.26l0,0c1.798,0,3.983,1.461,3.983,3.26"/>
				</g>
			</g>
		</g>
		<g>
			<path fill="#FF9D00" d="M50.58,56.071c0,3.551-2.877,6.429-6.428,6.429H20.848c-3.549,0-6.428-2.878-6.428-6.429V8.929
				c0-3.551,2.879-6.429,6.428-6.429h23.305c3.551,0,6.428,2.878,6.428,6.429V56.071z"/>
			<rect x="14.42" y="28.817" fill="#1F4C9B" width="36.16" height="7.365"/>
			<path fill="#FFC200" d="M45.738,50.466c0,2.727-2.107,4.936-4.707,4.936H23.969c-2.6,0-4.707-2.209-4.707-4.936V14.267
				c0-2.727,2.107-4.937,4.707-4.937h17.062c2.6,0,4.707,2.21,4.707,4.937V50.466z"/>
			<path fill="#6D4209" d="M45.738,49.758c0,2.599-2.107,4.706-4.707,4.706H23.969c-2.6,0-4.707-2.107-4.707-4.706V15.242
				c0-2.599,2.107-4.706,4.707-4.706h17.062c2.6,0,4.707,2.107,4.707,4.706V49.758z"/>
			<path fill="#87560F" d="M41.031,16.607H23.969c-2.6,0-4.707,2.107-4.707,4.706v28.444c0,2.599,2.107,4.706,4.707,4.706h17.062
				c2.6,0,4.707-2.107,4.707-4.706V21.313C45.738,18.715,43.631,16.607,41.031,16.607z"/>
			<g>
				<g>
					<rect x="17.41" y="20.669" fill="#FFCE00" width="30.18" height="5.179"/>
					<polyline fill="#FFEC00" points="17.41,25.848 17.41,20.669 47.59,20.669 					"/>
					<g>
						<path fill="#FFEC00" d="M17.635,26.674c0,0.296-0.24,0.536-0.537,0.536l0,0c-0.295,0-0.535-0.24-0.535-0.536v-6.83
							c0-0.297,0.24-0.536,0.535-0.536l0,0c0.297,0,0.537,0.239,0.537,0.536V26.674z"/>
						<path fill="#FFEC00" d="M48.438,26.674c0,0.296-0.24,0.536-0.535,0.536l0,0c-0.297,0-0.535-0.24-0.535-0.536v-6.83
							c0-0.297,0.238-0.536,0.535-0.536l0,0c0.295,0,0.535,0.239,0.535,0.536V26.674z"/>
					</g>
				</g>
				<g>
					<rect x="17.41" y="39.151" fill="#FFCE00" width="30.18" height="5.178"/>
					<polyline fill="#FFEC00" points="17.41,44.329 17.41,39.151 47.59,39.151 					"/>
					<g>
						<path fill="#FFEC00" d="M17.635,45.156c0,0.295-0.24,0.536-0.537,0.536l0,0c-0.295,0-0.535-0.241-0.535-0.536v-6.83
							c0-0.298,0.24-0.536,0.535-0.536l0,0c0.297,0,0.537,0.238,0.537,0.536V45.156z"/>
						<path fill="#FFEC00" d="M48.438,45.156c0,0.295-0.24,0.536-0.535,0.536l0,0c-0.297,0-0.535-0.241-0.535-0.536v-6.83
							c0-0.298,0.238-0.536,0.535-0.536l0,0c0.295,0,0.535,0.238,0.535,0.536V45.156z"/>
					</g>
				</g>
			</g>
			<path fill="#FFC200" d="M23.043,4.13c0.352,0.852-1.348,0.75-3.098,1.469c-1.748,0.721-2.885,1.99-3.236,1.139
				c-0.35-0.853,0.783-2.126,2.533-2.846C20.99,3.172,22.693,3.278,23.043,4.13z"/>
			<circle fill="#FFC200" cx="25.268" cy="4.643" r="0.938"/>
		</g>
		<g>
			<circle fill="#FFC200" cx="21.834" cy="58.334" r="1"/>
			<circle fill="#FFC200" cx="27.168" cy="58.334" r="1"/>
			<circle fill="#FFC200" cx="32.5" cy="58.334" r="1"/>
			<circle fill="#FFC200" cx="37.834" cy="58.334" r="1"/>
			<circle fill="#FFC200" cx="43.166" cy="58.334" r="1"/>
		</g>
	</g>
</g>
<g id="nyt_x5F_exporter_x5F_info" display="none">
</g>
</svg>
