<?xml version="1.0" encoding="utf-8"?>
<!-- Generator: Adobe Illustrator 16.0.0, SVG Export Plug-In . SVG Version: 6.00 Build 0)  -->
<!DOCTYPE svg PUBLIC "-//W3C//DTD SVG 1.1//EN" "http://www.w3.org/Graphics/SVG/1.1/DTD/svg11.dtd">
<svg version="1.1" xmlns="http://www.w3.org/2000/svg" xmlns:xlink="http://www.w3.org/1999/xlink" x="0px" y="0px" width="65px"
	 height="65px" viewBox="0 0 65 65" enable-background="new 0 0 65 65" xml:space="preserve">
<g id="Layer_1">
	<g>
		<g>
			<g>
				<polygon fill="#D60000" points="38.606,37.549 16.918,49.139 28.504,27.448 50.192,15.861 				"/>
				<polyline fill="#7C1616" points="50.192,15.861 38.606,37.549 16.918,49.139 				"/>
			</g>
			<g>
				<polygon fill="#7C1616" points="28.504,37.549 16.917,15.863 38.606,27.451 50.194,49.139 				"/>
				<polyline fill="#D60000" points="50.194,49.139 28.504,37.549 16.917,15.863 				"/>
			</g>
			<g>
				<polygon fill="#FF7F00" points="40.698,32.501 33.555,56.03 26.413,32.501 33.555,8.97 				"/>
			</g>
			<g>
				<polygon fill="#FF7F00" points="33.555,39.643 10.026,32.501 33.555,25.359 57.086,32.501 				"/>
				<polyline fill="#FF4800" points="57.086,32.501 33.555,39.643 10.026,32.501 				"/>
				<polyline fill="#FF4800" points="33.555,8.97 40.698,32.501 33.555,56.03 				"/>
			</g>
		</g>
		<g>
			<g>
				<circle fill="#B0B9BF" cx="52.337" cy="13.718" r="1.057"/>
				<circle fill="#B0B9BF" cx="14.775" cy="51.282" r="1.057"/>
			</g>
			<g>
				<circle fill="#B0B9BF" cx="52.338" cy="51.282" r="1.056"/>
				<circle fill="#B0B9BF" cx="14.775" cy="13.719" r="1.057"/>
			</g>
		</g>
		<g>
			<g>
				<circle fill="#B0B9BF" cx="20.275" cy="9.498" r="1.057"/>
				<circle fill="#B0B9BF" cx="46.835" cy="55.502" r="1.057"/>
			</g>
			<g>
				<circle fill="#B0B9BF" cx="40.43" cy="6.844" r="1.057"/>
				<path fill="#B0B9BF" d="M27.704,58.43c-0.154,0.564-0.732,0.899-1.295,0.747c-0.566-0.151-0.898-0.729-0.748-1.294
					c0.15-0.566,0.729-0.9,1.295-0.748C27.522,57.286,27.854,57.864,27.704,58.43z"/>
			</g>
			<g>
				<circle fill="#B0B9BF" cx="56.559" cy="19.219" r="1.058"/>
				<path fill="#B0B9BF" d="M11.083,46.696c-0.508,0.292-1.152,0.118-1.445-0.388c-0.291-0.507-0.121-1.152,0.387-1.442
					c0.506-0.295,1.152-0.121,1.445,0.387C11.76,45.759,11.59,46.402,11.083,46.696z"/>
			</g>
			<g>
				<circle fill="#B0B9BF" cx="59.213" cy="39.374" r="1.057"/>
				<path fill="#B0B9BF" d="M7.627,26.647c-0.568-0.153-0.9-0.731-0.75-1.298c0.152-0.562,0.73-0.897,1.297-0.744
					c0.566,0.148,0.9,0.729,0.748,1.295C8.77,26.463,8.192,26.796,7.627,26.647z"/>
			</g>
		</g>
		<g>
			<g>
				<circle fill="#B0B9BF" cx="10.553" cy="19.22" r="1.058"/>
				<circle fill="#B0B9BF" cx="56.557" cy="45.78" r="1.058"/>
			</g>
			<g>
				<path fill="#B0B9BF" d="M27.704,6.57c0.15,0.563-0.188,1.144-0.748,1.295c-0.566,0.152-1.146-0.182-1.295-0.748
					c-0.15-0.563,0.182-1.142,0.748-1.294C26.971,5.672,27.549,6.007,27.704,6.57z"/>
				<circle fill="#B0B9BF" cx="40.43" cy="58.156" r="1.057"/>
			</g>
			<g>
				<path fill="#B0B9BF" d="M47.75,10.024c-0.293,0.508-0.938,0.68-1.443,0.389c-0.508-0.291-0.678-0.938-0.385-1.443
					c0.289-0.506,0.936-0.68,1.441-0.389C47.87,8.874,48.042,9.521,47.75,10.024z"/>
				<path fill="#B0B9BF" d="M21.19,56.03c-0.293,0.508-0.939,0.68-1.445,0.389c-0.506-0.293-0.678-0.938-0.383-1.443
					c0.289-0.508,0.936-0.682,1.443-0.389C21.311,54.881,21.483,55.522,21.19,56.03z"/>
			</g>
			<g>
				<path fill="#B0B9BF" d="M59.487,26.646c-0.566,0.15-1.145-0.182-1.297-0.745c-0.152-0.566,0.184-1.145,0.75-1.297
					c0.564-0.15,1.139,0.184,1.295,0.747C60.383,25.917,60.051,26.495,59.487,26.646z"/>
				<path fill="#B0B9BF" d="M8.174,40.396c-0.568,0.15-1.146-0.184-1.299-0.749c-0.148-0.564,0.184-1.145,0.752-1.293
					c0.564-0.155,1.145,0.182,1.295,0.747C9.071,39.666,8.737,40.244,8.174,40.396z"/>
			</g>
		</g>
		<g>
			<path fill="#96A3AA" d="M35.641,0.5h-0.676c-0.207,0-0.375,0.167-0.375,0.374v2.322c0,0.235,0.002,0.463,0.004,0.684
				c-0.076-0.13-0.16-0.262-0.244-0.396l-1.779-2.81C32.502,0.564,32.383,0.5,32.254,0.5h-0.783c-0.207,0-0.375,0.167-0.375,0.374
				v5.552c0,0.208,0.168,0.376,0.375,0.376h0.676c0.207,0,0.375-0.168,0.375-0.376V4.054c0-0.275-0.002-0.526-0.004-0.765
				c0.098,0.166,0.203,0.337,0.316,0.519l1.764,2.818c0.068,0.109,0.188,0.176,0.318,0.176h0.725c0.205,0,0.375-0.168,0.375-0.376
				V0.874C36.016,0.667,35.846,0.5,35.641,0.5z"/>
			<path fill="#96A3AA" d="M35.118,63.149h-2.031v-1.251h1.783c0.207,0,0.375-0.169,0.375-0.376V60.93
				c0-0.206-0.168-0.373-0.375-0.373h-1.783v-1.008h1.908c0.207,0,0.373-0.167,0.373-0.374v-0.601c0-0.208-0.166-0.376-0.373-0.376
				h-3c-0.207,0-0.375,0.168-0.375,0.376v5.552c0,0.207,0.168,0.374,0.375,0.374h3.123c0.207,0,0.375-0.167,0.375-0.374v-0.601
				C35.493,63.319,35.325,63.149,35.118,63.149z"/>
		</g>
		<g>
			<path fill="#96A3AA" d="M9.471,29.35H8.737c-0.17,0-0.318,0.114-0.361,0.279l-0.734,2.805L7.62,32.52
				c-0.016,0.058-0.029,0.116-0.043,0.174c-0.02-0.081-0.039-0.16-0.057-0.24l-0.676-2.817c-0.041-0.168-0.191-0.286-0.365-0.286
				H5.731c-0.172,0-0.32,0.114-0.363,0.278l-0.742,2.801c-0.027,0.107-0.057,0.214-0.084,0.32c-0.023-0.101-0.047-0.2-0.07-0.302
				l-0.66-2.809c-0.039-0.17-0.189-0.289-0.363-0.289H2.69c-0.115,0-0.225,0.053-0.297,0.145c-0.07,0.091-0.094,0.209-0.066,0.321
				l1.408,5.554c0.043,0.166,0.193,0.281,0.363,0.281h0.75c0.168,0,0.316-0.112,0.361-0.275l0.789-2.887
				c0.016-0.057,0.031-0.111,0.047-0.166c0.014,0.05,0.025,0.101,0.037,0.151l0.701,2.892c0.039,0.167,0.189,0.285,0.363,0.285h0.75
				c0.168,0,0.314-0.11,0.359-0.271l1.574-5.554c0.031-0.112,0.01-0.233-0.062-0.327C9.698,29.404,9.588,29.35,9.471,29.35z"/>
			<path fill="#96A3AA" d="M61.028,31.784c-0.807-0.312-0.865-0.488-0.865-0.723c0-0.221,0.176-0.457,0.672-0.457
				c0.393,0,0.693,0.119,0.875,0.218c0.098,0.054,0.213,0.06,0.314,0.021c0.104-0.041,0.184-0.124,0.219-0.229l0.199-0.585
				c0.057-0.17-0.016-0.356-0.17-0.445c-0.213-0.12-0.678-0.321-1.412-0.321c-1.26,0-2.172,0.792-2.172,1.882
				c0,1.318,1.291,1.775,1.707,1.923c0.746,0.288,0.805,0.503,0.805,0.755c0,0.518-0.549,0.573-0.785,0.573
				c-0.371,0-0.777-0.114-1.09-0.307c-0.1-0.061-0.221-0.072-0.33-0.031c-0.107,0.041-0.191,0.13-0.225,0.242L58.588,34.9
				c-0.047,0.158,0.014,0.328,0.15,0.42c0.369,0.246,1.037,0.417,1.625,0.417c1.604,0,2.32-0.991,2.32-1.973
				C62.684,32.575,61.797,32.082,61.028,31.784z"/>
		</g>
	</g>
</g>
<g id="nyt_x5F_exporter_x5F_info" display="none">
</g>
</svg>
