<?xml version="1.0" encoding="utf-8"?>
<!-- Generator: Adobe Illustrator 16.0.0, SVG Export Plug-In . SVG Version: 6.00 Build 0)  -->
<!DOCTYPE svg PUBLIC "-//W3C//DTD SVG 1.1//EN" "http://www.w3.org/Graphics/SVG/1.1/DTD/svg11.dtd">
<svg version="1.1" xmlns="http://www.w3.org/2000/svg" xmlns:xlink="http://www.w3.org/1999/xlink" x="0px" y="0px" width="65px"
	 height="65px" viewBox="0 0 65 65" enable-background="new 0 0 65 65" xml:space="preserve">
<g id="Layer_1">
	<g>
		<path fill="#FFAA00" d="M38.436,41.983c0,3.421-2.773,6.194-6.193,6.194h-0.258c-3.422,0-6.194-2.773-6.194-6.194V31.919
			c0-3.42,2.772-6.193,6.194-6.193h0.258c3.42,0,6.193,2.773,6.193,6.193V41.983z"/>
		<path fill="#FF9D00" d="M31.984,25.726h0.258c3.42,0,6.193,2.773,6.193,6.193v10.064c0,3.421-2.773,6.194-6.193,6.194h-0.258"/>
		<ellipse fill="#0FC7F2" cx="32.5" cy="59.016" rx="32" ry="5.42"/>
		<path fill="#11A5EF" d="M0.5,59.016c0-2.992,14.326-5.419,32-5.419s32,2.427,32,5.419"/>
		<path fill="#FF9D00" d="M46.305,57.21c0.129-0.945,0.213-1.91,0.213-2.9c0-9.611-6.274-17.4-14.018-17.4
			c-7.742,0-14.018,7.789-14.018,17.4c0,0.99,0.083,1.955,0.21,2.9H46.305z"/>
		<path fill="#FFAA00" d="M32.5,36.909c-7.742,0-14.018,7.789-14.018,17.4c0,0.99,0.083,1.955,0.21,2.9"/>
		<path fill="#FFD400" d="M18.678,51.533h27.645c-0.163-1.254-0.428-2.464-0.793-3.613H19.472
			C19.104,49.069,18.841,50.279,18.678,51.533z"/>
		<path fill="#3CDDF7" d="M50.221,57.21c0,0.381-0.309,0.688-0.689,0.688H15.468c-0.381,0-0.688-0.308-0.688-0.688l0,0
			c0-0.379,0.308-0.688,0.688-0.688h34.063C49.912,56.522,50.221,56.831,50.221,57.21L50.221,57.21z"/>
		<path fill="#668596" d="M30.822,0.564v25.419c0,0.713,0.578,1.291,1.291,1.291c0.712,0,1.289-0.578,1.289-1.291V0.564H30.822z"/>
	</g>
</g>
<g id="nyt_x5F_exporter_x5F_info" display="none">
</g>
</svg>
