<?xml version="1.0" encoding="utf-8"?>
<!-- Generator: Adobe Illustrator 16.0.0, SVG Export Plug-In . SVG Version: 6.00 Build 0)  -->
<!DOCTYPE svg PUBLIC "-//W3C//DTD SVG 1.1//EN" "http://www.w3.org/Graphics/SVG/1.1/DTD/svg11.dtd">
<svg version="1.1" xmlns="http://www.w3.org/2000/svg" xmlns:xlink="http://www.w3.org/1999/xlink" x="0px" y="0px" width="65px"
	 height="65px" viewBox="0 0 65 65" enable-background="new 0 0 65 65" xml:space="preserve">
<g id="Layer_1">
	<g>
		
			<ellipse transform="matrix(0.7071 -0.7071 0.7071 0.7071 -4.3097 10.4056)" fill="#FF8500" cx="10.405" cy="10.405" rx="11.942" ry="2.965"/>
		<path fill="#105077" d="M56.104,44.183c1.953,1.95,1.951,5.113,0,7.065l-4.855,4.855c-1.951,1.95-5.115,1.952-7.064,0
			L17.47,29.391c-1.951-1.95-1.951-5.114,0-7.064l4.856-4.856c1.949-1.951,5.113-1.951,7.064,0L56.104,44.183z"/>
		<path fill="#235D87" d="M17.47,29.391l26.714,26.713c1.236,1.237,2.959,1.684,4.552,1.352c0.332-1.593-0.114-3.314-1.353-4.552
			L20.67,26.189c-1.236-1.236-2.958-1.683-4.553-1.352C15.785,26.432,16.234,28.153,17.47,29.391z"/>
		<path fill="#175D91" d="M26.54,13.553c0.753,0.751,0.749,1.971-0.001,2.722L16.275,26.539c-0.752,0.751-1.973,0.753-2.723,0.001
			l0,0c-0.752-0.753-0.751-1.972,0-2.724l10.264-10.264C24.568,12.802,25.788,12.8,26.54,13.553L26.54,13.553z"/>
		<path fill="#306DA5" d="M18.207,21.888c-0.754-0.753-1.973-0.752-2.725,0l-1.93,1.929c-0.751,0.752-0.752,1.971,0,2.724
			c0.75,0.752,1.971,0.75,2.723-0.001l1.929-1.93C18.955,23.858,18.957,22.639,18.207,21.888z"/>
		<path fill="#6399C1" d="M47.66,34.635c1.492,1.492,1.494,3.914,0,5.408l0,0c-1.494,1.493-3.916,1.494-5.41,0L30.439,28.231
			c-1.494-1.493-1.494-3.915,0-5.409l0,0c1.494-1.493,3.915-1.493,5.408,0L47.66,34.635z"/>
		<path fill="#4D87AA" d="M30.439,22.822L30.439,22.822c1.494-1.493,3.915-1.493,5.408,0L47.66,34.635
			c1.492,1.492,1.494,3.914,0,5.408l0,0"/>
		<path fill="#6399C1" d="M52.828,41.938c0.08,0.082,0.083,0.214,0.002,0.294L42.232,52.829c-0.08,0.082-0.213,0.079-0.294-0.001
			l0,0c-0.081-0.08-0.081-0.212-0.001-0.294l10.596-10.597C52.616,41.856,52.748,41.856,52.828,41.938L52.828,41.938z"/>
		<path fill="#6399C1" d="M54.152,43.263c0.082,0.082,0.084,0.214,0.002,0.294L43.557,54.154c-0.08,0.081-0.212,0.08-0.293-0.002
			l0,0c-0.08-0.08-0.082-0.212-0.002-0.292l10.598-10.599C53.939,43.182,54.072,43.183,54.152,43.263L54.152,43.263z"/>
		<path fill="#6399C1" d="M55.478,44.589c0.081,0.08,0.083,0.212,0.001,0.292L44.882,55.479c-0.081,0.081-0.213,0.08-0.293-0.001
			l0,0c-0.083-0.081-0.083-0.213-0.003-0.293l10.598-10.599C55.266,44.506,55.396,44.507,55.478,44.589L55.478,44.589z"/>
		<path fill="#6399C1" d="M28.396,17.507c0.082,0.08,0.082,0.212,0,0.294L17.801,28.397c-0.082,0.08-0.215,0.08-0.295-0.001l0,0
			c-0.08-0.082-0.082-0.214,0-0.294l10.597-10.598C28.184,17.424,28.314,17.426,28.396,17.507L28.396,17.507z"/>
		<path fill="#6399C1" d="M29.721,18.831c0.082,0.08,0.082,0.212,0.002,0.294L19.125,29.722c-0.082,0.081-0.213,0.081-0.295-0.001
			l0,0c-0.08-0.08-0.081-0.212,0-0.294L29.426,18.83C29.509,18.749,29.641,18.75,29.721,18.831L29.721,18.831z"/>
		<path fill="#6399C1" d="M31.045,20.155c0.082,0.082,0.083,0.214,0.002,0.294L20.449,31.046c-0.08,0.082-0.213,0.081-0.294-0.001
			l0,0c-0.08-0.08-0.081-0.212,0-0.294l10.597-10.596C30.833,20.073,30.965,20.075,31.045,20.155L31.045,20.155z"/>
		<path fill="#FF8500" d="M37.805,26.766c0.453,0.454,0.453,1.191-0.002,1.646l-1.775,1.775c-0.455,0.454-1.191,0.454-1.646,0
			l-1.775-1.775c-0.455-0.454-0.454-1.192-0.001-1.646l1.775-1.775c0.456-0.454,1.191-0.454,1.646,0L37.805,26.766z"/>
		<path fill="#E0682B" d="M34.381,24.99c0.456-0.454,1.191-0.454,1.646,0l1.777,1.775c0.453,0.454,0.453,1.191-0.002,1.646
			l-1.775,1.775c-0.455,0.454-1.191,0.454-1.646,0"/>
		<path fill="#105077" d="M27.461,8.453c0.769,0.768,0.768,2.01,0,2.777l-16.23,16.23c-0.767,0.767-2.01,0.769-2.777,0.001
			l-7.378-7.379c-0.767-0.767-0.767-2.011,0-2.776L17.307,1.075c0.766-0.768,2.01-0.768,2.777,0L27.461,8.453z"/>
		<path fill="#235D87" d="M17.16,18.755l-7.378-7.378c-0.767-0.768-2.012-0.768-2.777,0l-5.93,5.93c-0.767,0.766-0.767,2.01,0,2.776
			l7.378,7.379c0.768,0.768,2.011,0.766,2.777-0.001l5.93-5.93C17.926,20.766,17.926,19.521,17.16,18.755z"/>
		<path fill="#788786" d="M62.289,51.599c-0.559-0.559-1.466-0.559-2.026,0c-0.559,0.562-0.559,1.468,0,2.027
			c1.83,1.829,1.83,4.807,0.003,6.638c-1.83,1.828-4.807,1.832-6.641,0c-1.828-1.829-1.832-4.806,0-6.638
			c0.118-0.121,0.201-0.263,0.27-0.41l-1.89-1.887c-0.146,0.067-0.286,0.15-0.405,0.27c-2.947,2.949-2.947,7.744,0,10.691
			c1.473,1.473,3.409,2.21,5.344,2.21c1.937,0,3.872-0.737,5.346-2.212C65.235,59.343,65.235,54.547,62.289,51.599z"/>
	</g>
</g>
<g id="nyt_x5F_exporter_x5F_info" display="none">
</g>
</svg>
