<?xml version="1.0" encoding="utf-8"?>
<!-- Generator: Adobe Illustrator 16.0.0, SVG Export Plug-In . SVG Version: 6.00 Build 0)  -->
<!DOCTYPE svg PUBLIC "-//W3C//DTD SVG 1.1//EN" "http://www.w3.org/Graphics/SVG/1.1/DTD/svg11.dtd">
<svg version="1.1" xmlns="http://www.w3.org/2000/svg" xmlns:xlink="http://www.w3.org/1999/xlink" x="0px" y="0px" width="65px"
	 height="65px" viewBox="0 0 65 65" enable-background="new 0 0 65 65" xml:space="preserve">
<g id="Layer_1">
	<g>
		<g>
			<path fill="#363D36" d="M32.297,36.987c0.47,0,0.852,0.381,0.852,0.85l0,0c0.001,0.471-0.382,0.852-0.852,0.854h-2.919
				c-0.471,0-0.854-0.383-0.854-0.852l0,0c0-0.471,0.383-0.852,0.85-0.852H32.297z"/>
			<g>
				<path fill="#1B1E1A" d="M51.066,4.12c0.401,0.402,0.398,1.053-0.002,1.455l-0.682,0.682c-0.401,0.4-2.554,1.9-2.953,1.5
					L45.61,2.938c-0.404-0.402-0.401-1.055,0-1.455l0.682-0.68c0.4-0.404,1.055-0.404,1.453-0.002L51.066,4.12z"/>
				<path fill="#5B3827" d="M16.854,34.771c0.529,0,1.912,1.381,1.912,1.91l0,0c0.001,0.529-1.383,1.91-1.911,1.91l-6.153-0.953
					c-0.529,0-0.958-0.428-0.958-0.957l0,0c-0.001-0.529,0.427-0.957,0.954-0.957L16.854,34.771z"/>
				<path fill="#44281D" d="M9.744,36.681"/>
				<path fill="#44281D" d="M16.854,34.771c0.529,0,1.912,1.381,1.912,1.91l0,0c0.001,0.529-1.383,1.91-1.911,1.91l-6.153-0.953"/>
				<g>
					<path fill="#687567" d="M37.129,41.567l-0.795,0.795c-3.202,3.201-8.407,3.201-11.608,0c-3.198-3.197-3.197-8.404,0.004-11.604
						l0.795-0.797c3.199-3.199,8.404-3.197,11.604,0.002S40.327,38.368,37.129,41.567z M27.589,33.62
						c-1.621,1.621-1.622,4.262-0.002,5.883c1.623,1.621,4.264,1.621,5.884-0.002l0.796-0.795c1.621-1.621,1.621-4.26,0-5.881
						c-1.621-1.623-4.26-1.623-5.881-0.002L27.589,33.62z"/>
				</g>
				<path fill="#4E564E" d="M25.524,29.962l-0.795,0.797c-2.967,2.965-3.178,7.646-0.652,10.863c3.219,2.527,7.9,2.314,10.865-0.65
					l0.797-0.795c2.961-2.965,3.174-7.645,0.648-10.861C33.169,26.786,28.485,26.999,25.524,29.962z M34.267,32.825
					c1.621,1.621,1.621,4.26,0,5.881l-0.796,0.795c-1.62,1.623-4.261,1.623-5.884,0.002c-0.238-0.242-0.434-0.51-0.6-0.789
					c-0.281-0.168-0.549-0.361-0.791-0.604c-1.621-1.621-1.619-4.26,0.003-5.881l0.796-0.797c1.62-1.621,4.259-1.621,5.881,0.002
					c0.24,0.24,0.434,0.508,0.603,0.787C33.757,32.392,34.024,32.585,34.267,32.825z"/>
				<path fill="#313530" d="M54.803,7.739c0.604,0.604,0.604,1.584,0,2.189L32.788,31.944c-0.604,0.604-1.586,0.602-2.188-0.002
					l-4.514-4.512c-0.604-0.605-0.604-1.584,0-2.188L48.103,3.228c0.603-0.605,1.585-0.605,2.188-0.002L54.803,7.739z"/>
				<path fill="#313530" d="M54.803,7.739c0.604,0.604,0.604,1.584,0,2.189L32.788,31.944c-0.604,0.604-1.586,0.602-2.188-0.002
					l-4.514-4.512c-0.604-0.605-0.604-1.584,0-2.188L48.103,3.228c0.603-0.605,1.585-0.605,2.188-0.002L54.803,7.739z"/>
				<path fill="#1B1E1A" d="M51.261,6.388L29.247,28.401c-0.604,0.605-0.604,1.584,0,2.189l1.354,1.352
					c0.602,0.604,1.584,0.605,2.188,0.002L54.803,9.929c0.604-0.605,0.604-1.586,0-2.189L53.45,6.386
					C52.847,5.782,51.866,5.782,51.261,6.388z"/>
				<path fill="#5B3827" d="M37.028,52.071c2.394,2.396,1.891,6.779-1.123,9.795c-3.012,3.014-7.396,3.516-9.791,1.121
					c-2.395-2.395-6.305-22.701-3.289-25.715C25.839,34.259,34.634,49.677,37.028,52.071z"/>
				<path fill="#44281D" d="M37.028,52.071c2.394,2.396,1.891,6.779-1.123,9.795c-3.012,3.014-2.687-1.195-5.082-3.59
					c-2.393-2.393-11.014-17.99-7.998-21.004C25.839,34.259,34.634,49.677,37.028,52.071z"/>
				<path fill="#687567" d="M38.636,19.712c2.635,2.635,4.545,4.994,1.91,7.629l-17.17,17.17c-2.635,2.633-4.042-0.227-6.678-2.861
					l-0.318-0.318c-2.632-2.633-2.632-6.904,0-9.539l15.264-15.26c2.633-2.635,4.043,0.229,6.676,2.861L38.636,19.712z"/>
				<path fill="#818E80" d="M16.38,41.331c-2.632-2.633-2.632-6.904,0-9.539l12.401-12.398"/>
				<path fill="#515B50" d="M38.319,19.394l0.316,0.318c2.635,2.635,4.545,4.994,1.91,7.629l-17.17,17.17
					c-2.635,2.633-4.042-0.227-6.678-2.861l-0.318-0.318"/>
				<path fill="#818E80" d="M32.804,20.437c0.15,0.148,0.15,0.387,0,0.537L18.618,35.161c-0.15,0.148-0.389,0.148-0.537,0l0,0
					c-0.15-0.148-0.15-0.387,0-0.537l14.188-14.188C32.417,20.288,32.656,20.288,32.804,20.437L32.804,20.437z"/>
				<path fill="#818E80" d="M34.831,22.462c0.148,0.15,0.15,0.391,0,0.537L20.646,37.188c-0.152,0.148-0.392,0.148-0.537,0l0,0
					c-0.15-0.148-0.15-0.389,0-0.537l14.188-14.189C34.443,22.315,34.685,22.315,34.831,22.462L34.831,22.462z"/>
				<path fill="#818E80" d="M36.858,24.491c0.148,0.146,0.148,0.387,0,0.535L22.671,39.214c-0.147,0.15-0.389,0.15-0.536,0.002l0,0
					c-0.147-0.148-0.147-0.389,0-0.539l14.187-14.188C36.472,24.341,36.71,24.341,36.858,24.491L36.858,24.491z"/>
			</g>
		</g>
	</g>
</g>
<g id="nyt_x5F_exporter_x5F_info" display="none">
</g>
</svg>
