<?xml version="1.0" encoding="utf-8"?>
<!-- Generator: Adobe Illustrator 16.0.0, SVG Export Plug-In . SVG Version: 6.00 Build 0)  -->
<!DOCTYPE svg PUBLIC "-//W3C//DTD SVG 1.1//EN" "http://www.w3.org/Graphics/SVG/1.1/DTD/svg11.dtd">
<svg version="1.1" xmlns="http://www.w3.org/2000/svg" xmlns:xlink="http://www.w3.org/1999/xlink" x="0px" y="0px" width="65px"
	 height="65px" viewBox="0 0 65 65" enable-background="new 0 0 65 65" xml:space="preserve">
<g id="Layer_1">
	<g>
		<g>
			<g>
				<g>
					<path fill="#FF7F00" d="M48.823,5.833c-4.313,0.92-7.63,6.345-7.63,12.923c0,6.577,3.316,8.808,7.63,9.156V5.833z"/>
				</g>
				<path fill="#FF4800" d="M48.78,5.833c4.312,0.92,7.628,6.345,7.628,12.923c0,6.577-3.315,8.808-7.628,9.156V5.833z"/>
			</g>
			<g>
				<g>
					<path fill="#FFBC00" d="M48.814,13.642c-2.787,0.591-4.93,4.1-4.93,8.352c0,4.253,2.143,5.694,4.93,5.919V13.642z"/>
				</g>
				<path fill="#FF7F00" d="M48.787,13.642c2.787,0.591,4.93,4.1,4.93,8.352c0,4.253-2.143,5.694-4.93,5.919V13.642z"/>
			</g>
		</g>
		<path fill="#1C363F" d="M49.926,30.124c0,0.621-0.504,1.125-1.125,1.125l0,0c-0.621,0-1.125-0.504-1.125-1.125v-1.875
			c0-0.621,0.504-1.125,1.125-1.125l0,0c0.621,0,1.125,0.504,1.125,1.125V30.124z"/>
		<path fill="#1F4A59" d="M58.426,44.249c0,2.209-1.791,4-4,4h-11.25c-2.209,0-4-1.791-4-4v-12.25c0-2.209,1.791-2.75,4-2.75h11.25
			c2.209,0,4,0.541,4,2.75V44.249z"/>
		<line fill="#366377" x1="54.426" y1="48.249" x2="43.176" y2="48.249"/>
		<path fill="#366377" d="M39.176,31.999c0-2.209,1.791-2.75,4-2.75h11.25c2.209,0,4,0.541,4,2.75"/>
		<g>
			<path fill="#ADBCB9" d="M33.102,41.616v14.431c0,1.724,1.396,3.12,3.119,3.12h25.158c1.724,0,3.121-1.396,3.121-3.12V41.616
				H33.102z"/>
			<path fill="#ADBCB9" d="M33.102,41.616v14.431c0,1.724,1.396,3.12,3.119,3.12h25.158c1.724,0,3.121-1.396,3.121-3.12V41.616
				H33.102z"/>
			<path fill="#9AA8A5" d="M33.102,56.047c0,1.724,1.396,3.12,3.119,3.12h25.158c1.724,0,3.121-1.396,3.121-3.12v-12.48H33.102
				V56.047z"/>
			<path fill="#859390" d="M33.102,56.047c0,1.724,1.396,3.12,3.119,3.12h25.158c1.724,0,3.121-1.396,3.121-3.12v-12.48"/>
			<path fill="#ADBCB9" d="M1.414,33.349l17.787,17.789c1.219,1.218,3.195,1.218,4.413,0l9.516-9.516L10.929,19.421l-9.516,9.516
				C0.195,30.154,0.195,32.13,1.414,33.349z"/>
			<path fill="#9AA8A5" d="M19.201,51.138c1.219,1.218,3.195,1.218,4.413,0l9.516-9.516L10.929,19.421"/>
		</g>
		<g>
			<circle fill="#366377" cx="41.969" cy="34.792" r="0.791"/>
			<circle fill="#366377" cx="45.385" cy="34.792" r="0.791"/>
			<circle fill="#366377" cx="48.801" cy="34.792" r="0.791"/>
			<circle fill="#366377" cx="52.217" cy="34.792" r="0.791"/>
			<circle fill="#366377" cx="55.633" cy="34.792" r="0.791"/>
		</g>
		<g>
			<circle fill="#366377" cx="41.969" cy="37.792" r="0.791"/>
			<circle fill="#366377" cx="45.385" cy="37.792" r="0.791"/>
			<circle fill="#366377" cx="48.801" cy="37.792" r="0.791"/>
			<circle fill="#366377" cx="52.217" cy="37.792" r="0.791"/>
			<circle fill="#366377" cx="55.633" cy="37.792" r="0.791"/>
		</g>
		<g>
			<circle fill="#366377" cx="41.969" cy="40.792" r="0.791"/>
			<circle fill="#366377" cx="45.385" cy="40.792" r="0.791"/>
			<circle fill="#366377" cx="48.801" cy="40.792" r="0.791"/>
			<circle fill="#366377" cx="52.217" cy="40.792" r="0.791"/>
			<circle fill="#366377" cx="55.633" cy="40.792" r="0.791"/>
		</g>
		<circle fill="#366377" cx="60.234" cy="30.749" r="3.625"/>
		<path fill="#1F4A59" d="M57.672,28.187c1.414-1.416,3.711-1.416,5.126-0.001s1.415,3.712,0,5.127"/>
	</g>
</g>
<g id="nyt_x5F_exporter_x5F_info" display="none">
</g>
</svg>
