<?xml version="1.0" encoding="utf-8"?>
<!-- Generator: Adobe Illustrator 16.0.0, SVG Export Plug-In . SVG Version: 6.00 Build 0)  -->
<!DOCTYPE svg PUBLIC "-//W3C//DTD SVG 1.1//EN" "http://www.w3.org/Graphics/SVG/1.1/DTD/svg11.dtd">
<svg version="1.1" xmlns="http://www.w3.org/2000/svg" xmlns:xlink="http://www.w3.org/1999/xlink" x="0px" y="0px" width="65px"
	 height="65px" viewBox="0 0 65 65" enable-background="new 0 0 65 65" xml:space="preserve">
<g id="Layer_1">
	<g>
		<g>
			<g>
				<g>
					<path fill="#FF7F00" d="M22,0.5C15,2.004,9.534,10.869,9.534,21.617C9.534,32.363,15,36.008,22,36.578V0.5z"/>
				</g>
				<path fill="#FF4800" d="M22,0.5c7,1.504,12.467,10.369,12.467,21.117C34.467,32.363,29,36.008,22,36.578V0.5z"/>
			</g>
			<g>
				<g>
					<path fill="#FFBC00" d="M22,13.26c-4,0.967-8.055,6.699-8.055,13.646c0,6.949,4.055,9.305,8.055,9.672V13.26z"/>
				</g>
				<path fill="#FF7F00" d="M22,13.26c5,0.967,8.054,6.699,8.054,13.646c0,6.949-3.054,9.305-8.054,9.672V13.26z"/>
			</g>
		</g>
		<g>
			<path fill="#AD4831" d="M54.491,60.309c0.958,0.959,0.958,2.514-0.001,3.473l0,0c-0.958,0.959-2.512,0.959-3.471,0L22.628,35.391
				c-0.958-0.959-0.958-2.514,0-3.471l0,0c0.96-0.959,2.515-0.959,3.472,0L54.491,60.309z"/>
			<path fill="#893210" d="M22.628,31.92L22.628,31.92c0.96-0.959,2.515-0.959,3.472,0l28.392,28.389
				c0.958,0.959,0.958,2.514-0.001,3.473l0,0"/>
			<path fill="#3D3D3D" d="M16.803,34.027c-2.328-2.33-2.44-5.992-0.25-8.184c2.193-2.191,5.855-2.08,8.184,0.25
				c2.329,2.326,4.051,7.6,1.859,9.793C24.405,38.076,19.131,36.354,16.803,34.027z"/>
			<path d="M26.596,35.887c-2.19,2.189-7.465,0.467-9.793-1.859c-2.328-2.33-2.44-5.992-0.25-8.184"/>
		</g>
	</g>
</g>
<g id="nyt_x5F_exporter_x5F_info" display="none">
</g>
</svg>
