<?xml version="1.0" encoding="utf-8"?>
<!-- Generator: Adobe Illustrator 16.0.0, SVG Export Plug-In . SVG Version: 6.00 Build 0)  -->
<!DOCTYPE svg PUBLIC "-//W3C//DTD SVG 1.1//EN" "http://www.w3.org/Graphics/SVG/1.1/DTD/svg11.dtd">
<svg version="1.1" xmlns="http://www.w3.org/2000/svg" xmlns:xlink="http://www.w3.org/1999/xlink" x="0px" y="0px" width="65px"
	 height="65px" viewBox="0 0 65 65" enable-background="new 0 0 65 65" xml:space="preserve">
<g id="Layer_1">
	<g>
		<path fill="#A8E5E5" d="M40.462,20.425V2.704c0-0.609-0.494-1.102-1.104-1.102H23.382c-0.609,0-1.102,0.492-1.102,1.102v17.721
			c-3.754,9.297-6.641,20.952-6.641,24.865c0,6.857,8.873,11.865,15.73,11.865c6.859,0,15.732-5.008,15.732-11.865
			C47.103,41.377,44.214,29.722,40.462,20.425z"/>
		<path fill="#8ED6D4" d="M31.37,57.155c6.859,0,15.732-5.008,15.732-11.865c0-3.913-2.889-15.568-6.641-24.865V2.704
			c0-0.609-0.494-1.102-1.104-1.102H23.382c-0.609,0-1.102,0.492-1.102,1.102"/>
		<g>
			<g>
				<g>
					<g>
						<g>
							<path fill="#68BCB8" d="M31.097,30.906c-2.305,0.491-4.07,3.384-4.07,6.891s1.766,4.698,4.07,4.884V30.906z"/>
						</g>
						<path fill="#68BCB8" d="M31.071,30.906c2.301,0.491,4.07,3.384,4.07,6.891s-1.77,4.698-4.07,4.884V30.906z"/>
					</g>
					<g>
						<g>
							<path fill="#68BCB8" d="M31.093,35.07c-1.486,0.316-2.629,2.186-2.629,4.452c0,2.271,1.143,3.038,2.629,3.158V35.07z"/>
						</g>
						<path fill="#68BCB8" d="M31.075,35.07c1.486,0.316,2.631,2.186,2.631,4.452c0,2.271-1.145,3.038-2.631,3.158V35.07z"/>
					</g>
					<path fill="#68BCB8" d="M31.085,41.564c-0.58,0-1.07,0.37-1.256,0.886c0.389,0.12,0.803,0.19,1.242,0.229v0.001
						c0.004-0.001,0.012-0.001,0.012-0.001l0.014,0.001V42.68c0.436-0.039,0.854-0.109,1.242-0.229
						C32.151,41.935,31.663,41.564,31.085,41.564z"/>
				</g>
				<circle fill="#68BCB8" cx="26.349" cy="42.692" r="0.443"/>
				<path fill="#68BCB8" d="M25.788,37.316c0,0.537-0.439,0.976-0.979,0.976c-0.537,0-0.973-0.438-0.973-0.976
					c0-0.538,0.436-0.974,0.973-0.974C25.349,36.343,25.788,36.778,25.788,37.316z"/>
				<circle fill="#68BCB8" cx="25.667" cy="40.771" r="0.412"/>
				<circle fill="#68BCB8" cx="26.111" cy="38.794" r="0.147"/>
				<path fill="#68BCB8" d="M25.905,33.535c0,0.341-0.279,0.623-0.621,0.623s-0.621-0.282-0.621-0.623
					c0-0.342,0.279-0.621,0.621-0.621S25.905,33.193,25.905,33.535z"/>
				<path fill="#68BCB8" d="M37.485,41.716c0,0.49-0.398,0.886-0.889,0.886c-0.486,0-0.885-0.396-0.885-0.886
					c0-0.489,0.398-0.885,0.885-0.885C37.087,40.831,37.485,41.227,37.485,41.716z"/>
				<circle fill="#68BCB8" cx="37.542" cy="37.405" r="0.473"/>
				<path fill="#68BCB8" d="M36.478,33.033c0,0.325-0.264,0.589-0.59,0.589S35.3,33.358,35.3,33.033
					c0-0.328,0.262-0.592,0.588-0.592S36.478,32.705,36.478,33.033z"/>
				<path fill="#68BCB8" d="M34.646,42.513c0,0.083-0.064,0.149-0.146,0.149c-0.084,0-0.146-0.066-0.146-0.149
					c0-0.08,0.062-0.146,0.146-0.146C34.581,42.367,34.646,42.433,34.646,42.513z"/>
				<circle fill="#68BCB8" cx="27.765" cy="30.642" r="0.326"/>
				<circle fill="#68BCB8" cx="34.943" cy="30.257" r="0.116"/>
				<path fill="#68BCB8" d="M30.335,29.398c0,0.148-0.117,0.269-0.268,0.269c-0.146,0-0.266-0.12-0.266-0.269
					c0-0.145,0.119-0.265,0.266-0.265C30.218,29.134,30.335,29.254,30.335,29.398z"/>
				<path fill="#68BCB8" d="M29.392,26.417c0,0.294-0.242,0.53-0.533,0.53c-0.295,0-0.533-0.236-0.533-0.53
					c0-0.295,0.238-0.531,0.533-0.531C29.149,25.886,29.392,26.122,29.392,26.417z"/>
			</g>
			<path fill="#68BCB8" d="M34.874,58.325c0,0.533-0.432,0.965-0.967,0.965h-5.543c-0.533,0-0.967-0.432-0.967-0.965V43.858
				c0-0.532,0.434-0.965,0.967-0.965h5.543c0.535,0,0.967,0.433,0.967,0.965V58.325z"/>
			<path fill="#68BCB8" d="M31.497,44.823c0,0.2-0.16,0.361-0.361,0.361l0,0c-0.197,0-0.361-0.161-0.361-0.361v-3.015
				c0-0.2,0.164-0.361,0.361-0.361l0,0c0.201,0,0.361,0.161,0.361,0.361V44.823z"/>
		</g>
		<g>
			<path fill="#475559" d="M48.587,61.104c0,0.609-0.492,1.102-1.102,1.102h-32.23c-0.607,0-1.102-0.492-1.102-1.102v-4.683
				c0-0.609,0.494-1.103,1.102-1.103h32.23c0.609,0,1.102,0.493,1.102,1.103V61.104z"/>
			<path fill="#2E3C3F" d="M52.306,63.398c0,0.608-0.494,1.102-1.102,1.102H11.536c-0.607,0-1.102-0.493-1.102-1.102v-0.733
				c0-0.608,0.494-1.103,1.102-1.103h39.668c0.607,0,1.102,0.494,1.102,1.103V63.398z"/>
		</g>
		<path fill="#788786" d="M45.282,53.758c0,0.485,0.393,0.879,0.879,0.88c0.484-0.001,0.879-0.396,0.879-0.88
			c0-1.59,1.293-2.882,2.883-2.883c1.588,0,2.883,1.291,2.881,2.881c0,1.591-1.291,2.884-2.881,2.884
			c-0.104,0.003-0.201,0.028-0.293,0.061v1.64c0.092,0.035,0.189,0.061,0.293,0.059c2.561,0,4.641-2.082,4.643-4.643
			c0-1.278-0.521-2.438-1.361-3.278c-0.842-0.842-2.002-1.361-3.281-1.361C47.364,49.116,45.282,51.198,45.282,53.758z"/>
		<path fill="#A8E5E5" d="M41.771,1.603c0,0.608-0.494,1.102-1.104,1.102H22.073c-0.609,0-1.102-0.493-1.102-1.102l0,0
			c0-0.609,0.492-1.103,1.102-1.103h18.594C41.276,0.5,41.771,0.993,41.771,1.603L41.771,1.603z"/>
		<path fill="#788786" d="M17.735,60.07c0,0.267-0.215,0.482-0.482,0.482l0,0c-0.268,0-0.482-0.216-0.482-0.482v-3.03
			c0-0.267,0.215-0.481,0.482-0.481l0,0c0.268,0,0.482,0.215,0.482,0.481V60.07z"/>
		<path fill="#788786" d="M21.522,60.07c0,0.267-0.215,0.482-0.482,0.482l0,0c-0.266,0-0.482-0.216-0.482-0.482v-3.03
			c0-0.267,0.217-0.481,0.482-0.481l0,0c0.268,0,0.482,0.215,0.482,0.481V60.07z"/>
		<path fill="#788786" d="M25.31,60.07c0,0.267-0.215,0.482-0.48,0.482l0,0c-0.268,0-0.482-0.216-0.482-0.482v-3.03
			c0-0.267,0.215-0.481,0.482-0.481l0,0c0.266,0,0.48,0.215,0.48,0.481V60.07z"/>
		<path fill="#788786" d="M29.099,60.07c0,0.267-0.215,0.482-0.482,0.482l0,0c-0.268,0-0.482-0.216-0.482-0.482v-3.03
			c0-0.267,0.215-0.481,0.482-0.481l0,0c0.268,0,0.482,0.215,0.482,0.481V60.07z"/>
		<path fill="#788786" d="M32.886,60.07c0,0.267-0.215,0.482-0.482,0.482l0,0c-0.266,0-0.482-0.216-0.482-0.482v-3.03
			c0-0.267,0.217-0.481,0.482-0.481l0,0c0.268,0,0.482,0.215,0.482,0.481V60.07z"/>
		<path fill="#788786" d="M36.673,60.07c0,0.267-0.215,0.482-0.482,0.482l0,0c-0.266,0-0.48-0.216-0.48-0.482v-3.03
			c0-0.267,0.215-0.481,0.48-0.481l0,0c0.268,0,0.482,0.215,0.482,0.481V60.07z"/>
		<path fill="#788786" d="M40.462,60.07c0,0.267-0.217,0.482-0.482,0.482l0,0c-0.268,0-0.482-0.216-0.482-0.482v-3.03
			c0-0.267,0.215-0.481,0.482-0.481l0,0c0.266,0,0.482,0.215,0.482,0.481V60.07z"/>
		<path fill="#788786" d="M44.249,60.07c0,0.267-0.215,0.482-0.482,0.482l0,0c-0.268,0-0.482-0.216-0.482-0.482v-3.03
			c0-0.267,0.215-0.481,0.482-0.481l0,0c0.268,0,0.482,0.215,0.482,0.481V60.07z"/>
	</g>
</g>
<g id="nyt_x5F_exporter_x5F_info" display="none">
</g>
</svg>
