<?xml version="1.0" encoding="utf-8"?>
<!-- Generator: Adobe Illustrator 16.0.0, SVG Export Plug-In . SVG Version: 6.00 Build 0)  -->
<!DOCTYPE svg PUBLIC "-//W3C//DTD SVG 1.1//EN" "http://www.w3.org/Graphics/SVG/1.1/DTD/svg11.dtd">
<svg version="1.1" xmlns="http://www.w3.org/2000/svg" xmlns:xlink="http://www.w3.org/1999/xlink" x="0px" y="0px" width="65px"
	 height="65px" viewBox="0 0 65 65" enable-background="new 0 0 65 65" xml:space="preserve">
<g id="Layer_1">
	<g>
		<circle fill="#0FD38C" cx="32.5" cy="14.625" r="10.25"/>
		<path fill="#0ABC91" d="M42.75,14.625c0,5.661-4.59,10.25-10.25,10.25c-5.663,0-10.25-4.589-10.25-10.25s4.588-6.75,10.25-6.75
			C38.161,7.875,42.75,8.964,42.75,14.625z"/>
		<path fill="#FFDE83" d="M45.833,53.208c0,0.552-0.449,0.999-1,0.999H20.167c-0.552,0-1-0.447-1-0.999l3.001-35.5
			c0-0.551,0.447-1,1-1h18.666c0.552,0,0.999,0.449,0.999,1L45.833,53.208z"/>
		<path fill="#F2D168" d="M41.833,16.708c0.552,0,0.999,0.449,0.999,1l3.002,35.5c0,0.552-0.449,0.999-1,0.999H20.167
			c-0.552,0-1-0.447-1-0.999"/>
		<g>
			<g>
				<g>
					<g>
						<path fill="#FF7F00" d="M32.458,33.862c-2.387,0.509-4.221,3.509-4.221,7.146s1.834,4.87,4.221,5.062V33.862z"/>
					</g>
					<path fill="#FF4800" d="M32.433,33.862c2.384,0.509,4.217,3.509,4.217,7.146s-1.833,4.87-4.217,5.062V33.862z"/>
				</g>
				<g>
					<g>
						<path fill="#FFBC00" d="M32.455,38.18c-1.543,0.327-2.727,2.267-2.727,4.616c0,2.354,1.184,3.149,2.727,3.273V38.18z"/>
					</g>
					<path fill="#FF7F00" d="M32.437,38.18c1.541,0.327,2.726,2.267,2.726,4.616c0,2.354-1.186,3.149-2.726,3.273V38.18z"/>
				</g>
				<path fill="#B73D13" d="M32.447,44.912c-0.602,0-1.109,0.383-1.302,0.918c0.402,0.125,0.836,0.199,1.289,0.237v0.002
					c0,0,0.008-0.002,0.014-0.002l0.012,0.002v-0.002c0.453-0.038,0.885-0.112,1.287-0.237
					C33.553,45.295,33.046,44.912,32.447,44.912z"/>
			</g>
			<circle fill="#FF7F00" cx="27.535" cy="46.082" r="0.459"/>
			<circle fill="#FF7F00" cx="25.942" cy="40.509" r="1.012"/>
			<circle fill="#FF7F00" cx="26.83" cy="44.091" r="0.428"/>
			<path fill="#FFBC00" d="M27.443,42.04c0,0.084-0.067,0.153-0.155,0.153c-0.083,0-0.15-0.069-0.15-0.153
				c0-0.086,0.067-0.153,0.15-0.153C27.375,41.887,27.443,41.954,27.443,42.04z"/>
			<circle fill="#FFBC00" cx="26.432" cy="36.587" r="0.644"/>
			<circle fill="#FFBC00" cx="38.162" cy="45.07" r="0.919"/>
			<circle fill="#FFBC00" cx="39.141" cy="40.601" r="0.49"/>
			<circle fill="#FF7F00" cx="37.427" cy="36.066" r="0.611"/>
			<path fill="#FF7F00" d="M36.139,45.896c0,0.086-0.067,0.154-0.153,0.154c-0.085,0-0.152-0.068-0.152-0.154
				c0-0.082,0.067-0.151,0.152-0.151C36.072,45.745,36.139,45.814,36.139,45.896z"/>
			<circle fill="#FFBC00" cx="29.004" cy="33.588" r="0.337"/>
			<circle fill="#FFBC00" cx="36.446" cy="33.189" r="0.121"/>
			<circle fill="#FFBC00" cx="31.393" cy="32.3" r="0.276"/>
			<circle fill="#FFBC00" cx="30.138" cy="29.207" r="0.552"/>
		</g>
		<path fill="#25454C" d="M36.374,62.29c0,0.554-0.447,1.001-0.999,1.001h-5.75c-0.552,0-1-0.447-1-1.001V47.291
			c0-0.553,0.447-1,1-1h5.75c0.551,0,0.999,0.447,0.999,1V62.29z"/>
		<path fill="#0ABC91" d="M50.833,64.208v-8.667c0-2.209-1.791-4-4.001-4H18.166c-2.208,0-3.999,1.791-3.999,4v8.667H50.833z"/>
		<path fill="#0FD38C" d="M50.833,55.541c0-2.209-1.791-4-4.001-4H18.166c-2.208,0-3.999,1.791-3.999,4"/>
		<path fill="#76858C" d="M58.5,62.374c0,1.013-0.822,1.834-1.833,1.834H8.333c-1.011,0-1.833-0.821-1.833-1.834l0,0
			c0-1.013,0.822-1.833,1.833-1.833h48.335C57.678,60.541,58.5,61.361,58.5,62.374L58.5,62.374z"/>
		<path fill="#96A3AA" d="M6.5,62.374L6.5,62.374c0-1.013,0.822-1.833,1.833-1.833h48.335c1.01,0,1.833,0.82,1.833,1.833l0,0"/>
		<path fill="#25454C" d="M32.875,48.291c0,0.207-0.167,0.375-0.374,0.375l0,0c-0.209,0-0.376-0.168-0.376-0.375v-3.125
			c0-0.207,0.167-0.375,0.376-0.375l0,0c0.206,0,0.374,0.168,0.374,0.375V48.291z"/>
		<path fill="#0ABC91" d="M46,17.042c0,0.552-0.449,1-1.001,1h-25c-0.551,0-0.999-0.448-0.999-1v-2.5
			c0-0.552,0.448-0.999,0.999-0.999h25c0.552,0,1.001,0.447,1.001,0.999V17.042z"/>
		<path fill="#0FD38C" d="M44.999,13.543h-25c-0.551,0-0.999,0.447-0.999,0.999v0.875c0,0.552,0.448,1.001,0.999,1.001h25
			c0.552,0,1.001-0.449,1.001-1.001v-0.875C46,13.99,45.551,13.543,44.999,13.543z"/>
		<path fill="#0ABC91" d="M50.75,17.957c0,0.322-0.262,0.585-0.583,0.585H14.833c-0.322,0-0.583-0.263-0.583-0.585l0,0
			c0-0.322,0.261-0.582,0.583-0.582h35.333C50.488,17.375,50.75,17.635,50.75,17.957L50.75,17.957z"/>
		<g>
			<path fill="#96A3AA" d="M49.884,53.513c-0.22,0.221-0.578,0.221-0.797,0l0,0c-0.22-0.22-0.22-0.578-0.002-0.797l2.612-2.611
				c0.22-0.22,0.578-0.22,0.798,0.001l0,0c0.22,0.22,0.22,0.577-0.002,0.797L49.884,53.513z"/>
			<path fill="#25454C" d="M53.944,52.716c-0.321,0.319-0.84,0.319-1.16,0l-2.9-2.901c-0.321-0.32-0.321-0.84,0-1.16l1.161-1.16
				c0.32-0.321,0.839-0.321,1.16,0l2.899,2.899c0.321,0.32,0.321,0.84,0,1.16L53.944,52.716z"/>
		</g>
		<circle fill="#25454C" cx="32.5" cy="10.916" r="1.625"/>
		<path fill="#96A3AA" d="M33.25,10.916c0,0.414-0.336,0.75-0.749,0.75l0,0c-0.415,0-0.751-0.336-0.751-0.75V1.542
			c0-0.414,0.336-0.75,0.751-0.75l0,0c0.413,0,0.749,0.336,0.749,0.75V10.916z"/>
	</g>
</g>
<g id="nyt_x5F_exporter_x5F_info" display="none">
</g>
</svg>
