<?xml version="1.0" encoding="utf-8"?>
<!-- Generator: Adobe Illustrator 16.0.0, SVG Export Plug-In . SVG Version: 6.00 Build 0)  -->
<!DOCTYPE svg PUBLIC "-//W3C//DTD SVG 1.1//EN" "http://www.w3.org/Graphics/SVG/1.1/DTD/svg11.dtd">
<svg version="1.1" xmlns="http://www.w3.org/2000/svg" xmlns:xlink="http://www.w3.org/1999/xlink" x="0px" y="0px" width="65px"
	 height="65px" viewBox="0 0 65 65" enable-background="new 0 0 65 65" xml:space="preserve">
<g id="Layer_1">
	<g>
		<path fill="#FF4E00" d="M33.179,12.529c0,0.375-0.305,0.678-0.679,0.678l0,0c-0.375,0-0.679-0.303-0.679-0.678V7.463
			c0-0.375,0.304-0.678,0.679-0.678l0,0c0.374,0,0.679,0.303,0.679,0.678V12.529z"/>
		<path fill="#59666B" d="M36.617,15.289c0,0.598-0.485,1.086-1.086,1.086h-6.062c-0.598,0-1.084-0.488-1.084-1.086v-5.156
			c0-0.6,0.486-1.086,1.084-1.086h6.062c0.601,0,1.086,0.486,1.086,1.086V15.289z"/>
		<path fill="#475559" d="M28.384,10.133c0-0.6,0.486-1.086,1.084-1.086h6.062c0.601,0,1.086,0.486,1.086,1.086v5.156
			c0,0.598-0.485,1.086-1.086,1.086"/>
		<path fill="#FF4E00" d="M53.315,63.279V37.711c0-11.023-8.958-19.98-19.987-19.98h-1.654c-11.042,0-19.988,8.957-19.988,19.98
			v25.568H53.315z"/>
		<path fill="#FF7900" d="M33.328,17.73h-1.654c-11.042,0-19.988,8.957-19.988,19.98v25.568"/>
		<path fill="#FF7900" d="M11.685,63.279"/>
		<path fill="#FF9700" d="M33.328,17.73h-1.654c-11.042,0-19.988,8.957-19.988,19.98"/>
		<path fill="#76858C" d="M54.007,63.686c0,0.449-0.363,0.814-0.814,0.814H11.808c-0.451,0-0.815-0.365-0.815-0.814l0,0
			c0-0.449,0.364-0.814,0.815-0.814h41.385C53.644,62.871,54.007,63.236,54.007,63.686L54.007,63.686z"/>
		<path fill="#A8E5E5" d="M30.664,57.986h22.651V37.711c0-1.232-0.13-2.436-0.343-3.605H30.664V57.986z"/>
		<path fill="#94D3D1" d="M53.315,57.986V37.711c0-1.232-0.13-2.436-0.343-3.605H30.664"/>
		<path fill="#76858C" d="M38.652,17.188c0,0.6-0.485,1.086-1.086,1.086H27.435c-0.6,0-1.086-0.486-1.086-1.086v-1.084
			c0-0.6,0.486-1.086,1.086-1.086h10.131c0.601,0,1.086,0.486,1.086,1.086V17.188z"/>
		<g>
			<g>
				<g>
					<g>
						<path fill="#FF7F00" d="M32.492,1.5c-1.301,0.279-2.301,1.916-2.301,3.9c0,1.982,1,2.654,2.301,2.76V1.5z"/>
					</g>
					<path fill="#FF4800" d="M32.478,1.5c1.302,0.279,2.302,1.916,2.302,3.9c0,1.982-1,2.654-2.302,2.76V1.5z"/>
				</g>
				<g>
					<g>
						<path fill="#FFBC00" d="M32.49,3.855c-0.841,0.18-1.487,1.236-1.487,2.52s0.646,1.717,1.487,1.785V3.855z"/>
					</g>
					<path fill="#FF7F00" d="M32.48,3.855c0.841,0.18,1.488,1.236,1.488,2.52S33.321,8.092,32.48,8.16V3.855z"/>
				</g>
				<path fill="#B73D13" d="M32.488,7.529c-0.33,0-0.606,0.209-0.711,0.5c0.219,0.068,0.455,0.109,0.701,0.131l0,0h0.01h0.004l0,0
					c0.248-0.021,0.484-0.062,0.703-0.131C33.091,7.738,32.812,7.529,32.488,7.529z"/>
			</g>
			<circle fill="#FF7F00" cx="29.807" cy="8.166" r="0.251"/>
			<circle fill="#FF7F00" cx="28.938" cy="5.127" r="0.551"/>
			<circle fill="#FF7F00" cx="29.422" cy="7.08" r="0.233"/>
			<circle fill="#FFBC00" cx="29.674" cy="5.961" r="0.084"/>
			<circle fill="#FFBC00" cx="29.206" cy="2.988" r="0.351"/>
			<circle fill="#FFBC00" cx="35.604" cy="7.615" r="0.501"/>
			<circle fill="#FFBC00" cx="36.138" cy="5.176" r="0.267"/>
			<circle fill="#FF7F00" cx="35.202" cy="2.703" r="0.333"/>
			<path fill="#FF7F00" d="M34.5,8.064c0,0.049-0.037,0.086-0.081,0.086c-0.048,0-0.085-0.037-0.085-0.086
				c0-0.043,0.037-0.082,0.085-0.082C34.462,7.982,34.5,8.021,34.5,8.064z"/>
			<circle fill="#FFBC00" cx="30.609" cy="1.352" r="0.183"/>
			<circle fill="#FFBC00" cx="34.667" cy="1.135" r="0.066"/>
			<path fill="#FFBC00" d="M32.062,0.65c0,0.082-0.066,0.15-0.152,0.15c-0.081,0-0.148-0.068-0.148-0.15
				c0-0.084,0.067-0.15,0.148-0.15C31.996,0.5,32.062,0.566,32.062,0.65z"/>
		</g>
		<path fill="#FFBC00" d="M24.15,48.578c0,0.15-0.121,0.271-0.271,0.271h-6.693c-0.15,0-0.271-0.121-0.271-0.271l0,0
			c0-0.148,0.121-0.271,0.271-0.271h6.693C24.029,48.307,24.15,48.43,24.15,48.578L24.15,48.578z"/>
		<path fill="#FFBC00" d="M24.15,51.473c0,0.15-0.121,0.271-0.271,0.271h-6.693c-0.15,0-0.271-0.121-0.271-0.271l0,0
			c0-0.148,0.121-0.271,0.271-0.271h6.693C24.029,51.201,24.15,51.324,24.15,51.473L24.15,51.473z"/>
		<path fill="#FFBC00" d="M24.15,54.369c0,0.148-0.121,0.271-0.271,0.271h-6.693c-0.15,0-0.271-0.123-0.271-0.271l0,0
			c0-0.15,0.121-0.271,0.271-0.271h6.693C24.029,54.098,24.15,54.219,24.15,54.369L24.15,54.369z"/>
		<path fill="#FFBC00" d="M24.15,57.264c0,0.15-0.121,0.271-0.271,0.271h-6.693c-0.15,0-0.271-0.121-0.271-0.271l0,0
			c0-0.15,0.121-0.271,0.271-0.271h6.693C24.029,56.992,24.15,57.113,24.15,57.264L24.15,57.264z"/>
		<g>
			<g>
				<g>
					<path fill="#8C8981" d="M20.199,19.451c-0.357,0-0.709-0.176-0.916-0.5L12.5,8.367c-0.214-0.336-0.23-0.76-0.038-1.107
						c0.19-0.348,0.556-0.564,0.952-0.564h12.664c0.601,0,1.086,0.486,1.086,1.086s-0.485,1.086-1.086,1.086h-10.68l5.714,8.912
						c0.323,0.504,0.177,1.176-0.328,1.5C20.603,19.395,20.398,19.451,20.199,19.451z"/>
				</g>
				<g>
					<path fill="#A3A099" d="M21.283,14.023h-3.438c-0.3,0-0.543-0.244-0.543-0.543c0-0.301,0.243-0.543,0.543-0.543h2.896V8.053
						c0-0.301,0.243-0.543,0.542-0.543c0.301,0,0.543,0.242,0.543,0.543v5.428C21.826,13.779,21.583,14.023,21.283,14.023z"/>
				</g>
			</g>
			<g>
				<g>
					<path fill="#8C8981" d="M44.802,19.451c0.357,0,0.708-0.176,0.914-0.5l6.785-10.584c0.214-0.336,0.229-0.76,0.037-1.107
						c-0.188-0.348-0.555-0.564-0.951-0.564H38.922c-0.601,0-1.085,0.486-1.085,1.086s0.484,1.086,1.085,1.086h10.679l-5.713,8.912
						c-0.322,0.504-0.176,1.176,0.33,1.5C44.398,19.395,44.601,19.451,44.802,19.451z"/>
				</g>
				<g>
					<path fill="#A3A099" d="M43.716,14.023h3.439c0.299,0,0.543-0.244,0.543-0.543c0-0.301-0.244-0.543-0.543-0.543h-2.896V8.053
						c0-0.301-0.242-0.543-0.543-0.543c-0.299,0-0.542,0.242-0.542,0.543v5.428C43.174,13.779,43.417,14.023,43.716,14.023z"/>
				</g>
			</g>
		</g>
	</g>
</g>
<g id="nyt_x5F_exporter_x5F_info" display="none">
</g>
</svg>
