<?xml version="1.0" encoding="utf-8"?>
<!-- Generator: Adobe Illustrator 16.0.0, SVG Export Plug-In . SVG Version: 6.00 Build 0)  -->
<!DOCTYPE svg PUBLIC "-//W3C//DTD SVG 1.1//EN" "http://www.w3.org/Graphics/SVG/1.1/DTD/svg11.dtd">
<svg version="1.1" xmlns="http://www.w3.org/2000/svg" xmlns:xlink="http://www.w3.org/1999/xlink" x="0px" y="0px" width="65px"
	 height="65px" viewBox="0 0 65 65" enable-background="new 0 0 65 65" xml:space="preserve">
<g id="Layer_1">
	<g>
		<g>
			<polygon fill="#845526" points="35.189,46.779 32.432,28.285 29.676,46.779 			"/>
			<polygon fill="#6D4118" points="33.635,46.779 32.432,28.285 29.676,46.779 			"/>
			<g>
				<g>
					<g>
						<g>
							<path fill="#88CE24" d="M32.705,30.656c-0.445-10.674-9.301-11.061-11.406-9.15l10.715,10.713L32.705,30.656z"/>
							<path fill="#73AF09" d="M32.705,30.656c-3.375-8.209-9.301-11.061-11.406-9.15l10.715,10.713L32.705,30.656z"/>
							<path fill="#88CE24" d="M32.42,30.229c-7.855-7.234-14.391-1.248-14.523,1.596l15.141,0.002L32.42,30.229z"/>
							<path fill="#73AF09" d="M32.42,30.229c-7.465-3.781-14.391-1.248-14.523,1.596l15.141,0.002L32.42,30.229z"/>
							<path fill="#88CE24" d="M30.748,30.99c-7.484,0.312-7.758,6.525-6.422,8.002l7.516-7.514L30.748,30.99z"/>
							<path fill="#73AF09" d="M30.748,30.99c-3.584,1.539-7.758,6.525-6.422,8.002l7.516-7.514L30.748,30.99z"/>
						</g>
						<g>
							<path fill="#88CE24" d="M32.381,30.656c0.441-10.674,9.293-11.061,11.395-9.15L33.076,32.219L32.381,30.656z"/>
							<path fill="#73AF09" d="M32.381,30.656c3.117-9.043,9.293-11.061,11.395-9.15L33.076,32.219L32.381,30.656z"/>
							<path fill="#88CE24" d="M32.654,30.229c7.863-7.234,14.398-1.248,14.535,1.596l-15.145,0.002L32.654,30.229z"/>
							<path fill="#73AF09" d="M32.654,30.229c7.844-4.449,14.398-1.248,14.535,1.596l-15.145,0.002L32.654,30.229z"/>
							<path fill="#88CE24" d="M34.338,30.99c7.484,0.312,7.754,6.525,6.414,8.002l-7.512-7.514L34.338,30.99z"/>
							<path fill="#73AF09" d="M34.338,30.99c4.617,0.957,7.754,6.525,6.414,8.002l-7.512-7.514L34.338,30.99z"/>
						</g>
					</g>
					<path fill="#88CE24" d="M32.318,29.648c-7.234-7.859-1.254-14.395,1.598-14.535v15.145L32.318,29.648z"/>
					<path fill="#73AF09" d="M32.318,29.648c-3.32-7.91-1.254-14.395,1.598-14.535v15.145L32.318,29.648z"/>
				</g>
				<polygon fill="#AF7846" points="30.855,38.863 34.008,38.863 33.797,37.447 31.066,37.447 				"/>
				<polygon fill="#AF7846" points="30.146,43.613 34.717,43.613 34.506,42.197 30.357,42.197 				"/>
				<polygon fill="#9B663B" points="33.027,37.447 31.066,37.447 30.855,38.863 33.119,38.863 				"/>
				<polygon fill="#9B663B" points="30.146,43.613 33.428,43.613 33.336,42.197 30.357,42.197 				"/>
				<g>
					<circle fill="#638C4C" cx="32.59" cy="30.207" r="1.469"/>
					<path fill="#506D3C" d="M32.59,28.738c0.811,0,1.469,0.658,1.469,1.469s-0.658,1.469-1.469,1.469"/>
				</g>
				<g>
					<circle fill="#638C4C" cx="31.632" cy="31.957" r="1.469"/>
					<path fill="#506D3C" d="M32.67,30.918c0.574,0.574,0.574,1.504,0,2.078c-0.572,0.572-1.502,0.572-2.076,0"/>
				</g>
				<g>
					<circle fill="#638C4C" cx="33.82" cy="32.165" r="1.161"/>
					<path fill="#506D3C" d="M33,31.344c0.453-0.451,1.189-0.453,1.641,0c0.455,0.453,0.455,1.188,0,1.643"/>
				</g>
			</g>
			<g>
				<g>
					<path fill="#D8BE21" d="M38.479,48.27H26.609c-0.469,0-0.848-0.377-0.848-0.846c0-0.471,0.379-0.85,0.848-0.85h11.869
						c0.467,0,0.848,0.379,0.848,0.85C39.326,47.893,38.945,48.27,38.479,48.27z"/>
				</g>
				<g>
					<g>
						<path fill="#D8BE21" d="M31.215,51.238h-3.912c-0.469,0-0.848-0.379-0.848-0.848c0-0.471,0.379-0.848,0.848-0.848h3.912
							c0.469,0,0.848,0.377,0.848,0.848C32.062,50.859,31.684,51.238,31.215,51.238z"/>
					</g>
					<g>
						<path fill="#D8BE21" d="M37.785,51.238h-3.912c-0.469,0-0.848-0.379-0.848-0.848c0-0.471,0.379-0.848,0.848-0.848h3.912
							c0.469,0,0.848,0.377,0.848,0.848C38.633,50.859,38.254,51.238,37.785,51.238z"/>
					</g>
				</g>
			</g>
		</g>
		<g>
			<g>
				<g>
					<g>
						<polygon fill="#845526" points="7.463,13.514 6.48,6.924 5.5,13.514 						"/>
						<polygon fill="#6D4118" points="6.91,13.514 6.48,6.924 5.5,13.514 						"/>
						<g>
							<g>
								<g>
									<g>
										<path fill="#88CE24" d="M6.578,7.77C6.42,3.967,3.266,3.828,2.514,4.51l3.818,3.816L6.578,7.77z"/>
										<path fill="#88CE24" d="M6.477,7.617C3.678,5.039,1.35,7.172,1.303,8.186h5.395L6.477,7.617z"/>
										<path fill="#88CE24" d="M5.881,7.889C3.215,8,3.117,10.213,3.594,10.74l2.678-2.678L5.881,7.889z"/>
									</g>
									<g>
										<path fill="#88CE24" d="M6.463,7.77c0.158-3.803,3.311-3.941,4.061-3.26L6.711,8.326L6.463,7.77z"/>
										<path fill="#88CE24" d="M6.561,7.617c2.803-2.578,5.131-0.445,5.18,0.568H6.344L6.561,7.617z"/>
										<path fill="#88CE24" d="M7.16,7.889C9.828,8,9.922,10.213,9.445,10.74L6.77,8.062L7.16,7.889z"/>
									</g>
								</g>
								<path fill="#88CE24" d="M6.441,7.41C3.863,4.609,5.994,2.281,7.01,2.23v5.396L6.441,7.41z"/>
								<path fill="#73AF09" d="M6.516,7.631C5.305,4.814,3.252,3.84,2.514,4.51l2.602,2.6C3.031,6.592,1.342,7.35,1.303,8.186
									h4.035C4.227,8.91,3.184,10.287,3.594,10.74l2.553-2.555h0.045l0.141,0.141l0.062-0.141H6.52h0.129l0.062,0.141L6.85,8.186
									h0.043l2.553,2.555c0.398-0.439-0.312-1.885-1.512-2.555h3.807c-0.041-0.828-1.611-1.74-3.713-1.178l2.496-2.498
									C9.883,3.928,8.186,4.375,7.01,6.527V2.23C5.994,2.281,5.258,4.592,6.441,7.41"/>
							</g>
						</g>
						<g>
							<g>
								<path fill="#D8BE21" d="M8.635,14.045H4.406c-0.168,0-0.303-0.135-0.303-0.301c0-0.168,0.135-0.303,0.303-0.303h4.229
									c0.166,0,0.303,0.135,0.303,0.303C8.938,13.91,8.801,14.045,8.635,14.045z"/>
							</g>
							<g>
								<g>
									<path fill="#D8BE21" d="M6.047,15.102H4.652c-0.166,0-0.301-0.135-0.301-0.301c0-0.168,0.135-0.303,0.301-0.303h1.395
										c0.168,0,0.303,0.135,0.303,0.303C6.35,14.967,6.215,15.102,6.047,15.102z"/>
								</g>
								<g>
									<path fill="#D8BE21" d="M8.389,15.102H6.994c-0.166,0-0.303-0.135-0.303-0.301c0-0.168,0.137-0.303,0.303-0.303h1.395
										c0.166,0,0.301,0.135,0.301,0.303C8.689,14.967,8.555,15.102,8.389,15.102z"/>
								</g>
							</g>
						</g>
					</g>
					<ellipse fill="#73AF09" cx="6.49" cy="8.055" rx="0.484" ry="0.33"/>
				</g>
				<g>
					<g>
						<polygon fill="#845526" points="21.088,13.514 20.105,6.924 19.125,13.514 						"/>
						<polygon fill="#6D4118" points="20.535,13.514 20.105,6.924 19.125,13.514 						"/>
						<g>
							<g>
								<g>
									<g>
										<path fill="#88CE24" d="M20.203,7.77c-0.158-3.803-3.312-3.941-4.064-3.26l3.818,3.816L20.203,7.77z"/>
										<path fill="#88CE24" d="M20.102,7.617c-2.799-2.578-5.127-0.445-5.174,0.568h5.395L20.102,7.617z"/>
										<path fill="#88CE24" d="M19.506,7.889C16.84,8,16.742,10.213,17.219,10.74l2.678-2.678L19.506,7.889z"/>
									</g>
									<g>
										<path fill="#88CE24" d="M20.088,7.77c0.158-3.803,3.311-3.941,4.061-3.26l-3.812,3.816L20.088,7.77z"/>
										<path fill="#88CE24" d="M20.186,7.617c2.803-2.578,5.131-0.445,5.18,0.568h-5.396L20.186,7.617z"/>
										<path fill="#88CE24" d="M20.785,7.889C23.453,8,23.547,10.213,23.07,10.74l-2.676-2.678L20.785,7.889z"/>
									</g>
								</g>
								<path fill="#88CE24" d="M20.066,7.41c-2.578-2.801-0.447-5.129,0.568-5.18v5.396L20.066,7.41z"/>
								<path fill="#73AF09" d="M20.141,7.631C18.93,4.814,16.877,3.84,16.139,4.51l2.602,2.6c-2.084-0.518-3.773,0.24-3.812,1.076
									h4.035c-1.111,0.725-2.154,2.102-1.744,2.555l2.553-2.555h0.045l0.141,0.141l0.062-0.141h0.125h0.129l0.062,0.141
									l0.139-0.141h0.043l2.553,2.555c0.398-0.439-0.312-1.885-1.512-2.555h3.807c-0.041-0.828-1.611-1.74-3.713-1.178
									l2.496-2.498c-0.641-0.582-2.338-0.135-3.514,2.018V2.23c-1.016,0.051-1.752,2.361-0.568,5.18"/>
							</g>
						</g>
						<g>
							<g>
								<path fill="#D8BE21" d="M22.26,14.045h-4.229c-0.168,0-0.303-0.135-0.303-0.301c0-0.168,0.135-0.303,0.303-0.303h4.229
									c0.166,0,0.303,0.135,0.303,0.303C22.562,13.91,22.426,14.045,22.26,14.045z"/>
							</g>
							<g>
								<g>
									<path fill="#D8BE21" d="M19.672,15.102h-1.395c-0.166,0-0.301-0.135-0.301-0.301c0-0.168,0.135-0.303,0.301-0.303h1.395
										c0.168,0,0.303,0.135,0.303,0.303C19.975,14.967,19.84,15.102,19.672,15.102z"/>
								</g>
								<g>
									<path fill="#D8BE21" d="M22.014,15.102h-1.395c-0.166,0-0.303-0.135-0.303-0.301c0-0.168,0.137-0.303,0.303-0.303h1.395
										c0.166,0,0.301,0.135,0.301,0.303C22.314,14.967,22.18,15.102,22.014,15.102z"/>
								</g>
							</g>
						</g>
					</g>
					<ellipse fill="#73AF09" cx="20.115" cy="8.055" rx="0.484" ry="0.33"/>
				</g>
			</g>
			<g>
				<g>
					<polygon fill="#845526" points="14.275,25.887 13.293,19.297 12.312,25.887 					"/>
					<polygon fill="#6D4118" points="13.723,25.887 13.293,19.297 12.312,25.887 					"/>
					<g>
						<g>
							<g>
								<g>
									<path fill="#88CE24" d="M13.391,20.143c-0.158-3.803-3.312-3.941-4.064-3.26l3.818,3.816L13.391,20.143z"/>
									<path fill="#88CE24" d="M13.289,19.99c-2.799-2.578-5.127-0.445-5.174,0.568h5.395L13.289,19.99z"/>
									<path fill="#88CE24" d="M12.693,20.262c-2.666,0.111-2.764,2.324-2.287,2.852l2.678-2.678L12.693,20.262z"/>
								</g>
								<g>
									<path fill="#88CE24" d="M13.275,20.143c0.158-3.803,3.311-3.941,4.061-3.26l-3.812,3.816L13.275,20.143z"/>
									<path fill="#88CE24" d="M13.373,19.99c2.803-2.578,5.131-0.445,5.18,0.568h-5.396L13.373,19.99z"/>
									<path fill="#88CE24" d="M13.973,20.262c2.668,0.111,2.762,2.324,2.285,2.852l-2.676-2.678L13.973,20.262z"/>
								</g>
							</g>
							<path fill="#88CE24" d="M13.254,19.783c-2.578-2.801-0.447-5.129,0.568-5.18V20L13.254,19.783z"/>
							<path fill="#73AF09" d="M13.328,20.004c-1.211-2.816-3.264-3.791-4.002-3.121l2.602,2.6c-2.084-0.518-3.773,0.24-3.812,1.076
								h4.035c-1.111,0.725-2.154,2.102-1.744,2.555l2.553-2.555h0.045l0.141,0.141l0.062-0.141h0.125h0.129l0.062,0.141
								l0.139-0.141h0.043l2.553,2.555c0.398-0.439-0.312-1.885-1.512-2.555h3.807c-0.041-0.828-1.611-1.74-3.713-1.178l2.496-2.498
								c-0.641-0.582-2.338-0.135-3.514,2.018v-4.297c-1.016,0.051-1.752,2.361-0.568,5.18"/>
						</g>
					</g>
					<g>
						<g>
							<path fill="#D8BE21" d="M15.447,26.418h-4.229c-0.168,0-0.303-0.135-0.303-0.301c0-0.168,0.135-0.303,0.303-0.303h4.229
								c0.166,0,0.303,0.135,0.303,0.303C15.75,26.283,15.613,26.418,15.447,26.418z"/>
						</g>
						<g>
							<g>
								<path fill="#D8BE21" d="M12.859,27.475h-1.395c-0.166,0-0.301-0.135-0.301-0.301c0-0.168,0.135-0.303,0.301-0.303h1.395
									c0.168,0,0.303,0.135,0.303,0.303C13.162,27.34,13.027,27.475,12.859,27.475z"/>
							</g>
							<g>
								<path fill="#D8BE21" d="M15.201,27.475h-1.395c-0.166,0-0.303-0.135-0.303-0.301c0-0.168,0.137-0.303,0.303-0.303h1.395
									c0.166,0,0.301,0.135,0.301,0.303C15.502,27.34,15.367,27.475,15.201,27.475z"/>
							</g>
						</g>
					</g>
				</g>
				<ellipse fill="#73AF09" cx="13.303" cy="20.428" rx="0.484" ry="0.33"/>
			</g>
		</g>
		<g>
			<g>
				<g>
					<g>
						<polygon fill="#845526" points="7.463,61.18 6.48,54.592 5.5,61.18 						"/>
						<polygon fill="#6D4118" points="6.91,61.18 6.48,54.592 5.5,61.18 						"/>
						<g>
							<g>
								<g>
									<g>
										<path fill="#88CE24" d="M6.578,55.436c-0.158-3.803-3.312-3.941-4.064-3.26l3.818,3.816L6.578,55.436z"/>
										<path fill="#88CE24" d="M6.477,55.283c-2.799-2.578-5.127-0.445-5.174,0.568l5.395,0.002L6.477,55.283z"/>
										<path fill="#88CE24" d="M5.881,55.555c-2.666,0.111-2.764,2.324-2.287,2.852l2.678-2.678L5.881,55.555z"/>
									</g>
									<g>
										<path fill="#88CE24" d="M6.463,55.436c0.158-3.803,3.311-3.941,4.061-3.26l-3.812,3.816L6.463,55.436z"/>
										<path fill="#88CE24" d="M6.561,55.283c2.803-2.578,5.131-0.445,5.18,0.568l-5.396,0.002L6.561,55.283z"/>
										<path fill="#88CE24" d="M7.16,55.555c2.668,0.111,2.762,2.324,2.285,2.852L6.77,55.729L7.16,55.555z"/>
									</g>
								</g>
								<path fill="#88CE24" d="M6.441,55.076c-2.578-2.799-0.447-5.127,0.568-5.178v5.396L6.441,55.076z"/>
								<path fill="#73AF09" d="M6.516,55.297c-1.211-2.814-3.264-3.791-4.002-3.121l2.602,2.6c-2.084-0.518-3.773,0.24-3.812,1.076
									l4.035,0.002c-1.111,0.725-2.154,2.1-1.744,2.553l2.553-2.553h0.045l0.141,0.139l0.062-0.139H6.52h0.129l0.062,0.139
									l0.139-0.139h0.043l2.553,2.553c0.398-0.439-0.312-1.885-1.512-2.553l3.807-0.002c-0.041-0.828-1.611-1.74-3.713-1.178
									l2.496-2.498c-0.641-0.582-2.338-0.135-3.514,2.018v-4.295c-1.016,0.051-1.752,2.359-0.568,5.178"/>
							</g>
						</g>
						<g>
							<g>
								<path fill="#D8BE21" d="M8.635,61.711H4.406c-0.168,0-0.303-0.133-0.303-0.301s0.135-0.303,0.303-0.303h4.229
									c0.166,0,0.303,0.135,0.303,0.303S8.801,61.711,8.635,61.711z"/>
							</g>
							<g>
								<g>
									<path fill="#D8BE21" d="M6.047,62.77H4.652c-0.166,0-0.301-0.137-0.301-0.303c0-0.168,0.135-0.303,0.301-0.303h1.395
										c0.168,0,0.303,0.135,0.303,0.303C6.35,62.633,6.215,62.77,6.047,62.77z"/>
								</g>
								<g>
									<path fill="#D8BE21" d="M8.389,62.77H6.994c-0.166,0-0.303-0.137-0.303-0.303c0-0.168,0.137-0.303,0.303-0.303h1.395
										c0.166,0,0.301,0.135,0.301,0.303C8.689,62.633,8.555,62.77,8.389,62.77z"/>
								</g>
							</g>
						</g>
					</g>
					<ellipse fill="#73AF09" cx="6.49" cy="55.721" rx="0.484" ry="0.33"/>
				</g>
				<g>
					<g>
						<polygon fill="#845526" points="21.088,61.18 20.105,54.592 19.125,61.18 						"/>
						<polygon fill="#6D4118" points="20.535,61.18 20.105,54.592 19.125,61.18 						"/>
						<g>
							<g>
								<g>
									<g>
										<path fill="#88CE24" d="M20.203,55.436c-0.158-3.803-3.312-3.941-4.064-3.26l3.818,3.816L20.203,55.436z"/>
										<path fill="#88CE24" d="M20.102,55.283c-2.799-2.578-5.127-0.445-5.174,0.568l5.395,0.002L20.102,55.283z"/>
										<path fill="#88CE24" d="M19.506,55.555c-2.666,0.111-2.764,2.324-2.287,2.852l2.678-2.678L19.506,55.555z"/>
									</g>
									<g>
										<path fill="#88CE24" d="M20.088,55.436c0.158-3.803,3.311-3.941,4.061-3.26l-3.812,3.816L20.088,55.436z"/>
										<path fill="#88CE24" d="M20.186,55.283c2.803-2.578,5.131-0.445,5.18,0.568l-5.396,0.002L20.186,55.283z"/>
										<path fill="#88CE24" d="M20.785,55.555c2.668,0.111,2.762,2.324,2.285,2.852l-2.676-2.678L20.785,55.555z"/>
									</g>
								</g>
								<path fill="#88CE24" d="M20.066,55.076c-2.578-2.799-0.447-5.127,0.568-5.178v5.396L20.066,55.076z"/>
								<path fill="#73AF09" d="M20.141,55.297c-1.211-2.814-3.264-3.791-4.002-3.121l2.602,2.6
									c-2.084-0.518-3.773,0.24-3.812,1.076l4.035,0.002c-1.111,0.725-2.154,2.1-1.744,2.553l2.553-2.553h0.045l0.141,0.139
									l0.062-0.139h0.125h0.129l0.062,0.139l0.139-0.139h0.043l2.553,2.553c0.398-0.439-0.312-1.885-1.512-2.553l3.807-0.002
									c-0.041-0.828-1.611-1.74-3.713-1.178l2.496-2.498c-0.641-0.582-2.338-0.135-3.514,2.018v-4.295
									c-1.016,0.051-1.752,2.359-0.568,5.178"/>
							</g>
						</g>
						<g>
							<g>
								<path fill="#D8BE21" d="M22.26,61.711h-4.229c-0.168,0-0.303-0.133-0.303-0.301s0.135-0.303,0.303-0.303h4.229
									c0.166,0,0.303,0.135,0.303,0.303S22.426,61.711,22.26,61.711z"/>
							</g>
							<g>
								<g>
									<path fill="#D8BE21" d="M19.672,62.77h-1.395c-0.166,0-0.301-0.137-0.301-0.303c0-0.168,0.135-0.303,0.301-0.303h1.395
										c0.168,0,0.303,0.135,0.303,0.303C19.975,62.633,19.84,62.77,19.672,62.77z"/>
								</g>
								<g>
									<path fill="#D8BE21" d="M22.014,62.77h-1.395c-0.166,0-0.303-0.137-0.303-0.303c0-0.168,0.137-0.303,0.303-0.303h1.395
										c0.166,0,0.301,0.135,0.301,0.303C22.314,62.633,22.18,62.77,22.014,62.77z"/>
								</g>
							</g>
						</g>
					</g>
					<ellipse fill="#73AF09" cx="20.115" cy="55.721" rx="0.484" ry="0.33"/>
				</g>
			</g>
			<g>
				<g>
					<polygon fill="#845526" points="14.275,45.887 13.293,39.297 12.312,45.887 					"/>
					<polygon fill="#6D4118" points="13.723,45.887 13.293,39.297 12.312,45.887 					"/>
					<g>
						<g>
							<g>
								<g>
									<path fill="#88CE24" d="M13.391,40.143c-0.158-3.803-3.312-3.941-4.064-3.26l3.818,3.816L13.391,40.143z"/>
									<path fill="#88CE24" d="M13.289,39.99c-2.799-2.578-5.127-0.445-5.174,0.568h5.395L13.289,39.99z"/>
									<path fill="#88CE24" d="M12.693,40.262c-2.666,0.111-2.764,2.324-2.287,2.852l2.678-2.678L12.693,40.262z"/>
								</g>
								<g>
									<path fill="#88CE24" d="M13.275,40.143c0.158-3.803,3.311-3.941,4.061-3.26l-3.812,3.816L13.275,40.143z"/>
									<path fill="#88CE24" d="M13.373,39.99c2.803-2.578,5.131-0.445,5.18,0.568h-5.396L13.373,39.99z"/>
									<path fill="#88CE24" d="M13.973,40.262c2.668,0.111,2.762,2.324,2.285,2.852l-2.676-2.678L13.973,40.262z"/>
								</g>
							</g>
							<path fill="#88CE24" d="M13.254,39.783c-2.578-2.801-0.447-5.129,0.568-5.18V40L13.254,39.783z"/>
							<path fill="#73AF09" d="M13.328,40.004c-1.211-2.816-3.264-3.791-4.002-3.121l2.602,2.6c-2.084-0.518-3.773,0.24-3.812,1.076
								h4.035c-1.111,0.725-2.154,2.102-1.744,2.555l2.553-2.555h0.045l0.141,0.141l0.062-0.141h0.125h0.129l0.062,0.141
								l0.139-0.141h0.043l2.553,2.555c0.398-0.439-0.312-1.885-1.512-2.555h3.807c-0.041-0.828-1.611-1.74-3.713-1.178l2.496-2.498
								c-0.641-0.582-2.338-0.135-3.514,2.018v-4.297c-1.016,0.051-1.752,2.361-0.568,5.18"/>
						</g>
					</g>
					<g>
						<g>
							<path fill="#D8BE21" d="M15.447,46.418h-4.229c-0.168,0-0.303-0.135-0.303-0.301c0-0.168,0.135-0.303,0.303-0.303h4.229
								c0.166,0,0.303,0.135,0.303,0.303C15.75,46.283,15.613,46.418,15.447,46.418z"/>
						</g>
						<g>
							<g>
								<path fill="#D8BE21" d="M12.859,47.475h-1.395c-0.166,0-0.301-0.135-0.301-0.301c0-0.168,0.135-0.303,0.301-0.303h1.395
									c0.168,0,0.303,0.135,0.303,0.303C13.162,47.34,13.027,47.475,12.859,47.475z"/>
							</g>
							<g>
								<path fill="#D8BE21" d="M15.201,47.475h-1.395c-0.166,0-0.303-0.135-0.303-0.301c0-0.168,0.137-0.303,0.303-0.303h1.395
									c0.166,0,0.301,0.135,0.301,0.303C15.502,47.34,15.367,47.475,15.201,47.475z"/>
							</g>
						</g>
					</g>
				</g>
				<ellipse fill="#73AF09" cx="13.303" cy="40.428" rx="0.484" ry="0.33"/>
			</g>
		</g>
		<g>
			<g>
				<g>
					<g>
						<polygon fill="#845526" points="45.797,61.18 44.814,54.592 43.832,61.18 						"/>
						<polygon fill="#6D4118" points="45.242,61.18 44.814,54.592 43.832,61.18 						"/>
						<g>
							<g>
								<g>
									<g>
										<path fill="#88CE24" d="M44.912,55.436c-0.158-3.803-3.314-3.941-4.064-3.26l3.818,3.816L44.912,55.436z"/>
										<path fill="#88CE24" d="M44.811,55.283c-2.799-2.578-5.127-0.445-5.176,0.568l5.395,0.002L44.811,55.283z"/>
										<path fill="#88CE24" d="M44.215,55.555c-2.668,0.111-2.764,2.324-2.289,2.852l2.678-2.678L44.215,55.555z"/>
									</g>
									<g>
										<path fill="#88CE24" d="M44.797,55.436c0.156-3.803,3.311-3.941,4.059-3.26l-3.811,3.816L44.797,55.436z"/>
										<path fill="#88CE24" d="M44.895,55.283c2.801-2.578,5.129-0.445,5.178,0.568l-5.395,0.002L44.895,55.283z"/>
										<path fill="#88CE24" d="M45.494,55.555c2.666,0.111,2.762,2.324,2.285,2.852l-2.676-2.678L45.494,55.555z"/>
									</g>
								</g>
								<path fill="#88CE24" d="M44.773,55.076c-2.576-2.799-0.445-5.127,0.57-5.178v5.396L44.773,55.076z"/>
								<path fill="#73AF09" d="M44.85,55.297c-1.211-2.814-3.264-3.791-4.002-3.121l2.602,2.6c-2.084-0.518-3.773,0.24-3.814,1.076
									l4.037,0.002c-1.111,0.725-2.154,2.1-1.746,2.553l2.555-2.553h0.045l0.141,0.139l0.061-0.139h0.127h0.129l0.062,0.139
									l0.139-0.139h0.043l2.553,2.553c0.398-0.439-0.312-1.885-1.512-2.553l3.805-0.002c-0.039-0.828-1.611-1.74-3.711-1.178
									l2.494-2.498c-0.639-0.582-2.338-0.135-3.512,2.018v-4.295c-1.016,0.051-1.752,2.359-0.57,5.178"/>
							</g>
						</g>
						<g>
							<g>
								<path fill="#D8BE21" d="M46.969,61.711H42.74c-0.168,0-0.303-0.133-0.303-0.301s0.135-0.303,0.303-0.303h4.229
									c0.166,0,0.303,0.135,0.303,0.303S47.135,61.711,46.969,61.711z"/>
							</g>
							<g>
								<g>
									<path fill="#D8BE21" d="M44.381,62.77h-1.395c-0.166,0-0.301-0.137-0.301-0.303c0-0.168,0.135-0.303,0.301-0.303h1.395
										c0.166,0,0.303,0.135,0.303,0.303C44.684,62.633,44.547,62.77,44.381,62.77z"/>
								</g>
								<g>
									<path fill="#D8BE21" d="M46.723,62.77h-1.395c-0.168,0-0.303-0.137-0.303-0.303c0-0.168,0.135-0.303,0.303-0.303h1.395
										c0.166,0,0.301,0.135,0.301,0.303C47.023,62.633,46.889,62.77,46.723,62.77z"/>
								</g>
							</g>
						</g>
					</g>
					<ellipse fill="#73AF09" cx="44.823" cy="55.721" rx="0.485" ry="0.33"/>
				</g>
				<g>
					<g>
						<polygon fill="#845526" points="59.422,61.18 58.439,54.592 57.457,61.18 						"/>
						<polygon fill="#6D4118" points="58.867,61.18 58.439,54.592 57.457,61.18 						"/>
						<g>
							<g>
								<g>
									<g>
										<path fill="#88CE24" d="M58.537,55.436c-0.158-3.803-3.314-3.941-4.064-3.26l3.818,3.816L58.537,55.436z"/>
										<path fill="#88CE24" d="M58.436,55.283c-2.799-2.578-5.127-0.445-5.176,0.568l5.395,0.002L58.436,55.283z"/>
										<path fill="#88CE24" d="M57.84,55.555c-2.668,0.111-2.764,2.324-2.289,2.852l2.678-2.678L57.84,55.555z"/>
									</g>
									<g>
										<path fill="#88CE24" d="M58.422,55.436c0.156-3.803,3.311-3.941,4.059-3.26l-3.811,3.816L58.422,55.436z"/>
										<path fill="#88CE24" d="M58.52,55.283c2.801-2.578,5.129-0.445,5.178,0.568l-5.395,0.002L58.52,55.283z"/>
										<path fill="#88CE24" d="M59.119,55.555c2.666,0.111,2.762,2.324,2.285,2.852l-2.676-2.678L59.119,55.555z"/>
									</g>
								</g>
								<path fill="#88CE24" d="M58.398,55.076c-2.576-2.799-0.445-5.127,0.57-5.178v5.396L58.398,55.076z"/>
								<path fill="#73AF09" d="M58.475,55.297c-1.211-2.814-3.264-3.791-4.002-3.121l2.602,2.6
									c-2.084-0.518-3.773,0.24-3.814,1.076l4.037,0.002c-1.111,0.725-2.154,2.1-1.746,2.553l2.555-2.553h0.045l0.141,0.139
									l0.061-0.139h0.127h0.129l0.062,0.139l0.139-0.139h0.043l2.553,2.553c0.398-0.439-0.312-1.885-1.512-2.553l3.805-0.002
									c-0.039-0.828-1.611-1.74-3.711-1.178l2.494-2.498c-0.639-0.582-2.338-0.135-3.512,2.018v-4.295
									c-1.016,0.051-1.752,2.359-0.57,5.178"/>
							</g>
						</g>
						<g>
							<g>
								<path fill="#D8BE21" d="M60.594,61.711h-4.229c-0.168,0-0.303-0.133-0.303-0.301s0.135-0.303,0.303-0.303h4.229
									c0.166,0,0.303,0.135,0.303,0.303S60.76,61.711,60.594,61.711z"/>
							</g>
							<g>
								<g>
									<path fill="#D8BE21" d="M58.006,62.77h-1.395c-0.166,0-0.301-0.137-0.301-0.303c0-0.168,0.135-0.303,0.301-0.303h1.395
										c0.166,0,0.303,0.135,0.303,0.303C58.309,62.633,58.172,62.77,58.006,62.77z"/>
								</g>
								<g>
									<path fill="#D8BE21" d="M60.348,62.77h-1.395c-0.168,0-0.303-0.137-0.303-0.303c0-0.168,0.135-0.303,0.303-0.303h1.395
										c0.166,0,0.301,0.135,0.301,0.303C60.648,62.633,60.514,62.77,60.348,62.77z"/>
								</g>
							</g>
						</g>
					</g>
					<ellipse fill="#73AF09" cx="58.448" cy="55.721" rx="0.485" ry="0.33"/>
				</g>
			</g>
			<g>
				<g>
					<polygon fill="#845526" points="52.609,45.887 51.627,39.297 50.645,45.887 					"/>
					<polygon fill="#6D4118" points="52.055,45.887 51.627,39.297 50.645,45.887 					"/>
					<g>
						<g>
							<g>
								<g>
									<path fill="#88CE24" d="M51.725,40.143c-0.158-3.803-3.314-3.941-4.064-3.26l3.818,3.816L51.725,40.143z"/>
									<path fill="#88CE24" d="M51.623,39.99c-2.799-2.578-5.127-0.445-5.176,0.568h5.395L51.623,39.99z"/>
									<path fill="#88CE24" d="M51.027,40.262c-2.668,0.111-2.764,2.324-2.289,2.852l2.678-2.678L51.027,40.262z"/>
								</g>
								<g>
									<path fill="#88CE24" d="M51.609,40.143c0.156-3.803,3.311-3.941,4.059-3.26l-3.811,3.816L51.609,40.143z"/>
									<path fill="#88CE24" d="M51.707,39.99c2.801-2.578,5.129-0.445,5.178,0.568H51.49L51.707,39.99z"/>
									<path fill="#88CE24" d="M52.307,40.262c2.666,0.111,2.762,2.324,2.285,2.852l-2.676-2.678L52.307,40.262z"/>
								</g>
							</g>
							<path fill="#88CE24" d="M51.586,39.783c-2.576-2.801-0.445-5.129,0.57-5.18V40L51.586,39.783z"/>
							<path fill="#73AF09" d="M51.662,40.004c-1.211-2.816-3.264-3.791-4.002-3.121l2.602,2.6c-2.084-0.518-3.773,0.24-3.814,1.076
								h4.037c-1.111,0.725-2.154,2.102-1.746,2.555l2.555-2.555h0.045l0.141,0.141l0.061-0.141h0.127h0.129l0.062,0.141
								l0.139-0.141h0.043l2.553,2.555c0.398-0.439-0.312-1.885-1.512-2.555h3.805c-0.039-0.828-1.611-1.74-3.711-1.178l2.494-2.498
								c-0.639-0.582-2.338-0.135-3.512,2.018v-4.297c-1.016,0.051-1.752,2.361-0.57,5.18"/>
						</g>
					</g>
					<g>
						<g>
							<path fill="#D8BE21" d="M53.781,46.418h-4.229c-0.168,0-0.303-0.135-0.303-0.301c0-0.168,0.135-0.303,0.303-0.303h4.229
								c0.166,0,0.303,0.135,0.303,0.303C54.084,46.283,53.947,46.418,53.781,46.418z"/>
						</g>
						<g>
							<g>
								<path fill="#D8BE21" d="M51.193,47.475h-1.395c-0.166,0-0.301-0.135-0.301-0.301c0-0.168,0.135-0.303,0.301-0.303h1.395
									c0.166,0,0.303,0.135,0.303,0.303C51.496,47.34,51.359,47.475,51.193,47.475z"/>
							</g>
							<g>
								<path fill="#D8BE21" d="M53.535,47.475h-1.395c-0.168,0-0.303-0.135-0.303-0.301c0-0.168,0.135-0.303,0.303-0.303h1.395
									c0.166,0,0.301,0.135,0.301,0.303C53.836,47.34,53.701,47.475,53.535,47.475z"/>
							</g>
						</g>
					</g>
				</g>
				<ellipse fill="#73AF09" cx="51.636" cy="40.428" rx="0.485" ry="0.33"/>
			</g>
		</g>
		<g>
			<g>
				<g>
					<g>
						<polygon fill="#845526" points="45.797,13.514 44.814,6.924 43.832,13.514 						"/>
						<polygon fill="#6D4118" points="45.242,13.514 44.814,6.924 43.832,13.514 						"/>
						<g>
							<g>
								<g>
									<g>
										<path fill="#88CE24" d="M44.912,7.77c-0.158-3.803-3.314-3.941-4.064-3.26l3.818,3.816L44.912,7.77z"/>
										<path fill="#88CE24" d="M44.811,7.617c-2.799-2.578-5.127-0.445-5.176,0.568h5.395L44.811,7.617z"/>
										<path fill="#88CE24" d="M44.215,7.889C41.547,8,41.451,10.213,41.926,10.74l2.678-2.678L44.215,7.889z"/>
									</g>
									<g>
										<path fill="#88CE24" d="M44.797,7.77c0.156-3.803,3.311-3.941,4.059-3.26l-3.811,3.816L44.797,7.77z"/>
										<path fill="#88CE24" d="M44.895,7.617c2.801-2.578,5.129-0.445,5.178,0.568h-5.395L44.895,7.617z"/>
										<path fill="#88CE24" d="M45.494,7.889C48.16,8,48.256,10.213,47.779,10.74l-2.676-2.678L45.494,7.889z"/>
									</g>
								</g>
								<path fill="#88CE24" d="M44.773,7.41c-2.576-2.801-0.445-5.129,0.57-5.18v5.396L44.773,7.41z"/>
								<path fill="#73AF09" d="M44.85,7.631c-1.211-2.816-3.264-3.791-4.002-3.121l2.602,2.6c-2.084-0.518-3.773,0.24-3.814,1.076
									h4.037c-1.111,0.725-2.154,2.102-1.746,2.555l2.555-2.555h0.045l0.141,0.141l0.061-0.141h0.127h0.129l0.062,0.141
									l0.139-0.141h0.043l2.553,2.555c0.398-0.439-0.312-1.885-1.512-2.555h3.805c-0.039-0.828-1.611-1.74-3.711-1.178
									l2.494-2.498c-0.639-0.582-2.338-0.135-3.512,2.018V2.23c-1.016,0.051-1.752,2.361-0.57,5.18"/>
							</g>
						</g>
						<g>
							<g>
								<path fill="#D8BE21" d="M46.969,14.045H42.74c-0.168,0-0.303-0.135-0.303-0.301c0-0.168,0.135-0.303,0.303-0.303h4.229
									c0.166,0,0.303,0.135,0.303,0.303C47.271,13.91,47.135,14.045,46.969,14.045z"/>
							</g>
							<g>
								<g>
									<path fill="#D8BE21" d="M44.381,15.102h-1.395c-0.166,0-0.301-0.135-0.301-0.301c0-0.168,0.135-0.303,0.301-0.303h1.395
										c0.166,0,0.303,0.135,0.303,0.303C44.684,14.967,44.547,15.102,44.381,15.102z"/>
								</g>
								<g>
									<path fill="#D8BE21" d="M46.723,15.102h-1.395c-0.168,0-0.303-0.135-0.303-0.301c0-0.168,0.135-0.303,0.303-0.303h1.395
										c0.166,0,0.301,0.135,0.301,0.303C47.023,14.967,46.889,15.102,46.723,15.102z"/>
								</g>
							</g>
						</g>
					</g>
					<ellipse fill="#73AF09" cx="44.823" cy="8.055" rx="0.485" ry="0.33"/>
				</g>
				<g>
					<g>
						<polygon fill="#845526" points="59.422,13.514 58.439,6.924 57.457,13.514 						"/>
						<polygon fill="#6D4118" points="58.867,13.514 58.439,6.924 57.457,13.514 						"/>
						<g>
							<g>
								<g>
									<g>
										<path fill="#88CE24" d="M58.537,7.77c-0.158-3.803-3.314-3.941-4.064-3.26l3.818,3.816L58.537,7.77z"/>
										<path fill="#88CE24" d="M58.436,7.617c-2.799-2.578-5.127-0.445-5.176,0.568h5.395L58.436,7.617z"/>
										<path fill="#88CE24" d="M57.84,7.889C55.172,8,55.076,10.213,55.551,10.74l2.678-2.678L57.84,7.889z"/>
									</g>
									<g>
										<path fill="#88CE24" d="M58.422,7.77c0.156-3.803,3.311-3.941,4.059-3.26L58.67,8.326L58.422,7.77z"/>
										<path fill="#88CE24" d="M58.52,7.617c2.801-2.578,5.129-0.445,5.178,0.568h-5.395L58.52,7.617z"/>
										<path fill="#88CE24" d="M59.119,7.889c2.666,0.111,2.762,2.324,2.285,2.852l-2.676-2.678L59.119,7.889z"/>
									</g>
								</g>
								<path fill="#88CE24" d="M58.398,7.41c-2.576-2.801-0.445-5.129,0.57-5.18v5.396L58.398,7.41z"/>
								<path fill="#73AF09" d="M58.475,7.631c-1.211-2.816-3.264-3.791-4.002-3.121l2.602,2.6c-2.084-0.518-3.773,0.24-3.814,1.076
									h4.037c-1.111,0.725-2.154,2.102-1.746,2.555l2.555-2.555h0.045l0.141,0.141l0.061-0.141h0.127h0.129l0.062,0.141
									l0.139-0.141h0.043l2.553,2.555c0.398-0.439-0.312-1.885-1.512-2.555h3.805c-0.039-0.828-1.611-1.74-3.711-1.178L62.48,4.51
									c-0.639-0.582-2.338-0.135-3.512,2.018V2.23c-1.016,0.051-1.752,2.361-0.57,5.18"/>
							</g>
						</g>
						<g>
							<g>
								<path fill="#D8BE21" d="M60.594,14.045h-4.229c-0.168,0-0.303-0.135-0.303-0.301c0-0.168,0.135-0.303,0.303-0.303h4.229
									c0.166,0,0.303,0.135,0.303,0.303C60.896,13.91,60.76,14.045,60.594,14.045z"/>
							</g>
							<g>
								<g>
									<path fill="#D8BE21" d="M58.006,15.102h-1.395c-0.166,0-0.301-0.135-0.301-0.301c0-0.168,0.135-0.303,0.301-0.303h1.395
										c0.166,0,0.303,0.135,0.303,0.303C58.309,14.967,58.172,15.102,58.006,15.102z"/>
								</g>
								<g>
									<path fill="#D8BE21" d="M60.348,15.102h-1.395c-0.168,0-0.303-0.135-0.303-0.301c0-0.168,0.135-0.303,0.303-0.303h1.395
										c0.166,0,0.301,0.135,0.301,0.303C60.648,14.967,60.514,15.102,60.348,15.102z"/>
								</g>
							</g>
						</g>
					</g>
					<ellipse fill="#73AF09" cx="58.448" cy="8.055" rx="0.485" ry="0.33"/>
				</g>
			</g>
			<g>
				<g>
					<polygon fill="#845526" points="52.609,25.887 51.627,19.297 50.645,25.887 					"/>
					<polygon fill="#6D4118" points="52.055,25.887 51.627,19.297 50.645,25.887 					"/>
					<g>
						<g>
							<g>
								<g>
									<path fill="#88CE24" d="M51.725,20.143c-0.158-3.803-3.314-3.941-4.064-3.26l3.818,3.816L51.725,20.143z"/>
									<path fill="#88CE24" d="M51.623,19.99c-2.799-2.578-5.127-0.445-5.176,0.568h5.395L51.623,19.99z"/>
									<path fill="#88CE24" d="M51.027,20.262c-2.668,0.111-2.764,2.324-2.289,2.852l2.678-2.678L51.027,20.262z"/>
								</g>
								<g>
									<path fill="#88CE24" d="M51.609,20.143c0.156-3.803,3.311-3.941,4.059-3.26l-3.811,3.816L51.609,20.143z"/>
									<path fill="#88CE24" d="M51.707,19.99c2.801-2.578,5.129-0.445,5.178,0.568H51.49L51.707,19.99z"/>
									<path fill="#88CE24" d="M52.307,20.262c2.666,0.111,2.762,2.324,2.285,2.852l-2.676-2.678L52.307,20.262z"/>
								</g>
							</g>
							<path fill="#88CE24" d="M51.586,19.783c-2.576-2.801-0.445-5.129,0.57-5.18V20L51.586,19.783z"/>
							<path fill="#73AF09" d="M51.662,20.004c-1.211-2.816-3.264-3.791-4.002-3.121l2.602,2.6c-2.084-0.518-3.773,0.24-3.814,1.076
								h4.037c-1.111,0.725-2.154,2.102-1.746,2.555l2.555-2.555h0.045l0.141,0.141l0.061-0.141h0.127h0.129l0.062,0.141
								l0.139-0.141h0.043l2.553,2.555c0.398-0.439-0.312-1.885-1.512-2.555h3.805c-0.039-0.828-1.611-1.74-3.711-1.178l2.494-2.498
								c-0.639-0.582-2.338-0.135-3.512,2.018v-4.297c-1.016,0.051-1.752,2.361-0.57,5.18"/>
						</g>
					</g>
					<g>
						<g>
							<path fill="#D8BE21" d="M53.781,26.418h-4.229c-0.168,0-0.303-0.135-0.303-0.301c0-0.168,0.135-0.303,0.303-0.303h4.229
								c0.166,0,0.303,0.135,0.303,0.303C54.084,26.283,53.947,26.418,53.781,26.418z"/>
						</g>
						<g>
							<g>
								<path fill="#D8BE21" d="M51.193,27.475h-1.395c-0.166,0-0.301-0.135-0.301-0.301c0-0.168,0.135-0.303,0.301-0.303h1.395
									c0.166,0,0.303,0.135,0.303,0.303C51.496,27.34,51.359,27.475,51.193,27.475z"/>
							</g>
							<g>
								<path fill="#D8BE21" d="M53.535,27.475h-1.395c-0.168,0-0.303-0.135-0.303-0.301c0-0.168,0.135-0.303,0.303-0.303h1.395
									c0.166,0,0.301,0.135,0.301,0.303C53.836,27.34,53.701,27.475,53.535,27.475z"/>
							</g>
						</g>
					</g>
				</g>
				<ellipse fill="#73AF09" cx="51.636" cy="20.428" rx="0.485" ry="0.33"/>
			</g>
		</g>
	</g>
</g>
<g id="nyt_x5F_exporter_x5F_info" display="none">
</g>
</svg>
