<?xml version="1.0" encoding="utf-8"?>
<!-- Generator: Adobe Illustrator 16.0.0, SVG Export Plug-In . SVG Version: 6.00 Build 0)  -->
<!DOCTYPE svg PUBLIC "-//W3C//DTD SVG 1.1//EN" "http://www.w3.org/Graphics/SVG/1.1/DTD/svg11.dtd">
<svg version="1.1" xmlns="http://www.w3.org/2000/svg" xmlns:xlink="http://www.w3.org/1999/xlink" x="0px" y="0px" width="65px"
	 height="65px" viewBox="0 0 65 65" enable-background="new 0 0 65 65" xml:space="preserve">
<g id="Layer_1">
	<g>
		<path fill="#7C6540" d="M35.917,62.457c0,1.742-1.412,1.543-3.154,1.543h-0.526c-1.741,0-3.154,0.199-3.154-1.543l1-15.388
			c0-1.742,0.413-3.069,2.154-3.069h0.526c1.742,0,2.154,1.327,2.154,3.069L35.917,62.457z"/>
		<path fill="#5E4525" d="M30,51.784c1,2.104,1.62,3.314,2.62,3.316c0.998,0,1.874-1.213,2.678-3.316c0,0-0.029,0-0.028,0.002
			l-0.338-4.814c0-1.742-0.427-2.972-2.169-2.972h-0.526c-1.741,0-2.034,1.229-2.034,2.972L30,51.786C30,51.784,30,51.784,30,51.784
			z"/>
		<g>
			<g>
				<path fill="#65930C" d="M37.732,26.877c-3.449,12.871-8.586,22.676-11.477,21.9c-2.889-0.773-2.434-11.832,1.016-24.703
					c3.447-12.871,8.582-22.676,11.471-21.902C41.635,2.948,41.182,14.008,37.732,26.877z"/>
				<path fill="#65930C" d="M35.209,30.165c-11.541,6.664-22.105,9.963-23.602,7.377c-1.496-2.594,6.645-10.092,18.184-16.756
					c11.541-6.66,22.105-9.961,23.604-7.371C54.887,16.004,46.75,23.504,35.209,30.165z"/>
				
					<ellipse transform="matrix(-0.2588 0.9659 -0.9659 -0.2588 65.5148 0.6733)" fill="#65930C" cx="32.499" cy="25.474" rx="5.416" ry="24.123"/>
				<path fill="#65930C" d="M27.811,28.184c-6.664-11.541-9.965-22.105-7.373-23.602c2.588-1.496,10.09,6.646,16.752,18.184
					c6.662,11.541,9.963,22.109,7.373,23.604C41.971,47.862,34.473,39.723,27.811,28.184z"/>
			</g>
			<g>
				<path fill="#65930C" d="M37.732,24.075c3.449,12.871,3.904,23.93,1.012,24.703c-2.891,0.777-8.025-9.029-11.473-21.9
					C23.822,14.006,23.367,2.95,26.256,2.172C29.145,1.399,34.283,11.204,37.732,24.075z"/>
				<path fill="#65930C" d="M37.189,28.182c-6.66,11.543-14.16,19.68-16.752,18.189c-2.588-1.496,0.711-12.062,7.371-23.604
					C34.473,11.229,41.973,3.09,44.564,4.584C47.152,6.079,43.854,16.643,37.189,28.182z"/>
				<path fill="#65930C" d="M33.902,30.706c-12.873,3.451-23.93,3.904-24.707,1.016c-0.77-2.887,9.033-8.027,21.902-11.477
					c12.873-3.447,23.932-3.898,24.705-1.01S46.773,27.258,33.902,30.706z"/>
				<path fill="#65930C" d="M29.795,30.167c-11.543-6.662-19.684-14.162-18.188-16.754c1.494-2.588,12.061,0.715,23.6,7.371
					c11.539,6.664,19.68,14.166,18.186,16.756C51.893,40.129,41.332,36.827,29.795,30.167z"/>
			</g>
			<g>
				
					<ellipse transform="matrix(0.7071 0.7071 -0.7071 0.7071 27.5326 -15.5195)" fill="#74AA17" cx="32.5" cy="25.475" rx="5.417" ry="24.124"/>
				<path fill="#74AA17" d="M32.502,30.891c-13.326,0.002-24.127-2.424-24.127-5.416c0-2.99,10.801-5.414,24.123-5.414
					c13.324,0,24.127,2.424,24.127,5.414C56.623,28.467,45.824,30.891,32.502,30.891z"/>
				
					<ellipse transform="matrix(-0.707 0.7072 -0.7072 -0.707 73.4923 20.5032)" fill="#74AA17" cx="32.499" cy="25.475" rx="5.416" ry="24.124"/>
				<path fill="#74AA17" d="M27.084,25.475C27.082,12.149,29.506,1.35,32.5,1.352c2.99-0.002,5.416,10.801,5.416,24.123
					C37.914,38.799,35.488,49.6,32.5,49.6C29.508,49.598,27.084,38.799,27.084,25.475z"/>
			</g>
		</g>
		<path fill="#8EC426" d="M22.917,22.184c0-1.15,0.933-2.084,2.083-2.084s2.082,0.934,2.082,2.084"/>
		<path fill="#8EC426" d="M21.25,35.518c0-1.15,0.933-2.084,2.083-2.084s2.083,0.934,2.083,2.084"/>
		<path fill="#8EC426" d="M35.25,18.684c0-1.15,0.933-2.084,2.083-2.084s2.083,0.934,2.083,2.084"/>
		<path fill="#8EC426" d="M31.334,12.309c0-1.15,0.933-2.082,2.083-2.082s2.083,0.932,2.083,2.082"/>
		<path fill="#8EC426" d="M24,17.141c0-1.15,0.932-2.082,2.082-2.082c1.151,0,2.084,0.932,2.084,2.082"/>
		<path fill="#8EC426" d="M27.25,28.684c0-1.15,0.934-2.084,2.084-2.084s2.083,0.934,2.083,2.084"/>
		<path fill="#8EC426" d="M17.5,26.309c0-1.15,0.932-2.082,2.082-2.082c1.151,0,2.084,0.932,2.084,2.082"/>
		<path fill="#8EC426" d="M30.166,34.975c0-1.15,0.934-2.082,2.084-2.082s2.083,0.932,2.083,2.082"/>
		<path fill="#8EC426" d="M42.5,37.684c0-1.15,0.932-2.084,2.082-2.084c1.151,0,2.084,0.934,2.084,2.084"/>
		<path fill="#8EC426" d="M34.833,25.643c0-1.15,0.933-2.084,2.083-2.084s2.082,0.934,2.082,2.084"/>
		<path fill="#8EC426" d="M38.334,29.143c0-1.15,0.933-2.084,2.083-2.084s2.083,0.934,2.083,2.084"/>
		<path fill="#8EC426" d="M18.834,14.143c0-1.15,0.933-2.084,2.083-2.084S23,12.993,23,14.143"/>
		<path fill="#8EC426" d="M42.5,15.184c0-1.15,0.932-2.084,2.082-2.084c1.151,0,2.084,0.934,2.084,2.084"/>
		<path fill="#8EC426" d="M45.5,25.809c0-1.15,0.932-2.082,2.082-2.082c1.151,0,2.084,0.932,2.084,2.082"/>
		<g>
			<polygon fill="#65930C" points="7.672,64 4.086,60.414 0.5,64 			"/>
			<polygon fill="#65930C" points="12.043,64 8.457,60.414 4.871,64 			"/>
			<polygon fill="#65930C" points="16.414,64 12.828,60.414 9.242,64 			"/>
			<polygon fill="#65930C" points="20.785,64 17.201,60.414 13.615,64 			"/>
			<polygon fill="#65930C" points="25.156,64 21.572,60.414 17.986,64 			"/>
			<polygon fill="#65930C" points="29.527,64 25.943,60.414 22.357,64 			"/>
			<polygon fill="#65930C" points="33.9,64 30.314,60.414 26.729,64 			"/>
			<polygon fill="#65930C" points="38.271,64 34.686,60.414 31.1,64 			"/>
			<polygon fill="#65930C" points="42.643,64 39.059,60.414 35.473,64 			"/>
			<polygon fill="#65930C" points="47.014,64 43.43,60.414 39.844,64 			"/>
			<polygon fill="#65930C" points="51.385,64 47.801,60.414 44.215,64 			"/>
			<polygon fill="#65930C" points="55.758,64 52.172,60.414 48.586,64 			"/>
			<polygon fill="#65930C" points="60.129,64 56.543,60.414 52.957,64 			"/>
			<polygon fill="#65930C" points="64.5,64 60.914,60.414 57.328,64 			"/>
		</g>
	</g>
</g>
<g id="nyt_x5F_exporter_x5F_info" display="none">
	<text display="inline"><tspan x="0" y="0" font-family="'MyriadPro-Regular'" font-size="12">&lt;nyt_prefs&gt;</tspan><tspan x="0" y="14.4" font-family="'MyriadPro-Regular'" font-size="12">  &lt;nyt_prefix/&gt;</tspan><tspan x="0" y="28.8" font-family="'MyriadPro-Regular'" font-size="12">  &lt;nyt_suffix/&gt;</tspan><tspan x="0" y="43.2" font-family="'MyriadPro-Regular'" font-size="12">  &lt;nyt_base_path&gt;~/Desktop&lt;/nyt_base_path&gt;</tspan><tspan x="0" y="57.6" font-family="'MyriadPro-Regular'" font-size="12">  &lt;nyt_scaling&gt;100%&lt;/nyt_scaling&gt;</tspan><tspan x="0" y="72" font-family="'MyriadPro-Regular'" font-size="12">  &lt;nyt_transparency&gt;true&lt;/nyt_transparency&gt;</tspan><tspan x="0" y="86.4" font-family="'MyriadPro-Regular'" font-size="12">  &lt;nyt_format&gt;PNG 24&lt;/nyt_format&gt;</tspan><tspan x="0" y="100.8" font-family="'MyriadPro-Regular'" font-size="12">  &lt;nyt_export_code&gt;artboards&lt;/nyt_export_code&gt;</tspan><tspan x="0" y="115.2" font-family="'MyriadPro-Regular'" font-size="12">&lt;/nyt_prefs&gt;</tspan></text>
</g>
</svg>
