<?xml version="1.0" encoding="utf-8"?>
<!-- Generator: Adobe Illustrator 16.0.0, SVG Export Plug-In . SVG Version: 6.00 Build 0)  -->
<!DOCTYPE svg PUBLIC "-//W3C//DTD SVG 1.1//EN" "http://www.w3.org/Graphics/SVG/1.1/DTD/svg11.dtd">
<svg version="1.1" xmlns="http://www.w3.org/2000/svg" xmlns:xlink="http://www.w3.org/1999/xlink" x="0px" y="0px" width="65px"
	 height="65px" viewBox="0 0 65 65" enable-background="new 0 0 65 65" xml:space="preserve">
<g id="Layer_1">
	<g>
		<g>
			<path fill="#54367F" d="M64.5,61.354V33.932c0-2.445-1.303-4.697-3.418-5.922L35.915,13.477c-2.114-1.217-4.721-1.217-6.834,0
				L3.918,28.01C1.803,29.234,0.5,31.486,0.5,33.932v27.422H64.5z"/>
			<path fill="#654596" d="M29.081,13.477L3.918,28.01C1.803,29.234,0.5,31.486,0.5,33.932v27.422"/>
			<g>
				<g>
					<path fill="#A8C1BF" d="M29.917,13.283l-4.901-8.484c-0.412-0.713-1.171-1.152-1.996-1.152h-9.796
						c-0.823,0-1.584,0.439-1.995,1.152l-4.9,8.484c-0.411,0.713-0.411,1.592,0,2.305l4.9,8.484
						c0.411,0.713,1.172,1.152,1.995,1.152h9.796c0.825,0,1.584-0.439,1.996-1.152l4.901-8.484
						C30.327,14.875,30.327,13.996,29.917,13.283z"/>
					<path fill="#C1DBD8" d="M21.887,3.646h-8.663c-0.823,0-1.584,0.439-1.995,1.152l-4.9,8.484c-0.411,0.713-0.411,1.592,0,2.305
						l2.197,3.805h8.662c0.824,0,1.584-0.439,1.996-1.152l4.9-8.486c0.41-0.713,0.41-1.592,0-2.305L21.887,3.646z"/>
				</g>
			</g>
			<path fill="#967DC6" d="M16.537,34.967l-0.977-1.693c-0.082-0.143-0.233-0.23-0.398-0.23h-1.088L13.05,31.27
				c-0.123-0.213-0.349-0.344-0.595-0.344H9.539c-0.245,0-0.471,0.131-0.594,0.344l-0.682,1.18H7.072
				c-0.135,0-0.26,0.07-0.326,0.188l-0.801,1.387c-0.066,0.117-0.066,0.26,0,0.377l0.801,1.387c0.066,0.115,0.191,0.188,0.326,0.188
				H8.35l0.596,1.033c0.123,0.211,0.349,0.342,0.594,0.342h2.916c0.159,0,0.298-0.07,0.418-0.166
				c0.086,0.098,0.201,0.166,0.334,0.166h1.955c0.165,0,0.316-0.088,0.398-0.229l0.977-1.693
				C16.621,35.285,16.621,35.109,16.537,34.967z"/>
			<path fill="#967DC6" d="M12.512,42.984l0.498-0.861c0.041-0.072,0.119-0.117,0.203-0.117h0.555l0.521-0.904
				c0.062-0.109,0.178-0.176,0.303-0.176h1.486c0.125,0,0.24,0.066,0.303,0.176l0.347,0.6h0.606c0.068,0,0.133,0.037,0.167,0.098
				l0.408,0.705c0.034,0.061,0.034,0.133,0,0.193l-0.408,0.707c-0.034,0.059-0.099,0.094-0.167,0.094h-0.65l-0.303,0.527
				c-0.062,0.107-0.178,0.174-0.303,0.174h-1.486c-0.081,0-0.151-0.035-0.213-0.084c-0.043,0.049-0.102,0.084-0.17,0.084h-0.996
				c-0.084,0-0.162-0.045-0.203-0.117l-0.498-0.863C12.469,43.146,12.469,43.059,12.512,42.984z"/>
		</g>
		<path fill="#661857" d="M64.5,61.354c-0.648-16.219-10.494-49.332-22.547-49.332S20.055,45.135,19.405,61.354H64.5z"/>
		<path fill="#42306D" d="M22.057,61.354c-0.146-3.672-2.376-11.168-5.104-11.168s-4.957,7.496-5.104,11.168H22.057z"/>
		<path fill="#3A235E" d="M14.019,61.354c-0.185-4.602-2.979-14-6.399-14c-3.42,0-6.215,9.398-6.398,14H14.019z"/>
		<path fill="#8E1471" d="M41.953,12.021c-12.053,0-21.898,33.113-22.548,49.332h27.829"/>
		<path fill="#C1236B" d="M33.703,23.973c0.84,1.166,1.77,1.904,2.75,1.904c0.979,0,1.91-0.738,2.75-1.904
			c0.84,1.166,1.77,1.904,2.75,1.904c0.979,0,1.91-0.738,2.75-1.904c0.84,1.166,1.77,1.904,2.75,1.904
			c0.979,0,1.91-0.738,2.75-1.904c0.84,1.166,1.77,1.904,2.75,1.904c0.703,0,1.381-0.383,2.018-1.029
			c-3.679-7.463-8.168-12.826-13.018-12.826s-9.34,5.365-13.019,12.828c0.638,0.645,1.315,1.027,2.019,1.027
			C31.932,25.877,32.863,25.139,33.703,23.973z"/>
		<path fill="#E80F7C" d="M40.6,12.176c-0.235,0.047-0.471,0.105-0.703,0.178c-0.121,0.037-0.242,0.078-0.363,0.123
			c-0.227,0.082-0.453,0.178-0.678,0.281c-0.111,0.053-0.225,0.102-0.336,0.158c-0.281,0.145-0.562,0.309-0.84,0.484
			c-0.049,0.033-0.099,0.057-0.148,0.09c-0.318,0.211-0.634,0.447-0.947,0.699c-0.117,0.092-0.232,0.195-0.348,0.295
			c-0.203,0.172-0.404,0.35-0.604,0.539c-0.132,0.125-0.264,0.252-0.393,0.383c-0.185,0.186-0.368,0.379-0.551,0.578
			c-0.131,0.141-0.262,0.281-0.391,0.43c-0.193,0.221-0.385,0.455-0.576,0.691c-0.146,0.182-0.295,0.363-0.44,0.553
			c-0.241,0.312-0.479,0.635-0.716,0.969c-0.145,0.205-0.287,0.42-0.43,0.631s-0.285,0.422-0.425,0.641
			c-0.152,0.236-0.304,0.477-0.454,0.723c-0.125,0.203-0.25,0.412-0.375,0.623c-0.154,0.262-0.311,0.523-0.463,0.793
			c-0.107,0.191-0.214,0.387-0.32,0.582c-0.396,0.721-0.786,1.461-1.165,2.23c0.638,0.645,1.315,1.027,2.019,1.027
			c0.979,0,1.91-0.738,2.75-1.904c0.84,1.166,1.77,1.904,2.75,1.904c0.979,0,1.91-0.738,2.75-1.904
			c0.84,1.166,1.77,1.904,2.75,1.904c0.49,0,0.967-0.186,1.428-0.516l-1.428-13.34c-0.346,0-0.688,0.035-1.029,0.088
			C40.815,12.127,40.707,12.154,40.6,12.176z"/>
		<g>
			<polygon fill="#C1236B" points="7.672,61.354 4.086,57.768 0.5,61.354 			"/>
			<polygon fill="#C1236B" points="12.043,61.354 8.457,57.768 4.871,61.354 			"/>
			<polygon fill="#C1236B" points="16.414,61.354 12.828,57.768 9.242,61.354 			"/>
			<polygon fill="#C1236B" points="20.785,61.354 17.201,57.768 13.615,61.354 			"/>
			<polygon fill="#C1236B" points="25.156,61.354 21.572,57.768 17.986,61.354 			"/>
			<polygon fill="#C1236B" points="29.527,61.354 25.943,57.768 22.357,61.354 			"/>
			<polygon fill="#C1236B" points="33.9,61.354 30.314,57.768 26.729,61.354 			"/>
			<polygon fill="#C1236B" points="38.271,61.354 34.686,57.768 31.1,61.354 			"/>
			<polygon fill="#C1236B" points="42.643,61.354 39.059,57.768 35.473,61.354 			"/>
			<polygon fill="#C1236B" points="47.014,61.354 43.43,57.768 39.844,61.354 			"/>
			<polygon fill="#C1236B" points="51.385,61.354 47.801,57.768 44.215,61.354 			"/>
			<polygon fill="#C1236B" points="55.758,61.354 52.172,57.768 48.586,61.354 			"/>
			<polygon fill="#C1236B" points="60.129,61.354 56.543,57.768 52.957,61.354 			"/>
			<polygon fill="#C1236B" points="64.5,61.354 60.914,57.768 57.328,61.354 			"/>
		</g>
		<g>
			<path fill="#3A235E" d="M37.484,61.354V54.77c0-0.689-0.56-1.25-1.25-1.25s-1.25,0.561-1.25,1.25v6.584H37.484z"/>
			<circle fill="#E80F7C" cx="36.234" cy="43.436" r="11.5"/>
			<path fill="#C1236B" d="M28.103,35.305c4.491-4.492,11.772-4.492,16.263,0c4.492,4.49,4.492,11.771,0,16.264"/>
			<path fill="#F94389" d="M30.109,45.623c0-0.896,0.727-1.625,1.625-1.625c0.897,0,1.625,0.729,1.625,1.625"/>
			<path fill="#F94389" d="M35.109,37.748c0-0.896,0.727-1.625,1.625-1.625c0.897,0,1.625,0.729,1.625,1.625"/>
			<path fill="#F94389" d="M40.234,43.373c0-0.896,0.728-1.625,1.625-1.625s1.625,0.729,1.625,1.625"/>
			<path fill="#F94389" d="M35.984,50.248c0-0.896,0.728-1.625,1.625-1.625s1.625,0.729,1.625,1.625"/>
		</g>
		<g>
			<g>
				<path fill="#3A235E" d="M48.348,61.354v-2.668c0-0.279-0.229-0.506-0.507-0.506c-0.279,0-0.507,0.227-0.507,0.506v2.668H48.348z
					"/>
				<circle fill="#E80F7C" cx="47.84" cy="54.096" r="4.66"/>
				<path fill="#C1236B" d="M44.546,50.799c1.819-1.818,4.77-1.818,6.589,0c1.818,1.82,1.818,4.77,0,6.59"/>
				<path fill="#F94389" d="M45.359,54.98c0-0.363,0.293-0.658,0.659-0.658c0.363,0,0.657,0.295,0.657,0.658"/>
				<path fill="#F94389" d="M47.386,51.791c0-0.363,0.295-0.658,0.658-0.658s0.657,0.295,0.657,0.658"/>
				<path fill="#F94389" d="M49.462,54.068c0-0.363,0.295-0.658,0.657-0.658c0.365,0,0.659,0.295,0.659,0.658"/>
				<path fill="#F94389" d="M47.739,56.854c0-0.363,0.294-0.658,0.658-0.658c0.363,0,0.658,0.295,0.658,0.658"/>
			</g>
			<g>
				<path fill="#3A235E" d="M54.348,61.354v-2.668c0-0.279-0.229-0.506-0.507-0.506c-0.279,0-0.507,0.227-0.507,0.506v2.668H54.348z
					"/>
				<circle fill="#E80F7C" cx="53.84" cy="54.096" r="4.66"/>
				<path fill="#C1236B" d="M50.546,50.799c1.819-1.818,4.77-1.818,6.589,0c1.818,1.82,1.818,4.77,0,6.59"/>
				<path fill="#F94389" d="M51.359,54.98c0-0.363,0.293-0.658,0.659-0.658c0.363,0,0.657,0.295,0.657,0.658"/>
				<path fill="#F94389" d="M53.386,51.791c0-0.363,0.295-0.658,0.658-0.658s0.657,0.295,0.657,0.658"/>
				<path fill="#F94389" d="M55.462,54.068c0-0.363,0.295-0.658,0.657-0.658c0.365,0,0.659,0.295,0.659,0.658"/>
				<path fill="#F94389" d="M53.739,56.854c0-0.363,0.294-0.658,0.658-0.658c0.363,0,0.658,0.295,0.658,0.658"/>
			</g>
			<g>
				<path fill="#3A235E" d="M60.348,61.354v-2.668c0-0.279-0.229-0.506-0.507-0.506c-0.279,0-0.507,0.227-0.507,0.506v2.668H60.348z
					"/>
				<circle fill="#E80F7C" cx="59.84" cy="54.096" r="4.66"/>
				<path fill="#C1236B" d="M56.546,50.799c1.819-1.818,4.77-1.818,6.589,0c1.818,1.82,1.818,4.77,0,6.59"/>
				<path fill="#F94389" d="M57.359,54.98c0-0.363,0.293-0.658,0.659-0.658c0.363,0,0.657,0.295,0.657,0.658"/>
				<path fill="#F94389" d="M59.386,51.791c0-0.363,0.295-0.658,0.658-0.658s0.657,0.295,0.657,0.658"/>
				<path fill="#F94389" d="M61.462,54.068c0-0.363,0.295-0.658,0.657-0.658c0.365,0,0.659,0.295,0.659,0.658"/>
				<path fill="#F94389" d="M59.739,56.854c0-0.363,0.294-0.658,0.658-0.658c0.363,0,0.658,0.295,0.658,0.658"/>
			</g>
		</g>
	</g>
</g>
<g id="nyt_x5F_exporter_x5F_info" display="none">
</g>
</svg>
