<?xml version="1.0" encoding="utf-8"?>
<!-- Generator: Adobe Illustrator 16.0.0, SVG Export Plug-In . SVG Version: 6.00 Build 0)  -->
<!DOCTYPE svg PUBLIC "-//W3C//DTD SVG 1.1//EN" "http://www.w3.org/Graphics/SVG/1.1/DTD/svg11.dtd">
<svg version="1.1" id="Layer_1" xmlns="http://www.w3.org/2000/svg" xmlns:xlink="http://www.w3.org/1999/xlink" x="0px" y="0px"
	 width="65px" height="65px" viewBox="0 0 65 65" enable-background="new 0 0 65 65" xml:space="preserve">
<g>
	<g>
		<path fill="#0793D1" d="M7.715,24.771c-0.088-0.211-0.293-0.349-0.521-0.349c-0.23,0-0.438,0.138-0.525,0.349L0.543,39.524
			C0.471,39.699,0.49,39.9,0.596,40.058c0.105,0.158,0.281,0.252,0.471,0.252h2.234c0.23,0,0.438-0.14,0.525-0.351l1.346-3.271
			h4.041l1.344,3.271c0.09,0.211,0.295,0.351,0.525,0.351h2.234c0.006,0.001,0.01,0.001,0.01,0.001
			c0.316-0.001,0.568-0.255,0.568-0.568c0-0.115-0.035-0.224-0.094-0.314L7.715,24.771z M6.326,33.691l0.867-2.205l0.863,2.205"/>
		<path fill="#0793D1" d="M27.35,37.107h-5.352v-11.85c0-0.314-0.254-0.568-0.566-0.568H19.32c-0.312,0-0.566,0.254-0.566,0.568
			v14.484c0,0.313,0.254,0.567,0.566,0.567h8.029c0.312,0,0.566-0.254,0.566-0.567v-2.068C27.916,37.361,27.662,37.107,27.35,37.107
			z"/>
		<path fill="#11D168" d="M37.809,34.83c0-1.379-1.199-2.502-2.67-2.502c-1.473,0-2.67,1.123-2.67,2.502
			c0,1.191,0.898,2.197,2.092,2.443l-2.086,2.701c-0.066,0.087-0.078,0.205-0.029,0.305c0.049,0.099,0.148,0.161,0.26,0.161h4.76
			c0.16,0,0.291-0.13,0.291-0.29v-0.909c0-0.159-0.131-0.29-0.291-0.29h-2.217l1.906-2.43C37.568,35.992,37.809,35.545,37.809,34.83
			z M35.117,35.83c-0.553,0-1.002-0.449-1.002-1c0-0.553,0.449-1.001,1.002-1.001c0.547,0,1.01,0.458,1.01,1.001
			C36.127,35.372,35.664,35.83,35.117,35.83z"/>
		<path fill="#0793D1" d="M48.795,24.441c-4.408,0-7.996,3.625-7.996,8.079c0,4.443,3.588,8.058,7.996,8.058
			s7.996-3.614,7.996-8.058C56.791,28.066,53.203,24.441,48.795,24.441z M48.795,37.375c-2.529,0-4.586-2.178-4.586-4.854
			c0-2.687,2.057-4.876,4.586-4.876s4.586,2.189,4.586,4.876C53.381,35.197,51.324,37.375,48.795,37.375z"/>
		<path fill="#11D168" d="M62.752,35.675l1.562-2.788c0.051-0.09,0.051-0.199-0.004-0.288c-0.051-0.089-0.145-0.143-0.248-0.143
			h-4.189c-0.16,0-0.291,0.129-0.291,0.29v0.908c0,0.162,0.131,0.292,0.291,0.292h2.01l-1.479,2.602c-0.053,0.091-0.053,0.2,0,0.289
			s0.148,0.145,0.25,0.145h0.879c0.805,0,1.287,0.397,1.287,1.063c0,0.641-0.414,1.022-1.107,1.022
			c-0.561,0-0.916-0.333-0.949-0.891c-0.008-0.153-0.135-0.272-0.289-0.272h-1.078c-0.16,0-0.291,0.129-0.291,0.29
			c0,1.403,1.072,2.384,2.607,2.384c1.668,0,2.787-1.068,2.787-2.66C64.5,36.877,63.771,35.974,62.752,35.675z"/>
	</g>
	<path fill="#00BDFF" d="M21.998,37.107v-11.85c0-0.314-0.254-0.568-0.566-0.568H19.32c-0.312,0-0.566,0.254-0.566,0.568v14.484
		c0,0.197,0.107,0.363,0.26,0.465l3.1-3.1H21.998z"/>
	<path fill="#00BDFF" d="M48.795,24.441c-4.408,0-7.996,3.625-7.996,8.079c0,2.187,0.871,4.17,2.279,5.623l2.352-2.351
		c-0.751-0.865-1.221-2.008-1.221-3.272c0-2.687,2.057-4.876,4.586-4.876c1.291,0,2.455,0.576,3.29,1.492l2.343-2.342
		C52.981,25.342,50.99,24.441,48.795,24.441z"/>
	<path fill="#00BDFF" d="M7.715,24.771c-0.088-0.211-0.293-0.349-0.521-0.349c-0.23,0-0.438,0.138-0.525,0.349L0.611,39.361
		l5.744-5.745l0.838-2.13l0.363,0.93l2.355-2.355L7.715,24.771z"/>
</g>
</svg>
