<?xml version="1.0" encoding="utf-8"?>
<!-- Generator: Adobe Illustrator 16.0.0, SVG Export Plug-In . SVG Version: 6.00 Build 0)  -->
<!DOCTYPE svg PUBLIC "-//W3C//DTD SVG 1.1//EN" "http://www.w3.org/Graphics/SVG/1.1/DTD/svg11.dtd">
<svg version="1.1" id="Layer_1" xmlns="http://www.w3.org/2000/svg" xmlns:xlink="http://www.w3.org/1999/xlink" x="0px" y="0px"
	 width="65px" height="65px" viewBox="0 0 65 65" enable-background="new 0 0 65 65" xml:space="preserve">
<g>
	<circle fill="#47C9C9" cx="32.5" cy="32.5" r="32"/>
	<path fill="#60E2DE" d="M0.5,32.5c0-17.673,14.327-32,32-32"/>
	<path fill="#39ACB2" d="M32.5,0.5c17.673,0,32,14.327,32,32s-14.327,32-32,32"/>
	<path fill="#47C9C9" d="M64.5,32.5c0,17.673-14.327,32-32,32"/>
	<circle fill="#27909B" cx="16.985" cy="22.332" r="3.167"/>
	<circle fill="#27909B" cx="21.985" cy="16.498" r="0.833"/>
	<circle fill="#27909B" cx="26.068" cy="11.416" r="0.584"/>
	<circle fill="#27909B" cx="26.568" cy="26.082" r="1.916"/>
	<circle fill="#27909B" cx="39.985" cy="38.166" r="0.667"/>
	<circle fill="#27909B" cx="46.402" cy="34.082" r="1.25"/>
	<circle fill="#27909B" cx="40.318" cy="44.665" r="1"/>
	<circle fill="#27909B" cx="48.985" cy="41.665" r="1.333"/>
	<circle fill="#27909B" cx="54.902" cy="28.415" r="1.25"/>
	<circle fill="#27909B" cx="45.152" cy="18.332" r="2.5"/>
	<circle fill="#27909B" cx="39.485" cy="28.832" r="1.167"/>
	<circle fill="#27909B" cx="36.985" cy="15.332" r="0.833"/>
	<circle fill="#27909B" cx="30.735" cy="18.082" r="0.583"/>
	<circle fill="#27909B" cx="32.651" cy="6.998" r="1.833"/>
	<circle fill="#27909B" cx="48.985" cy="10.832" r="0.667"/>
	<circle fill="#27909B" cx="18.818" cy="52.498" r="2.166"/>
	<circle fill="#FFB000" cx="14.485" cy="36.832" r="2.667"/>
	<circle fill="#FFB000" cx="21.735" cy="31.25" r="0.583"/>
	<circle fill="#FFB000" cx="26.318" cy="20" r="0.5"/>
	<circle fill="#FFB000" cx="29.318" cy="13.5" r="1"/>
	<circle fill="#FFB000" cx="42.985" cy="24.666" r="0.667"/>
	<circle fill="#FFB000" cx="53.235" cy="34.75" r="0.917"/>
	<circle fill="#FFB000" cx="47.902" cy="26.916" r="0.75"/>
	<circle fill="#FFB000" cx="23.568" cy="39.75" r="1.916"/>
	<circle fill="#FFB000" cx="39.318" cy="35.334" r="0.5"/>
	<circle fill="#FFB000" cx="26.651" cy="34.666" r="0.833"/>
	<circle fill="#FFB000" cx="7.069" cy="28.416" r="0.417"/>
	<circle fill="#FFB000" cx="37.818" cy="51.5" r="1"/>
	<circle fill="#FFB000" cx="27.819" cy="45.666" r="0.167"/>
	<circle fill="#FFB000" cx="32.735" cy="36.916" r="0.583"/>
	<circle fill="#FFB000" cx="33.902" cy="28.25" r="1.75"/>
	<circle fill="#FFB000" cx="55.569" cy="22.416" r="2.083"/>
	<circle fill="#FFB000" cx="37.902" cy="20.416" r="1.25"/>
	<circle fill="#FFB000" cx="14.235" cy="47.082" r="0.917"/>
	<circle fill="#FFB000" cx="21.319" cy="46.5" r="0.833"/>
	<circle fill="#FFB000" cx="7.319" cy="34.5" r="0.667"/>
	<circle fill="#FFB000" cx="15.402" cy="28.082" r="0.916"/>
	<circle fill="#FFB000" cx="32.569" cy="46.582" r="1.083"/>
	<circle fill="#FFB000" cx="44.818" cy="40.5" r="0.5"/>
	<circle fill="#FFB000" cx="25.485" cy="51.332" r="1.333"/>
	<circle fill="#FFB000" cx="38.486" cy="10.166" r="1.5"/>
	<circle fill="#FFB000" cx="44.735" cy="8.916" r="1.417"/>
</g>
</svg>
