<?xml version="1.0" encoding="utf-8"?>
<!-- Generator: Adobe Illustrator 16.0.0, SVG Export Plug-In . SVG Version: 6.00 Build 0)  -->
<!DOCTYPE svg PUBLIC "-//W3C//DTD SVG 1.1//EN" "http://www.w3.org/Graphics/SVG/1.1/DTD/svg11.dtd">
<svg version="1.1" id="Layer_1" xmlns="http://www.w3.org/2000/svg" xmlns:xlink="http://www.w3.org/1999/xlink" x="0px" y="0px"
	 width="65px" height="65px" viewBox="0 0 65 65" enable-background="new 0 0 65 65" xml:space="preserve">
<g>
	<g>
		<g>
			<g>
				<path fill="#097ACE" d="M46.614,19.787l3.133-3.134c3.56,3.56,7.847,4.233,9.468,2.612s0.946-5.907-2.613-9.467l3.135-3.133
					c5.143,5.143,6.291,12.055,2.612,15.733C58.669,26.078,51.759,24.93,46.614,19.787z"/>
			</g>
			<g>
				<path fill="#CE1111" d="M45.214,18.385C40.07,13.241,38.922,6.33,42.6,2.651c3.68-3.679,10.59-2.53,15.734,2.612L55.2,8.397
					c-3.56-3.56-7.847-4.234-9.466-2.612c-1.622,1.62-0.947,5.907,2.612,9.467L45.214,18.385z"/>
			</g>
		</g>
		<g>
			<g>
				
					<ellipse transform="matrix(0.7071 0.7071 -0.7071 0.7071 23.726 -34.6429)" fill="#FFB000" cx="53.681" cy="11.318" rx="7.708" ry="0.322"/>
				
					<ellipse transform="matrix(0.7071 0.7071 -0.7071 0.7071 24.7261 -32.2283)" fill="#FFB000" cx="51.266" cy="13.733" rx="7.708" ry="0.323"/>
			</g>
			
				<ellipse transform="matrix(0.7071 0.7071 -0.7071 0.7071 24.226 -33.4359)" fill="#FFB000" cx="52.474" cy="12.525" rx="8.586" ry="0.321"/>
		</g>
	</g>
	<g>
		<g>
			<g>
				<path fill="#CE1111" d="M36.627,29.773l3.133-3.133c3.561,3.56,7.847,4.234,9.468,2.613c1.621-1.622,0.946-5.908-2.613-9.467
					l3.133-3.134c5.145,5.144,6.292,12.056,2.614,15.733C48.682,36.065,41.771,34.918,36.627,29.773z"/>
			</g>
			<path fill="#8A4299" d="M49.747,16.653l-3.133,3.134c2.316,2.315,4.992,3.814,7.567,4.433
				C53.562,21.645,52.064,18.969,49.747,16.653z"/>
			<g>
				<path fill="#097ACE" d="M35.227,28.372c-5.145-5.144-6.292-12.055-2.614-15.733c3.68-3.679,10.589-2.53,15.734,2.613
					l-3.133,3.133c-3.56-3.56-7.847-4.234-9.469-2.613c-1.62,1.621-0.946,5.908,2.614,9.467L35.227,28.372z"/>
			</g>
		</g>
		<g>
			<g>
				<path fill="#FFB000" d="M49.144,26.756c-0.124,0.125-2.668-2.213-5.677-5.224c-3.012-3.009-5.35-5.553-5.224-5.677
					c0.126-0.128,2.668,2.211,5.68,5.221C46.932,24.087,49.271,26.629,49.144,26.756z"/>
				
					<ellipse transform="matrix(0.7071 0.7071 -0.7071 0.7071 28.8654 -22.2414)" fill="#FFB000" cx="41.279" cy="23.721" rx="7.709" ry="0.322"/>
			</g>
			
				<ellipse transform="matrix(0.7071 0.7071 -0.7071 0.7071 28.3648 -23.4495)" fill="#FFB000" cx="42.487" cy="22.513" rx="8.586" ry="0.322"/>
		</g>
	</g>
	<g>
		<g>
			<g>
				<path fill="#097ACE" d="M26.64,39.762l3.133-3.134c3.56,3.56,7.847,4.233,9.468,2.612s0.945-5.906-2.613-9.467l3.133-3.133
					c5.145,5.144,6.291,12.055,2.614,15.734C38.694,46.053,31.784,44.904,26.64,39.762z"/>
			</g>
			<g>
				<path fill="#CE1111" d="M25.239,38.359c-5.145-5.143-6.292-12.055-2.614-15.733c3.68-3.679,10.59-2.53,15.734,2.612
					l-3.133,3.134c-3.561-3.56-7.847-4.234-9.469-2.612c-1.621,1.62-0.945,5.908,2.613,9.467L25.239,38.359z"/>
			</g>
			<path fill="#8A4299" d="M35.227,28.372l3.133-3.134c-2.316-2.315-4.99-3.814-7.567-4.433
				C31.412,23.381,32.91,26.056,35.227,28.372z"/>
		</g>
		<g>
			<g>
				<path fill="#FFB000" d="M39.156,36.743c-0.124,0.125-2.667-2.213-5.677-5.224c-3.013-3.01-5.349-5.553-5.224-5.677
					c0.127-0.128,2.668,2.211,5.68,5.221C36.945,34.074,39.284,36.616,39.156,36.743z"/>
				
					<ellipse transform="matrix(0.7071 0.7071 -0.7071 0.7071 32.9999 -12.2537)" fill="#FFB000" cx="31.292" cy="33.708" rx="7.708" ry="0.322"/>
			</g>
			
				<ellipse transform="matrix(0.7071 0.7071 -0.7071 0.7071 32.5017 -13.4616)" fill="#FFB000" cx="32.5" cy="32.5" rx="8.586" ry="0.322"/>
		</g>
	</g>
	<g>
		<g>
			<g>
				<path fill="#CE1111" d="M16.652,49.748l3.133-3.133c3.56,3.56,7.847,4.233,9.468,2.613c1.621-1.622,0.946-5.908-2.613-9.467
					l3.133-3.134c5.145,5.144,6.292,12.055,2.614,15.733C28.707,56.04,21.797,54.892,16.652,49.748z"/>
			</g>
			<g>
				<path fill="#097ACE" d="M26.64,39.762l3.133-3.134c3.56,3.56,7.847,4.233,9.468,2.612s0.945-5.906-2.613-9.467l3.133-3.133
					c5.145,5.144,6.291,12.055,2.614,15.734C38.694,46.053,31.784,44.904,26.64,39.762z"/>
			</g>
			<path fill="#8A4299" d="M29.772,36.628l-3.133,3.134c2.316,2.315,4.992,3.814,7.567,4.433
				C33.586,41.619,32.09,38.943,29.772,36.628z"/>
			<g>
				<path fill="#097ACE" d="M15.252,48.347c-5.145-5.144-6.292-12.055-2.615-15.733c3.682-3.679,10.591-2.529,15.734,2.613
					l-3.132,3.133c-3.56-3.56-7.847-4.234-9.47-2.613c-1.619,1.621-0.944,5.908,2.615,9.468L15.252,48.347z"/>
			</g>
		</g>
		<g>
			<g>
				<path fill="#FFB000" d="M29.17,46.73c-0.125,0.125-2.669-2.213-5.678-5.223c-3.013-3.01-5.349-5.554-5.225-5.679
					c0.128-0.127,2.668,2.212,5.681,5.222C26.958,44.062,29.297,46.604,29.17,46.73z"/>
				
					<ellipse transform="matrix(0.707 0.7072 -0.7072 0.707 37.1411 -2.2645)" fill="#FFB000" cx="21.304" cy="43.695" rx="7.708" ry="0.322"/>
			</g>
			
				<ellipse transform="matrix(0.707 0.7072 -0.7072 0.707 36.6403 -3.4728)" fill="#FFB000" cx="22.512" cy="42.487" rx="8.585" ry="0.322"/>
		</g>
	</g>
	<g>
		<g>
			<g>
				<path fill="#097ACE" d="M6.665,59.736l3.133-3.134c3.56,3.56,7.847,4.233,9.467,2.613c1.622-1.622,0.947-5.908-2.612-9.468
					l3.133-3.133c5.145,5.144,6.292,12.055,2.615,15.733C18.719,66.027,11.81,64.879,6.665,59.736z"/>
			</g>
			<g>
				<path fill="#CE1111" d="M5.265,58.334C0.119,53.191-1.027,46.279,2.65,42.601c3.68-3.679,10.59-2.53,15.734,2.613l-3.133,3.133
					c-3.559-3.56-7.848-4.234-9.469-2.612c-1.62,1.62-0.945,5.907,2.614,9.467L5.265,58.334z"/>
			</g>
			<g>
				<path fill="#097ACE" d="M15.252,48.347c-5.145-5.144-6.292-12.055-2.615-15.733c3.682-3.679,10.591-2.529,15.734,2.613
					l-3.132,3.133c-3.56-3.56-7.847-4.234-9.47-2.613c-1.619,1.621-0.944,5.908,2.615,9.468L15.252,48.347z"/>
			</g>
			<path fill="#8A4299" d="M15.252,48.347l3.133-3.133c-2.316-2.316-4.99-3.814-7.566-4.434
				C11.438,43.355,12.936,46.03,15.252,48.347z"/>
		</g>
		<g>
			<g>
				
					<ellipse transform="matrix(0.7071 0.7071 -0.7071 0.7071 40.2733 5.3058)" fill="#FFB000" cx="13.732" cy="51.267" rx="7.708" ry="0.322"/>
				
					<ellipse transform="matrix(0.7071 0.7071 -0.7071 0.7071 41.2714 7.7199)" fill="#FFB000" cx="11.316" cy="53.682" rx="7.709" ry="0.322"/>
			</g>
			
				<ellipse transform="matrix(0.7071 0.7071 -0.7071 0.7071 40.7735 6.5134)" fill="#FFB000" cx="12.524" cy="52.475" rx="8.586" ry="0.322"/>
		</g>
	</g>
</g>
</svg>
