<?xml version="1.0" encoding="utf-8"?>
<!-- Generator: Adobe Illustrator 16.0.0, SVG Export Plug-In . SVG Version: 6.00 Build 0)  -->
<!DOCTYPE svg PUBLIC "-//W3C//DTD SVG 1.1//EN" "http://www.w3.org/Graphics/SVG/1.1/DTD/svg11.dtd">
<svg version="1.1" id="Layer_1" xmlns="http://www.w3.org/2000/svg" xmlns:xlink="http://www.w3.org/1999/xlink" x="0px" y="0px"
	 width="65px" height="65px" viewBox="0 0 65 65" enable-background="new 0 0 65 65" xml:space="preserve">
<g>
	<g>
		<path fill="#69838E" d="M18.729,47.741c-1.896,1.896-4.971,1.895-6.867,0l-0.645-0.643c-1.896-1.896-1.896-4.972,0-6.869
			l28.542-28.541c1.896-1.896,4.972-1.895,6.866,0l0.645,0.646c1.896,1.896,1.896,4.97,0,6.866L18.729,47.741z"/>
		<path fill="#5B737F" d="M46.625,11.688l0.645,0.646c1.896,1.896,1.896,4.97,0,6.866L18.729,47.741
			c-1.896,1.896-4.971,1.895-6.867,0l-0.645-0.643"/>
		<path fill="#5B737F" d="M35.093,16L33,18.785V33.47l14.438-14.446C48.236,18.225,48.525,17,48.652,16H35.093z"/>
		<path fill="#CE1111" d="M43.465,23.871c-1.291,1.291-3.386,1.291-4.678,0l-3.701-3.7c-1.289-1.292-1.289-3.387,0-4.678
			L49.113,1.468c1.291-1.291,3.385-1.291,4.678,0l3.7,3.7c1.291,1.292,1.291,3.386,0,4.677L43.465,23.871z"/>
		<path fill="#FF1A1A" d="M35.086,15.493L49.113,1.468c1.291-1.291,3.385-1.291,4.678,0l3.7,3.7"/>
		<path fill="#CE1111" d="M44.244,27.864c-0.807,0.807-2.115,0.807-2.922,0L31.094,17.636c-0.809-0.807-0.809-2.114,0-2.921l0,0
			c0.807-0.808,2.114-0.808,2.922,0l10.229,10.227C45.051,25.75,45.051,27.057,44.244,27.864L44.244,27.864z"/>
		<path fill="#A50202" d="M44.244,27.864L44.244,27.864c-0.807,0.807-2.115,0.807-2.922,0L31.094,17.636
			c-0.809-0.807-0.809-2.114,0-2.921l0,0"/>
		<g>
			<g>
				<path fill="#85A1AA" d="M36.147,26.137c-0.12,0.119-0.313,0.117-0.433-0.001l-2.893-2.892c-0.119-0.119-0.121-0.313-0.002-0.435
					l0,0c0.12-0.119,0.316-0.119,0.437,0.002l2.892,2.892C36.268,25.821,36.268,26.017,36.147,26.137L36.147,26.137z"/>
				<path fill="#85A1AA" d="M32.75,26.064c-0.119,0.119-0.314,0.119-0.434,0l-1.156-1.156c-0.12-0.121-0.121-0.316,0-0.436l0,0
					c0.12-0.121,0.314-0.119,0.435,0.001l1.155,1.156C32.869,25.75,32.871,25.943,32.75,26.064L32.75,26.064z"/>
			</g>
			<g>
				<path fill="#85A1AA" d="M32.894,29.391c-0.119,0.118-0.314,0.118-0.434,0l-2.892-2.893c-0.119-0.119-0.12-0.314,0-0.435l0,0
					c0.119-0.12,0.314-0.118,0.434,0.001l2.894,2.892C33.014,29.075,33.016,29.269,32.894,29.391L32.894,29.391z"/>
				<path fill="#85A1AA" d="M29.496,29.317c-0.121,0.12-0.315,0.119-0.434,0l-1.156-1.156c-0.121-0.119-0.121-0.315,0-0.436l0,0
					c0.119-0.12,0.314-0.118,0.435,0.002l1.155,1.155C29.615,29.003,29.617,29.197,29.496,29.317L29.496,29.317z"/>
			</g>
			<g>
				<path fill="#85A1AA" d="M29.641,32.645c-0.119,0.119-0.316,0.119-0.435,0l-2.891-2.892c-0.121-0.119-0.121-0.316-0.001-0.436
					l0,0c0.119-0.12,0.314-0.118,0.435,0.002l2.892,2.891C29.759,32.33,29.762,32.522,29.641,32.645L29.641,32.645z"/>
				<path fill="#85A1AA" d="M26.243,32.571c-0.12,0.121-0.314,0.119-0.435,0l-1.156-1.155c-0.12-0.121-0.121-0.315,0-0.437l0,0
					c0.12-0.12,0.314-0.117,0.433,0.003l1.157,1.154C26.361,32.257,26.363,32.451,26.243,32.571L26.243,32.571z"/>
			</g>
		</g>
		<path fill="#8AA2AA" d="M13.365,41.258c-0.241,0.242-0.635,0.242-0.877,0l0,0c-0.242-0.242-0.242-0.635,0-0.877l5.479-5.479
			c0.243-0.242,0.636-0.242,0.878,0l0,0c0.241,0.242,0.243,0.636,0,0.877L13.365,41.258z"/>
		<path fill="#8AA2AA" d="M20.67,33.952c-0.24,0.242-0.634,0.242-0.876,0l0,0c-0.243-0.242-0.241-0.635,0-0.877l5.479-5.479
			c0.242-0.241,0.636-0.241,0.877,0l0,0c0.241,0.242,0.241,0.636,0,0.878L20.67,33.952z"/>
	</g>
	<path fill="#48B6ED" d="M14.426,60.558c0,2.176-1.765,3.942-3.941,3.942c-2.178,0-3.943-1.767-3.943-3.942
		c0-2.178,1.766-7.99,3.943-7.99C12.661,52.567,14.426,58.38,14.426,60.558z"/>
	<path fill="#3D9DD8" d="M10.484,52.567c2.177,0,3.941,5.812,3.941,7.99c0,2.176-1.765,3.942-3.941,3.942"/>
	<path fill="#3D9DD8" d="M9.859,43c-0.111,1-0.018,1.641,0.275,2.412c-0.357,0.256-0.65,0.49-0.834,0.674
		c-0.987,0.988-0.987,2.587-0.002,3.573c0.988,0.987,2.588,0.986,3.575,0c0.183-0.183,0.417-0.473,0.671-0.828
		c1.737,0.67,3.781,0.314,5.184-1.088L23.473,43H9.859z"/>
	<path fill="#48B6ED" d="M9.83,44h12.721l0.922-1H9.859C9.818,43,9.814,44,9.83,44z"/>
</g>
</svg>
