<?xml version="1.0" encoding="utf-8"?>
<!-- Generator: Adobe Illustrator 16.0.0, SVG Export Plug-In . SVG Version: 6.00 Build 0)  -->
<!DOCTYPE svg PUBLIC "-//W3C//DTD SVG 1.1//EN" "http://www.w3.org/Graphics/SVG/1.1/DTD/svg11.dtd">
<svg version="1.1" id="Layer_1" xmlns="http://www.w3.org/2000/svg" xmlns:xlink="http://www.w3.org/1999/xlink" x="0px" y="0px"
	 width="65px" height="65px" viewBox="0 0 65 65" enable-background="new 0 0 65 65" xml:space="preserve">
<g>
	<g>
		<g>
			<g>
				<g>
					<polygon fill="#ACDCE2" points="40.283,34.83 59.887,41.611 62.77,62.849 33.396,62.849 					"/>
					<polygon fill="#E2F5F7" points="24.718,34.83 5.113,41.611 2.23,62.849 31.604,62.849 					"/>
					<polygon fill="#CEEEF2" points="21.466,48.953 5.113,41.611 2.23,62.849 31.604,62.849 					"/>
					<polygon fill="#C3E4EA" points="55.502,43.519 40.283,34.83 38.708,41.233 26.292,41.233 24.718,34.83 9.498,43.519 
						11.071,62.849 25.664,62.849 31.604,62.849 33.396,62.849 39.613,62.849 53.929,62.849 					"/>
					<g>
						<polygon fill="#E2F5F7" points="20.103,35.495 17.562,46.745 25.186,49.12 21.812,57.12 32.499,62.683 32.499,56.788 						
							"/>
						<polygon fill="#CEEEF2" points="44.898,35.495 47.436,46.745 39.812,49.12 43.186,57.12 32.499,62.683 32.499,56.788 						
							"/>
					</g>
				</g>
				<g>
					<g>
						<g>
							<polygon fill="#F9BDA0" points="40.042,38.603 24.958,38.603 25.964,26.105 39.037,26.105 							"/>
							<polygon fill="#E28F71" points="40.042,38.603 32.476,38.603 24.958,26.105 39.037,26.105 							"/>
							<path fill="#FCCCB9" d="M42.684,16.107c0,8.859-4.465,16.875-10.183,16.875c-5.721,0-10.183-8.016-10.183-16.875
								c0-8.86,4.462-10.335,10.183-10.335C38.219,5.772,42.684,7.247,42.684,16.107z"/>
							<path fill="#F9BDA0" d="M32.501,5.772c5.718,0,10.183,1.475,10.183,10.335c0,8.859-4.465,16.875-10.183,16.875"/>
							<g>
								<g>
									<polygon fill="#6B767C" points="32.253,56.452 23.24,44.22 19.987,35.495 24.571,33.573 32.501,38.593 40.429,33.573 
										45.015,35.495 41.761,44.22 32.748,56.452 32.494,56.885 									"/>
									<polyline fill="#4E595E" points="32.501,38.593 40.429,33.573 45.015,35.495 41.761,44.22 32.748,56.452 32.494,56.885 
										32.253,56.452 									"/>
									<polygon fill="#4E595E" points="24.571,33.573 32.261,38.749 23.242,43.481 									"/>
								</g>
								<g>
									<polygon fill="#454F54" points="40.429,33.573 32.74,38.749 41.761,43.481 									"/>
								</g>
							</g>
						</g>
					</g>
				</g>
				<g>
					<path fill="#071519" d="M22.375,14.765c-0.541-0.237-1.434-2.842-0.957-3.928c0.48-1.088,2.307-0.775,2.846-0.537
						c0.543,0.238,0.992,1.598,0.117,2.399"/>
					<path fill="#071519" d="M42.623,14.741c0.543-0.239,1.441-2.843,0.964-3.929c-0.475-1.085-2.301-0.771-2.843-0.532
						s-0.994,1.601-0.119,2.399"/>
				</g>
			</g>
		</g>
		<path fill="#071519" d="M34.05,8.996c0,0,1.979,4.145,9.395,4.312c0,0,2.773-8.062-8.062-9.562L34.05,8.996z"/>
		<path fill="#23343A" d="M38.757,6.87c0,0-0.625,8.125-16.875,5c0,0-2.875-1-2.5-3.375c0,0,0.625,2.25,2.25,0.375
			c0,0,2.312-7.021,9.188-6.708C37.695,2.475,38.757,6.87,38.757,6.87z"/>
		<path fill="#071519" d="M38.757,6.87c0,0-0.625,8.125-16.875,5c0,0-2.875-1-2.5-3.375c0,0,0.625,2.25,2.25,0.375"/>
		<polygon fill="#23343A" points="33.234,38.308 35.302,52.89 32.501,55.927 29.697,52.89 31.768,38.308 		"/>
		<polyline fill="#071519" points="31.768,39.308 33.234,39.308 35.302,52.89 32.501,55.927 		"/>
		<polygon fill="#071519" points="31.799,40.679 31.366,39.349 32.499,38.526 33.632,39.349 33.199,40.679 		"/>
	</g>
</g>
</svg>
