<?xml version="1.0" encoding="utf-8"?>
<!-- Generator: Adobe Illustrator 16.0.0, SVG Export Plug-In . SVG Version: 6.00 Build 0)  -->
<!DOCTYPE svg PUBLIC "-//W3C//DTD SVG 1.1//EN" "http://www.w3.org/Graphics/SVG/1.1/DTD/svg11.dtd">
<svg version="1.1" id="Layer_1" xmlns="http://www.w3.org/2000/svg" xmlns:xlink="http://www.w3.org/1999/xlink" x="0px" y="0px"
	 width="65px" height="65px" viewBox="0 0 65 65" enable-background="new 0 0 65 65" xml:space="preserve">
<g>
	<g>
		<path fill="#3A2212" d="M57.255,14.459c2,0,3.622,1.622,3.622,3.622v29.586c0,2.001-1.622,3.623-3.622,3.623H7.745
			c-2,0-3.622-1.622-3.622-3.623V18.081c0-2,1.622-3.622,3.622-3.622H57.255 M57.255,10.837H7.745c-3.995,0-7.245,3.25-7.245,7.244
			v29.586c0,3.995,3.25,7.246,7.245,7.246h49.51c3.995,0,7.245-3.251,7.245-7.246V18.081C64.5,14.087,61.25,10.837,57.255,10.837
			L57.255,10.837z"/>
		<path fill="#02994A" d="M7.745,52.351c-2.996,0-5.434-2.438-5.434-5.434V17.331c0-2.996,2.438-5.434,5.434-5.434h49.51
			c2.995,0,5.434,2.438,5.434,5.434v29.586c0,2.996-2.438,5.434-5.434,5.434H7.745z"/>
		<path fill="#038462" d="M57.255,11.897c2.995,0,5.434,2.438,5.434,5.434v29.586c0,2.996-2.438,5.434-5.434,5.434H7.745
			c-2.996,0-5.434-2.438-5.434-5.434"/>
		<path fill="#6B4125" d="M57.255,13.709c2,0,3.622,1.622,3.622,3.622v29.586c0,2.001-1.622,3.623-3.622,3.623H7.745
			c-2,0-3.622-1.622-3.622-3.623V17.331c0-2,1.622-3.622,3.622-3.622H57.255 M57.255,10.087H7.745c-3.995,0-7.245,3.25-7.245,7.244
			v29.586c0,3.995,3.25,7.246,7.245,7.246h49.51c3.995,0,7.245-3.251,7.245-7.246V17.331C64.5,13.337,61.25,10.087,57.255,10.087
			L57.255,10.087z"/>
		<path fill="#3A2212" d="M55.458,50.764c0.588,0.588,0.588,1.54-0.002,2.128l0,0c-0.588,0.589-1.539,0.589-2.128,0l-5.321-5.321
			c-0.589-0.588-0.589-1.541,0-2.129l0,0c0.588-0.588,1.541-0.588,2.128,0L55.458,50.764z"/>
	</g>
	<g>
		<g>
			<path fill="#FFFFFF" d="M14.818,35.698H10.25v-2.926h4.246c0.244,0,0.441-0.197,0.441-0.438v-1.543
				c0-0.242-0.197-0.438-0.441-0.438H10.25v-1.834h4.471c0.244,0,0.441-0.196,0.441-0.438v-1.574c0-0.243-0.197-0.439-0.441-0.439
				H8.174c-0.244,0-0.441,0.196-0.441,0.439v11.236c0,0.245,0.197,0.441,0.441,0.441h6.645c0.242,0,0.439-0.196,0.439-0.441v-1.604
				C15.258,35.894,15.061,35.698,14.818,35.698z"/>
			<path fill="#FFFFFF" d="M37.695,26.218c-0.033-0.188-0.186-0.33-0.375-0.355c-0.189-0.022-0.371,0.076-0.453,0.246l-3.359,7.049
				l-3.359-7.049c-0.082-0.172-0.262-0.269-0.453-0.246c-0.191,0.025-0.342,0.168-0.375,0.355l-2.121,11.444
				c-0.023,0.131,0.012,0.261,0.096,0.361c0.084,0.102,0.209,0.16,0.338,0.16h1.701c0.213,0,0.396-0.155,0.434-0.366l0.867-4.965
				l2.475,5.285c0.07,0.153,0.227,0.254,0.398,0.254c0.17,0,0.324-0.101,0.396-0.254l2.477-5.285l0.865,4.965
				c0.037,0.211,0.221,0.366,0.434,0.366h1.701c0,0,0.008,0,0.01,0c0.242,0,0.439-0.196,0.439-0.441
				c0-0.058-0.012-0.112-0.031-0.165L37.695,26.218z"/>
			<path fill="#B3CEBF" d="M27.199,37.662c-0.023,0.131,0.012,0.261,0.096,0.361c0.084,0.102,0.209,0.16,0.338,0.16h1.701
				c0.213,0,0.396-0.155,0.434-0.366l0.867-4.965l2.475,5.285c0.07,0.153,0.227,0.254,0.398,0.254c0.17,0,0.324-0.101,0.396-0.254
				l2.477-5.285l0.865,4.965c0.037,0.211,0.221,0.366,0.434,0.366h1.701c0,0,0.008,0,0.01,0c0.242,0,0.439-0.196,0.439-0.441
				c0-0.058-0.012-0.112-0.031-0.165l-2.104-11.359c-0.033-0.188-0.186-0.33-0.375-0.355c-0.189-0.022-0.371,0.076-0.453,0.246
				l-3.359,7.049L31.27,28.46l-2.682,1.709L27.199,37.662z"/>
			<path fill="#B3CEBF" d="M50.33,26.252c-0.711-0.254-1.408-0.377-2.139-0.377c-3.418,0-6.201,2.812-6.201,6.267
				c0,3.445,2.783,6.25,6.201,6.25c0.73,0,1.428-0.125,2.139-0.38c0.176-0.062,0.293-0.229,0.293-0.414v-1.813
				c0-0.158-0.088-0.307-0.227-0.385c-0.141-0.076-0.311-0.071-0.447,0.012c-0.527,0.329-1.119,0.496-1.758,0.496
				c-1.961,0-3.557-1.688-3.557-3.766c0-2.087,1.596-3.783,3.557-3.783c0.621,0,1.211,0.172,1.758,0.514
				c0.137,0.082,0.307,0.087,0.447,0.009c0.139-0.078,0.227-0.224,0.227-0.384v-1.831C50.623,26.48,50.506,26.315,50.33,26.252z"/>
		</g>
		<g>
			<path fill="#FFFFFF" d="M24.369,29.803h-5.703c-0.168,0-0.305,0.138-0.305,0.304v0.959c0,0.17,0.137,0.305,0.305,0.305h5.703
				c0.168,0,0.307-0.135,0.307-0.305v-0.959C24.676,29.94,24.537,29.803,24.369,29.803z"/>
			<path fill="#FFFFFF" d="M24.369,32.88h-5.703c-0.168,0-0.305,0.135-0.305,0.305v0.959c0,0.169,0.137,0.304,0.305,0.304h5.703
				c0.168,0,0.307-0.135,0.307-0.304v-0.959C24.676,33.015,24.537,32.88,24.369,32.88z"/>
			<path fill="#B3CEBF" d="M24.369,34.447c0.168,0,0.307-0.135,0.307-0.304v-0.959c0-0.17-0.139-0.305-0.307-0.305h-0.035
				l-2.458,1.567H24.369z"/>
		</g>
		<path fill="#B3CEBF" d="M56.961,32.362h-1.982l1.703-2.17c0.371-0.475,0.586-0.875,0.586-1.514c0-1.232-1.07-2.234-2.389-2.234
			c-1.314,0-2.385,1.002-2.385,2.234c0,0.555,0.221,1.062,0.578,1.453l0.93-1.219c-0.02-0.076-0.035-0.151-0.035-0.234
			c0-0.491,0.4-0.895,0.896-0.895c0.488,0,0.902,0.41,0.902,0.895c0,0.204-0.074,0.395-0.197,0.545l-1.215,1.637
			c0.004,0.002,0.008,0.002,0.008,0.002l-1.863,2.416c-0.059,0.078-0.068,0.184-0.027,0.271c0.047,0.088,0.135,0.145,0.234,0.145
			h4.256c0.141,0,0.26-0.116,0.26-0.258v-0.814C57.221,32.479,57.102,32.362,56.961,32.362z"/>
	</g>
	<g>
		<path fill="#FFFFFF" d="M54.354,49.66c0.588,0.588,0.588,1.54-0.002,2.128l0,0c-0.588,0.589-1.539,0.589-2.128,0l-5.321-5.321
			c-0.588-0.588-0.588-1.541,0-2.129l0,0c0.588-0.588,1.541-0.588,2.129,0L54.354,49.66z"/>
		<path fill="#C3DDCD" d="M46.902,44.338L46.902,44.338c0.588-0.588,1.541-0.588,2.129,0l5.322,5.322
			c0.588,0.588,0.588,1.54-0.002,2.128l0,0"/>
	</g>
</g>
</svg>
