<?xml version="1.0" encoding="utf-8"?>
<!-- Generator: Adobe Illustrator 16.0.0, SVG Export Plug-In . SVG Version: 6.00 Build 0)  -->
<!DOCTYPE svg PUBLIC "-//W3C//DTD SVG 1.1//EN" "http://www.w3.org/Graphics/SVG/1.1/DTD/svg11.dtd">
<svg version="1.1" id="Layer_1" xmlns="http://www.w3.org/2000/svg" xmlns:xlink="http://www.w3.org/1999/xlink" x="0px" y="0px"
	 width="65px" height="65px" viewBox="0 0 65 65" enable-background="new 0 0 65 65" xml:space="preserve">
<g>
	<g>
		<path fill="#20BCF2" d="M51.177,6.514C38.67-2.498,21.123-1.383,9.869,9.871C-1.383,21.123-2.498,38.668,6.515,51.178
			L51.177,6.514z"/>
		<path fill="#20BCF2" d="M58.486,13.824L13.822,58.486c12.508,9.012,30.055,7.896,41.308-3.355
			C66.383,43.877,67.498,26.33,58.486,13.824z"/>
	</g>
	<g>
		<path fill="#5FD9F9" d="M9.869,9.871C1.327,18.413-1.367,30.581,1.771,41.42L41.42,1.771C30.581-1.367,18.412,1.328,9.869,9.871z"
			/>
		<path fill="#5FD9F9" d="M47.88,47.881c8.542-8.543,11.237-20.712,8.099-31.55L16.33,55.979
			C27.168,59.117,39.336,56.423,47.88,47.881z"/>
	</g>
</g>
</svg>
