<?xml version="1.0" encoding="utf-8"?>
<!-- Generator: Adobe Illustrator 16.0.0, SVG Export Plug-In . SVG Version: 6.00 Build 0)  -->
<!DOCTYPE svg PUBLIC "-//W3C//DTD SVG 1.1//EN" "http://www.w3.org/Graphics/SVG/1.1/DTD/svg11.dtd">
<svg version="1.1" id="Layer_1" xmlns="http://www.w3.org/2000/svg" xmlns:xlink="http://www.w3.org/1999/xlink" x="0px" y="0px"
	 width="65px" height="65px" viewBox="0 0 65 65" enable-background="new 0 0 65 65" xml:space="preserve">
<g>
	<g>
		<circle fill="#0793D1" cx="7.361" cy="10.357" r="4.712"/>
		<path fill="#097ACE" d="M10.692,7.025c1.842,1.84,1.842,4.822,0,6.664c-1.838,1.838-4.822,1.838-6.664,0"/>
		<path fill="#25BEF4" d="M7.026,6.848c0.607,0.607-0.424,1.119-1.377,2.07c-0.951,0.951-1.463,1.982-2.07,1.377
			C2.972,9.688,3.247,8.422,4.202,7.473C5.155,6.52,6.417,6.238,7.026,6.848z"/>
		<circle fill="#25BEF4" cx="7.892" cy="6.684" r="0.295"/>
	</g>
	<g>
		<path fill="#CCC2B2" d="M27.116,31.918c-0.521,0-1.041-0.199-1.438-0.596L7.843,13.488c-0.793-0.795-0.793-2.08,0-2.873
			c0.793-0.795,2.08-0.795,2.873,0l17.836,17.834c0.793,0.793,0.793,2.08,0,2.873C28.155,31.719,27.636,31.918,27.116,31.918z"/>
	</g>
	<g>
		<circle fill="#0793D1" cx="41.187" cy="6.426" r="5.926"/>
		<path fill="#097ACE" d="M45.378,2.234c2.314,2.314,2.314,6.066,0,8.381s-6.066,2.314-8.381,0"/>
		<path fill="#25BEF4" d="M40.767,2.014c0.764,0.766-0.535,1.408-1.732,2.604c-1.197,1.197-1.84,2.496-2.604,1.732
			c-0.766-0.766-0.414-2.357,0.783-3.553C38.411,1.6,40.001,1.25,40.767,2.014z"/>
		<circle fill="#25BEF4" cx="41.854" cy="1.809" r="0.37"/>
	</g>
	<g>
		<path fill="#CCC2B2" d="M20.427,29.688c-0.52,0-1.041-0.199-1.438-0.596c-0.793-0.793-0.793-2.078,0-2.873L36.825,8.385
			c0.793-0.795,2.078-0.795,2.873,0c0.793,0.793,0.793,2.078,0,2.873L21.862,29.092C21.466,29.488,20.946,29.688,20.427,29.688z"/>
	</g>
	<g>
		<circle fill="#FF7F00" cx="22.647" cy="24.795" r="8.381"/>
		<path fill="#EA5807" d="M28.573,18.869c3.273,3.275,3.273,8.58,0,11.854c-3.273,3.271-8.58,3.273-11.852,0"/>
		<path fill="#FFB000" d="M22.052,18.557c1.082,1.082-0.756,1.988-2.449,3.682c-1.691,1.693-2.602,3.529-3.684,2.449
			c-1.08-1.08-0.584-3.33,1.109-5.023C18.72,17.971,20.97,17.475,22.052,18.557z"/>
		<circle fill="#FFB000" cx="23.592" cy="18.266" r="0.524"/>
	</g>
	<g>
		<path fill="#CCC2B2" d="M45.655,50.457c-0.52,0-1.039-0.199-1.438-0.596L26.382,32.027c-0.793-0.793-0.793-2.08,0-2.873
			c0.795-0.793,2.08-0.793,2.873,0l17.836,17.834c0.795,0.795,0.795,2.08,0,2.873C46.694,50.258,46.175,50.457,45.655,50.457z"/>
	</g>
	<g>
		<circle fill="#0793D1" cx="48.806" cy="50.955" r="13.545"/>
		<path fill="#097ACE" d="M58.384,41.377c5.289,5.291,5.289,13.865,0,19.156c-5.289,5.287-13.865,5.289-19.156,0"/>
		<path fill="#25BEF4" d="M47.845,40.871c1.746,1.748-1.223,3.215-3.959,5.951s-4.205,5.705-5.951,3.957
			c-1.748-1.746-0.947-5.383,1.789-8.119S46.095,39.123,47.845,40.871z"/>
		<circle fill="#25BEF4" cx="50.331" cy="40.4" r="0.846"/>
	</g>
</g>
</svg>
