<?xml version="1.0" encoding="utf-8"?>
<!-- Generator: Adobe Illustrator 16.0.0, SVG Export Plug-In . SVG Version: 6.00 Build 0)  -->
<!DOCTYPE svg PUBLIC "-//W3C//DTD SVG 1.1//EN" "http://www.w3.org/Graphics/SVG/1.1/DTD/svg11.dtd">
<svg version="1.1" id="Layer_1" xmlns="http://www.w3.org/2000/svg" xmlns:xlink="http://www.w3.org/1999/xlink" x="0px" y="0px"
	 width="65px" height="65px" viewBox="0 0 65 65" enable-background="new 0 0 65 65" xml:space="preserve">
<g>
	<g>
		<circle fill="#FFAA00" cx="32.5" cy="32.5" r="32"/>
		<path fill="#FF8500" d="M55.127,9.873c12.497,12.496,12.497,32.758,0,45.254c-12.496,12.498-32.758,12.498-45.254,0"/>
	</g>
	<g>
		<g>
			<g>
				<path fill="#064E7F" d="M32.5,22.805c1.402,0,2.761,0.188,4.063,0.514l6.669-14.615C40.329,6.264,36.589,4.787,32.5,4.787
					s-7.83,1.477-10.732,3.916l6.668,14.615C29.738,22.992,31.097,22.805,32.5,22.805z"/>
				<path fill="#0B3A60" d="M28.436,23.318c1.303-0.326,2.661-0.514,4.064-0.514c1.402,0,2.761,0.188,4.063,0.514l6.669-14.615
					C40.329,6.264,36.589,4.787,32.5,4.787"/>
			</g>
		</g>
		<g>
			<g>
				<g>
					<g>
						<path fill="#064E7F" d="M24.055,37.443c-0.734-1.199-1.287-2.451-1.687-3.732L6.422,35.666
							c-0.563,3.754,0.136,7.713,2.271,11.196c2.14,3.483,5.353,5.901,8.951,7.103l8.972-13.327
							C25.656,39.699,24.788,38.638,24.055,37.443z"/>
						<path fill="#0B3A60" d="M26.616,40.638c-0.96-0.938-1.828-2-2.562-3.194c-0.734-1.199-1.287-2.451-1.687-3.732L6.422,35.666
							c-0.563,3.754,0.136,7.713,2.271,11.196"/>
					</g>
				</g>
			</g>
			<g>
				<g>
					<g>
						<path fill="#064E7F" d="M40.946,37.443c0.734-1.199,1.285-2.451,1.687-3.732l15.946,1.955
							c0.562,3.754-0.136,7.713-2.271,11.196c-2.142,3.483-5.354,5.901-8.951,7.103l-8.971-13.327
							C39.345,39.699,40.213,38.638,40.946,37.443z"/>
						<path fill="#0B3A60" d="M38.386,40.638c0.959-0.938,1.827-2,2.561-3.194c0.734-1.199,1.285-2.451,1.687-3.732l15.946,1.955
							c0.562,3.754-0.136,7.713-2.271,11.196"/>
					</g>
				</g>
			</g>
		</g>
	</g>
	<g>
		<circle fill="#0B3A60" cx="32.5" cy="32.5" r="4.631"/>
		<path fill="#064E7F" d="M29.225,29.225c1.807-1.807,4.744-1.807,6.551,0s1.807,4.744,0,6.551"/>
	</g>
</g>
</svg>
