<?xml version="1.0" encoding="utf-8"?>
<!-- Generator: Adobe Illustrator 16.0.0, SVG Export Plug-In . SVG Version: 6.00 Build 0)  -->
<!DOCTYPE svg PUBLIC "-//W3C//DTD SVG 1.1//EN" "http://www.w3.org/Graphics/SVG/1.1/DTD/svg11.dtd">
<svg version="1.1" id="Layer_1" xmlns="http://www.w3.org/2000/svg" xmlns:xlink="http://www.w3.org/1999/xlink" x="0px" y="0px"
	 width="65px" height="65px" viewBox="0 0 65 65" enable-background="new 0 0 65 65" xml:space="preserve">
<g>
	<path fill="#AF0C00" d="M37.87,8.721c0,2.224-1.803,4.026-4.026,4.026h-2.686c-2.224,0-4.026-1.803-4.026-4.026V2.766
		c0-2.224,1.803-2.266,4.026-2.266h2.686c2.224,0,4.026,0.042,4.026,2.266V8.721z"/>
	<line fill="#D64505" x1="33.843" y1="12.747" x2="31.158" y2="12.747"/>
	<path fill="#D64505" d="M27.131,2.766c0-2.224,1.803-2.266,4.026-2.266h2.686c2.224,0,4.026,0.042,4.026,2.266"/>
	<path fill="#222E33" d="M37.659,26.587c0,2.224-1.803,4.026-4.025,4.026h-2.266c-2.223,0-4.025-1.803-4.025-4.026V11.74
		c0-2.223,1.803-4.025,4.025-4.025h2.266c2.223,0,4.025,1.803,4.025,4.025V26.587z"/>
	<path fill="#3D4E56" d="M47.598,24.825c0,2.224-1.803,4.026-4.025,4.026H21.428c-2.223,0-4.025-1.803-4.025-4.026v-3.02
		c0-2.224,1.803-4.026,4.025-4.026h22.145c2.223,0,4.025,1.803,4.025,4.026V24.825z"/>
	<path fill="#222E33" d="M55.484,60.475c0,2.223-1.803,4.025-4.026,4.025H13.543c-2.223,0-4.027-1.803-4.027-4.025V25.246
		c0-2.224,1.805-4.026,4.027-4.026h37.914c2.224,0,4.026,1.803,4.026,4.026V60.475z"/>
	<rect x="17.237" y="29.775" fill="#D64505" width="38.247" height="26.17"/>
	<polyline fill="#AF0C00" points="55.484,29.775 55.484,55.945 17.237,55.945 	"/>
	<g>
		<g>
			<path fill="#FFFFFF" d="M48.702,39.174c0,3.758-3.703,2.756-8.27,2.756c-4.567,0-8.27,1.002-8.27-2.756
				c0-3.76,3.702-6.808,8.27-6.808C44.999,32.366,48.702,35.414,48.702,39.174z"/>
			<path fill="#C3D3D8" d="M48.702,39.174c0,3.758-3.703,2.756-8.27,2.756c-4.567,0-8.27,1.002-8.27-2.756
				c0-3.76,3.702-5.584,8.27-5.584C44.999,33.59,48.702,35.414,48.702,39.174z"/>
			<path fill="#EBF0F2" d="M48.702,39.174c0,3.758-3.703,1.547-8.27,1.547c-4.567,0-8.27,2.211-8.27-1.547
				c0-3.76,3.702-5.584,8.27-5.584C44.999,33.59,48.702,35.414,48.702,39.174z"/>
			<path fill="#EBF0F2" d="M44.565,43.048c0,3.124-1.85,3.198-4.133,3.198c-2.281,0-4.134-0.074-4.134-3.198
				c0-3.126,1.853-5.659,4.134-5.659C42.715,37.389,44.565,39.922,44.565,43.048z"/>
			<path fill="#C3D3D8" d="M40.432,45.867c-2.156,0-3.925-0.646-4.115-3.287c-0.011,0.133-0.019,0.286-0.019,0.468
				c0,3.124,1.853,3.198,4.134,3.198c2.283,0,4.133-0.074,4.133-3.198c0-0.182-0.007-0.335-0.018-0.468
				C44.357,45.221,42.588,45.867,40.432,45.867z"/>
			<g>
				<g>
					<path fill="#FFFFFF" d="M39.172,38.513c0,1.182-0.957,2.137-2.137,2.137c-1.182,0-2.137-0.955-2.137-2.137
						s0.955-2.813,2.137-2.813C38.215,35.699,39.172,37.331,39.172,38.513z"/>
					<circle fill="#D64505" cx="37.036" cy="38.513" r="2.137"/>
				</g>
				<g>
					<path fill="#FFFFFF" d="M45.965,38.175c0,1.181-0.956,2.137-2.138,2.137c-1.181,0-2.137-0.956-2.137-2.137
						c0-1.18,0.956-2.476,2.137-2.476C45.009,35.699,45.965,36.995,45.965,38.175z"/>
					<circle fill="#AF0C00" cx="43.828" cy="38.513" r="2.137"/>
				</g>
			</g>
			<path fill="#FFFFFF" d="M41.369,41.066c0,0.518-0.42,0.018-0.937,0.018c-0.518,0-0.938,0.5-0.938-0.018s0.42-1.245,0.938-1.245
				C40.949,39.821,41.369,40.549,41.369,41.066z"/>
			<path fill="#AF0C00" d="M41.369,41.066c0,0.518-0.42,0.018-0.937,0.018c-0.518,0-0.938,0.5-0.938-0.018s0.42-0.937,0.938-0.937
				C40.949,40.13,41.369,40.549,41.369,41.066z"/>
		</g>
		<path fill="#EBF0F2" d="M44.071,50.729c-0.475-0.302-1.053-0.292-1.513-0.035l-0.802-0.506l0.802-0.507
			c0.46,0.257,1.038,0.265,1.513-0.036c0.695-0.438-0.231-0.64-0.67-1.333c-0.438-0.694-0.222-1.617-0.916-1.181
			c-0.477,0.302-0.717,0.829-0.682,1.355l-1.371,0.865l-1.37-0.865c0.034-0.526-0.206-1.054-0.683-1.355
			c-0.695-0.437-0.479,0.486-0.917,1.181c-0.437,0.693-1.364,0.896-0.671,1.333c0.477,0.302,1.055,0.293,1.516,0.036l0.801,0.507
			l-0.802,0.506c-0.46-0.257-1.038-0.267-1.515,0.035c-0.693,0.439,0.234,0.639,0.671,1.333c0.438,0.694,0.222,1.618,0.917,1.18
			c0.475-0.302,0.717-0.828,0.682-1.354l1.371-0.865l1.371,0.866c-0.033,0.525,0.205,1.052,0.682,1.353
			c0.694,0.438,0.479-0.485,0.916-1.18C43.839,51.367,44.766,51.168,44.071,50.729z"/>
	</g>
	<rect x="18.897" y="31.537" fill="#EBF0F2" width="10.064" height="22.646"/>
	<path fill="#D64505" d="M27.327,33.928c0,0.208-0.169,0.377-0.378,0.377H20.91c-0.208,0-0.377-0.169-0.377-0.377l0,0
		c0-0.209,0.169-0.378,0.377-0.378h6.039C27.158,33.55,27.327,33.719,27.327,33.928L27.327,33.928z"/>
	<path fill="#D64505" d="M27.327,36.569c0,0.208-0.169,0.378-0.378,0.378H20.91c-0.208,0-0.377-0.17-0.377-0.378l0,0
		c0-0.208,0.169-0.378,0.377-0.378h6.039C27.158,36.191,27.327,36.361,27.327,36.569L27.327,36.569z"/>
	<path fill="#D64505" d="M27.327,39.212c0,0.208-0.169,0.377-0.378,0.377H20.91c-0.208,0-0.377-0.169-0.377-0.377l0,0
		c0-0.209,0.169-0.378,0.377-0.378h6.039C27.158,38.834,27.327,39.003,27.327,39.212L27.327,39.212z"/>
	<path fill="#222E33" d="M39.881,9.057c0,1.344-1.089,2.434-2.433,2.434h-9.897c-1.343,0-2.432-1.09-2.432-2.434l0,0
		c0-1.344,1.089-2.432,2.432-2.432h9.897C38.792,6.625,39.881,7.713,39.881,9.057L39.881,9.057z"/>
</g>
</svg>
