<?xml version="1.0" encoding="utf-8"?>
<!-- Generator: Adobe Illustrator 16.0.0, SVG Export Plug-In . SVG Version: 6.00 Build 0)  -->
<!DOCTYPE svg PUBLIC "-//W3C//DTD SVG 1.1//EN" "http://www.w3.org/Graphics/SVG/1.1/DTD/svg11.dtd">
<svg version="1.1" id="Layer_1" xmlns="http://www.w3.org/2000/svg" xmlns:xlink="http://www.w3.org/1999/xlink" x="0px" y="0px"
	 width="65px" height="65px" viewBox="0 0 65 65" enable-background="new 0 0 65 65" xml:space="preserve">
<g>
	<g>
		<path fill="#EA0C5C" d="M54.064,51.908c-6.034,0-16.371-4.127-26.976-10.773c-13.06-8.186-25.42-19.699-21.703-25.631
			c1.003-1.602,2.87-2.412,5.549-2.412c6.039,0,16.376,4.129,26.979,10.775c13.059,8.184,25.42,19.695,21.701,25.627
			C58.611,51.098,56.744,51.908,54.064,51.908z M10.935,17.381c-1.382,0-1.86,0.316-1.915,0.402
			C8.112,19.232,14.117,27.939,29.368,37.5c11.151,6.988,20.44,10.117,24.696,10.117c1.381,0,1.861-0.316,1.915-0.402
			c0.909-1.449-5.094-10.154-20.346-19.713C24.482,20.51,15.193,17.381,10.935,17.381z"/>
	</g>
	<g>
		<path fill="#03E2B7" d="M10.936,51.908L10.936,51.908c-2.68,0-4.546-0.811-5.55-2.414c-3.72-5.932,8.643-17.443,21.7-25.627
			c10.604-6.646,20.941-10.775,26.979-10.775c2.679,0,4.546,0.811,5.549,2.412c3.717,5.932-8.644,17.445-21.703,25.631
			C27.308,47.779,16.971,51.908,10.936,51.908z M54.065,17.381c-4.259,0-13.548,3.129-24.7,10.121
			C14.114,37.061,8.111,45.766,9.02,47.215c0.055,0.086,0.535,0.402,1.916,0.402c4.256,0,13.543-3.129,24.696-10.117
			c15.251-9.561,21.255-18.268,20.348-19.719C55.926,17.697,55.446,17.381,54.065,17.381z"/>
	</g>
	<g>
		<g>
			<path fill="#FF9D00" d="M32.498,64.5c-7,0-10.189-16.588-10.189-32s3.189-32,10.189-32c7.002,0,10.19,16.588,10.19,32
				S39.5,64.5,32.498,64.5z M32.498,4.791C30.787,4.791,26.6,14.5,26.6,32.5s4.188,27.709,5.898,27.709
				c1.713,0,5.9-9.709,5.9-27.709S34.211,4.791,32.498,4.791z"/>
		</g>
	</g>
	<g>
		<path fill="#772477" d="M22.945,20.75c1.308,0.563,2.68,1.202,4.109,1.918c0.156-1.607,0.344-3.114,0.56-4.512
			c-1.386-0.666-2.739-1.271-4.053-1.816C23.321,17.763,23.115,19.237,22.945,20.75z"/>
		<path fill="#772477" d="M38.352,29.261c1.562,1.043,2.994,2.066,4.336,3.069c-0.004-1.792-0.049-3.599-0.139-5.393
			c-1.471-1.028-2.976-2.025-4.49-2.979C38.195,25.625,38.298,27.389,38.352,29.261z"/>
		<path fill="#772477" d="M42.051,44.248c-1.306-0.564-2.678-1.203-4.107-1.918c-0.156,1.607-0.344,3.115-0.561,4.512
			c1.387,0.667,2.74,1.272,4.053,1.817C41.676,47.235,41.882,45.76,42.051,44.248z"/>
		<path fill="#772477" d="M26.646,35.738c-1.562-1.043-2.994-2.067-4.337-3.072c0.003,1.793,0.049,3.6,0.139,5.395
			c1.472,1.028,2.976,2.025,4.491,2.979C26.803,39.375,26.7,37.609,26.646,35.738z"/>
	</g>
	<g>
		<path fill="#0793D1" d="M37.943,22.668c1.43-0.715,2.801-1.354,4.107-1.918c-0.169-1.512-0.375-2.986-0.615-4.409
			c-1.312,0.544-2.666,1.15-4.053,1.817C37.6,19.555,37.787,21.062,37.943,22.668z"/>
		<path fill="#0793D1" d="M22.31,32.332c1.343-1.003,2.774-2.027,4.337-3.07c0.054-1.871,0.156-3.635,0.293-5.301
			c-1.516,0.953-3.02,1.95-4.491,2.979C22.358,28.734,22.312,30.541,22.31,32.332z"/>
		<path fill="#0793D1" d="M27.055,42.332c-1.43,0.714-2.802,1.353-4.109,1.918c0.17,1.511,0.376,2.986,0.616,4.41
			c1.313-0.545,2.667-1.15,4.053-1.817C27.398,45.445,27.211,43.938,27.055,42.332z"/>
		<path fill="#0793D1" d="M42.688,32.669c-1.342,1.003-2.774,2.027-4.336,3.07c-0.054,1.872-0.156,3.636-0.293,5.302
			c1.515-0.953,3.02-1.95,4.49-2.979C42.639,36.269,42.684,34.461,42.688,32.669z"/>
	</g>
	<circle fill="#924596" cx="32.498" cy="32.5" r="3.375"/>
	<path fill="#772477" d="M30.111,30.113c1.318-1.317,3.456-1.316,4.773,0c1.316,1.318,1.316,3.456,0,4.773"/>
</g>
</svg>
