<?xml version="1.0" encoding="utf-8"?>
<!-- Generator: Adobe Illustrator 16.0.0, SVG Export Plug-In . SVG Version: 6.00 Build 0)  -->
<!DOCTYPE svg PUBLIC "-//W3C//DTD SVG 1.1//EN" "http://www.w3.org/Graphics/SVG/1.1/DTD/svg11.dtd">
<svg version="1.1" id="Layer_1" xmlns="http://www.w3.org/2000/svg" xmlns:xlink="http://www.w3.org/1999/xlink" x="0px" y="0px"
	 width="65px" height="65px" viewBox="0 0 65 65" enable-background="new 0 0 65 65" xml:space="preserve">
<g>
	<g>
		<g>
			<circle fill="#7CCBD8" cx="40.788" cy="24.212" r="20.597"/>
			<path fill="#38B7E8" d="M61.385,24.213c0,11.375-9.221,20.596-20.598,20.596c-11.373,0-20.596-9.221-20.596-20.596"/>
			<path fill="#153D77" d="M17.076,24.213C17.076,11.139,27.715,0.5,40.787,0.5C53.861,0.5,64.5,11.139,64.5,24.213
				S53.863,47.924,40.789,47.924S17.076,37.285,17.076,24.213z M58.27,24.213c0-9.639-7.84-17.482-17.48-17.48
				c-9.639,0-17.482,7.842-17.482,17.48s7.844,17.479,17.48,17.479C50.43,41.693,58.27,33.854,58.27,24.213z"/>
		</g>
		<path fill="#95A1A5" d="M18.148,49.668c-0.777,0.775-2.037,0.775-2.816,0l0,0c-0.775-0.777-0.775-2.039,0-2.816l7.709-7.709
			c0.779-0.777,2.039-0.777,2.816,0l0,0c0.777,0.777,0.777,2.039,0,2.814L18.148,49.668z"/>
		<path fill="#7E8B8E" d="M25.857,39.143L25.857,39.143c0.777,0.777,0.777,2.039,0,2.814l-7.709,7.711
			c-0.777,0.775-2.037,0.775-2.816,0l0,0"/>
		<path fill="#1157AA" d="M6.705,63.436c-1.42,1.42-3.721,1.42-5.141,0l0,0c-1.42-1.42-1.42-3.721,0-5.141l10.709-10.709
			c1.42-1.42,3.721-1.42,5.141,0l0,0c1.42,1.42,1.42,3.723,0,5.143L6.705,63.436z"/>
		<path fill="#153D77" d="M17.414,47.586L17.414,47.586c1.42,1.42,1.42,3.723,0,5.143L6.705,63.436c-1.42,1.42-3.721,1.42-5.141,0
			l0,0"/>
	</g>
	<g>
		<path fill="#153D77" d="M40.908,31.865c-1.326,0-2.404,1.092-2.404,2.436c0,1.342,1.078,2.434,2.404,2.434
			c1.328,0,2.406-1.092,2.406-2.434C43.314,32.98,42.213,31.865,40.908,31.865z"/>
		<path fill="#153D77" d="M40.668,11.689c-3.947,0-6.811,2.896-6.811,6.93c0,0.229,0.186,0.381,0.414,0.381h2.955
			c0.229,0,0.414-0.152,0.414-0.381c0-1.625,1.041-3.252,3.027-3.252c1.857,0,3.207,1.344,3.207,3.184c0,1.51-0.93,2.6-2.008,3.854
			c-1.279,1.492-2.73,3.311-2.73,6.055c0,0.229,0.186,0.541,0.414,0.541h2.928c0.229,0,0.414-0.311,0.414-0.539
			c0-1.805,1.057-3.045,2.176-4.291c1.244-1.383,2.65-2.982,2.65-5.58C47.719,14.674,44.688,11.689,40.668,11.689z"/>
	</g>
</g>
</svg>
