<?xml version="1.0" encoding="utf-8"?>
<!-- Generator: Adobe Illustrator 16.0.0, SVG Export Plug-In . SVG Version: 6.00 Build 0)  -->
<!DOCTYPE svg PUBLIC "-//W3C//DTD SVG 1.1//EN" "http://www.w3.org/Graphics/SVG/1.1/DTD/svg11.dtd">
<svg version="1.1" id="Layer_1" xmlns="http://www.w3.org/2000/svg" xmlns:xlink="http://www.w3.org/1999/xlink" x="0px" y="0px"
	 width="64px" height="64px" viewBox="0 0 64 64" enable-background="new 0 0 64 64" xml:space="preserve">
<g>
	<circle fill="#A5E5D8" cx="32" cy="32" r="28.8"/>
	<g>
		<g>
			<path fill="#2E3534" d="M22,24v25.8c0,5.3,4.7,13,10,13c5.3,0,10-7.7,10-13V24H22z"/>
			<path fill="#3E4443" d="M32,24H22v25.8c0,5.3,4.5,13,9.8,13"/>
			<polygon fill="#4C5655" points="29.1,15 34.9,15 39.2,24 24.8,24 			"/>
			<polyline fill="#2E3534" points="30,15 34.9,15 39.2,24 			"/>
			<path fill="#EA4811" d="M42,49.7V24H22v25.7c0,0.6,0.1,1.4,0.2,2.3h19.5C41.9,51.4,42,50.3,42,49.7z"/>
			<path fill="#ED6E0F" d="M22.2,52H32V24H22v25.7C22,50.3,22.1,51.3,22.2,52z"/>
			<g>
				<g>
					<path fill="#F4A211" d="M29.8,45.6c0-1.2,1-2.2,2.2-2.2c1.2,0,2.2,1,2.2,2.2s-1,2.2-2.2,2.2C30.8,47.8,29.8,46.8,29.8,45.6z"/>
					<path fill="#FFC41D" d="M32,47.8c-1.2,0-2.2-1-2.2-2.2s1-2.2,2.2-2.2"/>
				</g>
				<g>
					<path fill="#F4A211" d="M29.8,37.7c0-1.2,1-2.2,2.2-2.2c1.2,0,2.2,1,2.2,2.2c0,1.2-1,2.2-2.2,2.2
						C30.8,39.9,29.8,38.9,29.8,37.7z"/>
					<path fill="#FFC41D" d="M32,39.9c-1.2,0-2.2-1-2.2-2.2c0-1.2,1-2.2,2.2-2.2"/>
				</g>
				<g>
					<circle fill="#F4A211" cx="32" cy="29.8" r="2.2"/>
					<path fill="#FFC41D" d="M32,32c-1.2,0-2.2-1-2.2-2.2c0-1.2,1-2.2,2.2-2.2"/>
				</g>
			</g>
		</g>
		<rect x="28" y="5" fill="#ED6E0F" width="8" height="8"/>
		<polyline fill="#EA4811" points="28,5 36,5 36,13 		"/>
		<path fill="#4C5655" d="M35.2,4c-0.3-1-1.2-2-2.3-2h-1.7c-1.1,0-2,1-2.3,2H35.2z"/>
		<g>
			<g>
				<polygon fill="#FFC41D" points="27,13.5 21,9.8 21,1.3 27,5 				"/>
				<polyline fill="#F4A211" points="21,1.3 27,5 27,13 				"/>
			</g>
			<g>
				<polygon fill="#FFC41D" points="37,13.5 43,9.8 43,1.3 37,5 				"/>
				<polyline fill="#F4A211" points="43,1.3 37,5 37,13 				"/>
			</g>
		</g>
	</g>
	<g>
		<path fill="#8CC4B7" d="M15.6,23h-1.8l-1.4,2H11v0.5v8.3v0v0c0,1.2,0.5,2.6,1.4,3.4c0.4,0.4,1.2,0.7,2.3,0.7
			c2.3,0,3.3-2.5,3.3-4.1v0V25h-1L15.6,23z"/>
		<rect x="13" y="20" fill="#8CC4B7" width="3" height="2"/>
		<path fill="#8CC4B7" d="M14.9,19h-0.5c-0.3,0-0.6,0-0.7,0h2C15.6,19,15.3,19,14.9,19z"/>
		<polygon fill="#8CC4B7" points="13,19.4 11,18.3 11,21 13,22.2 		"/>
		<polygon fill="#8CC4B7" points="16,19.4 16,22.2 18,21 18,18.3 		"/>
	</g>
	<g>
		<path fill="#8CC4B7" d="M49.6,33h-1l-0.7,2H47v0.5v3.4v0l0,0c0,0.6,0.6,1.4,1.1,1.9c0.2,0.2,0.8,0.3,1,0.3c0.9,0,1.9-1.3,1.9-2.2
			v0V35h-0.7L49.6,33z"/>
		<rect x="48.4" y="31.4" fill="#8CC4B7" width="1.3" height="1.4"/>
		<path fill="#8CC4B7" d="M49.2,30.9h-0.3c-0.2,0-0.3,0.1-0.4,0.3h1.1C49.6,31,49.4,30.9,49.2,30.9z"/>
		<polygon fill="#8CC4B7" points="48,31.3 47,30.7 47,32.2 48,32.8 		"/>
		<polygon fill="#8CC4B7" points="50,31.3 50,32.8 51,32.2 51,30.7 		"/>
	</g>
</g>
</svg>
