<?xml version="1.0" encoding="utf-8"?>
<!-- Generator: Adobe Illustrator 16.0.0, SVG Export Plug-In . SVG Version: 6.00 Build 0)  -->
<!DOCTYPE svg PUBLIC "-//W3C//DTD SVG 1.1//EN" "http://www.w3.org/Graphics/SVG/1.1/DTD/svg11.dtd">
<svg version="1.1" id="Layer_1" xmlns="http://www.w3.org/2000/svg" xmlns:xlink="http://www.w3.org/1999/xlink" x="0px" y="0px"
	 width="64px" height="64px" viewBox="0 0 64 64" enable-background="new 0 0 64 64" xml:space="preserve">
<g>
	<g>
		<path fill="#870600" d="M21,37.7c0,0.7-0.6,1.3-1.3,1.3H2.3C1.6,39,1,38.4,1,37.7V5.3C1,4.6,1.6,4,2.3,4h17.4
			C20.4,4,21,4.6,21,5.3V37.7z"/>
		<path fill="#C43D27" d="M19,35.3c0,0.5-0.9,0.7-1.4,0.7H4.1C3.6,36,3,35.9,3,35.3V8c0-0.5,0.6-1,1.1-1h13.5C18.1,7,19,7.5,19,8
			V35.3z"/>
		<path fill="#AA241A" d="M3,8c0-0.5,0.6-1,1.1-1h13.5C18.1,7,19,7.5,19,8v27.3c0,0.5-0.7,1-1.2,1"/>
		<g>
			<g>
				<g>
					<path fill="#EAE9DA" d="M7.3,15.6c1.5,0,2.7,0.8,3.2,2c0,0.1,0.2,0.2,0.3,0.2c0.1,0,0.3,0,0.3-0.2c0.5-1.2,1.7-2,3.2-2
						c1.9,0,3.4,1.3,3.4,3c0,0.6-0.2,1.2-0.6,1.7c0,0,0,0,0,0c0,0,0,0,0,0l-6.3,7.4l-6.3-7.4c0,0,0,0,0,0c0,0,0,0,0,0
						c-0.4-0.5-0.6-1.1-0.6-1.7C3.9,17,5.5,15.6,7.3,15.6z"/>
				</g>
			</g>
		</g>
		<g>
			<g>
				<g>
					<path fill="#C9C6B1" d="M10.8,17.8c0.1,0,0.3,0,0.3-0.2c0.5-1.2,1.7-2,3.2-2c1.9,0,3.4,1.3,3.4,3c0,0.6-0.2,1.2-0.6,1.7
						c0,0,0,0,0,0c0,0,0,0,0,0l-6.3,7.4 M4.5,20.3C4.5,20.3,4.5,20.3,4.5,20.3"/>
				</g>
			</g>
		</g>
	</g>
	<g>
		<path fill="#1A1E1E" d="M35,58.7c0,0.7-0.6,1.3-1.3,1.3H16.3c-0.7,0-1.3-0.6-1.3-1.3V26.3c0-0.7,0.6-1.3,1.3-1.3h17.4
			c0.7,0,1.3,0.6,1.3,1.3V58.7z"/>
		<path fill="#4A514F" d="M33,56c0,0.5-0.9,1-1.4,1H18.1c-0.5,0-1.1-0.5-1.1-1V28.7c0-0.5,0.6-0.7,1.1-0.7h13.5
			c0.5,0,1.4,0.1,1.4,0.7V56z"/>
		<path fill="#393F3D" d="M17.1,28.8c0-0.5,0.4-0.8,1-0.8h13.5c0.5,0,1.4,0.1,1.4,0.7V56c0,0.5-0.9,1-1.4,1"/>
		<path fill="#EAE9DA" d="M31.2,42C31.1,42,31.1,42,31.2,42C31.1,42,31.1,42,31.2,42l-6.3-7.5L18.6,42c0,0,0,0,0,0c0,0,0,0,0,0
			c-0.4,0.5-0.6,1.1-0.6,1.7c0,1.6,1.5,3,3.4,3c1.1,0,2-0.5,2.7-1.2L23,50h1.7H25h1.7l-1-4.5c0.6,0.7,1.6,1.2,2.7,1.2
			c1.9,0,3.4-1.3,3.4-3C31.7,43.1,31.5,42.5,31.2,42z"/>
		<path fill="#EAE9DA" d="M18.5,42"/>
		<path fill="#C9C6B1" d="M24.8,50L24.8,50h1.9l-1-4.5c0.6,0.7,1.6,1.2,2.7,1.2c1.9,0,3.4-1.3,3.4-3c0-0.6-0.2-1.2-0.6-1.7
			c0,0,0,0,0,0c0,0,0,0,0,0l-6.3-7.4"/>
	</g>
	<g>
		<path fill="#870600" d="M49,37.7c0,0.7-0.6,1.3-1.3,1.3H30.3c-0.7,0-1.3-0.6-1.3-1.3V5.3C29,4.6,29.6,4,30.3,4h17.4
			C48.4,4,49,4.6,49,5.3V37.7z"/>
		<path fill="#C43D27" d="M47,35.3c0,0.5-0.6,0.7-1.1,0.7H32.4c-0.5,0-1.4-0.1-1.4-0.7V8c0-0.5,0.9-1,1.4-1h13.5C46.4,7,47,7.5,47,8
			V35.3z"/>
		<path fill="#AA241A" d="M31,8c0-0.5,0.9-1,1.4-1h13.5C46.4,7,47,7.5,47,8v27.3c0,0.5-0.5,1-1,1"/>
		<polygon fill="#EAE9DA" points="44.2,21.7 39.2,28.5 34.1,21.7 39.2,14.8 		"/>
		<polyline fill="#C9C6B1" points="39.2,14.8 44.2,21.7 39.2,28.5 		"/>
	</g>
	<g>
		<path fill="#1A1E1E" d="M63,58.7c0,0.7-0.6,1.3-1.3,1.3H44.3c-0.7,0-1.3-0.6-1.3-1.3V26.3c0-0.7,0.6-1.3,1.3-1.3h17.4
			c0.7,0,1.3,0.6,1.3,1.3V58.7z"/>
		<path fill="#4A514F" d="M61,56c0,0.5-0.6,1-1.1,1H46.4c-0.5,0-1.4-0.5-1.4-1V28.7c0-0.5,0.9-0.7,1.4-0.7h13.5
			c0.5,0,1.1,0.1,1.1,0.7V56z"/>
		<path fill="#393F3D" d="M45,28.7c0-0.5,0.9-0.7,1.4-0.7h13.5c0.5,0,1.1,0.1,1.1,0.7V56c0,0.5-0.6,1-1.1,1"/>
		<path fill="#EAE9DA" d="M54.8,45.1l2.9-0.2l0,0c0.4,0,0.8-0.1,1.1-0.3c1.3-0.7,1.9-2.3,1.2-3.7c-0.7-1.3-2.3-1.9-3.7-1.2
			c-0.1,0.1-0.3,0.2-0.4,0.3l0.1-0.3l0,0c0.2-0.4,0.3-0.8,0.3-1.3c0-1.8-1.4-3.2-3.2-3.2S50,36.5,50,38.3c0,0.5,0.1,0.9,0.3,1.3l0,0
			l0.1,0.3c-0.1-0.1-0.2-0.2-0.4-0.3c-1.3-0.7-3-0.2-3.7,1.2c-0.7,1.3-0.2,3,1.2,3.7c0.4,0.2,0.7,0.3,1.1,0.3l0,0l2.9,0.2"/>
		<polyline fill="#EAE9DA" points="48.6,44.9 48.6,44.9 51.5,45.1 		"/>
		<path fill="#EAE9DA" d="M50,39.7"/>
		<path fill="#C9C6B1" d="M50.2,39.6"/>
		<path fill="#C9C6B1" d="M53.2,35c1.8,0,3.2,1.5,3.2,3.2c0,0.5-0.1,0.9-0.3,1.3l0,0l-0.1,0.3c0.1-0.1,0.3-0.2,0.4-0.3
			c1.3-0.7,3-0.2,3.7,1.2c0.7,1.3,0.2,3-1.2,3.7c-0.4,0.2-0.7,0.3-1.1,0.3l0,0l-2.9,0.2H53"/>
		<path fill="#EAE9DA" d="M53.8,45.3"/>
		<path fill="#EAE9DA" d="M52.6,45.3"/>
		<g>
			<polygon fill="#EAE9DA" points="52,47 51.3,50 53,50 53.4,50 55,50 54.4,47 			"/>
		</g>
		<g>
			<polyline fill="#C9C6B1" points="53,50 53.4,50 55,50 54.4,47 53,47 			"/>
		</g>
	</g>
</g>
</svg>
