<?xml version="1.0" encoding="utf-8"?>
<!-- Generator: Adobe Illustrator 16.0.0, SVG Export Plug-In . SVG Version: 6.00 Build 0)  -->
<!DOCTYPE svg PUBLIC "-//W3C//DTD SVG 1.1//EN" "http://www.w3.org/Graphics/SVG/1.1/DTD/svg11.dtd">
<svg version="1.1" id="Layer_1" xmlns="http://www.w3.org/2000/svg" xmlns:xlink="http://www.w3.org/1999/xlink" x="0px" y="0px"
	 width="64px" height="64px" viewBox="0 0 64 64" enable-background="new 0 0 64 64" xml:space="preserve">
<g>
	<g>
		<circle fill="#00BBF4" cx="32" cy="32" r="31"/>
		<path fill="#00A6F9" d="M10.1,10.1C22.2-2,41.8-2,53.9,10.1C66,22.2,66,41.8,53.9,53.9C41.8,66,22.2,66,10.1,53.9"/>
		<g>
			<path fill="#0064DB" d="M50.2,57.1c-0.6,0.2-1.2,0.2-1.8-0.1C45.6,55.6,35.8,48,32,48.3c-3.8-0.3-13.6,7.3-16.4,8.8
				c-0.6,0.3-1.2,0.3-1.8,0.1c2.3,1.6,4.7,2.9,7.3,3.9c3.8-0.9,7.7-2.5,10.9-2.6c3.2,0.1,7.1,1.7,10.9,2.6
				C45.5,60.1,47.9,58.8,50.2,57.1z"/>
		</g>
		<path fill="#0086F4" d="M10.1,10.1C22.2-2,41.8-2,53.9,10.1C66,22.2,66,41.8,53.9,53.9"/>
		<path fill="#0064DB" d="M53.9,10.1C66,22.2,66,41.8,53.9,53.9"/>
		<g>
			<path fill="#F9F9F9" d="M52.4,35.9c-0.1-0.2-0.2-0.4-0.3-0.7l0.1,0c0.1,0,0.2-0.1,0.2-0.2v-0.6c0-0.1-0.1-0.2-0.2-0.2l-0.3-0.2
				c-0.1-0.8-0.2-1.6-0.2-2.4l0.2-0.1c0.1,0,0.2-0.1,0.2-0.2v-1.1c0-0.1-0.3-0.3-0.5-0.4c0-0.3,0-0.6-0.1-0.7
				c-0.3-1-1.5-1.4-1.5-1.4l-17.8-4.3v-0.1L32,23.3l-0.2-0.1v0.1L14,27.6c0,0-1.2,0.4-1.5,1.4c0,0.2-0.1,0.4-0.1,0.7
				c-0.2,0.1-0.5,0.4-0.5,0.4v1.1c0,0.1,0.1,0.2,0.2,0.2l0.2,0.1c0,0.8-0.1,1.6-0.2,2.4l-0.3,0.2c-0.1,0-0.2,0.1-0.2,0.2V35
				c0,0.1,0.1,0.2,0.2,0.2l0.1,0c-0.1,0.3-0.2,0.5-0.3,0.7c-1,1.9-3.3,6.7-2.5,10.4s5.2,11.9,9.7,11.6c4.4-0.3,9.3-2.7,13.2-2.9
				c3.9,0.2,8.8,2.6,13.2,2.9c4.5,0.3,8.9-7.9,9.7-11.6C55.7,42.6,53.4,37.8,52.4,35.9z"/>
			<path fill="#E7F2F2" d="M52.1,35.2L52.1,35.2c0.2,0,0.3-0.1,0.3-0.2v-0.6c0-0.1-0.1-0.2-0.2-0.2l-0.3-0.2
				c-0.1-0.8-0.2-1.6-0.2-2.4l0.2-0.1c0.1,0,0.2-0.1,0.2-0.2v-1.1c0-0.1-0.3-0.3-0.5-0.4c0-0.3,0-0.6-0.1-0.7
				c-0.3-1-1.5-1.4-1.5-1.4l-17.8-4.3v-0.1L32,23.3h0v31.8h0c3.9,0.2,8.8,2.6,13.2,2.9c4.5,0.3,8.9-7.9,9.7-11.6
				c0.8-3.8-1.5-8.5-2.5-10.4C52.3,35.7,52.2,35.5,52.1,35.2z"/>
			<path fill="#1C1C1B" d="M48.7,35.9l-1.6-3l-8.8-3.9L32,35.8l-6.2-6.7l-8.8,3.9l-1.6,3l-0.6,3.8c0,0,4.5,5.9,5.3,6.5
				c1,0.8,1,1.6,4.5-1.6c3.1-2.8,5.6-4.5,7.2-4.7v0c0.1,0,0.2,0,0.3,0c0.1,0,0.2,0,0.3,0v0c1.6,0.2,4.1,1.9,7.2,4.7
				c3.5,3.2,3.5,2.4,4.5,1.6c0.8-0.6,5.3-6.5,5.3-6.5L48.7,35.9z"/>
			<path fill="#F9F9F9" d="M51.8,19.1l-0.5-1.8c0-0.1-0.1-0.2-0.3-0.1l-0.3-0.1c-0.4-1.3-0.7-2.1-0.7-2.1c-1.6-3.2-3.8-5.5-6-7.1
				l-0.2-0.5c0-0.1,0-0.2-0.1-0.3l-2.1-1c-0.1,0-0.2,0-0.3,0.1l-0.2,0.1C36.9,4.1,32.8,4,32,4c-0.8,0-4.9,0-9.3,2.1l-0.2-0.1
				C22.5,6,22.4,6,22.3,6l-2.1,1c-0.1,0-0.1,0.2-0.1,0.3l-0.2,0.5c-2.3,1.6-4.4,3.9-6,7.1c0,0-0.3,0.9-0.7,2.1l-0.3,0.1
				c-0.1,0-0.2,0-0.3,0.1l-0.5,1.8c0,0.1,0,0.2,0.1,0.3l0.2,0.4c-0.3,1.5-0.4,3.2-0.2,4.6c0.7,3.7,5.5-0.9,5.5-0.9l11.9-0.6l2.2-0.4
				l2.2,0.4l11.9,0.6c0,0,4.8,4.6,5.5,0.9c0.3-1.4,0.1-3-0.1-4.6l0.2-0.4C51.8,19.3,51.9,19.2,51.8,19.1z"/>
			<path fill="#E7F2F2" d="M51.3,17.3c0-0.1-0.1-0.2-0.3-0.1l-0.3-0.1c-0.4-1.3-0.7-2.1-0.7-2.1c-1.6-3.2-3.8-5.5-6-7.1l-0.2-0.5
				c0-0.1,0-0.2-0.1-0.3l-2.1-1c-0.1,0-0.2,0-0.3,0.1l-0.2,0.1C36.9,4.1,32.8,4,32,4h0v18.3l0,0l2.2,0.4l11.9,0.6
				c0,0,4.8,4.6,5.5,0.9c0.3-1.4,0.1-3-0.1-4.6l0.2-0.4c0.1,0,0.2-0.1,0.1-0.3L51.3,17.3z"/>
			<g>
				<g>
					<path fill="#CDE0DF" d="M55.1,44.5c-0.2,0.6-0.7,1.8-1.2,2.8c-0.9,1.7-4.4,8-7,6.5c-2.5-1.4-11.3-8.2-14.8-7.9
						c-3.5-0.3-12.3,6.6-14.8,7.9c-2.7,1.4-6.2-4.8-7-6.5c-0.5-1-1-2.2-1.2-2.8c0,0.6,0,1.3,0.2,1.9c0.8,3.8,5.2,11.9,9.7,11.6
						c4.4-0.3,9.3-2.7,13.2-2.9c3.9,0.2,8.8,2.6,13.2,2.9c4.5,0.3,8.9-7.9,9.7-11.6C55,45.8,55.1,45.1,55.1,44.5z"/>
					<path fill="#BAD1CF" d="M53.8,47.3c-0.9,1.7-4.4,8-7,6.5c-2.5-1.4-11.3-8.2-14.8-7.9c0,0,0,0,0,0v9.2h0
						c3.9,0.2,8.8,2.6,13.2,2.9c4.5,0.3,8.9-7.9,9.7-11.6c0.1-0.6,0.2-1.2,0.2-1.9C54.9,45.1,54.3,46.3,53.8,47.3z"/>
					<path fill="#DDEDED" d="M14.9,27.4c0.5,1.1,1.2,2.6,1.2,2.9c0.1,0.5,0,0.7-0.6,1.4c-0.6,0.7-1.9,2-1.9,2s-0.4,0.5-0.3,1
						c0.1,0.4,0.7,3.1,0.7,3.1s0.5,0.9,0.7,0.9c0.2,0,0.8-0.5,1.3-1.2c0.5-0.7,0.4-3.2,1-4.2c0.5-1,1-1.1,2.8-1.7s3.3-1.5,5.1-3.5
						c1.9-2,4.1-3.9,6.9-4.2v-0.3L14.9,27.4z"/>
					<path fill="#CDE0DF" d="M49.1,27.4c-0.5,1.1-1.2,2.6-1.2,2.9c-0.1,0.5,0,0.7,0.6,1.4c0.6,0.7,1.9,2,1.9,2s0.4,0.5,0.3,1
						c-0.1,0.4-0.7,3.1-0.7,3.1s-0.5,0.9-0.7,0.9c-0.2,0-0.8-0.5-1.3-1.2c-0.5-0.7-0.4-3.2-1-4.2c-0.5-1-1-1.1-2.7-1.7
						c-1.8-0.7-3.3-1.5-5.1-3.5c-1.9-2-4.1-3.9-6.9-4.2v-0.3L49.1,27.4z"/>
					<path fill="#CDE0DF" d="M39.9,20.8c-2.8-0.3-5.5-0.8-7.9-0.7c-2.4-0.1-5.1,0.3-7.9,0.7c-4.8,0.6-9,1.7-11.8,3.1
						c0,0.1,0,0.2,0.1,0.3c0.7,3.7,5.5-0.9,5.5-0.9l11.9-0.6l2.2-0.4l2.2,0.4l11.9,0.6c0,0,4.8,4.6,5.5,0.9c0-0.1,0-0.2,0.1-0.3
						C48.9,22.5,44.7,21.3,39.9,20.8z"/>
					<path fill="#BAD1CF" d="M32,20.1L32,20.1l0,2.2l0,0l2.2,0.4l11.9,0.6c0,0,4.8,4.6,5.5,0.9c0-0.1,0-0.2,0.1-0.3
						c-2.8-1.4-7-2.6-11.8-3.1C37.1,20.4,34.4,19.9,32,20.1z"/>
					<path fill="#7C7C7C" d="M32,21.8c-1.2,0-13.9-0.2-19.5,2.8c0,0,0.1,1.9,0.5,1.9c0.4,0,17.6-1.6,19-1.7c1.4,0.1,18.5,1.7,19,1.7
						c0.5,0,0.5-1.9,0.5-1.9C45.9,21.6,33.2,21.8,32,21.8z"/>
					<path fill="#666663" d="M32,21.8L32,21.8l0,3l0,0c1.4,0.1,18.5,1.7,19,1.7c0.5,0,0.5-1.9,0.5-1.9C45.9,21.6,33.2,21.8,32,21.8z
						"/>
					<path fill="#DDEDED" d="M11.1,49c-0.4-0.6-0.7-1.1-0.9-1.5c-0.3-0.5-0.5-1-0.7-1.6c-0.1,2,3.9,7.4,4.2,7.7
						c0.3,0.2,0.9,0,1.3-0.1C13.5,52.7,12.1,50.6,11.1,49z"/>
					<path fill="#1C1C1B" d="M10.2,47.3c-0.3-0.5-0.5-1-0.7-1.6c-0.1,2,3.9,7.4,4.2,7.7c0.3,0.3,0.7,0.1,1.2,0
						C12.7,52,10.8,48.5,10.2,47.3z"/>
					<g>
						<path fill="#DDEDED" d="M14.5,45.6l-0.3-0.4c0,0,1.1-0.6,1.8-0.7L16,45c0,0-0.5,0.1-0.8,0.2C14.8,45.4,14.5,45.6,14.5,45.6z"
							/>
						<path fill="#DDEDED" d="M13.9,44.8l-0.3-0.4c0,0,1.1-0.6,1.8-0.7l-0.1,0.4c0,0-0.4,0.1-0.8,0.2C14.2,44.6,13.9,44.8,13.9,44.8
							z"/>
						<path fill="#DDEDED" d="M13.3,44L13,43.6c0,0,1.1-0.6,1.8-0.7l-0.1,0.4c0,0-0.5,0.1-0.8,0.2C13.6,43.8,13.3,44,13.3,44z"/>
						<path fill="#DDEDED" d="M12.7,43.2l-0.3-0.4c0,0,1.1-0.6,1.8-0.7l-0.1,0.4c0,0-0.4,0.1-0.8,0.2C13,43,12.7,43.2,12.7,43.2z"/>
						<path fill="#DDEDED" d="M12.1,42.3L11.8,42c0,0,1.1-0.6,1.8-0.7l-0.1,0.4c0,0-0.5,0.1-0.8,0.2C12.4,42.2,12.1,42.3,12.1,42.3z
							"/>
						<path fill="#DDEDED" d="M11.5,41.5l-0.3-0.4c0,0,1.1-0.6,1.8-0.7l0,0.4c0,0-0.5,0.1-0.8,0.2C11.8,41.3,11.5,41.5,11.5,41.5z"
							/>
						<path fill="#DDEDED" d="M10.9,40.7l-0.3-0.4c0,0,1.1-0.6,1.8-0.7l-0.1,0.4c0,0-0.4,0.1-0.8,0.2C11.2,40.5,10.9,40.7,10.9,40.7
							z"/>
					</g>
					<path fill="#494948" d="M48.1,33.3c-0.6-0.7-0.7-0.9-0.6-1.4c0.1-0.5,1.3-3.1,1.7-3.8c0.4-0.7,1.1-0.4,1.1-0.4
						c-0.1-0.8,0.2-1.2,0.2-1.2L50,26.1C45.6,23.8,33,23.7,32,23.7l0,0c0,0,0,0,0,0s0,0,0,0l0,0c-1,0-13.6,0.1-17.9,2.4l-0.5,0.4
						c0,0,0.4,0.4,0.2,1.2c0,0,0.7-0.3,1.1,0.4c0.4,0.7,1.6,3.3,1.7,3.8c0.1,0.5,0,0.7-0.6,1.4c-0.6,0.7-1.9,2-1.9,2
						s-0.4,0.5-0.3,0.9c0.1,0.4,0.7,3.1,0.7,3.1s0.5,0.9,0.7,0.9c0.2,0,0.8-0.5,1.3-1.2s0.4-3.2,1-4.2c0.5-1,1-1.1,2.8-1.7
						c1.8-0.7,3.3-1.5,5.1-3.5c1.8-2,4-3.8,6.8-4.2c2.8,0.4,5,2.2,6.8,4.2c1.9,2,3.3,2.9,5.1,3.5c1.8,0.7,2.2,0.8,2.8,1.7
						c0.5,1,0.5,3.5,0.9,4.2c0.5,0.7,1.1,1.2,1.3,1.2c0.2,0,0.7-0.9,0.7-0.9s0.6-2.6,0.7-3.1c0.1-0.4-0.3-0.9-0.3-0.9
						S48.8,34,48.1,33.3z"/>
					<path fill="#383836" d="M50,26.1C45.6,23.8,33,23.7,32,23.7l0,0c0,0,0,0,0,0h0v1.6c0,0,0,0,0,0c2.8,0.4,5,2.2,6.8,4.2
						c1.9,2,3.3,2.9,5.1,3.5c1.8,0.7,2.2,0.8,2.8,1.7c0.5,1,0.5,3.5,0.9,4.2c0.5,0.7,1.1,1.2,1.3,1.2c0.2,0,0.7-0.9,0.7-0.9
						s0.6-2.6,0.7-3.1c0.1-0.4-0.3-0.9-0.3-0.9s-1.3-1.3-1.9-2c-0.6-0.7-0.7-0.9-0.6-1.4c0.1-0.5,1.3-3.1,1.7-3.8
						c0.4-0.7,1.1-0.4,1.1-0.4c-0.1-0.8,0.2-1.2,0.2-1.2L50,26.1z"/>
					<path fill="#5E5E5E" d="M13.7,26.8c0.2,0,0.4,0.2,0.5,0.5c0,0.1,0.1,0.2,0.2,0.4c0.1,0.1,0.3,0.2,0.4,0.4
						c0.4,0.7,1.6,3.3,1.7,3.8c0.1,0.5,0,0.7-0.6,1.4c-0.6,0.7-1.9,2-1.9,2s-0.4,0.5-0.3,0.9c0.1,0.4,0.7,3.1,0.7,3.1s0,0,0,0
						c0,0,0.1,0,0.1,0c0.2,0,0.8-0.5,1.3-1.2c0.5-0.7,0.4-2.8,1-3.8c0.5-1,1.6-0.8,3.4-1.5c1.8-0.7,3.1-1.5,5-3.4
						c1.9-2,3.6-4.6,6.4-5"/>
				</g>
				<g>
					<path fill="#6B6B6B" d="M15,36.1c-0.1,0.2-0.3,0.6-0.5,0.5c-0.2-0.1-0.2-0.5-0.1-0.7c0.1-0.2,0.3-0.4,0.5-0.3
						C15,35.6,15.1,35.9,15,36.1z"/>
					
						<ellipse transform="matrix(0.9438 0.3306 -0.3306 0.9438 12.7253 -2.8243)" fill="#1C1C1B" cx="14.7" cy="36" rx="0.3" ry="0.5"/>
				</g>
				<g>
					<path fill="#6B6B6B" d="M15.6,35.2c-0.1,0.2-0.2,0.4-0.3,0.3c-0.1,0-0.2-0.3-0.1-0.5c0.1-0.2,0.2-0.3,0.3-0.2
						C15.6,34.9,15.6,35.1,15.6,35.2z"/>
					
						<ellipse transform="matrix(0.9425 0.3343 -0.3343 0.9425 12.6375 -3.1027)" fill="#1C1C1B" cx="15.3" cy="35.2" rx="0.2" ry="0.3"/>
				</g>
			</g>
			<g>
				<g>
					<path fill="#E7F2F2" d="M52.9,49c0.4-0.6,0.7-1.1,0.9-1.5c0.3-0.5,0.5-1,0.7-1.6c0.1,2-3.9,7.4-4.2,7.7c-0.3,0.2-0.9,0-1.3-0.1
						C50.5,52.7,51.9,50.6,52.9,49z"/>
					<path fill="#1C1C1B" d="M53.8,47.3c0.3-0.5,0.5-1,0.7-1.6c0.1,2-3.9,7.4-4.2,7.7c-0.3,0.3-0.7,0.1-1.2,0
						C51.3,52,53.2,48.5,53.8,47.3z"/>
					<g>
						<path fill="#CDE0DF" d="M49.5,45.6l0.3-0.4c0,0-1.1-0.6-1.8-0.7l0,0.4c0,0,0.5,0.1,0.8,0.2C49.2,45.4,49.5,45.6,49.5,45.6z"/>
						<path fill="#CDE0DF" d="M50.1,44.8l0.3-0.4c0,0-1.1-0.6-1.8-0.7l0.1,0.4c0,0,0.4,0.1,0.8,0.2C49.8,44.6,50.1,44.8,50.1,44.8z"
							/>
						<path fill="#CDE0DF" d="M50.7,44l0.3-0.4c0,0-1.1-0.6-1.8-0.7l0.1,0.4c0,0,0.5,0.1,0.8,0.2C50.4,43.8,50.7,44,50.7,44z"/>
						<path fill="#CDE0DF" d="M51.3,43.2l0.3-0.4c0,0-1.1-0.6-1.8-0.7l0.1,0.4c0,0,0.4,0.1,0.8,0.2S51.3,43.2,51.3,43.2z"/>
						<path fill="#CDE0DF" d="M51.9,42.3l0.3-0.4c0,0-1.1-0.6-1.8-0.7l0.1,0.4c0,0,0.5,0.1,0.8,0.2C51.6,42.2,51.9,42.3,51.9,42.3z"
							/>
						<path fill="#CDE0DF" d="M52.5,41.5l0.3-0.4c0,0-1.1-0.6-1.8-0.7l0.1,0.4c0,0,0.4,0.1,0.8,0.2C52.2,41.3,52.5,41.5,52.5,41.5z"
							/>
						<path fill="#CDE0DF" d="M53.1,40.7l0.3-0.4c0,0-1.1-0.6-1.8-0.7l0.1,0.4c0,0,0.5,0.1,0.8,0.2C52.8,40.5,53.1,40.7,53.1,40.7z"
							/>
					</g>
					<path fill="#5E5E5E" d="M32,21.8c-1.2,0-13.9-0.2-19.5,2.8c0,0,0,0.3,0,0.6c5.5-3,17.8-2.8,19.4-2.8v0c0,0,0,0,0.1,0
						c0.1,0,0.1,0,0.1,0v0c1.6,0,13.9-0.1,19.4,2.8c0-0.3,0-0.6,0-0.6C45.9,21.6,33.2,21.8,32,21.8z"/>
					<path fill="#494947" d="M32,21.8L32,21.8l0,0.6h0c0.1,0,0.1,0,0.1,0v0c1.6,0,13.9-0.1,19.4,2.8c0-0.3,0-0.6,0-0.6
						C45.9,21.6,33.2,21.8,32,21.8z"/>
					<path fill="#494948" d="M50.3,26.8c-0.2,0-0.4,0.2-0.5,0.5c0,0.1-0.1,0.2-0.2,0.4c-0.2,0.1-0.3,0.2-0.4,0.4
						c-0.4,0.7-1.6,3.3-1.7,3.8c-0.1,0.5,0,0.7,0.6,1.4c0.6,0.7,1.9,2,1.9,2s0.4,0.5,0.3,0.9c-0.1,0.4-0.7,3.1-0.7,3.1s0,0,0,0
						c0,0-0.1,0-0.1,0c-0.2,0-0.8-0.5-1.3-1.2c-0.5-0.7-0.4-2.8-1-3.8c-0.5-1-1.6-0.8-3.4-1.5c-1.8-0.7-3.1-1.5-5-3.4
						c-1.9-2-3.6-4.6-6.4-5"/>
					<path fill="#383836" d="M48.2,25.9c-0.2,0.2-0.4,0-0.4,0c-7.9-2.1-15.3-1.8-15.8-1.7c-0.5,0-7.9-0.3-15.8,1.7
						c0,0-0.3,0.2-0.4,0c-0.2-0.2-1,0.2-1,0.2s0.2,2.2,1.1,4.1c0.9,1.9,1.8,2.3,3.8,2c2.3-0.3,4-2.1,6-3.8c1.9-1.7,3.7-3,6.3-3
						c2.6,0,4.4,1.3,6.3,3c2,1.7,3.6,3.5,6,3.8c2,0.3,2.8-0.1,3.8-2c0.9-1.9,1.1-4.1,1.1-4.1S48.4,25.7,48.2,25.9z"/>
					<path fill="#262624" d="M48.2,25.9c-0.2,0.2-0.4,0-0.4,0c-7.9-2.1-15.3-1.8-15.8-1.7c0,0,0,0,0,0l0,1.1c0,0,0,0,0,0
						c2.6,0,4.4,1.3,6.3,3c2,1.7,3.6,3.5,6,3.8c2,0.3,2.8-0.1,3.8-2c0.9-1.9,1.1-4.1,1.1-4.1S48.4,25.7,48.2,25.9z"/>
					<path fill="#1C1C1B" d="M48.2,25.9c-0.2,0.2-0.4,0-0.4,0c-7.9-2.1-15.3-1.8-15.8-1.7c-0.5,0-7.9-0.3-15.8,1.7
						c0,0-0.3,0.2-0.4,0c0,0,0,0-0.1,0c0.1,0.7,0.4,2.3,1.1,3.7c0.9,1.9,1.8,2.3,3.8,2c0.8-0.1,1.6-0.4,2.3-0.8
						c0.9-0.7,1.8-1.6,2.8-2.4c0.8-0.7,1.7-1.4,2.5-1.9c1.2-0.8,2.3-1.4,3.8-1.6c1.4,0.2,2.6,0.8,3.8,1.6c0.9,0.5,1.7,1.2,2.5,1.9
						c1,0.9,1.9,1.7,2.8,2.4c0.7,0.4,1.4,0.7,2.3,0.8c2,0.3,2.8-0.1,3.8-2C47.9,28.1,48.2,26.6,48.2,25.9
						C48.3,25.9,48.3,25.9,48.2,25.9z"/>
					<path d="M47.8,25.9c-7.9-2.1-15.3-1.8-15.8-1.7c0,0,0,0,0,0l0,0.6c0,0,0,0,0,0c1.5,0.2,2.6,0.8,3.8,1.6
						c0.9,0.5,1.7,1.2,2.5,1.9c1,0.9,1.9,1.7,2.8,2.4c0.7,0.4,1.4,0.7,2.3,0.8c2,0.3,2.8-0.1,3.8-2c0.7-1.4,1-3,1.1-3.7
						c0,0,0,0-0.1,0C48.1,26.1,47.8,25.9,47.8,25.9z"/>
					<path fill="#CDE0DF" d="M46,34.8c-0.1-0.8-0.7-1-0.7-1l-1.3-0.6c-3.1-1.2-5.1-3.7-5.1-3.7c-3.8-3.9-6.3-4.1-6.8-4.1
						c-0.6,0-3.1,0.2-6.8,4.1c0,0-2.1,2.5-5.1,3.7l-1.3,0.6c0,0-0.6,0.2-0.7,1c-0.1,0.8-0.9,3.3,0,4.6c0.9,1.3,3,4,3.5,4.4
						c0.6,0.6,1.4,0.8,2.8-0.8c1.3-1.5,5.5-6.1,7.7-6.2c2.2,0.1,6.4,4.7,7.7,6.2c1.4,1.6,2.2,1.3,2.8,0.8c0.5-0.4,2.6-3.2,3.5-4.4
						C46.9,38.1,46.1,35.6,46,34.8z"/>
					<path fill="#BAD1CF" d="M45.3,33.8l-1.3-0.6c-3.1-1.2-5.1-3.7-5.1-3.7c-3.8-3.9-6.3-4.1-6.8-4.1h0v11.4l0,0
						c2.2,0.1,6.4,4.7,7.7,6.2c1.4,1.6,2.2,1.3,2.8,0.8c0.5-0.4,2.6-3.2,3.5-4.4c0.9-1.3,0.1-3.8,0-4.6C45.9,34,45.3,33.8,45.3,33.8
						z"/>
					<path fill="#F9F9F9" d="M46,34.8c-0.1-0.8-0.7-1-0.7-1l-1.3-0.6c-2.7-0.8-5.1-3.7-5.1-3.7c-3.8-3.9-6.3-4.3-6.8-4.2
						c-0.6,0-3.1,0.3-6.8,4.2c0,0-2.4,2.9-5.1,3.7l-1.3,0.6c0,0-0.6,0.2-0.7,1c-0.1,0.8-0.9,3.3,0,4.6c0.6,0.8,1.7,2.3,2.5,3.3
						c0.1,0.1,0.1,0.1,0.1,0.1c0.7,0.6,1.4,0.8,2.8-0.8c1.3-1.5,6.3-6.7,8.6-7c2.3,0.3,7.2,5.5,8.6,7c1.4,1.6,2.2,1.3,2.8,0.8
						c0,0,0.1-0.1,0.1-0.1c0.8-1,1.9-2.5,2.5-3.3C46.9,38.1,46.1,35.6,46,34.8z"/>
					<path fill="#E7F2F2" d="M45.3,33.8l-1.3-0.6c-2.7-0.8-5.1-3.7-5.1-3.7c-3.8-3.9-6.3-4.1-6.8-4.1h0v9.6c0,0,0,0,0,0
						c2.3,0.3,7.2,5.5,8.6,7c1.4,1.6,2.2,1.3,2.8,0.8c0,0,0.1-0.1,0.1-0.1c0.8-1,1.9-2.5,2.5-3.3c0.9-1.3,0.1-3.8,0-4.6
						C45.9,34,45.3,33.8,45.3,33.8z"/>
				</g>
				<g>
					<path fill="#6B6B6B" d="M49,36.1c0.1,0.2,0.3,0.6,0.5,0.5c0.2-0.1,0.2-0.5,0.1-0.7c-0.1-0.2-0.3-0.4-0.5-0.3
						C49,35.6,48.9,35.9,49,36.1z"/>
					<path fill="#1C1C1B" d="M49,36.1c0.1,0.2,0.3,0.4,0.5,0.3s0.3-0.3,0.2-0.6c-0.1-0.2-0.3-0.4-0.5-0.3C49,35.6,48.9,35.9,49,36.1
						z"/>
				</g>
				<g>
					<path fill="#6B6B6B" d="M48.4,35.2c0.1,0.2,0.2,0.4,0.3,0.3c0.1,0,0.2-0.3,0.1-0.5c-0.1-0.2-0.2-0.3-0.3-0.2
						S48.4,35.1,48.4,35.2z"/>
					
						<ellipse transform="matrix(-0.943 0.3329 -0.3329 -0.943 106.2602 52.1299)" fill="#1C1C1B" cx="48.7" cy="35.2" rx="0.2" ry="0.3"/>
				</g>
			</g>
		</g>
	</g>
	<g>
		<g>
			<path fill="#6D918C" d="M48.5,53.9c-0.5,0.7-3,0.1-4.6-1.1c-1.5-1.2-1.5-2.7-1-3.3c0.5-0.7,2.2-0.2,3.7,1
				C48.2,51.7,49,53.2,48.5,53.9z"/>
			<path fill="#50726C" d="M42.9,49.5c-0.5,0.7-0.5,2.1,1,3.3c1.5,1.2,4,1.7,4.6,1.1"/>
		</g>
		<g>
			<path fill="#3A544F" d="M47.5,53.3c-0.4,0.4-2,0.1-3-0.7c-1-0.8-1-1.8-0.7-2.2c0.4-0.4,1.5-0.2,2.5,0.7
				C47.3,51.8,47.8,52.8,47.5,53.3z"/>
			<path fill="#314C47" d="M47.5,53.3c-0.4,0.4-2,0.1-3-0.7c-1-0.8-1-1.8-0.7-2.2"/>
		</g>
	</g>
	<path fill="#F9F9F9" d="M43.8,48.1c0,0,5.4-8.3,5.8-8.8c0,0-3.4,9-4.6,9c-1.1,0-1.9,0.5-1.9,0.5L43.8,48.1z"/>
</g>
</svg>
