<?xml version="1.0" encoding="utf-8"?>
<!-- Generator: Adobe Illustrator 16.0.0, SVG Export Plug-In . SVG Version: 6.00 Build 0)  -->
<!DOCTYPE svg PUBLIC "-//W3C//DTD SVG 1.1//EN" "http://www.w3.org/Graphics/SVG/1.1/DTD/svg11.dtd">
<svg version="1.1" id="Layer_1" xmlns="http://www.w3.org/2000/svg" xmlns:xlink="http://www.w3.org/1999/xlink" x="0px" y="0px"
	 width="64px" height="64px" viewBox="0 0 64 64" enable-background="new 0 0 64 64" xml:space="preserve">
<g>
	<path fill="#4A514F" d="M48.8,17.9c0-9.3-7.5-16.8-16.8-16.8S15.2,8.6,15.2,17.9c0,6.1,3.2,11.4,8,14.4L18.4,63h27.2l-4.8-30.7
		C45.6,29.3,48.8,24,48.8,17.9z"/>
	<path fill="#1A1E1E" d="M45.6,62.9l-4.8-30.7c4.8-3,8-8.3,8-14.3c0-9.3-7.5-16.8-16.8-16.8S15.2,8.6,15.2,17.9"/>
	<path fill="#F7F6ED" d="M32,25.8c7.3,0,13.3-3.8,14.5-8.8h0c0,0,0,0,0,0c0,0,0,0,0,0h0c-1.2-5-7.2-8.8-14.5-8.8
		c-7.3,0-13.3,3.8-14.5,8.8h0c0,0,0,0,0,0c0,0,0,0,0,0h0C18.7,22,24.7,25.8,32,25.8z"/>
	<path fill="#C9C6B1" d="M18,17h-0.5c0,0,0,0,0,0c0,0,0,0,0,0h0c1.2,5,7.2,8.8,14.5,8.8c7.3,0,13.3-3.8,14.5-8.8h0c0,0,0,0,0,0
		c0,0,0,0,0,0H46"/>
	<g>
		<circle fill="#00A1AD" cx="32" cy="17.4" r="6.9"/>
		<path fill="#027F89" d="M32,10.6c3.8,0,6.9,3.1,6.9,6.9s-3.1,6.9-6.9,6.9"/>
		<circle fill="#5E6664" cx="32" cy="17.4" r="3"/>
		<path fill="#2F423F" d="M34.1,15.3c1.2,1.2,1.2,3.1,0,4.3s-3.1,1.2-4.3,0"/>
		<circle fill="#FFFFFF" cx="30.1" cy="15.2" r="1.5"/>
		<circle fill="#FFFFFF" cx="34.2" cy="19.4" r="0.7"/>
	</g>
</g>
</svg>
