<?xml version="1.0" encoding="utf-8"?>
<!-- Generator: Adobe Illustrator 16.0.0, SVG Export Plug-In . SVG Version: 6.00 Build 0)  -->
<!DOCTYPE svg PUBLIC "-//W3C//DTD SVG 1.1//EN" "http://www.w3.org/Graphics/SVG/1.1/DTD/svg11.dtd">
<svg version="1.1" id="Layer_1" xmlns="http://www.w3.org/2000/svg" xmlns:xlink="http://www.w3.org/1999/xlink" x="0px" y="0px"
	 width="64px" height="64px" viewBox="0 0 64 64" enable-background="new 0 0 64 64" xml:space="preserve">
<g>
	<path fill="#B4C1C1" d="M63,32c0,7.4-4.2,13.5-9.5,13.5c-5.2,0-12-6-12-13.5c0-7.4,6-15,11.2-15C58,17,63,24.6,63,32z"/>
	<path fill="#20E092" d="M41.5,20.8h-1.1h-7.6H7.3c-0.2,0-0.3,0-0.5,0c-0.1,0-1,0-1.1,0c-2.7,0-4.7,2.8-4.7,9c0,3.7,1,7.7,2.4,10.3
		c1.5,4,5.3,6.8,9.8,6.8h10.1c5.7,0,8.9-3,10-7.2c1.1-3.2,5.1-5.6,10-5.9c2.9-0.7,5-3.3,5-6.5C48.2,23.8,45.2,20.8,41.5,20.8z"/>
	<path fill="#1AD3A2" d="M38.3,21.9h-1.1h-7.6H4.1c-0.1,0-0.3,0-0.4,0C2.2,23.3,1,25.9,1,29.8c0,3.7,1,7.7,2.4,10.3
		c1.5,4,6.2,6.7,9.8,6.8h10.1c0.9,0,1.7-0.1,2.4-0.2c2.3-1.3,3.7-3.3,4.4-5.8c0.9-2.6,3.8-4.8,7.5-5.6c1.3-0.7,2.9-1.1,4.6-1.3
		c1.7-1.2,2.8-3.2,2.8-5.4C45,24.9,42,21.9,38.3,21.9z"/>
	<path fill="#15CCA0" d="M36,22v12.8c0,0.3,0.5,0.6,1.2,0.8c1.7-0.9,3.8-1.5,6.1-1.7c0.7-0.2,1.4-0.5,1.9-0.9V22c0,0,0-0.1,0-0.1
		c-1-0.7-2.3-1-3.6-1h-1.1h-2.7C37,20.8,36,21.3,36,22z"/>
	<path fill="#15BAA2" d="M38.3,21.9h-1.1H36c0,0,0,0,0,0.1v12.8c0,0.3,0.5,0.6,1,0.8c0.2,0,0.4-0.1,0.6-0.2c0.3-0.1,0.5-0.3,0.8-0.4
		c0,0,0.1,0,0.1-0.1c0.4-0.2,0.9-0.3,1.4-0.5c0.1,0,0.2-0.1,0.4-0.1c0.3-0.1,0.7-0.2,1-0.2c0.2,0,0.4-0.1,0.6-0.1
		c0.1,0,0.2,0,0.4-0.1c1.7-1.2,2.8-3.2,2.8-5.4C45,24.9,42,21.9,38.3,21.9z"/>
	<path fill="#B4C1C1" d="M48.9,34.8c0,0.7-0.5,1.2-1.2,1.2h-5.3c-0.7,0-2.7-0.5-2.7-1.2V22c0-0.7,1.1-1.2,1.7-1.2h6.3
		c0.7,0,1.2,0.5,1.2,1.2V34.8z"/>
	<path fill="#CADBD9" d="M51.4,34.8c0,0.7-0.5,1.2-1.2,1.2h-5.3c-0.7,0-2.7-0.5-2.7-1.2V22c0-0.7,1.1-1.2,1.7-1.2h6.3
		c0.6,0,1.2,0.5,1.2,1.2V34.8z"/>
	<ellipse fill="#CADBD9" cx="53.5" cy="32" rx="9.5" ry="13.5"/>
	<path fill="#C2D3D2" d="M53.5,18.6c5.2,0,9.5,6,9.5,13.5c0,7.4-4.2,13.5-9.5,13.5"/>
	<g>
		<g>
			<path fill="#15CCA0" d="M25.4,41.5h-6.8c-0.3,0-0.5-0.2-0.5-0.5v-2.8h-4.2c-0.3,0-0.5-0.2-0.5-0.5v-7.2H9.2
				c-0.3,0-0.5-0.2-0.5-0.5s0.2-0.5,0.5-0.5h4.7c0.3,0,0.5,0.2,0.5,0.5v7.2h4.2c0.3,0,0.5,0.2,0.5,0.5v2.8h6.3
				c0.3,0,0.5,0.2,0.5,0.5C25.9,41.3,25.7,41.5,25.4,41.5z"/>
		</g>
		<g>
			<path fill="#15CCA0" d="M20.6,30.1c-1.3,0-2.3-1-2.3-2.3s1-2.3,2.3-2.3c1.3,0,2.3,1,2.3,2.3S21.9,30.1,20.6,30.1z M20.6,26.5
				c-0.7,0-1.3,0.6-1.3,1.3s0.6,1.3,1.3,1.3s1.3-0.6,1.3-1.3S21.4,26.5,20.6,26.5z"/>
		</g>
		<g>
			<path fill="#15CCA0" d="M8.9,37.7H6.2c-0.3,0-0.5-0.2-0.5-0.5v-2.7c0-0.3,0.2-0.5,0.5-0.5h2.7c0.3,0,0.5,0.2,0.5,0.5v2.7
				C9.4,37.5,9.1,37.7,8.9,37.7z M6.7,36.7h1.7v-1.7H6.7V36.7z"/>
		</g>
	</g>
	<g>
		<g>
			<path fill="#2CFFA4" d="M24.8,41H18c-0.3,0-0.5-0.2-0.5-0.5v-2.8h-4.2c-0.3,0-0.5-0.2-0.5-0.5V30H8.7c-0.3,0-0.5-0.2-0.5-0.5
				S8.4,29,8.7,29h4.7c0.3,0,0.5,0.2,0.5,0.5v7.2H18c0.3,0,0.5,0.2,0.5,0.5V40h6.3c0.3,0,0.5,0.2,0.5,0.5C25.3,40.7,25.1,41,24.8,41
				z"/>
		</g>
		<g>
			<path fill="#2CFFA4" d="M20.1,29.5c-1.3,0-2.3-1-2.3-2.3c0-1.3,1-2.3,2.3-2.3c1.3,0,2.3,1,2.3,2.3C22.4,28.5,21.3,29.5,20.1,29.5
				z M20.1,25.9c-0.7,0-1.3,0.6-1.3,1.3c0,0.7,0.6,1.3,1.3,1.3c0.7,0,1.3-0.6,1.3-1.3C21.4,26.5,20.8,25.9,20.1,25.9z"/>
		</g>
		<g>
			<path fill="#2CFFA4" d="M8.3,37.1H5.6c-0.3,0-0.5-0.2-0.5-0.5V34c0-0.3,0.2-0.5,0.5-0.5h2.7c0.3,0,0.5,0.2,0.5,0.5v2.7
				C8.8,36.9,8.6,37.1,8.3,37.1z M6.1,36.1h1.7v-1.7H6.1V36.1z"/>
		</g>
	</g>
	<path fill="#D31160" d="M48.6,31.2c0,1.1-0.9,2-2,2l0,0c-1.1,0-2-0.9-2-2v-5.5c0-1.1,0.9-2,2-2l0,0c1.1,0,2,0.9,2,2V31.2z"/>
	<polygon fill="#C2D3D2" points="60.1,37.8 55.8,42.1 45.5,31.8 47.8,25.5 	"/>
	<path fill="#B20059" d="M46.9,23.7c-1,0.1-1.7,1-1.7,2v5.5c0,1,0.7,1.8,1.7,2c1-0.2,1.7-1,1.7-2v-5.5
		C48.6,24.6,47.8,23.8,46.9,23.7z"/>
	<path fill="#B4C1C1" d="M51.9,30.7c0,0.2-0.2,0.3-0.4,0.3l0,0c-0.2,0-0.4-0.2-0.4-0.3V26c0-0.2,0.2-0.3,0.4-0.3l0,0
		c0.2,0,0.4,0.2,0.4,0.3V30.7z"/>
	<path fill="#B4C1C1" d="M53.9,30.7c0,0.2-0.2,0.3-0.3,0.3l0,0c-0.2,0-0.4-0.2-0.4-0.3V26c0-0.2,0.2-0.3,0.4-0.3l0,0
		c0.2,0,0.3,0.2,0.3,0.3V30.7z"/>
	<path fill="#B4C1C1" d="M55.8,30.7c0,0.2-0.2,0.3-0.3,0.3l0,0c-0.2,0-0.3-0.2-0.3-0.3V26c0-0.2,0.2-0.3,0.3-0.3l0,0
		c0.2,0,0.3,0.2,0.3,0.3V30.7z"/>
</g>
</svg>
