<?xml version="1.0" encoding="utf-8"?>
<!-- Generator: Adobe Illustrator 16.0.0, SVG Export Plug-In . SVG Version: 6.00 Build 0)  -->
<!DOCTYPE svg PUBLIC "-//W3C//DTD SVG 1.1//EN" "http://www.w3.org/Graphics/SVG/1.1/DTD/svg11.dtd">
<svg version="1.1" id="Layer_1" xmlns="http://www.w3.org/2000/svg" xmlns:xlink="http://www.w3.org/1999/xlink" x="0px" y="0px"
	 width="64px" height="64px" viewBox="0 0 64 64" enable-background="new 0 0 64 64" xml:space="preserve">
<g>
	<path fill="#DBD8C3" d="M51,55.7V3.2c0-1-1.2-2.2-2.2-2.2H15.2c-1,0-2.2,1.2-2.2,2.2v57.6c0,1,1.2,2.2,2.2,2.2h28.5L51,55.7z"/>
	<path fill="#C6C3AF" d="M44,62.5l7-6.8V3.2c0-1-1.2-2.2-2.2-2.2H44"/>
	<g>
		<rect x="16" y="5" fill="#18AA8E" width="32" height="25"/>
		<polyline fill="#0A997D" points="16,5 48,5 48,30 		"/>
	</g>
	<polygon fill="#C6C3AF" points="48.7,57.9 24.8,33.9 16.6,42.2 37.3,63 43.7,63 	"/>
	<polygon fill="#C6C3AF" points="51,39.1 46.9,35.1 42.7,39.3 51,47.5 	"/>
	<polygon fill="#C6C3AF" points="40.9,40.9 36.8,45.1 49.2,57.4 51,55.7 51,50.7 	"/>
	<g>
		<g>
			<circle fill="#EA1F0A" cx="38.8" cy="43" r="3"/>
			
				<ellipse transform="matrix(0.7071 -0.7071 0.7071 0.7071 -18.273 38.5961)" fill="#EF683F" cx="37.5" cy="41.4" rx="1.1" ry="0.5"/>
			<path fill="#AA2011" d="M40.9,40.9c1.2,1.2,1.2,3,0,4.2c-1.2,1.2-3,1.2-4.2,0"/>
		</g>
		<g>
			<circle fill="#EA1F0A" cx="44.6" cy="37.2" r="3"/>
			
				<ellipse transform="matrix(0.7071 -0.7071 0.7071 0.7071 -12.4605 41.0037)" fill="#EF683F" cx="43.3" cy="35.5" rx="1.1" ry="0.5"/>
			<path fill="#AA2011" d="M46.7,35.1c1.2,1.2,1.2,3,0,4.2c-1.2,1.2-3,1.2-4.2,0"/>
		</g>
	</g>
	<g>
		<g>
			<path fill="#353A3A" d="M28.7,38H25v-3.7c0-0.4-0.3-0.7-0.7-0.7h-2.7c-0.4,0-0.7,0.3-0.7,0.7V38h-3.7c-0.4,0-0.7,0.3-0.7,0.7v2.7
				c0,0.4,0.3,0.7,0.7,0.7h3.7v3.7c0,0.4,0.3,0.7,0.7,0.7h2.7c0.4,0,0.7-0.3,0.7-0.7v-3.7h3.7c0.4,0,0.7-0.3,0.7-0.7v-2.7
				C29.4,38.4,29.1,38,28.7,38z"/>
			<path fill="#1A1E1E" d="M16.4,41.5c0,0.4,0.3,0.7,0.7,0.7h3.7v3.7c0,0.4,0.3,0.7,0.7,0.7h2.7c0.4,0,0.7-0.3,0.7-0.7v-3.7h3.7
				c0.4,0,0.7-0.3,0.7-0.7v-2.7c0-0.4-0.3-0.7-0.7-0.7H25"/>
			<circle fill="#353A3A" cx="22.9" cy="40.1" r="0.8"/>
		</g>
		<path fill="#5B6060" d="M24,34.7c0,0.2-0.1,0.3-0.3,0.3h-2.4c-0.2,0-0.3-0.1-0.3-0.3v-0.4c0-0.2,0.1-0.3,0.3-0.3h2.4
			c0.2,0,0.3,0.1,0.3,0.3V34.7z"/>
		<g>
			<path fill="#5B6060" d="M20,39.7c0,0.2-0.1,0.3-0.3,0.3h-2.4c-0.2,0-0.3-0.1-0.3-0.3v-0.4c0-0.2,0.1-0.3,0.3-0.3h2.4
				c0.2,0,0.3,0.1,0.3,0.3V39.7z"/>
			<path fill="#5B6060" d="M29,39.7c0,0.2-0.1,0.3-0.3,0.3h-2.4c-0.2,0-0.3-0.1-0.3-0.3v-0.4c0-0.2,0.1-0.3,0.3-0.3h2.4
				c0.2,0,0.3,0.1,0.3,0.3V39.7z"/>
		</g>
	</g>
	<g>
		<path fill="#F9A12C" d="M21.7,57.2c-0.1-0.1-0.1-0.2,0-0.3l5.7-5.7c0.1-0.1,0.2-0.1,0.3,0l1.4,1.4c0.1,0.1,0.1,0.2,0,0.3l-5.7,5.7
			c-0.1,0.1-0.2,0.1-0.3,0L21.7,57.2z"/>
		<path fill="#E88813" d="M21.7,57.2c-0.1-0.1-0.1-0.2,0-0.3l5.7-5.7c0.1-0.1,0.2-0.1,0.3,0l1.4,1.4c0.1,0.1,0.1,0.2,0,0.3"/>
	</g>
	<g>
		<path fill="#F9A12C" d="M27.7,57.2c-0.1-0.1-0.1-0.2,0-0.3l5.7-5.7c0.1-0.1,0.2-0.1,0.3,0l1.4,1.4c0.1,0.1,0.1,0.2,0,0.3l-5.7,5.7
			c-0.1,0.1-0.2,0.1-0.3,0L27.7,57.2z"/>
		<path fill="#E88813" d="M27.7,57.2c-0.1-0.1-0.1-0.2,0-0.3l5.7-5.7c0.1-0.1,0.2-0.1,0.3,0l1.4,1.4c0.1,0.1,0.1,0.2,0,0.3"/>
	</g>
	<rect x="15" y="30" fill="#C6C3AF" width="34" height="2"/>
</g>
</svg>
