<?xml version="1.0" encoding="utf-8"?>
<!-- Generator: Adobe Illustrator 16.0.0, SVG Export Plug-In . SVG Version: 6.00 Build 0)  -->
<!DOCTYPE svg PUBLIC "-//W3C//DTD SVG 1.1//EN" "http://www.w3.org/Graphics/SVG/1.1/DTD/svg11.dtd">
<svg version="1.1" id="Layer_1" xmlns="http://www.w3.org/2000/svg" xmlns:xlink="http://www.w3.org/1999/xlink" x="0px" y="0px"
	 width="64px" height="64px" viewBox="0 0 64 64" enable-background="new 0 0 64 64" xml:space="preserve">
<g>
	<g>
		<ellipse transform="matrix(0.7071 0.7071 -0.7071 0.7071 43.7506 15.115)" fill="#545354" cx="3.6" cy="60.4" rx="3.1" ry="0.7"/>
		<g>
			<path fill="#EF296B" d="M16.6,39.7c-0.3,0.3-0.7,0.3-0.9,0L6.9,31c-0.3-0.3-0.3-0.7,0-0.9l0,0c0.3-0.3,0.7-0.3,0.9,0l8.7,8.7
				C16.9,39,16.9,39.4,16.6,39.7L16.6,39.7z"/>
			<path fill="#EF296B" d="M34,57.1c-0.3,0.3-0.7,0.3-0.9,0l-8.7-8.7c-0.3-0.3-0.3-0.7,0-0.9l0,0c0.3-0.3,0.7-0.3,0.9,0l8.7,8.7
				C34.2,56.4,34.2,56.8,34,57.1L34,57.1z"/>
		</g>
		<g>
			<path fill="#C40033" d="M16.6,39.7c-0.1,0.1-0.4-0.1-0.6-0.3l-8.7-8.7C7,30.4,6.9,30.1,6.9,30l0,0C7,30,7.3,30.1,7.6,30.4
				l8.7,8.7C16.5,39.3,16.7,39.6,16.6,39.7L16.6,39.7z"/>
			<path fill="#C40033" d="M34,57.1c-0.1,0.1-0.4-0.1-0.6-0.3L24.6,48c-0.3-0.3-0.4-0.5-0.3-0.6l0,0c0.1-0.1,0.4,0.1,0.6,0.3
				l8.7,8.7C33.9,56.7,34,57,34,57.1L34,57.1z"/>
		</g>
		<path fill="#EF296B" d="M23.8,43.1c-0.6,0.6-1.7,0.6-2.3,0l-0.6-0.6c-0.6-0.6-0.6-1.7,0-2.3L59.7,1.5c0.6-0.6,1.7-0.6,2.3,0
			L62.5,2c0.6,0.6,0.6,1.7,0,2.3L23.8,43.1z"/>
		<path fill="#C40033" d="M23.1,42.5c-0.6,0.6-1.4,0.9-1.8,0.5L21,42.6c-0.4-0.4-0.1-1.2,0.5-1.8L60.3,2.1c0.6-0.6,1.4-0.9,1.8-0.5
			l0.3,0.3c0.4,0.4,0.1,1.2-0.5,1.8L23.1,42.5z"/>
		<path fill="#545354" d="M26.3,49.4c-0.4,0.4-0.5,1-0.9,0.6L14,38.5c-0.4-0.4,0.2-0.5,0.6-0.9l0,0c0.4-0.4,0.5-1,0.9-0.6l11.5,11.5
			C27.3,49,26.7,49,26.3,49.4L26.3,49.4z"/>
		<path fill="#686768" d="M26.9,48.6L15.4,37.1C15.4,37,15.3,37,15.2,37c0,0-0.1,0.1-0.1,0.1c-0.1,0.1-0.2,0.2-0.3,0.3
			c-0.1,0.1-0.1,0.2-0.3,0.3c0,0-0.1,0.1-0.1,0.1c0,0.1,0,0.1,0.1,0.2L26,49.4c0.1,0.1,0.1,0.1,0.2,0.1c0,0,0.1-0.1,0.1-0.1
			c0.1-0.1,0.2-0.2,0.3-0.2c0.1-0.1,0.1-0.2,0.2-0.3c0,0,0.1-0.1,0.1-0.1C27,48.7,27,48.6,26.9,48.6z"/>
		<path fill="#7C7C7C" d="M26.9,48.9c0,0,0.1-0.1,0.1-0.1c0-0.1,0-0.1-0.1-0.2L15.4,37.1C15.4,37,15.3,37,15.2,37
			c0,0-0.1,0.1-0.1,0.1c0,0-0.1,0.1-0.1,0.1c0,0-0.1,0.1-0.1,0.1c0,0-0.1,0.1-0.1,0.1c0,0.1,0,0.1,0.1,0.2l11.5,11.5
			c0.1,0.1,0.1,0.1,0.2,0.1c0,0,0.1-0.1,0.1-0.1c0,0,0.1-0.1,0.1-0.1C26.8,49,26.9,48.9,26.9,48.9z"/>
		<path fill="#7C7C7C" d="M14.6,52.6c-0.6,0.6-1.7,0.6-2.3,0l-0.9-0.9c-0.6-0.6-0.6-1.7,0-2.3l6.3-6.3c0.6-0.6,1.7-0.6,2.3,0
			l0.9,0.9c0.6,0.6,0.6,1.7,0,2.3L14.6,52.6z"/>
		<path fill="#7C7C7C" d="M14.6,52.6c-0.6,0.6-1.7,0.6-2.3,0l-0.9-0.9c-0.6-0.6-0.6-1.7,0-2.3l6.3-6.3c0.6-0.6,1.7-0.6,2.3,0
			l0.9,0.9c0.6,0.6,0.6,1.7,0,2.3L14.6,52.6z"/>
		<path fill="#939393" d="M11.8,49.8l6.3-6.3c0.6-0.6,1.7-0.6,2.3,0L21,44c0,0,0,0,0,0L20,43.1c-0.6-0.6-1.7-0.6-2.3,0l-6.3,6.3
			c-0.6,0.6-0.6,1.7,0,2.3l0.4,0.4C11.2,51.5,11.2,50.5,11.8,49.8z"/>
		<path fill="#686768" d="M17.7,43.1c0.6-0.6,1.7-0.6,2.3,0l0.9,0.9c0.6,0.6,0.6,1.7,0,2.3l-6.3,6.3c-0.6,0.6-1.7,0.6-2.3,0"/>
		<path fill="#545354" d="M17.7,43.1c0.6-0.6,1.7-0.6,2.3,0l0.9,0.9c0.6,0.6,0.6,1.7,0,2.3L18,49.2"/>
		<path fill="#7C7C7C" d="M7.4,61.1c-0.6,0.6-1.7,0.6-2.3,0l-2.2-2.2c-0.6-0.6-0.6-1.7,0-2.3l3.9-3.9c0.6-0.6,1.1-1.2,2.9-1.7
			l3.3,3.3c-0.5,1.8-1.1,2.2-1.7,2.9L7.4,61.1z"/>
		<path fill="#686768" d="M6.8,52.7c0.6-0.6,1.1-1.2,2.9-1.7l3.3,3.3c-0.5,1.8-1.1,2.2-1.7,2.9l-3.9,3.9c-0.6,0.6-1.7,0.6-2.3,0"/>
		<path fill="#545354" d="M6.8,52.7c0.6-0.6,1.1-1.2,2.9-1.7l3.3,3.3c-0.5,1.8-1.1,2.2-1.7,2.9l-2.2,2.2"/>
		<path fill="#7C7C7C" d="M6.5,62.8c-0.2,0.2-0.6,0.2-0.8,0l-4.5-4.5c-0.2-0.2-0.2-0.6,0-0.8L2,56.7c0.2-0.2,0.6-0.2,0.8,0l4.5,4.5
			c0.2,0.2,0.2,0.6,0,0.8L6.5,62.8z"/>
		<path fill="#686768" d="M7.3,62l-0.8,0.8c-0.2,0.2-0.6,0.2-0.8,0l-4.5-4.5c-0.2-0.2-0.2-0.6,0-0.8L2,56.7"/>
		<path fill="#686768" d="M13.2,54.4c-0.1,0.1-0.3,0.1-0.4,0l-3.2-3.2c-0.1-0.1-0.1-0.3,0-0.4l0.5-0.5c0.1-0.1,0.3-0.1,0.4,0
			l3.2,3.2c0.1,0.1,0.1,0.3,0,0.4L13.2,54.4z"/>
		<path fill="#545354" d="M14,53.6c-0.1,0.1-0.3,0.1-0.4,0l-3.2-3.2c-0.1-0.1-0.1-0.3,0-0.4l0.5-0.5c0.1-0.1,0.3-0.1,0.4,0l3.2,3.2
			c0.1,0.1,0.1,0.3,0,0.4L14,53.6z"/>
		<path fill="#494948" d="M22.2,46.2c-0.6,0.6-1.6,0.6-2.3,0l-2.1-2.1c-0.6-0.6-0.6-1.7,0-2.3l0.9-0.9c0.6-0.6,1.7-0.6,2.3,0
			l2.1,2.1c0.6,0.6,0.6,1.7,0,2.3L22.2,46.2z"/>
		<path fill="#686768" d="M23.9,43.9c-0.2,0.2-0.5,0.2-0.7,0l-3.2-3.2c-0.2-0.2-0.2-0.5,0-0.7l0.1-0.1c0.2-0.2,0.5-0.2,0.7,0
			l3.2,3.2c0.2,0.2,0.2,0.5,0,0.7L23.9,43.9z"/>
		<path fill="#7C7C7C" d="M23.2,42.3l-2.3-2.3c-0.2-0.2-0.5-0.2-0.7,0l-0.1,0.1c-0.2,0.2-0.2,0.5,0,0.7l2.3,2.3
			c0.2,0.2,0.5,0.2,0.7,0l0.1-0.1C23.4,42.7,23.4,42.5,23.2,42.3z"/>
		<g>
			<path fill="#686768" d="M13.6,38.8c-0.2-0.2-0.2-0.5,0-0.7l1.5-1.5c0.2-0.2,0.5-0.2,0.7,0l0.1,0.1c0.2,0.2,0.2,0.5,0,0.7
				l-1.5,1.5c-0.2,0.2-0.5,0.2-0.7,0L13.6,38.8z"/>
			<path fill="#7C7C7C" d="M14,38.6l1.5-1.5c0.1-0.1,0.2-0.3,0.1-0.5c-0.2-0.1-0.4,0-0.5,0.1l-1.5,1.5c-0.1,0.1-0.2,0.3-0.1,0.5
				C13.7,38.7,13.9,38.7,14,38.6z"/>
			<path fill="#686768" d="M25.1,50.3c-0.2-0.2-0.2-0.5,0-0.7l1.5-1.5c0.2-0.2,0.5-0.2,0.7,0l0.1,0.1c0.2,0.2,0.2,0.5,0,0.6
				l-1.5,1.5c-0.2,0.2-0.5,0.2-0.7,0L25.1,50.3z"/>
			<path fill="#7C7C7C" d="M25.5,50.1l1.5-1.5c0.1-0.1,0.2-0.3,0.1-0.5c-0.2-0.1-0.4,0-0.5,0.1l-1.5,1.5c-0.1,0.1-0.2,0.3-0.1,0.5
				C25.1,50.2,25.3,50.2,25.5,50.1z"/>
		</g>
		<path fill="#424042" d="M10.9,54.4c-0.4,0.4-1.6,1.1-2,0.7c-0.4-0.4,0.4-1.6,0.7-2c0.4-0.4,0.9-0.4,1.3,0
			C11.3,53.5,11.3,54,10.9,54.4z"/>
		<circle fill="#EF296B" cx="10.3" cy="53.8" r="0.9"/>
		<path fill="#DD1B65" d="M10.3,52.8c0.5,0,0.9,0.4,0.9,0.9c0,0.5-0.4,0.9-0.9,0.9"/>
	</g>
	<g>
		<path fill="#686768" d="M19.9,41.4c0.1,0.1,0.1,0.1,0,0.2L18.5,43c-0.1,0.1-0.1,0.1-0.2,0l0,0c-0.1-0.1-0.1-0.1,0-0.2l1.4-1.4
			C19.7,41.4,19.8,41.4,19.9,41.4L19.9,41.4z"/>
		<path fill="#686768" d="M20.5,42.1c0.1,0.1,0.1,0.1,0,0.2l-1.4,1.4c-0.1,0.1-0.1,0.1-0.2,0l0,0c-0.1-0.1-0.1-0.1,0-0.2l1.4-1.4
			C20.4,42,20.5,42,20.5,42.1L20.5,42.1z"/>
		<path fill="#686768" d="M21.2,42.8c0.1,0.1,0.1,0.1,0,0.2l-1.4,1.4c-0.1,0.1-0.1,0.1-0.2,0l0,0c-0.1-0.1-0.1-0.1,0-0.2l1.4-1.4
			C21.1,42.7,21.2,42.7,21.2,42.8L21.2,42.8z"/>
		<path fill="#686768" d="M21.9,43.5c0.1,0.1,0.1,0.1,0,0.2L20.5,45c-0.1,0.1-0.1,0.1-0.2,0l0,0c-0.1-0.1-0.1-0.1,0-0.2l1.4-1.4
			C21.8,43.4,21.9,43.4,21.9,43.5L21.9,43.5z"/>
		<path fill="#686768" d="M22.6,44.1c0.1,0.1,0.1,0.1,0,0.2l-1.4,1.4c-0.1,0.1-0.1,0.1-0.2,0l0,0c-0.1-0.1-0.1-0.1,0-0.2l1.4-1.4
			C22.5,44.1,22.5,44.1,22.6,44.1L22.6,44.1z"/>
	</g>
</g>
</svg>
