<?xml version="1.0" encoding="utf-8"?>
<!-- Generator: Adobe Illustrator 16.0.0, SVG Export Plug-In . SVG Version: 6.00 Build 0)  -->
<!DOCTYPE svg PUBLIC "-//W3C//DTD SVG 1.1//EN" "http://www.w3.org/Graphics/SVG/1.1/DTD/svg11.dtd">
<svg version="1.1" id="Layer_1" xmlns="http://www.w3.org/2000/svg" xmlns:xlink="http://www.w3.org/1999/xlink" x="0px" y="0px"
	 width="64px" height="64px" viewBox="0 0 64 64" enable-background="new 0 0 64 64" xml:space="preserve">
<g>
	<g>
		<rect x="2" y="10" fill="#835EA5" width="60" height="12"/>
		<rect x="2" y="10" fill="#835EA5" width="60" height="12"/>
		<polyline fill="#704D96" points="2,10 62,10 62,22 		"/>
		<polygon fill="#57387F" points="62,18.3 57.6,14.2 53.5,18 57.5,22 62,22 		"/>
		<circle fill="#FFFFFF" cx="55.6" cy="16.2" r="2.9"/>
		<path fill="#D8D8D8" d="M57.6,14.2c1.1,1.1,1.1,3,0,4.1c-1.1,1.1-3,1.1-4.1,0"/>
	</g>
	<g>
		<rect x="2" y="26" fill="#835EA5" width="60" height="12"/>
		<rect x="2" y="26" fill="#2AA507" width="60" height="12"/>
		<polyline fill="#2E8704" points="2,26 62,26 62,38 		"/>
		<polygon fill="#205600" points="62,34 57.6,30 53.5,33.9 57.5,38 62,38 		"/>
		<circle fill="#FFFFFF" cx="55.6" cy="32" r="2.9"/>
		<path fill="#D8D8D8" d="M57.6,30c1.1,1.1,1.1,3,0,4.1c-1.1,1.1-3,1.1-4.1,0"/>
	</g>
	<g>
		<rect x="2" y="42" fill="#835EA5" width="60" height="12"/>
		<rect x="2" y="42" fill="#FFC41D" width="60" height="12"/>
		<polyline fill="#E88F00" points="2,42 62,42 62,54 		"/>
		<polygon fill="#E86900" points="62,49.8 57.6,45.7 53.5,49.8 57.5,54 62,54 		"/>
		<circle fill="#FFFFFF" cx="55.6" cy="47.8" r="2.9"/>
		<path fill="#D8D8D8" d="M57.6,45.7c1.1,1.1,1.1,3,0,4.1c-1.1,1.1-3,1.1-4.1,0"/>
	</g>
</g>
</svg>
