<?xml version="1.0" encoding="utf-8"?>
<!-- Generator: Adobe Illustrator 16.0.0, SVG Export Plug-In . SVG Version: 6.00 Build 0)  -->
<!DOCTYPE svg PUBLIC "-//W3C//DTD SVG 1.1//EN" "http://www.w3.org/Graphics/SVG/1.1/DTD/svg11.dtd">
<svg version="1.1" id="Layer_1" xmlns="http://www.w3.org/2000/svg" xmlns:xlink="http://www.w3.org/1999/xlink" x="0px" y="0px"
	 width="64px" height="64px" viewBox="0 0 64 64" enable-background="new 0 0 64 64" xml:space="preserve">
<g>
	<g>
		<rect x="12" y="18" fill="#3EB500" width="40" height="44"/>
		<polygon fill="#3DA004" points="50,18 12,18 12,24.1 50,62 52,62 52,19.6 		"/>
		<rect x="32" y="18" fill="#3DA004" width="20" height="44"/>
		<polygon fill="#398C03" points="52,21.8 40.8,18 12,18 12,24.1 12.8,24.6 52,38.6 		"/>
		<path fill="#4CCE00" d="M58,22.1c0,1-1.8,1.9-2.9,1.9H7.9c-1,0-1.9-0.8-1.9-1.9V3.9C6,2.8,6.8,2,7.9,2h48.2c1,0,1.9,0.8,1.9,1.9
			V22.1z"/>
		<path fill="#3EB500" d="M58,4v18.6c0,1-1.3,2.4-2.4,2.4H8.4c-1,0-2.4-1.3-2.4-2.4V4"/>
		<path fill="#49AD09" d="M6.5,4l48.9,20.5c1,0,2.6-0.8,2.6-1.9V4H6.5z"/>
		<path fill="#3EB500" d="M6.5,4.1"/>
		<path fill="#3DA004" d="M6,21v1.6c0,1,1.3,2.4,2.4,2.4h47.2c1,0,2.4-1.3,2.4-2.4V21H6z"/>
	</g>
	<path fill="#4CCE00" d="M9,15.1C9,15.6,8.8,16,8.5,16l0,0C8.2,16,8,15.6,8,15.1V7.9C8,7.4,8.2,7,8.5,7l0,0C8.8,7,9,7.4,9,7.9V15.1z
		"/>
	<path fill="#4CCE00" d="M17,39.1c0,0.5-0.4,0.9-0.9,0.9h-0.3c-0.5,0-0.9-0.4-0.9-0.9v-7.3c0-0.5,0.4-0.9,0.9-0.9h0.3
		c0.5,0,0.9,0.4,0.9,0.9V39.1z"/>
	<path fill="#4CCE00" d="M17,51.1c0,0.5-0.4,0.9-0.9,0.9h-0.3c-0.5,0-0.9-0.4-0.9-0.9v-7.3c0-0.5,0.4-0.9,0.9-0.9h0.3
		c0.5,0,0.9,0.4,0.9,0.9V51.1z"/>
	<circle fill="#4CCE00" cx="8.6" cy="18.2" r="0.9"/>
</g>
</svg>
