<?xml version="1.0" encoding="utf-8"?>
<!-- Generator: Adobe Illustrator 16.0.0, SVG Export Plug-In . SVG Version: 6.00 Build 0)  -->
<!DOCTYPE svg PUBLIC "-//W3C//DTD SVG 1.1//EN" "http://www.w3.org/Graphics/SVG/1.1/DTD/svg11.dtd">
<svg version="1.1" id="Layer_1" xmlns="http://www.w3.org/2000/svg" xmlns:xlink="http://www.w3.org/1999/xlink" x="0px" y="0px"
	 width="64px" height="64px" viewBox="0 0 64 64" enable-background="new 0 0 64 64" xml:space="preserve">
<g>
	<path fill="#F74FAF" d="M63,36.7c0,9.2-13.9,0.3-31,0.3S1,45.9,1,36.7S14.9,4.6,32,4.6S63,27.5,63,36.7z"/>
	<path fill="#ED3596" d="M32,4.6c17.1,0,31,22.8,31,32.1S49.1,37,32,37"/>
	<path fill="#BC005E" d="M63,36.7c0,9.2-13.9,16.7-31,16.7S1,45.9,1,36.7S14.9,7.4,32,7.4S63,27.5,63,36.7z"/>
	<path fill="#DD1F83" d="M63,36.7c0,9.2-13.9,0.3-31,0.3S1,45.9,1,36.7S14.9,7.4,32,7.4S63,27.5,63,36.7z"/>
	<path fill="#CC1B70" d="M32,7.4c17.1,0,31,20.1,31,29.3S49.1,37,32,37"/>
	<path fill="#F2D6A7" d="M49.8,48.7c0,6.6-8,9.9-17.8,9.9c-9.8,0-17.8-3.3-17.8-9.9s8-8.5,17.8-8.5C41.8,40.2,49.8,42.1,49.8,48.7z"
		/>
	<path fill="#D6B47C" d="M49.8,48.7c0,6.6-8,10.7-17.8,10.7c-9.8,0-17.8-4.1-17.8-10.7s8-8.5,17.8-8.5
		C41.8,40.2,49.8,42.1,49.8,48.7z"/>
	<path fill="#F2D6A7" d="M49.8,48.7c0,6.6-8,9.9-17.8,9.9c-9.8,0-17.8-3.3-17.8-9.9s8-8.5,17.8-8.5C41.8,40.2,49.8,42.1,49.8,48.7z"
		/>
	<path fill="#E5C58C" d="M32,40.2c9.8,0,17.8,1.9,17.8,8.5s-8,9.9-17.8,9.9"/>
	<path fill="#D6B47C" d="M32,43.5c9.4,0,17.1,0,17.7,5.9c0-0.3,0.1-0.5,0.1-0.8c0-6.6-8-8.5-17.8-8.5c-9.8,0-17.8,1.9-17.8,8.5
		c0,0.3,0,0.5,0.1,0.8C14.9,43.5,22.6,43.5,32,43.5z"/>
	<circle fill="#EAD0DF" cx="32" cy="21.3" r="11.2"/>
	<path fill="#DDBAD0" d="M32,10.1c6.2,0,11.2,5,11.2,11.2c0,6.2-5,11.2-11.2,11.2"/>
	<g>
		<path fill="#EAD0DF" d="M13.3,26.5c0-3.4-1.4-6.5-3.7-8.6C4.3,24.5,1,32.2,1,36.7c0,0.7,0.1,1.2,0.2,1.7c0,0,0.1,0,0.1,0
			C7.9,38.4,13.3,33.1,13.3,26.5z"/>
		<path fill="#DDBAD0" d="M1.1,37.6c0,0.3,0.1,0.5,0.2,0.8c0,0,0.1,0,0.1,0c6.6,0,12-5.4,12-12c0-3.1-1.2-5.9-3.1-8
			C4.9,24.3,1.5,31.1,1,35.8c0,0,0,0,0,0c0,0.3,0,0.6,0,0.9C1,37,1,37.3,1.1,37.6C1.1,37.6,1.1,37.6,1.1,37.6z"/>
	</g>
	<g>
		<path fill="#EAD0DF" d="M50.7,26.5c0-3.4,1.4-6.5,3.7-8.6c5.3,6.7,8.6,14.4,8.6,18.9c0,0.7-0.1,1.2-0.2,1.7c0,0-0.1,0-0.1,0
			C56.1,38.4,50.7,33.1,50.7,26.5z"/>
		<path fill="#DDBAD0" d="M62.9,37.6c0,0.3-0.1,0.5-0.2,0.8c0,0-0.1,0-0.1,0c-6.6,0-12-5.4-12-12c0-3.1,1.2-5.9,3.1-8
			c5.3,5.8,8.7,12.7,9.1,17.3c0,0,0,0,0,0c0,0.3,0,0.6,0,0.9C63,37,63,37.3,62.9,37.6C62.9,37.6,62.9,37.6,62.9,37.6z"/>
	</g>
	<g>
		<g>
			<path fill="#E5C58C" d="M25.7,47.4c0,1.6-0.9,3.6-1.9,3.6s-1.9-2-1.9-3.6s0.9-3,1.9-3S25.7,45.8,25.7,47.4z"/>
			<ellipse fill="#495156" cx="23.8" cy="47.4" rx="1.9" ry="3"/>
			<path fill="#293033" d="M23.8,44.5c1.1,0,1.9,1.3,1.9,3s-0.9,3-1.9,3"/>
			<path fill="#F4E1C6" d="M26.4,50.8c0,0.3-1.2,0.3-2.6,0.3c-1.4,0-2.6,0-2.6-0.3s1.2-0.6,2.6-0.6C25.2,50.2,26.4,50.5,26.4,50.8z"
				/>
		</g>
		<g>
			<path fill="#E5C58C" d="M42.2,47.4c0,1.6-0.9,3.6-1.9,3.6s-1.9-2-1.9-3.6s0.9-3,1.9-3S42.2,45.8,42.2,47.4z"/>
			<ellipse fill="#495156" cx="40.2" cy="47.4" rx="1.9" ry="3"/>
			<path fill="#293033" d="M40.2,44.5c1.1,0,1.9,1.3,1.9,3s-0.9,3-1.9,3"/>
			<path fill="#F4E1C6" d="M42.9,50.8c0,0.3-1.2,0.3-2.6,0.3c-1.4,0-2.6,0-2.6-0.3s1.2-0.6,2.6-0.6C41.7,50.2,42.9,50.5,42.9,50.8z"
				/>
		</g>
	</g>
</g>
</svg>
