<?xml version="1.0" encoding="utf-8"?>
<!-- Generator: Adobe Illustrator 16.0.0, SVG Export Plug-In . SVG Version: 6.00 Build 0)  -->
<!DOCTYPE svg PUBLIC "-//W3C//DTD SVG 1.1//EN" "http://www.w3.org/Graphics/SVG/1.1/DTD/svg11.dtd">
<svg version="1.1" id="Layer_1" xmlns="http://www.w3.org/2000/svg" xmlns:xlink="http://www.w3.org/1999/xlink" x="0px" y="0px"
	 width="64px" height="64px" viewBox="0 0 64 64" enable-background="new 0 0 64 64" xml:space="preserve">
<g>
	<g>
		<g>
			
				<rect x="2.7" y="39.9" transform="matrix(0.7072 -0.707 0.707 0.7072 -28.7837 16.8219)" fill="#6B0500" width="6.5" height="6.5"/>
			
				<rect x="13" y="39.9" transform="matrix(0.7072 -0.707 0.707 0.7072 -25.758 24.1276)" fill="#6B0500" width="6.5" height="6.5"/>
			<polygon fill="#6B0500" points="31,43.2 26.6,47.8 22,43.2 26.6,38.6 			"/>
		</g>
		<path fill="#CE351B" d="M5.9,42.6l5.2,5.1l5.2-5.1l5.1,5.1l5-5.1l4.6,4.8V26.2c0-5.5-4.2-10.2-9.8-10.2h-10C5.7,16,1,20.7,1,26.2
			v21.1L5.9,42.6z"/>
		<path fill="#A01005" d="M11.1,47.7l5.2-4.6l5.1,4.6l5-5.1l4.6,4.8V26.2c0-5.5-4.2-10.2-9.8-10.2H11"/>
		<g>
			<g>
				<circle fill="#FFFFFF" cx="11.3" cy="26.4" r="3.1"/>
				<path fill="#E0E0E0" d="M14.4,26.4c0,1.7-1.4,3.1-3.1,3.1c-1.7,0-3.1-1.4-3.1-3.1"/>
				<path d="M11.3,25.1c-0.1,0-0.3,0-0.4,0.1c0.2,0.1,0.4,0.3,0.4,0.6c0,0.4-0.3,0.7-0.7,0.7c-0.3,0-0.5-0.1-0.6-0.3
					c0,0.1,0,0.2,0,0.3c0,0.7,0.6,1.4,1.4,1.4s1.4-0.6,1.4-1.4S12.1,25.1,11.3,25.1z"/>
			</g>
			<g>
				<circle fill="#FFFFFF" cx="21.2" cy="26.4" r="3.1"/>
				<path fill="#E0E0E0" d="M24.2,26.4c0,1.7-1.4,3.1-3.1,3.1c-1.7,0-3.1-1.4-3.1-3.1"/>
				<path d="M21.2,25.1c-0.1,0-0.3,0-0.4,0.1c0.2,0.1,0.4,0.3,0.4,0.6c0,0.4-0.3,0.7-0.7,0.7c-0.3,0-0.5-0.1-0.6-0.3
					c0,0.1,0,0.2,0,0.3c0,0.7,0.6,1.4,1.4,1.4s1.4-0.6,1.4-1.4S21.9,25.1,21.2,25.1z"/>
			</g>
		</g>
		
			<ellipse transform="matrix(0.7547 -0.6561 0.6561 0.7547 -11.8338 8.7551)" fill="#F25B4C" cx="5.8" cy="20.2" rx="3.3" ry="0.9"/>
	</g>
	<g>
		<g>
			<g>
				<polygon fill="#1A4C00" points="42,43.2 37.4,47.8 33,43.2 37.4,38.6 				"/>
				
					<rect x="44.5" y="39.9" transform="matrix(0.7072 -0.707 0.707 0.7072 -16.5342 46.3991)" fill="#1A4C00" width="6.5" height="6.5"/>
				
					<rect x="54.8" y="39.9" transform="matrix(0.7072 -0.707 0.707 0.7072 -13.5085 53.7049)" fill="#1A4C00" width="6.5" height="6.5"/>
			</g>
			<path fill="#34B515" d="M37.6,42.6l5.1,5.1l5.1-5.1l5.1,5.1l5.2-5.1l4.9,4.8V26.2C63,20.7,58.3,16,52.8,16h-10
				c-5.5,0-9.8,4.7-9.8,10.2v21.1L37.6,42.6z"/>
			<path fill="#2B8700" d="M42.8,47.6l5-5l5.1,5.1l5.2-5.1l4.9,4.8V26.2C63,20.7,58.3,16,52.8,16H43"/>
			<g>
				<g>
					<circle fill="#FFFFFF" cx="42.8" cy="26.4" r="3.1"/>
					<path fill="#E0E0E0" d="M45.9,26.4c0,1.7-1.4,3.1-3.1,3.1c-1.7,0-3.1-1.4-3.1-3.1"/>
					<path d="M42.8,25.1c-0.1,0-0.3,0-0.4,0.1c0.2,0.1,0.4,0.3,0.4,0.6c0,0.4-0.3,0.7-0.7,0.7c-0.3,0-0.5-0.1-0.6-0.3
						c0,0.1,0,0.2,0,0.3c0,0.7,0.6,1.4,1.4,1.4s1.4-0.6,1.4-1.4S43.6,25.1,42.8,25.1z"/>
				</g>
				<g>
					<circle fill="#FFFFFF" cx="52.7" cy="26.4" r="3.1"/>
					<path fill="#E0E0E0" d="M55.8,26.4c0,1.7-1.4,3.1-3.1,3.1c-1.7,0-3.1-1.4-3.1-3.1"/>
					<path d="M52.7,25.1c-0.1,0-0.3,0-0.4,0.1c0.2,0.1,0.4,0.3,0.4,0.6c0,0.4-0.3,0.7-0.7,0.7c-0.3,0-0.5-0.1-0.6-0.3
						c0,0.1,0,0.2,0,0.3c0,0.7,0.6,1.4,1.4,1.4s1.4-0.6,1.4-1.4S53.4,25.1,52.7,25.1z"/>
				</g>
			</g>
			
				<ellipse transform="matrix(0.7547 -0.6561 0.6561 0.7547 -4.1073 29.4208)" fill="#58F42C" cx="37.3" cy="20.2" rx="3.3" ry="0.9"/>
		</g>
		<path fill="#1A4C00" d="M44.8,33c0.2,1,1.4,2.6,3,2.6s2.8-1.6,3-2.6H44.8z"/>
	</g>
</g>
</svg>
