<?xml version="1.0" encoding="utf-8"?>
<!-- Generator: Adobe Illustrator 16.0.0, SVG Export Plug-In . SVG Version: 6.00 Build 0)  -->
<!DOCTYPE svg PUBLIC "-//W3C//DTD SVG 1.1//EN" "http://www.w3.org/Graphics/SVG/1.1/DTD/svg11.dtd">
<svg version="1.1" id="Layer_1" xmlns="http://www.w3.org/2000/svg" xmlns:xlink="http://www.w3.org/1999/xlink" x="0px" y="0px"
	 width="64px" height="64px" viewBox="0 0 64 64" enable-background="new 0 0 64 64" xml:space="preserve">
<g>
	<g>
		<ellipse fill="#BDE1E5" cx="32" cy="14.4" rx="5.6" ry="6.2"/>
		<path fill="#A3C8CE" d="M35.8,10.6c0,0.3-0.3,0.6-0.6,0.6h-6.5c-0.3,0-0.6-0.3-0.6-0.6V8.5c0-0.3,0.3-0.6,0.6-0.6h6.5
			c0.3,0,0.6,0.3,0.6,0.6V10.6z"/>
		<path fill="#758789" d="M35.8,9.7c0,0.3-0.3,0.6-0.6,0.6h-6.5c-0.3,0-0.6-0.3-0.6-0.6V7.6c0-0.3,0.3-0.6,0.6-0.6h6.5
			c0.3,0,0.6,0.3,0.6,0.6V9.7z"/>
		<path fill="#607475" d="M35.2,7h-6.5c-0.3,0-0.6,0.3-0.6,0.6v1.2h7.6V7.6C35.8,7.3,35.6,7,35.2,7z"/>
		<g>
			<circle fill="#BDE1E5" cx="32" cy="36.7" r="26"/>
		</g>
		<path fill="#A3C8CE" d="M32,12.2c-14.1,0-25.6,11.2-26,25.3c0.4,14,11.9,25.3,26,25.3c14.1,0,25.6-11.2,26-25.3
			C57.6,23.5,46.1,12.2,32,12.2z"/>
		<path fill="#8AB6BA" d="M32,15C18.4,15,7.2,25.5,6.1,38.9C7.2,52.2,18.4,62.7,32,62.7c13.6,0,24.8-10.5,25.9-23.9
			C56.8,25.5,45.6,15,32,15z"/>
		<circle fill="#0A7F50" cx="32" cy="36.7" r="21.5"/>
		<path fill="#79A3A5" d="M32,18.8c-11.3,0-20.6,8.7-21.5,19.8C11.5,49.6,20.7,59.4,32,59.4c11.3,0,20.5-9.9,21.5-20.9
			C52.5,27.5,43.3,18.8,32,18.8z"/>
		<path fill="#0D915E" d="M32,18.8c-11.3,0-20.6,8.7-21.5,19.8C11.5,49.6,20.7,58.3,32,58.3c11.3,0,20.5-8.7,21.5-19.8
			C52.5,27.5,43.3,18.8,32,18.8z"/>
		<path opacity="0.4" fill="#05603B" d="M52.2,42.1h0.7c0.1-0.3,0.1-0.6,0.2-0.9h-0.9v-4.1h1.4c0-0.1,0-0.3,0-0.4c0-0.1,0-0.3,0-0.4
			h-1.4v-4.1h0.9c-0.1-0.3-0.1-0.6-0.2-0.9h-0.7v-2.2c-0.4-1-0.8-1.9-1.3-2.8h-3.7v-4.1H48c-0.5-0.6-1.1-1.1-1.7-1.7v0.8h-4.1v-3.7
			c-0.9-0.5-1.8-0.9-2.8-1.3h-2.2v-0.7c-0.3-0.1-0.6-0.1-0.9-0.2v0.9h-4.1v-1.4c-0.1,0-0.3,0-0.4,0s-0.3,0-0.4,0v1.3h-4.1v-0.9
			c-0.3,0.1-0.6,0.1-0.9,0.2v0.7h-2.2c-1,0.4-1.9,0.8-2.8,1.3v3.7h-4.1v-0.8c-0.6,0.5-1.1,1.1-1.7,1.7h0.8v4.1h-3.7
			c-0.5,0.9-0.9,1.8-1.3,2.8v2.2h-0.7c-0.1,0.3-0.1,0.6-0.2,0.9h0.9v4.1h-1.3c0,0.1,0,0.3,0,0.4c0,0.1,0,0.3,0,0.4h1.3v4.1h-0.9
			c0.1,0.3,0.1,0.6,0.2,0.9h0.7v2.2c0.4,1,0.8,1.9,1.3,2.8h3.7v4.1H16c0.5,0.6,1.1,1.1,1.7,1.7V52h4.1v3.7c0.9,0.5,1.8,0.9,2.8,1.3
			h2.2v0.7c0.3,0.1,0.6,0.1,0.9,0.2v-0.9h4.1v1.4c0.1,0,0.3,0,0.4,0s0.3,0,0.4,0v-1.4h4.1v0.9c0.3-0.1,0.6-0.1,0.9-0.2v-0.7h2.2
			c1-0.4,1.9-0.8,2.8-1.3V52h4.1v0.8c0.6-0.5,1.1-1.1,1.7-1.7h-0.8V47h3.7c0.5-0.9,0.9-1.8,1.3-2.8V42.1z M16.8,46.2h-4.1v-4.1h4.1
			V46.2z M16.8,41.2h-4.1v-4.1h4.1V41.2z M16.8,36.3h-4.1v-4.1h4.1V36.3z M16.8,31.4h-4.1v-4.1h4.1V31.4z M21.7,51.1h-4.1V47h4.1
			V51.1z M21.7,46.2h-4.1v-4.1h4.1V46.2z M21.7,41.2h-4.1v-4.1h4.1V41.2z M21.7,36.3h-4.1v-4.1h4.1V36.3z M21.7,31.4h-4.1v-4.1h4.1
			V31.4z M21.7,26.4h-4.1v-4.1h4.1V26.4z M26.6,56h-4.1V52h4.1V56z M26.6,51.1h-4.1V47h4.1V51.1z M26.6,46.2h-4.1v-4.1h4.1V46.2z
			 M26.6,41.2h-4.1v-4.1h4.1V41.2z M26.6,36.3h-4.1v-4.1h4.1V36.3z M26.6,31.4h-4.1v-4.1h4.1V31.4z M26.6,26.4h-4.1v-4.1h4.1V26.4z
			 M26.6,21.5h-4.1v-4.1h4.1V21.5z M31.6,56h-4.1V52h4.1V56z M31.6,51.1h-4.1V47h4.1V51.1z M31.6,46.2h-4.1v-4.1h4.1V46.2z
			 M31.6,41.2h-4.1v-4.1h4.1V41.2z M31.6,36.3h-4.1v-4.1h4.1V36.3z M31.6,31.4h-4.1v-4.1h4.1V31.4z M31.6,26.4h-4.1v-4.1h4.1V26.4z
			 M31.6,21.5h-4.1v-4.1h4.1V21.5z M36.5,56h-4.1V52h4.1V56z M36.5,51.1h-4.1V47h4.1V51.1z M36.5,46.2h-4.1v-4.1h4.1V46.2z
			 M36.5,41.2h-4.1v-4.1h4.1V41.2z M36.5,36.3h-4.1v-4.1h4.1V36.3z M36.5,31.4h-4.1v-4.1h4.1V31.4z M36.5,26.4h-4.1v-4.1h4.1V26.4z
			 M36.5,21.5h-4.1v-4.1h4.1V21.5z M41.4,56h-4.1V52h4.1V56z M41.4,51.1h-4.1V47h4.1V51.1z M41.4,46.2h-4.1v-4.1h4.1V46.2z
			 M41.4,41.2h-4.1v-4.1h4.1V41.2z M41.4,36.3h-4.1v-4.1h4.1V36.3z M41.4,31.4h-4.1v-4.1h4.1V31.4z M41.4,26.4h-4.1v-4.1h4.1V26.4z
			 M41.4,21.5h-4.1v-4.1h4.1V21.5z M46.4,51.1h-4.1V47h4.1V51.1z M46.4,46.2h-4.1v-4.1h4.1V46.2z M46.4,41.2h-4.1v-4.1h4.1V41.2z
			 M46.4,36.3h-4.1v-4.1h4.1V36.3z M46.4,31.4h-4.1v-4.1h4.1V31.4z M46.4,26.4h-4.1v-4.1h4.1V26.4z M51.3,46.2h-4.1v-4.1h4.1V46.2z
			 M51.3,41.2h-4.1v-4.1h4.1V41.2z M51.3,36.3h-4.1v-4.1h4.1V36.3z M47.2,31.4v-4.1h4.1v4.1H47.2z"/>
		<g>
			<path fill="#20E092" d="M32.3,55.7c0,0.2-0.1,0.3-0.3,0.3l0,0c-0.2,0-0.3-0.1-0.3-0.3V37.6c0-0.2,0.1-0.3,0.3-0.3l0,0
				c0.2,0,0.3,0.1,0.3,0.3V55.7z"/>
			<path fill="#20E092" d="M22.9,46.9c-0.2,0-0.3-0.1-0.3-0.3l0,0c0-0.2,0.1-0.3,0.3-0.3h18.2c0.2,0,0.3,0.1,0.3,0.3l0,0
				c0,0.2-0.1,0.3-0.3,0.3H22.9z"/>
		</g>
		<g>
			<circle opacity="0.3" fill="#FFC022" cx="27" cy="26.8" r="3.1"/>
			<circle fill="#FFC022" cx="27" cy="26.8" r="2"/>
			<path fill="#FFA81D" d="M28.1,26.8c0,0.6-0.5,1-1,1c-0.6,0-1-0.5-1-1c0-0.6,0.5-1,1-1C27.6,25.8,28.1,26.3,28.1,26.8z"/>
		</g>
		<g>
			<circle opacity="0.3" fill="#FFC022" cx="46.5" cy="42.1" r="3.1"/>
			<circle fill="#FFC022" cx="46.5" cy="42.1" r="2"/>
			<circle fill="#FFA81D" cx="46.5" cy="42.1" r="1"/>
		</g>
		<g>
			<circle opacity="0.3" fill="#FFC022" cx="22" cy="51.5" r="2.2"/>
			<circle fill="#FFC022" cx="22" cy="51.5" r="1.5"/>
			<path fill="#FFA81D" d="M22.7,51.5c0,0.4-0.3,0.7-0.7,0.7c-0.4,0-0.7-0.3-0.7-0.7c0-0.4,0.3-0.7,0.7-0.7
				C22.4,50.7,22.7,51.1,22.7,51.5z"/>
		</g>
		<path opacity="0.4" fill="#05603B" d="M35.9,41.7l-3.3-6.6c-0.2-0.4-0.9-0.4-1.1,0l-3.3,6.6c-0.1,0.2-0.1,0.4,0,0.6
			c0.1,0.2,0.3,0.3,0.5,0.3h6.7c0.2,0,0.4-0.1,0.5-0.3C36,42.2,36,41.9,35.9,41.7z"/>
		<g>
			<path fill="#F7576E" d="M35.9,39.7l-3.3-6.6c-0.2-0.4-0.9-0.4-1.1,0l-3.3,6.6c-0.1,0.2-0.1,0.4,0,0.6c0.1,0.2,0.3,0.3,0.5,0.3
				h6.7c0.2,0,0.4-0.1,0.5-0.3C36,40.1,36,39.9,35.9,39.7z"/>
			<path fill="#E23B5B" d="M30.5,35l-2.4,4.8c-0.1,0.2-0.1,0.4,0,0.6c0.1,0.2,0.3,0.3,0.5,0.3h4.7L30.5,35z"/>
		</g>
		<path fill="#A3C8CE" d="M38.6,5.9c0,1.1-0.9,2-2,2h-9.3c-1.1,0-2-0.9-2-2V3.2c0-1.1,0.9-2,2-2h9.3c1.1,0,2,0.9,2,2V5.9z"/>
		<path fill="#BDE1E5" d="M27.4,1.3c-0.8,0-1.5,0.5-1.8,1.2c0.3,0.7,1,0.2,1.8,0.2h9.3c0.8,0,1.5,0.5,1.8-0.2
			c-0.3-0.7-1-1.2-1.8-1.2H27.4z"/>
	</g>
	<g>
		<path fill="#8B9D9E" d="M29.1,9.5c0,0.1-0.1,0.2-0.2,0.2l0,0c-0.1,0-0.2-0.1-0.2-0.2V8.6c0-0.1,0.1-0.2,0.2-0.2l0,0
			c0.1,0,0.2,0.1,0.2,0.2V9.5z"/>
		<path fill="#8B9D9E" d="M29.9,9.5c0,0.1-0.1,0.2-0.2,0.2l0,0c-0.1,0-0.2-0.1-0.2-0.2V8.6c0-0.1,0.1-0.2,0.2-0.2l0,0
			c0.1,0,0.2,0.1,0.2,0.2V9.5z"/>
		<path fill="#8B9D9E" d="M30.6,9.5c0,0.1-0.1,0.2-0.2,0.2l0,0c-0.1,0-0.2-0.1-0.2-0.2V8.6c0-0.1,0.1-0.2,0.2-0.2l0,0
			c0.1,0,0.2,0.1,0.2,0.2V9.5z"/>
		<path fill="#8B9D9E" d="M31.4,9.5c0,0.1-0.1,0.2-0.2,0.2l0,0c-0.1,0-0.2-0.1-0.2-0.2V8.6c0-0.1,0.1-0.2,0.2-0.2l0,0
			c0.1,0,0.2,0.1,0.2,0.2V9.5z"/>
		<path fill="#8B9D9E" d="M32.2,9.5c0,0.1-0.1,0.2-0.2,0.2l0,0c-0.1,0-0.2-0.1-0.2-0.2V8.6c0-0.1,0.1-0.2,0.2-0.2l0,0
			c0.1,0,0.2,0.1,0.2,0.2V9.5z"/>
		<path fill="#8B9D9E" d="M32.9,9.5c0,0.1-0.1,0.2-0.2,0.2l0,0c-0.1,0-0.2-0.1-0.2-0.2V8.6c0-0.1,0.1-0.2,0.2-0.2l0,0
			c0.1,0,0.2,0.1,0.2,0.2V9.5z"/>
		<path fill="#8B9D9E" d="M33.7,9.5c0,0.1-0.1,0.2-0.2,0.2l0,0c-0.1,0-0.2-0.1-0.2-0.2V8.6c0-0.1,0.1-0.2,0.2-0.2l0,0
			c0.1,0,0.2,0.1,0.2,0.2V9.5z"/>
		<path fill="#8B9D9E" d="M34.5,9.5c0,0.1-0.1,0.2-0.2,0.2l0,0c-0.1,0-0.2-0.1-0.2-0.2V8.6c0-0.1,0.1-0.2,0.2-0.2l0,0
			c0.1,0,0.2,0.1,0.2,0.2V9.5z"/>
		<path fill="#8B9D9E" d="M35.2,9.5c0,0.1-0.1,0.2-0.2,0.2l0,0c-0.1,0-0.2-0.1-0.2-0.2V8.6c0-0.1,0.1-0.2,0.2-0.2l0,0
			c0.1,0,0.2,0.1,0.2,0.2V9.5z"/>
	</g>
</g>
</svg>
