<?xml version="1.0" encoding="utf-8"?>
<!-- Generator: Adobe Illustrator 16.0.0, SVG Export Plug-In . SVG Version: 6.00 Build 0)  -->
<!DOCTYPE svg PUBLIC "-//W3C//DTD SVG 1.1//EN" "http://www.w3.org/Graphics/SVG/1.1/DTD/svg11.dtd">
<svg version="1.1" id="Layer_1" xmlns="http://www.w3.org/2000/svg" xmlns:xlink="http://www.w3.org/1999/xlink" x="0px" y="0px"
	 width="64px" height="64px" viewBox="0 0 64 64" enable-background="new 0 0 64 64" xml:space="preserve">
<g>
	<polygon fill="#CECCB3" points="33.6,56 30.4,56 29.4,39 34.6,39 	"/>
	<polyline fill="#B5B299" points="29,39 34.6,39 33.6,56 	"/>
	<g>
		<path fill="#CECCB3" d="M6,28v8h20v-8H6z M13,34c-1.1,0-2-0.9-2-2c0-1.1,0.9-2,2-2c1.1,0,2,0.9,2,2C15,33.1,14.1,34,13,34z
			 M19.2,34c-1.1,0-2-0.9-2-2c0-1.1,0.9-2,2-2c1.1,0,2,0.9,2,2C21.2,33.1,20.3,34,19.2,34z"/>
		<path fill="#CECCB3" d="M38,28v8h19v-8H38z M49,32c0-1.1,0.9-2,2-2c1.1,0,2,0.9,2,2c0,1.1-0.9,2-2,2C49.9,34,49,33.1,49,32z
			 M42.8,32c0-1.1,0.9-2,2-2c1.1,0,2,0.9,2,2c0,1.1-0.9,2-2,2C43.7,34,42.8,33.1,42.8,32z"/>
	</g>
	<path fill="#454949" d="M32,2.2C15.5,2.2,2.2,15.5,2.2,32S15.5,61.8,32,61.8S61.8,48.5,61.8,32S48.5,2.2,32,2.2z M32,55.3
		C19.1,55.3,8.7,44.9,8.7,32S19.1,8.7,32,8.7S55.3,19.1,55.3,32S44.9,55.3,32,55.3z"/>
	<g>
		<path fill="#1E2323" d="M32,2.2v6.5c12.9,0,23.3,10.4,23.3,23.3S44.9,55.3,32,55.3v6.5c16.5,0,29.8-13.3,29.8-29.8
			S48.5,2.2,32,2.2z"/>
	</g>
	<g>
		<circle fill="#3B3F3F" cx="32" cy="32" r="9.1"/>
		<path fill="#1E2323" d="M38.5,25.5c3.6,3.6,3.6,9.3,0,12.9c-3.6,3.6-9.3,3.6-12.9,0"/>
	</g>
	<g>
		<circle fill="#F7F6ED" cx="32" cy="32" r="4.8"/>
		<path fill="#EAE9DA" d="M35.4,28.6c1.9,1.9,1.9,4.9,0,6.7c-1.9,1.9-4.9,1.9-6.7,0"/>
	</g>
	<g>
		<circle fill="#EF880C" cx="32" cy="32" r="2.8"/>
		<path fill="#D66203" d="M33.9,30.1c1.1,1.1,1.1,2.8,0,3.9c-1.1,1.1-2.8,1.1-3.9,0"/>
	</g>
</g>
</svg>
