<?xml version="1.0" encoding="utf-8"?>
<!-- Generator: Adobe Illustrator 16.0.0, SVG Export Plug-In . SVG Version: 6.00 Build 0)  -->
<!DOCTYPE svg PUBLIC "-//W3C//DTD SVG 1.1//EN" "http://www.w3.org/Graphics/SVG/1.1/DTD/svg11.dtd">
<svg version="1.1" id="Layer_1" xmlns="http://www.w3.org/2000/svg" xmlns:xlink="http://www.w3.org/1999/xlink" x="0px" y="0px"
	 width="64px" height="64px" viewBox="0 0 64 64" enable-background="new 0 0 64 64" xml:space="preserve">
<g>
	<g>
		<polygon fill="#C9C6B1" points="18,34 16.5,36 3,36 3,49.4 2,50 2.9,52 19,52 19,35.8 		"/>
		<rect x="2" y="34" fill="#F7F6ED" width="16" height="16"/>
		<polyline fill="#EAE9DA" points="18,34 18,50 2,50 		"/>
		<g>
			<path fill="#4A514F" d="M9,44l-0.6,2H6.6L9,38h2.4l2.5,8h-2l-0.6-2H9z M11.1,43L11.1,43l-0.8-3L10,40l-0.7,3l0,0H11.1z"/>
		</g>
	</g>
	<g>
		<polygon fill="#C9C6B1" points="40,34 37.8,36 24,36 24,49.4 23,50 24.2,52 41,52 41,35.8 		"/>
		<rect x="23" y="34" fill="#F7F6ED" width="17" height="16"/>
		<polyline fill="#EAE9DA" points="40,34 40,50 23,50 		"/>
		<g>
			<path fill="#4A514F" d="M29.2,44.2c0.5,0.3,1.2,0.5,2,0.5c0.8,0,1.3-0.3,1.3-0.9c0-0.5-0.4-0.8-1.4-1.1c-1.3-0.5-2.2-1.2-2.2-2.4
				c0-1.4,1.2-2.4,3.1-2.4c0.9,0,1.6,0.2,2.1,0.4l-0.4,1.5c-0.3-0.2-0.9-0.4-1.7-0.4c-0.8,0-1.2,0.4-1.2,0.8c0,0.5,0.5,0.7,1.5,1.1
				c1.4,0.5,2.1,1.3,2.1,2.4c0,1.4-1,2.5-3.3,2.5c-0.9,0-1.8-0.2-2.3-0.5L29.2,44.2z"/>
		</g>
	</g>
	<g>
		<polygon fill="#C9C6B1" points="30,12 28.3,14 15,14 15,27.4 14,28 14.7,30 31,30 31,13.8 		"/>
		<rect x="14" y="12" fill="#F7F6ED" width="16" height="16"/>
		<polyline fill="#EAE9DA" points="30,12 30,28 14,28 		"/>
		<g>
			<path fill="#4A514F" d="M18.8,24l-1.9-8h2l0.6,3.3c0.2,1,0.3,1.7,0.5,2.7h0c0.1-1,0.3-1.8,0.5-2.8l0.7-3.2h1.9l0.6,3.3
				c0.2,0.9,0.3,1.7,0.4,2.7h0c0.1-1,0.3-1.8,0.5-2.7l0.7-3.3h1.9l-2.1,8h-2l-0.7-3.5c-0.2-0.8-0.3-1.5-0.4-2.5h0
				c-0.1,1-0.3,1.7-0.5,2.5L20.8,24H18.8z"/>
		</g>
	</g>
	<g>
		<polygon fill="#C9C6B1" points="61,34 59.1,36 46,36 46,49.4 45,50 45.5,52 62,52 62,35.8 		"/>
		<rect x="45" y="34" fill="#F7F6ED" width="16" height="16"/>
		<polyline fill="#EAE9DA" points="61,34 61,50 45,50 		"/>
		<g>
			<path fill="#4A514F" d="M49,38.1c1-0.1,1.7-0.2,2.6-0.2c1.5,0,2.6,0.3,3.4,0.9c0.8,0.6,1.4,1.6,1.4,3c0,1.5-0.5,2.6-1.3,3.3
				c-0.9,0.7-2.3,1-3.9,1c-0.9,0-1.2-0.1-2.2-0.1V38.1z M51,44.7c0,0,0.5,0,0.7,0c1.7,0,2.8-0.9,2.8-2.8c0-1.7-1-2.6-2.6-2.6
				c-0.4,0-0.9,0-0.9,0.1V44.7z"/>
		</g>
	</g>
</g>
</svg>
