<?xml version="1.0" encoding="utf-8"?>
<!-- Generator: Adobe Illustrator 16.0.0, SVG Export Plug-In . SVG Version: 6.00 Build 0)  -->
<!DOCTYPE svg PUBLIC "-//W3C//DTD SVG 1.1//EN" "http://www.w3.org/Graphics/SVG/1.1/DTD/svg11.dtd">
<svg version="1.1" id="Layer_1" xmlns="http://www.w3.org/2000/svg" xmlns:xlink="http://www.w3.org/1999/xlink" x="0px" y="0px"
	 width="64px" height="64px" viewBox="0 0 64 64" enable-background="new 0 0 64 64" xml:space="preserve">
<g>
	<path fill="#454949" d="M13.7,41.4c0,1.9-1.6,3.6-3.5,3.6H4.4C2.5,45,1,43.3,1,41.4l4.5-17.1C5.5,22.4,7,21,8.9,21h5.8
		c1.9,0,3.4,1.1,3.4,3L13.7,41.4z"/>
	<path fill="#454949" d="M49,17H5v7.3L0.7,41.4c0,1.9,1.8,3.6,3.7,3.6h5.8c1.9,0,3.5-1.7,3.5-3.6l2.4-9.4h11.4
		c1.9,0,2.5-1.5,2.5-3.4V24h19V17z M26,26.8c0,1.5-0.2,3.2-1.7,3.2h-7.5l1.4-6H26V26.8z"/>
	<path fill="#252828" d="M16,32h11.5c1.9,0,2.5-1.5,2.5-3.4V24h19v-7H5v7 M26,26.8c0,1.5-0.2,3.2-1.7,3.2h-7.5l1.4-6H26V26.8z"/>
	<polygon fill="#2ABA9E" points="22,29 20.7,29 19.5,25 22,25 	"/>
	<polyline fill="#1A9992" points="20,25 22,25 22,29 	"/>
	<polygon fill="#2ABA9E" points="52.3,4 51.2,8 7.4,8 5.4,16 54,16 54,8.3 54,8.1 54,4 	"/>
	<g>
		<path fill="#2ABA9E" d="M9.6,27H4.3l-0.5,2h5.8c0.4,0,0.7-0.6,0.7-1C10.3,27.6,10,27,9.6,27z"/>
		<path fill="#2ABA9E" d="M8.6,31H3.3l-0.5,2h5.8c0.4,0,0.7-0.6,0.7-1C9.3,31.6,9,31,8.6,31z"/>
		<path fill="#2ABA9E" d="M7.6,35H2.3l-0.5,2h5.8c0.4,0,0.7-0.6,0.7-1C8.3,35.6,8,35,7.6,35z"/>
	</g>
	<path fill="#252828" d="M50,23c0,0.6-0.4,1-1,1l0,0c-0.6,0-1-0.4-1-1v-5c0-0.6,0.4-1,1-1l0,0c0.6,0,1,0.4,1,1V23z"/>
	<polygon fill="#1A9992" points="6.7,11 5.4,16 54,16 54,11 	"/>
	<path fill="#2ABA9E" d="M54,15.2c0,0.4-0.6,0.8-1,0.8l0,0c-0.4,0-1-0.4-1-0.8v-3.4c0-0.4,0.6-0.8,1-0.8l0,0c0.4,0,1,0.4,1,0.8V15.2
		z"/>
	<g>
		<g>
			<path fill="#4C5254" d="M5,46h3v7.3c0,1.8,1.3,3,3.1,3s3.1-1.3,3.1-3.3h3c0,4-2.7,6.3-6.1,6.3S5,56.7,5,53.3V46z"/>
		</g>
		<path fill="#252828" d="M15.6,54.8c0.8,0,1.5-0.7,1.5-1.5c0-1.8,1.7-3.2,3.4-3.2s3.4,1.4,3.4,3.2V60h3v-6.7c0-3.4-3-6.2-6.4-6.2
			s-6.4,2.8-6.4,6.2C14.1,54.2,14.8,54.8,15.6,54.8z"/>
	</g>
	<circle fill="#2ABA9E" cx="28.4" cy="20.5" r="0.9"/>
	<circle fill="#2ABA9E" cx="33.3" cy="20.5" r="0.9"/>
	<circle fill="#2ABA9E" cx="38.2" cy="20.5" r="0.9"/>
	<path fill="#EA1F0A" d="M55,24.3c-2.1,0-3.9-1.7-3.9-3.9s1.7-3.9,3.9-3.9"/>
	<path fill="#FF5512" d="M63,20h-9.1c-0.5,0-0.8,0-0.8,0.5c0,0.5,0.4,0.5,0.8,0.5H63V20z"/>
</g>
</svg>
