<?xml version="1.0" encoding="utf-8"?>
<!-- Generator: Adobe Illustrator 16.0.0, SVG Export Plug-In . SVG Version: 6.00 Build 0)  -->
<!DOCTYPE svg PUBLIC "-//W3C//DTD SVG 1.1//EN" "http://www.w3.org/Graphics/SVG/1.1/DTD/svg11.dtd">
<svg version="1.1" id="Layer_1" xmlns="http://www.w3.org/2000/svg" xmlns:xlink="http://www.w3.org/1999/xlink" x="0px" y="0px"
	 width="64px" height="64px" viewBox="0 0 64 64" enable-background="new 0 0 64 64" xml:space="preserve">
<g>
	<rect x="1" y="37" fill="#009AAF" width="62" height="25"/>
	<polyline fill="#006884" points="1,37 63,37 63,62 	"/>
	<path fill="#006884" d="M53,16.4C53,22.1,45.7,27,40.1,27H23.9C18.3,27,11,22.1,11,16.4v-4.5C11,6.2,18.3,2,23.9,2h16.1
		C45.7,2,53,6.2,53,11.9V16.4z"/>
	<path fill="#07BED6" d="M63,38.1c0,1.6-1.4,2.9-3,2.9H4c-1.6,0-3-1.3-3-2.9V11.8C1,10.2,2.4,9,4,9H60c1.6,0,3,1.2,3,2.8V38.1z"/>
	<path fill="#009AAF" d="M1,11.8C1,10.2,2.4,9,4,9H60c1.6,0,3,1.2,3,2.8v26.3c0,1.6-1.4,2.9-3,2.9"/>
	<path fill="#D6D5CC" d="M58,33.6c0,1.1-0.5,1.4-1.5,1.4h-49C6.5,35,6,34.6,6,33.6V16.4c0-1,0.5-2.4,1.5-2.4h49
		c1.1,0,1.5,1.3,1.5,2.4V33.6z"/>
	<path fill="#F4F2E4" d="M58,33.4c0,1.1-0.5,1.6-1.5,1.6h-49C6.5,35,6,34.5,6,33.4V19.3C6,18.1,6.5,17,7.5,17h49
		c1.1,0,1.5,1.1,1.5,2.3V33.4z"/>
	<g>
		<g>
			<g>
				<path fill="#D6D5CC" d="M12.9,33.6c-0.1,0-0.2,0-0.3,0c-0.2,0-0.3-0.1-0.5-0.1c-0.2-0.1-0.3-0.2-0.4-0.3
					c-0.1-0.1-0.2-0.3-0.2-0.6c0,0,0-0.1,0-0.1c0,0,0-0.1,0-0.1c0.1-0.7,0.2-1.4,0.5-2.1c0.2-0.7,0.5-1.4,0.9-2.2s0.7-1.5,1.2-2.2
					c0.4-0.8,0.9-1.5,1.4-2.3c-0.4-0.1-0.7-0.1-0.9-0.2c-0.2-0.1-0.4-0.1-0.6-0.2C13.7,23,13.6,23,13.4,23c-0.1,0-0.3,0-0.5,0
					c-0.2,0-0.4,0-0.6,0c-0.2,0-0.3,0-0.4,0.1c-0.1,0.1-0.2,0.1-0.3,0.2c-0.1,0.1-0.2,0.2-0.3,0.4c-0.2,0.4-0.4,0.6-0.5,0.8
					c-0.1,0.2-0.3,0.3-0.4,0.3c-0.1,0-0.2,0-0.3-0.1s-0.1-0.2-0.1-0.4c0-0.1,0-0.2,0-0.2c0-0.1,0-0.2,0-0.3c0.1-0.7,0.2-1.2,0.4-1.6
					c0.2-0.4,0.4-0.7,0.6-1c0.2-0.2,0.5-0.4,0.8-0.5c0.3-0.1,0.5-0.2,0.8-0.2c0.3,0,0.6,0,0.8,0.1c0.3,0.1,0.6,0.1,0.8,0.2
					c0.3,0.1,0.6,0.2,0.9,0.2c0.3,0.1,0.6,0.1,0.9,0.1c0.2,0,0.3,0,0.4,0c0.1,0,0.2,0,0.3,0c0.3,0,0.5,0,0.7-0.1
					c0.2,0,0.3,0,0.4-0.1c0.1,0,0.2,0,0.2-0.1c0,0,0.1,0,0.1,0c0.3,0,0.5,0.1,0.6,0.2c0.1,0.2,0.2,0.4,0.2,0.7c0,0.2,0,0.4,0,0.7
					c0,0-0.1,0.1-0.2,0.2c-0.1,0.1-0.2,0.2-0.4,0.3c-0.1,0.1-0.3,0.2-0.4,0.3c-0.1,0.1-0.3,0.2-0.3,0.2c-0.4,0.7-0.8,1.4-1.1,2.1
					c-0.3,0.7-0.6,1.4-0.8,2.1c-0.2,0.7-0.4,1.5-0.6,2.2c-0.2,0.8-0.4,1.6-0.6,2.5c0,0.2-0.1,0.4-0.3,0.5c-0.1,0.1-0.3,0.2-0.5,0.3
					s-0.4,0.1-0.6,0.2C13.2,33.6,13.1,33.6,12.9,33.6z"/>
			</g>
			<path fill="#D6D5CC" d="M14.6,24.7c-0.2,0.4-0.5,0.7-0.7,1.1c-0.4,0.8-0.8,1.5-1.2,2.2s-0.6,1.5-0.9,2.2
				c-0.2,0.7-0.4,1.4-0.5,2.1c0,0,0,0.1,0,0.1c0,0,0,0.1,0,0.1c0,0.3,0.1,0.5,0.2,0.6c0.1,0.1,0.3,0.3,0.4,0.3
				c0.2,0.1,0.3,0.1,0.5,0.1c0.2,0,0.3,0,0.3,0c0.2,0,0.3,0,0.5-0.1c0.2,0,0.4-0.1,0.6-0.2s0.3-0.2,0.5-0.3c0.1-0.1,0.2-0.3,0.3-0.5
				c0.2-0.9,0.4-1.7,0.6-2.5c0.2-0.8,0.4-1.5,0.6-2.2c0.2-0.7,0.5-1.4,0.8-2.1c0.3-0.7,0.7-1.4,1.1-2.1c0,0,0.1-0.1,0.1-0.1
				L14.6,24.7z"/>
		</g>
		<g>
			<g>
				<path fill="#D6D5CC" d="M30.3,33.6c-0.1,0-0.2,0-0.3,0c-0.2,0-0.3-0.1-0.5-0.1c-0.2-0.1-0.3-0.2-0.4-0.3
					c-0.1-0.1-0.2-0.3-0.2-0.6c0,0,0-0.1,0-0.1c0,0,0-0.1,0-0.1c0.1-0.7,0.2-1.4,0.5-2.1c0.2-0.7,0.5-1.4,0.9-2.2s0.7-1.5,1.2-2.2
					c0.4-0.8,0.9-1.5,1.4-2.3c-0.4-0.1-0.7-0.1-0.9-0.2c-0.2-0.1-0.4-0.1-0.6-0.2C31.1,23,30.9,23,30.8,23c-0.1,0-0.3,0-0.5,0
					c-0.2,0-0.4,0-0.6,0c-0.2,0-0.3,0-0.4,0.1c-0.1,0.1-0.2,0.1-0.3,0.2c-0.1,0.1-0.2,0.2-0.3,0.4c-0.2,0.4-0.4,0.6-0.5,0.8
					c-0.1,0.2-0.3,0.3-0.4,0.3c-0.1,0-0.2,0-0.3-0.1s-0.1-0.2-0.1-0.4c0-0.1,0-0.2,0-0.2c0-0.1,0-0.2,0-0.3c0.1-0.7,0.2-1.2,0.4-1.6
					c0.2-0.4,0.4-0.7,0.6-1c0.2-0.2,0.5-0.4,0.8-0.5c0.3-0.1,0.5-0.2,0.8-0.2c0.3,0,0.6,0,0.8,0.1c0.3,0.1,0.6,0.1,0.8,0.2
					c0.3,0.1,0.6,0.2,0.9,0.2c0.3,0.1,0.6,0.1,0.9,0.1c0.2,0,0.3,0,0.4,0c0.1,0,0.2,0,0.3,0c0.3,0,0.5,0,0.7-0.1
					c0.2,0,0.3,0,0.4-0.1c0.1,0,0.2,0,0.2-0.1c0,0,0.1,0,0.1,0c0.3,0,0.5,0.1,0.6,0.2c0.1,0.2,0.2,0.4,0.2,0.7c0,0.2,0,0.4,0,0.7
					c0,0-0.1,0.1-0.2,0.2c-0.1,0.1-0.2,0.2-0.4,0.3c-0.1,0.1-0.3,0.2-0.4,0.3c-0.1,0.1-0.3,0.2-0.3,0.2c-0.4,0.7-0.8,1.4-1.1,2.1
					c-0.3,0.7-0.6,1.4-0.8,2.1c-0.2,0.7-0.4,1.5-0.6,2.2c-0.2,0.8-0.4,1.6-0.6,2.5c0,0.2-0.1,0.4-0.3,0.5c-0.1,0.1-0.3,0.2-0.5,0.3
					s-0.4,0.1-0.6,0.2C30.6,33.6,30.4,33.6,30.3,33.6z"/>
			</g>
			<path fill="#D6D5CC" d="M32,24.7c-0.2,0.4-0.5,0.7-0.7,1.1c-0.4,0.8-0.8,1.5-1.2,2.2s-0.6,1.5-0.9,2.2c-0.2,0.7-0.4,1.4-0.5,2.1
				c0,0,0,0.1,0,0.1c0,0,0,0.1,0,0.1c0,0.3,0.1,0.5,0.2,0.6c0.1,0.1,0.3,0.3,0.4,0.3c0.2,0.1,0.3,0.1,0.5,0.1c0.2,0,0.3,0,0.3,0
				c0.2,0,0.3,0,0.5-0.1c0.2,0,0.4-0.1,0.6-0.2s0.3-0.2,0.5-0.3c0.1-0.1,0.2-0.3,0.3-0.5c0.2-0.9,0.4-1.7,0.6-2.5
				c0.2-0.8,0.4-1.5,0.6-2.2c0.2-0.7,0.5-1.4,0.8-2.1c0.3-0.7,0.7-1.4,1.1-2.1c0,0,0.1-0.1,0.1-0.1L32,24.7z"/>
		</g>
		<g>
			<g>
				<path fill="#D6D5CC" d="M47.6,33.6c-0.1,0-0.2,0-0.3,0s-0.3-0.1-0.5-0.1c-0.2-0.1-0.3-0.2-0.4-0.3c-0.1-0.1-0.2-0.3-0.2-0.6
					c0,0,0-0.1,0-0.1c0,0,0-0.1,0-0.1c0.1-0.7,0.2-1.4,0.5-2.1c0.2-0.7,0.5-1.4,0.9-2.2s0.7-1.5,1.2-2.2c0.4-0.8,0.9-1.5,1.4-2.3
					c-0.4-0.1-0.7-0.1-0.9-0.2s-0.4-0.1-0.6-0.2C48.5,23,48.3,23,48.2,23s-0.3,0-0.5,0c-0.2,0-0.4,0-0.6,0c-0.2,0-0.3,0-0.4,0.1
					c-0.1,0.1-0.2,0.1-0.3,0.2c-0.1,0.1-0.2,0.2-0.3,0.4c-0.2,0.4-0.4,0.6-0.5,0.8c-0.1,0.2-0.3,0.3-0.4,0.3c-0.1,0-0.2,0-0.3-0.1
					s-0.1-0.2-0.1-0.4c0-0.1,0-0.2,0-0.2c0-0.1,0-0.2,0-0.3c0.1-0.7,0.2-1.2,0.4-1.6c0.2-0.4,0.4-0.7,0.6-1c0.2-0.2,0.5-0.4,0.8-0.5
					c0.3-0.1,0.5-0.2,0.8-0.2c0.3,0,0.6,0,0.8,0.1c0.3,0.1,0.6,0.1,0.8,0.2c0.3,0.1,0.6,0.2,0.9,0.2c0.3,0.1,0.6,0.1,0.9,0.1
					c0.2,0,0.3,0,0.4,0c0.1,0,0.2,0,0.3,0c0.3,0,0.5,0,0.7-0.1c0.2,0,0.3,0,0.4-0.1c0.1,0,0.2,0,0.2-0.1s0.1,0,0.1,0
					c0.3,0,0.5,0.1,0.6,0.2c0.1,0.2,0.2,0.4,0.2,0.7c0,0.2,0,0.4,0,0.7c0,0-0.1,0.1-0.2,0.2c-0.1,0.1-0.2,0.2-0.4,0.3
					c-0.1,0.1-0.3,0.2-0.4,0.3c-0.1,0.1-0.3,0.2-0.3,0.2c-0.4,0.7-0.8,1.4-1.1,2.1c-0.3,0.7-0.6,1.4-0.8,2.1
					c-0.2,0.7-0.4,1.5-0.6,2.2c-0.2,0.8-0.4,1.6-0.6,2.5c0,0.2-0.1,0.4-0.3,0.5c-0.1,0.1-0.3,0.2-0.5,0.3s-0.4,0.1-0.6,0.2
					C48,33.6,47.8,33.6,47.6,33.6z"/>
			</g>
			<path fill="#D6D5CC" d="M49.3,24.7c-0.2,0.4-0.5,0.7-0.7,1.1c-0.4,0.8-0.8,1.5-1.2,2.2s-0.6,1.5-0.9,2.2
				c-0.2,0.7-0.4,1.4-0.5,2.1c0,0,0,0.1,0,0.1c0,0,0,0.1,0,0.1c0,0.3,0.1,0.5,0.2,0.6c0.1,0.1,0.3,0.3,0.4,0.3
				c0.2,0.1,0.3,0.1,0.5,0.1s0.3,0,0.3,0c0.2,0,0.3,0,0.5-0.1c0.2,0,0.4-0.1,0.6-0.2s0.3-0.2,0.5-0.3c0.1-0.1,0.2-0.3,0.3-0.5
				c0.2-0.9,0.4-1.7,0.6-2.5c0.2-0.8,0.4-1.5,0.6-2.2c0.2-0.7,0.5-1.4,0.8-2.1c0.3-0.7,0.7-1.4,1.1-2.1c0,0,0.1-0.1,0.1-0.1
				L49.3,24.7z"/>
		</g>
	</g>
	<g>
		<g>
			<g>
				<path fill="#ED6E0F" d="M12.9,31.8c-0.1,0-0.2,0-0.3,0c-0.2,0-0.3-0.1-0.5-0.1c-0.2-0.1-0.3-0.2-0.4-0.3
					c-0.1-0.1-0.2-0.3-0.2-0.6c0,0,0-0.1,0-0.1c0,0,0-0.1,0-0.1c0.1-0.7,0.2-1.4,0.5-2.1c0.2-0.7,0.5-1.4,0.9-2.2s0.7-1.5,1.2-2.2
					c0.4-0.8,0.9-1.5,1.4-2.3c-0.4-0.1-0.7-0.1-0.9-0.2c-0.2-0.1-0.4-0.1-0.6-0.2c-0.2-0.1-0.3-0.1-0.5-0.1c-0.1,0-0.3,0-0.5,0
					c-0.2,0-0.4,0-0.6,0c-0.2,0-0.3,0-0.4,0.1c-0.1,0.1-0.2,0.1-0.3,0.2c-0.1,0.1-0.2,0.2-0.3,0.4c-0.2,0.4-0.4,0.6-0.5,0.8
					c-0.1,0.2-0.3,0.3-0.4,0.3c-0.1,0-0.2,0-0.3-0.1s-0.1-0.2-0.1-0.4c0-0.1,0-0.2,0-0.2c0-0.1,0-0.2,0-0.3c0.1-0.7,0.2-1.2,0.4-1.6
					c0.2-0.4,0.4-0.7,0.6-1c0.2-0.2,0.5-0.4,0.8-0.5c0.3-0.1,0.5-0.2,0.8-0.2c0.3,0,0.6,0,0.8,0.1c0.3,0.1,0.6,0.1,0.8,0.2
					c0.3,0.1,0.6,0.2,0.9,0.2c0.3,0.1,0.6,0.1,0.9,0.1c0.2,0,0.3,0,0.4,0c0.1,0,0.2,0,0.3,0c0.3,0,0.5,0,0.7-0.1
					c0.2,0,0.3,0,0.4-0.1c0.1,0,0.2,0,0.2-0.1c0,0,0.1,0,0.1,0c0.3,0,0.5,0.1,0.6,0.2c0.1,0.2,0.2,0.4,0.2,0.7c0,0.2,0,0.4,0,0.7
					c0,0-0.1,0.1-0.2,0.2c-0.1,0.1-0.2,0.2-0.4,0.3c-0.1,0.1-0.3,0.2-0.4,0.3c-0.1,0.1-0.3,0.2-0.3,0.2c-0.4,0.7-0.8,1.4-1.1,2.1
					c-0.3,0.7-0.6,1.4-0.8,2.1c-0.2,0.7-0.4,1.5-0.6,2.2c-0.2,0.8-0.4,1.6-0.6,2.5c0,0.2-0.1,0.4-0.3,0.5c-0.1,0.1-0.3,0.2-0.5,0.3
					s-0.4,0.1-0.6,0.2C13.2,31.7,13.1,31.8,12.9,31.8z"/>
			</g>
			<path fill="#C65202" d="M14.6,22.9c-0.2,0.4-0.5,0.7-0.7,1.1c-0.4,0.8-0.8,1.5-1.2,2.2s-0.6,1.5-0.9,2.2
				c-0.2,0.7-0.4,1.4-0.5,2.1c0,0,0,0.1,0,0.1c0,0,0,0.1,0,0.1c0,0.3,0.1,0.5,0.2,0.6c0.1,0.1,0.3,0.3,0.4,0.3
				c0.2,0.1,0.3,0.1,0.5,0.1c0.2,0,0.3,0,0.3,0c0.2,0,0.3,0,0.5-0.1c0.2,0,0.4-0.1,0.6-0.2s0.3-0.2,0.5-0.3c0.1-0.1,0.2-0.3,0.3-0.5
				c0.2-0.9,0.4-1.7,0.6-2.5c0.2-0.8,0.4-1.5,0.6-2.2c0.2-0.7,0.5-1.4,0.8-2.1c0.3-0.7,0.7-1.4,1.1-2.1c0,0,0.1-0.1,0.1-0.1
				L14.6,22.9z"/>
		</g>
		<g>
			<g>
				<path fill="#ED6E0F" d="M30.3,31.8c-0.1,0-0.2,0-0.3,0c-0.2,0-0.3-0.1-0.5-0.1c-0.2-0.1-0.3-0.2-0.4-0.3
					c-0.1-0.1-0.2-0.3-0.2-0.6c0,0,0-0.1,0-0.1c0,0,0-0.1,0-0.1c0.1-0.7,0.2-1.4,0.5-2.1c0.2-0.7,0.5-1.4,0.9-2.2s0.7-1.5,1.2-2.2
					c0.4-0.8,0.9-1.5,1.4-2.3c-0.4-0.1-0.7-0.1-0.9-0.2c-0.2-0.1-0.4-0.1-0.6-0.2c-0.2-0.1-0.3-0.1-0.5-0.1c-0.1,0-0.3,0-0.5,0
					c-0.2,0-0.4,0-0.6,0c-0.2,0-0.3,0-0.4,0.1c-0.1,0.1-0.2,0.1-0.3,0.2c-0.1,0.1-0.2,0.2-0.3,0.4c-0.2,0.4-0.4,0.6-0.5,0.8
					C28.1,22.9,28,23,27.9,23c-0.1,0-0.2,0-0.3-0.1s-0.1-0.2-0.1-0.4c0-0.1,0-0.2,0-0.2c0-0.1,0-0.2,0-0.3c0.1-0.7,0.2-1.2,0.4-1.6
					c0.2-0.4,0.4-0.7,0.6-1c0.2-0.2,0.5-0.4,0.8-0.5c0.3-0.1,0.5-0.2,0.8-0.2c0.3,0,0.6,0,0.8,0.1c0.3,0.1,0.6,0.1,0.8,0.2
					c0.3,0.1,0.6,0.2,0.9,0.2c0.3,0.1,0.6,0.1,0.9,0.1c0.2,0,0.3,0,0.4,0c0.1,0,0.2,0,0.3,0c0.3,0,0.5,0,0.7-0.1
					c0.2,0,0.3,0,0.4-0.1c0.1,0,0.2,0,0.2-0.1c0,0,0.1,0,0.1,0c0.3,0,0.5,0.1,0.6,0.2c0.1,0.2,0.2,0.4,0.2,0.7c0,0.2,0,0.4,0,0.7
					c0,0-0.1,0.1-0.2,0.2c-0.1,0.1-0.2,0.2-0.4,0.3c-0.1,0.1-0.3,0.2-0.4,0.3c-0.1,0.1-0.3,0.2-0.3,0.2c-0.4,0.7-0.8,1.4-1.1,2.1
					c-0.3,0.7-0.6,1.4-0.8,2.1c-0.2,0.7-0.4,1.5-0.6,2.2c-0.2,0.8-0.4,1.6-0.6,2.5c0,0.2-0.1,0.4-0.3,0.5c-0.1,0.1-0.3,0.2-0.5,0.3
					s-0.4,0.1-0.6,0.2C30.6,31.7,30.4,31.8,30.3,31.8z"/>
			</g>
			<path fill="#C65202" d="M32,22.9c-0.2,0.4-0.5,0.7-0.7,1.1c-0.4,0.8-0.8,1.5-1.2,2.2s-0.6,1.5-0.9,2.2c-0.2,0.7-0.4,1.4-0.5,2.1
				c0,0,0,0.1,0,0.1c0,0,0,0.1,0,0.1c0,0.3,0.1,0.5,0.2,0.6c0.1,0.1,0.3,0.3,0.4,0.3c0.2,0.1,0.3,0.1,0.5,0.1c0.2,0,0.3,0,0.3,0
				c0.2,0,0.3,0,0.5-0.1c0.2,0,0.4-0.1,0.6-0.2s0.3-0.2,0.5-0.3c0.1-0.1,0.2-0.3,0.3-0.5c0.2-0.9,0.4-1.7,0.6-2.5
				c0.2-0.8,0.4-1.5,0.6-2.2c0.2-0.7,0.5-1.4,0.8-2.1c0.3-0.7,0.7-1.4,1.1-2.1c0,0,0.1-0.1,0.1-0.1L32,22.9z"/>
		</g>
		<g>
			<g>
				<path fill="#ED6E0F" d="M47.6,31.8c-0.1,0-0.2,0-0.3,0s-0.3-0.1-0.5-0.1c-0.2-0.1-0.3-0.2-0.4-0.3c-0.1-0.1-0.2-0.3-0.2-0.6
					c0,0,0-0.1,0-0.1c0,0,0-0.1,0-0.1c0.1-0.7,0.2-1.4,0.5-2.1c0.2-0.7,0.5-1.4,0.9-2.2s0.7-1.5,1.2-2.2c0.4-0.8,0.9-1.5,1.4-2.3
					c-0.4-0.1-0.7-0.1-0.9-0.2s-0.4-0.1-0.6-0.2c-0.2-0.1-0.3-0.1-0.5-0.1s-0.3,0-0.5,0c-0.2,0-0.4,0-0.6,0c-0.2,0-0.3,0-0.4,0.1
					c-0.1,0.1-0.2,0.1-0.3,0.2c-0.1,0.1-0.2,0.2-0.3,0.4c-0.2,0.4-0.4,0.6-0.5,0.8c-0.1,0.2-0.3,0.3-0.4,0.3c-0.1,0-0.2,0-0.3-0.1
					s-0.1-0.2-0.1-0.4c0-0.1,0-0.2,0-0.2c0-0.1,0-0.2,0-0.3c0.1-0.7,0.2-1.2,0.4-1.6c0.2-0.4,0.4-0.7,0.6-1c0.2-0.2,0.5-0.4,0.8-0.5
					c0.3-0.1,0.5-0.2,0.8-0.2c0.3,0,0.6,0,0.8,0.1c0.3,0.1,0.6,0.1,0.8,0.2c0.3,0.1,0.6,0.2,0.9,0.2c0.3,0.1,0.6,0.1,0.9,0.1
					c0.2,0,0.3,0,0.4,0c0.1,0,0.2,0,0.3,0c0.3,0,0.5,0,0.7-0.1c0.2,0,0.3,0,0.4-0.1c0.1,0,0.2,0,0.2-0.1s0.1,0,0.1,0
					c0.3,0,0.5,0.1,0.6,0.2c0.1,0.2,0.2,0.4,0.2,0.7c0,0.2,0,0.4,0,0.7c0,0-0.1,0.1-0.2,0.2c-0.1,0.1-0.2,0.2-0.4,0.3
					c-0.1,0.1-0.3,0.2-0.4,0.3c-0.1,0.1-0.3,0.2-0.3,0.2c-0.4,0.7-0.8,1.4-1.1,2.1c-0.3,0.7-0.6,1.4-0.8,2.1
					c-0.2,0.7-0.4,1.5-0.6,2.2c-0.2,0.8-0.4,1.6-0.6,2.5c0,0.2-0.1,0.4-0.3,0.5c-0.1,0.1-0.3,0.2-0.5,0.3s-0.4,0.1-0.6,0.2
					C48,31.7,47.8,31.8,47.6,31.8z"/>
			</g>
			<path fill="#C65202" d="M49.3,22.9c-0.2,0.4-0.5,0.7-0.7,1.1c-0.4,0.8-0.8,1.5-1.2,2.2s-0.6,1.5-0.9,2.2
				c-0.2,0.7-0.4,1.4-0.5,2.1c0,0,0,0.1,0,0.1c0,0,0,0.1,0,0.1c0,0.3,0.1,0.5,0.2,0.6c0.1,0.1,0.3,0.3,0.4,0.3
				c0.2,0.1,0.3,0.1,0.5,0.1s0.3,0,0.3,0c0.2,0,0.3,0,0.5-0.1c0.2,0,0.4-0.1,0.6-0.2s0.3-0.2,0.5-0.3c0.1-0.1,0.2-0.3,0.3-0.5
				c0.2-0.9,0.4-1.7,0.6-2.5c0.2-0.8,0.4-1.5,0.6-2.2c0.2-0.7,0.5-1.4,0.8-2.1c0.3-0.7,0.7-1.4,1.1-2.1c0,0,0.1-0.1,0.1-0.1
				L49.3,22.9z"/>
		</g>
	</g>
	<g>
		<path fill="#009AAF" d="M24,36.8c0,0.5-0.5,0.9-1,0.9l0,0c-0.5,0-1-0.4-1-0.9V14c0-0.5,0.5-0.9,1-0.9l0,0c0.5,0,1,0.4,1,0.9V36.8z
			"/>
		<path fill="#009AAF" d="M42,36.8c0,0.5-0.5,0.9-1,0.9l0,0c-0.5,0-1-0.4-1-0.9V14c0-0.5,0.5-0.9,1-0.9l0,0c0.5,0,1,0.4,1,0.9V36.8z
			"/>
	</g>
	<ellipse transform="matrix(0.9015 -0.4328 0.4328 0.9015 -0.3256 8.8234)" fill="#009AAF" cx="19.2" cy="5.1" rx="4.7" ry="1.1"/>
	<g>
		<rect x="30" y="54" fill="#4C5254" width="4" height="8"/>
		<polyline fill="#202D2A" points="30,54 34,54 34,61 		"/>
		<circle fill="#EA1F0A" cx="32" cy="44.3" r="8.1"/>
		
			<ellipse transform="matrix(0.7069 -0.7073 0.7073 0.7069 -19.8162 31.6695)" fill="#EF683F" cx="28.3" cy="39.7" rx="2.9" ry="1.4"/>
		<path fill="#AA2011" d="M37.7,38.6c3.2,3.2,3.2,8.3,0,11.4c-3.2,3.2-8.3,3.2-11.4,0"/>
		<path fill="#F9B843" d="M37.3,53c0,1-0.8,2-1.7,2h-7.1c-0.9,0-1.7-1-1.7-2l0,0c0-0.9,0.8-2,1.7-2h7.1C36.5,51,37.3,52.1,37.3,53
			L37.3,53z"/>
		<path fill="#E88813" d="M37.3,53.2L37.3,53.2c0,1-0.8,1.8-1.7,1.8h-7.1c-0.9,0-1.7-0.8-1.7-1.8l0,0"/>
	</g>
	<g>
		<circle fill="#006884" cx="7.3" cy="46.3" r="1.6"/>
		<circle fill="#006884" cx="7.3" cy="51.9" r="1.6"/>
		<circle fill="#006884" cx="7.3" cy="57.5" r="1.6"/>
	</g>
	<g>
		<circle fill="#009AAF" cx="56.7" cy="46.3" r="1.6"/>
		<circle fill="#009AAF" cx="56.7" cy="51.9" r="1.6"/>
		<circle fill="#009AAF" cx="56.7" cy="57.5" r="1.6"/>
	</g>
</g>
</svg>
