<?xml version="1.0" encoding="utf-8"?>
<!-- Generator: Adobe Illustrator 16.0.0, SVG Export Plug-In . SVG Version: 6.00 Build 0)  -->
<!DOCTYPE svg PUBLIC "-//W3C//DTD SVG 1.1//EN" "http://www.w3.org/Graphics/SVG/1.1/DTD/svg11.dtd">
<svg version="1.1" id="Layer_1" xmlns="http://www.w3.org/2000/svg" xmlns:xlink="http://www.w3.org/1999/xlink" x="0px" y="0px"
	 width="64px" height="64px" viewBox="0 0 64 64" enable-background="new 0 0 64 64" xml:space="preserve">
<g>
	<circle fill="#FFC41D" cx="32" cy="32" r="30.2"/>
	<path fill="#EAAA0A" d="M53.3,10.7c11.8,11.8,11.8,30.9,0,42.7c-11.8,11.8-30.9,11.8-42.7,0"/>
	<g>
		<polygon fill="#353A3A" points="45.7,50 18.3,50 19.3,21 44.7,21 		"/>
		<polyline fill="#1E2323" points="20,21 44.7,21 45.7,50 		"/>
		<rect x="15" y="53" fill="#353A3A" width="34" height="7"/>
		<polyline fill="#1E2323" points="15,53 49,53 49,60 		"/>
		<path fill="#353A3A" d="M48,10V6.8c0-1.3-0.7-2.4-2-2.4s-2,1.1-2,2.4V10h-5V6.8c0-1.3-0.7-2.4-2-2.4s-2,1.1-2,2.4V10h-6V6.8
			c0-1.3-0.7-2.4-2-2.4c-1.3,0-2,1.1-2,2.4V10h-5V6.8c0-1.3-0.7-2.3-2-2.3c-1.3,0-2,1-2,2.3V10l0,0v9h32V10L48,10z"/>
		<path fill="#353A3A" d="M14.8,9.8"/>
		<path fill="#1E2323" d="M48,19v-9l0,0V6.8c0-1.3-0.7-2.4-2-2.4s-2,1.1-2,2.4V10h-5V6.8c0-1.3-0.7-2.4-2-2.4s-2,1.1-2,2.4V10h-6
			V6.8c0-1.3-0.7-2.4-2-2.4c-1.3,0-2,1.1-2,2.4V10h-5"/>
		<path fill="#E24F2D" d="M38,48V36.8c0-3.4-2.6-6.1-6-6.1c-3.4,0-6,2.7-6,6.1V48H38z"/>
		<path fill="#CE351B" d="M38,48V36.8c0-3.4-2.7-6.1-6-6.1c-3.4,0-6,2.7-6,6.1"/>
	</g>
	<g>
		<circle fill="#EAAA0A" cx="25.1" cy="14.1" r="1.1"/>
		<circle fill="#EAAA0A" cx="32" cy="14.1" r="1.1"/>
		<circle fill="#EAAA0A" cx="38.9" cy="14.1" r="1.1"/>
	</g>
</g>
</svg>
