<?xml version="1.0" encoding="utf-8"?>
<!-- Generator: Adobe Illustrator 16.0.0, SVG Export Plug-In . SVG Version: 6.00 Build 0)  -->
<!DOCTYPE svg PUBLIC "-//W3C//DTD SVG 1.1//EN" "http://www.w3.org/Graphics/SVG/1.1/DTD/svg11.dtd">
<svg version="1.1" id="Layer_1" xmlns="http://www.w3.org/2000/svg" xmlns:xlink="http://www.w3.org/1999/xlink" x="0px" y="0px"
	 width="64px" height="64px" viewBox="0 0 64 64" enable-background="new 0 0 64 64" xml:space="preserve">
<g>
	<g>
		<path fill="#009AAF" d="M43,54v-2.6c0-1.3-0.7-2.4-2-2.4s-2,1.1-2,2.4V54h-6v-2.6c0-1.3-0.7-2.4-2-2.4s-2,1.1-2,2.4V54h-6v-2.6
			c0-1.3-0.7-2.4-2-2.4s-2,1.1-2,2.4V54h-6v-2.6c0-1.3-0.7-2.4-2-2.4c-1.3,0-2,1.1-2,2.4V54l0,0v9h34V54L43,54z"/>
		<path fill="#006884" d="M43,63v-9l0,0v-2.6c0-1.3-0.7-2.4-2-2.4s-2,1.1-2,2.4V54h-6v-2.6c0-1.3-0.7-2.4-2-2.4s-2,1.1-2,2.4V54h-6
			v-2.6c0-1.3-0.7-2.4-2-2.4s-2,1.1-2,2.4V54h-6"/>
	</g>
	<path fill="#EAAA0A" d="M17,53V9.5c0-0.6-0.4-1.1-1-1.1c-0.6,0-1,0.5-1,1.1V53H17z"/>
	<g>
		<circle fill="#FF5512" cx="15.8" cy="3.8" r="3.1"/>
		<ellipse transform="matrix(0.7638 0.6454 -0.6454 0.7638 4.8031 -8.7062)" fill="#FFCDBD" cx="14.3" cy="2.2" rx="0.4" ry="1.2"/>
		<path fill="#CC3006" d="M18,1.6c1.2,1.2,1.2,3.2,0,4.4c-1.2,1.2-3.2,1.2-4.4,0"/>
	</g>
	<polygon fill="#FF5512" points="18,9.8 18,24.6 45,17.1 	"/>
	<polygon fill="#FF5512" points="36,23.9 36,34.9 55.9,29.4 	"/>
	<polygon fill="#CC3006" points="45,17.1 45,26.4 28.2,21.7 	"/>
	<g>
		<circle fill="#FFFFFF" cx="19" cy="59.2" r="1.1"/>
		<circle fill="#FFFFFF" cx="26" cy="59.2" r="1.1"/>
		<circle fill="#FFFFFF" cx="33" cy="59.2" r="1.1"/>
	</g>
</g>
</svg>
