<?xml version="1.0" encoding="utf-8"?>
<!-- Generator: Adobe Illustrator 16.0.0, SVG Export Plug-In . SVG Version: 6.00 Build 0)  -->
<!DOCTYPE svg PUBLIC "-//W3C//DTD SVG 1.1//EN" "http://www.w3.org/Graphics/SVG/1.1/DTD/svg11.dtd">
<svg version="1.1" id="Layer_1" xmlns="http://www.w3.org/2000/svg" xmlns:xlink="http://www.w3.org/1999/xlink" x="0px" y="0px"
	 width="64px" height="64px" viewBox="0 0 64 64" enable-background="new 0 0 64 64" xml:space="preserve">
<g>
	<path fill="#EAE9DA" d="M61,48.3c0,7-5.7,12.7-12.7,12.7H14.7C7.7,61,2,55.3,2,48.3V14.7C2,7.7,7.7,2,14.7,2h33.6
		C55.3,2,61,7.7,61,14.7V48.3z"/>
	<path fill="#DBD8C3" d="M15,2h33.9C55.9,2,62,8.1,62,15.1v33.7c0,7-6,12.5-13,12.5"/>
	<polygon fill="#EA1F0A" points="22.7,21.7 19.3,18.3 22.7,15 19.9,12.3 16.6,15.6 13.3,12.3 10.5,15 13.9,18.3 10.5,21.7 
		13.3,24.4 16.6,21.1 19.9,24.4 	"/>
	<polyline fill="#CE0A00" points="13.3,24.4 16.6,21.1 19.9,24.4 22.7,21.7 19.3,18.3 22.7,15 19.9,12.3 16.6,15.6 	"/>
	<path fill="#EA1F0A" d="M13.9,18.3"/>
	<polygon fill="#049CBF" points="41.1,48.2 46,56 54.5,56 41.1,34.8 27,56 36,56 	"/>
	<polyline fill="#047BA0" points="41.1,48.2 46,56 54.5,56 41.1,34.7 	"/>
	<path fill="#8C8B83" d="M18,48.5c0,0.8-0.7,1.5-1.5,1.5l0,0c-0.8,0-1.5-0.7-1.5-1.5v-21c0-0.8,0.7-1.5,1.5-1.5l0,0
		c0.8,0,1.5,0.7,1.5,1.5V48.5z"/>
	<path fill="#8C8B83" d="M26.1,20c-0.9,0-1.6-0.6-1.6-1.5l0,0c0-0.9,0.7-1.5,1.6-1.5h20.2c0.9,0,1.6,0.6,1.6,1.5l0,0
		c0,0.9-0.7,1.5-1.6,1.5H26.1z"/>
	<path fill="#8C8B83" d="M24.9,47c0.9,0,1.6,0.6,1.6,1.5l0,0c0,0.9-0.7,1.5-1.6,1.5h-8.2c-0.9,0-1.6-0.6-1.6-1.5l0,0
		c0-0.9,0.7-1.5,1.6-1.5H24.9z"/>
	<path fill="#8C8B83" d="M45,10.1c0-0.9,0.6-1.6,1.5-1.6l0,0c0.9,0,1.5,0.7,1.5,1.6v8.2c0,0.9-0.6,1.6-1.5,1.6l0,0
		c-0.9,0-1.5-0.7-1.5-1.6V10.1z"/>
</g>
</svg>
