<?xml version="1.0" encoding="utf-8"?>
<!-- Generator: Adobe Illustrator 16.0.0, SVG Export Plug-In . SVG Version: 6.00 Build 0)  -->
<!DOCTYPE svg PUBLIC "-//W3C//DTD SVG 1.1//EN" "http://www.w3.org/Graphics/SVG/1.1/DTD/svg11.dtd">
<svg version="1.1" id="Layer_1" xmlns="http://www.w3.org/2000/svg" xmlns:xlink="http://www.w3.org/1999/xlink" x="0px" y="0px"
	 width="64px" height="64px" viewBox="0 0 64 64" enable-background="new 0 0 64 64" xml:space="preserve">
<g>
	<g>
		<g>
			<g>
				<rect x="26" y="1" fill="#CE351B" width="8" height="8"/>
				<polyline fill="#A50C00" points="26,1 34,1 34,8 				"/>
			</g>
			<g>
				<rect x="35" y="1" fill="#CE351B" width="8" height="8"/>
				<polyline fill="#A50C00" points="35,1 43,1 43,9 				"/>
			</g>
			<g>
				<rect x="44" y="1" fill="#CE351B" width="8" height="8"/>
				<polyline fill="#A50C00" points="44,1 52,1 52,9 				"/>
			</g>
		</g>
		<g>
			<g>
				<rect x="44" y="17" fill="#049CBF" width="8" height="8"/>
				<polyline fill="#047BA0" points="52,17 52,25 44,25 				"/>
			</g>
			<g>
				<rect x="44" y="26" fill="#049CBF" width="8" height="8"/>
				<polyline fill="#047BA0" points="52,26 52,34 44,34 				"/>
			</g>
			<g>
				<rect x="35" y="26" fill="#049CBF" width="8" height="8"/>
				<polyline fill="#047BA0" points="43,26 43,34 35,34 				"/>
			</g>
			<g>
				<rect x="44" y="35" fill="#049CBF" width="8" height="8"/>
				<polyline fill="#047BA0" points="52,35 52,43 44,43 				"/>
			</g>
		</g>
		<g>
			<g>
				<rect x="12" y="1" fill="#34B515" width="8" height="8"/>
				<polyline fill="#129B0B" points="20,1 20,9 12,9 				"/>
			</g>
			<g>
				<rect x="12" y="10" fill="#34B515" width="8" height="8"/>
				<polyline fill="#129B0B" points="20,10 20,18 12,18 				"/>
			</g>
			<g>
				<rect x="12" y="19" fill="#34B515" width="8" height="8"/>
				<polyline fill="#129B0B" points="20,19 20,27 12,27 				"/>
			</g>
			<g>
				<rect x="21" y="19" fill="#34B515" width="8" height="8"/>
				<polyline fill="#129B0B" points="29,19 29,27 21,27 				"/>
			</g>
		</g>
		<g>
			<g>
				<rect x="21" y="43" fill="#D66203" width="8" height="8"/>
				<polyline fill="#EF880C" points="21,51 21,43 29,43 				"/>
			</g>
			<g>
				<rect x="21" y="34" fill="#D66203" width="8" height="8"/>
				<polyline fill="#EF880C" points="21,42 21,34 29,34 				"/>
			</g>
			<g>
				<rect x="12" y="34" fill="#D66203" width="8" height="8"/>
				<polyline fill="#EF880C" points="12,42 12,34 20,34 				"/>
			</g>
		</g>
		<g>
			<g>
				<g>
					<rect x="35" y="55" fill="#835EA5" width="8" height="8"/>
					<polyline fill="#683C96" points="43,55 43,63 35,63 					"/>
				</g>
				<g>
					<rect x="44" y="55" fill="#835EA5" width="8" height="8"/>
					<polyline fill="#683C96" points="52,55 52,63 44,63 					"/>
				</g>
			</g>
			<g>
				<g>
					<rect x="35" y="46" fill="#835EA5" width="8" height="8"/>
					<polyline fill="#683C96" points="43,46 43,54 35,54 					"/>
				</g>
				<g>
					<rect x="44" y="46" fill="#835EA5" width="8" height="8"/>
					<polyline fill="#683C96" points="52,46 52,54 44,54 					"/>
				</g>
			</g>
		</g>
	</g>
	<g>
		<rect x="33" y="14" fill="#353A3A" width="8" height="8"/>
		<polyline fill="#1E2323" points="41,14 41,22 33,22 		"/>
	</g>
</g>
</svg>
