<?xml version="1.0" encoding="utf-8"?>
<!-- Generator: Adobe Illustrator 16.0.0, SVG Export Plug-In . SVG Version: 6.00 Build 0)  -->
<!DOCTYPE svg PUBLIC "-//W3C//DTD SVG 1.1//EN" "http://www.w3.org/Graphics/SVG/1.1/DTD/svg11.dtd">
<svg version="1.1" id="Layer_1" xmlns="http://www.w3.org/2000/svg" xmlns:xlink="http://www.w3.org/1999/xlink" x="0px" y="0px"
	 width="64px" height="64px" viewBox="0 0 64 64" enable-background="new 0 0 64 64" xml:space="preserve">
<g>
	<g>
		<g>
			<path fill="#2F423F" d="M12,18.2c0.5,0.8,0.4,1.8-0.4,2.3l0,0c-0.8,0.5-1.8,0.4-2.3-0.4l-5.6-7.9c-0.5-0.8-0.4-1.8,0.4-2.3l0,0
				c0.8-0.5,1.8-0.4,2.3,0.4L12,18.2z"/>
			<path fill="#2F423F" d="M17.5,16.2c0.4,0.8,0,1.8-0.9,2.2l0,0c-0.8,0.4-1.8,0-2.2-0.9l-3.8-8.9c-0.4-0.8,0-1.8,0.9-2.2l0,0
				c0.8-0.4,1.8,0,2.2,0.9L17.5,16.2z"/>
			<path fill="#2F423F" d="M23.6,15.5c0.2,0.9-0.4,1.8-1.3,1.9l0,0c-0.9,0.2-1.8-0.4-1.9-1.3l-1.8-9.5c-0.2-0.9,0.4-1.8,1.3-1.9l0,0
				c0.9-0.2,1.8,0.4,1.9,1.3L23.6,15.5z"/>
		</g>
		<g>
			<path fill="#2F423F" d="M52,45.8c-0.5-0.8-0.4-1.8,0.4-2.3l0,0c0.8-0.5,1.8-0.4,2.3,0.4l5.6,7.9c0.5,0.8,0.4,1.8-0.4,2.3l0,0
				c-0.8,0.5-1.8,0.4-2.3-0.4L52,45.8z"/>
			<path fill="#2F423F" d="M46.5,47.8c-0.4-0.8,0-1.8,0.9-2.2l0,0c0.8-0.4,1.8,0,2.2,0.9l3.8,8.9c0.4,0.8,0,1.8-0.9,2.2l0,0
				c-0.8,0.4-1.8,0-2.2-0.9L46.5,47.8z"/>
			<path fill="#2F423F" d="M40.4,48.5c-0.2-0.9,0.4-1.8,1.3-1.9l0,0c0.9-0.2,1.8,0.4,1.9,1.3l1.8,9.5c0.2,0.9-0.4,1.8-1.3,1.9l0,0
				c-0.9,0.2-1.8-0.4-1.9-1.3L40.4,48.5z"/>
		</g>
	</g>
	<g>
		<path fill="#2F423F" d="M32,53.7c14.9,0,27.3-9.7,29.7-21.7h0c0,0,0,0,0,0c0,0,0,0,0,0h0C59.3,20,46.9,10.3,32,10.3
			C17.1,10.3,4.7,20,2.3,32h0c0,0,0,0,0,0s0,0,0,0h0C4.7,44,17.1,53.7,32,53.7z"/>
		<path fill="#F7F6ED" d="M32,50c14.9,0,27.3-8,29.7-18h0c0,0,0,0,0,0c0,0,0,0,0,0h0C59.3,22,46.9,14,32,14C17.1,14,4.7,22,2.3,32h0
			c0,0,0,0,0,0s0,0,0,0h0C4.7,42,17.1,50,32,50z"/>
		<path fill="#EAE9DA" d="M2,32h0.3c0,0,0,0,0,0s0,0,0,0h0C4.7,42,17.1,50,32,50c14.9,0,27.3-8,29.7-18h0c0,0,0,0,0,0c0,0,0,0,0,0
			H62"/>
		<g>
			<circle fill="#EF880C" cx="32" cy="32" r="14.1"/>
			<path fill="#ED690F" d="M32,17.9c7.8,0,14.1,6.3,14.1,14.1c0,7.8-6.3,14.1-14.1,14.1"/>
			<circle fill="#5E6664" cx="32" cy="32" r="6.2"/>
			<path fill="#2F423F" d="M36.4,27.6c2.4,2.4,2.4,6.4,0,8.8c-2.4,2.4-6.4,2.4-8.8,0"/>
			<circle fill="#FFFFFF" cx="28.1" cy="27.5" r="3.1"/>
			<path fill="#FFFFFF" d="M37.9,36.1c0,0.8-0.6,1.4-1.4,1.4S35,36.9,35,36.1c0-0.8,0.6-1.4,1.4-1.4S37.9,35.3,37.9,36.1z"/>
		</g>
	</g>
</g>
</svg>
