<?xml version="1.0" encoding="utf-8"?>
<!-- Generator: Adobe Illustrator 16.0.0, SVG Export Plug-In . SVG Version: 6.00 Build 0)  -->
<!DOCTYPE svg PUBLIC "-//W3C//DTD SVG 1.1//EN" "http://www.w3.org/Graphics/SVG/1.1/DTD/svg11.dtd">
<svg version="1.1" id="Layer_1" xmlns="http://www.w3.org/2000/svg" xmlns:xlink="http://www.w3.org/1999/xlink" x="0px" y="0px"
	 width="64px" height="64px" viewBox="0 0 64 64" enable-background="new 0 0 64 64" xml:space="preserve">
<g>
	<rect x="18" y="0.5" fill="#C4185E" width="29.3" height="29.3"/>
	<g>
		<g>
			<g>
				<polyline fill="#A50A42" points="18,0.5 47.4,0.5 47.4,29.9 				"/>
			</g>
			<g>
				<path fill="#FFFFFF" d="M31.4,7.7L31.4,7.7c0.6,0,1.4,0.5,2.3,1.6c0.2,0.1,0.6,0.6,1,1.6c0.7,1.8,1.2,3.3,1.6,4.7
					c0.5,1.1,1,3.4,1.6,6.9l0.1,1c0,0.4-0.2,1.2-0.6,2.5c-0.1,0.3-0.3,0.5-0.6,0.5c-0.4,0.3-0.7,0.5-0.8,0.5H36
					c-0.1,0-0.4-0.2-0.9-0.5v-0.1L35,25.8l0.1-0.2v-0.5c0-0.5-0.4-2.3-1.1-5.3c-0.1-0.2-0.2-0.3-0.4-0.3h-0.1
					c-0.5,0-1.8,0.2-4.1,0.5c-0.4,0.2-0.6,0.4-0.6,0.7l-0.8,1.7c0,0.3-0.5,1.2-1.5,2.6l-0.7,0.6c0,0.1-0.4,0.3-1.1,0.4
					c-0.5-0.1-0.8-0.1-0.8-0.3L23.5,25l-0.1-0.3c0-0.3,0.6-1.3,1.5-3.1c0.4-0.8,1-2.5,1.9-5.1c0.5-0.8,1-2.1,1.5-4.1
					c0.3-0.7,0.6-1.5,0.8-2.4c0.3-1,1-1.8,1.8-2.3L31.4,7.7z M30.2,16.9L30.2,16.9l0.1,0.2c0.7-0.1,1.6-0.2,2.6-0.2
					c0.1-0.1,0.1-0.2,0.1-0.3c0-0.3-0.4-1.5-1.2-3.6l-0.2-0.4c-0.2,0-0.5,0.8-0.8,2.4C30.5,16,30.2,16.6,30.2,16.9z"/>
			</g>
		</g>
		<g>
			<g>
				<rect x="1.3" y="34.1" fill="#29A0E2" width="29.3" height="29.3"/>
				<polyline fill="#0D7DC9" points="1.3,34.1 30.6,34.1 30.6,63.5 				"/>
			</g>
			<g>
				<path fill="#FFFFFF" d="M9.8,39.6h0.5l0.8,1c0.5-0.1,0.8-0.3,0.8-0.5l0.5-0.4h3.5c0.5,0.2,0.8,0.3,0.9,0.3l0.3,0l0.1,0
					c0.3,0.3,0.7,0.7,1.2,1c0.5,0.6,0.9,1.1,1.2,1.7c0.5,0.8,0.8,1.6,0.8,2.4c0,0.4-0.1,0.9-0.3,1.6c0,0.1,0.4,0.5,1.1,1
					c1.4,1.7,2.1,3.1,2.1,4.1c0,0.9-0.3,1.8-0.9,2.5c0,0.1-0.2,0.4-0.7,1.1c-0.1,0.3-0.7,0.9-1.7,1.9c-1.3,0.7-2,1.1-2.1,1.1
					c-1.4,0.4-2.4,0.6-2.9,0.6h-0.3c-0.3,0-1-0.1-1.9-0.2h-0.3c-0.3-0.2-0.5-0.4-0.8-0.4c0-0.2-0.2-0.3-0.7-0.3h-0.1
					c-0.2,0-0.4,0.2-0.6,0.5c-0.1,0.1-0.2,0.2-0.3,0.2c-0.5-0.3-0.7-0.5-0.7-0.7c-0.3-0.4-0.5-2-0.5-4.7v-2.7l0,0l0-0.1l-0.2-8.7
					l0-0.2c0-0.3,0.2-0.7,0.7-1.2c0-0.1,0.2-0.2,0.6-0.5L9.8,39.6z M11.8,54l0,0.9v0.4c0,0.4,0.2,0.6,0.5,0.7
					c1.1,0.4,2.2,0.6,3.5,0.6h0.2c0.9-0.1,1.6-0.4,2-0.7c0.6-0.5,1-1,1.2-1.5c0.5-0.9,0.8-1.8,0.8-2.5v-0.2c0-1-0.4-1.8-1.2-2.6
					C18.5,49,18.4,49,18.3,49h0c-0.2,0-0.6,0.3-1.2,0.9c-0.8,0.4-1.6,0.7-2.7,1c-1.6,0.2-2.4,0.4-2.4,0.6
					C11.9,51.5,11.9,52.3,11.8,54z M12,44.1v0.2l0,1.4l-0.1,2l0.1,0.9h0l1.4-0.3c1.1-0.4,1.8-0.8,2.2-1.1c0.9-0.8,1.4-1.5,1.4-2.3
					v-0.3c0-1-0.5-1.8-1.5-2.2c-0.1-0.1-0.3-0.1-0.5-0.1h-0.3c-0.5,0-1.4,0.5-2.8,1.5L12,44.1z"/>
			</g>
		</g>
		<g>
			<g>
				<rect x="33.4" y="34.1" fill="#6ACE09" width="29.3" height="29.3"/>
				<polyline fill="#3D9B07" points="33.4,34.1 62.7,34.1 62.7,63.5 				"/>
			</g>
			<g>
				<path fill="#FFFFFF" d="M46.4,40.7c0.4,0.1,0.9,0.3,1.6,0.3c1.5,0.7,2.5,1.3,3.1,1.8c1.1,1.1,1.7,2.1,2,3
					c0.1,0.4,0.2,0.9,0.2,1.4c0,0.4-0.4,0.6-1.1,0.6H52c-1,0-1.6-0.2-1.8-0.6c-0.1,0-0.3-0.5-0.4-1.5c-0.2-0.6-0.6-1-1.2-1.4
					c-0.5-0.4-0.8-0.5-1-0.5h-0.3c-0.5,0-1.4,0.6-2.5,1.7c-0.9,1.3-1.4,2.9-1.4,4.5v0c0,1.8,0.4,3.4,1.2,4.8c1,0.9,1.9,1.3,2.9,1.3
					h0.2c1,0,1.8-1,2.4-2.9c0.4-0.6,0.9-1.1,1.6-1.4h0c0.6,0.2,1.1,0.8,1.5,1.8v0.1c0,0.6-0.3,1.5-0.9,2.7c-0.8,1.2-1.9,2-3.3,2.3
					c-0.4,0.1-1.1,0.1-2.1,0.2c-0.4,0-1.3-0.3-2.7-0.9c-0.6-0.3-1.3-0.8-2.1-1.7c-0.7-0.8-1.2-1.9-1.5-3.1c-0.4-1.2-0.5-2.5-0.5-4.1
					v-0.3l0,0l0,0l0-0.2c0-1.4,0.5-3,1.4-4.6c0.7-1,1.6-1.8,2.6-2.5c0.4-0.2,0.7-0.4,0.9-0.6L46.4,40.7z"/>
			</g>
		</g>
		<path fill="#E2E2E2" d="M37.9,22.5c-0.6-3.5-1.1-5.8-1.6-6.9c-0.4-1.3-0.9-2.9-1.6-4.7c-0.4-1-0.8-1.5-1-1.6
			c-0.9-1.1-1.7-1.6-2.3-1.6h0l-0.1,0v5.7c0.2-0.5,0.3-0.7,0.4-0.7l0.2,0.4c0.8,2.1,1.2,3.3,1.2,3.6c0,0.1,0,0.2-0.1,0.3
			c-0.6,0-1.2,0.1-1.7,0.1v2.8c1.2-0.1,1.9-0.2,2.2-0.2h0.1c0.2,0,0.3,0.1,0.4,0.3c0.7,3,1.1,4.8,1.1,5.3v0.5L35,25.8l0.1,0.5v0.1
			c0.5,0.4,0.8,0.5,0.9,0.5h0.1c0.1,0,0.4-0.2,0.8-0.5c0.3,0,0.5-0.2,0.6-0.5c0.4-1.2,0.6-2.1,0.6-2.5L37.9,22.5z"/>
		<path fill="#E2E2E2" d="M21.1,47.5c-0.7-0.6-1.1-0.9-1.1-1c0.2-0.7,0.3-1.2,0.3-1.6c0-0.8-0.3-1.6-0.8-2.4
			c-0.3-0.5-0.7-1.1-1.2-1.7c-0.5-0.3-0.9-0.6-1.2-1L17,40l-0.3,0c-0.1,0-0.4-0.1-0.9-0.3h-1.3v2.8c0.1,0,0.2-0.1,0.3-0.1h0.3
			c0.2,0,0.3,0,0.5,0.1c1,0.4,1.5,1.2,1.5,2.2v0.3c0,0.8-0.5,1.6-1.4,2.3c-0.3,0.2-0.6,0.4-1.1,0.6v3c0.9-0.3,1.8-0.6,2.5-0.9
			c0.6-0.6,1-0.9,1.2-0.9h0c0.1,0,0.2,0.1,0.4,0.2c0.8,0.8,1.2,1.7,1.2,2.6V52c0,0.7-0.3,1.5-0.8,2.5c-0.2,0.5-0.6,1-1.2,1.5
			c-0.4,0.3-1.1,0.5-2,0.7h-0.2c-0.4,0-0.8,0-1.2-0.1V59c0,0,0,0,0,0h0.3c0.5,0,1.5-0.2,2.9-0.6c0.1,0,0.8-0.4,2.1-1.1
			c1-1,1.5-1.6,1.7-1.9c0.5-0.6,0.7-1,0.7-1.1c0.6-0.7,0.9-1.6,0.9-2.5C23.2,50.6,22.5,49.2,21.1,47.5z"/>
		<g>
			<path fill="#E2E2E2" d="M46,44.5c0.6-0.4,1-0.7,1.3-0.7h0.3c0.2,0,0.5,0.2,1,0.5c0.6,0.4,1,0.8,1.2,1.4c0.2,1,0.3,1.5,0.4,1.5
				c0.2,0.4,0.8,0.6,1.8,0.6h0.1c0.7,0,1.1-0.3,1.1-0.6c0-0.5-0.1-1-0.2-1.4c-0.2-0.9-0.9-1.8-2-3c-0.6-0.6-1.6-1.2-3.1-1.8
				c-0.6-0.1-1.2-0.2-1.6-0.3L46,40.7V44.5z"/>
			<path fill="#E2E2E2" d="M51.7,51.9L51.7,51.9c-0.7,0.3-1.3,0.7-1.6,1.4c-0.6,1.9-1.4,2.9-2.4,2.9h-0.2c-0.5,0-1-0.1-1.5-0.4v3
				c0.4,0.1,0.8,0.2,0.9,0.2c1,0,1.7-0.1,2.1-0.2c1.4-0.3,2.5-1.1,3.3-2.3c0.6-1.2,0.9-2.1,0.9-2.7v-0.1
				C52.7,52.7,52.2,52.1,51.7,51.9z"/>
		</g>
	</g>
</g>
</svg>
