<?xml version="1.0" encoding="utf-8"?>
<!-- Generator: Adobe Illustrator 16.0.0, SVG Export Plug-In . SVG Version: 6.00 Build 0)  -->
<!DOCTYPE svg PUBLIC "-//W3C//DTD SVG 1.1//EN" "http://www.w3.org/Graphics/SVG/1.1/DTD/svg11.dtd">
<svg version="1.1" id="Layer_1" xmlns="http://www.w3.org/2000/svg" xmlns:xlink="http://www.w3.org/1999/xlink" x="0px" y="0px"
	 width="64px" height="64px" viewBox="0 0 64 64" enable-background="new 0 0 64 64" xml:space="preserve">
<g>
	<g>
		<path fill="#2FADF4" d="M32,0.4c-2.5,0-4.4,2-4.4,4.4c0,2.5,2,4.4,4.4,4.4s4.4-2,4.4-4.4C36.4,2.4,34.5,0.4,32,0.4z M32,6.4
			c-0.8,0-1.5-0.7-1.5-1.5c0-0.8,0.7-1.5,1.5-1.5c0.8,0,1.5,0.7,1.5,1.5C33.5,5.7,32.8,6.4,32,6.4z"/>
		<g>
			<path fill="#0D7DC9" d="M58.9,40h-5.3c0-12-9.7-21.7-21.7-21.7S10.3,28,10.3,40H5.1c0-15,12.1-26.9,26.9-26.9S58.9,25,58.9,40z"
				/>
		</g>
		<path fill="#2FADF4" d="M32,15c14.2,0,25.9,11,26.8,25h0.1c0-15-12.1-26.9-26.9-26.9S5.1,25,5.1,40h0.1C6.1,26,17.8,15,32,15z"/>
		<g>
			<circle fill="#AAAAAA" cx="32" cy="20.9" r="0.8"/>
			<circle fill="#AAAAAA" cx="32" cy="24.5" r="0.8"/>
			<circle fill="#AAAAAA" cx="32" cy="28.1" r="0.8"/>
			<circle fill="#AAAAAA" cx="32" cy="31.7" r="0.8"/>
			<circle fill="#AAAAAA" cx="32" cy="35.3" r="0.8"/>
			<circle fill="#AAAAAA" cx="32" cy="38.9" r="0.8"/>
		</g>
		<g>
			<polygon fill="#930941" points="32,41.1 34.7,51.3 43.8,49.7 36,57.3 39.3,63.6 32,59.7 24.7,63.6 28,57.3 20.2,49.7 29.3,51.3 
							"/>
		</g>
		<g>
			<g>
				<g>
					<path fill="#AAAAAA" d="M23.2,22.9c0,0.3-0.2,0.5-0.5,0.5c-0.3,0-0.5-0.2-0.5-0.5c0-0.3,0.2-0.5,0.5-0.5
						C23,22.4,23.2,22.7,23.2,22.9z"/>
					<path fill="#AAAAAA" d="M23.2,25.4c0,0.3-0.2,0.5-0.5,0.5c-0.3,0-0.5-0.2-0.5-0.5s0.2-0.5,0.5-0.5C23,24.9,23.2,25.1,23.2,25.4
						z"/>
					<path fill="#AAAAAA" d="M23.2,27.8c0,0.3-0.2,0.5-0.5,0.5c-0.3,0-0.5-0.2-0.5-0.5c0-0.3,0.2-0.5,0.5-0.5
						C23,27.3,23.2,27.5,23.2,27.8z"/>
					<path fill="#AAAAAA" d="M23.2,30.2c0,0.3-0.2,0.5-0.5,0.5c-0.3,0-0.5-0.2-0.5-0.5s0.2-0.5,0.5-0.5C23,29.7,23.2,29.9,23.2,30.2
						z"/>
					<path fill="#AAAAAA" d="M23.2,32.7c0,0.3-0.2,0.5-0.5,0.5c-0.3,0-0.5-0.2-0.5-0.5c0-0.3,0.2-0.5,0.5-0.5
						C23,32.1,23.2,32.4,23.2,32.7z"/>
					<path fill="#AAAAAA" d="M23.2,35.1c0,0.3-0.2,0.5-0.5,0.5c-0.3,0-0.5-0.2-0.5-0.5c0-0.3,0.2-0.5,0.5-0.5
						C23,34.6,23.2,34.8,23.2,35.1z"/>
				</g>
				<g>
					<polygon fill="#59AA04" points="19,39 22.5,37 26,39 26,43.1 22.5,45.2 19,43.1 					"/>
					<polyline fill="#2E8400" points="22.5,37 26,39 26,43.1 22.5,45.2 					"/>
					<polygon fill="#6ACE09" points="22.5,40.9 26,39 22.5,37 19,39 					"/>
				</g>
			</g>
			<g>
				<g>
					<circle fill="#AAAAAA" cx="41.3" cy="22.9" r="0.5"/>
					<circle fill="#AAAAAA" cx="41.3" cy="25.4" r="0.5"/>
					<circle fill="#AAAAAA" cx="41.3" cy="27.8" r="0.5"/>
					<circle fill="#AAAAAA" cx="41.3" cy="30.2" r="0.5"/>
					<circle fill="#AAAAAA" cx="41.3" cy="32.7" r="0.5"/>
					<circle fill="#AAAAAA" cx="41.3" cy="35.1" r="0.5"/>
				</g>
				<g>
					<polygon fill="#D362C8" points="38,39 41.5,37 45,39 45,43.1 41.5,45.2 38,43.1 					"/>
					<polyline fill="#BA3AB4" points="41.5,37 45,39 45,43.1 41.5,45.2 					"/>
					<polygon fill="#F7ADF3" points="41.5,40.9 45,39 41.5,37 38,39 					"/>
				</g>
			</g>
		</g>
		<g>
			<g>
				<g>
					<g>
						<circle fill="#AAAAAA" cx="14.7" cy="31.7" r="0.4"/>
						<circle fill="#AAAAAA" cx="14.7" cy="33.7" r="0.4"/>
						<circle fill="#AAAAAA" cx="14.7" cy="35.8" r="0.4"/>
						<path fill="#AAAAAA" d="M15.1,37.9c0,0.2-0.2,0.4-0.4,0.4c-0.2,0-0.4-0.2-0.4-0.4c0-0.2,0.2-0.4,0.4-0.4
							C14.9,37.4,15.1,37.6,15.1,37.9z"/>
						<circle fill="#AAAAAA" cx="14.7" cy="39.9" r="0.4"/>
						<circle fill="#AAAAAA" cx="14.7" cy="42" r="0.4"/>
					</g>
					<circle fill="#62A7B7" cx="14.7" cy="46.5" r="2.6"/>
					<path fill="#428E9B" d="M14.7,43.9c1.4,0,2.6,1.2,2.6,2.6c0,1.4-1.2,2.6-2.6,2.6"/>
				</g>
			</g>
			<g>
				<g>
					<g>
						<circle fill="#AAAAAA" cx="49.3" cy="31.7" r="0.4"/>
						<circle fill="#AAAAAA" cx="49.3" cy="33.7" r="0.4"/>
						<circle fill="#AAAAAA" cx="49.3" cy="35.8" r="0.4"/>
						<path fill="#AAAAAA" d="M49.8,37.9c0,0.2-0.2,0.4-0.4,0.4c-0.2,0-0.4-0.2-0.4-0.4c0-0.2,0.2-0.4,0.4-0.4
							C49.6,37.4,49.8,37.6,49.8,37.9z"/>
						<circle fill="#AAAAAA" cx="49.3" cy="39.9" r="0.4"/>
						<circle fill="#AAAAAA" cx="49.3" cy="42" r="0.4"/>
					</g>
					<circle fill="#EDBD24" cx="49.3" cy="46.5" r="2.6"/>
					<path fill="#EF9614" d="M49.3,43.9c1.4,0,2.6,1.2,2.6,2.6c0,1.4-1.2,2.6-2.6,2.6"/>
				</g>
			</g>
		</g>
		<g>
			<g>
				<path fill="#D362C8" d="M11,40.5c0,0.8-0.7,1.5-1.5,1.5h-4C4.7,42,4,41.3,4,40.5l0,0C4,39.7,4.7,39,5.5,39h4
					C10.3,39,11,39.7,11,40.5L11,40.5z"/>
				<path fill="#BA3AB4" d="M11,40.5L11,40.5c0,0.9-0.6,1.5-1.5,1.5h-4C4.6,42,4,41.4,4,40.5l0,0"/>
			</g>
			<g>
				<path fill="#D362C8" d="M60,40.5c0,0.8-0.7,1.5-1.5,1.5h-4c-0.8,0-1.5-0.7-1.5-1.5l0,0c0-0.8,0.7-1.5,1.5-1.5h4
					C59.3,39,60,39.7,60,40.5L60,40.5z"/>
				<path fill="#BA3AB4" d="M60,40.5L60,40.5c0,0.9-0.6,1.5-1.5,1.5h-4c-0.9,0-1.5-0.6-1.5-1.5l0,0"/>
			</g>
		</g>
		<path fill="#0D7DC9" d="M33,14.7c0,0.7-0.3,1.3-1,1.3l0,0c-0.7,0-1-0.6-1-1.3v-4.4C31,9.6,31.3,9,32,9l0,0c0.7,0,1,0.6,1,1.3V14.7
			z"/>
		<path fill="#0D7DC9" d="M32,1.2c-2.5,0-4.4,2-4.4,4.4c0,2.5,2,4.4,4.4,4.4s4.4-2,4.4-4.4C36.4,3.2,34.5,1.2,32,1.2z M32,7.2
			c-0.8,0-1.5-0.7-1.5-1.5s0.7-1.5,1.5-1.5c0.8,0,1.5,0.7,1.5,1.5S32.8,7.2,32,7.2z"/>
		<path fill="#0D7DC9" d="M32,1.2c-2.5,0-4.4,2-4.4,4.4c0,2.5,2,4.4,4.4,4.4s4.4-2,4.4-4.4C36.4,3.2,34.5,1.2,32,1.2z M32,7.2
			c-0.8,0-1.5-0.7-1.5-1.5s0.7-1.5,1.5-1.5c0.8,0,1.5,0.7,1.5,1.5S32.8,7.2,32,7.2z"/>
	</g>
	<g>
		<g>
			<g>
				<path fill="#AAAAAA" d="M46,47.8c0,0.2-0.1,0.3-0.3,0.3c-0.2,0-0.3-0.1-0.3-0.3c0-0.2,0.1-0.3,0.3-0.3
					C45.8,47.5,46,47.6,46,47.8z"/>
				<path fill="#AAAAAA" d="M46,49.1c0,0.2-0.1,0.3-0.3,0.3c-0.2,0-0.3-0.1-0.3-0.3c0-0.2,0.1-0.3,0.3-0.3C45.8,48.8,46,49,46,49.1z
					"/>
				<path fill="#AAAAAA" d="M46,50.5c0,0.2-0.1,0.3-0.3,0.3c-0.2,0-0.3-0.1-0.3-0.3c0-0.2,0.1-0.3,0.3-0.3
					C45.8,50.2,46,50.3,46,50.5z"/>
				<path fill="#AAAAAA" d="M46,51.8c0,0.2-0.1,0.3-0.3,0.3c-0.2,0-0.3-0.1-0.3-0.3c0-0.2,0.1-0.3,0.3-0.3
					C45.8,51.5,46,51.7,46,51.8z"/>
				<path fill="#AAAAAA" d="M46,53.2c0,0.2-0.1,0.3-0.3,0.3c-0.2,0-0.3-0.1-0.3-0.3c0-0.2,0.1-0.3,0.3-0.3C45.8,52.9,46,53,46,53.2z
					"/>
				<path fill="#AAAAAA" d="M46,54.5c0,0.2-0.1,0.3-0.3,0.3c-0.2,0-0.3-0.1-0.3-0.3s0.1-0.3,0.3-0.3C45.8,54.2,46,54.4,46,54.5z"/>
			</g>
			<g>
				<polygon fill="#59AA04" points="44,56.7 46,55.6 48,56.7 48,59 46,60.1 44,59 				"/>
				<polyline fill="#2E8400" points="46,55.6 48,56.7 48,59 46,60.1 				"/>
				<polygon fill="#6ACE09" points="46,57.7 48,56.7 46,55.6 44,56.7 				"/>
			</g>
		</g>
		<g>
			<g>
				<circle fill="#AAAAAA" cx="18.3" cy="47.8" r="0.3"/>
				<circle fill="#AAAAAA" cx="18.3" cy="49.1" r="0.3"/>
				<circle fill="#AAAAAA" cx="18.3" cy="50.5" r="0.3"/>
				<circle fill="#AAAAAA" cx="18.3" cy="51.8" r="0.3"/>
				<circle fill="#AAAAAA" cx="18.3" cy="53.2" r="0.3"/>
				<circle fill="#AAAAAA" cx="18.3" cy="54.5" r="0.3"/>
			</g>
			<g>
				<polygon fill="#D362C8" points="16,56.7 18,55.6 20,56.7 20,59 18,60.1 16,59 				"/>
				<polyline fill="#BA3AB4" points="18,55.6 20,56.7 20,59 18,60.1 				"/>
				<polygon fill="#F7ADF3" points="18,57.7 20,56.7 18,55.6 16,56.7 				"/>
			</g>
		</g>
	</g>
</g>
</svg>
