<?xml version="1.0" encoding="utf-8"?>
<!-- Generator: Adobe Illustrator 16.0.0, SVG Export Plug-In . SVG Version: 6.00 Build 0)  -->
<!DOCTYPE svg PUBLIC "-//W3C//DTD SVG 1.1//EN" "http://www.w3.org/Graphics/SVG/1.1/DTD/svg11.dtd">
<svg version="1.1" id="Layer_1" xmlns="http://www.w3.org/2000/svg" xmlns:xlink="http://www.w3.org/1999/xlink" x="0px" y="0px"
	 width="64px" height="64px" viewBox="0 0 64 64" enable-background="new 0 0 64 64" xml:space="preserve">
<g>
	<g>
		<ellipse fill="#FFA617" cx="32" cy="46.8" rx="19.5" ry="13.7"/>
		<path fill="#D67B0F" d="M32,33.1c10.8,0,19.5,6.1,19.5,13.7S42.8,60.4,32,60.4"/>
		<path fill="#D67D34" d="M63.5,13.7c0-5.5-4.5-10-10-10c-4.8,0-8.8,3.4-9.7,7.9c-3.6-1.6-7.6-2.5-11.8-2.5s-8.2,0.9-11.8,2.5
			c-1-4.5-5-7.9-9.7-7.9c-5.5,0-10,4.5-10,10c0,4.5,3,8.3,7.1,9.5C6,26.5,5.1,30,5.1,33.8c0,13.6,12.1,20.6,26.9,20.6
			s26.9-7,26.9-20.6c0-3.8-0.9-7.3-2.6-10.5C60.5,22.1,63.5,18.3,63.5,13.7z"/>
		<path fill="#BF691B" d="M63.5,13.7c0-5.5-4.5-10-10-10c-4.8,0-8.8,3.3-9.7,7.8C40.2,10,36.2,9,32,9l0,0v45.4l0,0
			c14.9,0,27-6.7,26.9-20.8c0-3.8-0.9-7.2-2.6-10.4C60.5,22,63.5,18.3,63.5,13.7z"/>
		<g>
			<g>
				<g>
					<g>
						<g>
							<path fill="#00233F" d="M20.5,21c-1.9,0.1-3.4,1-3.4,1.9l7-0.4C24.1,21.6,22.5,20.9,20.5,21z"/>
						</g>
					</g>
					<g>
						<g>
							<path fill="#00233F" d="M43.5,21c1.9,0.1,3.4,1,3.4,1.9l-7-0.4C39.9,21.6,41.5,20.9,43.5,21z"/>
						</g>
					</g>
				</g>
				<path fill="#EF893C" d="M19.3,36.4c-4.6,0-8.3,1.1-8.3,2.4c0,1.3,3.7,0.7,8.3,0.7c4.6,0,8.3,0.6,8.3-0.7
					C27.6,37.5,23.8,36.4,19.3,36.4z"/>
				<path fill="#EF893C" d="M44.7,36.4c-4.6,0-8.3,1.1-8.3,2.4c0,1.3,3.7,0.7,8.3,0.7c4.6,0,8.3,0.6,8.3-0.7
					C53,37.5,49.3,36.4,44.7,36.4z"/>
				<g>
					<path fill="#A55311" d="M24.5,34.7c0,1.9-1.5,3.4-3.4,3.4c-1.9,0-3.4-1.5-3.4-3.4c0-1.9,1.5-3.4,3.4-3.4
						C23,31.3,24.5,32.8,24.5,34.7z"/>
					<path fill="#A55311" d="M46.6,34.7c0,1.9-1.5,3.4-3.4,3.4c-1.9,0-3.4-1.5-3.4-3.4c0-1.9,1.5-3.4,3.4-3.4
						C45.1,31.3,46.6,32.8,46.6,34.7z"/>
					<path fill="#1E4784" d="M24.5,33.7c0,1.9-1.5,3.4-3.4,3.4c-1.9,0-3.4-1.5-3.4-3.4c0-1.9,1.5-3.4,3.4-3.4
						C23,30.4,24.5,31.9,24.5,33.7z"/>
					<path fill="#00233F" d="M21.1,30.4c1.9,0,3.4,1.5,3.4,3.4c0,1.9-1.5,3.4-3.4,3.4"/>
					<path fill="#1E4784" d="M46.6,33.7c0,1.9-1.5,3.4-3.4,3.4c-1.9,0-3.4-1.5-3.4-3.4c0-1.9,1.5-3.4,3.4-3.4
						C45.1,30.4,46.6,31.9,46.6,33.7z"/>
					<path fill="#00233F" d="M43.2,30.4c1.9,0,3.4,1.5,3.4,3.4c0,1.9-1.5,3.4-3.4,3.4"/>
				</g>
			</g>
		</g>
		<g>
			<path fill="#AA550E" d="M15.7,10.1c2.3,2.3,1.2,4.4-1.4,7c-2.6,2.6-5.7,4.7-8,2.4c-2.3-2.3-2.1-6.3,0.5-8.9
				C9.4,8,13.4,7.8,15.7,10.1z"/>
			<path fill="#873D06" d="M15.7,10.1c2.3,2.3,1.2,4.4-1.4,7c-2.6,2.6-5.7,4.7-8,2.4"/>
			<path fill="#AA550E" d="M48.3,10.1c-2.3,2.3-1.2,4.4,1.4,7c2.6,2.6,5.7,4.7,8,2.4c2.3-2.3,2.1-6.3-0.5-8.9
				C54.6,8,50.6,7.8,48.3,10.1z"/>
			<path fill="#873D06" d="M48.3,10.1c-2.3,2.3-1.2,4.4,1.4,7c2.6,2.6,5.7,4.7,8,2.4"/>
		</g>
		<path fill="#7F144F" d="M37.9,39.4c0,1.7-2.6,4-5.9,4s-5.9-2.3-5.9-4s2.6-3,5.9-3S37.9,37.8,37.9,39.4z"/>
		<path fill="#560435" d="M32,36.4c3.3,0,5.9,1.3,5.9,3s-2.6,4-5.9,4"/>
		
			<ellipse transform="matrix(0.9513 -0.3082 0.3082 0.9513 -10.2228 10.9682)" fill="#AF688F" cx="29.6" cy="37.8" rx="1.9" ry="0.6"/>
		<circle fill="#AF688F" cx="27.1" cy="39.3" r="0.4"/>
		<g>
			<g>
				<circle fill="#BF691B" cx="19.5" cy="42.6" r="0.8"/>
				<circle fill="#BF691B" cx="23" cy="44.5" r="0.8"/>
				<circle fill="#BF691B" cx="17.7" cy="46.1" r="0.8"/>
			</g>
			<g>
				<circle fill="#D67D34" cx="44.5" cy="42.6" r="0.8"/>
				<circle fill="#D67D34" cx="41" cy="44.5" r="0.8"/>
				<circle fill="#D67D34" cx="46.3" cy="46.1" r="0.8"/>
			</g>
		</g>
		<path fill="#BF691B" d="M34.2,7.9c-2.3-2.1-3.3-5.2-2.4-7.4c-1.2,0.8-2.2,2.1-2.7,3.7c-0.9,3.3,0.8,6.7,3.8,7.5
			c2.1,0.6,4.2-0.2,5.7-1.8C37.2,9.8,35.6,9.1,34.2,7.9z"/>
		<path fill="#BF691B" d="M30.9,8.3c-2.1-1.1-3.4-3.2-3.2-4.9c-0.8,0.8-1.2,2-1.2,3.3c0,2.6,1.9,4.7,4.3,4.8c1.6,0,3.1-1,3.8-2.4
			C33.4,9.1,32.1,8.9,30.9,8.3z"/>
		<path fill="#BF691B" d="M29.8,10.6c-2.4-0.3-4.3-1.9-4.7-3.6c-0.4,1-0.5,2.3-0.1,3.5c0.8,2.5,3.4,3.8,5.6,3.1
			c1.5-0.5,2.6-1.9,2.8-3.6C32.5,10.6,31.2,10.8,29.8,10.6z"/>
	</g>
	<g>
		<g>
			<circle fill="#2FADF4" cx="32" cy="59" r="4.5"/>
			<path fill="#0D8FC9" d="M32,54.4c2.5,0,4.5,2,4.5,4.5c0,2.5-2,4.5-4.5,4.5"/>
		</g>
		<g>
			<circle fill="#2FADF4" cx="32" cy="59" r="3.1"/>
			<path fill="#0D8FC9" d="M28.9,59c0-1.7,1.4-3.1,3.1-3.1s3.1,1.4,3.1,3.1"/>
		</g>
	</g>
</g>
</svg>
