<?xml version="1.0" encoding="utf-8"?>
<!-- Generator: Adobe Illustrator 16.0.0, SVG Export Plug-In . SVG Version: 6.00 Build 0)  -->
<!DOCTYPE svg PUBLIC "-//W3C//DTD SVG 1.1//EN" "http://www.w3.org/Graphics/SVG/1.1/DTD/svg11.dtd">
<svg version="1.1" id="Layer_1" xmlns="http://www.w3.org/2000/svg" xmlns:xlink="http://www.w3.org/1999/xlink" x="0px" y="0px"
	 width="64px" height="64px" viewBox="0 0 64 64" enable-background="new 0 0 64 64" xml:space="preserve">
<g>
	<path fill="#F2AF19" d="M35.9,8.2h-2.2c0.7-1.6,1.1-3.5,1.1-4.4c0-1.7-1.4-2.3-3.1-2.3c-1.7,0-3.1,0.6-3.1,2.3
		c0,0.9,0.4,2.9,1.1,4.4h-2.2c-1.2,0-2.2,1-2.2,2.2s1,2.2,2.2,2.2h8.4c1.2,0,2.2-1,2.2-2.2S37.2,8.2,35.9,8.2z"/>
	<path fill="#EF9614" d="M31,12.6h5c1.2,0,2.2-1,2.2-2.2s-1-2.2-2.2-2.2h-2.2c0.7-1.6,1.1-3.5,1.1-4.4c0-1.7-1.4-2.3-3.1-2.3"/>
	<path fill="#EF9614" d="M27.6,8.2"/>
	<path fill="#2FADF4" d="M44,58.6c0,3.2-2.6,4-5.7,4H25.7c-3.2,0-5.7-0.8-5.7-4V25.7c0-3.2,2.6-5.7,5.7-5.7h12.6
		c3.2,0,5.7,2.6,5.7,5.7V58.6z"/>
	<path fill="#108BC1" d="M25.7,20h12.6c3.2,0,5.7,2.6,5.7,5.7v32.9c0,3.2-2.6,4-5.7,4H25.7"/>
	<path fill="#EFE9D0" d="M42.7,35.7c-1.9,0-3.7-0.5-5.3-1.3c-1.6,0.8-3.4,1.3-5.3,1.3s-3.7-0.5-5.3-1.3c-1.6,0.8-3.4,1.3-5.3,1.3
		c-0.4,0-0.9,0-1.3-0.1v23c0,3.2,2.6,4,5.7,4h12.6c3.2,0,5.7-0.8,5.7-4v-23C43.6,35.6,43.1,35.7,42.7,35.7z"/>
	<path fill="#DDD6B8" d="M25.7,62.6h12.6c3.2,0,5.7-0.8,5.7-4v-23c-0.4,0-0.9,0.1-1.3,0.1c-1.9,0-3.7-0.5-5.3-1.3
		c-1.6,0.8-3.4,1.3-5.3,1.3s-3.7-0.5-5.3-1.3"/>
	<g>
		<path fill="#EFE9D0" d="M32,36.4c-2.5,0-4.5-0.5-4.7-1.2c0.2,1.2,2.2,2.2,4.7,2.2s4.5-1,4.7-2.2C36.5,35.9,34.5,36.4,32,36.4z"/>
	</g>
	<path fill="#930941" d="M41.1,18.4c0,1.3-1,2.3-2.3,2.3H25.3c-1.3,0-2.3-1-2.3-2.3V12c0-1.3,1-2.3,2.3-2.3h13.4
		c1.3,0,2.3,1,2.3,2.3V18.4z"/>
	<path fill="#750638" d="M41.1,12v6.3c0,1.3-1,2.3-2.3,2.3H25.3c-1.3,0-2.3-1-2.3-2.3V12"/>
	<path fill="#DDD6B8" d="M21.3,36.4c-0.2,0-0.4,0-0.5,0v1c0.2,0,0.4,0,0.5,0c2.5,0,4.5-1,4.7-2.2C25.7,35.9,23.7,36.4,21.3,36.4z"/>
	<path fill="#EFE9D0" d="M42.8,36.4c0.2,0,0.4,0,0.5,0v1c-0.2,0-0.4,0-0.5,0c-2.5,0-4.5-1-4.7-2.2C38.3,35.9,40.3,36.4,42.8,36.4z"
		/>
	<g>
		<path fill="#75CCEF" d="M38.1,57.8c0,0.2-0.2,0.4-0.4,0.4l0,0c-0.2,0-0.4-0.2-0.4-0.4V26.3c0-0.2,0.2-0.4,0.4-0.4l0,0
			c0.2,0,0.4,0.2,0.4,0.4V57.8z"/>
		<g>
			<path fill="#2FADF4" d="M40.8,27.4c0,0.2-0.1,0.3-0.3,0.3h-8.1c-0.2,0-0.3-0.1-0.3-0.3l0,0c0-0.2,0.1-0.3,0.3-0.3h8.1
				C40.7,27.1,40.8,27.3,40.8,27.4L40.8,27.4z"/>
			<path fill="#2FADF4" d="M40.8,31.6c0,0.2-0.1,0.3-0.3,0.3h-8.1c-0.2,0-0.3-0.1-0.3-0.3l0,0c0-0.2,0.1-0.3,0.3-0.3h8.1
				C40.7,31.3,40.8,31.4,40.8,31.6L40.8,31.6z"/>
			<path fill="#2FADF4" d="M40.8,35.8c0,0.2-0.1,0.3-0.3,0.3h-8.1c-0.2,0-0.3-0.1-0.3-0.3l0,0c0-0.2,0.1-0.3,0.3-0.3h8.1
				C40.7,35.5,40.8,35.6,40.8,35.8L40.8,35.8z"/>
			<path fill="#2FADF4" d="M40.8,39.9c0,0.2-0.1,0.3-0.3,0.3h-8.1c-0.2,0-0.3-0.1-0.3-0.3l0,0c0-0.2,0.1-0.3,0.3-0.3h8.1
				C40.7,39.7,40.8,39.8,40.8,39.9L40.8,39.9z"/>
			<path fill="#2FADF4" d="M40.8,44.1c0,0.2-0.1,0.3-0.3,0.3h-8.1c-0.2,0-0.3-0.1-0.3-0.3l0,0c0-0.2,0.1-0.3,0.3-0.3h8.1
				C40.7,43.8,40.8,44,40.8,44.1L40.8,44.1z"/>
			<path fill="#2FADF4" d="M40.8,48.3c0,0.2-0.1,0.3-0.3,0.3h-8.1c-0.2,0-0.3-0.1-0.3-0.3l0,0c0-0.2,0.1-0.3,0.3-0.3h8.1
				C40.7,48,40.8,48.1,40.8,48.3L40.8,48.3z"/>
			<path fill="#2FADF4" d="M40.8,52.5c0,0.2-0.1,0.3-0.3,0.3h-8.1c-0.2,0-0.3-0.1-0.3-0.3l0,0c0-0.2,0.1-0.3,0.3-0.3h8.1
				C40.7,52.2,40.8,52.3,40.8,52.5L40.8,52.5z"/>
			<path fill="#2FADF4" d="M40.8,56.6c0,0.2-0.1,0.3-0.3,0.3h-8.1c-0.2,0-0.3-0.1-0.3-0.3l0,0c0-0.2,0.1-0.3,0.3-0.3h8.1
				C40.7,56.3,40.8,56.5,40.8,56.6L40.8,56.6z"/>
		</g>
		<circle fill="#75CCEF" cx="37.7" cy="25.4" r="1"/>
	</g>
	<g>
		<path fill="#B2185E" d="M40,16.1c0,0.1-0.1,0.3-0.3,0.3H24.2c-0.1,0-0.3-0.1-0.3-0.3l0,0c0-0.1,0.1-0.3,0.3-0.3h15.6
			C39.9,15.9,40,16,40,16.1L40,16.1z"/>
		<path fill="#B2185E" d="M24.2,17.7c0,0.1-0.1,0.1-0.1,0.1l0,0c-0.1,0-0.1-0.1-0.1-0.1v-3.2c0-0.1,0.1-0.1,0.1-0.1l0,0
			c0.1,0,0.1,0.1,0.1,0.1V17.7z"/>
		<path fill="#B2185E" d="M25,17.7c0,0.1-0.1,0.1-0.1,0.1l0,0c-0.1,0-0.1-0.1-0.1-0.1v-3.2c0-0.1,0.1-0.1,0.1-0.1l0,0
			c0.1,0,0.1,0.1,0.1,0.1V17.7z"/>
		<path fill="#B2185E" d="M25.9,17.7c0,0.1-0.1,0.1-0.1,0.1l0,0c-0.1,0-0.1-0.1-0.1-0.1v-3.2c0-0.1,0.1-0.1,0.1-0.1l0,0
			c0.1,0,0.1,0.1,0.1,0.1V17.7z"/>
		<path fill="#B2185E" d="M26.7,17.7c0,0.1-0.1,0.1-0.1,0.1l0,0c-0.1,0-0.1-0.1-0.1-0.1v-3.2c0-0.1,0.1-0.1,0.1-0.1l0,0
			c0.1,0,0.1,0.1,0.1,0.1V17.7z"/>
		<path fill="#B2185E" d="M27.5,17.7c0,0.1-0.1,0.1-0.1,0.1l0,0c-0.1,0-0.1-0.1-0.1-0.1v-3.2c0-0.1,0.1-0.1,0.1-0.1l0,0
			c0.1,0,0.1,0.1,0.1,0.1V17.7z"/>
		<path fill="#B2185E" d="M28.4,17.7c0,0.1-0.1,0.1-0.1,0.1l0,0c-0.1,0-0.1-0.1-0.1-0.1v-3.2c0-0.1,0.1-0.1,0.1-0.1l0,0
			c0.1,0,0.1,0.1,0.1,0.1V17.7z"/>
		<path fill="#B2185E" d="M29.2,17.7c0,0.1-0.1,0.1-0.1,0.1l0,0c-0.1,0-0.1-0.1-0.1-0.1v-3.2c0-0.1,0.1-0.1,0.1-0.1l0,0
			c0.1,0,0.1,0.1,0.1,0.1V17.7z"/>
		<path fill="#B2185E" d="M30,17.7c0,0.1-0.1,0.1-0.1,0.1l0,0c-0.1,0-0.1-0.1-0.1-0.1v-3.2c0-0.1,0.1-0.1,0.1-0.1l0,0
			c0.1,0,0.1,0.1,0.1,0.1V17.7z"/>
		<path fill="#B2185E" d="M30.9,17.7c0,0.1-0.1,0.1-0.1,0.1l0,0c-0.1,0-0.1-0.1-0.1-0.1v-3.2c0-0.1,0.1-0.1,0.1-0.1l0,0
			c0.1,0,0.1,0.1,0.1,0.1V17.7z"/>
		<path fill="#B2185E" d="M31.7,17.7c0,0.1-0.1,0.1-0.1,0.1l0,0c-0.1,0-0.1-0.1-0.1-0.1v-3.2c0-0.1,0.1-0.1,0.1-0.1l0,0
			c0.1,0,0.1,0.1,0.1,0.1V17.7z"/>
		<path fill="#B2185E" d="M32.6,17.7c0,0.1-0.1,0.1-0.1,0.1l0,0c-0.1,0-0.1-0.1-0.1-0.1v-3.2c0-0.1,0.1-0.1,0.1-0.1l0,0
			c0.1,0,0.1,0.1,0.1,0.1V17.7z"/>
		<path fill="#B2185E" d="M33.4,17.7c0,0.1-0.1,0.1-0.1,0.1l0,0c-0.1,0-0.1-0.1-0.1-0.1v-3.2c0-0.1,0.1-0.1,0.1-0.1l0,0
			c0.1,0,0.1,0.1,0.1,0.1V17.7z"/>
		<path fill="#B2185E" d="M34.2,17.7c0,0.1-0.1,0.1-0.1,0.1l0,0c-0.1,0-0.1-0.1-0.1-0.1v-3.2c0-0.1,0.1-0.1,0.1-0.1l0,0
			c0.1,0,0.1,0.1,0.1,0.1V17.7z"/>
		<path fill="#B2185E" d="M35.1,17.7c0,0.1-0.1,0.1-0.1,0.1l0,0c-0.1,0-0.1-0.1-0.1-0.1v-3.2c0-0.1,0.1-0.1,0.1-0.1l0,0
			c0.1,0,0.1,0.1,0.1,0.1V17.7z"/>
		<path fill="#B2185E" d="M35.9,17.7c0,0.1-0.1,0.1-0.1,0.1l0,0c-0.1,0-0.1-0.1-0.1-0.1v-3.2c0-0.1,0.1-0.1,0.1-0.1l0,0
			c0.1,0,0.1,0.1,0.1,0.1V17.7z"/>
		<path fill="#B2185E" d="M36.7,17.7c0,0.1-0.1,0.1-0.1,0.1l0,0c-0.1,0-0.1-0.1-0.1-0.1v-3.2c0-0.1,0.1-0.1,0.1-0.1l0,0
			c0.1,0,0.1,0.1,0.1,0.1V17.7z"/>
		<path fill="#B2185E" d="M37.6,17.7c0,0.1-0.1,0.1-0.1,0.1l0,0c-0.1,0-0.1-0.1-0.1-0.1v-3.2c0-0.1,0.1-0.1,0.1-0.1l0,0
			c0.1,0,0.1,0.1,0.1,0.1V17.7z"/>
		<path fill="#B2185E" d="M38.4,17.7c0,0.1-0.1,0.1-0.1,0.1l0,0c-0.1,0-0.1-0.1-0.1-0.1v-3.2c0-0.1,0.1-0.1,0.1-0.1l0,0
			c0.1,0,0.1,0.1,0.1,0.1V17.7z"/>
		<path fill="#B2185E" d="M39.2,17.7c0,0.1-0.1,0.1-0.1,0.1l0,0c-0.1,0-0.1-0.1-0.1-0.1v-3.2c0-0.1,0.1-0.1,0.1-0.1l0,0
			c0.1,0,0.1,0.1,0.1,0.1V17.7z"/>
		<path fill="#B2185E" d="M40.1,17.7c0,0.1-0.1,0.1-0.1,0.1l0,0c-0.1,0-0.1-0.1-0.1-0.1v-3.2c0-0.1,0.1-0.1,0.1-0.1l0,0
			c0.1,0,0.1,0.1,0.1,0.1V17.7z"/>
	</g>
</g>
</svg>
