<?xml version="1.0" encoding="utf-8"?>
<!-- Generator: Adobe Illustrator 16.0.0, SVG Export Plug-In . SVG Version: 6.00 Build 0)  -->
<!DOCTYPE svg PUBLIC "-//W3C//DTD SVG 1.1//EN" "http://www.w3.org/Graphics/SVG/1.1/DTD/svg11.dtd">
<svg version="1.1" id="Layer_1" xmlns="http://www.w3.org/2000/svg" xmlns:xlink="http://www.w3.org/1999/xlink" x="0px" y="0px"
	 width="64px" height="64px" viewBox="0 0 64 64" enable-background="new 0 0 64 64" xml:space="preserve">
<g>
	<path fill="#FFB93E" d="M38,38.2v-7.1c0-3.2-2.8-5.8-6-5.8s-6,2.6-6,5.8v7.1c-3,2.8-5.2,7.9-5.2,13.6c0,8.8,5,11.8,11.1,11.8
		s11.2-2.9,11.2-11.8C43.2,46,41,41,38,38.2z"/>
	<path fill="#E5980E" d="M32,63.6c6.1,0,11.2-2.9,11.2-11.8C43.2,46,41,41,38,38.2v-7.1c0-3.2-2.7-5.8-5.9-5.8"/>
	<path fill="#2DA5E8" d="M58.4,26c0,3.1-2.5,6-5.7,6H11.3c-3.1,0-5.7-2.9-5.7-6l0,0c0-3.1,2.5-6,5.7-6h41.4
		C55.8,20,58.4,22.9,58.4,26L58.4,26z"/>
	<path fill="#0E83C4" d="M58.4,26.1L58.4,26.1c0,3.1-2.5,5.9-5.7,5.9H11.3c-3.1,0-5.7-2.6-5.7-5.8l0,0"/>
	<path fill="#2DA5E8" d="M35.8,17.3c0,2.1-1.7,3.8-3.8,3.8l0,0c-2.1,0-3.8-1.7-3.8-3.8l0,0c0-2.1,1.7-3.8,3.8-3.8l0,0
		C34.1,13.6,35.8,15.3,35.8,17.3L35.8,17.3z"/>
	<path fill="#0E83C4" d="M32,13.6L32,13.6c2.1,0,3.8,1.7,3.8,3.8l0,0c0,2.1-1.7,3.8-3.8,3.8l0,0"/>
	<path fill="#A51339" d="M32,0.4c-5.7,0-10.4,4.7-10.4,10.4c0,3.6,1.6,6.8,4.4,8.6l0,0V17c-1-1.5-2.6-3.7-2.6-6.2
		c0-4.6,3.8-8.4,8.5-8.4c4.6,0,8.6,3.8,8.6,8.4c0,2.4-1.5,4.6-2.5,6.2v2.5c0,0,0,0,0,0c2.8-1.9,4.5-5,4.5-8.6
		C42.5,5.1,37.7,0.4,32,0.4z"/>
	<ellipse transform="matrix(0.9903 -0.1389 0.1389 0.9903 -7.2646 3.8047)" fill="#FFDC83" cx="23.6" cy="54" rx="1.7" ry="5.4"/>
	<circle fill="#FFDC83" cx="23.4" cy="46.7" r="0.8"/>
	<circle fill="#FFDC83" cx="23.7" cy="44.4" r="0.2"/>
	<circle fill="#FFDC83" cx="26.1" cy="42.8" r="1.3"/>
	<path fill="#FFDC83" d="M29,37.5c0,0.3-0.2,0.5-0.5,0.5l0,0c-0.3,0-0.5-0.2-0.5-0.5v-4c0-0.3,0.2-0.5,0.5-0.5l0,0
		c0.3,0,0.5,0.2,0.5,0.5V37.5z"/>
	<g>
		<circle fill="#0E83C4" cx="25.2" cy="23.7" r="0.9"/>
		<circle fill="#0E83C4" cx="29.8" cy="23.7" r="0.9"/>
		<circle fill="#0E83C4" cx="34.2" cy="23.7" r="0.9"/>
		<circle fill="#0E83C4" cx="38.8" cy="23.7" r="0.9"/>
	</g>
</g>
</svg>
