<?xml version="1.0" encoding="utf-8"?>
<!-- Generator: Adobe Illustrator 16.0.0, SVG Export Plug-In . SVG Version: 6.00 Build 0)  -->
<!DOCTYPE svg PUBLIC "-//W3C//DTD SVG 1.1//EN" "http://www.w3.org/Graphics/SVG/1.1/DTD/svg11.dtd">
<svg version="1.1" id="Layer_1" xmlns="http://www.w3.org/2000/svg" xmlns:xlink="http://www.w3.org/1999/xlink" x="0px" y="0px"
	 width="64px" height="64px" viewBox="0 0 64 64" enable-background="new 0 0 64 64" xml:space="preserve">
<g>
	<g>
		<g>
			<g>
				<g>
					<g>
						<path fill="#13528C" d="M32,60.7c-17.2,0-30.7-7.3-30.7-16.6c0-1.2,1-2.2,2.2-2.2s2.2,1,2.2,2.2C5.6,50,16.2,56.4,32,56.4
							S58.4,50,58.4,44.1c0-1.2,1-2.2,2.2-2.2s2.2,1,2.2,2.2C62.7,53.4,49.2,60.7,32,60.7z"/>
					</g>
					<g>
						<g>
							<path fill="#257BBA" d="M7.4,52.4c-0.6,0-1.1-0.2-1.5-0.6c-0.8-0.8-0.8-2.2,0-3.1l12.3-12.3c0.8-0.8,2.2-0.8,3.1,0
								s0.8,2.2,0,3.1L9,51.8C8.6,52.2,8,52.4,7.4,52.4z"/>
						</g>
						<g>
							<path fill="#13528C" d="M21.3,39.5L9,51.8c-0.4,0.4-1,0.6-1.5,0.6c-0.6,0-1.1-0.2-1.5-0.6c-0.8-0.8-0.8-2.2,0-3.1"/>
						</g>
						<g>
							<path fill="#257BBA" d="M56.6,52.4c-0.6,0-1.1-0.2-1.5-0.6L42.7,39.5c-0.8-0.8-0.8-2.2,0-3.1s2.2-0.8,3.1,0l12.3,12.3
								c0.8,0.8,0.8,2.2,0,3.1C57.7,52.2,57.1,52.4,56.6,52.4z"/>
						</g>
						<g>
							<path fill="#13528C" d="M45.8,36.4l12.3,12.3c0.8,0.8,0.8,2.2,0,3.1c-0.4,0.4-1,0.6-1.5,0.6c-0.6,0-1.1-0.2-1.5-0.6"/>
						</g>
					</g>
				</g>
				<path fill="#13528C" d="M50,28.4c0,8.5-8,15.4-18,15.4s-18-6.9-18-15.4c0-8.5,8-5.9,18-5.9S50,19.9,50,28.4z"/>
				<path fill="#0C3F66" d="M50,28.4c0,8.5-8,15.4-18,15.4s-18-6.9-18-15.4"/>
			</g>
			<path fill="#13528C" d="M27.6,24.3c0,8.3-2.4,14.1-6.4,14.1c-4,0-8.9-7.1-8.9-15.4c0-8.3,3.2-15,7.2-15C23.5,8,27.6,16,27.6,24.3
				z"/>
			<path fill="#0C3F66" d="M19.5,8c4,0,8.1,8,8.1,16.3C27.6,32.6,25,39,21,39c-4,0-8.7-7.7-8.7-16"/>
			<path fill="#F75959" d="M40.4,23.6c0,3.2-3.1,5.9-6.9,5.9c-3.8,0-6.9-2.6-6.9-5.9s3.1-2.3,6.9-2.3C37.3,21.3,40.4,20.3,40.4,23.6
				z"/>
			<path fill="#F75959" d="M40.4,23.6c0,3.2-3.1,5.9-6.9,5.9c-3.8,0-6.9-2.6-6.9-5.9s3.1-2.3,6.9-2.3C37.3,21.3,40.4,20.3,40.4,23.6
				z"/>
			<path fill="#E03B3B" d="M40.4,23.6c0,3.2-3.1,5.9-6.9,5.9c-3.8,0-6.9-2.6-6.9-5.9"/>
			<path fill="#BF2121" d="M33.5,28.6c-3.6,0-6.6-2.4-6.8-5.4c0,0.1,0,0.3,0,0.4c0,3.2,3.1,5.9,6.9,5.9c3.8,0,6.9-2.6,6.9-5.9
				c0-0.1,0-0.3,0-0.4C40.1,26.2,37.1,28.6,33.5,28.6z"/>
			<circle fill="#257BBA" cx="7.5" cy="50.2" r="1.1"/>
			<circle fill="#257BBA" cx="56.6" cy="50.2" r="1.1"/>
			<circle fill="#0C3F66" cx="17.8" cy="14" r="6.5"/>
			<path fill="#0C3F66" d="M5.9,16.2c0,0,2.4,3.8,3.1,3.8s10-0.8,10-0.8L17.8,7.5c0,0-6.1-0.1-11.1,7.4L5.9,16.2z"/>
			<circle fill="#E03B3B" cx="13.4" cy="12.2" r="0.8"/>
			<path fill="#BF2121" d="M14.3,12.2c0,0.4-0.4,0.8-0.8,0.8s-0.8-0.4-0.8-0.8"/>
			<path fill="#0C3F66" d="M14.9,10.3c0,0,0.6-4.2,4.6-7c0,0,3.6,5.3,5.6,9.9L17.5,13L14.9,10.3z"/>
			<path fill="#13528C" d="M46.3,24.9c0,0-0.2-11.2,8.6-12.2s7.5,11.4,4.4,16.2s1.6,4.9,2.1,2.5c0,0-1.6,6.1-6,3.1s-4.8-4.8-2.5-8.9
				s3-10.8,0-9.8s-4.5,6.1-3.2,10.2s-4,0.9-4,0.9L46.3,24.9z"/>
		</g>
		<path fill="#0C3F66" d="M27.6,9.1c0,0.4-0.3,0.7-0.7,0.7h-4.5c-0.4,0-0.7-0.3-0.7-0.7l0,0c0-0.4,0.3-0.7,0.7-0.7h4.5
			C27.3,8.4,27.6,8.7,27.6,9.1L27.6,9.1z"/>
		<path fill="#0C3F66" d="M28.6,11.3c0,0.4-0.3,0.7-0.7,0.7h-4.5c-0.4,0-0.7-0.3-0.7-0.7l0,0c0-0.4,0.3-0.7,0.7-0.7h4.5
			C28.3,10.6,28.6,10.9,28.6,11.3L28.6,11.3z"/>
		<path fill="#0C3F66" d="M29.6,13.4c0,0.4-0.3,0.7-0.7,0.7h-4.5c-0.4,0-0.7-0.3-0.7-0.7l0,0c0-0.4,0.3-0.7,0.7-0.7h4.5
			C29.3,12.8,29.6,13.1,29.6,13.4L29.6,13.4z"/>
		<path fill="#0C3F66" d="M30.6,15.6c0,0.4-0.3,0.7-0.7,0.7h-4.5c-0.4,0-0.7-0.3-0.7-0.7l0,0c0-0.4,0.3-0.7,0.7-0.7h4.5
			C30.3,14.9,30.6,15.2,30.6,15.6L30.6,15.6z"/>
		<path fill="#0C3F66" d="M31.2,17.8c0,0.4-0.3,0.7-0.7,0.7H26c-0.4,0-0.7-0.3-0.7-0.7l0,0c0-0.4,0.3-0.7,0.7-0.7h4.5
			C30.9,17.1,31.2,17.4,31.2,17.8L31.2,17.8z"/>
		<path fill="#0C3F66" d="M31.7,19.9c0,0.4-0.3,0.7-0.7,0.7h-4.5c-0.4,0-0.7-0.3-0.7-0.7l0,0c0-0.4,0.3-0.7,0.7-0.7H31
			C31.4,19.3,31.7,19.6,31.7,19.9L31.7,19.9z"/>
	</g>
	<g>
		<circle fill="#257BBA" cx="18.3" cy="32" r="0.6"/>
		<circle fill="#257BBA" cx="21.4" cy="32" r="0.6"/>
		<circle fill="#257BBA" cx="24.5" cy="32" r="0.6"/>
		<circle fill="#257BBA" cx="27.6" cy="32" r="0.6"/>
		<circle fill="#257BBA" cx="30.8" cy="32" r="0.6"/>
		<circle fill="#257BBA" cx="33.9" cy="32" r="0.6"/>
		<circle fill="#257BBA" cx="37" cy="32" r="0.6"/>
		<circle fill="#257BBA" cx="40.1" cy="32" r="0.6"/>
		<circle fill="#257BBA" cx="43.3" cy="32" r="0.6"/>
		<circle fill="#257BBA" cx="46.4" cy="32" r="0.6"/>
	</g>
	<g>
		<circle fill="#257BBA" cx="21.4" cy="35.5" r="0.6"/>
		<circle fill="#257BBA" cx="24.5" cy="35.5" r="0.6"/>
		<circle fill="#257BBA" cx="27.6" cy="35.5" r="0.6"/>
		<circle fill="#257BBA" cx="30.8" cy="35.5" r="0.6"/>
		<circle fill="#257BBA" cx="33.9" cy="35.5" r="0.6"/>
		<circle fill="#257BBA" cx="37" cy="35.5" r="0.6"/>
		<circle fill="#257BBA" cx="40.1" cy="35.5" r="0.6"/>
		<circle fill="#257BBA" cx="43.3" cy="35.5" r="0.6"/>
	</g>
	<g>
		<circle fill="#257BBA" cx="24.5" cy="39" r="0.6"/>
		<circle fill="#257BBA" cx="27.6" cy="39" r="0.6"/>
		<circle fill="#257BBA" cx="30.8" cy="39" r="0.6"/>
		<circle fill="#257BBA" cx="33.9" cy="39" r="0.6"/>
		<circle fill="#257BBA" cx="37" cy="39" r="0.6"/>
		<circle fill="#257BBA" cx="46.4" cy="39" r="0.6"/>
	</g>
</g>
</svg>
