<?xml version="1.0" encoding="utf-8"?>
<!-- Generator: Adobe Illustrator 16.0.0, SVG Export Plug-In . SVG Version: 6.00 Build 0)  -->
<!DOCTYPE svg PUBLIC "-//W3C//DTD SVG 1.1//EN" "http://www.w3.org/Graphics/SVG/1.1/DTD/svg11.dtd">
<svg version="1.1" id="Layer_1" xmlns="http://www.w3.org/2000/svg" xmlns:xlink="http://www.w3.org/1999/xlink" x="0px" y="0px"
	 width="64px" height="64px" viewBox="0 0 64 64" enable-background="new 0 0 64 64" xml:space="preserve">
<g>
	<g>
		<path fill="#EF861D" d="M27,1v31h-6.2c-8.6,0-15.5,6.9-15.5,15.5c0,8.5,0.6,15.5,9.1,15.5H59V52.7V31.9V1H27z"/>
		<path fill="#D66F12" d="M36,1v31H20.8c-8.6,0-15.5,6.9-15.5,15.5c0,8.5,0.6,15.5,9.1,15.5H59V52.7V31.9V1H36z"/>
		<path fill="#F2BF1C" d="M27,6v26h-6.2c-8.6,0-15.5,6.9-15.5,15.5c0,8.5,0.6,15.5,9.1,15.5H59V52.7V31.9V6H27z"/>
		<path fill="#DDAC12" d="M27.2,31.9"/>
		<path fill="#DDAC12" d="M5.4,47.4c0,8.5,0.4,15.6,9,15.6H59V52.7V31.9V11"/>
		<path fill="#EF861D" d="M19,32c-8,0.9-13.7,7.5-13.7,15.4C5.3,56,5.8,63,14.4,63H19V32z"/>
		<path fill="#D66F12" d="M5.3,47.4C5.3,56,5.8,63,14.4,63H19V32"/>
	</g>
	<g>
		<circle fill="#F2BF1C" cx="23.3" cy="35.2" r="1.2"/>
		<circle fill="#F2BF1C" cx="28.8" cy="35.2" r="1.2"/>
		<circle fill="#F2BF1C" cx="34.2" cy="35.2" r="1.2"/>
		<circle fill="#F2BF1C" cx="39.6" cy="35.2" r="1.2"/>
		<circle fill="#F2BF1C" cx="45" cy="35.2" r="1.2"/>
		<circle fill="#F2BF1C" cx="50.4" cy="35.2" r="1.2"/>
		<circle fill="#F2BF1C" cx="55.8" cy="35.2" r="1.2"/>
	</g>
	<g>
		<circle fill="#F2BF1C" cx="23.3" cy="40.1" r="1.2"/>
		<circle fill="#F2BF1C" cx="28.8" cy="40.1" r="1.2"/>
		<circle fill="#F2BF1C" cx="34.2" cy="40.1" r="1.2"/>
		<circle fill="#F2BF1C" cx="39.6" cy="40.1" r="1.2"/>
		<circle fill="#F2BF1C" cx="45" cy="40.1" r="1.2"/>
		<circle fill="#F2BF1C" cx="50.4" cy="40.1" r="1.2"/>
		<circle fill="#F2BF1C" cx="55.8" cy="40.1" r="1.2"/>
	</g>
	<g>
		<circle fill="#F2BF1C" cx="23.3" cy="45" r="1.2"/>
		<circle fill="#F2BF1C" cx="28.8" cy="45" r="1.2"/>
		<circle fill="#F2BF1C" cx="34.2" cy="45" r="1.2"/>
		<circle fill="#F2BF1C" cx="39.6" cy="45" r="1.2"/>
		<circle fill="#F2BF1C" cx="45" cy="45" r="1.2"/>
		<circle fill="#F2BF1C" cx="50.4" cy="45" r="1.2"/>
		<circle fill="#F2BF1C" cx="55.8" cy="45" r="1.2"/>
	</g>
	<g>
		<circle fill="#F2BF1C" cx="23.3" cy="50" r="1.2"/>
		<circle fill="#F2BF1C" cx="28.8" cy="50" r="1.2"/>
		<circle fill="#F2BF1C" cx="34.2" cy="50" r="1.2"/>
		<circle fill="#F2BF1C" cx="39.6" cy="50" r="1.2"/>
		<circle fill="#F2BF1C" cx="45" cy="50" r="1.2"/>
		<circle fill="#F2BF1C" cx="50.4" cy="50" r="1.2"/>
		<circle fill="#F2BF1C" cx="55.8" cy="50" r="1.2"/>
	</g>
	<g>
		<circle fill="#F2BF1C" cx="23.3" cy="54.9" r="1.2"/>
		<circle fill="#F2BF1C" cx="28.8" cy="54.9" r="1.2"/>
		<circle fill="#F2BF1C" cx="34.2" cy="54.9" r="1.2"/>
		<circle fill="#F2BF1C" cx="39.6" cy="54.9" r="1.2"/>
		<circle fill="#F2BF1C" cx="45" cy="54.9" r="1.2"/>
		<circle fill="#F2BF1C" cx="50.4" cy="54.9" r="1.2"/>
		<circle fill="#F2BF1C" cx="55.8" cy="54.9" r="1.2"/>
	</g>
	<g>
		<circle fill="#F2BF1C" cx="23.3" cy="59.8" r="1.2"/>
		<circle fill="#F2BF1C" cx="28.8" cy="59.8" r="1.2"/>
		<circle fill="#F2BF1C" cx="34.2" cy="59.8" r="1.2"/>
		<circle fill="#F2BF1C" cx="39.6" cy="59.8" r="1.2"/>
		<circle fill="#F2BF1C" cx="45" cy="59.8" r="1.2"/>
		<circle fill="#F2BF1C" cx="50.4" cy="59.8" r="1.2"/>
		<circle fill="#F2BF1C" cx="55.8" cy="59.8" r="1.2"/>
	</g>
	<g>
		<path fill="#EF861D" d="M42.4,63H59V52.7v-6.8C50,46.3,42.5,54,42.4,63z"/>
		<polyline fill="#D66F12" points="43,63 59,63 59,52.7 59,46 		"/>
	</g>
	<g>
		<polygon fill="#FFE771" points="59,9.9 58,9 55.6,11.3 53.2,9 50.9,11.3 48.5,9 46.2,11.3 43.8,9 41.5,11.3 39.2,9 36.9,11.3 
			34.5,9 32.2,11.3 29.9,9 27.4,11.3 27,10.9 27,14.4 27.4,14.8 29.8,12.5 32.2,14.8 34.5,12.5 36.8,14.8 39.2,12.5 41.5,14.8 
			43.8,12.5 46.2,14.8 48.5,12.5 50.8,14.8 53.2,12.5 55.5,14.8 58,12.5 59,13.4 		"/>
		<polygon fill="#F2D55A" points="55.5,13 53.2,10.6 50.8,13 48.5,10.6 46.2,13 43.8,10.6 41.5,13 39.2,10.6 36.9,13 34.5,10.6 
			32.2,13 29.9,10.6 27.4,13 27,12.6 27,14.4 27.4,14.8 29.8,12.5 32.2,14.8 34.5,12.5 36.8,14.8 39.2,12.5 41.5,14.8 43.8,12.5 
			46.2,14.8 48.5,12.5 50.8,14.8 53.2,12.5 55.5,14.8 58,12.5 59,13.4 59,11.6 58,10.6 		"/>
	</g>
	<g>
		<polygon fill="#B27FCC" points="59,16.9 58,16 55.6,18.3 53.2,16 50.9,18.3 48.5,16 46.2,18.3 43.8,16 41.5,18.3 39.2,16 
			36.9,18.3 34.5,16 32.2,18.3 29.9,16 27.4,18.3 27,18 27,21.5 27.4,21.8 29.8,19.5 32.2,21.8 34.5,19.5 36.8,21.8 39.2,19.5 
			41.5,21.8 43.8,19.5 46.2,21.8 48.5,19.5 50.8,21.8 53.2,19.5 55.5,21.8 58,19.5 59,20.4 		"/>
		<polygon fill="#9460B2" points="55.5,20 53.2,17.7 50.8,20 48.5,17.7 46.2,20 43.8,17.7 41.5,20 39.2,17.7 36.9,20 34.5,17.7 
			32.2,20 29.9,17.7 27.4,20 27,19.7 27,21.5 27.4,21.8 29.8,19.5 32.2,21.8 34.5,19.5 36.8,21.8 39.2,19.5 41.5,21.8 43.8,19.5 
			46.2,21.8 48.5,19.5 50.8,21.8 53.2,19.5 55.5,21.8 58,19.5 59,20.4 59,18.6 58,17.7 		"/>
	</g>
	<g>
		<polygon fill="#D8528F" points="59,24 58,23 55.6,25.4 53.2,23 50.9,25.4 48.5,23 46.2,25.4 43.8,23 41.5,25.4 39.2,23 36.9,25.4 
			34.5,23 32.2,25.4 29.9,23 27.4,25.4 27,25 27,28.5 27.4,28.9 29.8,26.5 32.2,28.9 34.5,26.5 36.8,28.9 39.2,26.5 41.5,28.9 
			43.8,26.5 46.2,28.9 48.5,26.5 50.8,28.9 53.2,26.5 55.5,28.9 58,26.5 59,27.5 		"/>
		<polygon fill="#BA3E7C" points="55.5,27.1 53.2,24.7 50.8,27.1 48.5,24.7 46.2,27.1 43.8,24.7 41.5,27.1 39.2,24.7 36.9,27.1 
			34.5,24.7 32.2,27.1 29.9,24.7 27.4,27.1 27,26.7 27,28.5 27.4,28.9 29.8,26.5 32.2,28.9 34.5,26.5 36.8,28.9 39.2,26.5 
			41.5,28.9 43.8,26.5 46.2,28.9 48.5,26.5 50.8,28.9 53.2,26.5 55.5,28.9 58,26.5 59,27.5 59,25.6 58,24.7 		"/>
	</g>
</g>
</svg>
