<?xml version="1.0" encoding="utf-8"?>
<!-- Generator: Adobe Illustrator 16.0.0, SVG Export Plug-In . SVG Version: 6.00 Build 0)  -->
<!DOCTYPE svg PUBLIC "-//W3C//DTD SVG 1.1//EN" "http://www.w3.org/Graphics/SVG/1.1/DTD/svg11.dtd">
<svg version="1.1" id="Layer_1" xmlns="http://www.w3.org/2000/svg" xmlns:xlink="http://www.w3.org/1999/xlink" x="0px" y="0px"
	 width="64px" height="64px" viewBox="0 0 64 64" enable-background="new 0 0 64 64" xml:space="preserve">
<g>
	<g>
		<g>
			<path fill="#747F87" d="M9.6,59.2c0,2.1-1.7,3.8-3.8,3.8l0,0c-2.1,0-3.8-1.7-3.8-3.8V4.8c0-2.1,1.7-3.8,3.8-3.8l0,0
				c2.1,0,3.8,1.7,3.8,3.8V59.2z"/>
			<path fill="#5B666D" d="M5.8,63.1L5.8,63.1c-2.1,0-3.8-1.7-3.8-3.8V4.8c0-2.1,1.7-3.8,3.8-3.8l0,0"/>
		</g>
		<g>
			<path fill="#5B666D" d="M54.4,4.8c0-2.1,1.7-3.8,3.8-3.8l0,0c2.1,0,3.8,1.7,3.8,3.8v54.5c0,2.1-1.7,3.8-3.8,3.8l0,0
				c-2.1,0-3.8-1.7-3.8-3.8V4.8z"/>
			<path fill="#747F87" d="M58.2,0.9L58.2,0.9c2.1,0,3.8,1.7,3.8,3.8v54.5c0,2.1-1.7,3.8-3.8,3.8l0,0"/>
		</g>
	</g>
	<path fill="#5B666D" d="M57.5,11c0,0.8-0.7,1.5-1.5,1.5H8c-0.8,0-1.5-0.7-1.5-1.5l0,0c0-0.8,0.7-1.5,1.5-1.5h48
		C56.8,9.5,57.5,10.2,57.5,11L57.5,11z"/>
	<path fill="#5B666D" d="M57.5,25c0,0.8-0.7,1.5-1.5,1.5H8c-0.8,0-1.5-0.7-1.5-1.5l0,0c0-0.8,0.7-1.5,1.5-1.5h48
		C56.8,23.5,57.5,24.2,57.5,25L57.5,25z"/>
	<path fill="#5B666D" d="M57.5,39c0,0.8-0.7,1.5-1.5,1.5H8c-0.8,0-1.5-0.7-1.5-1.5l0,0c0-0.8,0.7-1.5,1.5-1.5h48
		C56.8,37.5,57.5,38.2,57.5,39L57.5,39z"/>
	<path fill="#5B666D" d="M57.5,53c0,0.8-0.7,1.5-1.5,1.5H8c-0.8,0-1.5-0.7-1.5-1.5l0,0c0-0.8,0.7-1.5,1.5-1.5h48
		C56.8,51.5,57.5,52.2,57.5,53L57.5,53z"/>
	<g>
		<circle fill="#37B546" cx="16.5" cy="11" r="4"/>
		<path fill="#27A032" d="M20.5,11c0,2.2-1.8,4-4,4s-4-1.8-4-4"/>
		<path fill="#5B666D" d="M20.7,11c0,1.2-0.5,2.1-1,2.1c-0.5,0-0.9-0.9-0.9-2.1s0.4-2.1,0.9-2.1C20.1,8.9,20.7,9.8,20.7,11z"/>
		<path fill="#45CE52" d="M16.3,7.4c0.3,0.3-0.2,1.2-1.1,1.9c-0.9,0.7-1.8,1-2.1,0.6c-0.3-0.3,0.2-1.2,1.1-1.8
			C15.2,7.4,16.1,7.1,16.3,7.4z"/>
		<circle fill="#45CE52" cx="17.2" cy="7.7" r="0.3"/>
	</g>
	<g>
		<circle fill="#37B546" cx="27" cy="53" r="4"/>
		<path fill="#27A032" d="M31,53c0,2.2-1.8,4-4,4s-4-1.8-4-4"/>
		<path fill="#5B666D" d="M31.2,53c0,1.2-0.5,2.1-1,2.1c-0.5,0-0.9-0.9-0.9-2.1s0.4-2.1,0.9-2.1C30.6,50.9,31.2,51.8,31.2,53z"/>
		<path fill="#45CE52" d="M26.8,49.4c0.3,0.3-0.2,1.2-1.1,1.9c-0.9,0.7-1.8,1-2.1,0.6c-0.3-0.3,0.2-1.2,1.1-1.8
			C25.7,49.4,26.6,49.1,26.8,49.4z"/>
		<circle fill="#45CE52" cx="27.7" cy="49.7" r="0.3"/>
	</g>
	<g>
		<circle fill="#1B3A1D" cx="13" cy="39" r="4"/>
		<path fill="#061407" d="M17,39c0,2.2-1.8,4-4,4s-4-1.8-4-4"/>
		<path fill="#5B666D" d="M17.2,39c0,1.2-0.5,2.1-1,2.1c-0.5,0-0.9-0.9-0.9-2.1s0.4-2.1,0.9-2.1C16.6,36.9,17.2,37.8,17.2,39z"/>
		<path fill="#305631" d="M12.8,35.4c0.3,0.3-0.2,1.2-1.1,1.9c-0.9,0.7-1.8,1-2.1,0.6c-0.3-0.3,0.2-1.2,1.1-1.8
			C11.7,35.4,12.6,35.1,12.8,35.4z"/>
		<circle fill="#305631" cx="13.7" cy="35.7" r="0.3"/>
	</g>
	<g>
		<circle fill="#FFA300" cx="34.5" cy="39" r="4"/>
		<path fill="#FF6D00" d="M38.5,39c0,2.2-1.8,4-4,4s-4-1.8-4-4"/>
		<path fill="#5B666D" d="M38.7,39c0,1.2-0.5,2.1-1,2.1c-0.5,0-0.9-0.9-0.9-2.1s0.4-2.1,0.9-2.1C38.1,36.9,38.7,37.8,38.7,39z"/>
		<path fill="#FFDA00" d="M34.3,35.4c0.3,0.3-0.2,1.2-1.1,1.9c-0.9,0.7-1.8,1-2.1,0.6c-0.3-0.3,0.2-1.2,1.1-1.8
			C33.1,35.4,34,35.1,34.3,35.4z"/>
		<circle fill="#FFDA00" cx="35.2" cy="35.7" r="0.3"/>
	</g>
	<g>
		<circle fill="#F28BD7" cx="49.8" cy="39" r="4"/>
		<path fill="#D65BAD" d="M53.8,39c0,2.2-1.8,4-4,4s-4-1.8-4-4"/>
		<path fill="#5B666D" d="M53.9,39c0,1.2-0.5,2.1-1,2.1c-0.5,0-0.9-0.9-0.9-2.1s0.4-2.1,0.9-2.1C53.4,36.9,53.9,37.8,53.9,39z"/>
		<path fill="#FFC5F3" d="M49.5,35.4c0.3,0.3-0.2,1.2-1.1,1.9c-0.9,0.7-1.8,1-2.1,0.6c-0.3-0.3,0.2-1.2,1.1-1.8
			C48.4,35.4,49.3,35.1,49.5,35.4z"/>
		<circle fill="#FFC5F3" cx="50.4" cy="35.7" r="0.3"/>
	</g>
	<g>
		<circle fill="#5FAFE0" cx="28.5" cy="25" r="4"/>
		<path fill="#469FCC" d="M32.5,25c0,2.2-1.8,4-4,4s-4-1.8-4-4"/>
		<path fill="#5B666D" d="M32.7,25c0,1.2-0.5,2.1-1,2.1c-0.5,0-0.9-0.9-0.9-2.1s0.4-2.1,0.9-2.1C32.1,22.9,32.7,23.8,32.7,25z"/>
		<path fill="#8BCDEF" d="M28.3,21.4c0.3,0.3-0.2,1.2-1.1,1.9c-0.9,0.7-1.8,1-2.1,0.6c-0.3-0.3,0.2-1.2,1.1-1.8
			C27.2,21.4,28.1,21.1,28.3,21.4z"/>
		<circle fill="#8BCDEF" cx="29.2" cy="21.7" r="0.3"/>
	</g>
	<g>
		<circle fill="#BC79CC" cx="37.3" cy="25" r="4"/>
		<path fill="#A662B7" d="M41.3,25c0,2.2-1.8,4-4,4s-4-1.8-4-4"/>
		<path fill="#5B666D" d="M41.4,25c0,1.2-0.5,2.1-1,2.1c-0.5,0-0.9-0.9-0.9-2.1s0.4-2.1,0.9-2.1C40.9,22.9,41.4,23.8,41.4,25z"/>
		<path fill="#D396E2" d="M37.1,21.4c0.3,0.3-0.2,1.2-1.1,1.9c-0.9,0.7-1.8,1-2.1,0.6c-0.3-0.3,0.2-1.2,1.1-1.8
			C35.9,21.4,36.8,21.1,37.1,21.4z"/>
		<circle fill="#D396E2" cx="37.9" cy="21.7" r="0.3"/>
	</g>
	<g>
		<circle fill="#F75959" cx="25" cy="11" r="4"/>
		<path fill="#DB4242" d="M29,11c0,2.2-1.8,4-4,4s-4-1.8-4-4"/>
		<path fill="#5B666D" d="M29.1,11c0,1.2-0.5,2.1-1,2.1c-0.5,0-0.9-0.9-0.9-2.1s0.4-2.1,0.9-2.1C28.6,8.9,29.1,9.8,29.1,11z"/>
		<path fill="#FF9292" d="M24.8,7.4c0.3,0.3-0.2,1.2-1.1,1.9c-0.9,0.7-1.8,1-2.1,0.6c-0.3-0.3,0.2-1.2,1.1-1.8
			C23.6,7.4,24.5,7.1,24.8,7.4z"/>
		<circle fill="#FF9292" cx="25.6" cy="7.7" r="0.3"/>
	</g>
	<g>
		<circle fill="#F4C70C" cx="44" cy="11" r="4"/>
		<path fill="#F7AD0B" d="M48,11c0,2.2-1.8,4-4,4s-4-1.8-4-4"/>
		<path fill="#5B666D" d="M48.1,11c0,1.2-0.5,2.1-1,2.1c-0.5,0-0.9-0.9-0.9-2.1s0.4-2.1,0.9-2.1C47.6,8.9,48.1,9.8,48.1,11z"/>
		<path fill="#FCE47E" d="M43.8,7.4c0.3,0.3-0.2,1.2-1.1,1.9c-0.9,0.7-1.8,1-2.1,0.6c-0.3-0.3,0.2-1.2,1.1-1.8
			C42.6,7.4,43.5,7.1,43.8,7.4z"/>
		<circle fill="#FCE47E" cx="44.6" cy="7.7" r="0.3"/>
	</g>
</g>
</svg>
