<?xml version="1.0" encoding="utf-8"?>
<!-- Generator: Adobe Illustrator 16.0.0, SVG Export Plug-In . SVG Version: 6.00 Build 0)  -->
<!DOCTYPE svg PUBLIC "-//W3C//DTD SVG 1.1//EN" "http://www.w3.org/Graphics/SVG/1.1/DTD/svg11.dtd">
<svg version="1.1" id="Layer_1" xmlns="http://www.w3.org/2000/svg" xmlns:xlink="http://www.w3.org/1999/xlink" x="0px" y="0px"
	 width="64px" height="64px" viewBox="0 0 64 64" enable-background="new 0 0 64 64" xml:space="preserve">
<g>
	<path fill="#05961D" d="M52.4,20.8c0,0,8.4-0.6,9.4,2.4c1,3.1-4.5,6.9-8.2,3.6c0,0,2.8,3.9,0.1,5c-2.7,1.1-6.3-0.3-5.5-3.8
		c0,0-1.1,1.7-3.5-0.3c-2.5-2,3.9-8.1,3.9-8.1L52.4,20.8z"/>
	<path fill="#046812" d="M53.7,31.9c-2.7,1.1-6.3-0.3-5.5-3.8c0,0-1.1,1.7-3.5-0.3c-2.5-2,3.9-8.1,3.9-8.1l3.9,1.1"/>
	<path fill="#046812" d="M61.8,23.2c1,3.1-4.5,6.9-8.2,3.6"/>
	<g>
		<path fill="#EF4D4E" d="M6.5,47.2l-1.4-1.4c-6-6-6-15.7,0-21.6c2.1-2.1,5.6-2.1,7.7,0c2.1,2.1,2.1,5.6,0,7.7
			c-1.7,1.7-1.7,4.5,0,6.3l1.4,1.4c1.7,1.7,4.5,1.7,6.3,0L54.1,5.8c2.1-2.1,5.6-2.1,7.7,0c2.1,2.1,2.1,5.6,0,7.7L28.1,47.2
			C22.1,53.2,12.4,53.2,6.5,47.2z"/>
	</g>
	<g>
		<path fill="#C11724" d="M61.8,13.5L28.1,47.2c-5.6,5.6-14.5,5.9-20.5,1"/>
		<line fill="#EF4D4E" x1="12.7" y1="38.1" x2="14.1" y2="39.5"/>
	</g>
	<g>
		<path fill="#80EDE3" d="M46.1,13.8l15.4-0.1l0,0c1.6-1.5,2.1-3.3,1.8-4.7H50.9L46.1,13.8z"/>
		<path fill="#55CEBF" d="M46.1,13.8l15.4-0.1l0,0c1.3-1.3,2.2-3,1.8-4.7"/>
		<g>
			<polygon fill="#80EDE3" points="56.3,19 40.9,19 35.9,24 51.3,24 			"/>
			<polyline fill="#55CEBF" points="36,24 51.3,24 56.3,19 			"/>
			<path fill="#80EDE3" d="M12.6,24c-1.8-1.8-5.3-2-7.3,0H12.6z"/>
		</g>
		<g>
			<polygon fill="#80EDE3" points="46.3,29 30.9,29 25.9,34 41.3,34 			"/>
			<polyline fill="#55CEBF" points="27,34 41.3,34 46.3,29 			"/>
			<path fill="#80EDE3" d="M0.6,34h10.9c0.3-0.9,0.5-1.5,1.2-2.2c1-1.1,1.3-1.8,1.5-2.8H1.8C1.1,31,0.7,33,0.6,34z"/>
			<path fill="#55CEBF" d="M1.8,29c-0.7,1.6-1.1,3.4-1.2,5h10.9c0.3-1,0.5-1.5,1.2-2.2"/>
		</g>
		<path fill="#80EDE3" d="M4.3,45h26l6-6H20.9l0,0c-2.1,2.3-5,2.4-7,0.3L13.6,39H1.1C1.7,41,2.6,43,4.3,45z"/>
		<polyline fill="#55CEBF" points="5,45 30.3,45 35.4,39.9 		"/>
		<path fill="#55CEBF" d="M24.2,50H10.3C15,52.3,20,52.1,24.2,50z"/>
	</g>
	<path fill="#21C140" d="M50.3,27c-0.6,0.6-1.1,0-1.7-0.6l-7.3-7.3c-0.6-0.6-1.3-1.1-0.6-1.7l2.9-2.9c0.6-0.6,1.7-0.6,2.3,0l7.3,7.3
		c0.6,0.6,0.6,1.7,0,2.3L50.3,27z"/>
	<path fill="#05961D" d="M43.6,14.5c0.6-0.6,1.7-0.6,2.3,0l7.3,7.3c0.6,0.6,0.6,1.7,0,2.3L50.3,27c-0.6,0.6-1.1,0-1.7-0.6"/>
	<path fill="#FF7B82" d="M61.7,7.2c-0.1,0.6-1.6,0.8-3.3,0.5c-1.7-0.3-3-1.1-2.9-1.7c0.1-0.6,1.6-0.8,3.3-0.5
		C60.6,5.8,61.9,6.6,61.7,7.2z"/>
	<g>
		<circle fill="#30D84C" cx="45" cy="18.2" r="0.6"/>
		<circle fill="#30D84C" cx="47.3" cy="20.4" r="0.6"/>
		<circle fill="#30D84C" cx="49.5" cy="22.6" r="0.6"/>
	</g>
	<path fill="#046812" d="M47,30.5c0,0,3.7,7.3-4.7,13.3c-8.4,5.9-4.2,12.9,1.8,12.1c0,0-3.4,2.4-5.9,1.4c0,0-0.4,1.4,1,2.5
		c0,0-10.5-2.2-6.1-10.8c2.4-4.6,8.7-4.5,12.8-10.9C48.5,34.2,47,30.5,47,30.5z"/>
	<path fill="#046812" d="M47,31c0,0,5.4,3.3,2.3,10.6c-3.1,7.3,2.5,10.2,6.1,7.2c0,0-1.3,2.9-3.3,3.3c0,0,0.3,1.1,1.7,1.3
		c0,0-7.8,2.8-8.4-4.6c-0.3-4,3.9-6.5,4-12.3C49.5,32.8,47,31,47,31z"/>
</g>
</svg>
