<?xml version="1.0" encoding="utf-8"?>
<!-- Generator: Adobe Illustrator 16.0.0, SVG Export Plug-In . SVG Version: 6.00 Build 0)  -->
<!DOCTYPE svg PUBLIC "-//W3C//DTD SVG 1.1//EN" "http://www.w3.org/Graphics/SVG/1.1/DTD/svg11.dtd">
<svg version="1.1" id="Layer_1" xmlns="http://www.w3.org/2000/svg" xmlns:xlink="http://www.w3.org/1999/xlink" x="0px" y="0px"
	 width="64px" height="64px" viewBox="0 0 64 64" enable-background="new 0 0 64 64" xml:space="preserve">
<g>
	<g>
		<g>
			<circle fill="#EF4D4E" cx="22.7" cy="31.7" r="6.4"/>
			<path fill="#CE3A41" d="M22.7,25.2c3.6,0,6.4,2.9,6.4,6.4s-2.9,6.4-6.4,6.4"/>
			<path fill="#F4929C" d="M19.7,30.9c-0.5,1.5-1.4,2.4-2.1,2.2c-0.7-0.2-0.8-1.6-0.3-3.1c0.5-1.5,1.4-2.4,2.1-2.2
				C20,28.1,20.2,29.4,19.7,30.9z"/>
			<ellipse transform="matrix(0.448 0.894 -0.894 0.448 35.4297 -3.5025)" fill="#F4929C" cx="20.6" cy="26.9" rx="0.5" ry="1"/>
		</g>
		<g>
			<circle fill="#EF4D4E" cx="36.5" cy="37.9" r="6.4"/>
			<path fill="#CE3A41" d="M31.9,33.3c2.5-2.5,6.6-2.5,9.1,0c2.5,2.5,2.5,6.6,0,9.1"/>
			<path fill="#F4929C" d="M33.8,39.4c0.7,1.4,0.7,2.8,0.1,3.1c-0.6,0.3-1.7-0.5-2.4-1.9c-0.7-1.4-0.7-2.7-0.1-3.1
				C32.1,37.2,33.1,38,33.8,39.4z"/>
			<ellipse transform="matrix(0.9493 0.3144 -0.3144 0.9493 12.9208 -8.1192)" fill="#F4929C" cx="31.6" cy="36" rx="0.5" ry="1"/>
		</g>
		<g>
			<circle fill="#EF4D4E" cx="35.4" cy="22.3" r="6.4"/>
			<path fill="#CE3A41" d="M40,17.7c2.5,2.5,2.5,6.6,0,9.1c-2.5,2.5-6.6,2.5-9.1,0"/>
			<path fill="#F4929C" d="M33.9,19.7c-1.4,0.7-2.8,0.7-3.1,0.1c-0.3-0.6,0.5-1.7,1.9-2.4c1.4-0.7,2.7-0.7,3.1-0.1
				C36.1,17.9,35.2,19,33.9,19.7z"/>
			
				<ellipse transform="matrix(-0.3147 0.9492 -0.9492 -0.3147 65.5607 -12.4294)" fill="#F4929C" cx="37.3" cy="17.5" rx="0.5" ry="1"/>
		</g>
	</g>
	<path fill="#4DA044" d="M27,22.7c0,0-1.6-4.5,4.8-8c0,0-6.1-1.6-5.2-3.8c0,0-3.6,0.2-3.5-3.8c0,0-4-1-4.3-3.9c0,0-4.3,2.8-12.6-2.3
		c0,0,5,10.3,2.9,13.7c0,0,5.8,1.4,5.8,5.1c0,0,2.4,1.3,2,3.3c0,0,4.6-1.7,8.1-0.1l-8.2-11.5L27,22.7z"/>
	<path fill="#317A26" d="M27.6,38.7c0,0-5.2,4-12.7,0.8c0,0-1.5,5.9-5.6,5.5c0,0-0.7,6-3.1,5.8c0,0,0.4,3.9-1.7,4.8
		c0,0,0.9,5.2-1.7,7.4c0,0,5.8-1.9,8.3-1.1c0,0,4.2-3.5,7.1-2.4c0,0,3.9-5.4,7-3.9c0,0,1.3-4.7,2.3-4.6c0.9,0.1-1.6-1.2-0.1-7.2
		c0,0-7.4,8.6-15.8,11.9c0,0,9-5.6,14.2-12.7l1.3-1.6L27.6,38.7z"/>
	<circle fill="#991428" cx="30.9" cy="46.8" r="2.3"/>
	<circle fill="#991428" cx="35.9" cy="46.6" r="0.8"/>
	<circle fill="#991428" cx="31.3" cy="52.4" r="1.7"/>
	<circle fill="#EF4D4E" cx="35" cy="50" r="0.9"/>
	<path fill="#5C9B13" d="M39.9,29.3c0,0,3.4-1,3.6-6.1c0,0,2.5,0.5,4.4-1.7c0,0,1.5,1.7,5.1,0c0,0,1.9,3.6,8.3,3.3
		c0,0-6.4,5.1-8,9.4c0,0-3.1-1.7-4.7,0.8c0,0-2.4-1.6-3.4,0.1c0,0-2-3.1-3.4-3.9c0,0,10.1-0.6,14.5-4.8c0,0-6.4,3.6-15.6,3.6h-3.2
		L39.9,29.3z"/>
</g>
</svg>
