<?xml version="1.0" encoding="utf-8"?>
<!-- Generator: Adobe Illustrator 16.0.0, SVG Export Plug-In . SVG Version: 6.00 Build 0)  -->
<!DOCTYPE svg PUBLIC "-//W3C//DTD SVG 1.1//EN" "http://www.w3.org/Graphics/SVG/1.1/DTD/svg11.dtd">
<svg version="1.1" id="Layer_1" xmlns="http://www.w3.org/2000/svg" xmlns:xlink="http://www.w3.org/1999/xlink" x="0px" y="0px"
	 width="64px" height="64px" viewBox="0 0 64 64" enable-background="new 0 0 64 64" xml:space="preserve">
<g>
	<path fill="#19BA37" d="M62.5,63C58.1,55,46.1,50.1,32,50.1C17.9,50.1,5.9,55,1.5,63H62.5z"/>
	<path fill="#0D9B2E" d="M2,63h60.5c-4.4-8-16.6-12.9-30.8-12.9"/>
	<g>
		<polygon fill="#19BA37" points="54.6,27.5 32,50.1 9.4,27.5 32,5.6 		"/>
		<polygon fill="#2CCE42" points="54.6,27.5 32,50.1 9.4,27.5 32,5.6 		"/>
		<polygon fill="#19BA37" points="54.6,27.5 32,50.1 9.4,27.5 32,11.3 		"/>
		<polyline fill="#0D9B2E" points="32,5.6 54.6,27.5 32,50.1 		"/>
		<g>
			<path fill="#C7EFDA" d="M56.5,36.6c0,16.3-11,24.5-24.5,24.5S7.5,52.9,7.5,36.6c0-16.3,11-7.1,24.5-7.1S56.5,20.3,56.5,36.6z"/>
			<path fill="#ACDDC6" d="M32,29.5c13.5,0,24.5-9.2,24.5,7.1c0,16.3-11,24.5-24.5,24.5S7.5,52.9,7.5,36.6"/>
			<path fill="#86C4A4" d="M32,29.5c13.5,0,24.5-9.2,24.5,7.1c0,16.3-11,24.5-24.5,24.5"/>
			<g>
				<path fill="#86C4A4" d="M12.4,28.9c0,0,2-5.4-1.7-12.9C7,8.5,9.4,5.5,9.4,5.5s-11.7,16-6.5,27.2c5.3,11.2,7.5,6.3,7.5,6.3
					L12.4,28.9z"/>
				<path fill="#ACDDC6" d="M10.7,16C7,8.5,9.4,5.5,9.4,5.5s-11.7,16-6.5,27.2c5.3,11.2,7.5,6.3,7.5,6.3"/>
				<path fill="#ACDDC6" d="M10.7,16C7,8.5,9.4,5.5,9.4,5.5s-11.7,16-6.5,27.2c5.3,11.2,7.5,6.3,7.5,6.3"/>
				<path fill="#ACDDC6" d="M51.6,28.9c0,0-2-5.4,1.7-12.9C57,8.5,54.6,5.5,54.6,5.5s11.7,16,6.5,27.2c-5.3,11.2-7.5,6.3-7.5,6.3
					L51.6,28.9z"/>
				<path fill="#86C4A4" d="M53.3,16C57,8.5,54.6,5.5,54.6,5.5s11.7,16,6.5,27.2c-5.3,11.2-7.5,6.3-7.5,6.3"/>
			</g>
		</g>
		<polygon fill="#1E4784" points="43,27.9 32,38.9 21,27.9 32,29 		"/>
		<polyline fill="#00233F" points="32,29 43,27.9 32,38.9 		"/>
		<g>
			<g>
				<g>
					<g>
						<g>
							<path fill="#9B3E83" d="M22.6,36.1c-1.6,0.1-2.8,0.8-2.8,1.6l5.7-0.4C25.5,36.6,24.2,36,22.6,36.1z"/>
						</g>
					</g>
					<g>
						<g>
							<path fill="#9B3E83" d="M41.4,36.1c1.6,0.1,2.8,0.8,2.8,1.6l-5.7-0.4C38.5,36.6,39.8,36,41.4,36.1z"/>
						</g>
					</g>
				</g>
				<path fill="#C7EFDA" d="M21.5,44.4c-3.8,0-6.8,0.9-6.8,1.9c0,1.1,3.1,0.6,6.8,0.6c3.8,0,6.8,0.5,6.8-0.6
					C28.4,45.2,25.3,44.4,21.5,44.4z"/>
				<path fill="#C7EFDA" d="M42.5,44.4c-3.8,0-6.8,0.9-6.8,1.9c0,1.1,3.1,0.6,6.8,0.6c3.8,0,6.8,0.5,6.8-0.6
					C49.3,45.2,46.2,44.4,42.5,44.4z"/>
				<g>
					<path fill="#86C4A4" d="M25.9,43c0,1.5-1.2,2.8-2.8,2.8c-1.5,0-2.8-1.2-2.8-2.8c0-1.5,1.2-2.8,2.8-2.8
						C24.6,40.2,25.9,41.4,25.9,43z"/>
					<circle fill="#86C4A4" cx="41.2" cy="43" r="2.8"/>
					<path fill="#1E4784" d="M25.9,42.2c0,1.5-1.2,2.8-2.8,2.8c-1.5,0-2.8-1.2-2.8-2.8c0-1.5,1.2-2.8,2.8-2.8
						C24.6,39.4,25.9,40.6,25.9,42.2z"/>
					<path fill="#00233F" d="M23.1,39.4c1.5,0,2.8,1.2,2.8,2.8c0,1.5-1.2,2.8-2.8,2.8"/>
					<path fill="#1E4784" d="M44,42.2c0,1.5-1.2,2.8-2.8,2.8c-1.5,0-2.8-1.2-2.8-2.8c0-1.5,1.2-2.8,2.8-2.8
						C42.8,39.4,44,40.6,44,42.2z"/>
					<path fill="#00233F" d="M41.2,39.4c1.5,0,2.8,1.2,2.8,2.8c0,1.5-1.2,2.8-2.8,2.8"/>
				</g>
			</g>
		</g>
		<path fill="#9B3E83" d="M38.4,50.8c0,1.3-2.9,3.7-6.4,3.7c-3.5,0-6.4-2.4-6.4-3.7c0-1.3,2.9-1,6.4-1
			C35.5,49.8,38.4,49.5,38.4,50.8z"/>
		<path fill="#681C5A" d="M25.6,50.8c0-1.3,2.9-1,6.4-1c3.5,0,6.4-0.3,6.4,1"/>
		<polygon fill="#2CCE42" points="46.8,16.4 35.4,5 44.9,5 		"/>
		<polygon fill="#19BA37" points="46.8,16.4 39.2,8.8 44.9,5 		"/>
		<polygon fill="#0D9B2E" points="48.6,13.5 46.6,1.1 52,8.2 		"/>
		<g>
			<g>
				<circle fill="#0D9B2E" cx="17.8" cy="25.2" r="0.9"/>
				<circle fill="#0D9B2E" cx="21.3" cy="25.2" r="0.9"/>
				<circle fill="#0D9B2E" cx="24.8" cy="25.2" r="0.9"/>
				<circle fill="#0D9B2E" cx="28.3" cy="25.2" r="0.9"/>
			</g>
			<g>
				<circle fill="#19BA37" cx="35.7" cy="25.2" r="0.9"/>
				<circle fill="#19BA37" cx="39.2" cy="25.2" r="0.9"/>
				<circle fill="#19BA37" cx="42.7" cy="25.2" r="0.9"/>
				<circle fill="#19BA37" cx="46.2" cy="25.2" r="0.9"/>
			</g>
		</g>
		<g>
			<g>
				<circle fill="#2CCE42" cx="6.2" cy="37.4" r="2.6"/>
				<path fill="#19BA37" d="M4.4,35.6c1-1,2.6-1,3.6,0c1,1,1,2.6,0,3.6"/>
			</g>
			<g>
				<circle fill="#2CCE42" cx="57.8" cy="37.4" r="2.6"/>
				<path fill="#19BA37" d="M56,35.6c1-1,2.6-1,3.6,0c1,1,1,2.6,0,3.6"/>
			</g>
		</g>
	</g>
</g>
</svg>
