<?xml version="1.0" encoding="utf-8"?>
<!-- Generator: Adobe Illustrator 16.0.0, SVG Export Plug-In . SVG Version: 6.00 Build 0)  -->
<!DOCTYPE svg PUBLIC "-//W3C//DTD SVG 1.1//EN" "http://www.w3.org/Graphics/SVG/1.1/DTD/svg11.dtd">
<svg version="1.1" id="Layer_1" xmlns="http://www.w3.org/2000/svg" xmlns:xlink="http://www.w3.org/1999/xlink" x="0px" y="0px"
	 width="64px" height="64px" viewBox="0 0 64 64" enable-background="new 0 0 64 64" xml:space="preserve">
<g>
	<path fill="#5ECCDB" d="M61.9,51.4c-0.6,0-1,0.4-1,1c0,2-1.6,3.6-3.6,3.6h-3.7c0,0-0.1-0.1-0.1-0.1l-9-9c-0.4-0.4-1-0.4-1.4,0
		s-0.4,1,0,1.4l7.7,7.7H9.2l7.7-7.7c0.4-0.4,0.4-1,0-1.4s-1-0.4-1.4,0l-9,9c0,0-0.1,0.1-0.1,0.1H2.1c-0.6,0-1,0.4-1,1s0.4,1,1,1
		h55.2c3.1,0,5.6-2.5,5.6-5.6C62.9,51.9,62.5,51.4,61.9,51.4z"/>
	<g>
		<path fill="#A8704A" d="M53.9,35.7c-1-1.2-2.9-2.3-6.3-2.5c-7-0.4-15.5-5.9-15.9-13.4c-0.4-7.5,4.5-7.1,3.8-11.6
			c-0.7-4.5-10.7-1.1-12,0.5c-1.3,1.6,0.7,6.1,0.7,6.1s-2.9-4.3-7.9-6.4C12,6.5,7.8,10,6.6,11.1c-0.2,0.1-0.5,0.3-0.7,0.4
			c-1.6,1.3-2.4,3.1-1.6,4.2C4.7,16.2,6,16.4,6,16.4v21.1c-1,1.3-2.2,3.1-2.2,5.3c0,4,3.3,7.2,7.3,7.2h6.1c2.2,0,4.2-1,5.5-2.5
			c1.3,1.6,3.3,2.5,5.5,2.5h25.4c4,0,7.3-3.1,7.3-7.2C61,38.9,57.9,35.8,53.9,35.7z"/>
		<path fill="#8C5937" d="M17.2,50c2.2,0,4.2-0.9,5.6-2.5c1.3,1.6,3.5,2.5,5.7,2.5h25.4c4,0,7.3-3.1,7.3-7.1c0-4-3.1-7.1-7.1-7.2
			c-1-1.2-2.9-2.3-6.3-2.5c-7-0.4-15.5-5.9-15.9-13.4s4.5-7.1,3.8-11.6c-0.7-4.5-10.7-1.1-12,0.5c-1.3,1.6,0.7,6.1,0.7,6.1
			s-2.9-4.3-7.9-6.4"/>
		<path fill="#7F4B2E" d="M53.7,50c4,0,7.5-2.9,7.5-6.9c0-4-3.1-7.2-7.1-7.3c-1-1.2-2.9-2.3-6.3-2.5c-7-0.4-15.5-5.9-15.9-13.4
			s4.5-7.1,3.8-11.6c-0.7-4.5-10.7-1.1-12,0.5c-1.3,1.6,0.7,6.1,0.7,6.1"/>
		<path fill="#543520" d="M24.5,42.8L24.5,42.8c0,4-3.3,7.2-7.3,7.2H6.8c-4,0-3-3.2-3-7.2l0,0"/>
		<path fill="#543520" d="M61.2,43.1L61.2,43.1c0,4-3.5,6.9-7.5,6.9H28.3c-4,0-7.4-3.1-7.4-7.2l0,0"/>
		<path fill="#543520" d="M35,21c0,0.6-0.4,1-1,1h-7c-0.6,0-1-0.4-1-1l0,0c0-0.6,0.4-1,1-1h7C34.6,20,35,20.4,35,21L35,21z"/>
		<path fill="#543520" d="M38.2,26.4c0.3,0.5,0.1,1.2-0.5,1.4l-6.4,3.3c-0.5,0.3-1.2,0.1-1.4-0.5l0,0c-0.3-0.5-0.1-1.2,0.5-1.4
			l6.4-3.3C37.3,25.7,38,25.9,38.2,26.4L38.2,26.4z"/>
		<path fill="#543520" d="M43.5,29.5c0.5,0.4,0.5,1.1,0.1,1.5l-4.6,5.5C38.7,37,38,37,37.6,36.7l0,0c-0.5-0.4-0.5-1.1-0.1-1.5
			l4.6-5.5C42.4,29.2,43.1,29.1,43.5,29.5L43.5,29.5z"/>
		<path fill="#C6926F" d="M8,17.4V37c0,0,1.1-1.4,1.9-5.6C10.7,27.3,8,17.4,8,17.4z"/>
		<circle fill="#A8704A" cx="23.3" cy="21.7" r="1"/>
		<circle fill="#A8704A" cx="27.2" cy="32.3" r="1"/>
		<circle fill="#A8704A" cx="36.5" cy="38.4" r="1"/>
		<path fill="#A8704A" d="M9,47.5C9,47.8,8.8,48,8.5,48l0,0C8.2,48,8,47.8,8,47.5v-2C8,45.2,8.2,45,8.5,45l0,0C8.8,45,9,45.2,9,45.5
			V47.5z"/>
		<path fill="#A8704A" d="M14,47.5c0,0.3-0.2,0.5-0.5,0.5l0,0c-0.3,0-0.5-0.2-0.5-0.5v-2c0-0.3,0.2-0.5,0.5-0.5l0,0
			c0.3,0,0.5,0.2,0.5,0.5V47.5z"/>
		<path fill="#A8704A" d="M19,47.5c0,0.3-0.2,0.5-0.5,0.5l0,0c-0.3,0-0.5-0.2-0.5-0.5v-2c0-0.3,0.2-0.5,0.5-0.5l0,0
			c0.3,0,0.5,0.2,0.5,0.5V47.5z"/>
		<path fill="#A8704A" d="M28,47.5c0,0.3-0.2,0.5-0.5,0.5l0,0c-0.3,0-0.5-0.2-0.5-0.5v-2c0-0.3,0.2-0.5,0.5-0.5l0,0
			c0.3,0,0.5,0.2,0.5,0.5V47.5z"/>
		<path fill="#A8704A" d="M33,47.5c0,0.3-0.2,0.5-0.5,0.5l0,0c-0.3,0-0.5-0.2-0.5-0.5v-2c0-0.3,0.2-0.5,0.5-0.5l0,0
			c0.3,0,0.5,0.2,0.5,0.5V47.5z"/>
		<path fill="#A8704A" d="M37,47.5c0,0.3-0.2,0.5-0.5,0.5l0,0c-0.3,0-0.5-0.2-0.5-0.5v-2c0-0.3,0.2-0.5,0.5-0.5l0,0
			c0.3,0,0.5,0.2,0.5,0.5V47.5z"/>
		<path fill="#A8704A" d="M42,47.5c0,0.3-0.2,0.5-0.5,0.5l0,0c-0.3,0-0.5-0.2-0.5-0.5v-2c0-0.3,0.2-0.5,0.5-0.5l0,0
			c0.3,0,0.5,0.2,0.5,0.5V47.5z"/>
		<path fill="#A8704A" d="M47,47.5c0,0.3-0.2,0.5-0.5,0.5l0,0c-0.3,0-0.5-0.2-0.5-0.5v-2c0-0.3,0.2-0.5,0.5-0.5l0,0
			c0.3,0,0.5,0.2,0.5,0.5V47.5z"/>
		<path fill="#A8704A" d="M52,47.5c0,0.3-0.2,0.5-0.5,0.5l0,0c-0.3,0-0.5-0.2-0.5-0.5v-2c0-0.3,0.2-0.5,0.5-0.5l0,0
			c0.3,0,0.5,0.2,0.5,0.5V47.5z"/>
		<path fill="#A8704A" d="M57,47.5c0,0.3-0.2,0.5-0.5,0.5l0,0c-0.3,0-0.5-0.2-0.5-0.5v-2c0-0.3,0.2-0.5,0.5-0.5l0,0
			c0.3,0,0.5,0.2,0.5,0.5V47.5z"/>
	</g>
</g>
</svg>
