<?xml version="1.0" encoding="utf-8"?>
<!-- Generator: Adobe Illustrator 16.0.0, SVG Export Plug-In . SVG Version: 6.00 Build 0)  -->
<!DOCTYPE svg PUBLIC "-//W3C//DTD SVG 1.1//EN" "http://www.w3.org/Graphics/SVG/1.1/DTD/svg11.dtd">
<svg version="1.1" id="Layer_1" xmlns="http://www.w3.org/2000/svg" xmlns:xlink="http://www.w3.org/1999/xlink" x="0px" y="0px"
	 width="64px" height="64px" viewBox="0 0 64 64" enable-background="new 0 0 64 64" xml:space="preserve">
<g>
	<g>
		<g>
			<path d="M50,49.6V46h-4.8c-3,0-7.2-1.3-11.7-1.3c-4.6,0-8.7,1.3-11.7,1.3H17v3.6c0,0.1-0.3,0.2-0.3,0.3c0,2.7,7.5,4.8,16.8,4.8
				s16.7-2.2,16.7-4.8C50.3,49.8,50,49.7,50,49.6z"/>
			<ellipse fill="#003F3A" cx="33.5" cy="46.9" rx="16.9" ry="4.8"/>
			<ellipse fill="#125952" cx="33.5" cy="46.1" rx="10.7" ry="2.9"/>
			
				<ellipse transform="matrix(0.9925 -0.1226 0.1226 0.9925 -5.2713 3.9266)" fill="#1F6D64" cx="29.3" cy="44.8" rx="4.5" ry="0.9"/>
		</g>
		<g>
			<path fill="#D8D1BA" d="M50,45.5V42h-4.8c-3,0-7.2-1.3-11.7-1.3c-4.6,0-8.7,1.3-11.7,1.3H17v3.5c0,0.1-0.3,0.2-0.3,0.3
				c0,2.7,7.5,4.8,16.8,4.8s16.7-2.2,16.7-4.8C50.3,45.7,50,45.6,50,45.5z"/>
			<path fill="#B7B098" d="M33.5,50.6c9.3,0,16.8-2.2,16.8-4.8c0-0.1-0.2-0.2-0.2-0.3V42h-4.8c-3,0-7.2-1.2-11.7-1.2"/>
			<ellipse fill="#F4F1E6" cx="33.5" cy="42.8" rx="16.9" ry="4.8"/>
			<path fill="#CEC8B2" d="M33.5,38c9.3,0,16.9,2.2,16.9,4.8c0,2.7-7.6,4.8-16.9,4.8"/>
			<ellipse fill="#125952" cx="33.5" cy="41.9" rx="10.7" ry="2.9"/>
			
				<ellipse transform="matrix(0.9925 -0.1226 0.1226 0.9925 -4.767 3.8956)" fill="#1F6D64" cx="29.3" cy="40.7" rx="4.5" ry="0.9"/>
		</g>
		<g>
			<g>
				<path d="M50.3,41.7l0.1-3.3L45.2,38c-3-1-7.2-1.3-11.7-1.3c-4.6,0-8.7,0.3-11.7,1.3H17v3.3c0,0.1-0.3,0.2-0.3,0.3
					c0,2.7,7.5,4.8,16.8,4.8S50.3,44.4,50.3,41.7C50.3,41.6,50.3,41.8,50.3,41.7z"/>
				<ellipse fill="#003F3A" cx="33.5" cy="38.7" rx="16.9" ry="4.8"/>
				<path fill="#032B27" d="M33.5,33.8c9.3,0,16.9,2.2,16.9,4.8c0,2.7-7.6,4.8-16.9,4.8"/>
				<ellipse fill="#003F3A" cx="33.5" cy="37.8" rx="10.7" ry="2.9"/>
				<path fill="#032B27" d="M33.5,40.7c-5.9,0-10.7-1.3-10.7-2.9c0-1.6,4.8-2.9,10.7-2.9"/>
				
					<ellipse transform="matrix(0.9924 -0.1227 0.1227 0.9924 -4.3056 3.7643)" fill="#003F3A" cx="28.4" cy="36.8" rx="3.6" ry="0.8"/>
			</g>
			<path fill="#003F3A" d="M18,40.4v3c0,0.2,0,0.4,1,0.6v-3C18,40.8,18,40.6,18,40.4z"/>
			<path fill="#003F3A" d="M22,42.1v3c0,0.1,0,0.2,0,0.2v-3C22,42.2,22,42.2,22,42.1z"/>
			<path fill="#003F3A" d="M25,42.9v3c1,0,1,0.1,1,0.1v-3C26,43,26,42.9,25,42.9z"/>
			<path fill="#003F3A" d="M29,43.3v3c0,0,1,0,1,0.1v-3C30,43.4,29,43.4,29,43.3z"/>
			<path fill="#003F3A" d="M33.5,43.5c-0.2,0-0.5,0-0.5,0v3c0,0,0.3,0,0.5,0s0.5,0,0.5,0v-3C34,43.5,33.7,43.5,33.5,43.5z"/>
			<path fill="#032B27" d="M37,43.4v3c0,0,0,0,1-0.1v-3C37,43.4,37,43.4,37,43.4z"/>
			<path fill="#032B27" d="M41,43v3c0,0,0-0.1,1-0.1v-3C41,42.9,41,43,41,43z"/>
			<path fill="#032B27" d="M45,42.3v3c0-0.1,0-0.2,0-0.2v-3C45,42.2,45,42.2,45,42.3z"/>
			<path fill="#032B27" d="M48,41v3c1-0.2,1-0.4,1-0.6v-3C49,40.6,49,40.8,48,41z"/>
			<path fill="#003F3A" d="M18,48.6v3c0,0.2,0,0.4,1,0.6v-3C18,49,18,48.8,18,48.6z"/>
			<path fill="#003F3A" d="M22,50.3v3c0,0.1,0,0.2,0,0.2v-3C22,50.4,22,50.4,22,50.3z"/>
			<path fill="#003F3A" d="M25,51.1v3c1,0,1,0.1,1,0.1v-3C26,51.2,26,51.1,25,51.1z"/>
			<path fill="#003F3A" d="M29,51.5v3c0,0,1,0,1,0.1v-3C30,51.6,29,51.5,29,51.5z"/>
			<path fill="#003F3A" d="M33.5,51.7c-0.2,0-0.5,0-0.5,0v3c0,0,0.3,0,0.5,0s0.5,0,0.5,0v-3C34,51.7,33.7,51.7,33.5,51.7z"/>
			<path fill="#032B27" d="M37,51.6v3c0,0,0,0,1-0.1v-3C37,51.5,37,51.6,37,51.6z"/>
			<path fill="#032B27" d="M41,51.2v3c0,0,0-0.1,1-0.1v-3C41,51.1,41,51.2,41,51.2z"/>
			<path fill="#032B27" d="M45,50.5v3c0-0.1,0-0.2,0-0.2v-3C45,50.4,45,50.4,45,50.5z"/>
			<path fill="#032B27" d="M48,49.2v3c1-0.2,1-0.4,1-0.6v-3C49,48.8,49,49,48,49.2z"/>
		</g>
	</g>
	<g>
		<path fill="#86DBF2" d="M1,1v53.6c0,5.1,4.5,6.4,9.6,6.4H24c5.1,0,9-2.4,9-7.5V1H1z"/>
		<path fill="#21B3F4" d="M11,61h13c5.1,0,9-2.4,9-7.5V1H4"/>
		<path fill="#2989AA" d="M4,1v51.6c0,4.1,3.8,5.4,7.9,5.4h10.8c4.1,0,7.3-2.1,7.3-6.2V1H4z"/>
		<path fill="#0C6989" d="M22.4,57.7c4.1,0,7.6-1.8,7.6-5.9V1H4"/>
		<path fill="#F4EDD9" d="M4,13v39.6c0,4.1,3.8,5.4,7.9,5.4h10.8c4.1,0,7.3-2.1,7.3-6.2V13H4z"/>
		<path fill="#DDCEB1" d="M12,58h10.7c4.1,0,7.3-2.1,7.3-6.2V13H12"/>
		<path fill="#FFFBF0" d="M9,51.6c0,0.6-0.4,1.1-1,1.1l0,0c-0.6,0-1-0.5-1-1.1V27c0-0.6,0.4-1.1,1-1.1l0,0c0.6,0,1,0.5,1,1.1V51.6z"
			/>
		<path fill="#FFFBF0" d="M9,23.7c0,0.1-0.2,0.6-1,0.6l0,0c-0.8,0-1-0.4-1-0.5v-4C7,19.6,7.2,19,8,19l0,0c0.8,0,1,0.6,1,0.7V23.7z"
			/>
		<g>
			<rect x="26" y="13" fill="#C9B597" width="2" height="19"/>
		</g>
		<circle fill="#F4EDD9" cx="22.7" cy="52.5" r="1.5"/>
		<circle fill="#F4EDD9" cx="18.3" cy="42.3" r="2.4"/>
		<circle fill="#F4EDD9" cx="19.2" cy="50.4" r="0.9"/>
		<circle fill="#F4EDD9" cx="25.3" cy="45.2" r="1.4"/>
		<circle fill="#F4EDD9" cx="21.5" cy="47.6" r="0.6"/>
		<circle fill="#F4EDD9" cx="26.1" cy="38.4" r="0.3"/>
		<circle fill="#F4EDD9" cx="23.6" cy="41.3" r="0.9"/>
	</g>
	<g>
		<g>
			<path d="M62.9,58.5l0-3.5l-5.4,0c-3-1-7.2-1.3-11.7-1.3C41.2,53.7,37,54,34,55l-5.2,0.4l0.1,3.1c0,0.1,0-0.1,0,0
				c0,2.7,7.5,4.8,16.9,4.8S62.9,61.2,62.9,58.5C62.9,58.4,62.9,58.6,62.9,58.5z"/>
			<ellipse fill="#003F3A" cx="45.7" cy="55.5" rx="16.9" ry="4.8"/>
			<ellipse fill="#125952" cx="45.7" cy="54.6" rx="10.7" ry="2.9"/>
			
				<ellipse transform="matrix(0.9925 -0.1226 0.1226 0.9925 -6.2293 5.4907)" fill="#1F6D64" cx="41.5" cy="53.4" rx="4.5" ry="0.9"/>
		</g>
		<g>
			<path fill="#D8D1BA" d="M62.9,54.4L62.7,51h-5.3c-3-1-7.2-1.3-11.7-1.3C41.2,49.7,37,50,34,51h-5v3c0,0.1-0.1,0.2-0.1,0.3
				c0,2.7,7.5,4.8,16.9,4.8S62.9,57.1,62.9,54.4C62.9,54.3,62.9,54.5,62.9,54.4z"/>
			<path fill="#B7B098" d="M45.7,59.2c9.3,0,17.1-2.2,17.1-4.8c0-0.1,0,0.1,0,0l0-3.4h-5.4c-3-1-7.2-1.4-11.7-1.4"/>
			<ellipse fill="#F4F1E6" cx="45.7" cy="51.4" rx="16.9" ry="4.8"/>
			<path fill="#CEC8B2" d="M45.7,46.5c9.3,0,16.9,2.2,16.9,4.8c0,2.7-7.6,4.8-16.9,4.8"/>
			<ellipse fill="#125952" cx="45.7" cy="50.5" rx="10.7" ry="2.9"/>
			
				<ellipse transform="matrix(0.9925 -0.1226 0.1226 0.9925 -5.7249 5.4597)" fill="#1F6D64" cx="41.5" cy="49.3" rx="4.5" ry="0.9"/>
		</g>
		<g>
			<g>
				<path d="M62.7,50.3l-0.1-3L57.4,47c-3-1-7.2-1.3-11.7-1.3C41.2,45.7,37,46,34,47l-5.2,0.2l0.1,3c0,0.1,0-0.1,0,0
					c0,2.7,7.5,4.8,16.9,4.8S62.7,53,62.7,50.3C62.7,50.2,62.7,50.4,62.7,50.3z"/>
				<ellipse fill="#003F3A" cx="45.7" cy="47.2" rx="16.9" ry="4.8"/>
				<path fill="#032B27" d="M45.7,42.4c9.3,0,16.9,2.2,16.9,4.8c0,2.7-7.6,4.8-16.9,4.8"/>
				<ellipse fill="#003F3A" cx="45.7" cy="46.4" rx="10.7" ry="2.9"/>
				<path fill="#032B27" d="M45.7,49.3C39.8,49.3,35,48,35,46.4c0-1.6,4.8-2.9,10.7-2.9"/>
				
					<ellipse transform="matrix(0.9924 -0.1227 0.1227 0.9924 -5.2645 5.3302)" fill="#003F3A" cx="40.6" cy="45.4" rx="3.6" ry="0.8"/>
			</g>
			<path fill="#003F3A" d="M30,49l0,3c0.3,0.3,0.5,0.3,1,0.6v-3.1C30.5,49.3,30.4,49.1,30,49z"/>
			<path fill="#003F3A" d="M30,57l0,3.3c0.2,0.1,0.5,0.3,1,0.6v-3.3C30.5,57.3,30.4,57.1,30,57z"/>
			<path fill="#003F3A" d="M34,50.6l0,3.1c0.1,0.1,0.3,0.1,1,0.3v-3.1C34.6,50.9,34.3,50.8,34,50.6z"/>
			<path fill="#003F3A" d="M33,58.6l0,3c0.1,0.1,0.3,0.2,1,0.3v-3.1C33.6,58.9,33.5,58.8,33,58.6z"/>
			<path fill="#003F3A" d="M37,51.4l0,3c0.2,0.1,1,0.1,1,0.2v-3C38,51.6,38,51.4,37,51.4z"/>
			<path fill="#003F3A" d="M37,59.4v3.3c0,0.1,1,0.1,1,0.2v-3.2C38,59.6,38,59.4,37,59.4z"/>
			<path fill="#003F3A" d="M41,51.9v3c0.5,0,0.6,0.1,1,0.1v-3C42,51.9,42,51.9,41,51.9z"/>
			<path fill="#003F3A" d="M45.5,52.1c-0.2,0-0.5,0-0.5,0v3c0,0,0.3,0,0.5,0s0.5,0,0.5,0v-3C46,52,45.7,52.1,45.5,52.1z"/>
			<path fill="#032B27" d="M49,52v3c0,0,1,0,1-0.1v-3C50,51.9,49,51.9,49,52z"/>
			<path fill="#032B27" d="M53,51.6v3c0,0,1-0.1,1-0.1v-3.1C54,51.4,53,51.6,53,51.6z"/>
			<path fill="#032B27" d="M57,50.8v3.1c0.6-0.1,0.6-0.2,1-0.3v-3.1C57,50.6,57,50.7,57,50.8z"/>
			<path fill="#032B27" d="M61,49.3v3.1c0.5-0.3,0.8-0.5,1-0.7l0-3.1C61.7,48.7,61.7,48.8,61,49.3z"/>
			<path fill="#032B27" d="M61,57.5v3.1c0.5-0.3,0.8-0.4,1-0.7l0-3.2C61.7,57,61.7,57.1,61,57.5z"/>
			<path fill="#003F3A" d="M41,60.1v3c0.2,0.1,0.4,0.1,1,0.1v-3.1C42,60.1,42,60.1,41,60.1z"/>
			<path fill="#003F3A" d="M45.5,60.2c-0.2,0-0.5,0-0.5,0v3.1c0,0,0,0,0,0c0.2,0,0.3,0.1,1,0v-3.1C46,60.2,45.7,60.2,45.5,60.2z"/>
			<path fill="#032B27" d="M49,60.2v3c0,0,0.5,0,1-0.1v-3C49.9,60.1,49,60.2,49,60.2z"/>
			<path fill="#032B27" d="M53,59.8v3c0,0,1-0.1,1-0.1v-3C54,59.7,53,59.8,53,59.8z"/>
			<path fill="#032B27" d="M57,59.1v3c0.5-0.1,0.4-0.1,1-0.2v-3.1C57.6,58.9,57,59,57,59.1z"/>
		</g>
	</g>
	<path fill="#C3F0FC" d="M33,1L33,1c0,1-1.1,2-2.1,2H3.2C2.2,3,1,2,1,1l0,0"/>
</g>
</svg>
