<?xml version="1.0" encoding="utf-8"?>
<!-- Generator: Adobe Illustrator 16.0.0, SVG Export Plug-In . SVG Version: 6.00 Build 0)  -->
<!DOCTYPE svg PUBLIC "-//W3C//DTD SVG 1.1//EN" "http://www.w3.org/Graphics/SVG/1.1/DTD/svg11.dtd">
<svg version="1.1" id="Layer_1" xmlns="http://www.w3.org/2000/svg" xmlns:xlink="http://www.w3.org/1999/xlink" x="0px" y="0px"
	 width="64px" height="64px" viewBox="0 0 64 64" enable-background="new 0 0 64 64" xml:space="preserve">
<g>
	<g>
		<ellipse fill="#ED751B" cx="24.7" cy="59.4" rx="2.1" ry="3.8"/>
		<ellipse fill="#ED751B" cx="39.3" cy="59.4" rx="2.1" ry="3.8"/>
	</g>
	<g>
		<g>
			<path fill="#1E4784" d="M6.1,27.9C9.8,21.5,13,19,14.8,20c1.7,1,1.3,5-2.4,11.5C8.6,38,2.8,44.9,1.1,43.9
				C-0.6,42.9,2.4,34.4,6.1,27.9z"/>
			<path fill="#00233F" d="M14.8,20c1.7,1,1.3,5-2.4,11.5C8.6,38,2.8,44.9,1.1,43.9"/>
			<path fill="#00233F" d="M57.9,27.9C54.2,21.5,51,19,49.2,20c-1.7,1-1.3,5,2.4,11.5c3.7,6.5,9.5,13.4,11.2,12.4
				C64.6,42.9,61.6,34.4,57.9,27.9z"/>
			<path fill="#1E4784" d="M49.2,20c-1.7,1-1.3,5,2.4,11.5c3.7,6.5,9.5,13.4,11.2,12.4"/>
		</g>
		<path fill="#2264B2" d="M56.7,36.8c0,16.5-11.1,24.7-24.7,24.7S7.3,53.2,7.3,36.8s11.1-36,24.7-36S56.7,20.3,56.7,36.8z"/>
		<path fill="#1E4784" d="M7.3,36.8c0-16.5,11.1-36,24.7-36s24.7,19.5,24.7,36S45.6,61.5,32,61.5"/>
		<path fill="#00233F" d="M32,0.8c13.6,0,24.7,19.5,24.7,36S45.6,61.5,32,61.5"/>
		<path fill="#FFFFFF" d="M12.5,32.3c0-11.4,8.8-17.2,19.5-17.2c10.8,0,19.5,5.7,19.5,17.2s-8.8,25-19.5,25
			C21.2,57.3,12.5,43.8,12.5,32.3z"/>
		<path fill="#E5F2F9" d="M12.5,32.3c0-11.4,8.8-17.2,19.5-17.2c10.8,0,19.5,5.7,19.5,17.2s-8.8,25-19.5,25"/>
		<path fill="#CADDEA" d="M32,15.2c10.8,0,19.5,5.7,19.5,17.2s-8.8,25-19.5,25"/>
		<g>
			<circle fill="#FFFFFF" cx="24.4" cy="16.3" r="7.6"/>
			<path fill="#E5F2F9" d="M24.4,8.7c4.2,0,7.6,3.4,7.6,7.6c0,4.2-3.4,7.6-7.6,7.6c-4.2,0-7.6-3.4-7.6-7.6"/>
			<circle fill="#CADDEA" cx="39.6" cy="16.3" r="7.6"/>
		</g>
		<g>
			<g>
				<g>
					<g>
						<g>
							<path fill="#3DE09D" d="M24.4,5.9c-1.3,0.1-2.3,0.6-2.2,1.3l4.6-0.3C26.7,6.2,25.7,5.8,24.4,5.9z"/>
						</g>
					</g>
					<g>
						<g>
							<path fill="#3DE09D" d="M39.6,5.9c1.3,0.1,2.3,0.6,2.2,1.3l-4.6-0.3C37.3,6.2,38.3,5.8,39.6,5.9z"/>
						</g>
					</g>
				</g>
				<path fill="#FFFFFF" d="M23.6,16.1c-3,0-5.5,0.7-5.5,1.6c0,0.9,2.5,0.5,5.5,0.5c3,0,5.5,0.4,5.5-0.5
					C29.1,16.8,26.6,16.1,23.6,16.1z"/>
				<path fill="#FFFFFF" d="M40.4,16.1c-3,0-5.5,0.7-5.5,1.6c0,0.9,2.5,0.5,5.5,0.5c3,0,5.5,0.4,5.5-0.5
					C45.9,16.8,43.5,16.1,40.4,16.1z"/>
				<g>
					<path fill="#CADDEA" d="M27.1,14.9c0,1.2-1,2.2-2.2,2.2c-1.2,0-2.2-1-2.2-2.2s1-2.2,2.2-2.2C26.1,12.7,27.1,13.7,27.1,14.9z"/>
					<path fill="#CADDEA" d="M41.7,14.9c0,1.2-1,2.2-2.2,2.2c-1.2,0-2.2-1-2.2-2.2s1-2.2,2.2-2.2C40.7,12.7,41.7,13.7,41.7,14.9z"/>
					<path fill="#1E4784" d="M27.1,14.3c0,1.2-1,2.2-2.2,2.2c-1.2,0-2.2-1-2.2-2.2c0-1.2,1-2.2,2.2-2.2C26.1,12,27.1,13,27.1,14.3z"
						/>
					<path fill="#00233F" d="M24.8,12c1.2,0,2.2,1,2.2,2.2c0,1.2-1,2.2-2.2,2.2"/>
					<path fill="#1E4784" d="M41.7,14.3c0,1.2-1,2.2-2.2,2.2c-1.2,0-2.2-1-2.2-2.2c0-1.2,1-2.2,2.2-2.2C40.7,12,41.7,13,41.7,14.3z"
						/>
					<path fill="#00233F" d="M39.4,12c1.2,0,2.2,1,2.2,2.2c0,1.2-1,2.2-2.2,2.2"/>
				</g>
			</g>
		</g>
		<polygon fill="#EF9D18" points="36.2,18.2 32,21.5 27.8,18.2 32,16.1 		"/>
		<polygon fill="#ED751B" points="36.2,18.2 32,21.5 27.8,18.2 32,19.6 		"/>
		<g>
			<circle fill="#FFFFFF" cx="32" cy="27" r="0.9"/>
			<circle fill="#FFFFFF" cx="32" cy="32.3" r="0.9"/>
			<circle fill="#FFFFFF" cx="32" cy="37.5" r="0.9"/>
			<circle fill="#FFFFFF" cx="32" cy="42.8" r="0.9"/>
		</g>
		<ellipse transform="matrix(0.9526 -0.3043 0.3043 0.9526 0.2777 8.5279)" fill="#2264B2" cx="27.5" cy="3.4" rx="3.8" ry="1"/>
		
			<ellipse transform="matrix(0.6313 -0.7756 0.7756 0.6313 -15.4242 17.4232)" fill="#2264B2" cx="10.6" cy="24.9" rx="2.9" ry="1.4"/>
	</g>
</g>
</svg>
