<?xml version="1.0" encoding="utf-8"?>
<!-- Generator: Adobe Illustrator 16.0.0, SVG Export Plug-In . SVG Version: 6.00 Build 0)  -->
<!DOCTYPE svg PUBLIC "-//W3C//DTD SVG 1.1//EN" "http://www.w3.org/Graphics/SVG/1.1/DTD/svg11.dtd">
<svg version="1.1" id="Layer_1" xmlns="http://www.w3.org/2000/svg" xmlns:xlink="http://www.w3.org/1999/xlink" x="0px" y="0px"
	 width="64px" height="64px" viewBox="0 0 64 64" enable-background="new 0 0 64 64" xml:space="preserve">
<g>
	<g>
		<g>
			<g>
				<path fill="#A675CC" d="M11.6,53.9c-3.3-1.7-0.6-13.4,3.1-20.5c3.7-7.1,8.1-8.8,11.4-7.1c3.3,1.7,5.3,6.8,1.6,13.9
					S14.9,55.6,11.6,53.9z"/>
				<path fill="#8E4FB7" d="M26.1,26.3c3.3,1.7,5.3,6.8,1.6,13.9S14.9,55.6,11.6,53.9"/>
				<path fill="#1EE2BD" d="M27.5,37.7c-4.7,5.1-17,1.4-22.9-4s-4.7-12,0-17.1S17,8.3,22.9,13.7C28.8,19.2,32.2,32.6,27.5,37.7z"/>
				<path fill="#0DCEBB" d="M22.9,13.7c5.9,5.4,9.3,18.9,4.6,24c-4.7,5.1-17,1.4-22.9-4"/>
				<path fill="#12B59E" d="M22.9,13.7c5.9,5.4,9.3,18.9,4.6,24"/>
				<circle fill="#A675CC" cx="6.8" cy="20.6" r="1.8"/>
				<circle fill="#A675CC" cx="13.8" cy="18" r="0.6"/>
				<circle fill="#A675CC" cx="10.3" cy="24.5" r="0.6"/>
				<ellipse fill="#A675CC" cx="12.8" cy="30.7" rx="2.7" ry="2.5"/>
				<circle fill="#A675CC" cx="19.8" cy="27.1" r="2.2"/>
				<circle fill="#A675CC" cx="19" cy="14.7" r="0.9"/>
				<circle fill="#1EE2BD" cx="19.3" cy="19" r="0.2"/>
				<circle fill="#1EE2BD" cx="14.5" cy="42.2" r="0.8"/>
				<circle fill="#1EE2BD" cx="19.2" cy="44.2" r="0.6"/>
				<circle fill="#1EE2BD" cx="16.2" cy="46.7" r="0.6"/>
				<circle fill="#1EE2BD" cx="22" cy="42.2" r="0.3"/>
				<circle fill="#1EE2BD" cx="14.7" cy="50.1" r="1.6"/>
			</g>
			<g>
				<path fill="#A675CC" d="M52.4,53.9c3.3-1.7,0.6-13.4-3.1-20.5c-3.7-7.1-8.1-8.8-11.4-7.1c-3.3,1.7-5.3,6.8-1.6,13.9
					C40.1,47.3,49.1,55.6,52.4,53.9z"/>
				<path fill="#8E4FB7" d="M37.9,26.3c-3.3,1.7-5.3,6.8-1.6,13.9c3.7,7.1,12.8,15.5,16.1,13.7"/>
				<path fill="#1EE2BD" d="M36.5,37.7c4.7,5.1,17,1.4,22.9-4c5.9-5.4,4.7-12,0-17.1c-4.7-5.1-12.4-8.4-18.4-2.9
					C35.2,19.2,31.8,32.6,36.5,37.7z"/>
				<path fill="#0DCEBB" d="M41.1,13.7c-5.9,5.4-9.3,18.9-4.6,24c4.7,5.1,17,1.4,22.9-4"/>
				<path fill="#12B59E" d="M41.1,13.7c-5.9,5.4-9.3,18.9-4.6,24"/>
				<circle fill="#A675CC" cx="57.2" cy="20.6" r="1.8"/>
				<circle fill="#A675CC" cx="50.2" cy="18" r="0.6"/>
				<circle fill="#A675CC" cx="53.7" cy="24.5" r="0.6"/>
				<ellipse fill="#A675CC" cx="51.2" cy="30.7" rx="2.7" ry="2.5"/>
				<circle fill="#A675CC" cx="44.2" cy="27.1" r="2.2"/>
				<circle fill="#A675CC" cx="45" cy="14.7" r="0.9"/>
				<circle fill="#1EE2BD" cx="44.7" cy="19" r="0.2"/>
				<circle fill="#1EE2BD" cx="49.5" cy="42.2" r="0.8"/>
				<circle fill="#1EE2BD" cx="44.8" cy="44.2" r="0.6"/>
				<path fill="#1EE2BD" d="M47.2,46.7c0,0.3,0.3,0.6,0.6,0.6c0.3,0,0.6-0.3,0.6-0.6s-0.3-0.6-0.6-0.6
					C47.4,46.2,47.2,46.4,47.2,46.7z"/>
				<circle fill="#1EE2BD" cx="42" cy="42.2" r="0.3"/>
				<circle fill="#1EE2BD" cx="49.3" cy="50.1" r="1.6"/>
			</g>
		</g>
		<path fill="#5A3C77" d="M36.5,36.9c0,8-2,14.4-4.5,14.4s-4.5-6.5-4.5-14.4c0-8,2-9.4,4.5-9.4S36.5,29,36.5,36.9z"/>
		<path fill="#3E255B" d="M32,27.5c2.5,0,4.5,1.5,4.5,9.4c0,8-2,14.4-4.5,14.4"/>
		<g>
			<circle fill="#1EE2BD" cx="32" cy="35.9" r="0.4"/>
			<circle fill="#1EE2BD" cx="32" cy="39.3" r="0.4"/>
			<circle fill="#1EE2BD" cx="32" cy="42.6" r="0.4"/>
		</g>
	</g>
	<path fill="#3E255B" d="M34.8,25.9c0,1.6-1.2,2.9-2.8,2.9s-2.8-1.3-2.8-2.9S30.5,24,32,24S34.8,24.3,34.8,25.9z"/>
	<g>
		<g>
			<circle fill="#0DCEBB" cx="25.1" cy="11" r="1.1"/>
			<circle fill="#3E255B" cx="27.4" cy="13.6" r="0.4"/>
			<circle fill="#0DCEBB" cx="28.9" cy="16.6" r="0.6"/>
			<circle fill="#A675CC" cx="29.8" cy="19.1" r="0.2"/>
			<circle fill="#3E255B" cx="30.1" cy="22" r="0.2"/>
		</g>
		<g>
			<circle fill="#0DCEBB" cx="38.9" cy="11" r="1.1"/>
			<circle fill="#3E255B" cx="36.6" cy="13.6" r="0.4"/>
			<circle fill="#0DCEBB" cx="35.1" cy="16.6" r="0.6"/>
			<circle fill="#A675CC" cx="34.2" cy="19.1" r="0.2"/>
			<circle fill="#3E255B" cx="33.9" cy="22" r="0.2"/>
		</g>
	</g>
</g>
</svg>
