<?xml version="1.0" encoding="utf-8"?>
<!-- Generator: Adobe Illustrator 16.0.0, SVG Export Plug-In . SVG Version: 6.00 Build 0)  -->
<!DOCTYPE svg PUBLIC "-//W3C//DTD SVG 1.1//EN" "http://www.w3.org/Graphics/SVG/1.1/DTD/svg11.dtd">
<svg version="1.1" id="Layer_1" xmlns="http://www.w3.org/2000/svg" xmlns:xlink="http://www.w3.org/1999/xlink" x="0px" y="0px"
	 width="64px" height="64px" viewBox="0 0 64 64" enable-background="new 0 0 64 64" xml:space="preserve">
<g>
	<path fill="#F283B1" d="M55.1,37.5c0,18.7-10.4,26.2-23.1,26.2c-12.8,0-23.1-7.5-23.1-26.2S19.2,0.3,32,0.3
		C44.8,0.3,55.1,18.8,55.1,37.5z"/>
	<path fill="#EF6597" d="M32,0.3c12.8,0,23.1,18.4,23.1,37.1S44.8,63.7,32,63.7"/>
	<g>
		<polygon fill="#FFFF9F" points="38.6,21.3 43.7,16.1 32,4.4 20.3,16.1 25.4,21.3 32,14.7 		"/>
		<polyline fill="#F2EB6D" points="32,14.7 38.6,21.3 43.7,16.1 32,4.4 		"/>
		
			<rect x="21.8" y="22.8" transform="matrix(0.7071 -0.7071 0.7071 0.7071 -11.229 25.6798)" fill="#9CFDFF" width="7.2" height="7.2"/>
		<polyline fill="#35D9EF" points="25.4,31.5 30.5,26.4 25.4,21.3 		"/>
		
			<rect x="35" y="22.8" transform="matrix(0.7071 -0.7071 0.7071 0.7071 -7.3528 35.0379)" fill="#9CFDFF" width="7.2" height="7.2"/>
		<polyline fill="#35D9EF" points="38.6,31.5 43.7,26.4 38.6,21.3 		"/>
		
			<rect x="21.8" y="33" transform="matrix(0.7071 -0.7071 0.7071 0.7071 -18.4769 28.682)" fill="#9CFDFF" width="7.2" height="7.2"/>
		<polyline fill="#35D9EF" points="25.4,41.8 30.5,36.6 25.4,31.5 		"/>
		
			<rect x="35" y="33" transform="matrix(-0.7071 0.7071 -0.7071 -0.7071 91.8369 35.249)" fill="#9CFDFF" width="7.2" height="7.2"/>
		<polyline fill="#35D9EF" points="38.6,41.8 43.7,36.6 38.6,31.5 		"/>
		
			<rect x="30.9" y="25.3" transform="matrix(-0.7071 -0.7071 0.7071 -0.7071 35.9653 67.6864)" fill="#FFFF9F" width="2.1" height="2.1"/>
		<polygon fill="#FFFF9F" points="25.4,41.8 20.3,46.9 32,58.6 43.7,46.9 38.6,41.8 32,48.4 		"/>
		<polyline fill="#F2EB6D" points="32,58.6 43.7,46.9 38.6,41.8 32,48.4 		"/>
		
			<rect x="30.9" y="35.6" transform="matrix(0.7071 0.7071 -0.7071 0.7071 35.2845 -11.8952)" fill="#FFFF9F" width="2.1" height="2.1"/>
	</g>
	<g>
		
			<ellipse transform="matrix(0.8357 0.5491 -0.5491 0.8357 9.906 -9.1546)" opacity="0.7" fill="#F3FEFF" cx="20.3" cy="12" rx="3" ry="8.8"/>
		
			<ellipse transform="matrix(0.8357 0.5491 -0.5491 0.8357 9.446 -8.7679)" opacity="0.6" fill="#F3FEFF" cx="19.4" cy="11.4" rx="2" ry="5.7"/>
		
			<ellipse transform="matrix(0.9675 0.2527 -0.2527 0.9675 7.1111 -2.4379)" opacity="0.7" fill="#F3FEFF" cx="13" cy="26.5" rx="1.4" ry="4"/>
		<path opacity="0.3" fill="#757575" d="M32,0.3c12.8,0,23.1,18.4,23.1,37.1S44.8,63.7,32,63.7"/>
	</g>
</g>
</svg>
