<?xml version="1.0" encoding="utf-8"?>
<!-- Generator: Adobe Illustrator 16.0.0, SVG Export Plug-In . SVG Version: 6.00 Build 0)  -->
<!DOCTYPE svg PUBLIC "-//W3C//DTD SVG 1.1//EN" "http://www.w3.org/Graphics/SVG/1.1/DTD/svg11.dtd">
<svg version="1.1" id="Layer_1" xmlns="http://www.w3.org/2000/svg" xmlns:xlink="http://www.w3.org/1999/xlink" x="0px" y="0px"
	 width="64px" height="64px" viewBox="0 0 64 64" enable-background="new 0 0 64 64" xml:space="preserve">
<g>
	<g>
		<g>
			<path fill="#F9A908" d="M51.1,40.3c0,15.5-8.6,21.7-19.1,21.7c-10.6,0-19.1-6.2-19.1-21.7c0-15.5,8.6-30.7,19.1-30.7
				C42.6,9.6,51.1,24.8,51.1,40.3z"/>
			<path fill="#F7910B" d="M32,9.6c10.6,0,19.1,15.2,19.1,30.7c0,15.5-8.6,21.7-19.1,21.7"/>
			<path fill="#1AB0D3" d="M51.1,38.9c-0.1-2.4-0.4-4.7-0.8-7"/>
			<g>
				<path opacity="0.7" fill="#F3FEFF" d="M24.4,20.6c-2.2,3.4-4.9,5.5-6.1,4.7c-1.1-0.8-0.3-4.1,1.9-7.5c2.2-3.4,4.9-5.5,6.1-4.7
					C27.5,13.8,26.6,17.2,24.4,20.6z"/>
				
					<ellipse transform="matrix(0.8356 0.5494 -0.5494 0.8356 13.8331 -8.7799)" opacity="0.6" fill="#F3FEFF" cx="21.6" cy="18.7" rx="1.6" ry="4.7"/>
				<path opacity="0.7" fill="#F3FEFF" d="M17.4,31.5c-0.5,1.8-1.3,3.1-1.9,2.9c-0.6-0.2-0.7-1.7-0.3-3.5c0.5-1.8,1.3-3.1,1.9-2.9
					C17.8,28.1,17.9,29.7,17.4,31.5z"/>
				<path opacity="0.3" fill="#757575" d="M32,9.6c10.6,0,19.1,15.2,19.1,30.7c0,15.5-8.6,21.7-19.1,21.7"/>
			</g>
		</g>
		<path fill="#00233F" d="M33,61.5c0,0.6-0.4,1.1-1,1.1l0,0c-0.6,0-1-0.5-1-1.1V9.7c0-0.6,0.4-1.1,1-1.1l0,0c0.6,0,1,0.5,1,1.1V61.5
			z"/>
		<path fill="#00233F" d="M50.8,40c0.7,0,1.2,0.4,1.2,1l0,0c0,0.6-0.5,1-1.2,1H13.2c-0.7,0-1.2-0.4-1.2-1l0,0c0-0.6,0.5-1,1.2-1
			H50.8z"/>
		<path fill="#146093" d="M30.9,11.3c0,0-10.4,7.5-8.6,15.1C24.2,34,12,32.9,12,32.9s2.5,1.3,4,1.5l-1.6,3.2c0,0,10-2.9,10.8-6.9
			c1-5.6-3.3-4.9-0.1-11.6C28.1,12.8,30.9,11.3,30.9,11.3z"/>
		<path fill="#00233F" d="M33.3,11.3c0,0,14.4,9.7,5.6,13.2c-8.8,3.5,0.4,0.5,4.4,4.7c0,0-0.2,3.8-5,2.3c0,0,3.3,2.9,7.1-1.5
			C49.2,25.5,41,25,41,25s3.4-1.5,4.1-3.8C45.7,18.9,33.3,11.3,33.3,11.3z"/>
		<g>
			<path fill="#00233F" d="M31.2,9.1c0,0-0.1-7-4.7-7.7s-12.1,7-8.7,8.7c3.4,1.7,9.1,1.1,12.7,0.6c0,0-7.6-1-6.5-3.3
				c1.1-2.3,5-2.1,7,2.6L31.2,9.1z"/>
			<path fill="#146093" d="M32.9,9.1c0,0,0.1-7,4.7-7.7c4.5-0.8,12.1,7,8.7,8.7c-3.4,1.7-9.1,1.1-12.7,0.6c0,0,7.6-1,6.5-3.3
				c-1.1-2.3-5-2.1-7,2.6L32.9,9.1z"/>
		</g>
	</g>
	<circle fill="#FF55BE" cx="32" cy="41.6" r="3.2"/>
	<path fill="#F42C9F" d="M34.2,39.4c1.2,1.2,1.2,3.3,0,4.5c-1.2,1.2-3.3,1.2-4.5,0"/>
</g>
</svg>
