<?xml version="1.0" encoding="utf-8"?>
<!-- Generator: Adobe Illustrator 16.0.0, SVG Export Plug-In . SVG Version: 6.00 Build 0)  -->
<!DOCTYPE svg PUBLIC "-//W3C//DTD SVG 1.1//EN" "http://www.w3.org/Graphics/SVG/1.1/DTD/svg11.dtd">
<svg version="1.1" id="Layer_1" xmlns="http://www.w3.org/2000/svg" xmlns:xlink="http://www.w3.org/1999/xlink" x="0px" y="0px"
	 width="64px" height="64px" viewBox="0 0 64 64" enable-background="new 0 0 64 64" xml:space="preserve">
<g>
	<g>
		<g>
			<g>
				<path fill="#F283B1" d="M37.6,9.6c0,7.2-2.5,15.1-5.6,15.1s-5.6-7.9-5.6-15.1c0-7.2,2.5-8.1,5.6-8.1S37.6,2.3,37.6,9.6z"/>
				<path fill="#EF6597" d="M32,1.5c3.1,0,5.6,0.9,5.6,8.1c0,7.2-2.5,15.1-5.6,15.1"/>
			</g>
			<g>
				<path fill="#F283B1" d="M26.4,54.4c0-7.2,2.5-15.1,5.6-15.1s5.6,7.9,5.6,15.1c0,7.2-2.5,8.1-5.6,8.1S26.4,61.7,26.4,54.4z"/>
				<path fill="#EF6597" d="M32,62.5c-3.1,0-5.6-0.9-5.6-8.1c0-7.2,2.5-15.1,5.6-15.1"/>
			</g>
		</g>
		<g>
			<g>
				<path fill="#F283B1" d="M54.4,37.6c-7.2,0-15.1-2.5-15.1-5.6s7.9-5.6,15.1-5.6c7.2,0,8.1,2.5,8.1,5.6S61.7,37.6,54.4,37.6z"/>
				<path fill="#EF6597" d="M62.5,32c0,3.1-0.9,5.6-8.1,5.6c-7.2,0-15.1-2.5-15.1-5.6"/>
			</g>
			<g>
				<path fill="#F283B1" d="M9.6,26.4c7.2,0,15.1,2.5,15.1,5.6s-7.9,5.6-15.1,5.6c-7.2,0-8.1-2.5-8.1-5.6S2.3,26.4,9.6,26.4z"/>
				<path fill="#EF6597" d="M1.5,32c0-3.1,0.9-5.6,8.1-5.6c7.2,0,15.1,2.5,15.1,5.6"/>
			</g>
		</g>
	</g>
	<g>
		<g>
			<g>
				<path fill="#F283B1" d="M51.8,20.1c-5.1,5.1-12.5,8.9-14.7,6.7c-2.2-2.2,1.6-9.5,6.7-14.7c5.1-5.1,7.5-4,9.7-1.8
					C55.8,12.6,57,15,51.8,20.1z"/>
				<path fill="#EF6597" d="M53.6,10.4c2.2,2.2,3.4,4.6-1.8,9.7c-5.1,5.1-12.5,8.9-14.7,6.7"/>
			</g>
			<g>
				<path fill="#F283B1" d="M12.2,43.9c5.1-5.1,12.5-8.9,14.7-6.7c2.2,2.2-1.6,9.5-6.7,14.7c-5.1,5.1-7.5,4-9.7,1.8
					C8.2,51.4,7,49,12.2,43.9z"/>
				<path fill="#EF6597" d="M10.4,53.6C8.2,51.4,7,49,12.2,43.9c5.1-5.1,12.5-8.9,14.7-6.7"/>
			</g>
		</g>
		<g>
			<g>
				<path fill="#F283B1" d="M43.9,51.8c-5.1-5.1-8.9-12.5-6.7-14.7c2.2-2.2,9.5,1.6,14.7,6.7c5.1,5.1,4,7.5,1.8,9.7S49,57,43.9,51.8
					z"/>
				<path fill="#EF6597" d="M53.6,53.6c-2.2,2.2-4.6,3.4-9.7-1.8c-5.1-5.1-8.9-12.5-6.7-14.7"/>
			</g>
			<g>
				<path fill="#F283B1" d="M20.1,12.2c5.1,5.1,8.9,12.5,6.7,14.7s-9.5-1.6-14.7-6.7c-5.1-5.1-4-7.5-1.8-9.7S15,7,20.1,12.2z"/>
				<path fill="#EF6597" d="M10.4,10.4c2.2-2.2,4.6-3.4,9.7,1.8c5.1,5.1,8.9,12.5,6.7,14.7"/>
			</g>
		</g>
	</g>
	<g>
		<circle fill="#F7C90B" cx="32" cy="32" r="9.5"/>
		<path fill="#F9A908" d="M38.7,25.3c3.7,3.7,3.7,9.7,0,13.4c-3.7,3.7-9.7,3.7-13.4,0"/>
	</g>
</g>
</svg>
