<?xml version="1.0" encoding="utf-8"?>
<!-- Generator: Adobe Illustrator 16.0.0, SVG Export Plug-In . SVG Version: 6.00 Build 0)  -->
<!DOCTYPE svg PUBLIC "-//W3C//DTD SVG 1.1//EN" "http://www.w3.org/Graphics/SVG/1.1/DTD/svg11.dtd">
<svg version="1.1" id="Layer_1" xmlns="http://www.w3.org/2000/svg" xmlns:xlink="http://www.w3.org/1999/xlink" x="0px" y="0px"
	 width="64px" height="64px" viewBox="0 0 64 64" enable-background="new 0 0 64 64" xml:space="preserve">
<g>
	<g>
		<polygon fill="#D65483" points="45,6.4 39.3,0.9 29.6,10.5 39.4,20.1 45,14.5 		"/>
		
			<rect x="25.2" y="3.7" transform="matrix(0.7071 -0.7071 0.7071 0.7071 1.9889 25.7117)" fill="#D65483" width="13.6" height="13.6"/>
		<polygon fill="#D65483" points="24.7,0.9 19,6.4 19,14.5 24.7,20.1 34.3,10.5 		"/>
	</g>
	<rect x="30" y="20" fill="#028952" width="4" height="23"/>
	<polyline fill="#036D3F" points="30,20 34,20 34,43 	"/>
	<g>
		<path fill="#F4B20C" d="M17,50.6C17,57.5,22.3,63,29.3,63h5.4C41.7,63,47,57.5,47,50.6V44H17V50.6z"/>
		<path fill="#F7860B" d="M29,63h5.7C41.7,63,47,57.5,47,50.6V44H17"/>
		<path fill="#7C593A" d="M49.5,41.5c0,1.9-1.6,3.5-3.5,3.5H18c-1.9,0-3.5-1.6-3.5-3.5l0,0c0-1.9,1.6-3.5,3.5-3.5h28
			C47.9,38,49.5,39.6,49.5,41.5L49.5,41.5z"/>
		<path fill="#604122" d="M49.4,41.7L49.4,41.7c0,1.9-1.6,3.3-3.5,3.3H18.1c-1.9,0-3.5-1.5-3.5-3.4l0,0"/>
	</g>
	<rect x="17" y="49" fill="#7C593A" width="30" height="2"/>
	<g>
		<path fill="#EA7D9F" d="M42.6,8.4L39,4.9l-3.5,3.5L32,4.9l-3.5,3.5l-3.5-3.5l-3.6,3.5L19,6.1V14c0,6.7,5.8,12,12.5,12h1
			C39.2,26,45,20.7,45,14V6.1L42.6,8.4z"/>
	</g>
	<g>
		<path fill="#EA7D9F" d="M42.6,8.4L39,4.9l-3.5,3.5L32,4.9l-3.5,3.5l-3.5-3.5l-3.6,3.5L19,6.1V14c0,6.7,5.8,12,12.5,12h1
			C39.2,26,45,20.7,45,14V6.1L42.6,8.4z"/>
	</g>
	<g>
		
			<rect x="36.3" y="6" transform="matrix(-0.7071 0.7071 -0.7071 -0.7071 69.7642 -15.6297)" fill="#F4AEC7" width="3.6" height="1.3"/>
		
			<rect x="29.4" y="6" transform="matrix(-0.7068 0.7074 -0.7074 -0.7068 57.9095 -10.7323)" fill="#F4AEC7" width="3.6" height="1.3"/>
		<polygon fill="#F4AEC7" points="44.4,8.4 45,7.9 45,6.1 43.5,7.5 		"/>
		<path fill="#F4AEC7" d="M21,14V7.9l-2-1.8V14c0,6.7,5.8,12,12.5,12h1c0.1,0,0.2,0,0.3,0C26.3,25.8,21,20.6,21,14z"/>
		
			<rect x="22.4" y="6" transform="matrix(-0.7071 0.7071 -0.7071 -0.7071 46.0665 -5.8138)" fill="#F4AEC7" width="3.6" height="1.3"/>
	</g>
</g>
</svg>
