<?xml version="1.0" encoding="utf-8"?>
<!-- Generator: Adobe Illustrator 16.0.0, SVG Export Plug-In . SVG Version: 6.00 Build 0)  -->
<!DOCTYPE svg PUBLIC "-//W3C//DTD SVG 1.1//EN" "http://www.w3.org/Graphics/SVG/1.1/DTD/svg11.dtd">
<svg version="1.1" xmlns="http://www.w3.org/2000/svg" xmlns:xlink="http://www.w3.org/1999/xlink" x="0px" y="0px" width="65px"
	 height="65px" viewBox="0 0 65 65" enable-background="new 0 0 65 65" xml:space="preserve">
<g id="Layer_1">
	<g>
		<g>
			<g>
				<polygon fill="#FCCD03" points="49.567,32.671 49.567,32.328 32.501,22.475 15.433,32.328 15.433,32.671 32.501,42.524 				"/>
			</g>
			<g>
				<polyline fill="#FFAA00" points="15.433,32.328 15.433,32.671 32.501,42.524 49.567,32.671 49.567,32.328 				"/>
			</g>
			<g>
				<polygon fill="#32F9B1" points="49.567,52.036 49.567,32.671 32.501,42.524 15.433,32.671 15.433,52.036 32.501,61.89 				"/>
				<path fill="#00AD73" d="M32.501,64.39c-0.432,0-0.863-0.112-1.25-0.335l-17.068-9.854c-0.773-0.446-1.25-1.272-1.25-2.165
					V32.671c0-0.893,0.477-1.718,1.25-2.165c0.773-0.446,1.727-0.446,2.5,0l15.818,9.132l15.816-9.132
					c0.773-0.446,1.727-0.446,2.5,0c0.773,0.447,1.25,1.272,1.25,2.165v19.365c0,0.893-0.477,1.718-1.25,2.165l-17.066,9.854
					C33.364,64.278,32.933,64.39,32.501,64.39z M17.933,50.593l14.568,8.41l14.566-8.41V37.001l-13.316,7.688
					c-0.773,0.446-1.727,0.446-2.5,0l-13.318-7.688V50.593z"/>
			</g>
			<g>
				<polygon fill="#32F9B1" points="49.567,32.328 49.567,12.964 32.501,3.11 15.433,12.964 15.433,32.328 32.501,22.475 				"/>
				<path fill="#00AD73" d="M49.567,34.828c-0.432,0-0.863-0.112-1.25-0.335l-15.816-9.132l-15.818,9.132
					c-0.773,0.446-1.727,0.446-2.5,0c-0.773-0.447-1.25-1.272-1.25-2.165V12.964c0-0.893,0.477-1.719,1.25-2.165l17.068-9.854
					c0.773-0.446,1.727-0.446,2.5,0l17.066,9.854c0.773,0.447,1.25,1.272,1.25,2.165v19.364c0,0.893-0.477,1.718-1.25,2.165
					C50.431,34.716,49.999,34.828,49.567,34.828z M17.933,14.407v13.591l13.318-7.688c0.773-0.446,1.727-0.446,2.5,0l13.316,7.688
					V14.407l-14.566-8.41L17.933,14.407z"/>
			</g>
		</g>
		<g>
			<g>
				<circle fill="#FFAA00" cx="28.437" cy="14.667" r="1.063"/>
			</g>
			<g>
				<circle fill="#FFAA00" cx="32.5" cy="14.667" r="1.063"/>
			</g>
			<g>
				<circle fill="#FFAA00" cx="36.562" cy="14.667" r="1.062"/>
			</g>
		</g>
	</g>
</g>
<g id="nyt_x5F_exporter_x5F_info" display="none">
</g>
</svg>
