<?xml version="1.0" encoding="utf-8"?>
<!-- Generator: Adobe Illustrator 16.0.0, SVG Export Plug-In . SVG Version: 6.00 Build 0)  -->
<!DOCTYPE svg PUBLIC "-//W3C//DTD SVG 1.1//EN" "http://www.w3.org/Graphics/SVG/1.1/DTD/svg11.dtd">
<svg version="1.1" xmlns="http://www.w3.org/2000/svg" xmlns:xlink="http://www.w3.org/1999/xlink" x="0px" y="0px" width="65px"
	 height="65px" viewBox="0 0 65 65" enable-background="new 0 0 65 65" xml:space="preserve">
<g id="Layer_1">
	<g>
		<circle fill="#4D6199" cx="32.5" cy="32.5" r="32"/>
		<path fill="#374677" d="M32.5,0.5c17.674,0,32,14.326,32,32s-14.326,32-32,32"/>
		<g>
			<g>
				<g>
					<path fill="#9AB7B1" d="M51.396,30.653L43.545,17.06c-0.66-1.142-1.876-1.846-3.197-1.846H24.652
						c-1.32,0-2.539,0.704-3.197,1.846l-7.852,13.594c-0.659,1.142-0.659,2.55,0,3.691l7.852,13.596
						c0.658,1.144,1.877,1.846,3.197,1.846h15.695c1.321,0,2.537-0.702,3.197-1.846l7.852-13.596
						C52.053,33.203,52.053,31.795,51.396,30.653z"/>
					<path fill="#ABC6C2" d="M38.53,15.214H24.652c-1.32,0-2.539,0.704-3.197,1.846l-7.852,13.594c-0.659,1.142-0.659,2.55,0,3.691
						l3.52,6.097h13.878c1.321,0,2.539-0.704,3.199-1.847L42.051,25c0.657-1.143,0.657-2.55,0-3.692L38.53,15.214z"/>
					<path fill="#C1DBD8" d="M24.652,15.214c-1.32,0-2.539,0.704-3.197,1.846l-7.852,13.594c-0.659,1.142-0.659,2.55,0,3.691
						l3.52,6.097"/>
					<path fill="#FFC022" d="M42.051,21.308"/>
				</g>
			</g>
			<path fill="#9AB7B1" d="M33.493,21.929l-1.036-1.793c-0.088-0.15-0.247-0.242-0.421-0.242h-2.07
				c-0.174,0-0.335,0.092-0.422,0.242l-1.035,1.793c-0.089,0.15-0.089,0.336,0,0.487l1.035,1.793
				c0.087,0.15,0.248,0.243,0.422,0.243h2.07c0.174,0,0.333-0.093,0.421-0.243l1.036-1.793
				C33.579,22.265,33.579,22.079,33.493,21.929z"/>
			<path fill="#9AB7B1" d="M27.066,33.203l-0.582-1.007c-0.049-0.084-0.139-0.136-0.235-0.136h-1.163
				c-0.097,0-0.188,0.052-0.236,0.136l-0.58,1.007c-0.051,0.084-0.051,0.188,0,0.273l0.58,1.006c0.049,0.085,0.14,0.137,0.236,0.137
				h1.163c0.097,0,0.187-0.052,0.235-0.137l0.582-1.006C27.115,33.392,27.115,33.287,27.066,33.203z"/>
			<path fill="#9AB7B1" d="M34.066,29.703l-0.582-1.007c-0.049-0.084-0.139-0.136-0.235-0.136h-1.163
				c-0.097,0-0.188,0.052-0.236,0.136l-0.58,1.007c-0.051,0.084-0.051,0.188,0,0.273l0.58,1.006c0.049,0.085,0.14,0.137,0.236,0.137
				h1.163c0.097,0,0.187-0.052,0.235-0.137l0.582-1.006C34.115,29.892,34.115,29.787,34.066,29.703z"/>
			<path fill="#9AB7B1" d="M23.066,25.703l-0.582-1.007c-0.049-0.084-0.139-0.136-0.235-0.136h-1.163
				c-0.097,0-0.188,0.052-0.236,0.136l-0.58,1.007c-0.051,0.084-0.051,0.188,0,0.273l0.58,1.006c0.049,0.085,0.14,0.137,0.236,0.137
				h1.163c0.097,0,0.187-0.052,0.235-0.137l0.582-1.006C23.115,25.892,23.115,25.787,23.066,25.703z"/>
			<path fill="#ABC6C2" d="M38.566,42.703l-0.582-1.007c-0.049-0.084-0.139-0.136-0.235-0.136h-1.163
				c-0.097,0-0.188,0.052-0.236,0.136l-0.58,1.007c-0.051,0.084-0.051,0.188,0,0.273l0.58,1.006c0.049,0.085,0.14,0.137,0.236,0.137
				h1.163c0.097,0,0.187-0.052,0.235-0.137l0.582-1.006C38.615,42.892,38.615,42.787,38.566,42.703z"/>
			<path fill="#ABC6C2" d="M43.484,41.059l-0.582-1.007c-0.049-0.084-0.139-0.136-0.236-0.136h-1.161
				c-0.098,0-0.188,0.052-0.237,0.136l-0.58,1.007c-0.051,0.084-0.051,0.189,0,0.273l0.58,1.006c0.049,0.085,0.14,0.137,0.237,0.137
				h1.161c0.098,0,0.188-0.052,0.236-0.137l0.582-1.006C43.533,41.248,43.533,41.143,43.484,41.059z"/>
			<path fill="#ABC6C2" d="M44.125,34.25l-1.092-1.889c-0.09-0.156-0.26-0.254-0.441-0.254h-2.178c-0.184,0-0.354,0.098-0.445,0.254
				l-1.088,1.889c-0.094,0.156-0.094,0.354,0,0.512l1.088,1.887c0.092,0.16,0.262,0.256,0.445,0.256h2.178
				c0.182,0,0.352-0.096,0.441-0.256l1.092-1.887C44.217,34.604,44.217,34.406,44.125,34.25z"/>
			<path fill="#ABC6C2" d="M32.291,45.916l-1.092-1.889c-0.09-0.156-0.26-0.254-0.441-0.254H28.58c-0.184,0-0.354,0.098-0.445,0.254
				l-1.088,1.889c-0.094,0.156-0.094,0.354,0,0.512l1.088,1.887c0.092,0.16,0.262,0.256,0.445,0.256h2.178
				c0.182,0,0.352-0.096,0.441-0.256l1.092-1.887C32.383,46.27,32.383,46.072,32.291,45.916z"/>
			<path fill="#ABC6C2" d="M45.291,26.916l-1.092-1.889c-0.09-0.156-0.26-0.254-0.441-0.254H41.58c-0.184,0-0.354,0.098-0.445,0.254
				l-1.088,1.889c-0.094,0.156-0.094,0.354,0,0.512l1.088,1.887c0.092,0.16,0.262,0.256,0.445,0.256h2.178
				c0.182,0,0.352-0.096,0.441-0.256l1.092-1.887C45.383,27.27,45.383,27.072,45.291,26.916z"/>
		</g>
		<g>
			<ellipse fill="#EBF0F2" cx="13.401" cy="16.5" rx="0.417" ry="2.666"/>
			<ellipse fill="#EBF0F2" cx="13.4" cy="16.5" rx="2.666" ry="0.416"/>
		</g>
		<g>
			<ellipse fill="#EBF0F2" cx="53.651" cy="45.25" rx="0.417" ry="2.666"/>
			<ellipse fill="#EBF0F2" cx="53.65" cy="45.25" rx="2.666" ry="0.416"/>
		</g>
		<g>
			
				<ellipse transform="matrix(0.7059 0.7083 -0.7083 0.7059 16.9272 -23.9051)" fill="#EBF0F2" cx="37.25" cy="8.431" rx="0.202" ry="1.292"/>
			
				<ellipse transform="matrix(-0.7083 0.7059 -0.7059 -0.7083 69.5857 -11.8931)" fill="#EBF0F2" cx="37.25" cy="8.43" rx="0.201" ry="1.292"/>
		</g>
		<g>
			
				<ellipse transform="matrix(0.7059 0.7083 -0.7083 0.7059 26.0232 4.6589)" fill="#EBF0F2" cx="7.401" cy="33.667" rx="0.202" ry="1.291"/>
			
				<ellipse transform="matrix(-0.7083 0.7059 -0.7059 -0.7083 36.4081 52.2869)" fill="#EBF0F2" cx="7.401" cy="33.666" rx="0.201" ry="1.291"/>
		</g>
	</g>
</g>
<g id="nyt_x5F_exporter_x5F_info" display="none">
</g>
</svg>
