<?xml version="1.0" encoding="utf-8"?>
<!-- Generator: Adobe Illustrator 16.0.0, SVG Export Plug-In . SVG Version: 6.00 Build 0)  -->
<!DOCTYPE svg PUBLIC "-//W3C//DTD SVG 1.1//EN" "http://www.w3.org/Graphics/SVG/1.1/DTD/svg11.dtd">
<svg version="1.1" id="Layer_1" xmlns="http://www.w3.org/2000/svg" xmlns:xlink="http://www.w3.org/1999/xlink" x="0px" y="0px"
	 width="64px" height="64px" viewBox="0 0 64 64" enable-background="new 0 0 64 64" xml:space="preserve">
<g>
	<g>
		<g>
			<g>
				<g>
					<g>
						<g>
							<path fill="#F7910B" d="M62.3,38.5C62.3,51.4,50.4,62,32,62C13.6,62,1.7,51.4,1.7,38.5S13.6,6,32,6
								C50.4,6,62.3,25.5,62.3,38.5z"/>
						</g>
						<g>
							<path fill="#F7910B" d="M62.3,38.5C62.3,51.4,50.4,58,32,58C13.6,58,1.7,51.4,1.7,38.5S13.6,4,32,4
								C50.4,4,62.3,25.5,62.3,38.5z"/>
						</g>
						<g>
							<path fill="#F9A908" d="M32,4c18.4,0,30.3,21.5,30.3,34.5S50.4,58,32,58"/>
						</g>
						<g>
							<path fill="#F9A908" d="M62.3,38.5C62.3,51.4,50.4,58,32,58C13.6,58,1.7,51.4,1.7,38.5S13.6,6,32,6
								C50.4,6,62.3,25.5,62.3,38.5z"/>
						</g>
						<g>
							<path fill="#F9C55D" d="M1.7,38.5C1.7,25.5,13.6,6,32,6"/>
						</g>
						<g>
							<path fill="#F7910B" d="M32,6c18.4,0,30.3,19.5,30.3,32.5S50.4,62,32,62"/>
						</g>
						<g>
							<path fill="#EA7103" d="M32,6c18.4,0,30.3,19.5,30.3,32.5"/>
						</g>
						<g>
							<g>
								<ellipse fill="#EA7103" cx="21.6" cy="27.6" rx="3.2" ry="2"/>
							</g>
							<g>
								<ellipse fill="#EA7103" cx="42.4" cy="27.6" rx="3.2" ry="2"/>
							</g>
							<g>
								<ellipse fill="#1E4784" cx="21.6" cy="27" rx="3.2" ry="2"/>
							</g>
							<g>
								<path fill="#00233F" d="M21.6,25.1c1.8,0,3.2,0.9,3.2,2s-1.4,2-3.2,2"/>
							</g>
							<g>
								<ellipse fill="#1E4784" cx="42.4" cy="27" rx="3.2" ry="2"/>
							</g>
							<g>
								<path fill="#00233F" d="M42.4,25.1c1.8,0,3.2,0.9,3.2,2s-1.4,2-3.2,2"/>
							</g>
						</g>
						<g>
							<g>
								<g>
									<g>
										<g>
											<g>
												<path fill="#19BCA4" d="M25.2,19.5c-0.3,0.8-1.5-0.2-3.2-0.9c-1.7-0.7-3.2-0.9-2.8-1.7c0.3-0.8,2-0.9,3.6-0.2
													C24.5,17.5,25.5,18.7,25.2,19.5z"/>
											</g>
										</g>
									</g>
								</g>
								<g>
									<g>
										<g>
											<g>
												<path fill="#19BCA4" d="M38.7,15.9c0.4,0.8,1.5-0.3,3.1-1.2c1.6-0.9,3.1-1.2,2.7-1.9c-0.4-0.8-2-0.7-3.6,0.2
													C39.2,13.8,38.3,15.1,38.7,15.9z"/>
											</g>
										</g>
									</g>
								</g>
							</g>
							<g>
								<g>
									<g>
										<g>
											<g>
												<path fill="#109DA0" d="M25.2,19.5c-0.3,0.8-1.5-0.2-3.2-0.9c-1.7-0.7-3.2-0.9-2.8-1.7"/>
											</g>
										</g>
									</g>
								</g>
								<g>
									<g>
										<g>
											<g>
												<path fill="#109DA0" d="M38.7,15.9c0.4,0.8,1.5-0.3,3.1-1.2c1.6-0.9,3.1-1.2,2.7-1.9"/>
											</g>
										</g>
									</g>
								</g>
							</g>
						</g>
						<g>
							<g>
								<path fill="#F9C55D" d="M27.8,31.8c0,1.2-3.5,0.7-7.8,0.7c-4.3,0-7.8,0.6-7.8-0.7c0-1.2,3.5-2.2,7.8-2.2
									C24.3,29.6,27.8,30.6,27.8,31.8z"/>
							</g>
							<g>
								<path fill="#F9A908" d="M51.8,31.8c0,1.2-3.5,0.7-7.8,0.7s-7.8,0.6-7.8-0.7c0-1.2,3.5-2.2,7.8-2.2S51.8,30.6,51.8,31.8z"/>
							</g>
						</g>
						<g>
							<circle fill="#F7910B" cx="10.3" cy="35.4" r="0.6"/>
						</g>
						<g>
							<circle fill="#F7910B" cx="5.8" cy="37.4" r="1.1"/>
						</g>
						<g>
							<circle fill="#F7910B" cx="8.8" cy="33.4" r="0.2"/>
						</g>
						<g>
							<circle fill="#F7910B" cx="13.4" cy="35.2" r="0.2"/>
						</g>
						<g>
							<circle fill="#F9A908" cx="52.6" cy="35.8" r="0.8"/>
						</g>
						<g>
							<circle fill="#F9A908" cx="55.1" cy="37.2" r="0.2"/>
						</g>
						<g>
							<circle fill="#F9A908" cx="49.8" cy="28.4" r="0.3"/>
						</g>
						<g>
							<circle fill="#F9A908" cx="49.3" cy="40" r="1.3"/>
						</g>
						<g>
							<circle fill="#F9A908" cx="56.5" cy="40.1" r="0.6"/>
						</g>
						<g>
							<circle fill="#F7910B" cx="9.3" cy="39.5" r="0.5"/>
						</g>
						<g>
							<circle fill="#F7910B" cx="10.1" cy="31.1" r="0.4"/>
						</g>
						<g>
							<circle fill="#F9A908" cx="4.8" cy="17.3" r="1.1"/>
						</g>
						<g>
							<circle fill="#F9A908" cx="8" cy="13.7" r="0.6"/>
						</g>
						<g>
							<circle fill="#F9A908" cx="59.2" cy="19.7" r="0.2"/>
						</g>
						<g>
							<circle fill="#F9A908" cx="58.4" cy="16.7" r="0.8"/>
						</g>
						<g>
							<circle fill="#F9A908" cx="61" cy="17.3" r="0.5"/>
						</g>
						<g>
							<circle fill="#F9A908" cx="6" cy="20.2" r="0.6"/>
						</g>
					</g>
				</g>
			</g>
		</g>
	</g>
	<g>
		<g>
			<polygon fill="#F9C55D" points="56.7,31.5 48.8,32.7 45.4,35.3 42.1,32.7 38.7,35.3 35.4,32.7 32,35.3 28.6,32.7 25.3,35.3 
				21.9,32.7 18.6,35.3 15.2,32.7 7.3,31.5 15.2,47.8 18.6,45.1 21.9,47.8 25.3,45.1 28.6,47.8 32,45.1 35.4,47.8 38.7,45.1 
				42.1,47.8 45.4,45.1 48.8,47.8 			"/>
		</g>
		<g>
			<polygon fill="#960E08" points="56.7,31.5 48.8,34.1 45.4,36.7 42.1,34.1 38.7,36.7 35.4,34.1 32,36.7 28.6,34.1 25.3,36.7 
				21.9,34.1 18.6,36.7 15.2,34.1 7.3,31.5 15.2,46.4 18.6,43.8 21.9,46.4 25.3,43.8 28.6,46.4 32,43.8 35.4,46.4 38.7,43.8 
				42.1,46.4 45.4,43.8 48.8,46.4 			"/>
		</g>
		<g>
			<polygon fill="#490101" points="15.2,38.9 18.6,41.5 21.9,38.9 25.3,41.5 28.6,38.9 32,41.5 35.4,38.9 38.7,41.5 42.1,38.9 
				45.4,41.5 48.8,38.9 53.6,37.3 56.7,31.5 48.8,34.1 45.4,36.7 42.1,34.1 38.7,36.7 35.4,34.1 32,36.7 28.6,34.1 25.3,36.7 
				21.9,34.1 18.6,36.7 15.2,34.1 7.3,31.5 10.4,37.3 			"/>
		</g>
		<g>
			<g>
				<path fill="#F9C55D" d="M33,9c0,0.6-0.4,1-1,1l0,0c-0.6,0-1-0.4-1-1l0,0c0-0.6,0.4-1,1-1l0,0C32.6,8,33,8.4,33,9L33,9z"/>
			</g>
			<g>
				<path fill="#F9C55D" d="M33,16c0,0.6-0.4,1-1,1l0,0c-0.6,0-1-0.4-1-1l0,0c0-0.6,0.4-1,1-1l0,0C32.6,15,33,15.4,33,16L33,16z"/>
			</g>
			<g>
				<path fill="#F9C55D" d="M33,23c0,0.6-0.4,1-1,1l0,0c-0.6,0-1-0.4-1-1l0,0c0-0.6,0.4-1,1-1l0,0C32.6,22,33,22.4,33,23L33,23z"/>
			</g>
			<g>
				<path fill="#F9C55D" d="M33,29.8c0,0.6-0.5,1-1,1l0,0c-0.6,0-1-0.5-1-1l0,0c0-0.6,0.5-1,1-1l0,0C32.6,28.8,33,29.3,33,29.8
					L33,29.8z"/>
			</g>
		</g>
	</g>
	<g>
		<path fill="#109DA0" d="M37.1,5.3c0,1.8-2.3,1.2-5.1,1.2c-2.8,0-5.1,0.5-5.1-1.2S29.2,2,32,2C34.8,2,37.1,3.5,37.1,5.3z"/>
	</g>
	<g>
		<path fill="#19BCA4" d="M37.1,5.3c0,1.8-2.3,1.2-5.1,1.2c-2.8,0-5.1,0.5-5.1-1.2"/>
	</g>
</g>
</svg>
