<?xml version="1.0" encoding="utf-8"?>
<!-- Generator: Adobe Illustrator 16.0.0, SVG Export Plug-In . SVG Version: 6.00 Build 0)  -->
<!DOCTYPE svg PUBLIC "-//W3C//DTD SVG 1.1//EN" "http://www.w3.org/Graphics/SVG/1.1/DTD/svg11.dtd">
<svg version="1.1" id="Layer_1" xmlns="http://www.w3.org/2000/svg" xmlns:xlink="http://www.w3.org/1999/xlink" x="0px" y="0px"
	 width="64px" height="64px" viewBox="0 0 64 64" enable-background="new 0 0 64 64" xml:space="preserve">
<g>
	<polygon fill="#1BE2C5" points="61,63 3,63 13.8,45 50.2,45 	"/>
	<polyline fill="#13D1BA" points="14,45 50.2,45 61,63 	"/>
	<g>
		<g>
			<path fill="#D81665" d="M32,5.2c-2-2.7-4.7-4.4-8.2-4.4c-5.1,0-9.2,3.6-9.2,8.1c0,1.6,0.5,3.2,1.6,4.5c0,0,0,0,0,0
				c0,0,0,0,0.1,0.1L32,39.9V5.2z"/>
			<path fill="#AA0761" d="M32,5.2c2-2.7,4.7-4.4,8.2-4.4c5.1,0,9.2,3.6,9.2,8.1c0,1.6-0.5,3.2-1.6,4.5c0,0,0,0,0,0c0,0,0,0-0.1,0.1
				L32,39.9V5.2z"/>
		</g>
		<g>
			<circle fill="#FFFEEE" cx="32" cy="16" r="5.6"/>
			<path fill="#EAE7C7" d="M32,10.4c3.1,0,5.6,2.5,5.6,5.6c0,3.1-2.5,5.6-5.6,5.6"/>
		</g>
		<g>
			<circle fill="#D81665" cx="32" cy="45" r="2.4"/>
			<path fill="#AA0761" d="M32,42.6c1.3,0,2.4,1.1,2.4,2.4s-1.1,2.4-2.4,2.4"/>
		</g>
	</g>
	<ellipse fill="#04A89B" cx="32" cy="49.9" rx="6.2" ry="0.9"/>
	<path fill="#10919B" d="M12.3,59.3l3.1-5.6c0.2-0.4,0.2-1.1-0.2-1.3c-0.4-0.2-1,0.1-1.2,0.5l-3.4,6.4H12.3z"/>
	<path fill="#10919B" d="M47.3,47l3.1,5.8c0.2,0.4,0.1,0.8-0.3,1.1c-0.4,0.2-0.9,0.1-1.1-0.3L45.5,47H47.3z"/>
	<path fill="#10919B" d="M14.8,52.3h34.8c0.4,0,0.8,0.3,0.8,0.8c0,0.4-0.3,0.8-0.8,0.8L13.6,54L14.8,52.3z"/>
</g>
</svg>
