<?xml version="1.0" encoding="utf-8"?>
<!-- Generator: Adobe Illustrator 16.0.0, SVG Export Plug-In . SVG Version: 6.00 Build 0)  -->
<!DOCTYPE svg PUBLIC "-//W3C//DTD SVG 1.1//EN" "http://www.w3.org/Graphics/SVG/1.1/DTD/svg11.dtd">
<svg version="1.1" id="Layer_1" xmlns="http://www.w3.org/2000/svg" xmlns:xlink="http://www.w3.org/1999/xlink" x="0px" y="0px"
	 width="65px" height="65px" viewBox="0 0 65 65" enable-background="new 0 0 65 65" xml:space="preserve">
<g>
	<g>
		<g>
			<g>
				<g>
					<path fill="#097ACE" d="M21.92,21.628v-3.069c3.488-0.001,5.918-1.77,5.918-3.359s-2.432-3.357-5.918-3.358v-3.07
						c5.039,0,8.988,2.823,8.988,6.429C30.906,18.805,26.961,21.627,21.92,21.628z"/>
				</g>
				<g>
					<path fill="#CE1111" d="M20.545,21.628c-5.039-0.001-8.986-2.823-8.988-6.429c0.002-3.604,3.949-6.428,8.988-6.429v3.071
						c-3.486-0.001-5.918,1.77-5.916,3.357c-0.002,1.589,2.43,3.359,5.918,3.359L20.545,21.628z"/>
				</g>
			</g>
			<g>
				<g>
					<ellipse fill="#FFB000" cx="21.233" cy="14.018" rx="5.341" ry="0.223"/>
					<ellipse fill="#FFB000" cx="21.233" cy="16.384" rx="5.341" ry="0.224"/>
				</g>
				<ellipse fill="#FFB000" cx="21.232" cy="15.2" rx="5.949" ry="0.222"/>
			</g>
		</g>
		<g>
			<g>
				<g>
					<path fill="#CE1111" d="M21.918,31.416l0.002-3.071c3.488,0,5.918-1.77,5.918-3.358s-2.43-3.359-5.918-3.358v-3.069
						c5.041,0,8.988,2.823,8.988,6.426C30.908,28.592,26.959,31.416,21.918,31.416z"/>
				</g>
				<path fill="#8A4299" d="M21.92,18.559v3.069c2.27,0.001,4.314-0.576,5.879-1.536C26.232,19.135,24.189,18.558,21.92,18.559z"/>
				<g>
					<path fill="#097ACE" d="M20.545,31.414c-5.039,0-8.988-2.822-8.988-6.428s3.947-6.427,8.99-6.428l-0.002,3.069
						c-3.486-0.001-5.918,1.769-5.918,3.358c0,1.588,2.432,3.358,5.92,3.357L20.545,31.414z"/>
				</g>
			</g>
			<g>
				<g>
					<ellipse fill="#FFB000" cx="21.233" cy="23.804" rx="5.341" ry="0.221"/>
					<ellipse fill="#FFB000" cx="21.232" cy="26.169" rx="5.342" ry="0.225"/>
				</g>
				<ellipse fill="#FFB000" cx="21.232" cy="24.986" rx="5.949" ry="0.224"/>
			</g>
		</g>
		<g>
			<g>
				<g>
					<path fill="#097ACE" d="M21.92,41.202v-3.071c3.486,0.001,5.918-1.771,5.918-3.359c0-1.588-2.432-3.355-5.92-3.355l0.002-3.071
						c5.041,0,8.986,2.823,8.988,6.429C30.908,38.378,26.961,41.199,21.92,41.202z"/>
				</g>
				<g>
					<path fill="#CE1111" d="M20.547,41.2c-5.041,0.001-8.988-2.823-8.99-6.427c0-3.605,3.949-6.429,8.99-6.43l-0.002,3.07
						c-3.486,0-5.918,1.77-5.916,3.359c-0.002,1.588,2.43,3.358,5.918,3.357V41.2z"/>
				</g>
				<path fill="#8A4299" d="M20.545,31.414l0.002-3.07c-2.27,0-4.314,0.575-5.879,1.535C16.232,30.837,18.277,31.414,20.545,31.414z
					"/>
			</g>
			<g>
				<g>
					<path fill="#FFB000" d="M26.574,33.59c0,0.123-2.393,0.223-5.342,0.223c-2.951,0.001-5.34-0.102-5.34-0.223
						c-0.002-0.126,2.391-0.224,5.34-0.225C24.182,33.366,26.574,33.466,26.574,33.59z"/>
					<ellipse fill="#FFB000" cx="21.232" cy="35.956" rx="5.342" ry="0.224"/>
				</g>
				<ellipse fill="#FFB000" cx="21.232" cy="34.773" rx="5.949" ry="0.223"/>
			</g>
		</g>
		<g>
			<g>
				<g>
					<path fill="#CE1111" d="M21.92,50.987v-3.069c3.486,0,5.918-1.771,5.918-3.357c0-1.59-2.432-3.359-5.918-3.358v-3.071
						c5.039,0,8.988,2.824,8.988,6.429C30.908,48.166,26.959,50.987,21.92,50.987z"/>
				</g>
				<g>
					<path fill="#097ACE" d="M21.92,41.202v-3.071c3.486,0.001,5.918-1.771,5.918-3.359c0-1.588-2.432-3.355-5.92-3.355l0.002-3.071
						c5.041,0,8.986,2.823,8.988,6.429C30.908,38.378,26.961,41.199,21.92,41.202z"/>
				</g>
				<path fill="#8A4299" d="M21.92,38.131v3.071c2.27-0.001,4.314-0.577,5.879-1.536C26.232,38.709,24.189,38.13,21.92,38.131z"/>
				<g>
					<path fill="#097ACE" d="M20.545,50.987c-5.041,0.001-8.988-2.823-8.988-6.428c0.002-3.605,3.951-6.428,8.99-6.429V41.2
						c-3.488-0.001-5.918,1.771-5.92,3.36c0,1.587,2.432,3.357,5.92,3.357L20.545,50.987z"/>
				</g>
			</g>
			<g>
				<g>
					<ellipse fill="#FFB000" cx="21.232" cy="43.376" rx="5.342" ry="0.223"/>
					<ellipse fill="#FFB000" cx="21.233" cy="45.743" rx="5.341" ry="0.222"/>
				</g>
				<ellipse fill="#FFB000" cx="21.232" cy="44.56" rx="5.949" ry="0.224"/>
			</g>
		</g>
		<g>
			<g>
				<g>
					<path fill="#097ACE" d="M21.92,60.775v-3.07c3.486-0.001,5.918-1.771,5.918-3.358c0-1.59-2.432-3.358-5.918-3.359v-3.069
						c5.041,0,8.988,2.822,8.99,6.427C30.906,57.951,26.959,60.773,21.92,60.775z"/>
				</g>
				<g>
					<path fill="#CE1111" d="M20.547,60.775c-5.041,0-8.99-2.825-8.99-6.43s3.947-6.428,8.99-6.428l-0.002,3.069
						c-3.486,0-5.918,1.77-5.918,3.36c-0.002,1.587,2.432,3.357,5.918,3.357L20.547,60.775z"/>
				</g>
				<g>
					<path fill="#097ACE" d="M20.545,50.987c-5.041,0.001-8.988-2.823-8.988-6.428c0.002-3.605,3.951-6.428,8.99-6.429V41.2
						c-3.488-0.001-5.918,1.771-5.92,3.36c0,1.587,2.432,3.357,5.92,3.357L20.545,50.987z"/>
				</g>
				<path fill="#8A4299" d="M20.545,50.987l0.002-3.069c-2.271,0-4.314,0.575-5.879,1.535
					C16.232,50.411,18.277,50.987,20.545,50.987z"/>
			</g>
			<g>
				<g>
					<ellipse fill="#FFB000" cx="21.232" cy="53.163" rx="5.342" ry="0.223"/>
					<path fill="#FFB000" d="M26.574,55.529c0,0.124-2.391,0.224-5.342,0.223c-2.951,0.001-5.342-0.099-5.342-0.221
						c0-0.128,2.391-0.225,5.342-0.226C24.182,55.306,26.574,55.405,26.574,55.529z"/>
				</g>
				<ellipse fill="#FFB000" cx="21.233" cy="54.346" rx="5.95" ry="0.223"/>
			</g>
		</g>
	</g>
	<g>
		<g>
			<g>
				<g>
					<path fill="#ABD3DD" d="M51.424,59.529c0,2.746-2.225,4.971-4.969,4.971H44.9c-2.744,0-4.969-2.225-4.969-4.971V3.296
						c0-2.744,2.225-2.796,4.969-2.796h1.555c2.744,0,4.969,0.052,4.969,2.796V59.529z"/>
					<path fill="#8DC6D3" d="M44.9,0.5h1.555c2.744,0,4.969,0.052,4.969,2.796v56.233c0,2.746-2.225,4.971-4.969,4.971H44.9"/>
					<path fill="#FF774D" d="M39.932,27.832v31.697c0,2.746,2.225,4.971,4.969,4.971h1.555c2.744,0,4.969-2.225,4.969-4.971V27.832
						H39.932z"/>
					<path fill="#FF1A1A" d="M39.932,59.529c0,2.746,2.225,4.971,4.969,4.971h1.555c2.744,0,4.969-2.225,4.969-4.971V30.082H39.932
						V59.529z"/>
					<path fill="#AA0707" d="M44.9,64.5h1.555c2.744,0,4.969-2.225,4.969-4.971V30.082H44.9V64.5z"/>
					<path fill="#8DC6D3" d="M50.898,14.078l0.525-0.527V3.296c0-2.744-2.225-2.796-4.969-2.796H44.9
						c-2.682,0-4.854,0.067-4.951,2.632L50.898,14.078z"/>
					<path fill="#C4E3E8" d="M53.443,1.742c0,0.687-0.555,1.243-1.242,1.243H39.154c-0.688,0-1.242-0.557-1.242-1.243l0,0
						c0-0.685,0.555-1.242,1.242-1.242h13.047C52.889,0.5,53.443,1.058,53.443,1.742L53.443,1.742z"/>
					<path fill="#ABD3DD" d="M53.443,1.742L53.443,1.742c0,0.687-0.555,1.243-1.242,1.243H39.154c-0.688,0-1.242-0.557-1.242-1.243
						l0,0"/>
					<g>
						<path fill="#C4E3E8" d="M46.195,8.397c0,0.173-0.139,0.312-0.309,0.312h-4.143c-0.172,0-0.311-0.139-0.311-0.312l0,0
							c0-0.172,0.139-0.31,0.311-0.31h4.143C46.057,8.088,46.195,8.226,46.195,8.397L46.195,8.397z"/>
						<path fill="#C4E3E8" d="M43.709,10.778c0,0.173-0.137,0.311-0.309,0.311h-1.656c-0.172,0-0.311-0.138-0.311-0.311l0,0
							c0-0.172,0.139-0.31,0.311-0.31H43.4C43.572,10.469,43.709,10.606,43.709,10.778L43.709,10.778z"/>
					</g>
					<g>
						<path fill="#C4E3E8" d="M46.195,13.058c0,0.173-0.139,0.311-0.309,0.311h-4.143c-0.172,0-0.311-0.138-0.311-0.311l0,0
							c0-0.173,0.139-0.311,0.311-0.311h4.143C46.057,12.747,46.195,12.885,46.195,13.058L46.195,13.058z"/>
						<path fill="#C4E3E8" d="M43.709,15.438c0,0.173-0.137,0.312-0.309,0.312h-1.656c-0.172,0-0.311-0.14-0.311-0.312l0,0
							c0-0.172,0.139-0.31,0.311-0.31H43.4C43.572,15.129,43.709,15.267,43.709,15.438L43.709,15.438z"/>
					</g>
					<g>
						<path fill="#C4E3E8" d="M46.195,17.718c0,0.172-0.139,0.312-0.309,0.312h-4.143c-0.172,0-0.311-0.141-0.311-0.312l0,0
							c0-0.172,0.139-0.311,0.311-0.311h4.143C46.057,17.407,46.195,17.546,46.195,17.718L46.195,17.718z"/>
						<path fill="#C4E3E8" d="M43.709,20.099c0,0.175-0.137,0.311-0.309,0.311h-1.656c-0.172,0-0.311-0.136-0.311-0.311l0,0
							c0-0.172,0.139-0.308,0.311-0.308H43.4C43.572,19.791,43.709,19.927,43.709,20.099L43.709,20.099z"/>
					</g>
					<g>
						<path fill="#C4E3E8" d="M46.195,22.378c0,0.174-0.139,0.311-0.309,0.311h-4.143c-0.172,0-0.311-0.137-0.311-0.311l0,0
							c0-0.172,0.139-0.31,0.311-0.31h4.143C46.057,22.068,46.195,22.206,46.195,22.378L46.195,22.378z"/>
						<path fill="#C4E3E8" d="M43.709,24.759c0,0.172-0.137,0.312-0.309,0.312h-1.656c-0.172,0-0.311-0.141-0.311-0.312l0,0
							c0-0.172,0.139-0.311,0.311-0.311H43.4C43.572,24.448,43.709,24.587,43.709,24.759L43.709,24.759z"/>
					</g>
					<g>
						<path fill="#C4E3E8" d="M46.195,27.038c0,0.173-0.139,0.312-0.309,0.312h-4.143c-0.172,0-0.311-0.14-0.311-0.312l0,0
							c0-0.172,0.139-0.311,0.311-0.311h4.143C46.057,26.728,46.195,26.866,46.195,27.038L46.195,27.038z"/>
						<path fill="#C4E3E8" d="M43.709,29.419c0,0.172-0.137,0.312-0.309,0.312h-1.656c-0.172,0-0.311-0.141-0.311-0.312l0,0
							c0-0.169,0.139-0.31,0.311-0.31H43.4C43.572,29.109,43.709,29.25,43.709,29.419L43.709,29.419z"/>
					</g>
					<g>
						<path fill="#C4E3E8" d="M46.195,31.7c0,0.171-0.139,0.311-0.309,0.311h-4.143c-0.172,0-0.311-0.14-0.311-0.311l0,0
							c0-0.173,0.139-0.312,0.311-0.312h4.143C46.057,31.389,46.195,31.527,46.195,31.7L46.195,31.7z"/>
						<path fill="#C4E3E8" d="M43.709,34.079c0,0.173-0.137,0.312-0.309,0.312h-1.656c-0.172,0-0.311-0.14-0.311-0.312l0,0
							c0-0.172,0.139-0.31,0.311-0.31H43.4C43.572,33.77,43.709,33.907,43.709,34.079L43.709,34.079z"/>
					</g>
					<g>
						<path fill="#C4E3E8" d="M46.195,36.358c0,0.173-0.139,0.312-0.309,0.312h-4.143c-0.172,0-0.311-0.139-0.311-0.312l0,0
							c0-0.173,0.139-0.311,0.311-0.311h4.143C46.057,36.048,46.195,36.186,46.195,36.358L46.195,36.358z"/>
						<path fill="#C4E3E8" d="M43.709,38.741c0,0.172-0.137,0.311-0.309,0.311h-1.656c-0.172,0-0.311-0.139-0.311-0.311l0,0
							c0-0.173,0.139-0.312,0.311-0.312H43.4C43.572,38.43,43.709,38.568,43.709,38.741L43.709,38.741z"/>
					</g>
					<g>
						<path fill="#C4E3E8" d="M46.195,41.02c0,0.173-0.139,0.311-0.309,0.311h-4.143c-0.172,0-0.311-0.138-0.311-0.311l0,0
							c0-0.172,0.139-0.311,0.311-0.311h4.143C46.057,40.709,46.195,40.848,46.195,41.02L46.195,41.02z"/>
						<path fill="#C4E3E8" d="M43.709,43.399c0,0.173-0.137,0.312-0.309,0.312h-1.656c-0.172,0-0.311-0.139-0.311-0.312l0,0
							c0-0.173,0.139-0.311,0.311-0.311H43.4C43.572,43.089,43.709,43.227,43.709,43.399L43.709,43.399z"/>
					</g>
					<g>
						<path fill="#C4E3E8" d="M46.195,45.679c0,0.172-0.139,0.312-0.309,0.312h-4.143c-0.172,0-0.311-0.14-0.311-0.312l0,0
							c0-0.171,0.139-0.311,0.311-0.311h4.143C46.057,45.368,46.195,45.508,46.195,45.679L46.195,45.679z"/>
						<path fill="#C4E3E8" d="M43.709,48.061c0,0.173-0.137,0.311-0.309,0.311h-1.656c-0.172,0-0.311-0.138-0.311-0.311l0,0
							c0-0.172,0.139-0.311,0.311-0.311H43.4C43.572,47.75,43.709,47.889,43.709,48.061L43.709,48.061z"/>
					</g>
					<g>
						<path fill="#C4E3E8" d="M46.195,50.34c0,0.172-0.139,0.312-0.309,0.312h-4.143c-0.172,0-0.311-0.14-0.311-0.312l0,0
							c0-0.172,0.139-0.312,0.311-0.312h4.143C46.057,50.028,46.195,50.168,46.195,50.34L46.195,50.34z"/>
						<path fill="#C4E3E8" d="M43.709,52.721c0,0.173-0.137,0.311-0.309,0.311h-1.656c-0.172,0-0.311-0.138-0.311-0.311l0,0
							c0-0.172,0.139-0.311,0.311-0.311H43.4C43.572,52.41,43.709,52.549,43.709,52.721L43.709,52.721z"/>
					</g>
					<g>
						<path fill="#C4E3E8" d="M46.195,55c0,0.172-0.139,0.31-0.309,0.31h-4.143c-0.172,0-0.311-0.138-0.311-0.31l0,0
							c0-0.173,0.139-0.311,0.311-0.311h4.143C46.057,54.689,46.195,54.827,46.195,55L46.195,55z"/>
						<path fill="#C4E3E8" d="M43.709,57.381c0,0.172-0.137,0.312-0.309,0.312h-1.656c-0.172,0-0.311-0.14-0.311-0.312l0,0
							c0-0.172,0.139-0.312,0.311-0.312H43.4C43.572,57.069,43.709,57.209,43.709,57.381L43.709,57.381z"/>
					</g>
				</g>
			</g>
		</g>
	</g>
</g>
</svg>
