<?xml version="1.0" encoding="utf-8"?>
<!-- Generator: Adobe Illustrator 16.0.0, SVG Export Plug-In . SVG Version: 6.00 Build 0)  -->
<!DOCTYPE svg PUBLIC "-//W3C//DTD SVG 1.1//EN" "http://www.w3.org/Graphics/SVG/1.1/DTD/svg11.dtd">
<svg version="1.1" id="Layer_1" xmlns="http://www.w3.org/2000/svg" xmlns:xlink="http://www.w3.org/1999/xlink" x="0px" y="0px"
	 width="64px" height="64px" viewBox="0 0 64 64" enable-background="new 0 0 64 64" xml:space="preserve">
<g>
	<g>
		<g>
			<path fill="#F7910B" d="M62.3,37.5C62.3,50.5,50.4,61,32,61C13.6,61,1.7,50.5,1.7,37.5S13.6,5,32,5C50.4,5,62.3,24.5,62.3,37.5z"
				/>
		</g>
		<g>
			<path fill="#F7910B" d="M62.3,37.5C62.3,50.5,50.4,57,32,57C13.6,57,1.7,50.5,1.7,37.5S13.6,3,32,3C50.4,3,62.3,24.5,62.3,37.5z"
				/>
		</g>
		<g>
			<path fill="#F9A908" d="M32,3c18.4,0,30.3,21.5,30.3,34.5S50.4,57,32,57"/>
		</g>
		<g>
			<path fill="#F9A908" d="M62.3,37.5C62.3,50.5,50.4,57,32,57C13.6,57,1.7,50.5,1.7,37.5S13.6,5,32,5C50.4,5,62.3,24.5,62.3,37.5z"
				/>
		</g>
		<g>
			<path fill="#F9C55D" d="M1.7,37.5C1.7,24.5,13.6,5,32,5"/>
		</g>
		<g>
			<path fill="#F7910B" d="M32,5c18.4,0,30.3,19.5,30.3,32.5S50.4,61,32,61"/>
		</g>
		<g>
			<path fill="#EA7103" d="M32,5c18.4,0,30.3,19.5,30.3,32.5"/>
		</g>
		<g>
			<g>
				<g>
					<g>
						<g>
							<path fill="#19BCA4" d="M25.7,16c0,0.9-1.4,0.5-3.3,0.6c-1.8,0.1-3.3,0.6-3.3-0.3c0-0.9,1.4-1.6,3.2-1.7
								C24.2,14.5,25.7,15.1,25.7,16z"/>
						</g>
					</g>
				</g>
			</g>
			<g>
				<g>
					<g>
						<g>
							<path fill="#19BCA4" d="M38.3,16c0,0.9,1.4,0.5,3.3,0.6c1.8,0.1,3.3,0.6,3.3-0.3c0-0.9-1.4-1.6-3.2-1.7
								C39.8,14.5,38.3,15.1,38.3,16z"/>
						</g>
					</g>
				</g>
			</g>
		</g>
		<g>
			<g>
				<g>
					<g>
						<g>
							<path fill="#109DA0" d="M25.7,16c0,0.9-1.4,0.5-3.3,0.6c-1.8,0.1-3.3,0.6-3.3-0.3"/>
						</g>
					</g>
				</g>
			</g>
			<g>
				<g>
					<g>
						<g>
							<path fill="#109DA0" d="M38.3,16c0,0.9,1.4,0.5,3.3,0.6c1.8,0.1,3.3,0.6,3.3-0.3"/>
						</g>
					</g>
				</g>
			</g>
		</g>
		<g>
			<g>
				<path fill="#F9C55D" d="M27.8,30.8c0,1.2-3.5,0.7-7.8,0.7c-4.3,0-7.8,0.6-7.8-0.7c0-1.2,3.5-2.2,7.8-2.2
					C24.3,28.6,27.8,29.6,27.8,30.8z"/>
			</g>
			<g>
				<path fill="#F9A908" d="M51.8,30.8c0,1.2-3.5,0.7-7.8,0.7s-7.8,0.6-7.8-0.7c0-1.2,3.5-2.2,7.8-2.2S51.8,29.6,51.8,30.8z"/>
			</g>
		</g>
		<g>
			<circle fill="#F7910B" cx="10.3" cy="34.5" r="0.6"/>
		</g>
		<g>
			<circle fill="#F7910B" cx="5.8" cy="36.5" r="1.1"/>
		</g>
		<g>
			<circle fill="#F7910B" cx="8.8" cy="32.5" r="0.2"/>
		</g>
		<g>
			<circle fill="#F7910B" cx="13.4" cy="34.3" r="0.2"/>
		</g>
		<g>
			<circle fill="#F9A908" cx="52.6" cy="34.8" r="0.8"/>
		</g>
		<g>
			<circle fill="#F9A908" cx="55.1" cy="36.2" r="0.2"/>
		</g>
		<g>
			<circle fill="#F9A908" cx="49.8" cy="27.4" r="0.3"/>
		</g>
		<g>
			<circle fill="#F9A908" cx="49.3" cy="39" r="1.3"/>
		</g>
		<g>
			<circle fill="#F9A908" cx="56.5" cy="39.1" r="0.6"/>
		</g>
		<g>
			<circle fill="#F7910B" cx="9.3" cy="38.5" r="0.5"/>
		</g>
		<g>
			<circle fill="#F7910B" cx="10.1" cy="30.1" r="0.4"/>
		</g>
		<g>
			<circle fill="#F9A908" cx="4.8" cy="16.3" r="1.1"/>
		</g>
		<g>
			<circle fill="#F9A908" cx="8" cy="12.8" r="0.6"/>
		</g>
		<g>
			<circle fill="#F9A908" cx="59.2" cy="18.7" r="0.2"/>
		</g>
		<g>
			<circle fill="#F9A908" cx="58.4" cy="15.8" r="0.8"/>
		</g>
		<g>
			<circle fill="#F9A908" cx="61" cy="16.3" r="0.5"/>
		</g>
		<g>
			<circle fill="#F9A908" cx="6" cy="19.3" r="0.6"/>
		</g>
		<g>
			<g>
				<g>
					
						<ellipse transform="matrix(0.7071 0.7071 -0.7071 0.7071 24.0337 -9.0987)" fill="#00233F" cx="23" cy="24.5" rx="5.9" ry="1.8"/>
				</g>
				<g>
					
						<ellipse transform="matrix(0.7071 -0.7071 0.7071 0.7071 -10.5606 23.4282)" fill="#00233F" cx="23" cy="24.5" rx="5.9" ry="1.8"/>
				</g>
			</g>
			<g>
				<g>
					
						<ellipse transform="matrix(0.7071 0.7071 -0.7071 0.7071 29.3055 -21.826)" fill="#00233F" cx="41" cy="24.5" rx="5.9" ry="1.8"/>
				</g>
				<g>
					
						<ellipse transform="matrix(0.7071 -0.7071 0.7071 0.7071 -5.2888 36.1554)" fill="#00233F" cx="41" cy="24.5" rx="5.9" ry="1.8"/>
				</g>
			</g>
		</g>
	</g>
	<g>
		<g>
			<path fill="#F7910B" d="M37.2,46.4c0,2.4-2.3,4.3-5.2,4.3c-2.9,0-5.2-1.9-5.2-4.3"/>
		</g>
		<g>
			<g>
				<path fill="#C42260" d="M38.4,40.5c0,6.1-2.9,8.5-6.4,8.5c-3.5,0-6.4-2.4-6.4-8.5c0-6.1,2.9-9.3,6.4-9.3
					C35.5,31.1,38.4,34.3,38.4,40.5z"/>
			</g>
			<g>
				<path fill="#E2446E" d="M38.3,42.2c-0.8-0.3-1.6-0.4-2.5-0.4c-1.4,0-2.7,0.4-3.8,1.1c-1.1-0.7-2.4-1.1-3.8-1.1
					c-0.9,0-1.7,0.2-2.5,0.4C26.2,47,28.8,49,32,49C35.2,49,37.8,47,38.3,42.2z"/>
			</g>
			<g>
				<path fill="#99144A" d="M38.2,38c-0.8-5-3.3-6.9-6.2-6.9c-2.9,0-5.5,1.9-6.2,6.9H38.2z"/>
			</g>
		</g>
	</g>
</g>
</svg>
