<?xml version="1.0" encoding="utf-8"?>
<!-- Generator: Adobe Illustrator 16.0.0, SVG Export Plug-In . SVG Version: 6.00 Build 0)  -->
<!DOCTYPE svg PUBLIC "-//W3C//DTD SVG 1.1//EN" "http://www.w3.org/Graphics/SVG/1.1/DTD/svg11.dtd">
<svg version="1.1" id="Layer_1" xmlns="http://www.w3.org/2000/svg" xmlns:xlink="http://www.w3.org/1999/xlink" x="0px" y="0px"
	 width="65px" height="65px" viewBox="0 0 65 65" enable-background="new 0 0 65 65" xml:space="preserve">
<g>
	<g>
		<path fill="#BFCADB" d="M24.846,16.79c-2.073-0.742-4.113-1.104-6.239-1.104C8.622,15.686,0.5,23.889,0.5,33.973
			c0,10.059,8.122,18.242,18.106,18.242c2.126,0,4.166-0.361,6.239-1.105c0.738-0.264,1.231-0.965,1.231-1.75v-5.115
			c0-0.676-0.366-1.297-0.958-1.625c-0.587-0.326-1.311-0.312-1.883,0.049c-1.393,0.863-2.951,1.301-4.63,1.301
			c-5.188,0-9.409-4.484-9.409-9.996c0-5.537,4.221-10.041,9.409-10.041c1.633,0,3.19,0.453,4.63,1.348
			c0.572,0.359,1.296,0.375,1.883,0.047c0.592-0.327,0.958-0.951,0.958-1.627v-5.157C26.077,17.756,25.584,17.055,24.846,16.79z"/>
		<path fill="#BFCADB" d="M46.32,15.686c-9.986,0-18.107,8.203-18.107,18.287c0,10.059,8.121,18.242,18.107,18.242
			c9.981,0,18.104-8.184,18.104-18.242C64.425,23.889,56.302,15.686,46.32,15.686z"/>
		<path fill="#175ECE" d="M24.846,13.957c-2.073-0.742-4.113-1.104-6.239-1.104C8.622,12.853,0.5,21.056,0.5,31.14
			c0,10.059,8.122,18.243,18.106,18.243c2.126,0,4.166-0.361,6.239-1.105c0.738-0.264,1.231-0.965,1.231-1.75v-5.115
			c0-0.676-0.366-1.297-0.958-1.625c-0.587-0.328-1.311-0.312-1.883,0.047c-1.393,0.865-2.951,1.303-4.63,1.303
			c-5.188,0-9.409-4.484-9.409-9.997c0-5.537,4.221-10.041,9.409-10.041c1.633,0,3.19,0.453,4.63,1.348
			c0.572,0.359,1.296,0.375,1.883,0.047c0.592-0.328,0.958-0.951,0.958-1.627v-5.158C26.077,14.923,25.584,14.222,24.846,13.957z"/>
		<path fill="#175ECE" d="M46.32,12.853c-9.986,0-18.107,8.203-18.107,18.287c0,10.059,8.121,18.243,18.107,18.243
			c9.981,0,18.104-8.184,18.104-18.243C64.425,21.056,56.302,12.853,46.32,12.853z"/>
		<path fill="#2D7AEA" d="M46.32,12.853c-9.986,0-18.107,8.203-18.107,18.287"/>
		<path fill="#2D7AEA" d="M18.664,12.785c-9.984,0-18.106,8.203-18.106,18.287"/>
		<path fill="#0038A8" d="M33.53,43.936c7.112,7.113,18.645,7.156,25.703,0.096c7.06-7.059,7.016-18.588-0.097-25.7"/>
		<g>
			<path fill="#0038A8" d="M18.606,49.383c2.126,0,4.166-0.361,6.239-1.105c0.738-0.264,1.231-0.965,1.231-1.75v-5.115
				c0-0.676-0.366-1.297-0.958-1.625c-0.587-0.328-1.311-0.312-1.883,0.047c-1.393,0.865-2.951,1.303-4.63,1.303
				c-5.179,0-9.392-4.469-9.408-9.967l-7.206,7.208C4.778,44.844,11.174,49.383,18.606,49.383z"/>
			<path fill="#0038A8" d="M23.236,22.447c0.572,0.359,1.296,0.375,1.883,0.047c0.592-0.328,0.958-0.951,0.958-1.627v-5.158
				c0-0.395-0.125-0.768-0.341-1.072l-6.509,6.506C20.633,21.244,21.981,21.667,23.236,22.447z"/>
		</g>
	</g>
	<path fill="#FF4A03" d="M52.252,37.586h-5.589l4.804-6.125c1.044-1.334,1.647-2.461,1.647-4.262c0-3.479-3.018-6.303-6.728-6.303
		s-6.728,2.824-6.728,6.303c0,1.562,0.62,2.99,1.635,4.098l2.615-3.441c-0.058-0.209-0.097-0.426-0.097-0.656
		c0-1.391,1.131-2.523,2.521-2.523c1.383,0,2.549,1.154,2.549,2.523c0,0.576-0.215,1.107-0.557,1.535l-3.424,4.614
		c0,0,0.02,0.004,0.031,0.008l-5.257,6.807c-0.17,0.221-0.201,0.518-0.078,0.77c0.124,0.248,0.378,0.408,0.655,0.408h11.998
		c0.402,0,0.731-0.328,0.731-0.732v-2.293C52.983,37.912,52.654,37.586,52.252,37.586z"/>
	<path fill="#BA0000" d="M52.983,40.607v-2.293c0-0.402-0.329-0.729-0.731-0.729h-5.589l4.804-6.125
		c1.044-1.334,1.647-2.461,1.647-4.262c0-0.834-0.177-1.627-0.492-2.354l-5.465,5.465l-2.255,3.038c0,0,0.02,0.004,0.031,0.008
		l-5.257,6.807c-0.17,0.221-0.201,0.518-0.078,0.77c0.124,0.248,0.378,0.408,0.655,0.408h11.998
		C52.654,41.34,52.983,41.012,52.983,40.607z"/>
</g>
</svg>
