<?xml version="1.0" encoding="utf-8"?>
<!-- Generator: Adobe Illustrator 16.0.0, SVG Export Plug-In . SVG Version: 6.00 Build 0)  -->
<!DOCTYPE svg PUBLIC "-//W3C//DTD SVG 1.1//EN" "http://www.w3.org/Graphics/SVG/1.1/DTD/svg11.dtd">
<svg version="1.1" xmlns="http://www.w3.org/2000/svg" xmlns:xlink="http://www.w3.org/1999/xlink" x="0px" y="0px" width="65px"
	 height="65px" viewBox="0 0 65 65" enable-background="new 0 0 65 65" xml:space="preserve">
<g id="Layer_1">
	<g>
		<path fill="#773217" d="M62.146,2.854c3.139,3.138,3.139,8.225,0,11.363L14.803,61.561c-3.139,3.139-5.385,0.297-8.523-2.841l0,0
			c-3.137-3.137-5.979-5.384-2.84-8.522L50.783,2.854C53.922-0.285,59.01-0.283,62.146,2.854L62.146,2.854z"/>
		<path fill="#5B2311" d="M62.146,2.854L62.146,2.854c3.139,3.138,3.139,8.225,0,11.363L14.803,61.561
			c-3.139,3.139-5.385,0.297-8.523-2.841l0,0"/>
		<path fill="#FF9D00" d="M41.631,12.007l-7.104,7.102c3.139-3.137,8.227-3.137,11.365,0c3.135,3.138,3.135,8.227,0,11.363
			l7.1-7.103c3.139-3.137,3.139-8.224,0-11.362C49.855,8.869,44.768,8.869,41.631,12.007z"/>
		<path fill="#DD8300" d="M52.992,12.007l-7.1,7.102c3.135,3.138,3.135,8.227,0,11.363l7.1-7.103
			C56.131,20.232,56.131,15.146,52.992,12.007z"/>
		<path fill="#CE0909" d="M10.068,58.405c1.395,1.394,1.395,3.653,0,5.049l0,0c-1.395,1.394-3.656,1.396-5.049,0.001l-3.475-3.473
			c-1.395-1.395-1.395-3.657,0-5.051l0,0c1.395-1.395,3.656-1.395,5.049,0L10.068,58.405z"/>
	</g>
</g>
<g id="nyt_x5F_exporter_x5F_info" display="none">
</g>
</svg>
