<?xml version="1.0" encoding="utf-8"?>
<!-- Generator: Adobe Illustrator 16.0.0, SVG Export Plug-In . SVG Version: 6.00 Build 0)  -->
<!DOCTYPE svg PUBLIC "-//W3C//DTD SVG 1.1//EN" "http://www.w3.org/Graphics/SVG/1.1/DTD/svg11.dtd">
<svg version="1.1" id="Layer_1" xmlns="http://www.w3.org/2000/svg" xmlns:xlink="http://www.w3.org/1999/xlink" x="0px" y="0px"
	 width="64px" height="64px" viewBox="0 0 64 64" enable-background="new 0 0 64 64" xml:space="preserve">
<g>
	<g>
		<path fill="#F7910B" d="M62.3,37.5C62.3,50.5,50.4,61,32,61C13.6,61,1.7,50.5,1.7,37.5S13.6,5,32,5C50.4,5,62.3,24.5,62.3,37.5z"
			/>
	</g>
	<g>
		<path fill="#F7910B" d="M62.3,37.5C62.3,50.5,50.4,57,32,57C13.6,57,1.7,50.5,1.7,37.5S13.6,3,32,3C50.4,3,62.3,24.5,62.3,37.5z"
			/>
	</g>
	<g>
		<path fill="#F9A908" d="M32,3c18.4,0,30.3,21.5,30.3,34.5S50.4,57,32,57"/>
	</g>
	<g>
		<path fill="#F9A908" d="M62.3,37.5C62.3,50.5,50.4,57,32,57C13.6,57,1.7,50.5,1.7,37.5S13.6,5,32,5C50.4,5,62.3,24.5,62.3,37.5z"
			/>
	</g>
	<g>
		<path fill="#F9C55D" d="M1.7,37.5C1.7,24.5,13.6,5,32,5"/>
	</g>
	<g>
		<path fill="#F7910B" d="M32,5c18.4,0,30.3,19.5,30.3,32.5S50.4,61,32,61"/>
	</g>
	<g>
		<path fill="#EA7103" d="M32,5c18.4,0,30.3,19.5,30.3,32.5"/>
	</g>
	<g>
		<g>
			<g>
				<g>
					<g>
						<g>
							<path fill="#19BCA4" d="M25.9,14.9c0.3,0.8-1.2,0.9-2.9,1.6c-1.7,0.6-2.9,1.6-3.2,0.8c-0.3-0.8,0.8-2,2.5-2.6
								C23.9,14,25.5,14.1,25.9,14.9z"/>
						</g>
					</g>
				</g>
			</g>
			<g>
				<g>
					<g>
						<g>
							<path fill="#109DA0" d="M25.9,14.9c0.3,0.8-1.2,0.9-2.9,1.6c-1.7,0.6-2.9,1.6-3.2,0.8"/>
						</g>
					</g>
				</g>
			</g>
		</g>
		<g>
			<g>
				<g>
					<g>
						<g>
							<path fill="#19BCA4" d="M38.1,14.9c-0.3,0.8,1.2,0.9,2.9,1.6c1.7,0.6,2.9,1.6,3.2,0.8c0.3-0.8-0.8-2-2.5-2.6
								C40.1,14,38.5,14.1,38.1,14.9z"/>
						</g>
					</g>
				</g>
			</g>
			<g>
				<g>
					<g>
						<g>
							<path fill="#109DA0" d="M38.1,14.9c-0.3,0.8,1.2,0.9,2.9,1.6c1.7,0.6,2.9,1.6,3.2,0.8"/>
						</g>
					</g>
				</g>
			</g>
		</g>
	</g>
	<g>
		<g>
			<path fill="#F9C55D" d="M27.8,30.8c0,1.2-3.5,0.7-7.8,0.7c-4.3,0-7.8,0.6-7.8-0.7c0-1.2,3.5-2.2,7.8-2.2
				C24.3,28.6,27.8,29.6,27.8,30.8z"/>
		</g>
		<g>
			<path fill="#F9A908" d="M51.8,30.8c0,1.2-3.5,0.7-7.8,0.7s-7.8,0.6-7.8-0.7c0-1.2,3.5-2.2,7.8-2.2S51.8,29.6,51.8,30.8z"/>
		</g>
	</g>
	<g>
		<circle fill="#F7910B" cx="10.3" cy="34.5" r="0.6"/>
	</g>
	<g>
		<circle fill="#F7910B" cx="5.8" cy="36.5" r="1.1"/>
	</g>
	<g>
		<circle fill="#F7910B" cx="8.8" cy="32.5" r="0.2"/>
	</g>
	<g>
		<circle fill="#F7910B" cx="13.4" cy="34.3" r="0.2"/>
	</g>
	<g>
		<circle fill="#F9A908" cx="52.6" cy="34.8" r="0.8"/>
	</g>
	<g>
		<circle fill="#F9A908" cx="55.1" cy="36.2" r="0.2"/>
	</g>
	<g>
		<circle fill="#F9A908" cx="49.8" cy="27.4" r="0.3"/>
	</g>
	<g>
		<circle fill="#F9A908" cx="49.3" cy="39" r="1.3"/>
	</g>
	<g>
		<circle fill="#F9A908" cx="56.5" cy="39.1" r="0.6"/>
	</g>
	<g>
		<circle fill="#F7910B" cx="9.3" cy="38.5" r="0.5"/>
	</g>
	<g>
		<circle fill="#F7910B" cx="10.1" cy="30.1" r="0.4"/>
	</g>
	<g>
		<circle fill="#F9A908" cx="4.8" cy="16.3" r="1.1"/>
	</g>
	<g>
		<circle fill="#F9A908" cx="8" cy="12.8" r="0.6"/>
	</g>
	<g>
		<circle fill="#F9A908" cx="59.2" cy="18.7" r="0.2"/>
	</g>
	<g>
		<circle fill="#F9A908" cx="58.4" cy="15.8" r="0.8"/>
	</g>
	<g>
		<circle fill="#F9A908" cx="61" cy="16.3" r="0.5"/>
	</g>
	<g>
		<circle fill="#F9A908" cx="6" cy="19.3" r="0.6"/>
	</g>
	<g>
		<path fill="#F7910B" d="M39.2,45.1c0,2.6-3.3,9.9-7.4,9.9s-7.4-7.3-7.4-9.9"/>
	</g>
	<g>
		<g>
			<path fill="#C42260" d="M46.8,30.3c0,9.1-6.6,16.5-14.8,16.5c-8.2,0-14.8-7.4-14.8-16.5"/>
		</g>
		<g>
			<path fill="#99144A" d="M46.8,30.3c0,3.1-6.6,5.6-14.8,5.6c-8.2,0-14.8-2.5-14.8-5.6"/>
		</g>
		<g>
			<path fill="#E2446E" d="M32,46.9c4.6,0,8.6-2.3,11.3-5.9c-1.7-2.1-4.1-3.4-6.8-3.4c-1.6,0-3.2,0.5-4.5,1.3
				c-1.3-0.9-2.9-1.3-4.5-1.3c-2.7,0-5.1,1.3-6.8,3.4C23.4,44.5,27.4,46.9,32,46.9z"/>
		</g>
	</g>
	<g>
		<g>
			<g>
				<g>
					<g>
						<g>
							<path fill="#D81665" d="M39.4,13.7c1.8,0.5,3,1.9,3.2,3.5c0,0.2,0.2,0.3,0.3,0.3c0.2,0.1,0.4,0.1,0.4-0.1
								c1-1.3,2.8-1.9,4.5-1.4c2.2,0.6,3.6,2.7,3.1,4.7c-0.2,0.7-0.6,1.3-1.2,1.8l0,0c0,0,0,0,0,0l-10,6.8l-5.1-11c0,0,0,0,0,0
								c0,0,0,0,0,0c-0.3-0.7-0.3-1.5-0.1-2.2C34.9,14.1,37.1,13.1,39.4,13.7z"/>
						</g>
					</g>
				</g>
				<g>
					<g>
						<path fill="#B20B5F" d="M42.9,17.5c0.2,0.1,0.4,0.1,0.4-0.1c1-1.3,2.8-1.9,4.5-1.4c2.2,0.6,3.6,2.7,3.1,4.7
							c-0.2,0.7-0.6,1.3-1.2,1.8l0,0c0,0,0,0,0,0l-10,6.8"/>
					</g>
				</g>
			</g>
		</g>
		<g>
			<g>
				<g>
					<g>
						<g>
							<path fill="#D81665" d="M29.6,16.1c0.2,0.7,0.2,1.5-0.1,2.2c0,0,0,0,0,0c0,0,0,0,0,0l-5.1,11l-10-6.8c0,0,0,0,0,0l0,0
								c-0.6-0.5-1-1.1-1.2-1.8c-0.5-2,0.8-4.1,3.1-4.7c1.8-0.5,3.6,0.1,4.5,1.4c0.1,0.1,0.3,0.2,0.4,0.1c0.2,0,0.3-0.1,0.3-0.3
								c0.1-1.6,1.4-3,3.2-3.5C26.9,13.1,29.1,14.1,29.6,16.1z"/>
						</g>
					</g>
				</g>
				<g>
					<g>
						<path fill="#B20B5F" d="M24.4,29.4l-10-6.8c0,0,0,0,0,0l0,0c-0.6-0.5-1-1.1-1.2-1.8c-0.5-2,0.8-4.1,3.1-4.7
							c1.8-0.5,3.6,0.1,4.5,1.4c0.1,0.1,0.3,0.2,0.4,0.1"/>
					</g>
				</g>
			</g>
		</g>
	</g>
</g>
</svg>
