<?xml version="1.0" encoding="utf-8"?>
<!-- Generator: Adobe Illustrator 16.0.0, SVG Export Plug-In . SVG Version: 6.00 Build 0)  -->
<!DOCTYPE svg PUBLIC "-//W3C//DTD SVG 1.1//EN" "http://www.w3.org/Graphics/SVG/1.1/DTD/svg11.dtd">
<svg version="1.1" id="Layer_1" xmlns="http://www.w3.org/2000/svg" xmlns:xlink="http://www.w3.org/1999/xlink" x="0px" y="0px"
	 width="64px" height="64px" viewBox="0 0 64 64" enable-background="new 0 0 64 64" xml:space="preserve">
<g>
	<g>
		<path fill="#61CCF2" d="M58.3,45.4l-4.9-2.8l2.7-0.7c0.8-0.2,1.2-1,1-1.8s-1-1.2-1.8-1l-5.5,1.5c0,0,0,0,0,0l-2.5-1.5V24.9
			l2.5-1.5c0,0,0,0,0,0l5.5,1.5c0.1,0,0.3,0,0.4,0c0.6,0,1.2-0.4,1.4-1.1c0.2-0.8-0.2-1.6-1-1.8l-2.7-0.7l4.9-2.8
			c0.7-0.4,0.9-1.3,0.5-2c-0.4-0.7-1.3-0.9-2-0.5l-4.9,2.8l0.7-2.7c0.2-0.8-0.2-1.6-1-1.8c-0.8-0.2-1.6,0.3-1.8,1l-1.5,5.5
			c0,0,0,0,0,0l-2.5,1.4l-12.4-7.1v-2.9c0,0,0,0,0,0l4-4c0.6-0.6,0.6-1.5,0-2.1c-0.6-0.6-1.5-0.6-2.1,0l-2,2V2.5
			c0-0.8-0.7-1.5-1.5-1.5s-1.5,0.7-1.5,1.5v5.7l-2-2c-0.6-0.6-1.5-0.6-2.1,0c-0.6,0.6-0.6,1.5,0,2.1l4,4c0,0,0,0,0,0v2.9l-12.4,7.1
			l-2.5-1.4c0,0,0,0,0,0l-1.5-5.5c-0.2-0.8-1-1.2-1.8-1c-0.8,0.2-1.2,1-1,1.8l0.7,2.7l-4.9-2.8c-0.7-0.4-1.6-0.2-2,0.5
			c-0.4,0.7-0.2,1.6,0.5,2l4.9,2.8L8,22.1c-0.8,0.2-1.2,1-1,1.8C7.1,24.6,7.7,25,8.4,25c0.1,0,0.3,0,0.4,0l5.5-1.5c0,0,0,0,0,0
			l2.5,1.5v14.2l-2.5,1.5c0,0,0,0,0,0L8.7,39c-0.8-0.2-1.6,0.2-1.8,1c-0.2,0.8,0.2,1.6,1,1.8l2.7,0.7l-4.9,2.8
			c-0.7,0.4-0.9,1.3-0.5,2c0.3,0.5,0.8,0.7,1.3,0.7c0.2,0,0.5-0.1,0.7-0.2l4.9-2.8l-0.7,2.7c-0.2,0.8,0.2,1.6,1,1.8
			c0.1,0,0.3,0,0.4,0c0.6,0,1.2-0.4,1.4-1.1l1.5-5.5c0,0,0,0,0,0l2.5-1.4l12.4,7.1v2.9c0,0,0,0,0,0l-4,4c-0.6,0.6-0.6,1.5,0,2.1
			c0.3,0.3,0.7,0.4,1,0.4c0.4,0,0.7-0.1,1-0.4l2-2v5.7c0,0.8,0.7,1.5,1.5,1.5s1.5-0.7,1.5-1.5v-5.7l2,2c0.3,0.3,0.7,0.4,1,0.4
			c0.4,0,0.7-0.1,1-0.4c0.6-0.6,0.6-1.5,0-2.1l-4-4c0,0,0,0,0,0v-2.9l12.4-7.1l2.5,1.4c0,0,0,0,0,0l1.5,5.5c0.2,0.6,0.8,1.1,1.4,1.1
			c0.1,0,0.3,0,0.4,0c0.8-0.2,1.2-1,1-1.8l-0.7-2.7l4.9,2.8c0.2,0.1,0.5,0.2,0.7,0.2c0.5,0,1-0.3,1.3-0.7
			C59.2,46.7,59,45.8,58.3,45.4z M44.3,37.4L34.9,32l9.4-5.4V37.4z M42.9,24.1l-9.4,5.4V18.6L42.9,24.1z M30.5,18.6v10.9l-9.4-5.4
			L30.5,18.6z M19.7,26.6l9.4,5.4l-9.4,5.4V26.6z M21.1,39.9l9.4-5.4v10.9L21.1,39.9z M33.5,45.4V34.5l9.4,5.4L33.5,45.4z"/>
	</g>
	<path fill="#21B3F4" d="M58.3,45.4l-4.9-2.8l2.7-0.7c0.8-0.2,1.2-1,1-1.8s-1-1.2-1.8-1l-5.5,1.5c0,0,0,0,0,0l-2.5-1.5V24.9l2.5-1.5
		c0,0,0,0,0,0l5.5,1.5c0.1,0,0.3,0,0.4,0c0.6,0,1.2-0.4,1.4-1.1c0.2-0.8-0.2-1.6-1-1.8l-2.7-0.7l4.9-2.8c0.7-0.4,0.9-1.3,0.5-2
		c-0.4-0.7-1.3-0.9-2-0.5l-4.9,2.8l0.7-2.7c0.2-0.8-0.2-1.6-1-1.8c-0.8-0.2-1.6,0.3-1.8,1l-1.5,5.5c0,0,0,0,0,0l-2.5,1.4l-12.4-7.1
		v-2.9c0,0,0,0,0,0l4-4c0.6-0.6,0.6-1.5,0-2.1c-0.6-0.6-1.5-0.6-2.1,0l-2,2V2.5c0-0.8-0.7-1.5-1.5-1.5c0,0-0.1,0-0.1,0v61.8
		c0,0,0.1,0,0.1,0c0.8,0,1.5-0.7,1.5-1.5v-5.7l2,2c0.3,0.3,0.7,0.4,1,0.4c0.4,0,0.7-0.1,1-0.4c0.6-0.6,0.6-1.5,0-2.1l-4-4
		c0,0,0,0,0,0v-2.9l12.4-7.1l2.5,1.4c0,0,0,0,0,0l1.5,5.5c0.2,0.6,0.8,1.1,1.4,1.1c0.1,0,0.3,0,0.4,0c0.8-0.2,1.2-1,1-1.8l-0.7-2.7
		l4.9,2.8c0.2,0.1,0.5,0.2,0.7,0.2c0.5,0,1-0.3,1.3-0.7C59.2,46.7,59,45.8,58.3,45.4z M33.5,18.6l9.4,5.5l-9.4,5.4V18.6z M33.5,45.4
		V34.5l9.4,5.4L33.5,45.4z M44.3,37.4L34.9,32l9.4-5.4V37.4z"/>
</g>
</svg>
