<?xml version="1.0" encoding="utf-8"?>
<!-- Generator: Adobe Illustrator 16.0.0, SVG Export Plug-In . SVG Version: 6.00 Build 0)  -->
<!DOCTYPE svg PUBLIC "-//W3C//DTD SVG 1.1//EN" "http://www.w3.org/Graphics/SVG/1.1/DTD/svg11.dtd">
<svg version="1.1" id="Layer_1" xmlns="http://www.w3.org/2000/svg" xmlns:xlink="http://www.w3.org/1999/xlink" x="0px" y="0px"
	 width="64px" height="64px" viewBox="0 0 64 64" enable-background="new 0 0 64 64" xml:space="preserve">
<g>
	<g>
		<path fill="#FFC3A9" d="M59.2,38.9C59.2,54,47,60,31.9,60c-15,0-27.2-6-27.2-21.1c0-15,12.2-27.2,27.2-27.2
			C47,11.7,59.2,23.9,59.2,38.9z"/>
		<path fill="#F2AF97" d="M32.1,11.7c15,0,27.2,12.2,27.2,27.2C59.3,54,47.1,60,32.1,60"/>
		<g>
			<g>
				<g>
					<g>
						<g>
							<path fill="#00233F" d="M21.2,29.7c-1.8,0.1-3.2,0.9-3.1,1.8l6.5-0.4C24.5,30.2,23,29.6,21.2,29.7z"/>
						</g>
					</g>
					<g>
						<g>
							<path fill="#00233F" d="M42.6,29.7c1.8,0.1,3.2,0.9,3.1,1.8L39.3,31C39.3,30.2,40.8,29.6,42.6,29.7z"/>
						</g>
					</g>
				</g>
				<path fill="#FCD4C5" d="M20.1,44c-4.3,0-7.7,1-7.7,2.2c0,1.2,3.5,0.6,7.7,0.6c4.3,0,7.7,0.6,7.7-0.6C27.8,45,24.3,44,20.1,44z"
					/>
				<path fill="#FCD4C5" d="M43.8,44c-4.3,0-7.7,1-7.7,2.2c0,1.2,3.5,0.6,7.7,0.6c4.3,0,7.7,0.6,7.7-0.6C51.6,45,48.1,44,43.8,44z"
					/>
				<g>
					<path fill="#E59177" d="M25,42.4c0,1.7-1.4,3.2-3.2,3.2c-1.7,0-3.2-1.4-3.2-3.2c0-1.7,1.4-3.2,3.2-3.2
						C23.6,39.3,25,40.7,25,42.4z"/>
					<path fill="#E59177" d="M45.6,42.4c0,1.7-1.4,3.2-3.2,3.2c-1.7,0-3.2-1.4-3.2-3.2c0-1.7,1.4-3.2,3.2-3.2
						C44.2,39.3,45.6,40.7,45.6,42.4z"/>
					<path fill="#1E4784" d="M25,41.5c0,1.7-1.4,3.2-3.2,3.2c-1.7,0-3.2-1.4-3.2-3.2c0-1.7,1.4-3.2,3.2-3.2
						C23.6,38.4,25,39.8,25,41.5z"/>
					<path fill="#00233F" d="M21.8,38.4c1.8,0,3.2,1.4,3.2,3.2c0,1.7-1.4,3.2-3.2,3.2"/>
					<path fill="#1E4784" d="M45.6,41.5c0,1.7-1.4,3.2-3.2,3.2c-1.7,0-3.2-1.4-3.2-3.2c0-1.7,1.4-3.2,3.2-3.2
						C44.2,38.4,45.6,39.8,45.6,41.5z"/>
					<path fill="#00233F" d="M42.4,38.4c1.8,0,3.2,1.4,3.2,3.2c0,1.7-1.4,3.2-3.2,3.2"/>
				</g>
			</g>
		</g>
		<g>
			<path fill="#1E4784" d="M42.2,14c0,2.2-4.6,2-10.3,2c-5.7,0-10.3,0.3-10.3-2c0-2.2,4.6-4,10.3-4C37.6,10,42.2,11.8,42.2,14z"/>
			<path fill="#00233F" d="M42.2,14c0,2.2-4.6,2-10.3,2c-5.7,0-10.3,0.3-10.3-2"/>
			<path fill="#1E4784" d="M35.3,10.2c-3.1-0.4-5.3-2.8-5-5.2c0-0.4,0.2-0.7,0.3-1c-1.3,0.6-2.4,1.9-2.6,3.4
				c-0.3,2.4,1.4,4.6,3.8,4.9c1.8,0.2,3.5-0.6,4.3-2.1C35.8,10.3,35.5,10.3,35.3,10.2z"/>
		</g>
		<path fill="#A51339" d="M39.5,49.3c0,1.6-3.4,5.8-7.6,5.8s-7.6-4.2-7.6-5.8c0-1.6,3.4-0.9,7.6-0.9S39.5,47.7,39.5,49.3z"/>
		<path fill="#6B0525" d="M24.4,49.3c0-1.6,3.4-0.9,7.6-0.9s7.6-0.7,7.6,0.9"/>
	</g>
	<g>
		<ellipse fill="#FFC3A9" cx="6.1" cy="31.3" rx="5.6" ry="5.5"/>
		<ellipse fill="#F2AF97" cx="57.9" cy="31.3" rx="5.6" ry="5.5"/>
	</g>
</g>
</svg>
