<?xml version="1.0" encoding="utf-8"?>
<!-- Generator: Adobe Illustrator 16.0.0, SVG Export Plug-In . SVG Version: 6.00 Build 0)  -->
<!DOCTYPE svg PUBLIC "-//W3C//DTD SVG 1.1//EN" "http://www.w3.org/Graphics/SVG/1.1/DTD/svg11.dtd">
<svg version="1.1" xmlns="http://www.w3.org/2000/svg" xmlns:xlink="http://www.w3.org/1999/xlink" x="0px" y="0px" width="65px"
	 height="65px" viewBox="0 0 65 65" enable-background="new 0 0 65 65" xml:space="preserve">
<g id="Layer_1">
	<g>
		<g>
			<g>
				<path fill="#7DA81D" d="M32.569,12.176c-7.527,2.643-13.232,14.537-13.232,20.215c0,5.679,5.705,5.279,13.232,6.285V12.176z"/>
				<path fill="#469315" d="M32.439,12.176c7.528,2.643,13.225,14.537,13.225,20.215c0,5.679-5.703,5.279-13.225,6.285V12.176z"/>
			</g>
			<g>
				<g>
					<path fill="#825E40" d="M32.499,51.201c-0.937,0-1.695-0.757-1.695-1.693V31.846c0-0.938,0.759-1.697,1.695-1.697
						c0.938,0,1.696,0.76,1.696,1.697v17.662C34.195,50.444,33.436,51.201,32.499,51.201z"/>
				</g>
				<g>
					<path fill="#BA8660" d="M38.435,51.626H26.566c-0.469,0-0.848-0.378-0.848-0.847c0-0.471,0.379-0.85,0.848-0.85h11.869
						c0.468,0,0.848,0.379,0.848,0.85C39.283,51.248,38.903,51.626,38.435,51.626z"/>
				</g>
				<g>
					<g>
						<path fill="#BA8660" d="M31.17,54.594h-3.911c-0.469,0-0.848-0.379-0.848-0.846c0-0.472,0.379-0.85,0.848-0.85h3.911
							c0.47,0,0.849,0.378,0.849,0.85C32.019,54.215,31.64,54.594,31.17,54.594z"/>
					</g>
					<g>
						<path fill="#BA8660" d="M37.742,54.594H33.83c-0.468,0-0.848-0.379-0.848-0.846c0-0.472,0.38-0.85,0.848-0.85h3.912
							c0.469,0,0.848,0.378,0.848,0.85C38.589,54.215,38.21,54.594,37.742,54.594z"/>
					</g>
				</g>
			</g>
			<g>
				<path fill="#825E40" d="M33.016,36.344l-3.678-3.68c-0.31-0.311-0.811-0.312-1.123-0.001c-0.31,0.31-0.309,0.812,0,1.122
					l3.681,3.68L33.016,36.344z"/>
				<path fill="#825E40" d="M31.984,36.344l3.679-3.68c0.31-0.311,0.812-0.312,1.122-0.001c0.311,0.31,0.31,0.812,0,1.122
					l-3.681,3.68L31.984,36.344z"/>
			</g>
			<path fill="#A3CC32" d="M29.737,31.51c0-1.472,1.194-2.666,2.666-2.666c1.474,0,2.666,1.194,2.666,2.666"/>
			<path fill="#A3CC32" d="M23.945,25.719c0-0.943,0.766-1.708,1.708-1.708c0.943,0,1.707,0.765,1.707,1.708"/>
			<path fill="#A3CC32" d="M23.362,31.803c0-0.943,0.766-1.708,1.707-1.708c0.944,0,1.709,0.765,1.709,1.708"/>
			<path fill="#A3CC32" d="M31.028,21.863c0-0.691,0.561-1.25,1.25-1.25s1.25,0.559,1.25,1.25"/>
			<path fill="#A3CC32" d="M35.778,22.695c0-0.943,0.766-1.708,1.707-1.708c0.944,0,1.709,0.765,1.709,1.708"/>
			<path fill="#A3CC32" d="M38.945,34.861c0-0.943,0.766-1.708,1.708-1.708c0.943,0,1.707,0.765,1.707,1.708"/>
			<path fill="#A3CC32" d="M30.862,17.447c0-0.943,0.766-1.708,1.707-1.708c0.944,0,1.709,0.765,1.709,1.708"/>
			<path fill="#A3CC32" d="M38.133,26.53c0-0.609,0.495-1.104,1.104-1.104c0.609,0,1.103,0.494,1.103,1.104"/>
			<path fill="#A3CC32" d="M29.549,26.947c0-0.609,0.495-1.104,1.104-1.104c0.609,0,1.102,0.494,1.102,1.104"/>
			<path fill="#A3CC32" d="M24.217,35.362c0-0.609,0.495-1.104,1.104-1.104c0.609,0,1.103,0.494,1.103,1.104"/>
			<path fill="#A3CC32" d="M38.799,30.061c0-0.609,0.496-1.104,1.104-1.104c0.61,0,1.104,0.494,1.104,1.104"/>
			<path fill="#A3CC32" d="M27.215,20.531c0-0.609,0.496-1.104,1.104-1.104c0.61,0,1.104,0.494,1.104,1.104"/>
		</g>
		<g>
			<g>
				<g>
					<g>
						<path fill="#7DA81D" d="M10.661,13.426c-2.043,0.717-3.592,3.945-3.592,5.486s1.549,1.433,3.592,1.705V13.426z"/>
						<path fill="#469315" d="M10.625,13.426c2.043,0.717,3.59,3.945,3.59,5.486s-1.549,1.433-3.59,1.705V13.426z"/>
					</g>
					<g>
						<g>
							<path fill="#825E40" d="M10.641,24.018c-0.254,0-0.459-0.206-0.459-0.461v-4.793c0-0.254,0.205-0.461,0.459-0.461
								c0.255,0,0.459,0.207,0.459,0.461v4.793C11.1,23.812,10.896,24.018,10.641,24.018z"/>
						</g>
						<g>
							<path fill="#BA8660" d="M12.252,24.132H9.032c-0.127,0-0.23-0.103-0.23-0.229c0-0.128,0.104-0.23,0.23-0.23h3.221
								c0.127,0,0.23,0.103,0.23,0.23C12.483,24.029,12.379,24.132,12.252,24.132z"/>
						</g>
						<g>
							<g>
								<path fill="#BA8660" d="M10.282,24.938H9.219c-0.127,0-0.229-0.103-0.229-0.229c0-0.129,0.103-0.231,0.229-0.231h1.062
									c0.127,0,0.229,0.103,0.229,0.231C10.511,24.835,10.409,24.938,10.282,24.938z"/>
							</g>
							<g>
								<path fill="#BA8660" d="M12.065,24.938h-1.062c-0.127,0-0.229-0.103-0.229-0.229c0-0.129,0.103-0.231,0.229-0.231h1.062
									c0.127,0,0.229,0.103,0.229,0.231C12.294,24.835,12.192,24.938,12.065,24.938z"/>
							</g>
						</g>
					</g>
					<g>
						<path fill="#825E40" d="M10.782,19.984l-0.998-0.998c-0.083-0.085-0.22-0.085-0.304,0c-0.085,0.084-0.085,0.221,0,0.305
							l0.998,0.998L10.782,19.984z"/>
						<path fill="#825E40" d="M10.501,19.984l0.999-0.998c0.084-0.085,0.219-0.085,0.303,0c0.086,0.084,0.086,0.221,0,0.305
							l-0.997,0.998L10.501,19.984z"/>
					</g>
				</g>
				<g>
					<g>
						<g>
							<path fill="#7DA81D" d="M4.925,0.926C2.882,1.643,1.333,4.871,1.333,6.412s1.549,1.433,3.592,1.705V0.926z"/>
							<path fill="#469315" d="M4.89,0.926c2.042,0.717,3.59,3.945,3.59,5.486S6.931,7.845,4.89,8.117V0.926z"/>
						</g>
						<g>
							<g>
								<path fill="#825E40" d="M4.906,11.518c-0.253,0-0.459-0.206-0.459-0.461V6.264c0-0.254,0.206-0.461,0.459-0.461
									c0.255,0,0.46,0.207,0.46,0.461v4.793C5.366,11.312,5.161,11.518,4.906,11.518z"/>
							</g>
							<g>
								<path fill="#BA8660" d="M6.516,11.632h-3.22c-0.127,0-0.23-0.103-0.23-0.229c0-0.128,0.104-0.23,0.23-0.23h3.22
									c0.128,0,0.231,0.103,0.231,0.23C6.748,11.529,6.644,11.632,6.516,11.632z"/>
							</g>
							<g>
								<g>
									<path fill="#BA8660" d="M4.546,12.438H3.484c-0.127,0-0.229-0.103-0.229-0.229c0-0.129,0.103-0.231,0.229-0.231h1.062
										c0.127,0,0.229,0.103,0.229,0.231C4.776,12.335,4.673,12.438,4.546,12.438z"/>
								</g>
								<g>
									<path fill="#BA8660" d="M6.33,12.438H5.267c-0.127,0-0.229-0.103-0.229-0.229c0-0.129,0.103-0.231,0.229-0.231H6.33
										c0.127,0,0.229,0.103,0.229,0.231C6.559,12.335,6.457,12.438,6.33,12.438z"/>
								</g>
							</g>
						</g>
						<g>
							<path fill="#825E40" d="M5.046,7.484L4.048,6.486c-0.083-0.085-0.22-0.085-0.304,0c-0.085,0.084-0.085,0.221,0,0.305
								l0.998,0.998L5.046,7.484z"/>
							<path fill="#825E40" d="M4.766,7.484l0.999-0.998c0.084-0.085,0.219-0.085,0.304,0c0.084,0.084,0.084,0.221,0,0.305
								L5.071,7.789L4.766,7.484z"/>
						</g>
					</g>
					<g>
						<g>
							<path fill="#7DA81D" d="M16.396,0.926c-2.044,0.717-3.593,3.945-3.593,5.486s1.549,1.433,3.593,1.705V0.926z"/>
							<path fill="#469315" d="M16.362,0.926c2.041,0.717,3.588,3.945,3.588,5.486s-1.547,1.433-3.588,1.705V0.926z"/>
						</g>
						<g>
							<g>
								<path fill="#825E40" d="M16.376,11.518c-0.254,0-0.459-0.206-0.459-0.461V6.264c0-0.254,0.205-0.461,0.459-0.461
									c0.255,0,0.46,0.207,0.46,0.461v4.793C16.836,11.312,16.631,11.518,16.376,11.518z"/>
							</g>
							<g>
								<path fill="#BA8660" d="M17.987,11.632h-3.22c-0.127,0-0.23-0.103-0.23-0.229c0-0.128,0.104-0.23,0.23-0.23h3.22
									c0.128,0,0.231,0.103,0.231,0.23C18.218,11.529,18.115,11.632,17.987,11.632z"/>
							</g>
							<g>
								<g>
									<path fill="#BA8660" d="M16.016,12.438h-1.062c-0.126,0-0.229-0.103-0.229-0.229c0-0.129,0.103-0.231,0.229-0.231h1.062
										c0.128,0,0.23,0.103,0.23,0.231C16.247,12.335,16.144,12.438,16.016,12.438z"/>
								</g>
								<g>
									<path fill="#BA8660" d="M17.799,12.438h-1.062c-0.125,0-0.229-0.103-0.229-0.229c0-0.129,0.104-0.231,0.229-0.231h1.062
										c0.128,0,0.23,0.103,0.23,0.231C18.03,12.335,17.927,12.438,17.799,12.438z"/>
								</g>
							</g>
						</g>
						<g>
							<path fill="#825E40" d="M16.516,7.484l-0.997-0.998c-0.083-0.085-0.22-0.085-0.304,0c-0.085,0.084-0.085,0.221,0,0.305
								l0.998,0.998L16.516,7.484z"/>
							<path fill="#825E40" d="M16.237,7.484l1-0.998c0.084-0.085,0.217-0.085,0.303,0c0.085,0.084,0.085,0.221,0,0.305
								l-0.998,0.998L16.237,7.484z"/>
						</g>
					</g>
				</g>
			</g>
			<g>
				<g>
					<g>
						<path fill="#7DA81D" d="M54.377,13.426c-2.043,0.717-3.592,3.945-3.592,5.486s1.549,1.433,3.592,1.705V13.426z"/>
						<path fill="#469315" d="M54.342,13.426c2.043,0.717,3.59,3.945,3.59,5.486s-1.549,1.433-3.59,1.705V13.426z"/>
					</g>
					<g>
						<g>
							<path fill="#825E40" d="M54.358,24.018c-0.254,0-0.459-0.206-0.459-0.461v-4.793c0-0.254,0.205-0.461,0.459-0.461
								c0.255,0,0.461,0.207,0.461,0.461v4.793C54.819,23.812,54.613,24.018,54.358,24.018z"/>
						</g>
						<g>
							<path fill="#BA8660" d="M55.969,24.132h-3.221c-0.127,0-0.23-0.103-0.23-0.229c0-0.128,0.104-0.23,0.23-0.23h3.221
								c0.127,0,0.23,0.103,0.23,0.23C56.2,24.029,56.096,24.132,55.969,24.132z"/>
						</g>
						<g>
							<g>
								<path fill="#BA8660" d="M53.999,24.938h-1.062c-0.127,0-0.229-0.103-0.229-0.229c0-0.129,0.103-0.231,0.229-0.231h1.062
									c0.127,0,0.229,0.103,0.229,0.231C54.228,24.835,54.125,24.938,53.999,24.938z"/>
							</g>
							<g>
								<path fill="#BA8660" d="M55.782,24.938h-1.062c-0.127,0-0.229-0.103-0.229-0.229c0-0.129,0.103-0.231,0.229-0.231h1.062
									c0.127,0,0.229,0.103,0.229,0.231C56.011,24.835,55.909,24.938,55.782,24.938z"/>
							</g>
						</g>
					</g>
					<g>
						<path fill="#825E40" d="M54.499,19.984L53.5,18.986c-0.083-0.085-0.22-0.085-0.304,0c-0.085,0.084-0.085,0.221,0,0.305
							l0.998,0.998L54.499,19.984z"/>
						<path fill="#825E40" d="M54.218,19.984l0.999-0.998c0.084-0.085,0.219-0.085,0.303,0c0.086,0.084,0.086,0.221,0,0.305
							l-0.997,0.998L54.218,19.984z"/>
					</g>
				</g>
				<g>
					<g>
						<g>
							<path fill="#7DA81D" d="M48.642,0.926c-2.043,0.717-3.592,3.945-3.592,5.486s1.549,1.433,3.592,1.705V0.926z"/>
							<path fill="#469315" d="M48.607,0.926c2.043,0.717,3.59,3.945,3.59,5.486s-1.549,1.433-3.59,1.705V0.926z"/>
						</g>
						<g>
							<g>
								<path fill="#825E40" d="M48.623,11.518c-0.254,0-0.459-0.206-0.459-0.461V6.264c0-0.254,0.205-0.461,0.459-0.461
									c0.255,0,0.46,0.207,0.46,0.461v4.793C49.083,11.312,48.877,11.518,48.623,11.518z"/>
							</g>
							<g>
								<path fill="#BA8660" d="M50.234,11.632h-3.221c-0.127,0-0.23-0.103-0.23-0.229c0-0.128,0.104-0.23,0.23-0.23h3.221
									c0.128,0,0.23,0.103,0.23,0.23C50.464,11.529,50.362,11.632,50.234,11.632z"/>
							</g>
							<g>
								<g>
									<path fill="#BA8660" d="M48.263,12.438h-1.062c-0.127,0-0.229-0.103-0.229-0.229c0-0.129,0.103-0.231,0.229-0.231h1.062
										c0.127,0,0.229,0.103,0.229,0.231C48.493,12.335,48.39,12.438,48.263,12.438z"/>
								</g>
								<g>
									<path fill="#BA8660" d="M50.046,12.438h-1.062c-0.127,0-0.229-0.103-0.229-0.229c0-0.129,0.103-0.231,0.229-0.231h1.062
										c0.127,0,0.229,0.103,0.229,0.231C50.276,12.335,50.173,12.438,50.046,12.438z"/>
								</g>
							</g>
						</g>
						<g>
							<path fill="#825E40" d="M48.763,7.484l-0.998-0.998c-0.083-0.085-0.22-0.085-0.304,0c-0.085,0.084-0.085,0.221,0,0.305
								l0.998,0.998L48.763,7.484z"/>
							<path fill="#825E40" d="M48.483,7.484l0.999-0.998c0.084-0.085,0.219-0.085,0.304,0c0.084,0.084,0.084,0.221,0,0.305
								l-0.998,0.998L48.483,7.484z"/>
						</g>
					</g>
					<g>
						<g>
							<path fill="#7DA81D" d="M60.113,0.926c-2.042,0.717-3.593,3.945-3.593,5.486s1.551,1.433,3.593,1.705V0.926z"/>
							<path fill="#469315" d="M60.078,0.926c2.042,0.717,3.589,3.945,3.589,5.486s-1.549,1.433-3.589,1.705V0.926z"/>
						</g>
						<g>
							<g>
								<path fill="#825E40" d="M60.093,11.518c-0.254,0-0.459-0.206-0.459-0.461V6.264c0-0.254,0.205-0.461,0.459-0.461
									c0.255,0,0.46,0.207,0.46,0.461v4.793C60.553,11.312,60.348,11.518,60.093,11.518z"/>
							</g>
							<g>
								<path fill="#BA8660" d="M61.704,11.632h-3.22c-0.127,0-0.23-0.103-0.23-0.229c0-0.128,0.104-0.23,0.23-0.23h3.22
									c0.128,0,0.231,0.103,0.231,0.23C61.935,11.529,61.832,11.632,61.704,11.632z"/>
							</g>
							<g>
								<g>
									<path fill="#BA8660" d="M59.734,12.438H58.67c-0.126,0-0.229-0.103-0.229-0.229c0-0.129,0.103-0.231,0.229-0.231h1.063
										c0.128,0,0.229,0.103,0.229,0.231C59.963,12.335,59.862,12.438,59.734,12.438z"/>
								</g>
								<g>
									<path fill="#BA8660" d="M61.516,12.438h-1.062c-0.126,0-0.229-0.103-0.229-0.229c0-0.129,0.103-0.231,0.229-0.231h1.062
										c0.128,0,0.23,0.103,0.23,0.231C61.747,12.335,61.644,12.438,61.516,12.438z"/>
								</g>
							</g>
						</g>
						<g>
							<path fill="#825E40" d="M60.234,7.484l-0.997-0.998c-0.084-0.085-0.221-0.085-0.305,0c-0.085,0.084-0.085,0.221,0,0.305
								l0.998,0.998L60.234,7.484z"/>
							<path fill="#825E40" d="M59.954,7.484l0.999-0.998c0.084-0.085,0.218-0.085,0.304,0c0.085,0.084,0.085,0.221,0,0.305
								l-0.998,0.998L59.954,7.484z"/>
						</g>
					</g>
				</g>
			</g>
		</g>
		<g>
			<g>
				<g>
					<g>
						<g>
							<path fill="#7DA81D" d="M11.019,41.229c-2.043,0.717-3.592,3.945-3.592,5.486s1.549,1.433,3.592,1.705V41.229z"/>
							<path fill="#469315" d="M10.984,41.229c2.044,0.717,3.59,3.945,3.59,5.486s-1.549,1.433-3.59,1.705V41.229z"/>
						</g>
						<g>
							<g>
								<path fill="#825E40" d="M10.999,51.821c-0.253,0-0.458-0.206-0.458-0.461v-4.793c0-0.254,0.205-0.461,0.458-0.461
									c0.256,0,0.461,0.207,0.461,0.461v4.793C11.459,51.615,11.254,51.821,10.999,51.821z"/>
							</g>
							<g>
								<path fill="#BA8660" d="M12.612,51.936H9.39c-0.127,0-0.23-0.102-0.23-0.229c0-0.129,0.104-0.231,0.23-0.231h3.222
									c0.125,0,0.229,0.103,0.229,0.231C12.841,51.834,12.737,51.936,12.612,51.936z"/>
							</g>
							<g>
								<g>
									<path fill="#BA8660" d="M10.64,52.741H9.578c-0.128,0-0.229-0.103-0.229-0.229c0-0.128,0.102-0.23,0.229-0.23h1.062
										c0.127,0,0.229,0.103,0.229,0.23C10.87,52.639,10.767,52.741,10.64,52.741z"/>
								</g>
								<g>
									<path fill="#BA8660" d="M12.423,52.741h-1.062c-0.128,0-0.23-0.103-0.23-0.229c0-0.128,0.103-0.23,0.23-0.23h1.062
										c0.127,0,0.229,0.103,0.229,0.23C12.653,52.639,12.55,52.741,12.423,52.741z"/>
								</g>
							</g>
						</g>
						<g>
							<path fill="#825E40" d="M11.14,47.788l-0.998-0.997c-0.083-0.086-0.22-0.086-0.304,0c-0.085,0.084-0.085,0.22,0,0.303
								l0.998,0.999L11.14,47.788z"/>
							<path fill="#825E40" d="M10.86,47.788l0.999-0.997c0.085-0.086,0.219-0.086,0.304,0c0.085,0.084,0.085,0.22,0,0.303
								l-0.998,0.999L10.86,47.788z"/>
						</g>
					</g>
					<g>
						<g>
							<g>
								<path fill="#7DA81D" d="M5.284,52.562c-2.043,0.717-3.592,3.945-3.592,5.486s1.549,1.433,3.592,1.705V52.562z"/>
								<path fill="#469315" d="M5.249,52.562c2.043,0.717,3.59,3.945,3.59,5.486s-1.549,1.433-3.59,1.705V52.562z"/>
							</g>
							<g>
								<g>
									<path fill="#825E40" d="M5.264,63.154c-0.254,0-0.459-0.206-0.459-0.461V57.9c0-0.254,0.205-0.461,0.459-0.461
										c0.255,0,0.46,0.207,0.46,0.461v4.793C5.724,62.948,5.519,63.154,5.264,63.154z"/>
								</g>
								<g>
									<path fill="#BA8660" d="M6.875,63.269H3.655c-0.127,0-0.23-0.103-0.23-0.229c0-0.128,0.104-0.23,0.23-0.23h3.221
										c0.127,0,0.23,0.103,0.23,0.23C7.106,63.166,7.002,63.269,6.875,63.269z"/>
								</g>
								<g>
									<g>
										<path fill="#BA8660" d="M4.905,64.074H3.842c-0.127,0-0.229-0.103-0.229-0.229c0-0.128,0.103-0.23,0.229-0.23h1.062
											c0.127,0,0.229,0.103,0.229,0.23C5.134,63.972,5.032,64.074,4.905,64.074z"/>
									</g>
									<g>
										<path fill="#BA8660" d="M6.688,64.074H5.625c-0.127,0-0.229-0.103-0.229-0.229c0-0.128,0.103-0.23,0.229-0.23h1.062
											c0.127,0,0.229,0.103,0.229,0.23C6.917,63.972,6.815,64.074,6.688,64.074z"/>
									</g>
								</g>
							</g>
							<g>
								<path fill="#825E40" d="M5.405,59.121l-0.998-0.998c-0.083-0.085-0.221-0.085-0.304,0c-0.085,0.084-0.085,0.221,0,0.304
									L5.1,59.426L5.405,59.121z"/>
								<path fill="#825E40" d="M5.125,59.121l0.999-0.998c0.084-0.085,0.219-0.085,0.304,0c0.085,0.084,0.085,0.221,0,0.304
									l-0.998,0.999L5.125,59.121z"/>
							</g>
						</g>
						<g>
							<g>
								<path fill="#7DA81D" d="M16.754,52.562c-2.043,0.717-3.592,3.945-3.592,5.486s1.549,1.433,3.592,1.705V52.562z"/>
								<path fill="#469315" d="M16.719,52.562c2.043,0.717,3.59,3.945,3.59,5.486s-1.549,1.433-3.59,1.705V52.562z"/>
							</g>
							<g>
								<g>
									<path fill="#825E40" d="M16.735,63.154c-0.254,0-0.459-0.206-0.459-0.461V57.9c0-0.254,0.205-0.461,0.459-0.461
										c0.255,0,0.46,0.207,0.46,0.461v4.793C17.195,62.948,16.99,63.154,16.735,63.154z"/>
								</g>
								<g>
									<path fill="#BA8660" d="M18.346,63.269h-3.221c-0.127,0-0.23-0.103-0.23-0.229c0-0.128,0.104-0.23,0.23-0.23h3.221
										c0.127,0,0.23,0.103,0.23,0.23C18.577,63.166,18.473,63.269,18.346,63.269z"/>
								</g>
								<g>
									<g>
										<path fill="#BA8660" d="M16.375,64.074h-1.062c-0.127,0-0.23-0.103-0.23-0.229c0-0.128,0.104-0.23,0.23-0.23h1.062
											c0.127,0,0.229,0.103,0.229,0.23C16.604,63.972,16.502,64.074,16.375,64.074z"/>
									</g>
									<g>
										<path fill="#BA8660" d="M18.159,64.074h-1.062c-0.127,0-0.23-0.103-0.23-0.229c0-0.128,0.104-0.23,0.23-0.23h1.062
											c0.127,0,0.229,0.103,0.229,0.23C18.387,63.972,18.286,64.074,18.159,64.074z"/>
									</g>
								</g>
							</g>
							<g>
								<path fill="#825E40" d="M16.875,59.121l-0.998-0.998c-0.083-0.085-0.22-0.085-0.304,0c-0.085,0.084-0.085,0.221,0,0.304
									l0.997,0.999L16.875,59.121z"/>
								<path fill="#825E40" d="M16.595,59.121l0.999-0.998c0.084-0.085,0.219-0.085,0.304,0c0.085,0.084,0.085,0.221,0,0.304
									L16.9,59.426L16.595,59.121z"/>
							</g>
						</g>
					</g>
				</g>
			</g>
			<g>
				<g>
					<g>
						<g>
							<path fill="#7DA81D" d="M54.019,41.229c-2.043,0.717-3.592,3.945-3.592,5.486s1.549,1.433,3.592,1.705V41.229z"/>
							<path fill="#469315" d="M53.984,41.229c2.044,0.717,3.59,3.945,3.59,5.486s-1.549,1.433-3.59,1.705V41.229z"/>
						</g>
						<g>
							<g>
								<path fill="#825E40" d="M53.999,51.821c-0.253,0-0.458-0.206-0.458-0.461v-4.793c0-0.254,0.205-0.461,0.458-0.461
									c0.256,0,0.461,0.207,0.461,0.461v4.793C54.459,51.615,54.254,51.821,53.999,51.821z"/>
							</g>
							<g>
								<path fill="#BA8660" d="M55.612,51.936H52.39c-0.127,0-0.23-0.102-0.23-0.229c0-0.129,0.104-0.231,0.23-0.231h3.222
									c0.125,0,0.229,0.103,0.229,0.231C55.841,51.834,55.737,51.936,55.612,51.936z"/>
							</g>
							<g>
								<g>
									<path fill="#BA8660" d="M53.64,52.741h-1.062c-0.128,0-0.229-0.103-0.229-0.229c0-0.128,0.102-0.23,0.229-0.23h1.062
										c0.127,0,0.229,0.103,0.229,0.23C53.87,52.639,53.767,52.741,53.64,52.741z"/>
								</g>
								<g>
									<path fill="#BA8660" d="M55.423,52.741h-1.062c-0.128,0-0.23-0.103-0.23-0.229c0-0.128,0.103-0.23,0.23-0.23h1.062
										c0.127,0,0.229,0.103,0.229,0.23C55.653,52.639,55.55,52.741,55.423,52.741z"/>
								</g>
							</g>
						</g>
						<g>
							<path fill="#825E40" d="M54.14,47.788l-0.998-0.997c-0.083-0.086-0.22-0.086-0.304,0c-0.085,0.084-0.085,0.22,0,0.303
								l0.998,0.999L54.14,47.788z"/>
							<path fill="#825E40" d="M53.86,47.788l0.999-0.997c0.085-0.086,0.219-0.086,0.304,0c0.085,0.084,0.085,0.22,0,0.303
								l-0.998,0.999L53.86,47.788z"/>
						</g>
					</g>
					<g>
						<g>
							<g>
								<path fill="#7DA81D" d="M48.284,52.562c-2.043,0.717-3.592,3.945-3.592,5.486s1.549,1.433,3.592,1.705V52.562z"/>
								<path fill="#469315" d="M48.249,52.562c2.043,0.717,3.59,3.945,3.59,5.486s-1.549,1.433-3.59,1.705V52.562z"/>
							</g>
							<g>
								<g>
									<path fill="#825E40" d="M48.264,63.154c-0.254,0-0.459-0.206-0.459-0.461V57.9c0-0.254,0.205-0.461,0.459-0.461
										c0.255,0,0.46,0.207,0.46,0.461v4.793C48.724,62.948,48.519,63.154,48.264,63.154z"/>
								</g>
								<g>
									<path fill="#BA8660" d="M49.875,63.269h-3.221c-0.127,0-0.23-0.103-0.23-0.229c0-0.128,0.104-0.23,0.23-0.23h3.221
										c0.127,0,0.23,0.103,0.23,0.23C50.106,63.166,50.002,63.269,49.875,63.269z"/>
								</g>
								<g>
									<g>
										<path fill="#BA8660" d="M47.905,64.074h-1.062c-0.127,0-0.229-0.103-0.229-0.229c0-0.128,0.103-0.23,0.229-0.23h1.062
											c0.127,0,0.229,0.103,0.229,0.23C48.134,63.972,48.032,64.074,47.905,64.074z"/>
									</g>
									<g>
										<path fill="#BA8660" d="M49.688,64.074h-1.062c-0.127,0-0.229-0.103-0.229-0.229c0-0.128,0.103-0.23,0.229-0.23h1.062
											c0.127,0,0.229,0.103,0.229,0.23C49.917,63.972,49.815,64.074,49.688,64.074z"/>
									</g>
								</g>
							</g>
							<g>
								<path fill="#825E40" d="M48.405,59.121l-0.998-0.998c-0.083-0.085-0.221-0.085-0.304,0c-0.085,0.084-0.085,0.221,0,0.304
									l0.997,0.999L48.405,59.121z"/>
								<path fill="#825E40" d="M48.125,59.121l0.999-0.998c0.084-0.085,0.219-0.085,0.304,0c0.085,0.084,0.085,0.221,0,0.304
									l-0.998,0.999L48.125,59.121z"/>
							</g>
						</g>
						<g>
							<g>
								<path fill="#7DA81D" d="M59.754,52.562c-2.043,0.717-3.592,3.945-3.592,5.486s1.549,1.433,3.592,1.705V52.562z"/>
								<path fill="#469315" d="M59.719,52.562c2.043,0.717,3.59,3.945,3.59,5.486s-1.549,1.433-3.59,1.705V52.562z"/>
							</g>
							<g>
								<g>
									<path fill="#825E40" d="M59.735,63.154c-0.254,0-0.459-0.206-0.459-0.461V57.9c0-0.254,0.205-0.461,0.459-0.461
										c0.255,0,0.46,0.207,0.46,0.461v4.793C60.195,62.948,59.99,63.154,59.735,63.154z"/>
								</g>
								<g>
									<path fill="#BA8660" d="M61.346,63.269h-3.221c-0.127,0-0.23-0.103-0.23-0.229c0-0.128,0.104-0.23,0.23-0.23h3.221
										c0.127,0,0.23,0.103,0.23,0.23C61.577,63.166,61.473,63.269,61.346,63.269z"/>
								</g>
								<g>
									<g>
										<path fill="#BA8660" d="M59.375,64.074h-1.062c-0.127,0-0.23-0.103-0.23-0.229c0-0.128,0.104-0.23,0.23-0.23h1.062
											c0.127,0,0.229,0.103,0.229,0.23C59.604,63.972,59.502,64.074,59.375,64.074z"/>
									</g>
									<g>
										<path fill="#BA8660" d="M61.159,64.074h-1.062c-0.127,0-0.23-0.103-0.23-0.229c0-0.128,0.104-0.23,0.23-0.23h1.062
											c0.127,0,0.229,0.103,0.229,0.23C61.387,63.972,61.286,64.074,61.159,64.074z"/>
									</g>
								</g>
							</g>
							<g>
								<path fill="#825E40" d="M59.875,59.121l-0.998-0.998c-0.083-0.085-0.22-0.085-0.304,0c-0.085,0.084-0.085,0.221,0,0.304
									l0.997,0.999L59.875,59.121z"/>
								<path fill="#825E40" d="M59.595,59.121l0.999-0.998c0.084-0.085,0.219-0.085,0.304,0c0.085,0.084,0.085,0.221,0,0.304
									L59.9,59.426L59.595,59.121z"/>
							</g>
						</g>
					</g>
				</g>
			</g>
		</g>
	</g>
</g>
<g id="nyt_x5F_exporter_x5F_info" display="none">
</g>
</svg>
