<?xml version="1.0" encoding="utf-8"?>
<!-- Generator: Adobe Illustrator 16.0.0, SVG Export Plug-In . SVG Version: 6.00 Build 0)  -->
<!DOCTYPE svg PUBLIC "-//W3C//DTD SVG 1.1//EN" "http://www.w3.org/Graphics/SVG/1.1/DTD/svg11.dtd">
<svg version="1.1" id="Layer_1" xmlns="http://www.w3.org/2000/svg" xmlns:xlink="http://www.w3.org/1999/xlink" x="0px" y="0px"
	 width="64px" height="64px" viewBox="0 0 64 64" enable-background="new 0 0 64 64" xml:space="preserve">
<g>
	<g>
		<path fill="#272B2B" d="M14.8,49.5c0-1.2-0.9-2.1-2-2.2l-0.2-1.9c0-1.3-1-2.4-2.3-2.4H8.8H6.9c-1.3,0-2.3,1.1-2.3,2.4l-0.2,1.9
			c-0.9,0.3-1.7,1.2-1.7,2.2c0,0.9,0.5,1.7,1.3,2l-0.4,4.1c0,1.1,0.8,1.9,1.9,2.1C5.6,57.9,5.6,58,5.5,58H5.4C4.9,58,4,58.7,4,59.2
			V62h1.5h1.8h3.2h1.8H13v-2.8c0-0.5-0.2-1.2-0.7-1.2h-0.2c0,0-0.1-0.1-0.2-0.2c1.1-0.2,1.9-1,1.9-2.2l-0.5-4
			C14.2,51.3,14.8,50.5,14.8,49.5z"/>
		<path fill="#272B2B" d="M57.9,53.2c0-0.9-0.7-1.6-1.5-1.7l-0.2-1.6c0-0.9-0.8-1.9-1.7-1.9h-1.1h-1.4c-0.9,0-1.7,1-1.7,1.9
			l-0.1,1.5c-0.7,0.2-1.2,0.9-1.2,1.7c0,0.7,0.4,1.3,0.9,1.5l-0.3,3.1c0,0.8,0.6,1.7,1.4,1.8C51.1,59.6,51,60,51,60h-0.1
			c-0.4,0-0.9,0-0.9,0.4V63h1h1.3h2.3H56h1v-2.6c0-0.4-0.6-0.4-0.9-0.4h-0.1c0,0-0.1-0.3-0.1-0.4c0.8-0.1,1.4-0.9,1.4-1.7l-0.4-3
			C57.5,54.5,57.9,53.9,57.9,53.2z"/>
	</g>
	<g>
		<g>
			<path fill="#606868" d="M27,63V52.9c0-1.7-1.5-2.9-3.1-2.9h-3.1c-1.7,0-2.7,1.2-2.7,2.9V63H27z"/>
			<path fill="#606868" d="M46,63V52.9c0-1.7-1.1-2.9-2.7-2.9h-3.1c-1.7,0-3.1,1.2-3.1,2.9V63H46z"/>
		</g>
		<path fill="#4A4F4F" d="M43,63V50.3c0-1.7-1.5-3.3-3.2-3.3H24.2c-1.7,0-3.2,1.6-3.2,3.3V63H43z"/>
		<path fill="#383D3D" d="M43,63V50.3c0-1.7-1.5-3.3-3.2-3.3H24.2c-1.7,0-3.2,1.6-3.2,3.3"/>
		<g>
			<g>
				<path fill="#4A4F4F" d="M27.2,21.3c0,4.1-3.3,7.4-7.4,7.4c-4.1,0-7.4-3.3-7.4-7.4s3.3-7.4,7.4-7.4
					C23.9,13.9,27.2,17.2,27.2,21.3z"/>
				<path fill="#606868" d="M24.4,21.3c0,2.5-2.1,4.6-4.6,4.6c-2.5,0-4.6-2.1-4.6-4.6c0-2.5,2.1-4.6,4.6-4.6
					C22.4,16.7,24.4,18.8,24.4,21.3z"/>
			</g>
			<g>
				<circle fill="#4A4F4F" cx="44.2" cy="21.3" r="7.4"/>
				<path fill="#606868" d="M48.8,21.3c0,2.5-2.1,4.6-4.6,4.6c-2.5,0-4.6-2.1-4.6-4.6c0-2.5,2.1-4.6,4.6-4.6
					C46.7,16.7,48.8,18.8,48.8,21.3z"/>
			</g>
		</g>
		<g>
			<path fill="#697070" d="M48.6,41.5c0,4.1-3.3,7.5-7.4,7.5H22.9c-4.1,0-7.4-3.5-7.4-7.6l3-33.1c0-4.1,3.3-7.4,7.4-7.4h10.9
				c4.1,0,7.4,3.3,7.4,7.4L48.6,41.5z"/>
			<path fill="#6F7677" d="M32,1h-6.2c-4.1,0-7.4,3.2-7.4,7.3l-3,33.2c0,4.1,3.3,7.5,7.4,7.5H32V1z"/>
			<path fill="#818889" d="M18.4,8.2l-3,33.1c0,4.1,3.3,7.4,7.4,7.4"/>
			<path fill="#5A6263" d="M48,41.6c0,4.1-2.8,7.4-6.9,7.4H22.9c-4.1,0-7.4-3.4-7.4-7.5"/>
			<path fill="#697070" d="M15.4,41.5c0,4.1,3.3,7.5,7.4,7.5l-0.8-7.5H15.4z"/>
			<path fill="#606868" d="M18.4,8.3c0-4.1,3.3-7.3,7.4-7.3h10.9c4.1,0,7.4,3.2,7.4,7.3l4.5,33.2c0,4.1-3.3,7.5-7.4,7.5"/>
			<path fill="#4A4F4F" d="M32,1h-6.2c-4.1,0-7.4,3.2-7.4,7.3L32,32.5V1z"/>
			<path fill="#737A7A" d="M38,37c-0.7-2-1.2-5.8-1.2-10c0-5,0.7-9,1.7-11h-13c1,2,1.7,6,1.7,11c0,4.2-0.5,8-1.2,10H38z"/>
			<path fill="#575E5E" d="M32,37V16h-6.5c1,2,1.7,6,1.7,11c0,4.2-0.5,8-1.2,10H32z"/>
			<path fill="#4D5454" d="M37,41.9l4.1,7.1c4.1,0,7.4-3.1,7.4-7.1H37z"/>
			<path fill="#575E5E" d="M44.1,8.6l4.5,32.9c0,3.7-3.3,7.5-7.4,7.5"/>
			<path fill="#454C4C" d="M40.5,41.5l0.7,7.5c4.1,0,7.6-3.1,7.4-7.5L40.5,41.5z"/>
			<path fill="#737A7A" d="M41,42c0,0.6-0.4,1-1,1H24c-0.6,0-1-0.4-1-1l0,0c0-0.6,0.4-1,1-1h16C40.6,41,41,41.4,41,42L41,42z"/>
			<path fill="#383D3D" d="M41,42c0,0.6-0.4,1-1.1,1H24.1c-0.6,0-1.1-0.4-1.1-1l0,0c0-0.6,0.5-1,1.1-1h15.8C40.6,41,41,41.4,41,42
				L41,42z"/>
			<path fill="#4A4F4F" d="M41,42L41,42c0,0.7-0.5,1-1.1,1H24.1c-0.6,0-1-0.2-1.1-1l0,0"/>
			<g>
				<path fill="#4A4F4F" d="M40.4,17c-1.4-3-4.6-5.7-8.4-5.7S24.9,14,23.6,17H40.4z"/>
				<path fill="#3F4444" d="M32,11.3c-4,0-7.1,2.7-8.4,5.7H32V11.3z"/>
				<polygon fill="#6F7677" points="41,17 41,17 23,17 23,17 23,17 23,17 41,17 41,17 				"/>
			</g>
			<g>
				<path fill="#4A4F4F" d="M37.9,37c-0.9-1-3.2-2.2-5.9-2.2c-2.7,0-4.9,1.2-5.9,2.2H37.9z"/>
				<path fill="#3F4444" d="M32,34.8c-3,0-4.9,1.2-5.9,2.2H32V34.8z"/>
				<path fill="#6F7677" d="M38.1,37.5c0,0-0.1,0.5-0.1,0.5H26c-0.1,0-0.2-0.5-0.2-0.5l0,0c0,0,0.1-0.5,0.2-0.5h12
					C38.1,37,38.1,37.5,38.1,37.5L38.1,37.5z"/>
			</g>
		</g>
	</g>
	<path fill="#A5D647" d="M63,61.5c0,0.8-0.7,1.5-1.5,1.5h-59C1.7,63,1,62.3,1,61.5l0,0C1,60.7,1.7,60,2.5,60h59
		C62.3,60,63,60.7,63,61.5L63,61.5z"/>
	<polygon fill="#6FAF00" points="18,60 18,63 21.2,63 26.9,63 37.1,63 42.8,63 46,63 46,60 	"/>
</g>
</svg>
