<?xml version="1.0" encoding="utf-8"?>
<!-- Generator: Adobe Illustrator 16.0.0, SVG Export Plug-In . SVG Version: 6.00 Build 0)  -->
<!DOCTYPE svg PUBLIC "-//W3C//DTD SVG 1.1//EN" "http://www.w3.org/Graphics/SVG/1.1/DTD/svg11.dtd">
<svg version="1.1" id="Layer_1" xmlns="http://www.w3.org/2000/svg" xmlns:xlink="http://www.w3.org/1999/xlink" x="0px" y="0px"
	 width="65px" height="65px" viewBox="0 0 65 65" enable-background="new 0 0 65 65" xml:space="preserve">
<g>
	<g>
		<g>
			<g>
				<g>
					<path fill="#6B8C85" d="M29.473,46.446c0,2.476-2.008,15.827-4.486,15.827c-2.475,0-4.482-13.352-4.482-15.827
						s2.008-4.484,4.482-4.484C27.465,41.962,29.473,43.971,29.473,46.446z"/>
					<path fill="#6B8C85" d="M44.498,46.446c0,2.476-2.008,15.827-4.486,15.827c-2.475,0-4.482-13.352-4.482-15.827
						s2.008-4.484,4.482-4.484C42.49,41.962,44.498,43.971,44.498,46.446z"/>
				</g>
				<path d="M45.15,40.521c0,16.038-5.662,10.697-12.65,10.697c-6.986,0-12.65,5.341-12.65-10.697c0-9.17,5.666-16.603,12.65-16.603
					C39.486,23.919,45.15,31.352,45.15,40.521z"/>
				<g>
					<path fill="#C90D59" d="M30.033,62.354c0,1.896-2.26,2.146-5.045,2.146s-5.045-0.249-5.045-2.146
						c0-1.897,2.26-4.508,5.045-4.508S30.033,60.457,30.033,62.354z"/>
					<path fill="#AA0B53" d="M30.033,62.354c0,1.896-2.26,2.146-5.045,2.146s-5.045-0.249-5.045-2.146"/>
				</g>
				<g>
					<path fill="#C90D59" d="M45.059,62.354c0,1.896-2.26,2.146-5.045,2.146s-5.045-0.249-5.045-2.146
						c0-1.897,2.26-4.508,5.045-4.508S45.059,60.457,45.059,62.354z"/>
					<path fill="#AA0B53" d="M45.059,62.354c0,1.896-2.26,2.146-5.045,2.146s-5.045-0.249-5.045-2.146"/>
				</g>
				<g>
					<path d="M48.871,16.275c0,7.999-7.33,12.02-16.369,12.02c-9.041,0-16.373-4.021-16.373-12.02
						c0-8.001,7.332-15.775,16.373-15.775C41.541,0.5,48.871,8.274,48.871,16.275z"/>
					<path fill="#F9BD82" d="M48.871,16.275c0,7.999-7.33,12.02-16.369,12.02c-9.041,0-16.373-4.021-16.373-12.02
						c0-8.001,7.332-7.608,16.373-7.608C41.541,8.667,48.871,8.274,48.871,16.275z"/>
					<path fill="#EDA366" d="M48.871,16.275c0,7.999-7.33,12.02-16.369,12.02c-9.041,0-16.373-4.021-16.373-12.02"/>
				</g>
				<g>
					<g>
						<circle fill="#113E49" cx="24.716" cy="18.017" r="1.464"/>
						<path d="M26.18,18.017c0,0.811-0.656,1.465-1.465,1.465s-1.463-0.654-1.463-1.465"/>
						<g>
							<path fill="#FFD3C5" d="M27.604,21.07c-0.078,0-0.158-0.028-0.219-0.091c-0.715-0.714-1.664-1.107-2.672-1.107h-0.002
								c-1.008,0-1.955,0.394-2.666,1.106c-0.121,0.121-0.316,0.124-0.436,0.001c-0.121-0.117-0.125-0.312-0.004-0.434
								c0.83-0.831,1.932-1.29,3.105-1.29h0.002c1.176,0,2.279,0.456,3.111,1.288c0.119,0.119,0.119,0.318,0,0.436
								C27.764,21.042,27.686,21.07,27.604,21.07z"/>
						</g>
					</g>
					<g>
						<circle fill="#113E49" cx="40.286" cy="18.017" r="1.464"/>
						<path d="M38.822,18.017c0,0.811,0.654,1.465,1.465,1.465c0.809,0,1.463-0.654,1.463-1.465"/>
						<g>
							<path fill="#FFD3C5" d="M37.398,21.07c0.076,0,0.156-0.028,0.217-0.091c0.715-0.714,1.664-1.107,2.672-1.107h0.002
								c1.008,0,1.957,0.394,2.668,1.106c0.119,0.121,0.314,0.124,0.436,0.001c0.121-0.117,0.123-0.312,0.002-0.434
								c-0.826-0.831-1.932-1.29-3.105-1.29h-0.002c-1.174,0-2.277,0.456-3.111,1.288c-0.117,0.119-0.117,0.318,0,0.436
								C37.238,21.042,37.316,21.07,37.398,21.07z"/>
						</g>
					</g>
				</g>
			</g>
			<path fill="#AA1111" d="M28.891,25.21c0-0.461,1.617-2.023,3.609-2.023s3.609,1.562,3.609,2.023c0,0.463-1.617,0.188-3.609,0.188
				S28.891,25.673,28.891,25.21z"/>
		</g>
		<g>
			<g>
				<path fill="#EDA366" d="M44.338,37.525c0.602-1.821-1.252-4.065-4.139-5.019c-2.883-0.951-17.57-4.153-18.174-2.337
					c-0.598,1.82,13.121,7.975,16.006,8.926C40.914,40.048,43.738,39.344,44.338,37.525z"/>
			</g>
			<g>
				<path fill="#F9BD82" d="M20.662,37.525c-0.602-1.821,1.252-4.065,4.139-5.019c2.883-0.951,17.57-4.153,18.174-2.337
					c0.598,1.82-13.121,7.975-16.006,8.926C24.086,40.048,21.262,39.344,20.662,37.525z"/>
			</g>
		</g>
		<path fill="#7A4E0E" d="M38.125,31.041c-0.109-0.417-0.184-0.814-0.242-1.2c-0.281,0.034-0.567,0.07-0.86,0.109
			c0.046,0.572,0.146,1.205,0.321,1.872c0.217,0.825,0.504,1.562,0.814,2.149c0.319-0.174,0.629-0.346,0.928-0.517
			C38.719,32.835,38.375,31.995,38.125,31.041z"/>
		<circle fill="#38494C" cx="37.484" cy="31.042" r="1.73"/>
		<circle fill="#A3E1EF" cx="37.35" cy="30.845" r="0.969"/>
	</g>
	<g>
		<g>
			<path d="M31.458,17.462c0,1.539-1.248,2.787-2.785,2.787h-3.835c-1.54,0-2.787-1.248-2.787-2.787v-1.508
				c0-1.54,1.247-2.788,2.787-2.788h3.835c1.537,0,2.785,1.248,2.785,2.788V17.462z"/>
			<path d="M25.42,14.327c0,0.643-0.52,1.162-1.161,1.162h-6.502c-0.643,0-1.162-0.52-1.162-1.162l0,0
				c0-0.643,0.52-1.161,1.162-1.161h6.502C24.9,13.166,25.42,13.685,25.42,14.327L25.42,14.327z"/>
		</g>
		<g>
			<path d="M33.542,17.462c0,1.539,1.245,2.787,2.785,2.787h3.832c1.541,0,2.787-1.248,2.787-2.787v-1.508
				c0-1.54-1.246-2.788-2.787-2.788h-3.832c-1.54,0-2.785,1.248-2.785,2.788V17.462z"/>
			<path d="M39.579,14.327c0,0.643,0.52,1.162,1.162,1.162h6.502c0.64,0,1.161-0.52,1.161-1.162l0,0
				c0-0.643-0.521-1.161-1.161-1.161h-6.502C40.099,13.166,39.579,13.685,39.579,14.327L39.579,14.327z"/>
			<path d="M28.203,14.327c0,0.643,0.521,1.162,1.162,1.162h6.503c0.641,0,1.162-0.52,1.162-1.162l0,0
				c0-0.643-0.521-1.161-1.162-1.161h-6.503C28.724,13.166,28.203,13.685,28.203,14.327L28.203,14.327z"/>
		</g>
	</g>
</g>
</svg>
