<?xml version="1.0" encoding="utf-8"?>
<!-- Generator: Adobe Illustrator 16.0.0, SVG Export Plug-In . SVG Version: 6.00 Build 0)  -->
<!DOCTYPE svg PUBLIC "-//W3C//DTD SVG 1.1//EN" "http://www.w3.org/Graphics/SVG/1.1/DTD/svg11.dtd">
<svg version="1.1" id="Layer_1" xmlns="http://www.w3.org/2000/svg" xmlns:xlink="http://www.w3.org/1999/xlink" x="0px" y="0px"
	 width="64px" height="64px" viewBox="0 0 64 64" enable-background="new 0 0 64 64" xml:space="preserve">
<g>
	<g>
		<g>
			<path fill="#F7910B" d="M62,36.8c0,13-11.9,23.5-30.3,23.5c-18.4,0-30.3-10.5-30.3-23.5S13.2,4.3,31.7,4.3
				C50.1,4.3,62,23.8,62,36.8z"/>
		</g>
		<g>
			<path fill="#F7910B" d="M62,36.8c0,13-11.9,19.5-30.3,19.5c-18.4,0-30.3-6.5-30.3-19.5S13.2,2.3,31.7,2.3
				C50.1,2.3,62,23.8,62,36.8z"/>
		</g>
		<g>
			<path fill="#F9A908" d="M31.7,2.3C50.1,2.3,62,23.8,62,36.8S50.1,56.3,31.7,56.3"/>
		</g>
		<g>
			<path fill="#F9A908" d="M62,36.8c0,13-11.9,19.5-30.3,19.5c-18.4,0-30.3-6.5-30.3-19.5S13.2,4.3,31.7,4.3
				C50.1,4.3,62,23.8,62,36.8z"/>
		</g>
		<g>
			<path fill="#F9C55D" d="M1.3,36.8c0-13,11.9-32.5,30.3-32.5"/>
		</g>
		<g>
			<path fill="#F7910B" d="M31.7,4.3C50.1,4.3,62,23.8,62,36.8S50.1,60.3,31.7,60.3"/>
		</g>
		<g>
			<path fill="#EA7103" d="M31.7,4.3C50.1,4.3,62,23.8,62,36.8"/>
		</g>
		<g>
			<g>
				<path fill="#19BCA4" d="M29.4,7.3c-1.8,0.1-3.2,0.8-3.2,1.7l6.5-0.3C32.7,7.9,31.2,7.2,29.4,7.3z"/>
			</g>
			<g>
				<path fill="#19BCA4" d="M48.7,7.3c-1.8-0.1-3.3,0.6-3.3,1.4L51.9,9C52,8.1,50.5,7.4,48.7,7.3z"/>
			</g>
			<g>
				<path fill="#109DA0" d="M29.5,9.3c1.8-0.1,3.3,0.3,3.3-0.6L26.2,9C26.2,9.9,27.7,9.4,29.5,9.3z"/>
			</g>
			<g>
				<path fill="#109DA0" d="M48.6,9.3c1.8,0.1,3.3,0.6,3.3-0.3l-6.5-0.3C45.3,9.6,46.8,9.2,48.6,9.3z"/>
			</g>
			<g>
				<path fill="#F9C55D" d="M27.1,20.9c-4.3,0-7.8,1-7.8,2.2s3.5,0.7,7.8,0.7c4.3,0,7.8,0.6,7.8-0.7S31.4,20.9,27.1,20.9z"/>
			</g>
			<g>
				<path fill="#F9A908" d="M51,20.9c-4.3,0-7.8,1-7.8,2.2s3.5,0.7,7.8,0.7c4.3,0,7.8,0.6,7.8-0.7S55.4,20.9,51,20.9z"/>
			</g>
		</g>
		<g>
			<g>
				<g>
					<g>
						<g>
							<g>
								<path fill="#1E4784" d="M26.2,16.3c0.4,0.1,0.8,0.3,1.1,0.6c1.2,1.6,3.5,1.9,5.1,0.6c0.7-0.6,1.8-0.4,2.3,0.3
									c0.6,0.7,0.4,1.8-0.3,2.3c-3,2.3-7.4,1.8-9.7-1.2c-0.6-0.7-0.4-1.8,0.3-2.3C25.4,16.3,25.8,16.2,26.2,16.3z"/>
							</g>
						</g>
						<g>
							<g>
								<path fill="#02243E" d="M24.7,18.9c-0.6-0.7-0.4-1.8,0.3-2.3c0.4-0.3,0.8-0.4,1.2-0.3c0.4,0.1,0.8,0.3,1.1,0.6
									c1.2,1.6,3.5,1.9,5.1,0.6c0.7-0.6,1.8-0.4,2.3,0.3c0.6,0.7,0.4,1.8-0.3,2.3"/>
							</g>
						</g>
					</g>
				</g>
			</g>
			<g>
				<g>
					<g>
						<g>
							<g>
								<path fill="#1E4784" d="M51.9,16.3c-0.4,0.1-0.8,0.3-1.1,0.6c-1.2,1.6-3.5,1.9-5.1,0.6C45,17,44,17.1,43.4,17.8
									c-0.6,0.7-0.4,1.8,0.3,2.3c3,2.3,7.4,1.8,9.7-1.2c0.6-0.7,0.4-1.8-0.3-2.3C52.8,16.3,52.3,16.2,51.9,16.3z"/>
							</g>
						</g>
						<g>
							<g>
								<path fill="#02243E" d="M53.4,18.9c0.6-0.7,0.4-1.8-0.3-2.3c-0.4-0.3-0.8-0.4-1.2-0.3c-0.4,0.1-0.8,0.3-1.1,0.6
									c-1.2,1.6-3.5,1.9-5.1,0.6C45,17,44,17.1,43.4,17.8c-0.6,0.7-0.4,1.8,0.3,2.3"/>
							</g>
						</g>
					</g>
				</g>
			</g>
		</g>
		<g>
			<g>
				<path fill="#ED7E11" d="M45.6,31.3c0,2.6-3.3,4.7-7.4,4.7c-4.1,0-7.4-2.1-7.4-4.7"/>
			</g>
			<g>
				<path fill="#02243E" d="M38.4,32.6c-3.2,0-6.4-0.7-7.9-2.2c-0.4-0.4-0.4-1.1,0-1.6c0.4-0.4,1.1-0.4,1.6,0
					c2.1,2.1,10.6,2.1,12.7,0c0.4-0.4,1.1-0.4,1.6,0c0.4,0.4,0.4,1.1,0,1.6C44.8,31.8,41.6,32.6,38.4,32.6z"/>
			</g>
		</g>
		<g>
			<circle fill="#F7910B" cx="10" cy="33.8" r="0.6"/>
		</g>
		<g>
			<circle fill="#F7910B" cx="5.5" cy="35.8" r="1.1"/>
		</g>
		<g>
			<circle fill="#F7910B" cx="8.5" cy="31.8" r="0.2"/>
		</g>
		<g>
			<circle fill="#F7910B" cx="13" cy="33.6" r="0.2"/>
		</g>
		<g>
			<circle fill="#F9A908" cx="58.2" cy="36.7" r="0.8"/>
		</g>
		<g>
			<circle fill="#F9A908" cx="54.7" cy="35.5" r="0.2"/>
		</g>
		<g>
			<circle fill="#F9A908" cx="58.9" cy="42.5" r="0.3"/>
		</g>
		<g>
			<circle fill="#F9A908" cx="55.1" cy="46.3" r="1.3"/>
		</g>
		<g>
			<circle fill="#F9A908" cx="56.1" cy="38.4" r="0.6"/>
		</g>
		<g>
			<circle fill="#F7910B" cx="9" cy="37.8" r="0.5"/>
		</g>
		<g>
			<circle fill="#F7910B" cx="9.7" cy="29.4" r="0.4"/>
		</g>
		<g>
			<circle fill="#F9A908" cx="4.5" cy="15.6" r="1.1"/>
		</g>
		<g>
			<circle fill="#F9A908" cx="7.7" cy="12.1" r="0.6"/>
		</g>
		<g>
			<circle fill="#F9A908" cx="58.9" cy="18" r="0.2"/>
		</g>
		<g>
			<circle fill="#F9A908" cx="58" cy="15.1" r="0.8"/>
		</g>
		<g>
			<circle fill="#F9A908" cx="60.6" cy="15.6" r="0.5"/>
		</g>
		<g>
			<circle fill="#F9A908" cx="5.7" cy="18.6" r="0.6"/>
		</g>
	</g>
	<g>
		<g>
			<g>
				<g>
					<path fill="#1E4784" d="M24.7,42.7c0,8.5-6.1,15.4-13.6,15.4C3.7,58,0.6,51.2,0.6,42.7s3.1-15.4,10.6-15.4
						C18.7,27.3,24.7,34.2,24.7,42.7z"/>
				</g>
				<g>
					<ellipse fill="#1E4784" cx="25.3" cy="42.7" rx="10.5" ry="11.9"/>
				</g>
			</g>
			<g>
				<g>
					<path fill="#1E4784" d="M24.7,46.3c0,8.5-6.1,15.4-13.6,15.4c-7.5,0-10.6-6.9-10.6-15.4C0.6,37.9,3.7,31,11.2,31
						C18.7,31,24.7,37.9,24.7,46.3z"/>
				</g>
				<g>
					<ellipse fill="#1E4784" cx="25.3" cy="46.3" rx="10.5" ry="11.9"/>
				</g>
			</g>
		</g>
		<g>
			<g>
				<g>
					<path fill="#02243E" d="M24.7,44.5c0,8.5-6.1,15.4-13.6,15.4C3.7,59.9,0.6,53,0.6,44.5s3.1-15.4,10.6-15.4
						C18.7,29.1,24.7,36,24.7,44.5z"/>
				</g>
				<g>
					<ellipse fill="#02243E" cx="25.3" cy="44.5" rx="10.5" ry="11.9"/>
				</g>
			</g>
			<g>
				<path fill="#F9A908" d="M9.2,49c0,0.7-0.6,1.2-1.2,1.2l0,0c-0.7,0-1.2-0.6-1.2-1.2v-9c0-0.7,0.6-1.2,1.2-1.2l0,0
					c0.7,0,1.2,0.6,1.2,1.2V49z"/>
			</g>
			<g>
				<circle fill="#EA7103" cx="21.7" cy="44.5" r="4"/>
			</g>
		</g>
	</g>
	<g>
		<path fill="#844414" d="M58.9,43.6c0,2,0.4,3.6-1.6,3.6H33.5c-2,0-1.6-1.6-1.6-3.6l0,0c0-2-0.4-3.6,1.6-3.6h23.8
			C59.3,40,58.9,41.6,58.9,43.6L58.9,43.6z"/>
	</g>
	<g>
		<path fill="#683409" d="M58.9,44.5c0,2,0.4,3.6-1.6,3.6H33.5c-2,0-1.6-1.6-1.6-3.6l0,0c0-2-0.4-3.6,1.6-3.6h23.8
			C59.3,40.9,58.9,42.5,58.9,44.5L58.9,44.5z"/>
	</g>
	<g>
		<path fill="#844414" d="M37,46.6c0,0.1-0.1,0.2-0.2,0.2l0,0c-0.1,0-0.2-0.1-0.2-0.2v-4.1c0-0.1,0.1-0.2,0.2-0.2l0,0
			c0.1,0,0.2,0.1,0.2,0.2V46.6z"/>
	</g>
	<g>
		<path fill="#844414" d="M41.5,46.6c0,0.1-0.1,0.2-0.2,0.2l0,0c-0.1,0-0.2-0.1-0.2-0.2v-4.1c0-0.1,0.1-0.2,0.2-0.2l0,0
			c0.1,0,0.2,0.1,0.2,0.2V46.6z"/>
	</g>
	<g>
		<path fill="#844414" d="M45.9,46.6c0,0.1-0.1,0.2-0.2,0.2l0,0c-0.1,0-0.2-0.1-0.2-0.2v-4.1c0-0.1,0.1-0.2,0.2-0.2l0,0
			c0.1,0,0.2,0.1,0.2,0.2V46.6z"/>
	</g>
	<g>
		<path fill="#844414" d="M50.4,46.6c0,0.1-0.1,0.2-0.2,0.2l0,0c-0.1,0-0.2-0.1-0.2-0.2v-4.1c0-0.1,0.1-0.2,0.2-0.2l0,0
			c0.1,0,0.2,0.1,0.2,0.2V46.6z"/>
	</g>
	<g>
		<path fill="#844414" d="M54.8,46.6c0,0.1-0.1,0.2-0.2,0.2l0,0c-0.1,0-0.2-0.1-0.2-0.2v-4.1c0-0.1,0.1-0.2,0.2-0.2l0,0
			c0.1,0,0.2,0.1,0.2,0.2V46.6z"/>
	</g>
	<g>
		<circle fill="#F9A908" cx="39" cy="44.5" r="0.5"/>
	</g>
	<g>
		<circle fill="#F9A908" cx="47.6" cy="44.5" r="0.5"/>
	</g>
	<g>
		<path fill="#02243E" d="M63.4,48c0,2.1-1.7,3.8-3.8,3.8l0,0c-2.1,0-3.8-1.7-3.8-3.8v-7c0-2.1,1.7-3.8,3.8-3.8l0,0
			c2.1,0,3.8,1.7,3.8,3.8V48z"/>
	</g>
	<g>
		<g>
			<g>
				<circle fill="#02243E" cx="58.2" cy="34.4" r="1.1"/>
			</g>
			<g>
				<circle fill="#02243E" cx="58.2" cy="54.6" r="1.1"/>
			</g>
		</g>
		<g>
			<g>
				<circle fill="#02243E" cx="61.8" cy="34.4" r="1.1"/>
			</g>
			<g>
				<circle fill="#02243E" cx="61.8" cy="54.6" r="1.1"/>
			</g>
		</g>
	</g>
</g>
</svg>
