<?xml version="1.0" encoding="utf-8"?>
<!-- Generator: Adobe Illustrator 16.0.0, SVG Export Plug-In . SVG Version: 6.00 Build 0)  -->
<!DOCTYPE svg PUBLIC "-//W3C//DTD SVG 1.1//EN" "http://www.w3.org/Graphics/SVG/1.1/DTD/svg11.dtd">
<svg version="1.1" id="Layer_1" xmlns="http://www.w3.org/2000/svg" xmlns:xlink="http://www.w3.org/1999/xlink" x="0px" y="0px"
	 width="64px" height="64px" viewBox="0 0 64 64" enable-background="new 0 0 64 64" xml:space="preserve">
<g>
	<g>
		<circle fill="#FCCC32" cx="32" cy="32" r="31.1"/>
		<path fill="#EFAE0C" d="M54,10C66.1,22.2,66.1,41.8,54,54S22.2,66.1,10,54"/>
	</g>
	<g>
		<g>
			<g>
				<rect x="15" y="54" fill="#DDDAC0" width="5" height="7"/>
				<polyline fill="#C6C2A7" points="15,54 20,54 20,61 				"/>
			</g>
			<g>
				<rect x="44" y="54" fill="#DDDAC0" width="5" height="7"/>
				<polyline fill="#C6C2A7" points="44,54 49,54 49,61 				"/>
			</g>
		</g>
		<polygon fill="#A1B7B6" points="54.4,52.5 32,63.3 9.6,52.5 15.7,22.2 32,10.4 48.3,22.2 		"/>
		<polyline fill="#8EA5A3" points="32,10.4 48.3,23.2 54.4,52.5 32,63.3 		"/>
		<polygon fill="#A1B7B6" points="14.3,15.3 32,6.8 49.7,15.3 44.9,38.5 32,48.7 19.1,38.5 		"/>
		<polygon fill="#8EA5A3" points="14.3,15.3 32,21.2 49.7,15.3 44.9,24.1 32,34.2 19.1,24.1 		"/>
		<polyline fill="#8EA5A3" points="32,6.8 49.7,15.3 44.9,38.5 32,48.7 		"/>
		<polyline fill="#829996" points="32,21.2 49.7,15.3 48.1,22.8 32,34.2 		"/>
		<g>
			<polygon fill="#A1B7B6" points="19.2,11.6 14.2,7.6 19.2,0.7 24.1,7.6 			"/>
			<polyline fill="#8EA5A3" points="19.2,0.7 24.1,7.6 19.2,11.6 			"/>
			<polygon fill="#829996" points="44.8,11.6 39.9,7.6 44.8,0.7 49.8,7.6 			"/>
			<polyline fill="#8EA5A3" points="44.8,0.7 49.8,7.6 44.8,11.6 			"/>
		</g>
		<g>
			<g>
				<polygon fill="#5E6664" points="25,24.4 20,22.9 20,20 25,21.6 				"/>
				<polyline fill="#2F423F" points="25,21.6 25,24.4 20,22.9 				"/>
			</g>
			<g>
				<g>
					<polygon fill="#5E6664" points="39,24.4 44,22.9 44,20 39,21.6 					"/>
				</g>
				<g>
					<polyline fill="#2F423F" points="39,24.4 44,22.9 44,20 					"/>
				</g>
			</g>
		</g>
		<g>
			<polygon fill="#5E6664" points="30,56 30,56 25.8,49.8 21,52.5 21,52.6 			"/>
			<polygon fill="#5E6664" points="34,56 34,56 38.2,49.8 43,52.5 43,52.6 			"/>
		</g>
		<polyline fill="#7B918D" points="32,34.2 51.6,53.9 54.4,52.5 48.3,22.2 		"/>
	</g>
</g>
</svg>
