<?xml version="1.0" encoding="utf-8"?>
<!-- Generator: Adobe Illustrator 16.0.0, SVG Export Plug-In . SVG Version: 6.00 Build 0)  -->
<!DOCTYPE svg PUBLIC "-//W3C//DTD SVG 1.1//EN" "http://www.w3.org/Graphics/SVG/1.1/DTD/svg11.dtd">
<svg version="1.1" xmlns="http://www.w3.org/2000/svg" xmlns:xlink="http://www.w3.org/1999/xlink" x="0px" y="0px" width="65px"
	 height="65px" viewBox="0 0 65 65" enable-background="new 0 0 65 65" xml:space="preserve">
<g id="Layer_1">
	<g>
		<g>
			<path fill="#0A3347" d="M32.487,64.5h-9.489c-11.696,0-11.696-11.961-11.696-15.89V16.39c0-14.342,8.797-15.89,12.58-15.89
				h16.551c4.561,0,11.011,0.486,14.354,4.692c2.906,3.658,2.293,8.386,1.434,12.095L48.94,49.485
				C46.806,59.023,40.81,64.5,32.487,64.5z M23.882,8.444c-1.621,0-4.635,0-4.635,7.945V48.61c0,7.944,1.821,7.944,3.751,7.944
				h9.489c4.466,0,7.395-2.966,8.701-8.812l7.287-32.228c0.814-3.52,0.498-4.865,0.09-5.38c-0.404-0.509-2.006-1.69-8.133-1.69
				H23.882z"/>
		</g>
		<g>
			<path fill="#134D70" d="M11.533,12.614c0.808-4.163,3.017-4.17,4.323-4.17h8.025h8.525h8.025c6.127,0,7.729,1.182,8.133,1.69
				c0.113,0.141,0.216,0.354,0.291,0.649c-0.158-1.955-0.742-3.889-2.094-5.592C43.419,0.986,36.968,0.5,32.407,0.5h-8.525
				C20.461,0.5,12.94,1.767,11.533,12.614z"/>
			<path fill="#134D70" d="M40.916,49.485l7.279-32.198c0.248-1.075,0.475-2.235,0.602-3.431c-0.078,0.495-0.179,1.031-0.321,1.658
				l-7.287,32.228c-1.307,5.847-4.235,8.812-8.701,8.812h-8.025h-1.464h-8.024c-1.445,0-2.826-0.002-3.432-3.333
				C12.177,58.183,14.498,64.5,22.998,64.5h1.464C32.783,64.5,38.781,59.023,40.916,49.485z"/>
		</g>
		<path fill="#3EBA64" d="M20.413,22.919c0,0.994-0.805,1.8-1.799,1.8h-6.809c-0.994,0-1.799-0.806-1.799-1.8l0,0
			c0-0.993,0.805-1.799,1.799-1.799h6.809C19.608,21.12,20.413,21.926,20.413,22.919L20.413,22.919z"/>
		<path fill="#92A59B" d="M22.352,48.636c0,1.455-1.181,2.636-2.637,2.636h-9.01c-1.458,0-2.638-1.181-2.638-2.636V25.118
			c0-1.455,1.18-2.636,2.638-2.636h9.01c1.456,0,2.637,1.181,2.637,2.636V48.636z"/>
		<path fill="#A8BAB1" d="M16.954,48.636V25.118c0-1.455-1.182-2.636-2.638-2.636h-3.611c-1.458,0-2.638,1.181-2.638,2.636v23.518
			c0,1.455,1.18,2.636,2.638,2.636h3.611C15.772,51.271,16.954,50.091,16.954,48.636z"/>
		<path fill="#BFD8CA" d="M20.601,25.741c0,0.134-0.108,0.242-0.242,0.242h-9.533c-0.134,0-0.242-0.108-0.242-0.242l0,0
			c0-0.135,0.108-0.243,0.242-0.243h9.533C20.492,25.498,20.601,25.606,20.601,25.741L20.601,25.741z"/>
		<path fill="#BFD8CA" d="M20.601,29.34c0,0.134-0.108,0.242-0.242,0.242h-9.533c-0.134,0-0.242-0.108-0.242-0.242l0,0
			c0-0.135,0.108-0.243,0.242-0.243h9.533C20.492,29.097,20.601,29.205,20.601,29.34L20.601,29.34z"/>
		<path fill="#BFD8CA" d="M20.601,32.938c0,0.135-0.108,0.243-0.242,0.243h-9.533c-0.134,0-0.242-0.108-0.242-0.243l0,0
			c0-0.134,0.108-0.242,0.242-0.242h9.533C20.492,32.695,20.601,32.804,20.601,32.938L20.601,32.938z"/>
		<path fill="#BFD8CA" d="M20.601,36.536c0,0.135-0.108,0.243-0.242,0.243h-9.533c-0.134,0-0.242-0.108-0.242-0.243l0,0
			c0-0.135,0.108-0.243,0.242-0.243h9.533C20.492,36.293,20.601,36.401,20.601,36.536L20.601,36.536z"/>
		<path fill="#BFD8CA" d="M20.601,40.135c0,0.135-0.108,0.242-0.242,0.242h-9.533c-0.134,0-0.242-0.107-0.242-0.242l0,0
			c0-0.135,0.108-0.243,0.242-0.243h9.533C20.492,39.892,20.601,40,20.601,40.135L20.601,40.135z"/>
		<path fill="#BFD8CA" d="M20.601,43.733c0,0.134-0.108,0.242-0.242,0.242h-9.533c-0.134,0-0.242-0.108-0.242-0.242l0,0
			c0-0.135,0.108-0.243,0.242-0.243h9.533C20.492,43.49,20.601,43.599,20.601,43.733L20.601,43.733z"/>
		<path fill="#BFD8CA" d="M20.601,47.331c0,0.135-0.108,0.243-0.242,0.243h-9.533c-0.134,0-0.242-0.108-0.242-0.243l0,0
			c0-0.134,0.108-0.242,0.242-0.242h9.533C20.492,47.089,20.601,47.197,20.601,47.331L20.601,47.331z"/>
		<g>
			<path fill="#BFD8CA" d="M15.866,15.654c-0.566-0.379-1.342-0.32-1.842,0.181c-0.5,0.5-0.56,1.275-0.18,1.843L15.866,15.654z"/>
			<path fill="#BFD8CA" d="M16.269,16.056l-2.023,2.023c0.568,0.381,1.342,0.319,1.842-0.182
				C16.587,17.397,16.648,16.623,16.269,16.056z"/>
		</g>
		<g>
			<path fill="#BFD8CA" d="M13.845,53.211c-0.38,0.567-0.32,1.343,0.18,1.843s1.275,0.56,1.842,0.181L13.845,53.211z"/>
			<path fill="#BFD8CA" d="M14.245,52.81l2.023,2.023c0.381-0.568,0.318-1.342-0.182-1.843C15.587,52.49,14.813,52.43,14.245,52.81z
				"/>
		</g>
	</g>
</g>
<g id="nyt_x5F_exporter_x5F_info" display="none">
</g>
</svg>
