<?xml version="1.0" encoding="utf-8"?>
<!-- Generator: Adobe Illustrator 16.0.0, SVG Export Plug-In . SVG Version: 6.00 Build 0)  -->
<!DOCTYPE svg PUBLIC "-//W3C//DTD SVG 1.1//EN" "http://www.w3.org/Graphics/SVG/1.1/DTD/svg11.dtd">
<svg version="1.1" id="Layer_1" xmlns="http://www.w3.org/2000/svg" xmlns:xlink="http://www.w3.org/1999/xlink" x="0px" y="0px"
	 width="65px" height="65px" viewBox="0 0 65 65" enable-background="new 0 0 65 65" xml:space="preserve">
<g>
	<path fill="#5BC914" d="M63.883,30.199L50.184,6.472c-0.821-1.425-2.341-2.301-3.984-2.301H18.801
		c-1.644,0-3.164,0.876-3.984,2.301l-13.7,23.728c-0.822,1.424-0.822,3.178,0,4.602l13.7,23.728c0.82,1.425,2.341,2.301,3.984,2.301
		h27.398c1.644,0,3.163-0.876,3.984-2.301l13.699-23.728C64.706,33.377,64.706,31.623,63.883,30.199z"/>
	<path fill="#60E807" d="M41.684,4.171H18.801c-1.644,0-3.164,0.876-3.984,2.301l-13.7,23.728c-0.822,1.424-0.822,3.178,0,4.602
		l5.231,9.061H29.23c1.645,0,3.163-0.877,3.984-2.301l13.7-23.729c0.821-1.424,0.821-3.178,0-4.602L41.684,4.171z"/>
	<path fill="#72F71C" d="M18.801,4.171c-1.644,0-3.164,0.876-3.984,2.301l-13.7,23.728c-0.822,1.424-0.822,3.178,0,4.602
		l5.231,9.061"/>
	<g>
		<path fill="#087C66" d="M26.175,24.314h-2.091c-0.238,0-0.432,0.193-0.432,0.432v8.39l-7.031-8.661
			c-0.082-0.102-0.204-0.16-0.336-0.16h-2.047c-0.238,0-0.431,0.193-0.431,0.432v15.246c0,0.238,0.192,0.432,0.431,0.432h2.092
			c0.238,0,0.431-0.193,0.431-0.432V29.68l9.084,10.852c0.083,0.1,0.205,0.154,0.33,0.154c0.049,0,0.1-0.009,0.146-0.026
			c0.172-0.062,0.285-0.224,0.285-0.405V24.746C26.605,24.508,26.413,24.314,26.175,24.314z"/>
		<path fill="#055B4A" d="M38.363,38.775l-1.001-0.092l-0.129-0.121v-6.132c0-1.215-0.306-2.125-0.909-2.704
			c-0.599-0.573-1.537-0.864-2.787-0.864c-1.367,0-2.507,0.255-3.388,0.759c-0.96,0.548-1.446,1.268-1.446,2.14
			c0,0.378,0.089,0.649,0.271,0.831c0.181,0.182,0.456,0.271,0.842,0.271h1.499c0.238,0,0.432-0.192,0.432-0.432v-1.526
			c0.172-0.057,0.338-0.103,0.498-0.136c0.238-0.05,0.483-0.075,0.729-0.075c0.601,0,1.013,0.127,1.223,0.377
			c0.157,0.188,0.346,0.623,0.346,1.626v0.353c-2.604,0.64-4.251,1.217-5.032,1.762c-0.881,0.615-1.327,1.471-1.327,2.545
			c0,0.95,0.297,1.732,0.886,2.324c0.588,0.592,1.373,0.893,2.332,0.893c0.562,0,1.168-0.126,1.801-0.375
			c0.461-0.182,0.96-0.439,1.489-0.77l0.149,0.66c0.045,0.196,0.22,0.336,0.42,0.336h3.064c0.237,0,0.431-0.193,0.431-0.432v-0.787
			C38.755,38.982,38.584,38.797,38.363,38.775z M31.31,38.186c-0.236-0.24-0.351-0.568-0.351-1.001c0-0.539,0.222-0.965,0.68-1.3
			c0.469-0.344,1.443-0.733,2.903-1.16v3.016c-0.464,0.254-0.882,0.449-1.244,0.582C32.336,38.677,31.703,38.59,31.31,38.186z"/>
		<path fill="#087C66" d="M36.324,29.727c-0.599-0.573-1.537-0.864-2.787-0.864c-1.367,0-2.507,0.255-3.388,0.759
			c-0.96,0.548-1.446,1.268-1.446,2.14c0,0.378,0.089,0.649,0.271,0.831c0.181,0.182,0.456,0.271,0.842,0.271h1.499
			c0.238,0,0.432-0.192,0.432-0.432v-1.526c0.172-0.057,0.338-0.103,0.498-0.136c0.238-0.05,0.483-0.075,0.729-0.075
			c0.601,0,1.013,0.127,1.223,0.377c0.157,0.188,0.346,0.623,0.346,1.626v0.353c-2.604,0.64-4.251,1.217-5.032,1.762
			c-0.881,0.615-1.327,1.471-1.327,2.545c0,0.95,0.297,1.732,0.886,2.324c0.588,0.592,1.373,0.893,2.332,0.893
			c0.562,0,1.168-0.126,1.801-0.375c0.352-0.139,0.732-0.336,1.126-0.562l2.906-5.033v-2.171
			C37.233,31.216,36.928,30.306,36.324,29.727z M34.542,37.74c-0.464,0.254-0.882,0.449-1.244,0.582
			c-0.962,0.354-1.595,0.268-1.988-0.137c-0.236-0.24-0.351-0.568-0.351-1.001c0-0.539,0.222-0.965,0.68-1.3
			c0.469-0.344,1.443-0.733,2.903-1.16V37.74z"/>
		<path fill="#055B4A" d="M50.762,24.314H48.54c-0.239,0-0.432,0.193-0.432,0.432v6.125h-5.084v-6.125
			c0-0.238-0.192-0.432-0.432-0.432h-2.221c-0.238,0-0.432,0.193-0.432,0.432v15.246c0,0.238,0.193,0.432,0.432,0.432h2.221
			c0.239,0,0.432-0.193,0.432-0.432v-6.299h5.084v6.299c0,0.238,0.192,0.432,0.432,0.432h2.222c0.238,0,0.432-0.193,0.432-0.432
			V24.746C51.193,24.508,51,24.314,50.762,24.314z"/>
		<path fill="#087C66" d="M42.998,24.617c-0.055-0.174-0.213-0.303-0.405-0.303h-2.221c-0.238,0-0.432,0.193-0.432,0.432v5.166
			L42.998,24.617z"/>
	</g>
</g>
</svg>
