<?xml version="1.0" encoding="utf-8"?>
<!-- Generator: Adobe Illustrator 16.0.0, SVG Export Plug-In . SVG Version: 6.00 Build 0)  -->
<!DOCTYPE svg PUBLIC "-//W3C//DTD SVG 1.1//EN" "http://www.w3.org/Graphics/SVG/1.1/DTD/svg11.dtd">
<svg version="1.1" id="Layer_1" xmlns="http://www.w3.org/2000/svg" xmlns:xlink="http://www.w3.org/1999/xlink" x="0px" y="0px"
	 width="65px" height="65px" viewBox="0 0 65 65" enable-background="new 0 0 65 65" xml:space="preserve">
<g>
	<g>
		<g>
			<path fill="#CE1332" d="M31.105,26.369c1.273,1.432,0.465,4.228-1.805,6.249c-2.27,2.018-14.475,10.794-15.75,9.365
				c-1.271-1.434,8.873-12.532,11.143-14.55C26.961,25.415,29.832,24.938,31.105,26.369z"/>
			<path fill="#CE1332" d="M33.895,26.369c-1.273,1.432-0.465,4.228,1.805,6.249c2.27,2.018,14.475,10.794,15.75,9.365
				c1.271-1.434-8.873-12.532-11.143-14.55C38.039,25.415,35.168,24.938,33.895,26.369z"/>
		</g>
		<g>
			<g>
				<g>
					<g>
						<g>
							<path fill="#B50B30" d="M44.498,46.446c0,2.476-2.008,15.827-4.486,15.827c-2.475,0-4.482-13.352-4.482-15.827
								s2.008-4.484,4.482-4.484C42.49,41.962,44.498,43.971,44.498,46.446z"/>
							<path fill="#B50B30" d="M29.473,46.446c0,2.476-2.008,15.827-4.486,15.827c-2.475,0-4.482-13.352-4.482-15.827
								s2.008-4.484,4.482-4.484C27.465,41.962,29.473,43.971,29.473,46.446z"/>
							<g>
								<g>
									<path fill="#CE1332" d="M45.15,40.521c0,16.038-5.662,10.697-12.65,10.697c-6.986,0-12.65,5.341-12.65-10.697
										c0-9.17,5.666-16.603,12.65-16.603C39.486,23.919,45.15,31.352,45.15,40.521z"/>
									<path fill="#B50B30" d="M23.619,28.705c2.561,1.054,5.605,1.59,8.883,1.59c3.275,0,6.32-0.536,8.879-1.589
										c-2.284-2.958-5.419-4.787-8.881-4.787C29.039,23.919,25.904,25.747,23.619,28.705z"/>
									<g>
										<path fill="#F2EB03" d="M21.562,54.085c0.699,3.466,1.691,6.945,2.814,7.916h1.219c1.125-0.971,2.119-4.45,2.817-7.916
											H21.562z"/>
										<path fill="#F2EB03" d="M36.588,54.085c0.699,3.466,1.691,6.945,2.814,7.916h1.219c1.126-0.971,2.119-4.45,2.816-7.916
											H36.588z"/>
									</g>
									<g>
										<path fill="#F2EB03" d="M30.033,62.354c0,1.896-2.26,2.146-5.045,2.146s-5.045-0.249-5.045-2.146
											c0-1.897,2.26-4.508,5.045-4.508S30.033,60.457,30.033,62.354z"/>
										<path fill="#EFC206" d="M30.033,62.354c0,1.896-2.26,2.146-5.045,2.146s-5.045-0.249-5.045-2.146"/>
									</g>
									<g>
										<path fill="#F2EB03" d="M45.059,62.354c0,1.896-2.26,2.146-5.045,2.146s-5.045-0.249-5.045-2.146
											c0-1.897,2.26-4.508,5.045-4.508S45.059,60.457,45.059,62.354z"/>
										<path fill="#EFC206" d="M45.059,62.354c0,1.896-2.26,2.146-5.045,2.146s-5.045-0.249-5.045-2.146"/>
									</g>
									<g>
										<path fill="#CE1332" d="M48.871,16.275c0,7.999-7.33,12.02-16.369,12.02c-9.041,0-16.373-4.021-16.373-12.02
											c0-8.001,7.332-15.775,16.373-15.775C41.541,0.5,48.871,8.274,48.871,16.275z"/>
										<path fill="#B50B30" d="M48.871,16.275c0,7.999-7.33,12.745-16.369,12.745c-9.041,0-16.373-4.746-16.373-12.745"/>
									</g>
								</g>
							</g>
							<path fill="#B50B30" d="M16.113,37.03c-1.823,2.377-3.057,4.396-2.562,4.953c0.485,0.544,2.557-0.393,5.059-1.871
								l0.293-0.293L16.113,37.03z"/>
							<path fill="#B50B30" d="M46.004,39.882c2.674,1.609,4.936,2.674,5.445,2.102c0.496-0.559-0.746-2.587-2.576-4.971
								L46.004,39.882z"/>
						</g>
					</g>
				</g>
			</g>
		</g>
		<ellipse fill="#DDDCCA" cx="32.5" cy="36.396" rx="8.5" ry="4.938"/>
		<path fill="#CCCAB6" d="M41,36.396c0,2.727-3.806,4.938-8.5,4.938S24,39.122,24,36.396"/>
		<path fill="#EFC206" d="M20.49,47.749h24.02c0.209-0.859,0.369-1.876,0.477-3.083H20.014C20.121,45.873,20.281,46.89,20.49,47.749
			z"/>
		<path fill="#E0B373" d="M25.533,19.27v8.043l0.188,0.108c2.068,0.576,4.359,0.874,6.781,0.874c2.418,0,4.708-0.298,6.775-0.872
			l0.189-0.11V19.27L32.5,22.499L25.533,19.27z"/>
		<path fill="#F4CB89" d="M25.533,21.145v6.168l0.188,0.108c2.068,0.576,4.359,0.874,6.781,0.874c2.418,0,4.708-0.298,6.775-0.872
			l0.189-0.11v-6.168L32.5,24.374L25.533,21.145z"/>
		<g>
			<g>
				<polygon fill="#EBF0F2" points="28.708,18 22.708,14.835 25.708,12.335 29.041,15.5 				"/>
				<polygon fill="#ADB9BC" points="28.708,18 22.708,14.835 25.708,15.585 29.041,15.5 				"/>
			</g>
			<g>
				<polygon fill="#EBF0F2" points="36.292,18 42.292,14.835 39.292,12.335 35.959,15.5 				"/>
				<polygon fill="#ADB9BC" points="36.292,18 42.292,14.835 39.292,15.585 35.959,15.5 				"/>
			</g>
		</g>
		<g>
			<polygon fill="#EFC206" points="17.479,12.666 17.479,3.166 21.646,7.333 			"/>
			<polygon fill="#EFC206" points="47.521,12.666 47.521,3.166 43.354,7.333 			"/>
		</g>
	</g>
	<polygon fill="#EAC00F" points="32.125,33.12 28.944,36.302 31.438,36.302 29.977,39.354 35.736,35.786 32.728,35.786 
		35.393,33.12 	"/>
</g>
</svg>
