<?xml version="1.0" encoding="utf-8"?>
<!-- Generator: Adobe Illustrator 16.0.0, SVG Export Plug-In . SVG Version: 6.00 Build 0)  -->
<!DOCTYPE svg PUBLIC "-//W3C//DTD SVG 1.1//EN" "http://www.w3.org/Graphics/SVG/1.1/DTD/svg11.dtd">
<svg version="1.1" id="Layer_1" xmlns="http://www.w3.org/2000/svg" xmlns:xlink="http://www.w3.org/1999/xlink" x="0px" y="0px"
	 width="64px" height="64px" viewBox="0 0 64 64" enable-background="new 0 0 64 64" xml:space="preserve">
<g>
	<g>
		<path fill="#A3B2B0" d="M18,53V29.8c0-4.6-3.8-8.4-8.5-8.4S1,25.2,1,29.8V53H18z"/>
		<path fill="#90A09D" d="M10,53h8V29.8c0-4.6-3.8-8.4-8.5-8.4"/>
		<path fill="#A3B2B0" d="M19,61c0,0.5-0.9,1-1.4,1H1.9C1.4,62,1,61.5,1,61v-3.2C1,57.2,1.4,57,1.9,57h15.7c0.5,0,1.4,0.2,1.4,0.7
			V61z"/>
		<path fill="#90A09D" d="M1,57.7C1,57.2,1.4,57,1.9,57h15.7c0.5,0,1.4,0.2,1.4,0.7V61c0,0.5-0.6,1-1.2,1"/>
		<rect x="3" y="53" fill="#4C5655" width="13" height="4"/>
		<polyline fill="#414C4B" points="10,53 16,53 16,57 		"/>
		<path fill="#798483" d="M1,29.9V53h17V29.9c0-0.6-0.1-0.9-0.2-1.9H1.2C1,28.9,1,29.3,1,29.9z"/>
		<path fill="#616B6A" d="M17.8,28H10v25h8V29.9C18,29.3,18,28.9,17.8,28z"/>
		<g>
			<g>
				<circle fill="#616B6A" cx="9.8" cy="33.5" r="2"/>
				<path fill="#798483" d="M9.8,31.6c1.1,0,2,0.9,2,2c0,1.1-0.9,1.9-2,1.9"/>
			</g>
			<g>
				<path fill="#616B6A" d="M11.7,40.5c0,1.1-0.9,2-2,2s-2-0.9-2-2c0-1.1,0.9-1.9,2-1.9S11.7,39.4,11.7,40.5z"/>
				<path fill="#798483" d="M9.8,38.5c1.1,0,2,0.9,2,1.9c0,1.1-0.9,2-2,2"/>
			</g>
			<g>
				<circle fill="#616B6A" cx="9.8" cy="47.4" r="2"/>
				<path fill="#798483" d="M9.8,45.5c1.1,0,2,0.9,2,1.9c0,1.1-0.9,2-2,2"/>
			</g>
		</g>
	</g>
	<g>
		<path fill="#F4CC25" d="M40,53V29.8c0-4.6-3.3-27.8-8-27.8c-4.7,0-8,23.1-8,27.8V53H40z"/>
		<path fill="#E8B21A" d="M32,53h8V29.8c0-4.6-3.3-27.8-8-27.8"/>
		<path fill="#F4CC25" d="M41,61c0,0.5-0.6,1-1.1,1H24.1c-0.5,0-1.1-0.5-1.1-1v-3.2c0-0.5,0.6-0.7,1.1-0.7h15.7
			c0.5,0,1.1,0.2,1.1,0.7V61z"/>
		<path fill="#E8B21A" d="M23,57.7c0-0.5,0.6-0.7,1.1-0.7h15.7c0.5,0,1.1,0.2,1.1,0.7V61c0,0.5-0.5,1-1,1"/>
		<rect x="26" y="53" fill="#4C5655" width="12" height="4"/>
		<polyline fill="#414C4B" points="32,53 38,53 38,57 		"/>
		<path fill="#EAAA0A" d="M24,29.9V53h16V29.9c0-0.6,0-0.9-0.1-1.9H24.1C24,29,24,29.3,24,29.9z"/>
		<path fill="#D87F09" d="M39.9,28H32v25h8V29.9C40,29.3,40,29,39.9,28z"/>
		<g>
			<g>
				<circle fill="#D87F09" cx="32" cy="33.5" r="2"/>
				<path fill="#EAAA0A" d="M32,31.6c1.1,0,2,0.9,2,2c0,1.1-0.9,1.9-2,1.9"/>
			</g>
			<g>
				<path fill="#D87F09" d="M34,40.5c0,1.1-0.9,2-2,2s-2-0.9-2-2c0-1.1,0.9-1.9,2-1.9S34,39.4,34,40.5z"/>
				<path fill="#EAAA0A" d="M32,38.5c1.1,0,2,0.9,2,1.9c0,1.1-0.9,2-2,2"/>
			</g>
			<g>
				<circle fill="#D87F09" cx="32" cy="47.4" r="2"/>
				<path fill="#EAAA0A" d="M32,45.5c1.1,0,2,0.9,2,1.9c0,1.1-0.9,2-2,2"/>
			</g>
		</g>
	</g>
	<g>
		<g>
			<g>
				<path fill="#EAAA0A" d="M47,34v23h14V34c0-0.6,0-2,0-2H47.2C47.1,33,47,33.5,47,34z"/>
				<path fill="#D87F09" d="M61,32h-7v25h7V34C61,33.5,61,32,61,32z"/>
			</g>
			<path fill="#CE351B" d="M63,61c0,0.5-0.4,1-0.9,1H46.4c-0.5,0-1.4-0.5-1.4-1v-3.2c0-0.5,0.9-0.7,1.4-0.7h15.7
				c0.5,0,0.9,0.2,0.9,0.7V61z"/>
			<path fill="#AD1905" d="M45,57.7c0-0.5,0.9-0.7,1.4-0.7h15.7c0.5,0,0.9,0.2,0.9,0.7V61c0,0.5-0.4,1-0.9,1"/>
			<g>
				<path fill="#CE351B" d="M47,24.4V47h14V24.4c0-0.6-0.2-1.2-0.4-1.4H47.2C47.1,23,47,23.9,47,24.4z"/>
				<path fill="#AD1905" d="M60.8,23H54v24h7V24.4C61,23.9,61,23.4,60.8,23z"/>
			</g>
			<g>
				<g>
					<circle fill="#AD1905" cx="54.2" cy="28.1" r="2"/>
					<path fill="#CE351B" d="M54.2,26.1c1.1,0,2,0.9,2,2c0,1.1-0.9,1.9-2,1.9"/>
				</g>
				<g>
					<circle fill="#AD1905" cx="54.2" cy="35" r="2"/>
					<path fill="#CE351B" d="M54.2,33c1.1,0,2,0.9,2,1.9c0,1.1-0.9,2-2,2"/>
				</g>
				<g>
					<circle fill="#AD1905" cx="54.2" cy="41.9" r="2"/>
					<path fill="#CE351B" d="M54.2,40c1.1,0,2,0.9,2,2c0,1.1-0.9,2-2,2"/>
				</g>
			</g>
		</g>
		<path fill="#CE351B" d="M60.8,23c0,0.7-0.6,1-1.1,1H47.9c-0.4,0-0.8-0.6-0.8-1l0,0c0-0.4,0.4-1,0.8-1H60
			C60.4,22,60.8,22.4,60.8,23L60.8,23z"/>
	</g>
</g>
</svg>
