<?xml version="1.0" encoding="utf-8"?>
<!-- Generator: Adobe Illustrator 16.0.0, SVG Export Plug-In . SVG Version: 6.00 Build 0)  -->
<!DOCTYPE svg PUBLIC "-//W3C//DTD SVG 1.1//EN" "http://www.w3.org/Graphics/SVG/1.1/DTD/svg11.dtd">
<svg version="1.1" xmlns="http://www.w3.org/2000/svg" xmlns:xlink="http://www.w3.org/1999/xlink" x="0px" y="0px" width="65px"
	 height="65px" viewBox="0 0 65 65" enable-background="new 0 0 65 65" xml:space="preserve">
<g id="Layer_1">
	<g>
		<g>
			<path fill="#770B0B" d="M60.011,46.441H41.962c-2.474,0-4.486-2.014-4.486-4.486c0-1.34,1.086-2.426,2.425-2.426
				c1.216,0,2.224,0.896,2.397,2.064H59.65V11.891H41.962c-1.338,0-2.424-1.086-2.424-2.424c0-1.34,1.086-2.426,2.424-2.426h18.049
				c2.475,0,4.489,2.014,4.489,4.488v30.426C64.5,44.428,62.485,46.441,60.011,46.441z"/>
		</g>
		<path fill="#B50202" d="M48.993,59.373c0,1.34-1.086,2.424-2.425,2.424H5.351c-1.34,0-2.426-1.084-2.426-2.424V6.436
			c0-1.34,1.086-2.424,2.426-2.424h41.218c1.339,0,2.425,1.084,2.425,2.424V59.373z"/>
		<path fill="#930707" d="M2.925,6.436c0-1.34,1.086-2.424,2.426-2.424h41.218c1.339,0,2.425,1.084,2.425,2.424v52.938
			c0,1.34-1.086,2.424-2.425,2.424"/>
		<path fill="#C9BE6D" d="M51.418,5.172c0,1.088-0.882,1.971-1.971,1.971H2.47c-1.088,0-1.97-0.883-1.97-1.971l0,0
			c0-1.088,0.882-1.969,1.97-1.969h46.978C50.536,3.203,51.418,4.084,51.418,5.172L51.418,5.172z"/>
		<path fill="#DDD187" d="M0.5,5.172L0.5,5.172c0-1.088,0.882-1.969,1.97-1.969h46.978c1.089,0,1.971,0.881,1.971,1.969l0,0"/>
		<path fill="#CE0D0D" d="M8.785,49.271c0,1.004-0.813,1.818-1.818,1.818l0,0c-1.006,0-1.818-0.814-1.818-1.818V20.578
			c0-1.004,0.812-1.818,1.818-1.818l0,0c1.005,0,1.818,0.814,1.818,1.818V49.271z"/>
	</g>
</g>
<g id="nyt_x5F_exporter_x5F_info" display="none">
</g>
</svg>
