<?xml version="1.0" encoding="utf-8"?>
<!-- Generator: Adobe Illustrator 16.0.0, SVG Export Plug-In . SVG Version: 6.00 Build 0)  -->
<!DOCTYPE svg PUBLIC "-//W3C//DTD SVG 1.1//EN" "http://www.w3.org/Graphics/SVG/1.1/DTD/svg11.dtd">
<svg version="1.1" xmlns="http://www.w3.org/2000/svg" xmlns:xlink="http://www.w3.org/1999/xlink" x="0px" y="0px" width="65px"
	 height="65px" viewBox="0 0 65 65" enable-background="new 0 0 65 65" xml:space="preserve">
<g id="Layer_1">
	<g>
		<g>
			<g>
				<g>
					<g>
						<polygon fill="#FF6EB0" points="49.874,3.335 15.126,3.335 21.683,14.688 43.319,14.688 						"/>
					</g>
					<g>
						<path fill="#A544A2" d="M43.319,17.188H21.683c-0.893,0-1.719-0.477-2.165-1.25L12.961,4.585c-0.446-0.773-0.446-1.727,0-2.5
							s1.271-1.25,2.165-1.25h34.748c0.894,0,1.719,0.477,2.164,1.25c0.447,0.773,0.447,1.727,0,2.5l-6.554,11.354
							C45.038,16.712,44.213,17.188,43.319,17.188z M23.126,12.188h18.75l3.668-6.354H19.457L23.126,12.188z"/>
					</g>
				</g>
				<g>
					<g>
						<polygon fill="#73FFFF" points="43.319,14.688 21.683,14.688 32.501,33.427 						"/>
					</g>
					<g>
						<polygon fill="#11E9EF" points="43.319,14.688 31.683,14.688 32.501,33.427 						"/>
					</g>
					<g>
						<path fill="#A544A2" d="M32.501,35.927c-0.894,0-1.719-0.477-2.166-1.25L19.518,15.938c-0.446-0.773-0.446-1.727,0-2.5
							s1.271-1.25,2.165-1.25h21.637c0.894,0,1.719,0.477,2.165,1.25s0.446,1.727,0,2.5L34.666,34.677
							C34.22,35.45,33.395,35.927,32.501,35.927z M26.013,17.188l6.488,11.238l6.488-11.238H26.013z"/>
					</g>
				</g>
			</g>
			<g>
				<g>
					<g>
						<polygon fill="#FF6EB0" points="15.126,61.665 49.874,61.665 43.319,50.312 21.683,50.312 						"/>
					</g>
					<g>
						<path fill="#A544A2" d="M49.874,64.165H15.126c-0.894,0-1.719-0.477-2.165-1.25s-0.446-1.727,0-2.5l6.557-11.354
							c0.446-0.773,1.272-1.25,2.165-1.25h21.637c0.894,0,1.719,0.477,2.165,1.25l6.554,11.354c0.447,0.773,0.447,1.727,0,2.5
							C51.593,63.688,50.768,64.165,49.874,64.165z M19.457,59.165h26.087l-3.668-6.354h-18.75L19.457,59.165z"/>
					</g>
				</g>
				<g>
					<g>
						<polygon fill="#73FFFF" points="21.683,50.312 43.319,50.312 32.499,31.573 						"/>
					</g>
					<g>
						<polygon fill="#11E9EF" points="21.683,50.312 33.319,50.312 32.499,31.573 						"/>
					</g>
					<g>
						<path fill="#A544A2" d="M43.319,52.812H21.683c-0.894,0-1.719-0.477-2.165-1.25s-0.446-1.727,0-2.5l10.816-18.738
							c0.446-0.773,1.271-1.25,2.165-1.25c0.893,0,1.719,0.477,2.164,1.25l10.821,18.738c0.446,0.773,0.446,1.727,0,2.5
							S44.213,52.812,43.319,52.812z M26.013,47.812h12.977l-6.49-11.238L26.013,47.812z"/>
					</g>
				</g>
			</g>
		</g>
		<g>
			<g>
				<circle fill="#A544A2" cx="36.562" cy="56.167" r="1.062"/>
			</g>
			<g>
				<circle fill="#A544A2" cx="32.5" cy="56.167" r="1.063"/>
			</g>
			<g>
				<circle fill="#A544A2" cx="28.437" cy="56.167" r="1.063"/>
			</g>
		</g>
	</g>
</g>
<g id="nyt_x5F_exporter_x5F_info" display="none">
</g>
</svg>
