<?xml version="1.0" encoding="utf-8"?>
<!-- Generator: Adobe Illustrator 16.0.0, SVG Export Plug-In . SVG Version: 6.00 Build 0)  -->
<!DOCTYPE svg PUBLIC "-//W3C//DTD SVG 1.1//EN" "http://www.w3.org/Graphics/SVG/1.1/DTD/svg11.dtd">
<svg version="1.1" id="Layer_1" xmlns="http://www.w3.org/2000/svg" xmlns:xlink="http://www.w3.org/1999/xlink" x="0px" y="0px"
	 width="65px" height="65px" viewBox="0 0 65 65" enable-background="new 0 0 65 65" xml:space="preserve">
<g>
	<path fill="#093C84" d="M47.918,8.959c0,0.69-0.559,1.25-1.249,1.25h-8.417c-0.69,0-1.25-0.56-1.25-1.25l0,0
		c0-0.69,0.56-1.25,1.25-1.25h8.417C47.36,7.709,47.918,8.269,47.918,8.959L47.918,8.959z"/>
	<g>
		<g>
			<g>
				<g>
					<g>
						<path fill="#232728" d="M39.682,46.446c0,2.476-2.008,15.827-4.486,15.827c-2.475,0-4.482-13.352-4.482-15.827
							s2.008-4.484,4.482-4.484C37.674,41.962,39.682,43.971,39.682,46.446z"/>
						<path fill="#232728" d="M24.657,46.446c0,2.476-2.008,15.827-4.486,15.827c-2.475,0-4.482-13.352-4.482-15.827
							s2.008-4.484,4.482-4.484C22.649,41.962,24.657,43.971,24.657,46.446z"/>
						<path fill="#BC8158" d="M17.031,55.416c0.809,3.597,1.917,6.857,3.14,6.857c1.225,0,2.334-3.261,3.144-6.857H17.031z"/>
						<path fill="#BC8158" d="M32.056,55.416c0.809,3.597,1.917,6.857,3.14,6.857c1.225,0,2.334-3.261,3.144-6.857H32.056z"/>
					</g>
					<path fill="#DD3A14" d="M40.334,40.521c0,16.038-5.662,10.697-12.65,10.697c-6.986,0-12.65,5.341-12.65-10.697
						c0-9.17,5.666-16.603,12.65-16.603C34.67,23.919,40.334,31.352,40.334,40.521z"/>
					<path fill="#DD3A14" d="M32.045,27.708c1.432-1.273,4.229-0.465,6.25,1.805c2.018,2.27,10.793,14.475,9.365,15.75
						C46.227,46.534,35.127,36.39,33.11,34.12C31.092,31.853,30.616,28.981,32.045,27.708z"/>
					<path fill="#BC2A0D" d="M27.684,44.719c-6.291,0-11.507,4.321-12.484-6.524c-0.107,0.648-0.166,1.414-0.166,2.327
						c0,16.038,5.664,10.697,12.65,10.697c6.988,0,12.65,5.341,12.65-10.697c0-0.913-0.059-1.679-0.166-2.327
						C39.192,49.04,33.977,44.719,27.684,44.719z"/>
					<g>
						<path fill="#EFA30C" d="M25.217,62.354c0,1.896-2.26,2.146-5.045,2.146s-5.045-0.249-5.045-2.146
							c0-1.897,2.26-4.508,5.045-4.508S25.217,60.457,25.217,62.354z"/>
						<path fill="#D68A05" d="M25.217,62.354c0,1.896-2.26,2.146-5.045,2.146s-5.045-0.249-5.045-2.146"/>
					</g>
					<g>
						<path fill="#EFA30C" d="M40.243,62.354c0,1.896-2.26,2.146-5.045,2.146s-5.045-0.249-5.045-2.146
							c0-1.897,2.26-4.508,5.045-4.508S40.243,60.457,40.243,62.354z"/>
						<path fill="#D68A05" d="M40.243,62.354c0,1.896-2.26,2.146-5.045,2.146s-5.045-0.249-5.045-2.146"/>
					</g>
					<g>
						<path fill="#DD3A14" d="M29.013,29.854c-0.113-1.912-2.662-3.318-5.695-3.143c-3.032,0.178-17.868,2.604-17.76,4.515
							c0.115,1.913,15.137,2.588,18.168,2.41C26.755,33.459,29.123,31.766,29.013,29.854z"/>
					</g>
					<circle fill="#A56B44" cx="27.684" cy="27.333" r="3.375"/>
					<g>
						<path fill="#C48960" d="M44.055,16.275c0,7.999-7.33,12.02-16.369,12.02c-9.041,0-16.373-4.021-16.373-12.02
							c0-8.001,7.332-15.775,16.373-15.775C36.725,0.5,44.055,8.274,44.055,16.275z"/>
						<path fill="#BC8158" d="M44.055,16.275c0,7.999-7.33,12.02-16.369,12.02c-9.041,0-16.373-4.021-16.373-12.02"/>
					</g>
					<g>
						<g>
							<circle fill="#113E49" cx="21.732" cy="18.903" r="1.464"/>
							<path d="M23.197,18.903c0,0.811-0.656,1.465-1.465,1.465s-1.464-0.654-1.464-1.465"/>
							<g>
								<path fill="#E5A376" d="M24.62,21.957c-0.077,0-0.157-0.028-0.217-0.091c-0.717-0.714-1.666-1.107-2.673-1.107h-0.002
									c-1.009,0-1.955,0.394-2.666,1.106c-0.121,0.121-0.316,0.124-0.436,0.001c-0.121-0.117-0.125-0.312-0.004-0.434
									c0.83-0.831,1.931-1.29,3.105-1.29h0.002c1.176,0,2.279,0.456,3.111,1.288c0.119,0.119,0.119,0.318,0,0.436
									C24.781,21.929,24.702,21.957,24.62,21.957z"/>
							</g>
						</g>
						<g>
							<circle fill="#113E49" cx="37.303" cy="18.903" r="1.464"/>
							<path d="M35.839,18.903c0,0.811,0.654,1.465,1.464,1.465s1.464-0.654,1.464-1.465"/>
							<g>
								<path fill="#E5A376" d="M34.416,21.957c0.076,0,0.156-0.028,0.217-0.091c0.715-0.714,1.664-1.107,2.671-1.107h0.003
									c1.008,0,1.957,0.394,2.668,1.106c0.119,0.121,0.314,0.124,0.436,0.001c0.121-0.117,0.123-0.312,0.002-0.434
									c-0.826-0.831-1.932-1.29-3.105-1.29h-0.003c-1.173,0-2.275,0.456-3.11,1.288c-0.117,0.119-0.117,0.318,0,0.436
									C34.255,21.929,34.333,21.957,34.416,21.957z"/>
							</g>
						</g>
					</g>
				</g>
			</g>
			<path fill="#7A0B0B" d="M33.844,22.716c0,1.652-1.831,2.992-4.094,2.992c-2.259,0-4.09-1.34-4.09-2.992
				c0-1.65,1.831-0.849,4.09-0.849C32.013,21.867,33.844,21.065,33.844,22.716z"/>
			<path fill="#AA1111" d="M26.583,24.587c0.75,0.678,1.883,1.121,3.168,1.121c1.288,0,2.422-0.442,3.172-1.121
				c-0.75-0.678-1.884-1.121-3.17-1.121C28.465,23.466,27.333,23.908,26.583,24.587z"/>
		</g>
	</g>
	<path fill="#1679DB" d="M14.124,7.75h27.122c-2.943-4.222-7.919-7.25-13.56-7.25C22.043,0.5,17.068,3.528,14.124,7.75z"/>
	<path fill="#2B9BF7" d="M27.686,0.5c-5.643,0-10.618,3.028-13.562,7.25"/>
	<path d="M26.502,5.667c0,0.46-0.373,0.833-0.833,0.833h-3.335c-0.459,0-0.832-0.373-0.832-0.833l0,0
		c0-0.46,0.373-0.833,0.832-0.833h3.335C26.129,4.834,26.502,5.207,26.502,5.667L26.502,5.667z"/>
	<g>
		<g>
			<circle fill="#EF8A11" cx="50.359" cy="50.69" r="9.083"/>
			<path fill="#CC6D05" d="M56.782,44.268c3.548,3.547,3.548,9.298,0,12.846c-3.547,3.548-9.299,3.548-12.846,0"/>
		</g>
		<g>
			<path fill="#994C00" d="M43.227,45.077c1.337,1.492,2.158,3.457,2.158,5.613s-0.821,4.121-2.158,5.614
				c0.271,0.344,0.567,0.667,0.885,0.968c1.595-1.734,2.57-4.046,2.57-6.582s-0.976-4.848-2.57-6.582
				C43.794,44.41,43.499,44.733,43.227,45.077z"/>
			<path fill="#994C00" d="M55.333,50.69c0-2.156,0.819-4.121,2.157-5.613c-0.271-0.344-0.566-0.667-0.884-0.969
				c-1.595,1.734-2.571,4.046-2.571,6.582c0,2.463,0.918,4.778,2.576,6.578c0.314-0.299,0.607-0.62,0.877-0.961
				C56.1,54.759,55.333,52.786,55.333,50.69z"/>
			<path fill="#994C00" d="M41.276,50.69c0,0.22,0.018,0.434,0.033,0.648H59.41c0.016-0.215,0.033-0.429,0.033-0.648
				c0-0.219-0.018-0.434-0.033-0.648H41.309C41.293,50.257,41.276,50.472,41.276,50.69z"/>
			<path fill="#994C00" d="M49.71,41.64v18.102c0.216,0.016,0.43,0.032,0.648,0.032s0.434-0.017,0.649-0.032V41.64
				c-0.216-0.015-0.431-0.033-0.649-0.033S49.926,41.625,49.71,41.64z"/>
		</g>
	</g>
	<path fill="#FC7459" d="M34.9,39.231c0-0.151-0.013-0.301-0.022-0.449h-2.803c0.102-1.315,0.641-2.51,1.473-3.438
		c-0.188-0.238-0.392-0.462-0.611-0.671c-1.01,1.098-1.654,2.53-1.76,4.109h-2.118v-5.819c-0.149-0.011-0.299-0.023-0.45-0.023
		s-0.3,0.013-0.449,0.023v5.819H26.04c-0.104-1.579-0.749-3.012-1.758-4.109c-0.221,0.209-0.426,0.433-0.613,0.671
		c0.832,0.929,1.371,2.123,1.474,3.438H22.34c-0.012,0.148-0.023,0.298-0.023,0.449c0,0.152,0.012,0.301,0.023,0.449h2.802
		c-0.103,1.315-0.642,2.51-1.474,3.439c0.188,0.238,0.393,0.462,0.613,0.67c1.009-1.098,1.653-2.53,1.758-4.109h2.119V45.5
		c0.149,0.011,0.298,0.022,0.449,0.022s0.301-0.012,0.45-0.022v-5.819h2.117c0.103,1.537,0.717,2.971,1.763,4.107
		c0.219-0.207,0.422-0.43,0.608-0.666c-0.862-0.961-1.374-2.158-1.473-3.441h2.804C34.887,39.532,34.9,39.384,34.9,39.231z"/>
</g>
</svg>
