<?xml version="1.0" encoding="utf-8"?>
<!-- Generator: Adobe Illustrator 16.0.0, SVG Export Plug-In . SVG Version: 6.00 Build 0)  -->
<!DOCTYPE svg PUBLIC "-//W3C//DTD SVG 1.1//EN" "http://www.w3.org/Graphics/SVG/1.1/DTD/svg11.dtd">
<svg version="1.1" id="Layer_1" xmlns="http://www.w3.org/2000/svg" xmlns:xlink="http://www.w3.org/1999/xlink" x="0px" y="0px"
	 width="64px" height="64px" viewBox="0 0 64 64" enable-background="new 0 0 64 64" xml:space="preserve">
<g>
	<g>
		<g>
			<path fill="#F9B2DB" d="M27.7,37.8c0,7.8-4.3,11-9.7,11c-5.3,0-9.7-3.1-9.7-11c0-7.8,4.3-15.5,9.7-15.5
				C23.4,22.3,27.7,30,27.7,37.8z"/>
			<path fill="#EA81B8" d="M18.1,22.3c5.3,0,9.7,7.7,9.7,15.5c0,7.8-4.3,11-9.7,11"/>
			
				<ellipse transform="matrix(0.8472 0.5313 -0.5313 0.8472 17.0692 -2.8776)" fill="#FCC3E3" cx="13.5" cy="28.2" rx="1.5" ry="4.6"/>
			<path fill="#FCC3E3" d="M10.6,34.6c-0.2,0.7-0.5,1.3-0.8,1.2c-0.2-0.1-0.3-0.7-0.1-1.5c0.2-0.7,0.5-1.3,0.8-1.2
				C10.7,33.2,10.8,33.9,10.6,34.6z"/>
		</g>
		<g>
			<path fill="#25CEB2" d="M56.3,37.8c0,7.8-4.3,11-9.7,11c-5.3,0-9.7-3.1-9.7-11c0-7.8,4.3-15.5,9.7-15.5
				C52,22.3,56.3,30,56.3,37.8z"/>
			<path fill="#19BCA4" d="M46.7,22.3c5.3,0,9.7,7.7,9.7,15.5c0,7.8-4.3,11-9.7,11"/>
			
				<ellipse transform="matrix(0.8473 0.5312 -0.5312 0.8473 21.4312 -18.0666)" fill="#58EDD0" cx="42.1" cy="28.2" rx="1.5" ry="4.6"/>
			<path fill="#F7F2D0" d="M39.2,34.6c-0.2,0.7-0.5,1.3-0.8,1.2c-0.2-0.1-0.3-0.7-0.1-1.5c0.2-0.7,0.5-1.3,0.8-1.2
				C39.3,33.2,39.4,33.9,39.2,34.6z"/>
		</g>
	</g>
	<g>
		<path fill="#34D9EA" d="M44.5,35.1c0,9.8-5.4,13.7-12.1,13.7c-6.7,0-12.1-3.9-12.1-13.7s5.4-19.4,12.1-19.4
			C39,15.7,44.5,25.3,44.5,35.1z"/>
		<path fill="#0892B2" d="M32.4,15.7c6.7,0,12.1,9.6,12.1,19.4S39,48.7,32.4,48.7"/>
		
			<ellipse transform="matrix(0.8472 0.5313 -0.5313 0.8472 16.3541 -10.6533)" fill="#C0F8FC" cx="26.7" cy="23.1" rx="1.9" ry="5.7"/>
		<path fill="#C0F8FC" d="M23,31.1c-0.2,0.9-0.7,1.6-1,1.6c-0.3-0.1-0.4-0.9-0.1-1.8c0.2-0.9,0.7-1.6,1-1.6
			C23.2,29.3,23.2,30.1,23,31.1z"/>
	</g>
	<path fill="#AA6049" d="M3,41c2.3,12,14.4,19.7,29,19.7c14.6,0,26.7-7.7,29-19.7H3z"/>
	<path fill="#894B33" d="M32,60.7c14.6,0,26.7-7.7,29-19.7H3"/>
	<path fill="#CEA080" d="M62.5,39.5c0,1.4-1.1,2.5-2.5,2.5H4c-1.4,0-2.5-1.1-2.5-2.5l0,0C1.5,38.1,2.6,37,4,37H60
		C61.4,37,62.5,38.1,62.5,39.5L62.5,39.5z"/>
	<path fill="#996F4D" d="M62.5,39.5L62.5,39.5c0,1.4-1.1,2.5-2.5,2.5H4c-1.4,0-2.5-1.1-2.5-2.5l0,0"/>
	<g>
		<path fill="#AB6149" d="M59.5,35h-3.1c0-16-11-29.6-24.5-29.6C18.5,5.4,7.5,19,7.5,35h-3C4.5,17,16.8,2.4,32,2.4
			C47.2,2.4,59.5,17,59.5,35z"/>
	</g>
	<path fill="#6B3322" d="M32,3.9C17.2,3.9,5.2,18,4.5,35h3c0-16,11-29.6,24.5-29.6C45.5,5.4,56.5,19,56.5,35h3
		C58.8,18,46.8,3.9,32,3.9z"/>
	<g>
		<path fill="#CEA080" d="M10.7,46.5c0,0.4-0.3,0.5-0.7,0.5H6.2c-0.4,0-0.7-0.1-0.7-0.5l0,0c0-0.4,0.3-0.5,0.7-0.5h3.9
			C10.4,46,10.7,46.1,10.7,46.5L10.7,46.5z"/>
		<path fill="#CEA080" d="M18.7,46.5c0,0.4-0.3,0.5-0.7,0.5h-3.9c-0.4,0-0.7-0.1-0.7-0.5l0,0c0-0.4,0.3-0.5,0.7-0.5H18
			C18.4,46,18.7,46.1,18.7,46.5L18.7,46.5z"/>
		<path fill="#CEA080" d="M26.7,46.5c0,0.4-0.3,0.5-0.7,0.5h-3.9c-0.4,0-0.7-0.1-0.7-0.5l0,0c0-0.4,0.3-0.5,0.7-0.5H26
			C26.4,46,26.7,46.1,26.7,46.5L26.7,46.5z"/>
		<path fill="#CEA080" d="M34,46.5c0,0.3-0.2,0.5-0.5,0.5h-4c-0.3,0-0.5-0.2-0.5-0.5l0,0c0-0.3,0.2-0.5,0.5-0.5h4
			C33.8,46,34,46.2,34,46.5L34,46.5z"/>
		<path fill="#CEA080" d="M42,46.5c0,0.3-0.2,0.5-0.5,0.5h-4c-0.3,0-0.5-0.2-0.5-0.5l0,0c0-0.3,0.2-0.5,0.5-0.5h4
			C41.8,46,42,46.2,42,46.5L42,46.5z"/>
		<path fill="#CEA080" d="M50.6,46.5c0,0.4-0.3,0.5-0.7,0.5H46c-0.4,0-0.7-0.1-0.7-0.5l0,0c0-0.4,0.3-0.5,0.7-0.5h3.9
			C50.2,46,50.6,46.1,50.6,46.5L50.6,46.5z"/>
		<path fill="#CEA080" d="M58.5,46.5c0,0.4-0.3,0.5-0.7,0.5h-3.9c-0.4,0-0.7-0.1-0.7-0.5l0,0c0-0.4,0.3-0.5,0.7-0.5h3.9
			C58.2,46,58.5,46.1,58.5,46.5L58.5,46.5z"/>
	</g>
	<g>
		<path fill="#CEA080" d="M30,49.5c0,0.3-0.2,0.5-0.5,0.5h-4c-0.3,0-0.5-0.2-0.5-0.5l0,0c0-0.3,0.2-0.5,0.5-0.5h4
			C29.8,49,30,49.2,30,49.5L30,49.5z"/>
		<path fill="#CEA080" d="M14,49.5c0,0.3-0.2,0.5-0.5,0.5h-4C9.2,50,9,49.8,9,49.5l0,0C9,49.2,9.2,49,9.5,49h4
			C13.8,49,14,49.2,14,49.5L14,49.5z"/>
		<path fill="#CEA080" d="M22,49.5c0,0.3-0.2,0.5-0.5,0.5h-4c-0.3,0-0.5-0.2-0.5-0.5l0,0c0-0.3,0.2-0.5,0.5-0.5h4
			C21.8,49,22,49.2,22,49.5L22,49.5z"/>
		<path fill="#CEA080" d="M38,49.5c0,0.3-0.2,0.5-0.5,0.5h-4c-0.3,0-0.5-0.2-0.5-0.5l0,0c0-0.3,0.2-0.5,0.5-0.5h4
			C37.8,49,38,49.2,38,49.5L38,49.5z"/>
		<path fill="#CEA080" d="M46,49.5c0,0.3-0.2,0.5-0.5,0.5h-4c-0.3,0-0.5-0.2-0.5-0.5l0,0c0-0.3,0.2-0.5,0.5-0.5h4
			C45.8,49,46,49.2,46,49.5L46,49.5z"/>
		<path fill="#CEA080" d="M54,49.5c0,0.3-0.2,0.5-0.5,0.5h-4c-0.3,0-0.5-0.2-0.5-0.5l0,0c0-0.3,0.2-0.5,0.5-0.5h4
			C53.8,49,54,49.2,54,49.5L54,49.5z"/>
	</g>
	<g>
		<path fill="#CEA080" d="M18.7,52.5c0,0.4-0.3,0.5-0.7,0.5h-3.9c-0.4,0-0.7-0.1-0.7-0.5l0,0c0-0.4,0.3-0.5,0.7-0.5H18
			C18.4,52,18.7,52.1,18.7,52.5L18.7,52.5z"/>
		<path fill="#CEA080" d="M23.7,55.5c0,0.4-0.3,0.5-0.7,0.5h-3.9c-0.4,0-0.7-0.1-0.7-0.5l0,0c0-0.4,0.3-0.5,0.7-0.5H23
			C23.4,55,23.7,55.1,23.7,55.5L23.7,55.5z"/>
		<path fill="#CEA080" d="M30.7,55.5c0,0.4-0.3,0.5-0.7,0.5h-3.9c-0.4,0-0.7-0.1-0.7-0.5l0,0c0-0.4,0.3-0.5,0.7-0.5H30
			C30.4,55,30.7,55.1,30.7,55.5L30.7,55.5z"/>
		<path fill="#CEA080" d="M37.7,55.5c0,0.4-0.3,0.5-0.7,0.5h-3.9c-0.4,0-0.7-0.1-0.7-0.5l0,0c0-0.4,0.3-0.5,0.7-0.5H37
			C37.4,55,37.7,55.1,37.7,55.5L37.7,55.5z"/>
		<path fill="#CEA080" d="M44.7,55.5c0,0.4-0.3,0.5-0.7,0.5h-3.9c-0.4,0-0.7-0.1-0.7-0.5l0,0c0-0.4,0.3-0.5,0.7-0.5H44
			C44.4,55,44.7,55.1,44.7,55.5L44.7,55.5z"/>
		<path fill="#CEA080" d="M26.7,52.5c0,0.4-0.3,0.5-0.7,0.5h-3.9c-0.4,0-0.7-0.1-0.7-0.5l0,0c0-0.4,0.3-0.5,0.7-0.5H26
			C26.4,52,26.7,52.1,26.7,52.5L26.7,52.5z"/>
		<path fill="#CEA080" d="M34.6,52.5c0,0.4-0.3,0.5-0.7,0.5H30c-0.4,0-0.7-0.1-0.7-0.5l0,0c0-0.4,0.3-0.5,0.7-0.5h3.9
			C34.3,52,34.6,52.1,34.6,52.5L34.6,52.5z"/>
		<path fill="#CEA080" d="M42.6,52.5c0,0.4-0.3,0.5-0.7,0.5H38c-0.4,0-0.7-0.1-0.7-0.5l0,0c0-0.4,0.3-0.5,0.7-0.5h3.9
			C42.3,52,42.6,52.1,42.6,52.5L42.6,52.5z"/>
		<path fill="#CEA080" d="M50.6,52.5c0,0.4-0.3,0.5-0.7,0.5H46c-0.4,0-0.7-0.1-0.7-0.5l0,0c0-0.4,0.3-0.5,0.7-0.5h3.9
			C50.2,52,50.6,52.1,50.6,52.5L50.6,52.5z"/>
	</g>
	<g>
		<path fill="#CEA080" d="M34,58.5c0,0.3-0.2,0.5-0.5,0.5h-4c-0.3,0-0.5-0.2-0.5-0.5l0,0c0-0.3,0.2-0.5,0.5-0.5h4
			C33.8,58,34,58.2,34,58.5L34,58.5z"/>
	</g>
</g>
</svg>
