<?xml version="1.0" encoding="utf-8"?>
<!-- Generator: Adobe Illustrator 16.0.0, SVG Export Plug-In . SVG Version: 6.00 Build 0)  -->
<!DOCTYPE svg PUBLIC "-//W3C//DTD SVG 1.1//EN" "http://www.w3.org/Graphics/SVG/1.1/DTD/svg11.dtd">
<svg version="1.1" id="Layer_1" xmlns="http://www.w3.org/2000/svg" xmlns:xlink="http://www.w3.org/1999/xlink" x="0px" y="0px"
	 width="64px" height="64px" viewBox="0 0 64 64" enable-background="new 0 0 64 64" xml:space="preserve">
<g>
	<ellipse fill="#CE1906" cx="32.7" cy="46.7" rx="22.6" ry="12.4"/>
	<ellipse fill="#961208" cx="32.7" cy="44.2" rx="22.6" ry="12.4"/>
	<path fill="#065177" d="M61.5,28c0,15.3-14.3,25.9-28.8,25.9S4,43.3,4,28c0-15.3,14.3-20,28.8-20S61.5,12.8,61.5,28z"/>
	<path fill="#102D35" d="M61.5,28c0,15.3-14.3,25.9-28.8,25.9S4,43.3,4,28"/>
	<path fill="#E5483C" d="M38.5,37.9c0,1.3-2.7,2.3-5.5,2.3s-5.5-0.9-5.5-2.3c0-1.3,2.7-1.7,5.5-1.7S38.5,36.6,38.5,37.9z"/>
	<path fill="#CE1906" d="M38.5,37.9c0,1.3-2.7,2.3-5.5,2.3s-5.5-0.9-5.5-2.3"/>
	<g>
		<g>
			<path fill="#DB6E14" d="M9.7,25.7L9.7,25.7c-1.1,4,2.2,8.4,7.4,9.8c5.2,1.4,10.2-0.7,11.3-4.7l0,0L9.7,25.7z"/>
			<path fill="#FF9C39" d="M9.7,25.7L9.7,25.7c-1.1,4,3.5,6.2,8.6,7.6c5.2,1.4,9,1.5,10.1-2.5l0,0L9.7,25.7z"/>
			<ellipse fill="#102D35" cx="19" cy="31.8" rx="0.6" ry="3.8"/>
		</g>
		<g>
			<path fill="#DB6E14" d="M55.8,25.7L55.8,25.7c1.1,4-2.2,8.4-7.4,9.8c-5.2,1.4-10.2-0.7-11.3-4.7l0,0L55.8,25.7z"/>
			<path fill="#FF9C39" d="M55.8,25.7L55.8,25.7c1.1,4-3.5,6.2-8.6,7.6c-5.2,1.4-9,1.5-10.1-2.5l0,0L55.8,25.7z"/>
			<ellipse fill="#102D35" cx="46.5" cy="31.8" rx="0.6" ry="3.8"/>
		</g>
	</g>
	<g>
		<g>
			<polygon fill="#E2F2EF" points="23.2,44.6 25.7,49.6 28.3,44.6 			"/>
			<polygon fill="#9AB2AC" points="25.3,44.6 25.7,49.6 28.3,44.6 			"/>
		</g>
		<g>
			<polygon fill="#E2F2EF" points="37.1,44.6 39.7,49.6 42.3,44.6 			"/>
			<polygon fill="#9AB2AC" points="39.2,44.6 39.7,49.6 42.3,44.6 			"/>
		</g>
	</g>
	<g opacity="0.4">
		<g>
			<circle fill="#9AB2AC" cx="17.4" cy="40.8" r="0.8"/>
			<circle fill="#9AB2AC" cx="15.3" cy="44" r="0.8"/>
			<circle fill="#9AB2AC" cx="18.7" cy="44" r="0.8"/>
		</g>
		<g>
			<circle fill="#9AB2AC" cx="48" cy="40.8" r="0.8"/>
			<circle fill="#9AB2AC" cx="50.2" cy="44" r="0.8"/>
			<circle fill="#9AB2AC" cx="46.8" cy="44" r="0.8"/>
		</g>
	</g>
	<ellipse fill="#0F6587" cx="32.7" cy="13.5" rx="14.6" ry="3.8"/>
	<g>
		<g>
			<path fill="#065177" d="M17,12.7c0,0-3.6-7.1-13.8-11.8c0,0-4.1,10.6,1.9,23.2l7.5-2.8L17,12.7z"/>
			<path fill="#102D35" d="M12.7,21.4l4.4-8.8c0,0-3.6-7.1-13.8-11.8"/>
		</g>
		<g>
			<path fill="#065177" d="M48.4,12.7c0,0,3.6-7.1,13.8-11.8c0,0,4.1,10.6-1.9,23.2l-7.5-2.8L48.4,12.7z"/>
			<path fill="#102D35" d="M52.8,21.4l-4.4-8.8c0,0,3.6-7.1,13.8-11.8"/>
		</g>
	</g>
	<g>
		<path fill="#E9EADF" d="M36.5,58c0-2.1-1.7-3.8-3.8-3.8s-3.8,1.7-3.8,3.8c0,1.3,0.7,2.4,1.7,3.1v0.7c0,0.7,0.6,1.2,1.2,1.2h1.8
			c0.7,0,1.2-0.6,1.2-1.2v-0.7C35.9,60.5,36.5,59.3,36.5,58z"/>
		<path fill="#D0D1C5" d="M31.8,63.1h1.8c0.7,0,1.2-0.6,1.2-1.2v-0.7c1-0.7,1.7-1.8,1.7-3.1c0-2.1-1.7-3.8-3.8-3.8"/>
		<g>
			<circle fill="#720404" cx="31" cy="59" r="0.9"/>
			<circle fill="#720404" cx="34.4" cy="59" r="0.9"/>
		</g>
	</g>
</g>
</svg>
