<?xml version="1.0" encoding="utf-8"?>
<!-- Generator: Adobe Illustrator 16.0.0, SVG Export Plug-In . SVG Version: 6.00 Build 0)  -->
<!DOCTYPE svg PUBLIC "-//W3C//DTD SVG 1.1//EN" "http://www.w3.org/Graphics/SVG/1.1/DTD/svg11.dtd">
<svg version="1.1" xmlns="http://www.w3.org/2000/svg" xmlns:xlink="http://www.w3.org/1999/xlink" x="0px" y="0px" width="65px"
	 height="65px" viewBox="0 0 65 65" enable-background="new 0 0 65 65" xml:space="preserve">
<g id="Layer_1">
	<g>
		<g>
			<g>
				<g>
					<g>
						<circle fill="#55FF9A" cx="32.5" cy="42.751" r="19.188"/>
					</g>
					<g>
						<path fill="#1DDD6B" d="M32.5,23.563c10.598,0,19.188,8.59,19.188,19.188c0,10.596-8.59,19.186-19.188,19.186"/>
					</g>
					<g>
						<path fill="#00AD73" d="M32.5,64.437c-11.959,0-21.688-9.729-21.688-21.686c0-11.959,9.729-21.688,21.688-21.688
							s21.688,9.729,21.688,21.688C54.188,54.708,44.459,64.437,32.5,64.437z M32.5,26.063c-9.201,0-16.688,7.486-16.688,16.688
							c0,9.2,7.486,16.686,16.688,16.686s16.688-7.485,16.688-16.686C49.188,33.55,41.701,26.063,32.5,26.063z"/>
					</g>
				</g>
				<g>
					<g>
						<line fill="#49C3E8" x1="32.5" y1="3.063" x2="32.5" y2="23.396"/>
					</g>
					<g>
						<path fill="#00AD73" d="M32.5,25.896c-1.381,0-2.5-1.119-2.5-2.5V3.063c0-1.381,1.119-2.5,2.5-2.5s2.5,1.119,2.5,2.5v20.332
							C35,24.776,33.881,25.896,32.5,25.896z"/>
					</g>
				</g>
				<g>
					<g>
						<line fill="#49C3E8" x1="23.086" y1="11.479" x2="41.916" y2="11.479"/>
					</g>
					<g>
						<path fill="#00AD73" d="M41.916,13.979h-18.83c-1.383,0-2.502-1.119-2.502-2.5s1.119-2.5,2.502-2.5h18.83
							c1.381,0,2.5,1.119,2.5,2.5S43.297,13.979,41.916,13.979z"/>
					</g>
				</g>
			</g>
			<g>
				<g>
					<circle fill="#55FF9A" cx="37.414" cy="42.5" r="1.062"/>
				</g>
				<g>
					<circle fill="#55FF9A" cx="41.475" cy="42.5" r="1.062"/>
				</g>
				<g>
					<path fill="#55FF9A" d="M46.602,42.5c0,0.587-0.477,1.062-1.064,1.062c-0.584,0-1.061-0.476-1.061-1.062
						s0.477-1.062,1.061-1.062C46.125,41.438,46.602,41.913,46.602,42.5z"/>
				</g>
			</g>
		</g>
		<g>
			<g>
				<g>
					<path fill="#00AD73" d="M38.49,17.854c0-0.64,0.244-1.279,0.734-1.768l4.42-4.42l-4.42-4.42c-0.979-0.977-0.979-2.559,0-3.535
						c0.975-0.977,2.557-0.977,3.533,0l6.188,6.188c0.977,0.977,0.977,2.559,0,3.535l-6.188,6.188c-0.977,0.977-2.559,0.977-3.533,0
						C38.734,19.134,38.49,18.494,38.49,17.854z"/>
				</g>
			</g>
			<g>
				<g>
					<path fill="#00AD73" d="M26.512,5.479c0,0.64-0.244,1.279-0.732,1.768l-4.42,4.42l4.42,4.42c0.977,0.977,0.977,2.559,0,3.535
						s-2.559,0.977-3.535,0l-6.188-6.188c-0.977-0.977-0.977-2.559,0-3.535l6.188-6.188c0.977-0.977,2.559-0.977,3.535,0
						C26.268,4.2,26.512,4.84,26.512,5.479z"/>
				</g>
			</g>
		</g>
	</g>
</g>
<g id="nyt_x5F_exporter_x5F_info" display="none">
</g>
</svg>
