<?xml version="1.0" encoding="utf-8"?>
<!-- Generator: Adobe Illustrator 16.0.0, SVG Export Plug-In . SVG Version: 6.00 Build 0)  -->
<!DOCTYPE svg PUBLIC "-//W3C//DTD SVG 1.1//EN" "http://www.w3.org/Graphics/SVG/1.1/DTD/svg11.dtd">
<svg version="1.1" id="Layer_1" xmlns="http://www.w3.org/2000/svg" xmlns:xlink="http://www.w3.org/1999/xlink" x="0px" y="0px"
	 width="64px" height="64px" viewBox="0 0 64 64" enable-background="new 0 0 64 64" xml:space="preserve">
<g>
	<g>
		<g>
			<g>
				<g>
					<g>
						<g>
							<path fill="#D81665" d="M15.9,4.4c6.7,0,12.6,3.8,14.6,9.3c0.2,0.6,0.9,0.9,1.5,0.7c0.6,0.2,1.3-0.1,1.5-0.7
								c2.1-5.6,7.9-9.3,14.6-9.3c8.5,0,15.4,6.1,15.4,13.5c0,2.7-0.9,5.3-2.6,7.6c0,0,0,0,0,0c-0.1,0.1-0.1,0.1-0.1,0.1L32,59.6
								l-28.7-34c-0.1-0.1-0.1-0.1-0.1-0.1c0,0,0,0,0,0c-1.7-2.2-2.6-4.9-2.6-7.6C0.5,10.5,7.4,4.4,15.9,4.4z"/>
						</g>
					</g>
				</g>
			</g>
			<g>
				<g>
					<g>
						<g>
							<path fill="#AF0C5E" d="M32,14.4c0.6,0.2,1.3-0.1,1.5-0.7c2.1-5.6,7.9-9.3,14.6-9.3c8.5,0,15.4,6.1,15.4,13.5
								c0,2.7-0.9,5.3-2.6,7.6c0,0,0,0,0,0c-0.1,0.1-0.1,0.1-0.1,0.1L32,59.6"/>
						</g>
					</g>
				</g>
			</g>
		</g>
	</g>
	<g>
		<g>
			<g>
				<path fill="#FFFEEE" d="M28.9,35.8c1.3,0,2.4,0.7,2.8,1.8c0,0.1,0.2,0.2,0.3,0.1c0.1,0,0.3,0,0.3-0.1c0.4-1.1,1.5-1.8,2.8-1.8
					c1.6,0,3,1.2,3,2.6c0,0.5-0.2,1-0.5,1.5c0,0,0,0,0,0c0,0,0,0,0,0L32,46.4l-5.5-6.5c0,0,0,0,0,0c0,0,0,0,0,0
					c-0.3-0.4-0.5-0.9-0.5-1.5C25.9,37,27.3,35.8,28.9,35.8z"/>
			</g>
			<g>
				<path fill="#E5E1CC" d="M32,37.8c0.1,0,0.3,0,0.3-0.1c0.4-1.1,1.5-1.8,2.8-1.8c1.6,0,3,1.2,3,2.6c0,0.5-0.2,1-0.5,1.5
					c0,0,0,0,0,0c0,0,0,0,0,0L32,46.4"/>
			</g>
		</g>
	</g>
	<g>
		<g>
			<path fill="#E5E1CC" d="M18.8,34.9c-4.2-0.1-7.4-6.1-7.3-13.4c0.1-7.3,3.6-13.2,7.8-13.1c0.2,0,2.8,4.3,4.3,13.3
				C24.9,28.9,23,35,18.8,34.9z"/>
			<path fill="#FFFEEE" d="M28,28.9c0,4.6-5.3,8.4-11.8,8.4c-6.5,0-11.8-3.7-11.8-8.4c0-0.3,3.8-3.2,11.8-5.1
				C22.6,22.3,28,24.2,28,28.9z"/>
			<path fill="#F2F0E2" d="M28,28.9c0,4.6-5.3,8.4-11.8,8.4c-6.5,0-11.8-3.7-11.8-8.4"/>
			<path fill="#E5E1CC" d="M16.2,37.2c-6.5,0-11.8-3.7-11.8-8.4"/>
			<path fill="#F2F0E2" d="M28.8,29.1c-2.6,5.6-4.7,5.6-6.8,4.7c-2.1-1-3.4-2.6-0.8-8.2c2.6-5.6,6-8.4,8.1-7.4
				C31.4,19.1,31.4,23.6,28.8,29.1z"/>
			<path fill="#F2F0E2" d="M5.4,26l-1.5,1.5c0,0-2.4-3.3-1.7-4C2.9,22.8,5.4,26,5.4,26z"/>
			<path fill="#E5E1CC" d="M4.6,25.6l-0.2,2.1c0,0-3.9-1-3.8-2C0.7,24.6,4.6,25.6,4.6,25.6z"/>
			<path fill="#FFFEEE" d="M21.2,34.6c-4.1,1.6-9.8-2.9-12.6-10.2C5.8,17.1,6.9,10,11,8.3c0.2-0.1,4.5,3.1,9.7,11.3
				C24.8,26.2,25.4,32.9,21.2,34.6z"/>
			<path fill="#F2F0E2" d="M20.7,19.7c4.1,6.5,4.7,13.3,0.6,14.9"/>
			<g>
				<g>
					<g>
						<g>
							<g>
								<path fill="#FFFEEE" d="M27.9,16.8c-0.5,0-0.9,0.3-0.9,0.5l1.9-0.1C28.8,16.9,28.4,16.7,27.9,16.8z"/>
							</g>
						</g>
					</g>
					<path fill="#FFFEEE" d="M27.4,21.2c-1.3,0-2.3,0.3-2.3,0.6c0,0.4,1,0.2,2.3,0.2c1.2,0,2.3,0.2,2.3-0.2
						C29.6,21.5,28.6,21.2,27.4,21.2z"/>
					<g>
						<path fill="#DDDAC5" d="M28.8,20.7c0,0.5-0.4,0.9-0.9,0.9c-0.5,0-0.9-0.4-0.9-0.9s0.4-0.9,0.9-0.9
							C28.4,19.8,28.8,20.2,28.8,20.7z"/>
						<path fill="#1E4784" d="M28.8,20.4c0,0.5-0.4,0.9-0.9,0.9c-0.5,0-0.9-0.4-0.9-0.9c0-0.5,0.4-0.9,0.9-0.9
							C28.4,19.5,28.8,19.9,28.8,20.4z"/>
						<path fill="#00233F" d="M27.9,19.5c0.5,0,0.9,0.4,0.9,0.9c0,0.5-0.4,0.9-0.9,0.9"/>
					</g>
				</g>
			</g>
			
				<rect x="29.9" y="21.1" transform="matrix(0.7068 -0.7074 0.7074 0.7068 -6.53 28.2479)" fill="#FFD215" width="1.7" height="1.7"/>
			<polygon fill="#FFA412" points="32,22 30.8,23.2 29.6,22 30.3,22.3 			"/>
			<path fill="#FFFEEE" d="M6.6,26.6l-2.2,1c0,0-1.3-4.5-0.2-5C5.3,22.1,6.6,26.6,6.6,26.6z"/>
			<ellipse transform="matrix(0.964 -0.2659 0.2659 0.964 -3.9646 8.0607)" fill="#FFFEEE" cx="27.8" cy="18.7" rx="1.2" ry="0.4"/>
			<g>
				<path fill="#E5E1CC" d="M27.9,28.4c-0.1,0-0.3,0-0.5,0c-1.1-0.1-2.2-0.6-3.2-1.5c-2-1.8-2.6-4.4-1.3-5.8c0.1-0.2,0.4-0.2,0.5,0
					c0.2,0.1,0.2,0.4,0,0.5c-1,1.1-0.4,3.3,1.3,4.7c0.8,0.7,1.8,1.2,2.8,1.3c0.9,0.1,1.6-0.1,2.1-0.7c0.1-0.2,0.4-0.2,0.5,0
					c0.2,0.1,0.2,0.4,0,0.5C29.7,28.1,28.9,28.4,27.9,28.4z"/>
			</g>
		</g>
		<g>
			<path fill="#918F84" d="M45.2,34.9c4.2-0.1,7.4-6.1,7.3-13.4c-0.1-7.3-3.6-13.2-7.8-13.1c-0.2,0-2.8,4.3-4.3,13.3
				C39.1,28.9,41,35,45.2,34.9z"/>
			<path fill="#C6C4B6" d="M36,28.9c0,4.6,5.3,8.4,11.8,8.4c6.5,0,11.8-3.7,11.8-8.4c0-0.3-3.8-3.2-11.8-5.1
				C41.4,22.3,36,24.2,36,28.9z"/>
			<path fill="#B7B5A9" d="M36,28.9c0,4.6,5.3,8.4,11.8,8.4c6.5,0,11.8-3.7,11.8-8.4"/>
			<path fill="#918F84" d="M47.8,37.2c6.5,0,11.8-3.7,11.8-8.4"/>
			<path fill="#B7B5A9" d="M35.2,29.1c2.6,5.6,4.7,5.6,6.8,4.7c2.1-1,3.4-2.6,0.8-8.2c-2.6-5.6-6-8.4-8.1-7.4
				C32.6,19.1,32.6,23.6,35.2,29.1z"/>
			<path fill="#B7B5A9" d="M58.6,26l1.5,1.5c0,0,2.4-3.3,1.7-4C61.1,22.8,58.6,26,58.6,26z"/>
			<path fill="#918F84" d="M59.4,25.6l0.2,2.1c0,0,3.9-1,3.8-2C63.3,24.6,59.4,25.6,59.4,25.6z"/>
			<path fill="#C6C4B6" d="M42.8,34.6c4.1,1.6,9.8-2.9,12.6-10.2c2.8-7.2,1.8-14.4-2.3-16c-0.2-0.1-4.5,3.1-9.7,11.3
				C39.2,26.2,38.6,32.9,42.8,34.6z"/>
			<path fill="#B7B5A9" d="M43.3,19.7c-4.1,6.5-4.7,13.3-0.6,14.9"/>
			<g>
				<g>
					<g>
						<g>
							<g>
								<path fill="#C6C4B6" d="M36.1,16.8c0.5,0,0.9,0.3,0.9,0.5l-1.9-0.1C35.2,16.9,35.6,16.7,36.1,16.8z"/>
							</g>
						</g>
					</g>
					<path fill="#C6C4B6" d="M36.6,21.2c1.2,0,2.3,0.3,2.3,0.6c0,0.4-1,0.2-2.3,0.2c-1.2,0-2.3,0.2-2.3-0.2
						C34.4,21.5,35.4,21.2,36.6,21.2z"/>
					<g>
						<circle fill="#918F84" cx="36.1" cy="20.7" r="0.9"/>
						<circle fill="#1E4784" cx="36.1" cy="20.4" r="0.9"/>
						<path fill="#00233F" d="M36.1,19.5c-0.5,0-0.9,0.4-0.9,0.9c0,0.5,0.4,0.9,0.9,0.9"/>
					</g>
				</g>
			</g>
			
				<rect x="32.3" y="21.1" transform="matrix(-0.7071 -0.7071 0.7071 -0.7071 41.0944 61.0258)" fill="#FFD215" width="1.7" height="1.7"/>
			<polygon fill="#FFA412" points="32,22 33.2,23.2 34.4,22 33.7,22.3 			"/>
			<path fill="#C6C4B6" d="M57.4,26.6l2.2,1c0,0,1.3-4.5,0.2-5C58.7,22.1,57.4,26.6,57.4,26.6z"/>
			
				<ellipse transform="matrix(-0.964 -0.2659 0.2659 -0.964 66.1482 46.3032)" fill="#C6C4B6" cx="36.2" cy="18.7" rx="1.2" ry="0.4"/>
			<g>
				<path fill="#E5E1CC" d="M36.1,28.4c0.1,0,0.3,0,0.5,0c1.1-0.1,2.2-0.6,3.2-1.5c2-1.8,2.6-4.4,1.3-5.8c-0.1-0.2-0.4-0.2-0.5,0
					c-0.2,0.1-0.2,0.4,0,0.5c1,1.1,0.4,3.3-1.3,4.7c-0.8,0.7-1.8,1.2-2.8,1.3c-0.9,0.1-1.6-0.1-2.1-0.7c-0.1-0.2-0.4-0.2-0.5,0
					c-0.2,0.1-0.2,0.4,0,0.5C34.3,28.1,35.1,28.4,36.1,28.4z"/>
			</g>
		</g>
	</g>
</g>
</svg>
