<?xml version="1.0" encoding="utf-8"?>
<!-- Generator: Adobe Illustrator 16.0.0, SVG Export Plug-In . SVG Version: 6.00 Build 0)  -->
<!DOCTYPE svg PUBLIC "-//W3C//DTD SVG 1.1//EN" "http://www.w3.org/Graphics/SVG/1.1/DTD/svg11.dtd">
<svg version="1.1" id="Layer_1" xmlns="http://www.w3.org/2000/svg" xmlns:xlink="http://www.w3.org/1999/xlink" x="0px" y="0px"
	 width="65.3px" height="64px" viewBox="0 0 65.3 64" enable-background="new 0 0 65.3 64" xml:space="preserve">
<g>
	<ellipse fill="#E28F71" cx="32.8" cy="44.8" rx="6.2" ry="6.2"/>
	<g>
		<g>
			<path fill="#00233F" d="M19.1,20.1c0,0,1.5,9.4,0.1,12.6c0,0,3.2,4.9,7.2,4.6l4-4.6L29.8,18L19.1,20.1z"/>
			<path fill="#00233F" d="M46.3,20.1c0,0-1.5,9.4-0.1,12.6c0,0-3.2,4.9-7.2,4.6l-4-4.6L35.6,18L46.3,20.1z"/>
			<path fill="#00233F" d="M45.8,13.5c0,8.6,3.5,10.5-10.5,10.5h-5.2c-5.8,0-10.5-4.7-10.5-10.5l0,0C19.6,7.7,24.3,3,30.1,3h5.2
				C41.1,3,45.8,7.7,45.8,13.5L45.8,13.5z"/>
			<g>
				<rect x="26" y="29" fill="#F9BDA0" width="13" height="14"/>
				<polygon fill="#E28F71" points="39,43.1 32.1,44.4 26,29 39,29 				"/>
			</g>
			<g>
				<path fill="#FCCCB9" d="M43.4,17c0,10.3-5.2,19.6-10.7,19.6S22,27.3,22,17C22,6.7,27.3,5,32.7,5S43.4,6.7,43.4,17z"/>
				<path fill="#F9BDA0" d="M32.7,5c5.4,0,10.7,1.7,10.7,12c0,10.3-5.2,19.6-10.7,19.6"/>
			</g>
			<g>
				<g>
					<g>
						<polygon fill="#C61867" points="25.3,41.8 6.5,48.5 0.8,63 32,63 						"/>
						<polygon fill="#750C41" points="25.3,41.8 9.9,50.4 6.5,63 31.9,63 						"/>
						<polygon fill="#D6D6D6" points="25.2,40.8 20.8,42.7 21,58.3 32,63.5 32,45.8 						"/>
						<polygon fill="#FFFFFF" points="25.3,40.8 32.7,45.8 24,50.4 						"/>
					</g>
				</g>
				<g>
					<g>
						<polygon fill="#C61867" points="40.1,41.8 58.9,48.5 64.6,63 33.2,63 						"/>
						<polygon fill="#750C41" points="40.1,41.8 55.5,50.4 58.9,63 33.2,63 						"/>
						<polygon fill="#D6D6D6" points="40,40.8 44.5,42.7 44.2,58.3 33,63.5 33,45.8 						"/>
						<polygon fill="#FFFFFF" points="40.1,40.8 32.7,45.8 41.4,50.4 						"/>
					</g>
				</g>
			</g>
			<path fill="#00233F" d="M37.7,3c0,0-4.4,17.7-19.3,18.8c0,0-1.7-10.8,2.7-15.4c4.4-4.6,12.2-3.9,12.2-3.9L37.7,3z"/>
			<path fill="#00233F" d="M30.3,3c0,0,3.1,16.2,16.4,17.8c0,0,2-9.6-1.7-14c-3.7-4.4-10.8-4.1-10.8-4.1L30.3,3z"/>
		</g>
		<g>
			<circle fill="#B5750F" cx="32.7" cy="50.7" r="2.5"/>
			<circle fill="#DD981D" cx="32.7" cy="50.4" r="2.5"/>
			<path fill="#CE8106" d="M32.7,47.9c1.4,0,2.5,1.1,2.5,2.5c0,1.4-1.1,2.5-2.5,2.5"/>
			<circle fill="#EFB65B" cx="32.7" cy="50.4" r="1.6"/>
			<path fill="#E2A750" d="M33.8,49.2c0.6,0.6,0.6,1.7,0,2.3c-0.6,0.6-1.7,0.6-2.3,0"/>
		</g>
		<g>
			<circle fill="#B5750F" cx="32.7" cy="58.4" r="2.5"/>
			<circle fill="#DD981D" cx="32.7" cy="58.1" r="2.5"/>
			<path fill="#CE8106" d="M32.7,55.6c1.4,0,2.5,1.1,2.5,2.5c0,1.4-1.1,2.5-2.5,2.5"/>
			<circle fill="#EFB65B" cx="32.7" cy="58.1" r="1.6"/>
			<path fill="#E2A750" d="M33.8,56.9c0.6,0.6,0.6,1.7,0,2.3c-0.6,0.6-1.7,0.6-2.3,0"/>
		</g>
	</g>
	<g>
		<g>
			<path fill="#E2997D" d="M24.8,19.6L24.8,19.6c-0.5,1.3,0,3.5,1.7,3.9c1.7,0.4,3.9-1.2,4.4-2.5l0,0L24.8,19.6z"/>
			<path fill="#BA2525" d="M24.8,19.6L24.8,19.6c-0.5,1.3,0.5,2.7,2.2,3c1.7,0.4,3.4-0.4,3.9-1.7l0,0L24.8,19.6z"/>
			<path fill="#E01E1E" d="M24.8,19.6c-0.5,1.3,0.8,2.1,2.4,2.5c1.7,0.4,3.2,0.2,3.7-1.1"/>
			<polygon fill="#00233F" points="31.4,21.2 23.6,19.3 25.2,18 31.9,20.6 			"/>
			<path fill="#FFFFFF" d="M28.3,21.1c0,0.2-0.3,0.4-0.6,0.4c-0.3,0-0.5-0.2-0.5-0.5c0-0.2,0.3-0.4,0.6-0.4
				C28.1,20.7,28.3,20.9,28.3,21.1z"/>
		</g>
		<g>
			<path fill="#E2997D" d="M40.6,19.6L40.6,19.6c0.5,1.3,0,3.5-1.7,3.9c-1.7,0.4-3.9-1.2-4.4-2.5l0,0L40.6,19.6z"/>
			<path fill="#BA2525" d="M40.6,19.6L40.6,19.6c0.5,1.3-0.5,2.7-2.2,3C36.7,23,35,22.3,34.5,21l0,0L40.6,19.6z"/>
			<path fill="#E01E1E" d="M40.6,19.6c0.5,1.3-0.8,2.1-2.4,2.5c-1.7,0.4-3.2,0.2-3.7-1.1"/>
			<polygon fill="#00233F" points="34,21.2 41.8,19.3 40.2,18 33.5,20.6 			"/>
			<path fill="#FFFFFF" d="M37.1,21.1c0,0.2,0.3,0.4,0.6,0.4c0.3,0,0.5-0.2,0.5-0.5c0-0.2-0.3-0.4-0.6-0.4
				C37.3,20.7,37.1,20.9,37.1,21.1z"/>
		</g>
	</g>
	<g>
		<path fill="#E01E1E" d="M36.6,30.9c0,2.7-1.7,2.9-3.9,2.9c-2.2,0-3.9-0.2-3.9-2.9c0-2.7,1.7-3.9,3.9-3.9
			C34.9,27,36.6,28.2,36.6,30.9z"/>
		<path fill="#821212" d="M28.8,30.9c0-2.7,1.7-3.9,3.9-3.9c2.2,0,3.9,1.2,3.9,3.9"/>
	</g>
	<circle fill="#E01E1E" cx="58.9" cy="32.8" r="2.9"/>
	<circle fill="#E01E1E" cx="50.6" cy="26.5" r="0.3"/>
	<circle fill="#E01E1E" cx="51.3" cy="33.7" r="0.5"/>
	<circle fill="#E01E1E" cx="14.3" cy="29.8" r="3"/>
	<circle fill="#E01E1E" cx="6.2" cy="36" r="0.7"/>
	<circle fill="#E01E1E" cx="16.7" cy="39.4" r="0.6"/>
	<circle fill="#E01E1E" cx="10.9" cy="14.1" r="2.7"/>
	<circle fill="#E01E1E" cx="6.6" cy="21.8" r="0.7"/>
	<circle fill="#E01E1E" cx="55.7" cy="20.2" r="1.6"/>
	<circle fill="#E01E1E" cx="55.8" cy="27.4" r="0.8"/>
	<circle fill="#E01E1E" cx="49.9" cy="20.1" r="0.4"/>
	<circle fill="#E01E1E" cx="50.3" cy="12.6" r="0.6"/>
	<polygon fill="#E01E1E" points="10.4,59.7 17,54.1 16.4,56.3 19.5,53.7 15.3,58.6 14.7,57.4 13.3,58.7 	"/>
	<polygon fill="#E01E1E" points="9,55.8 15.7,50.2 15,52.4 18.2,49.8 13.9,54.7 13.3,53.6 11.9,54.8 	"/>
	<polygon fill="#C61867" points="50.4,46.8 50.9,42.5 52,44.5 55,39.8 55,45.5 59.8,41.7 56.5,46.3 60,45 56.9,49.3 	"/>
	<path fill="#C61867" d="M17.6,44.7l-5.2-5.2l1.2,3.8c0,0-5-0.5-4-0.2s2.2,1.7,2.2,1.7l-2.2,0.8l1.7,1.5l2.2,0.5l3.3-1.7L17.6,44.7z
		"/>
	<polygon fill="#E01E1E" points="37,55.7 41.3,54.9 40.1,56.4 43.6,56.5 39,57.9 38.4,56.2 35.7,56.1 	"/>
</g>
</svg>
