<?xml version="1.0" encoding="utf-8"?>
<!-- Generator: Adobe Illustrator 16.0.0, SVG Export Plug-In . SVG Version: 6.00 Build 0)  -->
<!DOCTYPE svg PUBLIC "-//W3C//DTD SVG 1.1//EN" "http://www.w3.org/Graphics/SVG/1.1/DTD/svg11.dtd">
<svg version="1.1" id="Layer_1" xmlns="http://www.w3.org/2000/svg" xmlns:xlink="http://www.w3.org/1999/xlink" x="0px" y="0px"
	 width="64px" height="64px" viewBox="0 0 64 64" enable-background="new 0 0 64 64" xml:space="preserve">
<g>
	<g>
		<path fill="#03605B" d="M20.7,62.9h-0.1v-1.3h0.1c0.1,0,0.2-0.1,0.2-0.2c0-0.1-0.1-0.2-0.2-0.2h-2.4c0,0-0.2-0.1-0.6-0.1v-1.7
			c0.4,0,0.6-0.1,0.6-0.1c0,0-0.2-0.1-0.6-0.1v-0.4c0.4,0,0.6-0.1,0.6-0.1c0,0-0.3-0.1-0.7-0.1c1.2-0.1,1.5-0.3,1.7-0.5h0.2h0.9
			l0.2-0.2l0.1-0.2l0,0l-0.4-0.4c0,0-1.9,0.3-2.7-0.9c0,0,0,0-0.1-0.1c0,0,0,0,0,0h0.1v-0.1c0.4,0,0.6-0.1,0.6-0.1S18.1,56,17.7,56
			v-1.7c0.4,0,0.6-0.1,0.6-0.1c0,0-0.2-0.1-0.6-0.1v-0.4c0.4,0,0.6-0.1,0.6-0.1c0,0-0.3-0.1-0.7-0.1c1.2-0.1,1.5-0.3,1.7-0.5h0.2
			h0.9l0.3-0.4l0,0h0l-0.4-0.5c0,0-1.9,0.4-2.7-0.9c0,0,0,0-0.1-0.1c0,0,0,0,0,0h0.1v-0.1c0.4,0,0.6-0.1,0.6-0.1
			c0,0-0.2-0.1-0.6-0.1v-1.7c0.4,0,0.6-0.1,0.6-0.1c0,0-0.2-0.1-0.6-0.1v-0.4c0.4,0,0.6-0.1,0.6-0.1c0,0-0.3-0.1-0.7-0.1
			c1.2-0.1,1.5-0.3,1.7-0.5h0.2h0.9l0.3-0.4l0,0L20.4,47c0,0-1.9,0.3-2.7-0.9c0,0,0,0-0.1-0.1c0,0,0,0,0,0h0.1v-0.1
			c0.4,0,0.6-0.1,0.6-0.1c0,0-0.2-0.1-0.6-0.1v-1.7c0.4,0,0.6-0.1,0.6-0.1c0,0-0.2-0.1-0.6-0.1v-0.4c0.4,0,0.6-0.1,0.6-0.1
			c0,0-0.3-0.1-0.7-0.1c1.2-0.1,1.5-0.3,1.7-0.5h0.2h0.9l0.2-0.2l0.1-0.2l0,0h0l-0.4-0.5c0,0-1.9,0.4-2.7-0.9c0,0,0,0-0.1-0.1
			c0,0,0,0,0,0h0.1v-0.1c0.4,0,0.6-0.1,0.6-0.1s-0.2-0.1-0.6-0.1v-1.7c0.4,0,0.6-0.1,0.6-0.1c0,0-0.2-0.1-0.6-0.1v-0.4
			c0.4,0,0.6-0.1,0.6-0.1c0,0-0.3-0.1-0.7-0.1c1.2-0.1,1.5-0.3,1.7-0.5h0.2h0.9l0.3-0.4l0,0l-0.4-0.5c0,0-1.9,0.3-2.7-0.9
			c0,0-0.1-0.2-0.2-0.1c0,0,0,0,0,0l-2.2-3.3h0.1c0.1,0,0.2-0.1,0.2-0.2s-0.1-0.2-0.2-0.2H15v-0.2c0-0.2-0.1-0.3-0.3-0.4
			c0.1-0.1,0.2-0.3,0.2-0.4c0-0.2-0.1-0.4-0.3-0.5c0.1-0.1,0.2-0.2,0.2-0.4c0-0.2-0.1-0.3-0.3-0.4c0.1-0.1,0.2-0.2,0.2-0.4
			c0-0.2-0.1-0.3-0.2-0.4c0.1-0.1,0.2-0.2,0.2-0.3c0-0.2-0.1-0.3-0.3-0.3c0.1,0,0.2-0.1,0.2-0.3c0-0.2-0.1-0.3-0.3-0.3
			s-0.3,0.1-0.3,0.3c0,0.1,0.1,0.2,0.2,0.3c-0.2,0-0.3,0.2-0.3,0.3c0,0.1,0.1,0.3,0.2,0.3c-0.1,0.1-0.2,0.2-0.2,0.4
			c0,0.2,0.1,0.3,0.2,0.4c-0.2,0.1-0.3,0.2-0.3,0.4c0,0.2,0.1,0.3,0.2,0.4c-0.2,0.1-0.3,0.3-0.3,0.5c0,0.2,0.1,0.3,0.2,0.4
			c-0.2,0-0.3,0.2-0.3,0.4v0.2h-0.3c-0.1,0-0.2,0.1-0.2,0.2s0.1,0.2,0.2,0.2h0l-2.2,3.3c-0.1,0-0.2,0.1-0.2,0.1
			c-0.8,1.3-2.7,0.9-2.7,0.9l-0.4,0.5h0l0,0l0.3,0.4h0.9h0.2c0.2,0.2,0.5,0.4,1.7,0.5c-0.4,0-0.7,0.1-0.7,0.1c0,0,0.2,0.1,0.6,0.1
			v0.4c-0.4,0-0.6,0.1-0.6,0.1c0,0,0.2,0.1,0.6,0.1v1.7c-0.4,0-0.6,0.1-0.6,0.1s0.2,0.1,0.6,0.1v0.1h0.1c0,0,0,0,0,0
			c0,0-0.1,0.1-0.1,0.1c-0.8,1.3-2.7,0.9-2.7,0.9l-0.4,0.5h0l0,0l0.1,0.2l0.2,0.2h0.9h0.2c0.2,0.2,0.5,0.4,1.7,0.5
			c-0.4,0-0.7,0.1-0.7,0.1c0,0,0.2,0.1,0.6,0.1v0.4c-0.4,0-0.6,0.1-0.6,0.1c0,0,0.2,0.1,0.6,0.1v1.7c-0.4,0-0.6,0.1-0.6,0.1
			c0,0,0.2,0.1,0.6,0.1V46h0.1c0,0,0,0,0,0c0,0-0.1,0.1-0.1,0.1C10.3,47.4,8.5,47,8.5,47l-0.4,0.4h0l0,0l0.3,0.4h0.9h0.2
			c0.2,0.2,0.5,0.4,1.7,0.5c-0.4,0-0.7,0.1-0.7,0.1c0,0,0.2,0.1,0.6,0.1V49c-0.4,0-0.6,0.1-0.6,0.1c0,0,0.2,0.1,0.6,0.1v1.7
			c-0.4,0-0.6,0.1-0.6,0.1c0,0,0.2,0.1,0.6,0.1v0.1h0.1c0,0,0,0,0,0c0,0-0.1,0.1-0.1,0.1c-0.8,1.3-2.7,0.9-2.7,0.9l-0.4,0.5h0l0,0
			L8.4,53h0.9h0.2c0.2,0.2,0.5,0.4,1.7,0.5c-0.4,0-0.7,0.1-0.7,0.1c0,0,0.2,0.1,0.6,0.1v0.4c-0.4,0-0.6,0.1-0.6,0.1
			c0,0,0.2,0.1,0.6,0.1V56c-0.4,0-0.6,0.1-0.6,0.1s0.2,0.1,0.6,0.1v0.1h0.1c0,0,0,0,0,0c0,0-0.1,0.1-0.1,0.1
			c-0.8,1.3-2.7,0.9-2.7,0.9l-0.4,0.4h0l0,0l0.1,0.2l0.2,0.2h0.9h0.2c0.2,0.2,0.5,0.4,1.7,0.5c-0.4,0-0.7,0.1-0.7,0.1
			c0,0,0.2,0.1,0.6,0.1v0.4c-0.4,0-0.6,0.1-0.6,0.1c0,0,0.2,0.1,0.6,0.1v1.7c-0.4,0-0.6,0.1-0.6,0.1H8.1c-0.1,0-0.2,0.1-0.2,0.2
			c0,0.1,0.1,0.2,0.2,0.2h0.1v1.3H8.1c-0.1,0-0.2,0.1-0.2,0.2s0.1,0.2,0.2,0.2h12.6c0.1,0,0.2-0.1,0.2-0.2S20.9,62.9,20.7,62.9z
			 M14.4,39v1.5v0.2v0.1v0v0v0v0v0v0v0.6v0.9v0.2v0.1v0.1v0.4v0.1v0.1v0.2v0.2v0.4v1.5v0.2V46v0v0v0v0v0v0v0.6v0.9v0.2v0.1v0.1v0.4
			v0.1v0.1v0.2v0.2v0.4v1.5V51v0.1v0v0v0v0v0v0v0.6v0.9v0.2v0.1V53v0.4v0.1v0.1v0.2V54v0.4v1.5v0.2v0.1v0v0v0v0v0v0v0.6v0.9v0.2V58
			v0.1v0.4v0.1v0.1v0.2v0.2v0.4V61v0.2h0V61v-1.5v-0.4v-0.2v-0.2v-0.1v-0.1v-0.4V58v-0.1v-0.2v-0.9v-0.6v0v0v0v0v0v0v-0.1v-0.2v-1.5
			V54v-0.2v-0.2v-0.1v-0.1V53v-0.1v-0.1v-0.2v-0.9v-0.6v0v0v0v0v0v0V51v-0.2v-1.5v-0.4v-0.2v-0.2v-0.1v-0.1v-0.4v-0.1v-0.1v-0.2
			v-0.9V46v0v0v0v0v0v0v-0.1v-0.2v-1.5v-0.4v-0.2v-0.2v-0.1v-0.1v-0.4v-0.1v-0.1v-0.2v-0.9v-0.6v0v0v0v0v0v0v-0.1v-0.2L14.4,39
			L14.4,39L14.4,39L14.4,39z"/>
		<path fill="#700B32" d="M55.9,62.9h-0.1v-1.3h0.1c0.1,0,0.2-0.1,0.2-0.2c0-0.1-0.1-0.2-0.2-0.2h-2.4c0,0-0.2-0.1-0.6-0.1v-1.7
			c0.4,0,0.6-0.1,0.6-0.1c0,0-0.2-0.1-0.6-0.1v-0.4c0.4,0,0.6-0.1,0.6-0.1c0,0-0.3-0.1-0.7-0.1c1.2-0.1,1.5-0.3,1.7-0.5h0.2h0.9
			l0.2-0.2l0.1-0.2l0,0l-0.4-0.4c0,0-1.9,0.3-2.7-0.9c0,0,0,0-0.1-0.1c0,0,0,0,0,0h0.1v-0.1c0.4,0,0.6-0.1,0.6-0.1S53.3,56,52.9,56
			v-1.7c0.4,0,0.6-0.1,0.6-0.1c0,0-0.2-0.1-0.6-0.1v-0.4c0.4,0,0.6-0.1,0.6-0.1c0,0-0.3-0.1-0.7-0.1c1.2-0.1,1.5-0.3,1.7-0.5h0.2
			h0.9l0.3-0.4l0,0h0l-0.4-0.5c0,0-1.9,0.4-2.7-0.9c0,0,0,0-0.1-0.1c0,0,0,0,0,0h0.1v-0.1c0.4,0,0.6-0.1,0.6-0.1
			c0,0-0.2-0.1-0.6-0.1v-1.7c0.4,0,0.6-0.1,0.6-0.1c0,0-0.2-0.1-0.6-0.1v-0.4c0.4,0,0.6-0.1,0.6-0.1c0,0-0.3-0.1-0.7-0.1
			c1.2-0.1,1.5-0.3,1.7-0.5h0.2h0.9l0.3-0.4l0,0L55.5,47c0,0-1.9,0.3-2.7-0.9c0,0,0,0-0.1-0.1c0,0,0,0,0,0h0.1v-0.1
			c0.4,0,0.6-0.1,0.6-0.1c0,0-0.2-0.1-0.6-0.1v-1.7c0.4,0,0.6-0.1,0.6-0.1c0,0-0.2-0.1-0.6-0.1v-0.4c0.4,0,0.6-0.1,0.6-0.1
			c0,0-0.3-0.1-0.7-0.1c1.2-0.1,1.5-0.3,1.7-0.5h0.2h0.9l0.2-0.2l0.1-0.2l0,0h0l-0.4-0.5c0,0-1.9,0.4-2.7-0.9c0,0,0,0-0.1-0.1
			c0,0,0,0,0,0h0.1v-0.1c0.4,0,0.6-0.1,0.6-0.1s-0.2-0.1-0.6-0.1v-1.7c0.4,0,0.6-0.1,0.6-0.1c0,0-0.2-0.1-0.6-0.1v-0.4
			c0.4,0,0.6-0.1,0.6-0.1c0,0-0.3-0.1-0.7-0.1c1.2-0.1,1.5-0.3,1.7-0.5h0.2h0.9l0.3-0.4l0,0l-0.4-0.5c0,0-1.9,0.3-2.7-0.9
			c0,0-0.1-0.2-0.2-0.1c0,0,0,0,0,0l-2.2-3.3h0.1c0.1,0,0.2-0.1,0.2-0.2s-0.1-0.2-0.2-0.2h-0.3v-0.2c0-0.2-0.1-0.3-0.3-0.4
			c0.1-0.1,0.2-0.3,0.2-0.4c0-0.2-0.1-0.4-0.3-0.5c0.1-0.1,0.2-0.2,0.2-0.4c0-0.2-0.1-0.3-0.3-0.4c0.1-0.1,0.2-0.2,0.2-0.4
			c0-0.2-0.1-0.3-0.2-0.4c0.1-0.1,0.2-0.2,0.2-0.3c0-0.2-0.1-0.3-0.3-0.3c0.1,0,0.2-0.1,0.2-0.3c0-0.2-0.1-0.3-0.3-0.3
			s-0.3,0.1-0.3,0.3c0,0.1,0.1,0.2,0.2,0.3c-0.2,0-0.3,0.2-0.3,0.3c0,0.1,0.1,0.3,0.2,0.3c-0.1,0.1-0.2,0.2-0.2,0.4
			c0,0.2,0.1,0.3,0.2,0.4c-0.2,0.1-0.3,0.2-0.3,0.4c0,0.2,0.1,0.3,0.2,0.4c-0.2,0.1-0.3,0.3-0.3,0.5c0,0.2,0.1,0.3,0.2,0.4
			c-0.2,0-0.3,0.2-0.3,0.4v0.2h-0.3c-0.1,0-0.2,0.1-0.2,0.2s0.1,0.2,0.2,0.2h0l-2.2,3.3c-0.1,0-0.2,0.1-0.2,0.1
			c-0.8,1.3-2.7,0.9-2.7,0.9l-0.4,0.5h0l0,0l0.3,0.4h0.9h0.2c0.2,0.2,0.5,0.4,1.7,0.5c-0.4,0-0.7,0.1-0.7,0.1c0,0,0.2,0.1,0.6,0.1
			v0.4c-0.4,0-0.6,0.1-0.6,0.1c0,0,0.2,0.1,0.6,0.1v1.7c-0.4,0-0.6,0.1-0.6,0.1s0.2,0.1,0.6,0.1v0.1h0.1c0,0,0,0,0,0
			c0,0-0.1,0.1-0.1,0.1c-0.8,1.3-2.7,0.9-2.7,0.9l-0.4,0.5h0l0,0l0.1,0.2l0.2,0.2h0.9h0.2c0.2,0.2,0.5,0.4,1.7,0.5
			c-0.4,0-0.7,0.1-0.7,0.1c0,0,0.2,0.1,0.6,0.1v0.4c-0.4,0-0.6,0.1-0.6,0.1c0,0,0.2,0.1,0.6,0.1v1.7c-0.4,0-0.6,0.1-0.6,0.1
			c0,0,0.2,0.1,0.6,0.1V46h0.1c0,0,0,0,0,0c0,0-0.1,0.1-0.1,0.1c-0.8,1.3-2.7,0.9-2.7,0.9l-0.4,0.4h0l0,0l0.3,0.4h0.9h0.2
			c0.2,0.2,0.5,0.4,1.7,0.5c-0.4,0-0.7,0.1-0.7,0.1c0,0,0.2,0.1,0.6,0.1V49c-0.4,0-0.6,0.1-0.6,0.1c0,0,0.2,0.1,0.6,0.1v1.7
			c-0.4,0-0.6,0.1-0.6,0.1c0,0,0.2,0.1,0.6,0.1v0.1h0.1c0,0,0,0,0,0c0,0-0.1,0.1-0.1,0.1c-0.8,1.3-2.7,0.9-2.7,0.9l-0.4,0.5h0l0,0
			l0.3,0.4h0.9h0.2c0.2,0.2,0.5,0.4,1.7,0.5c-0.4,0-0.7,0.1-0.7,0.1c0,0,0.2,0.1,0.6,0.1v0.4c-0.4,0-0.6,0.1-0.6,0.1
			c0,0,0.2,0.1,0.6,0.1V56c-0.4,0-0.6,0.1-0.6,0.1s0.2,0.1,0.6,0.1v0.1h0.1c0,0,0,0,0,0c0,0-0.1,0.1-0.1,0.1
			c-0.8,1.3-2.7,0.9-2.7,0.9l-0.4,0.4h0l0,0l0.1,0.2l0.2,0.2h0.9h0.2c0.2,0.2,0.5,0.4,1.7,0.5c-0.4,0-0.7,0.1-0.7,0.1
			c0,0,0.2,0.1,0.6,0.1v0.4c-0.4,0-0.6,0.1-0.6,0.1c0,0,0.2,0.1,0.6,0.1v1.7c-0.4,0-0.6,0.1-0.6,0.1h-2.4c-0.1,0-0.2,0.1-0.2,0.2
			c0,0.1,0.1,0.2,0.2,0.2h0.1v1.3h-0.1c-0.1,0-0.2,0.1-0.2,0.2s0.1,0.2,0.2,0.2h12.6c0.1,0,0.2-0.1,0.2-0.2S56,62.9,55.9,62.9z
			 M49.6,39v1.5v0.2v0.1v0v0v0v0v0v0v0.6v0.9v0.2v0.1v0.1v0.4v0.1v0.1v0.2v0.2v0.4v1.5v0.2V46v0v0v0v0v0v0v0.6v0.9v0.2v0.1v0.1v0.4
			v0.1v0.1v0.2v0.2v0.4v1.5V51v0.1v0v0v0v0v0v0v0.6v0.9v0.2v0.1V53v0.4v0.1v0.1v0.2V54v0.4v1.5v0.2v0.1v0v0v0v0v0v0v0.6v0.9v0.2V58
			v0.1v0.4v0.1v0.1v0.2v0.2v0.4V61v0.2h0V61v-1.5v-0.4v-0.2v-0.2v-0.1v-0.1v-0.4V58v-0.1v-0.2v-0.9v-0.6v0v0v0v0v0v0v-0.1v-0.2v-1.5
			V54v-0.2v-0.2v-0.1v-0.1V53v-0.1v-0.1v-0.2v-0.9v-0.6v0v0v0v0v0v0V51v-0.2v-1.5v-0.4v-0.2v-0.2v-0.1v-0.1v-0.4v-0.1v-0.1v-0.2
			v-0.9V46v0v0v0v0v0v0v-0.1v-0.2v-1.5v-0.4v-0.2v-0.2v-0.1v-0.1v-0.4v-0.1v-0.1v-0.2v-0.9v-0.6v0v0v0v0v0v0v-0.1v-0.2L49.6,39
			L49.6,39L49.6,39L49.6,39z"/>
	</g>
	<path fill="#510B28" d="M63,62.9c0,0.3-0.2,0.5-0.5,0.5h-61c-0.3,0-0.5-0.2-0.5-0.5l0,0c0-0.3,0.2-0.5,0.5-0.5h61
		C62.8,62.4,63,62.6,63,62.9L63,62.9z"/>
	<g>
		<path fill="#510B28" d="M33.1,9c0,0.4-0.3,0.7-0.7,0.7h-0.8c-0.4,0-0.7-0.3-0.7-0.7V7.8c0-0.4,0.3-0.7,0.7-0.7h0.8
			c0.4,0,0.7,0.3,0.7,0.7V9z"/>
		<polygon fill="#14A89D" points="33.3,8.7 30.6,8.7 26.4,14.8 31.9,20.3 37.5,14.8 		"/>
		<polygon fill="#03605B" points="33.3,8.7 31.9,8.7 31.9,20.3 37.5,14.8 		"/>
		<g>
			<g>
				<g>
					<rect x="26.1" y="19" fill="#D8164E" width="5.9" height="4.7"/>
					<polyline fill="#E82868" points="26.1,23.7 26.1,19 27,19 					"/>
					<polyline fill="#C1144D" points="26.1,19 32,19 32,23.7 					"/>
					<path fill="#891038" d="M32,18.6c-3.8,0-6.9,0.1-6.9,0.3c0,0.2,3.1,0.3,6.9,0.3V18.6z"/>
					<path fill="#891038" d="M32,19.7c-3.8,0-6.9,0.1-6.9,0.3c0,0.2,3.1,0.3,6.9,0.3V19.7z"/>
					<path fill="#700B32" d="M25.1,20c0,0.2,3.1,0.3,6.9,0.3"/>
					<path fill="#700B32" d="M32,23c-3.8,0-6.9,0.1-6.9,0.3c0,0.2,3.1,0.3,6.9,0.3V23z"/>
					<path fill="#E2D63B" d="M30.1,21.7c0,0.2-0.2,0.4-0.4,0.4h-1.4c-0.2,0-0.4-0.2-0.4-0.4l0,0c0-0.2,0.2-0.4,0.4-0.4h1.4
						C30,21.3,30.1,21.5,30.1,21.7L30.1,21.7z"/>
					<path fill="#C9B823" d="M29.7,21.3H29l0.9,0.7c0.1-0.1,0.2-0.2,0.2-0.3C30.1,21.5,30,21.3,29.7,21.3z"/>
				</g>
				<path fill="#510B28" d="M32,17.7h-9c0.6,0.6,1.1,1.3,9,1.1V17.7z"/>
				<path fill="#14C6B5" d="M32,14.5h-1.6c0,0-3.6,0-3.8,0c-0.2,0-0.4,0.2-0.4,0.2c-1.4,2.2-4.7,1.6-4.7,1.6l-0.7,0.8l0.5,0.7h1.6
					H32V14.5z"/>
				<path fill="#109B8E" d="M32,14.5h-1.6c0,0-3.6,0-3.8,0c-0.2,0-0.4,0.2-0.4,0.2c-1.4,2.2-4.2,2-4.2,2l-1.2,0.4l0.5,0.7h1.6H32
					V14.5z"/>
				<g>
					<path fill="#108E82" d="M31.5,14.5h-0.6c0,0,0,0,0.1,0C31.3,14.5,31.5,14.5,31.5,14.5z"/>
					<path fill="#108E82" d="M28.3,14.6c0.1,0,0.2,0,0.4,0c0,0,0,0,0,0C28.5,14.6,28.4,14.6,28.3,14.6z"/>
					<path fill="#108E82" d="M27.6,14.6c0.2,0,0.5,0,0.7,0c-0.3,0-0.6,0-0.6,0C27.7,14.5,27.6,14.5,27.6,14.6z"/>
					<path fill="#108E82" d="M28.8,14.5C28.7,14.5,28.7,14.6,28.8,14.5c0,0,0.1,0,0.3,0C28.9,14.6,28.8,14.6,28.8,14.5z"/>
					<path fill="#108E82" d="M31.9,14.6C31.9,14.6,31.9,14.6,31.9,14.6c-0.2,0-0.4,0-0.7,0c0.1,0,0.2,0,0.3,0
						C31.6,14.6,31.8,14.6,31.9,14.6z"/>
					<path fill="#108E82" d="M29.8,14.5C29.8,14.5,29.8,14.6,29.8,14.5C29.8,14.6,29.9,14.6,29.8,14.5
						C29.9,14.5,29.8,14.5,29.8,14.5z"/>
					<path fill="#108E82" d="M30.8,14.6c0.1,0,0.2,0,0.3,0c-0.1,0-0.2,0-0.2,0C30.9,14.6,30.9,14.6,30.8,14.6
						C30.8,14.6,30.8,14.6,30.8,14.6z"/>
					<path fill="#108E82" d="M32,14.5C32,14.5,32,14.5,32,14.5C32,14.5,31.9,14.6,32,14.5C32,14.6,32,14.6,32,14.5L32,14.5z"/>
					<path fill="#108E82" d="M31.9,14.6C31.9,14.6,31.9,14.6,31.9,14.6c0,0,0.1,0,0.1,0v0C32,14.6,31.9,14.6,31.9,14.6z"/>
				</g>
				<polygon fill="#06897C" points="20.8,17.2 20.8,17.2 21.3,17.9 22.9,17.9 32,17.9 32,17.2 				"/>
				<polygon fill="#06897C" points="20.8,17.2 20.8,17.2 21.3,17.9 22.9,17.9 32,17.9 32,17.2 				"/>
				<polygon fill="#0A7C79" points="21.3,17.9 22.9,17.9 32,17.9 32,17.5 21,17.5 				"/>
			</g>
			<g>
				<g>
					<rect x="32" y="19" fill="#930941" width="5.9" height="4.7"/>
					<polyline fill="#7C093D" points="37.9,23.7 37.9,19 37,19 					"/>
					<polyline fill="#700B32" points="37.9,19 32,19 32,23.7 					"/>
					<path fill="#891038" d="M32,18.6c3.8,0,6.9,0.1,6.9,0.3c0,0.2-3.1,0.3-6.9,0.3V18.6z"/>
					<path fill="#891038" d="M32,19.7c3.8,0,6.9,0.1,6.9,0.3c0,0.2-3.1,0.3-6.9,0.3V19.7z"/>
					<path fill="#700B32" d="M38.9,20c0,0.2-3.1,0.3-6.9,0.3"/>
					<path fill="#700B32" d="M32,23c3.8,0,6.9,0.1,6.9,0.3c0,0.2-3.1,0.3-6.9,0.3V23z"/>
					<path fill="#E2D63B" d="M33.9,21.7c0,0.2,0.2,0.4,0.4,0.4h1.4c0.2,0,0.4-0.2,0.4-0.4l0,0c0-0.2-0.2-0.4-0.4-0.4h-1.4
						C34,21.3,33.9,21.5,33.9,21.7L33.9,21.7z"/>
					<path fill="#C9B823" d="M34.3,21.3H35L34.1,22c-0.1-0.1-0.2-0.2-0.2-0.3C33.9,21.5,34,21.3,34.3,21.3z"/>
				</g>
				<path fill="#510B28" d="M32,17.7h9c-0.6,0.6-1.1,1.3-9,1.1V17.7z"/>
				<path fill="#14A89D" d="M32,14.5h1.6c0,0,3.6,0,3.8,0c0.2,0,0.4,0.2,0.4,0.2c1.4,2.2,4.7,1.6,4.7,1.6l0.7,0.8l-0.5,0.7h-1.6H32
					V14.5z"/>
				<path fill="#0A7C79" d="M32,14.5h1.6c0,0,3.6,0,3.8,0c0.2,0,0.4,0.2,0.4,0.2c1.4,2.2,4.2,2,4.2,2l1.2,0.4l-0.5,0.7h-1.6H32V14.5
					z"/>
				<g>
					<path fill="#108E82" d="M32.5,14.5h0.6c0,0,0,0-0.1,0C32.7,14.5,32.5,14.5,32.5,14.5z"/>
					<path fill="#108E82" d="M34.3,14.6C34.2,14.6,34.2,14.6,34.3,14.6c0.2,0,0.4,0,0.7,0c-0.1,0-0.2,0-0.3,0
						C34.5,14.6,34.4,14.6,34.3,14.6z"/>
					<path fill="#108E82" d="M33.1,14.6C33.1,14.6,33.1,14.5,33.1,14.6l0.5,0c0,0,0.2,0,0.5,0c0,0-0.1,0-0.2,0
						C33.6,14.6,33.4,14.6,33.1,14.6z"/>
					<path fill="#108E82" d="M35.7,14.6c-0.1,0-0.2,0-0.4,0c0,0,0,0,0,0C35.5,14.6,35.6,14.6,35.7,14.6z"/>
					<path fill="#108E82" d="M36.4,14.6c-0.2,0-0.5,0-0.7,0c0.3,0,0.6,0,0.6,0C36.3,14.5,36.4,14.5,36.4,14.6z"/>
					<path fill="#108E82" d="M35.2,14.5C35.3,14.5,35.3,14.6,35.2,14.5c0,0-0.1,0-0.3,0C35.1,14.6,35.2,14.6,35.2,14.5z"/>
					<path fill="#108E82" d="M32.1,14.6C32.1,14.6,32.1,14.6,32.1,14.6c0.2,0,0.4,0,0.7,0c-0.1,0-0.2,0-0.3,0
						C32.4,14.6,32.2,14.6,32.1,14.6z"/>
					<path fill="#108E82" d="M33.6,14.6c-0.1,0-0.2,0-0.4,0c0,0,0,0,0,0C33.3,14.6,33.4,14.6,33.6,14.6z"/>
					<path fill="#108E82" d="M34.2,14.5C34.2,14.5,34.2,14.6,34.2,14.5C34.2,14.6,34.1,14.6,34.2,14.5
						C34.1,14.5,34.2,14.5,34.2,14.5z"/>
					<path fill="#108E82" d="M34.3,14.6C34.3,14.6,34.3,14.6,34.3,14.6c-0.2,0-0.4,0-0.7,0c0.1,0,0.2,0,0.3,0
						C34,14.6,34.1,14.6,34.3,14.6z"/>
					<path fill="#108E82" d="M33.2,14.6c-0.1,0-0.2,0-0.3,0c0.1,0,0.2,0,0.2,0C33.1,14.6,33.1,14.6,33.2,14.6
						C33.2,14.6,33.2,14.6,33.2,14.6z"/>
					<path fill="#108E82" d="M32,14.5C32,14.5,32,14.5,32,14.5C32,14.5,32.1,14.6,32,14.5C32,14.6,32,14.6,32,14.5L32,14.5z"/>
					<path fill="#108E82" d="M32.1,14.6C32.1,14.6,32.1,14.6,32.1,14.6c0,0-0.1,0-0.1,0v0C32,14.6,32.1,14.6,32.1,14.6z"/>
				</g>
				<polygon fill="#06897C" points="43.2,17.2 43.2,17.2 42.7,17.9 41.1,17.9 32,17.9 32,17.2 				"/>
				<polygon fill="#06897C" points="43.2,17.2 43.2,17.2 42.7,17.9 41.1,17.9 32,17.9 32,17.2 				"/>
				<polygon fill="#0A7C79" points="42.7,17.9 41.1,17.9 32,17.9 32,17.5 43,17.5 				"/>
			</g>
		</g>
		<g>
			<g>
				<g>
					<rect x="26.1" y="28" fill="#D8164E" width="5.9" height="4.7"/>
					<polyline fill="#E82868" points="26.1,32.7 26.1,28 27,28 					"/>
					<polyline fill="#C1144D" points="26.1,28 32,28 32,32.7 					"/>
					<path fill="#891038" d="M32,27.7c-3.8,0-6.9,0.1-6.9,0.3c0,0.2,3.1,0.3,6.9,0.3V27.7z"/>
					<path fill="#891038" d="M32,28.8c-3.8,0-6.9,0.1-6.9,0.3c0,0.2,3.1,0.3,6.9,0.3V28.8z"/>
					<path fill="#700B32" d="M25.1,29.1c0,0.2,3.1,0.3,6.9,0.3"/>
					<path fill="#700B32" d="M32,32.1c-3.8,0-6.9,0.1-6.9,0.3c0,0.2,3.1,0.3,6.9,0.3V32.1z"/>
					<path fill="#E2D63B" d="M30.1,30.7c0,0.2-0.2,0.4-0.4,0.4h-1.4c-0.2,0-0.4-0.2-0.4-0.4l0,0c0-0.2,0.2-0.4,0.4-0.4h1.4
						C30,30.4,30.1,30.5,30.1,30.7L30.1,30.7z"/>
					<path fill="#C9B823" d="M29.7,30.4H29l0.9,0.7c0.1-0.1,0.2-0.2,0.2-0.3C30.1,30.5,30,30.4,29.7,30.4z"/>
				</g>
				<path fill="#510B28" d="M32,26.8h-9c0.6,0.6,1.1,1.3,9,1.1V26.8z"/>
				<path fill="#14C6B5" d="M32,23.6h-1.6c0,0-3.6,0-3.8,0c-0.2,0-0.4,0.2-0.4,0.2c-1.4,2.2-4.7,1.6-4.7,1.6l-0.7,0.8l0.5,0.7h1.6
					H32V23.6z"/>
				<path fill="#14A89D" d="M32,23.6h-1.6c0,0-3.6,0-3.8,0c-0.2,0-0.4,0.2-0.4,0.2c-1.4,2.2-4.2,2-4.2,2l-1.2,0.4l0.5,0.7h1.6H32
					V23.6z"/>
				<g>
					<path fill="#108E82" d="M31.5,23.6h-0.6c0,0,0,0,0.1,0C31.3,23.6,31.5,23.6,31.5,23.6z"/>
					<path fill="#108E82" d="M29.7,23.6C29.8,23.6,29.8,23.6,29.7,23.6c-0.2,0-0.4,0-0.7,0c0.1,0,0.2,0,0.3,0
						C29.5,23.6,29.6,23.6,29.7,23.6z"/>
					<path fill="#108E82" d="M30.9,23.6C30.9,23.6,30.9,23.6,30.9,23.6l-0.5,0c0,0-0.2,0-0.5,0c0,0,0.1,0,0.2,0
						C30.4,23.6,30.6,23.6,30.9,23.6z"/>
					<path fill="#108E82" d="M28.3,23.6c0.1,0,0.2,0,0.4,0c0,0,0,0,0,0C28.5,23.6,28.4,23.6,28.3,23.6z"/>
					<path fill="#108E82" d="M26.6,23.6c-0.2,0-0.4,0.2-0.4,0.2L23.8,27h1.1l2.5-3.1c0,0,0.1-0.2,0.3-0.2
						C27.1,23.6,26.7,23.6,26.6,23.6z"/>
					<path fill="#108E82" d="M27.6,23.6c0.2,0,0.5,0,0.7,0c-0.3,0-0.6,0-0.6,0C27.7,23.6,27.6,23.6,27.6,23.6z"/>
					<path fill="#108E82" d="M28.8,23.6C28.7,23.6,28.7,23.6,28.8,23.6c0,0,0.1,0,0.3,0C28.9,23.6,28.8,23.6,28.8,23.6z"/>
					<path fill="#108E82" d="M31.9,23.6C31.9,23.6,31.9,23.6,31.9,23.6c-0.2,0-0.4,0-0.7,0c0.1,0,0.2,0,0.3,0
						C31.6,23.6,31.8,23.6,31.9,23.6z"/>
					<path fill="#108E82" d="M30.4,23.6c0.1,0,0.2,0,0.4,0c0,0,0,0,0,0C30.7,23.6,30.6,23.6,30.4,23.6z"/>
					<path fill="#108E82" d="M29.4,23.6c-0.2,0-0.5,0-0.7,0c-0.1,0.1-0.3,0.2-0.3,0.2L25.9,27H27l2.5-3.1c0,0,0.1-0.2,0.3-0.2
						C29.6,23.6,29.5,23.6,29.4,23.6z"/>
					<path fill="#108E82" d="M29.8,23.6C29.8,23.6,29.8,23.6,29.8,23.6C29.8,23.6,29.9,23.6,29.8,23.6
						C29.9,23.6,29.8,23.6,29.8,23.6z"/>
					<path fill="#108E82" d="M29.7,23.6C29.7,23.6,29.7,23.6,29.7,23.6c0.2,0,0.4,0,0.7,0c-0.1,0-0.2,0-0.3,0
						C30,23.6,29.9,23.6,29.7,23.6z"/>
					<path fill="#108E82" d="M30.8,23.6c0.1,0,0.2,0,0.3,0c-0.1,0-0.2,0-0.2,0C30.9,23.6,30.9,23.6,30.8,23.6
						C30.8,23.6,30.8,23.6,30.8,23.6z"/>
					<path fill="#108E82" d="M31.5,23.6c-0.2,0-0.5,0-0.7,0c-0.1,0.1-0.3,0.2-0.3,0.2L28.1,27h1.1l2.5-3.1c0,0,0.1-0.2,0.3-0.2
						C31.7,23.6,31.6,23.6,31.5,23.6z"/>
					<path fill="#108E82" d="M32,23.6C32,23.6,32,23.6,32,23.6C32,23.6,31.9,23.6,32,23.6C32,23.6,32,23.6,32,23.6L32,23.6z"/>
					<path fill="#108E82" d="M31.9,23.6C31.9,23.6,31.9,23.6,31.9,23.6c0,0,0.1,0,0.1,0v0C32,23.6,31.9,23.6,31.9,23.6z"/>
					<polygon fill="#108E82" points="32,27 32,24.7 30.2,27 					"/>
				</g>
				<polygon fill="#06897C" points="20.8,26.3 20.8,26.3 21.3,27 22.9,27 32,27 32,26.3 				"/>
				<polygon fill="#06897C" points="20.8,26.3 20.8,26.3 21.3,27 22.9,27 32,27 32,26.3 				"/>
				<polygon fill="#0A7C79" points="21.3,27 22.9,27 32,27 32,26.6 21,26.6 				"/>
				<path fill="#0A7C79" d="M32,23.4h-5.6c-0.1,0-0.2,0.1-0.2,0.2c0,0.1,0.1,0.2,0.2,0.2H32V23.4z"/>
			</g>
			<g>
				<g>
					<rect x="32" y="28" fill="#930941" width="5.9" height="4.7"/>
					<polyline fill="#7C093D" points="37.9,32.7 37.9,28 37,28 					"/>
					<polyline fill="#700B32" points="37.9,28 32,28 32,32.7 					"/>
					<path fill="#891038" d="M32,27.7c3.8,0,6.9,0.1,6.9,0.3c0,0.2-3.1,0.3-6.9,0.3V27.7z"/>
					<path fill="#891038" d="M32,28.8c3.8,0,6.9,0.1,6.9,0.3c0,0.2-3.1,0.3-6.9,0.3V28.8z"/>
					<path fill="#700B32" d="M38.9,29.1c0,0.2-3.1,0.3-6.9,0.3"/>
					<path fill="#700B32" d="M32,32.1c3.8,0,6.9,0.1,6.9,0.3c0,0.2-3.1,0.3-6.9,0.3V32.1z"/>
					<path fill="#E2D63B" d="M33.9,30.7c0,0.2,0.2,0.4,0.4,0.4h1.4c0.2,0,0.4-0.2,0.4-0.4l0,0c0-0.2-0.2-0.4-0.4-0.4h-1.4
						C34,30.4,33.9,30.5,33.9,30.7L33.9,30.7z"/>
					<path fill="#C9B823" d="M34.3,30.4H35l-0.9,0.7c-0.1-0.1-0.2-0.2-0.2-0.3C33.9,30.5,34,30.4,34.3,30.4z"/>
				</g>
				<path fill="#510B28" d="M32,26.8h9c-0.6,0.6-1.1,1.3-9,1.1V26.8z"/>
				<path fill="#14A89D" d="M32,23.6h1.6c0,0,3.6,0,3.8,0c0.2,0,0.4,0.2,0.4,0.2c1.4,2.2,4.7,1.6,4.7,1.6l0.7,0.8L42.7,27h-1.6H32
					V23.6z"/>
				<path fill="#0A7C79" d="M32,23.6h1.6c0,0,3.6,0,3.8,0c0.2,0,0.4,0.2,0.4,0.2c1.4,2.2,4.2,2,4.2,2l1.2,0.4L42.7,27h-1.6H32V23.6z
					"/>
				<g>
					<path fill="#108E82" d="M32.5,23.6h0.6c0,0,0,0-0.1,0C32.7,23.6,32.5,23.6,32.5,23.6z"/>
					<path fill="#108E82" d="M34.3,23.6C34.2,23.6,34.2,23.6,34.3,23.6c0.2,0,0.4,0,0.7,0c-0.1,0-0.2,0-0.3,0
						C34.5,23.6,34.4,23.6,34.3,23.6z"/>
					<path fill="#108E82" d="M33.1,23.6C33.1,23.6,33.1,23.6,33.1,23.6l0.5,0c0,0,0.2,0,0.5,0c0,0-0.1,0-0.2,0
						C33.6,23.6,33.4,23.6,33.1,23.6z"/>
					<path fill="#108E82" d="M35.7,23.6c-0.1,0-0.2,0-0.4,0c0,0,0,0,0,0C35.5,23.6,35.6,23.6,35.7,23.6z"/>
					<path fill="#03605B" d="M37.4,23.6c0.2,0,0.4,0.2,0.4,0.2l2.5,3.1h-1.1l-2.5-3.1c0,0-0.1-0.2-0.3-0.2
						C36.9,23.6,37.3,23.6,37.4,23.6z"/>
					<path fill="#108E82" d="M36.4,23.6c-0.2,0-0.5,0-0.7,0c0.3,0,0.6,0,0.6,0C36.3,23.6,36.4,23.6,36.4,23.6z"/>
					<path fill="#108E82" d="M35.2,23.6C35.3,23.6,35.3,23.6,35.2,23.6c0,0-0.1,0-0.3,0C35.1,23.6,35.2,23.6,35.2,23.6z"/>
					<path fill="#108E82" d="M32.1,23.6C32.1,23.6,32.1,23.6,32.1,23.6c0.2,0,0.4,0,0.7,0c-0.1,0-0.2,0-0.3,0
						C32.4,23.6,32.2,23.6,32.1,23.6z"/>
					<path fill="#108E82" d="M33.6,23.6c-0.1,0-0.2,0-0.4,0c0,0,0,0,0,0C33.3,23.6,33.4,23.6,33.6,23.6z"/>
					<path fill="#03605B" d="M34.6,23.6c0.2,0,0.5,0,0.7,0c0.1,0.1,0.3,0.2,0.3,0.2l2.5,3.1H37l-2.5-3.1c0,0-0.1-0.2-0.3-0.2
						C34.4,23.6,34.5,23.6,34.6,23.6z"/>
					<path fill="#108E82" d="M34.2,23.6C34.2,23.6,34.2,23.6,34.2,23.6C34.2,23.6,34.1,23.6,34.2,23.6
						C34.1,23.6,34.2,23.6,34.2,23.6z"/>
					<path fill="#108E82" d="M34.3,23.6C34.3,23.6,34.3,23.6,34.3,23.6c-0.2,0-0.4,0-0.7,0c0.1,0,0.2,0,0.3,0
						C34,23.6,34.1,23.6,34.3,23.6z"/>
					<path fill="#108E82" d="M33.2,23.6c-0.1,0-0.2,0-0.3,0c0.1,0,0.2,0,0.2,0C33.1,23.6,33.1,23.6,33.2,23.6
						C33.2,23.6,33.2,23.6,33.2,23.6z"/>
					<path fill="#03605B" d="M32.5,23.6c0.2,0,0.5,0,0.7,0c0.1,0.1,0.3,0.2,0.3,0.2l2.5,3.1h-1.1l-2.5-3.1c0,0-0.1-0.2-0.3-0.2
						C32.3,23.6,32.4,23.6,32.5,23.6z"/>
					<path fill="#108E82" d="M32,23.6C32,23.6,32,23.6,32,23.6C32,23.6,32.1,23.6,32,23.6C32,23.6,32,23.6,32,23.6L32,23.6z"/>
					<path fill="#108E82" d="M32.1,23.6C32.1,23.6,32.1,23.6,32.1,23.6c0,0-0.1,0-0.1,0v0C32,23.6,32.1,23.6,32.1,23.6z"/>
					<polygon fill="#03605B" points="32,27 32,24.7 33.8,27 					"/>
				</g>
				<polygon fill="#06897C" points="43.2,26.3 43.2,26.3 42.7,27 41.1,27 32,27 32,26.3 				"/>
				<polygon fill="#06897C" points="43.2,26.3 43.2,26.3 42.7,27 41.1,27 32,27 32,26.3 				"/>
				<polygon fill="#0A7C79" points="42.7,27 41.1,27 32,27 32,26.6 43,26.6 				"/>
				<path fill="#0A7C79" d="M32,23.4h5.6c0.1,0,0.2,0.1,0.2,0.2c0,0.1-0.1,0.2-0.2,0.2H32V23.4z"/>
			</g>
		</g>
		<g>
			<g>
				<g>
					<rect x="26.1" y="37.1" fill="#D8164E" width="5.9" height="4.7"/>
					<polyline fill="#E82868" points="26.1,41.8 26.1,37.1 27,37.1 					"/>
					<polyline fill="#C1144D" points="26.1,37.1 32,37.1 32,41.8 					"/>
					<path fill="#891038" d="M32,36.7c-3.8,0-6.9,0.1-6.9,0.3c0,0.2,3.1,0.3,6.9,0.3V36.7z"/>
					<path fill="#891038" d="M32,37.8c-3.8,0-6.9,0.1-6.9,0.3c0,0.2,3.1,0.3,6.9,0.3V37.8z"/>
					<path fill="#700B32" d="M25.1,38.2c0,0.2,3.1,0.3,6.9,0.3"/>
					<path fill="#700B32" d="M32,41.1c-3.8,0-6.9,0.1-6.9,0.3c0,0.2,3.1,0.3,6.9,0.3V41.1z"/>
					<path fill="#E2D63B" d="M30.1,39.8c0,0.2-0.2,0.4-0.4,0.4h-1.4c-0.2,0-0.4-0.2-0.4-0.4l0,0c0-0.2,0.2-0.4,0.4-0.4h1.4
						C30,39.4,30.1,39.6,30.1,39.8L30.1,39.8z"/>
					<path fill="#C9B823" d="M29.7,39.4H29l0.9,0.7c0.1-0.1,0.2-0.2,0.2-0.3C30.1,39.6,30,39.4,29.7,39.4z"/>
				</g>
				<path fill="#510B28" d="M32,35.8h-9c0.6,0.6,1.1,1.3,9,1.1V35.8z"/>
				<path fill="#14C6B5" d="M32,32.7h-1.6c0,0-3.6,0-3.8,0c-0.2,0-0.4,0.2-0.4,0.2c-1.4,2.2-4.7,1.6-4.7,1.6l-0.7,0.8l0.5,0.7h1.6
					H32V32.7z"/>
				<path fill="#14A89D" d="M32,32.7h-1.6c0,0-3.6,0-3.8,0c-0.2,0-0.4,0.2-0.4,0.2c-1.4,2.2-4.2,2-4.2,2l-1.2,0.4l0.5,0.7h1.6H32
					V32.7z"/>
				<g>
					<path fill="#108E82" d="M31.5,32.7h-0.6c0,0,0,0,0.1,0C31.3,32.7,31.5,32.7,31.5,32.7z"/>
					<path fill="#108E82" d="M29.7,32.7C29.8,32.7,29.8,32.7,29.7,32.7c-0.2,0-0.4,0-0.7,0c0.1,0,0.2,0,0.3,0
						C29.5,32.7,29.6,32.7,29.7,32.7z"/>
					<path fill="#108E82" d="M30.9,32.7C30.9,32.7,30.9,32.7,30.9,32.7l-0.5,0c0,0-0.2,0-0.5,0c0,0,0.1,0,0.2,0
						C30.4,32.7,30.6,32.7,30.9,32.7z"/>
					<path fill="#108E82" d="M28.3,32.7c0.1,0,0.2,0,0.4,0c0,0,0,0,0,0C28.5,32.7,28.4,32.7,28.3,32.7z"/>
					<path fill="#108E82" d="M26.6,32.7c-0.2,0-0.4,0.2-0.4,0.2L23.8,36h1.1l2.5-3.1c0,0,0.1-0.2,0.3-0.2
						C27.1,32.7,26.7,32.7,26.6,32.7z"/>
					<path fill="#108E82" d="M27.6,32.7c0.2,0,0.5,0,0.7,0c-0.3,0-0.6,0-0.6,0C27.7,32.7,27.6,32.7,27.6,32.7z"/>
					<path fill="#108E82" d="M28.8,32.7C28.7,32.7,28.7,32.7,28.8,32.7c0,0,0.1,0,0.3,0C28.9,32.7,28.8,32.7,28.8,32.7z"/>
					<path fill="#108E82" d="M31.9,32.7C31.9,32.7,31.9,32.7,31.9,32.7c-0.2,0-0.4,0-0.7,0c0.1,0,0.2,0,0.3,0
						C31.6,32.7,31.8,32.7,31.9,32.7z"/>
					<path fill="#108E82" d="M30.4,32.7c0.1,0,0.2,0,0.4,0c0,0,0,0,0,0C30.7,32.7,30.6,32.7,30.4,32.7z"/>
					<path fill="#108E82" d="M29.4,32.7c-0.2,0-0.5,0-0.7,0c-0.1,0.1-0.3,0.2-0.3,0.2L25.9,36H27l2.5-3.1c0,0,0.1-0.2,0.3-0.2
						C29.6,32.7,29.5,32.7,29.4,32.7z"/>
					<path fill="#108E82" d="M29.8,32.7C29.8,32.7,29.8,32.7,29.8,32.7C29.8,32.7,29.9,32.7,29.8,32.7
						C29.9,32.7,29.8,32.7,29.8,32.7z"/>
					<path fill="#108E82" d="M29.7,32.7C29.7,32.7,29.7,32.7,29.7,32.7c0.2,0,0.4,0,0.7,0c-0.1,0-0.2,0-0.3,0
						C30,32.7,29.9,32.7,29.7,32.7z"/>
					<path fill="#108E82" d="M30.8,32.7c0.1,0,0.2,0,0.3,0c-0.1,0-0.2,0-0.2,0C30.9,32.7,30.9,32.7,30.8,32.7
						C30.8,32.7,30.8,32.7,30.8,32.7z"/>
					<path fill="#108E82" d="M31.5,32.7c-0.2,0-0.5,0-0.7,0c-0.1,0.1-0.3,0.2-0.3,0.2L28.1,36h1.1l2.5-3.1c0,0,0.1-0.2,0.3-0.2
						C31.7,32.7,31.6,32.7,31.5,32.7z"/>
					<path fill="#108E82" d="M32,32.7C32,32.7,32,32.7,32,32.7C32,32.7,31.9,32.7,32,32.7C32,32.7,32,32.7,32,32.7L32,32.7z"/>
					<path fill="#108E82" d="M31.9,32.7C31.9,32.7,31.9,32.7,31.9,32.7c0,0,0.1,0,0.1,0v0C32,32.7,31.9,32.7,31.9,32.7z"/>
					<polygon fill="#108E82" points="32,36 32,33.8 30.2,36 					"/>
				</g>
				<polygon fill="#06897C" points="20.8,35.3 20.8,35.3 21.3,36 22.9,36 32,36 32,35.3 				"/>
				<polygon fill="#06897C" points="20.8,35.3 20.8,35.3 21.3,36 22.9,36 32,36 32,35.3 				"/>
				<polygon fill="#0A7C79" points="21.3,36 22.9,36 32,36 32,35.6 21,35.6 				"/>
				<path fill="#0A7C79" d="M32,32.4h-5.6c-0.1,0-0.2,0.1-0.2,0.2c0,0.1,0.1,0.2,0.2,0.2H32V32.4z"/>
			</g>
			<g>
				<g>
					<rect x="32" y="37.1" fill="#930941" width="5.9" height="4.7"/>
					<polyline fill="#7C093D" points="37.9,41.8 37.9,37.1 37,37.1 					"/>
					<polyline fill="#700B32" points="37.9,37.1 32,37.1 32,41.8 					"/>
					<path fill="#891038" d="M32,36.7c3.8,0,6.9,0.1,6.9,0.3c0,0.2-3.1,0.3-6.9,0.3V36.7z"/>
					<path fill="#891038" d="M32,37.8c3.8,0,6.9,0.1,6.9,0.3c0,0.2-3.1,0.3-6.9,0.3V37.8z"/>
					<path fill="#700B32" d="M38.9,38.2c0,0.2-3.1,0.3-6.9,0.3"/>
					<path fill="#700B32" d="M32,41.1c3.8,0,6.9,0.1,6.9,0.3c0,0.2-3.1,0.3-6.9,0.3V41.1z"/>
					<path fill="#E2D63B" d="M33.9,39.8c0,0.2,0.2,0.4,0.4,0.4h1.4c0.2,0,0.4-0.2,0.4-0.4l0,0c0-0.2-0.2-0.4-0.4-0.4h-1.4
						C34,39.4,33.9,39.6,33.9,39.8L33.9,39.8z"/>
					<path fill="#C9B823" d="M34.3,39.4H35l-0.9,0.7c-0.1-0.1-0.2-0.2-0.2-0.3C33.9,39.6,34,39.4,34.3,39.4z"/>
				</g>
				<path fill="#510B28" d="M32,35.8h9c-0.6,0.6-1.1,1.3-9,1.1V35.8z"/>
				<path fill="#14A89D" d="M32,32.7h1.6c0,0,3.6,0,3.8,0c0.2,0,0.4,0.2,0.4,0.2c1.4,2.2,4.7,1.6,4.7,1.6l0.7,0.8L42.7,36h-1.6H32
					V32.7z"/>
				<path fill="#0A7C79" d="M32,32.7h1.6c0,0,3.6,0,3.8,0c0.2,0,0.4,0.2,0.4,0.2c1.4,2.2,4.2,2,4.2,2l1.2,0.4L42.7,36h-1.6H32V32.7z
					"/>
				<g>
					<path fill="#108E82" d="M32.5,32.7h0.6c0,0,0,0-0.1,0C32.7,32.7,32.5,32.7,32.5,32.7z"/>
					<path fill="#108E82" d="M34.3,32.7C34.2,32.7,34.2,32.7,34.3,32.7c0.2,0,0.4,0,0.7,0c-0.1,0-0.2,0-0.3,0
						C34.5,32.7,34.4,32.7,34.3,32.7z"/>
					<path fill="#108E82" d="M33.1,32.7C33.1,32.7,33.1,32.7,33.1,32.7l0.5,0c0,0,0.2,0,0.5,0c0,0-0.1,0-0.2,0
						C33.6,32.7,33.4,32.7,33.1,32.7z"/>
					<path fill="#108E82" d="M35.7,32.7c-0.1,0-0.2,0-0.4,0c0,0,0,0,0,0C35.5,32.7,35.6,32.7,35.7,32.7z"/>
					<path fill="#03605B" d="M37.4,32.7c0.2,0,0.4,0.2,0.4,0.2l2.5,3.1h-1.1l-2.5-3.1c0,0-0.1-0.2-0.3-0.2
						C36.9,32.7,37.3,32.7,37.4,32.7z"/>
					<path fill="#108E82" d="M36.4,32.7c-0.2,0-0.5,0-0.7,0c0.3,0,0.6,0,0.6,0C36.3,32.7,36.4,32.7,36.4,32.7z"/>
					<path fill="#108E82" d="M35.2,32.7C35.3,32.7,35.3,32.7,35.2,32.7c0,0-0.1,0-0.3,0C35.1,32.7,35.2,32.7,35.2,32.7z"/>
					<path fill="#108E82" d="M32.1,32.7C32.1,32.7,32.1,32.7,32.1,32.7c0.2,0,0.4,0,0.7,0c-0.1,0-0.2,0-0.3,0
						C32.4,32.7,32.2,32.7,32.1,32.7z"/>
					<path fill="#108E82" d="M33.6,32.7c-0.1,0-0.2,0-0.4,0c0,0,0,0,0,0C33.3,32.7,33.4,32.7,33.6,32.7z"/>
					<path fill="#03605B" d="M34.6,32.7c0.2,0,0.5,0,0.7,0c0.1,0.1,0.3,0.2,0.3,0.2l2.5,3.1H37l-2.5-3.1c0,0-0.1-0.2-0.3-0.2
						C34.4,32.7,34.5,32.7,34.6,32.7z"/>
					<path fill="#108E82" d="M34.2,32.7C34.2,32.7,34.2,32.7,34.2,32.7C34.2,32.7,34.1,32.7,34.2,32.7
						C34.1,32.7,34.2,32.7,34.2,32.7z"/>
					<path fill="#108E82" d="M34.3,32.7C34.3,32.7,34.3,32.7,34.3,32.7c-0.2,0-0.4,0-0.7,0c0.1,0,0.2,0,0.3,0
						C34,32.7,34.1,32.7,34.3,32.7z"/>
					<path fill="#108E82" d="M33.2,32.7c-0.1,0-0.2,0-0.3,0c0.1,0,0.2,0,0.2,0C33.1,32.7,33.1,32.7,33.2,32.7
						C33.2,32.7,33.2,32.7,33.2,32.7z"/>
					<path fill="#03605B" d="M32.5,32.7c0.2,0,0.5,0,0.7,0c0.1,0.1,0.3,0.2,0.3,0.2l2.5,3.1h-1.1l-2.5-3.1c0,0-0.1-0.2-0.3-0.2
						C32.3,32.7,32.4,32.7,32.5,32.7z"/>
					<path fill="#108E82" d="M32,32.7C32,32.7,32,32.7,32,32.7C32,32.7,32.1,32.7,32,32.7C32,32.7,32,32.7,32,32.7L32,32.7z"/>
					<path fill="#108E82" d="M32.1,32.7C32.1,32.7,32.1,32.7,32.1,32.7c0,0-0.1,0-0.1,0v0C32,32.7,32.1,32.7,32.1,32.7z"/>
					<polygon fill="#03605B" points="32,36 32,33.8 33.8,36 					"/>
				</g>
				<polygon fill="#06897C" points="43.2,35.3 43.2,35.3 42.7,36 41.1,36 32,36 32,35.3 				"/>
				<polygon fill="#06897C" points="43.2,35.3 43.2,35.3 42.7,36 41.1,36 32,36 32,35.3 				"/>
				<polygon fill="#0A7C79" points="42.7,36 41.1,36 32,36 32,35.6 43,35.6 				"/>
				<path fill="#0A7C79" d="M32,32.4h5.6c0.1,0,0.2,0.1,0.2,0.2c0,0.1-0.1,0.2-0.2,0.2H32V32.4z"/>
			</g>
		</g>
		<g>
			<g>
				<g>
					<rect x="26.1" y="46.1" fill="#D8164E" width="5.9" height="4.7"/>
					<polyline fill="#E82868" points="26.1,50.9 26.1,46.1 27,46.1 					"/>
					<polyline fill="#C1144D" points="26.1,46.1 32,46.1 32,50.9 					"/>
					<path fill="#891038" d="M32,45.8c-3.8,0-6.9,0.1-6.9,0.3c0,0.2,3.1,0.3,6.9,0.3V45.8z"/>
					<path fill="#891038" d="M32,46.9c-3.8,0-6.9,0.1-6.9,0.3c0,0.2,3.1,0.3,6.9,0.3V46.9z"/>
					<path fill="#700B32" d="M25.1,47.2c0,0.2,3.1,0.3,6.9,0.3"/>
					<path fill="#700B32" d="M32,50.2c-3.8,0-6.9,0.1-6.9,0.3c0,0.2,3.1,0.3,6.9,0.3V50.2z"/>
					<path fill="#E2D63B" d="M30.1,48.9c0,0.2-0.2,0.4-0.4,0.4h-1.4c-0.2,0-0.4-0.2-0.4-0.4l0,0c0-0.2,0.2-0.4,0.4-0.4h1.4
						C30,48.5,30.1,48.6,30.1,48.9L30.1,48.9z"/>
					<path fill="#C9B823" d="M29.7,48.5H29l0.9,0.7c0.1-0.1,0.2-0.2,0.2-0.3C30.1,48.6,30,48.5,29.7,48.5z"/>
				</g>
				<path fill="#510B28" d="M32,44.9h-9c0.6,0.6,1.1,1.3,9,1.1V44.9z"/>
				<path fill="#14C6B5" d="M32,41.7h-1.6c0,0-3.6,0-3.8,0c-0.2,0-0.4,0.2-0.4,0.2c-1.4,2.2-4.7,1.6-4.7,1.6l-0.7,0.8l0.5,0.7h1.6
					H32V41.7z"/>
				<path fill="#14A89D" d="M32,41.7h-1.6c0,0-3.6,0-3.8,0c-0.2,0-0.4,0.2-0.4,0.2c-1.4,2.2-4.2,2-4.2,2l-1.2,0.4l0.5,0.7h1.6H32
					V41.7z"/>
				<g>
					<path fill="#108E82" d="M31.5,41.7h-0.6c0,0,0,0,0.1,0C31.3,41.7,31.5,41.7,31.5,41.7z"/>
					<path fill="#108E82" d="M29.7,41.7C29.8,41.7,29.8,41.7,29.7,41.7c-0.2,0-0.4,0-0.7,0c0.1,0,0.2,0,0.3,0
						C29.5,41.7,29.6,41.7,29.7,41.7z"/>
					<path fill="#108E82" d="M30.9,41.7C30.9,41.7,30.9,41.7,30.9,41.7l-0.5,0c0,0-0.2,0-0.5,0c0,0,0.1,0,0.2,0
						C30.4,41.7,30.6,41.7,30.9,41.7z"/>
					<path fill="#108E82" d="M28.3,41.7c0.1,0,0.2,0,0.4,0c0,0,0,0,0,0C28.5,41.7,28.4,41.7,28.3,41.7z"/>
					<path fill="#108E82" d="M26.6,41.7c-0.2,0-0.4,0.2-0.4,0.2l-2.5,3.1h1.1l2.5-3.1c0,0,0.1-0.2,0.3-0.2
						C27.1,41.7,26.7,41.7,26.6,41.7z"/>
					<path fill="#108E82" d="M27.6,41.7c0.2,0,0.5,0,0.7,0c-0.3,0-0.6,0-0.6,0C27.7,41.7,27.6,41.7,27.6,41.7z"/>
					<path fill="#108E82" d="M28.8,41.7C28.7,41.7,28.7,41.7,28.8,41.7c0,0,0.1,0,0.3,0C28.9,41.7,28.8,41.7,28.8,41.7z"/>
					<path fill="#108E82" d="M31.9,41.7C31.9,41.7,31.9,41.7,31.9,41.7c-0.2,0-0.4,0-0.7,0c0.1,0,0.2,0,0.3,0
						C31.6,41.7,31.8,41.7,31.9,41.7z"/>
					<path fill="#108E82" d="M30.4,41.7c0.1,0,0.2,0,0.4,0c0,0,0,0,0,0C30.7,41.7,30.6,41.7,30.4,41.7z"/>
					<path fill="#108E82" d="M29.4,41.7c-0.2,0-0.5,0-0.7,0c-0.1,0.1-0.3,0.2-0.3,0.2l-2.5,3.1H27l2.5-3.1c0,0,0.1-0.2,0.3-0.2
						C29.6,41.7,29.5,41.7,29.4,41.7z"/>
					<path fill="#108E82" d="M29.8,41.7C29.8,41.7,29.8,41.7,29.8,41.7C29.8,41.7,29.9,41.7,29.8,41.7
						C29.9,41.7,29.8,41.7,29.8,41.7z"/>
					<path fill="#108E82" d="M29.7,41.7C29.7,41.7,29.7,41.7,29.7,41.7c0.2,0,0.4,0,0.7,0c-0.1,0-0.2,0-0.3,0
						C30,41.7,29.9,41.7,29.7,41.7z"/>
					<path fill="#108E82" d="M30.8,41.7c0.1,0,0.2,0,0.3,0c-0.1,0-0.2,0-0.2,0C30.9,41.7,30.9,41.7,30.8,41.7
						C30.8,41.7,30.8,41.7,30.8,41.7z"/>
					<path fill="#108E82" d="M31.5,41.7c-0.2,0-0.5,0-0.7,0c-0.1,0.1-0.3,0.2-0.3,0.2l-2.5,3.1h1.1l2.5-3.1c0,0,0.1-0.2,0.3-0.2
						C31.7,41.7,31.6,41.7,31.5,41.7z"/>
					<path fill="#108E82" d="M32,41.7C32,41.7,32,41.7,32,41.7C32,41.7,31.9,41.7,32,41.7C32,41.7,32,41.7,32,41.7L32,41.7z"/>
					<path fill="#108E82" d="M31.9,41.7C31.9,41.7,31.9,41.7,31.9,41.7c0,0,0.1,0,0.1,0v0C32,41.7,31.9,41.7,31.9,41.7z"/>
					<polygon fill="#108E82" points="32,45.1 32,42.8 30.2,45.1 					"/>
				</g>
				<polygon fill="#06897C" points="20.8,44.4 20.8,44.4 21.3,45.1 22.9,45.1 32,45.1 32,44.4 				"/>
				<polygon fill="#06897C" points="20.8,44.4 20.8,44.4 21.3,45.1 22.9,45.1 32,45.1 32,44.4 				"/>
				<polygon fill="#0A7C79" points="21.3,45.1 22.9,45.1 32,45.1 32,44.7 21,44.7 				"/>
				<path fill="#0A7C79" d="M32,41.5h-5.6c-0.1,0-0.2,0.1-0.2,0.2c0,0.1,0.1,0.2,0.2,0.2H32V41.5z"/>
			</g>
			<g>
				<g>
					<rect x="32" y="46.1" fill="#930941" width="5.9" height="4.7"/>
					<polyline fill="#7C093D" points="37.9,50.9 37.9,46.1 37,46.1 					"/>
					<polyline fill="#700B32" points="37.9,46.1 32,46.1 32,50.9 					"/>
					<path fill="#891038" d="M32,45.8c3.8,0,6.9,0.1,6.9,0.3c0,0.2-3.1,0.3-6.9,0.3V45.8z"/>
					<path fill="#891038" d="M32,46.9c3.8,0,6.9,0.1,6.9,0.3c0,0.2-3.1,0.3-6.9,0.3V46.9z"/>
					<path fill="#700B32" d="M38.9,47.2c0,0.2-3.1,0.3-6.9,0.3"/>
					<path fill="#700B32" d="M32,50.2c3.8,0,6.9,0.1,6.9,0.3c0,0.2-3.1,0.3-6.9,0.3V50.2z"/>
					<path fill="#E2D63B" d="M33.9,48.9c0,0.2,0.2,0.4,0.4,0.4h1.4c0.2,0,0.4-0.2,0.4-0.4l0,0c0-0.2-0.2-0.4-0.4-0.4h-1.4
						C34,48.5,33.9,48.6,33.9,48.9L33.9,48.9z"/>
					<path fill="#C9B823" d="M34.3,48.5H35l-0.9,0.7c-0.1-0.1-0.2-0.2-0.2-0.3C33.9,48.6,34,48.5,34.3,48.5z"/>
				</g>
				<path fill="#510B28" d="M32,44.9h9c-0.6,0.6-1.1,1.3-9,1.1V44.9z"/>
				<path fill="#14A89D" d="M32,41.7h1.6c0,0,3.6,0,3.8,0c0.2,0,0.4,0.2,0.4,0.2c1.4,2.2,4.7,1.6,4.7,1.6l0.7,0.8l-0.5,0.7h-1.6H32
					V41.7z"/>
				<path fill="#0A7C79" d="M32,41.7h1.6c0,0,3.6,0,3.8,0c0.2,0,0.4,0.2,0.4,0.2c1.4,2.2,4.2,2,4.2,2l1.2,0.4l-0.5,0.7h-1.6H32V41.7
					z"/>
				<g>
					<path fill="#108E82" d="M32.5,41.7h0.6c0,0,0,0-0.1,0C32.7,41.7,32.5,41.7,32.5,41.7z"/>
					<path fill="#108E82" d="M34.3,41.7C34.2,41.7,34.2,41.7,34.3,41.7c0.2,0,0.4,0,0.7,0c-0.1,0-0.2,0-0.3,0
						C34.5,41.7,34.4,41.7,34.3,41.7z"/>
					<path fill="#108E82" d="M33.1,41.7C33.1,41.7,33.1,41.7,33.1,41.7l0.5,0c0,0,0.2,0,0.5,0c0,0-0.1,0-0.2,0
						C33.6,41.7,33.4,41.7,33.1,41.7z"/>
					<path fill="#108E82" d="M35.7,41.7c-0.1,0-0.2,0-0.4,0c0,0,0,0,0,0C35.5,41.7,35.6,41.7,35.7,41.7z"/>
					<path fill="#03605B" d="M37.4,41.7c0.2,0,0.4,0.2,0.4,0.2l2.5,3.1h-1.1L36.7,42c0,0-0.1-0.2-0.3-0.2
						C36.9,41.7,37.3,41.7,37.4,41.7z"/>
					<path fill="#108E82" d="M36.4,41.7c-0.2,0-0.5,0-0.7,0c0.3,0,0.6,0,0.6,0C36.3,41.7,36.4,41.7,36.4,41.7z"/>
					<path fill="#108E82" d="M35.2,41.7C35.3,41.7,35.3,41.7,35.2,41.7c0,0-0.1,0-0.3,0C35.1,41.7,35.2,41.7,35.2,41.7z"/>
					<path fill="#108E82" d="M32.1,41.7C32.1,41.7,32.1,41.7,32.1,41.7c0.2,0,0.4,0,0.7,0c-0.1,0-0.2,0-0.3,0
						C32.4,41.7,32.2,41.7,32.1,41.7z"/>
					<path fill="#108E82" d="M33.6,41.7c-0.1,0-0.2,0-0.4,0c0,0,0,0,0,0C33.3,41.7,33.4,41.7,33.6,41.7z"/>
					<path fill="#03605B" d="M34.6,41.7c0.2,0,0.5,0,0.7,0c0.1,0.1,0.3,0.2,0.3,0.2l2.5,3.1H37L34.5,42c0,0-0.1-0.2-0.3-0.2
						C34.4,41.7,34.5,41.7,34.6,41.7z"/>
					<path fill="#108E82" d="M34.2,41.7C34.2,41.7,34.2,41.7,34.2,41.7C34.2,41.7,34.1,41.7,34.2,41.7
						C34.1,41.7,34.2,41.7,34.2,41.7z"/>
					<path fill="#108E82" d="M34.3,41.7C34.3,41.7,34.3,41.7,34.3,41.7c-0.2,0-0.4,0-0.7,0c0.1,0,0.2,0,0.3,0
						C34,41.7,34.1,41.7,34.3,41.7z"/>
					<path fill="#108E82" d="M33.2,41.7c-0.1,0-0.2,0-0.3,0c0.1,0,0.2,0,0.2,0C33.1,41.7,33.1,41.7,33.2,41.7
						C33.2,41.7,33.2,41.7,33.2,41.7z"/>
					<path fill="#03605B" d="M32.5,41.7c0.2,0,0.5,0,0.7,0c0.1,0.1,0.3,0.2,0.3,0.2l2.5,3.1h-1.1L32.4,42c0,0-0.1-0.2-0.3-0.2
						C32.3,41.7,32.4,41.7,32.5,41.7z"/>
					<path fill="#108E82" d="M32,41.7C32,41.7,32,41.7,32,41.7C32,41.7,32.1,41.7,32,41.7C32,41.7,32,41.7,32,41.7L32,41.7z"/>
					<path fill="#108E82" d="M32.1,41.7C32.1,41.7,32.1,41.7,32.1,41.7c0,0-0.1,0-0.1,0v0C32,41.7,32.1,41.7,32.1,41.7z"/>
					<polygon fill="#03605B" points="32,45.1 32,42.8 33.8,45.1 					"/>
				</g>
				<polygon fill="#06897C" points="43.2,44.4 43.2,44.4 42.7,45.1 41.1,45.1 32,45.1 32,44.4 				"/>
				<polygon fill="#06897C" points="43.2,44.4 43.2,44.4 42.7,45.1 41.1,45.1 32,45.1 32,44.4 				"/>
				<polygon fill="#0A7C79" points="42.7,45.1 41.1,45.1 32,45.1 32,44.7 43,44.7 				"/>
				<path fill="#0A7C79" d="M32,41.5h5.6c0.1,0,0.2,0.1,0.2,0.2c0,0.1-0.1,0.2-0.2,0.2H32V41.5z"/>
			</g>
		</g>
		<g>
			<g>
				<g>
					<rect x="26.1" y="55.2" fill="#D8164E" width="5.9" height="4.7"/>
					<polyline fill="#E82868" points="26.1,59.9 26.1,55.2 27,55.2 					"/>
					<polyline fill="#C1144D" points="26.1,55.2 32,55.2 32,59.9 					"/>
					<path fill="#891038" d="M32,54.9c-3.8,0-6.9,0.1-6.9,0.3c0,0.2,3.1,0.3,6.9,0.3V54.9z"/>
					<path fill="#891038" d="M32,55.9c-3.8,0-6.9,0.1-6.9,0.3c0,0.2,3.1,0.3,6.9,0.3V55.9z"/>
					<path fill="#700B32" d="M25.1,56.3c0,0.2,3.1,0.3,6.9,0.3"/>
					<path fill="#700B32" d="M32,59.3c-3.8,0-6.9,0.1-6.9,0.3c0,0.2,3.1,0.3,6.9,0.3V59.3z"/>
					<path fill="#E2D63B" d="M30.1,57.9c0,0.2-0.2,0.4-0.4,0.4h-1.4c-0.2,0-0.4-0.2-0.4-0.4l0,0c0-0.2,0.2-0.4,0.4-0.4h1.4
						C30,57.5,30.1,57.7,30.1,57.9L30.1,57.9z"/>
					<path fill="#C9B823" d="M29.7,57.5H29l0.9,0.7c0.1-0.1,0.2-0.2,0.2-0.3C30.1,57.7,30,57.5,29.7,57.5z"/>
				</g>
				<path fill="#510B28" d="M32,54h-9c0.6,0.6,1.1,1.3,9,1.1V54z"/>
				<path fill="#14C6B5" d="M32,50.8h-1.6c0,0-3.6,0-3.8,0c-0.2,0-0.4,0.2-0.4,0.2c-1.4,2.2-4.7,1.6-4.7,1.6l-0.7,0.8l0.5,0.7h1.6
					H32V50.8z"/>
				<path fill="#14A89D" d="M32,50.8h-1.6c0,0-3.6,0-3.8,0c-0.2,0-0.4,0.2-0.4,0.2c-1.4,2.2-4.2,2-4.2,2l-1.2,0.4l0.5,0.7h1.6H32
					V50.8z"/>
				<g>
					<path fill="#108E82" d="M31.5,50.8h-0.6c0,0,0,0,0.1,0C31.3,50.8,31.5,50.8,31.5,50.8z"/>
					<path fill="#108E82" d="M29.7,50.8C29.8,50.8,29.8,50.8,29.7,50.8c-0.2,0-0.4,0-0.7,0c0.1,0,0.2,0,0.3,0
						C29.5,50.8,29.6,50.8,29.7,50.8z"/>
					<path fill="#108E82" d="M30.9,50.8C30.9,50.8,30.9,50.8,30.9,50.8l-0.5,0c0,0-0.2,0-0.5,0c0,0,0.1,0,0.2,0
						C30.4,50.8,30.6,50.8,30.9,50.8z"/>
					<path fill="#108E82" d="M28.3,50.8c0.1,0,0.2,0,0.4,0c0,0,0,0,0,0C28.5,50.8,28.4,50.8,28.3,50.8z"/>
					<path fill="#108E82" d="M26.6,50.8c-0.2,0-0.4,0.2-0.4,0.2l-2.5,3.1h1.1l2.5-3.1c0,0,0.1-0.2,0.3-0.2
						C27.1,50.8,26.7,50.8,26.6,50.8z"/>
					<path fill="#108E82" d="M27.6,50.8c0.2,0,0.5,0,0.7,0c-0.3,0-0.6,0-0.6,0C27.7,50.8,27.6,50.8,27.6,50.8z"/>
					<path fill="#108E82" d="M28.8,50.8C28.7,50.8,28.7,50.8,28.8,50.8c0,0,0.1,0,0.3,0C28.9,50.8,28.8,50.8,28.8,50.8z"/>
					<path fill="#108E82" d="M31.9,50.8C31.9,50.8,31.9,50.8,31.9,50.8c-0.2,0-0.4,0-0.7,0c0.1,0,0.2,0,0.3,0
						C31.6,50.8,31.8,50.8,31.9,50.8z"/>
					<path fill="#108E82" d="M30.4,50.8c0.1,0,0.2,0,0.4,0c0,0,0,0,0,0C30.7,50.8,30.6,50.8,30.4,50.8z"/>
					<path fill="#108E82" d="M29.4,50.8c-0.2,0-0.5,0-0.7,0c-0.1,0.1-0.3,0.2-0.3,0.2l-2.5,3.1H27l2.5-3.1c0,0,0.1-0.2,0.3-0.2
						C29.6,50.8,29.5,50.8,29.4,50.8z"/>
					<path fill="#108E82" d="M29.8,50.8C29.8,50.8,29.8,50.8,29.8,50.8C29.8,50.8,29.9,50.8,29.8,50.8
						C29.9,50.8,29.8,50.8,29.8,50.8z"/>
					<path fill="#108E82" d="M29.7,50.8C29.7,50.8,29.7,50.8,29.7,50.8c0.2,0,0.4,0,0.7,0c-0.1,0-0.2,0-0.3,0
						C30,50.8,29.9,50.8,29.7,50.8z"/>
					<path fill="#108E82" d="M30.8,50.8c0.1,0,0.2,0,0.3,0c-0.1,0-0.2,0-0.2,0C30.9,50.8,30.9,50.8,30.8,50.8
						C30.8,50.8,30.8,50.8,30.8,50.8z"/>
					<path fill="#108E82" d="M31.5,50.8c-0.2,0-0.5,0-0.7,0c-0.1,0.1-0.3,0.2-0.3,0.2l-2.5,3.1h1.1l2.5-3.1c0,0,0.1-0.2,0.3-0.2
						C31.7,50.8,31.6,50.8,31.5,50.8z"/>
					<path fill="#108E82" d="M32,50.8C32,50.8,32,50.8,32,50.8C32,50.8,31.9,50.8,32,50.8C32,50.8,32,50.8,32,50.8L32,50.8z"/>
					<path fill="#108E82" d="M31.9,50.8C31.9,50.8,31.9,50.8,31.9,50.8c0,0,0.1,0,0.1,0v0C32,50.8,31.9,50.8,31.9,50.8z"/>
					<polygon fill="#108E82" points="32,54.2 32,51.9 30.2,54.2 					"/>
				</g>
				<polygon fill="#06897C" points="20.8,53.4 20.8,53.5 21.3,54.2 22.9,54.2 32,54.2 32,53.4 				"/>
				<polygon fill="#06897C" points="20.8,53.4 20.8,53.5 21.3,54.2 22.9,54.2 32,54.2 32,53.4 				"/>
				<polygon fill="#0A7C79" points="21.3,54.2 22.9,54.2 32,54.2 32,53.8 21,53.8 				"/>
				<path fill="#0A7C79" d="M32,50.5h-5.6c-0.1,0-0.2,0.1-0.2,0.2c0,0.1,0.1,0.2,0.2,0.2H32V50.5z"/>
			</g>
			<g>
				<g>
					<rect x="32" y="55.2" fill="#930941" width="5.9" height="4.7"/>
					<polyline fill="#7C093D" points="37.9,59.9 37.9,55.2 37,55.2 					"/>
					<polyline fill="#700B32" points="37.9,55.2 32,55.2 32,59.9 					"/>
					<path fill="#891038" d="M32,54.9c3.8,0,6.9,0.1,6.9,0.3c0,0.2-3.1,0.3-6.9,0.3V54.9z"/>
					<path fill="#891038" d="M32,55.9c3.8,0,6.9,0.1,6.9,0.3c0,0.2-3.1,0.3-6.9,0.3V55.9z"/>
					<path fill="#700B32" d="M38.9,56.3c0,0.2-3.1,0.3-6.9,0.3"/>
					<path fill="#700B32" d="M32,59.3c3.8,0,6.9,0.1,6.9,0.3c0,0.2-3.1,0.3-6.9,0.3V59.3z"/>
					<path fill="#E2D63B" d="M33.9,57.9c0,0.2,0.2,0.4,0.4,0.4h1.4c0.2,0,0.4-0.2,0.4-0.4l0,0c0-0.2-0.2-0.4-0.4-0.4h-1.4
						C34,57.5,33.9,57.7,33.9,57.9L33.9,57.9z"/>
					<path fill="#C9B823" d="M34.3,57.5H35l-0.9,0.7c-0.1-0.1-0.2-0.2-0.2-0.3C33.9,57.7,34,57.5,34.3,57.5z"/>
				</g>
				<path fill="#510B28" d="M32,54h9c-0.6,0.6-1.1,1.3-9,1.1V54z"/>
				<path fill="#14A89D" d="M32,50.8h1.6c0,0,3.6,0,3.8,0c0.2,0,0.4,0.2,0.4,0.2c1.4,2.2,4.7,1.6,4.7,1.6l0.7,0.8l-0.5,0.7h-1.6H32
					V50.8z"/>
				<path fill="#0A7C79" d="M32,50.8h1.6c0,0,3.6,0,3.8,0c0.2,0,0.4,0.2,0.4,0.2c1.4,2.2,4.2,2,4.2,2l1.2,0.4l-0.5,0.7h-1.6H32V50.8
					z"/>
				<g>
					<path fill="#108E82" d="M32.5,50.8h0.6c0,0,0,0-0.1,0C32.7,50.8,32.5,50.8,32.5,50.8z"/>
					<path fill="#108E82" d="M34.3,50.8C34.2,50.8,34.2,50.8,34.3,50.8c0.2,0,0.4,0,0.7,0c-0.1,0-0.2,0-0.3,0
						C34.5,50.8,34.4,50.8,34.3,50.8z"/>
					<path fill="#108E82" d="M33.1,50.8C33.1,50.8,33.1,50.8,33.1,50.8l0.5,0c0,0,0.2,0,0.5,0c0,0-0.1,0-0.2,0
						C33.6,50.8,33.4,50.8,33.1,50.8z"/>
					<path fill="#108E82" d="M35.7,50.8c-0.1,0-0.2,0-0.4,0c0,0,0,0,0,0C35.5,50.8,35.6,50.8,35.7,50.8z"/>
					<path fill="#03605B" d="M37.4,50.8c0.2,0,0.4,0.2,0.4,0.2l2.5,3.1h-1.1L36.7,51c0,0-0.1-0.2-0.3-0.2
						C36.9,50.8,37.3,50.8,37.4,50.8z"/>
					<path fill="#108E82" d="M36.4,50.8c-0.2,0-0.5,0-0.7,0c0.3,0,0.6,0,0.6,0C36.3,50.8,36.4,50.8,36.4,50.8z"/>
					<path fill="#108E82" d="M35.2,50.8C35.3,50.8,35.3,50.8,35.2,50.8c0,0-0.1,0-0.3,0C35.1,50.8,35.2,50.8,35.2,50.8z"/>
					<path fill="#108E82" d="M32.1,50.8C32.1,50.8,32.1,50.8,32.1,50.8c0.2,0,0.4,0,0.7,0c-0.1,0-0.2,0-0.3,0
						C32.4,50.8,32.2,50.8,32.1,50.8z"/>
					<path fill="#108E82" d="M33.6,50.8c-0.1,0-0.2,0-0.4,0c0,0,0,0,0,0C33.3,50.8,33.4,50.8,33.6,50.8z"/>
					<path fill="#03605B" d="M34.6,50.8c0.2,0,0.5,0,0.7,0c0.1,0.1,0.3,0.2,0.3,0.2l2.5,3.1H37L34.5,51c0,0-0.1-0.2-0.3-0.2
						C34.4,50.8,34.5,50.8,34.6,50.8z"/>
					<path fill="#108E82" d="M34.2,50.8C34.2,50.8,34.2,50.8,34.2,50.8C34.2,50.8,34.1,50.8,34.2,50.8
						C34.1,50.8,34.2,50.8,34.2,50.8z"/>
					<path fill="#108E82" d="M34.3,50.8C34.3,50.8,34.3,50.8,34.3,50.8c-0.2,0-0.4,0-0.7,0c0.1,0,0.2,0,0.3,0
						C34,50.8,34.1,50.8,34.3,50.8z"/>
					<path fill="#108E82" d="M33.2,50.8c-0.1,0-0.2,0-0.3,0c0.1,0,0.2,0,0.2,0C33.1,50.8,33.1,50.8,33.2,50.8
						C33.2,50.8,33.2,50.8,33.2,50.8z"/>
					<path fill="#03605B" d="M32.5,50.8c0.2,0,0.5,0,0.7,0c0.1,0.1,0.3,0.2,0.3,0.2l2.5,3.1h-1.1L32.4,51c0,0-0.1-0.2-0.3-0.2
						C32.3,50.8,32.4,50.8,32.5,50.8z"/>
					<path fill="#108E82" d="M32,50.8C32,50.8,32,50.8,32,50.8C32,50.8,32.1,50.8,32,50.8C32,50.8,32,50.8,32,50.8L32,50.8z"/>
					<path fill="#108E82" d="M32.1,50.8C32.1,50.8,32.1,50.8,32.1,50.8c0,0-0.1,0-0.1,0v0C32,50.8,32.1,50.8,32.1,50.8z"/>
					<polygon fill="#03605B" points="32,54.2 32,51.9 33.8,54.2 					"/>
				</g>
				<polygon fill="#06897C" points="43.2,53.4 43.2,53.5 42.7,54.2 41.1,54.2 32,54.2 32,53.4 				"/>
				<polygon fill="#06897C" points="43.2,53.4 43.2,53.5 42.7,54.2 41.1,54.2 32,54.2 32,53.4 				"/>
				<polygon fill="#0A7C79" points="42.7,54.2 41.1,54.2 32,54.2 32,53.8 43,53.8 				"/>
				<path fill="#0A7C79" d="M32,50.5h5.6c0.1,0,0.2,0.1,0.2,0.2c0,0.1-0.1,0.2-0.2,0.2H32V50.5z"/>
			</g>
		</g>
		<g>
			<path fill="#D8164E" d="M43,62.8c0,0.1-0.1,0.2-0.3,0.2H21.3c-0.2,0-0.3-0.1-0.3-0.2v-2.6c0-0.1,0.1-0.2,0.3-0.2h21.3
				c0.2,0,0.3,0.1,0.3,0.2V62.8z"/>
			<path fill="#C1144D" d="M21,60.2c0-0.1,0.1-0.2,0.3-0.2h21.3c0.2,0,0.3,0.1,0.3,0.2v2.6c0,0.1-0.1,0.2-0.3,0.2"/>
			<g>
				<path fill="#891038" d="M43.5,60c0,0.2-0.2,0.4-0.4,0.4H20.8c-0.2,0-0.4-0.2-0.4-0.4l0,0c0-0.2,0.2-0.4,0.4-0.4h22.3
					C43.4,59.6,43.5,59.7,43.5,60L43.5,60z"/>
				<path fill="#891038" d="M43.5,63c0,0.2-0.2,0.4-0.4,0.4H20.8c-0.2,0-0.4-0.2-0.4-0.4l0,0c0-0.2,0.2-0.4,0.4-0.4h22.3
					C43.4,62.6,43.5,62.8,43.5,63L43.5,63z"/>
			</g>
			<g>
				<path fill="#891038" d="M22.3,61.9c0,0.1-0.1,0.2-0.2,0.2l0,0c-0.1,0-0.2-0.1-0.2-0.2v-0.8c0-0.1,0.1-0.2,0.2-0.2l0,0
					c0.1,0,0.2,0.1,0.2,0.2V61.9z"/>
				<path fill="#891038" d="M24.1,61.9c0,0.1-0.1,0.2-0.2,0.2l0,0c-0.1,0-0.2-0.1-0.2-0.2v-0.8c0-0.1,0.1-0.2,0.2-0.2l0,0
					c0.1,0,0.2,0.1,0.2,0.2V61.9z"/>
				<path fill="#891038" d="M25.9,61.9c0,0.1-0.1,0.2-0.2,0.2l0,0c-0.1,0-0.2-0.1-0.2-0.2v-0.8c0-0.1,0.1-0.2,0.2-0.2l0,0
					c0.1,0,0.2,0.1,0.2,0.2V61.9z"/>
				<path fill="#891038" d="M27.7,61.9c0,0.1-0.1,0.2-0.2,0.2l0,0c-0.1,0-0.2-0.1-0.2-0.2v-0.8c0-0.1,0.1-0.2,0.2-0.2l0,0
					c0.1,0,0.2,0.1,0.2,0.2V61.9z"/>
				<path fill="#891038" d="M29.5,61.9c0,0.1-0.1,0.2-0.2,0.2l0,0c-0.1,0-0.2-0.1-0.2-0.2v-0.8c0-0.1,0.1-0.2,0.2-0.2l0,0
					c0.1,0,0.2,0.1,0.2,0.2V61.9z"/>
				<path fill="#891038" d="M31.3,61.9c0,0.1-0.1,0.2-0.2,0.2l0,0c-0.1,0-0.2-0.1-0.2-0.2v-0.8c0-0.1,0.1-0.2,0.2-0.2l0,0
					c0.1,0,0.2,0.1,0.2,0.2V61.9z"/>
				<path fill="#891038" d="M33.1,61.9c0,0.1-0.1,0.2-0.2,0.2l0,0c-0.1,0-0.2-0.1-0.2-0.2v-0.8c0-0.1,0.1-0.2,0.2-0.2l0,0
					c0.1,0,0.2,0.1,0.2,0.2V61.9z"/>
				<path fill="#891038" d="M34.9,61.9c0,0.1-0.1,0.2-0.2,0.2l0,0c-0.1,0-0.2-0.1-0.2-0.2v-0.8c0-0.1,0.1-0.2,0.2-0.2l0,0
					c0.1,0,0.2,0.1,0.2,0.2V61.9z"/>
				<path fill="#891038" d="M36.7,61.9c0,0.1-0.1,0.2-0.2,0.2l0,0c-0.1,0-0.2-0.1-0.2-0.2v-0.8c0-0.1,0.1-0.2,0.2-0.2l0,0
					c0.1,0,0.2,0.1,0.2,0.2V61.9z"/>
				<path fill="#891038" d="M38.5,61.9c0,0.1-0.1,0.2-0.2,0.2l0,0c-0.1,0-0.2-0.1-0.2-0.2v-0.8c0-0.1,0.1-0.2,0.2-0.2l0,0
					c0.1,0,0.2,0.1,0.2,0.2V61.9z"/>
				<path fill="#891038" d="M40.3,61.9c0,0.1-0.1,0.2-0.2,0.2l0,0c-0.1,0-0.2-0.1-0.2-0.2v-0.8c0-0.1,0.1-0.2,0.2-0.2l0,0
					c0.1,0,0.2,0.1,0.2,0.2V61.9z"/>
				<path fill="#891038" d="M42.1,61.9c0,0.1-0.1,0.2-0.2,0.2l0,0c-0.1,0-0.2-0.1-0.2-0.2v-0.8c0-0.1,0.1-0.2,0.2-0.2l0,0
					c0.1,0,0.2,0.1,0.2,0.2V61.9z"/>
			</g>
		</g>
		<path fill="#C1144D" d="M33.8,8.4c0,0.2-0.1,0.3-0.3,0.3h-3.1c-0.2,0-0.3-0.1-0.3-0.3l0,0c0-0.2,0.1-0.3,0.3-0.3h3.1
			C33.7,8.1,33.8,8.3,33.8,8.4L33.8,8.4z"/>
		<path fill="#A50C47" d="M33.8,8.4L33.8,8.4c0,0.2-0.1,0.3-0.3,0.3h-3.1c-0.2,0-0.3-0.1-0.3-0.3l0,0"/>
		<g>
			<circle fill="#EAB81C" cx="32" cy="6.4" r="1"/>
			<path fill="#E8961F" d="M32,5.4c0.5,0,1,0.4,1,1c0,0.5-0.4,1-1,1"/>
		</g>
		<g>
			<circle fill="#EAB81C" cx="32" cy="4.9" r="0.8"/>
			<path fill="#E8961F" d="M32,4.1c0.4,0,0.8,0.4,0.8,0.8c0,0.4-0.4,0.8-0.8,0.8"/>
		</g>
		<g>
			<circle fill="#EAB81C" cx="32" cy="3.5" r="0.7"/>
			<path fill="#E8961F" d="M32,2.8c0.4,0,0.7,0.3,0.7,0.7c0,0.4-0.3,0.7-0.7,0.7"/>
		</g>
		<g>
			<circle fill="#EAB81C" cx="32" cy="2.3" r="0.6"/>
			<path fill="#E8961F" d="M32,1.6c0.4,0,0.6,0.3,0.6,0.6c0,0.4-0.3,0.6-0.6,0.6"/>
		</g>
		<g>
			<circle fill="#EAB81C" cx="32" cy="1.2" r="0.6"/>
			<path fill="#E8961F" d="M32,0.6c0.3,0,0.6,0.2,0.6,0.6c0,0.3-0.2,0.6-0.6,0.6"/>
		</g>
	</g>
</g>
</svg>
