<?xml version="1.0" encoding="utf-8"?>
<!-- Generator: Adobe Illustrator 16.0.0, SVG Export Plug-In . SVG Version: 6.00 Build 0)  -->
<!DOCTYPE svg PUBLIC "-//W3C//DTD SVG 1.1//EN" "http://www.w3.org/Graphics/SVG/1.1/DTD/svg11.dtd">
<svg version="1.1" id="Layer_1" xmlns="http://www.w3.org/2000/svg" xmlns:xlink="http://www.w3.org/1999/xlink" x="0px" y="0px"
	 width="64px" height="64px" viewBox="0 0 64 64" enable-background="new 0 0 64 64" xml:space="preserve">
<g>
	<g>
		<g>
			<path fill="#F7910B" d="M62.3,38.9c0,13-11.9,23.5-30.3,23.5c-18.4,0-30.3-10.5-30.3-23.5S13.6,6.4,32,6.4
				C50.4,6.4,62.3,25.9,62.3,38.9z"/>
		</g>
		<g>
			<path fill="#F7910B" d="M62.3,38.9c0,13-11.9,19.5-30.3,19.5c-18.4,0-30.3-6.5-30.3-19.5S13.6,4.4,32,4.4
				C50.4,4.4,62.3,25.9,62.3,38.9z"/>
		</g>
		<g>
			<path fill="#F9A908" d="M32,4.4c18.4,0,30.3,21.5,30.3,34.5S50.4,58.4,32,58.4"/>
		</g>
		<g>
			<path fill="#F9A908" d="M62.3,38.9c0,13-11.9,19.5-30.3,19.5c-18.4,0-30.3-6.5-30.3-19.5S13.6,6.4,32,6.4
				C50.4,6.4,62.3,25.9,62.3,38.9z"/>
		</g>
		<g>
			<path fill="#F9C55D" d="M1.7,38.9c0-13,11.9-32.5,30.3-32.5"/>
		</g>
		<g>
			<path fill="#F7910B" d="M32,6.4c18.4,0,30.3,19.5,30.3,32.5S50.4,62.4,32,62.4"/>
		</g>
		<g>
			<path fill="#EA7103" d="M32,6.4c18.4,0,30.3,19.5,30.3,32.5"/>
		</g>
		<g>
			<g>
				<circle fill="#EA7103" cx="21.6" cy="27.1" r="3.2"/>
			</g>
			<g>
				<circle fill="#EA7103" cx="42.4" cy="27.1" r="3.2"/>
			</g>
			<g>
				<circle fill="#1E4784" cx="21.6" cy="26.2" r="3.2"/>
			</g>
			<g>
				<path fill="#00233F" d="M21.6,23c1.8,0,3.2,1.4,3.2,3.2s-1.4,3.2-3.2,3.2"/>
			</g>
			<g>
				<circle fill="#1E4784" cx="42.4" cy="26.2" r="3.2"/>
			</g>
			<g>
				<path fill="#00233F" d="M42.4,23c1.8,0,3.2,1.4,3.2,3.2s-1.4,3.2-3.2,3.2"/>
			</g>
		</g>
		<g>
			<g>
				<g>
					<g>
						<g>
							<path fill="#19BCA4" d="M25.7,17.4c0,0.9-1.4,0.5-3.3,0.6c-1.8,0.1-3.3,0.6-3.3-0.3c0-0.9,1.4-1.6,3.2-1.7
								C24.2,15.9,25.7,16.5,25.7,17.4z"/>
						</g>
					</g>
				</g>
			</g>
			<g>
				<g>
					<g>
						<g>
							<path fill="#19BCA4" d="M38.3,17.4c0,0.9,1.4,0.5,3.3,0.6c1.8,0.1,3.3,0.6,3.3-0.3c0-0.9-1.4-1.6-3.2-1.7
								C39.8,15.9,38.3,16.5,38.3,17.4z"/>
						</g>
					</g>
				</g>
			</g>
		</g>
		<g>
			<g>
				<g>
					<g>
						<g>
							<path fill="#109DA0" d="M25.7,17.4c0,0.9-1.4,0.5-3.3,0.6c-1.8,0.1-3.3,0.6-3.3-0.3"/>
						</g>
					</g>
				</g>
			</g>
			<g>
				<g>
					<g>
						<g>
							<path fill="#109DA0" d="M38.3,17.4c0,0.9,1.4,0.5,3.3,0.6c1.8,0.1,3.3,0.6,3.3-0.3"/>
						</g>
					</g>
				</g>
			</g>
		</g>
		<g>
			<g>
				<path fill="#F9C55D" d="M27.8,32.2c0,1.2-3.5,0.7-7.8,0.7c-4.3,0-7.8,0.6-7.8-0.7c0-1.2,3.5-2.2,7.8-2.2
					C24.3,30,27.8,31,27.8,32.2z"/>
			</g>
			<g>
				<path fill="#F9A908" d="M51.8,32.2c0,1.2-3.5,0.7-7.8,0.7s-7.8,0.6-7.8-0.7c0-1.2,3.5-2.2,7.8-2.2S51.8,31,51.8,32.2z"/>
			</g>
		</g>
		<g>
			<circle fill="#F7910B" cx="10.3" cy="35.9" r="0.6"/>
		</g>
		<g>
			<circle fill="#F7910B" cx="5.8" cy="37.9" r="1.1"/>
		</g>
		<g>
			<circle fill="#F7910B" cx="8.8" cy="33.9" r="0.2"/>
		</g>
		<g>
			<circle fill="#F7910B" cx="13.4" cy="35.7" r="0.2"/>
		</g>
		<g>
			<circle fill="#F9A908" cx="52.6" cy="36.2" r="0.8"/>
		</g>
		<g>
			<circle fill="#F9A908" cx="55.1" cy="37.6" r="0.2"/>
		</g>
		<g>
			<circle fill="#F9A908" cx="49.8" cy="28.8" r="0.3"/>
		</g>
		<g>
			<circle fill="#F9A908" cx="49.3" cy="40.4" r="1.3"/>
		</g>
		<g>
			<circle fill="#F9A908" cx="56.5" cy="40.5" r="0.6"/>
		</g>
		<g>
			<circle fill="#F7910B" cx="9.3" cy="39.9" r="0.5"/>
		</g>
		<g>
			<circle fill="#F7910B" cx="10.1" cy="31.5" r="0.4"/>
		</g>
		<g>
			<circle fill="#F9A908" cx="4.8" cy="17.7" r="1.1"/>
		</g>
		<g>
			<circle fill="#F9A908" cx="8" cy="14.2" r="0.6"/>
		</g>
		<g>
			<circle fill="#F9A908" cx="59.2" cy="20.1" r="0.2"/>
		</g>
		<g>
			<circle fill="#F9A908" cx="58.4" cy="17.2" r="0.8"/>
		</g>
		<g>
			<path fill="#F9A908" d="M61.5,17.7c0,0.3-0.2,0.5-0.5,0.5c-0.3,0-0.5-0.2-0.5-0.5s0.2-0.5,0.5-0.5C61.2,17.2,61.5,17.5,61.5,17.7
				z"/>
		</g>
		<g>
			<circle fill="#F9A908" cx="6" cy="20.7" r="0.6"/>
		</g>
		<g>
			<g>
				<path fill="#F7910B" d="M39.4,38.6c0,2.6-3.3,4.7-7.4,4.7c-4.1,0-7.4-2.1-7.4-4.7"/>
			</g>
			<g>
				<g>
					<path fill="#02243E" d="M27.8,40.4c-3.2,0-6.6-1.9-9.2-4.6c-0.4-0.4-0.4-1.1,0-1.6c0.4-0.4,1.1-0.4,1.6,0
						c2.5,2.5,7.7,5.9,11.1,2.5c0.4-0.4,1.1-0.4,1.6,0c0.4,0.4,0.4,1.1,0,1.6C31.3,39.8,29.6,40.4,27.8,40.4z"/>
				</g>
				<g>
					<path fill="#02243E" d="M36.2,40.4c-1.8,0-3.5-0.6-5-2.1c-0.4-0.4-0.4-1.1,0-1.6c0.4-0.4,1.1-0.4,1.6,0c3.4,3.4,8.6,0,11.1-2.5
						c0.4-0.4,1.1-0.4,1.6,0c0.4,0.4,0.4,1.1,0,1.6C42.8,38.5,39.4,40.4,36.2,40.4z"/>
				</g>
			</g>
			<g>
				<g>
					<path fill="#02243E" d="M17,36.5c-0.6,0-1.1-0.5-1.1-1.1s0.5-1.1,1.1-1.1c0.9,0,1.6-0.7,1.6-1.6c0-0.6,0.5-1.1,1.1-1.1
						s1.1,0.5,1.1,1.1C20.7,34.8,19,36.5,17,36.5z"/>
				</g>
				<g>
					<path fill="#02243E" d="M47,36.5c-2.1,0-3.8-1.7-3.8-3.8c0-0.6,0.5-1.1,1.1-1.1s1.1,0.5,1.1,1.1c0,0.9,0.7,1.6,1.6,1.6
						c0.6,0,1.1,0.5,1.1,1.1S47.6,36.5,47,36.5z"/>
				</g>
			</g>
			<g>
				<path fill="#F9C55D" d="M29.4,37c-0.2,0.7-2.1,0.6-4.2-0.2c-2.1-0.8-3.5-1.9-3.3-2.6c0.2-0.7,1.9,0,4,0.7
					C28,35.7,29.6,36.3,29.4,37z"/>
			</g>
			<g>
				<path fill="#F9A908" d="M34.9,37c0.2,0.7,2.1,0.6,4.2-0.2c2.1-0.8,3.5-1.9,3.3-2.6c-0.2-0.7-1.9,0-4,0.7
					C36.3,35.7,34.6,36.3,34.9,37z"/>
			</g>
		</g>
	</g>
	<g>
		<g>
			<g>
				<g>
					<g>
						<g>
							<path fill="#D81665" d="M48.8,2.3c1.8,0.5,3,1.9,3.2,3.5c0,0.2,0.2,0.3,0.3,0.3c0.2,0.1,0.4,0.1,0.4-0.1
								c1-1.3,2.8-1.9,4.5-1.4c2.2,0.6,3.6,2.7,3,4.7c-0.2,0.7-0.6,1.3-1.2,1.8l0,0c0,0,0,0,0,0L49,18L43.9,7c0,0,0,0,0,0
								c0,0,0,0,0,0c-0.3-0.7-0.3-1.5-0.1-2.2C44.3,2.8,46.6,1.7,48.8,2.3z"/>
						</g>
					</g>
				</g>
				<g>
					<g>
						<path fill="#B20B5F" d="M52.3,6.1c0.2,0.1,0.4,0.1,0.4-0.1c1-1.3,2.8-1.9,4.5-1.4c2.2,0.6,3.6,2.7,3,4.7
							c-0.2,0.7-0.6,1.3-1.2,1.8l0,0c0,0,0,0,0,0L49,18"/>
					</g>
				</g>
			</g>
		</g>
		<g>
			<g>
				<g>
					<g>
						<g>
							<path fill="#D81665" d="M53,21.8c1.2,0.6,2,1.7,1.9,2.9c0,0.1,0.1,0.2,0.2,0.3c0.1,0.1,0.3,0.1,0.3,0c0.8-0.8,2.2-1,3.5-0.5
								c1.5,0.7,2.3,2.4,1.6,3.8c-0.2,0.5-0.6,0.9-1.1,1.2l0,0c0,0,0,0,0,0l-8.1,3.7l-2.3-8.6c0,0,0,0,0,0c0,0,0,0,0,0
								c-0.1-0.6-0.1-1.1,0.2-1.6C49.6,21.6,51.4,21.1,53,21.8z"/>
						</g>
					</g>
				</g>
				<g>
					<g>
						<path fill="#B20B5F" d="M55,25c0.1,0.1,0.3,0.1,0.3,0c0.8-0.8,2.2-1,3.5-0.5c1.5,0.7,2.3,2.4,1.6,3.8
							c-0.2,0.5-0.6,0.9-1.1,1.2l0,0c0,0,0,0,0,0l-8.1,3.7"/>
					</g>
				</g>
			</g>
		</g>
		<g>
			<g>
				<g>
					<g>
						<g>
							<path fill="#D81665" d="M5.1,10c1.2-0.6,2.6-0.5,3.5,0.3c0.1,0.1,0.2,0.1,0.3,0c0.1,0,0.2-0.1,0.2-0.3
								c-0.1-1.2,0.5-2.4,1.7-3c1.5-0.8,3.3-0.3,4,1c0.3,0.5,0.3,1,0.2,1.6l0,0c0,0,0,0,0,0l-2,8.7L4.8,15c0,0,0,0,0,0c0,0,0,0,0,0
								c-0.5-0.2-0.9-0.6-1.2-1.1C2.9,12.5,3.5,10.8,5.1,10z"/>
						</g>
					</g>
				</g>
				<g>
					<g>
						<path fill="#B20B5F" d="M8.9,10.3c0.1,0,0.2-0.1,0.2-0.3c-0.1-1.2,0.5-2.4,1.7-3c1.5-0.8,3.3-0.3,4,1c0.3,0.5,0.3,1,0.2,1.6
							l0,0c0,0,0,0,0,0l-2,8.7"/>
					</g>
				</g>
			</g>
		</g>
		<g>
			<circle fill="#B20B5F" cx="5.2" cy="2.3" r="0.7"/>
		</g>
		<g>
			<circle fill="#B20B5F" cx="8.2" cy="4.5" r="1"/>
		</g>
		<g>
			<circle fill="#B20B5F" cx="15.2" cy="3.2" r="1.1"/>
		</g>
		<g>
			<path fill="#B20B5F" d="M10.1,24.5c0,1.7-1.4,3-3,3c-1.7,0-3-1.4-3-3c0-1.7,1.4-3,3-3C8.7,21.5,10.1,22.9,10.1,24.5z"/>
		</g>
	</g>
</g>
</svg>
