<?xml version="1.0" encoding="utf-8"?>
<!-- Generator: Adobe Illustrator 16.0.0, SVG Export Plug-In . SVG Version: 6.00 Build 0)  -->
<!DOCTYPE svg PUBLIC "-//W3C//DTD SVG 1.1//EN" "http://www.w3.org/Graphics/SVG/1.1/DTD/svg11.dtd">
<svg version="1.1" id="Layer_1" xmlns="http://www.w3.org/2000/svg" xmlns:xlink="http://www.w3.org/1999/xlink" x="0px" y="0px"
	 width="64px" height="64px" viewBox="0 0 64 64" enable-background="new 0 0 64 64" xml:space="preserve">
<g>
	<g>
		<rect x="26" y="40" fill="#D6D6D6" width="14" height="19"/>
		<g>
			<path fill="#00233F" d="M43,15.1c0,4.9-4,8.9-8.9,8.9h-4.1C25,24,21,20,21,15.1v-0.1C21,10,25,6,29.9,6h4.1C39,6,43,10,43,14.9
				V15.1z"/>
			<rect x="25" y="28" fill="#F9BDA0" width="14" height="12"/>
			<polygon fill="#E28F71" points="39,40 32,40 24.6,28 39,28 			"/>
			<path fill="#FCCCB9" d="M43,18.2c0,8.7-5.4,16.6-11,16.6c-5.6,0-11-7.9-11-16.6C21,9.5,26.4,8,32,8C37.6,8,43,9.5,43,18.2z"/>
			<path fill="#F9BDA0" d="M32,8c5.6,0,11,1.5,11,10.2c0,8.7-5.4,16.6-11,16.6"/>
			<path fill="#00233F" d="M35.3,7c0,1.1-0.9,2-2,2h-2.6c-1.1,0-2-0.9-2-2l0,0c0-1.1,0.9-2,2-2h2.6C34.4,5,35.3,5.9,35.3,7L35.3,7z"
				/>
			<g>
				<g>
					<polygon fill="#0C537A" points="24.2,36.9 5,43.9 1,59 31.3,59 					"/>
					<polygon fill="#00233F" points="24.2,36.9 8.5,45.9 5,59 31.3,59 					"/>
					<polygon fill="#D6D6D6" points="24.1,35.4 19.6,37.3 22.7,45.9 31,58.6 31,40.5 					"/>
					<polygon fill="#FFFFFF" points="24.1,35.4 31.9,40.5 23,45.1 					"/>
				</g>
				<g>
					<polygon fill="#0C537A" points="39.8,36.9 59,43.9 63,59 32.7,59 					"/>
					<polygon fill="#00233F" points="39.8,36.9 55.5,45.9 59,59 32.7,59 					"/>
					<polygon fill="#D6D6D6" points="39.9,35.4 44.4,37.3 41.3,45.9 33,58.6 33,40.5 					"/>
					<polygon fill="#FFFFFF" points="39.9,35.4 32.2,40.5 41.1,45.1 					"/>
				</g>
			</g>
		</g>
	</g>
	<g>
		<g>
			<polygon fill="#EF4391" points="31,44.8 31,42.2 24,39.3 24,47.3 			"/>
			<polygon fill="#D81665" points="31,44.8 31,42.2 25.2,42.6 24,47.3 			"/>
			<polygon fill="#BC085A" points="31.3,44.7 31,42.2 26.5,44.8 24,47.3 			"/>
		</g>
		<g>
			<polygon fill="#EF4391" points="33,44.8 33,42.2 40,39.3 40,47.3 			"/>
			<polygon fill="#D81665" points="33,44.8 33,42.2 38.8,42.6 40,47.3 			"/>
			<polygon fill="#BC085A" points="32.7,44.7 33,42.2 37.5,44.8 40,47.3 			"/>
		</g>
	</g>
	<g>
		<g>
			<path fill="#911955" d="M43.9,51.6c0-1.4,0.9-2.5,2-2.5c1.1,0,2,1.1,2,2.5c0,1.4-0.9,0.7-2,0.7C44.7,52.2,43.9,52.9,43.9,51.6z"
				/>
			<path fill="#AF2564" d="M50.5,51.6c0-1.4-0.9-2.5-2-2.5s-2,1.1-2,2.5c0,1.4,0.9,0.7,2,0.7S50.5,52.9,50.5,51.6z"/>
		</g>
		<path fill="#AF2564" d="M49.7,50.5c0,1.6-1.1,2.9-2.6,2.9s-2.6-1.3-2.6-2.9c0-1.6,1.2-0.8,2.6-0.8S49.7,48.9,49.7,50.5z"/>
		<path fill="#911955" d="M47.2,49.7c1.4,0,2.6-0.8,2.6,0.8c0,1.6-1.1,2.9-2.6,2.9"/>
		<path fill="#12AF6B" d="M48,56.2c0,0.4-0.4,0.8-0.8,0.8h-0.4c-0.4,0-0.8-0.4-0.8-0.8v-3.4c0-0.4,0.4-0.8,0.8-0.8h0.4
			c0.4,0,0.8,0.4,0.8,0.8V56.2z"/>
		<path fill="#028952" d="M46,52.8c0-0.8,0.6-0.8,1-0.8h0.2c0.4,0,0.8,0.4,0.8,0.8v3.4c0,0.4-0.4,0.8-0.8,0.8l0,0"/>
		<g>
			<path fill="#E250A0" d="M47.9,56H46c0,0-1.6,0.3-1.8-0.7c-0.1-1,0-4.3-1.4-4.7c0,0,1.1-0.7,2.4,0.3c1.2,1,0.4,1.1,2.4,2.1
				C48.1,53.2,47.9,56,47.9,56z"/>
			<path fill="#CC3B84" d="M45.1,50.8c1.2,1,0.4,1,2.4,2c0.6,0.3,0.3,3.2,0.3,3.2H46"/>
			<path fill="#AF2564" d="M46.5,56h1.9c0,0,1.6,0.3,1.8-0.7c0.1-1,0-4.3,1.4-4.7c0,0-1.1-0.7-2.4,0.3c-1.2,1-0.4,1.1-2.4,2.1
				C46.3,53.2,46.5,56,46.5,56z"/>
			<path fill="#911955" d="M46,56h2.4c0,0,1.6,0.3,1.8-0.7c0.1-1,0-4.3,1.4-4.7c0,0-1.3-0.9-2.6,0.1"/>
		</g>
	</g>
	<circle fill="#12AF6B" cx="32" cy="48.9" r="0.8"/>
	<circle fill="#12AF6B" cx="32" cy="53.3" r="0.8"/>
	<path fill="#D81665" d="M33,44.1c0,0.5-0.4,0.9-0.9,0.9h-0.1c-0.5,0-0.9-0.4-0.9-0.9v-2.1c0-0.5,0.4-0.9,0.9-0.9h0.1
		c0.5,0,0.9,0.4,0.9,0.9V44.1z"/>
	<path fill="#BC085A" d="M33,42v2.5c0,0.5-0.5,0.9-1,0.9l0,0c-0.5,0-1-0.4-1-0.9V42"/>
</g>
</svg>
