<?xml version="1.0" encoding="utf-8"?>
<!-- Generator: Adobe Illustrator 16.0.0, SVG Export Plug-In . SVG Version: 6.00 Build 0)  -->
<!DOCTYPE svg PUBLIC "-//W3C//DTD SVG 1.1//EN" "http://www.w3.org/Graphics/SVG/1.1/DTD/svg11.dtd">
<svg version="1.1" id="Layer_1" xmlns="http://www.w3.org/2000/svg" xmlns:xlink="http://www.w3.org/1999/xlink" x="0px" y="0px"
	 width="64px" height="64px" viewBox="0 0 64 64" enable-background="new 0 0 64 64" xml:space="preserve">
<g>
	<g>
		<path fill="#C3D7DD" d="M32,58h-0.2c-0.3,0-0.5-0.2-0.5-0.5c0-0.3,0.2-0.5,0.5-0.5h0H32c0.6,0,1.2,0,1.7,0c0.3,0,0.5,0.2,0.6,0.5
			c0,0.3-0.2,0.5-0.4,0.5C33.2,58,32.6,58,32,58z M29.8,58C29.8,58,29.8,58,29.8,58c-0.7-0.1-1.4-0.2-2.1-0.4
			c-0.3-0.1-0.4-0.3-0.4-0.6c0.1-0.3,0.3-0.4,0.6-0.4c0.6,0.2,1.3,0.3,1.9,0.4c0.3,0,0.5,0.3,0.4,0.6C30.3,57.8,30.1,58,29.8,58z
			 M35.8,57.7c-0.2,0-0.4-0.2-0.5-0.4c-0.1-0.3,0.1-0.5,0.4-0.6c0.6-0.1,1.3-0.3,1.9-0.6c0.3-0.1,0.5,0,0.6,0.3s0,0.5-0.3,0.6
			c-0.6,0.2-1.3,0.4-2,0.6C35.8,57.7,35.8,57.7,35.8,57.7z M25.9,57c-0.1,0-0.1,0-0.2,0c-0.6-0.3-1.3-0.5-1.9-0.9
			c-0.2-0.1-0.3-0.4-0.2-0.7c0.1-0.2,0.4-0.3,0.7-0.2c0.6,0.3,1.2,0.6,1.8,0.8c0.3,0.1,0.4,0.4,0.3,0.6C26.3,56.9,26.1,57,25.9,57z
			 M39.5,56.3c-0.2,0-0.4-0.1-0.4-0.3c-0.1-0.2,0-0.5,0.2-0.7c0.6-0.3,1.1-0.6,1.7-1c0.2-0.2,0.5-0.1,0.7,0.1
			c0.2,0.2,0.1,0.5-0.1,0.7c-0.6,0.4-1.2,0.7-1.8,1.1C39.7,56.3,39.6,56.3,39.5,56.3z M22.4,55.1c-0.1,0-0.2,0-0.3-0.1
			c-0.6-0.4-1.1-0.8-1.6-1.3c-0.2-0.2-0.2-0.5,0-0.7c0.2-0.2,0.5-0.2,0.7,0c0.5,0.4,1,0.8,1.5,1.2c0.2,0.2,0.3,0.5,0.1,0.7
			C22.8,55,22.6,55.1,22.4,55.1z M42.8,54.1c-0.1,0-0.3-0.1-0.4-0.2c-0.2-0.2-0.2-0.5,0-0.7c0.5-0.4,1-0.9,1.4-1.4
			c0.2-0.2,0.5-0.2,0.7,0c0.2,0.2,0.2,0.5,0,0.7c-0.5,0.5-0.9,1-1.5,1.4C43,54.1,42.9,54.1,42.8,54.1z M19.5,52.4
			c-0.1,0-0.3-0.1-0.4-0.2c-0.4-0.5-0.9-1.1-1.2-1.6c-0.2-0.2-0.1-0.5,0.1-0.7c0.2-0.2,0.5-0.1,0.7,0.1c0.4,0.5,0.7,1.1,1.2,1.5
			c0.2,0.2,0.2,0.5-0.1,0.7C19.7,52.4,19.6,52.4,19.5,52.4z M45.5,51.1c-0.1,0-0.2,0-0.3-0.1c-0.2-0.2-0.3-0.5-0.1-0.7
			c0.4-0.5,0.7-1.1,1-1.7c0.1-0.2,0.4-0.3,0.7-0.2c0.2,0.1,0.3,0.4,0.2,0.7c-0.3,0.6-0.7,1.2-1.1,1.8C45.8,51.1,45.6,51.1,45.5,51.1
			z M17.3,49.1c-0.2,0-0.4-0.1-0.4-0.3c-0.3-0.6-0.6-1.2-0.8-1.9c-0.1-0.3,0-0.5,0.3-0.6c0.3-0.1,0.5,0,0.6,0.3
			c0.2,0.6,0.5,1.2,0.8,1.8c0.1,0.2,0,0.5-0.2,0.7C17.5,49.1,17.4,49.1,17.3,49.1z M47.3,47.6c-0.1,0-0.1,0-0.2,0
			c-0.3-0.1-0.4-0.4-0.3-0.6c0.2-0.6,0.4-1.2,0.6-1.8c0.1-0.3,0.3-0.4,0.6-0.4c0.3,0.1,0.4,0.3,0.4,0.6c-0.2,0.7-0.4,1.3-0.6,2
			C47.7,47.5,47.5,47.6,47.3,47.6z M16,45.3c-0.2,0-0.4-0.2-0.5-0.4c-0.1-0.7-0.3-1.4-0.3-2c0-0.3,0.2-0.5,0.5-0.5
			c0.3,0,0.5,0.2,0.5,0.5c0.1,0.6,0.2,1.3,0.3,1.9c0.1,0.3-0.1,0.5-0.4,0.6C16,45.3,16,45.3,16,45.3z M48.3,43.7
			C48.3,43.7,48.3,43.7,48.3,43.7c-0.3,0-0.5-0.3-0.5-0.6c0.1-0.6,0.1-1.3,0.1-1.9c0-0.3,0.2-0.5,0.5-0.5s0.5,0.2,0.5,0.5
			c0,0.7,0,1.4-0.1,2.1C48.8,43.5,48.5,43.7,48.3,43.7z M15.6,41C15.6,41,15.6,41,15.6,41c-0.3,0-0.5-0.1-0.5-0.3
			c0-0.7,0.1-1.3,0.2-2c0-0.3,0.3-0.4,0.6-0.4c0.3,0,0.5,0.3,0.4,0.6c-0.1,0.6-0.1,1.1-0.2,1.8C16.1,40.9,15.9,41,15.6,41z M48.4,41
			c-0.3,0-0.5-0.4-0.5-0.7c0-0.6-0.1-1.4-0.3-2c-0.1-0.3,0.1-0.6,0.4-0.6c0.3-0.1,0.5,0.1,0.6,0.4c0.1,0.7,0.2,1.6,0.3,2.3
			C48.9,40.5,48.7,41,48.4,41C48.4,41,48.4,41,48.4,41z M16.2,37.4c0,0-0.1,0-0.1,0c-0.3-0.1-0.4-0.3-0.4-0.6c0.2-0.7,0.4-1.3,0.7-2
			c0.1-0.3,0.4-0.4,0.7-0.3c0.3,0.1,0.4,0.4,0.3,0.7c-0.2,0.6-0.5,1.2-0.6,1.8C16.6,37.2,16.4,37.4,16.2,37.4z M47.6,36.6
			c-0.2,0-0.4-0.1-0.5-0.3c-0.2-0.6-0.4-1.2-0.7-1.8c-0.1-0.2,0-0.5,0.2-0.7c0.2-0.1,0.5,0,0.7,0.2c0.3,0.6,0.5,1.3,0.8,1.9
			c0.1,0.3-0.1,0.5-0.3,0.6C47.7,36.6,47.7,36.6,47.6,36.6z M17.7,33.7c-0.1,0-0.2,0-0.2-0.1c-0.2-0.1-0.3-0.4-0.2-0.7
			c0.3-0.6,0.7-1.2,1.1-1.7c0.2-0.2,0.5-0.3,0.7-0.1c0.2,0.2,0.3,0.5,0.1,0.7c-0.4,0.5-0.7,1.1-1.1,1.6C18,33.6,17.9,33.7,17.7,33.7
			z M45.9,33c-0.2,0-0.3-0.1-0.4-0.2c-0.3-0.5-0.7-1.1-1.1-1.6c-0.2-0.2-0.1-0.5,0.1-0.7c0.2-0.2,0.5-0.1,0.7,0.1
			c0.4,0.5,0.8,1.1,1.2,1.7c0.1,0.2,0.1,0.5-0.2,0.7C46.1,33,46,33,45.9,33z M20,30.5c-0.1,0-0.2,0-0.3-0.1c-0.2-0.2-0.2-0.5,0-0.7
			c0.5-0.5,1-1,1.5-1.4c0.2-0.2,0.5-0.2,0.7,0.1c0.2,0.2,0.1,0.5-0.1,0.7c-0.5,0.4-1,0.9-1.4,1.3C20.3,30.4,20.2,30.5,20,30.5z
			 M43.4,29.9c-0.1,0-0.2,0-0.3-0.1c-0.5-0.4-1-0.9-1.5-1.3c-0.2-0.2-0.3-0.5-0.1-0.7c0.2-0.2,0.5-0.3,0.7-0.1
			c0.5,0.4,1.1,0.9,1.6,1.3c0.2,0.2,0.2,0.5,0,0.7C43.7,29.9,43.5,29.9,43.4,29.9z M23.1,27.9c-0.2,0-0.3-0.1-0.4-0.2
			c-0.1-0.2-0.1-0.5,0.1-0.7c0.6-0.4,1.2-0.7,1.8-1c0.3-0.1,0.5,0,0.7,0.2c0.1,0.2,0,0.5-0.2,0.7c-0.6,0.3-1.1,0.6-1.7,0.9
			C23.3,27.9,23.2,27.9,23.1,27.9z M40.2,27.5c-0.1,0-0.2,0-0.2-0.1c-0.6-0.3-1.1-0.6-1.7-0.9c-0.3-0.1-0.4-0.4-0.3-0.7
			s0.4-0.4,0.7-0.3c0.6,0.3,1.2,0.6,1.8,0.9c0.2,0.1,0.3,0.4,0.2,0.7C40.5,27.4,40.4,27.5,40.2,27.5z M26.7,26.2
			c-0.2,0-0.4-0.1-0.5-0.3c-0.1-0.3,0.1-0.5,0.3-0.6c0.6-0.2,1.3-0.4,2-0.5c0.3-0.1,0.5,0.1,0.6,0.4c0.1,0.3-0.1,0.5-0.4,0.6
			c-0.6,0.1-1.3,0.3-1.9,0.5C26.8,26.2,26.7,26.2,26.7,26.2z M36.5,26c0,0-0.1,0-0.1,0c-0.6-0.2-1.3-0.3-1.9-0.4
			c-0.3,0-0.5-0.3-0.4-0.6c0-0.3,0.3-0.5,0.6-0.4c0.7,0.1,1.4,0.3,2,0.4c0.3,0.1,0.4,0.4,0.3,0.6C37,25.8,36.8,26,36.5,26z
			 M30.6,25.4c-0.3,0-0.5-0.2-0.5-0.5c0-0.3,0.2-0.5,0.5-0.5c0.7-0.1,1.4-0.1,2.1-0.1c0.3,0,0.5,0.2,0.5,0.5c0,0.3-0.2,0.5-0.5,0.5
			C31.9,25.3,31.3,25.3,30.6,25.4C30.6,25.4,30.6,25.4,30.6,25.4z"/>
	</g>
	<g>
		<g>
			<path fill="#FF9700" d="M62.8,59H1.2c-0.4,0-0.7-0.1-0.9-0.4c-0.2-0.3-0.2-0.7,0-1L31.1,5.3c0.4-0.6,1.4-0.6,1.7,0l30.8,52.4
				c0.2,0.3,0.2,0.6,0,0.9C63.5,58.9,63.1,59,62.8,59z M3,57h58L32,7.6L3,57z"/>
		</g>
		<g>
			<g>
				<g>
					<g>
						<path fill="#FF9700" d="M32,53.1c-0.2,0-0.3,0-0.5-0.1l-9.2-5.4C22,47.3,22,47,22,46.6V35.8c0-0.4,0-0.7,0.3-0.9l9.3-5.4
							c0.3-0.2,0.6-0.2,1,0l9.2,5.4c0.3,0.2,0.3,0.5,0.3,0.9v10.8c0,0.4,0,0.7-0.3,0.9l-9.3,5.4C32.3,53,32.2,53.1,32,53.1z
							 M24,46.1l8,4.8l8-4.8v-9.7l-8-4.8l-8,4.8V46.1z"/>
					</g>
				</g>
			</g>
			<g>
				<g>
					<path fill="#FF9700" d="M41,47.3c-0.2,0-0.7-0.1-0.8-0.2L32,42.3l-8.9,5.1c-0.5,0.3-0.5,0-0.8-0.5c-0.3-0.5,0.1-1.4,0.6-1.6
						l8.6-5c0.3-0.2,0.7-0.2,1,0l8.7,5c0.5,0.3,0.9,1.1,0.6,1.6C41.6,47.2,41.4,47.3,41,47.3z"/>
				</g>
				<g>
					<path fill="#FF9700" d="M32,42.2c-0.6,0-1-0.4-1-1V30.6c0-0.6,0.4-1,1-1s1,0.4,1,1v10.6C33,41.8,32.6,42.2,32,42.2z"/>
				</g>
			</g>
			<g>
				<g>
					<path fill="#FF9700" d="M32,42.2c-0.2,0-0.3,0-0.5-0.1l-8.6-5c-0.5-0.3-0.7-1.1-0.5-1.5c0.3-0.5,0.8-0.6,1.3-0.3l8.3,4.8
						l8.4-4.8c0.5-0.3,1-0.2,1.3,0.3c0.3,0.5,0.1,1.2-0.4,1.5l-8.8,5.1C32.3,42.2,32.2,42.2,32,42.2z"/>
				</g>
				<g>
					<path fill="#FF9700" d="M32,52.8c-0.6,0-1-0.4-1-1V41.2c0-0.6,0.4-1,1-1s1,0.4,1,1v10.6C33,52.3,32.6,52.8,32,52.8z"/>
				</g>
			</g>
		</g>
	</g>
</g>
</svg>
