<?xml version="1.0" encoding="utf-8"?>
<!-- Generator: Adobe Illustrator 16.0.0, SVG Export Plug-In . SVG Version: 6.00 Build 0)  -->
<!DOCTYPE svg PUBLIC "-//W3C//DTD SVG 1.1//EN" "http://www.w3.org/Graphics/SVG/1.1/DTD/svg11.dtd">
<svg version="1.1" id="Layer_1" xmlns="http://www.w3.org/2000/svg" xmlns:xlink="http://www.w3.org/1999/xlink" x="0px" y="0px"
	 width="64px" height="64px" viewBox="0 0 64 64" enable-background="new 0 0 64 64" xml:space="preserve">
<g>
	<g>
		<g>
			<path fill="#6ACE09" d="M32.5,4.3c0,0.3-0.2,0.5-0.5,0.5l0,0c-0.3,0-0.5-0.2-0.5-0.5v-3c0-0.3,0.2-0.5,0.5-0.5l0,0
				c0.3,0,0.5,0.2,0.5,0.5V4.3z"/>
			<path fill="#6ACE09" d="M62,63c-0.4-3-3.4-6-7-6H9c-3.6,0-6.5,3-7,6H62z"/>
			<path fill="#2FB20B" d="M62,63c-0.4-3.5-3.4-6-7-6H9"/>
			<g>
				<g>
					<g>
						<circle fill="#81E815" cx="23.7" cy="28.3" r="3.7"/>
						<path fill="#2FB20B" d="M27.3,28.3c0,2-1.6,3.7-3.7,3.7c-2,0-3.7-1.6-3.7-3.7"/>
						<path fill="#BDFF4A" d="M22.6,26.7c0,0.1-0.1,0.2-0.2,0.2h-0.7c-0.1,0-0.2-0.1-0.2-0.2l0,0c0-0.1,0.1-0.2,0.2-0.2h0.7
							C22.5,26.5,22.6,26.6,22.6,26.7L22.6,26.7z"/>
						<path fill="#81E815" d="M22.6,29.9c0,0.1-0.1,0.2-0.2,0.2h-0.7c-0.1,0-0.2-0.1-0.2-0.2l0,0c0-0.1,0.1-0.2,0.2-0.2h0.7
							C22.5,29.7,22.6,29.8,22.6,29.9L22.6,29.9z"/>
						<path fill="#BDFF4A" d="M22.6,27.6c0,0.1-0.1,0.2-0.2,0.2h-0.7c-0.1,0-0.2-0.1-0.2-0.2l0,0c0-0.1,0.1-0.2,0.2-0.2h0.7
							C22.5,27.5,22.6,27.5,22.6,27.6L22.6,27.6z"/>
					</g>
					<g>
						<circle fill="#81E815" cx="40.3" cy="28.3" r="3.7"/>
						<path fill="#2FB20B" d="M36.7,28.3c0,2,1.6,3.7,3.7,3.7c2,0,3.7-1.6,3.7-3.7"/>
						<path fill="#BDFF4A" d="M41.4,26.7c0,0.1,0.1,0.2,0.2,0.2h0.7c0.1,0,0.2-0.1,0.2-0.2l0,0c0-0.1-0.1-0.2-0.2-0.2h-0.7
							C41.5,26.5,41.4,26.6,41.4,26.7L41.4,26.7z"/>
						<path fill="#81E815" d="M41.4,29.9c0,0.1,0.1,0.2,0.2,0.2h0.7c0.1,0,0.2-0.1,0.2-0.2l0,0c0-0.1-0.1-0.2-0.2-0.2h-0.7
							C41.5,29.7,41.4,29.8,41.4,29.9L41.4,29.9z"/>
						<path fill="#BDFF4A" d="M41.4,27.6c0,0.1,0.1,0.2,0.2,0.2h0.7c0.1,0,0.2-0.1,0.2-0.2l0,0c0-0.1-0.1-0.2-0.2-0.2h-0.7
							C41.5,27.5,41.4,27.5,41.4,27.6L41.4,27.6z"/>
					</g>
				</g>
				<g>
					<g>
						<circle fill="#81E815" cx="23.7" cy="22.6" r="3.7"/>
						<path fill="#2FB20B" d="M27.3,22.6c0,2-1.6,3.7-3.7,3.7c-2,0-3.7-1.6-3.7-3.7"/>
						<path fill="#BDFF4A" d="M22.6,21c0,0.1-0.1,0.2-0.2,0.2h-0.7c-0.1,0-0.2-0.1-0.2-0.2l0,0c0-0.1,0.1-0.2,0.2-0.2h0.7
							C22.5,20.8,22.6,20.9,22.6,21L22.6,21z"/>
						<path fill="#81E815" d="M22.6,24.1c0,0.1-0.1,0.2-0.2,0.2h-0.7c-0.1,0-0.2-0.1-0.2-0.2l0,0c0-0.1,0.1-0.2,0.2-0.2h0.7
							C22.5,24,22.6,24.1,22.6,24.1L22.6,24.1z"/>
						<path fill="#BDFF4A" d="M22.6,21.9c0,0.1-0.1,0.2-0.2,0.2h-0.7c-0.1,0-0.2-0.1-0.2-0.2l0,0c0-0.1,0.1-0.2,0.2-0.2h0.7
							C22.5,21.8,22.6,21.8,22.6,21.9L22.6,21.9z"/>
					</g>
					<g>
						<circle fill="#81E815" cx="40.3" cy="22.6" r="3.7"/>
						<path fill="#2FB20B" d="M36.7,22.6c0,2,1.6,3.7,3.7,3.7c2,0,3.7-1.6,3.7-3.7"/>
						<path fill="#BDFF4A" d="M41.4,21c0,0.1,0.1,0.2,0.2,0.2h0.7c0.1,0,0.2-0.1,0.2-0.2l0,0c0-0.1-0.1-0.2-0.2-0.2h-0.7
							C41.5,20.8,41.4,20.9,41.4,21L41.4,21z"/>
						<path fill="#81E815" d="M41.4,24.1c0,0.1,0.1,0.2,0.2,0.2h0.7c0.1,0,0.2-0.1,0.2-0.2l0,0c0-0.1-0.1-0.2-0.2-0.2h-0.7
							C41.5,24,41.4,24.1,41.4,24.1L41.4,24.1z"/>
						<path fill="#BDFF4A" d="M41.4,21.9c0,0.1,0.1,0.2,0.2,0.2h0.7c0.1,0,0.2-0.1,0.2-0.2l0,0c0-0.1-0.1-0.2-0.2-0.2h-0.7
							C41.5,21.8,41.4,21.8,41.4,21.9L41.4,21.9z"/>
					</g>
				</g>
				<g>
					<g>
						<circle fill="#81E815" cx="23.7" cy="16.9" r="3.7"/>
						<path fill="#2FB20B" d="M27.3,16.9c0,2-1.6,3.7-3.7,3.7c-2,0-3.7-1.6-3.7-3.7"/>
						<path fill="#BDFF4A" d="M22.6,15.3c0,0.1-0.1,0.2-0.2,0.2h-0.7c-0.1,0-0.2-0.1-0.2-0.2l0,0c0-0.1,0.1-0.2,0.2-0.2h0.7
							C22.5,15.1,22.6,15.2,22.6,15.3L22.6,15.3z"/>
						<path fill="#81E815" d="M22.6,18.4c0,0.1-0.1,0.2-0.2,0.2h-0.7c-0.1,0-0.2-0.1-0.2-0.2l0,0c0-0.1,0.1-0.2,0.2-0.2h0.7
							C22.5,18.3,22.6,18.3,22.6,18.4L22.6,18.4z"/>
						<path fill="#BDFF4A" d="M22.6,16.2c0,0.1-0.1,0.2-0.2,0.2h-0.7c-0.1,0-0.2-0.1-0.2-0.2l0,0c0-0.1,0.1-0.2,0.2-0.2h0.7
							C22.5,16,22.6,16.1,22.6,16.2L22.6,16.2z"/>
					</g>
					<g>
						<circle fill="#81E815" cx="40.3" cy="16.9" r="3.7"/>
						<path fill="#2FB20B" d="M36.7,16.9c0,2,1.6,3.7,3.7,3.7c2,0,3.7-1.6,3.7-3.7"/>
						<path fill="#BDFF4A" d="M41.4,15.3c0,0.1,0.1,0.2,0.2,0.2h0.7c0.1,0,0.2-0.1,0.2-0.2l0,0c0-0.1-0.1-0.2-0.2-0.2h-0.7
							C41.5,15.1,41.4,15.2,41.4,15.3L41.4,15.3z"/>
						<path fill="#81E815" d="M41.4,18.4c0,0.1,0.1,0.2,0.2,0.2h0.7c0.1,0,0.2-0.1,0.2-0.2l0,0c0-0.1-0.1-0.2-0.2-0.2h-0.7
							C41.5,18.3,41.4,18.3,41.4,18.4L41.4,18.4z"/>
						<path fill="#BDFF4A" d="M41.4,16.2c0,0.1,0.1,0.2,0.2,0.2h0.7c0.1,0,0.2-0.1,0.2-0.2l0,0c0-0.1-0.1-0.2-0.2-0.2h-0.7
							C41.5,16,41.4,16.1,41.4,16.2L41.4,16.2z"/>
					</g>
				</g>
				<path fill="#81E815" d="M41,55.8c0,4.7-4.3,6.6-9,6.6l0,0c-4.7,0-9-1.8-9-6.6V12.4c0-4.7,4.3-8.6,9-8.6l0,0c4.7,0,9,3.8,9,8.6
					V55.8z"/>
				<path fill="#6ACE09" d="M32.2,3.8L32.2,3.8c4.7,0,8.8,3.8,8.8,8.6v43.4c0,4.7-3.9,6.6-8.7,6.6l0,0"/>
				<path fill="#2FB20B" d="M37.9,16.7c0,0.9-1.3,2.3-2.9,2.3H29c-1.6,0-2.9-1.4-2.9-2.3l0,0c0-0.9,1.3-2.7,2.9-2.7H35
					C36.6,14,37.9,15.8,37.9,16.7L37.9,16.7z"/>
				<path fill="#F9F4C5" d="M37.9,17c0,0.9-1.3,2-2.9,2H29c-1.6,0-2.9-1.1-2.9-2l0,0c0-0.9,1.3-2,2.9-2H35
					C36.6,15,37.9,16.1,37.9,17L37.9,17z"/>
				<path fill="#E5DD7A" d="M37.9,17.2L37.9,17.2c0,0.9-1.3,1.8-2.9,1.8H29c-1.6,0-2.9-0.8-2.9-1.7l0,0"/>
				<g>
					<g>
						<circle fill="#10998C" cx="28.8" cy="16.8" r="0.8"/>
						<circle fill="#D7F4EF" cx="28.6" cy="16.5" r="0.3"/>
					</g>
					<g>
						<circle fill="#10998C" cx="35.2" cy="16.8" r="0.8"/>
						<circle fill="#D7F4EF" cx="34.9" cy="16.5" r="0.3"/>
					</g>
				</g>
				<ellipse transform="matrix(0.7962 -0.605 0.605 0.7962 1.4957 18.1897)" fill="#BDFF4A" cx="27.7" cy="6.9" rx="3.2" ry="1.1"/>
				<circle fill="#BDFF4A" cx="24.9" cy="10.5" r="0.4"/>
				<circle fill="#BDFF4A" cx="24.7" cy="11.9" r="0.3"/>
				<path fill="#BDFF4A" d="M25,26.8c0,0.2-0.3,0.4-0.5,0.4l0,0c-0.2,0-0.5-0.2-0.5-0.4V15.5c0-0.2,0.3-0.4,0.5-0.4l0,0
					c0.2,0,0.5,0.2,0.5,0.4V26.8z"/>
				<path fill="#BDFF4A" d="M25,49.2c0,0.2-0.3,0.4-0.5,0.4l0,0c-0.2,0-0.5-0.2-0.5-0.4V38c0-0.2,0.3-0.4,0.5-0.4l0,0
					c0.2,0,0.5,0.2,0.5,0.4V49.2z"/>
				<circle fill="#2FB20B" cx="32" cy="6.5" r="0.6"/>
				<path fill="#EA2D83" d="M45.7,57c0,3.3-0.7,6-4,6H22.3c-3.3,0-4-2.7-4-6l0,0c0-3.3,2.7-6,6.1-6h15.4C43,51,45.7,53.7,45.7,57
					L45.7,57z"/>
				<path fill="#A0007A" d="M45.7,57L45.7,57c0,3.3-0.7,6-4,6H22.3c-3.3,0-4-2.7-4-6l0,0"/>
				<g>
					<g>
						<path fill="#2FB20B" d="M28.4,14.4c0.1,0.1,0.1,0.3,0,0.4l0,0c-0.1,0.1-0.3,0.1-0.4,0l-1-1c-0.1-0.1-0.1-0.3,0-0.4l0,0
							c0.1-0.1,0.3-0.1,0.4,0L28.4,14.4z"/>
						<path fill="#2FB20B" d="M30.3,14.3c0,0.1-0.1,0.3-0.2,0.3l0,0c-0.2,0-0.3,0-0.3-0.2l-0.4-1.7c0-0.1,0-0.3,0.2-0.3l0,0
							c0.1,0,0.3,0,0.3,0.2L30.3,14.3z"/>
					</g>
					<g>
						<path fill="#2FB20B" d="M35.5,14.5c-0.1,0.1,0,0.2,0.1,0.3l0,0c0.1,0.1,0.2,0.2,0.3,0.1l1-1c0.1-0.1,0.1-0.3,0-0.4l0,0
							c-0.1-0.1-0.3-0.1-0.4,0L35.5,14.5z"/>
						<path fill="#2FB20B" d="M33.7,14.3c0,0.1,0.1,0.3,0.2,0.3l0,0c0.2,0,0.3,0,0.3-0.2l0.4-1.7c0-0.1,0-0.3-0.2-0.3l0,0
							c-0.1,0-0.3,0-0.3,0.2L33.7,14.3z"/>
						<path fill="#2FB20B" d="M31.9,14.1c0,0.2,0.1,0.3,0.3,0.3l0,0c0.2,0,0.3-0.1,0.3-0.3l0-1.7c0-0.2-0.1-0.3-0.3-0.3l0,0
							c-0.2,0-0.3,0.1-0.3,0.3L31.9,14.1z"/>
					</g>
				</g>
			</g>
			<path fill="#EA2D83" d="M34,4c0,0.5-0.4,1-0.8,1h-2.4C30.3,5,30,4.5,30,4l0,0c0-0.5,0.4-1,0.8-1h2.4C33.7,3,34,3.5,34,4L34,4z"/>
			<path fill="#A0007A" d="M31,3h2.2C33.7,3,34,3.5,34,3.9l0,0c0,0.5-0.3,0.8-0.7,0.8"/>
			
				<ellipse transform="matrix(0.8094 -0.5872 0.5872 0.8094 -27.3835 23.0767)" fill="#FF8AC5" cx="21.9" cy="53.7" rx="2.5" ry="1.1"/>
			<circle fill="#FF8AC5" cx="32" cy="57.4" r="1.8"/>
		</g>
		<g>
			<path fill="#2FB20B" d="M29.1,10.6c0,0.2-0.1,0.3-0.3,0.3h-1.4c-0.2,0-0.3-0.1-0.3-0.3l0,0c0-0.2,0.1-0.3,0.3-0.3h1.4
				C28.9,10.2,29.1,10.4,29.1,10.6L29.1,10.6z"/>
			<path fill="#2FB20B" d="M37,10.6c0,0.2-0.1,0.3-0.3,0.3h-1.4c-0.2,0-0.3-0.1-0.3-0.3l0,0c0-0.2,0.1-0.3,0.3-0.3h1.4
				C36.9,10.2,37,10.4,37,10.6L37,10.6z"/>
		</g>
	</g>
	<g>
		<path fill="#960E08" d="M26.3,25c0.2,2,2.7,4.6,5.7,4.6c3.1,0,5.6-2.6,5.7-4.6H26.3z"/>
		<path fill="#770606" d="M32,29.6c3.1,0,5.6-2.6,5.8-4.6H32"/>
		<path fill="#CE1906" d="M33.8,21.9c-0.7,0-1.3,0.3-1.8,0.8c-0.5-0.5-1.1-0.8-1.8-0.8c-1.6,0-3.3,1.1-4,3.1h4.7h2.2h4.7
			C37.1,23,35.4,21.9,33.8,21.9z"/>
		<path fill="#B51104" d="M33,25h4.8c-0.7-2-2.4-3.1-4-3.1c-0.7,0-1.4,0.3-1.8,0.7"/>
		<path fill="#E55145" d="M29.7,22.4c0.1,0.2-0.2,0.6-0.8,1c-0.6,0.4-1.1,0.5-1.2,0.4c-0.1-0.2,0.2-0.6,0.8-1
			C29,22.4,29.6,22.3,29.7,22.4z"/>
		<path fill="#CE1906" d="M27.7,26.4c0.2-0.2,0.8,0.2,1.4,0.8c0.6,0.6,0.9,1.2,0.7,1.4c-0.2,0.2-0.8-0.2-1.4-0.8
			C27.8,27.2,27.5,26.5,27.7,26.4z"/>
		<path fill="#540200" d="M34.2,25c-0.3,0-0.9-0.6-1.5-0.6c-0.3,0-0.5,0.1-0.7,0.2c-0.2-0.1-0.4-0.2-0.7-0.2c-0.6,0-1.2,0.6-1.5,0.6
			h0c0.1,1,1,1,2.2,1C33.1,26,34.1,26,34.2,25L34.2,25z"/>
	</g>
</g>
</svg>
