<?xml version="1.0" encoding="utf-8"?>
<!-- Generator: Adobe Illustrator 16.0.0, SVG Export Plug-In . SVG Version: 6.00 Build 0)  -->
<!DOCTYPE svg PUBLIC "-//W3C//DTD SVG 1.1//EN" "http://www.w3.org/Graphics/SVG/1.1/DTD/svg11.dtd">
<svg version="1.1" id="Layer_1" xmlns="http://www.w3.org/2000/svg" xmlns:xlink="http://www.w3.org/1999/xlink" x="0px" y="0px"
	 width="64px" height="64px" viewBox="0 0 64 64" enable-background="new 0 0 64 64" xml:space="preserve">
<g>
	<path fill="#BF691B" d="M47.6,43.6c0,10.2-7,15.5-15.6,15.5s-15.6-5.3-15.6-15.5s7-18.5,15.6-18.5S47.6,33.4,47.6,43.6z"/>
	<path fill="#B2590F" d="M32,25.1c8.6,0,15.6,8.3,15.6,18.5s-7,15.5-15.6,15.5"/>
	<g>
		<ellipse fill="#61C5F2" cx="32" cy="27.5" rx="11.1" ry="7.8"/>
		<path fill="#2FADF4" d="M32,19.7c6.1,0,11.1,3.5,11.1,7.8s-5,7.8-11.1,7.8"/>
		<path fill="#D67D34" d="M49.9,8.7c0-3.1-2.5-5.7-5.7-5.7c-2.7,0-5,1.9-5.5,4.5c-2-0.9-4.3-1.4-6.7-1.4s-4.7,0.5-6.7,1.4
			c-0.5-2.6-2.8-4.5-5.5-4.5c-3.1,0-5.7,2.5-5.7,5.7c0,2.6,1.7,4.7,4.1,5.4c-0.9,1.8-1.5,3.8-1.5,6c0,7.7,6.9,11.7,15.3,11.7
			c8.5,0,15.3-4,15.3-11.7c0-2.1-0.5-4.2-1.5-6C48.2,13.5,49.9,11.3,49.9,8.7z"/>
		<path fill="#BF691B" d="M49.9,8.7c0-3.1-2.5-5.7-5.7-5.7c-2.7,0-5,1.8-5.5,4.4C36.7,6.6,34.4,6,32,6l0,0v25.9l0,0
			c8.5,0,15.3-3.9,15.3-11.6c0-2.1-0.5-4.2-1.5-6C48.2,13.5,49.9,11.3,49.9,8.7z"/>
		<g>
			<g>
				<g>
					<g>
						<g>
							<path fill="#00233F" d="M25.5,12.9c-1.1,0.1-1.9,0.6-1.9,1.1l4-0.3C27.5,13.2,26.6,12.8,25.5,12.9z"/>
						</g>
					</g>
					<g>
						<g>
							<path fill="#00233F" d="M38.5,12.9c1.1,0.1,1.9,0.6,1.9,1.1l-4-0.3C36.5,13.2,37.4,12.8,38.5,12.9z"/>
						</g>
					</g>
				</g>
				<path fill="#EF893C" d="M24.8,21.6c-2.6,0-4.7,0.6-4.7,1.3s2.1,0.4,4.7,0.4c2.6,0,4.7,0.3,4.7-0.4S27.4,21.6,24.8,21.6z"/>
				<path fill="#EF893C" d="M39.2,21.6c-2.6,0-4.7,0.6-4.7,1.3s2.1,0.4,4.7,0.4c2.6,0,4.7,0.3,4.7-0.4S41.8,21.6,39.2,21.6z"/>
				<g>
					<path fill="#A55311" d="M27.8,20.6c0,1.1-0.9,1.9-1.9,1.9c-1.1,0-1.9-0.9-1.9-1.9c0-1.1,0.9-1.9,1.9-1.9
						C26.9,18.7,27.8,19.6,27.8,20.6z"/>
					<path fill="#A55311" d="M40.3,20.6c0,1.1-0.9,1.9-1.9,1.9c-1.1,0-1.9-0.9-1.9-1.9c0-1.1,0.9-1.9,1.9-1.9
						C39.5,18.7,40.3,19.6,40.3,20.6z"/>
					<path fill="#1E4784" d="M27.8,20.1c0,1.1-0.9,1.9-1.9,1.9c-1.1,0-1.9-0.9-1.9-1.9c0-1.1,0.9-1.9,1.9-1.9
						C26.9,18.2,27.8,19,27.8,20.1z"/>
					<path fill="#00233F" d="M25.8,18.2c1.1,0,1.9,0.9,1.9,1.9c0,1.1-0.9,1.9-1.9,1.9"/>
					<path fill="#1E4784" d="M40.3,20.1c0,1.1-0.9,1.9-1.9,1.9c-1.1,0-1.9-0.9-1.9-1.9c0-1.1,0.9-1.9,1.9-1.9
						C39.5,18.2,40.3,19,40.3,20.1z"/>
					<path fill="#00233F" d="M38.4,18.2c1.1,0,1.9,0.9,1.9,1.9c0,1.1-0.9,1.9-1.9,1.9"/>
				</g>
			</g>
		</g>
		<g>
			<path fill="#AA550E" d="M22.7,6.7c1.3,1.3,0.7,2.5-0.8,4s-3.2,2.7-4.5,1.4c-1.3-1.3-1.2-3.6,0.3-5S21.4,5.4,22.7,6.7z"/>
			<path fill="#873D06" d="M22.7,6.7c1.3,1.3,0.7,2.5-0.8,4s-3.2,2.7-4.5,1.4"/>
			<path fill="#AA550E" d="M41.3,6.7c-1.3,1.3-0.7,2.5,0.8,4s3.2,2.7,4.5,1.4c1.3-1.3,1.2-3.6-0.3-5S42.6,5.4,41.3,6.7z"/>
			<path fill="#873D06" d="M41.3,6.7c-1.3,1.3-0.7,2.5,0.8,4s3.2,2.7,4.5,1.4"/>
		</g>
		<path fill="#7F144F" d="M35.4,23.3c0,0.9-1.5,2.3-3.4,2.3c-1.9,0-3.4-1.3-3.4-2.3c0-0.9,1.5-1.7,3.4-1.7
			C33.9,21.6,35.4,22.4,35.4,23.3z"/>
		<path fill="#560435" d="M32,21.6c1.9,0,3.4,0.8,3.4,1.7c0,0.9-1.5,2.3-3.4,2.3"/>
		
			<ellipse transform="matrix(0.9512 -0.3086 0.3086 0.9512 -5.4265 10.552)" fill="#AF688F" cx="30.6" cy="22.4" rx="1.1" ry="0.4"/>
		<circle fill="#AF688F" cx="29.2" cy="23.2" r="0.2"/>
		<g>
			<g>
				<circle fill="#BF691B" cx="24.9" cy="25.1" r="0.5"/>
				<circle fill="#BF691B" cx="26.9" cy="26.2" r="0.5"/>
				<circle fill="#BF691B" cx="23.9" cy="27.1" r="0.5"/>
			</g>
			<g>
				<circle fill="#D67D34" cx="39.1" cy="25.1" r="0.5"/>
				<circle fill="#D67D34" cx="37.1" cy="26.2" r="0.5"/>
				<circle fill="#D67D34" cx="40.1" cy="27.1" r="0.5"/>
			</g>
		</g>
		<path fill="#BF691B" d="M33.3,5.4c-1.3-1.2-1.9-3-1.4-4.2c-0.7,0.5-1.3,1.2-1.5,2.1c-0.5,1.9,0.4,3.8,2.2,4.3
			c1.2,0.3,2.4-0.1,3.2-1C34.9,6.5,34,6.1,33.3,5.4z"/>
		<path fill="#BF691B" d="M31.4,5.6c-1.2-0.6-2-1.8-1.8-2.8c-0.4,0.5-0.7,1.1-0.7,1.9c0,1.5,1.1,2.7,2.4,2.7c0.9,0,1.7-0.6,2.2-1.4
			C32.8,6.1,32.1,6,31.4,5.6z"/>
		<path fill="#BF691B" d="M30.8,7c-1.4-0.2-2.4-1.1-2.7-2c-0.2,0.6-0.3,1.3,0,2c0.5,1.4,1.9,2.2,3.2,1.7c0.9-0.3,1.5-1.1,1.6-2
			C32.3,6.9,31.6,7.1,30.8,7z"/>
	</g>
	<path fill="#EFBC73" d="M41.8,45.9c0,6.4-4.4,11.6-9.8,11.6s-9.8-5.2-9.8-11.6c0-6.4,4.4-8.2,9.8-8.2S41.8,39.5,41.8,45.9z"/>
	<path fill="#DDA55B" d="M32,37.6c5.4,0,9.8,1.9,9.8,8.2c0,6.4-4.4,11.6-9.8,11.6"/>
	<g>
		<g>
			<path fill="#BF691B" d="M21.4,35.9c-2.7,3-8.2,2.6-12.2-1c-4-3.6-3.1-7.3-0.4-10.3c2.7-3,4.6-2.4,8.6,1.2
				C21.4,29.3,24.1,32.8,21.4,35.9z"/>
			<path fill="#B2590F" d="M21.4,35.9c-2.7,3-8.2,2.6-12.2-1c-4-3.6-3.1-7.3-0.4-10.3"/>
			
				<ellipse transform="matrix(0.5576 -0.8301 0.8301 0.5576 -17.9578 20.316)" fill="#EFBC73" cx="10.1" cy="27" rx="3.6" ry="1.7"/>
			<path fill="#DDA55B" d="M12.1,24.1c0.8,0.5,0.5,2.3-0.6,3.9c-1.1,1.6-2.6,2.5-3.4,2"/>
		</g>
		<g>
			<path fill="#BF691B" d="M42.6,35.9c2.7,3,8.2,2.6,12.2-1c4-3.6,3.1-7.3,0.4-10.3c-2.7-3-4.6-2.4-8.6,1.2
				C42.6,29.3,39.9,32.8,42.6,35.9z"/>
			<path fill="#B2590F" d="M42.6,35.9c2.7,3,8.2,2.6,12.2-1c4-3.6,3.1-7.3,0.4-10.3"/>
			
				<ellipse transform="matrix(-0.5576 -0.8301 0.8301 -0.5576 61.5648 86.8221)" fill="#EFBC73" cx="53.9" cy="27" rx="3.6" ry="1.7"/>
			<path fill="#DDA55B" d="M51.9,24.1c-0.8,0.5-0.5,2.3,0.6,3.9c1.1,1.6,2.6,2.5,3.4,2"/>
		</g>
	</g>
	<g>
		<g>
			<path fill="#BF691B" d="M23.5,54.4c1.1,4,11,3.1,5.4,4.7c-5.6,1.6-17.9,7.2-23,0.3c-2.4-3.3-2.5-10.2,4-9.6
				C15.8,50.3,22.4,50.5,23.5,54.4z"/>
			<path fill="#B2590F" d="M23.5,54.4c1.1,4,11,3.1,5.4,4.7c-5.6,1.6-17.9,7.2-23,0.3"/>
			<path fill="#EFBC73" d="M9.5,55.9c0.9,2.1,0.9,4.1,0.1,4.5c-0.9,0.4-2.3-1.1-3.2-3.2c-0.9-2.1-0.9-4.1-0.1-4.5
				C7.2,52.4,8.6,53.8,9.5,55.9z"/>
		</g>
		<g>
			<path fill="#BF691B" d="M40.5,54.4c-1.1,4-11,3.1-5.4,4.7c5.6,1.6,17.9,7.2,23,0.3c2.4-3.3,2.5-10.2-4-9.6
				C48.2,50.3,41.6,50.5,40.5,54.4z"/>
			<path fill="#B2590F" d="M40.5,54.4c-1.1,4-11,3.1-5.4,4.7c5.6,1.6,17.9,7.2,23,0.3"/>
			<path fill="#EFBC73" d="M54.5,55.9c-0.9,2.1-0.9,4.1-0.1,4.5c0.9,0.4,2.3-1.1,3.2-3.2c0.9-2.1,0.9-4.1,0.1-4.5
				C56.8,52.4,55.4,53.8,54.5,55.9z"/>
		</g>
	</g>
</g>
</svg>
