<?xml version="1.0" encoding="utf-8"?>
<!-- Generator: Adobe Illustrator 16.0.0, SVG Export Plug-In . SVG Version: 6.00 Build 0)  -->
<!DOCTYPE svg PUBLIC "-//W3C//DTD SVG 1.1//EN" "http://www.w3.org/Graphics/SVG/1.1/DTD/svg11.dtd">
<svg version="1.1" id="Layer_1" xmlns="http://www.w3.org/2000/svg" xmlns:xlink="http://www.w3.org/1999/xlink" x="0px" y="0px"
	 width="65px" height="65px" viewBox="0 0 65 65" enable-background="new 0 0 65 65" xml:space="preserve">
<g>
	<g>
		<g>
			<g>
				<g>
					<path fill="#232728" d="M33.895,36.127c-1.273-1.432-0.465-4.229,1.805-6.25c2.27-2.018,14.475-10.793,15.75-9.365
						c1.271,1.434-8.873,12.533-11.143,14.551C38.039,37.08,35.168,37.557,33.895,36.127z"/>
					<path fill="#232728" d="M31.105,36.127c1.273-1.432,0.465-4.229-1.805-6.25c-2.27-2.018-14.475-10.793-15.75-9.365
						c-1.271,1.434,8.873,12.533,11.143,14.551C26.961,37.08,29.832,37.557,31.105,36.127z"/>
					<path fill="#D39959" d="M21.902,24.46c-3.781-2.511-7.662-4.72-8.352-3.948c-0.672,0.757,1.843,4.212,4.698,7.601L21.902,24.46
						z"/>
					<path fill="#D39959" d="M47.077,27.722c2.717-3.26,5.018-6.482,4.372-7.21c-0.664-0.742-4.28,1.274-7.919,3.663L47.077,27.722z
						"/>
				</g>
				<g>
					<path fill="#960808" d="M29.473,46.446c0,2.476-2.008,15.827-4.486,15.827c-2.475,0-4.482-13.352-4.482-15.827
						s2.008-4.484,4.482-4.484C27.465,41.962,29.473,43.971,29.473,46.446z"/>
					<path fill="#960808" d="M44.498,46.446c0,2.476-2.008,15.827-4.486,15.827c-2.475,0-4.482-13.352-4.482-15.827
						s2.008-4.484,4.482-4.484C42.49,41.962,44.498,43.971,44.498,46.446z"/>
				</g>
				<path fill="#232728" d="M45.15,40.521c0,16.038-5.662,10.697-12.65,10.697c-6.986,0-12.65,5.341-12.65-10.697
					c0-9.17,5.666-16.604,12.65-16.604C39.486,23.918,45.15,31.352,45.15,40.521z"/>
				<g>
					<path fill="#FF7300" d="M30.033,62.354c0,1.896-2.26,2.146-5.045,2.146s-5.045-0.249-5.045-2.146
						c0-1.897,2.26-4.508,5.045-4.508S30.033,60.457,30.033,62.354z"/>
					<path fill="#FF4800" d="M30.033,62.354c0,1.896-2.26,2.146-5.045,2.146s-5.045-0.249-5.045-2.146"/>
				</g>
				<g>
					<path fill="#FF7300" d="M45.059,62.354c0,1.896-2.26,2.146-5.045,2.146s-5.045-0.249-5.045-2.146
						c0-1.897,2.26-4.508,5.045-4.508S45.059,60.457,45.059,62.354z"/>
					<path fill="#FF4800" d="M45.059,62.354c0,1.896-2.26,2.146-5.045,2.146s-5.045-0.249-5.045-2.146"/>
				</g>
				<g>
					<path fill="#EFC286" d="M48.871,16.275c0,7.999-7.33,12.02-16.369,12.02c-9.041,0-16.373-4.021-16.373-12.02
						c0-8.001,7.332-15.775,16.373-15.775C41.541,0.5,48.871,8.274,48.871,16.275z"/>
					<path fill="#E8B374" d="M48.871,16.275c0,7.999-7.33,12.02-16.369,12.02c-9.041,0-16.373-4.021-16.373-12.02"/>
				</g>
				<g>
					<g>
						<g>
							<path fill="#232728" d="M24.686,19.344c-0.076,0-0.157-0.028-0.219-0.091c-0.714-0.714-1.664-1.107-2.671-1.107h-0.002
								c-1.009,0-1.955,0.394-2.666,1.106c-0.121,0.121-0.316,0.124-0.435,0.001c-0.123-0.117-0.125-0.312-0.006-0.434
								c0.831-0.831,1.932-1.29,3.106-1.29h0.002c1.175,0,2.279,0.456,3.111,1.288c0.12,0.119,0.12,0.318,0,0.436
								C24.847,19.315,24.768,19.344,24.686,19.344z"/>
						</g>
					</g>
					<g>
						<g>
							<path fill="#232728" d="M34.481,19.344c0.076,0,0.155-0.028,0.217-0.091c0.715-0.714,1.664-1.107,2.671-1.107h0.003
								c1.008,0,1.957,0.394,2.668,1.106c0.119,0.121,0.313,0.124,0.436,0.001c0.121-0.117,0.123-0.312,0.002-0.434
								c-0.825-0.831-1.932-1.29-3.105-1.29h-0.003c-1.173,0-2.276,0.456-3.11,1.288c-0.117,0.119-0.117,0.318,0,0.436
								C34.32,19.315,34.399,19.344,34.481,19.344z"/>
						</g>
					</g>
				</g>
			</g>
			<path fill="#A7B1B7" d="M35.084,45.298"/>
			<path fill="#870E0E" d="M26.823,24.136c0-1.957,1.258-3.546,2.809-3.546s2.812,1.589,2.812,3.546c0,1.96-1.261,0.789-2.812,0.789
				S26.823,26.096,26.823,24.136z"/>
			<path fill="#AA1111" d="M29.634,23.455c0.919,0,1.73-0.567,2.242-1.432c-0.512-0.864-1.323-1.434-2.244-1.434
				c-0.92,0-1.729,0.567-2.242,1.433C27.902,22.888,28.712,23.455,29.634,23.455z"/>
		</g>
		<path fill="#232728" d="M18.645,8.215c2.887,2.177,7.881,3.618,13.569,3.618c4.599,0,8.739-0.945,11.688-2.455
			c1.117,0.574,2.413,1.064,3.837,1.454C45.356,5.085,39.44,0.5,32.502,0.5C26.657,0.5,21.542,3.757,18.645,8.215z"/>
	</g>
	<g>
		<path fill="#FF7300" d="M32.32,32.347c-4.184,0-7.573,3.391-7.573,7.572h2.643c0-2.723,2.207-4.93,4.931-4.93
			c2.722,0,4.928,2.207,4.928,4.93h2.642C39.89,35.737,36.498,32.347,32.32,32.347z"/>
		<path fill="#FF7300" d="M34.645,39.919c0-1.285-1.041-2.327-2.324-2.327c-1.287,0-2.329,1.042-2.329,2.327H34.645z"/>
		<g>
			<path fill="#FF7300" d="M25.721,43.812c0.137,0.238,0.283,0.469,0.442,0.69h12.311c0.158-0.222,0.307-0.452,0.44-0.69H25.721z"/>
			<path fill="#FF7300" d="M36.799,46.198c0.287-0.211,0.559-0.441,0.812-0.69H27.025c0.253,0.249,0.525,0.479,0.811,0.69H36.799z"
				/>
			<path fill="#FF7300" d="M29.703,47.203c0.815,0.3,1.696,0.464,2.617,0.464c0.916,0,1.797-0.164,2.611-0.464H29.703z"/>
			<path fill="#FF7300" d="M25.022,42.116c0.063,0.236,0.141,0.466,0.227,0.69h14.138c0.088-0.225,0.163-0.454,0.228-0.69H25.022z"
				/>
		</g>
	</g>
</g>
</svg>
