<?xml version="1.0" encoding="utf-8"?>
<!-- Generator: Adobe Illustrator 16.0.0, SVG Export Plug-In . SVG Version: 6.00 Build 0)  -->
<!DOCTYPE svg PUBLIC "-//W3C//DTD SVG 1.1//EN" "http://www.w3.org/Graphics/SVG/1.1/DTD/svg11.dtd">
<svg version="1.1" id="Layer_1" xmlns="http://www.w3.org/2000/svg" xmlns:xlink="http://www.w3.org/1999/xlink" x="0px" y="0px"
	 width="64px" height="64px" viewBox="0 0 64 64" enable-background="new 0 0 64 64" xml:space="preserve">
<g>
	<g>
		<g>
			<g>
				<path fill="#F7910B" d="M63,37.5C63,50.5,51,61,32.6,61C14.2,61,2.3,50.5,2.3,37.5S14.2,5,32.6,5C51,5,63,24.5,63,37.5z"/>
			</g>
			<g>
				<path fill="#F7910B" d="M63,37.5C63,50.5,51,57,32.6,57C14.2,57,2.3,50.5,2.3,37.5S14.2,3,32.6,3C51,3,63,24.5,63,37.5z"/>
			</g>
			<g>
				<path fill="#F9A908" d="M32.6,3C51,3,63,24.5,63,37.5S51,57,32.6,57"/>
			</g>
			<g>
				<path fill="#F9A908" d="M63,37.5C63,50.5,51,57,32.6,57C14.2,57,2.3,50.5,2.3,37.5S14.2,5,32.6,5C51,5,63,24.5,63,37.5z"/>
			</g>
			<g>
				<path fill="#F9C55D" d="M2.3,37.5C2.3,24.5,14.2,5,32.6,5"/>
			</g>
			<g>
				<path fill="#F7910B" d="M32.6,5C51,5,63,24.5,63,37.5S51,61,32.6,61"/>
			</g>
			<g>
				<path fill="#EA7103" d="M32.6,5C51,5,63,24.5,63,37.5"/>
			</g>
			<g>
				<g>
					<g>
						<g>
							<g>
								<g>
									<path fill="#19BCA4" d="M26.3,12.9c0.2,1.3-1.3,0.9-3.1,1.2s-3.1,1.2-3.3-0.1c-0.2-1.3,1.1-2.6,2.9-2.8
										C24.4,10.8,26,11.6,26.3,12.9z"/>
								</g>
							</g>
						</g>
					</g>
					<g>
						<g>
							<g>
								<g>
									<path fill="#109DA0" d="M26.3,12.9c0.2,1.3-1.3,0.9-3.1,1.2s-3.1,1.2-3.3-0.1"/>
								</g>
							</g>
						</g>
					</g>
				</g>
				<g>
					<g>
						<g>
							<g>
								<g>
									<path fill="#19BCA4" d="M37.3,11.6c-0.2,1.3,2,1,4.7,1.6c2.7,0.5,4.7,1.6,5,0.3c0.2-1.3-1.7-2.7-4.4-3.2
										C39.9,9.7,37.6,10.3,37.3,11.6z"/>
								</g>
							</g>
						</g>
					</g>
					<g>
						<g>
							<g>
								<g>
									<path fill="#109DA0" d="M37.3,11.6c-0.2,1.3,2,1,4.7,1.6c2.7,0.5,4.7,1.6,5,0.3"/>
								</g>
							</g>
						</g>
					</g>
				</g>
			</g>
			<g>
				<g>
					<path fill="#F9C55D" d="M28.5,30.8c0,1.2-3.5,0.7-7.8,0.7c-4.3,0-7.8,0.6-7.8-0.7s3.5-2.2,7.8-2.2C25,28.6,28.5,29.6,28.5,30.8
						z"/>
				</g>
				<g>
					<path fill="#F9A908" d="M52.4,30.8c0,1.2-3.5,0.7-7.8,0.7s-7.8,0.6-7.8-0.7s3.5-2.2,7.8-2.2S52.4,29.6,52.4,30.8z"/>
				</g>
			</g>
			<g>
				<circle fill="#F7910B" cx="11" cy="34.5" r="0.6"/>
			</g>
			<g>
				<circle fill="#F7910B" cx="6.5" cy="36.5" r="1.1"/>
			</g>
			<g>
				<circle fill="#F7910B" cx="9.5" cy="32.5" r="0.2"/>
			</g>
			<g>
				<path fill="#F7910B" d="M14.2,34.3c0,0.1-0.1,0.2-0.2,0.2s-0.2-0.1-0.2-0.2c0-0.1,0.1-0.2,0.2-0.2S14.2,34.2,14.2,34.3z"/>
			</g>
			<g>
				<circle fill="#F9A908" cx="53.2" cy="34.8" r="0.8"/>
			</g>
			<g>
				<circle fill="#F9A908" cx="55.7" cy="36.2" r="0.2"/>
			</g>
			<g>
				<circle fill="#F9A908" cx="50.4" cy="27.4" r="0.3"/>
			</g>
			<g>
				<circle fill="#F9A908" cx="49.9" cy="39" r="1.3"/>
			</g>
			<g>
				<circle fill="#F9A908" cx="57.1" cy="39.1" r="0.6"/>
			</g>
			<g>
				<circle fill="#F7910B" cx="10" cy="38.5" r="0.5"/>
			</g>
			<g>
				<circle fill="#F7910B" cx="10.7" cy="30.1" r="0.4"/>
			</g>
			<g>
				<circle fill="#F9A908" cx="5.5" cy="16.3" r="1.1"/>
			</g>
			<g>
				<circle fill="#F9A908" cx="8.7" cy="12.8" r="0.6"/>
			</g>
			<g>
				<circle fill="#F9A908" cx="59.8" cy="18.7" r="0.2"/>
			</g>
			<g>
				<circle fill="#F9A908" cx="59" cy="15.8" r="0.8"/>
			</g>
			<g>
				<circle fill="#F9A908" cx="61.6" cy="16.3" r="0.5"/>
			</g>
			<g>
				<circle fill="#F9A908" cx="6.7" cy="19.3" r="0.6"/>
			</g>
			<g>
				<g>
					<g>
						<g>
							<g>
								<path fill="#1E4784" d="M24.5,28c-0.4-0.1-0.8-0.3-1.1-0.7c-1.1-1.6-3.4-2-5-0.9c-0.8,0.5-1.8,0.3-2.3-0.4s-0.3-1.8,0.4-2.3
									c3.1-2.2,7.4-1.4,9.6,1.8c0.5,0.7,0.3,1.8-0.4,2.3C25.4,28,24.9,28,24.5,28z"/>
							</g>
						</g>
						<g>
							<g>
								<path fill="#02243E" d="M26.1,25.4c0.5,0.7,0.3,1.8-0.4,2.3C25.4,28,24.9,28,24.5,28c-0.4-0.1-0.8-0.3-1.1-0.7
									c-1.1-1.6-3.4-2-5-0.9c-0.8,0.5-1.8,0.3-2.3-0.4s-0.3-1.8,0.4-2.3"/>
							</g>
						</g>
					</g>
				</g>
				<g>
					<g>
						<g>
							<g>
								<path fill="#1E4784" d="M40.8,28c0.4-0.1,0.8-0.3,1.1-0.7c1.1-1.6,3.4-2,5-0.9c0.8,0.5,1.8,0.3,2.3-0.4
									c0.5-0.8,0.3-1.8-0.4-2.3c-3.1-2.2-7.4-1.4-9.6,1.8c-0.5,0.7-0.3,1.8,0.4,2.3C39.9,28,40.4,28,40.8,28z"/>
							</g>
						</g>
						<g>
							<g>
								<path fill="#02243E" d="M39.1,25.4c-0.5,0.7-0.3,1.8,0.4,2.3c0.4,0.3,0.8,0.3,1.2,0.3c0.4-0.1,0.8-0.3,1.1-0.7
									c1.1-1.6,3.4-2,5-0.9c0.8,0.5,1.8,0.3,2.3-0.4c0.5-0.8,0.3-1.8-0.4-2.3"/>
							</g>
						</g>
					</g>
				</g>
			</g>
		</g>
		<g>
			<g>
				<path fill="#99144A" d="M20.9,42.9c0-9.6,5.2-7.2,11.6-7.2c6.4,0,11.6-0.9,11.6,7.2c0,4-5.2-7-11.6-7
					C26.1,35.9,20.9,46.9,20.9,42.9z"/>
			</g>
		</g>
	</g>
	<g>
		<g>
			<g>
				<rect x="1" y="1" fill="#EFE7CB" width="27.5" height="62.1"/>
			</g>
			<g>
				<polyline fill="#C9BC9D" points="1,1 28.5,1 28.5,63 				"/>
			</g>
			<g>
				<rect x="1" y="1" fill="#C12774" width="27.5" height="7.8"/>
			</g>
			<g>
				<polyline fill="#99144A" points="1,1 28.5,1 28.5,8.8 				"/>
			</g>
			<g>
				<rect x="1" y="11" fill="#C12774" width="12.3" height="7.8"/>
			</g>
			<g>
				<polyline fill="#99144A" points="1,11 13.3,11 13.3,18.9 				"/>
			</g>
			<g>
				<rect x="18.2" y="11" fill="#C12774" width="10.3" height="7.8"/>
			</g>
			<g>
				<polyline fill="#99144A" points="18.2,11 28.5,11 28.5,18.9 				"/>
			</g>
		</g>
		<g>
			<g>
				<rect x="1" y="21.4" fill="#C12774" width="27.5" height="7.8"/>
			</g>
			<g>
				<polyline fill="#99144A" points="1,21.4 28.5,21.4 28.5,29.2 				"/>
			</g>
			<g>
				<rect x="1" y="31.4" fill="#C12774" width="12.3" height="7.8"/>
			</g>
			<g>
				<polyline fill="#99144A" points="1,31.4 13.3,31.4 13.3,39.3 				"/>
			</g>
			<g>
				<rect x="18.2" y="31.4" fill="#C12774" width="10.3" height="7.8"/>
			</g>
			<g>
				<polyline fill="#99144A" points="18.2,31.4 28.5,31.4 28.5,39.3 				"/>
			</g>
		</g>
		<g>
			<g>
				<rect x="1" y="41.8" fill="#C12774" width="27.5" height="7.8"/>
			</g>
			<g>
				<polyline fill="#99144A" points="1,41.8 28.5,41.8 28.5,49.6 				"/>
			</g>
			<g>
				<rect x="1" y="51.8" fill="#C12774" width="12.3" height="7.8"/>
			</g>
			<g>
				<polyline fill="#99144A" points="1,51.8 13.3,51.8 13.3,59.7 				"/>
			</g>
			<g>
				<rect x="18.2" y="51.8" fill="#C12774" width="10.3" height="7.8"/>
			</g>
			<g>
				<polyline fill="#99144A" points="18.2,51.8 28.5,51.8 28.5,59.7 				"/>
			</g>
		</g>
	</g>
</g>
</svg>
