<?xml version="1.0" encoding="utf-8"?>
<!-- Generator: Adobe Illustrator 16.0.0, SVG Export Plug-In . SVG Version: 6.00 Build 0)  -->
<!DOCTYPE svg PUBLIC "-//W3C//DTD SVG 1.1//EN" "http://www.w3.org/Graphics/SVG/1.1/DTD/svg11.dtd">
<svg version="1.1" xmlns="http://www.w3.org/2000/svg" xmlns:xlink="http://www.w3.org/1999/xlink" x="0px" y="0px" width="65px"
	 height="65px" viewBox="0 0 65 65" enable-background="new 0 0 65 65" xml:space="preserve">
<g id="Layer_1">
	<g>
		<g>
			<g>
				<g>
					<path fill="#29CC91" d="M61.293,32.501c0,15.902-12.893,28.791-28.793,28.791c-15.898,0-28.793-12.889-28.793-28.791
						S16.602,3.708,32.5,3.708C48.4,3.708,61.293,16.599,61.293,32.501z"/>
				</g>
				<g>
					<path fill="#089CA0" d="M32.5,61.292c-15.898,0-28.793-12.889-28.793-28.791"/>
				</g>
				<g>
					<path fill="#33E29F" d="M3.707,32.501c0-15.902,12.895-28.793,28.793-28.793"/>
				</g>
				<g>
					<path fill="#089CA0" d="M32.5,3.708c15.9,0,28.793,12.891,28.793,28.793S48.4,61.292,32.5,61.292"/>
				</g>
				<g>
					<path fill="#29CC91" d="M32.5,3.708c15.9,0,28.793,12.891,28.793,28.793"/>
				</g>
				<g>
					<path fill="#0A829E" d="M61.293,32.501c0,15.902-12.893,28.791-28.793,28.791"/>
				</g>
				<g>
					<path fill="#2D4459" d="M32.5,63.792c-17.254,0-31.293-14.037-31.293-31.291c0-17.255,14.039-31.293,31.293-31.293
						c17.256,0,31.293,14.038,31.293,31.293C63.793,49.755,49.756,63.792,32.5,63.792z M32.5,6.208
						c-14.498,0-26.293,11.795-26.293,26.293c0,14.497,11.795,26.291,26.293,26.291s26.293-11.794,26.293-26.291
						C58.793,18.003,46.998,6.208,32.5,6.208z"/>
				</g>
			</g>
			<g>
				<g>
					<g>
						<line fill="#29CC91" x1="32.5" y1="4" x2="32.5" y2="61"/>
					</g>
					<g>
						<path fill="#2D4459" d="M32.5,63.5c-1.381,0-2.5-1.119-2.5-2.5V4c0-1.381,1.119-2.5,2.5-2.5S35,2.619,35,4v57
							C35,62.381,33.881,63.5,32.5,63.5z"/>
					</g>
				</g>
				<g>
					<g>
						<line fill="#29CC91" x1="61" y1="32.5" x2="4" y2="32.5"/>
					</g>
					<g>
						<path fill="#2D4459" d="M61,35H4c-1.381,0-2.5-1.119-2.5-2.5S2.619,30,4,30h57c1.381,0,2.5,1.119,2.5,2.5S62.381,35,61,35z"/>
					</g>
				</g>
			</g>
		</g>
		<g>
			<g>
				<circle fill="#0A829E" cx="18.153" cy="25.987" r="1.167"/>
			</g>
			<g>
				<circle fill="#0A829E" cx="22.071" cy="22.071" r="1.167"/>
			</g>
			<g>
				<circle fill="#0A829E" cx="25.987" cy="18.155" r="1.167"/>
			</g>
		</g>
	</g>
</g>
<g id="nyt_x5F_exporter_x5F_info" display="none">
</g>
</svg>
