<?xml version="1.0" encoding="utf-8"?>
<!-- Generator: Adobe Illustrator 16.0.0, SVG Export Plug-In . SVG Version: 6.00 Build 0)  -->
<!DOCTYPE svg PUBLIC "-//W3C//DTD SVG 1.1//EN" "http://www.w3.org/Graphics/SVG/1.1/DTD/svg11.dtd">
<svg version="1.1" id="Layer_1" xmlns="http://www.w3.org/2000/svg" xmlns:xlink="http://www.w3.org/1999/xlink" x="0px" y="0px"
	 width="65px" height="65px" viewBox="0 0 65 65" enable-background="new 0 0 65 65" xml:space="preserve">
<g>
	<path fill="#4F340E" d="M56.916,63.834c0,0.368-0.299,0.666-0.666,0.666l0,0c-0.369,0-0.666-0.298-0.666-0.666V42.502
		c0-0.37,0.297-0.668,0.666-0.668l0,0c0.367,0,0.666,0.298,0.666,0.668V63.834z"/>
	<g>
		<g>
			<g>
				<g>
					<g>
						<path fill="#4F340E" d="M34.666,46.446c0,2.476-2.008,15.827-4.486,15.827c-2.475,0-4.482-13.352-4.482-15.827
							s2.008-4.484,4.482-4.484C32.658,41.962,34.666,43.971,34.666,46.446z"/>
						<path fill="#4F340E" d="M49.691,46.446c0,2.476-2.008,15.827-4.486,15.827c-2.475,0-4.482-13.352-4.482-15.827
							s2.008-4.484,4.482-4.484C47.684,41.962,49.691,43.971,49.691,46.446z"/>
					</g>
					<path fill="#684713" d="M50.344,40.521c0,16.038-5.662,10.697-12.65,10.697c-6.986,0-12.65,5.341-12.65-10.697
						c0-9.17,5.666-16.604,12.65-16.604C44.68,23.918,50.344,31.352,50.344,40.521z"/>
					<g>
						<path fill="#B7530F" d="M35.227,62.354c0,1.897-2.26,2.146-5.045,2.146s-5.045-0.248-5.045-2.146s2.26-4.508,5.045-4.508
							S35.227,60.457,35.227,62.354z"/>
						<path fill="#9B4308" d="M35.227,62.354c0,1.897-2.26,2.146-5.045,2.146s-5.045-0.248-5.045-2.146"/>
					</g>
					<g>
						<path fill="#B7530F" d="M50.252,62.354c0,1.897-2.26,2.146-5.045,2.146s-5.045-0.248-5.045-2.146s2.26-4.508,5.045-4.508
							S50.252,60.457,50.252,62.354z"/>
						<path fill="#9B4308" d="M50.252,62.354c0,1.897-2.26,2.146-5.045,2.146s-5.045-0.248-5.045-2.146"/>
					</g>
					<g>
						<path fill="#684713" d="M36.299,26.369c1.273,1.432,0.465,4.228-1.805,6.249c-2.27,2.018-14.475,10.794-15.75,9.365
							c-1.271-1.434,8.873-12.532,11.143-14.55C32.154,25.415,35.025,24.938,36.299,26.369z"/>
						<path fill="#684713" d="M39.088,26.369c-1.273,1.432-0.465,4.228,1.805,6.249c2.27,2.018,14.475,10.794,15.75,9.365
							c1.271-1.434-8.873-12.532-11.143-14.55C43.232,25.415,40.361,24.938,39.088,26.369z"/>
					</g>
					<rect x="35.068" y="25.834" fill="#E2DED3" width="5.25" height="17.916"/>
					<path fill="#C6BFAF" d="M35.068,30.165c0.857,0.079,1.73,0.13,2.627,0.13c0.895,0,1.768-0.051,2.623-0.13v-4.331h-5.25V30.165z
						"/>
					<g>
						<path fill="#F9C1AC" d="M54.064,16.275c0,7.999-7.33,12.02-16.369,12.02c-9.041,0-16.373-4.021-16.373-12.02
							c0-8.001,7.332-15.775,16.373-15.775C46.734,0.5,54.064,8.274,54.064,16.275z"/>
						<path fill="#F2B09C" d="M54.064,16.275c0,7.999-7.33,12.02-16.369,12.02c-9.041,0-16.373-4.021-16.373-12.02"/>
					</g>
					<g>
						<g>
							<circle fill="#113E49" cx="29.909" cy="11.418" r="1.464"/>
							<path d="M31.373,11.418c0,0.81-0.656,1.464-1.465,1.464s-1.463-0.654-1.463-1.464"/>
							<g>
								<path fill="#FFD3C5" d="M32.797,14.471c-0.078,0-0.158-0.028-0.219-0.091c-0.715-0.714-1.664-1.107-2.672-1.107h-0.002
									c-1.008,0-1.955,0.394-2.666,1.106c-0.121,0.121-0.316,0.124-0.436,0.001c-0.121-0.117-0.125-0.312-0.004-0.434
									c0.83-0.831,1.932-1.29,3.105-1.29h0.002c1.176,0,2.279,0.456,3.111,1.288c0.119,0.119,0.119,0.318,0,0.436
									C32.957,14.442,32.879,14.471,32.797,14.471z"/>
							</g>
						</g>
						<g>
							<circle fill="#113E49" cx="45.479" cy="11.418" r="1.464"/>
							<path d="M44.016,11.418c0,0.81,0.654,1.464,1.465,1.464c0.809,0,1.463-0.654,1.463-1.464"/>
							<g>
								<path fill="#FFD3C5" d="M42.592,14.471c0.076,0,0.156-0.028,0.217-0.091c0.715-0.714,1.664-1.107,2.672-1.107h0.002
									c1.008,0,1.957,0.394,2.668,1.106c0.119,0.121,0.314,0.124,0.436,0.001c0.121-0.117,0.123-0.312,0.002-0.434
									c-0.826-0.831-1.932-1.29-3.105-1.29H45.48c-1.174,0-2.277,0.456-3.111,1.288c-0.117,0.119-0.117,0.318,0,0.436
									C42.432,14.442,42.51,14.471,42.592,14.471z"/>
							</g>
						</g>
					</g>
				</g>
				<path fill="#CE910B" d="M40.344,45.626c0,0.667-0.541,1.208-1.209,1.208h-2.832c-0.668,0-1.209-0.541-1.209-1.208l0,0
					c0-0.667,0.541-1.208,1.209-1.208h2.832C39.803,44.418,40.344,44.959,40.344,45.626L40.344,45.626z"/>
				<path fill="#E5AA15" d="M39.135,44.418h-2.832c-0.553,0-0.998,0.375-1.143,0.88c0.145,0.504,0.59,0.88,1.143,0.88h2.832
					c0.551,0,0.998-0.376,1.143-0.88C40.133,44.793,39.686,44.418,39.135,44.418z"/>
			</g>
		</g>
		<path fill="#E8EFEF" d="M25.631,5.918L43.5,4.25l6.257,1.668C46.764,2.686,42.475,0.5,37.695,0.5
			C32.914,0.5,28.625,2.686,25.631,5.918z"/>
		<path fill="#DFE7E8" d="M25.631,5.918L43.5,4.25l6.257,1.668c-2.993-3.232-7.04-3.877-11.819-3.877
			C33.156,2.041,28.625,2.686,25.631,5.918z"/>
		<g>
			<g>
				<g>
					<path fill="#845824" d="M33.236,15.433h-7.211c-1.427,0-2.588-1.161-2.588-2.588V8.941c0-1.427,1.161-2.588,2.588-2.588h7.211
						c1.427,0,2.588,1.161,2.588,2.588v3.903C35.824,14.271,34.663,15.433,33.236,15.433z M26.025,8.354
						c-0.324,0-0.588,0.264-0.588,0.588v3.903c0,0.324,0.264,0.588,0.588,0.588h7.211c0.324,0,0.588-0.264,0.588-0.588V8.941
						c0-0.324-0.264-0.588-0.588-0.588H26.025z"/>
				</g>
				<g>
					<path fill="#845824" d="M24.188,11.893h-3.875c-0.553,0-1-0.447-1-1s0.447-1,1-1h3.875c0.553,0,1,0.447,1,1
						S24.74,11.893,24.188,11.893z"/>
				</g>
			</g>
			<g>
				<g>
					<path fill="#845824" d="M49.361,15.432H42.15c-1.427,0-2.588-1.161-2.588-2.588V8.941c0-1.427,1.161-2.588,2.588-2.588h7.211
						c1.427,0,2.588,1.161,2.588,2.588v3.902C51.949,14.271,50.788,15.432,49.361,15.432z M42.15,8.354
						c-0.324,0-0.588,0.264-0.588,0.588v3.902c0,0.324,0.264,0.588,0.588,0.588h7.211c0.324,0,0.588-0.264,0.588-0.588V8.941
						c0-0.324-0.264-0.588-0.588-0.588H42.15z"/>
				</g>
				<g>
					<path fill="#845824" d="M55.074,11.893h-3.875c-0.553,0-1-0.447-1-1s0.447-1,1-1h3.875c0.553,0,1,0.447,1,1
						S55.627,11.893,55.074,11.893z"/>
				</g>
			</g>
			<g>
				<path fill="#845824" d="M40.562,11.604H35c-0.553,0-1-0.447-1-1s0.447-1,1-1h5.562c0.553,0,1,0.447,1,1
					S41.115,11.604,40.562,11.604z"/>
			</g>
		</g>
		<path fill="#CE4121" d="M40.1,15.562c0,0.563-1.077-0.219-2.406-0.219s-2.406,0.782-2.406,0.219c0-0.564,1.077-1.021,2.406-1.021
			S40.1,14.998,40.1,15.562z"/>
		<path fill="#EF4529" d="M19.584,15.166c0,3.176-2.574,8.418-5.75,8.418s-5.75-5.242-5.75-8.418s2.574-5.75,5.75-5.75
			S19.584,11.99,19.584,15.166z"/>
		<path fill="#CE4121" d="M13.834,9.416c3.176,0,5.75,2.574,5.75,5.75s-2.574,8.418-5.75,8.418"/>
		<g>
			<g>
				<polygon fill="#4F340E" points="37.651,31.853 31.533,34.608 31.533,28.492 37.651,31.248 				"/>
				<polygon fill="#4F340E" points="37.736,31.248 43.852,28.492 43.852,34.608 37.736,31.853 				"/>
			</g>
			<path fill="#4F340E" d="M39.418,31.549c0,0.811-0.658,1.465-1.465,1.465h-0.52c-0.807,0-1.465-0.654-1.465-1.465l0,0
				c0-0.808,0.658-1.463,1.465-1.463h0.52C38.76,30.086,39.418,30.741,39.418,31.549L39.418,31.549z"/>
		</g>
		<path fill="#CE4121" d="M15.625,25.041c0,0.99-0.803,0.709-1.791,0.709c-0.99,0-1.791,0.281-1.791-0.709
			c0-0.988,0.801-1.791,1.791-1.791C14.822,23.25,15.625,24.053,15.625,25.041z"/>
		<g>
			<path fill="#9AA5A5" d="M19.459,41.416c-0.097,0-0.193-0.036-0.267-0.109l-5.733-5.735v-9.322c0-0.206,0.168-0.375,0.375-0.375
				c0.206,0,0.375,0.169,0.375,0.375v9.012l5.515,5.515c0.146,0.146,0.146,0.385,0,0.531C19.65,41.38,19.553,41.416,19.459,41.416z"
				/>
		</g>
	</g>
</g>
</svg>
