<?xml version="1.0" encoding="utf-8"?>
<!-- Generator: Adobe Illustrator 16.0.0, SVG Export Plug-In . SVG Version: 6.00 Build 0)  -->
<!DOCTYPE svg PUBLIC "-//W3C//DTD SVG 1.1//EN" "http://www.w3.org/Graphics/SVG/1.1/DTD/svg11.dtd">
<svg version="1.1" xmlns="http://www.w3.org/2000/svg" xmlns:xlink="http://www.w3.org/1999/xlink" x="0px" y="0px" width="65px"
	 height="65px" viewBox="0 0 65 65" enable-background="new 0 0 65 65" xml:space="preserve">
<g id="Layer_1">
	<g>
		<g>
			<path fill="#F2B303" d="M51.397,30.653L43.546,17.06c-0.66-1.142-1.876-1.846-3.197-1.846H24.652
				c-1.319,0-2.538,0.704-3.196,1.846l-7.852,13.594c-0.659,1.142-0.659,2.55,0,3.691l7.852,13.596
				c0.658,1.144,1.877,1.846,3.196,1.846h15.696c1.321,0,2.537-0.702,3.197-1.846l7.852-13.596
				C52.055,33.203,52.055,31.795,51.397,30.653z"/>
			<path fill="#FFC022" d="M38.531,15.214H24.652c-1.319,0-2.538,0.704-3.196,1.846l-7.852,13.594c-0.659,1.142-0.659,2.55,0,3.691
				l3.52,6.097h13.878c1.321,0,2.539-0.704,3.199-1.847L42.053,25c0.656-1.143,0.656-2.55,0-3.692L38.531,15.214z"/>
			<path fill="#F9D500" d="M24.652,15.214c-1.319,0-2.538,0.704-3.196,1.846l-7.852,13.594c-0.659,1.142-0.659,2.55,0,3.691
				l3.52,6.097"/>
			<path fill="#FFC022" d="M42.053,21.308"/>
		</g>
		<g>
			<g>
				<path fill="#FFC022" d="M33.571,9.069c0,0.592-0.479,1.07-1.071,1.07l0,0c-0.592,0-1.071-0.479-1.071-1.07V1.571
					c0-0.592,0.479-1.071,1.071-1.071l0,0c0.592,0,1.071,0.479,1.071,1.071V9.069z"/>
				<path fill="#FFC022" d="M33.571,63.429c0,0.592-0.479,1.071-1.071,1.071l0,0c-0.592,0-1.071-0.479-1.071-1.071v-7.498
					c0-0.592,0.479-1.07,1.071-1.07l0,0c0.592,0,1.071,0.479,1.071,1.07V63.429z"/>
			</g>
			<g>
				<path fill="#FFC022" d="M49.825,16.689c-0.418,0.418-1.096,0.418-1.515,0l0,0c-0.418-0.419-0.418-1.097,0-1.515l5.303-5.3
					c0.418-0.421,1.095-0.421,1.515,0l0,0c0.418,0.417,0.418,1.094,0,1.513L49.825,16.689z"/>
				<path fill="#FFC022" d="M11.387,55.128c-0.418,0.418-1.096,0.418-1.515,0l0,0c-0.419-0.419-0.419-1.097,0-1.515l5.302-5.303
					c0.419-0.418,1.096-0.418,1.516,0l0,0c0.418,0.419,0.418,1.097-0.001,1.515L11.387,55.128z"/>
			</g>
			<g>
				<path fill="#FFC022" d="M55.931,33.571c-0.592,0-1.071-0.479-1.071-1.071l0,0c0-0.591,0.479-1.071,1.071-1.07h7.498
					c0.591-0.001,1.071,0.478,1.071,1.071l0,0c0,0.592-0.48,1.07-1.071,1.071L55.931,33.571z"/>
				<path fill="#FFC022" d="M1.571,33.571c-0.592,0-1.071-0.479-1.071-1.071l0,0c0-0.591,0.479-1.071,1.07-1.071l7.5-0.001
					c0.591,0.001,1.07,0.48,1.07,1.072l0,0c0,0.592-0.479,1.071-1.072,1.07L1.571,33.571z"/>
			</g>
			<g>
				<path fill="#FFC022" d="M48.311,49.825c-0.418-0.418-0.419-1.096,0-1.515l0,0c0.418-0.418,1.097-0.418,1.515,0.001l5.302,5.302
					c0.419,0.418,0.42,1.096,0,1.516l0,0c-0.419,0.418-1.096,0.417-1.515,0L48.311,49.825z"/>
				<path fill="#FFC022" d="M9.872,11.387c-0.419-0.418-0.419-1.095,0-1.515l0,0c0.419-0.417,1.097-0.418,1.515-0.001l5.303,5.303
					c0.418,0.419,0.418,1.097,0,1.516l0,0c-0.42,0.418-1.097,0.418-1.516-0.002L9.872,11.387z"/>
			</g>
		</g>
	</g>
</g>
<g id="nyt_x5F_exporter_x5F_info" display="none">
</g>
</svg>
