<?xml version="1.0" encoding="utf-8"?>
<!-- Generator: Adobe Illustrator 16.0.0, SVG Export Plug-In . SVG Version: 6.00 Build 0)  -->
<!DOCTYPE svg PUBLIC "-//W3C//DTD SVG 1.1//EN" "http://www.w3.org/Graphics/SVG/1.1/DTD/svg11.dtd">
<svg version="1.1" id="Layer_1" xmlns="http://www.w3.org/2000/svg" xmlns:xlink="http://www.w3.org/1999/xlink" x="0px" y="0px"
	 width="64px" height="64px" viewBox="0 0 64 64" enable-background="new 0 0 64 64" xml:space="preserve">
<g>
	<ellipse fill="#F4DD9D" cx="32" cy="38.5" rx="25" ry="18.7"/>
	<path fill="#E0C777" d="M57,38.5c0,10.3-11.2,18.7-25,18.7S7,48.8,7,38.5c0-10.3,11.2-15.9,25-15.9S57,28.1,57,38.5z"/>
	<g>
		<path fill="#108BC1" d="M2.6,35.6C4.3,50.4,16.8,61.8,32,61.8s27.7-11.4,29.4-26.2H2.6z"/>
		<path fill="#0E669B" d="M32,61.8c15.2,0,27.7-11.4,29.4-26.2H2.6"/>
		<path fill="#084C7F" d="M32,61.8c15.2,0,27.7-11.4,29.4-26.2"/>
		<path fill="#37B546" d="M58.9,44.5c0.4-0.9,0.8-1.9,1.1-2.9H4c0.3,1,0.7,1.9,1.1,2.9H58.9z"/>
		<path fill="#1F9935" d="M5.1,44.5h53.8c0.4-0.9,0.8-1.9,1.1-2.9"/>
		<g>
			<circle fill="#ACE5B5" cx="12.6" cy="48.2" r="0.8"/>
			<circle fill="#ACE5B5" cx="18.2" cy="48.2" r="0.8"/>
			<circle fill="#ACE5B5" cx="23.8" cy="48.2" r="0.8"/>
			<circle fill="#ACE5B5" cx="29.4" cy="48.2" r="0.8"/>
			<circle fill="#ACE5B5" cx="35.1" cy="48.2" r="0.8"/>
			<circle fill="#ACE5B5" cx="40.7" cy="48.2" r="0.8"/>
			<circle fill="#ACE5B5" cx="45.8" cy="48.7" r="0.8"/>
			<circle fill="#ACE5B5" cx="51.4" cy="48.7" r="0.8"/>
		</g>
		<path fill="#37B546" d="M62.9,35.2c0,0.4-0.4,0.8-0.8,0.8H1.9c-0.4,0-0.8-0.4-0.8-0.8l0,0c0-0.4,0.4-0.8,0.8-0.8h60.2
			C62.5,34.4,62.9,34.8,62.9,35.2L62.9,35.2z"/>
	</g>
	<circle fill="#F4DD9D" cx="18.8" cy="29.5" r="1.1"/>
	<ellipse fill="#F4DD9D" cx="23.3" cy="25.9" rx="0.2" ry="0"/>
	<circle fill="#F4DD9D" cx="29.4" cy="25.7" r="0.6"/>
	<circle fill="#F4DD9D" cx="38.2" cy="27.7" r="2.3"/>
	<circle fill="#F4DD9D" cx="31" cy="28.7" r="0.2"/>
	<circle fill="#F4DD9D" cx="45.7" cy="27.4" r="0.4"/>
	<circle fill="#F4DD9D" cx="49.4" cy="30" r="0.2"/>
	<circle fill="#F4DD9D" cx="23.9" cy="26.1" r="0.9"/>
	<circle fill="#F4DD9D" cx="25.3" cy="28.5" r="0.3"/>
	<circle fill="#F4DD9D" cx="44.9" cy="31" r="0.7"/>
	<circle fill="#F4DD9D" cx="50.8" cy="30.8" r="0.4"/>
	<circle fill="#F4DD9D" cx="12.9" cy="30" r="1"/>
	<g>
		<g>
			<path fill="#F4DD9D" d="M13.4,7.1c3.4,0,6.6,0.1,9.5,0.2c-2-2.2-5.2-5.1-8.8-5.1c-3.6,0-6.8,2.9-8.8,5C7.8,7.2,10.5,7.1,13.4,7.1
				z"/>
			<path fill="#E0C777" d="M13.4,7.1c3.4,0,6.6,0.1,9.5,0.2c-2-2.2-5.2-3.7-8.8-3.7c-3.6,0-6.8,1.4-8.8,3.6
				C7.8,7.2,10.5,7.1,13.4,7.1z"/>
			<path fill="#37B546" d="M13.4,7.1c-3.6,0-7-0.1-10.1-0.2c0,0.3-0.1,0.6-0.1,1c0,4.8,4.9,8.8,10.8,8.8c6,0,10.8-3.9,10.8-8.8
				c0-0.3,0-0.7-0.1-1C21.4,7,17.5,7.1,13.4,7.1z"/>
			<path fill="#1F9935" d="M14,16.6c6,0,10.8-3.9,10.8-8.8c0-0.3,0-0.7-0.1-1C21.4,7,17.5,7.1,13.4,7.1"/>
		</g>
		<path fill="#37B546" d="M59.7,8.6c0,1-4,5-5,5l-30-3.2c-1,0-1.8-0.8-1.8-1.8l0,0c0-1,0.8-1.8,1.8-1.8H58
			C58.9,6.9,59.7,7.7,59.7,8.6L59.7,8.6z"/>
		<path fill="#1F9935" d="M58,6.9c1,0,1.8,0.8,1.8,1.8l0,0c0,1-4,5-5,5l-30-3.2c-1,0-1.8-0.8-1.8-1.8l0,0"/>
	</g>
</g>
</svg>
