<?xml version="1.0" encoding="utf-8"?>
<!-- Generator: Adobe Illustrator 16.0.0, SVG Export Plug-In . SVG Version: 6.00 Build 0)  -->
<!DOCTYPE svg PUBLIC "-//W3C//DTD SVG 1.1//EN" "http://www.w3.org/Graphics/SVG/1.1/DTD/svg11.dtd">
<svg version="1.1" id="Layer_1" xmlns="http://www.w3.org/2000/svg" xmlns:xlink="http://www.w3.org/1999/xlink" x="0px" y="0px"
	 width="65px" height="65px" viewBox="0 0 65 65" enable-background="new 0 0 65 65" xml:space="preserve">
<g>
	<g>
		<g>
			<path fill="#0B3A60" d="M19.396,18.342h-3.821c-0.567,0-1.025,0.459-1.025,1.027v10.25H6.374v-10.25
				c0-0.568-0.459-1.027-1.025-1.027H1.527c-0.567,0-1.027,0.459-1.027,1.027v26.223c0,0.568,0.46,1.027,1.027,1.027h3.821
				c0.566,0,1.025-0.459,1.025-1.027V35.043h8.176v10.549c0,0.568,0.458,1.027,1.025,1.027h3.821c0.567,0,1.026-0.459,1.026-1.027
				V19.369C20.423,18.801,19.964,18.342,19.396,18.342z"/>
			<path fill="#0B3A60" d="M50.025,17.893c-7.98,0-14.475,6.561-14.475,14.625c0,8.045,6.494,14.59,14.475,14.59
				c7.982,0,14.475-6.545,14.475-14.59C64.5,24.453,58.008,17.893,50.025,17.893z"/>
			<path fill="#115989" d="M50.025,17.893c-7.98,0-14.475,6.561-14.475,14.625"/>
			<g>
				<path fill="#05C0D3" d="M61.244,31.156c-1.125,0-2.119-0.631-2.805-1.611c-0.686,0.98-1.681,1.611-2.805,1.611
					c-1.123,0-2.119-0.631-2.805-1.611c-0.686,0.98-1.681,1.611-2.805,1.611c-1.123,0-2.119-0.631-2.804-1.611
					c-0.686,0.98-1.682,1.611-2.805,1.611c-1.124,0-2.119-0.631-2.805-1.611c-0.686,0.98-1.681,1.611-2.805,1.611
					c-1.184,0-2.228-0.701-2.913-1.775c-0.22,1.012-0.344,2.059-0.344,3.137c0,8.045,6.494,14.59,14.475,14.59
					c7.982,0,14.475-6.545,14.475-14.59c0-1.078-0.124-2.125-0.344-3.137C63.471,30.455,62.428,31.156,61.244,31.156z"/>
			</g>
			<path fill="#10DDCD" d="M61.244,31.156c-1.125,0-2.119-0.631-2.805-1.611c-0.686,0.98-1.681,1.611-2.805,1.611
				c-1.123,0-2.119-0.631-2.805-1.611c-0.686,0.98-1.681,1.611-2.805,1.611c-1.123,0-2.119-0.631-2.804-1.611
				c-0.686,0.98-1.682,1.611-2.805,1.611c-1.124,0-2.119-0.631-2.805-1.611c-0.686,0.98-1.681,1.611-2.805,1.611
				c-1.184,0-2.228-0.701-2.913-1.775c-0.22,1.012-0.344,2.059-0.344,3.137c0,6.951,4.852,12.773,11.32,14.229l16.23-16.227
				C62.555,30.92,61.925,31.156,61.244,31.156z"/>
			<g>
				<path fill="#0793D1" d="M64.156,32.043c-0.686,1.072-1.729,1.775-2.912,1.775c-1.125,0-2.119-0.633-2.805-1.613
					c-0.686,0.98-1.681,1.613-2.805,1.613c-1.123,0-2.119-0.633-2.805-1.613c-0.686,0.98-1.681,1.613-2.805,1.613
					c-1.123,0-2.119-0.633-2.804-1.613c-0.686,0.98-1.682,1.613-2.805,1.613c-1.124,0-2.119-0.633-2.805-1.613
					c-0.686,0.98-1.681,1.613-2.805,1.613c-1.184,0-2.228-0.703-2.913-1.777c-0.133,0.613-0.217,1.244-0.273,1.883
					c0.041,0.432,0.108,0.855,0.185,1.275c0.028-0.166,0.054-0.334,0.089-0.498c0.686,1.074,1.729,1.777,2.913,1.777
					c1.124,0,2.119-0.631,2.805-1.613c0.686,0.982,1.681,1.613,2.805,1.613c1.123,0,2.119-0.631,2.805-1.613
					c0.685,0.982,1.681,1.613,2.804,1.613c1.124,0,2.119-0.631,2.805-1.613c0.686,0.982,1.682,1.613,2.805,1.613
					c1.124,0,2.119-0.631,2.805-1.613c0.686,0.982,1.68,1.613,2.805,1.613c1.184,0,2.227-0.703,2.912-1.775
					c0.036,0.162,0.059,0.33,0.088,0.496c0.078-0.42,0.143-0.846,0.186-1.277C64.373,33.283,64.289,32.654,64.156,32.043z"/>
				<path fill="#0793D1" d="M63.275,38.371c-0.583,0.482-1.278,0.768-2.031,0.768c-1.125,0-2.119-0.631-2.805-1.611
					c-0.686,0.98-1.681,1.611-2.805,1.611c-1.123,0-2.119-0.631-2.805-1.611c-0.686,0.98-1.681,1.611-2.805,1.611
					c-1.123,0-2.119-0.631-2.804-1.611c-0.686,0.98-1.682,1.611-2.805,1.611c-1.124,0-2.119-0.631-2.805-1.611
					c-0.686,0.98-1.681,1.611-2.805,1.611c-0.753,0-1.449-0.285-2.032-0.77c0.54,1.24,1.24,2.393,2.086,3.422
					c1.101-0.018,2.077-0.639,2.751-1.604c0.686,0.98,1.681,1.611,2.805,1.611c1.123,0,2.119-0.631,2.805-1.611
					c0.685,0.98,1.681,1.611,2.804,1.611c1.124,0,2.119-0.631,2.805-1.611c0.686,0.98,1.682,1.611,2.805,1.611
					c1.124,0,2.119-0.631,2.805-1.611c0.674,0.965,1.65,1.584,2.752,1.604C62.035,40.762,62.734,39.609,63.275,38.371z"/>
				<path fill="#0793D1" d="M58.439,42.848c-0.686,0.98-1.681,1.613-2.805,1.613c-1.123,0-2.119-0.633-2.805-1.613
					c-0.686,0.98-1.681,1.613-2.805,1.613c-1.123,0-2.119-0.633-2.804-1.613c-0.686,0.98-1.682,1.613-2.805,1.613
					c-1.124,0-2.119-0.633-2.805-1.613c-0.241,0.346-0.532,0.627-0.845,0.873c1.553,1.305,3.381,2.275,5.38,2.838
					c0.403-0.271,0.772-0.619,1.074-1.051c0.65,0.932,1.585,1.529,2.64,1.59c0.056,0,0.108,0.01,0.164,0.01
					c0.057,0,0.109-0.01,0.164-0.01c1.056-0.061,1.99-0.658,2.641-1.59c0.302,0.432,0.67,0.779,1.074,1.051
					c1.998-0.562,3.827-1.533,5.379-2.838C58.972,43.475,58.681,43.193,58.439,42.848z"/>
			</g>
			<g>
				<path fill="#10DDCD" d="M64.156,29.381c-0.062,0.1-0.133,0.191-0.201,0.283l0.211-0.211
					C64.163,29.43,64.161,29.406,64.156,29.381z"/>
			</g>
		</g>
		<path fill="#0B3A60" d="M32.887,43.592h-4.508l3.875-4.939c0.842-1.076,1.328-1.984,1.328-3.438c0-2.805-2.433-5.084-5.426-5.084
			c-2.992,0-5.426,2.279-5.426,5.084c0,1.26,0.501,2.412,1.319,3.305l2.108-2.775c-0.047-0.168-0.078-0.344-0.078-0.529
			c0-1.121,0.912-2.035,2.034-2.035c1.115,0,2.056,0.932,2.056,2.035c0,0.465-0.173,0.893-0.449,1.238l-2.761,3.721
			c0,0,0.016,0.004,0.024,0.006l-4.24,5.49c-0.137,0.178-0.162,0.418-0.062,0.621c0.101,0.199,0.305,0.328,0.529,0.328h9.676
			c0.325,0,0.59-0.264,0.59-0.59v-1.85C33.477,43.855,33.212,43.592,32.887,43.592z"/>
	</g>
	<path fill="#115989" d="M20.423,19.369c0-0.568-0.459-1.027-1.026-1.027h-3.821c-0.567,0-1.025,0.459-1.025,1.027v10.25H6.374
		v-10.25c0-0.568-0.459-1.027-1.025-1.027H1.527c-0.567,0-1.027,0.459-1.027,1.027v26.223c0,0.568,0.46,1.027,1.027,1.027h1.435
		l3.412-3.412v-8.164h8.163l5.886-5.885V19.369z"/>
</g>
</svg>
