<?xml version="1.0" encoding="utf-8"?>
<!-- Generator: Adobe Illustrator 16.0.0, SVG Export Plug-In . SVG Version: 6.00 Build 0)  -->
<!DOCTYPE svg PUBLIC "-//W3C//DTD SVG 1.1//EN" "http://www.w3.org/Graphics/SVG/1.1/DTD/svg11.dtd">
<svg version="1.1" id="Layer_1" xmlns="http://www.w3.org/2000/svg" xmlns:xlink="http://www.w3.org/1999/xlink" x="0px" y="0px"
	 width="64px" height="64px" viewBox="0 0 64 64" enable-background="new 0 0 64 64" xml:space="preserve">
<g>
	<path fill="#CE1906" d="M30.5,32.5c-0.8,0-1.5,0.7-1.5,1.5v5.4c-1,0.1-1,0.3-1,0.5v-3.8c0-0.8-0.6-1.5-1.5-1.5
		c-0.2,0-0.5,0-0.5,0.1v-1.4c0-0.8-0.7-1.5-1.5-1.5c-0.2,0-0.5,0-0.5,0.1v-1.5c0-0.8-0.7-1.5-1.5-1.5c-0.5,0-1,0.3-1.2,0.6
		c-0.3-0.3-0.5-0.5-0.9-0.5c-0.8,0-1.3,0.7-1.3,1.5v9.6c-1-0.2-0.8-0.3-1.2-0.3c-0.2,0-0.8,0-0.8,0.1v-5.5c0-0.8-0.5-1.5-1.4-1.5
		C15.3,33,15,33,15,33.2v-3.6c0-0.8-0.7-1.5-1.5-1.5S12,28.8,12,29.6v0c0-0.3-0.7-0.4-1.1-0.4c-0.3,0-0.9,0.1-0.9,0.3v-9.6
		c0-0.8-0.7-1.5-1.5-1.5S7,19,7,19.8v4.7c0-0.5-0.8-0.8-1.4-0.8c-0.8,0-1.6,0.7-1.6,1.5V40c0,0.8,0.7,1.5,1.5,1.5S7,40.8,7,40v-4.7
		c1,0.5,0.7,0.8,1.2,0.8c0.3,0,0.8-0.1,0.8-0.3v9.6c0,0.8,0.7,1.5,1.5,1.5s1.5-0.7,1.5-1.5v0c1,0.3,0.7,0.4,1.2,0.4
		c0.3,0,0.8-0.1,0.8-0.2v3.6c0,0.8,0.6,1.5,1.5,1.5c0.2,0,0.5,0,0.5-0.1v5.5c0,0.8,0.7,1.5,1.5,1.5s1.5-0.7,1.5-1.5v-9.6
		c1,0.2,0.7,0.3,1,0.3c0.5,0,1-0.3,1.3-0.6c0.3,0.3,0.7,0.5,1.1,0.5c0.2,0,0.5,0,0.5-0.1v1.5c0,0.8,0.6,1.5,1.5,1.5
		c0.2,0,0.5,0,0.5-0.1V51c0,0.8,0.8,1.5,1.7,1.5c0.5,0,0.3-0.2,1.3-0.6v3.8c0,0.8,0.7,1.5,1.5,1.5s1.5-0.7,1.5-1.5v-5.4
		c0-0.2,1-0.8,1-1.4V34C32,33.2,31.3,32.5,30.5,32.5z"/>
	<path fill="#960E08" d="M30.5,30.2c-0.8,0-1.5,0.7-1.5,1.5v5.4c-1,0.1-1,0.3-1,0.5v-3.8c0-0.8-0.6-1.5-1.5-1.5
		c-0.2,0-0.5,0-0.5,0.1V31c0-0.8-0.7-1.5-1.5-1.5c-0.2,0-0.5,0-0.5,0.1v-1.5c0-0.8-0.7-1.5-1.5-1.5c-0.5,0-1,0.3-1.2,0.6
		c-0.3-0.3-0.5-0.5-0.9-0.5c-0.8,0-1.3,0.7-1.3,1.5v9.6c-1-0.2-0.8-0.3-1.2-0.3c-0.2,0-0.8,0-0.8,0.1v-5.5c0-0.8-0.5-1.5-1.4-1.5
		c-0.3,0-0.6,0.1-0.6,0.2v-3.6c0-0.8-0.7-1.5-1.5-1.5S12,26.4,12,27.3v0c0-0.3-0.7-0.4-1.1-0.4c-0.3,0-0.9,0.1-0.9,0.3v-9.6
		c0-0.8-0.7-1.5-1.5-1.5S7,16.7,7,17.5v4.7c0-0.5-0.8-0.8-1.4-0.8C4.8,21.3,4,22,4,22.8v14.8c0,0.8,0.7,1.5,1.5,1.5S7,38.5,7,37.7
		V33c1,0.5,0.7,0.8,1.2,0.8c0.3,0,0.8-0.1,0.8-0.3v9.6c0,0.8,0.7,1.5,1.5,1.5S12,44,12,43.2v0c1,0.3,0.7,0.4,1.2,0.4
		c0.3,0,0.8-0.1,0.8-0.2V47c0,0.8,0.6,1.5,1.5,1.5c0.2,0,0.5,0,0.5-0.1v5.5c0,0.8,0.7,1.5,1.5,1.5s1.5-0.7,1.5-1.5v-9.6
		c1,0.2,0.7,0.3,1,0.3c0.5,0,1-0.3,1.3-0.6c0.3,0.3,0.7,0.5,1.1,0.5c0.2,0,0.5,0,0.5-0.1v1.5c0,0.8,0.6,1.5,1.5,1.5
		c0.2,0,0.5,0,0.5-0.1v1.4c0,0.8,0.8,1.5,1.7,1.5c0.5,0,0.3-0.2,1.3-0.6v3.8c0,0.8,0.7,1.5,1.5,1.5s1.5-0.7,1.5-1.5V48
		c0-0.2,1-0.8,1-1.4V31.7C32,30.9,31.3,30.2,30.5,30.2z"/>
	<g>
		<path fill="#065177" d="M62.2,51.4l-11-11l-1.1-1.1l-6.7-6.7l-3.1,3.1l3.5,3.5c0,0,0,0,0,0c-1.7,1.7-1.7,4.5,0,6.3l12.1,12.1
			c1.7,1.7,4.5,1.7,6.3,0C64,55.9,64,53.1,62.2,51.4z"/>
		<path fill="#102D35" d="M43.8,45.6l12.1,12.1c1.7,1.7,4.5,1.7,6.3,0c1.7-1.7,1.7-4.5,0-6.3l-11-11l-1.1-1.1"/>
		<path fill="#065177" d="M43.9,39.2"/>
		<path fill="#0B8AA8" d="M45.1,34.3L16.8,6L2,20.9l0.1,0.1c-1,1.5,4.2,8.7,11.8,16.3c7.6,7.6,14.9,12.8,16.3,11.8l0.1,0.1
			L45.1,34.3z"/>
		<polyline fill="#097B8E" points="30.2,49.1 30.3,49.1 45.1,34.3 16.8,6 		"/>
		<path fill="#ACE0E5" d="M2,20.9L2,20.9c-1,1.6,4.2,8.8,11.9,16.4c7.6,7.6,14.9,12.8,16.3,11.8l0.1,0.1l5.7-5.7L7.6,15.2L2,20.9z"
			/>
		<polyline fill="#93C8D1" points="30.2,49.1 30.3,49.1 35.9,43.5 7.6,15.2 		"/>
		<circle fill="#CEEAED" cx="17" cy="11" r="1.6"/>
		<g>
			<circle fill="#FF9C39" cx="48.6" cy="44" r="1.2"/>
			<circle fill="#FF9C39" cx="53.2" cy="48.7" r="1.2"/>
			<circle fill="#FF9C39" cx="57.9" cy="53.3" r="1.2"/>
		</g>
	</g>
</g>
</svg>
