<?xml version="1.0" encoding="utf-8"?>
<!-- Generator: Adobe Illustrator 16.0.0, SVG Export Plug-In . SVG Version: 6.00 Build 0)  -->
<!DOCTYPE svg PUBLIC "-//W3C//DTD SVG 1.1//EN" "http://www.w3.org/Graphics/SVG/1.1/DTD/svg11.dtd">
<svg version="1.1" id="Layer_1" xmlns="http://www.w3.org/2000/svg" xmlns:xlink="http://www.w3.org/1999/xlink" x="0px" y="0px"
	 width="65px" height="65px" viewBox="0 0 65 65" enable-background="new 0 0 65 65" xml:space="preserve">
<g>
	<path fill="#1D8893" d="M28.887,21.5H24.43h-6.043l6.043,9.125v26.709c0,3.957,3.209,7.166,7.166,7.166H56.68
		c3.959,0,7.166-3.209,7.166-7.166V21.5H28.887z"/>
	<g>
		<g>
			<path fill="#8DC6D3" d="M44.07,59.418L29.734,36.746V3.842c0-3.279-2.658-3.342-5.936-3.342h-1.859
				c-3.277,0-5.936,0.062-5.936,3.342V36.74l0.004,0.001L1.668,59.418c-0.646,1.02-0.686,2.311-0.102,3.368
				c0.582,1.058,1.693,1.714,2.9,1.714h36.805c1.207,0,2.318-0.656,2.9-1.714C44.756,61.729,44.717,60.438,44.07,59.418z"/>
			<path fill="#ABD3DD" d="M29.734,40.877V3.842c0-3.279-2.658-3.342-5.936-3.342h-1.859c-3.277,0-5.936,0.062-5.936,3.342V36.74
				L29.734,40.877z"/>
			<path fill="#8DC6D3" d="M29.734,40.877V3.842c0-3.279-2.658-3.342-5.936-3.342h-1.859v40.377H29.734z"/>
			<path fill="#4BBAC6" d="M44.172,62.786c0.584-1.058,0.545-2.348-0.102-3.368L29.734,36.746V21.5h-0.848H24.43h-6.043l6.043,9.125
				v26.709c0,3.957,3.209,7.166,7.166,7.166h9.676C42.479,64.5,43.59,63.844,44.172,62.786z"/>
			<polygon fill="#39ACB2" points="21.939,21.5 18.387,21.5 21.939,26.863 			"/>
			<g>
				<path fill="#8DC6D3" d="M29.104,16.721l0.631-0.631V3.842c0-3.279-2.658-3.342-5.936-3.342h-1.859
					c-3.203,0-5.797,0.08-5.914,3.144L29.104,16.721z"/>
				<path fill="#C4E3E8" d="M32.146,1.983c0,0.818-0.662,1.485-1.482,1.485h-15.59c-0.82,0-1.482-0.667-1.482-1.485l0,0
					c0-0.818,0.662-1.483,1.482-1.483h15.59C31.484,0.5,32.146,1.165,32.146,1.983L32.146,1.983z"/>
				<path fill="#ABD3DD" d="M32.146,1.983L32.146,1.983c0,0.818-0.662,1.485-1.482,1.485h-15.59c-0.82,0-1.482-0.667-1.482-1.485
					l0,0"/>
				<g>
					<path fill="#C4E3E8" d="M23.488,9.935c0,0.206-0.168,0.37-0.371,0.37H18.17c-0.205,0-0.373-0.164-0.373-0.37l0,0
						c0-0.205,0.168-0.372,0.373-0.372h4.947C23.32,9.562,23.488,9.729,23.488,9.935L23.488,9.935z"/>
					<path fill="#C4E3E8" d="M20.52,12.778c0,0.205-0.168,0.372-0.371,0.372H18.17c-0.205,0-0.373-0.167-0.373-0.372l0,0
						c0-0.206,0.168-0.371,0.373-0.371h1.979C20.352,12.407,20.52,12.572,20.52,12.778L20.52,12.778z"/>
				</g>
				<g>
					<path fill="#C4E3E8" d="M23.488,15.501c0,0.205-0.168,0.372-0.371,0.372H18.17c-0.205,0-0.373-0.167-0.373-0.372l0,0
						c0-0.206,0.168-0.371,0.373-0.371h4.947C23.32,15.13,23.488,15.295,23.488,15.501L23.488,15.501z"/>
					<path fill="#C4E3E8" d="M20.52,18.346c0,0.207-0.168,0.372-0.371,0.372H18.17c-0.205,0-0.373-0.165-0.373-0.372l0,0
						c0-0.205,0.168-0.371,0.373-0.371h1.979C20.352,17.975,20.52,18.141,20.52,18.346L20.52,18.346z"/>
				</g>
				<g>
					<path fill="#C4E3E8" d="M23.488,21.068c0,0.205-0.168,0.372-0.371,0.372H18.17c-0.205,0-0.373-0.167-0.373-0.372l0,0
						c0-0.205,0.168-0.37,0.373-0.37h4.947C23.32,20.698,23.488,20.863,23.488,21.068L23.488,21.068z"/>
					<path fill="#C4E3E8" d="M20.52,23.913c0,0.206-0.168,0.371-0.371,0.371H18.17c-0.205,0-0.373-0.165-0.373-0.371l0,0
						c0-0.206,0.168-0.37,0.373-0.37h1.979C20.352,23.543,20.52,23.707,20.52,23.913L20.52,23.913z"/>
				</g>
				<g>
					<path fill="#C4E3E8" d="M23.488,26.636c0,0.206-0.168,0.369-0.371,0.369H18.17c-0.205,0-0.373-0.163-0.373-0.369l0,0
						c0-0.205,0.168-0.372,0.373-0.372h4.947C23.32,26.264,23.488,26.431,23.488,26.636L23.488,26.636z"/>
					<path fill="#C4E3E8" d="M20.52,29.479c0,0.206-0.168,0.373-0.371,0.373H18.17c-0.205,0-0.373-0.167-0.373-0.373l0,0
						c0-0.205,0.168-0.372,0.373-0.372h1.979C20.352,29.106,20.52,29.273,20.52,29.479L20.52,29.479z"/>
				</g>
				<g>
					<path fill="#C4E3E8" d="M23.488,32.201c0,0.206-0.168,0.373-0.371,0.373H18.17c-0.205,0-0.373-0.167-0.373-0.373l0,0
						c0-0.205,0.168-0.372,0.373-0.372h4.947C23.32,31.829,23.488,31.996,23.488,32.201L23.488,32.201z"/>
					<path fill="#C4E3E8" d="M20.52,35.045c0,0.207-0.168,0.373-0.371,0.373H18.17c-0.205,0-0.373-0.166-0.373-0.373l0,0
						c0-0.204,0.168-0.369,0.373-0.369h1.979C20.352,34.676,20.52,34.841,20.52,35.045L20.52,35.045z"/>
				</g>
			</g>
			<g>
				<path fill="#39ACB2" d="M44.07,59.418L29.734,36.746v4.131H24.43v16.457c0,3.957,3.209,7.166,7.166,7.166h9.676
					c1.207,0,2.318-0.656,2.9-1.714C44.756,61.729,44.717,60.438,44.07,59.418z"/>
			</g>
		</g>
		<path fill="#075DA3" d="M1.668,59.418c-0.646,1.02-0.686,2.311-0.102,3.368c0.582,1.058,1.693,1.714,2.9,1.714h36.805
			c1.207,0,2.318-0.656,2.9-1.714c0.584-1.058,0.545-2.348-0.102-3.368l-6.309-9.979H7.979L1.668,59.418z"/>
		<path fill="#004884" d="M4.467,64.5h36.805c1.207,0,2.318-0.656,2.9-1.714c0.584-1.058,0.545-2.348-0.102-3.368l-6.309-9.979"/>
		<path fill="#023E66" d="M44.07,59.418l-6.311-9.979H24.43v7.896c0,3.957,3.209,7.166,7.166,7.166h9.676
			c1.207,0,2.318-0.656,2.9-1.714C44.756,61.729,44.717,60.438,44.07,59.418z"/>
		<path fill="#012638" d="M44.07,59.418l-6.311-9.979l-13.33,6.029v1.865c0,3.957,3.209,7.166,7.166,7.166h9.676
			c1.207,0,2.318-0.656,2.9-1.714C44.756,61.729,44.717,60.438,44.07,59.418z"/>
		<polygon fill="#078EEA" points="37.762,49.438 7.979,49.438 6.607,51.606 39.133,51.606 		"/>
		<polygon fill="#075DA3" points="39.131,51.606 37.76,49.438 24.43,49.438 24.43,51.606 		"/>
		<polygon fill="#C4E3E8" points="10.529,48.335 16.68,38.635 17.705,40.055 		"/>
	</g>
	<g>
		<path fill="#39ACB2" d="M54.738,26.9c0,0.395-0.322,0.709-0.711,0.709h-9.484c-0.395,0-0.715-0.314-0.715-0.709l0,0
			c0-0.394,0.32-0.713,0.715-0.713h9.484C54.416,26.188,54.738,26.507,54.738,26.9L54.738,26.9z"/>
		<path fill="#39ACB2" d="M49.047,32.352c0,0.394-0.322,0.714-0.711,0.714h-3.793c-0.395,0-0.715-0.32-0.715-0.714l0,0
			c0-0.395,0.32-0.711,0.715-0.711h3.793C48.725,31.641,49.047,31.957,49.047,32.352L49.047,32.352z"/>
	</g>
	<g>
		<path fill="#39ACB2" d="M54.738,37.571c0,0.394-0.322,0.713-0.711,0.713h-9.484c-0.395,0-0.715-0.319-0.715-0.713l0,0
			c0-0.396,0.32-0.712,0.715-0.712h9.484C54.416,36.859,54.738,37.176,54.738,37.571L54.738,37.571z"/>
		<path fill="#39ACB2" d="M49.047,43.024c0,0.397-0.322,0.714-0.711,0.714h-3.793c-0.395,0-0.715-0.316-0.715-0.714l0,0
			c0-0.393,0.32-0.711,0.715-0.711h3.793C48.725,42.313,49.047,42.632,49.047,43.024L49.047,43.024z"/>
	</g>
	<g>
		<path fill="#39ACB2" d="M54.738,48.244c0,0.393-0.322,0.713-0.711,0.713h-9.484c-0.395,0-0.715-0.32-0.715-0.713l0,0
			c0-0.394,0.32-0.71,0.715-0.71h9.484C54.416,47.534,54.738,47.851,54.738,48.244L54.738,48.244z"/>
		<path fill="#39ACB2" d="M49.047,53.697c0,0.396-0.322,0.712-0.711,0.712h-3.793c-0.395,0-0.715-0.316-0.715-0.712l0,0
			c0-0.395,0.32-0.709,0.715-0.709h3.793C48.725,52.988,49.047,53.303,49.047,53.697L49.047,53.697z"/>
	</g>
</g>
</svg>
