<?xml version="1.0" encoding="utf-8"?>
<!-- Generator: Adobe Illustrator 16.0.0, SVG Export Plug-In . SVG Version: 6.00 Build 0)  -->
<!DOCTYPE svg PUBLIC "-//W3C//DTD SVG 1.1//EN" "http://www.w3.org/Graphics/SVG/1.1/DTD/svg11.dtd">
<svg version="1.1" id="Layer_1" xmlns="http://www.w3.org/2000/svg" xmlns:xlink="http://www.w3.org/1999/xlink" x="0px" y="0px"
	 width="64px" height="64px" viewBox="0 0 64 64" enable-background="new 0 0 64 64" xml:space="preserve">
<g>
	<path fill="#AF2564" d="M55.1,37.5c0,18.7-10.4,26.2-23.1,26.2c-12.8,0-23.1-7.5-23.1-26.2S19.2,0.3,32,0.3
		C44.8,0.3,55.1,18.8,55.1,37.5z"/>
	<path fill="#870E45" d="M32,0.3c12.8,0,23.1,18.4,23.1,37.1S44.8,63.7,32,63.7"/>
	<path fill="#35D9EF" d="M54.2,46.2l-17,17C45.4,61.7,51.9,56.5,54.2,46.2z"/>
	<path fill="#35D9EF" d="M27.5,63.3l27.6-27.6c-0.1-2.9-0.4-5.7-1-8.5L20.4,61.1C22.5,62.2,24.9,63,27.5,63.3z"/>
	<path fill="#1AB0D3" d="M27.5,63.3l27.6-27.6c-0.1-2.9-0.4-5.7-1-8.5"/>
	<path fill="#35D9EF" d="M15,56.9l37.1-37.1c-0.8-2.3-1.8-4.5-2.9-6.5L11.3,51.1C12.3,53.3,13.5,55.3,15,56.9z"/>
	<path fill="#1AB0D3" d="M15,56.9l37.1-37.1c-0.8-2.3-1.8-4.5-2.9-6.5"/>
	<path fill="#35D9EF" d="M40.4,3.1L9,34.5c-0.1,1-0.1,2-0.1,3c0,2.2,0.1,4.2,0.4,6.1l36-36C43.8,5.8,42.1,4.2,40.4,3.1z"/>
	<path fill="#1AB0D3" d="M8.9,37.5c0,2.2,0.1,4.2,0.4,6.1l36-36c-1.5-1.8-3.2-3.3-4.9-4.5"/>
	<path fill="#35D9EF" d="M33.5,0.4c-0.5-0.1-1-0.1-1.4-0.1c-9.4,0-17.4,9.9-21.1,22.6L33.5,0.4z"/>
	<path fill="#1AB0D3" d="M10.9,22.9L33.5,0.4c-0.5-0.1-1-0.1-1.4-0.1"/>
	<g>
		
			<ellipse transform="matrix(0.8357 0.5491 -0.5491 0.8357 9.9059 -9.1541)" opacity="0.7" fill="#F3FEFF" cx="20.3" cy="12" rx="3" ry="8.8"/>
		
			<ellipse transform="matrix(0.8357 0.5491 -0.5491 0.8357 9.4458 -8.7674)" opacity="0.6" fill="#F3FEFF" cx="19.4" cy="11.4" rx="2" ry="5.7"/>
		
			<ellipse transform="matrix(0.9676 0.2526 -0.2526 0.9676 7.1084 -2.437)" opacity="0.7" fill="#F3FEFF" cx="13" cy="26.5" rx="1.4" ry="4"/>
		<path opacity="0.3" fill="#757575" d="M32,0.3c12.8,0,23.1,18.4,23.1,37.1S44.8,63.7,32,63.7"/>
	</g>
</g>
</svg>
