<?xml version="1.0" encoding="utf-8"?>
<!-- Generator: Adobe Illustrator 16.0.0, SVG Export Plug-In . SVG Version: 6.00 Build 0)  -->
<!DOCTYPE svg PUBLIC "-//W3C//DTD SVG 1.1//EN" "http://www.w3.org/Graphics/SVG/1.1/DTD/svg11.dtd">
<svg version="1.1" id="Layer_1" xmlns="http://www.w3.org/2000/svg" xmlns:xlink="http://www.w3.org/1999/xlink" x="0px" y="0px"
	 width="64px" height="64px" viewBox="0 0 64 64" enable-background="new 0 0 64 64" xml:space="preserve">
<g>
	<g>
		<g>
			<g>
				<g>
					<g>
						<circle fill="#063F66" cx="34" cy="32.6" r="27.1"/>
						<path fill="#022730" d="M14.8,13.4c10.6-10.6,27.7-10.6,38.3,0s10.6,27.7,0,38.3"/>
					</g>
				</g>
			</g>
		</g>
		<g>
			<g>
				<g>
					<path fill="#5EE0EA" d="M25.6,52.7c0,0.5-0.5,1-1,1c-0.6,0-1-0.4-1-1s0.5-2.1,1-2.1C25.1,50.6,25.6,52.2,25.6,52.7z"/>
					<path fill="#30B9D8" d="M24.6,50.6c0.6,0,1,1.6,1,2.1s-0.5,1-1,1"/>
				</g>
				<g>
					<path fill="#5EE0EA" d="M30.2,52.7c0,0.5-0.5,1-1,1c-0.6,0-1-0.4-1-1s0.5-2.1,1-2.1C29.7,50.6,30.2,52.2,30.2,52.7z"/>
					<path fill="#30B9D8" d="M29.2,50.6c0.6,0,1,1.6,1,2.1s-0.5,1-1,1"/>
				</g>
				<g>
					<path fill="#5EE0EA" d="M34.8,52.7c0,0.5-0.5,1-1,1c-0.6,0-1-0.4-1-1s0.5-2.1,1-2.1C34.3,50.6,34.8,52.2,34.8,52.7z"/>
					<path fill="#30B9D8" d="M33.8,50.6c0.6,0,1,1.6,1,2.1s-0.5,1-1,1"/>
				</g>
				<g>
					<path fill="#5EE0EA" d="M39.4,52.7c0,0.5-0.5,1-1,1c-0.6,0-1-0.4-1-1s0.5-2.1,1-2.1C38.9,50.6,39.4,52.2,39.4,52.7z"/>
					<path fill="#30B9D8" d="M38.4,50.6c0.6,0,1,1.6,1,2.1s-0.5,1-1,1"/>
				</g>
				<g>
					<path fill="#5EE0EA" d="M44,52.7c0,0.5-0.5,1-1,1c-0.6,0-1-0.4-1-1s0.5-2.1,1-2.1C43.5,50.6,44,52.2,44,52.7z"/>
					<path fill="#30B9D8" d="M43,50.6c0.6,0,1,1.6,1,2.1s-0.5,1-1,1"/>
				</g>
			</g>
			<g>
				<g>
					<path fill="#5EE0EA" d="M25.6,57.5c0,0.5-0.5,1-1,1c-0.6,0-1-0.4-1-1c0-0.5,0.5-2.1,1-2.1C25.1,55.4,25.6,57,25.6,57.5z"/>
					<path fill="#30B9D8" d="M24.6,55.4c0.6,0,1,1.6,1,2.1c0,0.5-0.5,1-1,1"/>
				</g>
				<g>
					<path fill="#5EE0EA" d="M30.2,57.5c0,0.5-0.5,1-1,1c-0.6,0-1-0.4-1-1c0-0.5,0.5-2.1,1-2.1C29.7,55.4,30.2,57,30.2,57.5z"/>
					<path fill="#30B9D8" d="M29.2,55.4c0.6,0,1,1.6,1,2.1c0,0.5-0.5,1-1,1"/>
				</g>
				<g>
					<path fill="#5EE0EA" d="M34.8,57.5c0,0.5-0.5,1-1,1c-0.6,0-1-0.4-1-1c0-0.5,0.5-2.1,1-2.1C34.3,55.4,34.8,57,34.8,57.5z"/>
					<path fill="#30B9D8" d="M33.8,55.4c0.6,0,1,1.6,1,2.1c0,0.5-0.5,1-1,1"/>
				</g>
				<g>
					<path fill="#5EE0EA" d="M39.4,57.5c0,0.5-0.5,1-1,1c-0.6,0-1-0.4-1-1c0-0.5,0.5-2.1,1-2.1C38.9,55.4,39.4,57,39.4,57.5z"/>
					<path fill="#30B9D8" d="M38.4,55.4c0.6,0,1,1.6,1,2.1c0,0.5-0.5,1-1,1"/>
				</g>
				<g>
					<path fill="#5EE0EA" d="M44,57.5c0,0.5-0.5,1-1,1c-0.6,0-1-0.4-1-1c0-0.5,0.5-2.1,1-2.1C43.5,55.4,44,57,44,57.5z"/>
					<path fill="#30B9D8" d="M43,55.4c0.6,0,1,1.6,1,2.1c0,0.5-0.5,1-1,1"/>
				</g>
			</g>
			<g>
				<g>
					<path fill="#5EE0EA" d="M25.6,62.4c0,0.5-0.5,1-1,1c-0.6,0-1-0.4-1-1c0-0.5,0.5-2.1,1-2.1C25.1,60.3,25.6,61.9,25.6,62.4z"/>
					<path fill="#30B9D8" d="M24.6,60.3c0.6,0,1,1.6,1,2.1c0,0.5-0.5,1-1,1"/>
				</g>
				<g>
					<path fill="#5EE0EA" d="M30.2,62.4c0,0.5-0.5,1-1,1c-0.6,0-1-0.4-1-1c0-0.5,0.5-2.1,1-2.1C29.7,60.3,30.2,61.9,30.2,62.4z"/>
					<path fill="#30B9D8" d="M29.2,60.3c0.6,0,1,1.6,1,2.1c0,0.5-0.5,1-1,1"/>
				</g>
				<g>
					<path fill="#5EE0EA" d="M34.8,62.4c0,0.5-0.5,1-1,1c-0.6,0-1-0.4-1-1c0-0.5,0.5-2.1,1-2.1C34.3,60.3,34.8,61.9,34.8,62.4z"/>
					<path fill="#30B9D8" d="M33.8,60.3c0.6,0,1,1.6,1,2.1c0,0.5-0.5,1-1,1"/>
				</g>
				<g>
					<path fill="#5EE0EA" d="M39.4,62.4c0,0.5-0.5,1-1,1c-0.6,0-1-0.4-1-1c0-0.5,0.5-2.1,1-2.1C38.9,60.3,39.4,61.9,39.4,62.4z"/>
					<path fill="#30B9D8" d="M38.4,60.3c0.6,0,1,1.6,1,2.1c0,0.5-0.5,1-1,1"/>
				</g>
				<g>
					<path fill="#5EE0EA" d="M44,62.4c0,0.5-0.5,1-1,1c-0.6,0-1-0.4-1-1c0-0.5,0.5-2.1,1-2.1C43.5,60.3,44,61.9,44,62.4z"/>
					<path fill="#30B9D8" d="M43,60.3c0.6,0,1,1.6,1,2.1c0,0.5-0.5,1-1,1"/>
				</g>
			</g>
		</g>
		<g>
			<path fill="#DCF9F6" d="M53,30.5c0-6.9-5.6-12.4-12.4-12.4c-4.8,0-9,2.8-11.1,6.8c-0.5-0.1-0.9-0.2-1.4-0.2
				c-3.2,0-5.9,2.6-5.9,5.9c0,0.1,0.2,0.3,0.2,0.4c-4.3,0.4-6.4,4.2-6.4,8.7v0.6c0,4.8,3.6,8.7,8.4,8.7h19.8c4.8,0,8.8-3.9,8.8-8.7
				v-2.8C53,35.3,53,32.8,53,30.5z"/>
			<path fill="#BDE5E1" d="M53,32.1c0-6.9-5.6-12.4-12.4-12.4c-4.8,0-9,2.8-11.1,6.8c-0.5-0.1-0.9-0.2-1.4-0.2
				c-3.2,0-5.9,2.6-5.9,5.9c0,0.1,0.2,0.3,0.2,0.4c-4.3,0.4-6.4,2.5-6.4,7v0.6c0,4.8,3.6,8.7,8.4,8.7h19.8c4.8,0,8.8-3.9,8.8-8.7
				v-2.8C53,35.3,53,34.5,53,32.1z"/>
			<path fill="#B1DDD9" d="M24,49h20.2c4.8,0,8.8-3.9,8.8-8.7v-2.8c0-2.2-0.2-3.1-0.2-5.4"/>
			<path fill="#98D3CD" d="M22.2,32.3"/>
			<path fill="#DCF9F6" d="M35.2,32.3c-0.4-0.1-0.8-0.2-1.2-0.2c-2.3,0-4.1,1.9-4.1,4.2c0,0.4,0.1,0.8,0.2,1.2
				C30.4,34.7,32.5,32.6,35.2,32.3z"/>
			<path fill="#DCF9F6" d="M42.4,28.5c-0.5-0.2-1-0.4-1.5-0.5c-3.1-0.6-6,1.5-6.6,4.6c-0.1,0.5-0.1,1.1,0,1.6
				C35.3,30.6,38.7,28.3,42.4,28.5z"/>
			<circle fill="#B1DDD9" cx="19.9" cy="39.1" r="0.4"/>
			<circle fill="#B1DDD9" cx="21" cy="35.9" r="0.6"/>
			<circle fill="#B1DDD9" cx="28.1" cy="30" r="0.3"/>
			<circle fill="#DCF9F6" cx="33.9" cy="26.8" r="0.6"/>
			<circle fill="#DCF9F6" cx="38.7" cy="21.7" r="0.3"/>
			<circle fill="#DCF9F6" cx="41.5" cy="22.7" r="0.9"/>
		</g>
	</g>
	<path fill="#B0D1CF" d="M16.8,8.5c0-2.8,0.9-5.4,2.3-7.6c-0.8-0.1-1.6-0.2-2.5-0.2C9.1,0.6,3,6.8,3,14.3C3,21.9,9.1,28,16.6,28
		c4.7,0,8.9-2.4,11.4-6.1C21.6,20.7,16.8,15.2,16.8,8.5z"/>
	<path fill="#7CA09C" d="M16.8,8.5c0-2.8,0.9-5.4,2.3-7.6c-0.8-0.1-1.6-0.2-2.5-0.2C9.1,0.6,5.9,6.8,5.9,14.3
		C5.9,21.9,9.1,28,16.6,28c4.7,0,8.9-2.4,11.4-6.1C21.6,20.7,16.8,15.2,16.8,8.5z"/>
	<g>
		<ellipse fill="#DCF9F6" cx="31.8" cy="12" rx="0.2" ry="2.3"/>
		<ellipse fill="#DCF9F6" cx="31.8" cy="12" rx="2.3" ry="0.2"/>
	</g>
	<g>
		<ellipse fill="#DCF9F6" cx="46.6" cy="14.6" rx="0.1" ry="1"/>
		<ellipse fill="#DCF9F6" cx="46.6" cy="14.6" rx="1" ry="0.1"/>
	</g>
	<g>
		
			<ellipse transform="matrix(0.7029 -0.7113 0.7113 0.7029 -4.0174 23.6096)" fill="#DCF9F6" cx="26.3" cy="16.6" rx="0.1" ry="1.1"/>
		
			<ellipse transform="matrix(0.7029 0.7113 -0.7113 0.7029 19.6174 -13.7373)" fill="#DCF9F6" cx="26.3" cy="16.6" rx="0.1" ry="1.1"/>
	</g>
	<g>
		
			<ellipse transform="matrix(0.7154 0.6987 -0.6987 0.7154 20.8218 -23.9154)" fill="#DCF9F6" cx="39.8" cy="13.6" rx="0.1" ry="0.5"/>
		<path fill="#DCF9F6" d="M39.7,13.6c-0.2-0.2-0.4-0.4-0.3-0.4C39.4,13.2,39.6,13.3,39.7,13.6c0.3,0.1,0.4,0.3,0.4,0.3
			S39.9,13.9,39.7,13.6z"/>
	</g>
</g>
</svg>
