<?xml version="1.0" encoding="utf-8"?>
<!-- Generator: Adobe Illustrator 16.0.0, SVG Export Plug-In . SVG Version: 6.00 Build 0)  -->
<!DOCTYPE svg PUBLIC "-//W3C//DTD SVG 1.1//EN" "http://www.w3.org/Graphics/SVG/1.1/DTD/svg11.dtd">
<svg version="1.1" id="Layer_1" xmlns="http://www.w3.org/2000/svg" xmlns:xlink="http://www.w3.org/1999/xlink" x="0px" y="0px"
	 width="64px" height="64px" viewBox="0 0 64 64" enable-background="new 0 0 64 64" xml:space="preserve">
<g>
	<g>
		<path fill="#EF4D4D" d="M51.3,40.5L44,33V15.1c0-4.7-4.1-8.1-8.8-8.1H22.8c-4.7,0-8.8,3.4-8.8,8.1v22.1c0,0.3,0.2,0.6,0.2,0.9
			c-0.3,2.9,0.8,5.9,3,8.1l14.1,14.1c4,4,10.4,4,14.3,0l5.6-5.5C55.2,50.9,55.3,44.5,51.3,40.5z"/>
		<path fill="#C92D2D" d="M31.4,60.3c4,4,10.4,4,14.3,0l5.5-5.5c4-4,4.1-10.4,0.2-14.3L44,33V15.1c0-4.7-4.1-8.1-8.8-8.1H22.8
			c-4.7,0-8.5,3.6-8.5,8.3"/>
		<path fill="#AF1E1E" d="M51.2,54.8c4-4,4.1-10.4,0.2-14.3L44,33V15.1c0-4.7-4.1-8.1-8.8-8.1H22.8c-4.7,0-8.5,3.6-8.5,8.3"/>
		<path fill="#890909" d="M51.3,40.5L44,33V15.1c0-4.7-4.1-8.1-8.8-8.1H22.8c-4.7,0-8.4,3.6-8.4,8.3"/>
		<path fill="#E4F4F2" d="M48.2,9.5c0,4.7-1.2,8.5-5.9,8.5H15.8c-4.7,0-5.9-3.8-5.9-8.5l0,0c0-4.7,3.8-8.5,8.5-8.5h21.4
			C44.4,1,48.2,4.8,48.2,9.5L48.2,9.5z"/>
		<path fill="#CEEDE9" d="M48.2,9.4L48.2,9.4c0,4.7-1.2,8.6-5.9,8.6H15.8c-4.7,0-5.9-3.9-5.9-8.6l0,0"/>
		<path fill="#F5FFFE" d="M21,4.5c0,1-1.1,1.8-2.5,1.8l0,0c-1.4,0-2.5-0.8-2.5-1.8V4.3c0-1,1.1-1.8,2.5-1.8l0,0
			c1.4,0,2.5,0.8,2.5,1.8V4.5z"/>
		<path fill="#F5FFFE" d="M42,4.5c0,1-1.1,1.8-2.5,1.8l0,0c-1.4,0-2.5-0.8-2.5-1.8V4.3c0-1,1.1-1.8,2.5-1.8l0,0
			c1.4,0,2.5,0.8,2.5,1.8V4.5z"/>
		<path fill="#F5FFFE" d="M31,4.1C31,4.6,30.6,5,30.1,5h-7.2C22.4,5,22,4.6,22,4.1V3.9C22,3.4,22.4,3,22.9,3h7.2
			C30.6,3,31,3.4,31,3.9V4.1z"/>
		<path fill="#F5FFFE" d="M34.7,3.6c0,0.3-0.3,0.6-0.6,0.6l0,0c-0.3,0-0.6-0.3-0.6-0.6l0,0c0-0.3,0.3-0.6,0.6-0.6l0,0
			C34.4,3,34.7,3.3,34.7,3.6L34.7,3.6z"/>
		<path fill="#30A078" d="M15,28.6c-0.3,0,0,0-1,0v8.6c0,0.3,0,0.9,0,0.9c-0.3,2.9,1,5.9,3.2,8.1l5.7,5.6C26,49.5,28,45.8,28,41.6
			C28,34.4,22.1,28.6,15,28.6z"/>
		<path fill="#308267" d="M23,51.9c3.1-2.4,5.2-6.1,5.2-10.3c0-7.2-5.8-13-13-13c-0.3,0-0.5,0-0.8,0"/>
		<path fill="#F7B0B0" d="M18,31.5c0,0.3-0.2,0.5-0.5,0.5l0,0c-0.3,0-0.5-0.2-0.5-0.5v-4c0-0.3,0.2-0.5,0.5-0.5l0,0
			c0.3,0,0.5,0.2,0.5,0.5V31.5z"/>
		<path fill="#F7B0B0" d="M29.2,46.9c0.2,0.2,0.2,0.6,0,0.8l0,0c-0.2,0.2-0.6,0.2-0.8,0L25.7,45c-0.2-0.2-0.2-0.6,0-0.8l0,0
			c0.2-0.2,0.6-0.2,0.8,0L29.2,46.9z"/>
		<path fill="#F7B0B0" d="M26.1,51.2c0.2,0.2,0.2,0.6,0,0.8l0,0c-0.2,0.2-0.6,0.2-0.8,0l-2.7-2.7c-0.2-0.2-0.2-0.6,0-0.8l0,0
			c0.2-0.2,0.6-0.2,0.8,0L26.1,51.2z"/>
		<path fill="#F7B0B0" d="M22.3,34c-0.3,0.2-0.6,0.1-0.8-0.1l0,0c-0.2-0.3-0.1-0.6,0.1-0.8l3.1-2.2c0.3-0.2,0.6-0.1,0.8,0.1l0,0
			c0.2,0.3,0.1,0.6-0.1,0.8L22.3,34z"/>
		<path fill="#F7B0B0" d="M26.1,39.5c-0.3,0.1-0.6,0-0.8-0.2l0,0c-0.1-0.3,0-0.6,0.2-0.8l3.4-1.8c0.3-0.1,0.6,0,0.8,0.2l0,0
			c0.1,0.3,0,0.6-0.2,0.8L26.1,39.5z"/>
		<path fill="#ABD6D0" d="M10.4,14c0.7,2,2.3,4,5.4,4h26.5c3,0,4.6-2,5.4-4H10.4z"/>
		<g>
			<circle fill="#ABD6D0" cx="19.2" cy="9.2" r="0.7"/>
			<circle fill="#ABD6D0" cx="24.1" cy="9.2" r="0.7"/>
			<circle fill="#ABD6D0" cx="29" cy="9.2" r="0.7"/>
			<circle fill="#ABD6D0" cx="33.9" cy="9.2" r="0.7"/>
			<circle fill="#ABD6D0" cx="38.8" cy="9.2" r="0.7"/>
		</g>
	</g>
	<circle fill="#EF4D4D" cx="34.4" cy="43.9" r="0.7"/>
	<circle fill="#EF4D4D" cx="39.1" cy="50" r="1.8"/>
	<circle fill="#EF4D4D" cx="44.1" cy="48.6" r="0.2"/>
	<circle fill="#EF4D4D" cx="33.6" cy="48.9" r="0.2"/>
	<circle fill="#EF4D4D" cx="37" cy="56.7" r="0.9"/>
	<circle fill="#EF4D4D" cx="31.6" cy="39.9" r="0.5"/>
	<circle fill="#EF4D4D" cx="45.1" cy="55.4" r="1"/>
</g>
</svg>
