<?xml version="1.0" encoding="utf-8"?>
<!-- Generator: Adobe Illustrator 16.0.0, SVG Export Plug-In . SVG Version: 6.00 Build 0)  -->
<!DOCTYPE svg PUBLIC "-//W3C//DTD SVG 1.1//EN" "http://www.w3.org/Graphics/SVG/1.1/DTD/svg11.dtd">
<svg version="1.1" id="Layer_1" xmlns="http://www.w3.org/2000/svg" xmlns:xlink="http://www.w3.org/1999/xlink" x="0px" y="0px"
	 width="64px" height="64px" viewBox="0 0 64 64" enable-background="new 0 0 64 64" xml:space="preserve">
<g>
	<g>
		<g>
			<g>
				<g>
					<g>
						<g>
							<circle fill="#06C67C" cx="32.4" cy="32" r="28.3"/>
							<path fill="#0FB57E" d="M12.4,12c11.1-11.1,29-11.1,40.1,0C63.5,23,63.5,41,52.5,52"/>
						</g>
					</g>
				</g>
			</g>
		</g>
	</g>
	<g>
		<path fill="#EEF4A6" d="M15.3,24.5c0-0.3-0.3-0.5-0.6-0.5H1.3c-0.3,0-0.6,0.2-0.6,0.5l0,0C0.8,24.8,1,25,1.3,25h13.4
			C15,25,15.3,24.8,15.3,24.5L15.3,24.5z"/>
		<path fill="#EEF4A6" d="M15.3,39.5c0-0.3-0.3-0.5-0.6-0.5H1.3c-0.3,0-0.6,0.2-0.6,0.5l0,0C0.8,39.8,1,40,1.3,40h13.4
			C15,40,15.3,39.8,15.3,39.5L15.3,39.5z"/>
	</g>
	<g>
		<g>
			<g>
				<path fill="#EEF4A6" d="M22.7,55.6c-4.3,0.1-7.9-3.3-8.1-7.6c-0.1-3.5,2.7-6.5,6.2-6.6c2.9-0.1,5.3,2.2,5.4,5.1
					c0.1,2.4-1.8,4.4-4.2,4.5c-2,0.1-3.7-1.5-3.7-3.5c0-0.4,0.3-0.7,0.7-0.8c0.4,0,0.7,0.3,0.8,0.7c0,1.2,1,2.1,2.2,2.1
					c1.6,0,2.9-1.4,2.8-3c-0.1-2.1-1.8-3.8-3.9-3.7c-2.7,0.1-4.9,2.4-4.8,5.1c0.1,3.5,3,6.3,6.6,6.2c4.5-0.1,8-3.9,7.9-8.4
					c-0.2-5.7-4.6-9.9-10.3-9.7c-0.4,0-1.1-0.7-1.1-1.1c0-0.4,0.7-0.9,1.1-0.9c6.5-0.2,11.6,5.1,11.8,11.7
					C32.2,51,28,55.4,22.7,55.6z"/>
			</g>
			<path fill="#EEF4A6" d="M21,35c0,0.4-0.3,1-0.7,1h-17c-0.4,0-1-0.3-1-1l0,0c0-0.7,0.6-1,1.1-1h17C20.6,34,21,34.6,21,35L21,35z"
				/>
		</g>
		<g>
			<g>
				<path fill="#EEF4A6" d="M22.7,8.4c-4.3-0.1-7.9,3.3-8.1,7.6c-0.1,3.5,2.7,6.5,6.2,6.6c2.9,0.1,5.3-2.2,5.4-5.1
					c0.1-2.4-1.8-4.4-4.2-4.5c-2-0.1-3.7,1.5-3.7,3.5c0,0.4,0.3,0.7,0.7,0.8c0.4,0,0.7-0.3,0.8-0.7c0-1.2,1-2.1,2.2-2.1
					c1.6,0,2.9,1.4,2.8,3c-0.1,2.1-1.8,3.8-3.9,3.7c-2.7-0.1-4.9-2.4-4.8-5.1c0.1-3.5,3-6.3,6.6-6.2c4.5,0.1,8,3.9,7.9,8.4
					c-0.2,5.7-4.6,9.9-10.3,9.7c-0.4,0-1.1,0.7-1.1,1.1s0.7,0.9,1.1,0.9c6.5,0.2,11.6-5.1,11.8-11.7C32.2,13,28,8.6,22.7,8.4z"/>
			</g>
			<path fill="#EEF4A6" d="M21,29c0-0.4-0.3-1-0.7-1h-17c-0.4,0-1,0.4-1,1l0,0c0,0.7,0.7,1,1.1,1l16.9,0C20.6,30,21,29.4,21,29
				L21,29z"/>
		</g>
	</g>
	<g>
		<circle fill="#EEF4A6" cx="11.6" cy="20.1" r="0.7"/>
		<circle fill="#EEF4A6" cx="11.6" cy="43.9" r="0.7"/>
	</g>
	<circle fill="#EEF4A6" cx="27.6" cy="32" r="0.7"/>
	<g>
		<path fill="#DCF9F6" d="M32,29.4C32,23.7,36.6,19,42.3,19c4.1,0,7.6,2.3,9.3,5.7c0.4-0.1,0.8-0.1,1.2-0.1c2.7,0,4.9,2.2,4.9,4.9
			c0,0.1-0.1,0.2-0.1,0.3c3.6,0.4,5.4,3.5,5.4,7.3v0.5c0,4.1-3.1,7.3-7.1,7.3H39.2c-4.1,0-7.2-3.3-7.2-7.3v-2.3
			C32,33.4,32,31.4,32,29.4z"/>
		<path fill="#BDE5E1" d="M32,30.8c0-5.8,4.6-10.4,10.4-10.4c4.1,0,7.6,2.3,9.3,5.7C52,26,52.4,26,52.8,26c2.7,0,4.9,2.2,4.9,4.9
			c0,0.1-0.1,0.2-0.1,0.3c3.6,0.4,5.4,2.1,5.4,5.9v0.5c0,4.1-3.1,7.3-7.1,7.3H39.2c-4.1,0-7.2-3.3-7.2-7.3v-2.3
			C32,33.4,32,32.8,32,30.8z"/>
		<path fill="#C8EDE8" d="M56,45H39.2c-4.1,0-7.2-3.3-7.2-7.3v-2.3c0-1.9,0-2.6,0-4.5"/>
		<path fill="#98D3CD" d="M57.7,30.9"/>
		<path fill="#DCF9F6" d="M46.8,30.9c0.3-0.1,0.6-0.2,1-0.2c1.9,0,3.5,1.6,3.5,3.5c0,0.3-0.1,0.7-0.2,1C50.9,33,49.1,31.2,46.8,30.9
			z"/>
		<path fill="#DCF9F6" d="M40.8,27.7c0.4-0.2,0.8-0.4,1.3-0.4c2.6-0.5,5.1,1.2,5.5,3.8c0.1,0.5,0.1,0.9,0,1.4
			C46.7,29.5,43.9,27.6,40.8,27.7z"/>
		<path fill="#B1DDD9" d="M59.4,36.6c0,0.2,0.2,0.3,0.3,0.3s0.3-0.2,0.3-0.3c0-0.2-0.2-0.3-0.3-0.3S59.4,36.4,59.4,36.6z"/>
		<circle fill="#B1DDD9" cx="58.8" cy="34" r="0.5"/>
		<circle fill="#B1DDD9" cx="52.8" cy="29" r="0.2"/>
		<path fill="#DCF9F6" d="M47.4,26.4c0,0.3,0.2,0.5,0.5,0.5c0.3,0,0.5-0.2,0.5-0.5c0-0.3-0.2-0.5-0.5-0.5
			C47.7,25.8,47.4,26.1,47.4,26.4z"/>
		<path fill="#DCF9F6" d="M43.6,22.1c0,0.1,0.1,0.3,0.3,0.3c0.1,0,0.3-0.1,0.3-0.3c0-0.1-0.1-0.3-0.3-0.3
			C43.7,21.8,43.6,21.9,43.6,22.1z"/>
		<circle fill="#DCF9F6" cx="41.5" cy="22.9" r="0.8"/>
	</g>
</g>
</svg>
