<?xml version="1.0" encoding="utf-8"?>
<!-- Generator: Adobe Illustrator 16.0.0, SVG Export Plug-In . SVG Version: 6.00 Build 0)  -->
<!DOCTYPE svg PUBLIC "-//W3C//DTD SVG 1.1//EN" "http://www.w3.org/Graphics/SVG/1.1/DTD/svg11.dtd">
<svg version="1.1" id="Layer_1" xmlns="http://www.w3.org/2000/svg" xmlns:xlink="http://www.w3.org/1999/xlink" x="0px" y="0px"
	 width="64px" height="64px" viewBox="0 0 64 64" enable-background="new 0 0 64 64" xml:space="preserve">
<g>
	<g>
		<g>
			<path fill="#515191" d="M53.6,19.6c0.4-0.7,0.8-1.3,1.3-1.9c-2.4-2.7-5.8-3.3-8.6-1.7l5.8,10.5C51.9,24.3,52.4,21.8,53.6,19.6z"
				/>
			<polygon fill="#3F3F72" points="54.9,31.6 54.9,31.6 54.9,31.6 			"/>
			<polygon fill="#3F3F72" points="54.9,31.6 54.9,31.6 54.9,31.6 			"/>
			<path fill="#3F3F72" d="M57.7,26.5l5.8-10.5c-2.8-1.5-6.2-1-8.6,1.7c0.5,0.5,0.9,1.1,1.3,1.9C57.4,21.8,57.9,24.3,57.7,26.5z"/>
		</g>
		<path fill="#3F3F72" d="M21.9,34.8c-3.3,1.6-4.3,6.2-1.6,11.5c2.6,5.3,8,9.3,11.2,7.6L21.9,34.8z"/>
		<path fill="#A6A6E2" d="M0.6,32c0,9,9.2,16.8,24.2,16.8c15,0,30.1-7.8,30.1-16.8H0.6z"/>
		<path fill="#8F8FCC" d="M2.4,32c0,9,8.9,16.2,23.4,16.2c14.5,0,29.1-7.2,29.1-16.2H2.4z"/>
		<path fill="#7B7BBA" d="M4.4,32c0,8,8.5,15.6,22.5,15.6c13.9,0,28-7.6,28-15.6H4.4z"/>
		<path fill="#6965A8" d="M6.4,32c0,8,8.2,15,21.6,15c13.4,0,26.9-7,26.9-15H6.4z"/>
		<path fill="#515191" d="M11,32c0,7,7.4,13.6,19.5,13.6S54.9,39,54.9,32H11z"/>
		<path fill="#3F3F72" d="M19.8,32c0,6,5.9,10.9,15.6,10.9c9.7,0,19.5-4.9,19.5-10.9H19.8z"/>
		<g>
			<path fill="#6965A8" d="M56.2,19.6c-0.4-0.7-0.8-1.3-1.3-1.9c-0.5,0.5-0.9,1.1-1.3,1.9c-1.2,2.1-1.7,4.7-1.5,6.9l2.8,5.1
				c0,0,0,0,0,0l0,0l2.8-5.1C57.9,24.3,57.4,21.8,56.2,19.6z"/>
		</g>
		<path fill="#515191" d="M29.2,34.8c-3,4.5-0.9,11.2,6.4,16c7.3,4.8,17.2,6,20.1,1.5L29.2,34.8z"/>
		<path fill="#3F3F72" d="M33.4,37.5c-2.1,3.1-0.6,7.7,4.4,11c5,3.3,11.8,4.2,13.9,1L33.4,37.5z"/>
		<circle fill="#FFFFFF" cx="17.4" cy="34.3" r="0.8"/>
		
			<rect x="15.3" y="19.2" transform="matrix(-0.7071 0.7071 -0.7071 -0.7071 45.0793 24.2533)" fill="#19DAF4" width="4.5" height="4.5"/>
		<g>
			<polyline fill="#0FBCD3" points="22,19 24,19 24,21 			"/>
			<polyline fill="#0FBCD3" points="13,24 11,24 11,27 			"/>
		</g>
		<polyline fill="#00899B" points="15.5,15.6 17.5,13.6 19.6,15.6 		"/>
		<polyline fill="#0FBCD3" points="16.1,10.3 17.5,8.9 18.9,10.3 		"/>
		<polyline fill="#00899B" points="16.1,29.6 17.5,28.2 18.9,29.6 		"/>
	</g>
	<g>
		<circle fill="#A6A6E2" cx="39.5" cy="35.2" r="0.8"/>
		<circle fill="#A6A6E2" cx="42.7" cy="35.2" r="0.8"/>
		<circle fill="#A6A6E2" cx="46" cy="35.2" r="0.8"/>
	</g>
</g>
</svg>
