<?xml version="1.0" encoding="utf-8"?>
<!-- Generator: Adobe Illustrator 16.0.0, SVG Export Plug-In . SVG Version: 6.00 Build 0)  -->
<!DOCTYPE svg PUBLIC "-//W3C//DTD SVG 1.1//EN" "http://www.w3.org/Graphics/SVG/1.1/DTD/svg11.dtd">
<svg version="1.1" id="Layer_1" xmlns="http://www.w3.org/2000/svg" xmlns:xlink="http://www.w3.org/1999/xlink" x="0px" y="0px"
	 width="64px" height="64px" viewBox="0 0 64 64" enable-background="new 0 0 64 64" xml:space="preserve">
<g>
	<g>
		<path fill="#AFEBF9" d="M63,50.6c-5-3.6-11.7-6.1-20.2-6.1C26.2,44.5,7.9,54,1,63h62V50.6z"/>
		<path fill="#77CCED" d="M1,63h62V50.6c-5-3.6-11.7-6.1-20.2-6.1"/>
	</g>
	<g>
		<path fill="#B5486D" d="M57.9,44.7c1.6,4.6-6.1,11.5-17.3,15.4c-11.2,3.9-21.5,3.4-23.1-1.2c-1.6-4.6,6.1-11.5,17.3-15.4
			C45.9,39.6,56.3,40.1,57.9,44.7z"/>
		<g>
			<path fill="#AFEBF9" d="M60.3,38c0,14.8-12,20.1-26.7,20.1C18.8,58,6.8,52.7,6.8,38s12-26.7,26.7-26.7
				C48.3,11.2,60.3,23.2,60.3,38z"/>
			<path fill="#77CCED" d="M59.3,35.5L60,34c-1.9-12.9-13-22.8-26.4-22.8c-5.8,0-11.1,1.8-15.5,4.9L59.3,35.5z"/>
			<path fill="#77CCED" d="M34,11.2v0.1C47,12.7,58.2,24.1,58.2,38S47,57.4,34,58V58c14,0,26.7-5.3,26.7-20.1S48,11.2,34,11.2z"/>
		</g>
		<g>
			<g>
				<g>
					<g>
						<g>
							<path fill="#00233F" d="M17.8,19.3c-1.5,0.1-2.7,0.8-2.7,1.5l5.5-0.3C20.5,19.7,19.3,19.2,17.8,19.3z"/>
						</g>
					</g>
					<g>
						<g>
							<path fill="#00233F" d="M35.8,19.3c1.5,0.1,2.7,0.8,2.7,1.5L33,20.4C33.1,19.7,34.3,19.2,35.8,19.3z"/>
						</g>
					</g>
				</g>
				<path fill="#E3FCFC" d="M16.8,31.4c-3.6,0-6.5,0.8-6.5,1.9c0,1,2.9,0.5,6.5,0.5c3.6,0,6.5,0.5,6.5-0.5
					C23.3,32.2,20.4,31.4,16.8,31.4z"/>
				<path fill="#E3FCFC" d="M36.8,31.4c-3.6,0-6.5,0.8-6.5,1.9c0,1,2.9,0.5,6.5,0.5c3.6,0,6.5,0.5,6.5-0.5
					C43.4,32.2,40.5,31.4,36.8,31.4z"/>
				<g>
					<path fill="#77CCED" d="M20.9,30.1c0,1.5-1.2,2.7-2.7,2.7c-1.5,0-2.7-1.2-2.7-2.7c0-1.5,1.2-2.7,2.7-2.7
						C19.7,27.4,20.9,28.6,20.9,30.1z"/>
					<circle fill="#77CCED" cx="35.7" cy="30.1" r="2.7"/>
					<path fill="#1E4784" d="M20.9,29.3c0,1.5-1.2,2.7-2.7,2.7c-1.5,0-2.7-1.2-2.7-2.7c0-1.5,1.2-2.7,2.7-2.7
						C19.7,26.6,20.9,27.8,20.9,29.3z"/>
					<path fill="#00233F" d="M18.3,26.6c1.5,0,2.7,1.2,2.7,2.7c0,1.5-1.2,2.7-2.7,2.7"/>
					<path fill="#1E4784" d="M38.3,29.3c0,1.5-1.2,2.7-2.7,2.7c-1.5,0-2.7-1.2-2.7-2.7c0-1.5,1.2-2.7,2.7-2.7
						C37.1,26.6,38.3,27.8,38.3,29.3z"/>
					<path fill="#00233F" d="M35.7,26.6c1.5,0,2.7,1.2,2.7,2.7c0,1.5-1.2,2.7-2.7,2.7"/>
				</g>
			</g>
		</g>
		<polygon fill="#E88813" points="28.9,37.6 23.4,43.2 4.3,37.6 23.4,32.1 		"/>
		<polygon fill="#C16705" points="28.9,37.6 23.4,43.2 4.3,37.6 22.5,38.2 		"/>
		<path fill="#0E5E8E" d="M26.9,49.5c0,1.7-0.8,3-1.8,3c-1,0-1.8-1.3-1.8-3s-0.2-3,0.9-3C25.1,46.5,26.9,47.8,26.9,49.5z"/>
		<path fill="#00233F" d="M23.3,49.5c0-1.7-0.2-3,0.9-3c1,0,2.8,1.3,2.8,3"/>
		<g>
			
				<ellipse transform="matrix(0.9868 0.1621 -0.1621 0.9868 2.0259 -5.929)" fill="#DD588E" cx="37.3" cy="9.5" rx="14.4" ry="8.2"/>
			<path fill="#B5486D" d="M38.7,1.3c7.8,1.3,13.6,6,12.9,10.4c-0.7,4.5-7.7,7.1-15.5,5.8"/>
			<path fill="#1E4784" d="M54.4,16.4c-0.6,3-10.6,1.2-19.9-0.8c-9.3-2-14.4-3.4-13.8-6.4c0.6-3,8.7-3.8,18-1.8
				C48,9.4,55,13.4,54.4,16.4z"/>
			<path fill="#00233F" d="M38.7,7.4c9.3,2,16.3,6,15.7,9"/>
			<path fill="#DD588E" d="M58.2,17.4c-0.3,3.1-11.5,1.5-25.3,0c-13.8-1.4-25-2.2-24.7-5.3C8.5,9.1,20,7.8,33.8,9.2
				C47.6,10.7,58.5,14.3,58.2,17.4z"/>
			<path fill="#B5486D" d="M58.2,17.4c-0.3,3.1-11.5,1.5-25.3,0c-13.8-1.4-25-2.2-24.7-5.3"/>
		</g>
		<circle fill="#E3FCFC" cx="44.8" cy="38.8" r="0.6"/>
		<circle fill="#E3FCFC" cx="36.5" cy="38.8" r="0.9"/>
		<circle fill="#E3FCFC" cx="39.5" cy="44.4" r="0.7"/>
		<circle fill="#E3FCFC" cx="41.2" cy="37.5" r="0.7"/>
		<circle fill="#E3FCFC" cx="32.4" cy="43.9" r="1"/>
		<ellipse fill="#D1E5E3" cx="14" cy="42.4" rx="0.4" ry="0"/>
		<circle fill="#E3FCFC" cx="25.2" cy="28.6" r="0.4"/>
		<circle fill="#E3FCFC" cx="25.7" cy="23.4" r="0.6"/>
		<circle fill="#E3FCFC" cx="13.3" cy="28" r="0.2"/>
		<ellipse fill="#D1E5E3" cx="14.3" cy="43.4" rx="0.7" ry="0"/>
		<circle fill="#E3FCFC" cx="16.8" cy="46.6" r="1"/>
		<circle fill="#E3FCFC" cx="12.4" cy="43.8" r="0.9"/>
		<circle fill="#E3FCFC" cx="16.2" cy="42.7" r="0.3"/>
		
			<ellipse transform="matrix(0.5935 -0.8049 0.8049 0.5935 -15.7516 19.8334)" fill="#E3FCFC" cx="11.8" cy="25.5" rx="3.1" ry="0.9"/>
	</g>
</g>
</svg>
