<?xml version="1.0" encoding="utf-8"?>
<!-- Generator: Adobe Illustrator 16.0.0, SVG Export Plug-In . SVG Version: 6.00 Build 0)  -->
<!DOCTYPE svg PUBLIC "-//W3C//DTD SVG 1.1//EN" "http://www.w3.org/Graphics/SVG/1.1/DTD/svg11.dtd">
<svg version="1.1" xmlns="http://www.w3.org/2000/svg" xmlns:xlink="http://www.w3.org/1999/xlink" x="0px" y="0px" width="65px"
	 height="65px" viewBox="0 0 65 65" enable-background="new 0 0 65 65" xml:space="preserve">
<g id="Layer_1">
	<g>
		<g>
			<g>
				<g>
					<g>
						<g>
							<path fill="#63EF54" d="M32.533,3.088c-3.734,2.302-6.564,12.661-6.564,17.605c0,4.946,2.83,4.599,6.564,5.475"/>
						</g>
						<g>
							<path fill="#0CBC18" d="M32.535,28.669c-0.189,0-0.381-0.022-0.574-0.067c-0.533-0.125-1.049-0.223-1.537-0.316
								c-2.935-0.562-6.955-1.333-6.955-7.592c0-5.272,2.943-16.77,7.752-19.733c1.172-0.725,2.715-0.36,3.439,0.816
								c0.725,1.175,0.36,2.715-0.815,3.439c-2.492,1.536-5.376,10.675-5.376,15.478c0,2.126,0.057,2.136,2.896,2.681
								c0.553,0.106,1.135,0.218,1.739,0.36c1.343,0.315,2.178,1.66,1.862,3.005C34.697,27.891,33.669,28.669,32.535,28.669z"/>
						</g>
					</g>
					<g>
						<g>
							<path fill="#20D812" d="M32.468,3.088c3.734,2.302,6.561,12.661,6.561,17.605c0,4.946-2.83,4.599-6.561,5.475"/>
						</g>
						<g>
							<path fill="#0CBC18" d="M32.466,28.669c-1.135,0-2.162-0.777-2.432-1.93c-0.315-1.344,0.518-2.689,1.862-3.005
								c0.603-0.142,1.186-0.254,1.738-0.36c2.839-0.545,2.894-0.555,2.894-2.681c0-4.804-2.883-13.942-5.372-15.478
								c-1.176-0.725-1.542-2.265-0.816-3.439c0.722-1.177,2.266-1.54,3.438-0.816c4.808,2.963,7.75,14.46,7.75,19.733
								c0,6.258-4.018,7.028-6.953,7.591c-0.488,0.094-1.002,0.192-1.536,0.317C32.847,28.646,32.656,28.669,32.466,28.669z"/>
						</g>
					</g>
				</g>
				<g>
					<g>
						<line fill="#63EF54" x1="32.499" y1="22.53" x2="32.499" y2="34.578"/>
					</g>
					<g>
						<path fill="#0CBC18" d="M32.499,37.078c-1.381,0-2.5-1.119-2.5-2.5V22.53c0-1.381,1.119-2.5,2.5-2.5s2.5,1.119,2.5,2.5v12.048
							C34.999,35.959,33.879,37.078,32.499,37.078z"/>
					</g>
				</g>
			</g>
			<g>
				<g>
					<g>
						<g>
							<path fill="#63EF54" d="M32.466,61.912c3.734-2.302,6.562-12.661,6.562-17.605c0-4.946-2.828-4.599-6.562-5.475"/>
						</g>
						<g>
							<path fill="#0CBC18" d="M32.468,64.412c-0.84,0-1.658-0.422-2.13-1.188c-0.725-1.175-0.36-2.715,0.815-3.439
								c2.492-1.536,5.375-10.675,5.375-15.478c0-2.126-0.055-2.137-2.896-2.681c-0.551-0.106-1.133-0.219-1.738-0.36
								c-1.343-0.315-2.178-1.66-1.861-3.005c0.314-1.343,1.654-2.18,3.005-1.862c0.534,0.125,1.049,0.223,1.537,0.316
								c2.935,0.562,6.954,1.333,6.954,7.592c0,5.272-2.942,16.771-7.751,19.733C33.37,64.292,32.916,64.412,32.468,64.412z"/>
						</g>
					</g>
					<g>
						<g>
							<path fill="#20D812" d="M32.531,61.912c-3.734-2.302-6.561-12.661-6.561-17.605c0-4.946,2.83-4.599,6.561-5.475"/>
						</g>
						<g>
							<path fill="#0CBC18" d="M32.529,64.412c-0.449,0-0.901-0.12-1.31-0.372c-4.808-2.963-7.749-14.46-7.749-19.733
								c0-6.258,4.018-7.028,6.952-7.591c0.488-0.094,1.003-0.192,1.537-0.317c1.345-0.315,2.69,0.518,3.005,1.862
								c0.314,1.344-0.518,2.689-1.863,3.005c-0.603,0.142-1.186,0.254-1.738,0.36c-2.838,0.545-2.893,0.555-2.893,2.681
								c0,4.804,2.882,13.942,5.371,15.478c1.176,0.725,1.542,2.265,0.817,3.439C34.187,63.99,33.367,64.412,32.529,64.412z"/>
						</g>
					</g>
				</g>
				<g>
					<g>
						<line fill="#63EF54" x1="32.5" y1="42.47" x2="32.5" y2="30.422"/>
					</g>
					<g>
						<path fill="#0CBC18" d="M32.5,44.97c-1.381,0-2.5-1.119-2.5-2.5V30.422c0-1.381,1.119-2.5,2.5-2.5s2.5,1.119,2.5,2.5V42.47
							C35,43.851,33.88,44.97,32.5,44.97z"/>
					</g>
				</g>
			</g>
		</g>
		<g>
			<g>
				<g>
					<g>
						<g>
							<path fill="#63EF54" d="M61.912,32.534C59.61,28.8,49.25,25.97,44.306,25.97c-4.946,0-4.599,2.83-5.475,6.564"/>
						</g>
						<g>
							<path fill="#0CBC18" d="M38.833,35.035c-0.188,0-0.381-0.022-0.573-0.067c-1.345-0.315-2.178-1.66-1.862-3.005
								c0.125-0.534,0.223-1.049,0.316-1.538c0.563-2.936,1.334-6.955,7.592-6.955c5.272,0,16.77,2.943,19.733,7.753
								c0.725,1.175,0.36,2.715-0.817,3.439c-1.17,0.724-2.713,0.36-3.439-0.816c-1.536-2.492-10.674-5.376-15.477-5.376
								c-2.126,0-2.136,0.055-2.681,2.896c-0.106,0.553-0.218,1.135-0.36,1.739C40.996,34.257,39.968,35.034,38.833,35.035z"/>
						</g>
					</g>
					<g>
						<g>
							<path fill="#20D812" d="M61.912,32.47C59.61,36.204,49.25,39.03,44.306,39.03c-4.946,0-4.599-2.83-5.475-6.561"/>
						</g>
						<g>
							<path fill="#0CBC18" d="M44.306,41.53c-6.258,0-7.028-4.018-7.591-6.952c-0.094-0.488-0.192-1.003-0.317-1.537
								c-0.315-1.344,0.518-2.689,1.862-3.005c1.344-0.314,2.689,0.518,3.005,1.862c0.142,0.604,0.254,1.186,0.36,1.738
								c0.545,2.839,0.555,2.894,2.681,2.894c4.804,0,13.941-2.882,15.477-5.372c0.725-1.178,2.268-1.54,3.439-0.816
								c1.178,0.725,1.542,2.265,0.817,3.439C61.078,38.588,49.58,41.53,44.306,41.53z"/>
						</g>
					</g>
				</g>
				<g>
					<g>
						<line fill="#63EF54" x1="42.468" y1="32.499" x2="30.421" y2="32.499"/>
					</g>
					<g>
						<path fill="#0CBC18" d="M42.468,34.999H30.421c-1.381,0-2.5-1.119-2.5-2.5s1.119-2.5,2.5-2.5h12.047
							c1.381,0,2.5,1.119,2.5,2.5S43.849,34.999,42.468,34.999z"/>
					</g>
				</g>
			</g>
			<g>
				<g>
					<g>
						<g>
							<path fill="#63EF54" d="M3.087,32.468c2.302,3.734,12.66,6.562,17.605,6.562c4.946,0,4.599-2.828,5.475-6.562"/>
						</g>
						<g>
							<path fill="#0CBC18" d="M20.693,41.53c-5.273,0-16.771-2.942-19.733-7.751C0.236,32.604,0.6,31.064,1.777,30.34
								c1.172-0.724,2.714-0.359,3.438,0.816c1.536,2.491,10.675,5.374,15.478,5.374c2.125,0,2.137-0.055,2.68-2.896
								c0.107-0.552,0.22-1.134,0.361-1.738c0.314-1.343,1.659-2.178,3.004-1.862s2.178,1.66,1.863,3.005
								c-0.125,0.534-0.223,1.049-0.316,1.537C27.722,37.511,26.951,41.53,20.693,41.53z"/>
						</g>
					</g>
					<g>
						<g>
							<path fill="#20D812" d="M3.087,32.532c2.302-3.734,12.66-6.561,17.605-6.561c4.946,0,4.599,2.83,5.475,6.561"/>
						</g>
						<g>
							<path fill="#0CBC18" d="M26.166,35.033c-1.135,0-2.162-0.777-2.432-1.93c-0.142-0.604-0.254-1.186-0.361-1.738
								c-0.545-2.839-0.555-2.894-2.68-2.894c-4.804,0-13.942,2.882-15.478,5.372c-0.724,1.176-2.269,1.538-3.438,0.816
								c-1.177-0.725-1.541-2.265-0.817-3.439c2.963-4.807,14.46-7.749,19.733-7.749c6.258,0,7.027,4.018,7.59,6.952
								c0.094,0.488,0.193,1.003,0.318,1.537c0.314,1.344-0.518,2.689-1.863,3.005C26.546,35.011,26.355,35.033,26.166,35.033z"/>
						</g>
					</g>
				</g>
				<g>
					<g>
						<line fill="#63EF54" x1="22.53" y1="32.501" x2="34.578" y2="32.501"/>
					</g>
					<g>
						<path fill="#0CBC18" d="M34.578,35.001H22.53c-1.38,0-2.5-1.119-2.5-2.5s1.12-2.5,2.5-2.5h12.048c1.381,0,2.5,1.119,2.5,2.5
							S35.958,35.001,34.578,35.001z"/>
					</g>
				</g>
			</g>
		</g>
	</g>
</g>
<g id="nyt_x5F_exporter_x5F_info" display="none">
</g>
</svg>
