<?xml version="1.0" encoding="utf-8"?>
<!-- Generator: Adobe Illustrator 16.0.0, SVG Export Plug-In . SVG Version: 6.00 Build 0)  -->
<!DOCTYPE svg PUBLIC "-//W3C//DTD SVG 1.1//EN" "http://www.w3.org/Graphics/SVG/1.1/DTD/svg11.dtd">
<svg version="1.1" id="Layer_1" xmlns="http://www.w3.org/2000/svg" xmlns:xlink="http://www.w3.org/1999/xlink" x="0px" y="0px"
	 width="64px" height="64px" viewBox="0 0 64 64" enable-background="new 0 0 64 64" xml:space="preserve">
<g>
	<path fill="#5B402E" d="M1,30v20.9C1,58.6,7.5,58,15.2,58h33.5c7.7,0,14.2,0.6,14.2-7.1V30H1z"/>
	<path fill="#493322" d="M15,58h33.8c7.7,0,14.2,0.6,14.2-7.1V30"/>
	<path fill="#5B402E" d="M63,25v-5c0-7.7-6.5-14-14.2-14H15.2C7.5,6,1,12.3,1,20v5H63z"/>
	<path fill="#493322" d="M1,20v5h62v-5c0-7.7-6.5-14-14.2-14"/>
	<rect x="1" y="30" fill="#F2B111" width="62" height="8"/>
	<polyline fill="#E88813" points="1,38 63,38 63,30 	"/>
	<rect x="1" y="20" fill="#F2B111" width="62" height="5"/>
	<polyline fill="#E88813" points="1,25 63,25 63,20 	"/>
	<g>
		<rect x="14" y="5" fill="#E88813" width="7" height="19"/>
		<rect x="43" y="5" fill="#E88813" width="7" height="19"/>
	</g>
	<g>
		<rect x="14" y="37" fill="#E88813" width="7" height="22"/>
		<rect x="43" y="37" fill="#E88813" width="7" height="22"/>
	</g>
	<g>
		<g>
			<g>
				<circle fill="#493322" cx="24" cy="34.1" r="1.1"/>
				<circle fill="#493322" cx="29.3" cy="34.1" r="1.1"/>
			</g>
			<g>
				<circle fill="#493322" cx="34.7" cy="34.1" r="1.1"/>
				<circle fill="#493322" cx="40" cy="34.1" r="1.1"/>
			</g>
		</g>
		<g>
			<g>
				<circle fill="#493322" cx="5.2" cy="34.1" r="1.1"/>
				<circle fill="#493322" cx="10.4" cy="34.1" r="1.1"/>
			</g>
			<g>
				<circle fill="#493322" cx="53.5" cy="34.1" r="1.1"/>
				<circle fill="#493322" cx="58.8" cy="34.1" r="1.1"/>
			</g>
		</g>
	</g>
	<g>
		<path fill="#F2B111" d="M35.5,44.3c0-1.9-1.6-3.5-3.5-3.5s-3.5,1.6-3.5,3.5c0,1.3,0.7,2.5,1.7,3.2l-1,6.5h5.6l-1-6.5
			C34.8,46.9,35.5,45.6,35.5,44.3z"/>
		<path fill="#E88813" d="M34.8,54l-1-6.5c1-0.6,1.7-1.9,1.7-3.2c0-1.9-1.6-3.5-3.5-3.5s-3.5,1.6-3.5,3.5"/>
	</g>
</g>
</svg>
