<?xml version="1.0" encoding="utf-8"?>
<!-- Generator: Adobe Illustrator 16.0.0, SVG Export Plug-In . SVG Version: 6.00 Build 0)  -->
<!DOCTYPE svg PUBLIC "-//W3C//DTD SVG 1.1//EN" "http://www.w3.org/Graphics/SVG/1.1/DTD/svg11.dtd">
<svg version="1.1" id="Layer_1" xmlns="http://www.w3.org/2000/svg" xmlns:xlink="http://www.w3.org/1999/xlink" x="0px" y="0px"
	 width="64px" height="64px" viewBox="0 0 64 64" enable-background="new 0 0 64 64" xml:space="preserve">
<g>
	<circle fill="#E06E10" cx="32.7" cy="34.5" r="28.7"/>
	<path fill="#D1E5E4" d="M50.5,46.4V18.6c0-9.8-7.9-17.7-17.7-17.7S15,8.8,15,18.6v27.8c0,0,0,0.1,0,0.1v8.3c0,1.2,1,2.2,2.2,2.2
		c1.2,0,2.2-1,2.2-2.2v-1.2h3.3v1.2c0,1.2,1,2.2,2.2,2.2c1.2,0,2.2-1,2.2-2.2v-1.2h3.3v1.2c0,1.2,1,2.2,2.2,2.2c1.2,0,2.2-1,2.2-2.2
		v-1.2h3.3v1.2c0,1.2,1,2.2,2.2,2.2c1.2,0,2.2-1,2.2-2.2v-1.2H46v1.2c0,1.2,1,2.2,2.2,2.2c1.2,0,2.2-1,2.2-2.2v-8.3
		C50.5,46.4,50.5,46.4,50.5,46.4z"/>
	<path fill="#B8D1D1" d="M19.5,54.7v-1.2h3.3v1.2c0,1.2,1,2.2,2.2,2.2c1.2,0,2.2-1,2.2-2.2v-1.2h3.3v1.2c0,1.2,1,2.2,2.2,2.2
		c1.2,0,2.2-1,2.2-2.2v-1.2h3.3v1.2c0,1.2,1,2.2,2.2,2.2c1.2,0,2.2-1,2.2-2.2v-1.2H46v1.2c0,1.2,1,2.2,2.2,2.2c1.2,0,2.2-1,2.2-2.2
		v-8.3c0,0,0-0.1,0-0.1V18.6c0-9.8-7.9-17.7-17.7-17.7"/>
	<path fill="#A7C1C0" d="M42.7,54.7v-1.2H46v1.2c0,1.2,1,2.2,2.2,2.2c1.2,0,2.2-1,2.2-2.2v-8.3c0,0,0-0.1,0-0.1V18.6
		c0-9.8-7.9-17.7-17.7-17.7"/>
	<path fill="#A7C1C0" d="M35,54.7"/>
	<path fill="#B8D1D1" d="M25,57c1.2,0,2.2-1,2.2-2.2"/>
	<path fill="#B8D1D1" d="M19.5,54.7"/>
	<path fill="#B8D1D1" d="M15,46.4"/>
	<g>
		<path fill="#102D35" d="M27.3,11.2c-0.5,0-0.9,0.1-1.3,0.4c0.5,0.1,0.9,0.5,0.9,1c0,0.6-0.5,1.1-1.1,1.1c-0.4,0-0.8-0.3-1-0.6
			c-0.1,0.2-0.1,0.4-0.1,0.7c0,1.4,1.1,2.5,2.5,2.5s2.5-1.1,2.5-2.5S28.7,11.2,27.3,11.2z"/>
		<path fill="#102D35" d="M38.1,11.2c-0.5,0-0.9,0.1-1.3,0.4c0.5,0.1,0.9,0.5,0.9,1c0,0.6-0.5,1.1-1.1,1.1c-0.4,0-0.8-0.3-1-0.6
			c-0.1,0.2-0.1,0.4-0.1,0.7c0,1.4,1.1,2.5,2.5,2.5s2.5-1.1,2.5-2.5S39.5,11.2,38.1,11.2z"/>
	</g>
	<ellipse fill="#5B0404" cx="32.7" cy="24.8" rx="2.3" ry="4"/>
	<path fill="#960E08" d="M35,24.8c0,2.2-1,4-2.3,4c-1.3,0-2.3-1.8-2.3-4"/>
	<path fill="#DFF2F1" d="M28.5,3.1c0.6,0.9-0.8,3-3.3,4.8c-2.5,1.7-5,2.4-5.6,1.5c-0.6-0.9,0.8-3,3.3-4.8
		C25.4,2.9,27.9,2.2,28.5,3.1z"/>
	<circle fill="#A7C1C0" cx="9.4" cy="28.8" r="1.4"/>
	<circle fill="#A7C1C0" cx="10.8" cy="23.3" r="0.5"/>
	<circle fill="#A7C1C0" cx="13.2" cy="25.9" r="1.2"/>
	<circle fill="#A7C1C0" cx="56.8" cy="32.7" r="1.4"/>
	<circle fill="#A7C1C0" cx="55.1" cy="23.9" r="0.8"/>
	<circle fill="#A7C1C0" cx="53.7" cy="29.6" r="0.5"/>
	<circle fill="#A7C1C0" cx="11.6" cy="34.4" r="0.7"/>
	<circle fill="#A7C1C0" cx="52.6" cy="36.3" r="0.2"/>
	<circle fill="#A7C1C0" cx="52" cy="22.6" r="0.6"/>
	<circle fill="#A7C1C0" cx="12.7" cy="15.7" r="0.8"/>
</g>
</svg>
