<?xml version="1.0" encoding="utf-8"?>
<!-- Generator: Adobe Illustrator 16.0.0, SVG Export Plug-In . SVG Version: 6.00 Build 0)  -->
<!DOCTYPE svg PUBLIC "-//W3C//DTD SVG 1.1//EN" "http://www.w3.org/Graphics/SVG/1.1/DTD/svg11.dtd">
<svg version="1.1" id="Layer_1" xmlns="http://www.w3.org/2000/svg" xmlns:xlink="http://www.w3.org/1999/xlink" x="0px" y="0px"
	 width="64px" height="64px" viewBox="0 0 64 64" enable-background="new 0 0 64 64" xml:space="preserve">
<g>
	<g>
		<path fill="#911955" d="M12,14.4c0-7.5,4.8-13.5,10.8-13.5c5.9,0,10.8,6.1,10.8,13.5c0,7.5-4.8,3.7-10.8,3.7
			C16.8,18.1,12,21.9,12,14.4z"/>
		<path fill="#AF2564" d="M47.9,14.4c0-7.5-4.8-13.5-10.8-13.5c-5.9,0-10.8,6.1-10.8,13.5c0,7.5,4.8,3.7,10.8,3.7
			C43.1,18.1,47.9,21.9,47.9,14.4z"/>
	</g>
	<path fill="#AF2564" d="M43.8,8.4C43.8,17,37.6,24,29.9,24S16.1,17,16.1,8.4c0-8.6,6.2-4.2,13.9-4.2S43.8-0.1,43.8,8.4z"/>
	<path fill="#911955" d="M29.9,4.2c7.7,0,13.9-4.4,13.9,4.2C43.8,17,37.6,24,29.9,24"/>
	<path fill="#12AF6B" d="M34,58.9c0,2.4-1.6,4.3-4,4.3l0,0c-2.4,0-4-1.9-4-4.3V39.6c0-2.3,1.6-4.3,4-4.3l0,0c2.4,0,4,1.9,4,4.3V58.9
		z"/>
	<path fill="#028952" d="M26,39.6c0-2.3,1.5-4.3,3.8-4.3l0,0c2.4,0,4.2,1.9,4.2,4.3v19.3c0,2.4-1.8,4.3-4.2,4.3l0,0"/>
	<path fill="#12AF6B" d="M32.3,59.4c0,0,4.4-11.8,14.3-15.3S56.7,36,56.7,36s0.8,13.3-11.6,17.2c-12.4,3.9-12.4,7.5-12.4,7.5
		L32.3,59.4z"/>
	<path fill="#028952" d="M46.6,44.1c9.9-3.5,10.1-8.1,10.1-8.1s0.8,13.3-11.6,17.2c-12.4,3.9-12.4,7.5-12.4,7.5"/>
	<g>
		<path fill="#E250A0" d="M33.7,40H23.4c0,0-8.8,0.6-9.5-4.8c-0.7-5.4-0.2-23.4-7.7-25.8c0,0,6-4.1,12.7,1.3
			c6.7,5.4,2,6.4,12.9,11.9C34.8,24,33.7,40,33.7,40z"/>
		<path fill="#CC3B84" d="M18.7,10.5c6.9,5.2,2.2,6.4,13,11.9c3,1.5,1.9,17.6,1.9,17.6H23"/>
		<path fill="#AF2564" d="M26.2,40h10.3c0,0,8.8,0.6,9.5-4.8c0.7-5.4,0.2-23.4,7.7-25.8c0,0-6-4.1-12.7,1.3
			c-6.7,5.4-2,6.4-12.9,11.9C25,24,26.2,40,26.2,40z"/>
		<path fill="#911955" d="M26,40h10.4c0,0,8.8,0.6,9.5-4.8c0.7-5.4,0.2-23.4,7.7-25.8c0,0-6.1-4.2-12.8,1.4"/>
	</g>
</g>
</svg>
