<?xml version="1.0" encoding="utf-8"?>
<!-- Generator: Adobe Illustrator 16.0.0, SVG Export Plug-In . SVG Version: 6.00 Build 0)  -->
<!DOCTYPE svg PUBLIC "-//W3C//DTD SVG 1.1//EN" "http://www.w3.org/Graphics/SVG/1.1/DTD/svg11.dtd">
<svg version="1.1" xmlns="http://www.w3.org/2000/svg" xmlns:xlink="http://www.w3.org/1999/xlink" x="0px" y="0px" width="65px"
	 height="65px" viewBox="0 0 65 65" enable-background="new 0 0 65 65" xml:space="preserve">
<g id="Layer_1">
	<g>
		<g>
			<g>
				<g>
					<g>
						<g>
							<line fill="#181C1C" x1="11.5" y1="58.156" x2="31.75" y2="58.156"/>
						</g>
						<g>
							<path fill="#181C1C" d="M31.75,60.656H11.5c-1.382,0-2.501-1.119-2.501-2.5s1.119-2.5,2.501-2.5h20.25
								c1.381,0,2.5,1.119,2.5,2.5S33.131,60.656,31.75,60.656z"/>
						</g>
					</g>
					<g>
						<g>
							<line fill="#181C1C" x1="8.75" y1="53.906" x2="8.75" y2="61.406"/>
						</g>
						<g>
							<path fill="#181C1C" d="M8.75,63.906c-1.381,0-2.5-1.119-2.5-2.5v-7.5c0-1.381,1.119-2.5,2.5-2.5s2.5,1.119,2.5,2.5v7.5
								C11.25,62.787,10.131,63.906,8.75,63.906z"/>
						</g>
					</g>
				</g>
				<g>
					<g>
						<g>
							<line fill="#181C1C" x1="53.5" y1="58.156" x2="33.25" y2="58.156"/>
						</g>
						<g>
							<path fill="#181C1C" d="M53.5,60.656H33.25c-1.381,0-2.5-1.119-2.5-2.5s1.119-2.5,2.5-2.5H53.5
								c1.381,0,2.499,1.119,2.499,2.5S54.881,60.656,53.5,60.656z"/>
						</g>
					</g>
					<g>
						<g>
							<line fill="#181C1C" x1="56.25" y1="53.906" x2="56.25" y2="61.406"/>
						</g>
						<g>
							<path fill="#181C1C" d="M56.25,63.906c-1.381,0-2.5-1.119-2.5-2.5v-7.5c0-1.381,1.119-2.5,2.5-2.5s2.5,1.119,2.5,2.5v7.5
								C58.75,62.787,57.631,63.906,56.25,63.906z"/>
						</g>
					</g>
				</g>
			</g>
			<g>
				<g>
					<g>
						<g>
							<line fill="#181C1C" x1="11.5" y1="29.156" x2="31.75" y2="29.156"/>
						</g>
						<g>
							<path fill="#181C1C" d="M31.75,31.656H11.5c-1.382,0-2.501-1.119-2.501-2.5s1.119-2.5,2.501-2.5h20.25
								c1.381,0,2.5,1.119,2.5,2.5S33.131,31.656,31.75,31.656z"/>
						</g>
					</g>
					<g>
						<g>
							<line fill="#181C1C" x1="8.75" y1="24.906" x2="8.75" y2="32.406"/>
						</g>
					</g>
				</g>
				<g>
					<g>
						<g>
							<line fill="#181C1C" x1="53.5" y1="29.156" x2="33.25" y2="29.156"/>
						</g>
						<g>
							<path fill="#181C1C" d="M53.5,31.656H33.25c-1.381,0-2.5-1.119-2.5-2.5s1.119-2.5,2.5-2.5H53.5
								c1.381,0,2.499,1.119,2.499,2.5S54.881,31.656,53.5,31.656z"/>
						</g>
					</g>
					<g>
						<g>
							<line fill="#181C1C" x1="56.25" y1="24.906" x2="56.25" y2="32.406"/>
						</g>
					</g>
				</g>
			</g>
			<g>
				<g>
					<line fill="#181C1C" x1="32.5" y1="8.157" x2="32.5" y2="56.823"/>
				</g>
				<g>
					<path fill="#181C1C" d="M32.5,59.323c-1.382,0-2.501-1.119-2.501-2.5V8.157c0-1.381,1.119-2.5,2.501-2.5
						c1.381,0,2.499,1.119,2.499,2.5v48.666C34.999,58.204,33.881,59.323,32.5,59.323z"/>
				</g>
			</g>
			<g>
				<g>
					<path fill="#181C1C" d="M38.688,12.281c-0.64,0-1.279-0.244-1.769-0.732L32.5,7.129l-4.42,4.42
						c-0.977,0.977-2.56,0.977-3.535,0c-0.977-0.977-0.977-2.559,0-3.535l6.188-6.188c0.977-0.977,2.558-0.977,3.535,0l6.187,6.188
						c0.979,0.977,0.979,2.559,0,3.535C39.967,12.037,39.327,12.281,38.688,12.281z"/>
				</g>
			</g>
			<g>
				<g>
					<g>
						<path fill="#181C1C" d="M16.761,22.469c0,0.64-0.244,1.279-0.732,1.768l-4.42,4.42l4.42,4.42c0.977,0.977,0.977,2.559,0,3.535
							s-2.559,0.977-3.535,0l-6.188-6.188c-0.977-0.977-0.977-2.559,0-3.535l6.188-6.188c0.977-0.977,2.559-0.977,3.535,0
							C16.517,21.189,16.761,21.829,16.761,22.469z"/>
					</g>
				</g>
				<g>
					<g>
						<path fill="#181C1C" d="M48.24,34.843c0-0.64,0.244-1.279,0.733-1.768l4.42-4.42l-4.42-4.42c-0.978-0.977-0.978-2.559,0-3.535
							c0.976-0.977,2.557-0.977,3.533,0l6.188,6.188c0.976,0.977,0.976,2.559,0,3.535l-6.188,6.188
							c-0.977,0.977-2.558,0.977-3.533,0C48.484,36.122,48.24,35.482,48.24,34.843z"/>
					</g>
				</g>
			</g>
		</g>
		<g>
			<g>
				<circle fill="#D0D8C0" cx="26.18" cy="39.548" r="1.063"/>
			</g>
			<g>
				<circle fill="#D0D8C0" cx="26.18" cy="43.611" r="1.063"/>
			</g>
			<g>
				<circle fill="#D0D8C0" cx="26.18" cy="47.673" r="1.063"/>
			</g>
		</g>
	</g>
</g>
<g id="nyt_x5F_exporter_x5F_info" display="none">
</g>
</svg>
