<?xml version="1.0" encoding="utf-8"?>
<!-- Generator: Adobe Illustrator 16.0.0, SVG Export Plug-In . SVG Version: 6.00 Build 0)  -->
<!DOCTYPE svg PUBLIC "-//W3C//DTD SVG 1.1//EN" "http://www.w3.org/Graphics/SVG/1.1/DTD/svg11.dtd">
<svg version="1.1" xmlns="http://www.w3.org/2000/svg" xmlns:xlink="http://www.w3.org/1999/xlink" x="0px" y="0px" width="65px"
	 height="65px" viewBox="0 0 65 65" enable-background="new 0 0 65 65" xml:space="preserve">
<g id="Layer_1">
	<g>
		<g>
			<g>
				<g>
					<circle fill="#ED629A" cx="32.5" cy="24.049" r="21.05"/>
				</g>
				<g>
					<path fill="#E25286" d="M32.499,3C44.124,3,53.55,12.423,53.55,24.049s-9.426,21.049-21.051,21.049"/>
				</g>
				<g>
					<path fill="#A03A61" d="M32.499,47.598c-12.985,0-23.549-10.563-23.549-23.549S19.514,0.5,32.499,0.5
						c12.986,0,23.551,10.563,23.551,23.549S45.485,47.598,32.499,47.598z M32.499,5.5c-10.228,0-18.549,8.321-18.549,18.549
						s8.321,18.549,18.549,18.549c10.229,0,18.551-8.321,18.551-18.549S42.728,5.5,32.499,5.5z"/>
				</g>
			</g>
			<g>
				<g>
					<path fill="#D8CE84" d="M44.183,24.049c0,6.451-5.23,11.682-11.684,11.682c-6.45,0-11.683-5.23-11.683-11.682"/>
				</g>
				<g>
					<path fill="#C6BA6F" d="M32.499,35.73c6.453,0,11.684-5.23,11.684-11.682H32.499V35.73z"/>
				</g>
				<g>
					<path fill="#A03A61" d="M32.499,38.23c-7.82,0-14.183-6.362-14.183-14.182c0-1.381,1.119-2.5,2.5-2.5s2.5,1.119,2.5,2.5
						c0,5.062,4.119,9.182,9.183,9.182s9.184-4.119,9.184-9.182c0-1.381,1.119-2.5,2.5-2.5s2.5,1.119,2.5,2.5
						C46.683,31.868,40.32,38.23,32.499,38.23z"/>
				</g>
			</g>
			<g>
				<g>
					<line fill="#E25286" x1="32.499" y1="62" x2="32.499" y2="44.969"/>
				</g>
				<g>
					<path fill="#A03A61" d="M32.499,64.5c-1.381,0-2.5-1.119-2.5-2.5V44.969c0-1.381,1.119-2.5,2.5-2.5s2.5,1.119,2.5,2.5V62
						C34.999,63.381,33.88,64.5,32.499,64.5z"/>
				</g>
			</g>
			<g>
				<g>
					<line fill="#E25286" x1="39.399" y1="55.274" x2="25.601" y2="55.274"/>
				</g>
				<g>
					<path fill="#A03A61" d="M39.399,57.774H25.601c-1.382,0-2.5-1.119-2.5-2.5s1.118-2.5,2.5-2.5h13.799c1.381,0,2.5,1.119,2.5,2.5
						S40.78,57.774,39.399,57.774z"/>
				</g>
			</g>
		</g>
		<g>
			<g>
				<polygon fill="#ED629A" points="8.95,50.002 10.363,47.556 11.775,50.002 				"/>
			</g>
			<g>
				<polygon fill="#ED629A" points="8.95,54.001 10.363,51.555 11.775,54.001 				"/>
			</g>
			<g>
				<polygon fill="#ED629A" points="8.95,58 10.363,55.554 11.775,58 				"/>
			</g>
		</g>
	</g>
</g>
<g id="nyt_x5F_exporter_x5F_info" display="none">
</g>
</svg>
