<?xml version="1.0" encoding="utf-8"?>
<!-- Generator: Adobe Illustrator 16.0.0, SVG Export Plug-In . SVG Version: 6.00 Build 0)  -->
<!DOCTYPE svg PUBLIC "-//W3C//DTD SVG 1.1//EN" "http://www.w3.org/Graphics/SVG/1.1/DTD/svg11.dtd">
<svg version="1.1" xmlns="http://www.w3.org/2000/svg" xmlns:xlink="http://www.w3.org/1999/xlink" x="0px" y="0px" width="65px"
	 height="65px" viewBox="0 0 65 65" enable-background="new 0 0 65 65" xml:space="preserve">
<g id="Layer_1">
	<g>
		<g>
			<g>
				<circle fill="#9AC1B2" cx="32.5" cy="32.5" r="25.479"/>
			</g>
			<g>
				<path fill="#475651" d="M32.5,60.479c-15.428,0-27.979-12.551-27.979-27.979c0-15.429,12.552-27.98,27.979-27.98
					c15.427,0,27.979,12.552,27.979,27.98C60.479,47.929,47.927,60.479,32.5,60.479z M32.5,9.521
					c-12.671,0-22.979,10.309-22.979,22.98c0,12.67,10.309,22.979,22.979,22.979s22.979-10.309,22.979-22.979
					C55.479,19.829,45.171,9.521,32.5,9.521z"/>
			</g>
		</g>
		<g>
			<g>
				<g>
					<g>
						<g>
							<g>
								<line fill="#41E09F" x1="3.083" y1="32.167" x2="12.083" y2="32.167"/>
							</g>
							<g>
								<path fill="#475651" d="M12.083,34.667h-9c-1.381,0-2.5-1.119-2.5-2.5s1.119-2.5,2.5-2.5h9c1.381,0,2.5,1.119,2.5,2.5
									S13.464,34.667,12.083,34.667z"/>
							</g>
						</g>
						<g>
							<g>
								<line fill="#41E09F" x1="13.166" y1="36.667" x2="13.166" y2="27.667"/>
							</g>
							<g>
								<path fill="#475651" d="M13.166,39.167c-1.381,0-2.5-1.119-2.5-2.5v-9c0-1.381,1.119-2.5,2.5-2.5c1.38,0,2.5,1.119,2.5,2.5
									v9C15.666,38.048,14.546,39.167,13.166,39.167z"/>
							</g>
						</g>
					</g>
					<g>
						<g>
							<g>
								<line fill="#41E09F" x1="61.917" y1="32.167" x2="52.917" y2="32.167"/>
							</g>
							<g>
								<path fill="#475651" d="M61.917,34.667h-9c-1.381,0-2.5-1.119-2.5-2.5s1.119-2.5,2.5-2.5h9c1.381,0,2.5,1.119,2.5,2.5
									S63.298,34.667,61.917,34.667z"/>
							</g>
						</g>
						<g>
							<g>
								<line fill="#41E09F" x1="51.833" y1="27.667" x2="51.833" y2="36.667"/>
							</g>
							<g>
								<path fill="#475651" d="M51.833,39.167c-1.381,0-2.5-1.119-2.5-2.5v-9c0-1.381,1.119-2.5,2.5-2.5s2.5,1.119,2.5,2.5v9
									C54.333,38.048,53.214,39.167,51.833,39.167z"/>
							</g>
						</g>
					</g>
				</g>
				<g>
					<g>
						
							<rect x="21.834" y="21.833" transform="matrix(0.7071 -0.7071 0.7071 0.7071 -13.4619 32.5015)" fill="#41E09F" width="21.333" height="21.334"/>
					</g>
					<g>
						<path fill="#475651" d="M32.501,50.085c-0.663,0-1.299-0.264-1.768-0.732L15.647,34.268c-0.469-0.469-0.732-1.104-0.732-1.768
							s0.264-1.299,0.732-1.768l15.086-15.085c0.469-0.469,1.104-0.732,1.768-0.732l0,0c0.663,0,1.299,0.264,1.768,0.732
							l15.084,15.085c0.977,0.977,0.977,2.559,0,3.535L34.269,49.353C33.8,49.821,33.164,50.085,32.501,50.085z M20.952,32.5
							l11.549,11.55L44.05,32.5L32.501,20.95L20.952,32.5z"/>
					</g>
				</g>
			</g>
			<g>
				<g>
					<g>
						<line fill="#41E09F" x1="32.5" y1="8.042" x2="32.5" y2="17.624"/>
					</g>
					<g>
						<path fill="#475651" d="M32.5,20.124c-1.382,0-2.501-1.119-2.501-2.5V8.042c0-1.381,1.119-2.5,2.501-2.5
							c1.381,0,2.499,1.119,2.499,2.5v9.582C34.999,19.005,33.881,20.124,32.5,20.124z"/>
					</g>
				</g>
				<g>
					<g>
						<line fill="#41E09F" x1="32.5" y1="47.376" x2="32.5" y2="56.958"/>
					</g>
					<g>
						<path fill="#475651" d="M32.5,59.458c-1.382,0-2.501-1.119-2.501-2.5v-9.582c0-1.381,1.119-2.5,2.501-2.5
							c1.381,0,2.499,1.119,2.499,2.5v9.582C34.999,58.339,33.881,59.458,32.5,59.458z"/>
					</g>
				</g>
			</g>
		</g>
		<g>
			<g>
				<path fill="#475651" d="M36.25,35h-7.5c-1.381,0-2.5-1.119-2.5-2.5s1.119-2.5,2.5-2.5h7.5c1.381,0,2.5,1.119,2.5,2.5
					S37.631,35,36.25,35z"/>
			</g>
		</g>
	</g>
</g>
<g id="nyt_x5F_exporter_x5F_info" display="none">
</g>
</svg>
