<?xml version="1.0" encoding="utf-8"?>
<!-- Generator: Adobe Illustrator 16.0.0, SVG Export Plug-In . SVG Version: 6.00 Build 0)  -->
<!DOCTYPE svg PUBLIC "-//W3C//DTD SVG 1.1//EN" "http://www.w3.org/Graphics/SVG/1.1/DTD/svg11.dtd">
<svg version="1.1" id="Layer_1" xmlns="http://www.w3.org/2000/svg" xmlns:xlink="http://www.w3.org/1999/xlink" x="0px" y="0px"
	 width="64px" height="64px" viewBox="0 0 64 64" enable-background="new 0 0 64 64" xml:space="preserve">
<g>
	<path fill="#306F96" d="M21,61.6c0,0.4-0.3,0.7-0.7,0.7l0,0c-0.4,0-0.7-0.3-0.7-0.7V1.9c0-0.4,0.3-0.7,0.7-0.7l0,0
		c0.4,0,0.7,0.3,0.7,0.7V61.6z"/>
	<path fill="#4488AA" d="M42.1,62.3C51.8,27.5,31.6,4.8,20.7,4.2v58.1H42.1z"/>
	<path fill="#306F96" d="M42.1,62.3C51.8,27.5,31.6,4.8,20.7,4.2"/>
	<path fill="#8EDBDD" d="M25.3,18.8v43.5h12.1c5.5-19.7-0.1-36.1-6.1-43.5H25.3z"/>
	<path fill="#8BEAEA" d="M25.3,62.3h12.1c5.5-19.7-0.1-36.1-6.1-43.5"/>
	<path fill="#71C9C9" d="M26,18.8l13.1,35.5c2.3-16-2.6-29.1-7.8-35.5H26z"/>
	<path fill="#3DC4C0" d="M39.1,54.2c1-7,0.6-13.4-0.5-19c0,0,0,0,0,0c-0.5-2.3-1.1-4.5-1.9-6.5c0,0,0-0.1,0-0.1
		c-0.2-0.6-0.5-1.2-0.7-1.8c0-0.1-0.1-0.1-0.1-0.2c-0.3-0.6-0.5-1.2-0.8-1.7c0,0,0,0,0-0.1c-0.3-0.5-0.5-1.1-0.8-1.6
		c0,0,0-0.1-0.1-0.1c-0.3-0.5-0.5-1-0.8-1.4c0-0.1-0.1-0.2-0.1-0.2c-0.3-0.4-0.5-0.8-0.8-1.2c0-0.1-0.1-0.1-0.1-0.2
		c-0.3-0.4-0.6-0.8-0.9-1.2l-1.5,10.5L39.1,54.2z"/>
	<path fill="#306F96" d="M63.5,62c0,0.4-0.3,0.7-0.7,0.7H1.2c-0.4,0-0.7-0.3-0.7-0.7l0,0c0-0.4,0.3-0.7,0.7-0.7h61.6
		C63.2,61.3,63.5,61.7,63.5,62L63.5,62z"/>
	<path fill="#306F96" d="M32.5,19.2c0,0.2-0.2,0.4-0.4,0.4H18c-0.2,0-0.4-0.2-0.4-0.4l0,0c0-0.2,0.2-0.4,0.4-0.4h14
		C32.3,18.8,32.5,19,32.5,19.2L32.5,19.2z"/>
	<rect x="24.7" y="21.9" fill="#306F96" width="11.6" height="0.5"/>
	<rect x="24.7" y="25" fill="#306F96" width="11.6" height="0.5"/>
	<rect x="24.7" y="28.1" fill="#306F96" width="14.7" height="0.5"/>
	<rect x="24.7" y="31.2" fill="#306F96" width="17.4" height="0.5"/>
	<rect x="24.7" y="34.4" fill="#306F96" width="16.4" height="0.5"/>
	<rect x="24.7" y="37.5" fill="#306F96" width="15.7" height="0.5"/>
	<rect x="24.7" y="40.6" fill="#306F96" width="17.1" height="0.5"/>
	<rect x="24.7" y="43.7" fill="#306F96" width="17.2" height="0.5"/>
	<rect x="24.7" y="46.8" fill="#306F96" width="17" height="0.5"/>
	<rect x="24.7" y="49.9" fill="#306F96" width="17.8" height="0.5"/>
	<rect x="24.7" y="53.1" fill="#306F96" width="16.1" height="0.5"/>
	<rect x="24.7" y="56.2" fill="#306F96" width="17" height="0.5"/>
	<rect x="24.7" y="59.3" fill="#306F96" width="16.4" height="0.5"/>
	<g>
		<polygon fill="#306F96" points="15.7,62 14.9,62.8 14.1,62 14.9,56.7 		"/>
		<g>
			<g>
				<g>
					<path fill="#4488AA" d="M15,57.2c-0.1-2.3-2-2.4-2.4-1.9l2.3,2.3L15,57.2z"/>
					<path fill="#4488AA" d="M14.9,57.1c-1.7-1.5-3.1-0.3-3.1,0.3h3.2L14.9,57.1z"/>
					<path fill="#4488AA" d="M14.6,57.2c-1.6,0.1-1.7,1.4-1.4,1.7l1.6-1.6L14.6,57.2z"/>
				</g>
				<g>
					<path fill="#4488AA" d="M14.9,57.2c0.1-2.3,2-2.4,2.4-1.9l-2.3,2.3L14.9,57.2z"/>
					<path fill="#4488AA" d="M15,57.1c1.7-1.5,3.1-0.3,3.1,0.3h-3.2L15,57.1z"/>
					<path fill="#4488AA" d="M15.3,57.2c1.6,0.1,1.7,1.4,1.4,1.7l-1.6-1.6L15.3,57.2z"/>
				</g>
			</g>
			<path fill="#4488AA" d="M14.9,56.9c-1.5-1.7-0.3-3.1,0.3-3.1v3.2L14.9,56.9z"/>
		</g>
	</g>
	<g>
		<polygon fill="#306F96" points="49.5,62 48.7,62.8 47.9,62 48.7,56.7 		"/>
		<g>
			<g>
				<g>
					<path fill="#4488AA" d="M48.8,57.2c-0.1-2.3-2-2.4-2.4-1.9l2.3,2.3L48.8,57.2z"/>
					<path fill="#4488AA" d="M48.7,57.1c-1.7-1.5-3.1-0.3-3.1,0.3h3.2L48.7,57.1z"/>
					<path fill="#4488AA" d="M48.4,57.2c-1.6,0.1-1.7,1.4-1.4,1.7l1.6-1.6L48.4,57.2z"/>
				</g>
				<g>
					<path fill="#4488AA" d="M48.7,57.2c0.1-2.3,2-2.4,2.4-1.9l-2.3,2.3L48.7,57.2z"/>
					<path fill="#4488AA" d="M48.8,57.1c1.7-1.5,3.1-0.3,3.1,0.3h-3.2L48.8,57.1z"/>
					<path fill="#4488AA" d="M49.1,57.2c1.6,0.1,1.7,1.4,1.4,1.7l-1.6-1.6L49.1,57.2z"/>
				</g>
			</g>
			<path fill="#4488AA" d="M48.7,56.9c-1.5-1.7-0.3-3.1,0.3-3.1v3.2L48.7,56.9z"/>
		</g>
	</g>
	<g>
		<polygon fill="#306F96" points="55.2,62.2 54.6,62.8 54.1,62.2 54.6,58.5 		"/>
		<g>
			<g>
				<g>
					<path fill="#4488AA" d="M54.7,58.8c-0.1-1.6-1.4-1.7-1.7-1.4l1.6,1.6L54.7,58.8z"/>
					<path fill="#4488AA" d="M54.6,58.8c-1.2-1.1-2.2-0.2-2.2,0.2h2.3L54.6,58.8z"/>
					<path fill="#4488AA" d="M54.4,58.9c-1.1,0-1.2,1-1,1.2l1.1-1.1L54.4,58.9z"/>
				</g>
				<g>
					<path fill="#4488AA" d="M54.6,58.8c0.1-1.6,1.4-1.7,1.7-1.4l-1.6,1.6L54.6,58.8z"/>
					<path fill="#4488AA" d="M54.7,58.8c1.2-1.1,2.2-0.2,2.2,0.2h-2.3L54.7,58.8z"/>
					<path fill="#4488AA" d="M54.9,58.9c1.1,0,1.2,1,1,1.2L54.8,59L54.9,58.9z"/>
				</g>
			</g>
			<path fill="#4488AA" d="M54.6,58.7c-1.1-1.2-0.2-2.2,0.2-2.2v2.3L54.6,58.7z"/>
		</g>
	</g>
</g>
</svg>
