<?xml version="1.0" encoding="utf-8"?>
<!-- Generator: Adobe Illustrator 16.0.0, SVG Export Plug-In . SVG Version: 6.00 Build 0)  -->
<!DOCTYPE svg PUBLIC "-//W3C//DTD SVG 1.1//EN" "http://www.w3.org/Graphics/SVG/1.1/DTD/svg11.dtd">
<svg version="1.1" id="Layer_1" xmlns="http://www.w3.org/2000/svg" xmlns:xlink="http://www.w3.org/1999/xlink" x="0px" y="0px"
	 width="64px" height="64px" viewBox="0 0 64 64" enable-background="new 0 0 64 64" xml:space="preserve">
<g>
	<path fill="#676B6B" d="M62.5,45.5c0,2.2-1.8,4-4,4H5.5c-2.2,0-4-1.8-4-4V17.2c0-2.2,1.8-4,4-4h53.1c2.2,0,4,1.8,4,4V45.5z"/>
	<path fill="#5E5E5E" d="M62.5,46.8c0,2.2-1.8,4-4,4H5.5c-2.2,0-4-1.8-4-4V18.5c0-2.2,1.8-4,4-4h53.1c2.2,0,4,1.8,4,4V46.8z"/>
	<path fill="#303333" d="M1.5,32.9v13.9c0,2.2,1.8,4,4,4h53.1c2.2,0,4-1.8,4-4V32.9H1.5z"/>
	<path fill="#4D4F4F" d="M1.5,18.5c0-2.2,1.8-4,4-4h53.1c2.2,0,4,1.8,4,4v28.3c0,2.2-1.8,4-4,4"/>
	<path fill="#020202" d="M58.5,50.7c2.2,0,4-1.8,4-4V32.9H27L58.5,50.7z"/>
	<g>
		<g>
			<path fill="#FFFFFF" d="M9.3,26.8H8c-0.1,0-0.1,0-0.2,0l-2.5,1.3c-0.1,0.1-0.2,0.2-0.2,0.4l0.3,1.2c0,0.1,0.1,0.2,0.2,0.2
				c0.1,0,0.2,0,0.3,0l1.5-0.8v9.3c0,0.2,0.2,0.4,0.4,0.4h1.5c0.2,0,0.4-0.2,0.4-0.4V27.2C9.7,27,9.5,26.8,9.3,26.8z"/>
			<path fill="#FFFFFF" d="M17.2,26.6c-2.7,0-4.3,2.4-4.3,6.2c0,3.8,1.6,6.2,4.1,6.2c2.7,0,4.3-2.3,4.3-6.3
				C21.3,28.9,19.8,26.6,17.2,26.6z M17.1,37.1c-1.2,0-1.9-1.6-1.9-4.2c0-2.6,0.8-4.4,2-4.4c1.7,0,1.9,2.7,1.9,4.2
				C19.1,34.4,18.8,37.1,17.1,37.1z"/>
			<path fill="#FFFFFF" d="M29.6,32.4c1.3-0.8,1.5-2,1.5-2.6c0-1.5-1.1-3.1-3.7-3.1c-2.2,0-3.9,1.4-3.9,3.4c0,1,0.5,1.9,1.4,2.6
				c-1.2,0.7-1.9,1.8-1.9,3.1c0,1.7,1.4,3.4,4.2,3.4c2.4,0,4.2-1.5,4.2-3.7C31.5,34.1,30.9,33.1,29.6,32.4z M27.4,28.4
				c1.4,0,1.6,1.1,1.6,1.5c0,1-0.9,1.5-1.4,1.7c-1.6-0.4-1.8-1.1-1.8-1.7C25.8,29.2,26.3,28.4,27.4,28.4z M27.4,37.2
				c-0.6,0-1.1-0.2-1.5-0.6c-0.3-0.3-0.5-0.8-0.4-1.2c0-0.9,0.6-1.6,1.7-2c1.5,0.4,2.1,1.1,2.1,2.1C29.3,36.5,28.5,37.2,27.4,37.2z"
				/>
		</g>
	</g>
	<g>
		<g>
			<path fill="#E6EDED" d="M7.5,33.1v5.4c0,0.2,0.2,0.4,0.4,0.4h1.5c0.2,0,0.4-0.2,0.4-0.4v-5.4H7.5z"/>
			<path fill="#E6EDED" d="M19.1,33.1c0,1.6-0.4,4-1.9,4c-1.2,0-1.9-1.5-1.9-4H13C13,36.8,14.6,39,17,39c2.6,0,4.2-2.2,4.3-5.9H19.1
				z"/>
			<path fill="#E6EDED" d="M23.2,35.6c0,1.7,1.4,3.4,4.2,3.4c2.4,0,4.2-1.5,4.2-3.7c0-0.9-0.3-1.7-1-2.3h-6.3
				C23.5,33.8,23.2,34.6,23.2,35.6z M27.1,33.4c1.5,0.4,2.1,1.1,2.1,2.1c0,1-0.8,1.7-1.9,1.7c-0.6,0-1.1-0.2-1.5-0.6
				c-0.3-0.3-0.5-0.8-0.4-1.2C25.5,34.5,26.1,33.8,27.1,33.4z"/>
		</g>
	</g>
	<g>
		<g>
			<path fill="#242626" d="M46.2,41.3c0,1.6-1.3,2.9-2.9,2.9h-5.7c-1.6,0-2.9-1.3-2.9-2.9V27.2c0-1.6,1.3-2.9,2.9-2.9h5.7
				c1.6,0,2.9,1.3,2.9,2.9V41.3z"/>
			<path fill="#E6EDED" d="M46.2,39.9c0,1.6-1.3,2.9-2.9,2.9h-5.7c-1.6,0-2.9-1.3-2.9-2.9V25.8c0-1.6,1.3-2.9,2.9-2.9h5.7
				c1.6,0,2.9,1.3,2.9,2.9V39.9z"/>
			<path fill="#FFFFFF" d="M43.2,22.8h-5.7c-1.6,0-2.9,1.3-2.9,2.9V33h11.6v-7.2C46.2,24.2,44.8,22.8,43.2,22.8z"/>
			<path fill="#070707" d="M40.5,26.6c-2.7,0-4.3,2.4-4.3,6.2c0,3.8,1.6,6.2,4.1,6.2c2.7,0,4.3-2.3,4.3-6.3
				C44.6,28.9,43,26.6,40.5,26.6z M40.4,37.1c-1.2,0-1.9-1.6-1.9-4.2c0-2.6,0.8-4.4,2-4.4c1.7,0,1.9,2.7,1.9,4.2
				C42.3,34.4,42.1,37.1,40.4,37.1z"/>
			<path fill="#575B5B" d="M44.6,33c0-0.1,0-0.2,0-0.3c0-3.8-1.5-6.1-4.1-6.1c-2.7,0-4.3,2.4-4.3,6.2c0,0.1,0,0.1,0,0.2h2.3
				c0,0,0-0.1,0-0.1c0-2.6,0.8-4.4,2-4.4c1.7,0,1.9,2.7,1.9,4.2c0,0.1,0,0.2,0,0.3H44.6z"/>
		</g>
		<g>
			<path fill="#242626" d="M58.4,41.3c0,1.6-1.3,2.9-2.9,2.9h-5.7c-1.6,0-2.9-1.3-2.9-2.9V27.2c0-1.6,1.3-2.9,2.9-2.9h5.7
				c1.6,0,2.9,1.3,2.9,2.9V41.3z"/>
			<path fill="#E6EDED" d="M58.4,39.9c0,1.6-1.3,2.9-2.9,2.9h-5.7c-1.6,0-2.9-1.3-2.9-2.9V25.8c0-1.6,1.3-2.9,2.9-2.9h5.7
				c1.6,0,2.9,1.3,2.9,2.9V39.9z"/>
			<path fill="#FFFFFF" d="M55.5,22.8h-5.7c-1.6,0-2.9,1.3-2.9,2.9V33h11.6v-7.2C58.4,24.2,57.1,22.8,55.5,22.8z"/>
			<path fill="#070707" d="M52.7,26.6c-2.7,0-4.3,2.4-4.3,6.2c0,3.8,1.6,6.2,4.1,6.2c2.7,0,4.3-2.3,4.3-6.3
				C56.8,28.9,55.3,26.6,52.7,26.6z M52.6,37.1c-1.2,0-1.9-1.6-1.9-4.2c0-2.6,0.8-4.4,2-4.4c1.7,0,1.9,2.7,1.9,4.2
				C54.6,34.4,54.3,37.1,52.6,37.1z"/>
			<path fill="#575B5B" d="M56.8,33c0-0.1,0-0.2,0-0.3c0-3.8-1.5-6.1-4.1-6.1c-2.7,0-4.3,2.4-4.3,6.2c0,0.1,0,0.1,0,0.2h2.3
				c0,0,0-0.1,0-0.1c0-2.6,0.8-4.4,2-4.4c1.7,0,1.9,2.7,1.9,4.2c0,0.1,0,0.2,0,0.3H56.8z"/>
		</g>
	</g>
</g>
</svg>
