<?xml version="1.0" encoding="utf-8"?>
<!-- Generator: Adobe Illustrator 16.0.0, SVG Export Plug-In . SVG Version: 6.00 Build 0)  -->
<!DOCTYPE svg PUBLIC "-//W3C//DTD SVG 1.1//EN" "http://www.w3.org/Graphics/SVG/1.1/DTD/svg11.dtd">
<svg version="1.1" id="Layer_1" xmlns="http://www.w3.org/2000/svg" xmlns:xlink="http://www.w3.org/1999/xlink" x="0px" y="0px"
	 width="64px" height="64px" viewBox="0 0 64 64" enable-background="new 0 0 64 64" xml:space="preserve">
<g>
	<path fill="#A1E5F7" d="M52.1,50c4.7-5,7.6-11.9,7.6-19.3C59.8,15.4,47.3,2.9,32,2.9S4.2,15.4,4.2,30.8c0,7.4,2.9,14.2,7.6,19.2
		H52.1z"/>
	<path fill="#61CCF2" d="M12,50h40.1c4.7-5,7.6-11.9,7.6-19.3c0-15.3-12.4-27.6-27.7-27.6"/>
	<path fill="#BCBCBC" d="M58.6,56.5c0,3.7-0.2,6.5-3.9,6.5H8.9c-3.7,0-3.7-2.8-3.7-6.5l0,0c0-3.7,3-6.5,6.7-6.5h40
		C55.6,50,58.6,52.8,58.6,56.5L58.6,56.5z"/>
	<path fill="#A5A5A5" d="M58.6,56.5L58.6,56.5c0,3.7-0.2,6.5-3.9,6.5H8.9c-3.7,0-3.7-2.9-3.7-6.6l0,0"/>
	<circle fill="#D7F7FF" cx="16" cy="19.6" r="1.7"/>
	<circle fill="#D7F7FF" cx="20" cy="14.9" r="0.5"/>
	<circle fill="#D7F7FF" cx="15.9" cy="29.5" r="2.1"/>
	<circle fill="#D7F7FF" cx="22.4" cy="24.6" r="0.4"/>
	<circle fill="#D7F7FF" cx="18.4" cy="24.2" r="0.3"/>
	<circle fill="#D7F7FF" cx="21.9" cy="19.2" r="0.7"/>
	<circle fill="#D7F7FF" cx="28.1" cy="11.9" r="0.5"/>
	<circle fill="#D7F7FF" cx="24.1" cy="8.7" r="1"/>
	<circle fill="#D7F7FF" cx="12.5" cy="35.7" r="0.5"/>
	<circle fill="#D7F7FF" cx="15.9" cy="34.9" r="0.4"/>
	<circle fill="#D7F7FF" cx="11" cy="39" r="0.8"/>
	<circle fill="#D7F7FF" cx="11.2" cy="31.6" r="0.9"/>
	<ellipse transform="matrix(-0.917 -0.3988 0.3988 -0.917 11.6138 42.3849)" fill="#D7F7FF" cx="10.2" cy="20" rx="2.5" ry="8.7"/>
	<path fill="#0EB1DD" d="M52.1,50c4.7-5,7.6-12.1,7.6-19.5C59.8,15.2,47.3,2.7,32,2.7"/>
	<circle fill="#A1E5F7" cx="29.9" cy="19.8" r="0.9"/>
	<circle fill="#A1E5F7" cx="28.3" cy="24.3" r="0.2"/>
	<circle fill="#A1E5F7" cx="34.8" cy="16.9" r="1.8"/>
	<circle fill="#A1E5F7" cx="41.5" cy="28.4" r="0.7"/>
	<circle fill="#A1E5F7" cx="28.5" cy="17.9" r="0.4"/>
	<circle fill="#A1E5F7" cx="26.2" cy="25.3" r="0.5"/>
	<circle fill="#A1E5F7" cx="25" cy="31" r="1"/>
	<circle fill="#A1E5F7" cx="35.4" cy="22.9" r="1"/>
	<circle fill="#A1E5F7" cx="32.5" cy="11.8" r="0.9"/>
	<circle fill="#A1E5F7" cx="32.2" cy="7.3" r="0.6"/>
	<circle fill="#A1E5F7" cx="31.8" cy="22.8" r="0.6"/>
	<circle fill="#A1E5F7" cx="34" cy="27.7" r="1.3"/>
	<circle fill="#A1E5F7" cx="38.1" cy="25" r="0.4"/>
	<circle fill="#A1E5F7" cx="37.5" cy="20.4" r="0.6"/>
	<g>
		<rect x="26" y="40" fill="#0A9ACC" width="12" height="9"/>
		<path fill="#0A9ACC" d="M39.8,39.5c0,0.4-0.5,0.5-1,0.5H25.2c-0.6,0-1-0.1-1-0.5l0,0c0-0.4,0.5-0.5,1-0.5h13.6
			C39.4,39,39.8,39.1,39.8,39.5L39.8,39.5z"/>
	</g>
	<circle fill="#61CCF2" cx="42.1" cy="13.4" r="0.3"/>
	<circle fill="#61CCF2" cx="45.4" cy="19.6" r="1.9"/>
	<circle fill="#61CCF2" cx="48.4" cy="29.4" r="0.4"/>
	<circle fill="#61CCF2" cx="49.1" cy="33" r="0.5"/>
	<circle fill="#61CCF2" cx="53.4" cy="31.6" r="0.3"/>
	<circle fill="#61CCF2" cx="54.3" cy="37.4" r="1.2"/>
	<circle fill="#61CCF2" cx="51" cy="38.1" r="0.3"/>
	<circle fill="#61CCF2" cx="44.6" cy="24.5" r="0.4"/>
	<circle fill="#61CCF2" cx="51" cy="24.5" r="2.2"/>
	<circle fill="#61CCF2" cx="51.9" cy="29.5" r="0.9"/>
	<circle fill="#61CCF2" cx="40.5" cy="18.4" r="0.5"/>
	<circle fill="#61CCF2" cx="37.3" cy="9.5" r="0.5"/>
	<circle fill="#61CCF2" cx="43.8" cy="16" r="0.3"/>
	<circle fill="#61CCF2" cx="50.6" cy="19.4" r="0.7"/>
	<circle fill="#61CCF2" cx="48.5" cy="15" r="1.4"/>
	<ellipse fill="#61CCF2" cx="55.4" cy="23.4" rx="0" ry="0.8"/>
	<circle fill="#61CCF2" cx="42.1" cy="10.2" r="1"/>
	<circle fill="#61CCF2" cx="39.9" cy="6.8" r="0.7"/>
	<path fill="#EDB311" d="M34.6,2.4C34.6,3.2,33.8,4,33,4h-2c-0.8,0-1.6-0.8-1.6-1.6l0,0C29.4,1.6,30.1,1,31,1h2.2
		C34,1,34.6,1.5,34.6,2.4L34.6,2.4z"/>
	<path fill="#EA8D13" d="M34.6,2.4L34.6,2.4C34.6,3.3,33.9,4,33,4h-2c-0.9,0-1.6-0.7-1.6-1.6l0,0"/>
	<path fill="#0A9ACC" d="M50,49c0,0.6-0.4,1-1,1H15c-0.6,0-1-0.4-1-1l0,0c0-0.6,0.4-1,1-1h34C49.6,48,50,48.4,50,49L50,49z"/>
	<polygon fill="#0A9ACC" points="39.7,39.8 32,39.5 24.3,39.8 32,32.1 	"/>
	<path fill="#0A9ACC" d="M42,48.2c0,0.4-0.3,0.8-0.8,0.8h-0.4c-0.4,0-0.8-0.3-0.8-0.8v-4.4c0-0.4,0.3-0.8,0.8-0.8h0.4
		c0.4,0,0.8,0.3,0.8,0.8V48.2z"/>
	<path fill="#0A9ACC" d="M45,48.2c0,0.4-0.3,0.8-0.8,0.8h-0.4c-0.4,0-0.8-0.3-0.8-0.8v-4.4c0-0.4,0.3-0.8,0.8-0.8h0.4
		c0.4,0,0.8,0.3,0.8,0.8V48.2z"/>
	<path fill="#0A9ACC" d="M48,48.2c0,0.4-0.3,0.8-0.8,0.8h-0.4c-0.4,0-0.8-0.3-0.8-0.8v-4.4c0-0.4,0.3-0.8,0.8-0.8h0.4
		c0.4,0,0.8,0.3,0.8,0.8V48.2z"/>
	<path fill="#0A9ACC" d="M49,46.7c0,0.2-0.1,0.3-0.3,0.3h-9.4c-0.2,0-0.3-0.1-0.3-0.3v-0.4c0-0.2,0.1-0.3,0.3-0.3h9.4
		c0.2,0,0.3,0.1,0.3,0.3V46.7z"/>
	<circle fill="#61CCF2" cx="30.5" cy="43.3" r="2.2"/>
	<rect x="30" y="40" fill="#0A9ACC" width="1" height="8"/>
	<rect x="27" y="43" fill="#0A9ACC" width="7" height="1"/>
	<rect x="35" y="32" fill="#0A9ACC" width="3" height="8"/>
	<path fill="#0A9ACC" d="M39,32.2c0,0.4-0.3,0.8-0.8,0.8h-3.4c-0.4,0-0.8-0.3-0.8-0.8v-0.4c0-0.4,0.3-0.8,0.8-0.8h3.4
		c0.4,0,0.8,0.3,0.8,0.8V32.2z"/>
	<polygon fill="#0A9ACC" points="22.1,45 22.9,45 21.8,43 22.3,43 21.4,41 21.7,41 20.1,37.6 18.5,41 18.9,41 17.9,43 18.4,43 
		17.3,45 18,45 16.6,48 19.1,48 23.6,48 	"/>
	<polygon fill="#0A9ACC" points="17.9,46 18.4,46 17.7,45 18,45 17.5,44 17.7,44 16.7,42 15.8,44 16,44 15.4,45 15.7,45 15.1,46 
		15.5,46 14.6,48 16.1,48 18.8,48 	"/>
	<polygon fill="#0A9ACC" points="25.2,46 25.6,46 25,45 25.3,45 24.7,44 24.9,44 24,42 23,44 23.2,44 22.7,45 23,45 22.3,46 
		22.8,46 21.9,48 23.4,48 26,48 	"/>
	<g>
		<g>
			<circle fill="#BCBCBC" cx="13.9" cy="56.7" r="1.5"/>
			<path fill="#A5A5A5" d="M12.3,56.7c0-0.8,0.7-1.5,1.5-1.5c0.8,0,1.5,0.7,1.5,1.5"/>
		</g>
		<g>
			<circle fill="#BCBCBC" cx="21.1" cy="56.7" r="1.5"/>
			<path fill="#A5A5A5" d="M19.6,56.7c0-0.8,0.7-1.5,1.5-1.5c0.8,0,1.5,0.7,1.5,1.5"/>
		</g>
		<g>
			<circle fill="#BCBCBC" cx="28.4" cy="56.7" r="1.5"/>
			<path fill="#A5A5A5" d="M26.8,56.7c0-0.8,0.7-1.5,1.5-1.5c0.8,0,1.5,0.7,1.5,1.5"/>
		</g>
		<g>
			<circle fill="#BCBCBC" cx="35.6" cy="56.7" r="1.5"/>
			<path fill="#A5A5A5" d="M34.1,56.7c0-0.8,0.7-1.5,1.5-1.5c0.8,0,1.5,0.7,1.5,1.5"/>
		</g>
		<g>
			<circle fill="#BCBCBC" cx="42.9" cy="56.7" r="1.5"/>
			<path fill="#A5A5A5" d="M41.3,56.7c0-0.8,0.7-1.5,1.5-1.5c0.8,0,1.5,0.7,1.5,1.5"/>
		</g>
		<g>
			<circle fill="#BCBCBC" cx="50.1" cy="56.7" r="1.5"/>
			<path fill="#A5A5A5" d="M48.6,56.7c0-0.8,0.7-1.5,1.5-1.5c0.8,0,1.5,0.7,1.5,1.5"/>
		</g>
	</g>
</g>
</svg>
