<?xml version="1.0" encoding="utf-8"?>
<!-- Generator: Adobe Illustrator 16.0.0, SVG Export Plug-In . SVG Version: 6.00 Build 0)  -->
<!DOCTYPE svg PUBLIC "-//W3C//DTD SVG 1.1//EN" "http://www.w3.org/Graphics/SVG/1.1/DTD/svg11.dtd">
<svg version="1.1" id="Layer_1" xmlns="http://www.w3.org/2000/svg" xmlns:xlink="http://www.w3.org/1999/xlink" x="0px" y="0px"
	 width="64px" height="64px" viewBox="0 0 64 64" enable-background="new 0 0 64 64" xml:space="preserve">
<g>
	<path fill="#353A3A" d="M58.7,22H42V5.3C42,3.5,40.1,2,38.3,2H25.7C23.9,2,22,3.5,22,5.3V22H5.3C3.5,22,2,23.9,2,25.7v12.5
		C2,40.1,3.5,42,5.3,42H22v16.7c0,1.8,1.9,3.3,3.7,3.3h12.5c1.8,0,3.7-1.5,3.7-3.3V42h16.7c1.8,0,3.3-1.9,3.3-3.7V25.7
		C62,23.9,60.5,22,58.7,22z"/>
	<path fill="#1A1E1E" d="M2.2,38.3c0,1.8,1.3,3.7,3.1,3.7H22v16.7c0,1.8,1.9,3.3,3.7,3.3h12.5c1.8,0,3.7-1.5,3.7-3.3V42h16.7
		c1.8,0,3.3-1.9,3.3-3.7V25.7c0-1.8-1.5-3.7-3.3-3.7H42"/>
	<g>
		<g>
			<polygon fill="#FFFFFF" points="36.2,10 32,6.2 27.8,10 			"/>
			<polygon fill="#D2D8D8" points="36.2,10 32,6.2 31.5,10 			"/>
		</g>
		<g>
			<polygon fill="#FFFFFF" points="27.8,54 32,57.8 36.2,54 			"/>
			<polygon fill="#D2D8D8" points="27.8,54 32,57.8 32.5,54 			"/>
		</g>
	</g>
	<g>
		<g>
			<polygon fill="#FFFFFF" points="54,36.2 57.8,32 54,27.8 			"/>
			<polygon fill="#D2D8D8" points="54,36.2 57.8,32 54,31.5 			"/>
		</g>
		<g>
			<polygon fill="#FFFFFF" points="10,27.8 6.2,32 10,36.2 			"/>
			<polygon fill="#D2D8D8" points="10,27.8 6.2,32 10,32.5 			"/>
		</g>
	</g>
	<circle fill="#353A3A" cx="32" cy="32" r="3.7"/>
</g>
</svg>
