<?xml version="1.0" encoding="utf-8"?>
<!-- Generator: Adobe Illustrator 16.0.0, SVG Export Plug-In . SVG Version: 6.00 Build 0)  -->
<!DOCTYPE svg PUBLIC "-//W3C//DTD SVG 1.1//EN" "http://www.w3.org/Graphics/SVG/1.1/DTD/svg11.dtd">
<svg version="1.1" id="Layer_1" xmlns="http://www.w3.org/2000/svg" xmlns:xlink="http://www.w3.org/1999/xlink" x="0px" y="0px"
	 width="64px" height="64px" viewBox="0 0 64 64" enable-background="new 0 0 64 64" xml:space="preserve">
<g>
	<g>
		<path fill="#C42260" d="M49.9,14.5c0,5.2-4.3,9.5-9.5,9.5H23.6c-5.2,0-9.5-4.3-9.5-9.5l0,0c0-5.2,4.3-9.5,9.5-9.5h16.9
			C45.7,5,49.9,9.2,49.9,14.5L49.9,14.5z"/>
	</g>
	<g>
		<path fill="#99144A" d="M23.6,5h16.9c5.2,0,9.5,4.3,9.5,9.5l0,0c0,5.2-4.3,9.5-9.5,9.5"/>
	</g>
	<g>
		<path fill="#02243E" d="M58.7,22.8c0,6.7-11.9,14.7-26.7,14.7S5.3,29.5,5.3,22.8c0-6.7,11.9-12.1,26.7-12.1S58.7,16.2,58.7,22.8z"
			/>
	</g>
	<g>
		<g>
			<g>
				<g>
					<g>
						<path fill="#F7910B" d="M58.9,36.7c0,11.5-10.6,20.8-26.9,20.8c-16.3,0-26.9-9.3-26.9-20.8C5.1,25.2,15.7,7.9,32,7.9
							C48.3,7.9,58.9,25.2,58.9,36.7z"/>
					</g>
					<g>
						<path fill="#F7910B" d="M58.9,36.7c0,11.5-10.6,17.3-26.9,17.3c-16.3,0-26.9-5.8-26.9-17.3C5.1,25.2,15.7,6.1,32,6.1
							C48.3,6.1,58.9,25.2,58.9,36.7z"/>
					</g>
					<g>
						<path fill="#F9A908" d="M32,6.1c16.3,0,26.9,19.1,26.9,30.5c0,11.5-10.6,17.3-26.9,17.3"/>
					</g>
					<g>
						<path fill="#F9A908" d="M58.9,36.7c0,11.5-10.6,17.3-26.9,17.3c-16.3,0-26.9-5.8-26.9-17.3C5.1,25.2,15.7,7.9,32,7.9
							C48.3,7.9,58.9,25.2,58.9,36.7z"/>
					</g>
					<g>
						<path fill="#F9C55D" d="M5.1,36.7C5.1,25.2,15.7,7.9,32,7.9"/>
					</g>
					<g>
						<path fill="#F7910B" d="M32,7.9c16.3,0,26.9,17.3,26.9,28.8c0,11.5-10.6,20.8-26.9,20.8"/>
					</g>
					<g>
						<path fill="#EA7103" d="M32,7.9c16.3,0,26.9,17.3,26.9,28.8"/>
					</g>
					<g>
						<g>
							<path fill="#F9C55D" d="M28.3,34.8c0,1.1-3.1,0.6-6.9,0.6c-3.8,0-6.9,0.5-6.9-0.6s3.1-2,6.9-2C25.2,32.8,28.3,33.7,28.3,34.8
								z"/>
						</g>
						<g>
							<path fill="#F9A908" d="M49.5,34.8c0,1.1-3.1,0.6-6.9,0.6c-3.8,0-6.9,0.5-6.9-0.6s3.1-2,6.9-2C46.4,32.8,49.5,33.7,49.5,34.8
								z"/>
						</g>
					</g>
					<g>
						<circle fill="#F7910B" cx="12.8" cy="34" r="0.6"/>
					</g>
					<g>
						<circle fill="#F7910B" cx="8.8" cy="35.8" r="1"/>
					</g>
					<g>
						<circle fill="#F7910B" cx="11.5" cy="32.2" r="0.2"/>
					</g>
					<g>
						<circle fill="#F7910B" cx="15.5" cy="33.8" r="0.2"/>
					</g>
					<g>
						<path fill="#F9A908" d="M50.9,34.3c0,0.4-0.3,0.7-0.7,0.7c-0.4,0-0.7-0.3-0.7-0.7c0-0.4,0.3-0.7,0.7-0.7
							C50.6,33.7,50.9,34,50.9,34.3z"/>
					</g>
					<g>
						<circle fill="#F9A908" cx="52.4" cy="35.5" r="0.2"/>
					</g>
					<g>
						<circle fill="#F9A908" cx="47.7" cy="27.7" r="0.3"/>
					</g>
					<g>
						<circle fill="#F9A908" cx="47.3" cy="38" r="1.2"/>
					</g>
					<g>
						<path fill="#F9A908" d="M54.2,38.1c0,0.3-0.2,0.6-0.6,0.6c-0.3,0-0.6-0.2-0.6-0.6s0.2-0.6,0.6-0.6
							C54,37.5,54.2,37.8,54.2,38.1z"/>
					</g>
					<g>
						<circle fill="#F7910B" cx="11.9" cy="37.6" r="0.4"/>
					</g>
					<g>
						<path fill="#F7910B" d="M13,30.1c0,0.2-0.2,0.4-0.4,0.4c-0.2,0-0.4-0.2-0.4-0.4c0-0.2,0.2-0.4,0.4-0.4
							C12.8,29.7,13,29.9,13,30.1z"/>
					</g>
					<g>
						<path fill="#F9A908" d="M8.9,17.9c0,0.5-0.4,1-1,1c-0.5,0-1-0.4-1-1c0-0.5,0.4-1,1-1C8.5,16.9,8.9,17.4,8.9,17.9z"/>
					</g>
					<g>
						<circle fill="#F9A908" cx="10.8" cy="14.8" r="0.5"/>
					</g>
					<g>
						<circle fill="#F9A908" cx="56.1" cy="20" r="0.2"/>
					</g>
					<g>
						<circle fill="#F9A908" cx="55.4" cy="17.4" r="0.7"/>
					</g>
					<g>
						<path fill="#F9A908" d="M58.1,17.9c0,0.2-0.2,0.4-0.4,0.4c-0.2,0-0.4-0.2-0.4-0.4c0-0.2,0.2-0.4,0.4-0.4
							C57.9,17.5,58.1,17.7,58.1,17.9z"/>
					</g>
					<g>
						<circle fill="#F9A908" cx="9" cy="20.5" r="0.5"/>
					</g>
				</g>
			</g>
		</g>
		<g>
			<g>
				<g>
					<g>
						<g>
							<g>
								<path fill="#1E4784" d="M45.5,33.6c-0.4,0-0.7-0.1-1-0.4c-1.3-1.2-3.3-1.2-4.5,0c-0.6,0.6-1.5,0.6-2.1,0
									c-0.6-0.6-0.6-1.5,0-2.1c2.4-2.4,6.3-2.4,8.6,0c0.6,0.6,0.6,1.5,0,2.1C46.3,33.5,45.9,33.6,45.5,33.6z"/>
							</g>
						</g>
						<g>
							<g>
								<path fill="#02243E" d="M46.5,31.1c0.6,0.6,0.6,1.5,0,2.1c-0.3,0.3-0.7,0.4-1,0.4c-0.4,0-0.7-0.1-1-0.4
									c-1.3-1.2-3.3-1.2-4.5,0c-0.6,0.6-1.5,0.6-2.1,0c-0.6-0.6-0.6-1.5,0-2.1"/>
							</g>
						</g>
					</g>
				</g>
			</g>
			<g>
				<g>
					<g>
						<g>
							<g>
								<path fill="#1E4784" d="M18.5,33.6c0.4,0,0.7-0.1,1-0.4c1.2-1.2,3.3-1.2,4.5,0c0.6,0.6,1.5,0.6,2.1,0c0.6-0.6,0.6-1.5,0-2.1
									c-2.4-2.4-6.3-2.4-8.6,0c-0.6,0.6-0.6,1.5,0,2.1C17.7,33.5,18.1,33.6,18.5,33.6z"/>
							</g>
						</g>
						<g>
							<g>
								<path fill="#02243E" d="M17.5,31.1c-0.6,0.6-0.6,1.5,0,2.1c0.3,0.3,0.7,0.4,1,0.4c0.4,0,0.7-0.1,1-0.4
									c1.2-1.2,3.3-1.2,4.5,0c0.6,0.6,1.5,0.6,2.1,0c0.6-0.6,0.6-1.5,0-2.1"/>
							</g>
						</g>
					</g>
				</g>
			</g>
		</g>
		<g>
			<path fill="#F7910B" d="M39.3,44.1c0,2.5-3.3,6-7.3,6c-4,0-7.3-3.5-7.3-6"/>
		</g>
	</g>
	<g>
		<g>
			<g>
				<path fill="#073551" d="M13.1,31.8C13.1,38,12.4,43,9.4,43C6.4,43,1,38,1,31.8c0-6.2,5.4-11.2,8.4-11.2
					C12.4,20.6,13.1,25.6,13.1,31.8z"/>
			</g>
			<g>
				<path fill="#02243E" d="M13.1,31.8C13.1,38,12.4,43,9.4,43C6.4,43,1,38,1,31.8"/>
			</g>
			<g>
				<path fill="#1E4784" d="M1,31.8c0,5,3.6,9.3,6.6,10.7c0.4-3.2,0.7-6.9,0.7-10.7c0-3.8-0.2-7.5-0.7-10.7C4.6,22.5,1,26.8,1,31.8z
					"/>
			</g>
			<g>
				<path fill="#0F3A6D" d="M1,31.8c0,5,3.6,9.3,6.6,10.7c0.4-3.2,0.7-6.9,0.7-10.7"/>
			</g>
			<g>
				<path fill="#C42260" d="M1,31.8C1,35.6,3.1,39,5.3,41c0.6-2.3,1.1-5.6,1.1-9.2c0-3.6-0.4-6.9-1.1-9.2C3.1,24.6,1,28,1,31.8z"/>
			</g>
			<g>
				<path fill="#99144A" d="M1,31.8C1,35.6,3.1,39,5.3,41c0.6-2.3,1.1-5.6,1.1-9.2"/>
			</g>
			<g>
				<g>
					<circle fill="#C42260" cx="10" cy="27.7" r="0.6"/>
				</g>
				<g>
					<circle fill="#C42260" cx="10" cy="31.8" r="0.6"/>
				</g>
				<g>
					<circle fill="#C42260" cx="10" cy="36" r="0.6"/>
				</g>
			</g>
		</g>
		<g>
			<g>
				<path fill="#073551" d="M50.9,31.8c0,6.2,0.7,11.2,3.7,11.2c3,0,8.4-5,8.4-11.2c0-6.2-5.4-11.2-8.4-11.2
					C51.6,20.6,50.9,25.6,50.9,31.8z"/>
			</g>
			<g>
				<path fill="#02243E" d="M50.9,31.8c0,6.2,0.7,11.2,3.7,11.2c3,0,8.4-5,8.4-11.2"/>
			</g>
			<g>
				<path fill="#1E4784" d="M63,31.8c0,5-3.6,9.3-6.6,10.7c-0.4-3.2-0.7-6.9-0.7-10.7c0-3.8,0.2-7.5,0.7-10.7
					C59.4,22.5,63,26.8,63,31.8z"/>
			</g>
			<g>
				<path fill="#0F3A6D" d="M63,31.8c0,5-3.6,9.3-6.6,10.7c-0.4-3.2-0.7-6.9-0.7-10.7"/>
			</g>
			<g>
				<path fill="#C42260" d="M63,31.8c0,3.8-2.1,7.2-4.3,9.2c-0.7-2.3-1.1-5.6-1.1-9.2c0-3.6,0.4-6.9,1.1-9.2
					C60.9,24.6,63,28,63,31.8z"/>
			</g>
			<g>
				<path fill="#99144A" d="M63,31.8c0,3.8-2.1,7.2-4.3,9.2c-0.7-2.3-1.1-5.6-1.1-9.2"/>
			</g>
			<g>
				<g>
					<circle fill="#C42260" cx="54" cy="27.7" r="0.6"/>
				</g>
				<g>
					<circle fill="#C42260" cx="54" cy="31.8" r="0.6"/>
				</g>
				<g>
					<circle fill="#C42260" cx="54" cy="36" r="0.6"/>
				</g>
			</g>
		</g>
	</g>
	<g>
		<g>
			<polygon fill="#6965A8" points="47.5,47.1 42.2,48.2 42.2,46.8 47.5,45.6 			"/>
		</g>
		<g>
			<polygon fill="#4C4C8C" points="42.2,47.1 42.2,56.3 43.5,56.3 43.5,46.9 			"/>
		</g>
		<g>
			<polygon fill="#6965A8" points="40.7,59 38.9,57.1 42.3,53.7 43.5,56.3 			"/>
		</g>
	</g>
	<g>
		<g>
			<polygon fill="#6965A8" points="56.2,42.7 50.8,43.8 50.8,42.4 56.2,41.2 			"/>
		</g>
		<g>
			<polygon fill="#4C4C8C" points="50.9,42.8 50.9,51.9 52.2,51.9 52.2,42.5 			"/>
		</g>
		<g>
			<polygon fill="#6965A8" points="49.4,54.6 47.5,52.7 51,49.3 52.2,51.9 			"/>
		</g>
	</g>
	<g>
		<g>
			<polygon fill="#6965A8" points="40.8,45.2 38,45.7 38,45 40.8,44.4 			"/>
		</g>
		<g>
			<polygon fill="#4C4C8C" points="38.1,45.2 38.1,49.9 38.7,49.9 38.7,45 			"/>
		</g>
		<g>
			<polygon fill="#6965A8" points="37.3,51.3 36.3,50.3 38.1,48.6 38.7,49.9 			"/>
		</g>
	</g>
	<g>
		<g>
			<g>
				<g>
					<path fill="#037A66" d="M26.3,16.1c0.2,0.8-1.2,0.8-2.9,1.3c-1.7,0.5-2.9,1.3-3.2,0.5c-0.2-0.8,0.9-1.9,2.6-2.4
						C24.5,15,26.1,15.2,26.3,16.1z"/>
				</g>
			</g>
		</g>
		<g>
			<g>
				<g>
					<path fill="#037A66" d="M37.7,16.1c-0.2,0.8,1.2,0.8,2.9,1.3c1.7,0.5,2.9,1.3,3.2,0.5c0.2-0.8-0.9-1.9-2.6-2.4
						C39.5,15,37.9,15.2,37.7,16.1z"/>
				</g>
			</g>
		</g>
	</g>
	<g>
		<path fill="#99144A" d="M34.4,42.6c0,2-1.1,2.6-2.4,2.6s-2.4-0.6-2.4-2.6c0-1.9,1.1-3.5,2.4-3.5S34.4,40.7,34.4,42.6z"/>
	</g>
</g>
</svg>
