<?xml version="1.0" encoding="utf-8"?>
<!-- Generator: Adobe Illustrator 16.0.0, SVG Export Plug-In . SVG Version: 6.00 Build 0)  -->
<!DOCTYPE svg PUBLIC "-//W3C//DTD SVG 1.1//EN" "http://www.w3.org/Graphics/SVG/1.1/DTD/svg11.dtd">
<svg version="1.1" id="Layer_1" xmlns="http://www.w3.org/2000/svg" xmlns:xlink="http://www.w3.org/1999/xlink" x="0px" y="0px"
	 width="65px" height="65px" viewBox="0 0 65 65" enable-background="new 0 0 65 65" xml:space="preserve">
<g>
	<g>
		<g>
			<path fill="#8F9E9C" d="M36.061,33.266c1.432,1.273,4.228,0.465,6.249-1.805c2.018-2.27,10.793-14.475,9.365-15.75
				c-1.434-1.271-12.532,8.873-14.55,11.143C35.107,29.121,34.63,31.992,36.061,33.266z"/>
			<g>
				<g>
					<g>
						<path fill="#232728" d="M29.2,46.446c0,2.476-2.008,15.827-4.486,15.827c-2.475,0-4.482-13.352-4.482-15.827
							s2.008-4.484,4.482-4.484C27.192,41.962,29.2,43.971,29.2,46.446z"/>
						<path fill="#232728" d="M44.225,46.446c0,2.476-2.008,15.827-4.486,15.827c-2.475,0-4.482-13.352-4.482-15.827
							s2.008-4.484,4.482-4.484C42.217,41.962,44.225,43.971,44.225,46.446z"/>
					</g>
					<path fill="#A5B7B5" d="M44.877,40.521c0,16.038-5.663,10.697-12.65,10.697c-6.986,0-12.65,5.341-12.65-10.697
						c0-9.17,5.666-16.603,12.65-16.603C39.213,23.919,44.877,31.352,44.877,40.521z"/>
					<path fill="#8F9E9C" d="M32.227,46.969c-6.553,0-11.943,4.698-12.586-7.955c-0.043,0.439-0.064,0.939-0.064,1.508
						c0,16.038,5.664,10.697,12.65,10.697c6.987,0,12.65,5.341,12.65-10.697c0-0.568-0.021-1.068-0.064-1.508
						C44.169,51.667,38.782,46.969,32.227,46.969z"/>
					<g>
						<path fill="#11D3C0" d="M29.76,62.354c0,1.896-2.26,2.146-5.046,2.146c-2.784,0-5.045-0.249-5.045-2.146
							c0-1.897,2.261-4.508,5.045-4.508C27.5,57.847,29.76,60.457,29.76,62.354z"/>
						<path fill="#13A9D1" d="M29.76,62.354c0,1.896-2.26,2.146-5.046,2.146c-2.784,0-5.045-0.249-5.045-2.146"/>
					</g>
					<g>
						<path fill="#11D3C0" d="M44.785,62.354c0,1.896-2.258,2.146-5.044,2.146c-2.785,0-5.045-0.249-5.045-2.146
							c0-1.897,2.26-4.508,5.045-4.508C42.527,57.847,44.785,60.457,44.785,62.354z"/>
						<path fill="#13A9D1" d="M44.785,62.354c0,1.896-2.258,2.146-5.044,2.146c-2.785,0-5.045-0.249-5.045-2.146"/>
					</g>
					<g>
						<path fill="#A5B7B5" d="M30.833,26.369c1.273,1.432,0.465,4.228-1.805,6.249c-2.27,2.018-14.476,10.794-15.75,9.365
							c-1.271-1.434,8.874-12.532,11.142-14.55C26.688,25.415,29.559,24.938,30.833,26.369z"/>
					</g>
					<polygon fill="#CE8C67" points="29.859,26.208 35.109,34.583 37.875,25.854 					"/>
					<g>
						<path fill="#E8B085" d="M48.598,16.275c0,7.999-7.331,12.02-16.369,12.02c-9.041,0-16.373-4.021-16.373-12.02
							c0-8.001,7.332-15.775,16.373-15.775C41.267,0.5,48.598,8.274,48.598,16.275z"/>
						<path fill="#DD9F76" d="M48.598,16.275c0,7.999-7.331,12.02-16.369,12.02c-9.041,0-16.373-4.021-16.373-12.02"/>
					</g>
					<g>
						<g>
							<circle fill="#113E49" cx="29.165" cy="17.75" r="1.464"/>
							<path d="M30.628,17.75c0,0.811-0.656,1.465-1.465,1.465s-1.463-0.654-1.463-1.465"/>
							<g>
								<path fill="#F4C3A2" d="M32.052,20.804c-0.078,0-0.158-0.028-0.219-0.091c-0.715-0.714-1.664-1.107-2.672-1.107H29.16
									c-1.008,0-1.955,0.394-2.666,1.106c-0.121,0.121-0.316,0.124-0.436,0.001c-0.121-0.117-0.125-0.312-0.004-0.434
									c0.83-0.831,1.932-1.29,3.105-1.29h0.002c1.176,0,2.279,0.456,3.111,1.288c0.119,0.119,0.119,0.318,0,0.436
									C32.212,20.775,32.134,20.804,32.052,20.804z"/>
							</g>
						</g>
						<g>
							<circle fill="#113E49" cx="44.735" cy="17.75" r="1.464"/>
							<path d="M43.271,17.75c0,0.811,0.654,1.465,1.465,1.465c0.809,0,1.463-0.654,1.463-1.465"/>
							<g>
								<path fill="#F4C3A2" d="M41.847,20.804c0.076,0,0.156-0.028,0.217-0.091c0.715-0.714,1.664-1.107,2.672-1.107h0.002
									c1.008,0,1.957,0.394,2.668,1.106c0.119,0.121,0.314,0.124,0.436,0.001c0.121-0.117,0.123-0.312,0.002-0.434
									c-0.826-0.831-1.932-1.29-3.105-1.29h-0.002c-1.174,0-2.277,0.456-3.111,1.288c-0.117,0.119-0.117,0.318,0,0.436
									C41.687,20.775,41.765,20.804,41.847,20.804z"/>
							</g>
						</g>
					</g>
				</g>
				<g>
					<g>
						<path fill="#663F24" d="M38.191,21.179c0,0-1.711-3.682-6.312-0.657c-4.601,3.025-4.996,2.103-4.996,2.103
							s4.864,3.553,10.125,1.318l0.789-0.66L38.191,21.179z"/>
						<path fill="#543722" d="M26.882,22.624c0,0,4.864,3.553,10.125,1.318l0.789-0.66l0.395-2.104"/>
					</g>
					<g>
						<path fill="#663F24" d="M37.267,21.179c0,0,1.709-3.682,6.311-0.657c4.602,3.025,4.996,2.103,4.996,2.103
							s-4.863,3.553-10.123,1.318l-0.791-0.66L37.267,21.179z"/>
						<path fill="#543722" d="M48.574,22.624c0,0-4.863,3.553-10.123,1.318l-0.791-0.66l-0.393-2.104"/>
					</g>
				</g>
			</g>
			<path fill="#663F24" d="M16.067,14.167c0,0,2.25-4.75,4.25,0v4.167h1.667v-4.5l3.709-3.708c0,0-2.479-8.512-6.146-5.012
				s-3.813,6.053-3.729,7.553C15.902,14.167,16.067,14.167,16.067,14.167z"/>
		</g>
	</g>
	<circle fill="#6A7775" cx="35.109" cy="37.708" r="0.75"/>
	<circle fill="#6A7775" cx="35.109" cy="41.708" r="0.75"/>
	<circle fill="#6A7775" cx="35.109" cy="45.708" r="0.75"/>
</g>
</svg>
