<?xml version="1.0" encoding="utf-8"?>
<!-- Generator: Adobe Illustrator 16.0.0, SVG Export Plug-In . SVG Version: 6.00 Build 0)  -->
<!DOCTYPE svg PUBLIC "-//W3C//DTD SVG 1.1//EN" "http://www.w3.org/Graphics/SVG/1.1/DTD/svg11.dtd">
<svg version="1.1" xmlns="http://www.w3.org/2000/svg" xmlns:xlink="http://www.w3.org/1999/xlink" x="0px" y="0px" width="65px"
	 height="65px" viewBox="0 0 65 65" enable-background="new 0 0 65 65" xml:space="preserve">
<g id="Layer_1">
	<g>
		<g>
			<g>
				<g>
					<g>
						<path fill="#FF7F00" d="M32.562,3.396c-11.376,2.429-20.117,16.734-20.117,34.07c0,17.335,8.741,23.222,20.117,24.137"/>
					</g>
					<g>
						<path fill="#6D3007" d="M32.565,64.049c-0.066,0-0.132-0.003-0.199-0.008C17.525,62.847,10,53.906,10,37.467
							c0-18.399,9.274-33.733,22.052-36.462c1.321-0.279,2.621,0.561,2.902,1.882c0.282,1.32-0.561,2.619-1.882,2.902
							C22.708,8.001,14.892,21.62,14.892,37.467c0,13.822,5.677,20.719,17.866,21.698c1.347,0.109,2.351,1.288,2.242,2.634
							C34.896,63.079,33.827,64.049,32.565,64.049z"/>
					</g>
				</g>
			</g>
			<g>
				<g>
					<path fill="#FF4800" d="M32.444,3.396c11.369,2.429,20.11,16.734,20.11,34.07c0,17.335-8.741,23.222-20.11,24.137"/>
				</g>
				<g>
					<path fill="#6D3007" d="M32.441,64.049c-1.262,0-2.332-0.97-2.435-2.25c-0.108-1.346,0.895-2.524,2.242-2.634
						c12.184-0.98,17.859-7.876,17.859-21.698c0-15.846-7.813-29.466-18.175-31.678c-1.32-0.283-2.163-1.582-1.881-2.903
						s1.583-2.155,2.903-1.881C45.729,3.734,55,19.068,55,37.467c0,16.439-7.522,25.38-22.359,26.574
						C32.574,64.046,32.508,64.049,32.441,64.049z"/>
				</g>
			</g>
		</g>
		<g>
			<g>
				<g>
					<g>
						<path fill="#FFCE55" d="M32.54,24.826c-7.188,1.533-12.711,10.573-12.711,21.526c0,10.954,5.523,14.674,12.711,15.251"/>
					</g>
					<g>
						<path fill="#6D3007" d="M32.543,64.049c-0.065,0-0.132-0.003-0.198-0.008c-9.788-0.786-14.961-6.902-14.961-17.688
							c0-12.049,6.16-22.108,14.646-23.919c1.321-0.279,2.62,0.561,2.902,1.882c0.281,1.321-0.562,2.621-1.883,2.902
							c-6.143,1.31-10.774,9.536-10.774,19.135c0,8.28,3.226,12.231,10.461,12.812c1.346,0.108,2.35,1.288,2.242,2.634
							C34.875,63.078,33.805,64.049,32.543,64.049z"/>
					</g>
				</g>
			</g>
			<g>
				<g>
					<path fill="#FFD561" d="M32.466,24.826c7.184,1.533,12.705,10.573,12.705,21.526c0,10.954-5.521,14.674-12.705,15.251"/>
				</g>
				<g>
					<path fill="#6D3007" d="M32.463,64.049c-1.262,0-2.332-0.97-2.436-2.25c-0.107-1.346,0.896-2.525,2.242-2.634
						c7.231-0.581,10.455-4.532,10.455-12.812c0-9.599-4.629-17.825-10.77-19.135c-1.321-0.281-2.163-1.582-1.882-2.902
						c0.282-1.322,1.585-2.161,2.902-1.882c8.483,1.812,14.641,11.87,14.641,23.919c0,10.786-5.171,16.902-14.955,17.688
						C32.595,64.046,32.528,64.049,32.463,64.049z"/>
				</g>
			</g>
		</g>
	</g>
</g>
<g id="nyt_x5F_exporter_x5F_info" display="none">
</g>
</svg>
