<?xml version="1.0" encoding="utf-8"?>
<!-- Generator: Adobe Illustrator 16.0.0, SVG Export Plug-In . SVG Version: 6.00 Build 0)  -->
<!DOCTYPE svg PUBLIC "-//W3C//DTD SVG 1.1//EN" "http://www.w3.org/Graphics/SVG/1.1/DTD/svg11.dtd">
<svg version="1.1" id="Layer_1" xmlns="http://www.w3.org/2000/svg" xmlns:xlink="http://www.w3.org/1999/xlink" x="0px" y="0px"
	 width="65px" height="65px" viewBox="0 0 65 65" enable-background="new 0 0 65 65" xml:space="preserve">
<g>
	<g>
		<g>
			<g>
				<g>
					<path fill="#6B8C85" d="M18.709,45.905c0,2.476-2.008,15.827-4.486,15.827c-2.475,0-4.482-13.352-4.482-15.827
						s2.008-4.484,4.482-4.484C16.701,41.421,18.709,43.43,18.709,45.905z"/>
					<path fill="#6B8C85" d="M33.734,45.905c0,2.476-2.008,15.827-4.486,15.827c-2.475,0-4.482-13.352-4.482-15.827
						s2.008-4.484,4.482-4.484C31.727,41.421,33.734,43.43,33.734,45.905z"/>
				</g>
				<path fill="#1C1C1B" d="M34.387,39.98c0,16.038-5.662,10.697-12.65,10.697c-6.986,0-12.65,5.341-12.65-10.697
					c0-9.17,5.666-16.604,12.65-16.604C28.723,23.377,34.387,30.811,34.387,39.98z"/>
				<g>
					<path fill="#113E49" d="M19.27,61.813c0,1.896-2.26,2.146-5.045,2.146S9.18,63.71,9.18,61.813c0-1.897,2.26-4.508,5.045-4.508
						S19.27,59.916,19.27,61.813z"/>
					<path fill="#072328" d="M19.27,61.813c0,1.896-2.26,2.146-5.045,2.146S9.18,63.71,9.18,61.813"/>
				</g>
				<g>
					<path fill="#113E49" d="M34.295,61.813c0,1.896-2.26,2.146-5.045,2.146s-5.045-0.249-5.045-2.146
						c0-1.897,2.26-4.508,5.045-4.508S34.295,59.916,34.295,61.813z"/>
					<path fill="#072328" d="M34.295,61.813c0,1.896-2.26,2.146-5.045,2.146s-5.045-0.249-5.045-2.146"/>
				</g>
			</g>
		</g>
		<g>
			<g>
				<path fill="#EDA366" d="M33.574,36.984c0.602-1.821-1.252-4.065-4.139-5.019c-2.883-0.951-17.57-4.153-18.174-2.337
					c-0.598,1.82,13.121,7.975,16.006,8.926C30.15,39.507,32.975,38.803,33.574,36.984z"/>
			</g>
			<g>
				<g>
					
						<ellipse transform="matrix(0.4114 0.9115 -0.9115 0.4114 44.8853 -4.382)" fill="#545354" cx="25.835" cy="32.562" rx="1.228" ry="0.28"/>
					<g>
						<path fill="#EF296B" d="M33.542,26.715c-0.134,0.062-0.293-0.001-0.353-0.134l-2.004-4.443c-0.059-0.132,0-0.291,0.135-0.351
							l0,0c0.133-0.062,0.291-0.001,0.352,0.132l2.003,4.445C33.736,26.497,33.676,26.653,33.542,26.715L33.542,26.715z"/>
						<path fill="#EF296B" d="M37.543,35.591c-0.135,0.059-0.29,0-0.352-0.135l-2.004-4.442c-0.06-0.134,0-0.292,0.133-0.353l0,0
							c0.135-0.061,0.293,0,0.353,0.133l2.004,4.445C37.736,35.372,37.678,35.529,37.543,35.591L37.543,35.591z"/>
					</g>
					<g>
						<path fill="#C40033" d="M33.542,26.715c-0.044,0.02-0.129-0.073-0.188-0.208l-2.003-4.441c-0.06-0.134-0.073-0.26-0.03-0.278
							l0,0c0.043-0.021,0.127,0.073,0.188,0.206l2.003,4.442C33.57,26.57,33.586,26.695,33.542,26.715L33.542,26.715z"/>
						<path fill="#C40033" d="M37.543,35.591c-0.043,0.018-0.127-0.074-0.189-0.208l-2.002-4.444
							c-0.061-0.133-0.072-0.258-0.031-0.277l0,0c0.045-0.021,0.128,0.073,0.189,0.207l2.002,4.443
							C37.572,35.444,37.586,35.569,37.543,35.591L37.543,35.591z"/>
					</g>
					<path fill="#EF296B" d="M35.727,28.981c-0.322,0.146-0.701,0.002-0.848-0.32l-0.131-0.292c-0.145-0.321-0.002-0.7,0.32-0.845
						l19.812-8.934c0.32-0.145,0.7-0.001,0.844,0.32l0.133,0.293c0.145,0.321,0.002,0.699-0.321,0.845L35.727,28.981z"/>
					<path fill="#C40033" d="M35.582,28.665c-0.322,0.145-0.65,0.115-0.731-0.066l-0.073-0.166
						c-0.082-0.182,0.112-0.446,0.434-0.592l19.812-8.934c0.321-0.145,0.649-0.113,0.731,0.067l0.075,0.165
						c0.081,0.184-0.114,0.447-0.435,0.594L35.582,28.665z"/>
					<path fill="#545354" d="M35.785,31.692c-0.2,0.092-0.305,0.293-0.396,0.092l-2.643-5.865c-0.092-0.199,0.13-0.145,0.33-0.235
						l0,0c0.201-0.09,0.305-0.292,0.397-0.091l2.643,5.863C36.209,31.657,35.986,31.601,35.785,31.692L35.785,31.692z"/>
					<path fill="#686768" d="M36.116,31.456l-2.643-5.863c-0.017-0.037-0.034-0.057-0.054-0.069
						c-0.016,0.011-0.033,0.021-0.052,0.028c-0.053,0.023-0.104,0.037-0.153,0.049c-0.041,0.029-0.086,0.059-0.139,0.083
						c-0.019,0.009-0.037,0.015-0.058,0.021c-0.001,0.021,0.001,0.049,0.019,0.084l2.643,5.864c0.017,0.037,0.033,0.056,0.053,0.069
						c0.018-0.011,0.034-0.021,0.053-0.029c0.053-0.023,0.106-0.037,0.154-0.048c0.039-0.03,0.086-0.06,0.137-0.083
						c0.021-0.01,0.041-0.016,0.059-0.022C36.137,31.519,36.135,31.491,36.116,31.456z"/>
					<path fill="#7C7C7C" d="M36.076,31.562c0.021-0.01,0.041-0.016,0.059-0.022c0.002-0.021,0-0.048-0.019-0.083l-2.643-5.863
						c-0.017-0.037-0.034-0.057-0.054-0.069c-0.016,0.011-0.033,0.021-0.052,0.028c-0.021,0.01-0.043,0.014-0.063,0.021
						c-0.021,0.012-0.037,0.024-0.057,0.034c-0.02,0.009-0.039,0.016-0.059,0.023c-0.002,0.021,0.002,0.046,0.018,0.082l2.644,5.864
						c0.015,0.035,0.034,0.057,0.052,0.067c0.016-0.009,0.035-0.019,0.054-0.026c0.021-0.011,0.042-0.015,0.062-0.021
						C36.039,31.584,36.055,31.57,36.076,31.562z"/>
					<path fill="#7C7C7C" d="M30.994,31.224c-0.32,0.145-0.699,0.002-0.844-0.32l-0.215-0.473c-0.145-0.322-0.002-0.701,0.32-0.846
						l3.242-1.461c0.322-0.146,0.699-0.002,0.845,0.319l0.213,0.474c0.146,0.322,0.003,0.699-0.319,0.844L30.994,31.224z"/>
					<path fill="#7C7C7C" d="M30.994,31.224c-0.32,0.145-0.699,0.002-0.844-0.32l-0.215-0.473c-0.145-0.322-0.002-0.701,0.32-0.846
						l3.242-1.461c0.322-0.146,0.699-0.002,0.845,0.319l0.213,0.474c0.146,0.322,0.003,0.699-0.319,0.844L30.994,31.224z"/>
					<path fill="#939393" d="M30.357,29.809l3.24-1.46c0.322-0.146,0.701-0.004,0.846,0.318l0.114,0.252
						c0-0.002-0.002-0.002-0.002-0.002l-0.213-0.474c-0.146-0.321-0.522-0.465-0.845-0.319l-3.242,1.461
						c-0.322,0.145-0.465,0.523-0.32,0.846l0.102,0.223C29.893,30.331,30.035,29.954,30.357,29.809z"/>
					<path fill="#686768" d="M33.498,28.124c0.322-0.146,0.699-0.002,0.845,0.319l0.213,0.474c0.146,0.322,0.003,0.699-0.319,0.844
						l-3.242,1.463c-0.32,0.145-0.699,0.002-0.844-0.32"/>
					<path fill="#545354" d="M33.498,28.124c0.322-0.146,0.699-0.002,0.845,0.319l0.213,0.474c0.146,0.322,0.003,0.699-0.319,0.844
						l-1.494,0.674"/>
					<path fill="#7C7C7C" d="M27.135,33.353c-0.323,0.143-0.703,0.001-0.848-0.321l-0.503-1.116
						c-0.145-0.322-0.001-0.701,0.319-0.846l1.992-0.897c0.321-0.145,0.569-0.293,1.297-0.235l0.767,1.699
						c-0.438,0.586-0.712,0.673-1.034,0.818L27.135,33.353z"/>
					<path fill="#686768" d="M28.096,30.172c0.321-0.145,0.569-0.293,1.297-0.235l0.767,1.699c-0.438,0.586-0.712,0.673-1.034,0.818
						l-1.99,0.898c-0.323,0.143-0.703,0.001-0.848-0.321"/>
					<path fill="#545354" d="M28.096,30.172c0.321-0.145,0.569-0.293,1.297-0.235l0.767,1.699c-0.438,0.586-0.712,0.673-1.034,0.818
						l-1.118,0.502"/>
					<path fill="#7C7C7C" d="M26.55,33.875c-0.116,0.054-0.253,0.003-0.306-0.115l-1.035-2.296
						c-0.053-0.116-0.001-0.253,0.115-0.305l0.418-0.188c0.117-0.053,0.253,0,0.303,0.115l1.037,2.297
						c0.053,0.115,0.002,0.25-0.113,0.303L26.55,33.875z"/>
					<path fill="#686768" d="M26.969,33.687l-0.419,0.188c-0.116,0.054-0.253,0.003-0.306-0.115l-1.035-2.296
						c-0.053-0.116-0.001-0.253,0.115-0.305l0.418-0.188"/>
					<path fill="#686768" d="M30.227,31.692c-0.055,0.022-0.119-0.002-0.145-0.058l-0.741-1.642
						c-0.022-0.053,0.001-0.117,0.057-0.142l0.271-0.122c0.054-0.025,0.118-0.001,0.143,0.054l0.739,1.642
						c0.025,0.055,0.002,0.119-0.055,0.143L30.227,31.692z"/>
					<path fill="#545354" d="M30.627,31.51c-0.054,0.026-0.119,0-0.143-0.054l-0.741-1.643c-0.025-0.054-0.001-0.118,0.055-0.143
						l0.271-0.123c0.055-0.023,0.119,0.001,0.145,0.055l0.738,1.643c0.025,0.054,0.002,0.119-0.053,0.143L30.627,31.51z"/>
					<path fill="#494948" d="M34.695,29.905c-0.321,0.146-0.7,0.002-0.846-0.318l-0.475-1.057c-0.146-0.322-0.004-0.701,0.318-0.847
						l0.473-0.214c0.323-0.145,0.701-0.001,0.847,0.321l0.476,1.055c0.146,0.323,0.003,0.7-0.318,0.847L34.695,29.905z"/>
					<path fill="#686768" d="M35.68,29.307c-0.094,0.041-0.202,0.001-0.244-0.091l-0.734-1.631c-0.042-0.092,0-0.201,0.092-0.24
						l0.056-0.025c0.091-0.041,0.198-0.001,0.239,0.091l0.737,1.631c0.04,0.092-0.001,0.2-0.093,0.243L35.68,29.307z"/>
					<path fill="#7C7C7C" d="M35.625,28.597l-0.537-1.187c-0.041-0.092-0.148-0.132-0.239-0.091l-0.056,0.025
						c-0.092,0.039-0.134,0.148-0.092,0.24l0.535,1.187c0.041,0.093,0.148,0.134,0.242,0.093l0.055-0.025
						C35.626,28.798,35.666,28.688,35.625,28.597z"/>
					<g>
						<path fill="#686768" d="M32.55,25.968c-0.042-0.092-0.001-0.201,0.091-0.242l0.757-0.34c0.091-0.041,0.2,0,0.241,0.091
							l0.024,0.056c0.044,0.093,0.001,0.2-0.09,0.241l-0.757,0.343c-0.094,0.041-0.201,0-0.242-0.092L32.55,25.968z"/>
						<path fill="#7C7C7C" d="M32.736,25.935l0.756-0.342c0.068-0.03,0.107-0.102,0.105-0.173c-0.051-0.05-0.131-0.065-0.2-0.034
							l-0.757,0.34c-0.068,0.032-0.109,0.104-0.107,0.176C32.586,25.95,32.665,25.966,32.736,25.935z"/>
						<path fill="#686768" d="M35.199,31.843c-0.041-0.09-0.001-0.2,0.092-0.242l0.756-0.34c0.09-0.041,0.199,0,0.242,0.093
							l0.025,0.054c0.041,0.094,0,0.2-0.094,0.242l-0.756,0.342c-0.091,0.041-0.199,0-0.24-0.092L35.199,31.843z"/>
						<path fill="#7C7C7C" d="M35.385,31.811l0.756-0.341c0.068-0.031,0.108-0.103,0.106-0.174c-0.052-0.051-0.131-0.066-0.2-0.035
							l-0.756,0.34c-0.07,0.032-0.111,0.104-0.108,0.174C35.236,31.825,35.314,31.841,35.385,31.811z"/>
					</g>
					<path fill="#424042" d="M29.382,31.373c-0.181,0.081-0.758,0.167-0.841-0.016c-0.08-0.181,0.366-0.559,0.545-0.641
						c0.182-0.08,0.395,0,0.477,0.179C29.645,31.079,29.563,31.291,29.382,31.373z"/>
					<circle fill="#EF296B" cx="29.234" cy="31.045" r="0.36"/>
					<path fill="#DD1B65" d="M29.361,30.71c0.186,0.068,0.278,0.277,0.211,0.463c-0.071,0.186-0.279,0.279-0.465,0.209"/>
				</g>
				<g>
					<path fill="#686768" d="M34.518,27.812c0.012,0.026,0,0.06-0.029,0.071l-0.697,0.314c-0.029,0.014-0.062,0.002-0.072-0.025l0,0
						c-0.013-0.028,0-0.059,0.027-0.072l0.699-0.315C34.471,27.772,34.504,27.784,34.518,27.812L34.518,27.812z"/>
					<path fill="#686768" d="M34.675,28.159c0.011,0.029-0.001,0.062-0.028,0.072l-0.699,0.315c-0.029,0.013-0.061,0-0.071-0.028
						l0,0c-0.013-0.026-0.001-0.059,0.026-0.07l0.699-0.314C34.631,28.121,34.662,28.133,34.675,28.159L34.675,28.159z"/>
					<path fill="#686768" d="M34.83,28.508c0.014,0.028,0,0.061-0.027,0.071l-0.699,0.316c-0.028,0.014-0.059,0-0.072-0.027l0,0
						c-0.012-0.027-0.001-0.06,0.027-0.072l0.701-0.314C34.787,28.469,34.82,28.479,34.83,28.508L34.83,28.508z"/>
					<path fill="#686768" d="M34.988,28.856c0.01,0.025,0,0.059-0.028,0.07l-0.7,0.315c-0.027,0.013-0.059-0.001-0.07-0.026l0,0
						c-0.012-0.027-0.002-0.059,0.027-0.07l0.698-0.316C34.943,28.817,34.976,28.828,34.988,28.856L34.988,28.856z"/>
					<path fill="#686768" d="M35.145,29.204c0.012,0.026,0,0.059-0.027,0.072l-0.699,0.314c-0.027,0.014-0.061,0-0.072-0.025l0,0
						c-0.012-0.027,0-0.06,0.027-0.072l0.699-0.314C35.1,29.166,35.133,29.177,35.145,29.204L35.145,29.204z"/>
				</g>
			</g>
			<g>
				<path fill="#F9BD82" d="M9.898,36.984c-0.602-1.821,1.252-4.065,4.139-5.019c2.883-0.951,17.57-4.153,18.174-2.337
					c0.598,1.82-13.121,7.975-16.006,8.926C13.322,39.507,10.498,38.803,9.898,36.984z"/>
			</g>
		</g>
		<path fill="#7A4E0E" d="M27.361,30.5c-0.109-0.417-0.184-0.814-0.242-1.2c-0.281,0.034-0.568,0.07-0.86,0.109
			c0.044,0.572,0.146,1.205,0.321,1.872c0.217,0.825,0.504,1.562,0.814,2.149c0.319-0.174,0.629-0.346,0.929-0.517
			C27.956,32.294,27.611,31.454,27.361,30.5z"/>
		<circle fill="#38494C" cx="26.72" cy="30.501" r="1.729"/>
		<circle fill="#A3E1EF" cx="26.586" cy="30.304" r="0.969"/>
	</g>
	<g>
		<g>
			<g>
				<path fill="#F9F9F9" d="M31.648,16.562c-0.053-0.102-0.098-0.217-0.137-0.34l0.029-0.019c0.055,0,0.1-0.045,0.1-0.101v-0.275
					c0-0.055-0.045-0.1-0.1-0.1l-0.156-0.079c-0.056-0.377-0.076-0.784-0.088-1.161l0.115-0.058c0.055,0,0.1-0.045,0.1-0.101V13.78
					c0-0.037-0.135-0.146-0.242-0.215c-0.009-0.151-0.022-0.274-0.045-0.354c-0.139-0.489-0.727-0.688-0.727-0.688l-8.652-2.074
					v-0.052l-0.109,0.026l-0.107-0.026v0.052l-8.654,2.074c0,0-0.588,0.199-0.725,0.688c-0.022,0.08-0.037,0.203-0.047,0.354
					c-0.105,0.068-0.242,0.178-0.242,0.215v0.549c0,0.056,0.047,0.101,0.102,0.101l0.115,0.058c-0.012,0.377-0.032,0.784-0.09,1.161
					l-0.154,0.079c-0.056,0-0.1,0.045-0.1,0.1v0.275c0,0.056,0.044,0.101,0.1,0.101l0.029,0.019
					c-0.039,0.123-0.084,0.238-0.138,0.34c-0.489,0.913-1.626,3.239-1.226,5.064c0.4,1.826,2.551,5.803,4.727,5.65
					c2.136-0.146,4.527-1.327,6.41-1.402c1.885,0.075,4.277,1.256,6.412,1.402c2.176,0.152,4.326-3.824,4.725-5.65
					C33.275,19.801,32.137,17.475,31.648,16.562z"/>
				<path fill="#E7F2F2" d="M31.512,16.222l0.029-0.019c0.055,0,0.1-0.045,0.1-0.101v-0.275c0-0.055-0.045-0.1-0.1-0.1l-0.156-0.079
					c-0.056-0.377-0.076-0.784-0.088-1.161l0.115-0.058c0.055,0,0.1-0.045,0.1-0.101V13.78c0-0.037-0.135-0.146-0.242-0.215
					c-0.009-0.151-0.022-0.274-0.045-0.354c-0.139-0.489-0.727-0.688-0.727-0.688l-8.652-2.074v-0.052l-0.109,0.026l-0.004-0.001
					v15.452h0.004c1.885,0.075,4.277,1.256,6.412,1.402c2.176,0.152,4.326-3.824,4.725-5.65c0.402-1.825-0.736-4.151-1.225-5.064
					C31.596,16.46,31.551,16.345,31.512,16.222z"/>
				<path fill="#1C1C1B" d="M29.848,16.549l-0.773-1.45l-4.301-1.875l-3.037,3.273l-3.035-3.273L14.4,15.099l-0.775,1.45
					l-0.312,1.862c0,0,2.194,2.867,2.562,3.164c0.483,0.393,0.474,0.775,2.201-0.773c1.53-1.377,2.726-2.201,3.519-2.281v0.004
					c0.045-0.007,0.092-0.012,0.141-0.012s0.098,0.005,0.143,0.012v-0.004c0.791,0.08,1.988,0.904,3.518,2.281
					c1.727,1.549,1.717,1.166,2.201,0.773c0.367-0.297,2.563-3.164,2.563-3.164L29.848,16.549z"/>
				<path fill="#F9F9F9" d="M31.383,8.361l-0.235-0.869c-0.017-0.052-0.071-0.084-0.124-0.069l-0.131-0.047
					c-0.179-0.615-0.344-1.031-0.344-1.031c-0.781-1.568-1.824-2.674-2.924-3.453l-0.078-0.246c0.023-0.049,0.002-0.109-0.047-0.133
					l-1.035-0.502c-0.051-0.023-0.109-0.002-0.133,0.047L26.25,2.083c-2.127-1.023-4.129-1.047-4.514-1.041
					c-0.383-0.006-2.385,0.018-4.512,1.041l-0.081-0.025c-0.024-0.049-0.085-0.07-0.134-0.047l-1.037,0.502
					c-0.048,0.023-0.07,0.084-0.045,0.133L15.85,2.892c-1.1,0.779-2.145,1.885-2.925,3.453c0,0-0.164,0.416-0.345,1.031
					l-0.131,0.047c-0.053-0.015-0.105,0.018-0.122,0.069L12.09,8.361c-0.014,0.054,0.018,0.108,0.071,0.123l0.112,0.175
					c-0.135,0.74-0.203,1.541-0.072,2.212c0.35,1.802,2.674-0.449,2.674-0.449l5.803-0.3l1.059-0.189l1.061,0.189l5.803,0.3
					c0,0,2.324,2.251,2.674,0.449c0.131-0.671,0.062-1.472-0.072-2.212l0.112-0.175C31.365,8.47,31.398,8.415,31.383,8.361z"/>
				<path fill="#E7F2F2" d="M31.147,7.492c-0.017-0.052-0.071-0.084-0.124-0.069l-0.131-0.047c-0.179-0.615-0.344-1.031-0.344-1.031
					c-0.781-1.568-1.824-2.674-2.924-3.453l-0.078-0.246c0.023-0.049,0.002-0.109-0.047-0.133l-1.035-0.502
					c-0.051-0.023-0.109-0.002-0.133,0.047L26.25,2.083c-2.127-1.023-4.129-1.047-4.514-1.041h-0.004v8.893l0.004-0.002l1.061,0.189
					l5.803,0.3c0,0,2.324,2.251,2.674,0.449c0.131-0.671,0.062-1.472-0.072-2.212l0.112-0.175c0.052-0.015,0.085-0.069,0.069-0.123
					L31.147,7.492z"/>
				<g>
					<g>
						<path fill="#CDE0DF" d="M32.957,20.721c-0.092,0.297-0.354,0.89-0.6,1.363c-0.433,0.842-2.125,3.884-3.427,3.185
							c-1.226-0.661-5.509-3.99-7.194-3.862c-1.684-0.128-5.967,3.201-7.194,3.862c-1.3,0.699-2.992-2.343-3.427-3.185
							c-0.244-0.474-0.506-1.066-0.598-1.363c-0.008,0.31,0.018,0.612,0.082,0.905c0.4,1.826,2.551,5.803,4.727,5.65
							c2.136-0.146,4.527-1.327,6.41-1.402c1.885,0.075,4.277,1.256,6.412,1.402c2.176,0.152,4.326-3.824,4.725-5.65
							C32.938,21.333,32.962,21.03,32.957,20.721z"/>
						<path fill="#BAD1CF" d="M32.357,22.084c-0.433,0.842-2.125,3.884-3.427,3.185c-1.226-0.661-5.509-3.99-7.194-3.862h-0.004
							v4.468h0.004c1.885,0.075,4.277,1.256,6.412,1.402c2.176,0.152,4.326-3.824,4.725-5.65c0.064-0.293,0.089-0.596,0.084-0.905
							C32.865,21.018,32.603,21.61,32.357,22.084z"/>
						<path fill="#DDEDED" d="M13.436,12.413c0.247,0.516,0.58,1.244,0.6,1.418c0.023,0.238,0.012,0.363-0.301,0.688
							c-0.314,0.326-0.938,0.951-0.938,0.951s-0.2,0.25-0.15,0.463s0.338,1.5,0.338,1.5s0.25,0.44,0.349,0.428
							c0.101-0.012,0.376-0.253,0.613-0.59c0.237-0.338,0.2-1.576,0.463-2.051c0.263-0.476,0.462-0.525,1.339-0.851
							c0.873-0.325,1.6-0.75,2.5-1.713c0.9-0.964,1.975-1.875,3.338-2.051v-0.146L13.436,12.413z"/>
						<path fill="#CDE0DF" d="M30.037,12.413c-0.245,0.516-0.578,1.244-0.596,1.418c-0.025,0.238-0.014,0.363,0.299,0.688
							c0.312,0.326,0.938,0.951,0.938,0.951s0.2,0.25,0.15,0.463s-0.339,1.5-0.339,1.5s-0.247,0.44-0.349,0.428
							c-0.101-0.012-0.375-0.253-0.612-0.59c-0.238-0.338-0.2-1.576-0.464-2.051c-0.262-0.476-0.463-0.525-1.338-0.851
							s-1.6-0.75-2.5-1.713c-0.9-0.964-1.975-1.875-3.34-2.051v-0.146L30.037,12.413z"/>
						<path fill="#CDE0DF" d="M25.578,9.181c-1.383-0.164-2.695-0.399-3.842-0.328c-1.145-0.071-2.457,0.164-3.84,0.328
							c-2.324,0.271-4.371,0.844-5.725,1.526c0.008,0.056,0.018,0.11,0.029,0.164c0.35,1.802,2.674-0.449,2.674-0.449l5.803-0.3
							l1.059-0.189l1.061,0.189l5.803,0.3c0,0,2.324,2.251,2.674,0.449c0.012-0.054,0.021-0.108,0.029-0.164
							C29.947,10.024,27.902,9.452,25.578,9.181z"/>
						<path fill="#BAD1CF" d="M21.736,8.853h-0.004v1.082l0.004-0.002l1.061,0.189l5.803,0.3c0,0,2.324,2.251,2.674,0.449
							c0.012-0.054,0.021-0.108,0.029-0.164c-1.355-0.683-3.4-1.255-5.725-1.526C24.195,9.017,22.883,8.781,21.736,8.853z"/>
						<path fill="#7C7C7C" d="M21.736,9.671c-0.561-0.012-6.767-0.104-9.486,1.376c0,0,0.024,0.927,0.25,0.927
							c0.215,0,8.579-0.786,9.236-0.849c0.659,0.062,9.022,0.849,9.238,0.849c0.225,0,0.25-0.927,0.25-0.927
							C28.504,9.567,22.297,9.659,21.736,9.671z"/>
						<path fill="#666663" d="M21.736,9.671h-0.004v1.456l0.004-0.002c0.659,0.062,9.022,0.849,9.238,0.849
							c0.225,0,0.25-0.927,0.25-0.927C28.504,9.567,22.297,9.659,21.736,9.671z"/>
						<path fill="#DDEDED" d="M11.586,22.928c-0.193-0.287-0.346-0.537-0.432-0.706c-0.123-0.24-0.252-0.508-0.361-0.754
							c-0.062,0.969,1.895,3.617,2.031,3.734c0.135,0.113,0.437,0.017,0.645-0.047C12.757,24.719,12.057,23.712,11.586,22.928z"/>
						<path fill="#1C1C1B" d="M11.115,22.084c-0.123-0.239-0.25-0.509-0.361-0.756c-0.061,0.972,1.896,3.62,2.033,3.737
							c0.156,0.131,0.363,0.066,0.562,0.011C12.365,24.384,11.424,22.682,11.115,22.084z"/>
						<g>
							<path fill="#DDEDED" d="M13.227,21.276L13.1,21.089c0,0,0.518-0.307,0.863-0.32l-0.025,0.215c0,0-0.219,0.035-0.388,0.116
								C13.381,21.182,13.227,21.276,13.227,21.276z"/>
							<path fill="#DDEDED" d="M12.934,20.875l-0.125-0.187c0,0,0.52-0.308,0.863-0.318l-0.025,0.213c0,0-0.219,0.037-0.389,0.118
								C13.089,20.782,12.934,20.875,12.934,20.875z"/>
							<path fill="#DDEDED" d="M12.641,20.475l-0.123-0.187c0,0,0.518-0.307,0.861-0.318l-0.025,0.211c0,0-0.219,0.039-0.388,0.12
								C12.798,20.381,12.641,20.475,12.641,20.475z"/>
							<path fill="#DDEDED" d="M12.351,20.074l-0.125-0.187c0,0,0.519-0.306,0.862-0.318l-0.025,0.212c0,0-0.219,0.038-0.388,0.118
								C12.506,19.981,12.351,20.074,12.351,20.074z"/>
							<path fill="#DDEDED" d="M12.059,19.676l-0.125-0.188c0,0,0.52-0.307,0.863-0.318l-0.025,0.212c0,0-0.221,0.038-0.387,0.118
								C12.215,19.582,12.059,19.676,12.059,19.676z"/>
							<path fill="#DDEDED" d="M11.766,19.275l-0.125-0.188c0,0,0.52-0.307,0.863-0.318l-0.024,0.213c0,0-0.218,0.037-0.389,0.119
								C11.922,19.181,11.766,19.275,11.766,19.275z"/>
							<path fill="#DDEDED" d="M11.473,18.874l-0.123-0.188c0,0,0.52-0.305,0.863-0.318l-0.025,0.214c0,0-0.219,0.037-0.389,0.118
								C11.632,18.78,11.473,18.874,11.473,18.874z"/>
						</g>
						<path fill="#494948" d="M29.574,15.286c-0.312-0.325-0.325-0.451-0.301-0.688c0.025-0.238,0.637-1.515,0.812-1.863
							c0.174-0.35,0.525-0.201,0.525-0.201c-0.062-0.387,0.113-0.587,0.113-0.587l-0.252-0.187c-2.1-1.105-8.23-1.16-8.719-1.163
							l0,0c0,0-0.008,0-0.018,0s-0.016,0-0.016,0l0,0C21.232,10.601,15.1,10.655,13,11.761l-0.25,0.187c0,0,0.175,0.2,0.112,0.587
							c0,0,0.351-0.148,0.524,0.201c0.176,0.349,0.788,1.625,0.814,1.863c0.023,0.236,0.011,0.362-0.301,0.688
							c-0.314,0.324-0.937,0.949-0.937,0.949s-0.202,0.251-0.151,0.463c0.05,0.213,0.338,1.502,0.338,1.502s0.25,0.44,0.348,0.428
							c0.102-0.014,0.378-0.253,0.615-0.59c0.236-0.339,0.201-1.576,0.463-2.052s0.463-0.525,1.337-0.852
							c0.876-0.323,1.602-0.749,2.501-1.712c0.898-0.959,1.968-1.867,3.322-2.049c1.355,0.182,2.426,1.09,3.323,2.049
							c0.9,0.963,1.626,1.389,2.501,1.712c0.875,0.326,1.076,0.376,1.338,0.852s0.225,1.713,0.463,2.052
							c0.237,0.337,0.513,0.576,0.613,0.59c0.1,0.013,0.35-0.428,0.35-0.428s0.287-1.289,0.338-1.502
							c0.051-0.212-0.15-0.463-0.15-0.463S29.887,15.61,29.574,15.286z"/>
						<path fill="#383836" d="M30.473,11.761c-2.1-1.105-8.23-1.16-8.719-1.163l0,0c0,0-0.008,0-0.018,0h-0.004v0.778l0.004-0.002
							c1.355,0.182,2.426,1.09,3.323,2.049c0.9,0.963,1.626,1.389,2.501,1.712c0.875,0.326,1.076,0.376,1.338,0.852
							s0.225,1.713,0.463,2.052c0.237,0.337,0.513,0.576,0.613,0.59c0.1,0.013,0.35-0.428,0.35-0.428s0.287-1.289,0.338-1.502
							c0.051-0.212-0.15-0.463-0.15-0.463s-0.625-0.625-0.938-0.949c-0.312-0.325-0.325-0.451-0.301-0.688
							c0.025-0.238,0.637-1.515,0.812-1.863c0.174-0.35,0.525-0.201,0.525-0.201c-0.062-0.387,0.113-0.587,0.113-0.587
							L30.473,11.761z"/>
						<path fill="#5E5E5E" d="M12.838,12.12c0.092,0.023,0.188,0.083,0.256,0.221c0.023,0.05,0.057,0.115,0.096,0.192
							c0.072,0.032,0.144,0.093,0.197,0.202c0.176,0.349,0.788,1.625,0.814,1.863c0.023,0.236,0.011,0.362-0.301,0.688
							c-0.314,0.324-0.937,0.949-0.937,0.949s-0.202,0.251-0.151,0.463c0.05,0.213,0.338,1.502,0.338,1.502s0.004,0.006,0.01,0.018
							c0.018,0.011,0.033,0.018,0.047,0.016c0.1-0.013,0.374-0.252,0.611-0.59c0.238-0.338,0.219-1.369,0.482-1.844
							c0.263-0.477,0.768-0.4,1.643-0.728c0.875-0.324,1.521-0.712,2.422-1.675c0.9-0.963,1.731-2.244,3.095-2.42"/>
					</g>
					<g>
						<path fill="#6B6B6B" d="M13.464,16.642c-0.04,0.117-0.159,0.271-0.247,0.24c-0.087-0.029-0.113-0.232-0.069-0.351
							c0.038-0.118,0.146-0.188,0.233-0.157S13.506,16.524,13.464,16.642z"/>
						<path fill="#1C1C1B" d="M13.464,16.642c-0.04,0.117-0.144,0.189-0.232,0.157c-0.089-0.03-0.128-0.149-0.084-0.268
							c0.038-0.118,0.146-0.188,0.233-0.157S13.506,16.524,13.464,16.642z"/>
					</g>
					<g>
						<path fill="#6B6B6B" d="M13.736,16.222c-0.026,0.078-0.106,0.18-0.166,0.16c-0.057-0.021-0.072-0.157-0.045-0.234
							c0.027-0.08,0.098-0.125,0.155-0.105C13.738,16.063,13.766,16.143,13.736,16.222z"/>
						
							<ellipse transform="matrix(0.9433 0.3319 -0.3319 0.9433 6.1445 -3.6067)" fill="#1C1C1B" cx="13.631" cy="16.185" rx="0.112" ry="0.15"/>
					</g>
				</g>
				<g>
					<g>
						<path fill="#E7F2F2" d="M31.887,22.928c0.195-0.287,0.348-0.537,0.434-0.706c0.123-0.24,0.252-0.508,0.361-0.754
							c0.062,0.969-1.896,3.617-2.033,3.734c-0.133,0.113-0.436,0.017-0.643-0.047C30.717,24.719,31.418,23.712,31.887,22.928z"/>
						<path fill="#1C1C1B" d="M32.357,22.084c0.123-0.239,0.252-0.509,0.359-0.756c0.064,0.972-1.895,3.62-2.029,3.737
							c-0.157,0.131-0.363,0.066-0.562,0.011C31.109,24.384,32.051,22.682,32.357,22.084z"/>
						<g>
							<path fill="#CDE0DF" d="M30.248,21.276l0.127-0.188c0,0-0.521-0.307-0.863-0.32l0.023,0.215c0,0,0.219,0.035,0.389,0.116
								C30.092,21.182,30.248,21.276,30.248,21.276z"/>
							<path fill="#CDE0DF" d="M30.541,20.875l0.125-0.187c0,0-0.52-0.308-0.863-0.318l0.025,0.213c0,0,0.219,0.037,0.387,0.118
								C30.385,20.782,30.541,20.875,30.541,20.875z"/>
							<path fill="#CDE0DF" d="M30.832,20.475l0.125-0.187c0,0-0.52-0.307-0.863-0.318l0.025,0.211c0,0,0.221,0.039,0.389,0.12
								C30.676,20.381,30.832,20.475,30.832,20.475z"/>
							<path fill="#CDE0DF" d="M31.124,20.074l0.125-0.187c0,0-0.519-0.306-0.863-0.318l0.025,0.212c0,0,0.218,0.038,0.388,0.118
								C30.969,19.981,31.124,20.074,31.124,20.074z"/>
							<path fill="#CDE0DF" d="M31.416,19.676l0.125-0.188c0,0-0.52-0.307-0.863-0.318l0.025,0.212c0,0,0.219,0.038,0.387,0.118
								C31.26,19.582,31.416,19.676,31.416,19.676z"/>
							<path fill="#CDE0DF" d="M31.707,19.275l0.125-0.188c0,0-0.519-0.307-0.862-0.318l0.026,0.213c0,0,0.217,0.037,0.387,0.119
								C31.551,19.181,31.707,19.275,31.707,19.275z"/>
							<path fill="#CDE0DF" d="M32,18.874l0.125-0.188c0,0-0.52-0.305-0.863-0.318l0.025,0.214c0,0,0.22,0.037,0.387,0.118
								C31.843,18.78,32,18.874,32,18.874z"/>
						</g>
						<path fill="#5E5E5E" d="M21.736,9.671c-0.561-0.012-6.767-0.104-9.486,1.376c0,0,0.004,0.128,0.02,0.29
							c2.676-1.438,8.658-1.381,9.428-1.366v0.002c0,0,0.014,0,0.039-0.002c0.027,0.002,0.041,0.002,0.041,0.002V9.971
							c0.768-0.015,6.752-0.072,9.428,1.366c0.016-0.162,0.02-0.29,0.02-0.29C28.504,9.567,22.297,9.659,21.736,9.671z"/>
						<path fill="#494947" d="M21.736,9.671h-0.004v0.3h0.004c0.027,0.002,0.041,0.002,0.041,0.002V9.971
							c0.768-0.015,6.752-0.072,9.428,1.366c0.016-0.162,0.02-0.29,0.02-0.29C28.504,9.567,22.297,9.659,21.736,9.671z"/>
						<path fill="#494948" d="M30.637,12.12c-0.092,0.023-0.188,0.083-0.256,0.221c-0.023,0.05-0.059,0.115-0.096,0.192
							c-0.072,0.032-0.145,0.093-0.199,0.202c-0.176,0.349-0.787,1.625-0.812,1.863c-0.024,0.236-0.011,0.362,0.301,0.688
							c0.312,0.324,0.938,0.949,0.938,0.949s0.201,0.251,0.15,0.463c-0.051,0.213-0.338,1.502-0.338,1.502s-0.004,0.006-0.01,0.018
							c-0.018,0.011-0.033,0.018-0.047,0.016c-0.1-0.013-0.374-0.252-0.613-0.59c-0.236-0.338-0.217-1.369-0.48-1.844
							c-0.263-0.477-0.768-0.4-1.643-0.728c-0.875-0.324-1.521-0.712-2.422-1.675s-1.731-2.244-3.096-2.42"/>
						<path fill="#383836" d="M29.637,11.673c-0.088,0.1-0.213-0.013-0.213-0.013c-3.854-0.999-7.424-0.852-7.688-0.839
							c-0.262-0.013-3.834-0.16-7.687,0.839c0,0-0.125,0.112-0.212,0.013c-0.088-0.1-0.462,0.074-0.462,0.074
							s0.097,1.064,0.558,1.993c0.459,0.921,0.867,1.116,1.836,0.975c1.137-0.167,1.945-1.028,2.894-1.867
							c0.946-0.835,1.806-1.47,3.073-1.476c1.268,0.006,2.127,0.641,3.072,1.476c0.949,0.839,1.76,1.7,2.896,1.867
							c0.969,0.142,1.377-0.054,1.835-0.975c0.461-0.929,0.559-1.993,0.559-1.993S29.724,11.573,29.637,11.673z"/>
						<path fill="#262624" d="M29.637,11.673c-0.088,0.1-0.213-0.013-0.213-0.013c-3.854-0.999-7.424-0.852-7.688-0.839h-0.002
							l-0.002,0.553l0.004-0.002c1.268,0.006,2.127,0.641,3.072,1.476c0.949,0.839,1.76,1.7,2.896,1.867
							c0.969,0.142,1.377-0.054,1.835-0.975c0.461-0.929,0.559-1.993,0.559-1.993S29.724,11.573,29.637,11.673z"/>
						<path fill="#1C1C1B" d="M29.637,11.673c-0.088,0.1-0.213-0.013-0.213-0.013c-3.854-0.999-7.424-0.852-7.688-0.839
							c-0.262-0.013-3.834-0.16-7.687,0.839c0,0-0.125,0.112-0.212,0.013c-0.008-0.01-0.016-0.014-0.027-0.02
							c0.049,0.344,0.189,1.116,0.536,1.812c0.458,0.921,0.866,1.117,1.834,0.976c0.405-0.061,0.767-0.207,1.11-0.41
							c0.461-0.341,0.898-0.764,1.372-1.183c0.411-0.362,0.808-0.688,1.229-0.94c0.56-0.407,1.141-0.699,1.845-0.785
							c0.705,0.086,1.285,0.378,1.846,0.785c0.42,0.252,0.816,0.578,1.227,0.94c0.475,0.419,0.914,0.842,1.375,1.183
							c0.344,0.203,0.705,0.35,1.11,0.41c0.966,0.142,1.375-0.055,1.835-0.976c0.344-0.695,0.484-1.468,0.535-1.812
							C29.652,11.659,29.643,11.663,29.637,11.673z"/>
						<path d="M29.424,11.66c-3.854-0.999-7.424-0.852-7.688-0.839h-0.002l-0.002,0.303l0.004-0.002
							c0.705,0.086,1.285,0.378,1.846,0.785c0.42,0.252,0.816,0.578,1.227,0.94c0.475,0.419,0.914,0.842,1.375,1.183
							c0.344,0.203,0.705,0.35,1.11,0.41c0.966,0.142,1.375-0.055,1.835-0.976c0.344-0.695,0.484-1.468,0.535-1.812
							c-0.012,0.006-0.021,0.01-0.027,0.02C29.549,11.772,29.424,11.66,29.424,11.66z"/>
						<path fill="#CDE0DF" d="M28.531,15.999c-0.05-0.4-0.334-0.483-0.334-0.483l-0.649-0.301c-1.484-0.601-2.488-1.792-2.488-1.792
							c-1.831-1.893-3.05-1.984-3.323-1.979c-0.271-0.006-1.49,0.086-3.322,1.979c0,0-1.005,1.191-2.487,1.792l-0.649,0.301
							c0,0-0.285,0.083-0.334,0.483c-0.051,0.4-0.451,1.617-0.018,2.233s1.455,1.948,1.686,2.151
							c0.314,0.279,0.699,0.399,1.365-0.367c0.656-0.753,2.692-2.985,3.76-3.018c1.069,0.032,3.105,2.265,3.761,3.018
							c0.666,0.767,1.052,0.646,1.367,0.367c0.229-0.203,1.25-1.535,1.685-2.151C28.981,17.616,28.582,16.399,28.531,15.999z"/>
						<path fill="#BAD1CF" d="M28.197,15.516l-0.649-0.301c-1.484-0.601-2.488-1.792-2.488-1.792
							c-1.831-1.893-3.05-1.984-3.323-1.979h-0.004v5.555h0.004c1.069,0.032,3.105,2.265,3.761,3.018
							c0.666,0.767,1.052,0.646,1.367,0.367c0.229-0.203,1.25-1.535,1.685-2.151c0.433-0.616,0.033-1.833-0.018-2.233
							C28.481,15.599,28.197,15.516,28.197,15.516z"/>
						<path fill="#F9F9F9" d="M28.531,15.999c-0.05-0.4-0.334-0.483-0.334-0.483l-0.649-0.301c-1.312-0.403-2.488-1.792-2.488-1.792
							c-1.831-1.893-3.05-2.068-3.323-2.062c-0.271-0.006-1.49,0.17-3.322,2.062c0,0-1.176,1.389-2.487,1.792l-0.649,0.301
							c0,0-0.285,0.083-0.334,0.483c-0.051,0.4-0.451,1.617-0.018,2.233c0.283,0.403,0.814,1.108,1.214,1.606
							c0.028,0.029,0.052,0.054,0.07,0.068c0.315,0.281,0.7,0.4,1.367-0.365c0.642-0.739,3.05-3.28,4.159-3.414
							c1.111,0.134,3.518,2.675,4.16,3.414c0.668,0.766,1.051,0.646,1.367,0.365c0.018-0.015,0.043-0.039,0.07-0.068
							c0.4-0.498,0.932-1.203,1.215-1.606C28.981,17.616,28.582,16.399,28.531,15.999z"/>
						<path fill="#E7F2F2" d="M28.197,15.516l-0.649-0.301c-1.312-0.403-2.488-1.792-2.488-1.792
							c-1.831-1.893-3.05-1.984-3.323-1.979h-0.004v4.686l0.004-0.002c1.111,0.134,3.518,2.675,4.16,3.414
							c0.668,0.766,1.051,0.646,1.367,0.365c0.018-0.015,0.043-0.039,0.07-0.068c0.4-0.498,0.932-1.203,1.215-1.606
							c0.433-0.616,0.033-1.833-0.018-2.233C28.481,15.599,28.197,15.516,28.197,15.516z"/>
					</g>
					<g>
						<path fill="#6B6B6B" d="M30.008,16.642c0.043,0.117,0.162,0.271,0.25,0.24c0.089-0.029,0.109-0.232,0.069-0.351
							s-0.146-0.188-0.233-0.157S29.969,16.524,30.008,16.642z"/>
						
							<ellipse transform="matrix(-0.9452 0.3266 -0.3266 -0.9452 64.0979 22.4101)" fill="#1C1C1B" cx="30.167" cy="16.586" rx="0.169" ry="0.225"/>
					</g>
					<g>
						<path fill="#6B6B6B" d="M29.736,16.222c0.027,0.078,0.107,0.18,0.166,0.16c0.059-0.021,0.074-0.157,0.047-0.234
							c-0.027-0.08-0.098-0.125-0.156-0.105C29.734,16.063,29.709,16.143,29.736,16.222z"/>
						
							<ellipse transform="matrix(-0.9443 0.3292 -0.3292 -0.9443 63.35 21.643)" fill="#1C1C1B" cx="29.843" cy="16.185" rx="0.113" ry="0.15"/>
					</g>
				</g>
			</g>
		</g>
		<g>
			<g>
				<path fill="#6D918C" d="M29.758,25.281c-0.258,0.325-1.475,0.067-2.223-0.522c-0.75-0.59-0.748-1.291-0.489-1.617
					c0.257-0.326,1.071-0.111,1.821,0.479C29.615,24.212,30.016,24.955,29.758,25.281z"/>
				<path fill="#50726C" d="M27.046,23.142c-0.259,0.326-0.261,1.027,0.489,1.617c0.748,0.59,1.965,0.848,2.223,0.522"/>
			</g>
			<g>
				<path fill="#3A544F" d="M29.259,24.981c-0.171,0.217-0.978,0.045-1.477-0.348s-0.495-0.857-0.326-1.074
					c0.171-0.217,0.714-0.074,1.21,0.318C29.164,24.271,29.43,24.765,29.259,24.981z"/>
				<path fill="#314C47" d="M29.259,24.981c-0.171,0.217-0.978,0.045-1.477-0.348s-0.495-0.857-0.326-1.074"/>
			</g>
		</g>
		<path fill="#F9F9F9" d="M27.492,22.496c0,0,2.621-4.021,2.822-4.278c0,0-1.666,4.377-2.215,4.396s-0.922,0.254-0.922,0.254
			L27.492,22.496z"/>
	</g>
</g>
</svg>
