<?xml version="1.0" encoding="utf-8"?>
<!-- Generator: Adobe Illustrator 16.0.0, SVG Export Plug-In . SVG Version: 6.00 Build 0)  -->
<!DOCTYPE svg PUBLIC "-//W3C//DTD SVG 1.1//EN" "http://www.w3.org/Graphics/SVG/1.1/DTD/svg11.dtd">
<svg version="1.1" id="Layer_1" xmlns="http://www.w3.org/2000/svg" xmlns:xlink="http://www.w3.org/1999/xlink" x="0px" y="0px"
	 width="64px" height="64px" viewBox="0 0 64 64" enable-background="new 0 0 64 64" xml:space="preserve">
<g>
	<g>
		<g>
			<g>
				<g>
					<g>
						<path fill="#F7910B" d="M60.5,41.4c0,12.2-11.2,22.1-28.5,22.1c-17.3,0-28.5-9.9-28.5-22.1S14.7,10.8,32,10.8
							C49.3,10.8,60.5,29.2,60.5,41.4z"/>
					</g>
					<g>
						<path fill="#F7910B" d="M60.5,41.4c0,12.2-11.2,18.3-28.5,18.3c-17.3,0-28.5-6.1-28.5-18.3S14.7,8.9,32,8.9
							C49.3,8.9,60.5,29.2,60.5,41.4z"/>
					</g>
					<g>
						<path fill="#F9A908" d="M32,8.9c17.3,0,28.5,20.2,28.5,32.4S49.3,59.7,32,59.7"/>
					</g>
					<g>
						<path fill="#F9A908" d="M60.5,41.4c0,12.2-11.2,18.3-28.5,18.3c-17.3,0-28.5-6.1-28.5-18.3S14.7,10.8,32,10.8
							C49.3,10.8,60.5,29.2,60.5,41.4z"/>
					</g>
					<g>
						<path fill="#F9C55D" d="M3.5,41.4c0-12.2,11.2-30.5,28.5-30.5"/>
					</g>
					<g>
						<path fill="#F7910B" d="M32,10.8c17.3,0,28.5,18.3,28.5,30.5S49.3,63.4,32,63.4"/>
					</g>
					<g>
						<path fill="#EA7103" d="M32,10.8c17.3,0,28.5,18.3,28.5,30.5"/>
					</g>
					<g>
						<g>
							<circle fill="#EA7103" cx="22.2" cy="30.2" r="3"/>
						</g>
						<g>
							<circle fill="#EA7103" cx="41.8" cy="30.2" r="3"/>
						</g>
						<g>
							<circle fill="#1E4784" cx="22.2" cy="29.4" r="3"/>
						</g>
						<g>
							<path fill="#00233F" d="M22.2,26.4c1.7,0,3,1.3,3,3c0,1.7-1.3,3-3,3"/>
						</g>
						<g>
							<circle fill="#1E4784" cx="41.8" cy="29.4" r="3"/>
						</g>
						<g>
							<path fill="#00233F" d="M41.8,26.4c1.7,0,3,1.3,3,3c0,1.7-1.3,3-3,3"/>
						</g>
					</g>
					<g>
						<g>
							<g>
								<g>
									<g>
										<g>
											<path fill="#19BCA4" d="M26.1,17.5c0,0.8-1.4,0.5-3.1,0.5s-3.1,0.5-3.1-0.3c0-0.8,1.3-1.5,3-1.6
												C24.6,16,26,16.6,26.1,17.5z"/>
										</g>
									</g>
								</g>
							</g>
							<g>
								<g>
									<g>
										<g>
											<path fill="#19BCA4" d="M37.9,17.5c0,0.8,1.4,0.5,3.1,0.5s3.1,0.5,3.1-0.3c0-0.8-1.3-1.5-3-1.6
												C39.4,16,38,16.6,37.9,17.5z"/>
										</g>
									</g>
								</g>
							</g>
						</g>
						<g>
							<g>
								<g>
									<g>
										<g>
											<path fill="#109DA0" d="M26.1,17.5c0,0.8-1.4,0.5-3.1,0.5s-3.1,0.5-3.1-0.3"/>
										</g>
									</g>
								</g>
							</g>
							<g>
								<g>
									<g>
										<g>
											<path fill="#109DA0" d="M37.9,17.5c0,0.8,1.4,0.5,3.1,0.5s3.1,0.5,3.1-0.3"/>
										</g>
									</g>
								</g>
							</g>
						</g>
					</g>
					<g>
						<g>
							<path fill="#F9C55D" d="M28.1,35.1c0,1.1-3.3,0.6-7.3,0.6c-4.1,0-7.3,0.5-7.3-0.6s3.3-2.1,7.3-2.1
								C24.8,33,28.1,33.9,28.1,35.1z"/>
						</g>
						<g>
							<path fill="#F9A908" d="M50.6,35.1c0,1.1-3.3,0.6-7.3,0.6c-4.1,0-7.3,0.5-7.3-0.6s3.3-2.1,7.3-2.1
								C47.3,33,50.6,33.9,50.6,35.1z"/>
						</g>
					</g>
					<g>
						<circle fill="#F7910B" cx="11.6" cy="38.5" r="0.6"/>
					</g>
					<g>
						<circle fill="#F7910B" cx="7.4" cy="40.4" r="1.1"/>
					</g>
					<g>
						<circle fill="#F7910B" cx="10.2" cy="36.6" r="0.2"/>
					</g>
					<g>
						<circle fill="#F7910B" cx="14.5" cy="38.3" r="0.2"/>
					</g>
					<g>
						<circle fill="#F9A908" cx="51.3" cy="38.9" r="0.7"/>
					</g>
					<g>
						<path fill="#F9A908" d="M53.9,40.1c0,0.1-0.1,0.2-0.2,0.2c-0.1,0-0.2-0.1-0.2-0.2c0-0.1,0.1-0.2,0.2-0.2
							C53.8,39.9,53.9,40,53.9,40.1z"/>
					</g>
					<g>
						<circle fill="#F9A908" cx="48.7" cy="31.9" r="0.3"/>
					</g>
					<g>
						<circle fill="#F9A908" cx="48.2" cy="42.8" r="1.2"/>
					</g>
					<g>
						<circle fill="#F9A908" cx="55" cy="42.8" r="0.6"/>
					</g>
					<g>
						<circle fill="#F7910B" cx="10.7" cy="42.3" r="0.5"/>
					</g>
					<g>
						<circle fill="#F7910B" cx="11.4" cy="34.4" r="0.4"/>
					</g>
					<g>
						<circle fill="#F9A908" cx="6.5" cy="21.5" r="1.1"/>
					</g>
					<g>
						<circle fill="#F9A908" cx="9.5" cy="18.1" r="0.5"/>
					</g>
					<g>
						<circle fill="#F9A908" cx="57.6" cy="23.7" r="0.2"/>
					</g>
					<g>
						<circle fill="#F9A908" cx="56.8" cy="20.9" r="0.8"/>
					</g>
					<g>
						<circle fill="#F9A908" cx="59.2" cy="21.5" r="0.5"/>
					</g>
					<g>
						<circle fill="#F9A908" cx="7.6" cy="24.2" r="0.5"/>
					</g>
					<g>
						<path fill="#C42260" d="M3.5,42C3.8,54,14.9,63.6,32,63.6c17.1,0,28.2-9.6,28.5-21.6H3.5z"/>
					</g>
					<g>
						<path fill="#99144A" d="M32.2,63.6c17.1,0,28-9.6,28.2-21.6H4"/>
					</g>
				</g>
			</g>
		</g>
		<g>
			<path fill="#FFFFFF" d="M43,53.1c0,5.4-4.3,9.9-9.7,9.9h-2.7c-5.4,0-9.7-4.5-9.7-9.9V39.4c0-5.4,4.3-7.4,9.7-7.4h2.7
				c5.4,0,9.7,2,9.7,7.4V53.1z"/>
		</g>
		<g>
			<path fill="#E5EAE9" d="M43,51c0,5.4-4.3,10-9.7,10h-2.7c-5.4,0-9.7-4.6-9.7-10v-11c0-5.4,4.3-7.1,9.7-7.1h2.7
				c5.4,0,9.7,1.7,9.7,7.1V51z"/>
		</g>
		<g>
			<g>
				<path fill="#C42260" d="M39,37.5c0,4.3-3.2,7.9-7,7.9s-7-3.5-7-7.9"/>
			</g>
			<g>
				<path fill="#99144A" d="M39,37.5c0,1.5-3.2,2.6-7,2.6s-7-1.2-7-2.6"/>
			</g>
			<g>
				<path fill="#E2446E" d="M32,45.3c2.2,0,4.1-1.1,5.4-2.8c-0.8-1-2-1.6-3.2-1.6c-0.8,0-1.5,0.2-2.2,0.6c-0.6-0.4-1.4-0.6-2.2-0.6
					c-1.3,0-2.4,0.6-3.2,1.6C27.9,44.2,29.8,45.3,32,45.3z"/>
			</g>
		</g>
		<g>
			<circle fill="#FFFFFF" cx="24.5" cy="47.4" r="1.4"/>
		</g>
		<g>
			<circle fill="#FFFFFF" cx="28.6" cy="50.2" r="0.5"/>
		</g>
		<g>
			<circle fill="#FFFFFF" cx="35.9" cy="49.5" r="0.9"/>
		</g>
		<g>
			<circle fill="#FFFFFF" cx="35.8" cy="57.8" r="1.1"/>
		</g>
		<g>
			<circle fill="#FFFFFF" cx="39.7" cy="46.5" r="0.5"/>
		</g>
		<g>
			<circle fill="#FFFFFF" cx="35.3" cy="52.9" r="0.3"/>
		</g>
		<g>
			<path fill="#FFFFFF" d="M32.1,55.6c0,1-0.8,1.9-1.9,1.9c-1,0-1.9-0.8-1.9-1.9c0-1,0.8-1.9,1.9-1.9C31.2,53.8,32.1,54.6,32.1,55.6
				z"/>
		</g>
		<g>
			<circle fill="#FFFFFF" cx="31.4" cy="49.9" r="0.2"/>
		</g>
	</g>
	<g>
		<polygon fill="#C42260" points="39.7,10.8 31.9,13.9 24,10.8 31.9,2.4 		"/>
	</g>
	<g>
		<polyline fill="#99144A" points="31.9,2.4 39.7,10.8 31.9,13.9 		"/>
	</g>
	<g>
		<path fill="#FFFFFF" d="M41.4,11.1c0,1.2-4.3,4-9.5,4c-5.3,0-9.5-2.8-9.5-4s4.3-0.2,9.5-0.2C37.1,10.9,41.4,10,41.4,11.1z"/>
	</g>
	<g>
		<path fill="#E5EAE9" d="M31.9,10.9c5.3,0,9.5-0.9,9.5,0.2s-4.3,4-9.5,4"/>
	</g>
	<g>
		<circle fill="#FFFFFF" cx="31.9" cy="2.7" r="2.2"/>
	</g>
	<g>
		<path fill="#E5EAE9" d="M33.4,1.2c0.8,0.8,0.8,2.2,0,3.1c-0.8,0.8-2.2,0.8-3.1,0"/>
	</g>
	<g>
		<path fill="#E5EAE9" d="M55.4,47c0,0.5-0.4,1-0.9,1h-6.3c-0.5,0-0.9-0.5-0.9-1l0,0c0-0.5,0.4-1,0.9-1h6.3C55,46,55.4,46.5,55.4,47
			L55.4,47z"/>
	</g>
</g>
</svg>
