<?xml version="1.0" encoding="utf-8"?>
<!-- Generator: Adobe Illustrator 16.0.0, SVG Export Plug-In . SVG Version: 6.00 Build 0)  -->
<!DOCTYPE svg PUBLIC "-//W3C//DTD SVG 1.1//EN" "http://www.w3.org/Graphics/SVG/1.1/DTD/svg11.dtd">
<svg version="1.1" id="Layer_1" xmlns="http://www.w3.org/2000/svg" xmlns:xlink="http://www.w3.org/1999/xlink" x="0px" y="0px"
	 width="64px" height="64px" viewBox="0 0 64 64" enable-background="new 0 0 64 64" xml:space="preserve">
<g>
	<g>
		<g>
			<g>
				<g>
					<g>
						<g>
							<circle fill="#FFBC00" cx="30.4" cy="31.7" r="27.4"/>
							<path fill="#FFAA00" d="M11.1,12.3c10.7-10.7,28-10.7,38.7,0c10.7,10.7,10.7,28,0,38.7"/>
						</g>
					</g>
				</g>
			</g>
		</g>
	</g>
	<g>
		<g>
			<g>
				<path fill="#0C9686" d="M10.6,44.5c0-0.2-0.2-0.5-0.3-0.5H2.3C2.2,44,2,44.3,2,44.5l0,0C2,44.7,2.2,45,2.3,45h7.9
					C10.4,45,10.6,44.7,10.6,44.5L10.6,44.5z"/>
				<path fill="#17CCAE" d="M10.6,53.5c0-0.2-0.2-0.5-0.3-0.5H2.3C2.2,53,2,53.3,2,53.5l0,0C2,53.7,2.2,54,2.3,54h7.9
					C10.4,54,10.6,53.7,10.6,53.5L10.6,53.5z"/>
			</g>
			<g>
				<g>
					<g>
						<g>
							<path fill="#17CCAE" d="M14.9,62.9c-2.5,0.1-4.7-1.9-4.7-4.5c-0.1-2.1,1.6-3.8,3.7-3.9c1.7,0,3.1,1.3,3.2,3
								c0,1.4-1.1,2.6-2.5,2.6c-1.2,0-2.2-0.9-2.2-2.1c0-0.2,0.2-0.4,0.4-0.4c0.2,0,0.4,0.2,0.4,0.4c0,0.7,0.6,1.3,1.3,1.2
								c0.9,0,1.7-0.8,1.7-1.8c0-1.2-1.1-2.2-2.3-2.2c-1.6,0-2.9,1.4-2.8,3c0.1,2.1,1.8,3.7,3.9,3.6c2.6-0.1,4.7-2.3,4.7-4.9
								c-0.1-3.4-2.6-6.2-6-6.1c-0.2,0-0.7,0-0.7-0.2c0-0.2,0.5-0.8,0.7-0.8c3.8-0.1,6.7,3.3,6.9,7.1C20.5,60.2,18,62.8,14.9,62.9z"
								/>
						</g>
						<path fill="#17CCAE" d="M14,50.6c0,0.2-0.2,0.4-0.4,0.4H3.4C3.2,51,3,50.8,3,50.6v-0.1C3,50.2,3.2,50,3.4,50h10.1
							c0.2,0,0.4,0.2,0.4,0.4V50.6z"/>
					</g>
					<g>
						<g>
							<path fill="#0C9686" d="M14.9,35.2c-2.5-0.1-4.7,1.9-4.7,4.5c-0.1,2.1,1.6,3.8,3.7,3.9c1.7,0,3.1-1.3,3.2-3
								c0-1.4-1.1-2.6-2.5-2.6c-1.2,0-2.2,0.9-2.2,2.1c0,0.2,0.2,0.4,0.4,0.4c0.2,0,0.4-0.2,0.4-0.4c0-0.7,0.6-1.3,1.3-1.2
								c0.9,0,1.7,0.8,1.7,1.8c0,1.2-1.1,2.2-2.3,2.2c-1.6,0-2.9-1.4-2.8-3c0.1-2.1,1.8-3.7,3.9-3.6c2.6,0.1,4.7,2.3,4.7,4.9
								c-0.1,3.4-2.7,6.1-6.1,6c-0.2,0-0.6,0.1-0.6,0.3c0,0.2,0.4,0.7,0.6,0.7c3.8,0.1,6.8-3.2,7-7C20.5,37.9,18,35.3,14.9,35.2z"/>
						</g>
						<path fill="#0C9686" d="M13.9,47.5c0-0.2-0.2-0.5-0.4-0.5H3.3c-0.2,0-0.4,0.3-0.4,0.5l0,0c0,0.2,0.2,0.5,0.4,0.5h10.2
							C13.7,48,13.9,47.7,13.9,47.5L13.9,47.5z"/>
					</g>
				</g>
				<g>
					<circle fill="#0C9686" cx="8.4" cy="42" r="0.4"/>
					<circle fill="#17CCAE" cx="8.4" cy="56" r="0.4"/>
				</g>
				<circle fill="#0C9686" cx="17.8" cy="49" r="0.4"/>
			</g>
		</g>
		<g>
			<g>
				<path fill="#0C9686" d="M26.9,44.5c0-0.2-0.2-0.5-0.3-0.5h-7.9c-0.2,0-0.3,0.3-0.3,0.5l0,0c0,0.2,0.2,0.5,0.3,0.5h7.9
					C26.7,45,26.9,44.7,26.9,44.5L26.9,44.5z"/>
				<path fill="#17CCAE" d="M27,53.3c0-0.2-0.2-0.3-0.3-0.3h-8.3c-0.2,0-0.3,0.2-0.3,0.3v0.3c0,0.2,0.2,0.3,0.3,0.3h8.3
					c0.2,0,0.3-0.2,0.3-0.3V53.3z"/>
			</g>
			<g>
				<g>
					<g>
						<g>
							<path fill="#17CCAE" d="M31.2,62.9c-2.5,0.1-4.7-1.9-4.7-4.5c-0.1-2.1,1.6-3.8,3.7-3.9c1.7,0,3.2,1.3,3.2,3
								c0,1.4-1.1,2.6-2.5,2.6c-1.2,0-2.2-0.9-2.2-2.1c0-0.2,0.2-0.4,0.4-0.4c0.2,0,0.4,0.2,0.4,0.4c0,0.7,0.6,1.3,1.3,1.2
								c0.9,0,1.7-0.8,1.7-1.8c0-1.2-1.1-2.2-2.3-2.2c-1.6,0-2.9,1.4-2.8,3c0.1,2.1,1.8,3.7,3.9,3.6c2.6-0.1,4.7-2.3,4.7-4.9
								c-0.1-3.4-2.9-6.2-6.3-6.1c-0.2,0-0.4,0-0.4-0.2c0-0.2,0.2-0.8,0.4-0.8c3.8-0.1,7,3.3,7.2,7.1C36.8,60.2,34.3,62.8,31.2,62.9
								z"/>
						</g>
						<path fill="#17CCAE" d="M30,50.6c0,0.2-0.2,0.4-0.4,0.4H19.4c-0.2,0-0.4-0.2-0.4-0.4v-0.1c0-0.2,0.2-0.4,0.4-0.4h10.1
							c0.2,0,0.4,0.2,0.4,0.4V50.6z"/>
					</g>
					<g>
						<g>
							<path fill="#0C9686" d="M31.2,35.2c-2.5-0.1-4.7,1.9-4.7,4.5c-0.1,2.1,1.6,3.8,3.7,3.9c1.7,0,3.2-1.3,3.2-3
								c0-1.4-1.1-2.6-2.5-2.6c-1.2,0-2.2,0.9-2.2,2.1c0,0.2,0.2,0.4,0.4,0.4c0.2,0,0.4-0.2,0.4-0.4c0-0.7,0.6-1.3,1.3-1.2
								c0.9,0,1.7,0.8,1.7,1.8c0,1.2-1.1,2.2-2.3,2.2c-1.6,0-2.9-1.4-2.8-3c0.1-2.1,1.8-3.7,3.9-3.6c2.6,0.1,4.7,2.3,4.7,4.9
								c-0.1,3.4-2.7,6.1-6.1,6c-0.2,0-0.6,0.1-0.6,0.3c0,0.2,0.4,0.7,0.6,0.7c3.8,0.1,6.8-3.2,7-7C36.8,37.9,34.3,35.3,31.2,35.2z"
								/>
						</g>
						<path fill="#0C9686" d="M30.2,47.5c0-0.2-0.2-0.5-0.4-0.5H19.6c-0.2,0-0.4,0.3-0.4,0.5l0,0c0,0.2,0.2,0.5,0.4,0.5h10.2
							C30,48,30.2,47.7,30.2,47.5L30.2,47.5z"/>
					</g>
				</g>
				<g>
					<circle fill="#0C9686" cx="24.7" cy="42" r="0.4"/>
					<circle fill="#17CCAE" cx="24.7" cy="56" r="0.4"/>
				</g>
				<circle fill="#0C9686" cx="34.1" cy="49" r="0.4"/>
			</g>
		</g>
		<g>
			<g>
				<path fill="#0C9686" d="M43.2,44.5c0-0.2-0.2-0.5-0.3-0.5h-7.9c-0.2,0-0.3,0.3-0.3,0.5l0,0c0,0.2,0.2,0.5,0.3,0.5h7.9
					C43,45,43.2,44.7,43.2,44.5L43.2,44.5z"/>
				<path fill="#17CCAE" d="M43.2,53.5c0-0.2-0.2-0.5-0.3-0.5h-7.9c-0.2,0-0.3,0.3-0.3,0.5l0,0c0,0.2,0.2,0.5,0.3,0.5h7.9
					C43,54,43.2,53.7,43.2,53.5L43.2,53.5z"/>
			</g>
			<g>
				<g>
					<g>
						<g>
							<path fill="#17CCAE" d="M47.5,62.9C45,63,42.8,61,42.8,58.4c-0.1-2.1,1.6-3.8,3.7-3.9c1.7,0,3.2,1.3,3.2,3
								c0,1.4-1.1,2.6-2.5,2.6c-1.2,0-2.2-0.9-2.2-2.1c0-0.2,0.2-0.4,0.4-0.4c0.2,0,0.4,0.2,0.4,0.4c0,0.7,0.6,1.3,1.3,1.2
								c0.9,0,1.7-0.8,1.7-1.8c0-1.2-1.1-2.2-2.3-2.2c-1.6,0-2.9,1.4-2.8,3c0.1,2.1,1.8,3.7,3.9,3.6c2.6-0.1,4.7-2.3,4.7-4.9
								c-0.1-3.4-3.2-6.2-6.6-6.1c-0.2,0-0.4-0.1-0.4-0.3c0-0.2,0.2-0.7,0.4-0.7c3.8-0.1,7.3,3.3,7.4,7.1
								C53.1,60.2,50.6,62.8,47.5,62.9z"/>
						</g>
						<path fill="#17CCAE" d="M46,50.6c0,0.2-0.2,0.4-0.4,0.4H35.4c-0.2,0-0.4-0.2-0.4-0.4v-0.1c0-0.2,0.2-0.4,0.4-0.4h10.1
							c0.2,0,0.4,0.2,0.4,0.4V50.6z"/>
					</g>
					<g>
						<g>
							<path fill="#0C9686" d="M47.5,35.2c-2.5-0.1-4.7,1.9-4.7,4.5c-0.1,2.1,1.6,3.8,3.7,3.9c1.7,0,3.2-1.3,3.2-3
								c0-1.4-1.1-2.6-2.5-2.6c-1.2,0-2.2,0.9-2.2,2.1c0,0.2,0.2,0.4,0.4,0.4c0.2,0,0.4-0.2,0.4-0.4c0-0.7,0.6-1.3,1.3-1.2
								c0.9,0,1.7,0.8,1.7,1.8c0,1.2-1.1,2.2-2.3,2.2c-1.6,0-2.9-1.4-2.8-3c0.1-2.1,1.8-3.7,3.9-3.6c2.6,0.1,4.7,2.3,4.7,4.9
								c-0.1,3.4-2.7,6.1-6.1,6c-0.2,0-0.6,0.1-0.6,0.3c0,0.2,0.4,0.7,0.6,0.7c3.8,0.1,6.8-3.2,7-7C53.1,37.9,50.6,35.3,47.5,35.2z"
								/>
						</g>
						<path fill="#0C9686" d="M46.5,47.5c0-0.2-0.2-0.5-0.4-0.5H35.9c-0.2,0-0.4,0.3-0.4,0.5l0,0c0,0.2,0.2,0.5,0.4,0.5h10.2
							C46.3,48,46.5,47.7,46.5,47.5L46.5,47.5z"/>
					</g>
				</g>
				<g>
					<circle fill="#0C9686" cx="40.9" cy="42" r="0.4"/>
					<circle fill="#17CCAE" cx="40.9" cy="56" r="0.4"/>
				</g>
				<circle fill="#0C9686" cx="50.4" cy="49" r="0.4"/>
			</g>
		</g>
	</g>
	<g>
		<path fill="#DCF9F6" d="M62,17.2c0-8.9-7.2-16.1-16.2-16.1c-6.3,0-11.7,3.6-14.4,8.9c-0.6-0.1-1.2-0.2-1.8-0.2
			c-4.2,0-7.6,3.4-7.6,7.6c0,0.2-0.2,0.3-0.2,0.5c-5.6,0.6-8.8,5.4-8.8,11.3V30c0,6.3,5.5,11,11.8,11h25.8C56.8,41,62,36.3,62,30
			v-3.6C62,23.4,62,20.2,62,17.2z"/>
		<path fill="#B3DDD7" d="M62,19.4c0-8.9-7.2-16.1-16.2-16.1c-6.3,0-11.7,3.6-14.4,8.9c-0.6-0.1-1.2-0.2-1.8-0.2
			c-4.2,0-7.6,3.4-7.6,7.6c0,0.2-0.2,0.3-0.2,0.5c-5.6,0.6-8.8,3.3-8.8,9.2V30c0,6.3,5.5,11,11.8,11h25.8C56.8,41,62,36.3,62,30
			v-3.6C62,23.4,62,22.4,62,19.4z"/>
		<path fill="#A6D1CC" d="M25,41h25.6C56.8,41,62,36.3,62,30v-3.6c0-2.9,0-4.2,0-7.3"/>
		<path fill="#98D3CD" d="M21.9,19.5"/>
		<path fill="#DCF9F6" d="M38.8,19.6c-0.5-0.1-1-0.2-1.5-0.2c-3,0-5.4,2.4-5.4,5.4c0,0.5,0.1,1,0.2,1.5C32.6,22.8,35.3,20,38.8,19.6
			z"/>
		<path fill="#DCF9F6" d="M48.2,14.6c-0.6-0.3-1.3-0.6-2-0.7c-4-0.7-7.9,1.9-8.6,5.9c-0.1,0.7-0.1,1.4,0,2.1
			C39,17.4,43.4,14.3,48.2,14.6z"/>
		<path fill="#B1DDD9" d="M19.4,28.4c0,0.3-0.2,0.5-0.5,0.5c-0.3,0-0.5-0.2-0.5-0.5s0.2-0.5,0.5-0.5C19.2,27.8,19.4,28.1,19.4,28.4z
			"/>
		<circle fill="#B1DDD9" cx="20.3" cy="24.3" r="0.7"/>
		<circle fill="#B1DDD9" cx="29.6" cy="16.6" r="0.3"/>
		<path fill="#DCF9F6" d="M37.9,12.5c0,0.4-0.4,0.8-0.8,0.8c-0.4,0-0.8-0.4-0.8-0.8c0-0.4,0.4-0.8,0.8-0.8
			C37.5,11.7,37.9,12,37.9,12.5z"/>
		<path fill="#DCF9F6" d="M43.8,5.9c0,0.2-0.2,0.4-0.4,0.4c-0.2,0-0.4-0.2-0.4-0.4c0-0.2,0.2-0.4,0.4-0.4
			C43.6,5.5,43.8,5.6,43.8,5.9z"/>
		<path fill="#DCF9F6" d="M48.3,7.1c0,0.7-0.5,1.2-1.2,1.2c-0.7,0-1.2-0.5-1.2-1.2c0-0.7,0.5-1.2,1.2-1.2
			C47.7,5.9,48.3,6.4,48.3,7.1z"/>
	</g>
</g>
</svg>
