<?xml version="1.0" encoding="utf-8"?>
<!-- Generator: Adobe Illustrator 16.0.0, SVG Export Plug-In . SVG Version: 6.00 Build 0)  -->
<!DOCTYPE svg PUBLIC "-//W3C//DTD SVG 1.1//EN" "http://www.w3.org/Graphics/SVG/1.1/DTD/svg11.dtd">
<svg version="1.1" id="Layer_1" xmlns="http://www.w3.org/2000/svg" xmlns:xlink="http://www.w3.org/1999/xlink" x="0px" y="0px"
	 width="64px" height="64px" viewBox="0 0 64 64" enable-background="new 0 0 64 64" xml:space="preserve">
<g>
	<g>
		<circle fill="#51D687" cx="32" cy="31.6" r="31.1"/>
		<path fill="#3CC676" d="M54,9.7c12.1,12.1,12.1,31.8,0,43.9s-31.8,12.1-43.9,0"/>
	</g>
	<g>
		<g>
			<polygon fill="#5E6664" points="62.8,48.6 32,63.4 1.2,48.6 6.1,22.1 32,8 57.9,22.1 			"/>
			<polyline fill="#2F423F" points="32,8 57.9,22.1 62.8,48.6 32,63.4 1.2,48.6 			"/>
			<polygon fill="#FFFFFF" points="62.8,48.6 32,63.4 1.2,48.6 8.1,22.1 32,25.2 55.9,22.1 			"/>
			<polygon fill="#FFFFFF" points="62.8,48.6 32,63.4 1.2,48.6 8.1,22.1 32,27.5 55.9,22.1 			"/>
			<polyline fill="#EDEBD3" points="32,26 55.9,22.1 62.8,48.6 32,63.4 			"/>
			<g>
				<g>
					<path fill="#5E6664" d="M23.3,28.8c0,1.4-1.2,2.5-2.8,2.5c-1.5,0-2.8-1.1-2.8-2.5s1.2-2.5,2.8-2.5
						C22.1,26.3,23.3,27.4,23.3,28.8z"/>
					<path fill="#2F423F" d="M22.5,27c1.1,1,1.1,2.5,0,3.5c-1.1,1-2.8,1-3.9,0"/>
				</g>
				<g>
					<path fill="#5E6664" d="M46.2,28.8c0,1.4-1.2,2.5-2.8,2.5s-2.8-1.1-2.8-2.5s1.2-2.5,2.8-2.5S46.2,27.4,46.2,28.8z"/>
					<path fill="#2F423F" d="M45.4,27c1.1,1,1.1,2.5,0,3.5c-1.1,1-2.8,1-3.9,0"/>
				</g>
			</g>
			<polygon fill="#EDEBD3" points="24.8,36.5 32.7,59.1 41.4,43.9 34.3,35.2 			"/>
			<g>
				<polyline fill="#FCCC32" points="32,44 39.2,36.5 36.1,33.8 32,31.5 32,31.7 32,31.5 27.9,33.8 24.8,36.5 31.4,43.3 				"/>
				<polyline fill="#EFAE0C" points="32,44 39.2,36.5 36.1,33.8 32,31.5 32,31.7 32,31.5 				"/>
			</g>
		</g>
	</g>
</g>
</svg>
