<?xml version="1.0" encoding="utf-8"?>
<!-- Generator: Adobe Illustrator 16.0.0, SVG Export Plug-In . SVG Version: 6.00 Build 0)  -->
<!DOCTYPE svg PUBLIC "-//W3C//DTD SVG 1.1//EN" "http://www.w3.org/Graphics/SVG/1.1/DTD/svg11.dtd">
<svg version="1.1" id="Layer_1" xmlns="http://www.w3.org/2000/svg" xmlns:xlink="http://www.w3.org/1999/xlink" x="0px" y="0px"
	 width="64px" height="64px" viewBox="0 0 64 64" enable-background="new 0 0 64 64" xml:space="preserve">
<g>
	<g>
		
			<ellipse transform="matrix(0.9618 -0.2737 0.2737 0.9618 -13.9862 5.3213)" fill="#EA7103" cx="12.1" cy="52.8" rx="8.8" ry="8.5"/>
	</g>
	<g>
		<g>
			<g>
				<path fill="#F7910B" d="M62.8,37.2c0,13-11.9,23.5-30.3,23.5c-18.4,0-30.3-10.5-30.3-23.5S14.1,4.7,32.5,4.7
					C50.9,4.7,62.8,24.2,62.8,37.2z"/>
			</g>
			<g>
				<path fill="#F7910B" d="M62.8,37.2c0,13-11.9,19.5-30.3,19.5c-18.4,0-30.3-6.5-30.3-19.5S14.1,2.7,32.5,2.7
					C50.9,2.7,62.8,24.2,62.8,37.2z"/>
			</g>
			<g>
				<path fill="#F9A908" d="M32.5,2.7c18.4,0,30.3,21.5,30.3,34.5S50.9,56.7,32.5,56.7"/>
			</g>
			<g>
				<path fill="#F9A908" d="M62.8,37.2c0,13-11.9,19.5-30.3,19.5c-18.4,0-30.3-6.5-30.3-19.5S14.1,4.7,32.5,4.7
					C50.9,4.7,62.8,24.2,62.8,37.2z"/>
			</g>
			<g>
				<path fill="#F9C55D" d="M2.1,37.2c0-13,11.9-32.5,30.3-32.5"/>
			</g>
			<g>
				<path fill="#F7910B" d="M32.5,4.7c18.4,0,30.3,19.5,30.3,32.5S50.9,60.7,32.5,60.7"/>
			</g>
			<g>
				<path fill="#EA7103" d="M32.5,4.7c18.4,0,30.3,19.5,30.3,32.5"/>
			</g>
			<g>
				<g>
					<circle fill="#EA7103" cx="22.1" cy="25.4" r="3.2"/>
				</g>
				<g>
					<circle fill="#EA7103" cx="42.9" cy="25.4" r="3.2"/>
				</g>
				<g>
					<circle fill="#1E4784" cx="22.1" cy="24.5" r="3.2"/>
				</g>
				<g>
					<path fill="#00233F" d="M22.1,21.3c1.8,0,3.2,1.4,3.2,3.2s-1.4,3.2-3.2,3.2"/>
				</g>
				<g>
					<circle fill="#1E4784" cx="42.9" cy="24.5" r="3.2"/>
				</g>
				<g>
					<path fill="#00233F" d="M42.9,21.3c1.8,0,3.2,1.4,3.2,3.2s-1.4,3.2-3.2,3.2"/>
				</g>
			</g>
			<g>
				<g>
					<g>
						<g>
							<g>
								<g>
									<path fill="#19BCA4" d="M26.1,9.7c0.3,0.8-1.2,1-2.9,1.7c-1.7,0.7-2.8,1.7-3.2,0.9c-0.3-0.8,0.7-2,2.4-2.7
										C24.1,8.8,25.8,8.9,26.1,9.7z"/>
								</g>
							</g>
						</g>
					</g>
					<g>
						<g>
							<g>
								<g>
									<path fill="#19BCA4" d="M38.9,14.2c-0.3,0.8,1.2,0.9,2.9,1.6c1.7,0.6,2.9,1.6,3.2,0.8c0.3-0.8-0.8-2-2.5-2.6
										C40.8,13.3,39.2,13.4,38.9,14.2z"/>
								</g>
							</g>
						</g>
					</g>
				</g>
				<g>
					<g>
						<g>
							<g>
								<g>
									<path fill="#109DA0" d="M26.1,9.7c0.3,0.8-1.2,1-2.9,1.7c-1.7,0.7-2.8,1.7-3.2,0.9"/>
								</g>
							</g>
						</g>
					</g>
					<g>
						<g>
							<g>
								<g>
									<path fill="#109DA0" d="M38.9,14.2c-0.3,0.8,1.2,0.9,2.9,1.6c1.7,0.6,2.9,1.6,3.2,0.8"/>
								</g>
							</g>
						</g>
					</g>
				</g>
			</g>
			<g>
				<g>
					<path fill="#F9C55D" d="M28.3,30.5c0,1.2-3.5,0.7-7.8,0.7c-4.3,0-7.8,0.6-7.8-0.7c0-1.2,3.5-2.2,7.8-2.2
						C24.8,28.3,28.3,29.3,28.3,30.5z"/>
				</g>
				<g>
					<path fill="#F9A908" d="M52.3,30.5c0,1.2-3.5,0.7-7.8,0.7s-7.8,0.6-7.8-0.7c0-1.2,3.5-2.2,7.8-2.2S52.3,29.3,52.3,30.5z"/>
				</g>
			</g>
			<g>
				<circle fill="#F7910B" cx="10.8" cy="34.2" r="0.6"/>
			</g>
			<g>
				<circle fill="#F7910B" cx="6.3" cy="36.2" r="1.1"/>
			</g>
			<g>
				<circle fill="#F7910B" cx="9.3" cy="32.2" r="0.2"/>
			</g>
			<g>
				<circle fill="#F7910B" cx="13.9" cy="34" r="0.2"/>
			</g>
			<g>
				<circle fill="#F9A908" cx="53.1" cy="34.5" r="0.8"/>
			</g>
			<g>
				<circle fill="#F9A908" cx="55.6" cy="35.9" r="0.2"/>
			</g>
			<g>
				<circle fill="#F9A908" cx="50.2" cy="27.1" r="0.3"/>
			</g>
			<g>
				<circle fill="#F9A908" cx="49.7" cy="38.7" r="1.3"/>
			</g>
			<g>
				<circle fill="#F9A908" cx="56.9" cy="38.8" r="0.6"/>
			</g>
			<g>
				<circle fill="#F7910B" cx="9.8" cy="38.2" r="0.5"/>
			</g>
			<g>
				<circle fill="#F7910B" cx="10.6" cy="29.8" r="0.4"/>
			</g>
			<g>
				<circle fill="#F9A908" cx="5.3" cy="16" r="1.1"/>
			</g>
			<g>
				<circle fill="#F9A908" cx="8.5" cy="12.5" r="0.6"/>
			</g>
			<g>
				<circle fill="#F9A908" cx="59.7" cy="18.4" r="0.2"/>
			</g>
			<g>
				<circle fill="#F9A908" cx="58.9" cy="15.5" r="0.8"/>
			</g>
			<g>
				<circle fill="#F9A908" cx="61.4" cy="16" r="0.5"/>
			</g>
			<g>
				<circle fill="#F9A908" cx="6.5" cy="19" r="0.6"/>
			</g>
			<g>
				<g>
					<g>
						<path fill="#F7910B" d="M38.1,36.3c0,2.4-2.5,6.6-5.6,6.6c-3.1,0-5.6-4.3-5.6-6.6"/>
					</g>
					<g>
						<g>
							<path fill="#02243E" d="M21,34.3c-0.6,0-1-0.4-1-1s0.4-1,1-1c0.6,0,1-0.7,1-1.4c0-0.6,0.4-1,1-1s1,0.4,1,1
								C24,32.8,22.7,34.3,21,34.3z"/>
						</g>
						<g>
							<path fill="#02243E" d="M44,34.3c-1.7,0-3-1.5-3-3.4c0-0.6,0.4-1,1-1s1,0.4,1,1c0,0.8,0.5,1.4,1,1.4c0.6,0,1,0.4,1,1
								S44.5,34.3,44,34.3z"/>
						</g>
					</g>
					<g>
						<path fill="#02243E" d="M32.5,38.8c-4.1,0-7.9-1.9-10.8-5.3c-0.4-0.4-0.3-1.1,0.1-1.4c0.4-0.4,1.1-0.3,1.4,0.1
							c2.5,3,5.8,4.6,9.3,4.6s6.8-1.6,9.3-4.6c0.4-0.4,1-0.5,1.4-0.1c0.4,0.4,0.5,1,0.1,1.4C40.4,37,36.6,38.8,32.5,38.8z"/>
					</g>
				</g>
				<g>
					<path fill="#F9C55D" d="M36.9,33.8c0,1.1-2,2.1-4.5,2.1c-2.5,0-4.5-0.9-4.5-2.1"/>
				</g>
			</g>
		</g>
		<g>
			<g>
				<g>
					<path fill="#CCF2E3" d="M18,37.1c0.1,8.2-1.8,6.1-4.1,6.2c-2.3,0-4.2,2.2-4.3-6c-0.1-8.2,1.7-11.5,4.1-11.5
						C15.9,25.7,17.9,28.9,18,37.1z"/>
				</g>
				<g>
					<path fill="#AAD6C3" d="M13.6,25.7c2.3,0,4.3,3.2,4.4,11.4c0.1,8.2-1.8,6.1-4.1,6.2"/>
				</g>
				<g>
					<path fill="#CCF2E3" d="M26.6,45.7c0.1,7.6-3.7,14-11.4,14.1c-7.6,0.1-13.9-5.9-14-13.5C1.1,38.8,7.2,36.1,14.9,36
						S26.5,38.2,26.6,45.7z"/>
				</g>
				<g>
					<path fill="#AAD6C3" d="M26.6,45.7c0.1,7.6-3.7,14-11.4,14.1C7.6,59.9,5,53.3,5,45.7c0-4.8-2.5-9,9.4-9.9
						C22,35.3,26.5,37.9,26.6,45.7z"/>
				</g>
				<g>
					<path fill="#AAD6C3" d="M29.4,44.9c1.8,2.1-1,7.4-6.3,11.7c-5.2,4.3-10.9,4.1-12.6,2c-1.8-2.1,1-5.4,6.3-9.7
						C22,44.5,27.6,42.8,29.4,44.9z"/>
				</g>
			</g>
			<g>
				<path fill="#E7F7EF" d="M11.3,28.4c-0.5,1.1-0.6,2-0.3,2.2c0.3,0.1,1-0.6,1.4-1.6c0.5-1.1,0.6-2,0.3-2.2S11.7,27.3,11.3,28.4z"
					/>
			</g>
			<g>
				<path fill="#E7F7EF" d="M4.2,45.8c0.1,2.5-0.3,4.5-0.9,4.5c-0.6,0-1.1-2-1.1-4.5c-0.1-2.5,0.4-3.1,0.9-3.1
					C3.6,42.8,4.1,43.3,4.2,45.8z"/>
			</g>
		</g>
	</g>
</g>
</svg>
