<?xml version="1.0" encoding="utf-8"?>
<!-- Generator: Adobe Illustrator 16.0.0, SVG Export Plug-In . SVG Version: 6.00 Build 0)  -->
<!DOCTYPE svg PUBLIC "-//W3C//DTD SVG 1.1//EN" "http://www.w3.org/Graphics/SVG/1.1/DTD/svg11.dtd">
<svg version="1.1" id="Layer_1" xmlns="http://www.w3.org/2000/svg" xmlns:xlink="http://www.w3.org/1999/xlink" x="0px" y="0px"
	 width="65px" height="65px" viewBox="0 0 65 65" enable-background="new 0 0 65 65" xml:space="preserve">
<g>
	<g>
		<g>
			<g>
				<g>
					<g>
						<path fill="#D39959" d="M12.63,24.46c-3.78-2.511-7.661-4.72-8.351-3.948c-0.672,0.757,1.843,4.212,4.698,7.601L12.63,24.46z"
							/>
						<path fill="#D39959" d="M37.806,27.722c2.717-3.26,5.018-6.482,4.372-7.21c-0.663-0.742-4.28,1.274-7.919,3.663L37.806,27.722
							z"/>
					</g>
					<g>
						<path fill="#960808" d="M20.201,46.446c0,2.476-2.008,15.827-4.486,15.827c-2.475,0-4.482-13.352-4.482-15.827
							s2.008-4.484,4.482-4.484C18.193,41.962,20.201,43.971,20.201,46.446z"/>
						<path fill="#960808" d="M35.227,46.446c0,2.476-2.008,15.827-4.486,15.827c-2.475,0-4.482-13.352-4.482-15.827
							s2.008-4.484,4.482-4.484C33.219,41.962,35.227,43.971,35.227,46.446z"/>
					</g>
					<g>
						<path fill="#F28E0A" d="M34.061,31.979c3.745-4.05,9.059-10.405,8.117-11.467c-0.906-1.015-7.332,3.124-11.789,6.327
							C31.877,28.184,33.126,29.941,34.061,31.979z"/>
						<path fill="#F28E0A" d="M16.068,26.839c-4.457-3.203-10.883-7.342-11.789-6.327c-0.941,1.062,4.373,7.417,8.117,11.467
							C13.331,29.942,14.58,28.185,16.068,26.839z"/>
						<path fill="#F28E0A" d="M31.035,35.062c-2.268,2.018-5.139,2.494-6.412,1.064c-1.273-1.432-0.465-4.229,1.805-6.25
							c0.656-0.583,2.146-1.733,3.961-3.038c-2.037-1.84-4.502-2.92-7.16-2.92s-5.123,1.081-7.16,2.92
							c1.814,1.305,3.305,2.455,3.961,3.038c2.27,2.021,3.078,4.818,1.805,6.25c-1.273,1.43-4.145,0.953-6.412-1.064
							c-0.59-0.524-1.712-1.663-3.025-3.084c-1.146,2.499-1.818,5.414-1.818,8.543c0,16.038,5.664,10.697,12.65,10.697
							c6.988,0,12.65,5.341,12.65-10.697c0-3.129-0.672-6.045-1.818-8.543C32.747,33.399,31.625,34.538,31.035,35.062z"/>
						<path fill="#F28E0A" d="M24.623,36.127c1.273,1.43,4.145,0.953,6.412-1.064c0.59-0.524,1.712-1.663,3.025-3.084
							c-0.935-2.037-2.184-3.795-3.672-5.14c-1.814,1.305-3.305,2.455-3.961,3.038C24.158,31.898,23.35,34.695,24.623,36.127z"/>
						<path fill="#F28E0A" d="M15.422,35.062c2.268,2.018,5.139,2.494,6.412,1.064c1.273-1.432,0.465-4.229-1.805-6.25
							c-0.656-0.583-2.146-1.733-3.961-3.038c-1.488,1.346-2.737,3.104-3.672,5.14C13.71,33.399,14.832,34.538,15.422,35.062z"/>
					</g>
					<g>
						<path fill="#FF7300" d="M20.762,62.354c0,1.896-2.26,2.146-5.045,2.146s-5.045-0.249-5.045-2.146
							c0-1.897,2.26-4.508,5.045-4.508S20.762,60.457,20.762,62.354z"/>
						<path fill="#FF4800" d="M20.762,62.354c0,1.896-2.26,2.146-5.045,2.146s-5.045-0.249-5.045-2.146"/>
					</g>
					<g>
						<path fill="#FF7300" d="M35.787,62.354c0,1.896-2.26,2.146-5.045,2.146s-5.045-0.249-5.045-2.146
							c0-1.897,2.26-4.508,5.045-4.508S35.787,60.457,35.787,62.354z"/>
						<path fill="#FF4800" d="M35.787,62.354c0,1.896-2.26,2.146-5.045,2.146s-5.045-0.249-5.045-2.146"/>
					</g>
					<g>
						<path fill="#EFC286" d="M39.6,16.275c0,7.999-7.33,12.02-16.369,12.02c-9.041,0-16.373-4.021-16.373-12.02
							C6.857,8.274,14.189,0.5,23.23,0.5C32.27,0.5,39.6,8.274,39.6,16.275z"/>
						<path fill="#E8B374" d="M39.6,16.275c0,7.999-7.33,12.02-16.369,12.02c-9.041,0-16.373-4.021-16.373-12.02"/>
					</g>
					<g>
						<g>
							<g>
								<path fill="#232728" d="M20.529,23.148c-0.078,0-0.158-0.028-0.219-0.091c-0.715-0.714-1.664-1.107-2.672-1.107h-0.002
									c-1.008,0-1.955,0.394-2.666,1.106c-0.121,0.121-0.316,0.124-0.436,0.001c-0.121-0.117-0.125-0.312-0.004-0.434
									c0.83-0.831,1.932-1.29,3.105-1.29h0.002c1.176,0,2.279,0.456,3.111,1.288c0.119,0.119,0.119,0.318,0,0.436
									C20.689,23.12,20.611,23.148,20.529,23.148z"/>
							</g>
						</g>
						<g>
							<g>
								<path fill="#232728" d="M30.324,23.148c0.076,0,0.156-0.028,0.217-0.091c0.715-0.714,1.664-1.107,2.672-1.107h0.002
									c1.008,0,1.957,0.394,2.668,1.106c0.119,0.121,0.314,0.124,0.436,0.001c0.121-0.117,0.123-0.312,0.002-0.434
									c-0.826-0.831-1.932-1.29-3.105-1.29h-0.002c-1.174,0-2.277,0.456-3.111,1.288c-0.117,0.119-0.117,0.318,0,0.436
									C30.164,23.12,30.242,23.148,30.324,23.148z"/>
							</g>
						</g>
					</g>
				</g>
				<path fill="#A7B1B7" d="M25.812,45.298"/>
			</g>
		</g>
	</g>
	<g>
		<g>
			<path fill="#E09B00" d="M60.83,55.256c0,4.694-4.746,6.209-10.602,6.209s-10.602-1.515-10.602-6.209
				c0-4.695,4.746-8.5,10.602-8.5S60.83,50.561,60.83,55.256z"/>
			<path fill="#EFB600" d="M39.627,55.256c0-4.695,4.746-8.5,10.602-8.5"/>
			<path fill="#DB8C00" d="M50.229,46.756c5.855,0,10.602,3.805,10.602,8.5c0,4.694-4.746,6.209-10.602,6.209"/>
			<path fill="#E09B00" d="M50.229,46.756c5.855,0,10.602,3.805,10.602,8.5"/>
			<path fill="#F4C237" d="M58.104,44.485c0,3.487-3.525,4.612-7.875,4.612s-7.877-1.125-7.877-4.612s3.527-6.313,7.877-6.313
				S58.104,40.998,58.104,44.485z"/>
			<path fill="#EFB600" d="M58.104,44.485c0,3.487-3.525,4.612-7.875,4.612s-7.877-1.125-7.877-4.612s3.527-5.684,7.877-5.684
				S58.104,40.998,58.104,44.485z"/>
			<path fill="#EDA900" d="M58.104,44.485c0,3.487-3.525,4.612-7.875,4.612s-7.877-1.125-7.877-4.612"/>
			<g>
				<g>
					<circle fill="#2D2612" cx="46.726" cy="42.515" r="0.86"/>
					<path fill="#443B23" d="M45.865,42.515c0,0.087,0.018,0.17,0.042,0.249c0.079,0.023,0.163,0.041,0.249,0.041
						c0.475,0,0.859-0.386,0.859-0.86c0-0.087-0.016-0.17-0.04-0.249c-0.079-0.025-0.161-0.042-0.249-0.042
						C46.25,41.653,45.865,42.039,45.865,42.515z"/>
				</g>
				<g>
					<circle fill="#2D2612" cx="53.729" cy="42.515" r="0.86"/>
					<path fill="#443B23" d="M52.869,42.515c0,0.087,0.018,0.17,0.041,0.249c0.08,0.023,0.162,0.041,0.25,0.041
						c0.475,0,0.859-0.386,0.859-0.86c0-0.087-0.018-0.17-0.041-0.249c-0.078-0.025-0.16-0.042-0.248-0.042
						C53.254,41.653,52.869,42.039,52.869,42.515z"/>
				</g>
			</g>
			<path fill="#D15400" d="M52.064,43.889l-1.697-1.2c-0.084-0.06-0.194-0.06-0.277,0l-1.698,1.2
				c-0.066,0.047-0.104,0.124-0.101,0.205c0.002,0.081,0.047,0.155,0.115,0.196l1.697,1.021c0.039,0.023,0.082,0.035,0.125,0.035
				c0.041,0,0.085-0.012,0.123-0.035l1.698-1.021c0.069-0.041,0.112-0.115,0.116-0.196C52.169,44.013,52.131,43.936,52.064,43.889z"
				/>
			<path fill="#FF6D00" d="M52.064,43.889l-1.697-1.2c-0.084-0.06-0.194-0.06-0.277,0l-1.698,1.2
				c-0.066,0.047-0.104,0.124-0.101,0.205c0.002,0.081,0.047,0.155,0.115,0.196l1.697,0.32c0.039,0.022,0.082,0.034,0.125,0.034
				c0.041,0,0.085-0.012,0.123-0.034l1.698-0.32c0.069-0.041,0.112-0.115,0.116-0.196C52.169,44.013,52.131,43.936,52.064,43.889z"
				/>
		</g>
		<g>
			<g>
				<g>
					<ellipse fill="#DB8C00" cx="48.025" cy="60.193" rx="1.336" ry="0.42"/>
					<path fill="#D15400" d="M48.761,62.626c0,0.397-0.323,0.72-0.721,0.72l0,0c-0.397,0-0.72-0.322-0.72-0.72v-2.242
						c0-0.397,0.322-0.24,0.72-0.24l0,0c0.397,0,0.721-0.157,0.721,0.24V62.626z"/>
				</g>
				<g>
					<g>
						<path fill="#D15400" d="M45.498,64.5c-0.266,0-0.48-0.215-0.48-0.48c0-0.77,0.626-1.395,1.395-1.395h1.768
							c0.266,0,0.48,0.215,0.48,0.48c0,0.265-0.215,0.479-0.48,0.479h-1.768c-0.24,0-0.434,0.195-0.434,0.435
							C45.979,64.285,45.764,64.5,45.498,64.5z"/>
					</g>
					<g>
						<path fill="#D15400" d="M46.879,64.5c-0.266,0-0.48-0.215-0.48-0.48c0-0.77,0.626-1.395,1.395-1.395h1.283
							c0.265,0,0.479,0.215,0.479,0.48c0,0.265-0.215,0.479-0.479,0.479h-1.283c-0.24,0-0.434,0.195-0.434,0.435
							C47.359,64.285,47.145,64.5,46.879,64.5z"/>
					</g>
				</g>
			</g>
			<g>
				<g>
					<ellipse fill="#E09B00" cx="52.432" cy="60.193" rx="1.336" ry="0.42"/>
					<path fill="#D15400" d="M51.696,62.626c0,0.397,0.323,0.72,0.721,0.72l0,0c0.397,0,0.72-0.322,0.72-0.72v-2.242
						c0-0.397-0.322-0.24-0.72-0.24l0,0c-0.397,0-0.721-0.157-0.721,0.24V62.626z"/>
				</g>
				<g>
					<g>
						<path fill="#D15400" d="M54.959,64.5c0.266,0,0.48-0.215,0.48-0.48c0-0.77-0.626-1.395-1.396-1.395h-1.767
							c-0.267,0-0.481,0.215-0.481,0.48c0,0.265,0.215,0.479,0.481,0.479h1.767c0.239,0,0.435,0.195,0.435,0.435
							C54.479,64.285,54.693,64.5,54.959,64.5z"/>
					</g>
					<g>
						<path fill="#D15400" d="M53.578,64.5c0.266,0,0.48-0.215,0.48-0.48c0-0.77-0.627-1.395-1.395-1.395h-1.283
							c-0.266,0-0.48,0.215-0.48,0.48c0,0.265,0.215,0.479,0.48,0.479h1.283c0.238,0,0.434,0.195,0.434,0.435
							C53.098,64.285,53.312,64.5,53.578,64.5z"/>
					</g>
				</g>
			</g>
		</g>
	</g>
	<path fill="#D15400" d="M28.479,41.39c0-1.432-0.943-2.68-2.354-3.389c0.659-0.338,1.068-0.877,1.068-1.69
		c0-1.645-1.663-2.978-3.715-2.978c-2.051,0-3.715,1.333-3.715,2.978c0,0.813,0.409,1.353,1.068,1.69
		c-1.41,0.709-2.354,1.957-2.354,3.389c0,1.83,1.537,2.627,3.628,2.851v0.626h-0.428c-0.362,0-0.657,0.294-0.657,0.657
		c0,0.125,0.101,0.227,0.227,0.227c0.125,0,0.227-0.102,0.227-0.227c0-0.113,0.091-0.205,0.204-0.205h0.034
		c-0.021,0.065-0.041,0.132-0.041,0.205c0,0.125,0.102,0.227,0.227,0.227c0.126,0,0.227-0.102,0.227-0.227
		c0-0.113,0.092-0.205,0.205-0.205h0.182h0.424c0.125,0,0.226-0.102,0.226-0.226c0-0.126-0.101-0.227-0.226-0.227h-0.15v-0.572
		c0.229,0.012,0.456,0.024,0.693,0.024c0.236,0,0.465-0.013,0.691-0.024v0.572h-0.148c-0.125,0-0.227,0.101-0.227,0.227
		c0,0.124,0.102,0.226,0.227,0.226h0.423h0.183c0.113,0,0.205,0.092,0.205,0.205c0,0.125,0.102,0.227,0.227,0.227
		s0.227-0.102,0.227-0.227c0-0.073-0.02-0.14-0.041-0.205h0.034c0.112,0,0.204,0.092,0.204,0.205c0,0.125,0.102,0.227,0.228,0.227
		c0.124,0,0.226-0.102,0.226-0.227c0-0.363-0.295-0.657-0.657-0.657H24.85V44.24C26.939,44.017,28.479,43.221,28.479,41.39z"/>
	<path fill="#26BC30" d="M23.23,0.5c-9.041,0-16.373,7.774-16.373,15.775c0,0.667,0.068,1.296,0.168,1.907l0.062,0.15l4.125-6.875
		l6.25,2.125v-1.625l4,2.25l0.625-2l10.5,5l0.125-6.125l2.75,2.875l0.125-3.25l2.375,2.375l0.375-1.625l0.83,1.484
		C37.494,6.247,31,0.5,23.23,0.5z"/>
</g>
</svg>
