<?xml version="1.0" encoding="utf-8"?>
<!-- Generator: Adobe Illustrator 16.0.0, SVG Export Plug-In . SVG Version: 6.00 Build 0)  -->
<!DOCTYPE svg PUBLIC "-//W3C//DTD SVG 1.1//EN" "http://www.w3.org/Graphics/SVG/1.1/DTD/svg11.dtd">
<svg version="1.1" id="Layer_1" xmlns="http://www.w3.org/2000/svg" xmlns:xlink="http://www.w3.org/1999/xlink" x="0px" y="0px"
	 width="65px" height="65px" viewBox="0 0 65 65" enable-background="new 0 0 65 65" xml:space="preserve">
<g>
	<g>
		<g>
			<g>
				<path fill="#FF6D00" d="M33.083,30.862c-0.11,1.912-2.661,3.317-5.694,3.143c-3.031-0.179-17.868-2.603-17.76-4.515
					c0.115-1.913,15.137-2.588,18.168-2.409C30.827,27.257,33.194,28.95,33.083,30.862z"/>
			</g>
			<g>
				<path fill="#FF6D00" d="M31.917,30.074c0.111-1.912,2.66-3.316,5.695-3.143c3.031,0.18,17.867,2.604,17.759,4.516
					c-0.115,1.912-15.137,2.588-18.168,2.408C34.172,33.68,31.805,31.986,31.917,30.074z"/>
			</g>
			<g>
				<path fill="#232728" d="M29.625,46.446c0,2.476-2.008,15.827-4.486,15.827c-2.475,0-4.482-13.352-4.482-15.827
					s2.008-4.484,4.482-4.484C27.617,41.962,29.625,43.971,29.625,46.446z"/>
				<path fill="#232728" d="M44.65,46.446c0,2.476-2.008,15.827-4.486,15.827c-2.475,0-4.482-13.352-4.482-15.827
					s2.008-4.484,4.482-4.484C42.643,41.962,44.65,43.971,44.65,46.446z"/>
			</g>
			<path fill="#FF6D00" d="M45.303,40.521c0,16.038-5.662,10.697-12.65,10.697c-6.986,0-12.65,5.341-12.65-10.697
				c0-9.17,5.666-16.604,12.65-16.604C39.639,23.918,45.303,31.352,45.303,40.521z"/>
			<path fill="#DB410B" d="M23.23,29.47c2.666,1.211,5.912,1.825,9.424,1.825c3.51,0,6.755-0.614,9.42-1.824
				c-2.316-3.4-5.674-5.553-9.422-5.553C28.905,23.918,25.548,26.07,23.23,29.47z"/>
			<g>
				<path fill="#8D97A0" d="M30.186,62.354c0,1.896-2.26,2.146-5.045,2.146s-5.045-0.249-5.045-2.146
					c0-1.897,2.26-4.508,5.045-4.508S30.186,60.457,30.186,62.354z"/>
				<path fill="#79848C" d="M30.186,62.354c0,1.896-2.26,2.146-5.045,2.146s-5.045-0.249-5.045-2.146"/>
			</g>
			<g>
				<path fill="#8D97A0" d="M45.211,62.354c0,1.896-2.26,2.146-5.045,2.146s-5.045-0.249-5.045-2.146
					c0-1.897,2.26-4.508,5.045-4.508S45.211,60.457,45.211,62.354z"/>
				<path fill="#79848C" d="M45.211,62.354c0,1.896-2.26,2.146-5.045,2.146s-5.045-0.249-5.045-2.146"/>
			</g>
			<g>
				<path fill="#CE5715" d="M49.023,16.275c0,7.999-7.33,12.02-16.369,12.02c-9.041,0-16.373-4.021-16.373-12.02
					c0-8.001,7.332-15.775,16.373-15.775C41.693,0.5,49.023,8.274,49.023,16.275z"/>
				<path fill="#F9A9A0" d="M49.023,16.275c0,7.999-7.33,12.02-16.369,12.02c-9.041,0-16.373-4.021-16.373-12.02
					c0-8.001,7.332-9.192,16.373-9.192C41.693,7.083,49.023,8.274,49.023,16.275z"/>
				<path fill="#FF9997" d="M49.023,16.275c0,7.999-7.33,12.02-16.369,12.02c-9.041,0-16.373-4.021-16.373-12.02"/>
			</g>
			<g>
				<g>
					<circle fill="#113E49" cx="24.868" cy="20.07" r="1.464"/>
					<path d="M26.332,20.07c0,0.811-0.656,1.465-1.465,1.465s-1.463-0.654-1.463-1.465"/>
					<g>
						<path fill="#FFD3C5" d="M27.756,23.124c-0.078,0-0.158-0.028-0.219-0.091c-0.715-0.714-1.664-1.107-2.672-1.107h-0.002
							c-1.008,0-1.955,0.394-2.666,1.106c-0.121,0.121-0.316,0.124-0.436,0.001c-0.121-0.117-0.125-0.312-0.004-0.434
							c0.83-0.831,1.932-1.29,3.105-1.29h0.002c1.176,0,2.279,0.456,3.111,1.288c0.119,0.119,0.119,0.318,0,0.436
							C27.916,23.096,27.838,23.124,27.756,23.124z"/>
					</g>
				</g>
				<g>
					<circle fill="#113E49" cx="40.438" cy="20.07" r="1.464"/>
					<path d="M38.975,20.07c0,0.811,0.654,1.465,1.465,1.465c0.809,0,1.463-0.654,1.463-1.465"/>
					<g>
						<path fill="#FFD3C5" d="M37.551,23.124c0.076,0,0.156-0.028,0.217-0.091c0.715-0.714,1.664-1.107,2.672-1.107h0.002
							c1.008,0,1.957,0.394,2.668,1.106c0.119,0.121,0.314,0.124,0.436,0.001c0.121-0.117,0.123-0.312,0.002-0.434
							c-0.826-0.831-1.932-1.29-3.105-1.29h-0.002c-1.174,0-2.277,0.456-3.111,1.288c-0.117,0.119-0.117,0.318,0,0.436
							C37.391,23.096,37.469,23.124,37.551,23.124z"/>
					</g>
				</g>
			</g>
		</g>
		<path fill="#870E0E" d="M34.637,22.169c0,1.754-0.889,3.182-1.984,3.182c-1.094,0-1.984-1.428-1.984-3.182
			c0-1.758,0.891-0.709,1.984-0.709C33.748,21.46,34.637,20.411,34.637,22.169z"/>
		<path fill="#AA1111" d="M32.65,22.483c-0.691,0-1.299,0.57-1.654,1.43c0.355,0.864,0.965,1.438,1.656,1.438s1.299-0.57,1.654-1.43
			C33.951,23.057,33.342,22.483,32.65,22.483z"/>
	</g>
	<path fill="#CE5715" d="M32.654,0.5c-4.736,0-8.991,2.228-11.98,5.411C21.412,8.233,23.584,10,26.152,10h13
		c2.568,0,4.741-1.767,5.479-4.091C41.643,2.727,37.389,0.5,32.654,0.5z"/>
	<path fill="#11D3C0" d="M37.375,37.698l-4.722-4.722l-4.723,4.722l-4.723-4.722l-2.645,2.645c-0.364,1.549-0.562,3.194-0.562,4.9
		c0,0.684,0.014,1.315,0.033,1.923l3.173-3.172l4.709,4.709l0.014-0.013l0.013,0.013l4.71-4.709l4.708,4.709l0.014-0.013
		l0.014,0.013l4.708-4.709l3.172,3.172c0.021-0.607,0.034-1.239,0.034-1.923c0-1.706-0.197-3.352-0.562-4.901l-2.645-2.644
		L37.375,37.698z"/>
	<path fill="#05B8C1" d="M42.097,35.852l-4.722,4.722l-4.722-4.722l-4.723,4.722l-4.723-4.722l-2.645,2.645
		c-0.287,1.221-0.466,2.503-0.53,3.826c0.001,0.04,0.002,0.082,0.002,0.122l3.173-3.172l4.709,4.709l0.014-0.013l0.013,0.013
		l4.71-4.709l4.708,4.709l0.014-0.013l0.014,0.013l4.708-4.709l3.172,3.172c0.001-0.04,0.001-0.082,0.003-0.122
		c-0.064-1.323-0.243-2.605-0.53-3.827L42.097,35.852z"/>
</g>
</svg>
