<?xml version="1.0" encoding="utf-8"?>
<!-- Generator: Adobe Illustrator 16.0.0, SVG Export Plug-In . SVG Version: 6.00 Build 0)  -->
<!DOCTYPE svg PUBLIC "-//W3C//DTD SVG 1.1//EN" "http://www.w3.org/Graphics/SVG/1.1/DTD/svg11.dtd">
<svg version="1.1" id="Layer_1" xmlns="http://www.w3.org/2000/svg" xmlns:xlink="http://www.w3.org/1999/xlink" x="0px" y="0px"
	 width="64px" height="64px" viewBox="0 0 64 64" enable-background="new 0 0 64 64" xml:space="preserve">
<g>
	<g>
		<circle fill="#6965A8" cx="32" cy="32" r="31.1"/>
		<path fill="#505091" d="M32,0.9c17.2,0,31.1,13.9,31.1,31.1S49.2,63.1,32,63.1"/>
	</g>
	<g>
		<g>
			<g>
				<polygon fill="#A1B7B6" points="24.7,12.4 18.2,20.6 7.8,20.5 2.1,11.2 9.3,1.8 21.1,2.2 				"/>
				<polyline fill="#889E9C" points="21.1,2.2 24.7,12.4 18.2,20.6 7.8,20.5 				"/>
				<polygon fill="#F9DCEA" points="22.3,15.4 18.2,20.6 11.6,20.5 8,14.7 12.6,8.7 20.1,8.9 				"/>
				<polyline fill="#F2CCE0" points="20.1,8.9 22.3,15.4 18.2,20.6 11.6,20.5 				"/>
			</g>
			<g>
				<polygon fill="#A1B7B6" points="39.3,12.4 45.8,20.6 56.2,20.5 61.9,11.2 54.7,1.8 42.9,2.2 				"/>
				<polyline fill="#889E9C" points="42.9,2.2 39.3,12.4 45.8,20.6 56.2,20.5 				"/>
				<polygon fill="#F9DCEA" points="41.7,15.4 45.8,20.6 52.4,20.5 56,14.7 51.4,8.7 43.9,8.9 				"/>
				<polyline fill="#F2CCE0" points="43.9,8.9 41.7,15.4 45.8,20.6 52.4,20.5 				"/>
			</g>
		</g>
		<polygon fill="#889E9C" points="7.6,19.8 32,7.7 56.4,19.8 59.4,43.1 32,59.2 4.6,43.1 		"/>
		<polygon fill="#A1B7B6" points="7.6,19.8 32,19.9 56.4,19.8 59.4,43.1 32,59.2 4.6,43.1 		"/>
		<polyline fill="#889E9C" points="32,7.7 56.4,19.8 59.4,43.1 32,59.2 		"/>
		<g>
			<polygon fill="#5E6664" points="24.7,33 32,31 39.3,33 40.1,51.5 32,55.1 23.9,51.5 			"/>
		</g>
		<g>
			<polyline fill="#2F423F" points="32,31 39.3,33 40.1,51.5 32,55.1 23.9,51.5 			"/>
		</g>
		<g>
			<g>
				<path fill="#5E6664" d="M23.5,26.3c0,1.3-1.2,2.4-2.7,2.4c-1.5,0-2.7-1.1-2.7-2.4s1.2-2.4,2.7-2.4
					C22.3,23.9,23.5,24.9,23.5,26.3z"/>
				<path fill="#2F423F" d="M22.7,24.6c1.1,0.9,1.1,2.5,0,3.4c-1.1,0.9-2.8,0.9-3.8,0"/>
			</g>
			<g>
				<path fill="#5E6664" d="M45.9,26.3c0,1.3-1.2,2.4-2.7,2.4c-1.5,0-2.7-1.1-2.7-2.4s1.2-2.4,2.7-2.4
					C44.7,23.9,45.9,24.9,45.9,26.3z"/>
				<path fill="#2F423F" d="M45.1,24.6c1.1,0.9,1.1,2.5,0,3.4c-1,0.9-2.8,0.9-3.8,0"/>
			</g>
		</g>
	</g>
</g>
</svg>
