<?xml version="1.0" encoding="utf-8"?>
<!-- Generator: Adobe Illustrator 16.0.0, SVG Export Plug-In . SVG Version: 6.00 Build 0)  -->
<!DOCTYPE svg PUBLIC "-//W3C//DTD SVG 1.1//EN" "http://www.w3.org/Graphics/SVG/1.1/DTD/svg11.dtd">
<svg version="1.1" xmlns="http://www.w3.org/2000/svg" xmlns:xlink="http://www.w3.org/1999/xlink" x="0px" y="0px" width="65px"
	 height="65px" viewBox="0 0 65 65" enable-background="new 0 0 65 65" xml:space="preserve">
<g id="Layer_1">
	<g>
		<g>
			<g>
				<g>
					<g>
						<path fill="#3F4444" d="M38.074,25.338c0,2.638-2.141,4.777-4.779,4.777h-1.592c-2.639,0-4.777-2.14-4.777-4.777l-1.594-19.51
							c0-2.638,0.547-4.777,3.186-4.777h7.963c2.639,0,3.186,2.14,3.186,4.777L38.074,25.338z"/>
					</g>
					<g>
						<path fill="#2B3333" d="M31.703,30.115"/>
					</g>
					<g>
						<path fill="#2B3333" d="M28.518,1.051h7.963c2.639,0,3.186,2.14,3.186,4.777l-1.592,19.51"/>
					</g>
				</g>
				<g>
					<g>
						<path fill="#3F4444" d="M26.926,39.662c0-2.638,2.141-4.777,4.777-4.777h1.594c2.639,0,4.777,2.14,4.777,4.777l1.592,19.51
							c0,2.638-0.547,4.777-3.184,4.777H28.52c-2.639,0-3.186-2.14-3.186-4.777L26.926,39.662z"/>
					</g>
					<g>
						<path fill="#2B3333" d="M33.297,34.885"/>
					</g>
					<g>
						<path fill="#2B3333" d="M36.482,63.949H28.52c-2.639,0-3.186-2.14-3.186-4.777l1.592-19.51"/>
					</g>
				</g>
			</g>
			<g>
				<g>
					<g>
						<path fill="#3F4444" d="M25.338,26.926c2.637,0,4.777,2.141,4.777,4.778v1.593c0,2.639-2.141,4.777-4.777,4.777l-19.51,1.593
							c-2.639,0-4.777-0.547-4.777-3.185V28.52c0-2.639,2.139-3.186,4.777-3.186L25.338,26.926z"/>
					</g>
					<g>
						<path fill="#2B3333" d="M30.115,33.297"/>
					</g>
					<g>
						<path fill="#2B3333" d="M1.051,36.482V28.52c0-2.639,2.139-3.186,4.777-3.186l19.51,1.592"/>
					</g>
				</g>
				<g>
					<g>
						<path fill="#3F4444" d="M39.662,38.074c-2.639,0-4.777-2.141-4.777-4.777v-1.594c0-2.639,2.139-4.777,4.777-4.777l19.51-1.592
							c2.637,0,4.777,0.547,4.777,3.184v7.963c0,2.639-2.141,3.186-4.777,3.186L39.662,38.074z"/>
					</g>
					<g>
						<path fill="#2B3333" d="M34.885,31.703"/>
					</g>
					<g>
						<path fill="#2B3333" d="M63.949,28.518v7.963c0,2.639-2.141,3.186-4.777,3.186l-19.51-1.592"/>
					</g>
				</g>
			</g>
			<g>
				<path fill="#3F4444" d="M38.041,32.676c0,2.509-2.033,4.542-4.541,4.542h-1.916c-2.508,0-4.543-2.033-4.543-4.542l0,0
					c0-2.509,2.035-4.542,4.543-4.542H33.5C36.008,28.134,38.041,30.167,38.041,32.676L38.041,32.676z"/>
			</g>
		</g>
		<g>
			<g>
				<circle fill="#FFAA00" cx="28.438" cy="32.5" r="1.062"/>
			</g>
			<g>
				<circle fill="#FFAA00" cx="32.5" cy="32.5" r="1.062"/>
			</g>
			<g>
				<circle fill="#FFAA00" cx="36.562" cy="32.5" r="1.062"/>
			</g>
		</g>
	</g>
</g>
<g id="nyt_x5F_exporter_x5F_info" display="none">
</g>
</svg>
