<?xml version="1.0" encoding="utf-8"?>
<!-- Generator: Adobe Illustrator 16.0.0, SVG Export Plug-In . SVG Version: 6.00 Build 0)  -->
<!DOCTYPE svg PUBLIC "-//W3C//DTD SVG 1.1//EN" "http://www.w3.org/Graphics/SVG/1.1/DTD/svg11.dtd">
<svg version="1.1" id="Layer_1" xmlns="http://www.w3.org/2000/svg" xmlns:xlink="http://www.w3.org/1999/xlink" x="0px" y="0px"
	 width="65px" height="65px" viewBox="0 0 65 65" enable-background="new 0 0 65 65" xml:space="preserve">
<g>
	<g>
		<g>
			<path fill="#AA1111" d="M31.105,26.369c1.273,1.432,0.465,4.227-1.805,6.248c-2.27,2.018-14.475,10.795-15.75,9.365
				c-1.271-1.434,8.873-12.531,11.143-14.549C26.961,25.414,29.832,24.938,31.105,26.369z"/>
			<path fill="#AA1111" d="M33.895,26.369c-1.273,1.432-0.465,4.227,1.805,6.248c2.27,2.018,14.475,10.795,15.75,9.365
				c1.271-1.434-8.873-12.531-11.143-14.549C38.039,25.414,35.168,24.938,33.895,26.369z"/>
			<g>
				<g>
					<g>
						<g>
							<path fill="#3A83BA" d="M29.473,46.445c0,2.477-2.008,15.828-4.486,15.828c-2.475,0-4.482-13.352-4.482-15.828
								c0-2.475,2.008-4.484,4.482-4.484C27.465,41.961,29.473,43.971,29.473,46.445z"/>
							<path fill="#3A83BA" d="M44.498,46.445c0,2.477-2.008,15.828-4.486,15.828c-2.475,0-4.482-13.352-4.482-15.828
								c0-2.475,2.008-4.484,4.482-4.484C42.49,41.961,44.498,43.971,44.498,46.445z"/>
						</g>
						<path fill="#CE1313" d="M45.15,40.521c0,16.037-5.662,10.697-12.65,10.697c-6.986,0-12.65,5.34-12.65-10.697
							c0-9.17,5.666-16.604,12.65-16.604C39.486,23.918,45.15,31.352,45.15,40.521z"/>
						<path fill="#3997BC" d="M43.188,33.082c-1.656,0-3-1.344-3-3v-2.719c-0.652-0.656-1.352-1.234-2.094-1.717
							c0.01,0.104,0.031,0.205,0.031,0.311v4.125c0,1.656-1.344,3-3,3h-5.25c-1.656,0-3-1.344-3-3v-4.125
							c0-0.105,0.021-0.207,0.031-0.311c-0.742,0.482-1.441,1.061-2.094,1.717v2.719c0,1.656-1.344,3-3,3h-0.611
							c-0.86,2.236-1.352,4.76-1.352,7.439c0,16.037,5.664,10.697,12.65,10.697c6.988,0,12.65,5.34,12.65-10.697
							c0-2.68-0.491-5.203-1.352-7.439H43.188z"/>
						<g>
							<path fill="#965930" d="M30.033,62.354c0,1.896-2.26,2.146-5.045,2.146s-5.045-0.25-5.045-2.146s2.26-4.508,5.045-4.508
								S30.033,60.457,30.033,62.354z"/>
							<path fill="#7A4A2A" d="M30.033,62.354c0,1.896-2.26,2.146-5.045,2.146s-5.045-0.25-5.045-2.146"/>
						</g>
						<g>
							<path fill="#965930" d="M45.059,62.354c0,1.896-2.26,2.146-5.045,2.146s-5.045-0.25-5.045-2.146s2.26-4.508,5.045-4.508
								S45.059,60.457,45.059,62.354z"/>
							<path fill="#7A4A2A" d="M45.059,62.354c0,1.896-2.26,2.146-5.045,2.146s-5.045-0.25-5.045-2.146"/>
						</g>
						<g>
							<path fill="#F9C1AC" d="M48.871,16.275c0,7.998-7.33,12.02-16.369,12.02c-9.041,0-16.373-4.021-16.373-12.02
								c0-8.002,7.332-15.775,16.373-15.775C41.541,0.5,48.871,8.273,48.871,16.275z"/>
							<path fill="#F2B09C" d="M48.871,16.275c0,7.998-7.33,12.02-16.369,12.02c-9.041,0-16.373-4.021-16.373-12.02"/>
						</g>
						<g>
							<g>
								<circle fill="#113E49" cx="24.716" cy="17.82" r="1.464"/>
								<path d="M26.18,17.82c0,0.811-0.656,1.465-1.465,1.465s-1.463-0.654-1.463-1.465"/>
								<g>
									<path fill="#FFD3C5" d="M27.604,20.873c-0.078,0-0.158-0.027-0.219-0.09c-0.715-0.715-1.664-1.107-2.672-1.107h-0.002
										c-1.008,0-1.955,0.393-2.666,1.105c-0.121,0.121-0.316,0.125-0.436,0.002c-0.121-0.117-0.125-0.312-0.004-0.434
										c0.83-0.832,1.932-1.291,3.105-1.291h0.002c1.176,0,2.279,0.457,3.111,1.289c0.119,0.119,0.119,0.318,0,0.436
										C27.764,20.846,27.686,20.873,27.604,20.873z"/>
								</g>
							</g>
							<g>
								<circle fill="#113E49" cx="40.286" cy="17.82" r="1.464"/>
								<path d="M38.822,17.82c0,0.811,0.654,1.465,1.465,1.465c0.809,0,1.463-0.654,1.463-1.465"/>
								<g>
									<path fill="#FFD3C5" d="M37.398,20.873c0.076,0,0.156-0.027,0.217-0.09c0.715-0.715,1.664-1.107,2.672-1.107h0.002
										c1.008,0,1.957,0.393,2.668,1.105c0.119,0.121,0.314,0.125,0.436,0.002c0.121-0.117,0.123-0.312,0.002-0.434
										c-0.826-0.832-1.932-1.291-3.105-1.291h-0.002c-1.174,0-2.277,0.457-3.111,1.289c-0.117,0.119-0.117,0.318,0,0.436
										C37.238,20.846,37.316,20.873,37.398,20.873z"/>
								</g>
							</g>
						</g>
					</g>
				</g>
			</g>
			<path fill="#6D0000" d="M34.531,24.426c0,1.123-0.909,2.031-2.031,2.031l0,0c-1.122,0-2.031-0.908-2.031-2.031v-1.312
				c0-1.121,0.909-2.031,2.031-2.031l0,0c1.122,0,2.031,0.91,2.031,2.031V24.426z"/>
			<path fill="#AA1111" d="M30.548,24.957c0.234,0.863,1.015,1.5,1.952,1.5s1.718-0.637,1.952-1.5c-0.234-0.863-1.015-1.5-1.952-1.5
				S30.782,24.094,30.548,24.957z"/>
		</g>
		<g>
			<g>
				<circle fill="#FFB000" cx="25.833" cy="33.416" r="3"/>
				<path fill="#F49600" d="M27.955,31.295c1.172,1.172,1.172,3.07,0,4.242s-3.072,1.172-4.243,0"/>
			</g>
			<g>
				<circle fill="#FFB000" cx="39.166" cy="33.416" r="3"/>
				<path fill="#F49600" d="M41.287,31.295c1.173,1.172,1.173,3.07,0,4.242c-1.171,1.172-3.07,1.172-4.242,0"/>
			</g>
		</g>
		<g>
			<g>
				<path fill="#663F24" d="M33.012,21.225c0,0-1.891-4.068-6.977-0.727c-5.084,3.344-5.521,2.324-5.521,2.324
					s5.376,3.926,11.189,1.457l0.873-0.73L33.012,21.225z"/>
				<path fill="#543722" d="M20.514,22.822c0,0,5.376,3.926,11.189,1.457l0.873-0.73l0.436-2.324"/>
			</g>
			<g>
				<path fill="#663F24" d="M31.99,21.225c0,0,1.889-4.068,6.975-0.727c5.085,3.344,5.521,2.324,5.521,2.324
					s-5.375,3.926-11.189,1.457l-0.873-0.73L31.99,21.225z"/>
				<path fill="#543722" d="M44.486,22.822c0,0-5.375,3.926-11.189,1.457l-0.873-0.73l-0.434-2.324"/>
			</g>
		</g>
		<path fill="#CE1313" d="M16.372,13.834h32.256C47.332,6.766,40.615,0.5,32.502,0.5C24.387,0.5,17.668,6.766,16.372,13.834z"/>
		<circle fill="#EBF0F2" cx="32.5" cy="8.52" r="5.562"/>
		<path fill="#C8D3D6" d="M32.5,2.957c3.072,0,5.562,2.49,5.562,5.562s-2.49,5.562-5.562,5.562"/>
		<path fill="#AA1111" d="M49.568,13.766c0,0.314-7.642,0.566-17.068,0.566s-17.068-0.252-17.068-0.566
			c0-0.311,7.642-2.059,17.068-2.059S49.568,13.455,49.568,13.766z"/>
	</g>
	<g>
		<g>
			<rect x="28.417" y="5.916" fill="#CE1313" width="4.249" height="1.75"/>
			<rect x="28.417" y="5.916" fill="#CE1313" width="1.749" height="4.25"/>
		</g>
		<g>
			<rect x="32.333" y="5.916" fill="#CE1313" width="4.249" height="1.75"/>
			<rect x="34.833" y="5.916" fill="#CE1313" width="1.749" height="4.25"/>
			<rect x="31.708" y="5.916" fill="#CE1313" width="1.75" height="4.25"/>
		</g>
	</g>
</g>
</svg>
