<?xml version="1.0" encoding="utf-8"?>
<!-- Generator: Adobe Illustrator 16.0.0, SVG Export Plug-In . SVG Version: 6.00 Build 0)  -->
<!DOCTYPE svg PUBLIC "-//W3C//DTD SVG 1.1//EN" "http://www.w3.org/Graphics/SVG/1.1/DTD/svg11.dtd">
<svg version="1.1" xmlns="http://www.w3.org/2000/svg" xmlns:xlink="http://www.w3.org/1999/xlink" x="0px" y="0px" width="65px"
	 height="65px" viewBox="0 0 65 65" enable-background="new 0 0 65 65" xml:space="preserve">
<g id="Layer_1">
	<g>
		<g>
			<path fill="#054D75" d="M62.456,34.988h-3.201v-28.8c0-0.294-0.238-0.533-0.531-0.533H6.276c-0.293,0-0.532,0.239-0.532,0.533
				v28.8h-3.2v-28.8c0-2.059,1.675-3.733,3.732-3.733h52.447c2.058,0,3.732,1.675,3.732,3.733V34.988z"/>
		</g>
		<g>
			<path fill="#054D75" d="M8.565,35.7c0,1.178-0.954,2.133-2.131,2.133H3.9c-1.179,0-2.134-0.955-2.134-2.133v-5.867
				c0-1.178,0.955-2.133,2.134-2.133h2.534c1.177,0,2.131,0.955,2.131,2.133V35.7z"/>
			<path fill="#054D75" d="M63.233,35.7c0,1.178-0.955,2.133-2.133,2.133h-2.535c-1.178,0-2.131-0.955-2.131-2.133v-5.867
				c0-1.178,0.953-2.133,2.131-2.133h2.535c1.178,0,2.133,0.955,2.133,2.133V35.7z"/>
		</g>
		<path fill="#C6BA95" d="M58.37,54.688c0,1.099-0.891,1.99-1.99,1.99H8.618c-1.099,0-1.989-0.892-1.989-1.99V25.335
			c0-1.099,0.891-1.99,1.989-1.99H56.38c1.1,0,1.99,0.892,1.99,1.99V54.688z"/>
		<line fill="#DBD2AF" x1="56.38" y1="56.678" x2="8.618" y2="56.678"/>
		<path fill="#DBD2AF" d="M6.629,25.335c0-1.099,0.891-1.99,1.989-1.99H56.38c1.1,0,1.99,0.892,1.99,1.99"/>
		<path fill="#17ACBF" d="M60.233,62.366c0,1.179-0.955,2.134-2.133,2.134H6.9c-1.179,0-2.134-0.955-2.134-2.134V30.9
			c0-1.179,0.955-2.134,2.134-2.134h51.2c1.178,0,2.133,0.955,2.133,2.134V62.366z"/>
		<path fill="#0B96AD" d="M4.767,30.9c0-1.179,0.955-2.134,2.134-2.134h51.2c1.178,0,2.133,0.955,2.133,2.134v31.466
			c0,1.179-0.955,2.134-2.133,2.134"/>
		<path fill="#0A5F99" d="M63.033,40.767c0,1.178-0.956,2.134-2.133,2.134h-56.8c-1.179,0-2.134-0.956-2.134-2.134v-3.2
			c0-1.178,0.955-2.133,2.134-2.133h56.8c1.177,0,2.133,0.955,2.133,2.133V40.767z"/>
		<path fill="#C2C4C4" d="M35.967,43.767c0,1.178-0.956,2.134-2.134,2.134h-2.666c-1.179,0-2.134-0.956-2.134-2.134V40.5
			c0-1.178,0.955-2.134,2.134-2.134h2.666c1.178,0,2.134,0.956,2.134,2.134V43.767z"/>
		<path fill="#AAB2B2" d="M31.167,45.9"/>
		<path fill="#AAB2B2" d="M29.033,40.5c0-1.178,0.955-2.134,2.134-2.134h2.666c1.178,0,2.134,0.956,2.134,2.134v3.267"/>
		<path fill="#1972BC" d="M60.9,35.434h-56.8c-1.179,0-2.134,0.955-2.134,2.133c0,1.179,0.955,2.134,2.134,2.134h56.8
			c1.177,0,2.133-0.955,2.133-2.134C63.033,36.389,62.077,35.434,60.9,35.434z"/>
		<path fill="#C6BA95" d="M40.033,38.1c0,1.179-0.956,2.134-2.133,2.134h-10.8c-1.179,0-2.134-0.955-2.134-2.134V32.9
			c0-1.179,0.955-2.134,2.134-2.134h10.8c1.177,0,2.133,0.955,2.133,2.134V38.1z"/>
		<path fill="#DBD2AF" d="M37.9,30.767h-10.8c-1.179,0-2.134,0.955-2.134,2.134v1.333c0,1.178,0.955,2.133,2.134,2.133h10.8
			c1.177,0,2.133-0.955,2.133-2.133V32.9C40.033,31.722,39.077,30.767,37.9,30.767z"/>
		<path fill="#0B96AD" d="M8.366,59.9c0,0.258-0.209,0.466-0.466,0.466l0,0c-0.259,0-0.466-0.208-0.466-0.466V48.566
			c0-0.258,0.207-0.467,0.466-0.467l0,0c0.257,0,0.466,0.209,0.466,0.467V59.9z"/>
		<path fill="#0B96AD" d="M11.967,59.9c0,0.258-0.208,0.466-0.467,0.466l0,0c-0.259,0-0.467-0.208-0.467-0.466V48.566
			c0-0.258,0.208-0.467,0.467-0.467l0,0c0.259,0,0.467,0.209,0.467,0.467V59.9z"/>
		<path fill="#0B96AD" d="M15.565,59.9c0,0.258-0.207,0.466-0.465,0.466l0,0c-0.259,0-0.467-0.208-0.467-0.466V48.566
			c0-0.258,0.208-0.467,0.467-0.467l0,0c0.258,0,0.465,0.209,0.465,0.467V59.9z"/>
		<path fill="#0B96AD" d="M19.167,59.9c0,0.258-0.209,0.466-0.467,0.466l0,0c-0.26,0-0.467-0.208-0.467-0.466V48.566
			c0-0.258,0.207-0.467,0.467-0.467l0,0c0.258,0,0.467,0.209,0.467,0.467V59.9z"/>
		<path fill="#0B96AD" d="M22.767,59.9c0,0.258-0.207,0.466-0.467,0.466l0,0c-0.258,0-0.467-0.208-0.467-0.466V48.566
			c0-0.258,0.209-0.467,0.467-0.467l0,0c0.26,0,0.467,0.209,0.467,0.467V59.9z"/>
		<path fill="#0B96AD" d="M26.366,59.9c0,0.258-0.209,0.466-0.466,0.466l0,0c-0.259,0-0.466-0.208-0.466-0.466V48.566
			c0-0.258,0.207-0.467,0.466-0.467l0,0c0.257,0,0.466,0.209,0.466,0.467V59.9z"/>
		<path fill="#0B96AD" d="M29.967,59.9c0,0.258-0.208,0.466-0.467,0.466l0,0c-0.259,0-0.467-0.208-0.467-0.466V48.566
			c0-0.258,0.208-0.467,0.467-0.467l0,0c0.259,0,0.467,0.209,0.467,0.467V59.9z"/>
		<path fill="#0B96AD" d="M33.565,59.9c0,0.258-0.207,0.466-0.465,0.466l0,0c-0.259,0-0.467-0.208-0.467-0.466V48.566
			c0-0.258,0.208-0.467,0.467-0.467l0,0c0.258,0,0.465,0.209,0.465,0.467V59.9z"/>
		<path fill="#0B96AD" d="M37.167,59.9c0,0.258-0.209,0.466-0.467,0.466l0,0c-0.26,0-0.467-0.208-0.467-0.466V48.566
			c0-0.258,0.207-0.467,0.467-0.467l0,0c0.258,0,0.467,0.209,0.467,0.467V59.9z"/>
		<path fill="#0B96AD" d="M40.767,59.9c0,0.258-0.207,0.466-0.467,0.466l0,0c-0.258,0-0.467-0.208-0.467-0.466V48.566
			c0-0.258,0.209-0.467,0.467-0.467l0,0c0.26,0,0.467,0.209,0.467,0.467V59.9z"/>
		<path fill="#0B96AD" d="M44.366,59.9c0,0.258-0.209,0.466-0.466,0.466l0,0c-0.259,0-0.466-0.208-0.466-0.466V48.566
			c0-0.258,0.207-0.467,0.466-0.467l0,0c0.257,0,0.466,0.209,0.466,0.467V59.9z"/>
		<path fill="#0B96AD" d="M47.967,59.9c0,0.258-0.208,0.466-0.467,0.466l0,0c-0.259,0-0.467-0.208-0.467-0.466V48.566
			c0-0.258,0.208-0.467,0.467-0.467l0,0c0.259,0,0.467,0.209,0.467,0.467V59.9z"/>
		<path fill="#0B96AD" d="M51.565,59.9c0,0.258-0.207,0.466-0.465,0.466l0,0c-0.259,0-0.467-0.208-0.467-0.466V48.566
			c0-0.258,0.208-0.467,0.467-0.467l0,0c0.258,0,0.465,0.209,0.465,0.467V59.9z"/>
		<path fill="#0B96AD" d="M55.167,59.9c0,0.258-0.209,0.466-0.467,0.466l0,0c-0.26,0-0.467-0.208-0.467-0.466V48.566
			c0-0.258,0.207-0.467,0.467-0.467l0,0c0.258,0,0.467,0.209,0.467,0.467V59.9z"/>
		<path fill="#0B96AD" d="M58.767,59.9c0,0.258-0.207,0.466-0.467,0.466l0,0c-0.258,0-0.467-0.208-0.467-0.466V48.566
			c0-0.258,0.209-0.467,0.467-0.467l0,0c0.26,0,0.467,0.209,0.467,0.467V59.9z"/>
		<path fill="#0A5F99" d="M37.7,36.389c0,1.178-0.955,2.133-2.135,2.133h-6.131c-1.18,0-2.135-0.955-2.135-2.133v-1.777
			c0-1.178,0.955-2.133,2.135-2.133h6.131c1.18,0,2.135,0.955,2.135,2.133V36.389z"/>
		<path fill="#1972BC" d="M35.565,32.479h-6.131c-1.18,0-2.135,0.955-2.135,2.133v1.755h10.4v-1.755
			C37.7,33.434,36.745,32.479,35.565,32.479z"/>
		<path fill="#0B96AD" d="M46.456,5.3c0,1.179-0.956,2.134-2.133,2.134H20.677c-1.177,0-2.133-0.955-2.133-2.134V2.634
			c0-1.179,0.956-2.134,2.133-2.134h23.646c1.177,0,2.133,0.955,2.133,2.134V5.3z"/>
		<path fill="#17ACBF" d="M20.677,0.5c-1.056,0-1.927,0.77-2.098,1.778c0.171,1.008,1.042,1.778,2.098,1.778h23.646
			c1.055,0,1.927-0.771,2.098-1.778C46.25,1.27,45.378,0.5,44.323,0.5H20.677z"/>
	</g>
</g>
<g id="nyt_x5F_exporter_x5F_info" display="none">
</g>
</svg>
