<?xml version="1.0" encoding="utf-8"?>
<!-- Generator: Adobe Illustrator 16.0.0, SVG Export Plug-In . SVG Version: 6.00 Build 0)  -->
<!DOCTYPE svg PUBLIC "-//W3C//DTD SVG 1.1//EN" "http://www.w3.org/Graphics/SVG/1.1/DTD/svg11.dtd">
<svg version="1.1" xmlns="http://www.w3.org/2000/svg" xmlns:xlink="http://www.w3.org/1999/xlink" x="0px" y="0px" width="65px"
	 height="65px" viewBox="0 0 65 65" enable-background="new 0 0 65 65" xml:space="preserve">
<g id="Layer_1">
	<g>
		<g>
			<path fill="#C4791E" d="M62.542,53.817c-1.207,1.208-2.876,1.956-4.721,1.957c-10.955,0-21.254-4.267-29.002-12.013
				c-7.746-7.747-12.012-18.047-12.012-29.001c0.002-3.688,0.686-4.978,4.34-5.476c5.651-0.771,4.678,6.126,4.678,9.814
				c0,7.388,3.456,13.218,8.68,18.44c5.223,5.225,14.96,8.22,22.347,8.22c3.688-0.001,7.648-0.353,7.648,3.335
				C64.5,50.94,63.751,52.609,62.542,53.817z"/>
		</g>
		<g>
			<path fill="#AD6210" d="M34.505,37.54c5.223,5.225,14.96,8.22,22.347,8.22c3.688-0.001,7.648-0.353,7.648,3.335
				c0,1.846-0.749,3.515-1.958,4.723c-1.207,1.208-2.876,1.956-4.721,1.957"/>
			<path fill="#AD6210" d="M16.808,14.761c0.002-3.688,0.686-4.978,4.34-5.476"/>
		</g>
		<path fill="#AD6210" d="M21.147,9.285c-1.695,0.231-2.747,0.638-3.393,1.37c1.265,8.679,5.266,16.689,11.578,23.004
			c2.523,2.523,5.324,4.671,8.324,6.429c-1.164-0.779-2.231-1.627-3.152-2.548c-5.224-5.223-8.68-11.053-8.68-18.44
			C25.825,15.411,26.799,8.515,21.147,9.285z"/>
		<path fill="#97AFC6" d="M0.849,22.86c-2.172-19.674,6.161-7.709,14.721-8.655c8.555-0.941,12.676-3.025,13.619,5.527
			c0.943,8.556-3.531,7.42-12.088,8.36C8.541,29.039,3.018,42.535,0.849,22.86z"/>
		<path fill="#7595AF" d="M29.188,19.732c-0.943-8.553-5.064-6.469-13.619-5.527c-3.775,0.418-7.505-1.674-10.309-2.458
			c-1.025,1.357-1.356,4.409-0.688,10.472c0.734,6.647,1.85,9.5,3.336,10.338c2.509-1.434,5.578-4.064,9.191-4.464
			c0.565-0.062,1.111-0.115,1.643-0.162c0.672-0.228,1.365-0.4,2.082-0.479c1.99-0.219,3.751-0.327,5.283-0.47
			C28.597,26.171,29.702,24.395,29.188,19.732z"/>
	</g>
</g>
<g id="nyt_x5F_exporter_x5F_info" display="none">
</g>
</svg>
