<?xml version="1.0" encoding="utf-8"?>
<!-- Generator: Adobe Illustrator 16.0.0, SVG Export Plug-In . SVG Version: 6.00 Build 0)  -->
<!DOCTYPE svg PUBLIC "-//W3C//DTD SVG 1.1//EN" "http://www.w3.org/Graphics/SVG/1.1/DTD/svg11.dtd">
<svg version="1.1" xmlns="http://www.w3.org/2000/svg" xmlns:xlink="http://www.w3.org/1999/xlink" x="0px" y="0px" width="65px"
	 height="65px" viewBox="0 0 65 65" enable-background="new 0 0 65 65" xml:space="preserve">
<g id="Layer_1">
	<g>
		<polygon fill="#FF9D00" points="24.924,45.06 24.924,56.244 29.451,56.244 29.451,64.5 40.368,53.581 33.444,53.581 
			33.444,42.131 		"/>
		<polygon fill="#FF8500" points="33.845,55.845 26.921,55.845 26.921,44.394 24.924,45.08 24.924,56.244 29.451,56.244 
			29.451,60.238 		"/>
		<g>
			<g>
				<path fill="#515B50" d="M3.009,36.004l5.332-9.24c0.449-0.778,1.275-1.257,2.176-1.257h5.936l5.588-9.678
					c0.672-1.162,1.902-1.875,3.246-1.875h15.909c1.337,0,2.573,0.713,3.237,1.875l3.718,6.432h6.501
					c0.738,0,1.415,0.389,1.781,1.027l4.367,7.568c0.361,0.637,0.361,1.414,0,2.056l-4.367,7.562
					c-0.366,0.63-1.043,1.024-1.781,1.024h-6.967l-3.252,5.634c-0.664,1.153-1.9,1.869-3.237,1.869H25.286
					c-0.867,0-1.627-0.384-2.278-0.906c-0.472,0.533-1.099,0.906-1.826,0.906H10.517c-0.9,0-1.727-0.481-2.176-1.251l-5.332-9.24
					C2.56,37.733,2.56,36.778,3.009,36.004z"/>
				<path fill="#687567" d="M48.267,22.261H48.15l-3.718-6.432c-0.664-1.162-1.9-1.875-3.237-1.875H25.286
					c-1.344,0-2.574,0.713-3.246,1.875l-5.588,9.678h-5.936c-0.9,0-1.727,0.479-2.176,1.257l-5.332,9.24
					c-0.449,0.774-0.449,1.729,0,2.507l0.424,0.733h4.964c0.728,0,1.354-0.373,1.825-0.907c0.653,0.524,1.41,0.907,2.277,0.907
					h15.91c1.336,0,2.573-0.715,3.236-1.868l3.252-5.634h6.967c0.738,0,1.418-0.394,1.781-1.025l4.369-7.563
					C48.173,22.873,48.248,22.569,48.267,22.261z"/>
			</g>
			<g>
				<path fill="#515B50" d="M62.199,8.896l-2.03-3.519c-0.17-0.296-0.484-0.479-0.828-0.479h-2.262l-2.127-3.686
					C54.697,0.771,54.228,0.5,53.718,0.5h-6.059c-0.512,0-0.982,0.271-1.234,0.713l-1.418,2.45h-2.475
					c-0.28,0-0.539,0.148-0.678,0.391l-1.662,2.883c-0.137,0.242-0.137,0.539,0,0.782l1.662,2.88
					c0.139,0.241,0.397,0.391,0.678,0.391h2.654l1.238,2.145c0.252,0.44,0.723,0.713,1.234,0.713h6.059
					c0.328,0,0.617-0.146,0.867-0.346c0.18,0.203,0.416,0.346,0.695,0.346h4.061c0.344,0,0.658-0.185,0.828-0.477l2.03-3.519
					C62.372,9.554,62.372,9.19,62.199,8.896z"/>
				<path fill="#687567" d="M44.965,3.663h0.042l1.418-2.45C46.677,0.771,47.147,0.5,47.659,0.5h6.059
					c0.51,0,0.979,0.271,1.234,0.713l2.127,3.686h2.262c0.344,0,0.658,0.184,0.828,0.479l2.03,3.519
					c0.173,0.294,0.173,0.657,0,0.955l-0.16,0.28h-1.892c-0.276,0-0.516-0.145-0.695-0.348c-0.248,0.2-0.539,0.348-0.867,0.348
					h-6.058c-0.51,0-0.981-0.272-1.233-0.714l-1.238-2.145h-2.652c-0.283,0-0.541-0.149-0.678-0.391l-1.665-2.881
					C45,3.896,44.974,3.78,44.965,3.663z"/>
			</g>
		</g>
	</g>
</g>
<g id="nyt_x5F_exporter_x5F_info" display="none">
</g>
</svg>
