<?xml version="1.0" encoding="utf-8"?>
<!-- Generator: Adobe Illustrator 16.0.0, SVG Export Plug-In . SVG Version: 6.00 Build 0)  -->
<!DOCTYPE svg PUBLIC "-//W3C//DTD SVG 1.1//EN" "http://www.w3.org/Graphics/SVG/1.1/DTD/svg11.dtd">
<svg version="1.1" id="Layer_1" xmlns="http://www.w3.org/2000/svg" xmlns:xlink="http://www.w3.org/1999/xlink" x="0px" y="0px"
	 width="64px" height="64px" viewBox="0 0 64 64" enable-background="new 0 0 64 64" xml:space="preserve">
<g>
	<g>
		<circle fill="#5E6664" cx="32" cy="31.7" r="31.1"/>
		<path fill="#2F423F" d="M54,9.7c12.1,12.1,12.1,31.8,0,43.9c-12.1,12.1-31.8,12.1-43.9,0"/>
	</g>
	<g>
		<g>
			<polygon fill="#FFC114" points="15.1,22.4 32,16.9 48.9,22.4 44.3,44.6 32,54.2 19.8,44.6 			"/>
			<polyline fill="#EAAC0F" points="32,16.9 48.9,22.4 44.3,44.6 32,54.2 			"/>
			<polygon fill="#FFC114" points="23.2,42.4 32,40.7 40.9,42.4 39.3,59.9 32,63.4 24.8,59.9 			"/>
			<polyline fill="#EAAC0F" points="32,40.7 40.9,42.4 39.3,59.9 32,63.4 			"/>
			<polygon fill="#FFC114" points="15.1,22.4 2.6,30.9 12.7,33.5 17.1,26.2 			"/>
			<polygon fill="#EAAC0F" points="15.1,22.4 9.9,28.7 12.7,33.5 17.1,26.2 			"/>
			<polygon fill="#FFC114" points="48.9,22.4 61.4,30.9 51.3,33.5 46.9,26.2 			"/>
			<polygon fill="#EAAC0F" points="48.9,22.4 61.4,30.9 51.3,33.5 55.8,29.6 			"/>
		</g>
		<polygon fill="#EAAC0F" points="19.3,42.4 32.2,49.3 34.6,44.9 18,36 		"/>
		<g>
			<g>
				<path fill="#5E6664" d="M27.4,42.1c0,0.8-0.7,1.5-1.6,1.5c-0.9,0-1.6-0.7-1.6-1.5c0-0.8,0.7-1.5,1.6-1.5
					C26.7,40.6,27.4,41.3,27.4,42.1z"/>
				<path fill="#2F423F" d="M27,41.1c0.6,0.6,0.6,1.5,0,2.1c-0.6,0.6-1.7,0.6-2.3,0"/>
			</g>
			<g>
				<path fill="#5E6664" d="M39.8,42.1c0,0.8-0.7,1.5-1.6,1.5c-0.9,0-1.6-0.7-1.6-1.5c0-0.8,0.7-1.5,1.6-1.5
					C39.1,40.6,39.8,41.3,39.8,42.1z"/>
				<path fill="#2F423F" d="M39.4,41.1c0.6,0.6,0.6,1.5,0,2.1c-0.6,0.6-1.7,0.6-2.3,0"/>
			</g>
		</g>
		<polygon fill="#9E7738" points="34.1,61 29.9,61 27.1,57 36.9,57 		"/>
		<polygon fill="#EAAC0F" points="36.5,35.5 20.3,26 21.7,21.1 38.1,25.6 		"/>
		<polygon fill="#C1924D" points="34.1,59 29.9,59 27.1,57 36.9,57 		"/>
		<g>
			<g>
				<polygon fill="#9E7738" points="20.3,26.2 12.3,18.1 14.8,16 24.5,22 23.7,25 				"/>
				<g>
					<polygon fill="#C1924D" points="12.3,18.1 1.9,5.5 3.1,4.3 15.5,16.5 					"/>
				</g>
				<polygon fill="#9E7738" points="14.1,18.6 3.7,6 3.1,4.3 15.5,16.5 				"/>
				<g>
					<polygon fill="#C1924D" points="8.5,11.4 14.3,1.9 15.9,2.6 11.4,13.5 					"/>
				</g>
				<polygon fill="#9E7738" points="8.5,11.4 15,2.7 15.9,2.6 11.4,13.5 				"/>
				<g>
					<polygon fill="#C1924D" points="11.8,8.1 6.7,1.7 7.6,0.7 14,6.7 					"/>
				</g>
				<polygon fill="#9E7738" points="11.8,8.1 8.5,2.5 7.6,0.7 14,6.7 				"/>
				<polygon fill="#9E7738" points="13,18.6 4.8,18.4 4.7,17.1 13.3,16 				"/>
			</g>
			<g>
				<polygon fill="#9E7738" points="43.7,26.2 51.7,18.1 49.2,16 39.5,22 40.3,25 				"/>
				<g>
					<polygon fill="#C1924D" points="51.7,18.1 62.1,5.5 60.9,4.3 48.5,16.5 					"/>
				</g>
				<polygon fill="#9E7738" points="49.9,18.6 60.3,6 60.9,4.3 48.5,16.5 				"/>
				<g>
					<polygon fill="#C1924D" points="55.5,11.4 49.7,1.9 48.1,2.6 52.6,13.5 					"/>
				</g>
				<polygon fill="#9E7738" points="55.5,11.4 49,2.7 48.1,2.6 52.6,13.5 				"/>
				<g>
					<polygon fill="#C1924D" points="52.2,8.1 57.3,1.7 56.4,0.7 50,6.7 					"/>
				</g>
				<polygon fill="#9E7738" points="52.2,8.1 55.5,2.5 56.4,0.7 50,6.7 				"/>
				<polygon fill="#9E7738" points="51,18.6 59.2,18.4 59.3,17.1 50.7,16 				"/>
			</g>
		</g>
	</g>
</g>
</svg>
