<?xml version="1.0" encoding="utf-8"?>
<!-- Generator: Adobe Illustrator 16.0.0, SVG Export Plug-In . SVG Version: 6.00 Build 0)  -->
<!DOCTYPE svg PUBLIC "-//W3C//DTD SVG 1.1//EN" "http://www.w3.org/Graphics/SVG/1.1/DTD/svg11.dtd">
<svg version="1.1" id="Layer_1" xmlns="http://www.w3.org/2000/svg" xmlns:xlink="http://www.w3.org/1999/xlink" x="0px" y="0px"
	 width="64px" height="64px" viewBox="0 0 64 64" enable-background="new 0 0 64 64" xml:space="preserve">
<g>
	<g>
		<g>
			<path fill="#F7910B" d="M61.9,37.5C61.9,50.5,50,61,31.6,61C13.2,61,1.3,50.5,1.3,37.5S13.2,5,31.6,5C50,5,61.9,24.5,61.9,37.5z"
				/>
		</g>
		<g>
			<path fill="#F7910B" d="M61.9,37.5C61.9,50.5,50,57,31.6,57C13.2,57,1.3,50.5,1.3,37.5S13.2,3,31.6,3C50,3,61.9,24.5,61.9,37.5z"
				/>
		</g>
		<g>
			<path fill="#F9A908" d="M31.6,3C50,3,61.9,24.5,61.9,37.5S50,57,31.6,57"/>
		</g>
		<g>
			<path fill="#F9A908" d="M61.9,37.5C61.9,50.5,50,57,31.6,57C13.2,57,1.3,50.5,1.3,37.5S13.2,5,31.6,5C50,5,61.9,24.5,61.9,37.5z"
				/>
		</g>
		<g>
			<path fill="#F9C55D" d="M1.3,37.5C1.3,24.5,13.2,5,31.6,5"/>
		</g>
		<g>
			<path fill="#F7910B" d="M31.6,5C50,5,61.9,24.5,61.9,37.5S50,61,31.6,61"/>
		</g>
		<g>
			<path fill="#EA7103" d="M31.6,5C50,5,61.9,24.5,61.9,37.5"/>
		</g>
		<g>
			<g>
				<g>
					<g>
						<g>
							<g>
								<path fill="#19BCA4" d="M24.4,18.1c-0.6,0.7-1.4-0.6-2.8-1.8c-1.4-1.2-2.8-1.8-2.2-2.4c0.6-0.7,2.1-0.3,3.5,0.9
									C24.3,15.9,25,17.4,24.4,18.1z"/>
							</g>
						</g>
					</g>
				</g>
				<g>
					<g>
						<g>
							<g>
								<path fill="#109DA0" d="M24.4,18.1c-0.6,0.7-1.4-0.6-2.8-1.8c-1.4-1.2-2.8-1.8-2.2-2.4"/>
							</g>
						</g>
					</g>
				</g>
			</g>
			<g>
				<g>
					<g>
						<g>
							<g>
								<path fill="#19BCA4" d="M37.7,16.9c0.2,0.8,1.5,0.1,3.3-0.4c1.8-0.4,3.3-0.4,3.1-1.2c-0.2-0.8-1.8-1.2-3.6-0.7
									C38.7,15,37.5,16,37.7,16.9z"/>
							</g>
						</g>
					</g>
				</g>
				<g>
					<g>
						<g>
							<g>
								<path fill="#109DA0" d="M37.7,16.9c0.2,0.8,1.5,0.1,3.3-0.4c1.8-0.4,3.3-0.4,3.1-1.2"/>
							</g>
						</g>
					</g>
				</g>
			</g>
		</g>
		<g>
			<circle fill="#F7910B" cx="9.9" cy="34.5" r="0.6"/>
		</g>
		<g>
			<circle fill="#F7910B" cx="5.4" cy="36.5" r="1.1"/>
		</g>
		<g>
			<circle fill="#F7910B" cx="8.4" cy="32.5" r="0.2"/>
		</g>
		<g>
			<circle fill="#F7910B" cx="13" cy="34.3" r="0.2"/>
		</g>
		<g>
			<circle fill="#F9A908" cx="52.2" cy="34.8" r="0.8"/>
		</g>
		<g>
			<circle fill="#F9A908" cx="54.7" cy="36.2" r="0.2"/>
		</g>
		<g>
			<circle fill="#F9A908" cx="49.4" cy="27.4" r="0.3"/>
		</g>
		<g>
			<circle fill="#F9A908" cx="48.9" cy="39" r="1.3"/>
		</g>
		<g>
			<circle fill="#F9A908" cx="56.1" cy="39.1" r="0.6"/>
		</g>
		<g>
			<circle fill="#F7910B" cx="8.9" cy="38.5" r="0.5"/>
		</g>
		<g>
			<circle fill="#F7910B" cx="9.7" cy="30.1" r="0.4"/>
		</g>
		<g>
			<circle fill="#F9A908" cx="4.4" cy="16.3" r="1.1"/>
		</g>
		<g>
			<circle fill="#F9A908" cx="7.6" cy="12.8" r="0.6"/>
		</g>
		<g>
			<circle fill="#F9A908" cx="58.8" cy="18.7" r="0.2"/>
		</g>
		<g>
			<g>
				<g>
					<g>
						<g>
							<g>
								<path fill="#1E4784" d="M23.5,28c-0.4-0.1-0.8-0.3-1.1-0.7c-1.1-1.6-3.4-2-5-0.9c-0.8,0.5-1.8,0.3-2.3-0.4
									c-0.5-0.7-0.3-1.8,0.4-2.3c3.1-2.2,7.4-1.4,9.6,1.8c0.5,0.7,0.3,1.8-0.4,2.3C24.3,28,23.9,28,23.5,28z"/>
							</g>
						</g>
						<g>
							<g>
								<path fill="#02243E" d="M25.1,25.4c0.5,0.7,0.3,1.8-0.4,2.3C24.3,28,23.9,28,23.5,28c-0.4-0.1-0.8-0.3-1.1-0.7
									c-1.1-1.6-3.4-2-5-0.9c-0.8,0.5-1.8,0.3-2.3-0.4c-0.5-0.7-0.3-1.8,0.4-2.3"/>
							</g>
						</g>
					</g>
				</g>
			</g>
			<g>
				<g>
					<circle fill="#D87703" cx="41.4" cy="25.7" r="3.5"/>
				</g>
				<g>
					<circle fill="#1E4784" cx="41.4" cy="24.7" r="3.5"/>
				</g>
				<g>
					<path fill="#00233F" d="M41.4,21.2c1.9,0,3.5,1.6,3.5,3.5s-1.6,3.5-3.5,3.5"/>
				</g>
			</g>
		</g>
		<g>
			<circle fill="#F9A908" cx="58" cy="15.8" r="0.8"/>
		</g>
		<g>
			<circle fill="#F9A908" cx="60.6" cy="16.3" r="0.5"/>
		</g>
		<g>
			<circle fill="#F9A908" cx="5.6" cy="19.3" r="0.6"/>
		</g>
		<g>
			<g>
				<path fill="#F9C55D" d="M27.4,30.8c0,1.2-3.5,0.7-7.8,0.7c-4.3,0-7.8,0.6-7.8-0.7c0-1.2,3.5-2.2,7.8-2.2
					C24,28.6,27.4,29.6,27.4,30.8z"/>
			</g>
			<g>
				<path fill="#F9A908" d="M51.4,30.8c0,1.2-3.5,0.7-7.8,0.7s-7.8,0.6-7.8-0.7c0-1.2,3.5-2.2,7.8-2.2S51.4,29.6,51.4,30.8z"/>
			</g>
		</g>
		<g>
			<g>
				<path fill="#F7910B" d="M39,46.1c0,2.6-3.3,7.3-7.4,7.3c-4.1,0-7.4-4.7-7.4-7.3"/>
			</g>
		</g>
	</g>
	<g>
		<path fill="#02243E" d="M32.7,48.4c-0.4,0-0.8-0.2-1-0.6c-0.3-0.6,0-1.2,0.5-1.5c2.4-1.1,3.3-2.1,3.3-2.6c0-0.6-1.1-1.3-1.6-1.6
			c-0.3-0.2-0.6-0.5-0.6-0.9c0-0.4,0.1-0.8,0.4-1c0.9-0.7,1.2-1.3,1.1-1.5c-0.1-0.6-1.6-1.3-2.7-1.6c-0.6-0.1-1-0.7-0.8-1.3
			c0.1-0.6,0.7-1,1.3-0.8c0.6,0.1,3.8,1,4.3,3.2c0.2,0.9-0.1,1.8-0.8,2.7c0.8,0.6,1.6,1.5,1.6,2.7c0,1.7-1.5,3.2-4.5,4.6
			C33,48.4,32.8,48.4,32.7,48.4z"/>
	</g>
	<g>
		<g>
			<g>
				<g>
					<g>
						<path fill="#D81665" d="M51.1,28c1.8,0.5,3,1.9,3.2,3.5c0,0.2,0.2,0.3,0.3,0.3c0.2,0.1,0.4,0.1,0.4-0.1c1-1.3,2.8-1.9,4.5-1.4
							c2.2,0.6,3.6,2.7,3.1,4.7c-0.2,0.7-0.6,1.3-1.2,1.8l0,0c0,0,0,0,0,0l-10,6.8l-5.1-11c0,0,0,0,0,0c0,0,0,0,0,0
							c-0.3-0.7-0.3-1.5-0.1-2.2C46.6,28.5,48.8,27.4,51.1,28z"/>
					</g>
				</g>
			</g>
			<g>
				<g>
					<path fill="#B20B5F" d="M54.6,31.8c0.2,0.1,0.4,0.1,0.4-0.1c1-1.3,2.8-1.9,4.5-1.4c2.2,0.6,3.6,2.7,3.1,4.7
						c-0.2,0.7-0.6,1.3-1.2,1.8l0,0c0,0,0,0,0,0l-10,6.8"/>
				</g>
			</g>
		</g>
	</g>
	<g>
		<g>
			<g>
				<g>
					<g>
						<path fill="#D81665" d="M42.1,39.1c1,0.3,1.7,1,1.7,1.9c0,0.1,0.1,0.2,0.2,0.2c0.1,0,0.2,0,0.2,0c0.5-0.7,1.5-1,2.5-0.8
							c1.2,0.3,2,1.5,1.7,2.6c-0.1,0.4-0.3,0.7-0.7,1l0,0c0,0,0,0,0,0l-5.5,3.7l-2.8-6c0,0,0,0,0,0l0,0c-0.2-0.4-0.2-0.8-0.1-1.2
							C39.6,39.3,40.9,38.7,42.1,39.1z"/>
					</g>
				</g>
			</g>
			<g>
				<g>
					<path fill="#B20B5F" d="M44,41.2c0.1,0,0.2,0,0.2,0c0.5-0.7,1.5-1,2.5-0.8c1.2,0.3,2,1.5,1.7,2.6c-0.1,0.4-0.3,0.7-0.7,1l0,0
						c0,0,0,0,0,0l-5.5,3.7"/>
				</g>
			</g>
		</g>
	</g>
	<g>
		<g>
			<g>
				<g>
					<g>
						<path fill="#D81665" d="M53.7,19.7c1-0.1,1.9,0.4,2.3,1.3c0,0.1,0.1,0.1,0.2,0.1c0.1,0,0.2,0,0.2-0.1c0.3-0.8,1.1-1.5,2.1-1.5
							c1.3-0.1,2.3,0.8,2.4,1.9c0,0.4-0.1,0.8-0.3,1.2l0,0c0,0,0,0,0,0l-4,5.3L52,23c0,0,0,0,0,0c0,0,0,0,0,0
							c-0.3-0.3-0.4-0.7-0.5-1.1C51.4,20.8,52.4,19.8,53.7,19.7z"/>
					</g>
				</g>
			</g>
			<g>
				<g>
					<path fill="#B20B5F" d="M56.1,21.1c0.1,0,0.2,0,0.2-0.1c0.3-0.8,1.1-1.5,2.1-1.5c1.3-0.1,2.3,0.8,2.4,1.9
						c0,0.4-0.1,0.8-0.3,1.2l0,0c0,0,0,0,0,0l-4,5.3"/>
				</g>
			</g>
		</g>
	</g>
</g>
</svg>
