<?xml version="1.0" encoding="utf-8"?>
<!-- Generator: Adobe Illustrator 16.0.0, SVG Export Plug-In . SVG Version: 6.00 Build 0)  -->
<!DOCTYPE svg PUBLIC "-//W3C//DTD SVG 1.1//EN" "http://www.w3.org/Graphics/SVG/1.1/DTD/svg11.dtd">
<svg version="1.1" id="Layer_1" xmlns="http://www.w3.org/2000/svg" xmlns:xlink="http://www.w3.org/1999/xlink" x="0px" y="0px"
	 width="64px" height="64px" viewBox="0 0 64 64" enable-background="new 0 0 64 64" xml:space="preserve">
<g>
	<g>
		<g>
			<path fill="#F7910B" d="M62.3,37.5C62.3,50.5,50.4,61,32,61C13.6,61,1.7,50.5,1.7,37.5S13.6,5,32,5C50.4,5,62.3,24.5,62.3,37.5z"
				/>
		</g>
		<g>
			<path fill="#F7910B" d="M62.3,37.5C62.3,50.5,50.4,57,32,57C13.6,57,1.7,50.5,1.7,37.5S13.6,3,32,3C50.4,3,62.3,24.5,62.3,37.5z"
				/>
		</g>
		<g>
			<path fill="#F9A908" d="M32,3c18.4,0,30.3,21.5,30.3,34.5S50.4,57,32,57"/>
		</g>
		<g>
			<path fill="#F9A908" d="M62.3,37.5C62.3,50.5,50.4,57,32,57C13.6,57,1.7,50.5,1.7,37.5S13.6,5,32,5C50.4,5,62.3,24.5,62.3,37.5z"
				/>
		</g>
		<g>
			<path fill="#F9C55D" d="M1.7,37.5C1.7,24.5,13.6,5,32,5"/>
		</g>
		<g>
			<path fill="#F7910B" d="M32,5c18.4,0,30.3,19.5,30.3,32.5S50.4,61,32,61"/>
		</g>
		<g>
			<path fill="#EA7103" d="M32,5c18.4,0,30.3,19.5,30.3,32.5"/>
		</g>
		<g>
			<g>
				<g>
					<g>
						<g>
							<g>
								<g>
									<path fill="#19BCA4" d="M26.2,15.7c0.2,1.3-1.3,0.9-3.1,1.2c-1.8,0.3-3.1,1.2-3.3-0.1c-0.2-1.3,1.1-2.6,2.9-2.8
										C24.4,13.6,26,14.5,26.2,15.7z"/>
								</g>
							</g>
						</g>
					</g>
					<g>
						<g>
							<g>
								<g>
									<path fill="#109DA0" d="M26.2,15.7c0.2,1.3-1.3,0.9-3.1,1.2c-1.8,0.3-3.1,1.2-3.3-0.1"/>
								</g>
							</g>
						</g>
					</g>
				</g>
			</g>
			<g>
				<g>
					<g>
						<g>
							<g>
								<g>
									<path fill="#19BCA4" d="M37.8,15.7c-0.2,1.3,1.3,0.9,3.1,1.2c1.8,0.3,3.1,1.2,3.3-0.1c0.2-1.3-1.1-2.6-2.9-2.8
										C39.6,13.6,38,14.5,37.8,15.7z"/>
								</g>
							</g>
						</g>
					</g>
					<g>
						<g>
							<g>
								<g>
									<path fill="#109DA0" d="M37.8,15.7c-0.2,1.3,1.3,0.9,3.1,1.2c1.8,0.3,3.1,1.2,3.3-0.1"/>
								</g>
							</g>
						</g>
					</g>
				</g>
			</g>
		</g>
		<g>
			<g>
				<path fill="#F9C55D" d="M27.8,30.8c0,1.2-3.5,0.7-7.8,0.7c-4.3,0-7.8,0.6-7.8-0.7s3.5-2.2,7.8-2.2
					C24.3,28.6,27.8,29.6,27.8,30.8z"/>
			</g>
			<g>
				<path fill="#F9A908" d="M51.8,30.8c0,1.2-3.5,0.7-7.8,0.7s-7.8,0.6-7.8-0.7s3.5-2.2,7.8-2.2S51.8,29.6,51.8,30.8z"/>
			</g>
		</g>
		<g>
			<circle fill="#F7910B" cx="10.3" cy="34.5" r="0.6"/>
		</g>
		<g>
			<circle fill="#F7910B" cx="5.8" cy="36.5" r="1.1"/>
		</g>
		<g>
			<circle fill="#F7910B" cx="8.8" cy="32.5" r="0.2"/>
		</g>
		<g>
			<circle fill="#F7910B" cx="13.4" cy="34.3" r="0.2"/>
		</g>
		<g>
			<circle fill="#F9A908" cx="52.6" cy="34.8" r="0.8"/>
		</g>
		<g>
			<circle fill="#F9A908" cx="55.1" cy="36.2" r="0.2"/>
		</g>
		<g>
			<circle fill="#F9A908" cx="49.8" cy="27.4" r="0.3"/>
		</g>
		<g>
			<circle fill="#F9A908" cx="49.3" cy="39" r="1.3"/>
		</g>
		<g>
			<circle fill="#F9A908" cx="56.5" cy="39.1" r="0.6"/>
		</g>
		<g>
			<circle fill="#F7910B" cx="9.3" cy="38.5" r="0.5"/>
		</g>
		<g>
			<circle fill="#F7910B" cx="10.1" cy="30.1" r="0.4"/>
		</g>
		<g>
			<circle fill="#F9A908" cx="4.8" cy="16.3" r="1.1"/>
		</g>
		<g>
			<circle fill="#F9A908" cx="8" cy="12.8" r="0.6"/>
		</g>
		<g>
			<circle fill="#F9A908" cx="59.2" cy="18.7" r="0.2"/>
		</g>
		<g>
			<circle fill="#F9A908" cx="58.4" cy="15.8" r="0.8"/>
		</g>
		<g>
			<path fill="#F9A908" d="M61.5,16.3c0,0.3-0.2,0.5-0.5,0.5c-0.3,0-0.5-0.2-0.5-0.5c0-0.3,0.2-0.5,0.5-0.5
				C61.2,15.8,61.5,16.1,61.5,16.3z"/>
		</g>
		<g>
			<circle fill="#F9A908" cx="6" cy="19.3" r="0.6"/>
		</g>
		<g>
			<g>
				<g>
					<path fill="#98DDED" d="M24,60c0,2.3-1.7,0.1-4,0.1l0,0c-2.3,0-4,0.2-4-2.1V28.1c0-2.3,1.7-4.1,4-4.1l0,0c2.3,0,4,1.8,4,4.1V60
						z"/>
				</g>
				<g>
					<path fill="#78C7DD" d="M20,24L20,24c2.3,0,4,1.8,4,4.1V60c0,2.3-1.8,0.1-4.1,0.1l0,0"/>
				</g>
			</g>
			<g>
				<g>
					<path fill="#78C7DD" d="M40,60c0,2.3,1.7,0.1,4,0.1l0,0c2.3,0,4,0.2,4-2.1V28.1c0-2.3-1.7-4.1-4-4.1l0,0c-2.3,0-4,1.8-4,4.1V60
						z"/>
				</g>
				<g>
					<path fill="#98DDED" d="M44,24L44,24c-2.3,0-4,1.8-4,4.1V60c0,2.3,1.8,0.1,4.1,0.1l0,0"/>
				</g>
			</g>
		</g>
		<g>
			<g>
				<path fill="#99144A" d="M38.2,45.1c0,6.1-2.8,4.1-6.2,4.1c-3.5,0-6.2,2-6.2-4.1c0-6.1,2.8-11.1,6.2-11.1
					C35.5,34,38.2,38.9,38.2,45.1z"/>
			</g>
			<g>
				<path fill="#6D0C38" d="M38.2,45.1c0,6.1-2.8,4.1-6.2,4.1c-3.5,0-6.2,2-6.2-4.1"/>
			</g>
		</g>
		<g>
			<path fill="#EADAEA" d="M32,39.5c1.9,0,3.7-0.3,5.2-0.7C36,35.9,34.1,34,32,34c-2.1,0-4,1.9-5.2,4.8C28.3,39.2,30.1,39.5,32,39.5
				z"/>
		</g>
		<g>
			<g>
				<g>
					<g>
						<g>
							<path fill="#1E4784" d="M23.9,29.3c-0.4-0.1-0.8-0.3-1.1-0.7c-1.1-1.6-3.4-2-5-0.9C17,28.2,16,28,15.5,27.3
								c-0.5-0.8-0.3-1.8,0.4-2.3c3.1-2.2,7.4-1.4,9.6,1.8c0.5,0.7,0.3,1.8-0.4,2.3C24.7,29.3,24.3,29.4,23.9,29.3z"/>
						</g>
					</g>
					<g>
						<g>
							<path fill="#02243E" d="M25.5,26.7c0.5,0.7,0.3,1.8-0.4,2.3c-0.4,0.3-0.8,0.3-1.2,0.3c-0.4-0.1-0.8-0.3-1.1-0.7
								c-1.1-1.6-3.4-2-5-0.9C17,28.2,16,28,15.5,27.3c-0.5-0.8-0.3-1.8,0.4-2.3"/>
						</g>
					</g>
				</g>
			</g>
			<g>
				<g>
					<g>
						<g>
							<path fill="#1E4784" d="M40.1,29.3c0.4-0.1,0.8-0.3,1.1-0.7c1.1-1.6,3.4-2,5-0.9c0.8,0.5,1.8,0.3,2.3-0.4
								c0.5-0.8,0.3-1.8-0.4-2.3c-3.1-2.2-7.4-1.4-9.6,1.8c-0.5,0.7-0.3,1.8,0.4,2.3C39.3,29.3,39.7,29.4,40.1,29.3z"/>
						</g>
					</g>
					<g>
						<g>
							<path fill="#02243E" d="M38.5,26.7c-0.5,0.7-0.3,1.8,0.4,2.3c0.4,0.3,0.8,0.3,1.2,0.3c0.4-0.1,0.8-0.3,1.1-0.7
								c1.1-1.6,3.4-2,5-0.9c0.8,0.5,1.8,0.3,2.3-0.4c0.5-0.8,0.3-1.8-0.4-2.3"/>
						</g>
					</g>
				</g>
			</g>
		</g>
	</g>
</g>
</svg>
