<?xml version="1.0" encoding="utf-8"?>
<!-- Generator: Adobe Illustrator 16.0.0, SVG Export Plug-In . SVG Version: 6.00 Build 0)  -->
<!DOCTYPE svg PUBLIC "-//W3C//DTD SVG 1.1//EN" "http://www.w3.org/Graphics/SVG/1.1/DTD/svg11.dtd">
<svg version="1.1" id="Layer_1" xmlns="http://www.w3.org/2000/svg" xmlns:xlink="http://www.w3.org/1999/xlink" x="0px" y="0px"
	 width="64px" height="64px" viewBox="0 0 64 64" enable-background="new 0 0 64 64" xml:space="preserve">
<g>
	<g>
		<path fill="#6ACE09" d="M47,59.2c0,2.2-1.3,3.8-3.5,3.8H21c-2.2,0-4-1.8-4-4V11c0-2.2,1.8-4,4-4h22.5c2.2,0,3.5,1.6,3.5,3.8V59.2z
			"/>
		<path fill="#43BA04" d="M21,7h22.5c2.2,0,3.5,1.6,3.5,3.8v48.4c0,2.2-1.3,3.8-3.5,3.8H21"/>
		<path fill="#3CAF00" d="M41,3.4C41,3.8,40.5,4,40.1,4H23.9C23.5,4,23,3.8,23,3.4V1.6C23,1.2,23.5,1,23.9,1h16.2
			C40.5,1,41,1.2,41,1.6V3.4z"/>
	</g>
	<polyline fill="#3CAF00" stroke="#81EF41" stroke-linecap="round" stroke-linejoin="round" stroke-miterlimit="10" points="
		27.5,13 27.5,33.5 36.5,33.5 36.5,58 	"/>
	<g>
		<path fill="#5FE80F" d="M37,14.7c0,0.2-0.1,0.3-0.3,0.3h-6.4c-0.2,0-0.3-0.1-0.3-0.3v-0.4c0-0.2,0.1-0.3,0.3-0.3h6.4
			c0.2,0,0.3,0.1,0.3,0.3V14.7z"/>
		<path fill="#5FE80F" d="M37,16.7c0,0.2-0.1,0.3-0.3,0.3h-6.4c-0.2,0-0.3-0.1-0.3-0.3v-0.4c0-0.2,0.1-0.3,0.3-0.3h6.4
			c0.2,0,0.3,0.1,0.3,0.3V16.7z"/>
		<path fill="#5FE80F" d="M37,18.7c0,0.2-0.1,0.3-0.3,0.3h-6.4c-0.2,0-0.3-0.1-0.3-0.3v-0.4c0-0.2,0.1-0.3,0.3-0.3h6.4
			c0.2,0,0.3,0.1,0.3,0.3V18.7z"/>
		<path fill="#5FE80F" d="M37,20.7c0,0.2-0.1,0.3-0.3,0.3h-6.4c-0.2,0-0.3-0.1-0.3-0.3v-0.4c0-0.2,0.1-0.3,0.3-0.3h6.4
			c0.2,0,0.3,0.1,0.3,0.3V20.7z"/>
		<path fill="#5FE80F" d="M37,22.7c0,0.2-0.1,0.3-0.3,0.3h-6.4c-0.2,0-0.3-0.1-0.3-0.3v-0.4c0-0.2,0.1-0.3,0.3-0.3h6.4
			c0.2,0,0.3,0.1,0.3,0.3V22.7z"/>
		<path fill="#5FE80F" d="M37,24.7c0,0.2-0.1,0.3-0.3,0.3h-6.4c-0.2,0-0.3-0.1-0.3-0.3v-0.4c0-0.2,0.1-0.3,0.3-0.3h6.4
			c0.2,0,0.3,0.1,0.3,0.3V24.7z"/>
		<path fill="#5FE80F" d="M37,26.7c0,0.2-0.1,0.3-0.3,0.3h-6.4c-0.2,0-0.3-0.1-0.3-0.3v-0.4c0-0.2,0.1-0.3,0.3-0.3h6.4
			c0.2,0,0.3,0.1,0.3,0.3V26.7z"/>
		<path fill="#5FE80F" d="M37,28.7c0,0.2-0.1,0.3-0.3,0.3h-6.4c-0.2,0-0.3-0.1-0.3-0.3v-0.4c0-0.2,0.1-0.3,0.3-0.3h6.4
			c0.2,0,0.3,0.1,0.3,0.3V28.7z"/>
		<path fill="#5FE80F" d="M37,30.7c0,0.2-0.1,0.3-0.3,0.3h-6.4c-0.2,0-0.3-0.1-0.3-0.3v-0.4c0-0.2,0.1-0.3,0.3-0.3h6.4
			c0.2,0,0.3,0.1,0.3,0.3V30.7z"/>
	</g>
</g>
</svg>
