<?xml version="1.0" encoding="utf-8"?>
<!-- Generator: Adobe Illustrator 16.0.0, SVG Export Plug-In . SVG Version: 6.00 Build 0)  -->
<!DOCTYPE svg PUBLIC "-//W3C//DTD SVG 1.1//EN" "http://www.w3.org/Graphics/SVG/1.1/DTD/svg11.dtd">
<svg version="1.1" id="Layer_1" xmlns="http://www.w3.org/2000/svg" xmlns:xlink="http://www.w3.org/1999/xlink" x="0px" y="0px"
	 width="64px" height="64px" viewBox="0 0 64 64" enable-background="new 0 0 64 64" xml:space="preserve">
<g>
	<g>
		<rect x="29" y="47" fill="#1B9E79" width="6" height="16"/>
		<g>
			<polygon fill="#2ED887" points="60.5,52 32,23.5 3.5,52 			"/>
			<polygon fill="#2CBF7F" points="60.5,52 32,23.5 24,52 			"/>
		</g>
		<g>
			<polygon fill="#2ED887" points="54.8,40 32.1,17.3 9.4,40 			"/>
			<polygon fill="#2CBF7F" points="54.8,40 32.1,17.3 25.8,40 			"/>
		</g>
		<g>
			<polygon fill="#2ED887" points="50.1,31 32.1,13 14.2,31 			"/>
			<polygon fill="#2CBF7F" points="50.1,31 32.1,13 27.1,31 			"/>
		</g>
		<g>
			<polygon fill="#2ED887" points="45.2,23 32.1,9.9 19,23 			"/>
			<polygon fill="#2CBF7F" points="45.2,23 32.1,9.9 28.5,23 			"/>
		</g>
		<path fill="#1B9E79" d="M41.1,63c0,0.6-4,0.2-9,0.2c-5,0-9,0.4-9-0.2c0-0.6,4-1.1,9-1.1C37.1,61.9,41.1,62.4,41.1,63z"/>
	</g>
	<polygon fill="#FC97D3" points="32,0.6 34.1,4.8 38.7,5.5 35.4,8.8 36.1,13.4 32,11.2 27.9,13.4 28.6,8.8 25.3,5.5 29.9,4.8 	"/>
	<polygon fill="#DD588E" points="32,0.6 34.1,4.8 38.7,5.5 35.4,8.8 36.1,13.4 32,11.2 27.9,13.4 30.2,9.9 25.3,5.5 30.9,6.1 	"/>
	<path fill="none" stroke="#FF73B9" stroke-miterlimit="10" d="M30.8,27.9c0,2.6-2.1,4.7-4.7,4.7s-4.7-2.1-4.7-4.7"/>
	<path fill="none" stroke="#FFEF5F" stroke-miterlimit="10" d="M37.3,18.2c0,2.6-2.1,4.7-4.7,4.7s-4.7-2.1-4.7-4.7"/>
	<path fill="none" stroke="#61F4FF" stroke-miterlimit="10" d="M42,41.4c0,2.6-2.1,4.7-4.7,4.7c-2.6,0-4.7-2.1-4.7-4.7"/>
</g>
</svg>
