<?xml version="1.0" encoding="utf-8"?>
<!-- Generator: Adobe Illustrator 16.0.0, SVG Export Plug-In . SVG Version: 6.00 Build 0)  -->
<!DOCTYPE svg PUBLIC "-//W3C//DTD SVG 1.1//EN" "http://www.w3.org/Graphics/SVG/1.1/DTD/svg11.dtd">
<svg version="1.1" id="Layer_1" xmlns="http://www.w3.org/2000/svg" xmlns:xlink="http://www.w3.org/1999/xlink" x="0px" y="0px"
	 width="64px" height="64px" viewBox="0 0 64 64" enable-background="new 0 0 64 64" xml:space="preserve">
<g>
	<g>
		<g>
			<circle fill="#7C0A3E" cx="25.3" cy="59.3" r="4.2"/>
		</g>
		<g>
			<ellipse fill="#F2E1C2" cx="23.6" cy="59.3" rx="1" ry="1.8"/>
		</g>
		<g>
			<circle fill="#7C0A3E" cx="53.6" cy="59.3" r="4.2"/>
		</g>
		<g>
			<ellipse fill="#F2E1C2" cx="51.8" cy="59.3" rx="1" ry="1.8"/>
		</g>
	</g>
	<g>
		<g>
			<g>
				<path fill="#F7910B" d="M62.3,35c0,13-11.9,23.5-30.3,23.5C13.6,58.5,1.7,48,1.7,35S13.6,2.5,32,2.5C50.4,2.5,62.3,22,62.3,35z"
					/>
			</g>
			<g>
				<path fill="#F7910B" d="M62.3,35c0,13-11.9,19.5-30.3,19.5C13.6,54.5,1.7,48,1.7,35S13.6,0.5,32,0.5C50.4,0.5,62.3,22,62.3,35z"
					/>
			</g>
			<g>
				<path fill="#F9A908" d="M32,0.5C50.4,0.5,62.3,22,62.3,35S50.4,54.5,32,54.5"/>
			</g>
			<g>
				<path fill="#F9A908" d="M62.3,35c0,13-11.9,19.5-30.3,19.5C13.6,54.5,1.7,48,1.7,35S13.6,2.5,32,2.5C50.4,2.5,62.3,22,62.3,35z"
					/>
			</g>
			<g>
				<path fill="#F9C55D" d="M1.7,35C1.7,22,13.6,2.5,32,2.5"/>
			</g>
			<g>
				<path fill="#F7910B" d="M32,2.5C50.4,2.5,62.3,22,62.3,35S50.4,58.5,32,58.5"/>
			</g>
			<g>
				<path fill="#EA7103" d="M32,2.5C50.4,2.5,62.3,22,62.3,35"/>
			</g>
			<g>
				<g>
					<path fill="#19BCA4" d="M29.8,14.5c-1.8,0.1-3.2,0.8-3.2,1.7l6.5-0.3C33.1,15.1,31.6,14.4,29.8,14.5z"/>
				</g>
				<g>
					<path fill="#19BCA4" d="M49.1,14.5c-1.8-0.1-3.3,0.6-3.3,1.4l6.5,0.3C52.3,15.3,50.9,14.6,49.1,14.5z"/>
				</g>
				<g>
					<path fill="#109DA0" d="M29.8,16.5c1.8-0.1,3.3,0.3,3.3-0.6l-6.5,0.3C26.6,17.1,28,16.6,29.8,16.5z"/>
				</g>
				<g>
					<path fill="#109DA0" d="M49,16.5c1.8,0.1,3.3,0.6,3.3-0.3l-6.5-0.3C45.7,16.8,47.2,16.4,49,16.5z"/>
				</g>
				<g>
					<path fill="#F9C55D" d="M27.4,27.3c-4.3,0-7.8,1-7.8,2.2s3.5,0.7,7.8,0.7c4.3,0,7.8,0.6,7.8-0.7S31.8,27.3,27.4,27.3z"/>
				</g>
				<g>
					<path fill="#F9A908" d="M51.4,27.3c-4.3,0-7.8,1-7.8,2.2s3.5,0.7,7.8,0.7c4.3,0,7.8,0.6,7.8-0.7S55.7,27.3,51.4,27.3z"/>
				</g>
			</g>
			<g>
				<circle fill="#F7910B" cx="10.3" cy="32" r="0.6"/>
			</g>
			<g>
				<circle fill="#F7910B" cx="5.8" cy="34" r="1.1"/>
			</g>
			<g>
				<circle fill="#F7910B" cx="8.8" cy="30" r="0.2"/>
			</g>
			<g>
				<circle fill="#F7910B" cx="13.4" cy="31.8" r="0.2"/>
			</g>
			<g>
				<circle fill="#F9A908" cx="58.6" cy="34.9" r="0.8"/>
			</g>
			<g>
				<circle fill="#F9A908" cx="55.1" cy="33.7" r="0.2"/>
			</g>
			<g>
				<circle fill="#F9A908" cx="59.2" cy="40.7" r="0.3"/>
			</g>
			<g>
				<circle fill="#F9A908" cx="55.4" cy="44.5" r="1.3"/>
			</g>
			<g>
				<circle fill="#F9A908" cx="56.5" cy="36.6" r="0.6"/>
			</g>
			<g>
				<circle fill="#F7910B" cx="9.3" cy="36" r="0.5"/>
			</g>
			<g>
				<circle fill="#F7910B" cx="10.1" cy="27.6" r="0.4"/>
			</g>
			<g>
				<circle fill="#F9A908" cx="4.8" cy="13.8" r="1.1"/>
			</g>
			<g>
				<circle fill="#F9A908" cx="8" cy="10.3" r="0.6"/>
			</g>
			<g>
				<circle fill="#F9A908" cx="59.2" cy="16.2" r="0.2"/>
			</g>
			<g>
				<circle fill="#F9A908" cx="58.4" cy="13.3" r="0.8"/>
			</g>
			<g>
				<circle fill="#F9A908" cx="61" cy="13.8" r="0.5"/>
			</g>
			<g>
				<circle fill="#F9A908" cx="6" cy="16.8" r="0.6"/>
			</g>
			<g>
				<g>
					<circle fill="#EA7103" cx="29.2" cy="25.7" r="3.2"/>
				</g>
				<g>
					<circle fill="#EA7103" cx="50" cy="25.7" r="3.2"/>
				</g>
				<g>
					<circle fill="#1E4784" cx="29.2" cy="24.8" r="3.2"/>
				</g>
				<g>
					<path fill="#00233F" d="M29.2,21.6c1.8,0,3.2,1.4,3.2,3.2s-1.4,3.2-3.2,3.2"/>
				</g>
				<g>
					<circle fill="#1E4784" cx="50" cy="24.8" r="3.2"/>
				</g>
				<g>
					<path fill="#00233F" d="M50,21.6c1.8,0,3.2,1.4,3.2,3.2s-1.4,3.2-3.2,3.2"/>
				</g>
			</g>
		</g>
		<g>
			<g>
				<path fill="#C42260" d="M49.8,32c0,6.8-4.9,12.2-10.9,12.2c-6,0-10.9-5.5-10.9-12.2"/>
			</g>
			<g>
				<path fill="#99144A" d="M49.8,32c0,2.3-4.9,4.1-10.9,4.1c-6,0-10.9-1.8-10.9-4.1"/>
			</g>
			<g>
				<path fill="#E2446E" d="M38.9,44.2c3.4,0,6.4-1.7,8.4-4.4c-1.2-1.5-3-2.5-5-2.5c-1.2,0-2.4,0.4-3.3,1c-1-0.6-2.1-1-3.3-1
					c-2,0-3.8,1-5,2.5C32.5,42.5,35.5,44.2,38.9,44.2z"/>
			</g>
		</g>
	</g>
	<g>
		<path fill="#19BCA4" d="M62,56.5c0,1.4-1.1,2.5-2.5,2.5h-54C4.1,59,3,57.9,3,56.5l0,0C3,55.1,4.1,54,5.5,54h54
			C60.9,54,62,55.1,62,56.5L62,56.5z"/>
	</g>
	<g>
		<g>
			<circle fill="#C42260" cx="11.6" cy="59.3" r="4.2"/>
		</g>
		<g>
			<ellipse fill="#F2E1C2" cx="9.8" cy="59.3" rx="1" ry="1.8"/>
		</g>
		<g>
			<circle fill="#C42260" cx="39.8" cy="59.3" r="4.2"/>
		</g>
		<g>
			<ellipse fill="#F2E1C2" cx="38.1" cy="59.3" rx="1" ry="1.8"/>
		</g>
	</g>
</g>
</svg>
