<?xml version="1.0" encoding="utf-8"?>
<!-- Generator: Adobe Illustrator 16.0.0, SVG Export Plug-In . SVG Version: 6.00 Build 0)  -->
<!DOCTYPE svg PUBLIC "-//W3C//DTD SVG 1.1//EN" "http://www.w3.org/Graphics/SVG/1.1/DTD/svg11.dtd">
<svg version="1.1" id="Layer_1" xmlns="http://www.w3.org/2000/svg" xmlns:xlink="http://www.w3.org/1999/xlink" x="0px" y="0px"
	 width="65px" height="65px" viewBox="0 0 65 65" enable-background="new 0 0 65 65" xml:space="preserve">
<g>
	<path fill="#6D0000" d="M18.748,28.395c0,0-5.5,5-4.125,17.375c0,0,0.562,3,0.25,4.25c-0.312,1.25,1.062,2.812,2.812,0.625
		c1.751-2.188,4-5.75,9.438-2.125c5.438,3.625,16.75-4.938,18.875-0.625s3.5,1,3.062-2.25s-2.5-12.062,3.562-10.5
		c6.062,1.562,2.875-1.875,0.188-5.25s5.125-0.875,2.25-3.625c-2.876-2.75-9.312,8.25-15.562,1.5s-7.562,1.625-7.562,1.625
		l-8.562-0.125L18.748,28.395z"/>
	<path fill="#F2B09C" d="M28.478,26.369c1.272,1.432,0.465,4.227-1.805,6.248c-2.271,2.018-14.475,10.795-15.75,9.365
		c-1.271-1.434,8.873-12.531,11.143-14.549C24.333,25.414,27.204,24.938,28.478,26.369z"/>
	<path fill="#F2B09C" d="M31.267,26.369c-1.273,1.432-0.465,4.227,1.804,6.248c2.271,2.018,14.476,10.795,15.75,9.365
		c1.272-1.434-8.872-12.531-11.142-14.549C35.412,25.414,32.541,24.938,31.267,26.369z"/>
	<g>
		<g>
			<g>
				<g>
					<path fill="#F2B09C" d="M26.845,46.445c0,2.477-2.009,15.828-4.486,15.828c-2.476,0-4.482-13.352-4.482-15.828
						c0-2.475,2.007-4.484,4.482-4.484C24.836,41.961,26.845,43.971,26.845,46.445z"/>
					<path fill="#F2B09C" d="M41.87,46.445c0,2.477-2.007,15.828-4.486,15.828c-2.474,0-4.48-13.352-4.48-15.828
						c0-2.475,2.007-4.484,4.48-4.484C39.863,41.961,41.87,43.971,41.87,46.445z"/>
				</g>
				<path fill="#F9C1AC" d="M42.523,40.521c0,16.037-5.661,10.697-12.65,10.697c-6.986,0-12.65,5.34-12.65-10.697
					c0-9.17,5.665-16.604,12.65-16.604C36.859,23.918,42.523,31.352,42.523,40.521z"/>
				<g>
					<path fill="#F9C1AC" d="M27.406,62.354c0,1.896-2.26,2.146-5.044,2.146c-2.786,0-5.046-0.25-5.046-2.146
						s2.26-4.508,5.046-4.508C25.146,57.846,27.406,60.457,27.406,62.354z"/>
					<path fill="#7A4A2A" d="M27.406,62.354c0,1.896-2.26,2.146-5.044,2.146c-2.786,0-5.046-0.25-5.046-2.146"/>
				</g>
				<g>
					<path fill="#F9C1AC" d="M42.431,62.354c0,1.896-2.261,2.146-5.045,2.146c-2.786,0-5.045-0.25-5.045-2.146
						s2.259-4.508,5.045-4.508C40.17,57.846,42.431,60.457,42.431,62.354z"/>
					<path fill="#7A4A2A" d="M42.431,62.354c0,1.896-2.261,2.146-5.045,2.146c-2.786,0-5.045-0.25-5.045-2.146"/>
				</g>
				<g>
					<path fill="#AA1111" d="M21.248,25.916c0,0-3.083,2.479-3,3.229s3.334,0.271,3.167,1.605s5.833,4.416,12.583,2.25
						s6.833-3.5,6.583-4.166c-0.25-0.668-3.999-4.334-6.166-3.668c-2.167,0.668-9.834,0.084-9.834,0.084L21.248,25.916z"/>
				</g>
				<path fill="#C6BFAF" d="M27.248,30.164c0.856,0.08,1.73,0.131,2.627,0.131c0.894,0,1.768-0.051,2.623-0.131v-4.332h-5.25V30.164
					z"/>
				<g>
					<path fill="#7A4A2A" d="M46.244,16.275c0,7.998-7.33,12.02-16.369,12.02c-9.041,0-16.373-4.021-16.373-12.02
						c0-8.002,7.332-15.775,16.373-15.775C38.914,0.5,46.244,8.273,46.244,16.275z"/>
					<path fill="#F9C1AC" d="M46.244,16.275c0,7.998-7.33,12.02-16.369,12.02c-9.041,0-16.373-4.021-16.373-12.02
						c0-8.002,7.332-9.443,16.373-9.443C38.914,6.832,46.244,8.273,46.244,16.275z"/>
					<path fill="#F2B09C" d="M46.244,16.275c0,7.998-7.33,12.02-16.369,12.02c-9.041,0-16.373-4.021-16.373-12.02"/>
				</g>
				<g>
					<g>
						<circle fill="#113E49" cx="22.088" cy="17.82" r="1.463"/>
						<path d="M23.551,17.82c0,0.811-0.655,1.465-1.465,1.465c-0.808,0-1.462-0.654-1.462-1.465"/>
						<g>
							<path fill="#FFD3C5" d="M24.976,20.873c-0.078,0-0.158-0.027-0.219-0.09c-0.715-0.715-1.664-1.107-2.672-1.107h-0.003
								c-1.007,0-1.954,0.393-2.665,1.105c-0.121,0.121-0.317,0.125-0.436,0.002c-0.12-0.117-0.125-0.312-0.004-0.434
								c0.83-0.832,1.932-1.291,3.104-1.291h0.003c1.176,0,2.279,0.457,3.111,1.289c0.119,0.119,0.119,0.318,0,0.436
								C25.135,20.846,25.058,20.873,24.976,20.873z"/>
						</g>
					</g>
					<g>
						<circle fill="#113E49" cx="37.659" cy="17.82" r="1.464"/>
						<path d="M36.195,17.82c0,0.811,0.654,1.465,1.465,1.465c0.808,0,1.463-0.654,1.463-1.465"/>
						<g>
							<path fill="#FFD3C5" d="M34.77,20.873c0.077,0,0.157-0.027,0.217-0.09c0.715-0.715,1.666-1.107,2.673-1.107h0.002
								c1.008,0,1.956,0.393,2.668,1.105c0.119,0.121,0.314,0.125,0.436,0.002c0.121-0.117,0.122-0.312,0.002-0.434
								c-0.826-0.832-1.933-1.291-3.105-1.291H37.66c-1.173,0-2.277,0.457-3.111,1.289c-0.117,0.119-0.117,0.318,0,0.436
								C34.612,20.846,34.689,20.873,34.77,20.873z"/>
						</g>
					</g>
				</g>
			</g>
		</g>
		<path fill="#7A4A2A" d="M29.748,19.332c-3.475,0-6.291,2.449-6.291,5.471v1.811c0,3.021,2.816,5.471,6.291,5.471
			s6.292-2.449,6.292-5.471v-1.811C36.04,21.781,33.222,19.332,29.748,19.332z M33.492,25.016c0,1.797-1.676,3.254-3.744,3.254
			c-2.066,0-3.742-1.457-3.742-3.254v-1.076c0-1.797,1.676-3.256,3.742-3.256c2.068,0,3.744,1.459,3.744,3.256V25.016z"/>
	</g>
	<path fill="#7A4A2A" d="M17.603,46.457c1.379,8.592,6.35,4.762,12.27,4.762c5.922,0,10.891,3.83,12.27-4.762H17.603z"/>
	<circle fill="#B6BFC1" cx="23.331" cy="33.625" r="2.542"/>
	<path fill="#9BA8AA" d="M25.873,33.625c0,1.404-1.138,2.541-2.541,2.541c-1.404,0-2.542-1.137-2.542-2.541"/>
	<path fill="#6D0000" d="M31.903,24.426c0,1.123-0.908,2.031-2.03,2.031l0,0c-1.122,0-2.031-0.908-2.031-2.031v-1.312
		c0-1.121,0.909-2.031,2.031-2.031l0,0c1.122,0,2.03,0.91,2.03,2.031V24.426z"/>
	<path fill="#AA1111" d="M27.92,24.957c0.234,0.863,1.015,1.5,1.952,1.5s1.718-0.637,1.952-1.5c-0.234-0.863-1.015-1.5-1.952-1.5
		S28.155,24.094,27.92,24.957z"/>
	<path fill="#F2B09C" d="M28.748,43.895c0,1.139-0.924,2.062-2.063,2.062l0,0c-1.138,0-2.062-0.924-2.062-2.062l0,0
		c0-1.139,0.924-2.062,2.062-2.062l0,0C27.824,41.832,28.748,42.756,28.748,43.895L28.748,43.895z"/>
	<g>
		<path fill="#F2B09C" d="M29.341,39.27c0,1.139-0.924,2.062-2.062,2.062l0,0c-1.139,0-2.063-0.924-2.063-2.062l0,0
			c0-1.139,0.925-2.062,2.063-2.062l0,0C28.417,37.207,29.341,38.131,29.341,39.27L29.341,39.27z"/>
		<path fill="#F2B09C" d="M34.529,39.27c0,1.139-0.925,2.062-2.062,2.062l0,0c-1.139,0-2.063-0.924-2.063-2.062l0,0
			c0-1.139,0.925-2.062,2.063-2.062l0,0C33.604,37.207,34.529,38.131,34.529,39.27L34.529,39.27z"/>
		<path fill="#F2B09C" d="M34.529,43.895c0,1.139-0.925,2.062-2.062,2.062l0,0c-1.139,0-2.063-0.924-2.063-2.062l0,0
			c0-1.139,0.925-2.062,2.063-2.062l0,0C33.604,41.832,34.529,42.756,34.529,43.895L34.529,43.895z"/>
	</g>
	<g>
		<path fill="#7A4A2A" d="M12.374,53.416c0,0.506-0.411,0.916-0.917,0.916l0,0c-0.507,0-0.917-0.41-0.917-0.916V28.082
			c0-0.506,0.41-0.916,0.917-0.916l0,0c0.506,0,0.917,0.41,0.917,0.916V53.416z"/>
		<polygon fill="#B6BFC1" points="14.285,26.832 11.457,29.662 8.628,26.832 11.457,17.5 		"/>
		<polyline fill="#93A2A5" points="11.457,17.5 14.285,26.832 11.457,29.662 		"/>
	</g>
	<circle fill="#B0BFC1" cx="48.372" cy="44.457" r="7.999"/>
	<path fill="#93A2A5" d="M54.029,38.801c3.124,3.123,3.124,8.189,0,11.312c-3.124,3.125-8.189,3.125-11.313,0"/>
</g>
</svg>
