<?xml version="1.0" encoding="utf-8"?>
<!-- Generator: Adobe Illustrator 16.0.0, SVG Export Plug-In . SVG Version: 6.00 Build 0)  -->
<!DOCTYPE svg PUBLIC "-//W3C//DTD SVG 1.1//EN" "http://www.w3.org/Graphics/SVG/1.1/DTD/svg11.dtd">
<svg version="1.1" xmlns="http://www.w3.org/2000/svg" xmlns:xlink="http://www.w3.org/1999/xlink" x="0px" y="0px" width="65px"
	 height="65px" viewBox="0 0 65 65" enable-background="new 0 0 65 65" xml:space="preserve">
<g id="Layer_1">
	<g>
		<g>
			<g>
				<g>
					<polyline fill="#45FFE0" points="21.116,25.235 21.116,41.233 43.884,41.233 43.884,60.999 32.808,60.999 					"/>
				</g>
				<g>
					<path fill="#59264D" d="M43.884,63.499H32.808c-1.381,0-2.5-1.119-2.5-2.5s1.119-2.5,2.5-2.5h8.576V43.733H21.116
						c-1.381,0-2.5-1.119-2.5-2.5V25.235c0-1.381,1.119-2.5,2.5-2.5s2.5,1.119,2.5,2.5v13.498h20.268c1.381,0,2.5,1.119,2.5,2.5
						v19.766C46.384,62.38,45.265,63.499,43.884,63.499z"/>
				</g>
			</g>
			<g>
				<g>
					<polyline fill="#FF4382" points="43.884,39.765 43.884,23.765 21.116,23.765 21.116,4.001 32.194,4.001 					"/>
				</g>
				<g>
					<path fill="#59264D" d="M43.884,42.265c-1.381,0-2.5-1.119-2.5-2.5v-13.5H21.116c-1.381,0-2.5-1.119-2.5-2.5V4.001
						c0-1.381,1.119-2.5,2.5-2.5h11.078c1.381,0,2.5,1.119,2.5,2.5s-1.119,2.5-2.5,2.5h-8.578v14.764h20.268
						c1.381,0,2.5,1.119,2.5,2.5v16C46.384,41.146,45.265,42.265,43.884,42.265z"/>
				</g>
			</g>
		</g>
		<g>
			<g>
				<line fill="#45FFE0" x1="32.5" y1="31.5" x2="32.5" y2="33.5"/>
			</g>
			<g>
				<path fill="#59264D" d="M32.5,36c-1.382,0-2.501-1.119-2.501-2.5v-2c0-1.381,1.119-2.5,2.501-2.5c1.381,0,2.499,1.119,2.499,2.5
					v2C34.999,34.881,33.881,36,32.5,36z"/>
			</g>
		</g>
	</g>
</g>
<g id="nyt_x5F_exporter_x5F_info" display="none">
</g>
</svg>
