<?xml version="1.0" encoding="utf-8"?>
<!-- Generator: Adobe Illustrator 16.0.0, SVG Export Plug-In . SVG Version: 6.00 Build 0)  -->
<!DOCTYPE svg PUBLIC "-//W3C//DTD SVG 1.1//EN" "http://www.w3.org/Graphics/SVG/1.1/DTD/svg11.dtd">
<svg version="1.1" id="Layer_1" xmlns="http://www.w3.org/2000/svg" xmlns:xlink="http://www.w3.org/1999/xlink" x="0px" y="0px"
	 width="64px" height="64px" viewBox="0 0 64 64" enable-background="new 0 0 64 64" xml:space="preserve">
<g>
	<g>
		<path fill="#777777" d="M38.6,17h-1.8c0-5-5.4-11.6-11.6-11.6C18.9,5.4,13.5,12,13.5,17h-1.8c0-6,6-13.4,13.5-13.4
			C32.6,3.6,38.6,11,38.6,17z"/>
	</g>
	<g>
		<rect x="9" y="17" fill="#14845F" width="45" height="44"/>
		<polygon fill="#65EAA7" points="9,17 13.1,23.4 8,63 		"/>
		<g>
			<g>
				<path fill="#FF7C24" d="M42.3,5.9c0,0,0.4-2.8-3.6-4.4c-3.9-1.6-5.2,2.3-2.9,5.3s4.3,1.4,4.3,1.4s-2.5-0.4-2.4-4.2
					c0-2.3,4.1,0.5,4.1,2.4l0.6,0.1L42.3,5.9z"/>
				<path fill="#FF7C24" d="M42.2,5.9c0,0-0.4-2.8,3.6-4.4c3.9-1.6,5.2,2.3,2.9,5.3c-2.3,2.9-4.3,1.4-4.3,1.4s2.5-0.4,2.4-4.2
					c0-2.3-4.1,0.5-4.1,2.4L42,6.4L42.2,5.9z"/>
			</g>
			<g>
				<rect x="30" y="11" fill="#CC3636" width="24" height="19"/>
				<polyline fill="#A00D0D" points="30,11 54,11 54,30 				"/>
			</g>
			<g>
				<rect x="30" y="12" fill="#1EE2BD" width="24" height="1"/>
				<polyline fill="#08BF9C" points="30,12 54,12 54,13 				"/>
			</g>
			<g>
				<rect x="30" y="15" fill="#1EE2BD" width="24" height="1"/>
				<polyline fill="#08BF9C" points="30,15 54,15 54,16 				"/>
			</g>
			<g>
				<rect x="30" y="18" fill="#1EE2BD" width="24" height="1"/>
				<polyline fill="#08BF9C" points="30,18 54,18 54,19 				"/>
			</g>
			<g>
				<rect x="30" y="21" fill="#1EE2BD" width="24" height="1"/>
				<polyline fill="#08BF9C" points="30,21 54,21 54,22 				"/>
			</g>
			<g>
				<rect x="30" y="24" fill="#1EE2BD" width="24" height="1"/>
				<polyline fill="#08BF9C" points="30,24 54,24 54,25 				"/>
			</g>
			<g>
				<rect x="30" y="26" fill="#1EE2BD" width="24" height="0"/>
				<polyline fill="#08BF9C" points="30,26 54,26 54,26 				"/>
			</g>
			<g>
				<rect x="30" y="28" fill="#1EE2BD" width="24" height="1"/>
				<polyline fill="#08BF9C" points="30,28 54,28 54,29 				"/>
			</g>
			<rect x="41" y="10" fill="#FFAA22" width="3" height="20"/>
			<polyline fill="#FF7C24" points="41,10 44,10 44,30 			"/>
			<rect x="28" y="6" fill="#1E4784" width="28" height="5"/>
			<polyline fill="#00233F" points="28,6 56,6 56,11 			"/>
		</g>
		<polygon fill="#229968" points="54,21 51.5,25.4 55.3,63 		"/>
		<g>
			<polygon fill="#45DB93" points="55.3,63 8,63 11.5,21 51.7,21 			"/>
			<polygon fill="#2CBF7F" points="55.3,63 8,63 19,28.6 51.7,21.2 			"/>
			<polygon fill="#24A87C" points="55.3,63 8,63 44.8,54.4 51.7,21.2 			"/>
			<g>
				<path fill="#BFBFBF" d="M47.1,22H45c0-6-6.2-13.3-13.3-13.3C24.5,8.7,18.3,16,18.3,22h-2.1c0-7,6.9-15.4,15.4-15.4
					C40.2,6.6,47.1,15,47.1,22z"/>
			</g>
			<g>
				<path fill="#AAAAAA" d="M31.6,6.6c8.6,0,15.4,8.4,15.4,15.4H45c0-6-6.2-13.3-13.3-13.3"/>
			</g>
		</g>
		<g>
			<g>
				<polygon fill="#FFD524" points="44.2,49 31.6,36.4 19.1,49 				"/>
				<polygon fill="#EDB311" points="44.2,49 31.6,36.4 28.1,49 				"/>
			</g>
			<g>
				<polygon fill="#FFD524" points="41.7,44 31.7,34 21.7,44 				"/>
				<polygon fill="#EDB311" points="41.7,44 31.7,34 28.9,44 				"/>
			</g>
			<g>
				<polygon fill="#FFD524" points="39.6,40 31.7,32.1 23.8,40 				"/>
				<polygon fill="#EDB311" points="39.6,40 31.7,32.1 29.5,40 				"/>
			</g>
			<g>
				<polygon fill="#FFD524" points="37.5,37 31.7,31.2 25.9,37 				"/>
				<polygon fill="#EDB311" points="37.5,37 31.7,31.2 30.1,37 				"/>
			</g>
		</g>
		<g>
			<circle fill="#FFD524" cx="25.6" cy="54.2" r="0.9"/>
			<circle fill="#FFD524" cx="31.6" cy="54.2" r="0.9"/>
			<circle fill="#FFD524" cx="37.7" cy="54.2" r="0.9"/>
		</g>
	</g>
</g>
</svg>
