<?xml version="1.0" encoding="utf-8"?>
<!-- Generator: Adobe Illustrator 16.0.0, SVG Export Plug-In . SVG Version: 6.00 Build 0)  -->
<!DOCTYPE svg PUBLIC "-//W3C//DTD SVG 1.1//EN" "http://www.w3.org/Graphics/SVG/1.1/DTD/svg11.dtd">
<svg version="1.1" id="Layer_1" xmlns="http://www.w3.org/2000/svg" xmlns:xlink="http://www.w3.org/1999/xlink" x="0px" y="0px"
	 width="65px" height="65px" viewBox="0 0 65 65" enable-background="new 0 0 65 65" xml:space="preserve">
<g>
	<g>
		<path fill="#D1B302" d="M31.496,26.369c1.273,1.432,0.465,4.227-1.805,6.248c-2.27,2.018-14.475,10.795-15.75,9.365
			c-1.271-1.434,8.873-12.531,11.143-14.549C27.352,25.414,30.223,24.938,31.496,26.369z"/>
		
			<rect x="11.392" y="35.167" transform="matrix(0.7071 -0.7071 0.7071 0.7071 -19.6567 24.3804)" fill="#353426" width="16.416" height="1.5"/>
		<path fill="#D1B302" d="M34.285,26.369c-1.273,1.432-0.465,4.227,1.805,6.248c2.27,2.018,14.475,10.795,15.75,9.365
			c1.271-1.434-8.873-12.531-11.143-14.549C38.43,25.414,35.559,24.938,34.285,26.369z"/>
		<g>
			
				<rect x="37.974" y="35.167" transform="matrix(-0.7071 -0.7071 0.7071 -0.7071 53.4378 93.969)" fill="#353426" width="16.416" height="1.5"/>
		</g>
		<g>
			<g>
				<g>
					<g>
						<path fill="#B79904" d="M45.139,46.07c0,2.477-2.008,15.828-4.486,15.828c-2.475,0-4.482-13.352-4.482-15.828
							c0-2.475,2.008-4.484,4.482-4.484C43.131,41.586,45.139,43.596,45.139,46.07z"/>
						<path fill="#B79904" d="M29.863,46.445c0,2.477-2.008,15.828-4.486,15.828c-2.475,0-4.482-13.352-4.482-15.828
							c0-2.475,2.008-4.484,4.482-4.484C27.855,41.961,29.863,43.971,29.863,46.445z"/>
						<g>
							<g>
								<path fill="#CE1111" d="M45.541,40.521c0,16.037-5.662,10.697-12.65,10.697c-6.986,0-12.65,5.34-12.65-10.697
									c0-9.17,5.666-16.604,12.65-16.604C39.877,23.918,45.541,31.352,45.541,40.521z"/>
								<path fill="#D1B302" d="M45.541,40.521c0,16.037-5.662,10.697-12.65,10.697c-6.986,0-12.65,5.34-12.65-10.697
									c0-9.17,5.666-16.604,12.65-16.604C39.877,23.918,45.541,31.352,45.541,40.521z"/>
								<path fill="#EACE00" d="M32.891,23.918c-6.764,0-12.274,6.977-12.617,15.744c0.446,13.695,5.923,8.807,12.617,8.807
									c6.696,0,12.17,4.889,12.617-8.807C45.165,30.895,39.655,23.918,32.891,23.918z"/>
								<g>
									<path fill="#E87400" d="M30.424,62.354c0,1.896-2.26,2.146-5.045,2.146s-5.045-0.25-5.045-2.146s2.26-4.508,5.045-4.508
										S30.424,60.457,30.424,62.354z"/>
									<path fill="#D36400" d="M30.424,62.354c0,1.896-2.26,2.146-5.045,2.146s-5.045-0.25-5.045-2.146"/>
								</g>
								<g>
									<path fill="#E87400" d="M45.449,62.354c0,1.896-2.26,2.146-5.045,2.146s-5.045-0.25-5.045-2.146s2.26-4.508,5.045-4.508
										S45.449,60.457,45.449,62.354z"/>
									<path fill="#D36400" d="M45.449,62.354c0,1.896-2.26,2.146-5.045,2.146s-5.045-0.25-5.045-2.146"/>
								</g>
								<g>
									<path fill="#D1B302" d="M22.864,30.426c2.772,1.404,6.245,2.119,10.028,2.119c3.781,0,7.254-0.715,10.025-2.119
										c-2.312-3.949-5.938-6.508-10.027-6.508C28.803,23.918,25.176,26.475,22.864,30.426z"/>
								</g>
								<g>
									<path fill="#F7C88F" d="M49.262,16.275c0,7.998-7.33,12.02-16.369,12.02c-9.041,0-16.373-4.021-16.373-12.02
										C16.52,8.273,23.852,0.5,32.893,0.5C41.932,0.5,49.262,8.273,49.262,16.275z"/>
									<path fill="#EFBB81" d="M49.262,16.275c0,7.998-7.33,12.02-16.369,12.02c-9.041,0-16.373-4.021-16.373-12.02"/>
								</g>
							</g>
						</g>
					</g>
				</g>
			</g>
			<g>
				<g>
					<circle fill="#113E49" cx="25.106" cy="14.332" r="1.464"/>
					<path d="M26.57,14.332c0,0.811-0.656,1.465-1.465,1.465s-1.463-0.654-1.463-1.465"/>
					<g>
						<path fill="#F7C88F" d="M27.994,17.387c-0.078,0-0.158-0.029-0.219-0.092c-0.715-0.713-1.664-1.107-2.672-1.107h-0.002
							c-1.008,0-1.955,0.395-2.666,1.107c-0.121,0.121-0.316,0.123-0.436,0c-0.121-0.117-0.125-0.312-0.004-0.434
							c0.83-0.83,1.932-1.289,3.105-1.289h0.002c1.176,0,2.279,0.455,3.111,1.287c0.119,0.119,0.119,0.318,0,0.436
							C28.154,17.357,28.076,17.387,27.994,17.387z"/>
					</g>
				</g>
				<g>
					<circle fill="#113E49" cx="40.677" cy="14.332" r="1.464"/>
					<path d="M39.213,14.332c0,0.811,0.654,1.465,1.465,1.465c0.809,0,1.463-0.654,1.463-1.465"/>
					<g>
						<path fill="#F7C88F" d="M37.789,17.387c0.076,0,0.156-0.029,0.217-0.092c0.715-0.713,1.664-1.107,2.672-1.107h0.002
							c1.008,0,1.957,0.395,2.668,1.107c0.119,0.121,0.314,0.123,0.436,0c0.121-0.117,0.123-0.312,0.002-0.434
							c-0.826-0.83-1.932-1.289-3.105-1.289h-0.002c-1.174,0-2.277,0.455-3.111,1.287c-0.117,0.119-0.117,0.318,0,0.436
							C37.629,17.357,37.707,17.387,37.789,17.387z"/>
					</g>
				</g>
			</g>
		</g>
	</g>
	<path d="M18.684,8.773c2.413,0.674,5.182,1.059,8.129,1.059c5.191,0,9.83-1.191,12.938-3.064c2.012,1.213,4.673,2.133,7.704,2.636
		C44.74,4.344,39.244,0.5,32.893,0.5C26.806,0.5,21.504,4.029,18.684,8.773z"/>
	<path fill="#592F0E" d="M17.338,42.435c0.635,0.635,0.635,1.664,0,2.299l0,0c-0.634,0.634-1.662,0.634-2.297-0.001l-6.629-6.629
		c-0.635-0.635-0.635-1.663,0-2.298l0,0c0.634-0.634,1.662-0.635,2.297,0L17.338,42.435z"/>
	<path fill="#592F0E" d="M47.662,42.435c-0.635,0.635-0.635,1.664,0,2.299l0,0c0.634,0.634,1.662,0.634,2.297-0.001l6.629-6.629
		c0.635-0.635,0.635-1.663,0-2.298l0,0c-0.634-0.634-1.662-0.635-2.297,0L47.662,42.435z"/>
	<ellipse fill="#870E0E" cx="32.891" cy="21.27" rx="1" ry="4.062"/>
	<circle fill="#5E5D57" cx="17.751" cy="45.207" r="0.792"/>
	<circle fill="#5E5D57" cx="19.001" cy="45.207" r="0.792"/>
	<circle fill="#5E5D57" cx="20.251" cy="45.207" r="0.792"/>
	<circle fill="#5E5D57" cx="21.501" cy="45.207" r="0.792"/>
	<circle fill="#5E5D57" cx="22.751" cy="45.207" r="0.792"/>
	<circle fill="#5E5D57" cx="24.001" cy="45.207" r="0.792"/>
	<circle fill="#5E5D57" cx="25.251" cy="45.207" r="0.792"/>
	<circle fill="#5E5D57" cx="26.501" cy="45.207" r="0.792"/>
	<circle fill="#5E5D57" cx="27.751" cy="45.207" r="0.792"/>
	<circle fill="#5E5D57" cx="29.001" cy="45.207" r="0.792"/>
	<circle fill="#5E5D57" cx="30.251" cy="45.207" r="0.792"/>
	<circle fill="#5E5D57" cx="31.501" cy="45.207" r="0.792"/>
	<circle fill="#5E5D57" cx="32.751" cy="45.207" r="0.792"/>
	<circle fill="#5E5D57" cx="34.001" cy="45.207" r="0.792"/>
	<circle fill="#5E5D57" cx="35.251" cy="45.207" r="0.792"/>
	<circle fill="#5E5D57" cx="36.501" cy="45.207" r="0.792"/>
	<circle fill="#5E5D57" cx="37.751" cy="45.207" r="0.792"/>
	<circle fill="#5E5D57" cx="39.001" cy="45.207" r="0.792"/>
	<circle fill="#5E5D57" cx="40.251" cy="45.207" r="0.792"/>
	<circle fill="#5E5D57" cx="41.501" cy="45.207" r="0.792"/>
	<circle fill="#5E5D57" cx="42.751" cy="45.207" r="0.792"/>
	<circle fill="#5E5D57" cx="44.001" cy="45.207" r="0.792"/>
	<circle fill="#5E5D57" cx="45.251" cy="45.207" r="0.792"/>
	<circle fill="#5E5D57" cx="46.501" cy="45.207" r="0.792"/>
	<circle fill="#5E5D57" cx="47.751" cy="45.207" r="0.792"/>
</g>
</svg>
