<?xml version="1.0" encoding="utf-8"?>
<!-- Generator: Adobe Illustrator 16.0.0, SVG Export Plug-In . SVG Version: 6.00 Build 0)  -->
<!DOCTYPE svg PUBLIC "-//W3C//DTD SVG 1.1//EN" "http://www.w3.org/Graphics/SVG/1.1/DTD/svg11.dtd">
<svg version="1.1" id="Layer_1" xmlns="http://www.w3.org/2000/svg" xmlns:xlink="http://www.w3.org/1999/xlink" x="0px" y="0px"
	 width="64px" height="64px" viewBox="0 0 64 64" enable-background="new 0 0 64 64" xml:space="preserve">
<g>
	<g>
		<g>
			<path fill="#491E3C" d="M32,32.3c-6.5,0-12-18.6-14.2-30.4v42c0,3.2,2.6,5.8,5.8,5.8h16.7c3.2,0,5.8-2.6,5.8-5.8v-42
				C44,13.7,38.5,32.3,32,32.3z"/>
			<path fill="#FF6700" d="M32,30.5c-6.5,0-12-17.6-14.2-29.4v25C20,37.9,25.6,41.4,32,41.4c6.5,0,12-3.5,14.2-15.3V1
				C44,12.9,38.5,30.5,32,30.5z"/>
			<path fill="#CE391B" d="M32,30.5c-6.5,0-12-17.6-14.2-29.4v25C20,37.9,25.6,41.4,32,41.4c6.5,0,12-3.5,14.2-15.3V1
				C44,12.9,38.5,30.5,32,30.5z"/>
			<g>
				<path fill="#AA2A07" d="M32,37.1c-6.5,0-12-17.6-14.2-29.4v17.1C20,36.6,25.6,40.1,32,40.1c6.5,0,12-3.5,14.2-15.3V7.7
					C44,19.5,38.5,37.1,32,37.1z"/>
			</g>
			<path fill="#D85039" d="M32,30.5c-6.5,0-12-17.6-14.2-29.4v3.8C20,16.7,25.6,34.3,32,34.3c6.5,0,12-17.6,14.2-29.4V1
				C44,12.9,38.5,30.5,32,30.5z"/>
			<path fill="#E07055" d="M32,30.5c-6.5,0-12-17.6-14.2-29.4v1.6C20,14.5,25.6,32.1,32,32.1c6.5,0,12-17.6,14.2-29.4V1
				C44,12.9,38.5,30.5,32,30.5z"/>
			<path fill="#1E0313" d="M52,47.6c0,1.9-0.1,3.4-2,3.4H14.1c-1.9,0-2-1.5-2-3.4l0,0c0-1.9,1.5-4.9,3.4-4.9h33
				C50.4,42.7,52,45.7,52,47.6L52,47.6z"/>
			<path fill="#350D27" d="M15.5,43.3h33c1.9,0,3.4,2.9,3.4,4.8c0-0.2,0-0.4,0-0.6c0-1.9-1.5-4.9-3.4-4.9h-33c-1.9,0-3.4,3-3.4,4.9
				c0,0.2,0,0.4,0,0.6C12.1,46.3,13.6,43.3,15.5,43.3z"/>
			<path fill="#1E0313" d="M14.9,44.2c-3.3,0.3-4.2-6.4-4.9-10.6v15.3c0,1.2,0.9,2.1,2.1,2.1h2.8V44.2z"/>
			<path fill="#1E0313" d="M49.1,44.2c3.3,0.3,4.2-6.4,4.9-10.6v15.3c0,1.2-0.9,2.1-2.1,2.1h-2.8V44.2z"/>
			<path fill="#7A1805" d="M32,37c-4,0-7.4,0.2-9.4,0.4c0.3,0.4,0.7,0.7,1.1,1.1c2.1,0.2,5,2.3,8.4,2.3c3.3,0,6.3-2.2,8.4-2.3
				c0.4-0.3,0.7-0.7,1.1-1.1C39.4,37.2,36,37,32,37z"/>
			<path fill="#602551" d="M32,40.1c-6.5,0-12-3.5-14.2-15.3v1.3C20,37.9,25.6,41.8,32,41.8c6.5,0,12-3.8,14.2-15.7v-1.3
				C44,36.6,38.5,40.1,32,40.1z"/>
			<ellipse fill="#932106" cx="32" cy="37.8" rx="5.5" ry="0.4"/>
			<path fill="#1E0313" d="M32.1,34.1v-0.5c0,0.1,0,0.2,0,0.2c0-0.1,0-0.2,0-0.2L32.1,34.1c-0.8,4.2-1.8,10.5-4.9,10.1V51h2.8
				c1,0,1.9-0.7,2.1-1.7c0.2,1,1,1.7,2.1,1.7h2.8v-6.8C33.8,44.5,32.8,38.3,32.1,34.1z"/>
			<path fill="#602551" d="M10,33.6v1.8c0.8,4.2,1.7,10.9,4.9,10.6v-1.8C11.7,44.6,10.8,37.8,10,33.6z"/>
			<path fill="#602551" d="M49.1,44.2V46c3.3,0.3,4.2-6.4,4.9-10.6v-1.8C53.2,37.8,52.3,44.6,49.1,44.2z"/>
			<path fill="#491E3C" d="M32.1,34.1v-0.5c0,0.1,0,0.2,0,0.2c0-0.1,0-0.2,0-0.2L32.1,34.1c-0.8,4.2-1.8,10.5-4.9,10.1V46
				c3.1,0.3,4.1-5.9,4.8-10.1v-0.5c0,0.1,0,0.2,0,0.2c0-0.1,0-0.2,0-0.2v0.5c0.8,4.2,1.7,10.4,4.8,10.1v-1.8
				C33.8,44.5,32.8,38.3,32.1,34.1z"/>
		</g>
		<path fill="#1E0313" d="M51.1,51.4c0,0.3-0.3,0.6-0.6,0.6H13.6c-0.3,0-0.6-0.3-0.6-0.6l0,0c0-0.3-1.7-0.6-1.3-0.6h40.7
			C52.7,50.8,51.1,51.1,51.1,51.4L51.1,51.4z"/>
		<path fill="#1E0313" d="M23.5,62.2c0,0.2,0,0.5,0,0.7h17c0-0.2,0-0.5,0-0.7c0-5.7,3.7-10.2,6.1-10.2v-0.6c0-2-1.6-3.6-3.6-3.6
			H20.9c-2,0-3.6,1.6-3.6,3.6V52C19.8,52,23.5,56.6,23.5,62.2z"/>
	</g>
	<path opacity="0.2" fill="#602551" d="M45.7,20c0,3.7-6.2,9.9-13.7,9.9S18.3,23.7,18.3,20s6.2-9.1,13.7-9.1S45.7,16.3,45.7,20z"/>
	<path fill="#FF9700" d="M45.7,20c0,3.7-6.2,8.3-13.7,8.3S18.3,23.7,18.3,20s6.2-9.1,13.7-9.1S45.7,16.3,45.7,20z"/>
	<path fill="#FFBC00" d="M32,10.9c7.6,0,13.7,5.4,13.7,9.1"/>
	<path fill="#FFBC00" d="M18.3,20c0-3.7,6.2-9.1,13.7-9.1"/>
	<path fill="#FF7F00" d="M45.7,20c0,3.7-6.2,8.3-13.7,8.3S18.3,23.7,18.3,20"/>
	<path fill="#FF6700" d="M45.7,20c0,3.7-6.2,8.3-13.7,8.3"/>
	<path fill="#FF6700" d="M32,28.3c-7.6,0-13.7-4.6-13.7-8.3"/>
	<g>
		<path fill="#491E3C" d="M28,45.1c0,0.5-0.4,0.9-0.9,0.9H15.4c-0.5,0-0.9-0.4-0.9-0.9l0,0c0-0.5,0.4-0.9,0.9-0.9h11.7
			C27.6,44.2,28,44.6,28,45.1L28,45.1z"/>
		<path fill="#491E3C" d="M49.5,45.1c0,0.5-0.4,0.9-0.9,0.9H36.9c-0.5,0-0.9-0.4-0.9-0.9l0,0c0-0.5,0.4-0.9,0.9-0.9h11.7
			C49.1,44.2,49.5,44.6,49.5,45.1L49.5,45.1z"/>
	</g>
	<path fill="#491E3C" d="M43.7,52.1c0,0.1-0.1,0.2-0.2,0.2h-23c-0.1,0-0.2-0.1-0.2-0.2l0,0c0-0.1,0.1-0.2,0.2-0.2h23
		C43.6,51.9,43.7,52,43.7,52.1L43.7,52.1z"/>
	<path fill="#491E3C" d="M20.9,54.5c0.1,0.1,0.2,0.3,0.3,0.4h21.6c0.1-0.1,0.2-0.3,0.3-0.4H20.9z"/>
	<path fill="#491E3C" d="M22.4,57c0.1,0.1,0.1,0.3,0.2,0.4h18.9c0.1-0.1,0.1-0.3,0.2-0.4H22.4z"/>
	<path fill="#491E3C" d="M23.2,59.5c0,0.1,0.1,0.3,0.1,0.4h17.4c0-0.1,0.1-0.3,0.1-0.4H23.2z"/>
	<path fill="#491E3C" d="M40.5,62.5c0-0.1,0-0.2,0-0.2c0-0.1,0-0.1,0-0.2h-17c0,0.1,0,0.1,0,0.2c0,0.1,0,0.2,0,0.2H40.5z"/>
	<path fill="#FFE000" d="M34.3,19.6c0,3.7-1.6,7.7-2.3,7.7s-2.3-4-2.3-7.7c0-3.7,1.6-7.7,2.3-7.7S34.3,15.9,34.3,19.6z"/>
	<path fill="#FF9700" d="M29.7,20c0.1,3.6,1.6,7.3,2.3,7.3s2.2-3.7,2.3-7.3H29.7z"/>
	<ellipse fill="#491E3C" cx="32" cy="19.6" rx="1.3" ry="6.7"/>
	<path fill="#1E0313" d="M32,12.9c0.7,0,1.3,3,1.3,6.7c0,3.7-0.6,6.7-1.3,6.7"/>
	<circle fill="#997A92" cx="31.7" cy="14.2" r="0.3"/>
	<circle fill="#754167" cx="31.4" cy="15.2" r="0.1"/>
</g>
</svg>
