<?xml version="1.0" encoding="utf-8"?>
<!-- Generator: Adobe Illustrator 16.0.0, SVG Export Plug-In . SVG Version: 6.00 Build 0)  -->
<!DOCTYPE svg PUBLIC "-//W3C//DTD SVG 1.1//EN" "http://www.w3.org/Graphics/SVG/1.1/DTD/svg11.dtd">
<svg version="1.1" id="Layer_1" xmlns="http://www.w3.org/2000/svg" xmlns:xlink="http://www.w3.org/1999/xlink" x="0px" y="0px"
	 width="65px" height="65px" viewBox="0 0 65 65" enable-background="new 0 0 65 65" xml:space="preserve">
<g>
	<g>
		<g>
			<g>
				<g>
					<path fill="#E88F00" d="M33.32,30.862c-0.109,1.912-2.66,3.317-5.693,3.143c-3.031-0.179-17.868-2.603-17.76-4.515
						c0.115-1.913,15.137-2.588,18.168-2.409C31.065,27.257,33.432,28.95,33.32,30.862z"/>
				</g>
				<g>
					<path fill="#E88F00" d="M32.155,30.074c0.111-1.912,2.66-3.316,5.695-3.143c3.031,0.18,17.867,2.604,17.759,4.516
						c-0.115,1.912-15.137,2.588-18.168,2.408C34.41,33.68,32.043,31.986,32.155,30.074z"/>
				</g>
				<g>
					<path fill="#E57200" d="M29.863,46.446c0,2.476-2.008,15.827-4.486,15.827c-2.475,0-4.482-13.352-4.482-15.827
						s2.008-4.484,4.482-4.484C27.855,41.962,29.863,43.971,29.863,46.446z"/>
					<path fill="#E57200" d="M44.889,46.446c0,2.476-2.008,15.827-4.486,15.827c-2.475,0-4.482-13.352-4.482-15.827
						s2.008-4.484,4.482-4.484C42.881,41.962,44.889,43.971,44.889,46.446z"/>
				</g>
				<path fill="#E88F00" d="M45.541,40.521c0,16.038-5.662,10.697-12.65,10.697c-6.986,0-12.65,5.341-12.65-10.697
					c0-9.17,5.666-16.603,12.65-16.603C39.877,23.919,45.541,31.352,45.541,40.521z"/>
				<path fill="#3D3C39" d="M33.475,45.249c0,0.322-0.262,0.584-0.584,0.584l0,0c-0.322,0-0.584-0.262-0.584-0.584v-18.5
					c0-0.322,0.262-0.583,0.584-0.583l0,0c0.322,0,0.584,0.261,0.584,0.583V45.249z"/>
				<g>
					<path fill="#3D3C39" d="M30.424,62.354c0,1.896-2.26,2.146-5.045,2.146s-5.045-0.249-5.045-2.146
						c0-1.897,2.26-4.508,5.045-4.508S30.424,60.457,30.424,62.354z"/>
					<path fill="#1C1B1A" d="M30.424,62.354c0,1.896-2.26,2.146-5.045,2.146s-5.045-0.249-5.045-2.146"/>
				</g>
				<g>
					<path fill="#3D3C39" d="M45.449,62.354c0,1.896-2.26,2.146-5.045,2.146s-5.045-0.249-5.045-2.146
						c0-1.897,2.26-4.508,5.045-4.508S45.449,60.457,45.449,62.354z"/>
					<path fill="#1C1B1A" d="M45.449,62.354c0,1.896-2.26,2.146-5.045,2.146s-5.045-0.249-5.045-2.146"/>
				</g>
				<g>
					<path fill="#E88F00" d="M49.262,16.275c0,7.999-7.33,12.02-16.369,12.02c-9.041,0-16.373-4.021-16.373-12.02
						C16.52,8.274,23.852,0.5,32.893,0.5C41.932,0.5,49.262,8.274,49.262,16.275z"/>
					<path fill="#E57200" d="M49.262,16.275c0,7.999-7.33,12.02-16.369,12.02c-9.041,0-16.373-4.021-16.373-12.02"/>
					<path fill="#EFC286" d="M46.262,16.275c0,7.999-4.33,6.558-13.369,6.558c-9.041,0-13.373,1.441-13.373-6.558
						c0-8.001,4.332-9.192,13.373-9.192C41.932,7.083,46.262,8.274,46.262,16.275z"/>
					<path fill="#E5AE73" d="M32.893,22.833c9.039,0,13.369,1.441,13.369-6.558H19.52C19.52,24.274,23.852,22.833,32.893,22.833z"/>
				</g>
				<g>
					<g>
						<circle fill="#113E49" cx="25.106" cy="16.893" r="1.464"/>
						<path d="M26.57,16.893c0,0.811-0.656,1.465-1.465,1.465s-1.463-0.654-1.463-1.465"/>
						<g>
							<path fill="#FFD3C5" d="M27.994,19.946c-0.078,0-0.158-0.027-0.219-0.091c-0.715-0.714-1.664-1.107-2.672-1.107h-0.002
								c-1.008,0-1.955,0.394-2.666,1.106c-0.121,0.121-0.316,0.124-0.436,0.001c-0.121-0.117-0.125-0.312-0.004-0.434
								c0.83-0.831,1.932-1.29,3.105-1.29h0.002c1.176,0,2.279,0.456,3.111,1.288c0.119,0.119,0.119,0.318,0,0.436
								C28.154,19.919,28.076,19.946,27.994,19.946z"/>
						</g>
					</g>
					<g>
						<circle fill="#113E49" cx="40.677" cy="16.893" r="1.464"/>
						<path d="M39.213,16.893c0,0.811,0.654,1.465,1.465,1.465c0.809,0,1.463-0.654,1.463-1.465"/>
						<g>
							<path fill="#FFD3C5" d="M37.789,19.946c0.076,0,0.156-0.027,0.217-0.091c0.715-0.714,1.664-1.107,2.672-1.107h0.002
								c1.008,0,1.957,0.394,2.668,1.106c0.119,0.121,0.314,0.124,0.436,0.001c0.121-0.117,0.123-0.312,0.002-0.434
								c-0.826-0.831-1.932-1.29-3.105-1.29h-0.002c-1.174,0-2.277,0.456-3.111,1.288c-0.117,0.119-0.117,0.318,0,0.436
								C37.629,19.919,37.707,19.946,37.789,19.946z"/>
						</g>
					</g>
				</g>
			</g>
		</g>
	</g>
	<g>
		<path fill="#592D08" d="M19.768,13.386c2.436-0.404,5.364-1.236,8.426-2.466c2.869-1.153,5.412-2.478,7.398-3.786
			c-0.852-0.033-1.743-0.051-2.699-0.051C25.081,7.083,20.792,7.982,19.768,13.386z"/>
		<path fill="#723B0A" d="M30.189,7.134c1.986,1.309,4.529,2.633,7.398,3.786c3.062,1.229,5.99,2.062,8.426,2.466
			c-1.023-5.403-5.311-6.303-13.121-6.303C31.936,7.083,31.042,7.101,30.189,7.134z"/>
	</g>
	<path fill="#592D08" d="M12.875,29.833c0,1.104-0.896,2-2,2H9.25c-1.104,0-2-0.896-2-2v-1.625c0-1.104,0.896-2,2-2h1.625
		c1.104,0,2,0.896,2,2V29.833z"/>
	<path fill="#592D08" d="M57.75,32.208c0,1.104-0.896,2-2,2h-1.625c-1.105,0-2-0.896-2-2v-1.625c0-1.104,0.895-2,2-2h1.625
		c1.104,0,2,0.896,2,2V32.208z"/>
	<path fill="#3D3C39" d="M32.489,28.509c0.081,0.082,0.081,0.214,0.002,0.295l-2.77,2.77c-0.082,0.081-0.215,0.081-0.295,0l0,0
		c-0.082-0.082-0.082-0.214,0-0.295l2.77-2.77C32.277,28.428,32.409,28.428,32.489,28.509L32.489,28.509z"/>
	<path fill="#3D3C39" d="M32.741,29.759c-0.082,0.082-0.082,0.214-0.002,0.295l2.77,2.77c0.082,0.081,0.215,0.081,0.294,0l0,0
		c0.083-0.082,0.083-0.214,0-0.295l-2.77-2.77C32.953,29.678,32.82,29.678,32.741,29.759L32.741,29.759z"/>
</g>
</svg>
