<?xml version="1.0" encoding="utf-8"?>
<!-- Generator: Adobe Illustrator 16.0.0, SVG Export Plug-In . SVG Version: 6.00 Build 0)  -->
<!DOCTYPE svg PUBLIC "-//W3C//DTD SVG 1.1//EN" "http://www.w3.org/Graphics/SVG/1.1/DTD/svg11.dtd">
<svg version="1.1" id="Layer_1" xmlns="http://www.w3.org/2000/svg" xmlns:xlink="http://www.w3.org/1999/xlink" x="0px" y="0px"
	 width="64px" height="64px" viewBox="0 0 64 64" enable-background="new 0 0 64 64" xml:space="preserve">
<g>
	<g>
		<rect x="8.4" y="52.4" fill="#563320" width="47.6" height="9.1"/>
		<rect x="20.5" y="52.4" fill="#664027" width="23.3" height="9.1"/>
		<polygon fill="#8E5732" points="55.7,52.1 8.3,52.1 14.9,22.9 49.1,22.9 		"/>
		<polygon fill="#8E5732" points="55.7,52.1 8.3,52.1 14.9,22.9 49.1,22.9 		"/>
		<polyline fill="#774422" points="14.9,22.9 49.1,22.9 55.7,52.1 		"/>
		<polygon fill="#A56D44" points="43.4,52.1 20.6,52.1 23.8,22.9 40.2,22.9 		"/>
		<polyline fill="#99643F" points="40.2,22.9 43.4,52.1 20.6,52.1 		"/>
		<polygon fill="#8E5732" points="42.4,42.6 40.2,22.9 23.8,22.9 23.1,28.8 		"/>
		<g>
			<polygon fill="#6D3E1F" points="13.4,29.6 50.6,29.6 50.5,29 13.5,29 			"/>
			<polygon fill="#6D3E1F" points="12.9,31.9 51.1,31.9 51,31.3 13,31.3 			"/>
			<polygon fill="#6D3E1F" points="12.3,34.2 51.7,34.2 51.5,33.6 12.5,33.6 			"/>
			<polygon fill="#6D3E1F" points="11.8,36.5 52.2,36.5 52.1,35.9 11.9,35.9 			"/>
			<polygon fill="#6D3E1F" points="11.3,38.8 52.7,38.8 52.6,38.3 11.4,38.3 			"/>
			<polygon fill="#6D3E1F" points="10.8,41.1 53.2,41.1 53.1,40.6 10.9,40.6 			"/>
			<polygon fill="#6D3E1F" points="10.2,43.4 53.8,43.4 53.6,42.9 10.4,42.9 			"/>
			<polygon fill="#6D3E1F" points="9.7,45.7 54.3,45.7 54.2,45.2 9.8,45.2 			"/>
			<polygon fill="#6D3E1F" points="9.2,48 54.8,48 54.7,47.5 9.3,47.5 			"/>
			<polygon fill="#6D3E1F" points="8.7,50.3 55.3,50.3 55.2,49.8 8.8,49.8 			"/>
		</g>
		<path fill="#3193C9" d="M49.6,25.1C48.4,16.4,41,6.5,32,6.5c-9,0-16.4,9.9-17.6,18.6H49.6z"/>
		<path fill="#1874B2" d="M49.6,25.1C48.4,16.4,41,6.5,32,6.5"/>
		<path fill="#56B7D1" d="M32,6.5c-9,0-16.4,9.9-17.6,18.6H32V6.5z"/>
		<path fill="#68D1EA" d="M32,6.5c-9,0-16.4,9.9-17.6,18.6"/>
		<path fill="#5B6363" d="M50.3,24.9c0,0.3-0.2,0.5-0.5,0.5H14.2c-0.3,0-0.5-0.2-0.5-0.5l0,0c0-0.3,0.2-0.5,0.5-0.5h35.7
			C50.1,24.4,50.3,24.6,50.3,24.9L50.3,24.9z"/>
		<path fill="#774422" d="M56.8,52.4c0,0.3-0.2,0.5-0.5,0.5H7.7c-0.3,0-0.5-0.2-0.5-0.5l0,0c0-0.3,0.2-0.5,0.5-0.5h48.6
			C56.6,51.9,56.8,52.1,56.8,52.4L56.8,52.4z"/>
		<g>
			<g>
				<g>
					<g>
						<path fill="#E2E0D3" d="M41.4,25.6c-0.2,0.2-0.6,0.2-0.8,0l-4.5-4.5c-0.2-0.2-0.2-0.6,0-0.8L50.6,5.9c0.2-0.2,0.6-0.2,0.8,0
							l4.5,4.5c0.2,0.2,0.2,0.6,0,0.8L41.4,25.6z"/>
						<path fill="#D1CEBF" d="M36.1,21.1c-0.2-0.2-0.2-0.6,0-0.8L50.6,5.9c0.2-0.2,0.6-0.2,0.8,0l4.5,4.5c0.2,0.2,0.2,0.6,0,0.8"/>
						<g>
							<path fill="#A5A092" d="M53.8,11.7c-0.1,0.1-0.2,0.1-0.2,0l-3.6-3.6C50,8,50,7.9,50.1,7.9l0,0c0.1-0.1,0.2-0.1,0.2,0l3.6,3.6
								C53.9,11.5,53.9,11.6,53.8,11.7L53.8,11.7z"/>
							<path fill="#BAB5A8" d="M52.1,13.4c-0.1,0.1-0.2,0.1-0.2,0l-3.6-3.6c-0.1-0.1-0.1-0.2,0-0.2l0,0c0.1-0.1,0.2-0.1,0.2,0
								l3.6,3.6C52.2,13.2,52.2,13.3,52.1,13.4L52.1,13.4z"/>
							<path fill="#A5A092" d="M50.4,15.1c-0.1,0.1-0.2,0.1-0.2,0l-3.6-3.6c-0.1-0.1-0.1-0.2,0-0.2l0,0c0.1-0.1,0.2-0.1,0.2,0
								l3.6,3.6C50.5,14.9,50.5,15,50.4,15.1L50.4,15.1z"/>
							<path fill="#BAB5A8" d="M48.7,16.8c-0.1,0.1-0.2,0.1-0.2,0l-3.6-3.6c-0.1-0.1-0.1-0.2,0-0.2l0,0c0.1-0.1,0.2-0.1,0.2,0
								l3.6,3.6C48.8,16.6,48.8,16.7,48.7,16.8L48.7,16.8z"/>
							<path fill="#A5A092" d="M47,18.5c-0.1,0.1-0.2,0.1-0.2,0l-3.6-3.6c-0.1-0.1-0.1-0.2,0-0.2l0,0c0.1-0.1,0.2-0.1,0.2,0l3.6,3.6
								C47.1,18.3,47.1,18.4,47,18.5L47,18.5z"/>
							<path fill="#BAB5A8" d="M45.3,20.2c-0.1,0.1-0.2,0.1-0.2,0l-3.6-3.6c-0.1-0.1-0.1-0.2,0-0.2l0,0c0.1-0.1,0.2-0.1,0.2,0
								l3.6,3.6C45.4,20.1,45.4,20.1,45.3,20.2L45.3,20.2z"/>
							<path fill="#A5A092" d="M43.6,21.9c-0.1,0.1-0.2,0.1-0.2,0l-3.6-3.6c-0.1-0.1-0.1-0.2,0-0.2l0,0c0.1-0.1,0.2-0.1,0.2,0
								l3.6,3.6C43.7,21.8,43.7,21.9,43.6,21.9L43.6,21.9z"/>
							<path fill="#BAB5A8" d="M41.9,23.6c-0.1,0.1-0.2,0.1-0.2,0L38.1,20c-0.1-0.1-0.1-0.2,0-0.2l0,0c0.1-0.1,0.2-0.1,0.2,0
								l3.6,3.6C42,23.5,42,23.6,41.9,23.6L41.9,23.6z"/>
						</g>
					</g>
					<path fill="#272B2B" d="M33.4,23.9c-0.2,0.2-0.5,0.2-0.7,0l0,0c-0.2-0.2-0.2-0.5,0-0.7L51.9,4c0.2-0.2,0.5-0.2,0.7,0l0,0
						c0.2,0.2,0.2,0.5,0,0.7L33.4,23.9z"/>
					<circle fill="#272B2B" cx="52.8" cy="3.8" r="0.8"/>
				</g>
				<g>
					<g>
						<path fill="#E2E0D3" d="M22.6,23.6c0.2-0.2,0.6-0.2,0.8,0l4.5,4.5c0.2,0.2,0.2,0.6,0,0.8L13.4,43.4c-0.2,0.2-0.6,0.2-0.8,0
							l-4.5-4.5c-0.2-0.2-0.2-0.6,0-0.8L22.6,23.6z"/>
						<path fill="#D1CEBF" d="M27.9,28.1c0.2,0.2,0.2,0.6,0,0.8L13.4,43.4c-0.2,0.2-0.6,0.2-0.8,0l-4.5-4.5c-0.2-0.2-0.2-0.6,0-0.8"
							/>
						<g>
							<path fill="#A5A092" d="M10.2,37.6c0.1-0.1,0.2-0.1,0.2,0l3.6,3.6c0.1,0.1,0.1,0.2,0,0.2l0,0c-0.1,0.1-0.2,0.1-0.2,0
								l-3.6-3.6C10.1,37.7,10.1,37.6,10.2,37.6L10.2,37.6z"/>
							<path fill="#BAB5A8" d="M11.9,35.9c0.1-0.1,0.2-0.1,0.2,0l3.6,3.6c0.1,0.1,0.1,0.2,0,0.2l0,0c-0.1,0.1-0.2,0.1-0.2,0
								l-3.6-3.6C11.8,36,11.8,35.9,11.9,35.9L11.9,35.9z"/>
							<path fill="#A5A092" d="M13.6,34.1c0.1-0.1,0.2-0.1,0.2,0l3.6,3.6c0.1,0.1,0.1,0.2,0,0.2l0,0c-0.1,0.1-0.2,0.1-0.2,0
								l-3.6-3.6C13.5,34.3,13.5,34.2,13.6,34.1L13.6,34.1z"/>
							<path fill="#BAB5A8" d="M15.3,32.4c0.1-0.1,0.2-0.1,0.2,0l3.6,3.6c0.1,0.1,0.1,0.2,0,0.2l0,0c-0.1,0.1-0.2,0.1-0.2,0
								l-3.6-3.6C15.2,32.6,15.2,32.5,15.3,32.4L15.3,32.4z"/>
							<path fill="#A5A092" d="M17,30.7c0.1-0.1,0.2-0.1,0.2,0l3.6,3.6c0.1,0.1,0.1,0.2,0,0.2l0,0c-0.1,0.1-0.2,0.1-0.2,0L17,30.9
								C16.9,30.9,16.9,30.8,17,30.7L17,30.7z"/>
							<path fill="#BAB5A8" d="M18.7,29c0.1-0.1,0.2-0.1,0.2,0l3.6,3.6c0.1,0.1,0.1,0.2,0,0.2l0,0c-0.1,0.1-0.2,0.1-0.2,0l-3.6-3.6
								C18.6,29.2,18.6,29.1,18.7,29L18.7,29z"/>
							<path fill="#A5A092" d="M20.4,27.3c0.1-0.1,0.2-0.1,0.2,0l3.6,3.6c0.1,0.1,0.1,0.2,0,0.2l0,0c-0.1,0.1-0.2,0.1-0.2,0
								l-3.6-3.6C20.3,27.5,20.3,27.4,20.4,27.3L20.4,27.3z"/>
							<path fill="#BAB5A8" d="M22.1,25.6c0.1-0.1,0.2-0.1,0.2,0l3.6,3.6c0.1,0.1,0.1,0.2,0,0.2l0,0c-0.1,0.1-0.2,0.1-0.2,0
								l-3.6-3.6C22,25.8,22,25.7,22.1,25.6L22.1,25.6z"/>
						</g>
					</g>
					<path fill="#272B2B" d="M30.6,25.4c0.2-0.2,0.5-0.2,0.7,0l0,0c0.2,0.2,0.2,0.5,0,0.7L12.1,45.2c-0.2,0.2-0.5,0.2-0.7,0l0,0
						c-0.2-0.2-0.2-0.5,0-0.7L30.6,25.4z"/>
					<circle fill="#272B2B" cx="11.2" cy="45.4" r="0.8"/>
				</g>
			</g>
			<g>
				<g>
					<g>
						<path fill="#E2E0D3" d="M31,34c-0.2-0.2-0.2-0.6,0-0.8l4.5-4.5c0.2-0.2,0.6-0.2,0.8,0l14.5,14.5c0.2,0.2,0.2,0.6,0,0.8
							l-4.5,4.5c-0.2,0.2-0.6,0.2-0.8,0L31,34z"/>
						<path fill="#D1CEBF" d="M35.5,28.7c0.2-0.2,0.6-0.2,0.8,0l14.5,14.5c0.2,0.2,0.2,0.6,0,0.8l-4.5,4.5c-0.2,0.2-0.6,0.2-0.8,0"
							/>
						<g>
							<path fill="#A5A092" d="M44.9,46.5c-0.1-0.1-0.1-0.2,0-0.2l3.6-3.6c0.1-0.1,0.2-0.1,0.2,0l0,0c0.1,0.1,0.1,0.2,0,0.2
								l-3.6,3.6C45.1,46.5,45,46.5,44.9,46.5L44.9,46.5z"/>
							<path fill="#BAB5A8" d="M43.2,44.8c-0.1-0.1-0.1-0.2,0-0.2l3.6-3.6c0.1-0.1,0.2-0.1,0.2,0l0,0c0.1,0.1,0.1,0.2,0,0.2
								l-3.6,3.6C43.4,44.8,43.3,44.8,43.2,44.8L43.2,44.8z"/>
							<path fill="#A5A092" d="M41.5,43.1c-0.1-0.1-0.1-0.2,0-0.2l3.6-3.6c0.1-0.1,0.2-0.1,0.2,0l0,0c0.1,0.1,0.1,0.2,0,0.2
								l-3.6,3.6C41.7,43.1,41.6,43.1,41.5,43.1L41.5,43.1z"/>
							<path fill="#BAB5A8" d="M39.8,41.4c-0.1-0.1-0.1-0.2,0-0.2l3.6-3.6c0.1-0.1,0.2-0.1,0.2,0l0,0c0.1,0.1,0.1,0.2,0,0.2L40,41.4
								C40,41.4,39.9,41.4,39.8,41.4L39.8,41.4z"/>
							<path fill="#A5A092" d="M38.1,39.6c-0.1-0.1-0.1-0.2,0-0.2l3.6-3.6c0.1-0.1,0.2-0.1,0.2,0l0,0c0.1,0.1,0.1,0.2,0,0.2
								l-3.6,3.6C38.3,39.7,38.2,39.7,38.1,39.6L38.1,39.6z"/>
							<path fill="#BAB5A8" d="M36.4,37.9c-0.1-0.1-0.1-0.2,0-0.2l3.6-3.6c0.1-0.1,0.2-0.1,0.2,0l0,0c0.1,0.1,0.1,0.2,0,0.2
								l-3.6,3.6C36.6,38,36.5,38,36.4,37.9L36.4,37.9z"/>
							<path fill="#A5A092" d="M34.7,36.2c-0.1-0.1-0.1-0.2,0-0.2l3.6-3.6c0.1-0.1,0.2-0.1,0.2,0l0,0c0.1,0.1,0.1,0.2,0,0.2
								l-3.6,3.6C34.9,36.3,34.8,36.3,34.7,36.2L34.7,36.2z"/>
							<path fill="#BAB5A8" d="M33,34.5c-0.1-0.1-0.1-0.2,0-0.2l3.6-3.6c0.1-0.1,0.2-0.1,0.2,0l0,0c0.1,0.1,0.1,0.2,0,0.2l-3.6,3.6
								C33.2,34.6,33.1,34.6,33,34.5L33,34.5z"/>
						</g>
					</g>
					<path fill="#272B2B" d="M32.8,26.1c-0.2-0.2-0.2-0.5,0-0.7l0,0c0.2-0.2,0.5-0.2,0.7,0l19.2,19.2c0.2,0.2,0.2,0.5,0,0.7l0,0
						c-0.2,0.2-0.5,0.2-0.7,0L32.8,26.1z"/>
					<circle fill="#272B2B" cx="52.8" cy="45.4" r="0.8"/>
				</g>
				<g>
					<g>
						<path fill="#E2E0D3" d="M33,15.2c0.2,0.2,0.2,0.6,0,0.8l-4.5,4.5c-0.2,0.2-0.6,0.2-0.8,0L13.3,6.1c-0.2-0.2-0.2-0.6,0-0.8
							l4.5-4.5c0.2-0.2,0.6-0.2,0.8,0L33,15.2z"/>
						<path fill="#D1CEBF" d="M28.5,20.5c-0.2,0.2-0.6,0.2-0.8,0L13.3,6.1c-0.2-0.2-0.2-0.6,0-0.8l4.5-4.5c0.2-0.2,0.6-0.2,0.8,0"/>
						<g>
							<path fill="#A5A092" d="M19.1,2.8c0.1,0.1,0.1,0.2,0,0.2l-3.6,3.6c-0.1,0.1-0.2,0.1-0.2,0l0,0c-0.1-0.1-0.1-0.2,0-0.2
								l3.6-3.6C18.9,2.7,19,2.7,19.1,2.8L19.1,2.8z"/>
							<path fill="#BAB5A8" d="M20.8,4.5c0.1,0.1,0.1,0.2,0,0.2l-3.6,3.6c-0.1,0.1-0.2,0.1-0.2,0l0,0c-0.1-0.1-0.1-0.2,0-0.2
								l3.6-3.6C20.6,4.4,20.7,4.4,20.8,4.5L20.8,4.5z"/>
							<path fill="#A5A092" d="M22.5,6.2c0.1,0.1,0.1,0.2,0,0.2L18.9,10c-0.1,0.1-0.2,0.1-0.2,0l0,0c-0.1-0.1-0.1-0.2,0-0.2l3.6-3.6
								C22.3,6.1,22.4,6.1,22.5,6.2L22.5,6.2z"/>
							<path fill="#BAB5A8" d="M24.2,7.9c0.1,0.1,0.1,0.2,0,0.2l-3.6,3.6c-0.1,0.1-0.2,0.1-0.2,0l0,0c-0.1-0.1-0.1-0.2,0-0.2L24,7.9
								C24,7.8,24.1,7.8,24.2,7.9L24.2,7.9z"/>
							<path fill="#A5A092" d="M25.9,9.6c0.1,0.1,0.1,0.2,0,0.2l-3.6,3.6c-0.1,0.1-0.2,0.1-0.2,0l0,0c-0.1-0.1-0.1-0.2,0-0.2
								l3.6-3.6C25.7,9.5,25.8,9.5,25.9,9.6L25.9,9.6z"/>
							<path fill="#BAB5A8" d="M27.6,11.3c0.1,0.1,0.1,0.2,0,0.2L24,15.1c-0.1,0.1-0.2,0.1-0.2,0l0,0c-0.1-0.1-0.1-0.2,0-0.2
								l3.6-3.6C27.4,11.2,27.5,11.2,27.6,11.3L27.6,11.3z"/>
							<path fill="#A5A092" d="M29.3,13c0.1,0.1,0.1,0.2,0,0.2l-3.6,3.6c-0.1,0.1-0.2,0.1-0.2,0l0,0c-0.1-0.1-0.1-0.2,0-0.2l3.6-3.6
								C29.1,12.9,29.2,12.9,29.3,13L29.3,13z"/>
							<path fill="#BAB5A8" d="M31,14.7c0.1,0.1,0.1,0.2,0,0.2l-3.6,3.6c-0.1,0.1-0.2,0.1-0.2,0l0,0c-0.1-0.1-0.1-0.2,0-0.2l3.6-3.6
								C30.8,14.6,30.9,14.6,31,14.7L31,14.7z"/>
						</g>
					</g>
					<path fill="#272B2B" d="M31.2,23.2c0.2,0.2,0.2,0.5,0,0.7l0,0c-0.2,0.2-0.5,0.2-0.7,0L11.4,4.7c-0.2-0.2-0.2-0.5,0-0.7l0,0
						c0.2-0.2,0.5-0.2,0.7,0L31.2,23.2z"/>
					<circle fill="#272B2B" cx="11.2" cy="3.8" r="0.8"/>
				</g>
			</g>
		</g>
		<circle fill="#272B2B" cx="32" cy="24.6" r="2.3"/>
		<path fill="#3D271D" d="M26.7,55.4h-2.8c-0.5,0-1,0.4-1,1v5.1h4.8v-5.1C27.7,55.9,27.2,55.4,26.7,55.4z"/>
		<g>
			<rect x="24" y="35.8" fill="#779696" width="4.2" height="5.6"/>
			<polyline fill="#638483" points="28.2,35.8 28.2,41.4 24,41.4 			"/>
			<path fill="#C1B287" d="M28.5,41.7h-4.7v-6.2h4.7V41.7z M24.3,41.2h3.6v-5.1h-3.6V41.2z"/>
		</g>
		<g>
			<rect x="35.4" y="44.9" fill="#779696" width="4.2" height="5.6"/>
			<polyline fill="#638483" points="39.5,44.9 39.5,50.6 35.4,50.6 			"/>
			<path fill="#C1B287" d="M39.8,50.8h-4.7v-6.2h4.7V50.8z M35.6,50.3h3.6v-5.1h-3.6V50.3z"/>
		</g>
	</g>
	<path fill="#638483" d="M59,62.5c0,0.5-0.4,0.9-0.9,0.9H5.9C5.4,63.4,5,63,5,62.5l0,0c0-0.5,0.4-0.9,0.9-0.9h52.1
		C58.6,61.5,59,62,59,62.5L59,62.5z"/>
</g>
</svg>
