<?xml version="1.0" encoding="utf-8"?>
<!-- Generator: Adobe Illustrator 16.0.0, SVG Export Plug-In . SVG Version: 6.00 Build 0)  -->
<!DOCTYPE svg PUBLIC "-//W3C//DTD SVG 1.1//EN" "http://www.w3.org/Graphics/SVG/1.1/DTD/svg11.dtd">
<svg version="1.1" id="Layer_1" xmlns="http://www.w3.org/2000/svg" xmlns:xlink="http://www.w3.org/1999/xlink" x="0px" y="0px"
	 width="64px" height="64px" viewBox="0 0 64 64" enable-background="new 0 0 64 64" xml:space="preserve">
<g>
	<g>
		<g>
			<polygon fill="#4BF9F4" points="58,47.2 32,62.5 6,47.2 6,16.8 32,1.5 58,16.8 			"/>
			<polyline fill="#2DCBE0" points="58.4,47.2 32,62.5 5.6,47.2 			"/>
			<polyline fill="#B3FFFB" points="6,47 6,16.8 32.2,1.5 58.7,16.7 			"/>
			<path fill="#2F5068" d="M32,63.5c-0.2,0-0.3,0-0.5-0.1L5.3,48.1C5,47.9,5,47.6,5,47.2V16.8c0-0.4,0-0.7,0.3-0.9L31.6,0.7
				c0.3-0.2,0.6-0.2,1,0l26.2,15.2c0.3,0.2,0.3,0.5,0.3,0.9v30.5c0,0.4,0,0.7-0.3,0.9L32.4,63.3C32.3,63.4,32.2,63.5,32,63.5z
				 M7,46.7l25,14.7l25-14.7V17.3L32,2.7L7,17.3V46.7z"/>
		</g>
		<g>
			<polygon fill="#FFB6D0" points="32,2.5 5.8,47 58.2,47 			"/>
			<polygon fill="#EA789B" points="32,2.5 17.5,47 58.2,47 			"/>
			<path fill="#2F5068" d="M57.8,48H6.5c-0.4,0-1-0.2-1.2-0.5c-0.2-0.3-0.1-1.2,0-1.5L31.1,2c0.4-0.6,1.4-0.6,1.7,0l25.9,44
				c0.2,0.3,0.1,1.2-0.1,1.5C58.5,47.9,58.2,48,57.8,48z M7.6,46h48.9L32,4.4L7.6,46z"/>
		</g>
		<g>
			<polygon fill="#4BF9F4" points="45,39.7 32,47.1 19,39.7 19,24.9 32,17.5 45,24.9 			"/>
			<polyline fill="#2DCBE0" points="45,25 45,39.7 32.2,47.1 			"/>
			<polyline fill="#B3FFFB" points="19,40 19,24.9 31.8,17.7 			"/>
			<path fill="#2F5068" d="M32,48.1c-0.2,0-0.3,0-0.5-0.1l-12.9-7.4C18.3,40.4,18,40,18,39.7V24.9c0-0.4,0.3-0.7,0.6-0.9l12.9-7.4
				c0.3-0.2,0.7-0.2,1,0L45.4,24c0.3,0.2,0.6,0.5,0.6,0.9v14.8c0,0.4-0.3,0.7-0.6,0.9l-12.9,7.4C32.4,48,32.2,48.1,32,48.1z
				 M20,39.1l12,6.8l12-6.8V25.5l-12-6.8l-12,6.8V39.1z"/>
		</g>
		<g>
			<circle fill="#FFB6D0" cx="32" cy="32.3" r="6.9"/>
			<path fill="#EA789B" d="M32,25.4c3.8,0,6.9,3.1,6.9,6.9c0,3.8-3.1,6.9-6.9,6.9"/>
			<path fill="#2F5068" d="M32,40.2c-4.4,0-7.9-3.6-7.9-7.9s3.6-7.9,7.9-7.9s7.9,3.6,7.9,7.9S36.4,40.2,32,40.2z M32,26.4
				c-3.3,0-5.9,2.7-5.9,5.9c0,3.3,2.7,5.9,5.9,5.9s5.9-2.7,5.9-5.9C37.9,29,35.3,26.4,32,26.4z"/>
		</g>
		<g>
			<path fill="#2F5068" d="M32,32.9c-0.2,0-0.3,0-0.5-0.1l-26-15c-0.5-0.3-0.5-1-0.2-1.5C5.6,15.9,6,15.8,6.4,16L32,30.8l25.4-14.7
				c0.5-0.3,1.2-0.2,1.4,0.3c0.3,0.5,0.1,1.2-0.4,1.4l-26,15C32.3,32.9,32.2,32.9,32,32.9z"/>
		</g>
	</g>
	<g>
		<line fill="#76E83A" x1="32" y1="32" x2="32" y2="62"/>
		<path fill="#2F5068" d="M32,62.7c-0.6,0-1-0.4-1-1V31.8c0-0.6,0.4-1,1-1s1,0.4,1,1v29.9C33,62.2,32.6,62.7,32,62.7z"/>
	</g>
</g>
</svg>
