<?xml version="1.0" encoding="utf-8"?>
<!-- Generator: Adobe Illustrator 16.0.0, SVG Export Plug-In . SVG Version: 6.00 Build 0)  -->
<!DOCTYPE svg PUBLIC "-//W3C//DTD SVG 1.1//EN" "http://www.w3.org/Graphics/SVG/1.1/DTD/svg11.dtd">
<svg version="1.1" id="Layer_1" xmlns="http://www.w3.org/2000/svg" xmlns:xlink="http://www.w3.org/1999/xlink" x="0px" y="0px"
	 width="64px" height="64px" viewBox="0 0 64 64" enable-background="new 0 0 64 64" xml:space="preserve">
<g>
	<path fill="#FF7C76" d="M53.3,24.7c0,0.3-0.2,0.4-0.3,0.4l-2.4-0.3c-0.1,0-0.2-0.2-0.2-0.5l0,0c0-0.3,0.2-0.4,0.3-0.4l2.4,0.3
		C53.3,24.2,53.4,24.4,53.3,24.7L53.3,24.7z"/>
	<g>
		<g>
			<g>
				<circle fill="#E88705" cx="19.1" cy="21.2" r="5.5"/>
				<circle fill="#E88705" cx="25.6" cy="18.7" r="5.5"/>
			</g>
			<g>
				<circle fill="#E88705" cx="44.9" cy="21.2" r="5.5"/>
				<circle fill="#E88705" cx="38.4" cy="18.7" r="5.5"/>
			</g>
		</g>
		<g>
			<g>
				<polygon fill="#69CFE0" points="45.9,62 18.1,62 6.7,37 57.3,37 				"/>
				<polyline fill="#1AB0D3" points="7,37 57.3,37 46.1,61.6 				"/>
				<polygon fill="#EA7D9F" points="41.5,62 22.5,62 14.7,37 49.3,37 				"/>
				<polyline fill="#D65483" points="15,37 49.3,37 41.7,61.6 				"/>
			</g>
			<path fill="#69CFE0" d="M47.6,62.5c0,0.4-0.4,0.5-0.9,0.5H17.3c-0.5,0-0.9-0.1-0.9-0.5l0,0c0-0.4,0.4-0.5,0.9-0.5h29.5
				C47.2,62,47.6,62.1,47.6,62.5L47.6,62.5z"/>
		</g>
		<path fill="#E88705" d="M58.8,29c0,5.3-0.3,10-5.7,10H10.9c-5.3,0-5.7-4.7-5.7-10l0,0c0-5.4,4.3-10,9.7-10h34.1
			C54.4,19,58.8,23.6,58.8,29L58.8,29z"/>
		<path fill="#BF660D" d="M58.8,29.2L58.8,29.2c0,5.3-0.3,9.8-5.7,9.8H10.9c-5.3,0-5.7-4.4-5.7-9.7l0,0"/>
		<path fill="#F7E98B" d="M23.8,27c0.1,0.2,0,0.5-0.2,0.6l-4,1.8c-0.2,0.1-0.5,0-0.6-0.2l0,0c-0.1-0.2,0-0.5,0.2-0.6l4-1.8
			C23.5,26.7,23.7,26.8,23.8,27L23.8,27z"/>
		<path fill="#91EDEA" d="M49.5,31.9c-0.1,0.2-0.4,0.4-0.6,0.3l-4.1-1.5c-0.2-0.1-0.4-0.4-0.3-0.6l0,0c0.1-0.2,0.4-0.4,0.6-0.3
			l4.1,1.5C49.4,31.4,49.6,31.7,49.5,31.9L49.5,31.9z"/>
		<path fill="#F7E98B" d="M14.4,31.9c0,0.3-0.2,0.4-0.3,0.4L11.6,32c-0.1,0-0.2-0.2-0.2-0.5l0,0c0-0.3,0.2-0.5,0.3-0.4l2.4,0.3
			C14.3,31.5,14.4,31.7,14.4,31.9L14.4,31.9z"/>
		<path fill="#F7E98B" d="M39.6,31.8c0,0.3-0.2,0.4-0.3,0.4l-2.4-0.3c-0.1,0-0.2-0.2-0.2-0.5l0,0c0-0.3,0.2-0.4,0.3-0.4l2.4,0.3
			C39.5,31.3,39.6,31.5,39.6,31.8L39.6,31.8z"/>
		<path fill="#F7E98B" d="M38.3,21.6c0,0.3-0.2,0.4-0.3,0.4l-2.4-0.3c-0.1,0-0.2-0.2-0.2-0.5l0,0c0-0.3,0.2-0.5,0.3-0.4l2.4,0.3
			C38.3,21.1,38.4,21.3,38.3,21.6L38.3,21.6z"/>
		<path fill="#91EDEA" d="M41.5,26c0,0.3-0.2,0.4-0.3,0.4l-2.4-0.3c-0.1,0-0.2-0.2-0.2-0.5l0,0c0-0.3,0.2-0.5,0.3-0.4l2.4,0.3
			C41.5,25.5,41.6,25.7,41.5,26L41.5,26z"/>
		<path fill="#91EDEA" d="M29.3,21.8c0.1,0.2,0.2,0.5,0,0.5l-2,1.4c-0.1,0.1-0.3,0-0.5-0.2l0,0c-0.1-0.2-0.2-0.5,0-0.5l2-1.4
			C28.9,21.5,29.1,21.6,29.3,21.8L29.3,21.8z"/>
		<path fill="#91EDEA" d="M16.2,25.6c0.2,0.2,0.3,0.4,0.2,0.5l-1.4,2c-0.1,0.1-0.3,0.1-0.5-0.1l0,0c-0.2-0.2-0.3-0.4-0.2-0.5l1.4-2
			C15.7,25.4,16,25.4,16.2,25.6L16.2,25.6z"/>
		<path fill="#FF7C76" d="M31.4,31.7c0,0.3-0.2,0.4-0.3,0.4l-2.4-0.3c-0.1,0-0.2-0.2-0.2-0.5l0,0c0-0.3,0.2-0.5,0.3-0.4l2.4,0.3
			C31.4,31.2,31.5,31.4,31.4,31.7L31.4,31.7z"/>
		<path fill="#FF7C76" d="M22.1,33.2c-0.2-0.1-0.4-0.3-0.4-0.4l0.8-2.3c0-0.1,0.3-0.2,0.5-0.1l0,0c0.2,0.1,0.4,0.3,0.4,0.4l-0.8,2.3
			C22.6,33.3,22.3,33.3,22.1,33.2L22.1,33.2z"/>
		<g>
			<g>
				<ellipse fill="#D32E26" cx="31.9" cy="13.4" rx="5.9" ry="7.3"/>
				<path fill="#B20202" d="M36.1,8.2c2.3,2.8,2.3,7.5,0,10.3c-2.3,2.8-6.1,2.8-8.4,0"/>
				<path fill="#F24141" d="M31.9,7.4c0.3,0.5-0.5,1.8-1.8,2.9c-1.3,1.1-2.5,1.5-2.8,1c-0.3-0.5,0.5-1.8,1.8-2.9S31.6,6.9,31.9,7.4z
					"/>
			</g>
			<path fill="#3D1704" d="M33,7.5c0,0.5-0.6,0.8-1,0.8l0,0c-0.4,0-1-0.4-1-0.8V2c0-0.5,0.6-0.8,1-0.8l0,0c0.4,0,1,0.4,1,0.8V7.5z"
				/>
		</g>
		<path fill="#E88705" d="M40.8,22.8c0,4.3-4.4,5.3-9.3,5.3s-8.4-1-8.4-5.3s4-7.9,8.9-7.9C36.8,15,40.8,18.5,40.8,22.8z"/>
		<circle fill="#EEEFCE" cx="32" cy="49.5" r="7.2"/>
		<path fill="#DADDB8" d="M32,42.2c4,0,7.2,3.2,7.2,7.2S36,56.7,32,56.7"/>
	</g>
	<path fill="#F4A64A" d="M39,19.7c0,1.9-3.1-0.5-7-0.5s-7,2.4-7,0.5c0-1.9,3.1-3.5,7-3.5S39,17.8,39,19.7z"/>
	<path fill="#F4A64A" d="M30.5,21.8c0,1.9-3.1-0.5-7-0.5s-7,2.4-7,0.5c0-1.9,3.1-3.5,7-3.5S30.5,19.9,30.5,21.8z"/>
	<path fill="#F4A64A" d="M50.1,21.8c0,1.9-3.1-0.5-7-0.5c-3.9,0-7,2.4-7,0.5c0-1.9,3.1-3.5,7-3.5C47,18.3,50.1,19.9,50.1,21.8z"/>
</g>
</svg>
