<?xml version="1.0" encoding="utf-8"?>
<!-- Generator: Adobe Illustrator 16.0.0, SVG Export Plug-In . SVG Version: 6.00 Build 0)  -->
<!DOCTYPE svg PUBLIC "-//W3C//DTD SVG 1.1//EN" "http://www.w3.org/Graphics/SVG/1.1/DTD/svg11.dtd">
<svg version="1.1" id="Layer_1" xmlns="http://www.w3.org/2000/svg" xmlns:xlink="http://www.w3.org/1999/xlink" x="0px" y="0px"
	 width="64px" height="64px" viewBox="0 0 64 64" enable-background="new 0 0 64 64" xml:space="preserve">
<g>
	<circle fill="#D81665" cx="32" cy="27.5" r="26"/>
	<g>
		<polygon fill="#00233F" points="22.1,31 24.2,19.5 22.1,8 42,8 39.9,19.5 42,31 		"/>
		<g>
			<g>
				<polygon fill="#0C537A" points="28.6,1.5 20.3,4.5 18.5,11 31.7,11 				"/>
				<polygon fill="#00233F" points="28.6,1.5 21.8,5.4 18.5,11 31.7,11 				"/>
				<polygon fill="#D6D6D6" points="28.8,0.9 26.7,1.8 28.2,5.5 32,11 32,3.1 				"/>
				<polygon fill="#FFFFFF" points="28.8,0.9 32,3.1 28,5.2 				"/>
			</g>
			<g>
				<polygon fill="#0C537A" points="35.4,1.5 43.7,4.5 45.5,11 32.3,11 				"/>
				<polygon fill="#00233F" points="35.4,1.5 42.2,5.4 45.5,11 32.3,11 				"/>
				<polygon fill="#D6D6D6" points="35.2,0.9 37.3,1.8 35.8,5.5 32,11 32,3.1 				"/>
				<polygon fill="#FFFFFF" points="35.2,0.9 32,3.1 36,5.2 				"/>
			</g>
		</g>
		<polygon fill="#D6D6D6" points="34.7,5.7 32,11.7 29.3,5.7 32,3 		"/>
		<g>
			<g>
				<g>
					<polygon fill="#EF4391" points="32,4.6 32,3.3 28,1.8 28,5.9 					"/>
					<polygon fill="#D81665" points="32,4.6 32,3.3 28.7,3.5 28,5.9 					"/>
					<polygon fill="#BC085A" points="32,4.6 32,3.3 29.4,4.6 28,5.9 					"/>
				</g>
				<g>
					<polygon fill="#EF4391" points="32,4.6 32,3.3 36,1.8 36,5.9 					"/>
					<polygon fill="#D81665" points="32,4.6 32,3.3 35.3,3.5 36,5.9 					"/>
					<polygon fill="#BC085A" points="32,4.6 32,3.3 34.6,4.6 36,5.9 					"/>
				</g>
			</g>
			<path fill="#D81665" d="M32.5,4.5c0,0.3-0.2,0.5-0.5,0.5l0,0c-0.3,0-0.5-0.2-0.5-0.5v-1C31.5,3.2,31.7,3,32,3l0,0
				c0.3,0,0.5,0.2,0.5,0.5V4.5z"/>
			<path fill="#BC085A" d="M32.5,3.4v1c0,0.3-0.2,0.5-0.5,0.5l0,0c-0.3,0-0.5-0.2-0.5-0.5v-1"/>
		</g>
		<circle fill="#00233F" cx="32" cy="7.3" r="0.5"/>
		<circle fill="#D6D6D6" cx="32" cy="13.6" r="0.5"/>
		<circle fill="#D6D6D6" cx="32" cy="19.9" r="0.5"/>
		<circle fill="#D6D6D6" cx="32" cy="26.2" r="0.5"/>
		<g>
			<polygon fill="#00233F" points="17.5,29 13.7,28.7 18.6,10.9 24.2,9.8 			"/>
			<polygon fill="#00233F" points="46.5,29 50.3,28.7 45.4,10.9 39.8,9.8 			"/>
		</g>
		<g>
			<polygon fill="#00233F" points="31,63 26,63 23.8,31 31,31 			"/>
			<polygon fill="#00233F" points="33,63 38.1,63 40.3,31 33,31 			"/>
		</g>
		<rect x="27" y="29" fill="#00233F" width="10" height="9"/>
	</g>
</g>
</svg>
