<?xml version="1.0" encoding="utf-8"?>
<!-- Generator: Adobe Illustrator 16.0.0, SVG Export Plug-In . SVG Version: 6.00 Build 0)  -->
<!DOCTYPE svg PUBLIC "-//W3C//DTD SVG 1.1//EN" "http://www.w3.org/Graphics/SVG/1.1/DTD/svg11.dtd">
<svg version="1.1" id="Layer_1" xmlns="http://www.w3.org/2000/svg" xmlns:xlink="http://www.w3.org/1999/xlink" x="0px" y="0px"
	 width="64px" height="64px" viewBox="0 0 64 64" enable-background="new 0 0 64 64" xml:space="preserve">
<g>
	<g>
		<g>
			<g>
				<g>
					<g>
						<circle fill="#19AFBF" cx="33.2" cy="31.3" r="26.6"/>
						<path fill="#0E94AA" d="M14.4,12.5C24.8,2.1,41.6,2.1,52,12.5c10.4,10.4,10.4,27.2,0,37.6"/>
					</g>
				</g>
			</g>
		</g>
		<g>
			<path fill="#DCF9F6" d="M37.8,24.6c0-6.7-5.5-12.2-12.3-12.2c-4.8,0-8.9,2.7-10.9,6.7c-0.4-0.1-0.9-0.2-1.4-0.2
				c-3.2,0-5.8,2.6-5.8,5.8c0,0.1,0,0.3,0,0.4C3.3,25.5,1,29.2,1,33.7v0.6C1,39,4.8,43,9.6,43h19.5c4.7,0,8.9-4,8.9-8.8v-2.7
				C38,29.3,37.8,26.9,37.8,24.6z"/>
			<path fill="#BDE5E1" d="M37.8,26.2c0-6.7-5.5-12.2-12.3-12.2c-4.8,0-8.9,2.7-10.9,6.7c-0.4-0.1-0.9-0.2-1.4-0.2
				c-3.2,0-5.8,2.6-5.8,5.8c0,0.1,0,0.3,0,0.4C3.3,27.2,1,29.2,1,33.7v0.6C1,39,4.8,43,9.6,43h19.5c4.7,0,8.9-4,8.9-8.8v-2.7
				C38,29.3,37.8,28.5,37.8,26.2z"/>
			<path fill="#B1DDD9" d="M10,43h19.1c4.7,0,8.9-4,8.9-8.8v-2.7c0-2.2,0-2.9,0-5.2"/>
			<path fill="#98D3CD" d="M7.4,26.4"/>
			<path fill="#DCF9F6" d="M20.2,26.4c-0.4-0.1-0.7-0.2-1.1-0.2c-2.3,0-4.1,1.8-4.1,4.1c0,0.4,0.1,0.8,0.2,1.1
				C15.5,28.8,17.6,26.7,20.2,26.4z"/>
			<path fill="#DCF9F6" d="M27.3,22.6c-0.5-0.2-1-0.4-1.5-0.5c-3-0.6-5.9,1.5-6.5,4.5c-0.1,0.5-0.1,1.1,0,1.6
				C20.3,24.7,23.6,22.4,27.3,22.6z"/>
			<circle fill="#B1DDD9" cx="5.1" cy="33" r="0.4"/>
			<circle fill="#B1DDD9" cx="6.2" cy="29.9" r="0.6"/>
			<circle fill="#B1DDD9" cx="13.2" cy="24.1" r="0.3"/>
			<circle fill="#DCF9F6" cx="18.9" cy="21" r="0.6"/>
			<circle fill="#DCF9F6" cx="23.7" cy="16" r="0.3"/>
			<circle fill="#DCF9F6" cx="26.4" cy="16.9" r="0.9"/>
		</g>
		<g>
			<path fill="#DCF9F6" d="M33.1,28c0-5.5,4.5-9.9,10-9.9c3.9,0,7.2,2.2,8.9,5.4c0.4-0.1,0.8-0.1,1.1-0.1c2.6,0,4.7,2.1,4.7,4.7
				c0,0.1,0,0.2,0,0.3c3.4,0.4,5.2,3.3,5.2,6.9v0.5c0,3.8-3.1,7.1-7,7.1H40.2c-3.8,0-7.2-3.3-7.2-7.1v-2.2
				C33,31.9,33.1,29.9,33.1,28z"/>
			<path fill="#BDE5E1" d="M33.1,29.4c0-5.5,4.5-9.9,10-9.9c3.9,0,7.2,2.2,8.9,5.4c0.4-0.1,0.8-0.1,1.1-0.1c2.6,0,4.7,2.1,4.7,4.7
				c0,0.1,0,0.2,0,0.3c3.4,0.4,5.2,2,5.2,5.6v0.5c0,3.8-3.1,7.1-7,7.1H40.2c-3.8,0-7.2-3.3-7.2-7.1v-2.2
				C33,31.9,33.1,31.2,33.1,29.4z"/>
			<path fill="#B1DDD9" d="M56,43H40.2c-3.8,0-7.2-3.3-7.2-7.1v-2.2c0-1.8,0.1-2.3,0.1-4.2"/>
			<path fill="#98D3CD" d="M57.8,29.5"/>
			<path fill="#DCF9F6" d="M47.4,29.5c0.3-0.1,0.6-0.1,0.9-0.1c1.8,0,3.3,1.5,3.3,3.3c0,0.3-0.1,0.6-0.1,0.9
				C51.3,31.4,49.6,29.8,47.4,29.5z"/>
			<path fill="#DCF9F6" d="M41.7,26.5c0.4-0.2,0.8-0.3,1.2-0.4c2.5-0.4,4.8,1.2,5.3,3.6c0.1,0.4,0.1,0.9,0,1.3
				C47.3,28.1,44.6,26.3,41.7,26.5z"/>
			<circle fill="#B1DDD9" cx="59.6" cy="34.9" r="0.3"/>
			<circle fill="#B1DDD9" cx="58.8" cy="32.4" r="0.5"/>
			<circle fill="#B1DDD9" cx="53.1" cy="27.7" r="0.2"/>
			<circle fill="#DCF9F6" cx="48.5" cy="25.1" r="0.5"/>
			<circle fill="#DCF9F6" cx="44.6" cy="21.1" r="0.2"/>
			<circle fill="#DCF9F6" cx="42.4" cy="21.8" r="0.7"/>
		</g>
		<rect x="27" y="36" fill="#B1DDD9" width="15" height="7"/>
	</g>
	<g>
		<g>
			<g>
				<g>
					<path fill="#5EE0EA" d="M10.2,46.8c0,0.6-0.5,1.1-1.2,1.1c-0.7,0-1.2-0.5-1.2-1.1c0-0.6,0.5-2.5,1.2-2.5
						C9.6,44.3,10.2,46.2,10.2,46.8z"/>
					<path fill="#30B9D8" d="M9,44.3c0.7,0,1.2,1.9,1.2,2.5c0,0.6-0.5,1.1-1.2,1.1"/>
				</g>
				<g>
					<path fill="#5EE0EA" d="M15.6,46.8c0,0.6-0.5,1.1-1.2,1.1c-0.7,0-1.2-0.5-1.2-1.1c0-0.6,0.5-2.5,1.2-2.5
						C15,44.3,15.6,46.2,15.6,46.8z"/>
					<path fill="#30B9D8" d="M14.4,44.3c0.7,0,1.2,1.9,1.2,2.5c0,0.6-0.5,1.1-1.2,1.1"/>
				</g>
				<g>
					<path fill="#5EE0EA" d="M21,46.8c0,0.6-0.5,1.1-1.2,1.1s-1.2-0.5-1.2-1.1c0-0.6,0.5-2.5,1.2-2.5S21,46.2,21,46.8z"/>
					<path fill="#30B9D8" d="M19.8,44.3c0.7,0,1.2,1.9,1.2,2.5c0,0.6-0.5,1.1-1.2,1.1"/>
				</g>
				<g>
					<path fill="#5EE0EA" d="M26.4,46.8c0,0.6-0.5,1.1-1.2,1.1c-0.7,0-1.2-0.5-1.2-1.1c0-0.6,0.5-2.5,1.2-2.5
						C25.8,44.3,26.4,46.2,26.4,46.8z"/>
					<path fill="#30B9D8" d="M25.2,44.3c0.6,0,1.2,1.9,1.2,2.5c0,0.6-0.5,1.1-1.2,1.1"/>
				</g>
				<g>
					<path fill="#5EE0EA" d="M31.8,46.8c0,0.6-0.5,1.1-1.2,1.1c-0.7,0-1.2-0.5-1.2-1.1c0-0.6,0.5-2.5,1.2-2.5
						C31.2,44.3,31.8,46.2,31.8,46.8z"/>
					<path fill="#30B9D8" d="M30.6,44.3c0.7,0,1.2,1.9,1.2,2.5c0,0.6-0.5,1.1-1.2,1.1"/>
				</g>
			</g>
			<g>
				<g>
					<path fill="#5EE0EA" d="M10.2,52.5c0,0.6-0.5,1.1-1.2,1.1c-0.7,0-1.2-0.5-1.2-1.1S8.3,50,9,50C9.6,50,10.2,51.9,10.2,52.5z"/>
					<path fill="#30B9D8" d="M9,50c0.7,0,1.2,1.9,1.2,2.5S9.6,53.6,9,53.6"/>
				</g>
				<g>
					<path fill="#5EE0EA" d="M15.6,52.5c0,0.6-0.5,1.1-1.2,1.1c-0.7,0-1.2-0.5-1.2-1.1s0.5-2.5,1.2-2.5C15,50,15.6,51.9,15.6,52.5z"
						/>
					<path fill="#30B9D8" d="M14.4,50c0.7,0,1.2,1.9,1.2,2.5s-0.5,1.1-1.2,1.1"/>
				</g>
				<g>
					<path fill="#5EE0EA" d="M21,52.5c0,0.6-0.5,1.1-1.2,1.1s-1.2-0.5-1.2-1.1s0.5-2.5,1.2-2.5S21,51.9,21,52.5z"/>
					<path fill="#30B9D8" d="M19.8,50c0.7,0,1.2,1.9,1.2,2.5s-0.5,1.1-1.2,1.1"/>
				</g>
				<g>
					<path fill="#5EE0EA" d="M26.4,52.5c0,0.6-0.5,1.1-1.2,1.1c-0.7,0-1.2-0.5-1.2-1.1s0.5-2.5,1.2-2.5C25.8,50,26.4,51.9,26.4,52.5
						z"/>
					<path fill="#30B9D8" d="M25.2,50c0.6,0,1.2,1.9,1.2,2.5s-0.5,1.1-1.2,1.1"/>
				</g>
				<g>
					<path fill="#5EE0EA" d="M31.8,52.5c0,0.6-0.5,1.1-1.2,1.1c-0.7,0-1.2-0.5-1.2-1.1s0.5-2.5,1.2-2.5C31.2,50,31.8,51.9,31.8,52.5
						z"/>
					<path fill="#30B9D8" d="M30.6,50c0.7,0,1.2,1.9,1.2,2.5s-0.5,1.1-1.2,1.1"/>
				</g>
			</g>
			<g>
				<g>
					<path fill="#5EE0EA" d="M10.2,58.2c0,0.6-0.5,1.1-1.2,1.1c-0.7,0-1.2-0.5-1.2-1.1c0-0.6,0.5-2.5,1.2-2.5
						C9.6,55.7,10.2,57.6,10.2,58.2z"/>
					<path fill="#30B9D8" d="M9,55.7c0.7,0,1.2,1.9,1.2,2.5c0,0.6-0.5,1.1-1.2,1.1"/>
				</g>
				<g>
					<path fill="#5EE0EA" d="M15.6,58.2c0,0.6-0.5,1.1-1.2,1.1c-0.7,0-1.2-0.5-1.2-1.1c0-0.6,0.5-2.5,1.2-2.5
						C15,55.7,15.6,57.6,15.6,58.2z"/>
					<path fill="#30B9D8" d="M14.4,55.7c0.7,0,1.2,1.9,1.2,2.5c0,0.6-0.5,1.1-1.2,1.1"/>
				</g>
				<g>
					<path fill="#5EE0EA" d="M21,58.2c0,0.6-0.5,1.1-1.2,1.1s-1.2-0.5-1.2-1.1c0-0.6,0.5-2.5,1.2-2.5S21,57.6,21,58.2z"/>
					<path fill="#30B9D8" d="M19.8,55.7c0.7,0,1.2,1.9,1.2,2.5c0,0.6-0.5,1.1-1.2,1.1"/>
				</g>
				<g>
					<path fill="#5EE0EA" d="M26.4,58.2c0,0.6-0.5,1.1-1.2,1.1c-0.7,0-1.2-0.5-1.2-1.1c0-0.6,0.5-2.5,1.2-2.5
						C25.8,55.7,26.4,57.6,26.4,58.2z"/>
					<path fill="#30B9D8" d="M25.2,55.7c0.6,0,1.2,1.9,1.2,2.5c0,0.6-0.5,1.1-1.2,1.1"/>
				</g>
				<g>
					<path fill="#5EE0EA" d="M31.8,58.2c0,0.6-0.5,1.1-1.2,1.1c-0.7,0-1.2-0.5-1.2-1.1c0-0.6,0.5-2.5,1.2-2.5
						C31.2,55.7,31.8,57.6,31.8,58.2z"/>
					<path fill="#30B9D8" d="M30.6,55.7c0.7,0,1.2,1.9,1.2,2.5c0,0.6-0.5,1.1-1.2,1.1"/>
				</g>
			</g>
		</g>
		<g>
			<g>
				<g>
					<path fill="#5EE0EA" d="M37.2,46.8c0,0.6-0.5,1.1-1.2,1.1c-0.6,0-1.2-0.5-1.2-1.1c0-0.6,0.5-2.5,1.2-2.5
						C36.7,44.3,37.2,46.2,37.2,46.8z"/>
					<path fill="#30B9D8" d="M36,44.3c0.7,0,1.2,1.9,1.2,2.5c0,0.6-0.5,1.1-1.2,1.1"/>
				</g>
				<g>
					<path fill="#5EE0EA" d="M42.6,46.8c0,0.6-0.5,1.1-1.2,1.1s-1.2-0.5-1.2-1.1c0-0.6,0.5-2.5,1.2-2.5S42.6,46.2,42.6,46.8z"/>
					<path fill="#30B9D8" d="M41.4,44.3c0.7,0,1.2,1.9,1.2,2.5c0,0.6-0.5,1.1-1.2,1.1"/>
				</g>
				<g>
					<path fill="#5EE0EA" d="M48,46.8c0,0.6-0.5,1.1-1.2,1.1c-0.6,0-1.2-0.5-1.2-1.1c0-0.6,0.5-2.5,1.2-2.5
						C47.5,44.3,48,46.2,48,46.8z"/>
					<path fill="#30B9D8" d="M46.8,44.3c0.7,0,1.2,1.9,1.2,2.5c0,0.6-0.5,1.1-1.2,1.1"/>
				</g>
				<g>
					<path fill="#5EE0EA" d="M53.4,46.8c0,0.6-0.5,1.1-1.2,1.1s-1.2-0.5-1.2-1.1c0-0.6,0.5-2.5,1.2-2.5S53.4,46.2,53.4,46.8z"/>
					<path fill="#30B9D8" d="M52.2,44.3c0.7,0,1.2,1.9,1.2,2.5c0,0.6-0.5,1.1-1.2,1.1"/>
				</g>
				<g>
					<path fill="#5EE0EA" d="M58.8,46.8c0,0.6-0.5,1.1-1.2,1.1c-0.7,0-1.2-0.5-1.2-1.1c0-0.6,0.5-2.5,1.2-2.5
						C58.3,44.3,58.8,46.2,58.8,46.8z"/>
					<path fill="#30B9D8" d="M57.6,44.3c0.7,0,1.2,1.9,1.2,2.5c0,0.6-0.5,1.1-1.2,1.1"/>
				</g>
			</g>
			<g>
				<g>
					<path fill="#5EE0EA" d="M37.2,52.5c0,0.6-0.5,1.1-1.2,1.1c-0.6,0-1.2-0.5-1.2-1.1S35.4,50,36,50C36.7,50,37.2,51.9,37.2,52.5z"
						/>
					<path fill="#30B9D8" d="M36,50c0.7,0,1.2,1.9,1.2,2.5s-0.5,1.1-1.2,1.1"/>
				</g>
				<g>
					<path fill="#5EE0EA" d="M42.6,52.5c0,0.6-0.5,1.1-1.2,1.1s-1.2-0.5-1.2-1.1s0.5-2.5,1.2-2.5S42.6,51.9,42.6,52.5z"/>
					<path fill="#30B9D8" d="M41.4,50c0.7,0,1.2,1.9,1.2,2.5s-0.5,1.1-1.2,1.1"/>
				</g>
				<g>
					<path fill="#5EE0EA" d="M48,52.5c0,0.6-0.5,1.1-1.2,1.1c-0.6,0-1.2-0.5-1.2-1.1s0.5-2.5,1.2-2.5C47.5,50,48,51.9,48,52.5z"/>
					<path fill="#30B9D8" d="M46.8,50c0.7,0,1.2,1.9,1.2,2.5s-0.5,1.1-1.2,1.1"/>
				</g>
				<g>
					<path fill="#5EE0EA" d="M53.4,52.5c0,0.6-0.5,1.1-1.2,1.1s-1.2-0.5-1.2-1.1s0.5-2.5,1.2-2.5S53.4,51.9,53.4,52.5z"/>
					<path fill="#30B9D8" d="M52.2,50c0.7,0,1.2,1.9,1.2,2.5s-0.5,1.1-1.2,1.1"/>
				</g>
				<g>
					<path fill="#5EE0EA" d="M58.8,52.5c0,0.6-0.5,1.1-1.2,1.1c-0.7,0-1.2-0.5-1.2-1.1S57,50,57.6,50C58.3,50,58.8,51.9,58.8,52.5z"
						/>
					<path fill="#30B9D8" d="M57.6,50c0.7,0,1.2,1.9,1.2,2.5s-0.5,1.1-1.2,1.1"/>
				</g>
			</g>
			<g>
				<g>
					<path fill="#5EE0EA" d="M37.2,58.2c0,0.6-0.5,1.1-1.2,1.1c-0.6,0-1.2-0.5-1.2-1.1c0-0.6,0.5-2.5,1.2-2.5
						C36.7,55.7,37.2,57.6,37.2,58.2z"/>
					<path fill="#30B9D8" d="M36,55.7c0.7,0,1.2,1.9,1.2,2.5c0,0.6-0.5,1.1-1.2,1.1"/>
				</g>
				<g>
					<path fill="#5EE0EA" d="M42.6,58.2c0,0.6-0.5,1.1-1.2,1.1s-1.2-0.5-1.2-1.1c0-0.6,0.5-2.5,1.2-2.5S42.6,57.6,42.6,58.2z"/>
					<path fill="#30B9D8" d="M41.4,55.7c0.7,0,1.2,1.9,1.2,2.5c0,0.6-0.5,1.1-1.2,1.1"/>
				</g>
				<g>
					<path fill="#5EE0EA" d="M48,58.2c0,0.6-0.5,1.1-1.2,1.1c-0.6,0-1.2-0.5-1.2-1.1c0-0.6,0.5-2.5,1.2-2.5
						C47.5,55.7,48,57.6,48,58.2z"/>
					<path fill="#30B9D8" d="M46.8,55.7c0.7,0,1.2,1.9,1.2,2.5c0,0.6-0.5,1.1-1.2,1.1"/>
				</g>
				<g>
					<path fill="#5EE0EA" d="M53.4,58.2c0,0.6-0.5,1.1-1.2,1.1s-1.2-0.5-1.2-1.1c0-0.6,0.5-2.5,1.2-2.5S53.4,57.6,53.4,58.2z"/>
					<path fill="#30B9D8" d="M52.2,55.7c0.7,0,1.2,1.9,1.2,2.5c0,0.6-0.5,1.1-1.2,1.1"/>
				</g>
				<g>
					<path fill="#5EE0EA" d="M58.8,58.2c0,0.6-0.5,1.1-1.2,1.1c-0.7,0-1.2-0.5-1.2-1.1c0-0.6,0.5-2.5,1.2-2.5
						C58.3,55.7,58.8,57.6,58.8,58.2z"/>
					<path fill="#30B9D8" d="M57.6,55.7c0.7,0,1.2,1.9,1.2,2.5c0,0.6-0.5,1.1-1.2,1.1"/>
				</g>
			</g>
		</g>
	</g>
</g>
</svg>
