<?xml version="1.0" encoding="utf-8"?>
<!-- Generator: Adobe Illustrator 16.0.0, SVG Export Plug-In . SVG Version: 6.00 Build 0)  -->
<!DOCTYPE svg PUBLIC "-//W3C//DTD SVG 1.1//EN" "http://www.w3.org/Graphics/SVG/1.1/DTD/svg11.dtd">
<svg version="1.1" id="Layer_1" xmlns="http://www.w3.org/2000/svg" xmlns:xlink="http://www.w3.org/1999/xlink" x="0px" y="0px"
	 width="64px" height="64px" viewBox="0 0 64 64" enable-background="new 0 0 64 64" xml:space="preserve">
<g>
	<g>
		<g>
			<g>
				<g>
					<circle fill="#D3E2DD" cx="32" cy="29.6" r="27.1"/>
					<path fill="#C3D8D0" d="M12.8,10.5c10.6-10.6,27.7-10.6,38.3,0s10.6,27.7,0,38.3"/>
				</g>
			</g>
		</g>
	</g>
	<path fill="#C42C87" d="M52.1,58c4.7-5,7.6-11.6,7.6-19c0-15.3-12.4-27.7-27.8-27.7S4.2,23.6,4.2,39c0,7.4,2.9,14,7.6,19H52.1z"/>
	<path fill="#AA1374" d="M32,58h20.1c4.7-5,7.6-11.6,7.6-19c0-15.3-12.4-27.7-27.8-27.7"/>
	<path fill="#2BCC51" d="M20.8,58h22.4c6.5-4,10.9-10.9,10.9-19c0-12.2-9.9-22.1-22.1-22.1C19.8,16.9,9.9,26.8,9.9,39
		C9.9,47.1,14.3,54,20.8,58z"/>
	<path fill="#34B24E" d="M32,58h11.2c6.5-4,10.9-10.9,10.9-19c0-12.2-9.9-22.1-22.1-22.1"/>
	<circle fill="#FCD30B" cx="32" cy="40.2" r="16.4"/>
	<path fill="#E8B105" d="M32,23.8c9,0,16.4,7.3,16.4,16.4c0,9-7.3,16.4-16.4,16.4"/>
	<circle fill="#D84707" cx="32" cy="40.2" r="10.1"/>
	<path fill="#D60909" d="M32,30.1c5.6,0,10.1,4.5,10.1,10.1S37.6,50.3,32,50.3"/>
	<g>
		<g>
			<path fill="#DCF9F6" d="M37,45.5c0-5.9-4.8-10.6-10.7-10.6c-4.2,0-7.8,2.4-9.5,5.9c-0.4-0.1-0.8-0.2-1.2-0.2c-2.8,0-5,2.3-5,5
				c0,0.1,0,0.2,0,0.3C6.9,46.4,5,49.6,5,53.5V54c0,4.1,3.3,7,7.4,7h17c4.1,0,7.6-2.9,7.6-7v-2.4C37,49.6,37,47.5,37,45.5z"/>
			<path fill="#BDE5E1" d="M37,47c0-5.9-4.8-10.6-10.7-10.6c-4.2,0-7.8,2.4-9.5,5.9C16.4,42.1,16,42,15.6,42c-2.8,0-5,2.3-5,5
				c0,0.1,0,0.2,0,0.3c-3.7,0.4-5.6,2.2-5.6,6V54c0,4.1,3.3,7,7.4,7h17c4.1,0,7.6-2.9,7.6-7v-2.4C37,49.6,37,49,37,47z"/>
			<path fill="#B1DDD9" d="M12,61h17.4c4.1,0,7.6-2.9,7.6-7v-2.4c0-1.9-0.2-2.9-0.2-4.8"/>
			<path fill="#98D3CD" d="M10.6,47.1"/>
			<path fill="#DCF9F6" d="M21.7,47.1c-0.3-0.1-0.6-0.2-1-0.2c-2,0-3.6,1.6-3.6,3.6c0,0.3,0.1,0.7,0.2,1
				C17.6,49.2,19.4,47.4,21.7,47.1z"/>
			<path fill="#DCF9F6" d="M27.9,43.8c-0.4-0.2-0.8-0.4-1.3-0.5c-2.6-0.5-5.2,1.3-5.7,3.9c-0.1,0.5-0.1,0.9,0,1.4
				C21.8,45.7,24.7,43.6,27.9,43.8z"/>
			<circle fill="#B1DDD9" cx="8.5" cy="52.9" r="0.4"/>
			<path fill="#B1DDD9" d="M10,50.2c0,0.3-0.2,0.5-0.5,0.5S9,50.5,9,50.2c0-0.3,0.2-0.5,0.5-0.5S10,49.9,10,50.2z"/>
			<path fill="#B1DDD9" d="M15.8,45.1c0,0.1-0.1,0.2-0.2,0.2c-0.1,0-0.2-0.1-0.2-0.2c0-0.1,0.1-0.2,0.2-0.2
				C15.7,44.9,15.8,45,15.8,45.1z"/>
			<circle fill="#DCF9F6" cx="20.5" cy="42.4" r="0.5"/>
			<circle fill="#DCF9F6" cx="24.7" cy="38.1" r="0.3"/>
			<circle fill="#DCF9F6" cx="27.1" cy="38.9" r="0.8"/>
		</g>
		<g>
			<path fill="#DCF9F6" d="M33.1,48.5c0-4.8,3.9-8.6,8.7-8.6c3.4,0,6.3,1.9,7.7,4.8c0.3-0.1,0.6-0.1,1-0.1c2.3,0,4.1,1.8,4.1,4.1
				c0,0.1,0,0.2,0,0.3c3,0.3,4.5,2.9,4.5,6.1v0.4c0,3.4-2.7,5.6-6,5.6H39.2c-3.4,0-6.2-2.3-6.2-5.6v-1.9
				C33,51.9,33.1,50.2,33.1,48.5z"/>
			<path fill="#BDE5E1" d="M33.1,49.7c0-4.8,3.9-8.6,8.7-8.6c3.4,0,6.3,1.9,7.7,4.8c0.3-0.1,0.6-0.1,1-0.1c2.3,0,4.1,1.8,4.1,4.1
				c0,0.1,0,0.2,0,0.3c3,0.3,4.5,1.7,4.5,4.9v0.4c0,3.4-2.7,5.6-6,5.6H39.2c-3.4,0-6.2-2.3-6.2-5.6v-1.9
				C33,51.9,33.1,51.3,33.1,49.7z"/>
			<path fill="#B1DDD9" d="M53,61H39.2c-3.4,0-6.2-2.3-6.2-5.6v-1.9c0-1.6,0.1-2.4,0.1-4"/>
			<path fill="#98D3CD" d="M54.5,49.8"/>
			<path fill="#DCF9F6" d="M45.5,49.8c0.3-0.1,0.5-0.1,0.8-0.1c1.6,0,2.9,1.3,2.9,2.9c0,0.3-0.1,0.5-0.1,0.8
				C48.8,51.5,47.3,50,45.5,49.8z"/>
			<path fill="#DCF9F6" d="M40.5,47.2c0.3-0.2,0.7-0.3,1.1-0.4c2.1-0.4,4.2,1,4.6,3.2c0.1,0.4,0.1,0.8,0,1.1
				C45.4,48.6,43,47,40.5,47.2z"/>
			<circle fill="#B1DDD9" cx="56.1" cy="54.5" r="0.3"/>
			<circle fill="#B1DDD9" cx="55.4" cy="52.3" r="0.4"/>
			<circle fill="#B1DDD9" cx="50.4" cy="48.2" r="0.2"/>
			<circle fill="#DCF9F6" cx="46.4" cy="46" r="0.4"/>
			<circle fill="#DCF9F6" cx="43" cy="42.5" r="0.2"/>
			<circle fill="#DCF9F6" cx="41.1" cy="43.1" r="0.6"/>
		</g>
	</g>
	<polygon fill="#B1DDD9" points="40,61 28,61 28,54.5 32.5,50.3 40,54.5 	"/>
</g>
</svg>
