<?xml version="1.0" encoding="utf-8"?>
<!-- Generator: Adobe Illustrator 16.0.0, SVG Export Plug-In . SVG Version: 6.00 Build 0)  -->
<!DOCTYPE svg PUBLIC "-//W3C//DTD SVG 1.1//EN" "http://www.w3.org/Graphics/SVG/1.1/DTD/svg11.dtd">
<svg version="1.1" id="Layer_1" xmlns="http://www.w3.org/2000/svg" xmlns:xlink="http://www.w3.org/1999/xlink" x="0px" y="0px"
	 width="64px" height="64px" viewBox="0 0 64 64" enable-background="new 0 0 64 64" xml:space="preserve">
<g>
	<path fill="#40BF16" d="M54.7,1H35.4C34.5,1,34,1.2,34,1.9v3.5c0,0,0,0.1,0,0.1V12v-0.1l-24,16v26.2c0,6.4,2.7,8.9,9.1,8.9H47
		c6.4,0,9-0.2,9-6.6V21.6c0-0.5,0-0.9,0-1.4c0-0.1,0-0.1,0-0.2V5.3V4.9V1.9C56,1.2,55.6,1,54.7,1z M40,12V7h10l0,5l-1.9,0H40z"/>
	<path fill="#239B02" d="M19,63h28c6.4,0,9-0.2,9-6.6V21.6c0-0.5,0-0.9,0-1.4c0-0.1,0-0.1,0-0.2V5.3V5 M34,11.9L34,11.9l-7.8,10.3
		L10,27.8 M33.8,5.3"/>
	<path fill="#227208" d="M43.3,20h-9.8L17,31v17.9c0,4.4,2.1,6.1,6.5,6.1h19.1c4.4,0,6.4-0.1,6.4-4.5V26.7C49,22.3,47.7,20,43.3,20z
		"/>
	<g>
		<path fill="#FF5512" d="M30.8,8.1c0.7,1.1,0,1.9-1.1,2.6L13.5,21.1c-1.1,0.7-2.1,1-2.8-0.1l-2.6-4.1c-0.7-1.1-0.4-2.5,0.7-3.2
			L25,3.3c1.1-0.7,2.5-0.4,3.2,0.7L30.8,8.1z"/>
		<path fill="#CC3006" d="M28.2,4.1l2.6,4.1c0.7,1.1,0,1.9-1.1,2.6L13.5,21.1c-1.1,0.7-2.1,1-2.8-0.1l-2.6-4.1"/>
		
			<rect x="14.1" y="15.7" transform="matrix(0.8426 -0.5386 0.5386 0.8426 -5.545 14.5831)" fill="#252828" width="16.2" height="2.2"/>
		<g>
			<path fill="#A52713" d="M13.4,18c0.2,0.3,0.1,0.6-0.2,0.8l0,0c-0.3,0.2-0.6,0.1-0.8-0.2l-1.8-2.9c-0.2-0.3-0.1-0.6,0.2-0.8l0,0
				c0.3-0.2,0.6-0.1,0.8,0.2L13.4,18z"/>
			<path fill="#A52713" d="M16.3,16.1c0.2,0.3,0.1,0.6-0.2,0.8l0,0c-0.3,0.2-0.6,0.1-0.8-0.2l-1.8-2.9c-0.2-0.3-0.1-0.6,0.2-0.8l0,0
				c0.3-0.2,0.6-0.1,0.8,0.2L16.3,16.1z"/>
			<path fill="#A52713" d="M19.2,14.2c0.2,0.3,0.1,0.6-0.2,0.8l0,0c-0.3,0.2-0.6,0.1-0.8-0.2L16.4,12c-0.2-0.3-0.1-0.6,0.2-0.8l0,0
				c0.3-0.2,0.6-0.1,0.8,0.2L19.2,14.2z"/>
			<path fill="#A52713" d="M22.1,12.4c0.2,0.3,0.1,0.6-0.2,0.8l0,0c-0.3,0.2-0.6,0.1-0.8-0.2l-1.8-2.9c-0.2-0.3-0.1-0.6,0.2-0.8l0,0
				c0.3-0.2,0.6-0.1,0.8,0.2L22.1,12.4z"/>
			<path fill="#A52713" d="M25,10.5c0.2,0.3,0.1,0.6-0.2,0.8l0,0c-0.3,0.2-0.6,0.1-0.8-0.2l-1.8-2.9C22,8,22.1,7.7,22.4,7.5l0,0
				c0.3-0.2,0.6-0.1,0.8,0.2L25,10.5z"/>
			<path fill="#A52713" d="M27.9,8.7c0.2,0.3,0.1,0.6-0.2,0.8l0,0c-0.3,0.2-0.6,0.1-0.8-0.2l-1.8-2.9c-0.2-0.3-0.1-0.6,0.2-0.8l0,0
				c0.3-0.2,0.6-0.1,0.8,0.2L27.9,8.7z"/>
		</g>
	</g>
	<g>
		<g>
			<path fill="#239B02" d="M34.1,41c-0.3,0.3-0.9,0.3-1.3,0l0,0c-0.3-0.3-0.3-0.9,0-1.3l8.1-8.1c0.3-0.3,0.9-0.3,1.3,0l0,0
				c0.3,0.3,0.3,0.9,0,1.3L34.1,41z"/>
			<path fill="#40BF16" d="M32,41c0.3,0.3,0.9,0.3,1.3,0l0,0c0.3-0.3,0.3-0.9,0-1.3l-8.1-8.1c-0.3-0.3-0.9-0.3-1.3,0l0,0
				c-0.3,0.3-0.3,0.9,0,1.3L32,41z"/>
		</g>
		<g>
			<path fill="#239B02" d="M32,40.8c0.3-0.3,0.9-0.3,1.3,0l0,0c0.3,0.3,0.3,0.9,0,1.3l-8.1,8.1c-0.3,0.3-0.9,0.3-1.3,0l0,0
				c-0.3-0.3-0.3-0.9,0-1.3L32,40.8z"/>
			<path fill="#239B02" d="M34.1,40.8c-0.3-0.3-0.9-0.3-1.3,0l0,0c-0.3,0.3-0.3,0.9,0,1.3l8.1,8.1c0.3,0.3,0.9,0.3,1.3,0l0,0
				c0.3-0.3,0.3-0.9,0-1.3L34.1,40.8z"/>
		</g>
	</g>
</g>
</svg>
