<?xml version="1.0" encoding="utf-8"?>
<!-- Generator: Adobe Illustrator 16.0.0, SVG Export Plug-In . SVG Version: 6.00 Build 0)  -->
<!DOCTYPE svg PUBLIC "-//W3C//DTD SVG 1.1//EN" "http://www.w3.org/Graphics/SVG/1.1/DTD/svg11.dtd">
<svg version="1.1" xmlns="http://www.w3.org/2000/svg" xmlns:xlink="http://www.w3.org/1999/xlink" x="0px" y="0px" width="65px"
	 height="65px" viewBox="0 0 65 65" enable-background="new 0 0 65 65" xml:space="preserve">
<g id="Layer_1">
	<g>
		<g>
			<g>
				<g>
					<g>
						<line fill="#15ED0F" x1="39.209" y1="3.657" x2="33.418" y2="9.45"/>
					</g>
					<g>
						<path fill="#114935" d="M33.418,11.95c-0.639,0-1.277-0.244-1.767-0.732c-0.978-0.976-0.978-2.559,0-3.535l5.79-5.793
							c0.977-0.977,2.56-0.977,3.536,0c0.976,0.976,0.976,2.559,0,3.535l-5.79,5.793C34.7,11.706,34.059,11.95,33.418,11.95z"/>
					</g>
				</g>
				<g>
					<g>
						<polyline fill="#15ED0F" points="33.316,9.552 55.449,31.683 49.656,37.476 						"/>
					</g>
					<g>
						<path fill="#114935" d="M49.656,39.976c-0.64,0-1.279-0.244-1.769-0.732c-0.976-0.977-0.976-2.559,0-3.535l4.026-4.025
							L31.547,11.319c-0.976-0.976-0.976-2.559,0-3.535c0.977-0.977,2.56-0.977,3.537,0l22.133,22.131
							c0.467,0.469,0.731,1.104,0.731,1.768s-0.265,1.299-0.731,1.768l-5.795,5.793C50.935,39.731,50.295,39.976,49.656,39.976z"/>
					</g>
				</g>
			</g>
			<g>
				<g>
					<g>
						<line fill="#15ED0F" x1="25.789" y1="61.343" x2="31.582" y2="55.551"/>
					</g>
					<g>
						<path fill="#114935" d="M25.789,63.843c-0.64,0-1.279-0.244-1.769-0.732c-0.976-0.977-0.976-2.56,0-3.535l5.793-5.792
							c0.977-0.977,2.56-0.977,3.537,0c0.975,0.977,0.975,2.56,0,3.535l-5.793,5.792C27.068,63.599,26.428,63.843,25.789,63.843z"/>
					</g>
				</g>
				<g>
					<g>
						<polyline fill="#15ED0F" points="31.684,55.448 9.551,33.315 15.345,27.522 						"/>
					</g>
					<g>
						<path fill="#114935" d="M31.684,57.948c-0.641,0-1.28-0.244-1.769-0.732L7.785,35.083c-0.976-0.977-0.976-2.559,0-3.535
							l5.792-5.793c0.978-0.977,2.559-0.977,3.536,0c0.977,0.977,0.977,2.559,0,3.535l-4.026,4.025L33.45,53.681
							c0.977,0.977,0.977,2.56,0,3.535C32.961,57.704,32.323,57.948,31.684,57.948z"/>
					</g>
				</g>
			</g>
		</g>
		<g>
			<g>
				<g>
					<g>
						<line fill="#15ED0F" x1="61.342" y1="39.212" x2="55.547" y2="33.418"/>
					</g>
					<g>
						<path fill="#114935" d="M61.342,41.712c-0.639,0-1.278-0.244-1.767-0.732l-5.795-5.794c-0.978-0.976-0.978-2.559,0-3.535
							c0.974-0.977,2.558-0.977,3.535,0l5.795,5.794c0.976,0.976,0.976,2.559,0,3.535C62.624,41.468,61.983,41.712,61.342,41.712z"
							/>
					</g>
				</g>
				<g>
					<g>
						<polyline fill="#15ED0F" points="55.449,33.317 33.317,55.448 27.523,49.656 						"/>
					</g>
					<g>
						<path fill="#114935" d="M33.317,57.948c-0.639,0-1.279-0.244-1.767-0.731l-5.796-5.792c-0.976-0.977-0.976-2.56,0-3.536
							c0.977-0.977,2.56-0.976,3.535-0.001l4.027,4.025L53.682,31.55c0.975-0.977,2.558-0.977,3.535,0
							c0.975,0.977,0.975,2.559,0,3.535L35.085,57.216C34.597,57.704,33.958,57.948,33.317,57.948z"/>
					</g>
				</g>
			</g>
			<g>
				<g>
					<g>
						<line fill="#15ED0F" x1="3.657" y1="25.788" x2="9.45" y2="31.58"/>
					</g>
					<g>
						<path fill="#114935" d="M9.45,34.08c-0.639,0-1.279-0.244-1.766-0.732l-5.793-5.792c-0.978-0.976-0.978-2.559,0-3.535
							c0.974-0.977,2.558-0.977,3.534,0l5.793,5.792c0.977,0.976,0.977,2.559,0,3.535C10.731,33.836,10.09,34.08,9.45,34.08z"/>
					</g>
				</g>
				<g>
					<g>
						<polyline fill="#15ED0F" points="9.551,31.685 31.684,9.552 37.475,15.346 						"/>
					</g>
					<g>
						<path fill="#114935" d="M9.551,34.185c-0.639,0-1.279-0.244-1.767-0.732c-0.976-0.976-0.976-2.559,0-3.535L29.916,7.784
							c0.468-0.469,1.104-0.732,1.769-0.732l0,0c0.662,0,1.297,0.264,1.766,0.732l5.794,5.794c0.976,0.977,0.976,2.56,0,3.535
							c-0.977,0.977-2.56,0.977-3.535,0l-4.024-4.025L11.32,33.452C10.831,33.94,10.192,34.185,9.551,34.185z"/>
					</g>
				</g>
			</g>
		</g>
	</g>
</g>
<g id="nyt_x5F_exporter_x5F_info" display="none">
</g>
</svg>
