<?xml version="1.0" encoding="utf-8"?>
<!-- Generator: Adobe Illustrator 16.0.0, SVG Export Plug-In . SVG Version: 6.00 Build 0)  -->
<!DOCTYPE svg PUBLIC "-//W3C//DTD SVG 1.1//EN" "http://www.w3.org/Graphics/SVG/1.1/DTD/svg11.dtd">
<svg version="1.1" id="Layer_1" xmlns="http://www.w3.org/2000/svg" xmlns:xlink="http://www.w3.org/1999/xlink" x="0px" y="0px"
	 width="64px" height="64px" viewBox="0 0 64 64" enable-background="new 0 0 64 64" xml:space="preserve">
<g>
	<g>
		<path fill="#CE1906" d="M59,63c-1.1-14-12.8-24.6-27-24.6S6.1,49,5,63H59z"/>
		<path fill="#AF1105" d="M59,63c-1.1-14-12.8-20.9-27-20.9S6.1,49,5,63H59z"/>
		<path fill="#CE1906" d="M47.9,43.7c-4.5-3.2-10-5.1-15.9-5.1c-6,0-11.4,1.9-15.9,5.1C18.9,49.8,25,54,32,54S45.1,49.8,47.9,43.7z"
			/>
		<g>
			<path fill="#FF4133" d="M14,58.7c0,1-1,1.8-2,1.8l0,0c-1,0-2-0.8-2-1.8v-3.6c0-1,1-1.8,2-1.8l0,0c1,0,2,0.8,2,1.8V58.7z"/>
			<path fill="#FF4133" d="M54,58.7c0,1-1,1.8-2,1.8l0,0c-1,0-2-0.8-2-1.8v-3.6c0-1,1-1.8,2-1.8l0,0c1,0,2,0.8,2,1.8V58.7z"/>
		</g>
	</g>
	<g>
		<g>
			<path fill="#00233F" d="M36,40.9c0,2.1-1.9,3.8-4,3.8l0,0c-2.1,0-4-1.7-4-3.8v-7.6c0-2.1,1.9-3.7,4-3.7l0,0c2.1,0,4,1.7,4,3.7
				V40.9z"/>
			<g>
				<ellipse fill="#FF4133" cx="32" cy="19.4" rx="29.3" ry="17"/>
				<path fill="#CE1906" d="M61.3,19.4c0,9.4-13.1,17-29.3,17s-29.3-7.6-29.3-17"/>
				<path fill="#AF1105" d="M32,29.5c-10.7,0-20.3-1.5-27.3-4C8.9,31.9,19.6,36.4,32,36.4s23.1-4.5,27.3-10.9
					C52.3,28,42.7,29.5,32,29.5z"/>
			</g>
			<g>
				<g>
					<path opacity="0.3" fill="#727272" d="M25.4,9.1c0,1.9-1.6,4.5-3.5,4.5s-3.5-2.6-3.5-4.5s1.6-3.5,3.5-3.5S25.4,7.1,25.4,9.1z"
						/>
					<circle fill="#023954" cx="21.9" cy="9.1" r="3.5"/>
					<path fill="#00233F" d="M21.9,5.6c1.9,0,3.5,1.6,3.5,3.5s-1.6,3.5-3.5,3.5"/>
					<circle fill="#C5EFFF" cx="21.1" cy="7.6" r="1"/>
					<circle fill="#087CA0" cx="23.2" cy="10.3" r="0.5"/>
					<path fill="#00233F" d="M25,1.5C25,1.8,24.8,2,24.5,2h-5C19.2,2,19,1.8,19,1.5l0,0C19,1.2,19.2,1,19.5,1h5
						C24.8,1,25,1.2,25,1.5L25,1.5z"/>
				</g>
				<g>
					<path opacity="0.3" fill="#727272" d="M45.5,9.1c0,1.9-1.6,4.5-3.5,4.5s-3.5-2.6-3.5-4.5s1.6-3.5,3.5-3.5S45.5,7.1,45.5,9.1z"
						/>
					<circle fill="#023954" cx="42" cy="9.1" r="3.5"/>
					<path fill="#00233F" d="M42,5.6c1.9,0,3.5,1.6,3.5,3.5s-1.6,3.5-3.5,3.5"/>
					<circle fill="#C5EFFF" cx="41.1" cy="7.6" r="1"/>
					<circle fill="#087CA0" cx="43.2" cy="10.3" r="0.5"/>
					<path fill="#00233F" d="M45,1.5C45,1.8,44.8,2,44.5,2h-5C39.2,2,39,1.8,39,1.5l0,0C39,1.2,39.2,1,39.5,1h5
						C44.8,1,45,1.2,45,1.5L45,1.5z"/>
				</g>
			</g>
			<path opacity="0.3" fill="#727272" d="M37,22.4c0,1.3-0.6,2.6-1.9,2.6h-5.3c-1.3,0-2.8-1.3-2.8-2.6V16c0-1.3,1.5-2,2.8-2h5.3
				c1.3,0,1.9,0.7,1.9,2V22.4z"/>
			<path opacity="0.3" fill="#727272" d="M37,19.9c0,1.3-0.6,2.1-1.9,2.1h-5.3c-1.3,0-2.8-0.8-2.8-2.1v-6.4c0-1.3,1.5-2.5,2.8-2.5
				h4.3c1.3,0,2.9,1.2,2.9,2.5V19.9z"/>
			<path fill="#00FFF2" d="M37,21.1c0,1.3-1.6,1.9-2.9,1.9h-4.3c-1.3,0-2.8-0.6-2.8-1.9v-6.4c0-1.3,1.5-2.7,2.8-2.7h4.3
				c1.3,0,2.9,1.4,2.9,2.7V21.1z"/>
			<path fill="#00A09C" d="M27,21v-6.3c0-1.3,1.5-2.7,2.8-2.7h4.3c1.3,0,2.9,1.4,2.9,2.7V21"/>
			<path fill="#006D7C" d="M27,14.7c0-1.3,1.5-2.7,2.8-2.7h4.3c1.3,0,2.9,1.4,2.9,2.7"/>
			<g>
				
					<rect x="31.3" y="4.2" transform="matrix(0.7071 -0.7071 0.7071 0.7071 5.8595 24.0826)" fill="#00FFF2" width="1.5" height="1.5"/>
				<polyline fill="#00A09C" points="32,3.9 33.1,5 32,6 				"/>
			</g>
			<g>
				
					<rect x="31.3" y="6.2" transform="matrix(0.7071 -0.7071 0.7071 0.7071 4.475 24.6561)" fill="#00FFF2" width="1.5" height="1.5"/>
				<polyline fill="#00A09C" points="32,5.9 33.1,6.9 32,8 				"/>
			</g>
			<g>
				
					<rect x="31.3" y="8.1" transform="matrix(0.7071 -0.7071 0.7071 0.7071 3.0905 25.2296)" fill="#00FFF2" width="1.5" height="1.5"/>
				<polyline fill="#00A09C" points="32,7.8 33.1,8.9 32,9.9 				"/>
			</g>
		</g>
		<path fill="#00FFF2" d="M33,60.3c0,0.4-0.6,0.7-1,0.7l0,0c-0.4,0-1-0.3-1-0.7V48c0-0.4,0.6-0.7,1-0.7l0,0c0.4,0,1,0.3,1,0.7V60.3z
			"/>
		<g>
			<circle fill="#075877" cx="29.4" cy="38.5" r="0.4"/>
			<circle fill="#075877" cx="31.1" cy="38.5" r="0.4"/>
			<circle fill="#075877" cx="32.8" cy="38.5" r="0.4"/>
			<circle fill="#075877" cx="34.5" cy="38.5" r="0.4"/>
		</g>
		<g>
			<circle fill="#075877" cx="29.4" cy="39.9" r="0.4"/>
			<circle fill="#075877" cx="31.1" cy="39.9" r="0.4"/>
			<circle fill="#075877" cx="32.8" cy="39.9" r="0.4"/>
			<circle fill="#075877" cx="34.5" cy="39.9" r="0.4"/>
		</g>
		<g>
			<circle fill="#075877" cx="29.4" cy="41.4" r="0.4"/>
			<circle fill="#075877" cx="31.1" cy="41.4" r="0.4"/>
			<circle fill="#075877" cx="32.8" cy="41.4" r="0.4"/>
			<circle fill="#075877" cx="34.5" cy="41.4" r="0.4"/>
		</g>
		<g>
			<g>
				<circle fill="#0BB5A8" cx="42.4" cy="53.1" r="4"/>
				<path fill="#00A09C" d="M46.4,53.1c0,2.2-1.8,4-4,4s-4-1.8-4-4"/>
			</g>
			<g>
				<circle fill="#0BB5A8" cx="21.6" cy="53.1" r="4"/>
				<path fill="#00A09C" d="M25.6,53.1c0,2.2-1.8,4-4,4s-4-1.8-4-4"/>
			</g>
		</g>
	</g>
</g>
</svg>
