<?xml version="1.0" encoding="utf-8"?>
<!-- Generator: Adobe Illustrator 16.0.0, SVG Export Plug-In . SVG Version: 6.00 Build 0)  -->
<!DOCTYPE svg PUBLIC "-//W3C//DTD SVG 1.1//EN" "http://www.w3.org/Graphics/SVG/1.1/DTD/svg11.dtd">
<svg version="1.1" id="Layer_1" xmlns="http://www.w3.org/2000/svg" xmlns:xlink="http://www.w3.org/1999/xlink" x="0px" y="0px"
	 width="65px" height="65px" viewBox="0 0 65 65" enable-background="new 0 0 65 65" xml:space="preserve">
<g>
	<g>
		<path fill="#FF4A03" d="M20.308,26.194L4.33,42.17c-5.107,5.107-5.107,13.393,0,18.5s13.389,5.107,18.499-0.002l15.973-15.975
			L20.308,26.194z"/>
		<path fill="#0793D1" d="M44.69,38.805l15.975-15.976c5.112-5.107,5.112-13.391,0.005-18.498c-5.111-5.107-13.392-5.107-18.5,0
			L26.195,20.307L44.69,38.805z"/>
	</g>
	<g>
		<path fill="#FF8206" d="M29.177,35.068l-8.87-8.874L4.33,42.17c-3.342,3.344-4.482,8.043-3.45,12.324
			c4.282,1.033,8.981-0.109,12.323-3.453L29.177,35.068z"/>
		<path fill="#20BCF2" d="M42.17,4.331L26.195,20.307l8.871,8.872L51.04,13.204c3.345-3.342,4.487-8.041,3.455-12.323
			C50.213-0.153,45.514,0.988,42.17,4.331z"/>
	</g>
</g>
</svg>
