<?xml version="1.0" encoding="utf-8"?>
<!-- Generator: Adobe Illustrator 16.0.0, SVG Export Plug-In . SVG Version: 6.00 Build 0)  -->
<!DOCTYPE svg PUBLIC "-//W3C//DTD SVG 1.1//EN" "http://www.w3.org/Graphics/SVG/1.1/DTD/svg11.dtd">
<svg version="1.1" xmlns="http://www.w3.org/2000/svg" xmlns:xlink="http://www.w3.org/1999/xlink" x="0px" y="0px" width="65px"
	 height="65px" viewBox="0 0 65 65" enable-background="new 0 0 65 65" xml:space="preserve">
<g id="Layer_1">
	<g>
		<path fill="#35517C" d="M49.993,19.428c0,1.03-0.836,1.865-1.865,1.865H20.53c-1.031,0-1.865-0.835-1.865-1.865l0,0
			c0-1.03,0.834-1.865,1.865-1.865h27.598C49.157,17.562,49.993,18.397,49.993,19.428L49.993,19.428z"/>
		<path fill="#35517C" d="M49.993,35.651c0,1.03-0.836,1.865-1.865,1.865H20.53c-1.031,0-1.865-0.835-1.865-1.865l0,0
			c0-1.03,0.834-1.865,1.865-1.865h27.598C49.157,33.786,49.993,34.621,49.993,35.651L49.993,35.651z"/>
		<g>
			<g>
				<ellipse fill="#43BEC4" cx="13.443" cy="61.157" rx="10.36" ry="3.343"/>
				<path fill="#35517C" d="M21.341,47.246c0,1.108-0.9,2.005-2.006,2.005H7.554c-1.107,0-2.004-0.896-2.004-2.005v-1.379
					c0-1.106,0.896-2.005,2.004-2.005h11.781c1.105,0,2.006,0.898,2.006,2.005V47.246z"/>
				<path fill="#35517C" d="M19.417,10.192c0,1.108-0.896,2.007-2.006,2.007H9.474c-1.105,0-2.004-0.898-2.004-2.007V8.855
					c0-1.107,0.898-2.005,2.004-2.005h7.938c1.109,0,2.006,0.897,2.006,2.005V10.192z"/>
				<path fill="#FF4800" d="M23.052,6.478c0,0.944-0.764,1.709-1.709,1.709H5.544c-0.943,0-1.709-0.765-1.709-1.709v-4.27
					c0-0.943,0.766-1.708,1.709-1.708h15.799c0.945,0,1.709,0.765,1.709,1.708V6.478z"/>
				<path fill="#FF8500" d="M16.202,6.478v-4.27c0-0.943-0.766-1.708-1.709-1.708H5.544c-0.943,0-1.709,0.765-1.709,1.708v4.27
					c0,0.944,0.766,1.709,1.709,1.709h8.949C15.437,8.187,16.202,7.422,16.202,6.478z"/>
				<g>
					<path fill="#FFBC00" d="M6.802,5.639c0,0.139-0.113,0.25-0.25,0.25l0,0c-0.139,0-0.25-0.111-0.25-0.25v-2.59
						c0-0.139,0.111-0.251,0.25-0.251l0,0c0.137,0,0.25,0.112,0.25,0.251V5.639z"/>
					<path fill="#FFBC00" d="M9.56,5.639c0,0.139-0.113,0.25-0.252,0.25l0,0c-0.139,0-0.25-0.111-0.25-0.25v-2.59
						c0-0.139,0.111-0.251,0.25-0.251l0,0c0.139,0,0.252,0.112,0.252,0.251V5.639z"/>
					<path fill="#FFBC00" d="M12.315,5.639c0,0.139-0.113,0.25-0.25,0.25l0,0c-0.139,0-0.25-0.111-0.25-0.25v-2.59
						c0-0.139,0.111-0.251,0.25-0.251l0,0c0.137,0,0.25,0.112,0.25,0.251V5.639z"/>
					<path fill="#FFBC00" d="M15.073,5.639c0,0.139-0.113,0.25-0.25,0.25l0,0c-0.139,0-0.25-0.111-0.25-0.25v-2.59
						c0-0.139,0.111-0.251,0.25-0.251l0,0c0.137,0,0.25,0.112,0.25,0.251V5.639z"/>
					<path fill="#FFBC00" d="M17.831,5.639c0,0.139-0.113,0.25-0.252,0.25l0,0c-0.137,0-0.25-0.111-0.25-0.25v-2.59
						c0-0.139,0.113-0.251,0.25-0.251l0,0c0.139,0,0.252,0.112,0.252,0.251V5.639z"/>
					<path fill="#FFBC00" d="M20.589,5.639c0,0.139-0.113,0.25-0.252,0.25l0,0c-0.139,0-0.25-0.111-0.25-0.25v-2.59
						c0-0.139,0.111-0.251,0.25-0.251l0,0c0.139,0,0.252,0.112,0.252,0.251V5.639z"/>
				</g>
				<path fill="#5C779E" d="M23.804,45.45c0,1.107-0.896,2.006-2.004,2.006H5.089c-1.107,0-2.006-0.898-2.006-2.006l2.006-32.918
					c0-1.107,0.898-2.005,2.006-2.005h12.699c1.107,0,2.006,0.897,2.006,2.005L23.804,45.45z"/>
				<path fill="#6F8EB2" d="M9.769,45.45l0.502-32.918c0-1.107-0.898-2.005-2.006-2.005h-1.17c-1.107,0-2.006,0.897-2.006,2.005
					L3.083,45.45c0,1.107,0.898,2.006,2.006,2.006h2.674C8.872,47.456,9.769,46.558,9.769,45.45z"/>
				<path fill="#90B3D6" d="M21.38,26.15c0,0.23-0.186,0.419-0.416,0.419H5.925c-0.23,0-0.418-0.188-0.418-0.419l0,0
					c0-0.23,0.188-0.417,0.418-0.417h15.039C21.194,25.733,21.38,25.92,21.38,26.15L21.38,26.15z"/>
				<path fill="#90B3D6" d="M21.38,28.824c0,0.231-0.186,0.419-0.416,0.419H5.925c-0.23,0-0.418-0.188-0.418-0.419l0,0
					c0-0.229,0.188-0.417,0.418-0.417h15.039C21.194,28.407,21.38,28.595,21.38,28.824L21.38,28.824z"/>
				<path fill="#90B3D6" d="M21.38,31.498c0,0.231-0.186,0.419-0.416,0.419H5.925c-0.23,0-0.418-0.188-0.418-0.419l0,0
					c0-0.229,0.188-0.416,0.418-0.416h15.039C21.194,31.082,21.38,31.269,21.38,31.498L21.38,31.498z"/>
				<path fill="#1E3659" d="M26.312,59.988c0,1.107-0.898,2.005-2.006,2.005H2.581c-1.105,0-2.004-0.897-2.004-2.005V50.13
					c0-1.107,0.898-2.005,2.004-2.005h21.725c1.107,0,2.006,0.897,2.006,2.005V59.988z"/>
				<path fill="#35517C" d="M15.282,59.988V50.13c0-1.107-0.898-2.005-2.006-2.005H2.581c-1.105,0-2.004,0.897-2.004,2.005v9.858
					c0,1.107,0.898,2.005,2.004,2.005h10.695C14.384,61.993,15.282,61.096,15.282,59.988z"/>
				<circle fill="#6F8EB2" cx="15.616" cy="34.965" r="0.752"/>
				<circle fill="#6F8EB2" cx="15.616" cy="38.348" r="0.752"/>
				<circle fill="#6F8EB2" cx="15.616" cy="41.731" r="0.752"/>
			</g>
			<g>
				<ellipse fill="#43BEC4" cx="51.557" cy="61.157" rx="10.36" ry="3.343"/>
				<path fill="#35517C" d="M59.452,47.246c0,1.108-0.898,2.005-2.006,2.005H45.665c-1.107,0-2.004-0.896-2.004-2.005v-1.379
					c0-1.106,0.896-2.005,2.004-2.005h11.781c1.107,0,2.006,0.898,2.006,2.005V47.246z"/>
				<path fill="#35517C" d="M57.53,10.192c0,1.108-0.898,2.007-2.006,2.007h-7.938c-1.105,0-2.004-0.898-2.004-2.007V8.855
					c0-1.107,0.898-2.005,2.004-2.005h7.938c1.107,0,2.006,0.897,2.006,2.005V10.192z"/>
				<path fill="#FF4800" d="M61.165,6.478c0,0.944-0.766,1.709-1.709,1.709H43.655c-0.943,0-1.707-0.765-1.707-1.709v-4.27
					c0-0.943,0.764-1.708,1.707-1.708h15.801c0.943,0,1.709,0.765,1.709,1.708V6.478z"/>
				<path fill="#FF8500" d="M54.313,6.478v-4.27c0-0.943-0.764-1.708-1.709-1.708h-8.949c-0.943,0-1.707,0.765-1.707,1.708v4.27
					c0,0.944,0.764,1.709,1.707,1.709h8.949C53.55,8.187,54.313,7.422,54.313,6.478z"/>
				<g>
					<path fill="#FFBC00" d="M44.913,5.639c0,0.139-0.113,0.25-0.25,0.25l0,0c-0.139,0-0.25-0.111-0.25-0.25v-2.59
						c0-0.139,0.111-0.251,0.25-0.251l0,0c0.137,0,0.25,0.112,0.25,0.251V5.639z"/>
					<path fill="#FFBC00" d="M47.671,5.639c0,0.139-0.113,0.25-0.25,0.25l0,0c-0.139,0-0.25-0.111-0.25-0.25v-2.59
						c0-0.139,0.111-0.251,0.25-0.251l0,0c0.137,0,0.25,0.112,0.25,0.251V5.639z"/>
					<path fill="#FFBC00" d="M50.429,5.639c0,0.139-0.113,0.25-0.25,0.25l0,0c-0.141,0-0.252-0.111-0.252-0.25v-2.59
						c0-0.139,0.111-0.251,0.252-0.251l0,0c0.137,0,0.25,0.112,0.25,0.251V5.639z"/>
					<path fill="#FFBC00" d="M53.185,5.639c0,0.139-0.113,0.25-0.25,0.25l0,0c-0.139,0-0.25-0.111-0.25-0.25v-2.59
						c0-0.139,0.111-0.251,0.25-0.251l0,0c0.137,0,0.25,0.112,0.25,0.251V5.639z"/>
					<path fill="#FFBC00" d="M55.942,5.639c0,0.139-0.113,0.25-0.25,0.25l0,0c-0.139,0-0.25-0.111-0.25-0.25v-2.59
						c0-0.139,0.111-0.251,0.25-0.251l0,0c0.137,0,0.25,0.112,0.25,0.251V5.639z"/>
					<path fill="#FFBC00" d="M58.7,5.639c0,0.139-0.113,0.25-0.25,0.25l0,0c-0.141,0-0.252-0.111-0.252-0.25v-2.59
						c0-0.139,0.111-0.251,0.252-0.251l0,0c0.137,0,0.25,0.112,0.25,0.251V5.639z"/>
				</g>
				<path fill="#5C779E" d="M61.917,45.45c0,1.107-0.898,2.006-2.006,2.006H43.2c-1.105,0-2.004-0.898-2.004-2.006L43.2,12.532
					c0-1.107,0.898-2.005,2.006-2.005h12.699c1.107,0,2.006,0.897,2.006,2.005L61.917,45.45z"/>
				<path fill="#6F8EB2" d="M47.882,45.45l0.5-32.918c0-1.107-0.898-2.005-2.006-2.005h-1.17c-1.107,0-2.006,0.897-2.006,2.005
					L41.196,45.45c0,1.107,0.898,2.006,2.004,2.006h2.676C46.983,47.456,47.882,46.558,47.882,45.45z"/>
				<path fill="#90B3D6" d="M59.493,26.15c0,0.23-0.186,0.419-0.416,0.419H44.038c-0.232,0-0.42-0.188-0.42-0.419l0,0
					c0-0.23,0.188-0.417,0.42-0.417h15.039C59.308,25.733,59.493,25.92,59.493,26.15L59.493,26.15z"/>
				<path fill="#90B3D6" d="M59.493,28.824c0,0.231-0.186,0.419-0.416,0.419H44.038c-0.232,0-0.42-0.188-0.42-0.419l0,0
					c0-0.229,0.188-0.417,0.42-0.417h15.039C59.308,28.407,59.493,28.595,59.493,28.824L59.493,28.824z"/>
				<path fill="#90B3D6" d="M59.493,31.498c0,0.231-0.186,0.419-0.416,0.419H44.038c-0.232,0-0.42-0.188-0.42-0.419l0,0
					c0-0.229,0.188-0.416,0.42-0.416h15.039C59.308,31.082,59.493,31.269,59.493,31.498L59.493,31.498z"/>
				<path fill="#1E3659" d="M64.423,59.988c0,1.107-0.896,2.005-2.004,2.005H40.694c-1.107,0-2.006-0.897-2.006-2.005V50.13
					c0-1.107,0.898-2.005,2.006-2.005h21.725c1.107,0,2.004,0.897,2.004,2.005V59.988z"/>
				<path fill="#35517C" d="M53.396,59.988V50.13c0-1.107-0.898-2.005-2.006-2.005H40.694c-1.107,0-2.006,0.897-2.006,2.005v9.858
					c0,1.107,0.898,2.005,2.006,2.005H51.39C52.497,61.993,53.396,61.096,53.396,59.988z"/>
				<circle fill="#6F8EB2" cx="53.728" cy="34.965" r="0.752"/>
				<circle fill="#6F8EB2" cx="53.728" cy="38.348" r="0.752"/>
				<circle fill="#6F8EB2" cx="53.728" cy="41.731" r="0.752"/>
			</g>
		</g>
		<g>
			<path fill="#FF4800" d="M28.304,34.719c0,0.515-0.418,0.933-0.932,0.933l0,0c-0.516,0-0.932-0.418-0.932-0.933V19.987
				c0-0.515,0.416-0.933,0.932-0.933l0,0c0.514,0,0.932,0.418,0.932,0.933V34.719z"/>
			<path fill="#FF4800" d="M38.56,34.719c0,0.515-0.416,0.933-0.932,0.933l0,0c-0.514,0-0.932-0.418-0.932-0.933V19.987
				c0-0.515,0.418-0.933,0.932-0.933l0,0c0.516,0,0.932,0.418,0.932,0.933V34.719z"/>
		</g>
		<path fill="#5C779E" d="M34.085,40.592c0,0.875-0.709,1.586-1.584,1.586l0,0c-0.877,0-1.588-0.711-1.588-1.586V17.097
			c0-0.875,0.711-1.585,1.588-1.585l0,0c0.875,0,1.584,0.71,1.584,1.585V40.592z"/>
		<circle fill="#6F8EB2" cx="32.499" cy="13.46" r="4.662"/>
		<path fill="#6F8EB2" d="M36.229,41.525c0,0.669-0.543,1.212-1.211,1.212h-5.037c-0.67,0-1.211-0.543-1.211-1.212l0,0
			c0-0.669,0.541-1.212,1.211-1.212h5.037C35.687,40.313,36.229,40.856,36.229,41.525L36.229,41.525z"/>
		<g>
			<path fill="#6F8EB2" d="M29.69,39.055c0,0.355-0.289,0.644-0.643,0.644H26.37c-0.354,0-0.643-0.288-0.643-0.644l0,0
				c0-0.355,0.289-0.644,0.643-0.644h2.678C29.401,38.411,29.69,38.699,29.69,39.055L29.69,39.055z"/>
			<path fill="#6F8EB2" d="M39.271,39.055c0,0.355-0.289,0.644-0.643,0.644H35.95c-0.354,0-0.641-0.288-0.641-0.644l0,0
				c0-0.355,0.287-0.644,0.641-0.644h2.678C38.981,38.411,39.271,38.699,39.271,39.055L39.271,39.055z"/>
		</g>
	</g>
</g>
<g id="nyt_x5F_exporter_x5F_info" display="none">
</g>
</svg>
