<?xml version="1.0" encoding="utf-8"?>
<!-- Generator: Adobe Illustrator 16.0.0, SVG Export Plug-In . SVG Version: 6.00 Build 0)  -->
<!DOCTYPE svg PUBLIC "-//W3C//DTD SVG 1.1//EN" "http://www.w3.org/Graphics/SVG/1.1/DTD/svg11.dtd">
<svg version="1.1" id="Layer_1" xmlns="http://www.w3.org/2000/svg" xmlns:xlink="http://www.w3.org/1999/xlink" x="0px" y="0px"
	 width="64px" height="64px" viewBox="0 0 64 64" enable-background="new 0 0 64 64" xml:space="preserve">
<g>
	<g>
		<path fill="#26160F" d="M27.3,52.8c0,2.9-0.6,5.2-1.4,5.2s-1.4-2.3-1.4-5.2s0.6-2.1,1.4-2.1S27.3,49.9,27.3,52.8z"/>
		<path fill="#26160F" d="M40.3,52.8c0,2.9-0.6,5.2-1.4,5.2s-1.4-2.3-1.4-5.2s0.6-2.1,1.4-2.1S40.3,49.9,40.3,52.8z"/>
	</g>
	<ellipse fill="#FFFFFF" cx="32" cy="27.1" rx="30.6" ry="25.8"/>
	<path fill="#D3E2E2" d="M32,1.3c16.9,0,30.6,11.5,30.6,25.8S48.9,52.9,32,52.9"/>
	<g>
		<path fill="#3A261C" d="M45.4,33c0,9.5-6,13.8-13.4,13.8c-7.4,0-13.4-4.2-13.4-13.8c0-9.6,6-23.1,13.4-23.1
			C39.4,9.9,45.4,23.5,45.4,33z"/>
		<path fill="#26160F" d="M32,9.9c7.4,0,13.4,13.6,13.4,23.1c0,9.5-6,13.8-13.4,13.8"/>
		<g>
			<path fill="#26160F" d="M15.4,28c-2,4.3-3.3,0.6-4.2-0.4s0.1-3.2,3.8-6.2c3.7-3,9.6-6.5,10.4-5.5C26.3,16.9,19.8,18.8,15.4,28z"
				/>
			<path fill="#3A261C" d="M48.6,28c2,4.3,3.3,0.6,4.2-0.4s-0.1-3.2-3.8-6.2c-3.7-3-9.6-6.5-10.4-5.5C37.7,16.9,44.2,18.8,48.6,28z"
				/>
		</g>
	</g>
	<g>
		<path fill="#26160F" d="M22,52.5c0,5.6-1.2,10.2-2.7,10.2c-1.5,0-2.7-4.5-2.7-10.2s1.2-4.1,2.7-4.1C20.7,48.4,22,46.9,22,52.5z"/>
		<path fill="#26160F" d="M47.5,52.5c0,5.6-1.2,10.2-2.7,10.2c-1.5,0-2.7-4.5-2.7-10.2s1.2-4.1,2.7-4.1
			C46.2,48.4,47.5,46.9,47.5,52.5z"/>
	</g>
	<g>
		<g>
			<circle fill="#FFFFFF" cx="26.2" cy="28.3" r="1.9"/>
			<circle fill="#26160F" cx="26.2" cy="28.3" r="0.8"/>
			<circle fill="#FFFFFF" cx="25.7" cy="28" r="0.4"/>
		</g>
		<g>
			<circle fill="#FFFFFF" cx="37.8" cy="28.3" r="1.9"/>
			<circle fill="#26160F" cx="37.8" cy="28.3" r="0.8"/>
			<circle fill="#FFFFFF" cx="37.4" cy="28" r="0.4"/>
		</g>
	</g>
	<circle fill="#FFFFFF" cx="38.7" cy="7.5" r="1.3"/>
	<circle fill="#FFFFFF" cx="43.2" cy="11.2" r="0.3"/>
	<circle fill="#FFFFFF" cx="50.7" cy="11.3" r="2"/>
	<circle fill="#FFFFFF" cx="54.8" cy="19.4" r="0.5"/>
	<circle fill="#FFFFFF" cx="58.8" cy="24.2" r="0.6"/>
	<circle fill="#FFFFFF" cx="35.8" cy="3.2" r="0.6"/>
	<circle fill="#FFFFFF" cx="43.5" cy="7.2" r="0.8"/>
	<circle fill="#FFFFFF" cx="47.4" cy="8.1" r="0.5"/>
	<circle fill="#FFFFFF" cx="47.4" cy="16.5" r="1.1"/>
	<circle fill="#D3E2E2" cx="16.2" cy="13.9" r="2.5"/>
	<circle fill="#D3E2E2" cx="21.7" cy="8.3" r="0.5"/>
	<circle fill="#D3E2E2" cx="21.3" cy="12.4" r="0.2"/>
	<circle fill="#D3E2E2" cx="25.4" cy="7.6" r="0.3"/>
	<circle fill="#D3E2E2" cx="5" cy="22" r="1"/>
	<circle fill="#D3E2E2" cx="6.7" cy="31" r="0.9"/>
	<circle fill="#D3E2E2" cx="11.1" cy="33.2" r="0.6"/>
	<circle fill="#D3E2E2" cx="9.6" cy="19.7" r="0.4"/>
	<circle fill="#D3E2E2" cx="13.5" cy="19.2" r="0.7"/>
	<ellipse fill="#D3E2E2" cx="15.7" cy="31.3" rx="0" ry="0.1"/>
	<circle fill="#D3E2E2" cx="23.5" cy="12.7" r="0.5"/>
	<circle fill="#D3E2E2" cx="8.8" cy="13.7" r="0.8"/>
	<circle fill="#D3E2E2" cx="27.2" cy="4.3" r="0.9"/>
</g>
</svg>
