<?xml version="1.0" encoding="utf-8"?>
<!-- Generator: Adobe Illustrator 16.0.0, SVG Export Plug-In . SVG Version: 6.00 Build 0)  -->
<!DOCTYPE svg PUBLIC "-//W3C//DTD SVG 1.1//EN" "http://www.w3.org/Graphics/SVG/1.1/DTD/svg11.dtd">
<svg version="1.1" id="Layer_1" xmlns="http://www.w3.org/2000/svg" xmlns:xlink="http://www.w3.org/1999/xlink" x="0px" y="0px"
	 width="64px" height="64px" viewBox="0 0 64 64" enable-background="new 0 0 64 64" xml:space="preserve">
<g>
	<g>
		<g>
			<g>
				<g>
					<g>
						<path fill="#F7910B" d="M53.1,26.2c0,9-8.3,16.3-21.1,16.3s-21.1-7.3-21.1-16.3c0-9,8.3-22.6,21.1-22.6S53.1,17.2,53.1,26.2z"
							/>
						<path fill="#F7910B" d="M53.1,26.2c0,9-8.3,13.5-21.1,13.5s-21.1-4.5-21.1-13.5c0-9,8.3-23.9,21.1-23.9S53.1,17.2,53.1,26.2z"
							/>
						<path fill="#F9A908" d="M32,2.2c12.8,0,21.1,14.9,21.1,23.9c0,9-8.3,13.5-21.1,13.5"/>
						<path fill="#F9A908" d="M53.1,26.2c0,9-8.3,13.5-21.1,13.5s-21.1-4.5-21.1-13.5c0-9,8.3-22.6,21.1-22.6S53.1,17.2,53.1,26.2z"
							/>
						<path fill="#F9C55D" d="M10.9,26.2c0-9,8.4-24.1,21.2-24.1"/>
						<path fill="#F7910B" d="M32,3.6c12.8,0,21.1,13.6,21.1,22.6c0,9-8.3,16.3-21.1,16.3"/>
						<path fill="#EA7103" d="M32,2.2c12.8,0,21.1,14.9,21.1,23.9"/>
						<g>
							<path fill="#F9C55D" d="M29.1,24.7c0,0.8-2.4,0.5-5.4,0.5c-3,0-5.4,0.4-5.4-0.5c0-0.8,2.4-1.5,5.4-1.5
								C26.7,23.1,29.1,23.8,29.1,24.7z"/>
							<path fill="#F9A908" d="M45.7,24.7c0,0.8-2.4,0.5-5.4,0.5c-3,0-5.4,0.4-5.4-0.5c0-0.8,2.4-1.5,5.4-1.5
								C43.3,23.1,45.7,23.8,45.7,24.7z"/>
						</g>
						<circle fill="#F7910B" cx="17" cy="24.1" r="0.4"/>
						<circle fill="#F7910B" cx="13.8" cy="25.5" r="0.8"/>
						<circle fill="#F7910B" cx="15.9" cy="22.7" r="0.2"/>
						<circle fill="#F7910B" cx="19.1" cy="23.9" r="0.1"/>
						<circle fill="#F9A908" cx="46.3" cy="24.3" r="0.5"/>
						<circle fill="#F9A908" cx="48" cy="25.3" r="0.2"/>
						<circle fill="#F9A908" cx="44.3" cy="19.2" r="0.2"/>
						<circle fill="#F9A908" cx="44" cy="27.2" r="0.9"/>
						<circle fill="#F9A908" cx="49" cy="27.3" r="0.4"/>
						<circle fill="#F7910B" cx="16.3" cy="26.9" r="0.3"/>
						<circle fill="#F7910B" cx="16.8" cy="21" r="0.3"/>
						<circle fill="#F9A908" cx="13.1" cy="11.5" r="0.8"/>
						<circle fill="#F9A908" cx="15.4" cy="9" r="0.4"/>
						<circle fill="#F9A908" cx="50.9" cy="13.1" r="0.2"/>
						<circle fill="#F9A908" cx="50.3" cy="11.1" r="0.6"/>
						<circle fill="#F9A908" cx="52.1" cy="11.5" r="0.3"/>
						<circle fill="#F9A908" cx="14" cy="13.5" r="0.4"/>
					</g>
				</g>
			</g>
			<g>
				<g>
					<g>
						<g>
							<g>
								<path fill="#1E4784" d="M42.6,23.8c-0.3,0-0.6-0.1-0.8-0.3c-1-1-2.6-1-3.5,0c-0.4,0.4-1.2,0.5-1.6,0c-0.4-0.4-0.5-1.2,0-1.6
									c1.9-1.9,4.9-1.9,6.8,0c0.4,0.4,0.5,1.2,0,1.6C43.2,23.7,42.9,23.8,42.6,23.8z"/>
							</g>
							<g>
								<path fill="#02243E" d="M43.4,21.8c0.4,0.4,0.5,1.2,0,1.6c-0.2,0.2-0.5,0.3-0.8,0.3c-0.3,0-0.6-0.1-0.8-0.3
									c-1-1-2.6-1-3.5,0c-0.4,0.4-1.2,0.5-1.6,0c-0.4-0.4-0.5-1.2,0-1.6"/>
							</g>
						</g>
					</g>
				</g>
				<g>
					<g>
						<g>
							<g>
								<path fill="#1E4784" d="M21.4,23.8c0.3,0,0.6-0.1,0.8-0.3c1-1,2.6-1,3.5,0c0.4,0.4,1.2,0.5,1.6,0c0.4-0.4,0.5-1.2,0-1.6
									c-1.9-1.9-4.9-1.9-6.8,0c-0.4,0.4-0.4,1.2,0,1.6C20.8,23.7,21.1,23.8,21.4,23.8z"/>
							</g>
							<g>
								<path fill="#02243E" d="M20.6,21.8c-0.4,0.4-0.4,1.2,0,1.6c0.2,0.2,0.5,0.3,0.8,0.3c0.3,0,0.6-0.1,0.8-0.3c1-1,2.6-1,3.5,0
									c0.4,0.4,1.2,0.5,1.6,0c0.4-0.4,0.5-1.2,0-1.6"/>
							</g>
						</g>
					</g>
				</g>
			</g>
			<path fill="#F7910B" d="M37.7,30.4c0,2-2.6,4.7-5.7,4.7c-3.2,0-5.7-2.8-5.7-4.7"/>
			<g>
				<g>
					<path fill="#037A66" d="M22,12.6c0.3,0.5,1.3-0.5,2.7-1.4s2.7-1.4,2.4-1.8c-0.3-0.5-2.3-1.2-3.8-0.3C22,10,21.7,12.1,22,12.6z"
						/>
				</g>
				<g>
					<path fill="#037A66" d="M42,12.6c-0.3,0.5-1.3-0.5-2.7-1.4c-1.4-0.9-2.7-1.4-2.4-1.8c0.3-0.5,2.3-1.2,3.8-0.3
						C42,10,42.3,12.1,42,12.6z"/>
				</g>
			</g>
			<polygon fill="#D14905" points="36.9,30.5 32,33.9 27.1,30.5 32,23.8 			"/>
			<polygon fill="#F77F08" points="36.9,30.5 32,31.4 27.1,30.5 32,23.8 			"/>
			<polyline fill="#F95D06" points="32,23.8 36.9,30.5 32,31.4 			"/>
		</g>
	</g>
	<g>
		<path fill="#E5DBB1" d="M49.5,34.1l-5.8-5.8l-5.8,5.8L32,28.2l-5.8,5.8l-5.8-5.8l-5.8,5.8l-5-4.9c-0.4,2.7-0.7,5.5-0.7,8.3
			c0,18.7,10.4,26.2,23.1,26.2c12.8,0,23.1-7.5,23.1-26.2c0-2.8-0.2-5.6-0.7-8.3L49.5,34.1z"/>
		<path fill="#E5DBB1" d="M20.3,16.4l5.8-5.8l5.8,5.8l5.8-5.8l5.8,5.8l4.6-4.6C44.1,4.9,38.4,0.3,32,0.3S19.9,4.9,15.7,11.8
			L20.3,16.4z"/>
	</g>
	<g>
		<path fill="#D8CC9A" d="M32,63.7c12.8,0,23.1-7.5,23.1-26.2c0-2.8-0.2-5.6-0.7-8.3l-4.9,4.9l-5.8-5.8l-5.8,5.8L32,28.2l-5.8,5.8
			l-5.8-5.8"/>
		<path fill="#D8CC9A" d="M26.2,10.6l5.8,5.8l5.8-5.8l5.8,5.8l4.6-4.6C44.1,4.9,38.4,0.3,32,0.3"/>
	</g>
	<ellipse transform="matrix(0.9505 -0.3109 0.3109 0.9505 -14.2124 6.8256)" fill="#EDE6C5" cx="14.3" cy="48" rx="1.7" ry="7.5"/>
	
		<ellipse transform="matrix(0.7012 0.7129 -0.7129 0.7012 12.0162 -14.0089)" fill="#EDE6C5" cx="22.7" cy="7.3" rx="1.4" ry="4.5"/>
</g>
</svg>
