<?xml version="1.0" encoding="utf-8"?>
<!-- Generator: Adobe Illustrator 16.0.0, SVG Export Plug-In . SVG Version: 6.00 Build 0)  -->
<!DOCTYPE svg PUBLIC "-//W3C//DTD SVG 1.1//EN" "http://www.w3.org/Graphics/SVG/1.1/DTD/svg11.dtd">
<svg version="1.1" id="Layer_1" xmlns="http://www.w3.org/2000/svg" xmlns:xlink="http://www.w3.org/1999/xlink" x="0px" y="0px"
	 width="64px" height="64px" viewBox="0 0 64 64" enable-background="new 0 0 64 64" xml:space="preserve">
<g>
	<g>
		<g>
			<g>
				<path fill="#F7910B" d="M62.3,37.5C62.3,50.5,50.4,61,32,61C13.6,61,1.7,50.5,1.7,37.5S13.6,5,32,5C50.4,5,62.3,24.5,62.3,37.5z
					"/>
			</g>
			<g>
				<path fill="#F7910B" d="M62.3,37.5C62.3,50.5,50.4,57,32,57C13.6,57,1.7,50.5,1.7,37.5S13.6,3,32,3C50.4,3,62.3,24.5,62.3,37.5z
					"/>
			</g>
			<g>
				<path fill="#F9A908" d="M32,3c18.4,0,30.3,21.5,30.3,34.5S50.4,57,32,57"/>
			</g>
			<g>
				<path fill="#F9A908" d="M62.3,37.5C62.3,50.5,50.4,57,32,57C13.6,57,1.7,50.5,1.7,37.5S13.6,5,32,5C50.4,5,62.3,24.5,62.3,37.5z
					"/>
			</g>
			<g>
				<path fill="#F9C55D" d="M1.7,37.5C1.7,24.5,13.6,5,32,5"/>
			</g>
			<g>
				<path fill="#F7910B" d="M32,5c18.4,0,30.3,19.5,30.3,32.5S50.4,61,32,61"/>
			</g>
			<g>
				<path fill="#EA7103" d="M32,5c18.4,0,30.3,19.5,30.3,32.5"/>
			</g>
			<g>
				<g>
					<path fill="#F7910B" d="M51.7,51.8c0,2.6-6.7,7.3-13.2,7.5C28.4,59.6,28,54.4,28,51.8"/>
				</g>
			</g>
			<g>
				<circle fill="#F7910B" cx="10.3" cy="34.5" r="0.6"/>
			</g>
			<g>
				<circle fill="#F7910B" cx="5.8" cy="36.5" r="1.1"/>
			</g>
			<g>
				<circle fill="#F7910B" cx="8.8" cy="32.5" r="0.2"/>
			</g>
			<g>
				<circle fill="#F7910B" cx="13.4" cy="34.3" r="0.2"/>
			</g>
			<g>
				<circle fill="#F9A908" cx="58.6" cy="37.4" r="0.8"/>
			</g>
			<g>
				<circle fill="#F9A908" cx="55.1" cy="36.2" r="0.2"/>
			</g>
			<g>
				<circle fill="#F9A908" cx="59.2" cy="43.2" r="0.3"/>
			</g>
			<g>
				<circle fill="#F9A908" cx="55.4" cy="47" r="1.3"/>
			</g>
			<g>
				<circle fill="#F9A908" cx="56.5" cy="39.1" r="0.6"/>
			</g>
			<g>
				<circle fill="#F7910B" cx="9.3" cy="38.5" r="0.5"/>
			</g>
			<g>
				<circle fill="#F7910B" cx="10.1" cy="30.1" r="0.4"/>
			</g>
			<g>
				<circle fill="#F9A908" cx="4.8" cy="16.3" r="1.1"/>
			</g>
			<g>
				<circle fill="#F9A908" cx="8" cy="12.8" r="0.6"/>
			</g>
			<g>
				<circle fill="#F9A908" cx="59.2" cy="18.7" r="0.2"/>
			</g>
			<g>
				<circle fill="#F9A908" cx="56" cy="7.8" r="0.8"/>
			</g>
			<g>
				<circle fill="#F9A908" cx="61" cy="16.3" r="0.5"/>
			</g>
			<g>
				<circle fill="#F9A908" cx="6" cy="19.3" r="0.6"/>
			</g>
			<g>
				<g>
					<circle fill="#D87703" cx="27.9" cy="40.1" r="3.5"/>
				</g>
				<g>
					<circle fill="#D87703" cx="50.8" cy="40.1" r="3.5"/>
				</g>
				<g>
					<circle fill="#1E4784" cx="27.9" cy="39.1" r="3.5"/>
				</g>
				<g>
					<path fill="#00233F" d="M27.9,35.6c1.9,0,3.5,1.6,3.5,3.5s-1.6,3.5-3.5,3.5"/>
				</g>
				<g>
					<circle fill="#1E4784" cx="50.8" cy="39.1" r="3.5"/>
				</g>
				<g>
					<path fill="#00233F" d="M50.8,35.6c1.9,0,3.5,1.6,3.5,3.5s-1.6,3.5-3.5,3.5"/>
				</g>
			</g>
			<g>
				<g>
					<path fill="#19BCA4" d="M30.1,27.4c-2-0.7-4-0.5-4.3,0.5l7.4,2.6C33.5,29.5,32.1,28.1,30.1,27.4z"/>
				</g>
				<g>
					<path fill="#19BCA4" d="M48.6,21.2c-1.8,0.2-3.2,1.1-3.1,1.9l6.5-0.8C51.9,21.5,50.3,21,48.6,21.2z"/>
				</g>
				<g>
					<path fill="#109DA0" d="M29.3,29.7c2,0.7,3.5,1.8,3.9,0.8l-7.4-2.6C25.4,28.9,27.2,29,29.3,29.7z"/>
				</g>
				<g>
					<path fill="#109DA0" d="M48.8,23.2c1.8-0.2,3.3,0.1,3.2-0.8l-6.5,0.8C45.6,24,47,23.4,48.8,23.2z"/>
				</g>
				<g>
					<path fill="#F9C55D" d="M27.4,41.9c-4.3,0-7.8,1-7.8,2.2s3.5,0.7,7.8,0.7c4.3,0,7.8,0.6,7.8-0.7S31.8,41.9,27.4,41.9z"/>
				</g>
				<g>
					<path fill="#F9A908" d="M51.4,41.9c-4.3,0-7.8,1-7.8,2.2s3.5,0.7,7.8,0.7c4.3,0,7.8,0.6,7.8-0.7S55.7,41.9,51.4,41.9z"/>
				</g>
			</g>
		</g>
	</g>
	<g>
		<path fill="#D14905" d="M49.5,53.4c0,1.4-6.2,5.4-12.6,4.3c-5.5-0.9-8-3.7-8-5.1S33.8,50,39.4,50C45,50,49.5,52,49.5,53.4z"/>
	</g>
	<g>
		<path fill="#B73E08" d="M49.5,53.4c0,1.4-6.5,3.8-12.9,2.7c-5.5-0.9-7.6-2-7.6-3.4S33.8,50,39.4,50C45,50,49.5,52,49.5,53.4z"/>
	</g>
	<g>
		<path fill="#F95D06" d="M28.7,50.4c0,0,2.5-5.5,10-5.5s8,0.7,10.5,4.2c2,2.8,7.6,2.8,1.7,4.3c-5.7,1.5-18.8,0.5-21.2-0.3
			C26,51.9,28.7,50.4,28.7,50.4z"/>
	</g>
	<g>
		<path fill="#D14905" d="M38.7,44.9c7.5,0,8,0.7,10.5,4.2c2,2.8,7.6,2.8,1.7,4.3"/>
	</g>
	<g>
		<path fill="#F77F08" d="M38.6,50.8c-1.4-2.7-2.1-4-4.8-4.9c-3.7,1.6-5.1,4.6-5.1,4.6s-2.7,1.4,1,2.7c1.5,0.5,7.2,1.1,12.6,1.1
			C41.5,53.5,39.5,52.5,38.6,50.8z"/>
	</g>
</g>
</svg>
