<?xml version="1.0" encoding="utf-8"?>
<!-- Generator: Adobe Illustrator 16.0.0, SVG Export Plug-In . SVG Version: 6.00 Build 0)  -->
<!DOCTYPE svg PUBLIC "-//W3C//DTD SVG 1.1//EN" "http://www.w3.org/Graphics/SVG/1.1/DTD/svg11.dtd">
<svg version="1.1" xmlns="http://www.w3.org/2000/svg" xmlns:xlink="http://www.w3.org/1999/xlink" x="0px" y="0px" width="65px"
	 height="65px" viewBox="0 0 65 65" enable-background="new 0 0 65 65" xml:space="preserve">
<g id="Layer_1">
	<g>
		<g>
			<g>
				<g>
					<g>
						<g>
							<line fill="#FF9700" x1="32.499" y1="5.618" x2="32.499" y2="12.083"/>
						</g>
						<g>
							<path fill="#206DBA" d="M32.499,14.583c-1.381,0-2.5-1.119-2.5-2.5V5.618c0-1.381,1.119-2.5,2.5-2.5s2.5,1.119,2.5,2.5v6.465
								C34.999,13.464,33.88,14.583,32.499,14.583z"/>
						</g>
					</g>
					<g>
						<g>
							<line fill="#FF9700" x1="28.478" y1="3.751" x2="36.522" y2="3.751"/>
						</g>
						<g>
							<path fill="#3492C6" d="M36.522,6.251h-8.045c-1.381,0-2.5-1.119-2.5-2.5s1.119-2.5,2.5-2.5h8.045c1.381,0,2.5,1.119,2.5,2.5
								S37.903,6.251,36.522,6.251z"/>
						</g>
					</g>
				</g>
				<g>
					<g>
						<g>
							<line fill="#FF9700" x1="32.501" y1="59.382" x2="32.501" y2="52.917"/>
						</g>
						<g>
							<path fill="#206DBA" d="M32.501,61.882c-1.381,0-2.5-1.119-2.5-2.5v-6.465c0-1.381,1.119-2.5,2.5-2.5s2.5,1.119,2.5,2.5
								v6.465C35.001,60.763,33.882,61.882,32.501,61.882z"/>
						</g>
					</g>
					<g>
						<g>
							<line fill="#FF9700" x1="36.522" y1="61.249" x2="28.478" y2="61.249"/>
						</g>
						<g>
							<path fill="#3492C6" d="M36.522,63.749h-8.045c-1.381,0-2.5-1.119-2.5-2.5s1.119-2.5,2.5-2.5h8.045
								c1.381,0,2.5,1.119,2.5,2.5S37.903,63.749,36.522,63.749z"/>
						</g>
					</g>
				</g>
			</g>
			<g>
				<g>
					<g>
						<g>
							<line fill="#FF9700" x1="59.382" y1="32.499" x2="52.917" y2="32.499"/>
						</g>
						<g>
							<path fill="#206DBA" d="M59.382,34.999h-6.465c-1.381,0-2.5-1.119-2.5-2.5s1.119-2.5,2.5-2.5h6.465
								c1.381,0,2.5,1.119,2.5,2.5S60.763,34.999,59.382,34.999z"/>
						</g>
					</g>
					<g>
						<g>
							<line fill="#FF9700" x1="61.249" y1="28.478" x2="61.249" y2="36.522"/>
						</g>
						<g>
							<path fill="#3492C6" d="M61.249,39.022c-1.381,0-2.5-1.119-2.5-2.5v-8.045c0-1.381,1.119-2.5,2.5-2.5s2.5,1.119,2.5,2.5
								v8.045C63.749,37.903,62.63,39.022,61.249,39.022z"/>
						</g>
					</g>
				</g>
				<g>
					<g>
						<g>
							<line fill="#FF9700" x1="5.618" y1="32.501" x2="12.083" y2="32.501"/>
						</g>
						<g>
							<path fill="#206DBA" d="M12.083,35.001H5.618c-1.381,0-2.5-1.119-2.5-2.5s1.119-2.5,2.5-2.5h6.465c1.381,0,2.5,1.119,2.5,2.5
								S13.464,35.001,12.083,35.001z"/>
						</g>
					</g>
					<g>
						<g>
							<line fill="#FF9700" x1="3.751" y1="36.522" x2="3.751" y2="28.478"/>
						</g>
						<g>
							<path fill="#3492C6" d="M3.751,39.022c-1.381,0-2.5-1.119-2.5-2.5v-8.045c0-1.381,1.119-2.5,2.5-2.5s2.5,1.119,2.5,2.5v8.045
								C6.251,37.903,5.132,39.022,3.751,39.022z"/>
						</g>
					</g>
				</g>
			</g>
			<g>
				<g>
					<circle fill="#FFB600" cx="32.775" cy="32.83" r="19.042"/>
				</g>
				<g>
					<path fill="#FF9700" d="M19.312,19.365c7.437-7.437,19.492-7.437,26.93,0.001c7.436,7.436,7.436,19.492,0,26.928"/>
				</g>
				<g>
					<path fill="#34C0C9" d="M32.776,54.371c-11.878,0-21.541-9.663-21.541-21.541s9.663-21.542,21.541-21.542
						c11.877,0,21.541,9.664,21.541,21.542S44.653,54.371,32.776,54.371z M32.776,16.288c-9.121,0-16.541,7.421-16.541,16.542
						s7.42,16.541,16.541,16.541s16.541-7.42,16.541-16.541S41.897,16.288,32.776,16.288z"/>
				</g>
			</g>
		</g>
		<g>
			<g>
				<circle fill="#FF9700" cx="19.515" cy="33" r="1.062"/>
			</g>
			<g>
				<circle fill="#FF9700" cx="23.579" cy="33" r="1.062"/>
			</g>
			<g>
				<circle fill="#FF9700" cx="27.64" cy="33" r="1.062"/>
			</g>
		</g>
	</g>
</g>
<g id="nyt_x5F_exporter_x5F_info" display="none">
</g>
</svg>
