<?xml version="1.0" encoding="utf-8"?>
<!-- Generator: Adobe Illustrator 16.0.0, SVG Export Plug-In . SVG Version: 6.00 Build 0)  -->
<!DOCTYPE svg PUBLIC "-//W3C//DTD SVG 1.1//EN" "http://www.w3.org/Graphics/SVG/1.1/DTD/svg11.dtd">
<svg version="1.1" xmlns="http://www.w3.org/2000/svg" xmlns:xlink="http://www.w3.org/1999/xlink" x="0px" y="0px" width="65px"
	 height="65px" viewBox="0 0 65 65" enable-background="new 0 0 65 65" xml:space="preserve">
<g id="Layer_1">
	<g>
		<g>
			<g>
				
					<rect x="26.665" y="5.948" transform="matrix(0.7071 0.7071 -0.7071 0.7071 17.8485 -19.5283)" fill="#E4E892" width="11.668" height="11.67"/>
			</g>
			<g>
				<path fill="#FF9100" d="M32.499,22.537c-0.664,0-1.299-0.264-1.768-0.732l-8.252-8.254c-0.469-0.469-0.732-1.104-0.732-1.768
					s0.264-1.299,0.732-1.768l8.253-8.251c0.977-0.977,2.558-0.977,3.535,0l8.252,8.25c0.469,0.469,0.731,1.104,0.731,1.768
					s-0.263,1.299-0.731,1.768l-8.253,8.255C33.798,22.273,33.161,22.537,32.499,22.537z M27.782,11.783l4.717,4.718l4.718-4.719
					L32.5,7.067L27.782,11.783z"/>
			</g>
		</g>
		<g>
			<g>
				
					<rect x="26.664" y="47.384" transform="matrix(-0.7072 -0.707 0.707 -0.7072 17.8594 113.8313)" fill="#E4E892" width="11.669" height="11.668"/>
			</g>
			<g>
				<path fill="#FF9100" d="M32.5,63.968c-0.64,0-1.28-0.244-1.768-0.732l-8.252-8.25c-0.978-0.976-0.978-2.559-0.001-3.535
					l8.252-8.255c0.939-0.938,2.598-0.938,3.537,0l8.252,8.255c0.976,0.977,0.976,2.56-0.001,3.535l-8.252,8.25
					C33.779,63.724,33.14,63.968,32.5,63.968z M27.783,53.217l4.717,4.716l4.717-4.716L32.5,48.499L27.783,53.217z"/>
			</g>
		</g>
		<g>
			<g>
				<polygon fill="#E4E892" points="53.218,40.752 61.468,32.5 53.218,24.248 44.962,32.5 				"/>
			</g>
			<g>
				<path fill="#FF9100" d="M53.218,43.252c-0.641,0-1.279-0.244-1.768-0.731l-8.255-8.252c-0.469-0.47-0.733-1.105-0.733-1.769
					s0.265-1.299,0.733-1.769l8.255-8.252c0.977-0.975,2.559-0.976,3.535,0.001l8.25,8.252c0.977,0.977,0.977,2.559,0,3.535
					l-8.25,8.252C54.498,43.008,53.856,43.252,53.218,43.252z M48.499,32.5l4.718,4.717l4.716-4.717l-4.716-4.717L48.499,32.5z"/>
			</g>
		</g>
		<g>
			<g>
				<polygon fill="#E4E892" points="37.095,27.904 37.095,37.095 40.365,37.095 44.962,32.5 40.367,27.904 				"/>
			</g>
			<g>
				<path fill="#FF9100" d="M40.365,39.595h-3.271c-1.38,0-2.5-1.119-2.5-2.5v-9.19c0-1.381,1.12-2.5,2.5-2.5h3.272
					c0.663,0,1.299,0.264,1.768,0.732l4.596,4.596c0.469,0.469,0.731,1.104,0.731,1.768c0,0.664-0.263,1.3-0.731,1.769l-4.599,4.595
					C41.663,39.332,41.028,39.595,40.365,39.595z M39.595,30.668v3.661l1.832-1.83L39.595,30.668z"/>
			</g>
		</g>
		<g>
			<g>
				
					<rect x="5.949" y="26.666" transform="matrix(0.7071 -0.7071 0.7071 0.7071 -19.5304 17.8513)" fill="#E4E892" width="11.669" height="11.67"/>
			</g>
			<g>
				<path fill="#FF9100" d="M11.783,43.253L11.783,43.253c-0.663,0-1.299-0.264-1.767-0.732l-8.252-8.253
					c-0.977-0.977-0.977-2.56,0-3.535l8.252-8.251c0.976-0.977,2.557-0.977,3.534,0l8.253,8.252
					c0.469,0.469,0.733,1.104,0.733,1.768s-0.265,1.299-0.733,1.768l-8.253,8.252C13.082,42.989,12.446,43.253,11.783,43.253z
					 M7.067,32.5l4.716,4.718l4.718-4.717l-4.718-4.717L7.067,32.5z"/>
			</g>
		</g>
		<g>
			<g>
				<polygon fill="#E4E892" points="24.635,27.904 20.037,32.501 24.633,37.095 27.905,37.095 27.905,27.904 				"/>
			</g>
			<g>
				<path fill="#FF9100" d="M27.905,39.595h-3.272c-0.663,0-1.299-0.264-1.768-0.731l-4.597-4.594
					c-0.467-0.47-0.731-1.105-0.731-1.769s0.265-1.299,0.731-1.768l4.598-4.597c0.469-0.469,1.105-0.732,1.769-0.732h3.271
					c1.381,0,2.5,1.119,2.5,2.5v9.19C30.405,38.476,29.286,39.595,27.905,39.595z M23.573,32.501l1.832,1.831v-3.663L23.573,32.501z
					"/>
			</g>
		</g>
		<g>
			<g>
				<polygon fill="#5BF486" points="37.095,24.635 32.499,20.037 27.905,24.633 27.905,27.904 37.095,27.904 				"/>
			</g>
			<g>
				<path fill="#FF9100" d="M37.095,30.404h-9.189c-1.381,0-2.5-1.119-2.5-2.5v-3.271c0-0.663,0.264-1.299,0.73-1.768l4.595-4.596
					c0.939-0.938,2.599-0.938,3.536,0l4.597,4.598c0.469,0.469,0.731,1.104,0.731,1.768v3.27
					C39.595,29.285,38.476,30.404,37.095,30.404z M30.669,25.404h3.66l-1.83-1.831L30.669,25.404z"/>
			</g>
		</g>
		<g>
			<g>
				<polygon fill="#5BF486" points="27.905,40.365 32.5,44.963 37.095,40.367 37.095,37.095 27.905,37.095 				"/>
			</g>
			<g>
				<path fill="#FF9100" d="M32.5,47.463L32.5,47.463c-0.665,0-1.3-0.264-1.769-0.732l-4.596-4.598
					c-0.467-0.469-0.73-1.104-0.73-1.768v-3.271c0-1.381,1.119-2.5,2.5-2.5h9.189c1.381,0,2.5,1.119,2.5,2.5v3.272
					c0,0.663-0.263,1.299-0.731,1.768l-4.596,4.596C33.799,47.199,33.163,47.463,32.5,47.463z M30.67,39.595l1.831,1.832
					l1.832-1.832H30.67z"/>
			</g>
		</g>
		<g>
			<g>
				<rect x="27.905" y="27.904" fill="#5BF486" width="9.189" height="9.19"/>
			</g>
		</g>
	</g>
</g>
<g id="nyt_x5F_exporter_x5F_info" display="none">
</g>
</svg>
