<?xml version="1.0" encoding="utf-8"?>
<!-- Generator: Adobe Illustrator 16.0.0, SVG Export Plug-In . SVG Version: 6.00 Build 0)  -->
<!DOCTYPE svg PUBLIC "-//W3C//DTD SVG 1.1//EN" "http://www.w3.org/Graphics/SVG/1.1/DTD/svg11.dtd">
<svg version="1.1" xmlns="http://www.w3.org/2000/svg" xmlns:xlink="http://www.w3.org/1999/xlink" x="0px" y="0px" width="65px"
	 height="65px" viewBox="0 0 65 65" enable-background="new 0 0 65 65" xml:space="preserve">
<g id="Layer_1">
	<g>
		<g>
			<path fill="#5E3E27" d="M44.49,60.313l-6.828-17.842h-6.605l7.672,20.047c0.607,1.59,2.391,2.386,3.982,1.776
				C44.303,63.687,45.1,61.904,44.49,60.313z"/>
			<g>
				<path fill="#5E3E27" d="M20.51,60.313l6.826-17.842h6.605L26.27,62.519c-0.607,1.59-2.391,2.386-3.982,1.776
					C20.695,63.687,19.9,61.904,20.51,60.313z"/>
			</g>
		</g>
		<g>
			<path fill="#A57450" d="M32.557,39.235c1.205,1.205,1.205,3.158,0,4.363L12.664,63.491c-1.203,1.203-3.16,1.203-4.361,0l0,0
				c-1.205-1.205-1.205-3.157,0-4.363l19.893-19.893C29.398,38.03,31.352,38.03,32.557,39.235L32.557,39.235z"/>
			<path fill="#825E40" d="M32.557,39.235L32.557,39.235c1.205,1.205,1.205,3.158,0,4.363L12.664,63.491
				c-1.203,1.203-3.16,1.203-4.361,0l0,0c-1.205-1.205-1.205-3.157,0-4.363"/>
			<path fill="#825E40" d="M32.443,39.235c-1.207,1.205-1.207,3.158,0,4.363l19.891,19.893c1.205,1.203,3.16,1.203,4.365,0l0,0
				c1.203-1.205,1.203-3.157,0-4.363L36.805,39.235C35.6,38.03,33.646,38.03,32.443,39.235L32.443,39.235z"/>
		</g>
		<path fill="#A57450" d="M32.5,36.626c1.701,0,3.084,1.381,3.084,3.086V61.31c0,1.701-1.383,3.084-3.084,3.084l0,0
			c-1.703,0-3.086-1.38-3.086-3.084l0.002-21.598C29.414,38.007,30.797,36.626,32.5,36.626L32.5,36.626z"/>
		<path fill="#825E40" d="M32.5,36.626L32.5,36.626c1.701,0,3.084,1.381,3.084,3.086V61.31c0,1.701-1.383,3.084-3.084,3.084l0,0
			c-1.703,0-3.086-1.38-3.086-3.084"/>
		<g>
			<g>
				<g>
					<path fill="#FF7F00" d="M32.529,12.07c-5.303,1.132-9.377,7.8-9.377,15.88s4.074,10.823,9.377,11.25V12.07z"/>
				</g>
				<path fill="#FF4800" d="M32.475,12.07c5.299,1.132,9.373,7.8,9.373,15.88s-4.074,10.823-9.373,11.25V12.07z"/>
			</g>
			<g>
				<g>
					<path fill="#FFBC00" d="M32.52,21.666c-3.428,0.728-6.061,5.037-6.061,10.261c0,5.227,2.633,6.998,6.061,7.273V21.666z"/>
				</g>
				<path fill="#FF7F00" d="M32.484,21.666c3.424,0.728,6.055,5.037,6.055,10.261c0,5.227-2.631,6.998-6.055,7.273V21.666z"/>
			</g>
			<path fill="#B73D13" d="M32.5,36.626c-1.334,0-2.463,0.854-2.891,2.042c0.896,0.272,1.857,0.442,2.865,0.526V39.2
				c0.01-0.002,0.02-0.002,0.027-0.004c0.008,0.002,0.018,0.002,0.027,0.004v-0.006c1.004-0.084,1.965-0.254,2.861-0.526
				C34.963,37.479,33.834,36.626,32.5,36.626z"/>
		</g>
		<circle fill="#FF7F00" cx="21.587" cy="39.227" r="1.021"/>
		<circle fill="#FF7F00" cx="18.047" cy="26.839" r="2.246"/>
		<circle fill="#FF7F00" cx="20.021" cy="34.803" r="0.953"/>
		<circle fill="#FFBC00" cx="21.042" cy="30.243" r="0.341"/>
		<circle fill="#FFBC00" cx="19.137" cy="18.128" r="1.43"/>
		<circle fill="#FFBC00" cx="45.204" cy="36.98" r="2.042"/>
		<circle fill="#FFBC00" cx="47.382" cy="27.044" r="1.089"/>
		<circle fill="#FFBC00" cx="33.633" cy="4.72" r="2.723"/>
		<circle fill="#FF7F00" cx="43.57" cy="16.971" r="1.361"/>
		<circle fill="#FF7F00" cx="40.371" cy="38.817" r="0.34"/>
		<circle fill="#FFBC00" cx="24.853" cy="11.459" r="0.749"/>
		<circle fill="#FFBC00" cx="41.392" cy="10.573" r="0.272"/>
		<circle fill="#FFBC00" cx="30.162" cy="8.6" r="0.613"/>
		<circle fill="#FFBC00" cx="27.372" cy="1.726" r="1.226"/>
	</g>
</g>
<g id="nyt_x5F_exporter_x5F_info" display="none">
</g>
</svg>
