<?xml version="1.0" encoding="utf-8"?>
<!-- Generator: Adobe Illustrator 16.0.0, SVG Export Plug-In . SVG Version: 6.00 Build 0)  -->
<!DOCTYPE svg PUBLIC "-//W3C//DTD SVG 1.1//EN" "http://www.w3.org/Graphics/SVG/1.1/DTD/svg11.dtd">
<svg version="1.1" id="Layer_1" xmlns="http://www.w3.org/2000/svg" xmlns:xlink="http://www.w3.org/1999/xlink" x="0px" y="0px"
	 width="64px" height="64px" viewBox="0 0 64 64" enable-background="new 0 0 64 64" xml:space="preserve">
<g>
	<g>
		<g>
			<g>
				<g>
					<g>
						<circle fill="#063F66" cx="32.2" cy="34.2" r="26.9"/>
						<path fill="#022730" d="M13.1,15.2c10.5-10.5,27.5-10.5,38,0s10.5,27.5,0,38"/>
					</g>
				</g>
			</g>
		</g>
	</g>
	<g>
		<path fill="#D60909" d="M61.5,48c4.3-11.9,1.6-25.7-7.9-35.2C44.1,3.3,30.3,0.6,18.4,4.9L61.5,48z"/>
		<path fill="#B70B0B" d="M18.4,4.9L61.5,48c4.3-11.9,1.6-25.7-7.9-35.2"/>
		<path fill="#FF9100" d="M52,38.5c5.9-10.2,7-20.4,1.7-25.7s-15.5-4.3-25.7,1.7L52,38.5z"/>
		<path fill="#E04F07" d="M27.9,14.4l24,24c5.9-10.2,7-20.4,1.7-25.7"/>
		<path fill="#D60909" d="M43.1,29.6C50.6,21,55,14.2,53.6,12.8c-1.4-1.4-8.2,3-16.8,10.5L43.1,29.6z"/>
		<path fill="#B70B0B" d="M36.8,23.3l6.3,6.3C50.6,21,55,14.2,53.6,12.8"/>
		<g>
			<path fill="#DCF9F6" d="M39.7,28.9l-2.1-2.1L21.1,43.3c-2.2,2.2-2.2,5.7,0,7.9c2.2,2.2,5.7,2.2,7.9,0l-2.1-2.1c-1,1-2.7,1-3.7,0
				c-1-1-1-2.7,0-3.7L39.7,28.9z"/>
		</g>
		<circle fill="#DCF9F6" cx="29.4" cy="48.8" r="3"/>
	</g>
	<g>
		<g>
			<path fill="#DCF9F6" d="M9.6,25.5c0-0.2-0.2-0.5-0.4-0.5H0.9c-0.2,0-0.4,0.3-0.4,0.5l0,0c0,0.2,0.2,0.5,0.4,0.5h8.4
				C9.4,26,9.6,25.7,9.6,25.5L9.6,25.5z"/>
		</g>
		<g>
			<g>
				<g>
					<g>
						<path fill="#8FEFDC" d="M14.2,45.1c-2.7,0.1-5-2.1-5-4.8c-0.1-2.2,1.7-4.1,3.9-4.1c1.8-0.1,3.4,1.4,3.4,3.2
							c0,1.5-1.2,2.8-2.7,2.8c-1.3,0-2.3-1-2.3-2.2c0-0.3,0.2-0.5,0.4-0.5c0.3,0,0.5,0.2,0.5,0.4c0,0.8,0.6,1.3,1.4,1.3
							c1,0,1.8-0.9,1.8-1.9c0-1.3-1.1-2.4-2.5-2.3c-1.7,0-3.1,1.5-3,3.2c0.1,2.2,1.9,3.9,4.1,3.9c2.8-0.1,5-2.4,5-5.2
							c-0.1-3.6-3.1-6-6.6-5.9c-0.3,0-0.5-0.6-0.5-0.8c0-0.3,0.3-0.2,0.5-0.2c4.1-0.1,7.4,2.8,7.6,6.9C20.2,42.2,17.6,45,14.2,45.1z
							"/>
					</g>
					<path fill="#8FEFDC" d="M13,32.5c0,0.3-0.2,0.5-0.5,0.5H1.5C1.2,33,1,32.8,1,32.5v-0.1C1,32.2,1.2,32,1.5,32h11.1
						C12.8,32,13,32.2,13,32.5L13,32.5z"/>
					<path fill="#8FEFDC" d="M12,35.5c0,0.3-0.2,0.5-0.5,0.5H1.5C1.2,36,1,35.8,1,35.5v-0.1C1,35.2,1.2,35,1.5,35h10.1
						C11.8,35,12,35.2,12,35.5L12,35.5z"/>
				</g>
				<g>
					<g>
						<path fill="#DCF9F6" d="M14.2,15.6c-2.7-0.1-5,2.1-5,4.8c-0.1,2.2,1.7,4.1,3.9,4.1c1.8,0.1,3.4-1.4,3.4-3.2
							c0-1.5-1.2-2.8-2.7-2.8c-1.3,0-2.3,1-2.3,2.2c0,0.3,0.2,0.5,0.4,0.5c0.3,0,0.5-0.2,0.5-0.4c0-0.7,0.6-1.3,1.4-1.3
							c1,0,1.8,0.9,1.8,1.9c0,1.3-1.1,2.4-2.5,2.3c-1.7,0-3.1-1.5-3-3.2c0.1-2.2,1.9-3.9,4.1-3.9c2.8,0.1,5,2.4,5,5.2
							c-0.1,3.6-2.9,6.3-6.5,6.2c-0.3,0-0.7,0.3-0.7,0.5c0,0.3,0.4,0.5,0.7,0.5c4.1,0.1,7.3-3.1,7.4-7.2
							C20.2,18.5,17.6,15.7,14.2,15.6z"/>
					</g>
					<path fill="#DCF9F6" d="M13.2,28.5c0-0.3-0.2-0.5-0.5-0.5H1.9c-0.3,0-0.5,0.2-0.5,0.5l0,0c0,0.3,0.2,0.5,0.5,0.5h10.8
						C12.9,29,13.2,28.8,13.2,28.5L13.2,28.5z"/>
				</g>
			</g>
			<g>
				<circle fill="#DCF9F6" cx="7.3" cy="22.9" r="0.4"/>
				<circle fill="#8FEFDC" cx="7.3" cy="37.8" r="0.4"/>
			</g>
			<circle fill="#DCF9F6" cx="17.3" cy="30.3" r="0.4"/>
		</g>
	</g>
</g>
</svg>
