<?xml version="1.0" encoding="utf-8"?>
<!-- Generator: Adobe Illustrator 16.0.0, SVG Export Plug-In . SVG Version: 6.00 Build 0)  -->
<!DOCTYPE svg PUBLIC "-//W3C//DTD SVG 1.1//EN" "http://www.w3.org/Graphics/SVG/1.1/DTD/svg11.dtd">
<svg version="1.1" id="Layer_1" xmlns="http://www.w3.org/2000/svg" xmlns:xlink="http://www.w3.org/1999/xlink" x="0px" y="0px"
	 width="64px" height="64px" viewBox="0 0 64 64" enable-background="new 0 0 64 64" xml:space="preserve">
<g>
	<g>
		<path fill="#C16A02" d="M10.2,35.5c-0.4,1.2-1.7,1.9-2.9,1.6c-1.2-0.4-1.9-1.7-1.6-2.9"/>
		<g>
			<polygon fill="#EAAC0F" points="30,51 31.3,50.5 32.6,51 31.5,58.3 31.3,59.9 30,61.7 			"/>
			<polygon fill="#FFC114" points="30,44.5 32.1,44.1 34.2,44.5 33.1,51.9 32.1,53.4 30,51.9 			"/>
			<polygon fill="#C16A02" points="33.6,63 30,63 30,60.4 32.6,61.4 			"/>
		</g>
		<g>
			<polygon fill="#EAAC0F" points="9,51 10.4,50.5 11.8,51 10.8,58.3 10.4,59.9 9,61.7 			"/>
			<polygon fill="#FFC114" points="9,43.5 11.2,44.1 13.4,44.5 12.4,51.9 11.2,53.4 9,51.9 			"/>
			<polygon fill="#C16A02" points="13,63 9,63 9,60.4 11.8,61.4 			"/>
		</g>
		<polygon fill="#FFC114" points="37.7,35 27.9,35 34,6 38,6 		"/>
		<polygon fill="#C16A02" points="34,3.6 35.4,4 34.6,0.9 34,0.7 		"/>
		<polygon fill="#C16A02" points="36,4 37.2,4.4 36.5,1.3 36,1.2 		"/>
		<polygon fill="#EAAC0F" points="37.9,34.5 34.1,34.3 34.6,6 38,6 		"/>
		<path fill="#EAAC0F" d="M20,44h-7.5c-2.8,0-5-2.2-5-5l0,0c0-2.8,2.2-5,5-5H15"/>
		<path fill="#FFD215" d="M20,44h-7.5c-2.8,0-5-2.2-5-5l0,0"/>
		<path fill="#FFC114" d="M37.9,34c0,7-5.6,12.6-12.6,12.6c-6.9,0-12.6-5.6-12.6-12.6H37.9z"/>
		<path fill="#EAAC0F" d="M25,34v12.5C32.2,46.8,37.9,41,37.9,34H25z"/>
		<path fill="#FFC114" d="M25,34v8.6c5,0,9.1-3.6,9.1-8.6H25z"/>
		<path fill="#EAAC0F" d="M25,34v5.4c3,0,5.8-2.4,5.8-5.4H25z"/>
		<path fill="#EAAC0F" d="M33,4h-3.2c0,2,1.2,3.1,3.2,3.1V4z"/>
		<circle fill="#FF9A15" cx="31.8" cy="43.5" r="3.3"/>
		<path fill="#EA840A" d="M34.2,41.2c1.3,1.3,1.3,3.4,0,4.6c-1.3,1.3-3.4,1.3-4.6,0"/>
		<circle fill="#FF9A15" cx="11.5" cy="43.5" r="3.3"/>
		<path fill="#EA840A" d="M13.8,41.2c1.3,1.3,1.3,3.4,0,4.6c-1.3,1.3-3.4,1.3-4.6,0"/>
		<g>
			<circle fill="#C16A02" cx="15.8" cy="36.7" r="0.8"/>
			<circle fill="#C16A02" cx="19.2" cy="36.7" r="0.8"/>
			<circle fill="#C16A02" cx="22.7" cy="36.7" r="0.8"/>
		</g>
		<g>
			<path fill="#C16A02" d="M16.6,39.6c0,0.4-0.4,0.8-0.8,0.8S15,40,15,39.6c0-0.4,0.4-0.8,0.8-0.8S16.6,39.2,16.6,39.6z"/>
			<path fill="#C16A02" d="M20,39.6c0,0.4-0.4,0.8-0.8,0.8s-0.8-0.4-0.8-0.8c0-0.4,0.4-0.8,0.8-0.8S20,39.2,20,39.6z"/>
			<path fill="#C16A02" d="M23.5,39.6c0,0.4-0.4,0.8-0.8,0.8s-0.8-0.4-0.8-0.8c0-0.4,0.4-0.8,0.8-0.8S23.5,39.2,23.5,39.6z"/>
		</g>
		<polygon fill="#FFC114" points="41.9,9 34,9 34,4.4 41.2,6.5 		"/>
		<polyline fill="#EAAC0F" points="41.1,6.6 41.9,9 35,9 		"/>
	</g>
	<g>
		<g>
			<polygon fill="#51D687" points="55.2,14 52,6.7 55.2,2.8 58.4,6.7 			"/>
			<polyline fill="#2CAF61" points="55.2,2.8 58.4,6.7 55.2,14 			"/>
		</g>
		<polygon fill="#CCAF89" points="57.8,61.7 55.2,63.3 52.6,61.7 55.2,15.6 		"/>
		<polygon fill="#BC9B73" points="57.8,61.7 55.2,63.3 55,61.5 55.2,15.6 		"/>
		<g>
			<polygon fill="#51D687" points="54.4,14.5 47,11.7 46.5,6.7 51.5,7.1 			"/>
			<polyline fill="#2CAF61" points="46.5,6.7 51.5,7.1 54.4,14.5 			"/>
		</g>
		<g>
			<polygon fill="#51D687" points="53.8,15.5 46.6,18.7 42.7,15.5 46.6,12.3 			"/>
			<polyline fill="#2CAF61" points="42.7,15.5 46.6,12.3 53.8,15.5 			"/>
		</g>
	</g>
</g>
</svg>
