<?xml version="1.0" encoding="utf-8"?>
<!-- Generator: Adobe Illustrator 16.0.0, SVG Export Plug-In . SVG Version: 6.00 Build 0)  -->
<!DOCTYPE svg PUBLIC "-//W3C//DTD SVG 1.1//EN" "http://www.w3.org/Graphics/SVG/1.1/DTD/svg11.dtd">
<svg version="1.1" xmlns="http://www.w3.org/2000/svg" xmlns:xlink="http://www.w3.org/1999/xlink" x="0px" y="0px" width="65px"
	 height="65px" viewBox="0 0 65 65" enable-background="new 0 0 65 65" xml:space="preserve">
<g id="Layer_1">
	<g>
		<g>
			<g>
				<g>
					<path fill="#263847" d="M61.833,12.833c0,3.098-2.513,5.61-5.609,5.61H8.776c-3.098,0-5.609-2.513-5.609-5.61l0,0
						c0-3.099,2.512-5.61,5.609-5.61h47.447C59.32,7.223,61.833,9.734,61.833,12.833L61.833,12.833z"/>
				</g>
				<g>
					<path fill="#5E686D" d="M56.224,20.943H8.776c-4.471,0-8.109-3.639-8.109-8.11s3.639-8.11,8.109-8.11h47.447
						c4.471,0,8.109,3.639,8.109,8.11S60.694,20.943,56.224,20.943z M8.776,9.723c-1.714,0-3.109,1.396-3.109,3.11
						s1.396,3.11,3.109,3.11h47.447c1.713,0,3.109-1.396,3.109-3.11s-1.396-3.11-3.109-3.11H8.776z"/>
				</g>
			</g>
			<g>
				<g>
					<path fill="#263847" d="M61.833,32.5c0,3.098-2.513,5.61-5.609,5.61H8.776c-3.098,0-5.609-2.513-5.609-5.61l0,0
						c0-3.099,2.512-5.61,5.609-5.61h47.447C59.32,26.89,61.833,29.401,61.833,32.5L61.833,32.5z"/>
				</g>
				<g>
					<path fill="#5E686D" d="M56.224,40.61H8.776c-4.471,0-8.109-3.639-8.109-8.11s3.639-8.11,8.109-8.11h47.447
						c4.471,0,8.109,3.639,8.109,8.11S60.694,40.61,56.224,40.61z M8.776,29.39c-1.714,0-3.109,1.396-3.109,3.11
						s1.396,3.11,3.109,3.11h47.447c1.713,0,3.109-1.396,3.109-3.11s-1.396-3.11-3.109-3.11H8.776z"/>
				</g>
			</g>
			<g>
				<g>
					<path fill="#263847" d="M61.833,52.167c0,3.098-2.513,5.61-5.609,5.61H8.776c-3.098,0-5.609-2.513-5.609-5.61l0,0
						c0-3.099,2.512-5.61,5.609-5.61h47.447C59.32,46.557,61.833,49.068,61.833,52.167L61.833,52.167z"/>
				</g>
				<g>
					<path fill="#5E686D" d="M56.224,60.277H8.776c-4.471,0-8.109-3.639-8.109-8.11s3.639-8.11,8.109-8.11h47.447
						c4.471,0,8.109,3.639,8.109,8.11S60.694,60.277,56.224,60.277z M8.776,49.057c-1.714,0-3.109,1.396-3.109,3.11
						s1.396,3.11,3.109,3.11h47.447c1.713,0,3.109-1.396,3.109-3.11s-1.396-3.11-3.109-3.11H8.776z"/>
				</g>
			</g>
		</g>
		<g>
			<g>
				<circle fill="#F980C8" cx="32.5" cy="32.5" r="9"/>
			</g>
			<g>
				<path fill="#FF0890" d="M41.5,32.5c0,4.971-4.029,9-9,9c-4.972,0-9-4.029-9-9"/>
			</g>
			<g>
				<path fill="#5E686D" d="M32.5,44c-6.341,0-11.501-5.159-11.501-11.5S26.159,21,32.5,21s11.499,5.159,11.499,11.5
					S38.841,44,32.5,44z M32.5,26c-3.584,0-6.501,2.916-6.501,6.5S28.916,39,32.5,39s6.499-2.916,6.499-6.5S36.084,26,32.5,26z"/>
			</g>
		</g>
	</g>
</g>
<g id="nyt_x5F_exporter_x5F_info" display="none">
</g>
</svg>
