<?xml version="1.0" encoding="utf-8"?>
<!-- Generator: Adobe Illustrator 16.0.0, SVG Export Plug-In . SVG Version: 6.00 Build 0)  -->
<!DOCTYPE svg PUBLIC "-//W3C//DTD SVG 1.1//EN" "http://www.w3.org/Graphics/SVG/1.1/DTD/svg11.dtd">
<svg version="1.1" xmlns="http://www.w3.org/2000/svg" xmlns:xlink="http://www.w3.org/1999/xlink" x="0px" y="0px" width="65px"
	 height="65px" viewBox="0 0 65 65" enable-background="new 0 0 65 65" xml:space="preserve">
<g id="Layer_1">
	<g>
		<g>
			<g>
				<path fill="#0AA06E" d="M7.022,61.958c-0.296-1.532-1.642-2.691-3.261-2.691S0.796,60.426,0.5,61.958H7.022z"/>
				<path fill="#0AA06E" d="M12.248,61.958c-0.296-1.532-1.643-2.691-3.262-2.691s-2.965,1.159-3.261,2.691H12.248z"/>
				<path fill="#0AA06E" d="M17.474,61.958c-0.297-1.532-1.643-2.691-3.262-2.691s-2.965,1.159-3.263,2.691H17.474z"/>
				<path fill="#0AA06E" d="M22.698,61.958c-0.296-1.532-1.642-2.691-3.261-2.691s-2.967,1.159-3.262,2.691H22.698z"/>
				<path fill="#0AA06E" d="M27.924,61.958c-0.297-1.532-1.643-2.691-3.262-2.691s-2.965,1.159-3.262,2.691H27.924z"/>
				<path fill="#0AA06E" d="M33.148,61.958c-0.297-1.532-1.642-2.691-3.262-2.691c-1.619,0-2.965,1.159-3.261,2.691H33.148z"/>
				<path fill="#0AA06E" d="M38.374,61.958c-0.296-1.532-1.643-2.691-3.262-2.691s-2.965,1.159-3.261,2.691H38.374z"/>
				<path fill="#0AA06E" d="M43.6,61.958c-0.297-1.532-1.643-2.691-3.262-2.691s-2.965,1.159-3.262,2.691H43.6z"/>
				<path fill="#0AA06E" d="M48.824,61.958c-0.296-1.532-1.642-2.691-3.262-2.691c-1.619,0-2.965,1.159-3.261,2.691H48.824z"/>
				<path fill="#0AA06E" d="M54.05,61.958c-0.297-1.532-1.643-2.691-3.263-2.691c-1.618,0-2.964,1.159-3.26,2.691H54.05z"/>
				<path fill="#0AA06E" d="M59.274,61.958c-0.296-1.532-1.642-2.691-3.261-2.691s-2.966,1.159-3.262,2.691H59.274z"/>
				<path fill="#0AA06E" d="M64.5,61.958c-0.297-1.532-1.643-2.691-3.262-2.691s-2.965,1.159-3.261,2.691H64.5z"/>
			</g>
		</g>
		<g>
			<path fill="#007EAA" d="M35.917,60.571c0,1.742-1.413,1.348-3.154,1.348h-0.526c-1.741,0-3.154,0.395-3.154-1.348l1-15.473
				c0-1.742,0.413-3.154,2.154-3.154h0.526c1.741,0,2.154,1.412,2.154,3.154L35.917,60.571z"/>
			<path fill="#0064A8" d="M29.761,50.093c0.804,2.104,1.739,3.314,2.739,3.316c0.998,0,1.934-1.213,2.738-3.316
				c0,0,0.001,0,0.002,0.002l-0.323-4.996c0-1.742-0.413-3.154-2.154-3.154h-0.526c-1.741,0-2.154,1.412-2.154,3.154l-0.322,4.996
				C29.76,50.093,29.761,50.093,29.761,50.093z"/>
		</g>
		<g>
			<g>
				<g>
					<path fill="#078457" d="M44.643,41.073c0.736,1.276,0.301,2.906-0.977,3.643l0,0c-1.275,0.737-2.906,0.301-3.643-0.976
						L20.357,9.677c-0.738-1.275-0.301-2.906,0.975-3.643l0,0c1.277-0.737,2.908-0.3,3.643,0.976L44.643,41.073z"/>
					<path fill="#078457" d="M29.986,45.062c-0.383,1.423-1.844,2.267-3.266,1.886l0,0c-1.426-0.383-2.27-1.844-1.887-3.269
						l10.18-37.992c0.379-1.422,1.844-2.267,3.266-1.886l0,0c1.426,0.382,2.266,1.844,1.887,3.268L29.986,45.062z"/>
					<path fill="#078457" d="M16.801,37.519c-1.275,0.735-2.906,0.298-3.643-0.977l0,0c-0.738-1.277-0.301-2.908,0.977-3.646
						L48.197,13.23c1.275-0.736,2.906-0.298,3.645,0.976l0,0c0.736,1.279,0.297,2.908-0.977,3.646L16.801,37.519z"/>
					<path fill="#078457" d="M12.812,22.862c-1.422-0.384-2.266-1.845-1.885-3.269l0,0c0.383-1.423,1.842-2.269,3.266-1.886
						l37.994,10.179c1.422,0.382,2.268,1.845,1.885,3.267l0,0c-0.381,1.425-1.844,2.267-3.268,1.889L12.812,22.862z"/>
				</g>
			</g>
			<g>
				<g>
					<path fill="#078457" d="M50.865,32.899c1.275,0.736,1.715,2.366,0.977,3.643l0,0c-0.736,1.276-2.367,1.714-3.643,0.977
						L14.135,17.852c-1.277-0.735-1.713-2.366-0.977-3.642l0,0c0.738-1.277,2.369-1.714,3.643-0.977L50.865,32.899z"/>
					<path fill="#078457" d="M40.168,43.682c0.381,1.424-0.463,2.885-1.885,3.267l0,0c-1.426,0.381-2.889-0.463-3.27-1.888
						L24.834,7.068c-0.383-1.421,0.463-2.885,1.885-3.266l0,0c1.426-0.383,2.885,0.464,3.268,1.887L40.168,43.682z"/>
					<path fill="#078457" d="M24.977,43.741c-0.736,1.274-2.367,1.711-3.643,0.976l0,0c-1.277-0.737-1.715-2.368-0.977-3.646
						L40.023,7.009c0.736-1.275,2.367-1.711,3.643-0.978l0,0c1.277,0.74,1.711,2.37,0.979,3.646L24.977,43.741z"/>
					<path fill="#078457" d="M14.193,33.043c-1.422,0.379-2.883-0.465-3.266-1.889l0,0c-0.379-1.423,0.461-2.885,1.885-3.267
						l37.994-10.18c1.422-0.382,2.887,0.463,3.266,1.885l0,0c0.383,1.425-0.463,2.885-1.887,3.27L14.193,33.043z"/>
				</g>
			</g>
			<g>
				<path fill="#0AA06E" d="M35.166,45.042c0,1.473-1.193,2.666-2.666,2.666l0,0c-1.475,0-2.668-1.193-2.668-2.666V5.708
					c0-1.473,1.193-2.666,2.668-2.666l0,0c1.473,0,2.666,1.193,2.666,2.666V45.042z"/>
				<path fill="#0AA06E" d="M20.479,41.167c-1.041,1.041-2.729,1.041-3.771,0l0,0c-1.041-1.043-1.043-2.73,0-3.773L44.52,9.581
					c1.041-1.041,2.73-1.041,3.771,0l0,0c1.043,1.043,1.041,2.73,0,3.773L20.479,41.167z"/>
				<path fill="#0AA06E" d="M12.832,28.042c-1.473-0.002-2.666-1.195-2.666-2.668l0,0c0-1.475,1.193-2.668,2.668-2.668h39.332
					c1.473,0,2.668,1.195,2.668,2.666l0,0c0,1.477-1.195,2.668-2.668,2.67H12.832z"/>
				<path fill="#0AA06E" d="M16.707,13.354c-1.041-1.043-1.041-2.73,0-3.773l0,0c1.043-1.041,2.73-1.043,3.773,0l27.812,27.812
					c1.041,1.041,1.041,2.73,0.002,3.771l0,0c-1.045,1.043-2.732,1.041-3.775,0.002L16.707,13.354z"/>
			</g>
			<circle fill="#21D695" cx="17.123" cy="17.915" r="0.875"/>
			<circle fill="#21D695" cx="25.186" cy="10.853" r="0.562"/>
			<circle fill="#21D695" cx="39.373" cy="12.165" r="1.375"/>
			<circle fill="#21D695" cx="20.436" cy="29.478" r="1.062"/>
			<circle fill="#21D695" cx="24.561" cy="24.228" r="1.938"/>
			<circle fill="#21D695" cx="33.936" cy="24.103" r="1.062"/>
			<circle fill="#21D695" cx="42.061" cy="19.728" r="2.062"/>
			<circle fill="#21D695" cx="48.498" cy="19.915" r="0.875"/>
			<circle fill="#21D695" cx="46.561" cy="30.353" r="1.562"/>
			<circle fill="#21D695" cx="30.061" cy="16.978" r="0.438"/>
			<circle fill="#21D695" cx="29.061" cy="37.478" r="1.812"/>
			<circle fill="#21D695" cx="39.873" cy="35.29" r="1.75"/>
			<circle fill="#21D695" cx="32.436" cy="13.728" r="0.812"/>
			<circle fill="#21D695" cx="23.061" cy="38.228" r="0.688"/>
			<circle fill="#21D695" cx="33.873" cy="30.29" r="0.875"/>
		</g>
	</g>
</g>
<g id="nyt_x5F_exporter_x5F_info" display="none">
</g>
</svg>
