<?xml version="1.0" encoding="utf-8"?>
<!-- Generator: Adobe Illustrator 16.0.0, SVG Export Plug-In . SVG Version: 6.00 Build 0)  -->
<!DOCTYPE svg PUBLIC "-//W3C//DTD SVG 1.1//EN" "http://www.w3.org/Graphics/SVG/1.1/DTD/svg11.dtd">
<svg version="1.1" id="Layer_1" xmlns="http://www.w3.org/2000/svg" xmlns:xlink="http://www.w3.org/1999/xlink" x="0px" y="0px"
	 width="64px" height="64px" viewBox="0 0 64 64" enable-background="new 0 0 64 64" xml:space="preserve">
<g>
	<rect x="2" y="23.6" fill="#A00D0D" width="60" height="39"/>
	<polyline fill="#680303" points="2,23.6 62,23.6 62,62.5 	"/>
	<rect x="2" y="28.5" fill="#E2E0C3" width="60" height="1.6"/>
	<rect x="44.2" y="34.4" fill="#E2E0C3" width="17.8" height="1.6"/>
	<rect x="47.2" y="40.3" fill="#E2E0C3" width="14.8" height="1.6"/>
	<rect x="45.9" y="46.2" fill="#E2E0C3" width="16.1" height="1.6"/>
	<rect x="47.4" y="52.1" fill="#E2E0C3" width="14.6" height="1.6"/>
	<rect x="45.8" y="58" fill="#E2E0C3" width="16.2" height="1.6"/>
	<rect x="2" y="34.4" fill="#E2E0C3" width="17.8" height="1.6"/>
	<rect x="2" y="40.3" fill="#E2E0C3" width="13.7" height="1.6"/>
	<rect x="2" y="46.2" fill="#E2E0C3" width="14.4" height="1.6"/>
	<rect x="2" y="52.1" fill="#E2E0C3" width="15.5" height="1.6"/>
	<rect x="2" y="58" fill="#E2E0C3" width="15.7" height="1.6"/>
	<g>
		<g>
			<rect x="31.3" y="14.2" fill="#1B9E79" width="1.6" height="4.3"/>
			<g>
				<polygon fill="#2ED887" points="39.8,15.6 32,7.8 24.2,15.6 				"/>
				<polygon fill="#2CBF7F" points="39.8,15.6 32,7.8 29.8,15.6 				"/>
			</g>
			<g>
				<polygon fill="#2ED887" points="38.2,12.4 32,6.1 25.8,12.4 				"/>
				<polygon fill="#2CBF7F" points="38.2,12.4 32,6.1 30.3,12.4 				"/>
			</g>
			<g>
				<polygon fill="#2ED887" points="37,9.9 32,5 27.1,9.9 				"/>
				<polygon fill="#2CBF7F" points="37,9.9 32,5 30.7,9.9 				"/>
			</g>
			<g>
				<polygon fill="#2ED887" points="35.6,7.7 32,4.1 28.5,7.7 				"/>
				<polygon fill="#2CBF7F" points="35.6,7.7 32,4.1 31,7.7 				"/>
			</g>
			<path fill="#1B9E79" d="M34.5,18.6c0,0.2-1.1,0.1-2.5,0.1c-1.4,0-2.5,0.1-2.5-0.1c0-0.2,1.1-0.3,2.5-0.3
				C33.4,18.2,34.5,18.4,34.5,18.6z"/>
		</g>
		<polygon fill="#FC97D3" points="32,1.5 32.6,2.6 33.8,2.8 32.9,3.7 33.1,5 32,4.4 30.9,5 31.1,3.7 30.2,2.8 31.4,2.6 		"/>
		<polygon fill="#DD588E" points="32,1.5 32.6,2.6 33.8,2.8 32.9,3.7 33.1,5 32,4.4 30.9,5 31.5,4 30.2,2.8 31.7,3 		"/>
		<path fill="none" stroke="#FF73B9" stroke-width="0.2862" stroke-miterlimit="10" d="M31.7,8.9c0,0.7-0.6,1.3-1.3,1.3
			c-0.7,0-1.3-0.6-1.3-1.3"/>
		<path fill="none" stroke="#FFEF5F" stroke-width="0.2862" stroke-miterlimit="10" d="M33.5,6.3c0,0.7-0.6,1.3-1.3,1.3
			c-0.7,0-1.3-0.6-1.3-1.3"/>
		<path fill="none" stroke="#61F4FF" stroke-width="0.2862" stroke-miterlimit="10" d="M34.7,12.6c0,0.7-0.6,1.3-1.3,1.3
			c-0.7,0-1.3-0.6-1.3-1.3"/>
	</g>
	<g>
		<g>
			<g>
				<g>
					<path fill="#38A31D" d="M53.2,6.1c0,0,2.4-0.6,2.2-1.4c-0.2-0.8-2.6-2.5-3.4-0.9c-0.7,1.7-0.2,2.6-0.2,2.6l1.5,0.1L53.2,6.1z"
						/>
					<path fill="#20890A" d="M52.1,3.8c-0.7,1.7-0.2,2.6-0.2,2.6l1.5,0.1l-0.1-0.4c0,0,2.4-0.6,2.2-1.4"/>
					<path fill="#136804" d="M52.1,3.8c-0.7,1.7-0.2,2.6-0.2,2.6l1.5,0.1l-0.1-0.4"/>
				</g>
				<g>
					<path fill="#38A31D" d="M50.2,6.1c0,0-2.4-0.6-2.2-1.4c0.2-0.8,2.6-2.5,3.4-0.9c0.7,1.7,0.2,2.6,0.2,2.6l-1.5,0.1L50.2,6.1z"/>
					<path fill="#20890A" d="M51.4,3.8c0.7,1.7,0.2,2.6,0.2,2.6l-1.5,0.1l0-0.4c0,0-2.4-0.6-2.2-1.4"/>
					<path fill="#136804" d="M51.4,3.8c0.7,1.7,0.2,2.6,0.2,2.6l-1.5,0.1l0-0.4"/>
				</g>
			</g>
			<g>
				<path fill="#21B3F4" d="M57.9,17.8c0,0.5-0.4,0.8-0.8,0.8H46.4c-0.5,0-0.8-0.4-0.8-0.8V7.2c0-0.5,0.4-0.8,0.8-0.8H57
					c0.5,0,0.8,0.4,0.8,0.8V17.8z"/>
				<path fill="#098CC6" d="M45.6,7.2c0-0.5,0.4-0.8,0.8-0.8H57c0.5,0,0.8,0.4,0.8,0.8v10.6c0,0.5-0.4,0.8-0.8,0.8h-5.3"/>
				<g>
					<g>
						<path fill="#F4CE89" d="M45.7,8.9c0.6,0,1.1,0.5,1.1,1.1c0,0.6-0.5,1.1-1.1,1.1"/>
						<circle fill="#F4CE89" cx="48.7" cy="10" r="1.1"/>
						<circle fill="#F4CE89" cx="51.7" cy="10" r="1.1"/>
						<circle fill="#F4CE89" cx="54.8" cy="10" r="1.1"/>
						<path fill="#F4CE89" d="M57.8,11.1c-0.6,0-1.1-0.5-1.1-1.1c0-0.6,0.5-1.1,1.1-1.1"/>
					</g>
					<g>
						<path fill="#F4B840" d="M45.7,8.9c0.6,0,1.1,0.5,1.1,1.1c0,0.6-0.5,1.1-1.1,1.1"/>
						<path fill="#F4B840" d="M48.7,8.9c0.6,0,1.1,0.5,1.1,1.1c0,0.6-0.5,1.1-1.1,1.1"/>
						<path fill="#F4B840" d="M51.7,8.9c0.6,0,1.1,0.5,1.1,1.1c0,0.6-0.5,1.1-1.1,1.1"/>
						<path fill="#F4B840" d="M54.8,8.9c0.6,0,1.1,0.5,1.1,1.1c0,0.6-0.5,1.1-1.1,1.1"/>
					</g>
				</g>
				<g>
					<g>
						<path fill="#F4CE89" d="M48.3,12.2c0,0.6-0.5,1.1-1.1,1.1s-1.1-0.5-1.1-1.1c0-0.6,0.5-1.1,1.1-1.1S48.3,11.6,48.3,12.2z"/>
						<path fill="#F4CE89" d="M51.3,12.2c0,0.6-0.5,1.1-1.1,1.1c-0.6,0-1.1-0.5-1.1-1.1c0-0.6,0.5-1.1,1.1-1.1
							C50.8,11.1,51.3,11.6,51.3,12.2z"/>
						<path fill="#F4CE89" d="M54.4,12.2c0,0.6-0.5,1.1-1.1,1.1c-0.6,0-1.1-0.5-1.1-1.1c0-0.6,0.5-1.1,1.1-1.1
							C53.9,11.1,54.4,11.6,54.4,12.2z"/>
						<path fill="#F4CE89" d="M57.4,12.2c0,0.6-0.5,1.1-1.1,1.1c-0.6,0-1.1-0.5-1.1-1.1c0-0.6,0.5-1.1,1.1-1.1
							C56.9,11.1,57.4,11.6,57.4,12.2z"/>
					</g>
					<g>
						<path fill="#F4B840" d="M47.2,11.1c0.6,0,1.1,0.5,1.1,1.1c0,0.6-0.5,1.1-1.1,1.1"/>
						<path fill="#F4B840" d="M50.2,11.1c0.6,0,1.1,0.5,1.1,1.1c0,0.6-0.5,1.1-1.1,1.1"/>
						<path fill="#F4B840" d="M53.3,11.1c0.6,0,1.1,0.5,1.1,1.1c0,0.6-0.5,1.1-1.1,1.1"/>
						<path fill="#F4B840" d="M56.3,11.1c0.6,0,1.1,0.5,1.1,1.1c0,0.6-0.5,1.1-1.1,1.1"/>
					</g>
				</g>
				<g>
					<g>
						<path fill="#F4CE89" d="M45.7,13.6c0.6,0,1.1,0.5,1.1,1.1c0,0.6-0.5,1.1-1.1,1.1"/>
						<circle fill="#F4CE89" cx="48.7" cy="14.7" r="1.1"/>
						<circle fill="#F4CE89" cx="51.7" cy="14.7" r="1.1"/>
						<circle fill="#F4CE89" cx="54.8" cy="14.7" r="1.1"/>
						<path fill="#F4CE89" d="M57.8,15.8c-0.6,0-1.1-0.5-1.1-1.1c0-0.6,0.5-1.1,1.1-1.1"/>
					</g>
					<g>
						<path fill="#F4B840" d="M45.7,13.6c0.6,0,1.1,0.5,1.1,1.1c0,0.6-0.5,1.1-1.1,1.1"/>
						<path fill="#F4B840" d="M48.7,13.6c0.6,0,1.1,0.5,1.1,1.1c0,0.6-0.5,1.1-1.1,1.1"/>
						<path fill="#F4B840" d="M51.7,13.6c0.6,0,1.1,0.5,1.1,1.1c0,0.6-0.5,1.1-1.1,1.1"/>
						<path fill="#F4B840" d="M54.8,13.6c0.6,0,1.1,0.5,1.1,1.1c0,0.6-0.5,1.1-1.1,1.1"/>
					</g>
				</g>
				<g>
					<g>
						<path fill="#F4CE89" d="M48.3,17c0,0.6-0.5,1.1-1.1,1.1s-1.1-0.5-1.1-1.1c0-0.6,0.5-1.1,1.1-1.1S48.3,16.3,48.3,17z"/>
						<path fill="#F4CE89" d="M51.3,17c0,0.6-0.5,1.1-1.1,1.1c-0.6,0-1.1-0.5-1.1-1.1c0-0.6,0.5-1.1,1.1-1.1
							C50.8,15.9,51.3,16.3,51.3,17z"/>
						<path fill="#F4CE89" d="M54.4,17c0,0.6-0.5,1.1-1.1,1.1c-0.6,0-1.1-0.5-1.1-1.1c0-0.6,0.5-1.1,1.1-1.1
							C53.9,15.9,54.4,16.3,54.4,17z"/>
						<path fill="#F4CE89" d="M57.4,17c0,0.6-0.5,1.1-1.1,1.1c-0.6,0-1.1-0.5-1.1-1.1c0-0.6,0.5-1.1,1.1-1.1
							C56.9,15.9,57.4,16.3,57.4,17z"/>
					</g>
					<g>
						<path fill="#F4B840" d="M47.2,15.9c0.6,0,1.1,0.5,1.1,1.1c0,0.6-0.5,1.1-1.1,1.1"/>
						<path fill="#F4B840" d="M50.2,15.9c0.6,0,1.1,0.5,1.1,1.1c0,0.6-0.5,1.1-1.1,1.1"/>
						<path fill="#F4B840" d="M53.3,15.9c0.6,0,1.1,0.5,1.1,1.1c0,0.6-0.5,1.1-1.1,1.1"/>
						<path fill="#F4B840" d="M56.3,15.9c0.6,0,1.1,0.5,1.1,1.1c0,0.6-0.5,1.1-1.1,1.1"/>
					</g>
				</g>
				<rect x="45.3" y="6.1" fill="#F4B840" width="12.9" height="2.4"/>
				<rect x="46.3" y="6.1" fill="#E28C37" width="11.9" height="2.4"/>
			</g>
			<rect x="50.1" y="6.1" opacity="0.7" fill="#136804" width="3.2" height="12.6"/>
			<g>
				<g>
					<path fill="#38A31D" d="M55.4,5.4c0,0,2.4,0.2,1.7,2.9c-0.7,2.7,2.3,2,2.3,2s-0.7,0.8-1.1,0.8l0.7,0.9c0,0-2.3,0.1-3.1-1.3
						c-0.8-1.4,0.2-2.6,0.3-3.8C56.4,5.7,55.4,5.4,55.4,5.4z"/>
					<path fill="#47B528" d="M55.9,10.8c-0.8-1.4,0.2-2.6,0.3-3.8c0.1-1.2-0.8-1.6-0.8-1.6s2.4,0.2,1.7,2.9c-0.7,2.7,2.3,2,2.3,2"/>
					<path fill="#38A31D" d="M56.2,7c0.1-1.2-0.8-1.6-0.8-1.6s2.4,0.2,1.7,2.9"/>
					<path fill="#20890A" d="M58.3,11.1l0.7,0.9c0,0-2.3,0.1-3.1-1.3"/>
				</g>
				<g>
					<path fill="#38A31D" d="M48,5.4c0,0-2.4,0.2-1.7,2.9c0.7,2.7-2.3,2-2.3,2s0.7,0.8,1.1,0.8l-0.7,0.9c0,0,2.3,0.1,3.1-1.3
						c0.8-1.4-0.2-2.6-0.3-3.8C47,5.7,48,5.4,48,5.4z"/>
					<path fill="#47B528" d="M47.5,10.8c0.8-1.4-0.2-2.6-0.3-3.8C47,5.7,48,5.4,48,5.4s-2.4,0.2-1.7,2.9c0.7,2.7-2.3,2-2.3,2"/>
					<path fill="#38A31D" d="M47.2,7C47,5.7,48,5.4,48,5.4s-2.4,0.2-1.7,2.9"/>
					<path fill="#20890A" d="M45.1,11.1l-0.7,0.9c0,0,2.3,0.1,3.1-1.3"/>
				</g>
			</g>
		</g>
		<g opacity="0.4">
			<g>
				<circle fill="#91ED77" cx="50.6" cy="6.5" r="0.2"/>
				<circle fill="#91ED77" cx="51.3" cy="6.5" r="0.2"/>
				<circle fill="#91ED77" cx="52.1" cy="6.5" r="0.2"/>
				<circle fill="#91ED77" cx="52.8" cy="6.5" r="0.2"/>
			</g>
			<g>
				<circle fill="#91ED77" cx="50.6" cy="7.2" r="0.2"/>
				<circle fill="#91ED77" cx="51.3" cy="7.2" r="0.2"/>
				<circle fill="#91ED77" cx="52.1" cy="7.2" r="0.2"/>
				<circle fill="#91ED77" cx="52.8" cy="7.2" r="0.2"/>
			</g>
			<g>
				<circle fill="#91ED77" cx="50.6" cy="8" r="0.2"/>
				<circle fill="#91ED77" cx="51.3" cy="8" r="0.2"/>
				<circle fill="#91ED77" cx="52.1" cy="8" r="0.2"/>
				<circle fill="#91ED77" cx="52.8" cy="8" r="0.2"/>
			</g>
			<g>
				<circle fill="#91ED77" cx="50.6" cy="8.7" r="0.2"/>
				<circle fill="#91ED77" cx="51.3" cy="8.7" r="0.2"/>
				<circle fill="#91ED77" cx="52.1" cy="8.7" r="0.2"/>
				<circle fill="#91ED77" cx="52.8" cy="8.7" r="0.2"/>
			</g>
			<g>
				<circle fill="#91ED77" cx="50.6" cy="9.4" r="0.2"/>
				<circle fill="#91ED77" cx="51.3" cy="9.4" r="0.2"/>
				<circle fill="#91ED77" cx="52.1" cy="9.4" r="0.2"/>
				<circle fill="#91ED77" cx="52.8" cy="9.4" r="0.2"/>
			</g>
			<g>
				<path fill="#91ED77" d="M50.8,10.1c0,0.1-0.1,0.2-0.2,0.2c-0.1,0-0.2-0.1-0.2-0.2c0-0.1,0.1-0.2,0.2-0.2
					C50.7,9.9,50.8,10,50.8,10.1z"/>
				<path fill="#91ED77" d="M51.5,10.1c0,0.1-0.1,0.2-0.2,0.2c-0.1,0-0.2-0.1-0.2-0.2c0-0.1,0.1-0.2,0.2-0.2
					C51.4,9.9,51.5,10,51.5,10.1z"/>
				<path fill="#91ED77" d="M52.2,10.1c0,0.1-0.1,0.2-0.2,0.2c-0.1,0-0.2-0.1-0.2-0.2c0-0.1,0.1-0.2,0.2-0.2
					C52.2,9.9,52.2,10,52.2,10.1z"/>
				<path fill="#91ED77" d="M53,10.1c0,0.1-0.1,0.2-0.2,0.2s-0.2-0.1-0.2-0.2c0-0.1,0.1-0.2,0.2-0.2S53,10,53,10.1z"/>
			</g>
			<g>
				<circle fill="#91ED77" cx="50.6" cy="10.8" r="0.2"/>
				<circle fill="#91ED77" cx="51.3" cy="10.8" r="0.2"/>
				<circle fill="#91ED77" cx="52.1" cy="10.8" r="0.2"/>
				<circle fill="#91ED77" cx="52.8" cy="10.8" r="0.2"/>
			</g>
			<g>
				<circle fill="#91ED77" cx="50.6" cy="11.6" r="0.2"/>
				<circle fill="#91ED77" cx="51.3" cy="11.6" r="0.2"/>
				<circle fill="#91ED77" cx="52.1" cy="11.6" r="0.2"/>
				<circle fill="#91ED77" cx="52.8" cy="11.6" r="0.2"/>
			</g>
			<g>
				<circle fill="#91ED77" cx="50.6" cy="12.3" r="0.2"/>
				<circle fill="#91ED77" cx="51.3" cy="12.3" r="0.2"/>
				<circle fill="#91ED77" cx="52.1" cy="12.3" r="0.2"/>
				<circle fill="#91ED77" cx="52.8" cy="12.3" r="0.2"/>
			</g>
			<g>
				<circle fill="#91ED77" cx="50.6" cy="13" r="0.2"/>
				<circle fill="#91ED77" cx="51.3" cy="13" r="0.2"/>
				<circle fill="#91ED77" cx="52.1" cy="13" r="0.2"/>
				<circle fill="#91ED77" cx="52.8" cy="13" r="0.2"/>
			</g>
			<g>
				<circle fill="#91ED77" cx="50.6" cy="13.7" r="0.2"/>
				<circle fill="#91ED77" cx="51.3" cy="13.7" r="0.2"/>
				<circle fill="#91ED77" cx="52.1" cy="13.7" r="0.2"/>
				<circle fill="#91ED77" cx="52.8" cy="13.7" r="0.2"/>
			</g>
			<g>
				<circle fill="#91ED77" cx="50.6" cy="14.4" r="0.2"/>
				<circle fill="#91ED77" cx="51.3" cy="14.4" r="0.2"/>
				<circle fill="#91ED77" cx="52.1" cy="14.4" r="0.2"/>
				<circle fill="#91ED77" cx="52.8" cy="14.4" r="0.2"/>
			</g>
			<g>
				<path fill="#91ED77" d="M50.8,15.2c0,0.1-0.1,0.2-0.2,0.2c-0.1,0-0.2-0.1-0.2-0.2c0-0.1,0.1-0.2,0.2-0.2
					C50.7,15,50.8,15.1,50.8,15.2z"/>
				<path fill="#91ED77" d="M51.5,15.2c0,0.1-0.1,0.2-0.2,0.2c-0.1,0-0.2-0.1-0.2-0.2c0-0.1,0.1-0.2,0.2-0.2
					C51.4,15,51.5,15.1,51.5,15.2z"/>
				<path fill="#91ED77" d="M52.2,15.2c0,0.1-0.1,0.2-0.2,0.2c-0.1,0-0.2-0.1-0.2-0.2c0-0.1,0.1-0.2,0.2-0.2
					C52.2,15,52.2,15.1,52.2,15.2z"/>
				<path fill="#91ED77" d="M53,15.2c0,0.1-0.1,0.2-0.2,0.2s-0.2-0.1-0.2-0.2c0-0.1,0.1-0.2,0.2-0.2S53,15.1,53,15.2z"/>
			</g>
			<g>
				<circle fill="#91ED77" cx="50.6" cy="15.9" r="0.2"/>
				<circle fill="#91ED77" cx="51.3" cy="15.9" r="0.2"/>
				<circle fill="#91ED77" cx="52.1" cy="15.9" r="0.2"/>
				<circle fill="#91ED77" cx="52.8" cy="15.9" r="0.2"/>
			</g>
			<g>
				<circle fill="#91ED77" cx="50.6" cy="16.6" r="0.2"/>
				<circle fill="#91ED77" cx="51.3" cy="16.6" r="0.2"/>
				<circle fill="#91ED77" cx="52.1" cy="16.6" r="0.2"/>
				<circle fill="#91ED77" cx="52.8" cy="16.6" r="0.2"/>
			</g>
			<g>
				<circle fill="#91ED77" cx="50.6" cy="17.3" r="0.2"/>
				<circle fill="#91ED77" cx="51.3" cy="17.3" r="0.2"/>
				<circle fill="#91ED77" cx="52.1" cy="17.3" r="0.2"/>
				<circle fill="#91ED77" cx="52.8" cy="17.3" r="0.2"/>
			</g>
			<g>
				<path fill="#91ED77" d="M50.8,18c0,0.1-0.1,0.2-0.2,0.2c-0.1,0-0.2-0.1-0.2-0.2c0-0.1,0.1-0.2,0.2-0.2
					C50.7,17.8,50.8,17.9,50.8,18z"/>
				<path fill="#91ED77" d="M51.5,18c0,0.1-0.1,0.2-0.2,0.2c-0.1,0-0.2-0.1-0.2-0.2c0-0.1,0.1-0.2,0.2-0.2
					C51.4,17.8,51.5,17.9,51.5,18z"/>
				<path fill="#91ED77" d="M52.2,18c0,0.1-0.1,0.2-0.2,0.2c-0.1,0-0.2-0.1-0.2-0.2c0-0.1,0.1-0.2,0.2-0.2
					C52.2,17.8,52.2,17.9,52.2,18z"/>
				<path fill="#91ED77" d="M53,18c0,0.1-0.1,0.2-0.2,0.2s-0.2-0.1-0.2-0.2c0-0.1,0.1-0.2,0.2-0.2S53,17.9,53,18z"/>
			</g>
		</g>
	</g>
	<g>
		<path fill="#A1E5F7" d="M17.3,15.7c1-1.1,1.6-2.5,1.6-4c0-3.3-2.6-5.9-5.9-5.9c-3.3,0-5.9,2.6-5.9,5.9c0,1.6,0.6,3,1.6,4H17.3z"/>
		<path fill="#61CCF2" d="M8.7,15.7h8.5c1-1.1,1.6-2.5,1.6-4c0-3.3-2.6-5.9-5.9-5.9"/>
		<path fill="#BCBCBC" d="M18.6,17.2c0,0.8,0.2,1.4-0.6,1.4h-10c-0.8,0-0.8-0.6-0.8-1.4l0,0c0-0.8,0.6-1.4,1.4-1.4h8.5
			C18,15.8,18.6,16.4,18.6,17.2L18.6,17.2z"/>
		<path fill="#A5A5A5" d="M18.6,17.2L18.6,17.2c0,0.8,0.2,1.4-0.6,1.4h-10c-0.8,0-0.8-0.6-0.8-1.4l0,0"/>
		<circle fill="#D7F7FF" cx="9.6" cy="9.4" r="0.4"/>
		<circle fill="#D7F7FF" cx="10.4" cy="8.4" r="0.1"/>
		<circle fill="#D7F7FF" cx="9.6" cy="11.5" r="0.4"/>
		<circle fill="#D7F7FF" cx="11" cy="10.4" r="0.1"/>
		<circle fill="#D7F7FF" cx="10.1" cy="10.4" r="0.1"/>
		<circle fill="#D7F7FF" cx="10.8" cy="9.3" r="0.1"/>
		<circle fill="#D7F7FF" cx="12.2" cy="7.7" r="0.1"/>
		<circle fill="#D7F7FF" cx="11.3" cy="7.1" r="0.2"/>
		<circle fill="#D7F7FF" cx="8.8" cy="12.8" r="0.1"/>
		<path fill="#D7F7FF" d="M9.6,12.6C9.6,12.7,9.6,12.7,9.6,12.6c-0.1,0.1-0.2,0-0.2,0C9.5,12.6,9.5,12.5,9.6,12.6
			C9.6,12.5,9.6,12.6,9.6,12.6z"/>
		<circle fill="#D7F7FF" cx="8.5" cy="13.5" r="0.2"/>
		<circle fill="#D7F7FF" cx="8.6" cy="11.9" r="0.2"/>
		
			<ellipse transform="matrix(-0.9167 -0.3996 0.3996 -0.9167 12.246 21.4827)" fill="#D7F7FF" cx="8.4" cy="9.5" rx="0.5" ry="1.9"/>
		<path fill="#0EB1DD" d="M17.3,15.7c1-1.1,1.6-2.5,1.6-4c0-3.3-2.6-5.9-5.9-5.9"/>
		<circle fill="#A1E5F7" cx="12.5" cy="9.4" r="0.2"/>
		<circle fill="#A1E5F7" cx="12.2" cy="10.4" r="0.1"/>
		<circle fill="#A1E5F7" cx="13.6" cy="8.8" r="0.4"/>
		<path fill="#A1E5F7" d="M15.1,11.2c0,0.1-0.1,0.2-0.1,0.2c-0.1,0-0.1-0.1-0.1-0.2c0-0.1,0.1-0.2,0.1-0.2
			C15.1,11.1,15.1,11.2,15.1,11.2z"/>
		<circle fill="#A1E5F7" cx="12.2" cy="9" r="0.1"/>
		<circle fill="#A1E5F7" cx="11.8" cy="10.6" r="0.1"/>
		<circle fill="#A1E5F7" cx="11.5" cy="11.8" r="0.2"/>
		<circle fill="#A1E5F7" cx="13.7" cy="10.1" r="0.2"/>
		<circle fill="#A1E5F7" cx="13.1" cy="7.7" r="0.2"/>
		<circle fill="#A1E5F7" cx="13" cy="6.8" r="0.1"/>
		<circle fill="#A1E5F7" cx="12.9" cy="10.1" r="0.1"/>
		<circle fill="#A1E5F7" cx="13.4" cy="11.1" r="0.3"/>
		<path fill="#A1E5F7" d="M14.4,10.5C14.4,10.6,14.3,10.6,14.4,10.5c-0.1,0.1-0.2,0-0.2,0C14.2,10.5,14.2,10.4,14.4,10.5
			C14.3,10.4,14.4,10.5,14.4,10.5z"/>
		<circle fill="#A1E5F7" cx="14.1" cy="9.5" r="0.1"/>
		<g>
			<rect x="11.7" y="13.4" fill="#0A9ACC" width="2.5" height="2"/>
			<path fill="#0A9ACC" d="M14.6,13.4c0,0.1-0.1,0.2-0.2,0.2h-2.9c-0.1,0-0.2-0.1-0.2-0.2l0,0c0-0.1,0.1-0.2,0.2-0.2h2.9
				C14.5,13.2,14.6,13.3,14.6,13.4L14.6,13.4z"/>
		</g>
		<circle fill="#61CCF2" cx="15.1" cy="8.1" r="0.1"/>
		<circle fill="#61CCF2" cx="15.8" cy="9.4" r="0.4"/>
		<path fill="#61CCF2" d="M16.6,11.5C16.6,11.5,16.5,11.6,16.6,11.5c-0.1,0.1-0.2,0.1-0.2,0C16.4,11.4,16.4,11.4,16.6,11.5
			C16.5,11.4,16.6,11.4,16.6,11.5z"/>
		<path fill="#61CCF2" d="M16.7,12.2C16.7,12.3,16.7,12.3,16.7,12.2c-0.2,0.1-0.2,0.1-0.2,0C16.5,12.2,16.6,12.1,16.7,12.2
			C16.7,12.1,16.7,12.2,16.7,12.2z"/>
		<circle fill="#61CCF2" cx="17.5" cy="11.9" r="0.1"/>
		<circle fill="#61CCF2" cx="17.7" cy="13.2" r="0.3"/>
		<circle fill="#61CCF2" cx="17" cy="13.3" r="0.1"/>
		<path fill="#61CCF2" d="M15.7,10.4C15.7,10.5,15.7,10.5,15.7,10.4c-0.1,0.1-0.2,0-0.2,0C15.6,10.4,15.6,10.3,15.7,10.4
			C15.7,10.3,15.7,10.4,15.7,10.4z"/>
		<circle fill="#61CCF2" cx="17" cy="10.4" r="0.5"/>
		<circle fill="#61CCF2" cx="17.2" cy="11.5" r="0.2"/>
		<circle fill="#61CCF2" cx="14.8" cy="9.1" r="0.1"/>
		<circle fill="#61CCF2" cx="14.1" cy="7.2" r="0.1"/>
		<circle fill="#61CCF2" cx="15.5" cy="8.6" r="0.1"/>
		<circle fill="#61CCF2" cx="16.9" cy="9.3" r="0.1"/>
		<circle fill="#61CCF2" cx="16.5" cy="8.4" r="0.3"/>
		<ellipse fill="#61CCF2" cx="18" cy="10.2" rx="0" ry="0.2"/>
		<circle fill="#61CCF2" cx="15.1" cy="7.4" r="0.2"/>
		<path fill="#61CCF2" d="M14.8,6.7c0,0.1-0.1,0.2-0.2,0.2c-0.1,0-0.1-0.1-0.1-0.2c0-0.1,0.1-0.1,0.1-0.1
			C14.7,6.5,14.8,6.6,14.8,6.7z"/>
		<path fill="#EDB311" d="M13.5,5.7c0,0.2-0.2,0.3-0.3,0.3h-0.4c-0.2,0-0.3-0.2-0.3-0.3l0,0c0-0.2,0.2-0.3,0.3-0.3h0.4
			C13.4,5.4,13.5,5.5,13.5,5.7L13.5,5.7z"/>
		<path fill="#EA8D13" d="M13.5,5.7L13.5,5.7c0,0.2-0.2,0.3-0.3,0.3h-0.4c-0.2,0-0.3-0.2-0.3-0.3l0,0"/>
		<path fill="#0A9ACC" d="M16.8,15.5c0,0.1-0.1,0.3-0.3,0.3H9.4c-0.1,0-0.3-0.1-0.3-0.3l0,0c0-0.1,0.1-0.3,0.3-0.3h7.2
			C16.7,15.2,16.8,15.3,16.8,15.5L16.8,15.5z"/>
		<polygon fill="#0A9ACC" points="14.6,13.5 13,13.4 11.4,13.5 13,11.8 		"/>
		<path fill="#0A9ACC" d="M15,15.3c0,0.1-0.1,0.2-0.2,0.2l0,0c-0.1,0-0.2-0.1-0.2-0.2v-1c0-0.1,0.1-0.2,0.2-0.2l0,0
			c0.1,0,0.2,0.1,0.2,0.2V15.3z"/>
		<path fill="#0A9ACC" d="M15.7,15.3c0,0.1-0.1,0.2-0.2,0.2l0,0c-0.1,0-0.2-0.1-0.2-0.2v-1c0-0.1,0.1-0.2,0.2-0.2l0,0
			c0.1,0,0.2,0.1,0.2,0.2V15.3z"/>
		<path fill="#0A9ACC" d="M16.3,15.3c0,0.1-0.1,0.2-0.2,0.2l0,0c-0.1,0-0.2-0.1-0.2-0.2v-1c0-0.1,0.1-0.2,0.2-0.2l0,0
			c0.1,0,0.2,0.1,0.2,0.2V15.3z"/>
		<path fill="#0A9ACC" d="M16.5,14.8C16.5,14.8,16.5,14.8,16.5,14.8l-2,0.1c0,0-0.1,0-0.1-0.1l0,0c0,0,0-0.1,0.1-0.1L16.5,14.8
			C16.5,14.7,16.5,14.7,16.5,14.8L16.5,14.8z"/>
		<circle fill="#61CCF2" cx="12.7" cy="14.2" r="0.5"/>
		<rect x="12.6" y="13.4" fill="#0A9ACC" width="0.2" height="1.7"/>
		<rect x="11.8" y="14.1" fill="#0A9ACC" width="1.7" height="0.2"/>
		<rect x="13.6" y="11.8" fill="#0A9ACC" width="0.6" height="1.8"/>
		<path fill="#0A9ACC" d="M14.4,11.8c0,0.1-0.1,0.2-0.2,0.2h-0.5c-0.1,0-0.2-0.1-0.2-0.2l0,0c0-0.1,0.1-0.2,0.2-0.2h0.5
			C14.3,11.6,14.4,11.7,14.4,11.8L14.4,11.8z"/>
		<polygon fill="#0A9ACC" points="10.9,14.6 11.1,14.6 10.8,14.1 10.9,14.1 10.7,13.6 10.8,13.6 10.5,12.9 10.1,13.6 10.2,13.6 
			10,14.1 10.1,14.1 9.9,14.6 10,14.6 9.7,15.2 10.2,15.2 11.2,15.2 		"/>
		<polygon fill="#0A9ACC" points="10,14.8 10.1,14.8 10,14.5 10,14.5 9.9,14.3 9.9,14.3 9.7,13.9 9.5,14.3 9.6,14.3 9.5,14.5 
			9.5,14.5 9.4,14.8 9.5,14.8 9.3,15.2 9.6,15.2 10.2,15.2 		"/>
		<polygon fill="#0A9ACC" points="11.5,14.8 11.6,14.8 11.5,14.5 11.6,14.5 11.4,14.3 11.5,14.3 11.3,13.9 11.1,14.3 11.1,14.3 
			11,14.5 11.1,14.5 10.9,14.8 11,14.8 10.8,15.2 11.2,15.2 11.7,15.2 		"/>
		<g>
			<g>
				<circle fill="#BCBCBC" cx="9.1" cy="17.3" r="0.3"/>
				<path fill="#A5A5A5" d="M8.8,17.3c0-0.2,0.1-0.3,0.3-0.3s0.3,0.1,0.3,0.3"/>
			</g>
			<g>
				<circle fill="#BCBCBC" cx="10.7" cy="17.3" r="0.3"/>
				<path fill="#A5A5A5" d="M10.4,17.3c0-0.2,0.1-0.3,0.3-0.3s0.3,0.1,0.3,0.3"/>
			</g>
			<g>
				<circle fill="#BCBCBC" cx="12.2" cy="17.3" r="0.3"/>
				<path fill="#A5A5A5" d="M11.9,17.3c0-0.2,0.1-0.3,0.3-0.3s0.3,0.1,0.3,0.3"/>
			</g>
			<g>
				<circle fill="#BCBCBC" cx="13.8" cy="17.3" r="0.3"/>
				<path fill="#A5A5A5" d="M13.4,17.3c0-0.2,0.1-0.3,0.3-0.3s0.3,0.1,0.3,0.3"/>
			</g>
			<g>
				<circle fill="#BCBCBC" cx="15.3" cy="17.3" r="0.3"/>
				<path fill="#A5A5A5" d="M15,17.3c0-0.2,0.1-0.3,0.3-0.3s0.3,0.1,0.3,0.3"/>
			</g>
			<g>
				<circle fill="#BCBCBC" cx="16.8" cy="17.3" r="0.3"/>
				<path fill="#A5A5A5" d="M16.5,17.3c0-0.2,0.1-0.3,0.3-0.3s0.3,0.1,0.3,0.3"/>
			</g>
		</g>
	</g>
	<g>
		<rect x="9.1" y="23.6" fill="#E2E0C3" width="1.9" height="5.4"/>
		<rect x="23.8" y="23.6" fill="#E2E0C3" width="1.9" height="5.4"/>
		<rect x="38.4" y="23.6" fill="#E2E0C3" width="1.9" height="5.4"/>
		<rect x="53" y="23.6" fill="#E2E0C3" width="1.9" height="5.4"/>
	</g>
	<g>
		<rect x="16.1" y="29.8" fill="#E2E0C3" width="1.9" height="5.4"/>
		<rect x="2.2" y="29.8" fill="#E2E0C3" width="1.9" height="5.4"/>
		<rect x="45.3" y="29.8" fill="#E2E0C3" width="1.9" height="5.4"/>
		<rect x="59.9" y="29.8" fill="#E2E0C3" width="1.9" height="5.4"/>
	</g>
	<g>
		<rect x="9.1" y="35.7" fill="#E2E0C3" width="1.9" height="5.4"/>
		<rect x="53" y="35.7" fill="#E2E0C3" width="1.9" height="5.4"/>
	</g>
	<g>
		<rect x="16.1" y="42" fill="#E2E0C3" width="1.9" height="5.4"/>
		<rect x="2.2" y="42" fill="#E2E0C3" width="1.9" height="5.4"/>
		<rect x="45.3" y="42" fill="#E2E0C3" width="1.9" height="5.4"/>
		<rect x="59.9" y="42" fill="#E2E0C3" width="1.9" height="5.4"/>
	</g>
	<g>
		<rect x="9.1" y="46.8" fill="#E2E0C3" width="1.9" height="5.4"/>
		<rect x="53" y="46.8" fill="#E2E0C3" width="1.9" height="5.4"/>
	</g>
	<g>
		<rect x="16.1" y="53" fill="#E2E0C3" width="1.9" height="5.4"/>
		<rect x="2.2" y="53" fill="#E2E0C3" width="1.9" height="5.4"/>
		<rect x="45.3" y="53" fill="#E2E0C3" width="1.9" height="5.4"/>
		<rect x="59.9" y="53" fill="#E2E0C3" width="1.9" height="5.4"/>
	</g>
	<rect x="17.3" y="35.3" fill="#2CBF7F" width="29.4" height="27.2"/>
	<polyline fill="#0C9675" points="17.3,35.3 46.7,35.3 46.7,62.5 	"/>
	<polyline fill="#047761" points="17.3,35.3 46.7,35.3 46.7,47 	"/>
	<g>
		<path fill="#084475" d="M48.7,62.5H45V40.8c0-3.1-2.5-5.5-5.5-5.5H24.6c-3.1,0-5.5,2.5-5.5,5.5v21.7h-3.8V40.8
			c0-5.1,4.2-9.3,9.3-9.3h14.8c5.1,0,9.3,4.2,9.3,9.3V62.5z"/>
	</g>
	<rect x="2" y="18.2" fill="#084475" width="60" height="6.4"/>
	<rect x="2" y="20.7" fill="#02243E" width="60" height="4"/>
	<path fill="#F9DB5D" d="M39.1,62.5c1.5-2.5,0.9-7.1,0.9-7.1c-0.9,3.8-2.4,4.9-2.4,4.9c4.5-7.2-3.6-15.2-5-17.9s0.5-3.8,0.5-3.8
		s-2.8,0.5-1.3,5.7c1.5,5.3-1,7.1-1,7.1c2-5.2-2.4-8.8-2.4-8.8s2,2.8-2.6,9.2c-3.8,5.4-1.1,9.5-0.2,10.6H39.1z"/>
	<g>
		<path fill="#FC9A38" d="M37.2,62.5c0.5-0.9,0.8-1.8,1-2.7c-0.3,0.4-0.5,0.5-0.5,0.5c0.2-0.4,0.4-0.8,0.6-1.2
			c0.7-5.5-3.4-11.5-4.2-13.8c-0.1-0.4-0.2-0.8-0.2-1.1c-0.2-0.3-0.5-0.6-0.6-0.9c-0.3,0.8-0.5,2-0.3,3.7c0.6,5.4-2.2,6.9-2.2,6.9
			c0.9-1.5,1.1-2.9,1.1-4.2c-0.4,1.2-1.1,1.6-1.1,1.6c0.7-1.8,0.6-3.4,0.2-4.7c-0.5-1.1-1.1-1.8-1.1-1.8s1.5,3-4,8.6
			c-0.8,0.8-1.4,1.6-1.9,2.4c-0.6,3.3,1,5.6,1.7,6.5H37.2z"/>
		<path fill="#FC9A38" d="M39.3,59.4c-0.6,1.4-1.2,2.4-1.7,3.1h1.3C39.3,60.9,39.3,59.4,39.3,59.4z"/>
	</g>
	<g>
		<path fill="#02243E" d="M15.3,40.1c0,0.2,0,0.5,0,0.7v21.7H19V40.8c0-0.2,0-0.5,0.1-0.7H15.3z"/>
		<path fill="#02243E" d="M44.9,40.1c0,0.2,0.1,0.5,0.1,0.7v21.7h3.8V40.8c0-0.2,0-0.5,0-0.7H44.9z"/>
	</g>
	<g>
		<g>
			<circle fill="#2CBF7F" cx="10.4" cy="25.2" r="1.9"/>
			<path fill="#0C9675" d="M9,23.8c0.7-0.7,1.9-0.7,2.6,0c0.7,0.7,0.7,1.9,0,2.6"/>
		</g>
		<g>
			<circle fill="#2CBF7F" cx="24.8" cy="25.2" r="1.9"/>
			<path fill="#0C9675" d="M23.5,23.8c0.7-0.7,1.9-0.7,2.6,0c0.7,0.7,0.7,1.9,0,2.6"/>
		</g>
		<g>
			<circle fill="#2CBF7F" cx="39.2" cy="25.2" r="1.9"/>
			<path fill="#0C9675" d="M37.9,23.8c0.7-0.7,1.9-0.7,2.6,0c0.7,0.7,0.7,1.9,0,2.6"/>
		</g>
		<g>
			<circle fill="#2CBF7F" cx="53.6" cy="25.2" r="1.9"/>
			<path fill="#0C9675" d="M52.3,23.8c0.7-0.7,1.9-0.7,2.6,0c0.7,0.7,0.7,1.9,0,2.6"/>
		</g>
	</g>
	<g>
		<polygon fill="#FF9700" points="18.4,28.4 17.5,29.3 16.6,28.4 17.5,26.5 		"/>
		<g>
			<polygon fill="#2BD4D8" points="14.4,27.7 13.1,27.7 13.1,26.4 15.1,25.7 			"/>
			<polygon fill="#2BD4D8" points="20.7,27.7 21.9,27.7 21.9,26.4 19.9,25.7 			"/>
		</g>
	</g>
	<g>
		<polygon fill="#FF9700" points="3.8,28.4 2.9,29.3 2,28.4 2.9,26.5 		"/>
		<g>
			<polygon fill="#2BD4D8" points="6.1,27.7 7.3,27.7 7.3,26.4 5.3,25.7 			"/>
		</g>
	</g>
	<g>
		<polygon fill="#FF9700" points="32.9,28.4 32,29.3 31.1,28.4 32,26.5 		"/>
		<g>
			<polygon fill="#2BD4D8" points="28.8,27.7 27.6,27.7 27.6,26.4 29.6,25.7 			"/>
			<polygon fill="#2BD4D8" points="35.2,27.7 36.4,27.7 36.4,26.4 34.4,25.7 			"/>
		</g>
	</g>
	<g>
		<polygon fill="#FF9700" points="47.8,28.4 46.9,29.3 46,28.4 46.9,26.5 		"/>
		<g>
			<polygon fill="#2BD4D8" points="43.7,27.7 42.5,27.7 42.5,26.4 44.5,25.7 			"/>
			<polygon fill="#2BD4D8" points="50,27.7 51.3,27.7 51.3,26.4 49.3,25.7 			"/>
		</g>
	</g>
	<g>
		<polygon fill="#FF9700" points="62,28.4 61.1,29.3 60.2,28.4 61.1,26.5 		"/>
		<g>
			<polygon fill="#2BD4D8" points="57.9,27.7 56.7,27.7 56.7,26.4 58.7,25.7 			"/>
		</g>
	</g>
	<g>
		<g>
			<circle fill="#B070ED" cx="32.1" cy="26.5" r="3.9"/>
			<path fill="#9B60BA" d="M32.1,22.6c2.1,0,3.9,1.7,3.9,3.9c0,2.1-1.7,3.9-3.9,3.9"/>
			<g>
				<path fill="#FFB3ED" d="M28.6,24.8h7c-0.1-0.2-0.2-0.3-0.3-0.5h-6.5C28.8,24.5,28.7,24.6,28.6,24.8z"/>
				<path fill="#F48CD6" d="M28.6,24.8h7c-0.1-0.2-0.2-0.3-0.3-0.5"/>
				<path fill="#FFB3ED" d="M28.9,28.6h6.5c0.1-0.1,0.2-0.3,0.3-0.5h-7C28.7,28.3,28.8,28.5,28.9,28.6z"/>
				<path fill="#F48CD6" d="M28.9,28.6h6.5c0.1-0.1,0.2-0.3,0.3-0.5"/>
			</g>
			<g>
				<g>
					
						<rect x="33.8" y="25.2" transform="matrix(0.7061 -0.7081 0.7081 0.7061 -8.0237 31.552)" fill="#F9BF30" width="0.5" height="0.5"/>
					<g>
						
							<rect x="29" y="25.2" transform="matrix(0.7071 -0.7071 0.7071 0.7071 -9.4344 28.1082)" fill="#FCF9C3" width="0.5" height="0.5"/>
						
							<rect x="29.9" y="25.2" transform="matrix(0.7071 -0.7071 0.7071 0.7071 -9.1541 28.7849)" fill="#FFD77D" width="0.5" height="0.5"/>
						
							<rect x="30.9" y="25.2" transform="matrix(0.7071 -0.7071 0.7071 0.7071 -8.8733 29.4627)" fill="#FCF9C3" width="0.5" height="0.5"/>
						<polyline fill="#F7F131" points="29.2,25.1 29.6,25.4 29.2,25.8 						"/>
						<polyline fill="#F9BF30" points="30.2,25.1 30.5,25.4 30.2,25.8 						"/>
						<polyline fill="#F7F131" points="31.1,25.1 31.5,25.4 31.1,25.8 						"/>
						
							<rect x="31.8" y="25.2" transform="matrix(0.7061 -0.7081 0.7081 0.7061 -8.5866 30.1956)" fill="#F9BF30" width="0.5" height="0.5"/>
						
							<rect x="32.8" y="25.2" transform="matrix(0.7071 -0.7071 0.7071 0.7071 -8.3128 30.8158)" fill="#F7F131" width="0.5" height="0.5"/>
						
							<rect x="34.7" y="25.2" transform="matrix(0.7051 -0.7091 0.7091 0.7051 -7.7329 32.2892)" fill="#F7F131" width="0.5" height="0.5"/>
					</g>
				</g>
				<g>
					
						<rect x="33.8" y="27.3" transform="matrix(0.7061 -0.7081 0.7081 0.7061 -9.4931 32.1618)" fill="#F9BF30" width="0.5" height="0.5"/>
					<g>
						
							<rect x="29" y="27.3" transform="matrix(0.7071 -0.7071 0.7071 0.7071 -10.9018 28.716)" fill="#FCF9C3" width="0.5" height="0.5"/>
						
							<rect x="29.9" y="27.3" transform="matrix(0.7071 -0.7071 0.7071 0.7071 -10.6214 29.3927)" fill="#FFD77D" width="0.5" height="0.5"/>
						
							<rect x="30.9" y="27.3" transform="matrix(0.7071 -0.7071 0.7071 0.7071 -10.3407 30.0705)" fill="#FCF9C3" width="0.5" height="0.5"/>
						<polyline fill="#F7F131" points="29.2,27.2 29.6,27.5 29.2,27.9 						"/>
						<polyline fill="#F9BF30" points="30.2,27.2 30.5,27.5 30.2,27.9 						"/>
						<polyline fill="#F7F131" points="31.1,27.2 31.5,27.5 31.1,27.9 						"/>
						
							<rect x="31.8" y="27.3" transform="matrix(0.7061 -0.7081 0.7081 0.7061 -10.056 30.8055)" fill="#F9BF30" width="0.5" height="0.5"/>
						
							<rect x="32.8" y="27.3" transform="matrix(0.7071 -0.7071 0.7071 0.7071 -9.7802 31.4236)" fill="#F7F131" width="0.5" height="0.5"/>
						
							<rect x="34.7" y="27.3" transform="matrix(0.7051 -0.7091 0.7091 0.7051 -9.2044 32.9011)" fill="#F7F131" width="0.5" height="0.5"/>
					</g>
				</g>
			</g>
			<g>
				<circle fill="#31F4A9" cx="28.9" cy="26.4" r="0.3"/>
				<circle fill="#FCF9C3" cx="30" cy="26.4" r="0.3"/>
				<circle fill="#31F4A9" cx="31" cy="26.4" r="0.3"/>
				<path fill="#1BE090" d="M28.9,26.1c0.2,0,0.3,0.1,0.3,0.3c0,0.2-0.1,0.3-0.3,0.3"/>
				<path fill="#F7F131" d="M30,26.1c0.2,0,0.3,0.1,0.3,0.3c0,0.2-0.1,0.3-0.3,0.3"/>
				<path fill="#1BE090" d="M31,26.1c0.2,0,0.3,0.1,0.3,0.3c0,0.2-0.1,0.3-0.3,0.3"/>
				<circle fill="#F7F131" cx="32.1" cy="26.4" r="0.3"/>
				<circle fill="#31F4A9" cx="33.1" cy="26.4" r="0.3"/>
				<circle fill="#F7F131" cx="34.2" cy="26.4" r="0.3"/>
				<circle fill="#31F4A9" cx="35.2" cy="26.4" r="0.3"/>
			</g>
			<path fill="#B070ED" d="M33.1,23c0,0.2-0.1,0.3-0.3,0.3h-1.4c-0.2,0-0.3-0.1-0.3-0.3v-1c0-0.2,0.1-0.3,0.3-0.3h1.4
				c0.2,0,0.3,0.1,0.3,0.3V23z"/>
			<path fill="#9B60BA" d="M31.1,21.9c0-0.2,0.1-0.3,0.3-0.3h1.4c0.2,0,0.3,0.1,0.3,0.3v1c0,0.2-0.1,0.3-0.3,0.3"/>
			<path fill="#BF92FF" d="M31.2,23c0.1,0.1-0.2,0.4-0.6,0.6c-0.4,0.2-0.7,0.4-0.8,0.3c-0.1-0.1,0.2-0.4,0.6-0.6
				C30.8,23,31.1,22.9,31.2,23z"/>
			<circle fill="#F48CD6" cx="32.1" cy="21.1" r="0.2"/>
			<circle fill="#F48CD6" cx="32.1" cy="20" r="0.2"/>
			<circle fill="#F48CD6" cx="32.1" cy="19" r="0.2"/>
		</g>
		<g>
			<g>
				<path fill="#F48CD6" d="M28.9,20.3V20c0-0.1-0.1-0.1-0.1-0.1h-0.5c-0.1,0-0.1,0.1-0.1,0.1v0.3C27.4,20.4,27,21,27,21.7
					c0,0.8,0.7,1.5,1.5,1.5c0.8,0,1.5-0.7,1.5-1.5C30,21,29.5,20.4,28.9,20.3z"/>
				<circle fill="#F48CD6" cx="28.5" cy="19.6" r="0.1"/>
				<circle fill="#F48CD6" cx="28.5" cy="19.2" r="0.1"/>
				<circle fill="#F48CD6" cx="28.5" cy="18.8" r="0.1"/>
			</g>
			<g>
				<path fill="#B070ED" d="M36.1,20.3V20c0-0.1-0.1-0.1-0.1-0.1h-0.5c-0.1,0-0.1,0.1-0.1,0.1v0.3c-0.6,0.2-1.1,0.8-1.1,1.5
					c0,0.8,0.7,1.5,1.5,1.5c0.8,0,1.5-0.7,1.5-1.5C37.2,21,36.7,20.4,36.1,20.3z"/>
				<circle fill="#B070ED" cx="35.7" cy="19.6" r="0.1"/>
				<circle fill="#B070ED" cx="35.7" cy="19.2" r="0.1"/>
				<circle fill="#B070ED" cx="35.7" cy="18.8" r="0.1"/>
			</g>
		</g>
	</g>
	<path fill="#F9DB5D" d="M24.3,45c0,0.4-0.3,0.7-0.7,0.7s-0.7-0.3-0.7-0.7c0-0.4,0.3-0.7,0.7-0.7S24.3,44.6,24.3,45z"/>
	<circle fill="#F9DB5D" cx="24.5" cy="47.9" r="0.2"/>
	<circle fill="#F9DB5D" cx="26.9" cy="40.3" r="0.8"/>
	<circle fill="#F9DB5D" cx="30.2" cy="41.5" r="0.1"/>
	<circle fill="#F9DB5D" cx="39.9" cy="46.6" r="1.8"/>
	<circle fill="#F9DB5D" cx="21.9" cy="60.3" r="0.4"/>
	<circle fill="#F9DB5D" cx="22.7" cy="55.7" r="0.2"/>
	<circle fill="#F9DB5D" cx="40.8" cy="51.4" r="0.6"/>
	<circle fill="#F9DB5D" cx="36.3" cy="42.6" r="0.2"/>
</g>
</svg>
