<?xml version="1.0" encoding="utf-8"?>
<!-- Generator: Adobe Illustrator 16.0.0, SVG Export Plug-In . SVG Version: 6.00 Build 0)  -->
<!DOCTYPE svg PUBLIC "-//W3C//DTD SVG 1.1//EN" "http://www.w3.org/Graphics/SVG/1.1/DTD/svg11.dtd">
<svg version="1.1" id="Layer_1" xmlns="http://www.w3.org/2000/svg" xmlns:xlink="http://www.w3.org/1999/xlink" x="0px" y="0px"
	 width="64.6px" height="64px" viewBox="0 0 64.6 64" enable-background="new 0 0 64.6 64" xml:space="preserve">
<g>
	<g>
		<g>
			<path fill="#00233F" d="M45.5,12.5c0,5.7-4.6,10.2-10.2,10.2h-5c-5.7,0-10.2-4.6-10.2-10.2l0,0c0-5.7,4.6-10.2,10.2-10.2h5
				C40.9,2.3,45.5,6.8,45.5,12.5L45.5,12.5z"/>
			<rect x="24.2" y="27.5" fill="#F9BDA0" width="17" height="14.1"/>
			<polygon fill="#E28F71" points="41.2,41.6 32.7,41.6 24.2,27.5 41.2,27.5 			"/>
			<path fill="#FCCCB9" d="M45.3,16.2c0,10-6.2,19-12.6,19c-6.4,0-12.6-9-12.6-19c0-10,6.2-11.6,12.6-11.6
				C39.2,4.6,45.3,6.2,45.3,16.2z"/>
			<path fill="#F9BDA0" d="M32.7,4.6c6.4,0,12.6,1.7,12.6,11.6c0,10-6.2,19-12.6,19"/>
			<path fill="#00233F" d="M36.5,3.9c0,1.3-1,2.3-2.3,2.3h-3c-1.3,0-2.3-1-2.3-2.3l0,0c0-1.3,1-2.3,2.3-2.3h3
				C35.5,1.6,36.5,2.6,36.5,3.9L36.5,3.9z"/>
			<g>
				<g>
					<polygon fill="#0C537A" points="23.7,37.3 1.7,45.3 1.7,62.4 31.9,62.4 					"/>
					<polygon fill="#00233F" points="23.7,37.3 5.8,47.6 1.7,62.4 31.9,62.4 					"/>
					<polygon fill="#D6D6D6" points="23.8,35.9 18.6,38.1 22.3,47.9 31.9,62.4 31.9,41.7 					"/>
					<polygon fill="#FFFFFF" points="23.8,35.9 32.5,41.7 22.3,47.1 					"/>
				</g>
				<g>
					<polygon fill="#0C537A" points="41.7,37.3 63.7,45.3 63.7,62.4 33.6,62.4 					"/>
					<polygon fill="#00233F" points="41.7,37.3 59.7,47.6 63.7,62.4 33.6,62.4 					"/>
					<polygon fill="#D6D6D6" points="41.7,35.9 46.8,38.1 43.2,47.9 33.6,62.4 33.6,41.7 					"/>
					<polygon fill="#FFFFFF" points="41.7,35.9 33,41.7 43.2,47.1 					"/>
				</g>
			</g>
			<g>
				<polygon fill="#0C537A" points="30.5,43.1 31.6,44.9 29.8,59.9 31.9,62.4 32.8,62.4 32.8,41.7 				"/>
				<polygon fill="#00233F" points="35,43.1 33.8,44.9 35.7,59.9 33.6,62.4 32.7,62.4 32.7,41.7 				"/>
			</g>
		</g>
		<g>
			<g>
				<path fill="#E2997D" d="M23.4,15L23.4,15c-0.6,2,0,5.3,2,5.9c2,0.6,4.6-1.8,5.2-3.8l0,0L23.4,15z"/>
				<path fill="#BA2525" d="M23.4,15L23.4,15c-0.6,2,0.6,4,2.6,4.6c2,0.6,4-0.6,4.6-2.6l0,0L23.4,15z"/>
				<path fill="#E01E1E" d="M23.4,15c-0.6,2,0.9,3.2,2.9,3.7c2,0.6,3.7,0.3,4.3-1.7"/>
				<polygon fill="#00233F" points="31.2,17.4 22,14.6 23.9,12.6 31.7,16.6 				"/>
				<circle fill="#FFFFFF" cx="26.9" cy="17.3" r="0.7"/>
			</g>
			<g>
				<path fill="#E2997D" d="M42,15L42,15c0.6,2,0,5.3-2,5.9c-2,0.6-4.6-1.8-5.2-3.8l0,0L42,15z"/>
				<path fill="#BA2525" d="M42,15L42,15c0.6,2-0.6,4-2.6,4.6c-2,0.6-4-0.6-4.6-2.6l0,0L42,15z"/>
				<path fill="#E01E1E" d="M42,15c0.6,2-0.9,3.2-2.9,3.7c-2,0.6-3.7,0.3-4.3-1.7"/>
				<polygon fill="#00233F" points="34.2,17.4 43.4,14.6 41.6,12.6 33.7,16.6 				"/>
				<circle fill="#FFFFFF" cx="38.5" cy="17.3" r="0.7"/>
			</g>
		</g>
		<g>
			<path fill="#E01E1E" d="M37.4,28.7c0,2.7-2.1,2.9-4.7,2.9c-2.6,0-4.7-0.2-4.7-2.9c0-2.7,2.1-3.9,4.7-3.9
				C35.3,24.8,37.4,26,37.4,28.7z"/>
			<path fill="#821212" d="M28.1,28.7c0-2.7,2.1-3.9,4.7-3.9c2.6,0,4.7,1.2,4.7,3.9"/>
		</g>
		<polygon fill="#0C537A" points="50.7,40.8 53.7,32.3 53.9,38.1 56.2,37.1 56.2,39.3 59.7,39.6 58.7,42.1 63.2,42.3 61.9,45.1 
			53.4,42.8 		"/>
		<polygon fill="#E01E1E" points="6.9,58.1 13.3,51.2 12.7,53.8 18.4,49.9 9.8,57.3 10.3,55.4 		"/>
		<polygon fill="#E01E1E" points="8.4,60.8 14.8,53.9 14.2,56.6 19.9,52.7 11.3,60.1 11.8,58.2 		"/>
		<polygon fill="#0C537A" points="5.9,45.2 3.9,36.7 7.3,40.3 7.6,38.7 9.1,40.5 11.6,37.2 11.8,40.3 15.6,36.8 15.6,41.3 6.9,44.8 
					"/>
		<polygon fill="#FFFFFF" points="45.2,54.2 52.2,53.8 51.3,54.6 58.9,55.1 47.2,55.8 47.9,54.8 42.2,55.2 42.7,54.6 		"/>
		<polygon fill="#FFFFFF" points="45.2,57.9 52.2,57.6 51.3,58.3 58.9,58.8 47.2,59.6 47.9,58.6 42.2,58.9 42.7,58.3 		"/>
	</g>
	<circle fill="#E01E1E" cx="7.8" cy="9" r="2.5"/>
	<circle fill="#E01E1E" cx="10.9" cy="20.5" r="0.7"/>
	<circle fill="#E01E1E" cx="15.9" cy="28.5" r="0.3"/>
	<circle fill="#E01E1E" cx="10.8" cy="31" r="3.2"/>
	<circle fill="#E01E1E" cx="50.4" cy="23.7" r="2.2"/>
	<circle fill="#E01E1E" cx="49.6" cy="29.8" r="0.3"/>
	<circle fill="#E01E1E" cx="52.4" cy="13" r="0.8"/>
	<circle fill="#E01E1E" cx="58.8" cy="20.7" r="1.2"/>
	<circle fill="#E01E1E" cx="58.4" cy="28.3" r="0.5"/>
	<circle fill="#E01E1E" cx="59.4" cy="10.3" r="1.8"/>
	<circle fill="#E01E1E" cx="13.6" cy="13.5" r="1"/>
	<circle fill="#E01E1E" cx="14.3" cy="7.2" r="0.7"/>
</g>
</svg>
