<?xml version="1.0" encoding="utf-8"?>
<!-- Generator: Adobe Illustrator 16.0.0, SVG Export Plug-In . SVG Version: 6.00 Build 0)  -->
<!DOCTYPE svg PUBLIC "-//W3C//DTD SVG 1.1//EN" "http://www.w3.org/Graphics/SVG/1.1/DTD/svg11.dtd">
<svg version="1.1" id="Layer_1" xmlns="http://www.w3.org/2000/svg" xmlns:xlink="http://www.w3.org/1999/xlink" x="0px" y="0px"
	 width="64px" height="64px" viewBox="0 0 64 64" enable-background="new 0 0 64 64" xml:space="preserve">
<g>
	<polygon fill="#F2D541" points="32,2.3 41.6,21.9 63.2,25 47.6,40.2 51.3,61.7 32,51.5 12.7,61.7 16.4,40.2 0.8,25 22.4,21.9 	"/>
	<polygon fill="#F4B840" points="32,2.3 41.6,21.9 63.2,25 47.6,40.2 51.3,61.7 32,51.5 12.7,61.7 19.8,43.3 0.8,25 26.3,24.1 	"/>
	<polyline fill="#E28723" points="32,2.3 41.6,21.9 63.2,25 47.6,40.2 51.3,61.7 32,51.5 	"/>
	<polygon fill="#8E6825" points="40.7,40 37,36 38.9,36 36.2,33 37.5,33 35.1,31 36,31 32.6,27.7 33.3,28 33,26.6 34,25.6 
		32.6,25.4 32,24.2 31.4,25.4 30,25.6 31,26.6 30.7,28 31.6,27.6 28.1,31 29,31 26.6,33 27.9,33 25.2,36 27,36 23.3,40 	"/>
	<polygon fill="#7F540F" points="40.7,40 37,36 38.9,36 36.2,33 37.5,33 35.1,31 36,31 32.6,27.7 33.3,28 33,26.6 34,25.6 
		32.6,25.4 32,24.2 31.4,25.4 30,25.6 31,26.6 30.7,28 31.6,27.6 28.1,31 29,31 26.6,33 27.9,33 25.2,36 27,36 23.3,40 	"/>
	<polygon fill="#8E6825" points="32,40 32,24.2 32,24.2 31.4,25.4 30,25.6 31,26.6 30.7,28 31.6,27.6 28.1,31 29,31 26.6,33 
		27.9,33 25.2,36 27,36 23.3,40 	"/>
</g>
</svg>
