<?xml version="1.0" encoding="utf-8"?>
<!-- Generator: Adobe Illustrator 16.0.0, SVG Export Plug-In . SVG Version: 6.00 Build 0)  -->
<!DOCTYPE svg PUBLIC "-//W3C//DTD SVG 1.1//EN" "http://www.w3.org/Graphics/SVG/1.1/DTD/svg11.dtd">
<svg version="1.1" id="Layer_1" xmlns="http://www.w3.org/2000/svg" xmlns:xlink="http://www.w3.org/1999/xlink" x="0px" y="0px"
	 width="64px" height="64px" viewBox="0 0 64 64" enable-background="new 0 0 64 64" xml:space="preserve">
<g>
	<g>
		<g>
			<g>
				<path fill="#D81665" d="M16.8,5.7c6.4,0,12.1,3.6,14.1,9c0.2,0.5,0.8,0.8,1.4,0.7c0.6,0.2,1.3-0.1,1.4-0.7c2-5.4,7.7-9,14.1-9
					c8.2,0,14.8,5.9,14.8,13c0,2.6-0.9,5.1-2.5,7.3c0,0,0,0,0,0c-0.1,0.1-0.1,0.1-0.1,0.1L32.3,58.9L4.6,26.2c0-0.1-0.1-0.1-0.1-0.1
					c0,0,0,0,0,0c-1.7-2.2-2.5-4.7-2.5-7.3C1.9,11.5,8.6,5.7,16.8,5.7z"/>
			</g>
			<g>
				<path fill="#AF0C5E" d="M32.3,15.3c0.6,0.2,1.3-0.1,1.4-0.7c2-5.4,7.7-9,14.1-9c8.2,0,14.8,5.9,14.8,13c0,2.6-0.9,5.1-2.5,7.3
					c0,0,0,0,0,0c-0.1,0.1-0.1,0.1-0.1,0.1L32.3,58.9"/>
			</g>
		</g>
	</g>
	<g>
		<path fill="#F9F8F2" d="M28.7,30.1c-0.5,0.5-1.4,0.5-1.9,0l-14-14c-0.5-0.5-0.5-1.4,0-1.9l0,0c0.5-0.5,1.4-0.5,1.9,0l14,14
			C29.2,28.7,29.2,29.6,28.7,30.1L28.7,30.1z"/>
		<path fill="#E5E1CA" d="M12.8,14.2L12.8,14.2c0.5-0.5,1.4-0.5,1.9,0l14,14c0.5,0.5,0.5,1.4,0,1.9l0,0"/>
		<path fill="#F9F8F2" d="M54.4,55.8c-0.5,0.5-1.4,0.5-1.9,0l-14-14c-0.5-0.5-0.5-1.4,0-1.9l0,0c0.5-0.5,1.4-0.5,1.9,0l14,14
			C54.9,54.4,54.9,55.3,54.4,55.8L54.4,55.8z"/>
		<path fill="#E5E1CA" d="M38.5,39.9L38.5,39.9c0.5-0.5,1.4-0.5,1.9,0l14,14c0.5,0.5,0.5,1.4,0,1.9l0,0"/>
		<g>
			<g>
				<path fill="#F9F8F2" d="M17.6,18c0.3,0,0.6,0.3,0.6,0.6l0,0c0,0.3-0.3,0.6-0.6,0.6L5,19.3c-0.3,0-0.6-0.3-0.6-0.6l0,0
					C4.4,18.3,4.7,18,5,18L17.6,18z"/>
				<path fill="#F9F8F2" d="M14.6,15c0.3,0,0.6,0.3,0.6,0.6l0,0c0,0.3-0.3,0.6-0.6,0.6L2,16.3c-0.3,0-0.6-0.3-0.6-0.6l0,0
					C1.4,15.3,1.7,15,2,15L14.6,15z"/>
				<path fill="#F9F8F2" d="M23.8,24c0.3,0,0.6,0.4,0.6,0.7l0,0c0,0.3-0.3,0.7-0.6,0.7l-12.6,0c-0.3,0-0.6-0.3-0.6-0.7l0,0
					c0-0.3,0.3-0.7,0.6-0.7H23.8z"/>
				<path fill="#F9F8F2" d="M20.8,21c0.3,0,0.6,0.4,0.6,0.7l0,0c0,0.3-0.3,0.7-0.6,0.7l-12.6,0c-0.3,0-0.6-0.3-0.6-0.7l0,0
					c0-0.3,0.3-0.7,0.6-0.7H20.8z"/>
			</g>
			<g>
				<path fill="#E5E1CA" d="M16.6,19.1c0,0.3,0.3,0.6,0.6,0.6l0,0c0.3,0,0.6-0.3,0.6-0.6l0-12.6c0-0.3-0.3-0.6-0.6-0.6l0,0
					c-0.3,0-0.6,0.3-0.6,0.6L16.6,19.1z"/>
				<path fill="#E5E1CA" d="M13.6,16.1c0,0.3,0.3,0.6,0.6,0.6l0,0c0.3,0,0.6-0.3,0.6-0.6l0-12.6c0-0.3-0.3-0.6-0.6-0.6l0,0
					c-0.3,0-0.6,0.3-0.6,0.6L13.6,16.1z"/>
				<path fill="#E5E1CA" d="M22.7,25.2c0,0.3,0.3,0.6,0.6,0.6l0,0c0.3,0,0.6-0.3,0.6-0.6l0-12.6c0-0.3-0.3-0.6-0.6-0.6l0,0
					c-0.3,0-0.6,0.3-0.6,0.6L22.7,25.2z"/>
				<path fill="#E5E1CA" d="M19.7,22.2c0,0.3,0.3,0.6,0.6,0.6l0,0c0.3,0,0.6-0.3,0.6-0.6l0-12.6C21,9.3,20.7,9,20.3,9l0,0
					c-0.3,0-0.6,0.3-0.6,0.6L19.7,22.2z"/>
			</g>
		</g>
		<polygon fill="#F7991C" points="57.4,49 59.8,61 48,58.8 48,49 		"/>
		<polyline fill="#D86A07" points="48,49 57.4,49 59.8,61 		"/>
	</g>
	<circle fill="#D81665" cx="44.6" cy="13.6" r="2.6"/>
	<circle fill="#D81665" cx="48.2" cy="18.7" r="0.5"/>
	<circle fill="#D81665" cx="52.9" cy="15" r="1"/>
	<circle fill="#D81665" cx="58.2" cy="21.7" r="0.2"/>
	<circle fill="#D81665" cx="45.2" cy="24.7" r="1"/>
	<circle fill="#D81665" cx="51.7" cy="23" r="1.5"/>
	<circle fill="#D81665" cx="55.7" cy="18.2" r="0.5"/>
</g>
</svg>
