<?xml version="1.0" encoding="utf-8"?>
<!-- Generator: Adobe Illustrator 16.0.0, SVG Export Plug-In . SVG Version: 6.00 Build 0)  -->
<!DOCTYPE svg PUBLIC "-//W3C//DTD SVG 1.1//EN" "http://www.w3.org/Graphics/SVG/1.1/DTD/svg11.dtd">
<svg version="1.1" id="Layer_1" xmlns="http://www.w3.org/2000/svg" xmlns:xlink="http://www.w3.org/1999/xlink" x="0px" y="0px"
	 width="65px" height="65px" viewBox="0 0 65 65" enable-background="new 0 0 65 65" xml:space="preserve">
<g>
	<path fill="#ABD3DD" d="M12.242,62.715c-2.378,2.379-6.234,2.381-8.613,0.002l-1.345-1.348c-2.38-2.377-2.38-6.232,0.001-8.611
		L51.001,4.041c2.378-2.377,4.351-0.494,6.729,1.883l1.346,1.348c2.378,2.377,4.261,4.35,1.884,6.727L12.242,62.715z"/>
	<path fill="#8DC6D3" d="M57.729,5.924l1.346,1.348c2.378,2.377,4.261,4.35,1.884,6.727L12.242,62.715
		c-2.378,2.379-6.234,2.381-8.613,0.002l-1.345-1.348"/>
	<path fill="#8DC6D3" d="M51,22.883l0.995-0.002l8.924-8.883c2.377-2.377,0.515-4.35-1.864-6.727L57.64,5.924
		C55.316,3.602,53,1.777,51,3.914V22.883z"/>
	<path fill="#C4E3E8" d="M64.055,14.4c-0.594,0.596-1.558,0.598-2.152,0.002L50.598,3.098c-0.596-0.596-0.594-1.559,0-2.152l0,0
		c0.594-0.594,1.557-0.594,2.152,0L64.055,12.25C64.65,12.844,64.648,13.807,64.055,14.4L64.055,14.4z"/>
	<path fill="#ABD3DD" d="M64.055,14.4L64.055,14.4c-0.594,0.596-1.558,0.598-2.152,0.002L50.598,3.098
		c-0.596-0.596-0.594-1.559,0-2.152l0,0"/>
	<g>
		<path fill="#C4E3E8" d="M52.008,13.889c-0.148,0.148-0.389,0.148-0.537,0.002l-3.588-3.59c-0.148-0.15-0.148-0.389-0.001-0.537
			l0,0c0.15-0.15,0.39-0.15,0.538,0l3.591,3.588C52.157,13.498,52.157,13.738,52.008,13.889L52.008,13.889z"/>
		<path fill="#C4E3E8" d="M47.793,13.797c-0.149,0.148-0.391,0.148-0.537,0.002l-1.436-1.436c-0.148-0.15-0.148-0.389,0-0.539l0,0
			c0.15-0.15,0.389-0.148,0.539,0.002l1.436,1.434C47.941,13.408,47.943,13.646,47.793,13.797L47.793,13.797z"/>
	</g>
	<g>
		<path fill="#C4E3E8" d="M47.971,17.924c-0.148,0.15-0.389,0.15-0.537,0.004l-3.587-3.59c-0.15-0.148-0.15-0.389,0-0.539l0,0
			c0.148-0.148,0.39-0.148,0.536,0l3.59,3.59C48.119,17.535,48.121,17.775,47.971,17.924L47.971,17.924z"/>
		<path fill="#C4E3E8" d="M43.756,17.834c-0.152,0.15-0.391,0.15-0.538,0.002l-1.435-1.434c-0.15-0.15-0.15-0.389,0-0.541l0,0
			c0.148-0.148,0.39-0.148,0.537,0l1.437,1.436C43.902,17.445,43.902,17.686,43.756,17.834L43.756,17.834z"/>
	</g>
	<g>
		<path fill="#C4E3E8" d="M43.934,21.963c-0.149,0.148-0.39,0.148-0.537,0.002l-3.588-3.59c-0.149-0.148-0.149-0.389,0-0.539l0,0
			c0.149-0.148,0.39-0.148,0.539,0l3.588,3.588C44.082,21.572,44.082,21.812,43.934,21.963L43.934,21.963z"/>
		<path fill="#C4E3E8" d="M39.718,21.871c-0.149,0.152-0.39,0.148-0.536,0.002l-1.436-1.436c-0.148-0.148-0.151-0.387,0-0.537l0,0
			c0.149-0.15,0.388-0.148,0.537,0l1.436,1.436C39.865,21.484,39.867,21.723,39.718,21.871L39.718,21.871z"/>
	</g>
	<g>
		<path fill="#C4E3E8" d="M39.896,26c-0.149,0.148-0.389,0.148-0.535,0.002l-3.589-3.59c-0.149-0.15-0.151-0.389-0.003-0.537l0,0
			c0.15-0.15,0.391-0.148,0.539,0l3.589,3.588C40.044,25.609,40.046,25.85,39.896,26L39.896,26z"/>
		<path fill="#C4E3E8" d="M35.681,25.91c-0.149,0.148-0.39,0.148-0.538,0.002l-1.435-1.436c-0.149-0.15-0.149-0.391,0-0.539l0,0
			c0.149-0.15,0.39-0.15,0.539,0l1.437,1.434C35.83,25.52,35.83,25.76,35.681,25.91L35.681,25.91z"/>
	</g>
	<g>
		<path fill="#C4E3E8" d="M35.859,30.037c-0.148,0.148-0.39,0.15-0.537,0.002l-3.588-3.588c-0.15-0.15-0.149-0.391,0-0.539l0,0
			c0.148-0.15,0.389-0.15,0.539,0l3.588,3.588C36.01,29.648,36.008,29.889,35.859,30.037L35.859,30.037z"/>
		<path fill="#C4E3E8" d="M31.643,29.947c-0.147,0.148-0.39,0.148-0.536,0l-1.437-1.434c-0.148-0.15-0.147-0.391,0-0.539l0,0
			c0.15-0.148,0.391-0.15,0.54,0l1.435,1.436C31.792,29.557,31.791,29.799,31.643,29.947L31.643,29.947z"/>
	</g>
	<g>
		<path fill="#C4E3E8" d="M31.82,34.074c-0.147,0.148-0.389,0.148-0.535,0.002l-3.588-3.59c-0.149-0.148-0.149-0.389-0.001-0.537
			l0,0c0.148-0.148,0.389-0.148,0.538,0l3.59,3.588C31.971,33.686,31.971,33.926,31.82,34.074L31.82,34.074z"/>
		<path fill="#C4E3E8" d="M27.606,33.982c-0.149,0.15-0.39,0.15-0.536,0.004l-1.436-1.436c-0.148-0.15-0.148-0.391,0-0.539l0,0
			c0.149-0.15,0.388-0.148,0.537,0l1.438,1.436C27.754,33.596,27.756,33.834,27.606,33.982L27.606,33.982z"/>
	</g>
	<g>
		<path fill="#C4E3E8" d="M27.785,38.111c-0.15,0.148-0.39,0.148-0.536,0.002l-3.59-3.588c-0.149-0.15-0.149-0.391,0-0.539l0,0
			c0.15-0.15,0.389-0.15,0.539,0l3.587,3.588C27.935,37.723,27.935,37.961,27.785,38.111L27.785,38.111z"/>
		<path fill="#C4E3E8" d="M23.568,38.021c-0.148,0.148-0.389,0.148-0.535,0l-1.437-1.434c-0.149-0.15-0.149-0.391-0.001-0.537l0,0
			c0.149-0.15,0.391-0.152,0.539,0l1.436,1.434C23.719,37.633,23.717,37.873,23.568,38.021L23.568,38.021z"/>
	</g>
	<g>
		<path fill="#C4E3E8" d="M23.747,42.148c-0.149,0.15-0.39,0.15-0.536,0.002l-3.59-3.588c-0.148-0.15-0.148-0.389,0-0.539l0,0
			c0.15-0.15,0.391-0.15,0.54,0l3.588,3.59C23.896,41.76,23.896,42,23.747,42.148L23.747,42.148z"/>
		<path fill="#C4E3E8" d="M19.531,42.059c-0.149,0.148-0.39,0.148-0.536,0.002l-1.436-1.436c-0.149-0.148-0.149-0.389,0-0.539l0,0
			c0.149-0.148,0.389-0.148,0.539,0l1.435,1.436C19.681,41.668,19.681,41.908,19.531,42.059L19.531,42.059z"/>
	</g>
	<g>
		<path fill="#C4E3E8" d="M19.711,46.186c-0.149,0.148-0.391,0.15-0.537,0.002L15.586,42.6c-0.151-0.15-0.15-0.391,0-0.539l0,0
			c0.148-0.148,0.388-0.148,0.537,0l3.588,3.59C19.859,45.797,19.859,46.037,19.711,46.186L19.711,46.186z"/>
		<path fill="#C4E3E8" d="M15.494,46.096c-0.149,0.15-0.391,0.15-0.536,0.002l-1.437-1.436c-0.15-0.148-0.15-0.389,0-0.539l0,0
			c0.148-0.148,0.39-0.148,0.539,0l1.435,1.438C15.644,45.707,15.644,45.947,15.494,46.096L15.494,46.096z"/>
	</g>
	<g>
		<path fill="#C4E3E8" d="M15.672,50.225c-0.149,0.148-0.39,0.148-0.537,0l-3.588-3.588c-0.149-0.148-0.149-0.389,0-0.539l0,0
			c0.149-0.148,0.391-0.148,0.539,0l3.589,3.588C15.82,49.834,15.82,50.074,15.672,50.225L15.672,50.225z"/>
		<path fill="#C4E3E8" d="M11.456,50.133c-0.149,0.15-0.388,0.148-0.536,0.002l-1.434-1.436c-0.15-0.15-0.152-0.389-0.002-0.537l0,0
			c0.149-0.15,0.39-0.15,0.539,0l1.435,1.436C11.605,49.744,11.605,49.984,11.456,50.133L11.456,50.133z"/>
	</g>
	<g>
		<path fill="#C4E3E8" d="M11.635,54.26c-0.148,0.15-0.389,0.15-0.535,0.002l-3.589-3.588c-0.149-0.15-0.149-0.389,0-0.539l0,0
			c0.148-0.148,0.388-0.148,0.537,0.002l3.587,3.588C11.784,53.873,11.784,54.111,11.635,54.26L11.635,54.26z"/>
		<path fill="#C4E3E8" d="M7.42,54.17c-0.15,0.148-0.39,0.15-0.537,0.002l-1.435-1.434c-0.151-0.15-0.15-0.391,0-0.541l0,0
			c0.147-0.148,0.388-0.148,0.538,0l1.434,1.436C7.57,53.779,7.568,54.021,7.42,54.17L7.42,54.17z"/>
	</g>
</g>
</svg>
