<?xml version="1.0" encoding="utf-8"?>
<!-- Generator: Adobe Illustrator 16.0.0, SVG Export Plug-In . SVG Version: 6.00 Build 0)  -->
<!DOCTYPE svg PUBLIC "-//W3C//DTD SVG 1.1//EN" "http://www.w3.org/Graphics/SVG/1.1/DTD/svg11.dtd">
<svg version="1.1" id="Layer_1" xmlns="http://www.w3.org/2000/svg" xmlns:xlink="http://www.w3.org/1999/xlink" x="0px" y="0px"
	 width="64px" height="64px" viewBox="0 0 64 64" enable-background="new 0 0 64 64" xml:space="preserve">
<g>
	<path fill="#FFC41D" d="M58.1,11.7c0-2.1-0.1-4.2-0.3-6.3L32,0.8V1l0,0l0,0V0.8L6.2,5.5C6,7.5,5.9,9.6,5.9,11.7
		C5.9,36.1,17,56.7,32,63.2v0c0,0,0,0,0,0c0,0,0,0,0,0l0,0C47.1,56.7,58.1,36.1,58.1,11.7z"/>
	<path fill="#FF9E1F" d="M32,63v0.2c0,0,0,0,0,0c0,0,0,0,0,0l0,0c15.1-6.5,26.1-27.1,26.1-51.5c0-2.1-0.1-4.2-0.3-6.3L32,0.8V1l0,0
		l0,0l0,0"/>
	<path fill="#34B515" d="M52.1,16.1c0-1.7-0.1-3.3-0.2-4.9L32,7.5V8l0,0l0,0V7.5l-19.9,3.7c-0.1,1.6-0.2,3.2-0.2,4.9
		c0,19.1,8.1,35.2,20.1,40.3v0l0,0l0,0v0C44,51.3,52.1,35.2,52.1,16.1z"/>
	<path fill="#329908" d="M32,56v0.5l0,0l0,0v0c12-5.1,20.1-21.2,20.1-40.3c0-1.7-0.1-3.3-0.2-4.9L32,7.5V8l0,0l0,0l0,0"/>
	<polygon fill="#329908" points="43,35.7 32,41.9 21,35.7 21,23.1 32,16.8 43,23.1 	"/>
	<polyline fill="#34B515" points="32,16.8 43,23.1 43,35.7 32,41.9 	"/>
</g>
</svg>
