<?xml version="1.0" encoding="utf-8"?>
<!-- Generator: Adobe Illustrator 16.0.0, SVG Export Plug-In . SVG Version: 6.00 Build 0)  -->
<!DOCTYPE svg PUBLIC "-//W3C//DTD SVG 1.1//EN" "http://www.w3.org/Graphics/SVG/1.1/DTD/svg11.dtd">
<svg version="1.1" id="Layer_1" xmlns="http://www.w3.org/2000/svg" xmlns:xlink="http://www.w3.org/1999/xlink" x="0px" y="0px"
	 width="64px" height="64px" viewBox="0 0 64 64" enable-background="new 0 0 64 64" xml:space="preserve">
<g>
	<g>
		<g>
			<g>
				<g>
					<path fill="#F7910B" d="M63.4,39.4c0,13-11.9,23.5-30.3,23.5S2.7,52.4,2.7,39.4S14.7,6.9,33.1,6.9S63.4,26.4,63.4,39.4z"/>
				</g>
				<g>
					<path fill="#F7910B" d="M63.4,39.4c0,13-11.9,19.5-30.3,19.5S2.7,52.4,2.7,39.4S14.7,4.9,33.1,4.9S63.4,26.4,63.4,39.4z"/>
				</g>
				<g>
					<path fill="#F9A908" d="M33.1,4.9c18.4,0,30.3,21.5,30.3,34.5S51.5,58.9,33.1,58.9"/>
				</g>
				<g>
					<path fill="#F9A908" d="M63.4,39.4c0,13-11.9,19.5-30.3,19.5S2.7,52.4,2.7,39.4S14.7,6.9,33.1,6.9S63.4,26.4,63.4,39.4z"/>
				</g>
				<g>
					<path fill="#F9C55D" d="M2.7,39.4c0-13,11.9-32.5,30.3-32.5"/>
				</g>
				<g>
					<path fill="#F7910B" d="M33.1,6.9c18.4,0,30.3,19.5,30.3,32.5S51.5,62.9,33.1,62.9"/>
				</g>
				<g>
					<path fill="#EA7103" d="M33.1,6.9c18.4,0,30.3,19.5,30.3,32.5"/>
				</g>
				<g>
					<g>
						<path fill="#F9C55D" d="M28.9,42c0,1.2-3.5,0.7-7.8,0.7c-4.3,0-7.8,0.6-7.8-0.7c0-1.2,3.5-2.2,7.8-2.2
							C25.4,39.8,28.9,40.8,28.9,42z"/>
					</g>
					<g>
						<path fill="#F9A908" d="M52.8,42c0,1.2-3.5,0.7-7.8,0.7c-4.3,0-7.8,0.6-7.8-0.7c0-1.2,3.5-2.2,7.8-2.2
							C49.4,39.8,52.8,40.8,52.8,42z"/>
					</g>
				</g>
				<g>
					<circle fill="#F7910B" cx="11.4" cy="36.3" r="0.6"/>
				</g>
				<g>
					<circle fill="#F7910B" cx="6.9" cy="38.3" r="1.1"/>
				</g>
				<g>
					<circle fill="#F7910B" cx="9.9" cy="34.3" r="0.2"/>
				</g>
				<g>
					<circle fill="#F7910B" cx="14.5" cy="36.2" r="0.2"/>
				</g>
				<g>
					<circle fill="#F9A908" cx="53.6" cy="36.7" r="0.8"/>
				</g>
				<g>
					<circle fill="#F9A908" cx="56.1" cy="38.1" r="0.2"/>
				</g>
				<g>
					<circle fill="#F9A908" cx="50.8" cy="29.3" r="0.3"/>
				</g>
				<g>
					<circle fill="#F9A908" cx="50.3" cy="40.9" r="1.3"/>
				</g>
				<g>
					<circle fill="#F9A908" cx="57.5" cy="41" r="0.6"/>
				</g>
				<g>
					<circle fill="#F7910B" cx="10.4" cy="40.4" r="0.5"/>
				</g>
				<g>
					<circle fill="#F7910B" cx="11.1" cy="32" r="0.4"/>
				</g>
				<g>
					<circle fill="#F9A908" cx="5.9" cy="18.2" r="1.1"/>
				</g>
				<g>
					<circle fill="#F9A908" cx="9.1" cy="14.7" r="0.6"/>
				</g>
				<g>
					<circle fill="#F9A908" cx="60.3" cy="20.6" r="0.2"/>
				</g>
				<g>
					<circle fill="#F9A908" cx="59.5" cy="17.7" r="0.8"/>
				</g>
				<g>
					<circle fill="#F9A908" cx="62" cy="18.2" r="0.5"/>
				</g>
				<g>
					<circle fill="#F9A908" cx="7.1" cy="21.2" r="0.6"/>
				</g>
			</g>
		</g>
	</g>
	<g>
		<g>
			<g>
				<g>
					<g>
						<path fill="#037A66" d="M30.3,35c-0.8,1.5-2.5,1.3-5.5-2.2c-2.3-2.6-6.5-2.3-5.7-3.8c0.8-1.5,4-1.4,7.1,0.3
							C29.2,30.9,31.1,33.5,30.3,35z"/>
					</g>
				</g>
			</g>
		</g>
		<g>
			<g>
				<g>
					<g>
						<path fill="#037A66" d="M35.8,35c0.8,1.5,2.5,1.3,5.5-2.2c2.3-2.6,6.5-2.3,5.8-3.8c-0.8-1.5-4-1.4-7.1,0.3
							C36.9,30.9,35.1,33.5,35.8,35z"/>
					</g>
				</g>
			</g>
		</g>
	</g>
	<g>
		<polygon fill="#02243E" points="48.9,14.4 51,18.7 55.8,19.4 52.3,22.8 53.2,27.6 48.9,25.4 44.6,27.6 45.4,22.8 41.9,19.4 
			46.7,18.7 		"/>
	</g>
	<g>
		<polygon fill="#02243E" points="40.4,8.8 41.8,11.5 44.8,12 42.6,14.1 43.1,17 40.4,15.6 37.7,17 38.3,14.1 36.1,12 39.1,11.5 		
			"/>
	</g>
	<g>
		<g>
			<g>
				<g>
					<g>
						<g>
							<path fill="#1E4784" d="M48.3,40.3c-0.4,0-0.8-0.2-1.2-0.5c-1.4-1.4-3.7-1.4-5.1,0c-0.6,0.6-1.7,0.7-2.3,0
								c-0.6-0.6-0.7-1.7,0-2.3c2.7-2.7,7.1-2.7,9.8,0c0.6,0.6,0.6,1.7,0,2.3C49.2,40.1,48.8,40.3,48.3,40.3z"/>
						</g>
					</g>
					<g>
						<g>
							<path fill="#02243E" d="M49.5,37.5c0.6,0.6,0.6,1.7,0,2.3c-0.3,0.3-0.7,0.5-1.2,0.5c-0.4,0-0.8-0.2-1.2-0.5
								c-1.4-1.4-3.7-1.4-5.1,0c-0.6,0.6-1.7,0.7-2.3,0c-0.6-0.6-0.7-1.7,0-2.3"/>
						</g>
					</g>
				</g>
			</g>
		</g>
		<g>
			<g>
				<g>
					<g>
						<g>
							<path fill="#1E4784" d="M17.8,40.3c0.4,0,0.8-0.2,1.2-0.5c1.4-1.4,3.7-1.4,5.1,0c0.6,0.6,1.7,0.7,2.3,0
								c0.6-0.6,0.7-1.7,0-2.3c-2.7-2.7-7.1-2.7-9.8,0c-0.6,0.6-0.6,1.7,0,2.3C17,40.1,17.4,40.3,17.8,40.3z"/>
						</g>
					</g>
					<g>
						<g>
							<path fill="#02243E" d="M16.6,37.5c-0.6,0.6-0.6,1.7,0,2.3c0.3,0.3,0.7,0.5,1.2,0.5c0.4,0,0.8-0.2,1.2-0.5
								c1.4-1.4,3.7-1.4,5.1,0c0.6,0.6,1.7,0.7,2.3,0c0.6-0.6,0.7-1.7,0-2.3"/>
						</g>
					</g>
				</g>
			</g>
		</g>
	</g>
	<g>
		<path fill="#99144A" d="M41.3,46.8c0,2.8-3.7,5.1-8.2,5.1c-4.6,0-8.2-2.3-8.2-5.1c0-2.8,3.7-0.7,8.2-0.7
			C37.6,46,41.3,43.9,41.3,46.8z"/>
	</g>
	<g>
		<path fill="#F7910B" d="M41.3,47.9c0,2.8-3.7,6.8-8.2,6.8c-4.6,0-8.2-4-8.2-6.8"/>
	</g>
	<g>
		<path fill="#72053B" d="M41.3,46.8c0,2.8-3.7,5.1-8.2,5.1c-4.6,0-8.2-2.3-8.2-5.1"/>
	</g>
	<g>
		<ellipse transform="matrix(0.9618 -0.2737 0.2737 0.9618 -6.6709 3.5574)" fill="#EA7103" cx="9.4" cy="25.7" rx="8.8" ry="8.5"/>
	</g>
	<g>
		<g>
			<g>
				<g>
					<path fill="#CCF2E3" d="M27.4,12.9c-0.5,8.2-2.3,6-4.6,5.9c-2.4-0.1-4.4,1.8-3.9-6.4c0.5-8.2,2.6-11.4,5-11.2
						C26.2,1.3,27.9,4.6,27.4,12.9z"/>
				</g>
				<g>
					<path fill="#AAD6C3" d="M23.8,1.1c2.4,0.1,4.1,3.5,3.6,11.7c-0.5,8.2-2.3,6-4.6,5.9"/>
				</g>
				<g>
					<path fill="#CCF2E3" d="M9.9,13.7c-0.5,8.2-2.3,6-4.6,5.9c-2.4-0.1-4.4,1.9-3.9-6.4C1.8,5,3.9,1.8,6.2,2
						C8.6,2.1,10.3,5.5,9.9,13.7z"/>
				</g>
				<g>
					<path fill="#AAD6C3" d="M6.2,2c2.4,0.1,4.1,3.5,3.6,11.7c-0.5,8.2-2.3,6-4.6,5.9"/>
				</g>
				<g>
					<path fill="#CCF2E3" d="M27.1,18.3c-0.5,7.6-4.8,13.7-12.5,13.3C6.9,31.1,1.1,24.6,1.5,17C2,9.4,8.4,7,16.1,7.4
						C23.7,7.9,27.5,10.7,27.1,18.3z"/>
				</g>
				<g>
					<path fill="#AAD6C3" d="M27.1,18.3c-0.5,7.6-4.8,13.7-12.5,13.3c-7.7-0.5-10-7.4-9.2-14.9C6,10.8,3.6,7.4,15.6,7.4
						C23.3,7.4,27.6,10.5,27.1,18.3z"/>
				</g>
				<g>
					<path fill="#CCF2E3" d="M32.1,17.4c1.6,2.3-1.6,7.3-7.2,11.2C19.3,32.6,13.6,32,12,29.7c-1.6-2.3,1.5-5.4,7-9.3
						C24.6,16.5,30.5,15.1,32.1,17.4z"/>
				</g>
				<g>
					<path fill="#AAD6C3" d="M32.1,17.4c1.6,2.3-1.6,7.3-7.2,11.2C19.3,32.6,13.6,32,12,29.7"/>
				</g>
			</g>
			<g>
				<path fill="#E7F7EF" d="M21.3,3.7c-0.5,1-0.7,2-0.4,2.2c0.3,0.2,1-0.5,1.6-1.5c0.5-1,0.7-2,0.4-2.2C22.6,2,21.9,2.7,21.3,3.7z"
					/>
			</g>
			<g>
				<path fill="#E7F7EF" d="M3.8,4.7c-0.6,1-0.7,2-0.4,2.2c0.3,0.2,1-0.5,1.6-1.5c0.6-1,0.7-2,0.4-2.2C5,3,4.3,3.7,3.8,4.7z"/>
			</g>
			<g>
				<path fill="#E7F7EF" d="M4.4,15.2c-0.1,2.5-0.6,4.5-1.2,4.5c-0.6,0-0.9-2.1-0.8-4.6c0.1-2.5,0.6-3.1,1.2-3
					C4.1,12.1,4.6,12.7,4.4,15.2z"/>
			</g>
			<g>
				<path fill="#E7F7EF" d="M24.6,18.2c1.9-0.9,3.6-1.3,3.9-0.8s-1.1,1.7-3,2.6c-1.9,0.9-2.5,0.7-2.8,0.2
					C22.5,19.8,22.7,19.1,24.6,18.2z"/>
			</g>
		</g>
		<g>
			<path fill="#CCF2E3" d="M14.8,12.3c0,3-0.7,5.5-1.7,5.5c-1,0-1.8-2.4-1.8-5.4c0-3,0.7-3.9,1.7-3.9C14,8.4,14.8,9.2,14.8,12.3z"/>
		</g>
		<g>
			<path fill="#E7F7EF" d="M11.8,12.1c-0.1,1.2,0.1,2.1,0.5,2.1c0.4,0,0.7-0.9,0.8-2.1c0.1-1.2-0.1-2.1-0.5-2.1
				C12.2,10,11.9,11,11.8,12.1z"/>
		</g>
	</g>
</g>
</svg>
