<?xml version="1.0" encoding="utf-8"?>
<!-- Generator: Adobe Illustrator 16.0.0, SVG Export Plug-In . SVG Version: 6.00 Build 0)  -->
<!DOCTYPE svg PUBLIC "-//W3C//DTD SVG 1.1//EN" "http://www.w3.org/Graphics/SVG/1.1/DTD/svg11.dtd">
<svg version="1.1" id="Layer_1" xmlns="http://www.w3.org/2000/svg" xmlns:xlink="http://www.w3.org/1999/xlink" x="0px" y="0px"
	 width="64px" height="64px" viewBox="0 0 64 64" enable-background="new 0 0 64 64" xml:space="preserve">
<g>
	<path fill="#BACBCC" d="M63,48.1c0,1.4-13.9,7.9-31,7.9c-17.1,0-31-6.6-31-7.9c0-1.4,13.9-0.4,31-0.4C49.1,47.8,63,46.8,63,48.1z"
		/>
	<path fill="#99B5B5" d="M63,48.1c0,1.4-13.9,7.9-31,7.9c-17.1,0-18.2-6.5-18.2-7.8c0-1.4,1-0.4,18.2-0.4C49.1,47.8,63,46.8,63,48.1
		z"/>
	<path fill="#99B5B5" d="M9.3,48.5c0,0,2.1-14.3,9.6-19.7c7.4-5.3,0.7-16.8,17.3-19.9c16.1-3.1,20.2,1.9,20.5,4.8s-5.8-2.9-7.4,1.3
		c-1.6,4.3,2.9,9,2.1,19.1c-0.8,10.1,4.5,14.3,4.5,14.3l-40.1,1.3L9.3,48.5z"/>
	<path fill="#BACBCC" d="M22.2,28.7c7.4-5.3-1.1-16.7,15.4-19.8c3.2-0.6,6-0.9,8.6-0.9c-2.7-0.1-6,0.2-10.1,0.9
		C19.6,12,26.3,23.5,18.8,28.8c-7.4,5.3-9.6,19.7-9.6,19.7l6.4,1.3l1,0C16.6,49.1,14.9,33.9,22.2,28.7z"/>
</g>
</svg>
