<?xml version="1.0" encoding="utf-8"?>
<!-- Generator: Adobe Illustrator 16.0.0, SVG Export Plug-In . SVG Version: 6.00 Build 0)  -->
<!DOCTYPE svg PUBLIC "-//W3C//DTD SVG 1.1//EN" "http://www.w3.org/Graphics/SVG/1.1/DTD/svg11.dtd">
<svg version="1.1" id="Layer_1" xmlns="http://www.w3.org/2000/svg" xmlns:xlink="http://www.w3.org/1999/xlink" x="0px" y="0px"
	 width="64px" height="64px" viewBox="0 0 64 64" enable-background="new 0 0 64 64" xml:space="preserve">
<g>
	<g>
		<ellipse fill="#380303" cx="32.6" cy="15.7" rx="8.5" ry="6.5"/>
		<g>
			<ellipse fill="#380303" cx="37.1" cy="17.9" rx="8.5" ry="6.5"/>
			<ellipse fill="#380303" cx="28.2" cy="17.9" rx="8.5" ry="6.5"/>
		</g>
	</g>
	<g>
		<path fill="#05961D" d="M43.6,9.3c0,0,3.2-2,4.2-0.9c1,1-0.4,3.7-2.6,3.1c0,0,1.9,1,1.1,2c-0.9,1-2.6,1.1-3-0.4
			c0,0-0.1,0.9-1.5,0.6c-1.4-0.3-0.1-4-0.1-4L43.6,9.3z"/>
		<path fill="#046812" d="M46.3,13.5c-0.9,1-2.6,1.1-3-0.4c0,0-0.1,0.9-1.5,0.6c-1.4-0.3-0.1-4-0.1-4l1.8-0.3"/>
		<path fill="#046812" d="M47.8,8.4c1,1-0.4,3.7-2.6,3.1"/>
		<g>
			<path fill="#EF4D4E" d="M30.5,29.1l-0.8-0.3c-3.6-1.2-5.5-5.1-4.4-8.7c0.4-1.3,1.8-2,3.1-1.5c1.3,0.4,2,1.8,1.5,3.1
				c-0.3,1,0.2,2.2,1.3,2.5l0.8,0.3c1,0.3,2.2-0.2,2.5-1.3L41.3,3c0.4-1.3,1.8-2,3.1-1.5c1.3,0.4,2,1.8,1.5,3.1l-6.7,20.3
				C38,28.4,34.1,30.3,30.5,29.1z"/>
		</g>
		<g>
			<path fill="#C11724" d="M45.9,4.5l-6.7,20.3c-1.1,3.4-4.6,5.3-8,4.5"/>
			<line fill="#EF4D4E" x1="31.2" y1="24.2" x2="32" y2="24.5"/>
		</g>
		<g>
			<path fill="#80EDE3" d="M39.7,7.7l6.1-3.1l0-0.1c0.3-0.8,0.1-1.6-0.4-2.2l-4.8,2.4L39.7,7.7z"/>
			<path fill="#55CEBF" d="M39.7,7.7l6.1-3.1l0-0.1c0.3-0.8,0.1-1.6-0.4-2.2"/>
			<g>
				<polygon fill="#80EDE3" points="44.8,7.8 38.7,10.9 37.6,13.9 43.8,10.8 				"/>
				<polyline fill="#55CEBF" points="37.6,13.9 43.8,10.8 44.8,7.8 				"/>
				<path fill="#80EDE3" d="M28.2,18.6c-1.2-0.3-2.4,0.3-2.9,1.4L28.2,18.6z"/>
			</g>
			<g>
				<polygon fill="#80EDE3" points="42.8,14 36.6,17 35.6,20.1 41.7,17 				"/>
				<polyline fill="#55CEBF" points="35.6,20.1 41.7,17 42.8,14 				"/>
				<path fill="#80EDE3" d="M25.6,25.1l4.4-2.2c-0.1-0.4-0.1-0.8,0-1.2c0.2-0.5,0.2-0.9,0.1-1.3l-5,2.5
					C25.1,23.7,25.3,24.4,25.6,25.1z"/>
				<path fill="#55CEBF" d="M25,22.9c0.1,0.8,0.3,1.5,0.6,2.2l4.4-2.2c-0.1-0.4-0.1-0.8,0-1.2"/>
			</g>
			<path fill="#80EDE3" d="M29,28.6l10.7-5.4l1-3l-6.1,3.1l0,0c-0.3,1-1.5,1.6-2.5,1.3l0,0l-5.1,2.6C27.5,27.7,28.2,28.2,29,28.6z"
				/>
			<polyline fill="#55CEBF" points="29,28.6 39.7,23.2 40.7,20.1 			"/>
			<path fill="#55CEBF" d="M38.3,26.5l-5.9,3C34.8,29.5,37,28.4,38.3,26.5z"/>
		</g>
		<path fill="#21C140" d="M44,12.2c-0.1,0.4-0.4,0.2-0.8,0.1l-4.4-1.4c-0.4-0.1-0.7-0.2-0.6-0.6l0.6-1.7c0.1-0.4,0.5-0.6,0.9-0.5
			l4.4,1.4c0.4,0.1,0.6,0.5,0.5,0.9L44,12.2z"/>
		<path fill="#05961D" d="M38.8,8.6c0.1-0.4,0.5-0.6,0.9-0.5l4.4,1.4c0.4,0.1,0.6,0.5,0.5,0.9L44,12.2c-0.1,0.4-0.4,0.2-0.8,0.1"/>
		<path fill="#FF7B82" d="M44.6,2c0.1,0.3-0.5,0.6-1.2,0.9S42,3,41.9,2.7c-0.1-0.3,0.5-0.7,1.2-0.9C43.8,1.7,44.5,1.7,44.6,2z"/>
		<g>
			<circle fill="#30D84C" cx="40.1" cy="9.8" r="0.3"/>
			<circle fill="#30D84C" cx="41.5" cy="10.2" r="0.3"/>
			<path fill="#30D84C" d="M43.1,10.7c-0.1,0.1-0.2,0.2-0.3,0.2c-0.1,0-0.2-0.2-0.2-0.3c0-0.1,0.2-0.2,0.3-0.2
				C43,10.4,43.1,10.6,43.1,10.7z"/>
		</g>
		<path fill="#046812" d="M43.5,14.5c0,0,2.8,0.2,3.1,3.8c0.2,3.5,3,3.6,3.9,1.6c0,0,0.1,1.4-0.7,2c0,0,0.3,0.4,0.9,0.2
			c0,0-2.6,2.7-4.3-0.1c-0.9-1.5,0.2-3.4-0.9-5.7C44.8,14.7,43.5,14.5,43.5,14.5z"/>
	</g>
	<path fill="#8E2D2D" d="M42.9,14.2c-1.9-1.1-3.9-1.6-5.7,0.1c-0.6-2.9-2.4-2.8-4.6-2.8c-2.2,0-4-0.1-4.6,2.8
		c-1.8-1.7-3.8-1.2-5.7-0.1c-2.4,1.5-3.9,3.5-1.6,7.3c1.9,3.1,6.2,7.4,9.1,8.1c0.8,2.9,1.8,5,2.8,5c1.1,0,2-2.1,2.8-5
		c2.9-0.7,7.2-5,9.1-8.1C46.8,17.8,45.4,15.7,42.9,14.2z"/>
	<path fill="#661717" d="M42.9,14.9c-1.9-1-3.9-1.3-5.7,0.1c-0.6-2.4-2.4-2.4-4.6-2.4c-2.2,0-4-0.1-4.6,2.4
		c-1.8-1.4-3.8-1.1-5.7-0.1c-2.4,1.2-3.9,3-1.6,6.2c1.9,2.6,6.2,6.3,9.1,6.9c0.8,2.4,1.8,4.2,2.8,4.2c1.1,0,2-1.8,2.8-4.2
		c2.9-0.6,7.2-4.3,9.1-6.9C46.8,17.9,45.4,16.2,42.9,14.9z"/>
	<path fill="#4C0808" d="M29.8,28c0.8,2.4,1.8,4.2,2.8,4.2c1.1,0,2-1.8,2.8-4.2c2.9-0.6,7.2-4.3,9.1-6.9c2.3-3.2,0.8-5-1.6-6.2
		c-1.9-1-3.9-1.3-5.7,0.1c-0.6-2.4-2.4-2.4-4.6-2.4c-2.2,0-4-0.1-4.6,2.4"/>
	<path fill="#661717" d="M55.4,38.5l0.2-5.4c0-1-0.7-1.8-1.7-1.9L50,31l-2.4-2.6c-0.7-0.7-1.8-0.8-2.6-0.1l-1.6,1.5
		c-3.4-1.3-7.3-2-11.3-2c-4,0-7.9,0.7-11.3,2l-2.3-2.4c-0.6-0.7-1.7-0.7-2.3-0.1L11,32.1c-0.7,0.6-0.7,1.7-0.1,2.4l0.5,0.5H8.7
		c-1,0-1.7,0.7-1.7,1.7v4.6c-1,2.2-1.7,4.6-1.7,7.1c0,11.1,12,14.3,26.7,14.3s26.8-3.3,26.8-14.3C58.8,44.8,57.5,41.5,55.4,38.5z"/>
	<line fill="#4C0808" x1="16.1" y1="27.3" x2="11" y2="32.1"/>
	<path fill="#4C0808" d="M32,62.7c14.8,0,26.8-3.3,26.8-14.3c0-3.5-1.2-6.9-3.4-9.9l0.2-5.4c0-1-0.7-1.8-1.7-1.9L50,31l-2.4-2.6
		c-0.7-0.7-1.8-0.8-2.6-0.1l-1.6,1.5c-3.4-1.3-7.3-2-11.3-2c-4,0-7.9,0.7-11.3,2"/>
	<path fill="#F4B840" d="M43.8,28.5c0,1.3-1.6,2.5-3.6,2.5H23.8c-2,0-3.6-1.2-3.6-2.5l0,0c0-1.3,1.6-2.5,3.6-2.5h16.4
		C42.2,26,43.8,27.2,43.8,28.5L43.8,28.5z"/>
	<path fill="#D8992B" d="M43.8,28.6L43.8,28.6c0,1.3-1.6,2.4-3.6,2.4H23.8c-2,0-3.6-1.1-3.6-2.3l0,0"/>
	<path fill="#8E2D2D" d="M54.3,32.5c0,0.3-0.3,0.5-0.6,0.5h-6.2c-0.3,0-0.6-0.2-0.6-0.5l0,0c0-0.3,0.3-0.5,0.6-0.5h6.2
		C54,32,54.3,32.2,54.3,32.5L54.3,32.5z"/>
	<path fill="#8E2D2D" d="M30.7,32.5c0,0.3-0.3,0.5-0.6,0.5h-6.2c-0.3,0-0.6-0.2-0.6-0.5l0,0c0-0.3,0.3-0.5,0.6-0.5h6.2
		C30.4,32,30.7,32.2,30.7,32.5L30.7,32.5z"/>
	<path fill="#8E2D2D" d="M33.5,32.9c0,0.3-0.3,0.6-0.6,0.6h-0.1c-0.3,0-0.6-0.3-0.6-0.6l0,0c0-0.3,0.3-0.6,0.6-0.6h0.1
		C33.2,32.2,33.5,32.5,33.5,32.9L33.5,32.9z"/>
	<path fill="#8E2D2D" d="M15,36.5c0,0.3-0.2,0.5-0.5,0.5h-6C8.2,37,8,36.8,8,36.5l0,0C8,36.2,8.2,36,8.5,36h6
		C14.8,36,15,36.2,15,36.5L15,36.5z"/>
	<path fill="#8E2D2D" d="M19.9,31.8c0.2,0.2,0.2,0.6,0,0.9l-4.4,4.4c-0.2,0.2-0.6,0.2-0.9,0l0,0c-0.2-0.2-0.2-0.6,0-0.9l4.4-4.4
		C19.3,31.6,19.6,31.6,19.9,31.8L19.9,31.8z"/>
	<path fill="#8E2D2D" d="M17.3,28.1c0.2,0.2,0.2,0.6,0,0.9l-4.4,4.4c-0.2,0.2-0.6,0.2-0.9,0l0,0c-0.2-0.2-0.2-0.6,0-0.9l4.4-4.4
		C16.7,27.9,17,27.9,17.3,28.1L17.3,28.1z"/>
	<path fill="#8E2D2D" d="M50.3,33.2c-0.2,0.2-0.6,0.2-0.9,0l-3.4-3.4c-0.2-0.2-0.2-0.6,0-0.9l0,0c0.2-0.2,0.6-0.2,0.9,0l3.4,3.4
		C50.5,32.6,50.5,33,50.3,33.2L50.3,33.2z"/>
	<path fill="#C4831A" d="M21.9,26.4c-0.3,0.1-0.6,0.3-0.8,0.5l2.2,4.1c0.2,0,0.3,0,0.5,0h0.5L21.9,26.4z"/>
	<path fill="#C4831A" d="M23.6,26l2.5,5h1l-2.4-5h-1C23.8,26,23.6,26,23.6,26z"/>
	<polygon fill="#C4831A" points="29,31 30,31 27.6,26 26.6,26 	"/>
	<polygon fill="#C4831A" points="31.9,31 32.9,31 30.5,26 29.4,26 	"/>
	<polygon fill="#C4831A" points="34.7,31 35.8,31 33.3,26 32.3,26 	"/>
	<polygon fill="#C4831A" points="37.6,31 38.6,31 36.2,26 35.2,26 	"/>
	<path fill="#C4831A" d="M40.6,31c0.3,0,0.7-0.1,1-0.2L39.1,26h-1L40.6,31z"/>
	<path fill="#C4831A" d="M42,26.4c-0.4-0.2-0.8-0.3-1.2-0.3l2.1,4.1c0.3-0.2,0.5-0.5,0.6-0.8L42,26.4z"/>
	<g>
		<g>
			<polygon fill="#2ED887" points="43.5,53 32,41.5 20.5,53 			"/>
			<polygon fill="#2CBF7F" points="43.5,53 32,41.5 28.8,53 			"/>
		</g>
		<g>
			<polygon fill="#2ED887" points="41.2,48 32.1,38.9 22.9,48 			"/>
			<polygon fill="#2CBF7F" points="41.2,48 32.1,38.9 29.5,48 			"/>
		</g>
		<g>
			<polygon fill="#2ED887" points="39.3,45 32.1,37.8 24.8,45 			"/>
			<polygon fill="#2CBF7F" points="39.3,45 32.1,37.8 30,45 			"/>
		</g>
		<g>
			<polygon fill="#2ED887" points="37.3,41 32.1,35.7 26.8,41 			"/>
			<polygon fill="#2CBF7F" points="37.3,41 32.1,35.7 30.6,41 			"/>
		</g>
	</g>
	<ellipse transform="matrix(-0.9764 -0.2158 0.2158 -0.9764 7.007 91.5736)" fill="#8E2D2D" cx="8.5" cy="45.4" rx="1.6" ry="5.8"/>
	<circle fill="#8E2D2D" cx="13.9" cy="41.5" r="1.5"/>
	<circle fill="#8E2D2D" cx="17.7" cy="39.5" r="0.6"/>
	<circle fill="#8E2D2D" cx="20.7" cy="35.7" r="0.8"/>
	<circle fill="#8E2D2D" cx="21.3" cy="39" r="0.3"/>
	<circle fill="#8E2D2D" cx="12.2" cy="47.9" r="0.2"/>
	<circle fill="#8E2D2D" cx="11.7" cy="53.1" r="1.7"/>
	<circle fill="#8E2D2D" cx="21.7" cy="18.8" r="0.6"/>
	<circle fill="#8E2D2D" cx="23.7" cy="19.2" r="0.3"/>
	<circle fill="#8E2D2D" cx="22.9" cy="21.3" r="0.1"/>
	<circle fill="#8E2D2D" cx="24.5" cy="20.7" r="0.3"/>
</g>
</svg>
