<?xml version="1.0" encoding="utf-8"?>
<!-- Generator: Adobe Illustrator 16.0.0, SVG Export Plug-In . SVG Version: 6.00 Build 0)  -->
<!DOCTYPE svg PUBLIC "-//W3C//DTD SVG 1.1//EN" "http://www.w3.org/Graphics/SVG/1.1/DTD/svg11.dtd">
<svg version="1.1" xmlns="http://www.w3.org/2000/svg" xmlns:xlink="http://www.w3.org/1999/xlink" x="0px" y="0px" width="65px"
	 height="65px" viewBox="0 0 65 65" enable-background="new 0 0 65 65" xml:space="preserve">
<g id="Layer_1">
	<g>
		<path fill="#CE0909" d="M57.94,58.307c0,3.42-2.773,6.193-6.193,6.193H33.854c-3.42,0-6.193-2.773-6.193-6.193V20.628
			c0-3.42,2.773-3.957,6.193-3.957h17.893c3.42,0,6.193,0.537,6.193,3.957V58.307z"/>
		<path fill="#FF0000" d="M46.069,58.307V20.628c0-3.42-2.773-3.957-6.193-3.957h-6.021c-3.42,0-6.193,0.537-6.193,3.957v37.679
			c0,3.42,2.773,6.193,6.193,6.193h6.021C43.296,64.5,46.069,61.727,46.069,58.307z"/>
		<path fill="#112D3F" d="M60.394,19.628c0,0.48-0.392,0.872-0.873,0.872H26.08c-0.482,0-0.871-0.392-0.871-0.872v-3.151
			c0-0.48,0.389-0.872,0.871-0.872h33.44c0.481,0,0.873,0.392,0.873,0.872V19.628z"/>
		<path fill="#164966" d="M48.651,19.628v-3.151c0-0.48-0.393-0.872-0.872-0.872H26.08c-0.482,0-0.871,0.392-0.871,0.872v3.151
			c0,0.48,0.389,0.872,0.871,0.872h21.699C48.259,20.5,48.651,20.108,48.651,19.628z"/>
		<g>
			<path fill="#FF0000" d="M49.101,58.896c0,0.468,0.035,0.942,0.108,1.41c0.023,0.164,0.165,0.284,0.329,0.284h4.876
				c0.169,0,0.312-0.127,0.331-0.297c0.041-0.354,0.062-0.758,0.062-1.198c0-1.058-0.28-1.898-0.81-2.427
				c-0.522-0.532-1.272-0.812-2.165-0.812c-0.854,0-1.535,0.271-2.023,0.805C49.332,57.17,49.101,57.902,49.101,58.896z
				 M53.624,58.969c0,0.059,0,0.184-0.006,0.312h-3.322c-0.011-0.108-0.02-0.247-0.02-0.415c0-0.571,0.143-1.002,0.426-1.282
				c0.264-0.263,0.65-0.394,1.152-0.392C53.028,57.192,53.624,57.79,53.624,58.969z"/>
			<path fill="#FF0000" d="M52.993,50.717c-0.382,0.087-0.684,0.231-0.902,0.43c-0.307-0.406-0.773-0.644-1.31-0.644
				c-0.482,0-0.907,0.179-1.188,0.499c-0.34,0.376-0.492,0.887-0.492,1.658c0,0.475,0.043,0.96,0.109,1.295
				c0.033,0.157,0.17,0.268,0.328,0.268h4.891c0.186,0,0.334-0.149,0.334-0.334v-0.64c0-0.185-0.148-0.335-0.334-0.335h-1.812
				l-0.001-0.256c0.014-0.36,0.087-0.546,0.702-0.68c0.77-0.173,1.117-0.272,1.277-0.366c0.104-0.061,0.168-0.171,0.168-0.291V50.66
				c0-0.118-0.062-0.227-0.162-0.287c-0.102-0.061-0.228-0.063-0.332-0.007C54.101,50.458,53.46,50.607,52.993,50.717z
				 M50.854,51.811c0.563,0,0.607,0.6,0.607,0.783v0.32h-1.189c-0.005-0.08-0.01-0.179-0.01-0.296
				C50.271,51.811,50.694,51.811,50.854,51.811z"/>
			<path fill="#FF0000" d="M49.138,45.131v0.729c0,0.125,0.07,0.238,0.18,0.296l1.508,0.783c0.093,0.05,0.182,0.095,0.27,0.138
				c-0.125,0.062-0.26,0.13-0.406,0.205L49.32,47.98c-0.111,0.058-0.183,0.174-0.183,0.299v0.728c0,0.118,0.062,0.229,0.164,0.287
				c0.103,0.061,0.227,0.062,0.331,0.006l2.778-1.524h2.018c0.186,0,0.334-0.15,0.334-0.335v-0.647c0-0.186-0.148-0.334-0.334-0.334
				h-2.021l-2.769-1.616c-0.103-0.061-0.23-0.062-0.334-0.001C49.202,44.901,49.138,45.011,49.138,45.131z"/>
			<path fill="#FF0000" d="M51.729,40.351c-0.275-0.306-0.646-0.479-1.06-0.479c-0.475,0-0.881,0.194-1.136,0.535
				c-0.299,0.372-0.434,0.856-0.434,1.57c0,0.441,0.043,0.918,0.109,1.24c0.034,0.153,0.17,0.264,0.328,0.264h4.876
				c0.168,0,0.31-0.123,0.331-0.288c0.023-0.168,0.062-0.526,0.062-1.038c0-0.913-0.176-1.528-0.559-1.946
				c-0.335-0.346-0.75-0.521-1.231-0.521C52.413,39.688,51.991,39.981,51.729,40.351z M50.737,41.187
				c0.366,0,0.496,0.382,0.496,0.739v0.247h-0.965c-0.004-0.07-0.006-0.147-0.006-0.232C50.263,41.187,50.583,41.187,50.737,41.187z
				 M52.387,42.173v-0.196c0-0.432,0.108-0.945,0.622-0.945c0.418,0,0.629,0.316,0.629,0.938c0,0.075,0,0.144-0.002,0.203H52.387z"
				/>
			<path fill="#FF0000" d="M49.364,35.293c-0.137,0.047-0.227,0.174-0.227,0.317v0.771c0,0.144,0.09,0.271,0.228,0.316l4.956,1.684
				c0.102,0.035,0.213,0.02,0.301-0.044c0.088-0.062,0.141-0.163,0.141-0.271v-0.662c0-0.144-0.093-0.272-0.229-0.316l-1.328-0.439
				v-1.276l1.329-0.453c0.139-0.046,0.229-0.174,0.229-0.316v-0.685c0-0.002,0-0.004,0-0.004c0-0.188-0.148-0.337-0.334-0.337
				c-0.061,0-0.117,0.017-0.168,0.045L49.364,35.293z M52.034,36.291l-0.824-0.279l0.824-0.281V36.291z"/>
			<path fill="#FF0000" d="M51.491,28.059v1.632c0,0.186,0.15,0.335,0.334,0.335h0.514c0.186,0,0.336-0.149,0.336-0.335v-0.672
				h0.898c0.024,0.123,0.043,0.297,0.043,0.519c0,0.988-0.623,1.578-1.666,1.578c-1.038,0-1.66-0.62-1.66-1.658
				c0-0.484,0.1-0.768,0.186-0.961c0.039-0.088,0.038-0.188,0-0.276c-0.041-0.087-0.119-0.152-0.211-0.181l-0.521-0.154
				c-0.156-0.046-0.324,0.028-0.396,0.176c-0.128,0.261-0.261,0.761-0.261,1.381c0,1.797,1.162,3.009,2.892,3.018
				c0.841,0,1.602-0.289,2.089-0.795c0.502-0.526,0.746-1.207,0.746-2.083c0-0.679-0.157-1.264-0.29-1.635
				c-0.048-0.133-0.173-0.222-0.315-0.222h-2.383C51.642,27.725,51.491,27.874,51.491,28.059z"/>
		</g>
		<g>
			<path fill="#66757C" d="M26.671,25.274H12.865c-0.202,0-0.401-0.007-0.602-0.022c-4.29-0.306-7.657-3.923-7.657-8.235V8.758
				c0-4.553,3.705-8.258,8.259-8.258h34.579c4.555,0,8.26,3.705,8.26,8.258v10.323h-4.131V8.758c0-2.277-1.85-4.129-4.129-4.129
				H12.865c-2.278,0-4.129,1.852-4.129,4.129v8.259c0,2.156,1.682,3.964,3.829,4.117c0.104,0.009,0.201,0.012,0.3,0.012h13.806
				V25.274z"/>
		</g>
		<path fill="#4C5A60" d="M47.444,4.457H12.865c-4.554,0-8.259,3.704-8.259,8.258v4.302c0,4.312,3.367,7.93,7.657,8.235
			c0.2,0.016,0.399,0.022,0.602,0.022h13.806v-0.173H12.865c-0.099,0-0.196-0.003-0.3-0.011c-2.147-0.153-3.829-1.962-3.829-4.118
			v-3.956v-4.302V8.758c0-2.277,1.851-4.129,4.129-4.129h34.579c2.279,0,4.129,1.852,4.129,4.129v3.957v6.366h4.131v-6.366
			C55.704,8.161,51.999,4.457,47.444,4.457z"/>
		<path fill="#A3C2CC" d="M56.65,23.592c0,0.49-0.396,0.886-0.886,0.886h-4.528c-0.489,0-0.886-0.396-0.886-0.886V18.62
			c0-0.49,0.396-0.887,0.886-0.887h4.528c0.489,0,0.886,0.396,0.886,0.887V23.592z"/>
		<path fill="#82B1BC" d="M55.765,17.733c0.489,0,0.886,0.396,0.886,0.887v4.972c0,0.49-0.396,0.886-0.886,0.886h-4.528
			c-0.489,0-0.886-0.396-0.886-0.886"/>
	</g>
</g>
<g id="nyt_x5F_exporter_x5F_info" display="none">
</g>
</svg>
