<?xml version="1.0" encoding="utf-8"?>
<!-- Generator: Adobe Illustrator 16.0.0, SVG Export Plug-In . SVG Version: 6.00 Build 0)  -->
<!DOCTYPE svg PUBLIC "-//W3C//DTD SVG 1.1//EN" "http://www.w3.org/Graphics/SVG/1.1/DTD/svg11.dtd">
<svg version="1.1" xmlns="http://www.w3.org/2000/svg" xmlns:xlink="http://www.w3.org/1999/xlink" x="0px" y="0px" width="65px"
	 height="65px" viewBox="0 0 65 65" enable-background="new 0 0 65 65" xml:space="preserve">
<g id="Layer_1">
	<g>
		<path fill="#14755C" d="M22.52,59.293c-0.263,0.64-0.997,0.947-1.638,0.685l0,0c-0.642-0.262-0.947-0.995-0.686-1.637l2.592-6.321
			c0.262-0.642,0.996-0.948,1.637-0.686l0,0c0.641,0.264,0.948,0.996,0.686,1.637L22.52,59.293z"/>
		<path fill="#14755C" d="M22.476,24.251c0,0.92-0.746,1.666-1.666,1.666l0,0c-0.922,0-1.666-0.746-1.666-1.666V2.249
			c0-0.92,0.744-1.666,1.666-1.666l0,0c0.92,0,1.666,0.746,1.666,1.666V24.251z"/>
		<path fill="#A1B7AA" d="M43.175,43.625h9.312c-0.601,6.323-5.938,11.288-12.415,11.288c-6.877,0-12.472-5.597-12.472-12.475
			l-0.003-13.134c-0.011-4.292-0.019-9.158,1.321-10.502c0.623-0.624,2.141-0.717,2.986-0.717V8.583H7.701
			c-2.624,0-4.752,2.128-4.752,4.752c0,2.623,2.128,4.751,4.752,4.751h11.238c-0.862,3.354-0.854,7.229-0.847,11.237l0.004,13.115
			c0,12.119,9.857,21.979,21.976,21.979c11.722,0,21.327-9.223,21.945-20.792h0.033v-18.5L43.175,43.625z"/>
		<g>
			<path fill="#B3C6BA" d="M18.097,32.771c0,11.119,8.301,20.33,19.029,21.775c-5.457-1.33-9.525-6.247-9.525-12.108l-0.003-13.134
				c-0.003-0.717-0.003-1.449,0.001-2.179l-0.001-7.488c-0.011-4.292-0.019-9.158,1.321-10.502c0.278-0.278,0.734-0.446,1.23-0.553
				H18.903c-0.712,2.874-0.805,6.12-0.811,9.503h0.847c-0.716,2.785-0.831,5.934-0.845,9.216L18.097,32.771z"/>
			<path fill="#B3C6BA" d="M46.188,43.625h6.299c-0.5,5.263-4.285,9.573-9.273,10.875c10.25-1.477,18.242-10.027,18.804-20.542
				h0.033v-8.833l-9.653,9.462C51.827,38.467,49.472,41.766,46.188,43.625z"/>
		</g>
		<path fill="#14755C" d="M30.386,22.801c0.232,0.795-0.225,1.628-1.018,1.861l-11.275,3.305c-0.795,0.234-1.629-0.223-1.861-1.018
			l0,0c-0.233-0.794,0.223-1.628,1.018-1.861l11.273-3.305C29.319,21.549,30.152,22.006,30.386,22.801L30.386,22.801z"/>
		<path fill="#14755C" d="M30.386,27.801c0.232,0.795-0.225,1.628-1.018,1.861l-11.275,3.305c-0.795,0.234-1.629-0.223-1.861-1.018
			l0,0c-0.233-0.794,0.223-1.628,1.018-1.861l11.273-3.305C29.319,26.549,30.152,27.006,30.386,27.801L30.386,27.801z"/>
		<path fill="#14755C" d="M30.386,32.801c0.232,0.795-0.225,1.628-1.018,1.861l-11.275,3.305c-0.795,0.234-1.629-0.223-1.861-1.018
			l0,0c-0.233-0.794,0.223-1.628,1.018-1.861l11.273-3.305C29.319,31.549,30.152,32.006,30.386,32.801L30.386,32.801z"/>
		<path fill="#14755C" d="M30.386,37.801c0.232,0.795-0.225,1.628-1.018,1.861l-11.275,3.305c-0.795,0.234-1.629-0.223-1.861-1.018
			l0,0c-0.233-0.794,0.223-1.628,1.018-1.861l11.273-3.305C29.319,36.549,30.152,37.006,30.386,37.801L30.386,37.801z"/>
		<path fill="#14755C" d="M30.386,42.801c0.232,0.795-0.225,1.628-1.018,1.861l-11.275,3.305c-0.795,0.234-1.629-0.223-1.861-1.018
			l0,0c-0.233-0.794,0.223-1.628,1.018-1.861l11.273-3.305C29.319,41.549,30.152,42.006,30.386,42.801L30.386,42.801z"/>
	</g>
</g>
<g id="nyt_x5F_exporter_x5F_info" display="none">
</g>
</svg>
