<?xml version="1.0" encoding="utf-8"?>
<!-- Generator: Adobe Illustrator 16.0.0, SVG Export Plug-In . SVG Version: 6.00 Build 0)  -->
<!DOCTYPE svg PUBLIC "-//W3C//DTD SVG 1.1//EN" "http://www.w3.org/Graphics/SVG/1.1/DTD/svg11.dtd">
<svg version="1.1" xmlns="http://www.w3.org/2000/svg" xmlns:xlink="http://www.w3.org/1999/xlink" x="0px" y="0px" width="65px"
	 height="65px" viewBox="0 0 65 65" enable-background="new 0 0 65 65" xml:space="preserve">
<g id="Layer_1">
	<g>
		<g>
			<g>
				<g>
					<g>
						<g>
							<line fill="#27C4CC" x1="32.5" y1="3.146" x2="32.5" y2="62.062"/>
						</g>
						<g>
							<path fill="#348BC6" d="M32.5,64.562c-1.382,0-2.501-1.119-2.501-2.5V3.146c0-1.381,1.119-2.5,2.501-2.5
								c1.381,0,2.499,1.119,2.499,2.5v58.916C34.999,63.442,33.881,64.562,32.5,64.562z"/>
						</g>
					</g>
				</g>
			</g>
			<g>
				<g>
					<circle fill="#FFF148" cx="32.5" cy="21.604" r="18.666"/>
				</g>
				<g>
					<path fill="#FFCE45" d="M32.501,2.938c10.309,0,18.665,8.357,18.665,18.666c0,10.311-8.356,18.666-18.665,18.666"/>
				</g>
				<g>
					<path fill="#348BC6" d="M32.501,42.771c-11.672,0-21.167-9.494-21.167-21.166S20.829,0.438,32.501,0.438
						c11.67,0,21.165,9.494,21.165,21.166S44.171,42.771,32.501,42.771z M32.501,5.438c-8.914,0-16.167,7.252-16.167,16.166
						s7.253,16.166,16.167,16.166c8.913,0,16.165-7.252,16.165-16.166S41.414,5.438,32.501,5.438z"/>
				</g>
			</g>
			<g>
				<g>
					<g>
						<circle fill="#27C4CC" cx="25.919" cy="58.137" r="1.593"/>
					</g>
				</g>
				<g>
					<g>
						<g>
							<circle fill="#27C4CC" cx="25.918" cy="52.03" r="1.593"/>
						</g>
					</g>
					<g>
						<g>
							<circle fill="#27C4CC" cx="39.081" cy="58.136" r="1.594"/>
						</g>
					</g>
					<g>
						<g>
							<circle fill="#27C4CC" cx="39.081" cy="52.029" r="1.593"/>
						</g>
					</g>
				</g>
			</g>
		</g>
		<g>
			<g>
				<circle fill="#FFCE45" cx="28.142" cy="25.791" r="1.062"/>
			</g>
			<g>
				<circle fill="#FFCE45" cx="28.142" cy="21.729" r="1.062"/>
			</g>
			<g>
				<circle fill="#FFCE45" cx="28.142" cy="17.666" r="1.062"/>
			</g>
		</g>
	</g>
</g>
<g id="nyt_x5F_exporter_x5F_info" display="none">
</g>
</svg>
