<?xml version="1.0" encoding="utf-8"?>
<!-- Generator: Adobe Illustrator 16.0.0, SVG Export Plug-In . SVG Version: 6.00 Build 0)  -->
<!DOCTYPE svg PUBLIC "-//W3C//DTD SVG 1.1//EN" "http://www.w3.org/Graphics/SVG/1.1/DTD/svg11.dtd">
<svg version="1.1" id="Layer_1" xmlns="http://www.w3.org/2000/svg" xmlns:xlink="http://www.w3.org/1999/xlink" x="0px" y="0px"
	 width="64px" height="64px" viewBox="0 0 64 64" enable-background="new 0 0 64 64" xml:space="preserve">
<g>
	<g>
		<g>
			<path fill="#F7910B" d="M63.6,36.7c0,11.6-10.7,21.1-27.2,21.1c-16.5,0-27.2-9.4-27.2-21.1c0-11.6,10.7-29.1,27.2-29.1
				C52.9,7.6,63.6,25.1,63.6,36.7z"/>
		</g>
		<g>
			<path fill="#F7910B" d="M63.6,36.7c0,11.6-10.7,17.5-27.2,17.5c-16.5,0-27.2-5.8-27.2-17.5c0-11.6,10.7-30.9,27.2-30.9
				C52.9,5.8,63.6,25.1,63.6,36.7z"/>
		</g>
		<g>
			<path fill="#F9A908" d="M36.4,5.8c16.5,0,27.2,19.3,27.2,30.9c0,11.6-10.7,17.5-27.2,17.5"/>
		</g>
		<g>
			<path fill="#F9A908" d="M63.6,36.7c0,11.6-10.7,17.5-27.2,17.5c-16.5,0-27.2-5.8-27.2-17.5c0-11.6,10.7-29.1,27.2-29.1
				C52.9,7.6,63.6,25.1,63.6,36.7z"/>
		</g>
		<g>
			<path fill="#F9C55D" d="M9.2,36.7c0-11.6,10.7-29.1,27.2-29.1"/>
		</g>
		<g>
			<path fill="#F7910B" d="M36.4,7.6c16.5,0,27.2,17.5,27.2,29.1c0,11.6-10.7,21.1-27.2,21.1"/>
		</g>
		<g>
			<path fill="#EA7103" d="M36.4,7.6c16.5,0,27.2,17.5,27.2,29.1"/>
		</g>
		<g>
			<g>
				<path fill="#E03D7F" d="M34.4,27.3c-1.6,0.1-2.9,0.7-2.9,1.5l5.9-0.2C37.4,27.8,36,27.2,34.4,27.3z"/>
			</g>
			<g>
				<path fill="#E03D7F" d="M51.7,27.3c-1.6-0.1-3,0.5-3,1.3l5.9,0.2C54.6,28,53.3,27.3,51.7,27.3z"/>
			</g>
			<g>
				<path fill="#C42260" d="M34.5,29.1c1.6-0.1,2.9,0.3,2.9-0.5l-5.9,0.2C31.6,29.6,32.9,29.1,34.5,29.1z"/>
			</g>
			<g>
				<path fill="#C42260" d="M51.6,29.1c1.6,0.1,2.9,0.5,2.9-0.3l-5.9-0.2C48.7,29.4,50,29,51.6,29.1z"/>
			</g>
			<g>
				<path fill="#F9C55D" d="M32.3,37.4c-3.9,0-7,0.9-7,2c0,1.1,3.1,0.6,7,0.6c3.9,0,7,0.5,7-0.6C39.3,38.3,36.2,37.4,32.3,37.4z"/>
			</g>
			<g>
				<path fill="#F9A908" d="M53.8,37.4c-3.9,0-7,0.9-7,2c0,1.1,3.1,0.6,7,0.6c3.9,0,7,0.5,7-0.6C60.8,38.3,57.7,37.4,53.8,37.4z"/>
			</g>
		</g>
		<g>
			<g>
				<g>
					<g>
						<g>
							<g>
								<path fill="#1E4784" d="M31.6,33.2c0.4,0,0.7,0.2,1,0.6c1.1,1.4,3.1,1.7,4.5,0.6c0.6-0.5,1.6-0.4,2.1,0.3
									c0.5,0.6,0.4,1.6-0.3,2.1c-2.7,2.1-6.6,1.6-8.7-1.1c-0.5-0.6-0.4-1.6,0.3-2.1C30.8,33.3,31.2,33.2,31.6,33.2z"/>
							</g>
						</g>
						<g>
							<g>
								<path fill="#02243E" d="M30.2,35.6c-0.5-0.6-0.4-1.6,0.3-2.1c0.3-0.2,0.7-0.3,1.1-0.3c0.4,0,0.7,0.2,1,0.6
									c1.1,1.4,3.1,1.7,4.5,0.6c0.6-0.5,1.6-0.4,2.1,0.3c0.5,0.6,0.4,1.6-0.3,2.1"/>
							</g>
						</g>
					</g>
				</g>
			</g>
			<g>
				<g>
					<g>
						<g>
							<g>
								<path fill="#1E4784" d="M54.5,33.2c-0.4,0-0.7,0.2-1,0.6c-1.1,1.4-3.1,1.7-4.5,0.6c-0.6-0.5-1.6-0.4-2.1,0.3
									c-0.5,0.6-0.4,1.6,0.3,2.1c2.7,2.1,6.6,1.6,8.7-1.1c0.5-0.6,0.4-1.6-0.3-2.1C55.3,33.3,54.9,33.2,54.5,33.2z"/>
							</g>
						</g>
						<g>
							<g>
								<path fill="#02243E" d="M55.9,35.6c0.5-0.6,0.4-1.6-0.3-2.1c-0.3-0.2-0.7-0.3-1.1-0.3c-0.4,0-0.7,0.2-1,0.6
									c-1.1,1.4-3.1,1.7-4.5,0.6c-0.6-0.5-1.6-0.4-2.1,0.3c-0.5,0.6-0.4,1.6,0.3,2.1"/>
							</g>
						</g>
					</g>
				</g>
			</g>
		</g>
		<g>
			<circle fill="#F7910B" cx="17" cy="34" r="0.6"/>
		</g>
		<g>
			<circle fill="#F7910B" cx="12.9" cy="35.8" r="1"/>
		</g>
		<g>
			<circle fill="#F7910B" cx="15.6" cy="32.2" r="0.2"/>
		</g>
		<g>
			<circle fill="#F7910B" cx="19.7" cy="33.8" r="0.2"/>
		</g>
		<g>
			<circle fill="#F9A908" cx="60.2" cy="36.6" r="0.7"/>
		</g>
		<g>
			<circle fill="#F9A908" cx="57.1" cy="35.5" r="0.2"/>
		</g>
		<g>
			<circle fill="#F9A908" cx="60.8" cy="41.8" r="0.3"/>
		</g>
		<g>
			<circle fill="#F9A908" cx="57.4" cy="45.2" r="1.2"/>
		</g>
		<g>
			<circle fill="#F9A908" cx="58.3" cy="38.1" r="0.6"/>
		</g>
		<g>
			<circle fill="#F7910B" cx="16.1" cy="37.6" r="0.4"/>
		</g>
		<g>
			<circle fill="#F7910B" cx="16.8" cy="30.1" r="0.4"/>
		</g>
		<g>
			<circle fill="#C42260" cx="7.5" cy="10.1" r="1"/>
		</g>
		<g>
			<circle fill="#C42260" cx="7.7" cy="2.3" r="1"/>
		</g>
		<g>
			<circle fill="#C42260" cx="22.6" cy="4.6" r="1"/>
		</g>
		<g>
			<circle fill="#F9A908" cx="60.8" cy="19.9" r="0.2"/>
		</g>
		<g>
			<circle fill="#F9A908" cx="60.1" cy="17.2" r="0.7"/>
		</g>
		<g>
			<circle fill="#F9A908" cx="62.4" cy="17.7" r="0.4"/>
		</g>
		<g>
			<circle fill="#F9A908" cx="13.1" cy="20.4" r="0.5"/>
		</g>
	</g>
	<g>
		<path fill="#E03D7F" d="M19.6,33.8c0,0-2.2-7.5,5.1-7.5s7.8-3.8,7.8-3.8s0.5,3.8-1.7,3.8c0,0,4.5,0.2,5.5-2.5c1-2.7,2,1.2,4.8-1.8
			c2.8-3,4.7-4.8,6-3.3c1.3,1.5,4.3,5.2,4.3,5.2s2.5-0.3,3.2-3.7c0.7-3.3,4.3-0.8,2.3,1.7c0,0,4.3-2,1.3-8.2c-3-6.2-9.6-10-18.8-8.7
			c0,0-18.6-4.2-25.9,11.8C6.4,32.8,6,25.4,6,25.4s-1.4,3.2,0.2,4.1c0,0-2.9,3.9-1.6,7.2c1.3,3.4-2.6,5.8-3.7,3.6c0,0,2.6,4.4,8-0.9
			c0,0-0.9,3-4,3.8C1.7,44,2,47.8,2,47.8s-0.1-3,2.9-2.2s8.4,1,10.6-3.1c0,0-0.4,3.5-3.1,4.1c0,0,5.5-0.5,6.6-6.8
			c0,0,0.6,1.5,0.2,3.2c0,0,1.8-2.1,1.4-5.5C20.2,34.1,19.6,33.8,19.6,33.8z"/>
	</g>
	<g>
		<path fill="#C42260" d="M6.2,29.5c0,0-2.9,3.9-1.6,7.2c1.3,3.4-2.6,5.8-3.7,3.6c0,0,2.6,4.4,8-0.9c0,0-0.9,3-4,3.8
			C1.7,44,2,47.8,2,47.8s-0.1-3,2.9-2.2s8.4,1,10.6-3.1c0,0-0.4,3.5-3.1,4.1c0,0,5.5-0.5,6.6-6.8c0,0,0.6,1.5,0.2,3.2
			c0,0,1.8-2.1,1.4-5.5c-0.4-3.4-1-3.7-1-3.7s-2.2-7.5,5.1-7.5s7.8-3.8,7.8-3.8s0.5,3.8-1.7,3.8c0,0,4.5,0.2,5.5-2.5
			c1-2.7,2,1.2,4.8-1.8c2.8-3,4.7-4.8,6-3.3c1.3,1.5,4.3,5.2,4.3,5.2s2.5-0.3,3.2-3.7c0.7-3.3,4.3-0.8,2.3,1.7c0,0,4.3-2,1.3-8.2
			c-3-6.2-9.6-10-18.8-8.7"/>
	</g>
	<g>
		<g>
			<polygon fill="#F7F7D5" points="50.2,22.6 40.5,22.6 40.5,12.9 57.2,5.8 			"/>
		</g>
		<g>
			<polyline fill="#CECC9D" points="57.2,5.8 50.2,22.6 40.5,22.6 			"/>
		</g>
	</g>
	<g>
		<g>
			<path fill="#02243E" d="M47.4,45.5h-1.1c-0.3,0-0.5-0.2-0.5-0.5s0.2-0.5,0.5-0.5h1.1c0.3,0,0.5,0.2,0.5,0.5S47.6,45.5,47.4,45.5z
				"/>
		</g>
		<g>
			<path fill="#02243E" d="M51.4,45.5h-1.1c-0.3,0-0.5-0.2-0.5-0.5s0.2-0.5,0.5-0.5h1.1c0.3,0,0.5,0.2,0.5,0.5S51.7,45.5,51.4,45.5z
				"/>
		</g>
	</g>
	<g>
		<g>
			<path fill="#E03D7F" d="M20,6.3c0,0-8.5,2.1-9.3-3.3c0,0-1.9,1.7-0.4,4c0,0-0.6,0.5-1.3-1c0,0-1,3.3,2.7,3.6
				C15.4,10,20,6.3,20,6.3z"/>
		</g>
		<g>
			<path fill="#C42260" d="M10.4,7c0,0-0.6,0.5-1.3-1c0,0-1,3.3,2.7,3.6"/>
		</g>
	</g>
	<g>
		<path fill="#C42260" d="M14.9,49.9c0,0-11.6,4.2-6.6,8.1s33.9,0.4,31.3,2.4c-2.6,2-8.5,2.2-8.5,2.2s10.5,0.5,14.1-3.4
			c3.6-3.9-4.7-6-10.5-5.1c0,0,3.1-1.2,6.4-1c0,0-5.3-0.9-12.6,1.2c-7.4,2.1-19.8,2-17.9-0.4c1.9-2.4,5-3.4,5-3.4L14.9,49.9z"/>
	</g>
	<g>
		<path fill="#E03D7F" d="M34.6,54.1c0,0,3.1-1.2,6.4-1c0,0-5.3-0.9-12.6,1.2c-7.4,2.1-19.8,2-17.9-0.4c1.9-2.4,5-3.4,5-3.4
			l-0.6-0.8c0,0-6.6,2.4-7.7,5.2c1.8,2.4,12.9,2.7,26.1,0.6c2.7-0.4,5.2-0.9,7.6-1.4C38.9,53.9,36.6,53.8,34.6,54.1z"/>
	</g>
	<g>
		<g>
			<rect x="0.4" y="13.3" fill="#F49DC0" width="37.8" height="2"/>
		</g>
		<g>
			<rect x="0.4" y="16.6" fill="#EFD66A" width="37.8" height="2"/>
		</g>
		<g>
			<rect x="0.4" y="19.9" fill="#14E2D3" width="37.8" height="2"/>
		</g>
	</g>
</g>
</svg>
