<?xml version="1.0" encoding="utf-8"?>
<!-- Generator: Adobe Illustrator 16.0.0, SVG Export Plug-In . SVG Version: 6.00 Build 0)  -->
<!DOCTYPE svg PUBLIC "-//W3C//DTD SVG 1.1//EN" "http://www.w3.org/Graphics/SVG/1.1/DTD/svg11.dtd">
<svg version="1.1" id="Layer_1" xmlns="http://www.w3.org/2000/svg" xmlns:xlink="http://www.w3.org/1999/xlink" x="0px" y="0px"
	 width="64px" height="64px" viewBox="0 0 64 64" enable-background="new 0 0 64 64" xml:space="preserve">
<g>
	<circle fill="#3B1F7F" cx="32.7" cy="32" r="26.9"/>
	<path fill="#211156" d="M32.7,5.1c14.8,0,26.9,12,26.9,26.9c0,14.8-12,26.9-26.9,26.9"/>
	<g>
		<path fill="#E87B18" d="M34.9,43.3L33,43.2v0v0v0v0l-2.2,0.1c0,0-3.4,4-3.3,9.9s3.5,8.9,3.5,8.9v-2.3c0,0,0,1.1,2,3.3l0,0l0,0l0,0
			l0,0c2-2.1,2-3.3,2-3.3v2.3c0,0,3.2-3,3.4-8.9C38.5,47.4,34.9,43.3,34.9,43.3z"/>
		<path fill="#CC6109" d="M33,63.2L33,63.2C33,63.1,32.9,63.1,33,63.2C33,63.1,33,63.1,33,63.2L33,63.2c2-2.1,2-3.3,2-3.3v2.3
			c0,0,3.2-3,3.3-8.9c0.1-5.9-3.3-9.9-3.3-9.9l-2-0.1v0v0v0V43"/>
		<g>
			<path fill="#749996" d="M34.1,35.5c0,1.8,0.3,3.2-1.4,3.2l0,0c-1.7,0-1.4-1.5-1.4-3.2L29.7,3.6c0-1.8,1.3-3.2,3-3.2l0,0
				c1.7,0,3,1.5,3,3.2L34.1,35.5z"/>
			<path fill="#607F7C" d="M32.7,0.4L32.7,0.4c1.7,0,3,1.5,3,3.2l-1.6,31.8c0,1.8,0.3,3.2-1.4,3.2l0,0"/>
			<path fill="#20B79A" d="M35,42c0,0.4-0.3,0.8-0.8,0.8h-3c-0.4,0-0.8-0.3-0.8-0.8l0,0c0-0.4,0.3-0.8,0.8-0.8h3
				C34.6,41.3,35,41.6,35,42L35,42z"/>
			<path fill="#10A084" d="M35,43.2c0,0.4-0.3,0.8-0.8,0.8h-3c-0.4,0-0.8-0.3-0.8-0.8l0,0c0-0.4,0.3-0.8,0.8-0.8h3
				C34.6,42.4,35,42.8,35,43.2L35,43.2z"/>
		</g>
		<path fill="#E87B18" d="M37.6,38.8c0,1.5-1.2,2.7-2.7,2.7h-4.5c-1.5,0-2.7-1.2-2.7-2.7l0,0c0-1.5,1.2-2.7,2.7-2.7h4.5
			C36.4,36.1,37.6,37.3,37.6,38.8L37.6,38.8z"/>
		<path fill="#CC6109" d="M30.5,36.1h4.5c1.5,0,2.7,1.2,2.7,2.7l0,0c0,1.5-1.2,2.7-2.7,2.7"/>
	</g>
	<path fill="#FFF7E6" d="M51.2,31.5c-4.3,0-7.8-3.5-7.8-7.8c0-2.6,1.3-4.9,3.3-6.4c-4.5,0.7-7.9,4.6-7.9,9.4c0,5.2,4.3,9.5,9.5,9.5
		c4.7,0,8.6-3.4,9.4-7.9C56.1,30.2,53.8,31.5,51.2,31.5z"/>
	<g>
		<ellipse fill="#E5A21A" cx="17.3" cy="26.2" rx="0.6" ry="5.1"/>
		<ellipse fill="#E5A21A" cx="17.3" cy="26.2" rx="5.1" ry="0.6"/>
	</g>
	<g>
		<ellipse fill="#E5A21A" cx="20.7" cy="38.8" rx="0.6" ry="5.1"/>
		<ellipse fill="#E5A21A" cx="20.7" cy="38.8" rx="5.1" ry="0.6"/>
	</g>
	<g>
		
			<ellipse transform="matrix(-0.7071 0.7071 -0.7071 -0.7071 50.9646 7.5343)" fill="#E5A21A" cx="23.9" cy="14.3" rx="0.4" ry="3"/>
		
			<ellipse transform="matrix(0.7071 0.7071 -0.7071 0.7071 17.1339 -12.7204)" fill="#E5A21A" cx="23.9" cy="14.3" rx="0.4" ry="3"/>
	</g>
</g>
</svg>
