<?xml version="1.0" encoding="utf-8"?>
<!-- Generator: Adobe Illustrator 16.0.0, SVG Export Plug-In . SVG Version: 6.00 Build 0)  -->
<!DOCTYPE svg PUBLIC "-//W3C//DTD SVG 1.1//EN" "http://www.w3.org/Graphics/SVG/1.1/DTD/svg11.dtd">
<svg version="1.1" id="Layer_1" xmlns="http://www.w3.org/2000/svg" xmlns:xlink="http://www.w3.org/1999/xlink" x="0px" y="0px"
	 width="64px" height="64px" viewBox="0 0 64 64" enable-background="new 0 0 64 64" xml:space="preserve">
<g>
	<circle fill="#046812" cx="32" cy="32" r="30.8"/>
	<g>
		<g>
			<path fill="#DD3E3E" d="M42.8,24.9c0,0,5.3-0.7,7.6,5.9c2.3,6.6,6.9,0.7,6.9,0.7s-2.4,4.9-4,5c0,0,1.9,0.8,3.6,0.1
				c0,0-5.9,7-9.1-1.1c-3.1-7.7-2.2-7.1-6.2-8.4c-2.4-0.8-0.4-1.7-0.4-1.7L42.8,24.9z"/>
			<path fill="#AF1E1E" d="M53.3,36.5c0,0,1.9,0.8,3.6,0.1c0,0-5.9,7-9.1-1.1c-3.1-7.7-2.2-7.1-6.2-8.4c-2.4-0.8-0.4-1.7-0.4-1.7
				l1.6-0.5"/>
			<g>
				<path fill="#DD891B" d="M26.7,58.6c-1.4,3-2.4,3.6-4.1,2.8c-1.7-0.8-2-2-0.6-5c1.4-3,3.1-5.2,4.8-4.4
					C28.5,52.8,28,55.5,26.7,58.6z"/>
				<path fill="#B26508" d="M26.8,52c1.7,0.8,1.3,3.5-0.1,6.5c-1.4,3-2.4,3.6-4.1,2.8"/>
				<path fill="#FFD524" d="M41.4,52.6C39.2,57.6,31,58.7,25,56l0,0c-6-2.7-10.6-9.6-8.3-14.5l7.7-13c2.2-5,8.9-6.8,14.9-4.1l0,0
					c6,2.7,9,8.9,6.8,13.8L41.4,52.6z"/>
				<path fill="#EFC40F" d="M25,56L25,56c6,2.7,14.2,1.6,16.4-3.4L46,38.2c2.2-5-0.8-11.1-6.8-13.8l0,0"/>
				<path fill="#FFD524" d="M46.1,61.4c-1.5,3.4-10.5-0.2-21.3-5.1C14,51.5,5.4,47.2,6.9,43.8c1.5-3.4,13.2-6,24-1.1
					C41.8,47.6,47.6,58.1,46.1,61.4z"/>
				<path fill="#EFC40F" d="M31,42.7c10.8,4.9,16.6,15.4,15.1,18.7c-1.5,3.4-10.5-0.2-21.3-5.1"/>
				<path fill="#EFC40F" d="M45.2,62.1c-1.5,3.3-10.2-0.2-20.7-4.9C13.9,52.4,5.6,48.2,7,44.9c1.5-3.3,8.8,3.2,19.3,8
					C36.9,57.6,46.6,58.8,45.2,62.1z"/>
				<circle fill="#FFD524" cx="41.4" cy="19.5" r="3.7"/>
				<path fill="#EFC40F" d="M40.1,16c1.9-0.7,4.1,0.2,4.8,2.2s-0.2,4.1-2.2,4.8"/>
				<path fill="#FFEB99" d="M36.6,25.7c0.1,0.8-1.8,1.8-4.2,2.2c-2.5,0.4-4.6,0-4.7-0.9c-0.1-0.8,1.8-1.8,4.2-2.2
					C34.4,24.4,36.5,24.8,36.6,25.7z"/>
				<g>
					<path fill="#FFEB99" d="M25.1,41.6c-0.2,0.5-0.7,0.7-1.2,0.4c-0.5-0.2-0.7-0.7-0.4-1.2c0.2-0.5,0.7-0.7,1.2-0.5
						C25.1,40.6,25.3,41.2,25.1,41.6z"/>
					<circle fill="#FFEB99" cx="28.3" cy="43.1" r="0.9"/>
					<circle fill="#FFEB99" cx="32.4" cy="44.9" r="0.9"/>
					<circle fill="#FFEB99" cx="36.5" cy="46.8" r="0.9"/>
				</g>
			</g>
			<path fill="#DD3E3E" d="M42.8,24.9c-0.4,0.9-1.5,1.4-2.5,0.9l-3-1.4c-0.9-0.4-1.4-1.5-0.9-2.5l0,0c0.4-0.9,1.5-1.4,2.5-0.9l3,1.4
				C42.8,22.9,43.2,24,42.8,24.9L42.8,24.9z"/>
			<path fill="#AF1E1E" d="M38.8,21.1l3,1.4c0.9,0.4,1.4,1.5,0.9,2.5l0,0c-0.4,0.9-1.5,1.4-2.5,0.9l-3-1.4"/>
		</g>
		<g>
			<g>
				<path fill="#DD891B" d="M11,16.1c-2.3-0.7-2.8-1.4-2.4-2.7c0.4-1.3,1.2-1.6,3.5-0.9c2.3,0.7,4,1.8,3.6,3.1
					C15.3,17,13.3,16.9,11,16.1z"/>
				<path fill="#B26508" d="M15.7,15.6c-0.4,1.3-2.4,1.2-4.7,0.5s-2.8-1.4-2.4-2.7"/>
				<path fill="#FFD524" d="M16.5,26.2c-3.7-1.2-5.3-7-3.8-11.5l0,0c1.4-4.5,6-8.4,9.7-7.2l10,4.4c3.7,1.2,5.6,5.8,4.2,10.3l0,0
					c-1.4,4.5-5.6,7.2-9.4,6L16.5,26.2z"/>
				<path fill="#EFC40F" d="M12.7,14.7L12.7,14.7c-1.4,4.5,0.1,10.3,3.8,11.5l10.7,2.1c3.7,1.2,7.9-1.5,9.4-6l0,0"/>
				<path fill="#FFD524" d="M10.5,30.3c-2.5-0.8-0.7-7.5,1.8-15.7c2.6-8.2,5-14.7,7.5-13.9c2.5,0.8,5.4,9,2.8,17.2
					C20.2,26.1,13.1,31.1,10.5,30.3z"/>
				<path fill="#EFC40F" d="M22.7,17.9c-2.6,8.2-9.7,13.2-12.2,12.4c-2.5-0.8-0.7-7.5,1.8-15.7"/>
				<path fill="#EFC40F" d="M10,29.7c-2.5-0.8-0.7-7.3,1.8-15.3c2.5-8,4.9-14.3,7.3-13.6c2.5,0.8-1.6,6.6-4.1,14.6
					C12.5,23.4,12.5,30.5,10,29.7z"/>
				<path fill="#FFD524" d="M39.5,26c-1.4-0.4-2.2-2-1.8-3.4c0.4-1.4,2-2.2,3.4-1.8c1.4,0.5,2.2,2,1.8,3.4
					C42.5,25.7,41,26.5,39.5,26z"/>
				<path fill="#EFC40F" d="M42.8,22.2c0.7,1.3,0.2,3-1.2,3.6s-3,0.2-3.6-1.2"/>
				
					<ellipse transform="matrix(0.2597 0.9657 -0.9657 0.2597 42.3776 -20.616)" fill="#FFEB99" cx="34.6" cy="17.3" rx="3.3" ry="1.1"/>
				<g>
					<circle fill="#FFEB99" cx="23.2" cy="12.9" r="0.7"/>
					<circle fill="#FFEB99" cx="22.3" cy="16" r="0.6"/>
					<circle fill="#FFEB99" cx="21.3" cy="19.1" r="0.7"/>
					<circle fill="#FFEB99" cx="20.3" cy="22.2" r="0.7"/>
				</g>
			</g>
			<path fill="#DD3E3E" d="M36.5,24.9c-0.7-0.2-1.1-1-0.9-1.7l0.7-2.3c0.2-0.7,1-1.1,1.7-0.9l0,0c0.7,0.2,1.1,1,0.9,1.7L38.2,24
				C38,24.7,37.3,25.1,36.5,24.9L36.5,24.9z"/>
			<path fill="#AF1E1E" d="M39,21.7L38.2,24c-0.2,0.7-1,1.1-1.7,0.9l0,0c-0.7-0.2-1.1-1-0.9-1.7l0.7-2.3"/>
		</g>
	</g>
</g>
</svg>
