<?xml version="1.0" encoding="utf-8"?>
<!-- Generator: Adobe Illustrator 16.0.0, SVG Export Plug-In . SVG Version: 6.00 Build 0)  -->
<!DOCTYPE svg PUBLIC "-//W3C//DTD SVG 1.1//EN" "http://www.w3.org/Graphics/SVG/1.1/DTD/svg11.dtd">
<svg version="1.1" id="Layer_1" xmlns="http://www.w3.org/2000/svg" xmlns:xlink="http://www.w3.org/1999/xlink" x="0px" y="0px"
	 width="64px" height="64px" viewBox="0 0 64 64" enable-background="new 0 0 64 64" xml:space="preserve">
<g>
	<g>
		<g>
			<g>
				<g>
					<g>
						<g>
							<g>
								<path fill="#F7910B" d="M62.3,37.5C62.3,50.5,50.4,61,32,61C13.6,61,1.7,50.5,1.7,37.5S13.6,5,32,5
									C50.4,5,62.3,24.5,62.3,37.5z"/>
							</g>
							<g>
								<path fill="#F7910B" d="M62.3,37.5C62.3,50.5,50.4,57,32,57C13.6,57,1.7,50.5,1.7,37.5S13.6,3,32,3
									C50.4,3,62.3,24.5,62.3,37.5z"/>
							</g>
							<g>
								<path fill="#F9A908" d="M32,3c18.4,0,30.3,21.5,30.3,34.5S50.4,57,32,57"/>
							</g>
							<g>
								<path fill="#F9A908" d="M62.3,37.5C62.3,50.5,50.4,57,32,57C13.6,57,1.7,50.5,1.7,37.5S13.6,5,32,5
									C50.4,5,62.3,24.5,62.3,37.5z"/>
							</g>
							<g>
								<path fill="#F9C55D" d="M1.7,37.5C1.7,24.5,13.6,5,32,5"/>
							</g>
							<g>
								<path fill="#F7910B" d="M32,5c18.4,0,30.3,19.5,30.3,32.5S50.4,61,32,61"/>
							</g>
							<g>
								<path fill="#EA7103" d="M32,5c18.4,0,30.3,19.5,30.3,32.5"/>
							</g>
							<g>
								<g>
									<path fill="#F9C55D" d="M27.8,20.6c0,1.2-3.5,0.7-7.8,0.7c-4.3,0-7.8,0.6-7.8-0.7s3.5-2.2,7.8-2.2
										C24.3,18.4,27.8,19.4,27.8,20.6z"/>
								</g>
								<g>
									<path fill="#F9A908" d="M51.8,20.6c0,1.2-3.5,0.7-7.8,0.7s-7.8,0.6-7.8-0.7s3.5-2.2,7.8-2.2S51.8,19.4,51.8,20.6z"/>
								</g>
							</g>
							<g>
								<circle fill="#F7910B" cx="10.3" cy="34.5" r="0.6"/>
							</g>
							<g>
								<circle fill="#F7910B" cx="5.8" cy="36.5" r="1.1"/>
							</g>
							<g>
								<circle fill="#F7910B" cx="8.8" cy="32.5" r="0.2"/>
							</g>
							<g>
								<circle fill="#F7910B" cx="13.4" cy="34.3" r="0.2"/>
							</g>
							<g>
								<circle fill="#F9A908" cx="52.6" cy="34.8" r="0.8"/>
							</g>
							<g>
								<circle fill="#F9A908" cx="55.1" cy="36.2" r="0.2"/>
							</g>
							<g>
								<circle fill="#F9A908" cx="49.8" cy="27.4" r="0.3"/>
							</g>
							<g>
								<circle fill="#F9A908" cx="49.3" cy="39" r="1.3"/>
							</g>
							<g>
								<circle fill="#F9A908" cx="56.5" cy="39.1" r="0.6"/>
							</g>
							<g>
								<circle fill="#F7910B" cx="9.3" cy="38.5" r="0.5"/>
							</g>
							<g>
								<circle fill="#F7910B" cx="10.1" cy="30.1" r="0.4"/>
							</g>
							<g>
								<circle fill="#F9A908" cx="4.8" cy="16.3" r="1.1"/>
							</g>
							<g>
								<circle fill="#F9A908" cx="8" cy="12.8" r="0.6"/>
							</g>
							<g>
								<circle fill="#F9A908" cx="59.2" cy="18.7" r="0.2"/>
							</g>
							<g>
								<circle fill="#F9A908" cx="58.4" cy="15.8" r="0.8"/>
							</g>
							<g>
								<circle fill="#F9A908" cx="61" cy="16.3" r="0.5"/>
							</g>
							<g>
								<circle fill="#F9A908" cx="6" cy="19.3" r="0.6"/>
							</g>
						</g>
					</g>
				</g>
				<g>
					<g>
						<g>
							<g>
								<g>
									<g>
										<path fill="#1E4784" d="M47.3,20.8c-0.4,0-0.8-0.2-1.2-0.5c-1.4-1.4-3.7-1.4-5.1,0c-0.6,0.6-1.7,0.7-2.3,0
											c-0.6-0.6-0.7-1.7,0-2.3c2.7-2.7,7.1-2.7,9.8,0c0.6,0.6,0.6,1.7,0,2.3C48.1,20.7,47.7,20.8,47.3,20.8z"/>
									</g>
								</g>
								<g>
									<g>
										<path fill="#02243E" d="M48.4,18c0.6,0.6,0.6,1.7,0,2.3c-0.3,0.3-0.7,0.5-1.2,0.5c-0.4,0-0.8-0.2-1.2-0.5
											c-1.4-1.4-3.7-1.4-5.1,0c-0.6,0.6-1.7,0.7-2.3,0c-0.6-0.6-0.7-1.7,0-2.3"/>
									</g>
								</g>
							</g>
						</g>
					</g>
					<g>
						<g>
							<g>
								<g>
									<g>
										<path fill="#1E4784" d="M16.7,20.8c0.4,0,0.8-0.2,1.2-0.5c1.4-1.4,3.7-1.4,5.1,0c0.6,0.6,1.7,0.7,2.3,0
											c0.6-0.6,0.7-1.7,0-2.3c-2.7-2.7-7.1-2.7-9.8,0c-0.6,0.6-0.6,1.7,0,2.3C15.9,20.7,16.3,20.8,16.7,20.8z"/>
									</g>
								</g>
								<g>
									<g>
										<path fill="#02243E" d="M15.6,18c-0.6,0.6-0.6,1.7,0,2.3c0.3,0.3,0.7,0.5,1.2,0.5c0.4,0,0.8-0.2,1.2-0.5
											c1.4-1.4,3.7-1.4,5.1,0c0.6,0.6,1.7,0.7,2.3,0c0.6-0.6,0.7-1.7,0-2.3"/>
									</g>
								</g>
							</g>
						</g>
					</g>
				</g>
			</g>
			<g>
				<g>
					<g>
						<g>
							<path fill="#037A66" d="M25.6,10.8c0.3,0.9-1.4,0.9-3.3,1.5c-1.9,0.6-3.3,1.5-3.6,0.6c-0.3-0.9,1-2.1,2.9-2.7
								C23.5,9.6,25.3,9.9,25.6,10.8z"/>
						</g>
					</g>
				</g>
				<g>
					<g>
						<g>
							<path fill="#037A66" d="M38.4,10.8c-0.3,0.9,1.4,0.9,3.3,1.5c1.9,0.6,3.3,1.5,3.6,0.6c0.3-0.9-1-2.1-2.9-2.7
								C40.5,9.6,38.7,9.9,38.4,10.8z"/>
						</g>
					</g>
				</g>
			</g>
		</g>
	</g>
	<g>
		<g>
			<g>
				<g>
					<path fill="#069ACE" d="M28.5,46c0,3.8-4.7,4.7-10.5,4.7c-5.8,0-10.5-3.1-10.5-6.8c0-3.8,1.7-10.2,7.5-10.2S28.5,42.2,28.5,46z
						"/>
				</g>
				<g>
					<path fill="#0974AF" d="M28.5,46c0,3.8-4.7,4.7-10.5,4.7c-5.8,0-10.5-3.1-10.5-6.8"/>
				</g>
				<g>
					<circle fill="#EAA4CB" cx="14.4" cy="38.7" r="1.6"/>
				</g>
				<g>
					<circle fill="#EAA4CB" cx="20.4" cy="41.4" r="1.6"/>
				</g>
				<g>
					<circle fill="#EAA4CB" cx="14.5" cy="44.6" r="1.6"/>
				</g>
				<g>
					<circle fill="#EAA4CB" cx="20.9" cy="47" r="1.6"/>
				</g>
				<g>
					<path fill="#069ACE" d="M11.6,36.6c0.3,0.4,0.2,1-0.2,1.4l0,0c-0.4,0.3-1,0.2-1.4-0.2l-7.2-9.9c-0.3-0.4-0.2-1,0.2-1.4l0,0
						c0.4-0.3,1-0.2,1.4,0.2L11.6,36.6z"/>
				</g>
				<g>
					<path fill="#0974AF" d="M18.2,47.3c0.6,0,1.1,0.5,1.1,1.1l0,0c0,0.6-0.5,1.1-1.1,1.1L4.6,49.7c-0.6,0-1.1-0.5-1.1-1.1l0,0
						c0-0.6,0.5-1.1,1.1-1.1L18.2,47.3z"/>
				</g>
			</g>
			<g>
				<g>
					<path fill="#069ACE" d="M35.5,46c0,3.8,4.7,4.7,10.5,4.7s10.5-3.1,10.5-6.8c0-3.8-1.7-10.2-7.5-10.2
						C43.2,33.6,35.5,42.2,35.5,46z"/>
				</g>
				<g>
					<path fill="#0974AF" d="M35.5,46c0,3.8,4.7,4.7,10.5,4.7s10.5-3.1,10.5-6.8"/>
				</g>
				<g>
					<circle fill="#EAA4CB" cx="49.6" cy="38.7" r="1.6"/>
				</g>
				<g>
					<circle fill="#EAA4CB" cx="43.6" cy="41.4" r="1.6"/>
				</g>
				<g>
					<circle fill="#EAA4CB" cx="49.5" cy="44.6" r="1.6"/>
				</g>
				<g>
					<circle fill="#EAA4CB" cx="43.1" cy="47" r="1.6"/>
				</g>
				<g>
					<path fill="#069ACE" d="M52.4,36.6c-0.3,0.4-0.2,1,0.2,1.4l0,0c0.4,0.3,1,0.2,1.4-0.2l7.2-9.9c0.3-0.4,0.2-1-0.2-1.4l0,0
						c-0.4-0.3-1-0.2-1.4,0.2L52.4,36.6z"/>
				</g>
				<g>
					<path fill="#0974AF" d="M45.8,47.3c-0.6,0-1.1,0.5-1.1,1.1l0,0c0,0.6,0.5,1.1,1.1,1.1l13.6,0.2c0.6,0,1.1-0.5,1.1-1.1l0,0
						c0-0.6-0.5-1.1-1.1-1.1L45.8,47.3z"/>
				</g>
			</g>
		</g>
		<g>
			<path fill="#0974AF" d="M38,47c0,0.6-0.4,1-1,1H26c-0.6,0-1-0.4-1-1l0,0c0-0.6,0.4-1,1-1h11C37.6,46,38,46.4,38,47L38,47z"/>
		</g>
	</g>
	<g>
		<path fill="#99144A" d="M37.2,25.4c0,1.2-2.3,2.2-5.2,2.2s-5.3-1-5.3-2.2s2.4-0.2,5.3-0.2S37.2,24.1,37.2,25.4z"/>
	</g>
</g>
</svg>
