<?xml version="1.0" encoding="utf-8"?>
<!-- Generator: Adobe Illustrator 16.0.0, SVG Export Plug-In . SVG Version: 6.00 Build 0)  -->
<!DOCTYPE svg PUBLIC "-//W3C//DTD SVG 1.1//EN" "http://www.w3.org/Graphics/SVG/1.1/DTD/svg11.dtd">
<svg version="1.1" id="Layer_1" xmlns="http://www.w3.org/2000/svg" xmlns:xlink="http://www.w3.org/1999/xlink" x="0px" y="0px"
	 width="65px" height="65px" viewBox="0 0 65 65" enable-background="new 0 0 65 65" xml:space="preserve">
<g>
	<g>
		<path fill="#5E3417" d="M21.855,15.707c0,0,1.375,14,0,14c0,0,2.5,0.625,4.25,0.5s5-2.125,5-2.125l-7.5-11.25L21.855,15.707z"/>
		<path fill="#5E3417" d="M53.938,15.707c0,0-1.375,14,0,14c0,0-2.5,0.625-4.25,0.5s-5-2.125-5-2.125l7.5-11.25L53.938,15.707z"/>
	</g>
	<g>
		<g>
			<g>
				<path fill="#232728" d="M50.547,40.521c0,16.037-5.662,10.697-12.65,10.697c-6.986,0-12.65,5.34-12.65-10.697
					c0-9.17,5.666-16.604,12.65-16.604C44.883,23.918,50.547,31.352,50.547,40.521z"/>
				<g>
					<path fill="#232728" d="M34.869,46.445c0,2.477-2.008,15.828-4.486,15.828c-2.475,0-4.482-13.352-4.482-15.828
						c0-2.475,2.008-4.484,4.482-4.484C32.861,41.961,34.869,43.971,34.869,46.445z"/>
					<path fill="#232728" d="M49.895,46.445c0,2.477-2.008,15.828-4.486,15.828c-2.475,0-4.482-13.352-4.482-15.828
						c0-2.475,2.008-4.484,4.482-4.484C47.887,41.961,49.895,43.971,49.895,46.445z"/>
				</g>
				<g>
					<path fill="#383E3F" d="M35.43,62.354c0,1.896-2.26,2.146-5.045,2.146s-5.045-0.25-5.045-2.146s2.26-4.508,5.045-4.508
						S35.43,60.457,35.43,62.354z"/>
					<path fill="#232728" d="M35.43,62.354c0,1.896-2.26,2.146-5.045,2.146s-5.045-0.25-5.045-2.146"/>
				</g>
				<g>
					<path fill="#383E3F" d="M50.455,62.354c0,1.896-2.26,2.146-5.045,2.146s-5.045-0.25-5.045-2.146s2.26-4.508,5.045-4.508
						S50.455,60.457,50.455,62.354z"/>
					<path fill="#232728" d="M50.455,62.354c0,1.896-2.26,2.146-5.045,2.146s-5.045-0.25-5.045-2.146"/>
				</g>
				<g>
					<path fill="#232728" d="M36.502,26.369c1.273,1.432,0.465,4.227-1.805,6.248c-2.27,2.018-14.475,10.795-15.75,9.365
						c-1.271-1.434,8.873-12.531,11.143-14.549C32.357,25.414,35.229,24.938,36.502,26.369z"/>
					<path fill="#232728" d="M39.291,26.369c-1.273,1.432-0.465,4.227,1.805,6.248c2.27,2.018,14.475,10.795,15.75,9.365
						c1.271-1.434-8.873-12.531-11.143-14.549C43.436,25.414,40.564,24.938,39.291,26.369z"/>
				</g>
				<rect x="35.271" y="25.832" fill="#E2DED3" width="5.25" height="22.625"/>
				<path fill="#C6BFAF" d="M35.271,30.164c0.857,0.08,1.73,0.131,2.627,0.131c0.895,0,1.768-0.051,2.623-0.131v-4.332h-5.25V30.164
					z"/>
				<polygon fill="#444849" points="38.674,28.248 39.975,41.438 37.896,42.947 35.818,41.438 37.12,28.248 				"/>
				<polyline fill="#232728" points="37.12,28.248 38.674,28.248 39.975,41.438 37.896,42.947 				"/>
				<g>
					<path fill="#7A4A2A" d="M54.268,16.275c0,7.998-7.33,12.02-16.369,12.02c-9.041,0-16.373-4.021-16.373-12.02
						c0-8.002,7.332-15.775,16.373-15.775C46.938,0.5,54.268,8.273,54.268,16.275z"/>
					<path fill="#F9C1AC" d="M54.268,16.275c0,7.998-7.33,12.02-16.369,12.02c-9.041,0-16.373-4.021-16.373-12.02
						c0-8.002,7.332-9.443,16.373-9.443C46.938,6.832,54.268,8.273,54.268,16.275z"/>
					<path fill="#F2B09C" d="M54.268,16.275c0,7.998-7.33,12.02-16.369,12.02c-9.041,0-16.373-4.021-16.373-12.02"/>
				</g>
				<g>
					<g>
						<circle fill="#113E49" cx="30.112" cy="19.695" r="1.464"/>
						<path d="M31.576,19.695c0,0.811-0.656,1.465-1.465,1.465s-1.463-0.654-1.463-1.465"/>
						<g>
							<path fill="#FFD3C5" d="M33,22.748c-0.078,0-0.158-0.027-0.219-0.09c-0.715-0.715-1.664-1.107-2.672-1.107h-0.002
								c-1.008,0-1.955,0.393-2.666,1.105c-0.121,0.121-0.316,0.125-0.436,0.002c-0.121-0.117-0.125-0.312-0.004-0.434
								c0.83-0.832,1.932-1.291,3.105-1.291h0.002c1.176,0,2.279,0.457,3.111,1.289c0.119,0.119,0.119,0.318,0,0.436
								C33.16,22.721,33.082,22.748,33,22.748z"/>
						</g>
					</g>
					<g>
						<circle fill="#113E49" cx="45.683" cy="19.695" r="1.464"/>
						<path d="M44.219,19.695c0,0.811,0.654,1.465,1.465,1.465c0.809,0,1.463-0.654,1.463-1.465"/>
						<g>
							<path fill="#FFD3C5" d="M42.795,22.748c0.076,0,0.156-0.027,0.217-0.09c0.715-0.715,1.664-1.107,2.672-1.107h0.002
								c1.008,0,1.957,0.393,2.668,1.105c0.119,0.121,0.314,0.125,0.436,0.002c0.121-0.117,0.123-0.312,0.002-0.434
								c-0.826-0.832-1.932-1.291-3.105-1.291h-0.002c-1.174,0-2.277,0.457-3.111,1.289c-0.117,0.119-0.117,0.318,0,0.436
								C42.635,22.721,42.713,22.748,42.795,22.748z"/>
						</g>
					</g>
				</g>
			</g>
			<path fill="#AA1111" d="M34.287,25.693c0-0.781,1.617-1.416,3.609-1.416s3.609,0.635,3.609,1.416s-1.617,0.314-3.609,0.314
				S34.287,26.475,34.287,25.693z"/>
		</g>
	</g>
	<g>
		<path fill="#232728" d="M10.572,47.857c0.38,0.381,0.998,0.381,1.378,0l2.987-2.986c0.38-0.381,0.38-0.998,0-1.379l-1.206-1.205
			c-0.381-0.381-0.998-0.381-1.379,0l-2.986,2.986c-0.381,0.381-0.381,0.998,0,1.379L10.572,47.857z"/>
		<path fill="#232728" d="M10.127,46.064c0.136-0.135,0.136-0.354,0-0.49l-1.062-1.061c-0.135-0.137-0.355-0.137-0.49,0
			l-0.429,0.428c-0.136,0.137-0.136,0.355,0,0.49l1.062,1.062c0.137,0.135,0.356,0.135,0.492,0L10.127,46.064z"/>
		<path fill="#232728" d="M19.504,43.291c0.381,0.381,0.998,0.381,1.378,0l0.431-0.43c0.381-0.381,0.381-0.998,0-1.379l-1.551-1.551
			c-0.38-0.381-0.997-0.381-1.378,0l-0.432,0.432c-0.38,0.381-0.38,0.998,0,1.377L19.504,43.291z"/>
		<path fill="#232728" d="M19.762,39.932c0.381,0.381,0.382,0.998,0,1.379l-4.997,4.996c-0.38,0.381-0.998,0.381-1.378,0
			l-2.671-2.67c-0.381-0.381-0.381-0.998,0-1.379l4.997-4.998c0.379-0.379,0.996-0.379,1.379,0L19.762,39.932z"/>
		<path fill="#3D4344" d="M10.716,42.258l4.997-4.998c0.379-0.379,0.996-0.379,1.379,0l1.119,1.121c0.381,0.381,0.381,0.998,0,1.379
			l-4.997,4.996c-0.38,0.381-0.998,0.381-1.378,0l-1.12-1.119C10.335,43.256,10.335,42.639,10.716,42.258z"/>
	</g>
	
		<rect x="33.897" y="2.916" transform="matrix(0.7071 -0.7071 0.7071 0.7071 6.2093 28.8225)" fill="#7A4A2A" width="7.999" height="7.999"/>
</g>
</svg>
