<?xml version="1.0" encoding="utf-8"?>
<!-- Generator: Adobe Illustrator 16.0.0, SVG Export Plug-In . SVG Version: 6.00 Build 0)  -->
<!DOCTYPE svg PUBLIC "-//W3C//DTD SVG 1.1//EN" "http://www.w3.org/Graphics/SVG/1.1/DTD/svg11.dtd">
<svg version="1.1" id="Layer_1" xmlns="http://www.w3.org/2000/svg" xmlns:xlink="http://www.w3.org/1999/xlink" x="0px" y="0px"
	 width="64px" height="64px" viewBox="0 0 64 64" enable-background="new 0 0 64 64" xml:space="preserve">
<g>
	<path fill="#104C75" d="M63,51.2c0,5.5-4.4,9.8-10,9.8H12.1C6.6,61,2,56.7,2,51.2v-23C2,22.7,6.6,18,12.1,18H53
		c5.5,0,10,4.7,10,10.2V51.2z"/>
	<path fill="#00233F" d="M20,18h34.7c4.6,0,8.3,4.7,8.3,10.2v27.6c0,5.5-3.7,5.1-8.3,5.1H20"/>
	<path fill="#104C75" d="M17,54.5c0,4.4-3.6,8.1-8,8.1l0,0c-6.5,0-8-3.6-8-8.1V24.9C1,20.5,3.1,17,7.6,17H9c4.4,0,8,3.5,8,7.9V54.5z
		"/>
	<path fill="#00233F" d="M9,17c7,0,8,3.5,8,7.9v29.6c0,4.4-1.8,8.1-8,8.1l0,0"/>
	<g>
		<g>
			<path fill="#1F759B" d="M5.9,22.6c0,0.4-0.4,0.8-0.8,0.8l0,0c-0.4,0-0.8-0.4-0.8-0.8l0,0c0-0.4,0.4-0.8,0.8-0.8l0,0
				C5.5,21.8,5.9,22.1,5.9,22.6L5.9,22.6z"/>
			<path fill="#1F759B" d="M9.8,22.6c0,0.4-0.4,0.8-0.8,0.8l0,0c-0.4,0-0.8-0.4-0.8-0.8l0,0c0-0.4,0.4-0.8,0.8-0.8l0,0
				C9.5,21.8,9.8,22.1,9.8,22.6L9.8,22.6z"/>
			<path fill="#1F759B" d="M13.8,22.6c0,0.4-0.4,0.8-0.8,0.8l0,0c-0.4,0-0.8-0.4-0.8-0.8l0,0c0-0.4,0.4-0.8,0.8-0.8l0,0
				C13.4,21.8,13.8,22.1,13.8,22.6L13.8,22.6z"/>
		</g>
		<g>
			<path fill="#1F759B" d="M5.9,26.4c0,0.4-0.4,0.8-0.8,0.8l0,0c-0.4,0-0.8-0.4-0.8-0.8l0,0c0-0.4,0.4-0.8,0.8-0.8l0,0
				C5.5,25.6,5.9,25.9,5.9,26.4L5.9,26.4z"/>
			<path fill="#1F759B" d="M9.8,26.4c0,0.4-0.4,0.8-0.8,0.8l0,0c-0.4,0-0.8-0.4-0.8-0.8l0,0c0-0.4,0.4-0.8,0.8-0.8l0,0
				C9.5,25.6,9.8,25.9,9.8,26.4L9.8,26.4z"/>
			<path fill="#1F759B" d="M13.8,26.4c0,0.4-0.4,0.8-0.8,0.8l0,0c-0.4,0-0.8-0.4-0.8-0.8l0,0c0-0.4,0.4-0.8,0.8-0.8l0,0
				C13.4,25.6,13.8,25.9,13.8,26.4L13.8,26.4z"/>
		</g>
		<g>
			<path fill="#1F759B" d="M5.9,30.2c0,0.4-0.4,0.8-0.8,0.8l0,0c-0.4,0-0.8-0.4-0.8-0.8l0,0c0-0.4,0.4-0.8,0.8-0.8l0,0
				C5.5,29.4,5.9,29.7,5.9,30.2L5.9,30.2z"/>
			<path fill="#1F759B" d="M9.8,30.2C9.8,30.6,9.5,31,9,31l0,0c-0.4,0-0.8-0.4-0.8-0.8l0,0c0-0.4,0.4-0.8,0.8-0.8l0,0
				C9.5,29.4,9.8,29.7,9.8,30.2L9.8,30.2z"/>
			<path fill="#1F759B" d="M13.8,30.2c0,0.4-0.4,0.8-0.8,0.8l0,0c-0.4,0-0.8-0.4-0.8-0.8l0,0c0-0.4,0.4-0.8,0.8-0.8l0,0
				C13.4,29.4,13.8,29.7,13.8,30.2L13.8,30.2z"/>
		</g>
		<g>
			<path fill="#1F759B" d="M5.9,34c0,0.4-0.4,0.8-0.8,0.8l0,0c-0.4,0-0.8-0.4-0.8-0.8l0,0c0-0.4,0.4-0.8,0.8-0.8l0,0
				C5.5,33.2,5.9,33.6,5.9,34L5.9,34z"/>
			<path fill="#1F759B" d="M9.8,34c0,0.4-0.4,0.8-0.8,0.8l0,0c-0.4,0-0.8-0.4-0.8-0.8l0,0c0-0.4,0.4-0.8,0.8-0.8l0,0
				C9.5,33.2,9.8,33.6,9.8,34L9.8,34z"/>
			<path fill="#1F759B" d="M13.8,34c0,0.4-0.4,0.8-0.8,0.8l0,0c-0.4,0-0.8-0.4-0.8-0.8l0,0c0-0.4,0.4-0.8,0.8-0.8l0,0
				C13.4,33.2,13.8,33.6,13.8,34L13.8,34z"/>
		</g>
		<g>
			<path fill="#1F759B" d="M5.9,37.8c0,0.4-0.4,0.8-0.8,0.8l0,0c-0.4,0-0.8-0.4-0.8-0.8l0,0c0-0.4,0.4-0.8,0.8-0.8l0,0
				C5.5,37,5.9,37.4,5.9,37.8L5.9,37.8z"/>
			<path fill="#1F759B" d="M9.8,37.8c0,0.4-0.4,0.8-0.8,0.8l0,0c-0.4,0-0.8-0.4-0.8-0.8l0,0C8.2,37.4,8.6,37,9,37l0,0
				C9.5,37,9.8,37.4,9.8,37.8L9.8,37.8z"/>
			<path fill="#1F759B" d="M13.8,37.8c0,0.4-0.4,0.8-0.8,0.8l0,0c-0.4,0-0.8-0.4-0.8-0.8l0,0c0-0.4,0.4-0.8,0.8-0.8l0,0
				C13.4,37,13.8,37.4,13.8,37.8L13.8,37.8z"/>
		</g>
		<g>
			<path fill="#1F759B" d="M5.9,41.6c0,0.4-0.4,0.8-0.8,0.8l0,0c-0.4,0-0.8-0.4-0.8-0.8l0,0c0-0.4,0.4-0.8,0.8-0.8l0,0
				C5.5,40.8,5.9,41.2,5.9,41.6L5.9,41.6z"/>
			<path fill="#1F759B" d="M9.8,41.6c0,0.4-0.4,0.8-0.8,0.8l0,0c-0.4,0-0.8-0.4-0.8-0.8l0,0c0-0.4,0.4-0.8,0.8-0.8l0,0
				C9.5,40.8,9.8,41.2,9.8,41.6L9.8,41.6z"/>
			<path fill="#1F759B" d="M13.8,41.6c0,0.4-0.4,0.8-0.8,0.8l0,0c-0.4,0-0.8-0.4-0.8-0.8l0,0c0-0.4,0.4-0.8,0.8-0.8l0,0
				C13.4,40.8,13.8,41.2,13.8,41.6L13.8,41.6z"/>
		</g>
		<g>
			<path fill="#1F759B" d="M5.9,45.4c0,0.4-0.4,0.8-0.8,0.8l0,0c-0.4,0-0.8-0.4-0.8-0.8l0,0c0-0.4,0.4-0.8,0.8-0.8l0,0
				C5.5,44.6,5.9,45,5.9,45.4L5.9,45.4z"/>
			<path fill="#1F759B" d="M9.8,45.4c0,0.4-0.4,0.8-0.8,0.8l0,0c-0.4,0-0.8-0.4-0.8-0.8l0,0c0-0.4,0.4-0.8,0.8-0.8l0,0
				C9.5,44.6,9.8,45,9.8,45.4L9.8,45.4z"/>
			<path fill="#1F759B" d="M13.8,45.4c0,0.4-0.4,0.8-0.8,0.8l0,0c-0.4,0-0.8-0.4-0.8-0.8l0,0c0-0.4,0.4-0.8,0.8-0.8l0,0
				C13.4,44.6,13.8,45,13.8,45.4L13.8,45.4z"/>
		</g>
		<g>
			<path fill="#1F759B" d="M5.9,49.2c0,0.4-0.4,0.8-0.8,0.8l0,0c-0.4,0-0.8-0.4-0.8-0.8l0,0c0-0.4,0.4-0.8,0.8-0.8l0,0
				C5.5,48.4,5.9,48.8,5.9,49.2L5.9,49.2z"/>
			<path fill="#1F759B" d="M9.8,49.2C9.8,49.7,9.5,50,9,50l0,0c-0.4,0-0.8-0.4-0.8-0.8l0,0c0-0.4,0.4-0.8,0.8-0.8l0,0
				C9.5,48.4,9.8,48.8,9.8,49.2L9.8,49.2z"/>
			<path fill="#1F759B" d="M13.8,49.2c0,0.4-0.4,0.8-0.8,0.8l0,0c-0.4,0-0.8-0.4-0.8-0.8l0,0c0-0.4,0.4-0.8,0.8-0.8l0,0
				C13.4,48.4,13.8,48.8,13.8,49.2L13.8,49.2z"/>
		</g>
		<g>
			<path fill="#1F759B" d="M5.9,53c0,0.4-0.4,0.8-0.8,0.8l0,0c-0.4,0-0.8-0.4-0.8-0.8l0,0c0-0.4,0.4-0.8,0.8-0.8l0,0
				C5.5,52.2,5.9,52.6,5.9,53L5.9,53z"/>
			<path fill="#1F759B" d="M9.8,53c0,0.4-0.4,0.8-0.8,0.8l0,0c-0.4,0-0.8-0.4-0.8-0.8l0,0c0-0.4,0.4-0.8,0.8-0.8l0,0
				C9.5,52.2,9.8,52.6,9.8,53L9.8,53z"/>
			<path fill="#1F759B" d="M13.8,53c0,0.4-0.4,0.8-0.8,0.8l0,0c-0.4,0-0.8-0.4-0.8-0.8l0,0c0-0.4,0.4-0.8,0.8-0.8l0,0
				C13.4,52.2,13.8,52.6,13.8,53L13.8,53z"/>
		</g>
		<g>
			<path fill="#1F759B" d="M5.9,56.8c0,0.4-0.4,0.8-0.8,0.8l0,0c-0.4,0-0.8-0.4-0.8-0.8l0,0c0-0.4,0.4-0.8,0.8-0.8l0,0
				C5.5,56,5.9,56.4,5.9,56.8L5.9,56.8z"/>
			<path fill="#1F759B" d="M9.8,56.8c0,0.4-0.4,0.8-0.8,0.8l0,0c-0.4,0-0.8-0.4-0.8-0.8l0,0C8.2,56.4,8.6,56,9,56l0,0
				C9.5,56,9.8,56.4,9.8,56.8L9.8,56.8z"/>
			<path fill="#1F759B" d="M13.8,56.8c0,0.4-0.4,0.8-0.8,0.8l0,0c-0.4,0-0.8-0.4-0.8-0.8l0,0c0-0.4,0.4-0.8,0.8-0.8l0,0
				C13.4,56,13.8,56.4,13.8,56.8L13.8,56.8z"/>
		</g>
	</g>
	<path fill="#1F759B" d="M55.7,39.7c0,8.8-7.1,16-16,16c-8.8,0-16-7.1-16-16c0-8.8,7.1-16,16-16C48.6,23.8,55.7,30.9,55.7,39.7z"/>
	<path fill="#0B6382" d="M28.5,28.4c6.2-6.2,16.4-6.2,22.6,0s6.2,16.3,0,22.5"/>
	<g>
		<circle fill="#13D1BA" cx="39.8" cy="39.7" r="11"/>
		<path fill="#0FAAA6" d="M39.8,28.7c6.1,0,11,4.9,11,11s-4.9,11-11,11"/>
	</g>
	<g>
		<circle fill="#13D1BA" cx="39.8" cy="39.7" r="7"/>
		<path fill="#0FAAA6" d="M32.7,39.7c0-3.9,3.2-7,7-7c3.9,0,7,3.2,7,7"/>
	</g>
	<g opacity="0.6">
		<circle fill="#13D1BA" cx="39.8" cy="39.7" r="7"/>
		<path fill="#0FAAA6" d="M34.8,44.7c-2.8-2.8-2.8-7.2,0-10c2.8-2.8,7.2-2.8,10,0"/>
	</g>
	<path fill="#0B6382" d="M28,22.5c0,0.3-0.2,0.5-0.5,0.5h-4c-0.3,0-0.5-0.2-0.5-0.5l0,0c0-0.3,0.2-0.5,0.5-0.5h4
		C27.8,22,28,22.2,28,22.5L28,22.5z"/>
	<circle fill="#D81665" cx="56.6" cy="25" r="1.8"/>
	<path fill="#00233F" d="M47,18c0,1.5-1,3-2.5,3H35c-1.5,0-3-1.5-3-3v-3.4c0-1.5,1.5-2.6,3-2.6h9.4c1.5,0,2.5,1.1,2.5,2.6V18z"/>
	<rect x="35" y="14" fill="#FFFFF5" width="9" height="4"/>
	<circle fill="#F0FFFD" cx="36.9" cy="36.8" r="2.3"/>
	<circle fill="#F0FFFD" cx="41.7" cy="41.2" r="0.3"/>
	<circle fill="#F0FFFD" cx="43.7" cy="43.5" r="0.9"/>
	<g>
		<path fill="#D81665" d="M40.4,8.4c0,0.4-0.3,0.7-0.7,0.7l0,0c-0.4,0-0.7-0.3-0.7-0.7V2.1c0-0.4,0.3-0.7,0.7-0.7l0,0
			c0.4,0,0.7,0.3,0.7,0.7L40.4,8.4z"/>
		<g>
			<path fill="#D81665" d="M31.1,10.5c0.3,0.3,0.3,0.7,0,1l0,0c-0.3,0.3-0.7,0.3-1,0l-4.4-4.4c-0.3-0.3-0.3-0.7,0-1l0,0
				c0.3-0.3,0.7-0.3,1,0L31.1,10.5z"/>
			<path fill="#D81665" d="M48.4,10.5c-0.3,0.3-0.3,0.7,0,1l0,0c0.3,0.3,0.7,0.3,1,0l4.4-4.4c0.3-0.3,0.3-0.7,0-1l0,0
				c-0.3-0.3-0.7-0.3-1,0L48.4,10.5z"/>
		</g>
	</g>
</g>
</svg>
