<?xml version="1.0" encoding="utf-8"?>
<!-- Generator: Adobe Illustrator 16.0.0, SVG Export Plug-In . SVG Version: 6.00 Build 0)  -->
<!DOCTYPE svg PUBLIC "-//W3C//DTD SVG 1.1//EN" "http://www.w3.org/Graphics/SVG/1.1/DTD/svg11.dtd">
<svg version="1.1" xmlns="http://www.w3.org/2000/svg" xmlns:xlink="http://www.w3.org/1999/xlink" x="0px" y="0px" width="65px"
	 height="65px" viewBox="0 0 65 65" enable-background="new 0 0 65 65" xml:space="preserve">
<g id="Layer_1">
	<g>
		<g>
			<g>
				<g>
					<path fill="#FF4800" d="M58.285,6.591c5.794,8.939,2.188,23.875-9.044,35.104c-11.231,11.23-20.709,9.383-28.666,2.611"/>
					<path fill="#6D3007" d="M33.389,52.289c-4.85,0-9.67-2.025-14.434-6.079c-1.052-0.896-1.179-2.473-0.284-3.524
						c0.897-1.052,2.473-1.178,3.524-0.284c5.288,4.501,13.663,9.139,25.278-2.475C57.658,29.746,61.404,15.999,56.188,7.95
						c-0.751-1.158-0.421-2.706,0.738-3.457s2.706-0.422,3.457,0.738c6.577,10.147,2.635,26.227-9.374,38.231
						C45.125,49.345,39.235,52.289,33.389,52.289z"/>
				</g>
			</g>
			<g>
				<g>
					<path fill="#FFE092" d="M44.417,20.487c3.66,5.65,1.379,15.084-5.717,22.182c-7.098,7.096-13.084,5.93-18.113,1.648"/>
					<path fill="#6D3007" d="M28.668,50.256c-3.28,0-6.539-1.343-9.701-4.035c-1.052-0.895-1.179-2.473-0.283-3.523
						c0.895-1.052,2.474-1.178,3.523-0.283c3.323,2.827,8,5.212,14.726-1.513c6.133-6.135,8.449-14.327,5.386-19.055
						c-0.75-1.159-0.419-2.707,0.739-3.458c1.158-0.749,2.707-0.419,3.458,0.739c4.387,6.772,1.843,17.416-6.048,25.309
						C36.592,48.312,32.613,50.256,28.668,50.256z"/>
				</g>
			</g>
		</g>
		<g>
			<g>
				<g>
					<path fill="#FF4800" d="M6.714,58.409c-5.793-8.941-2.186-23.873,9.045-35.104c11.233-11.23,20.709-9.383,28.668-2.611"/>
					<path fill="#6D3007" d="M6.716,60.909c-0.819,0-1.621-0.401-2.1-1.141c-6.574-10.146-2.631-26.225,9.375-38.23
						C24.757,10.776,35.542,9.853,46.047,18.79c1.052,0.895,1.179,2.473,0.284,3.524c-0.896,1.053-2.473,1.179-3.524,0.284
						c-5.288-4.5-13.66-9.14-25.28,2.475C7.345,35.256,3.598,49.002,8.812,57.05c0.751,1.159,0.421,2.707-0.738,3.457
						C7.653,60.779,7.182,60.909,6.716,60.909z"/>
				</g>
			</g>
			<g>
				<g>
					<path fill="#FFD561" d="M20.587,44.513c-3.664-5.65-1.383-15.082,5.713-22.18c7.1-7.098,13.086-5.932,18.115-1.65"/>
					<path fill="#6D3007" d="M20.589,47.013c-0.818,0-1.621-0.401-2.1-1.14c-4.391-6.771-1.849-17.414,6.043-25.308
						c7.101-7.099,14.536-7.718,21.503-1.786c1.052,0.895,1.179,2.473,0.283,3.523c-0.895,1.052-2.475,1.177-3.523,0.283
						c-3.323-2.828-8.002-5.21-14.728,1.515c-6.133,6.136-8.447,14.326-5.383,19.052c0.751,1.158,0.421,2.707-0.737,3.458
						C21.527,46.883,21.056,47.013,20.589,47.013z"/>
				</g>
			</g>
		</g>
	</g>
</g>
<g id="nyt_x5F_exporter_x5F_info" display="none">
</g>
</svg>
