<?xml version="1.0" encoding="utf-8"?>
<!-- Generator: Adobe Illustrator 16.0.0, SVG Export Plug-In . SVG Version: 6.00 Build 0)  -->
<!DOCTYPE svg PUBLIC "-//W3C//DTD SVG 1.1//EN" "http://www.w3.org/Graphics/SVG/1.1/DTD/svg11.dtd">
<svg version="1.1" id="Layer_1" xmlns="http://www.w3.org/2000/svg" xmlns:xlink="http://www.w3.org/1999/xlink" x="0px" y="0px"
	 width="65px" height="65px" viewBox="0 0 65 65" enable-background="new 0 0 65 65" xml:space="preserve">
<g>
	<g>
		<g>
			<path fill="#CC776E" d="M32.962,37.938c0,14.02,1.266,20.857-10.455,20.857c-11.722,0-21.833-5.801-22.005-19.818
				C0.294,21.913,11.462,6.205,23.183,6.205C34.905,6.205,32.962,23.918,32.962,37.938z"/>
			<path fill="#C1625B" d="M23.183,6.205c11.722,0,9.779,17.713,9.779,31.732s1.266,20.857-10.455,20.857
				c-11.722,0-21.833-5.801-22.005-19.818"/>
			<path fill="#BA5C5A" d="M32.962,37.938c0,14.02,1.266,20.857-10.455,20.857c-11.722,0-21.833-5.801-22.005-19.818"/>
			<g>
				<g>
					<polyline fill="#AA514F" points="15.224,14.269 15.224,23.008 25.523,23.008 25.523,32.371 					"/>
					<path fill="#EA867F" d="M25.523,33.619c-0.689,0-1.248-0.559-1.248-1.248v-8.115h-9.051l-1.249-1.248v-8.739
						c0-0.69,0.559-1.248,1.249-1.248c0.689,0,1.248,0.558,1.248,1.248v7.491h9.051l1.249,1.248v9.363
						C26.772,33.061,26.213,33.619,25.523,33.619z"/>
				</g>
				<g>
					<path fill="#AA514F" d="M20.791,27.428c0-0.233-11.47,0-11.47,0v9.363h6.944v13.344H9.398"/>
					<path fill="#EA867F" d="M16.265,51.383H9.398c-0.689,0-1.248-0.559-1.248-1.248c0-0.69,0.559-1.249,1.248-1.249h5.618V38.04
						H9.321l-1.25-1.249v-9.363l1.224-1.248c11.762-0.237,11.904-0.104,12.366,0.35l0.377,0.898c0,0.69-0.558,1.249-1.247,1.249
						c-0.133,0-0.261-0.021-0.382-0.06c-0.952-0.086-5.907-0.035-9.84,0.036v6.89h5.696l1.248,1.248v13.344L16.265,51.383z"/>
				</g>
				<g>
					<line fill="#AA514F" x1="10.023" y1="42.8" x2="10.023" y2="41.785"/>
					<path fill="#EA867F" d="M10.023,44.048c-0.69,0-1.249-0.558-1.249-1.248v-1.015c0-0.689,0.559-1.248,1.249-1.248
						c0.689,0,1.247,0.559,1.247,1.248V42.8C11.27,43.49,10.712,44.048,10.023,44.048z"/>
				</g>
				<g>
					<g>
						<line fill="#AA514F" x1="14.314" y1="32.344" x2="14.314" y2="31.33"/>
						<path fill="#EA867F" d="M14.314,33.593c-0.689,0-1.248-0.559-1.248-1.249V31.33c0-0.69,0.559-1.249,1.248-1.249
							c0.69,0,1.249,0.559,1.249,1.249v1.014C15.563,33.034,15.004,33.593,14.314,33.593z"/>
					</g>
					<g>
						<line fill="#AA514F" x1="18.372" y1="32.344" x2="18.372" y2="31.33"/>
						<path fill="#EA867F" d="M18.372,33.593c-0.69,0-1.248-0.559-1.248-1.249V31.33c0-0.69,0.558-1.249,1.248-1.249
							s1.248,0.559,1.248,1.249v1.014C19.62,33.034,19.062,33.593,18.372,33.593z"/>
					</g>
				</g>
				<g>
					<polyline fill="#AA514F" points="19.647,18.379 27.97,18.379 27.97,12.864 					"/>
					<path fill="#EA867F" d="M27.97,19.627h-8.323c-0.69,0-1.249-0.559-1.249-1.248c0-0.69,0.559-1.249,1.249-1.249h7.074v-4.266
						c0-0.69,0.559-1.249,1.249-1.249c0.689,0,1.248,0.559,1.248,1.249v5.515L27.97,19.627z"/>
				</g>
				<g>
					<polyline fill="#AA514F" points="20.321,39.601 28.125,39.601 28.125,34.295 					"/>
					<path fill="#EA867F" d="M28.125,40.849h-7.804c-0.688,0-1.247-0.558-1.247-1.248s0.559-1.249,1.247-1.249h6.556v-4.057
						c0-0.69,0.559-1.248,1.248-1.248c0.69,0,1.249,0.558,1.249,1.248v5.306L28.125,40.849z"/>
				</g>
				<g>
					<polyline fill="#AA514F" points="20.321,45.062 28.125,45.062 28.125,39.757 					"/>
					<path fill="#EA867F" d="M28.125,46.311h-7.804c-0.688,0-1.247-0.559-1.247-1.248c0-0.69,0.559-1.248,1.247-1.248h6.556v-4.058
						c0-0.69,0.559-1.249,1.248-1.249c0.69,0,1.249,0.559,1.249,1.249v5.306L28.125,46.311z"/>
				</g>
				<g>
					<polyline fill="#AA514F" points="20.321,50.524 28.125,50.524 28.125,45.219 					"/>
					<path fill="#EA867F" d="M28.125,51.772h-7.804c-0.688,0-1.247-0.558-1.247-1.248s0.559-1.249,1.247-1.249h6.556v-4.057
						c0-0.69,0.559-1.249,1.248-1.249c0.69,0,1.249,0.559,1.249,1.249v5.306L28.125,51.772z"/>
				</g>
				<g>
					<line fill="#AA514F" x1="16.317" y1="54.375" x2="24.329" y2="54.375"/>
					<path fill="#EA867F" d="M24.329,55.623h-8.012c-0.689,0-1.248-0.559-1.248-1.248c0-0.69,0.559-1.249,1.248-1.249h8.012
						c0.689,0,1.248,0.559,1.248,1.249C25.577,55.064,25.018,55.623,24.329,55.623z"/>
				</g>
			</g>
		</g>
		<g>
			<path fill="#CC776E" d="M32.038,37.938c0,14.02-1.265,20.857,10.456,20.857c11.722,0,21.833-5.801,22.004-19.818
				c0.209-17.063-10.96-32.771-22.679-32.771C30.096,6.205,32.038,23.918,32.038,37.938z"/>
			<path fill="#C1625B" d="M41.819,6.205c-11.723,0-9.781,17.713-9.781,31.732s-1.265,20.857,10.456,20.857
				c11.722,0,21.833-5.801,22.004-19.818"/>
			<path fill="#BA5C5A" d="M32.038,37.938c0,14.02-1.265,20.857,10.456,20.857c11.722,0,21.833-5.801,22.004-19.818"/>
			<g>
				<g>
					<polyline fill="#AA514F" points="49.778,14.269 49.778,23.008 39.478,23.008 39.478,32.371 					"/>
					<path fill="#EA867F" d="M39.478,33.619c0.688,0,1.248-0.559,1.248-1.248v-8.115h9.052l1.248-1.248v-8.739
						c0-0.69-0.559-1.248-1.248-1.248c-0.691,0-1.249,0.558-1.249,1.248v7.491h-9.051l-1.249,1.248v9.363
						C38.229,33.061,38.788,33.619,39.478,33.619z"/>
				</g>
				<g>
					<path fill="#AA514F" d="M44.21,27.428c0-0.233,11.47,0,11.47,0v9.363h-6.943v13.344h6.866"/>
					<path fill="#EA867F" d="M48.737,51.383h6.866c0.689,0,1.248-0.559,1.248-1.248c0-0.69-0.559-1.249-1.248-1.249h-5.618V38.04
						h5.695l1.249-1.249v-9.363l-1.223-1.248c-11.762-0.237-11.904-0.104-12.366,0.35l-0.378,0.898c0,0.69,0.558,1.249,1.248,1.249
						c0.133,0,0.261-0.021,0.382-0.06c0.952-0.086,5.906-0.035,9.84,0.036v6.89h-5.695l-1.25,1.248v13.344L48.737,51.383z"/>
				</g>
				<g>
					<line fill="#AA514F" x1="54.978" y1="42.8" x2="54.978" y2="41.785"/>
					<path fill="#EA867F" d="M54.978,44.048c0.69,0,1.249-0.558,1.249-1.248v-1.015c0-0.689-0.559-1.248-1.249-1.248
						s-1.248,0.559-1.248,1.248V42.8C53.73,43.49,54.288,44.048,54.978,44.048z"/>
				</g>
				<g>
					<g>
						<line fill="#AA514F" x1="50.686" y1="32.344" x2="50.686" y2="31.33"/>
						<path fill="#EA867F" d="M50.686,33.593c0.69,0,1.249-0.559,1.249-1.249V31.33c0-0.69-0.559-1.249-1.249-1.249
							c-0.689,0-1.248,0.559-1.248,1.249v1.014C49.438,33.034,49.997,33.593,50.686,33.593z"/>
					</g>
					<g>
						<line fill="#AA514F" x1="46.629" y1="32.344" x2="46.629" y2="31.33"/>
						<path fill="#EA867F" d="M46.629,33.593c0.691,0,1.249-0.559,1.249-1.249V31.33c0-0.69-0.558-1.249-1.249-1.249
							c-0.69,0-1.248,0.559-1.248,1.249v1.014C45.381,33.034,45.939,33.593,46.629,33.593z"/>
					</g>
				</g>
				<g>
					<polyline fill="#AA514F" points="45.354,18.379 37.031,18.379 37.031,12.864 					"/>
					<path fill="#EA867F" d="M37.031,19.627h8.323c0.69,0,1.249-0.559,1.249-1.248c0-0.69-0.559-1.249-1.249-1.249H38.28v-4.266
						c0-0.69-0.559-1.249-1.249-1.249c-0.689,0-1.248,0.559-1.248,1.249v5.515L37.031,19.627z"/>
				</g>
				<g>
					<polyline fill="#AA514F" points="44.679,39.601 36.876,39.601 36.876,34.295 					"/>
					<path fill="#EA867F" d="M36.876,40.849h7.803c0.689,0,1.248-0.558,1.248-1.248s-0.559-1.249-1.248-1.249h-6.555v-4.057
						c0-0.69-0.559-1.248-1.248-1.248c-0.69,0-1.249,0.558-1.249,1.248v5.306L36.876,40.849z"/>
				</g>
				<g>
					<polyline fill="#AA514F" points="44.679,45.062 36.876,45.062 36.876,39.757 					"/>
					<path fill="#EA867F" d="M36.876,46.311h7.803c0.689,0,1.248-0.559,1.248-1.248c0-0.69-0.559-1.248-1.248-1.248h-6.555v-4.058
						c0-0.69-0.559-1.249-1.248-1.249c-0.69,0-1.249,0.559-1.249,1.249v5.306L36.876,46.311z"/>
				</g>
				<g>
					<polyline fill="#AA514F" points="44.679,50.524 36.876,50.524 36.876,45.219 					"/>
					<path fill="#EA867F" d="M36.876,51.772h7.803c0.689,0,1.248-0.558,1.248-1.248s-0.559-1.249-1.248-1.249h-6.555v-4.057
						c0-0.69-0.559-1.249-1.248-1.249c-0.69,0-1.249,0.559-1.249,1.249v5.306L36.876,51.772z"/>
				</g>
				<g>
					<line fill="#AA514F" x1="48.684" y1="54.375" x2="40.672" y2="54.375"/>
					<path fill="#EA867F" d="M40.672,55.623h8.012c0.689,0,1.248-0.559,1.248-1.248c0-0.69-0.559-1.249-1.248-1.249h-8.012
						c-0.689,0-1.248,0.559-1.248,1.249C39.424,55.064,39.983,55.623,40.672,55.623z"/>
				</g>
			</g>
		</g>
	</g>
	<path fill="#AA514F" d="M33.25,52.812c0,0.414-0.336,0.75-0.75,0.75l0,0c-0.414,0-0.75-0.336-0.75-0.75v-38
		c0-0.414,0.336-0.75,0.75-0.75l0,0c0.414,0,0.75,0.336,0.75,0.75V52.812z"/>
</g>
</svg>
