<?xml version="1.0" encoding="utf-8"?>
<!-- Generator: Adobe Illustrator 16.0.0, SVG Export Plug-In . SVG Version: 6.00 Build 0)  -->
<!DOCTYPE svg PUBLIC "-//W3C//DTD SVG 1.1//EN" "http://www.w3.org/Graphics/SVG/1.1/DTD/svg11.dtd">
<svg version="1.1" id="Layer_1" xmlns="http://www.w3.org/2000/svg" xmlns:xlink="http://www.w3.org/1999/xlink" x="0px" y="0px"
	 width="65px" height="65px" viewBox="0 0 65 65" enable-background="new 0 0 65 65" xml:space="preserve">
<g>
	<g>
		<g>
			<path fill="#F24603" d="M35.494,33.266c1.432,1.273,4.227,0.465,6.248-1.805c2.018-2.27,10.793-14.475,9.365-15.75
				c-1.434-1.271-12.531,8.874-14.549,11.143C34.539,29.121,34.062,31.992,35.494,33.266z"/>
			<path fill="#32A01C" d="M53.916,16c0,1.104-0.895,2-2,2h-1c-1.104,0-2-0.896-2-2v-1c0-1.104,0.896-2,2-2h1c1.105,0,2,0.896,2,2
				V16z"/>
			<g>
				<g>
					<g>
						<path fill="#FF6D00" d="M30.266,26.369c1.273,1.432,0.465,4.228-1.805,6.249c-2.27,2.018-14.477,10.794-15.75,9.365
							c-1.271-1.434,8.873-12.532,11.141-14.55C26.121,25.415,28.992,24.938,30.266,26.369z"/>
					</g>
					<g>
						<path fill="#087C66" d="M28.633,46.446c0,2.476-2.008,15.827-4.486,15.827c-2.475,0-4.482-13.352-4.482-15.827
							s2.008-4.484,4.482-4.484C26.625,41.962,28.633,43.971,28.633,46.446z"/>
						<path fill="#087C66" d="M43.658,46.446c0,2.476-2.008,15.827-4.486,15.827c-2.475,0-4.482-13.352-4.482-15.827
							s2.008-4.484,4.482-4.484C41.65,41.962,43.658,43.971,43.658,46.446z"/>
					</g>
					<path fill="#FF6D00" d="M44.311,40.521c0,16.038-5.664,10.697-12.65,10.697S19.01,56.56,19.01,40.521
						c0-9.17,5.666-16.603,12.65-16.603C38.646,23.919,44.311,31.352,44.311,40.521z"/>
					<path fill="#3D3C39" d="M32.223,46.771c0,0.311-0.252,0.562-0.562,0.562l0,0c-0.311,0-0.562-0.252-0.562-0.562v-16.5
						c0-0.311,0.252-0.562,0.562-0.562l0,0c0.311,0,0.562,0.252,0.562,0.562V46.771z"/>
					<ellipse fill="#32A01C" cx="31.66" cy="27.646" rx="6.938" ry="4.312"/>
					<path fill="#F24603" d="M31.66,46.969c-6.553,0-11.943,4.698-12.586-7.955c-0.043,0.439-0.064,0.939-0.064,1.508
						c0,16.038,5.664,10.697,12.65,10.697s12.65,5.341,12.65-10.697c0-0.568-0.021-1.068-0.064-1.508
						C43.602,51.667,38.215,46.969,31.66,46.969z"/>
					<g>
						<path fill="#3D3C39" d="M29.193,62.354c0,1.896-2.26,2.146-5.047,2.146c-2.783,0-5.045-0.249-5.045-2.146
							c0-1.897,2.262-4.508,5.045-4.508C26.934,57.847,29.193,60.457,29.193,62.354z"/>
						<path fill="#1C1B1A" d="M29.193,62.354c0,1.896-2.26,2.146-5.047,2.146c-2.783,0-5.045-0.249-5.045-2.146"/>
					</g>
					<g>
						<path fill="#3D3C39" d="M44.217,62.354c0,1.896-2.258,2.146-5.043,2.146s-5.045-0.249-5.045-2.146
							c0-1.897,2.26-4.508,5.045-4.508S44.217,60.457,44.217,62.354z"/>
						<path fill="#1C1B1A" d="M44.217,62.354c0,1.896-2.258,2.146-5.043,2.146s-5.045-0.249-5.045-2.146"/>
					</g>
					<g>
						<path fill="#E8B085" d="M48.031,16.275c0,7.999-7.332,12.02-16.369,12.02c-9.041,0-16.373-4.021-16.373-12.02
							c0-8.001,7.332-15.775,16.373-15.775C40.699,0.5,48.031,8.274,48.031,16.275z"/>
						<path fill="#DD9F76" d="M48.031,16.275c0,7.999-7.332,12.02-16.369,12.02c-9.041,0-16.373-4.021-16.373-12.02"/>
					</g>
					<g>
						<g>
							<circle fill="#113E49" cx="23.876" cy="17.82" r="1.464"/>
							<path d="M25.34,17.82c0,0.811-0.658,1.465-1.465,1.465c-0.809,0-1.463-0.654-1.463-1.465"/>
							<g>
								<path fill="#F4C3A2" d="M26.764,20.874c-0.078,0-0.158-0.028-0.219-0.091c-0.715-0.714-1.664-1.107-2.672-1.107h-0.002
									c-1.008,0-1.955,0.394-2.666,1.106c-0.121,0.121-0.316,0.124-0.438,0.001c-0.121-0.117-0.123-0.312-0.002-0.434
									c0.83-0.831,1.932-1.29,3.105-1.29h0.002c1.176,0,2.277,0.456,3.109,1.288c0.119,0.119,0.119,0.318,0,0.436
									C26.924,20.846,26.846,20.874,26.764,20.874z"/>
							</g>
						</g>
						<g>
							<path fill="#113E49" d="M37.982,17.82c0,0.811,0.652,1.465,1.465,1.465c0.809,0,1.463-0.654,1.463-1.465
								c0-0.808-0.654-1.464-1.463-1.464C38.635,16.356,37.982,17.013,37.982,17.82z"/>
							<path d="M37.982,17.82c0,0.811,0.652,1.465,1.465,1.465c0.809,0,1.463-0.654,1.463-1.465"/>
							<g>
								<path fill="#F4C3A2" d="M36.559,20.874c0.074,0,0.156-0.028,0.217-0.091c0.715-0.714,1.664-1.107,2.672-1.107l0,0
									c1.01,0,1.959,0.394,2.668,1.106c0.119,0.121,0.314,0.124,0.436,0.001c0.123-0.117,0.125-0.312,0.004-0.434
									c-0.826-0.831-1.932-1.29-3.107-1.29l0,0c-1.174,0-2.279,0.456-3.113,1.288c-0.117,0.119-0.117,0.318,0,0.436
									C36.398,20.846,36.477,20.874,36.559,20.874z"/>
							</g>
						</g>
					</g>
				</g>
			</g>
		</g>
	</g>
	<path fill="#54C911" d="M15.82,12.585h31.678C45.686,6.044,39.291,0.5,31.662,0.5C24.029,0.5,17.635,6.044,15.82,12.585z"/>
	<path fill="#32A01C" d="M15.82,12.585h31.678c-1.812-6.541-8.207-9.25-15.836-9.25C24.029,3.335,17.635,6.044,15.82,12.585z"/>
	<g>
		<g>
			<path fill="#54C911" d="M17.197,20.822c-0.416,1.64-2.08,2.632-3.721,2.218c-1.639-0.415-2.633-2.08-2.219-3.721
				c0.416-1.639,3.277-7.357,4.918-6.943C17.814,12.791,17.611,19.183,17.197,20.822z"/>
			<path fill="#32A01C" d="M16.176,12.376c1.639,0.415,1.436,6.807,1.021,8.446c-0.416,1.64-2.08,2.632-3.721,2.218"/>
		</g>
		<g>
			<path fill="#54C911" d="M46.123,20.822c0.414,1.64,2.08,2.632,3.721,2.218c1.639-0.415,2.633-2.08,2.217-3.721
				c-0.414-1.639-3.277-7.357-4.916-6.943C45.504,12.791,45.709,19.183,46.123,20.822z"/>
			<path fill="#32A01C" d="M47.145,12.376c-1.641,0.415-1.436,6.807-1.021,8.446s2.08,2.632,3.721,2.218"/>
		</g>
	</g>
	<path fill="#32A01C" d="M48.16,12.583c0,0.69-0.561,1.25-1.25,1.25h-30.5c-0.691,0-1.25-0.56-1.25-1.25l0,0
		c0-0.69,0.559-1.25,1.25-1.25h30.5C47.6,11.333,48.16,11.893,48.16,12.583L48.16,12.583z"/>
	<path fill="#32A01C" d="M16.084,42.335c0,1.104-0.896,2-2,2h-1c-1.105,0-2-0.896-2-2v-1c0-1.105,0.895-2,2-2h1c1.104,0,2,0.895,2,2
		V42.335z"/>
	<g>
		<g>
			<g>
				<path fill="#3D3C39" d="M28.535,39.333h-5.5v-5.5h5.5V39.333z M24.035,38.333h3.5v-3.5h-3.5V38.333z"/>
			</g>
			<g>
				<polygon fill="#3D3C39" points="25.785,36.909 23.875,34.999 24.582,34.292 25.785,35.495 26.988,34.292 27.695,34.999 				"/>
			</g>
		</g>
		<g>
			<g>
				<path fill="#3D3C39" d="M40.285,39.333h-5.5v-5.5h5.5V39.333z M35.785,38.333h3.5v-3.5h-3.5V38.333z"/>
			</g>
			<g>
				<polygon fill="#3D3C39" points="37.535,36.909 35.625,34.999 36.332,34.292 37.535,35.495 38.738,34.292 39.445,34.999 				"/>
			</g>
		</g>
	</g>
</g>
</svg>
