<?xml version="1.0" encoding="utf-8"?>
<!-- Generator: Adobe Illustrator 16.0.0, SVG Export Plug-In . SVG Version: 6.00 Build 0)  -->
<!DOCTYPE svg PUBLIC "-//W3C//DTD SVG 1.1//EN" "http://www.w3.org/Graphics/SVG/1.1/DTD/svg11.dtd">
<svg version="1.1" id="Layer_1" xmlns="http://www.w3.org/2000/svg" xmlns:xlink="http://www.w3.org/1999/xlink" x="0px" y="0px"
	 width="64px" height="64px" viewBox="0 0 64 64" enable-background="new 0 0 64 64" xml:space="preserve">
<g>
	<circle fill="#ED7C8A" cx="32" cy="35.7" r="23.5"/>
	<g>
		<path fill="#BDDD7F" d="M35,61.1c0,1.1-1.3,1.9-2.9,1.9h-0.1c-1.6,0-2.9-0.9-2.9-1.9v-8.1c0-1.1,1.3-1.9,2.9-1.9h0.1
			c1.6,0,2.9,0.9,2.9,1.9V61.1z"/>
		<path fill="#A1BC75" d="M32,51L32,51c1.1,0,1.9,0.9,1.9,1.9l1.1,8.1c0,1.1-1.4,1.9-2.9,1.9l0,0"/>
		<path fill="#BDDD7F" d="M58.3,29.7c0,0,3.9-11.2-5.6-11.5c0,0,3.4-11.8-12.1-13.2c0,0-2.2-4.8-8.6-4c-6.4-0.7-8.6,4-8.6,4
			C8,6.5,11.3,18.2,11.3,18.2c-9.5,0.2-5.6,11.5-5.6,11.5c-3.9,1.2-0.8,5.8-0.8,5.8C9,35.2,30,48,30,48l-0.7,3h2.3h0.8h2.3L34,48
			c0,0,21-12.7,25.1-12.4C59.1,35.6,62.2,31,58.3,29.7z"/>
		<path fill="#A1BC75" d="M31.8,51l0.6,0h2.3L34,48c0,0,21-12.7,25.1-12.4c0,0,3.1-4.6-0.8-5.9c0,0,3.9-11.3-5.6-11.5
			c0,0,3.4-11.8-12.1-13.3c0,0-2.2-4.7-8.6-4"/>
		<g>
			<g>
				<path fill="#D81665" d="M31.9,21.7c5.8,0,10.5,4.7,10.5,10.5c0,5.8-4.7,10.5-10.5,10.5c-5.8,0-10.5-4.7-10.5-10.5
					C21.4,26.4,26.1,21.7,31.9,21.7z"/>
				<path fill="#AA0761" d="M21.4,32.3c0-5.8,4.7-10.5,10.5-10.5c5.8,0,10.5,4.7,10.5,10.5"/>
				<g>
					<path fill="#F7A6BB" d="M42.6,32.1c0,2.6-1,5.2-3,7.2c-1.6,1.6-3.6,2.4-5.8,2.4c-2.2,0-4.3-0.9-5.8-2.4c-1.3-1.3-2-2.9-2-4.7
						l0,0c0-1.8,0.7-3.5,2-4.7c1-1,2.4-1.6,3.8-1.6s2.8,0.6,3.8,1.6c0.8,0.8,1.3,2,1.3,3.1c0,1.2-0.5,2.3-1.3,3.1
						c-0.7,0.7-1.6,1.1-2.6,1.1c-1,0-1.9-0.4-2.6-1.1c-1.2-1.2-1.2-3.1,0-4.3c1-1,2.6-1,3.6,0c0.2,0.2,0.2,0.5,0,0.7
						c-0.2,0.2-0.5,0.2-0.7,0c-0.3-0.3-0.7-0.4-1.1-0.5c-0.4,0-0.8,0.2-1.1,0.5c-0.8,0.8-0.8,2.1,0,2.9c0.5,0.5,1.2,0.8,1.9,0.8
						c0.7,0,1.4-0.3,1.9-0.8c1.3-1.3,1.3-3.6,0-4.9c-0.8-0.8-2-1.3-3.1-1.3s-2.3,0.5-3.1,1.3c-1.1,1.1-1.7,2.5-1.7,4l0,0
						c0,1.5,0.6,2.9,1.7,4c1.4,1.4,3.2,2.1,5.1,2.1c1.9,0,3.7-0.8,5.1-2.1c1.7-1.7,2.7-4,2.7-6.5c0-2.5-1-4.8-2.7-6.5
						c-0.2-0.2-0.2-0.5,0-0.7c0.2-0.2,0.5-0.2,0.7,0C41.6,26.9,42.6,29.5,42.6,32.1z"/>
				</g>
				<path fill="#AA0761" d="M23.7,35.3c0.2,0,0.4,0.2,0.4,0.4c0,0.2-0.2,0.4-0.4,0.4c-0.2,0-0.4-0.2-0.4-0.4
					C23.3,35.5,23.5,35.3,23.7,35.3z"/>
				<path fill="#AA0761" d="M25.4,37c0.1,0,0.2,0.1,0.2,0.2c0,0.1-0.1,0.2-0.2,0.2c-0.1,0-0.2-0.1-0.2-0.2S25.2,37,25.4,37z"/>
				<circle fill="#AA0761" cx="30" cy="38.5" r="0.3"/>
				<path fill="#AA0761" d="M27.8,34.3c0.2,0,0.3,0.1,0.3,0.3c0,0.2-0.1,0.3-0.3,0.3c-0.2,0-0.3-0.1-0.3-0.3
					C27.5,34.4,27.6,34.3,27.8,34.3z"/>
				<circle fill="#AA0761" cx="28.7" cy="32.2" r="0.9"/>
				<path fill="#D81665" d="M38.9,31.1c0.5,0,1,0.4,1,1c0,0.5-0.4,1-1,1c-0.5,0-1-0.4-1-1C37.9,31.5,38.4,31.1,38.9,31.1z"/>
				<circle fill="#D81665" cx="37.4" cy="27.6" r="0.3"/>
				<path fill="#D81665" d="M31.1,23.1c0.5,0,0.9,0.4,0.9,0.9c0,0.5-0.4,0.9-0.9,0.9c-0.5,0-0.9-0.4-0.9-0.9
					C30.2,23.5,30.6,23.1,31.1,23.1z"/>
				<circle fill="#D81665" cx="25.6" cy="30" r="0.3"/>
				<circle fill="#D81665" cx="24.8" cy="27.1" r="0.6"/>
				<circle fill="#D81665" cx="27.6" cy="26" r="0.5"/>
				<path fill="#D81665" d="M29.6,25.9c0.1,0,0.1,0.1,0.1,0.1c0,0.1-0.1,0.1-0.1,0.1s-0.1-0.1-0.1-0.1S29.5,25.9,29.6,25.9z"/>
				<circle fill="#D81665" cx="31.3" cy="26" r="0.2"/>
				<circle fill="#D81665" cx="34.7" cy="24.7" r="0.9"/>
				<circle fill="#AA0761" cx="35.7" cy="38.3" r="0.5"/>
				<circle fill="#AA0761" cx="37.1" cy="36.7" r="0.1"/>
				<circle fill="#AA0761" cx="33" cy="33.8" r="1.3"/>
			</g>
			<g>
				<g>
					<circle fill="#D81665" cx="19.3" cy="34.8" r="5.3"/>
					<path fill="#AA0761" d="M14,35.3c-0.3-2.9,1.8-5.5,4.7-5.8c2.9-0.3,5.5,1.8,5.8,4.7"/>
					<g>
						<path fill="#F7A6BB" d="M24.6,34.2c0.1,1.3-0.2,2.7-1.1,3.7c-0.7,0.9-1.7,1.4-2.8,1.5c-1.1,0.1-2.2-0.2-3-0.9
							c-0.7-0.6-1.1-1.4-1.2-2.3l0,0c-0.1-0.9,0.2-1.8,0.7-2.5c0.5-0.6,1.1-0.9,1.8-1c0.7-0.1,1.4,0.1,2,0.6
							c0.5,0.4,0.8,0.9,0.8,1.5c0.1,0.6-0.1,1.2-0.5,1.6c-0.3,0.4-0.8,0.6-1.2,0.7c-0.5,0-1-0.1-1.3-0.4c-0.7-0.5-0.8-1.5-0.2-2.1
							c0.4-0.5,1.2-0.6,1.8-0.2c0.1,0.1,0.1,0.2,0,0.3c-0.1,0.1-0.2,0.1-0.3,0c-0.2-0.1-0.4-0.2-0.6-0.2c-0.2,0-0.4,0.1-0.5,0.3
							c-0.4,0.4-0.3,1.1,0.1,1.4c0.3,0.2,0.6,0.3,1,0.3s0.7-0.2,0.9-0.5c0.6-0.7,0.5-1.9-0.2-2.5c-0.5-0.4-1-0.6-1.6-0.5
							c-0.6,0.1-1.1,0.3-1.5,0.8c-0.5,0.6-0.7,1.3-0.6,2.1l0,0c0.1,0.8,0.4,1.4,1,1.9c0.8,0.6,1.7,0.9,2.7,0.8
							c1-0.1,1.8-0.6,2.5-1.3c0.8-1,1.1-2.2,1-3.4c-0.1-1.2-0.7-2.3-1.7-3.1c-0.1-0.1-0.1-0.2,0-0.3c0.1-0.1,0.2-0.1,0.3,0
							C23.9,31.6,24.5,32.9,24.6,34.2z"/>
					</g>
					<circle fill="#AA0761" cx="15.4" cy="36.9" r="0.2"/>
					<circle fill="#AA0761" cx="16.3" cy="37.6" r="0.1"/>
					<path fill="#AA0761" d="M18.7,37.8c0.1,0,0.2,0.1,0.2,0.1c0,0.1-0.1,0.2-0.1,0.2c-0.1,0-0.2-0.1-0.2-0.1
						C18.5,37.9,18.6,37.9,18.7,37.8z"/>
					<circle fill="#AA0761" cx="17.4" cy="36.1" r="0.2"/>
					<path fill="#AA0761" d="M17.6,34.4c0.3,0,0.5,0.2,0.5,0.4c0,0.3-0.2,0.5-0.4,0.5c-0.3,0-0.5-0.2-0.5-0.4
						C17.2,34.7,17.4,34.4,17.6,34.4z"/>
					<circle fill="#D81665" cx="22.8" cy="34.3" r="0.5"/>
					<circle fill="#D81665" cx="21.8" cy="32.2" r="0.2"/>
					<circle fill="#D81665" cx="18.5" cy="30.7" r="0.4"/>
					<circle fill="#D81665" cx="16" cy="34" r="0.1"/>
					<circle fill="#D81665" cx="15.5" cy="32.6" r="0.3"/>
					<circle fill="#D81665" cx="16.8" cy="31.9" r="0.2"/>
					<path fill="#D81665" d="M17.8,31.7C17.8,31.7,17.9,31.7,17.8,31.7c0.1,0.1,0,0.1,0,0.1C17.8,31.8,17.8,31.8,17.8,31.7
						C17.8,31.8,17.8,31.7,17.8,31.7z"/>
					<path fill="#D81665" d="M18.7,31.6C18.7,31.6,18.8,31.6,18.7,31.6c0.1,0.1,0.1,0.2,0,0.2c-0.1,0-0.1,0-0.1-0.1
						C18.6,31.6,18.6,31.6,18.7,31.6z"/>
					<path fill="#D81665" d="M20.3,30.4c0.3,0,0.5,0.2,0.5,0.4c0,0.3-0.2,0.5-0.4,0.5c-0.3,0-0.5-0.2-0.5-0.4
						C19.8,30.7,20,30.4,20.3,30.4z"/>
					<path fill="#AA0761" d="M21.5,37.4c0.1,0,0.2,0.1,0.3,0.2c0,0.1-0.1,0.2-0.2,0.3c-0.1,0-0.2-0.1-0.3-0.2
						C21.3,37.5,21.4,37.4,21.5,37.4z"/>
					<circle fill="#AA0761" cx="22.1" cy="36.7" r="0"/>
					<path fill="#AA0761" d="M19.8,34.8c0.4,0,0.7,0.2,0.7,0.6c0,0.4-0.2,0.7-0.6,0.7c-0.4,0-0.7-0.2-0.7-0.6
						C19.2,35.2,19.5,34.9,19.8,34.8z"/>
				</g>
				<g>
					<circle fill="#D81665" cx="44.7" cy="34.8" r="5.3"/>
					<path fill="#AA0761" d="M50,35.3c0.3-2.9-1.8-5.5-4.7-5.8c-2.9-0.3-5.5,1.8-5.8,4.7"/>
					<g>
						<path fill="#F7A6BB" d="M39.4,34.2c-0.1,1.3,0.2,2.7,1.1,3.7c0.7,0.9,1.7,1.4,2.8,1.5c1.1,0.1,2.2-0.2,3-0.9
							c0.7-0.6,1.1-1.4,1.2-2.3l0,0c0.1-0.9-0.2-1.8-0.7-2.5c-0.5-0.6-1.1-0.9-1.8-1c-0.7-0.1-1.4,0.1-2,0.6
							c-0.5,0.4-0.8,0.9-0.8,1.5c-0.1,0.6,0.1,1.2,0.5,1.6c0.3,0.4,0.8,0.6,1.2,0.7c0.5,0,1-0.1,1.3-0.4c0.7-0.5,0.8-1.5,0.2-2.1
							c-0.4-0.5-1.2-0.6-1.8-0.2c-0.1,0.1-0.1,0.2,0,0.3c0.1,0.1,0.2,0.1,0.3,0c0.2-0.1,0.4-0.2,0.6-0.2c0.2,0,0.4,0.1,0.5,0.3
							c0.4,0.4,0.3,1.1-0.1,1.4c-0.3,0.2-0.6,0.3-1,0.3s-0.7-0.2-0.9-0.5c-0.6-0.7-0.5-1.9,0.2-2.5c0.5-0.4,1-0.6,1.6-0.5
							c0.6,0.1,1.1,0.3,1.5,0.8c0.5,0.6,0.7,1.3,0.6,2.1l0,0c-0.1,0.8-0.4,1.4-1,1.9c-0.8,0.6-1.7,0.9-2.7,0.8
							c-1-0.1-1.8-0.6-2.5-1.3c-0.8-1-1.1-2.2-1-3.4c0.1-1.2,0.7-2.3,1.7-3.1c0.1-0.1,0.1-0.2,0-0.3c-0.1-0.1-0.2-0.1-0.3,0
							C40.1,31.6,39.5,32.9,39.4,34.2z"/>
					</g>
					<circle fill="#AA0761" cx="48.6" cy="36.9" r="0.2"/>
					<circle fill="#AA0761" cx="47.7" cy="37.6" r="0.1"/>
					<path fill="#AA0761" d="M45.3,37.8c-0.1,0-0.2,0.1-0.2,0.1c0,0.1,0.1,0.2,0.1,0.2c0.1,0,0.2-0.1,0.2-0.1
						C45.5,37.9,45.4,37.9,45.3,37.8z"/>
					<circle fill="#AA0761" cx="46.6" cy="36.1" r="0.2"/>
					<path fill="#AA0761" d="M46.4,34.4c-0.3,0-0.5,0.2-0.5,0.4c0,0.3,0.2,0.5,0.4,0.5c0.3,0,0.5-0.2,0.5-0.4
						C46.8,34.7,46.6,34.4,46.4,34.4z"/>
					<circle fill="#D81665" cx="41.2" cy="34.3" r="0.5"/>
					<circle fill="#D81665" cx="42.2" cy="32.2" r="0.2"/>
					<circle fill="#D81665" cx="45.5" cy="30.7" r="0.4"/>
					<circle fill="#D81665" cx="48" cy="34" r="0.1"/>
					<circle fill="#D81665" cx="48.5" cy="32.6" r="0.3"/>
					<circle fill="#D81665" cx="47.2" cy="31.9" r="0.2"/>
					<path fill="#D81665" d="M46.2,31.7C46.2,31.7,46.1,31.7,46.2,31.7c-0.1,0.1,0,0.1,0,0.1C46.2,31.8,46.2,31.8,46.2,31.7
						C46.2,31.8,46.2,31.7,46.2,31.7z"/>
					<path fill="#D81665" d="M45.3,31.6C45.3,31.6,45.2,31.6,45.3,31.6c-0.1,0.1-0.1,0.2,0,0.2c0.1,0,0.1,0,0.1-0.1
						C45.4,31.6,45.4,31.6,45.3,31.6z"/>
					<path fill="#D81665" d="M43.7,30.4c-0.3,0-0.5,0.2-0.5,0.4c0,0.3,0.2,0.5,0.4,0.5c0.3,0,0.5-0.2,0.5-0.4
						C44.2,30.7,44,30.4,43.7,30.4z"/>
					<path fill="#AA0761" d="M42.5,37.4c-0.1,0-0.2,0.1-0.3,0.2c0,0.1,0.1,0.2,0.2,0.3c0.1,0,0.2-0.1,0.3-0.2
						C42.7,37.5,42.6,37.4,42.5,37.4z"/>
					<circle fill="#AA0761" cx="41.9" cy="36.7" r="0"/>
					<path fill="#AA0761" d="M44.2,34.8c-0.4,0-0.7,0.2-0.7,0.6c0,0.4,0.2,0.7,0.6,0.7c0.4,0,0.7-0.2,0.7-0.6
						C44.8,35.2,44.5,34.9,44.2,34.8z"/>
				</g>
			</g>
			<g>
				<g>
					<circle fill="#D81665" cx="17.1" cy="23.9" r="9.4"/>
					<path fill="#AA0761" d="M10.5,17.3c3.7-3.7,9.6-3.7,13.3,0s3.7,9.6,0,13.3"/>
					<g>
						<path fill="#F7A6BB" d="M23.9,30.6c-1.6,1.6-3.9,2.7-6.4,2.7c-2,0-3.8-0.8-5.2-2.1s-2.1-3.2-2.1-5.2c0-1.6,0.6-3.1,1.7-4.2
							l0,0c1.1-1.1,2.6-1.7,4.2-1.7c1.3,0,2.5,0.5,3.4,1.4c0.9,0.9,1.4,2.1,1.4,3.4c0,1.1-0.4,2.1-1.2,2.8s-1.7,1.2-2.8,1.2
							c-0.9,0-1.7-0.3-2.3-1c-0.6-0.6-1-1.4-1-2.3c0-1.5,1.2-2.7,2.7-2.7c1.2,0,2.2,1,2.2,2.2c0,0.2-0.2,0.4-0.4,0.4
							s-0.4-0.2-0.4-0.4c0-0.4-0.1-0.7-0.4-1c-0.3-0.3-0.6-0.4-1-0.4c-1,0-1.8,0.8-1.8,1.8c0,0.6,0.2,1.2,0.7,1.7
							c0.5,0.5,1.1,0.7,1.7,0.7c1.6,0,3.1-1.4,3.1-3.1c0-1.1-0.4-2.1-1.2-2.8c-0.7-0.8-1.7-1.2-2.8-1.2c-1.4,0-2.6,0.5-3.6,1.5l0,0
							c-1,1-1.5,2.2-1.5,3.6c0,1.7,0.7,3.3,1.9,4.6c1.2,1.2,2.8,1.9,4.6,1.9c2.2,0,4.2-0.9,5.8-2.4c1.5-1.5,2.4-3.6,2.4-5.8
							c0-0.2,0.2-0.4,0.4-0.4c0.2,0,0.4,0.2,0.4,0.4C26.6,26.7,25.6,28.9,23.9,30.6z"/>
					</g>
					<circle fill="#AA0761" cx="9.8" cy="21" r="0.4"/>
					<circle fill="#AA0761" cx="9.9" cy="22.9" r="0.2"/>
					<circle fill="#AA0761" cx="12" cy="26.7" r="0.3"/>
					<circle fill="#AA0761" cx="13.1" cy="22.8" r="0.3"/>
					<circle fill="#AA0761" cx="15.1" cy="21.8" r="0.8"/>
					<circle fill="#D81665" cx="21.6" cy="28.2" r="0.9"/>
					<circle fill="#D81665" cx="23.5" cy="24.4" r="0.3"/>
					<circle fill="#D81665" cx="21.8" cy="18.2" r="0.8"/>
					<path fill="#D81665" d="M14.7,18.4c0.1,0.1,0.1,0.3,0,0.4c-0.1,0.1-0.3,0.1-0.3,0c-0.1-0.1-0.1-0.3,0-0.3
						C14.5,18.3,14.6,18.3,14.7,18.4z"/>
					<circle fill="#D81665" cx="15.9" cy="16.2" r="0.6"/>
					<circle fill="#D81665" cx="18.3" cy="17.3" r="0.4"/>
					<circle fill="#D81665" cx="19.6" cy="18.6" r="0.1"/>
					<circle fill="#D81665" cx="20.7" cy="19.6" r="0.2"/>
					<circle fill="#D81665" cx="23.6" cy="21" r="0.8"/>
					<circle fill="#AA0761" cx="15.7" cy="30.1" r="0.4"/>
					<path fill="#AA0761" d="M17.6,30C17.6,30,17.6,30,17.6,30C17.6,30.1,17.6,30.1,17.6,30C17.5,30,17.5,30,17.6,30
						C17.6,30,17.6,30,17.6,30z"/>
					<circle fill="#AA0761" cx="16.4" cy="25.7" r="1.2"/>
				</g>
				<g>
					<circle fill="#D81665" cx="46.9" cy="23.9" r="9.4"/>
					<path fill="#AA0761" d="M53.5,17.3c-3.7-3.7-9.6-3.7-13.3,0s-3.7,9.6,0,13.3"/>
					<g>
						<path fill="#F7A6BB" d="M40.1,30.6c1.6,1.6,3.9,2.7,6.4,2.7c2,0,3.8-0.8,5.2-2.1s2.1-3.2,2.1-5.2c0-1.6-0.6-3.1-1.7-4.2l0,0
							c-1.1-1.1-2.6-1.7-4.2-1.7c-1.3,0-2.5,0.5-3.4,1.4c-0.9,0.9-1.4,2.1-1.4,3.4c0,1.1,0.4,2.1,1.2,2.8s1.7,1.2,2.8,1.2
							c0.9,0,1.7-0.3,2.3-1c0.6-0.6,1-1.4,1-2.3c0-1.5-1.2-2.7-2.7-2.7c-1.2,0-2.2,1-2.2,2.2c0,0.2,0.2,0.4,0.4,0.4s0.4-0.2,0.4-0.4
							c0-0.4,0.1-0.7,0.4-1c0.3-0.3,0.6-0.4,1-0.4c1,0,1.8,0.8,1.8,1.8c0,0.6-0.2,1.2-0.7,1.7c-0.5,0.5-1.1,0.7-1.7,0.7
							c-1.6,0-3.1-1.4-3.1-3.1c0-1.1,0.4-2.1,1.2-2.8c0.7-0.8,1.7-1.2,2.8-1.2c1.4,0,2.6,0.5,3.6,1.5l0,0c1,1,1.5,2.2,1.5,3.6
							c0,1.7-0.7,3.3-1.9,4.6c-1.2,1.2-2.8,1.9-4.6,1.9c-2.2,0-4.2-0.9-5.8-2.4c-1.5-1.5-2.4-3.6-2.4-5.8c0-0.2-0.2-0.4-0.4-0.4
							c-0.2,0-0.4,0.2-0.4,0.4C37.4,26.7,38.4,28.9,40.1,30.6z"/>
					</g>
					<circle fill="#AA0761" cx="54.2" cy="21" r="0.4"/>
					<circle fill="#AA0761" cx="54.1" cy="22.9" r="0.2"/>
					<circle fill="#AA0761" cx="52" cy="26.7" r="0.3"/>
					<circle fill="#AA0761" cx="50.9" cy="22.8" r="0.3"/>
					<circle fill="#AA0761" cx="48.9" cy="21.8" r="0.8"/>
					<circle fill="#D81665" cx="42.4" cy="28.2" r="0.9"/>
					<circle fill="#D81665" cx="40.5" cy="24.4" r="0.3"/>
					<circle fill="#D81665" cx="42.2" cy="18.2" r="0.8"/>
					<path fill="#D81665" d="M49.3,18.4c-0.1,0.1-0.1,0.3,0,0.4c0.1,0.1,0.3,0.1,0.3,0c0.1-0.1,0.1-0.3,0-0.3
						C49.5,18.3,49.4,18.3,49.3,18.4z"/>
					<circle fill="#D81665" cx="48.1" cy="16.2" r="0.6"/>
					<circle fill="#D81665" cx="45.7" cy="17.3" r="0.4"/>
					<circle fill="#D81665" cx="44.4" cy="18.6" r="0.1"/>
					<circle fill="#D81665" cx="43.3" cy="19.6" r="0.2"/>
					<circle fill="#D81665" cx="40.4" cy="21" r="0.8"/>
					<circle fill="#AA0761" cx="48.3" cy="30.1" r="0.4"/>
					<path fill="#AA0761" d="M46.4,30C46.4,30,46.4,30,46.4,30C46.4,30.1,46.4,30.1,46.4,30C46.5,30,46.5,30,46.4,30
						C46.4,30,46.4,30,46.4,30z"/>
					<circle fill="#AA0761" cx="47.6" cy="25.7" r="1.2"/>
				</g>
			</g>
			<g>
				<circle fill="#D81665" cx="32" cy="15.9" r="12.4"/>
				<path fill="#AA0761" d="M32,3.5c6.9,0,12.4,5.6,12.4,12.4c0,6.9-5.6,12.4-12.4,12.4"/>
				<g>
					<path fill="#F7A6BB" d="M32.2,28.5c-3.1,0-6.1-1.2-8.5-3.5c-1.8-1.8-2.8-4.3-2.8-6.8s1-5,2.8-6.8C25.2,9.8,27.2,9,29.3,9l0,0
						c2.1,0,4.1,0.8,5.6,2.3c1.2,1.2,1.9,2.8,1.9,4.5s-0.7,3.3-1.9,4.5c-1,1-2.3,1.5-3.7,1.5s-2.7-0.5-3.7-1.5
						c-0.8-0.8-1.3-1.9-1.3-3c0-1.2,0.4-2.2,1.3-3.1c1.4-1.4,3.7-1.4,5,0c1.2,1.2,1.2,3,0,4.2c-0.2,0.2-0.6,0.2-0.8,0
						s-0.2-0.6,0-0.8c0.3-0.3,0.5-0.8,0.5-1.3s-0.2-0.9-0.5-1.3c-0.9-0.9-2.5-0.9-3.4,0c-0.6,0.6-0.9,1.4-0.9,2.2s0.3,1.6,0.9,2.2
						c1.5,1.5,4.2,1.5,5.8,0c1-1,1.5-2.3,1.5-3.7S35,13.1,34,12.1c-1.3-1.3-2.9-2-4.7-2l0,0c-1.8,0-3.5,0.7-4.7,2
						c-1.6,1.6-2.5,3.8-2.5,6c0,2.3,0.9,4.4,2.5,6c2,2,4.8,3.2,7.6,3.2s5.6-1.1,7.6-3.2c0.2-0.2,0.6-0.2,0.8,0
						c0.2,0.2,0.2,0.6,0,0.8C38.3,27.3,35.2,28.5,32.2,28.5z"/>
				</g>
				<circle fill="#AA0761" cx="27.9" cy="6.2" r="0.5"/>
				<circle fill="#AA0761" cx="26.2" cy="8.2" r="0.3"/>
				<circle fill="#AA0761" cx="24.6" cy="13.6" r="0.4"/>
				<circle fill="#AA0761" cx="29.3" cy="11" r="0.4"/>
				<circle fill="#AA0761" cx="32.1" cy="12" r="1.1"/>
				<circle fill="#D81665" cx="32.2" cy="24.1" r="1.1"/>
				<circle fill="#D81665" cx="37.5" cy="22.3" r="0.4"/>
				<circle fill="#D81665" cx="41.8" cy="14.9" r="1"/>
				<circle fill="#D81665" cx="34.6" cy="8.4" r="0.3"/>
				<circle fill="#D81665" cx="38" cy="7.5" r="0.8"/>
				<circle fill="#D81665" cx="39.3" cy="10.8" r="0.6"/>
				<circle fill="#D81665" cx="39.3" cy="13.1" r="0.1"/>
				<circle fill="#D81665" cx="39.4" cy="15.2" r="0.2"/>
				<circle fill="#D81665" cx="40.8" cy="19.2" r="1.1"/>
				<circle fill="#AA0761" cx="24.9" cy="20.4" r="0.5"/>
				<circle fill="#AA0761" cx="26.7" cy="22" r="0.1"/>
				<circle fill="#AA0761" cx="29.6" cy="17" r="1.5"/>
			</g>
		</g>
		<g>
			<path fill="#E25099" d="M35.4,48c0,0.5-0.4,1-0.9,1h-5.1c-0.5,0-0.9-0.5-0.9-1l0,0c0-0.5,0.4-1,0.9-1h5.1
				C35,47,35.4,47.5,35.4,48L35.4,48z"/>
			<path fill="#D81665" d="M35.4,48L35.4,48c0,0.5-0.4,1-0.9,1h-5.1c-0.5,0-0.9-0.5-0.9-1l0,0"/>
			<path fill="#D81665" d="M35.4,50c0,0.5-0.4,1-0.9,1h-5.1c-0.5,0-0.9-0.5-0.9-1l0,0c0-0.5,0.4-1,0.9-1h5.1
				C35,49,35.4,49.5,35.4,50L35.4,50z"/>
			<path fill="#D81665" d="M35.4,52c0,0.5-0.4,1-0.9,1h-5.1c-0.5,0-0.9-0.5-0.9-1l0,0c0-0.5,0.4-1,0.9-1h5.1
				C35,51,35.4,51.5,35.4,52L35.4,52z"/>
		</g>
		<path fill="#BDDD7F" d="M41.2,34.9c-0.2,0.2-0.3,0.3-0.5,0.4c0-0.2-1.4-5.9-8.8-4.3c-7.4-1.7-8.7,4.1-8.8,4.3
			c-0.2-0.1-0.3-0.3-0.5-0.4C14.2,26.7,10.5,33,10.5,33l1.9,3.8l16,10.1L32,47l0-2.4l0,0v0.1v-0.1l12.8-3.7l6.7-4l1.9-3.8
			C53.4,33,49.8,26.7,41.2,34.9z"/>
		<path fill="#A1BC75" d="M22.8,34.9"/>
		<path fill="#A1BC75" d="M32,44.7L32,44.7L32,44.7L32,44.7v-0.1l12.8-3.7l6.7-4l1.9-3.8c0,0-3.6-6.3-12.2,1.9
			c-0.2,0.2-0.3,0.3-0.5,0.4c0-0.2-1.3-5.9-8.7-4.3"/>
		<path fill="#A1BC75" d="M12.4,36.8"/>
		<ellipse transform="matrix(0.9745 -0.2246 0.2246 0.9745 -6.5682 7.248)" fill="#D3E8A0" cx="28.6" cy="32.5" rx="3.2" ry="1"/>
		
			<ellipse transform="matrix(0.9989 4.641831e-02 -4.641831e-02 0.9989 1.5249 -0.6764)" fill="#D3E8A0" cx="15.3" cy="32.5" rx="3.2" ry="1"/>
		<ellipse transform="matrix(0.9844 0.1759 -0.1759 0.9844 5.6182 -0.8925)" fill="#D3E8A0" cx="7.8" cy="31.2" rx="2.7" ry="0.6"/>
		<path fill="#D3E8A0" d="M20.5,6.4c0.5,0.6-1,2.5-3.3,4.2c-2.3,1.7-4.5,2.6-4.9,1.9c-0.5-0.6,1-2.5,3.3-4.2
			C17.9,6.6,20.1,5.8,20.5,6.4z"/>
		<ellipse transform="matrix(0.9581 -0.2866 0.2866 0.9581 0.5183 8.2891)" fill="#D3E8A0" cx="28.6" cy="2.4" rx="2.7" ry="0.5"/>
		<path fill="#D3E8A0" d="M30.1,46.9l-6.4-10.7c0,0-0.3-1.9,0.6-1.4S30.1,46.9,30.1,46.9z"/>
		<path fill="#D3E8A0" d="M29.3,46.9l-17-13.1c0,0,2.8-0.3,4.2,1.4S29.3,46.9,29.3,46.9z"/>
		<path fill="#D3E8A0" d="M5.2,34.7c0,0,1.9-1.5,3.2-0.5s20.1,12.3,20.1,12.3s-14.2-8-17.7-9.3S5.2,34.7,5.2,34.7z"/>
		<path fill="#D3E8A0" d="M30.5,53.2c0,0,0.1,8.6-0.4,8.5s-1.1-0.5-1.1-0.5L30.5,53.2z"/>
	</g>
</g>
</svg>
