<?xml version="1.0" encoding="utf-8"?>
<!-- Generator: Adobe Illustrator 16.0.0, SVG Export Plug-In . SVG Version: 6.00 Build 0)  -->
<!DOCTYPE svg PUBLIC "-//W3C//DTD SVG 1.1//EN" "http://www.w3.org/Graphics/SVG/1.1/DTD/svg11.dtd">
<svg version="1.1" id="Layer_1" xmlns="http://www.w3.org/2000/svg" xmlns:xlink="http://www.w3.org/1999/xlink" x="0px" y="0px"
	 width="64px" height="64px" viewBox="0 0 64 64" enable-background="new 0 0 64 64" xml:space="preserve">
<g>
	<path fill="#0463AA" d="M54,20.9C54,25.4,46.2,46,40.7,46H23.3C17.8,46,10,25.4,10,20.9v-6.2C10,10.3,14.8,7,20.3,3H44
		c5.5,4,10,7.3,10,11.7V20.9z"/>
	<path fill="#0D7DC9" d="M41,46H23.3C17.8,46,10,25.4,10,20.9v-6.2C10,10.3,14.8,7,20.3,3H44"/>
	<path fill="#0463AA" d="M63.3,61c-1.9-10-15.2-8-31.3-8c-16.1,0-29.4-2-31.3,8H63.3z"/>
	<path fill="#2DA5E8" d="M23.3,46C17.3,46,10,25.4,10,20.9v-6.2C10,10.3,14.8,7,20.3,3"/>
	<path fill="#32CEB3" d="M41.1,50c0,1.2,0,2-1.2,2H24.1c-1.2,0-1.2-0.8-1.2-2l0,0c0-1.2,1-2,2.2-2h13.8C40.1,48,41.1,48.8,41.1,50
		L41.1,50z"/>
	<path fill="#25ADB7" d="M41.1,50L41.1,50c0,1.2,0,2-1.2,2H24.1c-1.2,0-1.2-0.8-1.2-2l0,0"/>
	<path fill="#0463AA" d="M20.8,19.4c0-3,5-10.6,11.2-10.6c6.2,0,11.2,7.7,11.2,10.6c0,3-5,2.9-11.2,2.9
		C25.8,22.4,20.8,22.4,20.8,19.4z"/>
	<g>
		<g>
			<path fill="#0463AA" d="M21,56.6c0,1-1,1.4-2.4,1.4h-2.1c-1.4,0-7.9-0.8-7.9-1.8l5.1-6.8c0-1,1.4-1.4,2.8-1.4h2.1
				c1.4,0,2.4,0.5,2.4,1.5V56.6z"/>
			<path fill="#074589" d="M13.6,49.4c0-1,1.4-1.4,2.8-1.4h2.1c1.4,0,2.4,0.5,2.4,1.5v7.1c0,1-1,1.4-2.4,1.4H16"/>
		</g>
		<g>
			<path fill="#0463AA" d="M43,56.6c0,1,0.8,1.4,2.2,1.4h2.1c1.4,0,7.6-0.6,7.6-1.6l-5-6.9c0-1-1.2-1.5-2.6-1.5h-2.1
				c-1.4,0-2.2,0.5-2.2,1.5V56.6z"/>
			<path fill="#074589" d="M49.9,49.5c0-1-1.2-1.5-2.6-1.5h-2.1c-1.4,0-2.2,0.5-2.2,1.5v7.1c0,1,0.8,1.4,2.2,1.4H47"/>
		</g>
	</g>
	<g>
		<path fill="#5BF4D0" d="M28.3,25.5c0,0.3,0.2,0.5,0.5,0.5h6.4c0.3,0,0.5-0.2,0.5-0.5l0,0c0-0.3-0.2-0.5-0.5-0.5h-6.4
			C28.5,25,28.3,25.2,28.3,25.5L28.3,25.5z"/>
	</g>
	<g>
		<circle fill="#32CEB3" cx="37.9" cy="9" r="0.8"/>
		<circle fill="#32CEB3" cx="34" cy="9" r="0.8"/>
		<circle fill="#32CEB3" cx="30" cy="9" r="0.8"/>
		<circle fill="#32CEB3" cx="26.1" cy="9" r="0.8"/>
	</g>
	<g>
		<path fill="#5BF4D0" d="M20.8,17.2c0-3,5-5.4,11.2-5.4c6.2,0,11.2,2.4,11.2,5.4c0,3-5,2.9-11.2,2.9C25.8,20.1,20.8,20.1,20.8,17.2
			z"/>
		<g>
			<path fill="#32CEB3" d="M20.8,17.2c0-3,5-5.4,11.2-5.4c6.2,0,11.2,2.4,11.2,5.4"/>
		</g>
		<g>
			<circle fill="#1F9093" cx="32" cy="16" r="3.2"/>
			<path fill="#16757C" d="M32,12.7c1.8,0,3.2,1.5,3.2,3.2s-1.5,3.2-3.2,3.2"/>
			<circle fill="#FCE0E0" cx="30.8" cy="14.7" r="1.3"/>
			<circle fill="#FCE0E0" cx="33.9" cy="17" r="0.4"/>
		</g>
	</g>
	<path fill="#074589" d="M22,41.7v3.8c0,0.3,0.8,0.4,1.3,0.4h17.3c0.5,0,1.3-0.1,1.3-0.4v-3.8l-9.9-5.9L22,41.7z"/>
	<path fill="#0463AA" d="M32.1,35.8L22,41.7v3.8c0,0.3,0.8,0.4,1.3,0.4h17.3c0.5,0,1,0,1.3-0.3"/>
	<path fill="#074589" d="M2.6,57c-0.9,1-1.5,3-1.9,4h62.6c-0.3-1-1-3-1.9-4H2.6z"/>
	<polyline fill="#2DA5E8" points="32.1,35.8 22,41.7 22,45.6 	"/>
</g>
</svg>
