<?xml version="1.0" encoding="utf-8"?>
<!-- Generator: Adobe Illustrator 16.0.0, SVG Export Plug-In . SVG Version: 6.00 Build 0)  -->
<!DOCTYPE svg PUBLIC "-//W3C//DTD SVG 1.1//EN" "http://www.w3.org/Graphics/SVG/1.1/DTD/svg11.dtd">
<svg version="1.1" id="Layer_1" xmlns="http://www.w3.org/2000/svg" xmlns:xlink="http://www.w3.org/1999/xlink" x="0px" y="0px"
	 width="64px" height="64px" viewBox="0 0 64 64" enable-background="new 0 0 64 64" xml:space="preserve">
<g>
	<g>
		<g>
			<g>
				<g>
					<circle fill="#FF9100" cx="32" cy="32.6" r="27.1"/>
					<path fill="#F27E0A" d="M12.8,13.4c10.6-10.6,27.7-10.6,38.3,0c10.6,10.6,10.6,27.7,0,38.3"/>
				</g>
			</g>
		</g>
	</g>
	<circle fill="#DAF7F3" cx="32.1" cy="49.1" r="13.7"/>
	<path fill="#BDE5E1" d="M32.1,35.4c7.5,0,13.7,6.1,13.7,13.7c0,7.5-6.1,13.7-13.7,13.7"/>
	<path fill="#DAF7F3" d="M39,38.1c0,2.8-2.1,4.9-4.9,4.9h-4c-2.8,0-5.1-2-5.1-4.9V6.4C25,3.5,27.4,1,30.1,1h4C36.9,1,39,3.5,39,6.4
		V38.1z"/>
	<path fill="#BDE5E1" d="M30,1h4.1C36.9,1,39,3.5,39,6.4v31.8c0,2.8-2.1,4.9-4.9,4.9H30"/>
	<path fill="#A9D3CE" d="M34.1,1C36.9,1,39,3.5,39,6.4V38"/>
	<circle fill="#D60909" cx="32.1" cy="49.1" r="8.4"/>
	<path fill="#B70B0B" d="M32.1,40.7c4.6,0,8.4,3.8,8.4,8.4c0,4.6-3.8,8.4-8.4,8.4"/>
	<path fill="#D60909" d="M35,44.1c0,1.6-1.3,2.9-2.9,2.9h-0.2c-1.6,0-2.9-1.3-2.9-2.9V17.9c0-1.6,1.3-2.9,2.9-2.9h0.2
		c1.6,0,2.9,1.3,2.9,2.9V44.1z"/>
	<path fill="#B70B0B" d="M29.2,18c0-1.6,1.3-2.9,2.9-2.9l0,0c1.6,0,2.9,1.3,2.9,2.9v26.2c0,1.6-1.3,2.9-2.9,2.9l0,0"/>
	<g>
		<path fill="#7FA09C" d="M31.8,5.5c0,0.3-0.2,0.5-0.5,0.5h-3c-0.3,0-0.5-0.2-0.5-0.5l0,0C27.8,5.2,28,5,28.3,5h3
			C31.6,5,31.8,5.2,31.8,5.5L31.8,5.5z"/>
		<circle fill="#7FA09C" cx="28.3" cy="9.1" r="0.5"/>
	</g>
	<g>
		<path fill="#7FA09C" d="M31.8,12.5c0,0.3-0.2,0.5-0.5,0.5h-3c-0.3,0-0.5-0.2-0.5-0.5l0,0c0-0.3,0.2-0.5,0.5-0.5h3
			C31.6,12,31.8,12.2,31.8,12.5L31.8,12.5z"/>
		<circle fill="#7FA09C" cx="28.3" cy="16" r="0.5"/>
	</g>
	<g>
		<path fill="#BDE5E1" d="M31.8,19.5c0,0.3-0.2,0.5-0.5,0.5h-3c-0.3,0-0.5-0.2-0.5-0.5l0,0c0-0.3,0.2-0.5,0.5-0.5h3
			C31.6,19,31.8,19.2,31.8,19.5L31.8,19.5z"/>
		<circle fill="#BDE5E1" cx="28.3" cy="22.8" r="0.5"/>
	</g>
	<g>
		<path fill="#BDE5E1" d="M31.8,26.5c0,0.3-0.2,0.5-0.5,0.5h-3c-0.3,0-0.5-0.2-0.5-0.5l0,0c0-0.3,0.2-0.5,0.5-0.5h3
			C31.6,26,31.8,26.2,31.8,26.5L31.8,26.5z"/>
		<circle fill="#BDE5E1" cx="28.3" cy="29.6" r="0.5"/>
	</g>
	<g>
		<path fill="#BDE5E1" d="M31.8,33.5c0,0.3-0.2,0.5-0.5,0.5h-3c-0.3,0-0.5-0.2-0.5-0.5l0,0c0-0.3,0.2-0.5,0.5-0.5h3
			C31.6,33,31.8,33.2,31.8,33.5L31.8,33.5z"/>
		<circle fill="#BDE5E1" cx="28.3" cy="36.5" r="0.5"/>
	</g>
	<ellipse transform="matrix(0.7878 -0.616 0.616 0.7878 -21.3154 26.7598)" fill="#EA2424" cx="28.2" cy="44.3" rx="3.4" ry="1.1"/>
</g>
</svg>
