<?xml version="1.0" encoding="utf-8"?>
<!-- Generator: Adobe Illustrator 16.0.0, SVG Export Plug-In . SVG Version: 6.00 Build 0)  -->
<!DOCTYPE svg PUBLIC "-//W3C//DTD SVG 1.1//EN" "http://www.w3.org/Graphics/SVG/1.1/DTD/svg11.dtd">
<svg version="1.1" id="Layer_1" xmlns="http://www.w3.org/2000/svg" xmlns:xlink="http://www.w3.org/1999/xlink" x="0px" y="0px"
	 width="64px" height="64px" viewBox="0 0 64 64" enable-background="new 0 0 64 64" xml:space="preserve">
<g>
	<g>
		<path fill="#F7910B" d="M35.2,10.1c0,0-4.3-4.2-1.1-7.2c3.2-3,5,1.9,5,1.9S38.9,1,42.5,0.7c3.6-0.3,2.5,3.8,2.5,3.8S48.1,1,51.2,3
			c3.1,2-0.3,8.4-2.6,8.9C46.4,12.4,35.2,10.1,35.2,10.1z"/>
		<path fill="#F4B20C" d="M34.1,3.5C33.3,4.2,33,5,32.9,5.7c0.2,2.3,2.3,4.3,2.3,4.3s11.1,2.4,13.4,1.8c1.5-0.3,3.6-3.4,3.8-6
			c0-1-0.4-1.8-1.2-2.4c-3.1-2-6.2,1.4-6.2,1.4s0.1-0.3,0.1-0.7c-0.1,0.1-0.1,0.1-0.1,0.1s0.1-0.5,0.2-1.1C45,2.3,44.5,1,42.5,1.2
			c-3.6,0.3-3.4,4.2-3.4,4.2S37.3,0.5,34.1,3.5z"/>
		<path fill="#C9720A" d="M31,62.3c0,0.3,0.6,0.6,1,0.6l0,0c0.4,0,1-0.3,1-0.6v-9c0-0.3-0.3-0.9-1-0.9l0,0c-0.7,0-1,0.5-1,0.9V62.3z
			"/>
		<g>
			
				<ellipse transform="matrix(0.9959 -9.053575e-02 9.053575e-02 0.9959 -2.8258 1.0993)" fill="#BBBC9C" cx="10.7" cy="31.7" rx="3.4" ry="6.2"/>
			
				<ellipse transform="matrix(0.8881 0.4596 -0.4596 0.8881 16.0704 -2.6269)" fill="#BBBC9C" cx="13.4" cy="31.7" rx="3.4" ry="6.2"/>
			
				<ellipse transform="matrix(-0.8882 0.4594 -0.4594 -0.8882 31.9759 60.2491)" fill="#BBBC9C" cx="8.7" cy="34" rx="3.4" ry="6.2"/>
		</g>
		<path fill="#DADDB8" d="M11.3,47.4c5.6,7.7,21.8,9.7,33.8,1c12-8.7,10.6-17.3,10.4-26.7C54.9,2.6,18.7,0.8,25.1,33
			C29.1,53.2,5.8,39.7,11.3,47.4z"/>
		<g>
			<path fill="#F7910B" d="M47.2,17.9c-1.1-0.7-2.3-0.8-2.6-0.2l4,2.4C49,19.5,48.4,18.6,47.2,17.9z"/>
			<path fill="#EEEFCE" d="M45.5,26.4c3.1,0,5.6,0.7,5.6,1.6c0,0.9-2.5,0.5-5.6,0.5c-3.1,0-5.6,0.4-5.6-0.5
				C39.9,27.1,42.4,26.4,45.5,26.4z"/>
			<path fill="#BBBC9C" d="M44.2,25.2c0,1.3,1,2.3,2.3,2.3c1.3,0,2.3-1,2.3-2.3c0-1.3-1-2.3-2.3-2.3C45.3,22.9,44.2,24,44.2,25.2z"
				/>
			<path fill="#1E4784" d="M44.2,24.6c0,1.3,1,2.3,2.3,2.3c1.3,0,2.3-1,2.3-2.3c0-1.3-1-2.3-2.3-2.3C45.3,22.3,44.2,23.3,44.2,24.6z
				"/>
			<path fill="#00233F" d="M46.5,22.3c-1.3,0-2.3,1-2.3,2.3c0,1.3,1,2.3,2.3,2.3"/>
		</g>
		
			<rect x="52.6" y="24.8" transform="matrix(-0.7071 -0.7071 0.7071 -0.7071 75.1129 86.4175)" fill="#F4B20C" width="5.7" height="5.7"/>
		<polygon fill="#F7910B" points="51.4,27.7 55.5,31.7 59.5,27.7 54.3,29.5 		"/>
		<path fill="#EEEFCE" d="M33.7,11.4c0,1.2,2.6,0.6,6,0.6c3.4,0,6.3,0.6,6.3-0.6s-2.7-2.2-6.1-2.2C36.5,9.3,33.7,10.2,33.7,11.4z"/>
		<g>
			<path fill="#C9720A" d="M35,63c0.4,0,0.7-0.1,0.7-0.5l0,0c0-0.4-0.3-0.5-0.7-0.5H23.5c-0.4,0-0.7,0.1-0.7,0.5l0,0
				c0,0.4,0.3,0.5,0.7,0.5H35z"/>
		</g>
		
			<ellipse transform="matrix(0.6622 0.7494 -0.7494 0.6622 47.9084 -19.7474)" fill="#BBBC9C" cx="45.9" cy="43.3" rx="3.5" ry="9.6"/>
		<ellipse fill="#BBBC9C" cx="27.1" cy="42" rx="20.4" ry="12.1"/>
		<path fill="#DADDB8" d="M27.1,29.9c-9,0-16.6,3.5-19.3,8.2c2.7,4.8,10.8,12.7,19.8,12.7c9,0,17.3-5.3,20-10.1
			C44.9,36,36,29.9,27.1,29.9z"/>
		<path fill="#C9720A" d="M25,62.3c0,0.3,0.6,0.6,1,0.6l0,0c0.4,0,1-0.3,1-0.6v-9c0-0.3-0.3-0.9-1-0.9l0,0c-0.7,0-1,0.5-1,0.9V62.3z
			"/>
	</g>
	<path fill="#EEEFCE" d="M36.2,34c0,1.1-4.4,1.9-9.8,1.9c-5.4,0-9.8-0.9-9.8-1.9c0-1.1,4.4-2.9,9.8-2.9C31.7,31.1,36.2,32.9,36.2,34
		z"/>
</g>
</svg>
