<?xml version="1.0" encoding="utf-8"?>
<!-- Generator: Adobe Illustrator 16.0.0, SVG Export Plug-In . SVG Version: 6.00 Build 0)  -->
<!DOCTYPE svg PUBLIC "-//W3C//DTD SVG 1.1//EN" "http://www.w3.org/Graphics/SVG/1.1/DTD/svg11.dtd">
<svg version="1.1" id="Layer_1" xmlns="http://www.w3.org/2000/svg" xmlns:xlink="http://www.w3.org/1999/xlink" x="0px" y="0px"
	 width="64px" height="64px" viewBox="0 0 64 64" enable-background="new 0 0 64 64" xml:space="preserve">
<g>
	<g>
		<g>
			<g>
				<g>
					<path fill="#F7910B" d="M62.3,37.5C62.3,50.5,50.4,61,32,61C13.6,61,1.7,50.5,1.7,37.5S13.6,5,32,5C50.4,5,62.3,24.5,62.3,37.5
						z"/>
				</g>
				<g>
					<path fill="#F7910B" d="M62.3,37.5C62.3,50.5,50.4,57,32,57C13.6,57,1.7,50.5,1.7,37.5S13.6,3,32,3C50.4,3,62.3,24.5,62.3,37.5
						z"/>
				</g>
				<g>
					<path fill="#F9A908" d="M32,3c18.4,0,30.3,21.5,30.3,34.5S50.4,57,32,57"/>
				</g>
				<g>
					<path fill="#F9A908" d="M62.3,37.5C62.3,50.5,50.4,57,32,57C13.6,57,1.7,50.5,1.7,37.5S13.6,5,32,5C50.4,5,62.3,24.5,62.3,37.5
						z"/>
				</g>
				<g>
					<path fill="#F9C55D" d="M1.7,37.5C1.7,24.5,13.6,5,32,5"/>
				</g>
				<g>
					<path fill="#F7910B" d="M32,5c18.4,0,30.3,19.5,30.3,32.5S50.4,61,32,61"/>
				</g>
				<g>
					<g>
						<circle fill="#EA7103" cx="21.6" cy="26.3" r="3.2"/>
					</g>
					<g>
						<circle fill="#EA7103" cx="42.4" cy="26.3" r="3.2"/>
					</g>
					<g>
						<circle fill="#1E4784" cx="21.6" cy="25.4" r="3.2"/>
					</g>
					<g>
						<path fill="#00233F" d="M21.6,22.2c1.8,0,3.2,1.4,3.2,3.2s-1.4,3.2-3.2,3.2"/>
					</g>
					<g>
						<circle fill="#1E4784" cx="42.4" cy="25.4" r="3.2"/>
					</g>
					<g>
						<path fill="#00233F" d="M42.4,22.2c1.8,0,3.2,1.4,3.2,3.2s-1.4,3.2-3.2,3.2"/>
					</g>
				</g>
				<g>
					<path fill="#EA7103" d="M32,5c18.4,0,30.3,19.5,30.3,32.5"/>
				</g>
				<g>
					<g>
						<g>
							<g>
								<g>
									<g>
										<path fill="#19BCA4" d="M25.9,14.9c0.3,0.8-1.2,0.9-2.9,1.6c-1.7,0.6-2.9,1.6-3.2,0.8c-0.3-0.8,0.8-2,2.5-2.6
											C23.9,14,25.5,14.1,25.9,14.9z"/>
									</g>
								</g>
							</g>
						</g>
						<g>
							<g>
								<g>
									<g>
										<path fill="#109DA0" d="M25.9,14.9c0.3,0.8-1.2,0.9-2.9,1.6c-1.7,0.6-2.9,1.6-3.2,0.8"/>
									</g>
								</g>
							</g>
						</g>
					</g>
					<g>
						<g>
							<g>
								<g>
									<g>
										<path fill="#19BCA4" d="M38.1,14.9c-0.3,0.8,1.2,0.9,2.9,1.6c1.7,0.6,2.9,1.6,3.2,0.8c0.3-0.8-0.8-2-2.5-2.6
											C40.1,14,38.5,14.1,38.1,14.9z"/>
									</g>
								</g>
							</g>
						</g>
						<g>
							<g>
								<g>
									<g>
										<path fill="#109DA0" d="M38.1,14.9c-0.3,0.8,1.2,0.9,2.9,1.6c1.7,0.6,2.9,1.6,3.2,0.8"/>
									</g>
								</g>
							</g>
						</g>
					</g>
				</g>
				<g>
					<g>
						<path fill="#F9C55D" d="M27.8,30.8c0,1.2-3.5,0.7-7.8,0.7c-4.3,0-7.8,0.6-7.8-0.7c0-1.2,3.5-2.2,7.8-2.2
							C24.3,28.6,27.8,29.6,27.8,30.8z"/>
					</g>
					<g>
						<path fill="#F9A908" d="M51.8,30.8c0,1.2-3.5,0.7-7.8,0.7s-7.8,0.6-7.8-0.7c0-1.2,3.5-2.2,7.8-2.2S51.8,29.6,51.8,30.8z"/>
					</g>
				</g>
				<g>
					<circle fill="#F7910B" cx="10.3" cy="34.5" r="0.6"/>
				</g>
				<g>
					<circle fill="#F7910B" cx="5.8" cy="36.5" r="1.1"/>
				</g>
				<g>
					<circle fill="#F7910B" cx="8.8" cy="32.5" r="0.2"/>
				</g>
				<g>
					<circle fill="#F7910B" cx="13.4" cy="34.3" r="0.2"/>
				</g>
				<g>
					<circle fill="#F9A908" cx="52.6" cy="34.8" r="0.8"/>
				</g>
				<g>
					<circle fill="#F9A908" cx="55.1" cy="36.2" r="0.2"/>
				</g>
				<g>
					<circle fill="#F9A908" cx="49.8" cy="27.4" r="0.3"/>
				</g>
				<g>
					<circle fill="#F9A908" cx="49.3" cy="39" r="1.3"/>
				</g>
				<g>
					<circle fill="#F9A908" cx="56.5" cy="39.1" r="0.6"/>
				</g>
				<g>
					<circle fill="#F7910B" cx="9.3" cy="38.5" r="0.5"/>
				</g>
				<g>
					<circle fill="#F7910B" cx="10.1" cy="30.1" r="0.4"/>
				</g>
				<g>
					<circle fill="#F9A908" cx="4.8" cy="16.3" r="1.1"/>
				</g>
				<g>
					<circle fill="#F9A908" cx="8" cy="12.8" r="0.6"/>
				</g>
				<g>
					<circle fill="#F9A908" cx="59.2" cy="18.7" r="0.2"/>
				</g>
				<g>
					<circle fill="#F9A908" cx="58.4" cy="15.8" r="0.8"/>
				</g>
				<g>
					<circle fill="#F9A908" cx="61" cy="16.3" r="0.5"/>
				</g>
				<g>
					<circle fill="#F9A908" cx="6" cy="19.3" r="0.6"/>
				</g>
				<g>
					<path fill="#F7910B" d="M39.2,45.1c0,2.6-3.3,9.9-7.4,9.9s-7.4-7.3-7.4-9.9"/>
				</g>
			</g>
		</g>
	</g>
	<g>
		<g>
			<g>
				<g>
					<path fill="#CCF2E3" d="M41.2,29.3c1.8-1.6,6.4,0.8,10.4,5.3c4,4.5,4.1,9.4,2.3,11c-1.8,1.6-4.7-0.8-8.7-5.3
						C41.2,35.8,39.4,30.9,41.2,29.3z"/>
				</g>
				<g>
					<path fill="#CCF2E3" d="M34.9,46c7,1.5,5.5-0.5,5.8-2.5c0.3-2,2.4-3.2-4.6-4.7c-7-1.5-10-0.4-10.4,1.6
						C25.4,42.3,27.9,44.5,34.9,46z"/>
				</g>
				<g>
					<path fill="#AAD6C3" d="M25.7,40.3c-0.3,2,2.2,4.2,9.2,5.6c7,1.5,5.5-0.5,5.8-2.5"/>
				</g>
				<g>
					<path fill="#CCF2E3" d="M37.7,39c7,1.5,5.5-0.5,5.8-2.5c0.3-2,3.4-3.1-3.6-4.6c-7-1.5-11-0.5-11.4,1.5
						C28.2,35.4,30.7,37.6,37.7,39z"/>
				</g>
				<g>
					<path fill="#AAD6C3" d="M28.6,33.4c-0.3,2,2.2,4.2,9.2,5.6c7,1.5,5.5-0.5,5.8-2.5"/>
				</g>
				<g>
					<path fill="#CCF2E3" d="M36.6,53.7c7,1.5,5.5-0.5,5.8-2.5c0.3-2,2.4-3.2-4.6-4.7c-7-1.5-10.1-0.4-10.4,1.6
						C27.1,50.1,29.6,52.3,36.6,53.7z"/>
				</g>
				<g>
					<path fill="#AAD6C3" d="M27.4,48.1c-0.3,2,2.2,4.2,9.2,5.6c7,1.5,5.5-0.5,5.8-2.5"/>
				</g>
				<g>
					<path fill="#CCF2E3" d="M41.2,54.7c6.5,1.3,12.5-0.9,13.6-7.4c1.1-6.5-3.2-12.9-9.7-14.2c-6.5-1.3-9.7,3.4-10.8,9.9
						C33.1,49.6,34.7,53.4,41.2,54.7z"/>
				</g>
				<g>
					<path fill="#AAD6C3" d="M41.2,54.7c6.5,1.3,12.5-0.9,13.6-7.4c1.1-6.5-4.3-9.7-10.8-11c-6.5-1.3-7.4-3.6-9.7,6.4
						C32.8,49.1,34.5,53.3,41.2,54.7z"/>
				</g>
			</g>
			<g>
				<path fill="#E7F7EF" d="M28.3,38.8c1-0.2,1.8-0.2,1.9,0.1c0.1,0.3-0.6,0.7-1.6,1c-1,0.2-1.8,0.2-1.9-0.1
					C26.6,39.4,27.3,39,28.3,38.8z"/>
			</g>
			<g>
				<path fill="#E7F7EF" d="M31.6,31.8c1-0.2,1.8-0.2,1.9,0.1c0.1,0.3-0.6,0.7-1.6,1c-1,0.2-1.8,0.2-1.9-0.1
					C29.9,32.5,30.6,32,31.6,31.8z"/>
			</g>
			<g>
				<path fill="#E7F7EF" d="M30.1,46.8c1-0.2,1.8-0.2,1.9,0.1c0.1,0.3-0.6,0.7-1.6,1c-1,0.2-1.8,0.2-1.9-0.1
					C28.4,47.4,29.1,47,30.1,46.8z"/>
			</g>
			<g>
				<path fill="#E7F7EF" d="M43,35.1c2.1,0.5,3.9,0.5,4,0c0.1-0.5-1.6-1.2-3.7-1.7c-2.1-0.5-2.7-0.2-2.8,0.3
					C40.4,34.2,40.9,34.7,43,35.1z"/>
			</g>
			<g>
				<path fill="#E7F7EF" d="M44.2,32c2,0.9,3.8,1.2,3.9,0.8c0.2-0.4-1.3-1.5-3.3-2.4c-2-0.9-2.6-0.7-2.8-0.3
					C41.9,30.5,42.2,31.1,44.2,32z"/>
			</g>
		</g>
		<g>
			<g>
				<g>
					<path fill="#CCF2E3" d="M22.8,29.3c-1.8-1.6-6.4,0.8-10.4,5.3c-4,4.5-4.1,9.4-2.3,11c1.8,1.6,4.7-0.8,8.7-5.3
						C22.8,35.8,24.6,30.9,22.8,29.3z"/>
				</g>
				<g>
					<path fill="#CCF2E3" d="M29.1,46c-7,1.5-5.5-0.5-5.8-2.5c-0.3-2-2.4-3.2,4.6-4.7c7-1.5,10-0.4,10.4,1.6
						C38.6,42.3,36.1,44.5,29.1,46z"/>
				</g>
				<g>
					<path fill="#AAD6C3" d="M38.3,40.3c0.3,2-2.2,4.2-9.2,5.6c-7,1.5-5.5-0.5-5.8-2.5"/>
				</g>
				<g>
					<path fill="#CCF2E3" d="M26.3,39c-7,1.5-5.5-0.5-5.8-2.5c-0.3-2-3.4-3.1,3.6-4.6c7-1.5,11-0.5,11.4,1.5
						C35.8,35.4,33.3,37.6,26.3,39z"/>
				</g>
				<g>
					<path fill="#AAD6C3" d="M35.4,33.4c0.3,2-2.2,4.2-9.2,5.6c-7,1.5-5.5-0.5-5.8-2.5"/>
				</g>
				<g>
					<path fill="#CCF2E3" d="M27.4,53.7c-7,1.5-5.5-0.5-5.8-2.5c-0.3-2-2.4-3.2,4.6-4.7c7-1.5,10.1-0.4,10.4,1.6
						C36.9,50.1,34.4,52.3,27.4,53.7z"/>
				</g>
				<g>
					<path fill="#AAD6C3" d="M36.6,48.1c0.3,2-2.2,4.2-9.2,5.6c-7,1.5-5.5-0.5-5.8-2.5"/>
				</g>
				<g>
					<path fill="#CCF2E3" d="M22.8,54.7c-6.5,1.3-12.5-0.9-13.6-7.4c-1.1-6.5,3.2-12.9,9.7-14.2c6.5-1.3,9.7,3.4,10.8,9.9
						C30.9,49.6,29.3,53.4,22.8,54.7z"/>
				</g>
				<g>
					<path fill="#AAD6C3" d="M22.8,54.7c-6.5,1.3-12.5-0.9-13.6-7.4c-1.1-6.5,4.3-9.7,10.8-11c6.5-1.3,7.4-3.6,9.7,6.4
						C31.2,49.1,29.5,53.3,22.8,54.7z"/>
				</g>
			</g>
			<g>
				<path fill="#E7F7EF" d="M35.7,38.8c-1-0.2-1.8-0.2-1.9,0.1c-0.1,0.3,0.6,0.7,1.6,1c1,0.2,1.8,0.2,1.9-0.1
					C37.4,39.4,36.7,39,35.7,38.8z"/>
			</g>
			<g>
				<path fill="#E7F7EF" d="M32.4,31.8c-1-0.2-1.8-0.2-1.9,0.1c-0.1,0.3,0.6,0.7,1.6,1c1,0.2,1.8,0.2,1.9-0.1
					C34.1,32.5,33.4,32,32.4,31.8z"/>
			</g>
			<g>
				<path fill="#E7F7EF" d="M33.9,46.8c-1-0.2-1.8-0.2-1.9,0.1c-0.1,0.3,0.6,0.7,1.6,1c1,0.2,1.8,0.2,1.9-0.1
					C35.6,47.4,34.9,47,33.9,46.8z"/>
			</g>
			<g>
				<path fill="#E7F7EF" d="M21,35.1c-2.1,0.5-3.9,0.5-4,0c-0.1-0.5,1.6-1.2,3.7-1.7c2.1-0.5,2.7-0.2,2.8,0.3
					C23.6,34.2,23.1,34.7,21,35.1z"/>
			</g>
			<g>
				<path fill="#E7F7EF" d="M19.8,32c-2,0.9-3.8,1.2-3.9,0.8c-0.2-0.4,1.3-1.5,3.3-2.4c2-0.9,2.6-0.7,2.8-0.3
					C22.1,30.5,21.8,31.1,19.8,32z"/>
			</g>
		</g>
	</g>
</g>
</svg>
