<?xml version="1.0" encoding="utf-8"?>
<!-- Generator: Adobe Illustrator 16.0.0, SVG Export Plug-In . SVG Version: 6.00 Build 0)  -->
<!DOCTYPE svg PUBLIC "-//W3C//DTD SVG 1.1//EN" "http://www.w3.org/Graphics/SVG/1.1/DTD/svg11.dtd">
<svg version="1.1" xmlns="http://www.w3.org/2000/svg" xmlns:xlink="http://www.w3.org/1999/xlink" x="0px" y="0px" width="65px"
	 height="65px" viewBox="0 0 65 65" enable-background="new 0 0 65 65" xml:space="preserve">
<g id="Layer_1">
	<g>
		<path fill="#445066" d="M44.836,20.652c0.621,0.621,0.621,1.629,0,2.25l0,0c-0.621,0.621-1.628,0.621-2.248,0l-0.489-0.488
			c-0.621-0.623-0.621-1.629,0-2.25l0,0c0.62-0.621,1.628-0.621,2.248,0L44.836,20.652z"/>
		<path fill="#995B31" d="M62.95,47.566c1.922,1.92,2.079,4.879,0.35,6.607l-9.126,9.127c-1.728,1.729-4.687,1.57-6.606-0.35
			L2.051,17.434c-1.924-1.922-2.079-4.881-0.353-6.607l9.126-9.127c1.729-1.729,4.687-1.57,6.609,0.352L62.95,47.566z"/>
		<path fill="#894F28" d="M1.699,10.826l9.126-9.127c1.729-1.729,4.687-1.57,6.609,0.352L62.95,47.566
			c1.922,1.92,2.079,4.879,0.35,6.607l-9.126,9.127"/>
		<g>
			<path fill="#593217" d="M14.672,9.395l-3.068-0.002V6.328c0-0.611-0.495-1.107-1.105-1.105c-0.611,0-1.105,0.494-1.105,1.105
				v3.064L6.327,9.395c-0.611,0-1.107,0.494-1.105,1.105c-0.002,0.609,0.494,1.105,1.105,1.105h3.066l0.001,3.066
				c0,0.611,0.493,1.105,1.104,1.105c0.307,0,0.584-0.123,0.783-0.322c0.2-0.201,0.324-0.479,0.322-0.783v-3.066h3.069
				c0.305,0,0.581-0.123,0.78-0.324s0.326-0.477,0.324-0.781C15.778,9.889,15.284,9.395,14.672,9.395z"/>
			<path fill="#593217" d="M21.712,16.434h-3.068v-3.066c0-0.609-0.494-1.104-1.106-1.105c-0.611,0-1.105,0.496-1.105,1.105v3.066
				h-3.064c-0.611,0-1.105,0.494-1.105,1.105s0.494,1.105,1.105,1.105h3.064l0.002,3.066c0,0.611,0.495,1.107,1.106,1.107
				c0.305,0,0.581-0.123,0.782-0.324c0.197-0.201,0.324-0.477,0.324-0.783l-0.003-3.066h3.068c0.304,0,0.581-0.123,0.782-0.324
				c0.199-0.199,0.324-0.475,0.324-0.781C22.819,16.928,22.324,16.434,21.712,16.434z"/>
			<path fill="#593217" d="M51.633,46.354h-3.068v-3.064c0-0.611-0.494-1.105-1.106-1.105c-0.609,0-1.106,0.494-1.106,1.105v3.064
				h-3.064c-0.61,0-1.105,0.496-1.105,1.105c0,0.611,0.495,1.107,1.105,1.107h3.064l0.002,3.066c0,0.611,0.495,1.105,1.106,1.105
				c0.305,0,0.583-0.123,0.782-0.324c0.201-0.199,0.324-0.475,0.324-0.781l-0.002-3.066h3.068c0.306,0,0.582-0.123,0.781-0.324
				c0.201-0.199,0.324-0.477,0.324-0.783C52.739,46.85,52.245,46.354,51.633,46.354z"/>
			<path fill="#593217" d="M58.673,53.395h-3.067v-3.066c0-0.609-0.494-1.105-1.105-1.104c-0.613,0-1.106,0.494-1.106,1.105v3.064
				h-3.066c-0.61,0-1.106,0.494-1.104,1.107c-0.002,0.609,0.494,1.105,1.104,1.104h3.066l0.001,3.068
				c0,0.611,0.494,1.105,1.106,1.105c0.306,0,0.581-0.125,0.782-0.324c0.199-0.201,0.323-0.477,0.322-0.781v-3.068h3.068
				c0.305,0.002,0.58-0.123,0.781-0.322c0.2-0.201,0.325-0.477,0.324-0.781C59.78,53.889,59.285,53.395,58.673,53.395z"/>
		</g>
		<circle fill="#79AAAA" cx="32.5" cy="32.501" r="15.627"/>
		<path fill="#8BBABC" d="M21.45,21.451c6.102-6.102,15.998-6.102,22.1,0c6.104,6.102,6.104,15.998,0.001,22.1"/>
		<circle fill="#445066" cx="32.5" cy="32.501" r="12.262"/>
		<path fill="#364254" d="M23.83,23.83c4.788-4.787,12.553-4.787,17.341,0c4.789,4.789,4.789,12.553,0,17.342"/>
		<path fill="#8BBABC" d="M45.229,21.826c1.023,1.025,2.688,1.025,3.715,0l0,0c1.025-1.027,1.025-2.689,0-3.715l-2.054-2.055
			c-1.026-1.025-2.689-1.025-3.716,0l0,0c-1.026,1.027-1.026,2.689,0,3.717L45.229,21.826z"/>
		<path fill="#79AAAA" d="M43.174,16.057L43.174,16.057c-1.026,1.027-1.026,2.689,0,3.717l2.055,2.053
			c1.023,1.025,2.688,1.025,3.715,0l0,0"/>
		<g>
			<g>
				<path fill="#6B7D96" d="M27.041,26.779c0.071,0.072,0.071,0.189,0,0.262l0,0c-0.071,0.072-0.19,0.072-0.262,0l-1.759-1.76
					c-0.073-0.072-0.073-0.189,0-0.262l0,0c0.071-0.07,0.188-0.072,0.262,0L27.041,26.779z"/>
				<path fill="#6B7D96" d="M39.981,39.721c0.07,0.07,0.07,0.189,0,0.26l0,0c-0.074,0.072-0.19,0.072-0.262,0.002l-1.759-1.76
					c-0.073-0.074-0.073-0.189,0-0.262l0,0c0.071-0.072,0.188-0.072,0.262,0L39.981,39.721z"/>
			</g>
			<g>
				<path fill="#6B7D96" d="M32.684,24.596c0,0.102-0.082,0.186-0.186,0.186l0,0c-0.1,0-0.184-0.086-0.184-0.186v-2.488
					c0-0.102,0.083-0.184,0.186-0.186l0,0c0.1,0.002,0.184,0.084,0.184,0.186V24.596z"/>
				<path fill="#6B7D96" d="M32.684,42.895c0,0.102-0.084,0.186-0.184,0.184l0,0c-0.103,0.002-0.186-0.082-0.186-0.184v-2.486
					c0-0.104,0.082-0.186,0.186-0.186l0,0c0.1,0,0.184,0.08,0.184,0.186V42.895z"/>
			</g>
			<g>
				<path fill="#6B7D96" d="M38.219,27.041c-0.071,0.072-0.189,0.072-0.261,0l0,0c-0.071-0.07-0.071-0.189,0-0.262l1.761-1.758
					c0.071-0.072,0.188-0.072,0.262-0.002l0,0c0.07,0.072,0.07,0.191-0.003,0.264L38.219,27.041z"/>
				<path fill="#6B7D96" d="M25.28,39.982c-0.071,0.07-0.188,0.07-0.26-0.002l0,0c-0.073-0.07-0.073-0.188-0.002-0.26l1.761-1.76
					c0.071-0.072,0.188-0.072,0.261,0l0,0c0.072,0.072,0.072,0.188,0,0.262L25.28,39.982z"/>
			</g>
			<g>
				<path fill="#6B7D96" d="M40.407,32.686c-0.104,0-0.188-0.082-0.188-0.186l0,0c0.001-0.1,0.087-0.182,0.185-0.184h2.49
					c0.102,0,0.185,0.084,0.186,0.184l0,0c-0.001,0.104-0.084,0.186-0.187,0.186H40.407z"/>
				<path fill="#6B7D96" d="M22.106,32.684c-0.104,0.002-0.186-0.08-0.184-0.184l0,0c-0.002-0.1,0.082-0.184,0.184-0.186
					l2.486,0.002c0.103,0,0.184,0.082,0.187,0.186l0,0c0,0.1-0.085,0.184-0.186,0.184L22.106,32.684z"/>
			</g>
		</g>
		<g>
			<g>
				<path fill="#6B7D96" d="M24.912,30.277c0.098,0.025,0.157,0.127,0.131,0.225l0,0c-0.027,0.1-0.128,0.158-0.228,0.131
					l-2.402-0.643c-0.1-0.025-0.158-0.129-0.13-0.227l0,0c0.024-0.098,0.126-0.156,0.225-0.131L24.912,30.277z"/>
				<path fill="#6B7D96" d="M42.586,35.012c0.098,0.029,0.157,0.131,0.132,0.227l0,0c-0.026,0.1-0.13,0.16-0.227,0.131l-2.403-0.643
					c-0.1-0.025-0.156-0.129-0.132-0.227l0,0c0.027-0.098,0.128-0.156,0.228-0.131L42.586,35.012z"/>
			</g>
			<g>
				<path fill="#6B7D96" d="M28.707,25.564c0.052,0.088,0.021,0.201-0.067,0.252l0,0c-0.088,0.049-0.2,0.018-0.253-0.068
					l-1.244-2.154c-0.051-0.09-0.02-0.201,0.069-0.254l0,0c0.086-0.051,0.201-0.021,0.253,0.068L28.707,25.564z"/>
				<path fill="#6B7D96" d="M37.857,41.41c0.052,0.09,0.02,0.201-0.069,0.254l0,0c-0.086,0.049-0.201,0.02-0.251-0.068l-1.244-2.156
					c-0.052-0.088-0.021-0.199,0.067-0.25l0,0c0.088-0.051,0.2-0.021,0.252,0.066L37.857,41.41z"/>
			</g>
			<g>
				<path fill="#6B7D96" d="M34.724,24.914c-0.026,0.1-0.128,0.156-0.228,0.131l0,0c-0.097-0.025-0.155-0.129-0.129-0.225
					l0.644-2.406c0.026-0.1,0.128-0.156,0.226-0.131l0,0c0.098,0.027,0.159,0.129,0.131,0.229L34.724,24.914z"/>
				<path fill="#6B7D96" d="M29.987,42.59c-0.025,0.1-0.127,0.156-0.225,0.129l0,0c-0.099-0.025-0.158-0.127-0.132-0.225
					l0.645-2.404c0.024-0.098,0.128-0.156,0.224-0.129l0,0c0.101,0.025,0.159,0.127,0.133,0.227L29.987,42.59z"/>
			</g>
			<g>
				<path fill="#6B7D96" d="M39.438,28.707c-0.088,0.053-0.203,0.023-0.255-0.062l0,0c-0.052-0.09-0.017-0.203,0.069-0.258
					l2.156-1.24c0.089-0.053,0.201-0.021,0.253,0.066l0,0c0.05,0.09,0.02,0.203-0.069,0.254L39.438,28.707z"/>
				<path fill="#6B7D96" d="M23.588,37.859c-0.09,0.053-0.201,0.02-0.252-0.068l0,0c-0.051-0.086-0.018-0.199,0.066-0.252
					l2.155-1.242c0.089-0.053,0.203-0.023,0.255,0.066l0,0c0.051,0.086,0.02,0.203-0.066,0.252L23.588,37.859z"/>
			</g>
		</g>
		<g>
			<g>
				<path fill="#6B7D96" d="M24.817,34.371c0.096-0.027,0.199,0.031,0.226,0.131l0,0c0.026,0.098-0.033,0.197-0.13,0.225
					l-2.405,0.646c-0.099,0.025-0.199-0.035-0.225-0.135l0,0c-0.028-0.094,0.028-0.195,0.13-0.225L24.817,34.371z"/>
				<path fill="#6B7D96" d="M42.492,29.635c0.097-0.025,0.2,0.033,0.227,0.129l0,0c0.025,0.1-0.03,0.201-0.13,0.227l-2.402,0.645
					c-0.1,0.027-0.201-0.033-0.229-0.129l0,0c-0.025-0.1,0.032-0.201,0.13-0.227L42.492,29.635z"/>
			</g>
			<g>
				<path fill="#6B7D96" d="M25.747,28.391c0.09,0.049,0.119,0.164,0.066,0.254l0,0c-0.052,0.086-0.164,0.115-0.252,0.064
					l-2.154-1.244c-0.086-0.051-0.119-0.162-0.068-0.25l0,0c0.051-0.09,0.164-0.121,0.254-0.072L25.747,28.391z"/>
				<path fill="#6B7D96" d="M41.593,37.541c0.09,0.049,0.118,0.164,0.068,0.252l0,0c-0.052,0.088-0.165,0.117-0.253,0.066
					l-2.154-1.244c-0.091-0.051-0.119-0.162-0.066-0.25l0,0c0.051-0.09,0.162-0.119,0.251-0.07L41.593,37.541z"/>
			</g>
			<g>
				<path fill="#6B7D96" d="M30.631,24.818c0.029,0.1-0.031,0.201-0.129,0.227l0,0c-0.1,0.029-0.199-0.035-0.228-0.129l-0.644-2.404
					c-0.028-0.1,0.032-0.201,0.132-0.229l0,0c0.097-0.023,0.198,0.035,0.227,0.133L30.631,24.818z"/>
				<path fill="#6B7D96" d="M35.368,42.496c0.028,0.1-0.033,0.199-0.131,0.223l0,0c-0.096,0.027-0.199-0.029-0.226-0.127
					l-0.642-2.404c-0.03-0.098,0.03-0.201,0.129-0.225l0,0c0.098-0.027,0.199,0.031,0.228,0.129L35.368,42.496z"/>
			</g>
			<g>
				<path fill="#6B7D96" d="M36.612,25.748c-0.049,0.09-0.164,0.121-0.252,0.07l0,0c-0.09-0.051-0.117-0.164-0.068-0.254
					l1.246-2.154c0.051-0.09,0.164-0.119,0.252-0.07l0,0c0.087,0.055,0.117,0.166,0.069,0.256L36.612,25.748z"/>
				<path fill="#6B7D96" d="M27.461,41.598c-0.052,0.09-0.164,0.117-0.25,0.066l0,0c-0.092-0.049-0.119-0.164-0.071-0.252
					l1.246-2.152c0.05-0.09,0.165-0.121,0.253-0.07l0,0c0.088,0.049,0.119,0.166,0.067,0.254L27.461,41.598z"/>
			</g>
		</g>
		<path fill="#EF972E" d="M32.026,31.391c0.176,0.178,0.176,0.461,0.002,0.637l0,0c-0.178,0.176-0.461,0.176-0.638,0l-4.693-4.693
			c-0.175-0.176-0.175-0.459,0-0.637l0,0c0.177-0.174,0.461-0.174,0.636,0L32.026,31.391z"/>
		<path fill="#FC5A00" d="M36.038,28.963c0.324,0.324,0.324,0.852,0,1.176l-2.347,2.346c-0.325,0.324-0.852,0.324-1.175,0l0,0
			c-0.322-0.324-0.322-0.85,0-1.174l2.348-2.348C35.186,28.641,35.713,28.641,36.038,28.963L36.038,28.963z"/>
		<circle fill="#8BBABC" cx="32.5" cy="32.501" r="1.612"/>
	</g>
</g>
<g id="nyt_x5F_exporter_x5F_info" display="none">
</g>
</svg>
