<?xml version="1.0" encoding="utf-8"?>
<!-- Generator: Adobe Illustrator 16.0.0, SVG Export Plug-In . SVG Version: 6.00 Build 0)  -->
<!DOCTYPE svg PUBLIC "-//W3C//DTD SVG 1.1//EN" "http://www.w3.org/Graphics/SVG/1.1/DTD/svg11.dtd">
<svg version="1.1" id="Layer_1" xmlns="http://www.w3.org/2000/svg" xmlns:xlink="http://www.w3.org/1999/xlink" x="0px" y="0px"
	 width="65px" height="65px" viewBox="0 0 65 65" enable-background="new 0 0 65 65" xml:space="preserve">
<g>
	<g>
		<g>
			<g>
				<g>
					<g>
						<g>
							<path fill="#0665C4" d="M36.402,46.446c0,2.476-2.008,15.827-4.486,15.827c-2.475,0-4.482-13.352-4.482-15.827
								s2.008-4.484,4.482-4.484C34.395,41.962,36.402,43.971,36.402,46.446z"/>
							<path fill="#0665C4" d="M51.428,46.446c0,2.476-2.008,15.827-4.486,15.827c-2.475,0-4.482-13.352-4.482-15.827
								s2.008-4.484,4.482-4.484C49.42,41.962,51.428,43.971,51.428,46.446z"/>
						</g>
						<path fill="#BF1770" d="M52.08,40.521c0,16.038-5.662,10.697-12.65,10.697c-6.986,0-12.65,5.341-12.65-10.697
							c0-9.17,5.666-16.603,12.65-16.603C46.416,23.919,52.08,31.352,52.08,40.521z"/>
						<path fill="#BF1770" d="M43.791,27.708c1.432-1.273,4.229-0.465,6.25,1.805c2.018,2.27,10.793,14.475,9.365,15.75
							c-1.434,1.271-12.533-8.873-14.551-11.143C42.838,31.853,42.361,28.981,43.791,27.708z"/>
						<path fill="#990B5C" d="M39.43,44.719c-6.291,0-11.507,4.321-12.484-6.524c-0.107,0.648-0.166,1.414-0.166,2.327
							c0,16.038,5.664,10.697,12.65,10.697c6.988,0,12.65,5.341,12.65-10.697c0-0.913-0.059-1.679-0.166-2.327
							C50.938,49.04,45.723,44.719,39.43,44.719z"/>
						<g>
							<path fill="#0DCEAE" d="M36.963,62.354c0,1.896-2.26,2.146-5.045,2.146s-5.045-0.249-5.045-2.146
								c0-1.897,2.26-4.508,5.045-4.508S36.963,60.457,36.963,62.354z"/>
							<path fill="#08B5B0" d="M36.963,62.354c0,1.896-2.26,2.146-5.045,2.146s-5.045-0.249-5.045-2.146"/>
						</g>
						<g>
							<path fill="#0DCEAE" d="M51.988,62.354c0,1.896-2.26,2.146-5.045,2.146s-5.045-0.249-5.045-2.146
								c0-1.897,2.26-4.508,5.045-4.508S51.988,60.457,51.988,62.354z"/>
							<path fill="#08B5B0" d="M51.988,62.354c0,1.896-2.26,2.146-5.045,2.146s-5.045-0.249-5.045-2.146"/>
						</g>
						<g>
							<path fill="#BF1770" d="M40.759,29.854c-0.113-1.912-2.662-3.318-5.695-3.143c-3.032,0.178-17.867,2.604-17.761,4.515
								c0.115,1.913,15.138,2.588,18.168,2.41C38.501,33.459,40.868,31.766,40.759,29.854z"/>
						</g>
						<circle fill="#A56B44" cx="39.43" cy="27.333" r="3.375"/>
						<g>
							<path fill="#C48960" d="M55.801,16.275c0,7.999-7.33,12.02-16.369,12.02c-9.041,0-16.373-4.021-16.373-12.02
								c0-8.001,7.332-15.775,16.373-15.775C48.471,0.5,55.801,8.274,55.801,16.275z"/>
							<path fill="#BC8158" d="M55.801,16.275c0,7.999-7.33,12.02-16.369,12.02c-9.041,0-16.373-4.021-16.373-12.02"/>
						</g>
						<g>
							<g>
								<circle fill="#113E49" cx="28.422" cy="11.833" r="1.464"/>
								<path d="M29.886,11.833c0,0.811-0.656,1.465-1.466,1.465c-0.808,0-1.462-0.654-1.462-1.465"/>
								<g>
									<path fill="#E5A376" d="M31.31,14.887c-0.078,0-0.157-0.028-0.219-0.091c-0.715-0.714-1.664-1.107-2.673-1.107h-0.001
										c-1.008,0-1.955,0.394-2.667,1.106c-0.12,0.121-0.315,0.124-0.435,0.001c-0.121-0.117-0.125-0.312-0.004-0.434
										c0.83-0.831,1.932-1.29,3.105-1.29h0.001c1.177,0,2.28,0.456,3.112,1.288c0.119,0.119,0.119,0.318,0,0.436
										C31.47,14.858,31.392,14.887,31.31,14.887z"/>
								</g>
							</g>
							<g>
								<circle fill="#113E49" cx="43.992" cy="11.833" r="1.464"/>
								<path d="M42.528,11.833c0,0.811,0.654,1.465,1.465,1.465c0.809,0,1.463-0.654,1.463-1.465"/>
								<g>
									<path fill="#E5A376" d="M41.104,14.887c0.077,0,0.157-0.028,0.217-0.091c0.716-0.714,1.666-1.107,2.673-1.107h0.002
										c1.007,0,1.957,0.394,2.668,1.106c0.119,0.121,0.314,0.124,0.436,0.001c0.12-0.117,0.122-0.312,0.001-0.434
										c-0.825-0.831-1.931-1.29-3.104-1.29h-0.002c-1.173,0-2.278,0.456-3.111,1.288c-0.117,0.119-0.117,0.318,0,0.436
										C40.944,14.858,41.022,14.887,41.104,14.887z"/>
								</g>
							</g>
						</g>
					</g>
				</g>
			</g>
		</g>
	</g>
	<path fill="#604B1D" d="M39.432,0.5c-4.058,0-7.764,1.573-10.625,4.022l5.894,5.894l6.062-6.062l8.812,2.479v5.958l1.312,1.312
		l1.25-1.25c0,0-0.062-2.438,1.312-3.438c0.131-0.095,0.285-0.157,0.447-0.202C51.148,4.247,45.705,0.5,39.432,0.5z"/>
	<ellipse fill="#700909" cx="35.43" cy="17.333" rx="3.812" ry="2.375"/>
	<path fill="#AA1111" d="M32.579,18.896c0.698,0.494,1.71,0.812,2.851,0.812s2.152-0.318,2.851-0.812
		c-0.698-0.494-1.71-0.812-2.851-0.812S33.277,18.401,32.579,18.896z"/>
	<g>
		<path fill="#990B5C" d="M38.854,36.446c-1.959,0-3.547,1.528-3.547,3.414c0,1.805,1.457,2.042,3.3,2.059
			c0.081,0.002,0.163,0.002,0.247,0.002l0,0l0,0l0,0c0.084,0,0.166,0,0.248-0.002c1.842-0.017,3.299-0.254,3.299-2.059
			C42.4,37.975,40.812,36.446,38.854,36.446z"/>
		<path fill="#990B5C" d="M38.854,35.71c0.531,0,0.961-0.089,0.961-1.051c0-0.961-0.43-1.74-0.961-1.74
			c-0.53,0-0.961,0.779-0.961,1.74C37.893,35.621,38.323,35.71,38.854,35.71z"/>
		<path fill="#990B5C" d="M36.446,36.743c0.449-0.224,0.776-0.48,0.372-1.295c-0.406-0.814-1.098-1.293-1.547-1.07
			c-0.451,0.224-0.486,1.064-0.082,1.879C35.595,37.072,35.996,36.966,36.446,36.743z"/>
		<path fill="#990B5C" d="M42.436,34.378c-0.449-0.223-1.142,0.256-1.547,1.07c-0.404,0.814-0.077,1.071,0.372,1.295
			c0.45,0.223,0.852,0.329,1.257-0.486C42.922,35.442,42.885,34.602,42.436,34.378z"/>
	</g>
	<g>
		<path fill="#FF9100" d="M5.506,39.45l2.686-2.688c0.064-0.063,0.16-0.085,0.244-0.055c0.086,0.03,0.146,0.105,0.156,0.195
			l0.175,1.573l2.31,1.755l1.988-3.443c0.209-0.363,0.597-0.588,1.017-0.588h5.796l0.078-0.045v-3.174l-2.748-1.587l-3.102,1.79
			c-0.336,0.194-0.767,0.079-0.961-0.258c-0.195-0.338-0.08-0.768,0.258-0.962l3.451-1.993c0.219-0.126,0.486-0.126,0.705,0
			l3.453,1.993c0.219,0.126,0.353,0.357,0.353,0.61v3.986c0,0.069-0.014,0.138-0.032,0.202c0.004,0.009,0.014,0.015,0.018,0.024
			l3.127,5.414c0.209,0.363,0.209,0.811,0,1.174l-3.127,5.416c-0.209,0.362-0.598,0.586-1.016,0.586h-6.253
			c-0.42,0-0.808-0.224-1.017-0.586l-3.09-5.352l-2.582-3.396l-1.746-0.195c-0.09-0.01-0.166-0.07-0.195-0.156
			C5.42,39.607,5.443,39.513,5.506,39.45z"/>
		<path fill="#FF6D00" d="M5.506,39.45l2.686-2.688c0.064-0.063,0.16-0.085,0.244-0.055c0.086,0.03,0.146,0.105,0.156,0.195
			l0.175,1.573l1.525,3.081l2.772-4.77c0.209-0.363,0.597-0.588,1.017-0.588h5.796l0.078-0.045v-3.174l-2.748-1.587l-3.102,1.79
			c-0.336,0.194-0.767,0.079-0.961-0.258c-0.195-0.338-0.08-0.768,0.258-0.962l3.451-1.993c0.219-0.126,0.486-0.126,0.705,0
			l3.453,1.993c0.219,0.126,0.353,0.357,0.353,0.61v3.986c0,0.069-0.014,0.138-0.032,0.202c0.004,0.009,0.014,0.015,0.018,0.024
			l3.127,5.414c0.209,0.363,0.209,0.811,0,1.174l-3.127,5.416c-0.209,0.362-0.598,0.586-1.016,0.586h-6.253
			c-0.42,0-0.808-0.224-1.017-0.586l-3.09-5.352l-2.582-3.396l-1.746-0.195c-0.09-0.01-0.166-0.07-0.195-0.156
			C5.42,39.607,5.443,39.513,5.506,39.45z"/>
		<path fill="#FF9100" d="M22.938,46.042l-9.586-9.586c0.204-0.162,0.46-0.256,0.729-0.256h5.796l0.078-0.045v-3.174l-2.748-1.587
			l-3.102,1.79c-0.336,0.194-0.767,0.079-0.961-0.258c-0.195-0.338-0.08-0.768,0.258-0.962l3.451-1.993
			c0.219-0.126,0.486-0.126,0.705,0l3.248,1.874l0.525,0.524c0.02,0.066,0.032,0.134,0.032,0.205v3.986
			c0,0.069-0.014,0.138-0.032,0.202c0.004,0.009,0.014,0.015,0.018,0.024l3.127,5.414c0.209,0.363,0.209,0.811,0,1.174
			L22.938,46.042z"/>
		<path fill="#FFAA00" d="M19.955,32.981l-2.748-1.587l-3.102,1.79c-0.336,0.194-0.767,0.079-0.961-0.258
			c-0.195-0.338-0.08-0.768,0.258-0.962l3.451-1.993c0.219-0.126,0.486-0.126,0.705,0l3.248,1.874l0.525,0.272
			c0.02,0.065,0.032,0.386,0.032,0.457v3.986c0,0.069-0.014,0.138-0.032,0.202c0.004,0.009,0.014,0.015,0.018,0.024l3.127,5.414
			c0.209,0.363,0.209,0.811,0,1.174l-1.539,2.666"/>
		<path fill="#FFAA00" d="M19.877,36.2"/>
		<path fill="#FF6D00" d="M13.922,36.415c0,0.597,1.535,0.416,3.428,0.416c1.895,0,3.428,0.181,3.428-0.416s-1.533-1.08-3.428-1.08
			C15.457,35.335,13.922,35.818,13.922,36.415z"/>
		<path fill="#FF9100" d="M17.35,36.398c-1.639,0-3.008,0.136-3.346-0.216c0.338-0.484,1.707-0.848,3.346-0.848
			c1.641,0,3.01,0.363,3.348,0.848C20.359,36.534,18.99,36.398,17.35,36.398z"/>
		<path fill="#082856" d="M16.145,34.993c0,0.372,0.303,0.673,0.674,0.673h1.064c0.373,0,0.674-0.301,0.674-0.673l0,0
			c0-0.371-0.301-0.672-0.674-0.672h-1.064C16.447,34.321,16.145,34.622,16.145,34.993L16.145,34.993z"/>
		<path fill="#144682" d="M16.818,34.321h1.064c0.258,0,0.477,0.145,0.591,0.355c-0.114,0.211-0.333,0.355-0.591,0.355h-1.064
			c-0.257,0-0.477-0.145-0.591-0.355C16.342,34.466,16.562,34.321,16.818,34.321z"/>
		<path fill="#EA5706" d="M21.35,48.792c-0.209,0.362-0.598,0.586-1.016,0.586h-6.253c-0.42,0-0.808-0.224-1.017-0.586l-3.09-5.352
			l-0.011-0.014l12.364,3.672L21.35,48.792z"/>
	</g>
</g>
</svg>
