<?xml version="1.0" encoding="utf-8"?>
<!-- Generator: Adobe Illustrator 16.0.0, SVG Export Plug-In . SVG Version: 6.00 Build 0)  -->
<!DOCTYPE svg PUBLIC "-//W3C//DTD SVG 1.1//EN" "http://www.w3.org/Graphics/SVG/1.1/DTD/svg11.dtd">
<svg version="1.1" xmlns="http://www.w3.org/2000/svg" xmlns:xlink="http://www.w3.org/1999/xlink" x="0px" y="0px" width="65px"
	 height="65px" viewBox="0 0 65 65" enable-background="new 0 0 65 65" xml:space="preserve">
<g id="Layer_1">
	<g>
		<g>
			<path fill="#844618" d="M48.999,23.738c0,0.658-0.531,1.189-1.189,1.189h-4.23c-0.657,0-1.191-0.531-1.191-1.189v-8.131
				c0-0.658,0.534-1.191,1.191-1.191h4.23c0.658,0,1.189,0.533,1.189,1.191V23.738z"/>
			<path fill="#AA5F22" d="M48.999,61.584v-32.5c0-1.262-0.671-2.422-1.762-3.053l-12.977-7.494c-1.09-0.627-2.436-0.627-3.524,0
				l-12.975,7.494c-1.091,0.631-1.763,1.791-1.763,3.053v32.5H48.999z"/>
			<path fill="#994F19" d="M48.999,61.584v-32.5c0-1.262-0.671-2.422-1.762-3.053l-12.977-7.494c-1.09-0.627-2.436-0.627-3.524,0
				l-12.975,7.494c-1.091,0.631-1.763,1.791-1.763,3.053"/>
			<path fill="#844618" d="M30.736,19.064l-10.423,6.02h24.373l-10.426-6.02C33.171,18.438,31.825,18.438,30.736,19.064z"/>
			<g>
				<path fill="#D8B77C" d="M52.81,30.568c-0.426,0-0.855-0.107-1.248-0.334L33.677,19.906c-0.725-0.42-1.633-0.418-2.36,0.002
					L13.438,30.234c-1.193,0.689-2.724,0.281-3.415-0.916c-0.69-1.195-0.282-2.725,0.915-3.414l17.881-10.328
					c2.271-1.307,5.086-1.307,7.354-0.002l17.888,10.33c1.196,0.689,1.605,2.219,0.914,3.414
					C54.514,30.121,53.673,30.568,52.81,30.568z"/>
			</g>
			<g>
				<path fill="#C19F5B" d="M52.81,30.568c-0.426,0-0.855-0.107-1.248-0.334L33.677,19.906c-0.725-0.42-1.633-0.418-2.36,0.002
					L13.438,30.234c-1.193,0.689-2.724,0.281-3.415-0.916c-0.69-1.195-0.282-2.725,0.915-3.414l17.881-8.488
					c2.271-1.307,5.086-1.307,7.354-0.002l17.888,8.49c1.196,0.689,1.605,2.219,0.914,3.414
					C54.514,30.121,53.673,30.568,52.81,30.568z"/>
			</g>
			<line fill="none" stroke="#AA5F22" stroke-miterlimit="10" x1="15.999" y1="39.584" x2="48.999" y2="39.584"/>
			<path fill="#C18440" d="M50.81,40.75c0,1.012-0.822,1.834-1.834,1.834H16.642c-1.012,0-1.832-0.822-1.832-1.834l0,0
				c0-1.014,0.82-1.834,1.832-1.834h32.334C49.987,38.916,50.81,39.736,50.81,40.75L50.81,40.75z"/>
			<path fill="#C18440" d="M50.81,47.584c0,1.012-0.822,1.832-1.834,1.832H16.642c-1.012,0-1.832-0.82-1.832-1.832l0,0
				c0-1.014,0.82-1.834,1.832-1.834h32.334C49.987,45.75,50.81,46.57,50.81,47.584L50.81,47.584z"/>
			<path fill="#C18440" d="M50.81,54.416c0,1.012-0.822,1.834-1.834,1.834H16.642c-1.012,0-1.832-0.822-1.832-1.834l0,0
				c0-1.014,0.82-1.834,1.832-1.834h32.334C49.987,52.582,50.81,53.402,50.81,54.416L50.81,54.416z"/>
			<path fill="#6D350F" d="M37.842,60.893c0,0.566-0.458,1.023-1.022,1.023h-8.637c-0.567,0-1.025-0.457-1.025-1.023V45.605
				c0-0.564,0.458-1.023,1.025-1.023h8.637c0.564,0,1.022,0.459,1.022,1.023V60.893z"/>
			<g>
				<g>
					<polygon fill="#65930C" points="7.671,63.084 4.086,59.498 0.5,63.084 					"/>
					<polygon fill="#65930C" points="12.042,63.084 8.457,59.498 4.87,63.084 					"/>
					<polygon fill="#65930C" points="16.414,63.084 12.828,59.498 9.241,63.084 					"/>
					<polygon fill="#65930C" points="20.785,63.084 17.201,59.498 13.615,63.084 					"/>
					<polygon fill="#65930C" points="25.156,63.084 21.572,59.498 17.985,63.084 					"/>
					<polygon fill="#65930C" points="29.527,63.084 25.943,59.498 22.356,63.084 					"/>
					<polygon fill="#65930C" points="33.9,63.084 30.314,59.498 26.728,63.084 					"/>
					<polygon fill="#65930C" points="38.271,63.084 34.685,59.498 31.101,63.084 					"/>
					<polygon fill="#65930C" points="42.644,63.084 39.06,59.498 35.474,63.084 					"/>
					<polygon fill="#65930C" points="47.014,63.084 43.43,59.498 39.843,63.084 					"/>
					<polygon fill="#65930C" points="51.384,63.084 47.802,59.498 44.215,63.084 					"/>
					<polygon fill="#65930C" points="55.758,63.084 52.171,59.498 48.586,63.084 					"/>
					<polygon fill="#65930C" points="60.129,63.084 56.542,59.498 52.957,63.084 					"/>
					<polygon fill="#65930C" points="64.5,63.084 60.914,59.498 57.328,63.084 					"/>
				</g>
			</g>
			<circle fill="#8FD7FF" cx="29.995" cy="53.479" r="1.062"/>
			<g>
				<circle fill="#8FD7FF" cx="32.5" cy="31.166" r="4.917"/>
				<path fill="#844E25" d="M32.499,36.582c-2.986,0-5.416-2.43-5.416-5.416s2.43-5.416,5.416-5.416s5.418,2.43,5.418,5.416
					S35.485,36.582,32.499,36.582z M32.499,26.75c-2.435,0-4.416,1.98-4.416,4.416s1.981,4.416,4.416,4.416
					c2.437,0,4.418-1.98,4.418-4.416S34.936,26.75,32.499,26.75z"/>
			</g>
			<g>
				<rect x="31.916" y="24.916" fill="#844618" width="1.167" height="12.5"/>
				<rect x="26.25" y="30.582" fill="#844618" width="12.5" height="1.168"/>
			</g>
			<path fill="#C19F5B" d="M50.976,14.25c0,0.736-0.598,1.334-1.334,1.334h-7.666c-0.736,0-1.334-0.598-1.334-1.334l0,0
				c0-0.736,0.598-1.334,1.334-1.334h7.666C50.378,12.916,50.976,13.514,50.976,14.25L50.976,14.25z"/>
		</g>
		<circle fill="#A8BDC6" cx="39.558" cy="4.291" r="1.875"/>
		<circle fill="#A8BDC6" cx="40.058" cy="8.791" r="0.875"/>
		<circle fill="#A8BDC6" cx="46.62" cy="7.854" r="2.188"/>
		<circle fill="#A8BDC6" cx="44.245" cy="3.229" r="0.312"/>
		<circle fill="#A8BDC6" cx="43.245" cy="10.354" r="0.562"/>
		<circle fill="#A8BDC6" cx="50.12" cy="3.854" r="1.938"/>
	</g>
</g>
<g id="nyt_x5F_exporter_x5F_info" display="none">
</g>
</svg>
