<?xml version="1.0" encoding="utf-8"?>
<!-- Generator: Adobe Illustrator 16.0.0, SVG Export Plug-In . SVG Version: 6.00 Build 0)  -->
<!DOCTYPE svg PUBLIC "-//W3C//DTD SVG 1.1//EN" "http://www.w3.org/Graphics/SVG/1.1/DTD/svg11.dtd">
<svg version="1.1" id="Layer_1" xmlns="http://www.w3.org/2000/svg" xmlns:xlink="http://www.w3.org/1999/xlink" x="0px" y="0px"
	 width="64px" height="64px" viewBox="0 0 64 64" enable-background="new 0 0 64 64" xml:space="preserve">
<g>
	<g>
		
			<ellipse transform="matrix(0.9618 -0.2737 0.2737 0.9618 -14.0045 5.1904)" fill="#EA7103" cx="11.6" cy="52.8" rx="8.8" ry="8.5"/>
	</g>
	<g>
		<g>
			<g>
				<path fill="#F7910B" d="M62.3,37.2c0,13-11.9,23.5-30.3,23.5c-18.4,0-30.3-10.5-30.3-23.5S13.6,4.7,32,4.7
					C50.4,4.7,62.3,24.2,62.3,37.2z"/>
			</g>
			<g>
				<path fill="#F7910B" d="M62.3,37.2c0,13-11.9,19.5-30.3,19.5c-18.4,0-30.3-6.5-30.3-19.5S13.6,2.7,32,2.7
					C50.4,2.7,62.3,24.2,62.3,37.2z"/>
			</g>
			<g>
				<path fill="#F9A908" d="M32,2.7c18.4,0,30.3,21.5,30.3,34.5S50.4,56.7,32,56.7"/>
			</g>
			<g>
				<path fill="#F9A908" d="M62.3,37.2c0,13-11.9,19.5-30.3,19.5c-18.4,0-30.3-6.5-30.3-19.5S13.6,4.7,32,4.7
					C50.4,4.7,62.3,24.2,62.3,37.2z"/>
			</g>
			<g>
				<path fill="#F9C55D" d="M1.7,37.2c0-13,11.9-32.5,30.3-32.5"/>
			</g>
			<g>
				<path fill="#F7910B" d="M32,4.7c18.4,0,30.3,19.5,30.3,32.5S50.4,60.7,32,60.7"/>
			</g>
			<g>
				<path fill="#EA7103" d="M32,4.7c18.4,0,30.3,19.5,30.3,32.5"/>
			</g>
			<g>
				<g>
					<circle fill="#EA7103" cx="21.6" cy="25.4" r="3.2"/>
				</g>
				<g>
					<circle fill="#EA7103" cx="42.4" cy="25.4" r="3.2"/>
				</g>
				<g>
					<circle fill="#1E4784" cx="21.6" cy="24.5" r="3.2"/>
				</g>
				<g>
					<path fill="#00233F" d="M21.6,21.3c1.8,0,3.2,1.4,3.2,3.2s-1.4,3.2-3.2,3.2"/>
				</g>
				<g>
					<circle fill="#1E4784" cx="42.4" cy="24.5" r="3.2"/>
				</g>
				<g>
					<path fill="#00233F" d="M42.4,21.3c1.8,0,3.2,1.4,3.2,3.2s-1.4,3.2-3.2,3.2"/>
				</g>
			</g>
			<g>
				<g>
					<g>
						<g>
							<g>
								<g>
									<path fill="#19BCA4" d="M25.7,11.8c0,0.9-1.4,0.5-3.3,0.6c-1.8,0.1-3.3,0.6-3.3-0.3c0-0.9,1.4-1.6,3.2-1.7
										C24.2,10.2,25.7,10.9,25.7,11.8z"/>
								</g>
							</g>
						</g>
					</g>
					<g>
						<g>
							<g>
								<g>
									<path fill="#19BCA4" d="M38.3,11.8c0,0.9,1.4,0.5,3.3,0.6c1.8,0.1,3.3,0.6,3.3-0.3c0-0.9-1.4-1.6-3.2-1.7
										C39.8,10.2,38.3,10.9,38.3,11.8z"/>
								</g>
							</g>
						</g>
					</g>
				</g>
				<g>
					<g>
						<g>
							<g>
								<g>
									<path fill="#109DA0" d="M25.7,11.8c0,0.9-1.4,0.5-3.3,0.6c-1.8,0.1-3.3,0.6-3.3-0.3"/>
								</g>
							</g>
						</g>
					</g>
					<g>
						<g>
							<g>
								<g>
									<path fill="#109DA0" d="M38.3,11.8c0,0.9,1.4,0.5,3.3,0.6c1.8,0.1,3.3,0.6,3.3-0.3"/>
								</g>
							</g>
						</g>
					</g>
				</g>
			</g>
			<g>
				<g>
					<path fill="#F9C55D" d="M27.8,30.5c0,1.2-3.5,0.7-7.8,0.7c-4.3,0-7.8,0.6-7.8-0.7c0-1.2,3.5-2.2,7.8-2.2
						C24.3,28.3,27.8,29.3,27.8,30.5z"/>
				</g>
				<g>
					<path fill="#F9A908" d="M51.8,30.5c0,1.2-3.5,0.7-7.8,0.7s-7.8,0.6-7.8-0.7c0-1.2,3.5-2.2,7.8-2.2S51.8,29.3,51.8,30.5z"/>
				</g>
			</g>
			<g>
				<g>
					<path fill="#F7910B" d="M38.7,37.8c0,2.4-3,6.6-6.7,6.6c-3.7,0-6.7-4.3-6.7-6.6"/>
				</g>
				<g>
					<g>
						<path fill="#02243E" d="M18.3,35.8c-0.6,0-1-0.4-1-1s0.4-1,1-1c0.8,0,1.4-0.6,1.4-1.4c0-0.6,0.4-1,1-1s1,0.4,1,1
							C21.8,34.3,20.2,35.8,18.3,35.8z"/>
					</g>
					<g>
						<path fill="#02243E" d="M45.7,35.8c-1.9,0-3.4-1.5-3.4-3.4c0-0.6,0.4-1,1-1s1,0.4,1,1c0,0.8,0.6,1.4,1.4,1.4c0.6,0,1,0.4,1,1
							S46.2,35.8,45.7,35.8z"/>
					</g>
				</g>
				<g>
					<path fill="#02243E" d="M32,40.3c-4.8,0-9.3-1.9-12.7-5.2c-0.4-0.4-0.4-1,0-1.4s1-0.4,1.4,0c3,3,7,4.7,11.3,4.7
						s8.2-1.7,11.3-4.7c0.4-0.4,1-0.4,1.4,0c0.4,0.4,0.4,1,0,1.4C41.3,38.5,36.8,40.3,32,40.3z"/>
				</g>
			</g>
			<g>
				<path fill="#F9C55D" d="M37.3,35.3c0,1.1-2.4,2.1-5.3,2.1c-2.9,0-5.3-0.9-5.3-2.1"/>
			</g>
			<g>
				<circle fill="#F7910B" cx="10.3" cy="34.2" r="0.6"/>
			</g>
			<g>
				<circle fill="#F7910B" cx="5.8" cy="36.2" r="1.1"/>
			</g>
			<g>
				<circle fill="#F7910B" cx="8.8" cy="32.2" r="0.2"/>
			</g>
			<g>
				<circle fill="#F7910B" cx="13.4" cy="34" r="0.2"/>
			</g>
			<g>
				<circle fill="#F9A908" cx="52.6" cy="34.5" r="0.8"/>
			</g>
			<g>
				<circle fill="#F9A908" cx="55.1" cy="35.9" r="0.2"/>
			</g>
			<g>
				<circle fill="#F9A908" cx="49.8" cy="27.1" r="0.3"/>
			</g>
			<g>
				<circle fill="#F9A908" cx="49.3" cy="38.7" r="1.3"/>
			</g>
			<g>
				<circle fill="#F9A908" cx="56.5" cy="38.8" r="0.6"/>
			</g>
			<g>
				<circle fill="#F7910B" cx="9.3" cy="38.2" r="0.5"/>
			</g>
			<g>
				<circle fill="#F7910B" cx="10.1" cy="29.8" r="0.4"/>
			</g>
			<g>
				<circle fill="#F9A908" cx="4.8" cy="16" r="1.1"/>
			</g>
			<g>
				<circle fill="#F9A908" cx="8" cy="12.5" r="0.6"/>
			</g>
			<g>
				<circle fill="#F9A908" cx="59.2" cy="18.4" r="0.2"/>
			</g>
			<g>
				<circle fill="#F9A908" cx="58.4" cy="15.5" r="0.8"/>
			</g>
			<g>
				<circle fill="#F9A908" cx="61" cy="16" r="0.5"/>
			</g>
			<g>
				<circle fill="#F9A908" cx="6" cy="19" r="0.6"/>
			</g>
		</g>
		<g>
			<g>
				<g>
					<path fill="#CCF2E3" d="M14,42c2.9,5.8,0.8,5-0.8,5.8c-1.7,0.8-2.3,3-5.2-2.8c-2.9-5.8-2.7-8.8-1-9.6C8.6,34.6,11.1,36.2,14,42
						z"/>
				</g>
				<g>
					<path fill="#AAD6C3" d="M6.9,35.4c1.7-0.8,4.2,0.8,7.1,6.6c2.9,5.8,0.8,5-0.8,5.8"/>
				</g>
				<g>
					<path fill="#CCF2E3" d="M9.8,48.5c2.9,5.8,0.8,5-0.9,5.8c-1.7,0.8-1.9,3.8-4.8-2c-2.9-5.8-3-9.6-1.4-10.4
						C4.4,41.1,6.9,42.7,9.8,48.5z"/>
				</g>
				<g>
					<path fill="#AAD6C3" d="M2.7,41.9c1.7-0.8,4.2,0.8,7,6.6c2.9,5.8,0.8,5-0.9,5.8"/>
				</g>
				<g>
					<path fill="#CCF2E3" d="M21.2,41.4c2.9,5.8,0.8,5-0.8,5.8c-1.7,0.8-2.3,3-5.2-2.8c-2.9-5.8-2.7-8.8-1-9.6
						C15.8,34,18.3,35.6,21.2,41.4z"/>
				</g>
				<g>
					<path fill="#AAD6C3" d="M14.1,34.8c1.7-0.8,4.2,0.8,7.1,6.6c2.9,5.8,0.8,5-0.8,5.8"/>
				</g>
				<g>
					<path fill="#CCF2E3" d="M23.1,45.2c2.7,5.3,2.1,11.2-3.3,13.9c-5.4,2.7-11.9,0.6-14.6-4.8c-2.7-5.3,0.7-9.5,6.1-12.2
						C16.7,39.5,20.4,39.9,23.1,45.2z"/>
				</g>
				<g>
					<path fill="#AAD6C3" d="M23.1,45.2c2.7,5.3,2.1,11.2-3.3,13.9c-5.4,2.7-9.4-1.2-12.1-6.6C5,47.3,2.8,47.1,11,42.3
						C16.3,39.3,20.3,39.7,23.1,45.2z"/>
				</g>
				<g>
					<path fill="#CCF2E3" d="M26.1,42.7c2,0.9,1.8,5.6-0.5,10.5c-2.2,4.9-6.3,6.7-8.3,5.8c-2-0.9-1.1-4.2,1.1-9.1
						C20.7,45,24.1,41.8,26.1,42.7z"/>
				</g>
				<g>
					<path fill="#AAD6C3" d="M26.1,42.7c2,0.9,1.8,5.6-0.5,10.5c-2.2,4.9-6.3,6.7-8.3,5.8"/>
				</g>
			</g>
			<g>
				<path fill="#CCF2E3" d="M18,42.9c0.1,0.2,0.1,0.4,0,0.5l-8.2,7.4c-0.2,0.1-0.4,0.1-0.5,0l0,0c-0.1-0.2-0.1-0.4,0-0.5l8.2-7.4
					C17.6,42.8,17.9,42.8,18,42.9L18,42.9z"/>
			</g>
			<g>
				<path fill="#CCF2E3" d="M18.9,45.1c0.1,0.2,0.1,0.4,0,0.5L10.7,53c-0.2,0.1-0.4,0.1-0.5,0l0,0c-0.1-0.2-0.1-0.4,0-0.5l8.2-7.4
					C18.5,44.9,18.7,45,18.9,45.1L18.9,45.1z"/>
			</g>
			<g>
				<path fill="#E7F7EF" d="M6.2,38.1c0,0.9,0.3,1.6,0.6,1.6c0.3,0,0.5-0.8,0.5-1.7c0-0.9-0.3-1.6-0.6-1.6
					C6.4,36.4,6.2,37.2,6.2,38.1z"/>
			</g>
			<g>
				
					<ellipse transform="matrix(-0.9996 2.982309e-02 -2.982309e-02 -0.9996 6.5307 89.929)" fill="#E7F7EF" cx="2.6" cy="45" rx="0.5" ry="1.7"/>
			</g>
			<g>
				
					<ellipse transform="matrix(-0.9996 2.891749e-02 -2.891749e-02 -0.9996 29.253 74.6238)" fill="#E7F7EF" cx="14.1" cy="37.5" rx="0.5" ry="1.7"/>
			</g>
			<g>
				<path fill="#E7F7EF" d="M6.5,52c0.9,1.7,1.3,3.3,0.9,3.5c-0.4,0.2-1.4-1-2.3-2.8c-0.9-1.7-0.8-2.3-0.4-2.5C5,50,5.6,50.3,6.5,52
					z"/>
			</g>
			<g>
				<path fill="#E7F7EF" d="M21.4,46.1c0.9-1.4,2-2.3,2.3-2.1c0.4,0.2-0.1,1.6-1,3c-0.9,1.4-1.4,1.5-1.8,1.3
					C20.5,48,20.4,47.5,21.4,46.1z"/>
			</g>
		</g>
	</g>
</g>
</svg>
