<?xml version="1.0" encoding="utf-8"?>
<!-- Generator: Adobe Illustrator 16.0.0, SVG Export Plug-In . SVG Version: 6.00 Build 0)  -->
<!DOCTYPE svg PUBLIC "-//W3C//DTD SVG 1.1//EN" "http://www.w3.org/Graphics/SVG/1.1/DTD/svg11.dtd">
<svg version="1.1" id="Layer_1" xmlns="http://www.w3.org/2000/svg" xmlns:xlink="http://www.w3.org/1999/xlink" x="0px" y="0px"
	 width="64px" height="64px" viewBox="0 0 64 64" enable-background="new 0 0 64 64" xml:space="preserve">
<g>
	<g>
		<g>
			<g>
				<g>
					<g>
						<g>
							<path fill="#F7910B" d="M62.3,38.1c0,13-11.9,23.5-30.3,23.5c-18.4,0-30.3-10.5-30.3-23.5S13.6,5.6,32,5.6
								C50.4,5.6,62.3,25.1,62.3,38.1z"/>
						</g>
						<g>
							<path fill="#F7910B" d="M62.3,38.1c0,13-11.9,19.5-30.3,19.5c-18.4,0-30.3-6.5-30.3-19.5S13.6,3.6,32,3.6
								C50.4,3.6,62.3,25.1,62.3,38.1z"/>
						</g>
						<g>
							<path fill="#F9A908" d="M32,3.6c18.4,0,30.3,21.5,30.3,34.5S50.4,57.6,32,57.6"/>
						</g>
						<g>
							<path fill="#F9A908" d="M62.3,38.1c0,13-11.9,19.5-30.3,19.5c-18.4,0-30.3-6.5-30.3-19.5S13.6,5.6,32,5.6
								C50.4,5.6,62.3,25.1,62.3,38.1z"/>
						</g>
						<g>
							<path fill="#F9C55D" d="M1.7,38.1c0-13,11.9-32.5,30.3-32.5"/>
						</g>
						<g>
							<path fill="#F7910B" d="M32,5.6c18.4,0,30.3,19.5,30.3,32.5S50.4,61.6,32,61.6"/>
						</g>
						<g>
							<path fill="#EA7103" d="M32,5.6c18.4,0,30.3,19.5,30.3,32.5"/>
						</g>
						<g>
							<g>
								<path fill="#F9C55D" d="M27.8,30c0,1.2-3.5,0.7-7.8,0.7c-4.3,0-7.8,0.6-7.8-0.7c0-1.2,3.5-2.2,7.8-2.2
									C24.3,27.8,27.8,28.8,27.8,30z"/>
							</g>
							<g>
								<path fill="#F9A908" d="M51.8,30c0,1.2-3.5,0.7-7.8,0.7s-7.8,0.6-7.8-0.7c0-1.2,3.5-2.2,7.8-2.2S51.8,28.8,51.8,30z"/>
							</g>
						</g>
						<g>
							<circle fill="#F7910B" cx="10.3" cy="35" r="0.6"/>
						</g>
						<g>
							<circle fill="#F7910B" cx="5.8" cy="37" r="1.1"/>
						</g>
						<g>
							<circle fill="#F7910B" cx="8.8" cy="33" r="0.2"/>
						</g>
						<g>
							<circle fill="#F7910B" cx="13.4" cy="34.9" r="0.2"/>
						</g>
						<g>
							<circle fill="#F9A908" cx="52.6" cy="35.4" r="0.8"/>
						</g>
						<g>
							<circle fill="#F9A908" cx="55.1" cy="36.8" r="0.2"/>
						</g>
						<g>
							<circle fill="#F9A908" cx="49.8" cy="28" r="0.3"/>
						</g>
						<g>
							<circle fill="#F9A908" cx="49.3" cy="39.6" r="1.3"/>
						</g>
						<g>
							<circle fill="#F9A908" cx="56.5" cy="39.7" r="0.6"/>
						</g>
						<g>
							<circle fill="#F7910B" cx="9.3" cy="39.1" r="0.5"/>
						</g>
						<g>
							<circle fill="#F7910B" cx="10.1" cy="30.7" r="0.4"/>
						</g>
						<g>
							<circle fill="#F9A908" cx="4.8" cy="16.9" r="1.1"/>
						</g>
						<g>
							<circle fill="#F9A908" cx="8" cy="13.4" r="0.6"/>
						</g>
						<g>
							<circle fill="#F9A908" cx="59.2" cy="19.3" r="0.2"/>
						</g>
						<g>
							<circle fill="#F9A908" cx="58.4" cy="16.4" r="0.8"/>
						</g>
						<g>
							<circle fill="#F9A908" cx="61" cy="16.9" r="0.5"/>
						</g>
						<g>
							<circle fill="#F9A908" cx="6" cy="19.9" r="0.6"/>
						</g>
					</g>
				</g>
			</g>
			<g>
				<g>
					<g>
						<g>
							<g>
								<g>
									<path fill="#1E4784" d="M16.7,23.4c0.4,0,0.8,0.2,1.2,0.5c1.4,1.4,3.7,1.4,5.1,0c0.6-0.6,1.7-0.7,2.3,0
										c0.6,0.6,0.7,1.7,0,2.3c-2.7,2.7-7.1,2.7-9.8,0c-0.6-0.6-0.6-1.7,0-2.3C15.9,23.6,16.3,23.4,16.7,23.4z"/>
								</g>
							</g>
							<g>
								<g>
									<path fill="#02243E" d="M15.6,26.2c-0.6-0.6-0.6-1.7,0-2.3c0.3-0.3,0.7-0.5,1.2-0.5c0.4,0,0.8,0.2,1.2,0.5
										c1.4,1.4,3.7,1.4,5.1,0c0.6-0.6,1.7-0.7,2.3,0c0.6,0.6,0.7,1.7,0,2.3"/>
								</g>
							</g>
						</g>
					</g>
				</g>
				<g>
					<g>
						<g>
							<g>
								<g>
									<path fill="#1E4784" d="M47.3,23.4c-0.4,0-0.8,0.2-1.2,0.5c-1.4,1.4-3.7,1.4-5.1,0c-0.6-0.6-1.7-0.7-2.3,0
										c-0.6,0.6-0.7,1.7,0,2.3c2.7,2.7,7.1,2.7,9.8,0c0.6-0.6,0.6-1.7,0-2.3C48.1,23.6,47.7,23.4,47.3,23.4z"/>
								</g>
							</g>
							<g>
								<g>
									<path fill="#02243E" d="M48.4,26.2c0.6-0.6,0.6-1.7,0-2.3c-0.3-0.3-0.7-0.5-1.2-0.5c-0.4,0-0.8,0.2-1.2,0.5
										c-1.4,1.4-3.7,1.4-5.1,0c-0.6-0.6-1.7-0.7-2.3,0c-0.6,0.6-0.7,1.7,0,2.3"/>
								</g>
							</g>
						</g>
					</g>
				</g>
			</g>
		</g>
	</g>
	<g>
		<path fill="#1E4784" d="M32,3.6C13.6,3.6,1.7,25.1,1.7,38.1S13.6,61.6,32,61.6c18.4,0,30.3-10.5,30.3-23.5S50.4,3.6,32,3.6z
			 M11.7,26.5c0-4,4.1-7.2,9.1-7.2s9.1,3.2,9.1,7.2s-4.1,3.6-9.1,3.6S11.7,30.5,11.7,26.5z M32,54.4c-7.1,0-12.9-5.6-12.9-12.5
			s5.8-7.6,12.9-7.6c7.1,0,12.9,0.7,12.9,7.6S39.1,54.4,32,54.4z M43.2,30.1c-5,0-9.1,0.4-9.1-3.6s4.1-7.2,9.1-7.2
			c5,0,9.1,3.2,9.1,7.2S48.2,30.1,43.2,30.1z"/>
	</g>
	<g>
		<path fill="#00233F" d="M31.9,3.6c-6,0-11.2,2.4-15.9,6v10.6c2-0.6,3-1,4.7-1c5,0,9.1,3.2,9.1,7.2s-4.2,3.6-9.2,3.6
			c-1.7,0-2.7,0-4.7,0l0,28.3c5,2.2,9.9,3.2,15.9,3.2c18.4,0,30.3-10.5,30.3-23.5S50.3,3.6,31.9,3.6z M32,54.4
			c-7.1,0-12.9-5.6-12.9-12.5s5.8-7.6,12.9-7.6c7.1,0,12.9,0.7,12.9,7.6S39.1,54.4,32,54.4z M43.2,30.1c-5,0-9.1,0.4-9.1-3.6
			s4.1-7.2,9.1-7.2c5,0,9.1,3.2,9.1,7.2S48.2,30.1,43.2,30.1z"/>
	</g>
	<g>
		
			<ellipse transform="matrix(0.9432 -0.3322 0.3322 0.9432 -11.0438 5.2409)" fill="#2B63A5" cx="9.8" cy="34.9" rx="4.8" ry="2.7"/>
	</g>
	<g>
		<polygon fill="#F9A908" points="7.9,2.4 9.4,5.4 12.7,5.9 10.3,8.2 10.8,11.4 7.9,9.9 5,11.4 5.5,8.2 3.2,5.9 6.4,5.4 		"/>
	</g>
	<g>
		<polygon fill="#AAD6C3" points="16.3,10.1 17.8,13.1 21.1,13.6 18.7,15.9 19.3,19.1 16.3,17.6 13.4,19.1 14,15.9 11.6,13.6 
			14.9,13.1 		"/>
	</g>
	<g>
		<polygon fill="#AAD6C3" points="45.4,15.8 48.6,16.9 51.2,14.9 51.2,18.2 53.9,20.1 50.7,21.1 49.7,24.3 47.8,21.6 44.5,21.6 
			46.5,19 		"/>
	</g>
	<g>
		<polygon fill="#F7910B" points="52.8,41.7 55.9,42.7 58.6,40.8 58.5,44.1 61.2,46 58.1,47 57.1,50.1 55.2,47.4 51.8,47.5 
			53.8,44.8 		"/>
	</g>
	<g>
		<g>
			<path fill="#F7910B" d="M39.4,40.4c0,2.6-3.3,4.7-7.4,4.7c-4.1,0-7.4-2.1-7.4-4.7"/>
		</g>
		<g>
			<path fill="#02243E" d="M39,41H25c-0.6,0-1-0.4-1-1s0.4-1,1-1h14c0.6,0,1,0.4,1,1S39.6,41,39,41z"/>
		</g>
	</g>
</g>
</svg>
