<?xml version="1.0" encoding="utf-8"?>
<!-- Generator: Adobe Illustrator 16.0.0, SVG Export Plug-In . SVG Version: 6.00 Build 0)  -->
<!DOCTYPE svg PUBLIC "-//W3C//DTD SVG 1.1//EN" "http://www.w3.org/Graphics/SVG/1.1/DTD/svg11.dtd">
<svg version="1.1" id="Layer_1" xmlns="http://www.w3.org/2000/svg" xmlns:xlink="http://www.w3.org/1999/xlink" x="0px" y="0px"
	 width="65px" height="65px" viewBox="0 0 65 65" enable-background="new 0 0 65 65" xml:space="preserve">
<g>
	<g>
		<path fill="#454949" d="M52.182,16.577c0.328,0.328,0.328,0.861,0,1.191l-0.998,0.998c-0.33,0.329-0.863,0.329-1.193,0
			l-2.176-3.726c-0.328-0.329-0.328-0.862,0-1.192l1-0.998c0.328-0.328,0.861-0.328,1.191,0L52.182,16.577z"/>
		<path fill="#454949" d="M54.104,6.386l-7.479,7.479l1.209,1.208l2.156,3.693c0.33,0.329,0.863,0.329,1.193,0l0.998-0.998
			c0.328-0.33,0.328-0.863,0-1.191l-1.168-1.999l1.963-1.961c0.33-0.331,0.158-0.695-0.174-1.026l-0.742-0.742l3.254-3.252
			L54.104,6.386z M51.82,11.972c0.266,0.264,0.438,0.521,0.174,0.786l-1.291,1.289l-0.678-1.162l1.355-1.354L51.82,11.972z"/>
		<path fill="#252828" d="M51.014,14.578l1.963-1.961c0.33-0.331,0.158-0.695-0.174-1.026l-0.742-0.742l3.254-3.252l-1.211-1.211
			l-7.479,7.479l1.209,1.208 M51.82,11.972c0.266,0.264,0.438,0.521,0.174,0.786l-1.291,1.289l-0.678-1.162l1.355-1.354
			L51.82,11.972z"/>
		<polygon fill="#2ABA9E" points="51.545,12.969 51.26,13.254 50.336,12.733 50.822,12.245 		"/>
		<polyline fill="#1A9992" points="50.336,12.733 50.822,12.245 51.545,12.969 		"/>
		<polygon fill="#2ABA9E" points="52.42,3.556 52.914,4.431 45.396,11.948 46.406,13.646 54.744,5.308 53.43,3.993 53.391,3.954 
			52.707,3.271 		"/>
		<g>
			<path fill="#2ABA9E" d="M49.082,14.875l-0.861,0.86l0.18,0.309l0.926-0.926c0.066-0.067,0.066-0.176,0-0.244
				C49.258,14.808,49.148,14.808,49.082,14.875z"/>
			<path fill="#2ABA9E" d="M49.598,15.591l-0.922,0.924l0.178,0.307l0.988-0.986c0.066-0.067,0.066-0.176,0-0.244
				C49.773,15.524,49.666,15.524,49.598,15.591z"/>
			<path fill="#2ABA9E" d="M49.309,17.599l0.951-0.951c0.068-0.067,0.068-0.176,0-0.243c-0.066-0.067-0.176-0.067-0.242,0
				l-0.887,0.888L49.309,17.599z"/>
		</g>
		<path fill="#252828" d="M55.322,7.196c0.107,0.107,0.107,0.282,0,0.391l0,0c-0.107,0.107-0.283,0.107-0.391,0l-0.822-0.822
			c-0.107-0.107-0.107-0.282,0-0.391l0,0c0.107-0.107,0.283-0.107,0.391,0.001L55.322,7.196z"/>
		<polygon fill="#1A9992" points="45.773,12.581 46.406,13.646 54.744,5.308 53.895,4.46 		"/>
		<path fill="#2ABA9E" d="M54.605,5.169c0.076,0.077,0.076,0.201,0,0.278l0,0c-0.076,0.076-0.201,0.077-0.277,0l-0.586-0.586
			c-0.078-0.076-0.076-0.201,0-0.278l0,0c0.076-0.076,0.201-0.076,0.277,0L54.605,5.169z"/>
		<circle fill="#2ABA9E" cx="51.134" cy="10.466" r="0.228"/>
		<circle fill="#2ABA9E" cx="51.972" cy="9.627" r="0.228"/>
		<circle fill="#2ABA9E" cx="52.81" cy="8.789" r="0.228"/>
	</g>
	<g>
		<g>
			<path fill="#232728" d="M32.49,33.266c1.432,1.273,4.229,0.465,6.25-1.805c2.018-2.27,10.793-14.475,9.365-15.75
				c-1.434-1.271-12.533,8.873-14.551,11.143C31.537,29.121,31.061,31.992,32.49,33.266z"/>
			<g>
				<g>
					<g>
						<path fill="#232728" d="M27.262,26.369c1.273,1.432,0.465,4.228-1.805,6.249c-2.27,2.018-14.475,10.794-15.75,9.365
							C8.436,40.55,18.58,29.451,20.85,27.434C23.117,25.415,25.988,24.938,27.262,26.369z"/>
					</g>
					<g>
						<path fill="#232728" d="M25.629,46.446c0,2.476-2.008,15.827-4.486,15.827c-2.475,0-4.482-13.352-4.482-15.827
							s2.008-4.484,4.482-4.484C23.621,41.962,25.629,43.971,25.629,46.446z"/>
						<path fill="#232728" d="M40.654,46.446c0,2.476-2.008,15.827-4.486,15.827c-2.475,0-4.482-13.352-4.482-15.827
							s2.008-4.484,4.482-4.484C38.646,41.962,40.654,43.971,40.654,46.446z"/>
					</g>
					<path fill="#232728" d="M41.307,40.521c0,16.038-5.662,10.697-12.65,10.697c-6.986,0-12.65,5.341-12.65-10.697
						c0-9.17,5.666-16.603,12.65-16.603C35.643,23.919,41.307,31.352,41.307,40.521z"/>
					<polygon fill="#B7CACE" points="34.145,26.583 28.656,39.071 23.168,26.583 28.656,18.095 					"/>
					<g>
						<path fill="#505B5A" d="M26.189,62.354c0,1.896-2.26,2.146-5.045,2.146S16.1,64.251,16.1,62.354
							c0-1.897,2.26-4.508,5.045-4.508S26.189,60.457,26.189,62.354z"/>
						<path fill="#3C4746" d="M26.189,62.354c0,1.896-2.26,2.146-5.045,2.146S16.1,64.251,16.1,62.354"/>
					</g>
					<g>
						<path fill="#505B5A" d="M41.215,62.354c0,1.896-2.26,2.146-5.045,2.146s-5.045-0.249-5.045-2.146
							c0-1.897,2.26-4.508,5.045-4.508S41.215,60.457,41.215,62.354z"/>
						<path fill="#3C4746" d="M41.215,62.354c0,1.896-2.26,2.146-5.045,2.146s-5.045-0.249-5.045-2.146"/>
					</g>
					<g>
						<path fill="#E8B085" d="M45.027,16.275c0,7.999-7.33,12.02-16.369,12.02c-9.041,0-16.373-4.021-16.373-12.02
							c0-8.001,7.332-15.775,16.373-15.775C37.697,0.5,45.027,8.274,45.027,16.275z"/>
						<path fill="#DD9F76" d="M45.027,16.275c0,7.999-7.33,12.02-16.369,12.02c-9.041,0-16.373-4.021-16.373-12.02"/>
					</g>
					<g>
						<g>
							<circle fill="#113E49" cx="20.872" cy="10.082" r="1.464"/>
							<path d="M22.336,10.082c0,0.811-0.656,1.465-1.465,1.465s-1.463-0.654-1.463-1.465"/>
							<g>
								<path fill="#F4C3A2" d="M23.76,13.136c-0.078,0-0.158-0.028-0.219-0.091c-0.715-0.714-1.664-1.107-2.672-1.107h-0.002
									c-1.008,0-1.955,0.394-2.666,1.106c-0.121,0.121-0.316,0.125-0.436,0.001c-0.121-0.117-0.125-0.312-0.004-0.434
									c0.83-0.831,1.932-1.29,3.105-1.29h0.002c1.176,0,2.279,0.456,3.111,1.288c0.119,0.119,0.119,0.318,0,0.436
									C23.92,13.107,23.842,13.136,23.76,13.136z"/>
							</g>
						</g>
						<g>
							<circle fill="#113E49" cx="36.442" cy="10.082" r="1.464"/>
							<path d="M34.979,10.082c0,0.811,0.654,1.465,1.465,1.465c0.809,0,1.463-0.654,1.463-1.465"/>
							<g>
								<path fill="#F4C3A2" d="M33.555,13.136c0.076,0,0.156-0.028,0.217-0.091c0.715-0.714,1.664-1.107,2.672-1.107h0.002
									c1.008,0,1.957,0.394,2.668,1.106c0.119,0.121,0.314,0.125,0.436,0.001c0.121-0.117,0.123-0.312,0.002-0.434
									c-0.826-0.831-1.932-1.29-3.105-1.29h-0.002c-1.174,0-2.277,0.456-3.111,1.288c-0.117,0.119-0.117,0.318,0,0.436
									C33.395,13.107,33.473,13.136,33.555,13.136z"/>
							</g>
						</g>
					</g>
				</g>
				<g>
					<g>
						<path fill="#663F24" d="M29.119,14.428c0,0-1.711-3.682-6.312-0.657c-4.6,3.025-4.996,2.103-4.996,2.103
							s4.865,3.553,10.125,1.318l0.789-0.66L29.119,14.428z"/>
						<path fill="#543722" d="M17.811,15.873c0,0,4.865,3.553,10.125,1.318l0.789-0.66l0.395-2.104"/>
					</g>
					<g>
						<path fill="#663F24" d="M28.195,14.428c0,0,1.709-3.682,6.311-0.657c4.602,3.025,4.996,2.103,4.996,2.103
							s-4.863,3.553-10.123,1.318l-0.791-0.66L28.195,14.428z"/>
						<path fill="#543722" d="M39.502,15.873c0,0-4.863,3.553-10.123,1.318l-0.791-0.66l-0.393-2.104"/>
					</g>
				</g>
			</g>
		</g>
	</g>
	<g>
		<g>
			<path d="M27.615,10.462c0,1.539-1.248,2.787-2.785,2.787h-3.834c-1.541,0-2.787-1.248-2.787-2.787V8.954
				c0-1.54,1.246-2.788,2.787-2.788h3.834c1.537,0,2.785,1.248,2.785,2.788V10.462z"/>
			<path d="M21.578,7.327c0,0.643-0.521,1.162-1.162,1.162h-6.502c-0.643,0-1.162-0.52-1.162-1.162l0,0
				c0-0.643,0.52-1.161,1.162-1.161h6.502C21.057,6.166,21.578,6.685,21.578,7.327L21.578,7.327z"/>
		</g>
		<g>
			<path d="M29.699,10.462c0,1.539,1.246,2.787,2.785,2.787h3.832c1.541,0,2.787-1.248,2.787-2.787V8.954
				c0-1.54-1.246-2.788-2.787-2.788h-3.832c-1.539,0-2.785,1.248-2.785,2.788V10.462z"/>
			<path d="M35.736,7.327c0,0.643,0.52,1.162,1.162,1.162H43.4c0.641,0,1.162-0.52,1.162-1.162l0,0c0-0.643-0.521-1.161-1.162-1.161
				h-6.502C36.256,6.166,35.736,6.685,35.736,7.327L35.736,7.327z"/>
			<path d="M24.361,7.327c0,0.643,0.52,1.162,1.162,1.162h6.502c0.641,0,1.162-0.52,1.162-1.162l0,0
				c0-0.643-0.521-1.161-1.162-1.161h-6.502C24.881,6.166,24.361,6.685,24.361,7.327L24.361,7.327z"/>
		</g>
	</g>
	<g>
		<g>
			<polygon fill="#232728" points="28.635,30.05 25.51,31.458 25.51,28.333 28.635,29.741 			"/>
			<polygon fill="#232728" points="28.678,29.741 31.803,28.333 31.803,31.458 28.678,30.05 			"/>
		</g>
		<path fill="#232728" d="M29.537,29.896c0,0.413-0.336,0.748-0.748,0.748h-0.266c-0.412,0-0.748-0.335-0.748-0.748l0,0
			c0-0.413,0.336-0.748,0.748-0.748h0.266C29.201,29.147,29.537,29.482,29.537,29.896L29.537,29.896z"/>
	</g>
	<g>
		<circle fill="#505B5A" cx="28.656" cy="41.458" r="0.438"/>
		<circle fill="#505B5A" cx="28.656" cy="43.583" r="0.438"/>
		<circle fill="#505B5A" cx="28.656" cy="45.708" r="0.438"/>
	</g>
</g>
</svg>
