<?xml version="1.0" encoding="utf-8"?>
<!-- Generator: Adobe Illustrator 16.0.0, SVG Export Plug-In . SVG Version: 6.00 Build 0)  -->
<!DOCTYPE svg PUBLIC "-//W3C//DTD SVG 1.1//EN" "http://www.w3.org/Graphics/SVG/1.1/DTD/svg11.dtd">
<svg version="1.1" xmlns="http://www.w3.org/2000/svg" xmlns:xlink="http://www.w3.org/1999/xlink" x="0px" y="0px" width="65px"
	 height="65px" viewBox="0 0 65 65" enable-background="new 0 0 65 65" xml:space="preserve">
<g id="Layer_1">
	<g>
		<g>
			<circle fill="#F2D168" cx="32.5" cy="50.834" r="13.167"/>
			<path fill="#E2BE59" d="M45.667,50.834C45.667,58.105,39.771,64,32.499,64"/>
			<path fill="#F2D168" d="M39.999,43.834c0,4.141-3.358,7.5-7.5,7.5l0,0c-4.142,0-7.5-3.359-7.5-7.5V8.5c0-4.143,3.358-7.5,7.5-7.5
				l0,0c4.142,0,7.5,3.357,7.5,7.5V43.834z"/>
			<path fill="#EFDA75" d="M24.999,26.582V8.5c0-4.143,3.358-7.5,7.5-7.5l0,0"/>
		</g>
		<circle fill="#FF3C00" cx="32.499" cy="50.834" r="3.75"/>
		<path fill="#B22D09" d="M36.249,50.834c0,2.07-1.679,3.75-3.75,3.75s-3.75-1.68-3.75-3.75"/>
		<path fill="#FF3C00" d="M33.624,50.207c0,0.621-0.504,1.125-1.125,1.125l0,0c-0.621,0-1.125-0.504-1.125-1.125V8.457
			c0-0.621,0.504-1.125,1.125-1.125l0,0c0.621,0,1.125,0.504,1.125,1.125V50.207z"/>
		<g>
			<path fill="#B79639" d="M38.499,14.748c0,0.139-0.113,0.25-0.25,0.25h-2.334c-0.139,0-0.25-0.111-0.25-0.25l0,0
				c0-0.139,0.111-0.25,0.25-0.25h2.334C38.386,14.498,38.499,14.609,38.499,14.748L38.499,14.748z"/>
			<path fill="#B79639" d="M38.499,16.686c0,0.139-0.113,0.25-0.25,0.25h-0.334c-0.139,0-0.25-0.111-0.25-0.25l0,0
				c0-0.139,0.111-0.25,0.25-0.25h0.334C38.386,16.436,38.499,16.547,38.499,16.686L38.499,16.686z"/>
		</g>
		<g>
			<path fill="#B79639" d="M38.499,18.748c0,0.139-0.113,0.25-0.25,0.25h-2.334c-0.139,0-0.25-0.111-0.25-0.25l0,0
				c0-0.139,0.111-0.25,0.25-0.25h2.334C38.386,18.498,38.499,18.609,38.499,18.748L38.499,18.748z"/>
			<path fill="#B79639" d="M38.499,20.686c0,0.139-0.113,0.25-0.25,0.25h-0.334c-0.139,0-0.25-0.111-0.25-0.25l0,0
				c0-0.139,0.111-0.25,0.25-0.25h0.334C38.386,20.436,38.499,20.547,38.499,20.686L38.499,20.686z"/>
		</g>
		<g>
			<path fill="#B79639" d="M38.499,22.748c0,0.139-0.113,0.25-0.25,0.25h-2.334c-0.139,0-0.25-0.111-0.25-0.25l0,0
				c0-0.139,0.111-0.25,0.25-0.25h2.334C38.386,22.498,38.499,22.609,38.499,22.748L38.499,22.748z"/>
			<path fill="#B79639" d="M38.499,24.686c0,0.139-0.113,0.25-0.25,0.25h-0.334c-0.139,0-0.25-0.111-0.25-0.25l0,0
				c0-0.139,0.111-0.25,0.25-0.25h0.334C38.386,24.436,38.499,24.547,38.499,24.686L38.499,24.686z"/>
		</g>
		<g>
			<path fill="#B79639" d="M38.499,26.748c0,0.139-0.113,0.25-0.25,0.25h-2.334c-0.139,0-0.25-0.111-0.25-0.25l0,0
				c0-0.139,0.111-0.25,0.25-0.25h2.334C38.386,26.498,38.499,26.609,38.499,26.748L38.499,26.748z"/>
			<path fill="#B79639" d="M38.499,28.686c0,0.139-0.113,0.25-0.25,0.25h-0.334c-0.139,0-0.25-0.111-0.25-0.25l0,0
				c0-0.139,0.111-0.25,0.25-0.25h0.334C38.386,28.436,38.499,28.547,38.499,28.686L38.499,28.686z"/>
		</g>
		<g>
			<path fill="#B79639" d="M38.499,30.748c0,0.139-0.113,0.25-0.25,0.25h-2.334c-0.139,0-0.25-0.111-0.25-0.25l0,0
				c0-0.139,0.111-0.25,0.25-0.25h2.334C38.386,30.498,38.499,30.609,38.499,30.748L38.499,30.748z"/>
			<path fill="#B79639" d="M38.499,32.686c0,0.139-0.113,0.25-0.25,0.25h-0.334c-0.139,0-0.25-0.111-0.25-0.25l0,0
				c0-0.139,0.111-0.25,0.25-0.25h0.334C38.386,32.436,38.499,32.547,38.499,32.686L38.499,32.686z"/>
		</g>
		<g>
			<path fill="#B79639" d="M38.499,34.748c0,0.139-0.113,0.25-0.25,0.25h-2.334c-0.139,0-0.25-0.111-0.25-0.25l0,0
				c0-0.139,0.111-0.25,0.25-0.25h2.334C38.386,34.498,38.499,34.609,38.499,34.748L38.499,34.748z"/>
			<path fill="#B79639" d="M38.499,36.686c0,0.139-0.113,0.25-0.25,0.25h-0.334c-0.139,0-0.25-0.111-0.25-0.25l0,0
				c0-0.139,0.111-0.25,0.25-0.25h0.334C38.386,36.436,38.499,36.547,38.499,36.686L38.499,36.686z"/>
		</g>
	</g>
</g>
<g id="nyt_x5F_exporter_x5F_info" display="none">
</g>
</svg>
