<?xml version="1.0" encoding="utf-8"?>
<!-- Generator: Adobe Illustrator 16.0.0, SVG Export Plug-In . SVG Version: 6.00 Build 0)  -->
<!DOCTYPE svg PUBLIC "-//W3C//DTD SVG 1.1//EN" "http://www.w3.org/Graphics/SVG/1.1/DTD/svg11.dtd">
<svg version="1.1" xmlns="http://www.w3.org/2000/svg" xmlns:xlink="http://www.w3.org/1999/xlink" x="0px" y="0px" width="65px"
	 height="65px" viewBox="0 0 65 65" enable-background="new 0 0 65 65" xml:space="preserve">
<g id="Layer_1">
	<g>
		<g>
			<path fill="#2E3C3F" d="M34.618,8.545c1.185,0,2.146,0.96,2.146,2.146v15.017c0,1.185-0.961,2.146-2.146,2.146h-5.005
				c-1.186,0-2.146-0.961-2.146-2.146V10.69c0-1.186,0.96-2.146,2.146-2.146H34.618z"/>
			<path fill="#86A9BC" d="M52.343,62.354c0,1.185-0.96,2.146-2.145,2.146H14.802c-1.185,0-2.146-0.961-2.146-2.146v-46.48
				c0-1.185,0.961-2.146,2.146-2.146h35.396c1.185,0,2.145,0.961,2.145,2.146V62.354z"/>
			<path fill="#809BAD" d="M12.657,15.874c0-1.185,0.961-2.146,2.146-2.146h35.396c1.185,0,2.145,0.961,2.145,2.146v46.48
				c0,1.185-0.96,2.146-2.145,2.146"/>
			<path fill="#A1C6D6" d="M14.802,64.5c-1.185,0-2.146-0.961-2.146-2.146v-46.48c0-1.185,0.961-2.146,2.146-2.146"/>
			<line fill="#92BAD6" x1="52.343" y1="15.874" x2="52.343" y2="62.354"/>
			<g>
				<path fill="#86A9BC" d="M43.444,9.664c0,0.621-0.504,1.123-1.123,1.123H22.679c-0.619,0-1.121-0.502-1.121-1.123V1.622
					c0-0.619,0.502-1.122,1.121-1.122h19.642c0.619,0,1.123,0.503,1.123,1.122V9.664z"/>
				<path fill="#809BAD" d="M21.558,1.622c0-0.619,0.502-1.122,1.121-1.122h19.642c0.619,0,1.123,0.503,1.123,1.122v8.042
					c0,0.621-0.504,1.123-1.123,1.123"/>
				<g>
					<path fill="#ACC2CC" d="M22.925,8.239c0,0.116-0.094,0.21-0.211,0.21l0,0c-0.116,0-0.211-0.094-0.211-0.21v-5.19
						c0-0.116,0.095-0.211,0.211-0.211l0,0c0.117,0,0.211,0.095,0.211,0.211V8.239z"/>
					<path fill="#ACC2CC" d="M25.101,8.239c0,0.116-0.096,0.21-0.213,0.21l0,0c-0.115,0-0.209-0.094-0.209-0.21v-5.19
						c0-0.116,0.094-0.211,0.209-0.211l0,0c0.117,0,0.213,0.095,0.213,0.211V8.239z"/>
					<path fill="#ACC2CC" d="M27.275,8.239c0,0.116-0.096,0.21-0.211,0.21l0,0c-0.117,0-0.211-0.094-0.211-0.21v-5.19
						c0-0.116,0.094-0.211,0.211-0.211l0,0c0.115,0,0.211,0.095,0.211,0.211V8.239z"/>
					<path fill="#ACC2CC" d="M29.449,8.239c0,0.116-0.094,0.21-0.211,0.21l0,0c-0.115,0-0.21-0.094-0.21-0.21v-5.19
						c0-0.116,0.095-0.211,0.21-0.211l0,0c0.117,0,0.211,0.095,0.211,0.211V8.239z"/>
					<path fill="#ACC2CC" d="M31.623,8.239c0,0.116-0.094,0.21-0.209,0.21l0,0c-0.117,0-0.211-0.094-0.211-0.21v-5.19
						c0-0.116,0.094-0.211,0.211-0.211l0,0c0.115,0,0.209,0.095,0.209,0.211V8.239z"/>
					<path fill="#ACC2CC" d="M33.798,8.239c0,0.116-0.096,0.21-0.211,0.21l0,0c-0.116,0-0.21-0.094-0.21-0.21v-5.19
						c0-0.116,0.094-0.211,0.21-0.211l0,0c0.115,0,0.211,0.095,0.211,0.211V8.239z"/>
					<path fill="#ACC2CC" d="M35.974,8.239c0,0.116-0.096,0.21-0.212,0.21l0,0c-0.116,0-0.21-0.094-0.21-0.21v-5.19
						c0-0.116,0.094-0.211,0.21-0.211l0,0c0.116,0,0.212,0.095,0.212,0.211V8.239z"/>
					<path fill="#ACC2CC" d="M38.148,8.239c0,0.116-0.096,0.21-0.211,0.21l0,0c-0.116,0-0.211-0.094-0.211-0.21v-5.19
						c0-0.116,0.095-0.211,0.211-0.211l0,0c0.115,0,0.211,0.095,0.211,0.211V8.239z"/>
					<path fill="#ACC2CC" d="M40.322,8.239c0,0.116-0.094,0.21-0.21,0.21l0,0c-0.116,0-0.211-0.094-0.211-0.21v-5.19
						c0-0.116,0.095-0.211,0.211-0.211l0,0c0.116,0,0.21,0.095,0.21,0.211V8.239z"/>
					<path fill="#ACC2CC" d="M42.497,8.239c0,0.116-0.095,0.21-0.21,0.21l0,0c-0.117,0-0.211-0.094-0.211-0.21v-5.19
						c0-0.116,0.094-0.211,0.211-0.211l0,0c0.115,0,0.21,0.095,0.21,0.211V8.239z"/>
				</g>
			</g>
			<circle fill="#86A9BC" cx="47.847" cy="9.706" r="3.039"/>
			<path fill="#809BAD" d="M47.847,12.746c-1.68,0-3.039-1.36-3.039-3.04c0-1.678,1.359-3.038,3.039-3.038"/>
		</g>
		<path fill="#A1C6D6" d="M22.06,54.374c0,1.082-0.877,1.959-1.959,1.959l0,0c-1.082,0-1.959-0.877-1.959-1.959V34.292
			c0-1.082,0.877-1.959,1.959-1.959l0,0c1.082,0,1.959,0.877,1.959,1.959V54.374z"/>
		<path fill="#A1C6D6" d="M22.06,59.687c0,1.082-0.877,1.959-1.959,1.959l0,0c-1.082,0-1.959-0.877-1.959-1.959v-0.541
			c0-1.082,0.877-1.959,1.959-1.959l0,0c1.082,0,1.959,0.877,1.959,1.959V59.687z"/>
	</g>
</g>
<g id="nyt_x5F_exporter_x5F_info" display="none">
</g>
</svg>
