<?xml version="1.0" encoding="utf-8"?>
<!-- Generator: Adobe Illustrator 16.0.0, SVG Export Plug-In . SVG Version: 6.00 Build 0)  -->
<!DOCTYPE svg PUBLIC "-//W3C//DTD SVG 1.1//EN" "http://www.w3.org/Graphics/SVG/1.1/DTD/svg11.dtd">
<svg version="1.1" id="Layer_1" xmlns="http://www.w3.org/2000/svg" xmlns:xlink="http://www.w3.org/1999/xlink" x="0px" y="0px"
	 width="64px" height="64px" viewBox="0 0 64 64" enable-background="new 0 0 64 64" xml:space="preserve">
<g>
	<g>
		<circle fill="#51D687" cx="32" cy="31.5" r="31.1"/>
		<path fill="#3CC676" d="M54,9.6c12.1,12.1,12.1,31.8,0,43.9c-12.1,12.1-31.8,12.1-43.9,0"/>
	</g>
	<g>
		<polygon fill="#C4A45B" points="54.6,21.7 54.3,21.5 53.5,18.4 32,9.3 10.4,18.4 9.9,21.4 9.4,21.7 0.9,52.7 32,63.5 63.1,52.7 		
			"/>
		<polyline fill="#E2C488" points="32,63.5 0.9,52.7 9.4,21.7 17.1,47.4 		"/>
		<polygon fill="#A88547" points="9.3,21.9 8.3,25.6 32,38.8 55.7,25.6 54.7,21.9 32,29.8 		"/>
		<polyline fill="#A88547" points="32,9.3 54.6,21.7 63.1,52.7 32,63.5 		"/>
		<polyline fill="#A88547" points="32,14.7 54.6,21.7 63.1,52.7 32.2,33.9 		"/>
		<polyline fill="#9E7738" points="32,33.9 55.7,25.6 54.7,21.9 32,29.8 		"/>
		<g>
			<polygon fill="#C4A45B" points="38,15.2 45.2,21.3 54.6,21.7 55.6,12.5 50.7,7.2 43.5,7.8 			"/>
		</g>
		<g>
			<polyline fill="#755B32" points="38,15.2 45.2,21.3 54.6,21.7 55.6,12.5 50.7,7.2 			"/>
		</g>
		<g>
			<polygon fill="#E2C488" points="25.9,15.2 18.8,21.3 9.4,21.7 8.4,12.5 13.2,7.2 20.4,7.8 			"/>
		</g>
		<g>
			<polyline fill="#755B32" points="25.9,15.2 18.8,21.3 9.4,21.7 8.4,12.5 13.2,7.2 			"/>
		</g>
		<g>
			<g>
				<polygon fill="#93275D" points="25,31 19,29 19,25.2 25,27.3 				"/>
				<polyline fill="#2F423F" points="25,27.3 25,31 19,29 				"/>
			</g>
			<g>
				<g>
					<polygon fill="#93275D" points="39,31 45,29 45,25.2 39,27.3 					"/>
				</g>
				<g>
					<polyline fill="#2F423F" points="39,31 45,29 45,25.2 					"/>
				</g>
			</g>
		</g>
		
			<rect x="28" y="39.2" transform="matrix(0.707 0.7072 -0.7072 0.707 39.9328 -11.4838)" fill="#A88547" width="11.6" height="6.4"/>
		<polygon fill="#A88547" points="33.7,59.6 21.9,47.8 32,45.6 38.3,55 		"/>
		<polyline fill="#A88547" points="32.4,30 18.8,21.3 25.8,15.2 32,14.6 		"/>
		<polygon fill="#93275D" points="36.5,41 27.5,41 26.4,36 37.6,36 		"/>
		<polygon fill="#2F423F" points="34.4,41 29.6,41 26.4,36 37.6,36 		"/>
		<polygon fill="#3F5450" points="34.4,37 29.6,37 26.4,36 37.6,36 		"/>
		<path fill="#2F423F" d="M41.4,46l-5.6-0.2l-3.4-1.4c-0.2-0.1-0.3-0.1-0.5-0.1c-0.2,0-0.3,0-0.5,0.1l-3.4,1.4L22.5,46
			c-0.6,0-1,0.5-1,1.1c0,0.6,0.5,1,1,1c0,0,0,0,0,0l5.8-0.2c0.1,0,0.2,0,0.4-0.1l3.2-1.3l3.2,1.3c0.1,0,0.2,0.1,0.4,0.1l5.8,0.2
			c0,0,0,0,0,0c0.6,0,1-0.4,1-1C42.5,46.5,42,46,41.4,46z"/>
		<polyline fill="#9E7738" points="32,63.5 63.1,52.7 54.6,21.7 46.9,47.4 		"/>
	</g>
</g>
</svg>
