<?xml version="1.0" encoding="utf-8"?>
<!-- Generator: Adobe Illustrator 16.0.0, SVG Export Plug-In . SVG Version: 6.00 Build 0)  -->
<!DOCTYPE svg PUBLIC "-//W3C//DTD SVG 1.1//EN" "http://www.w3.org/Graphics/SVG/1.1/DTD/svg11.dtd">
<svg version="1.1" xmlns="http://www.w3.org/2000/svg" xmlns:xlink="http://www.w3.org/1999/xlink" x="0px" y="0px" width="65px"
	 height="65px" viewBox="0 0 65 65" enable-background="new 0 0 65 65" xml:space="preserve">
<g id="Layer_1">
	<g>
		<polygon fill="#37B2F7" points="52.425,62.021 32.497,17.352 12.575,62.021 		"/>
		<polygon fill="#1C96E8" points="52.425,62.021 32.497,17.352 18.558,62.021 		"/>
		<path fill="#125B84" d="M39.348,60.604c0.013-0.33,0.026-0.662,0.026-1c0-6.902-3.077-12.5-6.874-12.5
			c-3.798,0-6.875,5.598-6.875,12.5c0,0.338,0.014,0.67,0.027,1H39.348z"/>
		<path fill="#084966" d="M35.667,48.516c-2.203,2.084-3.709,6.264-3.709,11.088c0,0.338,0.014,0.67,0.027,1h7.362
			c0.013-0.33,0.026-0.662,0.026-1C39.374,54.779,37.868,50.6,35.667,48.516z"/>
		<g>
			<g>
				<polygon fill="#65930C" points="7.671,62.021 4.086,58.436 0.5,62.021 				"/>
				<polygon fill="#65930C" points="12.042,62.021 8.457,58.436 4.87,62.021 				"/>
				<polygon fill="#65930C" points="16.414,62.021 12.828,58.436 9.241,62.021 				"/>
				<polygon fill="#65930C" points="20.785,62.021 17.201,58.436 13.615,62.021 				"/>
				<polygon fill="#65930C" points="25.156,62.021 21.572,58.436 17.985,62.021 				"/>
				<polygon fill="#65930C" points="29.527,62.021 25.943,58.436 22.356,62.021 				"/>
				<polygon fill="#65930C" points="33.9,62.021 30.314,58.436 26.728,62.021 				"/>
				<polygon fill="#65930C" points="38.271,62.021 34.685,58.436 31.101,62.021 				"/>
				<polygon fill="#65930C" points="42.644,62.021 39.06,58.436 35.474,62.021 				"/>
				<polygon fill="#65930C" points="47.014,62.021 43.43,58.436 39.843,62.021 				"/>
				<polygon fill="#65930C" points="51.384,62.021 47.802,58.436 44.215,62.021 				"/>
				<polygon fill="#65930C" points="55.758,62.021 52.171,58.436 48.586,62.021 				"/>
				<polygon fill="#65930C" points="60.129,62.021 56.542,58.436 52.957,62.021 				"/>
				<polygon fill="#65930C" points="64.5,62.021 60.914,58.436 57.328,62.021 				"/>
			</g>
		</g>
		<g>
			<g>
				<path fill="#997A59" d="M10.125,61.354h-0.007c-0.413-0.002-0.746-0.342-0.744-0.756C9.58,35.531,23.178,15.229,39.716,15.229
					c0.057,0,0.109,0,0.165,0c0.413,0.004,0.747,0.342,0.744,0.756c-0.003,0.412-0.339,0.744-0.751,0.744
					c-0.039,0.008-0.105,0-0.158,0c-15.719,0-28.643,19.637-28.842,43.881C10.872,61.021,10.536,61.354,10.125,61.354z"/>
			</g>
			<g>
				<path fill="#BA9675" d="M54.874,61.354h0.007c0.413-0.002,0.747-0.342,0.744-0.756c-0.206-25.066-13.804-45.369-30.343-45.369
					c-0.055,0-0.107,0-0.164,0c-0.413,0.004-0.746,0.342-0.744,0.756c0.004,0.412,0.34,0.744,0.751,0.744
					c0.039,0.008,0.106,0,0.159,0c15.719,0,28.642,19.637,28.841,43.881C54.128,61.021,54.464,61.354,54.874,61.354z"/>
			</g>
		</g>
		<g>
			<circle fill="#8FD7FF" cx="25" cy="41.854" r="0.75"/>
			<circle fill="#8FD7FF" cx="28.75" cy="41.854" r="0.75"/>
			<circle fill="#8FD7FF" cx="32.5" cy="41.854" r="0.75"/>
			<circle fill="#8FD7FF" cx="36.25" cy="41.854" r="0.75"/>
			<circle fill="#8FD7FF" cx="40" cy="41.854" r="0.75"/>
		</g>
		<path fill="#997A59" d="M33.125,16.729c0,0.346-0.279,0.625-0.625,0.625l0,0c-0.347,0-0.626-0.279-0.626-0.625V3.604
			c0-0.346,0.279-0.625,0.626-0.625l0,0c0.346,0,0.625,0.279,0.625,0.625V16.729z"/>
		<polygon fill="#FFA300" points="43.632,4.479 32.808,4.479 32.808,12.104 43.632,12.104 39.819,8.291 		"/>
	</g>
</g>
<g id="nyt_x5F_exporter_x5F_info" display="none">
</g>
</svg>
