<?xml version="1.0" encoding="utf-8"?>
<!-- Generator: Adobe Illustrator 16.0.0, SVG Export Plug-In . SVG Version: 6.00 Build 0)  -->
<!DOCTYPE svg PUBLIC "-//W3C//DTD SVG 1.1//EN" "http://www.w3.org/Graphics/SVG/1.1/DTD/svg11.dtd">
<svg version="1.1" id="Layer_1" xmlns="http://www.w3.org/2000/svg" xmlns:xlink="http://www.w3.org/1999/xlink" x="0px" y="0px"
	 width="64px" height="64px" viewBox="0 0 64 64" enable-background="new 0 0 64 64" xml:space="preserve">
<g>
	<g>
		<g>
			<g>
				<g>
					<g>
						<path fill="#F7910B" d="M62.3,39.8c0,13-11.9,23.5-30.3,23.5c-18.4,0-30.3-10.5-30.3-23.5S13.6,7.3,32,7.3
							C50.4,7.3,62.3,26.9,62.3,39.8z"/>
					</g>
					<g>
						<path fill="#F7910B" d="M62.3,39.8c0,13-11.9,19.5-30.3,19.5c-18.4,0-30.3-6.5-30.3-19.5S13.6,5.3,32,5.3
							C50.4,5.3,62.3,26.9,62.3,39.8z"/>
					</g>
					<g>
						<path fill="#F9A908" d="M32,5.3c18.4,0,30.3,21.5,30.3,34.5S50.4,59.3,32,59.3"/>
					</g>
					<g>
						<path fill="#F9A908" d="M62.3,39.8c0,13-11.9,19.5-30.3,19.5c-18.4,0-30.3-6.5-30.3-19.5S13.6,7.3,32,7.3
							C50.4,7.3,62.3,26.9,62.3,39.8z"/>
					</g>
					<g>
						<path fill="#F9C55D" d="M1.7,39.8c0-13,11.9-32.5,30.3-32.5"/>
					</g>
					<g>
						<path fill="#F7910B" d="M32,7.3c18.4,0,30.3,19.5,30.3,32.5S50.4,63.3,32,63.3"/>
					</g>
					<g>
						<path fill="#EA7103" d="M32,7.3c18.4,0,30.3,19.5,30.3,32.5"/>
					</g>
					<g>
						<g>
							<path fill="#F9C55D" d="M27.8,37.7c0,1.2-3.5,0.7-7.8,0.7c-4.3,0-7.8,0.6-7.8-0.7c0-1.2,3.5-2.2,7.8-2.2
								C24.3,35.4,27.8,36.4,27.8,37.7z"/>
						</g>
						<g>
							<path fill="#F9A908" d="M51.8,37.7c0,1.2-3.5,0.7-7.8,0.7s-7.8,0.6-7.8-0.7c0-1.2,3.5-2.2,7.8-2.2S51.8,36.4,51.8,37.7z"/>
						</g>
					</g>
					<g>
						<circle fill="#F7910B" cx="10.3" cy="36.8" r="0.6"/>
					</g>
					<g>
						<circle fill="#F7910B" cx="5.8" cy="38.8" r="1.1"/>
					</g>
					<g>
						<circle fill="#F7910B" cx="8.8" cy="34.8" r="0.2"/>
					</g>
					<g>
						<circle fill="#F7910B" cx="13.4" cy="36.6" r="0.2"/>
					</g>
					<g>
						<circle fill="#F9A908" cx="52.6" cy="37.2" r="0.8"/>
					</g>
					<g>
						<circle fill="#F9A908" cx="55.1" cy="38.5" r="0.2"/>
					</g>
					<g>
						<circle fill="#F9A908" cx="49.8" cy="29.7" r="0.3"/>
					</g>
					<g>
						<circle fill="#F9A908" cx="49.3" cy="41.4" r="1.3"/>
					</g>
					<g>
						<circle fill="#F9A908" cx="56.5" cy="41.4" r="0.6"/>
					</g>
					<g>
						<circle fill="#F7910B" cx="9.3" cy="40.8" r="0.5"/>
					</g>
					<g>
						<circle fill="#F7910B" cx="10.1" cy="32.4" r="0.4"/>
					</g>
					<g>
						<circle fill="#F9A908" cx="4.8" cy="18.7" r="1.1"/>
					</g>
					<g>
						<circle fill="#F9A908" cx="8" cy="15.1" r="0.6"/>
					</g>
					<g>
						<circle fill="#F9A908" cx="59.2" cy="21" r="0.2"/>
					</g>
					<g>
						<circle fill="#F9A908" cx="58.4" cy="18.1" r="0.8"/>
					</g>
					<g>
						<circle fill="#F9A908" cx="61" cy="18.7" r="0.5"/>
					</g>
					<g>
						<circle fill="#F9A908" cx="6" cy="21.6" r="0.6"/>
					</g>
				</g>
			</g>
		</g>
		<g>
			<g>
				<g>
					<g>
						<g>
							<g>
								<path fill="#1E4784" d="M47.3,36.4c-0.4,0-0.8-0.2-1.2-0.5c-1.4-1.4-3.7-1.4-5.1,0c-0.6,0.6-1.7,0.7-2.3,0
									c-0.6-0.6-0.7-1.7,0-2.3c2.7-2.7,7.1-2.7,9.8,0c0.6,0.6,0.6,1.7,0,2.3C48.1,36.2,47.7,36.4,47.3,36.4z"/>
							</g>
						</g>
						<g>
							<g>
								<path fill="#02243E" d="M48.4,33.6c0.6,0.6,0.6,1.7,0,2.3c-0.3,0.3-0.7,0.5-1.2,0.5c-0.4,0-0.8-0.2-1.2-0.5
									c-1.4-1.4-3.7-1.4-5.1,0c-0.6,0.6-1.7,0.7-2.3,0c-0.6-0.6-0.7-1.7,0-2.3"/>
							</g>
						</g>
					</g>
				</g>
			</g>
			<g>
				<g>
					<g>
						<g>
							<g>
								<path fill="#1E4784" d="M16.7,36.4c0.4,0,0.8-0.2,1.2-0.5c1.4-1.4,3.7-1.4,5.1,0c0.6,0.6,1.7,0.7,2.3,0
									c0.6-0.6,0.7-1.7,0-2.3c-2.7-2.7-7.1-2.7-9.8,0c-0.6,0.6-0.6,1.7,0,2.3C15.9,36.2,16.3,36.4,16.7,36.4z"/>
							</g>
						</g>
						<g>
							<g>
								<path fill="#02243E" d="M15.6,33.6c-0.6,0.6-0.6,1.7,0,2.3c0.3,0.3,0.7,0.5,1.2,0.5c0.4,0,0.8-0.2,1.2-0.5
									c1.4-1.4,3.7-1.4,5.1,0c0.6,0.6,1.7,0.7,2.3,0c0.6-0.6,0.7-1.7,0-2.3"/>
							</g>
						</g>
					</g>
				</g>
			</g>
		</g>
		<g>
			<path fill="#F7910B" d="M40.2,45.9c0,2.8-3.7,6.8-8.2,6.8c-4.6,0-8.3-4-8.3-6.8"/>
		</g>
		<g>
			<g>
				<g>
					<path fill="#037A66" d="M17.6,20.2c0.4,0.7,1.9-0.7,3.9-2c2.1-1.3,3.9-2,3.5-2.6c-0.4-0.7-3.4-1.7-5.4-0.4
						C17.6,16.5,17.2,19.6,17.6,20.2z"/>
				</g>
			</g>
			<g>
				<g>
					<path fill="#037A66" d="M46.4,20.2c-0.4,0.7-1.9-0.7-3.9-2c-2.1-1.3-3.9-2-3.5-2.6c0.4-0.7,3.4-1.7,5.4-0.4
						C46.4,16.5,46.8,19.6,46.4,20.2z"/>
				</g>
			</g>
		</g>
		<g>
			<polygon fill="#D14905" points="39.1,46 32,50.9 24.9,46 32,36.4 			"/>
		</g>
		<g>
			<polygon fill="#F77F08" points="39.1,46 32,47.4 24.9,46 32,36.4 			"/>
		</g>
		<g>
			<polyline fill="#F95D06" points="32,36.4 39.1,46 32,47.4 			"/>
		</g>
	</g>
	<g>
		<path fill="#0DB796" d="M31.9,14.7c0,0-1.9-6.1-9.2-9.5c-6.6-3.1,5.7-7,7.8-2.3c0,0,0-2.4,2.2-1.8c2.4,0.6,2.8,1.3,3,2.8
			c0,0,1.3-2.3,2.7-0.2c1.9,3-0.2,5.8-3,7.2C32.6,12.2,31.9,14.7,31.9,14.7z"/>
	</g>
	<g>
		<path fill="#037A66" d="M35.8,5.1c-0.2-1.5-0.6-2.2-3-2.8c-2.1-0.6-2.2,1.8-2.2,1.8C29,0.7,22.2,1.8,21,3.8
			c0.3,0.4,0.8,0.9,1.7,1.4c7.2,3.4,9.2,9.5,9.2,9.5s0.7-2.5,3.5-3.8c1.9-0.9,3.4-2.4,3.7-4.2c-0.1-0.6-0.3-1.1-0.7-1.7
			C37.1,2.8,35.8,5.1,35.8,5.1z"/>
	</g>
</g>
</svg>
