<?xml version="1.0" encoding="utf-8"?>
<!-- Generator: Adobe Illustrator 16.0.0, SVG Export Plug-In . SVG Version: 6.00 Build 0)  -->
<!DOCTYPE svg PUBLIC "-//W3C//DTD SVG 1.1//EN" "http://www.w3.org/Graphics/SVG/1.1/DTD/svg11.dtd">
<svg version="1.1" id="Layer_1" xmlns="http://www.w3.org/2000/svg" xmlns:xlink="http://www.w3.org/1999/xlink" x="0px" y="0px"
	 width="64px" height="64px" viewBox="0 0 64 64" enable-background="new 0 0 64 64" xml:space="preserve">
<g>
	<g>
		<g>
			<g>
				<g>
					<circle fill="#C6E0DE" cx="32" cy="32" r="27.1"/>
					<path fill="#B6D3D2" d="M12.8,12.9c10.6-10.6,27.7-10.6,38.3,0c10.6,10.6,10.6,27.7,0,38.3"/>
				</g>
			</g>
		</g>
	</g>
	<g>
		<path fill="#D60909" d="M62.7,24C57.3,13,45.6,4.5,32,4.5C18.4,4.5,6.7,13,1.3,24H62.7z"/>
		<path fill="#B70B0B" d="M1,24h61.7C57.3,13,45.4,4.5,31.9,4.5"/>
		<path fill="#FF9100" d="M49.1,24C46.1,13,39.6,4.5,32,4.5C24.4,4.5,17.9,13,14.9,24H49.1z"/>
		<path fill="#E04F07" d="M15,24h34.1c-3-11-9.5-19.5-17-19.5"/>
		<path fill="#D60909" d="M36.5,24C35.7,13,34,4.5,32,4.5S28.3,13,27.5,24H36.5z"/>
		<path fill="#B70B0B" d="M28,24h8.5c-0.8-11-2.3-19.5-4.2-19.5"/>
		<g>
			<path fill="#00233F" d="M33,26h-3v23.8c0,3.1,2.3,5.7,5.4,5.7s5.4-2.5,5.4-5.5h-3c0,1-0.9,2.5-2.4,2.5S33,51.2,33,49.8V26z"/>
		</g>
		<circle fill="#00233F" cx="39.3" cy="47.8" r="3"/>
	</g>
</g>
</svg>
