<?xml version="1.0" encoding="utf-8"?>
<!-- Generator: Adobe Illustrator 16.0.0, SVG Export Plug-In . SVG Version: 6.00 Build 0)  -->
<!DOCTYPE svg PUBLIC "-//W3C//DTD SVG 1.1//EN" "http://www.w3.org/Graphics/SVG/1.1/DTD/svg11.dtd">
<svg version="1.1" id="Layer_1" xmlns="http://www.w3.org/2000/svg" xmlns:xlink="http://www.w3.org/1999/xlink" x="0px" y="0px"
	 width="64px" height="64px" viewBox="0 0 64 64" enable-background="new 0 0 64 64" xml:space="preserve">
<g>
	<g>
		<polygon fill="#76E83A" points="32,6.1 1.5,58 62.5,58 		"/>
		<polygon fill="#3DCE20" points="32,13.4 1.5,58 62.5,58 		"/>
		<polygon fill="#0FB213" points="32,19.9 1.5,58 62.5,58 		"/>
		<path fill="#2F5068" d="M62.5,59h-61c-0.4,0-0.7-0.2-0.9-0.5c-0.2-0.3-0.2-0.7,0-1L31.1,5.5c0.4-0.6,1.4-0.6,1.7,0l30.5,51.9
			c0.2,0.3,0.2,0.7,0,1C63.2,58.8,62.9,59,62.5,59z M3.2,57h57.6L32,8L3.2,57z"/>
	</g>
	<g>
		<circle fill="#87C2CC" cx="32" cy="41.2" r="16.3"/>
		<path fill="#5F9AA0" d="M32,24.9c9,0,16.3,7.3,16.3,16.3c0,9-7.3,16.3-16.3,16.3"/>
		<path fill="#2F5068" d="M32,58.4c-9.5,0-17.3-7.7-17.3-17.3S22.5,23.9,32,23.9s17.3,7.7,17.3,17.3S41.5,58.4,32,58.4z M32,25.9
			c-8.4,0-15.3,6.9-15.3,15.3S23.6,56.4,32,56.4c8.4,0,15.3-6.9,15.3-15.3S40.4,25.9,32,25.9z"/>
	</g>
	<g>
		<g>
			<g>
				<g>
					<polygon fill="#4DDFF7" points="41,46.5 32,51.9 23,46.5 23,35.8 32,30.4 41,35.8 					"/>
					<polyline fill="#4BF9F4" points="23,47 23,35.8 32.1,30.4 41.5,36 					"/>
					<path fill="#2F5068" d="M32,52.9c-0.2,0-0.3,0-0.5-0.1l-9.2-5.4C22,47.2,22,46.9,22,46.5V35.8c0-0.4,0-0.7,0.4-0.9l9.2-5.4
						c0.3-0.2,0.6-0.2,1,0l9.1,5.4c0.3,0.2,0.3,0.5,0.3,0.9v10.7c0,0.4,0,0.7-0.4,0.9l-9.2,5.4C32.3,52.8,32.2,52.9,32,52.9z M24,46
						l8,4.8l8-4.8v-9.6l-8-4.8l-8,4.8V46z"/>
				</g>
			</g>
		</g>
		<g>
			<g>
				<path fill="#2F5068" d="M41,47c-0.2,0-0.7,0-0.9-0.1L32,42.2L23.8,47c-0.5,0.3-1,0-1.3-0.5c-0.3-0.5-0.1-1,0.4-1.3l8.7-5
					c0.3-0.2,0.7-0.2,1,0l8.5,4.9c0.5,0.3,1,0.9,0.7,1.3C41.6,46.8,41.3,47,41,47z"/>
			</g>
			<g>
				<line fill="#EA789B" x1="32" y1="41" x2="32" y2="31"/>
				<path fill="#2F5068" d="M32,42.2c-0.5,0-1-0.4-1-1V30.6c0-0.5,0.5-1,1-1s1,0.4,1,1v10.5C33,41.7,32.5,42.2,32,42.2z"/>
			</g>
		</g>
		<g>
			<g>
				<path fill="#2F5068" d="M32,42.1c-0.2,0-0.3,0-0.5-0.1l-8.7-5c-0.5-0.3-0.6-1-0.3-1.4c0.3-0.5,0.7-0.6,1.2-0.3L32,40l8.1-4.7
					c0.5-0.3,0.9-0.1,1.2,0.4c0.3,0.5,0.3,1-0.2,1.3l-8.7,5C32.3,42.1,32.2,42.1,32,42.1z"/>
			</g>
			<g>
				<line fill="#76E83A" x1="32" y1="41" x2="32" y2="52"/>
				<path fill="#2F5068" d="M32,52.6c-0.5,0-1-0.4-1-1V41.1c0-0.5,0.5-1,1-1s1,0.4,1,1v10.5C33,52.2,32.5,52.6,32,52.6z"/>
			</g>
		</g>
	</g>
</g>
</svg>
