<?xml version="1.0" encoding="utf-8"?>
<!-- Generator: Adobe Illustrator 16.0.0, SVG Export Plug-In . SVG Version: 6.00 Build 0)  -->
<!DOCTYPE svg PUBLIC "-//W3C//DTD SVG 1.1//EN" "http://www.w3.org/Graphics/SVG/1.1/DTD/svg11.dtd">
<svg version="1.1" id="Layer_1" xmlns="http://www.w3.org/2000/svg" xmlns:xlink="http://www.w3.org/1999/xlink" x="0px" y="0px"
	 width="64px" height="64px" viewBox="0 0 64 64" enable-background="new 0 0 64 64" xml:space="preserve">
<g>
	<g>
		<g>
			<g>
				<g>
					<path fill="#F7910B" d="M62.3,40c0,13-11.9,23.5-30.3,23.5C13.6,63.5,1.7,52.9,1.7,40S13.6,7.5,32,7.5
						C50.4,7.5,62.3,27,62.3,40z"/>
				</g>
				<g>
					<path fill="#F7910B" d="M62.3,40c0,13-11.9,19.5-30.3,19.5C13.6,59.5,1.7,52.9,1.7,40S13.6,5.5,32,5.5
						C50.4,5.5,62.3,27,62.3,40z"/>
				</g>
				<g>
					<path fill="#F9A908" d="M32,5.5C50.4,5.5,62.3,27,62.3,40S50.4,59.5,32,59.5"/>
				</g>
				<g>
					<path fill="#F9A908" d="M62.3,40c0,13-11.9,19.5-30.3,19.5C13.6,59.5,1.7,52.9,1.7,40S13.6,7.5,32,7.5
						C50.4,7.5,62.3,27,62.3,40z"/>
				</g>
				<g>
					<path fill="#F9C55D" d="M1.7,40C1.7,27,13.6,7.5,32,7.5"/>
				</g>
				<g>
					<path fill="#F7910B" d="M32,7.5C50.4,7.5,62.3,27,62.3,40S50.4,63.5,32,63.5"/>
				</g>
				<g>
					<path fill="#EA7103" d="M32,7.5C50.4,7.5,62.3,27,62.3,40"/>
				</g>
				<g>
					<g>
						<circle fill="#EA7103" cx="21.6" cy="36" r="3.2"/>
					</g>
					<g>
						<circle fill="#EA7103" cx="42.4" cy="36" r="3.2"/>
					</g>
					<g>
						<circle fill="#1E4784" cx="21.6" cy="35.1" r="3.2"/>
					</g>
					<g>
						<path fill="#00233F" d="M21.6,31.9c1.8,0,3.2,1.4,3.2,3.2s-1.4,3.2-3.2,3.2"/>
					</g>
					<g>
						<circle fill="#1E4784" cx="42.4" cy="35.1" r="3.2"/>
					</g>
					<g>
						<path fill="#00233F" d="M42.4,31.9c1.8,0,3.2,1.4,3.2,3.2s-1.4,3.2-3.2,3.2"/>
					</g>
				</g>
				<g>
					<g>
						<g>
							<g>
								<g>
									<g>
										<path fill="#19BCA4" d="M27.4,27.6c-0.5,1.2-2.3-0.2-4.9-1.2c-2.6-1-4.9-1.2-4.4-2.4c0.5-1.2,2.9-1.4,5.5-0.4
											C26.2,24.5,27.9,26.3,27.4,27.6z"/>
									</g>
								</g>
							</g>
						</g>
						<g>
							<g>
								<g>
									<g>
										<path fill="#109DA0" d="M27.4,27.6c-0.5,1.2-2.3-0.2-4.9-1.2c-2.6-1-4.9-1.2-4.4-2.4"/>
									</g>
								</g>
							</g>
						</g>
					</g>
					<g>
						<g>
							<g>
								<g>
									<g>
										<path fill="#19BCA4" d="M36.4,30.9c0.4,1.3,2.3,0,4.9-0.9c2.6-0.8,4.9-0.9,4.5-2.1c-0.4-1.3-2.8-1.6-5.4-0.8
											C37.8,27.9,36,29.6,36.4,30.9z"/>
									</g>
								</g>
							</g>
						</g>
						<g>
							<g>
								<g>
									<g>
										<path fill="#109DA0" d="M36.4,30.9c0.4,1.3,2.3,0,4.9-0.9c2.6-0.8,4.9-0.9,4.5-2.1"/>
									</g>
								</g>
							</g>
						</g>
					</g>
				</g>
				<g>
					<g>
						<path fill="#F9C55D" d="M27.8,41.2c0,1.2-3.5,0.7-7.8,0.7c-4.3,0-7.8,0.6-7.8-0.7S15.7,39,20,39C24.3,39,27.8,40,27.8,41.2z"
							/>
					</g>
					<g>
						<path fill="#F9A908" d="M51.8,41.2c0,1.2-3.5,0.7-7.8,0.7s-7.8,0.6-7.8-0.7S39.7,39,44,39S51.8,40,51.8,41.2z"/>
					</g>
				</g>
				<g>
					<path fill="#F7910B" d="M40,48.7c0,4.8-3.6,8.8-8,8.8c-4.4,0-8-3.9-8-8.8"/>
				</g>
				<g>
					<circle fill="#F7910B" cx="10.3" cy="36.9" r="0.6"/>
				</g>
				<g>
					<circle fill="#F7910B" cx="5.8" cy="38.9" r="1.1"/>
				</g>
				<g>
					<circle fill="#F7910B" cx="8.8" cy="34.9" r="0.2"/>
				</g>
				<g>
					<circle fill="#F7910B" cx="13.4" cy="36.7" r="0.2"/>
				</g>
				<g>
					<circle fill="#F9A908" cx="52.6" cy="37.3" r="0.8"/>
				</g>
				<g>
					<circle fill="#F9A908" cx="55.1" cy="38.7" r="0.2"/>
				</g>
				<g>
					<circle fill="#F9A908" cx="49.8" cy="29.9" r="0.3"/>
				</g>
				<g>
					<circle fill="#F9A908" cx="49.3" cy="41.5" r="1.3"/>
				</g>
				<g>
					<circle fill="#F9A908" cx="56.5" cy="41.5" r="0.6"/>
				</g>
				<g>
					<circle fill="#F7910B" cx="9.3" cy="41" r="0.5"/>
				</g>
				<g>
					<circle fill="#F7910B" cx="10.1" cy="32.5" r="0.4"/>
				</g>
				<g>
					<circle fill="#F9A908" cx="4.8" cy="18.8" r="1.1"/>
				</g>
				<g>
					<circle fill="#F9A908" cx="8" cy="15.2" r="0.6"/>
				</g>
				<g>
					<circle fill="#F9A908" cx="59.2" cy="21.2" r="0.2"/>
				</g>
				<g>
					<circle fill="#F9A908" cx="58.4" cy="18.2" r="0.8"/>
				</g>
				<g>
					<circle fill="#F9A908" cx="61" cy="18.8" r="0.5"/>
				</g>
				<g>
					<circle fill="#F9A908" cx="6" cy="21.7" r="0.6"/>
				</g>
			</g>
		</g>
	</g>
	<g>
		<g>
			<g>
				<path fill="#00233F" d="M32,44.2c0,0-6.7-3.2-11.8,1.8c-6,5.8-10.5,1.2-10.5,1.2s0.8,8.4,13.2,8.2c5.5-0.1,9.2-5.4,9.2-5.4V44.2
					z"/>
			</g>
			<g>
				<path fill="#1E4784" d="M32,44.9L32,44.9c-1-0.2-7-0.8-10.2,4.1c-3.7,5.7-8,4-9.2,3.4c1.1,1,2.7,1.9,4.9,2.4
					c1.7-0.4,3.5-1.6,5-4.7C25.1,45.1,30,44.8,32,44.9z"/>
			</g>
			<g>
				<path fill="#1E4784" d="M10.4,48.1c0,0,4.5,4.6,10.5-1.2c4.1-4,9.1-2.7,11.1-2v-0.7c0,0-6.7-3.2-11.8,1.8
					c-6,5.8-10.5,1.2-10.5,1.2s0.2,2.1,2,4.3C10.5,49.6,10.4,48.1,10.4,48.1z"/>
			</g>
		</g>
		<g>
			<g>
				<path fill="#00233F" d="M32,44.2c0,0,6.7-3.2,11.8,1.8c6,5.8,10.5,1.2,10.5,1.2s-0.8,8.4-13.2,8.2c-5.5-0.1-9.2-5.4-9.2-5.4
					V44.2z"/>
			</g>
			<g>
				<path fill="#1E4784" d="M32,44.9L32,44.9c1-0.2,7-0.8,10.2,4.1c3.7,5.7,8,4,9.2,3.4c-1.1,1-2.7,1.9-4.9,2.4
					c-1.7-0.4-3.5-1.6-5-4.7C38.9,45.1,34,44.8,32,44.9z"/>
			</g>
			<g>
				<path fill="#1E4784" d="M53.6,48.1c0,0-4.5,4.6-10.5-1.2c-4.1-4-9.1-2.7-11.1-2v-0.7c0,0,6.7-3.2,11.8,1.8
					c6,5.8,10.5,1.2,10.5,1.2s-0.2,2.1-2,4.3C53.5,49.6,53.6,48.1,53.6,48.1z"/>
			</g>
		</g>
	</g>
	<g>
		<circle fill="#1E4784" cx="42.8" cy="35.7" r="5.8"/>
	</g>
	<g>
		<circle fill="#9EC6C1" cx="42.8" cy="35.7" r="4.4"/>
	</g>
	<g>
		<circle fill="#C1DBD8" cx="43.2" cy="36" r="3.9"/>
	</g>
	<g>
		<path fill="#D8EAE7" d="M46,33.3c1.5,1.5,1.5,4,0,5.5c-1.5,1.5-4,1.5-5.5,0"/>
	</g>
	<g>
		<g>
			<path fill="#1E4784" d="M15,17.5c0-9.4,7.6-17,17-17c9.4,0,17,7.6,17,17"/>
		</g>
		<g>
			<path fill="#00233F" d="M32,18h17C49,8,41,0.6,32,0.5V18z"/>
		</g>
		<g>
			<path fill="#00233F" d="M61.3,16.1c0,3.4-13.1,6.1-29.3,6.1c-16.2,0-29.3-2.7-29.3-6.1S15.8,13,32,13
				C48.2,13,61.3,12.7,61.3,16.1z"/>
		</g>
	</g>
	<g>
		<g>
			<rect x="48.9" y="31.8" fill="#1E4784" width="1.9" height="1.9"/>
		</g>
		<g>
			<rect x="51.4" y="29.4" fill="#1E4784" width="1.9" height="1.9"/>
		</g>
		<g>
			<rect x="53.9" y="26.9" fill="#1E4784" width="1.9" height="1.9"/>
		</g>
	</g>
	<g>
		<path fill="#00233F" d="M53.1,13.5c0,1.6-1.3,2.5-2.8,2.5h-36c-1.6,0-2.8-0.9-2.8-2.5l0,0c0-1.6,1.3-2.5,2.8-2.5h36
			C51.8,11,53.1,11.9,53.1,13.5L53.1,13.5z"/>
	</g>
	<g>
		<g>
			<rect x="59" y="26.6" fill="#1E4784" width="1.9" height="1.9"/>
		</g>
		<g>
			<rect x="56.6" y="24.2" fill="#1E4784" width="1.9" height="1.9"/>
		</g>
		<g>
			<rect x="54.1" y="21.7" fill="#1E4784" width="1.9" height="1.9"/>
		</g>
	</g>
</g>
</svg>
