<?xml version="1.0" encoding="utf-8"?>
<!-- Generator: Adobe Illustrator 16.0.0, SVG Export Plug-In . SVG Version: 6.00 Build 0)  -->
<!DOCTYPE svg PUBLIC "-//W3C//DTD SVG 1.1//EN" "http://www.w3.org/Graphics/SVG/1.1/DTD/svg11.dtd">
<svg version="1.1" id="Layer_1" xmlns="http://www.w3.org/2000/svg" xmlns:xlink="http://www.w3.org/1999/xlink" x="0px" y="0px"
	 width="64px" height="64px" viewBox="0 0 64 64" enable-background="new 0 0 64 64" xml:space="preserve">
<g>
	<path fill="#19DAF4" d="M47.8,38.5L47.8,38.5L32,1.1L16.2,38.4l0.1,0.1c-1,2.2-1.5,4.6-1.5,7.1c0,9.6,7.7,17.3,17.3,17.3
		s17.3-7.7,17.3-17.3C49.3,43,48.7,40.6,47.8,38.5z"/>
	<path fill="#0DC7CC" d="M32,62.9c9.6,0,17.3-7.7,17.3-17.3c0-2.5-0.6-5-1.5-7.1l0.1-0.1L32,1.1"/>
	<g>
		<path fill="#0DC7CC" d="M20.4,44.3c0,6.1,4.9,11,11,11"/>
		<path fill="#19DAF4" d="M43.6,44.3c0,6.1-4.9,11-11,11"/>
	</g>
</g>
</svg>
