<?xml version="1.0" encoding="utf-8"?>
<!-- Generator: Adobe Illustrator 16.0.0, SVG Export Plug-In . SVG Version: 6.00 Build 0)  -->
<!DOCTYPE svg PUBLIC "-//W3C//DTD SVG 1.1//EN" "http://www.w3.org/Graphics/SVG/1.1/DTD/svg11.dtd">
<svg version="1.1" id="Layer_1" xmlns="http://www.w3.org/2000/svg" xmlns:xlink="http://www.w3.org/1999/xlink" x="0px" y="0px"
	 width="64px" height="64px" viewBox="0 0 64 64" enable-background="new 0 0 64 64" xml:space="preserve">
<g>
	<g>
		<circle fill="#28EAA0" cx="32" cy="24.3" r="20.5"/>
		<g>
			<path fill="#F9A908" d="M58,24.4c0-1.7-1-3.1-2.5-3.7c-0.6-4.1-2-7.1-3.8-7.1c-1,0-1.8,1.4-2.5,2.4H41V9.7c1-0.7,2.3-1.6,2.3-2.5
				c0-1.7-3-3.2-7.1-3.8c-0.6-1.5-2.1-2.5-3.7-2.5c-1.7,0-3.1,1-3.7,2.5c-4.1,0.6-7.1,2-7.1,3.8c0,1,0.4,1.9,2.4,2.6V16h-9.2
				c-0.7-1-1.6-2.4-2.5-2.4c-1.7,0-3.2,3-3.8,7.1c-1.5,0.6-2.5,2-2.5,3.7c0,1.7,1,3.1,2.5,3.7c0.6,4.1,2,7.2,3.8,7.2
				c1,0,1.8-1.3,2.5-2.3H24v21.3c-2,0.7-2.4,1.6-2.4,2.6c0,1.7,3,3.2,7.1,3.8c0.6,1.5,2,2.5,3.7,2.5c1.7,0,3.1-1,3.7-2.5
				c4.1-0.6,7.2-2,7.2-3.8c0-1-1.3-1.8-2.3-2.5V33h8.2c0.7,1,1.6,2.3,2.5,2.3c1.7,0,3.2-3,3.8-7.1C56.9,27.6,58,26.1,58,24.4z"/>
			<path fill="#E88705" d="M41,54V33h8.2c0.7,1,1.6,2.3,2.5,2.3c1.7,0,3.2-3,3.8-7.1c1.5-0.6,2.5-2.1,2.5-3.7s-1-3.1-2.5-3.7
				c-0.6-4.1-2-7.1-3.8-7.1c-1,0-1.8,1.4-2.5,2.4H41V9.7c1-0.7,2.3-1.6,2.3-2.5c0-1.7-3-3.2-7.1-3.8c-0.6-1.5-2.1-2.5-3.7-2.5
				c-1.7,0-3.1,1-3.7,2.5c-4.1,0.6-7.1,2-7.1,3.8c0,1,0.4,1.9,2.4,2.6V16h-9.2c-0.7-1-1.6-2.4-2.5-2.4"/>
			<path fill="#D87805" d="M41,33h8.2c0.7,1,1.6,2.3,2.5,2.3c1.7,0,3.2-3,3.8-7.1c1.5-0.6,2.5-2.1,2.5-3.7s-1-3.1-2.5-3.7
				c-0.6-4.1-2-7.1-3.8-7.1c-1,0-1.8,1.4-2.5,2.4H41V9.7c1-0.7,2.3-1.6,2.3-2.5c0-1.7-3-3.2-7.1-3.8c-0.6-1.5-2.1-2.5-3.7-2.5
				c-1.7,0-3.1,1-3.7,2.5c-4.1,0.6-7.1,2-7.1,3.8c0,1,0.4,1.9,2.4,2.6V16"/>
			<line fill="#E88705" x1="24" y1="33" x2="24" y2="54"/>
			<g>
				<path fill="#F7D74F" d="M41,18h8.1c0.7-1,1.6-2.3,2.5-2.3c1.7,0,3.2,3,3.8,7.2c1.1,0.5,2,1.5,2.3,2.6c0.1-0.4,0.2-0.7,0.2-1.1
					c0-1.7-1-3.1-2.5-3.7c-0.6-4.1-2-7.1-3.8-7.1c-1,0-1.8,1.4-2.5,2.4H41V18z"/>
				<path fill="#F7D74F" d="M28.7,5.6c0.6-1.5,2-2.5,3.7-2.5c1.7,0,3.1,1,3.7,2.5c3.2,0.4,5.7,1.4,6.7,2.7c0.3-0.4,0.5-0.7,0.5-1.1
					c0-1.7-3-3.2-7.1-3.8c-0.6-1.5-2.1-2.5-3.7-2.5c-1.7,0-3.1,1-3.7,2.5c-4.1,0.6-7.1,2-7.1,3.8c0,0.4,0.2,0.8,0.4,1.1
					C23,7.1,25.5,6.1,28.7,5.6z"/>
				<path fill="#F7D74F" d="M8.5,22.9c0.6-4.1,2-7.2,3.8-7.2c1,0,1.8,1.3,2.5,2.3H24v-2h-9.2c-0.7-1-1.6-2.4-2.5-2.4
					c-1.7,0-3.2,3-3.8,7.1c-1.5,0.6-2.5,2-2.5,3.7c0,0.4,0.1,0.8,0.2,1.1C6.5,24.4,7.4,23.4,8.5,22.9z"/>
				<path fill="#F7D74F" d="M24,56.5v-2.2c-2,0.7-2.4,1.6-2.4,2.6c0,0.4,0.2,0.8,0.4,1.1C22.4,57.4,23,57,24,56.5z"/>
				<path fill="#F7D74F" d="M41,54.3v2.2c1,0.4,1.5,0.9,1.9,1.4c0.3-0.4,0.5-0.7,0.5-1.1C43.3,55.9,42,55,41,54.3z"/>
			</g>
		</g>
	</g>
	<g>
		<circle fill="#FFEB97" cx="32" cy="24.5" r="1.1"/>
		<circle fill="#FFEB97" cx="32" cy="30.6" r="1.1"/>
		<circle fill="#FFEB97" cx="32" cy="36.6" r="1.1"/>
	</g>
</g>
</svg>
