<?xml version="1.0" encoding="utf-8"?>
<!-- Generator: Adobe Illustrator 16.0.0, SVG Export Plug-In . SVG Version: 6.00 Build 0)  -->
<!DOCTYPE svg PUBLIC "-//W3C//DTD SVG 1.1//EN" "http://www.w3.org/Graphics/SVG/1.1/DTD/svg11.dtd">
<svg version="1.1" id="Layer_1" xmlns="http://www.w3.org/2000/svg" xmlns:xlink="http://www.w3.org/1999/xlink" x="0px" y="0px"
	 width="64px" height="64px" viewBox="0 0 64 64" enable-background="new 0 0 64 64" xml:space="preserve">
<g>
	<g>
		<g>
			<path fill="#F4BD22" d="M24.2,50.1c-11.6,0-21-9.4-21-21s9.4-21,21-21s21,9.4,21,21S35.8,50.1,24.2,50.1z M24.2,12.6
				c-9.1,0-16.5,7.4-16.5,16.5s7.4,16.5,16.5,16.5s16.5-7.4,16.5-16.5S33.3,12.6,24.2,12.6z"/>
		</g>
		<g>
			<path fill="#FFEE76" d="M24.6,46.6c9.1,0,16.5-7.4,16.5-16.5c0-2.3-0.5-4.5-1.3-6.5c0.6,1.7,1,3.6,1,5.5
				c0,9.1-7.4,16.5-16.5,16.5c-6.8,0-12.6-4.1-15.1-10C11.3,42,17.4,46.6,24.6,46.6z"/>
			<path fill="#FFEE76" d="M3.6,30.1c0-11.6,9.4-21,21-21c8.7,0,16.1,5.3,19.3,12.8c-3-8-10.7-13.8-19.7-13.8c-11.6,0-21,9.4-21,21
				c0,2.9,0.6,5.7,1.7,8.2C4.1,35.1,3.6,32.6,3.6,30.1z"/>
		</g>
		<path fill="#F8991E" d="M24.2,8.1c-0.1,0-0.2,0-0.2,0v4.5c0,0,0.1,0,0.2,0c9.1,0,16.5,7.4,16.5,16.5s-7.4,16.5-16.5,16.5
			c-0.1,0-0.2,0-0.2,0v4.5c0,0,0.1,0,0.2,0c11.6,0,21-9.4,21-21S35.8,8.1,24.2,8.1z"/>
	</g>
	<g>
		<g>
			<path fill="#F8991E" d="M24.9,56.4c-8.2-8.2-8.2-21.5,0-29.7c8.2-8.2,21.5-8.2,29.7,0s8.2,21.5,0,29.7
				C46.5,64.6,33.1,64.6,24.9,56.4z M51.4,29.9c-6.4-6.4-16.9-6.4-23.3,0c-6.4,6.4-6.4,16.9,0,23.3c6.4,6.4,16.9,6.4,23.3,0
				C57.9,46.7,57.9,36.3,51.4,29.9z"/>
		</g>
		<g>
			<path fill="#FFEE76" d="M27.7,54.1c6.4,6.4,16.9,6.4,23.3,0c1.6-1.6,2.8-3.5,3.6-5.5c-0.8,1.6-1.8,3.2-3.2,4.6
				c-6.4,6.4-16.9,6.4-23.3,0c-4.8-4.8-6-11.8-3.6-17.8C21.6,41.5,22.6,49.1,27.7,54.1z"/>
			<path fill="#FFEE76" d="M24.5,27.6c8.2-8.2,21.5-8.2,29.7,0c6.1,6.1,7.7,15.1,4.6,22.7c3.6-7.8,2.2-17.3-4.2-23.7
				c-8.2-8.2-21.5-8.2-29.7,0c-2.1,2.1-3.6,4.5-4.6,7C21.3,31.5,22.7,29.4,24.5,27.6z"/>
		</g>
	</g>
	<g>
		<g>
			<polygon fill="#EF683F" points="28.9,1 31.8,4.4 24.2,11 16.6,4.4 19.5,1 			"/>
			<polygon fill="#EF683F" points="28.9,1 31.8,4.4 24.2,11 16.6,4.4 19.5,1 			"/>
			<polyline fill="#E84621" points="31.8,4.4 24.2,11.1 16.6,4.4 			"/>
			<polygon fill="#EF683F" points="28.9,1 28.7,4.2 24.2,11 20,4.1 19.5,1 			"/>
			<polygon fill="#EA1F0A" points="28.9,1 28.7,4.2 24.2,1.4 20,4.1 19.5,1 			"/>
			<polyline fill="#AA2011" points="28.7,4.4 24.2,11.1 20,4.4 			"/>
			<g>
				<polyline fill="#EDA785" points="18.1,4.4 24.2,11.1 16.6,4.4 19.5,1 				"/>
				<polyline fill="#AA2011" points="30.3,4.4 24.2,11.1 31.8,4.4 28.9,1 				"/>
			</g>
		</g>
	</g>
</g>
</svg>
