<?xml version="1.0" encoding="utf-8"?>
<!-- Generator: Adobe Illustrator 16.0.0, SVG Export Plug-In . SVG Version: 6.00 Build 0)  -->
<!DOCTYPE svg PUBLIC "-//W3C//DTD SVG 1.1//EN" "http://www.w3.org/Graphics/SVG/1.1/DTD/svg11.dtd">
<svg version="1.1" id="Layer_1" xmlns="http://www.w3.org/2000/svg" xmlns:xlink="http://www.w3.org/1999/xlink" x="0px" y="0px"
	 width="65px" height="65px" viewBox="0 0 65 65" enable-background="new 0 0 65 65" xml:space="preserve">
<g>
	<g>
		<path fill="#F9C1AC" d="M48.795,22.791c0.045-0.426,0.076-0.857,0.076-1.309c0-8-7.331-20.439-16.369-20.439
			c-9.041,0-16.373,12.439-16.373,20.439c0,0.451,0.031,0.883,0.076,1.309H48.795z"/>
	</g>
	<g>
		<g>
			<g>
				<g>
					<path fill="#0987C6" d="M31.106,25.826c1.272,1.432,0.464,4.229-1.806,6.25c-2.27,2.018-14.475,10.793-15.75,9.365
						c-1.271-1.434,8.872-12.533,11.143-14.551C26.961,24.873,29.832,24.396,31.106,25.826z"/>
					<path fill="#0987C6" d="M33.895,25.826c-1.275,1.432-0.465,4.229,1.805,6.25c2.27,2.018,14.474,10.793,15.75,9.365
						c1.271-1.434-8.873-12.533-11.144-14.551C38.039,24.873,35.168,24.396,33.895,25.826z"/>
				</g>
				<g>
					<path fill="#0A6CC4" d="M29.473,45.904c0,2.475-2.008,15.826-4.486,15.826c-2.475,0-4.482-13.352-4.482-15.826
						c0-2.477,2.008-4.484,4.482-4.484C27.465,41.42,29.473,43.428,29.473,45.904z"/>
					<path fill="#0A6CC4" d="M44.498,45.904c0,2.475-2.009,15.826-4.486,15.826c-2.476,0-4.482-13.352-4.482-15.826
						c0-2.477,2.007-4.484,4.482-4.484C42.489,41.42,44.498,43.428,44.498,45.904z"/>
				</g>
				<path fill="#0987C6" d="M45.15,39.979c0,16.039-5.664,10.697-12.65,10.697s-12.65,5.342-12.65-10.697
					c0-9.17,5.666-16.602,12.65-16.602C39.486,23.377,45.15,30.809,45.15,39.979z"/>
				<path fill="#F9C1AC" d="M17.09,26.041c2.257,4.961,8.297,7.461,15.412,7.461c7.113,0,13.152-2.5,15.408-7.461H17.09z"/>
				<g>
					<path fill="#3D3C39" d="M30.033,61.812c0,1.896-2.261,2.145-5.047,2.145c-2.783,0-5.043-0.248-5.043-2.145
						c0-1.898,2.26-4.508,5.043-4.508C27.772,57.305,30.033,59.914,30.033,61.812z"/>
					<path fill="#1C1B1A" d="M30.033,61.812c0,1.896-2.261,2.145-5.047,2.145c-2.783,0-5.043-0.248-5.043-2.145"/>
				</g>
				<g>
					<path fill="#3D3C39" d="M45.059,61.812c0,1.896-2.26,2.145-5.045,2.145s-5.045-0.248-5.045-2.145
						c0-1.898,2.26-4.508,5.045-4.508S45.059,59.914,45.059,61.812z"/>
					<path fill="#1C1B1A" d="M45.059,61.812c0,1.896-2.26,2.145-5.045,2.145s-5.045-0.248-5.045-2.145"/>
				</g>
				<g>
					<g>
						<circle fill="#113E49" cx="24.716" cy="18.059" r="1.464"/>
						<path d="M26.18,18.059c0,0.811-0.657,1.465-1.465,1.465c-0.809,0-1.463-0.654-1.463-1.465"/>
						<g>
							<path fill="#FFD3C5" d="M27.604,21.111c-0.078,0-0.158-0.027-0.219-0.09c-0.716-0.715-1.664-1.107-2.672-1.107h-0.002
								c-1.008,0-1.955,0.393-2.666,1.105c-0.122,0.121-0.316,0.125-0.436,0.002c-0.123-0.117-0.125-0.312-0.003-0.434
								c0.829-0.832,1.93-1.291,3.104-1.291h0.002c1.176,0,2.279,0.457,3.11,1.289c0.12,0.119,0.12,0.318,0,0.436
								C27.764,21.084,27.686,21.111,27.604,21.111z"/>
						</g>
					</g>
					<g>
						<circle fill="#113E49" cx="40.286" cy="18.059" r="1.464"/>
						<path d="M38.822,18.059c0,0.811,0.654,1.465,1.465,1.465c0.809,0,1.463-0.654,1.463-1.465"/>
						<g>
							<path fill="#FFD3C5" d="M37.398,21.111c0.075,0,0.154-0.027,0.217-0.09c0.715-0.715,1.664-1.107,2.672-1.107l0,0
								c1.01,0,1.959,0.393,2.669,1.105c0.12,0.121,0.316,0.125,0.437,0.002c0.121-0.117,0.123-0.312,0.002-0.434
								c-0.826-0.832-1.932-1.291-3.107-1.291l0,0c-1.174,0-2.277,0.457-3.111,1.289c-0.117,0.119-0.117,0.318,0,0.436
								C37.238,21.084,37.316,21.111,37.398,21.111z"/>
						</g>
					</g>
				</g>
			</g>
		</g>
	</g>
	<ellipse cx="32.5" cy="25.887" rx="15.438" ry="1.883"/>
	<ellipse fill="#F9C1AC" cx="32.5" cy="22.73" rx="16.205" ry="1.977"/>
	<path d="M23.467,5.287l3.84-0.746v2.25l2.25-2l2.875,2.375V4.291l2.375,1.875l0.25-2.125l3.25,3.125l-1.5-3.875l4.125,1.5
		l-0.306-0.34c-2.395-2.072-5.167-3.408-8.124-3.408C29.162,1.043,26.057,2.742,23.467,5.287z"/>
	<g>
		<circle fill="#1C1B1A" cx="32.5" cy="36.291" r="0.625"/>
		<circle fill="#1C1B1A" cx="32.5" cy="40.791" r="0.625"/>
		<circle fill="#1C1B1A" cx="32.5" cy="45.291" r="0.625"/>
	</g>
</g>
</svg>
