<?xml version="1.0" encoding="utf-8"?>
<!-- Generator: Adobe Illustrator 16.0.0, SVG Export Plug-In . SVG Version: 6.00 Build 0)  -->
<!DOCTYPE svg PUBLIC "-//W3C//DTD SVG 1.1//EN" "http://www.w3.org/Graphics/SVG/1.1/DTD/svg11.dtd">
<svg version="1.1" xmlns="http://www.w3.org/2000/svg" xmlns:xlink="http://www.w3.org/1999/xlink" x="0px" y="0px" width="65px"
	 height="65px" viewBox="0 0 65 65" enable-background="new 0 0 65 65" xml:space="preserve">
<g id="Layer_1">
	<g>
		<g>
			<g>
				<g>
					<g>
						<g>
							<g>
								<path fill="#89FF78" d="M32.533,3.088C28.799,5.39,25.97,15.749,25.97,20.693c0,4.946,2.829,4.599,6.563,5.475"/>
							</g>
							<g>
								<path fill="#0D89BA" d="M32.535,28.669c-0.189,0-0.381-0.022-0.574-0.067c-0.533-0.125-1.049-0.223-1.537-0.316
									c-2.936-0.562-6.954-1.333-6.954-7.592c0-5.272,2.942-16.77,7.752-19.733c1.173-0.725,2.714-0.36,3.438,0.816
									c0.726,1.175,0.359,2.715-0.815,3.439c-2.493,1.536-5.375,10.675-5.375,15.478c0,2.126,0.054,2.136,2.896,2.681
									c0.553,0.106,1.135,0.218,1.738,0.36c1.345,0.315,2.179,1.66,1.863,3.005C34.697,27.891,33.67,28.669,32.535,28.669z"/>
							</g>
						</g>
						<g>
							<g>
								<path fill="#20D812" d="M32.469,3.088c3.734,2.302,6.561,12.661,6.561,17.605c0,4.946-2.83,4.599-6.561,5.475"/>
							</g>
							<g>
								<path fill="#0D89BA" d="M32.467,28.669c-1.135,0-2.161-0.777-2.432-1.93c-0.316-1.344,0.518-2.689,1.862-3.005
									c0.604-0.142,1.185-0.254,1.737-0.36c2.84-0.545,2.895-0.555,2.895-2.681c0-4.804-2.882-13.942-5.373-15.478
									c-1.175-0.725-1.54-2.265-0.815-3.439c0.724-1.177,2.267-1.54,3.438-0.816c4.807,2.963,7.75,14.46,7.75,19.733
									c0,6.258-4.018,7.028-6.953,7.591c-0.487,0.094-1.002,0.192-1.536,0.317C32.848,28.646,32.656,28.669,32.467,28.669z"/>
							</g>
						</g>
					</g>
					<g>
						<g>
							<line fill="#63EF54" x1="32.498" y1="22.53" x2="32.498" y2="34.578"/>
						</g>
						<g>
							<path fill="#0D89BA" d="M32.498,37.078c-1.381,0-2.499-1.119-2.499-2.5V22.53c0-1.381,1.118-2.5,2.499-2.5
								c1.382,0,2.501,1.119,2.501,2.5v12.048C34.999,35.959,33.88,37.078,32.498,37.078z"/>
						</g>
					</g>
				</g>
				<g>
					<g>
						<g>
							<g>
								<path fill="#89FF78" d="M32.467,61.912c3.734-2.302,6.562-12.661,6.562-17.605c0-4.946-2.828-4.599-6.562-5.475"/>
							</g>
							<g>
								<path fill="#0D89BA" d="M32.469,64.412c-0.84,0-1.658-0.422-2.131-1.188c-0.725-1.175-0.359-2.715,0.817-3.439
									c2.491-1.536,5.374-10.675,5.374-15.478c0-2.126-0.055-2.137-2.896-2.681c-0.552-0.106-1.134-0.219-1.739-0.36
									c-1.344-0.315-2.177-1.66-1.861-3.005c0.314-1.343,1.654-2.18,3.004-1.862c0.535,0.125,1.049,0.223,1.538,0.316
									c2.935,0.562,6.954,1.333,6.954,7.592c0,5.272-2.943,16.771-7.751,19.733C33.369,64.292,32.917,64.412,32.469,64.412z"/>
							</g>
						</g>
						<g>
							<g>
								<path fill="#20D812" d="M32.531,61.912c-3.734-2.302-6.561-12.661-6.561-17.605c0-4.946,2.83-4.599,6.561-5.475"/>
							</g>
							<g>
								<path fill="#0D89BA" d="M32.529,64.412c-0.448,0-0.901-0.12-1.311-0.372c-4.807-2.963-7.748-14.46-7.748-19.733
									c0-6.258,4.018-7.028,6.951-7.591c0.489-0.094,1.004-0.192,1.538-0.317c1.342-0.315,2.688,0.518,3.005,1.862
									c0.314,1.344-0.518,2.689-1.862,3.005c-0.604,0.142-1.186,0.254-1.738,0.36c-2.839,0.545-2.894,0.555-2.894,2.681
									c0,4.804,2.881,13.942,5.371,15.478c1.177,0.725,1.541,2.265,0.817,3.439C34.188,63.99,33.367,64.412,32.529,64.412z"/>
							</g>
						</g>
					</g>
					<g>
						<g>
							<line fill="#63EF54" x1="32.5" y1="42.47" x2="32.5" y2="30.422"/>
						</g>
						<g>
							<path fill="#0D89BA" d="M32.5,44.97c-1.381,0-2.5-1.119-2.5-2.5V30.422c0-1.381,1.119-2.5,2.5-2.5s2.5,1.119,2.5,2.5V42.47
								C35,43.851,33.881,44.97,32.5,44.97z"/>
						</g>
					</g>
				</g>
			</g>
			<g>
				<g>
					<g>
						<g>
							<g>
								<path fill="#89FF78" d="M61.912,32.534C59.61,28.8,49.25,25.97,44.307,25.97c-4.947,0-4.599,2.83-5.475,6.564"/>
							</g>
							<g>
								<path fill="#0D89BA" d="M38.834,35.035c-0.188,0-0.381-0.022-0.573-0.067c-1.344-0.315-2.179-1.66-1.862-3.005
									c0.125-0.534,0.223-1.049,0.316-1.538c0.563-2.936,1.334-6.955,7.592-6.955c5.272,0,16.77,2.943,19.733,7.753
									c0.725,1.175,0.359,2.715-0.815,3.439c-1.174,0.724-2.716,0.36-3.44-0.816c-1.537-2.492-10.675-5.376-15.478-5.376
									c-2.126,0-2.137,0.055-2.682,2.896c-0.105,0.553-0.217,1.135-0.359,1.739C40.996,34.257,39.969,35.034,38.834,35.035z"/>
							</g>
						</g>
						<g>
							<g>
								<path fill="#20D812" d="M61.912,32.47C59.61,36.204,49.25,39.03,44.307,39.03c-4.947,0-4.599-2.83-5.475-6.561"/>
							</g>
							<g>
								<path fill="#0D89BA" d="M44.307,41.53c-6.258,0-7.028-4.018-7.591-6.952c-0.095-0.488-0.192-1.003-0.317-1.537
									c-0.316-1.344,0.518-2.689,1.862-3.005c1.342-0.314,2.688,0.518,3.005,1.862c0.142,0.604,0.254,1.186,0.359,1.738
									c0.545,2.839,0.556,2.894,2.682,2.894c4.804,0,13.942-2.882,15.478-5.372c0.724-1.178,2.269-1.54,3.44-0.816
									c1.175,0.725,1.54,2.265,0.815,3.439C61.076,38.588,49.58,41.53,44.307,41.53z"/>
							</g>
						</g>
					</g>
					<g>
						<g>
							<line fill="#63EF54" x1="42.47" y1="32.499" x2="30.422" y2="32.499"/>
						</g>
						<g>
							<path fill="#0D89BA" d="M42.47,34.999H30.422c-1.381,0-2.5-1.119-2.5-2.5s1.119-2.5,2.5-2.5H42.47c1.382,0,2.5,1.119,2.5,2.5
								S43.852,34.999,42.47,34.999z"/>
						</g>
					</g>
				</g>
				<g>
					<g>
						<g>
							<g>
								<path fill="#89FF78" d="M3.088,32.468c2.303,3.734,12.661,6.562,17.605,6.562c4.947,0,4.599-2.828,5.475-6.562"/>
							</g>
							<g>
								<path fill="#0D89BA" d="M20.693,41.53c-5.272,0-16.771-2.942-19.733-7.751c-0.725-1.175-0.358-2.715,0.815-3.439
									c1.173-0.724,2.715-0.359,3.439,0.816c1.537,2.491,10.676,5.374,15.479,5.374c2.126,0,2.137-0.055,2.68-2.896
									c0.107-0.552,0.22-1.134,0.361-1.738c0.314-1.343,1.659-2.178,3.005-1.862c1.343,0.315,2.178,1.66,1.862,3.005
									c-0.125,0.534-0.223,1.049-0.316,1.537C27.723,37.511,26.952,41.53,20.693,41.53z"/>
							</g>
						</g>
						<g>
							<g>
								<path fill="#20D812" d="M3.088,32.532c2.303-3.734,12.661-6.561,17.605-6.561c4.947,0,4.599,2.83,5.475,6.561"/>
							</g>
							<g>
								<path fill="#0D89BA" d="M26.166,35.033c-1.135,0-2.161-0.777-2.432-1.93c-0.142-0.604-0.254-1.186-0.361-1.738
									c-0.545-2.839-0.554-2.894-2.68-2.894c-4.803,0-13.941,2.882-15.479,5.372c-0.724,1.176-2.269,1.538-3.439,0.816
									c-1.174-0.725-1.54-2.265-0.815-3.439c2.962-4.807,14.46-7.749,19.733-7.749c6.258,0,7.028,4.018,7.591,6.952
									c0.093,0.488,0.192,1.003,0.317,1.537c0.315,1.344-0.518,2.689-1.862,3.005C26.547,35.011,26.355,35.033,26.166,35.033z"/>
							</g>
						</g>
					</g>
					<g>
						<g>
							<line fill="#63EF54" x1="22.53" y1="32.501" x2="34.578" y2="32.501"/>
						</g>
						<g>
							<path fill="#0D89BA" d="M34.578,35.001H22.53c-1.381,0-2.5-1.119-2.5-2.5s1.119-2.5,2.5-2.5h12.048
								c1.381,0,2.5,1.119,2.5,2.5S35.959,35.001,34.578,35.001z"/>
						</g>
					</g>
				</g>
			</g>
		</g>
		<g>
			<g>
				<g>
					<g>
						<g>
							<g>
								<path fill="#89FF78" d="M53.32,11.726c-4.268-1.013-13.594,4.312-17.089,7.809c-3.498,3.498-1.253,5.252,0.77,8.512"/>
							</g>
							<g>
								<path fill="#0D89BA" d="M37.002,30.546c-0.835,0-1.652-0.419-2.126-1.183c-0.29-0.467-0.584-0.899-0.863-1.312
									c-1.677-2.473-3.976-5.859,0.451-10.285c3.728-3.729,13.942-9.776,19.435-8.474c1.344,0.319,2.174,1.666,1.855,3.01
									s-1.665,2.175-3.01,1.855c-2.847-0.676-11.35,3.747-14.745,7.144c-1.503,1.504-1.473,1.55,0.151,3.943
									c0.316,0.465,0.648,0.956,0.975,1.483c0.729,1.173,0.367,2.714-0.807,3.442C37.908,30.425,37.453,30.546,37.002,30.546z"/>
							</g>
						</g>
						<g>
							<g>
								<path fill="#20D812" d="M53.275,11.681c1.013,4.268-4.314,13.592-7.81,17.088c-3.499,3.498-5.253,1.25-8.51-0.768"/>
							</g>
							<g>
								<path fill="#0D89BA" d="M42.089,33.1c-2.024,0.001-3.729-1.155-5.137-2.11c-0.412-0.279-0.846-0.574-1.312-0.863
									c-1.175-0.727-1.537-2.268-0.81-3.441c0.728-1.176,2.269-1.535,3.44-0.809c0.529,0.327,1.021,0.659,1.486,0.975
									c2.39,1.621,2.434,1.654,3.94,0.15c3.396-3.396,7.82-11.896,7.144-14.743c-0.318-1.344,0.513-2.69,1.856-3.01
									c1.346-0.324,2.692,0.513,3.01,1.855c1.304,5.494-4.747,15.704-8.476,19.433C45.33,32.44,43.619,33.1,42.089,33.1z"/>
							</g>
						</g>
					</g>
					<g>
						<g>
							<line fill="#63EF54" x1="39.549" y1="25.45" x2="31.03" y2="33.97"/>
						</g>
						<g>
							<path fill="#0D89BA" d="M31.03,36.47c-0.64,0-1.278-0.244-1.769-0.732c-0.977-0.976-0.977-2.559,0-3.535l8.52-8.52
								c0.977-0.977,2.559-0.977,3.535,0c0.977,0.976,0.977,2.559,0,3.535l-8.519,8.52C32.311,36.226,31.67,36.47,31.03,36.47z"/>
						</g>
					</g>
				</g>
				<g>
					<g>
						<g>
							<g>
								<path fill="#89FF78" d="M11.678,53.274c4.27,1.013,13.594-4.312,17.09-7.809c3.5-3.498,1.252-5.252-0.769-8.512"/>
							</g>
							<g>
								<path fill="#0D89BA" d="M12.777,55.888c-0.594,0-1.156-0.058-1.676-0.181c-1.344-0.319-2.174-1.666-1.855-3.01
									s1.662-2.175,3.01-1.855c2.836,0.671,11.348-3.748,14.745-7.144c1.503-1.504,1.474-1.55-0.151-3.943
									c-0.316-0.465-0.648-0.956-0.977-1.483c-0.727-1.173-0.365-2.714,0.809-3.442c1.172-0.724,2.713-0.367,3.442,0.808
									c0.288,0.467,0.584,0.899,0.863,1.312c1.678,2.473,3.974,5.859-0.451,10.285C27.16,50.609,18.471,55.888,12.777,55.888z"/>
							</g>
						</g>
						<g>
							<g>
								<path fill="#20D812" d="M11.727,53.319c-1.015-4.268,4.311-13.592,7.807-17.088c3.499-3.497,5.254-1.25,8.512,0.768"/>
							</g>
							<g>
								<path fill="#0D89BA" d="M11.725,55.82c-1.133,0-2.158-0.774-2.432-1.923c-1.305-5.494,4.744-15.705,8.475-19.434
									c4.424-4.427,7.811-2.13,10.281-0.453c0.412,0.279,0.846,0.573,1.312,0.863c1.174,0.727,1.536,2.268,0.809,3.441
									c-0.727,1.174-2.266,1.536-3.441,0.809c-0.528-0.326-1.02-0.659-1.485-0.975c-2.39-1.619-2.438-1.654-3.941-0.15
									c-3.397,3.396-7.821,11.896-7.144,14.742c0.318,1.344-0.512,2.691-1.855,3.011C12.109,55.798,11.914,55.82,11.725,55.82z"/>
							</g>
						</g>
					</g>
					<g>
						<g>
							<line fill="#63EF54" x1="25.45" y1="39.55" x2="33.97" y2="31.03"/>
						</g>
						<g>
							<path fill="#0D89BA" d="M25.45,42.05c-0.64,0-1.28-0.244-1.767-0.732c-0.979-0.977-0.979-2.559,0-3.535l8.518-8.52
								c0.977-0.977,2.56-0.977,3.535,0c0.978,0.977,0.978,2.559,0,3.535l-8.519,8.52C26.729,41.806,26.09,42.05,25.45,42.05z"/>
						</g>
					</g>
				</g>
			</g>
			<g>
				<g>
					<g>
						<g>
							<g>
								<path fill="#89FF78" d="M53.273,53.321c1.012-4.268-4.312-13.594-7.808-17.09c-3.497-3.498-5.252-1.25-8.513,0.77"/>
							</g>
							<g>
								<path fill="#0D89BA" d="M53.275,55.822c-0.191,0-0.385-0.022-0.58-0.068c-1.344-0.319-2.173-1.666-1.854-3.01
									c0.677-2.849-3.747-11.349-7.143-14.745c-1.503-1.502-1.548-1.473-3.941,0.151c-0.468,0.315-0.959,0.648-1.487,0.976
									c-1.173,0.728-2.715,0.366-3.441-0.809c-0.727-1.174-0.365-2.715,0.809-3.441c0.467-0.29,0.902-0.585,1.314-0.865
									c2.471-1.675,5.859-3.972,10.281,0.453c3.729,3.728,9.777,13.938,8.473,19.435C55.434,55.048,54.407,55.822,53.275,55.822z"
									/>
							</g>
						</g>
						<g>
							<g>
								<path fill="#20D812" d="M53.319,53.276c-4.269,1.013-13.593-4.314-17.088-7.811c-3.498-3.497-1.251-5.252,0.768-8.51"/>
							</g>
							<g>
								<path fill="#0D89BA" d="M52.222,55.89c-5.691,0-14.382-5.279-17.758-8.656c-4.427-4.424-2.13-7.81-0.454-10.282
									c0.279-0.412,0.575-0.845,0.863-1.312c0.729-1.176,2.27-1.534,3.442-0.809c1.173,0.728,1.536,2.268,0.809,3.441
									c-0.327,0.528-0.659,1.02-0.975,1.484c-1.622,2.393-1.653,2.438-0.15,3.941c3.396,3.396,11.911,7.821,14.743,7.146
									c1.35-0.319,2.691,0.512,3.01,1.855s-0.512,2.69-1.855,3.01C53.377,55.832,52.815,55.89,52.222,55.89z"/>
							</g>
						</g>
					</g>
					<g>
						<g>
							<line fill="#63EF54" x1="39.551" y1="39.55" x2="31.031" y2="31.03"/>
						</g>
						<g>
							<path fill="#0D89BA" d="M39.551,42.05c-0.64,0-1.279-0.244-1.768-0.732l-8.52-8.52c-0.977-0.977-0.977-2.559,0-3.535
								s2.559-0.977,3.535,0l8.52,8.52c0.977,0.977,0.977,2.559,0,3.535C40.83,41.806,40.19,42.05,39.551,42.05z"/>
						</g>
					</g>
				</g>
				<g>
					<g>
						<g>
							<g>
								<path fill="#89FF78" d="M11.727,11.681c-1.015,4.268,4.311,13.592,7.807,17.089c3.499,3.497,5.252,1.251,8.512-0.769"/>
							</g>
							<g>
								<path fill="#0D89BA" d="M22.911,33.101c-1.529,0-3.241-0.659-5.144-2.563c-3.73-3.729-9.779-13.941-8.475-19.435
									c0.318-1.343,1.663-2.175,3.01-1.854c1.344,0.319,2.174,1.667,1.855,3.011c-0.678,2.846,3.746,11.346,7.144,14.743
									c1.503,1.504,1.55,1.47,3.942-0.151c0.465-0.315,0.957-0.647,1.485-0.975c1.175-0.727,2.716-0.364,3.44,0.809
									c0.729,1.174,0.366,2.715-0.808,3.441c-0.468,0.289-0.901,0.584-1.312,0.863C26.643,31.944,24.936,33.101,22.911,33.101z"/>
							</g>
						</g>
						<g>
							<g>
								<path fill="#20D812" d="M11.68,11.726c4.269-1.014,13.592,4.313,17.088,7.811c3.498,3.497,1.251,5.252-0.768,8.51"/>
							</g>
							<g>
								<path fill="#0D89BA" d="M27.998,30.546c-0.45,0-0.904-0.121-1.314-0.375c-1.174-0.728-1.536-2.268-0.809-3.441
									c0.326-0.528,0.658-1.02,0.975-1.485c1.623-2.393,1.652-2.438,0.151-3.94c-3.397-3.396-11.887-7.818-14.744-7.146
									c-1.333,0.32-2.69-0.512-3.01-1.855c-0.318-1.343,0.511-2.69,1.855-3.01c5.481-1.303,15.704,4.746,19.434,8.476
									c4.424,4.424,2.129,7.81,0.452,10.282c-0.279,0.411-0.574,0.845-0.863,1.312C29.652,30.126,28.834,30.546,27.998,30.546z"/>
							</g>
						</g>
					</g>
					<g>
						<g>
							<line fill="#63EF54" x1="25.45" y1="25.452" x2="33.969" y2="33.97"/>
						</g>
						<g>
							<path fill="#0D89BA" d="M33.969,36.47c-0.641,0-1.279-0.244-1.768-0.732l-8.518-8.518c-0.979-0.976-0.979-2.559,0-3.535
								c0.976-0.977,2.557-0.977,3.534,0l8.519,8.518c0.977,0.976,0.977,2.559,0,3.535C35.248,36.226,34.607,36.47,33.969,36.47z"/>
						</g>
					</g>
				</g>
			</g>
		</g>
	</g>
</g>
<g id="nyt_x5F_exporter_x5F_info" display="none">
</g>
</svg>
