<?xml version="1.0" encoding="utf-8"?>
<!-- Generator: Adobe Illustrator 16.0.0, SVG Export Plug-In . SVG Version: 6.00 Build 0)  -->
<!DOCTYPE svg PUBLIC "-//W3C//DTD SVG 1.1//EN" "http://www.w3.org/Graphics/SVG/1.1/DTD/svg11.dtd">
<svg version="1.1" id="Layer_1" xmlns="http://www.w3.org/2000/svg" xmlns:xlink="http://www.w3.org/1999/xlink" x="0px" y="0px"
	 width="64px" height="64px" viewBox="0 0 64 64" enable-background="new 0 0 64 64" xml:space="preserve">
<g>
	<g>
		<ellipse fill="#0477B7" cx="32" cy="50.6" rx="28.2" ry="12.4"/>
	</g>
	<g>
		<g>
			<g>
				<g>
					<g>
						<g>
							<g>
								<g>
									<path fill="#F7910B" d="M61,39.3c0,12.4-11.4,22.5-29,22.5c-17.6,0-29-10.1-29-22.5C3,26.9,14.4,8.3,32,8.3
										C49.6,8.3,61,26.9,61,39.3z"/>
								</g>
								<g>
									<path fill="#F7910B" d="M61,39.3C61,51.7,49.6,58,32,58C14.4,58,3,51.7,3,39.3c0-12.4,11.4-33,29-33
										C49.6,6.3,61,26.9,61,39.3z"/>
								</g>
								<g>
									<path fill="#F9A908" d="M32,6.3c17.6,0,29,20.6,29,33C61,51.7,49.6,58,32,58"/>
								</g>
								<g>
									<path fill="#F9A908" d="M61,39.3C61,51.7,49.6,58,32,58C14.4,58,3,51.7,3,39.3C3,26.9,14.4,8.3,32,8.3
										C49.6,8.3,61,26.9,61,39.3z"/>
								</g>
								<g>
									<path fill="#F9C55D" d="M3,39.3C3,26.9,14.4,8.3,32,8.3"/>
								</g>
								<g>
									<path fill="#F7910B" d="M32,8.3c17.6,0,29,18.7,29,31.1c0,12.4-11.4,22.5-29,22.5"/>
								</g>
								<g>
									<path fill="#EA7103" d="M32,8.3c17.6,0,29,18.7,29,31.1"/>
								</g>
								<g>
									<g>
										<ellipse fill="#EA7103" cx="22.1" cy="28.3" rx="3" ry="2.6"/>
									</g>
									<g>
										<ellipse fill="#EA7103" cx="41.9" cy="28.3" rx="3" ry="2.6"/>
									</g>
									<g>
										<path fill="#1E4784" d="M25.1,27.5c0,1.4-1.4,2.6-3,2.6c-1.7,0-3-1.1-3-2.6c0-1.4,1.4-2.6,3-2.6
											C23.8,24.9,25.1,26.1,25.1,27.5z"/>
									</g>
									<g>
										<path fill="#00233F" d="M22.1,24.9c1.7,0,3,1.1,3,2.6c0,1.4-1.4,2.6-3,2.6"/>
									</g>
									<g>
										<path fill="#1E4784" d="M45,27.5c0,1.4-1.4,2.6-3,2.6c-1.7,0-3-1.1-3-2.6c0-1.4,1.4-2.6,3-2.6C43.6,24.9,45,26.1,45,27.5z
											"/>
									</g>
									<g>
										<path fill="#00233F" d="M41.9,24.9c1.7,0,3,1.1,3,2.6c0,1.4-1.4,2.6-3,2.6"/>
									</g>
								</g>
								<g>
									<g>
										<g>
											<g>
												<g>
													<g>
														<path fill="#19BCA4" d="M25.9,18c0.3,0.8-1.1,1-2.7,1.7c-1.6,0.7-2.7,1.7-3,0.9c-0.3-0.8,0.7-2,2.2-2.7
															C24,17.2,25.5,17.2,25.9,18z"/>
													</g>
												</g>
											</g>
										</g>
										<g>
											<g>
												<g>
													<g>
														<path fill="#19BCA4" d="M37.9,19.9c-0.3,0.8,1.1,0.9,2.7,1.6c1.6,0.7,2.7,1.6,3,0.8c0.3-0.8-0.7-1.9-2.3-2.6
															C39.8,19,38.2,19.1,37.9,19.9z"/>
													</g>
												</g>
											</g>
										</g>
									</g>
									<g>
										<g>
											<g>
												<g>
													<g>
														<path fill="#109DA0" d="M25.9,18c0.3,0.8-1.1,1-2.7,1.7c-1.6,0.7-2.7,1.7-3,0.9"/>
													</g>
												</g>
											</g>
										</g>
										<g>
											<g>
												<g>
													<g>
														<path fill="#109DA0" d="M37.9,19.9c-0.3,0.8,1.1,0.9,2.7,1.6c1.6,0.7,2.7,1.6,3,0.8"/>
													</g>
												</g>
											</g>
										</g>
									</g>
								</g>
								<g>
									<g>
										<path fill="#F9C55D" d="M28,32.9c0,1.2-3.3,0.6-7.5,0.6c-4.1,0-7.5,0.5-7.5-0.6c0-1.2,3.3-2.1,7.5-2.1
											C24.7,30.8,28,31.8,28,32.9z"/>
									</g>
									<g>
										<path fill="#F9A908" d="M50.9,32.9c0,1.2-3.3,0.6-7.5,0.6c-4.1,0-7.5,0.5-7.5-0.6c0-1.2,3.3-2.1,7.5-2.1
											C47.6,30.8,50.9,31.8,50.9,32.9z"/>
									</g>
								</g>
								<g>
									<circle fill="#F7910B" cx="11.3" cy="36.4" r="0.6"/>
								</g>
								<g>
									<circle fill="#F7910B" cx="7" cy="38.3" r="1.1"/>
								</g>
								<g>
									<circle fill="#F7910B" cx="9.9" cy="34.5" r="0.2"/>
								</g>
								<g>
									<circle fill="#F7910B" cx="14.2" cy="36.2" r="0.2"/>
								</g>
								<g>
									<circle fill="#F9A908" cx="51.7" cy="36.8" r="0.7"/>
								</g>
								<g>
									<circle fill="#F9A908" cx="54.1" cy="38.1" r="0.2"/>
								</g>
								<g>
									<circle fill="#F9A908" cx="49" cy="29.7" r="0.3"/>
								</g>
								<g>
									<circle fill="#F9A908" cx="48.5" cy="40.8" r="1.3"/>
								</g>
								<g>
									<circle fill="#F9A908" cx="55.4" cy="40.8" r="0.6"/>
								</g>
								<g>
									<path fill="#F7910B" d="M10.8,40.3c0,0.3-0.2,0.5-0.5,0.5c-0.3,0-0.5-0.2-0.5-0.5c0-0.3,0.2-0.5,0.5-0.5
										C10.6,39.8,10.8,40,10.8,40.3z"/>
								</g>
								<g>
									<circle fill="#F7910B" cx="11" cy="32.2" r="0.4"/>
								</g>
								<g>
									<circle fill="#F9A908" cx="6" cy="19.1" r="1.1"/>
								</g>
								<g>
									<circle fill="#F9A908" cx="9.1" cy="15.7" r="0.5"/>
								</g>
								<g>
									<circle fill="#F9A908" cx="58" cy="21.4" r="0.2"/>
								</g>
								<g>
									<circle fill="#F9A908" cx="57.2" cy="18.6" r="0.8"/>
								</g>
								<g>
									<circle fill="#F9A908" cx="59.7" cy="19.1" r="0.5"/>
								</g>
								<g>
									<circle fill="#F9A908" cx="7.2" cy="21.9" r="0.5"/>
								</g>
								<g>
									<g>
										<path fill="#C7E2DD" d="M3,40c0.3,12,11.6,22,29,22c17.4,0,28.7-10,29-22H3z"/>
									</g>
									<g>
										<path fill="#E2F2EF" d="M32,62c17.4,0,28.7-10,29-22H3"/>
									</g>
									<g>
										<path fill="#C7E2DD" d="M32,62c17.4,0,28.7-9.8,29-22"/>
									</g>
								</g>
							</g>
						</g>
					</g>
					<g>
						<g>
							<path fill="#F7910B" d="M39.1,37.6c0,2.5-3.2,4.5-7.1,4.5c-3.9,0-7.1-2-7.1-4.5"/>
						</g>
					</g>
				</g>
			</g>
			<g>
				<g>
					<circle fill="#28C1EA" cx="32" cy="49.2" r="1.1"/>
				</g>
				<g>
					<path fill="#28C1EA" d="M33.1,54c0,0.6-0.5,1.1-1.1,1.1c-0.6,0-1.1-0.5-1.1-1.1c0-0.6,0.5-1.1,1.1-1.1
						C32.6,52.9,33.1,53.4,33.1,54z"/>
				</g>
			</g>
		</g>
		<g>
			<g>
				<g>
					<path fill="#F7910B" d="M37.4,38.6c0,2.3-2.4,6.3-5.4,6.3c-3,0-5.4-4.1-5.4-6.3"/>
				</g>
				<g>
					<g>
						<path fill="#02243E" d="M21,36.8c-0.6,0-1-0.4-1-1s0.4-1,1-1c0.5,0,0.9-0.6,0.9-1.3c0-0.6,0.4-1,1-1s1,0.4,1,1
							C24,35.3,22.6,36.8,21,36.8z"/>
					</g>
					<g>
						<path fill="#02243E" d="M43,36.8c-1.6,0-3-1.5-3-3.3c0-0.6,0.4-1,1-1s1,0.4,1,1c0,0.7,0.4,1.3,1,1.3c0.6,0,1,0.4,1,1
							S43.5,36.8,43,36.8z"/>
					</g>
				</g>
				<g>
					<path fill="#02243E" d="M32,41.1c-3.9,0-7.6-1.8-10.4-5.1c-0.4-0.4-0.3-1.1,0.1-1.4c0.4-0.4,1.1-0.3,1.4,0.1
						c2.4,2.8,5.5,4.4,8.9,4.4s6.5-1.6,8.9-4.4c0.4-0.4,1-0.5,1.4-0.1c0.4,0.4,0.5,1,0.1,1.4C39.6,39.3,35.9,41.1,32,41.1z"/>
				</g>
			</g>
			<g>
				<path fill="#F9C55D" d="M36.3,36.3c0,1.1-1.9,2-4.3,2c-2.4,0-4.3-0.9-4.3-2"/>
			</g>
		</g>
		<g>
			<path fill="#E2F2EF" d="M40.4,0.9c-1.1,0-2.1,0.3-2.8,0.7c-0.8-0.5-1.7-0.7-2.8-0.7S32.8,1.2,32,1.7c-0.8-0.5-1.7-0.7-2.8-0.7
				c-1.1,0-2.1,0.3-2.8,0.7c-0.8-0.5-1.7-0.7-2.8-0.7c-2.4,0-4.3,1.3-4.3,3c0,1.6,1.9,3,4.3,3c1.1,0,2.1-0.3,2.8-0.7
				c0.8,0.4,1.7,0.7,2.8,0.7c1.1,0,2.1-0.3,2.8-0.7c0.8,0.4,1.7,0.7,2.8,0.7s2.1-0.3,2.8-0.7c0.8,0.4,1.7,0.7,2.8,0.7
				c2.4,0,4.3-1.3,4.3-3C44.7,2.3,42.8,0.9,40.4,0.9z"/>
		</g>
		<g>
			<path fill="#C7E2DD" d="M19.3,3.9c0,1.6,1.9,3,4.3,3c1.1,0,2.1-0.3,2.8-0.7c0.8,0.4,1.7,0.7,2.8,0.7c1.1,0,2.1-0.3,2.8-0.7
				c0.8,0.4,1.7,0.7,2.8,0.7s2.1-0.3,2.8-0.7c0.8,0.4,1.7,0.7,2.8,0.7c2.4,0,4.3-1.3,4.3-3"/>
		</g>
		<g>
			<path fill="#E2F2EF" d="M41.6,8.1c0,5.8-4.3,5.7-9.6,5.7c-5.3,0-9.6,0.1-9.6-5.7c0-5.8,4.3-2.9,9.6-2.9
				C37.3,5.2,41.6,2.3,41.6,8.1z"/>
		</g>
		<g>
			<path fill="#C7E2DD" d="M22.8,11c1.2,3,4.9,3,9.2,3c4.3,0,7.9,0,9.2-3H22.8z"/>
		</g>
	</g>
</g>
</svg>
