<?xml version="1.0" encoding="utf-8"?>
<!-- Generator: Adobe Illustrator 16.0.0, SVG Export Plug-In . SVG Version: 6.00 Build 0)  -->
<!DOCTYPE svg PUBLIC "-//W3C//DTD SVG 1.1//EN" "http://www.w3.org/Graphics/SVG/1.1/DTD/svg11.dtd">
<svg version="1.1" xmlns="http://www.w3.org/2000/svg" xmlns:xlink="http://www.w3.org/1999/xlink" x="0px" y="0px" width="65px"
	 height="65px" viewBox="0 0 65 65" enable-background="new 0 0 65 65" xml:space="preserve">
<g id="Layer_1">
	<g>
		<g>
			<path fill="#6D4116" d="M50.848,1.728c2.83-1.42,4.944,0.057,6.197,2.557c1.255,2.502,1.172,5.074-1.658,6.496
				C52.556,12.198,20.554,25.708,19.3,23.208C18.046,20.71,48.017,3.146,50.848,1.728z"/>
			<path fill="#593418" d="M19.3,23.208C18.046,20.71,48.017,3.146,50.848,1.728c2.83-1.42,4.944,0.057,6.197,2.557"/>
			<path fill="#97AFC6" d="M20.106,15.359c1.297-0.65,2.879-0.125,3.529,1.174l7.884,11.318c0.651,1.3,1.493,2.196,0.192,2.848
				l-11.113,5.57c-1.301,0.652-1.513-0.558-2.164-1.855l-4.357-13.088c-0.648-1.301-0.123-2.883,1.176-3.533L20.106,15.359z"/>
			<path fill="#B6C9D8" d="M20.106,15.359"/>
			<path fill="#B6C9D8" d="M31.712,30.699l-11.113,5.57c-1.301,0.652-1.513-0.558-2.164-1.855"/>
			<path fill="#578293" d="M14.077,21.326l4.057,12.182c0.258,0.168,0.581,0.18,1.051-0.053L30.3,27.881
				c0.472-0.237,0.654-0.505,0.676-0.813l-7.34-10.535c-0.65-1.299-2.232-1.824-3.529-1.174l-4.854,2.434
				C13.954,18.443,13.429,20.025,14.077,21.326z"/>
			<path fill="#4C7289" d="M30.3,27.881c0.472-0.237,0.654-0.505,0.676-0.813l-7.34-10.535c-0.65-1.299-2.232-1.824-3.529-1.174
				l-4.854,2.434c-1.299,0.65-1.824,2.232-1.176,3.533"/>
			<path fill="#8E5A2B" d="M31.337,12.543c0.252-0.126,0.557-0.022,0.684,0.227l3.252,6.489c0.127,0.252,0.024,0.559-0.227,0.685
				l0,0c-0.252,0.127-0.559,0.024-0.684-0.227l-3.254-6.489C30.983,12.976,31.086,12.669,31.337,12.543L31.337,12.543z"/>
			<path fill="#8E5A2B" d="M32.359,12.03c0.253-0.125,0.56-0.024,0.687,0.227l3.251,6.49c0.126,0.249,0.024,0.558-0.228,0.684l0,0
				c-0.249,0.127-0.557,0.023-0.682-0.227l-3.256-6.491C32.007,12.462,32.108,12.156,32.359,12.03L32.359,12.03z"/>
			<path fill="#8E5A2B" d="M33.386,11.517c0.25-0.128,0.558-0.025,0.684,0.227l3.254,6.488c0.126,0.25,0.023,0.56-0.227,0.686l0,0
				c-0.254,0.126-0.561,0.025-0.685-0.228l-3.253-6.489C33.033,11.948,33.136,11.642,33.386,11.517L33.386,11.517z"/>
		</g>
		<path fill="#7A4D25" d="M44.808,63.159c-2.014-2.885-5.307-6.074-6.893-9.551c-3.076-6.75-4.759-13.555-5.136-19.699H18.335
			c-0.377,6.145-2.06,12.949-5.136,19.699c-1.587,3.477-4.879,6.666-6.89,9.551H44.808z"/>
		<path fill="#6D4116" d="M13.199,53.608c-1.587,3.477-4.879,6.666-6.89,9.551h38.498c-2.014-2.885-5.307-6.074-6.893-9.551
			c-3.076-6.75-4.759-13.555-5.136-19.699"/>
		<g>
			<polygon fill="#65930C" points="7.671,63.826 4.086,60.24 0.5,63.826 			"/>
			<polygon fill="#65930C" points="12.042,63.826 8.457,60.24 4.87,63.826 			"/>
			<polygon fill="#65930C" points="16.414,63.826 12.828,60.24 9.241,63.826 			"/>
			<polygon fill="#65930C" points="20.785,63.826 17.201,60.24 13.615,63.826 			"/>
			<polygon fill="#65930C" points="25.156,63.826 21.572,60.24 17.985,63.826 			"/>
			<polygon fill="#65930C" points="29.527,63.826 25.943,60.24 22.356,63.826 			"/>
			<polygon fill="#65930C" points="33.9,63.826 30.314,60.24 26.728,63.826 			"/>
			<polygon fill="#65930C" points="38.271,63.826 34.685,60.24 31.101,63.826 			"/>
			<polygon fill="#65930C" points="42.644,63.826 39.06,60.24 35.474,63.826 			"/>
			<polygon fill="#65930C" points="47.014,63.826 43.43,60.24 39.843,63.826 			"/>
			<polygon fill="#65930C" points="51.384,63.826 47.802,60.24 44.215,63.826 			"/>
			<polygon fill="#65930C" points="55.758,63.826 52.171,60.24 48.586,63.826 			"/>
			<polygon fill="#65930C" points="60.129,63.826 56.542,60.24 52.957,63.826 			"/>
			<polygon fill="#65930C" points="64.5,63.826 60.914,60.24 57.328,63.826 			"/>
		</g>
		<path fill="#B27747" d="M33.058,33.971c0,0.207-0.168,0.375-0.375,0.375h-14.25c-0.207,0-0.375-0.168-0.375-0.375l0,0
			c0-0.207,0.168-0.375,0.375-0.375h14.25C32.89,33.596,33.058,33.764,33.058,33.971L33.058,33.971z"/>
		<path fill="#7A4D25" d="M25.933,50.284c0,0.139-0.111,0.25-0.25,0.25l0,0c-0.139,0-0.25-0.111-0.25-0.25v-4.75
			c0-0.139,0.111-0.25,0.25-0.25l0,0c0.139,0,0.25,0.111,0.25,0.25V50.284z"/>
		<path fill="#7A4D25" d="M33.558,58.409c0,0.139-0.111,0.25-0.25,0.25l0,0c-0.139,0-0.25-0.111-0.25-0.25v-4.75
			c0-0.139,0.111-0.25,0.25-0.25l0,0c0.139,0,0.25,0.111,0.25,0.25V58.409z"/>
		<path fill="#7A4D25" d="M23.808,52.659c0,0.139-0.111,0.25-0.25,0.25l0,0c-0.139,0-0.25-0.111-0.25-0.25v-4.75
			c0-0.139,0.111-0.25,0.25-0.25l0,0c0.139,0,0.25,0.111,0.25,0.25V52.659z"/>
		<path fill="#7A4D25" d="M17.558,56.784c0,0.139-0.111,0.25-0.25,0.25l0,0c-0.139,0-0.25-0.111-0.25-0.25v-4.75
			c0-0.139,0.111-0.25,0.25-0.25l0,0c0.139,0,0.25,0.111,0.25,0.25V56.784z"/>
		<path fill="#7A4D25" d="M30.433,45.034c0,0.139-0.111,0.25-0.25,0.25l0,0c-0.139,0-0.25-0.111-0.25-0.25v-4.75
			c0-0.139,0.111-0.25,0.25-0.25l0,0c0.139,0,0.25,0.111,0.25,0.25V45.034z"/>
	</g>
</g>
<g id="nyt_x5F_exporter_x5F_info" display="none">
</g>
</svg>
