<?xml version="1.0" encoding="utf-8"?>
<!-- Generator: Adobe Illustrator 16.0.0, SVG Export Plug-In . SVG Version: 6.00 Build 0)  -->
<!DOCTYPE svg PUBLIC "-//W3C//DTD SVG 1.1//EN" "http://www.w3.org/Graphics/SVG/1.1/DTD/svg11.dtd">
<svg version="1.1" id="Layer_1" xmlns="http://www.w3.org/2000/svg" xmlns:xlink="http://www.w3.org/1999/xlink" x="0px" y="0px"
	 width="64px" height="64px" viewBox="0 0 64 64" enable-background="new 0 0 64 64" xml:space="preserve">
<g>
	<g>
		<ellipse fill="#A5A5A5" cx="33" cy="61.9" rx="25.5" ry="1.7"/>
		<path fill="#898785" d="M33,63.5c-14.1,0-25.5-0.8-25.5-1.7c0-0.9,11.4-1.7,25.5-1.7"/>
	</g>
	<path fill="#E28723" d="M35,21.8c0,0.9-0.3,1.2-1,1.2H6.6C6,23,5,22.7,5,21.8v-6.9C5,14.1,6,13,6.6,13H34c0.6,0,1,1.1,1,1.9V21.8z"
		/>
	<g>
		<path fill="#05961D" d="M30.1,20.4c0,0,3,2.1,4,1.1c1-0.9-0.2-3.5-2.3-3.1c0,0,1.9-0.8,1.1-1.9c-0.8-1-2.4-1.2-2.9,0.2
			c0,0,0-0.9-1.4-0.6c-1.4,0.2-0.3,3.9-0.3,3.9L30.1,20.4z"/>
		<path fill="#046812" d="M32.9,16.6c-0.8-1-2.4-1.2-2.9,0.2c0,0,0-0.9-1.4-0.6c-1.4,0.2-0.3,3.9-0.3,3.9l1.7,0.4"/>
		<path fill="#046812" d="M34.1,21.6c1-0.9-0.2-3.5-2.3-3.1"/>
		<g>
			<path fill="#EF4D4E" d="M18.7,0.7l-0.8,0.2c-3.5,0.9-5.6,4.5-4.7,8.1c0.3,1.2,1.6,2,2.9,1.7c1.2-0.3,2-1.6,1.7-2.9
				c-0.3-1,0.3-2.1,1.4-2.3l0.8-0.2c1-0.3,2.1,0.3,2.3,1.4l5.3,19.9c0.3,1.2,1.6,2,2.9,1.7c1.2-0.3,2-1.6,1.7-2.9L26.7,5.4
				C25.8,1.8,22.2-0.3,18.7,0.7z"/>
		</g>
		<g>
			<path fill="#C11724" d="M32,25.2L26.7,5.4c-0.9-3.3-4.1-5.4-7.4-4.8"/>
			<line fill="#EF4D4E" x1="19" y1="5.4" x2="19.9" y2="5.2"/>
		</g>
		<g>
			<path fill="#80EDE3" d="M26.2,21.8l5.7,3.3l0,0.1c0.2,0.8,0,1.6-0.5,2.1L27,24.8L26.2,21.8z"/>
			<path fill="#55CEBF" d="M26.2,21.8l5.7,3.3l0,0.1c0.2,0.8,0,1.6-0.5,2.1"/>
			<g>
				<polygon fill="#80EDE3" points="31.1,22 25.4,18.7 24.6,15.7 30.3,19 				"/>
				<polyline fill="#55CEBF" points="24.6,15.7 30.3,19 31.1,22 				"/>
				<path fill="#80EDE3" d="M15.9,10.6c-1.2,0.2-2.3-0.4-2.7-1.6L15.9,10.6z"/>
			</g>
			<g>
				<polygon fill="#80EDE3" points="29.5,16 23.8,12.6 23,9.7 28.7,13 				"/>
				<polyline fill="#55CEBF" points="23,9.7 28.7,13 29.5,16 				"/>
				<path fill="#80EDE3" d="M13.7,4.2l4.1,2.4c-0.1,0.4-0.2,0.8-0.1,1.2c0.1,0.4,0.1,0.9,0,1.3L13,6.4C13.1,5.6,13.3,4.9,13.7,4.2z"
					/>
				<path fill="#55CEBF" d="M13,6.4c0.1-0.7,0.3-1.5,0.7-2.1l4.1,2.4c-0.1,0.4-0.2,0.8-0.1,1.2"/>
			</g>
			<path fill="#80EDE3" d="M17.1,1.1l10,5.8l0.8,3l-5.7-3.3l0,0c-0.3-1-1.3-1.6-2.3-1.4l0,0l-4.8-2.8C15.7,1.9,16.4,1.4,17.1,1.1z"
				/>
			<polyline fill="#55CEBF" points="17.1,1.1 27.1,6.9 27.9,9.9 			"/>
			<path fill="#55CEBF" d="M26,3.6l-5.5-3.2C22.8,0.5,24.8,1.7,26,3.6z"/>
		</g>
		<path fill="#21C140" d="M30.6,17.7c-0.1-0.4-0.4-0.2-0.8-0.1l-4.3,1.1c-0.4,0.1-0.7,0.1-0.6,0.5l0.5,1.7c0.1,0.4,0.5,0.6,0.9,0.5
			l4.3-1.1c0.4-0.1,0.6-0.5,0.5-0.9L30.6,17.7z"/>
		<path fill="#05961D" d="M25.4,20.9c0.1,0.4,0.5,0.6,0.9,0.5l4.3-1.1c0.4-0.1,0.6-0.5,0.5-0.9l-0.5-1.7c-0.1-0.4-0.4-0.2-0.8-0.1"
			/>
		<path fill="#FF7B82" d="M30.6,27.5c0.1-0.2-0.4-0.7-1.1-0.9c-0.7-0.2-1.3-0.2-1.4,0c-0.1,0.3,0.4,0.7,1.1,0.9S30.5,27.8,30.6,27.5
			z"/>
		<g>
			<circle fill="#30D84C" cx="26.8" cy="19.8" r="0.3"/>
			<circle fill="#30D84C" cx="28.1" cy="19.5" r="0.3"/>
			<path fill="#30D84C" d="M29.6,19.1c0-0.1-0.2-0.2-0.3-0.2c-0.1,0-0.2,0.2-0.2,0.3c0,0.1,0.2,0.2,0.3,0.2
				C29.6,19.3,29.7,19.2,29.6,19.1z"/>
		</g>
		<path fill="#046812" d="M30.2,15.7c0,0,2.9-1.9,1.1-6c-1.8-4,1.2-5.7,3.3-4.1c0,0-0.8-1.6-1.9-1.8c0,0,0.2-0.6,0.9-0.7
			c0,0-4.4-1.4-4.6,2.7c-0.1,2.2,2.3,3.6,2.4,6.8C31.5,14.6,30.2,15.7,30.2,15.7z"/>
		<path fill="#046812" d="M30.3,15.5c0,0,2.7-0.1,3.1-3.5s3.1-3.2,3.8-1.4c0,0,0.2-1.4-0.5-2c0,0,0.4-0.3,0.9-0.1
			c0,0-2.3-2.7-4.1-0.1c-1,1.4,0,3.2-1.2,5.5C31.6,15.3,30.3,15.5,30.3,15.5z"/>
	</g>
	<rect x="8" y="18" fill="#CC3636" width="25" height="44"/>
	<polyline fill="#A00D0D" points="8,18 33,18 33,62 17,62 	"/>
	<polyline fill="#5B0202" points="8,18 33,18 33,62 	"/>
	<rect x="8" y="52" fill="#EAD681" width="25" height="2"/>
	<rect x="8" y="40" fill="#EAD681" width="25" height="3"/>
	<rect x="8" y="29" fill="#EAD681" width="25" height="2"/>
	<rect x="19" y="30" fill="#EAD681" width="2" height="12"/>
	<rect x="19" y="54" fill="#EAD681" width="2" height="8"/>
	<g>
		<rect x="12" y="41" fill="#EAD681" width="2" height="12"/>
		<rect x="27" y="41" fill="#EAD681" width="2" height="12"/>
	</g>
	<g>
		<rect x="12" y="19" fill="#EAD681" width="2" height="12"/>
		<rect x="27" y="19" fill="#EAD681" width="2" height="12"/>
	</g>
	<path fill="#E28723" d="M35,21.8c0,0.9-0.3,1.2-1,1.2H6.6C6,23,5,22.7,5,21.8v-6.9C5,14.1,6,13,6.6,13H34c0.6,0,1,1.1,1,1.9V21.8z"
		/>
	<path fill="#BC6713" d="M35,21.8c0,0.9-0.3,1.2-1,1.2H6.6C6,23,5,22.7,5,21.8"/>
	<path fill="#BC6713" d="M7,13h27c0.6,0,1,1.1,1,1.9v6.9c0,0.9-0.3,1.2-1,1.2"/>
	<path fill="#A5A5A5" d="M50.1,18.5c-3.9,0-7.1-3.2-7.1-7.1c0-1.8,0.7-3.5,1.9-4.8c-3.1,1.1-5.2,4.1-5.2,7.5c0,4.4,3.6,8,8,8
		c3.7,0,6.8-2.5,7.7-6C54.1,17.6,52.2,18.5,50.1,18.5z"/>
	<circle fill="#EDB74A" cx="7.6" cy="15.8" r="1"/>
	<circle fill="#EF9C48" cx="7.7" cy="18.4" r="0.4"/>
	<circle fill="#EF9C48" cx="10.6" cy="17.4" r="0.4"/>
	<circle fill="#EF9C48" cx="10" cy="19.9" r="0.1"/>
	<circle fill="#EDB74A" cx="7.9" cy="20.9" r="0.7"/>
	<circle fill="#EF9C48" cx="12.2" cy="19.4" r="0.3"/>
	<circle fill="#EF9C48" cx="15.1" cy="19.7" r="0.8"/>
	<circle fill="#EDB74A" cx="13.8" cy="17.5" r="0.5"/>
	<polygon fill="#E28723" points="41.8,28.9 42.4,30.3 43.9,30.5 42.9,31.6 43.1,33.1 41.8,32.4 40.4,33.1 40.7,31.6 39.6,30.5 
		41.1,30.3 	"/>
	<polygon fill="#E28723" points="49.7,24.9 50.2,25.8 51.2,26 50.5,26.7 50.6,27.8 49.7,27.3 48.8,27.8 49,26.7 48.2,26 49.2,25.8 	
		"/>
	<polygon fill="#E28723" points="52.5,31.9 53.3,33.5 55,33.7 53.7,35 54.1,36.8 52.5,35.9 50.9,36.8 51.2,35 49.9,33.7 51.7,33.5 	
		"/>
</g>
</svg>
