<?xml version="1.0" encoding="utf-8"?>
<!-- Generator: Adobe Illustrator 16.0.0, SVG Export Plug-In . SVG Version: 6.00 Build 0)  -->
<!DOCTYPE svg PUBLIC "-//W3C//DTD SVG 1.1//EN" "http://www.w3.org/Graphics/SVG/1.1/DTD/svg11.dtd">
<svg version="1.1" id="Layer_1" xmlns="http://www.w3.org/2000/svg" xmlns:xlink="http://www.w3.org/1999/xlink" x="0px" y="0px"
	 width="64px" height="64px" viewBox="0 0 64 64" enable-background="new 0 0 64 64" xml:space="preserve">
<g>
	<g>
		<g>
			<path fill="#275FAF" d="M32,54.9C19.4,54.9,9.1,44.6,9.1,32C9.1,19.4,19.4,9.1,32,9.1c12.6,0,22.9,10.3,22.9,22.9
				C54.9,44.6,44.6,54.9,32,54.9z M32,15c-9.4,0-17,7.6-17,17s7.6,17,17,17c9.4,0,17-7.6,17-17S41.4,15,32,15z"/>
		</g>
		<path fill="#144F96" d="M32,54.9c12.6,0,22.9-10.3,22.9-22.9c0-6.4-2.7-12.2-6.9-16.4l-4.2,4.2C47,22.9,49,27.2,49,32
			c0,9.4-7.6,17-17,17c-4.8,0-9.1-2-12.2-5.2l-4.2,4.2C19.8,52.2,25.6,54.9,32,54.9z"/>
		<g>
			<path fill="#1FE3E8" d="M32,46c-7.7,0-14-6.3-14-14s6.3-14,14-14c7.7,0,14,6.3,14,14S39.7,46,32,46z M32,21.3
				c-5.9,0-10.7,4.8-10.7,10.7S26.1,42.7,32,42.7S42.7,37.9,42.7,32S37.9,21.3,32,21.3z"/>
		</g>
		<path fill="#0DC0CE" d="M32,46c7.7,0,14-6.3,14-14c0-4-1.7-7.6-4.3-10.1l-2.4,2.4c2.1,1.9,3.3,4.7,3.3,7.7
			c0,5.9-4.8,10.7-10.7,10.7c-3,0-5.8-1.3-7.7-3.3l-2.4,2.4C24.4,44.4,28,46,32,46z"/>
		<circle fill="#EF2EC6" cx="32" cy="32" r="5.9"/>
		<path fill="#E520B2" d="M32,37.9c3.3,0,5.9-2.6,5.9-5.9c0-1.7-0.8-3.3-1.9-4.4l-8.3,8.3C28.7,37.1,30.3,37.9,32,37.9z"/>
	</g>
	<g>
		<g>
			<circle fill="#E520B2" cx="32" cy="3.6" r="2.1"/>
			<circle fill="#E520B2" cx="32" cy="60.4" r="2.1"/>
		</g>
		<g>
			<circle fill="#E520B2" cx="17.8" cy="7.4" r="2.1"/>
			<circle fill="#E520B2" cx="46.2" cy="56.6" r="2.1"/>
		</g>
		<g>
			
				<ellipse transform="matrix(0.4997 -0.8662 0.8662 0.4997 -11.7145 15.3123)" fill="#E520B2" cx="7.4" cy="17.8" rx="2.1" ry="2.1"/>
			<circle fill="#E520B2" cx="56.6" cy="46.2" r="2.1"/>
		</g>
		<g>
			<circle fill="#E520B2" cx="3.6" cy="32" r="2.1"/>
			<path fill="#E520B2" d="M60.4,29.9c1.2,0,2.1,0.9,2.1,2.1c0,1.2-0.9,2.1-2.1,2.1c-1.2,0-2.1-0.9-2.1-2.1
				C58.3,30.8,59.3,29.9,60.4,29.9z"/>
		</g>
		<g>
			<circle fill="#E520B2" cx="7.4" cy="46.2" r="2.1"/>
			<circle fill="#E520B2" cx="56.6" cy="17.8" r="2.1"/>
		</g>
		<g>
			<path fill="#E520B2" d="M16,55.6c0.6-1,1.9-1.3,2.9-0.8s1.3,1.9,0.8,2.9c-0.6,1-1.9,1.3-2.9,0.8C15.8,57.8,15.4,56.6,16,55.6z"/>
			<circle fill="#E520B2" cx="46.2" cy="7.4" r="2.1"/>
		</g>
	</g>
	<g>
		<g>
			<circle fill="#E520B2" cx="24.6" cy="4.6" r="2.1"/>
			<circle fill="#E520B2" cx="39.4" cy="59.4" r="2.1"/>
		</g>
		<g>
			<circle fill="#E520B2" cx="11.9" cy="12" r="2.1"/>
			<circle fill="#E520B2" cx="52.1" cy="52" r="2.1"/>
		</g>
		<g>
			<path fill="#E520B2" d="M5.1,22.7c1.1,0.3,1.8,1.4,1.5,2.6C6.3,26.4,5.1,27,4,26.7c-1.1-0.3-1.8-1.4-1.5-2.6
				C2.8,23.1,4,22.4,5.1,22.7z"/>
			<circle fill="#E520B2" cx="59.5" cy="39.3" r="2.1"/>
		</g>
		<g>
			<path fill="#E520B2" d="M4,37.4c1.1-0.3,2.3,0.4,2.6,1.5c0.3,1.1-0.4,2.3-1.5,2.6C4,41.7,2.9,41.1,2.6,40
				C2.3,38.9,2.9,37.7,4,37.4z"/>
			<circle fill="#E520B2" cx="59.4" cy="24.6" r="2.1"/>
		</g>
		<g>
			<circle fill="#E520B2" cx="12" cy="52.1" r="2.1"/>
			<circle fill="#E520B2" cx="52" cy="11.9" r="2.1"/>
		</g>
		<g>
			<circle fill="#E520B2" cx="24.7" cy="59.5" r="2.1"/>
			<circle fill="#E520B2" cx="39.3" cy="4.5" r="2.1"/>
		</g>
	</g>
</g>
</svg>
