<?xml version="1.0" encoding="utf-8"?>
<!-- Generator: Adobe Illustrator 16.0.0, SVG Export Plug-In . SVG Version: 6.00 Build 0)  -->
<!DOCTYPE svg PUBLIC "-//W3C//DTD SVG 1.1//EN" "http://www.w3.org/Graphics/SVG/1.1/DTD/svg11.dtd">
<svg version="1.1" xmlns="http://www.w3.org/2000/svg" xmlns:xlink="http://www.w3.org/1999/xlink" x="0px" y="0px" width="65px"
	 height="65px" viewBox="0 0 65 65" enable-background="new 0 0 65 65" xml:space="preserve">
<g id="Layer_1">
	<g>
		<g>
			<path fill="#229666" d="M20.384,17.253h-1.076v-2.845c0-1.404,1.142-2.546,2.545-2.546h6.525v1.078h-6.525
				c-0.811,0-1.469,0.658-1.469,1.468V17.253z"/>
		</g>
		<path fill="#229666" d="M44.098,17.882c0,1.19-0.966,2.156-2.155,2.156H30.981c-1.188,0-2.156-0.966-2.156-2.156v-5.03
			c0-1.19,0.968-2.156,2.156-2.156h10.961c1.189,0,2.155,0.966,2.155,2.156V17.882z"/>
		<path fill="#3EBA64" d="M35.542,17.882v-5.03c0-1.19-0.966-2.156-2.155-2.156h-2.405c-1.188,0-2.156,0.966-2.156,2.156v5.03
			c0,1.19,0.968,2.156,2.156,2.156h2.405C34.576,20.038,35.542,19.072,35.542,17.882z"/>
		<path fill="#112D3F" d="M47.085,63.106c0,0.771-0.623,1.394-1.394,1.394H27.232c-0.771,0-1.394-0.623-1.394-1.394V14.693
			c0-0.771,0.623-1.394,1.394-1.394h18.459c0.771,0,1.394,0.623,1.394,1.394V63.106z"/>
		<path fill="#134D70" d="M36.485,63.106V14.693c0-0.771-0.622-1.394-1.393-1.394h-7.86c-0.771,0-1.394,0.623-1.394,1.394v48.413
			c0,0.771,0.623,1.394,1.394,1.394h7.86C35.863,64.5,36.485,63.877,36.485,63.106z"/>
		<path fill="#A8C1B6" d="M46.905,9.127c0,1.337-1.084,2.422-2.422,2.422H28.44c-1.336,0-2.421-1.085-2.421-2.422V2.921
			c0-1.337,1.085-2.421,2.421-2.421h16.043c1.338,0,2.422,1.084,2.422,2.421V9.127z"/>
		<path fill="#B8CCC2" d="M44.483,0.5H28.44c-1.336,0-2.421,1.084-2.421,2.421v3.422c0,1.337,1.085,2.422,2.421,2.422h16.043
			c1.338,0,2.422-1.085,2.422-2.422V2.921C46.905,1.584,45.821,0.5,44.483,0.5z"/>
		<path fill="#CCDBD3" d="M44.483,0.5H28.44c-1.336,0-2.421,1.084-2.421,2.421v3.422"/>
		<path fill="#CCDBD3" d="M46.905,6.343"/>
		<path fill="#B8CCC2" d="M20.834,17.701c0,0.595-0.483,1.078-1.079,1.078l0,0c-0.594,0-1.077-0.483-1.077-1.078v-1.976
			c0-0.596,0.483-1.078,1.077-1.078l0,0c0.596,0,1.079,0.482,1.079,1.078V17.701z"/>
		<g>
			<path fill="#B8CCC2" d="M19.755,44.738c-1.014,0-1.84-0.827-1.84-1.842V19.632c0-1.015,0.826-1.841,1.84-1.841
				c1.016,0,1.842,0.826,1.842,1.841v23.265C21.597,43.911,20.771,44.738,19.755,44.738z M19.755,18.868
				c-0.42,0-0.763,0.343-0.763,0.764v23.265c0,0.422,0.343,0.764,0.763,0.764c0.422,0,0.764-0.342,0.764-0.764V19.632
				C20.519,19.211,20.177,18.868,19.755,18.868z"/>
		</g>
		<path fill="#156289" d="M31.522,35.129c0,0.744-0.604,1.347-1.348,1.347l0,0c-0.744,0-1.348-0.603-1.348-1.347V16.624
			c0-0.744,0.604-1.348,1.348-1.348l0,0c0.744,0,1.348,0.604,1.348,1.348V35.129z"/>
		<path fill="#156289" d="M31.522,46.087c0,0.745-0.604,1.348-1.348,1.348l0,0c-0.744,0-1.348-0.603-1.348-1.348v-5.569
			c0-0.744,0.604-1.347,1.348-1.347l0,0c0.744,0,1.348,0.603,1.348,1.347V46.087z"/>
		<path fill="#156289" d="M31.522,56.147c0,0.744-0.604,1.348-1.348,1.348l0,0c-0.744,0-1.348-0.604-1.348-1.348v-5.569
			c0-0.744,0.604-1.348,1.348-1.348l0,0c0.744,0,1.348,0.604,1.348,1.348V56.147z"/>
	</g>
</g>
<g id="nyt_x5F_exporter_x5F_info" display="none">
</g>
</svg>
