<?xml version="1.0" encoding="utf-8"?>
<!-- Generator: Adobe Illustrator 16.0.0, SVG Export Plug-In . SVG Version: 6.00 Build 0)  -->
<!DOCTYPE svg PUBLIC "-//W3C//DTD SVG 1.1//EN" "http://www.w3.org/Graphics/SVG/1.1/DTD/svg11.dtd">
<svg version="1.1" id="Layer_1" xmlns="http://www.w3.org/2000/svg" xmlns:xlink="http://www.w3.org/1999/xlink" x="0px" y="0px"
	 width="65px" height="65px" viewBox="0 0 65 65" enable-background="new 0 0 65 65" xml:space="preserve">
<g>
	<path fill="#510940" d="M28.004,26.5c0,0-15.334,3.834-18.668,0c-3.332-3.832-5.5,6.334-2.166,7.5c3.334,1.168-0.5,2.501,3,3.834
		c3.5,1.334,4-2.5,6.834-1.166c2.832,1.332,1,3.666,3.5,6.332c2.5,2.668,1.334,1.668,5.5,1.834s2.666,1.834,4.332,2.5
		c1.668,0.666,1.668,0.334,5.168-2.666s8.5,4.333,10.332,1.166c1.834-3.166-1.166-5.5,3.168-6.5c4.332-1,7.166-0.333,7.332-3.5
		c0.168-3.166,4.334-1.334,2.834-5.334s-13.334-0.332-15.834-2.332S28.004,26.5,28.004,26.5z"/>
	<path fill="#AA0909" d="M33.611,26.369c1.271,1.432,0.464,4.228-1.806,6.249c-2.27,2.018-14.475,10.794-15.75,9.365
		c-1.271-1.434,8.873-12.532,11.143-14.55C29.466,25.415,32.336,24.938,33.611,26.369z"/>
	<path fill="#AA0909" d="M36.399,26.369c-1.273,1.432-0.465,4.228,1.804,6.249c2.271,2.018,14.476,10.794,15.75,9.365
		c1.272-1.434-8.872-12.532-11.142-14.55C40.544,25.415,37.673,24.938,36.399,26.369z"/>
	<g>
		<g>
			<g>
				<path fill="#AA0909" d="M47.002,46.446c0,2.476-2.007,15.827-4.486,15.827c-2.474,0-4.482-13.352-4.482-15.827
					s2.009-4.484,4.482-4.484C44.995,41.962,47.002,43.971,47.002,46.446z"/>
				<path fill="#AA0909" d="M31.978,46.446c0,2.476-2.008,15.827-4.486,15.827c-2.476,0-4.482-13.352-4.482-15.827
					s2.007-4.484,4.482-4.484C29.97,41.962,31.978,43.971,31.978,46.446z"/>
				<g>
					<g>
						<path fill="#CE1111" d="M47.654,40.521c0,16.038-5.661,10.697-12.65,10.697c-6.985,0-12.65,5.341-12.65-10.697
							c0-9.17,5.666-16.603,12.65-16.603C41.991,23.919,47.654,31.352,47.654,40.521z"/>
						<g>
							<path fill="#77105A" d="M24.068,54.085c0.698,3.466,1.69,6.945,2.813,7.916H28.1c1.127-0.971,2.119-4.45,2.818-7.916H24.068z
								"/>
							<path fill="#77105A" d="M39.093,54.085c0.699,3.466,1.691,6.945,2.814,7.916h1.219c1.126-0.971,2.119-4.45,2.817-7.916
								H39.093z"/>
						</g>
						<g>
							<path fill="#9B197D" d="M32.537,62.354c0,1.896-2.259,2.146-5.044,2.146s-5.045-0.249-5.045-2.146
								c0-1.897,2.26-4.508,5.045-4.508S32.537,60.457,32.537,62.354z"/>
							<path fill="#77105A" d="M32.537,62.354c0,1.896-2.259,2.146-5.044,2.146s-5.045-0.249-5.045-2.146"/>
						</g>
						<g>
							<path fill="#9B197D" d="M47.563,62.354c0,1.896-2.261,2.146-5.045,2.146s-5.045-0.249-5.045-2.146
								c0-1.897,2.261-4.508,5.045-4.508S47.563,60.457,47.563,62.354z"/>
							<path fill="#77105A" d="M47.563,62.354c0,1.896-2.261,2.146-5.045,2.146s-5.045-0.249-5.045-2.146"/>
						</g>
						<g>
							<path fill="#CE1111" d="M51.376,16.275c0,7.999-7.33,12.02-16.369,12.02c-9.041,0-16.373-4.021-16.373-12.02
								c0-8.001,7.332-15.775,16.373-15.775C44.046,0.5,51.376,8.274,51.376,16.275z"/>
							<path fill="#AA0909" d="M51.376,16.275c0,7.999-7.33,12.809-16.369,12.809c-9.041,0-16.373-4.81-16.373-12.809"/>
						</g>
					</g>
				</g>
				<path fill="#77105A" d="M18.617,37.03c-1.822,2.377-3.056,4.396-2.562,4.953c0.485,0.544,2.557-0.393,5.059-1.871l0.293-0.293
					L18.617,37.03z"/>
				<path fill="#77105A" d="M48.509,39.882c2.674,1.609,4.936,2.674,5.444,2.102c0.496-0.559-0.745-2.587-2.575-4.971L48.509,39.882
					z"/>
			</g>
		</g>
		<polygon fill="#F4CB89" points="46.261,7.58 45.127,19.479 35.002,23.166 24.883,19.479 23.749,7.58 		"/>
		<polygon fill="#DBAE6E" points="46.033,9.955 46.261,7.58 23.749,7.58 23.976,9.955 		"/>
	</g>
	<path fill="#F4CB89" d="M29.088,27.642c1.838,0.429,3.829,0.653,5.919,0.653c2.088,0,4.078-0.225,5.915-0.653v-8.976H29.088V27.642
		z"/>
	<g>
		<g>
			<circle fill="#113E49" cx="29.121" cy="16.334" r="1.464"/>
			<path d="M30.585,16.334c0,0.81-0.656,1.464-1.466,1.464c-0.808,0-1.462-0.654-1.462-1.464"/>
			<g>
				<path fill="#FFD3C5" d="M32.009,19.388c-0.078,0-0.158-0.029-0.219-0.092c-0.715-0.712-1.664-1.107-2.673-1.107h-0.001
					c-1.007,0-1.955,0.396-2.667,1.107c-0.12,0.122-0.315,0.123-0.435,0c-0.121-0.117-0.125-0.312-0.004-0.434
					c0.83-0.83,1.933-1.289,3.105-1.289h0.001c1.177,0,2.28,0.455,3.112,1.287c0.119,0.119,0.119,0.318,0,0.436
					C32.169,19.358,32.091,19.388,32.009,19.388z"/>
			</g>
		</g>
		<g>
			<circle fill="#113E49" cx="40.89" cy="16.334" r="1.464"/>
			<path d="M39.426,16.334c0,0.81,0.654,1.464,1.465,1.464c0.809,0,1.463-0.654,1.463-1.464"/>
			<g>
				<path fill="#FFD3C5" d="M38.002,19.388c0.076,0,0.156-0.029,0.217-0.092c0.715-0.712,1.664-1.107,2.672-1.107h0.002
					c1.008,0,1.957,0.396,2.668,1.107c0.119,0.122,0.314,0.123,0.436,0c0.121-0.117,0.123-0.312,0.002-0.434
					c-0.826-0.83-1.932-1.289-3.105-1.289h-0.002c-1.174,0-2.277,0.455-3.111,1.287c-0.117,0.119-0.117,0.318,0,0.436
					C37.842,19.358,37.92,19.388,38.002,19.388z"/>
			</g>
		</g>
	</g>
	<g>
		<path fill="#870808" d="M38.484,21.257c0,0.935-0.759,1.692-1.693,1.692h-3.572c-0.936,0-1.691-0.758-1.691-1.692v-1.598
			c0-0.936,0.756-1.692,1.691-1.692h3.572c0.935,0,1.693,0.757,1.693,1.692V21.257z"/>
		<path fill="#AA0909" d="M33.219,21.211c-0.635,0-1.182,0.353-1.47,0.869c0.288,0.516,0.835,0.869,1.47,0.869h3.572
			c0.634,0,1.18-0.354,1.471-0.869c-0.291-0.517-0.837-0.869-1.471-0.869H33.219z"/>
	</g>
</g>
</svg>
