<?xml version="1.0" encoding="utf-8"?>
<!-- Generator: Adobe Illustrator 16.0.0, SVG Export Plug-In . SVG Version: 6.00 Build 0)  -->
<!DOCTYPE svg PUBLIC "-//W3C//DTD SVG 1.1//EN" "http://www.w3.org/Graphics/SVG/1.1/DTD/svg11.dtd">
<svg version="1.1" id="Layer_1" xmlns="http://www.w3.org/2000/svg" xmlns:xlink="http://www.w3.org/1999/xlink" x="0px" y="0px"
	 width="64px" height="64px" viewBox="0 0 64 64" enable-background="new 0 0 64 64" xml:space="preserve">
<g>
	<g>
		<g>
			<ellipse fill="#F9D710" cx="19.1" cy="6" rx="15.3" ry="2.3"/>
			<path fill="#FCB80D" d="M19.1,3.7c8.5,0,15.3,1,15.3,2.3c0,1.3-6.9,2.3-15.3,2.3"/>
			<path fill="#F99410" d="M34.4,6L34.4,6c-0.2,1.2-7,2.2-15.3,2.2C10.7,8.3,4,7.3,3.8,6h0v5.7c0,0,0,0,0,0.1c0,0,0,0,0,0.1v0h0
				c0.3,1.2,7,2.2,15.3,2.2c8.3,0,15-1,15.3-2.2h0v0c0,0,0,0,0-0.1c0,0,0,0,0-0.1V6z"/>
			<path fill="#F99410" d="M3.8,11.8C3.8,11.8,3.8,11.8,3.8,11.8"/>
			<path fill="#ED8406" d="M19.1,14c8.3,0,15-1,15.3-2.2h0v0c0,0,0,0,0-0.1c0,0,0,0,0-0.1V6h0c-0.2,1.2-7,2.2-15.3,2.2"/>
			<g>
				<path fill="#FCB80D" d="M6.3,13c0.4,0.1,0.8,0.2,1.3,0.3V7.5C7.1,7.4,6.7,7.3,6.3,7.2V13z"/>
				<path fill="#FCB80D" d="M10.4,13.6c0.4,0,0.8,0.1,1.3,0.1V8c-0.4,0-0.9-0.1-1.3-0.1V13.6z"/>
				<path fill="#FCB80D" d="M14.4,13.9c0.4,0,0.8,0,1.3,0.1V8.2c-0.4,0-0.9,0-1.3-0.1V13.9z"/>
				<path fill="#FCB80D" d="M18.4,14c0.2,0,0.4,0,0.6,0c0.2,0,0.4,0,0.6,0V8.3c-0.2,0-0.4,0-0.6,0c-0.2,0-0.4,0-0.6,0V14z"/>
				<path fill="#F99410" d="M22.5,14c0.4,0,0.9,0,1.3-0.1V8.1c-0.4,0-0.9,0-1.3,0.1V14z"/>
				<path fill="#F99410" d="M26.5,13.8c0.4,0,0.9-0.1,1.3-0.1V7.8c-0.4,0-0.8,0.1-1.3,0.1V13.8z"/>
				<path fill="#F99410" d="M30.6,13.3c0.5-0.1,0.9-0.2,1.3-0.3V7.2c-0.4,0.1-0.8,0.2-1.3,0.3V13.3z"/>
			</g>
		</g>
		<g>
			<ellipse fill="#F9D710" cx="19.1" cy="17.5" rx="15.3" ry="2.3"/>
			<path fill="#FCB80D" d="M19.1,15.2c8.5,0,15.3,1,15.3,2.3c0,1.3-6.9,2.3-15.3,2.3"/>
			<path fill="#F99410" d="M34.4,17.6L34.4,17.6c-0.2,1.2-7,2.2-15.3,2.2c-8.3,0-15.1-1-15.3-2.2h0v5.7c0,0,0,0,0,0.1c0,0,0,0,0,0.1
				v0h0c0.3,1.2,7,2.2,15.3,2.2c8.3,0,15-1,15.3-2.2h0v0c0,0,0,0,0-0.1c0,0,0,0,0-0.1V17.6z"/>
			<path fill="#F99410" d="M3.8,23.3C3.8,23.3,3.8,23.4,3.8,23.3"/>
			<path fill="#ED8406" d="M19.1,25.6c8.3,0,15-1,15.3-2.2h0v0c0,0,0,0,0-0.1c0,0,0,0,0-0.1v-5.7h0c-0.2,1.2-7,2.2-15.3,2.2"/>
			<g>
				<path fill="#FCB80D" d="M6.3,24.6c0.4,0.1,0.8,0.2,1.3,0.3v-5.8c-0.5-0.1-0.9-0.2-1.3-0.3V24.6z"/>
				<path fill="#FCB80D" d="M10.4,25.2c0.4,0,0.8,0.1,1.3,0.1v-5.8c-0.4,0-0.9-0.1-1.3-0.1V25.2z"/>
				<path fill="#FCB80D" d="M14.4,25.5c0.4,0,0.8,0,1.3,0.1v-5.8c-0.4,0-0.9,0-1.3-0.1V25.5z"/>
				<path fill="#FCB80D" d="M18.4,25.6c0.2,0,0.4,0,0.6,0c0.2,0,0.4,0,0.6,0v-5.8c-0.2,0-0.4,0-0.6,0c-0.2,0-0.4,0-0.6,0V25.6z"/>
				<path fill="#F99410" d="M22.5,25.6c0.4,0,0.9,0,1.3-0.1v-5.8c-0.4,0-0.9,0-1.3,0.1V25.6z"/>
				<path fill="#F99410" d="M26.5,25.3c0.4,0,0.9-0.1,1.3-0.1v-5.8c-0.4,0-0.8,0.1-1.3,0.1V25.3z"/>
				<path fill="#F99410" d="M30.6,24.8c0.5-0.1,0.9-0.2,1.3-0.3v-5.8c-0.4,0.1-0.8,0.2-1.3,0.3V24.8z"/>
			</g>
		</g>
		<g>
			<ellipse fill="#F9D710" cx="19.1" cy="29.1" rx="15.3" ry="2.3"/>
			<path fill="#FCB80D" d="M19.1,26.8c8.5,0,15.3,1,15.3,2.3c0,1.3-6.9,2.3-15.3,2.3"/>
			<path fill="#F99410" d="M34.4,29.2L34.4,29.2c-0.2,1.2-7,2.2-15.3,2.2c-8.3,0-15.1-1-15.3-2.2h0v5.7c0,0,0,0,0,0.1c0,0,0,0,0,0.1
				v0h0c0.3,1.2,7,2.2,15.3,2.2c8.3,0,15-1,15.3-2.2h0v0c0,0,0,0,0-0.1c0,0,0,0,0-0.1V29.2z"/>
			<path fill="#F99410" d="M3.8,34.9C3.8,34.9,3.8,34.9,3.8,34.9"/>
			<path fill="#ED8406" d="M19.1,37.2c8.3,0,15-1,15.3-2.2h0v0c0,0,0,0,0-0.1c0,0,0,0,0-0.1v-5.7h0c-0.2,1.2-7,2.2-15.3,2.2"/>
			<g>
				<path fill="#FCB80D" d="M6.3,36.2c0.4,0.1,0.8,0.2,1.3,0.3v-5.8c-0.5-0.1-0.9-0.2-1.3-0.3V36.2z"/>
				<path fill="#FCB80D" d="M10.4,36.8c0.4,0,0.8,0.1,1.3,0.1v-5.8c-0.4,0-0.9-0.1-1.3-0.1V36.8z"/>
				<path fill="#FCB80D" d="M14.4,37.1c0.4,0,0.8,0,1.3,0.1v-5.8c-0.4,0-0.9,0-1.3-0.1V37.1z"/>
				<path fill="#FCB80D" d="M18.4,37.2c0.2,0,0.4,0,0.6,0c0.2,0,0.4,0,0.6,0v-5.8c-0.2,0-0.4,0-0.6,0c-0.2,0-0.4,0-0.6,0V37.2z"/>
				<path fill="#F99410" d="M22.5,37.1c0.4,0,0.9,0,1.3-0.1v-5.8c-0.4,0-0.9,0-1.3,0.1V37.1z"/>
				<path fill="#F99410" d="M26.5,36.9c0.4,0,0.9-0.1,1.3-0.1V31c-0.4,0-0.8,0.1-1.3,0.1V36.9z"/>
				<path fill="#F99410" d="M30.6,36.4c0.5-0.1,0.9-0.2,1.3-0.3v-5.8c-0.4,0.1-0.8,0.2-1.3,0.3V36.4z"/>
			</g>
		</g>
		<g>
			<ellipse fill="#F9D710" cx="19.1" cy="40.7" rx="15.3" ry="2.3"/>
			<path fill="#FCB80D" d="M19.1,38.4c8.5,0,15.3,1,15.3,2.3c0,1.3-6.9,2.3-15.3,2.3"/>
			<path fill="#F99410" d="M34.4,40.7L34.4,40.7c-0.2,1.2-7,2.2-15.3,2.2C10.7,43,4,42,3.8,40.7h0v5.7c0,0,0,0,0,0.1c0,0,0,0,0,0.1
				v0h0c0.3,1.2,7,2.2,15.3,2.2c8.3,0,15-1,15.3-2.2h0v0c0,0,0,0,0-0.1c0,0,0,0,0-0.1V40.7z"/>
			<path fill="#F99410" d="M3.8,46.5C3.8,46.5,3.8,46.5,3.8,46.5"/>
			<path fill="#ED8406" d="M19.1,48.8c8.3,0,15-1,15.3-2.2h0v0c0,0,0,0,0-0.1c0,0,0,0,0-0.1v-5.7h0c-0.2,1.2-7,2.2-15.3,2.2"/>
			<g>
				<path fill="#FCB80D" d="M6.3,47.7c0.4,0.1,0.8,0.2,1.3,0.3v-5.8c-0.5-0.1-0.9-0.2-1.3-0.2V47.7z"/>
				<path fill="#FCB80D" d="M10.4,48.4c0.4,0,0.8,0.1,1.3,0.1v-5.8c-0.4,0-0.9-0.1-1.3-0.1V48.4z"/>
				<path fill="#FCB80D" d="M14.4,48.7c0.4,0,0.8,0,1.3,0.1v-5.8c-0.4,0-0.9,0-1.3-0.1V48.7z"/>
				<path fill="#FCB80D" d="M18.4,48.8c0.2,0,0.4,0,0.6,0c0.2,0,0.4,0,0.6,0V43c-0.2,0-0.4,0-0.6,0c-0.2,0-0.4,0-0.6,0V48.8z"/>
				<path fill="#F99410" d="M22.5,48.7c0.4,0,0.9,0,1.3-0.1v-5.8c-0.4,0-0.9,0-1.3,0.1V48.7z"/>
				<path fill="#F99410" d="M26.5,48.5c0.4,0,0.9-0.1,1.3-0.1v-5.8c-0.4,0-0.8,0.1-1.3,0.1V48.5z"/>
				<path fill="#F99410" d="M30.6,48c0.5-0.1,0.9-0.2,1.3-0.3v-5.8c-0.4,0.1-0.8,0.2-1.3,0.2V48z"/>
			</g>
		</g>
		<g>
			<ellipse fill="#F9D710" cx="19.1" cy="52.3" rx="15.3" ry="2.3"/>
			<path fill="#FCB80D" d="M19.1,50c8.5,0,15.3,1,15.3,2.3c0,1.3-6.9,2.3-15.3,2.3"/>
			<path fill="#F99410" d="M34.4,52.3L34.4,52.3c-0.2,1.2-7,2.2-15.3,2.2c-8.3,0-15.1-1-15.3-2.2h0V58c0,0,0,0,0,0.1c0,0,0,0,0,0.1
				v0h0c0.3,1.2,7,2.2,15.3,2.2c8.3,0,15-1,15.3-2.2h0v0c0,0,0,0,0-0.1c0,0,0,0,0-0.1V52.3z"/>
			<path fill="#F99410" d="M3.8,58C3.8,58.1,3.8,58.1,3.8,58"/>
			<path fill="#ED8406" d="M19.1,60.3c8.3,0,15-1,15.3-2.2h0v0c0,0,0,0,0-0.1c0,0,0,0,0-0.1v-5.7h0c-0.2,1.2-7,2.2-15.3,2.2"/>
			<g>
				<path fill="#FCB80D" d="M6.3,59.3c0.4,0.1,0.8,0.2,1.3,0.3v-5.8c-0.5-0.1-0.9-0.2-1.3-0.2V59.3z"/>
				<path fill="#FCB80D" d="M10.4,59.9c0.4,0,0.8,0.1,1.3,0.1v-5.8c-0.4,0-0.9-0.1-1.3-0.1V59.9z"/>
				<path fill="#FCB80D" d="M14.4,60.2c0.4,0,0.8,0,1.3,0.1v-5.8c-0.4,0-0.9,0-1.3-0.1V60.2z"/>
				<path fill="#FCB80D" d="M18.4,60.3c0.2,0,0.4,0,0.6,0c0.2,0,0.4,0,0.6,0v-5.8c-0.2,0-0.4,0-0.6,0c-0.2,0-0.4,0-0.6,0V60.3z"/>
				<path fill="#F99410" d="M22.5,60.3c0.4,0,0.9,0,1.3-0.1v-5.8c-0.4,0-0.9,0-1.3,0.1V60.3z"/>
				<path fill="#F99410" d="M26.5,60c0.4,0,0.9-0.1,1.3-0.1v-5.8c-0.4,0-0.8,0.1-1.3,0.1V60z"/>
				<path fill="#F99410" d="M30.6,59.6c0.5-0.1,0.9-0.2,1.3-0.3v-5.8c-0.4,0.1-0.8,0.2-1.3,0.2V59.6z"/>
			</g>
		</g>
	</g>
	<g>
		<rect x="37.7" y="13.7" fill="#34B515" width="22.6" height="37.8"/>
		<polyline fill="#2AA507" points="37.7,13.7 60.2,13.7 60.2,51.5 		"/>
		<rect x="41.4" y="17.3" fill="#2E8704" width="15.2" height="30.5"/>
		<polyline fill="#287003" points="41.4,17.3 56.6,17.3 56.6,47.9 		"/>
		<g>
			<ellipse fill="#FFFFFF" cx="49" cy="32.6" rx="5.7" ry="5.3"/>
			<path fill="#E5E5E5" d="M49,27.3c3.2,0,5.7,2.4,5.7,5.3s-2.6,5.3-5.7,5.3"/>
		</g>
	</g>
</g>
</svg>
