<?xml version="1.0" encoding="utf-8"?>
<!-- Generator: Adobe Illustrator 16.0.0, SVG Export Plug-In . SVG Version: 6.00 Build 0)  -->
<!DOCTYPE svg PUBLIC "-//W3C//DTD SVG 1.1//EN" "http://www.w3.org/Graphics/SVG/1.1/DTD/svg11.dtd">
<svg version="1.1" id="Layer_1" xmlns="http://www.w3.org/2000/svg" xmlns:xlink="http://www.w3.org/1999/xlink" x="0px" y="0px"
	 width="64px" height="64px" viewBox="0 0 64 64" enable-background="new 0 0 64 64" xml:space="preserve">
<g>
	<path fill="#0B7F9E" d="M52,21.9c0,17.6-9.5,36.3-20,36.3S12,39.6,12,21.9S21.6,0.3,32,0.3S52,4.3,52,21.9z"/>
	<path fill="#0B6382" d="M32,0.3c10.4,0,20,4,20,21.6s-9.5,36.3-20,36.3S12,39.6,12,21.9"/>
	<path fill="#00233F" d="M32,0.3c10.4,0,20,4,20,21.6s-9.5,36.3-20,36.3"/>
	<g>
		<g>
			<g>
				<path fill="#022728" d="M27.3,10.3c0,1.7-1.4,4.4-3.2,4.4c-1.7,0-3.2-2.6-3.2-4.4c0-1.7,1.4-3.2,3.2-3.2
					C25.8,7.1,27.3,8.5,27.3,10.3z"/>
				<circle fill="#00FFF2" cx="24.1" cy="10.3" r="3.2"/>
				<path fill="#16D8D8" d="M21.8,8c1.2-1.2,3.2-1.2,4.5,0c1.2,1.2,1.2,3.2,0,4.5"/>
			</g>
			<g>
				<circle fill="#00FFF2" cx="24.1" cy="10.3" r="1.8"/>
				<path fill="#16D8D8" d="M24.1,12.1c-1,0-1.8-0.8-1.8-1.8c0-1,0.8-1.8,1.8-1.8"/>
			</g>
			<circle fill="#EBFFFD" cx="22.7" cy="8.9" r="1.1"/>
			<circle fill="#EBFFFD" cx="25.9" cy="11.9" r="0.5"/>
		</g>
		<g>
			<g>
				<path fill="#0B6382" d="M43.1,10.3c0,1.7-1.4,4.4-3.2,4.4c-1.7,0-3.2-2.6-3.2-4.4c0-1.7,1.4-3.2,3.2-3.2
					C41.7,7.1,43.1,8.5,43.1,10.3z"/>
				<circle fill="#00FFF2" cx="39.9" cy="10.3" r="3.2"/>
				<path fill="#16D8D8" d="M37.7,8c1.2-1.2,3.2-1.2,4.5,0c1.2,1.2,1.2,3.2,0,4.5"/>
			</g>
			<g>
				<circle fill="#00FFF2" cx="39.9" cy="10.3" r="1.8"/>
				<path fill="#16D8D8" d="M39.9,12.1c-1,0-1.8-0.8-1.8-1.8c0-1,0.8-1.8,1.8-1.8"/>
			</g>
			<circle fill="#EBFFFD" cx="38.5" cy="8.9" r="1.1"/>
			<circle fill="#EBFFFD" cx="41.7" cy="11.9" r="0.5"/>
		</g>
	</g>
	<ellipse fill="#91C6C2" cx="32" cy="62.2" rx="13" ry="1.5"/>
	<g>
		<g>
			<path fill="#00FFF2" d="M24.2,18L20,13l0,0h-7.7c-0.1,1-0.2,2-0.2,2h7.1l4.8,5l0,0l0,0h7v-2H24.2z"/>
			<polyline fill="#16D8D8" points="12,15 19.2,15 24,20 24,20 24,20 31,20 31,19.4 24.1,18.8 20,14 20,14 			"/>
		</g>
		<g>
			<path fill="#00FFF2" d="M39.8,18l4.2-5l0,0h7.7c0.1,1,0.2,2,0.2,2h-7.1L40,20l0,0l0,0h-7v-2H39.8z"/>
			<polyline fill="#16D8D8" points="52,15 44.8,15 40,20 40,20 40,20 33,20 33,19.4 39.9,18.8 44,14 44,14 			"/>
		</g>
	</g>
	<circle fill="#00FFF2" cx="32" cy="18.7" r="2"/>
	<path fill="#16D8D8" d="M34,18.7c0,1.1-0.9,2-2,2s-2-0.9-2-2"/>
	<g>
		<path fill="#0B7F9E" d="M12.1,22l-0.1-0.2c0,0.1-0.1,0.1-0.1,0.2c0,11.7,4,23.6,10,30.4v-27L18.2,22H12.1z"/>
		<path fill="#00233F" d="M12.1,21.3L12,21.5c0,0.1-0.1,0.3-0.1,0.4c0,11.7,4,23.8,10,30.6V25"/>
	</g>
	<g>
		<path fill="#0B7F9E" d="M51.8,22l0.1-0.2c0,0.1,0.1,0.1,0.1,0.2c0,11.7-4,23.1-10,30V25.4l3.7-3.4H51.8z"/>
		<path fill="#02405B" d="M51.9,21.3l0,0.2c0,0.1,0.1,0.3,0.1,0.4c0,11.7-4,23.8-10,30.6L42,25"/>
	</g>
	<g>
		<circle fill="#0B6382" cx="6.6" cy="38.4" r="5.1"/>
		<path fill="#00233F" d="M6.6,33.4c2.8,0,5.1,2.3,5.1,5.1c0,2.8-2.3,5.1-5.1,5.1"/>
		<circle fill="#00233F" cx="6.6" cy="31.2" r="1.2"/>
		<polyline fill="#16D8D8" points="7,30 7,25 10,25 10,21 12,21 		"/>
		
			<ellipse transform="matrix(0.9969 -7.895486e-02 7.895486e-02 0.9969 -2.0543 1.0675)" fill="#0B7F9E" cx="12.5" cy="26.5" rx="1.7" ry="5"/>
		
			<ellipse transform="matrix(0.9969 -7.879969e-02 7.879969e-02 0.9969 -2.0544 1.0209)" fill="#0B6382" cx="11.9" cy="26.5" rx="0.7" ry="3"/>
		<circle fill="#16D8D8" cx="16.2" cy="26.7" r="0.4"/>
		<circle fill="#16D8D8" cx="17.8" cy="26.2" r="0.4"/>
		<circle fill="#16D8D8" cx="19.4" cy="25.8" r="0.4"/>
		<path fill="#00FFF2" d="M9,39.5C9,39.8,8.8,40,8.5,40h-4C4.2,40,4,39.8,4,39.5l0,0C4,39.2,4.2,39,4.5,39h4C8.8,39,9,39.2,9,39.5
			L9,39.5z"/>
	</g>
	<g>
		<circle fill="#0B6382" cx="57.4" cy="38.4" r="5.1"/>
		<path fill="#00233F" d="M57.4,33.4c-2.8,0-5.1,2.3-5.1,5.1c0,2.8,2.3,5.1,5.1,5.1"/>
		<circle fill="#00233F" cx="57.4" cy="31.2" r="1.2"/>
		<polyline fill="#16D8D8" points="57,30 57,25 54,25 54,21 52,21 		"/>
		
			<ellipse transform="matrix(-0.9969 -7.895484e-02 7.895484e-02 -0.9969 100.8016 57.009)" fill="#0B7F9E" cx="51.5" cy="26.5" rx="1.7" ry="5"/>
		
			<ellipse transform="matrix(-0.9969 -7.879964e-02 7.879964e-02 -0.9969 101.9292 57.1043)" fill="#0B6382" cx="52.1" cy="26.5" rx="0.7" ry="3"/>
		<circle fill="#16D8D8" cx="47.8" cy="26.7" r="0.4"/>
		<circle fill="#16D8D8" cx="46.2" cy="26.2" r="0.4"/>
		<circle fill="#16D8D8" cx="44.6" cy="25.8" r="0.4"/>
		<path fill="#00FFF2" d="M60,39.5c0-0.3-0.2-0.5-0.5-0.5h-4c-0.3,0-0.5,0.2-0.5,0.5l0,0c0,0.3,0.2,0.5,0.5,0.5h4
			C59.8,40,60,39.8,60,39.5L60,39.5z"/>
	</g>
</g>
</svg>
