<?xml version="1.0" encoding="utf-8"?>
<!-- Generator: Adobe Illustrator 16.0.0, SVG Export Plug-In . SVG Version: 6.00 Build 0)  -->
<!DOCTYPE svg PUBLIC "-//W3C//DTD SVG 1.1//EN" "http://www.w3.org/Graphics/SVG/1.1/DTD/svg11.dtd">
<svg version="1.1" id="Layer_1" xmlns="http://www.w3.org/2000/svg" xmlns:xlink="http://www.w3.org/1999/xlink" x="0px" y="0px"
	 width="64px" height="64px" viewBox="0 0 64 64" enable-background="new 0 0 64 64" xml:space="preserve">
<g>
	<ellipse fill="#1E4784" cx="32" cy="19.8" rx="11.4" ry="11.2"/>
	<path fill="#00233F" d="M32,8.6c6.3,0,11.4,5,11.4,11.2C43.4,26,38.3,31,32,31"/>
	<ellipse fill="#1E4784" cx="32" cy="41.3" rx="17.2" ry="21.7"/>
	<path fill="#00233F" d="M32,19.6c9.5,0,17.2,9.7,17.2,21.7c0,12-7.7,21.7-17.2,21.7"/>
	<g>
		<g>
			<path fill="#EF256E" d="M31.7,19.8c-11-1.8-21.7,5.2-24.4,16.3c-2.7,11,3.7,22.1,14.3,25.6L31.7,19.8z"/>
			<path fill="#D11550" d="M7.4,36.1c-2.7,11,3.7,22.1,14.3,25.6l10.1-41.8"/>
			<circle fill="#F9E0B4" cx="16" cy="48" r="3.2"/>
			<circle fill="#F9E0B4" cx="12" cy="41.5" r="1.3"/>
			<circle fill="#F9E0B4" cx="12.9" cy="33.8" r="2.5"/>
			<circle fill="#F9E0B4" cx="17.1" cy="37.9" r="0.3"/>
			<circle fill="#F9E0B4" cx="21.5" cy="28.8" r="3.5"/>
			<circle fill="#F9E0B4" cx="22.1" cy="38.7" r="1.4"/>
			<circle fill="#F9E0B4" cx="16.9" cy="41.3" r="0.4"/>
			<circle fill="#F9E0B4" cx="14.6" cy="28.1" r="0.8"/>
			<circle fill="#F9E0B4" cx="27.2" cy="23" r="1.5"/>
			<circle fill="#F9E0B4" cx="21" cy="22.5" r="0.6"/>
			<ellipse fill="#F9E0B4" cx="22.9" cy="43.6" rx="0.3" ry="0"/>
			<circle fill="#F9E0B4" cx="27.3" cy="27.3" r="0.8"/>
			<circle fill="#F9E0B4" cx="19" cy="54.5" r="0.7"/>
			<circle fill="#F9E0B4" cx="22.1" cy="44.1" r="0.8"/>
			<circle fill="#F9E0B4" cx="20" cy="35.1" r="0.8"/>
		</g>
		<g>
			<path fill="#EF256E" d="M32.3,19.8c11-1.8,21.7,5.2,24.4,16.3c2.7,11-3.7,22.1-14.3,25.6L32.3,19.8z"/>
			<path fill="#D11550" d="M56.6,36.1c2.7,11-3.7,22.1-14.3,25.6L32.3,19.8"/>
			<circle fill="#F9E0B4" cx="48" cy="48" r="3.2"/>
			<circle fill="#F9E0B4" cx="52" cy="41.5" r="1.3"/>
			<circle fill="#F9E0B4" cx="51.1" cy="33.8" r="2.5"/>
			<circle fill="#F9E0B4" cx="46.9" cy="37.9" r="0.3"/>
			<circle fill="#F9E0B4" cx="42.5" cy="28.8" r="3.5"/>
			<circle fill="#F9E0B4" cx="41.9" cy="38.7" r="1.4"/>
			<circle fill="#F9E0B4" cx="47.1" cy="41.3" r="0.4"/>
			<circle fill="#F9E0B4" cx="49.4" cy="28.1" r="0.8"/>
			<circle fill="#F9E0B4" cx="36.8" cy="23" r="1.5"/>
			<circle fill="#F9E0B4" cx="43" cy="22.5" r="0.6"/>
			<ellipse fill="#F9E0B4" cx="41.1" cy="43.6" rx="0.3" ry="0"/>
			<circle fill="#F9E0B4" cx="36.7" cy="27.3" r="0.8"/>
			<circle fill="#F9E0B4" cx="45" cy="54.5" r="0.7"/>
			<circle fill="#F9E0B4" cx="41.9" cy="44.1" r="0.8"/>
			<circle fill="#F9E0B4" cx="44" cy="35.1" r="0.8"/>
		</g>
	</g>
	<g>
		<g>
			<path fill="#1E4784" d="M26.9,11.4c0.3,0.6,0.2,1.3-0.4,1.6l0,0c-0.6,0.3-1.3,0.2-1.6-0.4l-3.7-6.2c-0.3-0.6-0.2-1.3,0.4-1.6l0,0
				c0.6-0.3,1.3-0.2,1.6,0.4L26.9,11.4z"/>
			<circle fill="#1E4784" cx="21" cy="3.8" r="2.8"/>
		</g>
		<g>
			<path fill="#00233F" d="M37.1,11.4c-0.3,0.6-0.2,1.3,0.4,1.6l0,0c0.6,0.3,1.3,0.2,1.6-0.4l3.7-6.2c0.3-0.6,0.2-1.3-0.4-1.6l0,0
				c-0.6-0.3-1.3-0.2-1.6,0.4L37.1,11.4z"/>
			<circle fill="#00233F" cx="43" cy="3.8" r="2.8"/>
		</g>
	</g>
</g>
</svg>
