<?xml version="1.0" encoding="utf-8"?>
<!-- Generator: Adobe Illustrator 16.0.0, SVG Export Plug-In . SVG Version: 6.00 Build 0)  -->
<!DOCTYPE svg PUBLIC "-//W3C//DTD SVG 1.1//EN" "http://www.w3.org/Graphics/SVG/1.1/DTD/svg11.dtd">
<svg version="1.1" id="Layer_1" xmlns="http://www.w3.org/2000/svg" xmlns:xlink="http://www.w3.org/1999/xlink" x="0px" y="0px"
	 width="64px" height="64px" viewBox="0 0 64 64" enable-background="new 0 0 64 64" xml:space="preserve">
<g>
	<g>
		<g>
			<g>
				<path fill="#CE3838" d="M37.4,42.2l-3.2-1.4c-2.3,5.4,1.3,12.2,6.7,14.6l0.9-2C38.2,50.9,36.5,46.4,37.4,42.2z"/>
				<g>
					<path fill="#F76F6F" d="M41.9,55.9l0.8-1.9c3.1,1.4,4.1,5.8,2.7,8.9l-1.2-0.5C44.9,59.9,44,57.3,41.9,55.9z"/>
				</g>
			</g>
			<g>
				<path fill="#CE3838" d="M38.6,39.7L35.9,39c-1.2,4.4,2.4,9.2,6.8,10.4l0.4-1.6C40.1,46.3,38.3,43.1,38.6,39.7z"/>
				<g>
					<path fill="#F76F6F" d="M43.5,49.7l0.4-1.5c2.5,0.7,3.8,3.9,3.1,6.5l-0.9-0.3C46.3,52.4,45.3,50.5,43.5,49.7z"/>
				</g>
			</g>
			<g>
				<path fill="#CE3838" d="M37.8,41.1l-0.3-4C44.1,36.7,50,43.3,50.4,50l-2.5,0.2C46.7,45.3,42.6,41.8,37.8,41.1z"/>
				<g>
					<path fill="#F76F6F" d="M50.6,51.3l-2.3,0.2c0.3,3.9,4.6,6.7,8.4,6.4l-0.1-1.4C53.7,56.1,51.3,54,50.6,51.3z"/>
				</g>
			</g>
			<g>
				<path fill="#CE3838" d="M40,39.7l-1.7-3.4c5.6-2.8,13,0.8,15.8,6.3l-2.1,1C49.2,40.1,44.4,38.5,40,39.7z"/>
				<g>
					<path fill="#F76F6F" d="M54.7,43.8l-1.9,1c1.7,3.2,6.4,4.1,9.6,2.4L61.7,46C59.2,46.7,56.4,45.9,54.7,43.8z"/>
				</g>
			</g>
		</g>
		<g>
			<g>
				<path fill="#CE3838" d="M26.6,42.2l3.2-1.4c2.3,5.4-1.3,12.2-6.7,14.6l-0.9-2C25.8,50.9,27.5,46.4,26.6,42.2z"/>
				<g>
					<path fill="#F76F6F" d="M22.1,55.9L21.2,54c-3.1,1.4-4.1,5.8-2.7,8.9l1.2-0.5C19.1,59.9,20,57.3,22.1,55.9z"/>
				</g>
			</g>
			<g>
				<path fill="#CE3838" d="M25.4,39.7l2.6-0.7c1.2,4.4-2.4,9.2-6.8,10.4l-0.4-1.6C23.9,46.3,25.7,43.1,25.4,39.7z"/>
				<g>
					<path fill="#F76F6F" d="M20.5,49.7L20,48.1c-2.5,0.7-3.8,3.9-3.1,6.5l0.9-0.3C17.7,52.4,18.7,50.5,20.5,49.7z"/>
				</g>
			</g>
			<g>
				<g>
					<path fill="#E54E4E" d="M26.2,41.1l0.3-4C19.9,36.7,14,43.3,13.6,50l2.5,0.2C17.3,45.3,21.4,41.8,26.2,41.1z"/>
				</g>
				<g>
					<path fill="#CE3838" d="M13.4,51.3l2.3,0.2c-0.3,3.9-4.6,6.7-8.4,6.4l0.1-1.4C10.3,56.1,12.7,54,13.4,51.3z"/>
				</g>
			</g>
			<g>
				<g>
					<path fill="#E54E4E" d="M24,39.7l1.7-3.4c-5.6-2.8-13,0.8-15.8,6.3l2.1,1C14.8,40.1,19.6,38.5,24,39.7z"/>
				</g>
				<g>
					<path fill="#CE3838" d="M9.3,43.8l1.9,1c-1.7,3.2-6.4,4.1-9.6,2.4L2.3,46C4.8,46.7,7.6,45.9,9.3,43.8z"/>
				</g>
			</g>
		</g>
	</g>
	<g>
		<path fill="#E54E4E" d="M49.7,16.2C49.7,5.8,41.8,1.1,32,1.1S14.3,5.8,14.3,16.2c0,7.9,4.6,17.9,11.1,22.1c0,0.3,0,0.7,0,1
			c0,4.6,2.9,6.6,6.4,6.6c3.5,0,6.4-2.1,6.4-6.6c0-0.2,0-0.5,0-0.8C44.9,34.4,49.7,24.2,49.7,16.2z"/>
		<path fill="#CE3838" d="M25.4,38.3c0,0.3,0,0.7,0,1c0,4.6,2.9,6.6,6.4,6.6c3.5,0,6.4-2.1,6.4-6.6c0-0.2,0-0.5,0-0.8
			c6.7-4.1,11.5-14.3,11.5-22.4C49.7,5.8,41.8,1.1,32,1.1"/>
		<path fill="#F76F6F" d="M44.4,21.8c0-7.3-5.6-10.6-12.4-10.6c-6.9,0-12.4,3.3-12.4,10.6c0,5.6,3.2,12.6,7.8,15.6
			c0,0.2,0,0.5,0,0.7c0,3.2,2,4.7,4.5,4.7c2.5,0,4.5-1.5,4.5-4.7c0-0.2,0-0.4,0-0.5C41.1,34.7,44.4,27.5,44.4,21.8z"/>
		<path fill="#EA6565" d="M30.2,11.3c-6,0.5-10.7,3.9-10.7,10.5c0,5.6,3.2,12.6,7.8,15.6c0,0.2,0,0.5,0,0.7"/>
		<g>
			<circle fill="#FFFFFF" cx="28.3" cy="28.5" r="0.8"/>
			<circle fill="#FFFFFF" cx="35.7" cy="28.5" r="0.8"/>
		</g>
	</g>
	<circle fill="#19DAF4" cx="8" cy="28.9" r="2.1"/>
	<circle fill="#19DAF4" cx="9" cy="13.9" r="2.1"/>
	<circle fill="#6AE6EF" cx="11.1" cy="25.5" r="1.1"/>
	<circle fill="#6AE6EF" cx="14.9" cy="32.5" r="0.6"/>
	<circle fill="#0CB0C6" cx="11.3" cy="35" r="1.3"/>
	<circle fill="#0CB0C6" cx="10.1" cy="22" r="0.6"/>
	<circle fill="#0CB0C6" cx="12.4" cy="30" r="0.2"/>
</g>
</svg>
