<?xml version="1.0" encoding="utf-8"?>
<!-- Generator: Adobe Illustrator 16.0.0, SVG Export Plug-In . SVG Version: 6.00 Build 0)  -->
<!DOCTYPE svg PUBLIC "-//W3C//DTD SVG 1.1//EN" "http://www.w3.org/Graphics/SVG/1.1/DTD/svg11.dtd">
<svg version="1.1" id="Layer_1" xmlns="http://www.w3.org/2000/svg" xmlns:xlink="http://www.w3.org/1999/xlink" x="0px" y="0px"
	 width="64px" height="64px" viewBox="0 0 64 64" enable-background="new 0 0 64 64" xml:space="preserve">
<g>
	<path fill="#F75959" d="M52.2,29.1c0,17.3-9,34.2-20.2,34.2c-11.1,0-20.2-17.9-20.2-35.2c0-17.3,9-27.5,20.2-27.5
		C43.1,0.7,52.2,11.8,52.2,29.1z"/>
	<path fill="#E23939" d="M32,0.7c11.1,0,20.2,11.1,20.2,28.4s-9,34.2-20.2,34.2"/>
	<path fill="#CE2828" d="M45.2,17.8c0,7.3-5.9,15.6-13.2,15.6s-13.2-8.3-13.2-15.6c0-7.3,5.9-13.2,13.2-13.2S45.2,10.5,45.2,17.8z"
		/>
	<path fill="#FFC3A9" d="M45.2,17.8C45.2,25.1,39.3,28,32,28s-13.2-2.9-13.2-10.2c0-7.3,5.9-13.2,13.2-13.2S45.2,10.5,45.2,17.8z"/>
	<path fill="#F2AF97" d="M32.1,4.5c7.3,0,13.2,5.9,13.2,13.2c0,7.3-5.9,10.2-13.2,10.2"/>
	<g>
		<g>
			<g>
				<g>
					<g>
						<path fill="#00233F" d="M26.8,8.9c-0.9,0.1-1.6,0.4-1.5,0.9l3.2-0.2C28.4,9.2,27.7,8.9,26.8,8.9z"/>
					</g>
				</g>
				<g>
					<g>
						<path fill="#00233F" d="M37.2,8.9c0.9,0.1,1.6,0.4,1.5,0.9l-3.2-0.2C35.6,9.2,36.3,8.9,37.2,8.9z"/>
					</g>
				</g>
			</g>
			<path fill="#FCD4C5" d="M26.2,15.9c-2.1,0-3.8,0.5-3.8,1.1c0,0.6,1.7,0.3,3.8,0.3c2.1,0,3.8,0.3,3.8-0.3
				C30,16.4,28.3,15.9,26.2,15.9z"/>
			<path fill="#FCD4C5" d="M37.8,15.9c-2.1,0-3.8,0.5-3.8,1.1c0,0.6,1.7,0.3,3.8,0.3c2.1,0,3.8,0.3,3.8-0.3
				C41.5,16.4,39.9,15.9,37.8,15.9z"/>
			<g>
				<path fill="#E59177" d="M28.6,15.1c0,0.8-0.7,1.5-1.5,1.5c-0.8,0-1.5-0.7-1.5-1.5c0-0.8,0.7-1.5,1.5-1.5
					C27.9,13.6,28.6,14.3,28.6,15.1z"/>
				<path fill="#E59177" d="M38.6,15.1c0,0.8-0.7,1.5-1.5,1.5c-0.8,0-1.5-0.7-1.5-1.5c0-0.8,0.7-1.5,1.5-1.5
					C38,13.6,38.6,14.3,38.6,15.1z"/>
				<path fill="#1E4784" d="M28.6,14.7c0,0.8-0.7,1.5-1.5,1.5c-0.8,0-1.5-0.7-1.5-1.5c0-0.8,0.7-1.5,1.5-1.5
					C27.9,13.2,28.6,13.8,28.6,14.7z"/>
				<path fill="#00233F" d="M27.1,13.2c0.9,0,1.5,0.7,1.5,1.5c0,0.8-0.7,1.5-1.5,1.5"/>
				<path fill="#1E4784" d="M38.6,14.7c0,0.8-0.7,1.5-1.5,1.5c-0.8,0-1.5-0.7-1.5-1.5c0-0.8,0.7-1.5,1.5-1.5
					C38,13.2,38.6,13.8,38.6,14.7z"/>
				<path fill="#00233F" d="M37.1,13.2c0.9,0,1.5,0.7,1.5,1.5c0,0.8-0.7,1.5-1.5,1.5"/>
			</g>
		</g>
	</g>
	<g>
		<path fill="#DB917B" d="M33.3,22.7c0,1.4-0.6,2.7-1.3,2.7s-1.3-1.2-1.3-2.7s0.6-2.6,1.3-2.6S33.3,21.3,33.3,22.7z"/>
		<path fill="#A51339" d="M33.3,22.7c0,1.4-0.6,1.6-1.3,1.6s-1.3-0.2-1.3-1.6s0.6-2.6,1.3-2.6S33.3,21.3,33.3,22.7z"/>
		<path fill="#820C30" d="M30.7,22.7c0-1.4,0.6-2.6,1.3-2.6s1.3,1.2,1.3,2.6"/>
	</g>
	<g>
		<g>
			<g>
				<circle fill="#12D6BF" cx="32" cy="22.2" r="1.8"/>
				<path fill="#02B5B0" d="M32,20.3c1,0,1.8,0.8,1.8,1.8S33,24,32,24"/>
			</g>
			<g>
				<circle fill="#12D6BF" cx="32" cy="22.2" r="1"/>
				<path fill="#02B5B0" d="M31,22.2c0-0.5,0.4-1,1-1c0.5,0,1,0.4,1,1"/>
			</g>
		</g>
		<path fill="#1398D3" d="M34.4,23.4c0.6,0.7,0.2,0.8-0.1,1.1c-0.3,0.3-0.4,0.7-1.1,0c-0.6-0.7-1.6-2.2-1.3-2.5
			C32.3,21.7,33.8,22.7,34.4,23.4z"/>
		<path fill="#036E93" d="M32,22c0.3-0.3,1.8,0.7,2.4,1.4c0.6,0.7,0.2,0.8-0.1,1.1"/>
	</g>
	<g>
		<path fill="#1E4784" d="M37,5.6c0,1.1-2.2,1-5,1s-5,0.1-5-1s2.2-2,5-2S37,4.6,37,5.6z"/>
		<path fill="#00233F" d="M37,5.6c0,1.1-2.2,1-5,1s-5,0.1-5-1"/>
		<path fill="#1E4784" d="M33.6,3.8c-1.5-0.2-2.6-1.3-2.4-2.5c0-0.2,0.1-0.3,0.1-0.5c-0.7,0.3-1.1,0.9-1.2,1.7
			c-0.2,1.2,0.7,2.2,1.8,2.4c0.9,0.1,1.7-0.3,2.1-1C33.9,3.8,33.8,3.8,33.6,3.8z"/>
	</g>
	<path fill="#F75959" d="M38.9,43.9c0,7.8-4.9,16.7-7.4,16.7c-2.5,0-3.5-8.3-3.5-16.1s1.2-12.5,3.7-12.5
		C34.2,31.9,38.9,36.1,38.9,43.9z"/>
	<path fill="#CE2828" d="M32.5,30.3c-1.1,0-5.8-0.9-6.6,1.1c2,2,6.1,2.2,9.9,10.6c3,6.5-2,16.7-4.3,18.6c0.2,0.1-0.3,0,0,0
		c2.5,0,8.2-9,8.2-16.8C39.6,35.9,35,30.3,32.5,30.3z"/>
	
		<ellipse transform="matrix(0.9336 -0.3584 0.3584 0.9336 -14.8111 10.1251)" fill="#FC8D8D" cx="19.9" cy="45" rx="3.3" ry="13.6"/>
	<circle fill="#FC8D8D" cx="15.4" cy="28" r="1.7"/>
	<circle fill="#FC8D8D" cx="15.1" cy="22.3" r="1.1"/>
</g>
</svg>
