<?xml version="1.0" encoding="utf-8"?>
<!-- Generator: Adobe Illustrator 16.0.0, SVG Export Plug-In . SVG Version: 6.00 Build 0)  -->
<!DOCTYPE svg PUBLIC "-//W3C//DTD SVG 1.1//EN" "http://www.w3.org/Graphics/SVG/1.1/DTD/svg11.dtd">
<svg version="1.1" id="Layer_1" xmlns="http://www.w3.org/2000/svg" xmlns:xlink="http://www.w3.org/1999/xlink" x="0px" y="0px"
	 width="64px" height="64px" viewBox="0 0 64 64" enable-background="new 0 0 64 64" xml:space="preserve">
<g>
	<g>
		<g>
			
				<ellipse transform="matrix(0.9618 -0.2737 0.2737 0.9618 -14.0045 5.1903)" fill="#EA7103" cx="11.6" cy="52.8" rx="8.8" ry="8.5"/>
		</g>
		<g>
			<g>
				<g>
					<path fill="#F7910B" d="M62.3,37.2c0,13-11.9,23.5-30.3,23.5c-18.4,0-30.3-10.5-30.3-23.5S13.6,4.7,32,4.7
						C50.4,4.7,62.3,24.2,62.3,37.2z"/>
				</g>
				<g>
					<path fill="#F7910B" d="M62.3,37.2c0,13-11.9,19.5-30.3,19.5c-18.4,0-30.3-6.5-30.3-19.5S13.6,2.7,32,2.7
						C50.4,2.7,62.3,24.2,62.3,37.2z"/>
				</g>
				<g>
					<path fill="#F9A908" d="M32,2.7c18.4,0,30.3,21.5,30.3,34.5S50.4,56.7,32,56.7"/>
				</g>
				<g>
					<path fill="#F9A908" d="M62.3,37.2c0,13-11.9,19.5-30.3,19.5c-18.4,0-30.3-6.5-30.3-19.5S13.6,4.7,32,4.7
						C50.4,4.7,62.3,24.2,62.3,37.2z"/>
				</g>
				<g>
					<path fill="#F9C55D" d="M1.7,37.2c0-13,11.9-32.5,30.3-32.5"/>
				</g>
				<g>
					<path fill="#F7910B" d="M32,4.7c18.4,0,30.3,19.5,30.3,32.5S50.4,60.7,32,60.7"/>
				</g>
				<g>
					<path fill="#EA7103" d="M32,4.7c18.4,0,30.3,19.5,30.3,32.5"/>
				</g>
				<g>
					<g>
						<circle fill="#EA7103" cx="21.6" cy="25.4" r="3.2"/>
					</g>
					<g>
						<circle fill="#EA7103" cx="42.4" cy="25.4" r="3.2"/>
					</g>
					<g>
						<circle fill="#1E4784" cx="21.6" cy="24.5" r="3.2"/>
					</g>
					<g>
						<path fill="#00233F" d="M21.6,21.3c1.8,0,3.2,1.4,3.2,3.2s-1.4,3.2-3.2,3.2"/>
					</g>
					<g>
						<circle fill="#1E4784" cx="42.4" cy="24.5" r="3.2"/>
					</g>
					<g>
						<path fill="#00233F" d="M42.4,21.3c1.8,0,3.2,1.4,3.2,3.2s-1.4,3.2-3.2,3.2"/>
					</g>
				</g>
				<g>
					<g>
						<g>
							<g>
								<g>
									<g>
										<path fill="#19BCA4" d="M25.2,18.2c-0.3,0.8-1.5-0.2-3.2-0.9c-1.7-0.7-3.2-0.9-2.8-1.7c0.3-0.8,2-0.9,3.6-0.2
											C24.5,16.2,25.5,17.5,25.2,18.2z"/>
									</g>
								</g>
							</g>
						</g>
						<g>
							<g>
								<g>
									<g>
										<path fill="#19BCA4" d="M38.7,14.6c0.4,0.8,1.5-0.3,3.1-1.2c1.6-0.9,3.1-1.2,2.7-1.9c-0.4-0.8-2-0.7-3.6,0.2
											C39.2,12.5,38.3,13.8,38.7,14.6z"/>
									</g>
								</g>
							</g>
						</g>
					</g>
					<g>
						<g>
							<g>
								<g>
									<g>
										<path fill="#109DA0" d="M25.2,18.2c-0.3,0.8-1.5-0.2-3.2-0.9c-1.7-0.7-3.2-0.9-2.8-1.7"/>
									</g>
								</g>
							</g>
						</g>
						<g>
							<g>
								<g>
									<g>
										<path fill="#109DA0" d="M38.7,14.6c0.4,0.8,1.5-0.3,3.1-1.2c1.6-0.9,3.1-1.2,2.7-1.9"/>
									</g>
								</g>
							</g>
						</g>
					</g>
				</g>
				<g>
					<g>
						<path fill="#F9C55D" d="M27.8,30.5c0,1.2-3.5,0.7-7.8,0.7c-4.3,0-7.8,0.6-7.8-0.7c0-1.2,3.5-2.2,7.8-2.2
							C24.3,28.3,27.8,29.3,27.8,30.5z"/>
					</g>
					<g>
						<path fill="#F9A908" d="M51.8,30.5c0,1.2-3.5,0.7-7.8,0.7s-7.8,0.6-7.8-0.7c0-1.2,3.5-2.2,7.8-2.2S51.8,29.3,51.8,30.5z"/>
					</g>
				</g>
				<g>
					<circle fill="#F7910B" cx="10.3" cy="34.2" r="0.6"/>
				</g>
				<g>
					<circle fill="#F7910B" cx="5.8" cy="36.2" r="1.1"/>
				</g>
				<g>
					<circle fill="#F7910B" cx="8.8" cy="32.2" r="0.2"/>
				</g>
				<g>
					<circle fill="#F7910B" cx="13.4" cy="34" r="0.2"/>
				</g>
				<g>
					<circle fill="#F9A908" cx="52.6" cy="34.5" r="0.8"/>
				</g>
				<g>
					<circle fill="#F9A908" cx="55.1" cy="35.9" r="0.2"/>
				</g>
				<g>
					<circle fill="#F9A908" cx="49.8" cy="27.1" r="0.3"/>
				</g>
				<g>
					<circle fill="#F9A908" cx="49.3" cy="38.7" r="1.3"/>
				</g>
				<g>
					<circle fill="#F9A908" cx="56.5" cy="38.8" r="0.6"/>
				</g>
				<g>
					<circle fill="#F7910B" cx="9.3" cy="38.2" r="0.5"/>
				</g>
				<g>
					<circle fill="#F7910B" cx="10.1" cy="29.8" r="0.4"/>
				</g>
				<g>
					<circle fill="#F9A908" cx="4.8" cy="16" r="1.1"/>
				</g>
				<g>
					<circle fill="#F9A908" cx="8" cy="12.5" r="0.6"/>
				</g>
				<g>
					<circle fill="#F9A908" cx="59.2" cy="18.4" r="0.2"/>
				</g>
				<g>
					<circle fill="#F9A908" cx="58.4" cy="15.5" r="0.8"/>
				</g>
				<g>
					<circle fill="#F9A908" cx="61" cy="16" r="0.5"/>
				</g>
				<g>
					<circle fill="#F9A908" cx="6" cy="19" r="0.6"/>
				</g>
			</g>
		</g>
	</g>
	<g>
		<g>
			<g>
				<g>
					<path fill="#CCF2E3" d="M24.7,42.3c0.3,7.4-1.5,5.6-3.6,5.7c-2.1,0.1-3.8,2.1-4.1-5.3c-0.3-7.4,1.3-10.4,3.4-10.5
						C22.6,32.1,24.4,34.9,24.7,42.3z"/>
				</g>
				<g>
					<path fill="#AAD6C3" d="M20.5,32.2c2.1-0.1,4,2.8,4.3,10.2c0.3,7.4-1.5,5.6-3.6,5.7"/>
				</g>
				<g>
					<path fill="#CCF2E3" d="M25,47.2c0.3,6.8-3,12.7-9.9,13c-6.9,0.3-12.7-5-13-11.8c-0.3-6.8,5.2-9.6,12.1-9.9
						C21,38.2,24.7,40.4,25,47.2z"/>
				</g>
				<g>
					<path fill="#AAD6C3" d="M25,47.2c0.3,6.8-3,12.7-9.9,13c-6.9,0.3-9.6-5.7-9.6-12.5c0-5.3-2.5-8.1,8.3-9.2
						C20.6,37.9,24.7,40.2,25,47.2z"/>
				</g>
				<g>
					<path fill="#CCF2E3" d="M29.3,46c1.7,1.9-0.8,6.7-5.4,10.7c-4.6,4-9.7,4-11.4,2.1c-1.6-1.9,0.8-4.9,5.4-9
						C22.6,45.8,27.7,44.1,29.3,46z"/>
				</g>
				<g>
					<path fill="#AAD6C3" d="M29.3,46c1.7,1.9-0.8,6.7-5.4,10.7c-4.6,4-9.7,4-11.4,2.1"/>
				</g>
			</g>
			<g>
				<path fill="#E7F7EF" d="M18.4,34.8c-0.4,1-0.5,1.8-0.2,2c0.3,0.1,0.9-0.6,1.3-1.5c0.4-1,0.5-1.8,0.2-2
					C19.4,33.1,18.8,33.8,18.4,34.8z"/>
			</g>
			<g>
				<path fill="#E7F7EF" d="M4.4,46.6c0.1,2.2-0.2,4.1-0.7,4.1c-0.5,0-1-1.8-1.2-4c-0.1-2.2,0.2-2.8,0.7-2.8
					C3.9,43.8,4.3,44.3,4.4,46.6z"/>
			</g>
			<g>
				<path fill="#E7F7EF" d="M22.7,47.4c1.6-1,3.1-1.5,3.4-1.1c0.3,0.4-0.8,1.6-2.4,2.6c-1.6,1-2.2,0.9-2.5,0.5
					C21,49,21.1,48.4,22.7,47.4z"/>
			</g>
		</g>
		<g>
			<path fill="#CCF2E3" d="M13.4,43c0.3,2.7-0.1,5-1,5.1c-0.9,0.1-1.8-2-2.1-4.7c-0.3-2.7,0.3-3.6,1.1-3.7
				C12.3,39.6,13.1,40.3,13.4,43z"/>
		</g>
		<g>
			<path fill="#E7F7EF" d="M10.7,43.1c0,1,0.3,1.9,0.7,1.9c0.3,0,0.5-0.9,0.5-1.9c0-1-0.3-1.9-0.7-1.9
				C10.9,41.2,10.7,42.1,10.7,43.1z"/>
		</g>
	</g>
	<g>
		<g>
			<path fill="#F7910B" d="M39.4,35.3c0,2.6-3.3,4.7-7.4,4.7c-4.1,0-7.4-2.1-7.4-4.7"/>
		</g>
		<g>
			<path fill="#02243E" d="M39,36H25c-0.6,0-1-0.4-1-1s0.4-1,1-1h14c0.6,0,1,0.4,1,1S39.6,36,39,36z"/>
		</g>
	</g>
</g>
</svg>
