<?xml version="1.0" encoding="utf-8"?>
<!-- Generator: Adobe Illustrator 16.0.0, SVG Export Plug-In . SVG Version: 6.00 Build 0)  -->
<!DOCTYPE svg PUBLIC "-//W3C//DTD SVG 1.1//EN" "http://www.w3.org/Graphics/SVG/1.1/DTD/svg11.dtd">
<svg version="1.1" xmlns="http://www.w3.org/2000/svg" xmlns:xlink="http://www.w3.org/1999/xlink" x="0px" y="0px" width="65px"
	 height="65px" viewBox="0 0 65 65" enable-background="new 0 0 65 65" xml:space="preserve">
<g id="Layer_1">
	<g>
		<g>
			<g>
				<rect x="22.604" y="9.189" fill="#772A0C" width="9.899" height="13.197"/>
				<path fill="#F9A51E" d="M32.503,64.061c0,0.221-0.179,0.398-0.398,0.398H12.312c-0.221,0-0.397-0.178-0.397-0.398v-4.018
					c0-0.219,0.177-0.396,0.397-0.396h19.793c0.22,0,0.398,0.178,0.398,0.396V64.061z"/>
				<path fill="#E08707" d="M32.503,62.137c0,0.219-0.179,0.396-0.398,0.396H12.312c-0.221,0-0.397-0.178-0.397-0.396v-4.018
					c0-0.221,0.177-0.398,0.397-0.398h19.793c0.22,0,0.398,0.178,0.398,0.398V62.137z"/>
				<path fill="#FF7F00" d="M32.496,56.896V33.248v-6.6V16.201h-3.712c-2.429,0-4.398-1.971-4.398-4.4V2.863
					c0-0.432,0.08-0.842,0.196-1.236h-3.909c-2.432,0-4.401,1.971-4.401,4.4V15.1l-3.574,7.15c-2.43,0-4.398,1.971-4.398,4.398
					v30.248c0,2.43,1.969,4.4,4.398,4.4h17.601C32.727,61.297,32.496,59.326,32.496,56.896z"/>
				<path fill="#FF6700" d="M32.496,56.896V33.248v-6.6v-7.699l-3.712-0.09c-2.429,0-4.398-4.629-4.398-7.059V2.863
					c0-0.432,0.08-0.842,0.196-1.236h-3.909c-2.432,0-4.401,1.971-4.401,4.4v17.139l-3.574,5.867c-2.43,0-4.398-4.812-4.398-2.385
					v30.248c0,2.43,1.969,4.4,4.398,4.4h17.601C32.727,61.297,32.496,59.326,32.496,56.896z"/>
				<rect x="8.299" y="35.174" fill="#B73E0F" width="24.197" height="6.783"/>
				<rect x="8.299" y="46.539" fill="#B73E0F" width="24.197" height="6.783"/>
				<rect x="8.299" y="33.615" fill="#F9A51E" width="24.197" height="6.783"/>
				<polyline fill="#FFBE5F" points="32.496,33.615 8.299,33.615 8.299,40.398 				"/>
				<rect x="8.299" y="44.98" fill="#F9A51E" width="24.197" height="6.783"/>
				<polyline fill="#FFBE5F" points="32.496,44.98 8.299,44.98 8.299,51.764 				"/>
				<path fill="#772A0C" d="M8.467,25.508c0.68,0.555,1.429,0.867,2.212,0.867c3.09,0,5.593-4.74,5.593-10.588
					c0-0.219-0.01-1.66-0.018-1.877l-3.557,2.635C8.665,19.133,8.974,23.635,8.467,25.508z"/>
				<path fill="#F9A51E" d="M24.798,12.9c0,0.254-0.205,0.459-0.459,0.459l0,0c-0.253,0-0.457-0.205-0.457-0.459V1.443
					c0-0.252,0.204-0.459,0.457-0.459l0,0c0.254,0,0.459,0.207,0.459,0.459V12.9z"/>
				<path fill="#F9A51E" d="M16.823,29.467c0,0.57-0.463,1.031-1.03,1.031l0,0c-0.569,0-1.031-0.461-1.031-1.031l0,0
					c0-0.568,0.462-1.029,1.031-1.029l0,0C16.36,28.438,16.823,28.898,16.823,29.467L16.823,29.467z"/>
				<path fill="#B73E0F" d="M22.046,12.625c0,0.607-0.491,1.102-1.1,1.102H19.71c-0.609,0-1.099-0.494-1.099-1.102V3.139
					c0-0.607,0.489-1.1,1.099-1.1h1.236c0.608,0,1.1,0.492,1.1,1.1V12.625z"/>
				<path fill="#F9CE8F" d="M22.046,11.045c0,0.607-0.491,1.1-1.1,1.1H19.71c-0.609,0-1.099-0.492-1.099-1.1V1.559
					c0-0.607,0.489-1.1,1.099-1.1h1.236c0.608,0,1.1,0.492,1.1,1.1V11.045z"/>
				<path fill="#FFE6C5" d="M18.611,11.045V1.559c0-0.607,0.489-1.1,1.099-1.1h1.236c0.608,0,1.1,0.492,1.1,1.1"/>
			</g>
			<g>
				<rect x="32.498" y="9.189" fill="#772A0C" width="9.897" height="13.197"/>
				<path fill="#F9A51E" d="M32.498,64.061c0,0.221,0.177,0.398,0.396,0.398h19.793c0.22,0,0.398-0.178,0.398-0.398v-4.018
					c0-0.219-0.179-0.396-0.398-0.396H32.895c-0.22,0-0.396,0.178-0.396,0.396V64.061z"/>
				<path fill="#E08707" d="M32.498,62.137c0,0.219,0.177,0.396,0.396,0.396h19.793c0.22,0,0.398-0.178,0.398-0.396v-4.018
					c0-0.221-0.179-0.398-0.398-0.398H32.895c-0.22,0-0.396,0.178-0.396,0.398V62.137z"/>
				<path fill="#FF7F00" d="M32.503,56.896V33.248v-6.6V16.201h3.712c2.432,0,4.401-1.971,4.401-4.4V2.863
					c0-0.432-0.083-0.842-0.199-1.236h3.911c2.429,0,4.399,1.971,4.399,4.4V15.1l3.574,7.15c2.429,0,4.399,1.971,4.399,4.398v30.248
					c0,2.43-1.971,4.4-4.399,4.4H34.704C32.272,61.297,32.503,59.326,32.503,56.896z"/>
				<path fill="#FF6700" d="M32.503,56.896V33.248v-6.6v-7.699l3.712-0.09c2.432,0,4.401-4.629,4.401-7.059V2.863
					c0-0.432-0.083-0.842-0.199-1.236h3.911c2.429,0,4.399,1.971,4.399,4.4v17.139l3.574,5.867c2.429,0,4.399-4.812,4.399-2.385
					v30.248c0,2.43-1.971,4.4-4.399,4.4H34.704C32.272,61.297,32.503,59.326,32.503,56.896z"/>
				<rect x="32.503" y="35.174" fill="#B73E0F" width="24.198" height="6.783"/>
				<rect x="32.503" y="46.539" fill="#B73E0F" width="24.198" height="6.783"/>
				<rect x="32.503" y="33.615" fill="#F9A51E" width="24.198" height="6.783"/>
				<polyline fill="#FFBE5F" points="32.503,33.615 56.701,33.615 56.701,40.398 				"/>
				<rect x="32.503" y="44.98" fill="#F9A51E" width="24.198" height="6.783"/>
				<polyline fill="#FFBE5F" points="32.503,44.98 56.701,44.98 56.701,51.764 				"/>
				<path fill="#772A0C" d="M56.533,25.508c-0.681,0.555-1.429,0.867-2.213,0.867c-3.09,0-5.593-4.74-5.593-10.588
					c0-0.219,0.012-1.66,0.018-1.877l3.557,2.635C56.335,19.133,56.027,23.635,56.533,25.508z"/>
				<path fill="#F9A51E" d="M40.201,12.9c0,0.254,0.206,0.459,0.46,0.459l0,0c0.253,0,0.459-0.205,0.459-0.459V1.443
					c0-0.252-0.206-0.459-0.459-0.459l0,0c-0.254,0-0.46,0.207-0.46,0.459V12.9z"/>
				<path fill="#F9A51E" d="M48.179,29.467c0,0.57,0.46,1.031,1.03,1.031l0,0c0.567,0,1.031-0.461,1.031-1.031l0,0
					c0-0.568-0.464-1.029-1.031-1.029l0,0C48.639,28.438,48.179,28.898,48.179,29.467L48.179,29.467z"/>
				<path fill="#B73E0F" d="M42.953,12.625c0,0.607,0.491,1.102,1.099,1.102h1.238c0.608,0,1.1-0.494,1.1-1.102V3.139
					c0-0.607-0.491-1.1-1.1-1.1h-1.238c-0.607,0-1.099,0.492-1.099,1.1V12.625z"/>
				<path fill="#F9CE8F" d="M42.953,11.045c0,0.607,0.491,1.1,1.099,1.1h1.238c0.608,0,1.1-0.492,1.1-1.1V1.559
					c0-0.607-0.491-1.1-1.1-1.1h-1.238c-0.607,0-1.099,0.492-1.099,1.1V11.045z"/>
				<path fill="#FFE6C5" d="M46.39,11.045V1.559c0-0.607-0.491-1.1-1.1-1.1h-1.238c-0.607,0-1.099,0.492-1.099,1.1"/>
			</g>
		</g>
		<path fill="#F9A51E" d="M33.374,63.666c0,0.482-0.39,0.875-0.874,0.875l0,0c-0.483,0-0.875-0.393-0.875-0.875v-47.5
			c0-0.484,0.392-0.875,0.875-0.875l0,0c0.484,0,0.874,0.391,0.874,0.875V63.666z"/>
		<g>
			<path fill="#4B595B" d="M40.235,30.604c0,0.553-0.449,1-1,1H24.984c-0.552,0-1-0.447-1-1v-0.875c0-0.553,0.448-1,1-1h14.251
				c0.551,0,1,0.447,1,1V30.604z"/>
			<g>
				<path fill="#17AACC" d="M30.359,31.266c0,0.635-0.517,1.15-1.153,1.15h-2.444c-0.638,0-1.153-0.516-1.153-1.15v-2.447
					c0-0.637,0.516-1.152,1.153-1.152h2.444c0.637,0,1.153,0.516,1.153,1.152V31.266z"/>
				<path fill="#EADBAD" d="M29.206,32.916h-2.444c-0.911,0-1.653-0.74-1.653-1.65v-2.447c0-0.912,0.742-1.652,1.653-1.652h2.444
					c0.911,0,1.653,0.74,1.653,1.652v2.447C30.859,32.176,30.117,32.916,29.206,32.916z M26.762,28.166
					c-0.36,0-0.653,0.293-0.653,0.652v2.447c0,0.359,0.293,0.65,0.653,0.65h2.444c0.362,0,0.653-0.291,0.653-0.65v-2.447
					c0-0.359-0.291-0.652-0.653-0.652H26.762z"/>
			</g>
		</g>
		<g>
			<path fill="#4B595B" d="M40.235,43.604c0,0.553-0.449,1-1,1H24.984c-0.552,0-1-0.447-1-1v-0.875c0-0.553,0.448-1,1-1h14.251
				c0.551,0,1,0.447,1,1V43.604z"/>
			<g>
				<path fill="#17AACC" d="M30.359,44.266c0,0.635-0.517,1.15-1.153,1.15h-2.444c-0.638,0-1.153-0.516-1.153-1.15v-2.447
					c0-0.637,0.516-1.152,1.153-1.152h2.444c0.637,0,1.153,0.516,1.153,1.152V44.266z"/>
				<path fill="#EADBAD" d="M29.206,45.916h-2.444c-0.911,0-1.653-0.74-1.653-1.65v-2.447c0-0.912,0.742-1.652,1.653-1.652h2.444
					c0.911,0,1.653,0.74,1.653,1.652v2.447C30.859,45.176,30.117,45.916,29.206,45.916z M26.762,41.166
					c-0.36,0-0.653,0.293-0.653,0.652v2.447c0,0.359,0.293,0.65,0.653,0.65h2.444c0.362,0,0.653-0.291,0.653-0.65v-2.447
					c0-0.359-0.291-0.652-0.653-0.652H26.762z"/>
			</g>
		</g>
		<g>
			<path fill="#4B595B" d="M40.235,54.938c0,0.553-0.449,1-1,1H24.984c-0.552,0-1-0.447-1-1v-0.875c0-0.553,0.448-1,1-1h14.251
				c0.551,0,1,0.447,1,1V54.938z"/>
			<g>
				<path fill="#17AACC" d="M30.359,55.6c0,0.635-0.517,1.15-1.153,1.15h-2.444c-0.638,0-1.153-0.516-1.153-1.15v-2.447
					c0-0.637,0.516-1.152,1.153-1.152h2.444c0.637,0,1.153,0.516,1.153,1.152V55.6z"/>
				<path fill="#EADBAD" d="M29.206,57.25h-2.444c-0.911,0-1.653-0.74-1.653-1.65v-2.447c0-0.912,0.742-1.652,1.653-1.652h2.444
					c0.911,0,1.653,0.74,1.653,1.652V55.6C30.859,56.51,30.117,57.25,29.206,57.25z M26.762,52.5c-0.36,0-0.653,0.293-0.653,0.652
					V55.6c0,0.359,0.293,0.65,0.653,0.65h2.444c0.362,0,0.653-0.291,0.653-0.65v-2.447c0-0.359-0.291-0.652-0.653-0.652H26.762z"/>
			</g>
		</g>
	</g>
</g>
<g id="nyt_x5F_exporter_x5F_info" display="none">
</g>
</svg>
