<?xml version="1.0" encoding="utf-8"?>
<!-- Generator: Adobe Illustrator 16.0.0, SVG Export Plug-In . SVG Version: 6.00 Build 0)  -->
<!DOCTYPE svg PUBLIC "-//W3C//DTD SVG 1.1//EN" "http://www.w3.org/Graphics/SVG/1.1/DTD/svg11.dtd">
<svg version="1.1" id="Layer_1" xmlns="http://www.w3.org/2000/svg" xmlns:xlink="http://www.w3.org/1999/xlink" x="0px" y="0px"
	 width="64px" height="64px" viewBox="0 0 64 64" enable-background="new 0 0 64 64" xml:space="preserve">
<g>
	<g>
		<polygon fill="#5E5E5E" points="19.4,62.5 1.5,44.6 1.5,19.4 19.4,1.5 44.6,1.5 62.5,19.4 62.5,44.6 44.6,62.5 		"/>
		<polygon fill="#FFFFFF" points="20,60.9 3.1,44 3.1,20 20,3.1 44,3.1 60.9,20 60.9,44 44,60.9 		"/>
		<polygon fill="#E4EAEA" points="43,3.1 3.1,43 3.1,44 20,60.9 44,60.9 60.9,44 60.9,20 44,3.1 		"/>
		<polyline fill="#DAE0E0" points="20,60.9 44,60.9 60.9,44 60.9,20 		"/>
	</g>
	<g>
		<g>
			<path fill="#5E5E5E" d="M37,8.3C37,8.7,36.7,9,36.3,9h-8.7C27.3,9,27,8.7,27,8.3l0,0c0-0.4,0.3-0.7,0.7-0.7h8.7
				C36.7,7.7,37,8,37,8.3L37,8.3z"/>
			<path fill="#5E5E5E" d="M37,10.7c0,0.4-0.3,0.7-0.7,0.7h-8.7c-0.4,0-0.7-0.3-0.7-0.7l0,0c0-0.4,0.3-0.7,0.7-0.7h8.7
				C36.7,10,37,10.3,37,10.7L37,10.7z"/>
			<path fill="#5E5E5E" d="M37,13c0,0.4-0.3,0.7-0.7,0.7h-8.7c-0.4,0-0.7-0.3-0.7-0.7l0,0c0-0.4,0.3-0.7,0.7-0.7h8.7
				C36.7,12.3,37,12.6,37,13L37,13z"/>
		</g>
		<g>
			<path fill="#5E5E5E" d="M37,51c0,0.4-0.3,0.7-0.7,0.7h-8.7c-0.4,0-0.7-0.3-0.7-0.7l0,0c0-0.4,0.3-0.7,0.7-0.7h8.7
				C36.7,50.3,37,50.6,37,51L37,51z"/>
			<path fill="#5E5E5E" d="M37,53.3c0,0.4-0.3,0.7-0.7,0.7h-8.7c-0.4,0-0.7-0.3-0.7-0.7l0,0c0-0.4,0.3-0.7,0.7-0.7h8.7
				C36.7,52.6,37,52.9,37,53.3L37,53.3z"/>
			<path fill="#5E5E5E" d="M37,55.7c0,0.4-0.3,0.7-0.7,0.7h-8.7c-0.4,0-0.7-0.3-0.7-0.7l0,0c0-0.4,0.3-0.7,0.7-0.7h8.7
				C36.7,55,37,55.3,37,55.7L37,55.7z"/>
		</g>
	</g>
	<g>
		<g>
			<path fill="#5E5E5E" d="M18.8,11.7c0.3,0.3,0.3,0.7,0,1l-6.1,6.1c-0.3,0.3-0.7,0.3-1,0l0,0c-0.3-0.3-0.3-0.7,0-1l6.1-6.1
				C18.1,11.5,18.6,11.5,18.8,11.7L18.8,11.7z"/>
			<path fill="#5E5E5E" d="M20.5,13.4c0.3,0.3,0.3,0.7,0,1l-6.1,6.1c-0.3,0.3-0.7,0.3-1,0l0,0c-0.3-0.3-0.3-0.7,0-1l6.1-6.1
				C19.8,13.1,20.2,13.1,20.5,13.4L20.5,13.4z"/>
			<path fill="#5E5E5E" d="M22.1,15c0.3,0.3,0.3,0.7,0,1L16,22.1c-0.3,0.3-0.7,0.3-1,0l0,0c-0.3-0.3-0.3-0.7,0-1l6.1-6.1
				C21.4,14.8,21.9,14.8,22.1,15L22.1,15z"/>
		</g>
		<g>
			<path fill="#5E5E5E" d="M49,41.9c0.3,0.3,0.3,0.7,0,1L42.8,49c-0.3,0.3-0.7,0.3-1,0l0,0c-0.3-0.3-0.3-0.7,0-1l6.1-6.1
				C48.3,41.6,48.7,41.6,49,41.9L49,41.9z"/>
			<path fill="#5E5E5E" d="M50.6,43.5c0.3,0.3,0.3,0.7,0,1l-6.1,6.1c-0.3,0.3-0.7,0.3-1,0l0,0c-0.3-0.3-0.3-0.7,0-1l6.1-6.1
				C49.9,43.3,50.4,43.3,50.6,43.5L50.6,43.5z"/>
			<path fill="#5E5E5E" d="M52.3,45.2c0.3,0.3,0.3,0.7,0,1l-6.1,6.1c-0.3,0.3-0.7,0.3-1,0l0,0c-0.3-0.3-0.3-0.7,0-1l6.1-6.1
				C51.6,44.9,52,44.9,52.3,45.2L52.3,45.2z"/>
		</g>
	</g>
	<g>
		<g>
			<path fill="#5E5E5E" d="M8.3,27C8.7,27,9,27.3,9,27.7l0,8.7C9,36.7,8.7,37,8.3,37l0,0c-0.4,0-0.7-0.3-0.7-0.7v-8.7
				C7.7,27.3,8,27,8.3,27L8.3,27z"/>
			<path fill="#5E5E5E" d="M10.7,27c0.4,0,0.7,0.3,0.7,0.7v8.7c0,0.4-0.3,0.7-0.7,0.7l0,0c-0.4,0-0.7-0.3-0.7-0.7v-8.7
				C10,27.3,10.3,27,10.7,27L10.7,27z"/>
			<path fill="#5E5E5E" d="M13,27c0.4,0,0.7,0.3,0.7,0.7v8.7c0,0.4-0.3,0.7-0.7,0.7l0,0c-0.4,0-0.7-0.3-0.7-0.7l0-8.7
				C12.3,27.3,12.6,27,13,27L13,27z"/>
		</g>
		<g>
			<path fill="#5E5E5E" d="M51,27c0.4,0,0.7,0.3,0.7,0.7v8.7c0,0.4-0.3,0.7-0.7,0.7l0,0c-0.4,0-0.7-0.3-0.7-0.7v-8.7
				C50.3,27.3,50.6,27,51,27L51,27z"/>
			<path fill="#5E5E5E" d="M53.3,27c0.4,0,0.7,0.3,0.7,0.7l0,8.7c0,0.4-0.3,0.7-0.7,0.7l0,0c-0.4,0-0.7-0.3-0.7-0.7v-8.7
				C52.6,27.3,52.9,27,53.3,27L53.3,27z"/>
			<path fill="#5E5E5E" d="M55.7,27c0.4,0,0.7,0.3,0.7,0.7v8.7c0,0.4-0.3,0.7-0.7,0.7l0,0c-0.4,0-0.7-0.3-0.7-0.7l0-8.7
				C55,27.3,55.3,27,55.7,27L55.7,27z"/>
		</g>
	</g>
	<g>
		<g>
			<path fill="#5E5E5E" d="M11.7,45.2c0.3-0.3,0.7-0.3,1,0l6.1,6.1c0.3,0.3,0.3,0.7,0,1l0,0c-0.3,0.3-0.7,0.3-1,0l-6.1-6.1
				C11.5,45.9,11.5,45.4,11.7,45.2L11.7,45.2z"/>
			<path fill="#5E5E5E" d="M13.4,43.5c0.3-0.3,0.7-0.3,1,0l6.1,6.1c0.3,0.3,0.3,0.7,0,1l0,0c-0.3,0.3-0.7,0.3-1,0l-6.1-6.1
				C13.1,44.2,13.1,43.8,13.4,43.5L13.4,43.5z"/>
			<path fill="#5E5E5E" d="M15,41.9c0.3-0.3,0.7-0.3,1,0l6.1,6.1c0.3,0.3,0.3,0.7,0,1l0,0c-0.3,0.3-0.7,0.3-1,0L15,42.8
				C14.8,42.6,14.8,42.1,15,41.9L15,41.9z"/>
		</g>
		<g>
			<path fill="#5E5E5E" d="M41.9,15c0.3-0.3,0.7-0.3,1,0l6.1,6.1c0.3,0.3,0.3,0.7,0,1l0,0c-0.3,0.3-0.7,0.3-1,0L41.9,16
				C41.6,15.7,41.6,15.3,41.9,15L41.9,15z"/>
			<path fill="#5E5E5E" d="M43.5,13.4c0.3-0.3,0.7-0.3,1,0l6.1,6.1c0.3,0.3,0.3,0.7,0,1l0,0c-0.3,0.3-0.7,0.3-1,0l-6.1-6.1
				C43.3,14.1,43.3,13.6,43.5,13.4L43.5,13.4z"/>
			<path fill="#5E5E5E" d="M45.2,11.7c0.3-0.3,0.7-0.3,1,0l6.1,6.1c0.3,0.3,0.3,0.7,0,1l0,0c-0.3,0.3-0.7,0.3-1,0l-6.1-6.1
				C44.9,12.4,44.9,12,45.2,11.7L45.2,11.7z"/>
		</g>
	</g>
	<circle fill="#5E5E5E" cx="32" cy="32" r="12.9"/>
	<path fill="#484949" d="M41.1,22.9c5,5,5,13.2,0,18.2c-5,5-13.2,5-18.2,0"/>
	<g>
		<path fill="#484949" d="M23.2,30.8c-0.3,0-0.6,0-0.8,0.1c-0.1,0-0.1,0.1-0.1,0.1v3c0,0.1,0.1,0.1,0.1,0.1c0.2,0,0.5,0,0.7,0
			c0.6,0,1.1-0.2,1.4-0.5c0.3-0.3,0.5-0.7,0.5-1.3c0-0.5-0.2-0.9-0.5-1.2C24.3,31,23.8,30.8,23.2,30.8z M23.2,33.6
			c-0.1,0-0.2,0-0.3,0v-2.1c0.1,0,0.2,0,0.3,0c0.4,0,0.6,0.1,0.8,0.3c0.2,0.2,0.3,0.4,0.3,0.7C24.3,33.2,24,33.6,23.2,33.6z"/>
		<path fill="#484949" d="M28.1,30.9h-0.4c-0.1,0-0.1,0.1-0.1,0.1v1.1h-1.2V31c0-0.1-0.1-0.1-0.1-0.1h-0.4c-0.1,0-0.1,0.1-0.1,0.1v3
			c0,0.1,0.1,0.1,0.1,0.1h0.4c0.1,0,0.1-0.1,0.1-0.1v-1.3h1.2V34c0,0.1,0.1,0.1,0.1,0.1h0.4c0.1,0,0.1-0.1,0.1-0.1v-3
			C28.2,30.9,28.2,30.9,28.1,30.9z"/>
		<path fill="#484949" d="M30.6,31c0-0.1-0.1-0.1-0.1-0.1H30c-0.1,0-0.1,0-0.1,0.1l-1,3c0,0,0,0.1,0,0.1c0,0,0.1,0.1,0.1,0.1h0.4
			c0.1,0,0.1,0,0.1-0.1l0.3-0.9h0.9l0.3,0.9c0,0.1,0.1,0.1,0.1,0.1h0.4c0,0,0.1,0,0.1-0.1c0,0,0-0.1,0-0.1L30.6,31z M30.5,32.6H30
			l0.2-0.7c0,0,0-0.1,0-0.1c0,0,0,0.1,0,0.1L30.5,32.6z"/>
		<path fill="#484949" d="M34.3,33.2c-0.1-0.3-0.2-0.4-0.3-0.6c0.3-0.2,0.4-0.5,0.4-0.8c0-0.3-0.1-0.5-0.3-0.7
			c-0.2-0.2-0.5-0.3-1-0.3c-0.3,0-0.6,0-0.8,0.1c-0.1,0-0.1,0.1-0.1,0.1v3c0,0.1,0.1,0.1,0.1,0.1h0.4c0.1,0,0.1-0.1,0.1-0.1v-1.2
			h0.2c0.3,0,0.4,0.1,0.5,0.5c0.1,0.5,0.2,0.7,0.2,0.8c0,0,0.1,0.1,0.1,0.1h0.4c0,0,0.1,0,0.1-0.1c0,0,0-0.1,0-0.1
			C34.5,33.9,34.4,33.5,34.3,33.2z M33.7,31.8c0,0.3-0.2,0.4-0.5,0.4h-0.3v-0.8c0.1,0,0.1,0,0.2,0C33.7,31.4,33.7,31.7,33.7,31.8z"
			/>
		<path fill="#484949" d="M38.1,30.9h-0.5c-0.1,0-0.1,0-0.1,0.1l-0.5,1.5c-0.1,0.2-0.1,0.4-0.2,0.6c-0.1-0.2-0.1-0.4-0.2-0.6L36,31
			c0-0.1-0.1-0.1-0.1-0.1h-0.5c-0.1,0-0.1,0.1-0.1,0.1l-0.2,3c0,0,0,0.1,0,0.1c0,0,0.1,0,0.1,0h0.4c0.1,0,0.1-0.1,0.1-0.1l0.1-1.3
			c0-0.2,0-0.3,0-0.5c0,0.1,0.1,0.2,0.1,0.4l0.5,1.4c0,0.1,0.1,0.1,0.1,0.1h0.3c0.1,0,0.1,0,0.1-0.1l0.5-1.5
			c0.1-0.1,0.1-0.3,0.1-0.4c0,0.2,0,0.4,0,0.5l0.1,1.3c0,0.1,0.1,0.1,0.1,0.1h0.4c0,0,0.1,0,0.1,0c0,0,0-0.1,0-0.1l-0.2-3
			C38.2,30.9,38.2,30.9,38.1,30.9z"/>
		<path fill="#484949" d="M41.7,34l-1-3c0-0.1-0.1-0.1-0.1-0.1h-0.5c-0.1,0-0.1,0-0.1,0.1l-1,3c0,0,0,0.1,0,0.1c0,0,0.1,0.1,0.1,0.1
			h0.4c0.1,0,0.1,0,0.1-0.1l0.3-0.9h0.9l0.3,0.9c0,0.1,0.1,0.1,0.1,0.1h0.4c0,0,0.1,0,0.1-0.1C41.7,34.1,41.7,34,41.7,34z
			 M40.6,32.6H40l0.2-0.7c0,0,0-0.1,0-0.1c0,0,0,0.1,0,0.1L40.6,32.6z"/>
	</g>
	<g>
		<path fill="#E4EAEA" d="M23.2,30.3c-0.3,0-0.6,0-0.8,0.1c-0.1,0-0.1,0.1-0.1,0.1v3c0,0.1,0.1,0.1,0.1,0.1c0.2,0,0.5,0,0.7,0
			c0.6,0,1.1-0.2,1.4-0.5c0.3-0.3,0.5-0.7,0.5-1.3c0-0.5-0.2-0.9-0.5-1.2C24.3,30.5,23.8,30.3,23.2,30.3z M23.2,33.1
			c-0.1,0-0.2,0-0.3,0v-2.1c0.1,0,0.2,0,0.3,0c0.4,0,0.6,0.1,0.8,0.3c0.2,0.2,0.3,0.4,0.3,0.7C24.3,32.7,24,33.1,23.2,33.1z"/>
		<path fill="#E4EAEA" d="M28.1,30.3h-0.4c-0.1,0-0.1,0.1-0.1,0.1v1.1h-1.2v-1.1c0-0.1-0.1-0.1-0.1-0.1h-0.4c-0.1,0-0.1,0.1-0.1,0.1
			v3c0,0.1,0.1,0.1,0.1,0.1h0.4c0.1,0,0.1-0.1,0.1-0.1v-1.3h1.2v1.3c0,0.1,0.1,0.1,0.1,0.1h0.4c0.1,0,0.1-0.1,0.1-0.1v-3
			C28.2,30.4,28.2,30.3,28.1,30.3z"/>
		<path fill="#E4EAEA" d="M30.6,30.4c0-0.1-0.1-0.1-0.1-0.1H30c-0.1,0-0.1,0-0.1,0.1l-1,3c0,0,0,0.1,0,0.1c0,0,0.1,0.1,0.1,0.1h0.4
			c0.1,0,0.1,0,0.1-0.1l0.3-0.9h0.9l0.3,0.9c0,0.1,0.1,0.1,0.1,0.1h0.4c0,0,0.1,0,0.1-0.1c0,0,0-0.1,0-0.1L30.6,30.4z M30.5,32.1H30
			l0.2-0.7c0,0,0-0.1,0-0.1c0,0,0,0.1,0,0.1L30.5,32.1z"/>
		<path fill="#E4EAEA" d="M34.3,32.6c-0.1-0.3-0.2-0.4-0.3-0.6c0.3-0.2,0.4-0.5,0.4-0.8c0-0.3-0.1-0.5-0.3-0.7
			c-0.2-0.2-0.5-0.3-1-0.3c-0.3,0-0.6,0-0.8,0.1c-0.1,0-0.1,0.1-0.1,0.1v3c0,0.1,0.1,0.1,0.1,0.1h0.4c0.1,0,0.1-0.1,0.1-0.1v-1.2
			h0.2c0.3,0,0.4,0.1,0.5,0.5c0.1,0.5,0.2,0.7,0.2,0.8c0,0,0.1,0.1,0.1,0.1h0.4c0,0,0.1,0,0.1-0.1s0-0.1,0-0.1
			C34.5,33.3,34.4,33,34.3,32.6z M33.7,31.3c0,0.3-0.2,0.4-0.5,0.4h-0.3v-0.8c0.1,0,0.1,0,0.2,0C33.7,30.9,33.7,31.2,33.7,31.3z"/>
		<path fill="#E4EAEA" d="M38.1,30.3h-0.5c-0.1,0-0.1,0-0.1,0.1l-0.5,1.5c-0.1,0.2-0.1,0.4-0.2,0.6c-0.1-0.2-0.1-0.4-0.2-0.6
			L36,30.4c0-0.1-0.1-0.1-0.1-0.1h-0.5c-0.1,0-0.1,0.1-0.1,0.1l-0.2,3c0,0,0,0.1,0,0.1c0,0,0.1,0,0.1,0h0.4c0.1,0,0.1-0.1,0.1-0.1
			l0.1-1.3c0-0.2,0-0.3,0-0.5c0,0.1,0.1,0.2,0.1,0.4l0.5,1.4c0,0.1,0.1,0.1,0.1,0.1h0.3c0.1,0,0.1,0,0.1-0.1l0.5-1.5
			c0.1-0.1,0.1-0.3,0.1-0.4c0,0.2,0,0.4,0,0.5l0.1,1.3c0,0.1,0.1,0.1,0.1,0.1h0.4c0,0,0.1,0,0.1,0c0,0,0-0.1,0-0.1l-0.2-3
			C38.2,30.4,38.2,30.3,38.1,30.3z"/>
		<path fill="#E4EAEA" d="M41.7,33.5l-1-3c0-0.1-0.1-0.1-0.1-0.1h-0.5c-0.1,0-0.1,0-0.1,0.1l-1,3c0,0,0,0.1,0,0.1
			c0,0,0.1,0.1,0.1,0.1h0.4c0.1,0,0.1,0,0.1-0.1l0.3-0.9h0.9l0.3,0.9c0,0.1,0.1,0.1,0.1,0.1h0.4c0,0,0.1,0,0.1-0.1
			C41.7,33.6,41.7,33.5,41.7,33.5z M40.6,32.1H40l0.2-0.7c0,0,0-0.1,0-0.1c0,0,0,0.1,0,0.1L40.6,32.1z"/>
	</g>
</g>
</svg>
