<?xml version="1.0" encoding="utf-8"?>
<!-- Generator: Adobe Illustrator 16.0.0, SVG Export Plug-In . SVG Version: 6.00 Build 0)  -->
<!DOCTYPE svg PUBLIC "-//W3C//DTD SVG 1.1//EN" "http://www.w3.org/Graphics/SVG/1.1/DTD/svg11.dtd">
<svg version="1.1" id="Layer_1" xmlns="http://www.w3.org/2000/svg" xmlns:xlink="http://www.w3.org/1999/xlink" x="0px" y="0px"
	 width="64px" height="64px" viewBox="0 0 64 64" enable-background="new 0 0 64 64" xml:space="preserve">
<g>
	<g>
		<g>
			<path fill="#C7E2DD" d="M19.6,15.3c2.8,8.6,7.7,14.9,4.9,16.3s-8.2-4.2-12.1-12.4c-3.9-8.1-4.8-15.8-2-17.2
				C13.2,0.8,14-2.3,19.6,15.3z"/>
			<path fill="#B4D8D1" d="M10.4,2.1c2.8-1.3,3.5-4.4,9.2,13.2c2.8,8.6,7.7,14.9,4.9,16.3"/>
			<path fill="#F9B7D0" d="M16.2,12.7c1.1,4.2,3.2,7.3,1.9,7.9c-1.4,0.6-3.8-2.2-5.4-6.2c-1.6-4-1.8-7.7-0.5-8.2
				C13.6,5.6,14,4.2,16.2,12.7z"/>
		</g>
		<g>
			<path fill="#C7E2DD" d="M44.4,15.3c-2.8,8.6-7.7,14.9-4.9,16.3c2.8,1.3,8.2-4.2,12.1-12.4c3.9-8.1,4.8-15.8,2-17.2
				C50.8,0.8,50-2.3,44.4,15.3z"/>
			<path fill="#B4D8D1" d="M53.6,2.1c-2.8-1.3-3.5-4.4-9.2,13.2c-2.8,8.6-7.7,14.9-4.9,16.3"/>
			<path fill="#F9B7D0" d="M47.8,12.7c-1.1,4.2-3.2,7.3-1.9,7.9c1.4,0.6,3.8-2.2,5.4-6.2c1.6-4,1.8-7.7,0.5-8.2
				C50.4,5.6,50,4.2,47.8,12.7z"/>
		</g>
	</g>
	<g>
		<path fill="#C7E2DD" d="M59.7,41c0,17-12.4,22-27.7,22C16.7,63,4.3,58,4.3,41c0-17,12.4-26.9,27.7-26.9C47.3,14.2,59.7,24,59.7,41
			z"/>
		<path fill="#B4D8D1" d="M32,14.2c15.3,0,27.7,9.9,27.7,26.9c0,17-12.4,22-27.7,22"/>
		<g>
			<g>
				<g>
					<g>
						<path fill="#19BCA4" d="M20.1,27.5c-1.9,0.8-3,2.3-2.6,3.1l6.7-3.1C23.8,26.7,22,26.6,20.1,27.5z"/>
						<path fill="#109DA0" d="M21.1,29.5c1.9-0.8,3.6-1.1,3.2-2l-6.7,3.1C17.9,31.5,19.2,30.4,21.1,29.5z"/>
					</g>
					<g>
						<path fill="#19BCA4" d="M44.3,27.5c1.9,0.8,3,2.3,2.6,3.1l-6.7-3.1C40.6,26.7,42.4,26.6,44.3,27.5z"/>
						<path fill="#109DA0" d="M43.3,29.5c-1.9-0.8-3.6-1.1-3.2-2l6.7,3.1C46.5,31.5,45.2,30.4,43.3,29.5z"/>
					</g>
				</g>
				<path fill="#A8CCC5" d="M18.5,46.2c-4.9,0-8.8,1.1-8.8,2.5c0,1.4,3.9,0.7,8.8,0.7c4.9,0,8.8,0.6,8.8-0.7
					C27.3,47.3,23.3,46.2,18.5,46.2z"/>
				<path fill="#A8CCC5" d="M45.5,46.2c-4.9,0-8.8,1.1-8.8,2.5c0,1.4,3.9,0.7,8.8,0.7c4.9,0,8.8,0.6,8.8-0.7
					C54.3,47.3,50.4,46.2,45.5,46.2z"/>
				<g>
					<path fill="#87B2AA" d="M24.1,44.4c0,2-1.6,3.6-3.6,3.6c-2,0-3.6-1.6-3.6-3.6c0-2,1.6-3.6,3.6-3.6
						C22.5,40.8,24.1,42.4,24.1,44.4z"/>
					<circle fill="#87B2AA" cx="43.9" cy="44.4" r="3.6"/>
					<path fill="#1E4784" d="M24.1,43.3c0,2-1.6,3.6-3.6,3.6c-2,0-3.6-1.6-3.6-3.6c0-2,1.6-3.6,3.6-3.6
						C22.5,39.7,24.1,41.3,24.1,43.3z"/>
					<path fill="#00233F" d="M20.5,39.7c2,0,3.6,1.6,3.6,3.6c0,2-1.6,3.6-3.6,3.6"/>
					<circle fill="#1E4784" cx="43.9" cy="43.3" r="3.6"/>
					<path fill="#00233F" d="M43.9,39.7c2,0,3.6,1.6,3.6,3.6c0,2-1.6,3.6-3.6,3.6"/>
				</g>
			</g>
			<path fill="#19BCA4" d="M35.2,45.9c0,0.6-1.4,2.1-3.2,2.1c-1.8,0-3.2-1.5-3.2-2.1c0-0.6,1.4-1.1,3.2-1.1
				C33.8,44.8,35.2,45.3,35.2,45.9z"/>
			<path fill="#109DA0" d="M35.2,45.9c0,0.6-1.4,2.1-3.2,2.1c-1.8,0-3.2-1.5-3.2-2.1"/>
		</g>
		<path fill="#A8CCC5" d="M32.5,51h-1H28v3.3c0,1.2,1.1,2.2,2.3,2.2c0.7,0,1.3-0.3,1.7-0.8c0.4,0.5,1.1,0.8,1.8,0.8
			c1.2,0,2.3-1,2.3-2.2V51H32.5z"/>
		<path fill="#FFFFFF" d="M32.5,50h-1H28v3.5c0,1.2,1.1,2.2,2.3,2.2c0.7,0,1.3-0.3,1.7-0.8c0.4,0.5,1.1,0.8,1.8,0.8
			c1.2,0,2.3-1,2.3-2.2V50H32.5z"/>
	</g>
</g>
</svg>
