<?xml version="1.0" encoding="utf-8"?>
<!-- Generator: Adobe Illustrator 16.0.0, SVG Export Plug-In . SVG Version: 6.00 Build 0)  -->
<!DOCTYPE svg PUBLIC "-//W3C//DTD SVG 1.1//EN" "http://www.w3.org/Graphics/SVG/1.1/DTD/svg11.dtd">
<svg version="1.1" xmlns="http://www.w3.org/2000/svg" xmlns:xlink="http://www.w3.org/1999/xlink" x="0px" y="0px" width="65px"
	 height="65px" viewBox="0 0 65 65" enable-background="new 0 0 65 65" xml:space="preserve">
<g id="Layer_1">
	<g>
		<g>
			<path fill="#63C9D6" d="M0.862,44.572l5.72-9.913c0.481-0.834,1.367-1.348,2.334-1.348h6.369l5.995-10.382
				c0.72-1.246,2.04-2.013,3.48-2.013h17.067c1.436,0,2.761,0.767,3.473,2.013l3.99,6.899h6.975c0.791,0,1.518,0.417,1.909,1.102
				l4.687,8.12c0.387,0.683,0.387,1.517,0,2.205l-4.687,8.113c-0.392,0.676-1.118,1.1-1.909,1.1H48.79l-3.489,6.043
				c-0.712,1.238-2.037,2.006-3.473,2.006H24.761c-0.931,0-1.745-0.412-2.443-0.973c-0.507,0.572-1.179,0.973-1.959,0.973H8.916
				c-0.967,0-1.853-0.517-2.334-1.343l-5.72-9.913C0.379,46.427,0.379,45.403,0.862,44.572z"/>
			<path fill="#80D3E0" d="M49.415,29.829h-0.124l-3.99-6.899c-0.712-1.246-2.037-2.013-3.473-2.013H24.761
				c-1.44,0-2.761,0.767-3.48,2.013l-5.995,10.382H8.916c-0.967,0-1.853,0.514-2.334,1.348l-5.72,9.913
				c-0.483,0.831-0.483,1.855,0,2.689l0.455,0.787h5.325c0.78,0,1.452-0.399,1.957-0.973c0.701,0.562,1.513,0.973,2.443,0.973
				h17.068c1.436,0,2.761-0.767,3.473-2.004L35.072,40h7.476c0.791,0,1.52-0.423,1.91-1.1l4.687-8.114
				C49.314,30.486,49.395,30.16,49.415,29.829z"/>
		</g>
		<g>
			<path fill="#63C9D6" d="M64.362,15.491l-2.179-3.774c-0.183-0.317-0.52-0.514-0.888-0.514h-2.427l-2.281-3.954
				c-0.274-0.475-0.779-0.766-1.326-0.766h-6.499c-0.548,0-1.053,0.291-1.323,0.766l-1.521,2.628h-2.654
				c-0.302,0-0.578,0.159-0.727,0.42l-1.785,3.092c-0.146,0.261-0.146,0.578,0,0.84l1.785,3.09c0.148,0.258,0.425,0.418,0.727,0.418
				h2.848l1.328,2.302c0.271,0.472,0.775,0.765,1.323,0.765h6.499c0.354,0,0.664-0.158,0.931-0.371
				c0.193,0.218,0.448,0.371,0.746,0.371h4.357c0.368,0,0.705-0.197,0.888-0.512l2.179-3.775
				C64.547,16.197,64.547,15.807,64.362,15.491z"/>
			<path fill="#80D3E0" d="M45.873,9.876h0.045l1.521-2.628c0.271-0.475,0.775-0.766,1.323-0.766h6.499
				c0.547,0,1.052,0.291,1.326,0.766l2.281,3.954h2.427c0.368,0,0.705,0.196,0.888,0.514l2.179,3.774
				c0.185,0.316,0.185,0.706,0,1.024l-0.173,0.302h-2.028c-0.297,0-0.553-0.155-0.745-0.373c-0.268,0.214-0.577,0.373-0.93,0.373
				h-6.5c-0.547,0-1.053-0.293-1.324-0.766l-1.328-2.301h-2.846c-0.303,0-0.579-0.161-0.728-0.42l-1.784-3.09
				C45.911,10.126,45.882,10.002,45.873,9.876z"/>
		</g>
	</g>
</g>
<g id="nyt_x5F_exporter_x5F_info" display="none">
</g>
</svg>
