<?xml version="1.0" encoding="utf-8"?>
<!-- Generator: Adobe Illustrator 16.0.0, SVG Export Plug-In . SVG Version: 6.00 Build 0)  -->
<!DOCTYPE svg PUBLIC "-//W3C//DTD SVG 1.1//EN" "http://www.w3.org/Graphics/SVG/1.1/DTD/svg11.dtd">
<svg version="1.1" id="Layer_1" xmlns="http://www.w3.org/2000/svg" xmlns:xlink="http://www.w3.org/1999/xlink" x="0px" y="0px"
	 width="65px" height="65px" viewBox="0 0 65 65" enable-background="new 0 0 65 65" xml:space="preserve">
<g>
	<g>
		<g>
			<g>
				<g>
					<g>
						<path fill="#AA1111" d="M32.258,46.446c0,2.476-2.008,15.827-4.486,15.827c-2.475,0-4.482-13.352-4.482-15.827
							s2.008-4.484,4.482-4.484C30.25,41.962,32.258,43.971,32.258,46.446z"/>
						<path fill="#AA1111" d="M47.283,46.446c0,2.476-2.008,15.827-4.486,15.827c-2.475,0-4.482-13.352-4.482-15.827
							s2.008-4.484,4.482-4.484C45.275,41.962,47.283,43.971,47.283,46.446z"/>
					</g>
					<path fill="#232728" d="M47.936,40.521c0,16.038-5.662,10.697-12.65,10.697c-6.986,0-12.65,5.341-12.65-10.697
						c0-9.17,5.666-16.603,12.65-16.603C42.271,23.919,47.936,31.352,47.936,40.521z"/>
					<path fill="#232728" d="M39.646,27.708c1.432-1.273,4.229-0.465,6.25,1.805c2.018,2.27,10.793,14.475,9.365,15.75
						c-1.434,1.271-12.533-8.873-14.551-11.143C38.693,31.853,38.217,28.981,39.646,27.708z"/>
					<g>
						<path fill="#424849" d="M32.818,62.354c0,1.896-2.26,2.146-5.045,2.146s-5.045-0.249-5.045-2.146
							c0-1.897,2.26-4.508,5.045-4.508S32.818,60.457,32.818,62.354z"/>
						<path fill="#232728" d="M32.818,62.354c0,1.896-2.26,2.146-5.045,2.146s-5.045-0.249-5.045-2.146"/>
					</g>
					<g>
						<path fill="#424849" d="M47.844,62.354c0,1.896-2.26,2.146-5.045,2.146s-5.045-0.249-5.045-2.146
							c0-1.897,2.26-4.508,5.045-4.508S47.844,60.457,47.844,62.354z"/>
						<path fill="#232728" d="M47.844,62.354c0,1.896-2.26,2.146-5.045,2.146s-5.045-0.249-5.045-2.146"/>
					</g>
					<g>
						<path fill="#232728" d="M36.614,29.854c-0.113-1.912-2.662-3.318-5.696-3.143c-3.031,0.178-17.867,2.604-17.759,4.515
							c0.115,1.913,15.137,2.588,18.168,2.41C34.356,33.459,36.724,31.766,36.614,29.854z"/>
					</g>
					<circle fill="#A56B44" cx="35.285" cy="27.333" r="3.375"/>
					<g>
						<path fill="#D8A17C" d="M51.656,16.275c0,7.999-7.33,12.02-16.369,12.02c-9.041,0-16.373-4.021-16.373-12.02
							c0-8.001,7.332-15.775,16.373-15.775C44.326,0.5,51.656,8.274,51.656,16.275z"/>
						<path fill="#C48960" d="M51.656,16.275c0,7.999-7.33,12.02-16.369,12.02c-9.041,0-16.373-4.021-16.373-12.02
							c0-8.001,7.332-14.192,16.373-14.192C44.326,2.083,51.656,8.274,51.656,16.275z"/>
						<path fill="#BC8158" d="M51.656,16.275c0,7.999-7.33,12.02-16.369,12.02c-9.041,0-16.373-4.021-16.373-12.02"/>
						<path fill="#9E6F4F" d="M35.287,0.5c-9.041,0-16.373,7.774-16.373,15.775c0,0.794,0.092,1.537,0.23,2.253l0.422,0.496
							l2.13-2.129V12.55h13.462h0.255h13.462v4.346l2.129,2.129l0.422-0.496c0.139-0.716,0.23-1.459,0.23-2.253
							C51.656,8.274,44.326,0.5,35.287,0.5z"/>
					</g>
					<g>
						<g>
							<circle fill="#113E49" cx="27.501" cy="18.07" r="1.464"/>
							<path d="M28.965,18.07c0,0.811-0.656,1.465-1.465,1.465s-1.463-0.654-1.463-1.465"/>
							<g>
								<path fill="#E5A376" d="M30.389,21.124c-0.078,0-0.158-0.028-0.219-0.091c-0.715-0.714-1.664-1.107-2.672-1.107h-0.002
									c-1.008,0-1.955,0.394-2.666,1.106c-0.121,0.121-0.316,0.124-0.436,0.001c-0.121-0.117-0.125-0.312-0.004-0.434
									c0.83-0.831,1.932-1.29,3.105-1.29h0.002c1.176,0,2.279,0.456,3.111,1.288c0.119,0.119,0.119,0.318,0,0.436
									C30.549,21.096,30.471,21.124,30.389,21.124z"/>
							</g>
						</g>
						<g>
							<circle fill="#113E49" cx="43.071" cy="18.07" r="1.464"/>
							<path d="M41.607,18.07c0,0.811,0.654,1.465,1.465,1.465c0.809,0,1.463-0.654,1.463-1.465"/>
							<g>
								<path fill="#E5A376" d="M40.184,21.124c0.076,0,0.156-0.028,0.217-0.091c0.715-0.714,1.664-1.107,2.672-1.107h0.002
									c1.008,0,1.957,0.394,2.668,1.106c0.119,0.121,0.314,0.124,0.436,0.001c0.121-0.117,0.123-0.312,0.002-0.434
									c-0.826-0.831-1.932-1.29-3.105-1.29h-0.002c-1.174,0-2.277,0.456-3.111,1.288c-0.117,0.119-0.117,0.318,0,0.436
									C40.023,21.096,40.102,21.124,40.184,21.124z"/>
							</g>
						</g>
					</g>
				</g>
			</g>
		</g>
	</g>
	<g>
		<path fill="#DDA507" d="M36.128,35.215c-1.051-0.42-1.261-0.622-1.261-0.812c0-0.357,0.46-0.41,0.735-0.41
			c0.71,0,1.177,0.219,1.486,0.362l0.075,0.035c0.133,0.062,0.284,0.061,0.417,0.001c0.131-0.061,0.23-0.176,0.271-0.315
			l0.352-1.198c0.069-0.232-0.038-0.479-0.254-0.588c-0.468-0.234-0.97-0.382-1.521-0.446v-0.745c0-0.277-0.226-0.501-0.5-0.501
			h-1.067c-0.276,0-0.5,0.224-0.5,0.501v0.879c-1.288,0.376-2.098,1.364-2.098,2.608c0,1.654,1.381,2.366,2.581,2.801
			c1.091,0.397,1.091,0.699,1.091,0.845c0,0.389-0.474,0.527-0.88,0.527c-0.586,0-1.233-0.184-1.775-0.504
			c-0.135-0.078-0.297-0.092-0.44-0.033c-0.144,0.058-0.254,0.178-0.296,0.326l-0.352,1.225c-0.061,0.209,0.021,0.434,0.203,0.555
			c0.463,0.309,1.157,0.533,1.887,0.619v0.799c0,0.277,0.225,0.501,0.5,0.501h1.068c0.276,0,0.5-0.224,0.5-0.501v-0.938
			c1.35-0.372,2.2-1.403,2.2-2.719C38.551,36.347,37.249,35.636,36.128,35.215z"/>
		<path fill="#BC8804" d="M38.551,38.088c0-1.741-1.302-2.452-2.423-2.873c-1.051-0.42-1.261-0.622-1.261-0.812
			c0-0.357,0.46-0.41,0.735-0.41c0.71,0,1.177,0.219,1.486,0.362l0.075,0.035c0.133,0.062,0.284,0.061,0.417,0.001
			c0.131-0.061,0.23-0.176,0.271-0.315l0.352-1.198c0.069-0.232-0.038-0.479-0.254-0.588c-0.468-0.234-0.97-0.382-1.521-0.446
			v-0.745c0-0.277-0.226-0.501-0.5-0.501h-1.067c-0.276,0-0.5,0.224-0.5,0.501v0.879c-0.977,0.285-1.676,0.924-1.959,1.758
			l5.763,5.762C38.411,39.087,38.551,38.611,38.551,38.088z"/>
	</g>
	<path fill="#5B5656" d="M13.729,37.958c0,1.012,0.18,1.833-0.834,1.833l0,0c-1.012,0-0.833-0.821-0.833-1.833l-1-9.5
		c0-1.012,0.821-1.833,1.833-1.833l0,0c1.014,0,1.834,0.821,1.834,1.833L13.729,37.958z"/>
	<circle fill="#AAA7A7" cx="12.895" cy="26.896" r="3.312"/>
	<path fill="#8E8E8E" d="M16.207,26.896c0,1.83-1.482,3.312-3.312,3.312s-3.312-1.482-3.312-3.312"/>
	<ellipse fill="#891010" cx="39.02" cy="25.708" rx="1.25" ry="1"/>
</g>
</svg>
