<?xml version="1.0" encoding="utf-8"?>
<!-- Generator: Adobe Illustrator 16.0.0, SVG Export Plug-In . SVG Version: 6.00 Build 0)  -->
<!DOCTYPE svg PUBLIC "-//W3C//DTD SVG 1.1//EN" "http://www.w3.org/Graphics/SVG/1.1/DTD/svg11.dtd">
<svg version="1.1" xmlns="http://www.w3.org/2000/svg" xmlns:xlink="http://www.w3.org/1999/xlink" x="0px" y="0px" width="65px"
	 height="65px" viewBox="0 0 65 65" enable-background="new 0 0 65 65" xml:space="preserve">
<g id="Layer_1">
	<g>
		<g>
			<g>
				<g>
					<g>
						<polyline fill="#C2CC96" points="5.683,8.619 11.046,3.25 16.418,8.619 						"/>
					</g>
					<g>
						<path fill="#53930F" d="M5.683,11.119c-0.641,0-1.281-0.244-1.769-0.731C2.937,9.411,2.937,7.829,3.913,6.852l5.365-5.369
							c0.469-0.469,1.104-0.732,1.768-0.732l0,0c0.664,0,1.3,0.264,1.768,0.731l5.371,5.369c0.977,0.977,0.977,2.56,0.002,3.536
							c-0.977,0.977-2.561,0.976-3.536,0.001l-3.603-3.602L7.45,10.387C6.962,10.875,6.321,11.119,5.683,11.119z"/>
					</g>
				</g>
				<g>
					<g>
						<polyline fill="#C2CC96" points="48.58,8.619 53.949,3.25 59.317,8.619 						"/>
					</g>
					<g>
						<path fill="#53930F" d="M59.317,11.119c-0.639,0-1.279-0.244-1.767-0.732l-3.602-3.602l-3.602,3.602
							c-0.978,0.977-2.559,0.977-3.536,0c-0.977-0.977-0.977-2.559,0-3.535l5.371-5.369c0.975-0.977,2.558-0.977,3.533,0l5.37,5.369
							c0.977,0.977,0.977,2.559,0,3.535C60.598,10.875,59.958,11.119,59.317,11.119z"/>
					</g>
				</g>
			</g>
			<g>
				<g>
					<polyline fill="#C2CC96" points="27.131,8.619 32.499,3.25 37.866,8.619 					"/>
				</g>
				<g>
					<path fill="#53930F" d="M37.866,11.119c-0.639,0-1.279-0.244-1.766-0.732l-3.602-3.601l-3.601,3.601
						c-0.976,0.977-2.56,0.977-3.535,0c-0.977-0.976-0.977-2.559,0-3.535l5.368-5.369c0.938-0.938,2.598-0.938,3.535,0l5.368,5.369
						c0.977,0.977,0.977,2.56,0,3.535C39.146,10.875,38.507,11.119,37.866,11.119z"/>
				</g>
			</g>
			<g>
				<g>
					<path fill="#C2CC96" d="M54.132,8.675c0,11.948-9.684,21.632-21.632,21.632c-11.946,0-21.634-9.684-21.634-21.632"/>
				</g>
				<g>
					<path fill="#DFE5BD" d="M54.132,8.675c0,11.948-9.684,21.632-21.632,21.632"/>
				</g>
				<g>
					<path fill="#DFE5BD" d="M32.5,30.307c-11.946,0-21.634-9.684-21.634-21.632"/>
				</g>
				<g>
					<path fill="#53930F" d="M32.5,32.807c-13.308,0-24.134-10.825-24.134-24.132c0-1.381,1.119-2.5,2.5-2.5s2.5,1.119,2.5,2.5
						c0,10.55,8.583,19.132,19.134,19.132c10.55,0,19.133-8.582,19.133-19.132c0-1.381,1.118-2.5,2.499-2.5
						c1.382,0,2.501,1.119,2.501,2.5C56.633,21.981,45.808,32.807,32.5,32.807z"/>
				</g>
			</g>
			<g>
				<g>
					<line fill="#C2CC96" x1="32.5" y1="8.675" x2="32.5" y2="61.75"/>
				</g>
				<g>
					<path fill="#53930F" d="M32.5,64.25c-1.382,0-2.501-1.119-2.501-2.5V8.675c0-1.381,1.119-2.5,2.501-2.5
						c1.381,0,2.499,1.119,2.499,2.5V61.75C34.999,63.131,33.881,64.25,32.5,64.25z"/>
				</g>
			</g>
			<g>
				<g>
					<line fill="#C2CC96" x1="25.028" y1="52.767" x2="39.052" y2="52.767"/>
				</g>
				<g>
					<path fill="#53930F" d="M39.052,55.267H25.028c-1.381,0-2.5-1.119-2.5-2.5s1.119-2.5,2.5-2.5h14.023c1.383,0,2.5,1.119,2.5,2.5
						S40.435,55.267,39.052,55.267z"/>
				</g>
			</g>
		</g>
		<g>
			<g>
				<circle fill="#53930F" cx="14.685" cy="43.21" r="1.062"/>
			</g>
			<g>
				<circle fill="#53930F" cx="17.559" cy="46.083" r="1.062"/>
			</g>
			<g>
				<circle fill="#53930F" cx="20.431" cy="48.955" r="1.063"/>
			</g>
		</g>
	</g>
</g>
<g id="nyt_x5F_exporter_x5F_info" display="none">
</g>
</svg>
