<?xml version="1.0" encoding="utf-8"?>
<!-- Generator: Adobe Illustrator 16.0.0, SVG Export Plug-In . SVG Version: 6.00 Build 0)  -->
<!DOCTYPE svg PUBLIC "-//W3C//DTD SVG 1.1//EN" "http://www.w3.org/Graphics/SVG/1.1/DTD/svg11.dtd">
<svg version="1.1" id="Layer_1" xmlns="http://www.w3.org/2000/svg" xmlns:xlink="http://www.w3.org/1999/xlink" x="0px" y="0px"
	 width="65px" height="65px" viewBox="0 0 65 65" enable-background="new 0 0 65 65" xml:space="preserve">
<g>
	<g>
		<g>
			<g>
				<g>
					<g>
						<g>
							<path fill="#1C828C" d="M33.719,46.446c0,2.476-2.008,15.827-4.486,15.827c-2.475,0-4.482-13.352-4.482-15.827
								s2.008-4.484,4.482-4.484C31.711,41.962,33.719,43.971,33.719,46.446z"/>
							<path fill="#1C828C" d="M48.744,46.446c0,2.476-2.008,15.827-4.486,15.827c-2.475,0-4.482-13.352-4.482-15.827
								s2.008-4.484,4.482-4.484C46.736,41.962,48.744,43.971,48.744,46.446z"/>
						</g>
						<path fill="#EF0F0F" d="M49.396,40.521c0,16.038-5.662,10.697-12.65,10.697c-6.986,0-12.65,5.341-12.65-10.697
							c0-9.17,5.666-16.603,12.65-16.603C43.732,23.919,49.396,31.352,49.396,40.521z"/>
						<path fill="#EF0F0F" d="M41.107,27.708c1.432-1.273,4.229-0.465,6.25,1.805c2.018,2.27,10.793,14.475,9.365,15.75
							c-1.434,1.271-12.533-8.873-14.551-11.143C40.154,31.853,39.678,28.981,41.107,27.708z"/>
						<path fill="#BF0C0C" d="M36.746,44.719c-6.291,0-11.506,4.321-12.484-6.524c-0.107,0.648-0.166,1.414-0.166,2.327
							c0,16.038,5.664,10.697,12.65,10.697c6.988,0,12.65,5.341,12.65-10.697c0-0.913-0.059-1.679-0.166-2.327
							C48.254,49.04,43.039,44.719,36.746,44.719z"/>
						<g>
							<path fill="#EF0F0F" d="M34.279,62.354c0,1.896-2.26,2.146-5.045,2.146s-5.045-0.249-5.045-2.146
								c0-1.897,2.26-4.508,5.045-4.508S34.279,60.457,34.279,62.354z"/>
							<path fill="#BF0C0C" d="M34.279,62.354c0,1.896-2.26,2.146-5.045,2.146s-5.045-0.249-5.045-2.146"/>
						</g>
						<g>
							<path fill="#EF0F0F" d="M49.305,62.354c0,1.896-2.26,2.146-5.045,2.146s-5.045-0.249-5.045-2.146
								c0-1.897,2.26-4.508,5.045-4.508S49.305,60.457,49.305,62.354z"/>
							<path fill="#BF0C0C" d="M49.305,62.354c0,1.896-2.26,2.146-5.045,2.146s-5.045-0.249-5.045-2.146"/>
						</g>
						<g>
							<path fill="#EF0F0F" d="M38.076,29.854c-0.113-1.912-2.662-3.318-5.695-3.143c-3.033,0.178-17.867,2.604-17.762,4.515
								c0.115,1.913,15.139,2.588,18.17,2.41C35.818,33.459,38.186,31.766,38.076,29.854z"/>
						</g>
						<circle fill="#A56B44" cx="36.746" cy="27.333" r="3.375"/>
						<g>
							<path fill="#C48960" d="M53.117,16.275c0,7.999-7.33,12.02-16.369,12.02c-9.041,0-16.373-4.021-16.373-12.02
								c0-8.001,7.332-15.775,16.373-15.775C45.787,0.5,53.117,8.274,53.117,16.275z"/>
							<path fill="#BC8158" d="M53.117,16.275c0,7.999-7.33,12.02-16.369,12.02c-9.041,0-16.373-4.021-16.373-12.02"/>
						</g>
						<g>
							<g>
								<circle fill="#113E49" cx="26.962" cy="11.82" r="1.464"/>
								<path d="M28.426,11.82c0,0.811-0.656,1.465-1.465,1.465s-1.463-0.654-1.463-1.465"/>
								<g>
									<path fill="#E5A376" d="M29.85,14.874c-0.078,0-0.158-0.028-0.219-0.091c-0.715-0.714-1.664-1.107-2.672-1.107h-0.002
										c-1.008,0-1.955,0.394-2.666,1.106c-0.121,0.121-0.316,0.124-0.436,0.001c-0.121-0.117-0.125-0.312-0.004-0.434
										c0.83-0.831,1.932-1.29,3.105-1.29h0.002c1.176,0,2.279,0.456,3.111,1.288c0.119,0.119,0.119,0.318,0,0.436
										C30.01,14.846,29.932,14.874,29.85,14.874z"/>
								</g>
							</g>
							<g>
								<circle fill="#113E49" cx="42.532" cy="11.82" r="1.464"/>
								<path d="M41.068,11.82c0,0.811,0.654,1.465,1.465,1.465c0.809,0,1.463-0.654,1.463-1.465"/>
								<g>
									<path fill="#E5A376" d="M39.645,14.874c0.076,0,0.156-0.028,0.217-0.091c0.715-0.714,1.664-1.107,2.672-1.107h0.002
										c1.008,0,1.957,0.394,2.668,1.106c0.119,0.121,0.314,0.124,0.436,0.001c0.121-0.117,0.123-0.312,0.002-0.434
										c-0.826-0.831-1.932-1.29-3.105-1.29h-0.002c-1.174,0-2.277,0.456-3.111,1.288c-0.117,0.119-0.117,0.318,0,0.436
										C39.484,14.846,39.562,14.874,39.645,14.874z"/>
								</g>
							</g>
						</g>
					</g>
				</g>
				<path fill="#841212" d="M37.152,22.75c0,1.104-0.896,2-2,2h-2.334c-1.104,0-2-0.896-2-2V15c0-1.104,0.896-2,2-2h2.334
					c1.104,0,2,0.896,2,2V22.75z"/>
				<path fill="#AA1111" d="M35.152,17.25h-2.334c-1.104,0-2,0.896-2,2v3.5c0,1.104,0.896,2,2,2h2.334c1.104,0,2-0.896,2-2v-3.5
					C37.152,18.146,36.256,17.25,35.152,17.25z"/>
			</g>
		</g>
	</g>
	<g>
		<path fill="#A50707" d="M34.092,38.343c1.549-1.547,3.949-1.721,5.688-0.52l1.291-1.289c-2.459-1.896-6-1.721-8.254,0.533
			c-2.252,2.253-2.43,5.795-0.533,8.252l1.289-1.289C32.373,42.291,32.545,39.89,34.092,38.343z"/>
		<path fill="#A50707" d="M42.213,37.678l-1.289,1.289c1.201,1.739,1.027,4.14-0.52,5.688s-3.949,1.72-5.688,0.52l-1.289,1.29
			c2.457,1.896,5.998,1.719,8.252-0.534S44.109,40.135,42.213,37.678z"/>
	</g>
	<g>
		<g>
			<path fill="#990000" d="M10.217,24.42c1.58-0.277,1.244,0.572,1.096,5.928c-0.014,0.522-0.928,0.947-1.451,0.948
				c-0.525-0.001-1.023-0.024-1.023-0.549C8.838,30.224,9.701,24.511,10.217,24.42z"/>
			<g>
				<path fill="#990000" d="M17.953,24.419c-1.578-0.275-1.244,0.574-1.096,5.929c0.016,0.522,0.93,0.947,1.451,0.947
					c0.525,0.001,1.023-0.024,1.023-0.549C19.332,30.223,18.471,24.511,17.953,24.419z"/>
			</g>
		</g>
		<path fill="#8EB2B2" d="M18.082,22.03l-1.76-1.761l0.918-0.918l-1.393-1.394l0.918-0.918l-1.395-1.393l0.92-0.92l-1.393-1.393
			l0.918-0.919l-1.393-1.394l0.92-0.918l-1.395-1.394l0.92-0.919l-1.395-1.394l0.92-0.919l-1.393-1.393L13.76,3.33
			c-0.426-0.451-0.992-0.725-1.684-0.725c-1.377,0-2.49,1.114-2.49,2.49v19.176c0,1.375,1.113,1.413,2.488,1.413
			c1.377,0,6.521,0.188,6.52-1.186L18.082,22.03L18.082,22.03z"/>
		<path fill="#76999B" d="M9.586,5.096v19.176c0,0.505,0.15,0.829,0.408,1.037l2.514-0.001L12.51,2.649
			c-0.141-0.025-0.283-0.044-0.434-0.044C10.699,2.605,9.586,3.72,9.586,5.096z"/>
		<path fill="#BF0C0C" d="M18.369,23.962c0.25,0.001,0.453,0.205,0.453,0.453v1.034c0,0.251-0.203,0.454-0.455,0.454l-8.566-0.002
			c-0.25,0.001-0.453-0.202-0.453-0.452v-1.034c0-0.25,0.203-0.453,0.453-0.453H18.369z"/>
		<path fill="#EF0F0F" d="M9.348,24.415v1.034c0,0.25,0.203,0.453,0.453,0.452l2.67,0.001c0.25,0.001,0.455-0.203,0.453-0.453
			v-1.034c0-0.249-0.203-0.451-0.455-0.453H9.801C9.551,23.962,9.348,24.165,9.348,24.415z"/>
		<circle fill="#EBF0F2" cx="11.311" cy="5.347" r="0.578"/>
		<path fill="#BF0C0C" d="M19.197,29.518c0.752-0.001,0.852,0.61,0.852,1.362l0,0c0,0.752-0.611,1.363-1.363,1.362H9.484
			c-0.754,0.001-1.363-0.609-1.363-1.362l0,0c0-0.753,0.1-1.362,0.852-1.363L19.197,29.518z"/>
		<path fill="#EF0F0F" d="M8.121,30.88c0,0.753,0.609,1.363,1.363,1.362l2.404,0.001c0.752,0,1.365-0.611,1.365-1.363
			s-0.102-1.363-0.854-1.363H8.973C8.221,29.518,8.121,30.127,8.121,30.88z"/>
	</g>
	<path fill="#7C480B" d="M36.748,0.5c-5.861,0-10.99,3.276-13.883,7.757c2.924,0.162,13.539,0.48,16.119-3.174
		c0,0,1.5,3.125,7.875,2.875l2.125,4.875c0,0,0.5-4.625,2.75-2.5c0.025,0.023,0.049,0.033,0.072,0.055
		C49.311,4.849,43.508,0.5,36.748,0.5z"/>
</g>
</svg>
