<?xml version="1.0" encoding="utf-8"?>
<!-- Generator: Adobe Illustrator 16.0.0, SVG Export Plug-In . SVG Version: 6.00 Build 0)  -->
<!DOCTYPE svg PUBLIC "-//W3C//DTD SVG 1.1//EN" "http://www.w3.org/Graphics/SVG/1.1/DTD/svg11.dtd">
<svg version="1.1" id="Layer_1" xmlns="http://www.w3.org/2000/svg" xmlns:xlink="http://www.w3.org/1999/xlink" x="0px" y="0px"
	 width="64px" height="64px" viewBox="0 0 64 64" enable-background="new 0 0 64 64" xml:space="preserve">
<g>
	<g>
		
			<ellipse transform="matrix(0.3109 -0.9504 0.9504 0.3109 -32.3652 61.9303)" fill="#EA7103" cx="26.5" cy="53.3" rx="9.7" ry="6.8"/>
	</g>
	<g>
		
			<ellipse transform="matrix(-0.3109 -0.9504 0.9504 -0.3109 -1.2871 105.6371)" fill="#EA7103" cx="37.7" cy="53.3" rx="9.7" ry="6.8"/>
	</g>
	<g>
		<g>
			<g>
				<g>
					<g>
						<path fill="#F7910B" d="M62.3,35.5C62.3,48.5,50.4,59,32,59C13.6,59,1.7,48.5,1.7,35.5S13.6,3,32,3
							C50.4,3,62.3,22.5,62.3,35.5z"/>
					</g>
					<g>
						<path fill="#F7910B" d="M62.3,35.5C62.3,48.5,50.4,55,32,55C13.6,55,1.7,48.5,1.7,35.5S13.6,1,32,1
							C50.4,1,62.3,22.5,62.3,35.5z"/>
					</g>
					<g>
						<path fill="#F9A908" d="M32,1c18.4,0,30.3,21.5,30.3,34.5S50.4,55,32,55"/>
					</g>
					<g>
						<path fill="#F9A908" d="M62.3,35.5C62.3,48.5,50.4,55,32,55C13.6,55,1.7,48.5,1.7,35.5S13.6,3,32,3
							C50.4,3,62.3,22.5,62.3,35.5z"/>
					</g>
					<g>
						<path fill="#F9C55D" d="M1.7,35.5C1.7,22.5,13.6,3,32,3"/>
					</g>
					<g>
						<path fill="#F7910B" d="M32,3c18.4,0,30.3,19.5,30.3,32.5S50.4,59,32,59"/>
					</g>
					<g>
						<path fill="#EA7103" d="M32,3c18.4,0,30.3,19.5,30.3,32.5"/>
					</g>
					<g>
						<g>
							<circle fill="#EA7103" cx="21.6" cy="31.6" r="3.2"/>
						</g>
						<g>
							<circle fill="#EA7103" cx="42.4" cy="31.6" r="3.2"/>
						</g>
						<g>
							<circle fill="#1E4784" cx="21.6" cy="30.6" r="3.2"/>
						</g>
						<g>
							<path fill="#00233F" d="M21.6,27.5c1.8,0,3.2,1.4,3.2,3.2s-1.4,3.2-3.2,3.2"/>
						</g>
						<g>
							<circle fill="#1E4784" cx="42.4" cy="30.6" r="3.2"/>
						</g>
						<g>
							<path fill="#00233F" d="M42.4,27.5c1.8,0,3.2,1.4,3.2,3.2s-1.4,3.2-3.2,3.2"/>
						</g>
					</g>
					<g>
						<g>
							<g>
								<g>
									<g>
										<g>
											<path fill="#19BCA4" d="M28.6,28.6c-0.8,1-2.1-0.9-4.3-2.6c-2.1-1.7-4.3-2.6-3.5-3.6c0.8-1,3.2-0.5,5.4,1.2
												C28.4,25.3,29.4,27.6,28.6,28.6z"/>
										</g>
									</g>
								</g>
							</g>
							<g>
								<g>
									<g>
										<g>
											<path fill="#109DA0" d="M28.6,28.6c-0.8,1-2.1-0.9-4.3-2.6c-2.1-1.7-4.3-2.6-3.5-3.6"/>
										</g>
									</g>
								</g>
							</g>
						</g>
						<g>
							<g>
								<g>
									<g>
										<g>
											<path fill="#19BCA4" d="M36.1,27.8c0.8,1.1,2.2-0.8,4.4-2.4c2.2-1.6,4.4-2.4,3.6-3.4c-0.8-1.1-3.2-0.6-5.4,1
												C36.5,24.6,35.3,26.8,36.1,27.8z"/>
										</g>
									</g>
								</g>
							</g>
							<g>
								<g>
									<g>
										<g>
											<path fill="#109DA0" d="M36.1,27.8c0.8,1.1,2.2-0.8,4.4-2.4c2.2-1.6,4.4-2.4,3.6-3.4"/>
										</g>
									</g>
								</g>
							</g>
						</g>
					</g>
					<g>
						<g>
							<path fill="#F9C55D" d="M27.8,36.7c0,1.2-3.5,0.7-7.8,0.7c-4.3,0-7.8,0.6-7.8-0.7s3.5-2.2,7.8-2.2
								C24.3,34.5,27.8,35.5,27.8,36.7z"/>
						</g>
						<g>
							<path fill="#F9A908" d="M51.8,36.7c0,1.2-3.5,0.7-7.8,0.7s-7.8,0.6-7.8-0.7s3.5-2.2,7.8-2.2S51.8,35.5,51.8,36.7z"/>
						</g>
					</g>
					<g>
						<path fill="#F7910B" d="M40,44.2c0,4.8-3.6,8.8-8,8.8c-4.4,0-8-3.9-8-8.8"/>
					</g>
					<g>
						<circle fill="#F7910B" cx="10.3" cy="32.4" r="0.6"/>
					</g>
					<g>
						<circle fill="#F7910B" cx="5.8" cy="34.4" r="1.1"/>
					</g>
					<g>
						<circle fill="#F7910B" cx="8.8" cy="30.4" r="0.2"/>
					</g>
					<g>
						<circle fill="#F7910B" cx="13.4" cy="32.2" r="0.2"/>
					</g>
					<g>
						<circle fill="#F9A908" cx="52.6" cy="32.8" r="0.8"/>
					</g>
					<g>
						<circle fill="#F9A908" cx="55.1" cy="34.2" r="0.2"/>
					</g>
					<g>
						<circle fill="#F9A908" cx="49.8" cy="25.4" r="0.3"/>
					</g>
					<g>
						<circle fill="#F9A908" cx="49.3" cy="37" r="1.3"/>
					</g>
					<g>
						<circle fill="#F9A908" cx="56.5" cy="37.1" r="0.6"/>
					</g>
					<g>
						<circle fill="#F7910B" cx="9.3" cy="36.5" r="0.5"/>
					</g>
					<g>
						<circle fill="#F7910B" cx="10.1" cy="28.1" r="0.4"/>
					</g>
					<g>
						<circle fill="#F9A908" cx="4.8" cy="14.3" r="1.1"/>
					</g>
					<g>
						<circle fill="#F9A908" cx="8" cy="10.7" r="0.6"/>
					</g>
					<g>
						<circle fill="#F9A908" cx="59.2" cy="16.7" r="0.2"/>
					</g>
					<g>
						<circle fill="#F9A908" cx="58.4" cy="13.7" r="0.8"/>
					</g>
					<g>
						<circle fill="#F9A908" cx="61" cy="14.3" r="0.5"/>
					</g>
					<g>
						<circle fill="#F9A908" cx="6" cy="17.2" r="0.6"/>
					</g>
				</g>
			</g>
		</g>
		<g>
			<g>
				<g>
					<path fill="#00233F" d="M51,51.3c0-3.5-2.8-6.3-6.3-6.3h-2.3c-3.5,0-6.3,2.8-6.3,6.3v5.3c0,3.5,2.8,6.3,6.3,6.3h2.3
						c3.5,0,6.3-2.8,6.3-6.3V51.3z"/>
				</g>
				<g>
					<path fill="#BFD4E0" d="M49,49.3c0-3.5-2.8-6.3-6.3-6.3h-2.3c-3.5,0-6.3,2.8-6.3,6.3v5.3c0,3.5,2.8,6.3,6.3,6.3h2.3
						c3.5,0,6.3-2.8,6.3-6.3V49.3z"/>
				</g>
				<g>
					<path fill="#720A2D" d="M33.4,56.5c0.5,2.3,3.4,3.6,6.5,3l1.8-0.4c3.1-0.7,5.1-3.1,4.6-5.4l-0.7-3.2c-0.5-2.3-3.4-3.6-6.5-3
						l-1.8,0.4c-3.1,0.7-5.1,3.1-4.6,5.4L33.4,56.5z"/>
				</g>
				<g>
					<path fill="#890E37" d="M51,43.5c0-4.7-3.8-8.5-8.5-8.5h-2.9c-4.7,0-8.5,3.8-8.5,8.5v6.9c0,4.7,3.8,8.5,8.5,8.5h2.9
						c4.7,0,8.5-3.8,8.5-8.5V43.5z"/>
				</g>
				<g>
					<path fill="#DD436F" d="M49,43.5c0-0.3-0.2-0.5-0.5-0.5l0,0c-0.3,0-0.5,0.2-0.5,0.5v7c0,0.3,0.2,0.5,0.5,0.5l0,0
						c0.3,0,0.5-0.2,0.5-0.5V43.5z"/>
				</g>
			</g>
			<g>
				<g>
					<path fill="#00233F" d="M29,56.4c0,3.6-3.3,6.6-7,6.6h-2.2c-3.6,0-6.8-2.9-6.8-6.6v-5.1c0-3.6,3.2-6.4,6.8-6.4H22
						c3.6,0,7,2.7,7,6.4V56.4z"/>
				</g>
				<g>
					<path fill="#BFD4E0" d="M30,54c0,3.6-2.6,7-6.2,7h-2.2c-3.6,0-6.6-3.4-6.6-7v-5.1c0-3.6,2.9-6.9,6.6-6.9h2.2
						c3.6,0,6.2,3.3,6.2,6.9V54z"/>
				</g>
				<g>
					<path fill="#720A2D" d="M31.3,56.2c-0.5,2.4-3.5,3.8-6.7,3.1l-1.9-0.4c-3.2-0.7-5.3-3.2-4.8-5.6l0.7-3.3
						c0.5-2.4,3.5-3.8,6.7-3.1l1.9,0.4c3.2,0.7,5.3,3.2,4.8,5.6L31.3,56.2z"/>
				</g>
				<g>
					<path fill="#AA2444" d="M34,50.1c0,4.9-4,8.9-8.9,8.9h-3.2C17,59,13,55,13,50.1v-7.2c0-4.9,4-8.9,8.9-8.9h3.2
						c4.9,0,8.9,4,8.9,8.9V50.1z"/>
				</g>
				<g>
					<path fill="#DD436F" d="M16,50.5c0,0.3-0.2,0.5-0.5,0.5l0,0c-0.3,0-0.5-0.2-0.5-0.5v-8c0-0.3,0.2-0.5,0.5-0.5l0,0
						c0.3,0,0.5,0.2,0.5,0.5V50.5z"/>
				</g>
			</g>
		</g>
	</g>
</g>
</svg>
