<?xml version="1.0" encoding="utf-8"?>
<!-- Generator: Adobe Illustrator 16.0.0, SVG Export Plug-In . SVG Version: 6.00 Build 0)  -->
<!DOCTYPE svg PUBLIC "-//W3C//DTD SVG 1.1//EN" "http://www.w3.org/Graphics/SVG/1.1/DTD/svg11.dtd">
<svg version="1.1" id="Layer_1" xmlns="http://www.w3.org/2000/svg" xmlns:xlink="http://www.w3.org/1999/xlink" x="0px" y="0px"
	 width="64px" height="64px" viewBox="0 0 64 64" enable-background="new 0 0 64 64" xml:space="preserve">
<g>
	<g>
		<g>
			<g>
				<g>
					<g>
						<g>
							<g>
								<circle fill="#93358A" cx="32" cy="32.4" r="28.3"/>
								<path fill="#601660" d="M12,12.4C23,1.3,41,1.3,52,12.4c11.1,11.1,11.1,29,0,40.1"/>
							</g>
						</g>
					</g>
				</g>
			</g>
		</g>
	</g>
	<g>
		<path fill="#5EE0EA" d="M49.6,13.1c0-6.5-5.3-11.7-11.8-11.7c-4.6,0-8.5,2.6-10.5,6.5c-0.4-0.1-0.9-0.2-1.3-0.2
			c-3.1,0-5.6,2.5-5.6,5.6c0,0.1,0,0.2,0,0.4c-4,0.4-6.2,4-6.2,8.2v0.6c0,4.6,3.7,8.3,8.3,8.3h18.8c4.6,0,8.3-3.7,8.3-8.3v-2.6
			C49.8,17.6,49.6,15.3,49.6,13.1z"/>
		<path fill="#30B9D8" d="M49.6,14.7c0-6.5-5.3-11.7-11.8-11.7c-4.6,0-8.5,2.6-10.5,6.5c-0.4-0.1-0.9-0.2-1.3-0.2
			c-3.1,0-5.6,2.5-5.6,5.6c0,0.1,0,0.2,0,0.4c-4,0.4-6.2,2.4-6.2,6.7v0.6c0,4.6,3.7,8.3,8.3,8.3h18.8c4.6,0,8.3-3.7,8.3-8.3v-2.6
			C49.8,17.6,49.6,16.9,49.6,14.7z"/>
		<path fill="#27AAC9" d="M22.6,30.7h18.8c4.6,0,8.3-3.7,8.3-8.3v-2.6c0.1-2.1,0-2.9,0-5.1"/>
		<path fill="#98D3CD" d="M20.5,14.8"/>
		<path fill="#5EE0EA" d="M32.8,14.8c-0.3-0.1-0.7-0.2-1.1-0.2c-2.2,0-3.9,1.8-3.9,3.9c0,0.4,0.1,0.7,0.2,1.1
			C28.3,17.2,30.3,15.1,32.8,14.8z"/>
		<path fill="#5EE0EA" d="M39.6,11.2c-0.4-0.2-0.9-0.4-1.4-0.5c-2.9-0.5-5.7,1.4-6.3,4.3c-0.1,0.5-0.1,1,0,1.5
			C32.9,13.2,36.1,11,39.6,11.2z"/>
		<path fill="#5EE0EA" d="M18.7,21.2c0,0.2-0.2,0.4-0.4,0.4c-0.2,0-0.4-0.2-0.4-0.4s0.2-0.4,0.4-0.4C18.5,20.8,18.7,21,18.7,21.2z"
			/>
		<circle fill="#5EE0EA" cx="19.3" cy="18.2" r="0.5"/>
		<circle fill="#5EE0EA" cx="26.1" cy="12.7" r="0.2"/>
		<path fill="#5EE0EA" d="M32.1,9.7c0,0.3-0.3,0.6-0.6,0.6c-0.3,0-0.6-0.3-0.6-0.6c0-0.3,0.3-0.6,0.6-0.6
			C31.9,9.1,32.1,9.3,32.1,9.7z"/>
		<circle fill="#5EE0EA" cx="36.2" cy="4.8" r="0.3"/>
		<path fill="#5EE0EA" d="M39.7,5.7c0,0.5-0.4,0.9-0.9,0.9c-0.5,0-0.9-0.4-0.9-0.9s0.4-0.9,0.9-0.9C39.3,4.8,39.7,5.2,39.7,5.7z"/>
	</g>
	<g>
		<g>
			<path fill="#C7F4FF" d="M25.6,43l-1.4-0.8l0.8-0.2c0.2-0.1,0.3-0.3,0.3-0.5c-0.1-0.2-0.3-0.3-0.5-0.3l-1.5,0.4c0,0,0,0,0,0
				l-0.7-0.4v-4l0.7-0.4c0,0,0,0,0,0l1.5,0.4c0,0,0.1,0,0.1,0c0.2,0,0.3-0.1,0.4-0.3c0.1-0.2-0.1-0.4-0.3-0.5l-0.8-0.2l1.4-0.8
				c0.2-0.1,0.3-0.4,0.2-0.6s-0.4-0.3-0.6-0.2l-1.4,0.8l0.2-0.8c0.1-0.2-0.1-0.4-0.3-0.5c-0.2-0.1-0.4,0.1-0.5,0.3l-0.4,1.5l0,0
				l-0.7,0.4l-3.5-2v-0.8c0,0,0,0,0,0l1.1-1.1c0.2-0.2,0.2-0.4,0-0.6c-0.2-0.2-0.4-0.2-0.6,0l-0.6,0.6v-1.6c0-0.2-0.2-0.4-0.4-0.4
				c-0.2,0-0.4,0.2-0.4,0.4v1.6L17.2,32c-0.2-0.2-0.4-0.2-0.6,0c-0.2,0.2-0.2,0.4,0,0.6l1.1,1.1l0,0v0.8l-3.5,2l-0.7-0.4l0,0
				l-0.4-1.5c-0.1-0.2-0.3-0.3-0.5-0.3c-0.2,0.1-0.3,0.3-0.3,0.5l0.2,0.8l-1.4-0.8c-0.2-0.1-0.4,0-0.6,0.2s0,0.4,0.1,0.6l1.4,0.8
				l-0.8,0.2c-0.2,0.1-0.3,0.3-0.3,0.5c0,0.2,0.2,0.3,0.4,0.3c0,0,0.1,0,0.1,0l1.5-0.4c0,0,0,0,0,0l0.7,0.4v4l-0.7,0.4l0,0l-1.5-0.4
				c-0.2-0.1-0.4,0.1-0.5,0.3c-0.1,0.2,0.1,0.4,0.3,0.5l0.8,0.2L10.8,43c-0.2,0.1-0.3,0.4-0.1,0.6c0.1,0.1,0.2,0.2,0.4,0.2
				c0.1,0,0.1,0,0.2-0.1l1.4-0.8l-0.2,0.8c-0.1,0.2,0.1,0.4,0.3,0.5c0,0,0.1,0,0.1,0c0.2,0,0.3-0.1,0.4-0.3l0.4-1.5l0,0l0.7-0.4
				l3.5,2v0.8l0,0l-1.1,1.1c-0.2,0.2-0.2,0.4,0,0.6c0.1,0.1,0.2,0.1,0.3,0.1c0.1,0,0.2,0,0.3-0.1l0.6-0.6v1.6c0,0.2,0.2,0.4,0.4,0.4
				c0.2,0,0.4-0.2,0.4-0.4v-1.6l0.6,0.6c0.1,0.1,0.2,0.1,0.3,0.1c0.1,0,0.2,0,0.3-0.1c0.2-0.2,0.2-0.4,0-0.6l-1.1-1.1c0,0,0,0,0,0
				v-0.8l3.5-2l0.7,0.4l0,0l0.4,1.5c0,0.2,0.2,0.3,0.4,0.3c0,0,0.1,0,0.1,0c0.2-0.1,0.3-0.3,0.3-0.5l-0.2-0.8l1.4,0.8
				c0.1,0,0.1,0.1,0.2,0.1c0.1,0,0.3-0.1,0.4-0.2C25.8,43.3,25.8,43.1,25.6,43z M21.6,40.7L19,39.2l2.6-1.5V40.7z M21.2,37l-2.7,1.5
				v-3.1L21.2,37z M17.8,35.4v3.1L15.1,37L17.8,35.4z M14.7,37.7l2.6,1.5l-2.6,1.5V37.7z M15.1,41.4l2.7-1.5V43L15.1,41.4z M18.6,43
				v-3.1l2.7,1.5L18.6,43z"/>
		</g>
		<path fill="#B5EDF7" d="M25.6,43l-1.4-0.8l0.8-0.2c0.2-0.1,0.3-0.3,0.3-0.5c-0.1-0.2-0.3-0.3-0.5-0.3l-1.5,0.4c0,0,0,0,0,0
			l-0.7-0.4v-4l0.7-0.4c0,0,0,0,0,0l1.5,0.4c0,0,0.1,0,0.1,0c0.2,0,0.3-0.1,0.4-0.3c0.1-0.2-0.1-0.4-0.3-0.5l-0.8-0.2l1.4-0.8
			c0.2-0.1,0.3-0.4,0.2-0.6s-0.4-0.3-0.6-0.2l-1.4,0.8l0.2-0.8c0.1-0.2-0.1-0.4-0.3-0.5c-0.2-0.1-0.4,0.1-0.5,0.3l-0.4,1.5l0,0
			l-0.7,0.4l-3.5-2v-0.8c0,0,0,0,0,0l1.1-1.1c0.2-0.2,0.2-0.4,0-0.6c-0.2-0.2-0.4-0.2-0.6,0l-0.6,0.6v-1.6c0-0.2-0.2-0.4-0.4-0.4
			c0,0,0,0,0,0v17.3c0,0,0,0,0,0c0.2,0,0.4-0.2,0.4-0.4v-1.6l0.6,0.6c0.1,0.1,0.2,0.1,0.3,0.1c0.1,0,0.2,0,0.3-0.1
			c0.2-0.2,0.2-0.4,0-0.6l-1.1-1.1c0,0,0,0,0,0v-0.8l3.5-2l0.7,0.4l0,0l0.4,1.5c0,0.2,0.2,0.3,0.4,0.3c0,0,0.1,0,0.1,0
			c0.2-0.1,0.3-0.3,0.3-0.5l-0.2-0.8l1.4,0.8c0.1,0,0.1,0.1,0.2,0.1c0.1,0,0.3-0.1,0.4-0.2C25.8,43.3,25.8,43.1,25.6,43z M18.6,35.4
			l2.7,1.5l-2.7,1.5V35.4z M18.6,43v-3.1l2.7,1.5L18.6,43z M21.6,40.7L19,39.2l2.6-1.5V40.7z"/>
	</g>
	<g>
		<g>
			<path fill="#C7F4FF" d="M36.5,59.7l-0.8-0.5l0.5-0.1c0.1,0,0.2-0.2,0.2-0.3s-0.2-0.2-0.3-0.2L35,58.8l0,0l-0.4-0.2v-2.4l0.4-0.2
				l0,0l0.9,0.2c0,0,0,0,0.1,0c0.1,0,0.2-0.1,0.2-0.2c0-0.1,0-0.3-0.2-0.3l-0.5-0.1l0.8-0.5c0.1-0.1,0.2-0.2,0.1-0.3
				c-0.1-0.1-0.2-0.2-0.3-0.1l-0.8,0.5l0.1-0.5c0-0.1,0-0.3-0.2-0.3c-0.1,0-0.3,0-0.3,0.2l-0.2,0.9v0l-0.4,0.2l-2.1-1.2v-0.5l0,0
				l0.7-0.7c0.1-0.1,0.1-0.3,0-0.3c-0.1-0.1-0.3-0.1-0.3,0l-0.3,0.3v-1c0-0.1-0.1-0.2-0.2-0.2c-0.1,0-0.2,0.1-0.2,0.2v1L31.4,53
				c-0.1-0.1-0.3-0.1-0.3,0c-0.1,0.1-0.1,0.3,0,0.3l0.7,0.7l0,0v0.5l-2.1,1.2l-0.4-0.2l0,0L29,54.6c0-0.1-0.2-0.2-0.3-0.2
				c-0.1,0-0.2,0.2-0.2,0.3l0.1,0.5l-0.8-0.5c-0.1-0.1-0.3,0-0.3,0.1c-0.1,0.1,0,0.3,0.1,0.3l0.8,0.5l-0.5,0.1
				c-0.1,0-0.2,0.2-0.2,0.3c0,0.1,0.1,0.2,0.2,0.2c0,0,0,0,0.1,0L29,56c0,0,0,0,0,0l0.4,0.2v2.4L29,58.8c0,0,0,0,0,0l-0.9-0.2
				c-0.1,0-0.3,0-0.3,0.2c0,0.1,0,0.3,0.2,0.3l0.5,0.1l-0.8,0.5c-0.1,0.1-0.2,0.2-0.1,0.3c0,0.1,0.1,0.1,0.2,0.1c0,0,0.1,0,0.1,0
				l0.8-0.5l-0.1,0.5c0,0.1,0,0.3,0.2,0.3c0,0,0,0,0.1,0c0.1,0,0.2-0.1,0.2-0.2l0.3-0.9c0,0,0,0,0,0l0.4-0.2l2.1,1.2v0.5l0,0
				l-0.7,0.7c-0.1,0.1-0.1,0.3,0,0.3c0,0,0.1,0.1,0.2,0.1c0.1,0,0.1,0,0.2-0.1l0.3-0.3v1c0,0.1,0.1,0.2,0.2,0.2
				c0.1,0,0.2-0.1,0.2-0.2v-1l0.3,0.3c0,0,0.1,0.1,0.2,0.1c0.1,0,0.1,0,0.2-0.1c0.1-0.1,0.1-0.3,0-0.3l-0.7-0.7l0,0v-0.5l2.1-1.2
				l0.4,0.2c0,0,0,0,0,0l0.2,0.9c0,0.1,0.1,0.2,0.2,0.2c0,0,0,0,0.1,0c0.1,0,0.2-0.2,0.2-0.3l-0.1-0.5l0.8,0.5c0,0,0.1,0,0.1,0
				c0.1,0,0.2,0,0.2-0.1C36.6,59.9,36.6,59.7,36.5,59.7z M34.1,58.3l-1.6-0.9l1.6-0.9V58.3z M33.8,56L32.2,57v-1.8L33.8,56z
				 M31.8,55.1V57L30.2,56L31.8,55.1z M29.9,56.5l1.6,0.9l-1.6,0.9V56.5z M30.2,58.7l1.6-0.9v1.8L30.2,58.7z M32.2,59.7v-1.8
				l1.6,0.9L32.2,59.7z"/>
		</g>
		<path fill="#B5EDF7" d="M36.5,59.7l-0.8-0.5l0.5-0.1c0.1,0,0.2-0.2,0.2-0.3s-0.2-0.2-0.3-0.2L35,58.8l0,0l-0.4-0.2v-2.4l0.4-0.2
			l0,0l0.9,0.2c0,0,0,0,0.1,0c0.1,0,0.2-0.1,0.2-0.2c0-0.1,0-0.3-0.2-0.3l-0.5-0.1l0.8-0.5c0.1-0.1,0.2-0.2,0.1-0.3
			c-0.1-0.1-0.2-0.2-0.3-0.1l-0.8,0.5l0.1-0.5c0-0.1,0-0.3-0.2-0.3c-0.1,0-0.3,0-0.3,0.2l-0.2,0.9v0l-0.4,0.2l-2.1-1.2v-0.5l0,0
			l0.7-0.7c0.1-0.1,0.1-0.3,0-0.3c-0.1-0.1-0.3-0.1-0.3,0l-0.3,0.3v-1c0-0.1-0.1-0.2-0.2-0.2c0,0,0,0,0,0v10.5c0,0,0,0,0,0
			c0.1,0,0.2-0.1,0.2-0.2v-1l0.3,0.3c0,0,0.1,0.1,0.2,0.1c0.1,0,0.1,0,0.2-0.1c0.1-0.1,0.1-0.3,0-0.3l-0.7-0.7l0,0v-0.5l2.1-1.2
			l0.4,0.2c0,0,0,0,0,0l0.2,0.9c0,0.1,0.1,0.2,0.2,0.2c0,0,0,0,0.1,0c0.1,0,0.2-0.2,0.2-0.3l-0.1-0.5l0.8,0.5c0,0,0.1,0,0.1,0
			c0.1,0,0.2,0,0.2-0.1C36.6,59.9,36.6,59.7,36.5,59.7z M32.2,55.1l1.6,0.9L32.2,57V55.1z M32.2,59.7v-1.8l1.6,0.9L32.2,59.7z
			 M34.1,58.3l-1.6-0.9l1.6-0.9V58.3z"/>
	</g>
	<g>
		<g>
			<path fill="#C7F4FF" d="M38.1,31.8L37,32l0.3-0.5c0.1-0.1,0-0.3-0.1-0.4c-0.1-0.1-0.3,0-0.4,0.1l-0.6,1l0,0l-0.6,0.2l-2-2
				l0.1-0.6c0,0,0,0,0,0l1-0.6c0,0,0,0,0.1,0c0.1-0.1,0.1-0.2,0-0.3c-0.1-0.1-0.3-0.2-0.4-0.1l-0.5,0.3l0.3-1.1c0-0.2,0-0.3-0.2-0.4
				c-0.2,0-0.3,0-0.4,0.2L33.5,29l-0.3-0.5c-0.1-0.1-0.3-0.2-0.4-0.1c-0.1,0.1-0.2,0.3-0.1,0.4l0.6,1c0,0,0,0,0,0l-0.1,0.5L30.5,31
				l-0.4-0.4l0,0v-1.1c0-0.2-0.1-0.3-0.3-0.3c-0.2,0-0.3,0.1-0.3,0.3l0,0.5l-0.8-0.8c-0.1-0.1-0.3-0.1-0.4,0c-0.1,0.1-0.1,0.3,0,0.4
				l0.8,0.8h-0.5c-0.2,0-0.3,0.1-0.3,0.3s0.1,0.3,0.3,0.3h1.1c0,0,0,0,0,0l0.4,0.4l-0.7,2.7l-0.5,0.1l0,0l-1-0.6
				c-0.1-0.1-0.3,0-0.4,0.1c-0.1,0.1,0,0.3,0.1,0.4l0.5,0.3l-1.1,0.3c-0.2,0-0.2,0.2-0.2,0.3c0,0.2,0.2,0.2,0.4,0.2l1.1-0.3
				l-0.3,0.5c-0.1,0.1,0,0.3,0.1,0.4c0.1,0.1,0.3,0,0.3,0c0,0,0,0,0-0.1l0.6-1l0,0l0.6-0.2l2,2l-0.2,0.6c0,0,0,0,0,0l-1,0.6
				c-0.1,0.1-0.2,0.3-0.1,0.4c0.1,0.1,0.3,0.2,0.4,0.1l0.5-0.3L30.8,39c0,0.2,0,0.3,0.2,0.3c0.1,0,0.2,0,0.3-0.1
				c0,0,0.1-0.1,0.1-0.1l0.3-1.1l0.3,0.5c0.1,0.1,0.3,0.2,0.4,0.1c0,0,0,0,0.1,0c0.1-0.1,0.1-0.2,0-0.3l-0.6-1l0,0l0.1-0.5l2.7-0.7
				l0.4,0.4c0,0,0,0,0,0v1.1c0,0.2,0.1,0.3,0.3,0.3c0.1,0,0.2,0,0.2-0.1c0.1-0.1,0.1-0.1,0.1-0.2V37l0.8,0.8c0.1,0.1,0.3,0.1,0.4,0
				c0.1-0.1,0.1-0.3,0-0.4l-0.8-0.8h0.5c0.1,0,0.2,0,0.2-0.1c0.1-0.1,0.1-0.1,0.1-0.2c0-0.2-0.1-0.3-0.3-0.3l-1.1,0l0,0l-0.4-0.4
				l0.7-2.7l0.5-0.1c0,0,0,0,0,0l1,0.6c0.1,0.1,0.3,0,0.3,0c0,0,0,0,0-0.1c0.1-0.1,0-0.3-0.1-0.4l-0.5-0.3l1.1-0.3
				c0.1,0,0.1,0,0.1-0.1c0.1-0.1,0.1-0.2,0.1-0.3C38.4,31.8,38.2,31.7,38.1,31.8z M35,32.6L33,33.1l0.6-2.1L35,32.6z M33,30.9
				L32.4,33l-1.5-1.5L33,30.9z M30.5,31.9l1.5,1.5L30,33.9L30.5,31.9z M30.1,34.5l2.1-0.6L31.6,36L30.1,34.5z M32.2,36.1l0.6-2.1
				l1.5,1.5L32.2,36.1z M34.6,35.2l-1.5-1.5l2.1-0.6L34.6,35.2z"/>
		</g>
		<path fill="#B5EDF7" d="M38.1,31.8L37,32l0.3-0.5c0.1-0.1,0-0.3-0.1-0.4c-0.1-0.1-0.3,0-0.4,0.1l-0.6,1l0,0l-0.6,0.2l-2-2l0.1-0.6
			c0,0,0,0,0,0l1-0.6c0,0,0,0,0.1,0c0.1-0.1,0.1-0.2,0-0.3c-0.1-0.1-0.3-0.2-0.4-0.1l-0.5,0.3l0.3-1.1c0-0.2,0-0.3-0.2-0.4
			c-0.2,0-0.3,0-0.4,0.2L33.5,29l-0.3-0.5c-0.1-0.1-0.3-0.2-0.4-0.1c-0.1,0.1-0.2,0.3-0.1,0.4l0.6,1c0,0,0,0,0,0l-0.1,0.5L30.5,31
			l-0.4-0.4l0,0v-1.1c0-0.2-0.1-0.3-0.3-0.3c-0.2,0-0.3,0.1-0.3,0.3l0,0.5l-0.8-0.8c-0.1-0.1-0.3-0.1-0.4,0l0,0l8.6,8.6c0,0,0,0,0,0
			c0.1-0.1,0.1-0.3,0-0.4l-0.8-0.8h0.5c0.1,0,0.2,0,0.2-0.1c0.1-0.1,0.1-0.1,0.1-0.2c0-0.2-0.1-0.3-0.3-0.3l-1.1,0l0,0l-0.4-0.4
			l0.7-2.7l0.5-0.1c0,0,0,0,0,0l1,0.6c0.1,0.1,0.3,0,0.3,0c0,0,0,0,0-0.1c0.1-0.1,0-0.3-0.1-0.4l-0.5-0.3l1.1-0.3
			c0.1,0,0.1,0,0.1-0.1c0.1-0.1,0.1-0.2,0.1-0.3C38.4,31.8,38.2,31.7,38.1,31.8z M30.9,31.5l2.1-0.6L32.4,33L30.9,31.5z M34.6,35.2
			l-1.5-1.5l2.1-0.6L34.6,35.2z M35,32.6L33,33.1l0.6-2.1L35,32.6z"/>
	</g>
	<g>
		<g>
			<path fill="#C7F4FF" d="M50.2,37.3l-0.8-0.4l0.4-0.1c0.1,0,0.2-0.2,0.2-0.3c0-0.1-0.2-0.2-0.3-0.2l-0.8,0.2h0l-0.4-0.2l0-2.2
				l0.4-0.2h0l0.8,0.2c0,0,0,0,0.1,0c0.1,0,0.2-0.1,0.2-0.2c0-0.1,0-0.2-0.2-0.3l-0.4-0.1l0.8-0.4c0.1-0.1,0.1-0.2,0.1-0.3
				c-0.1-0.1-0.2-0.1-0.3-0.1l-0.8,0.4l0.1-0.4c0-0.1,0-0.2-0.2-0.3c-0.1,0-0.2,0-0.3,0.2l-0.2,0.8v0l-0.4,0.2l-1.9-1.1v-0.4l0,0
				l0.6-0.6c0.1-0.1,0.1-0.2,0-0.3c-0.1-0.1-0.2-0.1-0.3,0l-0.3,0.3v-0.9c0-0.1-0.1-0.2-0.2-0.2c-0.1,0-0.2,0.1-0.2,0.2v0.9
				l-0.3-0.3c-0.1-0.1-0.2-0.1-0.3,0c-0.1,0.1-0.1,0.2,0,0.3l0.6,0.6c0,0,0,0,0,0v0.4L44,33.8l-0.4-0.2v0l-0.2-0.8
				c0-0.1-0.2-0.2-0.3-0.2c-0.1,0-0.2,0.2-0.2,0.3l0.1,0.4l-0.8-0.4c-0.1-0.1-0.2,0-0.3,0.1c-0.1,0.1,0,0.2,0.1,0.3l0.8,0.4
				l-0.4,0.1c-0.1,0-0.2,0.2-0.2,0.3c0,0.1,0.1,0.2,0.2,0.2c0,0,0,0,0.1,0l0.8-0.2l0,0l0.4,0.2l0,2.2l-0.4,0.2h0l-0.8-0.2
				c-0.1,0-0.2,0-0.3,0.2c0,0.1,0,0.2,0.2,0.3l0.4,0.1l-0.8,0.4C42,37.4,42,37.5,42,37.6c0,0.1,0.1,0.1,0.2,0.1c0,0,0.1,0,0.1,0
				l0.8-0.4L43,37.7c0,0.1,0,0.2,0.2,0.3c0,0,0,0,0.1,0c0.1,0,0.2-0.1,0.2-0.2l0.2-0.8v0l0.4-0.2l1.9,1.1v0.4c0,0,0,0,0,0l-0.6,0.6
				c-0.1,0.1-0.1,0.2,0,0.3c0,0,0.1,0.1,0.2,0.1c0.1,0,0.1,0,0.2-0.1l0.3-0.3v0.9c0,0.1,0.1,0.2,0.2,0.2c0.1,0,0.2-0.1,0.2-0.2v-0.9
				l0.3,0.3c0,0,0.1,0.1,0.2,0.1c0.1,0,0.1,0,0.2-0.1c0.1-0.1,0.1-0.2,0-0.3l-0.6-0.6l0,0v-0.4l1.9-1.1l0.4,0.2c0,0,0,0,0,0l0.2,0.8
				c0,0.1,0.1,0.2,0.2,0.2c0,0,0,0,0.1,0c0.1,0,0.2-0.2,0.2-0.3l-0.1-0.4l0.8,0.4c0,0,0.1,0,0.1,0c0.1,0,0.2,0,0.2-0.1
				C50.4,37.5,50.3,37.4,50.2,37.3z M48.1,36.1l-1.5-0.8l1.5-0.8L48.1,36.1z M47.8,34l-1.5,0.8v-1.7L47.8,34z M45.9,33.2v1.7
				L44.5,34L45.9,33.2z M44.3,34.4l1.5,0.8l-1.5,0.8L44.3,34.4z M44.5,36.5l1.5-0.8v1.7L44.5,36.5z M46.4,37.3v-1.7l1.5,0.8
				L46.4,37.3z"/>
		</g>
		<path fill="#B5EDF7" d="M50.2,37.3l-0.8-0.4l0.4-0.1c0.1,0,0.2-0.2,0.2-0.3c0-0.1-0.2-0.2-0.3-0.2l-0.8,0.2h0l-0.4-0.2l0-2.2
			l0.4-0.2h0l0.8,0.2c0,0,0,0,0.1,0c0.1,0,0.2-0.1,0.2-0.2c0-0.1,0-0.2-0.2-0.3l-0.4-0.1l0.8-0.4c0.1-0.1,0.1-0.2,0.1-0.3
			c-0.1-0.1-0.2-0.1-0.3-0.1l-0.8,0.4l0.1-0.4c0-0.1,0-0.2-0.2-0.3c-0.1,0-0.2,0-0.3,0.2l-0.2,0.8v0l-0.4,0.2l-1.9-1.1v-0.4l0,0
			l0.6-0.6c0.1-0.1,0.1-0.2,0-0.3c-0.1-0.1-0.2-0.1-0.3,0l-0.3,0.3v-0.9c0-0.1-0.1-0.2-0.2-0.2c0,0,0,0,0,0V40c0,0,0,0,0,0
			c0.1,0,0.2-0.1,0.2-0.2v-0.9l0.3,0.3c0,0,0.1,0.1,0.2,0.1c0.1,0,0.1,0,0.2-0.1c0.1-0.1,0.1-0.2,0-0.3l-0.6-0.6l0,0v-0.4l1.9-1.1
			l0.4,0.2c0,0,0,0,0,0l0.2,0.8c0,0.1,0.1,0.2,0.2,0.2c0,0,0,0,0.1,0c0.1,0,0.2-0.2,0.2-0.3l-0.1-0.4l0.8,0.4c0,0,0.1,0,0.1,0
			c0.1,0,0.2,0,0.2-0.1C50.4,37.5,50.3,37.4,50.2,37.3z M46.4,33.2l1.5,0.8l-1.5,0.8V33.2z M46.4,37.3v-1.7l1.5,0.8L46.4,37.3z
			 M48.1,36.1l-1.5-0.8l1.5-0.8L48.1,36.1z"/>
	</g>
	<g>
		<g>
			<path fill="#C7F4FF" d="M23.3,54.4l-0.2-0.6l0.3,0.2c0.1,0,0.2,0,0.2-0.1c0-0.1,0-0.2-0.1-0.2L23,53.3l0,0L22.9,53l1.1-1.1
				l0.3,0.1l0,0l0.3,0.6c0,0,0,0,0,0c0.1,0.1,0.1,0.1,0.2,0c0.1,0,0.1-0.1,0.1-0.2l-0.2-0.3l0.6,0.2c0.1,0,0.2,0,0.2-0.1
				c0-0.1,0-0.2-0.1-0.2l-0.6-0.2l0.3-0.2c0.1,0,0.1-0.1,0.1-0.2c0-0.1-0.1-0.1-0.2-0.1l-0.6,0.3c0,0,0,0,0,0l-0.3-0.1L23.7,50
				l0.2-0.2h0h0.6c0.1,0,0.2-0.1,0.2-0.2s-0.1-0.2-0.2-0.2l-0.3,0l0.5-0.5c0.1-0.1,0.1-0.2,0-0.2c-0.1-0.1-0.2-0.1-0.2,0L24,49.2
				l0-0.3c0-0.1-0.1-0.2-0.2-0.2c-0.1,0-0.2,0.1-0.2,0.2v0.6c0,0,0,0,0,0l-0.2,0.2l-1.6-0.4L21.8,49l0,0l0.3-0.6
				c0-0.1,0-0.2-0.1-0.2c-0.1,0-0.2,0-0.2,0.1l-0.2,0.3L21.5,48c0-0.1-0.1-0.1-0.2-0.1c-0.1,0-0.1,0.1-0.1,0.2l0.2,0.6l-0.3-0.2
				c-0.1,0-0.2,0-0.2,0.1c0,0.1,0,0.1,0,0.2c0,0,0,0,0,0l0.6,0.3l0,0l0.1,0.3l-1.1,1.1l-0.3-0.1l0,0l-0.3-0.6c0-0.1-0.1-0.1-0.2-0.1
				c-0.1,0-0.1,0.1-0.1,0.2l0.2,0.3l-0.6-0.2c-0.1,0-0.2,0-0.2,0.1c0,0.1,0,0.1,0,0.2c0,0,0,0,0.1,0l0.6,0.2l-0.3,0.2
				c-0.1,0-0.1,0.1-0.1,0.2c0,0,0,0,0,0c0.1,0.1,0.1,0.1,0.2,0l0.6-0.3l0,0l0.3,0.1l0.4,1.6l-0.2,0.2l0,0h-0.6
				c-0.1,0-0.2,0.1-0.2,0.2c0,0,0,0.1,0,0.1c0,0,0.1,0,0.1,0l0.3,0l-0.5,0.5c-0.1,0.1-0.1,0.2,0,0.2s0.2,0.1,0.2,0l0.5-0.5v0.3
				c0,0,0,0.1,0,0.1c0,0,0.1,0,0.1,0c0.1,0,0.2-0.1,0.2-0.2l0-0.6l0,0l0.2-0.2l1.6,0.4l0.1,0.3l0,0L22.3,54c0,0.1,0,0.1,0,0.2
				c0,0,0,0,0,0c0.1,0,0.2,0,0.2-0.1l0.2-0.3l0.2,0.6c0,0,0,0.1,0,0.1c0,0,0.1,0.1,0.2,0C23.2,54.6,23.3,54.5,23.3,54.4z M22.8,52.6
				l-0.3-1.2l1.2,0.3L22.8,52.6z M23.8,51.5l-1.2-0.3l0.9-0.9L23.8,51.5z M23.2,50l-0.9,0.9L22,49.7L23.2,50z M21.7,49.8L22,51
				l-1.2-0.3L21.7,49.8z M20.7,51l1.2,0.3l-0.9,0.9L20.7,51z M21.3,52.4l0.9-0.9l0.3,1.2L21.3,52.4z"/>
		</g>
		<path fill="#B5EDF7" d="M23.3,54.4l-0.2-0.6l0.3,0.2c0.1,0,0.2,0,0.2-0.1c0-0.1,0-0.2-0.1-0.2L23,53.3l0,0L22.9,53l1.1-1.1
			l0.3,0.1l0,0l0.3,0.6c0,0,0,0,0,0c0.1,0.1,0.1,0.1,0.2,0c0.1,0,0.1-0.1,0.1-0.2l-0.2-0.3l0.6,0.2c0.1,0,0.2,0,0.2-0.1
			c0-0.1,0-0.2-0.1-0.2l-0.6-0.2l0.3-0.2c0.1,0,0.1-0.1,0.1-0.2c0-0.1-0.1-0.1-0.2-0.1l-0.6,0.3c0,0,0,0,0,0l-0.3-0.1L23.7,50
			l0.2-0.2h0h0.6c0.1,0,0.2-0.1,0.2-0.2s-0.1-0.2-0.2-0.2l-0.3,0l0.5-0.5c0.1-0.1,0.1-0.2,0-0.2c0,0,0,0,0,0l-4.9,4.9l0,0
			c0.1,0.1,0.2,0.1,0.2,0l0.5-0.5v0.3c0,0,0,0.1,0,0.1c0,0,0.1,0,0.1,0c0.1,0,0.2-0.1,0.2-0.2l0-0.6l0,0l0.2-0.2l1.6,0.4l0.1,0.3
			l0,0L22.3,54c0,0.1,0,0.1,0,0.2c0,0,0,0,0,0c0.1,0,0.2,0,0.2-0.1l0.2-0.3l0.2,0.6c0,0,0,0.1,0,0.1c0,0,0.1,0.1,0.2,0
			C23.2,54.6,23.3,54.5,23.3,54.4z M23.4,50.3l0.3,1.2l-1.2-0.3L23.4,50.3z M21.3,52.4l0.9-0.9l0.3,1.2L21.3,52.4z M22.8,52.6
			l-0.3-1.2l1.2,0.3L22.8,52.6z"/>
	</g>
	<g>
		<g>
			<path fill="#C7F4FF" d="M32.8,49.7l-0.2-0.6l0.3,0.2c0.1,0,0.2,0,0.2-0.1c0-0.1,0-0.2-0.1-0.2l-0.6-0.3l0,0l-0.1-0.3l1.1-1.1
				l0.3,0.1l0,0l0.3,0.6c0,0,0,0,0,0c0.1,0.1,0.1,0.1,0.2,0c0.1,0,0.1-0.1,0.1-0.2l-0.2-0.3l0.6,0.2c0.1,0,0.2,0,0.2-0.1
				c0-0.1,0-0.2-0.1-0.2l-0.6-0.2l0.3-0.2c0.1,0,0.1-0.1,0.1-0.2c0-0.1-0.1-0.1-0.2-0.1L33.9,47l0,0l-0.3-0.1l-0.4-1.6l0.2-0.2h0
				h0.6c0.1,0,0.2-0.1,0.2-0.2c0-0.1-0.1-0.2-0.2-0.2l-0.3,0l0.5-0.5c0.1-0.1,0.1-0.2,0-0.2C34.2,44,34,44,34,44.1l-0.5,0.5v-0.3
				c0-0.1-0.1-0.2-0.2-0.2c-0.1,0-0.2,0.1-0.2,0.2v0.6c0,0,0,0,0,0L33,45.1l-1.6-0.4l-0.1-0.3l0,0l0.3-0.6c0-0.1,0-0.2-0.1-0.2
				s-0.2,0-0.2,0.1l-0.2,0.3L31,43.3c0-0.1-0.1-0.1-0.2-0.1c-0.1,0-0.1,0.1-0.1,0.2l0.2,0.6l-0.3-0.2c-0.1,0-0.2,0-0.2,0.1
				c0,0.1,0,0.1,0,0.2c0,0,0,0,0,0l0.6,0.3l0,0l0.1,0.3L30,45.9l-0.3-0.1l0,0l-0.3-0.6c0-0.1-0.1-0.1-0.2-0.1
				c-0.1,0-0.1,0.1-0.1,0.2l0.2,0.3l-0.6-0.2c-0.1,0-0.2,0-0.2,0.1c0,0.1,0,0.1,0,0.2c0,0,0,0,0.1,0l0.6,0.2l-0.3,0.2
				c-0.1,0-0.1,0.1-0.1,0.2c0,0,0,0,0,0c0,0.1,0.1,0.1,0.2,0l0.6-0.3l0,0l0.3,0.1l0.4,1.6L30.1,48c0,0,0,0,0,0h-0.6
				c-0.1,0-0.2,0.1-0.2,0.2c0,0,0,0.1,0,0.1c0,0,0.1,0,0.1,0l0.3,0l-0.5,0.5c-0.1,0.1-0.1,0.2,0,0.2c0.1,0.1,0.2,0.1,0.2,0l0.5-0.5
				v0.3c0,0,0,0.1,0,0.1c0,0,0.1,0,0.1,0c0.1,0,0.2-0.1,0.2-0.2l0-0.6l0,0l0.2-0.2l1.6,0.4l0.1,0.3l0,0l-0.3,0.6c0,0.1,0,0.1,0,0.2
				c0,0,0,0,0,0c0.1,0,0.2,0,0.2-0.1l0.2-0.3l0.2,0.6c0,0,0,0.1,0,0.1c0,0,0.1,0.1,0.2,0C32.7,49.9,32.8,49.8,32.8,49.7z M32.3,48
				L32,46.8l1.2,0.3L32.3,48z M33.3,46.8l-1.2-0.3l0.9-0.9L33.3,46.8z M32.7,45.4l-0.9,0.9l-0.3-1.2L32.7,45.4z M31.2,45.1l0.3,1.2
				L30.3,46L31.2,45.1z M30.2,46.3l1.2,0.3l-0.9,0.9L30.2,46.3z M30.8,47.7l0.9-0.9l0.3,1.2L30.8,47.7z"/>
		</g>
		<path fill="#B5EDF7" d="M32.8,49.7l-0.2-0.6l0.3,0.2c0.1,0,0.2,0,0.2-0.1c0-0.1,0-0.2-0.1-0.2l-0.6-0.3l0,0l-0.1-0.3l1.1-1.1
			l0.3,0.1l0,0l0.3,0.6c0,0,0,0,0,0c0.1,0.1,0.1,0.1,0.2,0c0.1,0,0.1-0.1,0.1-0.2l-0.2-0.3l0.6,0.2c0.1,0,0.2,0,0.2-0.1
			c0-0.1,0-0.2-0.1-0.2l-0.6-0.2l0.3-0.2c0.1,0,0.1-0.1,0.1-0.2c0-0.1-0.1-0.1-0.2-0.1L33.9,47l0,0l-0.3-0.1l-0.4-1.6l0.2-0.2h0h0.6
			c0.1,0,0.2-0.1,0.2-0.2c0-0.1-0.1-0.2-0.2-0.2l-0.3,0l0.5-0.5c0.1-0.1,0.1-0.2,0-0.2l0,0L29.3,49l0,0c0.1,0.1,0.2,0.1,0.2,0
			l0.5-0.5v0.3c0,0,0,0.1,0,0.1c0,0,0.1,0,0.1,0c0.1,0,0.2-0.1,0.2-0.2l0-0.6l0,0l0.2-0.2l1.6,0.4l0.1,0.3l0,0l-0.3,0.6
			c0,0.1,0,0.1,0,0.2c0,0,0,0,0,0c0.1,0,0.2,0,0.2-0.1l0.2-0.3l0.2,0.6c0,0,0,0.1,0,0.1c0,0,0.1,0.1,0.2,0
			C32.7,49.9,32.8,49.8,32.8,49.7z M32.9,45.6l0.3,1.2l-1.2-0.3L32.9,45.6z M30.8,47.7l0.9-0.9l0.3,1.2L30.8,47.7z M32.3,48L32,46.8
			l1.2,0.3L32.3,48z"/>
	</g>
	<g>
		<g>
			<path fill="#C7F4FF" d="M42.6,49.3l0.3-0.5l0.1,0.3c0,0.1,0.1,0.1,0.2,0.1c0.1,0,0.1-0.1,0.1-0.2l-0.2-0.6v0l0.2-0.3l1.5,0
				l0.2,0.3v0L44.7,49c0,0,0,0,0,0c0,0.1,0,0.1,0.1,0.1c0.1,0,0.2,0,0.2-0.1l0.1-0.3l0.3,0.5c0,0.1,0.1,0.1,0.2,0.1
				c0.1,0,0.1-0.1,0.1-0.2l-0.3-0.5l0.3,0.1c0.1,0,0.2,0,0.2-0.1s0-0.2-0.1-0.2l-0.6-0.2c0,0,0,0,0,0L45,48l0.7-1.3l0.3,0l0,0
				l0.4,0.4c0.1,0.1,0.2,0.1,0.2,0c0.1-0.1,0.1-0.2,0-0.2l-0.2-0.2H47c0.1,0,0.2-0.1,0.2-0.2c0-0.1-0.1-0.2-0.2-0.2h-0.6l0.2-0.2
				c0.1-0.1,0.1-0.2,0-0.2c-0.1-0.1-0.2-0.1-0.2,0L46,46.4c0,0,0,0,0,0l-0.3,0L45,45.2l0.2-0.3h0l0.6-0.2c0.1,0,0.1-0.1,0.1-0.2
				c0-0.1-0.1-0.1-0.2-0.1l-0.3,0.1l0.3-0.5c0-0.1,0-0.2-0.1-0.2c-0.1,0-0.2,0-0.2,0.1l-0.3,0.5L45,44.1c0-0.1-0.1-0.1-0.2-0.1
				c-0.1,0-0.1,0.1-0.1,0.1c0,0,0,0,0,0l0.2,0.6v0L44.7,45l-1.5,0l-0.1-0.3c0,0,0,0,0,0l0.2-0.6c0-0.1,0-0.2-0.1-0.2
				c-0.1,0-0.2,0-0.2,0.1l-0.1,0.3l-0.3-0.5c0-0.1-0.1-0.1-0.2-0.1c0,0-0.1,0.1-0.1,0.1c0,0,0,0.1,0,0.1l0.3,0.5l-0.3-0.1
				c-0.1,0-0.2,0-0.2,0.1c0,0,0,0,0,0c0,0.1,0,0.1,0.1,0.1l0.6,0.2h0l0.2,0.3l-0.7,1.3l-0.3,0c0,0,0,0,0,0L41.5,46
				c-0.1-0.1-0.2-0.1-0.2,0c0,0,0,0.1,0,0.1c0,0,0,0.1,0,0.1l0.2,0.2l-0.6,0c-0.1,0-0.2,0.1-0.2,0.2c0,0.1,0.1,0.2,0.2,0.2h0.6
				L41.3,47c0,0,0,0.1,0,0.1c0,0,0,0.1,0,0.1c0.1,0.1,0.2,0.1,0.2,0l0.4-0.4v0h0.3L43,48l-0.2,0.3c0,0,0,0,0,0l-0.6,0.2
				c-0.1,0-0.1,0.1-0.1,0.1c0,0,0,0,0,0c0,0.1,0.1,0.1,0.2,0.1l0.3-0.1l-0.3,0.5c0,0,0,0,0,0.1c0,0.1,0,0.1,0.1,0.1
				C42.4,49.4,42.5,49.4,42.6,49.3z M43.4,47.9l0.6-1l0.6,1L43.4,47.9z M44.8,47.7l-0.6-1h1.1L44.8,47.7z M45.4,46.4l-1.1,0l0.6-1
				L45.4,46.4z M44.5,45.3l-0.6,1l-0.6-1H44.5z M43.2,45.5l0.6,1l-1.1,0L43.2,45.5z M42.6,46.7h1.1l-0.6,1L42.6,46.7z"/>
		</g>
		<path fill="#B5EDF7" d="M42.6,49.3l0.3-0.5l0.1,0.3c0,0.1,0.1,0.1,0.2,0.1c0.1,0,0.1-0.1,0.1-0.2l-0.2-0.6v0l0.2-0.3l1.5,0
			l0.2,0.3v0L44.7,49c0,0,0,0,0,0c0,0.1,0,0.1,0.1,0.1c0.1,0,0.2,0,0.2-0.1l0.1-0.3l0.3,0.5c0,0.1,0.1,0.1,0.2,0.1
			c0.1,0,0.1-0.1,0.1-0.2l-0.3-0.5l0.3,0.1c0.1,0,0.2,0,0.2-0.1s0-0.2-0.1-0.2l-0.6-0.2c0,0,0,0,0,0L45,48l0.7-1.3l0.3,0l0,0
			l0.4,0.4c0.1,0.1,0.2,0.1,0.2,0c0.1-0.1,0.1-0.2,0-0.2l-0.2-0.2H47c0.1,0,0.2-0.1,0.2-0.2c0,0,0,0,0,0l-6.4,0c0,0,0,0,0,0
			c0,0.1,0.1,0.2,0.2,0.2h0.6L41.3,47c0,0,0,0.1,0,0.1c0,0,0,0.1,0,0.1c0.1,0.1,0.2,0.1,0.2,0l0.4-0.4v0h0.3L43,48l-0.2,0.3
			c0,0,0,0,0,0l-0.6,0.2c-0.1,0-0.1,0.1-0.1,0.1c0,0,0,0,0,0c0,0.1,0.1,0.1,0.2,0.1l0.3-0.1l-0.3,0.5c0,0,0,0,0,0.1
			c0,0.1,0,0.1,0.1,0.1C42.4,49.4,42.5,49.4,42.6,49.3z M45.4,46.7l-0.6,1l-0.6-1H45.4z M42.6,46.7h1.1l-0.6,1L42.6,46.7z
			 M43.4,47.9l0.6-1l0.6,1L43.4,47.9z"/>
	</g>
	<circle fill="#C7F4FF" cx="28.2" cy="40.2" r="0.4"/>
	<circle fill="#C7F4FF" cx="36.7" cy="42.7" r="1.2"/>
	<circle fill="#C7F4FF" cx="39.9" cy="39.2" r="0.6"/>
	<circle fill="#C7F4FF" cx="43.7" cy="40.2" r="0.4"/>
	<circle fill="#C7F4FF" cx="39.5" cy="35.8" r="0.8"/>
	<circle fill="#C7F4FF" cx="22.2" cy="31.7" r="0.4"/>
	<circle fill="#C7F4FF" cx="26.5" cy="46.8" r="0.3"/>
	<circle fill="#C7F4FF" cx="27.3" cy="50.8" r="0.5"/>
	<circle fill="#C7F4FF" cx="36.8" cy="51.5" r="1"/>
	<circle fill="#C7F4FF" cx="39.5" cy="47.3" r="0.7"/>
	<circle fill="#C7F4FF" cx="39.8" cy="42.8" r="0.2"/>
	<circle fill="#C7F4FF" cx="44.7" cy="42.6" r="0.2"/>
	<circle fill="#C7F4FF" cx="21.1" cy="45.9" r="0.2"/>
	<circle fill="#C7F4FF" cx="14.8" cy="48.6" r="0.3"/>
	<circle fill="#C7F4FF" cx="33.2" cy="41.7" r="0.6"/>
	<circle fill="#C7F4FF" cx="49.2" cy="43.3" r="0.7"/>
	<circle fill="#C7F4FF" cx="13.7" cy="29.6" r="0.8"/>
</g>
</svg>
