<?xml version="1.0" encoding="utf-8"?>
<!-- Generator: Adobe Illustrator 16.0.0, SVG Export Plug-In . SVG Version: 6.00 Build 0)  -->
<!DOCTYPE svg PUBLIC "-//W3C//DTD SVG 1.1//EN" "http://www.w3.org/Graphics/SVG/1.1/DTD/svg11.dtd">
<svg version="1.1" xmlns="http://www.w3.org/2000/svg" xmlns:xlink="http://www.w3.org/1999/xlink" x="0px" y="0px" width="65px"
	 height="65px" viewBox="0 0 65 65" enable-background="new 0 0 65 65" xml:space="preserve">
<g id="Layer_1">
	<g>
		<g>
			<g>
				<g>
					<g>
						<g>
							<g>
								<line fill="#15ED0F" x1="8.339" y1="4.181" x2="8.339" y2="10.499"/>
							</g>
							<g>
								<path fill="#114935" d="M8.339,12.999c-1.381,0-2.5-1.119-2.5-2.5V4.181c0-1.381,1.119-2.5,2.5-2.5s2.5,1.119,2.5,2.5v6.318
									C10.839,11.88,9.72,12.999,8.339,12.999z"/>
							</g>
						</g>
						<g>
							<g>
								<polyline fill="#15ED0F" points="8.339,10.61 32.481,10.61 32.481,16.929 								"/>
							</g>
							<g>
								<path fill="#114935" d="M32.481,19.429c-1.381,0-2.5-1.119-2.5-2.5V13.11H8.339c-1.381,0-2.5-1.119-2.5-2.5
									s1.119-2.5,2.5-2.5h24.143c1.381,0,2.5,1.119,2.5,2.5v6.318C34.981,18.31,33.862,19.429,32.481,19.429z"/>
							</g>
						</g>
					</g>
				</g>
				<g>
					<g>
						<g>
							<g>
								<line fill="#15ED0F" x1="56.661" y1="4.181" x2="56.661" y2="10.499"/>
							</g>
							<g>
								<path fill="#114935" d="M56.661,12.999c-1.381,0-2.5-1.119-2.5-2.5V4.181c0-1.381,1.119-2.5,2.5-2.5s2.5,1.119,2.5,2.5
									v6.318C59.161,11.88,58.042,12.999,56.661,12.999z"/>
							</g>
						</g>
						<g>
							<g>
								<polyline fill="#15ED0F" points="56.661,10.61 32.519,10.61 32.519,16.929 								"/>
							</g>
							<g>
								<path fill="#114935" d="M32.519,19.429c-1.381,0-2.5-1.119-2.5-2.5V10.61c0-1.381,1.119-2.5,2.5-2.5h24.143
									c1.381,0,2.5,1.119,2.5,2.5s-1.119,2.5-2.5,2.5H35.019v3.818C35.019,18.31,33.899,19.429,32.519,19.429z"/>
							</g>
						</g>
					</g>
				</g>
			</g>
			<g>
				<g>
					<g>
						<g>
							<g>
								<line fill="#15ED0F" x1="8.339" y1="11.943" x2="8.339" y2="18.262"/>
							</g>
							<g>
								<path fill="#114935" d="M8.339,20.762c-1.381,0-2.5-1.119-2.5-2.5v-6.318c0-1.381,1.119-2.5,2.5-2.5s2.5,1.119,2.5,2.5
									v6.318C10.839,19.643,9.72,20.762,8.339,20.762z"/>
							</g>
						</g>
						<g>
							<g>
								<polyline fill="#15ED0F" points="8.339,18.372 32.481,18.372 32.481,24.69 								"/>
							</g>
							<g>
								<path fill="#114935" d="M32.481,27.19c-1.381,0-2.5-1.119-2.5-2.5v-3.818H8.339c-1.381,0-2.5-1.119-2.5-2.5
									s1.119-2.5,2.5-2.5h24.143c1.381,0,2.5,1.119,2.5,2.5v6.318C34.981,26.071,33.862,27.19,32.481,27.19z"/>
							</g>
						</g>
					</g>
				</g>
				<g>
					<g>
						<g>
							<g>
								<line fill="#15ED0F" x1="56.661" y1="11.943" x2="56.661" y2="18.262"/>
							</g>
							<g>
								<path fill="#114935" d="M56.661,20.762c-1.381,0-2.5-1.119-2.5-2.5v-6.318c0-1.381,1.119-2.5,2.5-2.5s2.5,1.119,2.5,2.5
									v6.318C59.161,19.643,58.042,20.762,56.661,20.762z"/>
							</g>
						</g>
						<g>
							<g>
								<polyline fill="#15ED0F" points="56.661,18.372 32.519,18.372 32.519,24.69 								"/>
							</g>
							<g>
								<path fill="#114935" d="M32.519,27.19c-1.381,0-2.5-1.119-2.5-2.5v-6.318c0-1.381,1.119-2.5,2.5-2.5h24.143
									c1.381,0,2.5,1.119,2.5,2.5s-1.119,2.5-2.5,2.5H35.019v3.818C35.019,26.071,33.899,27.19,32.519,27.19z"/>
							</g>
						</g>
					</g>
				</g>
			</g>
			<g>
				<g>
					<g>
						<g>
							<g>
								<line fill="#15ED0F" x1="8.339" y1="19.705" x2="8.339" y2="26.024"/>
							</g>
							<g>
								<path fill="#114935" d="M8.339,28.524c-1.381,0-2.5-1.119-2.5-2.5v-6.319c0-1.381,1.119-2.5,2.5-2.5s2.5,1.119,2.5,2.5
									v6.319C10.839,27.405,9.72,28.524,8.339,28.524z"/>
							</g>
						</g>
						<g>
							<g>
								<polyline fill="#15ED0F" points="8.339,26.135 32.481,26.135 32.481,32.453 								"/>
							</g>
							<g>
								<path fill="#114935" d="M32.481,34.953c-1.381,0-2.5-1.119-2.5-2.5v-3.818H8.339c-1.381,0-2.5-1.119-2.5-2.5
									s1.119-2.5,2.5-2.5h24.143c1.381,0,2.5,1.119,2.5,2.5v6.318C34.981,33.834,33.862,34.953,32.481,34.953z"/>
							</g>
						</g>
					</g>
				</g>
				<g>
					<g>
						<g>
							<g>
								<line fill="#15ED0F" x1="56.661" y1="19.705" x2="56.661" y2="26.024"/>
							</g>
							<g>
								<path fill="#114935" d="M56.661,28.524c-1.381,0-2.5-1.119-2.5-2.5v-6.319c0-1.381,1.119-2.5,2.5-2.5s2.5,1.119,2.5,2.5
									v6.319C59.161,27.405,58.042,28.524,56.661,28.524z"/>
							</g>
						</g>
						<g>
							<g>
								<polyline fill="#15ED0F" points="56.661,26.135 32.519,26.135 32.519,32.453 								"/>
							</g>
							<g>
								<path fill="#114935" d="M32.519,34.953c-1.381,0-2.5-1.119-2.5-2.5v-6.318c0-1.381,1.119-2.5,2.5-2.5h24.143
									c1.381,0,2.5,1.119,2.5,2.5s-1.119,2.5-2.5,2.5H35.019v3.818C35.019,33.834,33.899,34.953,32.519,34.953z"/>
							</g>
						</g>
					</g>
				</g>
			</g>
		</g>
		<g>
			<g>
				<g>
					<g>
						<g>
							<g>
								<line fill="#15ED0F" x1="56.661" y1="60.819" x2="56.661" y2="54.501"/>
							</g>
							<g>
								<path fill="#114935" d="M56.661,63.319c-1.381,0-2.5-1.119-2.5-2.5v-6.318c0-1.381,1.119-2.5,2.5-2.5s2.5,1.119,2.5,2.5
									v6.318C59.161,62.2,58.042,63.319,56.661,63.319z"/>
							</g>
						</g>
						<g>
							<g>
								<polyline fill="#15ED0F" points="56.661,54.39 32.519,54.39 32.519,48.071 								"/>
							</g>
							<g>
								<path fill="#114935" d="M56.661,56.89H32.519c-1.381,0-2.5-1.119-2.5-2.5v-6.318c0-1.381,1.119-2.5,2.5-2.5
									s2.5,1.119,2.5,2.5v3.818h21.643c1.381,0,2.5,1.119,2.5,2.5S58.042,56.89,56.661,56.89z"/>
							</g>
						</g>
					</g>
				</g>
				<g>
					<g>
						<g>
							<g>
								<line fill="#15ED0F" x1="8.339" y1="60.819" x2="8.339" y2="54.501"/>
							</g>
							<g>
								<path fill="#114935" d="M8.339,63.319c-1.381,0-2.5-1.119-2.5-2.5v-6.318c0-1.381,1.119-2.5,2.5-2.5s2.5,1.119,2.5,2.5
									v6.318C10.839,62.2,9.72,63.319,8.339,63.319z"/>
							</g>
						</g>
						<g>
							<g>
								<polyline fill="#15ED0F" points="8.339,54.39 32.481,54.39 32.481,48.071 								"/>
							</g>
							<g>
								<path fill="#114935" d="M32.481,56.89H8.339c-1.381,0-2.5-1.119-2.5-2.5s1.119-2.5,2.5-2.5h21.643v-3.818
									c0-1.381,1.119-2.5,2.5-2.5s2.5,1.119,2.5,2.5v6.318C34.981,55.771,33.862,56.89,32.481,56.89z"/>
							</g>
						</g>
					</g>
				</g>
			</g>
			<g>
				<g>
					<g>
						<g>
							<g>
								<line fill="#15ED0F" x1="56.661" y1="53.058" x2="56.661" y2="46.739"/>
							</g>
							<g>
								<path fill="#114935" d="M56.661,55.558c-1.381,0-2.5-1.119-2.5-2.5v-6.318c0-1.381,1.119-2.5,2.5-2.5s2.5,1.119,2.5,2.5
									v6.318C59.161,54.438,58.042,55.558,56.661,55.558z"/>
							</g>
						</g>
						<g>
							<g>
								<polyline fill="#15ED0F" points="56.661,46.628 32.519,46.628 32.519,40.31 								"/>
							</g>
							<g>
								<path fill="#114935" d="M56.661,49.128H32.519c-1.381,0-2.5-1.119-2.5-2.5V40.31c0-1.381,1.119-2.5,2.5-2.5
									s2.5,1.119,2.5,2.5v3.818h21.643c1.381,0,2.5,1.119,2.5,2.5S58.042,49.128,56.661,49.128z"/>
							</g>
						</g>
					</g>
				</g>
				<g>
					<g>
						<g>
							<g>
								<line fill="#15ED0F" x1="8.339" y1="53.058" x2="8.339" y2="46.739"/>
							</g>
							<g>
								<path fill="#114935" d="M8.339,55.558c-1.381,0-2.5-1.119-2.5-2.5v-6.318c0-1.381,1.119-2.5,2.5-2.5s2.5,1.119,2.5,2.5
									v6.318C10.839,54.438,9.72,55.558,8.339,55.558z"/>
							</g>
						</g>
						<g>
							<g>
								<polyline fill="#15ED0F" points="8.339,46.628 32.481,46.628 32.481,40.31 								"/>
							</g>
							<g>
								<path fill="#114935" d="M32.481,49.128H8.339c-1.381,0-2.5-1.119-2.5-2.5s1.119-2.5,2.5-2.5h21.643V40.31
									c0-1.381,1.119-2.5,2.5-2.5s2.5,1.119,2.5,2.5v6.318C34.981,48.009,33.862,49.128,32.481,49.128z"/>
							</g>
						</g>
					</g>
				</g>
			</g>
			<g>
				<g>
					<g>
						<g>
							<g>
								<line fill="#15ED0F" x1="56.661" y1="45.295" x2="56.661" y2="38.976"/>
							</g>
							<g>
								<path fill="#114935" d="M56.661,47.795c-1.381,0-2.5-1.119-2.5-2.5v-6.319c0-1.381,1.119-2.5,2.5-2.5s2.5,1.119,2.5,2.5
									v6.319C59.161,46.676,58.042,47.795,56.661,47.795z"/>
							</g>
						</g>
						<g>
							<g>
								<polyline fill="#15ED0F" points="56.661,38.865 32.519,38.865 32.519,32.548 								"/>
							</g>
							<g>
								<path fill="#114935" d="M56.661,41.365H32.519c-1.381,0-2.5-1.119-2.5-2.5v-6.317c0-1.381,1.119-2.5,2.5-2.5
									s2.5,1.119,2.5,2.5v3.817h21.643c1.381,0,2.5,1.119,2.5,2.5S58.042,41.365,56.661,41.365z"/>
							</g>
						</g>
					</g>
				</g>
				<g>
					<g>
						<g>
							<g>
								<line fill="#15ED0F" x1="8.339" y1="45.295" x2="8.339" y2="38.976"/>
							</g>
							<g>
								<path fill="#114935" d="M8.339,47.795c-1.381,0-2.5-1.119-2.5-2.5v-6.319c0-1.381,1.119-2.5,2.5-2.5s2.5,1.119,2.5,2.5
									v6.319C10.839,46.676,9.72,47.795,8.339,47.795z"/>
							</g>
						</g>
						<g>
							<g>
								<polyline fill="#15ED0F" points="8.339,38.865 32.481,38.865 32.481,32.548 								"/>
							</g>
							<g>
								<path fill="#114935" d="M32.481,41.365H8.339c-1.381,0-2.5-1.119-2.5-2.5s1.119-2.5,2.5-2.5h21.643v-3.817
									c0-1.381,1.119-2.5,2.5-2.5s2.5,1.119,2.5,2.5v6.317C34.981,40.246,33.862,41.365,32.481,41.365z"/>
							</g>
						</g>
					</g>
				</g>
			</g>
		</g>
	</g>
</g>
<g id="nyt_x5F_exporter_x5F_info" display="none">
</g>
</svg>
