<?xml version="1.0" encoding="utf-8"?>
<!-- Generator: Adobe Illustrator 16.0.0, SVG Export Plug-In . SVG Version: 6.00 Build 0)  -->
<!DOCTYPE svg PUBLIC "-//W3C//DTD SVG 1.1//EN" "http://www.w3.org/Graphics/SVG/1.1/DTD/svg11.dtd">
<svg version="1.1" id="Layer_1" xmlns="http://www.w3.org/2000/svg" xmlns:xlink="http://www.w3.org/1999/xlink" x="0px" y="0px"
	 width="64px" height="64px" viewBox="0 0 64 64" enable-background="new 0 0 64 64" xml:space="preserve">
<g>
	<g>
		<g>
			<path fill="#C3D7DD" d="M58.4,47.6c-0.1,0-0.2,0-0.2-0.1L57.3,47c-0.2-0.1-0.3-0.4-0.2-0.7c0.1-0.2,0.4-0.3,0.7-0.2l0.8,0.5
				c0.2,0.1,0.3,0.4,0.2,0.7C58.7,47.5,58.5,47.6,58.4,47.6z M5.6,47.6c-0.2,0-0.3-0.1-0.4-0.2c-0.1-0.2-0.1-0.5,0.2-0.7l1.7-1
				c0.2-0.1,0.5-0.1,0.7,0.2c0.1,0.2,0.1,0.5-0.2,0.7l-1.7,1C5.8,47.5,5.7,47.6,5.6,47.6z M55.9,46.1c-0.1,0-0.2,0-0.2-0.1l-1.7-1
				c-0.2-0.1-0.3-0.4-0.2-0.7c0.1-0.2,0.4-0.3,0.7-0.2l1.7,1c0.2,0.1,0.3,0.4,0.2,0.7C56.2,46,56,46.1,55.9,46.1z M9.1,45.6
				c-0.2,0-0.3-0.1-0.4-0.2c-0.1-0.2-0.1-0.5,0.2-0.7l1.7-1c0.2-0.1,0.5-0.1,0.7,0.2s0.1,0.5-0.2,0.7l-1.7,1
				C9.3,45.5,9.2,45.6,9.1,45.6z M52.4,44.1c-0.1,0-0.2,0-0.2-0.1l-1.7-1c-0.2-0.1-0.3-0.4-0.2-0.7c0.1-0.2,0.4-0.3,0.7-0.2l1.7,1
				c0.2,0.1,0.3,0.4,0.2,0.7C52.7,44,52.6,44.1,52.4,44.1z M12.6,43.6c-0.2,0-0.3-0.1-0.4-0.2c-0.1-0.2-0.1-0.5,0.2-0.7l1.7-1
				c0.2-0.1,0.5-0.1,0.7,0.2c0.1,0.2,0.1,0.5-0.2,0.7l-1.7,1C12.7,43.5,12.6,43.6,12.6,43.6z M48.9,42.1c-0.1,0-0.2,0-0.2-0.1
				l-1.7-1c-0.2-0.1-0.3-0.4-0.2-0.7c0.1-0.2,0.4-0.3,0.7-0.2l1.7,1c0.2,0.1,0.3,0.4,0.2,0.7C49.3,42,49.1,42.1,48.9,42.1z M16,41.6
				c-0.2,0-0.3-0.1-0.4-0.2c-0.1-0.2-0.1-0.5,0.2-0.7l1.7-1c0.2-0.1,0.5-0.1,0.7,0.2c0.1,0.2,0.1,0.5-0.2,0.7l-1.7,1
				C16.2,41.5,16.1,41.6,16,41.6z M45.5,40.1c-0.1,0-0.2,0-0.2-0.1l-1.7-1c-0.2-0.1-0.3-0.4-0.2-0.7c0.1-0.2,0.4-0.3,0.7-0.2l1.7,1
				c0.2,0.1,0.3,0.4,0.2,0.7C45.8,40,45.6,40.1,45.5,40.1z M19.5,39.6c-0.2,0-0.3-0.1-0.4-0.2c-0.1-0.2-0.1-0.5,0.2-0.7l1.7-1
				c0.2-0.1,0.5-0.1,0.7,0.2c0.1,0.2,0.1,0.5-0.2,0.7l-1.7,1C19.7,39.5,19.6,39.6,19.5,39.6z M42,38.1c-0.1,0-0.2,0-0.2-0.1L40,37
				c-0.2-0.1-0.3-0.4-0.2-0.7c0.1-0.2,0.4-0.3,0.7-0.2l1.7,1c0.2,0.1,0.3,0.4,0.2,0.7C42.3,38,42.2,38.1,42,38.1z M22.9,37.6
				c-0.2,0-0.3-0.1-0.4-0.2c-0.1-0.2-0.1-0.5,0.2-0.7l1.7-1c0.2-0.1,0.5-0.1,0.7,0.2c0.1,0.2,0.1,0.5-0.2,0.7l-1.7,1
				C23.1,37.5,23,37.6,22.9,37.6z M38.5,36.1c-0.1,0-0.2,0-0.2-0.1l-1.7-1c-0.2-0.1-0.3-0.4-0.2-0.7c0.1-0.2,0.4-0.3,0.7-0.2l1.7,1
				c0.2,0.1,0.3,0.4,0.2,0.7C38.9,36,38.7,36.1,38.5,36.1z M26.4,35.6c-0.2,0-0.3-0.1-0.4-0.2c-0.1-0.2-0.1-0.5,0.2-0.7l1.7-1
				c0.2-0.1,0.5-0.1,0.7,0.2c0.1,0.2,0.1,0.5-0.2,0.7l-1.7,1C26.6,35.5,26.5,35.6,26.4,35.6z M35.1,34.1c-0.1,0-0.2,0-0.2-0.1
				l-1.7-1c-0.2-0.1-0.3-0.4-0.2-0.7c0.1-0.2,0.4-0.3,0.7-0.2l1.7,1c0.2,0.1,0.3,0.4,0.2,0.7C35.4,34,35.2,34.1,35.1,34.1z
				 M29.9,33.6c-0.2,0-0.3-0.1-0.4-0.2c-0.1-0.2-0.1-0.5,0.2-0.7l1.7-1c0.2-0.1,0.5-0.1,0.7,0.2c0.1,0.2,0.1,0.5-0.2,0.7l-1.7,1
				C30,33.5,30,33.6,29.9,33.6z"/>
		</g>
		<g>
			<path fill="#C3D7DD" d="M32.5,32.5c-0.3,0-0.5-0.2-0.5-0.5v-2c0-0.3,0.2-0.5,0.5-0.5c0.3,0,0.5,0.2,0.5,0.5v2
				C33,32.3,32.8,32.5,32.5,32.5z M32.5,28.5c-0.3,0-0.5-0.2-0.5-0.5v-2c0-0.3,0.2-0.5,0.5-0.5c0.3,0,0.5,0.2,0.5,0.5v2
				C33,28.3,32.8,28.5,32.5,28.5z M32.5,24.5c-0.3,0-0.5-0.2-0.5-0.5v-2c0-0.3,0.2-0.5,0.5-0.5c0.3,0,0.5,0.2,0.5,0.5v2
				C33,24.3,32.8,24.5,32.5,24.5z M32.5,20.5c-0.3,0-0.5-0.2-0.5-0.5v-2c0-0.3,0.2-0.5,0.5-0.5c0.3,0,0.5,0.2,0.5,0.5v2
				C33,20.3,32.8,20.5,32.5,20.5z M32.5,16.5c-0.3,0-0.5-0.2-0.5-0.5v-2c0-0.3,0.2-0.5,0.5-0.5c0.3,0,0.5,0.2,0.5,0.5v2
				C33,16.3,32.8,16.5,32.5,16.5z M32.5,12.5c-0.3,0-0.5-0.2-0.5-0.5v-2c0-0.3,0.2-0.5,0.5-0.5c0.3,0,0.5,0.2,0.5,0.5v2
				C33,12.3,32.8,12.5,32.5,12.5z M32.5,8.5C32.2,8.5,32,8.3,32,8V6c0-0.3,0.2-0.5,0.5-0.5C32.8,5.5,33,5.7,33,6v2
				C33,8.3,32.8,8.5,32.5,8.5z M32.5,4.5C32.2,4.5,32,4.3,32,4V2.1c0-0.3,0.2-0.5,0.5-0.5c0.3,0,0.5,0.2,0.5,0.5V4
				C33,4.3,32.8,4.5,32.5,4.5z"/>
		</g>
	</g>
	<g>
		<g>
			<g>
				<g>
					<path fill="#973FBC" d="M32,63.5c-0.2,0-0.3,0-0.5-0.1L5.3,48.1C5,47.9,5,47.6,5,47.2V16.8c0-0.4,0-0.7,0.3-0.9L31.6,0.7
						c0.3-0.2,0.6-0.2,1,0l26.2,15.2c0.3,0.2,0.3,0.5,0.3,0.9v30.5c0,0.4,0,0.7-0.3,0.9L32.4,63.3C32.3,63.4,32.2,63.5,32,63.5z
						 M7,46.7l25,14.7l25-14.7V17.3L32,2.7L7,17.3V46.7z"/>
				</g>
			</g>
		</g>
		<g>
			<g>
				<path fill="#973FBC" d="M32,32.9c-0.2,0-0.3,0-0.5-0.1L6.1,18.2c-0.5-0.3-1-1.2-0.7-1.6c0.3-0.5,1-0.5,1.5-0.3L32,30.8
					l25.3-14.6c0.5-0.3,1-0.1,1.3,0.3c0.3,0.5,0.2,1.1-0.3,1.4L32.5,32.8C32.3,32.9,32.2,32.9,32,32.9z"/>
			</g>
			<g>
				<path fill="#973FBC" d="M32,62.7c-0.6,0-1-0.4-1-1V31.8c0-0.6,0.4-1,1-1s1,0.4,1,1v29.9C33,62.2,32.6,62.7,32,62.7z"/>
			</g>
		</g>
	</g>
</g>
</svg>
