<?xml version="1.0" encoding="utf-8"?>
<!-- Generator: Adobe Illustrator 16.0.0, SVG Export Plug-In . SVG Version: 6.00 Build 0)  -->
<!DOCTYPE svg PUBLIC "-//W3C//DTD SVG 1.1//EN" "http://www.w3.org/Graphics/SVG/1.1/DTD/svg11.dtd">
<svg version="1.1" id="Layer_1" xmlns="http://www.w3.org/2000/svg" xmlns:xlink="http://www.w3.org/1999/xlink" x="0px" y="0px"
	 width="64px" height="64px" viewBox="0 0 64 64" enable-background="new 0 0 64 64" xml:space="preserve">
<g>
	<path fill="#F97906" d="M58,63v-7.2c0-5.5-4.4-9.8-9.9-9.8H15.9C10.4,46,6,50.2,6,55.8V63H58z"/>
	<polyline fill="#E57200" points="6,56 6,63 58,63 58,56 	"/>
	<ellipse fill="#F4BA38" cx="32" cy="47.8" rx="7.4" ry="6.6"/>
	<path fill="#5B5B5B" d="M40,45.5c0,4.3-3.5,7.5-7.8,7.5h-0.5c-4.3,0-7.8-3.2-7.8-7.5v-3.8c0-4.3,3.5-7.8,7.8-7.8h0.5
		c4.3,0,7.8,3.5,7.8,7.8V45.5z"/>
	<path fill="#3F3F3F" d="M32.1,33.6L32.1,33.6c4.3,0,7.9,3.5,7.9,7.8v4.2c0,4.3-3.5,7.5-7.8,7.5l0,0"/>
	<g>
		<path fill="#FFCC4D" d="M15,9.5c0,0.3-0.2,0.5-0.5,0.5l0,0C14.2,10,14,9.8,14,9.5v-8C14,1.2,14.2,1,14.5,1l0,0
			C14.8,1,15,1.2,15,1.5V9.5z"/>
		<path fill="#F4BA38" d="M14.5,1L14.5,1C14.9,1,15,1.1,15,1.5v7.3c0,0.4-0.2,0.6-0.6,0.6l0,0"/>
		<rect x="13" y="8" fill="#F29130" width="3" height="4"/>
		<polyline fill="#F97906" points="13,8 16,8 16,12 		"/>
		<g>
			<path fill="#0B6382" d="M18,17.9c0,1.2-0.9,2.1-2.1,2.1h-2.8c-1.2,0-2.1-0.9-2.1-2.1v-4.8c0-1.2,0.9-2.1,2.1-2.1h2.8
				c1.2,0,2.1,0.9,2.1,2.1V17.9z"/>
			<path fill="#00233F" d="M13,11h2.9c1.2,0,2.1,0.9,2.1,2.1v4.6c0,1.2-1.1,2.3-2.2,2.3H13"/>
		</g>
		<g>
			<path fill="#0B6382" d="M52,17.9c0,1.2-0.9,2.1-2.1,2.1h-2.8c-1.2,0-2.1-0.9-2.1-2.1v-4.8c0-1.2,0.9-2.1,2.1-2.1h2.8
				c1.2,0,2.1,0.9,2.1,2.1V17.9z"/>
			<path fill="#00233F" d="M48,11h2c1.2,0,2,1,2,2.2v4.5c0,1.2-0.8,2.3-2,2.3h-2"/>
		</g>
		<path fill="#F97906" d="M63,31c0,5.6-2.4,10-8,10H9c-5.6,0-8-4.3-8-10v-8.2C1,17.2,5.4,13,11.1,13h41.9c5.6,0,10.1,4.2,10.1,9.9
			V31z"/>
		<path fill="#F29130" d="M63,31c0,5.6-2.4,10-8,10H9c-5.6,0-8-4.3-8-10v-8.2C1,17.2,5.4,13,11.1,13h41.9c5.6,0,10.1,4.2,10.1,9.9
			V31z"/>
		<path fill="#F97906" d="M63,23v8c0,5.6-2.4,10-8,10H9c-5.6,0-8-4.3-8-10v-8"/>
		<path fill="#E57200" d="M63,30.9c0,5.6-2.4,10.1-8,10.1H9c-5.6,0-8-4.5-8-10.2"/>
		<g>
			<circle fill="#0B6382" cx="14.5" cy="26.7" r="10.2"/>
			<circle opacity="0.2" fill="#727272" cx="14.5" cy="27.8" r="10.2"/>
			<path fill="#00233F" d="M14.5,16.5c5.6,0,10.2,4.6,10.2,10.2c0,5.6-4.6,10.2-10.2,10.2"/>
			<circle fill="#FFFAF5" cx="14.5" cy="26.7" r="6.9"/>
			<circle fill="#FFFAF5" cx="14.5" cy="26.7" r="6.9"/>
			<path fill="#EFEBE8" d="M9.7,21.8c2.7-2.7,7.1-2.7,9.8,0c2.7,2.7,2.7,7.1,0,9.8"/>
			<path fill="#CCCAC8" d="M14.5,21.6c3.7,0,6.7,1.8,6.9,5.5c0-0.1,0-0.3,0-0.4c0-3.8-3.1-6.9-6.9-6.9s-6.9,3.1-6.9,6.9
				c0,0.1,0,0.3,0,0.4C7.9,23.5,10.9,21.6,14.5,21.6z"/>
			<g>
				<circle fill="#CCCAC8" cx="12.4" cy="18.1" r="0.4"/>
				<circle fill="#CCCAC8" cx="14.5" cy="18.1" r="0.4"/>
				<circle fill="#CCCAC8" cx="16.7" cy="18.1" r="0.4"/>
			</g>
			<g>
				<path fill="#727272" d="M15.9,26.7c0,0.7-0.6,1.3-1.3,1.3s-1.3-0.6-1.3-1.3c0-0.7,0.6-1.3,1.3-1.3S15.9,26,15.9,26.7z"/>
				<path fill="#3F3F3F" d="M14.5,25.4c0.7,0,1.3,0.6,1.3,1.3c0,0.7-0.6,1.3-1.3,1.3"/>
				<circle fill="#FFFAF5" cx="14" cy="26.2" r="0.4"/>
				<circle fill="#FFFAF5" cx="15.1" cy="27.3" r="0.2"/>
			</g>
		</g>
		<g>
			<circle fill="#0B6382" cx="48.8" cy="26.7" r="10.2"/>
			<circle opacity="0.2" fill="#727272" cx="48.8" cy="27.8" r="10.2"/>
			<path fill="#00233F" d="M48.8,16.5c5.6,0,10.2,4.6,10.2,10.2c0,5.6-4.6,10.2-10.2,10.2"/>
			<circle fill="#FFFAF5" cx="48.8" cy="26.7" r="6.9"/>
			<circle fill="#FFFAF5" cx="48.8" cy="26.7" r="6.9"/>
			<path fill="#EFEBE8" d="M43.9,21.8c2.7-2.7,7.1-2.7,9.8,0c2.7,2.7,2.7,7.1,0,9.8"/>
			<path fill="#CCCAC8" d="M48.8,21.6c3.7,0,6.7,1.8,6.9,5.5c0-0.1,0-0.3,0-0.4c0-3.8-3.1-6.9-6.9-6.9s-6.9,3.1-6.9,6.9
				c0,0.1,0,0.3,0,0.4C42.1,23.5,45.1,21.6,48.8,21.6z"/>
			<g>
				<circle fill="#CCCAC8" cx="46.7" cy="18.1" r="0.4"/>
				<circle fill="#CCCAC8" cx="48.8" cy="18.1" r="0.4"/>
				<circle fill="#CCCAC8" cx="50.9" cy="18.1" r="0.4"/>
			</g>
			<g>
				<path fill="#727272" d="M50.1,26.7c0,0.7-0.6,1.3-1.3,1.3c-0.7,0-1.3-0.6-1.3-1.3c0-0.7,0.6-1.3,1.3-1.3
					C49.5,25.4,50.1,26,50.1,26.7z"/>
				<path fill="#3F3F3F" d="M48.8,25.4c0.7,0,1.3,0.6,1.3,1.3c0,0.7-0.6,1.3-1.3,1.3"/>
				<circle fill="#FFFAF5" cx="48.3" cy="26.2" r="0.4"/>
				<circle fill="#FFFAF5" cx="49.3" cy="27.3" r="0.2"/>
			</g>
		</g>
		<path fill="#FFCC4D" d="M13.8,14.1L13.8,14.1c0-0.5,0.4-1.1,0.9-1.1h34.7c0.5,0,0.9,0.5,0.9,1l0,0"/>
		<path opacity="0.2" fill="#727272" d="M37.9,36c0,1.2,0.1,2-1.1,2h-9.7c-1.2,0-1.1-0.8-1.1-2l0,0c0-1.2,0.9-2,2.1-2h7.7
			C37,34,37.9,34.8,37.9,36L37.9,36z"/>
		<path fill="#FFE650" d="M37.9,35c0,1.2,0.1,2-1.1,2h-9.7c-1.2,0-1.1-0.8-1.1-2l0,0c0-1.2,0.9-2,2.1-2h7.7C37,33,37.9,33.8,37.9,35
			L37.9,35z"/>
		<path fill="#FFC200" d="M37.9,35L37.9,35c0,1.2,0.1,2-1.1,2h-9.7c-1.2,0-1.1-0.9-1.1-2l0,0"/>
		<polygon fill="#FFED94" points="25,12.6 32,11.4 39,12.6 39,16.1 32,20.4 25,16.1 		"/>
		<polygon fill="#FFCC4D" points="25,12.6 32,14.5 39,12.6 39,16.1 32,20.4 25,16.1 		"/>
		<polyline fill="#F4BA38" points="32,14.5 39,12.6 39,16.1 32,20.4 		"/>
		<rect x="14.1" y="9.3" fill="#FFCC4D" width="1" height="1"/>
		<rect x="14" y="2.1" fill="#FFED94" width="1" height="0.3"/>
		<rect x="14" y="3.4" fill="#FFED94" width="1" height="0.3"/>
		<rect x="14" y="4.6" fill="#FFED94" width="1" height="0.3"/>
		<rect x="14" y="5.9" fill="#FFED94" width="1" height="0.3"/>
		<rect x="14" y="7.2" fill="#FFED94" width="1" height="0.3"/>
	</g>
	<rect x="24" y="43" fill="#686868" width="16" height="1"/>
	<rect x="24" y="45" fill="#686868" width="16" height="1"/>
	<g>
		<rect x="11" y="53" fill="#A0D827" width="4" height="4"/>
		<polygon fill="#CFF23B" points="14,55.2 11,56.6 11,53 14,53 		"/>
	</g>
	<g>
		<rect x="16" y="53" fill="#E2336D" width="4" height="4"/>
		<polygon fill="#F45683" points="19,55.2 16,56.6 16,53 19,53 		"/>
	</g>
	<path fill="#FFCC4D" d="M51.5,56.5c0,0.3-0.2,0.5-0.5,0.5h-6.8c-0.3,0-0.5-0.2-0.5-0.5l0,0c0-0.3,0.2-0.5,0.5-0.5H51
		C51.3,56,51.5,56.2,51.5,56.5L51.5,56.5z"/>
	<path fill="#FFCC4D" d="M51.5,53.5c0,0.3-0.2,0.5-0.5,0.5h-6.8c-0.3,0-0.5-0.2-0.5-0.5l0,0c0-0.3,0.2-0.5,0.5-0.5H51
		C51.3,53,51.5,53.2,51.5,53.5L51.5,53.5z"/>
	<path fill="#FFCC4D" d="M51.5,59.5c0,0.3-0.2,0.5-0.5,0.5h-6.8c-0.3,0-0.5-0.2-0.5-0.5l0,0c0-0.3,0.2-0.5,0.5-0.5H51
		C51.3,59,51.5,59.2,51.5,59.5L51.5,59.5z"/>
	<path fill="#FFC200" d="M32.1,31c0,0.1-0.1,0.3-0.3,0.3l0,0c-0.1,0-0.3-0.1-0.3-0.3V17.8c0-0.1,0.1-0.3,0.3-0.3l0,0
		c0.1,0,0.3,0.1,0.3,0.3V31z"/>
</g>
</svg>
