<?xml version="1.0" encoding="utf-8"?>
<!-- Generator: Adobe Illustrator 16.0.0, SVG Export Plug-In . SVG Version: 6.00 Build 0)  -->
<!DOCTYPE svg PUBLIC "-//W3C//DTD SVG 1.1//EN" "http://www.w3.org/Graphics/SVG/1.1/DTD/svg11.dtd">
<svg version="1.1" id="Layer_1" xmlns="http://www.w3.org/2000/svg" xmlns:xlink="http://www.w3.org/1999/xlink" x="0px" y="0px"
	 width="64px" height="64px" viewBox="0 0 64 64" enable-background="new 0 0 64 64" xml:space="preserve">
<g>
	<g>
		<path fill="#2A5E9B" d="M61.4,18.4L49,1.6V1.6l-7.7-1.1c-1.1,4-4.9,7.9-9.2,7.9s-8.2-4-9.3-7.9L15,1.6l0,0L2.6,18.4l8.5,6.5
			l3.8-1.8V45h34V23.1l3.8,1.8L61.4,18.4z"/>
		<path fill="#1E4784" d="M11.2,24.9l3.8-1.8V45h34V23.1l3.7,0.6l8.7-5.3L49,1.6V1.6l-7.7-1.1c-1.1,4-4.9,7.9-9.2,7.9
			s-8.2-4-9.3-7.9L15,1.6l0,0"/>
		<path fill="#00233F" d="M38,45h11V23.1l3.8,1.8l8.6-6.5L49,1.6V1.6l-7.7-1.1c-1.1,4-4.9,7.9-9.2,7.9s-8.2-4-9.3-7.9L15,1.6l0,0"/>
		<path fill="#61C5F2" d="M49,48H15v9h1.1c7.3,1,13,3.1,13.6,6.3c0.8,0,1.6,0.2,2.4,0.2c0.8,0,1.6-0.1,2.4-0.2
			C35,60.1,40.6,58,47.9,57H49V48z"/>
		<path fill="#2FADF4" d="M32,63.4c0.8,0,1.6,0,2.3-0.1c0.6-3.1,6.3-5.3,13.6-6.3H49v-9H15"/>
	</g>
	<g>
		<g>
			<path fill="#EF60B5" d="M32,18c-1-1.6-2.6-2.7-4.6-2.7c-2.9,0-5.2,2.2-5.2,5c0,1,0.3,2,0.9,2.8l0,0c0,0,0,0,0,0.1l8.8,9.6V18z"/>
			<path fill="#D848AC" d="M32,18c1-1.6,2.6-2.7,4.6-2.7c2.9,0,5.2,2.2,5.2,5c0,1-0.3,2-0.9,2.8l0,0c0,0,0,0,0,0.1L32,32.7V18z"/>
		</g>
		
			<ellipse transform="matrix(0.8416 -0.5402 0.5402 0.8416 -5.3647 16.5946)" fill="#F973B7" cx="25.6" cy="17.4" rx="2.7" ry="1.1"/>
		<circle fill="#F973B7" cx="23.6" cy="20.5" r="0.6"/>
	</g>
	<rect x="15" y="50" fill="#61C5F2" width="34" height="2"/>
	<g>
		<circle fill="#2A5E9B" cx="27.6" cy="54.7" r="0.7"/>
		<circle fill="#2A5E9B" cx="32" cy="54.7" r="0.7"/>
		<circle fill="#2A5E9B" cx="36.4" cy="54.7" r="0.7"/>
	</g>
</g>
</svg>
