<?xml version="1.0" encoding="utf-8"?>
<!-- Generator: Adobe Illustrator 16.0.0, SVG Export Plug-In . SVG Version: 6.00 Build 0)  -->
<!DOCTYPE svg PUBLIC "-//W3C//DTD SVG 1.1//EN" "http://www.w3.org/Graphics/SVG/1.1/DTD/svg11.dtd">
<svg version="1.1" id="Layer_1" xmlns="http://www.w3.org/2000/svg" xmlns:xlink="http://www.w3.org/1999/xlink" x="0px" y="0px"
	 width="64px" height="64px" viewBox="0 0 64 64" enable-background="new 0 0 64 64" xml:space="preserve">
<g>
	<path fill="#7D50A0" d="M37,51.2c0,3-2,5.3-5,5.3l0,0c-3,0-5-2.4-5-5.3V40.9c0-3,2-5.3,5-5.3l0,0c3,0,5,2.4,5,5.3V51.2z"/>
	<path fill="#603C82" d="M32.1,35.7L32.1,35.7c3,0,4.9,2.3,4.9,5.2v10.2c0,3-2,5.8-5,5.8h0"/>
	<polygon fill="#EDA006" points="35.5,17.9 32,18.7 28.5,17.9 32,4.9 	"/>
	<polyline fill="#EA7307" points="32,4.9 35.5,17.9 32,18.7 	"/>
	<g>
		<g>
			<path fill="#29A0E2" d="M39,18c0,0.6-0.4,1-1,1H26c-0.6,0-1-0.4-1-1l0,0c0-0.6,0.4-1,1-1h12C38.6,17,39,17.4,39,18L39,18z"/>
			<path fill="#0D7DC9" d="M39,18L39,18c0,0.7-0.5,1-1.2,1H26.2c-0.7,0-1.2-0.3-1.2-1l0,0"/>
		</g>
		<g>
			<path fill="#29A0E2" d="M39,22c0,0.6-0.4,1-1,1H26c-0.6,0-1-0.4-1-1l0,0c0-0.6,0.4-1,1-1h12C38.6,21,39,21.4,39,22L39,22z"/>
			<path fill="#0D7DC9" d="M39,22L39,22c0,0.7-0.5,1-1.2,1H26.2c-0.7,0-1.2-0.3-1.2-1l0,0"/>
		</g>
		<g>
			<path fill="#29A0E2" d="M39,20c0,0.6-0.4,1-1,1H26c-0.6,0-1-0.4-1-1l0,0c0-0.6,0.4-1,1-1h12C38.6,19,39,19.4,39,20L39,20z"/>
			<path fill="#0D7DC9" d="M39,20L39,20c0,0.7-0.5,1-1.2,1H26.2c-0.7,0-1.2-0.3-1.2-1l0,0"/>
		</g>
	</g>
	<path fill="#A87CC4" d="M4,25c1.4,5,13.4,9.6,28,9.6c14.6,0,26.6-4.6,28-9.6H4z"/>
	<path fill="#7D50A0" d="M32,34.6c14.6,0,26.6-4.6,28-9.6H4"/>
	<g>
		<g>
			<circle fill="#EDA006" cx="32" cy="34.3" r="3.8"/>
			<path fill="#EA7307" d="M32,30.5c2.1,0,3.8,1.7,3.8,3.8c0,2.1-1.7,3.8-3.8,3.8"/>
		</g>
		<g>
			<circle fill="#EDA006" cx="32" cy="34.3" r="1.9"/>
			<path fill="#EA7307" d="M30.1,34.3c0-1.1,0.9-1.9,1.9-1.9s1.9,0.9,1.9,1.9"/>
		</g>
	</g>
	<g>
		<circle fill="#EDA006" cx="32" cy="2.5" r="1.9"/>
		<path fill="#EA7307" d="M30.6,1.2c0.7-0.7,2-0.7,2.7,0c0.7,0.7,0.7,2,0,2.7"/>
	</g>
	<path fill="#29A0E2" d="M60,63v-0.3C60,57,55,52,49.3,52H14.7C9,52,4,57,4,62.7V63H60z"/>
	<path fill="#0D7DC9" d="M5.8,57C4.6,58.8,4,60.8,4,62.7V63h56v-0.3c0-1.9-0.4-3.6-1.8-5.7H5.8z"/>
	<path fill="#9FE2FF" d="M18,59.9c0,0.1-0.4,0.2-0.5,0.2l0,0c-0.1,0-0.5-0.1-0.5-0.2v-3.3c0-0.1,0.4-0.2,0.5-0.2l0,0
		c0.1,0,0.5,0.1,0.5,0.2V59.9z"/>
	<path fill="#9FE2FF" d="M20,59.9c0,0.1-0.4,0.2-0.5,0.2l0,0c-0.1,0-0.5-0.1-0.5-0.2v-3.3c0-0.1,0.4-0.2,0.5-0.2l0,0
		c0.1,0,0.5,0.1,0.5,0.2V59.9z"/>
	<path fill="#9FE2FF" d="M16,59.9c0,0.1-0.4,0.2-0.5,0.2l0,0c-0.1,0-0.5-0.1-0.5-0.2v-3.3c0-0.1,0.4-0.2,0.5-0.2l0,0
		c0.1,0,0.5,0.1,0.5,0.2V59.9z"/>
	<path fill="#9FE2FF" d="M14,59.9c0,0.1-0.4,0.2-0.5,0.2l0,0c-0.1,0-0.5-0.1-0.5-0.2v-3.3c0-0.1,0.4-0.2,0.5-0.2l0,0
		c0.1,0,0.5,0.1,0.5,0.2V59.9z"/>
	<path fill="#0464A5" d="M41.1,60.8c0-2.5,2-4.5,4.5-4.5c2.5,0,4.5,2,4.5,4.5"/>
	<path fill="#EAEAEA" d="M41.1,60.1c0-2.5,2-4.5,4.5-4.5c2.5,0,4.5,2,4.5,4.5"/>
	<circle fill="#EDA006" cx="45.5" cy="59.9" r="0.8"/>
	<path fill="#76D5FF" d="M13,53.4L13,53.4c0-0.2,0.2-0.4,0.4-0.4h37.2c0.2,0,0.4,0.2,0.4,0.4l0,0"/>
	<path fill="#0464A5" d="M45.8,58.2c0,0.1-0.1,0.2-0.2,0.2l0,0c-0.1,0-0.2-0.1-0.2-0.2v-1.7c0-0.1,0.1-0.2,0.2-0.2l0,0
		c0.1,0,0.2,0.1,0.2,0.2V58.2z"/>
</g>
</svg>
