<?xml version="1.0" encoding="utf-8"?>
<!-- Generator: Adobe Illustrator 16.0.0, SVG Export Plug-In . SVG Version: 6.00 Build 0)  -->
<!DOCTYPE svg PUBLIC "-//W3C//DTD SVG 1.1//EN" "http://www.w3.org/Graphics/SVG/1.1/DTD/svg11.dtd">
<svg version="1.1" id="Layer_1" xmlns="http://www.w3.org/2000/svg" xmlns:xlink="http://www.w3.org/1999/xlink" x="0px" y="0px"
	 width="64px" height="64px" viewBox="0 0 64 64" enable-background="new 0 0 64 64" xml:space="preserve">
<g>
	<path fill="#AD2A2A" d="M63.5,63c0-14-14.1-25.2-31.5-25.2S0.5,49,0.5,63H63.5z"/>
	<path fill="#7F0A0A" d="M0,63h63.5c0-14-14.4-25.2-31.8-25.2"/>
	<g>
		<g>
			<circle fill="#F4B840" cx="53.8" cy="13.6" r="5.8"/>
			<path fill="#E59F23" d="M59.6,13.6c0,3.2-2.6,5.8-5.8,5.8c-3.2,0-5.8-2.6-5.8-5.8"/>
			<path fill="#CE3E3E" d="M50.3,22.3c4.5-4.3,4.4-11.8-0.2-16.9c-4.6-5.2-12-6-16.8-2.1L50.3,22.3z"/>
			<path fill="#AD2A2A" d="M52.4,20.8C54.9,14.1,50.1,6,41.6,2.5C33.1-1,23.9,1.4,21,8L52.4,20.8z"/>
			<path fill="#F7CBAA" d="M56.7,37.5c0,13.1-11.3,20.8-25.1,20.8S6.4,50.6,6.4,37.5c0-13.1,11.3-27.5,25.1-27.5
				S56.7,24.4,56.7,37.5z"/>
			<path fill="#E8B39C" d="M31.6,9.9c13.9,0,25.1,14.4,25.1,27.5c0,13.1-11.3,20.8-25.1,20.8"/>
			<g>
				<g>
					<g>
						<g>
							<path fill="#FFFFFF" d="M22.6,28.5c-1.6,0.1-2.8,0.8-2.8,1.6l5.7-0.4C25.5,28.9,24.2,28.4,22.6,28.5z"/>
						</g>
						<g>
							<path fill="#FFFFFF" d="M41.1,29.4c1.4,0.7,2.3,1.7,2,2.4l-5.2-2.4C38.2,28.7,39.6,28.7,41.1,29.4z"/>
						</g>
					</g>
					<path fill="#F9E8D9" d="M21.1,39.4c-3.8,0-6.8,0.9-6.8,1.9c0,1.1,3.1,0.6,6.8,0.6c3.8,0,6.8,0.5,6.8-0.6
						C27.9,40.3,24.9,39.4,21.1,39.4z"/>
					<path fill="#F9E8D9" d="M42,39.4c-3.8,0-6.8,0.9-6.8,1.9c0,1.1,3.1,0.6,6.8,0.6c3.8,0,6.8,0.5,6.8-0.6
						C48.9,40.3,45.8,39.4,42,39.4z"/>
					<g>
						<path fill="#E8B39C" d="M25.4,38c0,1.5-1.2,2.8-2.8,2.8c-1.5,0-2.8-1.2-2.8-2.8c0-1.5,1.2-2.8,2.8-2.8
							C24.2,35.2,25.4,36.5,25.4,38z"/>
						<circle fill="#F7CBAA" cx="40.8" cy="38" r="2.8"/>
						<path fill="#1E4784" d="M25.4,37.2c0,1.5-1.2,2.8-2.8,2.8c-1.5,0-2.8-1.2-2.8-2.8c0-1.5,1.2-2.8,2.8-2.8
							C24.2,34.4,25.4,35.7,25.4,37.2z"/>
						<path fill="#00233F" d="M22.6,34.4c1.5,0,2.8,1.2,2.8,2.8c0,1.5-1.2,2.8-2.8,2.8"/>
						<circle fill="#1E4784" cx="40.8" cy="37.2" r="2.8"/>
						<path fill="#00233F" d="M40.8,34.4c1.5,0,2.8,1.2,2.8,2.8c0,1.5-1.2,2.8-2.8,2.8"/>
					</g>
				</g>
			</g>
			<path fill="#F9E8D9" d="M26.4,44.2c0-0.9,2.3-4.6,5.1-4.6c2.8,0,5.1,3.8,5.1,4.6c0,0.9-2.3,0.6-5.1,0.6
				C28.7,44.8,26.4,45.1,26.4,44.2z"/>
			<path fill="#E8B39C" d="M26.4,45.2c0-0.9,2.3-3.5,5.1-3.5c2.8,0,5.1,2.6,5.1,3.5s-2.3,0.6-5.1,0.6C28.7,45.8,26.4,46,26.4,45.2z"
				/>
			<path fill="#892624" d="M34.2,52.6c0,2-1.2,2.6-2.6,2.6c-1.5,0-2.6-0.6-2.6-2.6c0-2,1.2-4.5,2.6-4.5C33,48.1,34.2,50.7,34.2,52.6
				z"/>
			<g>
				<g>
					<path fill="#FFFFFF" d="M10.3,26.8c0,0-1.8,8.2,1,10.3c2.8,2.1,1.7,4.2,1.7,4.2s1.8,0,1.6,3.4c-0.2,3.4,3.1,2.7,3.1,2.7
						L11,50.3c0,0-6.2-1.6-5.2-11.2c0,0-3-3.3-0.1-7.4c0,0-1.6-3.1,0.9-4.3C9.1,26.2,9.2,25,9.2,25L10.3,26.8z"/>
					<path fill="#DFEAEA" d="M9.2,25l1.1,1.8c0,0-1.8,8.2,1,10.3c2.8,2.1,1.7,4.2,1.7,4.2s1.8,0,1.6,3.4c-0.2,3.4,3.1,2.7,3.1,2.7
						L11,50.3"/>
				</g>
				<g>
					<path fill="#FFFFFF" d="M52.8,26.8c0,0,1.8,8.2-1,10.3c-2.8,2.1-1.7,4.2-1.7,4.2s-1.8,0-1.6,3.4c0.2,3.4-3.1,2.7-3.1,2.7
						l6.6,2.9c0,0,6.2-1.6,5.2-11.2c0,0,3-3.3,0.1-7.4c0,0,1.6-3.1-0.9-4.3C54,26.2,54,25,54,25L52.8,26.8z"/>
					<path fill="#DFEAEA" d="M54,25l-1.1,1.8c0,0,1.8,8.2-1,10.3c-2.8,2.1-1.7,4.2-1.7,4.2s-1.8,0-1.6,3.4c0.2,3.4-3.1,2.7-3.1,2.7
						l6.6,2.9"/>
				</g>
			</g>
			<path fill="#681111" d="M28.9,52.6c0-2,1.2-4.5,2.6-4.5c1.5,0,2.6,2.5,2.6,4.5"/>
			<g>
				
					<ellipse transform="matrix(0.9485 0.3166 -0.3166 0.9485 15.5282 -7.2376)" fill="#F9E8D9" cx="30" cy="44.2" rx="0.9" ry="0.3"/>
				
					<ellipse transform="matrix(-0.9485 0.3168 -0.3168 -0.9485 78.4764 75.5631)" fill="#F9E8D9" cx="33.1" cy="44.2" rx="0.9" ry="0.3"/>
			</g>
			<g>
				<g>
					<path fill="#FFFFFF" d="M26.2,43.5c0,0-6.9-1.7-9.9,2c-3,3.7-6.5,3-6.5,3s-1.3,3.5,2.3,6.3c3.6,2.8,2.9,0.2,3.6,2.5
						c0.4,1.4,2.7,2.6,4.3,2.8c0,0,0.8,2.7,4.5,2.2c0,0,1,1,4.2,1c2.9,0,3.3-0.6,3.3-0.6v-4.8c0,0-7-0.6-6-5.2c1-4.6,6-5,6-5v-1.4
						v-0.6c0,0-5.2,0.4-5.3-1.2l0.3-1L26.2,43.5z"/>
					<path fill="#DFEAEA" d="M12.2,54.5c3.6,2.8,2.9,0.3,3.5,2.6c0.4,1.4,2.6,2.7,4.2,2.8c0,0,0.7,2.7,4.5,2.2c0,0,1,1,4.2,1
						c2.9,0,3.3-0.5,3.3-0.5v-4.8c0,0-7-0.6-6-5.2c1-4.6,6-5,6-5v-1.4V45"/>
					<path fill="#C7D3D3" d="M20,60c0,0,0.8,2.7,4.5,2.2c0,0,1,1,4.2,1c2.9,0,3.3-0.6,3.3-0.6v-4.8c0,0-7-0.6-6-5.2"/>
				</g>
				<g>
					<path fill="#FFFFFF" d="M36.9,43.5c0,0,6.9-1.7,9.9,2c3,3.7,6.5,3,6.5,3s1.3,3.5-2.3,6.3c-3.6,2.8-2.9,0.2-3.6,2.5
						c-0.4,1.4-2.7,2.6-4.3,2.8c0,0-0.8,2.7-4.5,2.2c0,0-0.6,1-3.8,1c-2.9,0-2.9-0.6-2.9-0.6v-4.8c0,0,6.5-0.6,5.5-5.2
						c-1-4.6-6.5-5-6.5-5v-1.4v-0.6c0,0,5.3,0.4,5.4-1.2l-0.2-1L36.9,43.5z"/>
					<path fill="#DFEAEA" d="M50.8,54.5c-3.6,2.8-2.8,0.3-3.5,2.6c-0.4,1.4-2.6,2.7-4.2,2.8c0,0-0.7,2.7-4.5,2.2c0,0-0.6,1-3.8,1
						c-2.9,0-2.9-0.5-2.9-0.5v-4.8c0,0,6.5-0.6,5.5-5.2c-1-4.6-6.5-5-6.5-5v-1.4V45"/>
					<path fill="#C7D3D3" d="M43.2,60c0,0-0.8,2.7-4.5,2.2c0,0-0.6,1-3.8,1c-2.9,0-2.9-0.6-2.9-0.6v-4.8c0,0,6.5-0.6,5.5-5.2"/>
				</g>
			</g>
			<path fill="#931B1B" d="M54.2,24C53.8,14,43.8,5.3,31.6,5.3C19.3,5.3,9.3,14,9,24H54.2z"/>
			<path fill="#7F0A0A" d="M9,24h45.2C53.8,14,43.9,5.3,31.6,5.3"/>
			<polygon fill="#E8B39C" points="14,27.2 34.2,30.2 34.9,24.7 19,24.6 			"/>
			<path fill="#FFD371" d="M57.9,26.6c0,3-11.8-0.4-26.4-0.4c-14.6,0-26.4,3.4-26.4,0.4c0-3,11.8-5.3,26.4-5.3
				C46.1,21.2,57.9,23.6,57.9,26.6z"/>
			<path fill="#F4B840" d="M57.9,26.6c0,3-11.8-0.4-26.4-0.4c-14.6,0-26.4,3.4-26.4,0.4"/>
		</g>
		<path fill="#FFF0A6" d="M44.7,22.6c0,0.6-5.7,0.1-12.7,0.1c-7,0-12.7,0.5-12.7-0.1c0-0.6,5.7-1.1,12.7-1.1
			C39,21.5,44.7,22,44.7,22.6z"/>
		<circle fill="#AD2A2A" cx="7.8" cy="11.8" r="2.3"/>
		<circle fill="#AD2A2A" cx="10.4" cy="8.2" r="0.4"/>
		<circle fill="#AD2A2A" cx="15.4" cy="6.7" r="1.4"/>
		<circle fill="#AD2A2A" cx="12.8" cy="10.7" r="0.3"/>
		<circle fill="#AD2A2A" cx="11.1" cy="3.2" r="1.1"/>
		<circle fill="#AD2A2A" cx="20.5" cy="6.4" r="0.6"/>
		<circle fill="#AD2A2A" cx="8.3" cy="17.9" r="1"/>
		<circle fill="#AD2A2A" cx="7" cy="16.1" r="0.3"/>
		
			<ellipse transform="matrix(0.8406 0.5417 -0.5417 0.8406 14.2969 -28.6157)" fill="#FFD371" cx="55.8" cy="10" rx="2.7" ry="0.7"/>
	</g>
</g>
</svg>
