<?xml version="1.0" encoding="utf-8"?>
<!-- Generator: Adobe Illustrator 16.0.0, SVG Export Plug-In . SVG Version: 6.00 Build 0)  -->
<!DOCTYPE svg PUBLIC "-//W3C//DTD SVG 1.1//EN" "http://www.w3.org/Graphics/SVG/1.1/DTD/svg11.dtd">
<svg version="1.1" id="Layer_1" xmlns="http://www.w3.org/2000/svg" xmlns:xlink="http://www.w3.org/1999/xlink" x="0px" y="0px"
	 width="65px" height="65px" viewBox="0 0 65 65" enable-background="new 0 0 65 65" xml:space="preserve">
<g>
	<g>
		<g>
			<g>
				<g>
					<g>
						<path fill="#5258CC" d="M33.986,30.862c-0.111,1.912-2.66,3.317-5.694,3.143c-3.031-0.179-17.868-2.603-17.76-4.515
							c0.115-1.913,15.137-2.588,18.168-2.409C31.73,27.257,34.098,28.95,33.986,30.862z"/>
					</g>
					<g>
						<path fill="#5258CC" d="M32.82,30.074c0.111-1.912,2.66-3.316,5.695-3.143c3.031,0.18,17.867,2.604,17.76,4.516
							c-0.115,1.912-15.137,2.588-18.168,2.408C35.076,33.68,32.709,31.986,32.82,30.074z"/>
					</g>
					<g>
						<path fill="#46A0AF" d="M30.528,46.446c0,2.476-2.009,15.827-4.486,15.827c-2.474,0-4.482-13.352-4.482-15.827
							s2.009-4.484,4.482-4.484C28.52,41.962,30.528,43.971,30.528,46.446z"/>
						<path fill="#46A0AF" d="M45.553,46.446c0,2.476-2.007,15.827-4.484,15.827c-2.476,0-4.483-13.352-4.483-15.827
							s2.008-4.484,4.483-4.484C43.546,41.962,45.553,43.971,45.553,46.446z"/>
					</g>
					<path fill="#5258CC" d="M46.206,40.521c0,16.038-5.662,10.697-12.65,10.697c-6.985,0-12.651,5.341-12.651-10.697
						c0-9.17,5.666-16.603,12.651-16.603C40.542,23.919,46.206,31.352,46.206,40.521z"/>
					<path fill="#404BAD" d="M24.134,29.47c2.665,1.211,5.912,1.825,9.424,1.825c3.511,0,6.755-0.614,9.42-1.824
						c-2.316-3.4-5.675-5.552-9.422-5.552S26.451,26.07,24.134,29.47z"/>
					<g>
						<path fill="#FF860D" d="M31.089,62.354c0,1.896-2.26,2.146-5.045,2.146s-5.046-0.249-5.046-2.146
							c0-1.897,2.261-4.508,5.046-4.508S31.089,60.457,31.089,62.354z"/>
						<path fill="#E56107" d="M31.089,62.354c0,1.896-2.26,2.146-5.045,2.146s-5.046-0.249-5.046-2.146"/>
					</g>
					<g>
						<path fill="#FF860D" d="M46.114,62.354c0,1.896-2.261,2.146-5.044,2.146c-2.786,0-5.046-0.249-5.046-2.146
							c0-1.897,2.26-4.508,5.046-4.508C43.854,57.847,46.114,60.457,46.114,62.354z"/>
						<path fill="#E56107" d="M46.114,62.354c0,1.896-2.261,2.146-5.044,2.146c-2.786,0-5.046-0.249-5.046-2.146"/>
					</g>
					<g>
						<path fill="#CE5715" d="M49.927,16.275c0,7.999-7.33,12.02-16.369,12.02c-9.042,0-16.374-4.021-16.374-12.02
							c0-8.001,7.332-15.775,16.374-15.775C42.597,0.5,49.927,8.274,49.927,16.275z"/>
						<path fill="#F9A9A0" d="M49.927,16.275c0,7.999-7.33,12.02-16.369,12.02c-9.042,0-16.374-4.021-16.374-12.02
							c0-8.001,7.332-9.192,16.374-9.192C42.597,7.083,49.927,8.274,49.927,16.275z"/>
						<path fill="#FF9997" d="M49.927,16.275c0,7.999-7.33,12.02-16.369,12.02c-9.042,0-16.374-4.021-16.374-12.02"/>
					</g>
					<g>
						<g>
							<circle fill="#113E49" cx="28.813" cy="16.487" r="1.464"/>
							<path d="M30.277,16.487c0,0.811-0.656,1.465-1.465,1.465s-1.463-0.654-1.463-1.465"/>
							<g>
								<path fill="#FFD3C5" d="M31.701,19.541c-0.078,0-0.158-0.028-0.219-0.091c-0.715-0.714-1.664-1.107-2.672-1.107h-0.002
									c-1.008,0-1.955,0.394-2.666,1.106c-0.121,0.121-0.316,0.124-0.436,0.001c-0.121-0.117-0.125-0.312-0.004-0.434
									c0.83-0.831,1.932-1.29,3.105-1.29h0.002c1.176,0,2.279,0.456,3.111,1.288c0.119,0.119,0.119,0.318,0,0.436
									C31.861,19.513,31.783,19.541,31.701,19.541z"/>
							</g>
						</g>
						<g>
							<circle fill="#113E49" cx="44.384" cy="16.487" r="1.464"/>
							<path d="M42.92,16.487c0,0.811,0.654,1.465,1.465,1.465c0.809,0,1.463-0.654,1.463-1.465"/>
							<g>
								<path fill="#FFD3C5" d="M41.496,19.541c0.076,0,0.156-0.028,0.217-0.091c0.715-0.714,1.664-1.107,2.672-1.107h0.002
									c1.008,0,1.957,0.394,2.668,1.106c0.119,0.121,0.314,0.124,0.436,0.001c0.121-0.117,0.123-0.312,0.002-0.434
									c-0.826-0.831-1.932-1.29-3.105-1.29h-0.002c-1.174,0-2.277,0.456-3.111,1.288c-0.117,0.119-0.117,0.318,0,0.436
									C41.336,19.513,41.414,19.541,41.496,19.541z"/>
							</g>
						</g>
					</g>
				</g>
			</g>
		</g>
	</g>
	<path fill="#CE5715" d="M29.993,4.708c0,0-5.625,4.125-2.376,7.875c3.251,3.75,9.251-0.25,8-2c0,0-3,3.125-4.749-0.25
		c-1.751-3.375,5.875-3.25,9.749-3c3.876,0.25-4.749-3.5-4.749-3.5L29.993,4.708z"/>
	<path fill="#8E0935" d="M38.91,19.666c0,1.519-1.045,2.75-2.333,2.75c-1.29,0-2.334-1.231-2.334-2.75s1.044-1,2.334-1
		C37.865,18.666,38.91,18.147,38.91,19.666z"/>
	<path fill="#C11043" d="M34.595,21.103c0.411,0.785,1.142,1.313,1.982,1.313c0.84,0,1.57-0.528,1.981-1.315
		c-0.411-0.784-1.142-1.312-1.981-1.312C35.736,19.788,35.006,20.317,34.595,21.103z"/>
	<g>
		<path fill="#668B96" d="M7.604,17.411c0.174,0.174,0.174,1.594,0,1.768l-2.354,1.214c-0.265,0.118-0.453,0.174-0.628,0l0,0
			c-0.173-0.174-0.173-0.454,0-0.627l2.354-2.354C7.149,17.237,7.43,17.237,7.604,17.411L7.604,17.411z"/>
		<path fill="#54737F" d="M7.604,17.411c0.174,0.174,0.174,1.594,0,1.768l-2.354,1.214c-0.265,0.118-0.453,0.174-0.628,0l0,0
			c-0.173-0.174-0.173-0.454,0-0.627l2.73-1.882C7.527,17.711,7.43,17.237,7.604,17.411L7.604,17.411z"/>
		<g>
			<path fill="#62D122" d="M3.736,15.794c0,0.46-0.375,0.833-0.834,0.833l0,0c-0.459,0-0.832-0.373-0.832-0.833v-0.609
				c0-0.46,0.373-0.833,0.832-0.833l0,0c0.459,0,0.834,0.373,0.834,0.833V15.794z"/>
			<path fill="#4DB20D" d="M3.736,15.185v0.609c0,0.46-0.375,0.833-0.834,0.833l0,0c-0.459,0-0.832-0.373-0.832-0.833v-0.609"/>
			<path fill="#AFCCD8" d="M12.557,15.989c0,0.49,0.083,2.385-2.247,2.663l-6.54-1.323c-0.489,0-0.887-0.396-0.887-0.887v-1.85
				c0-0.49,0.397-0.888,0.887-0.888l6.883-0.444c0.489,0,0.885,0.398,0.885,0.888L12.557,15.989z"/>
			<path fill="#7FA6B5" d="M10.652,16.534c0.489,0,0.885,0.207,0.885,0.46l-0.442,3.574c0,0.254-0.396,0.46-0.888,0.46h-1.85
				c-0.489,0-0.888-0.206-0.888-0.46l-0.442-3.574c0-0.253,0.396-0.46,0.888-0.46H10.652z"/>
			<path fill="#99B9C9" d="M10.652,13.261c0.489,0,0.885,0.398,0.885,0.888l1.02,1.841c0,0.49,0.083,2.385-2.247,2.663l-6.54-1.323
				c-0.489,0-0.887-0.396-0.887-0.887v-1.258"/>
			<path fill="#62D122" d="M11.402,21.556c0,0.138-0.11,0.25-0.248,0.25H7.411c-0.137,0-0.248-0.112-0.248-0.25v-0.87
				c0-0.138,0.111-0.249,0.248-0.249h3.743c0.138,0,0.248,0.111,0.248,0.249V21.556z"/>
			<path fill="#4DB20D" d="M11.402,20.686v0.87c0,0.138-0.11,0.25-0.248,0.25H7.411c-0.137,0-0.248-0.112-0.248-0.25v-0.87"/>
		</g>
		<path fill="#88E2E2" d="M11.669,21.565H6.896c-1.058,0-1.914,0.856-1.914,1.914v1.669l-3.273,7.44c0,1.931,0.01,3.495,1.943,3.495
			h7.988c1.93,0,1.941-1.564,1.941-3.495v-6.973v-1.24v-0.896C13.582,22.422,12.726,21.565,11.669,21.565z"/>
		<path fill="#4FC7D3" d="M11.669,21.565H7.528c-1.059,0-1.916,0.856-1.916,1.914v1.669l-3.903,7.44c0,1.931,0.01,3.495,1.943,3.495
			h7.988c1.93,0,1.941-1.564,1.941-3.495v-6.973v-1.24v-0.896C13.582,22.422,12.726,21.565,11.669,21.565z"/>
		<path fill="#41B9BF" d="M1.709,32.589c0,1.931,0.01,3.495,1.943,3.495h7.988c1.93,0,1.941-1.564,1.941-3.495"/>
		<path fill="#41B9BF" d="M9.165,21.565v2.885c0,0.153,0.125,0.277,0.278,0.277c0.151,0,0.275-0.124,0.275-0.277v-2.885H9.165z"/>
	</g>
	<g>
		<path fill="#C19A6B" d="M56.506,49.879c0,0.571-0.464,1.036-1.036,1.036l0,0c-0.573,0-1.038-0.464-1.038-1.036V21.871
			c0-0.573,0.466-1.037,1.038-1.038l0,0c0.572,0.001,1.036,0.465,1.034,1.037L56.506,49.879z"/>
		<path fill="#C90D59" d="M62.813,52.597c-0.155-3.927-3.379-7.066-7.344-7.064c-3.966-0.001-7.189,3.137-7.346,7.064H62.813z"/>
		<path fill="#EA1F5E" d="M55.47,45.532c-3.966-0.001-7.189,3.137-7.346,7.064"/>
		<path fill="#C90D59" d="M63.291,52.638c0,0.303-0.245,0.547-0.547,0.547H48.193c-0.302,0-0.547-0.245-0.546-0.547l0,0
			c0-0.301,0.244-0.546,0.546-0.546h14.552C63.046,52.091,63.291,52.337,63.291,52.638L63.291,52.638z"/>
		<path fill="#C90D59" d="M58.539,45.194c-0.002,0.559-0.453,1.01-1.009,1.01h-4.122c-0.558,0-1.01-0.452-1.008-1.01l-0.002-0.842
			c0-0.557,0.452-1.008,1.009-1.009l4.123,0.001c0.556-0.001,1.009,0.451,1.009,1.009V45.194z"/>
		<path fill="#EA1F5E" d="M52.4,45.194l-0.002-0.842c0-0.557,0.452-1.008,1.009-1.009l4.123,0.001"/>
	</g>
</g>
</svg>
