<?xml version="1.0" encoding="utf-8"?>
<!-- Generator: Adobe Illustrator 16.0.0, SVG Export Plug-In . SVG Version: 6.00 Build 0)  -->
<!DOCTYPE svg PUBLIC "-//W3C//DTD SVG 1.1//EN" "http://www.w3.org/Graphics/SVG/1.1/DTD/svg11.dtd">
<svg version="1.1" id="Layer_1" xmlns="http://www.w3.org/2000/svg" xmlns:xlink="http://www.w3.org/1999/xlink" x="0px" y="0px"
	 width="64px" height="64px" viewBox="0 0 64 64" enable-background="new 0 0 64 64" xml:space="preserve">
<g>
	<g>
		<g>
			<g>
				<g>
					<circle fill="#C6E0DE" cx="32" cy="30.7" r="27.1"/>
					<path fill="#B6D3D2" d="M12.8,11.6C23.4,1,40.6,1,51.2,11.6c10.6,10.6,10.6,27.7,0,38.3"/>
				</g>
			</g>
		</g>
	</g>
	<g>
		<path fill="#1BAA0C" d="M62.7,47C57.3,36,45.6,27.5,32,27.5C18.4,27.5,6.7,36,1.3,47H62.7z"/>
		<path fill="#068E50" d="M1,47h61.7c-5.4-11-17.3-19.5-30.9-19.5"/>
		<path fill="#FF9100" d="M49.1,47c-3-11-9.5-19.5-17.1-19.5c-7.6,0-14.1,8.5-17.1,19.5H49.1z"/>
		<path fill="#E04F07" d="M15,47h34.1c-3-11-9.5-19.5-17-19.5"/>
		<path fill="#1BAA0C" d="M36.5,47C35.7,36,34,27.5,32,27.5S28.3,36,27.5,47H36.5z"/>
		<path fill="#068E50" d="M28,47h8.5c-0.8-11-2.3-19.5-4.2-19.5"/>
	</g>
	<rect x="30" y="49" fill="#00233F" width="3" height="13"/>
	<g>
		<g>
			<g>
				<g>
					<path fill="#5EE0EA" d="M8,11.4c0,0.6-0.5,1.2-1.2,1.2S5.5,12,5.5,11.4c0-0.6,0.5-2.6,1.2-2.6S8,10.7,8,11.4z"/>
					<path fill="#30B9D8" d="M6.8,8.8c0.7,0,1.2,1.9,1.2,2.6c0,0.6-0.5,1.2-1.2,1.2"/>
				</g>
				<g>
					<path fill="#5EE0EA" d="M13.6,11.4c0,0.6-0.5,1.2-1.2,1.2c-0.7,0-1.2-0.5-1.2-1.2c0-0.6,0.5-2.6,1.2-2.6
						C13,8.8,13.6,10.7,13.6,11.4z"/>
					<path fill="#30B9D8" d="M12.4,8.8c0.7,0,1.2,1.9,1.2,2.6c0,0.6-0.5,1.2-1.2,1.2"/>
				</g>
				<g>
					<path fill="#5EE0EA" d="M19.2,11.4c0,0.6-0.5,1.2-1.2,1.2c-0.7,0-1.2-0.5-1.2-1.2c0-0.6,0.5-2.6,1.2-2.6
						C18.6,8.8,19.2,10.7,19.2,11.4z"/>
					<path fill="#30B9D8" d="M18,8.8c0.7,0,1.2,1.9,1.2,2.6c0,0.6-0.5,1.2-1.2,1.2"/>
				</g>
				<g>
					<path fill="#5EE0EA" d="M24.8,11.4c0,0.6-0.5,1.2-1.2,1.2c-0.7,0-1.2-0.5-1.2-1.2c0-0.6,0.5-2.6,1.2-2.6
						C24.2,8.8,24.8,10.7,24.8,11.4z"/>
					<path fill="#30B9D8" d="M23.6,8.8c0.7,0,1.2,1.9,1.2,2.6c0,0.6-0.5,1.2-1.2,1.2"/>
				</g>
				<g>
					<path fill="#5EE0EA" d="M30.4,11.4c0,0.6-0.5,1.2-1.2,1.2c-0.7,0-1.2-0.5-1.2-1.2c0-0.6,0.6-2.6,1.2-2.6
						C29.8,8.8,30.4,10.7,30.4,11.4z"/>
					<path fill="#30B9D8" d="M29.2,8.8c0.7,0,1.2,1.9,1.2,2.6c0,0.6-0.5,1.2-1.2,1.2"/>
				</g>
			</g>
			<g>
				<g>
					<path fill="#5EE0EA" d="M8,17.2c0,0.6-0.5,1.2-1.2,1.2s-1.2-0.5-1.2-1.2c0-0.6,0.5-2.6,1.2-2.6S8,16.6,8,17.2z"/>
					<path fill="#30B9D8" d="M6.8,14.7c0.7,0,1.2,1.9,1.2,2.6c0,0.6-0.5,1.2-1.2,1.2"/>
				</g>
				<g>
					<path fill="#5EE0EA" d="M13.6,17.2c0,0.6-0.5,1.2-1.2,1.2c-0.7,0-1.2-0.5-1.2-1.2c0-0.6,0.5-2.6,1.2-2.6
						C13,14.7,13.6,16.6,13.6,17.2z"/>
					<path fill="#30B9D8" d="M12.4,14.7c0.7,0,1.2,1.9,1.2,2.6c0,0.6-0.5,1.2-1.2,1.2"/>
				</g>
				<g>
					<path fill="#5EE0EA" d="M19.2,17.2c0,0.6-0.5,1.2-1.2,1.2c-0.7,0-1.2-0.5-1.2-1.2c0-0.6,0.5-2.6,1.2-2.6
						C18.6,14.7,19.2,16.6,19.2,17.2z"/>
					<path fill="#30B9D8" d="M18,14.7c0.7,0,1.2,1.9,1.2,2.6c0,0.6-0.5,1.2-1.2,1.2"/>
				</g>
				<g>
					<path fill="#5EE0EA" d="M24.8,17.2c0,0.6-0.5,1.2-1.2,1.2c-0.7,0-1.2-0.5-1.2-1.2c0-0.6,0.5-2.6,1.2-2.6
						C24.2,14.7,24.8,16.6,24.8,17.2z"/>
					<path fill="#30B9D8" d="M23.6,14.7c0.7,0,1.2,1.9,1.2,2.6c0,0.6-0.5,1.2-1.2,1.2"/>
				</g>
				<g>
					<path fill="#5EE0EA" d="M30.4,17.2c0,0.6-0.5,1.2-1.2,1.2c-0.7,0-1.2-0.5-1.2-1.2c0-0.6,0.6-2.6,1.2-2.6
						C29.8,14.7,30.4,16.6,30.4,17.2z"/>
					<path fill="#30B9D8" d="M29.2,14.7c0.7,0,1.2,1.9,1.2,2.6c0,0.6-0.5,1.2-1.2,1.2"/>
				</g>
			</g>
			<g>
				<g>
					<path fill="#5EE0EA" d="M8,23.1c0,0.6-0.5,1.2-1.2,1.2s-1.2-0.5-1.2-1.2s0.5-2.6,1.2-2.6S8,22.5,8,23.1z"/>
					<path fill="#30B9D8" d="M6.8,20.6c0.7,0,1.2,1.9,1.2,2.6s-0.5,1.2-1.2,1.2"/>
				</g>
				<g>
					<path fill="#5EE0EA" d="M13.6,23.1c0,0.6-0.5,1.2-1.2,1.2c-0.7,0-1.2-0.5-1.2-1.2s0.5-2.6,1.2-2.6C13,20.6,13.6,22.5,13.6,23.1
						z"/>
					<path fill="#30B9D8" d="M12.4,20.6c0.7,0,1.2,1.9,1.2,2.6s-0.5,1.2-1.2,1.2"/>
				</g>
				<g>
					<path fill="#5EE0EA" d="M19.2,23.1c0,0.6-0.5,1.2-1.2,1.2c-0.7,0-1.2-0.5-1.2-1.2s0.5-2.6,1.2-2.6
						C18.6,20.6,19.2,22.5,19.2,23.1z"/>
					<path fill="#30B9D8" d="M18,20.6c0.7,0,1.2,1.9,1.2,2.6s-0.5,1.2-1.2,1.2"/>
				</g>
				<g>
					<path fill="#5EE0EA" d="M24.8,23.1c0,0.6-0.5,1.2-1.2,1.2c-0.7,0-1.2-0.5-1.2-1.2s0.5-2.6,1.2-2.6
						C24.2,20.6,24.8,22.5,24.8,23.1z"/>
					<path fill="#30B9D8" d="M23.6,20.6c0.7,0,1.2,1.9,1.2,2.6s-0.5,1.2-1.2,1.2"/>
				</g>
				<g>
					<path fill="#5EE0EA" d="M30.4,23.1c0,0.6-0.5,1.2-1.2,1.2c-0.7,0-1.2-0.5-1.2-1.2s0.6-2.6,1.2-2.6
						C29.8,20.6,30.4,22.5,30.4,23.1z"/>
					<path fill="#30B9D8" d="M29.2,20.6c0.7,0,1.2,1.9,1.2,2.6s-0.5,1.2-1.2,1.2"/>
				</g>
			</g>
		</g>
		<g>
			<g>
				<g>
					<path fill="#5EE0EA" d="M36.1,11.4c0,0.6-0.5,1.2-1.2,1.2c-0.7,0-1.2-0.5-1.2-1.2c0-0.6,0.5-2.6,1.2-2.6
						C35.5,8.8,36.1,10.7,36.1,11.4z"/>
					<path fill="#30B9D8" d="M34.8,8.8c0.7,0,1.2,1.9,1.2,2.6c0,0.6-0.5,1.2-1.2,1.2"/>
				</g>
				<g>
					<path fill="#5EE0EA" d="M41.7,11.4c0,0.6-0.5,1.2-1.2,1.2s-1.2-0.5-1.2-1.2c0-0.6,0.5-2.6,1.2-2.6S41.7,10.7,41.7,11.4z"/>
					<path fill="#30B9D8" d="M40.4,8.8c0.7,0,1.2,1.9,1.2,2.6c0,0.6-0.5,1.2-1.2,1.2"/>
				</g>
				<g>
					<path fill="#5EE0EA" d="M47.3,11.4c0,0.6-0.5,1.2-1.2,1.2s-1.2-0.5-1.2-1.2c0-0.6,0.6-2.6,1.2-2.6S47.3,10.7,47.3,11.4z"/>
					<path fill="#30B9D8" d="M46,8.8c0.7,0,1.2,1.9,1.2,2.6c0,0.6-0.5,1.2-1.2,1.2"/>
				</g>
				<g>
					<path fill="#5EE0EA" d="M52.9,11.4c0,0.6-0.6,1.2-1.2,1.2c-0.7,0-1.2-0.5-1.2-1.2c0-0.6,0.5-2.6,1.2-2.6
						C52.3,8.8,52.9,10.7,52.9,11.4z"/>
					<path fill="#30B9D8" d="M51.6,8.8c0.7,0,1.2,1.9,1.2,2.6c0,0.6-0.6,1.2-1.2,1.2"/>
				</g>
				<g>
					<path fill="#5EE0EA" d="M58.5,11.4c0,0.6-0.5,1.2-1.2,1.2S56,12,56,11.4c0-0.6,0.5-2.6,1.2-2.6S58.5,10.7,58.5,11.4z"/>
					<path fill="#30B9D8" d="M57.2,8.8c0.7,0,1.2,1.9,1.2,2.6c0,0.6-0.5,1.2-1.2,1.2"/>
				</g>
			</g>
			<g>
				<g>
					<path fill="#5EE0EA" d="M36.1,17.2c0,0.6-0.5,1.2-1.2,1.2c-0.7,0-1.2-0.5-1.2-1.2c0-0.6,0.5-2.6,1.2-2.6
						C35.5,14.7,36.1,16.6,36.1,17.2z"/>
					<path fill="#30B9D8" d="M34.8,14.7c0.7,0,1.2,1.9,1.2,2.6c0,0.6-0.5,1.2-1.2,1.2"/>
				</g>
				<g>
					<path fill="#5EE0EA" d="M41.7,17.2c0,0.6-0.5,1.2-1.2,1.2s-1.2-0.5-1.2-1.2c0-0.6,0.5-2.6,1.2-2.6S41.7,16.6,41.7,17.2z"/>
					<path fill="#30B9D8" d="M40.4,14.7c0.7,0,1.2,1.9,1.2,2.6c0,0.6-0.5,1.2-1.2,1.2"/>
				</g>
				<g>
					<path fill="#5EE0EA" d="M47.3,17.2c0,0.6-0.5,1.2-1.2,1.2s-1.2-0.5-1.2-1.2c0-0.6,0.6-2.6,1.2-2.6S47.3,16.6,47.3,17.2z"/>
					<path fill="#30B9D8" d="M46,14.7c0.7,0,1.2,1.9,1.2,2.6c0,0.6-0.5,1.2-1.2,1.2"/>
				</g>
				<g>
					<path fill="#5EE0EA" d="M52.9,17.2c0,0.6-0.6,1.2-1.2,1.2c-0.7,0-1.2-0.5-1.2-1.2c0-0.6,0.5-2.6,1.2-2.6
						C52.3,14.7,52.9,16.6,52.9,17.2z"/>
					<path fill="#30B9D8" d="M51.6,14.7c0.7,0,1.2,1.9,1.2,2.6c0,0.6-0.6,1.2-1.2,1.2"/>
				</g>
				<g>
					<path fill="#5EE0EA" d="M58.5,17.2c0,0.6-0.5,1.2-1.2,1.2S56,17.9,56,17.2c0-0.6,0.5-2.6,1.2-2.6S58.5,16.6,58.5,17.2z"/>
					<path fill="#30B9D8" d="M57.2,14.7c0.7,0,1.2,1.9,1.2,2.6c0,0.6-0.5,1.2-1.2,1.2"/>
				</g>
			</g>
			<g>
				<g>
					<path fill="#5EE0EA" d="M36.1,23.1c0,0.6-0.5,1.2-1.2,1.2c-0.7,0-1.2-0.5-1.2-1.2s0.5-2.6,1.2-2.6
						C35.5,20.6,36.1,22.5,36.1,23.1z"/>
					<path fill="#30B9D8" d="M34.8,20.6c0.7,0,1.2,1.9,1.2,2.6s-0.5,1.2-1.2,1.2"/>
				</g>
				<g>
					<path fill="#5EE0EA" d="M41.7,23.1c0,0.6-0.5,1.2-1.2,1.2s-1.2-0.5-1.2-1.2s0.5-2.6,1.2-2.6S41.7,22.5,41.7,23.1z"/>
					<path fill="#30B9D8" d="M40.4,20.6c0.7,0,1.2,1.9,1.2,2.6s-0.5,1.2-1.2,1.2"/>
				</g>
				<g>
					<path fill="#5EE0EA" d="M47.3,23.1c0,0.6-0.5,1.2-1.2,1.2s-1.2-0.5-1.2-1.2s0.6-2.6,1.2-2.6S47.3,22.5,47.3,23.1z"/>
					<path fill="#30B9D8" d="M46,20.6c0.7,0,1.2,1.9,1.2,2.6s-0.5,1.2-1.2,1.2"/>
				</g>
				<g>
					<path fill="#5EE0EA" d="M52.9,23.1c0,0.6-0.6,1.2-1.2,1.2c-0.7,0-1.2-0.5-1.2-1.2s0.5-2.6,1.2-2.6
						C52.3,20.6,52.9,22.5,52.9,23.1z"/>
					<path fill="#30B9D8" d="M51.6,20.6c0.7,0,1.2,1.9,1.2,2.6s-0.6,1.2-1.2,1.2"/>
				</g>
				<g>
					<path fill="#5EE0EA" d="M58.5,23.1c0,0.6-0.5,1.2-1.2,1.2S56,23.8,56,23.1s0.5-2.6,1.2-2.6S58.5,22.5,58.5,23.1z"/>
					<path fill="#30B9D8" d="M57.2,20.6c0.7,0,1.2,1.9,1.2,2.6s-0.5,1.2-1.2,1.2"/>
				</g>
			</g>
		</g>
	</g>
	<g>
		<g>
			<g>
				<g>
					<path fill="#5EE0EA" d="M8,4.6c0,0.6-0.5,1.2-1.2,1.2S5.5,5.3,5.5,4.6s0.5-2.6,1.2-2.6S8,4,8,4.6z"/>
					<path fill="#30B9D8" d="M6.8,2.1C7.4,2.1,8,4,8,4.6S7.4,5.8,6.8,5.8"/>
				</g>
				<g>
					<path fill="#5EE0EA" d="M13.6,4.6c0,0.6-0.5,1.2-1.2,1.2c-0.7,0-1.2-0.5-1.2-1.2s0.5-2.6,1.2-2.6C13,2.1,13.6,4,13.6,4.6z"/>
					<path fill="#30B9D8" d="M12.4,2.1c0.7,0,1.2,1.9,1.2,2.6S13,5.8,12.4,5.8"/>
				</g>
				<g>
					<path fill="#5EE0EA" d="M19.2,4.6c0,0.6-0.5,1.2-1.2,1.2c-0.7,0-1.2-0.5-1.2-1.2s0.5-2.6,1.2-2.6C18.6,2.1,19.2,4,19.2,4.6z"/>
					<path fill="#30B9D8" d="M18,2.1c0.7,0,1.2,1.9,1.2,2.6S18.6,5.8,18,5.8"/>
				</g>
				<g>
					<path fill="#5EE0EA" d="M24.8,4.6c0,0.6-0.5,1.2-1.2,1.2c-0.7,0-1.2-0.5-1.2-1.2s0.5-2.6,1.2-2.6C24.2,2.1,24.8,4,24.8,4.6z"/>
					<path fill="#30B9D8" d="M23.6,2.1c0.7,0,1.2,1.9,1.2,2.6s-0.5,1.2-1.2,1.2"/>
				</g>
				<g>
					<path fill="#5EE0EA" d="M30.4,4.6c0,0.6-0.5,1.2-1.2,1.2c-0.7,0-1.2-0.5-1.2-1.2s0.6-2.6,1.2-2.6C29.8,2.1,30.4,4,30.4,4.6z"/>
					<path fill="#30B9D8" d="M29.2,2.1c0.7,0,1.2,1.9,1.2,2.6s-0.5,1.2-1.2,1.2"/>
				</g>
			</g>
		</g>
		<g>
			<g>
				<g>
					<path fill="#5EE0EA" d="M36.1,4.6c0,0.6-0.5,1.2-1.2,1.2c-0.7,0-1.2-0.5-1.2-1.2s0.5-2.6,1.2-2.6C35.5,2.1,36.1,4,36.1,4.6z"/>
					<path fill="#30B9D8" d="M34.8,2.1c0.7,0,1.2,1.9,1.2,2.6s-0.5,1.2-1.2,1.2"/>
				</g>
				<g>
					<path fill="#5EE0EA" d="M41.7,4.6c0,0.6-0.5,1.2-1.2,1.2s-1.2-0.5-1.2-1.2s0.5-2.6,1.2-2.6S41.7,4,41.7,4.6z"/>
					<path fill="#30B9D8" d="M40.4,2.1c0.7,0,1.2,1.9,1.2,2.6s-0.5,1.2-1.2,1.2"/>
				</g>
				<g>
					<path fill="#5EE0EA" d="M47.3,4.6c0,0.6-0.5,1.2-1.2,1.2s-1.2-0.5-1.2-1.2s0.6-2.6,1.2-2.6S47.3,4,47.3,4.6z"/>
					<path fill="#30B9D8" d="M46,2.1c0.7,0,1.2,1.9,1.2,2.6S46.7,5.8,46,5.8"/>
				</g>
				<g>
					<path fill="#5EE0EA" d="M52.9,4.6c0,0.6-0.6,1.2-1.2,1.2c-0.7,0-1.2-0.5-1.2-1.2s0.5-2.6,1.2-2.6C52.3,2.1,52.9,4,52.9,4.6z"/>
					<path fill="#30B9D8" d="M51.6,2.1c0.7,0,1.2,1.9,1.2,2.6s-0.6,1.2-1.2,1.2"/>
				</g>
				<g>
					<path fill="#5EE0EA" d="M58.5,4.6c0,0.6-0.5,1.2-1.2,1.2S56,5.3,56,4.6s0.5-2.6,1.2-2.6S58.5,4,58.5,4.6z"/>
					<path fill="#30B9D8" d="M57.2,2.1c0.7,0,1.2,1.9,1.2,2.6s-0.5,1.2-1.2,1.2"/>
				</g>
			</g>
		</g>
	</g>
</g>
</svg>
