<?xml version="1.0" encoding="utf-8"?>
<!-- Generator: Adobe Illustrator 16.0.0, SVG Export Plug-In . SVG Version: 6.00 Build 0)  -->
<!DOCTYPE svg PUBLIC "-//W3C//DTD SVG 1.1//EN" "http://www.w3.org/Graphics/SVG/1.1/DTD/svg11.dtd">
<svg version="1.1" xmlns="http://www.w3.org/2000/svg" xmlns:xlink="http://www.w3.org/1999/xlink" x="0px" y="0px" width="65px"
	 height="65px" viewBox="0 0 65 65" enable-background="new 0 0 65 65" xml:space="preserve">
<g id="Layer_1">
	<g>
		<g>
			<g>
				<g>
					<g>
						<g>
							<g>
								<g>
									<g>
										<g>
											<g>
												<g>
													<path fill="#9AC1B2" d="M20.879,18.235c6.418-6.426,16.825-6.421,23.239-0.006"/>
												</g>
												<g>
													<path fill="#475651" d="M20.879,20.67c-0.623,0-1.246-0.237-1.72-0.712c-0.952-0.951-0.952-2.492-0.002-3.443
														c3.562-3.567,8.302-5.532,13.343-5.532c5.039,0,9.777,1.963,13.34,5.525c0.951,0.951,0.951,2.492,0,3.443
														s-2.492,0.951-3.443,0c-2.645-2.644-6.158-4.099-9.896-4.099c-3.74,0-7.255,1.457-9.899,4.104
														C22.127,20.433,21.503,20.67,20.879,20.67z"/>
												</g>
											</g>
											<g>
												<g>
													<line fill="#9AC1B2" x1="32.503" y1="3.435" x2="32.503" y2="13.134"/>
												</g>
												<g>
													<path fill="#475651" d="M32.503,15.568c-1.345,0-2.435-1.09-2.435-2.435V3.435C30.068,2.09,31.158,1,32.503,1
														s2.435,1.09,2.435,2.435v9.699C34.938,14.479,33.848,15.568,32.503,15.568z"/>
												</g>
											</g>
										</g>
									</g>
								</g>
							</g>
						</g>
					</g>
				</g>
				<g>
					<g>
						<path fill="#41E09F" d="M27.168,27.355c2.939-2.945,7.716-2.946,10.665,0"/>
					</g>
					<g>
						<path fill="#475651" d="M37.833,29.79c-0.623,0-1.247-0.237-1.722-0.712c-0.966-0.966-2.249-1.497-3.614-1.497l0,0
							c-1.364,0-2.644,0.53-3.606,1.494c-0.95,0.95-2.493,0.954-3.443,0.004c-0.952-0.951-0.954-2.492-0.004-3.443
							c1.882-1.887,4.385-2.925,7.052-2.926h0.001c2.665,0,5.171,1.038,7.057,2.923c0.951,0.951,0.951,2.492,0.001,3.444
							C39.079,29.553,38.456,29.79,37.833,29.79z"/>
					</g>
				</g>
			</g>
			<g>
				<g>
					<g>
						<g>
							<g>
								<g>
									<g>
										<g>
											<g>
												<g>
													<path fill="#9AC1B2" d="M44.119,46.765c-6.418,6.426-16.825,6.421-23.239,0.006"/>
												</g>
												<g>
													<path fill="#475651" d="M32.498,54.018c-5.039,0-9.777-1.963-13.34-5.525c-0.951-0.951-0.951-2.492,0-3.443
														s2.492-0.951,3.443,0c2.644,2.644,6.158,4.099,9.896,4.099c3.74,0,7.255-1.457,9.899-4.104
														c0.949-0.952,2.491-0.951,3.443-0.002c0.952,0.951,0.952,2.492,0.002,3.443C42.277,52.053,37.539,54.018,32.498,54.018
														z"/>
												</g>
											</g>
											<g>
												<g>
													<line fill="#9AC1B2" x1="32.495" y1="61.565" x2="32.495" y2="51.866"/>
												</g>
												<g>
													<path fill="#475651" d="M32.495,64c-1.345,0-2.435-1.09-2.435-2.435v-9.699c0-1.345,1.09-2.435,2.435-2.435
														s2.435,1.09,2.435,2.435v9.699C34.93,62.91,33.84,64,32.495,64z"/>
												</g>
											</g>
										</g>
									</g>
								</g>
							</g>
						</g>
					</g>
				</g>
				<g>
					<g>
						<path fill="#41E09F" d="M37.832,37.645c-2.941,2.945-7.718,2.946-10.665,0"/>
					</g>
					<g>
						<path fill="#475651" d="M32.5,42.29c-2.665,0-5.17-1.038-7.055-2.924c-0.951-0.951-0.951-2.491,0-3.443
							c0.951-0.95,2.492-0.95,3.443,0c0.966,0.965,2.249,1.496,3.612,1.496h0.001c1.364,0,2.645-0.531,3.608-1.495
							c0.949-0.952,2.49-0.953,3.443-0.002c0.95,0.951,0.952,2.492,0.001,3.443c-1.882,1.886-4.386,2.924-7.051,2.925H32.5z"/>
					</g>
				</g>
			</g>
		</g>
		<g>
			<g>
				<g>
					<g>
						<g>
							<g>
								<g>
									<g>
										<g>
											<g>
												<g>
													<path fill="#9AC1B2" d="M46.765,20.881c6.424,6.419,6.421,16.822,0.006,23.237"/>
												</g>
												<g>
													<path fill="#475651" d="M46.771,46.554c-0.624,0-1.246-0.238-1.722-0.714c-0.951-0.95-0.951-2.491,0-3.443
														c2.643-2.643,4.098-6.157,4.098-9.896c0-3.739-1.458-7.255-4.104-9.897c-0.951-0.951-0.951-2.493-0.001-3.443
														c0.95-0.954,2.493-0.952,3.443-0.002c3.566,3.562,5.531,8.302,5.531,13.343c0,5.039-1.961,9.776-5.524,13.339
														C48.017,46.315,47.393,46.554,46.771,46.554z"/>
												</g>
											</g>
											<g>
												<g>
													<line fill="#9AC1B2" x1="61.565" y1="32.504" x2="51.867" y2="32.504"/>
												</g>
												<g>
													<path fill="#475651" d="M61.565,34.938h-9.698c-1.345,0-2.435-1.09-2.435-2.435s1.09-2.435,2.435-2.435h9.698
														c1.345,0,2.435,1.09,2.435,2.435S62.91,34.938,61.565,34.938z"/>
												</g>
											</g>
										</g>
									</g>
								</g>
							</g>
						</g>
					</g>
				</g>
				<g>
					<g>
						<path fill="#41E09F" d="M37.645,27.169c2.945,2.939,2.947,7.716,0,10.664"/>
					</g>
					<g>
						<path fill="#475651" d="M37.645,40.269c-0.622,0-1.246-0.237-1.722-0.713c-0.951-0.951-0.951-2.493-0.001-3.444
							c0.965-0.965,1.497-2.249,1.497-3.613s-0.531-2.645-1.494-3.605c-0.953-0.951-0.954-2.492-0.004-3.443
							c0.949-0.952,2.492-0.954,3.443-0.004c1.886,1.881,2.924,4.386,2.925,7.052c0,2.666-1.038,5.172-2.922,7.058
							C38.892,40.031,38.268,40.269,37.645,40.269z"/>
					</g>
				</g>
			</g>
			<g>
				<g>
					<g>
						<g>
							<g>
								<g>
									<g>
										<g>
											<g>
												<g>
													<path fill="#9AC1B2" d="M18.235,44.118c-6.424-6.419-6.421-16.823-0.006-23.237"/>
												</g>
												<g>
													<path fill="#475651" d="M18.235,46.554c-0.623,0-1.246-0.238-1.721-0.713c-3.567-3.562-5.531-8.302-5.532-13.343
														c0-5.039,1.962-9.777,5.525-13.339c0.951-0.952,2.492-0.952,3.443,0c0.951,0.95,0.951,2.492,0,3.443
														c-2.643,2.643-4.099,6.156-4.099,9.895c0,3.74,1.458,7.256,4.104,9.898c0.952,0.951,0.952,2.493,0.001,3.443
														C19.482,46.315,18.857,46.554,18.235,46.554z"/>
												</g>
											</g>
											<g>
												<g>
													<line fill="#9AC1B2" x1="3.435" y1="32.495" x2="13.133" y2="32.495"/>
												</g>
												<g>
													<path fill="#475651" d="M13.133,34.93H3.435C2.09,34.93,1,33.84,1,32.495s1.09-2.435,2.435-2.435h9.698
														c1.345,0,2.435,1.09,2.435,2.435S14.478,34.93,13.133,34.93z"/>
												</g>
											</g>
										</g>
									</g>
								</g>
							</g>
						</g>
					</g>
				</g>
				<g>
					<g>
						<path fill="#41E09F" d="M27.355,37.831c-2.945-2.939-2.947-7.718,0-10.665"/>
					</g>
					<g>
						<path fill="#475651" d="M27.355,40.267c-0.624,0-1.245-0.236-1.721-0.712c-1.884-1.882-2.923-4.387-2.924-7.053
							c0-2.666,1.038-5.173,2.923-7.058c0.949-0.951,2.492-0.951,3.443,0c0.951,0.95,0.951,2.492,0,3.443
							c-0.964,0.965-1.496,2.248-1.496,3.613c0,1.364,0.532,2.646,1.495,3.606c0.95,0.951,0.953,2.492,0.003,3.444
							C28.603,40.028,27.979,40.267,27.355,40.267z"/>
					</g>
				</g>
			</g>
		</g>
	</g>
</g>
<g id="nyt_x5F_exporter_x5F_info" display="none">
</g>
</svg>
