<?xml version="1.0" encoding="utf-8"?>
<!-- Generator: Adobe Illustrator 16.0.0, SVG Export Plug-In . SVG Version: 6.00 Build 0)  -->
<!DOCTYPE svg PUBLIC "-//W3C//DTD SVG 1.1//EN" "http://www.w3.org/Graphics/SVG/1.1/DTD/svg11.dtd">
<svg version="1.1" id="Layer_1" xmlns="http://www.w3.org/2000/svg" xmlns:xlink="http://www.w3.org/1999/xlink" x="0px" y="0px"
	 width="64px" height="64px" viewBox="0 0 64 64" enable-background="new 0 0 64 64" xml:space="preserve">
<g>
	<g>
		<circle fill="#329908" cx="32" cy="27.2" r="26.5"/>
		<path fill="#207700" d="M50.7,8.4c10.3,10.3,10.3,27.1,0,37.5c-10.3,10.3-27.1,10.3-37.5,0"/>
	</g>
	<polygon fill="#FFFFFF" points="36.2,50.1 32.4,51.8 28.5,50.1 25.5,14.9 32.4,1.9 39.3,14.9 	"/>
	<polyline fill="#E5E5E5" points="32.4,1.9 39.3,14.9 36.2,50.1 32.4,51.8 	"/>
	<rect x="29" y="53" fill="#D81107" width="7" height="8"/>
	<polyline fill="#AA2011" points="29,53 36,53 36,61 	"/>
	<path fill="#34B515" d="M40.1,52c0,1.1-0.9,2-2,2H26.7c-1.1,0-2-0.9-2-2l0,0c0-1.1,0.9-2,2-2h11.4C39.2,50,40.1,50.9,40.1,52
		L40.1,52z"/>
	<g>
		<path fill="#FFC114" d="M40.1,52c0,1.1-0.9,2-2,2H26.7c-1.1,0-2-0.9-2-2l0,0c0-1.1,0.9-2,2-2h11.4C39.2,50,40.1,50.9,40.1,52
			L40.1,52z"/>
		<path fill="#FCA12A" d="M27,50h11.1c1.1,0,2,0.8,2,2l0,0c0,1.1-0.9,2-2,2"/>
	</g>
	<g>
		<path fill="#34B515" d="M27,61.5c0-1,1-1.5,1.7-1.5H36c0.7,0,2,0.3,2,1.5l0,0c0,1.2-1.2,1.5-2,1.5h-7.3C28,63,27,62.8,27,61.5
			L27,61.5z"/>
		<path fill="#0B8E00" d="M36,63h-7.3C28,63,27,62.8,27,61.5l0,0c0-1,1-1.5,1.7-1.5"/>
	</g>
	<rect x="29" y="55" fill="#FFC41D" width="7" height="1"/>
	<rect x="29" y="58" fill="#FFC41D" width="7" height="1"/>
</g>
</svg>
