<?xml version="1.0" encoding="utf-8"?>
<!-- Generator: Adobe Illustrator 16.0.0, SVG Export Plug-In . SVG Version: 6.00 Build 0)  -->
<!DOCTYPE svg PUBLIC "-//W3C//DTD SVG 1.1//EN" "http://www.w3.org/Graphics/SVG/1.1/DTD/svg11.dtd">
<svg version="1.1" id="Layer_1" xmlns="http://www.w3.org/2000/svg" xmlns:xlink="http://www.w3.org/1999/xlink" x="0px" y="0px"
	 width="64px" height="64px" viewBox="0 0 64 64" enable-background="new 0 0 64 64" xml:space="preserve">
<g>
	<circle fill="#DB4D62" cx="32" cy="32" r="28.9"/>
	<path fill="#BF3650" d="M32,3.1C48,3.1,60.9,16.1,60.9,32S48,60.9,32,60.9"/>
	<g>
		<g>
			<g>
				<path fill="#D5E2DF" d="M45.5,57.7c-0.1,0-0.2-0.1-0.3-0.2c0.3,0.5,3.1-3.5,7.9-6c4.8-2.5,9.7-2.5,9.5-3c0,0.1,0,0.2,0,0.3
					L45.5,57.7z"/>
				<path fill="#BECCCA" d="M45.5,12.9c4.1,8.2,11.3,22.3,1.7,27.3c-9.6,5-17-8.9-21.4-17L45.5,12.9z"/>
				<path fill="#D5E2DF" d="M35.7,18l11.6,22.1c0.2-0.1,0.1-0.1,0,0c-9.6,5-17-8.9-21.4-17L35.7,18z"/>
				<path fill="#F4CF31" d="M46.6,17.1c3.1,6.2,7,17.6-0.2,21.4c-7.3,3.8-14.4-6-17.7-12.1L46.6,17.1z"/>
				<path fill="#F7E15E" d="M37.6,21.8l8.7,16.7c0.2-0.2,0.1-0.1,0-0.1c-7.3,3.8-14.4-6-17.7-12.1L37.6,21.8z"/>
				<g>
					<path fill="#BECCCA" d="M52.1,52c0.2,0.4,0.8,0.4,1.4,0.2l0,0c0.6-0.3,0.9-0.8,0.7-1.2l-6.1-11.6c-0.2-0.4-0.8-0.4-1.4-0.1l0,0
						c-0.6,0.3-0.9,0.8-0.7,1.2L52.1,52z"/>
					<path fill="#D5E2DF" d="M46.7,39.1L46.7,39.1c-0.6,0.3-0.9,0.8-0.7,1.2L52.1,52c0.2,0.4,0.8,0.4,1.4,0.2l0,0"/>
				</g>
				
					<rect x="44.3" y="53" transform="matrix(-0.8864 0.463 -0.463 -0.8864 126.9327 75.7263)" fill="#D5E2DF" width="19.7" height="0.8"/>
				
					<rect x="44.9" y="55.5" transform="matrix(-0.8854 0.4648 -0.4648 -0.8854 119.3191 82.3131)" fill="#BECCCA" width="9.2" height="0.8"/>
				<path fill="#BECCCA" d="M53.2,51.5c0.1-0.1,0.2-0.1,0.4-0.2l0,2.3l-7.9,4.1c-0.1,0-0.2-0.1-0.3-0.2C45.5,58.1,48.4,54,53.2,51.5
					z"/>
			</g>
			<path fill="#F7E15E" d="M46.6,24.9c0.9,2.4,2.1,4.1,2.5,4c0.4-0.2,0-2.3-1-4.7c-0.9-2.4-2.1-4.1-2.5-4
				C45.3,20.5,45.7,22.5,46.6,24.9z"/>
			<path fill="#FFF2B3" d="M28.7,26.5c0.1,0.2,0.4,0.2,0.8,0.1l16.8-8.8c0.3-0.2,0.5-0.5,0.4-0.7l0,0c-0.1-0.2-0.4-0.2-0.8-0.1
				l-16.8,8.8C28.8,26,28.6,26.3,28.7,26.5L28.7,26.5z"/>
		</g>
		<g>
			<g>
				<path fill="#D5E2DF" d="M18.5,57.7c0.1,0,0.2-0.1,0.3-0.2c-0.3,0.5-3.1-3.5-7.9-6C6,49,1.1,49,1.4,48.5c0,0.1,0,0.2,0,0.3
					L18.5,57.7z"/>
				<path fill="#D5E2DF" d="M18.5,12.9C14.4,21,7.2,35.1,16.8,40.1c9.6,5,17-8.9,21.4-17L18.5,12.9z"/>
				<path fill="#BECCCA" d="M28.3,18L16.8,40.2c-0.2-0.1-0.1-0.1,0,0c9.6,5,17-8.9,21.4-17L28.3,18z"/>
				<path fill="#F7E15E" d="M17.4,17.1c-3.1,6.2-7,17.6,0.2,21.4c7.3,3.8,14.4-6,17.7-12.1L17.4,17.1z"/>
				<path fill="#F4CF31" d="M26.4,21.8l-8.7,16.7c-0.2-0.2-0.1-0.1,0-0.1c7.3,3.8,14.4-6,17.7-12.1L26.4,21.8z"/>
				<g>
					<path fill="#D5E2DF" d="M11.9,52c-0.2,0.4-0.8,0.4-1.4,0.2l0,0c-0.6-0.3-0.9-0.8-0.7-1.2l6.1-11.6c0.2-0.4,0.8-0.4,1.4-0.1l0,0
						c0.6,0.3,0.9,0.8,0.7,1.2L11.9,52z"/>
					<path fill="#BECCCA" d="M17.3,39.1L17.3,39.1c0.6,0.3,0.9,0.8,0.7,1.2L11.9,52c-0.2,0.4-0.8,0.4-1.4,0.2l0,0"/>
				</g>
				<rect x="0" y="53" transform="matrix(0.8864 0.463 -0.463 0.8864 25.8602 1.5232)" fill="#D5E2DF" width="19.7" height="0.8"/>
				
					<rect x="9.9" y="55.5" transform="matrix(0.8854 0.4648 -0.4648 0.8854 27.6249 -0.3322)" fill="#BECCCA" width="9.2" height="0.8"/>
				<path fill="#BECCCA" d="M10.8,51.5c-0.1-0.1-0.2-0.1-0.4-0.2l0,2.3l7.9,4.1c0.1,0,0.2-0.1,0.3-0.2C18.5,58.1,15.6,54,10.8,51.5z
					"/>
			</g>
			<path fill="#FFF2B3" d="M17.4,24.9c-0.9,2.4-2.1,4.1-2.5,4c-0.4-0.2,0-2.3,1-4.7c0.9-2.4,2.1-4.1,2.5-4
				C18.7,20.5,18.3,22.5,17.4,24.9z"/>
			<path fill="#FFF2B3" d="M35.3,26.5c-0.1,0.2-0.4,0.2-0.8,0.1l-16.8-8.8c-0.3-0.2-0.5-0.5-0.4-0.7l0,0c0.1-0.2,0.4-0.2,0.8-0.1
				l16.8,8.8C35.2,26,35.4,26.3,35.3,26.5L35.3,26.5z"/>
		</g>
	</g>
	<circle fill="#FFF2B3" cx="24.6" cy="7.7" r="0.5"/>
	<circle fill="#FFF2B3" cx="25.7" cy="10" r="0.2"/>
	<circle fill="#FFF2B3" cx="31.2" cy="10.2" r="2.4"/>
	<circle fill="#F7E15E" cx="30.9" cy="15.2" r="0.4"/>
	<circle fill="#F7E15E" cx="35.3" cy="14.8" r="0.5"/>
	<circle fill="#FFF2B3" cx="26.8" cy="13.8" r="0.4"/>
	<circle fill="#FFF2B3" cx="35.1" cy="7.8" r="1"/>
	<circle fill="#FFF2B3" cx="36.9" cy="11.2" r="0.3"/>
	<circle fill="#FFF2B3" cx="41.1" cy="12.3" r="0.3"/>
	<circle fill="#FFF2B3" cx="33.7" cy="17.1" r="0.5"/>
	<circle fill="#F7E15E" cx="23.9" cy="12.3" r="1.1"/>
	<circle fill="#FFF2B3" cx="41.7" cy="9.2" r="0.6"/>
	<circle fill="#F7E15E" cx="39.1" cy="14.3" r="0.8"/>
	<g>
		<g>
			<g>
				<g>
					<path fill="#BF3650" d="M28.9,42.8c1.3,0,2.4,0.7,2.8,1.8c0,0.1,0.2,0.2,0.3,0.1c0.1,0,0.3,0,0.3-0.1c0.4-1.1,1.5-1.8,2.8-1.8
						c1.6,0,3,1.2,3,2.6c0,0.5-0.2,1-0.5,1.5l0,0c0,0,0,0,0,0L32,53.6L26.4,47c0,0,0,0,0,0c0,0,0,0,0,0c-0.3-0.4-0.5-0.9-0.5-1.5
						C25.9,44,27.2,42.8,28.9,42.8z"/>
				</g>
			</g>
			<g>
				<g>
					<path fill="#DB4D62" d="M32,44.8c0.1,0,0.3,0,0.3-0.1c0.4-1.1,1.5-1.8,2.8-1.8c1.6,0,3,1.2,3,2.6c0,0.5-0.2,1-0.5,1.5l0,0
						c0,0,0,0,0,0L32,53.6"/>
				</g>
			</g>
		</g>
	</g>
</g>
</svg>
