<?xml version="1.0" encoding="utf-8"?>
<!-- Generator: Adobe Illustrator 16.0.0, SVG Export Plug-In . SVG Version: 6.00 Build 0)  -->
<!DOCTYPE svg PUBLIC "-//W3C//DTD SVG 1.1//EN" "http://www.w3.org/Graphics/SVG/1.1/DTD/svg11.dtd">
<svg version="1.1" xmlns="http://www.w3.org/2000/svg" xmlns:xlink="http://www.w3.org/1999/xlink" x="0px" y="0px" width="65px"
	 height="65px" viewBox="0 0 65 65" enable-background="new 0 0 65 65" xml:space="preserve">
<g id="Layer_1">
	<g>
		<g>
			<path fill="#FF6D00" d="M64.5,60.047V32.625c0-2.444-1.303-4.697-3.418-5.921L35.915,12.17c-2.114-1.217-4.721-1.217-6.834,0
				L3.918,26.704C1.803,27.927,0.5,30.18,0.5,32.625v27.423H64.5z"/>
			<path fill="#D65730" d="M51.326,60.047V25.155c0-0.578-0.311-1.113-0.811-1.402l-5.965-3.443c-0.5-0.289-1.117-0.289-1.617,0
				l-5.963,3.443c-0.501,0.289-0.81,0.824-0.81,1.402v34.893H51.326z"/>
			<g>
				<path fill="#0E63AA" d="M64.5,60.047V14.385c0-0.758-0.404-1.457-1.061-1.836l-7.805-4.507c-0.654-0.378-1.463-0.378-2.117,0
					l-7.803,4.507c-0.656,0.379-1.061,1.078-1.061,1.836v45.662H64.5z"/>
				<g>
					<g>
						<rect x="51.383" y="56.646" fill="#085487" width="0.693" height="3.401"/>
						<path fill="#77BBE0" d="M55.471,53.585L55,52.771c-0.039-0.068-0.113-0.11-0.191-0.11h-0.58l0.41-0.41
							c0.057-0.056,0.078-0.138,0.057-0.214l-0.242-0.907c-0.021-0.076-0.08-0.137-0.156-0.156l-0.908-0.243
							c-0.076-0.021-0.158,0.001-0.213,0.057l-0.41,0.41v-0.58c0-0.079-0.043-0.151-0.111-0.191l-0.814-0.47
							c-0.068-0.039-0.152-0.039-0.221,0l-0.814,0.47c-0.066,0.04-0.109,0.112-0.109,0.191v0.58l-0.41-0.41
							c-0.057-0.056-0.137-0.077-0.215-0.057l-0.906,0.243c-0.076,0.02-0.137,0.08-0.156,0.156l-0.244,0.907
							c-0.02,0.077,0.002,0.158,0.059,0.214l0.41,0.41h-0.58c-0.08,0-0.152,0.042-0.191,0.11l-0.471,0.814
							c-0.039,0.068-0.039,0.152,0,0.221l0.471,0.813c0.039,0.068,0.111,0.11,0.191,0.11h0.58l-0.41,0.41
							c-0.057,0.056-0.078,0.138-0.059,0.214l0.244,0.908c0.02,0.076,0.08,0.136,0.156,0.156l0.906,0.243
							c0.078,0.02,0.158-0.002,0.215-0.058l0.41-0.41v0.58c0,0.079,0.043,0.152,0.109,0.191l0.814,0.471
							c0.068,0.039,0.152,0.039,0.221,0l0.814-0.471c0.068-0.039,0.111-0.112,0.111-0.191v-0.58l0.41,0.41
							c0.055,0.056,0.137,0.078,0.213,0.058l0.908-0.243c0.076-0.021,0.135-0.08,0.156-0.156l0.242-0.908
							c0.021-0.076,0-0.158-0.057-0.214l-0.41-0.41h0.58c0.078,0,0.152-0.042,0.191-0.11l0.471-0.813
							C55.51,53.738,55.51,53.653,55.471,53.585z"/>
						<path fill="#8BCBEF" d="M54.295,52.593l-0.066-0.067h0.135l0.275-0.275c0.057-0.056,0.078-0.138,0.057-0.214l-0.242-0.907
							c-0.021-0.076-0.08-0.137-0.156-0.156l-0.908-0.243c-0.076-0.021-0.158,0.001-0.213,0.057l-0.41,0.41v-0.58
							c0-0.079-0.043-0.151-0.111-0.191l-0.814-0.47c-0.068-0.039-0.152-0.039-0.221,0l-0.814,0.47
							c-0.066,0.04-0.109,0.112-0.109,0.191v0.58l-0.41-0.41c-0.057-0.056-0.137-0.077-0.215-0.057l-0.906,0.243
							c-0.076,0.02-0.137,0.08-0.156,0.156l-0.244,0.907c-0.02,0.077,0.002,0.158,0.059,0.214l0.275,0.275h0.135l-0.068,0.067
							l0.068,0.067h-0.135l-0.275,0.275c-0.057,0.056-0.078,0.137-0.059,0.214l0.244,0.907c0.02,0.076,0.08,0.137,0.156,0.156
							l0.906,0.243c0.078,0.021,0.158-0.001,0.215-0.058l0.41-0.41v0.58c0,0.08,0.043,0.152,0.109,0.192l0.814,0.47
							c0.068,0.039,0.152,0.039,0.221,0l0.814-0.47c0.068-0.04,0.111-0.112,0.111-0.192v-0.58l0.41,0.41
							c0.055,0.057,0.137,0.078,0.213,0.058l0.908-0.243c0.076-0.021,0.135-0.08,0.156-0.156l0.242-0.907
							c0.021-0.077,0-0.158-0.057-0.214l-0.275-0.275h-0.135L54.295,52.593z"/>
					</g>
					<g>
						<rect x="55.883" y="56.646" fill="#085487" width="0.693" height="3.401"/>
						<path fill="#77BBE0" d="M59.971,53.585L59.5,52.771c-0.039-0.068-0.113-0.11-0.191-0.11h-0.58l0.41-0.41
							c0.057-0.056,0.078-0.138,0.057-0.214l-0.242-0.907c-0.021-0.076-0.08-0.137-0.156-0.156l-0.908-0.243
							c-0.076-0.021-0.158,0.001-0.213,0.057l-0.41,0.41v-0.58c0-0.079-0.043-0.151-0.111-0.191l-0.814-0.47
							c-0.068-0.039-0.152-0.039-0.221,0l-0.814,0.47c-0.066,0.04-0.109,0.112-0.109,0.191v0.58l-0.41-0.41
							c-0.057-0.056-0.137-0.077-0.215-0.057l-0.906,0.243c-0.076,0.02-0.137,0.08-0.156,0.156l-0.244,0.907
							c-0.02,0.077,0.002,0.158,0.059,0.214l0.41,0.41h-0.58c-0.08,0-0.152,0.042-0.191,0.11l-0.471,0.814
							c-0.039,0.068-0.039,0.152,0,0.221l0.471,0.813c0.039,0.068,0.111,0.11,0.191,0.11h0.58l-0.41,0.41
							c-0.057,0.056-0.078,0.138-0.059,0.214l0.244,0.908c0.02,0.076,0.08,0.136,0.156,0.156l0.906,0.243
							c0.078,0.02,0.158-0.002,0.215-0.058l0.41-0.41v0.58c0,0.079,0.043,0.152,0.109,0.191l0.814,0.471
							c0.068,0.039,0.152,0.039,0.221,0l0.814-0.471c0.068-0.039,0.111-0.112,0.111-0.191v-0.58l0.41,0.41
							c0.055,0.056,0.137,0.078,0.213,0.058l0.908-0.243c0.076-0.021,0.135-0.08,0.156-0.156l0.242-0.908
							c0.021-0.076,0-0.158-0.057-0.214l-0.41-0.41h0.58c0.078,0,0.152-0.042,0.191-0.11l0.471-0.813
							C60.01,53.738,60.01,53.653,59.971,53.585z"/>
						<path fill="#8BCBEF" d="M58.795,52.593l-0.066-0.067h0.135l0.275-0.275c0.057-0.056,0.078-0.138,0.057-0.214l-0.242-0.907
							c-0.021-0.076-0.08-0.137-0.156-0.156l-0.908-0.243c-0.076-0.021-0.158,0.001-0.213,0.057l-0.41,0.41v-0.58
							c0-0.079-0.043-0.151-0.111-0.191l-0.814-0.47c-0.068-0.039-0.152-0.039-0.221,0l-0.814,0.47
							c-0.066,0.04-0.109,0.112-0.109,0.191v0.58l-0.41-0.41c-0.057-0.056-0.137-0.077-0.215-0.057l-0.906,0.243
							c-0.076,0.02-0.137,0.08-0.156,0.156l-0.244,0.907c-0.02,0.077,0.002,0.158,0.059,0.214l0.275,0.275h0.135l-0.068,0.067
							l0.068,0.067h-0.135l-0.275,0.275c-0.057,0.056-0.078,0.137-0.059,0.214l0.244,0.907c0.02,0.076,0.08,0.137,0.156,0.156
							l0.906,0.243c0.078,0.021,0.158-0.001,0.215-0.058l0.41-0.41v0.58c0,0.08,0.043,0.152,0.109,0.192l0.814,0.47
							c0.068,0.039,0.152,0.039,0.221,0l0.814-0.47c0.068-0.04,0.111-0.112,0.111-0.192v-0.58l0.41,0.41
							c0.055,0.057,0.137,0.078,0.213,0.058l0.908-0.243c0.076-0.021,0.135-0.08,0.156-0.156l0.242-0.907
							c0.021-0.077,0-0.158-0.057-0.214l-0.275-0.275h-0.135L58.795,52.593z"/>
					</g>
					<g>
						<rect x="60.383" y="56.646" fill="#085487" width="0.693" height="3.401"/>
						<path fill="#77BBE0" d="M64.471,53.585L64,52.771c-0.039-0.068-0.113-0.11-0.191-0.11h-0.58l0.41-0.41
							c0.057-0.056,0.078-0.138,0.057-0.214l-0.242-0.907c-0.021-0.076-0.08-0.137-0.156-0.156l-0.908-0.243
							c-0.076-0.021-0.158,0.001-0.213,0.057l-0.41,0.41v-0.58c0-0.079-0.043-0.151-0.111-0.191l-0.814-0.47
							c-0.068-0.039-0.152-0.039-0.221,0l-0.814,0.47c-0.066,0.04-0.109,0.112-0.109,0.191v0.58l-0.41-0.41
							c-0.057-0.056-0.137-0.077-0.215-0.057l-0.906,0.243c-0.076,0.02-0.137,0.08-0.156,0.156l-0.244,0.907
							c-0.02,0.077,0.002,0.158,0.059,0.214l0.41,0.41h-0.58c-0.08,0-0.152,0.042-0.191,0.11l-0.471,0.814
							c-0.039,0.068-0.039,0.152,0,0.221l0.471,0.813c0.039,0.068,0.111,0.11,0.191,0.11h0.58l-0.41,0.41
							c-0.057,0.056-0.078,0.138-0.059,0.214l0.244,0.908c0.02,0.076,0.08,0.136,0.156,0.156l0.906,0.243
							c0.078,0.02,0.158-0.002,0.215-0.058l0.41-0.41v0.58c0,0.079,0.043,0.152,0.109,0.191l0.814,0.471
							c0.068,0.039,0.152,0.039,0.221,0l0.814-0.471c0.068-0.039,0.111-0.112,0.111-0.191v-0.58l0.41,0.41
							c0.055,0.056,0.137,0.078,0.213,0.058l0.908-0.243c0.076-0.021,0.135-0.08,0.156-0.156l0.242-0.908
							c0.021-0.076,0-0.158-0.057-0.214l-0.41-0.41h0.58c0.078,0,0.152-0.042,0.191-0.11l0.471-0.813
							C64.51,53.738,64.51,53.653,64.471,53.585z"/>
						<path fill="#8BCBEF" d="M63.295,52.593l-0.066-0.067h0.135l0.275-0.275c0.057-0.056,0.078-0.138,0.057-0.214l-0.242-0.907
							c-0.021-0.076-0.08-0.137-0.156-0.156l-0.908-0.243c-0.076-0.021-0.158,0.001-0.213,0.057l-0.41,0.41v-0.58
							c0-0.079-0.043-0.151-0.111-0.191l-0.814-0.47c-0.068-0.039-0.152-0.039-0.221,0l-0.814,0.47
							c-0.066,0.04-0.109,0.112-0.109,0.191v0.58l-0.41-0.41c-0.057-0.056-0.137-0.077-0.215-0.057l-0.906,0.243
							c-0.076,0.02-0.137,0.08-0.156,0.156l-0.244,0.907c-0.02,0.077,0.002,0.158,0.059,0.214l0.275,0.275h0.135l-0.068,0.067
							l0.068,0.067h-0.135l-0.275,0.275c-0.057,0.056-0.078,0.137-0.059,0.214l0.244,0.907c0.02,0.076,0.08,0.137,0.156,0.156
							l0.906,0.243c0.078,0.021,0.158-0.001,0.215-0.058l0.41-0.41v0.58c0,0.08,0.043,0.152,0.109,0.192l0.814,0.47
							c0.068,0.039,0.152,0.039,0.221,0l0.814-0.47c0.068-0.04,0.111-0.112,0.111-0.192v-0.58l0.41,0.41
							c0.055,0.057,0.137,0.078,0.213,0.058l0.908-0.243c0.076-0.021,0.135-0.08,0.156-0.156l0.242-0.907
							c0.021-0.077,0-0.158-0.057-0.214l-0.275-0.275h-0.135L63.295,52.593z"/>
					</g>
				</g>
				<path fill="#1A89D3" d="M55.635,8.042c-0.654-0.378-1.463-0.378-2.117,0l-7.803,4.507c-0.656,0.379-1.061,1.078-1.061,1.836
					v45.662"/>
				<path fill="#6AB6D8" d="M64.5,14.385c0-0.758-0.404-1.457-1.061-1.836l-7.805-4.507c-0.654-0.378-1.463-0.378-2.117,0
					l-7.803,4.507c-0.656,0.379-1.061,1.078-1.061,1.836v6.121l0.735-0.425l2.621,1.514c0.273,0.157,0.61,0.157,0.884,0l2.62-1.514
					l2.62,1.514c0.274,0.157,0.611,0.157,0.885,0l2.62-1.514l2.621,1.514c0.272,0.157,0.611,0.157,0.885,0l2.619-1.514l0.735,0.425
					V14.385z"/>
				<path fill="#8BCBEF" d="M48.011,21.595c0.273,0.157,0.61,0.157,0.884,0l2.62-1.514l1.407,0.812l2.713-12.852
					c-0.654-0.378-1.463-0.378-2.117,0l-7.803,4.507c-0.656,0.379-1.061,1.078-1.061,1.836v6.121l0.735-0.425L48.011,21.595z"/>
			</g>
			<path fill="#BF4617" d="M37.15,60.047V32.87c0-0.451-0.242-0.867-0.632-1.093l-4.646-2.683c-0.389-0.225-0.871-0.225-1.26,0
				l-4.645,2.683c-0.391,0.226-0.631,0.642-0.631,1.093v27.178H37.15z"/>
			<path fill="#FF8B00" d="M29.081,12.17L3.918,26.704C1.803,27.927,0.5,30.18,0.5,32.625v27.423"/>
			<g>
				<g>
					<path fill="#A3D0EF" d="M7.022,60.047c-0.296-1.532-1.642-2.691-3.261-2.691S0.796,58.515,0.5,60.047H7.022z"/>
					<path fill="#A3D0EF" d="M12.248,60.047c-0.296-1.532-1.643-2.691-3.262-2.691s-2.965,1.159-3.261,2.691H12.248z"/>
					<path fill="#A3D0EF" d="M17.474,60.047c-0.297-1.532-1.643-2.691-3.262-2.691s-2.965,1.159-3.263,2.691H17.474z"/>
					<path fill="#A3D0EF" d="M22.698,60.047c-0.296-1.532-1.642-2.691-3.261-2.691s-2.966,1.159-3.262,2.691H22.698z"/>
					<path fill="#A3D0EF" d="M27.924,60.047c-0.297-1.532-1.643-2.691-3.262-2.691s-2.965,1.159-3.262,2.691H27.924z"/>
					<path fill="#A3D0EF" d="M33.148,60.047c-0.297-1.532-1.642-2.691-3.262-2.691c-1.619,0-2.965,1.159-3.261,2.691H33.148z"/>
					<path fill="#A3D0EF" d="M38.374,60.047c-0.296-1.532-1.643-2.691-3.262-2.691s-2.965,1.159-3.261,2.691H38.374z"/>
					<path fill="#A3D0EF" d="M43.6,60.047c-0.297-1.532-1.643-2.691-3.262-2.691s-2.965,1.159-3.262,2.691H43.6z"/>
					<path fill="#A3D0EF" d="M48.824,60.047c-0.296-1.532-1.642-2.691-3.262-2.691c-1.619,0-2.965,1.159-3.261,2.691H48.824z"/>
					<path fill="#A3D0EF" d="M54.05,60.047c-0.297-1.532-1.643-2.691-3.263-2.691c-1.618,0-2.964,1.159-3.26,2.691H54.05z"/>
					<path fill="#A3D0EF" d="M59.274,60.047c-0.296-1.532-1.642-2.691-3.261-2.691s-2.966,1.159-3.262,2.691H59.274z"/>
					<path fill="#A3D0EF" d="M64.5,60.047c-0.297-1.532-1.643-2.691-3.262-2.691s-2.965,1.159-3.261,2.691H64.5z"/>
				</g>
			</g>
			<path fill="#FFC200" d="M16.537,33.661l-0.977-1.693c-0.082-0.143-0.233-0.23-0.398-0.23h-1.088l-1.024-1.773
				c-0.123-0.213-0.349-0.344-0.595-0.344H9.539c-0.245,0-0.471,0.131-0.594,0.344l-0.682,1.179H7.072
				c-0.135,0-0.26,0.071-0.326,0.188l-0.801,1.387c-0.066,0.117-0.066,0.26,0,0.377l0.801,1.387
				c0.066,0.115,0.191,0.188,0.326,0.188H8.35l0.596,1.032c0.123,0.212,0.349,0.343,0.594,0.343h2.916
				c0.159,0,0.298-0.07,0.418-0.166c0.086,0.098,0.201,0.166,0.334,0.166h1.955c0.165,0,0.316-0.088,0.398-0.229l0.977-1.693
				C16.621,33.978,16.621,33.803,16.537,33.661z"/>
			<path fill="#FF8B00" d="M5.982,10.567L7.34,8.215c0.113-0.199,0.324-0.321,0.554-0.321h1.512l1.423-2.464
				c0.17-0.296,0.484-0.478,0.826-0.478h4.051c0.341,0,0.656,0.182,0.824,0.478l0.947,1.638h1.655c0.188,0,0.36,0.099,0.453,0.262
				l1.112,1.927c0.092,0.162,0.092,0.36,0,0.523l-1.112,1.926c-0.093,0.16-0.265,0.261-0.453,0.261h-1.774l-0.828,1.435
				c-0.168,0.294-0.483,0.476-0.824,0.476h-4.051c-0.221,0-0.414-0.098-0.58-0.23c-0.121,0.136-0.279,0.23-0.465,0.23H7.894
				c-0.229,0-0.44-0.122-0.554-0.318l-1.357-2.353C5.867,11.007,5.867,10.764,5.982,10.567z"/>
			<path fill="#FFC200" d="M22.872,45.494L21.895,43.8c-0.082-0.143-0.233-0.23-0.398-0.23h-1.088l-1.025-1.772
				c-0.122-0.214-0.348-0.345-0.594-0.345h-2.916c-0.245,0-0.471,0.131-0.594,0.345l-0.682,1.178h-1.191
				c-0.135,0-0.26,0.072-0.326,0.188l-0.801,1.387c-0.066,0.117-0.066,0.26,0,0.377l0.801,1.387
				c0.066,0.115,0.191,0.188,0.326,0.188h1.277l0.596,1.032c0.123,0.212,0.349,0.343,0.594,0.343h2.916
				c0.159,0,0.297-0.07,0.418-0.166c0.086,0.098,0.201,0.166,0.334,0.166h1.955c0.165,0,0.316-0.088,0.398-0.229l0.978-1.693
				C22.955,45.811,22.955,45.636,22.872,45.494z"/>
			<path fill="#FFC200" d="M15.053,24.344l0.498-0.862c0.042-0.072,0.119-0.117,0.203-0.117h0.555l0.521-0.903
				c0.062-0.109,0.178-0.176,0.303-0.176h1.486c0.125,0,0.24,0.066,0.303,0.176l0.346,0.6h0.608c0.068,0,0.132,0.037,0.166,0.097
				l0.407,0.706c0.035,0.061,0.035,0.133,0,0.192l-0.407,0.707c-0.034,0.059-0.098,0.095-0.166,0.095h-0.651l-0.303,0.526
				c-0.062,0.108-0.178,0.175-0.303,0.175h-1.486c-0.082,0-0.151-0.036-0.213-0.085c-0.043,0.05-0.102,0.085-0.17,0.085h-0.996
				c-0.084,0-0.161-0.045-0.203-0.117l-0.498-0.863C15.01,24.506,15.01,24.417,15.053,24.344z"/>
		</g>
		<g>
			<rect x="35.556" y="51.047" fill="#085487" width="1.834" height="9"/>
			<path fill="#77BBE0" d="M46.369,42.947l-1.243-2.154c-0.104-0.181-0.298-0.293-0.507-0.293h-1.534l1.085-1.085
				c0.148-0.147,0.206-0.363,0.15-0.565l-0.643-2.402c-0.054-0.201-0.212-0.358-0.413-0.413l-2.402-0.644
				c-0.202-0.055-0.418,0.004-0.565,0.151l-1.085,1.085v-1.535c0-0.209-0.112-0.401-0.294-0.506l-2.153-1.244
				c-0.181-0.104-0.403-0.104-0.584,0l-2.153,1.244c-0.182,0.104-0.293,0.297-0.293,0.506v1.535l-1.086-1.085
				c-0.147-0.147-0.363-0.205-0.566-0.151l-2.401,0.644c-0.201,0.055-0.36,0.212-0.413,0.413l-0.644,2.402
				c-0.054,0.203,0.004,0.418,0.151,0.565l1.086,1.085h-1.535c-0.21,0-0.402,0.112-0.506,0.293l-1.245,2.154
				c-0.104,0.181-0.104,0.404,0,0.584l1.245,2.154c0.104,0.181,0.297,0.292,0.506,0.292h1.535l-1.086,1.085
				c-0.147,0.148-0.205,0.363-0.151,0.567l0.644,2.401c0.055,0.201,0.212,0.359,0.413,0.413l2.401,0.645
				c0.203,0.052,0.419-0.005,0.566-0.153l1.086-1.085v1.535c0,0.209,0.111,0.401,0.293,0.507l2.153,1.244
				c0.181,0.104,0.404,0.104,0.584,0l2.153-1.244c0.182-0.105,0.294-0.298,0.294-0.507V49.85l1.085,1.085
				c0.147,0.148,0.363,0.206,0.564,0.153l2.403-0.645c0.201-0.055,0.359-0.212,0.412-0.413l0.644-2.401
				c0.055-0.204-0.002-0.419-0.15-0.567l-1.086-1.085h1.535c0.209,0,0.402-0.111,0.507-0.292l1.243-2.154
				C46.474,43.35,46.474,43.126,46.369,42.947z"/>
			<path fill="#8BCBEF" d="M43.263,40.322l-0.179-0.179h0.357l0.729-0.729c0.148-0.147,0.206-0.363,0.15-0.565l-0.643-2.402
				c-0.054-0.201-0.212-0.358-0.413-0.413l-2.402-0.644c-0.202-0.055-0.418,0.004-0.565,0.151l-1.085,1.085v-1.535
				c0-0.209-0.112-0.401-0.294-0.506l-2.153-1.244c-0.181-0.104-0.403-0.104-0.584,0l-2.153,1.244
				c-0.182,0.104-0.293,0.297-0.293,0.506v1.535l-1.086-1.085c-0.147-0.147-0.363-0.205-0.566-0.151l-2.401,0.644
				c-0.201,0.055-0.36,0.212-0.413,0.413l-0.644,2.402c-0.054,0.203,0.004,0.418,0.151,0.565l0.729,0.729h0.356l-0.179,0.179
				l0.179,0.178h-0.356l-0.729,0.729c-0.147,0.148-0.205,0.363-0.151,0.567l0.644,2.401c0.055,0.201,0.212,0.359,0.413,0.413
				l2.401,0.645c0.203,0.052,0.419-0.005,0.566-0.153l1.086-1.085v1.535c0,0.209,0.111,0.401,0.293,0.507l2.153,1.244
				c0.181,0.104,0.404,0.104,0.584,0l2.153-1.244c0.182-0.105,0.294-0.298,0.294-0.507v-1.535l1.085,1.085
				c0.147,0.148,0.363,0.206,0.564,0.153l2.403-0.645c0.201-0.055,0.359-0.212,0.412-0.413l0.644-2.401
				c0.055-0.204-0.002-0.419-0.15-0.567L43.44,40.5h-0.355L43.263,40.322z"/>
		</g>
	</g>
</g>
<g id="nyt_x5F_exporter_x5F_info" display="none">
</g>
</svg>
