<?xml version="1.0" encoding="utf-8"?>
<!-- Generator: Adobe Illustrator 16.0.0, SVG Export Plug-In . SVG Version: 6.00 Build 0)  -->
<!DOCTYPE svg PUBLIC "-//W3C//DTD SVG 1.1//EN" "http://www.w3.org/Graphics/SVG/1.1/DTD/svg11.dtd">
<svg version="1.1" id="Layer_1" xmlns="http://www.w3.org/2000/svg" xmlns:xlink="http://www.w3.org/1999/xlink" x="0px" y="0px"
	 width="64px" height="64px" viewBox="0 0 64 64" enable-background="new 0 0 64 64" xml:space="preserve">
<g>
	<path fill="#28EAA0" d="M55.1,37.5c0,18.7-10.4,26.2-23.1,26.2c-12.8,0-23.1-7.5-23.1-26.2S19.2,0.3,32,0.3
		C44.8,0.3,55.1,18.8,55.1,37.5z"/>
	<path fill="#12D690" d="M32,0.3c12.8,0,23.1,18.4,23.1,37.1S44.8,63.7,32,63.7"/>
	<g>
		<g>
			<g>
				
					<rect x="12" y="47.1" transform="matrix(0.7071 -0.7071 0.7071 0.7071 -30.5089 24.0111)" fill="#E585A3" width="3.4" height="3.4"/>
			</g>
			<g>
				<circle fill="#137EBA" cx="20.1" cy="48.8" r="2"/>
				
					<rect x="24.1" y="47.1" transform="matrix(0.7071 -0.7071 0.7071 0.7071 -26.9581 32.5834)" fill="#E585A3" width="3.4" height="3.4"/>
			</g>
			<g>
				<circle fill="#137EBA" cx="32.2" cy="48.8" r="2"/>
				
					<rect x="36.3" y="47.1" transform="matrix(0.7071 -0.7071 0.7071 0.7071 -23.4079 41.1543)" fill="#E585A3" width="3.4" height="3.4"/>
			</g>
			<g>
				<circle fill="#137EBA" cx="44.3" cy="48.8" r="2"/>
				
					<rect x="48.4" y="47.1" transform="matrix(0.7071 -0.7071 0.7071 0.7071 -19.8572 49.7266)" fill="#E585A3" width="3.4" height="3.4"/>
			</g>
		</g>
		<g>
			<g>
				<g>
					
						<rect x="30.5" y="1.3" transform="matrix(0.7071 -0.7071 0.7071 0.7071 7.2763 23.6486)" fill="#E585A3" width="3.4" height="3.4"/>
				</g>
			</g>
			<g>
				<g>
					
						<rect x="24.1" y="7.6" transform="matrix(0.7071 -0.7071 0.7071 0.7071 0.9733 21.0138)" fill="#E585A3" width="3.4" height="3.4"/>
				</g>
				<g>
					<circle fill="#137EBA" cx="32.2" cy="9.3" r="2"/>
					
						<rect x="36.3" y="7.6" transform="matrix(0.7071 -0.7071 0.7071 0.7071 4.5235 29.5847)" fill="#E585A3" width="3.4" height="3.4"/>
				</g>
			</g>
			<g>
				<g>
					
						<rect x="18.4" y="14.5" transform="matrix(0.7071 -0.7071 0.7071 0.7071 -5.5843 18.9342)" fill="#E585A3" width="3.4" height="3.4"/>
				</g>
				<g>
					<circle fill="#137EBA" cx="26.4" cy="16.2" r="2"/>
					
						<rect x="30.5" y="14.5" transform="matrix(0.7071 -0.7071 0.7071 0.7071 -2.0341 27.5051)" fill="#E585A3" width="3.4" height="3.4"/>
				</g>
				<g>
					<circle fill="#137EBA" cx="38.5" cy="16.2" r="2"/>
					
						<rect x="42.6" y="14.5" transform="matrix(0.7071 -0.7071 0.7071 0.7071 1.5166 36.0774)" fill="#E585A3" width="3.4" height="3.4"/>
				</g>
			</g>
			<g>
				<g>
					<polyline fill="#E585A3" points="13.7,20.1 16.1,22.5 13.7,24.9 					"/>
				</g>
				<g>
					<circle fill="#137EBA" cx="20.1" cy="22.5" r="2"/>
					
						<rect x="24.1" y="20.8" transform="matrix(0.7071 -0.7071 0.7071 0.7071 -8.3372 24.8703)" fill="#E585A3" width="3.4" height="3.4"/>
				</g>
				<g>
					<circle fill="#137EBA" cx="32.2" cy="22.5" r="2"/>
					
						<rect x="36.3" y="20.8" transform="matrix(0.7071 -0.7071 0.7071 0.7071 -4.787 33.4412)" fill="#E585A3" width="3.4" height="3.4"/>
				</g>
				<g>
					<circle fill="#137EBA" cx="44.3" cy="22.5" r="2"/>
					<polyline fill="#E585A3" points="50.1,24.9 47.7,22.5 50.1,20.1 					"/>
				</g>
			</g>
			<g>
				<g>
					<circle fill="#137EBA" cx="14.3" cy="29.4" r="2"/>
					
						<rect x="18.4" y="27.7" transform="matrix(0.7071 -0.7071 0.7071 0.7071 -14.8948 22.7908)" fill="#E585A3" width="3.4" height="3.4"/>
				</g>
				<g>
					<circle fill="#137EBA" cx="26.4" cy="29.4" r="2"/>
					
						<rect x="30.5" y="27.7" transform="matrix(0.7071 -0.7071 0.7071 0.7071 -11.3446 31.3617)" fill="#E585A3" width="3.4" height="3.4"/>
				</g>
				<g>
					<circle fill="#137EBA" cx="38.5" cy="29.4" r="2"/>
					
						<rect x="42.6" y="27.7" transform="matrix(0.7071 -0.7071 0.7071 0.7071 -7.7939 39.934)" fill="#E585A3" width="3.4" height="3.4"/>
				</g>
				<g>
					<circle fill="#137EBA" cx="50.6" cy="29.4" r="2"/>
				</g>
			</g>
			<g>
				<g>
					
						<rect x="12" y="34" transform="matrix(0.7071 -0.7071 0.7071 0.7071 -21.1984 20.1546)" fill="#E585A3" width="3.4" height="3.4"/>
				</g>
				<g>
					<circle fill="#137EBA" cx="20.1" cy="35.7" r="2"/>
					
						<rect x="24.1" y="34" transform="matrix(0.7071 -0.7071 0.7071 0.7071 -17.6476 28.7268)" fill="#E585A3" width="3.4" height="3.4"/>
				</g>
				<g>
					<circle fill="#137EBA" cx="32.2" cy="35.7" r="2"/>
					
						<rect x="36.3" y="34" transform="matrix(0.7071 -0.7071 0.7071 0.7071 -14.0975 37.2977)" fill="#E585A3" width="3.4" height="3.4"/>
				</g>
				<g>
					<circle fill="#137EBA" cx="44.3" cy="35.7" r="2"/>
					
						<rect x="48.4" y="34" transform="matrix(0.7071 -0.7071 0.7071 0.7071 -10.5467 45.87)" fill="#E585A3" width="3.4" height="3.4"/>
				</g>
			</g>
			<g>
				<g>
					<circle fill="#137EBA" cx="14.3" cy="42.5" r="2"/>
					
						<rect x="18.4" y="40.8" transform="matrix(0.7071 -0.7071 0.7071 0.7071 -24.2053 26.6473)" fill="#E585A3" width="3.4" height="3.4"/>
				</g>
				<g>
					<circle fill="#137EBA" cx="26.4" cy="42.5" r="2"/>
					
						<rect x="30.5" y="40.8" transform="matrix(0.7071 -0.7071 0.7071 0.7071 -20.6551 35.2182)" fill="#E585A3" width="3.4" height="3.4"/>
				</g>
				<g>
					<circle fill="#137EBA" cx="38.5" cy="42.5" r="2"/>
					
						<rect x="42.6" y="40.8" transform="matrix(0.7071 -0.7071 0.7071 0.7071 -17.1043 43.7905)" fill="#E585A3" width="3.4" height="3.4"/>
				</g>
				<g>
					<circle fill="#137EBA" cx="50.6" cy="42.5" r="2"/>
				</g>
			</g>
			<g>
				<g>
					
						<rect x="18.4" y="54" transform="matrix(0.7071 -0.7071 0.7071 0.7071 -33.5157 30.5038)" fill="#E585A3" width="3.4" height="3.4"/>
				</g>
				<g>
					<circle fill="#137EBA" cx="26.4" cy="55.7" r="2"/>
					
						<rect x="30.5" y="54" transform="matrix(0.7071 -0.7071 0.7071 0.7071 -29.9656 39.0747)" fill="#E585A3" width="3.4" height="3.4"/>
				</g>
				<g>
					<circle fill="#137EBA" cx="38.5" cy="55.7" r="2"/>
					
						<rect x="42.6" y="54" transform="matrix(0.7071 -0.7071 0.7071 0.7071 -26.4148 47.647)" fill="#E585A3" width="3.4" height="3.4"/>
				</g>
			</g>
			<g>
				<g>
					<path fill="#137EBA" d="M30.1,62c0-1.1,0.9-2,2-2s2,0.9,2,2"/>
				</g>
			</g>
		</g>
	</g>
	<path fill="#1AB0D3" d="M55.1,35.8c-0.1-2.9-0.4-5.7-1-8.5"/>
	<g>
		
			<ellipse transform="matrix(0.8357 0.5491 -0.5491 0.8357 9.9059 -9.1541)" opacity="0.7" fill="#F3FEFF" cx="20.3" cy="12" rx="3" ry="8.8"/>
		
			<ellipse transform="matrix(0.8357 0.5491 -0.5491 0.8357 9.4458 -8.7674)" opacity="0.6" fill="#F3FEFF" cx="19.4" cy="11.4" rx="2" ry="5.7"/>
		
			<ellipse transform="matrix(0.9676 0.2526 -0.2526 0.9676 7.1084 -2.437)" opacity="0.7" fill="#F3FEFF" cx="13" cy="26.5" rx="1.4" ry="4"/>
		<path opacity="0.3" fill="#757575" d="M32,0.3c12.8,0,23.1,18.4,23.1,37.1S44.8,63.7,32,63.7"/>
	</g>
</g>
</svg>
