<?xml version="1.0" encoding="utf-8"?>
<!-- Generator: Adobe Illustrator 16.0.0, SVG Export Plug-In . SVG Version: 6.00 Build 0)  -->
<!DOCTYPE svg PUBLIC "-//W3C//DTD SVG 1.1//EN" "http://www.w3.org/Graphics/SVG/1.1/DTD/svg11.dtd">
<svg version="1.1" id="Layer_1" xmlns="http://www.w3.org/2000/svg" xmlns:xlink="http://www.w3.org/1999/xlink" x="0px" y="0px"
	 width="64px" height="64px" viewBox="0 0 64 64" enable-background="new 0 0 64 64" xml:space="preserve">
<g>
	<g>
		<g>
			<g>
				<path fill="#B2B1A1" d="M27,22.1c0,2.1-1.7,3.9-3.9,3.9h-0.2c-2.1,0-3.9-1.7-3.9-3.9V4.9C19,2.7,20.7,1,22.9,1h0.2
					C25.3,1,27,2.7,27,4.9V22.1z"/>
				<path fill="#969587" d="M23.1,1L23.1,1C25.3,1,27,2.7,27,4.9v17c0,2.1-1.8,3.9-3.9,3.9l0,0"/>
				<path fill="#D8D5C5" d="M26,6.8C26,6.9,25.9,7,25.8,7h-5.5C20.1,7,20,6.9,20,6.8V6.2C20,6.1,20.1,6,20.2,6h5.5
					C25.9,6,26,6.1,26,6.2V6.8z"/>
				<path fill="#D8D5C5" d="M26,10.8c0,0.1-0.1,0.2-0.2,0.2h-5.5c-0.1,0-0.2-0.1-0.2-0.2v-0.5c0-0.1,0.1-0.2,0.2-0.2h5.5
					c0.1,0,0.2,0.1,0.2,0.2V10.8z"/>
				<path fill="#D8D5C5" d="M26,14.8c0,0.1-0.1,0.2-0.2,0.2h-5.5c-0.1,0-0.2-0.1-0.2-0.2v-0.5c0-0.1,0.1-0.2,0.2-0.2h5.5
					c0.1,0,0.2,0.1,0.2,0.2V14.8z"/>
				<path fill="#D8D5C5" d="M26,18.8c0,0.1-0.1,0.2-0.2,0.2h-5.5c-0.1,0-0.2-0.1-0.2-0.2v-0.5c0-0.1,0.1-0.2,0.2-0.2h5.5
					c0.1,0,0.2,0.1,0.2,0.2V18.8z"/>
			</g>
			<g>
				<path fill="#B2B1A1" d="M36,22.1c0,2.1-1.7,3.9-3.9,3.9h-0.2c-2.1,0-3.9-1.7-3.9-3.9V4.9C28,2.7,29.7,1,31.9,1h0.2
					C34.3,1,36,2.7,36,4.9V22.1z"/>
				<path fill="#969587" d="M32.1,1L32.1,1C34.3,1,36,2.7,36,4.9v17c0,2.1-1.8,3.9-3.9,3.9l0,0"/>
				<path fill="#D8D5C5" d="M35,6.8C35,6.9,34.9,7,34.8,7h-5.5C29.1,7,29,6.9,29,6.8V6.2C29,6.1,29.1,6,29.2,6h5.5
					C34.9,6,35,6.1,35,6.2V6.8z"/>
				<path fill="#D8D5C5" d="M35,10.8c0,0.1-0.1,0.2-0.2,0.2h-5.5c-0.1,0-0.2-0.1-0.2-0.2v-0.5c0-0.1,0.1-0.2,0.2-0.2h5.5
					c0.1,0,0.2,0.1,0.2,0.2V10.8z"/>
				<path fill="#D8D5C5" d="M35,14.8c0,0.1-0.1,0.2-0.2,0.2h-5.5c-0.1,0-0.2-0.1-0.2-0.2v-0.5c0-0.1,0.1-0.2,0.2-0.2h5.5
					c0.1,0,0.2,0.1,0.2,0.2V14.8z"/>
				<path fill="#D8D5C5" d="M35,18.8c0,0.1-0.1,0.2-0.2,0.2h-5.5c-0.1,0-0.2-0.1-0.2-0.2v-0.5c0-0.1,0.1-0.2,0.2-0.2h5.5
					c0.1,0,0.2,0.1,0.2,0.2V18.8z"/>
			</g>
			<g>
				<path fill="#B2B1A1" d="M45,22.1c0,2.1-1.7,3.9-3.9,3.9h-0.2c-2.1,0-3.9-1.7-3.9-3.9V4.9C37,2.7,38.7,1,40.9,1h0.2
					C43.3,1,45,2.7,45,4.9V22.1z"/>
				<path fill="#969587" d="M41.1,1L41.1,1C43.3,1,45,2.7,45,4.9v17c0,2.1-1.8,3.9-3.9,3.9l0,0"/>
				<path fill="#D8D5C5" d="M44,6.8C44,6.9,43.9,7,43.8,7h-5.5C38.1,7,38,6.9,38,6.8V6.2C38,6.1,38.1,6,38.2,6h5.5
					C43.9,6,44,6.1,44,6.2V6.8z"/>
				<path fill="#D8D5C5" d="M44,10.8c0,0.1-0.1,0.2-0.2,0.2h-5.5c-0.1,0-0.2-0.1-0.2-0.2v-0.5c0-0.1,0.1-0.2,0.2-0.2h5.5
					c0.1,0,0.2,0.1,0.2,0.2V10.8z"/>
				<path fill="#D8D5C5" d="M44,14.8c0,0.1-0.1,0.2-0.2,0.2h-5.5c-0.1,0-0.2-0.1-0.2-0.2v-0.5c0-0.1,0.1-0.2,0.2-0.2h5.5
					c0.1,0,0.2,0.1,0.2,0.2V14.8z"/>
				<path fill="#D8D5C5" d="M44,18.8c0,0.1-0.1,0.2-0.2,0.2h-5.5c-0.1,0-0.2-0.1-0.2-0.2v-0.5c0-0.1,0.1-0.2,0.2-0.2h5.5
					c0.1,0,0.2,0.1,0.2,0.2V18.8z"/>
			</g>
		</g>
		<g>
			<path fill="#E29E3B" d="M50.4,25.5c0,2-1.6,3.5-3.7,3.5H16.4c-2,0-3.7-1.5-3.7-3.5l0,0c0-2,1.6-3.5,3.7-3.5h30.3
				C48.7,22,50.4,23.5,50.4,25.5L50.4,25.5z"/>
			<path fill="#C68D30" d="M46.7,22c2,0,3.7,1.3,3.7,3.4l0,0c0,2-1.6,3.6-3.7,3.6H16.4c-2,0-3.7-1.6-3.7-3.6l0,0"/>
			<path fill="#CE1906" d="M58,45c0,5.5-4.5,10-10,10H16c-5.5,0-10-4.5-10-10V35c0-5.5,4.5-10,10-10h32c5.5,0,10,4.5,10,10V45z"/>
			<path fill="#B51815" d="M58,35v10c0,5.5-4.5,10-10,10H16c-5.5,0-10-5.2-10-10.7V35"/>
			<path fill="#B2B1A1" d="M63.4,53c0,5.6-4.5,10-10.2,10H10.8C5.2,63,0.6,58.6,0.6,53l0,0c0-5.6,4.5-10,10.1-10h42.4
				C58.8,43,63.4,47.4,63.4,53L63.4,53z"/>
			<path fill="#969587" d="M63.4,53.1L63.4,53.1c0,5.6-4.5,9.9-10.2,9.9H10.8C5.2,63,0.6,58.6,0.6,53l0,0"/>
			<g>
				<circle fill="#EEFCFF" cx="18" cy="34.8" r="5.9"/>
				<path fill="#DEF0F9" d="M18,29c3.2,0,5.9,2.6,5.9,5.9s-2.6,5.9-5.9,5.9"/>
				<g>
					<g>
						<path fill="#AAC3CE" d="M18.1,31.1c0,0.1,0,0.1-0.1,0.1l0,0c-0.1,0-0.1,0-0.1-0.1v-1.3c0-0.1,0-0.1,0.1-0.1l0,0
							c0.1,0,0.1,0,0.1,0.1V31.1z"/>
						<path fill="#AAC3CE" d="M18.1,39.8c0,0.1,0,0.1-0.1,0.1l0,0c-0.1,0-0.1,0-0.1-0.1v-1.3c0-0.1,0-0.1,0.1-0.1l0,0
							c0.1,0,0.1,0,0.1,0.1V39.8z"/>
					</g>
					<g>
						<path fill="#AAC3CE" d="M21.7,35c-0.1,0-0.1,0-0.1-0.1l0,0c0-0.1,0-0.1,0.1-0.1H23c0.1,0,0.1,0,0.1,0.1l0,0
							c0,0.1,0,0.1-0.1,0.1H21.7z"/>
						<path fill="#AAC3CE" d="M13,35c-0.1,0-0.1,0-0.1-0.1l0,0c0-0.1,0-0.1,0.1-0.1h1.3c0.1,0,0.1,0,0.1,0.1l0,0
							c0,0.1,0,0.1-0.1,0.1H13z"/>
					</g>
				</g>
				<g>
					<g>
						<path fill="#AAC3CE" d="M20.7,32.3c0,0-0.1,0-0.2,0l0,0c0,0,0-0.1,0-0.2l0.9-0.9c0,0,0.1,0,0.2,0l0,0c0,0,0,0.1,0,0.2
							L20.7,32.3z"/>
						<path fill="#AAC3CE" d="M14.6,38.4c0,0-0.1,0-0.2,0l0,0c0,0,0-0.1,0-0.2l0.9-0.9c0,0,0.1,0,0.2,0l0,0c0,0,0,0.1,0,0.2
							L14.6,38.4z"/>
					</g>
					<g>
						<path fill="#AAC3CE" d="M20.5,37.5c0,0,0-0.1,0-0.2l0,0c0,0,0.1,0,0.2,0l0.9,0.9c0,0,0,0.1,0,0.2l0,0c0,0-0.1,0-0.2,0
							L20.5,37.5z"/>
						<path fill="#AAC3CE" d="M14.4,31.4c0,0,0-0.1,0-0.2l0,0c0,0,0.1,0,0.2,0l0.9,0.9c0,0,0,0.1,0,0.2l0,0c0,0-0.1,0-0.2,0
							L14.4,31.4z"/>
					</g>
				</g>
			</g>
			<path fill="#D8D5C5" d="M9.1,44.8L9.1,44.8c0-0.5,0.4-0.8,0.9-0.8h44c0.5,0,0.9,0.3,0.9,0.8l0,0"/>
			<g>
				<g>
					<g>
						<circle fill="#DDDCCC" cx="12.7" cy="53.3" r="6.2"/>
						<g>
							<rect x="12" y="45.6" fill="#DDDCCC" width="2" height="3"/>
							<rect x="12" y="58" fill="#DDDCCC" width="2" height="3"/>
						</g>
						<g>
							
								<rect x="16.2" y="47.2" transform="matrix(0.7071 0.7071 -0.7071 0.7071 39.5758 2.1098)" fill="#DDDCCC" width="2.1" height="3.2"/>
							
								<rect x="7.1" y="56.3" transform="matrix(0.7071 0.7071 -0.7071 0.7071 43.318 11.1456)" fill="#DDDCCC" width="2.1" height="3.2"/>
						</g>
						<g>
							<rect x="18" y="52" fill="#DDDCCC" width="2.7" height="2"/>
							<rect x="5" y="52" fill="#DDDCCC" width="3" height="2"/>
						</g>
						<g>
							
								<rect x="16.2" y="56.3" transform="matrix(-0.7071 0.7071 -0.7071 -0.7071 70.3474 86.5858)" fill="#DDDCCC" width="2.1" height="3.2"/>
							
								<rect x="7.1" y="47.2" transform="matrix(-0.7076 0.7067 -0.7067 -0.7076 48.5154 77.5749)" fill="#DDDCCC" width="2.1" height="3.2"/>
						</g>
					</g>
					<g>
						<circle fill="#DDDCCC" cx="51.3" cy="53.3" r="6.2"/>
						<g>
							<rect x="50" y="45.4" fill="#DDDCCC" width="2" height="3"/>
							<rect x="50" y="58" fill="#DDDCCC" width="2" height="3"/>
						</g>
						<g>
							
								<rect x="54.7" y="47.2" transform="matrix(0.7071 0.7071 -0.7071 0.7071 50.868 -25.1518)" fill="#DDDCCC" width="2.1" height="3.2"/>
							
								<rect x="45.7" y="56.3" transform="matrix(0.7071 0.7071 -0.7071 0.7071 54.6102 -16.116)" fill="#DDDCCC" width="2.1" height="3.2"/>
						</g>
						<g>
							<rect x="56" y="52" fill="#DDDCCC" width="3" height="2"/>
							<rect x="43" y="52" fill="#DDDCCC" width="3" height="2"/>
						</g>
						<g>
							
								<rect x="54.7" y="56.3" transform="matrix(-0.7071 0.7071 -0.7071 -0.7071 136.1627 59.3242)" fill="#DDDCCC" width="2.1" height="3.2"/>
							
								<rect x="45.7" y="47.2" transform="matrix(-0.7071 0.7071 -0.7071 -0.7071 114.3492 50.2873)" fill="#DDDCCC" width="2.1" height="3.2"/>
						</g>
					</g>
				</g>
				<g>
					<circle fill="#DDDCCC" cx="32" cy="53.3" r="6.2"/>
					<g>
						
							<rect x="24.9" y="53.8" transform="matrix(-0.3192 -0.9477 0.9477 -0.3192 -18.2568 97.6468)" fill="#DDDCCC" width="2.1" height="3.2"/>
						
							<rect x="37" y="49.7" transform="matrix(-0.3181 -0.948 0.948 -0.3181 1.5219 103.7098)" fill="#DDDCCC" width="2.1" height="3.2"/>
					</g>
					<g>
						
							<rect x="25.2" y="48.9" transform="matrix(0.4447 -0.8957 0.8957 0.4447 -30.6412 51.5829)" fill="#DDDCCC" width="2.1" height="3.2"/>
						
							<rect x="36.6" y="54.6" transform="matrix(0.4443 -0.8959 0.8959 0.4443 -29.3724 65.0178)" fill="#DDDCCC" width="2.1" height="3.2"/>
					</g>
					<g>
						
							<rect x="28.9" y="45.7" transform="matrix(0.9478 -0.319 0.319 0.9478 -13.5177 12.0269)" fill="#DDDCCC" width="2.1" height="3.2"/>
						
							<rect x="33" y="57.8" transform="matrix(0.9478 -0.319 0.319 0.9478 -17.1678 13.9589)" fill="#DDDCCC" width="2.1" height="3.2"/>
					</g>
					<g>
						
							<rect x="33.8" y="46" transform="matrix(0.8953 0.4454 -0.4454 0.8953 24.8575 -10.5344)" fill="#DDDCCC" width="2.1" height="3.2"/>
						
							<rect x="28.1" y="57.5" transform="matrix(0.8957 0.4447 -0.4447 0.8957 29.3058 -6.8054)" fill="#DDDCCC" width="2.1" height="3.2"/>
					</g>
				</g>
			</g>
		</g>
	</g>
	<g>
		<circle fill="#FF4133" cx="12.7" cy="53.3" r="2.9"/>
		<path fill="#B51815" d="M12.7,50.4c1.6,0,2.9,1.3,2.9,2.9c0,1.6-1.3,2.9-2.9,2.9"/>
	</g>
	<g>
		<circle fill="#FF4133" cx="32" cy="53.3" r="2.9"/>
		<path fill="#B51815" d="M32,50.4c1.6,0,2.9,1.3,2.9,2.9c0,1.6-1.3,2.9-2.9,2.9"/>
	</g>
	<g>
		<circle fill="#FF4133" cx="51.3" cy="53.3" r="2.9"/>
		<path fill="#B51815" d="M51.3,50.4c1.6,0,2.9,1.3,2.9,2.9c0,1.6-1.3,2.9-2.9,2.9"/>
	</g>
	<path fill="#FF4133" d="M48,26.5c0,0.3-0.2,0.5-0.5,0.5h-32c-0.3,0-0.5-0.2-0.5-0.5l0,0c0-0.3,0.2-0.5,0.5-0.5h32
		C47.8,26,48,26.2,48,26.5L48,26.5z"/>
	<path fill="#870E0E" d="M32,38.2c0,0.5-0.4,0.8-0.8,0.8h-0.3c-0.5,0-0.8-0.4-0.8-0.8v-6.3c0-0.5,0.4-0.8,0.8-0.8h0.3
		c0.5,0,0.8,0.4,0.8,0.8V38.2z"/>
	<path fill="#870E0E" d="M36,38.2c0,0.5-0.4,0.8-0.8,0.8h-0.3c-0.5,0-0.8-0.4-0.8-0.8v-6.3c0-0.5,0.4-0.8,0.8-0.8h0.3
		c0.5,0,0.8,0.4,0.8,0.8V38.2z"/>
	<path fill="#870E0E" d="M40,38.2c0,0.5-0.4,0.8-0.8,0.8h-0.3c-0.5,0-0.8-0.4-0.8-0.8v-6.3c0-0.5,0.4-0.8,0.8-0.8h0.3
		c0.5,0,0.8,0.4,0.8,0.8V38.2z"/>
	<path fill="#870E0E" d="M44,38.2c0,0.5-0.4,0.8-0.8,0.8h-0.3c-0.5,0-0.8-0.4-0.8-0.8v-6.3c0-0.5,0.4-0.8,0.8-0.8h0.3
		c0.5,0,0.8,0.4,0.8,0.8V38.2z"/>
	<path fill="#FF4133" d="M18.3,35.6c0,0.1-0.1,0.3-0.3,0.3l0,0c-0.2,0-0.3-0.1-0.3-0.3v-2.8c0-0.1,0.1-0.3,0.3-0.3l0,0
		c0.2,0,0.3,0.1,0.3,0.3V35.6z"/>
</g>
</svg>
