<?xml version="1.0" encoding="utf-8"?>
<!-- Generator: Adobe Illustrator 16.0.0, SVG Export Plug-In . SVG Version: 6.00 Build 0)  -->
<!DOCTYPE svg PUBLIC "-//W3C//DTD SVG 1.1//EN" "http://www.w3.org/Graphics/SVG/1.1/DTD/svg11.dtd">
<svg version="1.1" id="Layer_1" xmlns="http://www.w3.org/2000/svg" xmlns:xlink="http://www.w3.org/1999/xlink" x="0px" y="0px"
	 width="64px" height="64px" viewBox="0 0 64 64" enable-background="new 0 0 64 64" xml:space="preserve">
<g>
	<g>
		<circle fill="#3CC676" cx="32" cy="32" r="30.5"/>
		<path fill="#28A566" d="M53.6,10.4c11.9,11.9,11.9,31.2,0,43.1c-11.9,11.9-31.2,11.9-43.1,0"/>
	</g>
	<g>
		<polygon fill="#FCCC32" points="13.1,22 32,12.7 50.9,22 51.5,53.7 32,63.3 12.5,53.7 		"/>
		<polyline fill="#EFAE0C" points="32,12.7 50.9,22 51.5,53.7 32,63.3 		"/>
		<polygon fill="#5E6664" points="5.2,13.7 32,4.4 58.8,13.7 51.5,45.4 32,55 12.5,45.4 		"/>
		<polyline fill="#2F423F" points="32,4.4 58.8,13.7 51.5,45.4 32,55 12.5,45.4 		"/>
		<polyline fill="#16AFC4" points="28.1,46.1 32,48.1 35.9,46.1 		"/>
		<polyline fill="#5E6664" points="20.7,36.1 32.1,32.5 32.1,46.2 20.5,49.3 12.5,45.4 		"/>
		<polygon fill="#404C49" points="54.5,32.1 43.3,36.1 32.1,32.5 32.1,46.2 43.5,49.3 51.5,45.4 		"/>
		<g>
			<g>
				<polygon fill="#FCCC32" points="23,33.3 18,31.4 18,27.8 23,29.8 				"/>
				<polyline fill="#EFAE0C" points="23,30 23,33.3 18,31.4 				"/>
			</g>
			<g>
				<g>
					<polygon fill="#FCCC32" points="41,33.3 46,31.4 46,27.8 41,29.8 					"/>
				</g>
				<g>
					<polyline fill="#EFAE0C" points="41,33.3 46,31.4 46,28 					"/>
				</g>
			</g>
		</g>
		<g>
			<g>
				<polygon fill="#E28FAF" points="14.6,18.1 5.2,13.6 10.5,0.7 21,9.9 				"/>
				<polyline fill="#2F423F" points="10.5,0.7 21,9.9 14.6,18.1 				"/>
			</g>
			<g>
				<polygon fill="#FFCFDE" points="49.4,18.1 58.8,13.6 53.5,0.7 45.5,9.9 				"/>
				<polyline fill="#2F423F" points="53.5,0.7 43,9.9 49.4,18.1 				"/>
			</g>
		</g>
		<polygon fill="#FFCFDE" points="27,39 28.1,40.8 32,42.7 35.9,40.9 37,39 		"/>
		<polyline fill="#E28FAF" points="28.1,40.8 32,42.7 35.9,40.9 37,39 		"/>
	</g>
</g>
</svg>
