<?xml version="1.0" encoding="utf-8"?>
<!-- Generator: Adobe Illustrator 16.0.0, SVG Export Plug-In . SVG Version: 6.00 Build 0)  -->
<!DOCTYPE svg PUBLIC "-//W3C//DTD SVG 1.1//EN" "http://www.w3.org/Graphics/SVG/1.1/DTD/svg11.dtd">
<svg version="1.1" id="Layer_1" xmlns="http://www.w3.org/2000/svg" xmlns:xlink="http://www.w3.org/1999/xlink" x="0px" y="0px"
	 width="64px" height="64px" viewBox="0 0 64 64" enable-background="new 0 0 64 64" xml:space="preserve">
<g>
	<g>
		<path fill="#C3D7DD" d="M58.2,47.1c-0.2,0-0.4-0.1-0.5-0.3l-0.9-1.6c-0.1-0.2-0.1-0.5,0.2-0.7c0.2-0.1,0.5-0.1,0.7,0.2l1,1.7
			c0.1,0.2,0.1,0.3,0,0.5C58.5,47,58.4,47.1,58.2,47.1z M56.2,47h-2c-0.3,0-0.5-0.2-0.5-0.5c0-0.3,0.2-0.5,0.5-0.5h2
			c0.3,0,0.5,0.2,0.5,0.5C56.7,46.8,56.4,47,56.2,47z M52.2,47h-2c-0.3,0-0.5-0.2-0.5-0.5c0-0.3,0.2-0.5,0.5-0.5h2
			c0.3,0,0.5,0.2,0.5,0.5C52.7,46.8,52.4,47,52.2,47z M48.2,47h-2c-0.3,0-0.5-0.2-0.5-0.5c0-0.3,0.2-0.5,0.5-0.5h2
			c0.3,0,0.5,0.2,0.5,0.5C48.7,46.8,48.4,47,48.2,47z M44.2,47h-2c-0.3,0-0.5-0.2-0.5-0.5c0-0.3,0.2-0.5,0.5-0.5h2
			c0.3,0,0.5,0.2,0.5,0.5C44.7,46.8,44.4,47,44.2,47z M40.2,47h-2c-0.3,0-0.5-0.2-0.5-0.5c0-0.3,0.2-0.5,0.5-0.5h2
			c0.3,0,0.5,0.2,0.5,0.5C40.7,46.8,40.4,47,40.2,47z M36.2,47h-2c-0.3,0-0.5-0.2-0.5-0.5c0-0.3,0.2-0.5,0.5-0.5h2
			c0.3,0,0.5,0.2,0.5,0.5C36.7,46.8,36.4,47,36.2,47z M32.2,47h-2c-0.3,0-0.5-0.2-0.5-0.5c0-0.3,0.2-0.5,0.5-0.5h2
			c0.3,0,0.5,0.2,0.5,0.5C32.7,46.8,32.4,47,32.2,47z M28.2,47h-2c-0.3,0-0.5-0.2-0.5-0.5c0-0.3,0.2-0.5,0.5-0.5h2
			c0.3,0,0.5,0.2,0.5,0.5C28.7,46.8,28.4,47,28.2,47z M24.2,47h-2c-0.3,0-0.5-0.2-0.5-0.5c0-0.3,0.2-0.5,0.5-0.5h2
			c0.3,0,0.5,0.2,0.5,0.5C24.7,46.8,24.4,47,24.2,47z M20.2,47h-2c-0.3,0-0.5-0.2-0.5-0.5c0-0.3,0.2-0.5,0.5-0.5h2
			c0.3,0,0.5,0.2,0.5,0.5C20.7,46.8,20.4,47,20.2,47z M16.2,47h-2c-0.3,0-0.5-0.2-0.5-0.5c0-0.3,0.2-0.5,0.5-0.5h2
			c0.3,0,0.5,0.2,0.5,0.5C16.7,46.8,16.4,47,16.2,47z M12.2,47h-2c-0.3,0-0.5-0.2-0.5-0.5c0-0.3,0.2-0.5,0.5-0.5h2
			c0.3,0,0.5,0.2,0.5,0.5C12.7,46.8,12.4,47,12.2,47z M8.2,47h-2c-0.3,0-0.5-0.2-0.5-0.5c0-0.3,0.2-0.5,0.5-0.5h2
			c0.3,0,0.5,0.2,0.5,0.5C8.7,46.8,8.4,47,8.2,47z M6.7,45.7c-0.1,0-0.2,0-0.3-0.1c-0.2-0.1-0.3-0.4-0.2-0.7l1-1.7
			C7.4,43,7.7,42.9,7.9,43c0.2,0.1,0.3,0.4,0.2,0.7l-1,1.7C7,45.6,6.8,45.7,6.7,45.7z M56.2,43.7c-0.2,0-0.3-0.1-0.4-0.2l-1-1.7
			c-0.1-0.2-0.1-0.5,0.2-0.7c0.2-0.1,0.5-0.1,0.7,0.2l1,1.7c0.1,0.2,0.1,0.5-0.2,0.7C56.3,43.7,56.3,43.7,56.2,43.7z M8.7,42.2
			c-0.1,0-0.2,0-0.3-0.1c-0.2-0.1-0.3-0.4-0.2-0.7l1-1.7c0.1-0.2,0.4-0.3,0.7-0.2c0.2,0.1,0.3,0.4,0.2,0.7l-1,1.7
			C9,42.2,8.9,42.2,8.7,42.2z M54.1,40.3c-0.2,0-0.3-0.1-0.4-0.2l-1-1.7c-0.1-0.2-0.1-0.5,0.2-0.7c0.2-0.1,0.5-0.1,0.7,0.2l1,1.7
			c0.1,0.2,0.1,0.5-0.2,0.7C54.3,40.2,54.2,40.3,54.1,40.3z M10.7,38.8c-0.1,0-0.2,0-0.3-0.1c-0.2-0.1-0.3-0.4-0.2-0.7l1-1.7
			c0.1-0.2,0.4-0.3,0.7-0.2c0.2,0.1,0.3,0.4,0.2,0.7l-1,1.7C11.1,38.7,10.9,38.8,10.7,38.8z M52.1,36.8c-0.2,0-0.3-0.1-0.4-0.2
			l-1-1.7c-0.1-0.2-0.1-0.5,0.2-0.7c0.2-0.1,0.5-0.1,0.7,0.2l1,1.7c0.1,0.2,0.1,0.5-0.2,0.7C52.3,36.8,52.2,36.8,52.1,36.8z
			 M12.7,35.3c-0.1,0-0.2,0-0.3-0.1c-0.2-0.1-0.3-0.4-0.2-0.7l1-1.7c0.1-0.2,0.5-0.3,0.7-0.2c0.2,0.1,0.3,0.4,0.2,0.7l-1,1.7
			C13.1,35.3,12.9,35.3,12.7,35.3z M50.1,33.4c-0.2,0-0.3-0.1-0.4-0.2l-1-1.7c-0.1-0.2-0.1-0.5,0.2-0.7c0.2-0.1,0.5-0.1,0.7,0.2
			l1,1.7c0.1,0.2,0.1,0.5-0.2,0.7C50.3,33.3,50.2,33.4,50.1,33.4z M14.8,31.9c-0.1,0-0.2,0-0.3-0.1c-0.2-0.1-0.3-0.4-0.2-0.7l1-1.7
			c0.1-0.2,0.4-0.3,0.7-0.2c0.2,0.1,0.3,0.4,0.2,0.7l-1,1.7C15.1,31.8,14.9,31.9,14.8,31.9z M48.1,29.9c-0.2,0-0.3-0.1-0.4-0.2
			l-1-1.7c-0.1-0.2-0.1-0.5,0.2-0.7c0.2-0.1,0.5-0.1,0.7,0.2l1,1.7c0.1,0.2,0.1,0.5-0.2,0.7C48.2,29.9,48.1,29.9,48.1,29.9z
			 M16.8,28.4c-0.1,0-0.2,0-0.3-0.1c-0.2-0.1-0.3-0.4-0.2-0.7l1-1.7c0.1-0.2,0.4-0.3,0.7-0.2c0.2,0.1,0.3,0.4,0.2,0.7l-1,1.7
			C17.1,28.4,17,28.4,16.8,28.4z M46,26.5c-0.2,0-0.3-0.1-0.4-0.2l-1-1.7c-0.1-0.2-0.1-0.5,0.2-0.7c0.2-0.1,0.5-0.1,0.7,0.2l1,1.7
			c0.1,0.2,0.1,0.5-0.2,0.7C46.2,26.4,46.1,26.5,46,26.5z M18.8,25c-0.1,0-0.2,0-0.3-0.1c-0.2-0.1-0.3-0.4-0.2-0.7l1-1.7
			c0.1-0.2,0.4-0.3,0.7-0.2c0.2,0.1,0.3,0.4,0.2,0.7l-1,1.7C19.2,24.9,19,25,18.8,25z M44,23c-0.2,0-0.3-0.1-0.4-0.2l-1-1.7
			c-0.1-0.2-0.1-0.5,0.2-0.7c0.2-0.1,0.5-0.1,0.7,0.2l1,1.7c0.1,0.2,0.1,0.5-0.2,0.7C44.2,23,44.1,23,44,23z M20.9,21.5
			c-0.1,0-0.2,0-0.3-0.1c-0.2-0.1-0.3-0.4-0.2-0.7l1-1.7c0.1-0.2,0.4-0.3,0.7-0.2c0.2,0.1,0.3,0.4,0.2,0.7l-1,1.7
			C21.2,21.5,21,21.5,20.9,21.5z M42,19.6c-0.2,0-0.3-0.1-0.4-0.2l-1-1.7c-0.1-0.2-0.1-0.5,0.2-0.7c0.2-0.1,0.5-0.1,0.7,0.2l1,1.7
			c0.1,0.2,0.1,0.5-0.2,0.7C42.2,19.5,42.1,19.6,42,19.6z M22.9,18.1c-0.1,0-0.2,0-0.3-0.1c-0.2-0.1-0.3-0.4-0.2-0.7l1-1.7
			c0.1-0.2,0.4-0.3,0.7-0.2c0.2,0.1,0.3,0.4,0.2,0.7l-1,1.7C23.2,18,23,18.1,22.9,18.1z M40,16.1c-0.2,0-0.3-0.1-0.4-0.2l-1-1.7
			c-0.1-0.2-0.1-0.5,0.2-0.7c0.2-0.1,0.5-0.1,0.7,0.2l1,1.7c0.1,0.2,0.1,0.5-0.2,0.7C40.1,16.1,40,16.1,40,16.1z M24.9,14.7
			c-0.1,0-0.2,0-0.3-0.1c-0.2-0.1-0.3-0.4-0.2-0.7l1-1.7c0.1-0.2,0.4-0.3,0.7-0.2c0.2,0.1,0.3,0.4,0.2,0.7l-1,1.7
			C25.2,14.6,25.1,14.7,24.9,14.7z M37.9,12.7c-0.2,0-0.3-0.1-0.4-0.2l-1-1.7c-0.1-0.2-0.1-0.5,0.2-0.7c0.2-0.1,0.5-0.1,0.7,0.2
			l1,1.7c0.1,0.2,0.1,0.5-0.2,0.7C38.1,12.6,38,12.7,37.9,12.7z M26.9,11.2c-0.1,0-0.2,0-0.3-0.1c-0.2-0.1-0.3-0.4-0.2-0.7l1-1.7
			c0.1-0.2,0.4-0.3,0.7-0.2c0.2,0.1,0.3,0.4,0.2,0.7l-1,1.7C27.3,11.1,27.1,11.2,26.9,11.2z M35.9,9.2c-0.2,0-0.3-0.1-0.4-0.2
			l-1-1.7c-0.1-0.2-0.1-0.5,0.2-0.7s0.5-0.1,0.7,0.2l1,1.7c0.1,0.2,0.1,0.5-0.2,0.7C36.1,9.2,36,9.2,35.9,9.2z M29,7.8
			c-0.1,0-0.2,0-0.3-0.1c-0.2-0.1-0.3-0.4-0.2-0.7l1-1.7C29.7,5,30,5,30.2,5.1c0.2,0.1,0.3,0.4,0.2,0.7l-1,1.7
			C29.3,7.7,29.1,7.8,29,7.8z M33.9,5.8c-0.2,0-0.3-0.1-0.4-0.2l-1-1.7c-0.1-0.2-0.1-0.5,0.2-0.7c0.2-0.1,0.5-0.1,0.7,0.2l1,1.7
			c0.1,0.2,0.1,0.5-0.2,0.7C34,5.7,34,5.8,33.9,5.8z M31,4.3c-0.1,0-0.2,0-0.3-0.1c-0.2-0.1-0.3-0.4-0.2-0.7l1-1.7
			c0.1-0.2,0.4-0.3,0.7-0.2c0.2,0.1,0.3,0.4,0.2,0.7l-1,1.7C31.3,4.2,31.2,4.3,31,4.3z"/>
	</g>
	<g>
		<g>
			<g>
				<g>
					<path fill="#EA789B" d="M32,63.5C14.6,63.5,0.5,49.4,0.5,32S14.6,0.5,32,0.5S63.5,14.6,63.5,32S49.4,63.5,32,63.5z M32,2.5
						C15.7,2.5,2.5,15.7,2.5,32c0,16.3,13.2,29.5,29.5,29.5S61.5,48.3,61.5,32C61.5,15.7,48.3,2.5,32,2.5z"/>
				</g>
			</g>
		</g>
		<g>
			<path fill="#EA789B" d="M32,63.2c-0.4,0-0.7-0.2-0.9-0.5L5,18.1c-0.2-0.3-0.2-0.5,0-0.8C5.1,17,5.5,17,5.8,17h52.4
				c0.4,0,0.7,0,0.9,0.3c0.2,0.3,0.2,0.6,0,0.9L32.9,62.7C32.7,63,32.4,63.2,32,63.2z M7.6,19L32,60.6L56.4,19H7.6z"/>
		</g>
	</g>
</g>
</svg>
