<?xml version="1.0" encoding="utf-8"?>
<!-- Generator: Adobe Illustrator 16.0.0, SVG Export Plug-In . SVG Version: 6.00 Build 0)  -->
<!DOCTYPE svg PUBLIC "-//W3C//DTD SVG 1.1//EN" "http://www.w3.org/Graphics/SVG/1.1/DTD/svg11.dtd">
<svg version="1.1" id="Layer_1" xmlns="http://www.w3.org/2000/svg" xmlns:xlink="http://www.w3.org/1999/xlink" x="0px" y="0px"
	 width="65px" height="65px" viewBox="0 0 65 65" enable-background="new 0 0 65 65" xml:space="preserve">
<g>
	<g>
		<g>
			<path fill="#EA0C5C" d="M61.812,50.774c0,1.083-0.877,1.961-1.961,1.961H12.619c-1.081,0-1.96-0.878-1.96-1.961v-8.172
				c0-1.083,0.879-1.961,1.96-1.961h47.232c1.084,0,1.961,0.878,1.961,1.961V50.774z"/>
			<path fill="#BC0852" d="M59.852,40.642c1.084,0,1.961,0.878,1.961,1.961v8.172c0,1.083-0.877,1.961-1.961,1.961H12.619"/>
			<path fill="#FF7171" d="M10.659,42.603c0-1.083,0.879-1.961,1.96-1.961h47.232c1.084,0,1.961,0.878,1.961,1.961"/>
			<path fill="#F2DB06" d="M51.28,50.862c0,0.197-0.161,0.357-0.357,0.357l0,0c-0.197,0-0.358-0.16-0.358-0.357v-8.347
				c0-0.198,0.161-0.358,0.358-0.358l0,0c0.196,0,0.357,0.16,0.357,0.358V50.862z"/>
			<path fill="#F2DB06" d="M53.546,50.862c0,0.197-0.16,0.357-0.357,0.357l0,0c-0.198,0-0.358-0.16-0.358-0.357v-8.347
				c0-0.198,0.16-0.358,0.358-0.358l0,0c0.197,0,0.357,0.16,0.357,0.358V50.862z"/>
			<path fill="#F2DB06" d="M55.812,50.862c0,0.197-0.159,0.357-0.358,0.357l0,0c-0.196,0-0.356-0.16-0.356-0.357v-8.347
				c0-0.198,0.16-0.358,0.356-0.358l0,0c0.199,0,0.358,0.16,0.358,0.358V50.862z"/>
		</g>
		<g>
			<path fill="#038462" d="M54.341,38.851c0,1.082-0.878,1.961-1.961,1.961H5.148c-1.083,0-1.961-0.879-1.961-1.961v-8.172
				c0-1.084,0.878-1.961,1.961-1.961H52.38c1.083,0,1.961,0.877,1.961,1.961V38.851z"/>
			<path fill="#047769" d="M52.38,28.718c1.083,0,1.961,0.877,1.961,1.961v8.172c0,1.082-0.878,1.961-1.961,1.961H5.148"/>
			<path fill="#2EAF8D" d="M3.188,30.679c0-1.084,0.878-1.961,1.961-1.961H52.38c1.083,0,1.961,0.877,1.961,1.961"/>
			<path fill="#F2DB06" d="M43.808,38.938c0,0.197-0.16,0.357-0.358,0.357l0,0c-0.196,0-0.355-0.16-0.355-0.357v-8.348
				c0-0.197,0.159-0.357,0.355-0.357l0,0c0.198,0,0.358,0.16,0.358,0.357V38.938z"/>
			<path fill="#F2DB06" d="M46.074,38.938c0,0.197-0.16,0.357-0.359,0.357l0,0c-0.196,0-0.356-0.16-0.356-0.357v-8.348
				c0-0.197,0.16-0.357,0.356-0.357l0,0c0.199,0,0.359,0.16,0.359,0.357V38.938z"/>
			<path fill="#F2DB06" d="M48.34,38.938c0,0.197-0.161,0.357-0.357,0.357l0,0c-0.198,0-0.358-0.16-0.358-0.357v-8.348
				c0-0.197,0.16-0.357,0.358-0.357l0,0c0.196,0,0.357,0.16,0.357,0.357V38.938z"/>
		</g>
		<g>
			<path fill="#115989" d="M54.341,62.539c0,1.082-0.878,1.961-1.961,1.961H5.148c-1.083,0-1.961-0.879-1.961-1.961v-8.172
				c0-1.083,0.878-1.961,1.961-1.961H52.38c1.083,0,1.961,0.878,1.961,1.961V62.539z"/>
			<path fill="#003B5B" d="M52.38,52.406c1.083,0,1.961,0.878,1.961,1.961v8.172c0,1.082-0.878,1.961-1.961,1.961H5.148"/>
			<path fill="#158ACC" d="M3.188,54.367c0-1.083,0.878-1.961,1.961-1.961H52.38c1.083,0,1.961,0.878,1.961,1.961"/>
			<path fill="#F2DB06" d="M43.808,62.627c0,0.197-0.16,0.357-0.358,0.357l0,0c-0.196,0-0.355-0.16-0.355-0.357v-8.348
				c0-0.195,0.159-0.357,0.355-0.357l0,0c0.198,0,0.358,0.162,0.358,0.357V62.627z"/>
			<path fill="#F2DB06" d="M46.074,62.627c0,0.197-0.16,0.357-0.359,0.357l0,0c-0.196,0-0.356-0.16-0.356-0.357v-8.348
				c0-0.195,0.16-0.357,0.356-0.357l0,0c0.199,0,0.359,0.162,0.359,0.357V62.627z"/>
			<path fill="#F2DB06" d="M48.34,62.627c0,0.197-0.161,0.357-0.357,0.357l0,0c-0.198,0-0.358-0.16-0.358-0.357v-8.348
				c0-0.195,0.16-0.357,0.358-0.357l0,0c0.196,0,0.357,0.162,0.357,0.357V62.627z"/>
		</g>
	</g>
	<circle fill="#FFAA00" cx="32.5" cy="17.239" r="11.805"/>
	<path fill="#FF8500" d="M32.5,5.436c6.52,0,11.805,5.284,11.805,11.804S39.02,29.044,32.5,29.044"/>
	<g>
		<path fill="#54391E" d="M32.564,7.741c-0.527,0-0.953-0.427-0.953-0.953c0-2.191-1.784-3.976-3.977-3.976
			c-0.527,0-0.953-0.426-0.953-0.954c0-0.527,0.426-0.953,0.953-0.953c3.244,0,5.883,2.639,5.883,5.883
			C33.518,7.314,33.092,7.741,32.564,7.741z"/>
	</g>
	<path fill="#382413" d="M27.635,2.693c-0.104,0-0.2,0.028-0.296,0.06c0.096,0.031,0.192,0.06,0.296,0.06
		c2.192,0,3.977,1.784,3.977,3.976c0,0.526,0.426,0.953,0.953,0.953c0.346,0,0.636-0.193,0.804-0.469
		C32.771,4.654,30.43,2.693,27.635,2.693z"/>
	<g>
		<g>
			<path fill="#7EC441" d="M39.322,0.995c-1.621-1.05-4.325-0.396-6.361,1.638c-2.035,2.036-1.699,3.753-0.472,5.195L39.322,0.995z"
				/>
		</g>
		<path fill="#559E1B" d="M39.309,0.981c1.049,1.62,0.396,4.325-1.639,6.361c-2.035,2.035-3.752,1.698-5.195,0.472L39.309,0.981z"/>
	</g>
	<path fill="#F4C951" d="M30.497,7.506c0.964,0.964-1.149,2.274-3.261,4.385s-3.421,4.223-4.385,3.26
		c-0.961-0.962-0.03-3.453,2.08-5.564C27.043,7.475,29.533,6.544,30.497,7.506z"/>
	<circle fill="#F4C951" cx="22.987" cy="17.002" r="0.517"/>
	<circle fill="#F4C951" cx="22.947" cy="19.267" r="0.159"/>
</g>
</svg>
