<?xml version="1.0" encoding="utf-8"?>
<!-- Generator: Adobe Illustrator 16.0.0, SVG Export Plug-In . SVG Version: 6.00 Build 0)  -->
<!DOCTYPE svg PUBLIC "-//W3C//DTD SVG 1.1//EN" "http://www.w3.org/Graphics/SVG/1.1/DTD/svg11.dtd">
<svg version="1.1" id="Layer_1" xmlns="http://www.w3.org/2000/svg" xmlns:xlink="http://www.w3.org/1999/xlink" x="0px" y="0px"
	 width="65px" height="65px" viewBox="0 0 65 65" enable-background="new 0 0 65 65" xml:space="preserve">
<g>
	<path fill="#405E70" d="M34.312,59.623c0,2.209-1.791,4-4,4h-4.625c-2.209,0-4-1.791-4-4v-2.25c0-2.209,1.791-4,4-4h4.625
		c2.209,0,4,1.791,4,4V59.623z"/>
	<g>
		<path fill="#557E8E" d="M23.652,12.748c0,0.368-0.301,0.668-0.668,0.668h-17c-0.368,0-0.666-0.3-0.666-0.668l0,0
			c0-0.368,0.298-0.667,0.666-0.667h17C23.352,12.081,23.652,12.38,23.652,12.748L23.652,12.748z"/>
		<path fill="#405E70" d="M6.672,13.811c0,0.639-0.518,1.156-1.156,1.156l0,0c-0.639,0-1.156-0.518-1.156-1.156v-2.125
			c0-0.639,0.518-1.156,1.156-1.156l0,0c0.639,0,1.156,0.518,1.156,1.156V13.811z"/>
	</g>
	<g>
		<path fill="#557E8E" d="M23.652,39.831c0,0.368-0.301,0.667-0.668,0.667h-17c-0.368,0-0.666-0.299-0.666-0.667l0,0
			c0-0.368,0.298-0.667,0.666-0.667h17C23.352,39.164,23.652,39.463,23.652,39.831L23.652,39.831z"/>
		<path fill="#405E70" d="M6.672,40.894c0,0.639-0.518,1.156-1.156,1.156l0,0c-0.639,0-1.156-0.518-1.156-1.156v-2.125
			c0-0.639,0.518-1.156,1.156-1.156l0,0c0.639,0,1.156,0.518,1.156,1.156V40.894z"/>
	</g>
	<path fill="#405E70" d="M11.234,60.248c0,0.828-0.672,1.5-1.5,1.5l0,0c-0.828,0-1.5-0.672-1.5-1.5v-56c0-0.828,0.672-1.5,1.5-1.5
		l0,0c0.828,0,1.5,0.672,1.5,1.5V60.248z"/>
	<path fill="#557E8E" d="M64.5,61.5c0,1.61-1.306,2.916-2.918,2.916H3.417C1.806,64.416,0.5,63.11,0.5,61.5l0,0
		c0-1.611,1.306-2.916,2.917-2.916h58.165C63.194,58.584,64.5,59.889,64.5,61.5L64.5,61.5z"/>
	<g>
		<circle fill="#8DC6D3" cx="28" cy="28.916" r="10.917"/>
		<path fill="#53C48E" d="M38.917,28.916c0,6.027-4.889,10.915-10.916,10.915c-6.03,0-10.919-4.888-10.919-10.915"/>
		<path fill="#3FB291" d="M28.001,39.831c5.539,0,10.105-4.132,10.811-9.479H17.188C17.894,35.699,22.46,39.831,28.001,39.831z"/>
		<path fill="#ABD3DD" d="M31.457,20.916V2.266c0-1.651-1.34-1.682-2.99-1.682h-0.935c-1.65,0-2.989,0.03-2.989,1.682v16.566
			L31.457,20.916z"/>
		<path fill="#8DC6D3" d="M31.457,20.916V2.266c0-1.651-1.34-1.682-2.99-1.682h-0.935v20.332H31.457z"/>
		<g>
			<path fill="#8DC6D3" d="M31.14,8.751l0.317-0.317V2.266c0-1.651-1.34-1.682-2.99-1.682h-0.935c-1.614,0-2.919,0.039-2.979,1.582
				L31.14,8.751z"/>
			<path fill="#C4E3E8" d="M32.672,1.33c0,0.412-0.334,0.748-0.747,0.748h-7.85c-0.413,0-0.747-0.336-0.747-0.748l0,0
				c0-0.412,0.334-0.746,0.747-0.746h7.85C32.338,0.584,32.672,0.918,32.672,1.33L32.672,1.33z"/>
			<path fill="#ABD3DD" d="M32.672,1.33L32.672,1.33c0,0.412-0.334,0.748-0.747,0.748h-7.85c-0.413,0-0.747-0.336-0.747-0.748l0,0"
				/>
			<g>
				<path fill="#C4E3E8" d="M28.312,5.334c0,0.104-0.084,0.187-0.187,0.187h-2.491c-0.104,0-0.188-0.083-0.188-0.187l0,0
					c0-0.104,0.084-0.188,0.188-0.188h2.491C28.228,5.146,28.312,5.23,28.312,5.334L28.312,5.334z"/>
				<path fill="#C4E3E8" d="M26.816,6.766c0,0.104-0.084,0.188-0.187,0.188h-0.996c-0.104,0-0.188-0.084-0.188-0.188l0,0
					c0-0.104,0.084-0.187,0.188-0.187h0.996C26.732,6.579,26.816,6.662,26.816,6.766L26.816,6.766z"/>
			</g>
			<g>
				<path fill="#C4E3E8" d="M28.312,8.137c0,0.104-0.084,0.188-0.187,0.188h-2.491c-0.104,0-0.188-0.084-0.188-0.188l0,0
					c0-0.104,0.084-0.187,0.188-0.187h2.491C28.228,7.95,28.312,8.033,28.312,8.137L28.312,8.137z"/>
				<path fill="#C4E3E8" d="M26.816,9.569c0,0.104-0.084,0.188-0.187,0.188h-0.996c-0.104,0-0.188-0.083-0.188-0.188l0,0
					c0-0.104,0.084-0.187,0.188-0.187h0.996C26.732,9.383,26.816,9.466,26.816,9.569L26.816,9.569z"/>
			</g>
			<g>
				<path fill="#C4E3E8" d="M28.312,10.94c0,0.104-0.084,0.188-0.187,0.188h-2.491c-0.104,0-0.188-0.084-0.188-0.188l0,0
					c0-0.104,0.084-0.187,0.188-0.187h2.491C28.228,10.754,28.312,10.837,28.312,10.94L28.312,10.94z"/>
				<path fill="#C4E3E8" d="M26.816,12.373c0,0.104-0.084,0.187-0.187,0.187h-0.996c-0.104,0-0.188-0.083-0.188-0.187l0,0
					c0-0.104,0.084-0.187,0.188-0.187h0.996C26.732,12.187,26.816,12.27,26.816,12.373L26.816,12.373z"/>
			</g>
			<g>
				<path fill="#C4E3E8" d="M28.312,13.744c0,0.104-0.084,0.186-0.187,0.186h-2.491c-0.104,0-0.188-0.082-0.188-0.186l0,0
					c0-0.104,0.084-0.188,0.188-0.188h2.491C28.228,13.557,28.312,13.641,28.312,13.744L28.312,13.744z"/>
				<path fill="#C4E3E8" d="M26.816,15.176c0,0.104-0.084,0.188-0.187,0.188h-0.996c-0.104,0-0.188-0.084-0.188-0.188l0,0
					c0-0.104,0.084-0.188,0.188-0.188h0.996C26.732,14.988,26.816,15.072,26.816,15.176L26.816,15.176z"/>
			</g>
			<g>
				<path fill="#C4E3E8" d="M28.312,16.547c0,0.104-0.084,0.188-0.187,0.188h-2.491c-0.104,0-0.188-0.084-0.188-0.188l0,0
					c0-0.104,0.084-0.188,0.188-0.188h2.491C28.228,16.359,28.312,16.443,28.312,16.547L28.312,16.547z"/>
				<path fill="#C4E3E8" d="M26.816,17.979c0,0.105-0.084,0.188-0.187,0.188h-0.996c-0.104,0-0.188-0.082-0.188-0.188l0,0
					c0-0.103,0.084-0.186,0.188-0.186h0.996C26.732,17.793,26.816,17.876,26.816,17.979L26.816,17.979z"/>
			</g>
		</g>
		<path fill="#C4E3E8" d="M24.5,20.182c0.494,0.494-0.737,1.533-2.139,2.936c-1.403,1.401-2.443,2.634-2.937,2.14
			c-0.495-0.495,0.24-2.032,1.642-3.434C22.467,20.422,24.004,19.687,24.5,20.182z"/>
	</g>
	<g>
		<path fill="#405E70" d="M24.792,14.123c0,0.621-0.505,1.125-1.126,1.125l0,0c-0.62,0-1.124-0.504-1.124-1.125v-2.75
			c0-0.621,0.504-1.125,1.124-1.125l0,0c0.621,0,1.126,0.504,1.126,1.125V14.123z"/>
		<path fill="#405E70" d="M33.458,14.123c0,0.621-0.505,1.125-1.125,1.125l0,0c-0.621,0-1.125-0.504-1.125-1.125v-2.75
			c0-0.621,0.504-1.125,1.125-1.125l0,0c0.62,0,1.125,0.504,1.125,1.125V14.123z"/>
	</g>
	<path fill="#405E70" d="M38.25,40.311c0,0.656-0.531,1.188-1.188,1.188H18.938c-0.656,0-1.188-0.531-1.188-1.188l0,0
		c0-0.656,0.531-1.188,1.188-1.188h18.125C37.719,39.123,38.25,39.654,38.25,40.311L38.25,40.311z"/>
	<path fill="#557E8E" d="M31.938,52.936c0,0.518-0.42,0.938-0.938,0.938h-6c-0.518,0-0.938-0.42-0.938-0.938l0,0
		c0-0.518,0.42-0.938,0.938-0.938h6C31.518,51.998,31.938,52.418,31.938,52.936L31.938,52.936z"/>
	<g>
		<g>
			<path fill="#FF7F00" d="M28.01,41.916c-1.979,0.422-3.5,2.911-3.5,5.929s1.521,4.041,3.5,4.201V41.916z"/>
		</g>
		<path fill="#FF4800" d="M27.99,41.916c1.979,0.422,3.5,2.911,3.5,5.929s-1.521,4.041-3.5,4.201V41.916z"/>
	</g>
	<g>
		<g>
			<path fill="#FFBC00" d="M28.006,45.498c-1.278,0.272-2.262,1.882-2.262,3.832c0,1.951,0.983,2.612,2.262,2.716V45.498z"/>
		</g>
		<path fill="#FF7F00" d="M27.994,45.498c1.278,0.272,2.262,1.882,2.262,3.832c0,1.951-0.983,2.612-2.262,2.716V45.498z"/>
	</g>
</g>
</svg>
