<?xml version="1.0" encoding="utf-8"?>
<!-- Generator: Adobe Illustrator 16.0.0, SVG Export Plug-In . SVG Version: 6.00 Build 0)  -->
<!DOCTYPE svg PUBLIC "-//W3C//DTD SVG 1.1//EN" "http://www.w3.org/Graphics/SVG/1.1/DTD/svg11.dtd">
<svg version="1.1" id="Layer_1" xmlns="http://www.w3.org/2000/svg" xmlns:xlink="http://www.w3.org/1999/xlink" x="0px" y="0px"
	 width="65px" height="65px" viewBox="0 0 65 65" enable-background="new 0 0 65 65" xml:space="preserve">
<g>
	<g>
		<path fill="#5BC914" d="M48.698,32.5c7.475-6.381,12.355-12.973,9.834-16.996c-1.004-1.602-2.871-2.412-5.549-2.412
			c-3.201,0-7.615,1.17-12.631,3.249C38.837,7.354,35.915,0.5,31.415,0.5c-4.498,0-7.42,6.854-8.936,15.84
			c-5.014-2.079-9.428-3.248-12.627-3.248c-2.68,0-4.547,0.811-5.549,2.412C1.782,19.527,6.661,26.119,14.136,32.5
			C6.661,38.878,1.78,45.471,4.304,49.494c1.004,1.604,2.869,2.414,5.549,2.414c3.199,0,7.611-1.17,12.627-3.248l0,0l0,0
			c1.516,8.986,4.438,15.84,8.936,15.84c4.5,0,7.422-6.854,8.938-15.841c5.016,2.079,9.43,3.249,12.629,3.249
			c2.68,0,4.547-0.811,5.551-2.414C61.054,45.471,56.173,38.879,48.698,32.5z M52.983,17.381c1.381,0,1.859,0.316,1.914,0.4
			c0.65,1.041-2.279,5.821-9.6,11.965c-1.238-0.954-2.521-1.894-3.832-2.809c-0.105-2.096-0.27-4.172-0.496-6.188
			C46.271,18.461,50.491,17.381,52.983,17.381z M25.972,22.668c0.361,0.179,0.723,0.361,1.088,0.551
			c-0.352,0.217-0.703,0.428-1.057,0.648c-0.049,0.031-0.098,0.062-0.146,0.093C25.894,23.521,25.931,23.091,25.972,22.668z
			 M21.228,32.332c0,0.057-0.002,0.112-0.002,0.168c0,0.055,0.002,0.111,0.002,0.166l0,0l0,0c-0.074-0.055-0.154-0.111-0.229-0.166
			C21.073,32.444,21.153,32.388,21.228,32.332z M25.856,41.041c0.051,0.03,0.1,0.062,0.15,0.094
			c0.352,0.221,0.701,0.431,1.053,0.646c-0.367,0.188-0.729,0.372-1.088,0.552C25.931,41.908,25.894,41.478,25.856,41.041z
			 M28.286,37.5c-0.943-0.591-1.85-1.179-2.723-1.762l0,0l0,0c-0.031-1.048-0.047-2.127-0.047-3.238s0.016-2.19,0.047-3.238l0,0l0,0
			c0.871-0.582,1.777-1.17,2.719-1.76c1.064-0.668,2.107-1.289,3.135-1.887c1.027,0.598,2.07,1.219,3.135,1.887
			c0.941,0.59,1.846,1.177,2.717,1.759l0,0l0,0c0.031,1.048,0.047,2.128,0.047,3.239s-0.016,2.191-0.047,3.239l0,0v0.001
			c-0.871,0.582-1.777,1.169-2.719,1.76c-1.064,0.666-2.105,1.287-3.133,1.885C30.39,38.787,29.349,38.166,28.286,37.5z
			 M36.86,22.668c0.041,0.423,0.08,0.854,0.115,1.291c-0.049-0.029-0.098-0.062-0.145-0.092c-0.354-0.221-0.705-0.432-1.057-0.648
			C36.14,23.03,36.501,22.848,36.86,22.668z M36.829,41.135c0.049-0.031,0.098-0.062,0.146-0.094
			c-0.035,0.438-0.074,0.867-0.115,1.29c-0.359-0.179-0.719-0.362-1.086-0.551C36.126,41.565,36.478,41.355,36.829,41.135z
			 M41.604,32.669c0-0.057,0.002-0.112,0.002-0.169s-0.002-0.113-0.002-0.17c0.074,0.057,0.156,0.113,0.23,0.17
			C41.761,32.556,41.679,32.613,41.604,32.669z M31.415,4.791c1.18,0,3.535,4.611,4.887,13.367
			c-1.594,0.766-3.227,1.608-4.885,2.523c-1.658-0.916-3.291-1.758-4.885-2.525C27.882,9.402,30.237,4.791,31.415,4.791z
			 M7.937,17.783c0.055-0.086,0.533-0.402,1.916-0.402c2.49,0,6.711,1.08,12.01,3.369l0,0l0,0c-0.227,2.016-0.393,4.094-0.496,6.188
			c-1.311,0.915-2.592,1.854-3.83,2.808C10.216,23.603,7.286,18.822,7.937,17.783z M7.937,47.215
			c-0.65-1.039,2.277-5.819,9.6-11.962c1.238,0.954,2.52,1.893,3.83,2.808c0.104,2.096,0.27,4.172,0.496,6.189
			c-5.299,2.287-9.52,3.367-12.01,3.367C8.472,47.617,7.991,47.301,7.937,47.215z M31.415,60.209c-1.178,0-3.533-4.611-4.883-13.366
			c1.594-0.767,3.227-1.609,4.885-2.524c1.658,0.915,3.289,1.758,4.883,2.523l0,0h0.002C34.95,55.598,32.595,60.209,31.415,60.209z
			 M54.897,47.215c-0.055,0.086-0.535,0.402-1.916,0.402c-2.49,0-6.711-1.08-12.012-3.369c0.227-2.016,0.391-4.091,0.496-6.186
			c1.311-0.916,2.594-1.855,3.832-2.81C52.62,41.396,55.55,46.176,54.897,47.215z"/>
		<path fill="#5BC914" d="M34.222,34.373c0.057-0.086,0.096-0.178,0.145-0.268c0.057-0.104,0.121-0.205,0.166-0.314
			c0.041-0.102,0.064-0.205,0.096-0.309c0.033-0.107,0.074-0.213,0.096-0.325c0.031-0.157,0.039-0.315,0.049-0.476
			c0.002-0.061,0.018-0.119,0.018-0.182c0-0.066-0.016-0.129-0.02-0.195c-0.01-0.154-0.016-0.309-0.047-0.461
			c-0.023-0.117-0.064-0.227-0.1-0.34c-0.031-0.098-0.053-0.197-0.092-0.293c-0.047-0.115-0.113-0.22-0.172-0.328
			c-0.047-0.086-0.084-0.174-0.139-0.256c-0.102-0.15-0.221-0.287-0.344-0.42c-0.027-0.03-0.047-0.064-0.076-0.094
			c-0.031-0.031-0.066-0.052-0.1-0.081c-0.131-0.121-0.266-0.238-0.414-0.338c-0.086-0.059-0.182-0.099-0.273-0.148
			c-0.102-0.056-0.199-0.118-0.309-0.163c-0.104-0.043-0.213-0.066-0.32-0.1c-0.104-0.031-0.203-0.07-0.312-0.092
			c-0.178-0.035-0.361-0.049-0.543-0.055c-0.039-0.002-0.076-0.012-0.115-0.012c-0.041,0-0.08,0.011-0.123,0.012
			c-0.18,0.007-0.357,0.02-0.535,0.055c-0.107,0.021-0.205,0.061-0.309,0.092c-0.107,0.031-0.219,0.057-0.324,0.1
			c-0.107,0.045-0.203,0.106-0.305,0.162c-0.094,0.049-0.189,0.09-0.277,0.149c-0.148,0.1-0.283,0.217-0.414,0.338
			c-0.031,0.029-0.068,0.05-0.1,0.081l0,0c-0.609,0.611-0.988,1.455-0.988,2.387c0,1.863,1.512,3.375,3.375,3.375
			c0.932,0,1.775-0.378,2.387-0.988l0,0c0.031-0.031,0.051-0.066,0.08-0.098C34.003,34.657,34.122,34.522,34.222,34.373z"/>
	</g>
	<g>
		<path fill="#ABD3DD" d="M59.349,59.529c0,2.746-2.227,4.971-4.969,4.971h-1.555c-2.745,0-4.971-2.225-4.971-4.971V3.296
			c0-2.744,2.226-2.796,4.971-2.796h1.555c2.742,0,4.969,0.052,4.969,2.796V59.529z"/>
		<path fill="#8DC6D3" d="M52.825,0.5h1.555c2.742,0,4.969,0.052,4.969,2.796v56.233c0,2.746-2.227,4.971-4.969,4.971h-1.555"/>
		<path fill="#5BC914" d="M47.854,27.832v31.697c0,2.746,2.226,4.971,4.971,4.971h1.555c2.742,0,4.969-2.225,4.969-4.971V27.832
			H47.854z"/>
		<path fill="#439B0A" d="M47.854,59.529c0,2.746,2.226,4.971,4.971,4.971h1.555c2.742,0,4.969-2.225,4.969-4.971V30.082H47.854
			V59.529z"/>
		<path fill="#068765" d="M52.825,64.5h1.555c2.742,0,4.969-2.225,4.969-4.971V30.082h-6.523V64.5z"/>
		<path fill="#8DC6D3" d="M58.821,14.078l0.527-0.527V3.296c0-2.744-2.227-2.796-4.969-2.796h-1.555
			c-2.682,0-4.854,0.067-4.953,2.632L58.821,14.078z"/>
		<path fill="#C4E3E8" d="M61.368,1.742c0,0.687-0.555,1.243-1.242,1.243H47.078c-0.687,0-1.243-0.557-1.243-1.243l0,0
			c0-0.685,0.557-1.242,1.243-1.242h13.048C60.813,0.5,61.368,1.058,61.368,1.742L61.368,1.742z"/>
		<path fill="#ABD3DD" d="M61.368,1.742L61.368,1.742c0,0.687-0.555,1.243-1.242,1.243H47.078c-0.687,0-1.243-0.557-1.243-1.243l0,0
			"/>
		<g>
			<path fill="#C4E3E8" d="M54.118,8.397c0,0.173-0.137,0.312-0.307,0.312h-4.143c-0.173,0-0.312-0.139-0.312-0.312l0,0
				c0-0.172,0.139-0.31,0.312-0.31h4.143C53.981,8.088,54.118,8.226,54.118,8.397L54.118,8.397z"/>
			<path fill="#C4E3E8" d="M51.634,10.778c0,0.173-0.138,0.311-0.309,0.311h-1.656c-0.173,0-0.312-0.138-0.312-0.311l0,0
				c0-0.172,0.139-0.31,0.312-0.31h1.656C51.496,10.469,51.634,10.606,51.634,10.778L51.634,10.778z"/>
		</g>
		<g>
			<path fill="#C4E3E8" d="M54.118,13.058c0,0.173-0.137,0.311-0.307,0.311h-4.143c-0.173,0-0.312-0.138-0.312-0.311l0,0
				c0-0.173,0.139-0.311,0.312-0.311h4.143C53.981,12.747,54.118,12.885,54.118,13.058L54.118,13.058z"/>
			<path fill="#C4E3E8" d="M51.634,15.438c0,0.173-0.138,0.312-0.309,0.312h-1.656c-0.173,0-0.312-0.14-0.312-0.312l0,0
				c0-0.172,0.139-0.31,0.312-0.31h1.656C51.496,15.129,51.634,15.267,51.634,15.438L51.634,15.438z"/>
		</g>
		<g>
			<path fill="#C4E3E8" d="M54.118,17.718c0,0.172-0.137,0.312-0.307,0.312h-4.143c-0.173,0-0.312-0.141-0.312-0.312l0,0
				c0-0.172,0.139-0.311,0.312-0.311h4.143C53.981,17.407,54.118,17.546,54.118,17.718L54.118,17.718z"/>
			<path fill="#C4E3E8" d="M51.634,20.099c0,0.175-0.138,0.311-0.309,0.311h-1.656c-0.173,0-0.312-0.136-0.312-0.311l0,0
				c0-0.172,0.139-0.308,0.312-0.308h1.656C51.496,19.791,51.634,19.927,51.634,20.099L51.634,20.099z"/>
		</g>
		<g>
			<path fill="#C4E3E8" d="M54.118,22.378c0,0.174-0.137,0.311-0.307,0.311h-4.143c-0.173,0-0.312-0.137-0.312-0.311l0,0
				c0-0.172,0.139-0.31,0.312-0.31h4.143C53.981,22.068,54.118,22.206,54.118,22.378L54.118,22.378z"/>
			<path fill="#C4E3E8" d="M51.634,24.759c0,0.172-0.138,0.312-0.309,0.312h-1.656c-0.173,0-0.312-0.141-0.312-0.312l0,0
				c0-0.172,0.139-0.311,0.312-0.311h1.656C51.496,24.448,51.634,24.587,51.634,24.759L51.634,24.759z"/>
		</g>
		<g>
			<path fill="#C4E3E8" d="M54.118,27.038c0,0.173-0.137,0.312-0.307,0.312h-4.143c-0.173,0-0.312-0.14-0.312-0.312l0,0
				c0-0.172,0.139-0.311,0.312-0.311h4.143C53.981,26.728,54.118,26.866,54.118,27.038L54.118,27.038z"/>
			<path fill="#C4E3E8" d="M51.634,29.419c0,0.172-0.138,0.312-0.309,0.312h-1.656c-0.173,0-0.312-0.141-0.312-0.312l0,0
				c0-0.169,0.139-0.31,0.312-0.31h1.656C51.496,29.109,51.634,29.25,51.634,29.419L51.634,29.419z"/>
		</g>
		<g>
			<path fill="#C4E3E8" d="M54.118,31.7c0,0.171-0.137,0.311-0.307,0.311h-4.143c-0.173,0-0.312-0.14-0.312-0.311l0,0
				c0-0.173,0.139-0.312,0.312-0.312h4.143C53.981,31.389,54.118,31.527,54.118,31.7L54.118,31.7z"/>
			<path fill="#C4E3E8" d="M51.634,34.079c0,0.173-0.138,0.312-0.309,0.312h-1.656c-0.173,0-0.312-0.14-0.312-0.312l0,0
				c0-0.172,0.139-0.31,0.312-0.31h1.656C51.496,33.77,51.634,33.907,51.634,34.079L51.634,34.079z"/>
		</g>
		<g>
			<path fill="#C4E3E8" d="M54.118,36.358c0,0.173-0.137,0.312-0.307,0.312h-4.143c-0.173,0-0.312-0.139-0.312-0.312l0,0
				c0-0.173,0.139-0.311,0.312-0.311h4.143C53.981,36.048,54.118,36.186,54.118,36.358L54.118,36.358z"/>
			<path fill="#C4E3E8" d="M51.634,38.741c0,0.172-0.138,0.311-0.309,0.311h-1.656c-0.173,0-0.312-0.139-0.312-0.311l0,0
				c0-0.173,0.139-0.312,0.312-0.312h1.656C51.496,38.43,51.634,38.568,51.634,38.741L51.634,38.741z"/>
		</g>
		<g>
			<path fill="#C4E3E8" d="M54.118,41.02c0,0.173-0.137,0.311-0.307,0.311h-4.143c-0.173,0-0.312-0.138-0.312-0.311l0,0
				c0-0.172,0.139-0.311,0.312-0.311h4.143C53.981,40.709,54.118,40.848,54.118,41.02L54.118,41.02z"/>
			<path fill="#C4E3E8" d="M51.634,43.399c0,0.173-0.138,0.312-0.309,0.312h-1.656c-0.173,0-0.312-0.139-0.312-0.312l0,0
				c0-0.173,0.139-0.311,0.312-0.311h1.656C51.496,43.089,51.634,43.227,51.634,43.399L51.634,43.399z"/>
		</g>
		<g>
			<path fill="#C4E3E8" d="M54.118,45.679c0,0.172-0.137,0.312-0.307,0.312h-4.143c-0.173,0-0.312-0.14-0.312-0.312l0,0
				c0-0.171,0.139-0.311,0.312-0.311h4.143C53.981,45.368,54.118,45.508,54.118,45.679L54.118,45.679z"/>
			<path fill="#C4E3E8" d="M51.634,48.061c0,0.173-0.138,0.311-0.309,0.311h-1.656c-0.173,0-0.312-0.138-0.312-0.311l0,0
				c0-0.172,0.139-0.311,0.312-0.311h1.656C51.496,47.75,51.634,47.889,51.634,48.061L51.634,48.061z"/>
		</g>
		<g>
			<path fill="#C4E3E8" d="M54.118,50.34c0,0.172-0.137,0.312-0.307,0.312h-4.143c-0.173,0-0.312-0.14-0.312-0.312l0,0
				c0-0.172,0.139-0.312,0.312-0.312h4.143C53.981,50.028,54.118,50.168,54.118,50.34L54.118,50.34z"/>
			<path fill="#C4E3E8" d="M51.634,52.721c0,0.173-0.138,0.311-0.309,0.311h-1.656c-0.173,0-0.312-0.138-0.312-0.311l0,0
				c0-0.172,0.139-0.311,0.312-0.311h1.656C51.496,52.41,51.634,52.549,51.634,52.721L51.634,52.721z"/>
		</g>
		<g>
			<path fill="#C4E3E8" d="M54.118,55c0,0.172-0.137,0.31-0.307,0.31h-4.143c-0.173,0-0.312-0.138-0.312-0.31l0,0
				c0-0.173,0.139-0.311,0.312-0.311h4.143C53.981,54.689,54.118,54.827,54.118,55L54.118,55z"/>
			<path fill="#C4E3E8" d="M51.634,57.381c0,0.172-0.138,0.312-0.309,0.312h-1.656c-0.173,0-0.312-0.14-0.312-0.312l0,0
				c0-0.172,0.139-0.312,0.312-0.312h1.656C51.496,57.069,51.634,57.209,51.634,57.381L51.634,57.381z"/>
		</g>
	</g>
</g>
</svg>
