<?xml version="1.0" encoding="utf-8"?>
<!-- Generator: Adobe Illustrator 16.0.0, SVG Export Plug-In . SVG Version: 6.00 Build 0)  -->
<!DOCTYPE svg PUBLIC "-//W3C//DTD SVG 1.1//EN" "http://www.w3.org/Graphics/SVG/1.1/DTD/svg11.dtd">
<svg version="1.1" id="Layer_1" xmlns="http://www.w3.org/2000/svg" xmlns:xlink="http://www.w3.org/1999/xlink" x="0px" y="0px"
	 width="64px" height="64px" viewBox="0 0 64 64" enable-background="new 0 0 64 64" xml:space="preserve">
<g>
	<circle fill="#28EAA0" cx="32" cy="35.5" r="27.5"/>
	<path fill="#00A076" d="M32,8c15.2,0,27.5,12.3,27.5,27.5S47.2,63,32,63"/>
	<g>
		<g>
			<path fill="#00233F" d="M13.7,16.6c0,0-6.7,9.6-3.5,17.1c3.2,7.4-0.6,10.4-0.6,10.4s3,1.7,4.1-0.5c0,0-1.2,4.9,1,6.4
				c2.2,1.5,4.5,6.2,4.5,6.2s2.1,4.1-1.8,4c-3.8-0.1,6.3,5,7.1-0.6s-0.1-10.6-0.1-10.6l-4.4-25L13.7,16.6z"/>
			<path fill="#1E4784" d="M50.3,16.6c0,0,6.7,9.6,3.5,17.1c-3.2,7.4,0.6,10.4,0.6,10.4s-3,1.7-4.1-0.5c0,0,1.2,4.9-1,6.4
				c-2.2,1.5-4.5,6.2-4.5,6.2s-2.1,4.1,1.8,4c3.8-0.1-6.3,5-7.1-0.6s0.1-10.6,0.1-10.6l4.4-25L50.3,16.6z"/>
		</g>
		<path fill="#F7DBBA" d="M50,25.8c0,14-8,25.4-18,25.4c-9.9,0-18-11.4-18-25.4c0-14,8-18,18-18C41.9,7.9,50,11.8,50,25.8z"/>
		<path fill="#E5BD95" d="M32,7.9c9.9,0,18,3.9,18,18c0,14-8,25.4-18,25.4"/>
		<g>
			<g>
				<g>
					<g>
						<path fill="#00233F" d="M23.9,23.4c-1.3,0.6-2.1,1.5-1.8,2.1l4.6-2.1C26.4,22.8,25.2,22.8,23.9,23.4z"/>
					</g>
					<g>
						<path fill="#00233F" d="M40.4,23.4c1.3,0.6,2.1,1.5,1.8,2.1l-4.6-2.1C37.9,22.8,39.1,22.8,40.4,23.4z"/>
					</g>
				</g>
				<path fill="#F9E8D9" d="M22.8,32c-3.3,0-6,0.8-6,1.7c0,0.9,2.7,0.5,6,0.5c3.3,0,6,0.4,6-0.5C28.8,32.8,26.1,32,22.8,32z"/>
				<path fill="#F9E8D9" d="M41.2,32c-3.3,0-6,0.8-6,1.7c0,0.9,2.7,0.5,6,0.5c3.3,0,6,0.4,6-0.5C47.2,32.8,44.5,32,41.2,32z"/>
				<g>
					<path fill="#E5BD95" d="M26.6,30.7c0,1.4-1.1,2.5-2.5,2.5c-1.3,0-2.4-1.1-2.4-2.5c0-1.4,1.1-2.5,2.4-2.5
						C25.5,28.3,26.6,29.4,26.6,30.7z"/>
					<circle fill="#E5BD95" cx="40.1" cy="30.7" r="2.5"/>
					<path fill="#1E4784" d="M26.6,30c0,1.4-1.1,2.5-2.5,2.5c-1.3,0-2.4-1.1-2.4-2.5c0-1.4,1.1-2.5,2.4-2.5
						C25.5,27.6,26.6,28.7,26.6,30z"/>
					<path fill="#00233F" d="M24.1,27.6c1.4,0,2.5,1.1,2.5,2.5c0,1.4-1.1,2.5-2.5,2.5"/>
					<circle fill="#1E4784" cx="40.1" cy="30" r="2.5"/>
					<path fill="#00233F" d="M40.1,27.6c1.4,0,2.5,1.1,2.5,2.5c0,1.4-1.1,2.5-2.5,2.5"/>
				</g>
			</g>
		</g>
		<g>
			<path fill="#1E4784" d="M32.3,35.9c0,0-8-1.6-9.8,3.2c-1.8,4.8-4.8,4.4-4.8,4.4s0.4,3,2.3,2.9c0,0-0.6,3.4,0.7,3.7l1.4-1.6
				c0,0-1.2,3.2,2.7,5.5c4,2.3,5.1,4.1,6.2,5.4c1.1,1.2,0.9-1,0.9-1v-8.2c0,0-7.5-1.4-6.3-6.6c1.2-5.2,4.6-2.9,6.3-2.9L32.3,35.9z"
				/>
			<path fill="#00233F" d="M31.7,35.9c0,0,8-1.6,9.8,3.2c1.8,4.8,4.8,4.4,4.8,4.4s-0.4,3-2.3,2.9c0,0,0.5,3.4-0.7,3.7l-1.4-1.6
				c0,0,1.2,3.2-2.8,5.5c-4,2.3-5.1,4.1-6.2,5.4c-1.1,1.2-1.2-0.7-1.2-0.7l0.3-8.5c0,0,7.5-1.4,6.3-6.6s-4.6-2.9-6.3-2.9L31.7,35.9z
				"/>
		</g>
		
			<rect x="26.4" y="9.2" transform="matrix(0.707 -0.7072 0.7072 0.707 -2.1617 27.3856)" fill="#E5BD95" width="11.1" height="14.1"/>
		<g>
			<g>
				<path fill="#3266A5" d="M33.2,11.4c0,0-12.1,10.4-16.8,10.8c0,0-1,7.5-2.9,8.2c-1.9,0.7-0.2-0.9-0.2-0.9s1-3.9-0.7-8.7
					C10.9,16,12.5,3.2,26.5,2.5L25,1.1c0,0,6.8-1,8,2.2C34.2,6.6,33.2,11.4,33.2,11.4z"/>
				<path fill="#1E4784" d="M26.5,2.5L25,1.1c0,0,6.8-1,8,2.2c1.2,3.2,0.2,8,0.2,8S21,21.8,16.4,22.2c0,0-1,7.5-2.9,8.2
					c-1.9,0.7-0.2-0.9-0.2-0.9"/>
			</g>
			<g>
				<path fill="#3266A5" d="M30.8,11.4c0,0,12.1,10.4,16.8,10.8c0,0,1,7.5,2.9,8.2c1.9,0.7,0.2-0.9,0.2-0.9s-1-3.9,0.7-8.7
					C53.1,16,51.5,3.2,37.5,2.5L39,1.1c0,0-6.8-1-8,2.2C29.8,6.6,30.8,11.4,30.8,11.4z"/>
				<path fill="#1E4784" d="M37.5,2.5L39,1.1c0,0-6.8-1-8,2.2c-1.2,3.2-0.2,8-0.2,8S43,21.8,47.6,22.2c0,0,1,7.5,2.9,8.2
					c1.9,0.7,0.2-0.9,0.2-0.9"/>
			</g>
		</g>
	</g>
	<path fill="#28EAA0" d="M54.7,20.3c0,0.8-0.7,1.7-1.5,1.7H10.7c-0.8,0-1.5-0.8-1.5-1.6l0,0c0-0.8,0.5-1.4,1.4-1.4h42.6
		C54.1,19,54.7,19.4,54.7,20.3L54.7,20.3z"/>
	<path fill="#00A076" d="M54.7,20.3L54.7,20.3c0,0.8-0.7,1.7-1.5,1.7H10.7c-0.8,0-1.5-0.8-1.5-1.6l0,0"/>
	<g>
		<g>
			<g>
				<polygon fill="#28EAA0" points="17,18.5 15.3,21.1 12.8,18.6 15.3,13.1 				"/>
				<polygon fill="#00A076" points="17.8,18.6 15.3,21.1 15.5,18.6 15.3,13.1 				"/>
			</g>
			<g>
				<polygon fill="#00A076" points="19.2,21.5 20.3,20 21.7,21.4 20.3,24.7 				"/>
				<polygon fill="#28EAA0" points="18.8,21.4 20.3,20 20.2,21.4 20.3,24.7 				"/>
			</g>
		</g>
		<g>
			<g>
				<polygon fill="#28EAA0" points="26.8,18.5 25.1,21.1 22.7,18.6 25.1,13.1 				"/>
				<polygon fill="#00A076" points="27.6,18.6 25.1,21.1 25.3,18.6 25.1,13.1 				"/>
			</g>
			<g>
				<polygon fill="#00A076" points="29.1,21.5 30.1,20 31.5,21.4 30.1,24.7 				"/>
				<polygon fill="#28EAA0" points="28.6,21.4 30.1,20 30,21.4 30.1,24.7 				"/>
			</g>
		</g>
		<g>
			<g>
				<polygon fill="#28EAA0" points="36.7,18.5 34.9,21.1 32.5,18.6 34.9,13.1 				"/>
				<polygon fill="#00A076" points="37.4,18.6 34.9,21.1 35.1,18.6 34.9,13.1 				"/>
			</g>
			<g>
				<polygon fill="#00A076" points="38.9,21.5 39.9,20 41.3,21.4 39.9,24.7 				"/>
				<polygon fill="#28EAA0" points="38.4,21.4 39.9,20 39.8,21.4 39.9,24.7 				"/>
			</g>
		</g>
		<g>
			<g>
				<polygon fill="#28EAA0" points="46.5,18.5 44.8,21.1 42.3,18.6 44.8,13.1 				"/>
				<polygon fill="#00A076" points="47.2,18.6 44.8,21.1 44.9,18.6 44.8,13.1 				"/>
			</g>
			<g>
				<polygon fill="#00A076" points="48.7,21.5 49.7,20 51.2,21.4 49.7,24.7 				"/>
				<polygon fill="#28EAA0" points="48.2,21.4 49.7,20 49.6,21.4 49.7,24.7 				"/>
			</g>
		</g>
	</g>
</g>
</svg>
