<?xml version="1.0" encoding="utf-8"?>
<!-- Generator: Adobe Illustrator 16.0.0, SVG Export Plug-In . SVG Version: 6.00 Build 0)  -->
<!DOCTYPE svg PUBLIC "-//W3C//DTD SVG 1.1//EN" "http://www.w3.org/Graphics/SVG/1.1/DTD/svg11.dtd">
<svg version="1.1" id="Layer_1" xmlns="http://www.w3.org/2000/svg" xmlns:xlink="http://www.w3.org/1999/xlink" x="0px" y="0px"
	 width="65px" height="65px" viewBox="0 0 65 65" enable-background="new 0 0 65 65" xml:space="preserve">
<g>
	<path fill="#B51F63" d="M39.655,1.309c1.382,0.317,2.893,6.614,1.931,17.609c-1.79,0.231-3.604,0.512-5.421,0.835
		c-1.797-1.625-3.628-3.187-5.459-4.647c2.459-6.196,5.025-10.527,7.059-12.562C38.893,1.416,39.544,1.283,39.655,1.309z"/>
	<path fill="#EA5390" d="M37.765,2.544c1.128-1.128,1.779-1.261,1.891-1.235c1.382,0.317,2.893,6.614,1.931,17.609
		c-1.79,0.231-3.604,0.512-5.421,0.835"/>
	<path fill="#02994A" d="M9.872,9.875c0.964-0.964,6.652,0.879,14.905,6.927c-0.675,1.926-1.32,3.948-1.927,6.049
		c-2.103,0.608-4.125,1.252-6.053,1.928C10.752,16.526,8.909,10.838,9.872,9.875z"/>
	<path fill="#11D168" d="M9.872,9.875c0.964-0.964,6.652,0.879,14.905,6.927c-0.675,1.926-1.32,3.948-1.927,6.049"/>
	<path fill="#FF9D00" d="M1.31,39.656c-0.025-0.113,0.106-0.764,1.234-1.892c2.033-2.034,6.363-4.599,12.559-7.056l0,0l0,0
		c1.461,1.83,3.023,3.663,4.647,5.46c-0.321,1.815-0.601,3.629-0.833,5.418C7.923,42.549,1.626,41.038,1.31,39.656z"/>
	<path fill="#FF7F00" d="M19.75,36.169c-0.321,1.815-0.601,3.629-0.833,5.418C7.923,42.549,1.626,41.038,1.31,39.656
		c-0.025-0.113,0.106-0.764,1.234-1.892"/>
	<path fill="#EA5390" d="M25.345,63.691c-1.383-0.315-2.896-6.611-1.93-17.606c1.788-0.232,3.601-0.512,5.418-0.834
		c1.797,1.625,3.628,3.186,5.46,4.646c-2.46,6.197-5.025,10.524-7.057,12.559C26.108,63.584,25.458,63.718,25.345,63.691z"/>
	<path fill="#B51F63" d="M28.833,45.251c1.797,1.625,3.628,3.186,5.46,4.646c-2.46,6.197-5.025,10.524-7.057,12.559
		c-1.128,1.128-1.778,1.262-1.892,1.235"/>
	<path fill="#11D168" d="M55.128,55.129c-0.963,0.964-6.652-0.879-14.904-6.925c0.676-1.928,1.32-3.95,1.929-6.053
		c2.101-0.606,4.122-1.251,6.048-1.927C54.248,48.478,56.091,54.166,55.128,55.129z"/>
	<path fill="#02994A" d="M42.152,42.151c2.101-0.606,4.122-1.251,6.048-1.927c6.048,8.253,7.891,13.941,6.928,14.904"/>
	<path fill="#FF7F00" d="M63.69,25.345c0.027,0.114-0.108,0.764-1.234,1.891c-2.033,2.034-6.363,4.6-12.561,7.059
		c-1.461-1.831-3.021-3.66-4.646-5.457c0.321-1.817,0.603-3.633,0.836-5.422C57.079,22.451,63.376,23.963,63.69,25.345z"/>
	<path fill="#FF9D00" d="M63.69,25.345c0.027,0.114-0.108,0.764-1.234,1.891c-2.033,2.034-6.363,4.6-12.561,7.059
		c-1.461-1.831-3.021-3.66-4.646-5.457"/>
	<path fill="#0793D1" d="M36.32,31.743c-0.024-0.129-0.071-0.246-0.108-0.37c-0.037-0.12-0.064-0.242-0.112-0.359
		c-0.056-0.133-0.13-0.253-0.197-0.376c-0.054-0.1-0.1-0.202-0.162-0.297c-0.132-0.2-0.287-0.386-0.455-0.558
		c-0.011-0.011-0.019-0.025-0.03-0.036c-0.015-0.016-0.033-0.025-0.049-0.041c-0.169-0.162-0.348-0.312-0.545-0.444
		c-0.1-0.066-0.208-0.112-0.311-0.168c-0.119-0.064-0.234-0.138-0.359-0.191c-0.123-0.05-0.252-0.078-0.379-0.116
		c-0.117-0.036-0.23-0.08-0.352-0.104c-0.201-0.039-0.409-0.054-0.614-0.062c-0.05-0.002-0.097-0.016-0.148-0.015
		c-0.05-0.001-0.096,0.012-0.146,0.015c-0.206,0.007-0.411,0.022-0.615,0.062c-0.117,0.023-0.228,0.068-0.343,0.103
		c-0.129,0.038-0.26,0.066-0.385,0.119c-0.122,0.05-0.229,0.119-0.344,0.181c-0.109,0.059-0.225,0.108-0.331,0.179
		c-0.173,0.118-0.333,0.256-0.487,0.399c-0.033,0.03-0.071,0.053-0.104,0.085c-0.033,0.034-0.058,0.074-0.091,0.11
		c-0.141,0.151-0.276,0.309-0.393,0.481c-0.069,0.105-0.118,0.217-0.178,0.327c-0.062,0.114-0.131,0.224-0.183,0.346
		c-0.051,0.124-0.079,0.253-0.117,0.383c-0.035,0.114-0.081,0.227-0.104,0.347c-0.04,0.203-0.055,0.408-0.062,0.614
		c-0.002,0.05-0.017,0.096-0.015,0.147l0,0c0,0.998,0.38,1.995,1.142,2.756c1.521,1.522,3.99,1.521,5.512,0
		c0.761-0.761,1.141-1.759,1.143-2.756l0,0c0-0.055-0.015-0.104-0.016-0.156C36.374,32.144,36.361,31.942,36.32,31.743z"/>
	<path fill="#06B3EF" d="M35.285,29.783c-0.011-0.011-0.019-0.025-0.03-0.036c-0.015-0.016-0.033-0.025-0.049-0.041
		c-0.169-0.162-0.348-0.312-0.545-0.444c-0.1-0.066-0.208-0.112-0.311-0.168c-0.119-0.064-0.234-0.138-0.359-0.191
		c-0.123-0.05-0.252-0.078-0.379-0.116c-0.117-0.036-0.23-0.08-0.352-0.104c-0.201-0.039-0.409-0.054-0.614-0.062
		c-0.05-0.002-0.097-0.016-0.148-0.015c-0.05-0.001-0.096,0.012-0.146,0.015c-0.206,0.007-0.411,0.022-0.615,0.062
		c-0.117,0.023-0.228,0.068-0.343,0.103c-0.129,0.038-0.26,0.066-0.385,0.119c-0.122,0.05-0.229,0.119-0.344,0.181
		c-0.109,0.059-0.225,0.108-0.331,0.179c-0.173,0.118-0.333,0.256-0.487,0.399c-0.033,0.03-0.071,0.053-0.104,0.085
		c-0.033,0.034-0.058,0.074-0.091,0.11c-0.141,0.151-0.276,0.309-0.393,0.481c-0.069,0.105-0.118,0.217-0.178,0.327
		c-0.062,0.114-0.131,0.224-0.183,0.346c-0.051,0.124-0.079,0.253-0.117,0.383c-0.035,0.114-0.081,0.227-0.104,0.347
		c-0.04,0.203-0.055,0.408-0.062,0.614c-0.002,0.05-0.017,0.096-0.015,0.147c0,0.998,0.38,1.995,1.142,2.756
		c0.051,0.051,0.11,0.086,0.163,0.133l5.482-5.481C35.352,29.87,35.323,29.822,35.285,29.783z"/>
</g>
</svg>
