<?xml version="1.0" encoding="utf-8"?>
<!-- Generator: Adobe Illustrator 16.0.0, SVG Export Plug-In . SVG Version: 6.00 Build 0)  -->
<!DOCTYPE svg PUBLIC "-//W3C//DTD SVG 1.1//EN" "http://www.w3.org/Graphics/SVG/1.1/DTD/svg11.dtd">
<svg version="1.1" xmlns="http://www.w3.org/2000/svg" xmlns:xlink="http://www.w3.org/1999/xlink" x="0px" y="0px" width="65px"
	 height="65px" viewBox="0 0 65 65" enable-background="new 0 0 65 65" xml:space="preserve">
<g id="Layer_1">
	<g>
		<g>
			<path fill="#824014" d="M23.445,43.174c-0.211,0.211-0.555,0.211-0.766,0l0,0c-0.211-0.211-0.211-0.555,0-0.766l4.833-4.832
				c0.212-0.213,0.554-0.211,0.765,0l0,0c0.211,0.211,0.213,0.553,0.001,0.766L23.445,43.174z"/>
			<path fill="#824014" d="M42.32,42.408c0.211,0.211,0.211,0.555-0.001,0.766l0,0c-0.212,0.211-0.554,0.211-0.765,0l-4.833-4.834
				c-0.212-0.211-0.212-0.553,0-0.764l0,0c0.212-0.213,0.554-0.213,0.766-0.002L42.32,42.408z"/>
		</g>
		<g>
			<g>
				<path fill="#824014" d="M23.514,61.441c0,0.309-0.25,0.559-0.558,0.559h-2.079c-0.309,0-0.558-0.25-0.558-0.559v-23.48
					c0-0.309,0.249-0.559,0.558-0.559h2.079c0.308,0,0.558,0.25,0.558,0.559V61.441z"/>
				<path fill="#994F19" d="M22.097,61.441v-23.48c0-0.309-0.251-0.559-0.558-0.559h-0.662c-0.309,0-0.558,0.25-0.558,0.559v23.48
					c0,0.309,0.249,0.559,0.558,0.559h0.662C21.846,62,22.097,61.75,22.097,61.441z"/>
			</g>
			<g>
				<path fill="#824014" d="M41.487,37.961c0-0.309,0.249-0.559,0.557-0.559h2.077c0.31,0,0.56,0.25,0.56,0.559v23.48
					c0,0.309-0.25,0.559-0.56,0.559h-2.077c-0.308,0-0.557-0.25-0.557-0.559V37.961z"/>
				<path fill="#994F19" d="M42.903,37.961v23.48c0,0.309,0.249,0.559,0.558,0.559h0.66c0.31,0,0.56-0.25,0.56-0.559v-23.48
					c0-0.309-0.25-0.559-0.56-0.559h-0.66C43.152,37.402,42.903,37.652,42.903,37.961z"/>
			</g>
		</g>
		<g>
			<g>
				<path fill="#844618" d="M43.477,20.115c0,0.438-0.355,0.791-0.793,0.791h-2.814c-0.436,0-0.793-0.354-0.793-0.791v-5.41
					c0-0.436,0.357-0.791,0.793-0.791h2.814c0.438,0,0.793,0.355,0.793,0.791V20.115z"/>
				<path fill="#AA5F22" d="M43.477,37.75V23.67c0-0.838-0.449-1.611-1.174-2.029l-8.633-4.986c-0.724-0.416-1.619-0.416-2.343,0
					l-8.632,4.986c-0.725,0.418-1.172,1.191-1.172,2.029v14.08H43.477z"/>
				<path fill="#994F19" d="M43.477,37.195V23.67c0-0.838-0.449-1.611-1.174-2.029l-8.633-4.986c-0.724-0.416-1.619-0.416-2.343,0
					l-8.632,4.986c-0.725,0.418-1.172,1.191-1.172,2.029"/>
				<path fill="#844618" d="M31.327,17.006l-6.934,4.004h16.213l-6.937-4.004C32.946,16.588,32.051,16.588,31.327,17.006z"/>
				<g>
					<path fill="#D8B77C" d="M46.009,24.658c-0.282,0-0.569-0.07-0.831-0.223l-11.896-6.869c-0.483-0.279-1.087-0.277-1.57,0
						L19.82,24.436c-0.793,0.459-1.812,0.188-2.271-0.609c-0.46-0.795-0.187-1.812,0.607-2.271l11.895-6.869
						c1.512-0.869,3.384-0.869,4.893-0.002l11.898,6.871c0.796,0.459,1.068,1.477,0.608,2.271
						C47.143,24.359,46.583,24.658,46.009,24.658z"/>
				</g>
				<g>
					<path fill="#C19F5B" d="M46.009,24.658c-0.282,0-0.569-0.07-0.831-0.223l-11.896-6.869c-0.483-0.279-1.087-0.277-1.57,0
						L19.82,24.436c-0.793,0.459-1.812,0.188-2.271-0.609c-0.46-0.795-0.187-1.812,0.607-2.271l11.895-5.645
						c1.512-0.869,3.384-0.869,4.893-0.002l11.898,5.646c0.796,0.459,1.068,1.477,0.608,2.271
						C47.143,24.359,46.583,24.658,46.009,24.658z"/>
				</g>
				<line fill="none" stroke="#AA5F22" stroke-miterlimit="10" x1="21.523" y1="30.654" x2="43.477" y2="30.654"/>
				<path fill="#C18440" d="M44.678,25.611c0,0.672-0.546,1.219-1.219,1.219H21.951c-0.673,0-1.22-0.547-1.22-1.219l0,0
					c0-0.676,0.547-1.221,1.22-1.221h21.508C44.132,24.391,44.678,24.936,44.678,25.611L44.678,25.611z"/>
				<path fill="#C18440" d="M44.678,30.156c0,0.672-0.546,1.219-1.219,1.219H21.951c-0.673,0-1.22-0.547-1.22-1.219l0,0
					c0-0.674,0.547-1.221,1.22-1.221h21.508C44.132,28.936,44.678,29.482,44.678,30.156L44.678,30.156z"/>
				<path fill="#C18440" d="M44.678,34.701c0,0.674-0.546,1.219-1.219,1.219H21.951c-0.673,0-1.22-0.545-1.22-1.219l0,0
					c0-0.674,0.547-1.221,1.22-1.221h21.508C44.132,33.48,44.678,34.027,44.678,34.701L44.678,34.701z"/>
				<path fill="#6D350F" d="M36.054,36.516c0,0.375-0.305,0.68-0.681,0.68h-5.745c-0.378,0-0.682-0.305-0.682-0.68v-10.17
					c0-0.375,0.304-0.68,0.682-0.68h5.745c0.376,0,0.681,0.305,0.681,0.68V36.516z"/>
				<g>
					<g>
						<polygon fill="#65930C" points="7.672,63.084 4.086,59.498 0.5,63.084 						"/>
						<polygon fill="#65930C" points="12.043,63.084 8.457,59.498 4.871,63.084 						"/>
						<polygon fill="#65930C" points="16.414,63.084 12.828,59.498 9.242,63.084 						"/>
						<polygon fill="#65930C" points="20.785,63.084 17.201,59.498 13.615,63.084 						"/>
						<polygon fill="#65930C" points="25.156,63.084 21.572,59.498 17.986,63.084 						"/>
						<polygon fill="#65930C" points="29.527,63.084 25.943,59.498 22.357,63.084 						"/>
						<polygon fill="#65930C" points="33.9,63.084 30.314,59.498 26.729,63.084 						"/>
						<polygon fill="#65930C" points="38.271,63.084 34.686,59.498 31.1,63.084 						"/>
						<polygon fill="#65930C" points="42.643,63.084 39.059,59.498 35.473,63.084 						"/>
						<polygon fill="#65930C" points="47.014,63.084 43.43,59.498 39.844,63.084 						"/>
						<polygon fill="#65930C" points="51.385,63.084 47.801,59.498 44.215,63.084 						"/>
						<polygon fill="#65930C" points="55.758,63.084 52.172,59.498 48.586,63.084 						"/>
						<polygon fill="#65930C" points="60.129,63.084 56.543,59.498 52.957,63.084 						"/>
						<polygon fill="#65930C" points="64.5,63.084 60.914,59.498 57.328,63.084 						"/>
					</g>
				</g>
				<circle fill="#8FD7FF" cx="30.833" cy="31.584" r="0.707"/>
				<path fill="#C19F5B" d="M44.788,13.805c0,0.488-0.396,0.885-0.886,0.885h-5.1c-0.489,0-0.889-0.396-0.889-0.885l0,0
					c0-0.492,0.399-0.889,0.889-0.889h5.1C44.393,12.916,44.788,13.312,44.788,13.805L44.788,13.805z"/>
			</g>
			<circle fill="#A8BDC6" cx="39.559" cy="4.291" r="1.875"/>
			<circle fill="#A8BDC6" cx="40.059" cy="8.791" r="0.875"/>
			<circle fill="#A8BDC6" cx="46.621" cy="7.854" r="2.188"/>
			<circle fill="#A8BDC6" cx="44.246" cy="3.229" r="0.312"/>
			<circle fill="#A8BDC6" cx="43.246" cy="10.354" r="0.562"/>
			<circle fill="#A8BDC6" cx="50.121" cy="3.854" r="1.938"/>
		</g>
		<path fill="#6D350F" d="M45.583,37.5c0,0.414-0.336,0.75-0.75,0.75H20.167c-0.414,0-0.75-0.336-0.75-0.75l0,0
			c0-0.414,0.336-0.75,0.75-0.75h24.666C45.247,36.75,45.583,37.086,45.583,37.5L45.583,37.5z"/>
		<g>
			<path fill="#6D350F" d="M29.25,62.168c0,0.414-0.336,0.75-0.75,0.75l0,0c-0.414,0-0.75-0.336-0.75-0.75V38.5
				c0-0.414,0.336-0.75,0.75-0.75l0,0c0.414,0,0.75,0.336,0.75,0.75V62.168z"/>
			<path fill="#6D350F" d="M37.25,62.168c0,0.414-0.336,0.75-0.75,0.75l0,0c-0.414,0-0.75-0.336-0.75-0.75V38.5
				c0-0.414,0.336-0.75,0.75-0.75l0,0c0.414,0,0.75,0.336,0.75,0.75V62.168z"/>
		</g>
		<path fill="#994F19" d="M36.708,40.918c0,0.275-0.224,0.5-0.5,0.5h-7.416c-0.277,0-0.5-0.225-0.5-0.5l0,0
			c0-0.277,0.223-0.5,0.5-0.5h7.416C36.484,40.418,36.708,40.641,36.708,40.918L36.708,40.918z"/>
		<path fill="#994F19" d="M36.708,44.334c0,0.275-0.224,0.5-0.5,0.5h-7.416c-0.277,0-0.5-0.225-0.5-0.5l0,0
			c0-0.277,0.223-0.5,0.5-0.5h7.416C36.484,43.834,36.708,44.057,36.708,44.334L36.708,44.334z"/>
		<path fill="#994F19" d="M36.708,47.75c0,0.275-0.224,0.5-0.5,0.5h-7.416c-0.277,0-0.5-0.225-0.5-0.5l0,0
			c0-0.277,0.223-0.5,0.5-0.5h7.416C36.484,47.25,36.708,47.473,36.708,47.75L36.708,47.75z"/>
		<path fill="#994F19" d="M36.708,51.166c0,0.275-0.224,0.5-0.5,0.5h-7.416c-0.277,0-0.5-0.225-0.5-0.5l0,0
			c0-0.277,0.223-0.5,0.5-0.5h7.416C36.484,50.666,36.708,50.889,36.708,51.166L36.708,51.166z"/>
		<path fill="#994F19" d="M36.708,54.582c0,0.275-0.224,0.5-0.5,0.5h-7.416c-0.277,0-0.5-0.225-0.5-0.5l0,0
			c0-0.277,0.223-0.5,0.5-0.5h7.416C36.484,54.082,36.708,54.305,36.708,54.582L36.708,54.582z"/>
		<path fill="#994F19" d="M36.708,57.998c0,0.275-0.224,0.5-0.5,0.5h-7.416c-0.277,0-0.5-0.225-0.5-0.5l0,0
			c0-0.277,0.223-0.5,0.5-0.5h7.416C36.484,57.498,36.708,57.721,36.708,57.998L36.708,57.998z"/>
		<path fill="#994F19" d="M36.708,61.414c0,0.275-0.224,0.5-0.5,0.5h-7.416c-0.277,0-0.5-0.225-0.5-0.5l0,0
			c0-0.277,0.223-0.5,0.5-0.5h7.416C36.484,60.914,36.708,61.137,36.708,61.414L36.708,61.414z"/>
	</g>
</g>
<g id="nyt_x5F_exporter_x5F_info" display="none">
</g>
</svg>
