<?xml version="1.0" encoding="utf-8"?>
<!-- Generator: Adobe Illustrator 16.0.0, SVG Export Plug-In . SVG Version: 6.00 Build 0)  -->
<!DOCTYPE svg PUBLIC "-//W3C//DTD SVG 1.1//EN" "http://www.w3.org/Graphics/SVG/1.1/DTD/svg11.dtd">
<svg version="1.1" id="Layer_1" xmlns="http://www.w3.org/2000/svg" xmlns:xlink="http://www.w3.org/1999/xlink" x="0px" y="0px"
	 width="64px" height="64px" viewBox="0 0 64 64" enable-background="new 0 0 64 64" xml:space="preserve">
<g>
	<g>
		<path fill="#4C0808" d="M29.3,30.2c0,3.8-5.6,4-10.9,4s-9.6-3.1-9.6-6.9s-2.4-6.4,2.9-6.9C24.9,19.3,29.3,26.4,29.3,30.2z"/>
		<g>
			<path fill="#4C0808" d="M14.8,27h15.9c0,0,2.8-0.2,2.5,3.7c-0.3,3.9-4.2,10.3,0.4,11c4.5,0.8-4.5,3.6-4.5,3.6L16.8,39l-3.2-11.2
				L14.8,27z"/>
			<g>
				<path fill="#5ECCDB" d="M62.2,52.1c-0.6,0-1,0.6-1,1.1c0,2-1.6,3.8-3.7,3.8h-3.7c0,0-0.1-0.2-0.1-0.3l-9.1-9.1
					c-0.4-0.4-1-0.4-1.4,0s-0.4,1.1,0,1.5L51,57H8.9l7.8-7.9c0.4-0.4,0.4-1.1,0-1.5s-1-0.4-1.4,0l-9.1,9.2c0,0-0.1,0.3-0.1,0.3H1.8
					c-0.6,0-1,0.4-1,1s0.5,1,1,1h55.8c3.1,0,5.7-2.7,5.7-5.8C63.2,52.7,62.8,52.1,62.2,52.1z"/>
			</g>
			<path fill="#E03838" d="M57.1,41c0-1-0.2-3.2-0.6-5.6c-0.5-3.5,2.1-5.7,0.3-6.3s0.5,3.4-4.4,3.1c-4.9-0.3-3.7,2.5-5.4,6
				c-1,2.2-2.4,2.8-3.2,2.8H32.4c-1.2,0-5.6-0.4-5.5-5.6c0.1-7.2-6.2-15-17.3-15.2c-11.1-0.3-8.8,3.9-6.1,4.4s5.7,1.7,1.6,9.9
				c-1.9,3.8-2.7,5.6-2.7,6.9c0,0.1,0,0.4,0,0.5c0,4.4,3.6,8.2,8,8.2h38.7c4.4,0,8-3.8,8-8.3C57.2,41.6,57.2,41,57.1,41L57.1,41z"/>
			<path fill="#2F919B" d="M6,57c0.5,0.1,1.3,0,1.9,0h44.9c0.3,0,0.9,0,1.3,0c0,0,0,0,0,0l-9.4-9.4c-0.4-0.4-1-0.4-1.4,0
				s-0.4,1.1,0,1.5L51,57H8.9l7.8-7.9c0.4-0.4,0.4-1.1,0-1.5s-1-0.4-1.4,0L6,57C5.9,57,6,57,6,57z"/>
			<path fill="#C92D2D" d="M3.6,24.6c2.8,0.5,5.7,1.6,1.6,9.8c-1.9,3.8-2.7,5.6-2.7,6.9c0,0.1,0,0.4,0,0.5c0,4.4,3.6,8.2,8,8.2h38.7
				c4.4,0,8-3.8,8-8.3c0-0.2,0-0.7,0-0.7h0c0-1-0.2-3.2-0.6-5.6c-0.5-3.5,2.1-5.7,0.3-6.3s0.5,3.4-4.4,3.1c-4.9-0.3-3.7,2.5-5.4,6
				c-1,2.2-2.4,2.8-3.2,2.8H32.4c-1.2,0-5.6-0.4-5.5-5.6c0.1-7.2-6.2-15-17.3-15.2"/>
			<path fill="#AA1717" d="M2.5,41.3c0,0.1,0,0.4,0,0.5c0,4.4,3.6,8.2,8,8.2h38.7c4.4,0,8-3.8,8-8.3c0-0.2,0-0.7,0-0.7h0
				c0-1-0.2-3.2-0.6-5.6c-0.5-3.5,2.1-5.7,0.3-6.3s0.5,3.4-4.4,3.1c-4.9-0.3-3.7,2.5-5.4,6c-1,2.2-2.4,2.8-3.2,2.8H32.4
				c-1.2,0-5.6-0.4-5.5-5.6"/>
			<path fill="#870B0B" d="M49.2,50c4.6,0,8.1-4,8-8.4c0-0.2,0-0.6,0-0.6h0c0-1-0.2-3.2-0.6-5.6c-0.5-3.5,2.1-5.7,0.3-6.3
				s0.5,3.4-4.4,3.1c-4.9-0.3-3.7,2.5-5.4,6c-1,2.2-2.4,2.8-3.2,2.8H32"/>
			<path fill="#680B0B" d="M57.2,41.6c0-0.2,0-0.6,0-0.6h0c0-1-0.2-3.2-0.6-5.6c-0.5-3.5,2.1-5.7,0.3-6.3s0.5,3.4-4.4,3.1
				c-4.9-0.3-3.7,2.6-5.4,6.1c-1,2.2-2.4,2.7-3.2,2.9"/>
			<polygon fill="#7F1313" points="15.6,28.7 17.1,31.9 20.7,32.4 18.1,34.9 18.7,38.4 15.6,36.7 12.4,38.4 13,34.9 10.4,32.4 
				14,31.9 			"/>
			<polygon fill="#680B0B" points="15.6,28.7 17.1,31.9 20.7,32.4 18.1,34.9 18.7,38.4 15.6,36.7 12.4,38.4 14.5,35.7 10.4,32.4 
				15,32.7 			"/>
			<g>
				<circle fill="#F2BF4C" cx="11.4" cy="45.2" r="0.8"/>
				<circle fill="#F2BF4C" cx="15.6" cy="45.2" r="0.8"/>
				<circle fill="#F2BF4C" cx="19.7" cy="45.2" r="0.8"/>
			</g>
			<path fill="#F2BF4C" d="M53,45.5c0,0.2-0.2,0.5-0.4,0.5H25.8c-0.2,0-0.4-0.3-0.4-0.5l0,0c0-0.2,0.2-0.5,0.4-0.5h26.7
				C52.8,45,53,45.3,53,45.5L53,45.5z"/>
		</g>
		<g>
			<circle fill="#E5DE98" cx="42.7" cy="16.6" r="11.4"/>
			<path fill="#D8CA82" d="M34.6,8.6c4.5-4.5,11.7-4.5,16.1,0c4.5,4.5,4.5,11.7,0,16.1"/>
			<circle fill="#E5DE98" cx="41.8" cy="8" r="1"/>
			<circle fill="#E5DE98" cx="47.7" cy="11.9" r="0.8"/>
			<circle fill="#E5DE98" cx="43.5" cy="12.5" r="0.4"/>
			<ellipse fill="#E5DE98" cx="45.4" cy="9.7" rx="0.1" ry="0"/>
			<circle fill="#E5DE98" cx="48.3" cy="17.8" r="1.2"/>
			<circle fill="#E5DE98" cx="51.9" cy="15.6" r="0.3"/>
			<circle fill="#E5DE98" cx="45.6" cy="15.4" r="0.3"/>
			<circle fill="#E5DE98" cx="46.2" cy="7.8" r="0.5"/>
			<circle fill="#E5DE98" cx="39.6" cy="11.8" r="0.2"/>
			<circle fill="#E5DE98" cx="42.6" cy="10.5" r="0.2"/>
			<circle fill="#E5DE98" cx="38.7" cy="8.8" r="0.6"/>
			<circle fill="#D8CA82" cx="35.1" cy="14.6" r="1.2"/>
			<circle fill="#D8CA82" cx="36.7" cy="18" r="0.3"/>
			<circle fill="#D8CA82" cx="39.1" cy="16.1" r="0.3"/>
			<circle fill="#D8CA82" cx="42.2" cy="18.3" r="0.1"/>
			<circle fill="#D8CA82" cx="43.7" cy="20.9" r="0.1"/>
			<circle fill="#D8CA82" cx="39.7" cy="23" r="0.6"/>
			<circle fill="#D8CA82" cx="40.4" cy="19.5" r="0.4"/>
			<circle fill="#D8CA82" cx="46.4" cy="25.2" r="1.2"/>
			<circle fill="#D8CA82" cx="43.6" cy="22.7" r="0.2"/>
			<circle fill="#D8CA82" cx="43.2" cy="24.5" r="0.5"/>
			<circle fill="#D8CA82" cx="34.5" cy="21.3" r="0.3"/>
			<circle fill="#D8CA82" cx="37.4" cy="20.9" r="0.2"/>
		</g>
	</g>
	<path fill="#515151" d="M52,20.6c0,1.9-1.5,3.4-3.4,3.4h-0.2c-1.9,0-3.4-1.5-3.4-3.4v-0.2c0-1.9,1.5-3.4,3.4-3.4h0.2
		c1.9,0,3.4,1.5,3.4,3.4V20.6z"/>
	<g>
		<path fill="#515151" d="M54.1,22c0.3-0.5,0.5-1.1,0.5-1.7c0-2-1.6-3.5-3.5-3.5c-0.4,0-0.9,0.1-1.3,0.2c-0.2-0.9-1-1.5-1.9-1.5
			c-0.6,0-1.1,0.3-1.5,0.7c-0.7-0.4-1.5-0.6-2.4-0.6c-2.4,0-4.4,1.7-4.8,3.9c-0.1,0-0.1,0-0.2,0c-1.1,0-2,0.9-2,2
			c0,0.3,0.1,0.5,0.2,0.8c-1.1,0.6-1.8,1.4-1.8,2.7c0,1.8,1.5,3.1,3.3,3.1H53c1.8,0,3.3-1.3,3.3-3.1C56.4,23.4,55.4,22.4,54.1,22z"
			/>
		<g>
			<path fill="#777776" d="M54.1,22.9c1.2,0.4,2.1,1.4,2.3,2.7c0-0.1,0-0.3,0-0.4c0-1.4-0.4-2.3-2-3C54.3,22.4,54.2,22.6,54.1,22.9z
				"/>
			<path fill="#777776" d="M38.9,20.3c0.1,0,0.1,0,0.2,0c0.5-2.2,2.4-3.9,4.8-3.9c0.9,0,1.7,0.2,2.4,0.6c0.4-0.4,0.9-0.7,1.5-0.7
				c0.9,0,1.7,0.6,1.9,1.5c0.4-0.2,0.8-0.2,1.3-0.2c1.8,0,3.3,1.4,3.5,3.2c0-0.2,0-0.3,0-0.5c0-2-1.6-3.5-3.5-3.5
				c-0.4,0-0.9,0.1-1.3,0.2c-0.2-0.9-1-1.5-1.9-1.5c-0.6,0-1.1,0.3-1.5,0.7c-0.7-0.4-1.5-0.6-2.4-0.6c-2.4,0-4.4,1.7-4.8,3.9
				c-0.1,0-0.1,0-0.2,0c-1.1,0-2,0.9-2,2c0,0.2,0,0.3,0.1,0.4C37.2,21,38,20.3,38.9,20.3z"/>
			<path fill="#777776" d="M37.1,23.1c-0.1-0.2-0.2-0.5-0.2-0.8c0,0,0,0,0,0c-1,0.6-1.7,1.6-1.7,2.9c0,0.1,0,0.3,0,0.4
				C35.5,24.4,36.2,23.5,37.1,23.1z"/>
		</g>
	</g>
</g>
</svg>
