<?xml version="1.0" encoding="utf-8"?>
<!-- Generator: Adobe Illustrator 16.0.0, SVG Export Plug-In . SVG Version: 6.00 Build 0)  -->
<!DOCTYPE svg PUBLIC "-//W3C//DTD SVG 1.1//EN" "http://www.w3.org/Graphics/SVG/1.1/DTD/svg11.dtd">
<svg version="1.1" id="Layer_1" xmlns="http://www.w3.org/2000/svg" xmlns:xlink="http://www.w3.org/1999/xlink" x="0px" y="0px"
	 width="64px" height="64px" viewBox="0 0 64 64" enable-background="new 0 0 64 64" xml:space="preserve">
<g>
	<circle fill="#D86A07" cx="32" cy="32" r="28.1"/>
	<path fill="#B75504" d="M32,60.1C16.5,60.1,3.9,47.5,3.9,32S16.5,3.9,32,3.9"/>
	<g>
		<path fill="#F4CF31" d="M35,59.5c0,1.9-1.6,3.5-3.5,3.5l0,0c-1.9,0-3.5-1.6-3.5-3.5v-36c0-1.9,1.6-3.5,3.5-3.5l0,0
			c1.9,0,3.5,1.6,3.5,3.5V59.5z"/>
		<path fill="#F2B233" d="M32,25.8l0.2-6.3c2,0,2.8,2,2.8,4v36c0,2-1.5,3.5-3.5,3.5l0,0"/>
		<g>
			<path fill="#F4CF31" d="M32,5.5c-1-2.3-4-3.7-7-3.7c-4.3,0-7.8,3.1-7.8,6.9c0,1.4,0.5,2.7,1.3,3.9c0,0,0,0,0,0c0,0,0,0,0.1,0.1
				L32,25.8V5.5z"/>
			<path fill="#F2B233" d="M32,5.5c1-2.3,4-3.7,7-3.7c4.3,0,7.8,3.1,7.8,6.9c0,1.4-0.5,2.7-1.3,3.9c0,0,0,0,0,0c0,0,0,0-0.1,0.1
				L32,25.8V5.5z"/>
		</g>
		<ellipse transform="matrix(0.9449 -0.3274 0.3274 0.9449 -0.2667 7.8713)" fill="#FFE67D" cx="23.2" cy="4.7" rx="3.6" ry="1.8"/>
		<circle fill="#FFE67D" cx="19.7" cy="9" r="1"/>
		<circle fill="#FFE67D" cx="21.6" cy="11.6" r="0.4"/>
		<g>
			<circle fill="#FFE67D" cx="32" cy="12.4" r="0.9"/>
			<circle fill="#FFE67D" cx="32" cy="16.8" r="0.9"/>
			<circle fill="#FFE67D" cx="32" cy="21.2" r="0.9"/>
		</g>
		<path fill="#F4CF31" d="M42,48c0,1.1-0.9,2-2,2h-5c-1.1,0-2-0.9-2-2l0,0c0-1.1,0.9-2,2-2h5C41.1,46,42,46.9,42,48L42,48z"/>
		<path fill="#F2B233" d="M42,48L42,48c0,1.1-0.9,2-2,2h-5c-1.1,0-2-0.9-2-2l0,0"/>
		<path fill="#F2B233" d="M42,56c0,1.1-0.9,2-2.1,2H35c-1.1,0-2.1-0.9-2.1-2l0,0c0-1.1,0.9-2,2.1-2H40C41.1,54,42,54.9,42,56L42,56z
			"/>
	</g>
</g>
</svg>
