<?xml version="1.0" encoding="utf-8"?>
<!-- Generator: Adobe Illustrator 16.0.0, SVG Export Plug-In . SVG Version: 6.00 Build 0)  -->
<!DOCTYPE svg PUBLIC "-//W3C//DTD SVG 1.1//EN" "http://www.w3.org/Graphics/SVG/1.1/DTD/svg11.dtd">
<svg version="1.1" xmlns="http://www.w3.org/2000/svg" xmlns:xlink="http://www.w3.org/1999/xlink" x="0px" y="0px" width="65px"
	 height="65px" viewBox="0 0 65 65" enable-background="new 0 0 65 65" xml:space="preserve">
<g id="Layer_1">
	<g>
		<path fill="#A1B7AA" d="M14.724,51.681h0.926c-0.061,0.629-0.59,1.123-1.234,1.123c-0.684,0-1.24-0.557-1.24-1.24v-4.629
			c0-0.262,0.002-0.537,0.033-0.748c-0.297,0.134-0.623,0.212-0.971,0.218c-0.006,0.173-0.008,0.351-0.008,0.532v4.627
			c0,1.204,0.98,2.185,2.186,2.185c1.164,0,2.121-0.917,2.182-2.067h0.002v-1.84L14.724,51.681z"/>
		<path fill="#938D76" d="M38.528,43.453c-5.473-6.471-10.867-13.003-16.25-19.547c-2.707-3.26-5.361-6.56-8.041-9.842L6.216,4.207
			l0.662,0.049c-0.721,0.699-1.402,1.52-2.012,2.355C4.253,7.454,3.7,8.342,3.224,9.267c-0.953,1.847-1.613,3.852-1.82,5.914
			c-0.121,1.027-0.096,2.068,0.012,3.096c0.094,1.033,0.367,2.039,0.664,3.031c0.35,0.978,0.75,1.94,1.266,2.849
			c0.25,0.458,0.502,0.914,0.801,1.345c0.279,0.442,0.576,0.873,0.902,1.284c0.309,0.424,0.635,0.836,0.986,1.227
			c0.344,0.397,0.684,0.8,1.061,1.168l2.227,2.285c0.369,0.383,0.748,0.756,1.107,1.149l1.041,1.233
			c0.723,0.798,1.326,1.688,1.938,2.57c0.328,0.427,0.553,0.923,0.816,1.391c0.262,0.471,0.523,0.939,0.689,1.459
			c0.184,0.508,0.414,1,0.482,1.544l0.156,0.797c0.023,0.27,0.006,0.544,0.01,0.814c-0.016,1.075-0.354,2.185-1.082,2.995
			c-0.703,0.823-1.648,1.402-2.66,1.727c0.996-0.366,1.906-0.984,2.553-1.813c0.68-0.812,0.967-1.881,0.947-2.911
			c-0.012-0.261-0.004-0.521-0.033-0.778l-0.178-0.765c-0.08-0.518-0.322-0.992-0.516-1.478c-0.174-0.496-0.447-0.947-0.717-1.399
			c-0.273-0.449-0.504-0.922-0.842-1.332c-0.623-0.852-1.229-1.715-1.953-2.483l-1.043-1.188c-0.363-0.383-0.752-0.75-1.129-1.127
			l-2.273-2.242c-0.393-0.368-0.748-0.772-1.107-1.175c-0.369-0.393-0.709-0.809-1.037-1.238c-0.346-0.417-0.66-0.856-0.957-1.309
			c-0.318-0.439-0.592-0.907-0.859-1.38c-0.545-0.938-0.973-1.943-1.344-2.968C1.009,20.52,0.718,19.46,0.61,18.37
			c-0.123-1.084-0.154-2.186-0.035-3.272c0.205-2.181,0.887-4.293,1.871-6.23c0.492-0.969,1.061-1.897,1.695-2.78
			c0.639-0.884,1.312-1.717,2.117-2.5L6.61,3.245l0.312,0.39l7.959,9.909c2.648,3.307,5.318,6.596,7.939,9.924
			C28.091,30.103,33.349,36.746,38.528,43.453z"/>
		<path fill="#112D3F" d="M19.901,18.021c0.209,0.208,0.209,0.546,0,0.754l-1.828,1.829c-0.209,0.207-0.547,0.207-0.754,0l0,0
			c-0.209-0.209-0.207-0.546,0-0.754l1.828-1.829C19.356,17.812,19.692,17.812,19.901,18.021L19.901,18.021z"/>
		<path fill="#112D3F" d="M28.54,28.065c0.207,0.208,0.207,0.546,0,0.753l-1.83,1.829c-0.207,0.208-0.545,0.208-0.754,0l0,0
			c-0.207-0.208-0.207-0.545,0-0.753l1.83-1.829C27.993,27.857,28.331,27.856,28.54,28.065L28.54,28.065z"/>
		<path fill="#809BAD" d="M63.261,54.53c1.652,1.653,1.652,4.334,0,5.984c-1.654,1.653-4.332,1.653-5.984,0
			C55.624,58.864,4.446,5.006,6.099,3.353C7.751,1.7,61.606,52.878,63.261,54.53z"/>
		<path fill="#668596" d="M6.099,3.353C4.446,5.006,55.624,58.864,57.276,60.515c1.652,1.653,4.33,1.653,5.984,0"/>
		<circle fill="#0E405B" cx="40.964" cy="46.706" r="5.193"/>
		<path fill="#112D3F" d="M44.636,50.38c2.029-2.029,2.029-5.316,0-7.345c-2.027-2.028-5.314-2.028-7.344,0"/>
		<path fill="#809BAD" d="M41.649,53.461c0,0.378-0.307,0.685-0.684,0.685l0,0c-0.379,0-0.686-0.307-0.686-0.685v-6.545
			c0-0.378,0.307-0.685,0.686-0.685l0,0c0.377,0,0.684,0.307,0.684,0.685V53.461z"/>
		<path fill="#112D3F" d="M43.362,54.678c0,0.883-0.717,1.599-1.598,1.599h-1.598c-0.885,0-1.6-0.716-1.6-1.599l0,0
			c0-0.883,0.715-1.598,1.6-1.598h1.598C42.646,53.08,43.362,53.795,43.362,54.678L43.362,54.678z"/>
		<path fill="#112D3F" d="M48.882,40.184c0.361,0.362,0.361,0.949,0,1.312l-4.207,4.207c-0.361,0.362-0.949,0.362-1.312,0
			l-1.564-1.566c-0.363-0.362-0.363-0.95,0-1.312l4.207-4.208c0.361-0.361,0.949-0.361,1.311,0L48.882,40.184z"/>
		<path fill="#112D3F" d="M38.415,42.883"/>
		<path fill="#CE0909" d="M13.659,47.404c-0.49,0.49-1.285,0.49-1.777,0l0,0c-0.49-0.491-0.49-1.286,0.002-1.776l0,0
			c0.49-0.491,1.285-0.491,1.775,0l0,0C14.149,46.118,14.149,46.913,13.659,47.404L13.659,47.404z"/>
		<g>
			<path fill="#890C0C" d="M11.452,48.586c-0.209,0.208-0.547,0.208-0.754,0.001l0,0c-0.207-0.207-0.207-0.545,0-0.753l3.391-3.391
				c0.209-0.208,0.547-0.208,0.754,0l0,0c0.207,0.207,0.207,0.545-0.002,0.753L11.452,48.586z"/>
			<path fill="#890C0C" d="M10.698,45.197c-0.207-0.208-0.207-0.545,0-0.754l0,0c0.207-0.207,0.545-0.207,0.754,0.002l3.389,3.391
				c0.209,0.206,0.209,0.545,0.002,0.751l0,0c-0.209,0.208-0.545,0.208-0.754,0.001L10.698,45.197z"/>
		</g>
	</g>
</g>
<g id="nyt_x5F_exporter_x5F_info" display="none">
</g>
</svg>
