<?xml version="1.0" encoding="utf-8"?>
<!-- Generator: Adobe Illustrator 16.0.0, SVG Export Plug-In . SVG Version: 6.00 Build 0)  -->
<!DOCTYPE svg PUBLIC "-//W3C//DTD SVG 1.1//EN" "http://www.w3.org/Graphics/SVG/1.1/DTD/svg11.dtd">
<svg version="1.1" id="Layer_1" xmlns="http://www.w3.org/2000/svg" xmlns:xlink="http://www.w3.org/1999/xlink" x="0px" y="0px"
	 width="64px" height="64px" viewBox="0 0 64 64" enable-background="new 0 0 64 64" xml:space="preserve">
<g>
	<rect x="1.7" y="55.9" fill="#2EBFA6" width="60.7" height="6.2"/>
	<rect x="1.7" y="58.4" fill="#14AFA7" width="60.7" height="3.6"/>
	<g>
		<rect x="19.6" y="17.3" fill="#C18708" width="28.1" height="2.7"/>
		<rect x="19.6" y="21" fill="#C18708" width="28.1" height="0.5"/>
		<rect x="19.6" y="18.9" fill="#936407" width="28.1" height="1.2"/>
		<g>
			<g>
				<g>
					<path fill="#EDB435" d="M31.5,35c0.7,0.7-9.1,11.7-9.8,12.4c-0.7,0.7-1.9,0.7-2.6,0c-0.7-0.7-0.7-1.9,0-2.6
						C19.8,44,30.8,34.3,31.5,35z"/>
					<path fill="#DBA216" d="M31.5,35c0.7,0.7-9.1,11.7-9.8,12.4c-0.7,0.7-1.9,0.7-2.6,0"/>
					<circle fill="#936407" cx="20.6" cy="46.1" r="1.5"/>
					<circle fill="#C18708" cx="20.6" cy="46.1" r="0.7"/>
				</g>
				<g>
					<path fill="#936407" d="M1.6,33.8c-0.3,0-0.6-0.3-0.6-0.6s0.3-0.6,0.6-0.6c3.2,0,6.2-9.6,6.2-13.2c0-0.3,0.3-0.6,0.6-0.6
						c0.3,0,0.6,0.3,0.6,0.6C8.9,23,5.9,33.8,1.6,33.8z"/>
				</g>
				<path fill="#C18708" d="M12.3,46.5c0,0.5-0.4,0.9-0.9,0.9H1.9c-0.5,0-0.9-0.4-0.9-0.9l0,0c0-0.5,0.4-0.9,0.9-0.9h9.4
					C11.9,45.6,12.3,46,12.3,46.5L12.3,46.5z"/>
				<path fill="#936407" d="M11.3,45.6c0.5,0,0.9,0.4,0.9,0.9l0,0c0,0.5-0.4,0.9-0.9,0.9H1.9c-0.5,0-0.9-0.4-0.9-0.9l0,0"/>
				<g>
					<g>
						<polygon fill="#281B13" points="12.5,13.2 9.3,6.3 6.1,13.2 						"/>
						<polygon fill="#422E20" points="11.1,13.2 9.3,6.3 7.5,13.2 						"/>
						<path fill="#7F5B42" d="M12.7,13.3C12.7,13.4,12.7,13.4,12.7,13.3l-6.8,0.1c0,0-0.1,0-0.1-0.1l0,0c0,0,0-0.1,0.1-0.1
							L12.7,13.3C12.7,13.2,12.7,13.3,12.7,13.3L12.7,13.3z"/>
					</g>
					<g>
						<polygon fill="#281B13" points="22.1,13.2 18.9,6.3 15.7,13.2 						"/>
						<polygon fill="#422E20" points="20.6,13.2 18.9,6.3 17.1,13.2 						"/>
						<path fill="#7F5B42" d="M22.3,13.3C22.3,13.4,22.3,13.4,22.3,13.3l-6.8,0.1c0,0-0.1,0-0.1-0.1l0,0c0,0,0-0.1,0.1-0.1
							L22.3,13.3C22.3,13.2,22.3,13.3,22.3,13.3L22.3,13.3z"/>
					</g>
				</g>
				<g>
					<g>
						<rect x="6.4" y="14.2" fill="#DBA216" width="2.1" height="13.5"/>
						<polyline fill="#C18708" points="8.5,14.2 8.5,27.8 6.4,27.8 						"/>
					</g>
					<g>
						<rect x="19.7" y="14.2" fill="#EFBC4B" width="2.1" height="13.5"/>
						<polyline fill="#DBA216" points="19.7,14.2 19.7,27.8 21.8,27.8 						"/>
					</g>
				</g>
				<g>
					<rect x="8.4" y="13.4" fill="#DBA216" width="11.4" height="14.5"/>
					<polyline fill="#EFBC4B" points="8.4,28 8.4,13.4 9.8,13.4 					"/>
					<polyline fill="#C18708" points="8.4,13.4 19.8,13.4 19.8,28 					"/>
					<rect x="5.9" y="13.4" fill="#E5BC5E" width="16.3" height="1"/>
					<polygon fill="#CCA352" points="9.7,14.4 19.8,14.4 19.8,13.4 8.4,13.4 					"/>
					<g>
						<g>
							<g>
								<rect x="11.1" y="23.9" fill="#635439" width="1.3" height="2.7"/>
								<path fill="#EDCB8E" d="M12.6,26.8H11v-3h1.6V26.8z M11.3,26.5h1v-2.4h-1V26.5z"/>
							</g>
							<g>
								<rect x="15.7" y="23.9" fill="#635439" width="1.3" height="2.7"/>
								<path fill="#EDCB8E" d="M17.2,26.8h-1.6v-3h1.6V26.8z M15.9,26.5h1v-2.4h-1V26.5z"/>
							</g>
						</g>
						<g>
							<rect x="13.6" y="23.9" fill="#635439" width="0.9" height="2.7"/>
							<path fill="#EDCB8E" d="M14.7,26.8h-1.2v-3h1.2V26.8z M13.8,26.5h0.6v-2.4h-0.6V26.5z"/>
						</g>
					</g>
					<rect x="10.6" y="26.8" fill="#C18708" width="2.3" height="0.3"/>
					<rect x="13" y="26.8" fill="#C18708" width="2.3" height="0.3"/>
					<rect x="15.4" y="26.8" fill="#C18708" width="2.3" height="0.3"/>
				</g>
				<g>
					<rect x="8.4" y="27.9" fill="#DBA216" width="11.4" height="7.8"/>
					<polyline fill="#EFBC4B" points="8.4,35.6 8.4,27.9 9.8,27.9 					"/>
					<polyline fill="#C18708" points="8.4,27.9 19.8,27.9 19.8,35.6 					"/>
					<rect x="8.2" y="27.8" fill="#E5BC5E" width="11.8" height="1"/>
					<polygon fill="#CCA352" points="9.7,28.8 19.8,28.8 19.8,27.9 8.4,27.9 					"/>
					<g>
						<g>
							<g>
								<rect x="11.1" y="30.2" fill="#635439" width="1.3" height="2.7"/>
								<path fill="#EDCB8E" d="M12.6,33H11v-3h1.6V33z M11.3,32.8h1v-2.4h-1V32.8z"/>
							</g>
							<g>
								<rect x="15.7" y="30.2" fill="#635439" width="1.3" height="2.7"/>
								<path fill="#EDCB8E" d="M17.2,33h-1.6v-3h1.6V33z M15.9,32.8h1v-2.4h-1V32.8z"/>
							</g>
						</g>
						<g>
							<rect x="13.6" y="30.2" fill="#635439" width="0.9" height="2.7"/>
							<path fill="#EDCB8E" d="M14.7,33h-1.2v-3h1.2V33z M13.8,32.8h0.6v-2.4h-0.6V32.8z"/>
						</g>
					</g>
					<rect x="10.6" y="33.1" fill="#C18708" width="2.3" height="0.3"/>
					<rect x="13" y="33.1" fill="#C18708" width="2.3" height="0.3"/>
					<rect x="15.4" y="33.1" fill="#C18708" width="2.3" height="0.3"/>
				</g>
				<g>
					<rect x="8.4" y="34.2" fill="#DBA216" width="11.4" height="7.8"/>
					<polyline fill="#EFBC4B" points="8.4,42 8.4,34.2 9.8,34.2 					"/>
					<polyline fill="#C18708" points="8.4,34.2 19.8,34.2 19.8,42 					"/>
					<rect x="8.2" y="34.2" fill="#E5BC5E" width="11.8" height="1"/>
					<polygon fill="#CCA352" points="9.7,35.2 19.8,35.2 19.8,34.2 8.4,34.2 					"/>
					<g>
						<g>
							<g>
								<rect x="11.1" y="36.5" fill="#635439" width="1.3" height="2.7"/>
								<path fill="#EDCB8E" d="M12.6,39.4H11v-3h1.6V39.4z M11.3,39.1h1v-2.4h-1V39.1z"/>
							</g>
							<g>
								<rect x="15.7" y="36.5" fill="#635439" width="1.3" height="2.7"/>
								<path fill="#EDCB8E" d="M17.2,39.4h-1.6v-3h1.6V39.4z M15.9,39.1h1v-2.4h-1V39.1z"/>
							</g>
						</g>
						<g>
							<rect x="13.6" y="36.5" fill="#635439" width="0.9" height="2.7"/>
							<path fill="#EDCB8E" d="M14.7,39.4h-1.2v-3h1.2V39.4z M13.8,39.1h0.6v-2.4h-0.6V39.1z"/>
						</g>
					</g>
					<rect x="10.6" y="39.4" fill="#C18708" width="2.3" height="0.3"/>
					<rect x="13" y="39.4" fill="#C18708" width="2.3" height="0.3"/>
					<rect x="15.4" y="39.4" fill="#C18708" width="2.3" height="0.3"/>
				</g>
				<g>
					<rect x="8.4" y="40.6" fill="#DBA216" width="11.4" height="7.8"/>
					<polyline fill="#EFBC4B" points="8.4,48.3 8.4,40.6 9.8,40.6 					"/>
					<polyline fill="#C18708" points="8.4,40.6 19.8,40.6 19.8,48.3 					"/>
					<rect x="8.2" y="40.5" fill="#E5BC5E" width="11.8" height="1"/>
					<polygon fill="#CCA352" points="9.7,41.5 19.8,41.5 19.8,40.6 8.4,40.6 					"/>
					<g>
						<g>
							<g>
								<rect x="11.1" y="42.9" fill="#635439" width="1.3" height="2.7"/>
								<path fill="#EDCB8E" d="M12.6,45.7H11v-3h1.6V45.7z M11.3,45.5h1V43h-1V45.5z"/>
							</g>
							<g>
								<rect x="15.7" y="42.9" fill="#635439" width="1.3" height="2.7"/>
								<path fill="#EDCB8E" d="M17.2,45.7h-1.6v-3h1.6V45.7z M15.9,45.5h1V43h-1V45.5z"/>
							</g>
						</g>
						<g>
							<rect x="13.6" y="42.9" fill="#635439" width="0.9" height="2.7"/>
							<path fill="#EDCB8E" d="M14.7,45.7h-1.2v-3h1.2V45.7z M13.8,45.5h0.6V43h-0.6V45.5z"/>
						</g>
					</g>
					<rect x="10.6" y="45.8" fill="#C18708" width="2.3" height="0.3"/>
					<rect x="13" y="45.8" fill="#C18708" width="2.3" height="0.3"/>
					<rect x="15.4" y="45.8" fill="#C18708" width="2.3" height="0.3"/>
				</g>
				<rect x="7.1" y="47.3" fill="#6B5C41" width="13.9" height="8.7"/>
				<polygon fill="#776849" points="21,56 7.1,56 7.1,47.3 15.3,53.1 				"/>
				<rect x="13.7" y="47.3" fill="#5E513A" width="7.3" height="8.7"/>
				<path fill="#5E513A" d="M21.7,56c0,0.2-0.1,0.3-0.3,0.3H6.7c-0.2,0-0.3-0.1-0.3-0.3l0,0c0-0.2,0.1-0.3,0.3-0.3h14.7
					C21.6,55.7,21.7,55.8,21.7,56L21.7,56z"/>
				<path fill="#5E513A" d="M21.7,47.2c0,0.2-0.1,0.3-0.3,0.3H6.7c-0.2,0-0.3-0.1-0.3-0.3l0,0c0-0.2,0.1-0.3,0.3-0.3h14.7
					C21.6,47,21.7,47.1,21.7,47.2L21.7,47.2z"/>
				<g>
					<g>
						<path fill="#C18708" d="M17.1,18.4c0,1.6-1.3,4.1-3,4.1c-1.6,0-3-2.4-3-4.1c0-1.7,1.3-3,3-3C15.7,15.5,17.1,16.8,17.1,18.4z"
							/>
						<path fill="#EDEADA" d="M17.1,18.4c0,1.6-1.3,3-3,3c-1.6,0-3-1.3-3-3c0-1.7,1.3-3,3-3C15.7,15.5,17.1,16.8,17.1,18.4z"/>
						<path fill="#DBD6C1" d="M14.1,15.5c-0.9,0-1.8,0.4-2.3,1.1l4.2,4.2c0.7-0.5,1.1-1.4,1.1-2.3C17.1,16.8,15.7,15.5,14.1,15.5z"
							/>
						<path fill="#F4C647" d="M14.1,21.7c-1.8,0-3.2-1.4-3.2-3.2c0-1.8,1.4-3.2,3.2-3.2c1.8,0,3.2,1.4,3.2,3.2
							C17.3,20.2,15.9,21.7,14.1,21.7z M14.1,15.7c-1.5,0-2.7,1.2-2.7,2.7c0,1.5,1.2,2.7,2.7,2.7c1.5,0,2.7-1.2,2.7-2.7
							C16.8,16.9,15.6,15.7,14.1,15.7z"/>
					</g>
					<path fill="#AF8366" d="M14.2,18.3c0,0.1-0.1,0.1-0.1,0.1l0,0c-0.1,0-0.1-0.1-0.1-0.1v-2.2c0-0.1,0.1-0.1,0.1-0.1l0,0
						c0.1,0,0.1,0.1,0.1,0.1V18.3z"/>
					<path fill="#4F3E32" d="M15.6,18.4c0,0.1-0.1,0.2-0.2,0.2H14c-0.1,0-0.2-0.1-0.2-0.2l0,0c0-0.1,0.1-0.2,0.2-0.2h1.4
						C15.5,18.2,15.6,18.3,15.6,18.4L15.6,18.4z"/>
				</g>
				<g>
					<polygon fill="#604533" points="19.4,13.6 14.1,2 8.7,13.6 					"/>
					<polygon fill="#422E20" points="17,13.6 14.1,2 11.1,13.6 					"/>
					<path fill="#7F5B42" d="M19.8,13.7c0,0.1-0.1,0.1-0.1,0.1H8.5c-0.1,0-0.1-0.1-0.1-0.1l0,0c0-0.1,0-0.1,0.1-0.1h11.2
						C19.8,13.6,19.8,13.6,19.8,13.7L19.8,13.7z"/>
				</g>
				<path fill="#66D3C3" d="M20.6,57.8c0,0.2-0.1,0.3-0.3,0.3H7.9c-0.2,0-0.3-0.1-0.3-0.3l0,0c0-0.2,0.1-0.3,0.3-0.3h12.3
					C20.4,57.5,20.6,57.6,20.6,57.8L20.6,57.8z"/>
				<path fill="#66D3C3" d="M13.8,59.8c0,0.2-0.2,0.3-0.3,0.3H7.9c-0.2,0-0.3-0.1-0.3-0.3l0,0c0-0.2,0.1-0.3,0.3-0.3h5.5
					C13.6,59.5,13.8,59.6,13.8,59.8L13.8,59.8z"/>
				<path fill="#66D3C3" d="M20.4,59.8c0,0.2-0.1,0.3-0.3,0.3h-1c-0.2,0-0.3-0.1-0.3-0.3l0,0c0-0.2,0.1-0.3,0.3-0.3h1
					C20.2,59.5,20.4,59.6,20.4,59.8L20.4,59.8z"/>
				<path fill="#66D3C3" d="M17.5,59.8c0,0.2-0.1,0.3-0.3,0.3h-1c-0.2,0-0.3-0.1-0.3-0.3l0,0c0-0.2,0.1-0.3,0.3-0.3h1
					C17.4,59.5,17.5,59.6,17.5,59.8L17.5,59.8z"/>
				<path fill="#C18708" d="M2.7,45.7c0,0.2-0.1,0.3-0.3,0.3l0,0c-0.2,0-0.3-0.1-0.3-0.3V33.4c0-0.2,0.1-0.3,0.3-0.3l0,0
					c0.2,0,0.3,0.1,0.3,0.3V45.7z"/>
				<path fill="#C18708" d="M4.8,45.7c0,0.2-0.1,0.3-0.3,0.3l0,0c-0.2,0-0.3-0.1-0.3-0.3V31.2c0-0.2,0.1-0.3,0.3-0.3l0,0
					c0.2,0,0.3,0.1,0.3,0.3V45.7z"/>
				<path fill="#C18708" d="M6.8,45.7c0,0.2-0.1,0.3-0.3,0.3l0,0c-0.2,0-0.3-0.1-0.3-0.3v-18c0-0.2,0.1-0.3,0.3-0.3l0,0
					c0.2,0,0.3,0.1,0.3,0.3V45.7z"/>
			</g>
			<g>
				<g>
					<path fill="#EDB435" d="M29.5,39.2c-0.4,0.9,12.4,8,13.3,8.5c0.9,0.4,2,0.1,2.5-0.9c0.4-0.9,0.1-2-0.9-2.5
						C43.4,43.9,29.9,38.3,29.5,39.2z"/>
					<path fill="#DBA216" d="M29.5,39.2c-0.4,0.9,12.4,8,13.3,8.5c0.9,0.4,2,0.1,2.5-0.9"/>
					<path fill="#936407" d="M42.1,45.4c-0.4,0.8,0,1.7,0.7,2c0.8,0.4,1.7,0,2-0.7c0.4-0.8,0.1-1.7-0.7-2
						C43.3,44.4,42.4,44.7,42.1,45.4z"/>
					<path fill="#C18708" d="M42.8,45.8c-0.2,0.4,0,0.8,0.3,1c0.4,0.2,0.8,0,1-0.3c0.2-0.4,0-0.8-0.3-1C43.4,45.3,43,45.4,42.8,45.8
						z"/>
				</g>
				<g>
					<path fill="#936407" d="M62.4,33.8c0.3,0,0.6-0.3,0.6-0.6s-0.3-0.6-0.6-0.6c-3.2,0-6.2-9.6-6.2-13.2c0-0.3-0.3-0.6-0.6-0.6
						c-0.3,0-0.6,0.3-0.6,0.6C55.1,23,58.1,33.8,62.4,33.8z"/>
				</g>
				<path fill="#C18708" d="M51.7,46.5c0,0.5,0.4,0.9,0.9,0.9h9.4c0.5,0,0.9-0.4,0.9-0.9l0,0c0-0.5-0.4-0.9-0.9-0.9h-9.4
					C52.1,45.6,51.7,46,51.7,46.5L51.7,46.5z"/>
				<path fill="#936407" d="M52.7,45.6c-0.5,0-0.9,0.4-0.9,0.9l0,0c0,0.5,0.4,0.9,0.9,0.9h9.4c0.5,0,0.9-0.4,0.9-0.9l0,0"/>
				<g>
					<g>
						<polygon fill="#281B13" points="51.5,13.2 54.7,6.3 57.9,13.2 						"/>
						<polygon fill="#422E20" points="52.9,13.2 54.7,6.3 56.5,13.2 						"/>
						<path fill="#7F5B42" d="M51.3,13.3C51.3,13.4,51.3,13.4,51.3,13.3l6.8,0.1c0,0,0.1,0,0.1-0.1l0,0c0,0,0-0.1-0.1-0.1L51.3,13.3
							C51.3,13.2,51.3,13.3,51.3,13.3L51.3,13.3z"/>
					</g>
					<g>
						<polygon fill="#281B13" points="41.9,13.2 45.1,6.3 48.3,13.2 						"/>
						<polygon fill="#422E20" points="43.4,13.2 45.1,6.3 46.9,13.2 						"/>
						<path fill="#7F5B42" d="M41.7,13.3C41.7,13.4,41.7,13.4,41.7,13.3l6.8,0.1c0,0,0.1,0,0.1-0.1l0,0c0,0,0-0.1-0.1-0.1L41.7,13.3
							C41.7,13.2,41.7,13.3,41.7,13.3L41.7,13.3z"/>
					</g>
				</g>
				<g>
					<g>
						<rect x="55.5" y="14.2" fill="#DBA216" width="2.1" height="13.5"/>
						<polyline fill="#C18708" points="55.5,14.2 55.5,27.8 57.6,27.8 						"/>
					</g>
					<g>
						<rect x="42.2" y="14.2" fill="#EFBC4B" width="2.1" height="13.5"/>
						<polyline fill="#DBA216" points="44.3,14.2 44.3,27.8 42.2,27.8 						"/>
					</g>
				</g>
				<g>
					<rect x="44.2" y="13.4" fill="#DBA216" width="11.4" height="14.5"/>
					<polyline fill="#EFBC4B" points="55.6,28 55.6,13.4 54.2,13.4 					"/>
					<polyline fill="#C18708" points="55.6,13.4 44.2,13.4 44.2,28 					"/>
					<rect x="41.8" y="13.4" fill="#E5BC5E" width="16.3" height="1"/>
					<polygon fill="#CCA352" points="54.3,14.4 44.2,14.4 44.2,13.4 55.6,13.4 					"/>
					<g>
						<g>
							<g>
								<rect x="51.6" y="23.9" fill="#635439" width="1.3" height="2.7"/>
								<path fill="#EDCB8E" d="M51.4,23.8H53v3h-1.6V23.8z M52.7,24.1h-1v2.4h1V24.1z"/>
							</g>
							<g>
								<rect x="47" y="23.9" fill="#635439" width="1.3" height="2.7"/>
								<path fill="#EDCB8E" d="M46.8,23.8h1.6v3h-1.6V23.8z M48.1,24.1h-1v2.4h1V24.1z"/>
							</g>
						</g>
						<g>
							<rect x="49.5" y="23.9" fill="#635439" width="0.9" height="2.7"/>
							<path fill="#EDCB8E" d="M49.3,23.8h1.2v3h-1.2V23.8z M50.2,24.1h-0.6v2.4h0.6V24.1z"/>
						</g>
					</g>
					<rect x="51.1" y="26.8" fill="#C18708" width="2.3" height="0.3"/>
					<rect x="48.7" y="26.8" fill="#C18708" width="2.3" height="0.3"/>
					<rect x="46.4" y="26.8" fill="#C18708" width="2.3" height="0.3"/>
				</g>
				<g>
					<rect x="44.2" y="27.9" fill="#DBA216" width="11.4" height="7.8"/>
					<polyline fill="#EFBC4B" points="55.6,35.6 55.6,27.9 54.2,27.9 					"/>
					<polyline fill="#C18708" points="55.6,27.9 44.2,27.9 44.2,35.6 					"/>
					<rect x="44" y="27.8" fill="#E5BC5E" width="11.8" height="1"/>
					<polygon fill="#CCA352" points="54.3,28.8 44.2,28.8 44.2,27.9 55.6,27.9 					"/>
					<g>
						<g>
							<g>
								<rect x="51.6" y="30.2" fill="#635439" width="1.3" height="2.7"/>
								<path fill="#EDCB8E" d="M51.4,30H53v3h-1.6V30z M52.7,30.3h-1v2.4h1V30.3z"/>
							</g>
							<g>
								<rect x="47" y="30.2" fill="#635439" width="1.3" height="2.7"/>
								<path fill="#EDCB8E" d="M46.8,30h1.6v3h-1.6V30z M48.1,30.3h-1v2.4h1V30.3z"/>
							</g>
						</g>
						<g>
							<rect x="49.5" y="30.2" fill="#635439" width="0.9" height="2.7"/>
							<path fill="#EDCB8E" d="M49.3,30h1.2v3h-1.2V30z M50.2,30.3h-0.6v2.4h0.6V30.3z"/>
						</g>
					</g>
					<rect x="51.1" y="33.1" fill="#C18708" width="2.3" height="0.3"/>
					<rect x="48.7" y="33.1" fill="#C18708" width="2.3" height="0.3"/>
					<rect x="46.4" y="33.1" fill="#C18708" width="2.3" height="0.3"/>
				</g>
				<g>
					<rect x="44.2" y="34.2" fill="#DBA216" width="11.4" height="7.8"/>
					<polyline fill="#EFBC4B" points="55.6,42 55.6,34.2 54.2,34.2 					"/>
					<polyline fill="#C18708" points="55.6,34.2 44.2,34.2 44.2,42 					"/>
					<rect x="44" y="34.2" fill="#E5BC5E" width="11.8" height="1"/>
					<polygon fill="#CCA352" points="54.3,35.2 44.2,35.2 44.2,34.2 55.6,34.2 					"/>
					<g>
						<g>
							<g>
								<rect x="51.6" y="36.5" fill="#635439" width="1.3" height="2.7"/>
								<path fill="#EDCB8E" d="M51.4,36.4H53v3h-1.6V36.4z M52.7,36.7h-1v2.4h1V36.7z"/>
							</g>
							<g>
								<rect x="47" y="36.5" fill="#635439" width="1.3" height="2.7"/>
								<path fill="#EDCB8E" d="M46.8,36.4h1.6v3h-1.6V36.4z M48.1,36.7h-1v2.4h1V36.7z"/>
							</g>
						</g>
						<g>
							<rect x="49.5" y="36.5" fill="#635439" width="0.9" height="2.7"/>
							<path fill="#EDCB8E" d="M49.3,36.4h1.2v3h-1.2V36.4z M50.2,36.7h-0.6v2.4h0.6V36.7z"/>
						</g>
					</g>
					<rect x="51.1" y="39.4" fill="#C18708" width="2.3" height="0.3"/>
					<rect x="48.7" y="39.4" fill="#C18708" width="2.3" height="0.3"/>
					<rect x="46.4" y="39.4" fill="#C18708" width="2.3" height="0.3"/>
				</g>
				<g>
					<rect x="44.2" y="40.6" fill="#DBA216" width="11.4" height="7.8"/>
					<polyline fill="#EFBC4B" points="55.6,48.3 55.6,40.6 54.2,40.6 					"/>
					<polyline fill="#C18708" points="55.6,40.6 44.2,40.6 44.2,48.3 					"/>
					<rect x="44" y="40.5" fill="#E5BC5E" width="11.8" height="1"/>
					<polygon fill="#CCA352" points="54.3,41.5 44.2,41.5 44.2,40.6 55.6,40.6 					"/>
					<g>
						<g>
							<g>
								<rect x="51.6" y="42.9" fill="#635439" width="1.3" height="2.7"/>
								<path fill="#EDCB8E" d="M51.4,42.7H53v3h-1.6V42.7z M52.7,43h-1v2.4h1V43z"/>
							</g>
							<g>
								<rect x="47" y="42.9" fill="#635439" width="1.3" height="2.7"/>
								<path fill="#EDCB8E" d="M46.8,42.7h1.6v3h-1.6V42.7z M48.1,43h-1v2.4h1V43z"/>
							</g>
						</g>
						<g>
							<rect x="49.5" y="42.9" fill="#635439" width="0.9" height="2.7"/>
							<path fill="#EDCB8E" d="M49.3,42.7h1.2v3h-1.2V42.7z M50.2,43h-0.6v2.4h0.6V43z"/>
						</g>
					</g>
					<rect x="51.1" y="45.8" fill="#C18708" width="2.3" height="0.3"/>
					<rect x="48.7" y="45.8" fill="#C18708" width="2.3" height="0.3"/>
					<rect x="46.4" y="45.8" fill="#C18708" width="2.3" height="0.3"/>
				</g>
				<rect x="43" y="47.3" fill="#6B5C41" width="13.9" height="8.7"/>
				<polygon fill="#776849" points="43,56 56.9,56 56.9,47.3 48.7,53.1 				"/>
				<rect x="43" y="47.3" fill="#5E513A" width="7.3" height="8.7"/>
				<path fill="#5E513A" d="M42.3,56c0,0.2,0.1,0.3,0.3,0.3h14.7c0.2,0,0.3-0.1,0.3-0.3l0,0c0-0.2-0.1-0.3-0.3-0.3H42.6
					C42.4,55.7,42.3,55.8,42.3,56L42.3,56z"/>
				<path fill="#5E513A" d="M42.3,47.2c0,0.2,0.1,0.3,0.3,0.3h14.7c0.2,0,0.3-0.1,0.3-0.3l0,0c0-0.2-0.1-0.3-0.3-0.3H42.6
					C42.4,47,42.3,47.1,42.3,47.2L42.3,47.2z"/>
				<g>
					<g>
						<path fill="#C18708" d="M46.9,18.4c0,1.6,1.3,4.1,3,4.1c1.6,0,3-2.4,3-4.1c0-1.7-1.3-3-3-3C48.3,15.5,46.9,16.8,46.9,18.4z"/>
						<path fill="#EDEADA" d="M46.9,18.4c0,1.6,1.3,3,3,3c1.6,0,3-1.3,3-3c0-1.7-1.3-3-3-3C48.3,15.5,46.9,16.8,46.9,18.4z"/>
						<path fill="#DBD6C1" d="M49.9,15.5c0.9,0,1.8,0.4,2.3,1.1l-4.2,4.2c-0.7-0.5-1.1-1.4-1.1-2.3C46.9,16.8,48.3,15.5,49.9,15.5z"
							/>
						<path fill="#F4C647" d="M46.7,18.4c0-1.8,1.4-3.2,3.2-3.2c1.8,0,3.2,1.4,3.2,3.2c0,1.8-1.4,3.2-3.2,3.2
							C48.1,21.7,46.7,20.2,46.7,18.4z M47.2,18.4c0,1.5,1.2,2.7,2.7,2.7c1.5,0,2.7-1.2,2.7-2.7c0-1.5-1.2-2.7-2.7-2.7
							C48.4,15.7,47.2,16.9,47.2,18.4z"/>
					</g>
					<path fill="#AF8366" d="M49.8,18.3c0,0.1,0.1,0.1,0.1,0.1l0,0c0.1,0,0.1-0.1,0.1-0.1v-2.2c0-0.1-0.1-0.1-0.1-0.1l0,0
						c-0.1,0-0.1,0.1-0.1,0.1V18.3z"/>
					<path fill="#4F3E32" d="M48.4,18.4c0,0.1,0.1,0.2,0.2,0.2H50c0.1,0,0.2-0.1,0.2-0.2l0,0c0-0.1-0.1-0.2-0.2-0.2h-1.4
						C48.5,18.2,48.4,18.3,48.4,18.4L48.4,18.4z"/>
				</g>
				<g>
					<polygon fill="#604533" points="44.6,13.6 49.9,2 55.3,13.6 					"/>
					<polygon fill="#422E20" points="47,13.6 49.9,2 52.9,13.6 					"/>
					<path fill="#7F5B42" d="M44.2,13.7c0,0.1,0.1,0.1,0.1,0.1h11.2c0.1,0,0.1-0.1,0.1-0.1l0,0c0-0.1-0.1-0.1-0.1-0.1H44.3
						C44.2,13.6,44.2,13.6,44.2,13.7L44.2,13.7z"/>
				</g>
				<path fill="#66D3C3" d="M43.4,57.8c0,0.2,0.1,0.3,0.3,0.3h12.3c0.2,0,0.3-0.1,0.3-0.3l0,0c0-0.2-0.1-0.3-0.3-0.3H43.8
					C43.6,57.5,43.4,57.6,43.4,57.8L43.4,57.8z"/>
				<path fill="#66D3C3" d="M50.2,59.8c0,0.2,0.1,0.3,0.3,0.3h5.5c0.2,0,0.3-0.1,0.3-0.3l0,0c0-0.2-0.1-0.3-0.3-0.3h-5.5
					C50.4,59.5,50.2,59.6,50.2,59.8L50.2,59.8z"/>
				<path fill="#66D3C3" d="M43.6,59.8c0,0.2,0.1,0.3,0.3,0.3h1c0.2,0,0.3-0.1,0.3-0.3l0,0c0-0.2-0.1-0.3-0.3-0.3h-1
					C43.8,59.5,43.6,59.6,43.6,59.8L43.6,59.8z"/>
				<path fill="#66D3C3" d="M46.5,59.8c0,0.2,0.1,0.3,0.3,0.3h1c0.2,0,0.3-0.1,0.3-0.3l0,0c0-0.2-0.1-0.3-0.3-0.3h-1
					C46.6,59.5,46.5,59.6,46.5,59.8L46.5,59.8z"/>
				<path fill="#C18708" d="M61.3,45.7c0,0.2,0.1,0.3,0.3,0.3l0,0c0.2,0,0.3-0.1,0.3-0.3V33.4c0-0.2-0.1-0.3-0.3-0.3l0,0
					c-0.2,0-0.3,0.1-0.3,0.3V45.7z"/>
				<path fill="#C18708" d="M59.2,45.7c0,0.2,0.1,0.3,0.3,0.3l0,0c0.2,0,0.3-0.1,0.3-0.3V31.2c0-0.2-0.1-0.3-0.3-0.3l0,0
					c-0.2,0-0.3,0.1-0.3,0.3V45.7z"/>
				<path fill="#C18708" d="M57.2,45.7c0,0.2,0.1,0.3,0.3,0.3l0,0c0.2,0,0.3-0.1,0.3-0.3v-18c0-0.2-0.1-0.3-0.3-0.3l0,0
					c-0.2,0-0.3,0.1-0.3,0.3V45.7z"/>
			</g>
		</g>
		<path fill="#422E20" d="M33.9,18.7c0,1-0.8,1.9-1.9,1.9l0,0c-1,0-1.9-0.8-1.9-1.9l0,0c0-1,0.8-1.9,1.9-1.9l0,0
			C33,16.8,33.9,17.7,33.9,18.7L33.9,18.7z"/>
		<path fill="#604533" d="M30.1,18.7L30.1,18.7c0-1,0.8-1.9,1.9-1.9l0,0c1,0,1.9,0.8,1.9,1.9l0,0"/>
	</g>
</g>
</svg>
