<?xml version="1.0" encoding="utf-8"?>
<!-- Generator: Adobe Illustrator 16.0.0, SVG Export Plug-In . SVG Version: 6.00 Build 0)  -->
<!DOCTYPE svg PUBLIC "-//W3C//DTD SVG 1.1//EN" "http://www.w3.org/Graphics/SVG/1.1/DTD/svg11.dtd">
<svg version="1.1" id="Layer_1" xmlns="http://www.w3.org/2000/svg" xmlns:xlink="http://www.w3.org/1999/xlink" x="0px" y="0px"
	 width="64px" height="64px" viewBox="0 0 64 64" enable-background="new 0 0 64 64" xml:space="preserve">
<g>
	<circle fill="#D81665" cx="32" cy="27.6" r="26.9"/>
	<g>
		<g>
			<path fill="#00233F" d="M34.9,9.7c0,0.8-1.4,1.3-2,1.3H31c-0.5,0-2-0.5-2-1.3l1-7.5C30.1,1.3,30.5,1,31,1H33
				c0.5,0,0.9,0.3,0.9,1.1L34.9,9.7z"/>
			<path fill="#00233F" d="M33,61.2c0,1-0.5,1.8-1,1.8l0,0c-0.5,0-1-0.8-1-1.8v-25c0-1,0.5-1.8,1-1.8l0,0c0.5,0,1,0.8,1,1.8V61.2z"
				/>
			<path fill="#00233F" d="M22.5,63.6L22.5,63.6c0-0.9,0.7-1.6,1.6-1.6h16.4c0.9,0,1.6,0.7,1.6,1.6l0,0"/>
			<g>
				<path fill="#07426B" d="M38.3,26.3c-4.7-6.6-2.2-8.2-1.9-10s3-1.4,2.5-4.3c-0.4-2,0.6-2.3,1.2-2.4l0-1C40,6.1,41,4,38.4,4H26.2
					c-2.6,0-1.6,2.1-1.6,4.7l0,1.2c0.5,0.2,0.9,0.8,0.6,2.2c-0.5,2.8,2.2,2.5,2.5,4.3c0.3,1.8,2.7,3.4-1.9,10c-0.7,1-1.4,2.4-1.9,4
					l-1.2,4.1c0,2.6,2.1,4.6,4.7,4.6h10.1c2.6,0,4.7-2,4.7-4.6l-1.1-2.1C40.2,29.8,39.3,27.7,38.3,26.3z"/>
				<path fill="#00233F" d="M24.6,8.7l0,1.2c0.5,0.2,0.9,0.8,0.6,2.2c-0.5,2.8,2.2,2.5,2.5,4.3c0.3,1.8,2.7,3.4-1.9,10
					c-0.7,1-1.4,2.4-1.9,4l-1.2,4.1c0,2.6,2.1,4.6,4.7,4.6h10.1c2.6,0,4.7-2,4.7-4.6l-1.1-2.1c-0.7-2.4-1.6-4.5-2.6-5.9
					c-4.7-6.6-2.2-8.1-1.9-10s3-1.4,2.5-4.3c-0.4-2,0.6-2.3,1.2-2.4l0-1C40,6.1,41,4,38.4,4"/>
				<path fill="#FFFEF8" d="M42.3,34c-0.9-3.2-1.9-5.9-3.1-7.7c-4.7-6.6-2.2-8.1-1.9-9.9s3-1.4,2.5-4.3c-0.5-2.8,1.7-2.3,1.7-2.3
					s-0.1-0.1-0.2-0.1c-0.8-0.7-4.9-4.4-9.2-1c-4.2-3.4-8.4,0.3-9.2,1c-0.1,0.1-0.2,0.1-0.2,0.1s2.2-0.5,1.7,2.3
					c-0.5,2.8,2.2,2.5,2.5,4.3c0.3,1.8,2.7,3.4-1.9,10c-1.2,1.8-2.3,4.5-3.1,7.6c-2.3,8.7-3.3,20-3.3,20h13.4h0.4h13.4
					C45.6,54,44.6,42.7,42.3,34z"/>
				<path fill="#FFFEEE" d="M32,9.1c-4.3-3.7-8.6-0.2-9.4,0.5c0.2,0,0.3-0.1,0.5-0.1c3.5,0,6.3,5.6,6.3,12.5s-2.8,12.5-6.3,12.5
					c-0.6,0-1.1-0.3-1.6-0.6c-2.4,8.7-3.3,20-3.3,20H32L32,9.1C32,9.1,32,9.1,32,9.1z"/>
				<path fill="#F2F0DA" d="M40.9,34.5c-3.5,0-6.3-5.6-6.3-12.5s2.8-12.5,6.3-12.5c0.2,0,0.4,0,0.5,0.1c-0.8-0.7-5.1-4.2-9.4-0.5
					c0,0,0,0,0,0V54h13.8c0,0-1-11.3-3.3-20C42,34.2,41.4,34.5,40.9,34.5z"/>
				<polyline fill="#FFFEEE" points="32,9 32,54 32,54 32,9 				"/>
				<path fill="#F9F8F2" d="M30.5,22.1c0-6.9-3.9-12.5-7.4-12.5c-0.2,0-0.4,0-0.5,0.1c-0.1,0.1-0.2,0.1-0.2,0.1s2.2-0.5,1.7,2.3
					c-0.5,2.8,2.2,2.5,2.5,4.3s2.7,3.4-1.9,10c-1.2,1.8-2.3,4.6-3.1,7.8c0.5,0.3,1.1,0.4,1.6,0.4C26.6,34.5,30.5,29,30.5,22.1z"/>
				<path fill="#EAE7C7" d="M33.5,22.1c0,6.9,3.9,12.5,7.4,12.5c0.6,0,1.1-0.2,1.6-0.4c-0.9-3.2-1.9-6-3.1-7.8
					c-4.7-6.6-2.2-8.2-1.9-10c0.3-1.8,3-1.4,2.5-4.3c-0.5-2.8,1.7-2.3,1.7-2.3s-0.1-0.1-0.2-0.1c-0.2,0-0.4-0.1-0.5-0.1
					C37.4,9.6,33.5,15.2,33.5,22.1z"/>
			</g>
			<path fill="#F2F0DA" d="M41.1,34.5c-2.7,1.3-5.8,2-9.1,2c-3.3,0-6.4-0.7-9.1-2c-0.5,0-1-0.3-1.4-0.6c-2.4,8.7-3.3,20-3.3,20H32
				H32h13.8c0,0-1-11.3-3.3-20C42,34.2,41.6,34.5,41.1,34.5z"/>
			<path fill="#F2F0DA" d="M41.1,34.5c-2.7,1.3-5.8,2-9.1,2c-3.3,0-6.4-0.7-9.1-2c-0.5,0-1-0.3-1.4-0.6c-2.4,8.7-3.3,20-3.3,20H32
				H32h13.8c0,0-1-11.3-3.3-20C42,34.2,41.6,34.5,41.1,34.5z"/>
			<path fill="#EAE7C7" d="M32,45L32,45H19.3c-0.8,5-1.1,9-1.1,9H32H32h13.8c0,0-0.3-4-1.1-9H32z"/>
			<path fill="#FFFEEE" d="M46.8,54.5c0,0.5-0.4,0.5-0.9,0.5H18.1c-0.5,0-0.9,0-0.9-0.5l0,0c0-0.5,0.4-0.5,0.9-0.5h27.8
				C46.4,54,46.8,54,46.8,54.5L46.8,54.5z"/>
			<g>
				<circle fill="#FFFEEE" cx="22.2" cy="38.4" r="0.6"/>
				<circle fill="#FFFEEE" cx="24.6" cy="38.4" r="0.6"/>
				<circle fill="#FFFEEE" cx="27.1" cy="38.4" r="0.6"/>
				<circle fill="#FFFEEE" cx="29.5" cy="38.4" r="0.6"/>
				<circle fill="#FFFEEE" cx="32" cy="38.4" r="0.6"/>
				<circle fill="#FFFEEE" cx="34.5" cy="38.4" r="0.6"/>
				<circle fill="#FFFEEE" cx="36.9" cy="38.4" r="0.6"/>
				<circle fill="#FFFEEE" cx="39.4" cy="38.4" r="0.6"/>
				<circle fill="#FFFEEE" cx="41.8" cy="38.4" r="0.6"/>
			</g>
			<g>
				<circle fill="#FFFEEE" cx="22.2" cy="40.5" r="0.6"/>
				<circle fill="#FFFEEE" cx="24.6" cy="40.5" r="0.6"/>
				<circle fill="#FFFEEE" cx="27.1" cy="40.5" r="0.6"/>
				<circle fill="#FFFEEE" cx="29.5" cy="40.5" r="0.6"/>
				<circle fill="#FFFEEE" cx="32" cy="40.5" r="0.6"/>
				<circle fill="#FFFEEE" cx="34.5" cy="40.5" r="0.6"/>
				<circle fill="#FFFEEE" cx="36.9" cy="40.5" r="0.6"/>
				<circle fill="#FFFEEE" cx="39.4" cy="40.5" r="0.6"/>
				<circle fill="#FFFEEE" cx="41.8" cy="40.5" r="0.6"/>
			</g>
			<g>
				<circle fill="#FFFEEE" cx="22.2" cy="42.6" r="0.6"/>
				<circle fill="#FFFEEE" cx="24.6" cy="42.6" r="0.6"/>
				<circle fill="#FFFEEE" cx="27.1" cy="42.6" r="0.6"/>
				<circle fill="#FFFEEE" cx="29.5" cy="42.6" r="0.6"/>
				<circle fill="#FFFEEE" cx="32" cy="42.6" r="0.6"/>
				<circle fill="#FFFEEE" cx="34.5" cy="42.6" r="0.6"/>
				<circle fill="#FFFEEE" cx="36.9" cy="42.6" r="0.6"/>
				<circle fill="#FFFEEE" cx="39.4" cy="42.6" r="0.6"/>
				<circle fill="#FFFEEE" cx="41.8" cy="42.6" r="0.6"/>
			</g>
		</g>
		<rect x="29" y="3" fill="#FFFEEE" width="6" height="1"/>
	</g>
</g>
</svg>
