<?xml version="1.0" encoding="utf-8"?>
<!-- Generator: Adobe Illustrator 16.0.0, SVG Export Plug-In . SVG Version: 6.00 Build 0)  -->
<!DOCTYPE svg PUBLIC "-//W3C//DTD SVG 1.1//EN" "http://www.w3.org/Graphics/SVG/1.1/DTD/svg11.dtd">
<svg version="1.1" id="Layer_1" xmlns="http://www.w3.org/2000/svg" xmlns:xlink="http://www.w3.org/1999/xlink" x="0px" y="0px"
	 width="65px" height="65px" viewBox="0 0 65 65" enable-background="new 0 0 65 65" xml:space="preserve">
<g>
	<path fill="#577D8C" d="M32.499,21.001c7.422,0,13.46,6.038,13.46,13.458c0,7.421-6.038,13.459-13.46,13.459
		c-7.42,0-13.458-6.038-13.458-13.459C19.041,27.04,25.079,21.001,32.499,21.001 M32.499,15.774
		c-10.319,0-18.686,8.367-18.686,18.686c0,10.32,8.366,18.687,18.686,18.687c10.322,0,18.686-8.366,18.686-18.687
		C51.184,24.141,42.821,15.774,32.499,15.774L32.499,15.774z"/>
	<path fill="#0B3A60" d="M59.466,31.133c-3.21-3.209-7.371-4.871-11.575-5.022c1.18-2.334,1.858-4.964,1.858-7.758
		c0-5.721-2.798-10.776-7.085-13.914c2.753,2.661,4.471,6.386,4.471,10.517c0,8.084-6.553,14.635-14.635,14.635
		c-8.083,0-14.635-6.551-14.635-14.635c0-4.131,1.717-7.855,4.471-10.517c-4.287,3.138-7.086,8.193-7.086,13.914
		c0,2.792,0.68,5.421,1.857,7.754c-4.205,0.151-8.363,1.812-11.572,5.022c-4.046,4.044-5.643,9.597-4.83,14.848
		C0.641,42.148,2.059,38.301,4.98,35.38c5.717-5.716,14.982-5.716,20.698,0c5.716,5.715,5.716,14.981,0,20.697
		c-2.922,2.921-6.77,4.341-10.599,4.274c5.251,0.812,10.804-0.784,14.849-4.829c1.017-1.017,1.86-2.138,2.57-3.316
		c0.711,1.18,1.555,2.302,2.573,3.319c4.045,4.046,9.599,5.643,14.849,4.83c-3.829,0.064-7.677-1.354-10.598-4.274
		c-5.717-5.717-5.717-14.982,0-20.698c5.715-5.714,14.98-5.714,20.697,0c2.921,2.922,4.34,6.77,4.274,10.599
		C65.107,40.73,63.51,35.178,59.466,31.133z"/>
	<circle fill="#FFCE00" cx="32.5" cy="34.46" r="2.548"/>
	<path fill="#FFAA00" d="M34.301,32.659c0.994,0.994,0.994,2.609,0,3.603s-2.609,0.994-3.604,0"/>
</g>
</svg>
