<?xml version="1.0" encoding="utf-8"?>
<!-- Generator: Adobe Illustrator 16.0.0, SVG Export Plug-In . SVG Version: 6.00 Build 0)  -->
<!DOCTYPE svg PUBLIC "-//W3C//DTD SVG 1.1//EN" "http://www.w3.org/Graphics/SVG/1.1/DTD/svg11.dtd">
<svg version="1.1" xmlns="http://www.w3.org/2000/svg" xmlns:xlink="http://www.w3.org/1999/xlink" x="0px" y="0px" width="65px"
	 height="65px" viewBox="0 0 65 65" enable-background="new 0 0 65 65" xml:space="preserve">
<g id="Layer_1">
	<g>
		<g>
			<g>
				<circle fill="#00C9FF" cx="49.771" cy="17.312" r="1.062"/>
			</g>
			<g>
				<circle fill="#00C9FF" cx="53.833" cy="17.312" r="1.062"/>
			</g>
			<g>
				<circle fill="#00C9FF" cx="57.896" cy="17.312" r="1.062"/>
			</g>
		</g>
		<g>
			<g>
				<g>
					<g>
						<polyline fill="#0064A8" points="3.362,20.439 9.992,13.811 16.622,20.439 						"/>
					</g>
					<g>
						<path fill="#00C9FF" d="M16.622,22.939c-0.641,0-1.279-0.244-1.768-0.732l-4.862-4.861L5.13,22.207
							c-0.977,0.977-2.559,0.977-3.535,0s-0.977-2.56,0-3.535l6.631-6.629c0.976-0.977,2.558-0.977,3.533,0l6.631,6.629
							c0.977,0.976,0.977,2.559,0,3.535C17.901,22.695,17.262,22.939,16.622,22.939z"/>
					</g>
				</g>
				<g>
					<g>
						<polyline fill="#0064A8" points="16.496,20.439 23.126,13.811 29.755,20.439 						"/>
					</g>
					<g>
						<path fill="#00C9FF" d="M29.755,22.939c-0.641,0-1.279-0.244-1.768-0.732l-4.861-4.861l-4.863,4.861
							c-0.977,0.977-2.558,0.977-3.535,0c-0.977-0.977-0.977-2.56,0-3.535l6.631-6.629c0.977-0.977,2.559-0.977,3.535,0l6.629,6.629
							c0.977,0.977,0.977,2.559,0,3.535C31.034,22.695,30.395,22.939,29.755,22.939z"/>
					</g>
				</g>
				<g>
					<g>
						<polyline fill="#0064A8" points="29.63,20.439 36.259,13.811 42.888,20.439 						"/>
					</g>
					<g>
						<path fill="#00C9FF" d="M42.888,22.939c-0.639,0-1.279-0.244-1.767-0.732l-4.862-4.861l-4.861,4.861
							c-0.977,0.977-2.559,0.977-3.535,0s-0.977-2.559,0-3.535l6.629-6.629c0.977-0.977,2.559-0.977,3.535,0l6.63,6.629
							c0.977,0.976,0.977,2.559,0,3.535C44.167,22.695,43.528,22.939,42.888,22.939z"/>
					</g>
				</g>
			</g>
			<g>
				<g>
					<g>
						<polyline fill="#0064A8" points="12.737,35.814 19.367,29.186 25.997,35.814 						"/>
					</g>
					<g>
						<path fill="#00C9FF" d="M25.997,38.314c-0.641,0-1.279-0.244-1.768-0.732l-4.862-4.861l-4.862,4.861
							c-0.977,0.977-2.559,0.977-3.535,0s-0.977-2.56,0-3.535l6.631-6.629c0.976-0.977,2.557-0.977,3.534,0l6.63,6.629
							c0.977,0.976,0.977,2.559,0,3.535C27.276,38.07,26.636,38.314,25.997,38.314z"/>
					</g>
				</g>
				<g>
					<g>
						<polyline fill="#0064A8" points="25.87,35.814 32.501,29.186 39.13,35.814 						"/>
					</g>
					<g>
						<path fill="#00C9FF" d="M39.13,38.314c-0.641,0-1.279-0.244-1.768-0.732l-4.861-4.861l-4.862,4.861
							c-0.978,0.977-2.559,0.977-3.535,0c-0.978-0.977-0.978-2.56,0-3.535l6.63-6.629c0.977-0.977,2.559-0.977,3.535,0l6.629,6.629
							c0.977,0.977,0.977,2.559,0,3.535C40.409,38.07,39.769,38.314,39.13,38.314z"/>
					</g>
				</g>
				<g>
					<g>
						<polyline fill="#0064A8" points="39.005,35.814 45.634,29.186 52.263,35.814 						"/>
					</g>
					<g>
						<path fill="#00C9FF" d="M52.263,38.314c-0.639,0-1.278-0.244-1.767-0.732l-4.862-4.861l-4.861,4.861
							c-0.977,0.977-2.559,0.977-3.535,0s-0.977-2.559,0-3.535l6.629-6.629c0.977-0.977,2.559-0.977,3.535,0l6.63,6.629
							c0.976,0.976,0.976,2.559,0,3.535C53.542,38.07,52.903,38.314,52.263,38.314z"/>
					</g>
				</g>
			</g>
			<g>
				<g>
					<g>
						<polyline fill="#0064A8" points="22.112,51.189 28.741,44.561 35.372,51.189 						"/>
					</g>
					<g>
						<path fill="#00C9FF" d="M35.372,53.689c-0.64,0-1.279-0.244-1.768-0.732l-4.863-4.861l-4.861,4.861
							c-0.977,0.977-2.559,0.977-3.535,0s-0.977-2.56,0-3.535l6.631-6.629c0.977-0.977,2.558-0.977,3.534,0l6.63,6.629
							c0.977,0.976,0.977,2.559,0,3.535C36.651,53.445,36.011,53.689,35.372,53.689z"/>
					</g>
				</g>
				<g>
					<g>
						<polyline fill="#0064A8" points="35.245,51.189 41.876,44.561 48.505,51.189 						"/>
					</g>
					<g>
						<path fill="#00C9FF" d="M48.505,53.689c-0.64,0-1.279-0.244-1.768-0.732l-4.861-4.861l-4.862,4.861
							c-0.977,0.977-2.56,0.977-3.535,0c-0.977-0.977-0.977-2.56,0-3.535l6.63-6.629c0.977-0.977,2.559-0.977,3.535,0l6.629,6.629
							c0.977,0.977,0.977,2.559,0,3.535C49.784,53.445,49.144,53.689,48.505,53.689z"/>
					</g>
				</g>
				<g>
					<g>
						<polyline fill="#0064A8" points="48.38,51.189 55.009,44.561 61.639,51.189 						"/>
					</g>
					<g>
						<path fill="#00C9FF" d="M61.639,53.689c-0.64,0-1.279-0.244-1.769-0.732l-4.861-4.861l-4.861,4.861
							c-0.977,0.977-2.559,0.977-3.535,0s-0.977-2.559,0-3.535l6.629-6.629c0.977-0.977,2.559-0.977,3.535,0l6.629,6.629
							c0.978,0.976,0.978,2.559,0,3.535C62.918,53.445,62.278,53.689,61.639,53.689z"/>
					</g>
				</g>
			</g>
		</g>
	</g>
</g>
<g id="nyt_x5F_exporter_x5F_info" display="none">
</g>
</svg>
