<?xml version="1.0" encoding="utf-8"?>
<!-- Generator: Adobe Illustrator 16.0.0, SVG Export Plug-In . SVG Version: 6.00 Build 0)  -->
<!DOCTYPE svg PUBLIC "-//W3C//DTD SVG 1.1//EN" "http://www.w3.org/Graphics/SVG/1.1/DTD/svg11.dtd">
<svg version="1.1" id="Layer_1" xmlns="http://www.w3.org/2000/svg" xmlns:xlink="http://www.w3.org/1999/xlink" x="0px" y="0px"
	 width="64px" height="64px" viewBox="0 0 64 64" enable-background="new 0 0 64 64" xml:space="preserve">
<g>
	<g>
		<g>
			<g>
				<g>
					<path fill="#F7910B" d="M62.3,37.5C62.3,50.5,50.4,61,32,61C13.6,61,1.7,50.5,1.7,37.5S13.6,5,32,5C50.4,5,62.3,24.5,62.3,37.5
						z"/>
				</g>
				<g>
					<path fill="#F7910B" d="M62.3,37.5C62.3,50.5,50.4,57,32,57C13.6,57,1.7,50.5,1.7,37.5S13.6,3,32,3C50.4,3,62.3,24.5,62.3,37.5
						z"/>
				</g>
				<g>
					<path fill="#F9A908" d="M32,3c18.4,0,30.3,21.5,30.3,34.5S50.4,57,32,57"/>
				</g>
				<g>
					<path fill="#F9A908" d="M62.3,37.5C62.3,50.5,50.4,57,32,57C13.6,57,1.7,50.5,1.7,37.5S13.6,5,32,5C50.4,5,62.3,24.5,62.3,37.5
						z"/>
				</g>
				<g>
					<path fill="#F9C55D" d="M1.7,37.5C1.7,24.5,13.6,5,32,5"/>
				</g>
				<g>
					<path fill="#F7910B" d="M32,5c18.4,0,30.3,19.5,30.3,32.5S50.4,61,32,61"/>
				</g>
				<g>
					<path fill="#EA7103" d="M32,5c18.4,0,30.3,19.5,30.3,32.5"/>
				</g>
				<g>
					<circle fill="#F7910B" cx="10.3" cy="34.5" r="0.6"/>
				</g>
				<g>
					<circle fill="#F7910B" cx="5.8" cy="36.5" r="1.1"/>
				</g>
				<g>
					<circle fill="#F7910B" cx="8.8" cy="32.5" r="0.2"/>
				</g>
				<g>
					<circle fill="#F7910B" cx="13.4" cy="34.3" r="0.2"/>
				</g>
				<g>
					<circle fill="#F9A908" cx="52.6" cy="34.8" r="0.8"/>
				</g>
				<g>
					<circle fill="#F9A908" cx="55.1" cy="36.2" r="0.2"/>
				</g>
				<g>
					<circle fill="#F9A908" cx="49.8" cy="27.4" r="0.3"/>
				</g>
				<g>
					<circle fill="#F9A908" cx="49.3" cy="39" r="1.3"/>
				</g>
				<g>
					<circle fill="#F9A908" cx="56.5" cy="39.1" r="0.6"/>
				</g>
				<g>
					<circle fill="#F7910B" cx="9.3" cy="38.5" r="0.5"/>
				</g>
				<g>
					<circle fill="#F7910B" cx="10.1" cy="30.1" r="0.4"/>
				</g>
				<g>
					<circle fill="#F9A908" cx="4.8" cy="16.3" r="1.1"/>
				</g>
				<g>
					<circle fill="#F9A908" cx="8" cy="12.8" r="0.6"/>
				</g>
				<g>
					<circle fill="#F9A908" cx="59.2" cy="18.7" r="0.2"/>
				</g>
				<g>
					<circle fill="#F9A908" cx="58.4" cy="15.8" r="0.8"/>
				</g>
				<g>
					<circle fill="#F9A908" cx="61" cy="16.3" r="0.5"/>
				</g>
				<g>
					<circle fill="#F9A908" cx="6" cy="19.3" r="0.6"/>
				</g>
				<g>
					<path fill="#F7910B" d="M39.4,29.2c0,2.6-3.3,7.2-7.4,7.2c-4.1,0-7.4-4.6-7.4-7.2"/>
				</g>
				<g>
					<g>
						<circle fill="#D87703" cx="20.6" cy="21.3" r="3.5"/>
					</g>
					<g>
						<path fill="#D87703" d="M46.9,21.3c0,1.9-1.6,3.5-3.5,3.5c-1.9,0-3.5-1.6-3.5-3.5c0-1.9,1.6-3.5,3.5-3.5
							C45.4,17.8,46.9,19.4,46.9,21.3z"/>
					</g>
					<g>
						<circle fill="#1E4784" cx="20.6" cy="20.3" r="3.5"/>
					</g>
					<g>
						<path fill="#00233F" d="M20.6,16.8c1.9,0,3.5,1.6,3.5,3.5s-1.6,3.5-3.5,3.5"/>
					</g>
					<g>
						<path fill="#1E4784" d="M46.9,20.3c0,1.9-1.6,3.5-3.5,3.5c-1.9,0-3.5-1.6-3.5-3.5s1.6-3.5,3.5-3.5
							C45.4,16.8,46.9,18.4,46.9,20.3z"/>
					</g>
					<g>
						<path fill="#00233F" d="M43.4,16.8c1.9,0,3.5,1.6,3.5,3.5s-1.6,3.5-3.5,3.5"/>
					</g>
					<g>
						<path fill="#F9A908" d="M16.5,19.6c0-2.3,1.8-5.1,4.1-5.1c2.3,0,4.1,2.8,4.1,5.1"/>
					</g>
					<g>
						<path fill="#F7910B" d="M39.3,19.6c0-2.3,1.8-5.1,4.1-5.1c2.3,0,4.1,2.8,4.1,5.1"/>
					</g>
				</g>
				<g>
					<g>
						<path fill="#F9C55D" d="M27.8,26.1c0,1.2-3.5,0.7-7.8,0.7c-4.3,0-7.8,0.6-7.8-0.7s3.5-2.2,7.8-2.2
							C24.3,23.9,27.8,24.9,27.8,26.1z"/>
					</g>
					<g>
						<path fill="#F9A908" d="M51.8,26.1c0,1.2-3.5,0.7-7.8,0.7s-7.8,0.6-7.8-0.7s3.5-2.2,7.8-2.2S51.8,24.9,51.8,26.1z"/>
					</g>
				</g>
				<g>
					<g>
						<g>
							<g>
								<g>
									<path fill="#19BCA4" d="M26.6,19.4c-0.3,1.1-2.3-0.1-5-0.8c-2.7-0.8-5-0.8-4.7-1.9c0.3-1.1,2.7-1.3,5.4-0.6
										C24.9,16.8,26.9,18.3,26.6,19.4z"/>
								</g>
							</g>
						</g>
					</g>
					<g>
						<g>
							<g>
								<g>
									<path fill="#19BCA4" d="M37.8,16.3c0.4,1,2.3-0.4,4.9-1.5c2.6-1.1,4.9-1.5,4.4-2.5c-0.4-1-2.9-1-5.5,0.2
										C39.1,13.6,37.4,15.3,37.8,16.3z"/>
								</g>
							</g>
						</g>
					</g>
				</g>
			</g>
		</g>
		<g>
			<path fill="#02243E" d="M34.2,29.8h-4.3c-0.6,0-1.1-0.5-1.1-1.1s0.5-1.1,1.1-1.1h4.3c0.6,0,1.1,0.5,1.1,1.1S34.8,29.8,34.2,29.8z
				"/>
		</g>
	</g>
	<g>
		<g>
			<path fill="#FFFCEE" d="M3.7,26.8v30.8c0,2.6,2.5,3.5,5.6,3.5h13.9c3.1,0,5.6-0.9,5.6-3.5V26.8H3.7z"/>
		</g>
		<g>
			<path fill="#E8E3CD" d="M23.2,61c3.1,0,5.6-0.9,5.6-3.5V26.8H3.7"/>
		</g>
		<g>
			<path fill="#F4CF31" d="M5.9,32.9v23.5c0,2.1,2.1,2.9,4.6,2.9H22c2.6,0,4.6-0.7,4.6-2.9V32.9H5.9z"/>
		</g>
		<g>
			<path fill="#F2B233" d="M22,59.3c2.6,0,4.6-0.7,4.6-2.9V32.9H5.9"/>
		</g>
		<g>
			<g>
				<path fill="#F7DF77" d="M11.1,55.3c0,0.6-0.4,1.1-0.9,1.1l0,0c-0.5,0-0.9-0.5-0.9-1.1V30.8c0-0.6,0.4-1.1,0.9-1.1l0,0
					c0.5,0,0.9,0.5,0.9,1.1V55.3z"/>
			</g>
			<g>
				<path fill="#F7DF77" d="M17.2,55.3c0,0.6-0.4,1.1-0.9,1.1l0,0c-0.5,0-0.9-0.5-0.9-1.1V30.8c0-0.6,0.4-1.1,0.9-1.1l0,0
					c0.5,0,0.9,0.5,0.9,1.1V55.3z"/>
			</g>
			<g>
				<path fill="#F7DF77" d="M23.2,55.3c0,0.6-0.4,1.1-0.9,1.1l0,0c-0.5,0-0.9-0.5-0.9-1.1V30.8c0-0.6,0.4-1.1,0.9-1.1l0,0
					c0.5,0,0.9,0.5,0.9,1.1V55.3z"/>
			</g>
		</g>
		<g>
			<ellipse fill="#FCF0BE" cx="13.1" cy="27.8" rx="4" ry="3.3"/>
		</g>
		<g>
			<path fill="#F9F9D9" d="M29.7,25.8c0.4-0.4,0.6-0.9,0.6-1.4c0-1.3-1.2-2.3-2.8-2.3c-0.7,0-1.2,0.2-1.7,0.5
				c-0.5-0.3-1.1-0.4-1.8-0.4c-0.8,0-1.6,0.3-2.2,0.7c-0.5-0.5-1.3-0.8-2.1-0.8c-0.6,0-1.2,0.2-1.6,0.5c-0.3-0.1-0.7-0.2-1-0.2
				c-0.3,0-0.5,0-0.8,0.1c-0.2-0.1-0.5-0.1-0.8-0.1c-0.4,0-0.7,0.1-1,0.2c-0.5-0.3-1-0.5-1.6-0.5c-0.9,0-1.6,0.3-2.1,0.8
				c-0.6-0.4-1.3-0.7-2.2-0.7c-0.6,0-1.2,0.2-1.7,0.4c-0.5-0.3-1.1-0.5-1.7-0.5c-1.5,0-2.8,1-2.8,2.3c0,0.5,0.2,1,0.6,1.4
				c-0.7,0.6-1.2,1.4-1.2,2.4c0,1.8,1.8,3.3,4,3.3c0.5,0,1.1-0.1,1.5-0.3c0.7,0.8,1.8,1.3,3.1,1.3c1.4,0,2.5-0.6,3.3-1.4
				c0.4,0.6,1.3,1,2.2,1c0.2,0,0.4,0,0.6-0.1c0.2,0,0.4,0.1,0.6,0.1c0.9,0,1.7-0.4,2.2-1c0.7,0.9,1.9,1.4,3.3,1.4
				c1.3,0,2.4-0.5,3.1-1.3c0.5,0.2,1,0.3,1.5,0.3c2.2,0,4-1.5,4-3.3C30.9,27.2,30.4,26.4,29.7,25.8z"/>
		</g>
		<g>
			<path fill="#FFF399" d="M14.4,36.2c0,0.4-0.3,0.6-0.8,0.6s-0.8-0.3-0.8-0.6c0-0.4,0.3-0.6,0.8-0.6S14.4,35.9,14.4,36.2z"/>
		</g>
		<g>
			<ellipse fill="#F2B233" cx="13" cy="51.2" rx="0.8" ry="0.6"/>
		</g>
		<g>
			<ellipse fill="#FFF399" cx="12.7" cy="38.7" rx="0.5" ry="0.4"/>
		</g>
		<g>
			<ellipse fill="#FFF399" cx="12.4" cy="46.7" rx="0.5" ry="0.4"/>
		</g>
		<g>
			<path fill="#FFF399" d="M13.9,40.1c0,0.2-0.2,0.3-0.4,0.3c-0.2,0-0.4-0.1-0.4-0.3c0-0.2,0.2-0.3,0.4-0.3
				C13.7,39.8,13.9,39.9,13.9,40.1z"/>
		</g>
		<g>
			<ellipse fill="#F2B233" cx="12" cy="45.2" rx="0.4" ry="0.3"/>
		</g>
		<g>
			<ellipse fill="#FFF399" cx="14.5" cy="49.7" rx="0.3" ry="0.2"/>
		</g>
		<g>
			<ellipse fill="#FFF399" cx="12.8" cy="48.7" rx="0.3" ry="0.2"/>
		</g>
		<g>
			<ellipse fill="#F2B233" cx="13.2" cy="47.5" rx="0.3" ry="0.2"/>
		</g>
		<g>
			<path fill="#FFF0B3" d="M7.6,56.4c0,0.2-0.2,0.4-0.5,0.4l0,0c-0.3,0-0.5-0.2-0.5-0.4V42.5c0-0.2,0.2-0.4,0.5-0.4l0,0
				c0.3,0,0.5,0.2,0.5,0.4V56.4z"/>
		</g>
		<g>
			<path fill="#FFF0B3" d="M7.6,40.7c0,0.1-0.2,0.1-0.5,0.1l0,0c-0.3,0-0.5-0.1-0.5-0.1v-4.5c0-0.1,0.2-0.1,0.5-0.1l0,0
				c0.3,0,0.5,0.1,0.5,0.1V40.7z"/>
		</g>
		<g>
			<path fill="#FCF0BE" d="M29.7,25.8c0.4-0.4,0.6-0.9,0.6-1.4c0-1.3-1.2-2.3-2.8-2.3c-0.7,0-1.2,0.2-1.7,0.5
				c-0.5-0.3-1.1-0.4-1.8-0.4c-0.8,0-1.6,0.3-2.2,0.7c-0.5-0.5-1.3-0.8-2.1-0.8c-0.6,0-1.2,0.2-1.6,0.5c-0.3-0.1-0.7-0.2-1-0.2
				c-0.2,0-0.5,0-0.7,0.1V32c0.2,0,0.3,0.1,0.5,0.1c0.9,0,1.7-0.4,2.2-1c0.7,0.9,1.9,1.4,3.3,1.4c1.3,0,2.4-0.5,3.1-1.3
				c0.5,0.2,1,0.3,1.5,0.3c2.2,0,4-1.5,4-3.3C30.9,27.2,30.4,26.4,29.7,25.8z"/>
		</g>
		<g>
			<path fill="#FFFCEE" d="M29.1,33.2c-0.1,0-0.2,0-0.2,0v1.9c0.1,0,0.2,0,0.2,0c1.5,0,2.7,1,2.7,2.3v12.4c0,1.2-1.2,2.3-2.7,2.3
				c-0.1,0-0.2,0-0.2,0v1.9c0.1,0,0.2,0,0.2,0c2.7,0,4.9-1.8,4.9-4.1V37.3C34,35.1,31.8,33.2,29.1,33.2z"/>
		</g>
		<g>
			<ellipse fill="#FFFFFF" cx="4.9" cy="23.9" rx="1.2" ry="1"/>
		</g>
		<g>
			<path fill="#FFFFFF" d="M10.5,24.5c0,0.6-0.5,1-1.2,1s-1.2-0.4-1.2-1c0-0.5,0.5-1,1.2-1S10.5,24,10.5,24.5z"/>
		</g>
		<g>
			<ellipse fill="#FFFFFF" cx="4.5" cy="28" rx="0.6" ry="0.5"/>
		</g>
	</g>
</g>
</svg>
