<?xml version="1.0" encoding="utf-8"?>
<!-- Generator: Adobe Illustrator 16.0.0, SVG Export Plug-In . SVG Version: 6.00 Build 0)  -->
<!DOCTYPE svg PUBLIC "-//W3C//DTD SVG 1.1//EN" "http://www.w3.org/Graphics/SVG/1.1/DTD/svg11.dtd">
<svg version="1.1" id="Layer_1" xmlns="http://www.w3.org/2000/svg" xmlns:xlink="http://www.w3.org/1999/xlink" x="0px" y="0px"
	 width="65px" height="65px" viewBox="0 0 65 65" enable-background="new 0 0 65 65" xml:space="preserve">
<g>
	<g>
		<g>
			<g>
				<path fill="#CE1111" d="M33.894,36.127c-1.273-1.432-0.465-4.229,1.806-6.25c2.269-2.018,14.473-10.793,15.75-9.365
					c1.271,1.434-8.875,12.533-11.145,14.551C38.039,37.08,35.167,37.557,33.894,36.127z"/>
				<path fill="#CE1111" d="M31.105,36.127c1.273-1.432,0.465-4.229-1.805-6.25c-2.27-2.018-14.476-10.793-15.75-9.365
					c-1.271,1.434,8.873,12.533,11.142,14.551S29.832,37.557,31.105,36.127z"/>
			</g>
			<g>
				<path fill="#960808" d="M29.472,46.446c0,2.476-2.008,15.827-4.486,15.827c-2.475,0-4.482-13.352-4.482-15.827
					s2.008-4.484,4.482-4.484C27.464,41.962,29.472,43.971,29.472,46.446z"/>
				<path fill="#960808" d="M44.498,46.446c0,2.476-2.007,15.827-4.486,15.827c-2.475,0-4.482-13.352-4.482-15.827
					s2.008-4.484,4.482-4.484C42.491,41.962,44.498,43.971,44.498,46.446z"/>
			</g>
			<path fill="#CE1111" d="M45.15,40.521c0,16.038-5.662,10.697-12.65,10.697c-6.986,0-12.65,5.341-12.65-10.697
				c0-9.17,5.666-16.604,12.65-16.604C39.486,23.918,45.15,31.352,45.15,40.521z"/>
			<path fill="#EAA10F" d="M33.562,42.771c0,0.587-0.476,1.062-1.062,1.062l0,0c-0.587,0-1.062-0.476-1.062-1.062v-15.5
				c0-0.587,0.476-1.062,1.062-1.062l0,0c0.587,0,1.062,0.476,1.062,1.062V42.771z"/>
			<g>
				<path fill="#FFCE00" d="M30.033,62.354c0,1.896-2.26,2.146-5.045,2.146s-5.046-0.249-5.046-2.146
					c0-1.897,2.261-4.508,5.046-4.508S30.033,60.457,30.033,62.354z"/>
				<path fill="#EAA10F" d="M30.033,62.354c0,1.896-2.26,2.146-5.045,2.146s-5.046-0.249-5.046-2.146"/>
			</g>
			<g>
				<path fill="#FFCE00" d="M45.057,62.354c0,1.896-2.259,2.146-5.044,2.146s-5.045-0.249-5.045-2.146
					c0-1.897,2.26-4.508,5.045-4.508S45.057,60.457,45.057,62.354z"/>
				<path fill="#EAA10F" d="M45.057,62.354c0,1.896-2.259,2.146-5.044,2.146s-5.045-0.249-5.045-2.146"/>
			</g>
			<g>
				<path fill="#EFC286" d="M48.871,16.275c0,7.999-7.331,12.02-16.369,12.02c-9.041,0-16.373-4.021-16.373-12.02
					C16.128,8.274,23.46,0.5,32.501,0.5C41.54,0.5,48.871,8.274,48.871,16.275z"/>
				<path fill="#E8B374" d="M48.871,16.275c0,7.999-7.331,12.02-16.369,12.02c-9.041,0-16.373-4.021-16.373-12.02"/>
			</g>
			<g>
				<g>
					<g>
						<path fill="#232728" d="M27.603,18.511c-0.079,0-0.158-0.028-0.219-0.091c-0.715-0.714-1.664-1.107-2.672-1.107H24.71
							c-1.008,0-1.955,0.394-2.666,1.106c-0.121,0.121-0.316,0.124-0.437,0.001c-0.12-0.117-0.124-0.312-0.003-0.434
							c0.83-0.831,1.932-1.29,3.105-1.29h0.002c1.176,0,2.278,0.456,3.112,1.288c0.117,0.119,0.117,0.318,0,0.436
							C27.763,18.482,27.685,18.511,27.603,18.511z"/>
					</g>
				</g>
				<g>
					<g>
						<path fill="#232728" d="M37.398,18.511c0.075,0,0.155-0.028,0.218-0.091c0.714-0.714,1.663-1.107,2.671-1.107h0.001
							c1.009,0,1.958,0.394,2.668,1.106c0.119,0.121,0.314,0.124,0.436,0.001c0.122-0.117,0.124-0.312,0.003-0.434
							c-0.826-0.831-1.932-1.29-3.106-1.29h-0.001c-1.174,0-2.278,0.456-3.112,1.288c-0.117,0.119-0.117,0.318,0,0.436
							C37.238,18.482,37.316,18.511,37.398,18.511z"/>
					</g>
				</g>
			</g>
		</g>
		<path fill="#A7B1B7" d="M35.083,45.298"/>
		<path fill="#870E0E" d="M36.108,21.05c0,2.514-1.617,4.555-3.608,4.555c-1.992,0-3.61-2.041-3.61-4.555
			c0-2.518,1.618-1.014,3.61-1.014C34.491,20.036,36.108,18.532,36.108,21.05z"/>
		<path fill="#AA1111" d="M32.499,21.925c-1.183,0-2.223,0.729-2.882,1.839c0.659,1.111,1.7,1.841,2.883,1.841
			s2.224-0.729,2.882-1.839C34.723,22.654,33.682,21.925,32.499,21.925z"/>
	</g>
	<path fill="#EAA10F" d="M17.53,10.208h29.939C44.928,4.757,39.186,0.5,32.501,0.5C25.815,0.5,20.073,4.757,17.53,10.208z"/>
	<path fill="#CE1111" d="M32.501,0.5c-5.657,0-10.63,3.052-13.569,7.291h27.136C43.129,3.552,38.157,0.5,32.501,0.5z"/>
	<path fill="#E80C0C" d="M32.501,0.5c-5.657,0-10.63,3.052-13.569,7.291"/>
	<path fill="#FFCE00" d="M18.157,9h28.686c0,0-0.405-0.766-0.775-1.209H18.932C18.641,8.208,18.157,9,18.157,9z"/>
	<g>
		<path fill="#FFCE00" d="M36.823,32.146c0,0.242-0.195,0.438-0.438,0.438h-7.5c-0.242,0-0.438-0.195-0.438-0.438l0,0
			c0-0.242,0.195-0.438,0.438-0.438h7.5C36.627,31.708,36.823,31.903,36.823,32.146L36.823,32.146z"/>
		<g>
			<circle fill="#FFCE00" cx="26.281" cy="32.146" r="0.708"/>
			<circle fill="#FFCE00" cx="38.99" cy="32.146" r="0.708"/>
		</g>
	</g>
	<g>
		<path fill="#FFCE00" d="M36.823,35.229c0,0.242-0.195,0.438-0.438,0.438h-7.5c-0.242,0-0.438-0.195-0.438-0.438l0,0
			c0-0.242,0.195-0.438,0.438-0.438h7.5C36.627,34.792,36.823,34.987,36.823,35.229L36.823,35.229z"/>
		<g>
			<circle fill="#FFCE00" cx="26.281" cy="35.229" r="0.708"/>
			<circle fill="#FFCE00" cx="38.99" cy="35.229" r="0.708"/>
		</g>
	</g>
	<g>
		<path fill="#FFCE00" d="M36.823,38.313c0,0.242-0.195,0.438-0.438,0.438h-7.5c-0.242,0-0.438-0.195-0.438-0.438l0,0
			c0-0.242,0.195-0.438,0.438-0.438h7.5C36.627,37.876,36.823,38.071,36.823,38.313L36.823,38.313z"/>
		<g>
			<circle fill="#FFCE00" cx="26.281" cy="38.313" r="0.708"/>
			<circle fill="#FFCE00" cx="38.99" cy="38.313" r="0.708"/>
		</g>
	</g>
	<g>
		<path fill="#FFCE00" d="M36.823,41.397c0,0.242-0.195,0.438-0.438,0.438h-7.5c-0.242,0-0.438-0.195-0.438-0.438l0,0
			c0-0.242,0.195-0.438,0.438-0.438h7.5C36.627,40.96,36.823,41.155,36.823,41.397L36.823,41.397z"/>
		<g>
			<circle fill="#FFCE00" cx="26.281" cy="41.397" r="0.708"/>
			<circle fill="#FFCE00" cx="38.99" cy="41.397" r="0.708"/>
		</g>
	</g>
</g>
</svg>
