<?xml version="1.0" encoding="utf-8"?>
<!-- Generator: Adobe Illustrator 16.0.0, SVG Export Plug-In . SVG Version: 6.00 Build 0)  -->
<!DOCTYPE svg PUBLIC "-//W3C//DTD SVG 1.1//EN" "http://www.w3.org/Graphics/SVG/1.1/DTD/svg11.dtd">
<svg version="1.1" id="Layer_1" xmlns="http://www.w3.org/2000/svg" xmlns:xlink="http://www.w3.org/1999/xlink" x="0px" y="0px"
	 width="65px" height="65px" viewBox="0 0 65 65" enable-background="new 0 0 65 65" xml:space="preserve">
<g>
	<g>
		<g>
			<g>
				<g>
					<g>
						<path fill="#057F73" d="M30.469,46.446c0,2.476-2.008,15.827-4.486,15.827c-2.475,0-4.482-13.352-4.482-15.827
							s2.008-4.484,4.482-4.484C28.461,41.962,30.469,43.971,30.469,46.446z"/>
						<path fill="#057F73" d="M45.495,46.446c0,2.476-2.009,15.827-4.486,15.827c-2.476,0-4.481-13.352-4.481-15.827
							s2.006-4.484,4.481-4.484C43.486,41.962,45.495,43.971,45.495,46.446z"/>
					</g>
					<path fill="#15B78D" d="M46.147,40.521c0,16.038-5.661,10.697-12.65,10.697c-6.986,0-12.65,5.341-12.65-10.697
						c0-9.17,5.666-16.603,12.65-16.603C40.483,23.919,46.147,31.352,46.147,40.521z"/>
					<path fill="#15B78D" d="M37.858,27.708c1.432-1.273,4.228-0.465,6.25,1.805c2.018,2.27,10.794,14.475,9.365,15.75
						C52.04,46.534,40.94,36.39,38.922,34.12C36.905,31.853,36.428,28.981,37.858,27.708z"/>
					<path fill="#089B78" d="M33.497,44.719c-6.291,0-11.507,4.321-12.484-6.524c-0.107,0.648-0.166,1.414-0.166,2.327
						c0,16.038,5.664,10.697,12.65,10.697c6.989,0,12.65,5.341,12.65-10.697c0-0.913-0.059-1.679-0.166-2.327
						C45.004,49.04,39.79,44.719,33.497,44.719z"/>
					<g>
						<path fill="#15B78D" d="M31.03,62.354c0,1.896-2.261,2.146-5.044,2.146c-2.786,0-5.046-0.249-5.046-2.146
							c0-1.897,2.26-4.508,5.046-4.508C28.769,57.847,31.03,60.457,31.03,62.354z"/>
						<path fill="#089B78" d="M31.03,62.354c0,1.896-2.261,2.146-5.044,2.146c-2.786,0-5.046-0.249-5.046-2.146"/>
					</g>
					<g>
						<path fill="#15B78D" d="M46.055,62.354c0,1.896-2.26,2.146-5.045,2.146s-5.045-0.249-5.045-2.146
							c0-1.897,2.26-4.508,5.045-4.508S46.055,60.457,46.055,62.354z"/>
						<path fill="#089B78" d="M46.055,62.354c0,1.896-2.26,2.146-5.045,2.146s-5.045-0.249-5.045-2.146"/>
					</g>
					<g>
						<path fill="#15B78D" d="M34.826,29.854c-0.114-1.912-2.663-3.318-5.695-3.143c-3.032,0.178-17.867,2.604-17.76,4.515
							c0.115,1.913,15.137,2.588,18.168,2.41C32.568,33.46,34.935,31.766,34.826,29.854z"/>
					</g>
					<g>
						<path fill="#21CC9B" d="M49.868,16.275c0,7.999-7.33,12.02-16.37,12.02s-16.372-4.021-16.372-12.02
							c0-8.001,7.332-15.775,16.372-15.775S49.868,8.274,49.868,16.275z"/>
						<path fill="#15B78D" d="M49.868,16.275c0,7.999-7.33,12.02-16.37,12.02s-16.372-4.021-16.372-12.02
							c0-8.001,7.332-14.192,16.372-14.192S49.868,8.274,49.868,16.275z"/>
						<path fill="#089B78" d="M49.868,16.275c0,7.999-7.33,12.02-16.37,12.02s-16.372-4.021-16.372-12.02"/>
					</g>
				</g>
			</g>
		</g>
	</g>
	<g>
		<g>
			<path fill="#038462" d="M28.862,7.428c2.018,1.848,3.573,6.282,1.724,8.3c-1.847,2.018-6.874,2.227-8.892,0.377
				c-2.02-1.848-1.682-6.351,0.167-8.369C23.709,5.718,26.842,5.579,28.862,7.428z"/>
			<path fill="#243B3D" d="M28.862,7.428c2.018,1.848,3.573,6.282,1.724,8.3c-1.847,2.018-6.4,0.857-8.417-0.992
				c-2.02-1.848-2.156-4.981-0.308-7C23.709,5.718,26.842,5.579,28.862,7.428z"/>
			<path fill="#1C292B" d="M21.861,7.735c1.849-2.018,4.981-2.156,7.001-0.308c2.018,1.848,3.573,6.282,1.724,8.3"/>
		</g>
		<g>
			<path fill="#038462" d="M38.131,7.428c-2.018,1.848-3.574,6.282-1.725,8.3c1.848,2.018,6.875,2.227,8.892,0.377
				c2.021-1.848,1.683-6.351-0.165-8.369C43.284,5.718,40.152,5.579,38.131,7.428z"/>
			<path fill="#243B3D" d="M38.131,7.428c-2.018,1.848-3.574,6.282-1.725,8.3c1.848,2.018,6.4,0.857,8.418-0.992
				c2.02-1.848,2.156-4.981,0.309-7C43.284,5.718,40.152,5.579,38.131,7.428z"/>
			<path fill="#1C292B" d="M45.133,7.735c-1.85-2.018-4.981-2.156-7.002-0.308c-2.018,1.848-3.574,6.282-1.725,8.3"/>
		</g>
	</g>
	<g>
		<circle fill="#057F73" cx="33.497" cy="39.277" r="1.759"/>
		<path fill="#057F73" d="M34.46,31.872v-1.483h-1.928v1.483c-3.67,0.474-6.506,3.608-6.506,7.406c0,3.797,2.836,6.932,6.506,7.404
			v1.484h1.928v-1.484c3.669-0.473,6.506-3.607,6.506-7.404C40.966,35.48,38.129,32.346,34.46,31.872z M34.46,44.509v-2.406
			c-0.303,0.104-0.627,0.161-0.964,0.161s-0.661-0.058-0.964-0.161v2.406c-2.478-0.454-4.355-2.621-4.355-5.23
			s1.878-4.777,4.355-5.23v2.406c0.303-0.104,0.627-0.162,0.964-0.162s0.661,0.059,0.964,0.162v-2.406
			c2.477,0.453,4.355,2.621,4.355,5.23C38.816,41.886,36.937,44.055,34.46,44.509z"/>
	</g>
</g>
</svg>
