<?xml version="1.0" encoding="utf-8"?>
<!-- Generator: Adobe Illustrator 16.0.0, SVG Export Plug-In . SVG Version: 6.00 Build 0)  -->
<!DOCTYPE svg PUBLIC "-//W3C//DTD SVG 1.1//EN" "http://www.w3.org/Graphics/SVG/1.1/DTD/svg11.dtd">
<svg version="1.1" xmlns="http://www.w3.org/2000/svg" xmlns:xlink="http://www.w3.org/1999/xlink" x="0px" y="0px" width="65px"
	 height="65px" viewBox="0 0 65 65" enable-background="new 0 0 65 65" xml:space="preserve">
<g id="Layer_1">
	<g>
		<g>
			<g>
				<path fill="#8C8883" d="M50.901,47.546c-18.473,0-33.447-14.973-33.447-33.447c0-4.844,1.039-9.443,2.893-13.6
					C8.653,5.712,0.5,17.429,0.5,31.056c0,18.471,14.976,33.445,33.446,33.445c13.627,0,25.343-8.154,30.554-19.846
					C60.345,46.507,55.745,47.546,50.901,47.546z"/>
			</g>
			<g>
				<path fill="#7C7B7A" d="M39.279,55.834c9.813,0,18.622-4.243,24.737-10.978c-4.029,1.721-8.457,2.689-13.115,2.689
					c-18.473,0-33.447-14.973-33.447-33.447c0-4.844,1.039-9.443,2.893-13.6C15.735,2.556,11.688,5.635,8.46,9.433
					c-1.68,3.986-2.627,8.357-2.627,12.956C5.833,40.859,20.808,55.834,39.279,55.834z"/>
			</g>
			<g>
				<circle fill="#99948F" cx="6.226" cy="43.25" r="0.75"/>
			</g>
			<g>
				<circle fill="#99948F" cx="10.31" cy="48.001" r="1"/>
			</g>
			<g>
				<circle fill="#99948F" cx="5.809" cy="33.001" r="0.833"/>
			</g>
			<g>
				<circle fill="#99948F" cx="13.225" cy="34.084" r="2.083"/>
			</g>
			<g>
				<circle fill="#99948F" cx="25.31" cy="53.667" r="0.5"/>
			</g>
			<g>
				<circle fill="#99948F" cx="30.643" cy="49.5" r="0.833"/>
			</g>
			<g>
				<circle fill="#99948F" cx="46.809" cy="59.001" r="0.833"/>
			</g>
			<g>
				<circle fill="#99948F" cx="45.059" cy="53.083" r="1.917"/>
			</g>
		</g>
		<g>
			<g>
				<ellipse fill="#D6C77C" cx="39.6" cy="15.042" rx="0.833" ry="7.875"/>
			</g>
			<g>
				
					<ellipse transform="matrix(0.7074 0.7068 -0.7068 0.7074 22.2191 -23.5881)" fill="#D6C77C" cx="39.6" cy="15.042" rx="0.832" ry="7.875"/>
			</g>
			<g>
				<ellipse fill="#D6C77C" cx="39.6" cy="15.043" rx="7.874" ry="0.833"/>
			</g>
			<g>
				
					<ellipse transform="matrix(-0.7074 0.7068 -0.7068 -0.7074 78.2441 -2.3048)" fill="#D6C77C" cx="39.599" cy="15.043" rx="0.833" ry="7.875"/>
			</g>
		</g>
		<g>
			<g>
				<ellipse fill="#99948F" cx="40.099" cy="36.042" rx="0.278" ry="2.625"/>
			</g>
			<g>
				
					<ellipse transform="matrix(0.708 0.7062 -0.7062 0.708 37.1637 -17.7945)" fill="#99948F" cx="40.1" cy="36.042" rx="0.277" ry="2.625"/>
			</g>
			<g>
				<ellipse fill="#99948F" cx="40.1" cy="36.042" rx="2.624" ry="0.278"/>
			</g>
			<g>
				
					<ellipse transform="matrix(-0.7071 0.7071 -0.7071 -0.7071 93.9405 33.1745)" fill="#99948F" cx="40.1" cy="36.043" rx="0.278" ry="2.625"/>
			</g>
		</g>
	</g>
</g>
<g id="nyt_x5F_exporter_x5F_info" display="none">
</g>
</svg>
