<?xml version="1.0" encoding="utf-8"?>
<!-- Generator: Adobe Illustrator 16.0.0, SVG Export Plug-In . SVG Version: 6.00 Build 0)  -->
<!DOCTYPE svg PUBLIC "-//W3C//DTD SVG 1.1//EN" "http://www.w3.org/Graphics/SVG/1.1/DTD/svg11.dtd">
<svg version="1.1" id="Layer_1" xmlns="http://www.w3.org/2000/svg" xmlns:xlink="http://www.w3.org/1999/xlink" x="0px" y="0px"
	 width="64px" height="64px" viewBox="0 0 64 64" enable-background="new 0 0 64 64" xml:space="preserve">
<g>
	<g>
		<g>
			<path fill="#42B506" d="M22.8,27.5c0,3.8-0.1,6.5-3.9,6.5h-7.5c-3.8,0-6.9-2.7-6.9-6.5l0,0c0-3.8,3.1-6.5,6.9-6.5h4.5
				C19.7,21,22.8,23.7,22.8,27.5L22.8,27.5z"/>
			<path fill="#2CA00B" d="M22.8,27.3L22.8,27.3c0,3.8-0.1,6.7-3.9,6.7h-7.5c-3.8,0-6.9-3-6.9-6.8l0,0"/>
		</g>
		<g>
			<path fill="#42B506" d="M41.2,27.5c0,3.8,0.1,6.5,3.9,6.5h7.5c3.8,0,6.9-2.7,6.9-6.5l0,0c0-3.8-3.1-6.5-6.9-6.5h-4.5
				C44.3,21,41.2,23.7,41.2,27.5L41.2,27.5z"/>
			<path fill="#2CA00B" d="M41.2,27.3L41.2,27.3c0,3.8,0.1,6.7,3.9,6.7h7.5c3.8,0,6.9-3,6.9-6.8l0,0"/>
		</g>
	</g>
	<g>
		<path fill="#42B506" d="M59,63c-1.1-13-12.8-24.6-27-24.6S6.1,50,5,63H59z"/>
		<path fill="#1C8E00" d="M59,63c-1.1-13-12.8-20.9-27-20.9S6.1,50,5,63H59z"/>
		<path fill="#2CA00B" d="M47.9,43.9c-4.5-3.2-10-5.1-15.9-5.1c-6,0-11.4,1.9-15.9,5.1C18.9,49.9,25,54.2,32,54.2
			S45.1,49.9,47.9,43.9z"/>
		<path fill="#EAD11B" d="M33,60.8c0,0.4-0.6,0.7-1,0.7l0,0c-0.4,0-1-0.3-1-0.7V48.2c0-0.4,0.6-0.7,1-0.7l0,0c0.4,0,1,0.3,1,0.7
			V60.8z"/>
		<g>
			<g>
				<g>
					<circle fill="#42B506" cx="17.6" cy="52.6" r="0.6"/>
					<circle fill="#42B506" cx="20.3" cy="52.6" r="0.6"/>
					<circle fill="#42B506" cx="23.1" cy="52.6" r="0.6"/>
					<path fill="#42B506" d="M26.4,52.6c0,0.3-0.3,0.6-0.6,0.6c-0.3,0-0.6-0.3-0.6-0.6c0-0.3,0.3-0.6,0.6-0.6
						C26.2,52.1,26.4,52.3,26.4,52.6z"/>
				</g>
				<g>
					<circle fill="#42B506" cx="17.6" cy="55" r="0.6"/>
					<circle fill="#42B506" cx="20.3" cy="55" r="0.6"/>
					<circle fill="#42B506" cx="23.1" cy="55" r="0.6"/>
					<path fill="#42B506" d="M26.4,55c0,0.3-0.3,0.6-0.6,0.6c-0.3,0-0.6-0.3-0.6-0.6c0-0.3,0.3-0.6,0.6-0.6
						C26.2,54.4,26.4,54.7,26.4,55z"/>
				</g>
				<g>
					<circle fill="#42B506" cx="17.6" cy="57.4" r="0.6"/>
					<circle fill="#42B506" cx="20.3" cy="57.4" r="0.6"/>
					<circle fill="#42B506" cx="23.1" cy="57.4" r="0.6"/>
					<path fill="#42B506" d="M26.4,57.4c0,0.3-0.3,0.6-0.6,0.6c-0.3,0-0.6-0.3-0.6-0.6c0-0.3,0.3-0.6,0.6-0.6
						C26.2,56.8,26.4,57.1,26.4,57.4z"/>
				</g>
			</g>
			<g>
				<g>
					<circle fill="#42B506" cx="38.2" cy="52.6" r="0.6"/>
					<circle fill="#42B506" cx="40.9" cy="52.6" r="0.6"/>
					<circle fill="#42B506" cx="43.7" cy="52.6" r="0.6"/>
					<circle fill="#42B506" cx="46.4" cy="52.6" r="0.6"/>
				</g>
				<g>
					<circle fill="#42B506" cx="38.2" cy="55" r="0.6"/>
					<circle fill="#42B506" cx="40.9" cy="55" r="0.6"/>
					<circle fill="#42B506" cx="43.7" cy="55" r="0.6"/>
					<circle fill="#42B506" cx="46.4" cy="55" r="0.6"/>
				</g>
				<g>
					<circle fill="#42B506" cx="38.2" cy="57.4" r="0.6"/>
					<circle fill="#42B506" cx="40.9" cy="57.4" r="0.6"/>
					<circle fill="#42B506" cx="43.7" cy="57.4" r="0.6"/>
					<circle fill="#42B506" cx="46.4" cy="57.4" r="0.6"/>
				</g>
			</g>
		</g>
		<g>
			<g>
				<path fill="#7FD313" d="M32,0.7c9.7,0,17.6,0.8,17.6,18.1c0,17.3-7.9,31.3-17.6,31.3c-9.7,0-17.6-14-17.6-31.3
					C14.4,1.5,22.3,0.7,32,0.7z"/>
				<path fill="#6ACE09" d="M14.4,18.8C14.4,1.5,22.3,0.7,32,0.7c9.7,0,17.6,0.8,17.6,18.1c0,17.3-7.9,31.3-17.6,31.3"/>
				<path fill="#42B506" d="M32,0.7c9.7,0,17.6,0.8,17.6,18.1c0,17.3-7.9,31.3-17.6,31.3"/>
				<g>
					<g>
						<path opacity="0.3" fill="#727272" d="M26.9,30c0,1.5-1.2,3.5-2.7,3.5c-1.5,0-2.7-2-2.7-3.5c0-1.5,1.2-2.7,2.7-2.7
							C25.7,27.3,26.9,28.5,26.9,30z"/>
						<circle fill="#023954" cx="24.1" cy="30" r="2.7"/>
						<path fill="#00233F" d="M24.1,27.3c1.5,0,2.7,1.2,2.7,2.7c0,1.5-1.2,2.7-2.7,2.7"/>
						<path fill="#C5EFFF" d="M24.2,28.9c0,0.4-0.3,0.8-0.8,0.8c-0.4,0-0.8-0.3-0.8-0.8c0-0.4,0.3-0.8,0.8-0.8
							C23.9,28.2,24.2,28.5,24.2,28.9z"/>
						<circle fill="#087CA0" cx="25.1" cy="31" r="0.4"/>
						<path fill="#00233F" d="M26,13.6c0,0.2-0.2,0.4-0.4,0.4h-3.2c-0.2,0-0.4-0.2-0.4-0.4v-0.2c0-0.2,0.2-0.4,0.4-0.4h3.2
							c0.2,0,0.4,0.2,0.4,0.4V13.6z"/>
					</g>
					<g>
						<path opacity="0.3" fill="#727272" d="M42.6,30c0,1.5-1.2,3.5-2.7,3.5c-1.5,0-2.7-2-2.7-3.5c0-1.5,1.2-2.7,2.7-2.7
							C41.4,27.3,42.6,28.5,42.6,30z"/>
						<circle fill="#023954" cx="39.9" cy="30" r="2.7"/>
						<path fill="#00233F" d="M39.9,27.3c1.5,0,2.7,1.2,2.7,2.7c0,1.5-1.2,2.7-2.7,2.7"/>
						<circle fill="#C5EFFF" cx="39.2" cy="28.9" r="0.8"/>
						<circle fill="#087CA0" cx="40.8" cy="31" r="0.4"/>
						<path fill="#00233F" d="M42.1,13.5c0,0.2-0.2,0.5-0.4,0.5H38c-0.2,0-0.4-0.3-0.4-0.5l0,0c0-0.2,0.2-0.5,0.4-0.5h3.7
							C41.9,13,42.1,13.3,42.1,13.5L42.1,13.5z"/>
					</g>
				</g>
				<g>
					<path opacity="0.3" fill="#727272" d="M34,40.6c0,0.6-0.4,2.4-1,2.4h-2c-0.6,0-1-1.9-1-2.4v-2.9c0-0.6,0.4-0.6,1-0.6h2
						c0.6,0,1,0.1,1,0.6V40.6z"/>
					<path opacity="0.3" fill="#727272" d="M34,39.4c0,0.6-0.4,0.6-1,0.6h-2c-0.6,0-1,0-1-0.6v-2.9c0-0.6,0.4-1.5,1-1.5h2
						c0.6,0,1,0.9,1,1.5V39.4z"/>
				</g>
				<g>
					<g>
						
							<rect x="31.2" y="5.8" transform="matrix(0.7068 -0.7074 0.7074 0.7068 4.7069 24.5749)" fill="#EAD11B" width="1.5" height="1.5"/>
						<polyline fill="#FFF594" points="32,5.5 33.1,6.6 32,7.7 						"/>
					</g>
					<g>
						
							<rect x="31.2" y="7.8" transform="matrix(0.7071 -0.7071 0.7071 0.7071 3.288 25.1469)" fill="#EAD11B" width="1.5" height="1.5"/>
						<polyline fill="#FFF594" points="32,7.5 33.1,8.6 32,9.7 						"/>
					</g>
					<g>
						
							<rect x="31.2" y="9.8" transform="matrix(0.7071 -0.7071 0.7071 0.7071 1.8779 25.731)" fill="#EAD11B" width="1.5" height="1.5"/>
						<polyline fill="#FFF594" points="32,9.5 33.1,10.6 32,11.7 						"/>
					</g>
				</g>
				
					<ellipse transform="matrix(0.9644 -0.2645 0.2645 0.9644 -0.4134 6.4554)" fill="#97E842" cx="23.8" cy="4.8" rx="5.5" ry="2.2"/>
				<ellipse fill="#97E842" cx="17.9" cy="8.5" rx="0.7" ry="0.5"/>
				<circle fill="#97E842" cx="17.1" cy="11" r="0.6"/>
				<circle fill="#97E842" cx="16.7" cy="13" r="0.2"/>
				<circle fill="#97E842" cx="30.6" cy="3.3" r="0.3"/>
			</g>
		</g>
		<g>
			<g>
				<rect x="8" y="25" fill="#EAD11B" width="1" height="5"/>
				<rect x="10" y="25" fill="#EAD11B" width="1" height="5"/>
				<rect x="12" y="25" fill="#EAD11B" width="1" height="5"/>
			</g>
			<g>
				<rect x="51" y="25" fill="#EAD11B" width="1" height="5"/>
				<rect x="53" y="25" fill="#EAD11B" width="1" height="5"/>
				<rect x="55" y="25" fill="#EAD11B" width="1" height="5"/>
			</g>
		</g>
		<g>
			<path fill="#2CA00B" d="M14,58.9c0,1-1,1.8-2,1.8l0,0c-1,0-2-0.8-2-1.8v-3.6c0-1,1-1.8,2-1.8l0,0c1,0,2,0.8,2,1.8V58.9z"/>
			<path fill="#2CA00B" d="M54,58.9c0,1-1,1.8-2,1.8l0,0c-1,0-2-0.8-2-1.8v-3.6c0-1,1-1.8,2-1.8l0,0c1,0,2,0.8,2,1.8V58.9z"/>
		</g>
	</g>
</g>
</svg>
