<?xml version="1.0" encoding="utf-8"?>
<!-- Generator: Adobe Illustrator 16.0.0, SVG Export Plug-In . SVG Version: 6.00 Build 0)  -->
<!DOCTYPE svg PUBLIC "-//W3C//DTD SVG 1.1//EN" "http://www.w3.org/Graphics/SVG/1.1/DTD/svg11.dtd">
<svg version="1.1" id="Layer_1" xmlns="http://www.w3.org/2000/svg" xmlns:xlink="http://www.w3.org/1999/xlink" x="0px" y="0px"
	 width="64px" height="64px" viewBox="0 0 64 64" enable-background="new 0 0 64 64" xml:space="preserve">
<g>
	<g>
		<path fill="#00C4C4" d="M58,63v-7.4c0-5.5-4.4-9.6-9.9-9.6H15.9C10.4,46,6,50,6,55.6V63H58z"/>
		<polyline fill="#08B8BC" points="6,56 6,63 58,63 58,56 		"/>
		<ellipse fill="#36FFF5" cx="32" cy="47.6" rx="7.4" ry="6.6"/>
		<path fill="#5B5B5B" d="M40,44.9c0,4.3-3.2,7.6-7.8,7.7l0,0c-4.3,0-8.2-3.4-8.2-7.7v-4.1c0-4.3,3.5-7.8,7.8-7.8h0.5
			c4.3,0,7.8,3.5,7.8,7.8V44.9z"/>
		<path fill="#3F3F3F" d="M32.1,33.3L32.1,33.3c4.3,0,7.9,3.5,7.9,7.8v3.8c0,4.3-3.1,7.6-7.8,7.7l0,0"/>
		<polyline fill="#686868" points="40,43 40,42 24,42 24,43 		"/>
		<g>
			<g>
				<path fill="#0B6382" d="M32.5,9.5c0,0.3-0.2,0.5-0.5,0.5l0,0c-0.3,0-0.5-0.2-0.5-0.5v-8C31.5,1.2,31.7,1,32,1l0,0
					c0.3,0,0.5,0.2,0.5,0.5V9.5z"/>
				<path fill="#00233F" d="M32,1L32,1c0.4,0,0.5,0.3,0.5,0.6l0,7.9c0,0.4-0.1,0.5-0.5,0.5l0,0"/>
				<rect x="30" y="9" fill="#F45683" width="4" height="4"/>
				<polyline fill="#E2336D" points="30,9 34,9 34,13 				"/>
				<rect x="31.5" y="9.5" fill="#00E2E2" width="1" height="1"/>
				<polygon fill="#15819E" points="31.5,2.6 32.5,2.6 32.5,2.3 31.5,2.3 				"/>
				<polygon fill="#15819E" points="31.5,3.9 32.5,3.9 32.5,3.6 31.5,3.6 				"/>
				<polygon fill="#15819E" points="31.5,5.2 32.5,5.2 32.5,4.9 31.5,4.9 				"/>
				<polygon fill="#15819E" points="31.5,6.4 32.5,6.4 32.5,6.1 31.5,6.1 				"/>
				<polygon fill="#15819E" points="31.5,7.7 32.5,7.7 32.5,7.4 31.5,7.4 				"/>
			</g>
			<g>
				<path fill="#0B6382" d="M18,17.9c0,1.2-0.9,2.1-2.1,2.1h-2.8c-1.2,0-2.1-0.9-2.1-2.1v-4.8c0-1.2,0.9-2.1,2.1-2.1h2.8
					c1.2,0,2.1,0.9,2.1,2.1V17.9z"/>
				<path fill="#00233F" d="M13,11h2.8c1.2,0,2.2,0.8,2.2,2v4.5c0,1.2-1.1,2.5-2.2,2.5H13"/>
			</g>
			<g>
				<path fill="#0B6382" d="M52,17.9c0,1.2-0.9,2.1-2.1,2.1h-2.8c-1.2,0-2.1-0.9-2.1-2.1v-4.8c0-1.2,0.9-2.1,2.1-2.1h2.8
					c1.2,0,2.1,0.9,2.1,2.1V17.9z"/>
				<path fill="#00233F" d="M48,11h2c1.2,0,2,0.8,2,2v4.5c0,1.2-0.8,2.5-2,2.5h-2"/>
			</g>
			<path fill="#00E2E2" d="M61.2,30.8C61.2,36.4,53.6,41,48,43H16c-5.6-2-13.2-6.6-13.2-12.2l-2-8.4C0.8,16.8,5.4,12,11.1,12h41.9
				c5.6,0,10.2,4.8,10.2,10.4L61.2,30.8z"/>
			<path fill="#00C4C4" d="M63.2,22.6l-2,8.2C61.2,36.4,53.6,41,48,43H16C4.5,39.2,2.8,36.4,2.8,30.8l-2-8.2"/>
			<path fill="#08B8BC" d="M61.2,30.8C61.2,36.4,53.6,41,48,43H16C3.3,39,2.8,35.3,2.8,30.8"/>
			<g>
				<circle fill="#0B6382" cx="14.5" cy="26.5" r="10.2"/>
				<circle opacity="0.2" fill="#727272" cx="14.5" cy="27.6" r="10.2"/>
				<path fill="#00233F" d="M14.5,16.3c5.6,0,10.2,4.6,10.2,10.2c0,5.6-4.6,10.2-10.2,10.2"/>
				<circle fill="#FFFAF5" cx="14.5" cy="26.5" r="6.9"/>
				<circle fill="#FFFAF5" cx="14.5" cy="26.5" r="6.9"/>
				<path fill="#EFEBE8" d="M9.7,21.6c2.7-2.7,7.1-2.7,9.8,0c2.7,2.7,2.7,7.1,0,9.8"/>
				<path fill="#CCCAC8" d="M14.5,21.4c3.7,0,6.7,1.8,6.9,5.5c0-0.1,0-0.3,0-0.4c0-3.8-3.1-6.9-6.9-6.9s-6.9,3.1-6.9,6.9
					c0,0.1,0,0.3,0,0.4C7.9,23.3,10.9,21.4,14.5,21.4z"/>
				<g>
					<circle fill="#CCCAC8" cx="12.4" cy="17.9" r="0.4"/>
					<circle fill="#CCCAC8" cx="14.5" cy="17.9" r="0.4"/>
					<circle fill="#CCCAC8" cx="16.7" cy="17.9" r="0.4"/>
				</g>
				<g>
					<path fill="#727272" d="M15.9,26.5c0,0.7-0.6,1.3-1.3,1.3s-1.3-0.6-1.3-1.3c0-0.7,0.6-1.3,1.3-1.3S15.9,25.8,15.9,26.5z"/>
					<path fill="#3F3F3F" d="M14.5,25.2c0.7,0,1.3,0.6,1.3,1.3c0,0.7-0.6,1.3-1.3,1.3"/>
					<circle fill="#FFFAF5" cx="14" cy="25.9" r="0.4"/>
					<circle fill="#FFFAF5" cx="15.1" cy="27.1" r="0.2"/>
				</g>
			</g>
			<g>
				<circle fill="#0B6382" cx="48.8" cy="26.5" r="10.2"/>
				<circle opacity="0.2" fill="#727272" cx="48.8" cy="27.6" r="10.2"/>
				<path fill="#00233F" d="M48.8,16.3c5.6,0,10.2,4.6,10.2,10.2c0,5.6-4.6,10.2-10.2,10.2"/>
				<circle fill="#FFFAF5" cx="48.8" cy="26.5" r="6.9"/>
				<circle fill="#FFFAF5" cx="48.8" cy="26.5" r="6.9"/>
				<path fill="#EFEBE8" d="M43.9,21.6c2.7-2.7,7.1-2.7,9.8,0s2.7,7.1,0,9.8"/>
				<path fill="#CCCAC8" d="M48.8,21.4c3.7,0,6.7,1.8,6.9,5.5c0-0.1,0-0.3,0-0.4c0-3.8-3.1-6.9-6.9-6.9s-6.9,3.1-6.9,6.9
					c0,0.1,0,0.3,0,0.4C42.1,23.3,45.1,21.4,48.8,21.4z"/>
				<g>
					<circle fill="#CCCAC8" cx="46.7" cy="17.9" r="0.4"/>
					<circle fill="#CCCAC8" cx="48.8" cy="17.9" r="0.4"/>
					<circle fill="#CCCAC8" cx="50.9" cy="17.9" r="0.4"/>
				</g>
				<g>
					<path fill="#727272" d="M50.1,26.5c0,0.7-0.6,1.3-1.3,1.3c-0.7,0-1.3-0.6-1.3-1.3c0-0.7,0.6-1.3,1.3-1.3
						C49.5,25.2,50.1,25.8,50.1,26.5z"/>
					<path fill="#3F3F3F" d="M48.8,25.2c0.7,0,1.3,0.6,1.3,1.3c0,0.7-0.6,1.3-1.3,1.3"/>
					<circle fill="#FFFAF5" cx="48.3" cy="25.9" r="0.4"/>
					<circle fill="#FFFAF5" cx="49.3" cy="27.1" r="0.2"/>
				</g>
			</g>
			<path fill="#36FFF5" d="M13.8,14L13.8,14c0-0.5,0.4-1,0.9-1h34.7c0.5,0,0.9,0.5,0.9,0.9l0,0"/>
		</g>
		<rect x="24" y="44" fill="#686868" width="16" height="1"/>
		<g>
			<rect x="11" y="53" fill="#A0D827" width="4" height="4"/>
			<polygon fill="#CFF23B" points="14,55 11,56.4 11,53 14,53 			"/>
		</g>
		<g>
			<rect x="16" y="53" fill="#F2AE16" width="4" height="4"/>
			<polygon fill="#FFCC4D" points="19,55 16,56.4 16,53 19,53 			"/>
		</g>
		<path fill="#36FFF5" d="M52,53.5c0,0.3-0.2,0.5-0.5,0.5h-7c-0.3,0-0.5-0.2-0.5-0.5l0,0c0-0.3,0.2-0.5,0.5-0.5h7
			C51.8,53,52,53.2,52,53.5L52,53.5z"/>
		<path fill="#36FFF5" d="M52,56.5c0,0.3-0.2,0.5-0.5,0.5h-7c-0.3,0-0.5-0.2-0.5-0.5l0,0c0-0.3,0.2-0.5,0.5-0.5h7
			C51.8,56,52,56.2,52,56.5L52,56.5z"/>
		<path fill="#36FFF5" d="M52,59.5c0,0.3-0.2,0.5-0.5,0.5h-7c-0.3,0-0.5-0.2-0.5-0.5l0,0c0-0.3,0.2-0.5,0.5-0.5h7
			C51.8,59,52,59.2,52,59.5L52,59.5z"/>
	</g>
	<polygon fill="#F45683" points="38,32.7 32,38.7 26,32.7 32,34.6 	"/>
	<polygon fill="#E2336D" points="38,32.7 32,38.7 26,32.7 32,36.3 	"/>
	<circle fill="#F45683" cx="32" cy="15.3" r="1.9"/>
	<path fill="#E2336D" d="M33.9,15.3c0,1-0.8,1.9-1.9,1.9s-1.9-0.8-1.9-1.9"/>
	<path fill="#E2336D" d="M32.3,30c0,0.1-0.1,0.3-0.3,0.3l0,0c-0.1,0-0.3-0.1-0.3-0.3V16.9c0-0.1,0.1-0.3,0.3-0.3l0,0
		c0.1,0,0.3,0.1,0.3,0.3V30z"/>
</g>
</svg>
