<?xml version="1.0" encoding="utf-8"?>
<!-- Generator: Adobe Illustrator 16.0.0, SVG Export Plug-In . SVG Version: 6.00 Build 0)  -->
<!DOCTYPE svg PUBLIC "-//W3C//DTD SVG 1.1//EN" "http://www.w3.org/Graphics/SVG/1.1/DTD/svg11.dtd">
<svg version="1.1" id="Layer_1" xmlns="http://www.w3.org/2000/svg" xmlns:xlink="http://www.w3.org/1999/xlink" x="0px" y="0px"
	 width="64px" height="64px" viewBox="0 0 64 64" enable-background="new 0 0 64 64" xml:space="preserve">
<g>
	<path fill="#FFB600" d="M58,52.9c0,2.3-1.9,4.1-4.1,4.1H10.1C7.9,57,6,55.1,6,52.9V10.1C6,7.9,7.9,6,10.1,6h43.7
		c2.3,0,4.1,1.9,4.1,4.1V52.9z"/>
	<path fill="#EDA006" d="M6,10.1C6,7.9,7.9,6,10.1,6h43.7c2.3,0,4.1,1.9,4.1,4.1V53c0,2.3-1.9,4-4.1,4"/>
	<rect x="15" y="15" fill="#FF8500" width="34" height="34"/>
	<polyline fill="#ED6E06" points="15,15 49,15 49,49 	"/>
	<g>
		<g>
			<path fill="#ED6E06" d="M28,9.6c0,0.5-0.5,0.9-1,0.9l0,0c-0.5,0-1-0.4-1-0.9V2.9C26,2.4,26.5,2,27,2l0,0c0.5,0,1,0.4,1,0.9V9.6z"
				/>
			<path fill="#ED6E06" d="M33,9.6c0,0.5-0.5,0.9-1,0.9l0,0c-0.5,0-1-0.4-1-0.9V2.9C31,2.4,31.5,2,32,2l0,0c0.5,0,1,0.4,1,0.9V9.6z"
				/>
			<path fill="#ED6E06" d="M38,9.6c0,0.5-0.5,0.9-1,0.9l0,0c-0.5,0-1-0.4-1-0.9V2.9C36,2.4,36.5,2,37,2l0,0c0.5,0,1,0.4,1,0.9V9.6z"
				/>
		</g>
		<g>
			<path fill="#ED6E06" d="M33,61.1c0,0.5-0.5,0.9-1,0.9l0,0c-0.5,0-1-0.4-1-0.9v-6.7c0-0.5,0.5-0.9,1-0.9l0,0c0.5,0,1,0.4,1,0.9
				V61.1z"/>
			<path fill="#ED6E06" d="M28,61.1c0,0.5-0.5,0.9-1,0.9l0,0c-0.5,0-1-0.4-1-0.9v-6.7c0-0.5,0.5-0.9,1-0.9l0,0c0.5,0,1,0.4,1,0.9
				V61.1z"/>
			<path fill="#ED6E06" d="M38,61.1c0,0.5-0.5,0.9-1,0.9l0,0c-0.5,0-1-0.4-1-0.9v-6.7c0-0.5,0.5-0.9,1-0.9l0,0c0.5,0,1,0.4,1,0.9
				V61.1z"/>
		</g>
	</g>
	<g>
		<g>
			<path fill="#ED6E06" d="M54.4,28c-0.5,0-0.9-0.5-0.9-1l0,0c0-0.5,0.4-1,0.9-1h6.7c0.5,0,0.9,0.5,0.9,1l0,0c0,0.5-0.4,1-0.9,1
				H54.4z"/>
			<path fill="#ED6E06" d="M54.4,33c-0.5,0-0.9-0.5-0.9-1l0,0c0-0.5,0.4-1,0.9-1h6.7c0.5,0,0.9,0.5,0.9,1l0,0c0,0.5-0.4,1-0.9,1
				H54.4z"/>
			<path fill="#ED6E06" d="M54.4,38c-0.5,0-0.9-0.5-0.9-1l0,0c0-0.5,0.4-1,0.9-1h6.7c0.5,0,0.9,0.5,0.9,1l0,0c0,0.5-0.4,1-0.9,1
				H54.4z"/>
		</g>
		<g>
			<path fill="#ED6E06" d="M2.9,28C2.4,28,2,27.5,2,27l0,0c0-0.5,0.4-1,0.9-1h6.7c0.5,0,0.9,0.5,0.9,1l0,0c0,0.5-0.4,1-0.9,1H2.9z"
				/>
			<path fill="#ED6E06" d="M2.9,33C2.4,33,2,32.5,2,32l0,0c0-0.5,0.4-1,0.9-1h6.7c0.5,0,0.9,0.5,0.9,1l0,0c0,0.5-0.4,1-0.9,1H2.9z"
				/>
			<path fill="#ED6E06" d="M2.9,38C2.4,38,2,37.5,2,37l0,0c0-0.5,0.4-1,0.9-1h6.7c0.5,0,0.9,0.5,0.9,1l0,0c0,0.5-0.4,1-0.9,1H2.9z"
				/>
		</g>
	</g>
	<g>
		<g>
			<circle fill="#EDEA83" cx="11.9" cy="11.6" r="1.9"/>
			<circle fill="#EDEA83" cx="52.1" cy="11.6" r="1.9"/>
		</g>
		<g>
			<circle fill="#EDEA83" cx="11.9" cy="52.4" r="1.9"/>
			<circle fill="#EDEA83" cx="52.1" cy="52.4" r="1.9"/>
		</g>
	</g>
	<g>
		<g>
			<polyline fill="#EFB025" stroke="#EDEA82" stroke-linecap="round" stroke-miterlimit="10" points="19.5,27 19.5,35.5 26,35.5 			
				"/>
			<polyline fill="#EFB025" stroke="#EDEA82" stroke-linecap="round" stroke-miterlimit="10" points="26.5,33 26.5,42.5 28.5,42.5 
				28.5,46.5 37,46.5 			"/>
			<line fill="#EFB025" stroke="#EDEA82" stroke-linecap="round" stroke-miterlimit="10" x1="24" y1="31.5" x2="29" y2="31.5"/>
			<polyline fill="#EFB025" stroke="#EDEA82" stroke-linecap="round" stroke-miterlimit="10" points="33.8,39.5 40.7,46.5 
				35.5,46.5 35.5,41.3 			"/>
			<path fill="#EFB025" stroke="#EDEA82" stroke-linecap="round" stroke-miterlimit="10" d="M22.7,46.1c-1.7,0-3-1.4-3-3
				c0-1.7,1.4-3,3-3"/>
			<polyline fill="#EFB025" stroke="#EDEA82" stroke-linecap="round" stroke-miterlimit="10" points="17,22.5 19.5,22.5 19.5,25 			
				"/>
		</g>
		<g>
			<polyline fill="#F48619" stroke="#EDEA82" stroke-linecap="round" stroke-miterlimit="10" points="44.5,37 44.5,28.5 38,28.5 			
				"/>
			<polyline fill="#F48619" stroke="#EDEA82" stroke-linecap="round" stroke-miterlimit="10" points="37.5,31 37.5,21.5 35.5,21.5 
				35.5,17.5 27,17.5 			"/>
			<line fill="#EFB025" stroke="#EDEA82" stroke-linecap="round" stroke-miterlimit="10" x1="40" y1="32.5" x2="35" y2="32.5"/>
			<polyline fill="#F48619" stroke="#EDEA82" stroke-linecap="round" stroke-miterlimit="10" points="30.2,24.7 23.3,17.5 
				28.5,17.5 28.5,23 			"/>
			<path fill="#F48619" stroke="#EDEA82" stroke-linecap="round" stroke-miterlimit="10" d="M41.3,17.9c1.7,0,3,1.4,3,3
				c0,1.7-1.4,3-3,3"/>
			<polyline fill="#F48619" stroke="#EDEA82" stroke-linecap="round" stroke-miterlimit="10" points="47,41.5 44.5,41.5 44.5,39 			
				"/>
		</g>
	</g>
</g>
</svg>
