<?xml version="1.0" encoding="utf-8"?>
<!-- Generator: Adobe Illustrator 16.0.0, SVG Export Plug-In . SVG Version: 6.00 Build 0)  -->
<!DOCTYPE svg PUBLIC "-//W3C//DTD SVG 1.1//EN" "http://www.w3.org/Graphics/SVG/1.1/DTD/svg11.dtd">
<svg version="1.1" id="Layer_1" xmlns="http://www.w3.org/2000/svg" xmlns:xlink="http://www.w3.org/1999/xlink" x="0px" y="0px"
	 width="64px" height="64px" viewBox="0 0 64 64" enable-background="new 0 0 64 64" xml:space="preserve">
<g>
	<circle fill="#004472" cx="32" cy="32" r="30.5"/>
	<path fill="#00233F" d="M8.1,13.1C8.1,13.1,8.2,13.1,8.1,13.1C5,17,2.8,21.7,2,26.9L21,28l6.2-0.2l-0.1-1.7
		C27.2,26.2-0.1,26.6,8.1,13.1z"/>
	<path fill="#00233F" d="M32,1.5c16.8,0,30.5,13.6,30.5,30.5c0,16.8-13.6,30.5-30.5,30.5"/>
	<path fill="#004472" d="M55.9,13.1C55.8,13.1,55.8,13.1,55.9,13.1C59,17,61.2,21.7,62,26.9L42.9,28l-6.2-0.2l0.1-1.7
		C36.8,26.2,64.1,26.6,55.9,13.1z"/>
	<path fill="#00FFF2" d="M57.8,26.4c-5.4,0.3-14.9,0.5-25.8,0.5s-20.4-0.2-25.8-0.5c-3,0.2-4.7,0.4-4.7,0.6c0,0.6,13.6,1.1,30.5,1.1
		s30.5-0.5,30.5-1.1C62.5,26.8,60.7,26.6,57.8,26.4z"/>
	<path fill="#00FFF2" d="M57.8,33.2c-5.4,0.3-14.9,0.5-25.8,0.5s-20.4-0.2-25.8-0.5c-3,0.2-4.7,0.4-4.7,0.6c0,0.6,13.6,1.1,30.5,1.1
		s30.5-0.5,30.5-1.1C62.5,33.5,60.7,33.3,57.8,33.2z"/>
	<g>
		<path fill="#00FFF2" d="M18,5v13.5c0,2.9,2.1,5.2,5,5.2c2.9,0,5-2.4,5-5.2V1.8C25,2.2,21,3.3,18,5z"/>
		<path fill="#08C4B2" d="M18,18.4c0,2.9,2.1,5.2,5,5.2c2.9,0,5-2.4,5-5.2V2"/>
		<path fill="#00FFF2" d="M36,1.8v16.7c0,2.9,2.1,5.2,5,5.2c2.9,0,5-2.4,5-5.2V5C43,3.3,39,2.2,36,1.8z"/>
		<path fill="#08C4B2" d="M36,2v16.4c0,2.9,2.1,5.2,5,5.2c2.9,0,5-2.4,5-5.2"/>
	</g>
	<g>
		<g>
			<path fill="#00233F" d="M26.3,17.8c0,0.7-0.4,1.2-0.8,1.2h-5.2c-0.5,0-0.8-0.5-0.8-1.2l0,0c0-0.7,0.4-2.7,0.8-2.7l5.2,1.5
				C25.9,16.5,26.3,17.1,26.3,17.8L26.3,17.8z"/>
		</g>
		<g>
			<path fill="#00233F" d="M37.7,17.8c0,0.7,0.4,1.2,0.8,1.2h5.2c0.5,0,0.8-0.5,0.8-1.2l0,0c0-0.7-0.4-2.7-0.8-2.7l-5.2,1.5
				C38.1,16.5,37.7,17.1,37.7,17.8L37.7,17.8z"/>
		</g>
	</g>
	<path fill="#004472" d="M37,31c0,2.8-2.2,5-5,5l0,0c-2.8,0-5-2.2-5-5V20c0-2.8,2.2-5,5-5l0,0c2.8,0,5,2.2,5,5V31z"/>
	<path fill="#00233F" d="M32,15L32,15c2.8,0,5,2.2,5,5v10.9c0,2.8-2.2,5-5,5l0,0"/>
	<g>
		<g>
			<circle fill="#00FFF2" cx="9.7" cy="30.5" r="0.6"/>
			<circle fill="#00FFF2" cx="14.2" cy="30.5" r="0.6"/>
			<circle fill="#00FFF2" cx="18.7" cy="30.5" r="0.6"/>
		</g>
		<g>
			<circle fill="#00FFF2" cx="45.3" cy="30.5" r="0.6"/>
			<circle fill="#00FFF2" cx="49.8" cy="30.5" r="0.6"/>
			<circle fill="#00FFF2" cx="54.3" cy="30.5" r="0.6"/>
		</g>
	</g>
	<path fill="#FFFFFF" d="M38,27.8c0,1.2-1,2.2-2.2,2.2h-7.5C27,30,26,29,26,27.8v-0.5c0-1.2,1-2.2,2.2-2.2h7.5c1.2,0,2.2,1,2.2,2.2
		V27.8z"/>
	<path fill="#F9F29B" d="M38,27.8L38,27.8c0,1.2-1,2.2-2.2,2.2h-7.5C27,30,26,29,26,27.8l0,0"/>
	<circle fill="#FFFFFF" cx="32" cy="32.7" r="0.8"/>
	<g>
		<path fill="#0A6293" d="M31.5,59c-13.3,0-24-10.8-24-24"/>
		<path fill="#004472" d="M32.5,59c13.3,0,24-10.8,24-24"/>
	</g>
</g>
</svg>
