<?xml version="1.0" encoding="utf-8"?>
<!-- Generator: Adobe Illustrator 16.0.0, SVG Export Plug-In . SVG Version: 6.00 Build 0)  -->
<!DOCTYPE svg PUBLIC "-//W3C//DTD SVG 1.1//EN" "http://www.w3.org/Graphics/SVG/1.1/DTD/svg11.dtd">
<svg version="1.1" id="Layer_1" xmlns="http://www.w3.org/2000/svg" xmlns:xlink="http://www.w3.org/1999/xlink" x="0px" y="0px"
	 width="64px" height="64px" viewBox="0 0 64 64" enable-background="new 0 0 64 64" xml:space="preserve">
<g>
	<path fill="#12D6BF" d="M38.5,1.6c-2.3,0-4.5,1.2-6.5,3.4c-1.9-2.2-4.1-3.4-6.5-3.4c-7.8,0-23.6,6.8-23.6,23.6
		c0,16.8,15.8,37.2,23.6,37.2c2.3,0,4.5-1.2,6.5-3.4c1.9,2.2,4.1,3.4,6.5,3.4c7.8,0,23.6-20.4,23.6-37.2C62.1,8.4,46.2,1.6,38.5,1.6
		z"/>
	<path fill="#08C4B2" d="M1.9,25.2c0,16.8,15.8,37.2,23.6,37.2c2.3,0,4.5-1.2,6.5-3.4c1.9,2.2,4.1,3.4,6.5,3.4
		c7.8,0,23.6-20.4,23.6-37.2c0-16.8-15.8-23.6-23.6-23.6c-2.3,0-4.5,1.2-6.5,3.4c-1.9-2.2-4.1-3.4-6.5-3.4"/>
	<path fill="#04A0A0" d="M32,59c1.9,2.2,4.1,3.4,6.5,3.4c7.8,0,23.6-20.4,23.6-37.2c0-16.8-15.8-23.6-23.6-23.6
		c-2.3,0-4.5,1.2-6.5,3.4"/>
	<path fill="#16959B" d="M32,59c1.9,2.2,4.1,3.4,6.5,3.4c7.8,0,23.6-20.4,23.6-37.2"/>
	<g>
		<g>
			
				<polyline fill="#04A0A0" stroke="#5DEDE9" stroke-width="2" stroke-linecap="round" stroke-linejoin="round" stroke-miterlimit="10" points="
				14,15 14,25 28,25 			"/>
			
				<polyline fill="#04A0A0" stroke="#5DEDE9" stroke-width="2" stroke-linecap="round" stroke-linejoin="round" stroke-miterlimit="10" points="
				28,25 28,34 11,34 			"/>
			
				<polyline fill="#04A0A0" stroke="#5DEDE9" stroke-width="2" stroke-linecap="round" stroke-linejoin="round" stroke-miterlimit="10" points="
				11,39 16,39 16,47 24,47 24,35 			"/>
			
				<polyline fill="#04A0A0" stroke="#5DEDE9" stroke-width="2" stroke-linecap="round" stroke-linejoin="round" stroke-miterlimit="10" points="
				23.7,46.8 29,52 29,56 22,56 			"/>
			
				<polyline fill="#04A0A0" stroke="#5DEDE9" stroke-width="2" stroke-linecap="round" stroke-linejoin="round" stroke-miterlimit="10" points="
				19,19 23.8,19 28.6,14 26.8,12 12,12 			"/>
			
				<line fill="#04A0A0" stroke="#5DEDE9" stroke-width="2" stroke-linecap="round" stroke-linejoin="round" stroke-miterlimit="10" x1="28" y1="38" x2="28" y2="44"/>
			
				<line fill="#04A0A0" stroke="#5DEDE9" stroke-width="1.5" stroke-linecap="round" stroke-linejoin="round" stroke-miterlimit="10" x1="7.8" y1="25.2" x2="10" y2="27.3"/>
		</g>
		<g>
			
				<polyline fill="#307F87" stroke="#5DEDE9" stroke-width="2" stroke-linecap="round" stroke-linejoin="round" stroke-miterlimit="10" points="
				50,15 50,25 36,25 			"/>
			
				<polyline fill="#307F87" stroke="#5DEDE9" stroke-width="2" stroke-linecap="round" stroke-linejoin="round" stroke-miterlimit="10" points="
				36,25 36,34 53,34 			"/>
			
				<polyline fill="#307F87" stroke="#5DEDE9" stroke-width="2" stroke-linecap="round" stroke-linejoin="round" stroke-miterlimit="10" points="
				53,39 48,39 48,47 40,47 40,35 			"/>
			
				<polyline fill="#307F87" stroke="#5DEDE9" stroke-width="2" stroke-linecap="round" stroke-linejoin="round" stroke-miterlimit="10" points="
				40.3,46.8 35,52 35,56 42,56 			"/>
			
				<polyline fill="#307F87" stroke="#5DEDE9" stroke-width="2" stroke-linecap="round" stroke-linejoin="round" stroke-miterlimit="10" points="
				45,19 40.2,19 35.4,14 37.2,12 52,12 			"/>
			
				<line fill="#307F87" stroke="#5DEDE9" stroke-width="2" stroke-linecap="round" stroke-linejoin="round" stroke-miterlimit="10" x1="36" y1="38" x2="36" y2="44"/>
			
				<line fill="#307F87" stroke="#5DEDE9" stroke-width="1.5" stroke-linecap="round" stroke-linejoin="round" stroke-miterlimit="10" x1="56.2" y1="25.2" x2="54" y2="27.3"/>
		</g>
	</g>
	<g>
		<g>
			<circle fill="#6CF4ED" cx="14.3" cy="8.5" r="0.5"/>
			<circle fill="#6CF4ED" cx="16.6" cy="8.5" r="0.5"/>
			<circle fill="#6CF4ED" cx="19" cy="8.5" r="0.5"/>
			<circle fill="#6CF4ED" cx="21.3" cy="8.5" r="0.5"/>
			<circle fill="#6CF4ED" cx="23.7" cy="8.5" r="0.5"/>
			<circle fill="#6CF4ED" cx="26" cy="8.5" r="0.5"/>
		</g>
		<g>
			<circle fill="#08C4B2" cx="38" cy="8.5" r="0.5"/>
			<circle fill="#08C4B2" cx="40.3" cy="8.5" r="0.5"/>
			<circle fill="#08C4B2" cx="42.7" cy="8.5" r="0.5"/>
			<circle fill="#08C4B2" cx="45" cy="8.5" r="0.5"/>
			<circle fill="#08C4B2" cx="47.4" cy="8.5" r="0.5"/>
			<circle fill="#08C4B2" cx="49.7" cy="8.5" r="0.5"/>
		</g>
	</g>
</g>
</svg>
