<?xml version="1.0" encoding="utf-8"?>
<!-- Generator: Adobe Illustrator 16.0.0, SVG Export Plug-In . SVG Version: 6.00 Build 0)  -->
<!DOCTYPE svg PUBLIC "-//W3C//DTD SVG 1.1//EN" "http://www.w3.org/Graphics/SVG/1.1/DTD/svg11.dtd">
<svg version="1.1" id="Layer_1" xmlns="http://www.w3.org/2000/svg" xmlns:xlink="http://www.w3.org/1999/xlink" x="0px" y="0px"
	 width="64px" height="64px" viewBox="0 0 64 64" enable-background="new 0 0 64 64" xml:space="preserve">
<g>
	<g>
		<g>
			<ellipse fill="#F2F2B8" cx="23.6" cy="59.1" rx="5.7" ry="3.4"/>
			<path fill="#D3D181" d="M23.6,55.7c3.1,0,5.7,1.5,5.7,3.4s-2.5,3.4-5.7,3.4"/>
		</g>
		<g>
			<ellipse fill="#F2F2B8" cx="40.4" cy="59.1" rx="5.7" ry="3.4"/>
			<path fill="#D3D181" d="M40.4,55.7c3.1,0,5.7,1.5,5.7,3.4s-2.5,3.4-5.7,3.4"/>
		</g>
		<g>
			<ellipse fill="#F2F2B8" cx="32" cy="60" rx="5.7" ry="3.4"/>
			<path fill="#D3D181" d="M32,56.6c3.1,0,5.7,1.5,5.7,3.4s-2.5,3.4-5.7,3.4"/>
		</g>
	</g>
	<path fill="#8DAAB2" d="M48.7,57c0-9-7.5-16.6-16.7-16.6S15.3,48,15.3,57H48.7z"/>
	<path fill="#6B878E" d="M15,57h33.7c0-9-7.6-16.6-16.8-16.6"/>
	
		<rect x="21.6" y="31.7" transform="matrix(0.7071 -0.7071 0.7071 0.7071 -20.3549 34.9409)" fill="#6C498E" width="20.7" height="20.7"/>
	<polyline fill="#583B7A" points="32,27.4 46.7,42 32,56.7 	"/>
	<polygon fill="#A883CC" points="57.5,15.1 32,52.5 6.5,15.1 32,0.6 	"/>
	<polygon fill="#8860A8" points="57.5,15.1 32,46.5 6.5,15.1 32,3.6 	"/>
	<polyline fill="#8860A8" points="32,0.6 57.5,15.1 32,52.5 	"/>
	<polygon fill="#6C498E" points="57.5,15.1 32,3.6 32,46.5 	"/>
	<polygon fill="#583B7A" points="10.6,21 53.4,21 57.5,15.1 6.5,15.1 	"/>
	<polygon fill="#F2F2B8" points="46.4,18 17.6,18 15.6,15 48.4,15 	"/>
	<polygon fill="#D3D181" points="17,17 17.6,18 46.4,18 47,17 	"/>
	<circle fill="#583B7A" cx="32" cy="23.3" r="0.8"/>
	<circle fill="#583B7A" cx="32" cy="26.8" r="0.8"/>
	<circle fill="#583B7A" cx="32" cy="30.2" r="0.8"/>
	<g>
		<polygon fill="#6C498E" points="23.8,36.3 24,23 10.7,21 		"/>
		<polygon fill="#583B7A" points="23.8,36.3 20.4,26.4 10.7,21 		"/>
	</g>
	<g>
		<polygon fill="#8860A8" points="40.2,36.4 40,23 53.2,21.1 		"/>
		<polygon fill="#583B7A" points="40.2,36.4 43.7,26.4 53.2,21.1 		"/>
	</g>
	<g>
		<g>
			<path fill="#8DAAB2" d="M9,43.4c0,1.2-0.4,2.2-1,2.2l0,0c-0.6,0-1-1-1-2.2V28c0-1.2,0.4-2.2,1-2.2l0,0c0.6,0,1,1,1,2.2V43.4z"/>
			<path fill="#6B878E" d="M8.1,25.9L8.1,25.9c0.6,0,0.9,1,0.9,2.2v15.3c0,1.2-0.4,2.2-1,2.2l0,0"/>
			<polygon fill="#8860A8" points="8.3,32.3 2.7,26.7 8.3,21 13,27.6 			"/>
			<polygon fill="#6C498E" points="8.3,32.3 2.7,26.7 8.3,23.8 13,27.6 			"/>
			<polyline fill="#503372" points="8.3,21 13,27.6 8.3,32.3 			"/>
			<path fill="#6C498E" d="M9.5,52.4c-2.8,0-5.1-2.3-5.1-5.1s2.3-5.1,5.1-5.1"/>
			<path fill="#8DAAB2" d="M9.5,49.8c-1.4,0-2.5-1.1-2.5-2.5s1.1-2.5,2.5-2.5"/>
			<path fill="#6B878E" d="M9.5,49.8c-1.4,0-2.5-1.1-2.5-2.5"/>
			<circle fill="#8860A8" cx="11.5" cy="32" r="0.8"/>
			<circle fill="#503372" cx="14" cy="32" r="0.8"/>
		</g>
		<g>
			<path fill="#8DAAB2" d="M55,43.4c0,1.2,0.4,2.2,1,2.2l0,0c0.6,0,1-1,1-2.2V28c0-1.2-0.4-2.2-1-2.2l0,0c-0.6,0-1,1-1,2.2V43.4z"/>
			<path fill="#6B878E" d="M55.9,25.9L55.9,25.9c-0.6,0-0.9,1-0.9,2.2v15.3c0,1.2,0.4,2.2,1,2.2l0,0"/>
			<polygon fill="#8860A8" points="55.7,32.3 61.3,26.7 55.7,21 51,27.6 			"/>
			<polygon fill="#6C498E" points="55.7,32.3 61.3,26.7 55.7,23.8 51,27.6 			"/>
			<polyline fill="#503372" points="55.7,21 51,27.6 55.7,32.3 			"/>
			<path fill="#6C498E" d="M54.5,52.4c2.8,0,5.1-2.3,5.1-5.1s-2.3-5.1-5.1-5.1"/>
			<path fill="#8DAAB2" d="M54.5,49.8c1.4,0,2.5-1.1,2.5-2.5s-1.1-2.5-2.5-2.5"/>
			<path fill="#6B878E" d="M54.5,49.8c1.4,0,2.5-1.1,2.5-2.5"/>
			<circle fill="#8860A8" cx="52.5" cy="32" r="0.8"/>
			<circle fill="#503372" cx="50" cy="32" r="0.8"/>
		</g>
	</g>
	<polygon fill="#F2F2B8" points="34,10.6 32,11.6 30,10.6 30,8.6 32,7.6 34,8.6 	"/>
	<polyline fill="#D3D181" points="32,7.6 34,8.6 34,10.6 32,11.6 	"/>
	<path fill="#F2F2B8" d="M32.5,48.6c0,0.2-0.2,0.4-0.4,0.4h-0.2c-0.2,0-0.4-0.2-0.4-0.4V33.4c0-0.2,0.2-0.4,0.4-0.4h0.2
		c0.2,0,0.4,0.2,0.4,0.4V48.6z"/>
	<path fill="#8DAAB2" d="M51,59.1c0,1-0.8,1.9-1.9,1.9H14.9c-1,0-1.9-0.8-1.9-1.9v-0.2c0-1,0.8-1.9,1.9-1.9h34.2
		c1,0,1.9,0.8,1.9,1.9V59.1z"/>
	<path fill="#6B878E" d="M51,58.8L51,58.8c0.1,1.1-0.8,2.2-1.9,2.2H14.9c-1,0-2-0.9-1.9-2.1l0,0"/>
	<g>
		<g>
			<path fill="#6C498E" d="M21,54c0,0.1-0.4,0.2-0.5,0.2l0,0c-0.1,0-0.5-0.1-0.5-0.2v-3c0-0.1,0.4-0.2,0.5-0.2l0,0
				c0.1,0,0.5,0.1,0.5,0.2V54z"/>
			<path fill="#6C498E" d="M23,54c0,0.1-0.4,0.2-0.5,0.2l0,0c-0.1,0-0.5-0.1-0.5-0.2v-3c0-0.1,0.4-0.2,0.5-0.2l0,0
				c0.1,0,0.5,0.1,0.5,0.2V54z"/>
			<path fill="#6C498E" d="M25,54c0,0.1-0.4,0.2-0.5,0.2l0,0c-0.1,0-0.5-0.1-0.5-0.2v-3c0-0.1,0.4-0.2,0.5-0.2l0,0
				c0.1,0,0.5,0.1,0.5,0.2V54z"/>
			<path fill="#6C498E" d="M19,54c0,0.1-0.4,0.2-0.5,0.2l0,0c-0.1,0-0.5-0.1-0.5-0.2v-3c0-0.1,0.4-0.2,0.5-0.2l0,0
				c0.1,0,0.5,0.1,0.5,0.2V54z"/>
		</g>
		<g>
			<path fill="#6C498E" d="M42,54c0,0.1-0.4,0.2-0.5,0.2l0,0c-0.1,0-0.5-0.1-0.5-0.2v-3c0-0.1,0.4-0.2,0.5-0.2l0,0
				c0.1,0,0.5,0.1,0.5,0.2V54z"/>
			<path fill="#6C498E" d="M44,54c0,0.1-0.4,0.2-0.5,0.2l0,0c-0.1,0-0.5-0.1-0.5-0.2v-3c0-0.1,0.4-0.2,0.5-0.2l0,0
				c0.1,0,0.5,0.1,0.5,0.2V54z"/>
			<path fill="#6C498E" d="M46,54c0,0.1-0.4,0.2-0.5,0.2l0,0c-0.1,0-0.5-0.1-0.5-0.2v-3c0-0.1,0.4-0.2,0.5-0.2l0,0
				c0.1,0,0.5,0.1,0.5,0.2V54z"/>
			<path fill="#6C498E" d="M40,54c0,0.1-0.4,0.2-0.5,0.2l0,0c-0.1,0-0.5-0.1-0.5-0.2v-3c0-0.1,0.4-0.2,0.5-0.2l0,0
				c0.1,0,0.5,0.1,0.5,0.2V54z"/>
		</g>
	</g>
</g>
</svg>
