<?xml version="1.0" encoding="utf-8"?>
<!-- Generator: Adobe Illustrator 16.0.0, SVG Export Plug-In . SVG Version: 6.00 Build 0)  -->
<!DOCTYPE svg PUBLIC "-//W3C//DTD SVG 1.1//EN" "http://www.w3.org/Graphics/SVG/1.1/DTD/svg11.dtd">
<svg version="1.1" id="Layer_1" xmlns="http://www.w3.org/2000/svg" xmlns:xlink="http://www.w3.org/1999/xlink" x="0px" y="0px"
	 width="64px" height="64px" viewBox="0 0 64 64" enable-background="new 0 0 64 64" xml:space="preserve">
<g>
	<circle fill="#C7D3D1" cx="44.1" cy="26.4" r="19.4"/>
	<circle fill="#D5E0DF" cx="47.6" cy="25.2" r="15.7"/>
	<circle fill="#D5E0DF" cx="47.6" cy="25.2" r="15.7"/>
	<circle fill="#8CE01E" cx="53.1" cy="24.4" r="10.3"/>
	<path fill="#68C100" d="M53.1,14.1c5.7,0,10.3,4.6,10.3,10.3c0,5.7-4.6,10.3-10.3,10.3c-5.7,0-10.3-4.6-10.3-10.3"/>
	<path fill="#478E03" d="M53.1,14.1c5.7,0,10.3,4.6,10.3,10.3c0,5.7-4.6,10.3-10.3,10.3"/>
	<g>
		<path fill="#6DA0A0" d="M35.3,36.7c-1.7,1.7-1.7,4.5,0,6.2l0,0c1.7,1.7,4.5,1.7,6.2,0l15.1-15.1c1.7-1.7,1.7-4.5,0-6.2l0,0
			c-1.7-1.7-4.5-1.7-6.2,0L35.3,36.7z"/>
		<path fill="#568789" d="M56.6,21.6"/>
		<path fill="#568789" d="M35.3,42.9L35.3,42.9c1.7,1.7,4.5,1.7,6.2,0l15.1-15.1"/>
		<path fill="#9BCBD3" d="M1,22.9v6.7C6,30.9,8.9,35,8.9,40C8.9,44.9,6,49,1,50.3V57c9,0,17-7.6,17-17C18,30.5,10,22.9,1,22.9z"/>
		<path fill="#7BB1B7" d="M14.2,39.9C14.2,31.9,9,25.1,1,23.4v6.2C6,30.9,8.9,35,8.9,40C8.9,44.9,6,49,1,50.3v6.2
			C9,54.8,14.2,48,14.2,39.9z"/>
		<path fill="#6DA0A0" d="M12.7,39.9C12.7,32.4,8,26,1,23.8v5.8C6,30.9,8.9,35,8.9,40C8.9,44.9,6,49,1,50.3v5.8
			C8,53.9,12.7,47.5,12.7,39.9z"/>
		<path fill="#42B506" d="M9.7,40c0,4.3,3.5,8,7.9,8h18.6c4.3,0,7.9-3.7,7.9-8l0,0c0-4.3-3.5-8-7.9-8H17.6C13.3,32,9.7,35.7,9.7,40
			L9.7,40z"/>
		<path fill="#3D9907" d="M9.7,40L9.7,40c0,4.3,3.5,8,7.9,8h18.6c4.3,0,7.9-3.6,7.9-7.9l0,0"/>
		<circle fill="#9BCBD3" cx="37.9" cy="40" r="2.5"/>
		<path fill="#7BB1B7" d="M37.9,37.5c1.4,0,2.5,1.1,2.5,2.5c0,1.4-1.1,2.5-2.5,2.5"/>
		<path fill="#6ACE09" d="M10.4,36.7c0.3,1,0.5,2.1,0.5,3.3c0,1.1-0.2,2.3-0.5,3.3c1.2,2.7,4,4.7,7.2,4.7h0.6c1.2-3,1.9-5.2,1.9-8
			c0-2.8-0.7-6-1.9-8h-0.6C14.4,32,11.7,33.9,10.4,36.7z"/>
		<path fill="#68C100" d="M10.4,36.7c0.3,1,0.5,2.1,0.5,3.3c0,1.1-0.2,2.3-0.5,3.3c1.2,2.7,4,4.7,7.2,4.7h0.6c1.2-3,1.9-5.2,1.9-8
			c0-2.8-0.7-6-1.9-8H18"/>
		<circle fill="#9BCBD3" cx="2.7" cy="40" r="2.2"/>
		<path fill="#7BB1B7" d="M2.7,37.7C4,37.7,5,38.7,5,40c0,1.2-1,2.2-2.2,2.2"/>
		<path fill="#6ACE09" d="M37,34.5c0,0.3-0.2,0.5-0.5,0.5h-15c-0.3,0-0.5-0.2-0.5-0.5l0,0c0-0.3,0.2-0.5,0.5-0.5h15
			C36.8,34,37,34.2,37,34.5L37,34.5z"/>
		<circle fill="#6ACE09" cx="39.2" cy="34.6" r="0.9"/>
		<g>
			<circle fill="#568789" cx="15.3" cy="36.4" r="0.7"/>
			<circle fill="#568789" cx="15.3" cy="40" r="0.7"/>
			<circle fill="#568789" cx="15.3" cy="43.5" r="0.7"/>
		</g>
	</g>
	<path fill="#9BCBD3" d="M53.8,27.6c0.1,0.1,0.1,0.3,0,0.4l0,0c-0.1,0.1-0.3,0.1-0.4,0l-2.1-2.1c-0.1-0.1-0.1-0.3,0-0.4l0,0
		c0.1-0.1,0.3-0.1,0.4,0L53.8,27.6z"/>
	<path fill="#9BCBD3" d="M52.6,28.8c0.1,0.1,0.1,0.3,0,0.4l0,0c-0.1,0.1-0.3,0.1-0.4,0l-2.1-2.1c-0.1-0.1-0.1-0.3,0-0.4l0,0
		c0.1-0.1,0.3-0.1,0.4,0L52.6,28.8z"/>
	<path fill="#9BCBD3" d="M51.4,30c0.1,0.1,0.1,0.3,0,0.4l0,0c-0.1,0.1-0.3,0.1-0.4,0l-2.1-2.1c-0.1-0.1-0.1-0.3,0-0.4l0,0
		c0.1-0.1,0.3-0.1,0.4,0L51.4,30z"/>
</g>
</svg>
