<?xml version="1.0" encoding="utf-8"?>
<!-- Generator: Adobe Illustrator 16.0.0, SVG Export Plug-In . SVG Version: 6.00 Build 0)  -->
<!DOCTYPE svg PUBLIC "-//W3C//DTD SVG 1.1//EN" "http://www.w3.org/Graphics/SVG/1.1/DTD/svg11.dtd">
<svg version="1.1" id="Layer_1" xmlns="http://www.w3.org/2000/svg" xmlns:xlink="http://www.w3.org/1999/xlink" x="0px" y="0px"
	 width="64px" height="64px" viewBox="0 0 64 64" enable-background="new 0 0 64 64" xml:space="preserve">
<g>
	<g>
		<g>
			<g>
				<path fill="#8DAAB2" d="M55,40.6c0-1.2,0.4-2.2,1-2.2l0,0c0.6,0,1,1,1,2.2V56c0,1.2-0.4,2.2-1,2.2l0,0c-0.6,0-1-1-1-2.2V40.6z"
					/>
				<path fill="#6B878E" d="M56,58.2L56,58.2c-0.6,0-1-1-1-2.2V40.6c0-1.2,0.4-2.2,1.1-2.2l0,0"/>
				<polygon fill="#FFB600" points="55.8,51.7 61.5,57.4 55.8,63.1 51.1,56.5 				"/>
				<polyline fill="#E55E03" points="55.8,63.1 51.1,56.5 55.8,51.7 				"/>
				<path fill="#00FFF2" d="M54.6,34.1c1.4,0,2.5,1.1,2.5,2.5c0,1.4-1.1,2.5-2.5,2.5"/>
				<path fill="#08C4B2" d="M54.6,34.1c1.4,0,2.5,1.1,2.5,2.5"/>
				<circle fill="#FF8500" cx="52.7" cy="52.1" r="0.8"/>
				<circle fill="#FF8500" cx="50.1" cy="52.1" r="0.8"/>
			</g>
			<g>
				<path fill="#8DAAB2" d="M9,40.6c0-1.2-0.4-2.2-1-2.2l0,0c-0.6,0-1,1-1,2.2V56c0,1.2,0.4,2.2,1,2.2l0,0c0.6,0,1-1,1-2.2V40.6z"/>
				<path fill="#6B878E" d="M8,58.2L8,58.2c0.6,0,1-1,1-2.2V40.6c0-1.2-0.4-2.2-1.1-2.2l0,0"/>
				<polygon fill="#FFB600" points="8.2,51.7 2.5,57.4 8.2,63.1 12.9,56.5 				"/>
				<polyline fill="#E55E03" points="8.2,63.1 12.9,56.5 8.2,51.7 				"/>
				<path fill="#00FFF2" d="M9.4,34.1c-1.4,0-2.5,1.1-2.5,2.5c0,1.4,1.1,2.5,2.5,2.5"/>
				<path fill="#08C4B2" d="M9.4,34.1c-1.4,0-2.5,1.1-2.5,2.5"/>
				<circle fill="#FF8500" cx="11.3" cy="52.1" r="0.8"/>
				<circle fill="#FF8500" cx="13.9" cy="52.1" r="0.8"/>
			</g>
		</g>
		<g>
			<g>
				<ellipse fill="#00FFF2" cx="23.5" cy="59.3" rx="5.7" ry="3.4"/>
				<path fill="#08C4B2" d="M23.5,55.9c3.1,0,5.7,1.5,5.7,3.4c0,1.9-2.6,3.4-5.7,3.4"/>
			</g>
			<g>
				<ellipse fill="#00FFF2" cx="40.5" cy="59.3" rx="5.7" ry="3.4"/>
				<path fill="#08C4B2" d="M40.5,55.9c3.1,0,5.7,1.5,5.7,3.4c0,1.9-2.6,3.4-5.7,3.4"/>
			</g>
			<g>
				<ellipse fill="#00FFF2" cx="32" cy="60.2" rx="5.7" ry="3.4"/>
				<path fill="#08C4B2" d="M32,56.8c3.1,0,5.7,1.5,5.7,3.4c0,1.9-2.6,3.4-5.7,3.4"/>
			</g>
		</g>
		<path fill="#8DAAB2" d="M48.8,57c0-9-7.5-16.7-16.8-16.7S15.3,48,15.2,57H48.8z"/>
		<path fill="#6B878E" d="M15,57h33.8c0-9-7.6-16.7-16.9-16.7"/>
		
			<rect x="21.6" y="31.7" transform="matrix(0.7071 -0.7071 0.7071 0.7071 -20.3936 34.957)" fill="#E55E03" width="20.8" height="20.8"/>
		<polyline fill="#FF8500" points="32,27.4 46.7,42.1 32,56.8 		"/>
		<polygon fill="#E55E03" points="6.4,38.1 32,6.5 57.6,38.1 32,49.6 		"/>
		<polyline fill="#FFB600" points="32,52.7 6.4,38.1 32,0.5 		"/>
		<polygon fill="#FF8500" points="6.4,38.1 32,49.6 32,6.5 		"/>
		<circle fill="#FFB600" cx="32" cy="46.3" r="0.8"/>
		<circle fill="#FFB600" cx="32" cy="42.9" r="0.8"/>
		<circle fill="#FFB600" cx="32" cy="39.4" r="0.8"/>
		<g>
			<polygon fill="#FF8500" points="40,22.1 40,35.6 53.3,37.6 			"/>
		</g>
		<g>
			<polygon fill="#E55E03" points="24,22.1 24,35.6 10.7,37.6 			"/>
			<polygon fill="#FFB600" points="24,22.1 20.2,32.2 10.7,37.6 			"/>
		</g>
		<path fill="#08C4B2" d="M32.5,36.8c0,0.2-0.2,0.4-0.4,0.4h-0.2c-0.2,0-0.4-0.2-0.4-0.4V21.5c0-0.2,0.2-0.4,0.4-0.4h0.2
			c0.2,0,0.4,0.2,0.4,0.4V36.8z"/>
		<path fill="#8DAAB2" d="M51,59.1c0,1-0.8,1.9-1.9,1.9H14.9c-1,0-1.9-0.8-1.9-1.9v-0.2c0-1,0.8-1.9,1.9-1.9h34.2
			c1,0,1.9,0.8,1.9,1.9V59.1z"/>
		<path fill="#6B878E" d="M50.9,59L50.9,59c0,1-0.8,2-1.9,2H15c-1,0-1.9-0.9-1.9-2l0,0"/>
		<g>
			<g>
				<path fill="#FFB600" d="M19,54.1c0,0.1-0.4,0.2-0.5,0.2l0,0c-0.1,0-0.5-0.1-0.5-0.2v-3c0-0.1,0.4-0.2,0.5-0.2l0,0
					c0.1,0,0.5,0.1,0.5,0.2V54.1z"/>
				<path fill="#FFB600" d="M21,54.1c0,0.1-0.4,0.2-0.5,0.2l0,0c-0.1,0-0.5-0.1-0.5-0.2v-3c0-0.1,0.4-0.2,0.5-0.2l0,0
					c0.1,0,0.5,0.1,0.5,0.2V54.1z"/>
				<path fill="#FFB600" d="M23,54.1c0,0.1-0.4,0.2-0.5,0.2l0,0c-0.1,0-0.5-0.1-0.5-0.2v-3c0-0.1,0.4-0.2,0.5-0.2l0,0
					c0.1,0,0.5,0.1,0.5,0.2V54.1z"/>
				<path fill="#FFB600" d="M25,54.1c0,0.1-0.4,0.2-0.5,0.2l0,0c-0.1,0-0.5-0.1-0.5-0.2v-3c0-0.1,0.4-0.2,0.5-0.2l0,0
					c0.1,0,0.5,0.1,0.5,0.2V54.1z"/>
			</g>
			<g>
				<path fill="#FFB600" d="M44,54.1c0,0.1-0.4,0.2-0.5,0.2l0,0c-0.1,0-0.5-0.1-0.5-0.2v-3c0-0.1,0.4-0.2,0.5-0.2l0,0
					c0.1,0,0.5,0.1,0.5,0.2V54.1z"/>
				<path fill="#FFB600" d="M42,54.1c0,0.1-0.4,0.2-0.5,0.2l0,0c-0.1,0-0.5-0.1-0.5-0.2v-3c0-0.1,0.4-0.2,0.5-0.2l0,0
					c0.1,0,0.5,0.1,0.5,0.2V54.1z"/>
				<path fill="#FFB600" d="M40,54.1c0,0.1-0.4,0.2-0.5,0.2l0,0c-0.1,0-0.5-0.1-0.5-0.2v-3c0-0.1,0.4-0.2,0.5-0.2l0,0
					c0.1,0,0.5,0.1,0.5,0.2V54.1z"/>
				<path fill="#FFB600" d="M46,54.1c0,0.1-0.4,0.2-0.5,0.2l0,0c-0.1,0-0.5-0.1-0.5-0.2v-3c0-0.1,0.4-0.2,0.5-0.2l0,0
					c0.1,0,0.5,0.1,0.5,0.2V54.1z"/>
			</g>
		</g>
	</g>
	<polygon fill="#C2FFFC" points="32,22.5 25,15.5 32,16.6 39,15.5 	"/>
	<polygon fill="#00FFF2" points="32,22.5 25,15.5 32,18 39,15.5 	"/>
	<polyline fill="#08C4B2" points="32,16.6 39,15.5 32,22.5 	"/>
</g>
</svg>
