<?xml version="1.0" encoding="utf-8"?>
<!-- Generator: Adobe Illustrator 16.0.0, SVG Export Plug-In . SVG Version: 6.00 Build 0)  -->
<!DOCTYPE svg PUBLIC "-//W3C//DTD SVG 1.1//EN" "http://www.w3.org/Graphics/SVG/1.1/DTD/svg11.dtd">
<svg version="1.1" id="Layer_1" xmlns="http://www.w3.org/2000/svg" xmlns:xlink="http://www.w3.org/1999/xlink" x="0px" y="0px"
	 width="65px" height="65px" viewBox="0 0 65 65" enable-background="new 0 0 65 65" xml:space="preserve">
<g>
	<polygon fill="#0A9B0A" points="46.886,8.708 51.198,7.646 50.511,11.458 47.011,10.208 45.948,9.333 	"/>
	<polygon fill="#0A9B0A" points="45.817,7.555 47.911,3.638 50.285,6.698 47.016,8.465 45.655,8.67 	"/>
	<g>
		<g>
			<g>
				<g>
					<path fill="#D39B5E" d="M33.895,36.127c-1.273-1.432-0.465-4.229,1.805-6.25c2.27-2.018,14.475-10.793,15.75-9.365
						c1.271,1.434-8.873,12.533-11.143,14.551C38.039,37.08,35.168,37.557,33.895,36.127z"/>
					<path fill="#D39B5E" d="M31.105,36.127c1.273-1.432,0.465-4.229-1.805-6.25c-2.27-2.018-14.475-10.793-15.75-9.365
						c-1.271,1.434,8.873,12.533,11.143,14.551C26.961,37.08,29.832,37.557,31.105,36.127z"/>
				</g>
				<g>
					<path fill="#70797A" d="M29.473,46.446c0,2.476-2.008,15.827-4.486,15.827c-2.475,0-4.482-13.352-4.482-15.827
						s2.008-4.484,4.482-4.484C27.465,41.962,29.473,43.971,29.473,46.446z"/>
					<path fill="#70797A" d="M44.498,46.446c0,2.476-2.008,15.827-4.486,15.827c-2.475,0-4.482-13.352-4.482-15.827
						s2.008-4.484,4.482-4.484C42.49,41.962,44.498,43.971,44.498,46.446z"/>
				</g>
				<path fill="#0A9B0A" d="M45.15,40.521c0,16.038-5.662,10.697-12.65,10.697c-6.986,0-12.65,5.341-12.65-10.697
					c0-9.17,5.666-16.603,12.65-16.603C39.486,23.919,45.15,31.352,45.15,40.521z"/>
				<path fill="#13BF13" d="M32.5,23.919c-6.701,0-12.173,6.846-12.608,15.498c0.508,13.379,5.957,8.552,12.608,8.552
					c6.652,0,12.1,4.827,12.608-8.552C44.673,30.765,39.201,23.919,32.5,23.919z"/>
				<g>
					<path fill="#FFCE00" d="M30.033,62.354c0,1.896-2.26,2.146-5.045,2.146s-5.045-0.249-5.045-2.146
						c0-1.897,2.26-4.508,5.045-4.508S30.033,60.457,30.033,62.354z"/>
					<path fill="#EAA10F" d="M30.033,62.354c0,1.896-2.26,2.146-5.045,2.146s-5.045-0.249-5.045-2.146"/>
				</g>
				<g>
					<path fill="#FFCE00" d="M45.059,62.354c0,1.896-2.26,2.146-5.045,2.146s-5.045-0.249-5.045-2.146
						c0-1.897,2.26-4.508,5.045-4.508S45.059,60.457,45.059,62.354z"/>
					<path fill="#EAA10F" d="M45.059,62.354c0,1.896-2.26,2.146-5.045,2.146s-5.045-0.249-5.045-2.146"/>
				</g>
				<g>
					<path fill="#EFC286" d="M48.871,16.275c0,7.999-7.33,12.02-16.369,12.02c-9.041,0-16.373-4.021-16.373-12.02
						c0-8.001,7.332-15.775,16.373-15.775C41.541,0.5,48.871,8.274,48.871,16.275z"/>
					<path fill="#232728" d="M18.491,8.458h28.018C43.644,3.875,38.449,0.5,32.502,0.5C26.551,0.5,21.358,3.875,18.491,8.458z"/>
					<path fill="#E8B374" d="M48.871,16.275c0,7.999-7.33,12.02-16.369,12.02c-9.041,0-16.373-4.021-16.373-12.02"/>
				</g>
				<g>
					<g>
						<g>
							<path fill="#232728" d="M27.604,14.198c-0.078,0-0.158-0.028-0.219-0.091C26.67,13.394,25.721,13,24.713,13h-0.002
								c-1.008,0-1.955,0.394-2.666,1.106c-0.121,0.121-0.316,0.124-0.436,0.001c-0.121-0.117-0.125-0.312-0.004-0.434
								c0.83-0.831,1.932-1.29,3.105-1.29h0.002c1.176,0,2.279,0.456,3.111,1.288c0.119,0.119,0.119,0.318,0,0.436
								C27.764,14.17,27.686,14.198,27.604,14.198z"/>
						</g>
					</g>
					<g>
						<g>
							<path fill="#232728" d="M37.398,14.198c0.076,0,0.156-0.028,0.217-0.091C38.33,13.394,39.279,13,40.287,13h0.002
								c1.008,0,1.957,0.394,2.668,1.106c0.119,0.121,0.314,0.124,0.436,0.001c0.121-0.117,0.123-0.312,0.002-0.434
								c-0.826-0.831-1.932-1.29-3.105-1.29h-0.002c-1.174,0-2.277,0.456-3.111,1.288c-0.117,0.119-0.117,0.318,0,0.436
								C37.238,14.17,37.316,14.198,37.398,14.198z"/>
						</g>
					</g>
				</g>
			</g>
			<path fill="#A7B1B7" d="M35.084,45.298"/>
		</g>
		<path fill="#13BF13" d="M17.218,9.065h30.563C47.63,8.795,47.47,8.53,47.303,8.269H17.698C17.53,8.53,17.369,8.795,17.218,9.065z"
			/>
	</g>
	<path fill="#232728" d="M35.553,16.822c-1.144-1.133-2.316-0.678-3.053-0.161c-0.735-0.517-1.909-0.972-3.053,0.161
		c-3.062,3.031-7.03,3.094-7.197,1.344c0,0,0.426,4.177,6.697,0.75c0,0,2.531-1.562,3.094-0.812c0,0,0.002,0.003,0.004,0.004
		c0.117,0.194,0.27,0.34,0.455,0.326c0.186,0.014,0.338-0.132,0.455-0.326c0.002-0.001,0.002-0.002,0.004-0.004
		c0.562-0.75,3.094,0.812,3.094,0.812c6.271,3.427,6.697-0.75,6.697-0.75C42.582,19.916,38.615,19.854,35.553,16.822z"/>
	<g>
		<path fill="#FFCE00" d="M32.501,36.882c-1.265,0-2.287,1.022-2.287,2.285c0,1.262,1.022,2.284,2.287,2.284
			c1.26,0,2.283-1.022,2.283-2.284C34.784,37.904,33.761,36.882,32.501,36.882z M32.501,40.795c-0.898,0-1.632-0.73-1.632-1.628
			c0-0.898,0.733-1.629,1.632-1.629c0.896,0,1.627,0.73,1.627,1.629C34.128,40.064,33.397,40.795,32.501,40.795z"/>
		<path fill="#FFCE00" d="M32.501,35.182c-2.203,0-3.986,1.784-3.986,3.985c0,2.2,1.783,3.985,3.986,3.985
			c2.199,0,3.985-1.785,3.985-3.985C36.486,36.966,34.7,35.182,32.501,35.182z M32.501,42.496c-1.836,0-3.331-1.494-3.331-3.329
			c0-1.836,1.495-3.329,3.331-3.329c1.833,0,3.328,1.493,3.328,3.329C35.829,41.002,34.334,42.496,32.501,42.496z"/>
		<path fill="#FFCE00" d="M32.501,33.614c-3.069,0-5.555,2.485-5.555,5.553c0,3.065,2.485,5.553,5.555,5.553
			c3.066,0,5.55-2.487,5.55-5.553C38.051,36.1,35.567,33.614,32.501,33.614z M32.501,44.063c-2.702,0-4.898-2.197-4.898-4.896
			c0-2.7,2.196-4.896,4.898-4.896c2.699,0,4.895,2.196,4.895,4.896C37.396,41.866,35.2,44.063,32.501,44.063z"/>
		<path fill="#FFCE00" d="M32.501,32.166c-3.867,0-7.003,3.135-7.003,7.001s3.136,7,7.003,7c3.864,0,7-3.134,7-7
			S36.365,32.166,32.501,32.166z M32.501,45.511c-3.5,0-6.346-2.846-6.346-6.344s2.846-6.345,6.346-6.345
			c3.496,0,6.344,2.847,6.344,6.345S35.997,45.511,32.501,45.511z"/>
	</g>
</g>
</svg>
