<?xml version="1.0" encoding="utf-8"?>
<!-- Generator: Adobe Illustrator 16.0.0, SVG Export Plug-In . SVG Version: 6.00 Build 0)  -->
<!DOCTYPE svg PUBLIC "-//W3C//DTD SVG 1.1//EN" "http://www.w3.org/Graphics/SVG/1.1/DTD/svg11.dtd">
<svg version="1.1" id="Layer_1" xmlns="http://www.w3.org/2000/svg" xmlns:xlink="http://www.w3.org/1999/xlink" x="0px" y="0px"
	 width="65px" height="65px" viewBox="0 0 65 65" enable-background="new 0 0 65 65" xml:space="preserve">
<g>
	<path fill="#774610" d="M57.75,19.917c0,0.781-0.634,1.416-1.417,1.416H8.666c-0.783,0-1.416-0.635-1.416-1.416l0,0
		c0-0.783,0.633-1.417,1.416-1.417h47.667C57.116,18.5,57.75,19.134,57.75,19.917L57.75,19.917z"/>
	<g>
		<g>
			<g>
				<g>
					<g>
						<path fill="#EFC286" d="M33.895,36.127c-1.273-1.432-0.465-4.229,1.805-6.25c2.27-2.018,14.473-10.792,15.75-9.365
							c1.271,1.434-8.875,12.533-11.145,14.551C38.039,37.08,35.168,37.557,33.895,36.127z"/>
						<path fill="#EFC286" d="M31.105,36.127c1.273-1.432,0.465-4.229-1.805-6.25c-2.27-2.018-14.477-10.792-15.75-9.365
							c-1.271,1.434,8.873,12.533,11.141,14.551C26.961,37.08,29.832,37.557,31.105,36.127z"/>
					</g>
					<g>
						<path fill="#960808" d="M29.473,46.446c0,2.476-2.008,15.827-4.486,15.827c-2.475,0-4.482-13.352-4.482-15.827
							s2.008-4.484,4.482-4.484C27.465,41.962,29.473,43.971,29.473,46.446z"/>
						<path fill="#960808" d="M44.498,46.446c0,2.476-2.008,15.827-4.486,15.827c-2.475,0-4.482-13.352-4.482-15.827
							s2.008-4.484,4.482-4.484C42.49,41.962,44.498,43.971,44.498,46.446z"/>
					</g>
					<path fill="#CE1111" d="M45.15,40.521c0,16.038-5.662,10.697-12.65,10.697c-6.986,0-12.65,5.341-12.65-10.697
						c0-9.17,5.666-16.603,12.65-16.603C39.486,23.919,45.15,31.352,45.15,40.521z"/>
					<path fill="#EAA10F" d="M33.562,42.771c0,0.587-0.477,1.062-1.062,1.062l0,0c-0.588,0-1.062-0.476-1.062-1.062v-15.5
						c0-0.587,0.475-1.062,1.062-1.062l0,0c0.586,0,1.062,0.476,1.062,1.062V42.771z"/>
					<ellipse fill="#EFC286" cx="32.5" cy="29.896" rx="4.875" ry="4.062"/>
					<g>
						<path fill="#EFC286" d="M30.033,62.354c0,1.896-2.26,2.146-5.045,2.146s-5.047-0.249-5.047-2.146
							c0-1.897,2.262-4.508,5.047-4.508S30.033,60.457,30.033,62.354z"/>
						<path fill="#CE1111" d="M30.033,62.354c0,1.896-2.26,2.146-5.045,2.146s-5.047-0.249-5.047-2.146"/>
					</g>
					<g>
						<path fill="#EFC286" d="M45.057,62.354c0,1.896-2.258,2.146-5.043,2.146s-5.045-0.249-5.045-2.146
							c0-1.897,2.26-4.508,5.045-4.508S45.057,60.457,45.057,62.354z"/>
						<path fill="#CE1111" d="M45.057,62.354c0,1.896-2.258,2.146-5.043,2.146s-5.045-0.249-5.045-2.146"/>
					</g>
					<g>
						<path fill="#EFC286" d="M48.871,16.275c0,7.999-7.332,12.02-16.369,12.02c-9.041,0-16.373-4.021-16.373-12.02
							c0-8.001,7.332-15.775,16.373-15.775C41.539,0.5,48.871,8.274,48.871,16.275z"/>
						<path fill="#E8B374" d="M48.871,16.275c0,7.999-7.332,12.02-16.369,12.02c-9.041,0-16.373-4.021-16.373-12.02"/>
					</g>
					<g>
						<g>
							<g>
								<path fill="#232728" d="M27.604,14.781c-0.08,0-0.158-0.028-0.219-0.091c-0.715-0.714-1.664-1.107-2.672-1.107h-0.002
									c-1.008,0-1.955,0.394-2.666,1.106c-0.121,0.121-0.316,0.124-0.438,0.001c-0.119-0.117-0.123-0.312-0.002-0.434
									c0.83-0.831,1.932-1.29,3.105-1.29h0.002c1.176,0,2.277,0.456,3.111,1.288c0.117,0.119,0.117,0.318,0,0.436
									C27.764,14.753,27.686,14.781,27.604,14.781z"/>
							</g>
						</g>
						<g>
							<g>
								<path fill="#232728" d="M37.398,14.781c0.074,0,0.154-0.028,0.217-0.091c0.715-0.714,1.664-1.107,2.672-1.107l0,0
									c1.01,0,1.959,0.394,2.668,1.106c0.119,0.121,0.314,0.124,0.436,0.001c0.123-0.117,0.125-0.312,0.004-0.434
									c-0.826-0.831-1.932-1.29-3.107-1.29l0,0c-1.174,0-2.279,0.456-3.113,1.288c-0.117,0.119-0.117,0.318,0,0.436
									C37.238,14.753,37.316,14.781,37.398,14.781z"/>
							</g>
						</g>
					</g>
				</g>
				<path fill="#A7B1B7" d="M35.084,45.298"/>
			</g>
			<g>
				<g>
					<circle fill="#FFCE00" cx="26.28" cy="32.146" r="0.708"/>
					<circle fill="#FFCE00" cx="38.989" cy="32.146" r="0.708"/>
				</g>
			</g>
			<g>
				<g>
					<circle fill="#FFCE00" cx="26.28" cy="35.229" r="0.708"/>
					<circle fill="#FFCE00" cx="38.989" cy="35.229" r="0.708"/>
				</g>
			</g>
			<g>
				<g>
					<circle fill="#FFCE00" cx="26.28" cy="38.313" r="0.708"/>
					<circle fill="#FFCE00" cx="38.989" cy="38.313" r="0.708"/>
				</g>
			</g>
			<g>
				<g>
					<circle fill="#FFCE00" cx="26.28" cy="41.397" r="0.708"/>
					<circle fill="#FFCE00" cx="38.989" cy="41.397" r="0.708"/>
				</g>
			</g>
		</g>
		<g>
			<g>
				<circle fill="#CE1111" cx="30.781" cy="6.021" r="0.688"/>
				<circle fill="#CE1111" cx="30.781" cy="8.958" r="0.688"/>
				<circle fill="#CE1111" cx="30.781" cy="11.896" r="0.688"/>
			</g>
			<g>
				<circle fill="#CE1111" cx="34.219" cy="6.021" r="0.688"/>
				<circle fill="#CE1111" cx="34.219" cy="8.958" r="0.688"/>
				<circle fill="#CE1111" cx="34.219" cy="11.896" r="0.688"/>
			</g>
		</g>
	</g>
</g>
</svg>
