<?xml version="1.0" encoding="utf-8"?>
<!-- Generator: Adobe Illustrator 16.0.0, SVG Export Plug-In . SVG Version: 6.00 Build 0)  -->
<!DOCTYPE svg PUBLIC "-//W3C//DTD SVG 1.1//EN" "http://www.w3.org/Graphics/SVG/1.1/DTD/svg11.dtd">
<svg version="1.1" id="Layer_1" xmlns="http://www.w3.org/2000/svg" xmlns:xlink="http://www.w3.org/1999/xlink" x="0px" y="0px"
	 width="65px" height="65px" viewBox="0 0 65 65" enable-background="new 0 0 65 65" xml:space="preserve">
<g>
	<g>
		<g>
			<g>
				<g>
					<g>
						<path fill="#26BC30" d="M33.895,36.127c-1.273-1.432-0.465-4.229,1.805-6.25c2.27-2.018,14.475-10.793,15.75-9.365
							c1.271,1.434-8.873,12.533-11.143,14.551C38.039,37.08,35.168,37.557,33.895,36.127z"/>
						<path fill="#26BC30" d="M31.105,36.127c1.273-1.432,0.465-4.229-1.805-6.25c-2.27-2.018-14.475-10.793-15.75-9.365
							c-1.271,1.434,8.873,12.533,11.143,14.551C26.961,37.08,29.832,37.557,31.105,36.127z"/>
						<path fill="#D39959" d="M21.902,24.46c-3.781-2.511-7.662-4.72-8.352-3.948c-0.672,0.757,1.843,4.212,4.698,7.601
							L21.902,24.46z"/>
						<path fill="#D39959" d="M47.077,27.722c2.717-3.26,5.018-6.482,4.372-7.21c-0.664-0.742-4.28,1.274-7.919,3.663L47.077,27.722
							z"/>
					</g>
					<g>
						<path fill="#9B4308" d="M29.473,46.446c0,2.476-2.008,15.827-4.486,15.827c-2.475,0-4.482-13.352-4.482-15.827
							s2.008-4.484,4.482-4.484C27.465,41.962,29.473,43.971,29.473,46.446z"/>
						<path fill="#9B4308" d="M44.498,46.446c0,2.476-2.008,15.827-4.486,15.827c-2.475,0-4.482-13.352-4.482-15.827
							s2.008-4.484,4.482-4.484C42.49,41.962,44.498,43.971,44.498,46.446z"/>
					</g>
					<path fill="#0EA012" d="M45.15,40.521c0,16.038-5.662,10.697-12.65,10.697c-6.986,0-12.65,5.341-12.65-10.697
						c0-9.17,5.666-16.603,12.65-16.603C39.486,23.919,45.15,31.352,45.15,40.521z"/>
					<path fill="#26BC30" d="M32.5,23.919c-6.653,0-12.098,6.748-12.601,15.314c0.552,13.143,5.98,8.36,12.601,8.36
						c6.622,0,12.05,4.782,12.6-8.36C44.599,30.667,39.155,23.919,32.5,23.919z"/>
					<g>
						<path fill="#262626" d="M30.033,62.354c0,1.896-2.26,2.146-5.045,2.146s-5.045-0.249-5.045-2.146
							c0-1.897,2.26-4.508,5.045-4.508S30.033,60.457,30.033,62.354z"/>
						<path d="M30.033,62.354c0,1.896-2.26,2.146-5.045,2.146s-5.045-0.249-5.045-2.146"/>
					</g>
					<g>
						<path fill="#262626" d="M45.059,62.354c0,1.896-2.26,2.146-5.045,2.146s-5.045-0.249-5.045-2.146
							c0-1.897,2.26-4.508,5.045-4.508S45.059,60.457,45.059,62.354z"/>
						<path d="M45.059,62.354c0,1.896-2.26,2.146-5.045,2.146s-5.045-0.249-5.045-2.146"/>
					</g>
					<g>
						<path fill="#EFC286" d="M48.871,16.275c0,7.999-7.33,12.02-16.369,12.02c-9.041,0-16.373-4.021-16.373-12.02
							c0-8.001,7.332-15.775,16.373-15.775C41.541,0.5,48.871,8.274,48.871,16.275z"/>
						<path fill="#E8B374" d="M48.871,16.275c0,7.999-7.33,12.02-16.369,12.02c-9.041,0-16.373-4.021-16.373-12.02"/>
					</g>
					<g>
						<g>
							<g>
								<path fill="#232728" d="M30.423,12.281c-0.076,0-0.157-0.028-0.22-0.091c-0.713-0.714-1.663-1.107-2.67-1.107h-0.002
									c-1.009,0-1.955,0.394-2.666,1.106c-0.121,0.121-0.316,0.124-0.435,0.001c-0.123-0.117-0.125-0.312-0.006-0.434
									c0.831-0.831,1.932-1.29,3.106-1.29h0.002c1.175,0,2.279,0.456,3.111,1.288c0.12,0.119,0.12,0.318,0,0.436
									C30.584,12.253,30.504,12.281,30.423,12.281z"/>
							</g>
						</g>
						<g>
							<g>
								<path fill="#232728" d="M40.219,12.281c0.076,0,0.155-0.028,0.217-0.091c0.715-0.714,1.664-1.107,2.671-1.107h0.003
									c1.008,0,1.957,0.394,2.668,1.106c0.119,0.121,0.313,0.124,0.436,0.001c0.121-0.117,0.123-0.312,0.002-0.434
									c-0.825-0.831-1.932-1.29-3.105-1.29h-0.003c-1.173,0-2.276,0.456-3.11,1.288c-0.117,0.119-0.117,0.318,0,0.436
									C40.058,12.253,40.137,12.281,40.219,12.281z"/>
							</g>
						</g>
					</g>
				</g>
				<path fill="#A7B1B7" d="M35.084,45.298"/>
			</g>
		</g>
	</g>
	<path fill="#840909" d="M38.902,14.833c0,1.104-0.896,2-2,2h-2c-1.105,0-2-0.896-2-2v-0.375c0-1.104,0.895-2,2-2h2
		c1.104,0,2,0.896,2,2V14.833z"/>
	<path fill="#AA1111" d="M34.902,14.125c-0.878,0-1.615,0.568-1.885,1.354c0.27,0.785,1.007,1.354,1.885,1.354h2
		c0.876,0,1.613-0.568,1.883-1.354c-0.27-0.786-1.007-1.354-1.883-1.354H34.902z"/>
	<path fill="#840909" d="M32.502,0.5c-6.668,0-12.395,4.233-14.949,9.662l0.016,0.172h3.75v-4.25h13.084v-3l2.875,2.875h7.324
		C41.607,2.704,37.303,0.5,32.502,0.5z"/>
	<g>
		<polygon fill="#00FF06" points="40.979,39.514 37.279,35.814 36.189,36.904 34.826,35.541 33.035,37.332 29.453,33.75 
			23.689,39.514 39.715,39.514 		"/>
		<path fill="#00FF06" d="M40.349,40.279H24.32c-0.075,0-0.137,0.06-0.137,0.135c0,0.074,0.062,0.135,0.137,0.135h16.028
			c0.075,0,0.136-0.061,0.136-0.135C40.484,40.339,40.424,40.279,40.349,40.279z"/>
		<path fill="#00FF06" d="M37.646,41.18H27.021c-0.075,0-0.135,0.06-0.135,0.135c0,0.074,0.06,0.135,0.135,0.135h10.625
			c0.074,0,0.136-0.061,0.136-0.135C37.782,41.239,37.721,41.18,37.646,41.18z"/>
		<path fill="#00FF06" d="M36.297,42.08h-7.925c-0.075,0-0.136,0.06-0.136,0.135c0,0.074,0.061,0.135,0.136,0.135h7.925
			c0.074,0,0.135-0.061,0.135-0.135C36.432,42.14,36.371,42.08,36.297,42.08z"/>
		<path fill="#00FF06" d="M34.945,42.98h-5.223c-0.074,0-0.135,0.06-0.135,0.135c0,0.074,0.061,0.135,0.135,0.135h5.223
			c0.074,0,0.135-0.061,0.135-0.135C35.08,43.04,35.02,42.98,34.945,42.98z"/>
	</g>
</g>
</svg>
