<?xml version="1.0" encoding="utf-8"?>
<!-- Generator: Adobe Illustrator 16.0.0, SVG Export Plug-In . SVG Version: 6.00 Build 0)  -->
<!DOCTYPE svg PUBLIC "-//W3C//DTD SVG 1.1//EN" "http://www.w3.org/Graphics/SVG/1.1/DTD/svg11.dtd">
<svg version="1.1" id="Layer_1" xmlns="http://www.w3.org/2000/svg" xmlns:xlink="http://www.w3.org/1999/xlink" x="0px" y="0px"
	 width="65px" height="65px" viewBox="0 0 65 65" enable-background="new 0 0 65 65" xml:space="preserve">
<g>
	<g>
		<rect x="15.31" y="51.086" fill="#B51D1D" width="0.82" height="1.606"/>
		<rect x="20.913" y="51.086" fill="#B51D1D" width="0.82" height="1.606"/>
		<path fill="#F15249" d="M26.813,63.395c0,0.61-0.495,1.105-1.106,1.105H10.991c-0.61,0-1.106-0.495-1.106-1.105v-9.737
			c0-0.611,0.496-1.107,1.106-1.107h14.716c0.611,0,1.106,0.496,1.106,1.107V63.395z"/>
		<path fill="#0AA06E" d="M21.733,51.093c0,0.242-0.196,0.438-0.438,0.438h-5.548c-0.242,0-0.438-0.196-0.438-0.438v-1.447
			c0-0.241,0.195-0.438,0.438-0.438h5.548c0.242,0,0.438,0.197,0.438,0.438V51.093z"/>
		<path fill="#007C56" d="M15.31,49.646c0-0.241,0.195-0.438,0.438-0.438h5.548c0.242,0,0.438,0.197,0.438,0.438v1.447
			c0,0.242-0.196,0.438-0.438,0.438"/>
		<line fill="#6965A8" x1="21.295" y1="51.531" x2="15.747" y2="51.531"/>
		<rect x="11.276" y="61.375" fill="#FFFFFF" width="2.529" height="0.375"/>
		<rect x="11.276" y="62.314" fill="#FFFFFF" width="2.529" height="0.375"/>
		<path fill="#C93131" d="M26.813,63.395v-2.568l-6.312-6.312l-6.179,6.178L18.13,64.5h7.577
			C26.318,64.5,26.813,64.005,26.813,63.395z"/>
		<path fill="#B51D1D" d="M26.185,64.389l-7.78-7.779l-1.917,1.918L22.46,64.5h3.247C25.878,64.5,26.04,64.458,26.185,64.389z"/>
		<polygon fill="#FFFFFF" points="22.36,56.383 20.491,56.383 20.491,54.516 16.208,54.516 16.208,56.383 14.339,56.383 
			14.339,60.669 16.208,60.669 16.208,62.535 20.491,62.535 20.491,60.669 22.36,60.669 		"/>
		<polyline fill="#EAEAEA" points="20.491,60.669 22.36,60.669 22.36,56.383 20.491,56.383 20.491,54.516 16.208,54.516 
			16.208,56.383 		"/>
		<rect x="24.332" y="53.992" fill="#B51D1D" width="1.093" height="1.094"/>
	</g>
	<g>
		<g>
			<g>
				<g>
					<path fill="#4F340E" d="M33.028,46.446c0,2.476-2.008,15.827-4.486,15.827c-2.475,0-4.482-13.352-4.482-15.827
						s2.008-4.484,4.482-4.484C31.021,41.962,33.028,43.971,33.028,46.446z"/>
					<path fill="#4F340E" d="M48.054,46.446c0,2.476-2.008,15.827-4.486,15.827c-2.475,0-4.482-13.352-4.482-15.827
						s2.008-4.484,4.482-4.484C46.046,41.962,48.054,43.971,48.054,46.446z"/>
				</g>
				<path fill="#9CB5B5" d="M48.706,40.521c0,16.038-5.662,10.697-12.65,10.697c-6.986,0-12.65,5.341-12.65-10.697
					c0-9.17,5.666-16.603,12.65-16.603C43.042,23.919,48.706,31.352,48.706,40.521z"/>
				<g>
					<path fill="#3F4B4C" d="M33.589,62.354c0,1.896-2.26,2.146-5.045,2.146s-5.045-0.249-5.045-2.146
						c0-1.897,2.26-4.508,5.045-4.508S33.589,60.457,33.589,62.354z"/>
					<path fill="#2C3838" d="M33.589,62.354c0,1.896-2.26,2.146-5.045,2.146s-5.045-0.249-5.045-2.146"/>
				</g>
				<g>
					<path fill="#3F4B4C" d="M48.614,62.354c0,1.896-2.26,2.146-5.045,2.146s-5.045-0.249-5.045-2.146
						c0-1.897,2.26-4.508,5.045-4.508S48.614,60.457,48.614,62.354z"/>
					<path fill="#2C3838" d="M48.614,62.354c0,1.896-2.26,2.146-5.045,2.146s-5.045-0.249-5.045-2.146"/>
				</g>
				<g>
					<path fill="#9CB5B5" d="M34.661,26.369c1.273,1.432,0.465,4.228-1.805,6.249c-2.27,2.018-14.475,10.794-15.75,9.365
						c-1.271-1.434,8.873-12.532,11.143-14.55C30.517,25.415,33.388,24.938,34.661,26.369z"/>
					<path fill="#9CB5B5" d="M37.45,26.369c-1.273,1.432-0.465,4.228,1.805,6.249c2.27,2.018,14.475,10.794,15.75,9.365
						c1.271-1.434-8.873-12.532-11.143-14.55C41.595,25.415,38.724,24.938,37.45,26.369z"/>
				</g>
				<rect x="33.431" y="25.833" fill="#E2DED3" width="5.25" height="24.292"/>
				<path fill="#C6BFAF" d="M33.431,30.165c0.857,0.079,1.73,0.13,2.627,0.13c0.895,0,1.768-0.051,2.623-0.13v-4.332h-5.25V30.165z"
					/>
				<g>
					<path fill="#F9C1AC" d="M52.427,16.275c0,7.999-7.33,12.02-16.369,12.02c-9.041,0-16.373-4.021-16.373-12.02
						c0-8.001,7.332-15.775,16.373-15.775C45.097,0.5,52.427,8.274,52.427,16.275z"/>
					<path fill="#F2B09C" d="M52.427,16.275c0,7.999-7.33,12.02-16.369,12.02c-9.041,0-16.373-4.021-16.373-12.02"/>
				</g>
				<g>
					<g>
						<circle fill="#113E49" cx="28.271" cy="17.82" r="1.464"/>
						<path d="M29.735,17.82c0,0.811-0.656,1.465-1.465,1.465s-1.463-0.654-1.463-1.465"/>
						<g>
							<path fill="#FFD3C5" d="M31.159,20.874c-0.078,0-0.158-0.028-0.219-0.091c-0.715-0.714-1.664-1.107-2.672-1.107h-0.002
								c-1.008,0-1.955,0.394-2.666,1.106c-0.121,0.121-0.316,0.124-0.436,0.001c-0.121-0.117-0.125-0.312-0.004-0.434
								c0.83-0.831,1.932-1.29,3.105-1.29h0.002c1.176,0,2.279,0.456,3.111,1.288c0.119,0.119,0.119,0.318,0,0.436
								C31.319,20.846,31.241,20.874,31.159,20.874z"/>
						</g>
					</g>
					<g>
						<circle fill="#113E49" cx="43.842" cy="17.82" r="1.464"/>
						<path d="M42.378,17.82c0,0.811,0.654,1.465,1.465,1.465c0.809,0,1.463-0.654,1.463-1.465"/>
						<g>
							<path fill="#FFD3C5" d="M40.954,20.874c0.076,0,0.156-0.028,0.217-0.091c0.715-0.714,1.664-1.107,2.672-1.107h0.002
								c1.008,0,1.957,0.394,2.668,1.106c0.119,0.121,0.314,0.124,0.436,0.001c0.121-0.117,0.123-0.312,0.002-0.434
								c-0.826-0.831-1.932-1.29-3.105-1.29h-0.002c-1.174,0-2.277,0.456-3.111,1.288c-0.117,0.119-0.117,0.318,0,0.436
								C40.794,20.846,40.872,20.874,40.954,20.874z"/>
						</g>
					</g>
				</g>
			</g>
			<path fill="#A54B08" d="M36.058,0.5c-0.227,0-0.445,0.026-0.669,0.036c-0.114,0.15-0.208,0.31-0.265,0.484
				c-0.774,2.388,4.188,6.139,11.083,8.372c1.739,0.563,3.435,0.976,5.011,1.241C48.782,4.979,42.917,0.5,36.058,0.5z"/>
			<path fill="#BC5806" d="M43.347,2.294C41.149,1.169,38.679,0.5,36.058,0.5c-6.9,0-12.793,4.532-15.203,10.233
				c2.581,0.587,6.879,0.152,11.488-1.341C38.107,7.525,42.508,4.599,43.347,2.294z"/>
			<path fill="#AA1111" d="M31.235,24.311c0-1.737,2.16-3.153,4.824-3.153c2.66,0,4.818,1.416,4.818,3.153
				c0,1.748-2.158,0.701-4.818,0.701C33.396,25.012,31.235,26.059,31.235,24.311z"/>
			<path fill="#D62B2B" d="M34.757,24.029c0.286,0.269,0.761,0.445,1.299,0.445c0.537,0,1.013-0.177,1.299-0.445
				c-0.286-0.27-0.762-0.446-1.299-0.446C35.518,23.583,35.043,23.76,34.757,24.029z"/>
		</g>
	</g>
	<g>
		<g>
			<path fill="#D62B2B" d="M39.056,37.583h-6c-1.669,0-3.027-1.357-3.027-3.026v-6.474c0-0.276,0.224-0.5,0.5-0.5s0.5,0.224,0.5,0.5
				v6.474c0,1.117,0.909,2.026,2.027,2.026h6c1.118,0,2.027-0.909,2.027-2.026v-6.474c0-0.276,0.224-0.5,0.5-0.5
				c0.275,0,0.5,0.224,0.5,0.5v6.474C42.083,36.226,40.725,37.583,39.056,37.583z"/>
		</g>
		<g>
			<path fill="#D62B2B" d="M42.327,47.334c-0.277,0-0.5-0.224-0.5-0.5v-4h-6.666v-5.667c0-0.276,0.223-0.5,0.5-0.5
				c0.275,0,0.5,0.224,0.5,0.5v4.667h6.666v5C42.827,47.11,42.603,47.334,42.327,47.334z"/>
		</g>
		<g>
			<path fill="#D62B2B" d="M42.327,50.959c-1.494,0-2.709-1.215-2.709-2.708c0-1.494,1.215-2.709,2.709-2.709
				c1.493,0,2.709,1.215,2.709,2.709C45.036,49.744,43.82,50.959,42.327,50.959z M42.327,46.542c-0.942,0-1.709,0.767-1.709,1.709
				c0,0.941,0.767,1.708,1.709,1.708c0.941,0,1.709-0.767,1.709-1.708C44.036,47.309,43.269,46.542,42.327,46.542z"/>
		</g>
	</g>
</g>
</svg>
