<?xml version="1.0" encoding="utf-8"?>
<!-- Generator: Adobe Illustrator 16.0.0, SVG Export Plug-In . SVG Version: 6.00 Build 0)  -->
<!DOCTYPE svg PUBLIC "-//W3C//DTD SVG 1.1//EN" "http://www.w3.org/Graphics/SVG/1.1/DTD/svg11.dtd">
<svg version="1.1" id="Layer_1" xmlns="http://www.w3.org/2000/svg" xmlns:xlink="http://www.w3.org/1999/xlink" x="0px" y="0px"
	 width="65px" height="65px" viewBox="0 0 65 65" enable-background="new 0 0 65 65" xml:space="preserve">
<g>
	<g>
		<g>
			<g>
				<g>
					<path fill="#593F0B" d="M29.473,46.446c0,2.476-2.008,15.827-4.486,15.827c-2.475,0-4.482-13.352-4.482-15.827
						s2.008-4.484,4.482-4.484C27.465,41.962,29.473,43.971,29.473,46.446z"/>
					<path fill="#593F0B" d="M44.498,46.446c0,2.476-2.008,15.827-4.486,15.827c-2.475,0-4.482-13.352-4.482-15.827
						s2.008-4.484,4.482-4.484C42.49,41.962,44.498,43.971,44.498,46.446z"/>
				</g>
				<path fill="#A81333" d="M45.15,40.521c0,16.038-5.662,10.697-12.65,10.697c-6.986,0-12.65,5.341-12.65-10.697
					c0-9.17,5.666-16.603,12.65-16.603C39.486,23.919,45.15,31.352,45.15,40.521z"/>
				<g>
					<path fill="#3D3C39" d="M30.033,62.354c0,1.896-2.26,2.146-5.045,2.146s-5.045-0.249-5.045-2.146
						c0-1.897,2.26-4.508,5.045-4.508S30.033,60.457,30.033,62.354z"/>
					<path fill="#1C1B1A" d="M30.033,62.354c0,1.896-2.26,2.146-5.045,2.146s-5.045-0.249-5.045-2.146"/>
				</g>
				<g>
					<path fill="#3D3C39" d="M45.059,62.354c0,1.896-2.26,2.146-5.045,2.146s-5.045-0.249-5.045-2.146
						c0-1.897,2.26-4.508,5.045-4.508S45.059,60.457,45.059,62.354z"/>
					<path fill="#1C1B1A" d="M45.059,62.354c0,1.896-2.26,2.146-5.045,2.146s-5.045-0.249-5.045-2.146"/>
				</g>
				<g>
					<path fill="#F9BD82" d="M48.871,16.275c0,7.999-7.33,12.02-16.369,12.02c-9.041,0-16.373-4.021-16.373-12.02
						c0-8.001,7.332-15.775,16.373-15.775C41.541,0.5,48.871,8.274,48.871,16.275z"/>
					<path fill="#EDA366" d="M48.871,16.275c0,7.999-7.33,12.02-16.369,12.02c-9.041,0-16.373-4.021-16.373-12.02"/>
				</g>
				<g>
					<g>
						<circle fill="#113E49" cx="24.716" cy="13.32" r="1.464"/>
						<path d="M26.18,13.32c0,0.811-0.656,1.465-1.465,1.465s-1.463-0.654-1.463-1.465"/>
						<g>
							<path fill="#FFD3C5" d="M27.604,16.374c-0.078,0-0.158-0.028-0.219-0.091c-0.715-0.714-1.664-1.107-2.672-1.107h-0.002
								c-1.008,0-1.955,0.394-2.666,1.106c-0.121,0.121-0.316,0.124-0.436,0.001c-0.121-0.117-0.125-0.312-0.004-0.434
								c0.83-0.831,1.932-1.29,3.105-1.29h0.002c1.176,0,2.279,0.456,3.111,1.288c0.119,0.119,0.119,0.318,0,0.436
								C27.764,16.346,27.686,16.374,27.604,16.374z"/>
						</g>
					</g>
					<g>
						<circle fill="#113E49" cx="40.286" cy="13.32" r="1.464"/>
						<path d="M38.822,13.32c0,0.811,0.654,1.465,1.465,1.465c0.809,0,1.463-0.654,1.463-1.465"/>
						<g>
							<path fill="#FFD3C5" d="M37.398,16.374c0.076,0,0.156-0.028,0.217-0.091c0.715-0.714,1.664-1.107,2.672-1.107h0.002
								c1.008,0,1.957,0.394,2.668,1.106c0.119,0.121,0.314,0.124,0.436,0.001c0.121-0.117,0.123-0.312,0.002-0.434
								c-0.826-0.831-1.932-1.29-3.105-1.29h-0.002c-1.174,0-2.277,0.456-3.111,1.288c-0.117,0.119-0.117,0.318,0,0.436
								C37.238,16.346,37.316,16.374,37.398,16.374z"/>
						</g>
					</g>
				</g>
			</g>
			<path fill="#AA1111" d="M28.892,16.754c0-0.46,1.617-2.024,3.609-2.024s3.61,1.564,3.61,2.024c0,0.462-1.618,0.187-3.61,0.187
				S28.892,17.216,28.892,16.754z"/>
		</g>
		<g>
			<g>
				<path fill="#EDA366" d="M44.338,37.525c0.602-1.821-1.252-4.065-4.139-5.019c-2.883-0.951-17.57-4.153-18.174-2.337
					c-0.598,1.82,13.121,7.975,16.006,8.926C40.914,40.048,43.738,39.344,44.338,37.525z"/>
			</g>
			<g>
				<path fill="#F9BD82" d="M20.662,37.525c-0.602-1.821,1.252-4.065,4.139-5.019c2.883-0.951,17.57-4.153,18.174-2.337
					c0.598,1.82-13.121,7.975-16.006,8.926C24.086,40.048,21.262,39.344,20.662,37.525z"/>
			</g>
		</g>
		<path fill="#5F7277" d="M38.125,31.041c-0.109-0.417-0.184-0.814-0.242-1.2c-0.281,0.034-0.567,0.07-0.86,0.109
			c0.046,0.572,0.146,1.205,0.321,1.872c0.217,0.825,0.504,1.562,0.814,2.149c0.319-0.174,0.629-0.346,0.928-0.517
			C38.719,32.835,38.375,31.995,38.125,31.041z"/>
		<circle fill="#0698BF" cx="37.484" cy="31.042" r="1.73"/>
		<circle fill="#A3E1EF" cx="37.35" cy="30.845" r="0.969"/>
	</g>
	<path fill="#FFCE00" d="M17.635,10h29.73c-2.591-5.351-8.264-9.5-14.863-9.5S20.227,4.649,17.635,10z"/>
	<path fill="#0FB2AE" d="M32.502,0.5c-5.582,0-10.494,2.973-13.447,7.125h26.891C42.994,3.473,38.084,0.5,32.502,0.5z"/>
	<path fill="#FFCE00" d="M39.205,2c-2.044-0.95-4.311-1.5-6.703-1.5s-4.66,0.55-6.705,1.5H39.205z"/>
</g>
</svg>
