<?xml version="1.0" encoding="utf-8"?>
<!-- Generator: Adobe Illustrator 16.0.0, SVG Export Plug-In . SVG Version: 6.00 Build 0)  -->
<!DOCTYPE svg PUBLIC "-//W3C//DTD SVG 1.1//EN" "http://www.w3.org/Graphics/SVG/1.1/DTD/svg11.dtd">
<svg version="1.1" id="Layer_1" xmlns="http://www.w3.org/2000/svg" xmlns:xlink="http://www.w3.org/1999/xlink" x="0px" y="0px"
	 width="65px" height="65px" viewBox="0 0 65 65" enable-background="new 0 0 65 65" xml:space="preserve">
<g>
	<g>
		<g>
			<g>
				<g>
					<path fill="#0698BF" d="M27.992,46.446c0,2.476-2.008,15.827-4.486,15.827c-2.475,0-4.482-13.352-4.482-15.827
						s2.008-4.484,4.482-4.484C25.984,41.962,27.992,43.971,27.992,46.446z"/>
					<path fill="#0698BF" d="M43.018,46.446c0,2.476-2.008,15.827-4.486,15.827c-2.475,0-4.482-13.352-4.482-15.827
						s2.008-4.484,4.482-4.484C41.01,41.962,43.018,43.971,43.018,46.446z"/>
				</g>
				<path fill="#0D914F" d="M43.67,40.521c0,16.038-5.662,10.697-12.65,10.697c-6.986,0-12.65,5.341-12.65-10.697
					c0-9.17,5.666-16.603,12.65-16.603C38.006,23.919,43.67,31.352,43.67,40.521z"/>
				<path fill="#087C3F" d="M43.67,40.521c0,16.038-5.662,10.697-12.65,10.697c-6.986,0-12.65,5.341-12.65-10.697
					c0-9.17,5.666-16.603,12.65-16.603C38.006,23.919,43.67,31.352,43.67,40.521z"/>
				<path fill="#0D914F" d="M31.02,23.919c-6.527,0-11.9,6.494-12.576,14.83c0.68,12.457,6.051,7.803,12.576,7.803
					c6.527,0,11.896,4.654,12.576-7.803C42.922,30.413,37.549,23.919,31.02,23.919z"/>
				<g>
					<path fill="#0AC4A9" d="M28.553,62.354c0,1.896-2.26,2.146-5.045,2.146s-5.045-0.249-5.045-2.146
						c0-1.897,2.26-4.508,5.045-4.508S28.553,60.457,28.553,62.354z"/>
					<path fill="#04AA8E" d="M28.553,62.354c0,1.896-2.26,2.146-5.045,2.146s-5.045-0.249-5.045-2.146"/>
				</g>
				<g>
					<path fill="#0AC4A9" d="M43.578,62.354c0,1.896-2.26,2.146-5.045,2.146s-5.045-0.249-5.045-2.146
						c0-1.897,2.26-4.508,5.045-4.508S43.578,60.457,43.578,62.354z"/>
					<path fill="#04AA8E" d="M43.578,62.354c0,1.896-2.26,2.146-5.045,2.146s-5.045-0.249-5.045-2.146"/>
				</g>
				<g>
					<path fill="#F9BD82" d="M47.391,16.275c0,7.999-7.33,12.02-16.369,12.02c-9.041,0-16.373-4.021-16.373-12.02
						C14.648,8.274,21.98,0.5,31.021,0.5C40.061,0.5,47.391,8.274,47.391,16.275z"/>
					<path fill="#EDA366" d="M47.391,16.275c0,7.999-7.33,12.02-16.369,12.02c-9.041,0-16.373-4.021-16.373-12.02"/>
				</g>
				<g>
					<g>
						<circle fill="#113E49" cx="23.235" cy="18.153" r="1.464"/>
						<path d="M24.699,18.153c0,0.811-0.656,1.465-1.465,1.465s-1.463-0.654-1.463-1.465"/>
						<g>
							<path fill="#FFD3C5" d="M26.123,21.207c-0.078,0-0.158-0.028-0.219-0.091c-0.715-0.714-1.664-1.107-2.672-1.107H23.23
								c-1.008,0-1.955,0.394-2.666,1.106c-0.121,0.121-0.316,0.124-0.436,0.001c-0.121-0.117-0.125-0.312-0.004-0.434
								c0.83-0.831,1.932-1.29,3.105-1.29h0.002c1.176,0,2.279,0.456,3.111,1.288c0.119,0.119,0.119,0.318,0,0.436
								C26.283,21.179,26.205,21.207,26.123,21.207z"/>
						</g>
					</g>
					<g>
						<circle fill="#113E49" cx="38.806" cy="18.153" r="1.464"/>
						<path d="M37.342,18.153c0,0.811,0.654,1.465,1.465,1.465c0.809,0,1.463-0.654,1.463-1.465"/>
						<g>
							<path fill="#FFD3C5" d="M35.918,21.207c0.076,0,0.156-0.028,0.217-0.091c0.715-0.714,1.664-1.107,2.672-1.107h0.002
								c1.008,0,1.957,0.394,2.668,1.106c0.119,0.121,0.314,0.124,0.436,0.001c0.121-0.117,0.123-0.312,0.002-0.434
								c-0.826-0.831-1.932-1.29-3.105-1.29h-0.002c-1.174,0-2.277,0.456-3.111,1.288c-0.117,0.119-0.117,0.318,0,0.436
								C35.758,21.179,35.836,21.207,35.918,21.207z"/>
						</g>
					</g>
				</g>
			</g>
			<path fill="#AA1111" d="M34.631,21.374c0,0.461-1.617,2.023-3.609,2.023s-3.609-1.562-3.609-2.023
				c0-0.463,1.617-0.188,3.609-0.188S34.631,20.911,34.631,21.374z"/>
		</g>
		<g>
			<g>
				<path fill="#EDA366" d="M42.857,37.525c0.602-1.821-1.252-4.065-4.139-5.019c-2.883-0.951-17.57-4.153-18.174-2.337
					c-0.598,1.82,13.121,7.975,16.006,8.926C39.434,40.048,42.258,39.344,42.857,37.525z"/>
			</g>
			<g>
				<path fill="#F9BD82" d="M19.182,37.525c-0.602-1.821,1.252-4.065,4.139-5.019c2.883-0.951,17.57-4.153,18.174-2.337
					c0.598,1.82-13.121,7.975-16.006,8.926C22.605,40.048,19.781,39.344,19.182,37.525z"/>
			</g>
		</g>
		<path fill="#5F7277" d="M36.645,31.041c-0.109-0.417-0.184-0.814-0.242-1.2c-0.281,0.034-0.566,0.07-0.859,0.109
			c0.045,0.572,0.146,1.205,0.32,1.872c0.217,0.825,0.504,1.562,0.814,2.149c0.32-0.174,0.629-0.346,0.928-0.517
			C37.238,32.835,36.895,31.995,36.645,31.041z"/>
		<circle fill="#0698BF" cx="36.004" cy="31.042" r="1.73"/>
		<circle fill="#A3E1EF" cx="35.869" cy="30.845" r="0.969"/>
	</g>
	<path fill="#0AC4A9" d="M31.021,0.5c-7.982,0-14.625,6.062-16.072,12.989l15.555-4.906l-1.5,3l9-2.75l-1,2.375l5.5-2.875l4.285,4
		C44.883,5.903,38.555,0.5,31.021,0.5z"/>
	<g>
		
			<ellipse transform="matrix(0.1682 0.9858 -0.9858 0.1682 67.684 8.0136)" fill="#CC055F" cx="29.094" cy="44.111" rx="2.671" ry="1.345"/>
		<g>
			<g>
				
					<ellipse transform="matrix(0.1683 0.9857 -0.9857 0.1683 60.9367 20.9035)" fill="#AF095C" cx="18.081" cy="46.562" rx="8.594" ry="6.197"/>
			</g>
			<g>
				<path fill="#F29C11" d="M24.861,47.211c-2.625,0.447-4.482-3.682-5.104-7.32s1.164,0.067,3.787-0.382
					c2.625-0.448,4.438-2.653,5.059,0.985S27.486,46.762,24.861,47.211z"/>
				<path fill="#BC005E" d="M31.754,47.623c-0.809-1.344-1.809-2.329-2.893-2.991c1.334-1.451,2.436-3.331,2.816-5.192
					c0.818-3.977-5.508-0.379-8.133,0.069c-0.857,0.146-1.627-0.151-2.25-0.491c-0.35-0.257-0.715-0.472-1.09-0.643
					c-0.045-0.024-0.092-0.043-0.133-0.058c-0.865-0.369-1.779-0.508-2.695-0.353c-3.375,0.576-5.463,4.837-4.664,9.515
					s4.182,8.006,7.557,7.428c0.916-0.155,1.732-0.592,2.43-1.227c0.031-0.027,0.064-0.061,0.1-0.096
					c0.299-0.287,0.572-0.612,0.818-0.973c0.477-0.527,1.102-1.062,1.959-1.209C28.201,50.956,33.842,51.104,31.754,47.623z"/>
				<path fill="#D80579" d="M31.754,47.623c-0.809-1.344-1.809-2.329-2.893-2.991c1.334-1.451,2.436-3.331,2.816-5.192
					c0.818-3.977-5.508-0.379-8.133,0.069c-0.857,0.146-1.627-0.151-2.25-0.491c-0.35-0.257-0.715-0.472-1.09-0.643
					c-0.045-0.024-0.092-0.043-0.133-0.058c-0.865-0.369-1.779-0.508-2.695-0.353c-1.463,0.25-2.682,1.192-3.531,2.56l14.816,10.494
					C31.014,50.681,33.176,49.993,31.754,47.623z"/>
			</g>
			<g>
				<path d="M29.244,46.76c-0.721,0.125-0.863-1.127-0.986-1.849l-0.029-0.163c-0.123-0.725-0.402-1.952,0.32-2.075l15.971-2.054
					c0.721-0.123,1.408,0.362,1.529,1.085l0.027,0.164c0.125,0.722-0.361,1.408-1.084,1.529L29.244,46.76z"/>
				<path fill="#3A382D" d="M30.129,46.609c-0.721,0.123-0.863-1.128-0.986-1.851l-0.029-0.162c-0.123-0.724-0.402-1.951,0.32-2.075
					l15.969-2.055c0.723-0.121,1.408,0.364,1.531,1.087l0.027,0.162c0.123,0.724-0.361,1.408-1.084,1.531L30.129,46.609z"/>
				<path fill="#3A382D" d="M46.838,43.784c-0.721,0.123-1.406-0.36-1.531-1.084l-0.26-1.525c-0.123-0.724,0.361-1.408,1.084-1.531
					l5.498-0.054c0.766,0.031,1.43,0.113,1.531,1.085l0.012,0.137c0.25,1.779-1.375,0.854-2.1,0.977L46.838,43.784z"/>
			</g>
			<path fill="#D3D3D3" d="M18.955,49.562c-0.461,0.079-0.781,0.453-0.861-0.009l-0.992-5.817c-0.08-0.462,0.348-0.214,0.809-0.292
				l0,0c0.461-0.079,0.898,0.23,0.977,0.692l0.758,4.448C19.725,49.047,19.414,49.482,18.955,49.562L18.955,49.562z"/>
			<path fill="#E8E3DD" d="M19.289,49.505c-0.461,0.078-0.781,0.455-0.859-0.007l-0.994-5.819c-0.078-0.46,0.35-0.214,0.809-0.293
				l0,0c0.463-0.076,0.898,0.232,0.979,0.693l0.758,4.449C20.061,48.989,19.75,49.426,19.289,49.505L19.289,49.505z"/>
			<g>
				<g>
					<g>
						<path fill="#CC055F" d="M51.965,39.351c-0.154,0.002-0.283-0.125-0.285-0.278l0,0c-0.002-0.157,0.125-0.285,0.281-0.287
							l0.189-0.003c0.154-0.002,0.285,0.124,0.285,0.279l0,0c0.002,0.158-0.123,0.286-0.281,0.287L51.965,39.351z"/>
						<path fill="#CC055F" d="M50.834,39.364c-0.158,0.002-0.287-0.125-0.289-0.281l0,0c0-0.156,0.125-0.285,0.281-0.286
							l0.189-0.003c0.156-0.001,0.285,0.125,0.287,0.281l0,0c0.002,0.156-0.125,0.285-0.281,0.286L50.834,39.364z"/>
						<path fill="#CC055F" d="M49.699,39.375c-0.156,0.003-0.285-0.122-0.285-0.278l0,0c-0.002-0.158,0.123-0.286,0.277-0.287
							l0.191-0.002c0.156-0.002,0.285,0.123,0.287,0.279l0,0c0,0.158-0.125,0.285-0.281,0.287L49.699,39.375z"/>
					</g>
				</g>
				<g>
					<g>
						<path fill="#CC055F" d="M48.6,39.334c-0.156,0.001-0.285-0.125-0.285-0.28l0,0c-0.002-0.157,0.123-0.285,0.279-0.285
							l0.189-0.002c0.156-0.004,0.285,0.122,0.285,0.278l0,0c0.004,0.157-0.123,0.284-0.279,0.287L48.6,39.334z"/>
						<path fill="#CC055F" d="M47.465,39.346c-0.154,0.002-0.283-0.124-0.285-0.28l0,0c-0.002-0.155,0.123-0.283,0.281-0.287
							l0.188-0.002c0.158,0,0.287,0.124,0.287,0.282l0,0c0.002,0.155-0.125,0.284-0.281,0.285L47.465,39.346z"/>
						<path fill="#CC055F" d="M46.332,39.357c-0.156,0.002-0.283-0.123-0.285-0.279l0,0c-0.002-0.157,0.121-0.284,0.279-0.286
							l0.189-0.002c0.156-0.002,0.285,0.123,0.285,0.279l0,0c0.004,0.156-0.123,0.285-0.279,0.287L46.332,39.357z"/>
					</g>
				</g>
			</g>
			<path fill="#F29C11" d="M45.408,42.845c-0.059,0.01-0.115-0.029-0.125-0.09l-0.277-1.625c-0.01-0.059,0.029-0.116,0.088-0.125
				l0,0c0.059-0.01,0.115,0.029,0.125,0.09l0.279,1.625C45.506,42.779,45.467,42.834,45.408,42.845L45.408,42.845z"/>
			<circle fill="#DDD3C3" cx="43.004" cy="42.309" r="0.216"/>
			<circle fill="#DDD3C3" cx="40.052" cy="42.812" r="0.216"/>
			<circle fill="#DDD3C3" cx="33.892" cy="43.864" r="0.217"/>
			<g>
				<path fill="#DDD3C3" d="M37.189,43.06c-0.119,0.021-0.23-0.061-0.252-0.18c-0.018-0.116,0.059-0.229,0.178-0.249
					c0.119-0.019,0.23,0.06,0.25,0.178S37.307,43.038,37.189,43.06z"/>
				<circle fill="#DDD3C3" cx="37.306" cy="43.744" r="0.218"/>
			</g>
		</g>
		<g>
			<path fill="#3A382D" d="M22.107,48.528c-0.176,0.029-0.34-0.087-0.369-0.261l-0.773-4.524c-0.029-0.174,0.088-0.34,0.262-0.37
				l1.266-0.216c0.174-0.029,0.34,0.087,0.371,0.262l0.77,4.523c0.031,0.175-0.088,0.34-0.262,0.369L22.107,48.528z"/>
			<g>
				<circle fill="#E8E3DD" cx="22.003" cy="44.105" r="0.129"/>
				<circle fill="#E8E3DD" cx="22.121" cy="44.801" r="0.128"/>
				<circle fill="#E8E3DD" cx="22.24" cy="45.495" r="0.129"/>
				<circle fill="#E8E3DD" cx="22.359" cy="46.191" r="0.128"/>
				<circle fill="#E8E3DD" cx="22.478" cy="46.885" r="0.127"/>
				<circle fill="#E8E3DD" cx="22.596" cy="47.582" r="0.128"/>
			</g>
		</g>
		<g>
			<path fill="#3A382D" d="M24.826,48.063c-0.176,0.031-0.34-0.087-0.371-0.262l-0.771-4.522c-0.031-0.175,0.086-0.341,0.262-0.37
				l1.264-0.215c0.174-0.031,0.34,0.087,0.371,0.261l0.771,4.523c0.029,0.175-0.088,0.339-0.262,0.37L24.826,48.063z"/>
			<g>
				<circle fill="#E8E3DD" cx="24.721" cy="43.641" r="0.128"/>
				<circle fill="#E8E3DD" cx="24.84" cy="44.336" r="0.128"/>
				<circle fill="#E8E3DD" cx="24.958" cy="45.032" r="0.128"/>
				<circle fill="#E8E3DD" cx="25.076" cy="45.728" r="0.129"/>
				<circle fill="#E8E3DD" cx="25.195" cy="46.421" r="0.128"/>
				<circle fill="#E8E3DD" cx="25.314" cy="47.117" r="0.128"/>
			</g>
		</g>
	</g>
</g>
</svg>
