<?xml version="1.0" encoding="utf-8"?>
<!-- Generator: Adobe Illustrator 16.0.0, SVG Export Plug-In . SVG Version: 6.00 Build 0)  -->
<!DOCTYPE svg PUBLIC "-//W3C//DTD SVG 1.1//EN" "http://www.w3.org/Graphics/SVG/1.1/DTD/svg11.dtd">
<svg version="1.1" id="Layer_1" xmlns="http://www.w3.org/2000/svg" xmlns:xlink="http://www.w3.org/1999/xlink" x="0px" y="0px"
	 width="65px" height="65px" viewBox="0 0 65 65" enable-background="new 0 0 65 65" xml:space="preserve">
<g>
	<g>
		<g>
			<path fill="#D1B302" d="M31.105,26.369c1.273,1.432,0.465,4.227-1.805,6.248c-2.27,2.018-14.475,10.795-15.75,9.365
				c-1.271-1.434,8.873-12.531,11.143-14.549C26.961,25.414,29.832,24.938,31.105,26.369z"/>
			<path fill="#D1B302" d="M33.895,26.369c-1.273,1.432-0.465,4.227,1.805,6.248c2.27,2.018,14.475,10.795,15.75,9.365
				c1.271-1.434-8.873-12.531-11.143-14.549C38.039,25.414,35.168,24.938,33.895,26.369z"/>
			<g>
				<g>
					<g>
						<g>
							<path fill="#B79904" d="M44.748,46.07c0,2.477-2.008,15.828-4.486,15.828c-2.475,0-4.482-13.352-4.482-15.828
								c0-2.475,2.008-4.484,4.482-4.484C42.74,41.586,44.748,43.596,44.748,46.07z"/>
							<path fill="#B79904" d="M29.473,46.445c0,2.477-2.008,15.828-4.486,15.828c-2.475,0-4.482-13.352-4.482-15.828
								c0-2.475,2.008-4.484,4.482-4.484C27.465,41.961,29.473,43.971,29.473,46.445z"/>
							<g>
								<g>
									<path fill="#CE1111" d="M45.15,40.521c0,16.037-5.662,10.697-12.65,10.697c-6.986,0-12.65,5.34-12.65-10.697
										c0-9.17,5.666-16.604,12.65-16.604C39.486,23.918,45.15,31.352,45.15,40.521z"/>
									<path fill="#D1B302" d="M45.15,40.521c0,16.037-5.662,10.697-12.65,10.697c-6.986,0-12.65,5.34-12.65-10.697
										c0-9.17,5.666-16.604,12.65-16.604C39.486,23.918,45.15,31.352,45.15,40.521z"/>
									<path fill="#EACE00" d="M32.5,23.918c-6.764,0-12.274,6.977-12.617,15.744c0.446,13.695,5.923,8.807,12.617,8.807
										c6.696,0,12.17,4.889,12.617-8.807C44.774,30.895,39.265,23.918,32.5,23.918z"/>
									<g>
										<path fill="#232728" d="M30.033,62.354c0,1.896-2.26,2.146-5.045,2.146s-5.045-0.25-5.045-2.146s2.26-4.508,5.045-4.508
											S30.033,60.457,30.033,62.354z"/>
										<path d="M30.033,62.354c0,1.896-2.26,2.146-5.045,2.146s-5.045-0.25-5.045-2.146"/>
									</g>
									<g>
										<path fill="#232728" d="M45.059,62.354c0,1.896-2.26,2.146-5.045,2.146s-5.045-0.25-5.045-2.146s2.26-4.508,5.045-4.508
											S45.059,60.457,45.059,62.354z"/>
										<path d="M45.059,62.354c0,1.896-2.26,2.146-5.045,2.146s-5.045-0.25-5.045-2.146"/>
									</g>
									<g>
										<path fill="#D1B302" d="M22.474,30.426c2.772,1.404,6.245,2.119,10.028,2.119c3.781,0,7.254-0.715,10.025-2.119
											c-2.312-3.949-5.938-6.508-10.027-6.508C28.412,23.918,24.785,26.475,22.474,30.426z"/>
									</g>
									<polygon fill="#FFFFFF" points="38.334,26.832 32.5,39.5 26.666,26.832 32.5,20.998 									"/>
									<path fill="#EAE5DF" d="M36.112,24.61c-1.144-0.448-2.356-0.692-3.612-0.692s-2.469,0.243-3.613,0.692l-2.221,2.222
										l2.539,5.514c1.066,0.127,2.164,0.199,3.297,0.199c1.13,0,2.229-0.072,3.293-0.199l2.539-5.514L36.112,24.61z"/>
									<g>
										<path fill="#F7CCB0" d="M48.871,16.275c0,7.998-7.33,12.02-16.369,12.02c-9.041,0-16.373-4.021-16.373-12.02
											c0-8.002,7.332-15.775,16.373-15.775C41.541,0.5,48.871,8.273,48.871,16.275z"/>
										<path fill="#F7BC8F" d="M48.871,16.275c0,7.998-7.33,12.02-16.369,12.02c-9.041,0-16.373-4.021-16.373-12.02
											c0-8.002,7.332-13.36,16.373-13.36C41.541,2.915,48.871,8.273,48.871,16.275z"/>
										<path fill="#EAAF88" d="M48.871,16.275c0,7.998-7.33,12.02-16.369,12.02c-9.041,0-16.373-4.021-16.373-12.02"/>
									</g>
								</g>
							</g>
						</g>
					</g>
				</g>
				<g>
					<g>
						<circle fill="#113E49" cx="24.716" cy="17.457" r="1.464"/>
						<path d="M26.18,17.457c0,0.811-0.656,1.465-1.465,1.465s-1.463-0.654-1.463-1.465"/>
						<g>
							<path fill="#FFD3C5" d="M27.604,20.512c-0.078,0-0.158-0.029-0.219-0.092c-0.715-0.713-1.664-1.107-2.672-1.107h-0.002
								c-1.008,0-1.955,0.395-2.666,1.107c-0.121,0.121-0.316,0.123-0.436,0c-0.121-0.117-0.125-0.312-0.004-0.434
								c0.83-0.83,1.932-1.289,3.105-1.289h0.002c1.176,0,2.279,0.455,3.111,1.287c0.119,0.119,0.119,0.318,0,0.436
								C27.764,20.482,27.686,20.512,27.604,20.512z"/>
						</g>
					</g>
					<g>
						<circle fill="#113E49" cx="40.286" cy="17.457" r="1.464"/>
						<path d="M38.822,17.457c0,0.811,0.654,1.465,1.465,1.465c0.809,0,1.463-0.654,1.463-1.465"/>
						<g>
							<path fill="#FFD3C5" d="M37.398,20.512c0.076,0,0.156-0.029,0.217-0.092c0.715-0.713,1.664-1.107,2.672-1.107h0.002
								c1.008,0,1.957,0.395,2.668,1.107c0.119,0.121,0.314,0.123,0.436,0c0.121-0.117,0.123-0.312,0.002-0.434
								c-0.826-0.83-1.932-1.289-3.105-1.289h-0.002c-1.174,0-2.277,0.455-3.111,1.287c-0.117,0.119-0.117,0.318,0,0.436
								C37.238,20.482,37.316,20.512,37.398,20.512z"/>
						</g>
					</g>
				</g>
			</g>
		</g>
	</g>
	<g>
		<g>
			<g>
				<path fill="#845824" d="M28.043,21.849h-7.211c-1.427,0-2.588-1.161-2.588-2.588v-3.903c0-1.427,1.161-2.588,2.588-2.588h7.211
					c1.427,0,2.588,1.161,2.588,2.588v3.903C30.631,20.688,29.47,21.849,28.043,21.849z M20.832,14.77
					c-0.324,0-0.588,0.264-0.588,0.588v3.903c0,0.324,0.264,0.588,0.588,0.588h7.211c0.324,0,0.588-0.264,0.588-0.588v-3.903
					c0-0.324-0.264-0.588-0.588-0.588H20.832z"/>
			</g>
			<g>
				<path fill="#845824" d="M18.994,18.309h-3.875c-0.553,0-1-0.447-1-1s0.447-1,1-1h3.875c0.553,0,1,0.447,1,1
					S19.547,18.309,18.994,18.309z"/>
			</g>
		</g>
		<g>
			<g>
				<path fill="#845824" d="M44.168,21.848h-7.211c-1.427,0-2.588-1.161-2.588-2.588v-3.902c0-1.427,1.161-2.588,2.588-2.588h7.211
					c1.427,0,2.588,1.161,2.588,2.588v3.902C46.756,20.687,45.595,21.848,44.168,21.848z M36.957,14.77
					c-0.324,0-0.588,0.264-0.588,0.588v3.902c0,0.324,0.264,0.588,0.588,0.588h7.211c0.324,0,0.588-0.264,0.588-0.588v-3.902
					c0-0.324-0.264-0.588-0.588-0.588H36.957z"/>
			</g>
			<g>
				<path fill="#845824" d="M49.881,18.309h-3.875c-0.553,0-1-0.447-1-1s0.447-1,1-1h3.875c0.553,0,1,0.447,1,1
					S50.434,18.309,49.881,18.309z"/>
			</g>
		</g>
		<g>
			<path fill="#845824" d="M35.369,18.02h-5.562c-0.553,0-1-0.447-1-1s0.447-1,1-1h5.562c0.553,0,1,0.447,1,1
				S35.922,18.02,35.369,18.02z"/>
		</g>
	</g>
	<path fill="#FFFFFF" d="M33.166,48.916c0,0.367-0.297,0.666-0.666,0.666l0,0c-0.367,0-0.666-0.299-0.666-0.666V38.082
		c0-0.369,0.299-0.667,0.666-0.667l0,0c0.369,0,0.666,0.298,0.666,0.667V48.916z"/>
	<path fill="#513715" d="M34.32,21.566h-3.642c-1.685,0-3.051,1.367-3.051,3.051v2.373c0,1.685,1.366,3.05,3.051,3.05h3.642
		c1.688,0,3.051-1.365,3.051-3.05v-2.373C37.371,22.934,36.008,21.566,34.32,21.566z M35.368,25.994
		c0,0.992-0.804,1.796-1.796,1.796h-2.145c-0.992,0-1.797-0.804-1.797-1.796v-1.396c0-0.991,0.805-1.797,1.797-1.797h2.145
		c0.992,0,1.796,0.806,1.796,1.797V25.994z"/>
	<g>
		<g>
			<path fill="#227FEF" d="M16.791,42.5c0,1.52-1.23,2.75-2.75,2.75l0,0c-1.52,0-2.75-1.23-2.75-2.75l0,0
				c0-1.52,1.23-2.75,2.75-2.75l0,0C15.561,39.75,16.791,40.98,16.791,42.5L16.791,42.5z"/>
			<path fill="#0A5BDD" d="M14.041,39.75L14.041,39.75c1.52,0,2.75,1.23,2.75,2.75l0,0c0,1.52-1.23,2.75-2.75,2.75l0,0"/>
		</g>
		<g>
			<path fill="#227FEF" d="M48.207,42.5c0-1.521,1.23-2.752,2.75-2.752l0,0c1.52,0,2.752,1.23,2.752,2.752l0,0
				c0,1.518-1.232,2.75-2.752,2.75l0,0C49.438,45.25,48.207,44.018,48.207,42.5L48.207,42.5z"/>
			<path fill="#0A5BDD" d="M50.957,45.25L50.957,45.25c-1.52,0-2.75-1.232-2.75-2.75l0,0c0-1.521,1.23-2.752,2.75-2.752l0,0"/>
		</g>
	</g>
</g>
</svg>
