<?xml version="1.0" encoding="utf-8"?>
<!-- Generator: Adobe Illustrator 16.0.0, SVG Export Plug-In . SVG Version: 6.00 Build 0)  -->
<!DOCTYPE svg PUBLIC "-//W3C//DTD SVG 1.1//EN" "http://www.w3.org/Graphics/SVG/1.1/DTD/svg11.dtd">
<svg version="1.1" id="Layer_1" xmlns="http://www.w3.org/2000/svg" xmlns:xlink="http://www.w3.org/1999/xlink" x="0px" y="0px"
	 width="65px" height="65px" viewBox="0 0 65 65" enable-background="new 0 0 65 65" xml:space="preserve">
<g>
	<path fill="#FF6700" d="M31.105,26.369c1.273,1.432,0.465,4.227-1.805,6.248c-2.27,2.018-14.475,10.795-15.75,9.365
		c-1.271-1.434,8.873-12.531,11.143-14.549C26.961,25.414,29.832,24.938,31.105,26.369z"/>
	<path fill="#FF6700" d="M33.895,26.369c-1.273,1.432-0.465,4.227,1.805,6.248c2.27,2.018,14.475,10.795,15.75,9.365
		c1.271-1.434-8.873-12.531-11.143-14.549C38.039,25.414,35.168,24.938,33.895,26.369z"/>
	<g>
		<g>
			<g>
				<g>
					<path fill="#FF4800" d="M44.748,46.07c0,2.477-2.008,15.828-4.486,15.828c-2.475,0-4.482-13.352-4.482-15.828
						c0-2.475,2.008-4.484,4.482-4.484C42.74,41.586,44.748,43.596,44.748,46.07z"/>
					<path fill="#FF4800" d="M29.473,46.445c0,2.477-2.008,15.828-4.486,15.828c-2.475,0-4.482-13.352-4.482-15.828
						c0-2.475,2.008-4.484,4.482-4.484C27.465,41.961,29.473,43.971,29.473,46.445z"/>
					<g>
						<g>
							<path fill="#CE1111" d="M45.15,40.521c0,16.037-5.662,10.697-12.65,10.697c-6.986,0-12.65,5.34-12.65-10.697
								c0-9.17,5.666-16.604,12.65-16.604C39.486,23.918,45.15,31.352,45.15,40.521z"/>
							<path fill="#FF6700" d="M45.15,40.521c0,16.037-5.662,10.697-12.65,10.697c-6.986,0-12.65,5.34-12.65-10.697
								c0-9.17,5.666-16.604,12.65-16.604C39.486,23.918,45.15,31.352,45.15,40.521z"/>
							<path fill="#FF7900" d="M32.5,23.918c-6.764,0-12.274,6.977-12.617,15.744c0.446,13.695,5.923,8.807,12.617,8.807
								c6.696,0,12.17,4.889,12.617-8.807C44.774,30.895,39.265,23.918,32.5,23.918z"/>
							<g>
								<path fill="#9B4E1B" d="M30.033,62.354c0,1.896-2.26,2.146-5.045,2.146s-5.045-0.25-5.045-2.146s2.26-4.508,5.045-4.508
									S30.033,60.457,30.033,62.354z"/>
								<path fill="#82370D" d="M30.033,62.354c0,1.896-2.26,2.146-5.045,2.146s-5.045-0.25-5.045-2.146"/>
							</g>
							<g>
								<path fill="#9B4E1B" d="M45.059,62.354c0,1.896-2.26,2.146-5.045,2.146s-5.045-0.25-5.045-2.146s2.26-4.508,5.045-4.508
									S45.059,60.457,45.059,62.354z"/>
								<path fill="#82370D" d="M45.059,62.354c0,1.896-2.26,2.146-5.045,2.146s-5.045-0.25-5.045-2.146"/>
							</g>
							<g>
								<path fill="#FF6700" d="M22.474,30.426c2.772,1.404,6.245,2.119,10.028,2.119c3.781,0,7.254-0.715,10.025-2.119
									c-2.312-3.949-5.938-6.508-10.027-6.508C28.412,23.918,24.785,26.475,22.474,30.426z"/>
							</g>
							<g>
								<path fill="#6D4A27" d="M48.871,16.275c0,7.998-7.33,12.02-16.369,12.02c-9.041,0-16.373-4.021-16.373-12.02
									c0-8.002,7.332-15.775,16.373-15.775C41.541,0.5,48.871,8.273,48.871,16.275z"/>
								<path fill="#F9A88F" d="M48.871,16.275c0,7.998-7.33,12.02-16.369,12.02c-9.041,0-16.373-4.021-16.373-12.02
									c0-8.002,7.332-13.777,16.373-13.777C41.541,2.498,48.871,8.273,48.871,16.275z"/>
								<path fill="#ED927A" d="M48.871,16.275c0,7.998-7.33,12.02-16.369,12.02c-9.041,0-16.373-4.021-16.373-12.02"/>
								<path fill="#777236" d="M32.502,17.582c-6.783,0-13.603,3.199-16.087-1.307h-0.286c0,7.998,7.332,12.02,16.373,12.02
									c9.039,0,16.369-4.021,16.369-12.02h-0.286C46.1,20.781,39.282,17.582,32.502,17.582z"/>
								<path fill="#66602A" d="M32.502,26.127c-8.179,0-14.94-3.303-16.158-9.852h-0.215c0,7.998,7.332,12.02,16.373,12.02
									c9.039,0,16.369-4.021,16.369-12.02h-0.215C47.438,22.824,40.68,26.127,32.502,26.127z"/>
							</g>
						</g>
					</g>
				</g>
			</g>
		</g>
		<g>
			<g>
				<circle fill="#113E49" cx="24.716" cy="14.332" r="1.464"/>
				<path d="M26.18,14.332c0,0.811-0.656,1.465-1.465,1.465s-1.463-0.654-1.463-1.465"/>
				<g>
					<path fill="#FFD3C5" d="M27.604,17.387c-0.078,0-0.158-0.029-0.219-0.092c-0.715-0.713-1.664-1.107-2.672-1.107h-0.002
						c-1.008,0-1.955,0.395-2.666,1.107c-0.121,0.121-0.316,0.123-0.436,0c-0.121-0.117-0.125-0.312-0.004-0.434
						c0.83-0.83,1.932-1.289,3.105-1.289h0.002c1.176,0,2.279,0.455,3.111,1.287c0.119,0.119,0.119,0.318,0,0.436
						C27.764,17.357,27.686,17.387,27.604,17.387z"/>
				</g>
			</g>
			<g>
				<circle fill="#113E49" cx="40.286" cy="14.332" r="1.464"/>
				<path d="M38.822,14.332c0,0.811,0.654,1.465,1.465,1.465c0.809,0,1.463-0.654,1.463-1.465"/>
				<g>
					<path fill="#FFD3C5" d="M37.398,17.387c0.076,0,0.156-0.029,0.217-0.092c0.715-0.713,1.664-1.107,2.672-1.107h0.002
						c1.008,0,1.957,0.395,2.668,1.107c0.119,0.121,0.314,0.123,0.436,0c0.121-0.117,0.123-0.312,0.002-0.434
						c-0.826-0.83-1.932-1.289-3.105-1.289h-0.002c-1.174,0-2.277,0.455-3.111,1.287c-0.117,0.119-0.117,0.318,0,0.436
						C37.238,17.357,37.316,17.387,37.398,17.387z"/>
				</g>
			</g>
		</g>
	</g>
	<path fill="#777236" d="M39.19,22.08c0,1.75-2.477,3.168-4.226,3.168h-4.932c-1.749,0-4.224-1.418-4.224-3.168l1.056-4.578
		c0-1.752,1.419-3.17,3.168-3.17h4.932c1.749,0,3.169,1.418,3.169,3.17L39.19,22.08z"/>
	<path fill="#66602A" d="M37.198,24.941c0,1.699-1.739,3.078-2.967,3.078h-3.464c-1.229,0-2.966-1.379-2.966-3.078l0.74-4.447
		c0-1.699,0.997-3.08,2.226-3.08h3.464c1.228,0,2.225,1.381,2.225,3.08L37.198,24.941z"/>
	<path fill="#423C14" d="M35.537,23.092c0,1.098-1.124,1.99-1.918,1.99H31.38c-0.795,0-1.918-0.893-1.918-1.99l0.479-2.877
		c0-1.098,0.645-1.99,1.439-1.99h2.239c0.794,0,1.438,0.893,1.438,1.99L35.537,23.092z"/>
	<path fill="#262109" d="M33.619,18.225H31.38c-0.795,0-1.439,0.893-1.439,1.99l-0.398,2.398c0.26,0.865,1.164,1.51,1.838,1.51
		h2.239c0.673,0,1.577-0.645,1.839-1.51l-0.4-2.398C35.058,19.117,34.413,18.225,33.619,18.225z"/>
	<g>
		<path fill="#777236" d="M30.812,23.354c-0.027,0.111-0.139,0.178-0.249,0.152l0,0c-0.11-0.027-0.177-0.139-0.15-0.25l0.94-3.834
			c0.027-0.111,0.139-0.178,0.249-0.15l0,0c0.11,0.027,0.178,0.137,0.149,0.248L30.812,23.354z"/>
		<path fill="#777236" d="M34.186,23.354c0.028,0.111,0.14,0.178,0.25,0.152l0,0c0.11-0.027,0.177-0.139,0.15-0.25l-0.941-3.834
			c-0.027-0.111-0.138-0.178-0.248-0.15l0,0c-0.111,0.027-0.178,0.137-0.149,0.248L34.186,23.354z"/>
	</g>
	<path fill="#777236" d="M32.688,23.674c0,0.104-0.084,0.188-0.188,0.188l0,0c-0.104,0-0.188-0.084-0.188-0.188v-4.041
		c0-0.104,0.084-0.188,0.188-0.188l0,0c0.104,0,0.188,0.084,0.188,0.188V23.674z"/>
</g>
</svg>
