<?xml version="1.0" encoding="utf-8"?>
<!-- Generator: Adobe Illustrator 16.0.0, SVG Export Plug-In . SVG Version: 6.00 Build 0)  -->
<!DOCTYPE svg PUBLIC "-//W3C//DTD SVG 1.1//EN" "http://www.w3.org/Graphics/SVG/1.1/DTD/svg11.dtd">
<svg version="1.1" id="Layer_1" xmlns="http://www.w3.org/2000/svg" xmlns:xlink="http://www.w3.org/1999/xlink" x="0px" y="0px"
	 width="65px" height="65px" viewBox="0 0 65 65" enable-background="new 0 0 65 65" xml:space="preserve">
<g>
	<g>
		<g>
			<g>
				<g>
					<g>
						<path fill="#890729" d="M37.86,27.729c1.431-1.273,4.227-0.465,6.25,1.805c2.017,2.27,10.793,14.475,9.364,15.75
							c-1.434,1.271-12.533-8.873-14.551-11.143C36.906,31.874,36.43,29.003,37.86,27.729z"/>
						<g>
							<path fill="#A81333" d="M34.827,29.874c-0.113-1.912-2.662-3.318-5.695-3.143c-3.032,0.178-17.867,2.604-17.762,4.516
								c0.117,1.912,15.139,2.588,18.17,2.41C32.569,33.481,34.937,31.786,34.827,29.874z"/>
						</g>
						<g>
							<path fill="#0C44C1" d="M30.471,46.468c0,2.475-2.008,15.826-4.485,15.826c-2.476,0-4.483-13.352-4.483-15.826
								c0-2.477,2.008-4.484,4.483-4.484C28.463,41.983,30.471,43.991,30.471,46.468z"/>
							<path fill="#0C44C1" d="M45.496,46.468c0,2.475-2.009,15.826-4.486,15.826c-2.476,0-4.481-13.352-4.481-15.826
								c0-2.477,2.006-4.484,4.481-4.484C43.487,41.983,45.496,43.991,45.496,46.468z"/>
						</g>
						<path fill="#A81333" d="M46.148,40.542c0,16.039-5.661,10.697-12.65,10.697c-6.986,0-12.65,5.342-12.65-10.697
							c0-9.17,5.666-16.602,12.65-16.602C40.485,23.94,46.148,31.372,46.148,40.542z"/>
						<g>
							<rect x="26.623" y="26.437" fill="#B1C2C4" width="1.75" height="9.668"/>
							<rect x="38.623" y="26.437" fill="#B1C2C4" width="1.75" height="9.668"/>
						</g>
						<g>
							<path fill="#0A234F" d="M31.031,62.376c0,1.896-2.261,2.145-5.044,2.145c-2.786,0-5.046-0.248-5.046-2.145
								c0-1.898,2.26-4.508,5.046-4.508C28.771,57.868,31.031,60.478,31.031,62.376z"/>
							<path fill="#031530" d="M31.031,62.376c0,1.896-2.261,2.145-5.044,2.145c-2.786,0-5.046-0.248-5.046-2.145"/>
						</g>
						<g>
							<path fill="#0A234F" d="M46.057,62.376c0,1.896-2.26,2.145-5.045,2.145s-5.045-0.248-5.045-2.145
								c0-1.898,2.26-4.508,5.045-4.508S46.057,60.478,46.057,62.376z"/>
							<path fill="#031530" d="M46.057,62.376c0,1.896-2.26,2.145-5.045,2.145s-5.045-0.248-5.045-2.145"/>
						</g>
						<g>
							<path fill="#B1C2C4" d="M49.869,16.296c0,8-7.331,12.02-16.37,12.02c-9.04,0-16.372-4.02-16.372-12.02
								S24.459,0.521,33.499,0.521C42.538,0.521,49.869,8.296,49.869,16.296z"/>
							<path fill="#BC8158" d="M49.869,16.296c0,8-7.331,12.02-16.37,12.02c-9.04,0-16.372-4.02-16.372-12.02"/>
						</g>
						<g>
							<g>
								<circle fill="#113E49" cx="25.755" cy="19.009" r="1.464"/>
								<path d="M27.219,19.009c0,0.811-0.656,1.465-1.465,1.465s-1.463-0.654-1.463-1.465"/>
								<g>
									<path fill="#E5A376" d="M28.643,22.062c-0.078,0-0.157-0.027-0.219-0.09c-0.715-0.715-1.664-1.107-2.673-1.107H25.75
										c-1.008,0-1.955,0.393-2.667,1.105c-0.12,0.121-0.315,0.125-0.435,0.002c-0.12-0.117-0.125-0.312-0.004-0.434
										c0.83-0.832,1.932-1.291,3.105-1.291h0.001c1.177,0,2.28,0.457,3.112,1.289c0.119,0.119,0.119,0.318,0,0.436
										C28.803,22.034,28.725,22.062,28.643,22.062z"/>
								</g>
							</g>
							<g>
								<circle fill="#113E49" cx="41.325" cy="19.009" r="1.463"/>
								<path d="M39.862,19.009c0,0.811,0.653,1.465,1.464,1.465c0.809,0,1.462-0.654,1.462-1.465"/>
								<g>
									<path fill="#E5A376" d="M38.437,22.062c0.077,0,0.157-0.027,0.217-0.09c0.716-0.715,1.666-1.107,2.673-1.107h0.002
										c1.007,0,1.957,0.393,2.668,1.105c0.119,0.121,0.314,0.125,0.436,0.002c0.12-0.117,0.122-0.312,0.001-0.434
										c-0.825-0.832-1.931-1.291-3.104-1.291h-0.002c-1.173,0-2.277,0.457-3.111,1.289c-0.117,0.119-0.117,0.318,0,0.436
										C38.278,22.034,38.354,22.062,38.437,22.062z"/>
								</g>
							</g>
						</g>
					</g>
				</g>
			</g>
		</g>
	</g>
	<path d="M33.498,21.604c-3.973,0-7.247,2.42-7.74,5.553c0.805,0.27,1.655,0.486,2.535,0.66c0.839-2.324,2.852-3.963,5.205-3.963
		s4.367,1.639,5.206,3.965c0.879-0.176,1.729-0.393,2.533-0.66C40.744,24.026,37.471,21.604,33.498,21.604z"/>
	<path d="M23.396,21.741c-1.952-1.791-4.219-2.676-5.892-2.486c1.078,4.07,4.423,6.768,8.896,8.094
		C26.418,25.673,25.326,23.513,23.396,21.741z"/>
	<path d="M49.498,19.231c-1.635-0.047-3.74,0.832-5.569,2.51c-1.892,1.736-2.983,3.85-3.008,5.512
		C45.24,25.892,48.452,23.218,49.498,19.231z"/>
	<g>
		<ellipse fill="#B1C2C4" cx="21.623" cy="3.167" rx="4.75" ry="2.688"/>
		<ellipse fill="#B1C2C4" cx="26.373" cy="3.167" rx="4.75" ry="2.688"/>
		<ellipse fill="#B1C2C4" cx="31.123" cy="3.167" rx="4.75" ry="2.688"/>
		<ellipse fill="#B1C2C4" cx="35.873" cy="3.167" rx="4.75" ry="2.688"/>
		<ellipse fill="#B1C2C4" cx="40.623" cy="3.167" rx="4.75" ry="2.688"/>
		<ellipse fill="#B1C2C4" cx="45.373" cy="3.167" rx="4.75" ry="2.688"/>
	</g>
	<path fill="#B1C2C4" d="M20.848,40.542c0,16.039,5.664,12.708,12.65,12.708c6.989,0,12.65,3.331,12.65-12.708
		c0-2.096-0.309-4.092-0.849-5.938H21.695C21.156,36.45,20.848,38.446,20.848,40.542z"/>
</g>
</svg>
