<?xml version="1.0" encoding="utf-8"?>
<!-- Generator: Adobe Illustrator 16.0.0, SVG Export Plug-In . SVG Version: 6.00 Build 0)  -->
<!DOCTYPE svg PUBLIC "-//W3C//DTD SVG 1.1//EN" "http://www.w3.org/Graphics/SVG/1.1/DTD/svg11.dtd">
<svg version="1.1" id="Layer_1" xmlns="http://www.w3.org/2000/svg" xmlns:xlink="http://www.w3.org/1999/xlink" x="0px" y="0px"
	 width="65px" height="65px" viewBox="0 0 65 65" enable-background="new 0 0 65 65" xml:space="preserve">
<g>
	<g>
		<path fill="#13A9D1" d="M36.061,33.266c1.432,1.273,4.228,0.465,6.249-1.805c2.018-2.27,10.793-14.475,9.365-15.75
			c-1.434-1.271-12.532,8.873-14.55,11.143C35.107,29.121,34.63,31.992,36.061,33.266z"/>
		<g>
			<g>
				<g>
					<path fill="#232728" d="M29.2,46.446c0,2.476-2.008,15.827-4.486,15.827c-2.475,0-4.482-13.352-4.482-15.827
						s2.008-4.484,4.482-4.484C27.192,41.962,29.2,43.971,29.2,46.446z"/>
					<path fill="#232728" d="M44.225,46.446c0,2.476-2.008,15.827-4.486,15.827c-2.475,0-4.482-13.352-4.482-15.827
						s2.008-4.484,4.482-4.484C42.217,41.962,44.225,43.971,44.225,46.446z"/>
				</g>
				<path fill="#11D3C0" d="M44.877,40.521c0,16.038-5.663,10.697-12.65,10.697c-6.986,0-12.65,5.341-12.65-10.697
					c0-9.17,5.666-16.604,12.65-16.604C39.213,23.918,44.877,31.352,44.877,40.521z"/>
				<path fill="#13A9D1" d="M32.227,46.969c-6.553,0-11.943,4.698-12.586-7.955c-0.043,0.439-0.064,0.939-0.064,1.508
					c0,16.038,5.664,10.697,12.65,10.697c6.987,0,12.65,5.341,12.65-10.697c0-0.568-0.021-1.068-0.064-1.508
					C44.169,51.667,38.782,46.969,32.227,46.969z"/>
				<g>
					<path fill="#11D3C0" d="M29.76,62.354c0,1.896-2.26,2.146-5.046,2.146c-2.784,0-5.045-0.249-5.045-2.146
						c0-1.897,2.261-4.508,5.045-4.508C27.5,57.847,29.76,60.457,29.76,62.354z"/>
					<path fill="#13A9D1" d="M29.76,62.354c0,1.896-2.26,2.146-5.046,2.146c-2.784,0-5.045-0.249-5.045-2.146"/>
				</g>
				<g>
					<path fill="#11D3C0" d="M44.785,62.354c0,1.896-2.258,2.146-5.044,2.146c-2.785,0-5.045-0.249-5.045-2.146
						c0-1.897,2.26-4.508,5.045-4.508C42.527,57.847,44.785,60.457,44.785,62.354z"/>
					<path fill="#13A9D1" d="M44.785,62.354c0,1.896-2.258,2.146-5.044,2.146c-2.785,0-5.045-0.249-5.045-2.146"/>
				</g>
				<g>
					<path fill="#11D3C0" d="M30.833,26.369c1.273,1.432,0.465,4.228-1.805,6.249c-2.27,2.018-14.476,10.794-15.75,9.365
						c-1.271-1.434,8.874-12.532,11.142-14.55C26.688,25.415,29.559,24.938,30.833,26.369z"/>
				</g>
				<g>
					<path fill="#E8B085" d="M48.598,16.275c0,7.999-7.331,12.02-16.369,12.02c-9.041,0-16.373-4.021-16.373-12.02
						c0-8.001,7.332-15.775,16.373-15.775C41.267,0.5,48.598,8.274,48.598,16.275z"/>
					<path fill="#DD9F76" d="M48.598,16.275c0,7.999-7.331,12.02-16.369,12.02c-9.041,0-16.373-4.021-16.373-12.02"/>
				</g>
				<g>
					<g>
						<circle fill="#113E49" cx="24.443" cy="17.82" r="1.464"/>
						<path d="M25.907,17.82c0,0.811-0.657,1.465-1.465,1.465c-0.809,0-1.463-0.654-1.463-1.465"/>
						<g>
							<path fill="#F4C3A2" d="M27.331,20.874c-0.078,0-0.158-0.028-0.219-0.091c-0.715-0.714-1.664-1.107-2.672-1.107h-0.002
								c-1.008,0-1.955,0.394-2.666,1.106c-0.12,0.121-0.316,0.124-0.437,0.001c-0.121-0.117-0.124-0.312-0.003-0.434
								c0.83-0.831,1.932-1.29,3.105-1.29h0.002c1.176,0,2.278,0.456,3.11,1.288c0.119,0.119,0.119,0.318,0,0.436
								C27.491,20.846,27.413,20.874,27.331,20.874z"/>
						</g>
					</g>
					<g>
						<path fill="#113E49" d="M38.549,17.82c0,0.811,0.653,1.465,1.465,1.465c0.809,0,1.463-0.654,1.463-1.465
							c0-0.808-0.654-1.464-1.463-1.464C39.203,16.356,38.549,17.013,38.549,17.82z"/>
						<path d="M38.549,17.82c0,0.811,0.653,1.465,1.465,1.465c0.809,0,1.463-0.654,1.463-1.465"/>
						<g>
							<path fill="#F4C3A2" d="M37.125,20.874c0.075,0,0.156-0.028,0.217-0.091c0.715-0.714,1.664-1.107,2.672-1.107h0.001
								c1.009,0,1.958,0.394,2.668,1.106c0.119,0.121,0.314,0.124,0.436,0.001c0.122-0.117,0.124-0.312,0.003-0.434
								c-0.826-0.831-1.932-1.29-3.106-1.29h-0.001c-1.174,0-2.278,0.456-3.112,1.288c-0.117,0.119-0.117,0.318,0,0.436
								C36.965,20.846,37.043,20.874,37.125,20.874z"/>
						</g>
					</g>
				</g>
			</g>
			<path fill="#918F77" d="M27.129,1.358c-4.48,1.523-8.11,4.939-9.953,9.01c3.093,1.357,8.666,1.882,15.051,1.882
				s11.958-0.524,15.051-1.882c-1.843-4.07-5.471-7.486-9.949-9.01c-1.615-0.178-3.327-0.275-5.102-0.275S28.744,1.181,27.129,1.358
				z"/>
			<path fill="#A8A78E" d="M24.953,2.294C27.15,1.169,29.619,0.5,32.242,0.5c6.9,0,12.793,4.532,15.203,10.233
				c-2.581,0.587-6.879,0.152-11.488-1.341C30.192,7.525,25.792,4.599,24.953,2.294z"/>
			<path fill="#BABAA2" d="M39.518,2.294C37.32,1.169,34.851,0.5,32.229,0.5c-6.9,0-12.794,4.532-15.202,10.233
				c2.58,0.587,6.878,0.152,11.487-1.341C34.279,7.525,38.679,4.599,39.518,2.294z"/>
			<g>
				<g>
					<path fill="#663F24" d="M32.69,21.761c0,0-1.711-3.682-6.312-0.657c-4.601,3.025-4.996,2.103-4.996,2.103
						s4.864,3.553,10.125,1.318l0.789-0.66L32.69,21.761z"/>
					<path fill="#543722" d="M21.381,23.206c0,0,4.864,3.553,10.125,1.318l0.789-0.66l0.395-2.104"/>
				</g>
				<g>
					<path fill="#663F24" d="M31.766,21.761c0,0,1.709-3.682,6.311-0.657c4.602,3.025,4.996,2.103,4.996,2.103
						s-4.863,3.553-10.124,1.318l-0.79-0.66L31.766,21.761z"/>
					<path fill="#543722" d="M43.073,23.206c0,0-4.863,3.553-10.124,1.318l-0.79-0.66l-0.393-2.104"/>
				</g>
			</g>
		</g>
		<g>
			<path fill="#11D3C0" d="M35.282,7.917c0,2.393-1.367,2.999-3.055,2.999s-3.055-0.606-3.055-2.999
				c0-2.394,1.367-4.333,3.055-4.333S35.282,5.523,35.282,7.917z"/>
			<path fill="#13A9D1" d="M32.227,3.584c1.688,0,3.055,1.939,3.055,4.333c0,2.393-1.367,2.999-3.055,2.999"/>
			<path fill="#DDD9B8" d="M32.227,11.416c-2.358,0-3.555-1.177-3.555-3.499c0-2.665,1.595-4.833,3.555-4.833
				s3.555,2.168,3.555,4.833C35.782,10.239,34.585,11.416,32.227,11.416z M32.227,4.084c-1.407,0-2.555,1.72-2.555,3.833
				c0,1.775,0.74,2.499,2.555,2.499s2.555-0.724,2.555-2.499C34.782,5.804,33.634,4.084,32.227,4.084z"/>
		</g>
		<g>
			<g>
				<circle fill="#DDD9B8" cx="32.227" cy="30.499" r="0.834"/>
				<circle fill="#DDD9B8" cx="32.227" cy="33.249" r="0.834"/>
				<circle fill="#DDD9B8" cx="32.227" cy="35.999" r="0.834"/>
				<circle fill="#DDD9B8" cx="32.227" cy="38.749" r="0.834"/>
				<circle fill="#DDD9B8" cx="32.227" cy="41.499" r="0.834"/>
				<circle fill="#DDD9B8" cx="32.227" cy="44.249" r="0.834"/>
			</g>
		</g>
	</g>
	<g>
		<path fill="#13A9D1" d="M28.91,39.263c-0.629-0.812-1.51-1.344-2.496-1.562c-0.072-0.038-0.15-0.067-0.234-0.079
			c-0.004,0-0.004,0-0.004,0c-0.803-0.102-1.521-0.514-2.016-1.153c-0.498-0.644-0.715-1.442-0.611-2.249
			c0.076-0.609,0.389-1.152,0.875-1.529c0.484-0.376,1.088-0.541,1.697-0.463h0.004c0.934,0.12,1.602,0.979,1.48,1.918
			c-0.086,0.678-0.709,1.159-1.389,1.072c-0.227-0.027-0.432-0.145-0.572-0.328s-0.201-0.408-0.174-0.635
			c0.047-0.357-0.205-0.686-0.562-0.73l0,0c-0.355-0.045-0.684,0.207-0.727,0.562c-0.076,0.574,0.078,1.141,0.432,1.598
			c0.355,0.459,0.865,0.75,1.439,0.824c1.391,0.178,2.666-0.809,2.844-2.199c0.211-1.65-0.961-3.161-2.607-3.373h-0.004
			c-0.953-0.123-1.898,0.137-2.658,0.724c-0.762,0.591-1.25,1.44-1.371,2.396c-0.146,1.15,0.164,2.289,0.873,3.206
			c0.629,0.814,1.51,1.346,2.498,1.563c0.07,0.038,0.148,0.068,0.23,0.077c0.002,0.002,0.002,0.002,0.002,0.002
			c0.807,0.102,1.525,0.512,2.02,1.154c0.498,0.643,0.717,1.441,0.613,2.245c-0.078,0.61-0.391,1.155-0.877,1.531
			c-0.484,0.377-1.09,0.54-1.701,0.464c-0.938-0.121-1.6-0.979-1.48-1.918c0.086-0.677,0.709-1.16,1.389-1.074
			c0.229,0.031,0.432,0.146,0.57,0.332c0.141,0.18,0.203,0.406,0.174,0.633c-0.047,0.356,0.205,0.686,0.564,0.729
			c0.354,0.046,0.682-0.207,0.727-0.563c0.076-0.572-0.08-1.14-0.434-1.598c-0.352-0.457-0.863-0.75-1.438-0.824
			c-1.391-0.176-2.666,0.811-2.844,2.201c-0.211,1.648,0.961,3.161,2.609,3.371h0.002c0.953,0.121,1.896-0.134,2.658-0.723
			c0.762-0.59,1.248-1.441,1.371-2.396C29.929,41.32,29.619,40.183,28.91,39.263z"/>
		<path fill="#13A9D1" d="M35.544,39.263c0.629-0.812,1.51-1.344,2.496-1.562c0.072-0.038,0.15-0.067,0.234-0.079
			c0.004,0,0.004,0,0.004,0c0.803-0.102,1.521-0.514,2.016-1.153c0.498-0.644,0.715-1.442,0.611-2.249
			c-0.076-0.609-0.389-1.152-0.875-1.529c-0.484-0.376-1.088-0.541-1.697-0.463H38.33c-0.934,0.12-1.602,0.979-1.48,1.918
			c0.086,0.678,0.709,1.159,1.389,1.072c0.227-0.027,0.432-0.145,0.572-0.328s0.201-0.408,0.174-0.635
			c-0.047-0.357,0.205-0.686,0.562-0.73l0,0c0.355-0.045,0.684,0.207,0.727,0.562c0.076,0.574-0.078,1.141-0.432,1.598
			c-0.355,0.459-0.865,0.75-1.439,0.824c-1.391,0.178-2.666-0.809-2.844-2.199c-0.211-1.65,0.961-3.161,2.607-3.373
			c0,0,0.002,0,0.004,0c0.953-0.123,1.898,0.137,2.658,0.724c0.762,0.591,1.25,1.44,1.371,2.396c0.146,1.15-0.164,2.289-0.873,3.206
			c-0.629,0.814-1.51,1.346-2.498,1.563c-0.07,0.038-0.148,0.068-0.23,0.077l-0.002,0.002c-0.807,0.102-1.525,0.512-2.02,1.154
			c-0.498,0.643-0.717,1.441-0.613,2.245c0.078,0.61,0.391,1.155,0.877,1.531c0.484,0.377,1.09,0.54,1.701,0.464
			c0.938-0.121,1.6-0.979,1.48-1.918c-0.086-0.677-0.709-1.16-1.389-1.074c-0.229,0.031-0.432,0.146-0.57,0.332
			c-0.141,0.18-0.203,0.406-0.174,0.633c0.047,0.356-0.205,0.686-0.564,0.729c-0.354,0.046-0.682-0.207-0.727-0.563
			c-0.076-0.572,0.08-1.14,0.434-1.598c0.352-0.457,0.863-0.75,1.438-0.824c1.391-0.176,2.666,0.811,2.844,2.201
			c0.211,1.648-0.961,3.161-2.609,3.371h-0.002c-0.953,0.121-1.896-0.134-2.658-0.723c-0.762-0.59-1.248-1.441-1.371-2.396
			C34.525,41.32,34.835,40.183,35.544,39.263z"/>
	</g>
</g>
</svg>
