<?xml version="1.0" encoding="utf-8"?>
<!-- Generator: Adobe Illustrator 16.0.0, SVG Export Plug-In . SVG Version: 6.00 Build 0)  -->
<!DOCTYPE svg PUBLIC "-//W3C//DTD SVG 1.1//EN" "http://www.w3.org/Graphics/SVG/1.1/DTD/svg11.dtd">
<svg version="1.1" id="Layer_1" xmlns="http://www.w3.org/2000/svg" xmlns:xlink="http://www.w3.org/1999/xlink" x="0px" y="0px"
	 width="65px" height="65px" viewBox="0 0 65 65" enable-background="new 0 0 65 65" xml:space="preserve">
<g>
	<g>
		<polygon fill="#A00505" points="36.959,26.083 46.584,22.708 48.959,26.083 54.834,22.458 52.084,27.958 46.834,30.958 
			44.834,26.708 39.834,27.083 41.834,29.708 43.709,28.583 41.959,31.958 38.334,31.708 31.334,28.708 		"/>
		<g>
			<g>
				<g>
					<path d="M41.223,46.446c0,2.476-2.008,15.827-4.486,15.827c-2.475,0-4.482-13.352-4.482-15.827s2.008-4.484,4.482-4.484
						C39.215,41.962,41.223,43.971,41.223,46.446z"/>
					<path d="M26.197,46.446c0,2.476-2.008,15.827-4.486,15.827c-2.475,0-4.482-13.352-4.482-15.827s2.008-4.484,4.482-4.484
						C24.189,41.962,26.197,43.971,26.197,46.446z"/>
					<g>
						<g>
							<path fill="#191919" d="M41.875,40.521c0,16.038-5.662,10.697-12.65,10.697c-6.986,0-12.65,5.341-12.65-10.697
								c0-9.17,5.666-16.603,12.65-16.603C36.211,23.919,41.875,31.352,41.875,40.521z"/>
							<g>
								<path fill="#A8B2BA" d="M18.287,54.085c0.699,3.466,1.691,6.945,2.814,7.916h1.219c1.126-0.971,2.119-4.45,2.816-7.916
									H18.287z"/>
								<path fill="#A8B2BA" d="M33.312,54.085c0.699,3.466,1.691,6.945,2.814,7.916h1.219c1.125-0.971,2.119-4.45,2.817-7.916
									H33.312z"/>
							</g>
							<g>
								<path fill="#8D97A0" d="M26.758,62.354c0,1.896-2.26,2.146-5.045,2.146s-5.045-0.249-5.045-2.146
									c0-1.897,2.26-4.508,5.045-4.508S26.758,60.457,26.758,62.354z"/>
								<path fill="#79848C" d="M26.758,62.354c0,1.896-2.26,2.146-5.045,2.146s-5.045-0.249-5.045-2.146"/>
							</g>
							<g>
								<path fill="#8D97A0" d="M41.783,62.354c0,1.896-2.26,2.146-5.045,2.146s-5.045-0.249-5.045-2.146
									c0-1.897,2.26-4.508,5.045-4.508S41.783,60.457,41.783,62.354z"/>
								<path fill="#79848C" d="M41.783,62.354c0,1.896-2.26,2.146-5.045,2.146s-5.045-0.249-5.045-2.146"/>
							</g>
							<g>
								<path fill="#191919" d="M27.83,26.369c1.273,1.432,0.465,4.228-1.805,6.249c-2.27,2.018-14.475,10.794-15.75,9.365
									c-1.271-1.434,8.873-12.532,11.143-14.55C23.686,25.415,26.557,24.938,27.83,26.369z"/>
								<path fill="#191919" d="M30.619,26.369c-1.273,1.432-0.465,4.228,1.805,6.249c2.27,2.018,14.475,10.794,15.75,9.365
									c1.271-1.434-8.873-12.532-11.143-14.55C34.764,25.415,31.893,24.938,30.619,26.369z"/>
								<path fill="#CC0A0A" d="M29.225,23.294c-3.457,0-6.58,1.833-8.861,4.787c2.555,1.053,5.592,1.589,8.863,1.589
									c3.27,0,6.307-0.536,8.861-1.589C35.807,25.128,32.684,23.294,29.225,23.294z"/>
							</g>
							<g>
								<path fill="#0FB28B" d="M45.596,16.275c0,7.999-7.33,12.02-16.369,12.02c-9.041,0-16.373-4.021-16.373-12.02
									c0-8.001,7.332-15.775,16.373-15.775C38.266,0.5,45.596,8.274,45.596,16.275z"/>
								<path fill="#0AA599" d="M45.596,16.275c0,7.999-7.33,12.02-16.369,12.02c-9.041,0-16.373-4.021-16.373-12.02"/>
								<path fill="#566866" d="M30.475,19.585V0.566C30.062,0.534,29.648,0.5,29.227,0.5c-0.424,0-0.838,0.034-1.252,0.067v19.018
									c0,0.689,0.559,1.25,1.25,1.25C29.915,20.835,30.475,20.274,30.475,19.585z"/>
							</g>
						</g>
					</g>
					<path fill="#B6C3CC" d="M12.838,37.03c-1.823,2.377-3.057,4.396-2.562,4.953c0.485,0.544,2.557-0.393,5.059-1.871l0.293-0.293
						L12.838,37.03z"/>
					<path fill="#B6C3CC" d="M42.729,39.882c2.674,1.609,4.936,2.674,5.445,2.102c0.496-0.559-0.746-2.587-2.576-4.971
						L42.729,39.882z"/>
				</g>
			</g>
		</g>
		<path fill="#9CACB5" d="M42.708,23.681l-7.825-4.898H23.566l-7.825,4.898c2.954,3.07,7.89,4.614,13.485,4.614
			C34.82,28.295,39.756,26.751,42.708,23.681z"/>
		<path fill="#B6C3CC" d="M23.566,20.699l-6.561,4.106c2.998,2.32,7.358,3.489,12.221,3.489c4.861,0,9.221-1.169,12.217-3.489
			l-6.561-4.106H23.566z"/>
		<g>
			<g>
				<path fill="#212020" d="M24.763,15.367c-2.71,2.708-6.442,5.35-8.327,3.468c-1.881-1.884-1.199-7.578,1.51-10.285
					c2.707-2.709,6.43-3.379,8.312-1.496C28.141,8.937,27.47,12.659,24.763,15.367z"/>
				
					<ellipse transform="matrix(0.7071 0.7071 -0.7071 0.7071 14.7104 -11.597)" fill="#F40F0F" cx="21.354" cy="11.958" rx="4.821" ry="6.936"/>
				<path fill="#CC0A0A" d="M26.257,7.054c1.884,1.883,1.213,5.605-1.494,8.313c-2.71,2.708-6.431,3.378-8.314,1.495"/>
			</g>
			<g>
				<path fill="#212020" d="M33.686,15.367c2.711,2.708,6.443,5.35,8.327,3.468c1.882-1.884,1.2-7.578-1.509-10.285
					c-2.707-2.709-6.43-3.379-8.311-1.496C30.309,8.937,30.979,12.659,33.686,15.367z"/>
				
					<ellipse transform="matrix(-0.7072 0.7071 -0.7071 -0.7072 71.7819 -5.813)" fill="#F40F0F" cx="37.095" cy="11.958" rx="4.821" ry="6.937"/>
				<path fill="#CC0A0A" d="M32.193,7.054c-1.885,1.883-1.214,5.605,1.492,8.313c2.711,2.708,6.432,3.378,8.315,1.495"/>
			</g>
		</g>
		<g>
			<path fill="#B6C3CC" d="M28.736,6.033c0.155,0.155,0.155,0.409,0,0.564l0,0c-0.155,0.155-0.407,0.155-0.563,0l-3.64-3.64
				c-0.155-0.154-0.155-0.408,0-0.563l0,0c0.156-0.155,0.41-0.155,0.563,0L28.736,6.033z"/>
			<path fill="#B6C3CC" d="M29.714,6.033c-0.155,0.155-0.155,0.409,0,0.564l0,0c0.155,0.155,0.407,0.155,0.563,0l3.64-3.64
				c0.155-0.154,0.155-0.408,0-0.563l0,0c-0.156-0.155-0.409-0.155-0.563,0L29.714,6.033z"/>
		</g>
		<g>
			<g>
				<path fill="#11CE6B" d="M28.725,36.167c0,1.104-0.896,2-2,2h-4.167c-1.104,0-2-0.896-2-2V34c0-1.104,0.896-2,2-2h4.167
					c1.104,0,2,0.896,2,2V36.167z"/>
				<path fill="#08B254" d="M28.725,36.167c0,1.104-0.896,2-2,2h-4.167c-1.104,0-2-0.896-2-2V34c0-1.104,0.896-2,2-2"/>
			</g>
			<g>
				<path fill="#11CE6B" d="M29.725,36.167c0,1.104,0.895,2,2,2h4.167c1.104,0,2-0.896,2-2V34c0-1.104-0.896-2-2-2h-4.167
					c-1.105,0-2,0.896-2,2V36.167z"/>
				<path fill="#08B254" d="M29.725,36.167c0,1.104,0.895,2,2,2h4.167c1.104,0,2-0.896,2-2V34c0-1.104-0.896-2-2-2"/>
			</g>
		</g>
		<g>
			<g>
				<path fill="#11CE6B" d="M28.88,42.204c0,0.762-0.617,1.379-1.379,1.379h-2.872c-0.762,0-1.379-0.617-1.379-1.379v-1.493
					c0-0.762,0.617-1.379,1.379-1.379h2.872c0.762,0,1.379,0.617,1.379,1.379V42.204z"/>
				<path fill="#08B254" d="M28.88,42.204c0,0.762-0.617,1.379-1.379,1.379h-2.872c-0.762,0-1.379-0.617-1.379-1.379v-1.493
					c0-0.762,0.617-1.379,1.379-1.379"/>
			</g>
			<g>
				<path fill="#11CE6B" d="M29.57,42.204c0,0.762,0.615,1.379,1.377,1.379h2.873c0.762,0,1.379-0.617,1.379-1.379v-1.493
					c0-0.762-0.617-1.379-1.379-1.379h-2.873c-0.762,0-1.377,0.617-1.377,1.379V42.204z"/>
				<path fill="#08B254" d="M29.57,42.204c0,0.762,0.615,1.379,1.377,1.379h2.873c0.762,0,1.379-0.617,1.379-1.379v-1.493
					c0-0.762-0.617-1.379-1.379-1.379"/>
			</g>
		</g>
		<g>
			<ellipse fill="#CC0A0A" cx="29.225" cy="47.583" rx="9.625" ry="3"/>
			<ellipse fill="#B6C3CC" cx="29.225" cy="47.583" rx="5.414" ry="2.312"/>
			<path fill="#9CACB5" d="M34.639,47.583c0,1.276-2.424,2.312-5.414,2.312s-5.414-1.036-5.414-2.312"/>
			<circle fill="#CC0A0A" cx="29.225" cy="47.583" r="1.166"/>
		</g>
	</g>
	<g>
		<path fill="#9CACB5" d="M34.475,21.896c0,0.172-0.141,0.312-0.312,0.312h-9.875c-0.172,0-0.312-0.141-0.312-0.312l0,0
			c0-0.172,0.141-0.312,0.312-0.312h9.875C34.334,21.583,34.475,21.724,34.475,21.896L34.475,21.896z"/>
		<path fill="#9CACB5" d="M34.475,23.271c0,0.172-0.141,0.312-0.312,0.312h-9.875c-0.172,0-0.312-0.141-0.312-0.312l0,0
			c0-0.172,0.141-0.312,0.312-0.312h9.875C34.334,22.958,34.475,23.099,34.475,23.271L34.475,23.271z"/>
		<path fill="#9CACB5" d="M34.475,24.646c0,0.172-0.141,0.312-0.312,0.312h-9.875c-0.172,0-0.312-0.141-0.312-0.312l0,0
			c0-0.172,0.141-0.312,0.312-0.312h9.875C34.334,24.333,34.475,24.474,34.475,24.646L34.475,24.646z"/>
	</g>
</g>
</svg>
