<?xml version="1.0" encoding="utf-8"?>
<!-- Generator: Adobe Illustrator 16.0.0, SVG Export Plug-In . SVG Version: 6.00 Build 0)  -->
<!DOCTYPE svg PUBLIC "-//W3C//DTD SVG 1.1//EN" "http://www.w3.org/Graphics/SVG/1.1/DTD/svg11.dtd">
<svg version="1.1" id="Layer_1" xmlns="http://www.w3.org/2000/svg" xmlns:xlink="http://www.w3.org/1999/xlink" x="0px" y="0px"
	 width="65px" height="65px" viewBox="0 0 65 65" enable-background="new 0 0 65 65" xml:space="preserve">
<g>
	<g>
		<g>
			<g>
				<g>
					<g>
						<path fill="#232728" d="M30.47,46.446c0,2.476-2.008,15.827-4.486,15.827c-2.475,0-4.482-13.352-4.482-15.827
							s2.008-4.484,4.482-4.484C28.462,41.962,30.47,43.971,30.47,46.446z"/>
						<path fill="#232728" d="M45.495,46.446c0,2.476-2.008,15.827-4.486,15.827c-2.475,0-4.482-13.352-4.482-15.827
							s2.008-4.484,4.482-4.484C43.487,41.962,45.495,43.971,45.495,46.446z"/>
					</g>
					<path fill="#6E9681" d="M46.147,40.521c0,16.038-5.662,10.697-12.65,10.697c-6.986,0-12.65,5.341-12.65-10.697
						c0-9.17,5.666-16.604,12.65-16.604C40.483,23.918,46.147,31.352,46.147,40.521z"/>
					<path fill="#6E9681" d="M37.858,27.708c1.432-1.273,4.229-0.465,6.25,1.805c2.018,2.27,10.793,14.475,9.365,15.75
						C52.04,46.534,40.94,36.39,38.923,34.12C36.905,31.853,36.429,28.981,37.858,27.708z"/>
					<path fill="#587A67" d="M33.497,44.719c-6.291,0-11.507,4.321-12.484-6.524c-0.107,0.648-0.166,1.414-0.166,2.327
						c0,16.038,5.664,10.697,12.65,10.697c6.988,0,12.65,5.341,12.65-10.697c0-0.913-0.059-1.679-0.166-2.327
						C45.005,49.04,39.79,44.719,33.497,44.719z"/>
					<g>
						<path fill="#0DCEAE" d="M31.03,62.354c0,1.896-2.26,2.146-5.045,2.146s-5.045-0.249-5.045-2.146
							c0-1.897,2.26-4.508,5.045-4.508S31.03,60.457,31.03,62.354z"/>
						<path fill="#08B5B0" d="M31.03,62.354c0,1.896-2.26,2.146-5.045,2.146s-5.045-0.249-5.045-2.146"/>
					</g>
					<g>
						<path fill="#0DCEAE" d="M46.056,62.354c0,1.896-2.26,2.146-5.045,2.146s-5.045-0.249-5.045-2.146
							c0-1.897,2.26-4.508,5.045-4.508S46.056,60.457,46.056,62.354z"/>
						<path fill="#08B5B0" d="M46.056,62.354c0,1.896-2.26,2.146-5.045,2.146s-5.045-0.249-5.045-2.146"/>
					</g>
					<g>
						<path fill="#6E9681" d="M34.826,29.854c-0.113-1.912-2.662-3.318-5.695-3.143c-3.032,0.178-17.867,2.604-17.761,4.515
							c0.115,1.913,15.138,2.588,18.169,2.41C32.568,33.459,34.937,31.766,34.826,29.854z"/>
					</g>
					<circle fill="#A56B44" cx="33.497" cy="27.333" r="3.375"/>
					<g>
						<path fill="#D8A17C" d="M49.868,16.275c0,7.999-7.33,12.02-16.369,12.02c-9.041,0-16.373-4.021-16.373-12.02
							c0-8.001,7.332-15.775,16.373-15.775C42.538,0.5,49.868,8.274,49.868,16.275z"/>
						<path fill="#C48960" d="M49.868,16.275c0,7.999-7.33,12.02-16.369,12.02c-9.041,0-16.373-4.021-16.373-12.02
							c0-8.001,7.332-14.192,16.373-14.192C42.538,2.083,49.868,8.274,49.868,16.275z"/>
						<path fill="#C48960" d="M49.868,16.275c0,7.999-7.33,12.02-16.369,12.02c-9.041,0-16.373-4.021-16.373-12.02
							c0-8.001,7.332-14.192,16.373-14.192C42.538,2.083,49.868,8.274,49.868,16.275z"/>
						<path fill="#BC8158" d="M49.868,16.275c0,7.999-7.33,12.02-16.369,12.02c-9.041,0-16.373-4.021-16.373-12.02"/>
						<path fill="#63391C" d="M49.343,12.608C47.539,6.058,41.138,0.5,33.499,0.5c-9.041,0-16.373,7.774-16.373,15.775
							c0,2.055,0.49,3.843,1.361,5.371c0.793-0.498,1.322-1.372,1.322-2.376c0-0.119-0.021-0.232-0.035-0.348
							c0.662-0.516,1.098-1.311,1.098-2.215c0-0.119-0.02-0.232-0.035-0.348c0.662-0.516,1.098-1.311,1.098-2.215
							c0-0.9-0.432-1.691-1.088-2.207c0.102-0.098,0.209-0.189,0.297-0.299c0.58,0.722,1.459,1.193,2.459,1.193
							c0.998,0,1.878-0.472,2.459-1.193c0.58,0.722,1.459,1.193,2.457,1.193c1,0,1.879-0.472,2.459-1.193
							c0.58,0.722,1.459,1.193,2.459,1.193c0.998,0,1.878-0.472,2.458-1.193c0.581,0.722,1.46,1.193,2.458,1.193
							c1,0,1.879-0.472,2.459-1.193c0.58,0.722,1.459,1.193,2.459,1.193c0.998,0,1.878-0.472,2.458-1.193
							c0.581,0.722,1.46,1.193,2.458,1.193C48.596,12.833,48.984,12.749,49.343,12.608z"/>
					</g>
					<g>
						<g>
							<circle fill="#113E49" cx="27.379" cy="18.987" r="1.464"/>
							<path d="M28.843,18.987c0,0.811-0.656,1.465-1.465,1.465s-1.463-0.654-1.463-1.465"/>
							<g>
								<path fill="#E5A376" d="M30.267,22.041c-0.078,0-0.158-0.028-0.219-0.091c-0.715-0.714-1.664-1.107-2.672-1.107h-0.002
									c-1.008,0-1.955,0.394-2.666,1.106c-0.121,0.121-0.316,0.124-0.436,0.001c-0.121-0.117-0.125-0.312-0.004-0.434
									c0.83-0.831,1.932-1.29,3.105-1.29h0.002c1.176,0,2.279,0.456,3.111,1.288c0.119,0.119,0.119,0.318,0,0.436
									C30.427,22.013,30.349,22.041,30.267,22.041z"/>
							</g>
						</g>
						<g>
							<circle fill="#113E49" cx="42.949" cy="18.987" r="1.464"/>
							<path d="M41.485,18.987c0,0.811,0.654,1.465,1.465,1.465c0.809,0,1.463-0.654,1.463-1.465"/>
							<g>
								<path fill="#E5A376" d="M40.062,22.041c0.076,0,0.156-0.028,0.217-0.091c0.715-0.714,1.664-1.107,2.672-1.107h0.002
									c1.008,0,1.957,0.394,2.668,1.106c0.119,0.121,0.314,0.124,0.436,0.001c0.121-0.117,0.123-0.312,0.002-0.434
									c-0.826-0.831-1.932-1.29-3.105-1.29H42.95c-1.174,0-2.277,0.456-3.111,1.288c-0.117,0.119-0.117,0.318,0,0.436
									C39.901,22.013,39.979,22.041,40.062,22.041z"/>
							</g>
						</g>
					</g>
				</g>
			</g>
			<ellipse fill="#AA1111" cx="35.436" cy="24.396" rx="0.792" ry="1.958"/>
			<path fill="#870E0E" d="M34.645,24.396c0-1.082,0.354-1.959,0.792-1.959c0.437,0,0.791,0.877,0.791,1.959"/>
		</g>
	</g>
	<g>
		<polygon fill="#0DCEAE" points="32.948,38.105 32.948,33 28.526,35.554 		"/>
		<polygon fill="#0DCEAE" points="27.771,36.864 27.771,39.752 27.771,41.97 32.19,39.417 		"/>
		<polygon fill="#0DCEAE" points="34.462,33 34.462,38.104 38.883,35.553 		"/>
		<polygon fill="#0DCEAE" points="34.462,45.834 38.883,43.28 34.462,40.728 		"/>
		<polygon fill="#0DCEAE" points="32.948,45.834 32.948,40.728 28.525,43.28 		"/>
		<polygon fill="#0DCEAE" points="35.219,39.417 39.641,41.97 39.641,39.751 39.641,36.864 		"/>
	</g>
</g>
</svg>
