<?xml version="1.0" encoding="utf-8"?>
<!-- Generator: Adobe Illustrator 16.0.0, SVG Export Plug-In . SVG Version: 6.00 Build 0)  -->
<!DOCTYPE svg PUBLIC "-//W3C//DTD SVG 1.1//EN" "http://www.w3.org/Graphics/SVG/1.1/DTD/svg11.dtd">
<svg version="1.1" id="Layer_1" xmlns="http://www.w3.org/2000/svg" xmlns:xlink="http://www.w3.org/1999/xlink" x="0px" y="0px"
	 width="65px" height="65px" viewBox="0 0 65 65" enable-background="new 0 0 65 65" xml:space="preserve">
<g>
	<g>
		<path fill="#363B3F" d="M31.105,26.369c1.273,1.432,0.465,4.228-1.805,6.249c-2.27,2.018-14.475,10.794-15.75,9.365
			c-1.271-1.434,8.873-12.532,11.143-14.55C26.961,25.415,29.832,24.938,31.105,26.369z"/>
		<path fill="#363B3F" d="M33.895,26.369c-1.273,1.432-0.465,4.228,1.805,6.249c2.27,2.018,14.475,10.794,15.75,9.365
			c1.271-1.434-8.873-12.532-11.143-14.55C38.039,25.415,35.168,24.938,33.895,26.369z"/>
		<g>
			<g>
				<g>
					<path fill="#AA0909" d="M44.498,46.446c0,2.476-2.008,15.827-4.486,15.827c-2.475,0-4.482-13.352-4.482-15.827
						s2.008-4.484,4.482-4.484C42.49,41.962,44.498,43.971,44.498,46.446z"/>
					<path fill="#AA0909" d="M29.473,46.446c0,2.476-2.008,15.827-4.486,15.827c-2.475,0-4.482-13.352-4.482-15.827
						s2.008-4.484,4.482-4.484C27.465,41.962,29.473,43.971,29.473,46.446z"/>
					<g>
						<g>
							<path fill="#CE1111" d="M45.15,40.521c0,16.038-5.662,10.697-12.65,10.697c-6.986,0-12.65,5.341-12.65-10.697
								c0-9.17,5.666-16.603,12.65-16.603C39.486,23.919,45.15,31.352,45.15,40.521z"/>
							<g>
								<path fill="#EAC00F" d="M30.033,62.354c0,1.896-2.26,2.146-5.045,2.146s-5.045-0.249-5.045-2.146
									c0-1.897,2.26-4.508,5.045-4.508S30.033,60.457,30.033,62.354z"/>
								<path fill="#BF9C0A" d="M30.033,62.354c0,1.896-2.26,2.146-5.045,2.146s-5.045-0.249-5.045-2.146"/>
							</g>
							<g>
								<path fill="#EAC00F" d="M45.059,62.354c0,1.896-2.26,2.146-5.045,2.146s-5.045-0.249-5.045-2.146
									c0-1.897,2.26-4.508,5.045-4.508S45.059,60.457,45.059,62.354z"/>
								<path fill="#BF9C0A" d="M45.059,62.354c0,1.896-2.26,2.146-5.045,2.146s-5.045-0.249-5.045-2.146"/>
							</g>
							<g>
								<path fill="#AA0909" d="M22.474,30.427c2.772,1.404,6.245,2.118,10.028,2.118c3.781,0,7.254-0.714,10.025-2.118
									c-2.312-3.95-5.938-6.508-10.027-6.508C28.412,23.919,24.785,26.476,22.474,30.427z"/>
							</g>
							<g>
								<path fill="#FFD31A" d="M48.871,16.275c0,7.999-7.33,12.02-16.369,12.02c-9.041,0-16.373-4.021-16.373-12.02
									c0-8.001,7.332-15.775,16.373-15.775C41.541,0.5,48.871,8.274,48.871,16.275z"/>
								<path fill="#EAC00F" d="M48.871,16.275c0,7.999-7.33,12.02-16.369,12.02c-9.041,0-16.373-4.021-16.373-12.02
									c0-8.001,7.332-11.942,16.373-11.942C41.541,4.333,48.871,8.274,48.871,16.275z"/>
								<path fill="#BF9C0A" d="M48.871,16.275c0,7.999-7.33,12.02-16.369,12.02c-9.041,0-16.373-4.021-16.373-12.02"/>
							</g>
						</g>
					</g>
				</g>
			</g>
		</g>
		<path fill="#363B3F" d="M46,16.835c0,1.104-0.896,2-2,2H21c-1.104,0-2-0.896-2-2v-1.668c0-1.104,0.896-2,2-2h23
			c1.104,0,2,0.896,2,2V16.835z"/>
		<path fill="#191E21" d="M19,16.275v0.56c0,1.104,0.896,2,2,2h23c1.104,0,2-0.896,2-2v-0.56H19z"/>
		<g>
			<path fill="#FF9C9C" d="M22.29,16.792c0,0.346-0.28,0.625-0.625,0.625l0,0c-0.345,0-0.625-0.279-0.625-0.625v-1.584
				c0-0.344,0.28-0.625,0.625-0.625l0,0c0.345,0,0.625,0.281,0.625,0.625V16.792z"/>
			<path fill="#FF5555" d="M24.457,16.792c0,0.346-0.28,0.625-0.625,0.625l0,0c-0.346,0-0.625-0.279-0.625-0.625v-1.584
				c0-0.344,0.279-0.625,0.625-0.625l0,0c0.345,0,0.625,0.281,0.625,0.625V16.792z"/>
			<path fill="#FF3E3E" d="M26.624,16.792c0,0.346-0.28,0.625-0.626,0.625l0,0c-0.344,0-0.624-0.279-0.624-0.625v-1.584
				c0-0.344,0.28-0.625,0.624-0.625l0,0c0.346,0,0.626,0.281,0.626,0.625V16.792z"/>
			<path fill="#EF2929" d="M28.791,16.792c0,0.346-0.28,0.625-0.625,0.625l0,0c-0.346,0-0.625-0.279-0.625-0.625v-1.584
				c0-0.344,0.279-0.625,0.625-0.625l0,0c0.345,0,0.625,0.281,0.625,0.625V16.792z"/>
			<path fill="#EA1818" d="M30.958,16.792c0,0.346-0.28,0.625-0.625,0.625l0,0c-0.345,0-0.625-0.279-0.625-0.625v-1.584
				c0-0.344,0.28-0.625,0.625-0.625l0,0c0.345,0,0.625,0.281,0.625,0.625V16.792z"/>
			<path fill="#DB1F1F" d="M33.125,16.792c0,0.346-0.28,0.625-0.625,0.625l0,0c-0.345,0-0.625-0.279-0.625-0.625v-1.584
				c0-0.344,0.28-0.625,0.625-0.625l0,0c0.345,0,0.625,0.281,0.625,0.625V16.792z"/>
			<path fill="#CE1111" d="M35.292,16.792c0,0.346-0.28,0.625-0.626,0.625l0,0c-0.344,0-0.624-0.279-0.624-0.625v-1.584
				c0-0.344,0.28-0.625,0.624-0.625l0,0c0.346,0,0.626,0.281,0.626,0.625V16.792z"/>
			<path fill="#A01717" d="M37.459,16.792c0,0.346-0.28,0.625-0.625,0.625l0,0c-0.345,0-0.625-0.279-0.625-0.625v-1.584
				c0-0.344,0.28-0.625,0.625-0.625l0,0c0.345,0,0.625,0.281,0.625,0.625V16.792z"/>
			<path fill="#6B1C1C" d="M39.626,16.792c0,0.346-0.28,0.625-0.625,0.625l0,0c-0.345,0-0.625-0.279-0.625-0.625v-1.584
				c0-0.344,0.28-0.625,0.625-0.625l0,0c0.345,0,0.625,0.281,0.625,0.625V16.792z"/>
			<path fill="#5E1313" d="M41.793,16.792c0,0.346-0.28,0.625-0.625,0.625l0,0c-0.345,0-0.625-0.279-0.625-0.625v-1.584
				c0-0.344,0.28-0.625,0.625-0.625l0,0c0.345,0,0.625,0.281,0.625,0.625V16.792z"/>
			<path fill="#440C0C" d="M43.96,16.792c0,0.346-0.28,0.625-0.626,0.625l0,0c-0.344,0-0.624-0.279-0.624-0.625v-1.584
				c0-0.344,0.28-0.625,0.624-0.625l0,0c0.346,0,0.626,0.281,0.626,0.625V16.792z"/>
		</g>
		<path fill="#BF9C0A" d="M20.104,45.833c-0.071,0.564,0.103,1.154,0.535,1.588l10.512,5.738c0.746,0.745,1.953,0.745,2.699,0
			l10.51-5.738c0.436-0.434,0.607-1.023,0.537-1.588H20.104z"/>
		<path fill="#EAC00F" d="M33.85,50.909l10.297-5.076H19.852l11.299,5.076C31.896,51.654,33.104,51.654,33.85,50.909z"/>
		<polygon fill="#EAC00F" points="32.188,33.458 27.562,38.083 31.188,38.083 29.062,42.521 37.438,37.333 33.062,37.333 
			36.938,33.458 		"/>
		<g>
			<g>
				<path fill="#EAC00F" d="M25.125,30.271c0,1.346-1.092,1.562-2.438,1.562s-2.438-0.217-2.438-1.562s1.092-2.438,2.438-2.438
					S25.125,28.925,25.125,30.271z"/>
				<path fill="#BF9C0A" d="M25.125,30.271c0,1.346-1.092,1.562-2.438,1.562s-2.438-0.217-2.438-1.562s1.092-0.188,2.438-0.188
					S25.125,28.925,25.125,30.271z"/>
			</g>
			<g>
				<path fill="#EAC00F" d="M39.875,30.271c0,1.346,1.092,1.562,2.438,1.562s2.438-0.217,2.438-1.562s-1.092-2.438-2.438-2.438
					S39.875,28.925,39.875,30.271z"/>
				<path fill="#BF9C0A" d="M39.875,30.271c0,1.346,1.092,1.562,2.438,1.562s2.438-0.217,2.438-1.562s-1.092-0.188-2.438-0.188
					S39.875,28.925,39.875,30.271z"/>
			</g>
		</g>
	</g>
	<g>
		<g>
			<circle fill="#BF9C0A" cx="25.042" cy="33.583" r="0.667"/>
			<circle fill="#BF9C0A" cx="25.042" cy="36.25" r="0.667"/>
			<circle fill="#BF9C0A" cx="25.042" cy="38.917" r="0.667"/>
			<circle fill="#BF9C0A" cx="25.042" cy="41.585" r="0.667"/>
		</g>
		<g>
			<circle fill="#BF9C0A" cx="39.958" cy="33.583" r="0.667"/>
			<circle fill="#BF9C0A" cx="39.958" cy="36.25" r="0.667"/>
			<circle fill="#BF9C0A" cx="39.958" cy="38.917" r="0.667"/>
			<circle fill="#BF9C0A" cx="39.958" cy="41.585" r="0.667"/>
		</g>
	</g>
</g>
</svg>
