<?xml version="1.0" encoding="utf-8"?>
<!-- Generator: Adobe Illustrator 16.0.0, SVG Export Plug-In . SVG Version: 6.00 Build 0)  -->
<!DOCTYPE svg PUBLIC "-//W3C//DTD SVG 1.1//EN" "http://www.w3.org/Graphics/SVG/1.1/DTD/svg11.dtd">
<svg version="1.1" id="Layer_1" xmlns="http://www.w3.org/2000/svg" xmlns:xlink="http://www.w3.org/1999/xlink" x="0px" y="0px"
	 width="65px" height="65px" viewBox="0 0 65 65" enable-background="new 0 0 65 65" xml:space="preserve">
<g>
	<g>
		<g>
			<g>
				<path fill="#0D50A0" d="M40.162,33.266c1.432,1.273,4.228,0.465,6.249-1.805c2.018-2.27,10.793-14.475,9.365-15.75
					c-1.434-1.271-12.532,8.873-14.55,11.143C39.208,29.121,38.731,31.992,40.162,33.266z"/>
				<g>
					<g>
						<g>
							<path fill="#0D467F" d="M33.301,46.446c0,2.476-2.008,15.827-4.486,15.827c-2.475,0-4.482-13.352-4.482-15.827
								s2.008-4.484,4.482-4.484C31.293,41.962,33.301,43.971,33.301,46.446z"/>
							<path fill="#0D467F" d="M48.326,46.446c0,2.476-2.008,15.827-4.486,15.827c-2.475,0-4.482-13.352-4.482-15.827
								s2.008-4.484,4.482-4.484C46.318,41.962,48.326,43.971,48.326,46.446z"/>
						</g>
						<path fill="#2679A8" d="M48.979,40.521c0,16.038-5.663,10.697-12.65,10.697c-6.986,0-12.65,5.341-12.65-10.697
							c0-9.17,5.666-16.603,12.65-16.603C43.314,23.919,48.979,31.352,48.979,40.521z"/>
						<path fill="#0D50A0" d="M36.328,46.969c-6.553,0-11.943,4.698-12.586-7.955c-0.043,0.439-0.064,0.939-0.064,1.508
							c0,16.038,5.664,10.697,12.65,10.697c6.987,0,12.65,5.341,12.65-10.697c0-0.568-0.021-1.068-0.064-1.508
							C48.271,51.667,42.883,46.969,36.328,46.969z"/>
						<g>
							<path fill="#404749" d="M33.861,62.354c0,1.896-2.26,2.146-5.046,2.146c-2.784,0-5.045-0.249-5.045-2.146
								c0-1.897,2.261-4.508,5.045-4.508C31.602,57.847,33.861,60.457,33.861,62.354z"/>
							<path fill="#232728" d="M33.861,62.354c0,1.896-2.26,2.146-5.046,2.146c-2.784,0-5.045-0.249-5.045-2.146"/>
						</g>
						<g>
							<path fill="#404749" d="M48.886,62.354c0,1.896-2.258,2.146-5.044,2.146c-2.785,0-5.045-0.249-5.045-2.146
								c0-1.897,2.26-4.508,5.045-4.508C46.628,57.847,48.886,60.457,48.886,62.354z"/>
							<path fill="#232728" d="M48.886,62.354c0,1.896-2.258,2.146-5.044,2.146c-2.785,0-5.045-0.249-5.045-2.146"/>
						</g>
						<g>
							<path fill="#2679A8" d="M34.934,26.369c1.273,1.432,0.465,4.228-1.805,6.249c-2.27,2.018-14.476,10.794-15.75,9.365
								c-1.271-1.434,8.874-12.532,11.142-14.55C30.789,25.415,33.66,24.938,34.934,26.369z"/>
						</g>
						<g>
							<path fill="#E8B085" d="M52.699,16.275c0,7.999-7.331,12.02-16.369,12.02c-9.041,0-16.373-4.021-16.373-12.02
								C19.957,8.274,27.289,0.5,36.33,0.5C45.368,0.5,52.699,8.274,52.699,16.275z"/>
							<path fill="#DD9F76" d="M52.699,16.275c0,7.999-7.331,12.02-16.369,12.02c-9.041,0-16.373-4.021-16.373-12.02"/>
						</g>
						<g>
							<g>
								<circle fill="#113E49" cx="28.544" cy="17.82" r="1.464"/>
								<path d="M30.008,17.82c0,0.811-0.657,1.465-1.465,1.465c-0.809,0-1.463-0.654-1.463-1.465"/>
								<g>
									<path fill="#F4C3A2" d="M31.432,20.874c-0.078,0-0.158-0.028-0.219-0.091c-0.715-0.714-1.664-1.107-2.672-1.107h-0.002
										c-1.008,0-1.955,0.394-2.666,1.106c-0.12,0.121-0.316,0.124-0.437,0.001c-0.121-0.117-0.124-0.312-0.003-0.434
										c0.83-0.831,1.932-1.29,3.105-1.29h0.002c1.176,0,2.278,0.456,3.11,1.288c0.119,0.119,0.119,0.318,0,0.436
										C31.592,20.846,31.514,20.874,31.432,20.874z"/>
								</g>
							</g>
							<g>
								<path fill="#113E49" d="M42.65,17.82c0,0.811,0.653,1.465,1.465,1.465c0.809,0,1.463-0.654,1.463-1.465
									c0-0.808-0.654-1.464-1.463-1.464C43.304,16.356,42.65,17.013,42.65,17.82z"/>
								<path d="M42.65,17.82c0,0.811,0.653,1.465,1.465,1.465c0.809,0,1.463-0.654,1.463-1.465"/>
								<g>
									<path fill="#F4C3A2" d="M41.227,20.874c0.075,0,0.156-0.028,0.217-0.091c0.715-0.714,1.664-1.107,2.672-1.107h0.001
										c1.009,0,1.958,0.394,2.668,1.106c0.119,0.121,0.314,0.124,0.436,0.001c0.122-0.117,0.124-0.312,0.003-0.434
										c-0.826-0.831-1.932-1.29-3.106-1.29h-0.001c-1.174,0-2.278,0.456-3.112,1.288c-0.117,0.119-0.117,0.318,0,0.436
										C41.066,20.846,41.145,20.874,41.227,20.874z"/>
								</g>
							</g>
						</g>
					</g>
					<g>
						<g>
							<path fill="#663F24" d="M36.791,21.761c0,0-1.711-3.682-6.312-0.657c-4.601,3.025-4.996,2.103-4.996,2.103
								s4.864,3.553,10.125,1.318l0.789-0.66L36.791,21.761z"/>
							<path fill="#543722" d="M25.482,23.206c0,0,4.864,3.553,10.125,1.318l0.789-0.66l0.395-2.104"/>
						</g>
						<g>
							<path fill="#663F24" d="M35.867,21.761c0,0,1.709-3.682,6.311-0.657c4.602,3.025,4.996,2.103,4.996,2.103
								s-4.863,3.553-10.124,1.318l-0.79-0.66L35.867,21.761z"/>
							<path fill="#543722" d="M47.174,23.206c0,0-4.863,3.553-10.124,1.318l-0.79-0.66l-0.393-2.104"/>
						</g>
					</g>
				</g>
				<g>
					<g>
						<circle fill="#EAA10F" cx="36.328" cy="30.499" r="0.834"/>
						<circle fill="#EAA10F" cx="36.328" cy="33.249" r="0.834"/>
						<circle fill="#EAA10F" cx="36.328" cy="35.999" r="0.834"/>
						<circle fill="#EAA10F" cx="36.328" cy="38.749" r="0.834"/>
						<circle fill="#EAA10F" cx="36.328" cy="41.499" r="0.834"/>
						<circle fill="#EAA10F" cx="36.328" cy="44.249" r="0.834"/>
					</g>
				</g>
			</g>
		</g>
		<path fill="#2679A8" d="M20.942,11.208h30.771C49.437,5.286,43.417,0.5,36.33,0.5C29.24,0.5,23.22,5.286,20.942,11.208z"/>
		<path fill="#0D50A0" d="M20.942,11.208h30.771c-2.277-5.922-8.297-9.041-15.384-9.041C29.24,2.167,23.22,5.286,20.942,11.208z"/>
		<path fill="#404749" d="M54.203,12.583c0,1.138-8.003,0.883-17.875,0.883c-9.871,0-17.876,0.255-17.876-0.883
			c0-1.137,8.005-4.25,17.876-4.25C46.2,8.333,54.203,11.446,54.203,12.583z"/>
		<path fill="#232728" d="M54.203,12.583c0,1.138-8.003,0.883-17.875,0.883c-9.871,0-17.876,0.255-17.876-0.883
			c0-1.137,8.005-2.125,17.876-2.125C46.2,10.458,54.203,11.446,54.203,12.583z"/>
		<polygon fill="#EAA10F" points="36.327,2.583 37.063,4.072 38.708,4.312 37.517,5.471 37.798,7.108 36.327,6.335 34.858,7.108 
			35.138,5.471 33.948,4.312 35.593,4.072 		"/>
		<path fill="#EAA10F" d="M32.96,31.833c0,0.207-0.168,0.375-0.375,0.375H28.21c-0.207,0-0.375-0.168-0.375-0.375l0,0
			c0-0.207,0.168-0.375,0.375-0.375h4.375C32.792,31.458,32.96,31.626,32.96,31.833L32.96,31.833z"/>
		<path fill="#EAA10F" d="M32.96,33.583c0,0.207-0.168,0.375-0.375,0.375H28.21c-0.207,0-0.375-0.168-0.375-0.375l0,0
			c0-0.207,0.168-0.375,0.375-0.375h4.375C32.792,33.208,32.96,33.376,32.96,33.583L32.96,33.583z"/>
		<path fill="#EAA10F" d="M32.96,35.333c0,0.207-0.168,0.375-0.375,0.375H28.21c-0.207,0-0.375-0.168-0.375-0.375l0,0
			c0-0.207,0.168-0.375,0.375-0.375h4.375C32.792,34.958,32.96,35.126,32.96,35.333L32.96,35.333z"/>
	</g>
	<path fill="#232728" d="M13.306,33.038c0.971,0.971,8.713,10.285,7.742,11.256c-0.969,0.97-10.283-6.773-11.254-7.744
		c-0.97-0.97-0.97-2.541-0.001-3.51C10.765,32.068,12.337,32.068,13.306,33.038z"/>
</g>
</svg>
