<?xml version="1.0" encoding="utf-8"?>
<!-- Generator: Adobe Illustrator 16.0.0, SVG Export Plug-In . SVG Version: 6.00 Build 0)  -->
<!DOCTYPE svg PUBLIC "-//W3C//DTD SVG 1.1//EN" "http://www.w3.org/Graphics/SVG/1.1/DTD/svg11.dtd">
<svg version="1.1" id="Layer_1" xmlns="http://www.w3.org/2000/svg" xmlns:xlink="http://www.w3.org/1999/xlink" x="0px" y="0px"
	 width="65px" height="65px" viewBox="0 0 65 65" enable-background="new 0 0 65 65" xml:space="preserve">
<g>
	<g>
		<path fill="#113E49" d="M20.545,15.145c0,1.967-1.596,3.562-3.562,3.562h-0.215c-1.967,0-3.562-1.596-3.562-3.562l0,0
			c0-1.967,1.596-3.562,3.562-3.562h0.215C18.949,11.582,20.545,13.178,20.545,15.145L20.545,15.145z"/>
		<path fill="#113E49" d="M51.795,15.145c0,1.967-1.596,3.562-3.562,3.562h-0.215c-1.967,0-3.562-1.596-3.562-3.562l0,0
			c0-1.967,1.596-3.562,3.562-3.562h0.215C50.199,11.582,51.795,13.178,51.795,15.145L51.795,15.145z"/>
	</g>
	<g>
		<g>
			<path fill="#232728" d="M45.15,40.521c0,16.037-5.662,10.697-12.65,10.697c-6.986,0-12.65,5.34-12.65-10.697
				c0-9.17,5.666-16.604,12.65-16.604C39.486,23.918,45.15,31.352,45.15,40.521z"/>
			<g>
				<path fill="#232728" d="M29.473,46.445c0,2.477-2.008,15.828-4.486,15.828c-2.475,0-4.482-13.352-4.482-15.828
					c0-2.475,2.008-4.484,4.482-4.484C27.465,41.961,29.473,43.971,29.473,46.445z"/>
				<path fill="#232728" d="M44.498,46.445c0,2.477-2.008,15.828-4.486,15.828c-2.475,0-4.482-13.352-4.482-15.828
					c0-2.475,2.008-4.484,4.482-4.484C42.49,41.961,44.498,43.971,44.498,46.445z"/>
			</g>
			<g>
				<path fill="#3E4142" d="M30.033,62.354c0,1.896-2.26,2.146-5.045,2.146s-5.045-0.25-5.045-2.146s2.26-4.508,5.045-4.508
					S30.033,60.457,30.033,62.354z"/>
				<path fill="#232728" d="M30.033,62.354c0,1.896-2.26,2.146-5.045,2.146s-5.045-0.25-5.045-2.146"/>
			</g>
			<g>
				<path fill="#3E4142" d="M45.059,62.354c0,1.896-2.26,2.146-5.045,2.146s-5.045-0.25-5.045-2.146s2.26-4.508,5.045-4.508
					S45.059,60.457,45.059,62.354z"/>
				<path fill="#232728" d="M45.059,62.354c0,1.896-2.26,2.146-5.045,2.146s-5.045-0.25-5.045-2.146"/>
			</g>
			<g>
				<path fill="#232728" d="M31.105,26.369c1.273,1.432,0.465,4.227-1.805,6.248c-2.27,2.018-14.475,10.795-15.75,9.365
					c-1.271-1.434,8.873-12.531,11.143-14.549C26.961,25.414,29.832,24.938,31.105,26.369z"/>
				<path fill="#232728" d="M33.895,26.369c-1.273,1.432-0.465,4.227,1.805,6.248c2.27,2.018,14.475,10.795,15.75,9.365
					c1.271-1.434-8.873-12.531-11.143-14.549C38.039,25.414,35.168,24.938,33.895,26.369z"/>
			</g>
			<polygon fill="#E2DED3" points="33.125,31.584 31.875,31.584 29.875,25.832 35.125,25.832 			"/>
			<line fill="#232728" x1="34.578" y1="41.438" x2="32.5" y2="42.947"/>
			<line fill="#232728" x1="31.724" y1="28.248" x2="33.277" y2="28.248"/>
			<g>
				<path fill="#CCE5E4" d="M48.871,16.275c0,7.998-7.33,12.02-16.369,12.02c-9.041,0-16.373-4.021-16.373-12.02
					c0-8.002,7.332-15.775,16.373-15.775C41.541,0.5,48.871,8.273,48.871,16.275z"/>
				<path fill="#B4D6D5" d="M48.871,16.275c0,7.998-7.33,12.02-16.369,12.02c-9.041,0-16.373-4.021-16.373-12.02"/>
			</g>
			<g>
				<g>
					<circle fill="#113E49" cx="24.716" cy="9.207" r="1.464"/>
					<path d="M26.18,9.207c0,0.811-0.656,1.465-1.465,1.465s-1.463-0.654-1.463-1.465"/>
					<g>
						<path fill="#FFFFFF" d="M27.604,12.26c-0.078,0-0.158-0.027-0.219-0.09c-0.715-0.715-1.664-1.107-2.672-1.107h-0.002
							c-1.008,0-1.955,0.393-2.666,1.105c-0.121,0.121-0.316,0.125-0.436,0.002c-0.121-0.117-0.125-0.312-0.004-0.434
							c0.83-0.832,1.932-1.291,3.105-1.291h0.002c1.176,0,2.279,0.457,3.111,1.289c0.119,0.119,0.119,0.318,0,0.436
							C27.764,12.232,27.686,12.26,27.604,12.26z"/>
					</g>
				</g>
				<g>
					<circle fill="#113E49" cx="40.286" cy="9.207" r="1.464"/>
					<path d="M38.822,9.207c0,0.811,0.654,1.465,1.465,1.465c0.809,0,1.463-0.654,1.463-1.465"/>
					<g>
						<path fill="#FFFFFF" d="M37.398,12.26c0.076,0,0.156-0.027,0.217-0.09c0.715-0.715,1.664-1.107,2.672-1.107h0.002
							c1.008,0,1.957,0.393,2.668,1.105c0.119,0.121,0.314,0.125,0.436,0.002c0.121-0.117,0.123-0.312,0.002-0.434
							c-0.826-0.832-1.932-1.291-3.105-1.291h-0.002c-1.174,0-2.277,0.457-3.111,1.289c-0.117,0.119-0.117,0.318,0,0.436
							C37.238,12.232,37.316,12.26,37.398,12.26z"/>
					</g>
				</g>
			</g>
		</g>
	</g>
	<g>
		<g>
			<polygon fill="#CE0D4E" points="32.449,30.959 25.091,34.274 25.091,26.916 32.449,30.231 			"/>
			<polygon fill="#CE0D4E" points="32.551,30.231 39.909,26.916 39.909,34.274 32.551,30.959 			"/>
		</g>
		<path fill="#CE0D4E" d="M34.574,30.595c0,0.974-0.791,1.762-1.762,1.762h-0.625c-0.971,0-1.762-0.788-1.762-1.762l0,0
			c0-0.973,0.791-1.761,1.762-1.761h0.625C33.783,28.834,34.574,29.622,34.574,30.595L34.574,30.595z"/>
	</g>
	<g>
		<g>
			<path fill="#E21454" d="M26.301,16.119c0,1.335-0.508,2.671-1.525,3.688c-0.807,0.808-1.879,1.252-3.021,1.252
				c-1.141-0.001-2.215-0.445-3.021-1.253c-0.664-0.664-1.029-1.548-1.031-2.487v-0.001c0-0.939,0.367-1.823,1.031-2.488
				c1.139-1.138,2.988-1.138,4.125,0c0.461,0.459,0.713,1.069,0.713,1.72v0.001c0,0.649-0.252,1.261-0.713,1.721
				c-0.387,0.387-0.9,0.6-1.447,0.6s-1.061-0.213-1.447-0.6l0.707-0.707c0.197,0.198,0.461,0.307,0.74,0.307s0.543-0.109,0.74-0.307
				c0.271-0.271,0.42-0.631,0.42-1.014v-0.001c0-0.383-0.148-0.742-0.42-1.013c-0.746-0.747-1.963-0.747-2.711,0
				c-0.949,0.949-0.951,2.609,0,3.562c0.619,0.619,1.441,0.96,2.314,0.96c0.875,0,1.697-0.341,2.314-0.959
				c1.643-1.645,1.646-4.317,0-5.962l0.707-0.707C25.793,13.447,26.301,14.783,26.301,16.119z"/>
		</g>
		<g>
			<path fill="#E21454" d="M38.699,16.119c0,1.335,0.508,2.671,1.525,3.688c0.807,0.808,1.879,1.252,3.021,1.252
				c1.141-0.001,2.215-0.445,3.021-1.253c0.664-0.664,1.029-1.548,1.031-2.487v-0.001c0-0.939-0.367-1.823-1.031-2.488
				c-1.139-1.138-2.988-1.138-4.125,0c-0.461,0.459-0.713,1.069-0.713,1.72v0.001c0,0.649,0.252,1.261,0.713,1.721
				c0.387,0.387,0.9,0.6,1.447,0.6s1.061-0.213,1.447-0.6l-0.707-0.707c-0.197,0.198-0.461,0.307-0.74,0.307
				s-0.543-0.109-0.74-0.307c-0.271-0.271-0.42-0.631-0.42-1.014v-0.001c0-0.383,0.148-0.742,0.42-1.013
				c0.746-0.747,1.963-0.747,2.711,0c0.949,0.949,0.951,2.609,0,3.562c-0.619,0.619-1.441,0.96-2.314,0.96
				c-0.875,0-1.697-0.341-2.314-0.959c-1.643-1.645-1.646-4.317,0-5.962l-0.707-0.707C39.207,13.447,38.699,14.783,38.699,16.119z"
				/>
		</g>
	</g>
	<g>
		<path fill="#90B2B1" d="M28.979,27.562c0,0.311-0.252,0.563-0.562,0.563l0,0c-0.311,0-0.562-0.253-0.562-0.563v-8.125
			c0-0.311,0.252-0.562,0.562-0.562l0,0c0.311,0,0.562,0.251,0.562,0.562V27.562z"/>
		<path fill="#90B2B1" d="M37.146,27.562c0,0.311-0.252,0.563-0.562,0.563l0,0c-0.311,0-0.562-0.253-0.562-0.563v-8.125
			c0-0.311,0.252-0.562,0.562-0.562l0,0c0.311,0,0.562,0.251,0.562,0.562V27.562z"/>
	</g>
	<path fill="#930A3C" d="M37.188,18.832c0,1.035-0.84,1.875-1.875,1.875h-5.625c-1.035,0-1.875-0.84-1.875-1.875l0,0
		c0-1.035,0.84-1.875,1.875-1.875h5.625C36.348,16.957,37.188,17.797,37.188,18.832L37.188,18.832z"/>
	<path fill="#E21454" d="M35.312,18.738h-5.625c-0.711,0-1.322,0.4-1.641,0.984c0.318,0.584,0.93,0.984,1.641,0.984h5.625
		c0.711,0,1.322-0.4,1.641-0.984C36.635,19.139,36.023,18.738,35.312,18.738z"/>
	<g>
		<g>
			<path fill="#113E49" d="M18.986,11.395c0,1.139-0.923,2.062-2.062,2.062h-0.126c-1.138,0-2.062-0.924-2.062-2.062l0,0
				c0-1.139,0.925-2.062,2.062-2.062h0.126C18.063,9.332,18.986,10.256,18.986,11.395L18.986,11.395z"/>
			<path fill="#113E49" d="M19.236,9.567c0,0.87-0.706,1.577-1.576,1.577h-0.096c-0.87,0-1.578-0.707-1.578-1.577l0,0
				c0-0.871,0.708-1.577,1.578-1.577h0.096C18.53,7.99,19.236,8.696,19.236,9.567L19.236,9.567z"/>
			<path fill="#113E49" d="M20.097,7.942c0,0.731-0.595,1.327-1.327,1.327h-0.08c-0.732,0-1.327-0.596-1.327-1.327l0,0
				c0-0.733,0.595-1.327,1.327-1.327h0.08C19.502,6.615,20.097,7.209,20.097,7.942L20.097,7.942z"/>
		</g>
		<g>
			<path fill="#113E49" d="M46.013,11.395c0,1.139,0.923,2.062,2.062,2.062H48.2c1.138,0,2.062-0.924,2.062-2.062l0,0
				c0-1.139-0.925-2.062-2.062-2.062h-0.125C46.936,9.332,46.013,10.256,46.013,11.395L46.013,11.395z"/>
			<path fill="#113E49" d="M45.763,9.567c0,0.87,0.707,1.577,1.577,1.577h0.096c0.87,0,1.577-0.707,1.577-1.577l0,0
				c0-0.871-0.707-1.577-1.577-1.577H47.34C46.47,7.99,45.763,8.696,45.763,9.567L45.763,9.567z"/>
			<path fill="#113E49" d="M44.902,7.942c0,0.731,0.596,1.327,1.327,1.327h0.081c0.732,0,1.326-0.596,1.326-1.327l0,0
				c0-0.733-0.594-1.327-1.326-1.327h-0.081C45.498,6.615,44.902,7.209,44.902,7.942L44.902,7.942z"/>
		</g>
	</g>
</g>
</svg>
