<?xml version="1.0" encoding="utf-8"?>
<!-- Generator: Adobe Illustrator 16.0.0, SVG Export Plug-In . SVG Version: 6.00 Build 0)  -->
<!DOCTYPE svg PUBLIC "-//W3C//DTD SVG 1.1//EN" "http://www.w3.org/Graphics/SVG/1.1/DTD/svg11.dtd">
<svg version="1.1" id="Layer_1" xmlns="http://www.w3.org/2000/svg" xmlns:xlink="http://www.w3.org/1999/xlink" x="0px" y="0px"
	 width="65px" height="65px" viewBox="0 0 65 65" enable-background="new 0 0 65 65" xml:space="preserve">
<g>
	<g>
		<g>
			<g>
				<path fill="#D1B302" d="M31.105,26.369c1.274,1.432,0.465,4.227-1.805,6.248c-2.271,2.018-14.475,10.795-15.75,9.365
					c-1.271-1.434,8.873-12.531,11.142-14.549C26.961,25.414,29.831,24.938,31.105,26.369z"/>
				<path fill="#D1B302" d="M33.895,26.369c-1.273,1.432-0.465,4.227,1.805,6.248c2.27,2.018,14.475,10.795,15.75,9.365
					c1.271-1.434-8.873-12.531-11.143-14.549C38.039,25.414,35.168,24.938,33.895,26.369z"/>
				<g>
					<g>
						<g>
							<g>
								<path fill="#B79904" d="M44.747,46.07c0,2.477-2.007,15.828-4.485,15.828c-2.475,0-4.482-13.352-4.482-15.828
									c0-2.475,2.008-4.484,4.482-4.484C42.74,41.586,44.747,43.596,44.747,46.07z"/>
								<path fill="#B79904" d="M29.473,46.445c0,2.477-2.009,15.828-4.486,15.828c-2.476,0-4.481-13.352-4.481-15.828
									c0-2.475,2.006-4.484,4.481-4.484C27.464,41.961,29.473,43.971,29.473,46.445z"/>
								<g>
									<g>
										<path fill="#CE1111" d="M45.15,40.521c0,16.037-5.662,10.697-12.65,10.697c-6.986,0-12.65,5.34-12.65-10.697
											c0-9.17,5.665-16.604,12.65-16.604C39.486,23.918,45.15,31.352,45.15,40.521z"/>
										<path fill="#D1B302" d="M45.15,40.521c0,16.037-5.662,10.697-12.65,10.697c-6.986,0-12.65,5.34-12.65-10.697
											c0-9.17,5.665-16.604,12.65-16.604C39.486,23.918,45.15,31.352,45.15,40.521z"/>
										<path fill="#EACE00" d="M32.5,23.918c-6.764,0-12.274,6.977-12.617,15.744c0.446,13.695,5.923,8.807,12.617,8.807
											c6.696,0,12.171,4.889,12.617-8.807C44.774,30.895,39.265,23.918,32.5,23.918z"/>
										<g>
											<path fill="#232728" d="M30.033,62.354c0,1.896-2.26,2.146-5.045,2.146s-5.045-0.25-5.045-2.146s2.26-4.508,5.045-4.508
												S30.033,60.457,30.033,62.354z"/>
											<path d="M30.033,62.354c0,1.896-2.26,2.146-5.045,2.146s-5.045-0.25-5.045-2.146"/>
										</g>
										<g>
											<path fill="#232728" d="M45.059,62.354c0,1.896-2.261,2.146-5.045,2.146c-2.786,0-5.045-0.25-5.045-2.146
												s2.259-4.508,5.045-4.508C42.798,57.846,45.059,60.457,45.059,62.354z"/>
											<path d="M45.059,62.354c0,1.896-2.261,2.146-5.045,2.146c-2.786,0-5.045-0.25-5.045-2.146"/>
										</g>
										<g>
											<path fill="#D1B302" d="M22.474,30.426c2.771,1.404,6.245,2.119,10.028,2.119c3.781,0,7.254-0.715,10.025-2.119
												c-2.313-3.949-5.938-6.508-10.027-6.508C28.412,23.918,24.785,26.475,22.474,30.426z"/>
										</g>
										<polygon fill="#605B58" points="38.334,26.832 32.5,39.5 26.666,26.832 32.5,20.998 										"/>
										<path d="M36.112,24.61c-1.144-0.448-2.356-0.692-3.612-0.692s-2.47,0.243-3.612,0.692l-2.222,2.222l2.539,5.514
											c1.066,0.127,2.165,0.199,3.297,0.199c1.13,0,2.229-0.072,3.294-0.199l2.538-5.514L36.112,24.61z"/>
										<g>
											<path fill="#232728" d="M48.871,16.275c0,7.998-7.33,12.02-16.369,12.02c-9.041,0-16.372-4.021-16.372-12.02
												C16.13,8.273,23.461,0.5,32.502,0.5C41.541,0.5,48.871,8.273,48.871,16.275z"/>
											<path fill="#F7BC8F" d="M48.871,16.275c0,7.998-7.33,12.02-16.369,12.02c-9.041,0-16.372-4.021-16.372-12.02
												c0-8.002,7.331-9.443,16.372-9.443C41.541,6.832,48.871,8.273,48.871,16.275z"/>
											<path fill="#EAAF88" d="M48.871,16.275c0,7.998-7.33,12.02-16.369,12.02c-9.041,0-16.372-4.021-16.372-12.02"/>
										</g>
									</g>
								</g>
							</g>
						</g>
					</g>
					<g>
						<g>
							<circle fill="#0F83B7" cx="24.715" cy="18.332" r="1.463"/>
							<path fill="#186189" d="M26.179,18.332c0,0.811-0.655,1.465-1.465,1.465c-0.808,0-1.462-0.654-1.462-1.465"/>
							<g>
								<path fill="#FFD3C5" d="M27.604,21.387c-0.078,0-0.159-0.029-0.219-0.092c-0.714-0.713-1.664-1.107-2.671-1.107h-0.003
									c-1.008,0-1.955,0.395-2.665,1.107c-0.122,0.121-0.318,0.123-0.437,0c-0.121-0.117-0.125-0.312-0.004-0.434
									c0.83-0.83,1.932-1.289,3.105-1.289h0.003c1.175,0,2.278,0.455,3.11,1.287c0.119,0.119,0.119,0.318,0,0.436
									C27.763,21.357,27.686,21.387,27.604,21.387z"/>
							</g>
						</g>
						<g>
							<path fill="#0F83B7" d="M38.822,18.332c0,0.811,0.653,1.465,1.465,1.465c0.808,0,1.463-0.654,1.463-1.465
								c0-0.807-0.655-1.463-1.463-1.463C39.476,16.869,38.822,17.525,38.822,18.332z"/>
							<path fill="#186189" d="M38.822,18.332c0,0.811,0.653,1.465,1.465,1.465c0.808,0,1.463-0.654,1.463-1.465"/>
							<g>
								<path fill="#FFD3C5" d="M37.397,21.387c0.077,0,0.157-0.029,0.217-0.092c0.715-0.713,1.665-1.107,2.673-1.107h0.002
									c1.009,0,1.956,0.395,2.668,1.107c0.119,0.121,0.314,0.123,0.436,0c0.121-0.117,0.122-0.312,0.002-0.434
									c-0.826-0.83-1.931-1.289-3.105-1.289h-0.002c-1.175,0-2.277,0.455-3.111,1.287c-0.117,0.119-0.117,0.318,0,0.436
									C37.238,21.357,37.316,21.387,37.397,21.387z"/>
							</g>
						</g>
					</g>
				</g>
			</g>
		</g>
		<path fill="#605B58" d="M33.166,48.916c0,0.367-0.297,0.666-0.666,0.666l0,0c-0.367,0-0.666-0.299-0.666-0.666V38.082
			c0-0.369,0.299-0.667,0.666-0.667l0,0c0.369,0,0.666,0.298,0.666,0.667V48.916z"/>
		<g>
			<g>
				<path fill="#227FEF" d="M16.791,42.5c0,1.52-1.231,2.75-2.75,2.75l0,0c-1.52,0-2.75-1.23-2.75-2.75l0,0
					c0-1.52,1.23-2.75,2.75-2.75l0,0C15.56,39.75,16.791,40.98,16.791,42.5L16.791,42.5z"/>
				<path fill="#0A5BDD" d="M14.041,39.75L14.041,39.75c1.519,0,2.75,1.23,2.75,2.75l0,0c0,1.52-1.231,2.75-2.75,2.75l0,0"/>
			</g>
			<g>
				<path fill="#227FEF" d="M48.207,42.5c0-1.521,1.23-2.752,2.75-2.752l0,0c1.519,0,2.752,1.23,2.752,2.752l0,0
					c0,1.518-1.233,2.75-2.752,2.75l0,0C49.438,45.25,48.207,44.018,48.207,42.5L48.207,42.5z"/>
				<path fill="#0A5BDD" d="M50.957,45.25L50.957,45.25c-1.52,0-2.75-1.232-2.75-2.75l0,0c0-1.521,1.23-2.752,2.75-2.752l0,0"/>
			</g>
		</g>
	</g>
	<g>
		<g>
			<path fill="#232728" d="M22.236,4.551c0.42,0.418,0.42,1.1,0,1.518l-2.89,2.891c-0.42,0.42-1.102,0.419-1.52,0l0,0
				c-0.419-0.419-0.419-1.1,0-1.521l2.89-2.888C21.137,4.129,21.816,4.129,22.236,4.551L22.236,4.551z"/>
			<path fill="#CC1D00" d="M21.943,1.903c0.643,0.644,0.643,1.688,0,2.331l-4.43,4.429c-0.645,0.646-1.688,0.644-2.333,0l0,0
				c-0.642-0.642-0.642-1.687,0-2.329l4.431-4.431C20.256,1.261,21.298,1.261,21.943,1.903L21.943,1.903z"/>
			<path fill="#FF7212" d="M19.611,1.903l-4.431,4.431c-0.438,0.439-0.569,1.066-0.407,1.625c0.558,0.162,1.186,0.03,1.624-0.41
				l4.431-4.429c0.439-0.44,0.569-1.067,0.41-1.625C20.678,1.332,20.053,1.463,19.611,1.903z"/>
		</g>
		<g>
			<path fill="#232728" d="M42.763,4.551c-0.42,0.418-0.42,1.1,0,1.518l2.89,2.891c0.42,0.42,1.103,0.419,1.521,0l0,0
				c0.419-0.419,0.419-1.1,0-1.521l-2.89-2.888C43.863,4.129,43.184,4.129,42.763,4.551L42.763,4.551z"/>
			<path fill="#CC1D00" d="M43.057,1.903c-0.644,0.644-0.644,1.688,0,2.331l4.43,4.429c0.644,0.646,1.688,0.644,2.332,0l0,0
				c0.643-0.642,0.643-1.687,0-2.329l-4.43-4.431C44.744,1.261,43.701,1.261,43.057,1.903L43.057,1.903z"/>
			<path fill="#FF7212" d="M45.389,1.903l4.43,4.431c0.439,0.439,0.57,1.066,0.408,1.625c-0.559,0.162-1.186,0.03-1.625-0.41
				l-4.43-4.429c-0.44-0.44-0.57-1.067-0.41-1.625C44.322,1.332,44.947,1.463,45.389,1.903z"/>
		</g>
	</g>
</g>
</svg>
