<?xml version="1.0" encoding="utf-8"?>
<!-- Generator: Adobe Illustrator 16.0.0, SVG Export Plug-In . SVG Version: 6.00 Build 0)  -->
<!DOCTYPE svg PUBLIC "-//W3C//DTD SVG 1.1//EN" "http://www.w3.org/Graphics/SVG/1.1/DTD/svg11.dtd">
<svg version="1.1" id="Layer_1" xmlns="http://www.w3.org/2000/svg" xmlns:xlink="http://www.w3.org/1999/xlink" x="0px" y="0px"
	 width="65px" height="65px" viewBox="0 0 65 65" enable-background="new 0 0 65 65" xml:space="preserve">
<g>
	<g>
		<g>
			<path fill="#7C0909" d="M29.473,46.446c0,2.476-2.008,15.827-4.486,15.827c-2.475,0-4.482-13.352-4.482-15.827
				s2.008-4.484,4.482-4.484C27.465,41.962,29.473,43.971,29.473,46.446z"/>
			<path fill="#7C0909" d="M44.498,46.446c0,2.476-2.008,15.827-4.486,15.827c-2.475,0-4.482-13.352-4.482-15.827
				s2.008-4.484,4.482-4.484C42.49,41.962,44.498,43.971,44.498,46.446z"/>
		</g>
		<path fill="#AA1111" d="M45.15,40.521c0,16.038-5.662,10.697-12.65,10.697c-6.986,0-12.65,5.341-12.65-10.697
			c0-9.17,5.666-16.603,12.65-16.603C39.486,23.919,45.15,31.352,45.15,40.521z"/>
		<g>
			<path fill="#8D97A0" d="M30.033,62.354c0,1.896-2.26,2.146-5.045,2.146s-5.045-0.249-5.045-2.146c0-1.897,2.26-4.508,5.045-4.508
				S30.033,60.457,30.033,62.354z"/>
			<path fill="#79848C" d="M30.033,62.354c0,1.896-2.26,2.146-5.045,2.146s-5.045-0.249-5.045-2.146"/>
		</g>
		<g>
			<path fill="#8D97A0" d="M45.059,62.354c0,1.896-2.26,2.146-5.045,2.146s-5.045-0.249-5.045-2.146c0-1.897,2.26-4.508,5.045-4.508
				S45.059,60.457,45.059,62.354z"/>
			<path fill="#79848C" d="M45.059,62.354c0,1.896-2.26,2.146-5.045,2.146s-5.045-0.249-5.045-2.146"/>
		</g>
		<g>
			<path fill="#AA1111" d="M31.105,26.369c1.273,1.432,0.465,4.228-1.805,6.249c-2.27,2.018-14.475,10.794-15.75,9.365
				c-1.271-1.434,8.873-12.532,11.143-14.55C26.961,25.415,29.832,24.938,31.105,26.369z"/>
			<path fill="#AA1111" d="M33.895,26.369c-1.273,1.432-0.465,4.228,1.805,6.249c2.27,2.018,14.475,10.794,15.75,9.365
				c1.271-1.434-8.873-12.532-11.143-14.55C38.039,25.415,35.168,24.938,33.895,26.369z"/>
		</g>
		<rect x="29.875" y="25.833" fill="#E2DED3" width="5.25" height="17.917"/>
		<path fill="#C6BFAF" d="M29.875,30.165c0.857,0.079,1.73,0.13,2.627,0.13c0.895,0,1.768-0.051,2.623-0.13v-4.332h-5.25V30.165z"/>
		<polygon fill="#444849" points="33.277,28.249 34.578,41.438 32.5,42.948 30.422,41.438 31.724,28.249 		"/>
		<g>
			<path fill="#F9C1AC" d="M48.871,16.275c0,7.999-7.33,12.02-16.369,12.02c-9.041,0-16.373-4.021-16.373-12.02
				c0-8.001,7.332-15.775,16.373-15.775C41.541,0.5,48.871,8.274,48.871,16.275z"/>
			<path fill="#F2B09C" d="M48.871,16.275c0,7.999-7.33,12.02-16.369,12.02c-9.041,0-16.373-4.021-16.373-12.02"/>
		</g>
		<g>
			<g>
				<circle fill="#113E49" cx="24.716" cy="16.056" r="1.464"/>
				<path d="M26.18,16.056c0,0.811-0.656,1.465-1.465,1.465s-1.463-0.654-1.463-1.465"/>
				<g>
					<path fill="#FFD3C5" d="M27.604,19.109c-0.078,0-0.158-0.028-0.219-0.091c-0.715-0.714-1.664-1.107-2.672-1.107h-0.002
						c-1.008,0-1.955,0.394-2.666,1.106c-0.121,0.121-0.316,0.124-0.436,0.001c-0.121-0.117-0.125-0.312-0.004-0.434
						c0.83-0.831,1.932-1.29,3.105-1.29h0.002c1.176,0,2.279,0.456,3.111,1.288c0.119,0.119,0.119,0.318,0,0.436
						C27.764,19.081,27.686,19.109,27.604,19.109z"/>
				</g>
			</g>
			<g>
				<circle fill="#113E49" cx="40.286" cy="16.056" r="1.464"/>
				<path d="M38.822,16.056c0,0.811,0.654,1.465,1.465,1.465c0.809,0,1.463-0.654,1.463-1.465"/>
				<g>
					<path fill="#FFD3C5" d="M37.398,19.109c0.076,0,0.156-0.028,0.217-0.091c0.715-0.714,1.664-1.107,2.672-1.107h0.002
						c1.008,0,1.957,0.394,2.668,1.106c0.119,0.121,0.314,0.124,0.436,0.001c0.121-0.117,0.123-0.312,0.002-0.434
						c-0.826-0.831-1.932-1.29-3.105-1.29h-0.002c-1.174,0-2.277,0.456-3.111,1.288c-0.117,0.119-0.117,0.318,0,0.436
						C37.238,19.081,37.316,19.109,37.398,19.109z"/>
				</g>
			</g>
		</g>
	</g>
	<path fill="#DDA507" d="M32.502,0.5c-0.227,0-0.445,0.026-0.669,0.036c-0.114,0.15-0.208,0.31-0.265,0.484
		c-0.774,2.388,4.188,6.139,11.084,8.372c1.738,0.563,3.434,0.976,5.01,1.241C45.227,4.979,39.361,0.5,32.502,0.5z"/>
	<path fill="#F4BB03" d="M39.791,2.294C37.594,1.169,35.124,0.5,32.502,0.5c-6.9,0-12.793,4.532-15.203,10.233
		c2.581,0.587,6.879,0.152,11.488-1.341C34.551,7.525,38.952,4.599,39.791,2.294z"/>
	<path fill="#8D97A0" d="M35.15,45.626c0,0.667-0.541,1.208-1.209,1.208h-2.832c-0.668,0-1.209-0.541-1.209-1.208l0,0
		c0-0.668,0.541-1.209,1.209-1.209h2.832C34.609,44.417,35.15,44.958,35.15,45.626L35.15,45.626z"/>
	<path fill="#A7B1B7" d="M33.941,44.417h-2.832c-0.552,0-0.998,0.376-1.143,0.881c0.145,0.504,0.591,0.88,1.143,0.88h2.832
		c0.552,0,0.998-0.376,1.143-0.88C34.939,44.793,34.493,44.417,33.941,44.417z"/>
	<path fill="#AA1111" d="M28.891,22.015c0-1.303,1.617-2.361,3.609-2.361s3.609,1.059,3.609,2.361c0,1.305-1.617,0.525-3.609,0.525
		S28.891,23.319,28.891,22.015z"/>
</g>
</svg>
