<?xml version="1.0" encoding="utf-8"?>
<!-- Generator: Adobe Illustrator 16.0.0, SVG Export Plug-In . SVG Version: 6.00 Build 0)  -->
<!DOCTYPE svg PUBLIC "-//W3C//DTD SVG 1.1//EN" "http://www.w3.org/Graphics/SVG/1.1/DTD/svg11.dtd">
<svg version="1.1" id="Layer_1" xmlns="http://www.w3.org/2000/svg" xmlns:xlink="http://www.w3.org/1999/xlink" x="0px" y="0px"
	 width="65px" height="65px" viewBox="0 0 65 65" enable-background="new 0 0 65 65" xml:space="preserve">
<g>
	<g>
		<g>
			<g>
				<g>
					<g>
						<path fill="#AF5145" d="M33.895,36.127c-1.273-1.432-0.465-4.229,1.806-6.25c2.269-2.018,14.473-10.792,15.749-9.365
							c1.271,1.434-8.874,12.533-11.144,14.551C38.039,37.08,35.168,37.557,33.895,36.127z"/>
						<path fill="#AF5145" d="M31.105,36.127c1.273-1.432,0.465-4.229-1.805-6.25c-2.27-2.018-14.476-10.792-15.75-9.365
							c-1.271,1.434,8.873,12.533,11.142,14.551S29.832,37.557,31.105,36.127z"/>
					</g>
					<g>
						<path fill="#1267CC" d="M29.473,46.446c0,2.476-2.008,15.827-4.486,15.827c-2.475,0-4.482-13.352-4.482-15.827
							s2.008-4.484,4.482-4.484C27.465,41.962,29.473,43.971,29.473,46.446z"/>
						<path fill="#1267CC" d="M44.498,46.446c0,2.476-2.007,15.827-4.486,15.827c-2.475,0-4.482-13.352-4.482-15.827
							s2.008-4.484,4.482-4.484C42.491,41.962,44.498,43.971,44.498,46.446z"/>
					</g>
					<path fill="#9B3F38" d="M45.15,40.521c0,16.038-5.662,10.697-12.65,10.697c-6.986,0-12.65,5.341-12.65-10.697
						c0-9.17,5.666-16.603,12.65-16.603C39.486,23.919,45.15,31.352,45.15,40.521z"/>
					<path fill="#AF5145" d="M32.5,23.919c-6.559,0-11.953,6.555-12.587,14.946c0.638,12.682,6.03,7.979,12.587,7.979
						c6.559,0,11.949,4.703,12.586-7.979C44.453,30.474,39.061,23.919,32.5,23.919z"/>
					<path fill="#3D3C39" d="M33.188,46.896c0,0.38-0.308,0.688-0.688,0.688l0,0c-0.381,0-0.688-0.308-0.688-0.688V30.771
						c0-0.38,0.307-0.688,0.688-0.688l0,0c0.38,0,0.688,0.308,0.688,0.688V46.896z"/>
					<ellipse fill="#990707" cx="32.5" cy="26.254" rx="8.834" ry="5.75"/>
					<g>
						<path fill="#3D3C39" d="M30.033,62.354c0,1.896-2.26,2.146-5.045,2.146s-5.046-0.249-5.046-2.146
							c0-1.897,2.261-4.508,5.046-4.508S30.033,60.457,30.033,62.354z"/>
						<path fill="#1C1B1A" d="M30.033,62.354c0,1.896-2.26,2.146-5.045,2.146s-5.046-0.249-5.046-2.146"/>
					</g>
					<g>
						<path fill="#3D3C39" d="M45.058,62.354c0,1.896-2.259,2.146-5.044,2.146s-5.045-0.249-5.045-2.146
							c0-1.897,2.26-4.508,5.045-4.508S45.058,60.457,45.058,62.354z"/>
						<path fill="#1C1B1A" d="M45.058,62.354c0,1.896-2.259,2.146-5.044,2.146s-5.045-0.249-5.045-2.146"/>
					</g>
					<g>
						<path fill="#EFC286" d="M48.871,16.275c0,7.999-7.331,12.02-16.369,12.02c-9.041,0-16.373-4.021-16.373-12.02
							c0-8.001,7.332-15.775,16.373-15.775C41.54,0.5,48.871,8.274,48.871,16.275z"/>
						<path fill="#E8B374" d="M48.871,16.275c0,7.999-7.331,12.02-16.369,12.02c-9.041,0-16.373-4.021-16.373-12.02"/>
					</g>
					<g>
						<g>
							<g>
								<path fill="#232728" d="M27.604,14.428c-0.079,0-0.158-0.028-0.219-0.091c-0.715-0.714-1.664-1.107-2.672-1.107h-0.002
									c-1.008,0-1.955,0.394-2.666,1.106c-0.121,0.121-0.316,0.124-0.437,0.001c-0.12-0.117-0.124-0.312-0.003-0.434
									c0.83-0.831,1.932-1.29,3.105-1.29h0.002c1.176,0,2.278,0.456,3.112,1.288c0.117,0.119,0.117,0.318,0,0.436
									C27.764,14.399,27.686,14.428,27.604,14.428z"/>
							</g>
						</g>
						<g>
							<g>
								<path fill="#232728" d="M37.398,14.428c0.075,0,0.154-0.028,0.218-0.091c0.714-0.714,1.663-1.107,2.671-1.107h0.001
									c1.009,0,1.958,0.394,2.668,1.106c0.119,0.121,0.313,0.124,0.436,0.001c0.122-0.117,0.124-0.312,0.003-0.434
									c-0.826-0.831-1.932-1.29-3.106-1.29h-0.001c-1.174,0-2.278,0.456-3.112,1.288c-0.117,0.119-0.117,0.318,0,0.436
									C37.238,14.399,37.316,14.428,37.398,14.428z"/>
							</g>
						</g>
					</g>
				</g>
				<path fill="#A7B1B7" d="M35.084,45.298"/>
				<path fill="#870E0E" d="M36.108,16.634c0,2.514-1.617,4.555-3.608,4.555c-1.992,0-3.61-2.041-3.61-4.555
					c0-2.518,1.618-1.014,3.61-1.014C34.491,15.62,36.108,14.116,36.108,16.634z"/>
				<path fill="#AA1111" d="M32.498,17.509c-1.182,0-2.221,0.729-2.881,1.839c0.66,1.112,1.7,1.841,2.883,1.841
					s2.224-0.729,2.882-1.839C34.724,18.238,33.683,17.509,32.498,17.509z"/>
			</g>
			<path fill="#CE1111" d="M17.53,10.208H47.47C44.929,4.757,39.186,0.5,32.502,0.5C25.815,0.5,20.073,4.757,17.53,10.208z"/>
			<path fill="#1267CC" d="M32.502,0.5c-5.657,0-10.63,3.052-13.57,7.291h27.137C43.13,3.552,38.157,0.5,32.502,0.5z"/>
			<path fill="#2186EA" d="M32.502,0.5c-5.657,0-10.63,3.052-13.57,7.291"/>
		</g>
		<g>
			<rect x="31.924" y="0.5" fill="#CE1111" width="1.154" height="3.96"/>
			
				<rect x="31.924" y="0.501" transform="matrix(0.7067 0.7075 -0.7075 0.7067 11.2875 -22.2673)" fill="#CE1111" width="1.153" height="3.958"/>
			<rect x="30.521" y="1.902" fill="#CE1111" width="3.957" height="1.154"/>
			
				<rect x="31.922" y="0.501" transform="matrix(-0.7088 0.7054 -0.7054 -0.7088 57.2822 -18.6908)" fill="#CE1111" width="1.155" height="3.955"/>
		</g>
		<g>
			<circle fill="#CE1111" cx="14.5" cy="20.482" r="2.062"/>
			<circle fill="#CE1111" cx="50.5" cy="20.482" r="2.062"/>
		</g>
	</g>
	<circle fill="#3D3C39" cx="29.359" cy="34.521" r="0.604"/>
	<circle fill="#3D3C39" cx="29.359" cy="39.166" r="0.604"/>
	<circle fill="#3D3C39" cx="29.359" cy="43.812" r="0.604"/>
</g>
</svg>
