<?xml version="1.0" encoding="utf-8"?>
<!-- Generator: Adobe Illustrator 16.0.0, SVG Export Plug-In . SVG Version: 6.00 Build 0)  -->
<!DOCTYPE svg PUBLIC "-//W3C//DTD SVG 1.1//EN" "http://www.w3.org/Graphics/SVG/1.1/DTD/svg11.dtd">
<svg version="1.1" id="Layer_1" xmlns="http://www.w3.org/2000/svg" xmlns:xlink="http://www.w3.org/1999/xlink" x="0px" y="0px"
	 width="65px" height="65px" viewBox="0 0 65 65" enable-background="new 0 0 65 65" xml:space="preserve">
<g>
	<path fill="#2A5263" d="M50.152,53.5c0,1.104-0.896,2-2,2h-5.666c-1.105,0-2-0.896-2-2V37.833c0-1.104,0.895-2,2-2h5.666
		c1.104,0,2,0.896,2,2V53.5z"/>
	<path fill="#1A3944" d="M45.4,53.5c0,1.104-0.896,2-2,2h-5.666c-1.104,0-2-0.896-2-2V37.833c0-1.104,0.896-2,2-2H43.4
		c1.104,0,2,0.896,2,2V53.5z"/>
	<g>
		<g>
			<g>
				<g>
					<g>
						<path fill="#A3BBC1" d="M33.895,36.127c-1.273-1.432-0.465-4.229,1.805-6.25c2.27-2.018,14.475-10.793,15.75-9.365
							c1.271,1.434-8.873,12.533-11.143,14.551C38.039,37.08,35.168,37.557,33.895,36.127z"/>
						<path fill="#A3BBC1" d="M31.105,36.127c1.273-1.432,0.465-4.229-1.805-6.25c-2.27-2.018-14.475-10.793-15.75-9.365
							c-1.271,1.434,8.873,12.533,11.143,14.551C26.961,37.08,29.832,37.557,31.105,36.127z"/>
						<path fill="#D39959" d="M21.902,24.46c-3.781-2.511-7.662-4.72-8.352-3.948c-0.672,0.757,1.843,4.212,4.698,7.601
							L21.902,24.46z"/>
						<path fill="#D39959" d="M47.077,27.722c2.717-3.26,5.018-6.482,4.372-7.21c-0.664-0.742-4.28,1.274-7.919,3.663L47.077,27.722
							z"/>
					</g>
					<g>
						<path fill="#44748E" d="M29.473,46.446c0,2.476-2.008,15.827-4.486,15.827c-2.475,0-4.482-13.352-4.482-15.827
							s2.008-4.484,4.482-4.484C27.465,41.962,29.473,43.971,29.473,46.446z"/>
						<path fill="#44748E" d="M44.498,46.446c0,2.476-2.008,15.827-4.486,15.827c-2.475,0-4.482-13.352-4.482-15.827
							s2.008-4.484,4.482-4.484C42.49,41.962,44.498,43.971,44.498,46.446z"/>
					</g>
					<path fill="#A3BBC1" d="M45.15,40.521c0,16.038-5.662,10.697-12.65,10.697c-6.986,0-12.65,5.341-12.65-10.697
						c0-9.17,5.666-16.603,12.65-16.603C39.486,23.919,45.15,31.352,45.15,40.521z"/>
					<g>
						<g>
							<path fill="#718B91" d="M32.088,40.362c-0.126-0.372-0.477-0.64-0.891-0.64c-0.52,0-0.916,0.421-0.939,0.94
								c-0.028,0.604,0.395,1.676,1.822,2.221l0.008,0.002V40.362z"/>
							<path fill="#718B91" d="M32.079,40.362c0.127-0.372,0.477-0.64,0.891-0.64c0.519,0,0.915,0.421,0.939,0.94
								c0.028,0.604-0.395,1.676-1.823,2.221l-0.007,0.002V40.362z"/>
						</g>
						<g>
							<path fill="#718B91" d="M32.072,37.403v-0.006l0.01,0.002l0.012-0.002v0.006c2.376,0.908,3.799,2.312,4.569,3.682
								c0.582-1.035,0.792-2.049,0.755-2.81c-0.07-1.515-1.229-2.747-2.746-2.747c-1.197,0-2.213,0.769-2.59,1.838
								c-0.374-1.069-1.391-1.838-2.588-1.838c-1.518,0-2.676,1.232-2.747,2.747c-0.035,0.761,0.175,1.774,0.757,2.81
								C28.274,39.716,29.697,38.311,32.072,37.403z"/>
							<path fill="#718B91" d="M32.094,44.766v0.007l-0.012-0.004l-0.01,0.004v-0.007c-2.375-0.908-3.798-2.313-4.568-3.681
								c-0.582,1.034-0.792,2.048-0.757,2.809c0.071,1.515,1.229,2.746,2.747,2.746c1.197,0,2.213-0.768,2.588-1.838
								c0.377,1.07,1.393,1.838,2.59,1.838c1.518,0,2.676-1.231,2.746-2.746c0.037-0.761-0.173-1.774-0.755-2.809
								C35.893,42.452,34.47,43.857,32.094,44.766z"/>
						</g>
					</g>
					<circle fill="#D39959" cx="32.797" cy="27.333" r="3.375"/>
					<path fill="#44748E" d="M46.693,43.616c1.014,1.015,1.256,2.418,0.541,3.135l0,0c-0.715,0.715-2.119,0.471-3.133-0.543
						L27.053,29.161c-1.016-1.018-1.258-2.42-0.541-3.135l0,0c0.714-0.717,2.117-0.475,3.133,0.541L46.693,43.616z"/>
					<g>
						<path fill="#FF7300" d="M30.033,62.354c0,1.896-2.26,2.146-5.045,2.146s-5.045-0.249-5.045-2.146
							c0-1.897,2.26-4.508,5.045-4.508S30.033,60.457,30.033,62.354z"/>
						<path fill="#FF4800" d="M30.033,62.354c0,1.896-2.26,2.146-5.045,2.146s-5.045-0.249-5.045-2.146"/>
					</g>
					<g>
						<path fill="#FF7300" d="M45.059,62.354c0,1.896-2.26,2.146-5.045,2.146s-5.045-0.249-5.045-2.146
							c0-1.897,2.26-4.508,5.045-4.508S45.059,60.457,45.059,62.354z"/>
						<path fill="#FF4800" d="M45.059,62.354c0,1.896-2.26,2.146-5.045,2.146s-5.045-0.249-5.045-2.146"/>
					</g>
					<g>
						<path fill="#EFC286" d="M48.871,16.275c0,7.999-7.33,12.02-16.369,12.02c-9.041,0-16.373-4.021-16.373-12.02
							c0-8.001,7.332-15.775,16.373-15.775C41.541,0.5,48.871,8.274,48.871,16.275z"/>
						<path fill="#E8B374" d="M48.871,16.275c0,7.999-7.33,12.02-16.369,12.02c-9.041,0-16.373-4.021-16.373-12.02"/>
					</g>
					<g>
						<g>
							<g>
								<path fill="#232728" d="M29.02,21.011c-0.078,0-0.158-0.028-0.219-0.091c-0.715-0.714-1.664-1.107-2.672-1.107h-0.002
									c-1.008,0-1.955,0.394-2.666,1.106c-0.121,0.121-0.316,0.124-0.436,0.001c-0.121-0.117-0.125-0.312-0.004-0.434
									c0.83-0.831,1.932-1.29,3.105-1.29h0.002c1.176,0,2.279,0.456,3.111,1.288c0.119,0.119,0.119,0.318,0,0.436
									C29.18,20.982,29.102,21.011,29.02,21.011z"/>
							</g>
						</g>
						<g>
							<g>
								<path fill="#232728" d="M38.814,21.011c0.076,0,0.156-0.028,0.217-0.091c0.715-0.714,1.664-1.107,2.672-1.107h0.002
									c1.008,0,1.957,0.394,2.668,1.106c0.119,0.121,0.314,0.124,0.436,0.001c0.121-0.117,0.123-0.312,0.002-0.434
									c-0.826-0.831-1.932-1.29-3.105-1.29h-0.002c-1.174,0-2.277,0.456-3.111,1.288c-0.117,0.119-0.117,0.318,0,0.436
									C38.654,20.982,38.732,21.011,38.814,21.011z"/>
							</g>
						</g>
					</g>
				</g>
				<path fill="#A7B1B7" d="M35.084,45.298"/>
			</g>
			<path fill="#FF8B00" d="M18.645,8.215c2.887,2.177,6.401-2.382,12.09-2.382c4.599,0,9.053,1.51,12,0
				c1.119,0.574,3.581,4.609,5.005,4.999C45.356,5.085,39.44,0.5,32.502,0.5C26.657,0.5,21.542,3.757,18.645,8.215z"/>
		</g>
	</g>
</g>
</svg>
