<?xml version="1.0" encoding="utf-8"?>
<!-- Generator: Adobe Illustrator 16.0.0, SVG Export Plug-In . SVG Version: 6.00 Build 0)  -->
<!DOCTYPE svg PUBLIC "-//W3C//DTD SVG 1.1//EN" "http://www.w3.org/Graphics/SVG/1.1/DTD/svg11.dtd">
<svg version="1.1" id="Layer_1" xmlns="http://www.w3.org/2000/svg" xmlns:xlink="http://www.w3.org/1999/xlink" x="0px" y="0px"
	 width="65px" height="65px" viewBox="0 0 65 65" enable-background="new 0 0 65 65" xml:space="preserve">
<g>
	<g>
		<g>
			<path fill="#890628" d="M22.438,26.333c0,0-1,2.375-10.375,4s-10.5,5.125-7.125,6.875s-4.375,0.75,0,5.625
				s11.125,1.75,10.5,4.375s9.125,5.75,12.75,2.25s15-2.625,15.125,0.375s6.125-21.5-8.625-22.875S22.438,26.333,22.438,26.333z"/>
			<g>
				<g>
					<g>
						<path fill="#F9D49D" d="M28.191,26.369c1.273,1.432,0.465,4.228-1.805,6.249c-2.27,2.018-14.475,10.794-15.75,9.365
							c-1.271-1.434,8.873-12.532,11.143-14.55C24.047,25.415,26.918,24.938,28.191,26.369z"/>
						<path fill="#F9D49D" d="M30.98,26.369c-1.273,1.432-0.465,4.228,1.805,6.249c2.27,2.018,14.475,10.794,15.75,9.365
							c1.271-1.434-8.873-12.532-11.143-14.55C35.125,25.415,32.254,24.938,30.98,26.369z"/>
					</g>
					<g>
						<g>
							<g>
								<g>
									<g>
										<path fill="#0265B7" d="M41.584,46.446c0,2.476-2.008,15.827-4.486,15.827c-2.475,0-4.482-13.352-4.482-15.827
											s2.008-4.484,4.482-4.484C39.576,41.962,41.584,43.971,41.584,46.446z"/>
										<path fill="#0265B7" d="M26.559,46.446c0,2.476-2.008,15.827-4.486,15.827c-2.475,0-4.482-13.352-4.482-15.827
											s2.008-4.484,4.482-4.484C24.551,41.962,26.559,43.971,26.559,46.446z"/>
										<g>
											<g>
												<path d="M42.236,40.521c0,16.038-5.662,10.697-12.65,10.697c-6.986,0-12.65,5.341-12.65-10.697
													c0-9.17,5.666-16.603,12.65-16.603C36.572,23.919,42.236,31.352,42.236,40.521z"/>
												<path fill="#890628" d="M20.705,28.705c2.561,1.054,5.605,1.59,8.883,1.59c3.275,0,6.32-0.536,8.879-1.589
													c-2.285-2.958-5.42-4.787-8.881-4.787S22.99,25.747,20.705,28.705z"/>
												<g>
													<path fill="#EFC206" d="M18.648,54.085c0.699,3.466,1.691,6.945,2.814,7.916h1.219c1.125-0.971,2.119-4.45,2.816-7.916
														H18.648z"/>
													<path fill="#EFC206" d="M33.674,54.085c0.699,3.466,1.691,6.945,2.814,7.916h1.219c1.125-0.971,2.119-4.45,2.816-7.916
														H33.674z"/>
												</g>
												<g>
													<path fill="#FFD527" d="M27.119,62.354c0,1.896-2.26,2.146-5.045,2.146s-5.045-0.249-5.045-2.146
														c0-1.897,2.26-4.508,5.045-4.508S27.119,60.457,27.119,62.354z"/>
													<path fill="#EDB107" d="M27.119,62.354c0,1.896-2.26,2.146-5.045,2.146s-5.045-0.249-5.045-2.146"/>
												</g>
												<g>
													<path fill="#FFD527" d="M42.145,62.354c0,1.896-2.26,2.146-5.045,2.146s-5.045-0.249-5.045-2.146
														c0-1.897,2.26-4.508,5.045-4.508S42.145,60.457,42.145,62.354z"/>
													<path fill="#EDB107" d="M42.145,62.354c0,1.896-2.26,2.146-5.045,2.146s-5.045-0.249-5.045-2.146"/>
												</g>
												<g>
													<path fill="#F9D49D" d="M45.957,16.275c0,7.999-7.33,12.02-16.369,12.02c-9.041,0-16.373-4.021-16.373-12.02
														c0-8.001,7.332-15.775,16.373-15.775C38.627,0.5,45.957,8.274,45.957,16.275z"/>
													<path fill="#F4CB89" d="M45.957,16.275c0,7.999-7.33,12.745-16.369,12.745c-9.041,0-16.373-4.746-16.373-12.745"/>
												</g>
											</g>
										</g>
									</g>
								</g>
							</g>
						</g>
					</g>
				</g>
			</g>
			<g>
				<g>
					<circle fill="#113E49" cx="21.802" cy="15.917" r="1.464"/>
					<path d="M23.266,15.917c0,0.811-0.656,1.465-1.465,1.465s-1.463-0.654-1.463-1.465"/>
					<g>
						<path fill="#F9D49D" d="M24.689,18.971c-0.078,0-0.158-0.028-0.219-0.091c-0.715-0.714-1.664-1.107-2.672-1.107h-0.002
							c-1.008,0-1.955,0.394-2.666,1.106C19.01,19,18.814,19.003,18.695,18.88c-0.121-0.117-0.125-0.312-0.004-0.434
							c0.83-0.831,1.932-1.29,3.105-1.29h0.002c1.176,0,2.279,0.456,3.111,1.288c0.119,0.119,0.119,0.318,0,0.436
							C24.85,18.942,24.771,18.971,24.689,18.971z"/>
					</g>
				</g>
				<g>
					<circle fill="#113E49" cx="37.372" cy="15.917" r="1.464"/>
					<path d="M35.908,15.917c0,0.811,0.654,1.465,1.465,1.465c0.809,0,1.463-0.654,1.463-1.465"/>
					<g>
						<path fill="#F9D49D" d="M34.484,18.971c0.076,0,0.156-0.028,0.217-0.091c0.715-0.714,1.664-1.107,2.672-1.107h0.002
							c1.008,0,1.957,0.394,2.668,1.106c0.119,0.121,0.314,0.124,0.436,0.001c0.121-0.117,0.123-0.312,0.002-0.434
							c-0.826-0.831-1.932-1.29-3.105-1.29h-0.002c-1.174,0-2.277,0.456-3.111,1.288c-0.117,0.119-0.117,0.318,0,0.436
							C34.324,18.942,34.402,18.971,34.484,18.971z"/>
					</g>
				</g>
			</g>
			<path fill="#890628" d="M26.398,19.518c0-1.76,1.428-3.188,3.188-3.188s3.188,1.428,3.188,3.188s-1.428,1.562-3.188,1.562
				S26.398,21.277,26.398,19.518z"/>
		</g>
	</g>
	<path fill="#EFC206" d="M17.531,9.771c0,0-0.146,0.259-0.359,0.703c-0.926,1.93-3.133,7.352-0.391,10.297l-2.125-1.125
		c0,0,1.625,3.5,1.625,6.125c0,0-2-2.375-3.5-3.125l0.375,2.25c0,0-4.25-4.625-1.5-9.875l-3,1.625c0,0,2.625-4.5,4.375-5.125
		s2-2.125,2-2.125L17.531,9.771z"/>
	<path fill="#EFC206" d="M41.645,9.771c0,0,0.146,0.259,0.359,0.703c0.926,1.93,3.133,7.352,0.391,10.297l2.125-1.125
		c0,0-1.625,3.5-1.625,6.125c0,0,2-2.375,3.5-3.125l-0.375,2.25c0,0,4.25-4.625,1.5-9.875l3,1.625c0,0-2.625-4.5-4.375-5.125
		s-2-2.125-2-2.125L41.645,9.771z"/>
	<path fill="#9FAAAD" d="M14.553,10.333h30.066C42.107,4.82,36.324,0.5,29.588,0.5C22.85,0.5,17.064,4.82,14.553,10.333z"/>
	<path fill="#AFBABC" d="M29.588,0.5c-5.338,0-10.07,2.716-13.059,6.583h26.113C39.654,3.216,34.924,0.5,29.588,0.5z"/>
	<g>
		<g>
			<path fill="#D8D7B6" d="M17.012,9.417c0,0,0.064-0.143,0.129-0.383c0.27-1.01,0.537-3.726-4.045-4.534c-5.668-1-5.084-2-5.084-2
				s-0.584,3.167,3.916,3.917c0,0-2.582,0.334-3.166-0.082c0,0,1.332,2.581,4.166,1.665l-0.832,1.25c0,0,0.916,0.835,2.416-0.415
				c0,0,0.5,1.562,1.5,1.312c0,0,0.625-0.146,0.791-0.209C16.971,9.875,17.012,9.417,17.012,9.417z"/>
			<path fill="#C1BFA3" d="M11.887,5.541C10.451,5.288,9.42,5.034,8.674,4.798c0.551,0.686,1.525,1.331,3.254,1.619
				c0,0-2.582,0.334-3.166-0.082c0,0,0.186,0.358,0.566,0.761c0.4,0.147,0.857,0.273,1.393,0.362c0,0-0.385,0.049-0.889,0.086
				C10.52,8.059,11.543,8.448,12.928,8l-0.832,1.25c0,0,0.916,0.835,2.416-0.415c0,0,0.469,1.433,1.396,1.316
				c0.01-0.029,0.016-0.044,0.023-0.076C16.201,9.065,16.469,6.35,11.887,5.541z"/>
		</g>
		<g>
			<path fill="#D8D7B6" d="M42.16,9.417c0,0-0.064-0.143-0.129-0.383c-0.27-1.01-0.537-3.726,4.045-4.534c5.668-1,5.084-2,5.084-2
				s0.584,3.167-3.916,3.917c0,0,2.582,0.334,3.166-0.082c0,0-1.332,2.581-4.166,1.665l0.832,1.25c0,0-0.916,0.835-2.416-0.415
				c0,0-0.5,1.562-1.5,1.312c0,0-0.625-0.146-0.791-0.209C42.201,9.875,42.16,9.417,42.16,9.417z"/>
			<path fill="#C1BFA3" d="M47.285,5.541c1.436-0.253,2.467-0.507,3.213-0.743c-0.551,0.686-1.525,1.331-3.254,1.619
				c0,0,2.582,0.334,3.166-0.082c0,0-0.186,0.358-0.566,0.761c-0.4,0.147-0.857,0.273-1.393,0.362c0,0,0.385,0.049,0.889,0.086
				C48.652,8.059,47.629,8.448,46.244,8l0.832,1.25c0,0-0.916,0.835-2.416-0.415c0,0-0.469,1.433-1.396,1.316
				c-0.01-0.029-0.016-0.044-0.023-0.076C42.971,9.065,42.703,6.35,47.285,5.541z"/>
		</g>
	</g>
	<g>
		<g>
			<circle fill="#EDB107" cx="25.085" cy="33.875" r="2.292"/>
			<circle fill="#EDB107" cx="25.085" cy="39.708" r="2.292"/>
			<circle fill="#EDB107" cx="25.085" cy="45.541" r="2.292"/>
		</g>
		<g>
			<circle fill="#EDB107" cx="34.085" cy="33.875" r="2.292"/>
			<circle fill="#EDB107" cx="34.085" cy="39.708" r="2.292"/>
			<circle fill="#EDB107" cx="34.085" cy="45.541" r="2.292"/>
		</g>
	</g>
	<g>
		<path fill="#828C8E" d="M59.598,34.921c-0.242,0.635-0.953,0.953-1.588,0.711l-13.111-5.01c-0.635-0.242-0.953-0.953-0.711-1.588
			l2.121-5.551c0.242-0.635,0.953-0.951,1.588-0.709l13.111,5.008c0.635,0.242,0.953,0.953,0.711,1.588L59.598,34.921z"/>
		<path fill="#9FAAAD" d="M61.008,27.782l-13.111-5.008c-0.635-0.242-1.346,0.074-1.588,0.709l-0.512,1.34
			c-0.242,0.635,0.076,1.346,0.709,1.588l13.113,5.008c0.633,0.242,1.344-0.074,1.586-0.709l0.514-1.34
			C61.961,28.735,61.643,28.024,61.008,27.782z"/>
		<path fill="#5B441A" d="M47.064,46.913c-0.162,0.424-0.637,0.635-1.059,0.473l0,0c-0.424-0.16-0.635-0.633-0.473-1.057
			l5.777-15.123c0.162-0.422,0.635-0.635,1.057-0.473l0,0c0.424,0.162,0.637,0.635,0.475,1.059L47.064,46.913z"/>
	</g>
</g>
</svg>
