<?xml version="1.0" encoding="utf-8"?>
<!-- Generator: Adobe Illustrator 16.0.0, SVG Export Plug-In . SVG Version: 6.00 Build 0)  -->
<!DOCTYPE svg PUBLIC "-//W3C//DTD SVG 1.1//EN" "http://www.w3.org/Graphics/SVG/1.1/DTD/svg11.dtd">
<svg version="1.1" id="Layer_1" xmlns="http://www.w3.org/2000/svg" xmlns:xlink="http://www.w3.org/1999/xlink" x="0px" y="0px"
	 width="65px" height="65px" viewBox="0 0 65 65" enable-background="new 0 0 65 65" xml:space="preserve">
<g>
	<g>
		<g>
			<g>
				<g>
					<path fill="#1A2021" d="M29.473,46.446c0,2.476-2.008,15.827-4.486,15.827c-2.475,0-4.482-13.352-4.482-15.827
						s2.008-4.484,4.482-4.484C27.465,41.962,29.473,43.971,29.473,46.446z"/>
					<path fill="#1A2021" d="M44.499,46.446c0,2.476-2.008,15.827-4.486,15.827c-2.475,0-4.482-13.352-4.482-15.827
						s2.008-4.484,4.482-4.484C42.491,41.962,44.499,43.971,44.499,46.446z"/>
				</g>
				<path fill="#7F0E0E" d="M45.151,40.521c0,16.038-5.662,10.697-12.65,10.697c-6.986,0-12.65,5.341-12.65-10.697
					c0-9.17,5.666-16.603,12.65-16.603C39.487,23.919,45.151,31.352,45.151,40.521z"/>
				<g>
					<path fill="#ACC1D1" d="M30.034,62.354c0,1.896-2.26,2.146-5.045,2.146s-5.045-0.249-5.045-2.146
						c0-1.897,2.26-4.508,5.045-4.508S30.034,60.457,30.034,62.354z"/>
					<path fill="#91B4C9" d="M30.034,62.354c0,1.896-2.26,2.146-5.045,2.146s-5.045-0.249-5.045-2.146"/>
				</g>
				<g>
					<path fill="#ACC1D1" d="M45.059,62.354c0,1.896-2.26,2.146-5.045,2.146s-5.045-0.249-5.045-2.146
						c0-1.897,2.26-4.508,5.045-4.508S45.059,60.457,45.059,62.354z"/>
					<path fill="#91B4C9" d="M45.059,62.354c0,1.896-2.26,2.146-5.045,2.146s-5.045-0.249-5.045-2.146"/>
				</g>
				<g>
					<path fill="#F9BD82" d="M48.872,16.275c0,7.999-7.33,12.02-16.369,12.02c-9.041,0-16.373-4.021-16.373-12.02
						c0-8.001,7.332-15.775,16.373-15.775C41.542,0.5,48.872,8.274,48.872,16.275z"/>
					<path fill="#EDA366" d="M48.872,16.275c0,7.999-7.33,12.02-16.369,12.02c-9.041,0-16.373-4.021-16.373-12.02"/>
				</g>
				<g>
					<g>
						<circle fill="#113E49" cx="24.716" cy="13.32" r="1.464"/>
						<path d="M26.18,13.32c0,0.811-0.656,1.465-1.465,1.465s-1.463-0.654-1.463-1.465"/>
						<g>
							<path fill="#FFD3C5" d="M27.604,16.374c-0.078,0-0.158-0.028-0.219-0.091c-0.715-0.714-1.664-1.107-2.672-1.107h-0.002
								c-1.008,0-1.955,0.394-2.666,1.106c-0.121,0.121-0.316,0.124-0.436,0.001c-0.121-0.117-0.125-0.312-0.004-0.434
								c0.83-0.831,1.932-1.29,3.105-1.29h0.002c1.176,0,2.279,0.456,3.111,1.288c0.119,0.119,0.119,0.318,0,0.436
								C27.764,16.346,27.686,16.374,27.604,16.374z"/>
						</g>
					</g>
					<g>
						<circle fill="#113E49" cx="40.287" cy="13.32" r="1.464"/>
						<path d="M38.823,13.32c0,0.811,0.654,1.465,1.465,1.465c0.809,0,1.463-0.654,1.463-1.465"/>
						<g>
							<path fill="#FFD3C5" d="M37.399,16.374c0.076,0,0.156-0.028,0.217-0.091c0.715-0.714,1.664-1.107,2.672-1.107h0.002
								c1.008,0,1.957,0.394,2.668,1.106c0.119,0.121,0.314,0.124,0.436,0.001c0.121-0.117,0.123-0.312,0.002-0.434
								c-0.826-0.831-1.932-1.29-3.105-1.29h-0.002c-1.174,0-2.277,0.456-3.111,1.288c-0.117,0.119-0.117,0.318,0,0.436
								C37.239,16.346,37.317,16.374,37.399,16.374z"/>
						</g>
					</g>
				</g>
			</g>
		</g>
		<g>
			<g>
				<path fill="#EDA366" d="M44.338,37.525c0.602-1.821-1.252-4.065-4.139-5.019c-2.883-0.951-17.57-4.153-18.174-2.337
					c-0.598,1.82,13.121,7.975,16.006,8.926C40.915,40.048,43.739,39.344,44.338,37.525z"/>
			</g>
			<g>
				<path fill="#F9BD82" d="M20.663,37.525c-0.602-1.821,1.252-4.065,4.139-5.019c2.883-0.951,17.57-4.153,18.174-2.337
					c0.598,1.82-13.121,7.975-16.006,8.926C24.086,40.048,21.262,39.344,20.663,37.525z"/>
			</g>
		</g>
		<path fill="#5F7277" d="M38.125,31.041c-0.109-0.417-0.184-0.814-0.242-1.2c-0.281,0.034-0.567,0.07-0.86,0.109
			c0.046,0.572,0.146,1.205,0.321,1.872c0.217,0.825,0.504,1.562,0.814,2.149c0.319-0.174,0.629-0.346,0.928-0.517
			C38.719,32.835,38.375,31.995,38.125,31.041z"/>
		<circle fill="#0698BF" cx="37.484" cy="31.042" r="1.73"/>
		<circle fill="#A3E1EF" cx="37.35" cy="30.845" r="0.969"/>
	</g>
	<path fill="#7F0E0E" d="M34.5,23.667c0,1.104-0.896,2-2,2l0,0c-1.104,0-2-0.896-2-2v-5.084c0-1.104,0.896-2,2-2l0,0
		c1.104,0,2,0.896,2,2V23.667z"/>
	<path fill="#AA1111" d="M32.5,20.583c-1.104,0-2,0.896-2,2v1.084c0,1.104,0.896,2,2,2c1.104,0,2-0.896,2-2v-1.084
		C34.5,21.479,33.604,20.583,32.5,20.583z"/>
	<path fill="#7F0E0E" d="M32.502,0.5c-6.197,0-11.591,3.654-14.371,8.53c1.584,0.139,9.109,0.562,11.938-3.53l-0.082,2.583
		l3.082-2.75l0.168,3.5l2.25-3.25l1,2.167l0.832-2.667l2,1.833l0.334-2.75l2.916,3.417v-2l4.076,3.09
		C43.809,3.98,38.544,0.5,32.502,0.5z"/>
	<g>
		<g>
			<g>
				<g>
					<path fill="#473D38" d="M28.146,17.333H22.52c-1.378,0-2.5-1.121-2.5-2.5v-2.125c0-1.379,1.122-2.5,2.5-2.5h5.626
						c1.379,0,2.5,1.121,2.5,2.5v2.125C30.646,16.212,29.525,17.333,28.146,17.333z M22.52,11.208c-0.826,0-1.5,0.673-1.5,1.5v2.125
						c0,0.827,0.674,1.5,1.5,1.5h5.626c0.827,0,1.5-0.673,1.5-1.5v-2.125c0-0.827-0.673-1.5-1.5-1.5H22.52z"/>
				</g>
				<g>
					<rect x="15.854" y="13.271" fill="#473D38" width="4.666" height="1"/>
				</g>
			</g>
			<g>
				<g>
					<path fill="#473D38" d="M42.48,17.333h-5.626c-1.378,0-2.5-1.121-2.5-2.5v-2.125c0-1.379,1.122-2.5,2.5-2.5h5.626
						c1.379,0,2.5,1.121,2.5,2.5v2.125C44.98,16.212,43.859,17.333,42.48,17.333z M36.854,11.208c-0.826,0-1.5,0.673-1.5,1.5v2.125
						c0,0.827,0.674,1.5,1.5,1.5h5.626c0.827,0,1.5-0.673,1.5-1.5v-2.125c0-0.827-0.673-1.5-1.5-1.5H36.854z"/>
				</g>
				<g>
					<rect x="44.48" y="13.271" fill="#473D38" width="4.666" height="1"/>
				</g>
			</g>
		</g>
		<g>
			<rect x="30.146" y="12.208" fill="#473D38" width="4.708" height="1"/>
		</g>
	</g>
</g>
</svg>
