<?xml version="1.0" encoding="utf-8"?>
<!-- Generator: Adobe Illustrator 16.0.0, SVG Export Plug-In . SVG Version: 6.00 Build 0)  -->
<!DOCTYPE svg PUBLIC "-//W3C//DTD SVG 1.1//EN" "http://www.w3.org/Graphics/SVG/1.1/DTD/svg11.dtd">
<svg version="1.1" id="Layer_1" xmlns="http://www.w3.org/2000/svg" xmlns:xlink="http://www.w3.org/1999/xlink" x="0px" y="0px"
	 width="64px" height="64px" viewBox="0 0 64 64" enable-background="new 0 0 64 64" xml:space="preserve">
<g>
	<polygon fill="#1A0D44" points="28,62 18.7,13.8 28,1 42.7,1 52,13.8 42.7,62 	"/>
	<polyline fill="#0D062B" points="42.7,1.2 52,13.9 42.7,62 28,62 	"/>
	<polygon fill="#1A0D44" points="31.6,53.7 18.1,15 26.8,3 40.4,3 49.1,15 40.4,59.9 	"/>
	<g>
		<g>
			<polygon fill="#1A0D44" points="52.9,27.6 55.2,29.7 54.3,32.1 50.7,34.4 50.3,31.2 			"/>
			<polygon fill="#1A0D44" points="47.4,15.4 53.7,27.2 51.9,33.2 50.3,32.7 41.7,22.6 			"/>
		</g>
		<polygon fill="#1A0D44" points="52,32.6 51.8,35.4 50.7,38.3 52.4,40.2 52.1,38.4 53.5,36.5 56.1,37.9 56.6,40.5 55.9,42.6 
			57.6,40.7 57.8,36.8 59.5,39.1 59,41.8 60.9,38.9 59.4,36.1 61.7,36.8 62.1,38.6 62.6,36.1 60,34.6 61.9,34.1 62.5,35 62.3,33 
			59.3,32.7 53.7,30 		"/>
	</g>
	<g>
		<g>
			<polygon fill="#1A0D44" points="11.2,39.8 9.3,42.3 10.6,44.4 14.5,46.1 14.4,42.9 			"/>
			<polygon fill="#1A0D44" points="14.5,26.8 10.3,39.5 13.2,45.1 14.7,44.3 21.4,33 			"/>
		</g>
		<polygon fill="#1A0D44" points="13,44.6 13.6,47.3 15.2,49.9 13.9,52.2 13.9,50.3 12.1,48.7 9.8,50.5 9.7,53.1 10.9,55 8.8,53.6 
			7.9,49.7 6.7,52.3 7.6,54.8 5.2,52.3 6.2,49.3 4.1,50.4 4,52.2 3.1,49.8 5.4,47.9 3.4,47.7 3,48.7 2.9,46.7 5.8,45.9 10.8,42.3 		
			"/>
	</g>
	<g>
		<polygon fill="#673BAD" points="27,63.2 9.4,17.5 16.3,3.4 30.8,0.8 42.2,11.6 41.4,60.6 		"/>
		<polyline fill="#502F8E" points="16.3,3.4 30.8,0.8 42.2,11.6 41.4,60.6 27,63.2 		"/>
		<g>
			<path fill="#3C2575" d="M39,56.6l-11.2,2c-0.2,0-0.5-0.1-0.6-0.3l-14.5-40c0-0.1,0-0.2,0-0.4L18,5.7c0.1-0.2,0.2-0.3,0.4-0.3
				l11.2-2c0.2,0,0.3,0,0.5,0.1l9.1,9.6c0.1,0.1,0.1,0.2,0.1,0.3l0.3,42.6C39.5,56.4,39.3,56.6,39,56.6z M28.1,57.6l10.3-1.8
				l-0.2-42l-8.7-9.3L18.8,6.3l-5,11.7L28.1,57.6z"/>
		</g>
		<polygon fill="#FF9C39" points="31.6,10.8 27.8,11.5 27.1,7.6 22.2,8.5 22.8,12.3 19,13 19.8,18 23.7,17.3 25,24.3 29.9,23.5 
			28.6,16.4 32.5,15.7 		"/>
		<polygon fill="#EA801F" points="31.6,10.8 27.8,11.5 27.1,7.6 23.1,8.3 24,13.2 19.1,14 19.8,18 24.7,17.1 26,24.2 29.9,23.5 
			28.6,16.4 32.5,15.7 		"/>
		<path fill="#EA801F" d="M33.2,52.3c0.1,0.3-0.2,0.7-0.5,0.7l0,0c-0.3,0.1-0.7-0.2-0.7-0.5l-4.1-22.9C27.8,29.3,28,29,28.3,29l0,0
			c0.3-0.1,0.7,0.2,0.7,0.5L33.2,52.3z"/>
	</g>
</g>
</svg>
