<?xml version="1.0" encoding="utf-8"?>
<!-- Generator: Adobe Illustrator 16.0.0, SVG Export Plug-In . SVG Version: 6.00 Build 0)  -->
<!DOCTYPE svg PUBLIC "-//W3C//DTD SVG 1.1//EN" "http://www.w3.org/Graphics/SVG/1.1/DTD/svg11.dtd">
<svg version="1.1" id="Layer_1" xmlns="http://www.w3.org/2000/svg" xmlns:xlink="http://www.w3.org/1999/xlink" x="0px" y="0px"
	 width="64.7px" height="64px" viewBox="0 0 64.7 64" enable-background="new 0 0 64.7 64" xml:space="preserve">
<g>
	<g>
		<g>
			<g>
				<polygon fill="#102D35" points="64,36.3 52.6,24.2 50.4,28.3 47.3,26 45.2,29.7 41.1,28.5 39.9,30.6 43.3,39.2 46.6,43.7 
					47.9,38 51.8,43.1 54.2,36.3 				"/>
				<polygon fill="#065177" points="61.4,35.2 53,25.9 53.9,30 				"/>
				<polygon fill="#065177" points="51.4,40.8 47.8,27.9 46.7,32.3 				"/>
			</g>
			<g>
				<polygon fill="#102D35" points="0,36.3 11.4,24.2 13.6,28.3 16.7,26 18.8,29.7 22.9,28.5 24.1,30.6 20.7,39.2 17.4,43.7 
					16.1,38 12.2,43.1 9.8,36.3 				"/>
				<polygon fill="#065177" points="2.6,35.2 11,25.9 10.1,30 				"/>
				<polygon fill="#065177" points="12.6,40.8 16.2,27.9 17.3,32.3 				"/>
			</g>
		</g>
		<g>
			<polygon fill="#065177" points="25.9,18.6 19.1,15.3 20.2,2.3 29.2,11.7 			"/>
			<polyline fill="#102D35" points="20.2,2.3 29.2,11.7 25.9,18.6 			"/>
			<polygon fill="#065177" points="38.1,18.6 44.9,15.3 43.8,2.3 34.8,11.7 			"/>
			<polyline fill="#102D35" points="38.1,18.6 44.9,15.3 43.8,2.3 			"/>
		</g>
		<path fill="#065177" d="M45.3,52.1c0,6-4.8,7.2-10.8,7.2h-4.9c-6,0-10.8-1.3-10.8-7.2V25.3c0-6,4.8-10.8,10.8-10.8h4.9
			c6,0,10.8,4.8,10.8,10.8V52.1z"/>
		<path fill="#102D35" d="M29.6,14.5h4.9c6,0,10.8,4.8,10.8,10.8v26.9c0,6-4.8,7.2-10.8,7.2h-4.9"/>
		<g>
			<path fill="#065177" d="M28.6,60.8c0,0.5-0.4,0.9-0.9,0.9l0,0c-0.5,0-0.9-0.4-0.9-0.9v-4.5c0-0.5,0.4-0.9,0.9-0.9l0,0
				c0.5,0,0.9,0.4,0.9,0.9V60.8z"/>
			<path fill="#102D35" d="M37.2,60.8c0,0.5-0.4,0.9-0.9,0.9l0,0c-0.5,0-0.9-0.4-0.9-0.9v-4.5c0-0.5,0.4-0.9,0.9-0.9l0,0
				c0.5,0,0.9,0.4,0.9,0.9V60.8z"/>
		</g>
		<g>
			<g>
				<path fill="#8FB5B3" d="M23.7,22.7c0.4,1.4,1.7,2.4,3.3,2.4s2.8-1,3.2-2.4H23.7z"/>
				<path fill="#E2F2EF" d="M23.7,22.7c0.4,1.4,1.7,1.2,3.3,1.2s2.8,0.2,3.2-1.2H23.7z"/>
			</g>
			<g>
				<path fill="#8FB5B3" d="M33.8,22.7c0.4,1.4,1.7,2.4,3.3,2.4c1.5,0,2.8-1,3.2-2.4H33.8z"/>
				<path fill="#E2F2EF" d="M33.8,22.7c0.4,1.4,1.7,1.2,3.3,1.2c1.5,0,2.8,0.2,3.2-1.2H33.8z"/>
			</g>
		</g>
		<path fill="#DD4343" d="M35.8,31.5c-0.5-1.6-2-2.8-3.8-2.8c-1.8,0-3.3,1.2-3.8,2.8H35.8z"/>
		<path fill="#A01F1F" d="M32,30.4c1.1,0,2,0.4,2.7,1.1h1.1c-0.5-1.6-2-2.8-3.8-2.8c-1.8,0-3.3,1.2-3.8,2.8h1.1
			C30,30.8,30.9,30.4,32,30.4z"/>
		<path fill="#E2F2EF" d="M32,29.3c1.6,0,2.9,0.9,3.6,2.2h0.2c-0.5-1.6-2-2.8-3.8-2.8c-1.8,0-3.3,1.2-3.8,2.8h0.2
			C29.1,30.2,30.4,29.3,32,29.3z"/>
		
			<ellipse transform="matrix(0.8142 -0.5805 0.5805 0.8142 -6.1826 17.7176)" fill="#1F789B" cx="24.6" cy="18.5" rx="3.1" ry="1.1"/>
		<path fill="#1F789B" d="M22.5,52.7c0,0.5-0.4,0.9-0.9,0.9l0,0c-0.5,0-0.9-0.4-0.9-0.9v-16c0-0.5,0.4-0.9,0.9-0.9l0,0
			c0.5,0,0.9,0.4,0.9,0.9V52.7z"/>
		<circle fill="#1F789B" cx="21.6" cy="32.3" r="1.1"/>
		<g>
			<circle fill="#065177" cx="28.2" cy="22.6" r="0.9"/>
			<circle fill="#102D35" cx="38.6" cy="22.6" r="0.9"/>
		</g>
		<polygon fill="#E2F2EF" points="30.4,31.5 29.3,34.1 28.2,31.5 29.3,30.4 		"/>
		<polyline fill="#8FB5B3" points="29.3,30.4 30.4,31.5 29.3,34.1 		"/>
		<polygon fill="#E2F2EF" points="35.8,31.5 34.7,34.1 33.6,31.5 34.7,30.4 		"/>
		<polyline fill="#8FB5B3" points="34.7,30.4 35.8,31.5 34.7,34.1 		"/>
		<polygon fill="#DD4343" points="38.2,39.2 36,37.1 34.6,38.5 38.2,42 41.7,38.5 40.3,37.1 		"/>
		<polyline fill="#A01F1F" points="38.2,42 41.7,38.5 40.3,37.1 38.2,39.2 		"/>
	</g>
	<circle fill="#DD4343" cx="51.4" cy="18.9" r="0.7"/>
	<circle fill="#DD4343" cx="56.1" cy="12" r="1.5"/>
	<circle fill="#DD4343" cx="51.5" cy="13.3" r="0.5"/>
	<circle fill="#DD4343" cx="50.3" cy="22.7" r="0.6"/>
	<circle fill="#DD4343" cx="49" cy="6.8" r="1.9"/>
	<circle fill="#DD4343" cx="54" cy="16.7" r="0.2"/>
	<circle fill="#DD4343" cx="57.2" cy="19.6" r="0.8"/>
</g>
</svg>
