<?xml version="1.0" encoding="utf-8"?>
<!-- Generator: Adobe Illustrator 16.0.0, SVG Export Plug-In . SVG Version: 6.00 Build 0)  -->
<!DOCTYPE svg PUBLIC "-//W3C//DTD SVG 1.1//EN" "http://www.w3.org/Graphics/SVG/1.1/DTD/svg11.dtd">
<svg version="1.1" id="Layer_1" xmlns="http://www.w3.org/2000/svg" xmlns:xlink="http://www.w3.org/1999/xlink" x="0px" y="0px"
	 width="64px" height="64px" viewBox="0 0 64 64" enable-background="new 0 0 64 64" xml:space="preserve">
<g>
	<circle fill="#164F66" cx="32.1" cy="33.7" r="29.1"/>
	<path fill="#102D35" d="M32.1,4.6c16.1,0,29.1,13,29.1,29.1c0,16.1-13,29.1-29.1,29.1"/>
	<path fill="#D1E5E4" d="M40.6,26.4c0-1.1-0.9-2-2-2h-13c-1.1,0-2,0.9-2,2c0,0.7,0.4,1.4,1,1.7v32.3c0,1.6,1.3,2.9,2.9,2.9h9.2
		c1.6,0,2.9-1.3,2.9-2.9V28.1C40.2,27.8,40.6,27.1,40.6,26.4z"/>
	<path fill="#BED3D1" d="M36.7,63.4c1.6,0,2.9-1.3,2.9-2.9V28.1c0.6-0.3,1-1,1-1.7c0-1.1-0.9-2-2-2h-13"/>
	<g>
		<path fill="#EDB151" d="M37.4,13.4L37.4,13.4L32.1,0.9l-5.3,12.5l0,0c-0.3,0.7-0.5,1.5-0.5,2.4c0,3.2,2.6,5.8,5.8,5.8
			c3.2,0,5.8-2.6,5.8-5.8C37.9,14.9,37.7,14.1,37.4,13.4z"/>
		<path fill="#E06E10" d="M32.1,21.5c3.2,0,5.8-2.6,5.8-5.8c0-0.9-0.2-1.7-0.5-2.4l0,0L32.1,0.9"/>
	</g>
	<g>
		<path fill="#EDB151" d="M28.9,16.7L28.9,16.7l3.2-7.5l3.2,7.5l0,0c0.2,0.4,0.3,0.9,0.3,1.4c0,1.9-1.6,3.5-3.5,3.5
			c-1.9,0-3.5-1.6-3.5-3.5C28.6,17.6,28.7,17.1,28.9,16.7z"/>
		<path fill="#E06E10" d="M32.1,21.5c-1.9,0-3.5-1.6-3.5-3.5c0-0.5,0.1-1,0.3-1.4l0,0l3.2-7.5"/>
	</g>
	<g>
		<g>
			<circle fill="#9CBCB6" cx="32.1" cy="38.3" r="1.2"/>
			<path fill="#E2F2EF" d="M32.1,37.2c0.6,0,1.2,0.5,1.2,1.2c0,0.6-0.5,1.2-1.2,1.2"/>
		</g>
		<g>
			<circle fill="#9CBCB6" cx="32.1" cy="43.9" r="1.2"/>
			<path fill="#E2F2EF" d="M32.1,42.7c0.6,0,1.2,0.5,1.2,1.2c0,0.6-0.5,1.2-1.2,1.2"/>
		</g>
		<g>
			<circle fill="#9CBCB6" cx="32.1" cy="49.5" r="1.2"/>
			<path fill="#E2F2EF" d="M32.1,48.3c0.6,0,1.2,0.5,1.2,1.2c0,0.6-0.5,1.2-1.2,1.2"/>
		</g>
	</g>
</g>
</svg>
