<?xml version="1.0" encoding="utf-8"?>
<!-- Generator: Adobe Illustrator 16.0.0, SVG Export Plug-In . SVG Version: 6.00 Build 0)  -->
<!DOCTYPE svg PUBLIC "-//W3C//DTD SVG 1.1//EN" "http://www.w3.org/Graphics/SVG/1.1/DTD/svg11.dtd">
<svg version="1.1" id="Layer_1" xmlns="http://www.w3.org/2000/svg" xmlns:xlink="http://www.w3.org/1999/xlink" x="0px" y="0px"
	 width="65px" height="65px" viewBox="0 0 65 65" enable-background="new 0 0 65 65" xml:space="preserve">
<g>
	<g>
		<g>
			<circle fill="#16A885" cx="12.1" cy="24.7" r="6.4"/>
			<circle fill="#16A885" cx="52.9" cy="24.7" r="6.4"/>
		</g>
		<g>
			<ellipse fill="#0A8968" cx="12.1" cy="23.8" rx="6.4" ry="4.2"/>
			<ellipse fill="#0A8968" cx="52.9" cy="23.8" rx="6.4" ry="4.2"/>
		</g>
		<path fill="#3CD3A4" d="M55.4,53.7c0,4.1-3.3,7.4-7.4,7.4H17c-4.1,0-7.4-3.3-7.4-7.4L13.1,8c0-4.1,3.3-7.4,7.4-7.4h24.1
			c4.1,0,7.4,3.3,7.4,7.4L55.4,53.7z"/>
		<path fill="#3CD3A4" d="M55.4,53.7c0,4.1-3.3,7.4-7.4,7.4H17c-4.1,0-7.4-3.3-7.4-7.4L13.1,8c0-4.1,3.3-7.4,7.4-7.4h24.1
			c4.1,0,7.4,3.3,7.4,7.4L55.4,53.7z"/>
		<path fill="#30BF9A" d="M20.5,0.7h24.1c4.1,0,7.4,3.3,7.4,7.4l3.5,45.6c0,4.1-3.3,7.4-7.4,7.4"/>
		<g>
			<g>
				<path fill="#16A885" d="M29.7,24.6c0,0.4-0.3,0.7-0.7,0.7H17.2c-0.4,0-0.7-0.3-0.7-0.7l0,0c0-0.4,0.3-0.7,0.7-0.7h11.8
					C29.3,23.9,29.7,24.2,29.7,24.6L29.7,24.6z"/>
				<path fill="#16A885" d="M17.8,24.5c0.8,3.2,2.8,5.5,5.2,5.5s4.4-2.3,5.2-5.5H17.8z"/>
				<path fill="#680000" d="M17.8,24.5c0.8,2.1,2.8,3.7,5.2,3.7s4.4-1.5,5.2-3.7H17.8z"/>
				<path fill="#960E08" d="M18.1,25.1c0.9,1.7,2.8,2.2,4.9,2.2s4-0.5,4.9-2.2H18.1z"/>
				<circle fill="#3CD3A4" cx="23" cy="25.9" r="0.6"/>
				<circle fill="#ACEAD5" cx="22.9" cy="25.9" r="0.4"/>
			</g>
			<g>
				<path fill="#16A885" d="M48.6,24.6c0,0.4-0.3,0.7-0.7,0.7H36.1c-0.4,0-0.7-0.3-0.7-0.7l0,0c0-0.4,0.3-0.7,0.7-0.7h11.8
					C48.3,23.9,48.6,24.2,48.6,24.6L48.6,24.6z"/>
				<path fill="#16A885" d="M36.7,24.5c0.8,3.2,2.8,5.5,5.2,5.5c2.4,0,4.4-2.3,5.2-5.5H36.7z"/>
				<path fill="#680000" d="M36.7,24.5c0.8,2.1,2.8,3.7,5.2,3.7c2.4,0,4.4-1.5,5.2-3.7H36.7z"/>
				<path fill="#960E08" d="M37,25.1c0.9,1.7,2.8,2.2,4.9,2.2c2.2,0,4-0.5,4.9-2.2H37z"/>
				<circle fill="#3CD3A4" cx="42" cy="25.9" r="0.6"/>
				<circle fill="#ACEAD5" cx="41.8" cy="25.9" r="0.4"/>
			</g>
		</g>
		<path fill="#065177" d="M51,4.5c-1.3-2.3-3.7-3.8-6.4-3.8H20.5c-2.8,0-5.2,1.5-6.4,3.8c0.3,4.5,4,8.1,8.6,8.1h19.7
			C46.9,12.5,50.7,9,51,4.5z"/>
		<path fill="#102D35" d="M26.1,12.5h16.3c4.6,0,8.3-3.6,8.6-8.1c-1.3-2.3-3.7-3.8-6.4-3.8H20.5"/>
		<g>
			<path fill="#16A885" d="M17.7,37c0-3.4-2.7-6.1-6.1-6.1c-0.1,0-0.1,0-0.2,0L9.6,53.7c0,4.1,3.3,7.4,7.4,7.4h0.6
				c0-0.3,0.1-0.6,0.1-0.9V37z"/>
			<path fill="#0A8968" d="M17,61.1h0.6c0-0.3,0.1-0.6,0.1-0.9V37c0-3.4-2.7-6.1-6.1-6.1c-0.1,0-0.1,0-0.2,0"/>
		</g>
		<g>
			<path fill="#16A885" d="M47.3,37c0-3.4,2.7-6.1,6.1-6.1c0.1,0,0.1,0,0.2,0l1.7,22.7c0,4.1-3.3,7.4-7.4,7.4h-0.6
				c0-0.3-0.1-0.6-0.1-0.9V37z"/>
			<path fill="#0A8968" d="M48,61.1h-0.6c0-0.3-0.1-0.6-0.1-0.9V37c0-3.4,2.7-6.1,6.1-6.1c0.1,0,0.1,0,0.2,0"/>
		</g>
		<g>
			<g>
				<g>
					<path fill="#16A885" d="M31.5,14.8c0.4,0,0.8,0.2,0.9,0.6c0,0,0.1,0.1,0.1,0c0,0,0.1,0,0.1,0c0.1-0.3,0.5-0.6,0.9-0.6
						c0.5,0,0.9,0.4,0.9,0.8c0,0.2-0.1,0.3-0.2,0.5l0,0c0,0,0,0,0,0l-1.7,3l-1.7-3c0,0,0,0,0,0c0,0,0,0,0,0
						c-0.1-0.1-0.2-0.3-0.2-0.5C30.6,15.2,31,14.8,31.5,14.8z"/>
				</g>
				<g>
					<g>
						<path fill="#960E08" d="M31.5,14.7c0.4,0,0.8,0.2,0.9,0.6c0,0,0.1,0.1,0.1,0c0,0,0.1,0,0.1,0c0.1-0.3,0.5-0.6,0.9-0.6
							c0.5,0,0.9,0.4,0.9,0.8c0,0.2-0.1,0.3-0.2,0.5c0,0,0,0,0,0c0,0,0,0,0,0l-1.7,2l-1.7-2c0,0,0,0,0,0c0,0,0,0,0,0
							c-0.1-0.1-0.2-0.3-0.2-0.5C30.6,15,31,14.7,31.5,14.7z"/>
					</g>
				</g>
				<g>
					<g>
						<path fill="#660303" d="M32.5,15.3C32.5,15.3,32.6,15.3,32.5,15.3c0.2-0.4,0.6-0.6,1-0.6c0.5,0,0.9,0.4,0.9,0.8
							c0,0.2-0.1,0.3-0.2,0.5c0,0,0,0,0,0c0,0,0,0,0,0l-1.7,2 M30.8,15.9"/>
					</g>
				</g>
			</g>
		</g>
		<path fill="#0A8968" d="M36.8,32.9c0,0.6-0.5,1-1,3.1h-6.5c-0.6-2.1-1-2.6-1-3.1l0,0c0-0.6,0.5-1,1-1h6.5
			C36.4,31.9,36.8,32.3,36.8,32.9L36.8,32.9z"/>
		<path fill="#066D63" d="M28.2,32.9L28.2,32.9c0-0.6,0.5-1,1-1h6.5c0.6,0,1,0.5,1,1l0,0c0,0.6-0.5,1-1,3.1"/>
		<path fill="#16A885" d="M24.5,41.8v4.8c0,4.4,3.6,7.9,7.9,7.9c4.4,0,7.9-3.6,7.9-7.9v-4.8H24.5z"/>
		<path fill="#680000" d="M24.5,40.6v4.8c0,4.4,3.6,7.9,7.9,7.9c4.4,0,7.9-3.6,7.9-7.9v-4.8H24.5z"/>
		<path fill="#0A8968" d="M22.4,31.8c0,0.3-0.2,0.5-0.5,0.5h-2.1c-0.3,0-0.5-0.2-0.5-0.5l0,0c0-0.3,0.2-0.5,0.5-0.5h2.1
			C22.1,31.3,22.4,31.5,22.4,31.8L22.4,31.8z"/>
		<path fill="#0A8968" d="M22.4,34c0,0.3-0.2,0.5-0.5,0.5h-2.1c-0.3,0-0.5-0.2-0.5-0.5l0,0c0-0.3,0.2-0.5,0.5-0.5h2.1
			C22.1,33.6,22.4,33.8,22.4,34L22.4,34z"/>
		<path fill="#0A8968" d="M22.4,36.3c0,0.3-0.2,0.5-0.5,0.5h-2.1c-0.3,0-0.5-0.2-0.5-0.5l0,0c0-0.3,0.2-0.5,0.5-0.5h2.1
			C22.1,35.8,22.4,36.1,22.4,36.3L22.4,36.3z"/>
		<path fill="#0A8968" d="M22.4,38.6c0,0.3-0.2,0.5-0.5,0.5h-2.1c-0.3,0-0.5-0.2-0.5-0.5l0,0c0-0.3,0.2-0.5,0.5-0.5h2.1
			C22.1,38.1,22.4,38.3,22.4,38.6L22.4,38.6z"/>
		<path fill="#0A8968" d="M22.4,40.9c0,0.3-0.2,0.5-0.5,0.5h-2.1c-0.3,0-0.5-0.2-0.5-0.5l0,0c0-0.3,0.2-0.5,0.5-0.5h2.1
			C22.1,40.4,22.4,40.6,22.4,40.9L22.4,40.9z"/>
		<path fill="#0A8968" d="M20.8,43.1c-0.3,0-0.5-0.2-0.5-0.5V30.1c0-0.3,0.2-0.5,0.5-0.5l0,0c0.3,0,0.5,0.2,0.5,0.5v12.6
			C21.3,42.9,21.1,43.1,20.8,43.1L20.8,43.1z"/>
		<path fill="#AF2E2E" d="M32.5,53.4c3.5,0,6.5-2.3,7.6-5.5c-0.9-1-2.2-1.6-3.7-1.6c-1.5,0-2.9,0.7-3.8,1.8
			c-0.9-1.1-2.3-1.8-3.8-1.8c-1.5,0-2.8,0.6-3.7,1.6C25.9,51,28.9,53.4,32.5,53.4z"/>
		<g>
			<path fill="#3CD3A4" d="M34.3,60.1c0,2.3-1.9,4.3-4.3,4.3h-8.2c-2.3,0-4.3-1.9-4.3-4.3l0,0c0-2.3,1.9-4.3,4.3-4.3h8.2
				C32.4,55.8,34.3,57.7,34.3,60.1L34.3,60.1z"/>
			<path fill="#3CD3A4" d="M47.4,60.1c0,2.3-1.9,4.3-4.3,4.3h-8.2c-2.3,0-4.3-1.9-4.3-4.3l0,0c0-2.3,1.9-4.3,4.3-4.3h8.2
				C45.5,55.8,47.4,57.7,47.4,60.1L47.4,60.1z"/>
		</g>
		<path fill="#66EDC0" d="M22.4,21.6c0,0.5-0.4,0.9-0.9,0.9h-3.8c-0.5,0-0.9-0.4-0.9-0.9l0,0c0-0.5,0.4-0.9,0.9-0.9h3.8
			C22,20.7,22.4,21.1,22.4,21.6L22.4,21.6z"/>
		<path fill="#3CD3A4" d="M40.9,21.6c0,0.5-0.4,0.9-0.9,0.9h-3.8c-0.5,0-0.9-0.4-0.9-0.9l0,0c0-0.5,0.4-0.9,0.9-0.9h3.8
			C40.5,20.7,40.9,21.1,40.9,21.6L40.9,21.6z"/>
		<path fill="#66EDC0" d="M41,39.9c0,0.4-0.1,0.6-0.3,0.6H24.3c-0.2,0-0.3-0.3-0.3-0.6l0,0c0-0.4,0.1-0.6,0.3-0.6h16.4
			C40.9,39.3,41,39.5,41,39.9L41,39.9z"/>
		<path fill="#66EDC0" d="M14.7,19.1c0,0.5-0.4,0.8-0.9,0.7l0,0c-0.4,0-0.8-0.4-0.7-0.9l0.7-8c0-0.5,0.4-0.8,0.9-0.7l0,0
			c0.4,0,0.8,0.4,0.7,0.9L14.7,19.1z"/>
		<g>
			<path fill="#66EDC0" d="M27.4,59c0,0.5-0.4,1-1,1h-4.2c-0.5,0-1-0.4-1-1l0,0c0-0.5,0.4-1,1-1h4.2C27,58.1,27.4,58.5,27.4,59
				L27.4,59z"/>
			<path fill="#66EDC0" d="M35.6,59c0,0.5-0.4,1-1,1h-4.2c-0.5,0-1-0.4-1-1l0,0c0-0.5,0.4-1,1-1h4.2C35.1,58.1,35.6,58.5,35.6,59
				L35.6,59z"/>
			<path fill="#66EDC0" d="M43.7,59c0,0.5-0.4,1-1,1h-4.2c-0.5,0-1-0.4-1-1l0,0c0-0.5,0.4-1,1-1h4.2C43.2,58.1,43.7,58.5,43.7,59
				L43.7,59z"/>
		</g>
		<path fill="#66EDC0" d="M36.8,32.5c0,0.5-0.4,0.8-0.8,0.8h-7c-0.5,0-0.8-0.4-0.8-0.8l0,0c0-0.5,0.4-0.8,0.8-0.8h7
			C36.4,31.6,36.8,32,36.8,32.5L36.8,32.5z"/>
		<polygon fill="#E87B18" points="54.1,5.1 50.4,12.4 54.1,12.4 51.4,18.3 58.6,11 54.9,11 58.7,5 		"/>
		<polygon fill="#E5971A" points="8.9,4.2 11.1,8.5 8.9,8.5 10.5,12 6.3,7.7 8.4,7.7 6.2,4.2 		"/>
		<g>
			<g>
				<path fill="#036D4F" d="M50.4,40.7c0,0.7-0.6,1.3-1.3,1.3l0,0c-0.7,0-1.3-0.6-1.3-1.3v-3.5c0-0.7,0.6-1.3,1.3-1.3l0,0
					c0.7,0,1.3,0.6,1.3,1.3V40.7z"/>
				<g>
					<path fill="#CCF2EE" d="M57,42.8c1.2,0,2.2-0.9,2.2-2.2l0.1-3.2c0-1.2-1-2.2-2.2-2.2c-1.1,0-2,0.7-2.2,1.8l-5.5-0.1
						c-1.1,0-0.9,0.9-1,2c0,1.1-0.2,2,0.9,2l5.5,0.1C55.1,42,55.9,42.8,57,42.8z"/>
					<path fill="#A6DDD6" d="M48.5,38.9c0,1.1-0.2,2,0.9,2l5.5,0.1c0.2,1,1.1,1.8,2.1,1.8c1.2,0,2.2-0.9,2.2-2.2l0.1-3.2"/>
					<path fill="#8DCCC3" d="M48.5,38.9c0,1.1-0.2,2,0.9,2l5.5,0.1c0.2,1,1.1,1.8,2.1,1.8c1.2,0,2.2-0.9,2.2-2.2"/>
				</g>
			</g>
			<g>
				<path fill="#036D4F" d="M14.6,40.7c0,0.7,0.6,1.3,1.3,1.3l0,0c0.7,0,1.3-0.6,1.3-1.3v-3.5c0-0.7-0.6-1.3-1.3-1.3l0,0
					c-0.7,0-1.3,0.6-1.3,1.3V40.7z"/>
				<g>
					<path fill="#CCF2EE" d="M8,42.8c-1.2,0-2.2-0.9-2.2-2.2l-0.1-3.2c0-1.2,1-2.2,2.2-2.2c1.1,0,2,0.7,2.2,1.8l5.5-0.1
						c1.1,0,0.9,0.9,1,2c0,1.1,0.2,2-0.9,2L10.1,41C9.9,42,9.1,42.8,8,42.8z"/>
					<path fill="#A6DDD6" d="M16.5,38.9c0,1.1,0.2,2-0.9,2L10.1,41c-0.2,1-1.1,1.8-2.1,1.8c-1.2,0-2.2-0.9-2.2-2.2l-0.1-3.2"/>
					<path fill="#8DCCC3" d="M16.5,38.9c0,1.1,0.2,2-0.9,2L10.1,41c-0.2,1-1.1,1.8-2.1,1.8c-1.2,0-2.2-0.9-2.2-2.2"/>
				</g>
			</g>
		</g>
	</g>
	<path fill="#D4F9F3" d="M25.8,40.9v0.3c0,0.9,0.8,1.7,1.7,1.7c0.9,0,1.7-0.8,1.7-1.7v-0.3H25.8z"/>
</g>
</svg>
