<?xml version="1.0" encoding="utf-8"?>
<!-- Generator: Adobe Illustrator 16.0.0, SVG Export Plug-In . SVG Version: 6.00 Build 0)  -->
<!DOCTYPE svg PUBLIC "-//W3C//DTD SVG 1.1//EN" "http://www.w3.org/Graphics/SVG/1.1/DTD/svg11.dtd">
<svg version="1.1" id="Layer_1" xmlns="http://www.w3.org/2000/svg" xmlns:xlink="http://www.w3.org/1999/xlink" x="0px" y="0px"
	 width="64px" height="64px" viewBox="0 0 64 64" enable-background="new 0 0 64 64" xml:space="preserve">
<g>
	<g>
		<g>
			<polygon fill="#D69F32" points="7.6,7.1 6.8,24.9 8.5,28.2 7.2,29.9 8.4,31.3 7.2,33 8.6,34.2 14.2,30 13.7,17.2 			"/>
			<polygon fill="#B55106" points="22.1,21.3 7.6,6.9 9.2,19.2 11.6,20.8 10.1,23.1 10.5,26.6 9.8,28.6 11.5,29.8 10.1,33.1 
				23,23.3 			"/>
		</g>
		<g>
			<polygon fill="#D69F32" points="57.8,7.1 58.6,24.9 56.9,28.2 58.2,29.9 57,31.3 58.2,33 56.8,34.2 51.2,30 51.7,17.2 			"/>
			<polygon fill="#B55106" points="43.3,21.3 57.8,6.9 56.2,19.2 53.8,20.8 55.3,23.1 55,26.6 55.6,28.6 54,29.8 55.3,33.1 
				42.5,23.3 			"/>
		</g>
	</g>
	<g>
		<path fill="#E87B18" d="M7.6,38.6L7.6,38.6c0,6.5,5.3,11.8,11.8,11.8s11.8-5.3,11.8-11.8l0,0H7.6z"/>
		<path fill="#CC6109" d="M10.8,38.6L10.8,38.6c0,4.8,3.9,8.7,8.7,8.7s8.7-3.9,8.7-8.7l0,0H10.8z"/>
		<path fill="#A04604" d="M14.3,38.6L14.3,38.6c0,2.9,2.3,5.2,5.2,5.2s5.2-2.3,5.2-5.2l0,0H14.3z"/>
	</g>
	<path fill="#CC6109" d="M63.4,58.2L63.4,58.2c0-22.3-13.7-40.4-30.7-40.4C15.8,17.8,2,35.9,2,58.2l0,0H63.4z"/>
	<path fill="#B55106" d="M2,58.2L2,58.2h61.3l0,0c0-22.3-13.7-40.4-30.7-40.4"/>
	<g>
		<g>
			<path fill="#9B4607" d="M13.9,34.7L13.9,34.7c-1.6,4.2,0,10.6,4.2,12.2s9.6-2.3,11.1-6.5l0,0L13.9,34.7z"/>
			<path fill="#F2F2E7" d="M13.9,34.7L13.9,34.7c-1.6,4.2,0.6,8.9,4.8,10.5c4.2,1.6,8.9-0.6,10.5-4.8l0,0L13.9,34.7z"/>
			<path fill="#DDC9BA" d="M16,35.5L16,35.5c-1.1,3.1,0.4,6.5,3.5,7.7c3.1,1.1,6.5-0.4,7.7-3.5l0,0L16,35.5z"/>
			<path fill="#3D1C06" d="M18.2,36.3L18.2,36.3c-0.7,1.8,0.3,3.9,2.1,4.6c1.8,0.7,3.9-0.3,4.6-2.1l0,0L18.2,36.3z"/>
		</g>
		<g>
			<path fill="#9B4607" d="M51.5,34.7L51.5,34.7c1.6,4.2,0,10.6-4.2,12.2s-9.6-2.3-11.1-6.5l0,0L51.5,34.7z"/>
			<path fill="#F2F2E7" d="M51.5,34.7L51.5,34.7c1.6,4.2-0.6,8.9-4.8,10.5c-4.2,1.6-8.9-0.6-10.5-4.8l0,0L51.5,34.7z"/>
			<path fill="#DDC9BA" d="M49.4,35.5L49.4,35.5c1.1,3.1-0.4,6.5-3.5,7.7c-3.1,1.1-6.5-0.4-7.7-3.5l0,0L49.4,35.5z"/>
			<path fill="#3D1C06" d="M47.2,36.3L47.2,36.3c0.7,1.8-0.3,3.9-2.1,4.6c-1.8,0.7-3.9-0.3-4.6-2.1l0,0L47.2,36.3z"/>
		</g>
	</g>
	<polygon fill="#9B4607" points="37.6,47.1 32.7,58.2 27.8,47.1 32.7,42.3 	"/>
	<polygon fill="#EFD259" points="37.6,47.1 32.7,55 27.8,47.1 32.7,42.3 	"/>
	<polyline fill="#D69F32" points="32.7,42.3 37.6,47.1 32.7,55 	"/>
	<g>
		
			<rect x="20.1" y="22.3" transform="matrix(0.7075 -0.7067 0.7067 0.7075 -10.4434 22.0793)" fill="#9B450A" width="2.6" height="2.6"/>
		
			<rect x="25.8" y="22.3" transform="matrix(0.7075 -0.7067 0.7067 0.7075 -8.7979 26.0546)" fill="#D86916" width="2.6" height="2.6"/>
		
			<rect x="31.4" y="22.3" transform="matrix(0.7075 -0.7067 0.7067 0.7075 -7.1525 30.03)" fill="#9B450A" width="2.6" height="2.6"/>
		
			<rect x="37" y="22.3" transform="matrix(0.7075 -0.7067 0.7067 0.7075 -5.5071 34.0054)" fill="#D86916" width="2.6" height="2.6"/>
		
			<rect x="42.6" y="22.3" transform="matrix(0.7075 -0.7067 0.7067 0.7075 -3.8616 37.9808)" fill="#9B450A" width="2.6" height="2.6"/>
	</g>
	<g>
		
			<rect x="14.5" y="27.7" transform="matrix(0.7075 -0.7067 0.7067 0.7075 -15.8571 19.6636)" fill="#9B450A" width="2.6" height="2.6"/>
		
			<rect x="20.1" y="27.7" transform="matrix(0.7075 -0.7067 0.7067 0.7075 -14.2117 23.639)" fill="#D86916" width="2.6" height="2.6"/>
		
			<rect x="25.8" y="27.7" transform="matrix(0.7075 -0.7067 0.7067 0.7075 -12.5663 27.6144)" fill="#9B450A" width="2.6" height="2.6"/>
		
			<rect x="31.4" y="27.7" transform="matrix(0.7075 -0.7067 0.7067 0.7075 -10.9208 31.5897)" fill="#D86916" width="2.6" height="2.6"/>
		
			<rect x="37" y="27.7" transform="matrix(0.7075 -0.7067 0.7067 0.7075 -9.2754 35.5651)" fill="#9B450A" width="2.6" height="2.6"/>
		
			<rect x="42.6" y="27.7" transform="matrix(0.7075 -0.7067 0.7067 0.7075 -7.63 39.5405)" fill="#D86916" width="2.6" height="2.6"/>
		
			<rect x="48.3" y="27.7" transform="matrix(0.7075 -0.7067 0.7067 0.7075 -5.9845 43.5159)" fill="#9B450A" width="2.6" height="2.6"/>
	</g>
	<g>
		
			<rect x="20.1" y="33" transform="matrix(0.7075 -0.7067 0.7067 0.7075 -17.9814 25.1993)" fill="#9B450A" width="2.6" height="2.6"/>
		
			<rect x="25.8" y="33" transform="matrix(0.7075 -0.7067 0.7067 0.7075 -16.336 29.1747)" fill="#D86916" width="2.6" height="2.6"/>
		
			<rect x="31.4" y="33" transform="matrix(0.7075 -0.7067 0.7067 0.7075 -14.6905 33.15)" fill="#9B450A" width="2.6" height="2.6"/>
		
			<rect x="37" y="33" transform="matrix(0.7075 -0.7067 0.7067 0.7075 -13.0451 37.1254)" fill="#D86916" width="2.6" height="2.6"/>
		
			<rect x="42.6" y="33" transform="matrix(0.7075 -0.7067 0.7067 0.7075 -11.3997 41.1008)" fill="#9B450A" width="2.6" height="2.6"/>
	</g>
	<g>
		<path fill="#E8853A" d="M5.6,42.6c-0.4,0-0.8,0-1.2,0.1C2.9,47.5,2,52.7,2,58.2l0,0h17.2C17.6,49.2,12.1,42.6,5.6,42.6z"/>
		<path fill="#D86313" d="M4.9,45.5c-0.3,0-0.6,0-1,0.1C2.7,49.5,2,53.8,2,58.2l0,0H16C14.7,50.9,10.2,45.5,4.9,45.5z"/>
		<path fill="#E0AB05" d="M3.9,50c-0.2,0-0.4,0-0.6,0C2.5,52.6,2,55.3,2,58.2l0,0h9.1C10.2,53.5,7.4,50,3.9,50z"/>
	</g>
	<g>
		<path fill="#E8853A" d="M59.8,42.6c0.4,0,0.8,0,1.2,0.1c1.5,4.8,2.4,10.1,2.4,15.6l0,0H46.2C47.8,49.2,53.3,42.6,59.8,42.6z"/>
		<path fill="#D86313" d="M60.5,45.5c0.3,0,0.6,0,1,0.1c1.2,3.9,1.9,8.2,1.9,12.6l0,0H49.4C50.7,50.9,55.2,45.5,60.5,45.5z"/>
		<path fill="#E0AB05" d="M61.5,50c0.2,0,0.4,0,0.6,0c0.8,2.5,1.2,5.3,1.2,8.2l0,0h-9.1C55.2,53.5,58,50,61.5,50z"/>
	</g>
</g>
</svg>
