<?xml version="1.0" encoding="utf-8"?>
<!-- Generator: Adobe Illustrator 16.0.0, SVG Export Plug-In . SVG Version: 6.00 Build 0)  -->
<!DOCTYPE svg PUBLIC "-//W3C//DTD SVG 1.1//EN" "http://www.w3.org/Graphics/SVG/1.1/DTD/svg11.dtd">
<svg version="1.1" id="Layer_1" xmlns="http://www.w3.org/2000/svg" xmlns:xlink="http://www.w3.org/1999/xlink" x="0px" y="0px"
	 width="64px" height="64px" viewBox="0 0 64 64" enable-background="new 0 0 64 64" xml:space="preserve">
<g>
	<path fill="#8461C9" d="M26.4,34.1c0.4,1.3-0.3,2.7-1.6,3.1l0,0c-1.3,0.4-2.7-0.3-3.1-1.6L12,5.1c-0.4-1.3,0.3-2.7,1.6-3.1l0,0
		c1.3-0.4,2.7,0.3,3.1,1.6L26.4,34.1z"/>
	<path fill="#673BAD" d="M13.6,1.9L13.6,1.9c1.3-0.4,2.7,0.3,3.1,1.6l9.6,30.5c0.4,1.3-0.3,2.7-1.6,3.1l0,0
		c-1.3,0.4-2.7-0.3-3.1-1.6"/>
	<g>
		<path fill="#3CD3A4" d="M56.6,18.7c-0.8,0-1.6,0.3-2.3,0.7c-1.2-1.9-3.4-3.2-5.9-3.2c0,0,0,0-0.1,0c-1-1.2-2.6-2-4.3-2
			c-1.4,0-2.8,0.5-3.8,1.4c-1-0.9-2.3-1.4-3.8-1.4c-2.6,0-4.8,1.8-5.4,4.2c-0.8-0.3-1.6-0.4-2.4-0.4c-2.8,0-5.2,1.6-6.3,4
			c-0.6-0.2-1.3-0.3-1.9-0.3c-0.8,0-1.6,0.2-2.4,0.4c-1.1-2.5-3.5-4.2-6.4-4.2c-3.9,0-7,3.1-7,7s3.1,7,7,7c0.8,0,1.6-0.2,2.4-0.4
			c1.1,2.5,3.5,4.2,6.4,4.2c2.8,0,5.2-1.6,6.3-4c0.6,0.2,1.3,0.3,1.9,0.3c2.7,0,5.1-1.6,6.2-3.8c1,0.8,2.2,1.3,3.6,1.3
			c1.7,0,3.3-0.8,4.3-2c1.3,1.7,3.3,2.8,5.6,2.8c2.7,0,5-1.5,6.2-3.7c0.6,0.3,1.2,0.5,1.9,0.5c2.3,0,4.1-1.8,4.1-4.1
			S58.9,18.7,56.6,18.7z"/>
		<path fill="#20B79A" d="M56.6,20.4c-0.8,0-1.6,0.3-2.3,0.7c-1.2-1.9-3.4-3.2-5.9-3.2c0,0,0,0-0.1,0c-1-1.2-2.6-2-4.3-2
			c-1.4,0-2.8,0.5-3.8,1.4c-1-0.9-2.3-1.4-3.8-1.4c-2.6,0-4.8,1.8-5.4,4.2c-0.8-0.3-1.6-0.4-2.4-0.4c-2.8,0-5.2,1.6-6.3,4
			c-0.6-0.2-1.3-0.3-1.9-0.3c-0.8,0-1.6,0.2-2.4,0.4c-1.1-2.5-3.5-4.2-6.4-4.2c-3.9,0-7,3.1-7,7s3.1,7,7,7c0.8,0,1.6-0.2,2.4-0.4
			c1.1,2.5,3.5,4.2,6.4,4.2c2.8,0,5.2-1.6,6.3-4c0.6,0.2,1.3,0.3,1.9,0.3c2.7,0,5.1-1.6,6.2-3.8c1,0.8,2.2,1.3,3.6,1.3
			c1.7,0,3.3-0.8,4.3-2c1.3,1.7,3.3,2.8,5.6,2.8c2.7,0,5-1.5,6.2-3.7c0.6,0.3,1.2,0.5,1.9,0.5c2.3,0,4.1-1.8,4.1-4.1
			S58.9,20.4,56.6,20.4z"/>
		<circle fill="#3CD3A4" cx="47.1" cy="10.1" r="3.1"/>
		<circle fill="#3CD3A4" cx="33.8" cy="9" r="2"/>
		<g>
			<path fill="#5B0202" d="M20,56.7c0.9,0.9,0.9,2.4,0,3.4l-2.5,2.5c-0.9,0.9-2.4,0.9-3.4,0l0,0c-0.9-0.9-0.9-2.4,0-3.4l2.5-2.5
				C17.6,55.7,19.1,55.7,20,56.7L20,56.7z"/>
			<path fill="#5B0202" d="M45.4,56.7c-0.9,0.9-0.9,2.4,0,3.4l2.5,2.5c0.9,0.9,2.4,0.9,3.4,0l0,0c0.9-0.9,0.9-2.4,0-3.4l-2.5-2.5
				C47.8,55.7,46.3,55.7,45.4,56.7L45.4,56.7z"/>
		</g>
		<path fill="#960E08" d="M4.4,26.1C3.5,28.8,3,31.5,3,34.4c0,15.4,13.3,27.8,29.7,27.8s29.7-12.5,29.7-27.8c0-2.9-0.5-5.7-1.3-8.3
			H4.4z"/>
		<path fill="#720404" d="M32.7,62.2c16.4,0,29.7-12.5,29.7-27.8c0-2.9-0.5-5.7-1.3-8.3H4.4"/>
		<path fill="#5B0202" d="M62.4,34.4c0-2.9-0.5-5.7-1.3-8.3H4.4"/>
		<path fill="#960E08" d="M63.3,27.5c0,1.3-1.1,2.4-2.4,2.4H4.5c-1.3,0-2.4-1.1-2.4-2.4l0,0c0-1.3,1.1-2.4,2.4-2.4H61
			C62.3,25.1,63.3,26.2,63.3,27.5L63.3,27.5z"/>
		<path fill="#720404" d="M63.3,27.5L63.3,27.5c0,1.3-1.1,2.4-2.4,2.4H4.5c-1.3,0-2.4-1.1-2.4-2.4l0,0"/>
		<circle fill="#20B79A" cx="37.5" cy="25.3" r="3.4"/>
		<circle fill="#20B79A" cx="33.2" cy="23.9" r="3.4"/>
		<circle fill="#20B79A" cx="26.5" cy="26.1" r="4.2"/>
		<circle fill="#20B79A" cx="33.2" cy="34.9" r="2.3"/>
		<circle fill="#20B79A" cx="38.9" cy="33.8" r="1.3"/>
		<path fill="#E9EADF" d="M38.1,44.2c0-3-2.4-5.4-5.4-5.4s-5.4,2.4-5.4,5.4c0,1.8,0.9,3.5,2.3,4.4v0.9c0,1,0.8,1.8,1.8,1.8H34
			c1,0,1.8-0.8,1.8-1.8v-0.9C37.1,47.7,38.1,46,38.1,44.2z"/>
		<g>
			<g>
				<g>
					<circle fill="#E9EADF" cx="23.6" cy="37.8" r="0.9"/>
					<circle fill="#E9EADF" cx="24.7" cy="36.7" r="0.9"/>
				</g>
				<path fill="#E9EADF" d="M27.4,39.1c0.4,0.4,0.4,1,0,1.4l0,0c-0.4,0.4-1,0.4-1.4,0l-1.8-1.8c-0.4-0.4-0.4-1,0-1.4l0,0
					c0.4-0.4,1-0.4,1.4,0L27.4,39.1z"/>
			</g>
			<g>
				<g>
					<circle fill="#E9EADF" cx="41.8" cy="37.8" r="0.9"/>
					<circle fill="#E9EADF" cx="40.7" cy="36.7" r="0.9"/>
				</g>
				<path fill="#E9EADF" d="M38,39.1c-0.4,0.4-0.4,1,0,1.4l0,0c0.4,0.4,1,0.4,1.4,0l1.8-1.8c0.4-0.4,0.4-1,0-1.4l0,0
					c-0.4-0.4-1-0.4-1.4,0L38,39.1z"/>
			</g>
		</g>
		<g>
			<g>
				<g>
					<circle fill="#E9EADF" cx="41.8" cy="50.6" r="0.9"/>
					<circle fill="#E9EADF" cx="40.7" cy="51.7" r="0.9"/>
				</g>
				<path fill="#E9EADF" d="M38,49.3c-0.4-0.4-0.4-1,0-1.4l0,0c0.4-0.4,1-0.4,1.4,0l1.8,1.8c0.4,0.4,0.4,1,0,1.4l0,0
					c-0.4,0.4-1,0.4-1.4,0L38,49.3z"/>
			</g>
			<g>
				<g>
					<circle fill="#E9EADF" cx="23.5" cy="50.6" r="0.9"/>
					<path fill="#E9EADF" d="M25.3,52.4c0.4-0.4,0.4-0.9,0-1.3c-0.4-0.4-0.9-0.4-1.3,0c-0.4,0.4-0.4,0.9,0,1.3
						C24.4,52.7,25,52.7,25.3,52.4z"/>
				</g>
				<path fill="#E9EADF" d="M27.4,49.3c0.4-0.4,0.4-1,0-1.4l0,0c-0.4-0.4-1-0.4-1.4,0l-1.8,1.8c-0.4,0.4-0.4,1,0,1.4l0,0
					c0.4,0.4,1,0.4,1.4,0L27.4,49.3z"/>
			</g>
		</g>
		<g>
			<circle fill="#720404" cx="30.3" cy="45.5" r="1.2"/>
			<circle fill="#720404" cx="35.1" cy="45.5" r="1.2"/>
		</g>
	</g>
</g>
</svg>
