<?xml version="1.0" encoding="utf-8"?>
<!-- Generator: Adobe Illustrator 16.0.0, SVG Export Plug-In . SVG Version: 6.00 Build 0)  -->
<!DOCTYPE svg PUBLIC "-//W3C//DTD SVG 1.1//EN" "http://www.w3.org/Graphics/SVG/1.1/DTD/svg11.dtd">
<svg version="1.1" id="Layer_1" xmlns="http://www.w3.org/2000/svg" xmlns:xlink="http://www.w3.org/1999/xlink" x="0px" y="0px"
	 width="64px" height="64px" viewBox="0 0 64 64" enable-background="new 0 0 64 64" xml:space="preserve">
<g>
	<polygon fill="#189B2A" points="48.1,23.2 40.7,24.3 37.5,15.6 41.9,8.3 48.2,5.1 40.1,5.5 31,14.5 32.2,5.3 39.1,0.1 28.3,2.6 
		25.7,12.7 22,5.9 24.9,0.9 18.3,5.8 21,14.9 15.5,12 16.1,8.7 12.2,13.7 18.7,21.1 25.8,38.8 25.3,58.2 25.1,59 39.1,59 36,36.7 
		42.3,30.8 51.3,26.5 51.5,18.2 	"/>
	<g>
		<polygon fill="#2ECC3D" points="42.4,24.1 36.1,25.5 49.1,24.5 51.5,21 51.5,18.2 48.1,23.2 		"/>
		<polygon fill="#2ECC3D" points="33.1,12.4 32.8,14.5 41.9,5.5 48,5.2 48.2,5.1 40.1,5.5 		"/>
		<polygon fill="#2ECC3D" points="30.5,38.6 20.6,21.1 13,13.5 14.4,11.6 16.1,8.7 12.2,13.7 18.7,21.1 25.8,38.8 25.3,58.2 
			25.1,59 25.4,59 26.2,57 		"/>
		<polygon fill="#2ECC3D" points="22.8,14.9 20.1,5.8 23.1,2.7 24.9,0.9 18.3,5.8 20.6,13.7 		"/>
		<polygon fill="#2ECC3D" points="26.3,16 30.2,2.6 38.3,0.7 39.1,0.1 28.3,2.6 26.3,10.4 		"/>
	</g>
	<circle fill="#2ECC3D" cx="10.6" cy="23.4" r="1.9"/>
	<circle fill="#2ECC3D" cx="16.1" cy="26.1" r="0.6"/>
	<circle fill="#2ECC3D" cx="46.6" cy="36.9" r="0.6"/>
	<circle fill="#2ECC3D" cx="53.7" cy="34" r="0.7"/>
	<circle fill="#189B2A" cx="47.8" cy="14.4" r="1.7"/>
	<circle fill="#189B2A" cx="18.7" cy="35.1" r="0.8"/>
	<circle fill="#189B2A" cx="12.4" cy="19.5" r="0.6"/>
	<circle fill="#189B2A" cx="13.6" cy="32.3" r="1.9"/>
	<circle fill="#189B2A" cx="41.5" cy="37.6" r="1"/>
	<circle fill="#189B2A" cx="40.8" cy="14.5" r="0.8"/>
	<circle fill="#189B2A" cx="44.2" cy="18.7" r="0.9"/>
	<circle fill="#189B2A" cx="44.5" cy="11.2" r="0.5"/>
	<circle fill="#189B2A" cx="47.5" cy="44.1" r="2.4"/>
	<polygon fill="#2ECC3D" points="34.1,19.7 24.5,20.7 33.4,20.5 	"/>
	<polygon fill="#2ECC3D" points="34.9,19 27.1,24.7 34.7,20.1 	"/>
	<path fill="#A0207F" d="M57,60c0,1.1-0.9,2-2,2H8c-1.1,0-2-0.9-2-2l0,0c0-1.1,0.9-2,2-2h47C56.1,58,57,58.9,57,60L57,60z"/>
	<path fill="#700E5B" d="M57,60.1L57,60.1c0,1.1-0.9,1.9-2.1,1.9H8.1C7,62,6,61.1,6,60l0,0"/>
	<polygon fill="#700E5B" points="21.3,59.4 14.3,48.1 22.8,54.4 22.3,50.1 25.1,54.4 26,53.4 27.5,58.2 30.5,56.6 30.4,60.6 
		24.2,61.7 14.8,57.1 	"/>
	<polygon fill="#700E5B" points="30.9,60.7 33.1,54 34.6,57.3 37.2,55 37.8,57.5 43.9,50.2 43.2,55.4 54.7,46.1 47.9,56.9 
		52.1,55.1 50.5,58.6 54.3,57.8 51.2,61.1 	"/>
	<polygon fill="#700E5B" points="14.4,53.8 6.1,45.9 6.9,52.7 	"/>
	<polygon fill="#700E5B" points="20,45.2 16.5,40.4 20,41.9 	"/>
	<polygon fill="#700E5B" points="46,50.5 46.7,48.1 48,49.8 	"/>
</g>
</svg>
