<?xml version="1.0" encoding="utf-8"?>
<!-- Generator: Adobe Illustrator 16.0.0, SVG Export Plug-In . SVG Version: 6.00 Build 0)  -->
<!DOCTYPE svg PUBLIC "-//W3C//DTD SVG 1.1//EN" "http://www.w3.org/Graphics/SVG/1.1/DTD/svg11.dtd">
<svg version="1.1" id="Layer_1" xmlns="http://www.w3.org/2000/svg" xmlns:xlink="http://www.w3.org/1999/xlink" x="0px" y="0px"
	 width="64px" height="64px" viewBox="0 0 64 64" enable-background="new 0 0 64 64" xml:space="preserve">
<g>
	<path fill="#065177" d="M49.5,40c0.7-3.1,1.1-6.6,1.1-10.1c0-16-8-28.9-17.9-28.9s-17.9,13-17.9,28.9c0,3.6,0.4,7,1.1,10.1
		c-5.3,3-8.6,7.4-8.6,12.2c0,9,11.4,10.8,25.4,10.8s25.4-1.8,25.4-10.8C58.1,47.3,54.8,43,49.5,40z"/>
	<path fill="#102D35" d="M32.7,63.1c14,0,25.4-1.8,25.4-10.8c0-4.9-3.3-9.3-8.6-12.2c0.7-3.1,1.1-6.6,1.1-10.1
		c0-16-8-28.9-17.9-28.9"/>
	<path fill="#FFFFFF" d="M46.4,22.9c0-11.1-6.2-14.5-13.7-14.5S19,11.9,19,22.9c0,8,3.2,14.9,7.9,18.1c1.1,7.3,3.3,14.1,5.8,14.1
		s4.7-6.8,5.8-14.1C43.2,37.9,46.4,31,46.4,22.9z"/>
	<path fill="#D3EDEB" d="M32.7,55.2c2.5,0,4.7-6.8,5.8-14.1c4.7-3.2,7.9-10.1,7.9-18.1c0-11.1-6.2-14.5-13.7-14.5"/>
	<path fill="#B8D1D1" d="M35.7,39c0,6.4-1.3,13.4-3,13.4c-1.6,0-3-6.9-3-13.4s1.3-5.3,3-5.3C34.3,33.7,35.7,32.5,35.7,39z"/>
	<path fill="#065177" d="M35.7,38c0,6.4-1.3,11.7-3,11.7c-1.6,0-3-5.2-3-11.7s1.3-5.3,3-5.3C34.3,32.6,35.7,31.5,35.7,38z"/>
	<path fill="#102D35" d="M32.7,32.6c1.6,0,3-1.1,3,5.3s-1.3,11.7-3,11.7"/>
	<g>
		<g>
			<path fill="#102D35" d="M29.9,16.8c1.4,1.4,0.6,4.4-1.7,6.7c-2.3,2.3-5.3,3-6.7,1.6c-1.4-1.4,1.7-2,4-4.3
				C27.8,18.4,28.5,15.4,29.9,16.8z"/>
			<path fill="#065177" d="M21.5,25c-1.4-1.4,1.7-2,4-4.3c2.3-2.3,3-5.3,4.4-3.9"/>
		</g>
		<g>
			<path fill="#102D35" d="M35.5,16.8c-1.4,1.4-0.6,4.4,1.7,6.7c2.3,2.3,5.3,3,6.7,1.6c1.4-1.4-1.7-2-4-4.3
				C37.6,18.4,36.9,15.4,35.5,16.8z"/>
			<path fill="#065177" d="M43.9,25c1.4-1.4-1.7-2-4-4.3c-2.3-2.3-3-5.3-4.4-3.9"/>
		</g>
	</g>
	<g>
		<path fill="#B8D1D1" d="M20.2,31.1c1.3,4.4,3.7,7.9,6.7,10c-0.1-1.7-0.8-3.6-1.9-5.4C23.6,33.5,21.9,31.9,20.2,31.1z"/>
		<path fill="#B8D1D1" d="M38.6,41.1c3-2,5.3-5.6,6.7-10c-1.7,0.8-3.5,2.4-4.8,4.6C39.3,37.5,38.7,39.4,38.6,41.1z"/>
	</g>
	<g>
		<g>
			<g>
				<path fill="#B8D1D1" d="M33.8,27.5c-0.4,0-0.8-0.2-1-0.6c0,0-0.1-0.1-0.1,0c0,0-0.1,0-0.1,0c-0.1,0.4-0.5,0.6-1,0.6
					c-0.6,0-1-0.4-1-0.9c0-0.2,0.1-0.3,0.2-0.5c0,0,0,0,0,0c0,0,0,0,0,0l1.9-3.2l2.1,3.2c0,0,0,0,0,0c0,0,0,0,0,0c0,0.2,0,0.2,0,0.4
					C34.8,27,34.3,27.5,33.8,27.5z"/>
			</g>
			<g>
				<path fill="#102D35" d="M33.8,27.7c-0.4,0-0.8-0.2-1-0.6c0,0-0.1-0.1-0.1,0c0,0-0.1,0-0.1,0c-0.1,0.4-0.5,0.6-1,0.6
					c-0.6,0-1-0.4-1-0.9c0-0.2,0.1-0.3,0.2-0.5l0,0c0,0,0,0,0,0l1.9-2.2l2,2.1l0,0l0,0c0.1,0.2,0.1,0.4,0.1,0.6
					C34.8,27.3,34.3,27.7,33.8,27.7z"/>
			</g>
			<g>
				<g>
					<path fill="#065177" d="M32.7,27C32.7,27,32.6,27.1,32.7,27c-0.2,0.4-0.6,0.7-1.1,0.7c-0.6,0-1-0.4-1-0.9
						c0-0.2,0.1-0.3,0.2-0.5l0,0c0,0,0,0,0,0l1.9-2.2 M34.6,26.3"/>
				</g>
			</g>
		</g>
	</g>
</g>
</svg>
