<?xml version="1.0" encoding="utf-8"?>
<!-- Generator: Adobe Illustrator 16.0.0, SVG Export Plug-In . SVG Version: 6.00 Build 0)  -->
<!DOCTYPE svg PUBLIC "-//W3C//DTD SVG 1.1//EN" "http://www.w3.org/Graphics/SVG/1.1/DTD/svg11.dtd">
<svg version="1.1" id="Layer_1" xmlns="http://www.w3.org/2000/svg" xmlns:xlink="http://www.w3.org/1999/xlink" x="0px" y="0px"
	 width="64px" height="64px" viewBox="0 0 64 64" enable-background="new 0 0 64 64" xml:space="preserve">
<g>
	<g>
		<path fill="#960E08" d="M2.6,18c0.9,10,14.1,23.4,30.2,23.4C48.8,41.4,62,28,62.9,18H2.6z"/>
		<path fill="#770606" d="M32.8,41.4C48.9,41.4,62,28,62.9,18H33"/>
		<path fill="#CE1906" d="M42.1,2.4c-3.8,0-7,1.6-9.4,4c-2.4-2.5-5.6-4.1-9.4-4.1C15.1,2.3,6,9,2.5,18h24.6h11.3H63
			C59.4,9,50.4,2.4,42.1,2.4z"/>
		<path fill="#B51104" d="M38,18h25C59.4,9,50.4,2.4,42.1,2.4c-3.8,0-7.2,1.3-9.6,3.8"/>
		<path fill="#E55145" d="M20.8,5c0.7,0.9-1.2,3.1-4.1,5c-3,1.9-5.9,2.7-6.6,1.8c-0.7-0.9,1.2-3.1,4.1-5C17.2,4.9,20.1,4.1,20.8,5z"
			/>
		<path fill="#CE1906" d="M10.3,25.1c1.1-0.9,4.4,0.8,7.4,3.8c3,3,4.6,6.2,3.5,7.1c-1.1,0.9-4.4-0.8-7.4-3.8S9.2,26,10.3,25.1z"/>
		<path fill="#540200" d="M50.3,18c-2.1-1-7.3-3.1-12.1-3.1c-2.2,0-4.1,0.4-5.5,0.9c-1.4-0.5-3.2-1-5.5-1c-4.8,0-10.1,2.1-12.1,3.1
			h0.1c0.6,3,8.2,4.9,17.6,4.9C42.1,22.9,49.7,21,50.3,18L50.3,18z"/>
		<path fill="#300101" d="M50,18h0.3c-2.1-1-7.3-3.1-12.1-3.1c-2.2,0-4.1,0.4-5.5,0.9c-1.4-0.5-3.2-1-5.5-1
			c-4.8,0-10.1,2.1-12.1,3.1H15"/>
		<g>
			<g>
				<polygon fill="#E2F2EF" points="7,18 11,25.9 15,18 				"/>
				<polygon fill="#9AB2AC" points="10.3,18 11,25.9 15,18 				"/>
			</g>
			<g>
				<polygon fill="#E2F2EF" points="50.4,18 54.4,25.9 58.4,18 				"/>
				<polygon fill="#9AB2AC" points="53.7,18 54.4,25.9 58.4,18 				"/>
			</g>
		</g>
	</g>
	<g>
		<path fill="#B51D1D" d="M59.1,57.6L59.1,57.6l-2.7-6.4l-2.7,6.4l0,0c-0.2,0.4-0.3,0.8-0.3,1.2c0,1.6,1.3,2.9,2.9,2.9
			c1.6,0,2.9-1.3,2.9-2.9C59.3,58.3,59.2,57.9,59.1,57.6z"/>
		<path fill="#770606" d="M56.4,61.7c1.6,0,2.9-1.3,2.9-2.9c0-0.4-0.1-0.8-0.3-1.2l0,0l-2.7-6.4"/>
	</g>
	<g>
		<path fill="#B51D1D" d="M59.1,46.6L59.1,46.6l-2.7-6.4l-2.7,6.4l0,0c-0.2,0.4-0.3,0.8-0.3,1.2c0,1.6,1.3,2.9,2.9,2.9
			c1.6,0,2.9-1.3,2.9-2.9C59.3,47.3,59.2,46.9,59.1,46.6z"/>
		<path fill="#770606" d="M56.4,50.7c1.6,0,2.9-1.3,2.9-2.9c0-0.4-0.1-0.8-0.3-1.2l0,0l-2.7-6.4"/>
	</g>
	<g>
		<path fill="#B51D1D" d="M59.1,35.6L59.1,35.6l-2.7-6.4l-2.7,6.4l0,0c-0.2,0.4-0.3,0.8-0.3,1.2c0,1.6,1.3,2.9,2.9,2.9
			c1.6,0,2.9-1.3,2.9-2.9C59.3,36.3,59.2,35.9,59.1,35.6z"/>
		<path fill="#770606" d="M56.4,39.7c1.6,0,2.9-1.3,2.9-2.9c0-0.4-0.1-0.8-0.3-1.2l0,0l-2.7-6.4"/>
	</g>
</g>
</svg>
