<?xml version="1.0" encoding="utf-8"?>
<!-- Generator: Adobe Illustrator 16.0.0, SVG Export Plug-In . SVG Version: 6.00 Build 0)  -->
<!DOCTYPE svg PUBLIC "-//W3C//DTD SVG 1.1//EN" "http://www.w3.org/Graphics/SVG/1.1/DTD/svg11.dtd">
<svg version="1.1" id="Layer_1" xmlns="http://www.w3.org/2000/svg" xmlns:xlink="http://www.w3.org/1999/xlink" x="0px" y="0px"
	 width="64px" height="64.8px" viewBox="0 0 64 64.8" enable-background="new 0 0 64 64.8" xml:space="preserve">
<g>
	<g>
		<polygon fill="#673BAD" points="26,14.4 21.1,13.3 17,10.4 26.6,1.1 		"/>
		<polygon fill="#4C2991" points="33,8.8 32.5,14.8 29.9,20.2 17,10.5 		"/>
		<ellipse fill="#673BAD" cx="32.7" cy="55.3" rx="30.5" ry="8.4"/>
		<path fill="#8E6DCC" d="M6,55.3c0-4.5,12.7-8.1,28.6-8.4c-0.6,0-1.3,0-1.9,0c-16.9,0-30.5,3.8-30.5,8.4c0,4.7,13.7,8.4,30.5,8.4
			c0.6,0,1.3,0,1.9,0C18.7,63.4,6,59.7,6,55.3z"/>
		<path fill="#3B1F7F" d="M32.7,46.8c16.9,0,30.5,3.8,30.5,8.4c0,4.7-13.7,8.4-30.5,8.4"/>
		<polygon fill="#673BAD" points="49.4,50.8 32.7,54 16,51 33,8.8 		"/>
		<polyline fill="#3B1F7F" points="33,8.8 49.4,50.8 32.7,54 		"/>
		<polygon fill="#FF9C39" points="32.7,45.9 19.1,43.4 16,51 32.7,54 49.4,50.8 46.4,43.2 		"/>
		<polyline fill="#E06E10" points="32.7,54 49.4,50.8 46.4,43.2 32.7,45.9 		"/>
		<g>
			<path fill="#E9EADF" d="M38.4,48.2c0-3.1-2.5-5.7-5.7-5.7c-3.1,0-5.7,2.5-5.7,5.7c0,1.9,1,3.6,2.5,4.7v1c0,1,0.8,1.9,1.9,1.9h2.7
				c1,0,1.9-0.8,1.9-1.9v-1C37.4,51.8,38.4,50.1,38.4,48.2z"/>
			<path fill="#D0D1C5" d="M31.4,55.7h2.7c1,0,1.9-0.8,1.9-1.9v-1c1.5-1,2.5-2.7,2.5-4.7c0-3.1-2.5-5.7-5.7-5.7"/>
			<g>
				<circle fill="#720404" cx="30.2" cy="49.5" r="1.3"/>
				<circle fill="#720404" cx="35.2" cy="49.5" r="1.3"/>
			</g>
		</g>
		<polygon fill="#8E6DCC" points="21.8,41.7 30.1,18.8 25.9,36.3 		"/>
		<polygon fill="#FFC28A" points="18.4,50 20.3,44.4 21.9,47.3 		"/>
	</g>
	<path fill="#A0207F" d="M54.4,19.5c-4.3,0-7.8-3.5-7.8-7.8c0-2.6,1.3-4.9,3.3-6.4c-4.5,0.7-7.9,4.6-7.9,9.4c0,5.2,4.3,9.5,9.5,9.5
		c4.7,0,8.6-3.4,9.4-7.9C59.4,18.2,57.1,19.5,54.4,19.5z"/>
	<g>
		<ellipse fill="#A0207F" cx="8.3" cy="23.7" rx="0.6" ry="5.1"/>
		<ellipse fill="#A0207F" cx="8.3" cy="23.7" rx="5.1" ry="0.6"/>
	</g>
	<g>
		<ellipse fill="#A0207F" cx="8.3" cy="8.3" rx="0.6" ry="5.1"/>
		<ellipse fill="#A0207F" cx="8.3" cy="8.3" rx="5.1" ry="0.6"/>
	</g>
	<g>
		
			<ellipse transform="matrix(-0.7071 0.7071 -0.7071 -0.7071 38.1712 15.6343)" fill="#A0207F" cx="15.8" cy="15.7" rx="0.4" ry="3"/>
		<ellipse transform="matrix(0.7071 0.7071 -0.7071 0.7071 15.7593 -6.6009)" fill="#A0207F" cx="15.8" cy="15.7" rx="0.4" ry="3"/>
	</g>
</g>
</svg>
