<?xml version="1.0" encoding="utf-8"?>
<!-- Generator: Adobe Illustrator 16.0.0, SVG Export Plug-In . SVG Version: 6.00 Build 0)  -->
<!DOCTYPE svg PUBLIC "-//W3C//DTD SVG 1.1//EN" "http://www.w3.org/Graphics/SVG/1.1/DTD/svg11.dtd">
<svg version="1.1" id="Layer_1" xmlns="http://www.w3.org/2000/svg" xmlns:xlink="http://www.w3.org/1999/xlink" x="0px" y="0px"
	 width="64px" height="64px" viewBox="0 0 64 64" enable-background="new 0 0 64 64" xml:space="preserve">
<g>
	<polygon fill="#F9BDA0" points="42,54 22,54 26.1,36 37.9,36 	"/>
	<rect x="7" y="51" fill="#F9BDA0" width="49" height="12"/>
	<g>
		<g>
			<path fill="#00233F" d="M19.7,17.8c0,0,1.4,13.6,0.1,16.5c0,0,2.9-0.7,6.5-0.9l3.6-4.2l-0.6-13.4L19.7,17.8z"/>
			<path fill="#00233F" d="M44.3,17.8c0,0-1.4,13.6-0.1,16.5c0,0-2.9-0.7-6.5-0.9L34,29.2l0.6-13.4L44.3,17.8z"/>
			<path fill="#00233F" d="M43.9,11.5c0,7.7,3.2,9.5-9.5,9.5h-4.7c-5.3,0-9.5-4.2-9.5-9.5l0,0c0-5.3,4.3-9.5,9.5-9.5h4.7
				C39.6,2,43.9,6.2,43.9,11.5L43.9,11.5z"/>
			<g>
				<rect x="26" y="25" fill="#F9BDA0" width="12" height="14"/>
				<polygon fill="#EAA78C" points="38.4,39.2 32.1,42.6 25.9,25 38.1,25 				"/>
			</g>
			<g>
				<path fill="#FCCCB9" d="M41.7,14.9c0,9.3-4.7,17.7-9.6,17.7s-9.7-8.4-9.7-17.7c0-9.3,4.7-10.9,9.7-10.9S41.7,5.6,41.7,14.9z"/>
				<path fill="#F9BDA0" d="M32,4.1c4.9,0,9.6,1.6,9.6,10.9c0,9.3-4.7,17.7-9.6,17.7"/>
			</g>
			<g>
				<g>
					<g>
						<polygon fill="#F9BDA0" points="25.3,39.7 6.2,45.9 7.9,62.4 31.6,57.1 						"/>
					</g>
				</g>
				<g>
					<g>
						<polyline fill="#FCCCB9" points="6.2,45.9 7,63 31.6,57.1 						"/>
					</g>
				</g>
				<g>
					<g>
						<polygon fill="#F9BDA0" points="38.7,39.7 57.8,45.9 55.8,61.7 32.2,57.1 						"/>
					</g>
				</g>
				<g>
					<g>
						<polyline fill="#EAA78C" points="57.8,45.9 56,63 32.4,57.1 						"/>
					</g>
				</g>
			</g>
			<path fill="#00233F" d="M36.6,2.3c0,0-4,16.1-17.5,17c0,0-1.5-9.8,2.4-14c4-4.2,11.1-3.5,11.1-3.5L36.6,2.3z"/>
			<path fill="#00233F" d="M29.8,2.3c0,0,2.8,14.7,14.9,16.2c0,0,1.8-8.7-1.5-12.7c-3.4-4-9.8-3.7-9.8-3.7L29.8,2.3z"/>
		</g>
	</g>
	<g>
		<path fill="#FFFEEE" d="M14.2,62.6c0,0-1.6-4.6-0.8-7.2s2.2-0.9,5.8-3.3c3.6-2.4,12.8,4.1,12.8,4.1V63H14.7L14.2,62.6z"/>
		<path fill="#EAE7C7" d="M49.8,62.6c0,0,1.6-4.6,0.8-7.2c-0.9-2.6-2.2-0.9-5.8-3.3C41.2,49.8,32,56.3,32,56.3V63h17.3L49.8,62.6z"
			/>
	</g>
	<g>
		<g>
			<g>
				<g>
					<path fill="#F283B1" d="M20.3,49.3c0,0.8-0.3,1.8-0.7,1.8S19,50.1,19,49.3c0-0.8,0.3-0.9,0.7-0.9S20.3,48.4,20.3,49.3z"/>
					<path fill="#EF6597" d="M19.6,48.3c0.4,0,0.7,0.1,0.7,0.9c0,0.8-0.3,1.8-0.7,1.8"/>
				</g>
				<g>
					<path fill="#F283B1" d="M19,54.5c0-0.8,0.3-1.8,0.7-1.8s0.7,0.9,0.7,1.8c0,0.8-0.3,0.9-0.7,0.9S19,55.3,19,54.5z"/>
					<path fill="#EF6597" d="M19.6,55.4c-0.4,0-0.7-0.1-0.7-0.9c0-0.8,0.3-1.8,0.7-1.8"/>
				</g>
			</g>
			<g>
				<g>
					<path fill="#F283B1" d="M22.2,52.5c-0.8,0-1.8-0.3-1.8-0.7c0-0.4,0.9-0.7,1.8-0.7c0.8,0,0.9,0.3,0.9,0.7
						C23.2,52.2,23.1,52.5,22.2,52.5z"/>
					<path fill="#EF6597" d="M23.2,51.9c0,0.4-0.1,0.7-0.9,0.7c-0.8,0-1.8-0.3-1.8-0.7"/>
				</g>
				<g>
					<path fill="#F283B1" d="M17,51.2c0.8,0,1.8,0.3,1.8,0.7c0,0.4-0.9,0.7-1.8,0.7s-0.9-0.3-0.9-0.7C16.1,51.5,16.2,51.2,17,51.2z"
						/>
					<path fill="#EF6597" d="M16.1,51.9c0-0.4,0.1-0.7,0.9-0.7s1.8,0.3,1.8,0.7"/>
				</g>
			</g>
		</g>
		<g>
			<g>
				<g>
					<path fill="#F283B1" d="M21.9,50.5c-0.6,0.6-1.4,1-1.7,0.8C20,51,20.4,50.2,21,49.6c0.6-0.6,0.9-0.5,1.1-0.2
						C22.4,49.6,22.5,49.9,21.9,50.5z"/>
					<path fill="#EF6597" d="M22.1,49.4c0.3,0.3,0.4,0.5-0.2,1.1c-0.6,0.6-1.4,1-1.7,0.8"/>
				</g>
				<g>
					<path fill="#F283B1" d="M17.3,53.3c0.6-0.6,1.5-1,1.7-0.8c0.3,0.3-0.2,1.1-0.8,1.7c-0.6,0.6-0.9,0.5-1.1,0.2
						C16.9,54.1,16.7,53.9,17.3,53.3z"/>
					<path fill="#EF6597" d="M17.1,54.4c-0.3-0.3-0.4-0.5,0.2-1.1c0.6-0.6,1.5-1,1.7-0.8"/>
				</g>
			</g>
			<g>
				<g>
					<path fill="#F283B1" d="M21,54.2c-0.6-0.6-1-1.4-0.8-1.7c0.3-0.3,1.1,0.2,1.7,0.8c0.6,0.6,0.5,0.9,0.2,1.1S21.6,54.8,21,54.2z"
						/>
					<path fill="#EF6597" d="M22.1,54.4c-0.3,0.3-0.5,0.4-1.1-0.2c-0.6-0.6-1-1.4-0.8-1.7"/>
				</g>
				<g>
					<path fill="#F283B1" d="M18.3,49.6c0.6,0.6,1,1.5,0.8,1.7c-0.3,0.3-1.1-0.2-1.7-0.8c-0.6-0.6-0.5-0.9-0.2-1.1
						S17.7,49,18.3,49.6z"/>
					<path fill="#EF6597" d="M17.1,49.4c0.3-0.3,0.5-0.4,1.1,0.2c0.6,0.6,1,1.5,0.8,1.7"/>
				</g>
			</g>
		</g>
		<g>
			<circle fill="#F7C90B" cx="19.6" cy="51.9" r="1.1"/>
			<path fill="#F9A908" d="M20.4,51.1c0.4,0.4,0.4,1.1,0,1.6c-0.4,0.4-1.1,0.4-1.6,0"/>
		</g>
	</g>
	<path fill="#FFFEEE" d="M32,2.9c5.8,0,10.6,4.2,11.1,9.7c0-0.4,0.1-0.7,0.1-1.1c0-6-5-10.8-11.2-10.8c-6.2,0-11.2,4.8-11.2,10.8
		c0,0.4,0,0.8,0.1,1.1C21.4,7.2,26.2,2.9,32,2.9z"/>
	<path fill="#EAE7C7" d="M32,2.9c5.8,0,10.6,4.2,11.1,9.7c0-0.4,0.1-0.7,0.1-1.1c0-6-5-10.8-11.2-10.8"/>
	<g>
		<path fill="#FFFEEE" d="M32,45.8c-3.7,0-6.7-2.7-7.1-6.2c0,0.2,0,0.5,0,0.7c0,3.8,3.2,6.9,7.1,6.9s7.1-3.1,7.1-6.9
			c0-0.2,0-0.5,0-0.7C38.7,43.1,35.7,45.8,32,45.8z"/>
		<path fill="#EAE7C7" d="M32,47.2c3.9,0,7.1-3.1,7.1-6.9c0-0.2,0-0.5,0-0.7c-0.4,3.5-3.4,6.2-7.1,6.2"/>
	</g>
	<g>
		<path fill="#FFFEEE" d="M32,41.8c-3.3,0-6-2.4-6.4-5.4c0,0.2,0,0.4,0,0.6c0,3.3,2.9,6,6.4,6s6.4-2.7,6.4-6c0-0.2,0-0.4,0-0.6
			C38,39.4,35.3,41.8,32,41.8z"/>
		<path fill="#EAE7C7" d="M32,43.1c3.5,0,6.4-2.7,6.4-6c0-0.2,0-0.4,0-0.6c-0.3,3-3.1,5.4-6.4,5.4"/>
	</g>
	<g>
		<g>
			<polygon fill="#D65483" points="43,4.6 43,3 40.4,3 40.4,6 42,6 			"/>
			<rect x="39" y="2" fill="#D65483" width="3" height="3"/>
			<polygon fill="#D65483" points="41,1 39.6,1.1 38.2,2.5 38,4 41,4 			"/>
		</g>
		<g>
			<path fill="#EA7D9F" d="M43,5l-0.4-1.5l-1.1-0.1l0.1-0.9l-1-0.2l0-0.8L40,1.4V0.8L38.6,2c-1,1-1.1,2.6-0.1,3.6l0.1,0.1
				c1,1,2.5,1.2,3.5,0.2L43.3,5H43z"/>
		</g>
		<g>
			<rect x="41.8" y="3.5" fill="#F4AEC7" width="0.7" height="0.3"/>
			<rect x="40.8" y="2.5" fill="#F4AEC7" width="0.7" height="0.3"/>
			<path fill="#F4AEC7" d="M38.9,2.2L40,1.4V0.8L38.6,2c-1,1-1.1,2.6-0.1,3.6l0.1,0.1c0,0,0.1,0,0.1,0.1C37.8,4.7,37.9,3.2,38.9,2.2
				z"/>
			<rect x="39.8" y="1.5" fill="#F4AEC7" width="0.7" height="0.3"/>
		</g>
	</g>
	<g>
		<g>
			<polygon fill="#D65483" points="42.8,7.4 43.5,6.5 41.9,5.3 40.7,7 41.7,7.6 			"/>
			
				<rect x="40.9" y="4.7" transform="matrix(0.8115 0.5843 -0.5843 0.8115 11.2347 -23.4406)" fill="#D65483" width="2" height="2"/>
			<polygon fill="#D65483" points="43.2,4.4 42.2,3.7 41.1,3.9 40.4,4.9 42,6.1 			"/>
		</g>
		<g>
			<path fill="#EA7D9F" d="M42.5,7.2l0.4-0.6l-0.6-0.4l0.4-0.6l-0.6-0.4l0.4-0.6L42,4.1l0.3-0.4l-1.2,0.2c-1,0.2-1.7,1.1-1.5,2.1
				l0,0.1c0.2,1,1.1,1.7,2.1,1.5l1.2-0.2L42.5,7.2z"/>
		</g>
		<g>
			
				<rect x="42.4" y="6.4" transform="matrix(-0.8104 -0.5859 0.5859 -0.8104 73.419 36.7447)" fill="#F4AEC7" width="0.5" height="0.2"/>
			
				<rect x="42.2" y="5.4" transform="matrix(-0.8113 -0.5847 0.5847 -0.8113 73.7549 34.7687)" fill="#F4AEC7" width="0.5" height="0.2"/>
			<polygon fill="#F4AEC7" points="42.5,7.4 42.6,7.5 42.9,7.4 42.7,7.3 			"/>
			<path fill="#F4AEC7" d="M41.2,4.2L42.1,4l0.2-0.3l-1.2,0.2c-1,0.2-1.7,1.1-1.5,2.1l0,0.1c0,0,0,0,0,0.1
				C39.6,5.2,40.2,4.3,41.2,4.2z"/>
			
				<rect x="42.1" y="4.4" transform="matrix(-0.8104 -0.5859 0.5859 -0.8104 74.0084 32.8837)" fill="#F4AEC7" width="0.5" height="0.2"/>
		</g>
	</g>
	<g>
		<circle fill="#B5750F" cx="32" cy="45.8" r="2.3"/>
		<circle fill="#DD981D" cx="32" cy="45.5" r="2.3"/>
		<path fill="#CE8106" d="M32,43.2c1.3,0,2.3,1,2.3,2.3c0,1.3-1,2.3-2.3,2.3"/>
		<circle fill="#EFB65B" cx="32" cy="45.5" r="1.5"/>
		<path fill="#E2A750" d="M33,44.5c0.6,0.6,0.6,1.5,0,2.1c-0.6,0.6-1.5,0.6-2.1,0"/>
	</g>
	
		<rect x="31.2" y="48.7" transform="matrix(0.7074 -0.7068 0.7068 0.7074 -25.619 37.0983)" fill="#FFFEEE" width="1.6" height="1.6"/>
	<circle fill="#FFFEEE" cx="32" cy="51.3" r="0.5"/>
	<circle fill="#FFFEEE" cx="32" cy="52.7" r="0.5"/>
	<circle fill="#FFFEEE" cx="32" cy="54.1" r="0.5"/>
	<g>
		<g>
			<circle fill="#EAE7C7" cx="34.9" cy="2.9" r="0.3"/>
			<circle fill="#EAE7C7" cx="36.1" cy="2.9" r="0.3"/>
			<circle fill="#EAE7C7" cx="37.3" cy="2.9" r="0.3"/>
		</g>
	</g>
	<g>
		<g>
			<circle fill="#EAE7C7" cx="29.1" cy="4" r="0.3"/>
			<circle fill="#EAE7C7" cx="30.3" cy="4" r="0.3"/>
			<circle fill="#EAE7C7" cx="31.5" cy="4" r="0.3"/>
		</g>
		<g>
			<circle fill="#EAE7C7" cx="32.5" cy="4" r="0.3"/>
			<circle fill="#EAE7C7" cx="33.7" cy="4" r="0.3"/>
			<circle fill="#EAE7C7" cx="34.9" cy="4" r="0.3"/>
		</g>
	</g>
	<g>
		<g>
			<circle fill="#EAE7C7" cx="26.7" cy="5.2" r="0.3"/>
			<circle fill="#EAE7C7" cx="27.9" cy="5.2" r="0.3"/>
			<circle fill="#EAE7C7" cx="29.1" cy="5.2" r="0.3"/>
			<circle fill="#EAE7C7" cx="30.3" cy="5.2" r="0.3"/>
			<circle fill="#EAE7C7" cx="31.5" cy="5.2" r="0.3"/>
		</g>
		<g>
			<circle fill="#EAE7C7" cx="32.5" cy="5.2" r="0.3"/>
			<circle fill="#EAE7C7" cx="33.7" cy="5.2" r="0.3"/>
			<circle fill="#EAE7C7" cx="34.9" cy="5.2" r="0.3"/>
			<circle fill="#EAE7C7" cx="36.1" cy="5.2" r="0.3"/>
			<circle fill="#EAE7C7" cx="37.3" cy="5.2" r="0.3"/>
		</g>
	</g>
	<g>
		<g>
			<circle fill="#EAE7C7" cx="26.7" cy="6.3" r="0.3"/>
			<circle fill="#EAE7C7" cx="27.9" cy="6.3" r="0.3"/>
			<circle fill="#EAE7C7" cx="29.1" cy="6.3" r="0.3"/>
			<circle fill="#EAE7C7" cx="30.3" cy="6.3" r="0.3"/>
			<circle fill="#EAE7C7" cx="31.5" cy="6.3" r="0.3"/>
		</g>
		<g>
			<circle fill="#EAE7C7" cx="32.5" cy="6.3" r="0.3"/>
			<circle fill="#EAE7C7" cx="33.7" cy="6.3" r="0.3"/>
			<circle fill="#EAE7C7" cx="34.9" cy="6.3" r="0.3"/>
			<circle fill="#EAE7C7" cx="36.1" cy="6.3" r="0.3"/>
			<circle fill="#EAE7C7" cx="37.3" cy="6.3" r="0.3"/>
		</g>
	</g>
	<g>
		<g>
			<circle fill="#EAE7C7" cx="26.7" cy="7.5" r="0.3"/>
			<circle fill="#EAE7C7" cx="27.9" cy="7.5" r="0.3"/>
			<circle fill="#EAE7C7" cx="29.1" cy="7.5" r="0.3"/>
			<circle fill="#EAE7C7" cx="30.3" cy="7.5" r="0.3"/>
			<circle fill="#EAE7C7" cx="31.5" cy="7.5" r="0.3"/>
		</g>
		<g>
			<circle fill="#EAE7C7" cx="32.5" cy="7.5" r="0.3"/>
			<circle fill="#EAE7C7" cx="33.7" cy="7.5" r="0.3"/>
			<circle fill="#EAE7C7" cx="34.9" cy="7.5" r="0.3"/>
			<circle fill="#EAE7C7" cx="36.1" cy="7.5" r="0.3"/>
			<circle fill="#EAE7C7" cx="37.3" cy="7.5" r="0.3"/>
		</g>
	</g>
	<g>
		<g>
			<circle fill="#EAE7C7" cx="26.7" cy="8.7" r="0.3"/>
			<circle fill="#EAE7C7" cx="27.9" cy="8.7" r="0.3"/>
			<circle fill="#EAE7C7" cx="29.1" cy="8.7" r="0.3"/>
			<circle fill="#EAE7C7" cx="30.3" cy="8.7" r="0.3"/>
			<circle fill="#EAE7C7" cx="31.5" cy="8.7" r="0.3"/>
		</g>
		<g>
			<circle fill="#EAE7C7" cx="32.5" cy="8.7" r="0.3"/>
			<circle fill="#EAE7C7" cx="33.7" cy="8.7" r="0.3"/>
			<circle fill="#EAE7C7" cx="34.9" cy="8.7" r="0.3"/>
			<circle fill="#EAE7C7" cx="36.1" cy="8.7" r="0.3"/>
			<circle fill="#EAE7C7" cx="37.3" cy="8.7" r="0.3"/>
		</g>
	</g>
	<g>
		<g>
			<circle fill="#EAE7C7" cx="26.7" cy="9.8" r="0.3"/>
			<circle fill="#EAE7C7" cx="27.9" cy="9.8" r="0.3"/>
			<circle fill="#EAE7C7" cx="29.1" cy="9.8" r="0.3"/>
			<circle fill="#EAE7C7" cx="30.3" cy="9.8" r="0.3"/>
			<circle fill="#EAE7C7" cx="31.5" cy="9.8" r="0.3"/>
		</g>
		<g>
			<circle fill="#EAE7C7" cx="32.5" cy="9.8" r="0.3"/>
			<circle fill="#EAE7C7" cx="33.7" cy="9.8" r="0.3"/>
			<circle fill="#EAE7C7" cx="34.9" cy="9.8" r="0.3"/>
			<circle fill="#EAE7C7" cx="36.1" cy="9.8" r="0.3"/>
			<circle fill="#EAE7C7" cx="37.3" cy="9.8" r="0.3"/>
		</g>
	</g>
	<g>
		<g>
			<circle fill="#EAE7C7" cx="26.7" cy="11" r="0.3"/>
			<circle fill="#EAE7C7" cx="27.9" cy="11" r="0.3"/>
			<circle fill="#EAE7C7" cx="29.1" cy="11" r="0.3"/>
			<circle fill="#EAE7C7" cx="30.3" cy="11" r="0.3"/>
			<circle fill="#EAE7C7" cx="31.5" cy="11" r="0.3"/>
		</g>
		<g>
			<circle fill="#EAE7C7" cx="32.5" cy="11" r="0.3"/>
			<circle fill="#EAE7C7" cx="33.7" cy="11" r="0.3"/>
			<circle fill="#EAE7C7" cx="34.9" cy="11" r="0.3"/>
			<circle fill="#EAE7C7" cx="36.1" cy="11" r="0.3"/>
			<circle fill="#EAE7C7" cx="37.3" cy="11" r="0.3"/>
		</g>
	</g>
	<g>
		<g>
			<circle fill="#EAE7C7" cx="26.7" cy="12.1" r="0.3"/>
			<circle fill="#EAE7C7" cx="27.9" cy="12.1" r="0.3"/>
			<circle fill="#EAE7C7" cx="29.1" cy="12.1" r="0.3"/>
			<circle fill="#EAE7C7" cx="30.3" cy="12.1" r="0.3"/>
			<circle fill="#EAE7C7" cx="31.5" cy="12.1" r="0.3"/>
		</g>
		<g>
			<circle fill="#EAE7C7" cx="32.5" cy="12.1" r="0.3"/>
			<circle fill="#EAE7C7" cx="33.7" cy="12.1" r="0.3"/>
			<circle fill="#EAE7C7" cx="34.9" cy="12.1" r="0.3"/>
			<circle fill="#EAE7C7" cx="36.1" cy="12.1" r="0.3"/>
			<circle fill="#EAE7C7" cx="37.3" cy="12.1" r="0.3"/>
		</g>
	</g>
</g>
</svg>
