<?xml version="1.0" encoding="utf-8"?>
<!-- Generator: Adobe Illustrator 16.0.0, SVG Export Plug-In . SVG Version: 6.00 Build 0)  -->
<!DOCTYPE svg PUBLIC "-//W3C//DTD SVG 1.1//EN" "http://www.w3.org/Graphics/SVG/1.1/DTD/svg11.dtd">
<svg version="1.1" id="Layer_1" xmlns="http://www.w3.org/2000/svg" xmlns:xlink="http://www.w3.org/1999/xlink" x="0px" y="0px"
	 width="64px" height="65px" viewBox="0 0 64 65" enable-background="new 0 0 64 65" xml:space="preserve">
<g>
	<g>
		<g>
			<path fill="#0C537A" d="M38,28.2c-0.5-1.1-1-2.7-1.4-3.7h-9.2c-0.4,1-0.9,2.6-1.4,3.7c-3,6.7-3,8.5-3,12.7v5.8v0.5V59
				c0,3,2.6,5.5,5.6,5.5h6.8c3,0,5.6-2.6,5.6-5.5V47.2v-0.5V41C41,36.7,41,35,38,28.2z"/>
			<path fill="#00233F" d="M38,28.2c-0.5-1.1-1-2.7-1.4-3.7h-5.2l3.9,40c3,0,5.6-2.6,5.6-5.5V47.2v-0.5V41C41,36.7,41,35,38,28.2z"
				/>
			<line fill="#246642" x1="23" y1="46.5" x2="23" y2="47.5"/>
			<path fill="#F4CF31" d="M34,5.3c0,1-0.3,2.2-1.3,2.2h-1.5c-0.9,0-1.3-1.2-1.3-2.2V2.4c0-1,0.3-1.9,1.3-1.9h1.5
				c0.9,0,1.3,1,1.3,1.9V5.3z"/>
			<path fill="#FFFEEE" d="M36.4,23.5c-1.7-7-2-16.6-2-16.6L33,6.6V6.4l-1,0.1l-1-0.1l0,0l-1.4-0.5c0,0-0.3,10.6-2,17.6H36.4z"/>
			<path fill="#EAE7C7" d="M31,23.5h5.4c-1.7-7-2-17.6-2-17.6L33,6.4l0,0l-1,0.1l-1-0.1v0.1"/>
			<path fill="#127496" d="M26.7,33.6c-0.5,2.2-1.4,3.8-2,3.7c-0.5-0.1-0.5-2,0-4.2c0.5-2.2,1.4-3.8,2-3.7
				C27.3,29.5,27.3,31.4,26.7,33.6z"/>
			<path fill="#E2B22B" d="M34.8,6c0,0.3-0.2,0.5-0.5,0.5h-4.5c-0.3,0-0.5-0.2-0.5-0.5l0,0c0-0.3,0.2-0.5,0.5-0.5h4.5
				C34.5,5.5,34.8,5.7,34.8,6L34.8,6z"/>
			<path fill="#D39C20" d="M34.8,6.1L34.8,6.1c0,0.3-0.2,0.4-0.5,0.4h-4.5c-0.3,0-0.5-0.2-0.5-0.5l0,0"/>
			<g>
				<path fill="#E2B22B" d="M34,5.7c0-0.1,0-0.2,0-0.4V2.4c0-1-0.3-1.9-1.3-1.9h-1.5l0,4.1L34,5.7z"/>
			</g>
		</g>
	</g>
	<polygon fill="#FFFEEE" points="37.6,26.3 32,39.1 26.4,26.3 32,23.6 	"/>
	<polygon fill="#EAE7C7" points="37.6,26.3 32,39.1 31.8,26.3 31.3,21.5 	"/>
	<g>
		<g>
			<g>
				<polygon fill="#EF4391" points="31,25.6 31,22.7 22,19.2 22,28.5 				"/>
				<polygon fill="#D81665" points="31,25.6 31,22.7 24.1,23.1 22,28.5 				"/>
				<polygon fill="#BC085A" points="32,25.6 31,22.7 25.6,25.6 22,28.5 				"/>
			</g>
			<g>
				<polygon fill="#EF4391" points="33,25.6 33,22.7 42,19.2 42,28.5 				"/>
				<polygon fill="#D81665" points="33,25.6 33,22.7 39.9,23.1 42,28.5 				"/>
				<polygon fill="#BC085A" points="32,25.6 33,22.7 38.4,25.6 42,28.5 				"/>
			</g>
		</g>
		<path fill="#D81665" d="M33,25.2c0,0.6-0.4,1.1-1,1.1l0,0c-0.6,0-1-0.5-1-1.1v-2.3c0-0.6,0.4-1.1,1-1.1l0,0c0.6,0,1,0.5,1,1.1
			V25.2z"/>
		<path fill="#BC085A" d="M33,23.5v1.7c0,0.6-0.4,1.1-1,1.1l0,0c-0.6,0-1-0.5-1-1.1v-1.7"/>
	</g>
	<circle fill="#00233F" cx="32" cy="28.9" r="0.7"/>
	<circle fill="#00233F" cx="32" cy="31.3" r="0.7"/>
	<circle fill="#00233F" cx="32" cy="33.7" r="0.7"/>
	<g>
		<path fill="#EAE7C7" d="M36,54.2c0,0.1-0.1,0.3-0.3,0.3h-6.5c-0.1,0-0.3-0.1-0.3-0.3v-0.5c0-0.1,0.1-0.3,0.3-0.3h6.5
			c0.1,0,0.3,0.1,0.3,0.3V54.2z"/>
		<path fill="#EAE7C7" d="M36,56.2c0,0.1-0.1,0.3-0.3,0.3h-6.5c-0.1,0-0.3-0.1-0.3-0.3v-0.5c0-0.1,0.1-0.3,0.3-0.3h6.5
			c0.1,0,0.3,0.1,0.3,0.3V56.2z"/>
		<path fill="#EAE7C7" d="M36,58.2c0,0.1-0.1,0.3-0.3,0.3h-6.5c-0.1,0-0.3-0.1-0.3-0.3v-0.5c0-0.1,0.1-0.3,0.3-0.3h6.5
			c0.1,0,0.3,0.1,0.3,0.3V58.2z"/>
	</g>
	<path fill="#127496" d="M25,59c0,0.3-0.2,0.5-0.5,0.5l0,0c-0.3,0-0.5-0.2-0.5-0.5V39c0-0.3,0.2-0.5,0.5-0.5l0,0
		c0.3,0,0.5,0.2,0.5,0.5V59z"/>
	<g>
		<path fill="#FFFEEE" d="M33.8,46.2l1-1.2c0,0,0,0,0,0l0,0c0.2-0.2,0.3-0.5,0.3-0.7c0-0.7-0.7-1.3-1.5-1.3c-0.7,0-1.2,0.4-1.4,0.9
			c0,0.1-0.1,0.1-0.1,0.1c-0.1,0-0.1,0-0.1-0.1c-0.2-0.5-0.8-0.9-1.4-0.9c-0.8,0-1.5,0.6-1.5,1.3c0,0.3,0.1,0.5,0.3,0.7l0,0
			c0,0,0,0,0,0l1,1.2l1.8-2.1L33.8,46.2z"/>
		<path fill="#DDD8B1" d="M34.8,47.5C34.8,47.5,34.8,47.4,34.8,47.5l-1-1.2L32,48.3l-1.8-2.1l-1,1.2c0,0,0,0,0,0l0,0
			c-0.2,0.2-0.3,0.5-0.3,0.7c0,0.7,0.7,1.3,1.5,1.3c0.7,0,1.2-0.4,1.4-0.9c0-0.1,0.1-0.1,0.1-0.1c0.1,0,0.1,0,0.1,0.1
			c0.2,0.5,0.8,0.9,1.4,0.9c0.8,0,1.5-0.6,1.5-1.3C35.1,47.9,35,47.7,34.8,47.5C34.8,47.5,34.8,47.5,34.8,47.5z"/>
	</g>
</g>
</svg>
