<?xml version="1.0" encoding="utf-8"?>
<!-- Generator: Adobe Illustrator 16.0.0, SVG Export Plug-In . SVG Version: 6.00 Build 0)  -->
<!DOCTYPE svg PUBLIC "-//W3C//DTD SVG 1.1//EN" "http://www.w3.org/Graphics/SVG/1.1/DTD/svg11.dtd">
<svg version="1.1" id="Layer_1" xmlns="http://www.w3.org/2000/svg" xmlns:xlink="http://www.w3.org/1999/xlink" x="0px" y="0px"
	 width="64px" height="65px" viewBox="0 0 64 65" enable-background="new 0 0 64 65" xml:space="preserve">
<g>
	<path fill="#1B9E79" d="M51,62.7c0,0.7-0.6,1.3-1.3,1.3H3.3C2.6,64,2,63.4,2,62.7v-0.4C2,61.6,2.6,61,3.3,61h46.4
		c0.7,0,1.3,0.6,1.3,1.3V62.7z"/>
	<rect x="27" y="42" fill="#F4CF31" width="33" height="21"/>
	<polyline fill="#E5AB1A" points="27,63 27,42 60,42 	"/>
	<polygon fill="#C14985" points="40.6,35 58.8,35 63,43 40.3,43 	"/>
	<polyline fill="#AA3776" points="40.4,43.2 40.6,35 59,35 	"/>
	<g>
		<g>
			<rect x="18" y="25" fill="#F7E289" width="24" height="38"/>
			<rect x="18" y="25" fill="#F4CF31" width="24" height="6"/>
			<path fill="#FFAA22" d="M26,63v-8.5c0-2.5,2-4.4,4.5-4.4l0,0c2.5,0,4.5,2,4.5,4.4V63"/>
			<path fill="#FFAA22" d="M26,63v-8.5c0-2.5,2.5-4.5,4.5-4.5l0,0c3,0,4.5,2.1,4.5,4.5V63"/>
			<path fill="#E58B0A" d="M26,54.5c0-2.5,2-4.5,4.4-4.5l0,0c3.1,0,4.6,2.1,4.6,4.5V63"/>
			<polygon fill="#D86699" points="44.7,26.1 30.1,25.6 15.5,26.1 30.1,11.5 			"/>
			<polyline fill="#C14985" points="30.1,11.5 44.7,26.1 30.1,25.6 			"/>
			<g>
				<path fill="#D86699" d="M33.1,3H32V1.6C32,1.1,31.3,1,30.8,1h-2.3C28.1,1,28,1.1,28,1.6V3h-1.5C26.1,3,26,3.1,26,3.6v1.9
					C26,6,26.1,6,26.5,6H28v3.4c0,0.5,0.1,0.6,0.6,0.6h2.9c0.5,0,0.6-0.1,0.6-0.6V6h1.1C33.4,6,34,5.4,34,4.9V3.4
					C34,2.9,33.4,3,33.1,3z"/>
				<path fill="#C14985" d="M32,6h1.5C33.9,6,34,6,34,5.5v-2C34,3,33.9,3,33.5,3H32V1.6C32,1.1,31.9,1,31.5,1h-2.9
					C28.1,1,28,1.1,28,1.6v1.4L32,6z"/>
			</g>
			<circle fill="#D6E9EA" cx="32.6" cy="59.1" r="0.6"/>
		</g>
	</g>
	<g>
		<path fill="#D86699" d="M30,33.4c-1-1.1-1.9-1.8-3.3-1.8c-2.1,0-3.7,1.5-3.7,3.3c0,0.7,0.2,1.3,0.7,1.8l0,0c0,0,0,0,0,0l6.4,6.3
			V33.4z"/>
		<path fill="#C14985" d="M30,33.4c1-1.1,1.9-1.8,3.4-1.8c2.1,0,3.8,1.5,3.8,3.3c0,0.7-0.2,1.3-0.6,1.8c0,0,0,0,0,0c0,0-0.1,0-0.1,0
			L30,43.2V33.4z"/>
	</g>
	<g>
		<rect x="9" y="56" fill="#1B9E79" width="2" height="7"/>
		<g>
			<polygon fill="#2ED887" points="19,58 10,44.8 1,58 			"/>
			<polygon fill="#2CBF7F" points="19,58 10,44.8 7.5,58 			"/>
		</g>
		<g>
			<polygon fill="#2ED887" points="17.2,53 10.1,42.5 2.9,53 			"/>
			<polygon fill="#2CBF7F" points="17.2,53 10.1,42.5 8,53 			"/>
		</g>
		<g>
			<polygon fill="#2ED887" points="15.7,48 10.1,39.6 4.4,48 			"/>
			<polygon fill="#2CBF7F" points="15.7,48 10.1,39.6 8.5,48 			"/>
		</g>
		<g>
			<polygon fill="#2ED887" points="14.2,45 10.1,38.9 5.9,45 			"/>
			<polygon fill="#2CBF7F" points="14.2,45 10.1,38.9 8.9,45 			"/>
		</g>
		<path fill="#1B9E79" d="M12.9,63.1c0,0.3-1.3,0.1-2.8,0.1c-1.6,0-2.8,0.2-2.8-0.1c0-0.3,1.3-0.5,2.8-0.5
			C11.6,62.6,12.9,62.8,12.9,63.1z"/>
	</g>
	<g>
		<g>
			<path fill="#D86699" d="M51.8,56.6c0.4,0.7,1.3,1.2,2.2,1.2c1.4,0,2.5-1,2.5-2.2c0-0.4-0.1-0.9-0.4-1.2c0,0,0,0,0,0c0,0,0,0,0,0
				l-4.3-4.2V56.6z"/>
			<path fill="#C14985" d="M51.8,56.6c-0.4,0.7-1.3,1.2-2.2,1.2c-1.4,0-2.5-1-2.5-2.2c0-0.4,0.1-0.9,0.4-1.2c0,0,0,0,0,0
				c0,0,0,0,0,0l4.3-4.2V56.6z"/>
		</g>
		<g>
			<path fill="#D86699" d="M51.8,50c-0.4-0.7-1.3-1.2-2.2-1.2c-1.4,0-2.5,1-2.5,2.2c0,0.4,0.1,0.9,0.4,1.2l0,0c0,0,0,0,0,0l4.3,4.2
				V50z"/>
			<path fill="#C14985" d="M51.8,50c0.4-0.7,1.3-1.2,2.2-1.2c1.4,0,2.5,1,2.5,2.2c0,0.4-0.1,0.9-0.4,1.2c0,0,0,0,0,0c0,0,0,0,0,0
				l-4.3,4.2V50z"/>
		</g>
	</g>
</g>
</svg>
