<?xml version="1.0" encoding="utf-8"?>
<!-- Generator: Adobe Illustrator 16.0.0, SVG Export Plug-In . SVG Version: 6.00 Build 0)  -->
<!DOCTYPE svg PUBLIC "-//W3C//DTD SVG 1.1//EN" "http://www.w3.org/Graphics/SVG/1.1/DTD/svg11.dtd">
<svg version="1.1" id="Layer_1" xmlns="http://www.w3.org/2000/svg" xmlns:xlink="http://www.w3.org/1999/xlink" x="0px" y="0px"
	 width="64px" height="64px" viewBox="0 0 64 64" enable-background="new 0 0 64 64" xml:space="preserve">
<g>
	<polygon fill="#00233F" points="54.5,43 15.1,43 20.4,32 50.3,32 	"/>
	<polygon fill="#00233F" points="25.6,44 6,44 8.6,39 23.5,39 	"/>
	<polygon fill="#00233F" points="63,48.1 1.8,48 3.9,41 54,41 62,41 	"/>
	<path fill="#00233F" d="M63.5,48.5c0,0.4-0.3,0.5-0.7,0.5H1.2c-0.4,0-0.7-0.1-0.7-0.5l0,0c0-0.4,0.3-0.5,0.7-0.5h61.6
		C63.2,48,63.5,48.1,63.5,48.5L63.5,48.5z"/>
	<g>
		<circle fill="#0A486B" cx="15.2" cy="48.1" r="4.5"/>
		<path fill="#00233F" d="M15.2,43.6c2.5,0,4.5,2,4.5,4.5s-2,4.5-4.5,4.5"/>
		<circle fill="#F3FBFF" cx="15.2" cy="48.1" r="2.5"/>
		<path fill="#DFEDF7" d="M15.2,45.5c1.4,0,2.5,1.1,2.5,2.5s-1.1,2.5-2.5,2.5"/>
	</g>
	<g>
		<circle fill="#0A486B" cx="53.5" cy="48.1" r="4.5"/>
		<path fill="#00233F" d="M53.5,43.6c2.5,0,4.5,2,4.5,4.5s-2,4.5-4.5,4.5"/>
		<circle fill="#F3FBFF" cx="53.5" cy="48.1" r="2.5"/>
		<path fill="#DFEDF7" d="M53.5,45.5c1.4,0,2.5,1.1,2.5,2.5s-1.1,2.5-2.5,2.5"/>
	</g>
	<polygon fill="#F4CB1E" points="2.4,46 5,46 5,42 3.6,42 	"/>
	<g>
		<g>
			<path fill="#F4CB1E" d="M32.3,34.5c0,0.2-0.2,0.5-0.4,0.5h-2c-0.2,0-0.4-0.3-0.4-0.5l0,0c0-0.2,0.2-0.5,0.4-0.5h2
				C32.2,34,32.3,34.3,32.3,34.5L32.3,34.5z"/>
			<path fill="#F4CB1E" d="M32.3,36.5c0,0.2-0.2,0.5-0.4,0.5h-2c-0.2,0-0.4-0.3-0.4-0.5l0,0c0-0.2,0.2-0.5,0.4-0.5h2
				C32.2,36,32.3,36.3,32.3,36.5L32.3,36.5z"/>
			<path fill="#F4CB1E" d="M32.3,38.5c0,0.2-0.2,0.5-0.4,0.5h-2c-0.2,0-0.4-0.3-0.4-0.5l0,0c0-0.2,0.2-0.5,0.4-0.5h2
				C32.2,38,32.3,38.3,32.3,38.5L32.3,38.5z"/>
		</g>
		<g>
			<path fill="#F4CB1E" d="M41.5,34.5c0,0.2-0.2,0.5-0.4,0.5h-2c-0.2,0-0.4-0.3-0.4-0.5l0,0c0-0.2,0.2-0.5,0.4-0.5h2
				C41.4,34,41.5,34.3,41.5,34.5L41.5,34.5z"/>
			<path fill="#F4CB1E" d="M41.5,36.5c0,0.2-0.2,0.5-0.4,0.5h-2c-0.2,0-0.4-0.3-0.4-0.5l0,0c0-0.2,0.2-0.5,0.4-0.5h2
				C41.4,36,41.5,36.3,41.5,36.5L41.5,36.5z"/>
			<path fill="#F4CB1E" d="M41.5,38.5c0,0.2-0.2,0.5-0.4,0.5h-2c-0.2,0-0.4-0.3-0.4-0.5l0,0c0-0.2,0.2-0.5,0.4-0.5h2
				C41.4,38,41.5,38.3,41.5,38.5L41.5,38.5z"/>
		</g>
	</g>
	<g>
		<g>
			<g>
				<g>
					<path fill="#D81665" d="M15.2,15.1c1,0.3,1.8,1.1,1.9,2c0,0.1,0.1,0.2,0.2,0.2c0.1,0.1,0.2,0,0.3,0c0.5-0.8,1.6-1.1,2.6-0.8
						c1.3,0.3,2.1,1.5,1.8,2.7c-0.1,0.4-0.3,0.8-0.7,1.1l0,0c0,0,0,0,0,0l-5.8,4l-3-6.4c0,0,0,0,0,0l0,0c-0.2-0.4-0.2-0.8-0.1-1.3
						C12.6,15.4,13.9,14.7,15.2,15.1z"/>
				</g>
			</g>
			<g>
				<path fill="#B20B5F" d="M17.3,17.3c0.1,0.1,0.2,0,0.3,0c0.5-0.8,1.6-1.1,2.6-0.8c1.3,0.3,2.1,1.5,1.8,2.7
					c-0.1,0.4-0.3,0.8-0.7,1.1l0,0c0,0,0,0,0,0l-5.8,4"/>
			</g>
		</g>
	</g>
	<g>
		<g>
			<g>
				<g>
					<path fill="#D81665" d="M6.9,22.5c0.5-0.2,1.1,0,1.4,0.3c0,0,0.1,0,0.1,0c0.1,0,0.1,0,0.1-0.1c0-0.5,0.4-1,0.9-1.2
						c0.7-0.2,1.4,0.1,1.6,0.7c0.1,0.2,0.1,0.4,0,0.7l0,0c0,0,0,0,0,0l-1.4,3.5l-3.2-1.9l0,0l0,0c-0.2-0.1-0.3-0.3-0.4-0.5
						C5.8,23.5,6.2,22.8,6.9,22.5z"/>
				</g>
			</g>
			<g>
				<path fill="#B20B5F" d="M8.5,22.9C8.5,22.9,8.6,22.9,8.5,22.9c0.1-0.6,0.5-1.1,1-1.2c0.7-0.2,1.4,0.1,1.6,0.7
					c0.1,0.2,0.1,0.4,0,0.7l0,0c0,0,0,0,0,0l-1.4,3.5"/>
			</g>
		</g>
	</g>
	<g>
		<g>
			<g>
				<g>
					<path fill="#D81665" d="M12.8,26.2c0.3,0,0.6,0.1,0.8,0.4c0,0,0,0,0.1,0c0,0,0.1,0,0.1,0c0.1-0.3,0.3-0.5,0.7-0.5
						c0.4,0,0.7,0.2,0.8,0.6c0,0.1-0.1,0.3-0.1,0.4v0c0,0,0,0,0,0l-1.2,1.8l-1.7-1.5c0,0,0,0,0,0l0,0C12,27.2,12,27.1,12,26.9
						C11.9,26.6,12.4,26.2,12.8,26.2z"/>
				</g>
			</g>
			<g>
				<path fill="#B20B5F" d="M13.6,26.6C13.7,26.6,13.7,26.6,13.6,26.6c0.1-0.3,0.4-0.5,0.8-0.6c0.4,0,0.7,0.2,0.8,0.6
					c0,0.1,0,0.3-0.1,0.4l0,0l0,0l-1.2,1.8"/>
			</g>
		</g>
	</g>
	<g>
		<g>
			<g>
				<g>
					<path fill="#D81665" d="M12,30.5c0.2,0.2,0.3,0.6,0.2,0.8c0,0,0,0.1,0,0.1c0,0,0.1,0,0.1,0c0.3-0.1,0.6-0.1,0.8,0.2
						c0.3,0.3,0.4,0.7,0.1,1c-0.1,0.1-0.2,0.3-0.3,0.3l0,0c0,0,0,0,0,0l-2.2,0.3l0.1-2.3c0,0,0,0,0,0l0,0c0-0.1,0.1-0.3,0.2-0.4
						C11.2,30.2,11.6,30.2,12,30.5z"/>
				</g>
			</g>
			<g>
				<path fill="#B20B5F" d="M12.2,31.4C12.2,31.4,12.2,31.4,12.2,31.4c0.3-0.1,0.7,0,0.9,0.2c0.3,0.3,0.4,0.8,0.2,1.1
					c-0.1,0.1-0.3,0.2-0.4,0.2l0,0c0,0,0,0,0,0l-2.2,0.3"/>
			</g>
		</g>
	</g>
	<path fill="#D81665" d="M63,45.5c0,0.3-0.2,0.6-0.5,0.6l0,0c-0.3,0-0.5-0.3-0.5-0.6V42c0-0.3,0.2-0.6,0.5-0.6l0,0
		c0.3,0,0.5,0.3,0.5,0.6V45.5z"/>
	<path fill="#F3FBFF" d="M28,41.5c0,0.3-0.2,0.5-0.5,0.5h-1.7c-0.3,0-0.5-0.2-0.5-0.5l0,0c0-0.3,0.2-0.5,0.5-0.5h1.7
		C27.8,41,28,41.2,28,41.5L28,41.5z"/>
	<path fill="#F3FBFF" d="M39,41.5c0,0.3-0.2,0.5-0.5,0.5h-2.1c-0.3,0-0.5-0.2-0.5-0.5v-0.1c0-0.3,0.2-0.5,0.5-0.5h2.1
		C38.8,41,39,41.2,39,41.5L39,41.5z"/>
	<path fill="#F3FBFF" d="M48.6,41.5c0,0.3-0.2,0.5-0.5,0.5h-1.7c-0.3,0-0.5-0.2-0.5-0.5l0,0c0-0.3,0.2-0.5,0.5-0.5h1.7
		C48.4,41,48.6,41.2,48.6,41.5L48.6,41.5z"/>
	<g>
		<g>
			<polygon fill="#D65483" points="20.6,27.8 19.5,27.3 18.7,29.3 20.7,30.1 21.1,28.9 			"/>
			
				<rect x="18" y="28.1" transform="matrix(0.3618 -0.9322 0.9322 0.3618 -14.9939 36.3724)" fill="#D65483" width="2.1" height="2.1"/>
			<polygon fill="#D65483" points="17.4,28.2 17,29.4 17.5,30.5 18.7,31 19.4,29 			"/>
		</g>
		<g>
			<path fill="#EA7D9F" d="M20.4,28.2l-0.7-0.3l-0.3,0.7l-0.7-0.3l-0.3,0.7l-0.7-0.3l-0.3,0.7L17,29.3l0.5,1.1c0.4,1,1.5,1.4,2.5,1
				l0.1-0.1c1-0.4,1.4-1.5,1-2.5l-0.5-1.1L20.4,28.2z"/>
		</g>
		<g>
			
				<rect x="19.4" y="28.1" transform="matrix(-0.3606 0.9327 -0.9327 -0.3606 53.1112 20.0093)" fill="#F4AEC7" width="0.6" height="0.2"/>
			
				<rect x="18.4" y="28.5" transform="matrix(-0.3636 0.9315 -0.9315 -0.3636 52.1917 21.6345)" fill="#F4AEC7" width="0.6" height="0.2"/>
			<polygon fill="#F4AEC7" points="20.7,28.1 20.7,28 20.6,27.7 20.5,28 			"/>
			<path fill="#F4AEC7" d="M17.7,30.3l-0.4-0.9L17,29.3l0.5,1.1c0.4,1,1.5,1.4,2.5,1l0.1-0.1c0,0,0,0,0.1,0
				C19.2,31.7,18.1,31.3,17.7,30.3z"/>
			
				<rect x="17.4" y="29" transform="matrix(-0.3636 0.9315 -0.9315 -0.3636 51.2467 23.1531)" fill="#F4AEC7" width="0.6" height="0.2"/>
		</g>
	</g>
	<path fill="#FFFEF5" d="M21.3,31.7c0,0.5-0.4,1-1,1l0,0c-0.5,0-1-0.4-1-1l0,0c0-0.5,0.4-1,1-1l0,0C20.9,30.7,21.3,31.2,21.3,31.7
		L21.3,31.7z"/>
	<path fill="#FFFEF5" d="M21.3,31c0,0,14.5-2.5,9.7-4.7s-0.9-4.4,11.9-7.5c9.1-2.2,13.7-5.2,15.2-7.3c0,0-1.1,3.8-2.2,4.5
		c0,0,3-0.1,3.3-0.3c0.3-0.2-0.4,0.2-0.4,0.2s-5.7,3.2-16.9,5.5c-11.2,2.3-11.7,3.2-8.4,4.6c3.2,1.5,1.8,3.5-5.1,4.4
		S21.3,31,21.3,31z"/>
	<polygon fill="#0A486B" points="17.8,39.1 19.8,34 24.9,34 	"/>
	<path fill="#EA7D9F" d="M32.5,30.9c0,0,6.3,0.2,4.3-2.3c-2-2.4,2.5-7.4,6.8-2.7c4.3,4.7,9.4,4.9,10.8,0.8c0,0,0,2.4-0.9,3.7
		l2.8,0.1c0,0-6.4,3.4-10.2,1c-3.8-2.5-7.2-7.2-8.5-4.9s1.5,2.9,0,3.9C36.2,31.3,32.5,30.9,32.5,30.9z"/>
	<path fill="#FFFEF5" d="M28.2,20.9c0,0.3-0.3,0.6-0.6,0.6l0,0c-0.3,0-0.6-0.3-0.6-0.6l0,0c0-0.3,0.3-0.6,0.6-0.6l0,0
		C27.9,20.3,28.2,20.6,28.2,20.9L28.2,20.9z"/>
	<path fill="#FFFEF5" d="M30.9,20.5c0,0.2-0.2,0.4-0.3,0.4l0,0c-0.2,0-0.3-0.2-0.3-0.4l0,0c0-0.2,0.2-0.3,0.3-0.3l0,0
		C30.7,20.1,30.9,20.3,30.9,20.5L30.9,20.5z"/>
	<path fill="#FFFEF5" d="M27.8,23.1c0,0.2-0.1,0.3-0.3,0.3l0,0c-0.2,0-0.3-0.1-0.3-0.3l0,0c0-0.2,0.1-0.3,0.3-0.3l0,0
		C27.7,22.8,27.8,22.9,27.8,23.1L27.8,23.1z"/>
	<path fill="#FFFEF5" d="M25.2,25c0,0.6-0.5,1.1-1.1,1.1l0,0c-0.6,0-1.1-0.5-1.1-1.1l0,0c0-0.6,0.5-1.1,1.1-1.1l0,0
		C24.7,23.9,25.2,24.4,25.2,25L25.2,25z"/>
	<path fill="#FFFEF5" d="M27.6,27.4c0,0.2-0.2,0.4-0.4,0.4l0,0c-0.2,0-0.4-0.2-0.4-0.4l0,0c0-0.2,0.2-0.4,0.4-0.4l0,0
		C27.4,27,27.6,27.2,27.6,27.4L27.6,27.4z"/>
	<path fill="#EA7D9F" d="M48.2,24.1c0,0.7-0.6,1.3-1.3,1.3l0,0c-0.7,0-1.3-0.6-1.3-1.3l0,0c0-0.7,0.6-1.3,1.3-1.3l0,0
		C47.6,22.9,48.2,23.4,48.2,24.1L48.2,24.1z"/>
	<circle fill="#EA7D9F" cx="40.2" cy="28.5" r="0.3"/>
	<circle fill="#EA7D9F" cx="42.1" cy="30" r="0.4"/>
	<circle fill="#EA7D9F" cx="42.8" cy="22.8" r="0.2"/>
	<circle fill="#EA7D9F" cx="49.8" cy="27.7" r="0.7"/>
</g>
</svg>
