<?xml version="1.0" encoding="utf-8"?>
<!-- Generator: Adobe Illustrator 16.0.0, SVG Export Plug-In . SVG Version: 6.00 Build 0)  -->
<!DOCTYPE svg PUBLIC "-//W3C//DTD SVG 1.1//EN" "http://www.w3.org/Graphics/SVG/1.1/DTD/svg11.dtd">
<svg version="1.1" id="Layer_1" xmlns="http://www.w3.org/2000/svg" xmlns:xlink="http://www.w3.org/1999/xlink" x="0px" y="0px"
	 width="64px" height="64px" viewBox="0 0 64 64" enable-background="new 0 0 64 64" xml:space="preserve">
<g>
	<g>
		<polygon fill="#035F75" points="63,26.1 32.3,45.7 1,25 31.7,1.7 		"/>
		<polyline fill="#024651" points="31.7,1.7 63,26.1 32.3,45.7 		"/>
	</g>
	<g>
		<path fill="#D86699" d="M32,26.2c-2-2.7-4.8-4.5-8.4-4.5c-5.2,0-9.4,3.7-9.4,8.3c0,1.7,0.5,3.3,1.6,4.6c0,0,0,0,0,0
			c0,0,0,0,0.1,0.1L32,61.6V26.2z"/>
		<path fill="#C14985" d="M32,26.2c2-2.7,4.8-4.5,8.4-4.5c5.2,0,9.4,3.7,9.4,8.3c0,1.7-0.5,3.3-1.6,4.6c0,0,0,0,0,0c0,0,0,0-0.1,0.1
			L32,61.6V26.2z"/>
	</g>
	<g>
		<polygon fill="#13D1BA" points="32.5,45.4 1,25 1,25 1,62 63,62 63,26.1 		"/>
		<polyline fill="#09B5B0" points="1,62 63,62 63,26.1 31.9,45.5 		"/>
		<polyline fill="#13D1BA" points="63,62 63,26.1 32.2,45.3 		"/>
		<path fill="#13D1BA" d="M1.2,25.5"/>
	</g>
	<circle fill="#13D1BA" cx="32" cy="11.6" r="1.3"/>
	<g>
		<path fill="#035F75" d="M32,51.3c-1-0.9-1.5-1.4-2.7-1.4c-1.7,0-3,1.2-3,2.7c0,0.5,0.2,1,0.5,1.5c0,0,0,0,0,0c0,0,0,0,0,0l5.2,5.1
			V51.3z"/>
		<path fill="#024651" d="M32,51.3c1-0.9,1.5-1.4,2.7-1.4c1.7,0,3,1.2,3,2.7c0,0.5-0.2,1-0.5,1.5c0,0,0,0,0,0c0,0,0,0,0,0L32,59.1
			V51.3z"/>
	</g>
</g>
</svg>
