<?xml version="1.0" encoding="utf-8"?>
<!-- Generator: Adobe Illustrator 16.0.0, SVG Export Plug-In . SVG Version: 6.00 Build 0)  -->
<!DOCTYPE svg PUBLIC "-//W3C//DTD SVG 1.1//EN" "http://www.w3.org/Graphics/SVG/1.1/DTD/svg11.dtd">
<svg version="1.1" id="Layer_1" xmlns="http://www.w3.org/2000/svg" xmlns:xlink="http://www.w3.org/1999/xlink" x="0px" y="0px"
	 width="64px" height="64px" viewBox="0 0 64 64" enable-background="new 0 0 64 64" xml:space="preserve">
<g>
	<circle fill="#EA83B7" cx="32.2" cy="25.8" r="25"/>
	<path fill="#D86699" d="M32.2,0.8c13.8,0,25,11.2,25,25c0,13.8-11.2,25-25,25c-13.8,0-25-11.2-25-25"/>
	<path fill="#BC4888" d="M32.2,0.8c13.8,0,25,11.2,25,25c0,13.8-11.2,25-25,25"/>
	<path fill="#EA83B7" d="M32.2,50.8c-13.8,0-25-11.2-25-25"/>
	<g>
		<g>
			<g>
				<path fill="#542D0E" d="M27,12.2c0,0.4-0.7,0.8-0.9,0.8h-0.9c-0.2,0-0.9-0.5-0.9-0.8l0.5-3.6c0-0.4,0.2-0.5,0.4-0.5H26
					c0.2,0,0.4,0.1,0.4,0.5L27,12.2z"/>
				<path fill="#542D0E" d="M26,37.9c0,0.5-0.2,0.9-0.5,0.9l0,0c-0.3,0-0.5-0.4-0.5-0.9V25.8c0-0.5,0.2-0.9,0.5-0.9l0,0
					c0.3,0,0.5,0.4,0.5,0.9V37.9z"/>
				<path fill="#542D0E" d="M20.9,38.9L20.9,38.9c0-0.4,0.4-0.9,0.8-0.9h8c0.4,0,0.8,0.4,0.8,0.9l0,0"/>
				<g>
					<path fill="#874B22" d="M28.6,21c-2.3-3.2-1.1-4-0.9-4.8c0.1-0.9,1.4-0.7,1.2-2.1c-0.2-1,0.3-1.1,0.6-1.1l0-0.6
						c0-1.3,0.5-2.4-0.8-2.4h-5.9c-1.3,0-0.8,1.1-0.8,2.4l0,0.6c0.2,0.1,0.4,0.4,0.3,1.1c-0.3,1.4,1.1,1.2,1.2,2.1
						c0.1,0.9,1.3,1.6-0.9,4.8c-0.3,0.5-0.7,1.2-0.9,1.9L21,24.8c0,1.3,1,2.2,2.3,2.2h4.9c1.3,0,2.3-0.9,2.3-2.2l-0.5-1
						C29.5,22.7,29.1,21.7,28.6,21z"/>
					<path fill="#542D0E" d="M22,12.5l0,0.6c0.2,0.1,0.4,0.4,0.3,1.1c-0.3,1.4,1.1,1.2,1.2,2.1c0.1,0.9,1.3,1.6-0.9,4.8
						c-0.3,0.5-0.7,1.2-0.9,1.9L21,24.8c0,1.3,1,2.2,2.3,2.2h4.9c1.3,0,2.3-0.9,2.3-2.2l-0.5-1c-0.4-1.2-0.8-2.2-1.3-2.9
						c-2.3-3.2-1.1-3.9-0.9-4.8c0.1-0.9,1.4-0.7,1.2-2.1c-0.2-1,0.3-1.1,0.6-1.1l0-0.5c0-1.3,0.5-2.3-0.8-2.3"/>
					<path fill="#FFFEF8" d="M30.5,25c-0.4-1.5-0.9-3-1.5-3.9c-2.3-3.2-1.1-4-0.9-4.9c0.1-0.9,1.4-0.7,1.2-2.1s0.8-1.1,0.8-1.1
						s0,0-0.1-0.1c-0.4-0.4-2.4-2.1-4.4-0.5c-2-1.6-4.1,0.1-4.4,0.5c0,0-0.1,0.1-0.1,0.1s1.1-0.3,0.8,1.1c-0.2,1.4,1.1,1.2,1.2,2.1
						c0.1,0.9,1.3,1.6-0.9,4.8c-0.6,0.9-1.1,2.4-1.5,4C19.4,29.2,19,35,19,35h6.5h0.2h6.5C32.1,35,31.7,29.2,30.5,25z"/>
					<path fill="#FFFEEE" d="M25.8,12.7c-2.1-1.8-4.3-0.1-4.7,0.3c0.1,0,0.1,0,0.2,0c1.7,0,3,2.7,3,6.1c0,3.3-1.4,6.1-3.1,6.1
						c-0.3,0-0.5,0.1-0.8,0c-1.1,4.2-1.6,10-1.6,10H26V12.7C26,12.7,25.8,12.7,25.8,12.7z"/>
					<path fill="#F2F0DA" d="M29.8,25c-1.7,0-3.1-2.7-3.1-6.1c0-3.3,1.4-6.1,3.1-6.1c0.1,0,0.2,0,0.3,0c-0.4-0.4-2.3-2-4.3-0.3
						c0,0,0.2,0,0.2,0V35h6.3c0,0-0.5-5.8-1.6-10C30.4,25.1,30.1,25,29.8,25z"/>
					<polyline fill="#FFFEEE" points="26,13 26,35 26,35 26,13 					"/>
					<path fill="#F9F8F2" d="M24.8,19c0-3.3-1.9-6.1-3.6-6.1c-0.1,0-0.2,0-0.3,0c0,0-0.1,0.1-0.1,0.1s1.1-0.3,0.8,1.1
						c-0.3,1.4,1.1,1.2,1.2,2.1c0.1,0.9,1.3,1.6-0.9,4.8c-0.6,0.9-1.1,2.4-1.5,4c0.3,0.1,0.5,0,0.8,0C22.9,25,24.8,22.3,24.8,19z"/>
					<path fill="#EAE7C7" d="M26.3,19c0,3.3,1.9,6.1,3.6,6.1c0.3,0,0.5,0.1,0.8,0c-0.4-1.5-0.9-3.1-1.5-4c-2.3-3.2-1.1-4-0.9-4.8
						c0.1-0.9,1.4-0.7,1.2-2.1s0.8-1.1,0.8-1.1s0,0-0.1-0.1c-0.1,0-0.2,0-0.3,0C28.1,12.9,26.3,15.6,26.3,19z"/>
				</g>
				<path fill="#F2F0DA" d="M30,25c-1.3,0.6-2.8,1-4.4,1c-1.6,0-3.1-0.3-4.4-1c-0.2,0-0.5,0.1-0.7,0c-1.1,4.2-1.6,10-1.6,10h6.7h0
					h6.7c0,0-0.5-5.8-1.6-10C30.4,25.1,30.2,25,30,25z"/>
				<path fill="#F2F0DA" d="M30,25c-1.3,0.6-2.8,1-4.4,1c-1.6,0-3.1-0.3-4.4-1c-0.2,0-0.5,0.1-0.7,0c-1.1,4.2-1.6,10-1.6,10h6.7h0
					h6.7c0,0-0.5-5.8-1.6-10C30.4,25.1,30.2,25,30,25z"/>
				<path fill="#EAE7C7" d="M25.6,30L25.6,30l-6.1,0c-0.4,3-0.6,5-0.6,5h6.7h0h6.7c0,0-0.2-2-0.6-5L25.6,30z"/>
				<path fill="#FFFEEE" d="M32.7,34.5c0,0.2-0.2,0.5-0.4,0.5H18.8c-0.2,0-0.4-0.3-0.4-0.5l0,0c0-0.2,0.2-0.5,0.4-0.5h13.5
					C32.5,34,32.7,34.3,32.7,34.5L32.7,34.5z"/>
				<g>
					<circle fill="#FFFEEE" cx="20.8" cy="26.9" r="0.3"/>
					<circle fill="#FFFEEE" cx="22" cy="26.9" r="0.3"/>
					<circle fill="#FFFEEE" cx="23.2" cy="26.9" r="0.3"/>
					<circle fill="#FFFEEE" cx="24.4" cy="26.9" r="0.3"/>
					<circle fill="#FFFEEE" cx="25.5" cy="26.9" r="0.3"/>
					<circle fill="#FFFEEE" cx="26.7" cy="26.9" r="0.3"/>
					<circle fill="#FFFEEE" cx="27.9" cy="26.9" r="0.3"/>
					<circle fill="#FFFEEE" cx="29.1" cy="26.9" r="0.3"/>
					<circle fill="#FFFEEE" cx="30.3" cy="26.9" r="0.3"/>
				</g>
				<g>
					<circle fill="#FFFEEE" cx="20.8" cy="27.9" r="0.3"/>
					<circle fill="#FFFEEE" cx="22" cy="27.9" r="0.3"/>
					<circle fill="#FFFEEE" cx="23.2" cy="27.9" r="0.3"/>
					<circle fill="#FFFEEE" cx="24.4" cy="27.9" r="0.3"/>
					<circle fill="#FFFEEE" cx="25.5" cy="27.9" r="0.3"/>
					<circle fill="#FFFEEE" cx="26.7" cy="27.9" r="0.3"/>
					<circle fill="#FFFEEE" cx="27.9" cy="27.9" r="0.3"/>
					<circle fill="#FFFEEE" cx="29.1" cy="27.9" r="0.3"/>
					<circle fill="#FFFEEE" cx="30.3" cy="27.9" r="0.3"/>
				</g>
				<g>
					<circle fill="#FFFEEE" cx="20.8" cy="29" r="0.3"/>
					<circle fill="#FFFEEE" cx="22" cy="29" r="0.3"/>
					<circle fill="#FFFEEE" cx="23.2" cy="29" r="0.3"/>
					<circle fill="#FFFEEE" cx="24.4" cy="29" r="0.3"/>
					<circle fill="#FFFEEE" cx="25.5" cy="29" r="0.3"/>
					<circle fill="#FFFEEE" cx="26.7" cy="29" r="0.3"/>
					<circle fill="#FFFEEE" cx="27.9" cy="29" r="0.3"/>
					<circle fill="#FFFEEE" cx="29.1" cy="29" r="0.3"/>
					<circle fill="#FFFEEE" cx="30.3" cy="29" r="0.3"/>
				</g>
			</g>
			<rect x="24" y="10" fill="#FFFEEE" width="3" height="0"/>
		</g>
		<g>
			<path fill="#542D0E" d="M42.6,39c0,0.4-0.3,1-0.7,1h-7.8c-0.4,0-0.7-0.6-0.7-1l0,0c0-0.4,0.3-1,0.7-1h7.8
				C42.3,38,42.6,38.6,42.6,39L42.6,39z"/>
			<g>
				<path fill="#542D0E" d="M39.4,11.1c0,0.4-0.7,0.9-1,0.9h-1c-0.3,0-1-0.5-1-0.9L37,6.9C37,6.6,37.2,6,37.5,6h1
					c0.3,0,0.5,0.6,0.5,0.9L39.4,11.1z"/>
				<g>
					<polygon fill="#542D0E" points="33.1,23 34.1,17 33.1,11 42.9,11 41.9,17 42.9,23 					"/>
					<g>
						<g>
							<polygon fill="#874B22" points="36.3,8.1 32.2,9.7 31.3,13 37.8,13 							"/>
							<polygon fill="#542D0E" points="36.3,8.1 32.9,10.1 31.3,13 37.8,13 							"/>
							<polygon fill="#D6D6D6" points="36.4,7.6 35.4,8 36.1,9.9 38,12.6 38,8.7 							"/>
							<polygon fill="#FFFFFF" points="36.4,7.6 37.9,8.7 36,9.7 							"/>
						</g>
						<g>
							<polygon fill="#874B22" points="39.6,8.1 43.8,9.7 44.6,13 38.1,13 							"/>
							<polygon fill="#542D0E" points="39.6,8.1 43,10.1 44.6,13 38.1,13 							"/>
							<polygon fill="#D6D6D6" points="39.6,7.6 40.6,8 39.8,9.9 38,12.6 38,8.7 							"/>
							<polygon fill="#FFFFFF" points="39.6,7.6 38,8.7 39.9,9.7 							"/>
						</g>
					</g>
					<polygon fill="#D6D6D6" points="39.3,10 38,12.9 36.6,10 38,8.6 					"/>
					<g>
						<g>
							<g>
								<polygon fill="#EF4391" points="38,9.5 38,8.8 36,8.1 36,10.1 								"/>
								<polygon fill="#D81665" points="37.8,9.5 37.8,8.8 36.3,8.9 36,10.1 								"/>
								<polygon fill="#BC085A" points="37.8,9.5 37.8,8.8 36.6,9.5 36,10.1 								"/>
							</g>
							<g>
								<polygon fill="#EF4391" points="38,9.5 38,8.8 40,8.1 40,10.1 								"/>
								<polygon fill="#D81665" points="38.1,9.5 38.1,8.8 39.7,8.9 40,10.1 								"/>
								<polygon fill="#BC085A" points="38.1,9.5 38.1,8.8 39.3,9.5 40,10.1 								"/>
							</g>
						</g>
						<path fill="#D81665" d="M38.2,9.4c0,0.1-0.1,0.2-0.2,0.2l0,0c-0.1,0-0.2-0.1-0.2-0.2V8.9c0-0.1,0.1-0.2,0.2-0.2l0,0
							c0.1,0,0.2,0.1,0.2,0.2V9.4z"/>
						<path fill="#BC085A" d="M38.2,8.9v0.5c0,0.1-0.1,0.2-0.2,0.2l0,0c-0.1,0-0.2-0.1-0.2-0.2V8.9"/>
					</g>
					<circle fill="#542D0E" cx="38" cy="10.8" r="0.3"/>
					<circle fill="#D6D6D6" cx="38" cy="13.9" r="0.3"/>
					<circle fill="#D6D6D6" cx="38" cy="17" r="0.3"/>
					<circle fill="#D6D6D6" cx="38" cy="20.1" r="0.3"/>
					<g>
						<polygon fill="#542D0E" points="37,38 35,38 33.9,22 37,22 						"/>
						<polygon fill="#542D0E" points="39,38 41,38 42.1,22 39,22 						"/>
					</g>
					<rect x="36" y="22" fill="#542D0E" width="4" height="4"/>
				</g>
				<g>
					<polygon fill="#542D0E" points="31.9,18.5 34.1,12 31.5,12.4 30,17.5 					"/>
					<polygon fill="#542D0E" points="45.9,17.5 44.5,12.5 41.8,12 44.1,18.5 					"/>
				</g>
			</g>
		</g>
	</g>
	<path fill="#F4CF31" d="M54,52c0,3.3-2.9,4-6.2,4H16.5c-3.3,0-5.5-0.7-5.5-4v-8.3c0-3.3,0.3-4.8,3.6-4.8h35.2
		c3.3,0,4.2,1.5,4.2,4.8V52z"/>
	<path fill="#E0B814" d="M54,44v8c0,3.3-2.9,4-6.2,4H16.5c-3.3,0-5.5-0.7-5.5-4v-8"/>
	<path fill="#E0B814" d="M54,44v8c0,3.3-2.9,4-6.2,4H16.5c-3.3,0-5.5-0.7-5.5-4v-8"/>
	<path fill="#F4CF31" d="M1,63h62v-8.2c0-4.7,1.5-6.8-3.3-6.8H4.3C-0.5,48,1,50,1,54.8V63z"/>
	<polyline fill="#E0B814" points="1,55 1,63 63,63 63,55 	"/>
	<polyline fill="#F4ECCB" points="1,55 1,56 63,56 63,55 	"/>
	<polyline fill="#F4ECCB" points="11,45 11,46 54,46 54,45 	"/>
	<polyline fill="#F4ECCB" points="1,58 1,59 63,59 63,58 	"/>
	<g>
		<circle fill="#AA6F48" cx="4.4" cy="51.6" r="0.9"/>
		<circle fill="#AA6F48" cx="8.7" cy="51.6" r="0.9"/>
		<circle fill="#AA6F48" cx="12.9" cy="51.6" r="0.9"/>
		<circle fill="#AA6F48" cx="17.2" cy="51.6" r="0.9"/>
		<circle fill="#AA6F48" cx="21.4" cy="51.6" r="0.9"/>
		<circle fill="#AA6F48" cx="25.6" cy="51.6" r="0.9"/>
		<circle fill="#AA6F48" cx="29.9" cy="51.6" r="0.9"/>
		<circle fill="#AA6F48" cx="34.1" cy="51.6" r="0.9"/>
		<circle fill="#AA6F48" cx="38.4" cy="51.6" r="0.9"/>
		<circle fill="#AA6F48" cx="42.6" cy="51.6" r="0.9"/>
		<circle fill="#AA6F48" cx="46.8" cy="51.6" r="0.9"/>
		<circle fill="#AA6F48" cx="51.1" cy="51.6" r="0.9"/>
		<circle fill="#AA6F48" cx="55.3" cy="51.6" r="0.9"/>
		<circle fill="#AA6F48" cx="59.6" cy="51.6" r="0.9"/>
	</g>
	<g>
		<circle fill="#AA6F48" cx="15.2" cy="42.6" r="0.9"/>
		<circle fill="#AA6F48" cx="19.4" cy="42.6" r="0.9"/>
		<circle fill="#AA6F48" cx="23.7" cy="42.6" r="0.9"/>
		<circle fill="#AA6F48" cx="27.9" cy="42.6" r="0.9"/>
		<circle fill="#AA6F48" cx="32.2" cy="42.6" r="0.9"/>
		<circle fill="#AA6F48" cx="36.4" cy="42.6" r="0.9"/>
		<circle fill="#AA6F48" cx="40.7" cy="42.6" r="0.9"/>
		<circle fill="#AA6F48" cx="44.9" cy="42.6" r="0.9"/>
		<circle fill="#AA6F48" cx="49.1" cy="42.6" r="0.9"/>
	</g>
	<path fill="#F9E84E" d="M61,48.5c0,0.3-0.2,0.5-0.5,0.5h-57C3.2,49,3,48.8,3,48.5l0,0C3,48.2,3.2,48,3.5,48h57
		C60.8,48,61,48.2,61,48.5L61,48.5z"/>
	<path fill="#F9E84E" d="M51,39.5c0,0.3-0.2,0.5-0.5,0.5h-36c-0.3,0-0.5-0.2-0.5-0.5l0,0c0-0.3,0.2-0.5,0.5-0.5h36
		C50.8,39,51,39.2,51,39.5L51,39.5z"/>
	<path fill="#542D0E" d="M33.8,38.5c0,0-1.1,0.6-0.3,1.5s0.5-0.5,0.7,0.8s0.7,2.8,1.4,1.2c0.7-1.6,1.2-2.4,3-1.6
		c1.8,0.8,1.7,0.7,2.4-0.1c0.7-0.7,3.1-0.7,3.8,1.2c0.7,1.9,1.8,0.8,1.8-0.1c0,0,1,0.1,1.2,1.9c0.2,1.7,1.5,0.6,1.7-0.1
		c0.1-0.7,2.5-0.2,2.7,1.4c0.2,1.6,0.5,1.5,0.7,1.3c0.2-0.2,0.2-0.2,0.2-0.2v1.1c0,0,0.9,1.2,1.1-0.1c0.2-1.3,0.3-7.6-1.1-7.6
		l-10.3,0L33.8,38.5z"/>
	<g>
		
			<rect x="5.6" y="60" transform="matrix(0.7071 -0.7071 0.7071 0.7071 -41.1724 22.3823)" fill="#542D0E" width="1.7" height="1.7"/>
		
			<rect x="12.9" y="60" transform="matrix(0.7071 -0.7071 0.7071 0.7071 -39.0326 27.5482)" fill="#542D0E" width="1.7" height="1.7"/>
		
			<rect x="20.2" y="60" transform="matrix(0.7071 -0.7071 0.7071 0.7071 -36.8931 32.7134)" fill="#542D0E" width="1.7" height="1.7"/>
		
			<rect x="27.5" y="60" transform="matrix(0.7071 -0.7071 0.7071 0.7071 -34.7533 37.8793)" fill="#542D0E" width="1.7" height="1.7"/>
		
			<rect x="34.8" y="60" transform="matrix(0.7071 -0.7071 0.7071 0.7071 -32.6138 43.0445)" fill="#542D0E" width="1.7" height="1.7"/>
		
			<rect x="42.1" y="60" transform="matrix(0.7071 -0.7071 0.7071 0.7071 -30.4741 48.2104)" fill="#542D0E" width="1.7" height="1.7"/>
		
			<rect x="49.4" y="60" transform="matrix(0.7071 -0.7071 0.7071 0.7071 -28.3346 53.3755)" fill="#542D0E" width="1.7" height="1.7"/>
		
			<rect x="56.7" y="60" transform="matrix(0.7071 -0.7071 0.7071 0.7071 -26.1948 58.5414)" fill="#542D0E" width="1.7" height="1.7"/>
	</g>
</g>
</svg>
