<?xml version="1.0" encoding="utf-8"?>
<!-- Generator: Adobe Illustrator 16.0.0, SVG Export Plug-In . SVG Version: 6.00 Build 0)  -->
<!DOCTYPE svg PUBLIC "-//W3C//DTD SVG 1.1//EN" "http://www.w3.org/Graphics/SVG/1.1/DTD/svg11.dtd">
<svg version="1.1" id="Layer_1" xmlns="http://www.w3.org/2000/svg" xmlns:xlink="http://www.w3.org/1999/xlink" x="0px" y="0px"
	 width="64px" height="64px" viewBox="0 0 64 64" enable-background="new 0 0 64 64" xml:space="preserve">
<g>
	<g>
		<circle fill="#F15249" cx="32" cy="32" r="30.5"/>
		<path fill="#C93131" d="M53.6,10.4c11.9,11.9,11.9,31.2,0,43.1c-11.9,11.9-31.2,11.9-43.1,0"/>
	</g>
	<g>
		<polygon fill="#E89510" points="46.5,52.9 32,62.9 17.6,52.9 16,35.2 32,25.9 48,35.2 		"/>
		<polygon fill="#F2ADC5" points="27.1,54 36.9,54 38.5,63 25.6,63 		"/>
		<polyline fill="#E28FAF" points="27,54 36.9,54 38.5,63 		"/>
		<polygon fill="#FFC114" points="51,46.6 32,59.8 13.1,46.6 11,23.4 32,11.3 53,23.4 		"/>
		<polyline fill="#EAAC0F" points="53,23.4 51,46.6 32,59.8 13.1,46.6 		"/>
		<polygon fill="#5E6664" points="53.8,37.4 32,52.4 10.3,37.4 8,10.7 32,1.5 56.1,10.7 		"/>
		<polyline fill="#2F423F" points="32,1.5 56.1,10.7 53.8,37.4 32,52.4 10.3,37.4 		"/>
		<path fill="#7F5E13" d="M32,0.8"/>
		<path fill="#6B4A09" d="M32,0.8"/>
		<polygon fill="#FFCFDE" points="15,21.2 32,27.3 49.1,21.2 44.4,43.5 32,53.2 19.6,43.5 		"/>
		<polyline fill="#F2ADC5" points="32,27.3 49.1,21.2 44.4,43.5 32,53.2 		"/>
		<polygon fill="#FFCFDE" points="23,41.3 32,37.6 41,41.3 38.5,49.6 32,60.3 25.5,49.6 		"/>
		<polygon fill="#E28FAF" points="37.3,29.9 35.5,35.6 37.2,36 45.4,33.4 46.7,32.8 49.1,21.2 41.6,27.3 		"/>
		<polygon fill="#F2ADC5" points="26.6,29.9 28.5,35.6 26.7,36 18.6,33.4 17.3,32.8 15,21.2 22.3,27.3 		"/>
		<polyline fill="#F2ADC5" points="32,37.6 41,41.3 38.5,49.6 32,60.3 		"/>
		<g>
			<g>
				<polygon fill="#0AA06E" points="27,32.7 22,31.1 22,28.3 27,29.9 				"/>
				<polyline fill="#2F423F" points="27,29.9 27,32.7 22,31.1 				"/>
			</g>
			<g>
				<g>
					<polygon fill="#0AA06E" points="37,32.7 42,31.1 42,28.3 37,29.9 					"/>
				</g>
				<g>
					<polyline fill="#2F423F" points="37,32.7 42,31.1 42,28.3 					"/>
				</g>
			</g>
		</g>
		<g>
			<g>
				<polygon fill="#0CA6BF" points="29,35.6 17.1,31 18.2,42.3 29,54 				"/>
				<polyline fill="#52C1DB" points="18.3,42.5 29,54 29,36 				"/>
				<polygon fill="#78DEEF" points="25.5,37.5 17.4,34.3 18,42.3 25.5,50.2 				"/>
				<polygon fill="#52C1DB" points="24,38.7 17.6,36.3 18.2,42.4 24,48.6 				"/>
				<polygon fill="#78DEEF" points="21.4,39.9 17.8,38.4 18,42.3 21.4,45.9 				"/>
				<polygon fill="#52C1DB" points="20.1,41 17.8,40.2 18,42.3 20.1,44.5 				"/>
			</g>
			<g>
				<polygon fill="#0CA6BF" points="35,35.6 46.9,31 45.8,42.3 35,54 				"/>
				<polyline fill="#52C1DB" points="45.7,42.5 35,54 35,36 				"/>
				<polygon fill="#78DEEF" points="38.5,37.6 46.6,34.3 46,42.4 38.5,50.3 				"/>
				<polygon fill="#52C1DB" points="39.9,38.7 46.4,36.3 45.8,42.4 39.9,48.6 				"/>
				<polygon fill="#78DEEF" points="42.5,40 46.2,38.5 46,42.2 42.4,46.1 				"/>
				<polygon fill="#52C1DB" points="43.9,40.9 46.1,39.8 46,42.4 43.9,44.5 				"/>
			</g>
		</g>
		<polygon fill="#FFCFDE" points="35.6,60 28.4,60 27.3,55 36.8,55 		"/>
		<g>
			<polyline fill="#5E6664" points="27.7,56.5 31,57.5 31,60 			"/>
			<polyline fill="#5E6664" points="36.3,56.5 33,57.5 33,60 			"/>
		</g>
		<g>
			<g>
				<polygon fill="#FFCFDE" points="6.2,8.6 13.7,13.6 12.2,18.3 8.6,18.5 				"/>
				<polyline fill="#5E6664" points="6.2,8.6 16.5,7.6 12.5,18 				"/>
				<polyline fill="#F2ADC5" points="6.2,8.6 13.7,13.6 12.2,18.3 				"/>
			</g>
			<g>
				<polygon fill="#FFCFDE" points="57.8,8.6 50.3,13.6 51.8,18.3 55.4,18.5 				"/>
				<polyline fill="#5E6664" points="57.8,8.6 47.5,7.6 51.6,18 				"/>
				<polyline fill="#F2ADC5" points="57.8,8.6 50,13.8 51.8,18.3 				"/>
			</g>
		</g>
		<path fill="#F2ADC5" d="M12.6,18.3"/>
		<path fill="#F2ADC5" d="M16.9,7.3"/>
		<g>
			<polygon fill="#5E6664" points="10.3,30.3 5.6,26.7 10.3,23.2 13.9,26.7 			"/>
			<polygon fill="#5E6664" points="10.3,33.9 5.6,30.3 10.3,26.8 13.9,30.3 			"/>
			<polygon fill="#5E6664" points="10.3,37.4 5.6,33.9 10.3,30.3 13.9,33.9 			"/>
		</g>
		<g>
			<polygon fill="#5E6664" points="53.7,30.3 58.4,33.9 53.7,37.4 50.1,33.9 			"/>
			<polygon fill="#5E6664" points="53.7,26.8 58.4,30.3 53.7,33.9 50.1,30.3 			"/>
			<polygon fill="#5E6664" points="53.7,23.2 58.4,26.7 53.7,30.3 50.1,26.7 			"/>
		</g>
	</g>
</g>
</svg>
