<?xml version="1.0" encoding="utf-8"?>
<!-- Generator: Adobe Illustrator 16.0.0, SVG Export Plug-In . SVG Version: 6.00 Build 0)  -->
<!DOCTYPE svg PUBLIC "-//W3C//DTD SVG 1.1//EN" "http://www.w3.org/Graphics/SVG/1.1/DTD/svg11.dtd">
<svg version="1.1" id="Layer_1" xmlns="http://www.w3.org/2000/svg" xmlns:xlink="http://www.w3.org/1999/xlink" x="0px" y="0px"
	 width="64px" height="64px" viewBox="0 0 64 64" enable-background="new 0 0 64 64" xml:space="preserve">
<g>
	<g>
		<circle fill="#6965A8" cx="32" cy="32" r="29.5"/>
		<path fill="#505091" d="M32,2.5c16.3,0,29.5,13.2,29.5,29.5S48.3,61.5,32,61.5"/>
	</g>
	<g>
		<polygon fill="#E54E4E" points="19.6,53 44.4,53 50,48.2 50,38 14,38 14,48.1 		"/>
		<polyline fill="#C93131" points="20,53 44.4,53 50,48.2 50,38 		"/>
		<polygon fill="#EFEDDF" points="11,17.4 32,10.5 53,17.4 47.3,44.9 32,53.1 16.7,44.9 		"/>
		<polygon fill="#D8BC84" points="19,14.8 19,32 29,32 29,11.5 		"/>
		<polyline fill="#BFA06A" points="19,32 29,32 29,11.5 		"/>
		<polyline fill="#E2DFCF" points="32,10.5 53,17.4 47.3,44.9 32,53.1 		"/>
		<g>
			<polygon fill="#C6C6C6" points="18.7,31.3 32,28.9 45.3,31.3 42.9,49.6 32,53.5 21.1,49.6 			"/>
		</g>
		<g>
			<polyline fill="#A8A8A8" points="32,28.9 45.3,31.3 42.9,49.6 32,53.5 			"/>
		</g>
		
			<rect x="30.4" y="33.6" transform="matrix(0.707 -0.7072 0.7072 0.707 -17.4137 36.0623)" fill="#A8A8A8" width="8.8" height="10.8"/>
		<g>
			<g>
				<path fill="#5E6664" d="M26.3,26.4c0,1.3-1.2,2.4-2.6,2.4c-1.5,0-2.6-1.1-2.6-2.4c0-1.3,1.2-2.4,2.6-2.4
					C25.2,24,26.3,25.1,26.3,26.4z"/>
				<path fill="#2F423F" d="M25.6,24.7c1,0.9,1,2.4,0,3.3c-1,0.9-2.7,0.9-3.7,0"/>
			</g>
			<g>
				<path fill="#5E6664" d="M42.9,26.4c0,1.3-1.2,2.4-2.6,2.4c-1.5,0-2.6-1.1-2.6-2.4c0-1.3,1.2-2.4,2.6-2.4
					C41.7,24,42.9,25.1,42.9,26.4z"/>
				<path fill="#2F423F" d="M42.1,24.7c1,0.9,1,2.4,0,3.3c-1,0.9-2.7,0.9-3.7,0"/>
			</g>
		</g>
		<g>
			<polygon fill="#5E6664" points="36.2,38 27.8,38 25.7,32 38.3,32 			"/>
			<polyline fill="#2F423F" points="38.3,32 36.2,38 27.8,38 			"/>
		</g>
		<g>
			<g>
				<polygon fill="#D8BC84" points="11,17.4 0.5,44.7 9.2,49.8 16.3,41.5 				"/>
				<polyline fill="#BFA06A" points="9.2,49.8 16.3,41.5 11,17.4 				"/>
			</g>
			<g>
				<polygon fill="#D8BC84" points="53,17.4 63.5,44.7 54.8,49.8 47.7,41.5 				"/>
				<polyline fill="#BFA06A" points="54.8,49.8 47.7,41.5 53,17.4 				"/>
			</g>
		</g>
		<g>
			<g>
				<circle fill="#A8A8A8" cx="25.1" cy="40.1" r="0.7"/>
				<circle fill="#A8A8A8" cx="23.4" cy="43.3" r="0.7"/>
				<circle fill="#A8A8A8" cx="27" cy="43.3" r="0.7"/>
			</g>
			<g>
				<g>
					<circle fill="#C6C6C6" cx="38.7" cy="40.1" r="0.7"/>
				</g>
				<g>
					<circle fill="#C6C6C6" cx="37" cy="43.3" r="0.7"/>
				</g>
				<g>
					<circle fill="#C6C6C6" cx="40.6" cy="43.3" r="0.7"/>
				</g>
			</g>
		</g>
	</g>
</g>
</svg>
