<?xml version="1.0" encoding="utf-8"?>
<!-- Generator: Adobe Illustrator 16.0.0, SVG Export Plug-In . SVG Version: 6.00 Build 0)  -->
<!DOCTYPE svg PUBLIC "-//W3C//DTD SVG 1.1//EN" "http://www.w3.org/Graphics/SVG/1.1/DTD/svg11.dtd">
<svg version="1.1" id="Layer_1" xmlns="http://www.w3.org/2000/svg" xmlns:xlink="http://www.w3.org/1999/xlink" x="0px" y="0px"
	 width="64px" height="64px" viewBox="0 0 64 64" enable-background="new 0 0 64 64" xml:space="preserve">
<g>
	<g>
		<circle fill="#BC628B" cx="32" cy="32" r="31.1"/>
		<path fill="#AA507D" d="M54,10C66.1,22.2,66.1,41.8,54,54S22.2,66.1,10,54"/>
	</g>
	<g>
		<g>
			<polygon fill="#FFF69F" points="61.7,46.2 32,62.7 2.3,46.2 3.3,16.9 32,1.3 60.7,16.9 			"/>
			<polygon fill="#FFEE1A" points="61.7,46.2 32,62.7 2.3,46.2 3.3,16.9 32,22.9 60.7,16.9 			"/>
			<polyline fill="#EACE00" points="32,1.3 60.7,16.9 61.7,46.2 32,62.7 			"/>
			
				<rect x="24.5" y="35" transform="matrix(0.7071 -0.7071 0.7071 0.7071 -21.7267 34.4162)" fill="#EACE00" width="12.4" height="16.8"/>
			<g>
				<g>
					<path fill="#5E6664" d="M22.4,24.3c0,1.5-1.4,2.7-3.1,2.7c-1.7,0-3.1-1.2-3.1-2.7c0-1.5,1.4-2.7,3.1-2.7
						C21,21.5,22.4,22.8,22.4,24.3z"/>
					<path fill="#2F423F" d="M21.5,22.3c1.2,1.1,1.2,2.8,0,3.9c-1.2,1.1-3.1,1.1-4.3,0"/>
				</g>
				<g>
					<path fill="#5E6664" d="M47.8,24.3c0,1.5-1.4,2.7-3.1,2.7s-3.1-1.2-3.1-2.7c0-1.5,1.4-2.7,3.1-2.7S47.8,22.8,47.8,24.3z"/>
					<path fill="#2F423F" d="M46.9,22.3c1.2,1.1,1.2,2.8,0,3.9c-1.2,1.1-3.1,1.1-4.3,0"/>
				</g>
			</g>
			<g>
				<polygon fill="#E07F00" points="48.9,40.1 32,45.7 15.1,40.1 16.9,35.2 32,36.4 47.1,35.2 				"/>
				<polygon fill="#FF9700" points="11.1,34.4 32,30.8 52.9,34.4 49.6,40.8 32,39.5 14.4,40.8 				"/>
			</g>
		</g>
	</g>
</g>
</svg>
