<?xml version="1.0" encoding="utf-8"?>
<!-- Generator: Adobe Illustrator 16.0.0, SVG Export Plug-In . SVG Version: 6.00 Build 0)  -->
<!DOCTYPE svg PUBLIC "-//W3C//DTD SVG 1.1//EN" "http://www.w3.org/Graphics/SVG/1.1/DTD/svg11.dtd">
<svg version="1.1" id="Layer_1" xmlns="http://www.w3.org/2000/svg" xmlns:xlink="http://www.w3.org/1999/xlink" x="0px" y="0px"
	 width="64px" height="64px" viewBox="0 0 64 64" enable-background="new 0 0 64 64" xml:space="preserve">
<g>
	<g>
		<circle fill="#FFAB17" cx="32" cy="32" r="30.9"/>
		<path fill="#FF8A15" d="M53.8,10.2c12,12,12,31.6,0,43.6c-12.1,12-31.6,12-43.6,0"/>
	</g>
	<g>
		<g>
			<polygon fill="#7FD6EA" points="9.9,37.4 0.5,21.9 14.1,8 31.9,15.9 24.5,32.7 25.2,40.4 			"/>
			<polyline fill="#52C1DB" points="31.9,15.9 24.5,32.7 25.2,40.4 9.9,37.4 0.5,21.9 			"/>
			<polygon fill="#A7E2F2" points="54.1,37.4 63.5,21.9 49.9,8 32.1,15.9 39.5,32.7 38.8,40.4 			"/>
			<polyline fill="#89DBEF" points="32.1,15.9 39.5,32.7 38.8,40.4 54.1,37.4 63.5,21.9 			"/>
			<polygon fill="#52C1DB" points="54.1,37.4 55.9,34.5 44.8,23.4 38.3,29.9 39.5,32.7 38.8,40.4 			"/>
			<polygon fill="#A7E2F2" points="19,23.3 31.9,15.9 44.8,23.3 42.3,38.2 31.9,46.6 21.5,38.2 			"/>
			<polyline fill="#7FD6EA" points="31.9,15.9 44.8,23.3 42.3,38.2 31.9,46.6 			"/>
			<polygon fill="#52C1DB" points="32,45.5 32.6,46.1 40.6,39.6 36.5,35.4 32,39.9 			"/>
			<polygon fill="#7FD6EA" points="26.8,35.4 31.9,31.7 37,35.4 34,60.6 31.9,62.2 29.8,60.6 			"/>
			<polygon fill="#7FD6EA" points="24.8,37.3 22,38.7 27.6,43.1 			"/>
			<g>
				<polygon fill="#FCFBE6" points="21.4,37.3 23.1,36.1 24.7,37.3 23.7,45.6 23.1,46.1 22.4,45.6 				"/>
				<polyline fill="#EFECC5" points="23.1,36.1 24.7,37.3 23.7,45.6 23.1,46.1 22.4,45.6 				"/>
			</g>
			<g>
				<polygon fill="#FCFBE6" points="39,37.3 40.7,36.1 42.4,37.3 41.4,45.6 40.7,46.1 40,45.6 				"/>
				<polyline fill="#EFECC5" points="40.7,36.1 42.4,37.3 41.4,45.6 40.7,46.1 40,45.6 				"/>
			</g>
			<polyline fill="#A7E2F2" points="31.9,62.2 29.8,60.6 26.8,35.4 31.9,31.7 			"/>
			<g>
				<path fill="#CEECF4" d="M33.3,19.5c0,0.2-0.1,0.5-0.3,0.5h-2.2c-0.2,0-0.3-0.3-0.3-0.5l0,0c0-0.2,0.1-0.5,0.3-0.5H33
					C33.2,19,33.3,19.3,33.3,19.5L33.3,19.5z"/>
				<path fill="#CEECF4" d="M33.3,23.5c0,0.2-0.1,0.5-0.3,0.5h-2.2c-0.2,0-0.3-0.3-0.3-0.5l0,0c0-0.2,0.1-0.5,0.3-0.5H33
					C33.2,23,33.3,23.3,33.3,23.5L33.3,23.5z"/>
				<path fill="#CEECF4" d="M33.3,27.5c0,0.2-0.1,0.5-0.3,0.5h-2.2c-0.2,0-0.3-0.3-0.3-0.5l0,0c0-0.2,0.1-0.5,0.3-0.5H33
					C33.2,27,33.3,27.3,33.3,27.5L33.3,27.5z"/>
				<path fill="#CEECF4" d="M33.3,31.5c0,0.2-0.1,0.5-0.3,0.5h-2.2c-0.2,0-0.3-0.3-0.3-0.5l0,0c0-0.2,0.1-0.5,0.3-0.5H33
					C33.2,31,33.3,31.3,33.3,31.5L33.3,31.5z"/>
				<path fill="#CEECF4" d="M33.3,35.5c0,0.2-0.1,0.5-0.3,0.5h-2.2c-0.2,0-0.3-0.3-0.3-0.5l0,0c0-0.2,0.1-0.5,0.3-0.5H33
					C33.2,35,33.3,35.3,33.3,35.5L33.3,35.5z"/>
				<path fill="#CEECF4" d="M33.3,39.5c0,0.2-0.1,0.5-0.3,0.5h-2.2c-0.2,0-0.3-0.3-0.3-0.5l0,0c0-0.2,0.1-0.5,0.3-0.5H33
					C33.2,39,33.3,39.3,33.3,39.5L33.3,39.5z"/>
				<path fill="#CEECF4" d="M33.3,43.5c0,0.2-0.1,0.5-0.3,0.5h-2.2c-0.2,0-0.3-0.3-0.3-0.5l0,0c0-0.2,0.1-0.5,0.3-0.5H33
					C33.2,43,33.3,43.3,33.3,43.5L33.3,43.5z"/>
				<path fill="#CEECF4" d="M33.3,47.5c0,0.2-0.1,0.5-0.3,0.5h-2.2c-0.2,0-0.3-0.3-0.3-0.5l0,0c0-0.2,0.1-0.5,0.3-0.5H33
					C33.2,47,33.3,47.3,33.3,47.5L33.3,47.5z"/>
				<path fill="#CEECF4" d="M33.3,51.5c0,0.2-0.1,0.5-0.3,0.5h-2.2c-0.2,0-0.3-0.3-0.3-0.5l0,0c0-0.2,0.1-0.5,0.3-0.5H33
					C33.2,51,33.3,51.3,33.3,51.5L33.3,51.5z"/>
				<path fill="#CEECF4" d="M33.3,55.5c0,0.2-0.1,0.5-0.3,0.5h-2.2c-0.2,0-0.3-0.3-0.3-0.5l0,0c0-0.2,0.1-0.5,0.3-0.5H33
					C33.2,55,33.3,55.3,33.3,55.5L33.3,55.5z"/>
				<path fill="#CEECF4" d="M33.3,59.5c0,0.2-0.1,0.5-0.3,0.5h-2.2c-0.2,0-0.3-0.3-0.3-0.5l0,0c0-0.2,0.1-0.5,0.3-0.5H33
					C33.2,59,33.3,59.3,33.3,59.5L33.3,59.5z"/>
			</g>
			<g>
				<g>
					<polygon fill="#369CBF" points="27,31.5 24,30.6 24,28.8 27,29.8 					"/>
					<polyline fill="#03627C" points="27,29.8 27,31.5 24,30.6 					"/>
				</g>
				<g>
					<g>
						<polygon fill="#369CBF" points="37,31.7 40,30.6 40,28.8 37,30 						"/>
					</g>
					<g>
						<polyline fill="#03627C" points="37,31.7 40,30.6 40,28.8 						"/>
					</g>
				</g>
			</g>
		</g>
	</g>
</g>
</svg>
