<?xml version="1.0" encoding="utf-8"?>
<!-- Generator: Adobe Illustrator 16.0.0, SVG Export Plug-In . SVG Version: 6.00 Build 0)  -->
<!DOCTYPE svg PUBLIC "-//W3C//DTD SVG 1.1//EN" "http://www.w3.org/Graphics/SVG/1.1/DTD/svg11.dtd">
<svg version="1.1" id="Layer_1" xmlns="http://www.w3.org/2000/svg" xmlns:xlink="http://www.w3.org/1999/xlink" x="0px" y="0px"
	 width="64px" height="64px" viewBox="0 0 64 64" enable-background="new 0 0 64 64" xml:space="preserve">
<g>
	<g>
		<g>
			<g>
				<polygon fill="#FFC114" points="5.4,36.4 30.4,46 32,63 15,61.4 				"/>
				<polyline fill="#FFCD50" points="32,63 15,61.4 5.4,36.4 				"/>
			</g>
			<g>
				<polygon fill="#F9A035" points="16,47 21.8,62 32,63 31,52.8 				"/>
				<polyline fill="#FF9A15" points="32,63 31,52.8 16,47 				"/>
			</g>
		</g>
		<g>
			<g>
				<polygon fill="#FFC114" points="58.6,36.4 49,61.4 32,63 33.6,46 				"/>
				<polyline fill="#FFCD50" points="32,63 33.6,46 58.6,36.4 				"/>
			</g>
			<g>
				<polygon fill="#F9A035" points="48,47 33,52.8 32,63 42.2,62 				"/>
				<polyline fill="#FF9A15" points="32,63 42.2,62 48,47 				"/>
			</g>
		</g>
	</g>
	<g>
		<g>
			<polygon fill="#EAAD13" points="32,1 49.9,41.3 32,63 14.1,41.3 			"/>
			<polyline fill="#FFCD50" points="32,63 14.1,41.3 32,1 			"/>
		</g>
		<g>
			<polygon fill="#F9A035" points="32,25.7 21.3,50 32,63 42.7,50 			"/>
			<polyline fill="#EF8A11" points="32,63 42.7,50 32,25.7 			"/>
		</g>
	</g>
	<g>
		<g>
			<g>
				<polygon fill="#FFC114" points="7,10.4 17,23.1 12.6,32.3 4.3,26.3 				"/>
				<polyline fill="#FFCD50" points="12.6,32.3 4.3,26.3 7,10.4 				"/>
			</g>
			<g>
				<polygon fill="#F9A035" points="9.2,19.2 7.6,28.7 12.6,32.3 15.2,26.8 				"/>
				<polyline fill="#FF9A15" points="12.6,32.3 15.2,26.8 9.2,19.2 				"/>
			</g>
		</g>
		<g>
			<g>
				<polygon fill="#FFC114" points="57,10.4 47,23.1 51.4,32.3 59.7,26.3 				"/>
				<polyline fill="#FFCD50" points="51.4,32.3 59.7,26.3 57,10.4 				"/>
			</g>
			<g>
				<polygon fill="#F9A035" points="54.8,19.2 56.4,28.7 51.4,32.3 48.8,26.8 				"/>
				<polyline fill="#FF9A15" points="51.4,32.3 48.8,26.8 54.8,19.2 				"/>
			</g>
		</g>
	</g>
</g>
</svg>
