<?xml version="1.0" encoding="utf-8"?>
<!-- Generator: Adobe Illustrator 16.0.0, SVG Export Plug-In . SVG Version: 6.00 Build 0)  -->
<!DOCTYPE svg PUBLIC "-//W3C//DTD SVG 1.1//EN" "http://www.w3.org/Graphics/SVG/1.1/DTD/svg11.dtd">
<svg version="1.1" id="Layer_1" xmlns="http://www.w3.org/2000/svg" xmlns:xlink="http://www.w3.org/1999/xlink" x="0px" y="0px"
	 width="64px" height="64px" viewBox="0 0 64 64" enable-background="new 0 0 64 64" xml:space="preserve">
<g>
	<g>
		<circle fill="#51D687" cx="32" cy="32" r="31.1"/>
		<path fill="#3CC676" d="M54,10C66.1,22.2,66.1,41.8,54,54C41.8,66.1,22.2,66.1,10,54"/>
	</g>
	<g>
		<g>
			<polygon fill="#66480E" points="56.5,50 32,63 7.5,50 16.3,16.9 32,1 47.7,16.9 			"/>
			<polyline fill="#99751A" points="7.5,50 16.3,16.9 32,1 47.7,16.9 56.5,50 			"/>
			<polyline fill="#72500C" points="32,63 7.5,50 16.3,16.9 32,1 47.7,16.9 32,63 			"/>
			<polyline fill="#7F5E13" points="16.3,16.9 32,1 47.7,16.9 32,63 			"/>
			<polyline fill="#72500C" points="16.3,16.9 32,1 47.7,16.9 			"/>
		</g>
		<path fill="#7F5E13" d="M32,1"/>
		<g>
			<polygon fill="#99751A" points="7.5,14 32,1 56.5,14 47.7,47.1 32,63 16.3,47.1 			"/>
			<polyline fill="#72500C" points="32,1 56.5,14 47.7,47.1 32,63 16.3,47.1 32,1 			"/>
			<polyline fill="#7F5E13" points="47.7,47.1 32,63 16.3,47.1 32,1 			"/>
		</g>
		<path fill="#6B4A09" d="M32,1"/>
		<polygon fill="#FCCC32" points="17.2,18.6 32,13.5 46.8,18.6 42.7,37.9 32,46.4 21.3,37.9 		"/>
		<polygon fill="#FFC114" points="17.2,18.6 32,23.9 46.8,18.6 42.7,37.9 32,46.4 21.3,37.9 		"/>
		<polyline fill="#EAAC0F" points="46.8,18.6 42.7,37.9 32,46.4 21.3,37.9 28,36.5 		"/>
		<polygon fill="#FFC114" points="22.7,30.3 32,27.1 41.3,30.3 38.8,42.6 32,46.8 25.2,42.6 		"/>
		<polygon fill="#D39202" points="43.8,32.8 41.3,30.3 32,39.6 35.8,43.4 42.7,37.9 		"/>
		<polygon fill="#EAAC0F" points="32,38.3 32,27.1 41.3,30.3 38.8,42.6 32,46.8 25.2,42.6 		"/>
		<polygon fill="#B7892E" points="29,34 32,35.8 35,34 		"/>
		<polygon fill="#99751A" points="32.4,34 32,35.8 35,34 		"/>
		<g>
			<g>
				<polygon fill="#0AA06E" points="27,28.1 24,27.1 24,25.2 27,26.3 				"/>
				<polyline fill="#007C56" points="27,26.3 27,28.1 24,27.1 				"/>
			</g>
			<g>
				<g>
					<polygon fill="#0AA06E" points="37,28.1 40,27.1 40,25.2 37,26.3 					"/>
				</g>
				<g>
					<polyline fill="#007C56" points="37,28.1 40,27.1 40,25.2 					"/>
				</g>
			</g>
		</g>
		<g>
			<polygon fill="#EAAC0F" points="17,16.1 17,12.5 23.3,14.1 			"/>
			<polygon fill="#FFC114" points="17,16.1 17,12.5 20.2,15.1 			"/>
		</g>
		<g>
			<polygon fill="#EAAC0F" points="47,16.1 47,12.5 40.7,14.1 			"/>
			<polygon fill="#D39202" points="47,16.1 47,12.5 43.8,15.1 			"/>
		</g>
		<polygon fill="#D39202" points="33.1,17.5 32,23.4 30.9,17.5 32,14.8 		"/>
		<polyline fill="#B7892E" points="32,14.8 33.1,17.5 32,23.4 		"/>
	</g>
</g>
</svg>
