<?xml version="1.0" encoding="utf-8"?>
<!-- Generator: Adobe Illustrator 16.0.0, SVG Export Plug-In . SVG Version: 6.00 Build 0)  -->
<!DOCTYPE svg PUBLIC "-//W3C//DTD SVG 1.1//EN" "http://www.w3.org/Graphics/SVG/1.1/DTD/svg11.dtd">
<svg version="1.1" id="Layer_1" xmlns="http://www.w3.org/2000/svg" xmlns:xlink="http://www.w3.org/1999/xlink" x="0px" y="0px"
	 width="64px" height="64px" viewBox="0 0 64 64" enable-background="new 0 0 64 64" xml:space="preserve">
<g>
	<g>
		<circle fill="#BC628B" cx="32" cy="32" r="31.1"/>
		<path fill="#AA507D" d="M54,10C66.1,22.2,66.1,41.8,54,54C41.8,66.1,22.2,66.1,10,54"/>
	</g>
	<g>
		<g>
			<g>
				<polygon fill="#B2C1BF" points="8.6,23.8 0.7,13.4 7.6,2 23.9,4.3 27.8,23 21.4,26.2 				"/>
				<polyline fill="#9FADAB" points="23.9,4.3 27.8,23 21.4,26.2 8.6,23.8 				"/>
				<polygon fill="#E5CFAC" points="14.1,24.8 9.5,18.6 13.5,11.9 23.2,13.2 25.5,24.3 21.7,26.2 				"/>
				<polyline fill="#D3BA97" points="23.2,13.2 25.5,24.3 21.7,26.2 14.1,24.8 				"/>
			</g>
			<g>
				<polygon fill="#B2C1BF" points="55.4,23.8 63.3,13.4 56.4,2 40.1,4.3 36.2,23 42.6,26.2 				"/>
				<polyline fill="#9FADAB" points="40.1,4.3 36.2,23 42.6,26.2 55.4,23.8 				"/>
				<polygon fill="#E5CFAC" points="49.9,24.8 54.5,18.6 50.5,11.9 40.8,13.2 38.5,24.3 42.3,26.2 				"/>
				<polyline fill="#D3BA97" points="40.8,13.2 38.5,24.3 42.3,26.2 49.9,24.8 				"/>
			</g>
		</g>
		<g>
			<polygon fill="#B2C1BF" points="13.3,24.7 32,18.6 50.7,24.7 44.5,54.6 32,62 19.5,54.6 			"/>
			<polygon fill="#C7D3D2" points="13.3,24.7 32,34 50.7,24.7 44.5,54.6 32,62 19.5,54.6 			"/>
			<polyline fill="#B2C1BF" points="32,18.6 50.7,24.7 44.5,54.6 32,62 			"/>
			<g>
				<g>
					<ellipse fill="#5E6664" cx="24.2" cy="39.8" rx="1.9" ry="1.7"/>
					<path fill="#2F423F" d="M25.5,38.6c0.7,0.7,0.7,1.7,0,2.4c-0.7,0.7-1.9,0.7-2.7,0"/>
				</g>
				<g>
					<ellipse fill="#5E6664" cx="39.8" cy="39.8" rx="1.9" ry="1.7"/>
					<path fill="#2F423F" d="M41.1,38.6c0.7,0.7,0.7,1.7,0,2.4c-0.7,0.7-1.9,0.7-2.7,0"/>
				</g>
			</g>
			<g>
				<polygon fill="#77501D" points="35,62 29,62 25.1,56 38.9,56 				"/>
				<polygon fill="#9E7738" points="35,58 29,58 25.1,56 38.9,56 				"/>
			</g>
		</g>
		<g>
			<g>
				<rect x="14" y="49" fill="#B2C1BF" width="13" height="1"/>
				
					<rect x="14" y="53.2" transform="matrix(0.9669 -0.2551 0.2551 0.9669 -12.9945 6.9458)" fill="#B2C1BF" width="12.6" height="0.8"/>
			</g>
			<g>
				<rect x="37" y="49" fill="#C7D3D2" width="13" height="1"/>
				
					<rect x="37.4" y="53.2" transform="matrix(-0.9669 -0.2551 0.2551 -0.9669 72.3348 116.5068)" fill="#C7D3D2" width="12.6" height="0.8"/>
			</g>
		</g>
	</g>
</g>
</svg>
