<?xml version="1.0" encoding="utf-8"?>
<!-- Generator: Adobe Illustrator 16.0.0, SVG Export Plug-In . SVG Version: 6.00 Build 0)  -->
<!DOCTYPE svg PUBLIC "-//W3C//DTD SVG 1.1//EN" "http://www.w3.org/Graphics/SVG/1.1/DTD/svg11.dtd">
<svg version="1.1" id="Layer_1" xmlns="http://www.w3.org/2000/svg" xmlns:xlink="http://www.w3.org/1999/xlink" x="0px" y="0px"
	 width="64px" height="64px" viewBox="0 0 64 64" enable-background="new 0 0 64 64" xml:space="preserve">
<g>
	<g>
		<circle fill="#5E6664" cx="32" cy="32" r="31.1"/>
		<path fill="#2F423F" d="M54,10C66.1,22.2,66.1,41.8,54,54C41.8,66.1,22.2,66.1,10,54"/>
	</g>
	<g>
		<g>
			<g>
				<polygon fill="#E5CFAC" points="3.6,36.5 0.3,29.2 3.9,22 10.1,20 13.3,29.4 9.9,40.1 				"/>
				<polygon fill="#CCAF89" points="3.6,36.5 6.3,29.8 3.9,22 10.1,20 13.3,29.4 9.9,40.1 				"/>
			</g>
			<g>
				<polygon fill="#E5CFAC" points="60.4,36.5 63.7,29.2 60.1,22 53.9,20 50.7,29.4 54.1,40.1 				"/>
				<polygon fill="#CCAF89" points="60.4,36.5 57.7,29.8 60.1,22 53.9,20 50.7,29.4 54.1,40.1 				"/>
			</g>
		</g>
		<polygon fill="#A88547" points="58.2,47 32,62.5 5.8,47 6.7,14.2 32,5.6 57.3,14.2 		"/>
		<polyline fill="#8E6C3A" points="32,1.6 57.3,17.2 58.2,47 32,62.5 		"/>
		<g>
			<polygon fill="#A88547" points="18.5,9.2 32.3,1.1 46,9.2 45.5,24.9 32.3,29.4 19,24.9 			"/>
			<polyline fill="#8E6C3A" points="32.3,29.4 19,24.9 18.5,9.2 32.3,1.1 			"/>
		</g>
		<g>
			<polygon fill="#E5CFAC" points="51.3,24.8 41.4,20.1 32,24.6 22.6,20.1 12.7,24.8 14.3,33.3 19.9,36.4 17.8,54.6 32,61 
				46.2,54.6 44.1,36.4 49.7,33.3 			"/>
			<polyline fill="#CCAF89" points="32,61 46.2,54.6 44.1,36.4 49.7,33.3 51.3,24.8 41.4,20.1 32,24.6 			"/>
			<polygon fill="#CCAF89" points="37,48 32,48 23.7,36 37,37 			"/>
			<g>
				<g>
					<ellipse fill="#5E6664" cx="22.8" cy="29.5" rx="2.2" ry="2"/>
					<path fill="#2F423F" d="M24.4,28.1c0.9,0.8,0.9,2,0,2.8c-0.9,0.8-2.3,0.8-3.1,0"/>
				</g>
				<g>
					<path fill="#5E6664" d="M43.4,29.5c0,1.1-1,2-2.2,2c-1.2,0-2.2-0.9-2.2-2c0-1.1,1-2,2.2-2C42.4,27.5,43.4,28.4,43.4,29.5z"/>
					<path fill="#2F423F" d="M42.7,28.1c0.9,0.8,0.9,2,0,2.8c-0.9,0.8-2.3,0.8-3.1,0"/>
				</g>
			</g>
			<polygon fill="#77501D" points="23.7,36 32,41.3 40.3,36 			"/>
			<polygon fill="#493011" points="30.3,36 32,41.3 40.3,36 			"/>
			<circle fill="#5E6664" cx="32" cy="51.3" r="2.4"/>
			<path fill="#2F423F" d="M32,53.6c-1.3,0-2.4-1.1-2.4-2.4s1.1-2.4,2.4-2.4"/>
		</g>
	</g>
</g>
</svg>
