<?xml version="1.0" encoding="utf-8"?>
<!-- Generator: Adobe Illustrator 16.0.0, SVG Export Plug-In . SVG Version: 6.00 Build 0)  -->
<!DOCTYPE svg PUBLIC "-//W3C//DTD SVG 1.1//EN" "http://www.w3.org/Graphics/SVG/1.1/DTD/svg11.dtd">
<svg version="1.1" id="Layer_1" xmlns="http://www.w3.org/2000/svg" xmlns:xlink="http://www.w3.org/1999/xlink" x="0px" y="0px"
	 width="64px" height="64px" viewBox="0 0 64 64" enable-background="new 0 0 64 64" xml:space="preserve">
<g>
	<g>
		<circle fill="#F15249" cx="32" cy="32" r="31.1"/>
		<path fill="#C93131" d="M54,10C66.1,22.2,66.1,41.8,54,54S22.2,66.1,10,54"/>
	</g>
	<g>
		<polygon fill="#918B70" points="62.7,44.4 32,62.3 1.3,44.4 7.8,25.3 32,15.3 56.2,25.3 		"/>
		<polyline fill="#75705A" points="32,15.3 56.2,25.3 62.7,44.4 32,62.3 1.3,44.4 		"/>
		<g>
			<g>
				<polygon fill="#918B70" points="30.3,16 8,16 8,1.7 15.9,8 				"/>
				<polyline fill="#75705A" points="15.9,8 30.3,16 8,16 				"/>
			</g>
			<g>
				<polygon fill="#918B70" points="33.7,16 56,16 56,1.7 48.1,8 				"/>
				<polyline fill="#75705A" points="48.1,8 33.7,16 56,16 				"/>
			</g>
		</g>
		<polygon fill="#E5E1C7" points="7.6,15.9 31.9,7.4 56.2,15.9 51.2,41.1 31.9,50.7 12.6,41.1 		"/>
		<polyline fill="#DDDAC0" points="31.9,7.4 56.2,15.9 51.2,41.1 31.9,50.7 		"/>
		<g>
			<polygon fill="#DDDAC0" points="11.8,14.4 12.7,18.8 32,28.4 51.3,18.8 52.2,14.5 31.9,7.4 			"/>
			<polygon fill="#E5E1C7" points="32.1,28.4 51.4,18.8 52.2,14.5 32,7.4 32,28.3 			"/>
		</g>
		<g>
			<polygon fill="#918B70" points="19.8,11.6 20.3,14.3 32,20.1 43.7,14.3 44.2,11.7 32,7.4 			"/>
			<polygon fill="#75705A" points="32,20.1 43.7,14.3 44.3,11.7 32,7.4 32,20.1 			"/>
		</g>
		<g>
			<path fill="#C6C2A7" d="M30.4,34.2c-1.9,5.2-7.6,7.9-12.8,6.1c-5.2-1.9-7.9-7.6-6.1-12.8"/>
			<path fill="#C6C2A7" d="M33.4,34.2c1.9,5.2,7.6,7.9,12.8,6.1c5.2-1.9,7.9-7.6,6-12.8"/>
		</g>
		<g>
			<g>
				<path fill="#B2AC8D" d="M30.6,34.3c-1.6,4.5-6.6,6.9-11.1,5.3c-4.5-1.6-6.9-6.6-5.3-11.1"/>
			</g>
			<g>
				<path fill="#B2AC8D" d="M33.2,34.3c1.6,4.5,6.6,6.9,11.1,5.3c4.5-1.6,6.9-6.6,5.3-11.1"/>
			</g>
		</g>
		<polygon fill="#C6C2A7" points="31.9,50.7 40.6,46.4 31.9,37.8 23.3,46.4 		"/>
		<polygon fill="#B2AC8D" points="25.6,47.5 31.9,50.7 38.3,47.5 31.9,41.2 		"/>
		<g>
			<g>
				<g>
					<g>
						<polygon fill="#5E6664" points="24,36.4 17,33.9 17,29.5 24,31.9 						"/>
						<polyline fill="#2F423F" points="24,32 24,36.4 17.1,34 						"/>
					</g>
				</g>
				<path fill="#FCCC32" d="M22.3,32.9c0,1.1-0.9,1.9-1.9,1.9c-1.1,0-1.9-0.9-1.9-1.9s0.9-1.9,1.9-1.9C21.4,31,22.3,31.8,22.3,32.9z
					"/>
				<path fill="#EFAE0C" d="M21.7,31.5c0.8,0.8,0.8,2,0,2.7c-0.8,0.8-2,0.8-2.7,0"/>
			</g>
			<g>
				<g>
					<g>
						<polygon fill="#5E6664" points="40,36.4 47,33.9 47,29.5 40,31.9 						"/>
						<polyline fill="#2F423F" points="40,32 40,36.4 46.9,34 						"/>
					</g>
				</g>
				<g>
					<circle fill="#FCCC32" cx="43.5" cy="32.9" r="1.9"/>
					<path fill="#EFAE0C" d="M42.1,34.3c0.8,0.8,2,0.8,2.7,0c0.8-0.8,0.8-2,0-2.7"/>
				</g>
			</g>
		</g>
		<g>
			<g>
				<polygon fill="#FCCC32" points="34.1,43.4 31.9,48.7 29.7,43.4 31.9,37.7 				"/>
			</g>
			<polyline fill="#EFAE0C" points="31.9,37.7 34.1,43.4 31.9,48.7 			"/>
		</g>
		<g>
			<g>
				<polygon fill="#918B70" points="32,34.9 7.4,26 7.6,15.9 11.9,22.5 				"/>
				<polyline fill="#75705A" points="11.9,22.5 32,34.9 7.4,26 				"/>
			</g>
			<g>
				<polygon fill="#918B70" points="31.8,34.9 56.4,26 56.2,15.9 51.9,22.5 				"/>
				<polyline fill="#75705A" points="51.9,22.5 31.8,34.9 56.4,26 				"/>
			</g>
		</g>
	</g>
</g>
</svg>
