<?xml version="1.0" encoding="utf-8"?>
<!-- Generator: Adobe Illustrator 16.0.0, SVG Export Plug-In . SVG Version: 6.00 Build 0)  -->
<!DOCTYPE svg PUBLIC "-//W3C//DTD SVG 1.1//EN" "http://www.w3.org/Graphics/SVG/1.1/DTD/svg11.dtd">
<svg version="1.1" id="Layer_1" xmlns="http://www.w3.org/2000/svg" xmlns:xlink="http://www.w3.org/1999/xlink" x="0px" y="0px"
	 width="64px" height="64px" viewBox="0 0 64 64" enable-background="new 0 0 64 64" xml:space="preserve">
<g>
	<g>
		<circle fill="#5E6664" cx="32" cy="32.1" r="30.2"/>
		<path fill="#2F423F" d="M53.4,10.8c11.8,11.8,11.8,30.9,0,42.7c-11.8,11.8-30.9,11.8-42.7,0"/>
	</g>
	<g>
		<polygon fill="#E5E1C7" points="60.2,62.4 32,62.7 3.8,62.4 32,43.9 		"/>
		<polyline fill="#DDDAC0" points="32,43.9 60.2,62.4 32,62.7 		"/>
		<g>
			<polygon fill="#DDDAC0" points="15.1,23.5 32,16.3 48.9,23.5 47.1,48.1 32,55.6 16.9,48.1 			"/>
			<polygon fill="#E5E1C7" points="15.2,24.3 16.9,48.1 16.9,48.1 28.1,35.4 15.3,24.1 			"/>
			<polygon fill="#C6C2A7" points="16.9,48.1 32,55.6 47.1,48.1 48.9,23.5 32,16.3 31.9,46.8 			"/>
			<polygon fill="#BAB69B" points="48.7,24.1 35.9,35.4 47.1,48.1 47.1,48.1 48.8,24.3 			"/>
			<g>
				<g>
					<polygon fill="#5E6664" points="25,40 21,38.5 21,35.7 25,37.2 					"/>
					<polyline fill="#2F423F" points="25,37.6 25,40 21,38.5 					"/>
				</g>
				<g>
					<g>
						<polygon fill="#5E6664" points="39,40 43,38.5 43,35.7 39,37.2 						"/>
					</g>
					<g>
						<polyline fill="#2F423F" points="39,40 43,38.5 43,36 						"/>
					</g>
				</g>
			</g>
			<g>
				<g>
					<polygon fill="#C6C2A7" points="2.1,1.3 1,7.9 6.3,8.2 11.3,4.4 					"/>
					<polygon fill="#DDDAC0" points="13.7,6.1 2.1,1.3 14.7,3 26.1,13.4 29.3,22.9 20.6,24 					"/>
					<g>
						<g>
							<polygon fill="#C97396" points="18.4,26.9 13.3,20.6 13.7,6.1 21.3,13.3 25.6,23.3 							"/>
							<polyline fill="#E28FAF" points="21.3,13.3 25.6,23.3 18.4,26.9 13.3,20.6 							"/>
							<polyline fill="#C6C2A7" points="21.3,13.3 25.6,23.3 18.4,26.9 							"/>
						</g>
					</g>
				</g>
				<g>
					<polygon fill="#C6C2A7" points="61.9,1.3 63,8.9 57.7,8.2 52.7,4.4 					"/>
					<polygon fill="#DDDAC0" points="50.3,6.1 61.9,1.3 49.3,3 37.9,13.4 34.7,22.9 43.4,24 					"/>
					<g>
						<g>
							<polygon fill="#C97396" points="45.6,26.9 50.7,20.6 50.3,6.1 42.7,13.3 38.4,23.3 							"/>
							<polyline fill="#E28FAF" points="42.7,13.3 38.4,23.3 45.6,26.9 50.7,20.6 							"/>
							<polyline fill="#C6C2A7" points="42.7,13.3 38.4,23.3 45.6,26.9 							"/>
						</g>
					</g>
				</g>
			</g>
			<g>
				<polygon fill="#E28FAF" points="28.1,46 29,47.7 32,49.3 35,47.7 35.9,46 				"/>
				<polyline fill="#CC7196" points="29,47.7 32,49.3 35,47.7 35.9,46 				"/>
			</g>
			<path fill="#C6C2A7" d="M5.3,10.1"/>
		</g>
	</g>
</g>
</svg>
