<?xml version="1.0" encoding="utf-8"?>
<!-- Generator: Adobe Illustrator 16.0.0, SVG Export Plug-In . SVG Version: 6.00 Build 0)  -->
<!DOCTYPE svg PUBLIC "-//W3C//DTD SVG 1.1//EN" "http://www.w3.org/Graphics/SVG/1.1/DTD/svg11.dtd">
<svg version="1.1" id="Layer_1" xmlns="http://www.w3.org/2000/svg" xmlns:xlink="http://www.w3.org/1999/xlink" x="0px" y="0px"
	 width="64px" height="64px" viewBox="0 0 64 64" enable-background="new 0 0 64 64" xml:space="preserve">
<g>
	<g>
		<circle fill="#F15249" cx="32" cy="30.2" r="29.8"/>
		<path fill="#C93131" d="M53.1,9.1c11.7,11.7,11.7,30.6,0,42.2c-11.7,11.7-30.6,11.7-42.2,0"/>
	</g>
	<g>
		<g>
			<polygon fill="#FFFFFF" points="24,14.9 17.5,11.2 11,14.9 11,22.3 12,22.9 11,23.6 11,27.6 5,31.3 5,41.5 11,45.3 11,49.3 
				17.5,53 24,49.3 24,41.9 22,41 22,31.9 24,31 24,23.6 23,22.9 24,22.3 			"/>
			<polyline fill="#E5E5E5" points="11,45 11,49.3 17.5,53 24,49.3 24,41.9 22,41 22,31.9 24,31 24,23.6 23,22.9 24,22.3 24,15 			
				"/>
			<polygon fill="#E5E5E5" points="59,31.3 53,27.6 53,23.6 52,22.9 53,22.3 53,14.9 46.5,11.2 40,14.9 40,22.3 41.1,22.9 40,23.6 
				40,31 42,31.9 42,41 40,41.9 40,49.3 46.5,53 53,49.3 53,45.3 59,41.5 			"/>
			<polyline fill="#C1C1C1" points="46.5,11.1 40,14.9 40,22.3 41.1,22.9 40,23.6 40,31 42,31.9 42,41 40,41.9 40,49.3 46.5,53 
				53,49.3 53,45 			"/>
		</g>
		<g>
			<g>
				<polygon fill="#FFC114" points="12.9,17.4 32,11.2 51.1,17.4 45.9,42.4 32,53.3 18.1,42.4 				"/>
				<polyline fill="#EAAC0F" points="32,11.2 51.1,17.4 45.9,42.4 32,53.3 				"/>
				<polygon fill="#FFC114" points="22,40 32,38 42,40 40.2,59.7 32,63.7 23.8,59.7 				"/>
				<polyline fill="#EAAC0F" points="32,38 42,40 40.2,59.7 32,63.7 				"/>
				<g>
					<polygon fill="#FFC114" points="18,16.9 1,17.8 9.3,26.1 17.8,21.7 					"/>
					<polyline fill="#EAAC0F" points="9.3,26.1 17.8,21.7 18,16.9 					"/>
					<polygon fill="#FFC114" points="46,16.9 63,17.8 54.7,26.1 46.2,21.7 					"/>
					<polyline fill="#EAAC0F" points="46,16.9 63,17.8 54.7,26.1 					"/>
				</g>
			</g>
			<g>
				<g>
					<path fill="#5E6664" d="M26.8,30.3c0,0.9-0.8,1.7-1.9,1.7c-1,0-1.9-0.7-1.9-1.7c0-0.9,0.8-1.7,1.9-1.7
						C26,28.7,26.8,29.4,26.8,30.3z"/>
					<path fill="#2F423F" d="M26.3,29.2c0.7,0.6,0.7,1.7,0,2.3c-0.7,0.6-1.9,0.6-2.6,0"/>
				</g>
				<g>
					<ellipse fill="#5E6664" cx="39" cy="30.3" rx="1.9" ry="1.7"/>
					<path fill="#2F423F" d="M40.3,29.2c0.7,0.6,0.7,1.7,0,2.3c-0.7,0.6-1.9,0.6-2.6,0"/>
				</g>
			</g>
			<polygon fill="#9E7738" points="34.4,61 29.6,61 26.4,56 37.5,56 			"/>
			<polygon fill="#C1924D" points="34.4,58 29.6,58 26.4,56 37.5,56 			"/>
			<polygon fill="#EAAC0F" points="17.8,21.7 33.4,32.8 34.8,19.5 20.8,18.2 17.4,18.5 16.8,19.2 15.7,21.1 			"/>
		</g>
		<polygon fill="#FFFFFF" points="50.4,13 46.3,6 39.5,6 37.6,2 26.3,2 24.4,6 17.6,6 13.5,13 17.6,20 25,20 26.3,22 37.6,22 
			38.9,20 46.3,20 		"/>
		<polyline fill="#E5E5E5" points="18,20 25,20 26.3,22 37.6,22 38.9,20 46.3,20 50.4,13 46.3,6 39.5,6 37.8,2.6 		"/>
	</g>
</g>
</svg>
