<?xml version="1.0" encoding="utf-8"?>
<!-- Generator: Adobe Illustrator 16.0.0, SVG Export Plug-In . SVG Version: 6.00 Build 0)  -->
<!DOCTYPE svg PUBLIC "-//W3C//DTD SVG 1.1//EN" "http://www.w3.org/Graphics/SVG/1.1/DTD/svg11.dtd">
<svg version="1.1" id="Layer_1" xmlns="http://www.w3.org/2000/svg" xmlns:xlink="http://www.w3.org/1999/xlink" x="0px" y="0px"
	 width="64px" height="64px" viewBox="0 0 64 64" enable-background="new 0 0 64 64" xml:space="preserve">
<g>
	<g>
		<g>
			<polygon fill="#493011" points="54,39.1 61.8,23.7 57.9,8.9 54,9.4 			"/>
			<g>
				<g>
					<path fill="#493011" d="M4.4,40.3c-3.5-1.6-5-5.7-3.4-9.2c1.6-3.5,5.7-5,9.1-3.4"/>
					<path fill="#EAAC0F" d="M29,41H11.1c-4.7,0-8.5-3.8-8.5-8.5l0,0c0-4.7,3.8-8.5,8.5-8.5H20"/>
					<path fill="#FFD215" d="M23,41H11.1c-4.7,0-8.5-3.8-8.5-8.5l0,0"/>
					<path fill="#FFC114" d="M54.2,24c0,10-8.5,19-19,19c-10.5,0-19-9-19-19H54.2z"/>
					<path fill="#EAAC0F" d="M33,24v21c12-0.1,21.2-10,21.2-21H33z"/>
					<path fill="#FFC114" d="M33,24v14.4C41,38.3,47.6,32,47.6,24H33z"/>
					<path fill="#EAAC0F" d="M33,24v8.9c5,0,9.2-3.9,9.2-8.9H33z"/>
					<g>
						<g>
							<polygon fill="#EAAC0F" points="40,38.3 42.1,37.5 44.2,38.3 42.4,50.7 42.1,53.3 40,56.5 							"/>
							<polygon fill="#FFC114" points="40,36.1 42.9,36.9 45.9,37.6 44.3,48.2 41.5,50.4 40,48.2 							"/>
							<polygon fill="#C16A02" points="46,59 40,59 40,54.2 44.3,56.2 							"/>
						</g>
						<circle fill="#FFD215" cx="45.2" cy="39.9" r="5.6"/>
						<path fill="#EAAC0F" d="M49.1,35.9c2.2,2.2,2.2,5.7,0,7.9s-5.7,2.2-7.9,0"/>
					</g>
					<g>
						<g>
							<polygon fill="#EAAC0F" points="4,38.3 6.4,37.5 8.7,38.3 7,50.7 6.4,53.3 4,56.5 							"/>
							<polygon fill="#FFC114" points="4,36.1 7.2,36.9 10.4,37.6 8.9,48.2 5.8,50.4 4,48.2 							"/>
							<polygon fill="#C16A02" points="10.6,59 4,59 4,54.2 8.7,56.2 							"/>
						</g>
						<circle fill="#FFD215" cx="9.9" cy="39.9" r="5.6"/>
						<path fill="#EAAC0F" d="M13.8,35.9c2.2,2.2,2.2,5.7,0,7.9s-5.7,2.2-7.9,0"/>
					</g>
				</g>
			</g>
			<polygon fill="#603D16" points="54,39.1 31.2,23.7 42.5,8.3 54,9.4 			"/>
			<polygon fill="#493011" points="54,39.1 31.2,23.7 44.7,21 54,9.4 			"/>
			<polygon fill="#EAAC0F" points="59.8,18.1 49.6,17.3 52.8,13.8 58.3,14.4 			"/>
			<polygon fill="#CE9006" points="59.8,18.1 49.6,17.3 55.8,16.1 58.3,14.4 			"/>
			<polygon fill="#EAAC0F" points="49.5,17.3 52.8,28.8 63.6,23.2 62.9,17.7 			"/>
			<polygon fill="#CE9006" points="53.4,21.6 52.8,28.8 63.6,23.2 62.9,17.7 			"/>
			<polygon fill="#603D16" points="62.7,18 59.4,18 61.9,20.1 			"/>
			<polyline fill="#493011" points="62.7,18 60.7,18 61.9,20.1 			"/>
			<polygon fill="#EAAC0F" points="48.3,14.9 50.2,12.4 47.6,11.7 			"/>
			<polygon fill="#EAAC0F" points="57.3,13.2 55.3,12.4 57.1,11.7 			"/>
		</g>
		<g>
			<circle fill="#493011" cx="20.3" cy="31.7" r="0.8"/>
			<circle fill="#493011" cx="23.5" cy="31.7" r="0.8"/>
			<circle fill="#493011" cx="26.8" cy="31.7" r="0.8"/>
		</g>
	</g>
	<path fill="#A1B7B6" d="M22.4,14.3c-3.5,0-6.4-2.9-6.4-6.4c0-1,0.2-1.9,0.6-2.7c-2.2,1-3.8,3.2-3.8,5.8c0,3.5,2.9,6.4,6.4,6.4
		c2.6,0,4.8-1.5,5.8-3.8C24.2,14.1,23.3,14.3,22.4,14.3z"/>
</g>
</svg>
