<?xml version="1.0" encoding="utf-8"?>
<!-- Generator: Adobe Illustrator 16.0.0, SVG Export Plug-In . SVG Version: 6.00 Build 0)  -->
<!DOCTYPE svg PUBLIC "-//W3C//DTD SVG 1.1//EN" "http://www.w3.org/Graphics/SVG/1.1/DTD/svg11.dtd">
<svg version="1.1" id="Layer_1" xmlns="http://www.w3.org/2000/svg" xmlns:xlink="http://www.w3.org/1999/xlink" x="0px" y="0px"
	 width="64px" height="64px" viewBox="0 0 64 64" enable-background="new 0 0 64 64" xml:space="preserve">
<g>
	<g>
		<circle fill="#89DBEF" cx="32" cy="32" r="30"/>
		<path fill="#52C1DB" d="M53.2,10.8c11.7,11.7,11.7,30.7,0,42.4s-30.7,11.7-42.4,0"/>
	</g>
	<g>
		<g>
			<g>
				<g>
					<g>
						<polygon fill="#EFA3C2" points="19.1,22.7 9.2,11.2 14.8,2.6 23.4,8.2 						"/>
						<polyline fill="#E583B0" points="14.8,2.6 23.4,8.2 19.1,22.7 						"/>
					</g>
					<g>
						<polygon fill="#EFA3C2" points="44.9,22.7 54.8,11.2 49.2,2.6 40.6,8.2 						"/>
						<polyline fill="#E583B0" points="49.2,2.6 40.6,8.2 44.9,22.7 						"/>
					</g>
				</g>
				<g>
					<g>
						<polygon fill="#FFFFFF" points="10.6,15.9 32,3.1 53.4,15.9 47.5,43.8 32,56 16.5,43.8 						"/>
						<polyline fill="#EDEBD3" points="32,8.9 53.4,15.9 47.5,43.8 32,56 						"/>
						<g>
							<polygon fill="#FFFFFF" points="18.4,37 32,34.6 45.6,37 43.1,61.1 32,63.4 20.9,61.1 							"/>
							<polyline fill="#EDEBD3" points="32,34.6 45.6,37 43.1,61.1 32,63.4 20.9,61.1 							"/>
							<polygon fill="#5E6664" points="20.1,52.7 20.9,61.1 32,63.4 43.1,61.1 43.9,52.7 32,50.6 							"/>
							<polyline fill="#2F423F" points="20.9,61.1 32,63.4 43.1,61.1 43.9,52.7 32,50.6 							"/>
						</g>
					</g>
				</g>
				<polygon fill="#DDDABF" points="40,7.8 32,20.8 32,29.8 46.7,44.5 47.5,43.8 53.4,15.9 				"/>
				<g>
					<polygon fill="#5E6664" points="32,25.4 40.9,7.9 33.4,0.8 32,0.7 32,1.6 32,1.7 32,1.6 32,0.7 30.6,0.8 23.2,7.9 32,25.4 
						32,25.5 32,25.5 32,25.5 					"/>
					<polyline fill="#2F423F" points="32.1,25.5 32,25.6 32,25.5 32,25.5 32,25.4 40.9,7.9 33.4,0.8 32,0.7 32,1.6 32,1.7 32,1.6 
						32,1 					"/>
				</g>
				<g>
					<polygon fill="#828282" points="30,59.9 25,57.9 25,54.3 30,56.4 					"/>
					<polygon fill="#828282" points="34,59.9 39,57.9 39,54.3 34,56.4 					"/>
				</g>
			</g>
		</g>
		<g>
			<g>
				<path fill="#5E6664" d="M26.3,32c0,1.3-1.2,2.4-2.7,2.4c-1.5,0-2.7-1.1-2.7-2.4s1.2-2.4,2.7-2.4C25.1,29.6,26.3,30.7,26.3,32z"
					/>
				<path fill="#2F423F" d="M25.5,30.3c1.1,0.9,1,2.4,0,3.4c-1,0.9-2.7,0.9-3.8,0"/>
			</g>
			<g>
				<path fill="#5E6664" d="M43.1,32c0,1.3-1.2,2.4-2.7,2.4c-1.5,0-2.7-1.1-2.7-2.4s1.2-2.4,2.7-2.4C41.9,29.6,43.1,30.7,43.1,32z"
					/>
				<path fill="#2F423F" d="M42.3,30.3c1.1,0.9,1,2.4,0,3.4c-1,0.9-2.7,0.9-3.8,0"/>
			</g>
		</g>
		<g>
			<polygon fill="#5E6664" points="11.8,21.6 21.8,17.5 12.4,14.8 10.6,15.9 			"/>
			<polygon fill="#5E6664" points="20.4,25.6 12.2,23.2 13.3,28.5 			"/>
			<polygon fill="#5E6664" points="13.9,31.5 14.5,34.5 18.7,32.8 			"/>
			<polygon fill="#5E6664" points="52.2,21.6 53.4,15.9 51.6,14.8 42.2,17.5 			"/>
			<polygon fill="#5E6664" points="51.8,23.2 43.6,25.6 50.7,28.5 			"/>
			<polygon fill="#5E6664" points="50.1,31.5 45.3,32.8 49.5,34.5 			"/>
		</g>
	</g>
</g>
</svg>
